<svg width="48" height="48" viewBox="0 0 48 48" fill="none" xmlns="http://www.w3.org/2000/svg">
    <path d="M26.01 37.99L32 32L16 16L10.01 21.99C10.73 22.1 11.43 22.42 11.98 22.98C13.36 24.36 13.36 26.6 11.98 27.98C10.6 29.36 8.36 29.36 6.98 27.98C6.42 27.42 6.1 26.73 5.99 26.01L0 32L16 48L21.99 42.01C22.1 42.73 22.42 43.42 22.97 43.98C24.35 45.36 26.59 45.36 27.97 43.98C29.35 42.6 29.35 40.36 27.97 38.98C27.42 38.42 26.73 38.1 26.01 37.99Z" fill="#F8873C"/>
    <path d="M32 0L26.01 5.99C25.9 5.27 25.58 4.58 25.03 4.02C23.65 2.64 21.41 2.64 20.03 4.02C18.65 5.4 18.65 7.64 20.03 9.02C20.58 9.57 21.28 9.9 22 10L16 16L21.99 21.99C21.27 22.1 20.57 22.42 20.02 22.98C18.64 24.36 18.64 26.6 20.02 27.98C21.4 29.36 23.64 29.36 25.02 27.98C25.57 27.42 25.9 26.73 26.01 26.01L32 32L37.99 26.01C37.27 25.9 36.57 25.58 36.02 25.02C34.64 23.64 34.64 21.4 36.02 20.02C37.4 18.64 39.64 18.64 41.02 20.02C41.58 20.58 41.9 21.27 42.01 21.99L48 16L32 0Z" fill="#585DEF"/>
</svg>
