<svg fill="none" height="48" viewBox="0 0 69 48" width="69" xmlns="http://www.w3.org/2000/svg"><path clip-rule="evenodd" d="m23.3085 0 3.7106 3.34651-10.7866 12.05809c.2548-.0116.5111-.0175.7687-.0175 8.5359 0 15.4557 6.948 15.4557 15.5188v.776c0 8.9993-7.2658 16.2947-16.2285 16.2947h-.7728c-8.53587 0-15.4556-6.948-15.4556-15.5188 0-4.8376 2.0612-9.263 5.36151-12.3953zm36.4569 0 3.713 3.34867-10.7845 12.05573c.2534-.0115.5081-.0173.7642-.0173 8.5359 0 15.4557 6.948 15.4557 15.5188v.776c0 8.9993-7.2658 16.2947-16.2285 16.2947h-.7727c-8.536 0-15.4557-6.948-15.4557-15.5188 0-4.8376 2.0612-9.263 5.3615-12.3953z" fill="#ff5e04" fill-rule="evenodd"/></svg>