<svg width="456" height="240" viewBox="0 0 456 240" fill="none" xmlns="http://www.w3.org/2000/svg">
<path d="M320 192L314.226 182L325.774 182L320 192ZM278 164L278 163L278 164ZM316 164L316 165L316 164ZM321 168L321 183L319 183L319 168L321 168ZM275 144L275 160L273 160L273 144L275 144ZM278 163L316 163L316 165L278 165L278 163ZM275 160C275 161.657 276.343 163 278 163L278 165C275.239 165 273 162.761 273 160L275 160ZM319 168C319 166.343 317.657 165 316 165L316 163C318.761 163 321 165.239 321 168L319 168Z" fill="#A3A3A4"/>
<path d="M228 192L233.774 182L222.226 182L228 192ZM270 164L270 163L270 164ZM232 164L232 165L232 164ZM227 168L227 183L229 183L229 168L227 168ZM273 144L273 160L275 160L275 144L273 144ZM270 163L232 163L232 165L270 165L270 163ZM273 160C273 161.657 271.657 163 270 163L270 165C272.761 165 275 162.761 275 160L273 160ZM229 168C229 166.343 230.343 165 232 165L232 163C229.239 163 227 165.239 227 168L229 168Z" fill="#A3A3A4"/>
<path d="M136 192L141.773 182L130.226 182L136 192ZM274 160L275 160L274 160ZM270 164L270 163L270 164ZM140 164L140 165L140 164ZM135 168L135 183L137 183L137 168L135 168ZM273 144L273 160L275 160L275 144L273 144ZM270 163L140 163L140 165L270 165L270 163ZM273 160C273 161.657 271.657 163 270 163L270 165C272.761 165 275 162.761 275 160L273 160ZM137 168C137 166.343 138.343 165 140 165L140 163C137.239 163 135 165.239 135 168L137 168Z" fill="#A3A3A4"/>
<path d="M44 192L49.7735 182L38.2265 182L44 192ZM228 64L229 64L228 64ZM224 68L224 67L224 68ZM48 68L48 69L48 68ZM43 72L43 183L45 183L45 72L43 72ZM227 48L227 64L229 64L229 48L227 48ZM224 67L48 67L48 69L224 69L224 67ZM227 64C227 65.6569 225.657 67 224 67L224 69C226.761 69 229 66.7614 229 64L227 64ZM45 72C45 70.3431 46.3432 69 48 69L48 67C45.2386 67 43 69.2386 43 72L45 72Z" fill="#A3A3A4"/>
<path d="M274 96L268.226 86L279.774 86L274 96ZM232 68L232 67L232 68ZM270 68L270 69L270 68ZM275 72L275 87L273 87L273 72L275 72ZM229 48L229 64L227 64L227 48L229 48ZM232 67L270 67L270 69L232 69L232 67ZM229 64C229 65.6569 230.343 67 232 67L232 69C229.239 69 227 66.7614 227 64L229 64ZM273 72C273 70.3431 271.657 69 270 69L270 67C272.761 67 275 69.2386 275 72L273 72Z" fill="#A3A3A4"/>
<path d="M412 192L406.227 182L417.774 182L412 192ZM274 160L273 160L274 160ZM278 164L278 163L278 164ZM408 164L408 165L408 164ZM413 168L413 183L411 183L411 168L413 168ZM275 144L275 160L273 160L273 144L275 144ZM278 163L408 163L408 165L278 165L278 163ZM275 160C275 161.657 276.343 163 278 163L278 165C275.239 165 273 162.761 273 160L275 160ZM411 168C411 166.343 409.657 165 408 165L408 163C410.761 163 413 165.239 413 168L411 168Z" fill="#A3A3A4"/>
<rect x="116" width="224" height="48" rx="6" fill="#7F52FF"/>
<path d="M144.992 30.192C143.968 30.192 143.037 29.9413 142.2 29.44C141.368 28.9333 140.714 28.24 140.24 27.36C139.765 26.4747 139.528 25.488 139.528 24.4C139.528 23.312 139.765 22.328 140.24 21.448C140.714 20.5627 141.368 19.8693 142.2 19.368C143.037 18.8613 143.968 18.608 144.992 18.608C145.834 18.608 146.621 18.7893 147.352 19.152C148.088 19.5093 148.693 19.984 149.168 20.576C149.642 21.168 149.93 21.7973 150.032 22.464H148.704C148.597 22.0107 148.365 21.5813 148.008 21.176C147.65 20.7707 147.205 20.4453 146.672 20.2C146.144 19.9493 145.584 19.824 144.992 19.824C144.213 19.824 143.512 20.0213 142.888 20.416C142.269 20.8053 141.784 21.3493 141.432 22.048C141.08 22.7413 140.904 23.5253 140.904 24.4C140.904 25.2747 141.08 26.0613 141.432 26.76C141.784 27.4533 142.269 27.9973 142.888 28.392C143.512 28.7813 144.213 28.976 144.992 28.976C145.584 28.976 146.144 28.8533 146.672 28.608C147.205 28.3573 147.65 28.0293 148.008 27.624C148.365 27.2187 148.597 26.7893 148.704 26.336H150.032C149.93 27.0027 149.642 27.632 149.168 28.224C148.693 28.816 148.088 29.2933 147.352 29.656C146.621 30.0133 145.834 30.192 144.992 30.192ZM155.801 30.192C155.022 30.192 154.313 30.008 153.673 29.64C153.038 29.2667 152.537 28.7547 152.169 28.104C151.806 27.448 151.625 26.7147 151.625 25.904C151.625 25.0933 151.806 24.3627 152.169 23.712C152.537 23.056 153.041 22.544 153.681 22.176C154.321 21.8027 155.03 21.616 155.809 21.616C156.588 21.616 157.294 21.8027 157.929 22.176C158.564 22.544 159.062 23.0533 159.425 23.704C159.793 24.3547 159.977 25.088 159.977 25.904C159.977 26.72 159.793 27.4533 159.425 28.104C159.062 28.7547 158.564 29.2667 157.929 29.64C157.294 30.008 156.585 30.192 155.801 30.192ZM152.969 25.904C152.969 26.5173 153.092 27.0613 153.337 27.536C153.588 28.0053 153.929 28.3707 154.361 28.632C154.798 28.8933 155.284 29.024 155.817 29.024C156.35 29.024 156.83 28.8933 157.257 28.632C157.684 28.3707 158.02 28.0053 158.265 27.536C158.51 27.0613 158.633 26.5173 158.633 25.904C158.633 25.2907 158.51 24.7467 158.265 24.272C158.02 23.7973 157.681 23.4293 157.249 23.168C156.822 22.9067 156.342 22.776 155.809 22.776C155.276 22.776 154.793 22.9067 154.361 23.168C153.929 23.4293 153.588 23.7973 153.337 24.272C153.092 24.7467 152.969 25.2907 152.969 25.904ZM162.111 21.808H163.343V23.192C163.588 22.6853 163.927 22.296 164.359 22.024C164.796 21.752 165.308 21.616 165.895 21.616C166.508 21.616 167.041 21.7627 167.495 22.056C167.948 22.3493 168.287 22.7627 168.511 23.296C168.772 22.7627 169.137 22.3493 169.607 22.056C170.076 21.7627 170.617 21.616 171.231 21.616C171.812 21.616 172.327 21.7493 172.775 22.016C173.228 22.2773 173.58 22.6507 173.831 23.136C174.081 23.6213 174.207 24.1867 174.207 24.832V30H172.927V24.888C172.927 24.2107 172.756 23.6773 172.415 23.288C172.079 22.8987 171.604 22.704 170.991 22.704C170.553 22.704 170.169 22.8053 169.839 23.008C169.508 23.2053 169.252 23.488 169.071 23.856C168.889 24.2187 168.799 24.648 168.799 25.144V30H167.519V24.888C167.519 24.2107 167.348 23.6773 167.007 23.288C166.671 22.8987 166.196 22.704 165.583 22.704C165.14 22.704 164.753 22.8027 164.423 23C164.092 23.1973 163.836 23.48 163.655 23.848C163.479 24.216 163.391 24.648 163.391 25.144V30H162.111V21.808ZM176.791 21.808H178.023V23.192C178.268 22.6853 178.607 22.296 179.039 22.024C179.476 21.752 179.988 21.616 180.575 21.616C181.188 21.616 181.722 21.7627 182.175 22.056C182.628 22.3493 182.967 22.7627 183.191 23.296C183.452 22.7627 183.818 22.3493 184.287 22.056C184.756 21.7627 185.298 21.616 185.911 21.616C186.492 21.616 187.007 21.7493 187.455 22.016C187.908 22.2773 188.26 22.6507 188.511 23.136C188.762 23.6213 188.887 24.1867 188.887 24.832V30H187.607V24.888C187.607 24.2107 187.436 23.6773 187.095 23.288C186.759 22.8987 186.284 22.704 185.671 22.704C185.234 22.704 184.85 22.8053 184.519 23.008C184.188 23.2053 183.932 23.488 183.751 23.856C183.57 24.2187 183.479 24.648 183.479 25.144V30H182.199V24.888C182.199 24.2107 182.028 23.6773 181.687 23.288C181.351 22.8987 180.876 22.704 180.263 22.704C179.82 22.704 179.434 22.8027 179.103 23C178.772 23.1973 178.516 23.48 178.335 23.848C178.159 24.216 178.071 24.648 178.071 25.144V30H176.791V21.808ZM194.951 30.192C194.172 30.192 193.463 30.008 192.823 29.64C192.188 29.2667 191.687 28.7547 191.319 28.104C190.956 27.448 190.775 26.7147 190.775 25.904C190.775 25.0933 190.956 24.3627 191.319 23.712C191.687 23.056 192.191 22.544 192.831 22.176C193.471 21.8027 194.18 21.616 194.959 21.616C195.738 21.616 196.444 21.8027 197.079 22.176C197.714 22.544 198.212 23.0533 198.575 23.704C198.943 24.3547 199.127 25.088 199.127 25.904C199.127 26.72 198.943 27.4533 198.575 28.104C198.212 28.7547 197.714 29.2667 197.079 29.64C196.444 30.008 195.735 30.192 194.951 30.192ZM192.119 25.904C192.119 26.5173 192.242 27.0613 192.487 27.536C192.738 28.0053 193.079 28.3707 193.511 28.632C193.948 28.8933 194.434 29.024 194.967 29.024C195.5 29.024 195.98 28.8933 196.407 28.632C196.834 28.3707 197.17 28.0053 197.415 27.536C197.66 27.0613 197.783 26.5173 197.783 25.904C197.783 25.2907 197.66 24.7467 197.415 24.272C197.17 23.7973 196.831 23.4293 196.399 23.168C195.972 22.9067 195.492 22.776 194.959 22.776C194.426 22.776 193.943 22.9067 193.511 23.168C193.079 23.4293 192.738 23.7973 192.487 24.272C192.242 24.7467 192.119 25.2907 192.119 25.904ZM201.261 21.808H202.493V23.136C202.77 22.6453 203.138 22.2693 203.597 22.008C204.061 21.7467 204.597 21.616 205.205 21.616C205.791 21.616 206.311 21.7413 206.765 21.992C207.218 22.2427 207.573 22.6133 207.829 23.104C208.09 23.5893 208.221 24.1733 208.221 24.856V30H206.941V24.984C206.941 24.2747 206.757 23.7227 206.389 23.328C206.021 22.9333 205.514 22.736 204.869 22.736C204.41 22.736 204.005 22.8373 203.653 23.04C203.301 23.2427 203.026 23.528 202.829 23.896C202.637 24.2587 202.541 24.6747 202.541 25.144V30H201.261V21.808ZM215.098 18.8H216.754L220.77 27.776L220.978 28.344L221.178 27.776L225.122 18.8H226.81V30H225.482V20.944L221.522 30H220.41L216.418 20.992V30H215.098V18.8ZM236.678 30H235.446V28.672C235.168 29.1627 234.798 29.5387 234.334 29.8C233.875 30.0613 233.342 30.192 232.734 30.192C232.147 30.192 231.627 30.0667 231.174 29.816C230.72 29.5653 230.363 29.1973 230.102 28.712C229.846 28.2213 229.718 27.6347 229.718 26.952V21.808H230.998V26.824C230.998 27.5333 231.182 28.0853 231.55 28.48C231.918 28.8747 232.424 29.072 233.07 29.072C233.528 29.072 233.934 28.9707 234.286 28.768C234.638 28.5653 234.91 28.2827 235.102 27.92C235.299 27.552 235.398 27.1333 235.398 26.664V21.808H236.678V30ZM239.497 18.8H240.777V30H239.497V18.8ZM246.232 30C245.842 30 245.488 29.9173 245.168 29.752C244.853 29.5813 244.605 29.3493 244.424 29.056C244.242 28.7573 244.152 28.4267 244.152 28.064L244.144 22.944H242.704L242.712 21.808H243.6C243.802 21.808 243.965 21.744 244.088 21.616C244.216 21.488 244.28 21.3253 244.28 21.128V19.808H245.432V21.808H247.408L247.4 22.944H245.424L245.432 27.984C245.432 28.2347 245.514 28.4453 245.68 28.616C245.85 28.7813 246.061 28.864 246.312 28.864H247.4V30H246.232ZM249.655 21.808H250.935V30H249.655V21.808ZM251.047 18.8V20.32H249.543V18.8H251.047ZM255.005 21.808V23.256C255.314 22.7387 255.73 22.336 256.253 22.048C256.776 21.76 257.376 21.616 258.053 21.616C258.816 21.616 259.493 21.7973 260.085 22.16C260.682 22.5173 261.146 23.0213 261.477 23.672C261.813 24.3227 261.981 25.0667 261.981 25.904C261.981 26.7413 261.813 27.4853 261.477 28.136C261.146 28.7867 260.682 29.2933 260.085 29.656C259.493 30.0133 258.816 30.192 258.053 30.192C257.386 30.192 256.794 30.0533 256.277 29.776C255.76 29.4987 255.346 29.1093 255.037 28.608V32.576H253.757V21.808H255.005ZM255.037 25.904C255.037 26.5173 255.154 27.0613 255.389 27.536C255.629 28.0053 255.962 28.3733 256.389 28.64C256.816 28.9013 257.304 29.032 257.853 29.032C258.397 29.032 258.88 28.9013 259.301 28.64C259.722 28.3733 260.05 28.0053 260.285 27.536C260.52 27.0613 260.637 26.5173 260.637 25.904C260.637 25.2907 260.52 24.7493 260.285 24.28C260.05 23.8053 259.722 23.4373 259.301 23.176C258.88 22.9093 258.397 22.776 257.853 22.776C257.304 22.776 256.816 22.9093 256.389 23.176C255.962 23.4373 255.629 23.8053 255.389 24.28C255.154 24.7493 255.037 25.2907 255.037 25.904ZM264.109 18.8H265.389V30H264.109V18.8ZM271.099 21.616C271.718 21.616 272.262 21.7307 272.731 21.96C273.2 22.184 273.563 22.5147 273.819 22.952C274.08 23.384 274.211 23.8987 274.211 24.496V30H272.963V28.664C272.734 29.16 272.398 29.5387 271.955 29.8C271.512 30.0613 270.987 30.192 270.379 30.192C269.856 30.192 269.384 30.0907 268.963 29.888C268.542 29.6853 268.211 29.4053 267.971 29.048C267.731 28.6907 267.611 28.2853 267.611 27.832C267.611 27.4053 267.72 27.0133 267.939 26.656C268.163 26.2933 268.47 25.9973 268.859 25.768C269.254 25.5387 269.696 25.3973 270.187 25.344L272.371 25.104C272.552 25.0827 272.694 25.008 272.795 24.88C272.896 24.752 272.947 24.5653 272.947 24.32C272.947 23.9947 272.87 23.7093 272.715 23.464C272.56 23.2187 272.342 23.0293 272.059 22.896C271.782 22.7573 271.459 22.688 271.091 22.688C270.723 22.688 270.392 22.752 270.099 22.88C269.806 23.0027 269.568 23.1707 269.387 23.384C269.211 23.592 269.104 23.8187 269.067 24.064H267.787C267.851 23.6 268.032 23.184 268.331 22.816C268.635 22.4427 269.027 22.1493 269.507 21.936C269.987 21.7227 270.518 21.616 271.099 21.616ZM268.939 27.76C268.939 28.0373 269.011 28.2827 269.155 28.496C269.304 28.7093 269.51 28.8773 269.771 29C270.032 29.1173 270.331 29.176 270.667 29.176C271.126 29.176 271.526 29.0827 271.867 28.896C272.214 28.7093 272.48 28.448 272.667 28.112C272.854 27.7707 272.947 27.3787 272.947 26.936V26L270.363 26.288C269.936 26.336 269.592 26.496 269.331 26.768C269.07 27.04 268.939 27.3707 268.939 27.76ZM279.43 30C279.04 30 278.686 29.9173 278.366 29.752C278.051 29.5813 277.803 29.3493 277.622 29.056C277.44 28.7573 277.35 28.4267 277.35 28.064L277.342 22.944H275.902L275.91 21.808H276.798C277 21.808 277.163 21.744 277.286 21.616C277.414 21.488 277.478 21.3253 277.478 21.128V19.808H278.63V21.808H280.606L280.598 22.944H278.622L278.63 27.984C278.63 28.2347 278.712 28.4453 278.878 28.616C279.048 28.7813 279.259 28.864 279.51 28.864H280.598V30H279.43ZM283.493 22.944H282.053V21.808H283.493V20.736C283.493 20.3573 283.581 20.0213 283.757 19.728C283.933 19.4347 284.178 19.208 284.493 19.048C284.808 18.8827 285.168 18.8 285.573 18.8H286.885V19.936H285.653C285.392 19.936 285.178 20.0187 285.013 20.184C284.853 20.344 284.773 20.5547 284.773 20.816V21.808H286.805V22.944H284.773V30H283.493V22.944ZM292.076 30.192C291.297 30.192 290.588 30.008 289.948 29.64C289.313 29.2667 288.812 28.7547 288.444 28.104C288.081 27.448 287.9 26.7147 287.9 25.904C287.9 25.0933 288.081 24.3627 288.444 23.712C288.812 23.056 289.316 22.544 289.956 22.176C290.596 21.8027 291.305 21.616 292.084 21.616C292.862 21.616 293.569 21.8027 294.204 22.176C294.838 22.544 295.337 23.0533 295.7 23.704C296.068 24.3547 296.252 25.088 296.252 25.904C296.252 26.72 296.068 27.4533 295.7 28.104C295.337 28.7547 294.838 29.2667 294.204 29.64C293.569 30.008 292.86 30.192 292.076 30.192ZM289.244 25.904C289.244 26.5173 289.366 27.0613 289.612 27.536C289.862 28.0053 290.204 28.3707 290.636 28.632C291.073 28.8933 291.558 29.024 292.092 29.024C292.625 29.024 293.105 28.8933 293.532 28.632C293.958 28.3707 294.294 28.0053 294.54 27.536C294.785 27.0613 294.908 26.5173 294.908 25.904C294.908 25.2907 294.785 24.7467 294.54 24.272C294.294 23.7973 293.956 23.4293 293.524 23.168C293.097 22.9067 292.617 22.776 292.084 22.776C291.55 22.776 291.068 22.9067 290.636 23.168C290.204 23.4293 289.862 23.7973 289.612 24.272C289.366 24.7467 289.244 25.2907 289.244 25.904ZM298.385 21.808H299.665V23.168C299.927 22.704 300.265 22.3493 300.681 22.104C301.097 21.8533 301.575 21.728 302.113 21.728H302.401V23.064H302.065C301.58 23.064 301.156 23.1573 300.793 23.344C300.431 23.5307 300.151 23.7973 299.953 24.144C299.761 24.4853 299.665 24.888 299.665 25.352V30H298.385V21.808ZM304.128 21.808H305.36V23.192C305.605 22.6853 305.944 22.296 306.376 22.024C306.813 21.752 307.325 21.616 307.912 21.616C308.525 21.616 309.059 21.7627 309.512 22.056C309.965 22.3493 310.304 22.7627 310.528 23.296C310.789 22.7627 311.155 22.3493 311.624 22.056C312.093 21.7627 312.635 21.616 313.248 21.616C313.829 21.616 314.344 21.7493 314.792 22.016C315.245 22.2773 315.597 22.6507 315.848 23.136C316.099 23.6213 316.224 24.1867 316.224 24.832V30H314.944V24.888C314.944 24.2107 314.773 23.6773 314.432 23.288C314.096 22.8987 313.621 22.704 313.008 22.704C312.571 22.704 312.187 22.8053 311.856 23.008C311.525 23.2053 311.269 23.488 311.088 23.856C310.907 24.2187 310.816 24.648 310.816 25.144V30H309.536V24.888C309.536 24.2107 309.365 23.6773 309.024 23.288C308.688 22.8987 308.213 22.704 307.6 22.704C307.157 22.704 306.771 22.8027 306.44 23C306.109 23.1973 305.853 23.48 305.672 23.848C305.496 24.216 305.408 24.648 305.408 25.144V30H304.128V21.808Z" fill="white"/>
<rect x="176" y="96" width="196" height="48" rx="6" fill="#7F52FF"/>
<path d="M203.671 126.192C202.647 126.192 201.717 125.941 200.879 125.44C200.047 124.933 199.394 124.24 198.919 123.36C198.445 122.475 198.207 121.488 198.207 120.4C198.207 119.312 198.445 118.328 198.919 117.448C199.394 116.563 200.047 115.869 200.879 115.368C201.717 114.861 202.647 114.608 203.671 114.608C204.514 114.608 205.301 114.789 206.031 115.152C206.767 115.509 207.373 115.984 207.847 116.576C208.322 117.168 208.61 117.797 208.711 118.464H207.383C207.277 118.011 207.045 117.581 206.687 117.176C206.33 116.771 205.885 116.445 205.351 116.2C204.823 115.949 204.263 115.824 203.671 115.824C202.893 115.824 202.191 116.021 201.567 116.416C200.949 116.805 200.463 117.349 200.111 118.048C199.759 118.741 199.583 119.525 199.583 120.4C199.583 121.275 199.759 122.061 200.111 122.76C200.463 123.453 200.949 123.997 201.567 124.392C202.191 124.781 202.893 124.976 203.671 124.976C204.263 124.976 204.823 124.853 205.351 124.608C205.885 124.357 206.33 124.029 206.687 123.624C207.045 123.219 207.277 122.789 207.383 122.336H208.711C208.61 123.003 208.322 123.632 207.847 124.224C207.373 124.816 206.767 125.293 206.031 125.656C205.301 126.013 204.514 126.192 203.671 126.192ZM211.001 114.8H212.281V126H211.001V114.8ZM215.103 117.808H216.383V126H215.103V117.808ZM216.495 114.8V116.32H214.991V114.8H216.495ZM222.533 126.192C221.765 126.192 221.074 126.008 220.461 125.64C219.848 125.272 219.368 124.763 219.021 124.112C218.68 123.456 218.509 122.715 218.509 121.888C218.509 121.083 218.682 120.355 219.029 119.704C219.381 119.053 219.864 118.544 220.477 118.176C221.09 117.803 221.776 117.616 222.533 117.616C223.306 117.616 223.984 117.8 224.565 118.168C225.152 118.536 225.602 119.045 225.917 119.696C226.237 120.347 226.397 121.083 226.397 121.904V122.216H219.813C219.866 122.776 220.018 123.272 220.269 123.704C220.52 124.136 220.848 124.472 221.253 124.712C221.658 124.952 222.112 125.072 222.613 125.072C223.152 125.072 223.626 124.973 224.037 124.776C224.448 124.579 224.746 124.309 224.933 123.968H226.213C226.117 124.309 225.914 124.651 225.605 124.992C225.301 125.333 224.885 125.619 224.357 125.848C223.834 126.077 223.226 126.192 222.533 126.192ZM225.069 121.16C224.962 120.413 224.69 119.824 224.253 119.392C223.821 118.96 223.253 118.744 222.549 118.744C222.074 118.744 221.648 118.843 221.269 119.04C220.89 119.232 220.578 119.512 220.333 119.88C220.088 120.243 219.925 120.669 219.845 121.16H225.069ZM228.526 117.808H229.758V119.136C230.035 118.645 230.403 118.269 230.862 118.008C231.326 117.747 231.862 117.616 232.47 117.616C233.056 117.616 233.576 117.741 234.03 117.992C234.483 118.243 234.838 118.613 235.094 119.104C235.355 119.589 235.486 120.173 235.486 120.856V126H234.206V120.984C234.206 120.275 234.022 119.723 233.654 119.328C233.286 118.933 232.779 118.736 232.134 118.736C231.675 118.736 231.27 118.837 230.918 119.04C230.566 119.243 230.291 119.528 230.094 119.896C229.902 120.259 229.806 120.675 229.806 121.144V126H228.526V117.808ZM240.697 126C240.308 126 239.953 125.917 239.633 125.752C239.319 125.581 239.071 125.349 238.889 125.056C238.708 124.757 238.617 124.427 238.617 124.064L238.609 118.944H237.169L237.177 117.808H238.065C238.268 117.808 238.431 117.744 238.553 117.616C238.681 117.488 238.745 117.325 238.745 117.128V115.808H239.897V117.808H241.873L241.865 118.944H239.889L239.897 123.984C239.897 124.235 239.98 124.445 240.145 124.616C240.316 124.781 240.527 124.864 240.777 124.864H241.865V126H240.697ZM248.418 114.8H250.074L254.09 123.776L254.298 124.344L254.498 123.776L258.442 114.8H260.13V126H258.802V116.944L254.842 126H253.73L249.738 116.992V126H248.418V114.8ZM269.998 126H268.766V124.672C268.489 125.163 268.118 125.539 267.654 125.8C267.195 126.061 266.662 126.192 266.054 126.192C265.467 126.192 264.947 126.067 264.494 125.816C264.041 125.565 263.683 125.197 263.422 124.712C263.166 124.221 263.038 123.635 263.038 122.952V117.808H264.318V122.824C264.318 123.533 264.502 124.085 264.87 124.48C265.238 124.875 265.745 125.072 266.39 125.072C266.849 125.072 267.254 124.971 267.606 124.768C267.958 124.565 268.23 124.283 268.422 123.92C268.619 123.552 268.718 123.133 268.718 122.664V117.808H269.998V126ZM272.818 114.8H274.098V126H272.818V114.8ZM279.552 126C279.162 126 278.808 125.917 278.488 125.752C278.173 125.581 277.925 125.349 277.744 125.056C277.562 124.757 277.472 124.427 277.472 124.064L277.464 118.944H276.024L276.032 117.808H276.92C277.122 117.808 277.285 117.744 277.408 117.616C277.536 117.488 277.6 117.325 277.6 117.128V115.808H278.752V117.808H280.728L280.72 118.944H278.744L278.752 123.984C278.752 124.235 278.834 124.445 279 124.616C279.17 124.781 279.381 124.864 279.632 124.864H280.72V126H279.552ZM282.975 117.808H284.255V126H282.975V117.808ZM284.367 114.8V116.32H282.863V114.8H284.367ZM288.325 117.808V119.256C288.635 118.739 289.051 118.336 289.573 118.048C290.096 117.76 290.696 117.616 291.373 117.616C292.136 117.616 292.813 117.797 293.405 118.16C294.003 118.517 294.467 119.021 294.797 119.672C295.133 120.323 295.301 121.067 295.301 121.904C295.301 122.741 295.133 123.485 294.797 124.136C294.467 124.787 294.003 125.293 293.405 125.656C292.813 126.013 292.136 126.192 291.373 126.192C290.707 126.192 290.115 126.053 289.597 125.776C289.08 125.499 288.667 125.109 288.357 124.608V128.576H287.077V117.808H288.325ZM288.357 121.904C288.357 122.517 288.475 123.061 288.709 123.536C288.949 124.005 289.283 124.373 289.709 124.64C290.136 124.901 290.624 125.032 291.173 125.032C291.717 125.032 292.2 124.901 292.621 124.64C293.043 124.373 293.371 124.005 293.605 123.536C293.84 123.061 293.957 122.517 293.957 121.904C293.957 121.291 293.84 120.749 293.605 120.28C293.371 119.805 293.043 119.437 292.621 119.176C292.2 118.909 291.717 118.776 291.173 118.776C290.624 118.776 290.136 118.909 289.709 119.176C289.283 119.437 288.949 119.805 288.709 120.28C288.475 120.749 288.357 121.291 288.357 121.904ZM297.429 114.8H298.709V126H297.429V114.8ZM304.419 117.616C305.038 117.616 305.582 117.731 306.051 117.96C306.521 118.184 306.883 118.515 307.139 118.952C307.401 119.384 307.531 119.899 307.531 120.496V126H306.283V124.664C306.054 125.16 305.718 125.539 305.275 125.8C304.833 126.061 304.307 126.192 303.699 126.192C303.177 126.192 302.705 126.091 302.283 125.888C301.862 125.685 301.531 125.405 301.291 125.048C301.051 124.691 300.931 124.285 300.931 123.832C300.931 123.405 301.041 123.013 301.259 122.656C301.483 122.293 301.79 121.997 302.179 121.768C302.574 121.539 303.017 121.397 303.507 121.344L305.691 121.104C305.873 121.083 306.014 121.008 306.115 120.88C306.217 120.752 306.267 120.565 306.267 120.32C306.267 119.995 306.19 119.709 306.035 119.464C305.881 119.219 305.662 119.029 305.379 118.896C305.102 118.757 304.779 118.688 304.411 118.688C304.043 118.688 303.713 118.752 303.419 118.88C303.126 119.003 302.889 119.171 302.707 119.384C302.531 119.592 302.425 119.819 302.387 120.064H301.107C301.171 119.6 301.353 119.184 301.651 118.816C301.955 118.443 302.347 118.149 302.827 117.936C303.307 117.723 303.838 117.616 304.419 117.616ZM302.259 123.76C302.259 124.037 302.331 124.283 302.475 124.496C302.625 124.709 302.83 124.877 303.091 125C303.353 125.117 303.651 125.176 303.987 125.176C304.446 125.176 304.846 125.083 305.187 124.896C305.534 124.709 305.801 124.448 305.987 124.112C306.174 123.771 306.267 123.379 306.267 122.936V122L303.683 122.288C303.257 122.336 302.913 122.496 302.651 122.768C302.39 123.04 302.259 123.371 302.259 123.76ZM312.75 126C312.361 126 312.006 125.917 311.686 125.752C311.371 125.581 311.123 125.349 310.942 125.056C310.761 124.757 310.67 124.427 310.67 124.064L310.662 118.944H309.222L309.23 117.808H310.118C310.321 117.808 310.483 117.744 310.606 117.616C310.734 117.488 310.798 117.325 310.798 117.128V115.808H311.95V117.808H313.926L313.918 118.944H311.942L311.95 123.984C311.95 124.235 312.033 124.445 312.198 124.616C312.369 124.781 312.579 124.864 312.83 124.864H313.918V126H312.75ZM316.813 118.944H315.373V117.808H316.813V116.736C316.813 116.357 316.901 116.021 317.077 115.728C317.253 115.435 317.499 115.208 317.813 115.048C318.128 114.883 318.488 114.8 318.893 114.8H320.205V115.936H318.973C318.712 115.936 318.499 116.019 318.333 116.184C318.173 116.344 318.093 116.555 318.093 116.816V117.808H320.125V118.944H318.093V126H316.813V118.944ZM325.396 126.192C324.617 126.192 323.908 126.008 323.268 125.64C322.633 125.267 322.132 124.755 321.764 124.104C321.401 123.448 321.22 122.715 321.22 121.904C321.22 121.093 321.401 120.363 321.764 119.712C322.132 119.056 322.636 118.544 323.276 118.176C323.916 117.803 324.625 117.616 325.404 117.616C326.183 117.616 326.889 117.803 327.524 118.176C328.159 118.544 328.657 119.053 329.02 119.704C329.388 120.355 329.572 121.088 329.572 121.904C329.572 122.72 329.388 123.453 329.02 124.104C328.657 124.755 328.159 125.267 327.524 125.64C326.889 126.008 326.18 126.192 325.396 126.192ZM322.564 121.904C322.564 122.517 322.687 123.061 322.932 123.536C323.183 124.005 323.524 124.371 323.956 124.632C324.393 124.893 324.879 125.024 325.412 125.024C325.945 125.024 326.425 124.893 326.852 124.632C327.279 124.371 327.615 124.005 327.86 123.536C328.105 123.061 328.228 122.517 328.228 121.904C328.228 121.291 328.105 120.747 327.86 120.272C327.615 119.797 327.276 119.429 326.844 119.168C326.417 118.907 325.937 118.776 325.404 118.776C324.871 118.776 324.388 118.907 323.956 119.168C323.524 119.429 323.183 119.797 322.932 120.272C322.687 120.747 322.564 121.291 322.564 121.904ZM331.706 117.808H332.986V119.168C333.247 118.704 333.586 118.349 334.002 118.104C334.418 117.853 334.895 117.728 335.434 117.728H335.722V119.064H335.386C334.9 119.064 334.476 119.157 334.114 119.344C333.751 119.531 333.471 119.797 333.274 120.144C333.082 120.485 332.986 120.888 332.986 121.352V126H331.706V117.808ZM337.448 117.808H338.68V119.192C338.926 118.685 339.264 118.296 339.696 118.024C340.134 117.752 340.646 117.616 341.232 117.616C341.846 117.616 342.379 117.763 342.832 118.056C343.286 118.349 343.624 118.763 343.848 119.296C344.11 118.763 344.475 118.349 344.944 118.056C345.414 117.763 345.955 117.616 346.568 117.616C347.15 117.616 347.664 117.749 348.112 118.016C348.566 118.277 348.918 118.651 349.168 119.136C349.419 119.621 349.544 120.187 349.544 120.832V126H348.264V120.888C348.264 120.211 348.094 119.677 347.752 119.288C347.416 118.899 346.942 118.704 346.328 118.704C345.891 118.704 345.507 118.805 345.176 119.008C344.846 119.205 344.59 119.488 344.408 119.856C344.227 120.219 344.136 120.648 344.136 121.144V126H342.856V120.888C342.856 120.211 342.686 119.677 342.344 119.288C342.008 118.899 341.534 118.704 340.92 118.704C340.478 118.704 340.091 118.803 339.76 119C339.43 119.197 339.174 119.48 338.992 119.848C338.816 120.216 338.728 120.648 338.728 121.144V126H337.448V117.808Z" fill="white"/>
<rect y="192" width="88" height="48" rx="6" fill="#E8E8E8"/>
<path d="M24.8178 222.192C24.0498 222.192 23.3698 222.051 22.7778 221.768C22.1911 221.485 21.7324 221.091 21.4018 220.584C21.0764 220.077 20.9138 219.496 20.9138 218.84H22.2738C22.2738 219.261 22.3804 219.635 22.5938 219.96C22.8071 220.285 23.1084 220.539 23.4978 220.72C23.8871 220.901 24.3324 220.992 24.8338 220.992C25.3298 220.992 25.7644 220.909 26.1378 220.744C26.5164 220.573 26.8071 220.336 27.0098 220.032C27.2178 219.723 27.3218 219.368 27.3218 218.968C27.3218 218.461 27.1698 218.027 26.8658 217.664C26.5671 217.301 26.1671 217.077 25.6658 216.992L23.8578 216.68C23.3138 216.584 22.8418 216.395 22.4418 216.112C22.0418 215.829 21.7351 215.477 21.5218 215.056C21.3084 214.635 21.2018 214.176 21.2018 213.68C21.2018 213.099 21.3538 212.576 21.6578 212.112C21.9671 211.643 22.3938 211.275 22.9378 211.008C23.4871 210.741 24.1031 210.608 24.7858 210.608C25.4898 210.608 26.1164 210.741 26.6658 211.008C27.2151 211.269 27.6418 211.635 27.9458 212.104C28.2498 212.573 28.4018 213.109 28.4018 213.712H27.0418C27.0418 213.344 26.9484 213.016 26.7618 212.728C26.5751 212.435 26.3111 212.208 25.9698 212.048C25.6338 211.888 25.2444 211.808 24.8018 211.808C24.3591 211.808 23.9671 211.885 23.6258 212.04C23.2844 212.195 23.0178 212.413 22.8258 212.696C22.6391 212.979 22.5458 213.307 22.5458 213.68C22.5458 214.123 22.6871 214.504 22.9698 214.824C23.2578 215.144 23.6338 215.344 24.0978 215.424L25.9378 215.744C26.4711 215.84 26.9458 216.045 27.3618 216.36C27.7778 216.675 28.1004 217.061 28.3298 217.52C28.5591 217.973 28.6738 218.451 28.6738 218.952C28.6738 219.555 28.5111 220.104 28.1858 220.6C27.8604 221.091 27.4044 221.48 26.8178 221.768C26.2311 222.051 25.5644 222.192 24.8178 222.192ZM34.3951 222.192C33.6271 222.192 32.9365 222.008 32.3231 221.64C31.7098 221.272 31.2298 220.763 30.8831 220.112C30.5418 219.456 30.3711 218.715 30.3711 217.888C30.3711 217.083 30.5445 216.355 30.8911 215.704C31.2431 215.053 31.7258 214.544 32.3391 214.176C32.9525 213.803 33.6378 213.616 34.3951 213.616C35.1685 213.616 35.8458 213.8 36.4271 214.168C37.0138 214.536 37.4645 215.045 37.7791 215.696C38.0991 216.347 38.2591 217.083 38.2591 217.904V218.216H31.6751C31.7285 218.776 31.8805 219.272 32.1311 219.704C32.3818 220.136 32.7098 220.472 33.1151 220.712C33.5205 220.952 33.9738 221.072 34.4751 221.072C35.0138 221.072 35.4885 220.973 35.8991 220.776C36.3098 220.579 36.6085 220.309 36.7951 219.968H38.0751C37.9791 220.309 37.7765 220.651 37.4671 220.992C37.1631 221.333 36.7471 221.619 36.2191 221.848C35.6965 222.077 35.0885 222.192 34.3951 222.192ZM36.9311 217.16C36.8245 216.413 36.5525 215.824 36.1151 215.392C35.6831 214.96 35.1151 214.744 34.4111 214.744C33.9365 214.744 33.5098 214.843 33.1311 215.04C32.7525 215.232 32.4405 215.512 32.1951 215.88C31.9498 216.243 31.7871 216.669 31.7071 217.16H36.9311ZM40.388 213.808H41.668V215.168C41.9293 214.704 42.268 214.349 42.684 214.104C43.1 213.853 43.5773 213.728 44.116 213.728H44.404V215.064H44.068C43.5827 215.064 43.1587 215.157 42.796 215.344C42.4333 215.531 42.1533 215.797 41.956 216.144C41.764 216.485 41.668 216.888 41.668 217.352V222H40.388V213.808ZM45.0668 213.808H46.4588L48.9548 220.288L51.3708 213.808H52.7308L49.5068 222H48.3068L45.0668 213.808ZM57.6546 222.192C56.8866 222.192 56.196 222.008 55.5826 221.64C54.9693 221.272 54.4893 220.763 54.1426 220.112C53.8013 219.456 53.6306 218.715 53.6306 217.888C53.6306 217.083 53.804 216.355 54.1506 215.704C54.5026 215.053 54.9853 214.544 55.5986 214.176C56.212 213.803 56.8973 213.616 57.6546 213.616C58.428 213.616 59.1053 213.8 59.6866 214.168C60.2733 214.536 60.724 215.045 61.0386 215.696C61.3586 216.347 61.5186 217.083 61.5186 217.904V218.216H54.9346C54.988 218.776 55.14 219.272 55.3906 219.704C55.6413 220.136 55.9693 220.472 56.3746 220.712C56.78 220.952 57.2333 221.072 57.7346 221.072C58.2733 221.072 58.748 220.973 59.1586 220.776C59.5693 220.579 59.868 220.309 60.0546 219.968H61.3346C61.2386 220.309 61.036 220.651 60.7266 220.992C60.4226 221.333 60.0066 221.619 59.4786 221.848C58.956 222.077 58.348 222.192 57.6546 222.192ZM60.1906 217.16C60.084 216.413 59.812 215.824 59.3746 215.392C58.9426 214.96 58.3746 214.744 57.6706 214.744C57.196 214.744 56.7693 214.843 56.3906 215.04C56.012 215.232 55.7 215.512 55.4546 215.88C55.2093 216.243 55.0466 216.669 54.9666 217.16H60.1906ZM63.6475 213.808H64.9275V215.168C65.1888 214.704 65.5275 214.349 65.9435 214.104C66.3595 213.853 66.8368 213.728 67.3755 213.728H67.6635V215.064H67.3275C66.8422 215.064 66.4182 215.157 66.0555 215.344C65.6928 215.531 65.4128 215.797 65.2155 216.144C65.0235 216.485 64.9275 216.888 64.9275 217.352V222H63.6475V213.808Z" fill="#19191C"/>
<rect x="92" y="192" width="88" height="48" rx="6" fill="#E8E8E8"/>
<path d="M110.408 210.8H111.84L116.144 222H114.736L113.656 219.024H108.704L107.696 222H106.256L110.408 210.8ZM113.224 217.872L111.312 212.664L111.12 211.984L110.928 212.664L109.112 217.872H113.224ZM117.914 213.808H119.146V215.136C119.424 214.645 119.792 214.269 120.25 214.008C120.714 213.747 121.25 213.616 121.859 213.616C122.445 213.616 122.965 213.741 123.418 213.992C123.872 214.243 124.227 214.613 124.483 215.104C124.744 215.589 124.875 216.173 124.875 216.856V222H123.595V216.984C123.595 216.275 123.411 215.723 123.043 215.328C122.674 214.933 122.168 214.736 121.523 214.736C121.064 214.736 120.658 214.837 120.306 215.04C119.954 215.243 119.68 215.528 119.482 215.896C119.29 216.259 119.194 216.675 119.194 217.144V222H117.914V213.808ZM133.678 220.64C133.369 221.136 132.955 221.52 132.438 221.792C131.926 222.059 131.342 222.192 130.686 222.192C129.923 222.192 129.243 222.013 128.646 221.656C128.054 221.293 127.59 220.787 127.254 220.136C126.923 219.485 126.758 218.741 126.758 217.904C126.758 217.067 126.923 216.323 127.254 215.672C127.59 215.021 128.054 214.517 128.646 214.16C129.243 213.797 129.923 213.616 130.686 213.616C131.342 213.616 131.926 213.752 132.438 214.024C132.955 214.291 133.369 214.672 133.678 215.168V210.8H134.958V222H133.678V220.64ZM128.102 217.904C128.102 218.517 128.219 219.061 128.454 219.536C128.689 220.005 129.017 220.373 129.438 220.64C129.859 220.901 130.342 221.032 130.886 221.032C131.387 221.032 131.838 220.923 132.238 220.704C132.643 220.48 132.969 220.168 133.214 219.768C133.465 219.363 133.619 218.893 133.678 218.36V217.448C133.619 216.915 133.465 216.448 133.214 216.048C132.969 215.643 132.643 215.331 132.238 215.112C131.838 214.888 131.387 214.776 130.886 214.776C130.342 214.776 129.859 214.909 129.438 215.176C129.017 215.437 128.689 215.805 128.454 216.28C128.219 216.749 128.102 217.291 128.102 217.904ZM137.666 213.808H138.946V215.168C139.207 214.704 139.546 214.349 139.962 214.104C140.378 213.853 140.855 213.728 141.394 213.728H141.682V215.064H141.346C140.86 215.064 140.436 215.157 140.074 215.344C139.711 215.531 139.431 215.797 139.234 216.144C139.042 216.485 138.946 216.888 138.946 217.352V222H137.666V213.808ZM146.888 222.192C146.11 222.192 145.4 222.008 144.76 221.64C144.126 221.267 143.624 220.755 143.256 220.104C142.894 219.448 142.712 218.715 142.712 217.904C142.712 217.093 142.894 216.363 143.256 215.712C143.624 215.056 144.128 214.544 144.768 214.176C145.408 213.803 146.118 213.616 146.896 213.616C147.675 213.616 148.382 213.803 149.016 214.176C149.651 214.544 150.15 215.053 150.512 215.704C150.88 216.355 151.064 217.088 151.064 217.904C151.064 218.72 150.88 219.453 150.512 220.104C150.15 220.755 149.651 221.267 149.016 221.64C148.382 222.008 147.672 222.192 146.888 222.192ZM144.056 217.904C144.056 218.517 144.179 219.061 144.424 219.536C144.675 220.005 145.016 220.371 145.448 220.632C145.886 220.893 146.371 221.024 146.904 221.024C147.438 221.024 147.918 220.893 148.344 220.632C148.771 220.371 149.107 220.005 149.352 219.536C149.598 219.061 149.72 218.517 149.72 217.904C149.72 217.291 149.598 216.747 149.352 216.272C149.107 215.797 148.768 215.429 148.336 215.168C147.91 214.907 147.43 214.776 146.896 214.776C146.363 214.776 145.88 214.907 145.448 215.168C145.016 215.429 144.675 215.797 144.424 216.272C144.179 216.747 144.056 217.291 144.056 217.904ZM153.198 213.808H154.478V222H153.198V213.808ZM154.59 210.8V212.32H153.086V210.8H154.59ZM163.524 220.64C163.215 221.136 162.801 221.52 162.284 221.792C161.772 222.059 161.188 222.192 160.532 222.192C159.769 222.192 159.089 222.013 158.492 221.656C157.9 221.293 157.436 220.787 157.1 220.136C156.769 219.485 156.604 218.741 156.604 217.904C156.604 217.067 156.769 216.323 157.1 215.672C157.436 215.021 157.9 214.517 158.492 214.16C159.089 213.797 159.769 213.616 160.532 213.616C161.188 213.616 161.772 213.752 162.284 214.024C162.801 214.291 163.215 214.672 163.524 215.168V210.8H164.804V222H163.524V220.64ZM157.948 217.904C157.948 218.517 158.065 219.061 158.3 219.536C158.535 220.005 158.863 220.373 159.284 220.64C159.705 220.901 160.188 221.032 160.732 221.032C161.233 221.032 161.684 220.923 162.084 220.704C162.489 220.48 162.815 220.168 163.06 219.768C163.311 219.363 163.465 218.893 163.524 218.36V217.448C163.465 216.915 163.311 216.448 163.06 216.048C162.815 215.643 162.489 215.331 162.084 215.112C161.684 214.888 161.233 214.776 160.732 214.776C160.188 214.776 159.705 214.909 159.284 215.176C158.863 215.437 158.535 215.805 158.3 216.28C158.065 216.749 157.948 217.291 157.948 217.904Z" fill="#19191C"/>
<rect x="184" y="192" width="88" height="48" rx="6" fill="#E8E8E8"/>
<path d="M216.087 213.808H217.367V222H216.087V213.808ZM217.479 210.8V212.32H215.975V210.8H217.479ZM225.237 220.976C226.021 220.976 226.73 220.781 227.365 220.392C228 219.997 228.496 219.453 228.853 218.76C229.216 218.061 229.397 217.275 229.397 216.4C229.397 215.52 229.218 214.733 228.861 214.04C228.509 213.341 228.016 212.797 227.381 212.408C226.752 212.019 226.037 211.824 225.237 211.824C224.448 211.824 223.736 212.021 223.101 212.416C222.472 212.805 221.976 213.347 221.613 214.04C221.256 214.733 221.077 215.52 221.077 216.4C221.077 217.28 221.256 218.067 221.613 218.76C221.976 219.453 222.472 219.997 223.101 220.392C223.736 220.781 224.448 220.976 225.237 220.976ZM219.701 216.4C219.701 215.312 219.944 214.328 220.429 213.448C220.914 212.563 221.578 211.869 222.421 211.368C223.264 210.861 224.202 210.608 225.237 210.608C226.266 210.608 227.202 210.861 228.045 211.368C228.893 211.869 229.56 212.563 230.045 213.448C230.53 214.328 230.773 215.312 230.773 216.4C230.773 217.488 230.53 218.475 230.045 219.36C229.56 220.24 228.893 220.933 228.045 221.44C227.202 221.941 226.266 222.192 225.237 222.192C224.202 222.192 223.264 221.941 222.421 221.44C221.578 220.933 220.914 220.24 220.429 219.36C219.944 218.475 219.701 217.488 219.701 216.4ZM236.488 222.192C235.72 222.192 235.04 222.051 234.448 221.768C233.861 221.485 233.402 221.091 233.072 220.584C232.746 220.077 232.584 219.496 232.584 218.84H233.944C233.944 219.261 234.05 219.635 234.264 219.96C234.477 220.285 234.778 220.539 235.168 220.72C235.557 220.901 236.002 220.992 236.504 220.992C237 220.992 237.434 220.909 237.808 220.744C238.186 220.573 238.477 220.336 238.68 220.032C238.888 219.723 238.992 219.368 238.992 218.968C238.992 218.461 238.84 218.027 238.536 217.664C238.237 217.301 237.837 217.077 237.336 216.992L235.528 216.68C234.984 216.584 234.512 216.395 234.112 216.112C233.712 215.829 233.405 215.477 233.192 215.056C232.978 214.635 232.872 214.176 232.872 213.68C232.872 213.099 233.024 212.576 233.328 212.112C233.637 211.643 234.064 211.275 234.608 211.008C235.157 210.741 235.773 210.608 236.456 210.608C237.16 210.608 237.786 210.741 238.336 211.008C238.885 211.269 239.312 211.635 239.616 212.104C239.92 212.573 240.072 213.109 240.072 213.712H238.712C238.712 213.344 238.618 213.016 238.432 212.728C238.245 212.435 237.981 212.208 237.64 212.048C237.304 211.888 236.914 211.808 236.472 211.808C236.029 211.808 235.637 211.885 235.296 212.04C234.954 212.195 234.688 212.413 234.496 212.696C234.309 212.979 234.216 213.307 234.216 213.68C234.216 214.123 234.357 214.504 234.64 214.824C234.928 215.144 235.304 215.344 235.768 215.424L237.608 215.744C238.141 215.84 238.616 216.045 239.032 216.36C239.448 216.675 239.77 217.061 240 217.52C240.229 217.973 240.344 218.451 240.344 218.952C240.344 219.555 240.181 220.104 239.856 220.6C239.53 221.091 239.074 221.48 238.488 221.768C237.901 222.051 237.234 222.192 236.488 222.192Z" fill="#19191C"/>
<rect x="276" y="192" width="88" height="48" rx="6" fill="#E8E8E8"/>
<path d="M289.859 210.8H293.827C294.878 210.8 295.808 211.037 296.619 211.512C297.435 211.981 298.07 212.64 298.523 213.488C298.976 214.336 299.203 215.307 299.203 216.4C299.203 217.493 298.976 218.464 298.523 219.312C298.07 220.16 297.435 220.821 296.619 221.296C295.808 221.765 294.878 222 293.827 222H289.859V210.8ZM293.827 220.76C294.606 220.76 295.299 220.576 295.907 220.208C296.515 219.84 296.987 219.328 297.323 218.672C297.659 218.011 297.827 217.253 297.827 216.4C297.827 215.547 297.659 214.792 297.323 214.136C296.987 213.475 296.515 212.96 295.907 212.592C295.299 212.224 294.606 212.04 293.827 212.04H291.187V220.76H293.827ZM304.86 222.192C304.092 222.192 303.401 222.008 302.788 221.64C302.174 221.272 301.694 220.763 301.348 220.112C301.006 219.456 300.836 218.715 300.836 217.888C300.836 217.083 301.009 216.355 301.356 215.704C301.708 215.053 302.19 214.544 302.804 214.176C303.417 213.803 304.102 213.616 304.86 213.616C305.633 213.616 306.31 213.8 306.892 214.168C307.478 214.536 307.929 215.045 308.244 215.696C308.564 216.347 308.724 217.083 308.724 217.904V218.216H302.14C302.193 218.776 302.345 219.272 302.596 219.704C302.846 220.136 303.174 220.472 303.58 220.712C303.985 220.952 304.438 221.072 304.94 221.072C305.478 221.072 305.953 220.973 306.364 220.776C306.774 220.579 307.073 220.309 307.26 219.968H308.54C308.444 220.309 308.241 220.651 307.932 220.992C307.628 221.333 307.212 221.619 306.684 221.848C306.161 222.077 305.553 222.192 304.86 222.192ZM307.396 217.16C307.289 216.413 307.017 215.824 306.58 215.392C306.148 214.96 305.58 214.744 304.876 214.744C304.401 214.744 303.974 214.843 303.596 215.04C303.217 215.232 302.905 215.512 302.66 215.88C302.414 216.243 302.252 216.669 302.172 217.16H307.396ZM313.557 222.192C312.938 222.192 312.378 222.093 311.877 221.896C311.381 221.699 310.983 221.424 310.685 221.072C310.391 220.715 310.234 220.312 310.213 219.864H311.517C311.538 220.109 311.639 220.331 311.821 220.528C312.002 220.72 312.242 220.872 312.541 220.984C312.839 221.096 313.173 221.152 313.541 221.152C313.914 221.152 314.242 221.091 314.525 220.968C314.813 220.845 315.034 220.675 315.189 220.456C315.349 220.237 315.429 219.989 315.429 219.712C315.429 219.413 315.343 219.163 315.173 218.96C315.007 218.752 314.775 218.621 314.477 218.568L312.501 218.208C311.871 218.091 311.381 217.837 311.029 217.448C310.677 217.053 310.501 216.555 310.501 215.952C310.501 215.52 310.623 215.128 310.869 214.776C311.119 214.419 311.469 214.136 311.917 213.928C312.365 213.72 312.877 213.616 313.453 213.616C314.023 213.616 314.538 213.709 314.997 213.896C315.455 214.083 315.821 214.341 316.093 214.672C316.365 215.003 316.511 215.371 316.533 215.776H315.229C315.213 215.563 315.125 215.371 314.965 215.2C314.81 215.029 314.602 214.896 314.341 214.8C314.079 214.704 313.786 214.656 313.461 214.656C313.13 214.656 312.837 214.712 312.581 214.824C312.325 214.936 312.125 215.091 311.981 215.288C311.842 215.48 311.773 215.699 311.773 215.944C311.773 216.221 311.85 216.451 312.005 216.632C312.159 216.813 312.386 216.931 312.685 216.984L314.709 217.344C315.125 217.419 315.482 217.565 315.781 217.784C316.085 218.003 316.314 218.275 316.469 218.6C316.629 218.925 316.709 219.28 316.709 219.664C316.709 220.144 316.57 220.576 316.293 220.96C316.021 221.344 315.645 221.645 315.165 221.864C314.685 222.083 314.149 222.192 313.557 222.192ZM318.892 210.8H320.172V217.648L323.884 213.808H325.476L321.74 217.712L325.62 222H323.972L320.172 217.872V222H318.892V210.8ZM329.72 222C329.331 222 328.976 221.917 328.656 221.752C328.341 221.581 328.093 221.349 327.912 221.056C327.731 220.757 327.64 220.427 327.64 220.064L327.632 214.944H326.192L326.2 213.808H327.088C327.291 213.808 327.453 213.744 327.576 213.616C327.704 213.488 327.768 213.325 327.768 213.128V211.808H328.92V213.808H330.896L330.888 214.944H328.912L328.92 219.984C328.92 220.235 329.003 220.445 329.168 220.616C329.339 220.781 329.549 220.864 329.8 220.864H330.888V222H329.72ZM336.623 222.192C335.845 222.192 335.135 222.008 334.495 221.64C333.861 221.267 333.359 220.755 332.991 220.104C332.629 219.448 332.447 218.715 332.447 217.904C332.447 217.093 332.629 216.363 332.991 215.712C333.359 215.056 333.863 214.544 334.503 214.176C335.143 213.803 335.853 213.616 336.631 213.616C337.41 213.616 338.117 213.803 338.751 214.176C339.386 214.544 339.885 215.053 340.247 215.704C340.615 216.355 340.799 217.088 340.799 217.904C340.799 218.72 340.615 219.453 340.247 220.104C339.885 220.755 339.386 221.267 338.751 221.64C338.117 222.008 337.407 222.192 336.623 222.192ZM333.791 217.904C333.791 218.517 333.914 219.061 334.159 219.536C334.41 220.005 334.751 220.371 335.183 220.632C335.621 220.893 336.106 221.024 336.639 221.024C337.173 221.024 337.653 220.893 338.079 220.632C338.506 220.371 338.842 220.005 339.087 219.536C339.333 219.061 339.455 218.517 339.455 217.904C339.455 217.291 339.333 216.747 339.087 216.272C338.842 215.797 338.503 215.429 338.071 215.168C337.645 214.907 337.165 214.776 336.631 214.776C336.098 214.776 335.615 214.907 335.183 215.168C334.751 215.429 334.41 215.797 334.159 216.272C333.914 216.747 333.791 217.291 333.791 217.904ZM344.181 213.808V215.256C344.49 214.739 344.906 214.336 345.429 214.048C345.952 213.76 346.552 213.616 347.229 213.616C347.992 213.616 348.669 213.797 349.261 214.16C349.858 214.517 350.322 215.021 350.653 215.672C350.989 216.323 351.157 217.067 351.157 217.904C351.157 218.741 350.989 219.485 350.653 220.136C350.322 220.787 349.858 221.293 349.261 221.656C348.669 222.013 347.992 222.192 347.229 222.192C346.562 222.192 345.97 222.053 345.453 221.776C344.936 221.499 344.522 221.109 344.213 220.608V224.576H342.933V213.808H344.181ZM344.213 217.904C344.213 218.517 344.33 219.061 344.565 219.536C344.805 220.005 345.138 220.373 345.565 220.64C345.992 220.901 346.48 221.032 347.029 221.032C347.573 221.032 348.056 220.901 348.477 220.64C348.898 220.373 349.226 220.005 349.461 219.536C349.696 219.061 349.813 218.517 349.813 217.904C349.813 217.291 349.696 216.749 349.461 216.28C349.226 215.805 348.898 215.437 348.477 215.176C348.056 214.909 347.573 214.776 347.029 214.776C346.48 214.776 345.992 214.909 345.565 215.176C345.138 215.437 344.805 215.805 344.565 216.28C344.33 216.749 344.213 217.291 344.213 217.904Z" fill="#19191C"/>
<rect x="368" y="192" width="88" height="48" rx="6" fill="#E8E8E8"/>
<path d="M395.965 210.8L399.029 220.064L401.933 210.8H403.197L406.133 220.064L409.133 210.8H410.525L406.741 222H405.445L402.541 212.896L399.589 222H398.293L394.525 210.8H395.965ZM415.001 222.192C414.233 222.192 413.543 222.008 412.929 221.64C412.316 221.272 411.836 220.763 411.489 220.112C411.148 219.456 410.977 218.715 410.977 217.888C410.977 217.083 411.151 216.355 411.497 215.704C411.849 215.053 412.332 214.544 412.945 214.176C413.559 213.803 414.244 213.616 415.001 213.616C415.775 213.616 416.452 213.8 417.033 214.168C417.62 214.536 418.071 215.045 418.385 215.696C418.705 216.347 418.865 217.083 418.865 217.904V218.216H412.281C412.335 218.776 412.487 219.272 412.737 219.704C412.988 220.136 413.316 220.472 413.721 220.712C414.127 220.952 414.58 221.072 415.081 221.072C415.62 221.072 416.095 220.973 416.505 220.776C416.916 220.579 417.215 220.309 417.401 219.968H418.681C418.585 220.309 418.383 220.651 418.073 220.992C417.769 221.333 417.353 221.619 416.825 221.848C416.303 222.077 415.695 222.192 415.001 222.192ZM417.537 217.16C417.431 216.413 417.159 215.824 416.721 215.392C416.289 214.96 415.721 214.744 415.017 214.744C414.543 214.744 414.116 214.843 413.737 215.04C413.359 215.232 413.047 215.512 412.801 215.88C412.556 216.243 412.393 216.669 412.313 217.16H417.537ZM420.994 210.8H422.274V215.168C422.584 214.672 422.994 214.291 423.506 214.024C424.024 213.752 424.61 213.616 425.266 213.616C426.029 213.616 426.706 213.797 427.298 214.16C427.896 214.517 428.36 215.021 428.69 215.672C429.026 216.323 429.194 217.067 429.194 217.904C429.194 218.741 429.026 219.485 428.69 220.136C428.36 220.787 427.896 221.293 427.298 221.656C426.706 222.013 426.029 222.192 425.266 222.192C424.61 222.192 424.024 222.059 423.506 221.792C422.994 221.52 422.584 221.136 422.274 220.64V222H420.994V210.8ZM422.274 218.36C422.333 218.893 422.485 219.363 422.73 219.768C422.981 220.168 423.306 220.48 423.706 220.704C424.112 220.923 424.565 221.032 425.066 221.032C425.61 221.032 426.093 220.901 426.514 220.64C426.936 220.373 427.264 220.005 427.498 219.536C427.733 219.061 427.85 218.517 427.85 217.904C427.85 217.291 427.733 216.749 427.498 216.28C427.264 215.805 426.936 215.437 426.514 215.176C426.093 214.909 425.61 214.776 425.066 214.776C424.565 214.776 424.112 214.888 423.706 215.112C423.306 215.331 422.981 215.643 422.73 216.048C422.485 216.448 422.333 216.915 422.274 217.448V218.36Z" fill="#19191C"/>
</svg>
