<?xml version="1.0" encoding="utf-8"?>
<!-- Generator: Adobe Illustrator 23.0.6, SVG Export Plug-In . SVG Version: 6.00 Build 0)  -->
<svg version="1.1" id="Layer_1" xmlns="http://www.w3.org/2000/svg" xmlns:xlink="http://www.w3.org/1999/xlink" x="0px" y="0px"
	 viewBox="0 0 960 315" style="enable-background:new 0 0 960 315;" xml:space="preserve">
<style type="text/css">
	.st0{fill:#6779F6;}
	.st1{fill:#FFFFFF;}
	.st2{opacity:0.9;fill:#FFFFFF;}
	.st3{fill:#FF722C;}
	.st4{fill:#27282C;}
</style>
	<rect x="0" y="0" class="st0" width="960" height="315"/>
	<g>
	<path class="st1" d="M50.5,260.2v-11.6h2.4v5.1h0.2l4.2-5.1h2.9l-4.3,5.2l4.3,6.4h-2.9l-3.2-4.8l-1.2,1.5v3.3H50.5z"/>
		<path class="st1" d="M64.7,260.4c-0.9,0-1.6-0.2-2.3-0.6c-0.6-0.4-1.1-0.9-1.5-1.6c-0.3-0.7-0.5-1.5-0.5-2.3c0-0.9,0.2-1.7,0.5-2.4
		c0.3-0.7,0.8-1.2,1.5-1.6c0.6-0.4,1.4-0.6,2.3-0.6c0.9,0,1.6,0.2,2.3,0.6c0.6,0.4,1.1,0.9,1.5,1.6c0.3,0.7,0.5,1.5,0.5,2.4
		c0,0.9-0.2,1.7-0.5,2.3c-0.3,0.7-0.8,1.2-1.5,1.6C66.3,260.2,65.6,260.4,64.7,260.4z M64.7,258.5c0.6,0,1-0.2,1.4-0.7
		c0.3-0.5,0.5-1.1,0.5-1.9c0-0.8-0.2-1.4-0.5-1.9c-0.3-0.5-0.8-0.7-1.4-0.7c-0.6,0-1.1,0.2-1.4,0.7c-0.3,0.5-0.5,1.1-0.5,1.9
		c0,0.8,0.2,1.4,0.5,1.9C63.7,258.3,64.1,258.5,64.7,258.5z"/>
		<path class="st1" d="M75.2,251.6v1.8h-1.6v4.2c0,0.3,0.1,0.6,0.2,0.7c0.2,0.1,0.4,0.2,0.6,0.2c0.1,0,0.2,0,0.3,0c0.1,0,0.2,0,0.3,0
		l0.4,1.8c-0.1,0-0.3,0.1-0.5,0.1c-0.2,0-0.5,0.1-0.8,0.1c-0.9,0-1.6-0.2-2.1-0.6c-0.5-0.4-0.8-1-0.8-1.9v-4.5H70v-1.8h1.2v-2.1h2.4
		v2.1H75.2z"/>
		<path class="st1" d="M79.4,248.7v11.6H77v-11.6H79.4z"/>
		<path class="st1" d="M82.5,250.5c-0.3,0-0.6-0.1-0.9-0.4c-0.3-0.2-0.4-0.5-0.4-0.9c0-0.3,0.1-0.6,0.4-0.9c0.3-0.2,0.6-0.3,0.9-0.3
		c0.3,0,0.7,0.1,0.9,0.3c0.3,0.2,0.4,0.5,0.4,0.9c0,0.3-0.1,0.6-0.4,0.9C83.1,250.4,82.8,250.5,82.5,250.5z M81.3,260.2v-8.7h2.4
		v8.7H81.3z"/>
		<path class="st1" d="M88,255.2v5h-2.4v-8.7h2.3v1.5H88c0.2-0.5,0.5-0.9,1-1.2c0.4-0.3,1-0.4,1.6-0.4c0.9,0,1.6,0.3,2.2,0.9
		c0.5,0.6,0.8,1.4,0.8,2.4v5.5h-2.4v-5.1c0-0.5-0.1-0.9-0.4-1.2c-0.3-0.3-0.7-0.4-1.1-0.4c-0.5,0-0.9,0.2-1.2,0.5
		C88.2,254.2,88,254.7,88,255.2z"/>
		<path class="st1" d="M103.9,248.7v11.6h-2.4v-8.6h-0.1c-0.1,0.2-0.4,0.4-0.8,0.6c-0.4,0.2-0.9,0.3-1.6,0.3v-1.9
		c0.5,0,0.9-0.1,1.3-0.3c0.4-0.2,0.7-0.5,0.9-0.8c0.2-0.3,0.3-0.6,0.3-0.8H103.9z"/>
		<path class="st1" d="M108.1,260.4c-0.4,0-0.7-0.1-1-0.4c-0.3-0.3-0.4-0.6-0.4-1c0-0.4,0.1-0.7,0.4-0.9s0.6-0.4,1-0.4
		c0.4,0,0.7,0.1,1,0.4s0.4,0.6,0.4,0.9c0,0.4-0.1,0.7-0.4,1S108.4,260.4,108.1,260.4z"/>
		<path class="st1" d="M111.2,258.2v-1.9l4.8-7.6h3.1v7.6h1.4v2h-1.4v2h-2.3v-2H111.2z M116.8,256.2v-4.9h-0.1l-3,4.8v0.1H116.8z"/>
		<path class="st1" d="M128,254.5v1.8h-5.8v-1.8H128z"/>
		<path class="st1" d="M129.9,248.7h3l3.2,7.8h0.1l3.2-7.8h3v11.6h-2.4v-7.5H140l-3,7.5h-1.6l-3-7.5h-0.1v7.6h-2.4V248.7z"/>
		<path class="st1" d="M149.1,248.7v11.6h-2.4v-8.6h-0.1c-0.1,0.2-0.4,0.4-0.8,0.6c-0.4,0.2-0.9,0.3-1.6,0.3v-1.9
		c0.5,0,0.9-0.1,1.3-0.3c0.4-0.2,0.7-0.5,0.9-0.8c0.2-0.3,0.3-0.6,0.3-0.8H149.1z"/>
		<path class="st1" d="M153.4,254.3c-0.4,0-0.7-0.1-1-0.4s-0.4-0.6-0.4-1c0-0.4,0.1-0.7,0.4-0.9s0.6-0.4,1-0.4c0.4,0,0.7,0.1,1,0.4
		c0.3,0.3,0.4,0.6,0.4,0.9c0,0.4-0.1,0.7-0.4,1S153.7,254.3,153.4,254.3z M153.4,260.4c-0.4,0-0.7-0.1-1-0.4s-0.4-0.6-0.4-1
		c0-0.4,0.1-0.7,0.4-0.9s0.6-0.4,1-0.4c0.4,0,0.7,0.1,1,0.4s0.4,0.6,0.4,0.9c0,0.4-0.1,0.7-0.4,1S153.7,260.4,153.4,260.4z"/>
		<path class="st2" d="M161.5,260.2v-11.6h3.9c0.9,0,1.7,0.2,2.2,0.5c0.6,0.3,1,0.8,1.3,1.3c0.3,0.6,0.4,1.2,0.4,1.9
		c0,0.7-0.1,1.3-0.4,1.9c-0.3,0.6-0.7,1-1.3,1.3c-0.6,0.3-1.3,0.5-2.2,0.5h-2.5v4.2H161.5z M162.9,254.8h2.5c0.9,0,1.6-0.2,2-0.7
		c0.4-0.5,0.6-1,0.6-1.7c0-0.7-0.2-1.3-0.6-1.7s-1.1-0.7-2-0.7h-2.5V254.8z"/>
		<path class="st2" d="M174.9,260.4c-0.8,0-1.5-0.2-2.1-0.6c-0.6-0.4-1-0.9-1.4-1.6c-0.3-0.7-0.5-1.5-0.5-2.3c0-0.9,0.2-1.7,0.5-2.4
		c0.3-0.7,0.8-1.2,1.4-1.6c0.6-0.4,1.3-0.6,2.1-0.6c0.8,0,1.5,0.2,2.1,0.6c0.6,0.4,1,0.9,1.4,1.6c0.3,0.7,0.5,1.5,0.5,2.4
		c0,0.9-0.2,1.7-0.5,2.3c-0.3,0.7-0.8,1.2-1.4,1.6S175.7,260.4,174.9,260.4z M174.9,259.2c0.6,0,1.1-0.2,1.5-0.5
		c0.4-0.3,0.7-0.7,0.9-1.2c0.2-0.5,0.3-1,0.3-1.6c0-0.6-0.1-1.1-0.3-1.6c-0.2-0.5-0.5-0.9-0.9-1.2c-0.4-0.3-0.9-0.5-1.5-0.5
		c-0.6,0-1.1,0.2-1.5,0.5c-0.4,0.3-0.7,0.7-0.9,1.2c-0.2,0.5-0.3,1-0.3,1.6c0,0.6,0.1,1.1,0.3,1.6c0.2,0.5,0.5,0.9,0.9,1.2
		C173.8,259.1,174.3,259.2,174.9,259.2z"/>
		<path class="st2" d="M182.5,260.2l-2.6-8.7h1.4l1.9,6.6h0.1l1.9-6.6h1.4l1.8,6.6h0.1l1.9-6.6h1.4l-2.6,8.7h-1.3l-1.9-6.7h-0.1
		l-1.9,6.7H182.5z"/>
		<path class="st2" d="M196.8,260.4c-0.8,0-1.6-0.2-2.2-0.6c-0.6-0.4-1.1-0.9-1.4-1.6c-0.3-0.7-0.5-1.4-0.5-2.3
		c0-0.9,0.2-1.7,0.5-2.4c0.3-0.7,0.8-1.2,1.4-1.6c0.6-0.4,1.3-0.6,2.1-0.6c0.5,0,0.9,0.1,1.3,0.2c0.4,0.2,0.8,0.4,1.2,0.7
		c0.4,0.3,0.6,0.8,0.9,1.3c0.2,0.6,0.3,1.2,0.3,2v0.6h-6.3c0,0.9,0.3,1.6,0.8,2.1c0.5,0.5,1.1,0.7,1.9,0.7c0.5,0,1-0.1,1.3-0.3
		c0.4-0.2,0.6-0.6,0.8-1l1.3,0.4c-0.2,0.7-0.6,1.2-1.2,1.6C198.4,260.2,197.7,260.4,196.8,260.4z M194.1,255.2h4.9
		c0-0.7-0.2-1.3-0.6-1.8c-0.4-0.5-1-0.7-1.7-0.7c-0.5,0-0.9,0.1-1.3,0.4c-0.4,0.2-0.7,0.6-0.9,0.9
		C194.3,254.3,194.1,254.7,194.1,255.2z"/>
		<path class="st2" d="M202.4,260.2v-8.7h1.3v1.3h0.1c0.2-0.4,0.4-0.8,0.9-1c0.4-0.3,0.9-0.4,1.4-0.4c0.2,0,0.5,0,0.6,0.1
		c0.2,0.1,0.3,0.1,0.5,0.2l-0.5,1.1c-0.1,0-0.2-0.1-0.3-0.1c-0.1,0-0.3,0-0.4,0c-0.6,0-1.2,0.2-1.6,0.6c-0.4,0.4-0.6,0.9-0.6,1.5
		v5.5H202.4z"/>
		<path class="st2" d="M212.9,251.6v1.1H211v7.5h-1.3v-7.5h-1.4v-1.1h1.4v-1.2c0-0.5,0.1-0.9,0.3-1.2c0.2-0.3,0.5-0.6,0.9-0.7
		c0.4-0.2,0.8-0.2,1.2-0.2c0.3,0,0.6,0,0.8,0.1c0.2,0.1,0.4,0.1,0.5,0.1l-0.4,1.2c-0.1,0-0.2-0.1-0.3-0.1c-0.1,0-0.3-0.1-0.5-0.1
		c-0.4,0-0.8,0.1-1,0.3c-0.2,0.2-0.3,0.5-0.3,1v0.9H212.9z"/>
		<path class="st2" d="M220.3,256.7v-5.1h1.3v8.7h-1.3v-1.5h-0.1c-0.2,0.4-0.5,0.8-0.9,1.1c-0.4,0.3-1,0.5-1.6,0.5
		c-0.8,0-1.5-0.3-2-0.8s-0.8-1.4-0.8-2.5v-5.5h1.3v5.4c0,0.6,0.2,1.1,0.5,1.5c0.4,0.4,0.8,0.6,1.4,0.6c0.3,0,0.7-0.1,1-0.3
		c0.3-0.2,0.6-0.4,0.9-0.8C220.1,257.7,220.3,257.2,220.3,256.7z"/>
		<path class="st2" d="M225.4,248.7v11.6H224v-11.6H225.4z"/>
		<path class="st2" d="M236,251.6v1.1h-1.9v5.1c0,0.4,0.1,0.7,0.2,0.8c0.1,0.2,0.3,0.3,0.4,0.4c0.2,0.1,0.4,0.1,0.6,0.1
		c0.1,0,0.3,0,0.4,0s0.2,0,0.2,0l0.3,1.2c-0.1,0-0.2,0.1-0.4,0.1c-0.2,0-0.4,0.1-0.6,0.1c-0.4,0-0.7-0.1-1.1-0.2
		c-0.4-0.2-0.7-0.4-0.9-0.7c-0.2-0.3-0.4-0.7-0.4-1.3v-5.4h-1.3v-1.1h1.3v-2.1h1.3v2.1H236z"/>
		<path class="st2" d="M239,263.6c-0.2,0-0.4,0-0.6-0.1c-0.2,0-0.3-0.1-0.4-0.1l0.3-1.2c0.5,0.1,0.9,0.1,1.2,0
		c0.3-0.1,0.6-0.5,0.8-1.2l0.3-0.8l-3.2-8.7h1.4l2.4,6.9h0.1l2.4-6.9h1.4l-3.7,10.1C241,262.9,240.2,263.6,239,263.6z"/>
		<path class="st2" d="M251,260.4c-0.6,0-1-0.1-1.3-0.3c-0.3-0.2-0.6-0.4-0.8-0.6c-0.2-0.2-0.3-0.4-0.4-0.6h-0.1v4.6H247v-11.9h1.3
		v1.4h0.2c0.1-0.1,0.2-0.3,0.4-0.6c0.2-0.2,0.4-0.4,0.8-0.6c0.3-0.2,0.8-0.3,1.3-0.3c0.7,0,1.4,0.2,1.9,0.5c0.6,0.4,1,0.9,1.3,1.6
		c0.3,0.7,0.5,1.5,0.5,2.4c0,0.9-0.2,1.7-0.5,2.4c-0.3,0.7-0.7,1.2-1.3,1.6C252.3,260.2,251.7,260.4,251,260.4z M250.8,259.2
		c0.6,0,1-0.1,1.4-0.4c0.4-0.3,0.7-0.7,0.8-1.2c0.2-0.5,0.3-1.1,0.3-1.7c0-0.6-0.1-1.2-0.3-1.7c-0.2-0.5-0.5-0.9-0.8-1.2
		c-0.4-0.3-0.8-0.4-1.4-0.4c-0.8,0-1.4,0.3-1.9,0.9c-0.4,0.6-0.6,1.4-0.6,2.4c0,1,0.2,1.8,0.6,2.4
		C249.4,258.9,250,259.2,250.8,259.2z"/>
		<path class="st2" d="M260.3,260.4c-0.8,0-1.6-0.2-2.2-0.6c-0.6-0.4-1.1-0.9-1.4-1.6c-0.3-0.7-0.5-1.4-0.5-2.3
		c0-0.9,0.2-1.7,0.5-2.4c0.3-0.7,0.8-1.2,1.4-1.6c0.6-0.4,1.3-0.6,2.1-0.6c0.5,0,0.9,0.1,1.3,0.2c0.4,0.2,0.8,0.4,1.2,0.7
		c0.4,0.3,0.6,0.8,0.9,1.3c0.2,0.6,0.3,1.2,0.3,2v0.6h-6.3c0,0.9,0.3,1.6,0.8,2.1c0.5,0.5,1.1,0.7,1.9,0.7c0.5,0,1-0.1,1.3-0.3
		c0.4-0.2,0.6-0.6,0.8-1l1.3,0.4c-0.2,0.7-0.6,1.2-1.2,1.6C261.9,260.2,261.2,260.4,260.3,260.4z M257.6,255.2h4.9
		c0-0.7-0.2-1.3-0.6-1.8c-0.4-0.5-1-0.7-1.7-0.7c-0.5,0-0.9,0.1-1.3,0.4c-0.4,0.2-0.7,0.6-0.9,0.9
		C257.8,254.3,257.6,254.7,257.6,255.2z"/>
		<path class="st2" d="M271.1,250.1c-0.3,0-0.5-0.1-0.7-0.3c-0.2-0.2-0.3-0.4-0.3-0.6c0-0.2,0.1-0.5,0.3-0.6c0.2-0.2,0.4-0.3,0.7-0.3
		s0.5,0.1,0.7,0.3c0.2,0.2,0.3,0.4,0.3,0.6c0,0.2-0.1,0.5-0.3,0.6S271.3,250.1,271.1,250.1z M270.4,260.2v-8.7h1.3v8.7H270.4z"/>
		<path class="st2" d="M275.5,255v5.2h-1.3v-8.7h1.3v1.4h0.1c0.2-0.4,0.5-0.8,0.9-1.1s0.9-0.4,1.6-0.4c0.9,0,1.6,0.3,2.1,0.8
		c0.5,0.5,0.8,1.4,0.8,2.5v5.5h-1.3v-5.4c0-0.7-0.2-1.2-0.5-1.6c-0.4-0.4-0.8-0.6-1.5-0.6c-0.6,0-1.2,0.2-1.6,0.6
		C275.7,253.7,275.5,254.3,275.5,255z"/>
		<path class="st2" d="M287.3,251.6v1.1h-1.9v7.5h-1.3v-7.5h-1.4v-1.1h1.4v-1.2c0-0.5,0.1-0.9,0.3-1.2c0.2-0.3,0.5-0.6,0.9-0.7
		c0.4-0.2,0.8-0.2,1.2-0.2c0.3,0,0.6,0,0.8,0.1c0.2,0.1,0.4,0.1,0.5,0.1l-0.4,1.2c-0.1,0-0.2-0.1-0.3-0.1c-0.1,0-0.3-0.1-0.5-0.1
		c-0.4,0-0.8,0.1-1,0.3c-0.2,0.2-0.3,0.5-0.3,1v0.9H287.3z"/>
		<path class="st2" d="M292.5,260.4c-0.8,0-1.6-0.2-2.2-0.6c-0.6-0.4-1.1-0.9-1.4-1.6c-0.3-0.7-0.5-1.4-0.5-2.3
		c0-0.9,0.2-1.7,0.5-2.4c0.3-0.7,0.8-1.2,1.4-1.6c0.6-0.4,1.3-0.6,2.1-0.6c0.5,0,0.9,0.1,1.3,0.2c0.4,0.2,0.8,0.4,1.2,0.7
		c0.4,0.3,0.6,0.8,0.9,1.3c0.2,0.6,0.3,1.2,0.3,2v0.6h-6.3c0,0.9,0.3,1.6,0.8,2.1c0.5,0.5,1.1,0.7,1.9,0.7c0.5,0,1-0.1,1.3-0.3
		c0.4-0.2,0.6-0.6,0.8-1l1.3,0.4c-0.2,0.7-0.6,1.2-1.2,1.6C294.1,260.2,293.4,260.4,292.5,260.4z M289.8,255.2h4.9
		c0-0.7-0.2-1.3-0.6-1.8c-0.4-0.5-1-0.7-1.7-0.7c-0.5,0-0.9,0.1-1.3,0.4c-0.4,0.2-0.7,0.6-0.9,0.9
		C289.9,254.3,289.8,254.7,289.8,255.2z"/>
		<path class="st2" d="M298.1,260.2v-8.7h1.3v1.3h0.1c0.2-0.4,0.4-0.8,0.9-1c0.4-0.3,0.9-0.4,1.4-0.4c0.2,0,0.5,0,0.6,0.1
		c0.2,0.1,0.3,0.1,0.5,0.2l-0.5,1.1c-0.1,0-0.2-0.1-0.3-0.1c-0.1,0-0.3,0-0.4,0c-0.6,0-1.2,0.2-1.6,0.6c-0.4,0.4-0.6,0.9-0.6,1.5
		v5.5H298.1z"/>
		<path class="st2" d="M307.6,260.4c-0.8,0-1.6-0.2-2.2-0.6c-0.6-0.4-1.1-0.9-1.4-1.6c-0.3-0.7-0.5-1.4-0.5-2.3
		c0-0.9,0.2-1.7,0.5-2.4c0.3-0.7,0.8-1.2,1.4-1.6c0.6-0.4,1.3-0.6,2.1-0.6c0.5,0,0.9,0.1,1.3,0.2c0.4,0.2,0.8,0.4,1.2,0.7
		c0.4,0.3,0.6,0.8,0.9,1.3c0.2,0.6,0.3,1.2,0.3,2v0.6h-6.3c0,0.9,0.3,1.6,0.8,2.1c0.5,0.5,1.1,0.7,1.9,0.7c0.5,0,1-0.1,1.3-0.3
		c0.4-0.2,0.6-0.6,0.8-1l1.3,0.4c-0.2,0.7-0.6,1.2-1.2,1.6C309.2,260.2,308.4,260.4,307.6,260.4z M304.9,255.2h4.9
		c0-0.7-0.2-1.3-0.6-1.8c-0.4-0.5-1-0.7-1.7-0.7c-0.5,0-0.9,0.1-1.3,0.4c-0.4,0.2-0.7,0.6-0.9,0.9
		C305,254.3,304.9,254.7,304.9,255.2z"/>
		<path class="st2" d="M314.5,255v5.2h-1.3v-8.7h1.3v1.4h0.1c0.2-0.4,0.5-0.8,0.9-1.1s0.9-0.4,1.6-0.4c0.9,0,1.6,0.3,2.1,0.8
		c0.5,0.5,0.8,1.4,0.8,2.5v5.5h-1.3v-5.4c0-0.7-0.2-1.2-0.5-1.6c-0.4-0.4-0.8-0.6-1.5-0.6c-0.6,0-1.2,0.2-1.6,0.6
		C314.7,253.7,314.5,254.3,314.5,255z"/>
		<path class="st2" d="M326,260.4c-0.8,0-1.5-0.2-2.1-0.6c-0.6-0.4-1-0.9-1.4-1.6c-0.3-0.7-0.5-1.4-0.5-2.3c0-0.9,0.2-1.7,0.5-2.3
		c0.3-0.7,0.8-1.2,1.4-1.6c0.6-0.4,1.3-0.6,2.1-0.6c0.6,0,1.2,0.1,1.6,0.3c0.5,0.2,0.9,0.5,1.2,0.9c0.3,0.4,0.5,0.9,0.6,1.4h-1.3
		c-0.1-0.4-0.3-0.7-0.7-1.1c-0.3-0.3-0.8-0.5-1.4-0.5c-0.8,0-1.4,0.3-1.9,0.9c-0.5,0.6-0.7,1.4-0.7,2.4c0,1,0.2,1.8,0.7,2.4
		c0.5,0.6,1.1,0.9,1.9,0.9c0.5,0,1-0.1,1.3-0.4c0.4-0.3,0.6-0.6,0.7-1.1h1.3c-0.1,0.5-0.3,1-0.6,1.4c-0.3,0.4-0.7,0.7-1.2,1
		C327.2,260.3,326.6,260.4,326,260.4z"/>
		<path class="st2" d="M335,260.4c-0.8,0-1.6-0.2-2.2-0.6c-0.6-0.4-1.1-0.9-1.4-1.6c-0.3-0.7-0.5-1.4-0.5-2.3c0-0.9,0.2-1.7,0.5-2.4
		c0.3-0.7,0.8-1.2,1.4-1.6c0.6-0.4,1.3-0.6,2.1-0.6c0.5,0,0.9,0.1,1.3,0.2c0.4,0.2,0.8,0.4,1.2,0.7c0.4,0.3,0.6,0.8,0.9,1.3
		c0.2,0.6,0.3,1.2,0.3,2v0.6h-6.3c0,0.9,0.3,1.6,0.8,2.1c0.5,0.5,1.1,0.7,1.9,0.7c0.5,0,1-0.1,1.3-0.3c0.4-0.2,0.6-0.6,0.8-1
		l1.3,0.4c-0.2,0.7-0.6,1.2-1.2,1.6C336.6,260.2,335.9,260.4,335,260.4z M332.3,255.2h4.9c0-0.7-0.2-1.3-0.6-1.8
		c-0.4-0.5-1-0.7-1.7-0.7c-0.5,0-0.9,0.1-1.3,0.4c-0.4,0.2-0.7,0.6-0.9,0.9C332.4,254.3,332.3,254.7,332.3,255.2z"/>
		<path class="st2" d="M347.6,260.4c-0.5,0-1-0.1-1.5-0.3c-0.4-0.2-0.8-0.5-1.1-0.9c-0.3-0.4-0.4-0.9-0.4-1.4c0-0.5,0.1-0.9,0.3-1.2
		c0.2-0.3,0.5-0.6,0.8-0.7c0.3-0.2,0.7-0.3,1.1-0.4s0.8-0.2,1.2-0.2c0.5-0.1,1-0.1,1.3-0.2c0.3,0,0.6-0.1,0.7-0.2
		c0.2-0.1,0.2-0.2,0.2-0.5c0-0.6-0.2-1-0.5-1.3c-0.3-0.3-0.8-0.5-1.4-0.5c-0.6,0-1.1,0.1-1.5,0.4c-0.4,0.3-0.6,0.6-0.8,0.9l-1.3-0.5
		c0.2-0.5,0.5-0.9,0.9-1.2c0.4-0.3,0.8-0.5,1.2-0.6c0.4-0.1,0.9-0.2,1.3-0.2c0.3,0,0.6,0,1,0.1c0.4,0.1,0.7,0.2,1.1,0.4
		c0.3,0.2,0.6,0.5,0.8,0.9s0.3,1,0.3,1.6v5.7h-1.3v-1.2h-0.1c-0.1,0.2-0.2,0.4-0.5,0.6c-0.2,0.2-0.5,0.4-0.8,0.5
		C348.6,260.4,348.1,260.4,347.6,260.4z M347.8,259.2c0.5,0,1-0.1,1.3-0.3c0.4-0.2,0.6-0.5,0.8-0.8c0.2-0.3,0.3-0.7,0.3-1v-1.2
		c-0.1,0.1-0.2,0.1-0.4,0.2c-0.2,0.1-0.4,0.1-0.7,0.1c-0.2,0-0.5,0.1-0.7,0.1c-0.2,0-0.4,0.1-0.6,0.1c-0.3,0-0.7,0.1-1,0.2
		c-0.3,0.1-0.5,0.2-0.7,0.4c-0.2,0.2-0.3,0.5-0.3,0.8c0,0.5,0.2,0.8,0.5,1C346.9,259.1,347.3,259.2,347.8,259.2z"/>
		<path class="st2" d="M355.4,248.7v11.6H354v-11.6H355.4z"/>
		<path class="st2" d="M361.3,263.5c-0.9,0-1.7-0.2-2.2-0.5s-1-0.8-1.3-1.2l1.1-0.7c0.1,0.1,0.3,0.3,0.5,0.5c0.2,0.2,0.4,0.4,0.8,0.5
		c0.3,0.2,0.7,0.2,1.2,0.2c0.4,0,0.9-0.1,1.2-0.2c0.4-0.2,0.7-0.4,0.9-0.7c0.2-0.3,0.3-0.7,0.3-1.2v-1.5h-0.1
		c-0.1,0.2-0.2,0.4-0.4,0.6c-0.2,0.2-0.4,0.4-0.8,0.6c-0.3,0.2-0.8,0.3-1.3,0.3c-0.7,0-1.3-0.2-1.9-0.5c-0.6-0.3-1-0.8-1.3-1.4
		c-0.3-0.6-0.5-1.4-0.5-2.3c0-0.9,0.2-1.7,0.5-2.3c0.3-0.7,0.7-1.2,1.3-1.5c0.6-0.4,1.2-0.5,1.9-0.5c0.6,0,1,0.1,1.3,0.3
		c0.3,0.2,0.6,0.4,0.8,0.6c0.2,0.2,0.3,0.4,0.4,0.6h0.1v-1.4h1.3v8.7c0,0.7-0.2,1.4-0.5,1.8c-0.4,0.5-0.8,0.8-1.4,1
		C362.6,263.4,361.9,263.5,361.3,263.5z M361.3,258.9c0.8,0,1.4-0.3,1.8-0.8c0.4-0.5,0.6-1.3,0.6-2.3c0-0.9-0.2-1.7-0.6-2.3
		c-0.4-0.6-1-0.9-1.9-0.9c-0.6,0-1,0.1-1.4,0.4c-0.4,0.3-0.7,0.7-0.8,1.2c-0.2,0.5-0.3,1-0.3,1.6c0,0.9,0.2,1.6,0.6,2.2
		C359.8,258.6,360.4,258.9,361.3,258.9z"/>
		<path class="st2" d="M371,260.4c-0.8,0-1.5-0.2-2.1-0.6c-0.6-0.4-1-0.9-1.4-1.6c-0.3-0.7-0.5-1.5-0.5-2.3c0-0.9,0.2-1.7,0.5-2.4
		c0.3-0.7,0.8-1.2,1.4-1.6c0.6-0.4,1.3-0.6,2.1-0.6c0.8,0,1.5,0.2,2.1,0.6c0.6,0.4,1,0.9,1.4,1.6c0.3,0.7,0.5,1.5,0.5,2.4
		c0,0.9-0.2,1.7-0.5,2.3c-0.3,0.7-0.8,1.2-1.4,1.6S371.8,260.4,371,260.4z M371,259.2c0.6,0,1.1-0.2,1.5-0.5
		c0.4-0.3,0.7-0.7,0.9-1.2c0.2-0.5,0.3-1,0.3-1.6c0-0.6-0.1-1.1-0.3-1.6c-0.2-0.5-0.5-0.9-0.9-1.2c-0.4-0.3-0.9-0.5-1.5-0.5
		c-0.6,0-1.1,0.2-1.5,0.5c-0.4,0.3-0.7,0.7-0.9,1.2c-0.2,0.5-0.3,1-0.3,1.6c0,0.6,0.1,1.1,0.3,1.6c0.2,0.5,0.5,0.9,0.9,1.2
		C369.9,259.1,370.4,259.2,371,259.2z"/>
		<path class="st2" d="M377,260.2v-8.7h1.3v1.3h0.1c0.2-0.4,0.4-0.8,0.9-1c0.4-0.3,0.9-0.4,1.4-0.4c0.2,0,0.5,0,0.6,0.1
		c0.2,0.1,0.3,0.1,0.5,0.2l-0.5,1.1c-0.1,0-0.2-0.1-0.3-0.1c-0.1,0-0.3,0-0.4,0c-0.6,0-1.2,0.2-1.6,0.6c-0.4,0.4-0.6,0.9-0.6,1.5
		v5.5H377z"/>
		<path class="st2" d="M383.7,250.1c-0.3,0-0.5-0.1-0.7-0.3c-0.2-0.2-0.3-0.4-0.3-0.6c0-0.2,0.1-0.5,0.3-0.6c0.2-0.2,0.4-0.3,0.7-0.3
		c0.3,0,0.5,0.1,0.7,0.3c0.2,0.2,0.3,0.4,0.3,0.6c0,0.2-0.1,0.5-0.3,0.6S384,250.1,383.7,250.1z M383.1,260.2v-8.7h1.3v8.7H383.1z"
		/>
		<path class="st2" d="M390.6,251.6v1.1h-1.9v5.1c0,0.4,0.1,0.7,0.2,0.8c0.1,0.2,0.3,0.3,0.4,0.4c0.2,0.1,0.4,0.1,0.6,0.1
		c0.1,0,0.3,0,0.4,0s0.2,0,0.2,0l0.3,1.2c-0.1,0-0.2,0.1-0.4,0.1c-0.2,0-0.4,0.1-0.6,0.1c-0.4,0-0.7-0.1-1.1-0.2
		c-0.4-0.2-0.7-0.4-0.9-0.7c-0.2-0.3-0.4-0.7-0.4-1.3v-5.4h-1.3v-1.1h1.3v-2.1h1.3v2.1H390.6z"/>
		<path class="st2" d="M394.2,255v5.2h-1.3v-11.6h1.3v4.2h0.1c0.2-0.4,0.5-0.8,0.9-1.1c0.4-0.3,1-0.4,1.6-0.4c0.9,0,1.6,0.3,2.1,0.8
		c0.5,0.5,0.8,1.4,0.8,2.5v5.5h-1.3v-5.4c0-0.7-0.2-1.2-0.5-1.6c-0.4-0.4-0.8-0.6-1.5-0.6c-0.7,0-1.2,0.2-1.6,0.6
		C394.4,253.7,394.2,254.3,394.2,255z"/>
		<path class="st2" d="M402.3,260.2v-8.7h1.3v1.4h0.1c0.2-0.5,0.5-0.8,0.9-1.1s0.9-0.4,1.5-0.4c0.6,0,1,0.1,1.4,0.4
		c0.4,0.3,0.7,0.6,0.9,1.1h0.1c0.2-0.4,0.6-0.8,1-1.1c0.4-0.3,1-0.4,1.6-0.4c0.8,0,1.4,0.2,1.9,0.7c0.5,0.5,0.7,1.2,0.7,2.3v5.8
		h-1.3v-5.8c0-0.6-0.2-1.1-0.5-1.4c-0.3-0.3-0.8-0.4-1.2-0.4c-0.6,0-1.1,0.2-1.4,0.6c-0.3,0.4-0.5,0.8-0.5,1.4v5.6h-1.4v-5.9
		c0-0.5-0.2-0.9-0.5-1.2c-0.3-0.3-0.7-0.5-1.2-0.5c-0.3,0-0.7,0.1-1,0.3c-0.3,0.2-0.5,0.4-0.7,0.8c-0.2,0.3-0.3,0.7-0.3,1.1v5.4
		H402.3z"/>
		<path class="st2" d="M418.1,258.6l-0.1,0.6c-0.1,0.4-0.2,0.9-0.3,1.4c-0.1,0.5-0.3,1-0.4,1.4c-0.1,0.4-0.3,0.8-0.3,1h-1
		c0-0.2,0.1-0.6,0.2-1c0.1-0.4,0.2-0.8,0.2-1.3c0.1-0.5,0.1-1,0.2-1.5l0.1-0.6H418.1z"/>
		<path class="st2" d="M431.5,251.6c-0.1-0.6-0.3-1-0.8-1.3c-0.5-0.3-1.1-0.5-1.8-0.5c-0.8,0-1.4,0.2-1.9,0.5
		c-0.5,0.4-0.7,0.8-0.7,1.4c0,0.4,0.1,0.7,0.4,1c0.3,0.3,0.6,0.5,0.9,0.6s0.7,0.2,1,0.3l1.2,0.3c0.3,0.1,0.6,0.2,1,0.3
		c0.4,0.1,0.7,0.3,1.1,0.6c0.3,0.2,0.6,0.5,0.8,0.9c0.2,0.4,0.3,0.8,0.3,1.4c0,0.6-0.2,1.2-0.5,1.7c-0.3,0.5-0.8,0.9-1.4,1.2
		c-0.6,0.3-1.4,0.4-2.3,0.4c-1.2,0-2.2-0.3-3-0.9c-0.7-0.6-1.1-1.4-1.2-2.3h1.4c0,0.4,0.2,0.8,0.4,1.1c0.3,0.3,0.6,0.5,1,0.6
		c0.4,0.1,0.8,0.2,1.3,0.2c0.5,0,1-0.1,1.4-0.3c0.4-0.2,0.8-0.4,1-0.7c0.2-0.3,0.4-0.7,0.4-1.1c0-0.4-0.1-0.7-0.3-0.9
		c-0.2-0.2-0.5-0.4-0.8-0.6c-0.3-0.2-0.7-0.3-1.1-0.4l-1.4-0.4c-0.9-0.3-1.6-0.6-2.1-1.1c-0.5-0.5-0.8-1.1-0.8-1.9
		c0-0.6,0.2-1.2,0.5-1.7c0.4-0.5,0.8-0.9,1.4-1.1c0.6-0.3,1.3-0.4,2-0.4c0.7,0,1.4,0.1,2,0.4c0.6,0.3,1,0.6,1.4,1.1
		c0.3,0.5,0.5,1,0.5,1.6H431.5z"/>
		<path class="st2" d="M435.8,260.2h-1.5l4.2-11.6h1.4l4.2,11.6h-1.5l-1.2-3.3H437L435.8,260.2z M437.4,255.7h3.8l-1.9-5.2h-0.1
		L437.4,255.7z"/>
		<path class="st2" d="M446.1,248.7h1.7l3.9,9.6h0.1l3.9-9.6h1.7v11.6h-1.3v-8.8H456l-3.6,8.8h-1.3l-3.6-8.8h-0.1v8.8h-1.3V248.7z"/>
		<path class="st2" d="M468,260.4c-0.8,0-1.5-0.2-2.1-0.6c-0.6-0.4-1-0.9-1.4-1.6c-0.3-0.7-0.5-1.4-0.5-2.3c0-0.9,0.2-1.7,0.5-2.3
		c0.3-0.7,0.8-1.2,1.4-1.6c0.6-0.4,1.3-0.6,2.1-0.6c0.6,0,1.2,0.1,1.6,0.3c0.5,0.2,0.9,0.5,1.2,0.9c0.3,0.4,0.5,0.9,0.6,1.4h-1.3
		c-0.1-0.4-0.3-0.7-0.7-1.1c-0.3-0.3-0.8-0.5-1.4-0.5c-0.8,0-1.4,0.3-1.9,0.9c-0.5,0.6-0.7,1.4-0.7,2.4c0,1,0.2,1.8,0.7,2.4
		c0.5,0.6,1.1,0.9,1.9,0.9c0.5,0,1-0.1,1.3-0.4s0.6-0.6,0.7-1.1h1.3c-0.1,0.5-0.3,1-0.6,1.4c-0.3,0.4-0.7,0.7-1.2,1
		C469.2,260.3,468.7,260.4,468,260.4z"/>
		<path class="st2" d="M476.9,260.4c-0.8,0-1.5-0.2-2.1-0.6c-0.6-0.4-1-0.9-1.4-1.6c-0.3-0.7-0.5-1.5-0.5-2.3c0-0.9,0.2-1.7,0.5-2.4
		c0.3-0.7,0.8-1.2,1.4-1.6c0.6-0.4,1.3-0.6,2.1-0.6c0.8,0,1.5,0.2,2.1,0.6c0.6,0.4,1,0.9,1.4,1.6c0.3,0.7,0.5,1.5,0.5,2.4
		c0,0.9-0.2,1.7-0.5,2.3c-0.3,0.7-0.8,1.2-1.4,1.6S477.7,260.4,476.9,260.4z M476.9,259.2c0.6,0,1.1-0.2,1.5-0.5
		c0.4-0.3,0.7-0.7,0.9-1.2c0.2-0.5,0.3-1,0.3-1.6c0-0.6-0.1-1.1-0.3-1.6c-0.2-0.5-0.5-0.9-0.9-1.2c-0.4-0.3-0.9-0.5-1.5-0.5
		c-0.6,0-1.1,0.2-1.5,0.5c-0.4,0.3-0.7,0.7-0.9,1.2c-0.2,0.5-0.3,1-0.3,1.6c0,0.6,0.1,1.1,0.3,1.6c0.2,0.5,0.5,0.9,0.9,1.2
		C475.8,259.1,476.3,259.2,476.9,259.2z"/>
		<path class="st2" d="M484.2,255v5.2h-1.3v-8.7h1.3v1.4h0.1c0.2-0.4,0.5-0.8,0.9-1.1s0.9-0.4,1.6-0.4c0.9,0,1.6,0.3,2.1,0.8
		c0.5,0.5,0.8,1.4,0.8,2.5v5.5h-1.3v-5.4c0-0.7-0.2-1.2-0.5-1.6c-0.4-0.4-0.8-0.6-1.5-0.6c-0.6,0-1.2,0.2-1.6,0.6
		C484.4,253.7,484.2,254.3,484.2,255z"/>
		<path class="st2" d="M498.9,251.6l-3.2,8.7h-1.4l-3.2-8.7h1.4l2.4,6.9h0.1l2.4-6.9H498.9z"/>
		<path class="st2" d="M504,260.4c-0.8,0-1.6-0.2-2.2-0.6c-0.6-0.4-1.1-0.9-1.4-1.6c-0.3-0.7-0.5-1.4-0.5-2.3c0-0.9,0.2-1.7,0.5-2.4
		c0.3-0.7,0.8-1.2,1.4-1.6c0.6-0.4,1.3-0.6,2.1-0.6c0.5,0,0.9,0.1,1.3,0.2c0.4,0.2,0.8,0.4,1.2,0.7c0.4,0.3,0.6,0.8,0.9,1.3
		c0.2,0.6,0.3,1.2,0.3,2v0.6h-6.3c0,0.9,0.3,1.6,0.8,2.1c0.5,0.5,1.1,0.7,1.9,0.7c0.5,0,1-0.1,1.3-0.3c0.4-0.2,0.6-0.6,0.8-1
		l1.3,0.4c-0.2,0.7-0.6,1.2-1.2,1.6C505.6,260.2,504.9,260.4,504,260.4z M501.3,255.2h4.9c0-0.7-0.2-1.3-0.6-1.8
		c-0.4-0.5-1-0.7-1.7-0.7c-0.5,0-0.9,0.1-1.3,0.4c-0.4,0.2-0.7,0.6-0.9,0.9C501.4,254.3,501.3,254.7,501.3,255.2z"/>
		<path class="st2" d="M509.6,260.2v-8.7h1.3v1.3h0.1c0.2-0.4,0.4-0.8,0.9-1c0.4-0.3,0.9-0.4,1.4-0.4c0.2,0,0.5,0,0.6,0.1
		c0.2,0.1,0.3,0.1,0.5,0.2l-0.5,1.1c-0.1,0-0.2-0.1-0.3-0.1c-0.1,0-0.3,0-0.4,0c-0.6,0-1.2,0.2-1.6,0.6c-0.4,0.4-0.6,0.9-0.6,1.5
		v5.5H509.6z"/>
		<path class="st2" d="M521.9,253.5l-1.2,0.3c-0.1-0.3-0.3-0.6-0.6-0.8c-0.3-0.3-0.7-0.4-1.3-0.4c-0.5,0-1,0.1-1.3,0.4
		c-0.4,0.2-0.5,0.6-0.5,0.9c0,0.3,0.1,0.6,0.4,0.8c0.2,0.2,0.6,0.4,1.1,0.5l1.3,0.3c1.5,0.4,2.3,1.2,2.3,2.3c0,0.5-0.1,0.9-0.4,1.3
		c-0.3,0.4-0.7,0.7-1.2,0.9c-0.5,0.2-1.1,0.3-1.8,0.3c-0.9,0-1.6-0.2-2.2-0.6c-0.6-0.4-0.9-0.9-1.1-1.7l1.3-0.3
		c0.2,0.9,0.9,1.4,2,1.4c0.6,0,1.1-0.1,1.5-0.4c0.4-0.3,0.6-0.6,0.6-1c0-0.6-0.4-1-1.3-1.2l-1.4-0.3c-0.8-0.2-1.4-0.5-1.7-0.9
		c-0.4-0.4-0.6-0.9-0.6-1.5c0-0.5,0.1-0.9,0.4-1.3c0.3-0.4,0.7-0.7,1.1-0.9c0.5-0.2,1-0.3,1.6-0.3c0.9,0,1.5,0.2,2,0.6
		C521.3,252.4,521.6,252.9,521.9,253.5z"/>
		<path class="st2" d="M524.7,250.1c-0.3,0-0.5-0.1-0.7-0.3c-0.2-0.2-0.3-0.4-0.3-0.6c0-0.2,0.1-0.5,0.3-0.6c0.2-0.2,0.4-0.3,0.7-0.3
		c0.3,0,0.5,0.1,0.7,0.3c0.2,0.2,0.3,0.4,0.3,0.6c0,0.2-0.1,0.5-0.3,0.6C525.2,250,525,250.1,524.7,250.1z M524,260.2v-8.7h1.3v8.7
		H524z"/>
		<path class="st2" d="M531.3,260.4c-0.8,0-1.5-0.2-2.1-0.6c-0.6-0.4-1-0.9-1.4-1.6c-0.3-0.7-0.5-1.5-0.5-2.3c0-0.9,0.2-1.7,0.5-2.4
		c0.3-0.7,0.8-1.2,1.4-1.6c0.6-0.4,1.3-0.6,2.1-0.6c0.8,0,1.5,0.2,2.1,0.6c0.6,0.4,1,0.9,1.4,1.6c0.3,0.7,0.5,1.5,0.5,2.4
		c0,0.9-0.2,1.7-0.5,2.3c-0.3,0.7-0.8,1.2-1.4,1.6C532.8,260.2,532.1,260.4,531.3,260.4z M531.3,259.2c0.6,0,1.1-0.2,1.5-0.5
		c0.4-0.3,0.7-0.7,0.9-1.2c0.2-0.5,0.3-1,0.3-1.6c0-0.6-0.1-1.1-0.3-1.6c-0.2-0.5-0.5-0.9-0.9-1.2c-0.4-0.3-0.9-0.5-1.5-0.5
		c-0.6,0-1.1,0.2-1.5,0.5c-0.4,0.3-0.7,0.7-0.9,1.2c-0.2,0.5-0.3,1-0.3,1.6c0,0.6,0.1,1.1,0.3,1.6c0.2,0.5,0.5,0.9,0.9,1.2
		C530.2,259.1,530.7,259.2,531.3,259.2z"/>
		<path class="st2" d="M538.6,255v5.2h-1.3v-8.7h1.3v1.4h0.1c0.2-0.4,0.5-0.8,0.9-1.1s0.9-0.4,1.6-0.4c0.9,0,1.6,0.3,2.1,0.8
		c0.5,0.5,0.8,1.4,0.8,2.5v5.5h-1.3v-5.4c0-0.7-0.2-1.2-0.5-1.6c-0.4-0.4-0.8-0.6-1.5-0.6c-0.6,0-1.2,0.2-1.6,0.6
		C538.8,253.7,538.6,254.3,538.6,255z"/>
		<path class="st2" d="M552.7,253.5l-1.2,0.3c-0.1-0.3-0.3-0.6-0.6-0.8c-0.3-0.3-0.7-0.4-1.3-0.4c-0.5,0-1,0.1-1.3,0.4
		c-0.4,0.2-0.5,0.6-0.5,0.9c0,0.3,0.1,0.6,0.4,0.8c0.2,0.2,0.6,0.4,1.1,0.5l1.3,0.3c1.5,0.4,2.3,1.2,2.3,2.3c0,0.5-0.1,0.9-0.4,1.3
		c-0.3,0.4-0.7,0.7-1.2,0.9c-0.5,0.2-1.1,0.3-1.8,0.3c-0.9,0-1.6-0.2-2.2-0.6c-0.6-0.4-0.9-0.9-1.1-1.7l1.3-0.3
		c0.2,0.9,0.9,1.4,2,1.4c0.6,0,1.1-0.1,1.5-0.4c0.4-0.3,0.5-0.6,0.5-1c0-0.6-0.4-1-1.3-1.2l-1.4-0.3c-0.8-0.2-1.4-0.5-1.7-0.9
		c-0.4-0.4-0.6-0.9-0.6-1.5c0-0.5,0.1-0.9,0.4-1.3c0.3-0.4,0.7-0.7,1.1-0.9c0.5-0.2,1-0.3,1.6-0.3c0.9,0,1.5,0.2,2,0.6
		C552.2,252.4,552.5,252.9,552.7,253.5z"/>
		<path class="st2" d="M563.2,251.6v1.1h-1.9v7.5h-1.3v-7.5h-1.4v-1.1h1.4v-1.2c0-0.5,0.1-0.9,0.3-1.2c0.2-0.3,0.5-0.6,0.9-0.7
		c0.4-0.2,0.8-0.2,1.2-0.2c0.3,0,0.6,0,0.8,0.1c0.2,0.1,0.4,0.1,0.5,0.1l-0.4,1.2c-0.1,0-0.2-0.1-0.3-0.1c-0.1,0-0.3-0.1-0.5-0.1
		c-0.4,0-0.8,0.1-1,0.3c-0.2,0.2-0.3,0.5-0.3,1v0.9H563.2z"/>
		<path class="st2" d="M568.2,260.4c-0.8,0-1.5-0.2-2.1-0.6c-0.6-0.4-1-0.9-1.4-1.6c-0.3-0.7-0.5-1.5-0.5-2.3c0-0.9,0.2-1.7,0.5-2.4
		c0.3-0.7,0.8-1.2,1.4-1.6c0.6-0.4,1.3-0.6,2.1-0.6c0.8,0,1.5,0.2,2.1,0.6c0.6,0.4,1,0.9,1.4,1.6c0.3,0.7,0.5,1.5,0.5,2.4
		c0,0.9-0.2,1.7-0.5,2.3c-0.3,0.7-0.8,1.2-1.4,1.6C569.7,260.2,569,260.4,568.2,260.4z M568.2,259.2c0.6,0,1.1-0.2,1.5-0.5
		c0.4-0.3,0.7-0.7,0.9-1.2c0.2-0.5,0.3-1,0.3-1.6c0-0.6-0.1-1.1-0.3-1.6c-0.2-0.5-0.5-0.9-0.9-1.2c-0.4-0.3-0.9-0.5-1.5-0.5
		c-0.6,0-1.1,0.2-1.5,0.5c-0.4,0.3-0.7,0.7-0.9,1.2c-0.2,0.5-0.3,1-0.3,1.6c0,0.6,0.1,1.1,0.3,1.6c0.2,0.5,0.5,0.9,0.9,1.2
		C567.2,259.1,567.7,259.2,568.2,259.2z"/>
		<path class="st2" d="M574.2,260.2v-8.7h1.3v1.3h0.1c0.2-0.4,0.4-0.8,0.9-1c0.4-0.3,0.9-0.4,1.4-0.4c0.2,0,0.5,0,0.6,0.1
		c0.2,0.1,0.3,0.1,0.5,0.2l-0.5,1.1c-0.1,0-0.2-0.1-0.3-0.1c-0.1,0-0.3,0-0.4,0c-0.6,0-1.2,0.2-1.6,0.6c-0.4,0.4-0.6,0.9-0.6,1.5
		v5.5H574.2z"/>
		<path class="st2" d="M588.3,260.4c-0.8,0-1.5-0.2-2.1-0.6c-0.6-0.4-1-0.9-1.4-1.6c-0.3-0.7-0.5-1.4-0.5-2.3c0-0.9,0.2-1.7,0.5-2.3
		c0.3-0.7,0.8-1.2,1.4-1.6c0.6-0.4,1.3-0.6,2.1-0.6c0.6,0,1.2,0.1,1.6,0.3c0.5,0.2,0.9,0.5,1.2,0.9c0.3,0.4,0.5,0.9,0.6,1.4h-1.3
		c-0.1-0.4-0.3-0.7-0.7-1.1c-0.3-0.3-0.8-0.5-1.4-0.5c-0.8,0-1.4,0.3-1.9,0.9c-0.5,0.6-0.7,1.4-0.7,2.4c0,1,0.2,1.8,0.7,2.4
		c0.5,0.6,1.1,0.9,1.9,0.9c0.5,0,1-0.1,1.3-0.4c0.4-0.3,0.6-0.6,0.7-1.1h1.3c-0.1,0.5-0.3,1-0.6,1.4c-0.3,0.4-0.7,0.7-1.2,1
		C589.5,260.3,588.9,260.4,588.3,260.4z"/>
		<path class="st2" d="M595,248.7v11.6h-1.3v-11.6H595z"/>
		<path class="st2" d="M600,260.4c-0.5,0-1-0.1-1.5-0.3c-0.4-0.2-0.8-0.5-1.1-0.9c-0.3-0.4-0.4-0.9-0.4-1.4c0-0.5,0.1-0.9,0.3-1.2
		c0.2-0.3,0.5-0.6,0.8-0.7c0.3-0.2,0.7-0.3,1.1-0.4c0.4-0.1,0.8-0.2,1.2-0.2c0.5-0.1,1-0.1,1.3-0.2c0.3,0,0.6-0.1,0.7-0.2
		s0.2-0.2,0.2-0.5c0-0.6-0.2-1-0.5-1.3c-0.3-0.3-0.8-0.5-1.4-0.5c-0.6,0-1.1,0.1-1.5,0.4s-0.6,0.6-0.8,0.9l-1.3-0.5
		c0.2-0.5,0.5-0.9,0.9-1.2c0.4-0.3,0.8-0.5,1.2-0.6c0.4-0.1,0.9-0.2,1.3-0.2c0.3,0,0.6,0,1,0.1c0.4,0.1,0.7,0.2,1.1,0.4
		c0.3,0.2,0.6,0.5,0.8,0.9c0.2,0.4,0.3,1,0.3,1.6v5.7h-1.3v-1.2h-0.1c-0.1,0.2-0.2,0.4-0.5,0.6c-0.2,0.2-0.5,0.4-0.8,0.5
		C600.9,260.4,600.5,260.4,600,260.4z M600.2,259.2c0.5,0,1-0.1,1.3-0.3c0.4-0.2,0.6-0.5,0.8-0.8c0.2-0.3,0.3-0.7,0.3-1v-1.2
		c-0.1,0.1-0.2,0.1-0.4,0.2c-0.2,0.1-0.4,0.1-0.7,0.1c-0.2,0-0.5,0.1-0.7,0.1c-0.2,0-0.4,0.1-0.6,0.1c-0.3,0-0.7,0.1-1,0.2
		c-0.3,0.1-0.5,0.2-0.7,0.4c-0.2,0.2-0.3,0.5-0.3,0.8c0,0.5,0.2,0.8,0.5,1C599.2,259.1,599.6,259.2,600.2,259.2z"/>
		<path class="st2" d="M612.5,253.5l-1.2,0.3c-0.1-0.3-0.3-0.6-0.6-0.8s-0.7-0.4-1.3-0.4c-0.5,0-1,0.1-1.3,0.4
		c-0.4,0.2-0.5,0.6-0.5,0.9c0,0.3,0.1,0.6,0.4,0.8c0.2,0.2,0.6,0.4,1.1,0.5l1.3,0.3c1.5,0.4,2.3,1.2,2.3,2.3c0,0.5-0.1,0.9-0.4,1.3
		c-0.3,0.4-0.7,0.7-1.2,0.9c-0.5,0.2-1.1,0.3-1.8,0.3c-0.9,0-1.6-0.2-2.2-0.6c-0.6-0.4-0.9-0.9-1.1-1.7l1.3-0.3
		c0.2,0.9,0.9,1.4,2,1.4c0.6,0,1.1-0.1,1.5-0.4c0.4-0.3,0.5-0.6,0.5-1c0-0.6-0.4-1-1.3-1.2l-1.4-0.3c-0.8-0.2-1.4-0.5-1.7-0.9
		c-0.4-0.4-0.6-0.9-0.6-1.5c0-0.5,0.1-0.9,0.4-1.3c0.3-0.4,0.7-0.7,1.1-0.9c0.5-0.2,1-0.3,1.6-0.3c0.9,0,1.5,0.2,2,0.6
		C612,252.4,612.3,252.9,612.5,253.5z"/>
		<path class="st2" d="M620.8,253.5l-1.2,0.3c-0.1-0.3-0.3-0.6-0.6-0.8s-0.7-0.4-1.3-0.4c-0.5,0-1,0.1-1.3,0.4
		c-0.4,0.2-0.5,0.6-0.5,0.9c0,0.3,0.1,0.6,0.4,0.8c0.2,0.2,0.6,0.4,1.1,0.5l1.3,0.3c1.5,0.4,2.3,1.2,2.3,2.3c0,0.5-0.1,0.9-0.4,1.3
		c-0.3,0.4-0.7,0.7-1.2,0.9c-0.5,0.2-1.1,0.3-1.8,0.3c-0.9,0-1.6-0.2-2.2-0.6c-0.6-0.4-0.9-0.9-1.1-1.7l1.3-0.3
		c0.2,0.9,0.9,1.4,2,1.4c0.6,0,1.1-0.1,1.5-0.4c0.4-0.3,0.5-0.6,0.5-1c0-0.6-0.4-1-1.3-1.2l-1.4-0.3c-0.8-0.2-1.4-0.5-1.7-0.9
		c-0.4-0.4-0.6-0.9-0.6-1.5c0-0.5,0.1-0.9,0.4-1.3c0.3-0.4,0.7-0.7,1.1-0.9c0.5-0.2,1-0.3,1.6-0.3c0.9,0,1.5,0.2,2,0.6
		C620.3,252.4,620.6,252.9,620.8,253.5z"/>
		<path class="st2" d="M626.6,260.4c-0.8,0-1.6-0.2-2.2-0.6c-0.6-0.4-1.1-0.9-1.4-1.6c-0.3-0.7-0.5-1.4-0.5-2.3
		c0-0.9,0.2-1.7,0.5-2.4c0.3-0.7,0.8-1.2,1.4-1.6c0.6-0.4,1.3-0.6,2.1-0.6c0.5,0,0.9,0.1,1.3,0.2c0.4,0.2,0.8,0.4,1.2,0.7
		c0.4,0.3,0.6,0.8,0.9,1.3c0.2,0.6,0.3,1.2,0.3,2v0.6h-6.3c0,0.9,0.3,1.6,0.8,2.1c0.5,0.5,1.1,0.7,1.9,0.7c0.5,0,1-0.1,1.3-0.3
		c0.4-0.2,0.6-0.6,0.8-1l1.3,0.4c-0.2,0.7-0.6,1.2-1.2,1.6C628.2,260.2,627.5,260.4,626.6,260.4z M623.9,255.2h4.9
		c0-0.7-0.2-1.3-0.6-1.8c-0.4-0.5-1-0.7-1.7-0.7c-0.5,0-0.9,0.1-1.3,0.4c-0.4,0.2-0.7,0.6-0.9,0.9
		C624.1,254.3,623.9,254.7,623.9,255.2z"/>
		<path class="st2" d="M638.4,253.5l-1.2,0.3c-0.1-0.3-0.3-0.6-0.6-0.8s-0.7-0.4-1.3-0.4c-0.5,0-1,0.1-1.3,0.4
		c-0.4,0.2-0.5,0.6-0.5,0.9c0,0.3,0.1,0.6,0.4,0.8c0.2,0.2,0.6,0.4,1.1,0.5l1.3,0.3c1.5,0.4,2.3,1.2,2.3,2.3c0,0.5-0.1,0.9-0.4,1.3
		c-0.3,0.4-0.7,0.7-1.2,0.9c-0.5,0.2-1.1,0.3-1.8,0.3c-0.9,0-1.6-0.2-2.2-0.6c-0.6-0.4-0.9-0.9-1.1-1.7l1.3-0.3
		c0.2,0.9,0.9,1.4,2,1.4c0.6,0,1.1-0.1,1.5-0.4c0.4-0.3,0.5-0.6,0.5-1c0-0.6-0.4-1-1.3-1.2l-1.4-0.3c-0.8-0.2-1.4-0.5-1.7-0.9
		c-0.4-0.4-0.6-0.9-0.6-1.5c0-0.5,0.1-0.9,0.4-1.3c0.3-0.4,0.7-0.7,1.1-0.9c0.5-0.2,1-0.3,1.6-0.3c0.9,0,1.5,0.2,2,0.6
		C637.8,252.4,638.2,252.9,638.4,253.5z"/>
		<path class="st2" d="M642.5,258.6l-0.1,0.6c-0.1,0.4-0.2,0.9-0.3,1.4c-0.1,0.5-0.3,1-0.4,1.4c-0.1,0.4-0.3,0.8-0.3,1h-1
		c0-0.2,0.1-0.6,0.2-1c0.1-0.4,0.2-0.8,0.2-1.3c0.1-0.5,0.1-1,0.2-1.5l0.1-0.6H642.5z"/>
		<path class="st2" d="M658.8,248.7v11.6h-1.4l-6.3-9.1H651v9.1h-1.4v-11.6h1.4l6.3,9.1h0.1v-9.1H658.8z"/>
		<path class="st2" d="M665.1,260.4c-0.8,0-1.6-0.2-2.2-0.6c-0.6-0.4-1.1-0.9-1.4-1.6c-0.3-0.7-0.5-1.4-0.5-2.3
		c0-0.9,0.2-1.7,0.5-2.4c0.3-0.7,0.8-1.2,1.4-1.6c0.6-0.4,1.3-0.6,2.1-0.6c0.5,0,0.9,0.1,1.3,0.2c0.4,0.2,0.8,0.4,1.2,0.7
		c0.4,0.3,0.6,0.8,0.9,1.3c0.2,0.6,0.3,1.2,0.3,2v0.6h-6.3c0,0.9,0.3,1.6,0.8,2.1c0.5,0.5,1.1,0.7,1.9,0.7c0.5,0,1-0.1,1.3-0.3
		c0.4-0.2,0.6-0.6,0.8-1l1.3,0.4c-0.2,0.7-0.6,1.2-1.2,1.6C666.7,260.2,665.9,260.4,665.1,260.4z M662.4,255.2h4.9
		c0-0.7-0.2-1.3-0.6-1.8c-0.4-0.5-1-0.7-1.7-0.7c-0.5,0-0.9,0.1-1.3,0.4c-0.4,0.2-0.7,0.6-0.9,0.9
		C662.5,254.3,662.4,254.7,662.4,255.2z"/>
		<path class="st2" d="M672.7,260.2l-2.6-8.7h1.4l1.9,6.6h0.1l1.9-6.6h1.4l1.8,6.6h0.1l1.9-6.6h1.4l-2.6,8.7h-1.3l-1.9-6.7h-0.1
		l-1.9,6.7H672.7z"/>
		<path class="st2" d="M688.3,260.2v-11.6h1.4v5.7h0.1l5.2-5.7h1.8l-4.9,5.2l4.9,6.3h-1.7l-4-5.4l-1.4,1.6v3.7H688.3z"/>
		<path class="st2" d="M701.3,260.4c-0.8,0-1.5-0.2-2.1-0.6c-0.6-0.4-1-0.9-1.4-1.6c-0.3-0.7-0.5-1.5-0.5-2.3c0-0.9,0.2-1.7,0.5-2.4
		c0.3-0.7,0.8-1.2,1.4-1.6c0.6-0.4,1.3-0.6,2.1-0.6c0.8,0,1.5,0.2,2.1,0.6c0.6,0.4,1,0.9,1.4,1.6c0.3,0.7,0.5,1.5,0.5,2.4
		c0,0.9-0.2,1.7-0.5,2.3c-0.3,0.7-0.8,1.2-1.4,1.6S702.1,260.4,701.3,260.4z M701.3,259.2c0.6,0,1.1-0.2,1.5-0.5
		c0.4-0.3,0.7-0.7,0.9-1.2c0.2-0.5,0.3-1,0.3-1.6c0-0.6-0.1-1.1-0.3-1.6c-0.2-0.5-0.5-0.9-0.9-1.2c-0.4-0.3-0.9-0.5-1.5-0.5
		c-0.6,0-1.1,0.2-1.5,0.5c-0.4,0.3-0.7,0.7-0.9,1.2c-0.2,0.5-0.3,1-0.3,1.6c0,0.6,0.1,1.1,0.3,1.6c0.2,0.5,0.5,0.9,0.9,1.2
		C700.2,259.1,700.7,259.2,701.3,259.2z"/>
		<path class="st2" d="M711.1,251.6v1.1h-1.9v5.1c0,0.4,0.1,0.7,0.2,0.8c0.1,0.2,0.3,0.3,0.4,0.4c0.2,0.1,0.4,0.1,0.6,0.1
		c0.1,0,0.3,0,0.4,0s0.2,0,0.2,0l0.3,1.2c-0.1,0-0.2,0.1-0.4,0.1c-0.2,0-0.4,0.1-0.6,0.1c-0.4,0-0.7-0.1-1.1-0.2
		c-0.4-0.2-0.7-0.4-0.9-0.7c-0.2-0.3-0.4-0.7-0.4-1.3v-5.4h-1.3v-1.1h1.3v-2.1h1.3v2.1H711.1z"/>
		<path class="st2" d="M714.7,248.7v11.6h-1.3v-11.6H714.7z"/>
		<path class="st2" d="M717.8,250.1c-0.3,0-0.5-0.1-0.7-0.3c-0.2-0.2-0.3-0.4-0.3-0.6c0-0.2,0.1-0.5,0.3-0.6c0.2-0.2,0.4-0.3,0.7-0.3
		s0.5,0.1,0.7,0.3c0.2,0.2,0.3,0.4,0.3,0.6c0,0.2-0.1,0.5-0.3,0.6C718.3,250,718,250.1,717.8,250.1z M717.1,260.2v-8.7h1.3v8.7
		H717.1z"/>
		<path class="st2" d="M722.2,255v5.2h-1.3v-8.7h1.3v1.4h0.1c0.2-0.4,0.5-0.8,0.9-1.1c0.4-0.3,0.9-0.4,1.6-0.4c0.9,0,1.6,0.3,2.1,0.8
		c0.5,0.5,0.8,1.4,0.8,2.5v5.5h-1.3v-5.4c0-0.7-0.2-1.2-0.5-1.6c-0.4-0.4-0.8-0.6-1.5-0.6c-0.6,0-1.2,0.2-1.6,0.6
		C722.4,253.7,722.2,254.3,722.2,255z"/>
		<path class="st2" d="M734.3,248.1l-3.7,13.8h-1.2l3.7-13.8H734.3z"/>
		<path class="st2" d="M739.4,256.9v-8.3h1.4v8.3c0,1.1-0.3,2-0.9,2.6c-0.6,0.6-1.4,0.9-2.4,0.9c-0.6,0-1.2-0.1-1.7-0.3
		c-0.5-0.2-0.9-0.6-1.2-1c-0.3-0.4-0.4-0.9-0.4-1.5h1.4c0,0.5,0.2,0.9,0.5,1.2c0.4,0.3,0.8,0.4,1.4,0.4c0.6,0,1.1-0.2,1.4-0.6
		C739.3,258.2,739.4,257.6,739.4,256.9z"/>
		<path class="st2" d="M750,251.6c-0.1-0.6-0.3-1-0.8-1.3c-0.5-0.3-1.1-0.5-1.8-0.5c-0.8,0-1.4,0.2-1.9,0.5s-0.7,0.8-0.7,1.4
		c0,0.4,0.1,0.7,0.4,1c0.3,0.3,0.6,0.5,0.9,0.6c0.3,0.1,0.7,0.2,1,0.3l1.2,0.3c0.3,0.1,0.6,0.2,1,0.3c0.4,0.1,0.7,0.3,1.1,0.6
		c0.3,0.2,0.6,0.5,0.8,0.9c0.2,0.4,0.3,0.8,0.3,1.4c0,0.6-0.2,1.2-0.5,1.7c-0.3,0.5-0.8,0.9-1.4,1.2c-0.6,0.3-1.4,0.4-2.3,0.4
		c-1.2,0-2.2-0.3-3-0.9c-0.7-0.6-1.1-1.4-1.2-2.3h1.4c0,0.4,0.2,0.8,0.4,1.1c0.3,0.3,0.6,0.5,1,0.6c0.4,0.1,0.8,0.2,1.3,0.2
		c0.5,0,1-0.1,1.4-0.3s0.8-0.4,1-0.7c0.2-0.3,0.4-0.7,0.4-1.1c0-0.4-0.1-0.7-0.3-0.9c-0.2-0.2-0.5-0.4-0.8-0.6
		c-0.3-0.2-0.7-0.3-1.1-0.4l-1.4-0.4c-0.9-0.3-1.6-0.6-2.1-1.1c-0.5-0.5-0.8-1.1-0.8-1.9c0-0.6,0.2-1.2,0.5-1.7
		c0.4-0.5,0.8-0.9,1.4-1.1c0.6-0.3,1.3-0.4,2-0.4c0.7,0,1.4,0.1,2,0.4c0.6,0.3,1,0.6,1.4,1.1c0.3,0.5,0.5,1,0.5,1.6H750z"/>
		<path class="st2" d="M758.1,260.2v-11.6h1.3v4.3h0.1c0.1-0.1,0.2-0.3,0.4-0.6c0.2-0.2,0.4-0.4,0.8-0.6c0.3-0.2,0.8-0.3,1.3-0.3
		c0.7,0,1.4,0.2,1.9,0.5s1,0.9,1.3,1.6c0.3,0.7,0.5,1.5,0.5,2.4c0,0.9-0.2,1.7-0.5,2.4c-0.3,0.7-0.7,1.2-1.3,1.6
		c-0.6,0.4-1.2,0.5-1.9,0.5c-0.6,0-1-0.1-1.3-0.3c-0.3-0.2-0.6-0.4-0.8-0.6c-0.2-0.2-0.3-0.4-0.4-0.6h-0.2v1.3H758.1z M759.4,255.9
		c0,1,0.2,1.8,0.6,2.4c0.4,0.6,1,0.9,1.8,0.9c0.6,0,1-0.1,1.4-0.4c0.4-0.3,0.7-0.7,0.8-1.2c0.2-0.5,0.3-1.1,0.3-1.7
		c0-0.6-0.1-1.2-0.3-1.7c-0.2-0.5-0.5-0.9-0.8-1.2c-0.4-0.3-0.8-0.4-1.4-0.4c-0.8,0-1.4,0.3-1.9,0.9
		C759.6,254.1,759.4,254.9,759.4,255.9z"/>
		<path class="st2" d="M770.3,260.4c-0.5,0-1-0.1-1.5-0.3c-0.4-0.2-0.8-0.5-1.1-0.9c-0.3-0.4-0.4-0.9-0.4-1.4c0-0.5,0.1-0.9,0.3-1.2
		c0.2-0.3,0.5-0.6,0.8-0.7c0.3-0.2,0.7-0.3,1.1-0.4c0.4-0.1,0.8-0.2,1.2-0.2c0.5-0.1,1-0.1,1.3-0.2c0.3,0,0.6-0.1,0.7-0.2
		c0.2-0.1,0.2-0.2,0.2-0.5c0-0.6-0.2-1-0.5-1.3c-0.3-0.3-0.8-0.5-1.4-0.5c-0.6,0-1.1,0.1-1.5,0.4s-0.6,0.6-0.8,0.9l-1.3-0.5
		c0.2-0.5,0.5-0.9,0.9-1.2c0.4-0.3,0.8-0.5,1.2-0.6c0.4-0.1,0.9-0.2,1.3-0.2c0.3,0,0.6,0,1,0.1c0.4,0.1,0.7,0.2,1.1,0.4
		c0.3,0.2,0.6,0.5,0.8,0.9c0.2,0.4,0.3,1,0.3,1.6v5.7H773v-1.2h-0.1c-0.1,0.2-0.2,0.4-0.5,0.6c-0.2,0.2-0.5,0.4-0.8,0.5
		C771.2,260.4,770.8,260.4,770.3,260.4z M770.5,259.2c0.5,0,1-0.1,1.3-0.3c0.4-0.2,0.6-0.5,0.8-0.8c0.2-0.3,0.3-0.7,0.3-1v-1.2
		c-0.1,0.1-0.2,0.1-0.4,0.2c-0.2,0.1-0.4,0.1-0.7,0.1c-0.2,0-0.5,0.1-0.7,0.1c-0.2,0-0.4,0.1-0.6,0.1c-0.3,0-0.7,0.1-1,0.2
		c-0.3,0.1-0.5,0.2-0.7,0.4c-0.2,0.2-0.3,0.5-0.3,0.8c0,0.5,0.2,0.8,0.5,1C769.5,259.1,770,259.2,770.5,259.2z"/>
		<path class="st2" d="M780.2,260.4c-0.8,0-1.5-0.2-2.1-0.6c-0.6-0.4-1-0.9-1.4-1.6c-0.3-0.7-0.5-1.4-0.5-2.3c0-0.9,0.2-1.7,0.5-2.3
		c0.3-0.7,0.8-1.2,1.4-1.6c0.6-0.4,1.3-0.6,2.1-0.6c0.6,0,1.2,0.1,1.6,0.3c0.5,0.2,0.9,0.5,1.2,0.9c0.3,0.4,0.5,0.9,0.6,1.4h-1.3
		c-0.1-0.4-0.3-0.7-0.7-1.1c-0.3-0.3-0.8-0.5-1.4-0.5c-0.8,0-1.4,0.3-1.9,0.9c-0.5,0.6-0.7,1.4-0.7,2.4c0,1,0.2,1.8,0.7,2.4
		c0.5,0.6,1.1,0.9,1.9,0.9c0.5,0,1-0.1,1.3-0.4s0.6-0.6,0.7-1.1h1.3c-0.1,0.5-0.3,1-0.6,1.4c-0.3,0.4-0.7,0.7-1.2,1
		C781.4,260.3,780.9,260.4,780.2,260.4z"/>
		<path class="st2" d="M785.6,260.2v-11.6h1.3v6.7h0.2l3.8-3.9h1.6l-3.7,3.7l3.9,5h-1.7l-3.2-4.1l-0.9,0.9v3.2H785.6z"/>
		<path class="st2" d="M797.5,260.4c-0.8,0-1.6-0.2-2.2-0.6c-0.6-0.4-1.1-0.9-1.4-1.6c-0.3-0.7-0.5-1.4-0.5-2.3
		c0-0.9,0.2-1.7,0.5-2.4c0.3-0.7,0.8-1.2,1.4-1.6c0.6-0.4,1.3-0.6,2.1-0.6c0.5,0,0.9,0.1,1.3,0.2c0.4,0.2,0.8,0.4,1.2,0.7
		c0.4,0.3,0.6,0.8,0.9,1.3c0.2,0.6,0.3,1.2,0.3,2v0.6h-6.3c0,0.9,0.3,1.6,0.8,2.1c0.5,0.5,1.1,0.7,1.9,0.7c0.5,0,1-0.1,1.3-0.3
		c0.4-0.2,0.6-0.6,0.8-1l1.3,0.4c-0.2,0.7-0.6,1.2-1.2,1.6C799.1,260.2,798.4,260.4,797.5,260.4z M794.8,255.2h4.9
		c0-0.7-0.2-1.3-0.6-1.8c-0.4-0.5-1-0.7-1.7-0.7c-0.5,0-0.9,0.1-1.3,0.4c-0.4,0.2-0.7,0.6-0.9,0.9
		C795,254.3,794.8,254.7,794.8,255.2z"/>
		<path class="st2" d="M804.5,255v5.2h-1.3v-8.7h1.3v1.4h0.1c0.2-0.4,0.5-0.8,0.9-1.1s0.9-0.4,1.6-0.4c0.9,0,1.6,0.3,2.1,0.8
		c0.5,0.5,0.8,1.4,0.8,2.5v5.5h-1.3v-5.4c0-0.7-0.2-1.2-0.5-1.6c-0.4-0.4-0.8-0.6-1.5-0.6c-0.6,0-1.2,0.2-1.6,0.6
		C804.7,253.7,804.5,254.3,804.5,255z"/>
		<path class="st2" d="M818.4,260.2v-1.3h-0.2c-0.1,0.2-0.2,0.4-0.4,0.6c-0.2,0.2-0.4,0.5-0.8,0.6c-0.3,0.2-0.8,0.3-1.3,0.3
		c-0.7,0-1.4-0.2-1.9-0.5c-0.6-0.4-1-0.9-1.3-1.6c-0.3-0.7-0.5-1.5-0.5-2.4c0-0.9,0.2-1.7,0.5-2.4c0.3-0.7,0.7-1.2,1.3-1.6
		s1.2-0.5,1.9-0.5c0.6,0,1,0.1,1.3,0.3c0.3,0.2,0.6,0.4,0.8,0.6c0.2,0.2,0.3,0.4,0.4,0.6h0.1v-4.3h1.3v11.6H818.4z M817.7,253.5
		c-0.4-0.6-1-0.9-1.9-0.9c-0.6,0-1,0.1-1.4,0.4c-0.4,0.3-0.7,0.7-0.8,1.2c-0.2,0.5-0.3,1-0.3,1.7c0,0.6,0.1,1.2,0.3,1.7
		c0.2,0.5,0.5,0.9,0.8,1.2c0.4,0.3,0.8,0.4,1.4,0.4c0.8,0,1.4-0.3,1.8-0.9c0.4-0.6,0.6-1.4,0.6-2.4
		C818.4,254.9,818.2,254.1,817.7,253.5z"/>
		<path class="st2" d="M829.1,260.4c-0.5,0-1-0.1-1.5-0.3c-0.4-0.2-0.8-0.5-1.1-0.9c-0.3-0.4-0.4-0.9-0.4-1.4c0-0.5,0.1-0.9,0.3-1.2
		c0.2-0.3,0.5-0.6,0.8-0.7c0.3-0.2,0.7-0.3,1.1-0.4c0.4-0.1,0.8-0.2,1.2-0.2c0.5-0.1,1-0.1,1.3-0.2c0.3,0,0.6-0.1,0.7-0.2
		c0.2-0.1,0.2-0.2,0.2-0.5c0-0.6-0.2-1-0.5-1.3c-0.3-0.3-0.8-0.5-1.4-0.5c-0.6,0-1.1,0.1-1.5,0.4s-0.6,0.6-0.8,0.9l-1.3-0.5
		c0.2-0.5,0.5-0.9,0.9-1.2c0.4-0.3,0.8-0.5,1.2-0.6c0.4-0.1,0.9-0.2,1.3-0.2c0.3,0,0.6,0,1,0.1c0.4,0.1,0.7,0.2,1.1,0.4
		c0.3,0.2,0.6,0.5,0.8,0.9c0.2,0.4,0.3,1,0.3,1.6v5.7h-1.3v-1.2h-0.1c-0.1,0.2-0.2,0.4-0.5,0.6c-0.2,0.2-0.5,0.4-0.8,0.5
		C830.1,260.4,829.6,260.4,829.1,260.4z M829.3,259.2c0.5,0,1-0.1,1.3-0.3c0.4-0.2,0.6-0.5,0.8-0.8c0.2-0.3,0.3-0.7,0.3-1v-1.2
		c-0.1,0.1-0.2,0.1-0.4,0.2c-0.2,0.1-0.4,0.1-0.7,0.1c-0.2,0-0.5,0.1-0.7,0.1c-0.2,0-0.4,0.1-0.6,0.1c-0.3,0-0.7,0.1-1,0.2
		c-0.3,0.1-0.5,0.2-0.7,0.4c-0.2,0.2-0.3,0.5-0.3,0.8c0,0.5,0.2,0.8,0.5,1C828.4,259.1,828.8,259.2,829.3,259.2z"/>
		<path class="st2" d="M836.9,255v5.2h-1.3v-8.7h1.3v1.4h0.1c0.2-0.4,0.5-0.8,0.9-1.1c0.4-0.3,0.9-0.4,1.6-0.4c0.9,0,1.6,0.3,2.1,0.8
		c0.5,0.5,0.8,1.4,0.8,2.5v5.5h-1.3v-5.4c0-0.7-0.2-1.2-0.5-1.6c-0.4-0.4-0.8-0.6-1.5-0.6c-0.6,0-1.2,0.2-1.6,0.6
		C837.1,253.7,836.9,254.3,836.9,255z"/>
		<path class="st2" d="M850.8,260.2v-1.3h-0.2c-0.1,0.2-0.2,0.4-0.4,0.6c-0.2,0.2-0.4,0.5-0.8,0.6c-0.3,0.2-0.8,0.3-1.3,0.3
		c-0.7,0-1.4-0.2-1.9-0.5c-0.6-0.4-1-0.9-1.3-1.6c-0.3-0.7-0.5-1.5-0.5-2.4c0-0.9,0.2-1.7,0.5-2.4c0.3-0.7,0.7-1.2,1.3-1.6
		s1.2-0.5,1.9-0.5c0.6,0,1,0.1,1.3,0.3c0.3,0.2,0.6,0.4,0.8,0.6c0.2,0.2,0.3,0.4,0.4,0.6h0.1v-4.3h1.3v11.6H850.8z M850.2,253.5
		c-0.4-0.6-1-0.9-1.9-0.9c-0.6,0-1,0.1-1.4,0.4c-0.4,0.3-0.7,0.7-0.8,1.2c-0.2,0.5-0.3,1-0.3,1.7c0,0.6,0.1,1.2,0.3,1.7
		c0.2,0.5,0.5,0.9,0.8,1.2c0.4,0.3,0.8,0.4,1.4,0.4c0.8,0,1.4-0.3,1.8-0.9s0.6-1.4,0.6-2.4C850.8,254.9,850.6,254.1,850.2,253.5z"/>
		<path class="st2" d="M859,260.2v-8.7h1.3v1.4h0.1c0.2-0.5,0.5-0.8,0.9-1.1c0.4-0.3,0.9-0.4,1.4-0.4c0.6,0,1,0.1,1.4,0.4
		c0.4,0.3,0.7,0.6,0.9,1.1h0.1c0.2-0.4,0.6-0.8,1-1.1c0.4-0.3,1-0.4,1.6-0.4c0.8,0,1.4,0.2,1.9,0.7c0.5,0.5,0.7,1.2,0.7,2.3v5.8H869
		v-5.8c0-0.6-0.2-1.1-0.5-1.4s-0.8-0.4-1.2-0.4c-0.6,0-1.1,0.2-1.4,0.6c-0.3,0.4-0.5,0.8-0.5,1.4v5.6H864v-5.9
		c0-0.5-0.2-0.9-0.5-1.2c-0.3-0.3-0.7-0.5-1.2-0.5c-0.3,0-0.7,0.1-1,0.3c-0.3,0.2-0.5,0.4-0.7,0.8c-0.2,0.3-0.3,0.7-0.3,1.1v5.4H859
		z"/>
		<path class="st2" d="M876.3,260.4c-0.8,0-1.5-0.2-2.1-0.6c-0.6-0.4-1-0.9-1.4-1.6c-0.3-0.7-0.5-1.5-0.5-2.3c0-0.9,0.2-1.7,0.5-2.4
		c0.3-0.7,0.8-1.2,1.4-1.6c0.6-0.4,1.3-0.6,2.1-0.6c0.8,0,1.5,0.2,2.1,0.6c0.6,0.4,1,0.9,1.4,1.6c0.3,0.7,0.5,1.5,0.5,2.4
		c0,0.9-0.2,1.7-0.5,2.3c-0.3,0.7-0.8,1.2-1.4,1.6C877.8,260.2,877.1,260.4,876.3,260.4z M876.3,259.2c0.6,0,1.1-0.2,1.5-0.5
		c0.4-0.3,0.7-0.7,0.9-1.2c0.2-0.5,0.3-1,0.3-1.6c0-0.6-0.1-1.1-0.3-1.6c-0.2-0.5-0.5-0.9-0.9-1.2c-0.4-0.3-0.9-0.5-1.5-0.5
		c-0.6,0-1.1,0.2-1.5,0.5c-0.4,0.3-0.7,0.7-0.9,1.2c-0.2,0.5-0.3,1-0.3,1.6c0,0.6,0.1,1.1,0.3,1.6c0.2,0.5,0.5,0.9,0.9,1.2
		C875.3,259.1,875.7,259.2,876.3,259.2z"/>
		<path class="st2" d="M882.3,260.2v-8.7h1.3v1.3h0.1c0.2-0.4,0.4-0.8,0.9-1c0.4-0.3,0.9-0.4,1.4-0.4c0.2,0,0.5,0,0.6,0.1
		c0.2,0.1,0.3,0.1,0.5,0.2l-0.5,1.1c-0.1,0-0.2-0.1-0.3-0.1c-0.1,0-0.3,0-0.4,0c-0.6,0-1.2,0.2-1.6,0.6c-0.4,0.4-0.6,0.9-0.6,1.5
		v5.5H882.3z"/>
		<path class="st2" d="M891.8,260.4c-0.8,0-1.6-0.2-2.2-0.6s-1.1-0.9-1.4-1.6c-0.3-0.7-0.5-1.4-0.5-2.3c0-0.9,0.2-1.7,0.5-2.4
		c0.3-0.7,0.8-1.2,1.4-1.6c0.6-0.4,1.3-0.6,2.1-0.6c0.5,0,0.9,0.1,1.3,0.2c0.4,0.2,0.8,0.4,1.2,0.7c0.4,0.3,0.6,0.8,0.9,1.3
		c0.2,0.6,0.3,1.2,0.3,2v0.6h-6.3c0,0.9,0.3,1.6,0.8,2.1c0.5,0.5,1.1,0.7,1.9,0.7c0.5,0,1-0.1,1.3-0.3c0.4-0.2,0.6-0.6,0.8-1
		l1.3,0.4c-0.2,0.7-0.6,1.2-1.2,1.6C893.4,260.2,892.6,260.4,891.8,260.4z M889.1,255.2h4.9c0-0.7-0.2-1.3-0.6-1.8
		c-0.4-0.5-1-0.7-1.7-0.7c-0.5,0-0.9,0.1-1.3,0.4c-0.4,0.2-0.7,0.6-0.9,0.9C889.2,254.3,889.1,254.7,889.1,255.2z"/>
</g>
	<g>
	<polygon class="st3" points="205.1,190.5 116.5,190.5 116.5,102.4 205.1,102.4 160.6,146.5 	"/>
		<path class="st4" d="M313.8,198.1h-55.9c-26.9,0-48.7-21.8-48.7-48.7v0c0-26.9,21.8-48.7,48.7-48.7h55.9
		c26.9,0,48.7,21.8,48.7,48.7v0C362.5,176.3,340.7,198.1,313.8,198.1z"/>
		<path class="st4" d="M651.8,198.1H421.7c-26.9,0-48.7-21.8-48.7-48.7v0c0-26.9,21.8-48.7,48.7-48.7h230.1
		c26.9,0,48.7,21.8,48.7,48.7v0C700.5,176.3,678.7,198.1,651.8,198.1z"/>
		<g>
		<path class="st1" d="M421.8,173v-47.3h16c3.7,0,6.7,0.7,9.1,2c2.4,1.3,4.1,3.1,5.3,5.4c1.1,2.3,1.7,4.8,1.7,7.6
			c0,2.8-0.5,5.3-1.7,7.6c-1.1,2.3-2.9,4.1-5.2,5.4c-2.4,1.3-5.4,2-9.1,2h-10.3V173H421.8z M427.6,150.7h10.2c3.8,0,6.5-1,8.1-2.9
			c1.6-1.9,2.4-4.3,2.4-7.1c0-2.8-0.8-5.2-2.4-7.1c-1.6-1.9-4.4-2.8-8.2-2.8h-10.1V150.7z"/>
			<path class="st1" d="M461.1,173v-35.5h5.3v5.4h0.4c0.6-1.8,1.8-3.2,3.5-4.3c1.7-1.1,3.6-1.6,5.7-1.6c1,0,1.8,0.1,2.6,0.3
			c0.7,0.2,1.4,0.5,1.9,0.9l-1.8,4.6c-0.4-0.2-0.8-0.4-1.4-0.5c-0.5-0.1-1.1-0.2-1.8-0.2c-2.6,0-4.7,0.8-6.4,2.4
			c-1.7,1.6-2.5,3.6-2.5,5.9V173H461.1z"/>
			<path class="st1" d="M498.5,173.8c-3.4,0-6.4-0.8-8.8-2.3c-2.5-1.5-4.4-3.6-5.7-6.4c-1.3-2.7-2-5.9-2-9.5c0-3.6,0.7-6.8,2-9.6
			c1.3-2.8,3.2-4.9,5.6-6.5c2.4-1.6,5.2-2.3,8.4-2.3c1.8,0,3.7,0.3,5.5,0.9c1.8,0.6,3.4,1.6,4.9,3c1.5,1.4,2.7,3.2,3.5,5.5
			s1.3,5,1.3,8.4v2.3h-25.7c0.1,3.8,1.2,6.7,3.2,8.7c2,2,4.6,3,7.8,3c2.1,0,4-0.5,5.5-1.4c1.5-0.9,2.7-2.3,3.3-4.2l5.3,1.5
			c-0.8,2.7-2.5,4.8-5,6.5C505.1,173,502.1,173.8,498.5,173.8z M487.4,152.4h20.2c0-3-0.9-5.5-2.6-7.5c-1.8-2-4.1-3-7.1-3
			c-2.1,0-3.9,0.5-5.4,1.5c-1.5,1-2.7,2.3-3.6,3.8C488,148.9,487.5,150.6,487.4,152.4z"/>
			<path class="st1" d="M549.2,137.6L536.1,173h-5.5l-13.1-35.5h5.9l9.8,28.3h0.4l9.8-28.3H549.2z"/>
			<path class="st1" d="M560.1,131.8c-1.1,0-2-0.4-2.7-1.1c-0.8-0.7-1.1-1.6-1.1-2.6c0-1,0.4-1.9,1.1-2.6c0.8-0.7,1.7-1.1,2.7-1.1
			c1.1,0,2,0.4,2.7,1.1c0.8,0.7,1.1,1.6,1.1,2.6c0,1-0.4,1.9-1.1,2.6C562,131.4,561.1,131.8,560.1,131.8z M557.3,173v-35.5h5.4V173
			H557.3z"/>
			<path class="st1" d="M586.3,173.8c-3.4,0-6.4-0.8-8.8-2.3c-2.5-1.5-4.4-3.6-5.7-6.4c-1.3-2.7-2-5.9-2-9.5c0-3.6,0.7-6.8,2-9.6
			c1.3-2.8,3.2-4.9,5.6-6.5c2.4-1.6,5.2-2.3,8.4-2.3c1.8,0,3.7,0.3,5.5,0.9c1.8,0.6,3.4,1.6,4.9,3c1.5,1.4,2.7,3.2,3.5,5.5
			c0.9,2.3,1.3,5,1.3,8.4v2.3h-25.7c0.1,3.8,1.2,6.7,3.2,8.7c2,2,4.6,3,7.8,3c2.1,0,4-0.5,5.5-1.4c1.5-0.9,2.7-2.3,3.3-4.2l5.3,1.5
			c-0.8,2.7-2.5,4.8-5,6.5C592.9,173,589.9,173.8,586.3,173.8z M575.2,152.4h20.2c0-3-0.9-5.5-2.6-7.5c-1.8-2-4.1-3-7.1-3
			c-2.1,0-3.9,0.5-5.4,1.5c-1.5,1-2.7,2.3-3.6,3.8C575.9,148.9,575.4,150.6,575.2,152.4z"/>
			<path class="st1" d="M616,173l-10.8-35.5h5.7l7.7,27.2h0.4l7.6-27.2h5.8l7.5,27.1h0.4l7.7-27.1h5.7L642.8,173h-5.4l-7.8-27.2h-0.6
			l-7.8,27.2H616z"/>
	</g>
		<g>
		<path class="st1" d="M266.4,125.8V173H261v-39h-0.4c-0.2,0.4-0.8,0.9-1.7,1.5c-0.9,0.5-2,1-3.5,1.4c-1.4,0.4-3,0.6-4.8,0.6v-4.8
			c1.8,0,3.4-0.3,4.8-1c1.3-0.7,2.5-1.4,3.4-2.3c0.9-0.9,1.6-1.7,2.1-2.4c0.5-0.7,0.7-1.1,0.8-1.3H266.4z"/>
			<path class="st1" d="M280.2,173.4c-1.2,0-2.1-0.4-2.9-1.2c-0.8-0.8-1.2-1.8-1.2-2.9s0.4-2.1,1.2-2.9c0.8-0.8,1.8-1.2,2.9-1.2
			c1.2,0,2.1,0.4,2.9,1.2c0.8,0.8,1.2,1.8,1.2,2.9c0,1.2-0.4,2.1-1.2,2.9C282.3,173,281.3,173.4,280.2,173.4z"/>
			<path class="st1" d="M287.7,163.3v-4.7l20.8-32.9h6.9v32.5h6.5v5.1h-6.5v9.7H310v-9.7H287.7z M310,158.3v-25.2h-0.4l-15.7,24.8
			v0.4H310z"/>
	</g>
		<path class="st1" d="M792.2,199.8h-33.6c-27.4,0-49.5-22.2-49.5-49.5v-1.7c0-27.4,22.2-49.5,49.5-49.5h33.6
		c27.4,0,49.5,22.2,49.5,49.5v1.7C841.7,177.6,819.5,199.8,792.2,199.8z"/>
		<g>
		<path class="st4" d="M750.1,149.4h40.3V149l-15.2-15.2l3.7-3.7l22,22l-22,22l-3.7-3.7l15.2-15.2v-0.4h-40.3V149.4z"/>
	</g>
</g>
</svg>
