<?xml version="1.0" encoding="utf-8"?>
<!-- Generator: Adobe Illustrator 23.0.6, SVG Export Plug-In . SVG Version: 6.00 Build 0)  -->
<svg version="1.1" id="Layer_1" xmlns="http://www.w3.org/2000/svg" xmlns:xlink="http://www.w3.org/1999/xlink" x="0px" y="0px"
     viewBox="0 0 960 315" style="enable-background:new 0 0 960 315;" xml:space="preserve">
<style type="text/css">
	.st0{fill:#FFFFFF;}
	.st1{enable-background:new    ;}
	.st2{fill:#27282C;}
	.st3{fill:#333333;}
	.st4{fill:#FF722C;}
	.st5{fill:none;stroke:#B3B3B3;stroke-miterlimit:10;}
</style>
    <title>m2</title>
    <rect x="-0.2" y="-0.2" class="st0" width="960.5" height="315.3"/>
    <g class="st1">
	<path class="st2" d="M359,235c-0.1-0.5-0.3-1-0.7-1.3c-0.4-0.3-1-0.4-1.6-0.4c-0.7,0-1.3,0.1-1.6,0.4s-0.6,0.7-0.6,1.1
		c0,0.5,0.2,0.9,0.6,1.1s0.9,0.4,1.5,0.6l1.2,0.3c0.8,0.2,1.5,0.4,2.1,0.8c0.6,0.3,1.1,0.8,1.5,1.3c0.4,0.5,0.5,1.2,0.5,1.9
		c0,1.3-0.5,2.2-1.4,3c-0.9,0.7-2.2,1.1-3.9,1.1c-1.7,0-3-0.4-4-1.1c-1-0.8-1.5-1.9-1.5-3.4h2.8c0,0.7,0.3,1.2,0.8,1.5
		c0.5,0.3,1.1,0.5,1.9,0.5c0.7,0,1.3-0.2,1.8-0.5c0.4-0.3,0.7-0.7,0.7-1.2c0-0.5-0.2-0.8-0.6-1.1c-0.4-0.2-1-0.5-1.7-0.6l-1.5-0.4
		c-1.2-0.3-2.1-0.7-2.7-1.3c-0.7-0.6-1-1.4-1-2.4c0-0.8,0.2-1.6,0.7-2.2c0.4-0.6,1.1-1.1,1.8-1.5c0.8-0.3,1.7-0.5,2.7-0.5
		c1,0,1.9,0.2,2.7,0.5c0.8,0.3,1.4,0.8,1.8,1.5c0.4,0.6,0.6,1.3,0.7,2.2H359z"/>
        <path class="st2" d="M369.3,234.5v2.1h-1.9v4.9c0,0.4,0.1,0.7,0.3,0.8c0.2,0.1,0.4,0.2,0.7,0.2c0.1,0,0.3,0,0.4,0
		c0.1,0,0.2,0,0.3-0.1l0.4,2.1c-0.1,0-0.3,0.1-0.6,0.2c-0.3,0.1-0.6,0.1-0.9,0.1c-1,0-1.9-0.2-2.5-0.7c-0.6-0.5-0.9-1.2-0.9-2.2
		v-5.3h-1.4v-2.1h1.4v-2.5h2.8v2.5H369.3z"/>
        <path class="st2" d="M374.2,245c-1,0-1.8-0.3-2.4-0.8c-0.6-0.5-1-1.3-1-2.3c0-0.8,0.2-1.4,0.5-1.8c0.4-0.4,0.8-0.8,1.4-1
		c0.6-0.2,1.2-0.3,1.9-0.4c0.9-0.1,1.5-0.2,1.9-0.3c0.4-0.1,0.6-0.3,0.6-0.7c0-0.9-0.5-1.3-1.5-1.3c-0.5,0-0.9,0.1-1.2,0.3
		c-0.3,0.2-0.5,0.5-0.6,0.8l-2.6-0.2c0.2-0.9,0.7-1.7,1.5-2.2c0.8-0.5,1.8-0.8,3.1-0.8c0.7,0,1.4,0.1,2.1,0.4
		c0.7,0.2,1.2,0.6,1.6,1.1c0.4,0.5,0.6,1.2,0.6,2v6.9h-2.7v-1.4h-0.1c-0.2,0.5-0.6,0.9-1.1,1.2C375.5,244.8,374.9,245,374.2,245z
		 M375,243c0.6,0,1.1-0.2,1.5-0.5c0.4-0.4,0.6-0.8,0.6-1.4V240c-0.1,0.1-0.3,0.1-0.5,0.2c-0.2,0.1-0.5,0.1-0.7,0.2
		c-0.3,0-0.5,0.1-0.7,0.1c-0.5,0.1-0.9,0.2-1.2,0.4c-0.3,0.2-0.5,0.5-0.5,0.9c0,0.4,0.1,0.7,0.4,0.9C374.2,242.9,374.5,243,375,243z
		"/>
        <path class="st2" d="M385,238.9v5.9h-2.8v-10.3h2.7v1.8h0.1c0.2-0.6,0.6-1.1,1.1-1.4c0.5-0.3,1.2-0.5,1.9-0.5c1.1,0,1.9,0.3,2.6,1
		c0.6,0.7,1,1.6,1,2.8v6.5h-2.8v-6c0-0.6-0.2-1.1-0.5-1.5c-0.3-0.4-0.8-0.5-1.3-0.5c-0.6,0-1,0.2-1.4,0.6
		C385.2,237.7,385,238.2,385,238.9z"/>
        <path class="st2" d="M400.7,244.8v-1.6h-0.1c-0.1,0.3-0.3,0.6-0.6,0.8c-0.2,0.3-0.6,0.5-0.9,0.7c-0.4,0.2-0.9,0.3-1.4,0.3
		c-0.8,0-1.5-0.2-2.1-0.6c-0.6-0.4-1.1-1-1.5-1.8c-0.4-0.8-0.6-1.8-0.6-2.9c0-1.2,0.2-2.2,0.6-2.9c0.4-0.8,0.9-1.4,1.5-1.8
		c0.6-0.4,1.3-0.6,2.1-0.6c0.6,0,1.1,0.1,1.4,0.3c0.4,0.2,0.7,0.4,0.9,0.7s0.4,0.6,0.5,0.8h0.1v-5.1h2.8v13.7H400.7z M400.2,237.5
		c-0.4-0.5-0.9-0.8-1.6-0.8c-0.7,0-1.2,0.3-1.6,0.8c-0.4,0.6-0.6,1.3-0.6,2.2c0,0.9,0.2,1.6,0.6,2.2c0.4,0.6,0.9,0.8,1.6,0.8
		c0.7,0,1.2-0.3,1.6-0.8c0.4-0.6,0.6-1.3,0.6-2.2C400.7,238.7,400.5,238,400.2,237.5z"/>
        <path class="st2" d="M408.7,245c-1,0-1.8-0.3-2.4-0.8c-0.6-0.5-1-1.3-1-2.3c0-0.8,0.2-1.4,0.5-1.8c0.4-0.4,0.8-0.8,1.4-1
		c0.6-0.2,1.2-0.3,1.9-0.4c0.9-0.1,1.5-0.2,1.9-0.3c0.4-0.1,0.6-0.3,0.6-0.7c0-0.9-0.5-1.3-1.5-1.3c-0.5,0-0.9,0.1-1.2,0.3
		c-0.3,0.2-0.5,0.5-0.6,0.8l-2.6-0.2c0.2-0.9,0.7-1.7,1.5-2.2c0.8-0.5,1.8-0.8,3.1-0.8c0.7,0,1.4,0.1,2.1,0.4
		c0.7,0.2,1.2,0.6,1.6,1.1c0.4,0.5,0.6,1.2,0.6,2v6.9h-2.7v-1.4h-0.1c-0.2,0.5-0.6,0.9-1.1,1.2C410.1,244.8,409.5,245,408.7,245z
		 M409.5,243c0.6,0,1.1-0.2,1.5-0.5c0.4-0.4,0.6-0.8,0.6-1.4V240c-0.1,0.1-0.3,0.1-0.5,0.2c-0.2,0.1-0.5,0.1-0.7,0.2
		c-0.3,0-0.5,0.1-0.7,0.1c-0.5,0.1-0.9,0.2-1.2,0.4c-0.3,0.2-0.5,0.5-0.5,0.9c0,0.4,0.1,0.7,0.4,0.9
		C408.7,242.9,409.1,243,409.5,243z"/>
</g>
    <g class="st1">
	<path class="st2" d="M416.7,244.8v-10.3h2.8v1.8h0.1c0.2-0.6,0.5-1.1,0.9-1.4c0.4-0.3,0.9-0.5,1.5-0.5c0.3,0,0.5,0,0.8,0.1
		c0.2,0.1,0.4,0.2,0.6,0.3l-0.9,2.4c-0.1-0.1-0.3-0.1-0.4-0.2s-0.3-0.1-0.5-0.1c-0.6,0-1.1,0.2-1.5,0.6c-0.4,0.4-0.6,0.9-0.6,1.5
		v5.8H416.7z"/>
</g>
    <g class="st1">
	<path class="st2" d="M431.1,244.8v-1.6H431c-0.1,0.3-0.3,0.6-0.6,0.8c-0.2,0.3-0.6,0.5-0.9,0.7c-0.4,0.2-0.9,0.3-1.4,0.3
		c-0.8,0-1.5-0.2-2.1-0.6c-0.6-0.4-1.1-1-1.5-1.8c-0.4-0.8-0.6-1.8-0.6-2.9c0-1.2,0.2-2.2,0.6-2.9c0.4-0.8,0.9-1.4,1.5-1.8
		c0.6-0.4,1.3-0.6,2.1-0.6c0.6,0,1.1,0.1,1.4,0.3c0.4,0.2,0.7,0.4,0.9,0.7s0.4,0.6,0.5,0.8h0.1v-5.1h2.8v13.7H431.1z M430.6,237.5
		c-0.4-0.5-0.9-0.8-1.6-0.8c-0.7,0-1.2,0.3-1.6,0.8c-0.4,0.6-0.6,1.3-0.6,2.2c0,0.9,0.2,1.6,0.6,2.2c0.4,0.6,0.9,0.8,1.6,0.8
		c0.7,0,1.2-0.3,1.6-0.8c0.4-0.6,0.6-1.3,0.6-2.2C431.1,238.7,431,238,430.6,237.5z"/>
        <path class="st2" d="M443.4,231.1v13.7h-2.8v-13.7H443.4z"/>
        <path class="st2" d="M447.1,233.3c-0.4,0-0.8-0.1-1.1-0.4c-0.3-0.3-0.5-0.6-0.5-1c0-0.4,0.2-0.7,0.5-1s0.7-0.4,1.1-0.4
		c0.4,0,0.8,0.1,1.1,0.4s0.5,0.6,0.5,1c0,0.4-0.2,0.7-0.5,1C447.9,233.2,447.5,233.3,447.1,233.3z M445.7,244.8v-10.3h2.8v10.3
		H445.7z"/>
        <path class="st2" d="M450.8,244.8v-13.7h2.8v5.1h0.1c0.1-0.3,0.3-0.6,0.5-0.8s0.5-0.5,0.9-0.7c0.4-0.2,0.9-0.3,1.4-0.3
		c0.8,0,1.4,0.2,2.1,0.6c0.6,0.4,1.1,1,1.5,1.8c0.4,0.8,0.6,1.8,0.6,2.9c0,1.1-0.2,2.1-0.6,2.9c-0.4,0.8-0.9,1.4-1.5,1.8
		c-0.6,0.4-1.3,0.6-2.1,0.6c-0.6,0-1-0.1-1.4-0.3c-0.4-0.2-0.7-0.4-0.9-0.7s-0.4-0.6-0.6-0.8h-0.1v1.6H450.8z M453.6,239.7
		c0,0.9,0.2,1.6,0.6,2.2c0.4,0.6,0.9,0.8,1.6,0.8c0.7,0,1.2-0.3,1.6-0.8c0.4-0.6,0.6-1.3,0.6-2.2c0-0.9-0.2-1.6-0.6-2.2
		c-0.4-0.6-0.9-0.8-1.6-0.8c-0.7,0-1.2,0.3-1.6,0.8C453.8,238,453.6,238.7,453.6,239.7z"/>
</g>
    <g class="st1">
	<path class="st2" d="M462.7,244.8v-10.3h2.8v1.8h0.1c0.2-0.6,0.5-1.1,0.9-1.4c0.4-0.3,0.9-0.5,1.5-0.5c0.3,0,0.5,0,0.8,0.1
		c0.2,0.1,0.4,0.2,0.6,0.3l-0.9,2.4c-0.1-0.1-0.3-0.1-0.4-0.2s-0.3-0.1-0.5-0.1c-0.6,0-1.1,0.2-1.5,0.6c-0.4,0.4-0.6,0.9-0.6,1.5
		v5.8H462.7z"/>
</g>
    <g class="st1">
	<path class="st2" d="M473.4,245c-1,0-1.8-0.3-2.4-0.8c-0.6-0.5-1-1.3-1-2.3c0-0.8,0.2-1.4,0.5-1.8c0.4-0.4,0.8-0.8,1.4-1
		c0.6-0.2,1.2-0.3,1.9-0.4c0.9-0.1,1.5-0.2,1.9-0.3c0.4-0.1,0.6-0.3,0.6-0.7c0-0.9-0.5-1.3-1.5-1.3c-0.5,0-0.9,0.1-1.2,0.3
		c-0.3,0.2-0.5,0.5-0.6,0.8l-2.6-0.2c0.2-0.9,0.7-1.7,1.5-2.2c0.8-0.5,1.8-0.8,3.1-0.8c0.7,0,1.4,0.1,2.1,0.4
		c0.7,0.2,1.2,0.6,1.6,1.1c0.4,0.5,0.6,1.2,0.6,2v6.9h-2.7v-1.4h-0.1c-0.2,0.5-0.6,0.9-1.1,1.2C474.8,244.8,474.2,245,473.4,245z
		 M474.3,243c0.6,0,1.1-0.2,1.5-0.5c0.4-0.4,0.6-0.8,0.6-1.4V240c-0.1,0.1-0.3,0.1-0.5,0.2c-0.2,0.1-0.5,0.1-0.7,0.2
		c-0.3,0-0.5,0.1-0.7,0.1c-0.5,0.1-0.9,0.2-1.2,0.4c-0.3,0.2-0.5,0.5-0.5,0.9c0,0.4,0.1,0.7,0.4,0.9
		C473.5,242.9,473.8,243,474.3,243z"/>
        <path class="st2" d="M481.4,244.8v-10.3h2.8v1.8h0.1c0.2-0.6,0.5-1.1,0.9-1.4c0.4-0.3,0.9-0.5,1.5-0.5c0.3,0,0.5,0,0.8,0.1
		c0.2,0.1,0.4,0.2,0.6,0.3l-0.9,2.4c-0.1-0.1-0.3-0.1-0.4-0.2s-0.3-0.1-0.5-0.1c-0.6,0-1.1,0.2-1.5,0.6c-0.4,0.4-0.6,0.9-0.6,1.5
		v5.8H481.4z"/>
        <path class="st2" d="M491.2,248.8c-0.4,0-0.8,0-1-0.1c-0.3-0.1-0.5-0.1-0.7-0.2l0.6-2.2c0.5,0.2,0.9,0.2,1.3,0.1
		c0.3-0.1,0.6-0.3,0.8-0.8l0.2-0.5l-3.7-10.6h3l2.1,7.5h0.1l2.1-7.5h3l-4,11.4c-0.3,0.8-0.8,1.5-1.4,2
		C493,248.5,492.2,248.8,491.2,248.8z"/>
        <path class="st2" d="M506.3,233.3c-0.4,0-0.8-0.1-1.1-0.4c-0.3-0.3-0.5-0.6-0.5-1c0-0.4,0.2-0.7,0.5-1s0.7-0.4,1.1-0.4
		c0.4,0,0.8,0.1,1.1,0.4s0.5,0.6,0.5,1c0,0.4-0.2,0.7-0.5,1C507.1,233.2,506.7,233.3,506.3,233.3z M504.9,244.8v-10.3h2.8v10.3
		H504.9z"/>
        <path class="st2" d="M512.9,238.9v5.9H510v-10.3h2.7v1.8h0.1c0.2-0.6,0.6-1.1,1.1-1.4c0.5-0.3,1.2-0.5,1.9-0.5c1.1,0,1.9,0.3,2.6,1
		c0.6,0.7,1,1.6,1,2.8v6.5h-2.8v-6c0-0.6-0.2-1.1-0.5-1.5c-0.3-0.4-0.8-0.5-1.3-0.5c-0.6,0-1,0.2-1.4,0.6
		C513.1,237.7,512.9,238.2,512.9,238.9z"/>
        <path class="st2" d="M531.7,231.1v13.7h-2.8v-10.2h-0.1c-0.1,0.2-0.5,0.5-0.9,0.7c-0.5,0.2-1.1,0.3-1.9,0.3v-2.3
		c0.6,0,1.1-0.1,1.5-0.4s0.8-0.6,1-0.9c0.2-0.4,0.4-0.7,0.4-0.9H531.7z"/>
        <path class="st2" d="M536.6,245c-0.4,0-0.8-0.2-1.1-0.5c-0.3-0.3-0.5-0.7-0.5-1.1c0-0.4,0.2-0.8,0.5-1.1c0.3-0.3,0.7-0.5,1.1-0.5
		c0.4,0,0.8,0.2,1.1,0.5c0.3,0.3,0.5,0.7,0.5,1.1c0,0.4-0.2,0.8-0.5,1.1C537.5,244.8,537.1,245,536.6,245z"/>
        <path class="st2" d="M540.4,242.4v-2.3l5.7-9h3.6v9h1.7v2.3h-1.7v2.4h-2.8v-2.4H540.4z M547,240.1v-5.8h-0.1l-3.6,5.7v0.1H547z"/>
        <path class="st2" d="M566,238v2h-9.4v-2H566z"/>
        <path class="st2" d="M571.6,231.1h3.6l3.8,9.2h0.2l3.8-9.2h3.6v13.7h-2.8v-8.9h-0.1l-3.5,8.8H578l-3.5-8.9h-0.1v8.9h-2.8V231.1z"/>
        <path class="st2" d="M588.9,244.8v-2.1l4.9-4.5c0.6-0.6,1.1-1.1,1.4-1.6c0.3-0.4,0.5-0.9,0.5-1.5c0-0.6-0.2-1.1-0.6-1.4
		c-0.4-0.3-0.9-0.5-1.5-0.5c-0.6,0-1.1,0.2-1.5,0.6c-0.4,0.4-0.6,0.9-0.6,1.6h-2.7c0-0.9,0.2-1.7,0.6-2.3c0.4-0.7,1-1.2,1.7-1.5
		c0.7-0.4,1.6-0.5,2.5-0.5c1,0,1.8,0.2,2.6,0.6s1.3,0.9,1.7,1.5c0.4,0.6,0.6,1.3,0.6,2.1c0,0.6-0.1,1.1-0.3,1.7
		c-0.2,0.5-0.6,1.1-1.1,1.6c-0.5,0.6-1.1,1.2-1.9,2l-2,2v0.1h5.6v2.4H588.9z"/>
        <path class="st2" d="M606.9,237.8c-0.4,0-0.8-0.2-1.1-0.5c-0.3-0.3-0.5-0.7-0.5-1.1c0-0.4,0.2-0.8,0.5-1.1s0.7-0.5,1.1-0.5
		c0.4,0,0.8,0.2,1.1,0.5c0.3,0.3,0.5,0.7,0.5,1.1c0,0.4-0.2,0.8-0.5,1.1C607.7,237.6,607.3,237.8,606.9,237.8z M606.9,245
		c-0.4,0-0.8-0.2-1.1-0.5c-0.3-0.3-0.5-0.7-0.5-1.1c0-0.4,0.2-0.8,0.5-1.1c0.3-0.3,0.7-0.5,1.1-0.5c0.4,0,0.8,0.2,1.1,0.5
		c0.3,0.3,0.5,0.7,0.5,1.1c0,0.4-0.2,0.8-0.5,1.1C607.7,244.8,607.3,245,606.9,245z"/>
</g>
    <path class="st3" d="M221.7,260.9v13.7h-1.6l-7.5-10.8h-0.1v10.8h-1.7v-13.7h1.6l7.5,10.8h0.1v-10.8H221.7z"/>
    <path class="st3" d="M229.1,274.8c-0.9,0-1.8-0.2-2.6-0.7c-0.7-0.4-1.3-1.1-1.6-1.9c-0.4-0.9-0.6-1.8-0.6-2.8c0-1,0.2-1.9,0.6-2.8
	c0.3-0.8,0.9-1.4,1.6-1.9c0.7-0.5,1.6-0.7,2.4-0.7c0.5,0,1.1,0.1,1.6,0.3c0.5,0.2,1,0.5,1.4,0.9c0.4,0.4,0.8,1,1,1.6
	c0.3,0.8,0.4,1.6,0.4,2.4v0.7h-7.5c0,0.9,0.3,1.8,0.9,2.5c0.6,0.6,1.4,0.9,2.3,0.9c0.6,0,1.1-0.1,1.6-0.4c0.5-0.3,0.8-0.7,1-1.2
	l1.5,0.4c-0.2,0.8-0.8,1.4-1.4,1.9C231,274.6,230.1,274.8,229.1,274.8z M225.9,268.6h5.9c0-0.8-0.2-1.6-0.8-2.2
	c-0.5-0.6-1.2-0.9-2-0.9c-0.6,0-1.1,0.1-1.6,0.4c-0.4,0.3-0.8,0.7-1,1.1C226.2,267.6,226,268.1,225.9,268.6z"/>
    <path class="st3" d="M238.1,274.6l-3.1-10.3h1.7l2.2,7.9h0.1l2.2-7.9h1.7l2.2,7.8h0.1l2.2-7.8h1.6l-3.1,10.3h-1.6l-2.2-7.9h-0.2
	l-2.2,7.9H238.1z"/>
    <path class="st3" d="M261,264.3v1.3h-2.3v8.9h-1.6v-8.9h-1.7v-1.3h1.7v-1.4c0-0.5,0.1-1,0.4-1.5c0.3-0.4,0.6-0.7,1.1-0.9
	c0.4-0.2,0.9-0.3,1.4-0.3c0.3,0,0.6,0,0.9,0.1c0.2,0,0.4,0.1,0.5,0.2l-0.5,1.4l-0.3-0.1c-0.2,0-0.4-0.1-0.5-0.1
	c-0.4,0-0.8,0.1-1.1,0.4c-0.3,0.3-0.4,0.7-0.4,1.2v1L261,264.3z"/>
    <path class="st3" d="M269.6,270.4v-6.1h1.6v10.3h-1.6v-1.7h-0.1c-0.2,0.5-0.6,1-1.1,1.3c-1.4,0.9-3.1,0.7-4.3-0.4
	c-0.7-0.8-1-1.9-0.9-2.9v-6.5h1.6v6.4c0,0.7,0.2,1.3,0.6,1.8c0.4,0.4,1,0.7,1.6,0.7c0.4,0,0.8-0.1,1.2-0.3c0.4-0.2,0.8-0.5,1-0.9
	C269.5,271.5,269.7,270.9,269.6,270.4z"/>
    <path class="st3" d="M275.7,268.4v6.2h-1.6v-10.3h1.5v1.6h0.1c0.2-0.5,0.6-1,1.1-1.3c1.4-0.8,3.2-0.6,4.4,0.5c0.7,0.8,1.1,1.9,1,2.9
	v6.5h-1.6v-6.4c0-0.7-0.2-1.4-0.6-1.9c-0.5-0.5-1.1-0.7-1.7-0.7c-0.7,0-1.4,0.2-1.9,0.7C275.9,266.9,275.7,267.6,275.7,268.4z"/>
    <path class="st3" d="M289.3,274.8c-0.9,0-1.7-0.2-2.5-0.7c-0.7-0.5-1.3-1.1-1.6-1.9c-0.4-0.9-0.6-1.8-0.6-2.7c0-1,0.2-1.9,0.6-2.8
	c0.4-0.8,0.9-1.4,1.6-1.9c0.7-0.5,1.6-0.7,2.4-0.7c0.7,0,1.4,0.1,2,0.4c0.6,0.3,1.1,0.6,1.4,1.1c0.4,0.5,0.6,1.1,0.7,1.7h-1.6
	c-0.1-0.5-0.4-0.9-0.8-1.2c-0.5-0.4-1.1-0.6-1.7-0.5c-0.9,0-1.7,0.3-2.2,1c-0.6,0.8-0.9,1.8-0.9,2.8c-0.1,1,0.2,2,0.8,2.9
	c0.5,0.7,1.4,1.1,2.2,1.1c0.6,0,1.1-0.2,1.6-0.5c0.4-0.3,0.8-0.8,0.9-1.3h1.6c-0.1,0.6-0.3,1.1-0.7,1.6c-0.4,0.5-0.8,0.9-1.4,1.1
	C290.7,274.6,290,274.8,289.3,274.8z"/>
    <path class="st3" d="M300.1,264.3v1.3h-2.2v6c0,0.3,0,0.7,0.2,1c0.1,0.2,0.3,0.4,0.5,0.4c0.2,0.1,0.4,0.1,0.7,0.1c0.1,0,0.3,0,0.4,0
	l0.3,0l0.3,1.4c-0.1,0.1-0.3,0.1-0.5,0.1c-0.2,0.1-0.5,0.1-0.7,0.1c-0.4,0-0.9-0.1-1.3-0.3c-0.4-0.2-0.8-0.5-1.1-0.9
	c-0.3-0.4-0.4-1-0.4-1.5v-6.4h-1.5v-1.3h1.5v-2.5h1.6v2.5L300.1,264.3z"/>
    <path class="st3" d="M303.4,262.6c-0.3,0-0.6-0.1-0.8-0.3c-0.4-0.4-0.5-1-0.1-1.4c0,0,0.1-0.1,0.1-0.1c0.4-0.4,1.1-0.4,1.6,0
	c0.4,0.4,0.5,1,0.1,1.4c0,0-0.1,0.1-0.1,0.1C304,262.5,303.7,262.6,303.4,262.6z M302.6,274.6v-10.3h1.6v10.3L302.6,274.6z"/>
    <path class="st3" d="M311.2,274.8c-1.7,0-3.3-0.9-4.1-2.5c-0.4-0.9-0.6-1.8-0.6-2.8c0-1,0.2-1.9,0.6-2.8c0.4-0.8,0.9-1.4,1.6-1.9
	c2.1-1.3,4.9-0.7,6.2,1.3c0.1,0.2,0.2,0.3,0.3,0.5c0.4,0.9,0.6,1.8,0.6,2.8c0,1-0.2,1.9-0.6,2.8c-0.4,0.8-0.9,1.4-1.6,1.9
	C312.9,274.6,312.1,274.8,311.2,274.8z M311.2,273.4c0.6,0,1.2-0.2,1.7-0.5c0.5-0.4,0.8-0.9,1-1.4c0.2-0.6,0.3-1.3,0.3-1.9
	c0-0.7-0.1-1.3-0.3-1.9c-0.2-0.6-0.5-1.1-1-1.4c-1-0.7-2.4-0.7-3.5,0c-0.5,0.4-0.8,0.9-1,1.4c-0.2,0.6-0.3,1.3-0.3,1.9
	c0,0.7,0.1,1.3,0.3,1.9c0.2,0.6,0.5,1.1,1,1.4C310,273.2,310.6,273.4,311.2,273.4L311.2,273.4z"/>
    <path class="st3" d="M319.9,268.4v6.2h-1.6v-10.3h1.5v1.6h0.2c0.2-0.5,0.6-1,1.1-1.3c0.6-0.3,1.2-0.5,1.9-0.5c0.9,0,1.8,0.3,2.5,1
	c0.7,0.8,1.1,1.9,1,2.9v6.5h-1.6v-6.4c0-0.7-0.2-1.4-0.6-1.9c-0.5-0.5-1.1-0.7-1.7-0.7c-0.7,0-1.4,0.2-1.9,0.7
	C320.2,266.9,319.9,267.6,319.9,268.4z"/>
    <path class="st3" d="M336.6,266.6l-1.4,0.4c-0.2-0.4-0.4-0.7-0.7-1c-0.4-0.3-1-0.5-1.5-0.5c-0.6,0-1.1,0.1-1.6,0.4
	c-0.4,0.2-0.6,0.6-0.6,1.1c0,0.4,0.1,0.7,0.4,0.9c0.4,0.3,0.9,0.5,1.3,0.6l1.5,0.4c1.8,0.4,2.7,1.4,2.7,2.8c0,0.6-0.2,1.1-0.5,1.6
	c-0.4,0.5-0.9,0.9-1.4,1.1c-0.7,0.3-1.4,0.4-2.1,0.4c-0.9,0-1.8-0.2-2.6-0.7c-0.7-0.5-1.2-1.2-1.3-2l1.5-0.4
	c0.2,1.1,1.3,1.8,2.4,1.7c0.6,0,1.2-0.1,1.8-0.5c0.4-0.2,0.6-0.7,0.6-1.1c0-0.7-0.5-1.2-1.5-1.4l-1.7-0.4c-0.8-0.1-1.5-0.5-2.1-1
	c-0.8-0.9-0.9-2.3-0.2-3.3c0.3-0.5,0.8-0.8,1.3-1c0.6-0.3,1.3-0.4,1.9-0.4c0.8,0,1.7,0.2,2.4,0.7
	C335.9,265.3,336.4,265.9,336.6,266.6z"/>
    <path class="st3" d="M341.5,272.7l-0.1,0.7c-0.1,0.5-0.2,1.1-0.3,1.6c-0.2,0.6-0.3,1.1-0.5,1.6s-0.3,0.9-0.4,1.2H339
	c0-0.3,0.1-0.7,0.2-1.1s0.2-1,0.3-1.6s0.2-1.2,0.2-1.8l0.1-0.8L341.5,272.7z"/>
    <path class="st3" d="M354.4,274.8c-0.5,0-1.1-0.1-1.6-0.3c-0.4-0.2-0.7-0.4-0.9-0.8c-0.2-0.3-0.4-0.5-0.5-0.7h-0.1v5.4h-1.6v-14.1
	h1.5v1.6h0.2l0.5-0.7c0.2-0.3,0.6-0.6,0.9-0.8c0.5-0.2,1-0.4,1.6-0.3c0.8,0,1.6,0.2,2.3,0.6c0.7,0.5,1.2,1.1,1.5,1.8
	c0.4,0.9,0.6,1.8,0.6,2.8c0,1-0.2,1.9-0.6,2.8c-0.3,0.7-0.9,1.4-1.5,1.9C356,274.6,355.2,274.8,354.4,274.8z M354.2,273.4
	c0.6,0,1.2-0.2,1.7-0.5c0.5-0.4,0.8-0.9,1-1.4c0.2-0.6,0.3-1.3,0.3-2c0-0.7-0.1-1.4-0.3-2c-0.2-0.5-0.5-1-1-1.4
	c-0.5-0.4-1.1-0.5-1.7-0.5c-0.9,0-1.7,0.4-2.2,1.1c-0.5,0.8-0.8,1.8-0.8,2.8c0,1,0.2,2,0.8,2.8C352.5,273,353.3,273.4,354.2,273.4
	L354.2,273.4z"/>
    <path class="st3" d="M361.2,274.6v-10.3h1.5v1.5h0.1c0.2-0.5,0.5-0.9,1-1.2c0.5-0.3,1.1-0.5,1.7-0.5c0.3,0,0.5,0,0.8,0.1
	c0.2,0.1,0.4,0.2,0.6,0.3l-0.5,1.3c-0.1-0.1-0.3-0.1-0.4-0.1c-0.2,0-0.3-0.1-0.5,0c-0.7,0-1.3,0.2-1.9,0.7c-0.5,0.4-0.8,1.1-0.7,1.7
	v6.5L361.2,274.6z"/>
    <path class="st3" d="M372.3,274.8c-1.7,0-3.3-0.9-4.1-2.5c-0.4-0.9-0.6-1.8-0.6-2.8c0-1,0.2-1.9,0.6-2.8c0.4-0.8,0.9-1.4,1.6-1.9
	c2.1-1.3,4.9-0.7,6.2,1.4c0.1,0.2,0.2,0.3,0.3,0.5c0.4,0.9,0.6,1.8,0.6,2.8c0,1-0.2,1.9-0.6,2.8c-0.4,0.8-0.9,1.4-1.6,1.9
	C374,274.6,373.1,274.8,372.3,274.8z M372.3,273.4c0.6,0,1.2-0.2,1.7-0.5c0.5-0.4,0.8-0.9,1-1.4c0.2-0.6,0.3-1.3,0.3-1.9
	c0-0.7-0.1-1.3-0.3-1.9c-0.2-0.6-0.5-1.1-1-1.4c-1-0.7-2.4-0.7-3.5,0c-0.5,0.4-0.8,0.9-1,1.4c-0.2,0.6-0.3,1.3-0.3,1.9
	c0,0.7,0.1,1.3,0.3,1.9c0.2,0.6,0.5,1.1,1,1.4C371,273.2,371.7,273.4,372.3,273.4L372.3,273.4z"/>
    <path class="st3" d="M384,274.8c-0.5,0-1.1-0.1-1.6-0.3c-0.4-0.2-0.7-0.4-0.9-0.8c-0.2-0.2-0.3-0.5-0.5-0.7h-0.1v5.4h-1.6v-14.1h1.5
	v1.6h0.2c0.1-0.2,0.3-0.4,0.5-0.7c0.2-0.3,0.6-0.6,0.9-0.8c0.5-0.2,1-0.4,1.6-0.3c0.8,0,1.6,0.2,2.3,0.6c0.7,0.5,1.2,1.1,1.5,1.8
	c0.4,0.9,0.6,1.8,0.5,2.8c0,1-0.2,1.9-0.5,2.8c-0.3,0.7-0.9,1.4-1.5,1.9C385.6,274.6,384.8,274.8,384,274.8z M383.8,273.4
	c0.6,0,1.2-0.2,1.7-0.5c0.5-0.4,0.8-0.9,1-1.4c0.2-0.6,0.3-1.3,0.3-2c0-0.7-0.1-1.4-0.3-2c-0.2-0.5-0.5-1-1-1.4
	c-0.5-0.4-1.1-0.5-1.7-0.5c-0.9,0-1.7,0.4-2.2,1.1c-0.5,0.8-0.8,1.8-0.8,2.8c0,1,0.2,2,0.8,2.8C382.1,273,382.9,273.4,383.8,273.4
	L383.8,273.4z"/>
    <path class="st3" d="M395.1,274.8c-0.9,0-1.8-0.2-2.6-0.7c-0.7-0.4-1.3-1.1-1.6-1.9c-0.4-0.9-0.6-1.8-0.6-2.8c0-1,0.2-1.9,0.6-2.8
	c0.4-0.8,0.9-1.4,1.6-1.9c0.7-0.5,1.6-0.7,2.4-0.7c0.5,0,1.1,0.1,1.6,0.3c0.5,0.2,1,0.5,1.4,0.9c0.4,0.4,0.8,1,1,1.6
	c0.3,0.8,0.4,1.6,0.4,2.4v0.7h-7.5c0,0.9,0.3,1.8,0.9,2.5c1.1,1,2.6,1.2,3.9,0.5c0.5-0.3,0.8-0.7,1-1.2l1.5,0.4
	c-0.2,0.8-0.8,1.4-1.4,1.9C397,274.6,396.1,274.8,395.1,274.8z M391.9,268.6h5.9c0-0.8-0.2-1.6-0.8-2.2c-0.5-0.6-1.2-0.9-2-0.9
	c-0.6,0-1.1,0.1-1.6,0.4c-0.4,0.3-0.8,0.7-1,1.1C392.1,267.6,392,268.1,391.9,268.6L391.9,268.6z"/>
    <path class="st3" d="M401.8,274.6v-10.3h1.5v1.5h0.1c0.2-0.5,0.5-0.9,1-1.2c0.5-0.3,1.1-0.5,1.7-0.5c0.3,0,0.5,0,0.8,0.1
	c0.2,0.1,0.4,0.2,0.6,0.3l-0.5,1.3c-0.1-0.1-0.3-0.1-0.4-0.1c-0.2,0-0.3-0.1-0.5,0c-0.7,0-1.4,0.2-1.9,0.7c-0.5,0.4-0.7,1.1-0.7,1.7
	v6.5L401.8,274.6z"/>
    <path class="st3" d="M414.1,264.3v1.3h-2.2v6c0,0.3,0,0.7,0.2,1c0.1,0.2,0.3,0.4,0.5,0.4c0.2,0.1,0.4,0.1,0.7,0.1c0.1,0,0.3,0,0.4,0
	l0.3,0l0.3,1.4c-0.1,0.1-0.3,0.1-0.5,0.1c-0.2,0.1-0.5,0.1-0.7,0.1c-0.5,0-0.9-0.1-1.3-0.3c-0.4-0.2-0.8-0.5-1.1-0.9
	c-0.3-0.4-0.4-1-0.4-1.5v-6.4h-1.5v-1.3h1.5v-2.5h1.6v2.5L414.1,264.3z"/>
    <path class="st3" d="M417.6,278.6c-0.2,0-0.5,0-0.7-0.1c-0.1,0-0.3-0.1-0.4-0.1l0.4-1.4c0.9,0.4,1.9,0,2.3-0.9
	c0.1-0.2,0.1-0.3,0.1-0.5l0.4-0.9l-3.8-10.4h1.7l2.8,8.2h0.1l2.8-8.2h1.7l-4.4,11.9C420.2,277.6,419,278.6,417.6,278.6z"/>
    <path class="st3" d="M439.4,274.6V273h-0.2c-0.1,0.2-0.3,0.4-0.5,0.7c-0.3,0.3-0.6,0.6-0.9,0.8c-0.5,0.2-1,0.4-1.6,0.3
	c-0.8,0-1.6-0.2-2.3-0.6c-0.7-0.5-1.2-1.1-1.5-1.9c-0.4-0.9-0.6-1.9-0.6-2.8c0-1,0.2-1.9,0.6-2.8c0.3-0.7,0.9-1.4,1.5-1.8
	c0.7-0.4,1.5-0.7,2.3-0.6c0.5,0,1.1,0.1,1.6,0.3c0.3,0.2,0.7,0.4,0.9,0.8l0.5,0.7h0.1v-5h1.6v13.7L439.4,274.6z M438.7,266.7
	c-0.5-0.7-1.3-1.1-2.2-1.1c-0.6,0-1.2,0.2-1.7,0.5c-0.5,0.4-0.8,0.8-1,1.4c-0.2,0.6-0.3,1.3-0.3,2c0,0.7,0.1,1.4,0.3,2
	c0.2,0.6,0.5,1,1,1.4c0.5,0.4,1.1,0.5,1.7,0.5c0.9,0,1.7-0.4,2.2-1.1c0.5-0.8,0.8-1.8,0.8-2.8C439.5,268.5,439.2,267.5,438.7,266.7
	L438.7,266.7z"/>
    <path class="st3" d="M448.2,274.8c-0.9,0-1.8-0.2-2.6-0.7c-0.7-0.4-1.3-1.1-1.6-1.9c-0.4-0.9-0.6-1.8-0.6-2.8c0-1,0.2-1.9,0.6-2.8
	c0.4-0.8,0.9-1.4,1.6-1.9c0.7-0.5,1.6-0.7,2.4-0.7c0.5,0,1.1,0.1,1.6,0.3c0.5,0.2,1,0.5,1.4,0.9c0.4,0.4,0.8,1,1,1.6
	c0.3,0.8,0.4,1.6,0.4,2.4v0.7H445c0,0.9,0.3,1.8,0.9,2.5c1.1,1,2.6,1.2,3.9,0.5c0.5-0.3,0.8-0.7,1-1.2l1.5,0.4
	c-0.2,0.8-0.8,1.4-1.4,1.9C450.1,274.6,449.1,274.9,448.2,274.8z M445,268.6h5.9c0-0.8-0.2-1.6-0.8-2.2c-0.5-0.6-1.2-0.9-2-0.9
	c-0.6,0-1.1,0.1-1.6,0.4c-0.4,0.3-0.8,0.7-1,1.1C445.2,267.6,445.1,268.1,445,268.6z"/>
    <path class="st3" d="M456.4,260.9v13.7h-1.6v-13.7H456.4z"/>
    <path class="st3" d="M463.6,274.8c-0.9,0-1.8-0.2-2.6-0.7c-0.7-0.4-1.3-1.1-1.6-1.9c-0.4-0.9-0.6-1.8-0.6-2.8c0-1,0.2-1.9,0.6-2.8
	c0.4-0.8,0.9-1.4,1.6-1.9c0.7-0.5,1.6-0.7,2.4-0.7c0.5,0,1.1,0.1,1.6,0.3c0.5,0.2,1,0.5,1.4,0.9c0.4,0.4,0.8,1,1,1.6
	c0.3,0.8,0.4,1.6,0.4,2.4v0.7h-7.5c0,0.9,0.3,1.8,0.9,2.5c1.1,1,2.6,1.2,3.9,0.5c0.5-0.3,0.8-0.7,1-1.2l1.5,0.4
	c-0.2,0.8-0.8,1.4-1.4,1.9C465.5,274.6,464.5,274.8,463.6,274.8z M460.4,268.6h5.9c0-0.8-0.2-1.6-0.8-2.2c-0.5-0.6-1.3-0.9-2-0.9
	c-0.5,0-1.1,0.1-1.6,0.4c-0.4,0.3-0.8,0.7-1,1.1C460.6,267.6,460.4,268.1,460.4,268.6L460.4,268.6z"/>
    <path class="st3" d="M474.3,278.4c-0.9,0-1.8-0.2-2.6-0.6c-0.6-0.4-1.1-0.8-1.5-1.4l1.2-0.9c0.1,0.2,0.3,0.4,0.5,0.6
	c0.3,0.3,0.6,0.5,0.9,0.6c0.5,0.2,1,0.3,1.5,0.3c0.5,0,1-0.1,1.5-0.3c0.4-0.2,0.8-0.5,1.1-0.8c0.3-0.4,0.4-0.9,0.4-1.4v-1.8h-0.1
	c-0.2,0.2-0.3,0.5-0.5,0.7c-0.2,0.3-0.6,0.5-0.9,0.7c-0.5,0.2-1,0.3-1.6,0.3c-0.8,0-1.6-0.2-2.2-0.6c-0.7-0.4-1.2-1-1.6-1.7
	c-0.4-0.9-0.6-1.8-0.6-2.7c0-0.9,0.2-1.9,0.5-2.8c0.3-0.7,0.9-1.4,1.5-1.8c0.7-0.4,1.5-0.7,2.3-0.6c0.5,0,1.1,0.1,1.6,0.3
	c0.4,0.2,0.7,0.4,0.9,0.8c0.2,0.3,0.4,0.5,0.5,0.7h0.2v-1.6h1.5v10.4c0,0.8-0.2,1.5-0.6,2.2c-0.4,0.6-1,1-1.6,1.2
	C475.9,278.3,475.1,278.4,474.3,278.4z M474.3,273c0.8,0,1.7-0.3,2.2-1c0.5-0.8,0.8-1.7,0.8-2.7c0-1-0.2-1.9-0.8-2.7
	c-0.5-0.7-1.3-1.1-2.2-1c-0.6,0-1.2,0.2-1.7,0.5c-0.5,0.4-0.8,0.8-1,1.4c-0.2,0.6-0.3,1.3-0.3,1.9c0,0.9,0.2,1.9,0.8,2.6
	C472.6,272.7,473.5,273.1,474.3,273z"/>
    <path class="st3" d="M484.8,274.8c-0.6,0-1.2-0.1-1.8-0.4c-0.5-0.2-1-0.6-1.3-1.1c-0.3-0.5-0.5-1.1-0.5-1.7c0-0.5,0.1-1,0.4-1.4
	c0.2-0.4,0.6-0.7,0.9-0.9c0.4-0.2,0.8-0.4,1.3-0.5c0.5-0.1,0.9-0.2,1.4-0.2l1.5-0.2c0.3,0,0.6-0.1,0.9-0.2c0.2-0.1,0.3-0.3,0.3-0.5
	c0.1-1.1-0.6-2-1.7-2.1c-0.2,0-0.3,0-0.5,0c-0.6,0-1.3,0.1-1.8,0.5c-0.4,0.3-0.7,0.6-0.9,1.1l-1.5-0.5c0.2-0.6,0.6-1.1,1.1-1.5
	c0.4-0.3,0.9-0.6,1.5-0.7c0.5-0.1,1-0.2,1.6-0.2c0.4,0,0.8,0,1.1,0.1c0.4,0.1,0.9,0.2,1.2,0.5c0.4,0.3,0.8,0.6,1,1.1
	c0.3,0.6,0.4,1.3,0.4,2v6.8h-1.6v-1.4h-0.1c-0.1,0.3-0.3,0.5-0.5,0.7c-0.3,0.3-0.6,0.5-1,0.6C485.8,274.8,485.3,274.8,484.8,274.8z
	 M485,273.4c0.5,0,1.1-0.1,1.6-0.4c0.4-0.2,0.8-0.6,1-1c0.2-0.4,0.3-0.8,0.3-1.2v-1.5c-0.1,0.1-0.3,0.2-0.4,0.2
	c-0.2,0.1-0.5,0.1-0.8,0.2l-0.9,0.1l-0.7,0.1c-0.4,0-0.8,0.1-1.1,0.3c-0.3,0.1-0.6,0.3-0.9,0.5c-0.2,0.3-0.4,0.6-0.3,1
	c0,0.5,0.2,1,0.6,1.2C483.9,273.3,484.5,273.4,485,273.4L485,273.4z"/>
    <path class="st3" d="M496.8,264.3v1.3h-2.2v6c0,0.3,0,0.7,0.2,1c0.1,0.2,0.3,0.4,0.5,0.4c0.2,0.1,0.4,0.1,0.7,0.1c0.1,0,0.3,0,0.4,0
	l0.3,0l0.3,1.4c-0.1,0.1-0.3,0.1-0.5,0.1c-0.2,0.1-0.5,0.1-0.7,0.1c-0.5,0-0.9-0.1-1.3-0.3c-0.4-0.2-0.8-0.5-1-0.9
	c-0.3-0.4-0.4-1-0.4-1.5v-6.4h-1.5v-1.3h1.5v-2.5h1.6v2.5L496.8,264.3z"/>
    <path class="st3" d="M500.1,262.6c-0.3,0-0.6-0.1-0.8-0.3c-0.4-0.4-0.5-1-0.1-1.4c0,0,0.1-0.1,0.1-0.1c0.4-0.4,1.1-0.4,1.6,0
	c0.4,0.4,0.5,1,0.1,1.4c0,0-0.1,0.1-0.1,0.1C500.7,262.5,500.4,262.6,500.1,262.6z M499.3,274.6v-10.3h1.6v10.3L499.3,274.6z"/>
    <path class="st3" d="M507.9,274.8c-1.7,0-3.3-0.9-4.1-2.5c-0.4-0.9-0.6-1.8-0.6-2.8c0-1,0.2-1.9,0.6-2.8c0.4-0.8,0.9-1.4,1.6-1.9
	c2.1-1.3,4.9-0.7,6.2,1.4c0.1,0.2,0.2,0.3,0.3,0.5c0.4,0.9,0.6,1.8,0.6,2.8c0,1-0.2,1.9-0.6,2.8c-0.4,0.8-0.9,1.4-1.6,1.9
	C509.6,274.6,508.8,274.8,507.9,274.8z M507.9,273.4c0.6,0,1.2-0.2,1.7-0.5c0.5-0.4,0.8-0.9,1-1.4c0.2-0.6,0.3-1.3,0.3-1.9
	c0-0.7-0.1-1.3-0.3-1.9c-0.2-0.6-0.5-1.1-1-1.4c-0.5-0.4-1.1-0.6-1.7-0.5c-0.6,0-1.2,0.2-1.7,0.5c-0.5,0.4-0.8,0.9-1,1.4
	c-0.2,0.6-0.3,1.3-0.3,1.9c0,0.7,0.1,1.3,0.3,1.9c0.2,0.6,0.5,1.1,1,1.4C506.7,273.2,507.3,273.4,507.9,273.4L507.9,273.4z"/>
    <path class="st3" d="M516.6,268.4v6.2H515v-10.3h1.5v1.6h0.1c0.2-0.5,0.6-1,1.1-1.3c1.4-0.8,3.2-0.6,4.4,0.5c0.7,0.8,1.1,1.9,1,2.9
	v6.5h-1.6v-6.4c0-0.7-0.2-1.4-0.6-1.9c-0.4-0.5-1.1-0.7-1.7-0.7c-0.7,0-1.4,0.2-1.9,0.7C516.8,266.9,516.5,267.6,516.6,268.4z"/>
    <path class="st3" d="M532.1,262.6c-0.3,0-0.6-0.1-0.8-0.3c-0.4-0.4-0.5-1-0.1-1.4c0,0,0.1-0.1,0.1-0.1c0.4-0.4,1.1-0.4,1.6,0
	c0.4,0.4,0.5,1,0.1,1.4c0,0-0.1,0.1-0.1,0.1C532.7,262.5,532.4,262.6,532.1,262.6z M531.3,274.6v-10.3h1.6v10.3L531.3,274.6z"/>
    <path class="st3" d="M535.8,274.6v-10.3h1.5v1.6h0.1c0.2-0.5,0.5-1,1-1.3c0.5-0.3,1.1-0.5,1.7-0.5c0.6,0,1.2,0.1,1.7,0.5
	c0.5,0.3,0.8,0.8,1.1,1.3h0.1c0.3-0.5,0.7-1,1.2-1.3c0.6-0.3,1.2-0.5,1.9-0.5c0.8,0,1.7,0.3,2.3,0.9c0.6,0.7,1,1.7,0.9,2.7v6.9h-1.6
	v-6.9c0.1-0.6-0.2-1.2-0.6-1.6c-0.4-0.3-0.9-0.5-1.5-0.5c-0.6,0-1.2,0.2-1.7,0.6c-0.4,0.5-0.6,1-0.6,1.6v6.7h-1.6v-7
	c0-0.5-0.2-1.1-0.6-1.4c-0.4-0.4-0.9-0.5-1.5-0.5c-0.4,0-0.8,0.1-1.2,0.3c-0.4,0.2-0.7,0.5-0.9,0.9c-0.2,0.4-0.3,0.9-0.3,1.3v6.4
	L535.8,274.6z"/>
    <path class="st3" d="M556.9,274.8c-0.5,0-1.1-0.1-1.6-0.3c-0.4-0.2-0.7-0.4-0.9-0.8c-0.2-0.2-0.3-0.5-0.5-0.7h-0.1v5.4h-1.6v-14.1
	h1.5v1.6h0.2c0.1-0.2,0.3-0.4,0.5-0.7c0.2-0.3,0.5-0.6,0.9-0.8c0.5-0.2,1-0.4,1.6-0.3c0.8,0,1.6,0.2,2.3,0.6
	c0.7,0.5,1.2,1.1,1.5,1.8c0.4,0.9,0.6,1.8,0.6,2.8c0,1-0.2,1.9-0.6,2.8c-0.3,0.7-0.9,1.4-1.5,1.9
	C558.4,274.6,557.7,274.8,556.9,274.8z M556.6,273.4c0.6,0,1.2-0.2,1.7-0.5c0.5-0.4,0.8-0.9,1-1.4c0.4-1.3,0.4-2.7,0-4
	c-0.2-0.5-0.5-1-1-1.4c-0.5-0.4-1.1-0.5-1.7-0.5c-0.9,0-1.7,0.4-2.2,1.1c-0.5,0.8-0.8,1.8-0.8,2.8c0,1,0.2,2,0.8,2.8
	C554.9,273,555.8,273.4,556.6,273.4L556.6,273.4z"/>
    <path class="st3" d="M563.6,274.6v-10.3h1.5v1.5h0.1c0.2-0.5,0.5-0.9,1-1.2c0.5-0.3,1.1-0.5,1.7-0.5c0.3,0,0.5,0,0.8,0.1
	c0.2,0.1,0.4,0.2,0.6,0.3l-0.5,1.3c-0.1-0.1-0.3-0.1-0.4-0.1c-0.2,0-0.3-0.1-0.5,0c-0.7,0-1.4,0.2-1.9,0.7c-0.5,0.4-0.8,1.1-0.7,1.7
	v6.5L563.6,274.6z"/>
    <path class="st3" d="M574.7,274.8c-1.7,0-3.3-0.9-4.1-2.5c-0.4-0.9-0.6-1.8-0.6-2.8c0-1,0.2-1.9,0.6-2.8c0.4-0.8,0.9-1.4,1.6-1.9
	c2.1-1.3,4.9-0.7,6.2,1.4c0.1,0.2,0.2,0.3,0.3,0.5c0.4,0.9,0.6,1.8,0.6,2.8c0,1-0.2,1.9-0.6,2.8c-0.4,0.8-0.9,1.4-1.6,1.9
	C576.4,274.6,575.6,274.8,574.7,274.8z M574.7,273.4c0.6,0,1.2-0.2,1.7-0.5c0.5-0.4,0.8-0.9,1-1.4c0.2-0.6,0.3-1.3,0.3-1.9
	c0-0.7-0.1-1.3-0.3-1.9c-0.2-0.6-0.5-1.1-1-1.4c-0.5-0.4-1.1-0.6-1.7-0.5c-0.6,0-1.2,0.2-1.7,0.5c-0.5,0.4-0.8,0.9-1,1.4
	c-0.2,0.6-0.3,1.3-0.3,1.9c0,0.7,0.1,1.3,0.3,1.9c0.2,0.6,0.5,1.1,1,1.4C573.5,273.2,574.1,273.4,574.7,273.4L574.7,273.4z"/>
    <path class="st3" d="M590.2,264.3l-3.8,10.3h-1.6l-3.8-10.3h1.7l2.8,8.2h0.1l2.8-8.2H590.2z"/>
    <path class="st3" d="M596.2,274.8c-0.9,0-1.8-0.2-2.6-0.7c-0.7-0.4-1.3-1.1-1.7-1.9c-0.4-0.9-0.6-1.8-0.6-2.8c0-1,0.2-1.9,0.6-2.8
	c0.3-0.8,0.9-1.4,1.6-1.9c0.7-0.5,1.6-0.7,2.4-0.7c0.5,0,1.1,0.1,1.6,0.3c0.5,0.2,1,0.5,1.4,0.9c0.4,0.4,0.8,1,1,1.6
	c0.3,0.8,0.4,1.6,0.4,2.4v0.7H593c0,0.9,0.3,1.8,0.9,2.5c0.6,0.6,1.4,0.9,2.3,0.9c0.6,0,1.1-0.1,1.6-0.4c0.5-0.3,0.8-0.7,1-1.2
	l1.5,0.4c-0.2,0.8-0.8,1.4-1.5,1.9C598.1,274.6,597.1,274.8,596.2,274.8z M593,268.6h5.8c0-0.8-0.2-1.6-0.8-2.2
	c-0.5-0.6-1.2-0.9-2-0.9c-0.6,0-1.1,0.1-1.6,0.4c-0.4,0.3-0.8,0.7-1,1.1C593.2,267.6,593.1,268.1,593,268.6z"/>
    <path class="st3" d="M602.8,274.6v-10.3h1.5v1.6h0.1c0.2-0.5,0.5-1,1-1.3c0.5-0.3,1.1-0.5,1.7-0.5c1.2-0.1,2.3,0.6,2.8,1.7h0.1
	c0.3-0.5,0.7-1,1.2-1.3c0.6-0.3,1.2-0.5,1.9-0.5c0.8,0,1.7,0.3,2.2,0.9c0.6,0.7,1,1.7,0.9,2.7v6.9h-1.6v-6.9
	c0.1-0.6-0.2-1.2-0.6-1.6c-0.4-0.3-0.9-0.5-1.5-0.5c-0.6,0-1.2,0.2-1.7,0.6c-0.4,0.5-0.6,1-0.6,1.6v6.7h-1.6v-7c0-0.5-0.2-1-0.6-1.4
	c-0.4-0.4-0.9-0.6-1.5-0.5c-0.4,0-0.8,0.1-1.2,0.3c-0.4,0.2-0.7,0.5-0.8,0.9c-0.2,0.4-0.3,0.9-0.3,1.3v6.4L602.8,274.6z"/>
    <path class="st3" d="M623.5,274.8c-0.9,0-1.8-0.2-2.6-0.7c-0.7-0.4-1.3-1.1-1.7-1.9c-0.4-0.9-0.6-1.8-0.6-2.8c0-1,0.2-1.9,0.6-2.8
	c0.4-0.8,0.9-1.4,1.6-1.9c0.7-0.5,1.6-0.7,2.4-0.7c0.5,0,1.1,0.1,1.6,0.3c0.5,0.2,1,0.5,1.4,0.9c0.4,0.4,0.8,1,1,1.6
	c0.3,0.8,0.4,1.6,0.4,2.4v0.7h-7.5c0,0.9,0.3,1.8,0.9,2.5c1.1,1,2.6,1.2,3.9,0.5c0.5-0.3,0.8-0.7,1-1.2l1.5,0.4
	c-0.2,0.8-0.8,1.4-1.4,1.9C625.4,274.6,624.4,274.8,623.5,274.8z M620.3,268.6h5.8c0-0.8-0.2-1.6-0.8-2.2c-0.5-0.6-1.2-0.9-2-0.9
	c-0.5,0-1.1,0.1-1.6,0.4c-0.4,0.3-0.8,0.7-1,1.1C620.6,267.6,620.4,268.1,620.3,268.6z"/>
    <path class="st3" d="M631.8,268.4v6.2h-1.6v-10.3h1.5v1.6h0.1c0.2-0.5,0.6-1,1.1-1.3c1.4-0.8,3.2-0.6,4.4,0.5c0.7,0.8,1.1,1.9,1,2.9
	v6.5h-1.6v-6.4c0-0.7-0.2-1.4-0.6-1.9c-0.5-0.5-1.1-0.7-1.7-0.7c-0.7,0-1.4,0.2-1.9,0.7C632,266.9,631.7,267.6,631.8,268.4z"/>
    <path class="st3" d="M645.7,264.3v1.3h-2.2v6c0,0.3,0,0.7,0.2,1c0.1,0.2,0.3,0.4,0.5,0.4c0.2,0.1,0.4,0.1,0.7,0.1c0.1,0,0.3,0,0.4,0
	l0.3,0l0.3,1.4c-0.1,0.1-0.3,0.1-0.4,0.1c-0.2,0.1-0.5,0.1-0.7,0.1c-0.5,0-0.9-0.1-1.3-0.3c-0.4-0.2-0.8-0.5-1.1-0.9
	c-0.3-0.4-0.4-1-0.4-1.5v-6.4h-1.6v-1.3h1.6v-2.5h1.6v2.5L645.7,264.3z"/>
    <path class="st3" d="M655.2,266.6l-1.4,0.4c-0.2-0.4-0.4-0.7-0.7-1c-0.4-0.3-1-0.5-1.5-0.5c-0.6,0-1.1,0.1-1.6,0.5
	c-0.4,0.2-0.6,0.6-0.6,1.1c0,0.4,0.1,0.7,0.4,0.9c0.4,0.3,0.9,0.5,1.3,0.6l1.5,0.4c1.8,0.4,2.7,1.4,2.7,2.8c0,0.6-0.2,1.1-0.5,1.6
	c-0.4,0.5-0.9,0.9-1.4,1.1c-0.7,0.3-1.4,0.4-2.1,0.4c-0.9,0-1.8-0.2-2.6-0.7c-0.7-0.5-1.2-1.2-1.3-2l1.5-0.4
	c0.2,1.1,1.3,1.8,2.4,1.7c0.6,0,1.2-0.1,1.8-0.5c0.4-0.2,0.6-0.7,0.7-1.1c0-0.7-0.5-1.2-1.5-1.4l-1.7-0.4c-0.8-0.1-1.5-0.5-2.1-1
	c-0.8-0.9-0.9-2.3-0.2-3.3c0.3-0.5,0.8-0.8,1.3-1c0.6-0.3,1.3-0.4,1.9-0.4c0.8,0,1.7,0.2,2.4,0.7C654.5,265.3,655,265.9,655.2,266.6
	z"/>
    <path class="st3" d="M660.2,272.7l-0.1,0.7c-0.1,0.5-0.2,1.1-0.3,1.6c-0.2,0.6-0.3,1.1-0.5,1.6s-0.3,0.9-0.4,1.2h-1.2
	c0.1-0.3,0.1-0.7,0.2-1.1s0.2-1,0.3-1.6s0.2-1.2,0.2-1.8l0.1-0.8L660.2,272.7z"/>
    <path class="st3" d="M671.4,274.8c-0.6,0-1.2-0.1-1.8-0.4c-0.5-0.2-1-0.6-1.3-1.1c-0.3-0.5-0.5-1.1-0.5-1.7c0-0.5,0.1-1,0.3-1.4
	c0.2-0.4,0.6-0.7,0.9-0.9c0.4-0.2,0.8-0.4,1.3-0.5c0.5-0.1,0.9-0.2,1.4-0.2l1.5-0.2c0.3,0,0.6-0.1,0.9-0.2c0.2-0.1,0.3-0.3,0.3-0.5
	c0.1-1.1-0.6-2-1.7-2.1c-0.2,0-0.3,0-0.5,0c-0.6,0-1.3,0.1-1.8,0.5c-0.4,0.3-0.7,0.6-0.9,1.1l-1.5-0.5c0.2-0.6,0.6-1.1,1.1-1.5
	c0.4-0.3,0.9-0.6,1.5-0.7c0.5-0.1,1-0.2,1.6-0.2c0.4,0,0.8,0,1.1,0.1c0.4,0.1,0.9,0.2,1.2,0.5c0.4,0.3,0.8,0.6,1,1.1
	c0.3,0.6,0.4,1.3,0.4,2v6.8h-1.6v-1.4h-0.1c-0.1,0.3-0.3,0.5-0.5,0.7c-0.3,0.3-0.6,0.5-1,0.6C672.4,274.8,671.9,274.8,671.4,274.8z
	 M671.6,273.4c0.5,0,1.1-0.1,1.6-0.4c0.4-0.2,0.8-0.6,1-1c0.2-0.4,0.3-0.8,0.3-1.2v-1.5c-0.1,0.1-0.3,0.2-0.4,0.2
	c-0.2,0.1-0.5,0.1-0.8,0.2l-0.8,0.1l-0.7,0.1c-0.4,0-0.8,0.1-1.2,0.3c-0.3,0.1-0.6,0.3-0.8,0.5c-0.2,0.3-0.4,0.6-0.3,1
	c0,0.5,0.2,1,0.6,1.2C670.5,273.3,671.1,273.4,671.6,273.4z"/>
    <path class="st3" d="M680.6,268.4v6.2H679v-10.3h1.5v1.6h0.1c0.2-0.5,0.6-1,1.1-1.3c1.4-0.8,3.2-0.6,4.4,0.5c0.7,0.8,1.1,1.9,1,2.9
	v6.5h-1.6v-6.4c0-0.7-0.2-1.4-0.6-1.9c-0.5-0.5-1.1-0.7-1.7-0.7c-0.7,0-1.4,0.2-1.9,0.7C680.8,266.9,680.5,267.6,680.6,268.4z"/>
    <path class="st3" d="M697.1,274.6V273h-0.2c-0.2,0.2-0.3,0.5-0.5,0.7c-0.2,0.3-0.6,0.6-0.9,0.8c-0.5,0.2-1,0.4-1.6,0.3
	c-0.8,0-1.6-0.2-2.3-0.6c-0.7-0.5-1.2-1.1-1.5-1.9c-0.4-0.9-0.6-1.9-0.6-2.8c0-1,0.2-1.9,0.6-2.8c0.3-0.7,0.9-1.4,1.5-1.8
	c0.7-0.4,1.5-0.7,2.3-0.6c0.5,0,1.1,0.1,1.6,0.3c0.3,0.2,0.7,0.4,0.9,0.8c0.2,0.3,0.4,0.5,0.5,0.7h0.1v-5h1.6v13.7L697.1,274.6z
	 M696.3,266.7c-0.5-0.7-1.3-1.1-2.2-1.1c-0.6,0-1.2,0.2-1.7,0.5c-0.5,0.4-0.8,0.8-1,1.4c-0.4,1.3-0.4,2.7,0,4c0.2,0.6,0.5,1,1,1.4
	c0.5,0.4,1.1,0.5,1.7,0.5c0.9,0,1.7-0.4,2.2-1.1c0.5-0.8,0.8-1.8,0.8-2.8C697.1,268.5,696.8,267.5,696.3,266.7L696.3,266.7z"/>
    <path class="st3" d="M706.8,274.6v-10.3h1.5v1.6h0.1c0.2-0.5,0.5-1,1-1.3c0.5-0.3,1.1-0.5,1.7-0.5c1.2-0.1,2.3,0.6,2.8,1.7h0.1
	c0.3-0.5,0.7-1,1.2-1.3c0.6-0.3,1.2-0.5,1.9-0.5c0.8,0,1.6,0.3,2.2,0.9c0.6,0.7,1,1.7,0.9,2.7v6.9h-1.6v-6.9
	c0.1-0.6-0.2-1.2-0.6-1.6c-0.4-0.3-0.9-0.5-1.5-0.5c-0.6,0-1.2,0.2-1.7,0.6c-0.4,0.5-0.6,1-0.6,1.6v6.7h-1.6v-7
	c0-0.5-0.2-1.1-0.6-1.4c-0.4-0.4-0.9-0.6-1.5-0.5c-0.4,0-0.8,0.1-1.2,0.3c-0.4,0.2-0.7,0.5-0.8,0.9c-0.2,0.4-0.3,0.9-0.3,1.3v6.4
	L706.8,274.6z"/>
    <path class="st3" d="M727.3,274.8c-1.7,0-3.3-0.9-4.1-2.5c-0.4-0.9-0.6-1.8-0.6-2.8c0-1,0.2-1.9,0.6-2.8c0.4-0.8,0.9-1.4,1.6-1.9
	c2.1-1.3,4.9-0.7,6.2,1.4c0.1,0.2,0.2,0.3,0.3,0.5c0.4,0.9,0.6,1.8,0.6,2.8c0,1-0.2,1.9-0.6,2.8c-0.4,0.8-0.9,1.4-1.6,1.9
	C729,274.6,728.2,274.8,727.3,274.8z M727.3,273.4c0.6,0,1.2-0.2,1.7-0.5c0.5-0.4,0.8-0.9,1-1.4c0.2-0.6,0.3-1.3,0.3-1.9
	c0-0.7-0.1-1.3-0.3-1.9c-0.2-0.6-0.5-1.1-1-1.4c-0.5-0.4-1.1-0.6-1.7-0.5c-0.6,0-1.2,0.2-1.7,0.5c-0.5,0.4-0.8,0.9-1,1.4
	c-0.2,0.6-0.3,1.3-0.3,1.9c0,0.7,0.1,1.3,0.3,1.9c0.2,0.6,0.5,1.1,1,1.4C726.1,273.2,726.7,273.4,727.3,273.4L727.3,273.4z"/>
    <path class="st3" d="M734.4,274.6v-10.3h1.5v1.5h0.1c0.2-0.5,0.5-0.9,1-1.2c0.5-0.3,1.1-0.5,1.7-0.5c0.3,0,0.5,0,0.8,0.1
	c0.2,0.1,0.4,0.2,0.6,0.3l-0.5,1.3c-0.1-0.1-0.3-0.1-0.4-0.1c-0.2,0-0.3-0.1-0.5,0c-0.7,0-1.4,0.2-1.9,0.7c-0.5,0.4-0.7,1.1-0.7,1.7
	v6.5L734.4,274.6z"/>
    <path class="st3" d="M745.6,274.8c-0.9,0-1.8-0.2-2.5-0.7c-0.7-0.4-1.3-1.1-1.7-1.9c-0.4-0.9-0.6-1.8-0.6-2.8c0-1,0.2-1.9,0.6-2.8
	c0.3-0.8,0.9-1.4,1.6-1.9c0.7-0.5,1.6-0.7,2.4-0.7c0.5,0,1.1,0.1,1.6,0.3c0.5,0.2,1,0.5,1.4,0.9c0.4,0.4,0.8,1,1,1.6
	c0.3,0.8,0.4,1.6,0.4,2.4v0.7h-7.5c0,0.9,0.3,1.8,0.9,2.5c0.6,0.6,1.4,0.9,2.3,0.9c0.6,0,1.1-0.1,1.6-0.4c0.5-0.3,0.8-0.7,1-1.2
	l1.5,0.4c-0.2,0.8-0.8,1.4-1.5,1.9C747.4,274.6,746.5,274.8,745.6,274.8z M742.4,268.6h5.8c0-0.8-0.2-1.6-0.8-2.2
	c-0.5-0.6-1.3-0.9-2-0.9c-0.5,0-1.1,0.1-1.6,0.4c-0.4,0.3-0.8,0.7-1,1.1C742.6,267.6,742.4,268.1,742.4,268.6z"/>
    <polygon class="st4" points="172.6,171.6 99.3,171.6 99.3,98.7 172.6,98.7 135.8,135.2 "/>
    <path class="st2" d="M428.8,177.9h-220c-22.3,0-40.3-18-40.3-40.3l0,0l0,0c0-22.3,18-40.3,40.3-40.3l0,0h220
	c22.3,0,40.3,18,40.3,40.3l0,0C469.1,159.8,451.1,177.9,428.8,177.9z"/>
    <path class="st2" d="M706,177.9H515.6c-22.3,0-40.3-18-40.3-40.3l0,0c0-22.3,18-40.3,40.3-40.3H706c22.3,0,40.3,18,40.3,40.3l0,0
	C746.3,159.8,728.3,177.9,706,177.9z"/>
    <path class="st0" d="M515.7,157.1V118H529c2.6-0.1,5.2,0.5,7.5,1.7c1.9,1,3.4,2.6,4.4,4.5c0.9,2,1.4,4.1,1.4,6.3
	c0.1,2.2-0.4,4.3-1.4,6.3c-0.9,1.9-2.4,3.5-4.3,4.5c-2.4,1.2-5,1.7-7.6,1.6h-8.5v14.3H515.7z M520.5,138.7h8.5
	c3.1,0,5.4-0.8,6.7-2.4c2.7-3.5,2.7-8.3,0-11.8c-1.3-1.6-3.6-2.3-6.8-2.3h-8.3L520.5,138.7z"/>
    <path class="st0" d="M548.2,157.1v-29.4h4.4v4.5h0.4c0.5-1.5,1.5-2.7,2.9-3.6c1.4-0.9,3-1.4,4.7-1.3c0.7,0,1.4,0.1,2.2,0.2
	c0.6,0.1,1.1,0.4,1.6,0.8l-1.5,3.8c-0.4-0.2-0.7-0.3-1.2-0.4c-0.5-0.1-1-0.2-1.5-0.2c-2-0.1-3.9,0.7-5.3,2c-1.4,1.3-2.1,3-2.1,4.9
	v18.7L548.2,157.1z"/>
    <path class="st0" d="M579.2,157.8c-2.6,0.1-5.1-0.6-7.3-1.9c-2.1-1.2-3.7-3.1-4.7-5.3c-1.1-2.5-1.7-5.2-1.7-7.9
	c0-2.7,0.5-5.4,1.7-7.9c1-2.2,2.6-4.1,4.6-5.4c2.1-1.3,4.5-2,7-1.9c1.5,0,3.1,0.3,4.5,0.7c3.3,1.1,5.8,3.7,7,7
	c0.7,2.2,1.1,4.6,1.1,6.9v1.9h-21.3c0.1,3.1,1,5.6,2.6,7.2c1.7,1.7,4.1,2.6,6.5,2.5c1.6,0,3.2-0.4,4.5-1.1c1.3-0.8,2.3-2,2.7-3.5
	l4.4,1.2c-0.7,2.2-2.2,4.1-4.1,5.4C584.5,157.1,581.8,157.9,579.2,157.8z M570,140.1h16.7c0.1-2.3-0.7-4.5-2.2-6.2
	c-1.5-1.7-3.6-2.6-5.9-2.5c-1.6,0-3.1,0.4-4.5,1.2c-1.2,0.8-2.2,1.9-3,3.1C570.5,137.1,570.1,138.6,570,140.1z"/>
    <path class="st0" d="M621.1,127.8l-10.8,29.3h-4.5l-10.8-29.4h4.9l8.1,23.4h0.3l8.1-23.4L621.1,127.8L621.1,127.8z"/>
    <path class="st0" d="M630.2,123c-0.8,0-1.6-0.3-2.2-0.9c-0.6-0.5-0.9-1.3-0.9-2.1c0-0.8,0.3-1.6,0.9-2.2c0.6-0.6,1.4-0.9,2.2-0.9
	c0.8,0,1.7,0.3,2.2,0.9c0.6,0.5,0.9,1.3,0.9,2.2c0,0.8-0.3,1.6-0.9,2.2C631.8,122.7,631,123,630.2,123z M627.8,157.1v-29.3h4.5v29.4
	L627.8,157.1z"/>
    <path class="st0" d="M651.8,157.8c-2.6,0.1-5.1-0.6-7.3-1.9c-2.1-1.2-3.7-3.1-4.7-5.3c-1.1-2.5-1.7-5.2-1.7-7.9
	c0-2.7,0.5-5.4,1.7-7.9c1-2.2,2.6-4.1,4.6-5.4c2.1-1.3,4.5-2,7-1.9c1.5,0,3.1,0.3,4.5,0.7c3.3,1.1,5.9,3.7,7,7
	c0.8,2.2,1.2,4.6,1.1,6.9v1.9h-21.3c0.1,3.1,1,5.6,2.7,7.2c1.7,1.7,4.1,2.6,6.5,2.5c1.6,0,3.2-0.4,4.5-1.1c1.3-0.8,2.3-2,2.7-3.5
	l4.4,1.2c-0.7,2.2-2.2,4.1-4.1,5.4C657.1,157.1,654.5,157.9,651.8,157.8z M642.7,140.1h16.7c0.1-2.3-0.7-4.5-2.2-6.2
	c-1.5-1.7-3.6-2.6-5.9-2.5c-1.6,0-3.1,0.4-4.5,1.2c-1.2,0.8-2.2,1.9-3,3.1C643.2,137.1,642.8,138.6,642.7,140.1z"/>
    <path class="st0" d="M676.4,157.1l-8.9-29.4h4.7l6.4,22.5h0.3l6.3-22.5h4.8l6.2,22.4h0.3l6.4-22.4h4.7l-9,29.4h-4.5l-6.5-22.5h-0.5
	l-6.5,22.5H676.4z"/>
    <path class="st0" d="M382.7,118.1v39.1h-4.5v-32.3h-0.3c-0.4,0.5-0.9,0.9-1.4,1.2c-0.9,0.5-1.9,0.9-2.9,1.2c-1.3,0.4-2.6,0.5-4,0.5
	v-4c1.4,0,2.8-0.2,4-0.8c1-0.5,2-1.1,2.8-1.9c0.6-0.6,1.2-1.3,1.7-2c0.3-0.3,0.5-0.7,0.7-1.1h3.9L382.7,118.1z"/>
    <path class="st0" d="M394.1,157.4c-0.9,0-1.8-0.3-2.4-1c-1.3-1.3-1.3-3.5,0-4.8c0.6-0.6,1.5-1,2.4-1c0.9,0,1.8,0.3,2.4,1
	c0.6,0.6,1,1.5,1,2.4c0,0.9-0.3,1.8-1,2.4C395.9,157.1,395,157.4,394.1,157.4z"/>
    <path class="st0" d="M400.3,149.1v-3.9l17.2-27.2h5.7v26.9h5.4v4.2h-5.4v8h-4.5v-8L400.3,149.1z M418.8,145v-20.9h-0.3l-13,20.5v0.4
	H418.8z"/>
    <path class="st5" d="M822.2,179.3h-27.8c-22.6,0-41-18.4-41-41v-1.4c0-22.6,18.4-41,41-41h27.8c22.6,0,41,18.4,41,41v1.4
	C863.2,160.9,844.9,179.3,822.2,179.3z"/>
    <path class="st2" d="M787.4,137.6h33.3v-0.3l-12.6-12.6l3.1-3.1l18.2,18.2L811.2,158l-3.1-3l12.6-12.6v-0.3h-33.3V137.6z"/>
    <path class="st0" d="M234.9,127.7c-0.2-1.9-1.2-3.6-2.8-4.6c-1.8-1.1-3.9-1.7-6-1.6c-1.6,0-3.1,0.3-4.6,0.8c-1.2,0.5-2.2,1.3-3,2.3
	c-0.7,1-1.1,2.2-1.1,3.4c0,1,0.2,1.9,0.8,2.7c0.5,0.8,1.2,1.4,2,1.9c0.8,0.5,1.6,0.9,2.5,1.2c0.9,0.3,1.7,0.6,2.4,0.8l4,1.1
	c1.2,0.3,2.3,0.7,3.4,1.1c1.3,0.5,2.5,1.1,3.6,1.9c1.2,0.8,2.2,1.9,2.9,3.1c0.8,1.4,1.2,3,1.1,4.7c0,2-0.6,4.1-1.7,5.8
	c-1.2,1.8-2.9,3.2-4.9,4.1c-4.8,2-10.2,2-15,0.1c-1.9-0.8-3.6-2.1-4.9-3.8c-1.2-1.7-1.9-3.6-2-5.7h4.9c0.1,1.4,0.6,2.7,1.5,3.7
	c0.9,1,2,1.7,3.2,2.2c1.4,0.5,2.9,0.7,4.4,0.7c1.7,0,3.3-0.3,4.9-0.9c1.3-0.5,2.5-1.4,3.4-2.5c0.8-1.1,1.3-2.4,1.3-3.8
	c0-1.2-0.3-2.3-1.1-3.2c-0.8-0.9-1.8-1.6-2.9-2c-1.3-0.5-2.5-1-3.9-1.4l-4.9-1.4c-2.7-0.7-5.2-2-7.3-3.8c-1.8-1.6-2.8-4-2.7-6.4
	c0-2.1,0.6-4.1,1.8-5.8c1.3-1.7,2.9-3,4.9-3.8c2.2-0.9,4.5-1.4,6.8-1.4c2.3,0,4.6,0.4,6.8,1.3c1.9,0.8,3.5,2.1,4.7,3.7
	c1.2,1.5,1.8,3.4,1.8,5.3L234.9,127.7z"/>
    <path class="st0" d="M260.1,127.7v3.8h-15.3v-3.8H260.1z M249.2,120.6h4.5v28.2c-0.1,1,0.1,2,0.6,2.9c0.3,0.6,0.8,1,1.5,1.3
	c0.6,0.2,1.2,0.3,1.9,0.3c0.4,0,0.8,0,1.2-0.1l0.8-0.1l0.9,4.1c-0.4,0.2-0.9,0.3-1.3,0.4c-0.7,0.1-1.4,0.2-2.1,0.2
	c-1.3,0-2.6-0.3-3.8-0.8c-1.2-0.6-2.2-1.4-3-2.5c-0.8-1.3-1.3-2.8-1.2-4.3L249.2,120.6z"/>
    <path class="st0" d="M277.8,157.9c-2.3,0-4.6-0.6-6.5-1.9c-1.9-1.3-3.5-3.2-4.4-5.3c-1.1-2.6-1.7-5.3-1.6-8.1
	c-0.1-2.8,0.5-5.5,1.6-8.1c1-2.1,2.5-4,4.5-5.3c2-1.3,4.2-1.9,6.6-1.9c1.6-0.1,3.2,0.3,4.6,1c1,0.5,1.9,1.3,2.6,2.2
	c0.6,0.8,1.1,1.5,1.4,2h0.4v-14.6h4.5v39.4H287v-4.5h-0.5c-0.3,0.5-0.8,1.2-1.4,2c-0.7,0.9-1.6,1.6-2.6,2.2
	C281,157.6,279.4,158,277.8,157.9z M278.4,153.8c1.7,0.1,3.3-0.4,4.6-1.4c1.3-1,2.3-2.4,2.9-4c0.7-1.9,1-3.9,1-5.9
	c0-2-0.3-3.9-1-5.8c-0.6-1.5-1.5-2.9-2.9-3.9c-2.9-1.9-6.6-1.9-9.5,0.1c-1.3,1-2.3,2.4-2.9,4c-0.7,1.8-1,3.7-1,5.6
	c0,2,0.3,3.9,1,5.7c0.6,1.6,1.6,3,2.9,4.1C275,153.3,276.7,153.9,278.4,153.8L278.4,153.8z"/>
    <path class="st0" d="M304.7,117.9v39.4h-4.5v-39.4H304.7z"/>
    <path class="st0" d="M315.4,122.8c-0.8,0-1.7-0.3-2.3-0.9c-1.2-1.1-1.2-3-0.1-4.2c0,0,0.1-0.1,0.1-0.1c0.6-0.6,1.4-0.9,2.3-0.9
	c0.9,0,1.7,0.3,2.3,0.9c1.2,1.1,1.2,3,0.1,4.2c0,0-0.1,0.1-0.1,0.1C317,122.5,316.2,122.8,315.4,122.8z M313,157.3v-29.6h4.5v29.6
	H313z"/>
    <path class="st0" d="M326.5,157.3v-39.4h4.5v14.5h0.4c0.3-0.5,0.8-1.2,1.4-2c0.7-0.9,1.6-1.6,2.6-2.2c1.4-0.7,3-1.1,4.6-1
	c2.3,0,4.6,0.6,6.6,1.9c2,1.3,3.5,3.1,4.4,5.3c1.1,2.5,1.7,5.3,1.6,8.1c0.1,2.8-0.5,5.6-1.6,8.1c-0.9,2.1-2.5,4-4.4,5.3
	c-1.9,1.3-4.2,1.9-6.5,1.9c-1.6,0.1-3.1-0.3-4.5-0.9c-1-0.5-1.9-1.3-2.6-2.2c-0.6-0.8-1.1-1.5-1.4-2h-0.5v4.5L326.5,157.3z
	 M331,142.5c0,2,0.3,4,1,5.9c0.6,1.6,1.5,3,2.9,4c2.8,1.9,6.6,1.9,9.4-0.1c1.3-1.1,2.3-2.5,2.9-4.1c0.7-1.8,1-3.8,1-5.7
	c0-1.9-0.3-3.8-1-5.6c-0.6-1.6-1.6-3-2.9-4c-2.8-1.9-6.6-2-9.5-0.1c-1.3,1-2.3,2.3-2.8,3.9C331.3,138.5,331,140.5,331,142.5z"/>
</svg>