<svg viewBox="0 0 960 315" xmlns="http://www.w3.org/2000/svg"><path d="m0 0h960v315h-960z" fill="#ff722c"/><path d="m186.11 174.56h-88.6v-88.09h88.6l-44.5 44.09z" fill="#fff"/><path d="m294.81 182.17h-55.9a48.7 48.7 0 0 1 -48.7-48.7 48.7 48.7 0 0 1 48.7-48.7h55.9a48.7 48.7 0 0 1 48.7 48.7 48.7 48.7 0 0 1 -48.7 48.7z" fill="#27282c"/><path d="m632.81 182.17h-230.1a48.7 48.7 0 0 1 -48.7-48.7 48.7 48.7 0 0 1 48.7-48.7h230.1a48.7 48.7 0 0 1 48.7 48.7 48.7 48.7 0 0 1 -48.7 48.7z" fill="#27282c"/><path d="m402.81 157.07v-47.3h16a18.86 18.86 0 0 1 9.1 2 12.55 12.55 0 0 1 5.3 5.4 17.31 17.31 0 0 1 1.7 7.6 16 16 0 0 1 -1.7 7.6 12.31 12.31 0 0 1 -5.2 5.4 18.86 18.86 0 0 1 -9.1 2h-10.3v17.3zm5.8-22.3h10.2c3.8 0 6.5-1 8.1-2.9a11.7 11.7 0 0 0 0-14.2c-1.6-1.9-4.4-2.8-8.2-2.8h-10.1z" fill="#fff"/><path d="m442.11 157.07v-35.5h5.3v5.43h.4a8.15 8.15 0 0 1 3.5-4.3 10.16 10.16 0 0 1 5.7-1.61 10.3 10.3 0 0 1 2.6.31 5.56 5.56 0 0 1 1.9.89l-1.8 4.61a4.57 4.57 0 0 0 -1.4-.5 8.3 8.3 0 0 0 -1.8-.2 9 9 0 0 0 -6.4 2.39 7.82 7.82 0 0 0 -2.5 5.9v22.61z" fill="#fff"/><path d="m479.51 157.87a16.47 16.47 0 0 1 -8.8-2.3 14.23 14.23 0 0 1 -5.7-6.4 21.78 21.78 0 0 1 -2-9.5 22.56 22.56 0 0 1 2-9.6 15.48 15.48 0 0 1 5.6-6.5 14.73 14.73 0 0 1 8.4-2.3 17.59 17.59 0 0 1 5.5.9 13.61 13.61 0 0 1 8.4 8.5 25.1 25.1 0 0 1 1.3 8.39v2.31h-25.7c.1 3.8 1.2 6.69 3.2 8.69a10.55 10.55 0 0 0 7.8 3 10.79 10.79 0 0 0 5.5-1.39 7.42 7.42 0 0 0 3.3-4.2l5.3 1.5a11.82 11.82 0 0 1 -5 6.5 16.45 16.45 0 0 1 -9.1 2.4zm-11.1-21.4h20.2a11.21 11.21 0 0 0 -2.61-7.47 9 9 0 0 0 -7.1-3 9.51 9.51 0 0 0 -5.4 1.5 11.86 11.86 0 0 0 -3.6 3.8 12.41 12.41 0 0 0 -1.49 5.17z" fill="#fff"/><path d="m530.21 121.67-13.1 35.4h-5.5l-13.1-35.5h5.9l9.8 28.3h.4l9.8-28.3h5.8z" fill="#fff"/><path d="m541.11 115.87a3.69 3.69 0 0 1 -2.7-1.1 3.27 3.27 0 0 1 -1.1-2.6 3.63 3.63 0 0 1 1.1-2.6 4 4 0 0 1 2.7-1.1 3.69 3.69 0 0 1 2.7 1.1 3.27 3.27 0 0 1 1.1 2.6 3.65 3.65 0 0 1 -1.1 2.6 4 4 0 0 1 -2.7 1.1zm-2.8 41.2v-35.5h5.4v35.5z" fill="#fff"/><path d="m567.31 157.87a16.47 16.47 0 0 1 -8.8-2.3 14.23 14.23 0 0 1 -5.7-6.4 21.78 21.78 0 0 1 -2-9.5 22.56 22.56 0 0 1 2-9.6 15.48 15.48 0 0 1 5.6-6.5 14.73 14.73 0 0 1 8.4-2.3 17.59 17.59 0 0 1 5.5.9 13.61 13.61 0 0 1 8.4 8.5 22.79 22.79 0 0 1 1.3 8.39v2.31h-25.7c.1 3.8 1.2 6.69 3.2 8.69a10.55 10.55 0 0 0 7.8 3 10.79 10.79 0 0 0 5.5-1.39 7.42 7.42 0 0 0 3.3-4.2l5.3 1.5a11.82 11.82 0 0 1 -5 6.5 16.45 16.45 0 0 1 -9.1 2.4zm-11.1-21.4h20.2a11.21 11.21 0 0 0 -2.6-7.5 9 9 0 0 0 -7.1-3 9.51 9.51 0 0 0 -5.4 1.5 11.86 11.86 0 0 0 -3.6 3.8 16.27 16.27 0 0 0 -1.5 5.2z" fill="#fff"/><path d="m597 157.07-10.8-35.5h5.7l7.7 27.2h.4l7.6-27.2h5.8l7.5 27.1h.4l7.7-27.1h5.7l-10.9 35.5h-5.4l-7.8-27.2h-.6l-7.8 27.2z" fill="#fff"/><path d="m247.41 109.87v47.2h-5.41v-39h-.4a5.28 5.28 0 0 1 -1.7 1.5 14.9 14.9 0 0 1 -3.5 1.4 17.5 17.5 0 0 1 -4.8.6v-4.8a10.58 10.58 0 0 0 4.8-1 14.46 14.46 0 0 0 3.4-2.3 19.86 19.86 0 0 0 2.1-2.4 8.93 8.93 0 0 0 .8-1.3h4.7z" fill="#fff"/><path d="m261.21 157.47a3.85 3.85 0 0 1 -2.9-1.2 4.1 4.1 0 0 1 2.9-7 3.85 3.85 0 0 1 2.9 1.2 4 4 0 0 1 1.2 2.9 3.85 3.85 0 0 1 -1.2 2.9 4 4 0 0 1 -2.9 1.2z" fill="#fff"/><path d="m268.71 147.37v-4.7l20.8-32.9h6.9v32.5h6.5v5.1h-6.5v9.7h-5.41v-9.7zm22.3-5v-25.2h-.4l-15.7 24.83v.4z" fill="#fff"/><path d="m773.21 183.87h-33.6a49.48 49.48 0 0 1 -49.5-49.5v-1.7a49.48 49.48 0 0 1 49.5-49.5h33.6a49.48 49.48 0 0 1 49.5 49.5v1.7a49.55 49.55 0 0 1 -49.5 49.5z" fill="#fff"/><path d="m731.11 133.47h40.3v-.4l-15.2-15.2 3.7-3.7 22 22-22 22-3.7-3.7 15.2-15.2v-.4h-40.3z" fill="#27282c"/><rect fill="#fff" height="26.54" rx="12.65" width="138.84" x="134.37" y="234.11"/><path d="m146.18 253.41v-12.52h2.65v5.52h.17l4.51-5.52h3.17l-4.68 5.61 4.69 6.91h-3.16l-3.43-5.15-1.3 1.59v3.56z" fill="#27282c"/><path d="m161.59 253.59a4.74 4.74 0 0 1 -2.47-.61 4.05 4.05 0 0 1 -1.59-1.69 6 6 0 0 1 0-5.08 4 4 0 0 1 1.59-1.7 5.27 5.27 0 0 1 4.92 0 4 4 0 0 1 1.6 1.7 6 6 0 0 1 0 5.08 4 4 0 0 1 -1.64 1.71 4.71 4.71 0 0 1 -2.41.59zm0-2a1.62 1.62 0 0 0 1.46-.8 4.41 4.41 0 0 0 0-4.08 1.6 1.6 0 0 0 -1.46-.8 1.64 1.64 0 0 0 -1.49.8 4.41 4.41 0 0 0 0 4.08 1.66 1.66 0 0 0 1.5.78z" fill="#27282c"/><path d="m172.92 244v2h-1.76v4.52a.81.81 0 0 0 .24.72 1 1 0 0 0 .64.19 2.19 2.19 0 0 0 .36 0h.29l.41 1.94-.55.14a5 5 0 0 1 -.87.1 3.28 3.28 0 0 1 -2.27-.62 2.4 2.4 0 0 1 -.85-2v-4.99h-1.29v-2h1.29v-2.25h2.6v2.25z" fill="#27282c"/><path d="m177.45 240.89v12.52h-2.6v-12.52z" fill="#27282c"/><path d="m180.84 242.91a1.44 1.44 0 0 1 -1-.38 1.23 1.23 0 0 1 -.42-.94 1.2 1.2 0 0 1 .42-.93 1.47 1.47 0 0 1 2 0 1.17 1.17 0 0 1 .43.93 1.21 1.21 0 0 1 -.43.94 1.44 1.44 0 0 1 -1 .38zm-1.31 10.5v-9.41h2.6v9.39z" fill="#27282c"/><path d="m186.81 248v5.43h-2.6v-9.43h2.48v1.66h.11a2.64 2.64 0 0 1 1-1.3 3.12 3.12 0 0 1 1.77-.48 3.06 3.06 0 0 1 2.35.94 3.65 3.65 0 0 1 .89 2.59v6h-2.6v-5.52a1.93 1.93 0 0 0 -.44-1.34 1.58 1.58 0 0 0 -1.23-.49 1.69 1.69 0 0 0 -1.28.51 1.91 1.91 0 0 0 -.45 1.43z" fill="#27282c"/><path d="m204 240.89v12.52h-2.6v-9.28h-.12a1.91 1.91 0 0 1 -.85.62 3.93 3.93 0 0 1 -1.69.31v-2.06a2.71 2.71 0 0 0 1.41-.36 3 3 0 0 0 .94-.84 1.68 1.68 0 0 0 .36-.87z" fill="#27282c"/><path d="m208.53 253.56a1.43 1.43 0 0 1 -1-.42 1.4 1.4 0 0 1 -.43-1 1.37 1.37 0 0 1 .43-1 1.48 1.48 0 0 1 1-.41 1.47 1.47 0 0 1 1 .42 1.37 1.37 0 0 1 .44 1 1.41 1.41 0 0 1 -.44 1 1.47 1.47 0 0 1 -1 .41z" fill="#27282c"/><path d="m211.93 251.21v-2.09l5.22-8.23h3.32v8.2h1.53v2.12h-1.55v2.2h-2.53v-2.2zm6-2.12v-5.31h-.09l-3.3 5.21v.1z" fill="#27282c"/><path d="m235.36 247.18v1.82h-8.6v-1.86z" fill="#27282c"/><path d="m240.44 240.89h3.26l3.44 8.41h.15l3.45-8.41h3.26v12.52h-2.57v-8.15h-.1l-3.24 8.08h-1.75l-3.23-8.11h-.11v8.18h-2.56z" fill="#27282c"/><path d="m256.25 253.41v-1.91l4.45-4.12a11.57 11.57 0 0 0 1.3-1.38 2.32 2.32 0 0 0 .46-1.36 1.66 1.66 0 0 0 -.56-1.3 2 2 0 0 0 -1.39-.48 1.92 1.92 0 0 0 -1.39.51 1.87 1.87 0 0 0 -.54 1.42h-2.51a3.9 3.9 0 0 1 .57-2.13 3.71 3.71 0 0 1 1.58-1.4 5.16 5.16 0 0 1 2.31-.5 5 5 0 0 1 2.34.51 3.8 3.8 0 0 1 1.53 1.38 3.93 3.93 0 0 1 .25 3.47 5.92 5.92 0 0 1 -1 1.5 22.39 22.39 0 0 1 -1.77 1.79l-1.84 1.79v.08h5.11v2.17z" fill="#27282c"/><rect fill="#fff" height="26.54" rx="13.27" width="259.68" x="276.18" y="234.13"/><g fill="#27282c"><path d="m288.42 253.66v-12.51h1.52v5.57h6.67v-5.57h1.51v12.51h-1.51v-5.6h-6.67v5.6z"/><path d="m301.69 242.74a1 1 0 0 1 -.72-.29.92.92 0 0 1 0-1.38 1 1 0 0 1 1.44 0 .92.92 0 0 1 0 1.38 1 1 0 0 1 -.72.29zm-.69 10.92v-9.38h1.44v9.38z"/><path d="m309 253.86a4.28 4.28 0 0 1 -2.33-.61 3.91 3.91 0 0 1 -1.51-1.68 5.75 5.75 0 0 1 -.53-2.53 5.82 5.82 0 0 1 .53-2.54 4.11 4.11 0 0 1 1.48-1.73 4 4 0 0 1 2.22-.62 4.45 4.45 0 0 1 1.44.25 3.71 3.71 0 0 1 1.31.79 3.78 3.78 0 0 1 .93 1.45 6.13 6.13 0 0 1 .35 2.21v.61h-6.81a3.23 3.23 0 0 0 .85 2.3 2.82 2.82 0 0 0 2.07.8 2.71 2.71 0 0 0 1.46-.37 2.06 2.06 0 0 0 .89-1.09l1.39.39a3.13 3.13 0 0 1 -1.32 1.71 4.25 4.25 0 0 1 -2.42.66zm-2.92-5.65h5.34a2.91 2.91 0 0 0 -.69-2 2.39 2.39 0 0 0 -1.87-.78 2.57 2.57 0 0 0 -1.43.39 2.74 2.74 0 0 0 -1 1 3.23 3.23 0 0 0 -.38 1.39z"/><path d="m315.06 253.66v-9.38h1.39v1.41h.1a2.24 2.24 0 0 1 .92-1.13 2.75 2.75 0 0 1 1.52-.43 2.4 2.4 0 0 1 .69.09 2 2 0 0 1 .51.25l-.49 1.22a1.52 1.52 0 0 0 -.36-.12 2.12 2.12 0 0 0 -.47 0 2.4 2.4 0 0 0 -1.7.63 2 2 0 0 0 -.67 1.57v5.94z"/><path d="m324.42 253.88a3.7 3.7 0 0 1 -1.62-.34 2.71 2.71 0 0 1 -1.16-1 2.8 2.8 0 0 1 -.42-1.56 2.42 2.42 0 0 1 .31-1.31 2.23 2.23 0 0 1 .85-.79 4.15 4.15 0 0 1 1.18-.43 11.41 11.41 0 0 1 1.3-.23l1.39-.18a2.5 2.5 0 0 0 .78-.21.54.54 0 0 0 .25-.49 1.75 1.75 0 0 0 -2-1.93 2.6 2.6 0 0 0 -1.62.45 2.71 2.71 0 0 0 -.83 1l-1.37-.49a3.42 3.42 0 0 1 1-1.33 3.72 3.72 0 0 1 1.35-.67 5.61 5.61 0 0 1 1.44-.2 6 6 0 0 1 1 .11 3.41 3.41 0 0 1 1.14.44 2.53 2.53 0 0 1 .92 1 3.67 3.67 0 0 1 .37 1.79v6.18h-1.44v-1.27h-.08a2.35 2.35 0 0 1 -.49.65 2.72 2.72 0 0 1 -.91.6 3.55 3.55 0 0 1 -1.34.21zm.22-1.29a2.89 2.89 0 0 0 1.44-.34 2.26 2.26 0 0 0 .89-.87 2.15 2.15 0 0 0 .31-1.12v-1.32a.86.86 0 0 1 -.4.2c-.21.06-.45.11-.71.16l-.78.11-.61.07a5.46 5.46 0 0 0 -1 .24 1.89 1.89 0 0 0 -.79.48 1.43 1.43 0 0 0 .27 2 2.41 2.41 0 0 0 1.38.39z"/><path d="m331.36 253.66v-9.38h1.39v1.41h.1a2.19 2.19 0 0 1 .92-1.13 2.75 2.75 0 0 1 1.52-.43 2.4 2.4 0 0 1 .69.09 2 2 0 0 1 .51.25l-.49 1.22a1.52 1.52 0 0 0 -.36-.12 2.12 2.12 0 0 0 -.47 0 2.4 2.4 0 0 0 -1.7.63 2 2 0 0 0 -.67 1.57v5.94z"/><path d="m341.47 253.86a3.94 3.94 0 0 1 -3.73-2.34 6.29 6.29 0 0 1 0-5 4.22 4.22 0 0 1 1.48-1.72 4 4 0 0 1 2.22-.62 4.26 4.26 0 0 1 1.78.37 3.41 3.41 0 0 1 1.3 1 3.16 3.16 0 0 1 .63 1.54h-1.44a2.2 2.2 0 0 0 -2.25-1.64 2.47 2.47 0 0 0 -2 1 4 4 0 0 0 -.78 2.56 4.12 4.12 0 0 0 .77 2.61 2.47 2.47 0 0 0 2 1 2.39 2.39 0 0 0 1.45-.43 2.06 2.06 0 0 0 .8-1.21h1.44a3.3 3.3 0 0 1 -.6 1.5 3.42 3.42 0 0 1 -1.26 1.05 4.07 4.07 0 0 1 -1.81.33z"/><path d="m348.71 248v5.64h-1.45v-12.49h1.45v4.59h.12a2.64 2.64 0 0 1 1-1.15 3.63 3.63 0 0 1 4.09.43 3.61 3.61 0 0 1 .88 2.68v6h-1.44v-5.9a2.42 2.42 0 0 0 -.58-1.74 2.07 2.07 0 0 0 -1.6-.61 2.41 2.41 0 0 0 -1.76.67 2.48 2.48 0 0 0 -.71 1.88z"/><path d="m358.16 242.74a1 1 0 0 1 -.72-.29.94.94 0 0 1 0-1.38 1 1 0 0 1 .72-.29 1 1 0 0 1 .73.29.94.94 0 0 1 0 1.38 1 1 0 0 1 -.73.29zm-.73 10.92v-9.38h1.44v9.38z"/><path d="m365.32 253.86a4 4 0 0 1 -3.74-2.34 5.88 5.88 0 0 1 -.51-2.5 5.78 5.78 0 0 1 .53-2.53 4.22 4.22 0 0 1 1.48-1.72 4 4 0 0 1 2.22-.62 4.26 4.26 0 0 1 1.78.37 3.41 3.41 0 0 1 1.3 1 3.16 3.16 0 0 1 .63 1.54h-1.44a2.2 2.2 0 0 0 -2.25-1.64 2.47 2.47 0 0 0 -2 1 4 4 0 0 0 -.78 2.56 4.12 4.12 0 0 0 .77 2.61 2.47 2.47 0 0 0 2 1 2.39 2.39 0 0 0 1.45-.43 2.06 2.06 0 0 0 .8-1.21h1.44a3.3 3.3 0 0 1 -.6 1.5 3.42 3.42 0 0 1 -1.26 1.05 4.07 4.07 0 0 1 -1.82.36z"/><path d="m373.88 253.88a3.7 3.7 0 0 1 -1.62-.34 2.71 2.71 0 0 1 -1.16-1 2.8 2.8 0 0 1 -.43-1.56 2.42 2.42 0 0 1 .32-1.31 2.23 2.23 0 0 1 .85-.79 4.15 4.15 0 0 1 1.18-.43 11.41 11.41 0 0 1 1.3-.23l1.39-.18a2.5 2.5 0 0 0 .78-.21.54.54 0 0 0 .25-.49 1.75 1.75 0 0 0 -2-1.93 2.6 2.6 0 0 0 -1.62.45 2.71 2.71 0 0 0 -.83 1l-1.37-.49a3.33 3.33 0 0 1 1-1.33 3.72 3.72 0 0 1 1.35-.67 5.5 5.5 0 0 1 1.44-.2 6 6 0 0 1 1 .11 3.41 3.41 0 0 1 1.14.44 2.53 2.53 0 0 1 .92 1 3.78 3.78 0 0 1 .37 1.79v6.18h-1.44v-1.27h-.08a2.57 2.57 0 0 1 -.49.65 2.72 2.72 0 0 1 -.91.6 3.55 3.55 0 0 1 -1.34.21zm.22-1.29a2.89 2.89 0 0 0 1.44-.34 2.31 2.31 0 0 0 1.2-2v-1.32a.86.86 0 0 1 -.41.2c-.2.06-.44.11-.7.16l-.78.11-.61.07a5.46 5.46 0 0 0 -1 .24 1.89 1.89 0 0 0 -.79.48 1.43 1.43 0 0 0 .27 2 2.41 2.41 0 0 0 1.38.4z"/><path d="m382.26 241.15v12.51h-1.44v-12.51z"/><path d="m394 253.86a2.86 2.86 0 0 1 -1.45-.31 2.68 2.68 0 0 1 -.84-.69c-.19-.26-.35-.47-.45-.64h-.12v5h-1.44v-12.9h1.39v1.49h.17c.1-.17.25-.37.44-.63a2.59 2.59 0 0 1 .82-.68 3 3 0 0 1 1.45-.31 3.69 3.69 0 0 1 2.09.6 3.91 3.91 0 0 1 1.41 1.68 6.73 6.73 0 0 1 0 5.14 4 4 0 0 1 -1.4 1.69 3.64 3.64 0 0 1 -2.07.56zm-.2-1.3a2.35 2.35 0 0 0 1.51-.48 2.93 2.93 0 0 0 .92-1.29 5.26 5.26 0 0 0 .31-1.82 5.05 5.05 0 0 0 -.3-1.79 2.84 2.84 0 0 0 -.92-1.26 2.42 2.42 0 0 0 -1.52-.47 2.27 2.27 0 0 0 -2 1 4.32 4.32 0 0 0 -.69 2.55 4.38 4.38 0 0 0 .7 2.59 2.26 2.26 0 0 0 2.03.97z"/><path d="m400.22 253.66v-9.38h1.39v1.41h.1a2.24 2.24 0 0 1 .92-1.13 2.75 2.75 0 0 1 1.52-.43 2.4 2.4 0 0 1 .69.09 2 2 0 0 1 .51.25l-.49 1.22a1.52 1.52 0 0 0 -.36-.12 2.12 2.12 0 0 0 -.47 0 2.4 2.4 0 0 0 -1.7.63 2 2 0 0 0 -.67 1.57v5.94z"/><path d="m410.34 253.86a4.12 4.12 0 0 1 -2.23-.61 4 4 0 0 1 -1.49-1.69 5.65 5.65 0 0 1 -.54-2.54 5.71 5.71 0 0 1 .54-2.56 4 4 0 0 1 1.49-1.7 4.36 4.36 0 0 1 4.45 0 4 4 0 0 1 1.49 1.7 5.71 5.71 0 0 1 .54 2.56 5.65 5.65 0 0 1 -.54 2.54 4 4 0 0 1 -1.49 1.69 4.11 4.11 0 0 1 -2.22.61zm0-1.3a2.44 2.44 0 0 0 1.58-.49 2.91 2.91 0 0 0 .93-1.31 4.93 4.93 0 0 0 .3-1.74 5.08 5.08 0 0 0 -.3-1.76 2.91 2.91 0 0 0 -.93-1.31 2.76 2.76 0 0 0 -3.17 0 2.91 2.91 0 0 0 -.93 1.31 5.08 5.08 0 0 0 -.29 1.76 4.93 4.93 0 0 0 .29 1.74 2.91 2.91 0 0 0 .93 1.31 2.45 2.45 0 0 0 1.59.49z"/><path d="m416.79 244.28h1.44v10.07a3 3 0 0 1 -.67 2.06 2.54 2.54 0 0 1 -2 .77h-.29v-1.34h.27a1.13 1.13 0 0 0 1-.39 1.78 1.78 0 0 0 .31-1.1zm.7-1.54a1 1 0 0 1 -.72-.29.94.94 0 0 1 0-1.38 1.05 1.05 0 0 1 1.45 0 .94.94 0 0 1 0 1.38 1 1 0 0 1 -.73.29z"/><path d="m424.8 253.86a4.34 4.34 0 0 1 -2.34-.61 4 4 0 0 1 -1.5-1.68 5.61 5.61 0 0 1 -.53-2.53 5.68 5.68 0 0 1 .53-2.54 4.16 4.16 0 0 1 1.47-1.73 4 4 0 0 1 2.22-.62 4.51 4.51 0 0 1 1.45.25 3.58 3.58 0 0 1 1.3.79 3.8 3.8 0 0 1 .94 1.45 6.13 6.13 0 0 1 .35 2.21v.61h-6.82a3.27 3.27 0 0 0 .86 2.3 2.8 2.8 0 0 0 2.07.8 2.73 2.73 0 0 0 1.46-.37 2.11 2.11 0 0 0 .89-1.09l1.39.39a3.13 3.13 0 0 1 -1.32 1.71 4.27 4.27 0 0 1 -2.42.66zm-2.93-5.65h5.35a2.87 2.87 0 0 0 -.7-2 2.37 2.37 0 0 0 -1.87-.78 2.56 2.56 0 0 0 -1.42.39 2.66 2.66 0 0 0 -1 1 3.4 3.4 0 0 0 -.36 1.39z"/><path d="m434.7 253.86a4 4 0 0 1 -3.74-2.34 5.88 5.88 0 0 1 -.51-2.5 5.78 5.78 0 0 1 .52-2.53 4.29 4.29 0 0 1 1.48-1.72 4 4 0 0 1 2.22-.62 4.31 4.31 0 0 1 1.79.37 3.48 3.48 0 0 1 1.3 1 3.16 3.16 0 0 1 .63 1.54h-1.39a2.29 2.29 0 0 0 -.73-1.14 2.24 2.24 0 0 0 -1.52-.5 2.5 2.5 0 0 0 -2 1 4 4 0 0 0 -.77 2.56 4.11 4.11 0 0 0 .76 2.61 2.47 2.47 0 0 0 2.05 1 2.38 2.38 0 0 0 1.44-.43 2.12 2.12 0 0 0 .81-1.21h1.44a3.3 3.3 0 0 1 -.6 1.5 3.45 3.45 0 0 1 -1.27 1.05 4 4 0 0 1 -1.91.36z"/><path d="m444.57 244.28v1.22h-2v5.5a1.87 1.87 0 0 0 .18.92.89.89 0 0 0 .46.4 1.72 1.72 0 0 0 .6.1 2.06 2.06 0 0 0 .39 0h.25l.29 1.29a2 2 0 0 1 -.41.11 3 3 0 0 1 -.66.06 2.82 2.82 0 0 1 -1.2-.26 2.27 2.27 0 0 1 -1.35-2.16v-5.96h-1.41v-1.22h1.41v-2.28h1.45v2.25z"/><path d="m458.33 246.38-1.3.37a2.37 2.37 0 0 0 -.63-.92 1.94 1.94 0 0 0 -1.4-.43 2.41 2.41 0 0 0 -1.43.4 1.16 1.16 0 0 0 -.57 1 1 1 0 0 0 .39.85 3.27 3.27 0 0 0 1.22.52l1.4.34q2.49.62 2.49 2.55a2.36 2.36 0 0 1 -.46 1.44 3.12 3.12 0 0 1 -1.29 1 4.76 4.76 0 0 1 -1.92.37 4.16 4.16 0 0 1 -2.37-.63 2.71 2.71 0 0 1 -1.19-1.82l1.36-.34a2 2 0 0 0 2.18 1.52 2.64 2.64 0 0 0 1.6-.44 1.24 1.24 0 0 0 .6-1c0-.66-.47-1.1-1.39-1.32l-1.57-.37a3.66 3.66 0 0 1 -1.89-1 2.28 2.28 0 0 1 -.6-1.61 2.33 2.33 0 0 1 .45-1.41 3.06 3.06 0 0 1 1.23-1 4.32 4.32 0 0 1 1.76-.35 3.55 3.55 0 0 1 2.2.62 3.29 3.29 0 0 1 1.13 1.66z"/><path d="m464.75 244.28v1.22h-2v5.5a1.87 1.87 0 0 0 .18.92.91.91 0 0 0 .47.4 1.64 1.64 0 0 0 .6.1 2.06 2.06 0 0 0 .39 0h.24l.3 1.29a2.14 2.14 0 0 1 -.41.11 3.13 3.13 0 0 1 -.67.06 2.75 2.75 0 0 1 -1.19-.26 2.23 2.23 0 0 1 -1.35-2.16v-5.96h-1.42v-1.22h1.42v-2.28h1.44v2.25z"/><path d="m467 253.66v-9.38h1.39v1.41h.1a2.19 2.19 0 0 1 .92-1.13 2.75 2.75 0 0 1 1.52-.43 2.4 2.4 0 0 1 .69.09 2 2 0 0 1 .51.25l-.49 1.22a1.52 1.52 0 0 0 -.36-.12 2.12 2.12 0 0 0 -.47 0 2.38 2.38 0 0 0 -1.7.63 2 2 0 0 0 -.67 1.57v5.94z"/><path d="m479.54 249.82v-5.54h1.46v9.38h-1.44v-1.59h-.1a3.07 3.07 0 0 1 -1 1.22 3.25 3.25 0 0 1 -3.93-.38 3.68 3.68 0 0 1 -.86-2.67v-6h1.45v5.86a2.31 2.31 0 0 0 .57 1.64 2 2 0 0 0 1.48.61 2.45 2.45 0 0 0 2-1.12 2.58 2.58 0 0 0 .37-1.41z"/><path d="m487.43 253.86a4 4 0 0 1 -3.74-2.34 5.88 5.88 0 0 1 -.51-2.5 5.78 5.78 0 0 1 .53-2.53 4.15 4.15 0 0 1 1.48-1.72 4 4 0 0 1 2.22-.62 4.26 4.26 0 0 1 1.78.37 3.48 3.48 0 0 1 1.3 1 3.16 3.16 0 0 1 .63 1.54h-1.44a2.2 2.2 0 0 0 -2.25-1.64 2.5 2.5 0 0 0 -2 1 4 4 0 0 0 -.77 2.56 4.17 4.17 0 0 0 .76 2.61 2.48 2.48 0 0 0 2.05 1 2.41 2.41 0 0 0 1.45-.43 2.06 2.06 0 0 0 .8-1.21h1.44a3.3 3.3 0 0 1 -.6 1.5 3.37 3.37 0 0 1 -1.27 1.05 4 4 0 0 1 -1.86.36z"/><path d="m497.3 244.28v1.22h-2v5.5a1.87 1.87 0 0 0 .18.92.92.92 0 0 0 .46.4 1.74 1.74 0 0 0 .61.1 2.13 2.13 0 0 0 .39 0h.24l.3 1.29a2.14 2.14 0 0 1 -.41.11 3.13 3.13 0 0 1 -.67.06 2.82 2.82 0 0 1 -1.2-.26 2.24 2.24 0 0 1 -1.34-2.16v-5.96h-1.42v-1.22h1.42v-2.28h1.44v2.25z"/><path d="m505.49 249.82v-5.54h1.44v9.38h-1.44v-1.59h-.1a3.13 3.13 0 0 1 -1 1.22 3 3 0 0 1 -1.76.49 2.93 2.93 0 0 1 -2.18-.87 3.67 3.67 0 0 1 -.85-2.67v-6h1.4v5.86a2.27 2.27 0 0 0 .58 1.64 1.91 1.91 0 0 0 1.47.61 2.45 2.45 0 0 0 2-1.12 2.58 2.58 0 0 0 .44-1.41z"/><path d="m509.57 253.66v-9.38h1.43v1.41h.1a2.29 2.29 0 0 1 .92-1.13 2.75 2.75 0 0 1 1.52-.43 2.36 2.36 0 0 1 .69.09 1.86 1.86 0 0 1 .51.25l-.49 1.22a1.6 1.6 0 0 0 -.35-.12 2.28 2.28 0 0 0 -.48 0 2.4 2.4 0 0 0 -1.7.63 2.09 2.09 0 0 0 -.67 1.57v5.94z"/><path d="m519.81 253.86a4.32 4.32 0 0 1 -2.34-.61 4 4 0 0 1 -1.51-1.68 5.75 5.75 0 0 1 -.52-2.53 5.82 5.82 0 0 1 .52-2.54 4.26 4.26 0 0 1 1.48-1.73 4 4 0 0 1 2.22-.62 4.56 4.56 0 0 1 1.45.25 3.58 3.58 0 0 1 1.3.79 3.92 3.92 0 0 1 .94 1.45 6.13 6.13 0 0 1 .35 2.21v.61h-6.82a3.27 3.27 0 0 0 .86 2.3 2.8 2.8 0 0 0 2.07.8 2.73 2.73 0 0 0 1.46-.37 2 2 0 0 0 .88-1.09l1.4.39a3.13 3.13 0 0 1 -1.32 1.71 4.27 4.27 0 0 1 -2.42.66zm-2.93-5.65h5.35a2.87 2.87 0 0 0 -.7-2 2.37 2.37 0 0 0 -1.87-.78 2.6 2.6 0 0 0 -1.43.39 2.71 2.71 0 0 0 -1 1 3.4 3.4 0 0 0 -.35 1.39z"/></g><rect fill="#fff" height="26.54" rx="12.62" width="240.19" x="537.4" y="234.2"/><path d="m557.6 240.34v12.51h-1.47l-6.81-9.85h-.12v9.83h-1.52v-12.49h1.47l6.84 9.84h.12v-9.84z" fill="#27282c"/><path d="m564.37 253a4.43 4.43 0 0 1 -2.34-.6 4 4 0 0 1 -1.51-1.68 5.78 5.78 0 0 1 -.52-2.53 5.9 5.9 0 0 1 .52-2.55 4.29 4.29 0 0 1 1.48-1.64 4 4 0 0 1 2.22-.62 4.3 4.3 0 0 1 1.45.25 3.45 3.45 0 0 1 1.3.79 3.88 3.88 0 0 1 .94 1.44 6.22 6.22 0 0 1 .34 2.21v.61h-6.81a3.3 3.3 0 0 0 .86 2.31 2.8 2.8 0 0 0 2.07.8 2.73 2.73 0 0 0 1.46-.37 2.09 2.09 0 0 0 .89-1.1l1.39.39a3.15 3.15 0 0 1 -1.32 1.72 4.27 4.27 0 0 1 -2.42.57zm-2.93-5.64h5.35a2.85 2.85 0 0 0 -.7-2 2.38 2.38 0 0 0 -1.87-.78 2.59 2.59 0 0 0 -1.43.38 2.82 2.82 0 0 0 -.95 1 3.35 3.35 0 0 0 -.4 1.44z" fill="#27282c"/><path d="m572.58 252.85-2.86-9.39h1.52l2 7.19h.1l2-7.19h1.54l2 7.16h.1l2-7.16h1.52l-2.86 9.39h-1.42l-2-7.21h-.15l-2 7.21z" fill="#27282c"/><path d="m593.45 243.46v1.23h-2.1v8.16h-1.44v-8.16h-1.52v-1.23h1.52v-1.29a2.31 2.31 0 0 1 .37-1.35 2.43 2.43 0 0 1 1-.8 3.09 3.09 0 0 1 1.28-.27 3.38 3.38 0 0 1 .86.09 3.55 3.55 0 0 1 .5.15l-.41 1.25-.3-.09a1.78 1.78 0 0 0 -.51-.06 1.31 1.31 0 0 0 -1 .36 1.58 1.58 0 0 0 -.31 1.06v1z" fill="#27282c"/><path d="m596.92 240.34v12.51h-1.44v-12.51z" fill="#27282c"/><path d="m603.49 253a4.37 4.37 0 0 1 -2.33-.6 3.91 3.91 0 0 1 -1.51-1.68 5.64 5.64 0 0 1 -.53-2.53 5.76 5.76 0 0 1 .53-2.55 4.15 4.15 0 0 1 1.48-1.72 4 4 0 0 1 2.22-.62 4.24 4.24 0 0 1 1.44.25 3.57 3.57 0 0 1 1.31.79 3.74 3.74 0 0 1 .93 1.44 6.21 6.21 0 0 1 .35 2.21v.61h-6.81a3.25 3.25 0 0 0 .85 2.31 2.82 2.82 0 0 0 2.07.8 2.71 2.71 0 0 0 1.46-.37 2.09 2.09 0 0 0 .89-1.1l1.39.39a3.15 3.15 0 0 1 -1.32 1.72 4.25 4.25 0 0 1 -2.42.65zm-2.92-5.64h5.34a2.9 2.9 0 0 0 -.69-2 2.39 2.39 0 0 0 -1.87-.78 2.57 2.57 0 0 0 -1.43.38 2.85 2.85 0 0 0 -1 1 3.19 3.19 0 0 0 -.35 1.44z" fill="#27282c"/><path d="m610.41 243.46 2.25 3.84 2.24-3.84h1.67l-3 4.7 3 4.69h-1.67l-2.24-3.64-2.25 3.64h-1.66l3-4.69-3-4.7z" fill="#27282c"/><path d="m619.35 241.92a1 1 0 0 1 -.72-.28.94.94 0 0 1 0-1.38 1 1 0 0 1 .72-.29 1.05 1.05 0 0 1 .73.29.94.94 0 0 1 0 1.38 1 1 0 0 1 -.73.28zm-.73 10.93v-9.39h1.44v9.39z" fill="#27282c"/><path d="m622.7 252.85v-12.51h1.44v4.66h.12c.11-.16.26-.37.45-.62a2.61 2.61 0 0 1 .82-.69 2.93 2.93 0 0 1 1.45-.3 3.78 3.78 0 0 1 2.09.59 4 4 0 0 1 1.41 1.68 6.88 6.88 0 0 1 0 5.15 4 4 0 0 1 -1.41 1.69 3.64 3.64 0 0 1 -2.07.5 3 3 0 0 1 -1.45-.3 2.53 2.53 0 0 1 -.83-.69c-.2-.26-.35-.47-.46-.64h-.17v1.44zm1.42-4.69a4.48 4.48 0 0 0 .69 2.59 2.28 2.28 0 0 0 2 1 2.37 2.37 0 0 0 1.51-.48 2.89 2.89 0 0 0 .91-1.3 5 5 0 0 0 .31-1.81 5.05 5.05 0 0 0 -.3-1.79 2.83 2.83 0 0 0 -.91-1.27 2.43 2.43 0 0 0 -1.52-.46 2.3 2.3 0 0 0 -2 1 4.37 4.37 0 0 0 -.69 2.52z" fill="#27282c"/><path d="m634.62 240.34v12.51h-1.44v-12.51z" fill="#27282c"/><path d="m641.2 253a4.4 4.4 0 0 1 -2.34-.6 4 4 0 0 1 -1.51-1.68 5.78 5.78 0 0 1 -.53-2.53 5.9 5.9 0 0 1 .53-2.55 4.22 4.22 0 0 1 1.48-1.72 4 4 0 0 1 2.22-.62 4.3 4.3 0 0 1 1.45.25 3.45 3.45 0 0 1 1.3.79 3.88 3.88 0 0 1 .94 1.44 6.22 6.22 0 0 1 .34 2.21v.61h-6.81a3.3 3.3 0 0 0 .85 2.31 2.84 2.84 0 0 0 2.08.8 2.76 2.76 0 0 0 1.46-.37 2 2 0 0 0 .88-1.1l1.4.39a3.15 3.15 0 0 1 -1.32 1.72 4.27 4.27 0 0 1 -2.42.65zm-2.93-5.64h5.35a2.85 2.85 0 0 0 -.7-2 2.38 2.38 0 0 0 -1.87-.78 2.59 2.59 0 0 0 -1.43.38 2.82 2.82 0 0 0 -1 1 3.2 3.2 0 0 0 -.35 1.44z" fill="#27282c"/><path d="m656.42 253a3 3 0 0 1 -1.45-.3 2.53 2.53 0 0 1 -.83-.69 6.69 6.69 0 0 1 -.45-.64h-.13v5h-1.44v-12.91h1.39v1.54h.18c.1-.16.25-.37.44-.62a2.61 2.61 0 0 1 .82-.69 3 3 0 0 1 1.45-.3 3.78 3.78 0 0 1 2.09.59 4 4 0 0 1 1.41 1.68 6.88 6.88 0 0 1 0 5.15 4 4 0 0 1 -1.41 1.69 3.64 3.64 0 0 1 -2.07.5zm-.19-1.29a2.37 2.37 0 0 0 1.51-.48 2.89 2.89 0 0 0 .91-1.3 5 5 0 0 0 .31-1.81 5.05 5.05 0 0 0 -.3-1.79 2.83 2.83 0 0 0 -.91-1.27 2.41 2.41 0 0 0 -1.52-.46 2.3 2.3 0 0 0 -2 1 4.37 4.37 0 0 0 -.68 2.55 4.48 4.48 0 0 0 .69 2.59 2.28 2.28 0 0 0 1.99 1.01z" fill="#27282c"/><path d="m662.6 252.85v-9.39h1.4v1.42h.1a2.19 2.19 0 0 1 .92-1.13 2.73 2.73 0 0 1 1.52-.43 2.29 2.29 0 0 1 .68.09 1.67 1.67 0 0 1 .52.25l-.49 1.22a1.52 1.52 0 0 0 -.36-.12 2.19 2.19 0 0 0 -.47 0 2.38 2.38 0 0 0 -1.7.63 2 2 0 0 0 -.67 1.57v5.94z" fill="#27282c"/><path d="m672.72 253a4.11 4.11 0 0 1 -2.23-.6 4.16 4.16 0 0 1 -1.49-1.69 6.42 6.42 0 0 1 0-5.11 4.16 4.16 0 0 1 1.49-1.69 4.38 4.38 0 0 1 4.46 0 4.16 4.16 0 0 1 1.49 1.69 6.42 6.42 0 0 1 0 5.11 4.16 4.16 0 0 1 -1.49 1.69 4.11 4.11 0 0 1 -2.23.6zm0-1.29a2.5 2.5 0 0 0 1.59-.5 2.94 2.94 0 0 0 .92-1.3 5.25 5.25 0 0 0 0-3.5 3 3 0 0 0 -.92-1.31 2.78 2.78 0 0 0 -3.18 0 3 3 0 0 0 -.92 1.31 5.25 5.25 0 0 0 0 3.5 2.94 2.94 0 0 0 .92 1.3 2.5 2.5 0 0 0 1.59.54z" fill="#27282c"/><path d="m679.17 243.46h1.44v10.07a3.06 3.06 0 0 1 -.66 2.07 2.55 2.55 0 0 1 -2 .77h-.3v-1.37h.27a1.19 1.19 0 0 0 1-.38 1.79 1.79 0 0 0 .3-1.11zm.71-1.54a1 1 0 0 1 -.72-.28.94.94 0 0 1 0-1.38 1 1 0 0 1 .72-.29 1.05 1.05 0 0 1 .73.29.94.94 0 0 1 0 1.38 1 1 0 0 1 -.73.28z" fill="#27282c"/><path d="m687.19 253a4.38 4.38 0 0 1 -2.34-.6 4 4 0 0 1 -1.51-1.68 5.78 5.78 0 0 1 -.53-2.53 5.9 5.9 0 0 1 .53-2.55 4.22 4.22 0 0 1 1.48-1.72 4 4 0 0 1 2.22-.62 4.3 4.3 0 0 1 1.45.25 3.45 3.45 0 0 1 1.3.79 3.74 3.74 0 0 1 .93 1.44 6 6 0 0 1 .35 2.21v.61h-6.81a3.3 3.3 0 0 0 .85 2.31 2.84 2.84 0 0 0 2.08.8 2.76 2.76 0 0 0 1.46-.37 2.08 2.08 0 0 0 .88-1.1l1.4.39a3.15 3.15 0 0 1 -1.32 1.72 4.27 4.27 0 0 1 -2.42.65zm-2.93-5.64h5.35a2.9 2.9 0 0 0 -.7-2 2.38 2.38 0 0 0 -1.87-.78 2.57 2.57 0 0 0 -1.43.38 2.82 2.82 0 0 0 -1 1 3.2 3.2 0 0 0 -.35 1.44z" fill="#27282c"/><path d="m697.08 253a4 4 0 0 1 -2.27-.62 4.1 4.1 0 0 1 -1.46-1.72 5.7 5.7 0 0 1 -.52-2.5 5.76 5.76 0 0 1 .53-2.52 4.22 4.22 0 0 1 1.48-1.72 4 4 0 0 1 2.22-.62 4.11 4.11 0 0 1 1.78.37 3.5 3.5 0 0 1 1.31 1 3.33 3.33 0 0 1 .62 1.54h-1.44a2.24 2.24 0 0 0 -.73-1.13 2.16 2.16 0 0 0 -1.52-.5 2.47 2.47 0 0 0 -2 1 3.93 3.93 0 0 0 -.78 2.56 4.15 4.15 0 0 0 .77 2.61 2.47 2.47 0 0 0 2 1 2.4 2.4 0 0 0 1.45-.44 2.06 2.06 0 0 0 .8-1.2h1.44a3.31 3.31 0 0 1 -.6 1.49 3.35 3.35 0 0 1 -1.26 1.06 4.21 4.21 0 0 1 -1.82.34z" fill="#27282c"/><path d="m707 243.46v1.23h-2v5.47a1.8 1.8 0 0 0 .18.91.93.93 0 0 0 .47.41 2 2 0 0 0 .6.1 2.06 2.06 0 0 0 .39 0l.24-.05.3 1.3a3.27 3.27 0 0 1 -.41.11 3.13 3.13 0 0 1 -.67.06 3 3 0 0 1 -1.19-.26 2.5 2.5 0 0 1 -1-.8 2.32 2.32 0 0 1 -.38-1.36v-5.86h-1.42v-1.23h1.42v-2.24h1.47v2.24z" fill="#27282c"/><path d="m716.19 252.85-2.86-9.39h1.52l2 7.19h.1l2-7.19h1.54l2 7.16h.1l2-7.16h1.52l-2.86 9.39h-1.42l-2.05-7.21h-.15l-2 7.21z" fill="#27282c"/><path d="m728.78 241.92a1 1 0 0 1 -.73-.28.94.94 0 0 1 0-1.38 1.05 1.05 0 0 1 .73-.29 1 1 0 0 1 .72.29.94.94 0 0 1 0 1.38 1 1 0 0 1 -.72.28zm-.78 10.93v-9.39h1.45v9.39z" fill="#27282c"/><path d="m731.86 252.85v-1.1l5.32-6.84v-.1h-5.4v-1.35h7.22v1.15l-5.18 6.8v.09h5.28v1.35z" fill="#27282c"/><path d="m744.2 253.07a3.85 3.85 0 0 1 -1.62-.34 2.78 2.78 0 0 1 -1.16-1 2.81 2.81 0 0 1 -.42-1.57 2.47 2.47 0 0 1 .31-1.31 2.39 2.39 0 0 1 .85-.79 4.86 4.86 0 0 1 1.18-.43c.43-.09.86-.17 1.3-.23l1.39-.17a2.23 2.23 0 0 0 .78-.22.52.52 0 0 0 .25-.49 1.75 1.75 0 0 0 -2-1.93 2.6 2.6 0 0 0 -1.62.45 2.82 2.82 0 0 0 -.83 1l-1.36-.49a3.24 3.24 0 0 1 1-1.33 3.62 3.62 0 0 1 1.34-.68 5.29 5.29 0 0 1 2.48-.08 3.41 3.41 0 0 1 1.14.44 2.53 2.53 0 0 1 .92 1 3.67 3.67 0 0 1 .37 1.79v6.18h-1.44v-1.27h-.06a2.35 2.35 0 0 1 -.49.65 2.71 2.71 0 0 1 -.91.59 3.34 3.34 0 0 1 -1.4.23zm.22-1.3a2.89 2.89 0 0 0 1.44-.33 2.33 2.33 0 0 0 .89-.87 2.15 2.15 0 0 0 .31-1.12v-1.32a.91.91 0 0 1 -.4.2 5.86 5.86 0 0 1 -.71.15c-.27.05-.53.08-.78.11l-.61.08a6.35 6.35 0 0 0 -1 .23 1.81 1.81 0 0 0 -.79.49 1.43 1.43 0 0 0 .27 2 2.48 2.48 0 0 0 1.38.38z" fill="#27282c"/><path d="m751.14 252.85v-9.39h1.39v1.42h.1a2.19 2.19 0 0 1 .92-1.13 2.75 2.75 0 0 1 1.52-.43 2.4 2.4 0 0 1 .69.09 1.73 1.73 0 0 1 .51.25l-.49 1.22a1.52 1.52 0 0 0 -.36-.12 2.12 2.12 0 0 0 -.47 0 2.4 2.4 0 0 0 -1.7.63 2 2 0 0 0 -.67 1.57v5.94z" fill="#27282c"/><path d="m763.89 252.85v-1.44h-.17a6.69 6.69 0 0 1 -.45.64 2.57 2.57 0 0 1 -.84.69 3 3 0 0 1 -1.44.3 3.65 3.65 0 0 1 -2.08-.59 4.05 4.05 0 0 1 -1.4-1.69 6.76 6.76 0 0 1 0-5.15 4 4 0 0 1 1.41-1.68 3.76 3.76 0 0 1 2.09-.59 3 3 0 0 1 1.45.3 2.61 2.61 0 0 1 .82.69c.19.25.34.46.44.62h.12v-4.61h1.45v12.51zm-.71-7.24a2.27 2.27 0 0 0 -2-1 2.41 2.41 0 0 0 -1.52.46 2.83 2.83 0 0 0 -.91 1.27 4.84 4.84 0 0 0 -.31 1.79 5.21 5.21 0 0 0 .31 1.81 2.91 2.91 0 0 0 .92 1.3 2.35 2.35 0 0 0 1.51.48 2.29 2.29 0 0 0 2-1 4.48 4.48 0 0 0 .69-2.59 4.3 4.3 0 0 0 -.69-2.52z" fill="#27282c"/><rect fill="#fff" height="26.54" rx="12.62" width="113.1" x="542.11" y="264.66"/><path d="m552.9 283.31h-1.59l4.59-12.51h1.56l4.6 12.51h-1.59l-1.26-3.55h-5.06zm1.73-4.89h4.11l-2-5.65h-.1z" fill="#27282c"/><path d="m565.26 277.66v5.65h-1.44v-9.39h1.39v1.47h.12a2.67 2.67 0 0 1 1-1.15 3.53 3.53 0 0 1 4 .43 3.67 3.67 0 0 1 .88 2.67v6h-1.44v-5.87a2.43 2.43 0 0 0 -.58-1.72 2 2 0 0 0 -1.58-.62 2.38 2.38 0 0 0 -1.71.66 2.57 2.57 0 0 0 -.64 1.87z" fill="#27282c"/><path d="m580.34 283.31v-1.45h-.17a7.67 7.67 0 0 1 -.46.65 2.53 2.53 0 0 1 -.83.69 3 3 0 0 1 -1.45.3 3.72 3.72 0 0 1 -2.07-.59 4 4 0 0 1 -1.41-1.69 6.88 6.88 0 0 1 0-5.15 4 4 0 0 1 1.41-1.68 3.78 3.78 0 0 1 2.09-.59 3 3 0 0 1 1.45.3 2.48 2.48 0 0 1 .82.69c.19.25.34.46.45.62h.12v-4.61h1.44v12.51zm-.71-7.24a2.3 2.3 0 0 0 -2-1 2.43 2.43 0 0 0 -1.52.46 2.91 2.91 0 0 0 -.91 1.27 5.46 5.46 0 0 0 0 3.6 2.89 2.89 0 0 0 .91 1.3 2.37 2.37 0 0 0 1.51.48 2.3 2.3 0 0 0 2-1 4.49 4.49 0 0 0 .69-2.6 4.36 4.36 0 0 0 -.68-2.51z" fill="#27282c"/><path d="m589.21 283.31v-9.39h1.39v1.47h.12a2.39 2.39 0 0 1 .95-1.17 2.85 2.85 0 0 1 1.57-.42 2.72 2.72 0 0 1 1.55.42 2.89 2.89 0 0 1 1 1.17h.09a2.71 2.71 0 0 1 1.09-1.16 3.25 3.25 0 0 1 1.72-.43 2.79 2.79 0 0 1 2.06.79 3.25 3.25 0 0 1 .8 2.44v6.28h-1.44v-6.31a1.78 1.78 0 0 0 -.57-1.49 2.07 2.07 0 0 0 -1.33-.44 2 2 0 0 0 -1.54.59 2.17 2.17 0 0 0 -.54 1.51v6.11h-1.47v-6.43a1.69 1.69 0 0 0 -.52-1.29 1.84 1.84 0 0 0 -1.33-.49 1.94 1.94 0 0 0 -1 .3 2.12 2.12 0 0 0 -.78.82 2.45 2.45 0 0 0 -.3 1.22v5.87z" fill="#27282c"/><path d="m608 283.5a4 4 0 0 1 -3.71-2.29 6.31 6.31 0 0 1 0-5.11 4.12 4.12 0 0 1 7.43 0 6.31 6.31 0 0 1 0 5.11 4 4 0 0 1 -3.72 2.29zm0-1.29a2.46 2.46 0 0 0 1.59-.5 2.88 2.88 0 0 0 .93-1.3 5.43 5.43 0 0 0 0-3.5 2.91 2.91 0 0 0 -.93-1.31 2.76 2.76 0 0 0 -3.17 0 2.91 2.91 0 0 0 -.93 1.31 5.25 5.25 0 0 0 0 3.5 2.88 2.88 0 0 0 .93 1.3 2.45 2.45 0 0 0 1.58.5z" fill="#27282c"/><path d="m614.43 283.31v-9.39h1.39v1.42h.1a2.19 2.19 0 0 1 .92-1.13 2.73 2.73 0 0 1 1.52-.43 2.29 2.29 0 0 1 .68.09 1.67 1.67 0 0 1 .52.25l-.49 1.22a1.52 1.52 0 0 0 -.36-.12 1.65 1.65 0 0 0 -.47-.05 2.38 2.38 0 0 0 -1.7.63 2 2 0 0 0 -.67 1.57v5.94z" fill="#27282c"/><path d="m624.66 283.5a4.37 4.37 0 0 1 -2.33-.6 3.88 3.88 0 0 1 -1.51-1.69 5.7 5.7 0 0 1 -.53-2.52 5.9 5.9 0 0 1 .53-2.55 4.08 4.08 0 0 1 1.48-1.72 4 4 0 0 1 2.22-.62 4.3 4.3 0 0 1 1.45.25 3.53 3.53 0 0 1 1.3.79 3.74 3.74 0 0 1 .93 1.44 6.21 6.21 0 0 1 .35 2.21v.61h-6.81a3.25 3.25 0 0 0 .85 2.31 2.84 2.84 0 0 0 2.07.8 2.71 2.71 0 0 0 1.46-.37 2 2 0 0 0 .89-1.1l1.39.39a3.15 3.15 0 0 1 -1.32 1.72 4.33 4.33 0 0 1 -2.42.65zm-2.92-5.64h5.34a2.88 2.88 0 0 0 -.69-2 2.39 2.39 0 0 0 -1.87-.78 2.57 2.57 0 0 0 -1.43.38 2.82 2.82 0 0 0 -1 1 3.07 3.07 0 0 0 -.35 1.4z" fill="#27282c"/><path d="m631.8 283.4a1 1 0 0 1 -.78-.32 1.06 1.06 0 0 1 -.32-.78 1 1 0 0 1 .33-.76 1.11 1.11 0 0 1 1.55 0 1 1 0 0 1 .32.75 1.06 1.06 0 0 1 -.32.78 1 1 0 0 1 -.78.33z" fill="#27282c"/><path d="m636.54 283.4a1.09 1.09 0 0 1 -1.1-1.1 1 1 0 0 1 .33-.76 1.08 1.08 0 0 1 .77-.31 1.06 1.06 0 0 1 .78.32 1 1 0 0 1 .32.75 1.06 1.06 0 0 1 -.32.78 1 1 0 0 1 -.78.32z" fill="#27282c"/><path d="m641.28 283.4a1.09 1.09 0 0 1 -1.1-1.1 1 1 0 0 1 .33-.76 1.08 1.08 0 0 1 .77-.31 1.06 1.06 0 0 1 .78.32 1 1 0 0 1 .32.75 1.06 1.06 0 0 1 -.32.78 1 1 0 0 1 -.78.32z" fill="#27282c"/><rect fill="#fff" height="26.54" rx="13.27" width="266.77" x="274.22" y="264.7"/><path d="m289.91 283.67v-12.51h7.55v1.34h-6v4.23h5.65v1.34h-5.65v4.25h6.14v1.35z" fill="#27282c"/><path d="m301.08 274.28 2.24 3.84 2.25-3.84h1.66l-3 4.7 3 4.69h-1.66l-2.25-3.67-2.24 3.64h-1.67l3-4.69-3-4.7z" fill="#27282c"/><path d="m313.59 283.86a3 3 0 0 1 -1.45-.3 2.68 2.68 0 0 1 -.84-.69c-.19-.26-.34-.47-.45-.64h-.12v5h-1.44v-12.95h1.39v1.49h.17c.11-.16.25-.37.44-.62a2.73 2.73 0 0 1 .82-.69 3 3 0 0 1 1.45-.3 3.69 3.69 0 0 1 2.09.6 3.81 3.81 0 0 1 1.41 1.67 6.76 6.76 0 0 1 0 5.15 3.91 3.91 0 0 1 -1.4 1.69 3.64 3.64 0 0 1 -2.07.59zm-.2-1.29a2.35 2.35 0 0 0 1.51-.48 2.91 2.91 0 0 0 .92-1.3 5 5 0 0 0 .31-1.81 5.05 5.05 0 0 0 -.3-1.79 2.9 2.9 0 0 0 -.91-1.26 2.41 2.41 0 0 0 -1.53-.47 2.27 2.27 0 0 0 -2 1 4.32 4.32 0 0 0 -.69 2.55 4.48 4.48 0 0 0 .7 2.59 2.27 2.27 0 0 0 1.99.97z" fill="#27282c"/><path d="m321.21 271.16v12.51h-1.44v-12.51z" fill="#27282c"/><path d="m324.58 272.74a1 1 0 0 1 -.72-.28.94.94 0 0 1 0-1.38 1 1 0 0 1 .72-.29 1 1 0 0 1 .73.29.94.94 0 0 1 0 1.38 1 1 0 0 1 -.73.28zm-.73 10.93v-9.39h1.44v9.39z" fill="#27282c"/><path d="m331.74 283.86a4 4 0 0 1 -2.27-.62 4.1 4.1 0 0 1 -1.46-1.72 5.7 5.7 0 0 1 -.52-2.5 5.76 5.76 0 0 1 .53-2.52 4.22 4.22 0 0 1 1.48-1.72 4 4 0 0 1 2.22-.62 4.11 4.11 0 0 1 1.78.37 3.38 3.38 0 0 1 1.3 1 3.23 3.23 0 0 1 .63 1.55h-1.43a2.22 2.22 0 0 0 -.73-1.14 2.16 2.16 0 0 0 -1.52-.5 2.47 2.47 0 0 0 -2 1 3.93 3.93 0 0 0 -.78 2.56 4.15 4.15 0 0 0 .77 2.61 2.63 2.63 0 0 0 3.49.55 2.09 2.09 0 0 0 .8-1.21h1.44a3.32 3.32 0 0 1 -1.86 2.55 4.21 4.21 0 0 1 -1.87.36z" fill="#27282c"/><path d="m338.27 272.74a1 1 0 0 1 -.73-.28.94.94 0 0 1 0-1.38 1.05 1.05 0 0 1 .73-.29 1 1 0 0 1 .72.29.94.94 0 0 1 0 1.38 1 1 0 0 1 -.72.28zm-.74 10.93v-9.39h1.47v9.39z" fill="#27282c"/><path d="m345.7 274.28v1.23h-2v5.49a1.8 1.8 0 0 0 .18.91.88.88 0 0 0 .47.41 2 2 0 0 0 .6.1 2.06 2.06 0 0 0 .39 0l.24-.05.3 1.3a3.27 3.27 0 0 1 -.41.11 3.13 3.13 0 0 1 -.67.06 3 3 0 0 1 -1.19-.26 2.42 2.42 0 0 1 -1-.8 2.32 2.32 0 0 1 -.38-1.36v-5.86h-1.42v-1.23h1.42v-2.33h1.44v2.24z" fill="#27282c"/><path d="m353.52 283.67h-1.59l4.59-12.51h1.57l4.59 12.51h-1.59l-1.26-3.55h-5.05zm1.73-4.89h4.11l-2-5.64h-.09z" fill="#27282c"/><path d="m364.63 283.67v-12.51h4.23a5 5 0 0 1 2.42.52 3.41 3.41 0 0 1 1.39 1.43 4.3 4.3 0 0 1 .44 2 4.36 4.36 0 0 1 -.44 2 3.36 3.36 0 0 1 -1.39 1.43 4.72 4.72 0 0 1 -2.39.54h-2.74v4.57zm1.52-5.92h2.69a2.71 2.71 0 0 0 2.16-.75 2.64 2.64 0 0 0 -2.18-4.5h-2.66z" fill="#27282c"/><path d="m377.07 271.16v12.51h-1.51v-12.51z" fill="#27282c"/><path d="m384.75 283.67v-9.39h1.39v1.47h.12a2.39 2.39 0 0 1 .95-1.17 2.83 2.83 0 0 1 1.57-.42 2.72 2.72 0 0 1 1.55.42 2.79 2.79 0 0 1 1 1.17h.1a2.8 2.8 0 0 1 1.08-1.16 3.39 3.39 0 0 1 1.73-.43 2.79 2.79 0 0 1 2.06.79 3.29 3.29 0 0 1 .8 2.44v6.28h-1.44v-6.28a1.79 1.79 0 0 0 -.57-1.49 2.14 2.14 0 0 0 -1.34-.44 2 2 0 0 0 -1.53.59 2.17 2.17 0 0 0 -.54 1.51v6.11h-1.47v-6.43a1.69 1.69 0 0 0 -.52-1.29 1.84 1.84 0 0 0 -1.34-.49 1.93 1.93 0 0 0 -1 .3 2.22 2.22 0 0 0 -.79.82 2.56 2.56 0 0 0 -.29 1.22v5.87z" fill="#27282c"/><path d="m403.51 283.86a4.08 4.08 0 0 1 -2.22-.6 4 4 0 0 1 -1.49-1.69 6.29 6.29 0 0 1 0-5.1 4 4 0 0 1 3.71-2.31 4 4 0 0 1 3.72 2.31 6.29 6.29 0 0 1 0 5.1 4 4 0 0 1 -3.72 2.29zm0-1.29a2.46 2.46 0 0 0 1.59-.5 2.87 2.87 0 0 0 .92-1.3 5.25 5.25 0 0 0 0-3.5 2.9 2.9 0 0 0 -.92-1.31 2.4 2.4 0 0 0 -1.59-.5 2.44 2.44 0 0 0 -1.59.5 3 3 0 0 0 -.92 1.31 5.25 5.25 0 0 0 0 3.5 2.94 2.94 0 0 0 .92 1.3 2.5 2.5 0 0 0 1.59.5z" fill="#27282c"/><path d="m416.42 283.67v-1.44h-.18a6.69 6.69 0 0 1 -.45.64 2.47 2.47 0 0 1 -.84.69 3 3 0 0 1 -1.44.3 3.62 3.62 0 0 1 -2.07-.59 4 4 0 0 1 -1.41-1.69 6.76 6.76 0 0 1 0-5.15 3.94 3.94 0 0 1 1.41-1.67 3.71 3.71 0 0 1 2.09-.6 3 3 0 0 1 1.45.3 2.61 2.61 0 0 1 .82.69c.19.25.34.46.44.62h.13v-4.61h1.44v12.51zm-.71-7.24a2.3 2.3 0 0 0 -2-1 2.36 2.36 0 0 0 -1.52.47 2.75 2.75 0 0 0 -.91 1.26 5.05 5.05 0 0 0 -.28 1.84 5.21 5.21 0 0 0 .3 1.81 3 3 0 0 0 .92 1.3 2.37 2.37 0 0 0 1.51.48 2.28 2.28 0 0 0 2-1 4.48 4.48 0 0 0 .69-2.59 4.39 4.39 0 0 0 -.71-2.57z" fill="#27282c"/><path d="m424.38 283.86a4.43 4.43 0 0 1 -2.34-.6 4 4 0 0 1 -1.5-1.68 6.33 6.33 0 0 1 0-5.07 4.16 4.16 0 0 1 1.47-1.73 4 4 0 0 1 2.23-.62 4.24 4.24 0 0 1 1.44.25 3.45 3.45 0 0 1 1.3.79 3.65 3.65 0 0 1 .94 1.44 6.21 6.21 0 0 1 .35 2.21v.62h-6.81a3.24 3.24 0 0 0 .85 2.3 2.8 2.8 0 0 0 2.07.8 2.73 2.73 0 0 0 1.46-.37 2.09 2.09 0 0 0 .89-1.1l1.39.39a3.15 3.15 0 0 1 -1.32 1.72 4.27 4.27 0 0 1 -2.42.65zm-2.92-5.64h5.34a2.85 2.85 0 0 0 -.7-2 2.36 2.36 0 0 0 -1.86-.78 2.65 2.65 0 0 0 -1.43.38 2.76 2.76 0 0 0 -1 1 3.19 3.19 0 0 0 -.35 1.4z" fill="#27282c"/><path d="m439.48 274.28v1.23h-2.1v8.16h-1.44v-8.16h-1.51v-1.23h1.51v-1.28a2.31 2.31 0 0 1 .38-1.35 2.4 2.4 0 0 1 1-.8 3.13 3.13 0 0 1 1.28-.27 3.52 3.52 0 0 1 .87.09 4 4 0 0 1 .5.15l-.42 1.25-.3-.09a1.75 1.75 0 0 0 -.5-.06 1.3 1.3 0 0 0 -1 .36 1.58 1.58 0 0 0 -.32 1.06v.95z" fill="#27282c"/><path d="m444.93 283.86a4.08 4.08 0 0 1 -2.22-.6 4 4 0 0 1 -1.49-1.69 6.29 6.29 0 0 1 0-5.1 4 4 0 0 1 3.71-2.31 4 4 0 0 1 3.72 2.31 6.29 6.29 0 0 1 0 5.1 4 4 0 0 1 -3.72 2.29zm0-1.29a2.46 2.46 0 0 0 1.59-.5 2.87 2.87 0 0 0 .92-1.3 5.25 5.25 0 0 0 0-3.5 2.9 2.9 0 0 0 -.92-1.31 2.4 2.4 0 0 0 -1.59-.5 2.44 2.44 0 0 0 -1.59.5 3 3 0 0 0 -.92 1.31 5.25 5.25 0 0 0 0 3.5 2.94 2.94 0 0 0 .92 1.3 2.5 2.5 0 0 0 1.59.5z" fill="#27282c"/><path d="m451.38 283.67v-9.39h1.4v1.42h.09a2.26 2.26 0 0 1 .93-1.13 2.7 2.7 0 0 1 1.52-.43 2.29 2.29 0 0 1 .68.09 1.67 1.67 0 0 1 .52.25l-.52 1.22a1.52 1.52 0 0 0 -.36-.12 2.19 2.19 0 0 0 -.47-.05 2.38 2.38 0 0 0 -1.7.63 2 2 0 0 0 -.67 1.57v5.94z" fill="#27282c"/><path d="m464.26 271.16v12.51h-1.44v-12.51z" fill="#27282c"/><path d="m467.63 272.74a1 1 0 0 1 -.72-.28.94.94 0 0 1 0-1.38 1 1 0 0 1 .72-.29 1 1 0 0 1 .73.29.94.94 0 0 1 0 1.38 1 1 0 0 1 -.73.28zm-.73 10.93v-9.39h1.44v9.39z" fill="#27282c"/><path d="m471 283.67v-12.51h1.44v4.61h.13c.1-.16.25-.37.44-.62a2.61 2.61 0 0 1 .82-.69 3 3 0 0 1 1.45-.3 3.71 3.71 0 0 1 2.09.6 3.94 3.94 0 0 1 1.41 1.67 6.76 6.76 0 0 1 0 5.15 4 4 0 0 1 -1.41 1.69 3.59 3.59 0 0 1 -2.07.59 3 3 0 0 1 -1.45-.3 2.53 2.53 0 0 1 -.83-.69 6.69 6.69 0 0 1 -.45-.64h-.18v1.44zm1.4-4.67a4.48 4.48 0 0 0 .69 2.59 2.29 2.29 0 0 0 2 1 2.37 2.37 0 0 0 1.51-.48 3 3 0 0 0 .92-1.3 5.21 5.21 0 0 0 .3-1.81 5.05 5.05 0 0 0 -.3-1.79 2.75 2.75 0 0 0 -.91-1.26 2.36 2.36 0 0 0 -1.52-.47 2.3 2.3 0 0 0 -2 1 4.39 4.39 0 0 0 -.69 2.52z" fill="#27282c"/><path d="m481.47 283.67v-9.39h1.39v1.42h.1a2.19 2.19 0 0 1 .92-1.13 2.73 2.73 0 0 1 1.52-.43 2.29 2.29 0 0 1 .68.09 1.67 1.67 0 0 1 .52.25l-.49 1.22a1.52 1.52 0 0 0 -.36-.12 2.19 2.19 0 0 0 -.47-.05 2.38 2.38 0 0 0 -1.7.63 2 2 0 0 0 -.67 1.57v5.94z" fill="#27282c"/><path d="m490.82 283.89a3.83 3.83 0 0 1 -1.61-.34 2.78 2.78 0 0 1 -1.16-1 2.81 2.81 0 0 1 -.43-1.57 2.47 2.47 0 0 1 .32-1.31 2.31 2.31 0 0 1 .85-.79 4.71 4.71 0 0 1 1.18-.43c.43-.09.86-.17 1.29-.23l1.39-.17a2.23 2.23 0 0 0 .79-.22.51.51 0 0 0 .24-.49 1.74 1.74 0 0 0 -2-1.93 2.53 2.53 0 0 0 -1.61.46 2.61 2.61 0 0 0 -.83 1l-1.37-.49a3.33 3.33 0 0 1 1-1.33 3.74 3.74 0 0 1 1.35-.68 5.92 5.92 0 0 1 1.43-.19 6.15 6.15 0 0 1 1.05.11 3.41 3.41 0 0 1 1.14.44 2.6 2.6 0 0 1 .92 1 3.78 3.78 0 0 1 .37 1.79v6.18h-1.45v-1.3h-.07a2.57 2.57 0 0 1 -.49.65 2.81 2.81 0 0 1 -.91.59 3.39 3.39 0 0 1 -1.39.25zm.22-1.3a2.93 2.93 0 0 0 1.45-.33 2.4 2.4 0 0 0 .89-.87 2.24 2.24 0 0 0 .3-1.12v-1.27a.85.85 0 0 1 -.4.2 5.14 5.14 0 0 1 -.71.15c-.26.05-.52.08-.77.11l-.61.08a6.72 6.72 0 0 0 -1.05.23 1.83 1.83 0 0 0 -.78.49 1.21 1.21 0 0 0 -.29.87 1.27 1.27 0 0 0 .55 1.13 2.45 2.45 0 0 0 1.38.33z" fill="#27282c"/><path d="m497.76 283.67v-9.39h1.4v1.42h.09a2.26 2.26 0 0 1 .93-1.13 2.73 2.73 0 0 1 1.52-.43 2.29 2.29 0 0 1 .68.09 1.67 1.67 0 0 1 .52.25l-.49 1.22a1.52 1.52 0 0 0 -.36-.12 2.19 2.19 0 0 0 -.47-.05 2.38 2.38 0 0 0 -1.7.63 2 2 0 0 0 -.67 1.57v5.94z" fill="#27282c"/><path d="m505.1 272.74a1 1 0 0 1 -.73-.28.94.94 0 0 1 0-1.38 1.05 1.05 0 0 1 1.45 0 .94.94 0 0 1 0 1.38 1 1 0 0 1 -.72.28zm-.74 10.93v-9.39h1.44v9.39z" fill="#27282c"/><path d="m512.38 283.86a4.38 4.38 0 0 1 -2.34-.6 4 4 0 0 1 -1.51-1.68 6.33 6.33 0 0 1 0-5.07 4.18 4.18 0 0 1 1.48-1.73 4 4 0 0 1 2.22-.62 4.3 4.3 0 0 1 1.45.25 3.53 3.53 0 0 1 1.3.79 3.74 3.74 0 0 1 .93 1.44 6 6 0 0 1 .35 2.21v.62h-6.81a3.29 3.29 0 0 0 .85 2.3 2.84 2.84 0 0 0 2.08.8 2.76 2.76 0 0 0 1.46-.37 2.08 2.08 0 0 0 .88-1.1l1.4.39a3.15 3.15 0 0 1 -1.32 1.72 4.27 4.27 0 0 1 -2.42.65zm-2.93-5.64h5.35a2.9 2.9 0 0 0 -.7-2 2.38 2.38 0 0 0 -1.87-.78 2.65 2.65 0 0 0 -1.43.38 2.82 2.82 0 0 0 -.95 1 3.2 3.2 0 0 0 -.4 1.4z" fill="#27282c"/><path d="m525.11 276.39-1.3.36a2.42 2.42 0 0 0 -.63-.91 1.94 1.94 0 0 0 -1.4-.43 2.48 2.48 0 0 0 -1.43.39 1.18 1.18 0 0 0 -.57 1 1 1 0 0 0 .39.85 3.27 3.27 0 0 0 1.22.52l1.4.34c1.66.41 2.49 1.26 2.49 2.54a2.37 2.37 0 0 1 -.46 1.45 3.2 3.2 0 0 1 -1.29 1 4.77 4.77 0 0 1 -1.92.36 4.16 4.16 0 0 1 -2.37-.62 2.73 2.73 0 0 1 -1.19-1.82l1.36-.34a2 2 0 0 0 2.18 1.51 2.64 2.64 0 0 0 1.6-.43 1.24 1.24 0 0 0 .6-1c0-.67-.47-1.11-1.39-1.32l-1.57-.37a3.66 3.66 0 0 1 -1.89-.95 2.29 2.29 0 0 1 -.6-1.62 2.32 2.32 0 0 1 .45-1.4 3 3 0 0 1 1.23-1 4.32 4.32 0 0 1 1.76-.35 3.61 3.61 0 0 1 2.2.61 3.37 3.37 0 0 1 1.13 1.63z" fill="#27282c"/></svg>