<?xml version="1.0" encoding="utf-8"?>
<!-- Generator: Adobe Illustrator 24.1.2, SVG Export Plug-In . SVG Version: 6.00 Build 0)  -->
<svg version="1.1" id="Слой_1" xmlns="http://www.w3.org/2000/svg" xmlns:xlink="http://www.w3.org/1999/xlink" x="0px" y="0px"
	 viewBox="0 0 960 315" style="enable-background:new 0 0 960 315;" xml:space="preserve">
<style type="text/css">
	.st{fill:#FFFFFF;}
	.st0{fill:#161638;}
	.st1{fill:#1DD6A1;}
	.st2{fill:#3057F9;}
	.st3{fill:#FF5E00;}
	.st4{fill:#FFFFFF;}
	.st5{fill:#666666;}
	.st6{fill:none;stroke:#000000;stroke-width:4.0459;stroke-miterlimit:10;}
</style>
<rect x="0" y="0" class="st" width="100%" height="100%"/>
<rect class="st0" width="417.66" height="315"/>
<rect x="208.87" y="0" class="st1" width="208.79" height="105"/>
<polygon class="st2" points="208.87,0 261.37,52.5 208.87,105 "/>
<polygon class="st2" points="261.37,0 313.87,52.5 261.37,105 "/>
<polygon class="st3" points="313.89,0 366.39,52.5 313.89,105 "/>
<g>
	<polygon class="st2" points="38.14,0 208.87,0 156.05,52.5 208.87,105 38.14,105 	"/>
	<polygon class="st3" points="0,52.5 38.03,40.02 38.14,0 61.76,32.31 99.86,20.05 76.43,52.5 99.86,84.95 61.76,72.69 38.14,105 
		38.03,64.98 	"/>
</g>
<g>
	<ellipse class="st2" cx="208.88" cy="262.5" rx="52.7" ry="52.5"/>
	<polygon class="st3" points="208.89,210 417.66,210 365.04,262.5 417.66,315 208.89,315 	"/>
	<polygon class="st4" points="170.6,262.5 208.77,250.02 208.89,210 232.61,242.31 270.86,230.05 247.34,262.5 270.86,294.95 
		232.61,282.69 208.89,315 208.77,274.98 	"/>
</g>
<circle class="st3" cx="102.9" cy="262.5" r="47.5"/>
<path class="st3" d="M0,310c26.24,0,47.5-21.27,47.5-47.5C47.5,236.26,26.24,215,0,215V310z"/>
<g>
	<circle class="st1" cx="261.34" cy="157.5" r="50.16"/>
	<rect y="105" transform="matrix(-1 -1.224647e-16 1.224647e-16 -1 208.8721 314.9989)" class="st1" width="208.87" height="105"/>
	<g>
		<polygon class="st2" points="208.87,105 156.05,157.5 208.87,210 		"/>
		<polygon class="st2" points="156.05,105 103.23,157.5 156.05,210 		"/>
		<polygon class="st3" points="103.23,105 50.4,157.5 103.23,210 		"/>
	</g>
</g>
<ellipse class="st3" cx="365.19" cy="157.5" rx="47.63" ry="47.67"/>
<g>
	<g>
		<g>
			<path class="st5" d="M473.37,229.5h1.3l5.62,12.42h-1.5l-1.45-3.26h-6.71l-1.46,3.26h-1.43L473.37,229.5z M476.81,237.41
				l-2.8-6.29l-2.82,6.29H476.81z"/>
			<path class="st5" d="M487.23,237.41v-0.04c0-2.57,2.01-4.76,4.67-4.76c1.73,0,2.8,0.72,3.65,1.62l-0.9,0.95
				c-0.72-0.76-1.53-1.38-2.77-1.38c-1.85,0-3.26,1.57-3.26,3.53v0.04c0,1.97,1.45,3.54,3.35,3.54c1.16,0,2.06-0.58,2.79-1.36
				l0.86,0.81c-0.92,1.02-2.01,1.76-3.72,1.76C489.24,242.13,487.23,239.96,487.23,237.41z"/>
			<path class="st5" d="M497.03,237.41v-0.04c0-2.57,2.01-4.76,4.76-4.76c2.73,0,4.74,2.15,4.74,4.72v0.04
				c0,2.57-2.03,4.76-4.78,4.76C499.02,242.13,497.03,239.98,497.03,237.41z M505.14,237.41v-0.04c0-1.96-1.46-3.56-3.38-3.56
				c-1.97,0-3.33,1.6-3.33,3.53v0.04c0,1.96,1.45,3.54,3.37,3.54C503.76,240.92,505.14,239.33,505.14,237.41z"/>
			<path class="st5" d="M508.46,237.39v-0.04c0-2.98,2.17-4.74,4.35-4.74c1.69,0,2.79,0.92,3.49,1.94v-5.5h1.36v12.87h-1.36v-1.83
				c-0.74,1.09-1.81,2.03-3.49,2.03C510.62,242.11,508.46,240.39,508.46,237.39z M516.35,237.37v-0.04c0-2.1-1.6-3.51-3.3-3.51
				c-1.76,0-3.21,1.3-3.21,3.51v0.04c0,2.15,1.48,3.52,3.21,3.52C514.75,240.9,516.35,239.47,516.35,237.37z"/>
			<path class="st5" d="M520.73,229.32h1.55v1.5h-1.55V229.32z M520.81,232.81h1.36v9.11h-1.36V232.81z"/>
			<path class="st5" d="M525.33,232.81h1.36v1.59c0.6-0.99,1.55-1.78,3.12-1.78c2.2,0,3.49,1.48,3.49,3.65v5.66h-1.36v-5.32
				c0-1.69-0.92-2.75-2.52-2.75c-1.57,0-2.73,1.15-2.73,2.85v5.22h-1.36V232.81z"/>
			<path class="st5" d="M536.08,243.51l0.62-1.06c1.04,0.76,2.2,1.16,3.51,1.16c2.01,0,3.31-1.11,3.31-3.24v-1.08
				c-0.79,1.06-1.9,1.92-3.58,1.92c-2.19,0-4.28-1.64-4.28-4.26v-0.04c0-2.66,2.11-4.3,4.28-4.3c1.71,0,2.82,0.85,3.56,1.83v-1.64
				h1.36v7.53c0,1.41-0.42,2.48-1.16,3.22c-0.81,0.81-2.03,1.22-3.47,1.22C538.71,244.78,537.3,244.35,536.08,243.51z
				 M543.55,236.93v-0.04c0-1.87-1.62-3.08-3.35-3.08c-1.73,0-3.16,1.2-3.16,3.07v0.04c0,1.83,1.46,3.1,3.16,3.1
				C541.93,240.02,543.55,238.77,543.55,236.93z"/>
			<path class="st5" d="M552.62,237.41v-0.04c0-2.57,2.01-4.76,4.67-4.76c1.73,0,2.8,0.72,3.65,1.62l-0.9,0.95
				c-0.72-0.76-1.53-1.38-2.77-1.38c-1.85,0-3.26,1.57-3.26,3.53v0.04c0,1.97,1.45,3.54,3.35,3.54c1.16,0,2.06-0.58,2.79-1.36
				l0.86,0.81c-0.92,1.02-2.01,1.76-3.72,1.76C554.63,242.13,552.62,239.96,552.62,237.41z"/>
			<path class="st5" d="M562.42,237.41v-0.04c0-2.57,2.01-4.76,4.76-4.76c2.73,0,4.74,2.15,4.74,4.72v0.04
				c0,2.57-2.03,4.76-4.78,4.76C564.41,242.13,562.42,239.98,562.42,237.41z M570.53,237.41v-0.04c0-1.96-1.46-3.56-3.38-3.56
				c-1.97,0-3.33,1.6-3.33,3.53v0.04c0,1.96,1.45,3.54,3.37,3.54C569.15,240.92,570.53,239.33,570.53,237.41z"/>
			<path class="st5" d="M574.37,232.81h1.36v1.59c0.6-0.99,1.55-1.78,3.12-1.78c2.2,0,3.49,1.48,3.49,3.65v5.66h-1.36v-5.32
				c0-1.69-0.92-2.75-2.52-2.75c-1.57,0-2.73,1.15-2.73,2.85v5.22h-1.36V232.81z"/>
			<path class="st5" d="M585.71,239.51v-5.5h-1.27v-1.2h1.27v-2.75h1.36v2.75h2.89v1.2h-2.89v5.32c0,1.11,0.62,1.52,1.53,1.52
				c0.46,0,0.85-0.09,1.32-0.32v1.16c-0.48,0.25-0.99,0.39-1.64,0.39C586.82,242.08,585.71,241.36,585.71,239.51z"/>
			<path class="st5" d="M591.53,237.39v-0.04c0-2.63,1.85-4.74,4.37-4.74c2.7,0,4.25,2.15,4.25,4.81c0,0.18,0,0.28-0.02,0.44h-7.23
				c0.19,1.97,1.59,3.08,3.21,3.08c1.25,0,2.13-0.51,2.87-1.29l0.85,0.76c-0.92,1.02-2.03,1.71-3.75,1.71
				C593.57,242.13,591.53,240.21,591.53,237.39z M598.77,236.86c-0.14-1.66-1.09-3.1-2.91-3.1c-1.59,0-2.78,1.32-2.96,3.1H598.77z"
				/>
			<path class="st5" d="M601.77,240.76l0.69-0.97c0.99,0.74,2.08,1.16,3.15,1.16c1.09,0,1.89-0.56,1.89-1.44v-0.04
				c0-0.92-1.08-1.27-2.27-1.6c-1.43-0.41-3.01-0.9-3.01-2.57v-0.04c0-1.57,1.3-2.61,3.1-2.61c1.11,0,2.34,0.39,3.28,1l-0.62,1.02
				c-0.85-0.55-1.82-0.88-2.7-0.88c-1.08,0-1.76,0.56-1.76,1.32v0.04c0,0.86,1.13,1.2,2.34,1.57c1.41,0.42,2.93,0.97,2.93,2.61v0.04
				c0,1.73-1.43,2.73-3.24,2.73C604.24,242.1,602.79,241.58,601.77,240.76z"/>
			<path class="st5" d="M611.6,239.51v-5.5h-1.27v-1.2h1.27v-2.75h1.36v2.75h2.89v1.2h-2.89v5.32c0,1.11,0.62,1.52,1.53,1.52
				c0.46,0,0.85-0.09,1.32-0.32v1.16c-0.48,0.25-0.99,0.39-1.64,0.39C612.71,242.08,611.6,241.36,611.6,239.51z"/>
			<path class="st5" d="M624.05,234.01h-1.25v-1.18h1.25v-0.79c0-1.04,0.28-1.83,0.79-2.34c0.46-0.46,1.13-0.7,1.96-0.7
				c0.63,0,1.06,0.07,1.5,0.23v1.18c-0.49-0.14-0.86-0.23-1.32-0.23c-1.06,0-1.59,0.63-1.59,1.94v0.74h2.89v1.16h-2.87v7.91h-1.36
				V234.01z"/>
			<path class="st5" d="M630.01,232.81h1.36v2.38c0.67-1.52,1.99-2.61,3.72-2.54v1.46h-0.11c-1.99,0-3.61,1.43-3.61,4.18v3.63h-1.36
				V232.81z"/>
			<path class="st5" d="M636.2,237.41v-0.04c0-2.57,2.01-4.76,4.76-4.76c2.73,0,4.74,2.15,4.74,4.72v0.04
				c0,2.57-2.03,4.76-4.78,4.76C638.19,242.13,636.2,239.98,636.2,237.41z M644.3,237.41v-0.04c0-1.96-1.46-3.56-3.38-3.56
				c-1.97,0-3.33,1.6-3.33,3.53v0.04c0,1.96,1.45,3.54,3.37,3.54C642.93,240.92,644.3,239.33,644.3,237.41z"/>
			<path class="st5" d="M648.15,232.81h1.36v1.53c0.6-0.9,1.41-1.73,2.94-1.73c1.48,0,2.43,0.79,2.93,1.82
				c0.65-1,1.62-1.82,3.21-1.82c2.1,0,3.38,1.41,3.38,3.67v5.64h-1.36v-5.32c0-1.76-0.88-2.75-2.36-2.75
				c-1.38,0-2.52,1.02-2.52,2.82v5.25h-1.34v-5.36c0-1.71-0.9-2.71-2.34-2.71c-1.44,0-2.54,1.2-2.54,2.87v5.2h-1.36V232.81z"/>
			<path class="st5" d="M467.61,264.73l1-0.86c0.76,1.15,1.53,1.76,2.82,1.76c1.39,0,2.41-1,2.41-2.96v-8.27h1.41v8.25
				c0,1.45-0.42,2.54-1.13,3.24c-0.69,0.67-1.62,1.02-2.71,1.02C469.57,266.92,468.38,266,467.61,264.73z"/>
			<path class="st5" d="M477.76,262.21v-0.04c0-2.63,1.85-4.74,4.37-4.74c2.7,0,4.25,2.15,4.25,4.81c0,0.18,0,0.28-0.02,0.44h-7.23
				c0.19,1.97,1.59,3.08,3.21,3.08c1.25,0,2.13-0.51,2.87-1.29l0.85,0.76c-0.92,1.02-2.03,1.71-3.75,1.71
				C479.81,266.95,477.76,265.03,477.76,262.21z M485.01,261.68c-0.14-1.66-1.09-3.1-2.91-3.1c-1.59,0-2.78,1.32-2.96,3.1H485.01z"
				/>
			<path class="st5" d="M489.24,264.33v-5.5h-1.27v-1.2h1.27v-2.75h1.36v2.75h2.89v1.2h-2.89v5.32c0,1.11,0.62,1.52,1.53,1.52
				c0.46,0,0.85-0.09,1.32-0.32v1.16c-0.48,0.25-0.99,0.39-1.64,0.39C490.35,266.9,489.24,266.18,489.24,264.33z"/>
			<path class="st5" d="M496.12,254.4h5.25c1.41,0,2.52,0.41,3.22,1.09c0.51,0.53,0.79,1.18,0.79,1.97v0.04
				c0,1.6-0.99,2.43-1.96,2.86c1.46,0.44,2.64,1.29,2.64,2.98v0.04c0,2.12-1.78,3.37-4.48,3.37h-5.48V254.4z M503.98,257.67
				c0-1.22-0.97-2.01-2.73-2.01h-3.75v4.25h3.65c1.67,0,2.84-0.76,2.84-2.2V257.67z M501.38,261.14h-3.9v4.35h4.14
				c1.87,0,3.03-0.83,3.03-2.2v-0.04C504.66,261.91,503.53,261.14,501.38,261.14z"/>
			<path class="st5" d="M508.61,257.63h1.36v2.38c0.67-1.52,1.99-2.61,3.72-2.54v1.46h-0.11c-1.99,0-3.61,1.43-3.61,4.18v3.63h-1.36
				V257.63z"/>
			<path class="st5" d="M514.63,264.1v-0.04c0-1.92,1.59-2.94,3.9-2.94c1.16,0,1.99,0.16,2.8,0.39v-0.32c0-1.64-1-2.48-2.71-2.48
				c-1.08,0-1.92,0.28-2.77,0.67l-0.41-1.11c1-0.46,1.99-0.76,3.31-0.76c1.29,0,2.27,0.33,2.94,1c0.62,0.62,0.93,1.5,0.93,2.66v5.57
				h-1.3v-1.38c-0.63,0.83-1.69,1.57-3.3,1.57C516.34,266.94,514.63,265.97,514.63,264.1z M521.34,263.39v-0.88
				c-0.67-0.19-1.57-0.39-2.68-0.39c-1.71,0-2.66,0.74-2.66,1.89v0.04c0,1.15,1.06,1.82,2.29,1.82
				C519.97,265.86,521.34,264.84,521.34,263.39z"/>
			<path class="st5" d="M525.56,254.14h1.55v1.5h-1.55V254.14z M525.64,257.63H527v9.11h-1.36V257.63z"/>
			<path class="st5" d="M530.16,257.63h1.36v1.59c0.6-0.99,1.55-1.78,3.12-1.78c2.2,0,3.49,1.48,3.49,3.65v5.66h-1.36v-5.32
				c0-1.69-0.92-2.75-2.52-2.75c-1.57,0-2.73,1.15-2.73,2.85v5.22h-1.36V257.63z"/>
			<path class="st5" d="M540.26,265.58l0.69-0.97c0.99,0.74,2.08,1.16,3.15,1.16c1.09,0,1.89-0.56,1.89-1.44v-0.04
				c0-0.92-1.08-1.27-2.27-1.6c-1.43-0.41-3.01-0.9-3.01-2.57v-0.04c0-1.57,1.3-2.61,3.1-2.61c1.11,0,2.34,0.39,3.28,1l-0.62,1.02
				c-0.85-0.55-1.82-0.88-2.7-0.88c-1.08,0-1.76,0.56-1.76,1.32v0.04c0,0.86,1.13,1.2,2.34,1.57c1.41,0.42,2.93,0.97,2.93,2.61v0.04
				c0,1.73-1.43,2.73-3.24,2.73C542.73,266.92,541.28,266.41,540.26,265.58z"/>
			<path class="st5" d="M554.4,264.1v-0.04c0-1.92,1.59-2.94,3.9-2.94c1.16,0,1.99,0.16,2.8,0.39v-0.32c0-1.64-1-2.48-2.71-2.48
				c-1.08,0-1.92,0.28-2.77,0.67l-0.41-1.11c1-0.46,1.99-0.76,3.31-0.76c1.29,0,2.27,0.33,2.94,1c0.62,0.62,0.93,1.5,0.93,2.66v5.57
				h-1.3v-1.38c-0.63,0.83-1.69,1.57-3.3,1.57C556.11,266.94,554.4,265.97,554.4,264.1z M561.11,263.39v-0.88
				c-0.67-0.19-1.57-0.39-2.68-0.39c-1.71,0-2.66,0.74-2.66,1.89v0.04c0,1.15,1.06,1.82,2.29,1.82
				C559.74,265.86,561.11,264.84,561.11,263.39z"/>
			<path class="st5" d="M565.29,257.63h1.36v1.59c0.6-0.99,1.55-1.78,3.12-1.78c2.2,0,3.49,1.48,3.49,3.65v5.66h-1.36v-5.32
				c0-1.69-0.92-2.75-2.52-2.75c-1.57,0-2.73,1.15-2.73,2.85v5.22h-1.36V257.63z"/>
			<path class="st5" d="M575.62,262.21v-0.04c0-2.98,2.17-4.74,4.35-4.74c1.69,0,2.79,0.92,3.49,1.94v-5.5h1.36v12.87h-1.36v-1.83
				c-0.74,1.09-1.81,2.03-3.49,2.03C577.79,266.94,575.62,265.21,575.62,262.21z M583.52,262.19v-0.04c0-2.1-1.6-3.51-3.3-3.51
				c-1.76,0-3.21,1.3-3.21,3.51v0.04c0,2.15,1.48,3.52,3.21,3.52C581.91,265.72,583.52,264.29,583.52,262.19z"/>
			<path class="st5" d="M592.83,260.61v-0.04c0-3.49,2.61-6.38,6.24-6.38c2.24,0,3.58,0.79,4.81,1.96l-0.95,1.02
				c-1.04-0.99-2.2-1.69-3.88-1.69c-2.73,0-4.78,2.22-4.78,5.06v0.04c0,2.85,2.06,5.09,4.78,5.09c1.69,0,2.8-0.65,3.98-1.78
				l0.92,0.9c-1.29,1.3-2.7,2.17-4.93,2.17C595.46,266.95,592.83,264.15,592.83,260.61z"/>
			<path class="st5" d="M605.49,262.23v-0.04c0-2.57,2.01-4.76,4.76-4.76c2.73,0,4.74,2.15,4.74,4.72v0.04
				c0,2.57-2.03,4.76-4.78,4.76C607.48,266.95,605.49,264.8,605.49,262.23z M613.59,262.23v-0.04c0-1.96-1.46-3.56-3.38-3.56
				c-1.97,0-3.33,1.6-3.33,3.53v0.04c0,1.96,1.45,3.54,3.37,3.54C612.22,265.74,613.59,264.15,613.59,262.23z"/>
			<path class="st5" d="M616.91,262.21v-0.04c0-2.98,2.17-4.74,4.35-4.74c1.69,0,2.79,0.92,3.49,1.94v-5.5h1.36v12.87h-1.36v-1.83
				c-0.74,1.09-1.81,2.03-3.49,2.03C619.08,266.94,616.91,265.21,616.91,262.21z M624.81,262.19v-0.04c0-2.1-1.6-3.51-3.3-3.51
				c-1.76,0-3.21,1.3-3.21,3.51v0.04c0,2.15,1.48,3.52,3.21,3.52C623.2,265.72,624.81,264.29,624.81,262.19z"/>
			<path class="st5" d="M628.58,262.21v-0.04c0-2.63,1.85-4.74,4.37-4.74c2.7,0,4.25,2.15,4.25,4.81c0,0.18,0,0.28-0.02,0.44h-7.23
				c0.19,1.97,1.59,3.08,3.21,3.08c1.25,0,2.13-0.51,2.87-1.29l0.85,0.76c-0.92,1.02-2.03,1.71-3.75,1.71
				C630.63,266.95,628.58,265.03,628.58,262.21z M635.83,261.68c-0.14-1.66-1.09-3.1-2.91-3.1c-1.59,0-2.78,1.32-2.96,3.1H635.83z"
				/>
			<path class="st5" d="M640.09,258.83h-1.25v-1.18h1.25v-0.79c0-1.04,0.28-1.83,0.79-2.34c0.46-0.46,1.13-0.7,1.96-0.7
				c0.63,0,1.06,0.07,1.5,0.23v1.18c-0.49-0.14-0.86-0.23-1.32-0.23c-1.06,0-1.59,0.63-1.59,1.94v0.74h2.89v1.16h-2.87v7.91h-1.36
				V258.83z"/>
			<path class="st5" d="M645.31,262.23v-0.04c0-2.57,2.01-4.76,4.76-4.76c2.73,0,4.74,2.15,4.74,4.72v0.04
				c0,2.57-2.03,4.76-4.78,4.76C647.3,266.95,645.31,264.8,645.31,262.23z M653.42,262.23v-0.04c0-1.96-1.46-3.56-3.38-3.56
				c-1.97,0-3.33,1.6-3.33,3.53v0.04c0,1.96,1.45,3.54,3.37,3.54C652.04,265.74,653.42,264.15,653.42,262.23z"/>
			<path class="st5" d="M657.26,257.63h1.36v2.38c0.67-1.52,1.99-2.61,3.72-2.54v1.46h-0.11c-1.99,0-3.61,1.43-3.61,4.18v3.63h-1.36
				V257.63z"/>
			<path class="st5" d="M663.45,262.23v-0.04c0-2.57,2.01-4.76,4.67-4.76c1.73,0,2.8,0.72,3.65,1.62l-0.9,0.95
				c-0.72-0.76-1.53-1.38-2.77-1.38c-1.85,0-3.26,1.57-3.26,3.53v0.04c0,1.97,1.45,3.54,3.35,3.54c1.16,0,2.06-0.58,2.79-1.36
				l0.86,0.81c-0.92,1.02-2.01,1.76-3.72,1.76C665.46,266.95,663.45,264.79,663.45,262.23z"/>
			<path class="st5" d="M673.25,262.21v-0.04c0-2.63,1.85-4.74,4.37-4.74c2.7,0,4.25,2.15,4.25,4.81c0,0.18,0,0.28-0.02,0.44h-7.23
				c0.19,1.97,1.59,3.08,3.21,3.08c1.25,0,2.13-0.51,2.87-1.29l0.85,0.76c-0.92,1.02-2.03,1.71-3.75,1.71
				C675.3,266.95,673.25,265.03,673.25,262.21z M680.5,261.68c-0.14-1.66-1.09-3.1-2.91-3.1c-1.59,0-2.78,1.32-2.96,3.1H680.5z"/>
			<path class="st5" d="M683.5,265.58l0.69-0.97c0.99,0.74,2.08,1.16,3.15,1.16c1.09,0,1.89-0.56,1.89-1.44v-0.04
				c0-0.92-1.08-1.27-2.27-1.6c-1.43-0.41-3.01-0.9-3.01-2.57v-0.04c0-1.57,1.3-2.61,3.1-2.61c1.11,0,2.34,0.39,3.28,1l-0.62,1.02
				c-0.85-0.55-1.82-0.88-2.7-0.88c-1.08,0-1.76,0.56-1.76,1.32v0.04c0,0.86,1.13,1.2,2.34,1.57c1.41,0.42,2.93,0.97,2.93,2.61v0.04
				c0,1.73-1.43,2.73-3.24,2.73C685.96,266.92,684.52,266.41,683.5,265.58z"/>
		</g>
		<g>
			<polygon class="st2" points="859.9,229.05 909.85,229.05 891.06,247.84 909.85,266.63 859.9,266.63 			"/>
			<polygon class="st3" points="846.25,247.84 859.86,243.37 859.9,229.05 868.36,240.61 881.99,236.23 873.61,247.84 
				881.99,259.45 868.36,255.07 859.9,266.63 859.86,252.31 			"/>
		</g>
		<g>
			<g>
				<path d="M467.91,47.85h9.34v18.57l17.11-18.57h11.47l-17.36,18.02l18.08,24.46h-11.23l-13.17-18.08l-4.92,5.1v12.99h-9.34V47.85
					z"/>
				<path d="M506.62,74.25v-0.12c0-9.34,7.52-16.93,17.66-16.93c10.07,0,17.54,7.46,17.54,16.81v0.12c0,9.35-7.52,16.93-17.66,16.93
					C514.09,91.05,506.62,83.59,506.62,74.25z M532.72,74.25v-0.12c0-4.79-3.46-8.98-8.56-8.98c-5.28,0-8.44,4.07-8.44,8.86v0.12
					c0,4.79,3.46,8.98,8.56,8.98C529.56,83.1,532.72,79.04,532.72,74.25z"/>
				<path d="M548.79,81.1V65.69h-3.88V57.8h3.88v-8.31h9.22v8.31h7.65v7.89h-7.65v13.9c0,2.12,0.91,3.16,2.97,3.16
					c1.7,0,3.22-0.42,4.55-1.15v7.4c-1.94,1.15-4.19,1.88-7.28,1.88C552.62,90.87,548.79,88.63,548.79,81.1z"/>
				<path d="M571.67,46.03h9.22v44.3h-9.22V46.03z"/>
				<path d="M588.54,46.03h9.71v8.19h-9.71V46.03z M588.78,57.8H598v32.53h-9.22V57.8z"/>
				<path d="M605.47,57.8h9.22v4.61c2.12-2.73,4.85-5.22,9.53-5.22c6.98,0,11.04,4.61,11.04,12.08v21.06h-9.22V72.18
					c0-4.37-2.06-6.61-5.58-6.61s-5.76,2.25-5.76,6.61v18.14h-9.22V57.8z"/>
				<path d="M660.02,47.85h9.34v16.81h17.23V47.85h9.35v42.48h-9.35V73.27h-17.23v17.05h-9.34V47.85z"/>
				<path d="M702.37,74.25v-0.12c0-9.28,6.61-16.93,16.08-16.93c10.86,0,15.84,8.44,15.84,17.66c0,0.73-0.06,1.58-0.12,2.43h-22.64
					c0.91,4.19,3.82,6.37,7.95,6.37c3.09,0,5.34-0.97,7.89-3.34l5.28,4.67c-3.03,3.76-7.4,6.07-13.29,6.07
					C709.59,91.05,702.37,84.2,702.37,74.25z M725.31,71.51c-0.55-4.13-2.97-6.92-6.86-6.92c-3.82,0-6.31,2.73-7.04,6.92H725.31z"/>
				<path d="M739.93,57.8h9.22v6.55c1.88-4.49,4.92-7.4,10.38-7.16v9.65h-0.49c-6.13,0-9.89,3.7-9.89,11.47v12.02h-9.22V57.8z"/>
				<path d="M761.59,74.25v-0.12c0-9.34,7.52-16.93,17.66-16.93c10.07,0,17.54,7.46,17.54,16.81v0.12c0,9.35-7.52,16.93-17.66,16.93
					C769.06,91.05,761.59,83.59,761.59,74.25z M787.69,74.25v-0.12c0-4.79-3.46-8.98-8.56-8.98c-5.28,0-8.44,4.07-8.44,8.86v0.12
					c0,4.79,3.46,8.98,8.56,8.98C784.53,83.1,787.69,79.04,787.69,74.25z"/>
				<path d="M800.67,74.25v-0.12c0-9.28,6.61-16.93,16.08-16.93c10.86,0,15.84,8.44,15.84,17.66c0,0.73-0.06,1.58-0.12,2.43h-22.64
					c0.91,4.19,3.82,6.37,7.95,6.37c3.09,0,5.34-0.97,7.89-3.34l5.28,4.67c-3.03,3.76-7.4,6.07-13.29,6.07
					C807.89,91.05,800.67,84.2,800.67,74.25z M823.61,71.51c-0.55-4.13-2.97-6.92-6.86-6.92c-3.82,0-6.31,2.73-7.04,6.92H823.61z"/>
				<path d="M835.68,86.02l3.94-6.07c3.52,2.55,7.22,3.88,10.26,3.88c2.67,0,3.88-0.97,3.88-2.43v-0.12c0-2-3.16-2.67-6.74-3.76
					c-4.55-1.33-9.71-3.46-9.71-9.77v-0.12c0-6.61,5.34-10.32,11.89-10.32c4.13,0,8.62,1.4,12.14,3.76l-3.52,6.37
					c-3.22-1.88-6.43-3.03-8.8-3.03c-2.25,0-3.4,0.97-3.4,2.25v0.12c0,1.82,3.09,2.67,6.61,3.88c4.55,1.52,9.83,3.7,9.83,9.65v0.12
					c0,7.22-5.4,10.5-12.44,10.5C845.09,90.93,839.99,89.42,835.68,86.02z"/>
			</g>
		</g>
		<g>
			<g>
				<g>
					<g>
						<path d="M467.61,134.08h5.03l5.57,8.96l5.57-8.96h5.03v21.19h-4.63v-13.83l-5.96,9.05h-0.12l-5.9-8.96v13.74h-4.57V134.08z"/>
						<path d="M492.43,150.61v-0.06c0-3.54,2.7-5.18,6.54-5.18c1.63,0,2.82,0.27,3.97,0.67v-0.27c0-1.91-1.18-2.97-3.48-2.97
							c-1.76,0-3,0.33-4.48,0.88l-1.15-3.51c1.79-0.79,3.54-1.3,6.3-1.3c2.51,0,4.33,0.67,5.48,1.82c1.21,1.21,1.76,3,1.76,5.18
							v9.42h-4.45v-1.76c-1.12,1.24-2.66,2.06-4.9,2.06C494.95,155.57,492.43,153.81,492.43,150.61z M503,149.55v-0.82
							c-0.79-0.36-1.82-0.61-2.94-0.61c-1.97,0-3.18,0.79-3.18,2.24v0.06c0,1.24,1.03,1.97,2.51,1.97
							C501.55,152.39,503,151.21,503,149.55z"/>
						<path d="M521.38,139.04h4.78l-6.24,16.62c-1.24,3.3-2.57,4.54-5.33,4.54c-1.67,0-2.91-0.42-4.09-1.12l1.54-3.33
							c0.61,0.36,1.36,0.64,1.97,0.64c0.79,0,1.21-0.24,1.61-1.06l-6.36-16.29h4.87l3.69,11.05L521.38,139.04z"/>
						<path d="M537.4,151.57l7.05-5.78c2.63-2.18,3.66-3.33,3.66-5.09c0-1.79-1.18-2.75-2.85-2.75c-1.63,0-2.75,0.91-4.33,2.85
							l-3.27-2.63c2.09-2.85,4.12-4.39,7.9-4.39c4.39,0,7.3,2.57,7.3,6.54v0.06c0,3.54-1.82,5.3-5.57,8.2l-3.45,2.66h9.23v4.03
							H537.4V151.57z"/>
						<path d="M568.34,146.58c-1.09,0.91-2.48,1.45-4.3,1.45c-4.6,0-7.57-2.54-7.57-6.84v-0.06c0-4.27,3.3-7.42,8.08-7.42
							c2.85,0,4.51,0.7,6.12,2.3c1.51,1.51,2.51,3.81,2.51,7.99v0.06c0,6.87-3.24,11.56-9.26,11.56c-3.09,0-5.18-1.03-6.96-2.51
							l2.45-3.54c1.54,1.24,2.85,1.82,4.63,1.82C567.25,151.39,568.16,148.4,568.34,146.58z M568.43,141.01v-0.06
							c0-1.88-1.39-3.24-3.72-3.24c-2.3,0-3.6,1.33-3.6,3.21v0.06c0,1.88,1.39,3.18,3.69,3.18S568.43,142.83,568.43,141.01z"/>
						<path d="M575.3,158.26c2.09-0.21,3.12-1.27,2.97-3h-1.88v-4.84h4.9v4.09c0,4-2,5.6-5.6,5.66L575.3,158.26z"/>
						<path d="M593.74,151.57l7.05-5.78c2.63-2.18,3.66-3.33,3.66-5.09c0-1.79-1.18-2.75-2.85-2.75c-1.63,0-2.76,0.91-4.33,2.85
							l-3.27-2.63c2.09-2.85,4.12-4.39,7.9-4.39c4.39,0,7.29,2.57,7.29,6.54v0.06c0,3.54-1.82,5.3-5.57,8.2l-3.45,2.66h9.23v4.03
							h-15.68V151.57z"/>
						<path d="M612.76,144.73v-0.06c0-6.15,3.81-10.96,9.45-10.96c5.6,0,9.38,4.75,9.38,10.9v0.06c0,6.15-3.78,10.96-9.45,10.96
							C616.48,155.63,612.76,150.88,612.76,144.73z M626.8,144.73v-0.06c0-3.84-1.88-6.75-4.66-6.75s-4.6,2.82-4.6,6.69v0.06
							c0,3.88,1.85,6.75,4.66,6.75C625.02,151.42,626.8,148.58,626.8,144.73z"/>
						<path d="M634.41,151.57l7.05-5.78c2.63-2.18,3.66-3.33,3.66-5.09c0-1.79-1.18-2.75-2.85-2.75c-1.63,0-2.76,0.91-4.33,2.85
							l-3.27-2.63c2.09-2.85,4.12-4.39,7.9-4.39c4.39,0,7.29,2.57,7.29,6.54v0.06c0,3.54-1.82,5.3-5.57,8.2l-3.45,2.66h9.23v4.03
							h-15.68V151.57z"/>
						<path d="M653.42,144.73v-0.06c0-6.15,3.81-10.96,9.45-10.96c5.6,0,9.38,4.75,9.38,10.9v0.06c0,6.15-3.78,10.96-9.45,10.96
							C657.15,155.63,653.42,150.88,653.42,144.73z M667.47,144.73v-0.06c0-3.84-1.88-6.75-4.66-6.75s-4.6,2.82-4.6,6.69v0.06
							c0,3.88,1.85,6.75,4.66,6.75C665.68,151.42,667.47,148.58,667.47,144.73z"/>
						<path d="M467.61,167.8h9.69c2.69,0,4.78,0.76,6.18,2.15c1.18,1.18,1.82,2.85,1.82,4.84v0.06c0,3.42-1.85,5.57-4.54,6.57
							l5.18,7.57h-5.45l-4.54-6.78h-3.66V189h-4.66V167.8z M476.99,178.1c2.27,0,3.57-1.21,3.57-3v-0.06c0-2-1.39-3.03-3.66-3.03
							h-4.63v6.08H476.99z"/>
						<path d="M487.92,180.97v-0.06c0-4.63,3.3-8.45,8.02-8.45c5.42,0,7.9,4.21,7.9,8.81c0,0.36-0.03,0.79-0.06,1.21h-11.29
							c0.45,2.09,1.91,3.18,3.96,3.18c1.54,0,2.66-0.48,3.94-1.67l2.63,2.33c-1.51,1.88-3.69,3.03-6.63,3.03
							C491.53,189.36,487.92,185.94,487.92,180.97z M499.37,179.61c-0.27-2.06-1.48-3.45-3.42-3.45c-1.91,0-3.15,1.36-3.51,3.45
							H499.37z"/>
						<path d="M507.36,192.2l1.57-3.45c1.66,0.94,3.33,1.48,5.48,1.48c3.15,0,4.63-1.51,4.63-4.42v-0.79
							c-1.36,1.63-2.85,2.63-5.3,2.63c-3.78,0-7.21-2.75-7.21-7.57v-0.06c0-4.84,3.48-7.57,7.21-7.57c2.51,0,4,1.06,5.24,2.42v-2.12
							h4.6v12.56c0,2.91-0.7,5.03-2.06,6.39c-1.51,1.51-3.85,2.18-6.99,2.18C511.9,193.9,509.42,193.29,507.36,192.2z
							 M519.05,180.09v-0.06c0-2.21-1.73-3.75-3.97-3.75s-3.94,1.54-3.94,3.75v0.06c0,2.24,1.7,3.75,3.94,3.75
							S519.05,182.3,519.05,180.09z"/>
						<path d="M527.8,166.9h4.84v4.09h-4.84V166.9z M527.92,172.77h4.6V189h-4.6V172.77z"/>
						<path d="M535.58,186.85l1.97-3.03c1.76,1.27,3.6,1.94,5.12,1.94c1.33,0,1.94-0.48,1.94-1.21v-0.06c0-1-1.57-1.33-3.36-1.88
							c-2.27-0.67-4.84-1.73-4.84-4.87v-0.06c0-3.3,2.66-5.15,5.93-5.15c2.06,0,4.3,0.7,6.05,1.88l-1.76,3.18
							c-1.6-0.94-3.21-1.51-4.39-1.51c-1.12,0-1.7,0.48-1.7,1.12v0.06c0,0.91,1.54,1.33,3.3,1.94c2.27,0.76,4.9,1.85,4.9,4.81v0.06
							c0,3.6-2.69,5.24-6.21,5.24C540.27,189.3,537.73,188.54,535.58,186.85z"/>
						<path d="M552.5,184.39v-7.69h-1.94v-3.94h1.94v-4.15h4.6v4.15h3.81v3.94h-3.81v6.93c0,1.06,0.46,1.57,1.48,1.57
							c0.85,0,1.6-0.21,2.27-0.58v3.69c-0.97,0.58-2.09,0.94-3.63,0.94C554.41,189.27,552.5,188.15,552.5,184.39z"/>
						<path d="M563.07,180.97v-0.06c0-4.63,3.3-8.45,8.02-8.45c5.42,0,7.9,4.21,7.9,8.81c0,0.36-0.03,0.79-0.06,1.21h-11.29
							c0.46,2.09,1.91,3.18,3.97,3.18c1.54,0,2.66-0.48,3.94-1.67l2.63,2.33c-1.51,1.88-3.69,3.03-6.63,3.03
							C566.67,189.36,563.07,185.94,563.07,180.97z M574.52,179.61c-0.27-2.06-1.48-3.45-3.42-3.45c-1.91,0-3.15,1.36-3.51,3.45
							H574.52z"/>
						<path d="M582.42,172.77h4.6v3.27c0.94-2.24,2.45-3.69,5.18-3.57v4.81h-0.24c-3.06,0-4.93,1.85-4.93,5.72V189h-4.6V172.77z"/>
						<path d="M604.16,172.77h4.6v2.3c1.06-1.36,2.42-2.6,4.75-2.6c3.48,0,5.51,2.3,5.51,6.02V189h-4.6v-9.05
							c0-2.18-1.03-3.3-2.79-3.3s-2.88,1.12-2.88,3.3V189h-4.6V172.77z"/>
						<path d="M622.23,180.97v-0.06c0-4.66,3.75-8.45,8.81-8.45c5.03,0,8.75,3.72,8.75,8.39v0.06c0,4.66-3.75,8.45-8.81,8.45
							C625.96,189.36,622.23,185.63,622.23,180.97z M635.25,180.97v-0.06c0-2.39-1.72-4.48-4.27-4.48c-2.63,0-4.21,2.03-4.21,4.42
							v0.06c0,2.39,1.73,4.48,4.27,4.48C633.68,185.39,635.25,183.36,635.25,180.97z"/>
						<path d="M641.04,172.77h4.66l2.6,9.84l3.06-9.9h3.96l3.09,9.93l2.66-9.87h4.57l-5.06,16.35h-4.15l-3.12-9.96l-3.18,9.96h-4.12
							L641.04,172.77z"/>
					</g>
				</g>
			</g>
			<g>
				<polygon points="693.33,172.79 706.01,180.9 693.33,189.01 				"/>
				<line class="st6" x1="694.57" y1="180.9" x2="677.29" y2="180.9"/>
			</g>
		</g>
	</g>
</g>
</svg>
