<?xml version="1.0" encoding="utf-8"?>
<!-- Generator: Adobe Illustrator 24.1.2, SVG Export Plug-In . SVG Version: 6.00 Build 0)  -->
<svg version="1.1" id="Layer_1" xmlns="http://www.w3.org/2000/svg" xmlns:xlink="http://www.w3.org/1999/xlink" x="0px" y="0px"
     viewBox="0 0 960 315" style="enable-background:new 0 0 960 315;" xml:space="preserve">
<style type="text/css">
	.st0{fill:#27282C;}
	.st1{fill:#FF722C;}
	.st2{fill:#6779F6;}
	.st3{fill:#FFFFFF;}
	.st4{opacity:0.9;fill:#27282C;enable-background:new    ;}
</style>
    <g>
	<rect class="st0" width="960" height="315"/>
        <g>
		<polygon class="st1" points="206,190.5 117.4,190.5 117.4,102.4 206,102.4 161.5,146.5 		"/>
            <path class="st2" d="M314.7,198.1h-55.9c-26.9,0-48.7-21.8-48.7-48.7l0,0c0-26.9,21.8-48.7,48.7-48.7h55.9
			c26.9,0,48.7,21.8,48.7,48.7l0,0C363.4,176.3,341.6,198.1,314.7,198.1z"/>
            <path class="st2" d="M652.7,198.1H422.6c-26.9,0-48.7-21.8-48.7-48.7l0,0c0-26.9,21.8-48.7,48.7-48.7h230.1
			c26.9,0,48.7,21.8,48.7,48.7l0,0C701.4,176.3,679.6,198.1,652.7,198.1z"/>
            <g>
			<path class="st3" d="M422.7,173v-47.3h16c3.7,0,6.7,0.7,9.1,2s4.1,3.1,5.3,5.4c1.1,2.3,1.7,4.8,1.7,7.6s-0.5,5.3-1.7,7.6
				c-1.1,2.3-2.9,4.1-5.2,5.4c-2.4,1.3-5.4,2-9.1,2h-10.3V173H422.7z M428.5,150.7h10.2c3.8,0,6.5-1,8.1-2.9s2.4-4.3,2.4-7.1
				s-0.8-5.2-2.4-7.1c-1.6-1.9-4.4-2.8-8.2-2.8h-10.1V150.7z"/>
                <path class="st3" d="M462,173v-35.5h5.3v5.4h0.4c0.6-1.8,1.8-3.2,3.5-4.3s3.6-1.6,5.7-1.6c1,0,1.8,0.1,2.6,0.3
				c0.7,0.2,1.4,0.5,1.9,0.9l-1.8,4.6c-0.4-0.2-0.8-0.4-1.4-0.5c-0.5-0.1-1.1-0.2-1.8-0.2c-2.6,0-4.7,0.8-6.4,2.4
				c-1.7,1.6-2.5,3.6-2.5,5.9V173H462z"/>
                <path class="st3" d="M499.4,173.8c-3.4,0-6.4-0.8-8.8-2.3c-2.5-1.5-4.4-3.6-5.7-6.4c-1.3-2.7-2-5.9-2-9.5s0.7-6.8,2-9.6
				s3.2-4.9,5.6-6.5s5.2-2.3,8.4-2.3c1.8,0,3.7,0.3,5.5,0.9c1.8,0.6,3.4,1.6,4.9,3s2.7,3.2,3.5,5.5s1.3,5,1.3,8.4v2.3h-25.7
				c0.1,3.8,1.2,6.7,3.2,8.7s4.6,3,7.8,3c2.1,0,4-0.5,5.5-1.4s2.7-2.3,3.3-4.2l5.3,1.5c-0.8,2.7-2.5,4.8-5,6.5
				C506,173,503,173.8,499.4,173.8z M488.3,152.4h20.2c0-3-0.9-5.5-2.6-7.5c-1.8-2-4.1-3-7.1-3c-2.1,0-3.9,0.5-5.4,1.5
				s-2.7,2.3-3.6,3.8C488.9,148.9,488.4,150.6,488.3,152.4z"/>
                <path class="st3" d="M550.1,137.6L537,173h-5.5l-13.1-35.5h5.9l9.8,28.3h0.4l9.8-28.3h5.8L550.1,137.6L550.1,137.6z"/>
                <path class="st3" d="M561,131.8c-1.1,0-2-0.4-2.7-1.1c-0.8-0.7-1.1-1.6-1.1-2.6s0.4-1.9,1.1-2.6c0.8-0.7,1.7-1.1,2.7-1.1
				c1.1,0,2,0.4,2.7,1.1c0.8,0.7,1.1,1.6,1.1,2.6s-0.4,1.9-1.1,2.6C562.9,131.4,562,131.8,561,131.8z M558.2,173v-35.5h5.4V173
				H558.2z"/>
                <path class="st3" d="M587.2,173.8c-3.4,0-6.4-0.8-8.8-2.3c-2.5-1.5-4.4-3.6-5.7-6.4c-1.3-2.7-2-5.9-2-9.5s0.7-6.8,2-9.6
				s3.2-4.9,5.6-6.5c2.4-1.6,5.2-2.3,8.4-2.3c1.8,0,3.7,0.3,5.5,0.9c1.8,0.6,3.4,1.6,4.9,3s2.7,3.2,3.5,5.5c0.9,2.3,1.3,5,1.3,8.4
				v2.3h-25.7c0.1,3.8,1.2,6.7,3.2,8.7s4.6,3,7.8,3c2.1,0,4-0.5,5.5-1.4s2.7-2.3,3.3-4.2l5.3,1.5c-0.8,2.7-2.5,4.8-5,6.5
				C593.8,173,590.8,173.8,587.2,173.8z M576.1,152.4h20.2c0-3-0.9-5.5-2.6-7.5c-1.8-2-4.1-3-7.1-3c-2.1,0-3.9,0.5-5.4,1.5
				s-2.7,2.3-3.6,3.8C576.8,148.9,576.3,150.6,576.1,152.4z"/>
                <path class="st3" d="M616.9,173l-10.8-35.5h5.7l7.7,27.2h0.4l7.6-27.2h5.8l7.5,27.1h0.4l7.7-27.1h5.7L643.7,173h-5.4l-7.8-27.2
				h-0.6l-7.8,27.2H616.9z"/>
		</g>
            <g>
			<path class="st3" d="M267.3,125.8V173h-5.4v-39h-0.4c-0.2,0.4-0.8,0.9-1.7,1.5c-0.9,0.5-2,1-3.5,1.4c-1.4,0.4-3,0.6-4.8,0.6v-4.8
				c1.8,0,3.4-0.3,4.8-1c1.3-0.7,2.5-1.4,3.4-2.3c0.9-0.9,1.6-1.7,2.1-2.4c0.5-0.7,0.7-1.1,0.8-1.3h4.7V125.8z"/>
                <path class="st3" d="M281.1,173.4c-1.2,0-2.1-0.4-2.9-1.2s-1.2-1.8-1.2-2.9s0.4-2.1,1.2-2.9c0.8-0.8,1.8-1.2,2.9-1.2
				c1.2,0,2.1,0.4,2.9,1.2s1.2,1.8,1.2,2.9c0,1.2-0.4,2.1-1.2,2.9C283.2,173,282.2,173.4,281.1,173.4z"/>
                <path class="st3" d="M288.6,163.3v-4.7l20.8-32.9h6.9v32.5h6.5v5.1h-6.5v9.7h-5.4v-9.7L288.6,163.3L288.6,163.3z M310.9,158.3
				v-25.2h-0.4l-15.7,24.8v0.4H310.9z"/>
		</g>
            <path class="st3" d="M793.1,199.8h-33.6c-27.4,0-49.5-22.2-49.5-49.5v-1.7c0-27.4,22.2-49.5,49.5-49.5h33.6
			c27.4,0,49.5,22.2,49.5,49.5v1.7C842.6,177.6,820.4,199.8,793.1,199.8z"/>
            <g>
			<path class="st0" d="M751,149.4h40.3V149l-15.2-15.2l3.7-3.7l22,22l-22,22l-3.7-3.7l15.2-15.2v-0.4H751V149.4z"/>
		</g>
	</g>
        <g>
		<g>
			<path class="st3" d="M393.7,269.7h-61.2c-7.3,0-13.1-5.9-13.1-13.1v0c0-7.3,5.9-13.1,13.1-13.1h61.2c7.3,0,13.1,5.9,13.1,13.1v0
				C406.9,263.8,401,269.7,393.7,269.7z"/>
            <g>
				<path class="st0" d="M334.3,262.9h-2.6v-9.1h-0.1c-0.3,0.5-1.1,0.8-2.5,0.8v-2.3c2.4,0,2.6-2,2.6-2.1h2.6V262.9z"/>
                <path class="st0" d="M337.7,261.5c0-0.8,0.7-1.5,1.5-1.5c0.8,0,1.5,0.7,1.5,1.5c0,0.9-0.7,1.6-1.5,1.6
					C338.4,263.1,337.7,262.4,337.7,261.5z"/>
                <path class="st0" d="M352.4,260.4h-1.9v2.5h-2.6v-2.5h-5.4v-1.9l5.1-8.3h2.9v7.8h1.9V260.4z M347.9,258v-4.3l-0.3,0.5l-2.2,3.8
					H347.9z"/>
                <path class="st0" d="M365.2,258.6h-6.4v-2h6.4V258.6z"/>
                <path class="st0" d="M375.9,250.2l3.3,8.1h0.1l3.3-8.1h3.7v12.7h-2.9v-8.3h-0.1l-3.1,8.1h-1.9l-3.1-8.1H375v8.3h-2.9v-12.7
					H375.9z"/>
                <path class="st0" d="M391.1,255.4h1.4c1.1,0,1.7-0.7,1.7-1.7c0-0.7-0.5-1.4-1.5-1.4c-0.8,0-1.5,0.4-1.5,1.1h-2.8
					c0-2.1,1.9-3.4,4.1-3.4c2.6,0,4.4,1.2,4.4,3.6c0,1.2-0.7,2.3-2,2.9c1.4,0.5,2.2,1.5,2.2,2.9c0,2.3-2,3.7-4.6,3.7
					c-2.1,0-4.3-1.1-4.3-3.6h2.8c0,0.8,0.7,1.4,1.7,1.4c1.1,0,1.7-0.6,1.7-1.5c0-1.3-0.7-1.6-1.9-1.6h-1.4V255.4z"/>
			</g>
		</g>
            <g>
			<path class="st3" d="M627.4,269.7H424c-7.3,0-13.1-5.9-13.1-13.1v0c0-7.3,5.9-13.1,13.1-13.1h203.4c7.3,0,13.1,5.9,13.1,13.1v0
				C640.6,263.8,634.7,269.7,627.4,269.7z"/>
                <g>
				<path class="st4" d="M425.2,251.4c-1.7,0-2.8,0.9-2.8,2.1c0,1,0.8,1.6,2.5,2.1l1.3,0.3c2.4,0.6,3.6,1.7,3.6,3.5
					c0,2.1-1.7,3.7-4.6,3.7c-2.7,0-4.4-1.4-4.6-3.5h1.6c0.1,1.4,1.5,2.1,3,2.1c1.8,0,3.1-0.9,3.1-2.3c0-1.1-0.8-1.6-2.5-2.1
					l-1.6-0.4c-2-0.6-3.2-1.6-3.2-3.3c0-2.1,1.9-3.6,4.3-3.6c2.5,0,4.2,1.4,4.3,3.5h-1.5C427.8,252.1,426.7,251.4,425.2,251.4z"/>
                    <path class="st4" d="M436.1,254.7h-2v5.4c0,1.2,0.6,1.4,1.3,1.4c0.3,0,0.5,0,0.6-0.1l0.3,1.3c-0.2,0.1-0.5,0.2-1.1,0.2
					c-1.2,0-2.6-0.8-2.6-2.5v-5.8h-1.4v-1.4h1.4v-2h1.5v2h2V254.7z"/>
                    <path class="st4" d="M444,261.6L444,261.6c-0.4,0.6-1.2,1.5-2.9,1.5c-1.8,0-3.3-1.1-3.3-2.9c0-2.2,1.9-2.6,3.7-2.8
					c1.3-0.2,2.5-0.1,2.5-0.7v0c0-1.6-0.8-2.1-2-2.1c-1.4,0-2.2,0.7-2.5,1.4l-1.4-0.5c0.7-1.7,2.4-2.2,3.8-2.2
					c1.2,0,3.5,0.3,3.5,3.4v6.3H444V261.6z M444,258.1c-0.2,0.3-1.9,0.5-2.5,0.5c-1.1,0.1-2.2,0.5-2.2,1.6c0,1,0.8,1.5,2,1.5
					c1.7,0,2.7-1.2,2.7-2.4V258.1z"/>
                    <path class="st4" d="M449.6,262.9h-1.5v-9.5h1.5v1.6h0.1c0.4-1,1.4-1.7,2.8-1.7c1.8,0,3.1,1.2,3.1,3.6v6.1h-1.5v-6
					c0-1.4-0.9-2.3-2.1-2.3c-1.1,0-2.5,0.8-2.5,2.6V262.9z"/>
                    <path class="st4" d="M464.8,262.9v-1.5h-0.1c-0.3,0.5-1,1.7-2.8,1.7c-2.4,0-4-1.9-4-4.9c0-3,1.7-4.9,4.1-4.9
					c1.9,0,2.5,1.1,2.8,1.6h0.1v-4.7h1.5v12.7H464.8z M462.1,261.8c1.8,0,2.7-1.5,2.7-3.7c0-2.1-0.9-3.6-2.7-3.6
					c-1.9,0-2.8,1.6-2.8,3.6C459.3,260.2,460.2,261.8,462.1,261.8z"/>
                    <path class="st4" d="M474.7,261.6L474.7,261.6c-0.4,0.6-1.2,1.5-2.9,1.5c-1.8,0-3.3-1.1-3.3-2.9c0-2.2,1.9-2.6,3.7-2.8
					c1.3-0.2,2.5-0.1,2.5-0.7v0c0-1.6-0.8-2.1-2-2.1c-1.4,0-2.2,0.7-2.5,1.4l-1.4-0.5c0.7-1.7,2.4-2.2,3.8-2.2
					c1.2,0,3.5,0.3,3.5,3.4v6.3h-1.5V261.6z M474.7,258.1c-0.2,0.3-1.9,0.5-2.5,0.5c-1.1,0.1-2.2,0.5-2.2,1.6c0,1,0.8,1.5,2,1.5
					c1.7,0,2.7-1.2,2.7-2.4V258.1z"/>
                    <path class="st4" d="M483.6,254.9c-0.1-0.1-0.4-0.2-0.8-0.2c-1.6,0-2.5,1.5-2.5,2.8v5.4h-1.5v-9.5h1.5v1.6h0.1
					c0.3-0.9,1.3-1.8,2.4-1.8c0.5,0,1,0.2,1.3,0.3L483.6,254.9z"/>
                    <path class="st4" d="M491.8,262.9v-1.5h-0.1c-0.3,0.5-1,1.7-2.8,1.7c-2.4,0-4-1.9-4-4.9c0-3,1.7-4.9,4.1-4.9
					c1.9,0,2.5,1.1,2.8,1.6h0.1v-4.7h1.5v12.7H491.8z M489,261.8c1.8,0,2.7-1.5,2.7-3.7c0-2.1-0.9-3.6-2.7-3.6
					c-1.9,0-2.8,1.6-2.8,3.6C486.2,260.2,487.2,261.8,489,261.8z"/>
                    <path class="st4" d="M508.4,262.9H501v-12.7h1.5v11.4h5.9V262.9z"/>
                    <path class="st4" d="M510.3,251c0-0.5,0.4-1,1-1c0.6,0,1,0.5,1,1c0,0.5-0.4,1-1,1C510.7,252,510.3,251.6,510.3,251z
					 M512.1,262.9h-1.5v-9.5h1.5V262.9z"/>
                    <path class="st4" d="M516.2,250.2v4.7h0.1c0.3-0.5,0.9-1.6,2.8-1.6c2.4,0,4.1,1.9,4.1,4.9c0,3-1.7,4.9-4,4.9
					c-1.8,0-2.5-1.1-2.8-1.7h-0.2v1.5h-1.4v-12.7H516.2z M519,254.6c-1.8,0-2.7,1.4-2.7,3.6c0,2.2,1,3.7,2.7,3.7
					c1.8,0,2.8-1.6,2.8-3.7C521.7,256.1,520.8,254.6,519,254.6z"/>
                    <path class="st4" d="M530.2,254.9c-0.1-0.1-0.4-0.2-0.8-0.2c-1.6,0-2.5,1.5-2.5,2.8v5.4h-1.5v-9.5h1.5v1.6h0.1
					c0.3-0.9,1.3-1.8,2.4-1.8c0.5,0,1,0.2,1.3,0.3L530.2,254.9z"/>
                    <path class="st4" d="M537.9,261.6L537.9,261.6c-0.4,0.6-1.2,1.5-2.9,1.5c-1.8,0-3.3-1.1-3.3-2.9c0-2.2,1.9-2.6,3.7-2.8
					c1.3-0.2,2.5-0.1,2.5-0.7v0c0-1.6-0.8-2.1-2-2.1c-1.4,0-2.2,0.7-2.5,1.4l-1.4-0.5c0.7-1.7,2.4-2.2,3.8-2.2
					c1.2,0,3.5,0.3,3.5,3.4v6.3h-1.5V261.6z M537.9,258.1c-0.2,0.3-1.9,0.5-2.5,0.5c-1.1,0.1-2.2,0.5-2.2,1.6c0,1,0.8,1.5,2,1.5
					c1.7,0,2.7-1.2,2.7-2.4V258.1z"/>
                    <path class="st4" d="M546.9,254.9c-0.1-0.1-0.4-0.2-0.8-0.2c-1.6,0-2.5,1.5-2.5,2.8v5.4h-1.5v-9.5h1.5v1.6h0.1
					c0.3-0.9,1.3-1.8,2.4-1.8c0.5,0,1,0.2,1.3,0.3L546.9,254.9z"/>
                    <path class="st4" d="M551.8,263l-3.5-9.6h1.6l2.6,7.6h0.1l2.6-7.6h1.6l-4.1,11.1c-0.5,1.5-1.5,2.2-2.8,2.2
					c-0.5,0-0.9-0.1-1.1-0.2l0.4-1.3c1,0.2,1.7,0.1,2.3-1.3L551.8,263z"/>
                    <path class="st4" d="M573.8,250.2v8.4c0,2.9-2.3,4.5-4.9,4.5s-4.9-1.7-4.9-4.5v-8.4h1.5v8.4c0,2,1.6,3.1,3.4,3.1
					s3.4-1.1,3.4-3.1v-8.4H573.8z"/>
                    <path class="st4" d="M576.7,253.4h1.4v1.5h0.2c0.3-0.5,0.9-1.6,2.8-1.6c2.4,0,4.1,1.9,4.1,4.9c0,3-1.7,4.9-4,4.9
					c-1.8,0-2.5-1.1-2.8-1.7h-0.1v5h-1.5V253.4z M580.9,254.6c-1.8,0-2.7,1.4-2.7,3.6c0,2.2,1,3.7,2.7,3.7c1.8,0,2.8-1.6,2.8-3.7
					C583.7,256.1,582.7,254.6,580.9,254.6z"/>
                    <path class="st4" d="M593.9,262.9v-1.5h-0.1c-0.3,0.5-1,1.7-2.8,1.7c-2.4,0-4-1.9-4-4.9c0-3,1.7-4.9,4.1-4.9
					c1.9,0,2.5,1.1,2.8,1.6h0.1v-4.7h1.5v12.7H593.9z M591.2,261.8c1.8,0,2.7-1.5,2.7-3.7c0-2.1-0.9-3.6-2.7-3.6
					c-1.9,0-2.8,1.6-2.8,3.6C588.4,260.2,589.3,261.8,591.2,261.8z"/>
                    <path class="st4" d="M603.8,261.6L603.8,261.6c-0.4,0.6-1.2,1.5-2.9,1.5c-1.8,0-3.3-1.1-3.3-2.9c0-2.2,1.9-2.6,3.7-2.8
					c1.3-0.2,2.5-0.1,2.5-0.7v0c0-1.6-0.8-2.1-2-2.1c-1.4,0-2.2,0.7-2.5,1.4l-1.4-0.5c0.7-1.7,2.4-2.2,3.8-2.2
					c1.2,0,3.5,0.3,3.5,3.4v6.3h-1.5V261.6z M603.8,258.1c-0.2,0.3-1.9,0.5-2.5,0.5c-1.1,0.1-2.2,0.5-2.2,1.6c0,1,0.8,1.5,2,1.5
					c1.7,0,2.7-1.2,2.7-2.4V258.1z"/>
                    <path class="st4" d="M611.8,254.7h-2v5.4c0,1.2,0.6,1.4,1.3,1.4c0.3,0,0.5,0,0.6-0.1l0.3,1.3c-0.2,0.1-0.5,0.2-1.1,0.2
					c-1.2,0-2.6-0.8-2.6-2.5v-5.8h-1.4v-1.4h1.4v-2h1.5v2h2V254.7z"/>
                    <path class="st4" d="M613.5,258.2c0-2.9,1.7-5,4.3-5c2,0,4.1,1.2,4.1,4.8v0.6h-6.9c0.1,2.1,1.2,3.2,3,3.2c1.2,0,2-0.5,2.4-1.5
					l1.4,0.4c-0.4,1.4-1.9,2.4-3.8,2.4C615.1,263.1,613.5,261.1,613.5,258.2z M615,257.4h5.4c0-1.6-1-2.8-2.6-2.8
					C616.3,254.6,615.2,255.6,615,257.4z"/>
                    <path class="st4" d="M629.4,255.9c-0.2-0.4-0.5-1.4-2-1.4c-1.2,0-2,0.6-2,1.4c0,0.6,0.5,1.2,1.6,1.5l1.4,0.3
					c1.7,0.4,2.5,1.4,2.5,2.5c0,1.5-1.3,2.8-3.6,2.8c-2.3,0-3.3-1.2-3.8-2.4l1.3-0.5c0.3,0.9,1,1.6,2.4,1.6c1.4,0,2.2-0.7,2.2-1.5
					c0-0.6-0.4-1-1.4-1.3l-1.6-0.4c-1.7-0.4-2.5-1.5-2.5-2.7c0-1.6,1.5-2.8,3.5-2.8c1.8,0,2.8,0.9,3.3,2.3L629.4,255.9z"/>
			</g>
		</g>
	</g>
</g>
</svg>
