<?xml version="1.0" encoding="utf-8"?>
<!-- Generator: Adobe Illustrator 24.1.2, SVG Export Plug-In . SVG Version: 6.00 Build 0)  -->
<svg version="1.1" id="Layer_1" xmlns="http://www.w3.org/2000/svg" xmlns:xlink="http://www.w3.org/1999/xlink" x="0px" y="0px"
	 viewBox="0 0 960 315" style="enable-background:new 0 0 960 315;" xml:space="preserve">
<style type="text/css">
	.st0{fill:#B4B4B4;}
	.st1{fill:#FFFFFF;}
	.st2{fill:#27282C;}
	.st3{fill:#27282C;enable-background:new    ;}
	.st4{opacity:0.9;fill:#27282C;enable-background:new    ;}
	.st5{fill:#FF722C;}
	.st6{enable-background:new    ;}
	.st7{fill:#FFFFFF;enable-background:new    ;}
</style>
<rect y="0" class="st0" width="960" height="315"/>
<g>
	<g>
		<g>
			<path class="st1" d="M290.97,248.73h-47.62c-7.01,0-12.69-5.68-12.69-12.69v0c0-7.01,5.68-12.69,12.69-12.69h47.62
				c7.01,0,12.69,5.68,12.69,12.69v0C303.66,243.05,297.98,248.73,290.97,248.73z"/>
			<g>
				<path class="st2" d="M245.06,242.21h-2.52v-8.78h-0.1c-0.29,0.48-1.1,0.77-2.4,0.77v-2.21c2.28,0,2.52-1.97,2.52-2.06h2.49
					V242.21z"/>
				<path class="st2" d="M248.36,240.86c0-0.82,0.67-1.49,1.49-1.49s1.49,0.67,1.49,1.49c0,0.84-0.67,1.51-1.49,1.51
					S248.36,241.7,248.36,240.86z"/>
				<path class="st2" d="M262.49,239.81h-1.82v2.4h-2.47v-2.4h-5.18v-1.85l4.89-8.04h2.76v7.58h1.82V239.81z M258.2,237.5v-4.16
					l-0.29,0.49l-2.13,3.67H258.2z"/>
				<path class="st2" d="M273.15,237.7h-1.61v4.51h-2.78v-12.28h4.73c2.9,0,4.41,1.44,4.41,3.84c0,1.71-0.84,2.79-2,3.42l2.5,5.02
					h-3.05L273.15,237.7z M271.54,235.42h1.94c0.98,0,1.66-0.5,1.66-1.58c0-1.05-0.65-1.61-1.66-1.61h-1.94V235.42z"/>
				<path class="st2" d="M286.83,234.17c-0.36-1.29-1.27-1.92-2.42-1.92c-1.56,0-2.61,1.13-2.61,3.84c0,2.71,1.05,3.79,2.61,3.79
					c1.15,0,2.01-0.6,2.38-1.85l2.71,0.38c-0.67,2.54-2.64,3.96-5.08,3.96c-3.12,0-5.42-2.3-5.42-6.29c0-4.01,2.3-6.33,5.42-6.33
					c2.45,0,4.44,1.44,5.11,4.03L286.83,234.17z"/>
				<path class="st2" d="M291.25,234.67c0-0.82,0.67-1.49,1.49-1.49s1.49,0.67,1.49,1.49c0,0.84-0.67,1.51-1.49,1.51
					S291.25,235.51,291.25,234.67z M291.25,240.86c0-0.82,0.67-1.49,1.49-1.49s1.49,0.67,1.49,1.49c0,0.84-0.67,1.51-1.49,1.51
					S291.25,241.7,291.25,240.86z"/>
			</g>
		</g>
		<g>
			<path class="st1" d="M716.65,248.73H320.89c-7.01,0-12.69-5.68-12.69-12.69v0c0-7.01,5.68-12.69,12.69-12.69h395.75
				c7.01,0,12.69,5.68,12.69,12.69v0C729.34,243.05,723.66,248.73,716.65,248.73z"/>
			<g>
				<path class="st3" d="M319.61,242.21h-1.49v-12.28h1.49V242.21z"/>
				<path class="st3" d="M329.04,242.21h-1.44v-6.02c0-1.39-0.65-1.94-1.68-1.94c-1.08,0-2.11,0.96-2.11,2.47v5.49h-1.42V233h1.42
					v1.56h0.1c0.26-0.79,1.22-1.68,2.4-1.68c1.15,0,1.97,0.74,2.38,1.66h0.1c0.26-0.77,1.32-1.66,2.66-1.66
					c1.54,0,2.78,1.06,2.78,3.31v6.02h-1.42v-6.07c0-1.44-1.03-1.89-1.8-1.89c-1.25,0-1.97,0.89-1.97,2.18V242.21z"/>
				<path class="st3" d="M336.82,233h1.37v1.46h0.17c0.31-0.48,0.86-1.58,2.66-1.58c2.33,0,3.93,1.85,3.93,4.75
					c0,2.93-1.61,4.77-3.91,4.77c-1.77,0-2.37-1.1-2.69-1.61h-0.12v4.87h-1.42V233z M340.85,234.15c-1.73,0-2.64,1.39-2.64,3.45
					c0,2.09,0.94,3.53,2.64,3.53c1.78,0,2.69-1.56,2.69-3.53C343.54,235.66,342.65,234.15,340.85,234.15z"/>
				<path class="st3" d="M351.72,234.51c-0.14-0.07-0.38-0.19-0.79-0.19c-1.51,0-2.38,1.44-2.4,2.69v5.21h-1.42V233h1.42v1.58h0.1
					c0.26-0.89,1.27-1.73,2.35-1.73c0.48,0,0.94,0.17,1.22,0.34L351.72,234.51z"/>
				<path class="st3" d="M352.83,237.65c0-2.88,1.68-4.77,4.17-4.77c2.5,0,4.17,1.89,4.17,4.77c0,2.85-1.68,4.75-4.17,4.75
					C354.51,242.4,352.83,240.5,352.83,237.65z M359.76,237.65c0-1.85-0.86-3.5-2.76-3.5c-1.89,0-2.76,1.66-2.76,3.5
					s0.86,3.48,2.76,3.48C358.9,241.13,359.76,239.5,359.76,237.65z"/>
				<path class="st3" d="M367.13,242.21h-1.44l-3.41-9.21h1.54l2.54,7.34h0.1L369,233h1.54L367.13,242.21z"/>
				<path class="st3" d="M371.67,237.67c0-2.83,1.66-4.8,4.15-4.8c1.92,0,3.96,1.18,3.96,4.61v0.6h-6.67
					c0.14,1.99,1.19,3.05,2.86,3.05c1.13,0,1.94-0.48,2.3-1.44l1.37,0.38c-0.43,1.39-1.8,2.33-3.67,2.33
					C373.3,242.4,371.67,240.5,371.67,237.67z M373.13,236.86h5.21c0-1.56-0.98-2.71-2.52-2.71
					C374.4,234.15,373.36,235.13,373.13,236.86z"/>
				<path class="st3" d="M388.3,242.21v-1.42h-0.14c-0.31,0.5-0.93,1.61-2.71,1.61c-2.3,0-3.91-1.85-3.91-4.77
					c0-2.9,1.61-4.75,3.93-4.75c1.8,0,2.37,1.1,2.69,1.58h0.1v-4.53h1.42v12.28H388.3z M385.63,241.13c1.7,0,2.64-1.44,2.64-3.53
					c0-2.06-0.91-3.45-2.64-3.45c-1.8,0-2.69,1.51-2.69,3.45C382.95,239.57,383.86,241.13,385.63,241.13z"/>
				<path class="st3" d="M398.69,242.21h-1.49v-12.28h1.49V242.21z"/>
				<path class="st3" d="M401.48,242.21v-12.28h3.96c3.57,0,5.68,2.3,5.68,6.12c0,3.84-2.11,6.17-5.85,6.17H401.48z M402.96,231.24
					v9.64h2.21c3.05,0,4.51-1.85,4.51-4.85c0-2.97-1.46-4.8-4.34-4.8H402.96z"/>
				<path class="st3" d="M421.13,242.21h-7.51v-12.28h7.41v1.32h-5.92v4.15h5.3v1.32h-5.3v4.17h6.02V242.21z"/>
				<path class="st3" d="M433.37,235.42c-0.17-0.41-0.53-1.34-1.94-1.34c-1.13,0-1.97,0.6-1.97,1.39c0,0.62,0.5,1.17,1.56,1.44
					l1.37,0.34c1.68,0.41,2.37,1.37,2.37,2.42c0,1.42-1.22,2.73-3.5,2.73c-2.21,0-3.21-1.17-3.67-2.33l1.29-0.48
					c0.34,0.84,0.98,1.58,2.35,1.58c1.32,0,2.09-0.7,2.09-1.46c0-0.6-0.41-1.01-1.32-1.22l-1.54-0.38
					c-1.68-0.43-2.42-1.44-2.42-2.57c0-1.56,1.44-2.66,3.38-2.66c1.7,0,2.73,0.84,3.21,2.18L433.37,235.42z"/>
				<path class="st3" d="M442.85,233h1.42v9.21h-1.42v-1.3h-0.1c-0.46,0.7-1.34,1.42-2.73,1.42c-1.34,0-2.97-1.06-2.97-3.48V233
					h1.42v5.85c0,1.34,0.84,2.11,2.01,2.11c1.06,0,2.37-0.67,2.37-2.4V233z"/>
				<path class="st3" d="M446.86,233h1.37v1.46h0.17c0.31-0.48,0.86-1.58,2.66-1.58c2.33,0,3.93,1.85,3.93,4.75
					c0,2.93-1.61,4.77-3.91,4.77c-1.77,0-2.37-1.1-2.69-1.61h-0.12v4.87h-1.42V233z M450.89,234.15c-1.73,0-2.64,1.39-2.64,3.45
					c0,2.09,0.94,3.53,2.64,3.53c1.77,0,2.69-1.56,2.69-3.53C453.58,235.66,452.69,234.15,450.89,234.15z"/>
				<path class="st3" d="M457.16,233h1.37v1.46h0.17c0.31-0.48,0.86-1.58,2.66-1.58c2.33,0,3.93,1.85,3.93,4.75
					c0,2.93-1.61,4.77-3.91,4.77c-1.77,0-2.37-1.1-2.69-1.61h-0.12v4.87h-1.42V233z M461.19,234.15c-1.73,0-2.64,1.39-2.64,3.45
					c0,2.09,0.94,3.53,2.64,3.53c1.78,0,2.69-1.56,2.69-3.53C463.87,235.66,462.99,234.15,461.19,234.15z"/>
				<path class="st3" d="M467.02,237.65c0-2.88,1.68-4.77,4.17-4.77c2.5,0,4.17,1.89,4.17,4.77c0,2.85-1.68,4.75-4.17,4.75
					C468.7,242.4,467.02,240.5,467.02,237.65z M473.95,237.65c0-1.85-0.86-3.5-2.76-3.5c-1.89,0-2.76,1.66-2.76,3.5
					s0.86,3.48,2.76,3.48C473.09,241.13,473.95,239.5,473.95,237.65z"/>
				<path class="st3" d="M482.14,234.51c-0.14-0.07-0.38-0.19-0.79-0.19c-1.51,0-2.38,1.44-2.4,2.69v5.21h-1.42V233h1.42v1.58h0.1
					c0.26-0.89,1.27-1.73,2.35-1.73c0.48,0,0.94,0.17,1.22,0.34L482.14,234.51z"/>
				<path class="st3" d="M488.5,234.31h-1.97v5.25c0,1.2,0.6,1.39,1.22,1.39c0.31,0,0.5-0.05,0.62-0.07l0.29,1.27
					c-0.19,0.07-0.53,0.17-1.06,0.17c-1.2,0-2.49-0.77-2.49-2.38v-5.64h-1.39V233h1.39v-1.97h1.42V233h1.97V234.31z"/>
				<path class="st3" d="M496.01,234.31h-1.49V233h1.49v-0.86c0-1.58,1.27-2.38,2.59-2.38c0.7,0,1.13,0.14,1.34,0.24l-0.41,1.22
					c-0.14-0.05-0.38-0.14-0.79-0.14c-0.94,0-1.32,0.48-1.32,1.39V233h2.06v1.32h-2.06v7.89h-1.42V234.31z"/>
				<path class="st3" d="M500.63,237.65c0-2.88,1.68-4.77,4.17-4.77c2.5,0,4.17,1.89,4.17,4.77c0,2.85-1.68,4.75-4.17,4.75
					C502.31,242.4,500.63,240.5,500.63,237.65z M507.57,237.65c0-1.85-0.86-3.5-2.76-3.5c-1.89,0-2.76,1.66-2.76,3.5
					s0.86,3.48,2.76,3.48C506.7,241.13,507.57,239.5,507.57,237.65z"/>
				<path class="st3" d="M515.75,234.51c-0.14-0.07-0.38-0.19-0.79-0.19c-1.51,0-2.38,1.44-2.4,2.69v5.21h-1.42V233h1.42v1.58h0.1
					c0.26-0.89,1.27-1.73,2.35-1.73c0.48,0,0.94,0.17,1.22,0.34L515.75,234.51z"/>
				<path class="st3" d="M532.62,237.43c0,3.02-2.16,4.94-5.01,4.94c-3.19,0-5.47-2.42-5.47-6.31s2.28-6.31,5.37-6.31
					c2.45,0,4.29,1.49,5.01,4.01h-1.51c-0.58-1.7-1.92-2.62-3.5-2.62c-2.18,0-3.93,1.73-3.93,4.92s1.75,4.92,4.03,4.92
					c2.09,0,3.57-1.46,3.57-3.55h-3v-1.32h4.44V237.43z"/>
				<path class="st3" d="M539.58,234.51c-0.14-0.07-0.38-0.19-0.79-0.19c-1.51,0-2.38,1.44-2.4,2.69v5.21h-1.42V233h1.42v1.58h0.1
					c0.26-0.89,1.27-1.73,2.35-1.73c0.48,0,0.94,0.17,1.22,0.34L539.58,234.51z"/>
				<path class="st3" d="M547.02,240.96h-0.07c-0.29,0.6-1.13,1.46-2.73,1.46c-1.75,0-3.14-1.03-3.14-2.83
					c0-2.09,1.85-2.49,3.57-2.71c1.27-0.17,2.38-0.12,2.38-0.72v-0.02c0-1.54-0.82-2.01-1.92-2.01c-1.37,0-2.11,0.72-2.42,1.39
					l-1.34-0.48c0.72-1.68,2.3-2.16,3.69-2.16c1.18,0,3.41,0.34,3.41,3.26v6.07h-1.42V240.96z M547.02,237.58
					c-0.24,0.29-1.85,0.46-2.45,0.53c-1.1,0.14-2.09,0.48-2.09,1.56c0,0.98,0.82,1.49,1.94,1.49c1.68,0,2.59-1.13,2.59-2.28V237.58z
					"/>
				<path class="st3" d="M557.32,242.21v-1.42h-0.14c-0.31,0.5-0.93,1.61-2.71,1.61c-2.3,0-3.91-1.85-3.91-4.77
					c0-2.9,1.61-4.75,3.93-4.75c1.8,0,2.37,1.1,2.69,1.58h0.1v-4.53h1.42v12.28H557.32z M554.66,241.13c1.7,0,2.64-1.44,2.64-3.53
					c0-2.06-0.91-3.45-2.64-3.45c-1.8,0-2.69,1.51-2.69,3.45C551.97,239.57,552.88,241.13,554.66,241.13z"/>
				<path class="st3" d="M562.6,242.21h-1.42v-12.28h1.42V242.21z"/>
				<path class="st3" d="M564.76,237.67c0-2.83,1.66-4.8,4.15-4.8c1.92,0,3.96,1.18,3.96,4.61v0.6h-6.67
					c0.14,1.99,1.19,3.05,2.86,3.05c1.13,0,1.94-0.48,2.3-1.44l1.37,0.38c-0.43,1.39-1.8,2.33-3.67,2.33
					C566.39,242.4,564.76,240.5,564.76,237.67z M566.23,236.86h5.21c0-1.56-0.98-2.71-2.52-2.71
					C567.5,234.15,566.45,235.13,566.23,236.86z"/>
				<path class="st3" d="M583.03,236.49l-1.54,1.72v3.99H580v-12.28h1.49v6.09h0.14l5.52-6.09h1.94l-5.15,5.54l5.15,6.74h-1.8
					L583.03,236.49z"/>
				<path class="st3" d="M589.74,237.65c0-2.88,1.68-4.77,4.17-4.77c2.5,0,4.17,1.89,4.17,4.77c0,2.85-1.68,4.75-4.17,4.75
					C591.42,242.4,589.74,240.5,589.74,237.65z M596.67,237.65c0-1.85-0.86-3.5-2.76-3.5c-1.89,0-2.76,1.66-2.76,3.5
					s0.86,3.48,2.76,3.48C595.8,241.13,596.67,239.5,596.67,237.65z"/>
				<path class="st3" d="M604.11,234.31h-1.97v5.25c0,1.2,0.6,1.39,1.22,1.39c0.31,0,0.5-0.05,0.62-0.07l0.29,1.27
					c-0.19,0.07-0.53,0.17-1.06,0.17c-1.2,0-2.49-0.77-2.49-2.38v-5.64h-1.39V233h1.39v-1.97h1.42V233h1.97V234.31z"/>
				<path class="st3" d="M607.66,242.21h-1.42v-12.28h1.42V242.21z"/>
				<path class="st3" d="M609.94,230.72c0-0.48,0.38-0.96,1.01-0.96c0.62,0,1.01,0.48,1.01,0.96c0,0.53-0.38,0.96-1.01,0.96
					C610.33,231.68,609.94,231.24,609.94,230.72z M611.67,242.21h-1.42V233h1.42V242.21z"/>
				<path class="st3" d="M615.68,242.21h-1.42V233h1.42v1.56h0.1c0.43-0.94,1.34-1.68,2.73-1.68c1.73,0,2.97,1.13,2.97,3.48v5.85
					h-1.42v-5.76c0-1.34-0.84-2.21-2.01-2.21c-1.06,0-2.37,0.79-2.37,2.52V242.21z"/>
				<path class="st3" d="M629.02,242.21v-12.28h3.96c3.57,0,5.68,2.3,5.68,6.12c0,3.84-2.11,6.17-5.85,6.17H629.02z M630.51,231.24
					v9.64h2.21c3.05,0,4.51-1.85,4.51-4.85c0-2.97-1.46-4.8-4.34-4.8H630.51z"/>
				<path class="st3" d="M645.08,231.08c-1.63,0-2.71,0.86-2.71,2.06c0,0.98,0.74,1.58,2.38,2.01l1.25,0.34
					c2.33,0.62,3.45,1.66,3.45,3.36c0,2.01-1.61,3.57-4.44,3.57c-2.64,0-4.27-1.37-4.41-3.38h1.54c0.12,1.39,1.42,2.04,2.88,2.04
					c1.7,0,3-0.89,3-2.23c0-1.1-0.79-1.56-2.45-2.04l-1.51-0.43c-1.92-0.55-3.12-1.54-3.12-3.19c0-2.06,1.85-3.43,4.2-3.43
					c2.37,0,4.03,1.39,4.15,3.33h-1.44C647.62,231.77,646.56,231.08,645.08,231.08z"/>
				<path class="st3" d="M659.09,242.21h-7.2v-12.28h1.49v10.96h5.71V242.21z"/>
				<path class="st3" d="M671.05,235.42c-0.17-0.41-0.53-1.34-1.94-1.34c-1.13,0-1.97,0.6-1.97,1.39c0,0.62,0.5,1.17,1.56,1.44
					l1.37,0.34c1.68,0.41,2.37,1.37,2.37,2.42c0,1.42-1.22,2.73-3.5,2.73c-2.21,0-3.21-1.17-3.67-2.33l1.29-0.48
					c0.34,0.84,0.98,1.58,2.35,1.58c1.32,0,2.09-0.7,2.09-1.46c0-0.6-0.41-1.01-1.32-1.22l-1.54-0.38
					c-1.68-0.43-2.42-1.44-2.42-2.57c0-1.56,1.44-2.66,3.38-2.66c1.7,0,2.73,0.84,3.21,2.18L671.05,235.42z"/>
				<path class="st3" d="M680.67,235.75c-0.22-0.84-0.96-1.61-2.21-1.61c-1.66,0-2.76,1.37-2.76,3.45c0,2.13,1.08,3.53,2.76,3.53
					c1.1,0,1.94-0.6,2.21-1.61h1.42c-0.24,1.63-1.58,2.88-3.62,2.88c-2.57,0-4.17-1.97-4.17-4.8c0-2.76,1.66-4.73,4.15-4.73
					c1.94,0,3.41,1.15,3.65,2.88H680.67z"/>
				<path class="st3" d="M688.76,234.51c-0.14-0.07-0.38-0.19-0.79-0.19c-1.51,0-2.38,1.44-2.4,2.69v5.21h-1.42V233h1.42v1.58h0.1
					c0.26-0.89,1.27-1.73,2.35-1.73c0.48,0,0.94,0.17,1.22,0.34L688.76,234.51z"/>
				<path class="st3" d="M690.53,230.72c0-0.48,0.38-0.96,1.01-0.96c0.62,0,1.01,0.48,1.01,0.96c0,0.53-0.38,0.96-1.01,0.96
					C690.92,231.68,690.53,231.24,690.53,230.72z M692.26,242.21h-1.42V233h1.42V242.21z"/>
				<path class="st3" d="M694.85,233h1.37v1.46h0.17c0.31-0.48,0.86-1.58,2.66-1.58c2.33,0,3.93,1.85,3.93,4.75
					c0,2.93-1.61,4.77-3.91,4.77c-1.77,0-2.37-1.1-2.69-1.61h-0.12v4.87h-1.42V233z M698.88,234.15c-1.73,0-2.64,1.39-2.64,3.45
					c0,2.09,0.94,3.53,2.64,3.53c1.77,0,2.69-1.56,2.69-3.53C701.57,235.66,700.68,234.15,698.88,234.15z"/>
				<path class="st3" d="M709.01,234.31h-1.97v5.25c0,1.2,0.6,1.39,1.22,1.39c0.31,0,0.5-0.05,0.62-0.07l0.29,1.27
					c-0.19,0.07-0.53,0.17-1.06,0.17c-1.2,0-2.49-0.77-2.49-2.38v-5.64h-1.39V233h1.39v-1.97h1.42V233h1.97V234.31z"/>
				<path class="st3" d="M716.06,235.42c-0.17-0.41-0.53-1.34-1.94-1.34c-1.13,0-1.97,0.6-1.97,1.39c0,0.62,0.5,1.17,1.56,1.44
					l1.37,0.34c1.68,0.41,2.37,1.37,2.37,2.42c0,1.42-1.22,2.73-3.5,2.73c-2.21,0-3.21-1.17-3.67-2.33l1.29-0.48
					c0.34,0.84,0.98,1.58,2.35,1.58c1.32,0,2.09-0.7,2.09-1.46c0-0.6-0.41-1.01-1.32-1.22l-1.54-0.38
					c-1.68-0.43-2.42-1.44-2.42-2.57c0-1.56,1.44-2.66,3.38-2.66c1.7,0,2.73,0.84,3.21,2.18L716.06,235.42z"/>
			</g>
		</g>
	</g>
	<g>
		<g>
			<path class="st1" d="M688.94,278.65h-81.78c-7.01,0-12.69-5.68-12.69-12.69v0c0-7.01,5.68-12.69,12.69-12.69h81.78
				c7.01,0,12.69,5.68,12.69,12.69v0C701.63,272.97,695.95,278.65,688.94,278.65z"/>
			<g>
				<path class="st3" d="M603.33,272.13l4.51-12.28h1.54l4.51,12.28h-1.56l-1.16-3.29h-5.12l-1.16,3.29H603.33z M606.51,267.53h4.19
					l-2.02-5.73h-0.14L606.51,267.53z"/>
				<path class="st3" d="M617.03,272.13h-1.42v-9.21h1.42v1.56h0.1c0.43-0.94,1.34-1.68,2.73-1.68c1.73,0,2.97,1.13,2.97,3.48v5.85
					h-1.42v-5.76c0-1.34-0.84-2.21-2.01-2.21c-1.06,0-2.37,0.79-2.37,2.52V272.13z"/>
				<path class="st3" d="M631.71,272.13v-1.42h-0.14c-0.31,0.5-0.93,1.61-2.71,1.61c-2.3,0-3.91-1.85-3.91-4.77
					c0-2.9,1.61-4.75,3.93-4.75c1.8,0,2.37,1.1,2.69,1.58h0.1v-4.53h1.42v12.28H631.71z M629.05,271.05c1.7,0,2.64-1.44,2.64-3.53
					c0-2.06-0.91-3.45-2.64-3.45c-1.8,0-2.69,1.51-2.69,3.45C626.36,269.49,627.28,271.05,629.05,271.05z"/>
				<path class="st3" d="M647.07,272.13h-1.44v-6.02c0-1.39-0.65-1.94-1.68-1.94c-1.08,0-2.11,0.96-2.11,2.47v5.49h-1.42v-9.21h1.42
					v1.56h0.1c0.26-0.79,1.22-1.68,2.4-1.68c1.15,0,1.97,0.74,2.38,1.66h0.1c0.26-0.77,1.32-1.66,2.66-1.66
					c1.54,0,2.78,1.06,2.78,3.31v6.02h-1.42v-6.07c0-1.44-1.03-1.89-1.8-1.89c-1.25,0-1.97,0.89-1.97,2.18V272.13z"/>
				<path class="st3" d="M654.37,267.57c0-2.88,1.68-4.77,4.17-4.77c2.5,0,4.17,1.89,4.17,4.77c0,2.85-1.68,4.75-4.17,4.75
					C656.05,272.32,654.37,270.43,654.37,267.57z M661.31,267.57c0-1.85-0.86-3.5-2.76-3.5c-1.89,0-2.76,1.66-2.76,3.5
					s0.86,3.48,2.76,3.48C660.44,271.05,661.31,269.42,661.31,267.57z"/>
				<path class="st3" d="M669.49,264.43c-0.14-0.07-0.38-0.19-0.79-0.19c-1.51,0-2.38,1.44-2.4,2.69v5.21h-1.42v-9.21h1.42v1.58h0.1
					c0.26-0.89,1.27-1.73,2.35-1.73c0.48,0,0.94,0.17,1.22,0.34L669.49,264.43z"/>
				<path class="st3" d="M670.6,267.6c0-2.83,1.66-4.8,4.15-4.8c1.92,0,3.96,1.18,3.96,4.61v0.6h-6.67
					c0.14,1.99,1.19,3.05,2.86,3.05c1.13,0,1.94-0.48,2.3-1.44l1.37,0.38c-0.43,1.39-1.8,2.33-3.67,2.33
					C672.23,272.32,670.6,270.43,670.6,267.6z M672.06,266.78h5.21c0-1.56-0.98-2.71-2.52-2.71
					C673.33,264.07,672.29,265.05,672.06,266.78z"/>
				<path class="st3" d="M680.85,271.15c0-0.6,0.5-1.06,1.08-1.06c0.6,0,1.08,0.48,1.08,1.06c0,0.6-0.48,1.08-1.08,1.08
					S680.85,271.75,680.85,271.15z"/>
				<path class="st3" d="M685.5,271.15c0-0.6,0.5-1.06,1.08-1.06c0.6,0,1.08,0.48,1.08,1.06c0,0.6-0.48,1.08-1.08,1.08
					S685.5,271.75,685.5,271.15z"/>
				<path class="st3" d="M690.16,271.15c0-0.6,0.5-1.06,1.08-1.06c0.6,0,1.08,0.48,1.08,1.06c0,0.6-0.48,1.08-1.08,1.08
					S690.16,271.75,690.16,271.15z"/>
			</g>
		</g>
		<g>
			<path class="st1" d="M576.96,278.65h-305.9c-7.01,0-12.69-5.68-12.69-12.69v0c0-7.01,5.68-12.69,12.69-12.69h305.9
				c7.01,0,12.69,5.68,12.69,12.69v0C589.65,272.97,583.97,278.65,576.96,278.65z"/>
			<g>
				<path class="st4" d="M272.2,261c-1.63,0-2.71,0.86-2.71,2.06c0,0.98,0.74,1.58,2.38,2.01l1.25,0.34
					c2.33,0.62,3.45,1.66,3.45,3.36c0,2.01-1.61,3.57-4.44,3.57c-2.64,0-4.27-1.37-4.41-3.38h1.54c0.12,1.39,1.42,2.04,2.88,2.04
					c1.7,0,3-0.89,3-2.23c0-1.1-0.79-1.56-2.45-2.04l-1.51-0.43c-1.92-0.55-3.12-1.54-3.12-3.19c0-2.06,1.85-3.43,4.2-3.43
					c2.37,0,4.03,1.39,4.15,3.33h-1.44C274.74,261.7,273.69,261,272.2,261z"/>
				<path class="st4" d="M282.69,264.24h-1.97v5.25c0,1.2,0.6,1.39,1.22,1.39c0.31,0,0.5-0.05,0.62-0.07l0.29,1.27
					c-0.19,0.07-0.53,0.17-1.06,0.17c-1.2,0-2.49-0.77-2.49-2.38v-5.64h-1.39v-1.32h1.39v-1.97h1.42v1.97h1.97V264.24z"/>
				<path class="st4" d="M290.34,270.88h-0.07c-0.29,0.6-1.13,1.46-2.73,1.46c-1.75,0-3.14-1.03-3.14-2.83
					c0-2.09,1.85-2.49,3.57-2.71c1.27-0.17,2.38-0.12,2.38-0.72v-0.02c0-1.54-0.82-2.01-1.92-2.01c-1.37,0-2.11,0.72-2.42,1.39
					l-1.34-0.48c0.72-1.68,2.3-2.16,3.69-2.16c1.18,0,3.41,0.34,3.41,3.26v6.07h-1.42V270.88z M290.34,267.5
					c-0.24,0.29-1.85,0.46-2.45,0.53c-1.1,0.14-2.09,0.48-2.09,1.56c0,0.98,0.82,1.49,1.94,1.49c1.68,0,2.59-1.13,2.59-2.28V267.5z"
					/>
				<path class="st4" d="M295.77,272.13h-1.42v-9.21h1.42v1.56h0.1c0.43-0.94,1.34-1.68,2.73-1.68c1.73,0,2.97,1.13,2.97,3.48v5.85
					h-1.42v-5.76c0-1.34-0.84-2.21-2.01-2.21c-1.06,0-2.37,0.79-2.37,2.52V272.13z"/>
				<path class="st4" d="M310.46,272.13v-1.42h-0.14c-0.31,0.5-0.93,1.61-2.71,1.61c-2.3,0-3.91-1.85-3.91-4.77
					c0-2.9,1.61-4.75,3.93-4.75c1.8,0,2.37,1.1,2.69,1.58h0.1v-4.53h1.42v12.28H310.46z M307.79,271.05c1.7,0,2.64-1.44,2.64-3.53
					c0-2.06-0.91-3.45-2.64-3.45c-1.8,0-2.69,1.51-2.69,3.45C305.11,269.49,306.02,271.05,307.79,271.05z"/>
				<path class="st4" d="M319.94,270.88h-0.07c-0.29,0.6-1.13,1.46-2.73,1.46c-1.75,0-3.14-1.03-3.14-2.83
					c0-2.09,1.85-2.49,3.57-2.71c1.27-0.17,2.38-0.12,2.38-0.72v-0.02c0-1.54-0.82-2.01-1.92-2.01c-1.37,0-2.11,0.72-2.42,1.39
					l-1.34-0.48c0.72-1.68,2.3-2.16,3.69-2.16c1.18,0,3.41,0.34,3.41,3.26v6.07h-1.42V270.88z M319.94,267.5
					c-0.24,0.29-1.85,0.46-2.45,0.53c-1.1,0.14-2.09,0.48-2.09,1.56c0,0.98,0.82,1.49,1.94,1.49c1.68,0,2.59-1.13,2.59-2.28V267.5z"
					/>
				<path class="st4" d="M328.55,264.43c-0.14-0.07-0.38-0.19-0.79-0.19c-1.51,0-2.38,1.44-2.4,2.69v5.21h-1.42v-9.21h1.42v1.58h0.1
					c0.26-0.89,1.27-1.73,2.35-1.73c0.48,0,0.94,0.17,1.22,0.34L328.55,264.43z"/>
				<path class="st4" d="M336.42,272.13v-1.42h-0.14c-0.31,0.5-0.93,1.61-2.71,1.61c-2.3,0-3.91-1.85-3.91-4.77
					c0-2.9,1.61-4.75,3.93-4.75c1.8,0,2.37,1.1,2.69,1.58h0.1v-4.53h1.42v12.28H336.42z M333.76,271.05c1.7,0,2.64-1.44,2.64-3.53
					c0-2.06-0.91-3.45-2.64-3.45c-1.8,0-2.69,1.51-2.69,3.45C331.07,269.49,331.99,271.05,333.76,271.05z"/>
				<path class="st4" d="M346.56,272.13h-1.42v-12.28h1.42V272.13z"/>
				<path class="st4" d="M348.84,260.64c0-0.48,0.38-0.96,1.01-0.96c0.62,0,1.01,0.48,1.01,0.96c0,0.53-0.38,0.96-1.01,0.96
					C349.22,261.6,348.84,261.17,348.84,260.64z M350.56,272.13h-1.42v-9.21h1.42V272.13z"/>
				<path class="st4" d="M354.57,259.85v4.53h0.12c0.31-0.48,0.86-1.58,2.66-1.58c2.33,0,3.93,1.85,3.93,4.75
					c0,2.93-1.61,4.77-3.91,4.77c-1.77,0-2.37-1.1-2.69-1.61h-0.17v1.42h-1.37v-12.28H354.57z M357.19,264.07
					c-1.73,0-2.64,1.39-2.64,3.45c0,2.09,0.94,3.53,2.64,3.53c1.77,0,2.69-1.56,2.69-3.53
					C359.87,265.58,358.98,264.07,357.19,264.07z"/>
				<path class="st4" d="M368.06,264.43c-0.14-0.07-0.38-0.19-0.79-0.19c-1.51,0-2.38,1.44-2.4,2.69v5.21h-1.42v-9.21h1.42v1.58h0.1
					c0.26-0.89,1.27-1.73,2.35-1.73c0.48,0,0.94,0.17,1.22,0.34L368.06,264.43z"/>
				<path class="st4" d="M375.5,270.88h-0.07c-0.29,0.6-1.13,1.46-2.73,1.46c-1.75,0-3.14-1.03-3.14-2.83
					c0-2.09,1.85-2.49,3.57-2.71c1.27-0.17,2.38-0.12,2.38-0.72v-0.02c0-1.54-0.82-2.01-1.92-2.01c-1.37,0-2.11,0.72-2.42,1.39
					l-1.34-0.48c0.72-1.68,2.3-2.16,3.69-2.16c1.18,0,3.41,0.34,3.41,3.26v6.07h-1.42V270.88z M375.5,267.5
					c-0.24,0.29-1.85,0.46-2.45,0.53c-1.1,0.14-2.09,0.48-2.09,1.56c0,0.98,0.82,1.49,1.94,1.49c1.68,0,2.59-1.13,2.59-2.28V267.5z"
					/>
				<path class="st4" d="M384.11,264.43c-0.14-0.07-0.38-0.19-0.79-0.19c-1.51,0-2.38,1.44-2.4,2.69v5.21h-1.42v-9.21h1.42v1.58h0.1
					c0.26-0.89,1.27-1.73,2.35-1.73c0.48,0,0.94,0.17,1.22,0.34L384.11,264.43z"/>
				<path class="st4" d="M388.93,272.19l-3.42-9.27h1.54l2.54,7.34h0.1l2.54-7.34h1.54l-3.96,10.7c-0.53,1.42-1.44,2.09-2.71,2.09
					c-0.48,0-0.89-0.1-1.03-0.17l0.36-1.25c1.01,0.24,1.66,0.12,2.18-1.25L388.93,272.19z"/>
				<path class="st4" d="M405.9,270.88h-0.07c-0.29,0.6-1.13,1.46-2.73,1.46c-1.75,0-3.14-1.03-3.14-2.83
					c0-2.09,1.85-2.49,3.57-2.71c1.27-0.17,2.38-0.12,2.38-0.72v-0.02c0-1.54-0.82-2.01-1.92-2.01c-1.37,0-2.11,0.72-2.42,1.39
					l-1.34-0.48c0.72-1.68,2.3-2.16,3.69-2.16c1.18,0,3.41,0.34,3.41,3.26v6.07h-1.42V270.88z M405.9,267.5
					c-0.24,0.29-1.85,0.46-2.45,0.53c-1.1,0.14-2.09,0.48-2.09,1.56c0,0.98,0.82,1.49,1.94,1.49c1.68,0,2.59-1.13,2.59-2.28V267.5z"
					/>
				<path class="st4" d="M415,265.34c-0.17-0.41-0.53-1.34-1.94-1.34c-1.13,0-1.97,0.6-1.97,1.39c0,0.62,0.5,1.17,1.56,1.44
					l1.37,0.34c1.68,0.41,2.37,1.37,2.37,2.42c0,1.42-1.22,2.73-3.5,2.73c-2.21,0-3.21-1.17-3.67-2.33l1.29-0.48
					c0.34,0.84,0.98,1.58,2.35,1.58c1.32,0,2.09-0.7,2.09-1.46c0-0.6-0.41-1.01-1.32-1.22l-1.54-0.38
					c-1.68-0.43-2.42-1.44-2.42-2.57c0-1.56,1.44-2.66,3.38-2.66c1.7,0,2.73,0.84,3.21,2.18L415,265.34z"/>
				<path class="st4" d="M429.76,272.13v-1.42h-0.14c-0.31,0.5-0.93,1.61-2.71,1.61c-2.3,0-3.91-1.85-3.91-4.77
					c0-2.9,1.61-4.75,3.93-4.75c1.8,0,2.37,1.1,2.69,1.58h0.1v-4.53h1.42v12.28H429.76z M427.1,271.05c1.7,0,2.64-1.44,2.64-3.53
					c0-2.06-0.91-3.45-2.64-3.45c-1.8,0-2.69,1.51-2.69,3.45C424.41,269.49,425.32,271.05,427.1,271.05z"/>
				<path class="st4" d="M433.29,267.6c0-2.83,1.66-4.8,4.15-4.8c1.92,0,3.96,1.18,3.96,4.61v0.6h-6.67
					c0.14,1.99,1.19,3.05,2.86,3.05c1.13,0,1.94-0.48,2.3-1.44l1.37,0.38c-0.43,1.39-1.8,2.33-3.67,2.33
					C434.92,272.32,433.29,270.43,433.29,267.6z M434.76,266.78h5.21c0-1.56-0.98-2.71-2.52-2.71
					C436.03,264.07,434.98,265.05,434.76,266.78z"/>
				<path class="st4" d="M444.21,264.24h-1.49v-1.32h1.49v-0.86c0-1.58,1.27-2.38,2.59-2.38c0.7,0,1.13,0.14,1.34,0.24l-0.41,1.22
					c-0.14-0.05-0.38-0.14-0.79-0.14c-0.94,0-1.32,0.48-1.32,1.39v0.53h2.06v1.32h-2.06v7.89h-1.42V264.24z"/>
				<path class="st4" d="M454.9,270.88h-0.07c-0.29,0.6-1.13,1.46-2.73,1.46c-1.75,0-3.14-1.03-3.14-2.83
					c0-2.09,1.85-2.49,3.57-2.71c1.27-0.17,2.38-0.12,2.38-0.72v-0.02c0-1.54-0.82-2.01-1.92-2.01c-1.37,0-2.11,0.72-2.42,1.39
					l-1.34-0.48c0.72-1.68,2.3-2.16,3.69-2.16c1.18,0,3.41,0.34,3.41,3.26v6.07h-1.42V270.88z M454.9,267.5
					c-0.24,0.29-1.85,0.46-2.45,0.53c-1.1,0.14-2.09,0.48-2.09,1.56c0,0.98,0.82,1.49,1.94,1.49c1.68,0,2.59-1.13,2.59-2.28V267.5z"
					/>
				<path class="st4" d="M464.72,262.92h1.42v9.21h-1.42v-1.3h-0.1c-0.46,0.7-1.34,1.42-2.73,1.42c-1.34,0-2.97-1.06-2.97-3.48
					v-5.85h1.42v5.85c0,1.34,0.84,2.11,2.01,2.11c1.06,0,2.38-0.67,2.38-2.4V262.92z"/>
				<path class="st4" d="M470.14,272.13h-1.42v-12.28h1.42V272.13z"/>
				<path class="st4" d="M476.6,264.24h-1.97v5.25c0,1.2,0.6,1.39,1.22,1.39c0.31,0,0.5-0.05,0.62-0.07l0.29,1.27
					c-0.19,0.07-0.53,0.17-1.06,0.17c-1.2,0-2.49-0.77-2.49-2.38v-5.64h-1.39v-1.32h1.39v-1.97h1.42v1.97h1.97V264.24z"/>
				<path class="st4" d="M489.82,272.13v-1.42h-0.14c-0.31,0.5-0.93,1.61-2.71,1.61c-2.3,0-3.91-1.85-3.91-4.77
					c0-2.9,1.61-4.75,3.93-4.75c1.8,0,2.37,1.1,2.69,1.58h0.1v-4.53h1.42v12.28H489.82z M487.16,271.05c1.7,0,2.64-1.44,2.64-3.53
					c0-2.06-0.91-3.45-2.64-3.45c-1.8,0-2.69,1.51-2.69,3.45C484.47,269.49,485.38,271.05,487.16,271.05z"/>
				<path class="st4" d="M493.35,267.6c0-2.83,1.66-4.8,4.15-4.8c1.92,0,3.96,1.18,3.96,4.61v0.6h-6.67
					c0.14,1.99,1.19,3.05,2.86,3.05c1.13,0,1.94-0.48,2.3-1.44l1.37,0.38c-0.43,1.39-1.8,2.33-3.67,2.33
					C494.98,272.32,493.35,270.43,493.35,267.6z M494.82,266.78h5.21c0-1.56-0.98-2.71-2.52-2.71
					C496.09,264.07,495.04,265.05,494.82,266.78z"/>
				<path class="st4" d="M503.65,262.92h1.37v1.46h0.17c0.31-0.48,0.86-1.58,2.66-1.58c2.33,0,3.93,1.85,3.93,4.75
					c0,2.93-1.61,4.77-3.91,4.77c-1.77,0-2.37-1.1-2.69-1.61h-0.12v4.87h-1.42V262.92z M507.68,264.07c-1.73,0-2.64,1.39-2.64,3.45
					c0,2.09,0.94,3.53,2.64,3.53c1.78,0,2.69-1.56,2.69-3.53C510.36,265.58,509.48,264.07,507.68,264.07z"/>
				<path class="st4" d="M513.51,267.6c0-2.83,1.66-4.8,4.15-4.8c1.92,0,3.96,1.18,3.96,4.61v0.6h-6.67
					c0.14,1.99,1.19,3.05,2.86,3.05c1.13,0,1.94-0.48,2.3-1.44l1.37,0.38c-0.43,1.39-1.8,2.33-3.67,2.33
					C515.14,272.32,513.51,270.43,513.51,267.6z M514.98,266.78h5.21c0-1.56-0.98-2.71-2.52-2.71
					C516.25,264.07,515.2,265.05,514.98,266.78z"/>
				<path class="st4" d="M525.22,272.13h-1.42v-9.21h1.42v1.56h0.1c0.43-0.94,1.34-1.68,2.73-1.68c1.73,0,2.97,1.13,2.97,3.48v5.85
					h-1.42v-5.76c0-1.34-0.84-2.21-2.02-2.21c-1.05,0-2.37,0.79-2.37,2.52V272.13z"/>
				<path class="st4" d="M539.91,272.13v-1.42h-0.14c-0.31,0.5-0.94,1.61-2.71,1.61c-2.3,0-3.91-1.85-3.91-4.77
					c0-2.9,1.61-4.75,3.93-4.75c1.8,0,2.38,1.1,2.69,1.58h0.1v-4.53h1.42v12.28H539.91z M537.25,271.05c1.7,0,2.64-1.44,2.64-3.53
					c0-2.06-0.91-3.45-2.64-3.45c-1.8,0-2.69,1.51-2.69,3.45C534.56,269.49,535.47,271.05,537.25,271.05z"/>
				<path class="st4" d="M543.44,267.6c0-2.83,1.66-4.8,4.15-4.8c1.92,0,3.96,1.18,3.96,4.61v0.6h-6.67
					c0.14,1.99,1.19,3.05,2.86,3.05c1.13,0,1.94-0.48,2.3-1.44l1.37,0.38c-0.43,1.39-1.8,2.33-3.67,2.33
					C545.07,272.32,543.44,270.43,543.44,267.6z M544.9,266.78h5.21c0-1.56-0.98-2.71-2.52-2.71
					C546.17,264.07,545.13,265.05,544.9,266.78z"/>
				<path class="st4" d="M555.15,272.13h-1.42v-9.21h1.42v1.56h0.1c0.43-0.94,1.34-1.68,2.73-1.68c1.73,0,2.97,1.13,2.97,3.48v5.85
					h-1.42v-5.76c0-1.34-0.84-2.21-2.01-2.21c-1.06,0-2.37,0.79-2.37,2.52V272.13z"/>
				<path class="st4" d="M569.45,265.68c-0.22-0.84-0.96-1.61-2.21-1.61c-1.66,0-2.76,1.37-2.76,3.45c0,2.13,1.08,3.53,2.76,3.53
					c1.1,0,1.94-0.6,2.21-1.61h1.42c-0.24,1.63-1.58,2.88-3.62,2.88c-2.57,0-4.17-1.97-4.17-4.8c0-2.76,1.66-4.73,4.15-4.73
					c1.94,0,3.41,1.15,3.65,2.88H569.45z"/>
				<path class="st4" d="M575.38,272.19l-3.42-9.27h1.54l2.54,7.34h0.1l2.54-7.34h1.54l-3.96,10.7c-0.53,1.42-1.44,2.09-2.71,2.09
					c-0.48,0-0.89-0.1-1.03-0.17l0.36-1.25c1.01,0.24,1.66,0.12,2.18-1.25L575.38,272.19z"/>
			</g>
		</g>
	</g>
</g>
<g>
	<polygon class="st5" points="149.95,180.29 64.43,180.29 64.43,95.26 149.95,95.26 107,137.82 	"/>
	<g>
		<g>
			<path class="st2" d="M714.32,93.51H359c-25.96,0-47,21.04-47,47c0,25.96,21.04,47,47,47h355.32c25.96,0,47-21.04,47-47
				C761.33,114.55,740.28,93.51,714.32,93.51z"/>
			<g class="st6">
				<g>
					<path class="st7" d="M342.02,163.35l16.72-45.53h5.69l16.72,45.53h-5.78l-4.29-12.18h-18.99l-4.29,12.18H342.02z
						 M353.83,146.28h15.52l-7.49-21.25h-0.53L353.83,146.28z"/>
					<path class="st7" d="M392.79,163.35h-5.25v-45.53h5.25V163.35z"/>
					<path class="st7" d="M427.02,163.35h-5.34v-22.32c0-5.16-2.4-7.2-6.22-7.2c-4,0-7.83,3.56-7.83,9.16v20.37h-5.25V129.2h5.25
						v5.78h0.36c0.98-2.93,4.54-6.23,8.89-6.23c4.27,0,7.29,2.76,8.8,6.14h0.36c0.98-2.85,4.89-6.14,9.87-6.14
						c5.69,0,10.32,3.91,10.32,12.27v22.32h-5.25v-22.5c0-5.34-3.82-7.02-6.67-7.02c-4.62,0-7.29,3.29-7.29,8.09V163.35z"/>
					<path class="st7" d="M454.04,146.46c0-10.67,6.23-17.7,15.47-17.7c9.25,0,15.47,7.03,15.47,17.7
						c0,10.58-6.22,17.61-15.47,17.61C460.26,164.06,454.04,157.04,454.04,146.46z M479.74,146.46c0-6.85-3.2-12.98-10.23-12.98
						s-10.23,6.14-10.23,12.98c0,6.85,3.2,12.9,10.23,12.9S479.74,153.3,479.74,146.46z"/>
					<path class="st7" d="M511.83,138.19c-0.62-1.51-1.96-4.98-7.2-4.98c-4.18,0-7.29,2.22-7.29,5.16c0,2.31,1.87,4.36,5.78,5.34
						l5.07,1.25c6.22,1.51,8.8,5.07,8.8,8.98c0,5.25-4.54,10.14-12.98,10.14c-8.18,0-11.92-4.36-13.61-8.63l4.8-1.78
						c1.25,3.11,3.65,5.87,8.71,5.87c4.89,0,7.74-2.58,7.74-5.42c0-2.22-1.51-3.73-4.89-4.54l-5.69-1.42
						c-6.22-1.6-8.98-5.34-8.98-9.52c0-5.78,5.33-9.87,12.54-9.87c6.31,0,10.14,3.11,11.92,8.09L511.83,138.19z"/>
					<path class="st7" d="M539.43,134.1h-7.29v19.48c0,4.45,2.22,5.16,4.54,5.16c1.16,0,1.87-0.18,2.31-0.27l1.07,4.71
						c-0.71,0.27-1.96,0.62-3.91,0.62c-4.45,0-9.25-2.85-9.25-8.8v-20.9h-5.16v-4.89h5.16v-7.29h5.25v7.29h7.29V134.1z"/>
					<path class="st7" d="M579.26,134.1h-7.29v19.48c0,4.45,2.22,5.16,4.54,5.16c1.16,0,1.87-0.18,2.31-0.27l1.07,4.71
						c-0.71,0.27-1.96,0.62-3.91,0.62c-4.45,0-9.25-2.85-9.25-8.8v-20.9h-5.16v-4.89h5.16v-7.29h5.25v7.29h7.29V134.1z"/>
					<path class="st7" d="M592.42,163.35h-5.25v-45.53h5.25v16.19h0.36c1.69-2.58,4.98-5.25,10.14-5.25
						c6.4,0,11.03,4.45,11.03,12.89v21.7h-5.25v-21.7c0-4.98-2.94-7.83-7.47-7.83c-4.18,0-8.8,2.49-8.8,8.89V163.35z"/>
					<path class="st7" d="M621.75,146.55c0-10.49,6.14-17.79,15.38-17.79c7.11,0,14.67,4.36,14.67,17.07v2.22h-24.74
						c0.53,7.38,4.42,11.29,10.6,11.29c4.18,0,7.2-1.78,8.54-5.34l5.07,1.42c-1.6,5.16-6.67,8.63-13.61,8.63
						C627.8,164.06,621.75,157.04,621.75,146.55z M627.18,143.52h19.3c0-5.78-3.65-10.05-9.34-10.05
						C631.89,133.47,628.02,137.12,627.18,143.52z"/>
					<path class="st7" d="M676.97,134.81c-0.53-0.27-1.42-0.71-2.93-0.71c-5.6,0-8.8,5.34-8.89,9.96v19.3h-5.25V129.2h5.25v5.87
						h0.36c0.98-3.29,4.71-6.4,8.71-6.4c1.78,0,3.47,0.62,4.54,1.25L676.97,134.81z"/>
					<path class="st7" d="M681.05,146.55c0-10.49,6.14-17.79,15.38-17.79c7.11,0,14.67,4.36,14.67,17.07v2.22h-24.74
						c0.53,7.38,4.42,11.29,10.6,11.29c4.18,0,7.2-1.78,8.54-5.34l5.07,1.42c-1.6,5.16-6.67,8.63-13.61,8.63
						C687.1,164.06,681.05,157.04,681.05,146.55z M686.48,143.52h19.3c0-5.78-3.65-10.05-9.34-10.05
						C691.19,133.47,687.32,137.12,686.48,143.52z"/>
					<path class="st7" d="M718.84,159.8c0-2.4,1.87-4.36,4.27-4.36c2.31,0,4.27,1.96,4.27,4.36c0,2.4-1.96,4.27-4.27,4.27
						C720.7,164.06,718.84,162.2,718.84,159.8z M725.68,150.55h-5.16l-0.44-32.73h6.05L725.68,150.55z"/>
				</g>
			</g>
		</g>
		<g>
			<path class="st2" d="M254.86,187.62h-53.95c-25.96,0-47-21.04-47-47l0,0c0-25.96,21.04-47,47-47h53.95c25.96,0,47,21.04,47,47
				l0,0C301.86,166.58,280.82,187.62,254.86,187.62z"/>
			<path class="st1" d="M209.11,117.84v45.56h-5.21v-37.64h-0.39c-0.19,0.39-0.77,0.87-1.64,1.45c-0.87,0.48-1.93,0.97-3.38,1.35
				c-1.35,0.39-2.9,0.58-4.63,0.58v-4.63c1.74,0,3.28-0.29,4.63-0.97c1.25-0.68,2.41-1.35,3.28-2.22c0.87-0.87,1.54-1.64,2.03-2.32
				c0.48-0.68,0.68-1.06,0.77-1.25h4.54V117.84z"/>
			<path class="st1" d="M222.43,163.78c-1.16,0-2.03-0.39-2.8-1.16c-0.77-0.77-1.16-1.74-1.16-2.8s0.39-2.03,1.16-2.8
				c0.77-0.77,1.74-1.16,2.8-1.16c1.16,0,2.03,0.39,2.8,1.16s1.16,1.74,1.16,2.8c0,1.16-0.39,2.03-1.16,2.8
				S223.49,163.78,222.43,163.78z"/>
			<path class="st1" d="M229.67,154.03v-4.54l20.08-31.75h6.66v31.37h6.27v4.92h-6.27v9.36h-5.21v-9.36L229.67,154.03L229.67,154.03
				z M251.19,149.21v-24.32h-0.39l-15.15,23.94v0.39H251.19z"/>
		</g>
	</g>
	<g>
		<path class="st1" d="M849.24,187.79h-31.45c-25.65,0-46.33-20.78-46.33-46.33v-1.59c0-25.65,20.78-46.33,46.33-46.33h31.45
			c25.65,0,46.33,20.78,46.33,46.33v1.59C895.57,167.01,874.79,187.79,849.24,187.79z"/>
		<path class="st2" d="M809.83,140.62h37.72v-0.37l-14.23-14.23l3.46-3.46l20.59,20.59l-20.59,20.59l-3.46-3.46l14.23-14.23v-0.37
			h-37.72V140.62z"/>
	</g>
</g>
</svg>
