<svg width="32" height="32" viewBox="0 0 32 32" fill="none" xmlns="http://www.w3.org/2000/svg">
<path d="M8.26839 19.5188C8.26839 21.0608 7.00878 22.3204 5.46684 22.3204C3.9249 22.3204 2.66528 21.0608 2.66528 19.5188C2.66528 17.9769 3.9249 16.7173 5.46684 16.7173H8.26839V19.5188Z" fill="white"/>
<path d="M9.68097 19.5188C9.68097 17.9769 10.9406 16.7173 12.4825 16.7173C14.0245 16.7173 15.2841 17.9769 15.2841 19.5188V26.5336C15.2841 28.0755 14.0245 29.3351 12.4825 29.3351C10.9406 29.3351 9.68097 28.0755 9.68097 26.5336V19.5188Z" fill="white"/>
<path d="M12.4825 8.26839C10.9406 8.26839 9.68097 7.00878 9.68097 5.46684C9.68097 3.9249 10.9406 2.66528 12.4825 2.66528C14.0245 2.66528 15.2841 3.9249 15.2841 5.46684V8.26839H12.4825Z" fill="white"/>
<path d="M12.4816 9.68091C14.0235 9.68091 15.2831 10.9405 15.2831 12.4825C15.2831 14.0244 14.0235 15.284 12.4816 15.284H5.46684C3.9249 15.284 2.66528 14.0244 2.66528 12.4825C2.66528 10.9405 3.9249 9.68091 5.46684 9.68091H12.4816Z" fill="white"/>
<path d="M23.7308 12.4825C23.7308 10.9405 24.9904 9.68091 26.5324 9.68091C28.0743 9.68091 29.3339 10.9405 29.3339 12.4825C29.3339 14.0244 28.0743 15.284 26.5324 15.284H23.7308V12.4825Z" fill="white"/>
<path d="M22.3204 12.4816C22.3204 14.0235 21.0608 15.2831 19.5188 15.2831C17.9769 15.2831 16.7173 14.0235 16.7173 12.4816V5.46684C16.7173 3.9249 17.9769 2.66528 19.5188 2.66528C21.0608 2.66528 22.3204 3.9249 22.3204 5.46684V12.4816Z" fill="white"/>
<path d="M19.5188 23.7308C21.0608 23.7308 22.3204 24.9904 22.3204 26.5324C22.3204 28.0743 21.0608 29.3339 19.5188 29.3339C17.9769 29.3339 16.7173 28.0743 16.7173 26.5324V23.7308H19.5188Z" fill="white"/>
<path d="M19.5188 22.3204C17.9769 22.3204 16.7173 21.0608 16.7173 19.5188C16.7173 17.9769 17.9769 16.7173 19.5188 16.7173H26.5336C28.0755 16.7173 29.3351 17.9769 29.3351 19.5188C29.3351 21.0608 28.0755 22.3204 26.5336 22.3204H19.5188Z" fill="white"/>
</svg>
