<svg width="48" height="48" viewBox="0 0 48 48" fill="none" xmlns="http://www.w3.org/2000/svg">
<path d="M46.9274 13.6727L24.5918 0.307556C23.9065 -0.102525 23.0512 -0.102518 22.3659 0.307573L0.535418 13.3709C-0.178416 13.7981 -0.178486 14.8323 0.535289 15.2596L22.366 28.3271C23.0514 28.7374 23.9069 28.7374 24.5924 28.327L45.9515 15.541C46.1338 15.4318 46.3654 15.5632 46.3654 15.7756V36.9243H48V15.5645C48 14.7891 47.5927 14.0708 46.9274 13.6727Z" fill="#27282C"/>
<path d="M40.4469 20.7552L24.5921 30.2436C23.906 30.6539 23.0523 30.6539 22.3662 30.2436L6.50667 20.7552C6.32491 20.6466 6.09497 20.7783 6.09497 20.9914V36.2614C6.09497 37.4238 6.70302 38.5002 7.69517 39.0937L21.8097 47.5383C22.8388 48.1538 24.1195 48.1538 25.1486 47.5383L39.2584 39.0937C40.2503 38.5002 40.8584 37.4238 40.8584 36.2614V20.9914C40.8584 20.7783 40.6284 20.6466 40.4469 20.7552Z" fill="#27282C"/>
</svg>
