<svg width="48" height="48" viewBox="0 0 48 48" fill="none" xmlns="http://www.w3.org/2000/svg">
<g clip-path="url(#clip0)">
<path d="M30.9216 33.5852H16.5413C15.3542 33.5852 14.3918 32.636 14.3918 31.4656V17.0632C14.3918 16.4778 13.9109 16.0037 13.3174 16.0037H3.22363C1.44312 16.0037 0 17.4265 0 19.1829V44.8206C0 46.5764 1.44312 47.9998 3.22363 47.9998H28.7725C30.553 47.9998 31.9961 46.5764 31.9961 44.8206V34.6448C31.9961 34.0593 31.5151 33.5852 30.9216 33.5852Z" fill="#27282C"/>
<path d="M44.7764 0H19.2273C17.447 0 16.0039 1.42334 16.0039 3.1792V13.3545C16.0039 13.9395 16.4849 14.4141 17.0784 14.4141H31.4587C32.6458 14.4141 33.6082 15.3628 33.6082 16.5337V30.9365C33.6082 31.5215 34.0891 31.9956 34.6826 31.9956H44.7764C46.5569 31.9956 48 30.5723 48 28.8164V3.1792C48 1.42334 46.5569 0 44.7764 0Z" fill="#27282C"/>
<path d="M30.9216 16.0037H17.0784C16.4849 16.0037 16.0039 16.4778 16.0039 17.0632V30.9363C16.0039 31.5212 16.4849 31.9954 17.0784 31.9954H30.9216C31.5151 31.9954 31.9961 31.5212 31.9961 30.9363V17.0632C31.9961 16.4778 31.5151 16.0037 30.9216 16.0037Z" fill="#27282C"/>
</g>
<defs>
<clipPath id="clip0">
<rect width="48" height="48" fill="white"/>
</clipPath>
</defs>
</svg>
