<svg width="48" height="48" viewBox="0 0 48 48" fill="none" xmlns="http://www.w3.org/2000/svg">
<path d="M14.4404 27.758L10.0823 42.6491C9.9834 42.9866 9.57056 43.1266 9.29272 42.9109C3.64014 38.5203 0 31.662 0 23.9504C0 21.9246 0.256348 19.9598 0.729981 18.0812C0.816406 17.7381 1.2312 17.5969 1.51587 17.8071L14.2576 27.2154C14.4263 27.34 14.4995 27.5567 14.4404 27.758ZM2.10083 15.9414H17.8022C18.0198 15.9414 18.2122 15.8009 18.2786 15.5938L23.0601 0.660439C23.167 0.326699 22.9041 -0.01992 22.5542 0.000893043C12.9944 0.569374 4.94336 6.72923 1.6272 15.2594C1.50024 15.5862 1.75024 15.9414 2.10083 15.9414ZM29.7986 15.5938C29.865 15.8009 30.0574 15.9414 30.2749 15.9414H45.8994C46.2498 15.9414 46.4998 15.5862 46.3728 15.2595C43.0659 6.75309 35.0508 0.603371 25.5259 0.00528754C25.1755 -0.0166852 24.9114 0.3303 25.0186 0.664711L29.7986 15.5938ZM24.3359 34.8998C24.1592 34.7693 23.918 34.7693 23.7415 34.8998L11.7437 43.7678C11.4573 43.9793 11.4731 44.4208 11.7791 44.6024C15.3589 46.7264 19.5354 47.9504 24 47.9504C28.4824 47.9504 32.6748 46.7163 36.2644 44.5764C36.5698 44.3943 36.585 43.9535 36.2991 43.7422L24.3359 34.8998ZM47.2717 18.0891C47.1853 17.7454 46.7695 17.6043 46.4849 17.8155L33.8184 27.2152C33.6504 27.34 33.5776 27.5563 33.6365 27.7572L37.981 42.6012C38.0801 42.9394 38.4941 43.079 38.7717 42.8619C44.3877 38.4693 48 31.633 48 23.9504C48 21.9275 47.7444 19.9652 47.2717 18.0891ZM18.4778 17.4086H4.71655C4.33057 17.4086 4.16846 17.9012 4.479 18.1304L15.6687 26.3927C16.0312 26.6605 16.1882 27.1262 16.0615 27.5589L12.2305 40.6491C12.1228 41.0168 12.5439 41.3109 12.8521 41.0831L23.3999 33.287C23.7795 33.0064 24.2976 33.0064 24.6772 33.287L35.2251 41.0831C35.5332 41.3109 35.9543 41.0168 35.8467 40.6491L32.0156 27.5597C31.8894 27.1278 32.0454 26.6631 32.4067 26.3949L43.5444 18.1298C43.854 17.9001 43.6914 17.4086 43.3062 17.4086H29.5994C29.1323 17.4086 28.7185 17.1067 28.5762 16.6617L24.4194 3.6793C24.3008 3.30857 23.7764 3.30857 23.6577 3.6793L19.501 16.6617C19.3586 17.1067 18.9448 17.4086 18.4778 17.4086Z" fill="#27282C"/>
</svg>
