<svg width="114" height="64" viewBox="0 0 114 64" fill="none" xmlns="http://www.w3.org/2000/svg">
<path d="M24.9945 17.8266C24.9789 13.6074 23.9063 10.3618 21.7767 8.08985C19.647 5.81799 16.5539 4.66955 12.4973 4.64453C8.44063 4.66954 5.3475 5.81799 3.21786 8.08985C1.08821 10.3618 0.015591 13.6074 0 17.8266V27.4136C0.00140376 31.288 0.765488 34.2496 2.29179 36.2984C3.81809 38.3472 6.0974 39.3801 9.12973 39.3973C10.9632 39.391 12.516 38.9916 13.7881 38.1989C15.0603 37.4063 16.0519 36.2578 16.7628 34.7536V44.3406C16.755 46.8044 16.359 48.5052 15.5748 49.443C14.7906 50.3808 13.665 50.8271 12.1979 50.7818C10.8743 50.8005 9.83597 50.4073 9.08297 49.6022C8.32994 48.797 7.94641 47.4676 7.93239 45.6138V43.7414H0.149673V45.0895C0.155896 49.3088 1.19111 52.5544 3.25527 54.8263C5.31944 57.0982 8.37515 58.2466 12.4224 58.2716C16.6786 58.256 19.8403 57.0888 21.9076 54.7701C23.9749 52.4514 25.0038 49.0748 24.9945 44.6401V17.8266ZM12.4973 31.9075C11.1736 31.9262 10.1353 31.533 9.3823 30.7278C8.62927 29.9227 8.24575 28.5933 8.23173 26.7395V17.3023C8.24577 15.4518 8.62927 14.1348 9.3823 13.3515C10.1353 12.5682 11.1736 12.1875 12.4973 12.2093C13.8209 12.1874 14.8592 12.5682 15.6122 13.3515C16.3652 14.1348 16.7487 15.4518 16.7628 17.3023V26.7395C16.7488 28.5933 16.3652 29.9227 15.6122 30.7278C14.8592 31.533 13.8209 31.9262 12.4973 31.9075Z" fill="white"/>
<path d="M42.8414 35.952H46.5831V45.6138C46.5691 47.4645 46.1855 48.7814 45.4325 49.5647C44.6795 50.348 43.6412 50.7288 42.3176 50.7069C40.9939 50.7288 39.9556 50.348 39.2026 49.5647C38.4496 48.7814 38.0661 47.4645 38.052 45.6138V17.3023C38.0661 15.4486 38.4496 14.1192 39.2026 13.314C39.9556 12.5089 40.9939 12.1157 42.3176 12.1343C43.6412 12.1157 44.6795 12.5089 45.4325 13.314C46.1855 14.1192 46.5691 15.4486 46.5831 17.3023V22.9197H54.3658V17.8266C54.3596 13.6074 53.3244 10.3618 51.2602 8.08985C49.196 5.81799 46.1403 4.66955 42.0931 4.64453C38.0458 4.66954 34.9901 5.81799 32.9259 8.08985C30.8618 10.3618 29.8265 13.6074 29.8203 17.8266V45.0895C29.8265 49.3088 30.8618 52.5544 32.9259 54.8263C34.9901 57.0982 38.0458 58.2466 42.0931 58.2716C46.1403 58.2466 49.196 57.0982 51.2602 54.8263C53.3244 52.5544 54.3596 49.3088 54.3658 45.0895V28.4622H42.8414V35.952Z" fill="white"/>
<path d="M77.9375 5.24414H65.8892L57.5078 57.6729H65.066L66.4879 48.1608H76.5905L78.0123 57.6729H86.3189L77.9375 5.24414ZM71.5017 14.5315L75.4679 41.0455H67.5356L71.5017 14.5315Z" fill="white"/>
<path d="M102.474 35.952H106.216V45.6138C106.202 47.4645 105.818 48.7814 105.065 49.5647C104.312 50.348 103.274 50.7288 101.95 50.7069C100.627 50.7288 99.5884 50.348 98.8354 49.5647C98.0824 48.7814 97.6989 47.4645 97.6849 45.6138V17.3023C97.6989 15.4486 98.0824 14.1192 98.8354 13.314C99.5884 12.5089 100.627 12.1157 101.95 12.1343C103.274 12.1157 104.312 12.5089 105.065 13.314C105.818 14.1192 106.202 15.4486 106.216 17.3023V22.9197H113.999V17.8266C113.992 13.6074 112.957 10.3618 110.893 8.08985C108.829 5.81799 105.773 4.66955 101.726 4.64453C97.6786 4.66954 94.6229 5.81799 92.5587 8.08985C90.4946 10.3618 89.4594 13.6074 89.4531 17.8266V45.0895C89.4593 49.3088 90.4946 52.5544 92.5587 54.8263C94.6229 57.0982 97.6786 58.2466 101.726 58.2716C105.773 58.2466 108.829 57.0982 110.893 54.8263C112.957 52.5544 113.992 49.3088 113.999 45.0895V28.4622H102.474V35.952Z" fill="white"/>
</svg>
