<svg fill="none" height="72" viewBox="0 0 64 72" width="64" xmlns="http://www.w3.org/2000/svg"><path d="m59.0338 3.49081h.4324c.5343 0 .9714-.1796.9714-.65274 0-.35605-.2585-.68598-.9361-.68598-.2123 0-.3564 0-.4685.01582v1.3229zm0 2.30005h-.7269v-4.07868c.3368-.04906.6768-.11552 1.2103-.11552.6447 0 1.0473.13292 1.305.32993.2256.17882.3549.45337.3549.8466 0 .52219-.3392.86321-.7724.97793v.03165c.3525.06646.5773.39165.658.99692.0972.63693.1779.87824.2429 1.01117h-.7411c-.0963-.13293-.1794-.50638-.2601-1.04202-.0783-.49293-.3525-.68757-.8538-.68757h-.4176v1.72959zm.6604-5.171344c-1.5973 0-2.8875 1.352964-2.8875 3.050114 0 1.69635 1.2902 3.05011 2.9024 3.05011 1.5965.01819 2.8718-1.35297 2.8718-3.05011 0-1.69636-1.2753-3.050114-2.8718-3.050114h-.0157zm.0157-.619516c1.996 0 3.5933 1.63226 3.5933 3.65459 0 2.05477-1.5965 3.68466-3.609 3.68466-2.0148 0-3.6442-1.62989-3.6442-3.68466 0-2.02233 1.6294-3.65459 3.6442-3.65459zm-51.77965 65.4124-.60632-3.6293c-.17234-1.046-.39325-2.6814-.56168-3.8136h-.06502c-.17704 1.1409-.42458 2.8222-.60632 3.8215l-.65176 3.6214zm-2.81698 2.3657-.78806 4.0273h-2.90785l3.62854-16.7578h3.56509l3.29641 16.7578h-2.92431l-.77004-4.0273h-3.09821zm13.41433-3.4576c0-.2239 0-.485-.0439-.7239-.1151-.8276-.5507-1.573-1.251-1.573-1.2009 0-1.6427 1.7502-1.6427 3.7963 0 2.3514.6298 3.6894 1.6012 3.6894.4442 0 .9557-.2295 1.2338-1.2169.0681-.197.1026-.4597.1026-.7675zm2.9862-9.7176v13.7275c0 1.0879.0548 2.4266.0987 3.4734h-2.5788l-.1685-1.3965h-.0611c-.4324.8608-1.3756 1.5927-2.5028 1.5927-2.4692 0-3.6944-2.7566-3.6944-6.2363 0-4.2393 1.8268-6.3012 3.8174-6.3012 1.0411 0 1.7148.5151 2.054 1.2612h.0501v-6.1208h2.9846zm6.2183 15.0804c1.1398 0 1.4218-2.171 1.4218-3.9695 0-1.7098-.282-3.9378-1.4727-3.9378-1.2596 0-1.5244 2.228-1.5244 3.9378 0 2.0635.3329 3.9703 1.5487 3.9703h.0266zm-.0564 2.3167c-2.7511 0-4.4769-2.2344-4.4769-6.2331 0-4.3643 2.2154-6.3044 4.5474-6.3044 2.7144 0 4.4159 2.3428 4.4159 6.2339 0 4.9989-2.6658 6.3036-4.4621 6.3036h-.0235zm9.1419-4.5328c0 .303.0541.587.1175.7769.3 1.0152.8069 1.2652 1.2142 1.2652 1.1547 0 1.6208-1.4796 1.6208-3.8469 0-2.1544-.4927-3.6388-1.6341-3.6388-.5664 0-1.0434.6219-1.2072 1.2897-.0571.2105-.112.538-.112.7635v3.3904zm-2.987-12.8651h2.9862v6.3265h.0478c.5883-.9336 1.3709-1.4661 2.5091-1.4661 2.2506 0 3.3818 2.5873 3.3818 5.9721 0 4.2764-1.6866 6.5654-3.8722 6.5654-1.0418 0-1.7343-.4668-2.3602-1.6505h-.0627l-.1661 1.4535h-2.5639c.0438-1.0064.1002-2.3847.1002-3.4726v-13.7275zm16.0794 9.9724c.0156-1.7051-.4787-2.9006-1.4258-2.9006-1.081 0-1.54 1.5999-1.5729 2.9006zm-3.0097 2.1347c.0352 2.1964 1.1774 2.9116 2.5945 2.9116.8985 0 1.6685-.2025 2.2373-.4185l.4026 2.1719c-.792.3449-2.0148.5617-3.1875.5617-3.2039 0-4.954-2.2146-4.954-5.9966 0-4.0589 2.0297-6.4966 4.6806-6.4966 2.5616 0 3.9811 2.1545 3.9811 5.6714 0 .8055-.0329 1.258-.0862 1.6125z" fill="#000"/><path d="m33.7168 0h19.4024v45.8901zm-13.6697 0h-19.413311v45.8901zm6.8372 16.9089 12.3615 28.9788h-8.1l-3.6974-9.231h-9.0503l8.4862-19.7486z" fill="#ed1c24"/></svg>