<svg width="57" height="64" viewBox="0 0 57 64" fill="none" xmlns="http://www.w3.org/2000/svg">
<g clip-path="url(#clip0_657_6916)">
<path d="M52.4763 3.10294H52.8607C53.3356 3.10294 53.7242 2.9433 53.7242 2.52273C53.7242 2.20624 53.4944 1.91297 52.8921 1.91297C52.7034 1.91297 52.5753 1.91297 52.4756 1.92703L52.4763 3.10294ZM52.4763 5.14743H51.8302V1.52194C52.1296 1.47833 52.4318 1.41925 52.906 1.41925C53.4791 1.41925 53.837 1.5374 54.066 1.71252C54.2666 1.87148 54.3815 2.11552 54.3815 2.46506C54.3815 2.92923 54.08 3.23236 53.6949 3.33433V3.36246C54.0082 3.42154 54.2081 3.7106 54.2798 4.24861C54.3662 4.81477 54.4379 5.02927 54.4957 5.14743H53.837C53.7514 5.02927 53.6775 4.69732 53.6058 4.22119C53.5362 3.78303 53.2924 3.61002 52.8468 3.61002H52.4756L52.4763 5.14743ZM53.0634 0.550681C51.6435 0.550681 50.4967 1.75332 50.4967 3.26189C50.4967 4.76976 51.6435 5.9731 53.0766 5.9731C54.4957 5.98927 55.6293 4.77046 55.6293 3.26189C55.6293 1.75402 54.4957 0.550681 53.0766 0.550681H53.0634ZM53.0773 0C54.8515 0 56.2714 1.4509 56.2714 3.24852C56.2714 5.07499 54.8522 6.52378 53.0634 6.52378C51.2724 6.52378 49.8241 5.07499 49.8241 3.24852C49.8241 1.4509 51.2724 0 53.0634 0H53.0773ZM7.05095 58.1444L6.512 54.9183C6.35881 53.9885 6.16245 52.5348 6.01273 51.5284H5.95494C5.79757 52.5426 5.57753 54.0371 5.41599 54.9253L4.83664 58.1444H7.05095ZM4.54697 60.2472L3.84647 63.827H1.26172L4.48709 48.9312H7.65606L10.5862 63.827H7.98681L7.30233 60.2472H4.54837H4.54697ZM16.4708 57.1738C16.4708 56.9748 16.4708 56.7427 16.4318 56.5303C16.3295 55.7947 15.9423 55.1321 15.3198 55.1321C14.2523 55.1321 13.8596 56.6878 13.8596 58.5066C13.8596 60.5967 14.4194 61.786 15.2829 61.786C15.6778 61.786 16.1324 61.582 16.3796 60.7044C16.4402 60.5292 16.4708 60.2957 16.4708 60.0221V57.1738ZM19.1252 48.5359V60.7381C19.1252 61.7052 19.1739 62.8951 19.213 63.8256H16.9207L16.7709 62.5843H16.7166C16.3322 63.3494 15.4938 64 14.4919 64C12.297 64 11.208 61.5497 11.208 58.4566C11.208 54.6884 12.8318 52.8556 14.6012 52.8556C15.5266 52.8556 16.1255 53.3134 16.427 53.9766H16.4715V48.5359H19.1252ZM24.6526 61.9407C25.6658 61.9407 25.9164 60.0109 25.9164 58.4123C25.9164 56.8924 25.6658 54.912 24.6074 54.912C23.4877 54.912 23.2523 56.8924 23.2523 58.4123C23.2523 60.2465 23.5482 61.9414 24.629 61.9414L24.6526 61.9407ZM24.6025 64C22.157 64 20.623 62.0139 20.623 58.4595C20.623 54.5801 22.5922 52.8556 24.6651 52.8556C27.0779 52.8556 28.5904 54.938 28.5904 58.3968C28.5904 62.8403 26.2208 64 24.6241 64H24.6025ZM32.7286 59.9708C32.7286 60.2402 32.7767 60.4926 32.833 60.6614C33.0997 61.5638 33.5503 61.786 33.9123 61.786C34.9387 61.786 35.353 60.4708 35.353 58.3666C35.353 56.4516 34.9151 55.1321 33.9005 55.1321C33.397 55.1321 32.973 55.6849 32.8274 56.2785C32.7767 56.4656 32.7279 56.7567 32.7279 56.9572L32.7286 59.9708ZM30.0735 48.5352H32.7279V54.1588H32.7704C33.2933 53.3289 33.989 52.8556 35.0007 52.8556C37.0012 52.8556 38.0067 55.1554 38.0067 58.1641C38.0067 61.9653 36.5075 64 34.5648 64C33.6387 64 33.0232 63.5851 32.4668 62.5329H32.4111L32.2634 63.8249H29.9844C30.0234 62.9303 30.0735 61.7052 30.0735 60.7381V48.5352ZM44.3663 57.3996C44.3802 55.8839 43.9408 54.8212 43.0989 54.8212C42.138 54.8212 41.73 56.2434 41.7008 57.3996H44.3663ZM41.691 59.2971C41.7223 61.2494 42.7376 61.8852 43.9972 61.8852C44.7959 61.8852 45.4803 61.7052 45.9859 61.5132L46.3438 63.4437C45.6398 63.7503 44.5529 63.943 43.5105 63.943C40.6626 63.943 39.1069 61.9745 39.1069 58.6127C39.1069 55.0048 40.9111 52.838 43.2674 52.838C45.5444 52.838 46.8062 54.7531 46.8062 57.8792C46.8062 58.5952 46.777 58.9974 46.7296 59.3125L41.691 59.2971Z" fill="black"/>
<path d="M29.9696 0H47.2162V40.7912L29.9696 0ZM17.8188 0H0.5625V40.7912L17.8188 0ZM23.8963 15.0301L34.8843 40.7891H27.6843L24.3977 32.5837H16.353L23.8963 15.0301Z" fill="#ED1C24"/>
</g>
<defs>
<clipPath id="clip0_657_6916">
<rect width="56.8889" height="64" fill="white"/>
</clipPath>
</defs>
</svg>
