<svg fill="none" height="43" viewBox="0 0 129 43" width="129" xmlns="http://www.w3.org/2000/svg"><path d="m126.37 14.1154c-1.094-1.4057-2.497-2.5433-4.1-3.326-1.604-.7826-3.365-1.18951-5.151-1.18951-1.785 0-3.547.40691-5.15 1.18951-1.604.7827-3.006 1.9203-4.101 3.326-1.467 2.0856-2.236 4.5792-2.199 7.1258-.037 2.5466.732 5.0401 2.199 7.1257 1.095 1.4057 2.497 2.5434 4.101 3.326 1.603.7827 3.365 1.1895 5.15 1.1895 1.786 0 3.547-.4068 5.151-1.1895 1.603-.7826 3.006-1.9203 4.1-3.326 1.467-2.0859 2.236-4.5792 2.199-7.1257.037-2.5466-.732-5.0399-2.199-7.1258zm-3.664 9.7979c-.841 2.5029-2.834 4.4536-5.596 4.5159-2.762.0624-4.755-2.013-5.586-4.5159-.595-1.7322-.595-3.6121 0-5.3443.84-2.5029 2.833-4.4536 5.586-4.5159 2.753-.0624 4.755 2.013 5.596 4.5159.591 1.7296.591 3.6058 0 5.3354zm-84.243 8.3727c0 .1748-.0697.3425-.1938.4661-.124.1236-.2922.193-.4677.193h-3.8434c-.1754 0-.3436-.0694-.4677-.193-.124-.1236-.1937-.2913-.1937-.4661v-31.486735c0-.174811.0697-.342463.1937-.466074.1241-.123611.2923-.193054.4677-.193054h3.8434c.1755 0 .3437.069443.4677.193054.1241.123611.1938.291263.1938.466074zm-9.0276 0c0 .1748-.0697.3425-.1937.4661-.1241.1236-.2923.193-.4677.193h-3.8435c-.1754 0-.3436-.0694-.4677-.193-.124-.1236-.1937-.2913-.1937-.4661v-31.486735c0-.173279.0684-.339595.1906-.462953.1221-.123358.288-.193834.4619-.196175h3.8434c.1754 0 .3437.069443.4677.193054.1241.123611.1937.291263.1937.466074v31.486735zm75.3666-21.3771v2.6721c.016.1153.002.2327-.04.3414-.042.1086-.11.205-.199.2804-.089.0753-.196.1272-.31.1509-.114.0236-.233.0183-.345-.0156-4.3435-.8907-7.016 1.0333-7.016 5.0326v12.9153c0 .1748-.0697.3425-.1937.4661-.1241.1236-.2923.193-.4677.193h-3.8435c-.1754 0-.3436-.0694-.4677-.193-.124-.1236-.1937-.2913-.1937-.4661v-13.1915c-.023-1.2477.2173-2.4864.7054-3.6357s1.2131-2.1835 2.128-3.0357c1.8789-1.8306 4.4068-2.84848 7.0339-2.83248.9.00239 1.798.08587 2.682.2494.456.15142.527.41868.527 1.10448zm-16.4549 10.3234c.0487-2.5482-.7218-5.0451-2.1988-7.1258-1.0945-1.4057-2.4971-2.5434-4.1005-3.326-1.6034-.78264-3.3651-1.18952-5.1506-1.18952-1.7854 0-3.5471.40688-5.1505 1.18952-1.6035.7826-3.006 1.9203-4.1005 3.326-1.4526 2.0943-2.2307 4.5799-2.2307 7.1258 0 2.5458.7781 5.0314 2.2307 7.1257 1.0769 1.4248 2.4759 2.5763 4.0833 3.361 1.6075.7846 3.378 1.1803 5.1677 1.1549 2.3442.0076 4.6376-.6808 6.5875-1.9774v2.8147c0 3.8211-3.3518 4.5159-5.497 4.6495-1.476.0486-2.9535-.0319-4.4155-.2405-.5899-.0891-1.001 0-1.001.6324v3.3847c.0034.0761.0219.1507.0543.2196.0324.069.0782.1309.1346.1822.0565.0513.1225.091.1944.1168s.1481.0373.2244.0337c4.9786.4275 8.3305.3384 10.851-1.0956 1.7659-1.0406 3.0765-2.7026 3.6736-4.6585.4459-1.509.6599-3.0766.6346-4.6495v-11.0537zm-11.4499 7.1791c-2.7619 0-4.7551-2.013-5.5953-4.5159-.5945-1.7322-.5945-3.6121 0-5.3443.8402-2.5029 2.8334-4.5159 5.5953-4.5159 6.1763 0 6.3819 6.2795 6.3819 7.188 0 .9086-.2056 7.1881-6.3819 7.1881zm-56.1497-9.4861c0-3.0373-.6794-5.3443-2.1452-6.9387-1.4659-1.5943-4.4155-2.38708-7.1506-2.38708-2.7454-.0107-5.4444.70548-7.82091 2.07538-.07438.0438-.13586.1064-.17823.1815s-.06413.1599-.0631.246l.20558 3.3491c.01826.1042.06398.2017.13247.2825.0685.0808.15731.142.25734.1773.10003.0354.20769.0436.31196.0238.10427-.0197.20139-.0667.28143-.1362 3.35183-2.0576 7.37406-2.4406 9.42086-1.4073.5631.3234 1.0271.7937 1.3421 1.3602.315.5666.469 1.208.4455 1.8552v.4899h-5.5863c-2.4044 0-9.769484.8908-9.769484 7.6335v.0712c-.057311 1.0261.128911 2.0512.543557 2.9921.414647.9409 1.046037 1.7712 1.842947 2.4235 1.74071 1.2219 3.84489 1.8215 5.97072 1.7012h11.30686c.1754 0 .3436-.0694.4677-.193.124-.1236.1937-.2913.1937-.4661v-13.3607zm-4.9608 9.878h-6.67679c-.85667-.0245-1.68447-.314-2.36862-.8283-.35192-.2463-.63783-.5749-.83262-.9569-.1948-.382-.29255-.8058-.28466-1.2343 0-1.2025.81338-3.6074 4.88029-3.6074h5.2824zm36.8254-19.20378c-6.8377 0-9.832 4.56938-10.7884 8.43508-.263 1.0426-.3951 2.1137-.3932 3.1887-.037 2.5466.7324 5.0399 2.1988 7.1258 1.0958 1.4042 2.4986 2.5409 4.1017 3.3235 1.6031.7825 3.3642 1.1903 5.1493 1.1924 3.6915.1336 6.1584-.4899 8.0444-1.5588.1839-.1182.3259-.291.4061-.4939s.0944-.4258.0408-.6373v-2.9661c0-.6056-.3665-.8907-.8938-.5255-2.2075 1.4099-4.8273 2.0374-7.4366 1.7815-1.486-.0196-2.9135-.5801-4.0133-1.5761-1.0999-.9959-1.7961-2.3584-1.9574-3.8306h15.1949c.1644 0 .3222-.0644.4393-.1794.1171-.1151.184-.2714.1864-.4352.2681-4.1418-.9385-12.84408-10.279-12.84408zm-5.4612 9.36138c.0308-.6818.1973-1.3508.4899-1.9679.2926-.6172.7054-1.1702 1.2144-1.6269s1.1041-.808 1.7506-1.0334 1.3316-.3204 2.0153-.2796c.6543-.0399 1.3097.0602 1.922.2936s1.1674.5947 1.628 1.0595c.4606.4649.816 1.0227 1.0424 1.6358.2263.6131.3184 1.2674.27 1.9189z" fill="#ff5a00"/></svg>