<svg width="168" height="64" viewBox="0 0 168 64" fill="none" xmlns="http://www.w3.org/2000/svg">
<g clip-path="url(#clip0_657_7520)">
<path d="M164.574 22.2003C163.149 20.3697 161.322 18.8881 159.234 17.8688C157.145 16.8496 154.852 16.3197 152.526 16.3197C150.201 16.3197 147.907 16.8496 145.819 17.8688C143.73 18.8881 141.904 20.3697 140.478 22.2003C138.568 24.9165 137.566 28.164 137.614 31.4805C137.566 34.797 138.568 38.0443 140.478 40.7604C141.904 42.5911 143.73 44.0728 145.819 45.092C147.907 46.1113 150.201 46.6411 152.526 46.6411C154.852 46.6411 157.145 46.1113 159.234 45.092C161.322 44.0728 163.149 42.5911 164.574 40.7604C166.484 38.0439 167.486 34.7968 167.438 31.4805C167.486 28.164 166.484 24.9169 164.574 22.2003ZM159.802 34.9604C158.707 38.22 156.111 40.7604 152.514 40.8416C148.917 40.9228 146.322 38.22 145.239 34.9604C144.465 32.7045 144.465 30.2563 145.239 28.0004C146.333 24.7408 148.929 22.2003 152.514 22.1192C156.1 22.0379 158.707 24.7408 159.802 28.0004C160.572 30.2529 160.572 32.6963 159.802 34.9488V34.9604ZM50.0902 45.8644C50.0902 46.092 49.9995 46.3104 49.8378 46.4714C49.6764 46.6324 49.4573 46.7227 49.2287 46.7227H44.2234C43.995 46.7227 43.7759 46.6324 43.6143 46.4714C43.4528 46.3104 43.362 46.092 43.362 45.8644V4.8584C43.362 4.63074 43.4528 4.4124 43.6143 4.25142C43.7759 4.09044 43.995 4 44.2234 4H49.2287C49.4573 4 49.6764 4.09044 49.8378 4.25142C49.9995 4.4124 50.0902 4.63074 50.0902 4.8584V45.8644ZM38.3334 45.8644C38.3334 46.092 38.2426 46.3104 38.0811 46.4714C37.9195 46.6324 37.7004 46.7227 37.472 46.7227H32.4665C32.2381 46.7227 32.019 46.6324 31.8574 46.4714C31.6959 46.3104 31.6052 46.092 31.6052 45.8644V4.8584C31.6052 4.63273 31.6942 4.41614 31.8534 4.25548C32.0124 4.09483 32.2285 4.00305 32.4549 4H37.4603C37.6887 4 37.9079 4.09044 38.0694 4.25142C38.231 4.4124 38.3216 4.63074 38.3216 4.8584V45.8644H38.3334ZM136.485 18.0244V21.5044C136.506 21.6545 136.488 21.8074 136.433 21.949C136.378 22.0904 136.29 22.216 136.174 22.3142C136.058 22.4122 135.919 22.4798 135.77 22.5107C135.622 22.5414 135.467 22.5345 135.321 22.4904C129.664 21.3304 126.184 23.8361 126.184 29.0445V45.8644C126.184 46.092 126.093 46.3104 125.932 46.4714C125.77 46.6324 125.551 46.7227 125.322 46.7227H120.317C120.089 46.7227 119.869 46.6324 119.708 46.4714C119.546 46.3104 119.456 46.092 119.456 45.8644V28.6848C119.426 27.0598 119.739 25.4467 120.374 23.9499C121.01 22.4531 121.954 21.1063 123.146 19.9964C125.593 17.6124 128.885 16.2868 132.306 16.3076C133.478 16.3107 134.648 16.4194 135.799 16.6324C136.393 16.8296 136.485 17.1777 136.485 18.0708V18.0244ZM115.056 31.4689C115.119 28.1503 114.116 24.8985 112.192 22.1888C110.767 20.3581 108.94 18.8764 106.852 17.8572C104.764 16.838 102.469 16.3081 100.144 16.3081C97.8189 16.3081 95.5246 16.838 93.4364 17.8572C91.3482 18.8764 89.5217 20.3581 88.0963 22.1888C86.2045 24.9162 85.1912 28.1533 85.1912 31.4689C85.1912 34.7843 86.2045 38.0214 88.0963 40.7488C89.4987 42.6044 91.3207 44.104 93.4141 45.126C95.5075 46.1478 97.8133 46.6631 100.144 46.63C103.197 46.6399 106.184 45.7434 108.723 44.0548V47.7205C108.723 52.6968 104.358 53.6016 101.564 53.7756C99.642 53.8389 97.7178 53.7341 95.8138 53.4624C95.0456 53.3464 94.5102 53.4624 94.5102 54.286V58.694C94.5146 58.7931 94.5387 58.8902 94.5809 58.98C94.6231 59.0698 94.6828 59.1504 94.7562 59.2173C94.8298 59.2841 94.9158 59.3358 95.0094 59.3694C95.103 59.403 95.2023 59.4179 95.3016 59.4133C101.785 59.97 106.151 59.854 109.433 57.9864C111.733 56.6312 113.44 54.4668 114.217 51.9195C114.798 49.9543 115.077 47.9128 115.044 45.8644V31.4689H115.056ZM100.144 40.8184C96.5472 40.8184 93.9514 38.1968 92.8572 34.9372C92.0829 32.6813 92.0829 30.2331 92.8572 27.9772C93.9514 24.7176 96.5472 22.096 100.144 22.096C108.188 22.096 108.455 30.274 108.455 31.4571C108.455 32.6404 108.188 40.8184 100.144 40.8184ZM27.0189 28.4644C27.0189 24.5088 26.1341 21.5044 24.2251 19.428C22.3161 17.3517 18.4747 16.3192 14.9127 16.3192C11.3373 16.3053 7.82235 17.238 4.72736 19.022C4.63049 19.0791 4.55042 19.1606 4.49525 19.2584C4.44007 19.3562 4.41173 19.4666 4.41307 19.5788L4.6808 23.9404C4.70458 24.0761 4.76412 24.2031 4.85332 24.3083C4.94253 24.4135 5.05819 24.4932 5.18846 24.5392C5.31873 24.5853 5.45894 24.596 5.59473 24.5702C5.73053 24.5445 5.85701 24.4833 5.96125 24.3928C10.3264 21.7131 15.5647 21.2144 18.2303 22.56C18.9636 22.9812 19.5679 23.5937 19.9781 24.3315C20.3884 25.0694 20.5889 25.9047 20.5583 26.7475V27.3856H13.2831C10.1518 27.3856 0.560081 28.5457 0.560081 37.3269V37.4196C0.485443 38.7559 0.727965 40.0909 1.26797 41.3163C1.80797 42.5416 2.63025 43.6229 3.66809 44.4725C5.93506 46.0638 8.67538 46.8446 11.4439 46.688H26.1691C26.3975 46.688 26.6166 46.5976 26.7782 46.4366C26.9397 46.2757 27.0305 46.0573 27.0305 45.8296V28.4296L27.0189 28.4644ZM20.5583 41.3288H11.863C10.7473 41.2969 9.66923 40.9198 8.77824 40.2501C8.31993 39.9293 7.94758 39.5013 7.6939 39.0039C7.44021 38.5064 7.3129 37.9544 7.32318 37.3964C7.32318 35.8304 8.38247 32.6984 13.6789 32.6984H20.5583V41.3288ZM68.517 16.3192C59.6121 16.3192 55.7125 22.27 54.467 27.3044C54.1245 28.6622 53.9524 30.0571 53.9549 31.4571C53.9067 34.7736 54.9087 38.0207 56.8184 40.7373C58.2455 42.566 60.0724 44.0463 62.1602 45.0655C64.2479 46.0846 66.5415 46.6157 68.8663 46.6184C73.6738 46.7924 76.8865 45.9804 79.3427 44.5884C79.5822 44.4344 79.7671 44.2094 79.8716 43.9451C79.976 43.6809 79.9945 43.3906 79.9247 43.1152V39.2523C79.9247 38.4637 79.4474 38.0924 78.7607 38.568C75.8858 40.4041 72.474 41.2213 69.0758 40.8881C67.1405 40.8625 65.2815 40.1326 63.8492 38.8355C62.4167 37.5385 61.5101 35.7641 61.3 33.8468H81.0887C81.3028 33.8468 81.5083 33.7629 81.6608 33.6131C81.8133 33.4632 81.9005 33.2597 81.9036 33.0464C82.2527 27.6524 80.6813 16.3192 68.517 16.3192ZM61.4047 28.5108C61.4448 27.6228 61.6617 26.7516 62.0427 25.9479C62.4238 25.1441 62.9614 24.4239 63.6243 23.8292C64.2872 23.2344 65.0622 22.7769 65.9041 22.4833C66.7461 22.1898 67.6383 22.0661 68.5287 22.1192C69.3808 22.0672 70.2343 22.1976 71.0318 22.5016C71.8292 22.8055 72.5521 23.2761 73.1519 23.8814C73.7518 24.4868 74.2146 25.2133 74.5095 26.0117C74.8042 26.8102 74.9242 27.6623 74.8611 28.5108H61.4047Z" fill="#FF5A00"/>
</g>
<defs>
<clipPath id="clip0_657_7520">
<rect width="168" height="64" fill="white"/>
</clipPath>
</defs>
</svg>
