<svg width="153" height="64" viewBox="0 0 153 64" fill="none" xmlns="http://www.w3.org/2000/svg">
<path d="M94.2848 47.9809C85.4711 54.5139 72.6962 57.9995 61.6972 57.9995C46.2749 57.9995 32.3908 52.2632 21.887 42.7227C21.0618 41.9725 21.8011 40.95 22.7915 41.5343C34.1271 48.1669 48.1432 52.157 62.6215 52.157C72.3859 52.157 83.1274 50.1254 93.004 45.9095C94.4961 45.2721 95.7439 46.8921 94.2848 47.9809Z" fill="#FF9900"/>
<path d="M98.5411 43.5936C97.3761 42.0769 90.8119 42.877 87.8656 43.2318C86.9679 43.3431 86.8309 42.55 87.6395 41.9796C92.8675 38.2436 101.446 39.322 102.447 40.5743C103.447 41.8334 102.186 50.5645 97.2734 54.7318C96.5196 55.3719 95.8002 55.031 96.136 54.1822C97.2392 51.3855 99.7127 45.1172 98.5411 43.5936Z" fill="#FF9900"/>
<path d="M87.9866 17.3388V13.8586C87.9866 13.3319 88.3841 12.9785 88.8611 12.9785H104.343C104.839 12.9785 105.237 13.3385 105.237 13.8586V16.8387C105.23 17.3388 104.813 17.9921 104.071 19.0255L96.0488 30.5529C99.03 30.4795 102.177 30.9261 104.879 32.4596C105.489 32.8062 105.655 33.3129 105.701 33.813V37.5266C105.701 38.0332 105.145 38.6266 104.561 38.3199C99.7985 35.8064 93.4719 35.5331 88.2052 38.3466C87.6686 38.64 87.1055 38.0532 87.1055 37.5465V34.0197C87.1055 33.453 87.1121 32.4863 87.6752 31.6262L96.9697 18.2121H88.8809C88.3841 18.2121 87.9866 17.8588 87.9866 17.3388Z" fill="#221F1F"/>
<path d="M31.9063 38.4253H27.2564C26.8117 38.3921 26.4585 38.0533 26.4258 37.6216V13.3817C26.4258 12.8968 26.8247 12.5115 27.3218 12.5115H31.6577C32.109 12.5314 32.4687 12.8835 32.5014 13.3219V16.4906H32.5864C33.7178 13.4282 35.8433 12 38.7078 12C41.6181 12 43.4361 13.4282 44.7441 16.4906C45.869 13.4282 48.4261 12 51.1664 12C53.1152 12 55.2472 12.8171 56.5487 14.6505C58.0202 16.6899 57.7193 19.6526 57.7193 22.2499L57.7128 37.5484C57.7128 38.0334 57.3139 38.4253 56.8169 38.4253H52.1735C51.7092 38.3921 51.3364 38.0134 51.3364 37.5484V24.7011C51.3364 23.6782 51.428 21.1273 51.2056 20.1574C50.859 18.5299 49.8191 18.0715 48.4719 18.0715C47.347 18.0715 46.1699 18.8355 45.6925 20.0578C45.2151 21.2801 45.2607 23.3261 45.2607 24.7011V37.5484C45.2607 38.0334 44.8618 38.4253 44.3648 38.4253H39.7214C39.2506 38.3921 38.8843 38.0134 38.8843 37.5484L38.8778 24.7011C38.8778 21.9976 39.316 18.0184 36.0134 18.0184C32.6714 18.0184 32.8022 21.8979 32.8022 24.7011V37.5484C32.8022 38.0334 32.4033 38.4253 31.9063 38.4253Z" fill="#221F1F"/>
<path d="M119.316 12C126.358 12 130.169 18.1244 130.169 25.9116C130.169 33.4352 125.957 39.404 119.316 39.404C112.401 39.404 108.637 33.2797 108.637 25.648C108.637 17.9689 112.448 12 119.316 12ZM119.356 17.036C115.858 17.036 115.638 21.8625 115.638 24.8705C115.638 27.8854 115.592 34.3207 119.316 34.3207C122.993 34.3207 123.167 29.1292 123.167 25.9656C123.167 23.8836 123.081 21.3961 122.46 19.4222C121.926 17.7052 120.865 17.036 119.356 17.036Z" fill="#221F1F"/>
<path d="M138.714 38.4253H133.969C133.494 38.3921 133.111 38.0134 133.111 37.5484L133.105 13.302C133.145 12.8569 133.541 12.5115 134.023 12.5115H138.439C138.855 12.5314 139.197 12.8104 139.29 13.1891V16.8958H139.377C140.711 13.581 142.581 12 145.871 12C148.009 12 150.093 12.7639 151.433 14.8565C152.679 16.7962 152.679 20.0578 152.679 22.4027V37.6613C152.626 38.0866 152.23 38.4253 151.761 38.4253H146.983C146.548 38.3921 146.186 38.0732 146.139 37.6613V24.4952C146.139 21.8448 146.447 17.9653 143.157 17.9653C141.997 17.9653 140.932 18.7359 140.402 19.905C139.732 21.3864 139.646 22.8611 139.646 24.4952V37.5484C139.639 38.0334 139.223 38.4253 138.714 38.4253Z" fill="#221F1F"/>
<path d="M75.5324 27.3107V26.2719C72.1285 26.2719 68.5324 27.0139 68.5324 31.1012C68.5324 33.1719 69.5854 34.5748 71.3934 34.5748C72.7179 34.5748 73.9033 33.7452 74.6517 32.3962C75.5788 30.737 75.5324 29.179 75.5324 27.3107ZM80.2808 38.9993C79.9695 39.2826 79.5192 39.3029 79.1683 39.114C77.6054 37.792 77.3271 37.1782 76.4662 35.917C73.8834 38.6015 72.0556 39.404 68.7046 39.404C64.7443 39.404 61.6582 36.9153 61.6582 31.9308C61.6582 28.0391 63.731 25.3884 66.6781 24.0934C69.2344 22.9468 72.8039 22.7444 75.5324 22.4274V21.8069C75.5324 20.6671 75.6186 19.3181 74.9629 18.3334C74.3868 17.4497 73.2874 17.0856 72.3205 17.0856C70.5258 17.0856 68.9231 18.0231 68.5324 19.9655C68.4529 20.3973 68.1416 20.8221 67.7179 20.8424L63.1483 20.3433C62.7641 20.2556 62.3404 19.9387 62.4462 19.3383C63.4992 13.6997 68.4993 12 72.9761 12C75.2675 12 78.261 12.6205 80.0689 14.3876C82.3603 16.5663 82.1418 19.4732 82.1418 22.6365V30.1097C82.1418 32.3557 83.0557 33.3405 83.9166 34.5545C84.2213 34.9862 84.2875 35.5056 83.9034 35.8293C82.9431 36.6454 81.2345 38.163 80.2941 39.0129L80.2808 38.9993Z" fill="#221F1F"/>
<path d="M13.8742 27.3107V26.2719C10.4703 26.2719 6.87423 27.0139 6.87423 31.1012C6.87423 33.1719 7.92715 34.5748 9.73515 34.5748C11.0597 34.5748 12.2451 33.7452 12.9935 32.3962C13.9206 30.737 13.8742 29.179 13.8742 27.3107ZM18.6226 38.9993C18.3114 39.2826 17.861 39.3029 17.5101 39.114C15.9472 37.792 15.6689 37.1782 14.808 35.917C12.2252 38.6015 10.3974 39.404 7.04639 39.404C3.08606 39.404 0 36.9153 0 31.9308C0 28.0391 2.07291 25.3884 5.01985 24.0934C7.57621 22.9468 11.1457 22.7444 13.8742 22.4274V21.8069C13.8742 20.6671 13.9604 19.3181 13.3048 18.3334C12.7286 17.4497 11.6292 17.0856 10.6623 17.0856C8.86761 17.0856 7.26493 18.0231 6.87423 19.9655C6.7947 20.3973 6.48353 20.8221 6.05967 20.8424L1.49011 20.3433C1.10602 20.2556 0.682159 19.9387 0.788123 19.3383C1.84104 13.6997 6.84107 12 11.318 12C13.6093 12 16.6028 12.6205 18.4106 14.3876C20.7021 16.5663 20.4836 19.4732 20.4836 22.6365V30.1097C20.4836 32.3557 21.3975 33.3405 22.2584 34.5545C22.5631 34.9862 22.6293 35.5056 22.2452 35.8293C21.2849 36.6454 19.5763 38.163 18.6359 39.0129L18.6226 38.9993Z" fill="#221F1F"/>
</svg>
