<svg width="250" height="64" viewBox="0 0 250 64" fill="none" xmlns="http://www.w3.org/2000/svg">
<g clip-path="url(#clip0_657_7521)">
<path d="M8.81537 30.0202C8.72729 29.9059 8.61075 29.816 8.47709 29.7592C8.34343 29.7024 8.19718 29.6808 8.05253 29.6963C7.90789 29.7119 7.76979 29.7642 7.65163 29.848C7.53347 29.9318 7.43929 30.0445 7.37821 30.1748L0.0919782 44.5966C0.025711 44.7277 -0.00565382 44.8734 0.000836437 45.0198C0.00732794 45.1661 0.0514622 45.3084 0.129081 45.4334C0.206698 45.5583 0.315243 45.6616 0.444486 45.7336C0.573729 45.8056 0.719413 45.844 0.867802 45.845H11.0167C11.1809 45.8478 11.3424 45.8029 11.4812 45.716C11.6199 45.629 11.7298 45.5038 11.7972 45.3557C13.9844 40.9135 12.6594 34.0851 8.81537 30.0202Z" fill="url(#paint0_linear_657_7521)"/>
<path d="M14.7972 17.4708C12.9741 20.3095 11.914 23.5604 11.7171 26.9162C11.5202 30.2721 12.1931 33.6222 13.672 36.6498L18.6004 46.5092C18.6705 46.6547 18.7808 46.7778 18.9184 46.8644C19.056 46.9512 19.2154 46.998 19.3785 46.9997H29.552C29.6954 46.9872 29.8339 46.9409 29.9554 46.8646C30.0771 46.7883 30.1783 46.6841 30.2507 46.5611C30.3241 46.4368 30.3672 46.2974 30.3762 46.1537C30.3854 46.01 30.3603 45.8663 30.3032 45.7339L16.2823 17.4708C16.2165 17.3307 16.1117 17.212 15.9801 17.1286C15.8485 17.0452 15.6955 17.0006 15.5392 17C15.3829 17.0008 15.2302 17.0455 15.0989 17.1289C14.9675 17.2123 14.8628 17.3308 14.7972 17.4708Z" fill="#2684FF"/>
<path d="M227.84 21.6152V46.9995H233.264V27.6394L235.551 32.7785L243.223 46.9995H250.04V21.6152H244.616V37.9962L242.564 33.2447L236.401 21.6152H227.84ZM188.114 21.6152H193.956V46.9995H188.114V21.6152ZM181.103 39.3427C181.103 35.0308 178.735 33.0081 172.048 31.6189C168.355 30.8321 167.465 30.044 167.465 28.904C167.465 27.479 168.783 26.8767 171.217 26.8767C174.172 26.8767 177.089 27.7409 179.847 28.9398V23.3068C177.191 22.1419 174.31 21.5657 171.405 21.6187C164.796 21.6187 161.377 24.3925 161.377 28.9306C161.377 32.5512 163.126 35.452 169.964 36.7281C174.046 37.5508 174.904 38.1889 174.904 39.5019C174.904 40.8138 174.046 41.6019 171.151 41.6019C167.686 41.5423 164.285 40.6556 161.241 39.0174V44.9411C163.3 45.9138 166.019 46.9995 171.09 46.9995C178.237 46.9995 181.076 43.9269 181.076 39.3519L181.103 39.3427ZM156.568 39.3427C156.568 35.0308 154.222 33.0081 147.517 31.6189C143.827 30.8321 142.932 30.044 142.932 28.904C142.932 27.479 144.253 26.8767 146.683 26.8767C149.637 26.8767 152.548 27.7409 155.305 28.9398V23.3068C152.65 22.142 149.77 21.5658 146.865 21.6187C140.263 21.6187 136.841 24.3925 136.841 28.9306C136.841 32.5512 138.588 35.452 145.431 36.7281C149.51 37.5508 150.364 38.1889 150.364 39.5019C150.364 40.8138 149.511 41.6019 146.612 41.6019C143.146 41.5423 139.748 40.6556 136.705 39.0174V44.9411C138.767 45.9138 141.486 46.9995 146.551 46.9995C153.702 46.9995 156.534 43.9269 156.534 39.3519L156.568 39.3427ZM92.3043 21.6152V46.9995H104.42L106.325 41.5119H98.2364V21.6152H92.3043ZM67.7676 21.6152V27.0982H74.4428V46.9995H80.487V27.0982H87.6306V21.6152H67.7676ZM58.8362 21.6152H50.9846L42.0625 46.9995H48.8955L50.1631 42.7234C53.2746 43.6315 56.5836 43.6315 59.6951 42.7234L60.9581 46.9995H67.7676L58.8362 21.6152ZM54.9104 38.1497C53.7979 38.1512 52.6908 37.9942 51.6237 37.6834L54.9104 26.6044L58.1971 37.6834C57.1299 37.9939 56.0229 38.1509 54.9104 38.1497ZM124.283 21.6152H116.424L107.494 46.9995H114.309L115.578 42.7234C118.693 43.6315 122.004 43.6315 125.12 42.7234L126.384 46.9995H133.199L124.283 21.6152ZM120.353 38.1497C119.24 38.1517 118.131 37.9946 117.063 37.6834L120.353 26.6044L123.644 37.6834C122.575 37.9947 121.467 38.1517 120.353 38.1497ZM215.42 21.6152H207.56L198.63 46.9995H205.445L206.709 42.7234C209.825 43.6315 213.136 43.6315 216.252 42.7234L217.516 46.9995H224.335L215.42 21.6152ZM211.49 38.1497C210.376 38.1509 209.268 37.994 208.199 37.6834L211.49 26.6044L214.78 37.6834C213.711 37.994 212.603 38.1509 211.49 38.1497Z" fill="#0052CC"/>
</g>
<defs>
<linearGradient id="paint0_linear_657_7521" x1="10.3683" y1="32.2457" x2="3.53956" y2="44.248" gradientUnits="userSpaceOnUse">
<stop stop-color="#0052CC"/>
<stop offset="0.92" stop-color="#2684FF"/>
</linearGradient>
<clipPath id="clip0_657_7521">
<rect width="250" height="64" fill="white"/>
</clipPath>
</defs>
</svg>
