<svg fill="none" height="26" viewBox="0 0 202 26" width="202" xmlns="http://www.w3.org/2000/svg" xmlns:xlink="http://www.w3.org/1999/xlink"><linearGradient id="a" gradientUnits="userSpaceOnUse" x1="8.66366" x2="3.16411" y1="13.1987" y2="22.8649"><stop offset="0" stop-color="#0052cc"/><stop offset=".92" stop-color="#2684ff"/></linearGradient><path d="m7.41303 11.4064c-.07094-.0921-.16479-.1645-.27244-.2102-.10764-.0458-.22543-.0632-.34192-.0507-.11649.0126-.22771.0547-.32287.1222s-.17101.1582-.2202.2632l-5.868048 11.6147c-.053369.1056-.078629.2229-.073402.3408.005228.1179.040772.2325.103283.3331.06251.1006.149928.1838.254015.2418s.221415.0889.340922.0897h8.17349c.13231.0023.26238-.0339.37411-.1039.11172-.07.2002-.1709.25448-.2901 1.76155-3.5776.69445-9.0769-2.40142-12.3506z" fill="url(#a)"/><path d="m12.231 1.29881c-1.4683 2.28619-2.32206 4.90432-2.48062 7.607-.15856 2.70269.38332 5.40069 1.57442 7.83899l3.9691 7.9404c.0565.1172.1453.2163.2561.2861.1108.0699.2392.1076.3706.1089h8.1933c.1155-.01.227-.0473.3249-.1088.098-.0614.1795-.1453.2378-.2444.0591-.1001.0938-.2124.1011-.3281.0074-.1157-.0128-.2315-.0588-.3381l-11.2919-22.76199c-.053-.11283-.1374-.20843-.2434-.27557-.106-.067154-.2292-.103076-.3551-.103562-.1258.000662-.2488.036667-.3546.103802-.1058.06714-.1901.16264-.2429.27533z" fill="#2684ff"/><path d="m183.805 4.63672v20.44348h4.368v-15.59187l1.842 4.13887 6.179 11.453h5.49v-20.44348h-4.368v13.19258l-1.653-3.8267-4.963-9.36588zm-31.994 0h4.705v20.44348h-4.705zm-5.646 14.27698c0-3.4726-1.907-5.1016-7.293-6.2204-2.974-.6337-3.691-1.2684-3.691-2.1865 0-1.14764 1.062-1.6327 3.022-1.6327 2.38 0 4.729.696 6.95 1.6615v-4.5366c-2.139-.9381-4.459-1.40214-6.799-1.35949-5.322 0-8.076 2.23391-8.076 5.88869 0 2.9159 1.409 5.2521 6.916 6.2798 3.287.6626 3.978 1.1765 3.978 2.2339 0 1.0566-.691 1.6913-3.022 1.6913-2.791-.048-5.53-.7621-7.981-2.0815v4.7707c1.658.7834 3.848 1.6578 7.932 1.6578 5.756 0 8.042-2.4746 8.042-6.1591zm-19.76 0c0-3.4726-1.889-5.1016-7.289-6.2204-2.972-.6337-3.693-1.2684-3.693-2.1865 0-1.14764 1.064-1.6327 3.021-1.6327 2.379 0 4.724.696 6.944 1.6615v-4.5366c-2.138-.93804-4.458-1.40208-6.797-1.35949-5.317 0-8.073 2.23391-8.073 5.88869 0 2.9159 1.407 5.2521 6.918 6.2798 3.285.6626 3.973 1.1765 3.973 2.2339 0 1.0566-.687 1.6913-3.022 1.6913-2.791-.048-5.528-.7621-7.979-2.0815v4.7707c1.661.7834 3.851 1.6578 7.93 1.6578 5.759 0 8.04-2.4746 8.04-6.1591zm-51.7552-14.27698v20.44348h9.7572l1.5348-4.4195h-6.5145v-16.02398zm-19.7609 0v4.41579h5.3759v16.02769h4.8678v-16.02769h5.7532v-4.41579zm-7.193 0h-6.3234l-7.1855 20.44348h5.503l1.0209-3.4438c2.5059.7313 5.1708.7313 7.6767 0l1.0172 3.4438h5.4841zm-3.1617 13.31618c-.896.0012-1.7876-.1252-2.647-.3755l2.647-8.92261 2.647 8.92261c-.8595.25-1.751.3765-2.647.3755zm55.8698-13.31618h-6.3292l-7.192 20.44348h5.4888l1.0219-3.4438c2.5087.7313 5.1755.7313 7.6845 0l1.018 3.4438h5.489zm-3.1646 13.31618c-.897.0016-1.7895-.1249-2.6499-.3755l2.6499-8.92261 2.6498 8.92261c-.8603.2507-1.7529.3771-2.6498.3755zm76.5626-13.31618h-6.33l-7.192 20.44348h5.489l1.018-3.4438c2.509.7313 5.176.7313 7.685 0l1.018 3.4438h5.492zm-3.165 13.31618c-.897.001-1.789-.1254-2.65-.3755l2.65-8.92261 2.65 8.92261c-.861.2501-1.753.3765-2.65.3755z" fill="#0052cc"/></svg>