<svg width="289" height="64" viewBox="0 0 289 64" fill="none" xmlns="http://www.w3.org/2000/svg">
<path d="M288.344 41.1577C288.344 42.4123 287.438 43.3183 286.21 43.3183C284.987 43.3183 284.076 42.4123 284.076 41.1577C284.076 39.903 284.987 38.9946 286.21 38.9946C287.438 38.9946 288.344 39.903 288.344 41.1577ZM288.719 41.1577C288.719 39.7704 287.597 38.6459 286.21 38.6459C284.83 38.6459 283.703 39.7704 283.703 41.1577C283.703 42.5449 284.83 43.667 286.21 43.667C287.597 43.667 288.719 42.5449 288.719 41.1577Z" fill="white"/>
<path d="M286.675 40.5715C286.675 40.9422 286.369 40.9815 286.071 40.9815H285.809V40.159H286.197C286.548 40.159 286.675 40.3284 286.675 40.5715ZM287.299 42.4375L286.693 41.5855C286.585 41.4333 286.509 41.3302 286.391 41.2418C286.828 41.1853 287.081 40.9471 287.081 40.5715C287.081 40.186 286.811 39.8373 286.285 39.8373H285.436V42.4375H285.809V41.2737C286.013 41.2737 286.091 41.3375 286.216 41.5266L286.845 42.4375H287.299Z" fill="white"/>
<path d="M74.0316 21.56L69.2781 32.6579H78.8267L74.0316 21.56ZM88.5718 43.6699H83.4231L80.6093 36.9768H67.4931L64.6401 43.6699H59.6484L71.8537 15.736H76.3665L88.5718 43.6699Z" fill="white"/>
<path d="M133.543 43.6699H128.627V20.4502H119.83V15.9324H142.733L140.845 20.4502H133.543V43.6699Z" fill="white"/>
<path d="M226.852 20.4502H211.997V27.5043H221.512V31.8673H211.997V39.2381H226.859V43.6699H207.092V15.9324H226.852V20.4502Z" fill="white"/>
<path d="M261.681 43.6719H257.033V15.9344H261.681V43.6719Z" fill="white"/>
<path d="M241.917 19.9372C239.083 19.9372 236.675 20.7941 236.663 22.6749C236.648 24.8773 238.03 25.6409 243.248 27.3375C249.013 29.233 252.074 31.1604 252.042 35.85C252.013 41.1363 247.927 44.1514 241.961 44.1514C237.738 44.1514 233.952 42.7813 231.064 40.2425L232.862 35.8918C235.482 38.0868 238.656 39.6434 242.086 39.6582C245.089 39.6729 247.225 38.212 247.225 36.0489C247.225 34.2393 246.179 33.0362 241.119 31.4329C235.315 29.5301 231.808 27.5462 231.838 22.8198C231.872 18.1179 236.282 15.4441 241.826 15.4711C247.373 15.4981 250.496 17.5261 250.97 17.8011L249.226 21.7566C248.094 21.1452 245.612 19.9372 241.917 19.9372Z" fill="white"/>
<path d="M267.669 29.3614L280.085 15.9334H274.136L261.678 29.3614L275.368 43.6758H281.399L267.669 29.3614Z" fill="white"/>
<path d="M157.754 39.6734C152.303 39.6734 148.323 35.2563 148.323 29.8056C148.323 24.3548 152.303 19.9353 157.754 19.9353C163.205 19.9353 167.187 24.3548 167.187 29.8056C167.187 35.2563 163.205 39.6734 157.754 39.6734ZM157.754 15.4568C149.831 15.4568 143.41 21.8823 143.41 29.8056C143.41 37.7288 149.831 44.1494 157.754 44.1494C165.675 44.1494 172.1 37.7288 172.1 29.8056C172.1 21.8823 165.675 15.4568 157.754 15.4568Z" fill="white"/>
<path d="M187.762 39.2347L182.159 39.2396V20.4566H187.784C193.232 20.4566 197.192 24.3187 197.192 29.767C197.192 35.2153 193.208 39.2347 187.762 39.2347ZM187.762 15.9364H177.238V43.6738L187.762 43.6714C195.68 43.6714 202.103 37.6878 202.103 29.767C202.103 21.8438 195.68 15.9364 187.762 15.9364Z" fill="white"/>
<path d="M114.472 31.3821C114.472 39.6515 109.62 44.1104 102.583 44.1104C95.5489 44.1104 90.6973 39.6515 90.6973 31.3821V15.9358H95.6103V31.9665C95.6103 36.8181 98.4585 39.6663 102.583 39.6663C106.713 39.6663 109.561 36.8181 109.561 31.9665V15.9358H114.472V31.3821Z" fill="white"/>
<path d="M9.41734 56.0002C8.05138 56.0002 7.34154 55.485 6.66013 54.2881L0.435771 42.7498C0.00683522 41.9229 0 41.6475 0 41.0518L9.78239 41.483L12.0213 43.7219H31.6436L15.3511 53.8148C14.5569 54.2845 11.5366 56.0002 9.41734 56.0002Z" fill="url(#paint0_linear_657_7557)"/>
<path d="M12.0303 43.7223H3.56868C1.01297 43.7223 0 42.3856 0 41.0521C0 40.2083 0.271511 39.7482 0.64691 38.8104L12.9782 9.3726L13.1107 9.11428L13.2814 8.84923L13.6363 8.50333L14.1574 8.22481L14.9121 8.05859L16.2104 8.09229L24.7794 11.2773L21.8819 20.4146L12.0303 43.7223Z" fill="url(#paint1_linear_657_7557)"/>
<path fill-rule="evenodd" clip-rule="evenodd" d="M36.8745 55.999L17.4104 9.9209C17.0752 9.1363 16.5377 8.12399 15.1463 8.12399C13.9032 8.12399 13.311 8.72592 12.9766 9.37285C13.1495 8.90631 13.6728 8 15.1895 8H28.6231C29.8611 8 30.455 8.72894 30.7257 9.39633L50.4089 55.999H36.8745Z" fill="url(#paint2_linear_657_7557)"/>
<defs>
<linearGradient id="paint0_linear_657_7557" x1="4.08746" y1="49.5388" x2="31.5436" y2="44.0682" gradientUnits="userSpaceOnUse">
<stop stop-color="#2B7A77"/>
<stop offset="0.510487" stop-color="#4EBAA9"/>
<stop offset="1" stop-color="#5CC2B1"/>
</linearGradient>
<linearGradient id="paint1_linear_657_7557" x1="18.2284" y1="11.7611" x2="4.60354" y2="43.7589" gradientUnits="userSpaceOnUse">
<stop stop-color="#236736"/>
<stop offset="0.4928" stop-color="#6BA443"/>
<stop offset="1" stop-color="#86C146"/>
</linearGradient>
<linearGradient id="paint2_linear_657_7557" x1="23.4909" y1="8.14867" x2="43.5153" y2="55.8357" gradientUnits="userSpaceOnUse">
<stop stop-color="#29A5E3"/>
<stop offset="0.515493" stop-color="#356EB9"/>
<stop offset="1" stop-color="#394DA5"/>
</linearGradient>
</defs>
</svg>
