<svg fill="none" height="54" viewBox="0 0 93 54" width="93" xmlns="http://www.w3.org/2000/svg"><path d="m25.9367 19.6351c-.0237.8995.0898 1.7976.3367 2.6644.2719.7411.5993 1.4615.9795 2.1555.1362.2053.2104.4439.2143.6886-.0187.1836-.0811.3604-.1821.5164-.1009.1559-.2377.2866-.3995.3817l-1.9284 1.2574c-.2327.1639-.5094.2576-.7959.2694-.3487-.0234-.676-.1728-.9183-.4191-.4125-.4335-.7815-.9047-1.102-1.4071-.3061-.5089-.6122-1.0777-.9489-1.7663-2.3876 2.7542-5.3874 4.1314-8.9994 4.1314-2.57122 0-4.62211-.7185-6.12201-2.1555-1.49989-1.437-2.26515-3.353-2.26515-5.748 0-2.5447.91831-4.6104 2.78553-6.1671 1.86722-1.5568 4.34663-2.3351 7.49953-2.3351 1.0858.0086 2.1698.0886 3.2446.2395 1.1326.1496 2.2958.3891 3.5202.6586v-2.1854c0-2.27529-.4898-3.86197-1.4387-4.79003-.9795-.92806-2.6324-1.37713-4.9894-1.37713-1.1139-.00003-2.2238.13063-3.3059.38919-1.12528.26219-2.23003.60234-3.30593 1.01787-.3481.15234-.70597.28235-1.07135.38919-.15845.05109-.32316.08129-.48976.08981-.42855 0-.64282-.29937-.64282-.92806v-1.46693c-.03286-.36215.04152-.72589.21427-1.04781.23091-.27284.52462-.48829.85709-.62869 1.22772-.59413 2.52209-1.04625 3.8569-1.347181 1.5597-.391417 3.1649-.582627 4.7752-.568811 3.6426 0 6.3057.80831 8.0198 2.424932 1.6836 1.61662 2.5407 4.07149 2.5407 7.3646v9.69975zm-12.4277 4.5505c1.0738-.0116 2.1386-.1936 3.1528-.5389 1.1235-.3799 2.1259-1.0404 2.908-1.916.4933-.5516.8495-1.2074 1.0407-1.916.2104-.8527.3132-1.7274.3061-2.6046v-1.2573c-.9282-.221-1.8684-.3909-2.8161-.509-.9544-.1185-1.9154-.1785-2.8774-.1796-2.0508 0-3.5507.3892-4.5609 1.1975-1.01011.8083-1.49988 1.9459-1.49988 3.4428 0 1.4071.36732 2.4549 1.13258 3.1734.7346.7484 1.806 1.1077 3.2141 1.1077zm24.5799 3.2332c-.412.0414-.8253-.065-1.1632-.2994-.3203-.3237-.5428-.7278-.6428-1.1675l-7.1934-23.14165c-.1394-.38724-.2319-.78916-.2754-1.1975-.0149-.09905-.0064-.2001.0248-.29545.0312-.09534.0842-.18245.1551-.25467.0709-.072211.1577-.127622.2539-.161994.0961-.034372.199-.046795.3008-.03632h2.9998c.5816 0 .9795.089812 1.1938.299374.2449.17962.4285.59875.6122 1.16756l5.1425 19.81855 4.7752-19.81855c.153-.59875.3367-.98794.5816-1.16756.3672-.219887.7946-.324374 1.2244-.299374h2.4488c.5816 0 .9795.089812 1.2244.299374.3202.31584.5246.72631.5816 1.16756l4.8364 20.05805 5.2956-20.05805c.0972-.43448.3081-.83681.6122-1.16756.3557-.220383.7735-.325165 1.1938-.299374h2.8467c.1038-.013687.2094-.003758.3086.029015.0993.032773.1894.087504.2635.159929.074.07243.13.1606.1635.25764s.0437.20034.0297.30185c-.0072.16102-.0277.32121-.0613.479-.0479.25534-.1196.50586-.2142.74844l-7.3771 23.14161c-.1836.5988-.3979.9879-.6428 1.1676-.346.2166-.7529.3214-1.1632.2993h-2.6325c-.5815 0-.9795-.0898-1.2244-.2993-.3196-.3282-.5234-.7479-.5815-1.1975l-4.7446-19.30966-4.714 19.27966c-.0716.4457-.2736.8617-.5816 1.1975-.3612.2336-.7933.3392-1.2244.2994zm39.3341.8083c-1.5875.0017-3.1697-.1792-4.714-.5389-1.5305-.3592-2.7243-.7484-3.5201-1.1975-.394-.1816-.7242-.4733-.9489-.8382-.1192-.2642-.1817-.5495-.1837-.8382v-1.5269c0-.6286.2449-.928.704-.928.1874.0006.3735.0309.551.0898.1837.0599.4592.1796.7653.2994 1.0812.4651 2.2099.8163 3.3671 1.0478 1.1989.238 2.4192.3583 3.6426.3592 1.9284 0 3.4283-.3293 4.4691-.9879.4985-.2943.9084-.7125 1.188-1.2121s.4189-1.0626.4037-1.632c.0108-.3854-.0567-.769-.1986-1.1287-.1419-.3598-.3553-.6884-.6279-.9669-.551-.5688-1.5917-1.0777-3.0916-1.5567l-4.4385-1.3472c-2.2345-.6886-3.8875-1.7064-4.8976-3.0536-.9855-1.2424-1.5235-2.76854-1.5305-4.34095-.0248-1.15915.26-2.30457.8265-3.32306.5466-.96308 1.2981-1.80022 2.2039-2.45487.9541-.70621 2.0333-1.233981 3.1835-1.556741 1.2532-.353116 2.5527-.524585 3.8568-.5089361.6856-.0048747 1.3708.0351311 2.0509.1197501.7041.089812 1.3469.209562 1.9897.329311.6122.149687 1.1938.299374 1.7448.478996.4466.13514.8775.31575 1.2856.53888.3605.17773.6746.43373.9183.74843.1991.29132.2958.6381.2755.98794v1.40706c0 .62868-.2449.95799-.704.95799-.4078-.04531-.8028-.1673-1.1632-.35925-1.8499-.7997-3.8549-1.19802-5.8772-1.16756-1.7447 0-3.1222.26944-4.0711.83825s-1.4387 1.437-1.4387 2.66443c-.0084.39754.0691.79233.2273 1.15859.1583.36626.3937.69576.691.96697.6122.56877 1.7448 1.13767 3.3671 1.64657l4.3467 1.3472c2.2039.6885 3.7956 1.6465 4.7446 2.874.9343 1.2043 1.43 2.6796 1.408 4.1912.0158 1.2025-.2568 2.3919-.7958 3.4727-.5432 1.0247-1.3053 1.9232-2.2346 2.6345-1.0106.7692-2.1646 1.3386-3.3977 1.6765-1.4178.4265-2.894.6385-4.3773.6287z" fill="#252f3e"/><path d="m83.2082 42.7768c-10.0707 7.2748-24.7024 11.1367-37.2831 11.1367-17.6315 0-33.5182-6.3767-45.517367-16.9745-.948916-.8383-.091831-1.9759 1.040747-1.3173 12.97872 7.3647 28.98782 11.8253 45.54792 11.8253 11.9348-.0618 23.7403-2.4219 34.7426-6.9455 1.6835-.7484 3.1222 1.0778 1.4692 2.2753zm4.1936-4.6702c-1.2856-1.6167-8.5096-.7784-11.7849-.3892-.9795.1197-1.1326-.7185-.2449-1.3472 5.7547-3.9518 15.2133-2.8141 16.3153-1.4969 1.1019 1.3472-.3061 10.5979-5.6935 15.0286-.8265.6886-1.6224.3293-1.2551-.5688 1.2245-2.9638 3.9488-9.6399 2.6631-11.2265z" fill="#f90"/></svg>