<svg width="180" height="64" viewBox="0 0 180 64" fill="none" xmlns="http://www.w3.org/2000/svg">
<path d="M70.1498 33.4911C76.4385 32.14 75.58 24.6162 75.3958 22.9722C75.0858 20.4364 72.1054 16.0084 68.0611 16.3622C62.9693 16.8158 62.226 24.1707 62.226 24.1707C61.5363 27.5764 63.8716 34.8454 70.1498 33.4911ZM81.8281 20.8787C85.2995 20.8787 88.1054 16.8782 88.1054 11.9365C88.1054 6.99396 85.2995 3 81.8281 3C78.3551 3 75.5418 6.99396 75.5418 11.9365C75.5418 16.8782 78.3543 20.8787 81.8281 20.8787ZM96.7944 21.467C101.442 22.0756 104.419 17.1184 105.014 13.3622C105.623 9.61089 102.621 5.24772 99.3383 4.49875C96.0414 3.74085 91.9257 9.01853 91.5549 12.4615C91.1029 16.6729 92.1521 20.8722 96.7944 21.467ZM115.197 27.7776C115.197 25.9811 113.71 20.5655 108.171 20.5655C102.621 20.5655 101.887 25.676 101.887 29.2869C101.887 32.7332 102.174 37.5402 109.067 37.3909C115.952 37.2383 115.197 29.5864 115.197 27.7776ZM108.171 43.549C108.171 43.549 100.987 37.9922 96.7944 31.9842C91.1013 23.1256 83.0242 26.7333 80.3237 31.232C77.6313 35.742 73.4459 38.5902 72.847 39.3465C72.2425 40.0873 64.171 44.4489 65.9619 52.4133C67.7568 60.3712 74.0512 60.2202 74.0512 60.2202C74.0512 60.2202 78.6902 60.6738 84.0701 59.4705C89.4614 58.2703 94.0996 59.765 94.0996 59.765C94.0996 59.765 106.675 63.9821 110.112 55.8676C113.552 47.7596 108.171 43.549 108.171 43.549Z" fill="#2319DC"/>
<path d="M82.9458 35.8027V41.1486H78.5899C78.5899 41.1486 74.2365 41.5097 72.7126 46.4441C72.1811 49.7386 73.1817 51.6788 73.3561 52.0934C73.5322 52.5073 74.9392 54.9173 78.4723 55.6248H86.646V35.8612L82.9458 35.8027ZM82.8801 52.3807H79.5872C79.5872 52.3807 77.2932 52.2614 76.5946 49.6201C76.2343 48.45 76.6481 47.0981 76.8299 46.5666C76.9963 46.0343 77.7663 44.8042 79.3543 44.3303H82.8792L82.8801 52.3807Z" fill="white"/>
<path d="M88.6484 41.6281V52.0341C88.6484 52.0341 88.8188 54.6235 92.4703 55.5672H101.877V41.6265H97.817V52.0917H93.9431C93.9431 52.0917 92.7049 51.9116 92.472 50.9167V41.5664L88.6484 41.6281Z" fill="white"/>
<path d="M146.692 34.7949V30.4082H117.795L117.758 34.8598H130.181L129.016 37.5222H118.451V59.536H143.548C146.171 59.536 145.939 56.8858 145.939 56.8858V37.523H135.358L136.288 34.7973H146.692V34.7949H146.692ZM141.08 54.8361C141.08 54.8361 140.776 55.5672 140.346 55.5672H123.693V50.4324H141.083L141.08 54.8361ZM141.052 46.1917H123.69V41.3766H141.052V46.1917Z" fill="#E10601"/>
<path d="M179.712 30.5256H168.374V28.3047H163.057V30.4161H150.051V59.4912H154.73V34.1666H179.712V30.5256ZM176.654 36.5433V34.8604H172.083V36.5433H162.679V34.9204H158.349V36.5433H155.424L155.482 39.837H158.349V46.0227H174.166C176.361 46.0227 176.652 43.7068 176.652 43.7068V39.8354H179.999V36.5409H176.652L176.654 36.5433ZM172.083 42.0856C172.083 42.0856 171.675 42.8353 171.153 42.8353H162.629V39.7721H172.081V42.0872H172.083V42.0856ZM156.063 50.5303L163.344 54.7531C162.767 55.3868 160.281 56.1918 160.281 56.1918H155.427V59.4376H162.017C163.984 59.0351 167.624 57.185 167.624 57.185C169.13 58.5685 172.026 59.1447 172.026 59.1447H179.539V55.907H173.876C172.349 55.679 170.979 54.8083 170.979 54.8083L179.54 49.8925V47.231H156.065V50.5287L156.063 50.5303ZM171.212 50.476L167.048 52.6725L163.231 50.476H171.212Z" fill="#E10601"/>
<path d="M53.4961 35.1545H59.8035V29.5977H53.4961V35.1545ZM53.4961 59.3722H59.8035V37.575H53.4961V59.3722Z" fill="#E10601"/>
<path d="M43.2436 37.5954L29.7866 37.5605V42.1428H41.5866C41.5866 42.1428 44.395 42.8358 44.395 44.6177V46.2317H33.7172C33.7172 46.2317 29.518 46.6196 28.1694 51.6352C27.9373 53.9851 28.2465 55.139 28.4047 55.5674C28.5564 55.9918 29.7866 58.7629 33.4486 59.4551H50.4509V43.8404C50.4509 43.8404 49.641 38.4824 43.2436 37.5954ZM44.395 55.1414H35.8018C34.6471 54.6757 34.2625 53.9072 34.1814 53.7125C34.1019 53.5234 33.8341 52.8329 34.1457 52.135C34.8411 50.7896 35.9933 50.4788 35.9933 50.4788H44.395V55.1414Z" fill="#E10601"/>
<path d="M26.781 51.7294C26.9668 46.4217 22.2052 44.5862 22.2052 44.5862C26.2357 42.4781 25.7236 37.1647 25.7236 37.1647C25.2871 29.0332 15.3517 29.4129 15.3517 29.4129H0V59.7182H17.3341C27.5137 59.6776 26.781 51.7294 26.781 51.7294ZM16.986 54.0851V54.0989H6.60192V47.5602H16.9349L17.2846 47.6308C17.2846 47.6308 19.2507 47.9903 19.9632 49.7584C19.9632 49.7584 20.3754 51.4203 19.4853 52.6545C19.4853 52.6545 18.8304 53.7954 16.986 54.0851ZM19.1875 40.034C19.1875 40.034 18.4896 41.3161 16.6379 41.5936H6.60192V35.3219H16.5949C16.5949 35.3219 18.7663 35.2221 19.4853 36.9464C19.4853 36.9464 19.9169 38.7795 19.1875 40.034Z" fill="#E10601"/>
</svg>
