<svg width="115" height="64" viewBox="0 0 115 64" fill="none" xmlns="http://www.w3.org/2000/svg">
<path d="M106.783 52.4431C106.27 52.4431 105.808 52.4431 105.397 52.3922C104.524 52.3417 103.651 52.2907 102.778 52.2907C102.213 52.2907 102.213 52.2907 102.161 51.7321L101.34 42.4863L100.518 34.8157L99.9533 30.0913L99.4396 25.9767L98.5151 19.5758C98.2069 17.2901 97.8478 15.0549 97.3855 12.7687C97.334 12.4134 97.334 12.3624 97.7452 12.3114C99.337 12.0066 100.98 11.8542 102.624 11.8542H103.188C103.445 11.9052 103.599 12.0576 103.651 12.3624L103.856 15.8674L105.294 34.8157L106.013 43.5022L106.475 48.4809L106.783 52.4431ZM43.8228 11.8542H44.7472C45.2095 11.8542 45.312 12.0066 45.312 12.4638L45.7232 18.6109L46.6477 31.3611L47.2125 38.0158L47.6232 43.1469L48.4451 51.9859C48.4451 52.3922 48.3936 52.4431 47.9829 52.4431L44.285 52.2907C44.0284 52.3417 43.8743 52.1893 43.8743 51.9349L43.7202 50.1569C43.5661 48.6333 43.412 47.1092 43.3095 45.5346L42.4876 37.5081L41.6146 30.2438L40.9983 25.1132L40.331 20.4393C40.0228 18.3565 39.6631 16.2232 39.304 14.1404L39.0468 12.7182C38.9958 12.4638 39.0468 12.3624 39.304 12.3114C40.7417 12.0576 42.1284 11.8037 43.8228 11.8542ZM95.4856 32.3266C96.7692 32.3266 96.9233 32.3776 97.1289 33.5963C97.3855 35.1205 97.5911 36.6446 97.7452 38.1682L98.31 43.096L99.3886 53.5605C99.4396 53.8149 99.3886 53.9163 99.1314 53.9163L95.1259 54.3736C94.7152 54.424 94.6121 54.3736 94.5611 53.9673L92.2499 42.2834L90.8122 34.5108L90.6066 33.4439C90.5556 33.2411 90.6581 33.0886 90.8637 33.0377C92.4555 32.6824 93.9963 32.428 95.4856 32.3266ZM37.0953 32.3266C38.482 32.2756 38.6361 32.428 38.7902 33.6983C39.1499 35.7811 39.4065 37.813 39.6121 39.8958L40.2795 45.9913L40.6902 50.1065L41.0498 53.4081C41.0498 53.8653 40.9983 53.9673 40.5876 54.0177L36.7877 54.3736C36.3765 54.424 36.2739 54.3736 36.2224 53.9673L33.0898 38.0158L32.2684 33.4949C32.2168 33.2411 32.3194 33.0886 32.5765 33.0377C34.1683 32.6824 35.6576 32.428 37.0953 32.3266ZM56.7128 48.0741V54.3736V54.5764C56.7644 54.8813 56.6103 55.0337 56.3021 54.9832H55.0695C54.1965 54.9832 53.3236 55.0337 52.4507 55.0846C51.9884 55.1356 51.9369 55.1356 51.8854 54.5764L51.0639 45.4326L50.6532 40.9117L50.0369 34.0031C49.9854 33.4439 50.0885 33.3425 50.5502 33.2915C51.9884 33.1391 53.4261 33.1391 54.8644 33.1901L55.9424 33.3425C56.3537 33.4949 56.4047 33.5459 56.4047 33.9521L56.5587 36.6951L56.6103 39.7434C56.6618 42.5373 56.7128 45.2802 56.7128 48.0741ZM115 48.3789V54.3226V54.6274C115 54.8813 114.897 55.0337 114.64 54.9832H112.792C112.073 54.9832 111.354 55.0337 110.686 55.0846C110.276 55.1356 110.224 55.0846 110.173 54.6274L109.095 42.7401L108.529 36.8475L108.324 33.8507C108.273 33.4439 108.375 33.3425 108.786 33.3425C110.481 33.1391 112.227 33.0886 113.921 33.2915C114.589 33.3425 114.692 33.5459 114.743 34.206L114.897 40.9622L115 48.3789ZM93.9963 21.5062C94.5096 21.5062 94.9718 21.5572 95.3315 21.6077C95.5881 21.6586 95.6907 21.7601 95.7422 22.0144L96.4095 29.0754C96.5636 29.6851 96.4611 29.7865 95.8447 29.7865L94.0989 29.8879C93.7392 29.9389 93.5851 29.9899 93.5851 29.4312L92.8662 23.6905L92.6611 22.0649C92.6096 21.7601 92.7121 21.6077 93.0203 21.5572L93.9963 21.5062ZM35.8117 21.5062C36.2224 21.5062 36.6336 21.5572 36.9928 21.6077C37.1984 21.6586 37.3009 21.7601 37.3525 22.0144L37.5576 23.7924L38.0713 29.3293C38.1229 29.7355 38.1229 29.7865 37.7116 29.7865L35.7091 29.8879C35.2984 29.9389 35.2469 29.8879 35.1954 29.4817L34.7331 25.418L34.3224 22.0144C34.2709 21.7601 34.374 21.6077 34.6306 21.6077C34.9903 21.5572 35.401 21.5062 35.8117 21.5062ZM56.3021 26.5863V30.0913C56.3537 30.65 56.2506 30.65 55.7883 30.65C55.121 30.65 54.5047 30.5996 53.8884 30.5486C53.4777 30.4976 53.4261 30.4976 53.4777 30.0913L53.3236 25.7733C53.3236 24.8083 53.3236 23.8429 53.2721 22.8779C53.2211 22.4207 53.2721 22.3697 53.7343 22.3697C54.4532 22.3697 55.172 22.4207 55.8914 22.5221C56.3021 22.5221 56.3021 22.6241 56.3021 23.0304V26.5863ZM114.64 26.6368V30.1423C114.64 30.5996 114.589 30.65 114.127 30.65L112.176 30.5486C111.867 30.4976 111.713 30.3452 111.765 30.0913L111.611 22.827C111.611 22.4207 111.662 22.3697 112.073 22.3697C112.74 22.3697 113.357 22.4207 113.973 22.4717C114.743 22.5221 114.64 22.6746 114.64 23.2332V26.6368ZM34.2199 29.3802C34.2709 29.9899 34.2199 30.0913 33.6036 30.1423L32.3709 30.4471C31.9602 30.5996 31.9087 30.4976 31.8577 30.1423L30.5735 22.9794C30.4194 22.5221 30.522 22.4207 30.9842 22.3697L32.7816 22.0649C33.1929 22.0144 33.2954 22.0144 33.2954 22.4207C33.4495 23.2842 33.6036 24.1477 33.7061 25.0112L34.2199 29.0754V29.3802ZM88.8607 22.4207C89.6311 22.2683 90.4525 22.1668 91.2744 22.0649C91.531 22.0144 91.6336 22.1669 91.6851 22.4207L92.0958 25.2146C92.3014 26.5863 92.4555 27.9575 92.5071 29.3293V29.7355C92.5581 29.9389 92.4555 30.0913 92.2499 30.1423L90.6066 30.4976C90.3499 30.5486 90.2474 30.4471 90.1959 30.1928L88.8607 22.6241V22.4207ZM52.3991 27.9071C52.3991 28.7196 52.3476 29.4817 52.2966 30.1928C52.2966 30.4471 52.1935 30.5486 51.9369 30.5996L50.3451 30.752C50.0885 30.8024 49.9854 30.65 49.9854 30.3962C49.8829 29.6341 49.8313 28.923 49.7803 28.1609C49.6772 26.7892 49.5747 25.367 49.5232 23.9448L49.4206 22.9289C49.3691 22.7255 49.4721 22.6241 49.6772 22.6241L51.7828 22.4717C52.1425 22.4717 52.245 22.5221 52.245 22.9289L52.3991 27.9071ZM110.635 27.094C110.686 28.0595 110.686 29.0754 110.635 30.0404C110.686 30.4976 110.584 30.5996 110.122 30.5996L108.683 30.752C108.427 30.8024 108.273 30.65 108.273 30.3962C108.221 29.1264 108.118 27.8056 108.016 26.5354L107.81 22.9794C107.759 22.7255 107.862 22.6241 108.067 22.6241L110.122 22.4717C110.481 22.4717 110.532 22.5221 110.532 22.9289C110.635 24.3001 110.686 25.7228 110.635 27.094ZM32.2169 44.4167C33.0388 45.3822 33.1929 46.4485 32.8332 47.6169C32.525 48.7348 31.9602 49.6997 31.1383 50.5127C29.8031 51.8845 28.2629 53.0018 26.568 53.8653C23.641 55.3895 20.611 56.4564 17.3753 57.015C15.0646 57.4723 12.7534 57.7771 10.4428 57.9295C9.72391 57.98 9.00505 57.98 8.28566 57.98H6.7454C6.33417 57.98 6.23162 57.8786 6.18009 57.4723L5.82092 52.5446L4.84491 42.8421L3.76688 33.5963L3.15056 28.6692L2.48271 23.9448C2.12354 21.3538 1.66131 18.7633 1.19907 16.1722C0.839376 14.0894 0.480208 12.0066 0.0179703 9.92431C-0.0335647 9.66994 0.0179703 9.46707 0.274594 9.41609L7.41272 6.46976C7.87496 6.26637 8.28566 6.11396 8.7479 6.01252C9.05606 5.96154 9.21014 6.0635 9.1586 6.36833C9.1586 7.18086 9.1586 7.9939 9.10759 8.85741L9.05606 9.51753C9.00505 12.4638 9.00505 15.4102 9.05606 18.4075C9.10759 20.9985 9.26167 23.64 9.41575 26.2305C9.67238 30.2947 10.0831 34.3584 10.4943 38.3716C10.4943 38.7779 10.5453 38.7779 11.0076 38.7274C11.8805 38.575 12.7024 38.5241 13.5754 38.5241C16.2973 38.5241 19.0186 38.8289 21.638 39.489C23.9486 40.0482 26.1573 40.8103 28.3654 41.7752C29.444 42.2834 30.4194 42.8926 31.3439 43.6042C31.7036 43.858 31.9602 44.1119 32.2169 44.4167ZM90.0933 43.9595C91.1719 44.823 91.531 45.9913 91.2229 47.363C90.9663 48.4809 90.4525 49.4458 89.6821 50.3093C88.45 51.6811 87.0117 52.748 85.4199 53.6115C82.3389 55.288 79.0522 56.4564 75.5599 57.066C73.66 57.4213 71.7595 57.7261 69.8595 57.8786C68.781 57.98 67.5999 58.031 66.4188 57.98H65.032C64.7244 58.031 64.5703 57.8786 64.5703 57.5737C64.4673 56.1515 64.3647 54.7288 64.2106 53.3067L63.3887 44.6201L62.5158 37.0509L61.4377 28.5167C61.2837 27.0436 61.078 25.5194 60.8214 24.0463L59.8969 18.3565C59.4862 15.6645 58.9725 12.9721 58.4077 10.2796L58.3562 9.92431C58.2536 9.66994 58.3562 9.46707 58.6128 9.41609C61.1296 8.40017 63.5943 7.28229 66.1106 6.31735C66.7785 6.0635 67.5999 5.75867 67.5489 6.36833C67.3432 8.24775 67.3948 10.1272 67.3432 11.9561C67.2917 13.4798 67.2917 15.0039 67.3948 16.4771V17.6454C67.3948 19.4744 67.4458 21.3033 67.5999 23.0808C67.7029 25.4685 67.857 27.9071 68.0621 30.2947L68.5243 35.4253C68.5759 36.3903 68.6784 37.3047 68.8325 38.2702C68.8325 38.8289 68.935 38.7779 69.3973 38.7274C70.3218 38.575 71.2462 38.5241 72.1707 38.5241C75.4058 38.575 78.5384 39.0827 81.6195 39.9462C83.7251 40.5054 85.7281 41.267 87.6796 42.2834C88.5525 42.7401 89.3229 43.2993 90.0933 43.9595ZM15.835 52.9004C16.6054 52.4431 17.9406 51.5287 19.789 50.1065C21.638 48.6333 22.7675 47.6679 23.2298 47.1602C20.4569 45.9408 17.5809 44.8739 14.6024 43.909L15.835 52.9004ZM81.4144 47.414C81.5685 47.2616 81.5169 47.1602 81.3629 47.0582L80.1302 46.5505C77.9737 45.636 75.8165 44.823 73.6084 44.1119L73.3003 44.0104C73.1977 43.9595 73.0952 44.0104 72.9411 44.0614L74.1732 52.8494C74.3273 52.8494 74.4304 52.7984 74.4814 52.748C76.4844 51.3253 78.4869 49.8521 80.4899 48.2775L81.4144 47.414Z" fill="#FF5588"/>
</svg>
