<svg width="181" height="64" viewBox="0 0 181 64" fill="none" xmlns="http://www.w3.org/2000/svg">
<path fill-rule="evenodd" clip-rule="evenodd" d="M12.9734 2.24393C12.4098 1.91869 11.7152 1.91869 11.1515 2.24393L0.909787 8.15376C0.346776 8.47864 0 9.07868 0 9.72801V21.5503C0 22.1998 0.346778 22.7998 0.909788 23.1247L7.85482 27.1322C8.41783 27.457 8.7646 28.057 8.7646 28.7064V51.318C8.7646 52.322 9.57978 53.1361 10.5854 53.1361H13.5397C14.5452 53.1361 15.3605 52.322 15.3605 51.318V28.7064C15.3605 28.057 15.7072 27.457 16.2702 27.1322L23.2152 23.1247C23.7783 22.7998 24.125 22.1998 24.125 21.5503V9.72801C24.125 9.07868 23.7783 8.47864 23.2152 8.15376L12.9734 2.24393ZM19.5821 40.4535C18.6717 39.9234 17.5286 40.5792 17.5286 41.6315V42.439V48.8012V49.6087C17.5286 50.661 18.6717 51.3168 19.5821 50.7867L22.3141 49.1958C22.7338 48.9515 22.9919 48.503 22.9919 48.0178V43.2224C22.9919 42.7373 22.7338 42.2888 22.3141 42.0443L19.5821 40.4535ZM12.7532 9.74048C12.3281 9.49295 11.8026 9.49295 11.3775 9.74048L7.27981 12.1265C6.86016 12.3708 6.6021 12.8194 6.6021 13.3045V18.1C6.6021 18.585 6.86016 19.0336 7.27981 19.278L11.3775 21.664C11.8026 21.9115 12.3281 21.9115 12.7532 21.664L16.8509 19.278C17.2705 19.0336 17.5286 18.585 17.5286 18.1V13.3045C17.5286 12.8194 17.2705 12.3708 16.8509 12.1265L12.7532 9.74048Z" fill="#008096"/>
<path d="M161.72 53.7846L163.209 50.0535C163.268 49.904 163.271 49.7375 163.214 49.5868L152.351 20.8272C152.191 20.4051 152.503 19.9541 152.955 19.9541H158.582C158.855 19.9541 159.1 20.1261 159.191 20.3836L166.033 39.6425C166.237 40.2169 167.051 40.2147 167.252 39.6392L173.973 20.3869C174.064 20.1277 174.309 19.9541 174.583 19.9541H179.942C180.395 19.9541 180.712 20.394 180.551 20.8165C178.667 25.7477 169.287 50.3167 167.545 54.956C165.606 60.1184 162.487 62.0552 158.107 61.9983C156.602 61.9786 155.487 61.6144 155.241 61.5274C155.207 61.5152 155.173 61.5056 155.139 61.4935C155.012 61.4494 154.701 61.2948 154.701 60.8447V56.9802C154.701 56.5608 155.085 56.2111 155.505 56.2811C155.636 56.2903 155.776 56.3022 155.922 56.3144C156.326 56.3483 156.775 56.386 157.186 56.386C160.259 56.386 160.948 55.4508 161.72 53.7846Z" fill="#008096"/>
<path d="M145.511 40.4783C145.608 40.1995 145.862 39.9981 146.157 39.9981H150.924C151.324 39.9981 151.629 40.359 151.54 40.7488C150.325 46.1004 146.133 49.6917 139.424 49.6917C131.291 49.6917 125.65 43.535 125.65 34.5618C125.65 25.8506 131.356 19.3008 139.294 19.3008C147.491 19.3008 151.952 25.1301 151.952 33.6448V35.3574C151.952 35.7138 151.662 36.0027 151.306 36.0027H132.75C132.383 36.0027 132.088 36.3085 132.121 36.6733C132.541 41.3796 135.413 44.1899 139.424 44.1899C142.388 44.1899 144.655 42.9709 145.511 40.4783ZM139.358 24.8026C135.975 24.8026 133.4 26.7612 132.444 30.4624C132.343 30.8536 132.649 31.2213 133.054 31.2213H144.8C145.162 31.2213 145.456 30.9246 145.423 30.5651C145.13 27.3349 143.109 24.8026 139.358 24.8026Z" fill="#008096"/>
<path d="M115.635 32.804L126.532 47.8805C126.882 48.3699 126.532 49.0341 125.937 49.0341H120.08C119.834 49.0341 119.625 48.9293 119.485 48.7195L111.318 37.2438L109.603 34.7268C109.008 33.8878 107.355 34.2723 107.355 35.3211V48.3C107.355 48.6845 107.039 49.0341 106.619 49.0341H101.516C101.061 49.0341 100.711 48.6846 100.711 48.23V13.0378C100.711 12.6533 101.026 12.3037 101.446 12.3037H106.654C107.039 12.3037 107.389 12.6183 107.389 13.0378V29.1335C107.389 30.1122 108.903 30.5668 109.568 29.8675L118.845 20.1141C118.985 19.9743 119.161 19.9044 119.37 19.9044H125.718C126.348 19.9044 126.663 20.6735 126.242 21.1279L115.74 31.93C115.46 32.1398 115.46 32.5244 115.635 32.804Z" fill="#008096"/>
<path d="M83.4213 41.2313V26.0917C83.4213 25.7353 83.1321 25.4463 82.7752 25.4463H79.4762C79.1193 25.4463 78.8301 25.1574 78.8301 24.8011V20.6553C78.8301 20.2989 79.1193 20.0101 79.4762 20.0101H82.7752C83.1321 20.0101 83.4213 19.7211 83.4213 19.3647V12.8611C83.4213 12.5047 83.7107 12.2158 84.0676 12.2158H89.3341C89.6911 12.2158 89.9804 12.5047 89.9804 12.8611V19.3647C89.9804 19.7211 90.2696 20.0101 90.6266 20.0101H95.8932C96.2501 20.0101 96.5394 20.2989 96.5394 20.6553V24.8011C96.5394 25.1574 96.2501 25.4463 95.8932 25.4463H90.6266C90.2696 25.4463 89.9804 25.7353 89.9804 26.0917V40.5107C89.9804 42.8687 91.2922 43.9166 93.4567 43.9166C94.3266 43.9166 95.2832 43.6862 96.0968 43.3399C96.5803 43.134 97.1953 43.4668 97.1953 43.9917V48.3289C97.1953 48.5576 97.0754 48.7718 96.8699 48.8727C95.7509 49.4222 94.1216 49.746 92.276 49.746C87.0944 49.746 83.4213 46.9951 83.4213 41.2313Z" fill="#008096"/>
<path d="M75.2613 12.0178C75.2613 14.1618 73.5209 15.8998 71.3739 15.8998C69.2267 15.8998 67.4863 14.1618 67.4863 12.0178C67.4863 9.87379 69.2267 8.13574 71.3739 8.13574C73.5209 8.13574 75.2613 9.87379 75.2613 12.0178Z" fill="#008096"/>
<path d="M68.0176 20.66C68.0176 20.3036 68.307 20.0146 68.6638 20.0146H74.1566C74.5135 20.0146 74.8028 20.3036 74.8028 20.66V48.3759C74.8028 48.7323 74.5135 49.0211 74.1566 49.0211H68.6638C68.307 49.0211 68.0176 48.7323 68.0176 48.3759V20.66Z" fill="#008096"/>
<path d="M57.4336 27.5953C61.2378 28.8398 63.9926 32.5732 63.9926 36.8306C63.9926 44.3627 58.7454 48.3581 50.3498 48.3581H35.5664V8.14258H49.0381C57.4336 8.14258 62.6807 11.8759 62.6807 19.0807C62.6807 23.4035 60.3851 26.5474 57.4336 27.5953ZM41.5607 25.0409H48.9724C53.6293 25.0409 56.1218 23.2725 56.1218 19.4736C56.1218 15.6748 53.6293 14.0374 48.9724 14.0374H41.5607V25.0409ZM41.5607 30.6738V42.4633H50.2186C54.81 42.4633 57.3024 40.1709 57.3024 36.5685C57.3024 32.9007 54.81 30.6738 50.2186 30.6738H41.5607Z" fill="#008096"/>
<path d="M34.9375 8.76517C34.9375 8.41755 35.2197 8.13574 35.5678 8.13574V48.3561C35.2197 48.3561 34.9375 48.0744 34.9375 47.7266V8.76517Z" fill="#008096"/>
</svg>
