<svg width="1590" height="528" viewBox="0 0 1590 528" fill="none" xmlns="http://www.w3.org/2000/svg">
<path fill-rule="evenodd" clip-rule="evenodd" d="M114.005 2.14659C109.052 -0.71553 102.948 -0.715531 97.9948 2.14659L7.99481 54.1531C3.04732 57.012 0 62.2924 0 68.0065V172.043C0 177.758 3.04733 183.038 7.99482 185.897L69.0247 221.163C73.9722 224.022 77.0195 229.302 77.0195 235.016V433.998C77.0195 442.834 84.1829 449.998 93.0195 449.998H118.981C127.817 449.998 134.981 442.834 134.981 433.998V235.016C134.981 229.302 138.028 224.022 142.975 221.163L204.005 185.897C208.953 183.038 212 177.758 212 172.043V68.0065C212 62.2924 208.953 57.012 204.005 54.1531L114.005 2.14659ZM172.079 338.391C164.079 333.726 154.034 339.497 154.034 348.757L154.034 355.863L154.034 411.851V418.957C154.034 428.217 164.079 433.988 172.079 429.323L196.087 415.323C199.775 413.173 202.043 409.226 202.043 404.957V362.757C202.043 358.488 199.775 354.541 196.087 352.39L172.079 338.391ZM112.07 68.1162C108.334 65.938 103.716 65.938 99.9803 68.1162L63.9718 89.1129C60.2841 91.2631 58.0164 95.2105 58.0164 99.4793V141.68C58.0164 145.948 60.2841 149.896 63.9718 152.046L99.9803 173.043C103.716 175.221 108.334 175.221 112.07 173.043L148.078 152.046C151.766 149.896 154.034 145.948 154.034 141.68V99.4793C154.034 95.2105 151.766 91.2631 148.078 89.1129L112.07 68.1162Z" fill="#008096"/>
<path d="M1421.11 455.709L1434.2 422.876C1434.72 421.56 1434.74 420.095 1434.24 418.769L1338.78 165.684C1337.38 161.97 1340.12 158.001 1344.09 158.001H1393.54C1395.94 158.001 1398.09 159.515 1398.89 161.781L1459.01 331.259C1460.81 336.314 1467.96 336.294 1469.73 331.23L1528.79 161.81C1529.59 159.529 1531.74 158.001 1534.15 158.001H1581.24C1585.22 158.001 1588.01 161.872 1586.59 165.59C1570.04 208.985 1487.61 425.192 1472.3 466.018C1455.26 511.447 1427.85 528.491 1389.36 527.99C1376.14 527.817 1366.34 524.612 1364.18 523.846C1363.88 523.739 1363.58 523.654 1363.28 523.548C1362.17 523.16 1359.43 521.799 1359.43 517.838V483.831C1359.43 480.14 1362.81 477.063 1366.5 477.679C1367.65 477.76 1368.88 477.864 1370.16 477.972C1373.71 478.27 1377.66 478.602 1381.27 478.602C1408.27 478.602 1414.33 470.372 1421.11 455.709Z" fill="#008096"/>
<path d="M1278.69 338.599C1279.54 336.146 1281.77 334.373 1284.36 334.373H1326.25C1329.77 334.373 1332.45 337.549 1331.67 340.98C1320.99 388.074 1284.15 419.677 1225.2 419.677C1153.73 419.677 1104.16 365.498 1104.16 286.534C1104.16 209.875 1154.3 152.237 1224.05 152.237C1296.09 152.237 1335.29 203.535 1335.29 278.464V293.535C1335.29 296.672 1332.74 299.214 1329.61 299.214H1166.55C1163.32 299.214 1160.73 301.905 1161.02 305.115C1164.71 346.531 1189.95 371.261 1225.2 371.261C1251.24 371.261 1271.16 360.534 1278.69 338.599ZM1224.62 200.653C1194.89 200.653 1172.26 217.889 1163.86 250.459C1162.97 253.902 1165.66 257.138 1169.22 257.138H1272.44C1275.62 257.138 1278.2 254.527 1277.91 251.363C1275.34 222.937 1257.58 200.653 1224.62 200.653Z" fill="#008096"/>
<path d="M1016.15 271.083L1111.91 403.756C1114.98 408.063 1111.91 413.908 1106.68 413.908H1055.21C1053.05 413.908 1051.21 412.985 1049.98 411.139L978.216 310.153L963.142 288.003C957.912 280.62 943.383 284.004 943.383 293.233V407.448C943.383 410.831 940.614 413.908 936.922 413.908H892.078C888.079 413.908 885.002 410.832 885.002 406.832L885.002 97.1405C885.002 93.7565 887.771 90.6802 891.462 90.6802H937.229C940.613 90.6802 943.69 93.4489 943.69 97.1405L943.69 238.782C943.69 247.395 956.989 251.395 962.834 245.242L1044.36 159.412C1045.59 158.181 1047.13 157.566 1048.97 157.566H1104.75C1110.29 157.566 1113.06 164.334 1109.36 168.333L1017.07 263.392C1014.61 265.238 1014.61 268.622 1016.15 271.083Z" fill="#008096"/>
<path d="M733.093 345.223V211.994C733.093 208.858 730.551 206.315 727.415 206.315H698.425C695.289 206.315 692.747 203.773 692.747 200.637V164.154C692.747 161.018 695.289 158.476 698.425 158.476H727.415C730.551 158.476 733.093 155.933 733.093 152.797V95.5653C733.093 92.4291 735.636 89.8867 738.772 89.8867H785.052C788.189 89.8867 790.731 92.4291 790.731 95.5653V152.797C790.731 155.933 793.273 158.476 796.41 158.476H842.69C845.827 158.476 848.369 161.018 848.369 164.154V200.637C848.369 203.773 845.827 206.315 842.69 206.315H796.41C793.273 206.315 790.731 208.858 790.731 211.994V338.882C790.731 359.632 802.259 368.854 821.279 368.854C828.924 368.854 837.33 366.826 844.479 363.779C848.728 361.967 854.133 364.895 854.133 369.514V407.682C854.133 409.694 853.079 411.579 851.273 412.467C841.44 417.303 827.122 420.152 810.904 420.152C765.37 420.152 733.093 395.944 733.093 345.223Z" fill="#008096"/>
<path d="M661.369 88.1618C661.369 107.029 646.075 122.324 627.208 122.324C608.34 122.324 593.046 107.029 593.046 88.1618C593.046 69.2948 608.34 54 627.208 54C646.075 54 661.369 69.2948 661.369 88.1618Z" fill="#008096"/>
<path d="M597.692 164.208C597.692 161.072 600.235 158.529 603.371 158.529H651.639C654.775 158.529 657.318 161.072 657.318 164.208V408.108C657.318 411.244 654.775 413.786 651.639 413.786H603.371C600.235 413.786 597.692 411.244 597.692 408.108V164.208Z" fill="#008096"/>
<path d="M504.698 225.243C538.128 236.194 562.336 269.048 562.336 306.513C562.336 372.796 516.226 407.955 442.449 407.955H312.539V54.0586H430.922C504.698 54.0586 550.808 86.9122 550.808 150.314C550.808 188.355 530.635 216.021 504.698 225.243ZM365.214 202.764H430.345C471.268 202.764 493.171 187.202 493.171 153.772C493.171 120.342 471.268 105.933 430.345 105.933H365.214V202.764ZM365.214 252.333V356.081H441.296C481.643 356.081 503.545 335.908 503.545 304.207C503.545 271.93 481.643 252.333 441.296 252.333H365.214Z" fill="#008096"/>
<path d="M307 59.539C307 56.4799 309.48 54 312.539 54V407.939C309.48 407.939 307 405.46 307 402.4V59.539Z" fill="#008096"/>
</svg>
