<svg width="111" height="64" viewBox="0 0 111 64" fill="none" xmlns="http://www.w3.org/2000/svg">
<g clip-path="url(#clip0_657_7556)">
<path fill-rule="evenodd" clip-rule="evenodd" d="M88.4186 1.57248e-05V48.1179H77.0014V2.40592L88.4186 1.57248e-05ZM55.9117 52.6781C59.0645 52.6781 61.6202 55.2126 61.6202 58.339C61.6202 61.4654 59.0645 64 55.9117 64C52.759 64 50.2032 61.4654 50.2032 58.339C50.2032 55.2126 52.759 52.6781 55.9117 52.6781ZM55.9117 13.6649C65.6322 13.6649 73.529 21.4802 73.529 31.1352C73.529 40.7902 65.632 48.6054 55.9117 48.6054C46.1755 48.6054 38.2946 40.7902 38.2946 31.1352C38.2946 21.4802 46.1914 13.6649 55.9117 13.6649ZM55.9117 36.796C59.0672 36.796 61.6202 34.2643 61.6202 31.1352C61.6202 28.0059 59.0672 25.4742 55.9117 25.4742C52.7562 25.4742 50.2032 28.0059 50.2032 31.1352C50.2032 34.2643 52.7562 36.796 55.9117 36.796ZM19.9957 36.796C21.9619 36.796 23.5635 35.2078 23.5635 33.2579C23.5635 31.3082 21.9619 29.7198 19.9957 29.7198H11.4329V36.796H19.9957ZM11.4329 11.3219V18.3981H17.7757C19.7419 18.3981 21.3435 16.8098 21.3435 14.86C21.3435 12.9101 19.7419 11.3219 17.7757 11.3219H11.4329ZM30.5088 22.6752C33.268 25.3798 34.9805 29.1224 34.9646 33.2579C34.9646 41.4664 28.2573 48.1179 19.9798 48.1179H0V0H17.7598C26.0373 0 32.7446 6.6516 32.7446 14.86C32.7446 17.7219 31.936 20.4109 30.5088 22.6752ZM109.984 25.6315H104.292V34.516C104.292 37.205 105.164 39.1862 107.447 39.1862C108.922 39.1862 110 38.856 110 38.856V47.1902C110 47.1902 107.637 48.6054 104.434 48.6054H104.292C104.149 48.6054 104.022 48.5898 103.879 48.5898H103.768C103.705 48.5898 103.625 48.5739 103.562 48.5739C97.1874 48.2437 92.8584 44.2653 92.8584 37.3622V8.06683L104.276 5.66093V14.3096H109.984V25.6315Z" fill="#34D186"/>
</g>
<defs>
<clipPath id="clip0_657_7556">
<rect width="111" height="64" fill="white"/>
</clipPath>
</defs>
</svg>
