<svg xmlns="http://www.w3.org/2000/svg" width="282" height="64" fill="none" viewBox="0 0 282 64">
    <g clip-path="url(#a)">
        <path fill="#003b95"
              d="M110.607 12.293a4.294 4.294 0 0 1 8.506-.807 4.296 4.296 0 0 1-4.229 5.115 4.293 4.293 0 0 1-4.277-4.308m71.91 32.9a4.31 4.31 0 0 0 3.992-2.65 4.315 4.315 0 0 0-.925-4.7 4.3 4.3 0 0 0-4.697-.94 4.31 4.31 0 0 0-2.663 3.981 4.307 4.307 0 0 0 4.293 4.356zM53.799 31.892a13.504 13.504 0 1 1-13.536-13.395A13.02 13.02 0 0 1 53.8 31.939zm-7.222 0c0-4.2-2.6-7.129-6.267-7.129-3.666 0-6.266 2.93-6.266 7.129s2.569 7.128 6.266 7.128 6.267-2.867 6.267-7.081zm55.726.673a5.7 5.7 0 0 0-1.018-1.441l-.235-.25.251-.236a11.6 11.6 0 0 0 1.081-1.363l6.877-10.261h-8.35l-5.186 8.037a2.04 2.04 0 0 1-1.77.642h-1.175V12.559c0-3.024-1.896-3.447-3.932-3.447h-3.494v35.83h7.41V34.195h.69c.846 0 1.425.094 1.692.564l4.104 7.66a4.1 4.1 0 0 0 4.418 2.46h5.687l-4.245-7.003zm36.034-14.1a10.06 10.06 0 0 0-7.52 3.134l-.455.454-.156-.627a3.4 3.4 0 0 0-3.729-2.35h-3.337v25.85h7.395V33.02a9.6 9.6 0 0 1 .454-3.134 6.046 6.046 0 0 1 5.969-4.527c2.287 0 3.133 1.206 3.133 4.355v11.264a3.44 3.44 0 0 0 .962 2.971 3.43 3.43 0 0 0 2.971.962h3.478V28.476c0-6.533-3.181-9.995-9.212-9.995zm-23.312.58h-3.478v25.897h7.363V23.009a3.45 3.45 0 0 0-.962-2.975 3.44 3.44 0 0 0-2.97-.973zM82.72 31.939a13.52 13.52 0 1 1-13.536-13.395A13.02 13.02 0 0 1 82.72 31.939m-7.222 0c0-4.2-2.601-7.129-6.267-7.129s-6.267 2.93-6.267 7.129 2.57 7.128 6.267 7.128 6.267-2.914 6.267-7.128m165.032 0a13.497 13.497 0 0 1-8.253 12.551 13.505 13.505 0 1 1-5.283-25.946 13.02 13.02 0 0 1 13.536 13.395m-7.222 0c0-4.2-2.601-7.129-6.267-7.129s-6.266 2.93-6.266 7.129 2.569 7.128 6.266 7.128 6.267-2.914 6.267-7.128m-57.967-12.941v23.735c0 9.04-7.316 12.267-13.583 12.267a20.1 20.1 0 0 1-9.008-2.21l-.517-.265 1.426-3.572a2.177 2.177 0 0 1 3.133-1.567c1.585.588 3.26.9 4.951.924 4.042 0 6.266-1.911 6.266-5.373v-.721l-.564.439a9.1 9.1 0 0 1-5.671 1.66c-6.862 0-11.672-5.39-11.672-13.081 0-7.693 4.7-12.894 11.531-12.894a10.02 10.02 0 0 1 6.784 2.256l.344.298.188-.392a3.137 3.137 0 0 1 3.024-1.567zm-7.206 12.36c0-5.764-3.134-6.422-5.468-6.422-4.7 0-5.06 4.7-5.06 6.266 0 3.29 1.441 6.815 5.452 6.815 2.287-.078 5.044-1.222 5.044-6.658zM24.706 34.384c0 6.266-4.856 10.434-12.36 10.434H0v-31.96a3.76 3.76 0 0 1 3.619-3.73h8.585c6.737 0 11.108 3.636 11.108 9.276a8.68 8.68 0 0 1-2.945 6.783l-.94.815 1.08.595a8.73 8.73 0 0 1 4.2 7.787M6.862 23.62h5.39a3.995 3.995 0 0 0 4.104-4.356 3.87 3.87 0 0 0-4.199-4.214H9.024c-1.567.094-2.225.877-2.225 2.538zm10.794 10.34a4.496 4.496 0 0 0-4.81-4.826H8.759c-1.3.188-1.896.987-1.896 2.523v7.175h5.985a4.464 4.464 0 0 0 4.81-4.935zM273.43 18.622a10.15 10.15 0 0 0-7.911 3.838l-.533.69-.423-.768a7.31 7.31 0 0 0-6.972-3.76 9.4 9.4 0 0 0-6.783 3.133l-.69.752-.266-.987a3.3 3.3 0 0 0-3.603-2.224h-3.134v25.63h6.988V33.552c.009-1.014.136-2.023.376-3.008.673-2.757 2.522-5.718 5.624-5.42 1.911.188 2.851 1.66 2.851 4.527v15.275h7.082V33.552a10.4 10.4 0 0 1 .391-3.133c.564-2.616 2.491-5.311 5.484-5.311 2.162 0 2.976 1.222 2.976 4.528v11.53c0 2.6 1.144 3.76 3.745 3.76H282v-16.45c0-6.58-2.898-9.917-8.57-9.917zM209.448 35.98a10.78 10.78 0 0 1-7.019 3.305 6.895 6.895 0 0 1-7.301-7.222 6.85 6.85 0 0 1 .354-2.822 6.802 6.802 0 0 1 6.618-4.557c1.316 0 2.82.47 3.055 1.269v.14a2.605 2.605 0 0 0 2.507 1.897h3.838v-3.369c0-4.45-5.656-6.063-9.4-6.063-8.131 0-14.1 5.687-14.1 13.49 0 7.801 5.844 13.504 13.881 13.504a15.1 15.1 0 0 0 10.966-4.888l-2.914-5.123z"/>
    </g>
    <defs>
        <clipPath id="a">
            <path fill="#fff" d="M0 8h282v47H0z"/>
        </clipPath>
    </defs>
</svg>