<svg fill="none" height="34" viewBox="0 0 165 34" width="165" xmlns="http://www.w3.org/2000/svg"><g fill="#3ab54e"><path d="m19.9336 0c3.5146.580643 6.8193 2.53372 8.9176 5.43693.4197.58064.8393 1.21407 1.1541 1.90028-1.3639.95015-2.7278 1.84751-4.0392 2.79769-.2098.1583-.3672.2639-.6295.3695-.6295-1.58361-1.7311-3.00883-3.1474-3.95897-1.0491-.68621-2.2556-1.16129-3.4621-1.42522.3672-1.68914.7868-3.37828 1.2065-5.12021zm-12.69457 1.53079c1.62616-.52786 3.51457.31671 4.19657 1.8475.577 1.16128.4196 2.69207-.3672 3.695-.9967 1.26685-2.88515 1.74193-4.30148 1.00293-.94422-.47508-1.67862-1.37243-1.88844-2.42815-.15737-.79178-.10492-1.63636.31474-2.37536.41965-.84457 1.2065-1.42521 2.04581-1.74192zm-7.23903 17.99991c1.9409-.0528 3.82934 0 5.77024 0 .3672 2.1114 1.25896 4.1173 2.6753 5.7009 1.10159 1.2668 2.51796 2.1642 4.03916 2.7448 2.0983.7918 4.4064.8974 6.6096.3695 1.9933-.475 3.7768-1.5835 5.0883-3.2199.8917-1.1085 1.5737-2.3754 1.9409-3.7478 1.731.4751 3.3572 1.1085 5.0883 1.6364-.0525.5278-.2623 1.0557-.4721 1.5835-1.1541 3.0088-3.3048 5.5953-6.085 7.2317-1.7836 1.0557-3.8294 1.7419-5.8752 2.0058-4.0392.5279-8.2882-.3167-11.69784-2.5865-1.83599-1.214-3.46214-2.8504-4.61619-4.7507-1.36388-2.0058-2.15073-4.434-2.46547-6.9677z"/><path d="m35.8281 14.78c2.4655-4.0117 7.921-5.8592 12.2749-4.0117 1.3639.5279 2.3081 1.6364 3.0949 2.8504-.0524-.9501-.0524-1.9003-.0524-2.9032h5.2457c.1049 7.5484-.2099 15.0967.2098 22.6451h-5.1408c-.0524-1.0557-.1049-2.0587-.1573-3.1144-2.6753 4.8035-9.6521 4.6452-13.429 1.3725-4.6686-4.1173-5.2981-11.7185-2.0458-16.8387zm7.9734.1056c-4.826 1.2141-5.6653 7.7595-3.4621 11.5601 1.6786 3.1143 6.3997 3.7477 8.8127 1.1612 2.413-2.5337 2.6229-6.651 1.2065-9.7653-1.1016-2.4282-4.0391-3.5894-6.5571-2.956zm39.3951-2.5337c3.8293-3.16718 9.7569-3.11439 13.6912-.1056 3.3052 2.6393 4.1962 7.1789 3.8822 11.1906-5.5084.0528-11.0688 0-16.5768 0 .2623 2.217 1.4688 4.4868 3.6196 5.3313 3.0949 1.5308 7.1866.0528 8.2881-3.3255 1.5213.4751 2.9901.9502 4.5111 1.3725-.8391 2.3225-2.3603 4.4867-4.5635 5.7008-4.3015 2.4809-10.2815 1.7419-13.7962-1.8475-4.826-4.8563-4.4588-13.9882.9443-18.3166zm2.4654 4.0645c-.7868.8445-1.0491 2.0058-1.3638 3.0615 3.7244 0 7.5013.1056 11.2257-.1055-.3672-1.3725-.7868-2.8505-1.9933-3.7478-2.2557-1.6892-5.9801-1.478-7.8686.7918zm23.133-4.2757c3.62-2.79762 8.918-2.79762 12.747-.4223 3.777 2.481 5.036 7.4428 4.512 11.7185-5.508-.0528-11.016 0-16.524 0 .262 1.3196.577 2.692 1.469 3.695 1.993 2.4809 5.98 2.956 8.498 1.0557.944-.6862 1.364-1.8475 2.045-2.6921 1.469.3695 2.938.8974 4.407 1.3724-.839 2.3754-2.413 4.5396-4.669 5.7537-4.249 2.3226-10.019 1.6891-13.481-1.7419-5.141-4.9091-4.721-14.4633.996-18.739zm2.099 4.3285c-.735.8445-.997 1.953-1.312 3.0087h11.174c-.263-1.3196-.63-2.7448-1.731-3.695-2.256-1.9002-6.19-1.7419-8.131.6863zm25.441-3.0088c2.99-4.64518 10.911-4.59239 13.429.475 2.413-4.17003 8.446-5.12018 12.223-2.3225 2.045 1.5835 2.99 4.2228 2.99 6.7565.052 4.9619 0 9.9238 0 14.8856h-5.194v-13.3548c0-1.3724-.209-2.8504-1.154-3.8533-1.993-2.0059-5.822-1.478-7.134 1.0557-.682 1.1613-.682 2.5865-.682 3.8533v12.2991h-5.245c-.053-4.8035.052-9.607-.053-14.3577 0-2.1114-1.731-4.0645-3.882-4.0117-2.518-.3695-4.878 1.6891-5.035 4.1701-.158 4.7507 0 9.5014-.053 14.1993h-5.298v-22.6451h5.141c0 1.003 0 1.9531-.053 2.8505zm-73.1245-2.7977h5.2457c0 1.1613-.0524 2.3754-.0524 3.5367 1.4688-2.956 4.8784-4.1701 7.9734-3.7478v5.5425c-1.836-.0528-3.8818-.2639-5.4555.8973-1.6786 1.1085-2.2557 3.2728-2.3081 5.173-.0525 3.7478 0 7.4956-.0525 11.2434h-5.3506z"/></g></svg>