<svg width="165" height="64" viewBox="0 0 165 64" fill="none" xmlns="http://www.w3.org/2000/svg">
<path d="M19.9336 15C23.4482 15.5806 26.7529 17.5337 28.8512 20.4369C29.2709 21.0176 29.6905 21.651 30.0053 22.3372C28.6414 23.2874 27.2775 24.1847 25.9661 25.1349C25.7563 25.2932 25.5989 25.3988 25.3366 25.5044C24.7071 23.9208 23.6055 22.4956 22.1892 21.5454C21.1401 20.8592 19.9336 20.3841 18.7271 20.1202C19.0943 18.4311 19.5139 16.7419 19.9336 15ZM7.23903 16.5308C8.86519 16.0029 10.7536 16.8475 11.4356 18.3783C12.0126 19.5396 11.8552 21.0704 11.0684 22.0733C10.0717 23.3401 8.18325 23.8152 6.76692 23.0762C5.8227 22.6011 5.0883 21.7038 4.87848 20.6481C4.72111 19.8563 4.77356 19.0117 5.19322 18.2727C5.61287 17.4281 6.39972 16.8475 7.23903 16.5308ZM0 34.5307C1.9409 34.4779 3.82934 34.5307 5.77024 34.5307C6.13744 36.6421 7.0292 38.648 8.44554 40.2316C9.54713 41.4984 10.9635 42.3958 12.4847 42.9764C14.583 43.7682 16.8911 43.8738 19.0943 43.3459C21.0876 42.8709 22.8711 41.7624 24.1826 40.126C25.0743 39.0175 25.7563 37.7506 26.1235 36.3782C27.8545 36.8533 29.4807 37.4867 31.2118 38.0146C31.1593 38.5424 30.9495 39.0703 30.7397 39.5981C29.5856 42.6069 27.4349 45.1934 24.6547 46.8298C22.8711 47.8855 20.8253 48.5717 18.7795 48.8356C14.7403 49.3635 10.4913 48.5189 7.08166 46.2491C5.24567 45.0351 3.61952 43.3987 2.46547 41.4984C1.10159 39.4926 0.31474 37.0644 0 34.5307Z" fill="#3AB54E"/>
<path d="M35.8272 29.7803C38.2927 25.7686 43.7482 23.9211 48.1021 25.7686C49.466 26.2965 50.4102 27.405 51.197 28.619C51.1446 27.6689 51.1446 26.7187 51.1446 25.7158H56.3903C56.4952 33.2642 56.1804 40.8125 56.6001 48.3609H51.4593C51.4069 47.3052 51.3544 46.3022 51.302 45.2465C48.6267 50.05 41.6499 49.8917 37.873 46.619C33.2044 42.5017 32.5749 34.9005 35.8272 29.7803ZM43.8006 29.8859C38.9746 31.1 38.1353 37.6454 40.3385 41.446C42.0171 44.5603 46.7382 45.1937 49.1512 42.6072C51.5642 40.0735 51.7741 35.9562 50.3577 32.8419C49.2561 30.4137 46.3186 29.2525 43.8006 29.8859ZM83.1957 27.3522C87.025 24.185 92.9526 24.2378 96.8869 27.2466C100.192 29.8859 101.083 34.4255 100.769 38.4372C95.2607 38.49 89.7003 38.4372 84.1923 38.4372C84.4546 40.6542 85.6611 42.924 87.8119 43.7685C90.9068 45.2993 94.9985 43.8213 96.1 40.443C97.6213 40.9181 99.0901 41.3932 100.611 41.8155C99.772 44.138 98.2508 46.3022 96.0476 47.5163C91.7461 49.9972 85.7661 49.2582 82.2514 45.6688C77.4254 40.8125 77.7926 31.6806 83.1957 27.3522ZM85.6611 31.4167C84.8743 32.2612 84.612 33.4225 84.2973 34.4782C88.0217 34.4782 91.7986 34.5838 95.523 34.3727C95.1558 33.0002 94.7362 31.5222 93.5297 30.6249C91.274 28.9357 87.5496 29.1469 85.6611 31.4167ZM108.794 27.141C112.414 24.3434 117.712 24.3434 121.541 26.7187C125.318 29.1997 126.577 34.1615 126.053 38.4372C120.545 38.3844 115.037 38.4372 109.529 38.4372C109.791 39.7568 110.106 41.1292 110.998 42.1322C112.991 44.6131 116.978 45.0882 119.496 43.1879C120.44 42.5017 120.86 41.3404 121.541 40.4958C123.01 40.8653 124.479 41.3932 125.948 41.8682C125.109 44.2436 123.535 46.4078 121.279 47.6219C117.03 49.9445 111.26 49.311 107.798 45.88C102.657 40.9709 103.077 31.4167 108.794 27.141ZM110.893 31.4695C110.158 32.314 109.896 33.4225 109.581 34.4782H120.755C120.492 33.1586 120.125 31.7334 119.024 30.7832C116.768 28.883 112.834 29.0413 110.893 31.4695ZM136.334 28.4607C139.324 23.8155 147.245 23.8683 149.763 28.9357C152.176 24.7657 158.209 23.8155 161.986 26.6132C164.031 28.1967 164.976 30.836 164.976 33.3697C165.028 38.3316 164.976 43.2935 164.976 48.2553H159.782V34.9005C159.782 33.5281 159.573 32.0501 158.628 31.0472C156.635 29.0413 152.806 29.5692 151.494 32.1029C150.812 33.2642 150.812 34.6894 150.812 35.9562V48.2553H145.567C145.514 43.4518 145.619 38.6483 145.514 33.8976C145.514 31.7862 143.783 29.8331 141.632 29.8859C139.114 29.5164 136.754 31.575 136.597 34.056C136.439 38.8067 136.597 43.5574 136.544 48.2553H131.246V25.6102H136.387C136.387 26.6132 136.387 27.5633 136.334 28.4607ZM63.2096 25.663H68.4553C68.4553 26.8243 68.4029 28.0384 68.4029 29.1997C69.8717 26.2437 73.2813 25.0296 76.3763 25.4519V30.9944C74.5403 30.9416 72.4945 30.7305 70.9208 31.8917C69.2422 33.0002 68.6651 35.1645 68.6127 37.0647C68.5602 40.8125 68.6127 44.5603 68.5602 48.3081H63.2096V25.663Z" fill="#3AB54E"/>
</svg>
