<svg fill="none" height="54" viewBox="0 0 203 54" width="203" xmlns="http://www.w3.org/2000/svg" xmlns:xlink="http://www.w3.org/1999/xlink"><linearGradient id="a" gradientUnits="userSpaceOnUse" x1="0" x2="44.9838" y1="27.1123" y2="27.1123"><stop offset="0" stop-color="#00c244"/><stop offset="1" stop-color="#00d64b"/></linearGradient><g fill="#1c1d1f"><path d="m81.4811 22.1172c-.3645.206-.833.1545-1.0934-.206-1.3537-1.8024-3.1759-2.7293-5.4668-2.7293-4.1651 0-6.7163 3.2443-6.7163 7.9305 0 4.7377 2.6032 7.9819 6.7684 7.9819 2.4991 0 4.2693-1.1329 5.4668-2.8323.2603-.3604.7289-.4634 1.0934-.2575l1.9784 1.133c.4165.2575.5207.8239.2603 1.1844-2.0826 2.8838-4.9982 4.5317-8.851 4.5317-6.6642 0-11.1938-4.7892-11.1938-11.7412 0-6.9006 4.5296-11.6898 11.0897-11.6898 3.5404 0 6.6643 1.3904 8.7989 4.3257.3124.412.2083.927-.2082 1.1845z"/><path d="m96.0075 37.5662v-.927c-1.0413 1.339-2.4991 2.1629-4.842 2.1629-3.4362 0-5.8833-1.8539-5.8833-5.1497 0-4.0682 3.6966-4.7892 5.9354-5.0981 2.447-.3605 4.5296-.515 4.5296-2.1114 0-1.3904-1.614-1.7509-3.0197-1.7509-1.4058 0-3.1239.412-4.5297 1.1329-.4165.206-.9371.0515-1.1454-.3604l-.7289-1.4419c-.2082-.412-.052-.8755.3645-1.0815 1.7181-.9269 4.061-1.5964 6.4039-1.5964 3.9569 0 6.7684 1.5964 6.7684 5.5102v10.7628c0 .4635-.3644.8239-.833.8239h-2.1867c-.4165-.0515-.8331-.4119-.8331-.8754zm-.2082-7.4155c-.781.5664-2.1867.7724-3.6966 1.0299-1.4578.309-2.7594.6695-2.7594 2.2659 0 1.4934 1.0933 2.1628 2.6553 2.1628 1.9784 0 3.8007-1.0814 3.8007-3.5533z"/><path d="m103.504 34.1674c.313-.3605.781-.3605 1.146-.103 1.406 1.133 3.176 1.5449 4.842 1.5449 1.77 0 3.124-.5664 3.124-1.9568 0-1.2875-1.198-1.5449-4.165-2.0084-3.124-.515-6.092-1.5449-6.092-5.0467 0-3.6563 3.176-5.2012 6.873-5.2012 2.759 0 4.894.927 6.351 2.0599.365.309.417.824.105 1.1844l-1.042 1.1845c-.312.3089-.781.4119-1.145.1544-1.041-.8239-2.707-1.3904-4.426-1.3904-1.562 0-2.863.4635-2.863 1.6479 0 1.3389 1.874 1.5964 3.801 1.9054 4.009.721 6.612 1.8539 6.612 5.1497 0 3.5018-2.812 5.6131-7.289 5.6131-2.708 0-5.051-.7724-6.769-2.1628-.364-.309-.416-.824-.104-1.1845z"/><path d="m118.968 37.5662v-20.9592c0-.4634.364-.8239.833-.8239h2.395c.468 0 .833.3605.833.8239v7.1581c1.093-1.4934 2.915-2.4719 5.154-2.4719 3.54 0 5.623 2.5234 5.623 6.0766v10.1964c0 .4635-.365.8239-.833.8239h-2.395c-.469 0-.833-.3604-.833-.8239v-9.2694c0-1.7509-.573-3.3988-2.864-3.3988-2.186 0-3.852 1.5449-3.852 4.0682v8.6c0 .4635-.365.8239-.833.8239h-2.395c-.417 0-.833-.3604-.833-.8239z"/><path d="m160.255 37.8751-1.719-5.0467h-8.746l-1.719 5.0467c-.104.3604-.416.5664-.781.5664h-2.811c-.573 0-.989-.5664-.781-1.1329l7.862-20.9592c.104-.3089.416-.5149.781-.5149h3.853c.364 0 .676.206.78.5149l7.81 20.9592c.208.515-.208 1.1329-.781 1.1329h-2.967c-.365-.0515-.677-.2575-.781-.5664zm-6.04-18.3844-3.384 9.8359h6.612z"/><path d="m170.824 22.529v1.2874c1.197-1.6994 3.124-2.5233 5.206-2.5233 4.634 0 7.602 3.7592 7.602 8.7029 0 4.9952-2.968 8.7545-7.602 8.7545-2.134 0-4.009-.824-5.206-2.5234v6.8491c0 .4635-.364.8239-.833.8239h-2.395c-.469 0-.833-.3604-.833-.8239v-20.5987c0-.4635.364-.8239.833-.8239h2.395c.469.0515.833.4119.833.8754zm4.373 12.7712c2.812 0 4.218-2.3689 4.218-5.2527 0-2.8323-1.354-5.2011-4.218-5.2011-2.863 0-4.373 2.3173-4.373 5.2011s1.51 5.2527 4.373 5.2527z"/><path d="m190.192 22.529v1.2874c1.197-1.6994 3.124-2.5233 5.206-2.5233 4.634 0 7.602 3.7592 7.602 8.7029 0 4.9952-2.968 8.7545-7.602 8.7545-2.134 0-4.009-.824-5.206-2.5234v6.8491c0 .4635-.365.8239-.833.8239h-2.395c-.469 0-.833-.3604-.833-.8239v-20.5987c0-.4635.364-.8239.833-.8239h2.395c.468.0515.833.4119.833.8754zm4.373 12.7712c2.812 0 4.218-2.3689 4.218-5.2527 0-2.8323-1.354-5.2011-4.218-5.2011-2.863 0-4.373 2.3173-4.373 5.2011s1.51 5.2527 4.373 5.2527z"/></g><path d="m15.6715 4.86572c-4.5297 0-6.76845 0-9.21549.77245-2.65529.97844-4.73788 3.03831-5.727105 5.66463-.728905 2.3689-.728905 4.5832-.728905 9.0634v13.4922c0 4.4802 0 6.6945.780969 9.1149.989231 2.6263 3.071811 4.6862 5.727111 5.6646 2.44704.7725 4.68582.7725 9.21542.7725h13.641c4.5296 0 6.7684 0 9.2154-.7725 2.6553-.9784 4.7379-3.0383 5.7271-5.6646.781-2.4204.781-4.6347.781-9.1149v-13.4922c0-4.4802 0-6.6945-.781-9.1149-.9892-2.62632-3.0718-4.68619-5.7271-5.66462-2.4991-.72096-4.7379-.72096-9.2675-.72096z" fill="url(#a)"/><path d="m23.6375 19.4393c2.3429 0 4.5817.927 6.0395 2.2144.3645.309.9372.309 1.2496 0l1.7181-1.7509c.3645-.3605.3645-.9784-.0521-1.2874-1.1454-.9784-2.7073-1.9569-4.6337-2.5748l.5206-2.5234c.1042-.5664-.3124-1.0814-.8851-1.0814h-3.3321c-.4165 0-.781.309-.8851.7209l-.4686 2.2144c-4.4775.206-8.2262 2.4203-8.2262 6.8491 0 3.8622 3.1239 5.5101 6.404 6.6945 3.1238 1.133 4.7899 1.5964 4.7899 3.1928 0 1.6479-1.6661 2.6264-4.061 2.6264-2.2388 0-4.5297-.721-6.3519-2.4719-.3645-.3605-.9372-.3605-1.2496 0l-1.8743 1.8024c-.3645.3605-.3645.9269 0 1.2874 1.4057 1.4419 3.228 2.4204 5.3627 2.9868l-.5207 2.3689c-.1041.5664.3124 1.0814.8851 1.0814h3.3842c.4165 0 .833-.309.8851-.7209l.4686-2.2659c5.3626-.309 8.5907-3.1413 8.5907-7.3125 0-3.8108-3.2801-5.4587-7.185-6.7461-2.2387-.8239-4.2172-1.3389-4.2172-3.0383 0-1.5964 1.8223-2.2659 3.6445-2.2659z" fill="#fff"/></svg>