<svg width="190" height="64" viewBox="0 0 190 64" fill="none" xmlns="http://www.w3.org/2000/svg">
<g clip-path="url(#clip0_657_7470)">
<path d="M68.8455 28.7813C68.6701 28.8909 68.4509 28.9348 68.2536 28.8909C68.0562 28.8471 67.8589 28.7375 67.7493 28.5621C67.1354 27.6851 66.3242 26.9835 65.3814 26.5011C64.4386 26.0188 63.3643 25.7776 62.3119 25.8214C58.1681 25.8214 55.6029 29.1102 55.6029 33.8021C55.6029 38.4941 58.19 41.8486 62.3558 41.8486C63.4301 41.8705 64.5044 41.6293 65.4691 41.1251C66.4338 40.6208 67.245 39.8753 67.837 38.9764C67.9466 38.801 68.122 38.6914 68.3413 38.6475C68.5386 38.6037 68.7578 38.6256 68.9332 38.7352L70.9065 39.8753C71.0161 39.9192 71.1038 40.0069 71.1915 40.0946C71.2792 40.1823 71.3231 40.2919 71.345 40.4235C71.3669 40.5331 71.3669 40.6646 71.345 40.7743C71.3231 40.8839 71.2792 41.0154 71.2134 41.1031C70.2487 42.5502 68.9332 43.7341 67.3985 44.5234C65.8637 45.3127 64.1317 45.7074 62.3996 45.6635C55.7563 45.6635 51.2617 40.84 51.2617 33.8241C51.2617 26.8081 55.7563 22.0503 62.3119 22.0503C64.0221 22.0065 65.7103 22.3792 67.245 23.1247C68.7798 23.892 70.0953 25.0102 71.1038 26.3915C71.1696 26.4792 71.2134 26.5888 71.2573 26.6984C71.2792 26.8081 71.2792 26.9177 71.2573 27.0492C71.2354 27.1589 71.1915 27.2685 71.1257 27.3781C71.06 27.4877 70.9723 27.5535 70.8846 27.6193L68.8455 28.7813Z" fill="white"/>
<path fill-rule="evenodd" clip-rule="evenodd" d="M83.3556 43.4274V44.3921C83.3556 44.5017 83.3776 44.6113 83.4214 44.7209C83.4653 44.8306 83.531 44.9183 83.6187 44.984C83.7064 45.0717 83.7941 45.1156 83.9038 45.1594C84.0134 45.2033 84.123 45.2252 84.2326 45.2033H86.4032C86.5128 45.2033 86.6225 45.1814 86.7102 45.1375C86.8198 45.0937 86.9075 45.0279 86.9733 44.9621C87.061 44.8744 87.1048 44.7867 87.1487 44.699C87.1925 44.5894 87.2144 44.4798 87.2144 44.3921V33.5392C87.2144 29.6146 84.43 27.9922 80.4615 27.9922C78.2471 27.9922 76.0546 28.5403 74.0814 29.5927C73.884 29.7023 73.7525 29.8777 73.6867 30.0751C73.621 30.2724 73.6429 30.4916 73.7306 30.689L74.4322 32.1799C74.476 32.2895 74.5418 32.3772 74.6295 32.443C74.7172 32.5087 74.8049 32.5745 74.9145 32.5964C75.0242 32.6403 75.1338 32.6403 75.2434 32.6403C75.353 32.6403 75.4626 32.5964 75.5503 32.5526C76.9535 31.8291 78.5102 31.4344 80.0888 31.4125C81.4701 31.4125 83.0925 31.7852 83.0925 33.1884C83.0925 34.6574 81.3166 34.9205 79.1241 35.2274C78.9487 35.2494 78.7733 35.2713 78.5979 35.2932C76.3396 35.6002 72.6562 36.3237 72.6562 40.4236C72.6562 43.7343 75.0461 45.6199 78.4883 45.6199C80.8781 45.5979 82.3252 44.7648 83.3556 43.4274ZM79.9573 37.8365C81.2728 37.5953 82.4567 37.398 83.1364 36.8937V38.8231C83.1364 41.3445 81.3166 42.4407 79.3653 42.4407C77.7867 42.4407 76.7124 41.7391 76.7124 40.2482C76.7124 38.6258 77.9621 38.2092 79.453 37.9461C79.6284 37.9023 79.8038 37.8584 79.9573 37.8365Z" fill="white"/>
<path d="M90.7921 40.9266C90.9236 40.7731 91.1209 40.6635 91.3402 40.6415C91.5594 40.6196 91.7787 40.6854 91.9322 40.8169C93.3134 41.8693 95.0236 42.4175 96.7556 42.3736C98.5535 42.3736 99.869 41.8036 99.869 40.4004C99.869 39.1287 98.6631 38.8656 95.7252 38.3613C92.6118 37.8351 89.63 36.8047 89.63 33.2528C89.63 29.5475 92.8311 27.9908 96.4706 27.9908C98.7508 27.947 100.987 28.6924 102.807 30.0737C102.895 30.1395 102.96 30.2272 103.026 30.3368C103.07 30.4464 103.114 30.5341 103.114 30.6657C103.114 30.7753 103.114 30.8849 103.07 30.9945C103.026 31.1042 102.982 31.1919 102.895 31.2796L101.864 32.5074C101.733 32.6608 101.535 32.7705 101.316 32.7924C101.097 32.8143 100.899 32.7485 100.724 32.6389C99.4524 31.6961 97.8957 31.2138 96.3171 31.2357C94.7824 31.2357 93.445 31.6742 93.445 32.902C93.445 34.2394 95.3305 34.5025 97.2161 34.8314C101.228 35.533 103.794 36.6731 103.794 40.0276C103.794 43.5356 100.987 45.7062 96.5364 45.7062C94.1027 45.772 91.7129 45.0046 89.7835 43.5137C89.6958 43.4479 89.63 43.3602 89.5643 43.2506C89.5204 43.1629 89.4766 43.0533 89.4766 42.9436C89.4766 42.834 89.4766 42.7244 89.5204 42.6148C89.5643 42.5051 89.6081 42.4174 89.6739 42.3297L90.7921 40.9266ZM106.249 44.3907V23.255C106.249 23.1454 106.271 23.0358 106.315 22.9262C106.359 22.8165 106.425 22.7288 106.49 22.6631C106.578 22.5754 106.666 22.5315 106.753 22.4877C106.863 22.4438 106.973 22.4219 107.06 22.4219H109.45C109.911 22.4219 110.283 22.7946 110.283 23.255V30.4683C110.875 29.679 111.665 29.0432 112.542 28.6047C113.441 28.1662 114.427 27.9689 115.414 27.9908C118.944 27.9908 121.027 30.5122 121.027 34.1079V44.3907C121.027 44.5003 121.005 44.6099 120.961 44.6976C120.917 44.8073 120.851 44.895 120.785 44.9607C120.698 45.0484 120.61 45.0923 120.522 45.1361C120.413 45.18 120.303 45.2019 120.215 45.2019H117.826C117.606 45.2019 117.387 45.1142 117.234 44.9607C117.08 44.8073 116.992 44.588 116.992 44.3688V35.0287C116.992 33.2309 116.422 31.6084 114.12 31.6084C111.95 31.6084 110.283 33.1432 110.283 35.6865V44.3688C110.283 44.588 110.196 44.8073 110.042 44.9607C109.889 45.1142 109.669 45.2019 109.45 45.2019H107.06C106.951 45.2019 106.841 45.18 106.732 45.1361C106.622 45.0923 106.534 45.0265 106.468 44.9607C106.381 44.873 106.337 44.7853 106.293 44.6976C106.271 44.6099 106.249 44.5003 106.249 44.3907Z" fill="white"/>
<path fill-rule="evenodd" clip-rule="evenodd" d="M145.668 39.5687L147.4 44.6553C147.444 44.8307 147.554 44.9623 147.685 45.0719C147.817 45.1815 147.992 45.2254 148.168 45.2473H151.128C151.259 45.2473 151.391 45.2254 151.522 45.1596C151.632 45.0938 151.741 45.0061 151.829 44.8965C151.917 44.7869 151.961 44.6553 151.983 44.5238C152.005 44.3922 151.983 44.2607 151.939 44.1291L144.133 22.9934C144.068 22.84 143.958 22.6865 143.827 22.5988C143.695 22.5111 143.52 22.4453 143.344 22.4453H139.507C139.332 22.4453 139.178 22.4892 139.047 22.5769C138.915 22.6646 138.806 22.7961 138.74 22.9496L130.869 44.1072C130.825 44.2387 130.803 44.3703 130.825 44.5018C130.847 44.6334 130.891 44.7649 130.957 44.8746C131.022 44.9842 131.132 45.0719 131.264 45.1377C131.373 45.2034 131.505 45.2254 131.636 45.2254H134.443C134.618 45.2254 134.793 45.1815 134.925 45.0719C135.057 44.9623 135.166 44.8307 135.232 44.6553L136.964 39.5687H145.668ZM138.016 36.0169L141.371 26.1287L144.594 36.0169H138.016ZM157.924 30.5137V29.1982C157.924 29.0886 157.902 28.979 157.88 28.8693C157.837 28.7597 157.771 28.672 157.705 28.5843C157.617 28.4966 157.53 28.4308 157.42 28.387C157.31 28.3431 157.201 28.3212 157.091 28.3212H154.701C154.241 28.3212 153.868 28.6939 153.868 29.1544V49.9173C153.868 50.3777 154.241 50.7505 154.701 50.7505H157.091C157.552 50.7505 157.924 50.3777 157.924 49.9173V43.0329C158.516 43.866 159.284 44.5238 160.204 44.9623C161.103 45.4008 162.112 45.62 163.12 45.5762C167.703 45.5762 170.685 41.7393 170.685 36.7623C170.685 31.7854 167.725 27.9923 163.12 27.9923C162.112 27.9485 161.103 28.1677 160.204 28.6062C159.306 29.0228 158.516 29.6806 157.924 30.5137ZM166.431 36.7623C166.431 39.6564 165.094 42.0682 162.287 42.0682C159.437 42.0682 157.946 39.6783 157.946 36.7623C157.946 33.8463 159.503 31.5223 162.287 31.5223C165.072 31.5223 166.431 33.8682 166.431 36.7623ZM177.24 30.5137V29.1982C177.24 29.0886 177.24 28.979 177.196 28.8693C177.152 28.7597 177.087 28.672 177.021 28.5843C176.933 28.4966 176.846 28.4308 176.736 28.387C176.626 28.3431 176.517 28.3212 176.407 28.3212H174.017C173.798 28.3212 173.579 28.4089 173.425 28.5624C173.272 28.7159 173.184 28.9351 173.184 29.1544V49.9173C173.184 50.3777 173.557 50.7505 174.017 50.7505H176.407C176.867 50.7505 177.24 50.3777 177.24 49.9173V43.0329C177.832 43.866 178.6 44.5238 179.52 44.9623C180.419 45.4008 181.428 45.62 182.436 45.5762C187.041 45.5762 190.001 41.7393 190.001 36.7623C190.001 31.7854 187.041 27.9923 182.436 27.9923C181.428 27.9485 180.419 28.1677 179.52 28.6062C178.621 29.0228 177.832 29.6806 177.24 30.5137ZM185.747 36.7623C185.747 39.6564 184.41 42.0682 181.603 42.0682C178.753 42.0682 177.262 39.6783 177.262 36.7623C177.262 33.8463 178.819 31.5223 181.603 31.5223C184.366 31.5223 185.747 33.8682 185.747 36.7623Z" fill="white"/>
<path fill-rule="evenodd" clip-rule="evenodd" d="M29.2041 11C33.7206 11 35.957 11 38.4126 11.7674C39.728 12.2497 40.912 12.9952 41.8986 13.9818C42.8852 14.9684 43.6526 16.1524 44.113 17.4679C44.8804 19.9015 44.8804 22.1379 44.8804 26.6544V40.2041C44.8804 44.6987 44.8804 46.957 44.113 49.3906C43.6307 50.7061 42.8852 51.8901 41.8986 52.8767C40.912 53.8633 39.728 54.6307 38.4126 55.0911C35.9789 55.8585 33.7425 55.8585 29.226 55.8585H15.6325C11.1379 55.8585 8.87961 55.8585 6.44594 55.0911C5.13044 54.6088 3.9465 53.8633 2.95987 52.8767C1.97325 51.8901 1.20587 50.7061 0.745449 49.3906C0 46.957 0 44.7425 0 40.2041V26.6325C0 22.1379 0 19.8796 0.767374 17.4459C1.24972 16.1304 1.99517 14.9465 2.9818 13.9599C3.96842 12.9732 5.15237 12.2059 6.46787 11.7454C8.87961 11 11.1379 11 15.6325 11H29.2041Z" fill="#00D54B"/>
<path d="M23.5701 25.7122C25.7845 25.7122 27.9112 26.5015 29.5995 27.9266C29.7749 28.0801 29.9941 28.1678 30.2353 28.1678C30.4764 28.1678 30.6957 28.0582 30.8711 27.9047L32.6032 26.1726C32.6909 26.0849 32.7566 25.9753 32.8005 25.8657C32.8443 25.756 32.8663 25.6245 32.8663 25.5149C32.8663 25.3833 32.8224 25.2737 32.7786 25.1641C32.7347 25.0544 32.647 24.9448 32.5593 24.879C31.2 23.717 29.6214 22.84 27.9332 22.2919L28.4594 19.7267C28.4813 19.5951 28.4813 19.4636 28.4594 19.332C28.4374 19.2005 28.3717 19.0908 28.284 18.9812C28.1963 18.8716 28.0866 18.7839 27.977 18.74C27.8455 18.6743 27.7139 18.6523 27.5824 18.6523H24.2498C24.0524 18.6523 23.8332 18.7181 23.6797 18.8497C23.5262 18.9812 23.4166 19.1566 23.3508 19.3539L22.8904 21.6341C18.4396 21.8534 14.6685 24.0459 14.6685 28.5624C14.6685 32.4651 17.7819 34.1314 21.0706 35.3153C24.184 36.4773 25.8284 36.8939 25.8284 38.5383C25.8284 40.1607 24.184 41.1912 21.7503 41.1912C19.4043 41.2351 17.1241 40.3361 15.414 38.7137C15.2386 38.5383 15.0193 38.4506 14.7782 38.4506C14.537 38.4506 14.3177 38.5383 14.1423 38.7137L12.2787 40.5335C12.191 40.6212 12.1252 40.7089 12.0814 40.8185C12.0375 40.9281 12.0156 41.0597 12.0156 41.1693C12.0156 41.3008 12.0375 41.4105 12.0814 41.5201C12.1252 41.6297 12.191 41.7393 12.2787 41.8051C13.7915 43.2302 15.6332 44.2388 17.6503 44.7431L17.1241 47.111C17.1022 47.2425 17.1022 47.3741 17.1241 47.5056C17.1461 47.6372 17.2118 47.7687 17.2995 47.8564C17.3872 47.966 17.4969 48.0537 17.6065 48.1195C17.738 48.1853 17.8696 48.2072 18.0011 48.2072H21.3557C21.553 48.2072 21.7722 48.1414 21.9257 48.0099C22.0792 47.8783 22.2107 47.7029 22.2546 47.4837L22.7369 45.2254C28.0647 44.8965 31.3096 42.0244 31.3096 37.8367C31.3096 33.9779 28.0647 32.3555 24.1182 31.018C21.8599 30.163 19.9086 29.6148 19.9086 27.9485C19.9305 26.3042 21.7503 25.7122 23.5701 25.7122Z" fill="white"/>
</g>
<defs>
<clipPath id="clip0_657_7470">
<rect width="190" height="64" fill="white"/>
</clipPath>
</defs>
</svg>
