<svg width="162" height="64" viewBox="0 0 162 64" fill="none" xmlns="http://www.w3.org/2000/svg">
<path fill-rule="evenodd" clip-rule="evenodd" d="M66.3739 42.1569C66.3591 42.1811 64.8411 44.5731 61.4596 44.5731C58.6932 44.5731 55.8927 42.5895 55.8927 38.7982C55.8927 35.0072 58.6932 33.0236 61.4596 33.0236C64.4461 33.0236 66.0658 35.0355 66.1318 35.1195L66.5113 35.6079L71.2048 31.4061L70.8812 30.9792C70.7477 30.8031 67.5427 26.6689 61.4596 26.6689C54.5299 26.6689 49.1016 31.9966 49.1016 38.7982C49.1016 45.5998 54.5299 50.9276 61.4596 50.9276C67.5898 50.9276 70.8396 46.7029 70.975 46.5229L71.276 46.1231L66.7606 41.5317L66.3739 42.1569Z" fill="#274AFC"/>
<path fill-rule="evenodd" clip-rule="evenodd" d="M86.4541 26.656C83.7323 26.656 82.0506 27.8701 80.8983 28.8648V14.0713H74.2148V50.2584H80.8983V35.4617C81.1287 34.9646 82.5408 33.0119 84.7009 33.0119C86.1038 33.0119 88.5036 33.5213 88.5036 36.9322V50.2584H95.187V35.5403C95.187 32.8827 94.22 30.6157 92.5199 28.9849C90.9548 27.4829 88.7562 26.656 86.4541 26.656Z" fill="#274AFC"/>
<path fill-rule="evenodd" clip-rule="evenodd" d="M114.824 35.6604V41.936C114.594 42.4685 113.025 44.5732 110.221 44.5732C106.956 44.5732 104.752 42.2523 104.752 38.7981C104.752 35.3443 106.961 33.0237 110.226 33.0237C113.032 33.0237 114.594 35.1307 114.824 35.6604ZM115.285 29.0783C114.133 28.007 112.19 26.6689 109.23 26.6689C102.941 26.6689 97.9922 31.9968 97.9922 38.7981C97.9922 45.5997 102.952 50.9276 109.241 50.9276C112.246 50.9276 114.133 49.6246 115.285 48.5576V50.2666H121.503V27.3064H115.285V29.0783Z" fill="#274AFC"/>
<path fill-rule="evenodd" clip-rule="evenodd" d="M126.713 50.2584H133.391V14.0713H126.713V50.2584Z" fill="#274AFC"/>
<path fill-rule="evenodd" clip-rule="evenodd" d="M151.237 38.1813L161.371 27.2934H152.648L145.821 34.9681V14.0713H139.135V50.2584H145.821V41.7237L153.148 50.2584H161.978L151.237 38.1813Z" fill="#274AFC"/>
<path fill-rule="evenodd" clip-rule="evenodd" d="M14.2951 12.2072C16.5642 11.4056 18.9652 11 21.3696 11C21.5549 11 21.7395 11.0022 21.9249 11.007C24.3191 11.0685 26.6984 11.5345 28.9376 12.3888C31.1036 13.2148 33.1302 14.3996 34.9196 15.8794C36.698 17.3492 38.2364 19.1075 39.4618 21.0682C40.7068 23.0589 41.6177 25.2551 42.1552 27.5447C42.7407 30.039 42.8663 32.6386 42.5537 35.1819C42.22 37.8908 41.3458 40.5281 40.0321 42.9163C38.749 45.2488 36.8056 47.3348 34.9546 49.0177V38.1601C34.6699 38.1979 34.1056 38.2335 33.6585 38.267C32.0545 38.3875 30.4954 38.4945 28.8853 38.4727C27.5886 38.4546 26.29 38.3696 25.003 38.2074C23.6463 38.0364 22.3153 37.8102 21.0205 37.3538C19.8817 36.9528 18.7878 36.411 17.7806 35.7423C16.9438 35.1869 16.1506 34.5495 15.4457 33.8327C14.4299 32.7996 13.5101 31.5151 12.3842 30.5796C12.0504 30.3025 10.9769 29.8735 9.92888 30.0983C9.1173 30.2726 8.01255 30.5816 7.52646 32.1838C7.47169 32.3645 7.27709 32.7685 7.23136 33.283C7.12209 34.5126 7.33125 48.771 7.24155 48.6918C5.24236 46.9271 3.61977 44.7892 2.39386 42.4138C1.13562 39.9755 0.352798 37.2969 0.0957974 34.5613C-0.140984 32.0383 0.0611983 29.4742 0.702062 27.0232C1.29566 24.7531 2.26329 22.5852 3.55313 20.629C4.82603 18.6997 6.4079 16.9794 8.22015 15.5534C10.048 14.1158 12.1065 12.9793 14.2951 12.2072ZM14.7647 28.3235C15.1071 28.636 15.5851 29.2744 15.858 29.6495C16.0687 29.9402 16.7906 30.9874 16.9546 31.1756C18.2223 32.635 19.8386 33.7734 21.6353 34.4715C24.3017 35.507 27.31 35.5657 30.0802 34.9438C32.49 34.4026 34.7476 33.2017 36.3104 31.2438C34.7459 31.821 33.0443 31.9456 31.4191 31.5652C30.6604 31.388 29.9283 31.1084 29.2353 30.752C28.6151 30.4327 28.0126 30.0683 27.5056 29.5832C26.5 28.6222 25.792 27.348 25.3267 26.0441C25.0673 25.3161 24.4793 23.1997 23.4201 21.89C22.4545 20.6961 21.129 19.8226 19.7197 19.2348C18.2791 18.6371 16.6982 18.367 15.1444 18.521C13.5614 18.6774 11.9778 19.1978 10.6659 20.0974C9.37971 20.9797 8.40468 22.2944 7.84113 23.7588C7.27046 25.2445 7.21251 27.1637 7.36301 28.7392C7.98294 27.8035 9.46756 26.8463 11.7696 27.0065C12.7682 27.076 13.8291 27.4693 14.7647 28.3235ZM35.0446 28.9548C35.0446 28.9125 35.0916 25.8004 35.0836 25.5905C35.0836 25.5905 34.9781 24.6318 34.4902 24.116C33.693 23.2725 31.71 23.4813 31.3669 23.4813H27.4319C27.4319 23.4813 27.8244 25.5817 28.5518 26.6828C29.798 28.5685 31.0571 28.7958 31.4448 28.9255C33.384 29.5758 35.0446 28.9548 35.0446 28.9548Z" fill="#274AFC"/>
<path fill-rule="evenodd" clip-rule="evenodd" d="M18.387 43.0396C18.387 41.7804 17.117 40.8647 15.9322 41.2717C14.7574 41.6755 14.3019 43.1675 15.0512 44.1648C15.5291 44.8009 16.3807 45.0652 17.1312 44.8073C17.874 44.5522 18.387 43.8294 18.387 43.0396Z" fill="#274AFC"/>
<path fill-rule="evenodd" clip-rule="evenodd" d="M26.351 41.1719C25.1008 41.1719 24.1907 42.4506 24.5953 43.6431C24.9967 44.8258 26.478 45.284 27.4691 44.5301C28.1012 44.0491 28.3642 43.1918 28.1079 42.4358C27.8537 41.6879 27.1358 41.1719 26.351 41.1719Z" fill="#274AFC"/>
<path d="M16.1723 52.5681C17.939 53.4883 19.8268 53.9273 21.8158 53.8811C23.8013 53.8349 25.6821 53.31 27.44 52.3126C28.098 51.9393 28.3357 51.0909 27.9709 50.4175C27.6061 49.7442 26.777 49.501 26.1191 49.8743C24.7456 50.6535 23.2966 51.0579 21.7539 51.0938C20.2148 51.1296 18.7728 50.7942 17.4081 50.0834C16.7376 49.7342 15.9174 50.0074 15.5762 50.6935C15.235 51.3796 15.5019 52.2189 16.1723 52.5681Z" fill="#274AFC"/>
</svg>
