<svg width="21" height="24" viewBox="0 0 21 24" fill="none" xmlns="http://www.w3.org/2000/svg">
<path d="M20.6854 6V18L10.5004 24L0.31543 18V6L10.5004 0L20.6854 6Z" fill="#6075F2"/>
<path d="M14.49 9.64286V14.3571L10.5 16.7143V24L20.685 18V6L14.49 9.64286Z" fill="#6B57FF"/>
<path d="M10.5004 16.7143L6.51043 14.3571V9.64286L0.31543 6V18L10.5004 24V16.7143Z" fill="url(#paint0_radial_80_13869)"/>
<path d="M6.51043 9.64286L10.5004 7.28571L14.4904 9.64286L20.6854 6L10.5004 0L0.31543 6L6.51043 9.64286Z" fill="url(#paint1_linear_80_13869)"/>
<path d="M10.4999 7.28613L14.5009 9.64328V14.3576L10.4999 16.7147L6.49885 14.3576V9.64328L10.4999 7.28613Z" fill="black"/>
<defs>
<radialGradient id="paint0_radial_80_13869" cx="0" cy="0" r="1" gradientUnits="userSpaceOnUse" gradientTransform="translate(6.77528 6.18908) scale(17.6952 18.0565)">
<stop stop-color="#5383EC"/>
<stop offset="0.86699" stop-color="#7F52FF"/>
</radialGradient>
<linearGradient id="paint1_linear_80_13869" x1="15.6126" y1="0.161416" x2="4.35891" y2="12.6466" gradientUnits="userSpaceOnUse">
<stop stop-color="#33C3FF"/>
<stop offset="0.87843" stop-color="#5383EC"/>
</linearGradient>
</defs>
</svg>
