<svg width="108" height="64" viewBox="0 0 108 64" fill="none" xmlns="http://www.w3.org/2000/svg">
<path d="M100.792 46.0308C96.5388 50.0655 86.3938 49.2078 86.3938 41.25C86.3938 32.8659 95.2066 32.2208 100.737 32.7273C100.737 32.7172 100.737 32.7071 100.737 32.697C100.532 28.3099 93.2156 29.3904 90.295 31.7195C89.3809 30.4101 87.8325 28.0758 87.1973 27.0204C90.5589 24.4329 98.7671 22.5468 102.972 24.9277C107.176 27.3083 107.999 31.4729 108 33.592V33.6175V50V47.8154H100.987L100.792 46.0308ZM73.1984 45.8377C65.7353 51.7422 58.0829 46.1364 57.1277 38.5402C55.9382 29.0795 63.4575 21.5654 73.1375 24.8397V15H80.5158V47.8154H73.414L73.1984 45.8377ZM73.1375 37.8663V31.2962C69.9402 29.8427 65.0024 29.7889 64.5536 36.385C64.0938 43.1437 72.5607 43.8299 73.1375 37.8663ZM44.8167 26.9768C46.9761 24.3448 50.0476 23.5859 54.0316 24.7006C53.4323 27.9912 53.0206 30.2147 52.7961 31.3709C47.0543 30.3722 44.9408 32.0946 44.9154 37.0967V37.2814C44.9154 37.2929 44.9156 37.3043 44.9156 37.3156C44.9156 37.3185 44.9154 37.3214 44.9154 37.3242V47.8469H37.5371V24.6065H44.6387L44.8167 26.9768ZM19.0452 26.4232C17.0318 27.9024 15.4931 29.9987 14.7025 32.436C13.9411 31.877 13.0036 31.5472 11.9897 31.5472C9.44288 31.5472 7.37828 33.6282 7.37828 36.1952C7.37828 38.7623 9.44288 40.8434 11.9897 40.8434C13.0036 40.8434 13.9411 40.5136 14.7025 39.9544C15.4931 42.3918 17.0318 44.4879 19.0452 45.9674C17.0657 47.4219 14.6271 48.2803 11.9897 48.2803C5.36799 48.2803 0 42.8697 0 36.1952C0 29.5209 5.36799 24.1103 11.9897 24.1103C14.6271 24.1103 17.0657 24.9686 19.0452 26.4232ZM100.714 37.6827C98.5117 37.7088 93.5456 36.9123 93.66 40.5654C93.7744 44.2188 100.714 43.5826 100.714 39.3559C100.714 37.959 100.715 37.9643 100.714 37.6827ZM26.1007 40.8434C23.5539 40.8434 21.4893 38.7623 21.4893 36.1952C21.4893 33.6282 23.5539 31.5472 26.1007 31.5472C28.6475 31.5472 30.7123 33.6282 30.7123 36.1952C30.7123 38.7623 28.6475 40.8434 26.1007 40.8434Z" fill="#E0081C"/>
</svg>
