<svg fill="none" height="35" viewBox="0 0 108 35" width="108" xmlns="http://www.w3.org/2000/svg"><path d="m100.792 31.0308c-4.2532 4.0347-14.3982 3.177-14.3982-4.7808 0-8.3841 8.8128-9.0292 14.3432-8.5227 0-.0101 0-.0202 0-.0303-.205-4.3871-7.5214-3.3066-10.442-.9775-.9141-1.3094-2.4625-3.6437-3.0977-4.6991 3.3616-2.58749 11.5698-4.47358 15.7747-2.09275 4.204 2.38065 5.027 6.54525 5.028 8.66435v.0255 16.3825-2.1846h-7.013zm-27.5936-.1931c-7.4631 5.9045-15.1155.2987-16.0707-7.2975-1.1895-9.4607 6.3298-16.97482 16.0098-13.70046v-9.83974h7.3783v32.8154h-7.1018zm-.0609-7.9714v-6.5701c-3.1973-1.4535-8.1351-1.5073-8.5839 5.0888-.4598 6.7587 8.0071 7.4449 8.5839 1.4813zm-28.3208-10.8895c2.1594-2.63201 5.2309-3.39089 9.2149-2.27624-.5993 3.29064-1.011 5.51414-1.2355 6.67034-5.7418-.9987-7.8553.7237-7.8807 5.7258v.1847c0 .0115.0002.0229.0002.0342 0 .0029-.0002.0058-.0002.0086v10.5227h-7.3783v-23.24043h7.1016zm-25.7715-.5536c-2.0134 1.4792-3.5521 3.5755-4.3427 6.0128-.7614-.559-1.6989-.8888-2.7128-.8888-2.54682 0-4.61142 2.081-4.61142 4.648 0 2.5671 2.0646 4.6482 4.61142 4.6482 1.0139 0 1.9514-.3298 2.7128-.889.7906 2.4374 2.3293 4.5335 4.3427 6.013-1.9795 1.4545-4.4181 2.3129-7.0555 2.3129-6.62171 0-11.9897-5.4106-11.9897-12.0851 0-6.6743 5.36799-12.08491 11.9897-12.08491 2.6374 0 5.076.85833 7.0555 2.31291zm81.6688 11.2595c-2.2023.0261-7.1684-.7704-7.054 2.8827.1144 3.6534 7.054 3.0172 7.054-1.2095 0-1.3969.001-1.3916 0-1.6732zm-74.6133 3.1607c-2.5468 0-4.6114-2.0811-4.6114-4.6482 0-2.567 2.0646-4.648 4.6114-4.648s4.6116 2.081 4.6116 4.648c0 2.5671-2.0648 4.6482-4.6116 4.6482z" fill="#e0081c"/></svg>