<svg width="216" height="26" viewBox="0 0 216 26" fill="none" xmlns="http://www.w3.org/2000/svg">
<g clip-path="url(#clip0)">
<path d="M62.6593 7.32918V18.6897H65.4098C66.1117 18.679 66.8045 18.5234 67.447 18.2321C68.0895 17.9408 68.6688 17.5198 69.1505 16.994C70.1393 15.9159 70.6803 14.4828 70.6583 13.0001C70.6793 12.2636 70.5587 11.5301 70.3036 10.8417C70.0485 10.1533 69.6637 9.52363 69.1716 8.98884C68.6878 8.46224 68.1045 8.0432 67.4576 7.75752C66.8106 7.47185 66.1137 7.32558 65.4098 7.32773H62.6607L62.6593 7.32918ZM65.4098 3.76718C70.5363 3.76718 74.4145 7.85784 74.4145 13.0001C74.4145 18.1423 70.5363 22.2561 65.4098 22.2561H59.3436C59.2857 22.2553 59.2286 22.2428 59.1755 22.2193C59.1223 22.1958 59.0742 22.1618 59.0338 22.1191C58.9934 22.0765 58.9616 22.0261 58.9401 21.9707C58.9187 21.9154 58.908 21.8563 58.9088 21.7967V4.24529C58.9088 3.99107 59.1037 3.78451 59.3436 3.78451L65.4098 3.76718ZM87.6284 19.0855C89.9567 19.0927 92.0592 17.618 92.9554 15.3487C93.3945 14.24 93.5118 13.024 93.2932 11.8479C93.0746 10.6719 92.5295 9.58644 91.724 8.72307C90.9325 7.87387 89.9094 7.29193 88.79 7.05415C87.6706 6.81637 86.5075 6.93392 85.4543 7.39129C83.3027 8.32729 81.8973 10.5416 81.8931 13.0001C81.8931 16.3512 84.4571 19.0696 87.6298 19.0855H87.6284ZM87.6298 3.34829C93.0256 3.34829 97.1506 7.72784 97.1506 13.0001C97.1506 18.2723 93.0256 22.6518 87.6284 22.6518C82.2326 22.6518 78.1426 18.294 78.1426 13.0001C78.1426 7.70618 82.2676 3.34829 87.6284 3.34829H87.6298ZM110.258 19.0855C113.432 19.0768 116 16.3555 115.997 13.0044C115.993 9.6504 113.419 6.93484 110.247 6.9334C107.071 6.9334 104.496 9.64751 104.492 13.0001C104.492 14.615 105.099 16.1634 106.181 17.3045C106.71 17.8669 107.343 18.3142 108.043 18.6201C108.743 18.926 109.496 19.0843 110.256 19.0855H110.258ZM110.256 3.34829C115.635 3.34829 119.76 7.70618 119.76 13.0001C119.76 18.294 115.619 22.6518 110.256 22.6518C104.896 22.6518 100.736 18.294 100.736 13.0001C100.736 7.70618 104.861 3.34829 110.256 3.34829ZM132.342 7.32918H128.464V12.2186H132.342C132.648 12.2326 132.954 12.1818 133.241 12.0692C133.527 11.9567 133.788 11.7848 134.008 11.5643C134.457 11.1165 134.712 10.4954 134.718 9.84251C134.729 9.51128 134.675 9.18112 134.56 8.87184C134.444 8.56256 134.269 8.28055 134.045 8.04273C133.824 7.80869 133.559 7.62468 133.266 7.50254C132.973 7.38039 132.658 7.32281 132.342 7.33351V7.32918ZM124.712 4.24529C124.712 3.99107 124.908 3.78451 125.148 3.78451H132.45C135.931 3.78451 138.45 6.4784 138.45 9.86129C138.477 12.1493 137.263 14.251 135.326 15.2751L138.694 21.5627C138.741 21.635 138.767 21.7191 138.77 21.8058C138.773 21.8925 138.752 21.9784 138.711 22.0538C138.67 22.1281 138.61 22.1889 138.537 22.2288C138.464 22.2688 138.381 22.2862 138.299 22.2792H135.343C135.261 22.2804 135.181 22.2577 135.111 22.2137C135.041 22.1698 134.984 22.1063 134.948 22.0307L131.702 15.8081H128.45V21.7823C128.45 21.842 128.44 21.9013 128.419 21.9567C128.397 22.0122 128.365 22.0628 128.325 22.1056C128.285 22.1484 128.236 22.1826 128.183 22.2062C128.13 22.2298 128.073 22.2423 128.015 22.2431H125.167C125.11 22.2423 125.052 22.2298 124.999 22.2062C124.946 22.1826 124.898 22.1484 124.857 22.1056C124.817 22.0628 124.785 22.0122 124.764 21.9567C124.742 21.9013 124.732 21.842 124.733 21.7823L124.713 4.24673L124.712 4.24529ZM148.229 7.41584V18.7778H150.978C151.68 18.768 152.373 18.6134 153.015 18.3232C153.658 18.0329 154.238 17.6128 154.72 17.0878C155.709 16.011 156.251 14.5791 156.231 13.0968C156.253 12.3594 156.134 11.6247 155.879 10.9351C155.625 10.2454 155.241 9.6144 154.748 9.0784C154.264 8.55091 153.679 8.13135 153.031 7.84564C152.383 7.55994 151.685 7.41415 150.979 7.41729L148.229 7.41584ZM150.978 3.84951C156.105 3.84951 159.983 7.94451 159.983 13.0968C159.983 18.2492 156.105 22.3442 150.978 22.3442H144.93C144.872 22.3434 144.815 22.3309 144.762 22.3073C144.708 22.2837 144.66 22.2496 144.62 22.2067C144.579 22.1639 144.548 22.1133 144.526 22.0579C144.505 22.0024 144.494 21.9431 144.495 21.8834V4.3334C144.495 4.07773 144.69 3.87118 144.93 3.87118L150.979 3.84951H150.978ZM171.422 8.36773L169.295 14.4431H173.546L171.422 8.36773ZM168.046 17.8765L166.654 21.921C166.626 22.0161 166.568 22.099 166.489 22.1565C166.41 22.2141 166.315 22.243 166.219 22.2387H163.197C163.121 22.2461 163.043 22.232 162.973 22.198C162.903 22.1639 162.844 22.1112 162.801 22.0452C162.756 21.9784 162.73 21.9011 162.723 21.8206C162.716 21.7402 162.73 21.6593 162.763 21.5858L169.29 4.05173C169.321 3.95927 169.38 3.87959 169.458 3.82482C169.537 3.77006 169.631 3.74323 169.725 3.7484H173.105C173.2 3.7429 173.294 3.76959 173.373 3.82437C173.452 3.87916 173.511 3.95902 173.542 4.05173L180.069 21.5858C180.102 21.6594 180.115 21.7404 180.108 21.8208C180.101 21.9013 180.074 21.9786 180.03 22.0452C179.987 22.1109 179.927 22.1634 179.857 22.1972C179.787 22.231 179.71 22.2448 179.633 22.2373H176.613C176.517 22.2415 176.422 22.2126 176.343 22.1551C176.264 22.0975 176.206 22.0147 176.179 21.9195L174.786 17.8751H168.046V17.8765ZM183.572 8.76207C183.572 5.85873 185.948 3.34829 189.7 3.34829C191.72 3.30182 193.676 4.08017 195.142 5.51351C195.186 5.55698 195.222 5.60938 195.246 5.6675C195.271 5.72561 195.283 5.78823 195.283 5.85151C195.283 5.91479 195.271 5.97741 195.246 6.03552C195.222 6.09364 195.186 6.14604 195.142 6.18951L193.468 7.94451C193.428 7.98715 193.38 8.02105 193.327 8.04421C193.274 8.06736 193.217 8.0793 193.16 8.0793C193.102 8.0793 193.045 8.06736 192.992 8.04421C192.939 8.02105 192.891 7.98715 192.851 7.94451C192.063 7.18375 191.028 6.75272 189.948 6.73551C188.447 6.73551 187.338 7.65562 187.338 8.71729C187.338 12.1493 196.206 10.169 196.206 16.773C196.202 20.1197 193.808 22.6518 189.575 22.6518C188.399 22.6642 187.233 22.433 186.146 21.972C185.059 21.5109 184.074 20.8294 183.248 19.9681C183.203 19.9246 183.167 19.8722 183.143 19.8141C183.119 19.756 183.106 19.6933 183.106 19.6301C183.106 19.5668 183.119 19.5042 183.143 19.4461C183.167 19.3879 183.203 19.3355 183.248 19.2921L184.866 17.5818C184.907 17.5371 184.955 17.5015 185.01 17.4771C185.064 17.4527 185.123 17.4401 185.182 17.4401C185.241 17.4401 185.3 17.4527 185.354 17.4771C185.408 17.5015 185.457 17.5371 185.497 17.5818C186.516 18.6217 187.888 19.2123 189.322 19.2285C191.198 19.2285 192.433 18.1712 192.433 16.8466C192.433 13.4132 183.569 15.395 183.569 8.78951L183.572 8.76207ZM212.288 4.22218V11.1613H204.782V4.22218C204.782 4.16261 204.772 4.10348 204.75 4.04816C204.729 3.99284 204.697 3.94242 204.657 3.89976C204.616 3.85711 204.568 3.82306 204.515 3.79957C204.462 3.77608 204.405 3.7636 204.347 3.76284H201.5C201.442 3.7636 201.385 3.77608 201.332 3.79957C201.278 3.82306 201.23 3.85711 201.19 3.89976C201.149 3.94242 201.118 3.99284 201.096 4.04816C201.075 4.10348 201.064 4.16261 201.065 4.22218V21.7534C201.065 22.0076 201.261 22.2142 201.5 22.2142H204.347C204.585 22.2142 204.782 22.0076 204.782 21.7534V14.7045H212.283V21.7534C212.283 22.0076 212.479 22.2142 212.718 22.2142H215.565C215.805 22.2142 216 22.0076 216 21.7534V4.22218C216 4.16261 215.99 4.10348 215.968 4.04816C215.947 3.99284 215.915 3.94242 215.875 3.89976C215.834 3.85711 215.786 3.82306 215.733 3.79957C215.68 3.77608 215.623 3.7636 215.565 3.76284H212.718C212.602 3.76587 212.492 3.81579 212.411 3.90177C212.331 3.98775 212.287 4.10287 212.288 4.22218ZM42.9262 6.10284C40.9513 2.33284 37.0872 -0.0143782 32.885 6.62858e-05H1.0909C0.876188 0.000963842 0.666477 0.0669084 0.4879 0.189683C0.309323 0.312458 0.169774 0.486635 0.0866423 0.690511C0.00472567 0.893079 -0.016609 1.11622 0.0253708 1.33135C0.0673505 1.54648 0.170734 1.74381 0.322279 1.89807L7.24831 8.97584C7.85984 9.60273 8.69298 9.95373 9.55979 9.95373H31.9733C33.5709 9.9364 34.8767 11.2393 34.8935 12.8614C34.9103 14.4835 33.6298 15.8124 32.0322 15.8283H16.5798C16.3649 15.8284 16.1548 15.8936 15.9757 16.0159C15.7966 16.1382 15.6565 16.3121 15.5727 16.5158C15.49 16.7186 15.4681 16.9423 15.5099 17.158C15.5516 17.3737 15.6551 17.5716 15.807 17.7263L22.7372 24.8098C23.3526 25.4364 24.1833 25.7873 25.0487 25.7863H32.0378C41.1308 25.7863 48.0064 15.9063 42.9262 6.09851" fill="#FF3008"/>
</g>
<defs>
<clipPath id="clip0">
<rect width="216" height="26" fill="white"/>
</clipPath>
</defs>
</svg>
