<svg width="216" height="64" viewBox="0 0 216 64" fill="none" xmlns="http://www.w3.org/2000/svg">
<mask id="mask0_657_6973" style="mask-type:luminance" maskUnits="userSpaceOnUse" x="0" y="19" width="216" height="26">
<path d="M216 19H0V45H216V19Z" fill="white"/>
</mask>
<g mask="url(#mask0_657_6973)">
<path d="M62.6588 26.3292V37.6897H65.4093C66.1112 37.679 66.804 37.5234 67.4465 37.2321C68.089 36.9408 68.6683 36.5198 69.15 35.994C70.1388 34.9159 70.6798 33.4828 70.6578 32.0001C70.6788 31.2636 70.5582 30.5301 70.3031 29.8417C70.048 29.1533 69.6632 28.5236 69.1711 27.9888C68.6873 27.4622 68.104 27.0432 67.4571 26.7575C66.8101 26.4719 66.1132 26.3256 65.4093 26.3277H62.6602L62.6588 26.3292ZM65.4093 22.7672C70.5358 22.7672 74.414 26.8578 74.414 32.0001C74.414 37.1423 70.5358 41.2561 65.4093 41.2561H59.3431C59.2852 41.2553 59.2281 41.2428 59.175 41.2193C59.1218 41.1958 59.0737 41.1618 59.0333 41.1191C58.9929 41.0765 58.9611 41.0261 58.9396 40.9707C58.9182 40.9154 58.9075 40.8563 58.9083 40.7967V23.2453C58.9083 22.9911 59.1032 22.7845 59.3431 22.7845L65.4093 22.7672ZM87.6279 38.0855C89.9562 38.0927 92.0587 36.618 92.9549 34.3487C93.394 33.24 93.5113 32.024 93.2927 30.8479C93.0741 29.6719 92.529 28.5864 91.7235 27.7231C90.932 26.8739 89.9089 26.2919 88.7895 26.0542C87.6701 25.8164 86.507 25.9339 85.4538 26.3913C83.3022 27.3273 81.8968 29.5416 81.8926 32.0001C81.8926 35.3512 84.4566 38.0696 87.6293 38.0855H87.6279ZM87.6293 22.3483C93.0251 22.3483 97.1501 26.7278 97.1501 32.0001C97.1501 37.2723 93.0251 41.6518 87.6279 41.6518C82.2321 41.6518 78.1421 37.294 78.1421 32.0001C78.1421 26.7062 82.2671 22.3483 87.6279 22.3483H87.6293ZM110.258 38.0855C113.432 38.0768 116 35.3555 115.997 32.0044C115.993 28.6504 113.419 25.9348 110.247 25.9334C107.071 25.9334 104.496 28.6475 104.492 32.0001C104.492 33.615 105.099 35.1634 106.181 36.3045C106.71 36.8669 107.343 37.3142 108.043 37.6201C108.743 37.926 109.496 38.0843 110.256 38.0855H110.258ZM110.256 22.3483C115.635 22.3483 119.76 26.7062 119.76 32.0001C119.76 37.294 115.619 41.6518 110.256 41.6518C104.896 41.6518 100.736 37.294 100.736 32.0001C100.736 26.7062 104.861 22.3483 110.256 22.3483ZM132.342 26.3292H128.464V31.2186H132.342C132.648 31.2326 132.954 31.1818 133.241 31.0692C133.527 30.9567 133.788 30.7848 134.008 30.5643C134.457 30.1165 134.712 29.4954 134.718 28.8425C134.729 28.5113 134.675 28.1811 134.56 27.8718C134.444 27.5626 134.269 27.2806 134.045 27.0427C133.824 26.8087 133.559 26.6247 133.266 26.5025C132.973 26.3804 132.658 26.3228 132.342 26.3335V26.3292ZM124.712 23.2453C124.712 22.9911 124.908 22.7845 125.148 22.7845H132.45C135.931 22.7845 138.45 25.4784 138.45 28.8613C138.477 31.1493 137.263 33.251 135.326 34.2751L138.694 40.5627C138.741 40.635 138.767 40.7191 138.77 40.8058C138.773 40.8925 138.752 40.9784 138.711 41.0538C138.67 41.1281 138.61 41.1889 138.537 41.2288C138.464 41.2688 138.381 41.2862 138.299 41.2792H135.343C135.261 41.2804 135.181 41.2577 135.111 41.2137C135.041 41.1698 134.984 41.1063 134.948 41.0307L131.702 34.8081H128.45V40.7823C128.45 40.842 128.44 40.9013 128.419 40.9567C128.397 41.0122 128.365 41.0628 128.325 41.1056C128.285 41.1484 128.236 41.1826 128.183 41.2062C128.13 41.2298 128.073 41.2423 128.015 41.2431H125.167C125.11 41.2423 125.052 41.2298 124.999 41.2062C124.946 41.1826 124.898 41.1484 124.857 41.1056C124.817 41.0628 124.785 41.0122 124.764 40.9567C124.742 40.9013 124.732 40.842 124.733 40.7823L124.713 23.2467L124.712 23.2453ZM148.229 26.4158V37.7778H150.978C151.68 37.768 152.373 37.6134 153.015 37.3232C153.658 37.0329 154.238 36.6128 154.72 36.0878C155.709 35.011 156.251 33.5791 156.231 32.0968C156.253 31.3594 156.134 30.6247 155.879 29.9351C155.625 29.2454 155.241 28.6144 154.748 28.0784C154.264 27.5509 153.679 27.1314 153.031 26.8456C152.383 26.5599 151.685 26.4142 150.979 26.4173L148.229 26.4158ZM150.978 22.8495C156.105 22.8495 159.983 26.9445 159.983 32.0968C159.983 37.2492 156.105 41.3442 150.978 41.3442H144.93C144.872 41.3434 144.815 41.3309 144.762 41.3073C144.708 41.2837 144.66 41.2496 144.62 41.2067C144.579 41.1639 144.548 41.1133 144.526 41.0579C144.505 41.0024 144.494 40.9431 144.495 40.8834V23.3334C144.495 23.0777 144.69 22.8712 144.93 22.8712L150.979 22.8495H150.978ZM171.422 27.3677L169.295 33.4431H173.546L171.422 27.3677ZM168.046 36.8765L166.654 40.921C166.626 41.0161 166.568 41.099 166.489 41.1565C166.41 41.2141 166.315 41.243 166.219 41.2387H163.197C163.121 41.2461 163.043 41.232 162.973 41.198C162.903 41.1639 162.844 41.1112 162.801 41.0452C162.756 40.9784 162.73 40.9011 162.723 40.8206C162.716 40.7402 162.73 40.6593 162.763 40.5858L169.29 23.0517C169.321 22.9593 169.38 22.8796 169.458 22.8248C169.537 22.7701 169.631 22.7432 169.725 22.7484H173.105C173.2 22.7429 173.294 22.7696 173.373 22.8244C173.452 22.8792 173.511 22.959 173.542 23.0517L180.069 40.5858C180.102 40.6594 180.115 40.7404 180.108 40.8208C180.101 40.9013 180.074 40.9786 180.03 41.0452C179.987 41.1109 179.927 41.1634 179.857 41.1972C179.787 41.231 179.71 41.2448 179.633 41.2373H176.613C176.517 41.2415 176.422 41.2126 176.343 41.1551C176.264 41.0975 176.206 41.0147 176.179 40.9195L174.786 36.8751H168.046V36.8765ZM183.572 27.7621C183.572 24.8587 185.948 22.3483 189.7 22.3483C191.72 22.3018 193.676 23.0802 195.142 24.5135C195.186 24.557 195.222 24.6094 195.246 24.6675C195.271 24.7256 195.283 24.7882 195.283 24.8515C195.283 24.9148 195.271 24.9774 195.246 25.0355C195.222 25.0936 195.186 25.146 195.142 25.1895L193.468 26.9445C193.428 26.9871 193.38 27.0211 193.327 27.0442C193.274 27.0674 193.217 27.0793 193.16 27.0793C193.102 27.0793 193.045 27.0674 192.992 27.0442C192.939 27.0211 192.891 26.9871 192.851 26.9445C192.063 26.1837 191.028 25.7527 189.948 25.7355C188.447 25.7355 187.338 26.6556 187.338 27.7173C187.338 31.1493 196.206 29.169 196.206 35.773C196.202 39.1197 193.808 41.6518 189.575 41.6518C188.399 41.6642 187.233 41.433 186.146 40.972C185.059 40.5109 184.074 39.8294 183.248 38.9681C183.203 38.9246 183.167 38.8722 183.143 38.8141C183.119 38.756 183.106 38.6933 183.106 38.6301C183.106 38.5668 183.119 38.5042 183.143 38.4461C183.167 38.3879 183.203 38.3355 183.248 38.2921L184.866 36.5818C184.907 36.5371 184.955 36.5015 185.01 36.4771C185.064 36.4527 185.123 36.4401 185.182 36.4401C185.241 36.4401 185.3 36.4527 185.354 36.4771C185.408 36.5015 185.457 36.5371 185.497 36.5818C186.516 37.6217 187.888 38.2123 189.322 38.2285C191.198 38.2285 192.433 37.1712 192.433 35.8466C192.433 32.4132 183.569 34.395 183.569 27.7895L183.572 27.7621ZM212.288 23.2222V30.1613H204.782V23.2222C204.782 23.1626 204.772 23.1035 204.75 23.0482C204.729 22.9928 204.697 22.9424 204.657 22.8998C204.616 22.8571 204.568 22.8231 204.515 22.7996C204.462 22.7761 204.405 22.7636 204.347 22.7628H201.5C201.442 22.7636 201.385 22.7761 201.332 22.7996C201.278 22.8231 201.23 22.8571 201.19 22.8998C201.149 22.9424 201.118 22.9928 201.096 23.0482C201.075 23.1035 201.064 23.1626 201.065 23.2222V40.7534C201.065 41.0076 201.261 41.2142 201.5 41.2142H204.347C204.585 41.2142 204.782 41.0076 204.782 40.7534V33.7045H212.283V40.7534C212.283 41.0076 212.479 41.2142 212.718 41.2142H215.565C215.805 41.2142 216 41.0076 216 40.7534V23.2222C216 23.1626 215.99 23.1035 215.968 23.0482C215.947 22.9928 215.915 22.9424 215.875 22.8998C215.834 22.8571 215.786 22.8231 215.733 22.7996C215.68 22.7761 215.623 22.7636 215.565 22.7628H212.718C212.602 22.7659 212.492 22.8158 212.411 22.9018C212.331 22.9878 212.287 23.1029 212.288 23.2222ZM42.9257 25.1028C40.9508 21.3328 37.0867 18.9856 32.8845 19.0001H1.09041C0.8757 19.001 0.665989 19.0669 0.487412 19.1897C0.308835 19.3125 0.169286 19.4866 0.086154 19.6905C0.00423737 19.8931 -0.0170973 20.1162 0.0248825 20.3313C0.0668622 20.5465 0.170246 20.7438 0.321791 20.8981L7.24782 27.9758C7.85935 28.6027 8.69249 28.9537 9.5593 28.9537H31.9728C33.5704 28.9364 34.8762 30.2393 34.893 31.8614C34.9098 33.4835 33.6293 34.8124 32.0317 34.8283H16.5793C16.3644 34.8284 16.1543 34.8936 15.9752 35.0159C15.7961 35.1382 15.656 35.3121 15.5722 35.5158C15.4895 35.7186 15.4676 35.9423 15.5094 36.158C15.5511 36.3737 15.6546 36.5716 15.8065 36.7263L22.7367 43.8098C23.3521 44.4364 24.1828 44.7873 25.0482 44.7863H32.0373C41.1303 44.7863 48.0059 34.9063 42.9257 25.0985" fill="#FF3008"/>
</g>
</svg>
