<svg width="237" height="64" viewBox="0 0 237 64" fill="none" xmlns="http://www.w3.org/2000/svg">
<path d="M198.976 27.0297L198.931 26.1836L198.496 26.1494C197.095 24.9197 195.681 25.0053 195.681 25.0053C194.516 25.0053 193.965 25.4472 193.965 25.4472C193.324 25.913 193.064 25.8377 193.064 25.8377C192.509 25.8377 192.533 25.2931 192.533 25.2931C192.533 24.3066 194.15 23.8545 195.595 23.7517C197.654 23.6079 199.013 24.9985 199.013 24.9985C199.116 23.4674 199.856 22.8646 200.202 22.6591C200.325 22.5871 200.473 22.5563 200.616 22.5837C201.072 22.683 200.945 23.2345 200.945 23.2345C200.945 23.2345 201.158 23.0735 201.452 23.0221C202.144 22.8988 201.778 23.8236 201.778 23.8236C201.408 24.6251 201.36 25.6733 201.36 25.6733C201.36 26.9201 201.798 26.8824 201.798 26.8824C202.086 26.8824 202.254 26.3994 202.254 26.3994C202.517 25.6733 203.113 25.7829 203.113 25.7829C203.987 25.7829 203.905 28.1977 203.905 28.1977C204.007 28.7251 204.251 28.3723 204.251 28.3723C208.056 21.8781 208.618 18.7646 208.618 18.7646C208.618 17.6445 207.381 17.9494 207.381 17.9494L204.97 18.2439L197.304 18.7132C196.205 18.7132 195.92 18.1686 195.89 17.6685C195.862 17.2472 196.023 16.8362 196.294 16.5108L196.838 15.8668C197.342 15.3256 197.294 15.1921 197.294 15.1921C197.164 15.0174 197.01 15.1852 197.01 15.1852C196.393 15.6099 195.485 15.7709 195.485 15.7709C194.489 15.7709 194.585 14.62 194.585 14.62C194.585 14.4967 194.567 14.4454 194.543 14.4248H194.496C194.468 14.4385 194.451 14.4659 194.451 14.4659C192.725 16.7094 191.772 17.5041 191.772 17.5041C190.601 18.4597 190.022 18.6961 189.731 18.6961C188.967 18.6961 188.899 17.7062 188.899 17.7062C188.159 19.042 187.494 18.9564 187.494 18.9564C186.724 19.0078 186.073 18.2748 186.073 18.2748L185.247 17.3431C185.151 17.2232 185.151 17.3431 185.151 17.3431L185.206 18.583C185.199 19.2338 184.99 19.5935 184.99 19.5935C184.631 20.1347 183.391 19.6551 183.391 19.6551L181.171 18.7029C180.702 18.5043 180.99 18.9016 180.99 18.9016L182.696 20.6416C183.298 21.1999 182.815 21.7137 182.815 21.7137C182.226 22.409 180.414 21.3027 180.414 21.3027C177.393 19.3708 173.012 20.4292 173.012 20.4292C176.229 20.4292 176.229 21.4568 176.229 21.4568C176.229 22.183 173.088 23.2105 173.088 23.2105L170.584 24.0531V24.0566C173.012 23.7003 172.982 24.495 172.982 24.495C173.239 24.8272 172.571 25.5808 172.571 25.5808L171.557 26.8344C170.409 28.6327 170.923 30.0815 170.923 30.0815C172.163 28.482 173.204 28.6155 173.204 28.6155C174.547 28.7697 174.307 30.8693 174.307 30.8693C174.321 32.0956 174.732 33.541 174.732 33.541C176.561 33.4383 177.332 30.3384 177.332 30.3384C177.904 28.4203 178.75 28.482 178.75 28.482C179.623 28.482 179.25 29.5095 179.25 29.5095C179.106 30.4994 177.315 33.3561 176.832 34.1096C176.79 34.1781 176.849 34.2535 176.924 34.2363L177.935 33.9486C178.5 33.7774 178.705 34.048 178.705 34.048C179.055 34.62 177.705 35.5208 177.705 35.5208L176.499 36.3463C176.647 36.6169 178.781 36.658 178.781 36.658C179.291 36.658 179.301 36.9012 179.301 36.9012C179.301 37.1204 179.127 37.2711 179.127 37.2711L177.702 38.4357L176.441 39.5112C176.342 39.6345 176.492 39.6345 176.492 39.6345L177.034 39.4393C177.77 39.0796 178.839 38.994 178.839 38.994C179.428 38.994 179.438 39.4084 179.438 39.4084C179.438 39.912 178.733 40.8539 178.733 40.8539L177.9 41.9157C177.832 41.9945 177.804 42.0973 177.804 42.0973C177.856 42.1863 177.969 42.0973 177.969 42.0973L180.024 40.6826C180.545 40.2408 180.873 40.4018 180.873 40.4018C181.168 40.5559 180.908 41.1622 180.908 41.1622L180.205 42.8097L179.938 43.5701C179.945 43.7345 180.11 43.6455 180.11 43.6455L182.161 42.0836C182.682 41.5184 183.446 41.9637 183.446 41.9637C183.96 42.3336 183.805 43.6009 183.805 43.6009L183.675 44.8443C183.634 45.1834 183.761 45.019 183.761 45.019L184.672 43.9846C185.227 43.3029 185.652 43.2927 185.652 43.2927C186.282 43.2927 186.566 44.5292 186.566 44.5292L186.826 45.5396C186.974 45.8342 187.121 45.5567 187.121 45.5567L187.806 44.5463C188.46 43.481 189.012 43.5359 189.012 43.5359C189.491 43.5359 189.943 44.3202 189.943 44.3202L190.378 45.2245C190.515 45.704 190.67 45.68 190.67 45.68C190.813 45.68 190.913 45.4369 190.913 45.4369L191.509 44.0222C191.81 43.4023 192.139 43.3783 192.139 43.3783C192.584 43.3783 192.954 44.1524 192.954 44.1524L193.355 45.0772C193.495 45.3821 193.574 45.1012 193.574 45.1012L193.721 44.2072C193.756 43.8989 193.841 43.6729 193.941 43.5084C194.163 43.1419 194.657 43.0666 194.989 43.3338C195.187 43.4947 195.328 43.6694 195.328 43.6694L196.03 44.6319C196.167 44.8169 196.201 44.6388 196.201 44.6388V43.9126C196.201 42.9707 196.561 42.7001 196.561 42.7001C197.047 42.224 197.931 43.0118 197.931 43.0118L198.65 43.5838C198.822 43.5907 198.712 43.4434 198.712 43.4434C198.287 42.9159 198.339 42.2274 198.339 42.2274C198.339 41.1211 199.394 41.1622 199.394 41.1622C200.209 41.1622 200.64 41.3814 200.64 41.3814C200.884 41.5424 200.956 41.3917 200.956 41.3917C200.565 40.9361 200.62 39.7749 200.62 39.7749C200.62 38.6001 201.836 38.7405 201.836 38.7405L203.737 38.7816C204.038 38.7816 203.826 38.6001 203.826 38.6001L202.531 37.4047C202.106 36.9594 202.089 36.5484 202.089 36.5484C202.089 35.9764 203.059 35.6886 203.059 35.6886C203.353 35.5345 204.809 35.2639 204.809 35.2639C205.34 35.1851 205.323 35.0892 205.323 35.0892C205.323 34.9522 205.199 34.9488 205.199 34.9488L204.829 34.87C203.487 34.6302 202.699 33.8938 202.699 33.8938C202.189 33.2191 203.439 32.6813 203.439 32.6813L205.34 31.962V31.8729C199.263 31.4277 198.976 27.0297 198.976 27.0297ZM181.887 28.3552C181.726 28.5368 181.6 28.7491 181.49 28.9649C181.38 29.1773 181.178 29.4821 180.897 29.4821C180.897 29.4821 180.236 29.5369 180.236 28.8005C180.236 28.8005 180.497 26.1733 183.908 26.1733C183.908 26.1733 185.408 26.1562 185.408 27.0057C185.408 27.0057 185.463 27.3414 185.028 27.3414H183.898C183.894 27.3414 182.802 27.3174 181.887 28.3552ZM185.46 33.1471C183.973 33.4109 183.333 31.9928 183.192 31.1879C182.911 29.602 183.665 28.9272 184.401 28.7971C186.196 28.482 186.617 30.7186 186.617 30.7186C186.987 32.7977 185.46 33.1471 185.46 33.1471ZM192.673 37.5314C192.673 37.5314 192.211 38.1651 191.526 38.1651C191.526 38.1651 189.478 38.2781 189.073 35.8839C188.96 35.2331 189.354 34.4247 190.628 34.0993C190.628 34.0993 192.04 33.7226 192.67 34.1439C192.666 34.1473 193.995 35.4557 192.673 37.5314ZM194.441 31.1776C192.934 31.1776 192.55 29.6705 192.55 28.8553C192.55 27.2489 193.41 26.7145 194.156 26.7145C195.982 26.7145 196.003 28.9923 196.003 28.9923C196.003 31.0988 194.441 31.1776 194.441 31.1776Z" fill="#0D75CC"/>
<path d="M25.3262 43.3856H18.7086V40.3131H18.6127C18.325 40.731 17.9516 41.1523 17.4858 41.5839C17.02 42.0155 16.4754 42.406 15.8554 42.7588C15.2286 43.1115 14.5435 43.3993 13.7934 43.6219C13.0433 43.8446 12.2658 43.9576 11.4677 43.9576C9.74136 43.9576 8.1726 43.6596 6.76483 43.0704C5.35706 42.4779 4.15138 41.649 3.14436 40.5769C2.13734 39.5048 1.35639 38.2374 0.815205 36.768C0.274018 35.2986 0 33.6819 0 31.9247C0 30.2943 0.246617 28.7359 0.743275 27.2493C1.23993 25.7627 1.94211 24.444 2.85322 23.2932C3.76433 22.1423 4.8741 21.2243 6.18597 20.5358C7.49783 19.8474 8.98438 19.5049 10.6456 19.5049C12.1493 19.5049 13.5502 19.7343 14.8415 20.2002C16.1363 20.666 17.1981 21.4538 18.0304 22.5739H18.1263V11H25.3227V43.3856H25.3262ZM18.7086 31.7329C18.7086 29.9758 18.2051 28.5509 17.1981 27.4617C16.1876 26.3759 14.773 25.8313 12.9542 25.8313C11.1286 25.8313 9.71396 26.3759 8.71036 27.4617C7.69992 28.5475 7.19984 29.9724 7.19984 31.7329C7.19984 33.4901 7.70335 34.915 8.71036 36.0042C9.72081 37.09 11.1354 37.6346 12.9542 37.6346C14.7799 37.6346 16.1945 37.09 17.1981 36.0042C18.2051 34.915 18.7086 33.4935 18.7086 31.7329Z" fill="#0D75CC"/>
<path d="M30.2168 31.7325C30.2168 29.8794 30.5525 28.2011 31.2272 26.6974C31.8986 25.1937 32.8165 23.9093 33.9846 22.8372C35.1491 21.7651 36.5261 20.943 38.1085 20.3641C39.691 19.7887 41.3762 19.501 43.1676 19.501C44.959 19.501 46.6442 19.7887 48.2267 20.3641C49.8091 20.9396 51.1826 21.7651 52.3506 22.8372C53.5152 23.9093 54.44 25.1971 55.108 26.6974C55.7793 28.2011 56.1184 29.8794 56.1184 31.7325C56.1184 33.5855 55.7827 35.2639 55.108 36.7676C54.4366 38.2712 53.5186 39.5591 52.3506 40.6278C51.1826 41.6999 49.8091 42.522 48.2267 43.1008C46.6442 43.6763 44.959 43.964 43.1676 43.964C41.3762 43.964 39.691 43.6763 38.1085 43.1008C36.5261 42.5254 35.1491 41.6999 33.9846 40.6278C32.8165 39.5557 31.8952 38.2712 31.2272 36.7676C30.5525 35.2673 30.2168 33.589 30.2168 31.7325ZM37.4132 31.7325C37.4132 33.4896 37.9167 34.9145 38.9237 36.0037C39.9342 37.0895 41.3488 37.6342 43.1676 37.6342C44.9932 37.6342 46.4079 37.0895 47.4115 36.0037C48.4219 34.9179 48.922 33.493 48.922 31.7325C48.922 29.9753 48.4185 28.5504 47.4115 27.4612C46.4044 26.372 44.9864 25.8308 43.1676 25.8308C41.342 25.8308 39.9273 26.3754 38.9237 27.4612C37.9167 28.5539 37.4132 29.9753 37.4132 31.7325Z" fill="#0D75CC"/>
<path d="M56.9141 20.0762H64.59L69.3408 34.7053H69.4367L73.4168 20.0762H81.2812L85.6004 34.7053H85.6963L90.0635 20.0762H97.3524L89.0564 43.3883H81.9559L77.1127 27.896H77.0167L72.6975 43.3883H65.4532L56.9141 20.0762Z" fill="#0D75CC"/>
<path d="M100.615 20.0764H107.52V23.2413H107.616C107.839 22.796 108.161 22.3473 108.575 21.8986C108.993 21.4534 109.487 21.0492 110.062 20.6998C110.637 20.3504 111.295 20.0593 112.028 19.8366C112.761 19.614 113.563 19.501 114.426 19.501C116.251 19.501 117.721 19.7818 118.837 20.3436C119.958 20.9019 120.828 21.6794 121.451 22.6693C122.071 23.6592 122.496 24.8272 122.722 26.1733C122.944 27.516 123.057 28.9717 123.057 30.5405V43.3954H115.871V31.9722C115.871 31.3009 115.847 30.6056 115.799 29.8863C115.751 29.167 115.604 28.5059 115.368 27.8962C115.128 27.29 114.761 26.7933 114.265 26.4097C113.768 26.026 113.059 25.8342 112.131 25.8342C111.203 25.8342 110.452 26.0021 109.874 26.3377C109.298 26.6734 108.856 27.1221 108.555 27.6804C108.25 28.2387 108.051 28.8724 107.956 29.5746C107.86 30.2768 107.812 31.0166 107.812 31.7804V43.3885H100.615V20.0764Z" fill="#0D75CC"/>
<path d="M167.129 43.3856H160.512V40.3131H160.416C160.128 40.731 159.755 41.1523 159.289 41.5839C158.823 42.0155 158.279 42.406 157.659 42.7588C157.032 43.1115 156.347 43.3993 155.597 43.6219C154.843 43.8446 154.069 43.9576 153.271 43.9576C151.545 43.9576 149.976 43.6596 148.568 43.0704C147.16 42.4779 145.955 41.649 144.948 40.5769C143.941 39.5048 143.163 38.234 142.622 36.7646C142.077 35.2952 141.807 33.6785 141.807 31.9213C141.807 30.2909 142.053 28.7324 142.55 27.2459C143.047 25.7593 143.749 24.4406 144.66 23.2897C145.571 22.1389 146.681 21.2209 147.993 20.5324C149.304 19.8439 150.791 19.5014 152.452 19.5014C153.956 19.5014 155.357 19.7309 156.648 20.1967C157.943 20.6626 159.005 21.4504 159.837 22.5704H159.933V11H167.129V43.3856ZM160.508 31.7329C160.508 29.9758 160.005 28.5509 158.998 27.4617C157.987 26.3759 156.573 25.8313 154.754 25.8313C152.928 25.8313 151.514 26.3759 150.51 27.4617C149.5 28.5475 149 29.9724 149 31.7329C149 33.4901 149.503 34.915 150.51 36.0042C151.521 37.09 152.935 37.6346 154.754 37.6346C156.58 37.6346 157.994 37.09 158.998 36.0042C160.005 34.915 160.508 33.4935 160.508 31.7329Z" fill="#0D75CC"/>
<path d="M236.518 39.5249C236.518 43.9366 235.404 47.2865 233.181 49.5711C230.958 51.8557 227.574 52.9997 223.036 52.9997C220.96 52.9997 218.912 52.7703 216.898 52.3044C214.884 51.8386 213.031 50.9378 211.332 49.5951L215.312 43.6454C216.432 44.5737 217.603 45.3101 218.837 45.8513C220.07 46.3959 221.419 46.6665 222.892 46.6665C225.098 46.6665 226.721 46.1322 227.763 45.0601C228.801 43.988 229.321 42.6213 229.321 40.9566V40.6038H229.225C228.396 41.7239 227.365 42.5151 226.132 42.9775C224.899 43.4399 223.741 43.6728 222.656 43.6728C220.929 43.6728 219.361 43.3783 217.953 42.7857C216.545 42.1931 215.339 41.3642 214.332 40.2921C213.322 39.22 212.548 37.9493 212.007 36.4799C211.462 35.0104 211.191 33.3937 211.191 31.6366C211.191 30.1021 211.438 28.5984 211.935 27.129C212.431 25.6595 213.133 24.3648 214.045 23.2413C214.956 22.1213 216.065 21.2204 217.381 20.532C218.693 19.8435 220.179 19.501 221.84 19.501C222.865 19.501 223.8 19.614 224.646 19.8366C225.495 20.0593 226.252 20.3504 226.923 20.6998C227.595 21.0526 228.17 21.4431 228.65 21.8747C229.129 22.3062 229.513 22.731 229.801 23.1454H229.897V20.073H236.514V39.5249H236.518ZM218.384 31.5886C218.384 32.3559 218.528 33.0854 218.816 33.7705C219.104 34.459 219.511 35.0652 220.042 35.5961C220.57 36.1236 221.176 36.5484 221.868 36.8669C222.556 37.1854 223.317 37.3464 224.146 37.3464C224.947 37.3464 225.697 37.1854 226.403 36.8669C227.108 36.5484 227.722 36.1236 228.249 35.5961C228.777 35.0687 229.184 34.4624 229.475 33.7705C229.763 33.082 229.907 32.3559 229.907 31.5886C229.907 30.8214 229.763 30.0952 229.475 29.4067C229.188 28.7183 228.78 28.112 228.249 27.5811C227.722 27.0536 227.105 26.6323 226.403 26.3103C225.701 25.9884 224.947 25.8308 224.146 25.8308C223.317 25.8308 222.556 25.9918 221.868 26.3103C221.179 26.6289 220.573 27.0536 220.042 27.5811C219.515 28.1086 219.107 28.7149 218.816 29.4067C218.528 30.0952 218.384 30.8248 218.384 31.5886Z" fill="#0D75CC"/>
</svg>
