<svg width="231" height="64" viewBox="0 0 231 64" fill="none" xmlns="http://www.w3.org/2000/svg">
<path d="M24.4458 27.2887C24.4458 25.053 23.5578 22.9088 21.977 21.3279C20.495 19.8459 18.5178 18.9732 16.4344 18.8698L16.0162 18.8591C13.7805 18.8591 11.6362 19.7471 10.0554 21.3279C8.47454 22.9088 7.58661 25.053 7.58661 27.2887C7.58661 29.5244 8.47454 31.6687 10.0554 33.2495C11.6362 34.8304 13.7805 35.7183 16.0162 35.7183C18.2518 35.7183 20.3961 34.8304 21.977 33.2495C23.5578 31.6687 24.4458 29.5244 24.4458 27.2887ZM32.0324 27.2887C32.0324 31.5365 30.3446 35.6099 27.3409 38.6135C24.3373 41.6171 20.2639 43.3049 16.0162 43.3049C11.7684 43.3049 7.69503 41.6171 4.69142 38.6135C1.6878 35.6099 0 31.5365 0 27.2887C0 23.041 1.6878 18.9676 4.69142 15.9639C7.69503 12.9603 11.7684 11.2725 16.0162 11.2725L16.4138 11.2775C19.2754 11.3485 22.0448 12.1844 24.4458 13.6705V2H32.0324V27.2887Z" fill="#78C800"/>
<path d="M35.4042 29.8176V12.1155H42.9908V29.8176L42.9982 30.1098C43.0705 31.5684 43.6812 32.9529 44.7187 33.9904C45.8253 35.097 47.3265 35.7183 48.8915 35.7183L49.1837 35.7109C50.6423 35.6386 52.0268 35.0279 53.0643 33.9904C54.1018 32.9529 54.7125 31.5684 54.7848 30.1098L54.7922 29.8176V12.1155H62.3788V29.8176C62.3788 33.3946 60.9576 36.825 58.4283 39.3544C55.978 41.8046 52.6822 43.215 49.2265 43.3008L48.8915 43.3049C45.3144 43.3049 41.8841 41.8837 39.3547 39.3544C36.8254 36.825 35.4042 33.3946 35.4042 29.8176Z" fill="#78C800"/>
<path d="M89.3427 26.8705C89.2393 24.7871 88.3667 22.8099 86.8847 21.3279C85.4027 19.8459 83.4255 18.9732 81.3421 18.8698L80.9239 18.8591C78.6882 18.8591 76.5439 19.7471 74.9631 21.3279C73.3822 22.9088 72.4943 25.053 72.4943 27.2887C72.4943 29.5244 73.3822 31.6687 74.9631 33.2495C76.5439 34.8304 78.6882 35.7183 80.9239 35.7183C83.1595 35.7183 85.3038 34.8304 86.8847 33.2495C88.4655 31.6687 89.3534 29.5244 89.3534 27.2887L89.3427 26.8705ZM96.9401 27.2887C96.9401 31.5365 95.2523 35.6099 92.2486 38.6135C89.245 41.6171 85.1716 43.3049 80.9239 43.3049C76.6761 43.3049 72.6027 41.6171 69.5991 38.6135C66.5955 35.6099 64.9077 31.5365 64.9077 27.2887C64.9077 23.041 66.5955 18.9676 69.5991 15.9639C72.6027 12.9603 76.6761 11.2725 80.9239 11.2725L81.3215 11.2775C85.4251 11.3793 89.3389 13.0542 92.2486 15.9639C95.2523 18.9676 96.9401 23.041 96.9401 27.2887Z" fill="#78C800"/>
<path d="M100.312 29.8176V2H107.898V29.8176C107.898 31.2708 108.475 32.6648 109.503 33.6924C110.53 34.7199 111.925 35.2968 113.378 35.2968H119.278V42.8834H113.378C109.912 42.8834 106.589 41.5067 104.139 39.0564C101.689 36.606 100.312 33.2829 100.312 29.8176Z" fill="#78C800"/>
<path d="M130.658 13.8014V43.3049H123.072V13.8014H130.658Z" fill="#78C800"/>
<path d="M130.658 7.05774C130.658 8.06379 130.259 9.02863 129.547 9.74001C128.836 10.4514 127.871 10.851 126.865 10.851C125.859 10.851 124.894 10.4514 124.183 9.74001C123.471 9.02863 123.072 8.06379 123.072 7.05774C123.072 6.05169 123.471 5.08685 124.183 4.37547C124.894 3.66409 125.859 3.26444 126.865 3.26444C127.871 3.26444 128.836 3.66409 129.547 4.37547C130.259 5.08685 130.658 6.05169 130.658 7.05774Z" fill="#78C800"/>
<path d="M154.261 24.7598C154.261 24.0403 154.119 23.3279 153.844 22.6631C153.568 21.9984 153.165 21.3938 152.656 20.885C152.147 20.3764 151.543 19.9733 150.879 19.698C150.297 19.457 149.679 19.3181 149.051 19.2872L148.782 19.2806C148.062 19.2806 147.35 19.4226 146.685 19.698C146.021 19.9733 145.417 20.3764 144.908 20.885C144.399 21.3938 143.995 21.9984 143.72 22.6631C143.445 23.3279 143.303 24.0403 143.303 24.7598V43.3049H135.716V24.7598C135.716 23.044 136.054 21.3449 136.71 19.7597C137.367 18.1745 138.33 16.7343 139.543 15.5211C140.756 14.3078 142.197 13.3451 143.782 12.6884C145.367 12.0318 147.066 11.694 148.782 11.694L149.104 11.6981C150.71 11.7377 152.296 12.0729 153.782 12.6884C155.367 13.3451 156.807 14.3078 158.021 15.5211C159.234 16.7343 160.197 18.1745 160.853 19.7597C161.51 21.3449 161.848 23.044 161.848 24.7598V43.3049H154.261V24.7598Z" fill="#78C800"/>
<path d="M188.822 27.2887C188.822 25.053 187.934 22.9088 186.354 21.3279C184.872 19.8459 182.894 18.9732 180.811 18.8698L180.393 18.8591C178.157 18.8591 176.013 19.7471 174.432 21.3279C172.851 22.9088 171.963 25.053 171.963 27.2887C171.963 29.5244 172.851 31.6687 174.432 33.2495C176.013 34.8304 178.157 35.7183 180.393 35.7183C182.628 35.7183 184.773 34.8304 186.354 33.2495C187.934 31.6687 188.822 29.5244 188.822 27.2887ZM196.409 44.0614C196.604 47.2947 195.816 50.5125 194.143 53.2895C192.438 56.1195 189.899 58.3534 186.875 59.6841C183.85 61.0148 180.488 61.377 177.25 60.7222C174.011 60.0673 171.054 58.4268 168.785 56.0258L174.299 50.8149C175.493 52.0785 177.049 52.9416 178.754 53.2862C180.458 53.6308 182.227 53.4399 183.819 52.7396C185.411 52.0392 186.747 50.8638 187.644 49.3743C188.542 47.8849 188.957 46.154 188.832 44.4195L188.822 44.2837V40.9061C186.31 42.4611 183.395 43.3049 180.393 43.3049C176.145 43.3049 172.072 41.6171 169.068 38.6135C166.064 35.6099 164.377 31.5365 164.377 27.2887C164.377 23.041 166.064 18.9676 169.068 15.9639C172.072 12.9603 176.145 11.2725 180.393 11.2725L180.79 11.2775C184.894 11.3793 188.808 13.0542 191.718 15.9639C194.721 18.9676 196.409 23.041 196.409 27.2887V44.0614Z" fill="#78C800"/>
<path d="M223.373 26.8705C223.269 24.7871 222.397 22.8099 220.915 21.3279C219.433 19.8459 217.456 18.9732 215.372 18.8698L214.954 18.8591C212.718 18.8591 210.574 19.7471 208.993 21.3279C207.412 22.9088 206.524 25.053 206.524 27.2887L206.535 27.7069C206.639 29.7903 207.511 31.7675 208.993 33.2495C210.574 34.8304 212.718 35.7183 214.954 35.7183C217.19 35.7183 219.334 34.8304 220.915 33.2495C222.496 31.6687 223.384 29.5244 223.384 27.2887L223.373 26.8705ZM230.965 27.6863C230.863 31.79 229.189 35.7037 226.279 38.6135C223.275 41.6171 219.202 43.3049 214.954 43.3049C210.706 43.3049 206.633 41.6171 203.629 38.6135C200.719 35.7037 199.045 31.79 198.943 27.6863L198.938 27.2887C198.938 23.041 200.626 18.9676 203.629 15.9639C206.633 12.9603 210.706 11.2725 214.954 11.2725L215.352 11.2775C219.455 11.3793 223.369 13.0542 226.279 15.9639C229.282 18.9676 230.97 23.041 230.97 27.2887L230.965 27.6863Z" fill="#78C800"/>
</svg>
