<svg xmlns="http://www.w3.org/2000/svg" viewBox="0 0 55.474 23.389" width="1500" height="600" preserveAspectRatio="xMidYMid slice" x="0" y="300">
    <defs/>
    <path fill="#009" d="M0 23.39h55.474V0H0z"/>
    <path fill="#fff" d="M15.52 11.16c0-1.45-1.329-3.535-3.897-3.535-2.326 0-3.897 1.994-3.897 4.048 0 2.447 1.692 4.199 4.592 4.199h5.498c-1.3 2.024-3.565 3.323-6.163 3.323-4.108 0-7.431-3.353-7.431-7.462 0-4.108 3.323-7.461 7.431-7.461 4.109 0 7.462 3.353 7.462 7.461 0 .816-.151 1.601-.363 2.326h-8.307v-.816l2.93-.09c1.48-.06 2.145-.815 2.145-1.994"/>
    <path fill="#fff" d="M16.922 19.205v-.51h-.182v-.103h.488v.103h-.182v.51zM17.306 19.205v-.613h.185l.112.418.11-.418h.186v.613h-.115v-.483l-.122.483h-.12l-.12-.483v.483z" font-family="Helvetica" font-weight="700" style="-inkscape-font-specification:Helvetica-Bold"/>
    <path fill="#fff" d="M25.415 7.975c0-.425-.39-1.037-1.143-1.037-.682 0-1.142.585-1.142 1.188 0 .717.496 1.231 1.346 1.231h1.613a2.13 2.13 0 01-1.807.975 2.185 2.185 0 01-2.18-2.189c0-1.205.974-2.188 2.18-2.188a2.193 2.193 0 012.081 2.87h-2.436v-.239l.86-.026c.434-.018.628-.24.628-.585"/>
    <path fill="#fff" d="M28.286 7.31l.833-1.222h1.151l-1.417 1.976 1.532 2.135h-1.222l-.913-1.33-.921 1.33h-1.152l1.506-2.082-1.462-2.03h1.223zM31.652 6.894c.301-.638.842-.921 1.391-.921.992 0 1.896.841 1.896 2.17 0 1.33-.904 2.17-1.896 2.17-.55 0-1.09-.283-1.391-.92-.018-.036-.044-.027-.044.008v2.49h-1.063V6.088h1.063v.797c0 .036.026.045.044.01m1.099 2.542c.62 0 1.16-.54 1.16-1.293 0-.754-.54-1.294-1.16-1.294-.612 0-1.161.54-1.161 1.294 0 .753.55 1.293 1.16 1.293M38.597 7.975c0-.425-.39-1.037-1.143-1.037-.681 0-1.142.585-1.142 1.188 0 .717.496 1.231 1.346 1.231h1.613a2.13 2.13 0 01-1.807.975 2.185 2.185 0 01-2.18-2.189c0-1.205.975-2.188 2.18-2.188a2.193 2.193 0 012.081 2.87H37.11v-.239l.86-.026c.434-.018.628-.24.628-.585M43.284 9.392c-.302.638-.842.922-1.391.922-.992 0-1.896-.842-1.896-2.17 0-1.33.904-2.171 1.896-2.171.549 0 1.09.283 1.39.921.018.035.045.027.045-.009V4.307h1.063v5.891h-1.063v-.797c0-.035-.027-.044-.044-.009M42.185 6.85c-.62 0-1.16.54-1.16 1.294 0 .753.54 1.294 1.16 1.294.612 0 1.16-.54 1.16-1.294 0-.753-.548-1.294-1.16-1.294M45.064 4.892c0-.337.284-.62.62-.62.337 0 .62.283.62.62 0 .336-.283.62-.62.62a.628.628 0 01-.62-.62m1.152 5.307h-1.063V6.088h1.063zM50.034 9.392c-.301.638-.842.922-1.39.922-.993 0-1.897-.842-1.897-2.17 0-1.33.904-2.171 1.896-2.171.55 0 1.09.283 1.391.921.018.035.045.027.045-.009v-.797h1.063v4.11h-1.063v-.797c0-.035-.027-.044-.045-.009M48.936 6.85c-.62 0-1.161.54-1.161 1.294 0 .753.54 1.294 1.16 1.294.612 0 1.161-.54 1.161-1.294 0-.753-.549-1.294-1.16-1.294M25.766 16.675c0-.036-.026-.045-.044-.01-.301.638-.833.922-1.373.922-.984 0-1.878-.833-1.878-2.153s.894-2.153 1.878-2.153c.54 0 1.072.284 1.373.922.018.035.044.026.044-.01v-.797h1.064v3.872c0 1.143-.79 2.029-2.153 2.029-.762 0-1.427-.266-1.914-.718l.638-.691c.425.337.762.514 1.258.514.78 0 1.107-.55 1.107-1.232zm-1.125-2.516c-.611 0-1.143.531-1.143 1.275 0 .745.532 1.276 1.143 1.276.603 0 1.143-.531 1.143-1.276 0-.744-.54-1.275-1.143-1.275M28.654 13.397v.894c0 .018.018.027.027 0 .142-.735.46-1.01 1.01-1.01h.098v1.117h-.479c-.434 0-.656.336-.656.815v2.295h-1.063v-4.111zM32.047 13.264c1.196 0 2.18.983 2.18 2.188a2.191 2.191 0 01-2.18 2.188 2.195 2.195 0 01-2.197-2.188c0-1.205.984-2.188 2.197-2.188m-.009.965c-.637 0-1.16.532-1.16 1.223 0 .691.523 1.223 1.16 1.223.638 0 1.161-.532 1.161-1.223 0-.691-.523-1.223-1.16-1.223M36.433 17.64c-1.037 0-1.701-.629-1.701-1.55v-2.693h1.063v2.613c0 .408.265.674.664.674.363 0 .638-.275.638-.665v-2.622h1.063v2.693c0 .921-.717 1.55-1.727 1.55M40.003 14.203c.301-.638.841-.922 1.39-.922.993 0 1.897.842 1.897 2.171 0 1.329-.904 2.17-1.896 2.17-.55 0-1.09-.283-1.391-.92-.018-.036-.045-.027-.045.008v2.49h-1.063v-5.803h1.063v.797c0 .036.027.044.045.01m1.098 2.542c.62 0 1.16-.54 1.16-1.294 0-.753-.54-1.293-1.16-1.293-.611 0-1.16.54-1.16 1.293 0 .754.549 1.294 1.16 1.294"/>
    <path fill="#fff" d="M44.073 14.01v-.51h-.182v-.104h.488v.103h-.182v.51zM44.457 14.01v-.614h.186l.111.418.11-.418h.186v.613h-.115v-.483l-.122.483h-.12l-.12-.483v.483z" font-family="Helvetica" font-weight="700" style="-inkscape-font-specification:Helvetica-Bold"/>
</svg>
