<svg width="207" height="64" viewBox="0 0 207 64" fill="none" xmlns="http://www.w3.org/2000/svg">
<path fill-rule="evenodd" clip-rule="evenodd" d="M22.3998 28.1989L22.0459 28.3692C21.0787 27.2112 20.1586 26.2234 19.2857 25.406C18.4129 24.5885 17.5636 23.9868 16.7379 23.6008C16.3368 23.4192 15.6114 23.2659 14.5616 23.141C13.5117 23.0161 12.2909 22.9537 10.8991 22.9537C10.6632 22.9537 10.3919 22.9594 10.0852 22.9707C9.7785 22.9821 9.48362 22.9934 9.20052 23.0048C8.91743 23.0161 8.65203 23.0275 8.40432 23.0388C8.15662 23.0502 7.97378 23.0559 7.85583 23.0559C7.83224 23.1921 7.80276 23.3283 7.76737 23.4646C7.73197 23.6008 7.70249 23.7598 7.6789 23.9414C7.65531 24.1231 7.63172 24.3558 7.60813 24.6396C7.58454 24.9235 7.56095 25.2698 7.53736 25.6785C7.51377 26.4732 7.49606 27.3417 7.48428 28.2841C7.47247 29.2264 7.46659 30.1176 7.46659 30.9578V34.1935H8.10354C8.48099 34.1935 8.89974 34.1821 9.35977 34.1594C9.81979 34.1367 10.2975 34.1083 10.7929 34.0743C11.2883 34.0402 11.7012 33.989 12.0315 33.921C12.8808 33.7393 13.553 33.5009 14.0485 33.2057C14.5439 32.9105 14.9331 32.5586 15.2163 32.1499C15.4993 31.7411 15.6999 31.2927 15.8178 30.8045C15.9358 30.3163 16.0419 29.7884 16.1362 29.2207H16.561V40.188H16.1362C15.9476 39.4614 15.6763 38.695 15.3224 37.8889C14.9686 37.0829 14.5439 36.4642 14.0485 36.0327C13.6003 35.6467 13.1225 35.3571 12.6153 35.1642C12.1081 34.9712 11.5125 34.8519 10.8283 34.8065C10.4744 34.7838 10.1678 34.7668 9.90826 34.7555C9.64876 34.744 9.40105 34.7385 9.16514 34.7385H7.46659V38.9619C7.46659 39.5976 7.47247 40.1824 7.48428 40.716C7.49606 41.2495 7.50197 41.7094 7.50197 42.0954C7.52556 42.822 7.56684 43.5088 7.62582 44.156C7.68479 44.8031 7.82045 45.2856 8.03277 45.6036C8.24508 45.9214 8.60485 46.1655 9.11206 46.3358C9.61927 46.5062 10.3565 46.6139 11.3237 46.6594V47H0V46.6594C0.58978 46.5686 1.13827 46.421 1.64548 46.2167C2.15269 46.0123 2.57143 45.7285 2.9017 45.3651C3.01965 45.2289 3.11402 45.0302 3.1848 44.769C3.25557 44.508 3.32045 44.2071 3.37942 43.8664C3.4384 43.5258 3.47968 43.1682 3.50327 42.7936C3.52686 42.4189 3.53867 42.05 3.53867 41.6867C3.53867 41.3688 3.54457 40.9374 3.55636 40.3924C3.56816 39.8474 3.57995 39.2513 3.59175 38.6042C3.60354 37.957 3.60944 37.293 3.60944 36.6117V27.9945C3.60944 27.5858 3.60354 27.1658 3.59175 26.7343C3.57995 26.3029 3.55636 25.8942 3.52097 25.5082C3.48558 25.1222 3.42661 24.7759 3.34404 24.4693C3.26146 24.1628 3.14941 23.9414 3.00786 23.8052C2.65399 23.4419 2.27654 23.2091 1.87549 23.1069C1.47445 23.0048 0.955442 22.9083 0.31848 22.8174V22.4768H19.9935L22.3998 28.1989ZM61.0655 47V46.6594C61.1363 46.6594 61.3073 46.6367 61.5786 46.5913C61.8499 46.5458 62.1331 46.4664 62.4279 46.3529C62.7228 46.2393 62.9823 46.0804 63.2064 45.8761C63.4305 45.6717 63.5426 45.4106 63.5426 45.0926C63.5426 44.8883 63.4777 44.5533 63.3479 44.0879C63.2182 43.6224 63.0354 43.0548 62.7995 42.3849C62.5636 41.715 62.2923 40.9714 61.9856 40.1539C61.6789 39.3365 61.3486 38.485 60.9948 37.5994H51.5819C51.2281 38.4623 50.886 39.2855 50.5557 40.0688C50.2255 40.8521 49.8952 41.6412 49.5648 42.436C49.0695 43.6621 48.8218 44.525 48.8218 45.0245C48.8218 45.3198 48.9161 45.5638 49.1048 45.7568C49.2936 45.9498 49.5353 46.1088 49.8303 46.2337C50.1252 46.3586 50.4436 46.4494 50.7857 46.5061C51.1278 46.5629 51.4521 46.6139 51.7588 46.6594V47H44.2215V46.6254C44.8349 46.5573 45.3598 46.3983 45.7963 46.1485C46.2326 45.8987 46.4863 45.7285 46.557 45.6376C46.7222 45.4787 46.9934 45.104 47.3709 44.5136C47.7484 43.9232 48.2084 43.049 48.751 41.891C49.2464 40.8238 49.8008 39.609 50.4141 38.2465C51.0275 36.8842 51.6586 35.482 52.3074 34.0402C52.9561 32.5983 53.599 31.1451 54.2359 29.6805C54.8728 28.2159 55.4745 26.8479 56.0406 25.5763L55.6868 24.827C56.1114 24.6453 56.4947 24.4296 56.8368 24.1798C57.1789 23.9301 57.4797 23.6689 57.7392 23.3965C57.9987 23.124 58.217 22.8629 58.3939 22.6131C58.5708 22.3633 58.7064 22.1589 58.8007 22H59.0839C59.8151 23.8847 60.5111 25.6728 61.1717 27.3644C61.8322 29.0561 62.4633 30.6853 63.0649 32.252C63.6664 33.8188 64.2503 35.3344 64.8165 36.799C65.3827 38.2637 65.9489 39.7112 66.5151 41.1417C66.7746 41.8456 67.0164 42.4302 67.2405 42.8958C67.4646 43.3613 67.7183 43.8892 68.0013 44.4795C68.0485 44.5704 68.1546 44.7293 68.3198 44.9564C68.4849 45.1835 68.7032 45.4162 68.9744 45.6546C69.2458 45.8931 69.5819 46.1031 69.983 46.2848C70.384 46.4664 70.8559 46.5686 71.3985 46.5913V47H61.0655ZM56.4299 26.3597C56.2883 26.6549 56.0819 27.1203 55.8107 27.7561C55.5393 28.3919 55.2031 29.1639 54.8021 30.0722C54.401 30.9805 53.9587 32.0079 53.4751 33.1546C52.9915 34.3013 52.4665 35.5445 51.9004 36.8842H60.7117C60.3106 35.8624 59.9037 34.8406 59.4909 33.8188C59.0779 32.797 58.6769 31.8149 58.2876 30.8726C57.8984 29.9303 57.5446 29.0674 57.2261 28.2841C56.9076 27.5007 56.6422 26.8592 56.4299 26.3597ZM106.207 47H95.4849V46.6594C96.0747 46.5686 96.6232 46.421 97.1303 46.2167C97.6376 46.0123 98.0682 45.717 98.422 45.3311C98.54 45.1949 98.6285 45.0018 98.6874 44.752C98.7464 44.5023 98.7936 44.2071 98.8289 43.8664C98.8644 43.5258 98.8879 43.1682 98.8997 42.7936C98.9115 42.4189 98.9175 42.05 98.9175 41.6867C98.9175 41.3688 98.9233 40.9374 98.9352 40.3924C98.947 39.8474 98.9587 39.2513 98.9705 38.6042C98.9823 37.957 98.9882 37.293 98.9882 36.6117V26.7684C98.9882 26.3597 98.9705 25.9793 98.9352 25.6274C98.8997 25.2754 98.8467 24.9575 98.7759 24.6737C98.7051 24.3899 98.599 24.1685 98.4574 24.0095C98.1272 23.6235 97.7202 23.3454 97.2366 23.1751C96.753 23.0048 96.2044 22.8856 95.5911 22.8174V22.4768H106.172V22.8174C105.676 22.8856 105.146 23.0104 104.579 23.1921C104.013 23.3738 103.577 23.7371 103.27 24.282C103.058 24.668 102.946 25.1562 102.934 25.7466C102.922 26.337 102.904 26.8933 102.881 27.4155C102.881 27.9832 102.875 28.5452 102.863 29.1015C102.851 29.6578 102.845 30.2198 102.845 30.7875V42.1975C102.845 42.8561 102.857 43.4918 102.881 44.1049C102.904 44.718 103.01 45.1494 103.199 45.3992C103.482 45.7852 103.931 46.0804 104.544 46.2848C105.157 46.489 105.712 46.6139 106.207 46.6594V47ZM159.771 47H152.516C152.304 46.7956 152.151 46.6424 152.056 46.5402C151.962 46.438 151.856 46.3188 151.738 46.1826C151.62 46.0463 151.473 45.8476 151.296 45.5865C151.118 45.3254 150.841 44.9337 150.464 44.4114C150.016 43.7756 149.621 43.2023 149.278 42.6914C148.937 42.1805 148.588 41.6754 148.235 41.1757C147.881 40.6762 147.497 40.171 147.084 39.6601C146.671 39.1492 146.182 38.5758 145.616 37.94C145.144 37.4179 144.631 36.9296 144.077 36.4755C143.522 36.0213 142.938 35.7375 142.326 35.6239C141.877 35.5331 141.534 35.4877 141.299 35.4877C141.086 35.4877 140.815 35.4764 140.485 35.4537V39.3025C140.485 40.3924 140.497 41.312 140.521 42.0613C140.543 42.788 140.567 43.4124 140.591 43.9346C140.615 44.4569 140.745 44.8883 140.98 45.2289C141.169 45.524 141.534 45.8249 142.077 46.1314C142.619 46.438 143.375 46.6139 144.342 46.6594V47H133.019V46.6594C133.608 46.5686 134.174 46.4324 134.717 46.2507C135.259 46.069 135.684 45.7965 135.991 45.4332C136.108 45.297 136.204 45.0926 136.274 44.8201C136.345 44.5477 136.398 44.2412 136.433 43.9006C136.469 43.56 136.497 43.1967 136.521 42.8106C136.545 42.4246 136.557 42.05 136.557 41.6867C136.557 41.3688 136.563 40.9374 136.575 40.3924C136.587 39.8474 136.599 39.2513 136.61 38.6042C136.622 37.957 136.628 37.293 136.628 36.6117V27.9945C136.628 27.5858 136.622 27.1714 136.61 26.7514C136.599 26.3313 136.575 25.9339 136.539 25.5593C136.503 25.1846 136.445 24.844 136.362 24.5375C136.28 24.2309 136.168 24.0095 136.026 23.8733C135.672 23.51 135.277 23.2659 134.84 23.141C134.405 23.0161 133.867 22.9083 133.231 22.8174V22.4768H134.682C135.484 22.4768 136.392 22.4712 137.406 22.4598C138.421 22.4485 139.435 22.4428 140.449 22.4428H142.926C144.507 22.4428 145.911 22.4882 147.138 22.579C148.364 22.6698 149.485 22.9764 150.5 23.4986C151.537 24.0209 152.375 24.7305 153.012 25.6274C153.649 26.5243 153.968 27.6539 153.968 29.0163C153.968 29.8565 153.808 30.6115 153.489 31.2813C153.17 31.9512 152.747 32.5415 152.215 33.0525C151.685 33.5634 151.066 34.0005 150.358 34.3638C149.65 34.727 148.907 35.0336 148.129 35.2833V35.3856C148.53 35.5899 148.919 35.8851 149.296 36.2711C149.674 36.6571 150.039 37.0886 150.393 37.5654C151.007 38.4282 151.673 39.3592 152.392 40.3583C153.112 41.3574 153.755 42.243 154.321 43.015C155.194 44.1957 156.043 45.0586 156.869 45.6036C157.695 46.1485 158.662 46.5005 159.771 46.6594V47ZM149.898 28.812C149.898 27.6767 149.603 26.6662 149.013 25.7807C148.424 24.8951 147.562 24.1912 146.43 23.6689C145.864 23.4192 145.268 23.2375 144.643 23.124C144.017 23.0104 143.363 22.9537 142.679 22.9537C142.184 22.9537 141.782 22.965 141.476 22.9877C141.169 23.0104 140.934 23.0332 140.768 23.0559C140.745 23.1921 140.721 23.3113 140.697 23.4135C140.673 23.5157 140.657 23.6462 140.645 23.8052C140.633 23.9641 140.621 24.1855 140.609 24.4693C140.597 24.7532 140.579 25.1562 140.555 25.6785C140.532 26.4732 140.515 27.3701 140.503 28.3692C140.491 29.3683 140.485 30.3333 140.485 31.2643V35.011C141.452 35.011 142.354 34.9712 143.192 34.8917C144.029 34.8123 144.837 34.6476 145.616 34.3979C146.37 34.1707 147.02 33.8642 147.562 33.4782C148.105 33.0922 148.547 32.6551 148.889 32.1669C149.232 31.6787 149.485 31.1508 149.65 30.5831C149.816 30.0154 149.898 29.4251 149.898 28.812ZM207 40.4945L205.231 47H183.575V46.6594C184.163 46.5686 184.712 46.421 185.22 46.2167C185.727 46.0123 186.145 45.7285 186.476 45.3651C186.594 45.2289 186.688 45.0302 186.759 44.769C186.829 44.508 186.895 44.2071 186.953 43.8664C187.013 43.5258 187.054 43.1682 187.077 42.7936C187.101 42.4189 187.113 42.05 187.113 41.6867C187.113 41.3688 187.118 40.9374 187.13 40.3924C187.142 39.8474 187.154 39.2513 187.166 38.6042C187.178 37.957 187.184 37.293 187.184 36.6117C187.184 35.9079 187.184 35.2493 187.184 34.6362V27.9945C187.184 27.5858 187.178 27.1658 187.166 26.7343C187.154 26.3029 187.13 25.8942 187.095 25.5082C187.06 25.1222 187.001 24.7759 186.919 24.4693C186.835 24.1628 186.724 23.9414 186.582 23.8052C186.229 23.4419 185.85 23.2091 185.449 23.1069C185.048 23.0048 184.53 22.9083 183.892 22.8174V22.4768H203.426L205.832 28.0967L205.478 28.267C203.568 25.9736 201.775 24.4296 200.1 23.6349C199.699 23.4532 198.956 23.2943 197.871 23.158C196.786 23.0218 195.464 22.9537 193.907 22.9537C193.412 22.9537 192.898 22.9707 192.367 23.0048C191.837 23.0388 191.454 23.0786 191.218 23.124C191.17 23.4873 191.129 24.2366 191.093 25.3719C191.059 26.5073 191.041 27.8242 191.041 29.3229C191.041 30.1857 191.041 30.9123 191.041 31.5027C191.041 32.0931 191.047 32.5756 191.059 32.9503C191.071 33.3249 191.076 33.6144 191.076 33.8188C191.076 34.0005 191.076 34.1254 191.076 34.1935C191.194 34.1935 191.43 34.1935 191.784 34.1935C192.138 34.1935 192.544 34.1821 193.005 34.1594C193.464 34.1367 193.924 34.1083 194.385 34.0743C194.844 34.0402 195.228 33.989 195.535 33.921C196.242 33.762 196.832 33.5463 197.304 33.2738C197.775 33.0014 198.16 32.6721 198.455 32.2861C198.749 31.9001 198.985 31.4516 199.161 30.9407C199.339 30.4298 199.498 29.8565 199.64 29.2207H200.064V39.9496H199.64C199.45 39.223 199.161 38.4737 198.772 37.7017C198.383 36.9296 197.976 36.3506 197.552 35.9645C197.175 35.6467 196.72 35.3856 196.19 35.1812C195.659 34.9768 195.039 34.8519 194.331 34.8065C193.978 34.7838 193.683 34.7668 193.447 34.7555C193.211 34.744 192.975 34.7385 192.74 34.7385C192.527 34.7385 192.291 34.7385 192.032 34.7385C191.795 34.7385 191.489 34.7385 191.111 34.7385C191.065 35.0563 191.041 35.5218 191.041 36.1349C191.041 36.748 191.041 37.3837 191.041 38.0423C191.041 38.3374 191.041 38.678 191.041 39.064C191.041 39.45 191.041 39.8361 191.041 40.222C191.041 40.5854 191.047 40.9317 191.059 41.261C191.071 41.5901 191.076 41.8683 191.076 42.0954C191.099 42.822 191.141 43.5088 191.2 44.156C191.258 44.8031 191.394 45.2856 191.607 45.6036C191.819 45.9214 192.327 46.1485 193.129 46.2848C193.93 46.421 194.804 46.489 195.747 46.489C196.148 46.489 196.661 46.4777 197.286 46.455C197.911 46.4324 198.567 46.3756 199.251 46.2848C200.005 46.1939 200.701 46.018 201.338 45.7568C201.975 45.4957 202.589 45.1267 203.178 44.6499C203.768 44.173 204.34 43.5883 204.894 42.8958C205.449 42.2032 206.021 41.3688 206.611 40.3924L207 40.4945Z" fill="black"/>
</svg>
