<svg width="174" height="21" viewBox="0 0 174 21" fill="none" xmlns="http://www.w3.org/2000/svg">
<path fill-rule="evenodd" clip-rule="evenodd" d="M18.8288 5.20708L18.5313 5.35014C17.7183 4.37738 16.9449 3.54769 16.2112 2.86104C15.4775 2.17438 14.7636 1.66894 14.0695 1.34469C13.7324 1.1921 13.1226 1.06335 12.2402 0.958447C11.3577 0.853542 10.3315 0.80109 9.16155 0.80109C8.96324 0.80109 8.7352 0.805858 8.47741 0.815395C8.21961 0.824932 7.97174 0.834469 7.73377 0.844005C7.49581 0.853542 7.27272 0.863079 7.0645 0.872616C6.85629 0.882153 6.7026 0.886921 6.60345 0.886921C6.58362 1.00136 6.55884 1.1158 6.52909 1.23025C6.49934 1.34469 6.47456 1.4782 6.45473 1.63079C6.4349 1.78338 6.41507 1.97888 6.39524 2.2173C6.37541 2.45572 6.35558 2.74659 6.33575 3.08992C6.31592 3.7575 6.30104 4.48705 6.29113 5.27861C6.28121 6.07017 6.27626 6.8188 6.27626 7.52452V10.2425H6.81167C7.12895 10.2425 7.48094 10.233 7.86763 10.2139C8.25432 10.1948 8.65588 10.171 9.07231 10.1424C9.48875 10.1138 9.83577 10.0708 10.1134 10.0136C10.8273 9.86103 11.3924 9.66076 11.8089 9.41281C12.2253 9.16485 12.5525 8.86921 12.7905 8.52589C13.0284 8.18256 13.197 7.80586 13.2961 7.39578C13.3953 6.98569 13.4845 6.54224 13.5638 6.06539H13.9208V15.2779H13.5638C13.4052 14.6676 13.1772 14.0238 12.8797 13.3467C12.5823 12.6696 12.2253 12.1499 11.8089 11.7875C11.4321 11.4632 11.0305 11.22 10.6042 11.0579C10.1778 10.8958 9.67714 10.7956 9.10206 10.7575C8.8046 10.7384 8.54681 10.7241 8.32868 10.7146C8.11055 10.705 7.90233 10.7003 7.70403 10.7003H6.27626V14.248C6.27626 14.782 6.28121 15.2732 6.29113 15.7214C6.30104 16.1696 6.306 16.5559 6.306 16.8801C6.32583 17.4905 6.36053 18.0674 6.41011 18.611C6.45968 19.1546 6.57371 19.5599 6.75218 19.827C6.93065 20.094 7.23306 20.299 7.65941 20.4421C8.08576 20.5852 8.70545 20.6757 9.51849 20.7139V21H0V20.7139C0.495757 20.6376 0.956805 20.5136 1.38316 20.342C1.80951 20.1703 2.16149 19.9319 2.43911 19.6267C2.53826 19.5123 2.61758 19.3454 2.67708 19.126C2.73657 18.9067 2.7911 18.654 2.84067 18.3678C2.89025 18.0817 2.92495 17.7813 2.94478 17.4666C2.96461 17.1519 2.97453 16.842 2.97453 16.5368C2.97453 16.2698 2.97949 15.9074 2.9894 15.4496C2.99932 14.9918 3.00923 14.4911 3.01915 13.9475C3.02906 13.4039 3.03402 12.8461 3.03402 12.2738V5.03542C3.03402 4.6921 3.02906 4.33924 3.01915 3.97684C3.00923 3.61444 2.9894 3.27112 2.95966 2.94687C2.92991 2.62261 2.88034 2.33175 2.81093 2.07425C2.74152 1.81676 2.64733 1.63079 2.52835 1.51635C2.23089 1.21117 1.91361 1.01567 1.5765 0.929837C1.23939 0.844005 0.803125 0.762943 0.267708 0.686648V0.400545H16.8061L18.8288 5.20708ZM51.3304 21V20.7139C51.3899 20.7139 51.5337 20.6948 51.7617 20.6567C51.9898 20.6185 52.2278 20.5518 52.4756 20.4564C52.7235 20.361 52.9416 20.2275 53.13 20.0559C53.3184 19.8842 53.4126 19.6649 53.4126 19.3978C53.4126 19.2262 53.3581 18.9448 53.249 18.5538C53.1399 18.1628 52.9863 17.686 52.788 17.1233C52.5897 16.5606 52.3616 15.936 52.1038 15.2493C51.846 14.5627 51.5684 13.8474 51.271 13.1035H43.3587C43.0613 13.8283 42.7737 14.5198 42.4961 15.1778C42.2185 15.8358 41.9409 16.4986 41.6632 17.1662C41.2468 18.1962 41.0386 18.921 41.0386 19.3406C41.0386 19.5886 41.1179 19.7936 41.2765 19.9557C41.4352 20.1178 41.6384 20.2514 41.8863 20.3563C42.1342 20.4612 42.4019 20.5375 42.6894 20.5851C42.977 20.6328 43.2496 20.6757 43.5074 20.7139V21H37.1717V20.6853C37.6873 20.6281 38.1285 20.4946 38.4954 20.2847C38.8622 20.0749 39.0754 19.9319 39.1349 19.8556C39.2737 19.7221 39.5017 19.4074 39.819 18.9114C40.1363 18.4155 40.523 17.6812 40.9791 16.7084C41.3955 15.812 41.8615 14.7916 42.3771 13.6471C42.8927 12.5027 43.4232 11.3249 43.9685 10.1138C44.5138 8.90258 45.0542 7.68189 45.5896 6.45163C46.125 5.22138 46.6307 4.07221 47.1066 3.00409L46.8092 2.37466C47.1661 2.22207 47.4883 2.04087 47.7759 1.83106C48.0634 1.62125 48.3163 1.40191 48.5344 1.17302C48.7525 0.94414 48.936 0.724797 49.0847 0.514986C49.2334 0.305176 49.3474 0.133516 49.4267 0H49.6647C50.2794 1.58311 50.8644 3.08514 51.4197 4.50613C51.9749 5.92712 52.5054 7.29563 53.0111 8.61172C53.5167 9.9278 54.0075 11.2009 54.4834 12.4312C54.9594 13.6615 55.4353 14.8774 55.9112 16.079C56.1294 16.6703 56.3326 17.1614 56.521 17.5525C56.7094 17.9435 56.9226 18.3869 57.1605 18.8828C57.2002 18.9591 57.2894 19.0926 57.4282 19.2834C57.567 19.4741 57.7505 19.6696 57.9785 19.8699C58.2066 20.0702 58.4891 20.2466 58.8263 20.3992C59.1634 20.5518 59.56 20.6376 60.0161 20.6567V21H51.3304ZM47.4338 3.66213C47.3148 3.91008 47.1413 4.30109 46.9133 4.83515C46.6852 5.36921 46.4026 6.01771 46.0655 6.78065C45.7284 7.5436 45.3566 8.40667 44.9501 9.36989C44.5436 10.3331 44.1023 11.3774 43.6264 12.5027H51.033C50.6959 11.6444 50.3538 10.7861 50.0068 9.92779C49.6597 9.06948 49.3226 8.24455 48.9954 7.453C48.6682 6.66144 48.3708 5.93665 48.1031 5.27861C47.8354 4.62057 47.6123 4.08175 47.4338 3.66213ZM89.2755 21H80.2627V20.7139C80.7584 20.6376 81.2195 20.5136 81.6458 20.342C82.0722 20.1703 82.4341 19.9223 82.7315 19.5981C82.8307 19.4837 82.9051 19.3215 82.9546 19.1117C83.0042 18.9019 83.0439 18.654 83.0736 18.3678C83.1034 18.0817 83.1232 17.7813 83.1331 17.4666C83.143 17.1519 83.148 16.842 83.148 16.5368C83.148 16.2698 83.1529 15.9074 83.1629 15.4496C83.1728 14.9918 83.1827 14.4911 83.1926 13.9475C83.2025 13.4039 83.2075 12.8461 83.2075 12.2738V4.00545C83.2075 3.66212 83.1926 3.34264 83.1629 3.047C83.1331 2.75136 83.0885 2.48433 83.029 2.24591C82.9695 2.00749 82.8803 1.82153 82.7613 1.68801C82.4837 1.36376 82.1416 1.13011 81.7351 0.987057C81.3286 0.844005 80.8675 0.743869 80.3519 0.686648V0.400545H89.2458V0.686648C88.8293 0.743869 88.3832 0.848773 87.9072 1.00136C87.4313 1.15395 87.0644 1.45913 86.8067 1.91689C86.6282 2.24115 86.534 2.65122 86.5241 3.14714C86.5142 3.64305 86.4993 4.11035 86.4795 4.54905C86.4795 5.02589 86.4745 5.49795 86.4646 5.96526C86.4547 6.43256 86.4497 6.90463 86.4497 7.38147V16.9659C86.4497 17.5191 86.4596 18.0531 86.4795 18.5681C86.4993 19.0831 86.5885 19.4455 86.7472 19.6553C86.9851 19.9796 87.3619 20.2275 87.8775 20.3992C88.3931 20.5708 88.8591 20.6757 89.2755 20.7139V21ZM134.3 21H128.202C128.024 20.8283 127.895 20.6996 127.815 20.6138C127.736 20.5279 127.647 20.4278 127.548 20.3134C127.449 20.1989 127.325 20.032 127.176 19.8127C127.027 19.5933 126.794 19.2643 126.477 18.8256C126.1 18.2915 125.768 17.8099 125.48 17.3808C125.193 16.9516 124.9 16.5273 124.603 16.1076C124.306 15.688 123.983 15.2636 123.636 14.8345C123.289 14.4053 122.878 13.9237 122.402 13.3896C122.005 12.951 121.574 12.5409 121.108 12.1594C120.642 11.7779 120.151 11.5395 119.636 11.4441C119.259 11.3678 118.971 11.3297 118.773 11.3297C118.594 11.3297 118.366 11.3202 118.089 11.3011V14.5341C118.089 15.4496 118.099 16.2221 118.119 16.8515C118.138 17.4619 118.158 17.9864 118.178 18.4251C118.198 18.8638 118.307 19.2262 118.505 19.5123C118.664 19.7602 118.971 20.0129 119.427 20.2704C119.883 20.5279 120.518 20.6757 121.331 20.7139V21H111.813V20.7139C112.308 20.6376 112.784 20.5232 113.24 20.3706C113.696 20.218 114.053 19.9891 114.311 19.6839C114.41 19.5695 114.49 19.3978 114.549 19.1689C114.609 18.9401 114.653 18.6826 114.683 18.3965C114.713 18.1104 114.737 17.8052 114.757 17.4809C114.777 17.1567 114.787 16.842 114.787 16.5368C114.787 16.2698 114.792 15.9074 114.802 15.4496C114.812 14.9918 114.822 14.4911 114.832 13.9475C114.842 13.4039 114.847 12.8461 114.847 12.2738V5.03542C114.847 4.6921 114.842 4.34401 114.832 3.99114C114.822 3.63828 114.802 3.3045 114.772 2.98978C114.742 2.67507 114.693 2.38897 114.623 2.13147C114.554 1.87398 114.46 1.68801 114.341 1.57357C114.043 1.26839 113.711 1.06335 113.344 0.958447C112.978 0.853542 112.526 0.762943 111.991 0.686648V0.400545H113.211C113.885 0.400545 114.648 0.395777 115.501 0.38624C116.354 0.376703 117.206 0.371935 118.059 0.371935H120.141C121.47 0.371935 122.65 0.410081 123.681 0.486376C124.712 0.562671 125.654 0.820161 126.507 1.25886C127.379 1.69755 128.083 2.29359 128.619 3.047C129.154 3.80041 129.422 4.74931 129.422 5.89373C129.422 6.59946 129.288 7.23365 129.02 7.79632C128.752 8.35899 128.396 8.8549 127.949 9.28406C127.503 9.71322 126.983 10.0804 126.388 10.3856C125.793 10.6907 125.168 10.9482 124.514 11.158V11.2439C124.851 11.4155 125.178 11.6635 125.495 11.9877C125.813 12.312 126.12 12.6744 126.417 13.0749C126.933 13.7997 127.493 14.5817 128.098 15.421C128.703 16.2602 129.243 17.0041 129.719 17.6526C130.453 18.6444 131.167 19.3692 131.861 19.827C132.555 20.2847 133.368 20.5804 134.3 20.7139V21ZM126.001 5.72207C126.001 4.76839 125.753 3.91962 125.257 3.17575C124.762 2.43188 124.038 1.8406 123.086 1.40191C122.61 1.1921 122.109 1.03951 121.584 0.944142C121.058 0.848773 120.508 0.80109 119.933 0.80109C119.517 0.80109 119.179 0.810627 118.922 0.8297C118.664 0.848774 118.466 0.867847 118.327 0.886921C118.307 1.00136 118.287 1.1015 118.267 1.18733C118.247 1.27316 118.233 1.38283 118.223 1.51635C118.213 1.64986 118.203 1.83583 118.193 2.07425C118.183 2.31267 118.168 2.65122 118.148 3.08992C118.128 3.7575 118.114 4.51089 118.104 5.35014C118.094 6.18938 118.089 7 118.089 7.78202V10.9292C118.902 10.9292 119.66 10.8958 120.364 10.829C121.068 10.7623 121.747 10.624 122.402 10.4142C123.036 10.2234 123.582 9.96594 124.038 9.64169C124.494 9.31744 124.866 8.95027 125.153 8.54019C125.441 8.13011 125.654 7.68665 125.793 7.20981C125.932 6.73297 126.001 6.23706 126.001 5.72207ZM174 15.5354L172.513 21H154.309V20.7139C154.804 20.6376 155.265 20.5136 155.692 20.342C156.118 20.1703 156.47 19.9319 156.748 19.6267C156.847 19.5123 156.926 19.3454 156.986 19.126C157.045 18.9067 157.1 18.654 157.149 18.3678C157.199 18.0817 157.234 17.7813 157.253 17.4666C157.273 17.1519 157.283 16.842 157.283 16.5368C157.283 16.2698 157.288 15.9074 157.298 15.4496C157.308 14.9918 157.318 14.4911 157.328 13.9475C157.338 13.4039 157.343 12.8461 157.343 12.2738C157.343 11.6826 157.343 11.1294 157.343 10.6144V5.03542C157.343 4.6921 157.338 4.33924 157.328 3.97684C157.318 3.61444 157.298 3.27112 157.268 2.94687C157.239 2.62261 157.189 2.33175 157.12 2.07425C157.05 1.81676 156.956 1.63079 156.837 1.51635C156.54 1.21117 156.222 1.01567 155.885 0.929837C155.548 0.844005 155.112 0.762943 154.576 0.686648V0.400545H170.996L173.018 5.12125L172.721 5.26431C171.115 3.33786 169.608 2.04088 168.2 1.3733C167.863 1.22071 167.238 1.08719 166.326 0.972752C165.414 0.85831 164.303 0.80109 162.994 0.80109C162.578 0.80109 162.146 0.815395 161.7 0.844005C161.254 0.872616 160.932 0.905994 160.734 0.944142C160.694 1.24932 160.659 1.87874 160.629 2.83243C160.6 3.78611 160.585 4.89236 160.585 6.15123C160.585 6.87603 160.585 7.48637 160.585 7.98229C160.585 8.4782 160.59 8.88351 160.6 9.19823C160.61 9.51294 160.615 9.75613 160.615 9.92779C160.615 10.0804 160.615 10.1853 160.615 10.2425C160.714 10.2425 160.912 10.2425 161.21 10.2425C161.507 10.2425 161.849 10.233 162.236 10.2139C162.622 10.1948 163.009 10.171 163.396 10.1424C163.782 10.1138 164.105 10.0708 164.363 10.0136C164.957 9.88011 165.453 9.69891 165.85 9.47003C166.246 9.24114 166.569 8.96458 166.817 8.64033C167.064 8.31607 167.263 7.93938 167.411 7.51022C167.56 7.08106 167.694 6.59946 167.813 6.06539H168.17V15.0777H167.813C167.654 14.4673 167.411 13.8379 167.084 13.1894C166.757 12.5409 166.415 12.0545 166.058 11.7302C165.741 11.4632 165.359 11.2439 164.913 11.0722C164.467 10.9005 163.946 10.7956 163.351 10.7575C163.054 10.7384 162.806 10.7241 162.608 10.7146C162.409 10.705 162.211 10.7003 162.013 10.7003C161.834 10.7003 161.636 10.7003 161.418 10.7003C161.219 10.7003 160.962 10.7003 160.644 10.7003C160.605 10.9673 160.585 11.3583 160.585 11.8733C160.585 12.3883 160.585 12.9223 160.585 13.4755C160.585 13.7234 160.585 14.0095 160.585 14.3338C160.585 14.658 160.585 14.9823 160.585 15.3065C160.585 15.6117 160.59 15.9026 160.6 16.1792C160.61 16.4557 160.615 16.6894 160.615 16.8801C160.634 17.4905 160.669 18.0674 160.719 18.611C160.768 19.1546 160.882 19.5599 161.061 19.827C161.239 20.094 161.666 20.2847 162.34 20.3992C163.014 20.5136 163.748 20.5708 164.541 20.5708C164.878 20.5708 165.309 20.5613 165.835 20.5422C166.36 20.5232 166.911 20.4755 167.486 20.3992C168.12 20.3229 168.705 20.1751 169.241 19.9557C169.776 19.7364 170.292 19.4264 170.787 19.0259C171.283 18.6253 171.764 18.1342 172.23 17.5525C172.696 16.9707 173.177 16.2698 173.673 15.4496L174 15.5354Z" fill="black"/>
</svg>
