<svg width="218" height="64" viewBox="0 0 218 64" fill="none" xmlns="http://www.w3.org/2000/svg">
<g clip-path="url(#clip0_657_6999)">
<path d="M65.6069 17.9338C64.2737 17.2537 62.8087 16.8979 61.3231 16.8936C57.5092 16.8936 53.9885 19.3291 53.9885 24.2626V46.0694C53.9858 46.1822 54.0051 46.2944 54.0455 46.3992C54.0858 46.504 54.1462 46.5992 54.2231 46.679C54.3 46.7588 54.3917 46.8215 54.4927 46.8633C54.5936 46.9052 54.7017 46.9253 54.8104 46.9224H58.1545C58.2632 46.9253 58.3713 46.9052 58.4722 46.8633C58.5732 46.8215 58.6649 46.7588 58.7418 46.679C58.8187 46.5992 58.8791 46.504 58.9194 46.3992C58.9598 46.2944 58.9792 46.1822 58.9764 46.0694V30.174H63.319C63.4277 30.1769 63.5358 30.1567 63.6368 30.1149C63.7378 30.073 63.8295 30.0103 63.9063 29.9305C63.9832 29.8507 64.0437 29.7555 64.084 29.6508C64.1243 29.546 64.1437 29.4338 64.141 29.321V27.2508C64.1437 27.138 64.1243 27.0258 64.084 26.921C64.0437 26.8162 63.9832 26.7211 63.9063 26.6413C63.8295 26.5615 63.7378 26.4988 63.6368 26.4569C63.5358 26.4151 63.4277 26.3949 63.319 26.3978H58.9764V24.2067C58.9464 23.8337 58.996 23.4585 59.1219 23.1077C59.2478 22.7569 59.4467 22.4394 59.7045 22.1776C59.9623 21.9159 60.2727 21.7165 60.6133 21.5936C60.954 21.4707 61.3166 21.4275 61.6752 21.4669C62.3656 21.4834 63.045 21.6495 63.6699 21.9545C63.7651 22.0115 63.8708 22.0473 63.9801 22.0597C64.0894 22.0721 64.2 22.0607 64.3049 22.0264C64.4097 21.992 64.5065 21.9354 64.5892 21.8601C64.6718 21.7848 64.7385 21.6926 64.785 21.5891L65.9589 19.2147C66.0708 18.9953 66.0965 18.7395 66.0309 18.5008C65.9653 18.2621 65.8134 18.059 65.6069 17.9338Z" fill="#1E4D99"/>
<path d="M87.1448 25.4848H83.797C83.6883 25.4819 83.5802 25.502 83.4793 25.5439C83.3783 25.5857 83.2866 25.6485 83.2097 25.7282C83.1328 25.808 83.0724 25.9032 83.0321 26.008C82.9917 26.1128 82.9723 26.225 82.9751 26.3378V28.8956C82.2058 27.6922 81.1442 26.7208 79.8976 26.0792C78.651 25.4377 77.2634 25.1488 75.8748 25.2416C70.0662 25.3027 66.1934 29.6875 66.1934 36.1424C66.1934 42.7195 70.1251 47.2265 76.0514 47.2265C77.4116 47.292 78.7648 46.9896 79.9785 46.3491C81.1922 45.7085 82.2248 44.7518 82.9751 43.5726V46.1316C82.9723 46.2444 82.9917 46.3566 83.0321 46.4614C83.0724 46.5662 83.1328 46.6614 83.2097 46.7412C83.2866 46.821 83.3783 46.8837 83.4793 46.9256C83.5802 46.9674 83.6883 46.9875 83.797 46.9847H87.1448C87.2535 46.9875 87.3616 46.9674 87.4626 46.9256C87.5635 46.8837 87.6553 46.821 87.7321 46.7412C87.809 46.6614 87.8695 46.5662 87.9098 46.4614C87.9501 46.3566 87.9695 46.2444 87.9667 46.1316V26.3378C87.9746 26.2237 87.9587 26.1092 87.9201 26.002C87.8816 25.8948 87.8213 25.7975 87.7434 25.7166C87.6654 25.6357 87.5716 25.5731 87.4684 25.5331C87.3651 25.4931 87.2548 25.4766 87.1448 25.4848ZM82.8611 36.3856C82.8605 37.0193 82.8013 37.6516 82.6844 38.2737C82.4142 39.59 81.7092 40.767 80.6913 41.6009C79.6734 42.4349 78.4066 42.8733 77.1102 42.8405C73.6483 42.8405 71.2427 40.1605 71.2427 36.2633C71.3016 32.4273 73.7072 29.6862 77.1102 29.6862C78.4093 29.6417 79.6816 30.0759 80.7019 30.9117C81.7221 31.7476 82.4244 32.9312 82.6844 34.253C82.8302 34.8703 82.8897 35.5062 82.8611 36.1411V36.3856Z" fill="#1E4D99"/>
<path d="M96.9995 31.2101C96.9995 29.8707 98.1735 29.322 99.8161 29.322C101.685 29.3992 103.512 29.9201 105.156 30.8447C105.359 30.9549 105.595 30.9784 105.815 30.9101C106.034 30.8419 106.219 30.6872 106.33 30.4793L107.386 28.2258C107.479 28.0224 107.495 27.79 107.429 27.5753C107.364 27.3606 107.223 27.1795 107.034 27.0685C104.907 25.8768 102.528 25.2513 100.11 25.248C95.9446 25.248 92.3061 27.3181 92.3061 31.7029C92.2472 39.3151 103.102 37.1839 103.102 41.1421C103.102 42.5426 101.812 43.1511 100.052 43.1511C97.829 43.1014 95.6681 42.3821 93.8321 41.081C93.7304 41.0118 93.6155 40.9661 93.4952 40.9471C93.3749 40.9281 93.2521 40.9362 93.1351 40.9708C93.0181 41.0055 92.9097 41.0659 92.8172 41.148C92.7248 41.2301 92.6504 41.3318 92.5992 41.4464L91.5969 43.5165C91.5157 43.7008 91.4946 43.9076 91.5369 44.1054C91.5792 44.3033 91.6825 44.4814 91.8312 44.6127C94.1735 46.2988 96.9607 47.1921 99.8111 47.1705C104.211 47.1705 107.968 45.0392 107.968 40.6545C107.973 32.9759 96.9995 34.864 96.9995 31.2101Z" fill="#1E4D99"/>
<path d="M121.76 42.6584C121.727 42.5426 121.671 42.4354 121.595 42.3437C121.519 42.252 121.425 42.1779 121.32 42.1262C121.215 42.0746 121.1 42.0465 120.984 42.0439C120.868 42.0413 120.752 42.0641 120.645 42.111C119.993 42.398 119.298 42.563 118.591 42.5986C117.183 42.5986 116.361 41.5583 116.361 39.2489V30.1738H121.473C121.582 30.1767 121.69 30.1565 121.791 30.1147C121.892 30.0728 121.983 30.0101 122.06 29.9303C122.137 29.8505 122.198 29.7553 122.238 29.6506C122.278 29.5458 122.298 29.4336 122.295 29.3208V27.2506C122.298 27.1378 122.278 27.0256 122.238 26.9208C122.198 26.816 122.137 26.7209 122.06 26.6411C121.983 26.5613 121.892 26.4986 121.791 26.4567C121.69 26.4149 121.582 26.3947 121.473 26.3976H116.362V21.3445C116.365 21.2317 116.346 21.1195 116.305 21.0147C116.265 20.9099 116.205 20.8147 116.128 20.735C116.051 20.6552 115.959 20.5924 115.858 20.5506C115.757 20.5087 115.649 20.4886 115.54 20.4915H112.201C112.093 20.4886 111.985 20.5087 111.884 20.5506C111.783 20.5924 111.691 20.6552 111.614 20.735C111.537 20.8147 111.477 20.9099 111.436 21.0147C111.396 21.1195 111.377 21.2317 111.379 21.3445V40.1618C111.379 44.8508 114.078 47.2265 117.599 47.2265C119.158 47.1968 120.687 46.7789 122.058 46.0081C122.24 45.9194 122.382 45.7635 122.458 45.5709C122.535 45.3783 122.538 45.1632 122.469 44.9678L121.76 42.6584Z" fill="#1E4D99"/>
<path d="M169.35 25.3027C162.779 25.3027 158.377 29.6875 158.377 36.2035C158.377 42.7807 162.778 47.1654 169.35 47.1654C175.806 47.1654 180.265 42.7195 180.265 36.2035C180.206 29.6875 175.806 25.3027 169.35 25.3027ZM169.35 42.7807C165.889 42.7807 163.483 40.1006 163.483 36.2646C163.483 32.4286 165.889 29.7486 169.35 29.7486C172.753 29.7486 175.159 32.4286 175.159 36.2646C175.159 40.1006 172.755 42.7807 169.35 42.7807Z" fill="#1E4D99"/>
<path d="M195.111 25.3026C193.824 25.4005 192.584 25.8453 191.514 26.5928C190.443 27.3404 189.58 28.3649 189.008 29.5651V26.2766C189.01 26.1638 188.991 26.0516 188.951 25.9468C188.91 25.842 188.85 25.7468 188.773 25.667C188.696 25.5872 188.604 25.5245 188.503 25.4826C188.402 25.4408 188.294 25.4207 188.186 25.4235H184.842C184.733 25.4207 184.625 25.4408 184.524 25.4826C184.423 25.5245 184.331 25.5872 184.254 25.667C184.177 25.7468 184.117 25.842 184.077 25.9468C184.036 26.0516 184.017 26.1638 184.02 26.2766V46.008C184.017 46.1208 184.036 46.233 184.077 46.3378C184.117 46.4426 184.177 46.5378 184.254 46.6175C184.331 46.6973 184.423 46.7601 184.524 46.8019C184.625 46.8438 184.733 46.8639 184.842 46.861H188.186C188.294 46.8639 188.402 46.8438 188.503 46.8019C188.604 46.7601 188.696 46.6973 188.773 46.6175C188.85 46.5378 188.91 46.4426 188.951 46.3378C188.991 46.233 189.01 46.1208 189.008 46.008V36.6299C189.008 32.9759 191.354 30.4182 195.227 30.357C195.444 30.3524 195.65 30.261 195.803 30.1021C195.956 29.9431 196.045 29.7288 196.049 29.504V26.2766C196.061 26.1457 196.044 26.0137 196.001 25.8901C195.958 25.7665 195.889 25.6542 195.8 25.5613C195.71 25.4683 195.602 25.397 195.483 25.3523C195.364 25.3076 195.237 25.2906 195.111 25.3026Z" fill="#1E4D99"/>
<path d="M217.877 45.6428L210.602 33.7681L216.88 26.9477C216.993 26.8267 217.069 26.6741 217.099 26.5087C217.13 26.3433 217.112 26.1723 217.05 26.0168C216.988 25.8614 216.883 25.7283 216.748 25.634C216.614 25.5397 216.456 25.4883 216.294 25.4862H212.832C212.614 25.4907 212.406 25.5771 212.246 25.7293L203.976 34.3766V17.9949C203.979 17.8821 203.96 17.7699 203.919 17.6651C203.879 17.5603 203.819 17.4651 203.742 17.3853C203.665 17.3056 203.573 17.2428 203.472 17.201C203.371 17.1591 203.263 17.139 203.154 17.1419H199.809C199.7 17.139 199.592 17.1591 199.491 17.201C199.39 17.2428 199.299 17.3056 199.222 17.3853C199.145 17.4651 199.084 17.5603 199.044 17.6651C199.004 17.7699 198.984 17.8821 198.987 17.9949V46.0693C198.984 46.1821 199.004 46.2943 199.044 46.3991C199.084 46.5039 199.145 46.5991 199.222 46.6789C199.299 46.7587 199.39 46.8214 199.491 46.8632C199.592 46.9051 199.7 46.9252 199.809 46.9223H203.154C203.263 46.9252 203.371 46.9051 203.472 46.8632C203.573 46.8214 203.665 46.7587 203.742 46.6789C203.819 46.5991 203.879 46.5039 203.919 46.3991C203.96 46.2943 203.979 46.1821 203.976 46.0693V41.0149L207.145 37.5443L212.485 46.557C212.561 46.6809 212.665 46.7841 212.787 46.8583C212.91 46.9325 213.047 46.9754 213.189 46.9835H217.18C217.328 46.9782 217.472 46.9327 217.599 46.8515C217.725 46.7703 217.828 46.6563 217.899 46.5207C217.969 46.3852 218.004 46.2328 218.001 46.0788C217.997 45.9248 217.954 45.7745 217.877 45.6428Z" fill="#1E4D99"/>
<path d="M155.208 28.1038V26.3991C155.21 26.2863 155.191 26.1741 155.151 26.0693C155.11 25.9645 155.05 25.8693 154.973 25.7896C154.896 25.7098 154.805 25.647 154.704 25.6052C154.603 25.5633 154.494 25.5432 154.386 25.5461H151.043C150.934 25.5432 150.826 25.5633 150.725 25.6052C150.624 25.647 150.533 25.7098 150.456 25.7896C150.379 25.8693 150.318 25.9645 150.278 26.0693C150.238 26.1741 150.218 26.2863 150.221 26.3991V31.7578C150.221 33.8891 150.28 36.0204 150.221 38.1516C150.226 38.9836 149.972 39.7949 149.496 40.4645C149.02 41.1341 148.349 41.626 147.581 41.8667C147.078 42.0088 146.552 42.0375 146.037 41.9508C145.523 41.8641 145.032 41.664 144.599 41.364C144.165 41.0639 143.798 40.671 143.523 40.2115C143.248 39.7521 143.071 39.2368 143.004 38.7004C142.945 38.0918 143.004 37.4819 143.004 36.8799V26.3471C143.007 26.2343 142.988 26.1221 142.947 26.0173C142.907 25.9125 142.847 25.8173 142.77 25.7375C142.693 25.6578 142.601 25.595 142.5 25.5532C142.399 25.5113 142.291 25.4912 142.182 25.4941H138.838C138.73 25.4912 138.621 25.5113 138.521 25.5532C138.42 25.595 138.328 25.6578 138.251 25.7375C138.174 25.8173 138.114 25.9125 138.073 26.0173C138.033 26.1221 138.014 26.2343 138.016 26.3471V31.698C138.016 33.8293 138.075 35.9605 138.016 38.0918C138.017 38.9467 137.748 39.7783 137.25 40.4593C136.753 41.1404 136.053 41.6334 135.26 41.8628C134.756 41.989 134.232 42.0017 133.723 41.8998C133.214 41.7979 132.732 41.5839 132.309 41.2722C131.886 40.9606 131.533 40.5585 131.273 40.093C131.013 39.6276 130.852 39.1097 130.801 38.5742C130.771 38.0064 130.771 37.4373 130.801 36.8695V26.3367C130.804 26.2239 130.784 26.1117 130.744 26.0069C130.703 25.9021 130.643 25.8069 130.566 25.7271C130.489 25.6473 130.398 25.5846 130.297 25.5428C130.196 25.5009 130.088 25.4808 129.979 25.4837H126.573C126.465 25.4808 126.357 25.5009 126.256 25.5428C126.155 25.5846 126.063 25.6473 125.986 25.7271C125.909 25.8069 125.849 25.9021 125.808 26.0069C125.768 26.1117 125.749 26.2239 125.752 26.3367V38.2726C125.763 40.3394 126.465 42.338 127.739 43.9271C129.012 45.5161 130.778 46.5969 132.734 46.9849C134.233 47.2857 135.784 47.1026 137.18 46.4602C138.575 45.8178 139.747 44.747 140.538 43.392C141.139 44.4203 141.96 45.2906 142.938 45.935C143.916 46.5795 145.025 46.9806 146.177 47.1071C148.345 47.2497 150.485 46.5315 152.162 45.0981C153.524 43.9067 154.507 42.3143 154.978 40.5313C155.251 39.2734 155.349 37.9819 155.272 36.6952C155.208 33.828 155.208 30.9659 155.208 28.1038Z" fill="#1E4D99"/>
<path d="M38.0296 39.98L29.462 33.0986L30.284 37.8487L36.1501 42.5378C36.6886 42.9577 37.0583 43.5694 37.1883 44.2553C37.3183 44.9411 37.1993 45.6526 36.8543 46.2529C36.5219 46.8455 35.9956 47.2946 35.371 47.5182C34.7464 47.7418 34.0651 47.7252 33.4513 47.4713H33.3938L26.4701 44.487C25.983 44.8614 25.4505 45.1674 24.8864 45.3972L22.6562 46.3712L32.28 50.5128C32.9853 50.8258 33.743 50.9915 34.5101 51.0004C35.1474 50.9935 35.7805 50.891 36.3896 50.6962C37.7294 50.2093 38.8534 49.2344 39.5531 47.9524C40.2389 46.6487 40.4621 45.1366 40.1836 43.6796C39.9052 42.2227 39.143 40.9133 38.0296 39.98Z" fill="#1E4D99"/>
<path d="M28.1688 35.3504L26.0013 18.3041C25.8176 16.8385 25.1267 15.4923 24.0573 14.5164C22.9878 13.5405 21.613 13.0015 20.189 13C18.7471 13.0143 17.3557 13.5531 16.2573 14.5227C15.194 15.4955 14.5063 16.8352 14.3215 18.2937L12.62 31.6977L2.2922 39.9796C1.17557 40.8934 0.406423 42.1878 0.120884 43.6336C-0.166688 45.0688 0.062892 46.5637 0.766139 47.835C1.46774 49.1164 2.59368 50.09 3.93478 50.5748C4.53697 50.7991 5.17478 50.9024 5.81417 50.8791C6.58121 50.8701 7.33903 50.7044 8.04437 50.3915L23.3576 43.8156C24.9531 43.1619 26.2928 41.9742 27.1644 40.4408C28.0359 38.9073 28.3894 37.1159 28.1688 35.3504ZM17.4313 18.7254C17.5232 18.0342 17.8528 17.4007 18.3594 16.9418C18.866 16.483 19.5153 16.2297 20.1877 16.2288C20.8537 16.2312 21.4958 16.4865 21.9929 16.9464C22.49 17.4063 22.8079 18.0391 22.8865 18.7254L24.177 29.0177C22.959 28.2412 21.5576 27.8302 20.1282 27.8302C18.6988 27.8302 17.2973 28.2412 16.0794 29.0177L17.4313 18.7254ZM6.92802 47.4085C6.30577 47.667 5.61501 47.6863 4.98027 47.4629C4.34553 47.2395 3.80857 46.7881 3.46619 46.1901C3.1272 45.5881 3.01168 44.8784 3.14134 44.1943C3.271 43.5102 3.63692 42.8988 4.17033 42.475L17.3148 32.0007C18.1307 31.3491 19.1313 30.9959 20.1608 30.9959C21.1903 30.9959 22.1909 31.3491 23.0068 32.0007L24.7609 33.4012L25.0541 35.7158C25.1951 36.7794 24.9885 37.8614 24.4672 38.7887C23.9459 39.7161 23.1401 40.4353 22.1786 40.8313L20.1251 41.6844L18.0715 40.8313C17.2031 40.4617 16.4633 39.8272 15.9498 39.0118C15.4364 38.1963 15.1736 37.2384 15.1961 36.2645L12.3795 38.518C12.9577 40.6117 14.3084 42.3841 16.1383 43.4502L6.92802 47.4085Z" fill="#1E4D99"/>
</g>
<defs>
<clipPath id="clip0_657_6999">
<rect width="218" height="64" fill="white"/>
</clipPath>
</defs>
</svg>
