<svg width="151" height="64" viewBox="0 0 151 64" fill="none" xmlns="http://www.w3.org/2000/svg">
<g clip-path="url(#clip0_657_7011)">
<path d="M57.6015 17C54.8846 16.997 52.2234 17.7807 49.9317 19.2587L35.9598 29.6507L28.5953 24.1739C28.1514 24.9034 27.7047 25.6283 27.2771 26.3788C27.174 26.5595 27.0785 26.7424 26.9771 26.9228L33.1327 31.5006L20.2158 41.1062C18.4465 42.2239 16.403 42.8158 14.3177 42.8146C8.15788 42.8146 3.14566 37.7393 3.14566 31.5006C3.14566 25.2616 8.15704 20.1865 14.3177 20.1865C16.403 20.1848 18.4467 20.7767 20.2158 21.8947L21.4997 22.8489C22.0303 21.9203 22.5801 21.0133 23.1353 20.1128L21.9876 19.2593C19.6961 17.781 17.0347 16.9975 14.3177 17.0011C6.41072 17.0009 0 23.4931 0 31.5006C0 39.5081 6.40989 46 14.3177 46C17.1406 46 19.7705 45.1692 21.9876 43.7416L35.9601 33.3502L43.3529 38.8483C43.8058 38.0969 44.2576 37.3429 44.7046 36.5575C44.7931 36.4018 44.8731 36.2473 44.9605 36.0914L38.7877 31.5006L51.7038 21.8947C53.4731 20.7773 55.5167 20.1854 57.6019 20.1865C63.7626 20.1865 68.7739 25.2616 68.7739 31.5006C68.7739 37.7393 63.7626 42.8146 57.6019 42.8146C55.5166 42.8161 53.4728 42.2242 51.7038 41.1062L50.4385 40.1653C49.9098 41.0876 49.3684 42.0025 48.8147 42.9096L49.9329 43.7404C52.2243 45.2189 54.8856 46.0028 57.6027 45.9994C65.5097 45.9994 71.9204 39.5069 71.9204 31.4998C71.9193 23.4922 65.5094 17 57.6015 17Z" fill="#44B74A"/>
<path d="M89.3055 44.8391V35.1875H99.2799V31.1264H89.3055V24.5504H100.231V20.3193H84.1738V44.8391H89.3055Z" fill="black"/>
<path d="M103.951 44.8406H108.896V18.9785H103.951V44.8406Z" fill="black"/>
<path d="M130.308 26.1299H125.363V36.9369C125.363 39.5027 124.038 41.083 121.574 41.083C119.297 41.083 118.124 39.7407 118.124 37.0898V26.1299H113.18V38.3133C113.18 42.6633 115.695 45.2291 119.739 45.2291C122.576 45.2291 124.327 44.0056 125.211 41.8306H125.516V44.8383H130.308V26.1299Z" fill="black"/>
<path d="M142.24 38.6717L145.74 44.8568H151.228L145.299 35.4092L151.195 26.1484H145.79L142.477 32.3675H142.171L138.858 26.1484H133.166L139.079 35.6131L133.217 44.8568H138.45L141.933 38.6717H142.24Z" fill="black"/>
</g>
<defs>
<clipPath id="clip0_657_7011">
<rect width="151" height="64" fill="white"/>
</clipPath>
</defs>
</svg>
