<svg fill="none" height="25" viewBox="0 0 131 25" width="131" xmlns="http://www.w3.org/2000/svg"><path d="m49.6562.00000734c-2.3422-.00257699-4.6363.67302466-6.6119 1.94717266l-12.0447 8.95862-6.3486-4.7214c-.3827.62886-.7678 1.2538-1.1364 1.90081-.0889.15574-.1712.31345-.2586.46895l5.3065 3.94634-11.1352 8.2807c-1.5252.9635-3.2869 1.4738-5.0845 1.4728-5.31019 0-9.63104-4.3753-9.63104-9.7535 0-5.37845 4.32013-9.75351 9.63104-9.75351 1.7976-.00149 3.5594.50877 5.0845 1.47258l1.1068.82262c.4574-.80055.9314-1.58246 1.41-2.35872l-.9894-.7358c-1.9754-1.274377-4.2697-1.94984243-6.6119-1.94668159-6.81635-.00024527-12.3428 5.59648159-12.3428 12.49951159 0 6.903 5.52573 12.4995 12.3428 12.4995 2.4335 0 4.7006-.7162 6.6119-1.9469l12.0452-8.9581 6.3731 4.7397c.3904-.6477.7799-1.2977 1.1652-1.9748.0763-.1342.1453-.2674.2206-.4018l-5.3213-3.9576 11.1345-8.28093c1.5252-.96331 3.2869-1.47353 5.0845-1.47258 5.3109 0 9.631 4.37506 9.631 9.75351 0 5.3782-4.3201 9.7535-9.631 9.7535-1.7977.0013-3.5595-.509-5.0845-1.4728l-1.0908-.8111c-.4558.7951-.9225 1.5838-1.3998 2.3658l.9639.7162c1.9754 1.2745 4.2696 1.9503 6.6119 1.9474 6.8163 0 12.3428-5.597 12.3428-12.4997-.001-6.90306-5.5267-12.49979266-12.3438-12.49979266z" fill="#44b74a"/><g fill="#000"><path d="m76.9873 24v-8.3203h8.5986v-3.501h-8.5986v-5.66893h9.4189v-3.64747h-13.8427v21.1377z"/><path d="m89.6148 24h4.2627v-22.29492h-4.2627z"/><path d="m112.335 7.87207h-4.263v9.31643c0 2.2119-1.142 3.5742-3.266 3.5742-1.963 0-2.974-1.1572-2.974-3.4424v-9.44823h-4.2625v10.50293c0 3.75 2.168 5.9619 5.6545 5.9619 2.446 0 3.955-1.0547 4.717-2.9297h.263v2.5928h4.131z"/><path d="m122.619 18.6826 3.018 5.332h4.731l-5.112-8.1445 5.083-7.98338h-4.659l-2.856 5.36128h-.264l-2.856-5.36128h-4.907l5.097 8.15918-5.053 7.9687h4.511l3.003-5.332z"/></g></svg>