<svg width="162" height="64" viewBox="0 0 162 64" fill="none" xmlns="http://www.w3.org/2000/svg">
<path d="M91.7716 24.7431C91.7716 20.0451 91.8526 15.6711 92.0956 11.6211L79.7026 13.9701V15.1041L80.9176 15.2661C81.8086 15.3471 82.3756 15.6711 82.6996 16.1571C83.0236 16.7241 83.2666 17.5341 83.4286 18.7491C83.5906 21.0981 83.7526 26.4441 83.6716 34.8681C83.6716 43.2111 83.5906 48.4761 83.4286 50.5011C87.8836 51.4731 91.3666 51.8781 93.9586 51.8781C98.8186 51.8781 102.626 50.5011 105.38 47.6661C108.134 44.9121 109.592 41.0241 109.592 36.2451C109.592 32.4381 108.539 29.2791 106.433 26.7681C104.327 24.2571 101.654 23.0421 98.4946 23.0421C96.3886 23.0421 94.2016 23.6091 91.7716 24.7431ZM92.0146 49.6911C91.8526 47.0991 91.6906 39.3231 91.6906 26.6061C92.4196 26.3631 93.3916 26.2011 94.6066 26.2011C96.5506 26.2011 98.0896 27.1731 99.2236 29.1981C100.358 31.2231 100.925 33.6531 100.925 36.7311C100.925 40.5381 100.277 43.6161 98.9806 46.2081C97.6846 48.7191 96.0646 50.0151 94.0396 50.0151C93.3916 49.8531 92.7436 49.7721 92.0146 49.6911ZM33.2086 12.4311H0.808594V14.0511L2.50959 14.2131C3.80559 14.4561 4.6966 14.9421 5.2636 15.6711C5.8306 16.4811 6.1546 17.7771 6.2356 19.5591C6.8836 28.3071 6.8836 36.4881 6.2356 44.0211C6.0736 45.8031 5.7496 47.0991 5.2636 47.9091C4.6966 48.7191 3.80559 49.2051 2.50959 49.3671L0.808594 49.6101V51.2301H21.7066V49.6101L19.5196 49.4481C18.9859 49.4034 18.4668 49.2512 17.9935 49.0007C17.5202 48.7501 17.1025 48.4063 16.7656 47.9901C16.1986 47.1801 15.8746 45.8841 15.7936 44.1021C15.5506 40.8621 15.3886 37.1361 15.3886 33.0051L19.7626 33.0861C22.1116 33.1671 23.7316 34.9491 24.5416 38.5131H26.1616V25.3101H24.5416C23.7316 28.7931 22.1926 30.5751 19.7626 30.6561L15.3886 30.7371C15.3886 23.4471 15.5506 18.2631 15.7936 15.1041H22.1926C26.7286 15.1041 29.8066 18.0201 31.5886 23.8521L33.5326 23.2851L33.2086 12.4311ZM29.4016 37.3791C29.4016 41.5911 30.6166 45.0741 32.9656 47.8281C35.3146 50.5821 38.7976 51.8781 43.1716 51.8781C47.5456 51.8781 51.1096 50.5011 53.7016 47.6661C56.2936 44.9121 57.5086 41.4291 57.5086 37.2171C57.5086 33.0051 56.2936 29.5221 53.9446 26.7681C51.5956 24.0141 48.1126 22.7181 43.7386 22.7181C39.3646 22.7181 35.8006 24.0951 33.2086 26.9301C30.6166 29.6841 29.4016 33.1671 29.4016 37.3791ZM47.4646 28.1451C48.4366 30.4941 48.8416 33.5721 48.8416 37.2981C48.8416 45.8841 47.0596 50.0961 43.5766 50.0961C41.7946 50.0961 40.4176 48.8811 39.4456 46.4511C38.4736 44.0211 38.0686 40.9431 38.0686 37.2981C38.0686 28.7931 39.8506 24.5811 43.3336 24.5811C45.1156 24.5001 46.4926 25.7151 47.4646 28.1451ZM115.91 47.8281C118.583 50.5011 121.985 51.8781 126.035 51.8781C128.546 51.8781 130.733 51.3921 132.677 50.3391C134.621 49.3671 136.16 48.1521 137.213 46.6941L136.403 45.7221C134.621 47.0991 132.596 47.7471 130.247 47.7471C127.007 47.7471 124.496 46.6941 122.795 44.5071C121.013 42.3201 120.203 39.5661 120.365 36.0021H137.699C137.699 32.1141 136.727 28.9551 134.702 26.4441C132.677 24.0141 129.842 22.7991 126.197 22.7991C121.661 22.7991 118.178 24.2571 115.667 27.0921C113.156 29.9271 111.941 33.4101 111.941 37.5411C111.941 41.7531 113.237 45.1551 115.91 47.8281ZM121.904 27.4971C122.795 25.5531 123.929 24.5811 125.468 24.5811C127.898 24.5811 129.113 27.6591 129.113 33.8961L120.527 34.0581C120.608 31.6281 121.013 29.4411 121.904 27.4971ZM159.488 24.2571C157.301 23.2851 154.547 22.7181 151.226 22.7181C147.824 22.7181 145.151 23.6091 143.126 25.3101C141.101 27.0111 140.048 29.1171 140.048 31.6281C140.048 33.8151 140.696 35.5161 141.911 36.7311C143.126 37.9461 145.07 38.9991 147.581 39.8901C149.849 40.7001 151.469 41.5101 152.279 42.2391C153.089 43.0491 153.575 43.9401 153.575 45.1551C153.575 46.2891 153.17 47.3421 152.279 48.1521C151.469 49.0431 150.335 49.4481 148.877 49.4481C145.313 49.4481 142.64 46.8561 140.777 41.6721L139.4 42.0771L139.724 50.1771C142.64 51.3111 145.88 51.8781 149.444 51.8781C153.17 51.8781 156.005 51.0681 158.111 49.3671C160.217 47.7471 161.27 45.3981 161.27 42.4821C161.27 40.5381 160.784 38.9181 159.731 37.7031C158.678 36.4881 156.977 35.4351 154.547 34.4631C151.874 33.4911 150.011 32.6001 149.039 31.7901C148.067 30.9801 147.581 30.0081 147.581 28.7931C147.581 27.5781 147.905 26.6061 148.634 25.7961C149.363 24.9861 150.254 24.6621 151.388 24.6621C154.628 24.6621 156.977 27.0111 158.435 31.6281L159.812 31.2231L159.488 24.2571ZM81.5656 23.5281C80.4316 22.9611 79.2166 22.7181 77.8396 22.7181C76.4626 22.7181 75.0856 23.2851 73.5466 24.4191C72.0076 25.5531 70.8736 27.0921 69.9826 29.1981L70.0636 22.7181L57.7516 25.1481V26.2821L58.9666 26.3631C60.5056 26.5251 61.3966 27.7401 61.5586 29.9271C62.0446 34.9491 62.0446 40.2951 61.5586 45.9651C61.3966 48.1521 60.5056 49.2861 58.9666 49.5291L57.7516 49.6911V51.2301H74.9236V49.6911L72.7366 49.5291C71.1976 49.3671 70.3066 48.1521 70.1446 45.9651C69.6586 41.2671 69.5776 36.2451 69.9826 31.0611C70.4686 30.2511 71.5216 29.7651 73.1416 29.6031C74.7616 29.4411 76.6246 29.9271 78.5686 31.0611L81.5656 23.5281Z" fill="black"/>
</svg>
