<svg xmlns="http://www.w3.org/2000/svg" width="258" height="64" fill="none" viewBox="0 0 258 64"><g fill="#09090c" clip-path="url(#a)"><path d="M49.892 39.136c-.162-6.968-3.97-12.499-9.781-14.66V12.347a23.8 23.8 0 0 0-4.66-2.335v26.092c0 5.168-2.373 7.476-6.187 7.476-3.713 0-6.819-2.833-6.819-7.571 0-5.29 4.08-8.519 9.422-8.519.495-.01.999.017 1.494.095V22.97a8 8 0 0 0-1.494-.12c-7.928 0-14.141 4.91-14.141 13.17 0 7.943 5.607 12.18 11.854 12.18 2.962 0 5.522-1.016 7.29-2.765 1.765-1.748 3.26-4.273 3.26-8.709v-7.227c3.226 1.628 5.171 5.573 5.18 10.087-.017 8.501-7.826 15.686-16.983 15.686-.213 0-.376 0-.589-.01-6.281-.007-11.803-2.3-16.275-6.821a23.38 23.38 0 0 1-6.307-11.905A23.43 23.43 0 0 1 6.47 23.097a23.22 23.22 0 0 1 8.482-10.44 22.87 22.87 0 0 1 12.802-3.92V4c-3.645 0-7.254.724-10.617 2.128a27.8 27.8 0 0 0-9.003 6.064A28.1 28.1 0 0 0 0 31.987c0 7.425 2.918 14.549 8.116 19.804A27.59 27.59 0 0 0 27.728 60h.59c2.261 0 4.514-.353 6.682-1.034.009 0 .017-.01.026-.01a22 22 0 0 0 8.406-4.891c4.156-3.877 6.444-9.001 6.46-14.454.008-.018 0-.466 0-.475M57.316 31.492c0-7.813 5.702-14.102 13.708-14.712.415-.039.83-.039 1.284-.039.415 0 .868 0 1.246.039 5.551.419 9.215 3.506 10.612 5.374l-3.7 3.01c-1.663-2.21-4.268-3.887-8.157-3.924-5.74 0-9.743 4.421-9.743 10.214 0 5.83 4.002 10.328 9.743 10.328 3.097-.039 5.514-.915 7.174-2.172v-4.955H72.12V30.31h12.31v11.548c-2.303 2.172-6.344 4.42-12.121 4.42-8.723-.037-14.992-6.591-14.992-14.786m107.761 14.21V17.383h9.781c3.474 0 6.496.457 9.214 2.172 3.965 2.515 6.419 6.936 6.419 11.968 0 5.069-2.455 9.49-6.419 12.005-2.718 1.715-5.739 2.172-9.214 2.172zm5.174-4.499h4.418c2.417 0 4.456-.19 6.458-1.487 2.53-1.677 4.078-4.764 4.078-8.232 0-3.392-1.548-6.479-4.078-8.156-2.002-1.296-4.041-1.524-6.496-1.524h-4.38zM87.338 35.19c0-6.099 4.795-11.053 11.328-11.053 6.608 0 11.366 4.954 11.366 11.053 0 6.098-4.758 11.09-11.366 11.09-6.571.001-11.328-4.954-11.328-11.09m105.607.069c0-6.099 4.116-11.053 10.423-11.053 3.399 0 5.739 1.448 7.024 3.048h.038l.227-2.44h4.721l.038 20.925h-4.646l-.227-2.63-.075-.038c-1.208 1.752-3.662 3.277-7.024 3.277-6.42.002-10.499-4.991-10.499-11.09m-87.973.007c0-3.773-2.456-6.784-6.306-6.784-3.776 0-6.306 3.011-6.306 6.784 0 3.66 2.53 6.632 6.306 6.632 3.852 0 6.306-2.972 6.306-6.632m105.532-.008c0-3.734-2.417-6.707-6.269-6.707-3.7 0-6.269 2.973-6.269 6.708 0 3.734 2.569 6.707 6.269 6.707 3.853.002 6.269-2.973 6.269-6.708m12.688 7.776c-1.056-1.41-1.359-3.087-1.359-5.297v-8.69h-3.852v-4.231h3.852v-7.813c.152.039.265.076.414.153.755.304 1.549.61 2.266.99.792.42 1.548.839 2.303 1.296v5.374h6.383v4.231h-6.383v8.385c0 1.372.19 2.44.755 3.125.53.724 1.398 1.144 2.493 1.144 1.246 0 2.228-.419 2.793-.838l1.85 3.583c-.906.724-2.906 1.639-5.324 1.639-2.527-.002-4.87-.916-6.191-3.05M112.487 35.19c0-6.099 4.757-11.053 11.328-11.053s11.366 4.954 11.366 11.053c0 6.098-4.795 11.09-11.366 11.09-6.609.001-11.328-4.954-11.328-11.09m17.634.076c0-3.773-2.492-6.784-6.306-6.784s-6.306 3.011-6.306 6.784c0 3.66 2.492 6.632 6.306 6.632s6.306-2.972 6.306-6.632m105.344-.008c0-6.098 4.116-11.052 10.422-11.052 3.4 0 5.741 1.448 7.026 3.048h.036l.228-2.44h4.721l.038 20.925h-4.646l-.226-2.63-.077-.038c-1.208 1.752-3.662 3.277-7.023 3.277-6.421.002-10.499-4.991-10.499-11.09m17.561 0c0-3.734-2.418-6.707-6.27-6.707-3.7 0-6.27 2.973-6.27 6.708 0 3.734 2.57 6.707 6.27 6.707 3.852.002 6.27-2.973 6.27-6.708M144.433 45.67c-4.268-1.487-6.835-5.641-6.835-10.481 0-6.099 4.116-11.053 10.423-11.053 3.399 0 5.739 1.448 7.024 3.048h.038v-12.28l.717.268c.83.343 1.624.686 2.379 1.105.642.343 1.283.686 1.888 1.105V45.67h-4.645l-.227-2.63-.075-.039c-.755 1.067-1.963 2.058-3.55 2.669-1.02.381-2.19.609-3.474.609a11.2 11.2 0 0 1-3.663-.61m10.724-10.481c0-3.735-2.417-6.708-6.269-6.708-3.7 0-6.269 2.973-6.269 6.708 0 3.734 2.569 6.707 6.269 6.707 3.852.001 6.269-2.971 6.269-6.707"/></g><defs><clipPath id="a"><path fill="#fff" d="M0 4h258v56H0z"/></clipPath></defs></svg>