<svg width="181" height="64" viewBox="0 0 181 64" fill="none" xmlns="http://www.w3.org/2000/svg">
<path d="M23.2878 29.685V23.5399H44.1815C44.3947 24.6223 44.5188 25.9126 44.5188 27.308C44.5188 31.9162 43.2369 37.624 39.1147 41.6835C35.1036 45.7988 29.9759 47.9936 23.1789 47.9936C10.5861 47.9958 0 37.8983 0 25.4968C0 13.0953 10.5861 3 23.1789 3C30.1435 3 35.1036 5.68779 38.8361 9.20074L34.4354 13.5347C31.7606 11.0655 28.139 9.14502 23.1811 9.14502C13.9879 9.14502 6.79914 16.4432 6.79914 25.4968C6.79914 34.5504 13.9879 41.8486 23.1811 41.8486C29.1423 41.8486 32.5419 39.4887 34.714 37.3496C36.4856 35.6071 37.65 33.1058 38.1027 29.685H23.2878Z" fill="#4285F4"/>
<path d="M76.3597 33.5075C76.3597 41.8474 69.7305 47.9946 61.5951 47.9946C53.4595 47.9946 46.8301 41.8495 46.8301 33.5075C46.8301 25.112 53.4595 19.0205 61.5951 19.0205C69.7305 19.0205 76.3597 25.112 76.3597 33.5075ZM69.8977 33.5075C69.8977 28.2949 66.0546 24.7283 61.5968 24.7283C57.1397 24.7283 53.2941 28.2949 53.2941 33.5075C53.2941 38.6645 57.1374 42.2868 61.5968 42.2868C66.0523 42.2868 69.8977 38.6645 69.8977 33.5075Z" fill="#EA4335"/>
<path d="M108.571 33.5075C108.571 41.8474 101.942 47.9946 93.8056 47.9946C85.6702 47.9946 79.041 41.8495 79.041 33.5075C79.041 25.112 85.6702 19.0205 93.8056 19.0205C101.942 19.0205 108.571 25.112 108.571 33.5075ZM102.109 33.5075C102.109 28.2949 98.2657 24.7283 93.8079 24.7283C89.3507 24.7283 85.5048 28.2949 85.5048 33.5075C85.5048 38.6645 89.3484 42.2868 93.8079 42.2868C98.2634 42.2868 102.109 38.6645 102.109 33.5075Z" fill="#FBBC05"/>
<path d="M139.446 19.901V45.9108C139.446 56.6105 133.038 61.0003 125.46 61.0003C118.327 61.0003 114.038 56.2804 112.421 52.4395L118.049 50.1354C119.052 52.4952 121.503 55.2945 125.46 55.2945C130.307 55.2945 133.317 52.3302 133.317 46.7896V44.7041H133.094C131.645 46.4595 128.86 47.9963 125.348 47.9963C117.994 47.9963 111.252 41.6863 111.252 33.565C111.252 25.3881 117.994 19.0244 125.348 19.0244C128.86 19.0244 131.645 20.5612 133.094 22.263H133.317V19.901H139.446ZM133.762 33.565C133.762 28.4616 130.309 24.7301 125.906 24.7301C121.448 24.7301 117.716 28.4616 117.716 33.565C117.716 38.6127 121.448 42.2907 125.906 42.2907C130.307 42.2885 133.762 38.6127 133.762 33.565Z" fill="#4285F4"/>
<path d="M150.391 4.67773V47.1165H143.928V4.67773H150.391Z" fill="#34A853"/>
<path d="M175.352 38.281L180.367 41.5732C178.75 43.9331 174.849 47.9926 168.109 47.9926C159.751 47.9926 153.512 41.6268 153.512 33.5056C153.512 24.8893 159.808 19.0186 167.386 19.0186C175.019 19.0186 178.754 25.0007 179.979 28.2372L180.648 29.8833L160.979 37.8952C162.483 40.8038 164.825 42.2848 168.111 42.2848C171.396 42.287 173.681 40.6966 175.352 38.281ZM159.917 33.0683L173.067 27.6906C172.342 25.8795 170.17 24.6171 167.607 24.6171C164.32 24.6192 159.751 27.472 159.917 33.0683Z" fill="#EA4335"/>
</svg>
