<svg xmlns="http://www.w3.org/2000/svg" width="300" height="39" fill="none" viewBox="0 0 300 39"><path fill="#fff" d="M156.693 2.901h3.532l-7.028 26.366h-3.459l-5.666-17.38h-.148l-5.666 17.38h-3.459l-7.322-26.366h3.532l5.556 20.732h.147l5.704-17.197h3.164l5.704 17.197h.147zM159.902 20.246q0-4.161 2.613-6.886 2.649-2.725 6.66-2.725t6.623 2.725q2.65 2.725 2.65 6.886 0 4.197-2.65 6.886-2.613 2.725-6.623 2.725t-6.66-2.727q-2.613-2.724-2.613-6.886m3.386 0q0 2.91 1.692 4.713 1.693 1.803 4.195 1.804 2.502 0 4.195-1.804 1.692-1.804 1.692-4.713 0-2.872-1.692-4.677-1.728-1.84-4.195-1.841t-4.196 1.843q-1.693 1.804-1.693 4.677M184.237 29.267h-3.385V11.224h3.238v2.945h.15q.515-1.435 2.116-2.449t3.146-1.012q1.47 0 2.502.442l-1.034 3.279q-.625-.258-1.987-.258-1.913 0-3.329 1.547-1.416 1.545-1.417 3.607zM209.425 29.267h-4.084l-5.63-8.506-2.759 2.725v5.781h-3.386V2.901h3.386v16.24l7.8-7.917h4.342v.147l-7.028 6.996 7.359 10.753z"/><path fill="#fff" d="M224.077 24.259q0 2.357-2.06 3.977t-5.188 1.62q-2.724 0-4.784-1.418a7.8 7.8 0 0 1-2.943-3.737l3.017-1.289q.662 1.62 1.932 2.522c.807.589 1.78.905 2.778.902q1.62 0 2.704-.7 1.083-.7 1.085-1.657 0-1.729-2.649-2.54l-3.091-.774q-5.26-1.326-5.261-5.083 0-2.467 2.005-3.96 2.007-1.491 5.133-1.49 2.392 0 4.324 1.141t2.703 3.057l-3.016 1.252a3.8 3.8 0 0 0-1.674-1.787 5.26 5.26 0 0 0-2.594-.644 4.34 4.34 0 0 0-2.373.663q-1.052.663-1.052 1.62 0 1.547 2.907 2.21l2.723.7q5.372 1.325 5.372 5.41M235.831 29.857q-1.987 0-3.624-.847-1.637-.848-2.521-2.246h-.15l.15 2.504v7.954h-3.385V11.224h3.238v2.504h.15q.883-1.398 2.521-2.246t3.624-.847q3.568 0 6.034 2.798 2.54 2.837 2.539 6.813 0 4.014-2.539 6.812-2.465 2.799-6.034 2.799m-.552-3.093q2.428 0 4.084-1.841 1.652-1.804 1.652-4.677 0-2.835-1.652-4.677t-4.084-1.841q-2.465 0-4.121 1.841-1.62 1.842-1.619 4.677 0 2.873 1.619 4.713 1.652 1.804 4.121 1.804M253.678 10.635q3.755 0 5.924 2.006 2.17 2.007 2.171 5.506v11.122h-3.238v-2.506h-.15q-2.098 3.094-5.593 3.094-2.98 0-4.986-1.768-2.006-1.767-2.005-4.419 0-2.797 2.115-4.456 2.115-1.657 5.649-1.657 3.017 0 4.967 1.105v-.776q0-1.767-1.398-3.002a4.8 4.8 0 0 0-3.275-1.233q-2.834 0-4.489 2.394l-2.98-1.88q2.464-3.531 7.284-3.531m-4.375 13.114q0 1.325 1.122 2.21 1.122.882 2.629.883 2.133 0 3.808-1.584 1.674-1.583 1.674-3.719-1.583-1.25-4.415-1.252-2.062 0-3.441.994-1.38.995-1.377 2.468M273.249 29.857q-4.011 0-6.66-2.725-2.613-2.797-2.612-6.886 0-4.161 2.612-6.886 2.649-2.725 6.66-2.725 2.76 0 4.82 1.38t3.091 3.812l-3.088 1.289q-1.434-3.388-5.041-3.388-2.318 0-4.01 1.879-1.656 1.878-1.656 4.64 0 2.76 1.656 4.64 1.691 1.878 4.01 1.878 3.717 0 5.225-3.388l3.018 1.29q-.994 2.43-3.11 3.81t-4.912 1.381M291.465 29.857q-3.974 0-6.549-2.725-2.577-2.725-2.576-6.886 0-4.125 2.502-6.868 2.502-2.745 6.402-2.743 4.01 0 6.383 2.595t2.372 7.274l-.037.368h-14.163q.075 2.65 1.766 4.271 1.69 1.62 4.047 1.62 3.238 0 5.078-3.24l3.018 1.473a9 9 0 0 1-3.368 3.572q-2.152 1.288-4.875 1.289m-5.407-11.784h10.336q-.15-1.878-1.527-3.112-1.377-1.233-3.698-1.233-1.914 0-3.293 1.178t-1.821 3.167"/><path fill="#4285f4" d="M15.199 17.704v-4.078h13.637c.151.825.225 1.662.22 2.5 0 3.058-.836 6.844-3.53 9.537-2.618 2.73-5.963 4.187-10.4 4.187C6.91 29.85 0 23.152 0 14.925S6.909 0 15.128 0c4.546 0 7.782 1.784 10.218 4.114l-2.873 2.875c-1.747-1.638-4.109-2.912-7.345-2.912-6 0-10.691 4.841-10.691 10.848s4.69 10.852 10.69 10.852c3.892 0 6.11-1.566 7.528-2.985 1.156-1.157 1.917-2.816 2.212-5.084z"/><path fill="#ea4335" d="M49.835 20.24c0 5.536-4.329 9.61-9.636 9.61-5.308 0-9.636-4.074-9.636-9.61 0-5.57 4.327-9.611 9.637-9.611s9.636 4.04 9.636 9.61m-4.218 0c0-3.457-2.509-5.824-5.418-5.824s-5.419 2.366-5.419 5.824c0 3.422 2.51 5.824 5.419 5.824 2.91 0 5.418-2.404 5.418-5.824"/><path fill="#fbbc04" d="M70.855 20.24c0 5.536-4.325 9.61-9.636 9.61-5.312 0-9.637-4.074-9.637-9.61 0-5.57 4.327-9.611 9.637-9.611s9.636 4.04 9.636 9.61m-4.218 0c0-3.458-2.51-5.825-5.418-5.825-2.91 0-5.419 2.366-5.419 5.824 0 3.422 2.509 5.824 5.419 5.824s5.418-2.404 5.418-5.824"/><path fill="#4285f4" d="M91.008 11.211v17.255c0 7.099-4.182 10.01-9.128 10.01-4.655 0-7.455-3.13-8.51-5.678l3.676-1.529c.654 1.566 2.253 3.422 4.837 3.422 3.163 0 5.127-1.966 5.127-5.643v-1.382h-.146c-.945 1.165-2.763 2.183-5.054 2.183-4.8 0-9.2-4.186-9.2-9.573 0-5.424 4.4-9.647 9.2-9.647 2.291 0 4.109 1.019 5.054 2.148h.146V11.21zm-3.71 9.065c0-3.386-2.252-5.862-5.127-5.862-2.91 0-5.346 2.476-5.346 5.862 0 3.349 2.437 5.787 5.346 5.787 2.873 0 5.127-2.439 5.127-5.787"/><path fill="#34a853" d="M98.152 1.113h-4.218v28.154h4.218z"/><path fill="#ea4335" d="m114.443 23.406 3.273 2.184c-1.051 1.565-3.6 4.26-8.001 4.26-5.454 0-9.527-4.223-9.527-9.61 0-5.712 4.109-9.611 9.054-9.611 4.983 0 7.419 3.968 8.219 6.116l.437 1.092-12.841 5.314c.982 1.93 2.509 2.912 4.655 2.912s3.637-1.052 4.731-2.657m-10.074-3.457 8.583-3.567c-.473-1.202-1.891-2.038-3.564-2.038-2.145 0-5.127 1.893-5.019 5.607"/></svg>