<svg width="64" height="64" viewBox="0 0 64 64" fill="none" xmlns="http://www.w3.org/2000/svg">
<path d="M46.0914 32.7275H18.4551V37.8184H46.0914V32.7275Z" fill="white"/>
<path d="M38.8187 41.4541H18.4551V46.545H38.8187V41.4541Z" fill="white"/>
<path d="M39.5472 16L47.0454 16.3636L55.5472 16L39.5472 0L39.1836 9.76727L39.5472 16Z" fill="#0066DA"/>
<path d="M46.0914 24H18.4551V29.0909H46.0914V24Z" fill="white"/>
<path d="M39.5455 16V0H13.3636C10.9527 0 9 1.95273 9 4.36364V59.6364C9 62.0473 10.9527 64 13.3636 64H51.1818C53.5927 64 55.5455 62.0473 55.5455 59.6364V16H39.5455ZM38.0909 45.8182H19.1818V42.1818H38.0909V45.8182ZM45.3636 37.0909H19.1818V33.4545H45.3636V37.0909ZM45.3636 28.3636H19.1818V24.7273H45.3636V28.3636Z" fill="#2684FC"/>
</svg>
