<svg width="98" height="64" viewBox="0 0 98 64" fill="none" xmlns="http://www.w3.org/2000/svg">
<g clip-path="url(#clip0_657_7038)">
<path d="M68.18 1.94158C71.7038 0.210882 73.4501 0.437999 73.4894 2.19224C73.5365 4.47109 73.1996 7.50152 72.9568 9.69425C71.649 21.6121 69.4641 31.3507 69.2997 43.5872C75.0554 28.6866 79.8793 18.3302 86.097 5.57519C88.0706 1.51089 89.3313 2.27055 90.9522 1.55004C97.264 -1.26121 97.499 0.46155 96.6765 3.89939C93.6147 16.6325 85.7758 56.7235 84.5779 62.8968C84.2332 64.6829 82.2913 63.9257 81.79 63.2273C79.5426 60.1184 77.0054 60.0698 77.2872 58.0024C78.6968 47.7101 83.7712 21.887 85.0947 15.8023C78.3521 29.6254 71.3592 46.906 67.7648 56.7041C67.0051 58.7847 65.619 58.632 64.7578 57.1097C63.5439 54.9712 61.1868 53.8794 60.7952 51.3524C59.5658 43.318 62.2049 28.0037 62.5727 18.3153C58.9002 28.8988 52.7372 49.4463 50.0355 58.7298C48.9236 62.571 45.2116 61.9444 46.1983 58.2005C50.3016 42.6209 59.1429 15.0662 62.9644 5.16011C63.8653 2.82637 66.2222 2.90467 68.18 1.94158Z" fill="#CC071E"/>
<path d="M45.7986 0.0314202C44.6084 -0.258261 41.1549 1.60551 39.0326 1.97349C38.3592 2.09096 37.717 2.80352 37.4899 3.31265C34.0912 11.1201 31.045 18.5625 28.406 25.3425C25.0309 25.9189 21.0842 26.6777 16.6675 27.6698C19.8312 19.5547 23.0263 11.5506 26.1429 3.85286C27.6777 0.0626336 23.6371 -0.297546 22.0708 3.53964C20.0347 8.52801 16.2211 17.8742 12.0001 28.7678C8.89908 29.5281 5.61017 30.3973 2.17233 31.3904C-0.325831 32.1116 -0.427504 32.7772 0.653188 34.2753C1.24829 35.1094 2.47777 35.0254 3.04153 35.6198C4.49815 37.1602 5.38305 39.0027 7.9906 39.2816C5.6648 45.5032 3.33903 51.9192 1.23254 58.0969C-0.0908749 61.9748 3.67576 62.768 5.12458 58.6645C7.45818 52.0498 9.91711 45.3551 12.4465 38.6801C14.553 38.1905 19.6509 37.0926 24.3572 36.0714C20.6219 46.3095 18.1629 54.0849 17.2311 57.8697C17.0589 58.5978 17.3486 59.002 17.5052 59.2988C18.7659 61.1335 19.9641 61.2087 21.5851 63.4773C22.0237 64.0959 23.496 64.4295 23.9971 62.9064C27.4583 52.4513 31.0214 42.6415 34.3417 33.8473C35.7198 33.5459 38.2022 32.9468 39.7214 30.6797C42.423 26.6561 43.1983 27.4722 43.8484 26.2489C44.6628 24.7133 44.1224 23.2716 41.2408 23.6279C41.2408 23.6279 40.1522 23.7053 38.1396 23.9348C41.3346 15.7084 44.1303 8.73103 46.1428 3.41396C46.8323 1.61331 46.9184 0.297692 45.7986 0.0314202Z" fill="#CC071E"/>
<path d="M41.0844 53.3859C41.8283 55.266 44.1541 54.6967 43.2692 52.4274C42.3685 50.1156 40.129 43.1563 39.5415 40.9142C38.7429 37.8931 42.2041 38.7193 40.45 40.6944C38.9465 42.3928 37.944 43.0733 35.1641 46.3028C32.4782 49.4203 33.2064 53.4658 36.0804 54.3594C39.3223 55.3679 42.1807 51.7955 43.9504 49.1745C45.6654 46.6365 44.0052 45.1479 42.2746 46.6483C41.1626 47.613 39.8783 49.0946 38.5783 49.8934C37.5211 50.5363 36.691 49.8456 38.1007 47.9052C39.7373 45.6585 41.5697 43.776 42.9323 41.6529C45.7123 37.3263 40.215 34.8323 37.85 37.6427C36.5814 39.1408 36.9025 40.6115 37.2471 41.8738C37.8031 43.8956 39.8705 50.35 41.0844 53.3859Z" fill="#CC071E"/>
</g>
<defs>
<clipPath id="clip0_657_7038">
<rect width="97.0161" height="64" fill="white"/>
</clipPath>
</defs>
</svg>
