<svg width="171" height="64" viewBox="0 0 171 64" fill="none" xmlns="http://www.w3.org/2000/svg">
<path fill-rule="evenodd" clip-rule="evenodd" d="M1.05593 21.9501C2.33365 21.9501 3.22402 22.2204 3.77692 22.7727C4.39562 23.3907 4.67261 24.4116 4.67261 26.0823V46.9506C4.67261 49.8383 4.06665 51.1263 0.49029 51.1263H0V52.4069H16.0724V51.1326L15.5874 51.1263C12.0449 51.0838 11.4475 49.8033 11.4475 46.9506V26.0813C11.4475 24.4159 11.7234 23.3993 12.3421 22.7823C12.9003 22.2215 13.8066 21.9491 15.1109 21.9491H16.0713V20.6504H0V21.9491L1.05593 21.9501Z" fill="#091C5A"/>
<path fill-rule="evenodd" clip-rule="evenodd" d="M52.4601 41.7618C52.4601 41.7618 52.181 40.4589 52.1407 39.7296V30.1981C52.0781 24.6399 52.8369 21.8731 47.9721 21.8943V20.6455H59.1629V21.8943C54.1528 21.8742 54.7832 24.641 54.7546 30.1981V52.454L53.1616 52.437L28.9963 27.1747C28.9963 27.1747 29.268 28.4754 29.3083 29.2058V44.8138C29.1714 50.5075 29.8771 51.1956 33.5489 51.1288V52.4296H21.8829V51.1288C25.56 51.133 26.2828 50.6443 26.2785 44.3494V44.7258V29.3437L26.2487 26.9022C26.3856 23.7421 25.2172 21.9092 21.6504 21.9388V20.689H32.3911L52.4601 41.7618Z" fill="#091C5A"/>
<path fill-rule="evenodd" clip-rule="evenodd" d="M92.9708 20.0381H91.7376L91.6803 20.46C91.5965 21.0897 91.3482 22.1445 90.6298 22.1445C90.4249 22.1445 89.9145 22.0481 89.3393 21.7851C86.8411 20.7038 83.6044 20.0381 80.8791 20.0381C75.5761 20.0381 70.7656 21.9357 67.3293 25.3832C64.1732 28.5507 62.4466 32.8622 62.471 37.5213C62.4932 41.9844 64.2495 45.6555 67.845 48.75C71.4671 51.8455 75.5252 53.1654 81.4225 53.1654C86.3349 53.1654 89.1472 52.4603 93.4632 50.1461L94.2189 49.7369V41.4097C94.2189 37.8606 94.6539 37.3082 97.5447 37.1917L98.0149 37.1736V35.9365H83.8919V37.1736L84.362 37.1917C87.5819 37.3168 88.1899 37.8934 88.1899 40.8278V48.5443C85.8011 50.1185 84.065 50.7165 81.8755 50.7165C78.6356 50.7165 75.7523 49.4655 73.5385 47.2563C70.946 44.6643 69.681 40.8892 69.681 36.6234C69.681 32.0279 70.9056 28.1076 73.4292 25.5888C75.4381 23.582 78.1061 22.4679 81.1497 22.4679C83.8686 22.4679 87.0269 23.6329 89.1927 25.3493C90.9544 26.7899 91.8682 28.1839 92.5579 30.4875L92.663 30.8363H93.8686L92.9708 20.0381Z" fill="#091C5A"/>
<path fill-rule="evenodd" clip-rule="evenodd" d="M154.828 52.3227C155.613 52.2039 156.447 52.222 157.072 51.6474C159.725 52.0545 162.414 51.3993 164.5 49.9396C165.599 49.0544 166.588 48.0272 167.39 46.9044C168.095 45.9165 168.65 44.9952 169.01 43.8885C169.278 43.2058 169.491 42.4955 169.651 41.7662C170.408 38.3272 170.009 34.4811 168.889 31.2107C168.685 30.6033 168.449 30.0149 168.195 29.4542C166.796 26.5663 164.892 23.4508 161.961 21.6242C160.31 20.5959 158.79 19.0047 157.857 17.3573C157.35 16.9014 156.864 16.2972 156.209 16.188C156.387 16.4837 156.585 16.7731 156.634 17.1187L156.595 17.1675C155.9 17.1876 155.354 16.8198 154.878 16.3745L155.402 15.8986C155.204 15.7978 154.977 15.7597 154.758 15.7088C152.753 15.4809 151.104 16.4053 149.326 16.8505L149.297 16.9491C150.39 17.4346 150.617 18.6368 151.253 19.4499C151.41 19.2612 151.679 19.399 151.899 19.3821C152.215 19.4001 152.514 19.6291 152.822 19.5485C152.831 19.2835 152.682 19.0725 152.634 18.835C152.822 18.746 153.05 18.8244 153.261 18.835C153.835 19.1711 154.758 18.7757 155.116 19.5485C154.461 19.5898 153.845 19.7276 153.23 19.8771C153.27 20.1252 153.518 20.3224 153.497 20.5715C152.972 20.3531 152.414 20.2153 151.829 20.1464L151.799 20.2344C152.544 21.1068 153.566 21.6242 154.61 21.9305C156.111 22.2772 157.431 21.5638 158.88 21.8118C162.437 23.4391 165.475 27.1612 166.796 30.6934C166.861 30.863 166.923 31.0347 166.982 31.2096C168.089 34.4356 168.299 38.4003 167.19 41.7651C166.6 43.1644 165.951 44.4854 164.909 45.6228C164.515 46.1073 164.08 46.5388 163.607 46.9035C162.117 48.0632 160.278 48.5752 158.383 48.0558C158.264 47.9741 158.025 47.954 158.065 47.7473C158.132 47.4706 158.192 47.1907 158.247 46.9035C158.56 45.2911 158.706 43.5948 158.622 41.8987C158.619 41.8266 158.617 41.7535 158.616 41.6814C158.51 39.2187 158.019 37.0053 157.114 34.8754C156.532 33.6532 155.842 32.3206 154.973 31.1248C153.935 29.699 152.648 28.4671 150.994 27.8523C149.981 27.584 148.73 27.5333 147.965 28.376C147.419 28.8541 147.192 29.4976 147.271 30.2036C146.416 30.7443 145.456 31.0358 144.411 31.1248C144.155 31.1471 143.892 31.2414 143.626 31.2383C143.374 31.25 143.128 31.2394 142.885 31.2096C141.628 31.0549 140.356 30.3764 139.389 29.6026C139.369 29.0862 139.339 28.6007 139.319 28.0547C138.765 27.7675 138.306 27.2216 138.267 26.576L138.316 26.5272C138.635 26.6258 138.911 26.7837 139.2 26.9522C139.07 26.1784 138.92 25.4151 138.535 24.7399C138.177 24.5904 137.819 24.4716 137.483 24.2925C137.096 24.0369 136.846 23.5684 136.789 23.1434C137.135 23.4804 137.741 23.3617 138.009 23.7179C137.541 22.3386 137.534 20.7613 136.768 19.5008C136.38 18.569 135.367 18.1417 134.671 17.458C134.403 17.1293 134.294 16.6735 133.809 16.6226C133.411 16.524 133.381 16.0788 133.312 15.7894C133.559 15.819 133.768 15.9876 133.976 16.0268C133.4 14.5013 132.894 12.803 131.336 11.8309L131.068 12.0005C130.462 12.0896 129.816 12.1299 129.211 12.15C129.479 11.7536 129.955 11.5839 130.332 11.4037C129.896 11.0772 129.535 10.9988 128.988 10.9097C128.672 11.2256 128.098 11.3857 127.69 11.4747L127.638 11.4345C127.628 11.0772 127.548 10.6415 128.086 10.5514C127.568 10.3033 126.712 10.404 126.186 10.5514C126.039 10.9383 125.612 11.286 125.643 11.744C125.336 12.061 125.117 12.4882 124.798 12.7161C124.788 11.9518 125.114 11.2479 125.253 10.6033C124.806 10.7719 124.353 11.0104 123.914 11.2182C123.21 10.8111 122.468 10.4051 121.713 10.0966C121.645 10.0669 121.494 10.0383 121.524 10.1666C122.171 10.632 121.92 11.5065 121.989 12.1691L121.581 11.833C121.383 11.3274 120.81 10.9606 120.711 10.4051C120.035 10.5344 119.603 10.7125 118.978 10.9807L118.891 11.0306C119.357 11.0306 119.754 11.3963 119.982 11.7652C119.277 11.8034 118.651 11.5267 117.956 11.4557C117.887 11.3878 117.827 11.3062 117.717 11.3168C117.37 11.4461 117.071 11.6931 116.765 11.9316C116.08 12.6069 115.384 13.3511 115.057 14.2448C115.286 14.283 115.574 14.2734 115.742 14.4123C115.366 14.6402 115.038 15.0282 114.671 15.2455C114.541 15.7618 114.561 16.3491 114.531 16.9131C114.242 17.3509 113.856 17.7357 113.668 18.2244C113.051 20.2153 112.893 22.4299 112.982 24.6911C112.783 24.8808 112.524 25.0006 112.337 25.1491L112.357 27.1717H112.406C112.495 26.7466 113.002 26.5091 113.31 26.2208H113.41C113.36 26.6767 113.301 27.1336 113.291 27.6L112.716 28.076C112.138 28.5827 112.626 29.3459 112.577 29.982C112.617 30.1485 112.645 30.3977 112.765 30.4379C112.835 30.1898 113.052 30.0118 113.192 29.7922C113.44 29.734 113.658 29.5336 113.886 29.506C113.757 30.0021 113.59 30.4877 113.39 30.9637C113.294 31.0263 113.183 31.11 113.087 31.2118C112.985 31.3209 112.904 31.4428 112.882 31.5785C113.331 33.9288 114.034 36.2505 114.837 38.4629C114.293 39.3863 113.983 40.4728 113.529 41.4258C113.463 41.5584 113.404 41.6952 113.35 41.8329C112.894 42.9863 112.755 44.2764 112.187 45.3843C111.957 45.2274 111.709 45.1056 111.453 44.9973C110.379 44.6401 109.137 44.8681 108.354 45.6928C107.658 45.5635 106.943 45.6822 106.396 46.05C106.005 46.3416 105.702 46.6967 105.528 47.1102C105.409 47.3985 105.355 47.7123 105.373 48.0547C104.927 48.3611 104.689 48.836 104.54 49.3141C104.332 50.3848 104.709 51.5001 105.324 52.3248H154.828V52.3227Z" fill="white"/>
<path fill-rule="evenodd" clip-rule="evenodd" d="M148.253 30.0146C148.243 30.2722 148.056 30.5616 148.224 30.7789C148.462 30.5107 148.861 30.5203 149.178 30.4026C150.061 30.3231 150.906 30.5998 151.729 30.8002C151.522 30.4715 151.382 30.1069 151.153 29.8079C150.696 29.6891 150.001 30.0062 149.923 29.3319C149.644 29.0933 149.206 29.2641 148.92 29.281C148.641 29.4814 148.412 29.7273 148.253 30.0146Z" fill="white"/>
<path fill-rule="evenodd" clip-rule="evenodd" d="M117.897 21.4488C117.893 21.4446 117.887 21.4405 117.883 21.4395C117.883 21.4395 117.883 21.4446 117.885 21.4488H117.897Z" fill="white"/>
<path fill-rule="evenodd" clip-rule="evenodd" d="M121.51 30.2665L122.106 29.6919C122.157 29.6919 122.195 29.7025 122.224 29.7428L122.174 30.8431C122.462 31.1114 122.82 31.2005 123.197 31.2206C123.228 30.9227 123.456 30.7149 123.585 30.4563C123.694 30.2484 123.625 29.9399 123.843 29.7905L123.911 29.8605C123.982 30.1869 123.963 30.5549 124.132 30.8422C124.152 31.0001 124.181 31.1994 124.2 31.3382C124.637 31.3595 125.033 31.2387 125.371 31.0806C125.351 30.7043 125.482 30.3958 125.539 30.0482C125.63 29.9283 125.429 29.711 125.679 29.7216C125.818 30.0184 126.067 30.3258 126.206 30.6429C126.78 30.0577 127.019 29.2943 127.158 28.5014C126.991 28.2714 126.731 28.2714 126.533 28.124C124.845 27.5781 122.677 27.4679 121.049 28.3117C120.944 28.988 121.083 29.7322 121.51 30.2665Z" fill="white"/>
<path fill-rule="evenodd" clip-rule="evenodd" d="M105.727 48.8844C105.666 49.6497 105.727 50.3664 105.774 51.1201C105.935 51.3681 106.223 51.6565 106.508 51.6766L106.56 51.1699C106.678 50.4639 106.301 49.7154 106.699 49.1207C106.977 49.2097 107.253 49.3486 107.494 49.478C107.611 48.8228 107.444 48.0596 106.818 47.6631L105.727 48.8844Z" fill="white"/>
<path fill-rule="evenodd" clip-rule="evenodd" d="M108.178 47.8146C107.791 48.9744 107.502 50.4076 107.971 51.6279C108.238 51.4508 108.517 51.2812 108.753 51.0331C108.705 50.0992 108.576 49.1027 109.131 48.3288C109.617 48.4783 109.947 48.9447 110.133 49.4017C110.462 48.9829 110.572 48.4084 110.442 47.8517C110.462 47.4172 109.964 47.5168 109.726 47.3365C109.807 46.9698 109.795 46.5447 110.183 46.3369L108.992 46.4556C108.685 46.8902 108.348 47.3185 108.178 47.8146Z" fill="white"/>
<path fill-rule="evenodd" clip-rule="evenodd" d="M110.633 51.2398C110.684 51.3309 110.633 51.4879 110.733 51.508C110.882 50.6758 111.557 50.1352 111.925 49.4016C112.103 49.1535 112.092 48.8058 112.381 48.6171C112.769 48.6171 113.047 48.8959 113.425 48.9256C113.544 49.0146 113.363 49.0931 113.355 49.1917C113.276 49.868 113.017 50.4277 113.067 51.121H113.135C113.662 50.5677 114.019 49.9655 114.407 49.3306L114.474 48.7666C114.564 48.0912 113.829 47.6556 113.353 47.3778L113.779 46.8319L113.184 46.623C112.488 46.693 111.862 46.9803 111.376 47.5273C110.772 48.6372 110.673 49.8913 110.633 51.2398Z" fill="white"/>
<path fill-rule="evenodd" clip-rule="evenodd" d="M113.305 45.3529C113.533 45.423 113.741 45.2343 113.968 45.3339C114.883 45.67 115.837 46.0177 116.521 46.782L117.336 48.8545L117.744 47.576L117.475 46.8806C117.247 46.3845 116.621 46.4248 116.193 46.4045C116.016 46.2063 116.204 45.9774 116.264 45.7897C116.471 45.0859 115.608 45.124 115.26 44.8389C115.282 44.4116 114.764 44.56 114.475 44.5197L114.377 44.401C114.318 44.3119 114.17 44.3119 114.089 44.3809C114.068 44.3522 114.03 44.332 114.051 44.2812L113.83 44.3321C113.523 44.6003 113.314 44.947 113.305 45.3529Z" fill="white"/>
<path fill-rule="evenodd" clip-rule="evenodd" d="M113.879 43.0718C113.909 43.2 113.988 43.3294 114.087 43.4079C114.535 43.2891 114.96 42.9828 115.477 43.1694C116.143 43.7546 116.838 44.3694 117.644 44.6884L117.931 44.6375C118.11 44.699 118.307 44.7076 118.427 44.9058C118.538 45.174 118.261 45.333 118.169 45.5504C118.617 45.8779 118.438 46.4641 118.717 46.8595L119.432 45.9076C119.265 45.4899 119.442 44.7764 118.786 44.7372C118.568 44.6269 118.419 44.4086 118.428 44.1605C118.003 43.7736 117.476 43.6061 117.048 43.2097C116.701 42.9308 116.493 42.5036 116.045 42.4049C115.738 42.2375 115.402 42.1474 115.044 42.069C114.376 41.9703 114.317 42.7623 113.879 43.0718Z" fill="white"/>
<path fill-rule="evenodd" clip-rule="evenodd" d="M114.832 41.1172L114.952 41.3058C115.448 41.2751 115.896 41.0578 116.384 41.0674C116.71 41.2666 117.138 41.2571 117.474 41.4246C117.743 41.7914 118.032 42.2081 118.426 42.4571C119.233 42.5748 119.679 43.4388 119.957 44.0727V43.7653C120.076 43.3402 119.946 42.843 119.787 42.4571C119.588 42.2579 119.301 42.1274 119.092 41.9493C119.052 41.8211 119.082 41.7607 119.122 41.6419C118.814 41.3144 118.357 41.1352 117.981 40.8787C117.454 40.1143 116.441 40.3232 115.636 40.1143L114.832 41.1172Z" fill="white"/>
<path fill-rule="evenodd" clip-rule="evenodd" d="M114.818 33.8379C114.906 34.1464 115.015 34.5334 115.073 34.8598C115.351 34.245 115.899 33.9693 116.385 33.4626C116.106 33.2728 115.76 33.1837 115.453 33.1244V33.1064C115.234 33.3237 114.897 33.5422 114.818 33.8379Z" fill="white"/>
<path fill-rule="evenodd" clip-rule="evenodd" d="M116.623 37.1025L117.07 36.6466C117.517 36.1907 117.885 35.6639 117.954 35.0787C117.636 34.89 117.219 35.0183 116.912 35.1275C116.8 35.7742 116.634 36.4092 116.623 37.1025Z" fill="white"/>
<path fill-rule="evenodd" clip-rule="evenodd" d="M116.947 38.5017C117.634 38.5421 118.298 38.6788 118.855 38.2951L119.409 36.5077C119.232 36.4971 119.053 36.4186 118.885 36.4781C118.519 37.2922 117.781 38.0947 116.947 38.5017Z" fill="white"/>
<path fill-rule="evenodd" clip-rule="evenodd" d="M117.149 32.1723C117.595 32.8285 118.34 33.562 119.105 33.7688C119.016 32.9366 118.302 32.3598 117.934 31.6464L117.913 31.4079C117.625 31.1291 117.277 30.9425 116.979 30.792C116.931 31.27 117.061 31.7269 117.149 32.1723Z" fill="white"/>
<path fill-rule="evenodd" clip-rule="evenodd" d="M119.57 38.5809C120.096 38.6721 120.662 38.5809 121.147 38.4304C121.855 38.264 122.241 37.489 122.479 36.8848H121.596L120.642 37.8166C120.266 38.0159 119.907 38.3149 119.57 38.5809Z" fill="white"/>
<path fill-rule="evenodd" clip-rule="evenodd" d="M119.463 31.2695C119.613 32.0435 119.939 32.7473 120.387 33.4132L120.506 31.9343L119.463 31.2695Z" fill="white"/>
<path fill-rule="evenodd" clip-rule="evenodd" d="M122.72 35.1275C122.779 34.6313 122.572 34.0568 122.514 33.5511C122.216 33.3519 121.797 33.372 121.49 33.1748C121.51 33.9582 122.124 34.6218 122.72 35.1275Z" fill="white"/>
<path fill-rule="evenodd" clip-rule="evenodd" d="M121.816 40.1707C122.442 39.9714 123.047 39.7531 123.622 39.4351C123.989 38.9113 124.546 38.4321 124.624 37.8184C124.169 37.9467 123.77 37.7992 123.345 38.0082C123.088 38.4735 122.927 39.0004 122.431 39.3364C122.353 39.6724 121.985 39.9025 121.816 40.1707Z" fill="white"/>
<path fill-rule="evenodd" clip-rule="evenodd" d="M122.787 41.3898L123.532 42.3609C123.93 42.4901 124.426 42.4499 124.773 42.222L124.504 41.3389C123.979 41.5392 123.354 41.4778 122.787 41.3898Z" fill="white"/>
<path fill-rule="evenodd" clip-rule="evenodd" d="M124.029 34.3641L124.317 35.6744C125.01 35.1082 125.152 34.2846 125.134 33.4121C124.737 33.8679 124.505 34.1468 124.029 34.3641Z" fill="white"/>
<path fill-rule="evenodd" clip-rule="evenodd" d="M125.986 36.6768C125.997 36.8644 126.047 37.0435 126.156 37.193C126.929 37.4697 127.009 38.4121 127.726 38.7694C128.191 38.9772 128.726 38.7185 129.134 38.5309C128.827 38.1842 128.478 37.9436 128.182 37.5778C127.972 37.4889 127.764 37.3595 127.775 37.1019L125.986 36.6768Z" fill="white"/>
<path fill-rule="evenodd" clip-rule="evenodd" d="M126.6 41.3604C126.939 41.7474 127.394 41.9456 127.871 42.0537C127.793 41.9446 127.922 42.0537 127.941 41.9848L127.345 40.6777C127.047 40.6851 126.739 40.7455 126.461 40.7265C126.48 40.9427 126.531 41.1601 126.6 41.3604Z" fill="white"/>
<path fill-rule="evenodd" clip-rule="evenodd" d="M127.654 35.2468C127.375 34.6023 127.258 33.8189 127.18 33.1055C126.881 33.4616 126.574 33.6907 126.296 34.0563C126.167 34.791 127.215 34.9712 127.654 35.2468Z" fill="white"/>
<path fill-rule="evenodd" clip-rule="evenodd" d="M128.865 34.5739C129.223 35.0392 130.006 34.8802 130.445 34.7413C130.236 34.3841 129.563 34.1763 129.444 33.7894C129.374 33.1056 129.237 32.4409 129.017 31.8154C128.668 32.6582 128.25 33.6611 128.865 34.5739Z" fill="white"/>
<path fill-rule="evenodd" clip-rule="evenodd" d="M129.492 36.6765C130.486 37.4016 131.458 38.2433 132.848 37.9359C132.948 37.8659 133.117 37.8754 133.137 37.7471C132.729 37.4885 132.294 37.2902 131.875 37.0538L131.4 36.3584H131.181C130.645 36.5376 130.067 36.6054 129.492 36.6765Z" fill="white"/>
<path fill-rule="evenodd" clip-rule="evenodd" d="M129.514 44.7238H129.581C130.178 44.2477 130.884 44.0888 131.588 43.8894C131.778 43.9583 131.658 44.1672 131.827 44.2477C132.255 44.0687 132.771 44.1089 133.207 43.9594C133.735 43.9807 134.162 43.9902 134.588 44.218C134.924 44.6634 135.561 44.6156 136 44.9114L135.929 44.218C135.007 43.1357 133.565 43.0562 132.236 43.0773L132.206 42.9375C131.888 42.9375 131.532 43.0074 131.233 43.1474C130.806 43.1653 130.4 43.3752 129.991 43.5036C129.8 43.881 129.652 44.3357 129.514 44.7238Z" fill="white"/>
<path fill-rule="evenodd" clip-rule="evenodd" d="M130.307 32.5305C130.693 33.0372 131.269 33.4231 131.924 33.2948C131.589 32.9672 131.2 32.6185 131.18 32.1531C131.28 31.27 130.307 31.2011 129.83 30.7432C129.987 31.34 129.969 32.0036 130.307 32.5305Z" fill="white"/>
<path fill-rule="evenodd" clip-rule="evenodd" d="M130.207 46.4792H130.324C130.85 46.1494 131.615 46.3985 132.132 46.0508C132.42 45.9013 132.439 46.2989 132.64 46.4082C133.125 46.7059 133.185 47.5976 133.871 47.3908C134.694 47.817 134.486 48.8209 134.515 49.5545L135.281 49.0785C135.211 48.6915 135.429 48.223 135.18 47.8869C134.992 47.4619 134.476 47.4216 134.229 47.0739C134.526 46.5672 133.852 46.3307 133.712 45.9628L133.752 45.912L134.802 46.0508C135.162 46.2693 135.29 46.6668 135.4 47.0336C136.224 47.1724 136.423 48.1043 136.712 48.7001C136.881 48.293 136.95 47.8562 137.119 47.4608C137.129 47.1321 136.692 47.1321 136.474 46.9848C136.412 46.4792 136.185 46.001 135.739 45.6946C134.825 45.4667 134.022 44.96 133.018 44.96L132.183 45.2186C131.726 45.3279 131.24 45.189 130.893 45.5048C130.374 45.5441 130.334 46.1112 130.207 46.4792Z" fill="white"/>
<path fill-rule="evenodd" clip-rule="evenodd" d="M130.732 42.3914L130.923 42.4805C131.328 42.2907 131.736 42.0735 132.164 41.9145C132.828 41.7257 133.345 42.4805 133.903 42.0045C134.11 41.8551 134.287 42.0735 134.447 42.1932C134.686 42.63 135.243 42.6003 135.659 42.7191C135.451 42.154 135.194 41.3791 134.468 41.2879C134.18 41.1597 133.842 41.1724 133.564 41.0016C132.799 40.1589 132.303 41.6949 131.467 41.3187C131.17 41.6483 130.804 41.9547 130.732 42.3914Z" fill="white"/>
<path fill-rule="evenodd" clip-rule="evenodd" d="M130.922 47.2231C131.238 47.4892 131.565 47.9472 132.061 47.8867C132.679 48.175 132.42 48.9871 132.758 49.4143L133.115 49.0963L133.085 49.0772L133.136 49.0274L133.156 49.0571C133.255 48.7581 133.116 48.2324 132.947 47.8857C132.719 47.7287 132.45 47.8963 132.232 47.7468C132.203 47.4298 132.004 47.2708 131.776 47.0725C131.616 46.9539 131.407 47.1128 131.229 47.1023L130.922 47.2231Z" fill="white"/>
<path fill-rule="evenodd" clip-rule="evenodd" d="M132.166 35.1291C132.493 35.6761 133.128 36.0132 133.635 36.3896C134.051 36.5794 134.598 36.6271 135.045 36.5285C134.618 36.1818 134.23 35.7853 133.874 35.3665C133.735 35.1683 133.704 34.9213 133.516 34.7422C133.047 34.8322 132.523 34.8227 132.166 35.1291Z" fill="white"/>
<path fill-rule="evenodd" clip-rule="evenodd" d="M132.711 31.5782C133.17 32.1422 133.874 31.9153 134.519 31.9344V31.8665L133.526 31.0312C133.247 31.1213 132.951 31.3683 132.711 31.5782Z" fill="white"/>
<path fill-rule="evenodd" clip-rule="evenodd" d="M114.43 22.2208L115.005 24.0071C114.994 22.9948 115.461 22.1519 115.362 21.1204L115.79 20.4844L114.885 20.7621C114.647 21.218 114.45 21.6759 114.43 22.2208Z" fill="white"/>
<path fill-rule="evenodd" clip-rule="evenodd" d="M114.818 19.1255L115.601 18.6686V17.5078C115.274 17.7071 115.093 18.0442 114.838 18.3124L114.818 19.1255Z" fill="white"/>
<path fill-rule="evenodd" clip-rule="evenodd" d="M130.925 20.9312C130.734 21.1792 130.448 21.2386 130.21 21.2884C130.626 20.5241 130.826 19.4608 130.497 18.5979C130.717 18.5194 130.956 18.4813 131.164 18.3604L131.142 18.3413L131.689 17.8632C132.415 17.3671 132.137 16.4257 132.405 15.7218C132.047 15.1653 131.939 14.491 131.422 14.0235L131.453 14.0055C131.044 13.4892 130.309 13.5475 129.751 13.2899C129.016 13.0419 128.451 13.5475 127.924 13.8868C127.696 13.9249 127.835 14.2228 127.587 14.2133C127.448 14.5811 127.279 14.9776 127.18 15.3836C126.195 15.2437 125.135 15.355 124.35 15.9094C123.931 15.6031 123.425 15.5426 122.938 15.4038C122.581 15.3349 122.174 15.4642 121.917 15.2638C121.54 14.8387 121.459 14.0638 120.812 13.9557C120.585 13.8762 120.536 13.6292 120.536 13.4097C120.109 13.3408 119.73 13.1436 119.312 13.0525C118.679 12.7641 118.173 13.2221 117.695 13.5285C117.487 13.6186 117.249 13.6472 117.051 13.768C116.694 14.3225 116.355 14.8886 116.127 15.5024C116.197 16.008 116.415 16.4554 116.674 16.8816C116.903 17.5272 117.617 18.0328 118.223 18.2915C117.935 19.2732 117.935 20.4446 118.223 21.4368C118.223 21.4368 118.206 21.4485 118.206 21.4464C118.206 21.4485 118.174 21.4739 118.174 21.4739C118.079 21.4739 117.978 21.493 117.899 21.4464H117.886C118.026 22.3942 118.472 23.2231 119.193 23.9344C119.453 24.0256 119.393 24.3319 119.504 24.5312C119.572 24.6192 119.581 24.808 119.551 24.8875C118.004 24.8377 116.623 25.2245 115.381 25.9285C115.064 26.0875 115.204 26.5253 115.174 26.8317C116.047 26.2571 116.991 25.83 118.033 25.6423C118.48 25.6126 118.985 25.5034 119.413 25.6221L119.463 26.4755C118.282 27.0904 116.991 27.4476 115.977 28.46C115.997 28.7664 115.939 29.1247 116.028 29.3834L116.932 28.6476C117.805 27.9851 118.718 27.4179 119.723 27.0511C119.991 27.3691 120.27 27.7063 120.628 27.9034C121.233 27.5166 121.888 27.2303 122.584 27.0511C122.951 26.8328 123.535 27.031 123.774 26.5953L123.944 25.6921C123.913 25.6719 123.895 25.6337 123.844 25.6443C123.378 25.3762 123.07 24.9108 123.109 24.3638C122.951 24.4422 122.773 24.4931 122.584 24.5027C122.424 24.4624 122.277 24.4242 122.207 24.2642C122.196 24.0648 122.096 23.768 122.295 23.6196C122.941 23.2221 123.775 23.2019 124.59 23.2633C125.195 23.3418 126.07 23.3111 126.277 24.0277C126.25 24.2355 126.268 24.4635 126.06 24.6024C125.841 24.721 125.594 24.5917 125.394 24.5037C125.237 24.9892 124.968 25.5362 124.42 25.6932L124.491 26.2698C124.559 26.5285 124.579 26.9536 124.988 26.8646C125.931 27.0925 126.765 27.579 127.589 28.1049C127.867 27.8261 128.086 27.508 128.284 27.2218C129.753 27.7168 131.026 28.8184 132.236 29.8403L132.288 29.007C131.135 27.9851 129.853 27.261 128.523 26.695C128.573 26.4267 128.632 26.168 128.642 25.8818C130.221 25.9698 131.719 26.4564 133.021 27.2218L133.001 26.5073C131.63 25.7737 130.13 25.2871 128.492 25.267C128.432 25.1758 128.413 25.0487 128.424 24.9585C129.218 24.8291 129.783 24.0066 129.973 23.2909C130.379 22.8256 130.968 22.3189 130.828 21.6255C130.846 21.5693 130.866 21.5079 130.887 21.4485C130.939 21.2736 130.984 21.0923 130.925 20.9312Z" fill="white"/>
<path fill-rule="evenodd" clip-rule="evenodd" d="M132.307 23.4813L133.121 23.2226L133.209 22.7668C133.439 22.1021 132.954 21.606 132.712 21.0791L132.307 23.4813Z" fill="white"/>
<path fill-rule="evenodd" clip-rule="evenodd" d="M134.361 26.6281C134.747 27.0531 135.126 27.739 135.812 27.5291C135.761 27.2429 135.601 27.0054 135.503 26.7468C135.323 26.5369 135.265 25.9422 134.907 26.1521C134.638 25.973 134.57 25.674 134.4 25.4365C134.323 25.8033 134.372 26.2602 134.361 26.6281Z" fill="white"/>
<path fill-rule="evenodd" clip-rule="evenodd" d="M134.5 29.5323C134.649 29.7422 134.689 30.0105 134.835 30.1981C135.104 30.3751 135.502 30.3476 135.828 30.3168C136.127 30.2479 136.316 30.5744 136.594 30.3847C136.248 30.1673 136.04 29.7698 135.709 29.4835C135.322 29.1761 134.907 29.4443 134.5 29.5323Z" fill="white"/>
<path fill-rule="evenodd" clip-rule="evenodd" d="M135.026 34.1461C135.71 34.5532 136.583 34.9507 137.496 34.8118C137.595 34.7609 137.765 34.7716 137.784 34.6518C137.218 34.4525 136.625 33.8875 136.03 33.7687C135.701 33.263 135.275 33.8981 134.857 33.8578C134.867 33.9776 134.986 34.0676 135.026 34.1461Z" fill="white"/>
<path fill-rule="evenodd" clip-rule="evenodd" d="M137.092 42.9072L137.24 43.2263C137.39 44.2589 138.044 45.2097 137.686 46.3409C137.985 46.5486 138.075 46.8953 138.263 47.1731H138.313C138.54 46.3112 138.382 45.4175 138.263 44.5535C138.352 43.7701 137.557 43.3132 137.092 42.9072Z" fill="white"/>
<path fill-rule="evenodd" clip-rule="evenodd" d="M137.262 32.7465C137.779 33.1441 138.603 33.1833 139.197 32.9851C138.821 32.7772 138.405 32.5494 138.094 32.2705L137.262 32.7465Z" fill="white"/>
<path fill-rule="evenodd" clip-rule="evenodd" d="M139.712 35.7945C139.66 36.2122 139.94 36.5588 140.238 36.7666C140.348 36.5185 140.526 36.3108 140.545 36.033C140.457 35.6058 140.218 35.2199 139.83 34.9326C139.76 35.2093 139.682 35.4754 139.712 35.7945Z" fill="white"/>
<path fill-rule="evenodd" clip-rule="evenodd" d="M139.743 40.3167C139.673 40.7821 140.189 40.8436 140.408 41.1011C140.586 41.3185 140.289 41.468 140.289 41.6758C140.664 42.1613 140.883 42.7178 140.883 43.3634C141.033 42.7592 141.261 42.1814 141.343 41.5571C141.303 41.1214 140.609 41.2104 140.717 40.7249C140.914 40.2287 140.676 39.7421 140.547 39.2969C140.507 39.2259 140.418 39.087 140.34 39.1273C140.158 39.5344 139.712 39.8206 139.743 40.3167Z" fill="white"/>
<path fill-rule="evenodd" clip-rule="evenodd" d="M141.105 37.9549L141.62 38.9566C141.85 38.9292 141.996 38.7086 142.176 38.5517C142.315 38.1341 141.947 37.8658 141.839 37.5288C141.748 37.2902 141.839 36.9732 141.669 36.7644C141.541 36.686 141.391 36.5566 141.242 36.5948L141.105 37.9549Z" fill="white"/>
<path fill-rule="evenodd" clip-rule="evenodd" d="M141.768 35.3184C142.175 35.5654 142.642 35.9227 142.859 36.3584C143.208 37.3708 143.764 38.2835 144.171 39.2652C144.32 39.95 144.439 40.5607 144.628 41.2359C144.698 41.4119 144.657 41.7596 144.937 41.7309C145.015 40.9772 145.165 40.2531 145.175 39.4687C144.927 39.1422 144.597 39.0033 144.29 38.8029V38.7351C144.33 38.5656 144.469 38.3673 144.679 38.3991C144.767 38.2973 145.035 38.1998 144.918 38.0216C144.4 37.5065 144.43 36.6171 143.605 36.457C143.318 36.3382 143.247 36.0414 143.22 35.7636C142.831 35.4382 142.254 35.3259 141.768 35.3184Z" fill="white"/>
<path fill-rule="evenodd" clip-rule="evenodd" d="M142.243 40.6956C142.75 41.1599 142.572 41.8352 142.531 42.4607C142.452 42.8381 142.929 42.6197 143.079 42.8179C143.386 43.2748 143.207 43.9395 143.097 44.4357C143.366 44.0275 143.674 43.6702 143.882 43.225C143.871 43.0554 144.089 42.9769 144.082 42.7691C144.17 42.4808 143.833 42.6102 143.694 42.5784C143.575 42.5487 143.445 42.4691 143.485 42.3112C143.743 41.814 143.505 41.2193 143.405 40.7242C143.287 40.3161 143.456 39.7723 143.267 39.415C142.949 39.8517 142.005 39.9514 142.243 40.6956Z" fill="white"/>
<path fill-rule="evenodd" clip-rule="evenodd" d="M143.168 33.6495C144.053 34.5432 144.697 35.44 145.65 36.304C145.671 35.9192 145.621 35.5598 145.601 35.1824C145.461 34.9164 145.203 34.7171 144.984 34.5188C144.281 34.4488 143.912 33.5011 143.168 33.6495Z" fill="white"/>
<path fill-rule="evenodd" clip-rule="evenodd" d="M145.48 38.3784C145.501 38.4674 145.541 38.5458 145.579 38.6359C145.967 39.272 146.333 39.925 146.603 40.6099C146.523 39.8773 147.02 38.9625 146.364 38.3985C146.275 38.1599 145.976 38.2395 145.788 38.2585L145.48 38.3784Z" fill="white"/>
<path fill-rule="evenodd" clip-rule="evenodd" d="M147.863 45.6263C148.143 45.7524 148.498 45.5245 148.767 45.3676C149.016 45.3072 149.225 45.446 149.414 45.5754C149.492 45.7333 149.414 45.8817 149.441 46.0312C150.038 46.1998 150.623 46.4181 151.151 46.7648L151.318 46.5974C151.358 46.1701 151.022 45.8648 150.703 45.6263C150.495 45.5044 150.186 45.5754 150.038 45.3856C150.137 45.2287 150.137 44.9902 150.126 44.8111C149.798 44.8111 149.59 44.7114 149.321 44.5523C149.155 44.5036 149.004 44.3648 148.865 44.5523C148.37 44.8905 148.34 45.3856 147.863 45.6263Z" fill="white"/>
<path fill-rule="evenodd" clip-rule="evenodd" d="M148.562 33.1409C148.809 33.0732 149.069 33.0011 149.277 32.824C149.94 32.2187 150.904 32.6247 151.678 32.6152C151.531 32.3469 151.32 32.0809 151.132 31.8508C150.855 31.7416 150.596 31.6124 150.278 31.6124C149.603 31.2168 149.148 31.8805 148.63 32.2071C148.492 32.4774 148.423 32.8728 148.562 33.1409Z" fill="white"/>
<path fill-rule="evenodd" clip-rule="evenodd" d="M148.583 35.1817C148.583 35.1541 148.583 35.1224 148.613 35.1139C148.702 35.1934 148.602 35.381 148.751 35.4203C149.009 35.293 149.248 35.1139 149.486 34.9464C150.152 34.9464 150.549 34.3018 151.203 34.3018C152.295 34.499 153.379 34.7175 154.332 35.2527C154.264 34.6082 153.706 34.0231 153.142 33.7336C152.823 33.6245 152.574 33.7951 152.346 33.9722C151.68 34.3909 152.029 33.3678 151.562 33.3467C150.956 33.5375 150.329 33.7442 149.656 33.686C149.258 33.8333 148.978 34.199 148.534 34.1608C148.513 34.4884 148.463 34.886 148.583 35.1817Z" fill="white"/>
<path fill-rule="evenodd" clip-rule="evenodd" d="M149.038 37.397C149.245 37.6144 149.592 37.5741 149.892 37.6144L150.755 37.2783C150.766 37.1194 150.497 37.078 150.555 36.902C150.794 36.6338 151.124 36.8215 151.42 36.7112C151.838 36.6528 152.265 36.2363 152.68 36.5437C152.671 36.5924 152.702 36.6634 152.662 36.7112C152.53 37.0197 152.752 37.2074 152.988 37.326C153.476 37.4172 153.932 37.8635 154.419 37.6632C154.37 37.2572 154.261 36.8808 154.161 36.4928C153.754 36.4228 153.466 36.0857 153.088 35.9457C152.919 36.1049 152.702 36.2246 152.492 36.2045C151.726 36.0264 150.813 35.5503 150.039 36.0369C149.761 36.373 149.264 36.2744 148.887 36.4218C148.908 36.7621 148.946 37.0886 149.038 37.397Z" fill="white"/>
<path fill-rule="evenodd" clip-rule="evenodd" d="M149.364 43.2931C149.303 43.4617 149.136 43.7405 149.443 43.819C150.079 43.8401 150.892 43.5125 151.391 44.0077C151.558 44.138 151.479 44.4042 151.469 44.5737L152.301 45.2692C152.382 44.8515 152.53 44.4741 152.54 44.0267C152.473 43.7098 152.312 43.4012 152.035 43.1934C151.488 43.1934 151.169 42.5542 150.584 42.6358C150.277 42.5648 150.01 42.8373 149.701 42.8373C149.562 42.9762 149.483 43.1458 149.364 43.2931Z" fill="white"/>
<path fill-rule="evenodd" clip-rule="evenodd" d="M149.603 38.617C149.731 38.8831 149.882 39.3209 150.129 39.3505C150.715 39.0929 151.569 38.9329 152.225 39.2117C152.444 39.2509 152.444 39.4989 152.395 39.659C152.732 39.8572 153.14 40.0142 153.496 40.2336L153.398 39.6389C153.376 38.9933 152.563 38.9329 152.513 38.2968C151.847 38.0795 151.103 38.0105 150.397 38.1792C150.168 38.388 149.842 38.3583 149.563 38.4187C149.545 38.4972 149.592 38.5459 149.603 38.617Z" fill="white"/>
<path fill-rule="evenodd" clip-rule="evenodd" d="M149.774 41.831C150.162 41.7218 150.408 41.2946 150.825 41.2565C151.462 41.267 152.028 41.5225 152.424 42.0695C152.665 42.2274 152.614 42.6357 152.921 42.6357C152.832 42.148 152.99 41.7017 152.971 41.2056C152.552 40.5123 151.523 41.0466 151.135 40.2334L150.401 40.2822C149.874 40.4115 150.014 41.0274 149.942 41.4441C149.882 41.5734 149.763 41.672 149.774 41.831Z" fill="white"/>
<path fill-rule="evenodd" clip-rule="evenodd" d="M153.414 46.1701C153.723 46.7849 154.4 47.2525 154.468 47.9574C154.627 47.7676 154.736 47.5504 154.846 47.3425C154.835 47.1433 154.606 47.1433 154.515 46.9853C154.427 46.7277 154.566 46.4997 154.606 46.2697C154.477 45.9019 154.169 45.5553 153.822 45.3379L153.414 46.1701Z" fill="white"/>
<path fill-rule="evenodd" clip-rule="evenodd" d="M154.639 44.6033L155.353 45.5755C155.66 45.0889 155.66 44.3754 155.541 43.7881C155.473 43.679 155.343 43.5008 155.164 43.5804C154.894 43.8591 154.856 44.2843 154.639 44.6033Z" fill="white"/>
<path fill-rule="evenodd" clip-rule="evenodd" d="M151.729 17.4468C151.988 17.5762 152.236 17.6949 152.543 17.714C152.752 17.6058 153.021 17.5263 153.279 17.5952C153.645 17.8338 154.093 17.5454 154.518 17.5656C154.143 17.2094 153.714 16.991 153.279 16.7832C152.721 16.9009 152.277 17.2963 151.729 17.4468Z" fill="white"/>
<path fill-rule="evenodd" clip-rule="evenodd" d="M155.615 18.3797C156.14 18.4284 156.518 18.8938 156.875 19.2839C157.323 19.3518 157.661 19.6688 157.927 19.9974L157.759 19.4705C157.64 18.9436 157.312 18.5366 156.976 18.1221C156.5 18.1518 156.03 18.191 155.615 18.3797Z" fill="white"/>
<path fill-rule="evenodd" clip-rule="evenodd" d="M118.549 14.0254L118.836 14.0551C119.612 14.442 120.863 14.6403 120.932 15.7608C120.149 16.0693 119.394 16.487 118.769 17.1198C118.293 16.6332 117.328 16.9015 117.17 16.0491C117.32 15.2456 117.606 14.2353 118.549 14.0254Z" fill="#FF6600"/>
<path fill-rule="evenodd" clip-rule="evenodd" d="M119.297 19.057C120.198 18.9786 121.074 19.1047 122.008 19.0273C122.237 19.1259 122.475 19.3252 122.583 19.5532C122.553 20.6239 122.226 21.6469 122.176 22.7472C121.769 22.9179 121.371 23.2539 121.272 23.7003C120.905 23.8085 120.577 24.0289 120.219 24.1953C120.059 23.8592 120.089 23.3525 120.37 23.0759C120.756 22.5289 121.76 22.6582 121.678 21.7953C121.937 21.3776 121.689 20.8422 121.699 20.4055C121.599 20.079 121.501 20.5147 121.341 20.5041C121.025 20.5719 120.697 20.5931 120.42 20.4362C120.209 20.2157 119.951 20.0387 119.892 19.7408C119.615 19.6019 119.288 19.3835 119.148 19.0952L119.297 19.057Z" fill="#FF6600"/>
<path fill-rule="evenodd" clip-rule="evenodd" d="M120.388 25.5243C120.812 25.5826 121.261 25.3949 121.628 25.6027C121.548 25.7416 121.34 25.8009 121.171 25.8412L120.507 26.1497C120.258 26.0882 120.397 25.6918 120.388 25.5243Z" fill="#FF6600"/>
<path fill-rule="evenodd" clip-rule="evenodd" d="M122.127 17.2403C122.552 17.1014 123.011 16.8152 123.466 16.954C123.139 17.2816 122.881 17.7078 122.634 18.1032L121.273 18.0746C121.42 17.7184 121.797 17.4205 122.127 17.2403Z" fill="#FF6600"/>
<path fill-rule="evenodd" clip-rule="evenodd" d="M126.108 16.9125C126.672 16.8139 126.642 17.5475 127.16 17.5783C127.25 17.697 127.38 17.8051 127.328 17.9832C127.03 18.102 126.594 18.0437 126.255 18.1221C125.808 17.874 126.098 17.1002 125.391 17.15C125.353 17.0917 125.272 16.9719 125.372 16.9316C125.591 16.8542 125.876 16.8828 126.108 16.9125Z" fill="#FF6600"/>
<path fill-rule="evenodd" clip-rule="evenodd" d="M125.752 19.5733C126 19.2246 126.379 19.197 126.736 19.126L129.308 19.1758C129.418 19.2744 129.209 19.3634 129.209 19.4832C129.05 19.6316 128.821 19.6719 128.681 19.8119C128.345 19.8225 128.373 20.2168 128.136 20.3864C127.767 20.7532 127.232 20.5857 126.805 20.5253C126.655 20.4161 126.487 20.2666 126.417 20.0981L126.298 20.2168C126.448 20.7734 126.408 21.3893 126.516 21.9532L127.131 22.3614C127.141 23.2742 128.215 23.0261 128.681 23.5329C128.572 23.8593 128.353 24.1371 128.117 24.4159C127.74 24.048 127.312 23.8085 126.855 23.6515C126.816 23.1151 126.231 22.7992 125.901 22.53C125.812 21.5579 125.792 20.5656 125.635 19.6232L125.752 19.5733Z" fill="#FF6600"/>
<path fill-rule="evenodd" clip-rule="evenodd" d="M126.685 25.6921H127.877L127.728 26.3176L126.536 25.8109C126.508 25.7123 126.615 25.6826 126.685 25.6921Z" fill="#FF6600"/>
<path fill-rule="evenodd" clip-rule="evenodd" d="M128.831 14.4536L129.715 14.1748C130.222 14.4123 130.699 14.7112 131.164 15.0473C131.533 15.7236 131.471 16.6343 131.303 17.388C131.035 17.6869 130.45 17.388 130.232 17.864H130.191C129.862 16.9321 128.931 16.1 128.066 15.6717C128.204 15.1967 128.354 14.7314 128.831 14.4536Z" fill="#FF6600"/>
<path fill-rule="evenodd" clip-rule="evenodd" d="M149.544 52.2517H154.843C155.627 52.1329 156.462 52.1521 157.086 51.5753C159.739 51.9835 162.429 51.3283 164.515 49.8707C165.615 48.9823 166.604 47.9561 167.403 46.8357C168.109 45.8476 168.665 44.9243 169.026 43.8186C169.293 43.1348 169.505 42.4256 169.665 41.6952C170.422 38.2572 170.024 34.4122 168.907 31.1386C168.698 30.5312 168.465 29.946 168.21 29.3842C166.811 26.4965 164.91 23.3819 161.976 21.5543C160.324 20.5249 158.806 18.9326 157.872 17.2873C157.366 16.8294 156.878 16.2251 156.224 16.1159C156.403 16.4138 156.601 16.7011 156.651 17.0478L156.61 17.0976C155.917 17.1177 155.369 16.7509 154.893 16.3025L155.42 15.8276C155.22 15.729 154.993 15.6877 154.774 15.6399C152.767 15.412 151.119 16.3332 149.342 16.7806L149.312 16.8792C150.404 17.3647 150.632 18.5648 151.269 19.38C151.428 19.1902 151.697 19.3291 151.914 19.309C152.231 19.3291 152.529 19.557 152.836 19.4775C152.847 19.2104 152.699 19.0026 152.648 18.7651C152.836 18.674 153.067 18.7545 153.275 18.7651C153.849 19.1012 154.774 18.7036 155.131 19.4775C154.476 19.5189 153.86 19.6556 153.245 19.8051C153.284 20.0532 153.533 20.2525 153.514 20.5005C152.986 20.28 152.43 20.1443 151.844 20.0733L151.817 20.1613C152.561 21.0348 153.583 21.5511 154.626 21.8596C156.125 22.2063 157.445 21.4928 158.894 21.7408C162.452 23.3681 165.489 27.0902 166.811 30.6224C166.877 30.792 166.937 30.9637 166.997 31.1366C168.104 34.3624 168.313 38.3304 167.205 41.693C166.615 43.0945 165.966 44.4133 164.924 45.5529C164.53 46.0352 164.095 46.4667 163.622 46.8336C162.131 47.9932 160.292 48.5032 158.399 47.9827C158.281 47.9052 158.04 47.8841 158.08 47.6763C158.147 47.4007 158.207 47.1187 158.262 46.8336C158.577 45.219 158.721 43.5228 158.638 41.8287C158.633 41.7556 158.632 41.6825 158.63 41.6104C158.525 39.1488 158.034 36.9343 157.128 34.8056C156.549 33.5832 155.858 32.2508 154.988 31.0538C153.951 29.6269 152.663 28.3941 151.009 27.7792C149.996 27.511 148.744 27.4623 147.98 28.3061C147.433 28.782 147.206 29.4266 147.285 30.1306C146.431 30.6733 145.47 30.9658 144.425 31.0538C144.169 31.0761 143.906 31.1684 143.641 31.1673C143.388 31.1789 143.14 31.1673 142.901 31.1366C141.641 30.9818 140.37 30.3064 139.403 29.5294C139.383 29.0163 139.352 28.5276 139.333 27.9838C138.778 27.6955 138.322 27.1484 138.281 26.505L138.333 26.4551C138.65 26.5537 138.927 26.7127 139.214 26.8824C139.084 26.1085 138.937 25.3442 138.55 24.6699C138.192 24.5204 137.832 24.4027 137.495 24.2225C137.109 23.965 136.86 23.4984 136.803 23.0713C137.149 23.4106 137.755 23.2907 138.023 23.6479C137.557 22.2688 137.546 20.6913 136.782 19.4309C136.394 18.498 135.381 18.0718 134.685 17.3859C134.418 17.0594 134.309 16.6036 133.822 16.5527C133.425 16.4541 133.394 16.0067 133.325 15.7205C133.573 15.7491 133.782 15.9187 133.992 15.958C133.414 14.4293 132.909 12.7342 131.35 11.7621L131.081 11.9296C130.476 12.0207 129.83 12.0589 129.223 12.079C129.492 11.6815 129.969 11.514 130.346 11.3338C129.908 11.0073 129.549 10.9278 129.002 10.8377C128.685 11.1568 128.111 11.3137 127.704 11.4027L127.655 11.3645C127.644 11.0083 127.562 10.5695 128.098 10.4815C127.583 10.2334 126.728 10.332 126.202 10.4815C126.052 10.8684 125.628 11.2151 125.656 11.6709C125.35 11.99 125.131 12.4151 124.813 12.6441C124.803 11.8797 125.128 11.1748 125.267 10.5313C124.821 10.6988 124.367 10.9363 123.93 11.1462C123.224 10.7391 122.482 10.332 121.728 10.0256C121.658 9.99488 121.508 9.9652 121.538 10.0935C122.183 10.5599 121.934 11.4324 122.003 12.0981L121.596 11.7621C121.397 11.2554 120.823 10.8886 120.725 10.332C120.049 10.4613 119.617 10.6405 118.992 10.9087L118.904 10.9575C119.37 10.9575 119.767 11.3243 119.996 11.691C119.291 11.7313 118.665 11.4525 117.971 11.3847C117.901 11.3147 117.843 11.2352 117.731 11.2458C117.383 11.3751 117.087 11.6232 116.778 11.8617C116.094 12.5349 115.398 13.2812 115.071 14.1728C115.3 14.213 115.588 14.2035 115.757 14.3424C115.381 14.5703 115.052 14.9572 114.684 15.1756C114.555 15.6919 114.574 16.2771 114.545 16.8432C114.257 17.2789 113.87 17.6658 113.681 18.1513C113.065 20.1454 112.906 22.3578 112.996 24.6201C112.797 24.8077 112.538 24.9296 112.351 25.077L112.371 27.1007H112.42C112.511 26.6735 113.018 26.4361 113.324 26.1488H113.424C113.375 26.6046 113.315 27.0604 113.305 27.5279L112.729 28.0039C112.155 28.5096 112.641 29.2718 112.59 29.9069C112.631 30.0764 112.659 30.3245 112.781 30.3648C112.849 30.1168 113.067 29.9375 113.205 29.7203C113.454 29.6588 113.671 29.4616 113.899 29.4319C113.773 29.927 113.603 30.4136 113.403 30.8895C113.308 30.952 113.196 31.0379 113.1 31.1376C112.999 31.2468 112.919 31.3719 112.9 31.5066C113.345 33.8578 114.048 36.1784 114.853 38.3909C114.306 39.312 113.997 40.3998 113.542 41.3528C113.477 41.4864 113.419 41.621 113.363 41.7599C112.907 42.9143 112.768 44.2024 112.2 45.3122C111.972 45.1522 111.725 45.0335 111.467 44.9243C110.392 44.568 109.151 44.796 108.368 45.6187C107.672 45.4893 106.957 45.6081 106.409 45.9748C106.019 46.2695 105.715 46.6237 105.542 47.0381C105.425 47.3254 105.369 47.6382 105.388 47.9805C104.94 48.2879 104.702 48.764 104.554 49.24C104.345 50.3128 104.722 51.4269 105.337 52.2507L149.544 52.2517Z" fill="white"/>
<path fill-rule="evenodd" clip-rule="evenodd" d="M168.907 31.1396C168.698 30.5322 168.465 29.947 168.21 29.3852C166.811 26.4974 164.91 23.3829 161.976 21.5552C160.324 20.5259 158.806 18.9336 157.872 17.2883C157.365 16.8304 156.878 16.2261 156.224 16.1169C156.402 16.4148 156.6 16.7021 156.651 17.0487L156.61 17.0986C155.917 17.1187 155.369 16.7519 154.893 16.3035L155.42 15.8286C155.22 15.73 154.992 15.6886 154.774 15.6409C152.767 15.413 151.119 16.3342 149.342 16.7816L149.312 16.8802C150.404 17.3657 150.632 18.5657 151.269 19.381C151.428 19.1912 151.697 19.3301 151.914 19.3099C152.231 19.3301 152.529 19.558 152.836 19.4785C152.847 19.2114 152.699 19.0036 152.648 18.7661C152.836 18.6749 153.067 18.7555 153.275 18.7661C153.849 19.1022 154.774 18.7046 155.131 19.4785C154.476 19.5198 153.86 19.6566 153.245 19.8061C153.284 20.0541 153.533 20.2534 153.513 20.5015C152.986 20.281 152.43 20.1453 151.844 20.0743L151.817 20.1623C152.561 21.0358 153.581 21.5521 154.626 21.8605C156.125 22.2072 157.445 21.4938 158.894 21.7418C162.452 23.3691 165.489 27.0912 166.811 30.6234C166.877 30.793 166.937 30.9647 166.997 31.1375C168.104 34.3634 168.313 38.3314 167.205 41.694C166.615 43.0955 165.966 44.4143 164.924 45.5539C164.53 46.0363 164.095 46.4677 163.622 46.8346C162.131 47.9943 160.292 48.5042 158.399 47.9837C158.281 47.9063 158.04 47.8851 158.079 47.6773C158.147 47.4017 158.207 47.1197 158.262 46.8346C158.577 45.22 158.72 43.5237 158.638 41.8297C158.633 41.7566 158.632 41.6835 158.63 41.6114C158.525 39.1498 158.034 36.9353 157.128 34.8065C156.549 33.5843 155.858 32.2516 154.988 31.0548C153.951 29.6279 152.663 28.395 151.009 27.7802C149.996 27.512 148.744 27.4633 147.98 28.3071C147.433 28.783 147.206 29.4276 147.285 30.1314C146.431 30.6743 145.47 30.9668 144.425 31.0548C144.169 31.0771 143.906 31.1694 143.641 31.1683C143.388 31.1799 143.14 31.1683 142.901 31.1375C141.641 30.9828 140.37 30.3074 139.403 29.5304C139.383 29.0173 139.352 28.5287 139.333 27.9848C138.777 27.6965 138.322 27.1494 138.281 26.506L138.333 26.4561C138.65 26.5547 138.927 26.7137 139.214 26.8833C139.084 26.1095 138.937 25.3451 138.55 24.6709C138.192 24.5214 137.832 24.4037 137.495 24.2235C137.109 23.966 136.86 23.4995 136.803 23.0723C137.149 23.4115 137.755 23.2917 138.023 23.6489C137.557 22.2697 137.546 20.6923 136.782 19.4319C136.394 18.499 135.381 18.0728 134.685 17.3869C134.418 17.0604 134.309 16.6046 133.822 16.5537C133.425 16.4551 133.394 16.0077 133.325 15.7215C133.573 15.7501 133.781 15.9197 133.992 15.9589C133.414 14.4303 132.909 12.7352 131.35 11.7631L131.081 11.9306C130.476 12.0217 129.83 12.0599 129.223 12.08C129.492 11.6825 129.969 11.515 130.346 11.3348C129.908 11.0083 129.549 10.9288 129.002 10.8386C128.685 11.1577 128.111 11.3146 127.704 11.4037L127.655 11.3655C127.644 11.0093 127.562 10.5704 128.098 10.4824C127.583 10.2344 126.728 10.333 126.202 10.4824C126.052 10.8694 125.628 11.216 125.656 11.6719C125.35 11.991 125.131 12.4161 124.813 12.6451C124.803 11.8807 125.128 11.1758 125.267 10.5323C124.821 10.6998 124.367 10.9372 123.93 11.1471C123.224 10.7401 122.482 10.333 121.728 10.0266C121.658 9.99586 121.508 9.96618 121.538 10.0945C122.183 10.5609 121.934 11.4334 122.003 12.0991L121.596 11.7631C121.397 11.2563 120.823 10.8895 120.725 10.333C120.049 10.4623 119.617 10.6415 118.992 10.9097L118.904 10.9584C119.37 10.9584 119.767 11.3252 119.996 11.692C119.291 11.7323 118.665 11.4535 117.971 11.3857C117.901 11.3157 117.843 11.2362 117.731 11.2468C117.383 11.3761 117.087 11.6242 116.778 11.8627C116.094 12.5359 115.398 13.2822 115.071 14.1737C115.3 14.214 115.588 14.2045 115.756 14.3433C115.381 14.5713 115.052 14.9582 114.684 15.1766C114.555 15.6929 114.574 16.278 114.545 16.8441C114.257 17.2798 113.87 17.6668 113.681 18.1523C113.065 20.1464 112.906 22.3588 112.996 24.6211C112.797 24.8087 112.538 24.9306 112.351 25.078L112.371 27.1017H112.42C112.511 26.6745 113.018 26.437 113.324 26.1497H113.424C113.375 26.6056 113.315 27.0614 113.305 27.5289L112.729 28.0049C112.155 28.5106 112.641 29.2728 112.59 29.9078C112.631 30.0775 112.659 30.3255 112.781 30.3658C112.849 30.1178 113.067 29.9386 113.205 29.7212C113.454 29.6597 113.671 29.4625 113.899 29.4329C113.773 29.928 113.603 30.4146 113.403 30.8905C113.308 30.9531 113.196 31.0389 113.1 31.1386C112.999 31.2477 112.919 31.3728 112.9 31.5075C113.345 33.8588 114.048 36.1794 114.853 38.3918C114.306 39.3131 113.997 40.4007 113.542 41.3537C113.477 41.4874 113.419 41.622 113.363 41.7609C112.907 42.9153 112.768 44.2034 112.2 45.3132C111.972 45.1532 111.725 45.0345 111.467 44.9253C110.392 44.569 109.151 44.797 108.368 45.6197C107.672 45.4903 106.957 45.609 106.409 45.9758C106.019 46.2705 105.715 46.6245 105.542 47.0391C105.425 47.3264 105.369 47.6392 105.388 47.9815C104.94 48.2889 104.702 48.765 104.554 49.241C104.345 50.3138 104.722 51.4279 105.337 52.2517H122.887C122.629 51.9452 122.39 51.5181 122.209 51.1512C121.834 50.5841 122.092 49.7816 122.051 49.1265C122.409 48.4056 122.772 47.6804 123.181 46.9755C123.263 46.8335 123.346 46.6946 123.431 46.5568L124.237 46.2494C124.664 46.2494 125.022 45.9418 125.429 46.05C125.976 46.5971 125.976 45.5052 126.502 45.4553C127.733 45.2963 128.955 45.415 129.649 46.4571C129.649 46.596 129.87 46.596 129.819 46.7253C129.66 46.7731 129.51 46.6744 129.342 46.6744C128.588 46.4868 127.702 46.0087 126.959 46.4359C126.931 46.614 126.893 46.7953 126.856 46.9733C126.819 47.1631 126.784 47.3486 126.769 47.5268C127.255 47.6657 127.662 48.0133 128.029 48.3897C128.278 47.9041 128.805 47.6858 129.271 47.5268C129.679 47.6159 130.126 47.6264 130.464 47.884C131.09 48.4607 130.781 49.4423 130.723 50.1759C131.288 50.493 131.913 50.6731 132.489 50.9795C132.22 51.2202 131.865 51.3177 131.537 51.4374L130.584 51.2478C130.474 51.1693 130.285 51.1693 130.246 51.0304C129.929 51.3664 129.541 51.8138 129.342 52.2495H142.948C142.768 51.8425 142.56 51.5254 142.312 51.1492C142.032 50.5534 142.144 49.7391 142.113 49.1042L143.384 47.1695C144.079 47.1599 144.865 46.9013 145.619 47.0307C145.657 47.0136 145.692 46.9946 145.728 46.9723C146.041 46.7561 146.136 46.2535 146.602 46.3161C147.436 46.0893 148.072 46.4666 148.699 46.843C148.677 46.8928 148.657 46.9362 148.634 46.9723C148.373 47.3911 147.882 46.9235 147.525 47.0497C147.375 47.2087 147.595 47.3963 147.624 47.5766C147.753 47.7536 147.494 47.7335 147.406 47.7643C147.198 47.7939 146.97 47.744 146.809 47.5766C146.77 47.5257 146.8 47.4674 146.721 47.4578C146.54 47.7536 146.283 48.0229 146.214 48.36C146.442 48.5795 146.748 48.7967 146.859 49.0756C147.087 49.4031 146.679 49.6502 146.601 49.9385C146.571 49.9968 146.481 49.9968 146.451 49.9385C146.242 49.8198 146.065 49.5208 145.835 49.5993C145.635 50.4833 145.904 51.3664 145.785 52.2495C146.173 52.3407 146.628 52.2294 147.046 52.2495L147.216 50.3837C147.393 49.1742 148.11 48.1618 148.954 47.2373C149.865 46.615 150.454 47.8448 151.127 48.271C151.238 48.2911 151.198 48.4099 151.246 48.4787C151.236 48.678 151.028 48.7565 150.889 48.8169C150.472 48.9643 150.164 48.5085 149.906 48.2402C149.658 48.5085 149.548 48.8646 149.261 49.0745L149.36 49.1032C149.689 49.4317 150.004 49.7784 150.077 50.2152C150.037 50.6106 149.838 50.9975 149.479 51.1979C149.212 50.74 148.994 50.2342 148.816 49.7678C148.826 49.789 148.805 49.7975 148.785 49.8187C148.237 49.966 148.092 50.5809 148.001 51.0781C148.03 51.5647 147.664 51.7629 147.762 52.2485H154.844C155.628 52.1298 156.462 52.1488 157.087 51.5722C159.74 51.9803 162.43 51.325 164.516 49.8675C165.616 48.9791 166.605 47.9529 167.405 46.8324C168.11 45.8443 168.666 44.921 169.027 43.8153C169.293 43.1315 169.506 42.4223 169.666 41.6919C170.422 38.2572 170.024 34.4122 168.907 31.1396Z" fill="#FF6600"/>
<path fill-rule="evenodd" clip-rule="evenodd" d="M123.331 49.5532C123.717 49.3051 124.344 49.2447 124.432 48.6702C124.275 48.5504 124.135 48.4009 123.955 48.3618L123.547 48.4804C123.577 48.2419 123.706 47.9748 123.789 47.7172L125.098 47.291C124.917 47.8857 124.849 48.6299 124.789 49.3148C124.908 50.3271 125.057 51.4085 125.574 52.2512H124.163C124.005 51.3194 123.03 50.6431 123.331 49.5532Z" fill="#FF6600"/>
<path fill-rule="evenodd" clip-rule="evenodd" d="M126.381 48.3613H126.46L127.411 49.2253L127.55 49.1957C127.473 50.208 127.422 51.2003 127.411 52.2508H126.38C126.169 51.2691 125.822 50.2367 125.863 49.1765C126.041 48.9084 126.16 48.5701 126.381 48.3613Z" fill="#FF6600"/>
<path fill-rule="evenodd" clip-rule="evenodd" d="M128.503 49.3161C128.694 49.0691 128.772 48.6502 129.149 48.6025C129.417 48.61 129.665 48.6502 129.866 48.84C130.212 49.2757 129.873 49.8334 129.747 50.2691C129.607 50.9337 129.367 51.627 129.149 52.2525H128.146L128.503 49.3161Z" fill="#FF6600"/>
<path fill-rule="evenodd" clip-rule="evenodd" d="M143.569 49.0078C143.788 49.2866 143.857 49.663 144.185 49.911C144.474 49.5145 144.543 48.8985 144.404 48.3929L144.116 48.1045C144.484 48.0165 144.87 47.9858 145.239 47.917C145.08 48.4427 144.78 48.9188 144.831 49.5336C144.841 50.4273 144.989 51.3209 145.069 52.2517H143.977C143.58 51.3781 143.183 50.5461 143.213 49.5336C143.331 49.3545 143.411 49.1455 143.569 49.0078Z" fill="#FF6600"/>
<path fill-rule="evenodd" clip-rule="evenodd" d="M148.268 29.9459C148.257 30.2035 148.07 30.4897 148.237 30.7102C148.479 30.442 148.875 30.4515 149.192 30.3328C150.077 30.2522 150.92 30.5311 151.744 30.7304C151.536 30.4017 151.397 30.0349 151.167 29.7381C150.711 29.6184 150.015 29.9364 149.937 29.26C149.658 29.0226 149.222 29.1922 148.934 29.2112C148.655 29.4094 148.428 29.6575 148.268 29.9459Z" fill="white"/>
<path fill-rule="evenodd" clip-rule="evenodd" d="M117.911 21.3775C117.907 21.3755 117.903 21.3713 117.896 21.3672C117.896 21.3713 117.899 21.3734 117.899 21.3775H117.911Z" fill="white"/>
<path fill-rule="evenodd" clip-rule="evenodd" d="M121.526 30.1988L122.122 29.6243C122.173 29.6243 122.212 29.6338 122.241 29.672L122.192 30.7734C122.48 31.0415 122.835 31.1295 123.213 31.1508C123.243 30.854 123.471 30.644 123.601 30.3864C123.711 30.1787 123.642 29.8713 123.859 29.7239L123.929 29.7917C123.997 30.1204 123.978 30.4871 124.148 30.7734C124.168 30.9324 124.196 31.1295 124.215 31.2695C124.654 31.2896 125.051 31.1709 125.387 31.0109C125.367 30.6345 125.498 30.3271 125.555 29.9815C125.647 29.8618 125.446 29.6422 125.694 29.6528C125.834 29.9507 126.082 30.2572 126.222 30.5762C126.796 29.991 127.038 29.2278 127.173 28.4327C127.006 28.2058 126.748 28.2058 126.548 28.0563C124.86 27.5114 122.696 27.4023 121.067 28.245C120.958 28.9172 121.097 29.6614 121.526 30.1988Z" fill="white"/>
<path fill-rule="evenodd" clip-rule="evenodd" d="M105.74 48.8153C105.68 49.5796 105.74 50.2962 105.789 51.051C105.948 51.2991 106.238 51.5874 106.525 51.6055L106.574 51.0987C106.693 50.3948 106.316 49.6474 106.714 49.0516C106.992 49.1396 107.27 49.2796 107.509 49.4079C107.628 48.7538 107.458 47.9884 106.832 47.5908L105.74 48.8153Z" fill="white"/>
<path fill-rule="evenodd" clip-rule="evenodd" d="M108.194 47.7434C107.806 48.9053 107.519 50.3354 107.986 51.5587C108.254 51.3785 108.531 51.2099 108.769 50.9629C108.72 50.0289 108.59 49.0347 109.146 48.2586C109.632 48.4081 109.961 48.8746 110.148 49.3293C110.478 48.9137 110.586 48.3371 110.458 47.7837C110.478 47.3459 109.981 47.4466 109.743 47.2674C109.821 46.8996 109.81 46.4755 110.199 46.2656L109.008 46.3843C108.701 46.8222 108.363 47.2462 108.194 47.7434Z" fill="white"/>
<path fill-rule="evenodd" clip-rule="evenodd" d="M110.648 51.1714C110.698 51.2594 110.648 51.4195 110.749 51.4397C110.897 50.6054 111.572 50.0657 111.941 49.3301C112.118 49.0853 112.11 48.7354 112.397 48.5477C112.784 48.5477 113.063 48.8254 113.441 48.8551C113.559 48.9453 113.379 49.0247 113.369 49.1233C113.291 49.7997 113.033 50.3573 113.082 51.0528H113.151C113.677 50.4962 114.035 49.8972 114.422 49.2622L114.49 48.6983C114.581 48.023 113.847 47.5872 113.367 47.3085L113.795 46.7615L113.199 46.5537C112.503 46.6226 111.877 46.9109 111.391 47.458C110.786 48.5668 110.688 49.822 110.648 51.1714Z" fill="white"/>
<path fill-rule="evenodd" clip-rule="evenodd" d="M113.32 45.2828C113.547 45.3505 113.757 45.164 113.984 45.2616C114.898 45.5997 115.851 45.9463 116.537 46.7097L117.352 48.7843L117.759 47.5026L117.491 46.8104C117.262 46.3143 116.637 46.3544 116.209 46.3344C116.031 46.135 116.218 45.9072 116.279 45.7195C116.487 45.0146 115.623 45.0537 115.276 44.7665C115.296 44.3414 114.779 44.4877 114.491 44.4495L114.392 44.3308C114.333 44.2396 114.184 44.2396 114.104 44.3095C114.085 44.2799 114.045 44.2597 114.065 44.2109L113.848 44.2597C113.538 44.528 113.33 44.8746 113.32 45.2828Z" fill="white"/>
<path fill-rule="evenodd" clip-rule="evenodd" d="M113.893 43.0018C113.923 43.1291 114.002 43.2583 114.101 43.339C114.548 43.2202 114.977 42.9106 115.492 43.1004C116.158 43.6856 116.852 44.3004 117.658 44.6175L117.947 44.5687C118.124 44.627 118.322 44.6365 118.441 44.8369C118.551 45.105 118.273 45.262 118.185 45.4803C118.631 45.809 118.454 46.393 118.731 46.7896L119.445 45.8386C119.279 45.421 119.456 44.7075 118.802 44.6673C118.581 44.558 118.434 44.3407 118.442 44.0927C118.017 43.7057 117.49 43.5372 117.064 43.1397C116.713 42.8629 116.506 42.4369 116.061 42.3372C115.752 42.1675 115.414 42.0784 115.058 42.0011C114.39 41.8993 114.331 42.6934 113.893 43.0018Z" fill="white"/>
<path fill-rule="evenodd" clip-rule="evenodd" d="M114.85 41.0458L114.969 41.2366C115.465 41.2059 115.911 40.9885 116.398 40.9971C116.725 41.1953 117.152 41.1847 117.49 41.3543C117.758 41.7221 118.047 42.1367 118.442 42.3847C119.248 42.5034 119.694 43.3695 119.971 44.0024V43.696C120.09 43.2688 119.96 42.7717 119.804 42.3847C119.604 42.1865 119.315 42.0582 119.109 41.8811C119.068 41.7518 119.098 41.6904 119.138 41.5726C118.829 41.2451 118.373 41.0659 117.995 40.8073C117.469 40.043 116.457 40.2539 115.652 40.043L114.85 41.0458Z" fill="white"/>
<path fill-rule="evenodd" clip-rule="evenodd" d="M114.832 33.7687C114.92 34.0772 115.027 34.463 115.088 34.7916C115.365 34.1768 115.913 33.8979 116.399 33.3934C116.12 33.2046 115.773 33.1146 115.466 33.0562V33.0361C115.247 33.2523 114.909 33.4719 114.832 33.7687Z" fill="white"/>
<path fill-rule="evenodd" clip-rule="evenodd" d="M116.637 37.0341L117.082 36.5783C117.53 36.1203 117.899 35.5934 117.966 35.0092C117.649 34.8216 117.232 34.951 116.925 35.0601C116.816 35.7025 116.646 36.3376 116.637 37.0341Z" fill="white"/>
<path fill-rule="evenodd" clip-rule="evenodd" d="M116.961 38.4324C117.646 38.4706 118.313 38.6095 118.869 38.2226L119.426 36.4373C119.245 36.4268 119.065 36.3461 118.898 36.4077C118.531 37.2197 117.797 38.0243 116.961 38.4324Z" fill="white"/>
<path fill-rule="evenodd" clip-rule="evenodd" d="M117.164 32.1029C117.611 32.757 118.357 33.4894 119.12 33.6995C119.031 32.8651 118.317 32.2894 117.948 31.5771L117.928 31.3386C117.641 31.0608 117.293 30.8711 116.995 30.7236C116.947 31.1997 117.076 31.6544 117.164 32.1029Z" fill="white"/>
<path fill-rule="evenodd" clip-rule="evenodd" d="M119.586 38.5106C120.112 38.5997 120.679 38.5106 121.164 38.3611C121.869 38.1915 122.257 37.4187 122.495 36.8145H121.611L120.66 37.7463C120.283 37.9435 119.925 38.2414 119.586 38.5106Z" fill="white"/>
<path fill-rule="evenodd" clip-rule="evenodd" d="M119.479 31.2002C119.628 31.9752 119.957 32.6791 120.404 33.3438L120.521 31.865L119.479 31.2002Z" fill="white"/>
<path fill-rule="evenodd" clip-rule="evenodd" d="M122.732 35.0591C122.793 34.563 122.585 33.9863 122.527 33.4827C122.229 33.2834 121.813 33.3025 121.504 33.1064C121.524 33.8877 122.138 34.5535 122.732 35.0591Z" fill="white"/>
<path fill-rule="evenodd" clip-rule="evenodd" d="M121.83 40.0982C122.454 39.9 123.061 39.6817 123.638 39.3646C124.005 38.8378 124.559 38.3629 124.64 37.748C124.181 37.8762 123.786 37.7268 123.358 37.9368C123.101 38.4021 122.941 38.93 122.445 39.266C122.365 39.601 121.999 39.8301 121.83 40.0982Z" fill="white"/>
<path fill-rule="evenodd" clip-rule="evenodd" d="M122.803 41.3182L123.547 42.2904C123.946 42.4186 124.441 42.3804 124.789 42.1525L124.522 41.2705C123.995 41.4666 123.369 41.4094 122.803 41.3182Z" fill="white"/>
<path fill-rule="evenodd" clip-rule="evenodd" d="M124.045 34.2957L124.332 35.6038C125.027 35.0399 125.17 34.2161 125.15 33.3438C124.754 33.7996 124.523 34.0774 124.045 34.2957Z" fill="white"/>
<path fill-rule="evenodd" clip-rule="evenodd" d="M126 36.6045C126.01 36.7943 126.058 36.9724 126.166 37.1208C126.942 37.3996 127.022 38.34 127.737 38.6972C128.202 38.9071 128.74 38.6485 129.145 38.4587C128.839 38.112 128.491 37.8735 128.193 37.5078C127.986 37.4187 127.774 37.2893 127.786 37.0318L126 36.6045Z" fill="white"/>
<path fill-rule="evenodd" clip-rule="evenodd" d="M126.618 41.2904C126.955 41.6752 127.41 41.8756 127.887 41.9826C127.808 41.8745 127.938 41.9826 127.957 41.9149L127.36 40.6045C127.063 40.6152 126.754 40.6756 126.477 40.6554C126.499 40.8738 126.547 41.0911 126.618 41.2904Z" fill="white"/>
<path fill-rule="evenodd" clip-rule="evenodd" d="M127.671 35.1786C127.392 34.534 127.277 33.7485 127.195 33.0361C126.899 33.3934 126.59 33.6224 126.312 33.987C126.182 34.7206 127.233 34.8998 127.671 35.1786Z" fill="white"/>
<path fill-rule="evenodd" clip-rule="evenodd" d="M128.878 34.5023C129.238 34.9708 130.021 34.8119 130.459 34.6719C130.249 34.3147 129.576 34.1048 129.457 33.721C129.389 33.0362 129.249 32.3694 129.03 31.7471C128.683 32.5888 128.263 33.5916 128.878 34.5023Z" fill="white"/>
<path fill-rule="evenodd" clip-rule="evenodd" d="M129.506 36.6061C130.499 37.3301 131.473 38.1739 132.861 37.8655C132.96 37.7977 133.131 37.805 133.15 37.6778C132.742 37.4202 132.306 37.2198 131.889 36.9824L131.413 36.2891H131.195C130.658 36.4661 130.083 36.5382 129.506 36.6061Z" fill="white"/>
<path fill-rule="evenodd" clip-rule="evenodd" d="M129.527 44.6514H129.599C130.194 44.1754 130.898 44.0153 131.604 43.8182C131.794 43.8881 131.674 44.097 131.844 44.1754C132.27 43.9984 132.787 44.0366 133.223 43.8881C133.749 43.9072 134.177 43.9167 134.604 44.1447C134.943 44.5921 135.577 44.5412 136.016 44.8401L135.944 44.1447C135.021 43.0634 133.581 42.9849 132.251 43.0051L132.221 42.8662C131.905 42.8662 131.547 42.934 131.248 43.074C130.822 43.0941 130.414 43.3019 130.007 43.4301C129.816 43.8076 129.666 44.2666 129.527 44.6514Z" fill="white"/>
<path fill-rule="evenodd" clip-rule="evenodd" d="M130.325 32.4601C130.711 32.9668 131.287 33.3547 131.942 33.2255C131.606 32.8957 131.216 32.5491 131.197 32.0837C131.297 31.2006 130.325 31.1296 129.848 30.6738C130.007 31.2696 129.986 31.9342 130.325 32.4601Z" fill="white"/>
<path fill-rule="evenodd" clip-rule="evenodd" d="M130.221 46.4066H130.34C130.865 46.0801 131.63 46.3292 132.147 45.9815C132.435 45.832 132.455 46.2295 132.654 46.3387C133.14 46.6346 133.201 47.5282 133.886 47.3204C134.708 47.7466 134.501 48.7484 134.53 49.482L135.296 49.007C135.226 48.62 135.446 48.1536 135.196 47.8165C135.007 47.3904 134.49 47.3512 134.243 47.0045C134.541 46.4978 133.866 46.2582 133.725 45.8914L133.767 45.8426L134.819 45.9815C135.177 46.1989 135.307 46.5964 135.416 46.9642C136.238 47.1031 136.437 48.035 136.726 48.6297C136.896 48.2236 136.965 47.7858 137.132 47.3893C137.143 47.0617 136.707 47.0617 136.488 46.9133C136.429 46.4066 136.2 45.9316 135.753 45.6253C134.84 45.3942 134.036 44.8906 133.033 44.8906L132.2 45.1473C131.74 45.2575 131.254 45.1186 130.907 45.4344C130.388 45.4748 130.35 46.0408 130.221 46.4066Z" fill="white"/>
<path fill-rule="evenodd" clip-rule="evenodd" d="M130.748 42.3208L130.937 42.4109C131.345 42.2222 131.752 42.0037 132.18 41.8447C132.842 41.6571 133.36 42.4109 133.917 41.9338C134.124 41.7865 134.305 42.0037 134.462 42.1236C134.704 42.5593 135.257 42.5296 135.676 42.6473C135.467 42.0833 135.208 41.3094 134.483 41.2193C134.196 41.091 133.857 41.1016 133.58 40.932C132.815 40.0893 132.319 41.6275 131.482 41.2511C131.186 41.5766 130.818 41.8861 130.748 42.3208Z" fill="white"/>
<path fill-rule="evenodd" clip-rule="evenodd" d="M130.939 47.1521C131.256 47.4203 131.584 47.8772 132.081 47.8168C132.696 48.1041 132.438 48.9182 132.774 49.3454L133.132 49.0274L133.103 49.0062L133.153 48.9575L133.173 48.9851C133.271 48.6892 133.134 48.1635 132.963 47.8147C132.736 47.6567 132.469 47.8253 132.249 47.6758C132.219 47.3567 132.022 47.1997 131.793 47.0026C131.634 46.8818 131.425 47.0407 131.245 47.0302L130.939 47.1521Z" fill="white"/>
<path fill-rule="evenodd" clip-rule="evenodd" d="M132.18 35.0589C132.506 35.6038 133.142 35.9419 133.648 36.3183C134.067 36.507 134.61 36.5568 135.059 36.4561C134.631 36.1095 134.243 35.7119 133.887 35.2963C133.747 35.097 133.717 34.848 133.529 34.6709C133.063 34.761 132.535 34.7503 132.18 35.0589Z" fill="white"/>
<path fill-rule="evenodd" clip-rule="evenodd" d="M132.727 31.5079C133.183 32.073 133.888 31.845 134.533 31.8651V31.7952L133.54 30.9619C133.263 31.0499 132.966 31.298 132.727 31.5079Z" fill="white"/>
<path fill-rule="evenodd" clip-rule="evenodd" d="M114.443 22.1526L115.018 23.9388C115.008 22.9264 115.477 22.0816 115.377 21.0511L115.802 20.415L114.898 20.6938C114.661 21.1497 114.463 21.6066 114.443 22.1526Z" fill="white"/>
<path fill-rule="evenodd" clip-rule="evenodd" d="M114.832 19.0562L115.616 18.6004V17.4385C115.286 17.6367 115.109 17.976 114.851 18.241L114.832 19.0562Z" fill="white"/>
<path fill-rule="evenodd" clip-rule="evenodd" d="M130.94 20.8618C130.751 21.1088 130.463 21.1703 130.225 21.218C130.643 20.4558 130.841 19.3936 130.513 18.5296C130.731 18.4511 130.97 18.4109 131.178 18.2921L131.158 18.2709L131.705 17.7949C132.429 17.2988 132.15 16.3574 132.418 15.6525C132.062 15.098 131.952 14.4227 131.436 13.9563L131.466 13.9362C131.058 13.4199 130.324 13.4803 129.768 13.2227C129.032 12.9746 128.465 13.4803 127.937 13.8174C127.71 13.8577 127.849 14.1545 127.602 14.1439C127.463 14.5107 127.293 14.9083 127.193 15.3153C126.211 15.1765 125.148 15.2857 124.364 15.8412C123.944 15.5327 123.44 15.4744 122.954 15.3355C122.596 15.2645 122.189 15.3938 121.931 15.1956C121.555 14.7705 121.473 13.9955 120.826 13.8874C120.599 13.8068 120.55 13.5588 120.55 13.3404C120.123 13.2693 119.744 13.0722 119.329 12.9831C118.694 12.6948 118.187 13.1527 117.711 13.4591C117.501 13.5471 117.263 13.5778 117.065 13.6966C116.708 14.2531 116.372 14.8182 116.14 15.433C116.211 15.9387 116.429 16.3839 116.688 16.8122C116.916 17.4568 117.631 17.9635 118.236 18.2222C117.949 19.2038 117.949 20.3731 118.236 21.3654C118.236 21.3654 118.22 21.3792 118.22 21.376C118.22 21.3792 118.188 21.4056 118.188 21.4056C118.095 21.4056 117.991 21.4237 117.914 21.376H117.901C118.043 22.3237 118.489 23.1549 119.21 23.8661C119.469 23.9552 119.409 24.2637 119.517 24.4608C119.587 24.551 119.598 24.7386 119.568 24.8182C118.018 24.7694 116.637 25.1563 115.395 25.8603C115.078 26.0193 115.217 26.455 115.187 26.7635C116.062 26.1867 117.004 25.7616 118.047 25.5719C118.494 25.5443 119 25.433 119.428 25.5517L119.476 26.4072C118.297 27.0232 117.004 27.3793 115.993 28.3917C116.012 28.6981 115.952 29.0543 116.042 29.313L116.947 28.5793C117.82 27.9136 118.734 27.3487 119.736 26.9818C120.006 27.2988 120.284 27.638 120.641 27.8352C121.246 27.4472 121.902 27.1599 122.598 26.9818C122.965 26.7635 123.552 26.9617 123.79 26.526L123.957 25.6228C123.93 25.6026 123.908 25.5624 123.859 25.5719C123.392 25.3036 123.084 24.8383 123.124 24.2934C122.965 24.3719 122.788 24.4227 122.598 24.4302C122.441 24.392 122.29 24.3517 122.221 24.1916C122.212 23.9944 122.11 23.6965 122.311 23.5492C122.956 23.1517 123.791 23.1316 124.604 23.1909C125.209 23.2714 126.084 23.2407 126.294 23.9552C126.264 24.164 126.283 24.393 126.074 24.5309C125.856 24.6496 125.609 24.5203 125.409 24.4302C125.251 24.9178 124.982 25.4627 124.436 25.6217L124.505 26.1962C124.573 26.455 124.593 26.8811 125.001 26.7909C125.944 27.021 126.78 27.5066 127.603 28.0313C127.883 27.7546 128.1 27.4365 128.298 27.1483C129.77 27.6466 131.039 28.7469 132.253 29.7698L132.301 28.9356C131.148 27.9126 129.869 27.1895 128.537 26.6246C128.588 26.3564 128.647 26.0976 128.657 25.8094C130.235 25.8994 131.735 26.386 133.036 27.1483L133.015 26.4348C131.645 25.7001 130.146 25.2147 128.508 25.1955C128.446 25.1064 128.427 24.9772 128.438 24.8881C129.232 24.7598 129.797 23.9372 129.988 23.2205C130.396 22.7552 130.982 22.2485 130.843 21.5551C130.859 21.4968 130.879 21.4364 130.901 21.376C130.953 21.2053 130.997 21.023 130.94 20.8618Z" fill="white"/>
<path fill-rule="evenodd" clip-rule="evenodd" d="M132.32 23.4128L133.134 23.1542L133.225 22.6995C133.454 22.0336 132.966 21.5375 132.728 21.0117L132.32 23.4128Z" fill="white"/>
<path fill-rule="evenodd" clip-rule="evenodd" d="M134.377 26.5557C134.763 26.9829 135.141 27.6667 135.826 27.4589C135.776 27.1705 135.617 26.9321 135.519 26.6744C135.341 26.4667 135.279 25.8709 134.922 26.0797C134.655 25.9017 134.586 25.6038 134.416 25.3652C134.339 25.7331 134.387 26.1889 134.377 26.5557Z" fill="white"/>
<path fill-rule="evenodd" clip-rule="evenodd" d="M134.514 29.4616C134.664 29.6695 134.705 29.9387 134.851 30.1274C135.12 30.3044 135.517 30.2748 135.847 30.2461C136.143 30.1762 136.333 30.5026 136.609 30.3151C136.263 30.0966 136.055 29.7001 135.728 29.4107C135.339 29.1054 134.923 29.3736 134.514 29.4616Z" fill="white"/>
<path fill-rule="evenodd" clip-rule="evenodd" d="M135.041 34.0777C135.726 34.4837 136.597 34.8812 137.511 34.7423C137.61 34.6936 137.779 34.7031 137.798 34.5844C137.232 34.3851 136.637 33.8201 136.044 33.7013C135.715 33.1957 135.288 33.8307 134.871 33.7904C134.881 33.908 135 33.9971 135.041 34.0777Z" fill="white"/>
<path fill-rule="evenodd" clip-rule="evenodd" d="M137.104 42.8379L137.253 43.1548C137.404 44.1874 138.056 45.1383 137.7 46.2694C137.998 46.4793 138.087 46.826 138.277 47.1038H138.326C138.554 46.2418 138.396 45.3481 138.277 44.4842C138.366 43.7008 137.571 43.245 137.104 42.8379Z" fill="white"/>
<path fill-rule="evenodd" clip-rule="evenodd" d="M137.275 32.6782C137.79 33.0757 138.614 33.1139 139.21 32.9167C138.833 32.7089 138.417 32.4789 138.108 32.2021L137.275 32.6782Z" fill="white"/>
<path fill-rule="evenodd" clip-rule="evenodd" d="M139.727 35.7232C139.679 36.1409 139.956 36.4876 140.253 36.6975C140.363 36.4505 140.54 36.2396 140.56 35.9628C140.471 35.5366 140.233 35.1486 139.845 34.8604C139.777 35.138 139.697 35.4063 139.727 35.7232Z" fill="white"/>
<path fill-rule="evenodd" clip-rule="evenodd" d="M139.757 40.2477C139.685 40.7132 140.203 40.7736 140.419 41.0312C140.599 41.2495 140.3 41.399 140.3 41.6067C140.678 42.0923 140.898 42.6457 140.898 43.2924C141.046 42.6881 141.274 42.1125 141.354 41.488C141.313 41.0502 140.62 41.1414 140.728 40.6548C140.928 40.1586 140.689 39.6731 140.559 39.2248C140.521 39.1569 140.43 39.0169 140.352 39.0583C140.173 39.4632 139.727 39.7516 139.757 40.2477Z" fill="white"/>
<path fill-rule="evenodd" clip-rule="evenodd" d="M141.117 37.8862L141.633 38.888C141.862 38.8584 142.01 38.6399 142.189 38.4809C142.327 38.0644 141.959 37.7961 141.852 37.458C141.762 37.2195 141.852 36.9035 141.682 36.6957C141.552 36.6152 141.405 36.4858 141.256 36.5262L141.117 37.8862Z" fill="white"/>
<path fill-rule="evenodd" clip-rule="evenodd" d="M141.781 35.2471C142.189 35.4951 142.655 35.8513 142.875 36.2892C143.223 37.3015 143.778 38.2122 144.185 39.1948C144.334 39.8797 144.453 40.4914 144.641 41.1645C144.713 41.3437 144.672 41.6903 144.95 41.6606C145.029 40.9069 145.178 40.1818 145.188 39.3984C144.941 39.0708 144.614 38.933 144.305 38.7347V38.6648C144.345 38.4974 144.485 38.297 144.692 38.3287C144.78 38.2291 145.049 38.1305 144.931 37.9514C144.414 37.4361 144.444 36.5489 143.621 36.3888C143.333 36.27 143.264 35.971 143.234 35.6955C142.846 35.3658 142.27 35.2577 141.781 35.2471Z" fill="white"/>
<path fill-rule="evenodd" clip-rule="evenodd" d="M142.262 40.6235C142.766 41.0888 142.589 41.7642 142.549 42.3896C142.471 42.767 142.945 42.5465 143.095 42.7469C143.405 43.2027 143.225 43.8684 143.117 44.3635C143.385 43.9554 143.691 43.5992 143.899 43.1518C143.891 42.9843 144.109 42.9038 144.099 42.695C144.187 42.4076 143.85 42.5369 143.71 42.5073C143.592 42.4776 143.464 42.3981 143.503 42.239C143.759 41.7429 143.523 41.1482 143.424 40.652C143.305 40.245 143.473 39.699 143.283 39.3418C142.965 39.7807 142.02 39.8793 142.262 40.6235Z" fill="white"/>
<path fill-rule="evenodd" clip-rule="evenodd" d="M143.184 33.5804C144.068 34.4741 144.713 35.371 145.665 36.2349C145.686 35.8469 145.636 35.4907 145.617 35.1134C145.479 34.8451 145.219 34.6479 144.999 34.4476C144.295 34.3798 143.928 33.4309 143.184 33.5804Z" fill="white"/>
<path fill-rule="evenodd" clip-rule="evenodd" d="M145.494 38.3074C145.514 38.3985 145.555 38.4769 145.595 38.5649C145.982 39.201 146.35 39.8562 146.618 40.5399C146.537 39.8053 147.034 38.8936 146.378 38.3275C146.29 38.088 145.994 38.1685 145.802 38.1876L145.494 38.3074Z" fill="white"/>
<path fill-rule="evenodd" clip-rule="evenodd" d="M147.881 45.5549C148.159 45.6843 148.516 45.4563 148.785 45.2973C149.033 45.238 149.241 45.3779 149.432 45.5061C149.51 45.664 149.432 45.8135 149.461 45.963C150.056 46.1306 150.641 46.35 151.168 46.6966L151.335 46.5281C151.375 46.1019 151.039 45.7934 150.719 45.5549C150.513 45.4362 150.202 45.5061 150.055 45.3174C150.155 45.1584 150.155 44.9198 150.144 44.7418C149.817 44.7418 149.608 44.6411 149.341 44.4842C149.171 44.4344 149.021 44.2945 148.882 44.4842C148.386 44.8203 148.357 45.3174 147.881 45.5549Z" fill="white"/>
<path fill-rule="evenodd" clip-rule="evenodd" d="M148.576 33.0706C148.824 32.9995 149.083 32.9306 149.291 32.7514C149.957 32.1461 150.919 32.5532 151.694 32.5437C151.546 32.2755 151.335 32.0072 151.147 31.7794C150.868 31.6701 150.611 31.5419 150.294 31.5419C149.617 31.1443 149.163 31.81 148.644 32.1366C148.505 32.4048 148.437 32.8012 148.576 33.0706Z" fill="white"/>
<path fill-rule="evenodd" clip-rule="evenodd" d="M148.591 35.1134C148.591 35.0826 148.591 35.0519 148.621 35.0444C148.712 35.1229 148.611 35.3137 148.761 35.3519C149.019 35.2225 149.258 35.0444 149.496 34.8759C150.161 34.8759 150.559 34.2303 151.213 34.2303C152.307 34.4296 153.389 34.649 154.341 35.1822C154.273 34.5398 153.715 33.9525 153.15 33.6653C152.832 33.556 152.583 33.7246 152.356 33.9037C151.691 34.3215 152.038 33.2984 151.572 33.2783C150.966 33.466 150.339 33.6759 149.665 33.6144C149.268 33.7649 148.988 34.1306 148.541 34.0903C148.523 34.4201 148.474 34.8176 148.591 35.1134Z" fill="white"/>
<path fill-rule="evenodd" clip-rule="evenodd" d="M149.053 37.3246C149.26 37.5452 149.607 37.5049 149.906 37.5452L150.77 37.206C150.779 37.0501 150.513 37.0077 150.571 36.8296C150.81 36.5614 151.136 36.7512 151.436 36.6419C151.852 36.5815 152.279 36.1671 152.696 36.4723C152.683 36.5232 152.714 36.591 152.675 36.6419C152.546 36.9494 152.764 37.1381 153.003 37.2569C153.491 37.3459 153.945 37.7933 154.433 37.5929C154.384 37.1859 154.276 36.8116 154.176 36.4225C153.768 36.3537 153.48 36.0165 153.103 35.8766C152.935 36.0356 152.714 36.1544 152.506 36.1341C151.741 35.955 150.827 35.479 150.053 35.9656C149.774 36.3038 149.279 36.2042 148.9 36.3526C148.923 36.6897 148.962 37.0183 149.053 37.3246Z" fill="white"/>
<path fill-rule="evenodd" clip-rule="evenodd" d="M149.381 43.2231C149.322 43.3917 149.153 43.6683 149.461 43.7489C150.096 43.768 150.91 43.4405 151.408 43.9366C151.575 44.0658 151.496 44.3341 151.485 44.5026L152.318 45.197C152.398 44.7783 152.549 44.4019 152.56 43.9556C152.49 43.6376 152.33 43.3313 152.052 43.1234C151.505 43.1234 151.189 42.4842 150.601 42.5626C150.294 42.4948 150.026 42.7673 149.716 42.7673C149.58 42.9051 149.5 43.0747 149.381 43.2231Z" fill="white"/>
<path fill-rule="evenodd" clip-rule="evenodd" d="M149.619 38.5457C149.748 38.8139 149.899 39.2507 150.146 39.2793C150.731 39.0238 151.587 38.8637 152.241 39.1426C152.459 39.1807 152.459 39.4288 152.411 39.5878C152.748 39.786 153.156 39.945 153.513 40.1623L153.414 39.5665C153.394 38.922 152.58 38.8637 152.529 38.2276C151.864 38.0103 151.119 37.9393 150.415 38.1089C150.186 38.3167 149.857 38.2891 149.581 38.3475C149.561 38.4269 149.608 38.4778 149.619 38.5457Z" fill="white"/>
<path fill-rule="evenodd" clip-rule="evenodd" d="M149.786 41.7608C150.173 41.6505 150.422 41.2254 150.839 41.1851C151.473 41.1957 152.04 41.4543 152.437 42.0013C152.675 42.1572 152.625 42.5643 152.935 42.5643C152.843 42.0788 153.002 41.6335 152.982 41.1352C152.567 40.4419 151.534 40.9784 151.147 40.1631L150.412 40.2129C149.885 40.3434 150.026 40.9582 149.957 41.3759C149.896 41.5031 149.777 41.6027 149.786 41.7608Z" fill="white"/>
<path fill-rule="evenodd" clip-rule="evenodd" d="M153.434 46.1C153.74 46.7149 154.417 47.1813 154.485 47.8852C154.643 47.6975 154.754 47.4792 154.862 47.2704C154.851 47.0721 154.623 47.0721 154.535 46.9131C154.443 46.6554 154.582 46.4276 154.623 46.1985C154.493 45.8318 154.184 45.4851 153.838 45.2656L153.434 46.1Z" fill="white"/>
<path fill-rule="evenodd" clip-rule="evenodd" d="M154.656 44.5324L155.371 45.5055C155.677 45.0201 155.677 44.3044 155.558 43.7192C155.49 43.609 155.36 43.431 155.183 43.5115C154.914 43.7882 154.874 44.2154 154.656 44.5324Z" fill="white"/>
<path fill-rule="evenodd" clip-rule="evenodd" d="M151.742 17.3776C152 17.5069 152.249 17.6256 152.558 17.6458C152.765 17.5366 153.035 17.456 153.293 17.527C153.659 17.7656 154.106 17.4772 154.533 17.4974C154.156 17.1401 153.727 16.9207 153.293 16.7129C152.735 16.8306 152.29 17.2281 151.742 17.3776Z" fill="white"/>
<path fill-rule="evenodd" clip-rule="evenodd" d="M155.627 18.3075C156.154 18.3573 156.532 18.8238 156.887 19.2107C157.333 19.2786 157.671 19.5976 157.939 19.9242L157.772 19.3994C157.653 18.8725 157.324 18.4654 156.987 18.0488C156.511 18.0796 156.043 18.1209 155.627 18.3075Z" fill="white"/>
<path fill-rule="evenodd" clip-rule="evenodd" d="M118.565 13.957L118.854 13.9878C119.627 14.3747 120.878 14.573 120.949 15.6935C120.163 16.002 119.409 16.4175 118.783 17.0525C118.307 16.567 117.344 16.8342 117.184 15.9818C117.334 15.1762 117.621 14.1638 118.565 13.957Z" fill="#FF6600"/>
<path fill-rule="evenodd" clip-rule="evenodd" d="M119.31 18.9878C120.215 18.9072 121.088 19.0355 122.021 18.957C122.248 19.0556 122.486 19.2528 122.597 19.4818C122.566 20.5536 122.239 21.5766 122.19 22.6769C121.782 22.8445 121.385 23.1836 121.285 23.6289C120.918 23.7382 120.59 23.9554 120.232 24.1239C120.076 23.7879 120.103 23.2812 120.383 23.0024C120.769 22.4575 121.773 22.5848 121.694 21.7218C121.951 21.3062 121.704 20.7698 121.712 20.3341C121.613 20.0055 121.514 20.4433 121.355 20.4327C121.038 20.5006 120.711 20.5207 120.431 20.3617C120.223 20.1433 119.968 19.9641 119.906 19.6684C119.626 19.5295 119.3 19.3122 119.16 19.0238L119.31 18.9878Z" fill="#FF6600"/>
<path fill-rule="evenodd" clip-rule="evenodd" d="M120.404 25.4535C120.828 25.515 121.276 25.3243 121.644 25.5342C121.567 25.6741 121.356 25.7324 121.187 25.7727L120.521 26.079C120.274 26.0208 120.413 25.6232 120.404 25.4535Z" fill="#FF6600"/>
<path fill-rule="evenodd" clip-rule="evenodd" d="M122.138 17.1711C122.564 17.0322 123.021 16.746 123.478 16.8828C123.151 17.2114 122.893 17.6365 122.646 18.034L121.285 18.0044C121.435 17.646 121.811 17.3503 122.138 17.1711Z" fill="#FF6600"/>
<path fill-rule="evenodd" clip-rule="evenodd" d="M126.124 16.8445C126.69 16.746 126.659 17.4796 127.175 17.5071C127.266 17.6258 127.396 17.735 127.345 17.9142C127.045 18.0329 126.61 17.9757 126.272 18.0531C125.825 17.805 126.114 17.0311 125.409 17.081C125.37 17.0205 125.291 16.9018 125.389 16.8626C125.608 16.7841 125.897 16.8138 126.124 16.8445Z" fill="#FF6600"/>
<path fill-rule="evenodd" clip-rule="evenodd" d="M125.765 19.5009C126.014 19.1532 126.392 19.1246 126.75 19.0557L129.322 19.1034C129.431 19.2041 129.222 19.2931 129.222 19.4119C129.064 19.5613 128.834 19.6016 128.695 19.7394C128.357 19.749 128.387 20.1465 128.15 20.3161C127.782 20.6829 127.244 20.5133 126.819 20.455C126.67 20.3448 126.501 20.1963 126.43 20.0278L126.311 20.1465C126.461 20.7031 126.421 21.3179 126.532 21.883L127.147 22.29C127.156 23.2018 128.229 22.9537 128.695 23.4604C128.586 23.789 128.368 24.0657 128.13 24.3435C127.753 23.9766 127.324 23.7392 126.869 23.5791C126.829 23.0459 126.243 22.7268 125.917 22.4597C125.826 21.4865 125.807 20.4942 125.648 19.5518L125.765 19.5009Z" fill="#FF6600"/>
<path fill-rule="evenodd" clip-rule="evenodd" d="M126.7 25.6238H127.893L127.743 26.2482L126.549 25.7425C126.522 25.644 126.63 25.6142 126.7 25.6238Z" fill="#FF6600"/>
<path fill-rule="evenodd" clip-rule="evenodd" d="M128.844 14.3842L129.728 14.1064C130.235 14.3439 130.711 14.6407 131.177 14.9789C131.545 15.6531 131.486 16.5659 131.316 17.3196C131.048 17.6165 130.462 17.3196 130.245 17.7956H130.203C129.876 16.8638 128.943 16.0284 128.078 15.6044C128.217 15.1273 128.367 14.6609 128.844 14.3842Z" fill="#FF6600"/>
</svg>
