<svg fill="none" height="37" viewBox="0 0 143 37" width="143" xmlns="http://www.w3.org/2000/svg"><g clip-rule="evenodd" fill-rule="evenodd"><path d="m.887939 10.0495c1.074451 0 1.823171.2273 2.288111.6917.52027.5197.75319 1.3782.75319 2.7831v17.5483c0 2.4283-.50956 3.5114-3.516951 3.5114h-.412289v1.0769h13.5154v-1.0716l-.4078-.0053c-2.9789-.0357-3.48127-1.1125-3.48127-3.5114v-17.5492c0-1.4004.23202-2.2553.75227-2.7741.4694-.4716 1.2315-.7007 2.3283-.7007h.8076v-1.09206h-13.5145v1.09206h.887939z" fill="#091c5a"/><path d="m44.1141 26.709s-.2347-1.0956-.2686-1.7089v-8.0151c-.0527-4.6739.5854-7.00055-3.5054-6.9827v-1.05015h9.4104v1.05015c-4.213-.01696-3.6829 2.3097-3.707 6.9827v18.7152l-1.3395-.0143-20.3209-21.2433s.2285 1.0938.2624 1.708v13.1249c-.1151 4.7879.4783 5.3665 3.566 5.3103v1.0939h-9.8101v-1.0939c3.0921.0036 3.6999-.4074 3.6963-5.7008v.3165-12.935l-.025-2.053c.1151-2.6574-.8674-4.1987-3.8668-4.1738v-1.051h9.032z" fill="#091c5a"/><path d="m78.1792 8.44238h-1.037l-.0482.3548c-.0705.52952-.2793 1.41652-.8834 1.41652-.1723 0-.6015-.0811-1.0852-.30221-2.1007-.90928-4.8225-1.46911-7.1142-1.46911-4.4594 0-8.5046 1.59572-11.3942 4.49472-2.654 2.6636-4.1059 6.2892-4.0854 10.2071.0187 3.753 1.4956 6.8401 4.5191 9.4423 3.0458 2.603 6.4583 3.7129 11.4174 3.7129 4.1309 0 6.4958-.5929 10.1252-2.5389l.6354-.3441v-7.0024c0-2.9845.3658-3.449 2.7967-3.547l.3954-.0152v-1.0403h-11.8761v1.0403l.3953.0152c2.7076.1052 3.2189.5901 3.2189 3.0576v6.4889c-2.0088 1.3238-3.4687 1.8266-5.3098 1.8266-2.7245 0-5.1491-1.0519-7.0107-2.9097-2.1801-2.1796-3.2438-5.3541-3.2438-8.9413 0-3.8644 1.0298-7.161 3.1519-9.2791 1.6893-1.6875 3.9328-2.6244 6.4922-2.6244 2.2864 0 4.9422.9797 6.7635 2.423 1.4814 1.2114 2.2498 2.3837 2.8298 4.3208l.0884.2933h1.0138z" fill="#091c5a"/><g fill="#fff"><path d="m130.196 35.5892c.66-.0999 1.361-.0847 1.887-.5679 2.231.3423 4.492-.2086 6.246-1.4361.924-.7444 1.756-1.6082 2.43-2.5523.593-.8308 1.06-1.6055 1.363-2.5361.225-.5741.404-1.1714.539-1.7847.636-2.8919.301-6.1261-.641-8.8762-.172-.5108-.37-1.0056-.584-1.4771-1.176-2.4284-2.777-5.0483-5.242-6.5843-1.388-.86471-2.666-2.20278-3.451-3.58809-.426-.38333-.835-.89145-1.386-.98327.15.24871.316.49208.358.78269l-.033.04101c-.585.01694-1.044-.2924-1.444-.66681l.441-.40026c-.167-.08469-.358-.11678-.542-.15957-1.686-.19166-3.073.58568-4.568.96009l-.024.08291c.919.40828 1.11 1.41919 1.645 2.10293.132-.15867.358-.04279.543-.05705.266.01516.517.20771.776.13996.008-.22286-.118-.40026-.158-.59995.158-.07488.35-.00891.527 0 .483.28259 1.259-.04992 1.56.59995-.551.03477-1.069.15065-1.586.27635.034.2086.242.37441.225.5839-.442-.18364-.911-.29953-1.403-.35747l-.025.07399c.626.73366 1.486 1.16869 2.364 1.42629 1.262.2915 2.372-.30841 3.59-.09981 2.991 1.36841 5.546 4.49831 6.657 7.46861.055.1426.107.287.156.4341.931 2.7127 1.108 6.0467.175 8.8762-.496 1.1767-1.042 2.2875-1.918 3.244-.331.4074-.697.7702-1.095 1.0769-1.253.9752-2.799 1.4058-4.393.969-.1-.0687-.301-.0856-.267-.2594.056-.2327.107-.4681.153-.7096.263-1.3559.386-2.7823.315-4.2086-.002-.0606-.004-.1221-.005-.1827-.089-2.0709-.502-3.9322-1.263-5.7232-.489-1.0278-1.069-2.1484-1.8-3.1539-.873-1.199-1.955-2.2349-3.346-2.7519-.852-.2256-1.904-.2683-2.547.4404-.459.402-.65.9431-.584 1.5368-.719.4547-1.526.6998-2.405.7747-.215.0187-.436.098-.66.0954-.212.0098-.419.0009-.623-.0241-1.057-.1301-2.127-.7007-2.94-1.3514-.017-.4342-.042-.8425-.059-1.3016-.466-.2415-.852-.7006-.884-1.2435l.041-.041c.268.0829.5.2157.743.3574-.109-.6507-.235-1.2926-.559-1.8604-.301-.1257-.602-.2256-.885-.3762-.325-.2149-.535-.6089-.583-.9663.291.2834.8.1836 1.026.4831-.394-1.1598-.4-2.48624-1.044-3.54618-.326-.78358-1.178-1.14284-1.763-1.71782-.226-.27635-.317-.65968-.725-.70247-.335-.0829-.36-.45731-.418-.70068.208.02496.383.1667.558.19969-.484-1.2828-.91-2.71091-2.22-3.52837l-.225.14263c-.51.07489-1.053.10876-1.562.1257.226-.3334.626-.47604.943-.62758-.367-.274571-.67-.340538-1.13-.41542-.266.26565-.749.40026-1.092.47514l-.043-.03387c-.009-.300421-.076-.666808.376-.742581-.435-.2086-1.155-.123912-1.597 0-.124.32538-.483.617771-.457 1.002881-.258.26655-.442.6258-.711.81746-.008-.64273.266-1.23466.383-1.77666-.376.141741-.757.342317-1.126.51704-.592-.342316-1.216-.683741-1.851-.9431538-.057-.0249606-.184-.0490298-.159.0588358.544.391347.333 1.126798.391 1.683948l-.343-.28259c-.166-.42522-.648-.733661-.731-1.200781-.569.108757-.932.258521-1.458.484058l-.0727.041898c.3917 0 .7257.307555.9177.617775-.593.03209-1.1194-.20058-1.704-.2603-.058-.05706-.1088-.1257-.2007-.11678-.2919.10875-.5435.31646-.8005.51704-.5765.56785-1.1619 1.19365-1.4368 1.94515.1928.03209.4346.02407.5765.14085-.3168.19166-.5926.51793-.9013.70068-.1089.43413-.0919.928-.1178 1.40225-.2428.36817-.5676.69177-.7255 1.10273-.5185 1.67414-.6515 3.53638-.5765 5.43788-.1678.1595-.3856.2603-.5426.3851l.0169 1.7009h.0411c.075-.3575.5015-.5572.7603-.7997h.0839c-.0419.3834-.0919.7676-.0999 1.1598l-.4837.4003c-.4855.4261-.0759 1.0679-.1169 1.6028.0339.14.0571.3495.1579.3833.0589-.2086.2419-.3583.3597-.5429.2079-.049.3917-.2175.5836-.2407-.1089.4172-.249.8255-.4177 1.2258-.0803.0526-.174.123-.2543.2086-.0857.0918-.1544.1943-.1722.3084.3775 1.9764.9682 3.9287 1.6438 5.7891-.4578.7765-.7184 1.6902-1.1004 2.4916-.0553.1115-.1044.2265-.1499.3423-.3837.9699-.5006 2.0548-.978 2.9864-.1937-.1319-.4025-.2344-.6176-.3254-.9031-.3004-1.9472-.1087-2.6058.5848-.5854-.1087-1.1869-.0089-1.6465.3004-.3293.2452-.5836.5438-.73.8915-.0999.2425-.1454.5063-.1303.7943-.3748.2576-.5756.657-.7005 1.059-.1749.9004.1419 1.8382.6595 2.5317h41.6282z"/><path d="m124.667 16.8303c-.008.2166-.166.46-.024.6427.2-.2255.535-.2175.802-.3164.742-.0669 1.453.1658 2.145.3343-.174-.2764-.292-.583-.484-.8344-.385-.0999-.969.1667-1.035-.4003-.234-.2006-.603-.057-.843-.0428-.235.1685-.427.3753-.561.6169z"/><path d="m99.1421 9.62716c-.0035-.00356-.0089-.00713-.0125-.00802 0 .00089 0 .00446.0018.00802z"/><path d="m102.179 17.0422.501-.4832c.043 0 .075.0089.1.0428l-.042.9253c.242.2256.543.3005.86.3174.026-.2505.218-.4252.326-.6427.092-.1748.034-.4342.217-.5599l.057.0589c.06.2745.044.5839.186.8255.017.1328.041.3004.057.4171.368.0179.701-.0837.985-.2166-.017-.3164.093-.5759.141-.8682.077-.1008-.092-.2835.118-.2746.117.2496.326.5081.443.7747.483-.4921.684-1.134.801-1.8008-.141-.1934-.359-.1934-.526-.3173-1.419-.4591-3.242-.5518-4.611.1578-.089.5687.028 1.1945.387 1.6438z"/><path d="m88.9072 32.6979c-.0508.6436 0 1.2462.0402 1.88.1347.2086.3773.4511.6173.468l.0437-.4261c.0991-.5937-.2177-1.2231.1169-1.7232.2337.0749.4657.1917.6682.3005.0982-.551-.0419-1.1928-.5683-1.5262z"/><path d="m90.9688 31.7983c-.3256.9753-.5683 2.1805-.1739 3.2066.2239-.1489.4585-.2915.6575-.5001-.0402-.7854-.149-1.6233.3176-2.2741.4086.1257.686.5179.843.9022.2766-.3522.3685-.8353.2597-1.3034.0169-.3654-.4024-.2816-.6022-.4332.0678-.3084.058-.6659.3845-.8406l-1.0019.0998c-.2578.3655-.5415.7256-.6843 1.1428z"/><path d="m93.0311 34.6787c.0429.0766 0 .2086.0839.2255.1258-.6998.6934-1.1544 1.0031-1.7713.149-.2086.1401-.501.3828-.6597.3266 0 .5604.2345.8781.2594.1.0749-.0517.1409-.0589.2238-.066.5687-.2837 1.0394-.2418 1.6224h.0571c.4426-.4653.7434-.9717 1.0691-1.5056l.0571-.4743c.075-.5679-.5426-.9342-.9433-1.1678l.3588-.4591-.5006-.1756c-.5855.0588-1.112.3004-1.5207.7604-.5078.9333-.5908 1.9879-.6247 3.1219z"/><path d="m95.2791 29.7279c.1918.0589.3667-.0998.5577-.016.7693.2826 1.5715.575 2.1471 1.2177l.6854 1.7428.3427-1.0751-.2258-.5848c-.1919-.4172-.7184-.3833-1.078-.4003-.1491-.1667.0089-.3592.0598-.517.174-.5919-.5524-.5598-.8443-.7996.0179-.3593-.4176-.2345-.6603-.2684l-.083-.0998c-.0491-.0749-.174-.0749-.2419-.0169-.0178-.0241-.0499-.0411-.0321-.0838l-.1856.0428c-.2579.2255-.4337.517-.4417.8584z"/><path d="m95.762 27.8104c.025.1078.0919.2166.1749.2826.3766-.0999.7344-.3575 1.169-.2006.5604.4921 1.1441 1.0091 1.8223 1.2774l.2409-.0428c.1509.0517.3168.0589.4177.2256.0928.2255-.1401.3592-.2169.542.3766.2754.2258.7684.4605 1.1009l.6016-.8005c-.141-.3512.008-.9512-.5436-.9842-.1829-.0927-.3088-.2763-.3007-.4849-.3579-.3254-.8005-.4662-1.161-.7996-.2918-.2345-.4668-.5937-.8434-.6767-.2579-.1408-.5407-.2166-.8415-.2825-.5622-.083-.6113.583-.9798.8433z"/><path d="m96.5634 26.1666.1008.1586c.4168-.0258.7942-.2086 1.2039-.2005.2748.1675.6344.1595.9173.3004.2258.3084.4685.6588.8005.8682.6781.099 1.0531.8255 1.2871 1.3586v-.2585c.1-.3575-.009-.7756-.143-1.1001-.167-.1675-.409-.2772-.584-.427-.034-.1078-.009-.1586.025-.2585-.2593-.2754-.6431-.4261-.9599-.6418-.4426-.6428-1.2949-.4671-1.9713-.6428z"/><path d="m96.5504 20.0458c.0741.2594.1651.5848.2141.8593.2338-.517.695-.7488 1.1036-1.1749-.2346-.1596-.5255-.2345-.7842-.2844v-.0151c-.1838.1827-.4675.3664-.5335.6151z"/><path d="m98.068 22.7906.3756-.3834c.3765-.3833.6852-.8263.7432-1.3184-.2668-.1587-.6174-.0508-.8761.041-.0937.5438-.2338 1.0778-.2427 1.6608z"/><path d="m98.3425 23.9673c.5772.0339 1.1357.1489 1.6041-.1738l.4664-1.503c-.149-.0089-.3-.0749-.4414-.0249-.3078.6846-.9278 1.3594-1.6291 1.7017z"/><path d="m98.5112 18.6446c.3756.5518 1.0019 1.1686 1.6448 1.3425-.075-.6998-.675-1.1848-.9846-1.7847l-.0178-.2006c-.2418-.2344-.5344-.3913-.7851-.5179-.0402.402.0687.7862.1427 1.1607z"/><path d="m100.548 24.0342c.442.0767.918 0 1.326-.1266.595-.1399.92-.7916 1.12-1.2997h-.743l-.802.7836c-.316.1676-.618.419-.901.6427z"/><path d="m100.458 17.8857c.126.6508.4 1.2427.777 1.8026l.1-1.2436z"/><path d="m103.196 21.1303c.05-.4172-.124-.9003-.173-1.3256-.251-.1675-.603-.1506-.861-.3164.017.6588.533 1.2168 1.034 1.642z"/><path d="m102.436 25.3702c.526-.1676 1.035-.3512 1.518-.6186.309-.4404.777-.8434.843-1.3595-.383.1079-.718-.0161-1.076.1596-.216.3913-.351.8344-.768 1.1169-.066.2826-.375.4761-.517.7016z"/><path d="m103.253 26.3963.626.8166c.335.1087.752.0749 1.044-.1168l-.226-.7426c-.442.1685-.967.1168-1.444.0428z"/><path d="m104.298 20.488.242 1.1019c.583-.4761.702-1.1687.687-1.9024-.334.3833-.529.6178-.929.8005z"/><path d="m105.943 22.4331c.009.1578.051.3084.143.4341.65.2327.717 1.0252 1.32 1.3256.391.1748.841-.0428 1.184-.2005-.258-.2916-.552-.4939-.801-.8015-.176-.0748-.351-.1836-.342-.4002z"/><path d="m106.46 26.3705c.285.3254.668.4921 1.069.583-.066-.0918.043 0 .059-.058l-.502-1.0991c-.25.0062-.509.057-.743.041.016.1818.059.3646.117.5331z"/><path d="m107.346 21.2304c-.235-.542-.333-1.2008-.399-1.8007-.251.2995-.509.4921-.743.7996-.109.6178.773.7693 1.142 1.0011z"/><path d="m108.365 20.6643c.301.3913.96.2576 1.329.1408-.176-.3004-.742-.4751-.842-.8005-.059-.575-.174-1.1339-.359-1.6599-.293.7087-.645 1.552-.128 2.3196z"/><path d="m108.891 22.433c.836.6097 1.653 1.3175 2.822 1.059.084-.0588.226-.0508.243-.1587-.343-.2175-.709-.3842-1.061-.583l-.4-.5848h-.184c-.451.1507-.937.2077-1.42.2675z"/><path d="m108.909 29.1989h.057c.502-.4003 1.095-.534 1.687-.7016.16.0579.059.2336.201.3013.36-.1506.794-.1168 1.161-.2425.444.0179.803.0259 1.161.2175.283.3745.818.3343 1.187.5831l-.059-.5831c-.776-.9101-1.988-.977-3.106-.9592l-.025-.1176c-.267 0-.567.0588-.818.1765-.359.0151-.701.1916-1.045.2995-.16.3174-.285.6998-.401 1.0261z"/><path d="m109.578 18.9459c.325.4261.809.7506 1.36.6427-.282-.2755-.609-.5687-.626-.9601.084-.7426-.734-.8005-1.135-1.1856.132.5019.117 1.0599.401 1.503z"/><path d="m109.493 30.6764h.098c.443-.2773 1.086-.0678 1.521-.3602.242-.1257.258.2086.427.3005.408.2504.458 1.0002 1.035.8263.692.3584.517 1.2026.542 1.8195l.644-.4003c-.059-.3254.124-.7194-.085-1.002-.158-.3574-.592-.3913-.8-.6837.25-.4261-.317-.6249-.435-.9343l.034-.0427.883.1167c.303.1837.41.518.503.8264.693.1168.86.9004 1.103 1.4014.142-.3423.2-.7096.342-1.0421.009-.2764-.359-.2764-.542-.4003-.052-.4252-.243-.8273-.618-1.0849-.769-.1917-1.444-.6178-2.288-.6178l-.702.2175c-.385.0919-.793-.0249-1.085.2407-.437.033-.47.5099-.577.8193z"/><path d="m109.935 27.2379.16.0749c.341-.1596.684-.3423 1.044-.476.558-.1587.993.476 1.462.0757.174-.1256.323.058.458.1587.201.3673.669.3423 1.019.4422-.175-.4752-.391-1.1268-1.002-1.2035-.242-.1078-.526-.0971-.76-.2407-.643-.7087-1.06.583-1.763.2666-.25.2772-.558.5348-.618.9021z"/><path d="m110.095 31.301c.266.2238.541.6089.958.558.52.2425.302.9254.586 1.2846l.3-.2674-.025-.0161.043-.0418.017.0249c.083-.2514-.034-.6935-.176-.985-.192-.132-.418.0089-.601-.1168-.025-.2666-.192-.4003-.384-.567-.134-.0998-.31.0339-.46.025z"/><path d="m111.139 21.1306c.275.4599.809.7434 1.235 1.0599.35.1596.81.1997 1.186.1168-.359-.2915-.685-.6249-.985-.9771-.117-.1667-.143-.3744-.301-.525-.394.0757-.835.0677-1.135.3254z"/><path d="m111.599 18.145c.386.4743.978.2835 1.52.2996v-.0571l-.835-.7024c-.234.0757-.483.2834-.685.4599z"/><path d="m96.2249 10.2771.4835 1.5021c-.0089-.8513.3836-1.5601.3006-2.42743l.3596-.53488-.761.23356c-.1999.38333-.3658.76844-.3827 1.22665z"/><path d="m96.5504 7.67432.6584-.38422v-.97614c-.2756.1676-.4273.45108-.6423.67662z"/><path d="m110.096 9.19295c-.16.2086-.401.25853-.601.30042.35-.64273.518-1.53686.241-2.2625.185-.06597.386-.09806.561-.19969l-.018-.01604.46-.40205c.61-.4172.376-1.20881.602-1.80073-.301-.46801-.392-1.03498-.827-1.42811l.026-.01515c-.344-.43414-.962-.38511-1.431-.60173-.618-.2086-1.093.21662-1.536.50189-.192.03209-.075.28259-.284.27456-.117.30934-.259.64274-.342.98417-.828-.11767-1.72-.02407-2.38.44216-.352-.25763-.778-.30845-1.187-.42523-.3-.05794-.643.05082-.859-.11767-.317-.35747-.385-1.00912-.929-1.10005-.191-.06686-.232-.27457-.232-.4591-.359-.05794-.678-.22375-1.029-.30042-.5324-.24247-.9581.14264-1.3597.40027-.1749.07577-.3757.09984-.5417.20146-.3007.46623-.5854.94227-.7772 1.45842.0589.42522.2418.80141.4604 1.15978.1919.54289.7925.96811 1.302 1.18563-.2418.82548-.2418 1.81054 0 2.64494 0 0-.0142.0098-.0142.00802 0 .00178-.0268.02318-.0268.02318-.0803 0-.1651.01604-.2311-.02318h-.0107c.1169.797.4926 1.4941 1.099 2.0922.218.0767.168.3343.261.5019.057.074.065.2327.04.2996-1.301-.0419-2.4629.2834-3.507.8754-.2668.1337-.149.5018-.174.7595.7344-.4832 1.5278-.8424 2.4041-1.0002.3757-.025.8009-.1168 1.1609-.017l.042.7176c-.9932.5171-2.0792.8175-2.9315 1.6688.017.2577-.0321.559.0429.7765l.7603-.6187c.7335-.5571 1.5019-1.0341 2.3463-1.3425.226.2674.46.5509.761.7167.509-.3253 1.06-.566 1.645-.7167.309-.1836.8-.0169 1.001-.3833l.143-.7595c-.026-.017-.041-.0491-.084-.0402-.392-.2255-.651-.6168-.618-1.0768-.133.0659-.283.1087-.442.1168-.134-.0339-.258-.066-.317-.2006-.009-.1676-.093-.4172.074-.542.543-.3343 1.245-.3513 1.93-.2996.509.066 1.245.0402 1.419.6428-.023.1747-.008.3664-.183.4832-.184.0998-.392-.009-.56-.083-.132.4083-.358.8683-.819 1.0003l.06.4849c.057.2175.074.575.418.5001.793.1917 1.494.6008 2.187 1.043.234-.2344.418-.5019.584-.7426 1.236.4163 2.306 1.3426 3.324 2.2019l.043-.7007c-.969-.8593-2.047-1.4682-3.166-1.9442.042-.2256.092-.4431.1-.6838 1.328.074 2.588.4832 3.683 1.1268l-.017-.6008c-1.153-.6169-2.414-1.0261-3.792-1.043-.05-.0767-.066-.1836-.057-.2594.668-.1088 1.143-.8005 1.303-1.4023.341-.3913.836-.8174.719-1.40045.015-.04724.032-.09895.049-.14887.044-.14709.082-.29953.032-.43503z"/><path d="m111.258 11.3369.685-.2175.074-.3833c.193-.559-.215-.97615-.418-1.41921z"/><path d="m112.985 13.982c.325.3574.643.9342 1.22.7577-.043-.2407-.177-.4404-.26-.6579-.151-.1765-.2-.6766-.501-.5001-.226-.1506-.283-.402-.426-.6017-.065.3084-.024.6926-.033 1.002z"/><path d="m113.103 16.4245c.125.1765.159.4021.282.5599.226.1488.561.1257.835.0998.251-.0579.41.2166.644.0571-.291-.1828-.466-.5171-.744-.7578-.326-.2585-.675-.033-1.017.041z"/><path d="m113.545 20.3053c.575.3423 1.309.6766 2.077.5598.083-.0428.226-.0338.242-.1346-.476-.1676-.975-.6427-1.475-.7426-.277-.4252-.635.1088-.986.0749.008.1008.108.1765.142.2425z"/><path d="m115.281 27.6714.125.2683c.126.8683.676 1.6679.375 2.6191.251.1747.327.4662.485.6998h.042c.191-.7248.058-1.4763-.042-2.2028.075-.6588-.594-1.043-.985-1.3844z"/><path d="m115.425 19.1283c.435.3343 1.128.3673 1.627.2006-.316-.1748-.666-.3664-.927-.6009z"/><path d="m117.485 21.6906c-.043.3512.192.6427.443.8174.092-.2086.242-.3833.258-.6169-.074-.3592-.275-.6837-.601-.9253-.059.2327-.125.4564-.1.7248z"/><path d="m117.511 25.4936c-.059.3913.375.443.559.6596.15.1828-.1.3085-.1.4832.316.4083.5.8763.5 1.4192.126-.5081.318-.994.387-1.519-.034-.3664-.618-.2915-.527-.6998.166-.4172-.034-.8264-.143-1.2008-.033-.0597-.108-.1765-.174-.1426-.153.3423-.528.583-.502 1.0002z"/><path d="m118.656 23.5079.433.8424c.193-.0231.316-.2086.467-.3405.117-.3512-.192-.5768-.283-.8602-.077-.2006 0-.4672-.143-.6428-.108-.0659-.234-.1747-.359-.1426z"/><path d="m119.214 21.29c.343.2077.735.5082.918.8746.293.8513.761 1.6188 1.103 2.4443.125.5759.225 1.0894.384 1.6572.059.148.025.4404.26.4163.066-.6338.192-1.2427.2-1.9023-.208-.2746-.486-.3914-.744-.5599v-.057c.034-.1426.151-.3093.327-.2826.074-.0856.3-.1676.201-.3174-.435-.4332-.41-1.1811-1.104-1.3157-.241-.0999-.301-.3495-.324-.5831-.327-.2736-.812-.3681-1.221-.3744z"/><path d="m119.614 25.8117c.426.3905.277.9583.242 1.4843-.066.3174.335.1337.461.3004.258.3842.108.9432.015 1.3604.226-.3432.485-.6437.66-1.0181-.009-.1426.174-.2086.168-.3833.074-.2425-.209-.1337-.326-.1604-.1-.025-.209-.0919-.176-.2247.217-.4181.017-.9182-.067-1.3345-.099-.3432.043-.8005-.116-1.1009-.267.3672-1.061.451-.861 1.0768z"/><path d="m120.391 19.8868c.744.7515 1.286 1.5056 2.087 2.2322.018-.3236-.024-.6258-.041-.9432-.118-.2237-.335-.3913-.519-.558-.591-.0589-.901-.8558-1.527-.731z"/><path d="m122.337 23.8636c.017.0749.051.1408.083.2166.326.5349.634 1.084.861 1.6599-.067-.616.351-1.3853-.201-1.8596-.075-.2006-.326-.1337-.484-.1177z"/><path d="m124.341 29.9588c.235.1061.534-.0856.76-.2175.209-.0508.385.0659.544.1747.066.1328 0 .2576.023.3833.502.1418.994.3254 1.438.6169l.14-.1408c.034-.3593-.249-.616-.517-.8166-.175-.1025-.435-.0428-.559-.2024.083-.1319.083-.3325.074-.4831-.276 0-.451-.0838-.677-.2176-.14-.041-.267-.1577-.384 0-.416.2844-.441.7007-.842.9031z"/><path d="m124.927 19.4589c.207-.057.426-.1176.601-.2665.557-.509 1.368-.1676 2.019-.1756-.124-.2256-.301-.4493-.459-.6428-.233-.0918-.451-.2005-.718-.2005-.568-.3326-.951.2255-1.386.5001-.116.2273-.174.5598-.057.7853z"/><path d="m124.944 21.1759c0-.0232 0-.0499.025-.057.075.0668-.009.2246.116.2576.217-.107.418-.2576.618-.3985.56 0 .894-.542 1.444-.542.918.1658 1.83.3495 2.631.7996-.057-.542-.526-1.034-1.001-1.2774-.268-.0918-.477.0517-.669.2006-.56.3521-.267-.5082-.659-.526-.51.1605-1.037.3343-1.603.2853-.335.1239-.57.4314-.944.3993-.017.2755-.059.6098.042.8585z"/><path d="m125.327 23.0384c.174.1828.466.1489.718.1828l.726-.2826c.009-.1337-.217-.1685-.168-.3165.201-.2255.478-.0677.727-.1604.352-.0491.711-.3994 1.06-.1409-.008.041.018.1007-.015.1409-.111.2594.075.4172.274.517.41.0767.794.452 1.203.2835-.041-.3414-.133-.6579-.217-.9842-.342-.0588-.584-.3423-.902-.46-.142.1338-.325.2345-.501.2176-.644-.1498-1.412-.5501-2.063-.1409-.234.2826-.652.1997-.969.3236.018.2862.05.5607.127.8201z"/><path d="m125.602 27.9967c-.051.1418-.192.3762.066.4422.535.0178 1.219-.2577 1.638.1587.141.1096.074.3334.066.476l.7.5848c.068-.3512.192-.6686.201-1.0448-.057-.2665-.192-.526-.425-.7007-.46 0-.728-.5375-1.22-.4689-.258-.0597-.483.1694-.743.1694-.117.1168-.183.2594-.283.3833z"/><path d="m125.803 24.0646c.108.2237.235.5919.442.6168.493-.2166 1.211-.3512 1.763-.1167.184.0329.184.2415.143.3761.283.1667.626.2987.926.4832l-.083-.5001c-.018-.5429-.702-.5937-.744-1.1286-.56-.1827-1.186-.2407-1.779-.0989-.193.1756-.467.1506-.702.2014-.015.066.025.107.034.1668z"/><path d="m125.946 26.7672c.326-.0918.533-.451.884-.4831.535.0089 1.011.2237 1.344.6837.203.1328.16.4761.418.4761-.075-.4101.058-.7854.042-1.2026-.352-.583-1.217-.1337-1.544-.8175l-.617.041c-.443.1088-.325.6267-.386.9771-.05.1087-.15.1916-.141.3253z"/><path d="m129.008 30.4161c.26.517.829.9102.886 1.503.134-.1596.226-.3423.318-.5171-.009-.1675-.202-.1675-.278-.3004-.074-.2166.043-.4083.076-.6017-.108-.3093-.367-.6008-.659-.7836z"/><path d="m130.038 29.0986.601.8175c.258-.4092.258-1.0092.158-1.503-.057-.0918-.167-.2416-.317-.1747-.227.2344-.259.5919-.442.8602z"/><path d="m127.59 6.26215c.218.10876.427.2086.685.22465.176-.09093.402-.15779.619-.09985.308.20058.684-.04189 1.042-.02496-.316-.29952-.676-.48316-1.042-.65789-.469.09895-.843.43146-1.304.55805z"/><path d="m130.857 7.0467c.441.04101.759.43235 1.059.76041.377.05705.661.32359.885.59994l-.141-.44305c-.1-.44305-.376-.78536-.659-1.13392-.4.02496-.795.05794-1.144.21662z"/></g><path d="m99.6888 3.38525.2418.02496c.6524.32538 1.7044.49209 1.7624 1.43435-.658.25941-1.293.61064-1.8186 1.14284-.4007-.40918-1.2119-.18364-1.3449-.90037.1259-.67572.3668-1.52527 1.1593-1.70178z" fill="#f60"/><path d="m100.318 7.61627c.758-.06597 1.494.04011 2.28-.02496.192.0829.392.2505.483.44216-.025.90037-.3 1.76062-.342 2.68593-.342.1435-.677.4261-.76.8014-.309.091-.585.2764-.886.4163-.134-.2826-.109-.7087.127-.9413.325-.46 1.169-.3513 1.1-1.07691.218-.35123.009-.80142.018-1.16869-.084-.27457-.167.09182-.301.0829-.266.05705-.542.07488-.775-.05705-.177-.18542-.394-.3343-.444-.58479-.233-.11678-.508-.30042-.625-.5429z" fill="#f60"/><path d="m101.235 13.0559c.357.049.734-.1088 1.043.0659-.067.1168-.242.1667-.384.2006l-.559.2594c-.209-.0517-.092-.3851-.1-.5259z" fill="#f60"/><path d="m102.698 6.08826c.357-.11678.743-.35747 1.126-.24069-.275.27546-.492.63382-.7.96633l-1.144-.02407c.123-.29953.44-.55002.718-.70157z" fill="#f60"/><path d="m106.046 5.81389c.474-.0829.449.53398.884.55984.076.09984.185.19077.142.34053-.251.09984-.618.05081-.903.11678-.376-.2086-.132-.85936-.726-.81746-.032-.04903-.1-.14977-.016-.18364.184-.06508.424-.04101.619-.01605z" fill="#f60"/><path d="m105.745 8.05051c.208-.29329.527-.31647.827-.37619l2.163.04189c.092.08291-.083.15779-.083.25853-.134.1248-.327.15867-.444.27635-.283.00891-.259.34053-.459.48316-.31.30844-.76.16759-1.119.11678-.126-.09182-.267-.21751-.326-.35925l-.1.09984c.126.46801.092.98595.183 1.46018l.517.3432c.009.7676.912.559 1.304.9851-.092.2745-.276.5081-.475.7426-.317-.3094-.677-.5108-1.061-.6428-.033-.4511-.525-.7167-.802-.9431-.075-.81749-.092-1.65189-.224-2.44439z" fill="#f60"/><path d="m106.531 13.1967h1.002l-.125.526-1.003-.4261c-.023-.0829.067-.1079.126-.0999z" fill="#f60"/><path d="m108.334 3.74568.743-.23445c.427.19969.828.45107 1.219.73367.31.56874.258 1.3345.117 1.96832-.226.25139-.718 0-.901.40026h-.034c-.277-.78358-1.06-1.48337-1.787-1.84352.116-.39937.242-.79072.643-1.02428z" fill="#f60"/><path d="m125.752 35.5302h4.456c.659-.0999 1.361-.0838 1.886-.5688 2.231.3432 4.493-.2077 6.247-1.4334.925-.7471 1.757-1.61 2.429-2.5522.593-.8309 1.061-1.6073 1.364-2.5371.225-.575.403-1.1714.538-1.7856.636-2.891.302-6.1243-.638-8.8771-.175-.5108-.371-1.0029-.586-1.4753-1.176-2.4283-2.775-5.0474-5.242-6.58428-1.389-.8656-2.666-2.20456-3.451-3.58809-.426-.38511-.836-.89324-1.386-.98506.151.2505.317.49208.359.78359l-.034.0419c-.583.01693-1.044-.29151-1.444-.66859l.443-.39937c-.168-.08291-.359-.11767-.543-.15779-1.688-.19166-3.074.58301-4.568.9592l-.025.08291c.918.40828 1.11 1.41741 1.645 2.10293.134-.15957.36-.04279.543-.05972.266.01693.517.20859.775.14174.009-.22465-.115-.39937-.158-.59906.158-.07666.352-.00891.527 0 .483.28259 1.261-.0517 1.561.59906-.551.03476-1.069.14976-1.586.27545.033.2086.242.3762.226.5848-.444-.18543-.911-.29953-1.404-.35926l-.023.07399c.626.73456 1.485 1.1687 2.362 1.42811 1.261.29154 2.371-.30845 3.589-.09985 2.992 1.36839 5.546 4.49829 6.658 7.46859.055.1426.106.287.156.4324.931 2.7126 1.107 6.0493.175 8.877-.496 1.1785-1.042 2.2875-1.918 3.2458-.331.4056-.697.7684-1.095 1.0769-1.254.9752-2.8 1.404-4.392.9663-.099-.0651-.302-.0829-.268-.2576.056-.2318.107-.4689.153-.7087.265-1.3577.386-2.784.316-4.2086-.004-.0615-.005-.123-.007-.1836-.088-2.07-.501-3.9322-1.263-5.7222-.487-1.0279-1.068-2.1484-1.799-3.1549-.872-1.1999-1.955-2.2366-3.346-2.7537-.852-.2255-1.905-.2665-2.547.4431-.46.4002-.651.9422-.585 1.5342-.718.4564-1.526.7024-2.405.7764-.215.0187-.436.0963-.659.0954-.213.0098-.421 0-.622-.0258-1.06-.1302-2.129-.6981-2.942-1.3515-.017-.4315-.043-.8424-.059-1.2997-.466-.2425-.85-.7025-.884-1.2436l.043-.0419c.267.0829.5.2166.741.3593-.109-.6508-.233-1.2935-.558-1.8605-.301-.1257-.604-.2247-.887-.3762-.325-.2166-.534-.6089-.582-.9681.291.2853.8.1845 1.026.4849-.392-1.1597-.401-2.48622-1.044-3.54616-.326-.78448-1.178-1.14284-1.763-1.71961-.225-.27457-.316-.65789-.726-.70068-.334-.0829-.36-.4591-.418-.69979.209.02407.384.1667.561.19969-.486-1.28548-.911-2.71091-2.222-3.52837l-.226.14085c-.509.07666-1.052.10876-1.562.12569.226-.33429.627-.47514.944-.62669-.368-.274563-.67-.341422-1.13-.417195-.267.268327-.749.400265-1.092.475145l-.041-.03209c-.009-.299532-.078-.668592.373-.742583-.433-.2086-1.152-.125695-1.595 0-.126.32538-.482.616883-.459 1.000213-.257.26832-.441.62579-.709.81835-.008-.64274.265-1.235554.382-1.776665-.375.14085-.757.340535-1.124.517042-.594-.342317-1.218-.684635-1.852-.9422642-.059-.02585207-.185-.0508126-.16.057053.543.3922392.333 1.1259042.391 1.6857342l-.342-.28259c-.167-.42611-.65-.734556-.732-1.202568-.569.108757-.932.259413-1.458.48495l-.0735.041007c.3915 0 .7255.308441.9185.616881-.593.03388-1.1193-.20057-1.7029-.25763-.0589-.05883-.108-.12569-.2017-.11678-.2927.10876-.5417.31736-.8014.51794-.5756.56607-1.161 1.19365-1.4358 1.94336.1927.03388.4346.02585.5765.14263-.316.19167-.5926.51705-.9023.70068-.1079.43414-.0919.92622-.1169 1.40226-.2418.36638-.5675.69176-.7264 1.10005-.5176 1.67682-.6514 3.53724-.5756 5.43964-.1678.1578-.3855.2603-.5426.3842l.017 1.7018h.041c.0768-.3593.5025-.5589.7604-.8005h.0839c-.0411.3833-.092.7666-.1 1.1597l-.4846.4003c-.4828.4252-.074 1.0662-.1169 1.6002.0348.1426.058.3512.1607.3851.0571-.2086.2409-.3593.3569-.542.2088-.0517.3918-.2175.5837-.2425-.1062.4163-.249.8255-.4177 1.2257-.0794.0526-.174.1248-.2543.2086-.0848.0919-.1526.1971-.1687.3103.3748 1.9772.9656 3.9286 1.6429 5.7891-.4605.7746-.7201 1.6893-1.103 2.4907-.0544.1123-.1035.2255-.1499.3423-.3837.9708-.5006 2.0539-.9781 2.9872-.1918-.1346-.3998-.2344-.6166-.3262-.904-.2996-1.9472-.1079-2.6058.5839-.5855-.1088-1.1869-.0089-1.6474.2995-.3284.2478-.5836.5456-.7291.8941-.0982.2416-.1455.5046-.1294.7925-.3766.2585-.5774.6588-.7014 1.0591-.1758.9021.141 1.839.6586 2.5317h37.1739z" fill="#fff"/><path d="m142.034 17.777c-.175-.5108-.371-1.0029-.586-1.4753-1.176-2.4284-2.775-5.0474-5.242-6.5843-1.389-.8656-2.666-2.20456-3.451-3.5881-.426-.3851-.836-.89323-1.386-.98505.15.2505.316.49208.359.78359l-.034.04189c-.583.01694-1.044-.2915-1.444-.66859l.443-.39937c-.168-.0829-.36-.11767-.543-.15778-1.688-.19166-3.074.58301-4.568.9592l-.025.0829c.918.40829 1.11 1.41741 1.645 2.10294.134-.15957.36-.04279.543-.05973.266.01694.517.2086.775.14174.009-.22464-.115-.39937-.158-.59905.158-.07667.352-.00892.527 0 .483.28259 1.261-.05171 1.561.59905-.551.03477-1.069.14977-1.586.27546.033.2086.242.37619.225.58479-.443-.18542-.91-.29952-1.403-.35925l-.023.07399c.626.73455 1.484 1.16869 2.362 1.4281 1.261.29147 2.371-.30844 3.589-.09984 2.992 1.36841 5.546 4.49831 6.658 7.46861.055.1426.106.287.156.4323.931 2.7127 1.107 6.0494.175 8.8771-.496 1.1785-1.042 2.2875-1.918 3.2458-.331.4056-.697.7684-1.095 1.0769-1.254.9752-2.8 1.404-4.392.9663-.099-.0651-.302-.0829-.269-.2576.057-.2318.108-.4689.154-.7087.265-1.3577.385-2.7841.316-4.2086-.004-.0615-.005-.123-.007-.1836-.088-2.07-.501-3.9322-1.263-5.7223-.487-1.0278-1.068-2.1484-1.799-3.1548-.872-1.1999-1.955-2.2367-3.346-2.7537-.852-.2255-1.905-.2665-2.547.4431-.46.4002-.651.9422-.585 1.5341-.718.4565-1.526.7025-2.405.7765-.215.0187-.436.0963-.659.0954-.213.0098-.421 0-.622-.0259-1.06-.1301-2.129-.698-2.942-1.3514-.017-.4315-.043-.8424-.059-1.2997-.467-.2425-.85-.7025-.884-1.2436l.043-.0419c.267.0829.5.2166.741.3592-.109-.6507-.233-1.2935-.558-1.8604-.301-.1257-.604-.2247-.887-.3762-.325-.2166-.534-.6089-.582-.9681.291.2852.8.1845 1.026.4849-.392-1.1598-.401-2.48625-1.044-3.54618-.326-.78448-1.178-1.14284-1.763-1.71961-.225-.27457-.316-.65789-.726-.70068-.334-.08291-.36-.4591-.418-.69979.209.02407.384.1667.561.19968-.486-1.28547-.911-2.7109-2.222-3.52836l-.226.14085c-.509.07666-1.052.10875-1.562.12569.226-.33429.627-.47514.944-.62669-.368-.274566-.67-.341425-1.13-.417199-.267.268327-.749.400259-1.092.475149l-.041-.0321c-.009-.299525-.078-.668586.373-.742576-.433-.2086-1.152-.125695-1.595 0-.126.325379-.482.616886-.459 1.000206-.257.26833-.441.6258-.709.81836-.008-.64274.265-1.235557.382-1.776668-.375.140849-.757.340534-1.124.517042-.594-.342318-1.218-.684635-1.852-.9422645-.059-.02585212-.185-.0508129-.16.0570528.543.3922387.333 1.1259077.391 1.6857377l-.342-.28259c-.167-.42612-.65-.734559-.732-1.202571-.569.108757-.932.259412-1.458.48495l-.0735.041006c.3915 0 .7255.308445.9185.616885-.593.03388-1.1193-.20058-1.7029-.25763-.0589-.05884-.108-.12569-.2017-.11678-.2927.10876-.5417.31736-.8014.51793-.5756.56608-1.161 1.19366-1.4358 1.94337.1927.03387.4346.02585.5764.14263-.3159.19166-.5925.51704-.9022.70068-.108.43414-.0919.92622-.1169 1.40225-.2418.36639-.5675.69177-.7264 1.10006-.5176 1.67682-.6514 3.53726-.5756 5.43966-.1678.1578-.3855.2603-.5426.3842l.017 1.7018h.041c.0768-.3593.5025-.559.7604-.8006h.0839c-.0411.3834-.092.7667-.1 1.1598l-.4846.4003c-.4828.4252-.074 1.0662-.1169 1.6001.0348.1427.058.3513.1607.3852.0571-.2086.2409-.3593.3569-.5421.2088-.0517.3918-.2175.5836-.2424-.1061.4163-.2489.8255-.4176 1.2257-.0794.0526-.174.1248-.2543.2086-.0848.0918-.1526.197-.1687.3102.3748 1.9773.9656 3.9287 1.6429 5.7891-.4605.7747-.7202 1.6893-1.103 2.4907-.0544.1124-.1035.2256-.1499.3424-.3837.9708-.5007 2.0539-.9781 2.9872-.1919-.1346-.3998-.2344-.6166-.3262-.904-.2996-1.9473-.1079-2.6058.5839-.5855-.1088-1.1869-.009-1.6474.2995-.3284.2478-.5836.5455-.7291.8941-.0982.2416-.1455.5046-.1294.7925-.3766.2585-.5774.6588-.7014 1.0591-.1758.9021.141 1.839.6586 2.5317h14.7579c-.217-.2577-.418-.6169-.57-.9254-.316-.4769-.099-1.1517-.133-1.7026.301-.6062.606-1.216.95-1.8088.069-.1194.139-.2362.21-.3521l.678-.2585c.359 0 .66-.2586 1.002-.1676.46.46.46-.4582.903-.5001 1.035-.1337 2.062-.0339 2.646.8424 0 .1168.186.1168.143.2255-.134.0402-.26-.0428-.401-.0428-.634-.1577-1.379-.5598-2.004-.2005-.024.1497-.056.3022-.087.4519-.031.1596-.06.3156-.073.4654.409.1168.751.4091 1.06.7256.209-.4083.652-.5919 1.044-.7256.343.0749.719.0838 1.003.3004.527.4849.267 1.3104.218 1.9273.475.2666 1.001.4181 1.485.6757-.226.2024-.525.2844-.8.3851l-.802-.1595c-.092-.066-.251-.066-.284-.1828-.267.2826-.593.6588-.76 1.0252h11.441c-.151-.3423-.326-.6089-.535-.9253-.235-.501-.141-1.1857-.167-1.7196l1.069-1.6269c.584-.0081 1.245-.2256 1.879-.1168.032-.0143.062-.0303.092-.0491.263-.1818.343-.6044.735-.5518.701-.1907 1.236.1266 1.763.4431-.018.0419-.035.0784-.054.1087-.22.3522-.633-.041-.933.0651-.126.1337.059.2915.083.4431.109.1488-.109.1319-.183.1578-.175.0249-.367-.017-.502-.1578-.033-.0428-.008-.0918-.074-.0999-.152.2487-.368.4752-.426.7587.191.1845.449.3672.542.6017.192.2754-.151.4832-.217.7256-.025.0491-.101.0491-.126 0-.176-.0998-.325-.3512-.518-.2852-.168.7434.058 1.486-.042 2.2286.326.0767.709-.0169 1.06 0l.143-1.569c.149-1.0171.752-1.8684 1.462-2.6458.766-.5233 1.261.5108 1.827.8692.093.0169.06.1168.1.1747-.008.1676-.183.2336-.3.2844-.351.1239-.61-.2594-.827-.485-.208.2256-.301.5251-.542.7016l.083.0241c.277.2763.542.5678.603.9351-.034.3325-.201.6579-.503.8264-.224-.3851-.408-.8104-.557-1.2026.008.0178-.01.025-.026.0428-.461.1239-.583.6409-.66 1.059.025.4092-.283.5759-.201.9842h5.956c.659-.0998 1.36-.0838 1.886-.5687 2.231.3432 4.493-.2078 6.247-1.4335.925-.747 1.757-1.61 2.429-2.5522.593-.8309 1.061-1.6073 1.364-2.5371.224-.575.403-1.1714.538-1.7856.635-2.8883.301-6.1216-.639-8.8735z" fill="#f60"/><path d="m103.71 33.2612c.325-.2086.852-.2594.926-.7425-.132-.1008-.25-.2265-.401-.2594l-.343.0998c.025-.2006.134-.4252.203-.6418l1.101-.3584c-.152.5001-.209 1.1259-.26 1.7018.1.8513.226 1.7606.66 2.4693h-1.186c-.133-.7836-.953-1.3523-.7-2.2688z" fill="#f60"/><path d="m106.274 32.2593h.066l.8.7265.117-.0249c-.065.8513-.108 1.6857-.117 2.5691h-.867c-.177-.8255-.469-1.6937-.435-2.5852.15-.2255.25-.5099.436-.6855z" fill="#f60"/><path d="m108.06 33.0619c.16-.2077.226-.5599.543-.6.225.0063.434.0401.603.1997.291.3664.006.8353-.1 1.2017-.118.5589-.32 1.1419-.503 1.6679h-.843z" fill="#f60"/><path d="m120.729 32.8026c.184.2344.242.5509.518.7595.243-.3334.301-.8514.184-1.2766l-.242-.2425c.309-.074.634-.0998.944-.1577-.134.4421-.386.8424-.343 1.3594.008.7515.133 1.503.2 2.2857h-.918c-.334-.7346-.668-1.4343-.643-2.2857.1-.1506.167-.3263.3-.4421z" fill="#f60"/><g fill="#fff"><path d="m124.68 16.7729c-.009.2166-.167.4573-.026.6427.203-.2255.536-.2175.803-.3173.744-.0678 1.453.1667 2.146.3343-.175-.2764-.292-.5848-.485-.8344-.384-.1007-.969.1667-1.035-.4021-.234-.1996-.601-.057-.843-.041-.235.1667-.426.3753-.56.6178z"/><path d="m99.1541 9.56848c-.0036-.00178-.0071-.00534-.0125-.00891 0 .00357.0018.00535.0018.00891z"/><path d="m102.191 16.9854.501-.4831c.043 0 .076.008.1.0401l-.041.9262c.242.2255.541.2995.859.3174.025-.2496.217-.4262.326-.6428.092-.1747.034-.4332.217-.5571l.059.057c.057.2764.041.5848.184.8255.017.1337.04.2995.056.4172.369.0169.703-.0829.986-.2175-.017-.3165.093-.575.141-.8656.077-.1007-.092-.2853.117-.2764.118.2505.326.5082.444.7765.483-.4921.686-1.1339.8-1.8025-.141-.1908-.358-.1908-.526-.3165-1.419-.4582-3.239-.55-4.609.1587-.092.5652.025 1.191.386 1.6429z"/><path d="m88.9179 32.641c-.0508.6427 0 1.2453.0411 1.88.1338.2086.3773.4511.6191.4663l.041-.4262c.1-.5919-.2167-1.2204.1178-1.7214.2338.074.4675.1917.6682.2996.1-.55-.0428-1.1937-.5692-1.528z"/><path d="m90.9809 31.7388c-.3257.977-.5674 2.1796-.1749 3.2083.2257-.1515.4586-.2933.6584-.501-.041-.7854-.1499-1.6215.3176-2.2741.4086.1257.6852.518.8422.9004.2775-.3495.3685-.8344.2605-1.2997.017-.3682-.4006-.2835-.6013-.4342.066-.3093.0571-.6659.3836-.8424l-1.001.0998c-.2587.3682-.5424.7248-.6851 1.1429z"/><path d="m93.0441 34.6219c.0419.074 0 .2086.0847.2256.1241-.7016.6917-1.1554 1.0022-1.774.149-.2059.1419-.5001.3838-.6579.3248 0 .5595.2335.8772.2585.0999.0758-.0518.1426-.0598.2255-.066.5688-.2829 1.0377-.2418 1.6225h.058c.4426-.468.7433-.9717 1.0691-1.5057l.0571-.4742c.0767-.5679-.5408-.9343-.9442-1.1687l.3596-.46-.5015-.1747c-.5845.0579-1.111.3004-1.5197.7604-.5087.9324-.5917 1.9879-.6247 3.1227z"/><path d="m95.2909 29.6708c.191.057.3668-.0999.5577-.0178.7693.2843 1.5707.5758 2.1472 1.2177l.6853 1.7446.3427-1.0778-.2258-.5821c-.1927-.4172-.7183-.3834-1.078-.4003-.1499-.1676.008-.3592.0589-.517.1749-.5928-.5515-.5599-.8433-.8014.0169-.3575-.4177-.2345-.6604-.2666l-.083-.0998c-.05-.0767-.1749-.0767-.2427-.0179-.0152-.0249-.0491-.0419-.0321-.0829l-.183.041c-.2606.2256-.4355.5171-.4435.8603z"/><path d="m95.7738 27.7514c.0259.107.0919.2157.1749.2835.3766-.0999.7371-.3602 1.17-.2006.5604.4921 1.144 1.0091 1.8213 1.2757l.2428-.041c.149.049.3159.057.4158.2255.0928.2255-.141.3575-.215.5411.3748.2764.2257.7675.4587 1.101l.6007-.7997c-.14-.3512.009-.9512-.5409-.985-.1857-.0919-.3097-.2746-.3026-.4832-.3578-.3254-.8005-.4671-1.1592-.8014-.2945-.2327-.4685-.591-.8433-.6748-.2597-.1427-.5435-.2176-.8433-.2826-.5614-.0856-.6113.5821-.9799.8415z"/><path d="m96.5776 26.1075.1.1604c.4176-.0258.7924-.2086 1.2021-.2014.2748.1667.6344.1578.9182.3004.2258.3093.4685.6579.8005.8665.6776.0998 1.0526.8281 1.2856 1.3603v-.2576c.1-.3593-.009-.7773-.14-1.1027-.168-.1667-.411-.2746-.585-.4235-.034-.1087-.009-.1604.025-.2594-.2599-.2754-.6436-.4261-.9613-.6436-.4426-.6427-1.2931-.4653-1.9704-.6427z"/><path d="m96.5634 19.9876c.074.2594.1641.5839.215.8602.2328-.517.694-.7515 1.1027-1.1758-.2347-.1587-.5264-.2344-.7842-.2835v-.0169c-.1847.1818-.4684.3664-.5335.616z"/><path d="m98.0797 22.7334.3747-.3833c.3765-.3851.687-.8282.7432-1.3194-.2668-.1578-.6174-.049-.8752.0428-.0919.5402-.2347 1.0742-.2427 1.6599z"/><path d="m98.3544 23.9099c.5763.0321 1.1366.1489 1.6041-.1765l.4685-1.5012c-.152-.0089-.303-.0767-.4436-.0249-.3086.6828-.926 1.3594-1.629 1.7026z"/><path d="m98.5243 18.587c.3756.5501 1.0028 1.166 1.6447 1.3426-.075-.7016-.6758-1.1857-.9854-1.7847l-.017-.2006c-.2417-.2336-.5344-.3931-.785-.5171-.0402.4003.0687.7827.1427 1.1598z"/><path d="m100.56 23.9761c.442.0749.919 0 1.327-.1257.593-.1426.919-.7925 1.119-1.3006h-.743l-.8.7836c-.317.1658-.618.4163-.903.6427z"/><path d="m100.47 17.8276c.126.6517.402 1.2436.778 1.8026l.099-1.2436z"/><path d="m103.207 21.0727c.051-.4172-.124-.9021-.173-1.3256-.25-.1676-.6-.1515-.86-.3164.017.657.533 1.2168 1.033 1.642z"/><path d="m102.448 25.3108c.525-.1667 1.035-.3503 1.52-.6169.309-.443.775-.8424.843-1.3594-.386.1078-.718-.0179-1.078.1587-.216.3913-.351.8352-.768 1.1178-.067.2817-.375.4743-.517.6998z"/><path d="m103.266 26.3365.626.8175c.335.1078.752.0757 1.044-.1159l-.224-.7417c-.443.1649-.97.1168-1.446.0401z"/><path d="m104.31 20.4309.241 1.1c.585-.4742.705-1.1669.688-1.9005-.333.3833-.527.6169-.929.8005z"/><path d="m105.956 22.373c.008.1596.049.3094.14.4342.652.2344.719 1.0252 1.321 1.3256.391.1765.843-.041 1.184-.2006-.258-.2915-.55-.4921-.801-.7996-.174-.0749-.352-.1837-.342-.4003z"/><path d="m106.474 26.3126c.283.3236.666.4921 1.067.5821-.066-.0909.043 0 .059-.057l-.502-1.1019c-.25.009-.51.0598-.743.0428.019.1837.059.3664.119.534z"/><path d="m107.359 21.1732c-.235-.542-.331-1.2026-.4-1.8016-.249.3004-.509.493-.743.7996-.109.6169.775.7676 1.143 1.002z"/><path d="m108.376 20.6045c.303.394.961.2603 1.329.1426-.176-.3004-.742-.4769-.842-.7996-.057-.5759-.175-1.1366-.359-1.6599-.292.7078-.645 1.5511-.128 2.3169z"/><path d="m108.903 22.3735c.835.6088 1.654 1.3184 2.821 1.059.084-.057.227-.0508.243-.1578-.343-.2166-.709-.3851-1.06-.5848l-.4-.583h-.184c-.451.1489-.935.2095-1.42.2666z"/><path d="m108.92 29.1394h.06c.501-.4003 1.093-.5349 1.686-.7007.16.0588.059.2345.202.3004.358-.1488.793-.1167 1.16-.2416.442.0161.802.0241 1.161.2158.285.3762.818.3334 1.187.5848l-.06-.5848c-.776-.9093-1.987-.9753-3.106-.9583l-.025-.1168c-.266 0-.567.057-.818.1747-.358.0169-.701.1917-1.044.2995-.16.3174-.286.7034-.403 1.027z"/><path d="m109.591 18.8869c.325.4261.809.7523 1.36.6436-.282-.2773-.61-.5688-.626-.9601.084-.7426-.734-.8023-1.135-1.1856.134.501.116 1.0599.401 1.5021z"/><path d="m109.505 30.6156h.1c.442-.2746 1.085-.0651 1.52-.3575.242-.1257.259.2086.426.3004.409.2488.46 1.0003 1.036.8255.691.3584.517 1.2008.542 1.8177l.644-.3994c-.059-.3254.126-.7176-.084-1.0011-.159-.3583-.594-.3913-.802-.6828.251-.4261-.317-.6276-.435-.936l.035-.0411.885.1168c.301.1828.41.5171.502.8264.691.1168.858.9004 1.101 1.4005.143-.3415.201-.7096.342-1.043.009-.2755-.358-.2755-.542-.4003-.049-.4261-.242-.8255-.618-1.0831-.768-.1943-1.444-.6178-2.287-.6178l-.701.2158c-.386.0927-.795-.0241-1.087.2415-.436.0339-.468.5099-.577.8175z"/><path d="m109.947 27.1792.159.0758c.343-.1587.685-.3424 1.045-.4761.557-.1578.992.4761 1.461.0749.174-.1239.326.0588.458.1596.204.3664.669.3414 1.021.4404-.176-.4743-.394-1.1251-1.003-1.2008-.242-.1079-.527-.099-.76-.2416-.643-.7087-1.06.5848-1.764.2683-.249.2737-.558.534-.617.8995z"/><path d="m110.107 31.2421c.266.2256.542.6098.96.559.517.2416.3.9262.583 1.2854l.301-.2674-.025-.0178.042-.041.017.0232c.083-.2488-.033-.6909-.176-.9842-.191-.1328-.416.0089-.601-.1168-.025-.2683-.191-.4003-.383-.5661-.134-.1016-.31.0321-.461.0232z"/><path d="m111.151 21.0729c.274.4582.809.7425 1.235 1.059.352.1587.809.2006 1.186.1159-.36-.2915-.686-.6258-.985-.9753-.118-.1676-.143-.377-.301-.5259-.392.0758-.836.0668-1.135.3263z"/><path d="m111.611 18.087c.384.4752.977.2835 1.519.3004v-.0588l-.835-.7007c-.233.074-.483.2826-.684.4591z"/><path d="m96.2367 10.2194.4835 1.5021c-.0089-.8514.3854-1.5618.3016-2.42833l.3577-.53487-.7601.23445c-.1998.38333-.3666.76754-.3827 1.22665z"/><path d="m96.5634 7.61621.6592-.38332v-.97703c-.2774.1667-.4264.45197-.6432.67483z"/><path d="m110.109 9.13436c-.159.20771-.401.25941-.601.29953.351-.64096.518-1.53419.242-2.26072.183-.06597.384-.09985.559-.19969l-.017-.01783.46-.40026c.609-.4172.374-1.20881.6-1.80162-.3-.46623-.392-1.03409-.826-1.42633l.025-.01693c-.343-.43414-.96-.38333-1.428-.59995-.619-.2086-1.095.21662-1.539.5001-.191.03388-.074.28349-.282.27457-.117.30844-.26.64274-.344.98505-.826-.11678-1.72-.02496-2.379.44216-.353-.25941-.777-.30844-1.186-.42522-.301-.05972-.643.04903-.86-.11767-.316-.35747-.385-1.00912-.929-1.10005-.191-.06775-.232-.27635-.232-.45999-.359-.05973-.678-.22554-1.027-.30042-.5343-.24247-.96.14263-1.3606.40026-.1767.07399-.3766.09985-.5435.19969-.2999.46801-.5828.94315-.7773 1.4602.0598.42522.2427.79963.4605 1.15977.1918.54201.7933.96812 1.302 1.18564-.2418.82548-.2418 1.80875 0 2.64315 0 0-.0134.01159-.0134.00891 0 .00268-.0268.02496-.0268.02496-.0785 0-.166.01516-.2311-.02496h-.0107c.1196.79699.4944 1.49589 1.1009 2.09399.218.0749.167.3343.258.5001.059.0758.068.2336.043.3005-1.3037-.041-2.4647.2843-3.5089.8763-.2668.1337-.1499.5001-.1749.7595.7354-.485 1.5278-.8425 2.405-1.002.3757-.0232.8008-.1168 1.1608-.017l.041.7194c-.992.518-2.079.8175-2.9294 1.6688.016.2577-.034.5572.041.7747l.7612-.6169c.7345-.5598 1.5028-1.0349 2.3452-1.3434.227.2666.461.5518.761.7176.509-.3262 1.061-.5678 1.646-.7176.309-.1836.802-.0169 1.002-.3833l.141-.7595c-.023-.017-.041-.0508-.083-.0428-.392-.2256-.651-.6169-.618-1.0751-.133.066-.282.1087-.442.115-.132-.0321-.259-.066-.317-.2006-.008-.1658-.093-.4163.076-.5402.542-.3343 1.244-.3512 1.928-.3013.509.0677 1.244.0419 1.421.6427-.025.1756-.009.3682-.185.4841-.183.0998-.391-.0089-.559-.0847-.133.4101-.359.8683-.818 1.002l.058.4831c.057.2176.074.5759.417.5001.793.1935 1.496.6018 2.188 1.043.235-.2326.418-.5001.584-.7425 1.238.419 2.305 1.3443 3.326 2.2045l.04-.7015c-.969-.8603-2.045-1.4683-3.165-1.9434.043-.2255.093-.4431.101-.6855 1.327.0757 2.588.4849 3.682 1.1259l-.017-.6c-1.152-.6178-2.413-1.026-3.79-1.0421-.052-.0749-.068-.1836-.059-.2585.668-.1079 1.143-.7996 1.303-1.4023.343-.3913.836-.8174.719-1.40043.014-.04903.031-.09984.049-.15066.044-.14352.081-.29685.033-.43235z"/><path d="m111.269 11.2789.684-.2175.077-.3824c.192-.5599-.218-.97707-.418-1.41923z"/><path d="m112.998 13.9225c.325.3592.643.9342 1.219.7595-.042-.2425-.176-.443-.258-.6597-.15-.1747-.202-.6757-.502-.5001-.225-.1497-.283-.4002-.426-.6008-.065.3093-.024.6926-.033 1.0011z"/><path d="m113.114 16.3664c.126.1748.161.4012.284.5599.226.1488.56.1239.837.0998.249-.0588.409.2157.641.058-.291-.1837-.466-.5171-.741-.7605-.327-.2567-.677-.0312-1.021.0428z"/><path d="m113.558 20.2473c.576.3414 1.308.6757 2.077.5589.083-.041.225-.033.241-.1328-.476-.1676-.976-.6427-1.475-.7426-.276-.4252-.635.1088-.986.0749.008.0989.108.1738.143.2416z"/><path d="m115.291 27.6133.126.2665c.127.8683.675 1.6679.376 2.6191.25.1765.325.468.485.7016h.041c.192-.7248.059-1.4763-.041-2.2028.075-.6588-.594-1.0421-.987-1.3844z"/><path d="m115.436 19.0707c.433.3343 1.126.3664 1.627.2006-.317-.1748-.667-.3682-.927-.6009z"/><path d="m117.498 21.6309c-.041.3512.192.6428.442.8193.092-.2077.241-.3851.258-.6178-.075-.3584-.275-.6847-.601-.9271-.057.2335-.125.4591-.099.7256z"/><path d="m117.523 25.4362c-.06.3914.375.4422.557.6588.151.1836-.1.3093-.1.484.318.4083.503.8737.503 1.4175.124-.5082.316-.9922.383-1.5173-.034-.3682-.617-.2915-.526-.7007.168-.4172-.033-.8255-.142-1.2025-.032-.0571-.109-.1748-.174-.14-.151.3405-.526.583-.501 1.0002z"/><path d="m118.667 23.4499.434.8424c.192-.0249.317-.2086.467-.3423.116-.3503-.193-.5759-.283-.8602-.076-.2006 0-.4663-.143-.641-.109-.0677-.233-.1765-.358-.1426z"/><path d="m119.225 21.2305c.343.2086.735.5081.92.8763.292.8513.759 1.6171 1.101 2.4434.126.5759.226 1.0903.384 1.6563.06.1507.026.4422.26.4172.066-.6338.191-1.2435.2-1.9023-.208-.2755-.483-.3914-.743-.5581v-.0588c.034-.1408.152-.3093.326-.2826.074-.0838.3-.1667.201-.3173-.435-.4333-.41-1.1794-1.102-1.314-.242-.0999-.3-.3513-.325-.583-.327-.2773-.811-.3682-1.222-.3771z"/><path d="m119.628 25.7526c.424.3913.275.9592.242 1.4851-.066.3174.333.132.459.3005.26.3833.109.9431.018 1.3594.226-.3432.483-.6427.658-1.0189-.007-.1409.176-.2086.168-.3842.074-.2416-.209-.1329-.327-.1578-.099-.025-.207-.0918-.174-.2256.215-.4172.017-.9173-.067-1.3345-.1-.3423.042-.8014-.118-1.1018-.268.3691-1.062.452-.859 1.0778z"/><path d="m120.404 19.8298c.744.7515 1.286 1.5057 2.087 2.2322.017-.3263-.025-.6258-.041-.9431-.116-.2256-.334-.3914-.519-.5599-.592-.057-.901-.8549-1.527-.7292z"/><path d="m122.348 23.8048c.017.0766.051.1426.085.2166.325.5349.635 1.0858.86 1.6608-.068-.6178.35-1.3844-.202-1.8605-.074-.2014-.323-.1337-.484-.1176z"/><path d="m124.353 29.899c.234.1088.534-.0829.76-.2166.209-.0499.384.0678.544.1756.066.1328 0 .2585.025.3842.5.1409.992.3254 1.435.6169l.141-.1417c.033-.3584-.249-.6178-.518-.8184-.174-.0998-.435-.041-.559-.1997.084-.1337.084-.3343.075-.484-.275 0-.451-.0847-.675-.2166-.143-.0419-.269-.1596-.386 0-.417.2826-.442.7006-.842.9003z"/><path d="m124.939 19.4011c.208-.0598.426-.1177.601-.2684.56-.509 1.369-.1667 2.021-.1747-.125-.2255-.302-.4511-.46-.6427-.235-.0919-.451-.1997-.718-.1997-.569-.3343-.951.2255-1.387.5001-.117.2255-.174.5589-.057.7854z"/><path d="m124.953 21.1188c0-.0259 0-.0517.025-.058.077.066-.008.2265.118.2586.217-.1088.418-.2586.618-.4003.559 0 .894-.5429 1.444-.5429.92.1676 1.83.3521 2.63.8005-.057-.5402-.526-1.0341-1.001-1.2756-.268-.0919-.477.0499-.668.2005-.559.3513-.267-.509-.659-.5259-.51.1578-1.037.3343-1.604.2826-.334.1266-.569.4341-.945.4002-.015.2773-.056.6116.042.8603z"/><path d="m125.339 22.9784c.174.1855.466.1516.718.1855l.726-.2853c.008-.1311-.216-.1667-.167-.3165.201-.2255.475-.0659.727-.1578.35-.0508.709-.3993 1.06-.1426-.011.0428.015.0998-.018.1426-.108.2586.075.4172.276.5171.41.0749.792.4511 1.202.2826-.041-.3423-.132-.657-.216-.9842-.343-.0579-.585-.3414-.902-.4591-.141.1337-.327.2336-.502.2166-.643-.1506-1.412-.5509-2.063-.1417-.234.2844-.651.2006-.969.3254.019.2835.052.5598.128.8174z"/><path d="m125.615 27.9385c-.05.1418-.192.3744.067.4422.534.016 1.219-.2594 1.637.1578.141.1087.074.3343.065.476l.701.5839c.067-.3521.194-.6686.203-1.0439-.059-.2674-.193-.525-.427-.6998-.46 0-.726-.5375-1.22-.4716-.258-.057-.484.1721-.744.1721-.115.1159-.182.2585-.282.3833z"/><path d="m125.815 24.0047c.108.2255.235.5928.443.6169.492-.2149 1.212-.3495 1.762-.115.183.0321.183.2407.143.3744.283.1667.626.3004.926.4831l-.083-.501c-.017-.542-.701-.591-.744-1.1259-.559-.1827-1.186-.2424-1.778-.0998-.192.1747-.469.1515-.701.2006-.017.0668.023.1096.032.1667z"/><path d="m125.956 26.7082c.326-.0927.535-.4502.886-.4841.533.0089 1.01.2264 1.344.6864.2.1311.158.4734.418.4734-.077-.4083.057-.7827.04-1.2017-.349-.583-1.218-.1319-1.543-.8175l-.618.0419c-.443.1097-.325.6267-.383.978-.051.1069-.151.1907-.144.3236z"/><path d="m129.023 30.3578c.258.5171.827.9093.884 1.5012.133-.1578.226-.3414.317-.517-.009-.1667-.201-.1667-.275-.3004-.077-.2167.04-.4083.074-.6009-.109-.3084-.369-.5999-.66-.7845z"/><path d="m130.05 29.0396.601.8183c.257-.4082.257-1.01.157-1.5021-.057-.0927-.166-.2424-.315-.1747-.226.2327-.26.5919-.443.8585z"/><path d="m127.602 6.20396c.217.10876.426.2086.686.22554.174-.09182.401-.15957.618-.09985.308.20058.684-.04189 1.043-.02496-.317-.30042-.678-.48495-1.043-.65967-.469.09895-.843.43324-1.304.55894z"/><path d="m130.868 6.98656c.443.0419.761.43413 1.06.75951.375.05706.659.32538.884.59995l-.14-.44127c-.1-.44305-.377-.78537-.66-1.13571-.401.02586-.794.06062-1.144.21752z"/></g><path d="m99.7022 3.32812.2427.02586c.6501.32538 1.7021.49208 1.7621 1.43434-.661.25942-1.295.60886-1.8219 1.14284-.3998-.40828-1.2101-.18364-1.3448-.90036.1267-.67751.3677-1.52884 1.1619-1.70268z" fill="#f60"/><path d="m100.329 7.55906c.761-.06775 1.495.04011 2.28-.02586.191.08291.391.24872.484.44127-.026.90126-.301 1.76151-.342 2.68683-.343.1409-.677.4261-.761.8005-.309.0919-.585.2746-.886.4163-.131-.2826-.108-.7087.127-.9431.325-.4582 1.169-.3512 1.103-1.07689.216-.34945.008-.80052.015-1.16691-.083-.27635-.167.09182-.3.0829-.267.05706-.542.07399-.777-.05972-.175-.18364-.39-.3343-.442-.58301-.235-.11678-.509-.29953-.627-.54201z" fill="#f60"/><path d="m101.248 12.9961c.357.0517.734-.1087 1.043.0678-.065.1177-.242.1667-.384.2006l-.56.2576c-.208-.049-.091-.3833-.099-.526z" fill="#f60"/><path d="m102.708 6.03111c.358-.11678.743-.35747 1.127-.24247-.275.27635-.492.63382-.7.96812l-1.144-.02496c.126-.30132.442-.55003.717-.70069z" fill="#f60"/><path d="m106.058 5.75644c.476-.0829.45.53398.884.55716.077.09984.186.19166.143.34232-.252.09984-.618.0517-.902.11678-.376-.2086-.133-.85936-.726-.81746-.033-.05082-.099-.15066-.017-.18364.184-.06597.427-.04101.618-.01516z" fill="#f60"/><path d="m105.757 7.99062c.209-.2924.527-.31646.828-.37441l2.163.04012c.092.08468-.084.15957-.084.25941-.133.12569-.326.15957-.443.27546-.284.00802-.259.34231-.458.48495-.31.30844-.762.16581-1.12.11678-.125-.09271-.267-.21752-.327-.35926l-.1.09984c.126.46802.093.98506.186 1.4602l.517.34229c.008.7667.91.5581 1.302.9842-.092.2763-.275.509-.475.7426-.317-.3085-.678-.5082-1.061-.6428-.033-.4484-.526-.7167-.8-.9413-.077-.81839-.093-1.65279-.226-2.44529z" fill="#f60"/><path d="m106.542 13.1386h1.003l-.126.5251-1.004-.4252c-.023-.0829.068-.1079.127-.0999z" fill="#f60"/><path d="m108.346 3.68766.743-.23356c.427.19969.827.44929 1.219.73367.309.56696.26 1.3345.117 1.96832-.226.24961-.718 0-.901.40026h-.035c-.275-.78358-1.06-1.48605-1.787-1.84263.117-.40115.243-.79339.644-1.02606z" fill="#f60"/></g></svg>