<svg width="149" height="64" viewBox="0 0 149 64" fill="none" xmlns="http://www.w3.org/2000/svg">
<path d="M99.7027 53.0895H95.7979C95.0054 53.0895 94.3977 52.6588 94.3364 51.8542L94.275 50.3088C91.4686 52.5981 88.1148 53.8321 84.5771 53.8321C77.7471 53.8321 74.9434 49.447 74.9434 42.7711V24.4927C74.9434 23.4424 75.5532 23.0706 76.5266 23.0706H80.7969C81.772 23.0706 82.3216 23.3779 82.3216 24.4927V41.4725C82.3216 44.8731 83.1759 47.219 86.8356 47.219C89.1519 47.219 92.0791 45.9231 93.9085 44.2557V24.4927C93.9085 23.4423 94.4582 23.0703 95.4332 23.0703H99.7631C100.74 23.0703 101.289 23.3777 101.289 24.4927V51.3612C101.288 52.6591 100.921 53.0895 99.7027 53.0895Z" fill="#5581CA"/>
<path d="M0.455078 24.3039C0.455078 23.5637 0.821561 23.0684 1.55242 23.0684H6.71045C7.44284 23.0684 7.86983 23.5018 7.86983 24.3039L7.86964 51.545C7.86964 52.6591 7.38042 53.0898 6.34397 53.0898H2.04086C0.94622 53.0898 0.455078 52.6591 0.455078 51.545V24.3039Z" fill="#5581CA"/>
<path d="M108.92 24.3039C108.92 23.5637 109.286 23.0684 110.017 23.0684H115.175C115.908 23.0684 116.335 23.5018 116.335 24.3039L116.334 51.545C116.334 52.6591 115.845 53.0898 114.809 53.0898H110.506C109.412 53.0898 108.92 52.6591 108.92 51.545L108.92 24.3039Z" fill="#5581CA"/>
<path d="M40.5604 53.0902H36.1703C35.0724 53.0902 34.7064 52.5346 34.7064 51.4837V34.6754C34.7064 31.2777 33.7938 28.8663 30.0718 28.8663C27.6928 28.8663 24.7669 30.165 22.8761 31.8333V51.5454C22.8761 52.5983 22.4483 53.0902 21.4131 53.0902H16.9599C16.0441 53.0902 15.4961 52.5987 15.4961 51.6085V24.622C15.4961 23.6321 15.9242 23.0766 17.021 23.0766H20.9847C21.8379 23.0766 22.3892 23.3239 22.4483 24.2505L22.509 25.9003C25.3158 23.6148 28.8526 22.3184 32.3903 22.3184C39.2205 22.3184 42.0246 26.6434 42.0246 33.3789V51.4839C42.025 52.5343 41.6595 53.0902 40.5604 53.0902Z" fill="#5581CA"/>
<path d="M62.296 14.6371C62.296 12.1332 60.2936 10.1035 57.8238 10.1035C55.3531 10.1035 53.3496 12.1332 53.3496 14.6371C53.3496 17.1399 55.3531 19.1678 57.8238 19.1678C60.2936 19.168 62.296 17.1401 62.296 14.6371Z" fill="#5581CA"/>
<path d="M68.6606 23.0684C69.392 23.0684 69.819 23.3158 69.819 24.119V28.4708C69.819 29.2126 69.3307 29.6449 68.5986 29.6449H61.5305L61.5299 51.5445C61.5299 52.6587 61.0431 53.0894 59.9447 53.0894H55.7004C54.6023 53.0894 54.1155 52.6587 54.1155 51.5445L54.1147 29.6449H47.0464C46.3146 29.6449 45.8262 29.212 45.8262 28.4708V24.119C45.8262 23.3154 46.2535 23.0684 46.9845 23.0684H68.6606Z" fill="#5581CA"/>
<path d="M137.971 14.6371C137.971 12.1332 135.969 10.1035 133.5 10.1035C131.029 10.1035 129.025 12.1332 129.025 14.6371C129.025 17.1399 131.029 19.1678 133.5 19.1678C135.969 19.168 137.971 17.1401 137.971 14.6371Z" fill="#5581CA"/>
<path d="M144.337 23.0684C145.068 23.0684 145.495 23.3158 145.495 24.119V28.4708C145.495 29.2126 145.006 29.6449 144.275 29.6449H137.206V51.5445C137.206 52.6587 136.719 53.0894 135.621 53.0894H131.376C130.277 53.0894 129.791 52.6587 129.791 51.5445L129.79 29.6449H122.723C121.99 29.6449 121.502 29.212 121.502 28.4708V24.119C121.502 23.3154 121.93 23.0684 122.66 23.0684H144.337Z" fill="#5581CA"/>
<path d="M146.348 48.9053C147.534 48.9053 148.528 49.853 148.528 51.0957C148.528 52.3612 147.534 53.3093 146.348 53.3093C145.158 53.3093 144.158 52.3612 144.158 51.0957C144.158 49.8532 145.158 48.9053 146.348 48.9053ZM146.348 52.9855C147.354 52.9855 148.133 52.173 148.133 51.0957C148.133 50.0416 147.354 49.2292 146.348 49.2292C145.332 49.2292 144.553 50.0416 144.553 51.0957C144.553 52.173 145.332 52.9855 146.348 52.9855ZM145.5 49.818H146.483C147.087 49.818 147.372 50.0593 147.372 50.5539C147.372 51.0189 147.081 51.2131 146.703 51.2545L147.429 52.391H147.005L146.313 51.284H145.895V52.391H145.5V49.818ZM145.895 50.9599H146.307C146.656 50.9599 146.976 50.9423 146.976 50.536C146.976 50.1946 146.685 50.1418 146.419 50.1418H145.895V50.9599Z" fill="#5581CA"/>
</svg>
