<svg fill="none" height="38" viewBox="0 0 123 38" width="123" xmlns="http://www.w3.org/2000/svg"><g fill="#5581ca"><path d="m82.3039 36.4222h-3.2234c-.6542 0-1.1559-.3558-1.2065-1.0205l-.0507-1.2766c-2.3167 1.8911-5.0852 2.9105-8.0056 2.9105-5.6382 0-7.9527-3.6225-7.9527-9.1373v-15.0996c0-.8676.5034-1.1748 1.307-1.1748h3.5251c.805 0 1.2587.2539 1.2587 1.1748v14.0268c0 2.8092.7052 4.7471 3.7263 4.7471 1.9121 0 4.3285-1.0705 5.8387-2.4479v-16.326c0-.8677.4538-1.175 1.2586-1.175h3.5744c.8061 0 1.2593.2539 1.2593 1.175v22.1957c-.0003 1.0722-.3035 1.4278-1.3092 1.4278z"/><path d="m.375 12.6426c0-.6115.302533-1.0207.90586-1.0207h4.25797c.60459 0 .95707.3581.95707 1.0207l-.00015 22.5035c0 .9203-.40386 1.2761-1.25945 1.2761h-3.55223c-.903631 0-1.30907-.3558-1.30907-1.2761z"/><path d="m89.9133 12.6426c0-.6115.3024-1.0207.906-1.0207h4.258c.6045 0 .9569.3581.9569 1.0207l-.0003 22.5035c0 .9203-.4038 1.2761-1.2593 1.2761h-3.5519c-.9035 0-1.3092-.3558-1.3092-1.2761v-22.5035"/><path d="m33.4822 36.4223h-3.6241c-.9063 0-1.2084-.459-1.2084-1.3271v-13.8851c0-2.8068-.7534-4.7988-3.8259-4.7988-1.9639 0-4.3792 1.0728-5.9401 2.451v16.2839c0 .8698-.3531 1.2761-1.2077 1.2761h-3.6761c-.756 0-1.2084-.406-1.2084-1.224v-22.2932c0-.8177.3534-1.2766 1.2588-1.2766h3.2721c.7043 0 1.1594.2043 1.2082.9697l.0501 1.3629c2.317-1.888 5.2366-2.959 8.157-2.959 5.6384 0 7.9532 3.5729 7.9532 9.137v14.9563c.0003.8677-.3014 1.3269-1.2087 1.3269z"/><path d="m51.4246 4.65694c0-2.06848-1.653-3.745136-3.6918-3.745136-2.0396 0-3.6935 1.676656-3.6935 3.745136 0 2.06752 1.6539 3.74272 3.6935 3.74272 2.0388.00017 3.6918-1.67504 3.6918-3.74272z"/><path d="m56.6783 11.6221c.6038 0 .9563.2044.9563.8679v3.595c0 .6128-.4031.9699-1.0075.9699h-5.8347l-.0005 18.091c0 .9204-.4019 1.2762-1.3086 1.2762h-3.5037c-.9065 0-1.3083-.3558-1.3083-1.2762l-.0007-18.091h-5.8349c-.6041 0-1.0073-.3576-1.0073-.9699v-3.595c0-.6638.3528-.8679.9562-.8679z"/><path d="m113.896 4.65694c0-2.06848-1.653-3.745136-3.691-3.745136-2.04 0-3.694 1.676656-3.694 3.745136 0 2.06752 1.654 3.74272 3.694 3.74272 2.038.00017 3.691-1.67504 3.691-3.74272z"/><path d="m119.15 11.6221c.604 0 .956.2044.956.8679v3.595c0 .6128-.403.9699-1.007.9699h-5.835v18.091c0 .9204-.402 1.2762-1.309 1.2762h-3.504c-.907 0-1.308-.3558-1.308-1.2762l-.001-18.091h-5.834c-.605 0-1.008-.3576-1.008-.9699v-3.595c0-.6638.353-.8679.956-.8679z"/><path d="m120.811 32.9651c.979 0 1.799.7829 1.799 1.8095 0 1.0454-.82 1.8286-1.799 1.8286-.983 0-1.808-.7832-1.808-1.8286 0-1.0264.825-1.8095 1.808-1.8095zm0 3.3706c.83 0 1.473-.6712 1.473-1.5611 0-.8708-.643-1.5419-1.473-1.5419-.839 0-1.482.6711-1.482 1.5419 0 .8899.643 1.5611 1.482 1.5611zm-.7-2.6166h.811c.499 0 .734.1993.734.6079 0 .3841-.24.5446-.552.5788l.599.9388h-.35l-.571-.9145h-.345v.9145h-.326zm.326.9433h.34c.288 0 .552-.0145.552-.3502 0-.282-.24-.3256-.46-.3256h-.432z"/></g></svg>