<svg xmlns="http://www.w3.org/2000/svg" width="223" height="64" fill="none" viewBox="0 0 223 64">
    <g clip-path="url(#a)">
        <path fill="#000"
              d="M64.718 38.44q0 .95-.402 1.687c-.268.493-.641.874-1.133 1.143s-1.043.403-1.677.403H58.37v4.579h3.8q2.145 0 3.853-.964a7 7 0 0 0 2.683-2.659c.648-1.128.976-2.397.976-3.816v-15.05h-4.963zm13.362-1.367h10.395v-4.205H78.08v-4.773h11.49v-4.332H73.243v22.481h16.648v-4.332H78.08zm13.369-8.85h6.646v18.014h4.964V28.222h6.617v-4.459H91.441v4.467zm35.187 6.75a6 6 0 0 0-1.252-.485c.336-.097.657-.216.954-.366a4.75 4.75 0 0 0 1.93-1.792c.463-.77.701-1.65.701-2.651q-.002-1.714-.931-3.07-.93-1.344-2.609-2.106c-1.118-.5-2.399-.755-3.83-.755h-9.964V46.23h10.158c1.505 0 2.847-.261 4.031-.792 1.178-.53 2.094-1.262 2.75-2.21q.975-1.412.976-3.227c0-1.112-.253-2.106-.767-2.987a5.3 5.3 0 0 0-2.139-2.047zm-10.179-7.438h4.405q.913.002 1.617.329.704.325 1.095.94.393.608.395 1.427c0 .545-.134 1.06-.395 1.486a2.6 2.6 0 0 1-1.095.979q-.704.345-1.617.343h-4.405v-5.511zm7.586 13.6c-.282.426-.685.755-1.199.986-.522.232-1.111.344-1.789.344h-4.598v-5.766h4.598q.993.002 1.774.374c.514.246.924.59 1.207 1.038s.432.956.432 1.53c0 .576-.142 1.069-.425 1.495m22.148-3.98q1.864-.899 2.891-2.525c.686-1.083 1.028-2.337 1.028-3.771s-.335-2.644-1.005-3.72q-1.01-1.61-2.854-2.494c-1.231-.59-2.654-.882-4.279-.882h-9.821v22.481h4.971v-8.186h3.234l4.553 8.186h5.671l-5.127-8.79c.254-.09.506-.187.745-.3zm-1.61-4.593c-.276.47-.67.836-1.185 1.083q-.772.38-1.81.38h-4.472v-6.221h4.472q1.038.002 1.81.373a2.7 2.7 0 0 1 1.185 1.076c.275.463.418 1.016.418 1.643s-.143 1.18-.418 1.65zm15.411-8.799-8.012 22.481h5.046l1.587-4.96h8.317l1.698 4.96h4.948l-8.204-22.48zm-.254 13.758 2.578-7.932.306-1.441.306 1.441 2.757 7.932zm15.485 8.723h5.127v-22.48h-5.127zm23.213-7.274-9.65-15.207h-4.836v22.481h4.531V31.038l9.598 15.206h4.888v-22.48h-4.531zm23.593-2.517a6.7 6.7 0 0 0-2.042-2.353c-.872-.635-1.877-1.053-3.01-1.27l-3.815-.784c-.597-.142-1.073-.388-1.423-.747a1.84 1.84 0 0 1-.53-1.337c0-.485.127-.903.387-1.262.254-.358.619-.635 1.081-.836q.693-.301 1.61-.3c.611 0 1.162.105 1.632.315q.703.312 1.095.88c.261.382.395.808.395 1.293h4.971c-.03-1.307-.395-2.465-1.081-3.465-.685-1.009-1.647-1.793-2.869-2.36-1.222-.568-2.623-.852-4.188-.852s-2.951.291-4.166.881c-1.214.59-2.168 1.404-2.846 2.45s-1.021 2.233-1.021 3.57q-.002 1.626.656 2.928a5.9 5.9 0 0 0 1.855 2.173c.805.575 1.729.979 2.787 1.203l4.039.836q.993.237 1.572.866c.388.419.574.934.574 1.561 0 .5-.141.956-.424 1.352q-.426.594-1.185.919c-.507.217-1.104.321-1.789.321s-1.333-.12-1.892-.358q-.839-.36-1.297-1.031c-.313-.44-.462-.956-.462-1.531h-4.97c.021 1.404.394 2.636 1.132 3.712q1.095 1.603 3.018 2.502 1.923.896 4.404.896c1.654 0 3.145-.306 4.427-.919 1.289-.612 2.287-1.456 3.01-2.532q1.083-1.612 1.081-3.652a6.6 6.6 0 0 0-.731-3.077z"/>
        <path fill="url(#b)"
              d="M15.22 10.745 2.74 23.255A9.4 9.4 0 0 0 0 29.885V52.25C0 54.32 1.676 56 3.742 56h22.315c2.484 0 4.856-.99 6.615-2.745l12.482-12.51a9.4 9.4 0 0 0 2.739-6.63V11.75c0-2.07-1.677-3.75-3.742-3.75H21.836c-2.484 0-4.857.99-6.615 2.745"/>
        <path fill="#000" d="M35.92 20H5.986v30h29.932z"/>
        <path fill="#fff" d="M22.45 43.25H9.728v3H22.45z"/>
    </g>
    <defs>
        <linearGradient id="b" x1=".636" x2="46.962" y1="55.04" y2="9.461" gradientUnits="userSpaceOnUse">
            <stop stop-color="#ff9419" offset=""/>
            <stop offset=".43" stop-color="#ff021d"/>
            <stop offset=".99" stop-color="#e600ff"/>
        </linearGradient>
        <clipPath id="a">
            <path fill="#fff" d="M0 8h223v48H0z"/>
        </clipPath>
    </defs>
</svg>