<svg width="228" height="64" viewBox="0 0 228 64" fill="none" xmlns="http://www.w3.org/2000/svg">
<path fill-rule="evenodd" clip-rule="evenodd" d="M26.5726 39.5601C26.5726 36.5727 27.5386 34.3239 29.4722 32.8122C31.4057 31.3019 34.2505 30.5432 38.0096 30.5432H43.8087V28.1677C43.8087 25.8469 43.3106 24.1956 42.3172 23.2209C41.3224 22.2433 39.851 21.7553 37.8973 21.7553C36.5353 21.7553 35.1345 21.9395 33.6977 22.3067C32.2623 22.6752 30.9536 23.1359 29.7759 23.6902L28.3953 20.4264C29.8652 19.5784 31.4431 18.9248 33.1189 18.4641C34.7933 18.0048 36.4245 17.773 38.0096 17.773C41.4706 17.773 44.0492 18.621 45.7422 20.317C47.4368 22.0115 48.2833 24.7052 48.2833 28.3894V47.4137H44.8611L44.3083 44.2046C42.87 45.3837 41.2936 46.2864 39.5846 46.9155C37.8699 47.5389 36.2762 47.8528 34.8034 47.8528C32.2249 47.8528 30.2093 47.1243 28.7537 45.6687C27.2968 44.2146 26.5726 42.1774 26.5726 39.5601ZM35.6326 44.0951C36.2949 44.0951 37.0032 44.0102 37.7605 43.8461C38.5149 43.6791 39.2607 43.4473 39.9978 43.1521C40.735 42.8584 41.4332 42.5086 42.0984 42.1026C42.7606 41.6966 43.3307 41.2546 43.8087 40.7766V33.807H38.6143C35.9638 33.807 34.0303 34.262 32.8151 35.1647C31.6 36.0659 30.991 37.4581 30.991 39.3384C30.991 40.886 31.387 42.0652 32.1802 42.8786C32.9721 43.6891 34.1224 44.0923 35.6326 44.0923V44.0951ZM74.866 17.4419L74.8646 17.4434L74.8631 17.4419H74.866ZM78.5113 20.1514L68.9546 32.0952L80.0029 45.3088L76.3561 48.1868L63.4837 32.3169L74.8646 17.4434L78.5113 20.1514ZM56.7992 47.4108V6.04954L61.4408 5V47.4108H56.7992ZM86.2713 32.8122C88.2048 31.3019 91.0497 30.5432 94.8059 30.5432H100.609V28.1677C100.609 25.8469 100.111 24.1956 99.1163 23.2209C98.1229 22.2433 96.6501 21.7553 94.6965 21.7553C93.3345 21.7553 91.9337 21.9395 90.4997 22.3067C89.0615 22.6752 87.7542 23.1359 86.5751 23.6902L85.1944 20.4264C86.6644 19.5784 88.2423 18.9248 89.9181 18.4641C91.5953 18.0048 93.2251 17.773 94.8059 17.773C98.2698 17.773 100.848 18.621 102.541 20.317C104.236 22.0115 105.082 24.7052 105.082 28.3894V47.4137H101.657L101.107 44.2046C99.6692 45.3837 98.0956 46.2864 96.3838 46.9155C94.6691 47.5389 93.0754 47.8528 91.6025 47.8528C89.024 47.8528 87.0056 47.1243 85.5543 45.6687C84.0988 44.2146 83.3718 42.1774 83.3718 39.5601C83.3718 36.5727 84.3378 34.3239 86.2713 32.8122ZM92.4347 44.0951C93.0969 44.0951 93.8053 44.0102 94.5626 43.8461C95.317 43.6791 96.0627 43.4473 96.7999 43.1521C97.537 42.8584 98.2352 42.5086 98.9004 42.1026C99.5627 41.6966 100.133 41.2546 100.611 40.7766V33.807H95.4163C92.7629 33.807 90.8309 34.262 89.6114 35.1647C88.3992 36.0659 87.7931 37.4581 87.7931 39.3384C87.7931 40.886 88.1876 42.0652 88.9794 42.8786C89.7712 43.6891 90.923 44.0923 92.4318 44.0923L92.4347 44.0951ZM133.524 21.6703C135.809 24.2704 136.949 28.0237 136.949 32.9245C136.949 37.7892 135.816 41.5137 133.551 44.0951C131.284 46.6736 128.111 47.9651 124.022 47.9651C119.969 47.9651 116.802 46.6736 114.518 44.0951C112.233 41.5137 111.092 37.7892 111.092 32.9245C111.092 28.0237 112.244 24.2704 114.546 21.6703C116.848 19.0717 120.006 17.773 124.022 17.773C128.073 17.773 131.239 19.0717 133.524 21.6703ZM118.028 24.4921C116.607 26.4271 115.9 29.2374 115.9 32.9245C115.9 36.6101 116.607 39.4031 118.028 41.3021C119.444 43.1996 121.442 44.1498 124.022 44.1498C126.599 44.1498 128.599 43.2025 130.017 41.3007C131.433 39.4046 132.143 36.613 132.143 32.923C132.143 29.2374 131.433 26.4271 130.017 24.4921C128.596 22.5557 126.599 21.5883 124.022 21.5883C121.443 21.5883 119.444 22.5557 118.028 24.4921ZM155.091 48.2415C154.319 48.2415 153.572 48.204 152.855 48.1292C152.136 48.0543 151.317 47.8902 150.396 47.631V58.6361H142.991V18.2697H148.24L149.124 20.7028C150.082 19.7454 151.215 18.9522 152.522 18.3273C153.828 17.6982 155.478 17.3872 157.468 17.3872C159.381 17.3872 161.031 17.7284 162.413 18.4094C163.794 19.0918 164.934 20.0794 165.839 21.368C166.741 22.658 167.413 24.2229 167.856 26.0686C168.296 27.9129 168.517 29.9932 168.517 32.3169C168.517 34.75 168.186 36.9413 167.522 38.8964C166.86 40.8515 165.939 42.5172 164.76 43.9008C163.582 45.2815 162.171 46.3511 160.534 47.107C158.893 47.8628 157.079 48.2415 155.091 48.2415ZM152.577 23.6629C151.748 23.8644 151.021 24.1135 150.396 24.4101V42.4899C150.652 42.5647 151.031 42.6108 151.526 42.6295C152.024 42.6468 152.531 42.654 153.046 42.654C155.956 42.654 158.009 41.7268 159.207 39.861C160.403 38.0009 161.003 35.4857 161.003 32.3169C161.003 30.9521 160.911 29.7168 160.727 28.6111C160.543 27.504 160.22 26.5668 159.76 25.7922C159.299 25.0191 158.684 24.4202 157.909 23.9969C157.136 23.5707 156.14 23.3577 154.925 23.3577C154.189 23.3577 153.405 23.4584 152.577 23.6629ZM175.278 32.0131C177.321 30.4468 180.336 29.6607 184.312 29.6607H188.954V28.6644C188.954 27.8567 188.879 27.1383 188.732 26.5092C188.584 25.8843 188.307 25.3574 187.904 24.9341C187.498 24.5094 186.956 24.1855 186.273 23.9666C185.592 23.7449 184.698 23.6355 183.594 23.6355C182.232 23.6355 180.913 23.7824 179.643 24.0761C178.372 24.3726 177.075 24.8693 175.747 25.5719L173.704 20.484C175.104 19.5237 176.768 18.7679 178.705 18.215C180.637 17.6636 182.563 17.3872 184.479 17.3872C188.235 17.3872 191.07 18.3086 192.986 20.1514C194.9 21.9971 195.859 24.8146 195.859 28.6111V47.4108H190.664L189.838 44.923C188.325 46.1021 186.806 46.9429 185.278 47.441C183.749 47.9377 182.341 48.1839 181.053 48.1839C178.178 48.1839 175.988 47.3834 174.476 45.781C172.966 44.1772 172.212 41.9183 172.212 39.0058C172.212 35.909 173.234 33.5781 175.278 32.0131ZM186.218 41.7167C187.379 41.2373 188.29 40.7018 188.954 40.1129V34.416H184.974C180.923 34.416 178.896 35.9291 178.896 38.9511C178.896 40.0208 179.2 40.8688 179.81 41.495C180.415 42.1227 181.329 42.4352 182.543 42.4352C183.834 42.4352 185.059 42.1947 186.218 41.7167ZM214.354 53.744C212.623 56.3053 210.598 58.3424 208.276 59.8527L203.692 55.6516C205.274 54.2854 206.582 52.9954 207.614 51.7788C208.645 50.5623 209.583 49.1614 210.431 47.5778L200.155 19.2113L207.503 17.2202L214.133 40.1676L220.709 17.1655L228 19.266L218.939 44.3687C217.613 48.0572 216.086 51.1814 214.354 53.744ZM4.63296 5V47.4108H0V6.04666L4.63296 5ZM18.064 17.4419L21.7107 20.15L12.1554 32.0923L23.2037 45.3074L19.5569 48.1839L6.68166 32.3169L18.064 17.4419Z" fill="white"/>
</svg>
