<svg fill="none" height="56" viewBox="0 0 132 56" width="132" xmlns="http://www.w3.org/2000/svg" xmlns:xlink="http://www.w3.org/1999/xlink"><linearGradient id="a" gradientUnits="userSpaceOnUse" x1="9.19531" x2="45.6903" y1="9.7483" y2="46.3132"><stop offset="0" stop-color="#00b0ff"/><stop offset=".165" stop-color="#00aeff"/><stop offset=".499" stop-color="#955ff9"/><stop offset=".762" stop-color="#e87353"/><stop offset="1" stop-color="#ff8900"/></linearGradient><path d="m0 18.9288 18.3934-18.358243 36.5705 36.500543-18.3934 18.3583z" fill="url(#a)"/><g fill="#000"><path d="m18.177 18.9288h18.6098v18.1423h-18.6098z"/><path d="m121.18 18.4968v17.9264h4.977v-6.4794s-.203-6.4794 5.843-6.4794v-5.4017s-4.313-.1795-5.843 4.1058v-3.6717z"/><path d="m108.413 18.0627c5.378 0 9.738 4.2069 9.738 9.3962 0 5.1894-4.36 9.3962-9.738 9.3962s-9.7375-4.2068-9.7375-9.3962c0-5.1893 4.3595-9.3962 9.7375-9.3962zm0 4.3218c-2.629 0-4.76 2.2723-4.76 5.0755s2.131 5.0755 4.76 5.0755 4.761-2.2723 4.761-5.0755-2.132-5.0755-4.761-5.0755z"/><path d="m85.4756 18.4969v4.3196h2.1639v8.8551s-.1876 5.5643 5.1935 4.9676c3.895-.432 4.1114-1.0799 4.1114-1.0799v-4.1036s-4.1114 2.3757-4.1114-1.0799c0-4.1037 0-7.5593 0-7.5593h4.1114v-4.3196h-4.1114v-4.5356h-5.1935v4.5356z"/><path d="m64.4854 12.8813h4.977v10.3671l9.5213-10.3671h6.2754l-9.3049 9.9351 9.7377 13.6067h-6.059l-7.3574-9.935-2.5967 2.8077v7.1273h-5.1934z"/></g></svg>