<svg width="64" height="64" viewBox="0 0 64 64" fill="none" xmlns="http://www.w3.org/2000/svg">
<g clip-path="url(#clip0_657_7214)">
<path d="M49.625 0H14.375C6.43591 0 0 6.43591 0 14.375V49.625C0 57.5641 6.43591 64 14.375 64H49.625C57.5641 64 64 57.5641 64 49.625V14.375C64 6.43591 57.5641 0 49.625 0Z" fill="#080810"/>
<path fill-rule="evenodd" clip-rule="evenodd" d="M10.3125 20.625C10.3125 17.7255 12.663 15.375 15.5625 15.375H42.125C44.9838 15.375 47.3088 17.6599 47.3736 20.5031C47.3746 20.5228 47.375 20.5426 47.375 20.5625V20.625V21.625V21.6875C47.375 22.3779 46.8154 22.9375 46.125 22.9375H44.6875C43.9971 22.9375 43.4375 22.3779 43.4375 21.6875V21.625V21.375C43.4375 20.2014 42.4861 19.25 41.3125 19.25H16.25C15.0764 19.25 14.125 20.2014 14.125 21.375V42.625C14.125 43.7986 15.0764 44.75 16.25 44.75H41.3125C42.4861 44.75 43.4375 43.7986 43.4375 42.625V42.5V42.3125C43.4375 41.6221 43.9971 41.0625 44.6875 41.0625H46.125C46.8154 41.0625 47.375 41.6221 47.375 42.3125V42.5V43.375V43.4375C47.375 43.4574 47.3746 43.4772 47.3736 43.4969C47.3088 46.3401 44.9838 48.625 42.125 48.625H15.5625C12.663 48.625 10.3125 46.2745 10.3125 43.375V20.625ZM52.375 24.5625C51.6846 24.5625 51.125 25.1221 51.125 25.8125V38.25C51.125 38.9404 51.6846 39.5 52.375 39.5H53.8125C54.5029 39.5 55.0625 38.9404 55.0625 38.25V25.8125C55.0625 25.1221 54.5029 24.5625 53.8125 24.5625H52.375ZM44.6875 26.125C43.9971 26.125 43.4375 26.6846 43.4375 27.375V36.6875C43.4375 37.3779 43.9971 37.9375 44.6875 37.9375H46.125C46.8154 37.9375 47.375 37.3779 47.375 36.6875V27.375C47.375 26.6846 46.8154 26.125 46.125 26.125H44.6875ZM37 27.75C36.3096 27.75 35.75 28.3096 35.75 29V35.125C35.75 35.8154 36.3096 36.375 37 36.375H38.4375C39.1279 36.375 39.6875 35.8154 39.6875 35.125V29C39.6875 28.3096 39.1279 27.75 38.4375 27.75H37Z" fill="url(#paint0_linear_657_7214)"/>
</g>
<defs>
<linearGradient id="paint0_linear_657_7214" x1="71.625" y1="19.75" x2="19.1694" y2="62.6031" gradientUnits="userSpaceOnUse">
<stop stop-color="#FFC300"/>
<stop offset="0.521808" stop-color="#FF5000"/>
<stop offset="1" stop-color="#FF0B2D"/>
</linearGradient>
<clipPath id="clip0_657_7214">
<rect width="64" height="64" fill="white"/>
</clipPath>
</defs>
</svg>
