<svg width="1024" height="1024" viewBox="0 0 1024 1024" fill="none" xmlns="http://www.w3.org/2000/svg">
<rect width="1024" height="1024" rx="230" fill="#080810"/>
<path fill-rule="evenodd" clip-rule="evenodd" d="M165 330C165 283.608 202.608 246 249 246H674C719.74 246 756.941 282.558 757.978 328.049C757.993 328.364 758 328.681 758 329V330V346V347C758 358.046 749.046 367 738 367H715C703.954 367 695 358.046 695 347V346V342C695 323.222 679.778 308 661 308H260C241.222 308 226 323.222 226 342V682C226 700.778 241.222 716 260 716H661C679.778 716 695 700.778 695 682V680V677C695 665.954 703.954 657 715 657H738C749.046 657 758 665.954 758 677V680V694V695C758 695.319 757.993 695.636 757.978 695.951C756.941 741.442 719.74 778 674 778H249C202.608 778 165 740.392 165 694V330ZM838 393C826.954 393 818 401.954 818 413V612C818 623.046 826.954 632 838 632H861C872.046 632 881 623.046 881 612V413C881 401.954 872.046 393 861 393H838ZM715 418C703.954 418 695 426.954 695 438V587C695 598.046 703.954 607 715 607H738C749.046 607 758 598.046 758 587V438C758 426.954 749.046 418 738 418H715ZM592 444C580.954 444 572 452.954 572 464V562C572 573.046 580.954 582 592 582H615C626.046 582 635 573.046 635 562V464C635 452.954 626.046 444 615 444H592Z" fill="url(#paint0_linear_214_2)"/>
<defs>
<linearGradient id="paint0_linear_214_2" x1="1146" y1="316" x2="306.71" y2="1001.65" gradientUnits="userSpaceOnUse">
<stop stop-color="#FFC300"/>
<stop offset="0.521808" stop-color="#FF5000"/>
<stop offset="1" stop-color="#FF0B2D"/>
</linearGradient>
</defs>
</svg>
