<svg width="85" height="64" viewBox="0 0 85 64" fill="none" xmlns="http://www.w3.org/2000/svg">
<g clip-path="url(#clip0_657_7634)">
<path fill-rule="evenodd" clip-rule="evenodd" d="M4.26277 1.29188e-06C1.90836 1.29188e-06 0 1.91031 0 4.26611V59.7334C0 62.0897 1.90836 64 4.26277 64H80.129C82.4834 64 84.3922 62.0897 84.3922 59.7334V4.26611C84.3922 1.91031 82.4834 1.29188e-06 80.129 1.29188e-06H4.26277Z" fill="#D52B1E"/>
<path fill-rule="evenodd" clip-rule="evenodd" d="M35.6853 28.8783C36.8337 20.3803 40.6191 5.05313 47.8385 5.05313C56.2668 5.05313 66.1697 33.3876 66.1673 56.8457H58.395C58.395 32.2417 52.3734 10.0728 48.0407 10.0718C43.521 10.0714 39.56 25.1514 39.56 53.8823H31.7982C31.7982 25.1514 27.8612 10.0718 23.3175 10.0718C18.9926 10.0718 12.9754 32.2459 12.9754 56.8457H5.20312C5.21042 33.3673 15.0882 5.05025 23.5317 5.05313C30.7411 5.05553 34.5278 20.3783 35.6853 28.8783Z" fill="#FDC82F"/>
<path fill-rule="evenodd" clip-rule="evenodd" d="M30.6055 47.418H66.4067V38.3634H30.6055V47.418Z" fill="#D52B1E"/>
<path fill-rule="evenodd" clip-rule="evenodd" d="M62.7969 46.5098H65.0496V39.0923H62.7969V46.5098Z" fill="white"/>
<path fill-rule="evenodd" clip-rule="evenodd" d="M73.3327 39.0919H74.8669L74.3459 41.1133H73.2305L73.3327 39.0919Z" fill="white"/>
<path fill-rule="evenodd" clip-rule="evenodd" d="M77.5119 40.1915C79.0106 40.1915 80.4185 40.5699 80.4252 42.0423H78.286C78.286 41.535 77.9902 41.3045 77.4908 41.3045C77.1945 41.3045 76.7941 41.4276 76.7941 41.8925C76.7945 42.6638 78.0133 42.5095 79.0481 42.817C79.9777 43.093 80.6221 43.6481 80.6221 44.5444C80.6221 45.9177 79.5455 46.6774 77.5119 46.6855C75.3794 46.6939 74.577 45.9246 74.5703 44.5444H76.7379C76.7379 45.0654 77.0615 45.3755 77.5187 45.3755C78.0661 45.3755 78.3143 45.1675 78.3143 44.7803C78.3143 43.974 76.82 43.9948 75.9389 43.7063C75.3396 43.5097 74.795 43.0652 74.795 42.1213C74.795 41.3326 75.3862 40.1915 77.5119 40.1915Z" fill="white"/>
<path fill-rule="evenodd" clip-rule="evenodd" d="M31.3709 44.2625C30.997 45.7371 29.7748 46.693 28.2504 46.6934C26.4099 46.6934 25.0098 45.2995 25.0117 43.2824C25.0131 41.2679 26.2576 39.8738 28.2504 39.872C29.9027 39.8706 31.0403 40.8313 31.3819 42.3079L29.2738 42.3081C29.1121 41.8643 28.8015 41.5181 28.2504 41.5178C27.3202 41.5176 27.0749 42.5042 27.0752 43.2824C27.0754 44.0611 27.3202 45.0472 28.2504 45.0472C28.7992 45.0472 29.1093 44.704 29.2715 44.2627L31.3709 44.2625Z" fill="white"/>
<path fill-rule="evenodd" clip-rule="evenodd" d="M15.8327 39.0936H18.5242L19.6959 43.4755L20.8674 39.0936H23.5608L24.7376 46.6934H22.517L21.9304 42.2519L20.7168 46.6934H18.6749L17.4614 42.2519L16.8746 46.6934H14.6523L15.8327 39.0936Z" fill="white"/>
<path fill-rule="evenodd" clip-rule="evenodd" d="M50.356 42.8768C50.356 43.136 50.356 46.5117 50.356 46.5117H48.1289V40.0314H50.356V40.5377C50.9198 40.0981 51.4292 39.872 52.5851 39.872C53.8403 39.872 54.8515 40.7116 54.852 41.5929V46.5117H52.6091V42.9447C52.61 42.3523 52.0799 41.8692 51.5027 41.8692C50.7603 41.8692 50.3911 42.5267 50.356 42.8768Z" fill="white"/>
<path fill-rule="evenodd" clip-rule="evenodd" d="M70.2223 40.6726V39.0914H72.4748V46.5089H70.2223V46.149C69.9265 46.4163 69.5385 46.6895 68.5676 46.6895C67.4751 46.6895 65.7397 46.082 65.7383 43.4724C65.7369 40.8666 67.4732 40.1902 68.7082 40.1902C69.6052 40.1902 70.0288 40.5001 70.2223 40.6726ZM67.8847 43.4724C67.8847 44.4867 68.3563 45.1347 69.1308 45.1347C69.5952 45.1347 69.9836 44.9322 70.2232 44.5096V42.5638C70.1032 42.1343 69.6864 41.8176 69.1308 41.8174C68.3548 41.817 67.8847 42.4583 67.8847 43.4724Z" fill="white"/>
<path fill-rule="evenodd" clip-rule="evenodd" d="M40.6484 43.2829C40.6503 41.2684 41.9557 39.874 44.0461 39.8722C46.1373 39.8703 47.4424 41.2684 47.4439 43.2829C47.4457 45.2997 46.1368 46.6934 44.0461 46.6934C41.9577 46.6936 40.6468 45.2997 40.6484 43.2829ZM45.3368 43.2829C45.3373 42.5044 45.0679 41.5181 44.0461 41.5181C43.0245 41.5177 42.7551 42.5044 42.7553 43.2829C42.7557 44.0613 43.0245 45.0476 44.0461 45.0476C45.0679 45.0476 45.3368 44.0613 45.3368 43.2829Z" fill="white"/>
<path fill-rule="evenodd" clip-rule="evenodd" d="M32.1562 39.0936H36.0265C38.4479 39.0936 40.0981 40.5988 40.0981 42.8934C40.0981 45.1878 38.4483 46.6934 36.0265 46.6934H32.1562V39.0936ZM34.7165 44.8968H35.8865C36.6447 44.8968 37.5676 44.4341 37.5676 42.8934C37.5676 41.3546 36.6447 40.8902 35.8865 40.8902H34.7165V44.8968Z" fill="white"/>
<path fill-rule="evenodd" clip-rule="evenodd" d="M58.8668 39.8716C60.4653 39.8702 61.7829 40.4586 61.8857 41.7503V46.5094H59.6312V45.8678C59.0838 46.3372 58.5383 46.6895 57.553 46.6895C56.4053 46.6895 55.4805 45.7814 55.4805 44.717C55.4805 43.6524 56.1354 42.4697 58.7578 42.4703C59.4339 42.4704 59.6307 42.2043 59.6312 41.8872C59.6321 41.4978 59.1837 41.2807 58.8082 41.2807C58.4327 41.2807 58.0067 41.4372 58.0067 41.8442H55.8949C55.8949 40.8892 56.5364 39.8738 58.8668 39.8716ZM58.7419 43.5233C58.2219 43.5233 57.7407 43.8011 57.7407 44.3333C57.7407 44.6779 57.9443 44.9755 58.4759 44.9753C58.9844 44.9753 59.527 44.6734 59.6312 44.0476V43.4547C59.4593 43.5488 59.0704 43.5233 58.7419 43.5233Z" fill="white"/>
<path fill-rule="evenodd" clip-rule="evenodd" d="M69.6141 51.7881H70.998C71.6832 51.7881 72.1394 52.1564 72.1394 52.643C72.1394 53.0924 71.7937 53.3874 71.3663 53.4242V53.439C72.0218 53.6599 72.1173 54.1169 72.125 54.736H71.5065C71.4845 53.9916 71.3221 53.6674 70.6672 53.6674H70.1586V54.736H69.6141V51.7881ZM70.1586 53.1957H70.8069C71.3149 53.1957 71.5209 53.0188 71.5209 52.6872C71.5209 52.4365 71.3663 52.2597 70.8953 52.2597H70.1586V53.1957ZM70.7478 50.7637C72.1471 50.7637 73.2808 51.8912 73.2808 53.2989C73.2808 54.7065 72.1471 55.834 70.7478 55.834C69.3486 55.834 68.2148 54.7065 68.2148 53.2989C68.2148 51.8912 69.3486 50.7637 70.7478 50.7637ZM70.7478 55.5614C71.9925 55.5614 73.0086 54.5518 73.0086 53.2989C73.0086 52.0461 71.9925 51.0365 70.7478 51.0365C69.5037 51.0365 68.4871 52.0461 68.4871 53.2989C68.4871 54.5518 69.5037 55.5614 70.7478 55.5614Z" fill="#FDC82F"/>
</g>
<defs>
<clipPath id="clip0_657_7634">
<rect width="85" height="64" fill="white"/>
</clipPath>
</defs>
</svg>
