<svg width="180" height="64" viewBox="0 0 180 64" fill="none" xmlns="http://www.w3.org/2000/svg">
<g clip-path="url(#clip0_657_7497)">
<path d="M105.599 34.4923C105.351 34.8653 105.194 35.1193 105.023 35.367C103.422 37.663 101.621 39.7597 99.1704 41.21C95.8839 43.1523 92.3208 43.953 88.6099 43.1491C86.7061 42.7343 84.931 41.6698 83.1366 40.8177C82.7218 40.6215 82.4967 40.6183 82.1301 40.8337C80.5898 41.7406 79.0944 42.76 77.464 43.4642C74.5731 44.7152 71.5278 45.4194 68.3795 44.5865C66.4051 44.0656 64.7007 42.9529 63.1571 41.6152C62.0638 40.6665 61.993 40.6665 60.8836 41.5798C58.8898 43.2198 56.5874 44.2778 54.1787 45.1525C51.1913 46.2362 48.1074 46.9019 44.956 47.2138C41.1099 47.5933 37.5436 46.9405 34.9421 43.7794C32.8551 41.2454 32.2987 38.3062 33.5754 35.2544C34.9742 31.91 36.5886 28.6557 38.1064 25.3595C38.8975 23.6423 39.695 21.9283 40.4635 20.2014C40.605 19.8831 40.6597 19.5133 40.6758 19.1628C40.7047 18.5196 40.8366 17.8154 40.0937 17.4262C39.3348 17.0307 38.4376 17.1015 37.8781 17.8089C37.1803 18.69 36.5596 19.658 36.0419 20.6581C34.3182 23.9639 32.6525 27.3018 30.9706 30.6301C29.71 33.1256 28.472 35.6339 27.2018 38.1229C25.9958 40.4832 23.732 41.3836 21.2751 40.4639C20.4487 40.152 19.9309 39.5442 19.7894 38.6149C19.5933 37.2996 20.0242 36.1194 20.4905 34.9425C21.5099 32.3634 22.5421 29.7908 23.5615 27.2118C24.1082 25.829 24.6549 24.4462 25.1662 23.0506C25.5263 22.0762 25.6325 21.0408 25.2144 20.0825C24.8896 19.3428 24.2529 18.809 23.3589 18.8894C22.3813 18.9762 21.6128 19.4875 21.243 20.3944C19.947 23.5941 18.7025 26.8163 17.4291 30.0256C15.9048 33.8652 14.403 37.7177 12.8145 41.5316C12.226 42.9401 11.3384 44.2264 9.84632 44.8277C9.09061 45.1332 8.23522 45.3229 7.42164 45.3358C4.88119 45.368 2.69126 44.5222 1.19271 42.3644C-0.000332808 40.6569 -0.289751 38.7499 0.28587 36.7304C0.819685 34.8621 1.35029 32.9937 1.90983 31.135C2.44043 29.3728 2.99997 27.617 3.54986 25.8612C4.06117 24.2244 4.54032 22.5747 5.09664 20.9539C6.19 17.7607 7.07112 14.4742 8.8012 11.5446C9.98459 9.54121 11.9044 8.4575 14.104 7.78541C16.4032 7.08437 18.3649 7.96549 20.3265 8.94308C21.0725 9.31289 21.8057 9.70843 22.5711 10.03C23.6387 10.477 24.6099 10.194 25.4717 9.49297C26.1759 8.92057 26.8866 8.34495 27.5362 7.71145C29.1602 6.12608 32.6653 5.83344 34.3793 7.67607C34.7749 8.10055 35.2412 8.4575 35.6753 8.84339C36.5725 9.63447 36.9423 9.71808 37.981 9.12959C40.4507 7.73717 43.0072 7.93012 45.5187 8.82088C46.9755 9.33862 47.8501 10.5799 48.4065 12.0463C49.2265 14.2073 48.8824 16.2911 48.0624 18.3234C46.551 22.0602 44.9045 25.739 43.4317 29.4886C42.557 31.7139 41.8206 34.0003 41.1903 36.306C40.933 37.245 40.933 38.3608 41.171 39.303C41.5312 40.7308 42.84 41.2003 44.1649 41.3676C46.1812 41.6216 48.1588 41.2486 50.0883 40.7148C51.738 40.2613 53.3619 39.6986 54.973 39.1165C55.7513 38.8368 56.4748 38.4059 57.2176 38.0264C57.8511 37.7048 57.9026 37.2353 57.5682 36.6436C56.8864 35.4377 56.1661 34.2479 55.5647 33.0002C54.2913 30.3632 53.2462 27.6427 53.5259 24.6392C53.7703 22.0087 54.719 19.7223 57.1469 18.3395C60.7292 16.2975 63.6395 16.8603 66.2732 19.912C68.55 22.5522 69.3025 25.7293 68.3249 29.1348C67.7782 31.0385 66.9935 32.878 66.2475 34.7206C66.0417 35.2319 66.1607 35.5567 66.4822 35.8558C67.9904 37.2643 69.7109 38.3608 71.621 39.1358C72.3413 39.4285 73.1035 39.6471 73.8656 39.8015C75.5057 40.1295 77.0299 39.7404 78.3966 38.811C79.0462 38.3705 79.0623 37.9589 78.6089 37.3414C75.4638 33.0516 74.2193 28.2762 75.1648 23.0313C75.5185 21.0665 76.4286 19.211 78.5349 18.645C79.8373 18.2945 81.3101 18.3106 82.6671 18.481C84.8699 18.7608 86.8637 19.6387 88.2175 21.536C89.8415 23.8127 90.2563 26.3017 89.5553 29.0223C89.0536 30.9774 88.0278 32.6368 86.8991 34.2511C86.4521 34.891 86.436 35.4795 87.0438 35.9104C87.9828 36.5697 88.9347 37.2932 89.9959 37.6759C92.2983 38.5055 94.6909 38.4316 97.0094 37.6855C99.5499 36.8687 101.335 35.1837 102.351 32.685C103.566 29.6944 103.582 26.5654 103.518 23.4236C103.47 20.97 103.383 18.5132 103.309 16.0563C103.283 15.1784 103.142 15.127 102.306 15.2974C100.103 15.7412 97.8905 16.1367 95.6781 16.5419C94.9803 16.6673 94.2792 16.7542 93.5814 16.8796C92.0636 17.1529 90.8094 16.5291 90.7258 14.754C90.639 12.9628 90.3785 11.1812 90.1952 9.3965C90.1856 9.29681 90.1759 9.19391 90.1695 9.09422C90.0666 6.99111 90.5747 5.84952 93.0991 5.93956C95.7038 6.03604 98.3118 6.11965 100.913 6.25792C102.193 6.32545 102.643 6.00066 102.727 4.73044C102.791 3.7432 102.82 2.75596 102.881 1.77194C102.975 0.292693 103.312 -0.057825 104.814 5.86575e-05C105.711 0.035432 106.615 0.193004 107.493 0.389165C108.731 0.66572 109.377 1.53719 109.464 2.76883C109.535 3.77536 109.506 4.79154 109.49 5.8045C109.477 6.52161 109.699 6.90429 110.5 6.98468C112.815 7.21943 115.121 7.54101 117.433 7.81757C118.523 7.9462 119.137 8.38997 119.285 9.20034C119.542 10.6088 119.237 11.5736 118.172 11.9595C116.683 12.4965 115.146 12.9081 113.609 13.2876C112.532 13.5545 111.419 13.667 110.326 13.8696C109.593 14.0047 109.194 14.3906 109.2 15.2138C109.229 19.2914 109.136 23.3722 109.255 27.4465C109.316 29.585 109.638 31.7235 110.548 33.7205C111.284 35.338 112.538 35.9747 114.288 35.6821C116.851 35.2512 119.201 34.3508 121.247 32.73C122.382 31.8296 123.131 30.7298 123.186 29.2088C123.289 26.4239 123.427 23.6423 123.588 20.8639C123.636 20.0632 123.726 19.2303 123.993 18.4842C124.141 18.0694 124.687 17.5195 125.067 17.5099C127.16 17.4455 129.27 17.4262 131.354 17.6063C132.666 17.7189 133.566 18.9473 133.495 20.3333C133.402 22.2756 133.151 24.2115 132.965 26.1506C132.736 28.5431 132.524 30.9389 132.27 33.3282C132.013 35.7464 133.946 36.9459 135.862 36.9684C137.467 36.9877 138.416 36.3896 139.097 34.6884C139.805 32.9294 140.223 31.0225 140.528 29.1413C140.959 26.4722 141.162 23.7645 141.48 21.0761C141.609 19.9796 142.294 19.1338 143.146 18.9505C144.13 18.7383 145.426 19.1402 145.747 20.0407C146.018 20.7931 145.956 21.7129 145.863 22.5393C145.516 25.6007 145.014 28.6492 144.725 31.7171C144.548 33.6015 145.606 34.9425 147.436 35.4988C148.349 35.7754 149.294 35.994 150.24 36.1034C151.899 36.2931 153.073 35.0808 153.42 33.1963C153.713 31.611 153.751 29.9773 153.896 28.363C154.063 26.4464 154.086 24.5073 154.414 22.6197C154.896 19.8252 156.7 17.2912 160.045 16.4776C162.051 15.9888 164.077 15.9309 166.081 16.1625C169.136 16.513 172.335 18.5904 173.313 22.102C174.056 24.771 173.76 27.3501 172.888 29.9162C171.875 32.8908 170.03 35.2094 167.447 36.9748C167.209 37.1388 167.071 37.4476 166.888 37.6887C167.213 37.8334 167.541 38.1036 167.862 38.0971C170.949 38.0489 173.856 37.3447 176.522 35.7271C177.124 35.3637 177.78 35.0872 178.413 34.7849C178.995 34.5084 179.339 34.8364 179.178 35.338C178.908 36.1805 178.584 37.0713 178.043 37.7531C175.76 40.6408 172.644 42.0236 169.042 42.2648C167.515 42.3677 165.965 42.1619 164.425 42.0782C163.264 42.0139 162.103 41.911 160.942 41.8338C160.353 41.7953 160.013 42.0429 159.865 42.6539C158.938 46.471 158.45 50.3556 157.971 54.2467C157.668 56.6971 157.212 59.1411 156.623 61.54C156.305 62.8424 155.289 63.7396 153.883 63.9647C153.044 64.0998 152.42 63.7364 152.137 62.9517C151.899 62.2893 151.677 61.5979 151.619 60.9033C151.343 57.4849 151.455 54.0762 151.909 50.674C152.14 48.9439 152.292 47.2042 152.491 45.4677C152.629 44.2617 152.812 43.0591 152.925 41.8499C153.015 40.8723 152.793 40.644 151.857 40.4575C149.925 40.0716 147.989 39.6922 146.063 39.2677C144.754 38.9783 143.734 39.4413 142.85 40.3417C141.673 41.5412 140.371 42.5799 138.827 43.2552C136.962 44.0688 134.984 43.8984 133.068 43.5929C130.299 43.1523 128.09 41.6956 126.517 39.3609C126.028 38.6374 125.675 37.8206 125.292 37.0295C125.077 36.5857 124.887 36.4153 124.366 36.679C122.526 37.6148 120.693 38.5763 118.796 39.3802C116.68 40.2742 114.436 40.5893 112.188 39.9623C109.998 39.3513 108.316 37.9396 106.92 36.1773C106.544 35.711 106.178 35.2351 105.599 34.4923ZM168.705 25.7229C168.679 25.4206 168.679 25.1151 168.631 24.8161C168.351 23.0892 166.618 22.3174 165.219 23.3561C164.589 23.8256 164.013 24.4462 163.582 25.1055C162.141 27.3115 161.492 29.8391 160.842 32.3538C160.678 32.9841 160.566 33.653 160.579 34.2993C160.604 35.5052 161.312 35.8622 162.325 35.2094C164.425 33.8556 165.978 31.9775 167.29 29.8905C168.087 28.6267 168.74 27.289 168.705 25.7229ZM86.3556 26.9417C86.3749 25.7422 86.0951 24.6328 85.2108 23.7677C84.722 23.2886 84.1078 23.0828 83.4068 23.3014C82.5546 23.5651 82.0947 24.1986 82.0304 25.247C81.905 27.2793 82.7797 29.0255 83.6769 30.7459C84.14 31.6302 84.5805 31.6045 85.1754 30.7845C86.0115 29.6397 86.3363 28.3405 86.3556 26.9417ZM65.6365 26.5526C65.4146 25.8162 65.2667 25.0476 64.9515 24.3562C64.5464 23.4751 63.5012 23.0795 62.5783 23.3207C61.6007 23.578 61.2148 24.0443 61.3145 25.247C61.4046 26.2953 61.6457 27.3404 61.9223 28.3566C62.1281 29.1059 62.4432 29.8391 62.8131 30.5208C63.3147 31.4373 63.8389 31.4469 64.3309 30.5594C65.0126 29.3342 65.54 28.0511 65.6365 26.5526Z" fill="#ED1C40"/>
</g>
<defs>
<clipPath id="clip0_657_7497">
<rect width="180" height="64" fill="white"/>
</clipPath>
</defs>
</svg>
