<svg fill="none" height="38" viewBox="0 0 212 38" width="212" xmlns="http://www.w3.org/2000/svg" xmlns:xlink="http://www.w3.org/1999/xlink"><clipPath id="a"><path d="m0-.000488h211.436v38h-211.436z"/></clipPath><g clip-path="url(#a)"><path d="m18.4862-.00048828v9.49999828l9.2431-9.49999828h9.2431v9.49999828l-9.2424 9.49929 9.2424.0007v9.5l-9.2431 9.5v-9.5h-9.2431l-9.2431 9.5v-9.5h-9.2431l9.2431-9.5v-9.49999h-9.2431l9.2431-9.49999828zm151.2828 11.80938828c3.949 0 5.959 1.9562 6.03 5.8685l.002.2153v10.6068h-3.498v-2.5482h-.062c-1.099 1.9536-2.711 2.9304-4.835 2.9304-1.565 0-2.791-.4353-3.677-1.3059s-1.329-2.0226-1.329-3.456c0-3.0149 1.659-4.798 4.978-5.3495l.214-.0335 4.726-.6848c0-2.3252-1.077-3.4878-3.233-3.4878-1.814 0-3.458.612-4.931 1.836l-.2.1707v-3.233c1.68-1.0193 3.618-1.529 5.815-1.529zm-42.018 0c2.487 0 4.425.7486 5.814 2.2456 1.389 1.4971 2.083 3.5728 2.083 6.2271 0 2.6013-.749 4.685-2.246 6.251-1.498 1.5661-3.511 2.3491-6.04 2.3491-2.456 0-4.418-.7618-5.884-2.2854-1.467-1.5236-2.2-3.5435-2.2-6.0598 0-2.7393.764-4.8787 2.293-6.4183 1.529-1.5395 3.588-2.3093 6.18-2.3093zm-44.1394 0c2.1765 0 3.8607.7167 5.0526 2.1501 1.1461 1.3782 1.7412 3.2718 1.7852 5.6807l.0027.2916v1.4174h-10.8515c.0415 1.5077.4949 2.6703 1.3603 3.4878.8655.8176 2.0548 1.2263 3.568 1.2263 1.6103 0 3.095-.4669 4.4541-1.4008l.2254-.1599v2.9781c-1.4511.9344-3.3684 1.4015-5.7522 1.4015-2.3424 0-4.1795-.7405-5.5113-2.2217-1.3318-1.4811-1.9977-3.5647-1.9977-6.2509 0-2.5376.7333-4.6054 2.1998-6.2033 1.4666-1.5979 3.2881-2.3969 5.4646-2.3969zm117.0044-7.45337v15.30497h.062l5.845-7.4693h4.338l-6.576 7.8675 7.151 8.4408h-4.571l-6.187-7.8356h-.062v7.8356h-3.623v-24.14397zm-145.949 1.30594 5.861 15.20943.17.4513c.2964.7984.5092 1.4368.6384 1.9154l.0622.2452h.0778l.2365-.7289c.2265-.6864.4231-1.2456.5896-1.6776l6.0765-15.41483h5.0215v22.83803h-3.669v-14.7794c0-1.0242.052-2.2422.1559-3.6541l.0618-.7893h-.0622l-.1034.44065c-.1693.70115-.3232 1.23575-.4618 1.60395l-6.695 17.1782h-2.5496l-6.6695-16.9454c-.1722-.4606-.3532-1.1429-.5431-2.0468l-.0476-.2306h-.0622l.0236.29129c.0634.87451.0969 2.16711.1004 3.87771l.0004 15.0538h-3.4203v-22.83803zm97.436 0c2.155 0 3.863.4831 5.122 1.44928 1.26.96618 1.889 2.22435 1.889 3.77445 0 1.2954-.357 2.4208-1.073 3.3764-.67.8958-1.582 1.549-2.735 1.9596l-.234.0789v.0637c1.534.1805 2.76.7618 3.677 1.7439s1.376 2.2589 1.376 3.8303c0 1.9536-.752 3.5355-2.255 4.7459-1.44 1.16-3.242 1.7641-5.405 1.8125l-.285.0031h-7.151v-22.83803zm36.051 6.14743c1.731 0 3.052.576 3.964 1.728.873 1.1019 1.328 2.6726 1.366 4.7119l.002.281v9.9697h-3.607v-9.1894c0-3.0471-1.052-4.5707-3.155-4.5707-1.099 0-2.006.422-2.721 1.2661-.673.7944-1.03 1.784-1.069 2.9687l-.004.2245v9.3008h-3.622v-16.3083h3.622v2.7074h.062c1.192-2.0598 2.913-3.0897 5.162-3.0897zm-76.612 0c3.441 0 5.192 2.1354 5.253 6.4062l.002.235v10.0494h-3.607v-8.8868c0-1.7094-.236-2.9463-.707-3.7107-.472-.7645-1.267-1.1467-2.387-1.1467-.943 0-1.744.4831-2.402 1.4493-.617.9058-.944 1.9795-.983 3.2213l-.004.2505v8.8231h-3.622v-9.1894c0-3.0365-1.047-4.5548-3.1406-4.5548-.9742 0-1.7749.4565-2.4019 1.3696-.5878.8561-.9002 1.95-.9369 3.282l-.0037.2695v8.8231h-3.6067v-16.3083h3.6067v2.58h.0622c1.1505-1.9748 2.8243-2.9623 5.0219-2.9623 1.098 0 2.06.3106 2.884.9317.823.6211 1.386 1.436 1.686 2.4447 1.182-2.2509 2.944-3.3764 5.286-3.3764zm-83.8127-2.30939h-9.2431l-9.24244 9.49929 9.24244.0007v9.5l9.2431-9.5zm144.5887 10.98919-3.342.4778c-1.036.138-1.816.3955-2.34.7724-.523.3769-.785 1.0378-.785 1.9828 0 .6901.241 1.2555.723 1.6961s1.127.6609 1.936.6609c1.098 0 2.008-.3955 2.728-1.1865.675-.7415 1.034-1.6627 1.076-2.7635l.004-.2226zm-44.785-5.7334c-1.41 0-2.524.5043-3.343 1.513-.818 1.0086-1.228 2.3995-1.228 4.1726 0 1.7094.415 3.0552 1.244 4.0373s1.938 1.4731 3.327 1.4731c1.42 0 2.511-.4831 3.272-1.4492.762-.9662 1.143-2.3412 1.143-4.1249 0-1.7943-.381-3.1799-1.143-4.1567-.761-.9768-1.852-1.4652-3.272-1.4652zm23.855 3.4878h-2.674v7.2304h3.155c1.379 0 2.444-.3264 3.195-.9794.752-.653 1.127-1.5528 1.127-2.6995 0-2.315-1.531-3.4983-4.592-3.5497zm-67.823-3.7108c-1.0365 0-1.9148.3875-2.6351 1.1626-.6723.7234-1.1031 1.6549-1.2924 2.7945l-.0369.2474h7.3691c-.0104-1.3272-.3162-2.3597-.9173-3.0976s-1.4303-1.1069-2.4874-1.1069zm67.838-5.82894h-2.689v6.49784h2.394c1.285 0 2.293-.3105 3.024-.9317.73-.6211 1.096-1.4997 1.096-2.6357 0-1.90355-1.211-2.8797-3.631-2.92851z" fill="#000"/></g></svg>