<svg width="73" height="64" viewBox="0 0 73 64" fill="none" xmlns="http://www.w3.org/2000/svg">
<g clip-path="url(#clip0_657_7217)">
<path d="M71.7645 13.6837C71.7645 12.6677 71.7812 11.6602 71.7393 10.6443C71.6974 9.62837 71.7826 8.65158 71.8259 7.63287C71.9014 5.86095 71.7435 4.07506 71.8776 2.30315C71.9559 1.26906 71.3927 0.233581 70.2846 0.138557C69.3581 0.0589051 68.4414 0.155325 67.5107 0.0714802C66.9713 0.0225709 66.5242 0.0421346 66.0504 0.335591C65.5502 0.647213 65.3517 1.08321 65.089 1.58208C64.6209 2.46944 64.2506 3.39871 63.8062 4.29166C63.6413 4.62145 63.4708 4.94984 63.3171 5.28382C63.0558 5.84279 62.6841 6.33188 62.3878 6.87687C62.0916 7.42186 61.7814 7.92073 61.4572 8.44057C61.1525 8.92827 60.922 9.5585 60.5265 9.97772C60.0556 9.5585 59.7467 8.94224 59.3932 8.43219C58.9893 7.84667 58.5785 7.26675 58.1956 6.66866C57.6702 5.84558 57.1965 4.99176 56.6906 4.17148C56.0408 3.10945 55.4693 1.98034 54.7719 0.95744C53.9587 -0.240141 52.7597 0.0784677 51.5034 0.0784677C50.4595 0.0784677 49.4073 0.0407373 48.7896 1.06504C48.3928 1.72462 48.5814 2.62595 48.6163 3.35121C48.6611 4.24136 48.6974 5.1329 48.717 6.02585C48.7519 7.53924 48.7547 9.04565 48.7547 10.559C48.7547 11.8307 48.7086 13.1037 48.7086 14.3754C48.7086 16.192 48.7938 18.024 48.696 19.8365C48.6401 20.8705 48.6247 21.8962 48.6247 22.9303V25.5952C48.6247 26.6363 48.8246 27.8478 50.0585 28.0574C50.8969 28.1972 51.7745 27.9512 52.6311 28.0197C53.035 28.0518 53.436 28.1594 53.8385 28.0896C54.5162 27.9638 55.0808 27.511 55.2457 26.8319C55.3756 26.2981 55.2596 25.679 55.2666 25.1284C55.2834 23.6975 55.1926 22.2679 55.2009 20.8384C55.2009 20.4108 55.3071 19.993 55.3407 19.5682C55.3607 19.1276 55.357 18.6863 55.3295 18.2462C55.3225 17.9066 55.3295 17.5657 55.3295 17.2261C55.3295 16.7663 55.3295 16.3066 55.3295 15.8468C55.3295 15.5199 55.2806 14.4425 55.7613 14.7429C55.9849 14.8826 56.1498 15.2613 56.2895 15.4793C56.49 15.828 56.7151 16.1619 56.9631 16.4785C57.3558 16.934 57.7414 17.3938 58.0978 17.8759C58.8552 18.9044 59.4672 20.5771 61.0533 20.2068C61.6584 20.067 61.9211 19.6897 62.2523 19.2034C62.6679 18.6045 63.1143 18.0275 63.5896 17.4748C64.0466 16.9284 64.3624 16.1333 64.987 15.7616C65.1351 15.7937 65.0806 17.3435 65.082 17.4623C65.089 18.1148 64.9828 18.7339 65.0289 19.3907C65.0806 20.1215 64.9856 20.8566 64.9884 21.5902L64.9968 23.3705C64.9968 24.5094 65.015 25.6483 64.9968 26.7872C64.987 27.321 64.9353 27.8534 64.9283 28.3886C64.9185 29.0552 64.9283 29.9663 65.2763 30.5532C65.6676 31.2142 66.2545 31.2659 66.942 31.2226C67.6714 31.1764 68.4065 31.2351 69.1359 31.2533C70.4425 31.2868 71.7435 30.869 71.791 29.3584C71.8315 28.1636 71.6513 26.9954 71.6694 25.8048C71.6904 24.7497 71.7183 23.6947 71.7477 22.6397C71.7756 21.6237 71.8539 20.5939 71.8329 19.5779C71.8148 18.6389 71.9014 17.704 71.886 16.7649C71.8776 15.7323 71.7645 14.7094 71.7645 13.6837Z" fill="#2B3648"/>
<path d="M23.5146 2.02612C23.5146 0.869068 22.5812 0.0795312 21.4619 0.0697493C21.065 0.0697493 20.6681 0.0697493 20.2713 0.0697493C19.6312 0.0599675 18.9647 -0.100735 18.3372 0.0935051C17.6805 0.294732 17.3297 0.880247 16.9971 1.44061C16.6408 2.0387 16.3124 2.64378 15.9351 3.2279C15.3761 4.0915 14.9094 5.00121 14.37 5.87459C13.8991 6.63618 13.403 7.37681 12.8985 8.11045C12.4793 8.71553 12.1006 9.48131 11.5472 9.96761C11.1937 9.5903 10.9883 9.03833 10.72 8.59954C10.3944 8.06294 10.0394 7.55568 9.75156 6.99951C9.46369 6.44334 9.05285 5.93468 8.79153 5.35336C8.56236 4.85029 8.29545 4.37517 8.05789 3.8735C7.80636 3.34668 7.62749 2.78911 7.36897 2.26788C7.12582 1.77738 6.85472 1.13038 6.49838 0.72234C5.59845 -0.304757 4.38689 0.184336 3.22285 0.125645C2.31314 0.0795304 1.29443 -0.0518259 0.636245 0.730724C-0.0219351 1.51327 0.232393 2.54736 0.240778 3.48083C0.25056 4.5778 0.300866 5.67756 0.261738 6.77453C0.219816 7.94835 0.374929 9.1068 0.341392 10.2834C0.309251 11.4167 0.307854 12.543 0.309252 13.6763C0.309252 15.1199 0.140165 16.5494 0.204446 17.9957C0.289688 19.8976 0.309251 21.8093 0.365147 23.7153C0.387506 24.4643 0.430826 25.2175 0.387506 25.9666C0.320431 27.1558 0.168111 28.3547 0.285494 29.5481C0.394492 30.6661 1.3643 31.2082 2.40537 31.2432C3.07193 31.2655 3.74828 31.2138 4.41484 31.1999C4.90394 31.1901 5.47967 31.327 5.952 31.2069C7.16495 30.8994 7.15796 29.2365 7.13979 28.2499C7.12442 27.3388 7.0797 26.4333 7.07691 25.5194C7.07691 23.4233 6.96512 21.3076 7.04757 19.231C7.08669 18.2682 6.94695 17.311 6.99865 16.3468C6.99865 16.2378 7.01542 15.8549 7.11604 15.8074C7.25578 15.7403 7.58417 16.2266 7.64146 16.2979C8.06069 16.8443 8.40864 17.406 8.88237 17.9091C9.44133 18.5086 9.76972 19.5063 10.4517 19.9717C11.3977 20.6201 12.5659 20.0891 13.0998 19.1989C13.6448 18.2751 14.2764 17.4052 14.9863 16.6011C15.3426 16.207 15.5885 15.7627 15.8778 15.3183C16.2425 14.7593 16.6059 14.287 16.7162 15.2806C16.8853 16.7576 16.5765 18.2766 16.7456 19.7523C16.9454 21.4655 16.849 23.2304 16.8029 24.959C16.7749 26.0057 16.4703 27.5261 17.517 28.1912C18.3652 28.7292 19.2945 28.331 20.221 28.3561C21.3151 28.3855 22.584 28.7754 23.1863 27.5498C23.565 26.7826 23.4434 25.8841 23.4434 25.0541C23.4434 23.5784 23.4839 22.0957 23.4154 20.6201C23.347 19.1444 23.4322 17.6757 23.3889 16.1987C23.3679 15.5195 23.4602 14.846 23.4406 14.1668C23.4238 13.5981 23.3595 13.0335 23.3707 12.4634C23.3847 11.6627 23.3246 10.8592 23.3134 10.057C23.2967 8.78121 23.326 7.50956 23.3456 6.23233C23.3721 4.82933 23.5146 3.42353 23.5146 2.02612Z" fill="#2B3648"/>
<path d="M34.9183 16.7561C33.4314 16.7561 33.2903 17.9313 33.3127 19.1317C33.3308 20.0595 33.2204 21.2166 34.2391 21.6666C35.0287 22.0159 36.0376 21.9642 36.8802 21.988C37.8389 22.0159 38.7891 21.9991 39.7477 21.9782C40.4884 21.9614 41.2262 22.0187 41.9668 21.9852C42.7396 21.9502 43.504 21.8957 44.2809 21.858C44.7742 21.8357 45.438 21.9321 45.8349 22.2577C46.2792 22.6238 46.4218 23.3365 46.4539 23.8801C46.514 24.868 46.7334 25.9049 46.6579 26.8929C46.5475 28.2246 45.1655 28.0038 44.1733 27.9507C43.4746 27.913 42.7969 28.0276 42.1052 28.0527C41.359 28.0779 40.6155 27.9787 39.8693 27.9773C38.7109 27.9773 37.551 28.001 36.3926 28.0304C34.2629 28.0835 32.136 27.9228 30.0078 28.001C29.2015 28.0304 27.7719 28.2316 27.0592 27.7481C26.6484 27.4686 26.3494 26.8468 26.2963 26.3661C26.2585 26.0321 26.3074 24.4027 26.2655 23.9136C26.1258 22.3122 26.1901 20.6465 26.204 19.038C26.204 18.6426 26.2781 18.2555 26.2865 17.8628C26.2977 17.2773 26.204 16.6932 26.204 16.1077C26.204 15.0987 26.1621 14.0912 26.1621 13.0823C26.1621 11.9643 26.3452 10.8464 26.2837 9.72849C26.2138 8.48339 26.2837 7.26485 26.2837 6.01836C26.2837 5.54045 26.3326 5.06812 26.3228 4.59021C26.3074 3.80347 26.1719 3.0307 26.211 2.23976C26.2781 0.912223 26.8552 0.0458282 28.261 0.0821609C29.7842 0.121288 31.3074 -0.012863 32.8278 0.0821609C33.8716 0.143647 34.9239 0.0919428 35.9621 0.0821609C36.7685 0.072379 37.5762 0.00809848 38.3811 0.00390625C39.8889 0.00390625 41.419 0.182774 42.9282 0.110109C44.1468 0.0528148 45.635 -0.137231 45.5833 1.5201C45.5596 2.24396 45.5037 2.90773 45.5763 3.63298C45.649 4.33169 45.6853 4.89764 45.2158 5.4566C44.4221 6.40265 42.6851 5.99321 41.6161 6.02675C40.3864 6.06448 39.2125 5.85766 37.9828 5.85207C36.7531 5.84648 35.1153 5.69695 34.017 6.26011C33.7592 6.39125 33.5598 6.61407 33.458 6.88475C33.1422 7.7232 33.1981 8.50994 33.3378 9.34839C33.5055 10.3601 34.2643 10.4845 35.1195 10.5418C36.0446 10.6019 36.9725 10.6606 37.899 10.6731C38.43 10.6801 38.9596 10.7039 39.4906 10.7123C40.2662 10.7234 41.0347 10.6158 41.8117 10.6284C42.3399 10.6368 42.6837 10.7514 42.9869 11.2167C43.2664 11.6555 43.1965 12.0817 43.1602 12.5736C43.1057 13.3142 43.0973 14.0423 43.061 14.7829C43.0107 15.7765 42.7256 16.573 41.651 16.7505C40.2005 16.9894 38.6116 16.7617 37.1472 16.7854C36.4042 16.8151 35.6602 16.8053 34.9183 16.7561Z" fill="#2B3648"/>
<path d="M9.66954 40.1393C9.11058 40.0275 8.73747 40.0471 8.21764 40.3C7.78444 40.511 7.65867 40.7877 7.4826 41.2251C7.00608 42.4171 7.34286 43.6901 7.29534 44.9394C7.24504 46.2655 7.29535 47.5414 7.35264 48.8647C7.40714 50.0092 8.12541 50.23 9.11198 50.3054C10.6603 50.4228 12.1583 49.5173 13.177 48.4189C13.437 48.1395 13.6088 47.7761 13.7947 47.4408C14.0945 46.9603 14.3562 46.4571 14.5773 45.9357C14.9294 45.0214 15.0114 44.0251 14.8134 43.0655C14.5228 41.8357 13.6731 40.8212 12.4378 40.4691C11.9313 40.3049 11.4047 40.2109 10.8727 40.1896C10.4717 40.1952 10.0734 40.1393 9.66954 40.1393ZM21.827 42.5037C21.827 43.5518 21.9584 44.523 21.7571 45.564C21.6398 46.1705 21.4777 46.7672 21.3114 47.3597C20.7748 49.2462 19.4165 50.5849 18.1085 51.9809C17.5985 52.5259 16.9584 53.1632 17.3525 53.9695C17.632 54.5382 18.3307 54.9476 18.8659 55.2355C19.2041 55.4158 19.5199 55.6324 19.8595 55.8071C20.2396 56.0027 20.7468 56.1187 21.1283 56.2947C21.9989 56.6972 21.7613 57.4588 21.7334 58.2358C21.7138 58.7947 21.8033 59.3425 21.7739 59.8973C21.739 60.5499 21.6342 61.1843 21.6705 61.8411C21.718 62.7326 21.6048 63.286 20.758 63.6675C19.1524 64.3927 17.1052 63.1882 15.9048 62.1457C15.1151 61.4726 14.3635 60.7561 13.6536 59.9993C13.4258 59.7519 12.1765 58.6913 11.7964 58.3825C10.8098 57.5832 8.91914 56.1466 7.85152 57.5734C7.32749 58.2721 7.29255 59.1567 7.29954 59.9965C7.30652 60.8363 7.61954 61.6734 7.64051 62.5272C7.65588 63.2189 7.23945 63.7653 6.53096 63.8212C6.17881 63.8492 5.82387 63.7332 5.47871 63.6815C4.96629 63.6079 4.44681 63.5971 3.93178 63.6493C3.2736 63.6954 2.61961 63.6619 1.96283 63.6996C1.09364 63.7485 0.39633 63.7625 0.0777206 62.7843C-0.0941609 62.2575 0.0413874 61.7111 0.10986 61.1787C0.162734 60.7032 0.17722 60.2242 0.15318 59.7464C0.113087 58.5872 0.142953 57.4266 0.242614 56.271C0.34183 55.1698 0.216064 54.0785 0.206282 52.9773C0.197898 51.837 0.167155 50.7037 0.206282 49.5634C0.242615 48.3365 0.112656 47.1138 0.147591 45.8826C0.181129 44.6837 0.273357 43.4917 0.343228 42.2941C0.433833 40.442 0.411899 38.5861 0.277549 36.7366C0.224448 35.8981 0.0875017 34.7732 0.638081 34.0606C1.31583 33.183 2.41279 33.5016 3.37421 33.4778C4.53406 33.4401 5.69251 33.4527 6.85376 33.5044C8.01501 33.5561 9.18884 33.4345 10.3557 33.4038C12.1206 33.3577 14.2293 33.4625 15.8685 34.2199C17.2812 34.8724 18.8198 35.5348 19.77 36.8302C20.6839 38.0767 21.3757 39.2687 21.7152 40.8003C21.8424 41.3676 21.8326 41.921 21.8326 42.5037H21.827Z" fill="#2B3648"/>
<path d="M31.8146 45.4013C31.8146 46.5108 31.6203 47.6064 31.6245 48.7173C31.6287 49.8283 31.5309 50.921 31.563 52.0138C31.5952 53.1066 31.7112 54.1574 31.7265 55.2279C31.7419 56.3332 31.6622 57.4148 31.7768 58.5174C31.9068 59.775 32.1136 61.5707 31.5574 62.7403C31.1801 63.5355 30.6519 63.9449 29.7408 63.8918C28.6816 63.8289 27.6657 63.9323 26.605 63.9449C25.9301 63.9519 25.0679 63.9826 24.7604 63.2294C24.583 62.792 24.7031 62.2205 24.7409 61.7607C24.7898 61.1808 24.8569 60.6037 24.8806 60.0224C24.9687 57.9165 24.8261 55.798 24.808 53.6935C24.7926 52.0879 24.7325 50.4795 24.7227 48.8766C24.7157 47.7853 24.8471 46.7009 24.8499 45.6095C24.8499 44.6313 24.3943 43.4058 25.1908 42.6344C25.9245 41.9231 27.1905 42.2822 28.0863 42.3759C28.8716 42.4569 29.6905 42.3493 30.4828 42.3535C31.1732 42.3535 31.8383 43.0648 31.8565 43.7677C31.8719 44.3071 31.8146 44.8619 31.8146 45.4013Z" fill="#2B3648"/>
<path d="M34.2084 62.3267C34.2084 63.1414 35.3962 63.555 36.0711 63.6724C37.1334 63.8375 38.2041 63.9434 39.2782 63.9896C39.8371 64.0232 40.3961 63.9617 40.9551 63.9407C41.6146 63.917 42.2756 63.9575 42.9296 63.8513C43.8407 63.7115 44.6917 63.2923 45.5148 62.8982C46.1723 62.5993 46.7787 62.199 47.3119 61.7118C48.018 61.0486 48.6561 60.3165 49.2166 59.5263C49.7029 58.8667 49.8775 58.2099 50.2269 57.4833C50.7076 56.4883 50.7453 55.355 50.7467 54.2692C50.7467 51.9859 50.2353 50.0672 49.0139 48.1374C48.5584 47.4163 47.9114 46.9258 47.6417 46.6534C47.1931 46.1964 46.6845 45.8149 46.2708 45.3272C45.9312 44.9248 45.4757 44.6285 45.0816 44.2792C44.5758 43.8278 44.0699 43.3946 43.5277 42.9866C42.3483 42.1006 41.1633 40.9883 41.3617 39.3533C41.5126 38.1166 42.7899 37.1803 44.0168 37.2446C44.9617 37.2853 45.9036 37.3786 46.8382 37.5241C47.5942 37.6498 48.2943 37.9503 48.986 37.4165C49.612 36.9344 49.3801 35.9771 49.3619 35.2938C49.3493 34.8033 49.3703 34.3156 49.3465 33.8195C49.3183 33.4304 49.323 33.0396 49.3605 32.6513C49.4052 32.2768 49.4541 31.8478 49.1397 31.5683C48.9091 31.3629 48.5262 31.2763 48.2384 31.1966C47.4599 31.0024 46.669 30.8623 45.8712 30.7774C43.5123 30.4616 40.8642 30.646 38.6661 31.5753C37.129 32.2223 35.8797 33.03 35.0552 34.528C34.4289 35.6603 34.0811 36.9253 34.0407 38.2186C33.9526 41.0875 34.629 44.1562 36.7447 46.2257C37.3553 46.8224 37.9437 47.4457 38.5865 48.0088C38.9065 48.2883 39.2852 48.681 39.5912 48.9675C39.9688 49.2861 40.3655 49.5815 40.779 49.852C41.3226 50.2321 41.6077 50.5312 42.1009 50.97C42.6505 51.4307 43.0701 52.0271 43.3181 52.7C43.8477 54.1519 43.3824 55.9755 41.7893 56.473C40.9509 56.7371 40.0677 56.6882 39.1873 56.6127C38.7604 56.5867 38.3381 56.5093 37.9297 56.3821C37.4292 56.1918 36.9058 56.0687 36.373 56.016C35.8713 55.9881 35.2047 55.9308 34.738 56.139C34.2098 56.3737 34.2545 56.8195 34.3104 57.3114C34.3956 58.0674 34.2489 58.801 34.214 59.5473C34.172 60.4723 34.2084 61.4156 34.2084 62.3267Z" fill="#2B3648"/>
<path d="M52.9932 62.9243C53.5004 63.8215 54.3361 63.7851 55.2709 63.7726C56.298 63.7586 57.3237 63.7558 58.3522 63.7726C60.1465 63.8033 61.924 63.8285 63.7183 63.7614C65.159 63.7083 66.5955 63.8578 68.0307 63.7837C68.6609 63.7516 69.2772 63.665 69.9088 63.7055C70.5404 63.746 71.3062 63.9249 71.8652 63.5797C72.7036 63.0655 72.3179 61.4836 72.202 60.7178C72.0622 59.7788 72.3417 58.2318 71.3873 57.6198C70.9289 57.3235 70.2805 57.2704 69.7565 57.3165C69.0131 57.3822 68.2766 57.4004 67.5332 57.4353C66.0547 57.5052 64.5064 57.5289 63.0266 57.4507C62.1015 57.4018 60.8187 57.3417 60.2527 56.4725C59.7133 55.6452 59.8544 54.2562 59.9047 53.3185C59.9732 52.0371 60.7055 51.4544 61.9617 51.4446C62.4955 51.4446 63.028 51.3426 63.5618 51.358C63.9642 51.3691 64.3527 51.4712 64.7538 51.4879C65.2037 51.5061 65.6467 51.439 66.0967 51.4614C66.8485 51.4977 67.5989 51.4879 68.3507 51.4879C69.1249 51.4879 70.1226 51.5871 70.6662 50.929C71.1623 50.3239 71.0114 49.199 71.017 48.4709C71.017 47.5696 71.4949 46.4 70.9806 45.5923C70.6704 45.1073 70.3308 45.0123 69.7844 45.0109C68.9698 45.0109 68.1607 45.1269 67.3488 45.1018C66.7143 45.0822 66.0911 44.9369 65.4595 44.9299C64.6783 44.9201 63.9027 45.0612 63.1216 45.0598C62.1029 45.0598 60.4805 45.0738 60.0473 43.9195C59.8265 43.327 59.8908 42.6325 59.895 42.0135C59.895 41.5286 59.895 41.0143 60.0962 40.5616C60.4483 39.7776 61.3161 39.6127 62.0903 39.5484C63.2432 39.452 64.3345 39.6463 65.4776 39.7175C66.1651 39.7609 66.8597 39.7022 67.5472 39.6882C68.1732 39.677 68.8174 39.7734 69.4407 39.7231C69.9298 39.6826 70.4971 39.5219 70.8185 39.1376C71.2881 38.5786 71.2573 38.0029 71.1902 37.3084C71.1192 36.624 71.1103 35.9346 71.1637 35.2486C71.2098 34.6687 71.2503 33.9979 70.7011 33.6402C70.3085 33.3845 69.8096 33.4152 69.3638 33.4362C68.598 33.493 67.8296 33.5065 67.0623 33.4767C65.7361 33.397 64.3974 33.3258 63.0783 33.446C61.9496 33.5393 60.8156 33.5496 59.6854 33.4767C58.1845 33.3887 56.6963 33.5466 55.1969 33.4935C54.5876 33.4725 53.8763 33.3398 53.3579 33.745C53.0097 34.0349 52.7715 34.4354 52.6829 34.8797C52.3671 36.2478 52.7863 37.6619 52.6829 39.0426C52.6173 39.9705 52.6382 40.9081 52.5907 41.8374C52.5746 42.5246 52.5956 43.2122 52.6536 43.8972C52.6913 44.5707 52.5991 45.2247 52.5474 45.8941C52.4845 46.7116 52.5236 47.55 52.525 48.3703C52.525 49.375 52.5376 50.3868 52.5725 51.3915C52.5949 52.0567 52.6829 52.6869 52.6117 53.3479C52.5812 53.6431 52.5667 53.9398 52.5683 54.2366C52.5683 55.8688 52.5544 57.5052 52.6159 59.1276C52.6396 59.7634 52.6899 60.3852 52.6662 61.0197C52.6466 61.696 52.6019 62.3486 52.9932 62.9243Z" fill="#2B3648"/>
<path d="M32.1236 36.0519C32.0607 37.6883 30.8338 39.1444 29.4224 39.8766C28.6832 40.2609 27.8769 40.4356 27.0538 40.2064C26.3747 40.0136 25.5879 39.5301 25.2106 38.9124C24.7383 38.1355 24.382 37.4926 24.2324 36.5773C24.1065 35.7071 24.3033 34.8209 24.7858 34.0858C25.5348 32.884 27.0859 32.2412 28.4596 32.4955C29.2911 32.6482 30.0731 33.0002 30.7388 33.5212C31.5828 34.2059 32.0244 34.9731 32.1236 36.0519Z" fill="#2B3648"/>
</g>
<defs>
<clipPath id="clip0_657_7217">
<rect width="72.3887" height="64" fill="white"/>
</clipPath>
</defs>
</svg>
