<svg width="267" height="64" viewBox="0 0 267 64" fill="none" xmlns="http://www.w3.org/2000/svg">
<g clip-path="url(#clip0_657_7227)">
<path d="M145.986 31.04H137.982V32.896H145.986V31.04Z" fill="black"/>
<path d="M4.86619 19.8402L4.16187 38.4002V38.7202C4.16187 40.3202 4.61007 40.6402 7.10719 40.7682V41.6002C5.25036 41.4722 4.54604 41.4082 3.58561 41.4082C2.56115 41.4082 1.85683 41.4722 0 41.6002V40.7682C2.49712 40.5762 2.88129 40.3202 2.94532 38.3362L3.71367 20.7362V20.5442C3.71367 18.8802 3.20144 18.5602 0.768346 18.3682V17.4722C2.17698 17.6002 2.68921 17.6002 3.71367 17.6002C5.05827 17.6002 5.76259 17.5362 7.10719 17.4082L13.7662 35.5202L20.4892 17.5362C22.0899 17.6642 22.8583 17.7282 23.9468 17.7282C24.8432 17.7282 25.4194 17.6642 26.764 17.6002V18.4962C24.3309 18.6242 23.8187 19.0082 23.8187 20.6082V20.8642L24.2029 38.4002C24.2669 40.3202 24.5871 40.6402 27.1482 40.8322V41.6642C24.9072 41.4722 24.0108 41.4082 22.6662 41.4082C21.3216 41.4082 20.4252 41.4722 18.1842 41.6642V40.8322C20.6173 40.7042 21.1295 40.3202 21.1295 38.5922V38.4002L20.8094 19.8402L14.9187 35.8402L14.4705 36.9922L13.9583 38.3362L13.5101 39.6802L13.1259 40.8322H12.6137L12.1655 39.7442L11.6532 38.3362L11.141 36.9282L10.6928 35.6482L4.86619 19.8402Z" fill="black"/>
<path d="M36.4324 40.7688C33.1669 40.7688 31.7582 38.2728 31.6942 32.7048H42.387C42.323 27.2008 40.082 24.2568 35.8561 24.2568C31.5662 24.2568 28.877 27.7128 28.877 33.2168C28.877 38.7208 31.5662 41.9848 36.1762 41.9848C39.6978 41.9848 42.0029 39.8088 42.4511 36.0968H40.9784C40.5302 39.1688 38.9935 40.7688 36.4324 40.7688ZM31.7582 31.4248C32.1424 27.3288 33.487 25.2168 35.7921 25.2168C38.0971 25.2168 39.3136 27.2008 39.5057 31.4248H31.7582Z" fill="black"/>
<path d="M44.5011 25.5999V24.9599C46.55 24.7679 47.7666 24.5759 49.2392 24.1279C49.4313 25.4719 49.4953 26.0479 49.5594 27.0719V27.4559C50.3277 25.4079 51.8644 24.2559 53.7212 24.2559C55.5141 24.2559 56.8587 25.4079 56.8587 27.1359C56.8587 28.1599 56.2184 28.8639 55.322 28.8639C54.4896 28.8639 53.8493 28.3519 53.8493 27.6479C53.8493 27.5839 53.9133 27.4559 53.9133 27.2639L53.9774 26.8799V26.5599C53.9774 26.0479 53.5292 25.7279 52.8889 25.7279C51.032 25.7279 49.8155 27.9679 49.8155 31.5519V39.0399C49.8155 40.5759 50.1997 40.8959 52.3766 40.9599V41.6639C50.3918 41.4719 49.6234 41.4719 48.4069 41.4719C47.1263 41.4719 46.3579 41.5359 44.373 41.6639V40.9599C46.55 40.8319 46.9342 40.5759 46.9342 39.0399V27.9039V27.3279C46.8702 25.7919 46.7421 25.5999 44.8853 25.5999H44.5011Z" fill="black"/>
<path d="M70.5607 23.9361V29.8241H69.7923C69.152 26.6881 67.8074 25.2161 65.6305 25.2161C62.9413 25.2161 61.3405 28.0961 61.3405 33.2161C61.3405 38.2081 62.7492 40.7681 65.5024 40.7681C67.7434 40.7681 69.024 39.1681 69.4722 36.0321H70.9449C70.4967 39.8721 68.4477 41.9201 65.1823 41.9201C61.0204 41.9201 58.2031 38.4001 58.2031 33.1521C58.2031 27.8401 61.0844 24.1921 65.3103 24.1921C66.847 24.1921 67.8074 24.5761 68.96 25.7281L69.9204 23.8721H70.5607V23.9361Z" fill="black"/>
<path d="M81.1238 40.7688C77.8583 40.7688 76.4497 38.2728 76.3856 32.7048H87.0784C87.0144 27.2008 84.7734 24.2568 80.5475 24.2568C76.2576 24.2568 73.5684 27.7128 73.5684 33.2168C73.5684 38.7208 76.2576 41.9848 80.8676 41.9848C84.3892 41.9848 86.6943 39.8088 87.1425 36.0968H85.7338C85.2216 39.1688 83.6209 40.7688 81.1238 40.7688ZM76.4497 31.4248C76.8338 27.3288 78.1784 25.2168 80.4835 25.2168C82.7885 25.2168 84.0051 27.2008 84.1971 31.4248H76.4497Z" fill="black"/>
<path d="M103.726 37.9523V17.2803C101.933 17.7283 100.333 18.0483 98.3476 18.2403V18.8803C100.589 18.8803 100.909 19.1363 100.909 20.9923V27.2643C99.5642 25.0883 98.5397 24.4483 96.6188 24.4483C92.7771 24.4483 90.0879 28.0323 90.0879 33.2163C90.0879 38.4003 92.8411 41.9843 96.7469 41.9843C98.7958 41.9843 100.204 41.0243 101.165 39.0403C101.293 40.3843 101.293 40.5123 101.677 41.9203C103.15 41.4723 103.726 41.3443 105.839 41.0883L106.351 41.0243V40.3843C103.918 40.3203 103.726 40.1283 103.726 37.9523ZM97.003 41.0243C94.4418 41.0243 93.0332 38.3363 93.0332 33.2163C93.0332 28.0323 94.3138 25.4723 96.8749 25.4723C99.5001 25.4723 100.909 28.2243 100.909 33.4723C100.909 38.4003 99.5642 41.0243 97.003 41.0243Z" fill="black"/>
<path d="M115.251 40.7688C111.985 40.7688 110.577 38.2728 110.513 32.7048H121.205C121.141 27.2008 118.9 24.2568 114.674 24.2568C110.385 24.2568 107.695 27.7128 107.695 33.2168C107.695 38.7208 110.385 41.9848 114.995 41.9848C118.516 41.9848 120.821 39.8088 121.269 36.0968H119.861C119.413 39.1688 117.812 40.7688 115.251 40.7688ZM110.641 31.4248C111.025 27.3288 112.369 25.2168 114.674 25.2168C116.979 25.2168 118.196 27.2008 118.388 31.4248H110.641Z" fill="black"/>
<path d="M124.279 41.9839V36.0319L125.048 35.9679C125.688 39.2319 127.225 40.8319 129.722 40.8319C131.835 40.8319 133.435 39.4239 133.435 37.6319C133.435 36.4159 132.731 35.5839 131.002 34.8159L129.658 34.2399L127.993 33.4719C125.368 32.2559 124.535 31.2319 124.535 29.1839C124.535 26.3679 126.776 24.4479 129.914 24.4479C131.322 24.4479 132.347 24.7679 133.563 25.5999L134.204 24.1279H134.844V29.6959H134.012C133.692 26.8159 132.539 25.4719 130.234 25.4719C128.313 25.4719 126.84 26.7519 126.84 28.4159C126.84 29.8239 127.353 30.3359 130.618 31.7439L132.091 32.3839C134.844 33.5359 135.804 34.6879 135.804 36.7999C135.804 39.8079 133.435 41.9839 130.042 41.9839C128.377 41.9839 127.097 41.5359 125.752 40.4479L124.92 42.0479H124.279V41.9839Z" fill="black"/>
<path d="M162.953 23.5525C162.953 21.6965 162.185 20.0325 160.776 19.0085C159.559 18.1125 158.151 17.7285 155.846 17.7285H146.434V18.5605C148.995 18.6885 149.379 19.0085 149.379 20.9285V38.2725C149.379 40.1925 149.123 40.4485 146.434 40.6405V41.6005H155.526C158.151 41.6005 159.624 41.2805 161.096 40.3205C162.889 39.1685 164.042 36.9925 164.042 34.7525C164.042 32.8325 163.209 31.0405 161.8 30.0165C161.032 29.4405 160.264 29.1205 158.983 28.8645C161.544 27.8405 162.953 26.0485 162.953 23.5525ZM152.324 18.8165H155.398C158.407 18.8165 159.752 20.2885 159.752 23.6165C159.752 25.2805 159.367 26.4325 158.599 27.3925C157.831 28.2885 156.87 28.5445 154.821 28.5445H152.388V18.8165H152.324ZM155.782 29.6325C157.703 29.6325 158.727 29.9525 159.559 30.7845C160.392 31.6165 160.84 33.1525 160.84 34.8805C160.84 38.4645 159.047 40.4485 155.846 40.4485H154.565C152.644 40.4485 152.324 40.1925 152.324 38.5925V29.6325H155.782Z" fill="black"/>
<path d="M174.544 40.7688C171.278 40.7688 169.87 38.2728 169.806 32.7048H180.498C180.434 27.2008 178.193 24.2568 173.967 24.2568C169.678 24.2568 166.988 27.7128 166.988 33.2168C166.988 38.7208 169.678 41.9848 174.288 41.9848C177.809 41.9848 180.114 39.8088 180.562 36.0968H179.154C178.642 39.1688 177.105 40.7688 174.544 40.7688ZM169.87 31.4248C170.254 27.3288 171.598 25.2168 173.903 25.2168C176.208 25.2168 177.425 27.2008 177.617 31.4248H169.87Z" fill="black"/>
<path d="M182.354 25.728V25.088C184.402 24.832 185.619 24.512 187.092 24C187.284 24.832 187.348 25.728 187.476 27.136C188.756 25.216 190.229 24.32 192.342 24.32C194.519 24.32 196.376 25.408 197.08 27.2C197.464 28.032 197.592 29.056 197.592 30.4V39.04C197.592 40.576 197.977 40.896 200.154 40.96V41.664C198.233 41.472 197.528 41.472 196.248 41.472C194.903 41.472 194.199 41.536 192.342 41.664V40.96C194.263 40.896 194.775 40.512 194.775 39.104V30.336C194.775 27.2 193.815 25.984 191.574 25.984C189.141 25.984 187.86 27.52 187.86 30.464V39.104C187.86 40.512 188.308 40.896 190.165 40.96V41.664C188.308 41.472 187.604 41.472 186.323 41.472C185.043 41.472 184.338 41.536 182.482 41.664V40.96C184.659 40.832 185.043 40.576 185.043 39.04V27.968V27.456C184.979 25.984 184.787 25.792 182.994 25.792C182.738 25.728 182.546 25.728 182.354 25.728Z" fill="black"/>
<path d="M201.498 41.6006L211.23 25.6006H206.812C204.507 25.6006 203.931 26.1126 202.651 29.3126H201.946L202.779 24.6406H215.072L205.34 40.6406H209.502C211.935 40.6406 212.959 39.6806 213.984 36.4166H214.752L213.856 41.6006H201.498Z" fill="black"/>
<path d="M228.263 36.7998L224.934 40.2558V41.5998H228.263V36.7998Z" fill="#00ADEF"/>
<path d="M235.307 22.5285L238.636 19.0725V17.7285H235.307V22.5285Z" fill="#00ADEF"/>
<path d="M235.307 41.5367V41.6007H238.636V41.5367V23.5527L235.307 27.0087V41.5367Z" fill="#00ADEF"/>
<path d="M264.823 22.4637L262.389 24.9597C263.222 26.3037 263.734 27.9678 263.734 29.6958C263.734 34.6238 259.7 38.6558 254.77 38.6558C249.84 38.6558 245.806 34.6238 245.806 29.6958C245.806 24.7678 249.84 20.7358 254.77 20.7358C256.435 20.7358 257.972 21.1838 259.316 22.0158L261.749 19.5197C260.533 18.6877 259.124 18.0477 257.587 17.6637C256.691 17.4717 255.731 17.3438 254.77 17.3438C253.81 17.3438 252.913 17.4717 252.017 17.6637C246.574 18.9437 242.477 23.8078 242.477 29.6958C242.477 35.3918 246.382 40.1918 251.633 41.5998C252.657 41.8558 253.682 42.0477 254.834 42.0477C255.923 42.0477 257.011 41.9198 258.036 41.5998C263.286 40.1918 267.192 35.3918 267.192 29.6958C267.128 26.9438 266.295 24.5117 264.823 22.4637Z" fill="#00ADEF"/>
</g>
<defs>
<clipPath id="clip0_657_7227">
<rect width="267" height="64" fill="white"/>
</clipPath>
</defs>
</svg>
