<?xml version="1.0" encoding="utf-8"?>
<!-- Generator: Adobe Illustrator 23.0.3, SVG Export Plug-In . SVG Version: 6.00 Build 0)  -->
<svg version="1.1" id="Ebene_2" xmlns="http://www.w3.org/2000/svg" xmlns:xlink="http://www.w3.org/1999/xlink" x="0px" y="0px"
	 viewBox="0 0 480 100" style="enable-background:new 0 0 480 100;" xml:space="preserve">
<style type="text/css">
	.st0{fill:#00ADEF;}
</style>
<g>
	<rect x="246.5" y="48.5" width="12.5" height="2.9"/>
	<path d="M38.6,31l-1.1,29v0.5c0,2.5,0.7,3,4.6,3.2v1.3c-2.9-0.2-4-0.3-5.5-0.3c-1.6,0-2.7,0.1-5.6,0.3v-1.3
		c3.9-0.3,4.5-0.7,4.6-3.8l1.2-27.5v-0.3c0-2.6-0.8-3.1-4.6-3.4v-1.4c2.2,0.2,3,0.2,4.6,0.2c2.1,0,3.2-0.1,5.3-0.3l10.4,28.3
		L63,27.4c2.5,0.2,3.7,0.3,5.4,0.3c1.4,0,2.3-0.1,4.4-0.2v1.4c-3.8,0.2-4.6,0.8-4.6,3.3v0.4L68.8,60c0.1,3,0.6,3.5,4.6,3.8v1.3
		c-3.5-0.3-4.9-0.4-7-0.4c-2.1,0-3.5,0.1-7,0.4v-1.3c3.8-0.2,4.6-0.8,4.6-3.5V60l-0.5-29l-9.2,25l-0.7,1.8l-0.8,2.1l-0.7,2.1
		l-0.6,1.8h-0.8L50,62.1l-0.8-2.2l-0.8-2.2l-0.7-2L38.6,31z"/>
	<path d="M87.9,63.7c-5.1,0-7.3-3.9-7.4-12.6h16.7c-0.1-8.6-3.6-13.2-10.2-13.2c-6.7,0-10.9,5.4-10.9,14c0,8.6,4.2,13.7,11.4,13.7
		c5.5,0,9.1-3.4,9.8-9.2H95C94.3,61.2,91.9,63.7,87.9,63.7 M80.6,49.1c0.6-6.4,2.7-9.7,6.3-9.7c3.6,0,5.5,3.1,5.8,9.7H80.6z"/>
	<path d="M100.5,40v-1c3.2-0.3,5.1-0.6,7.4-1.3c0.3,2.1,0.4,3,0.5,4.6v0.6c1.2-3.2,3.6-5,6.5-5c2.8,0,4.9,1.8,4.9,4.5
		c0,1.6-1,2.7-2.4,2.7c-1.3,0-2.3-0.8-2.3-1.9c0-0.1,0.1-0.3,0.1-0.6l0.1-0.6v-0.5c0-0.8-0.7-1.3-1.7-1.3c-2.9,0-4.8,3.5-4.8,9.1V61
		c0,2.4,0.6,2.9,4,3v1.1c-3.1-0.3-4.3-0.3-6.2-0.3c-2,0-3.2,0.1-6.3,0.3V64c3.4-0.2,4-0.6,4-3V43.6v-0.9c-0.1-2.4-0.3-2.7-3.2-2.7
		H100.5z"/>
	<path d="M141.2,37.4v9.2H140c-1-4.9-3.1-7.2-6.5-7.2c-4.2,0-6.7,4.5-6.7,12.5c0,7.8,2.2,11.8,6.5,11.8c3.5,0,5.5-2.5,6.2-7.4h2.3
		c-0.7,6-3.9,9.2-9,9.2c-6.5,0-10.9-5.5-10.9-13.7c0-8.3,4.5-14,11.1-14c2.4,0,3.9,0.6,5.7,2.4l1.5-2.9H141.2z"/>
	<path d="M157.7,63.7c-5.1,0-7.3-3.9-7.4-12.6H167c-0.1-8.6-3.6-13.2-10.2-13.2c-6.7,0-10.9,5.4-10.9,14c0,8.6,4.2,13.7,11.4,13.7
		c5.5,0,9.1-3.4,9.8-9.2h-2.2C164.1,61.2,161.6,63.7,157.7,63.7 M150.4,49.1c0.6-6.4,2.7-9.7,6.3-9.7c3.6,0,5.5,3.1,5.8,9.7H150.4z"
		/>
	<path d="M193,59.3V27c-2.8,0.7-5.3,1.2-8.4,1.5v1c3.5,0,4,0.4,4,3.3v9.8c-2.1-3.4-3.7-4.4-6.7-4.4c-6,0-10.2,5.6-10.2,13.7
		c0,8.1,4.3,13.7,10.4,13.7c3.2,0,5.4-1.5,6.9-4.6c0.2,2.1,0.2,2.3,0.8,4.5c2.3-0.7,3.2-0.9,6.5-1.3l0.8-0.1v-1
		C193.3,63,193,62.7,193,59.3 M182.5,64.1c-4,0-6.2-4.2-6.2-12.2c0-8.1,2-12.1,6-12.1c4.1,0,6.3,4.3,6.3,12.5
		C188.6,60,186.5,64.1,182.5,64.1"/>
	<path d="M211,63.7c-5.1,0-7.3-3.9-7.4-12.6h16.7c-0.1-8.6-3.6-13.2-10.2-13.2c-6.7,0-10.9,5.4-10.9,14c0,8.6,4.2,13.7,11.4,13.7
		c5.5,0,9.1-3.4,9.8-9.2h-2.2C217.5,61.2,215,63.7,211,63.7 M203.8,49.1c0.6-6.4,2.7-9.7,6.3-9.7c3.6,0,5.5,3.1,5.8,9.7H203.8z"/>
	<path d="M225.1,65.6v-9.3l1.2-0.1c1,5.1,3.4,7.6,7.3,7.6c3.3,0,5.8-2.2,5.8-5c0-1.9-1.1-3.2-3.8-4.4l-2.1-0.9l-2.6-1.2
		c-4.1-1.9-5.4-3.5-5.4-6.7c0-4.4,3.5-7.4,8.4-7.4c2.2,0,3.8,0.5,5.7,1.8l1-2.3h1v8.7h-1.3c-0.5-4.5-2.3-6.6-5.9-6.6
		c-3,0-5.3,2-5.3,4.6c0,2.2,0.8,3,5.9,5.2l2.3,1c4.3,1.8,5.8,3.6,5.8,6.9c0,4.7-3.7,8.1-9,8.1c-2.6,0-4.6-0.7-6.7-2.4l-1.3,2.5
		H225.1z"/>
	<path d="M285.5,36.8c0-2.9-1.2-5.5-3.4-7.1c-1.9-1.4-4.1-2-7.7-2h-14.7V29c4,0.2,4.6,0.7,4.6,3.7v27.1c0,3-0.4,3.4-4.6,3.7V65h14.2
		c4.1,0,6.4-0.5,8.7-2c2.8-1.8,4.6-5.2,4.6-8.7c0-3-1.3-5.8-3.5-7.4c-1.2-0.9-2.4-1.4-4.4-1.8C283.3,43.5,285.5,40.7,285.5,36.8
		 M268.9,29.4h4.8c4.7,0,6.8,2.3,6.8,7.5c0,2.6-0.6,4.4-1.8,5.9c-1.2,1.4-2.7,1.8-5.9,1.8h-3.8V29.4z M274.3,46.3
		c3,0,4.6,0.5,5.9,1.8c1.3,1.3,2,3.7,2,6.4c0,5.6-2.8,8.7-7.8,8.7h-2c-3,0-3.5-0.4-3.5-2.9v-14H274.3z"/>
	<path d="M303.6,63.7c-5.1,0-7.3-3.9-7.4-12.6h16.7c-0.1-8.6-3.6-13.2-10.2-13.2c-6.7,0-10.9,5.4-10.9,14c0,8.6,4.2,13.7,11.4,13.7
		c5.5,0,9.1-3.4,9.8-9.2h-2.2C310,61.2,307.6,63.7,303.6,63.7 M296.3,49.1c0.6-6.4,2.7-9.7,6.3-9.7c3.6,0,5.5,3.1,5.8,9.7H296.3z"/>
	<path d="M315.8,40.2v-1c3.2-0.4,5.1-0.9,7.4-1.7c0.3,1.3,0.4,2.7,0.6,4.9c2-3,4.3-4.4,7.6-4.4c3.4,0,6.3,1.7,7.4,4.5
		c0.6,1.3,0.8,2.9,0.8,5V61c0,2.4,0.6,2.9,4,3v1.1c-3-0.3-4.1-0.3-6.1-0.3c-2.1,0-3.2,0.1-6.1,0.3V64c3-0.1,3.8-0.7,3.8-2.9V47.4
		c0-4.9-1.5-6.8-5-6.8c-3.8,0-5.8,2.4-5.8,7v13.5c0,2.2,0.7,2.8,3.6,2.9v1.1c-2.9-0.3-4-0.3-6-0.3c-2,0-3.1,0.1-6,0.3V64
		c3.4-0.2,4-0.6,4-3V43.7v-0.8c-0.1-2.3-0.4-2.6-3.2-2.6C316.4,40.2,316.1,40.2,315.8,40.2"/>
	<path d="M345.7,65l15.2-25H354c-3.6,0-4.5,0.8-6.5,5.8h-1.1l1.3-7.3h19.2l-15.2,25h6.5c3.8,0,5.4-1.5,7-6.6h1.2L365,65H345.7z"/>
	<polygon class="st0" points="387.5,57.5 382.3,62.9 382.3,65 387.5,65 	"/>
	<polygon class="st0" points="398.5,35.2 403.7,29.8 403.7,27.7 398.5,27.7 	"/>
	<polygon class="st0" points="398.5,64.9 398.5,65 403.7,65 403.7,64.9 403.7,36.8 398.5,42.2 	"/>
	<path class="st0" d="M444.6,35.1l-3.8,3.9c1.3,2.1,2.1,4.7,2.1,7.4c0,7.7-6.3,14-14,14c-7.7,0-14-6.3-14-14c0-7.7,6.3-14,14-14
		c2.6,0,5,0.7,7.1,2l3.8-3.9c-1.9-1.3-4.1-2.3-6.5-2.9c-1.4-0.3-2.9-0.5-4.4-0.5c-1.5,0-2.9,0.2-4.3,0.5c-8.5,2-14.9,9.6-14.9,18.8
		c0,8.9,6.1,16.4,14.3,18.6c1.6,0.4,3.2,0.7,5,0.7c1.7,0,3.4-0.2,5-0.7c8.2-2.2,14.3-9.7,14.3-18.6
		C448.2,42.1,446.9,38.3,444.6,35.1"/>
</g>
</svg>
