<svg width="170" height="64" viewBox="0 0 170 64" fill="none" xmlns="http://www.w3.org/2000/svg">
<path fill-rule="evenodd" clip-rule="evenodd" d="M27.7484 16H27.0782C26.8711 16 26.492 16.18 26.3669 16.444L16.6633 35.644H16.5793L6.87181 16.444C6.7487 16.18 6.37158 16 6.16446 16H5.49228C5.30627 16.0118 5.12992 16.0889 4.9929 16.2182C4.85589 16.3475 4.76657 16.5212 4.73999 16.71L0.0112941 46.574C-0.0707742 47.154 0.304395 47.558 0.812436 47.558H5.74435C6.1625 47.558 6.49468 47.198 6.53963 46.842L8.37639 33.11H8.46237L15.5359 47.51C15.659 47.776 15.9951 47.998 16.2432 47.998H16.9975C17.2046 47.998 17.5837 47.778 17.7087 47.508L24.7353 33.108H24.8193L26.705 46.842C26.7406 47.0341 26.8378 47.2085 26.9811 47.3378C27.1244 47.4671 27.3057 47.5439 27.4963 47.556H32.4361C32.9382 47.556 33.3154 47.152 33.2313 46.57L28.5007 16.71C28.4752 16.5207 28.3862 16.3464 28.2489 16.2169C28.1117 16.0874 27.9348 16.0107 27.7484 16ZM45.8425 16.444H40.8207C40.4025 16.444 40.0254 16.844 40.0254 17.288V46.712C40.0254 47.156 40.4025 47.558 40.8187 47.558H45.8405C46.2567 47.558 46.6319 47.154 46.6319 46.71V17.288C46.6319 16.844 46.2567 16.444 45.8405 16.444H45.8425ZM77.6596 26.044C77.6596 20.756 73.5601 16.444 68.5383 16.444H56.0326C55.5715 16.444 55.2354 16.844 55.2354 17.288V46.712C55.2354 47.156 55.5715 47.558 56.0326 47.558H61.0095C61.4276 47.558 61.8028 47.154 61.8028 46.71V35.38H64.6889L70.2539 47.156C70.3379 47.336 70.5861 47.556 70.9241 47.556H76.4852C77.1965 47.556 77.4896 46.844 77.1965 46.268L71.4712 34.98C75.1057 33.42 77.6615 30.134 77.6615 26.04L77.6596 26.044ZM67.997 29.732H61.8028V22.8H67.997C69.7107 22.8 71.1781 24.312 71.1781 26.176C71.1781 28.046 69.7126 29.732 67.997 29.732ZM102.89 16.444H85.5713C85.1121 16.444 84.78 16.844 84.78 17.288V46.712C84.78 47.156 85.1121 47.558 85.5713 47.558H102.89C103.105 47.5533 103.31 47.4614 103.459 47.3025C103.609 47.1435 103.691 46.9305 103.687 46.71V41.866C103.689 41.7568 103.67 41.6483 103.631 41.5467C103.592 41.445 103.534 41.3523 103.46 41.2737C103.386 41.1951 103.297 41.1322 103.199 41.0887C103.102 41.0452 102.996 41.0218 102.89 41.02H91.3024V35.026H100.842C101.258 35.026 101.633 34.666 101.633 34.176V29.336C101.633 28.89 101.258 28.49 100.842 28.49H91.3024V22.98H102.89C103.351 22.98 103.687 22.58 103.687 22.132V17.288C103.689 17.179 103.67 17.0707 103.63 16.9693C103.591 16.8679 103.533 16.7753 103.459 16.697C103.385 16.6186 103.297 16.5559 103.199 16.5125C103.101 16.4691 102.996 16.4458 102.89 16.444ZM133.665 31.556H125.253C124.792 31.556 124.456 31.912 124.456 32.4V36.8C124.456 37.244 124.792 37.6 125.253 37.6H127.887V40.174C126.637 40.71 125.378 40.888 124.165 40.888C119.604 40.888 115.88 36.888 115.88 32.044C115.88 27.156 119.563 23.068 124.126 23.068C126.174 23.068 128.014 23.644 129.603 25.198C129.935 25.466 130.4 25.466 130.736 25.154L134.038 21.42C134.117 21.339 134.177 21.2418 134.216 21.135C134.254 21.0282 134.27 20.9141 134.262 20.8005C134.254 20.6869 134.223 20.5764 134.17 20.4763C134.117 20.3761 134.043 20.2888 133.954 20.22C131.115 17.6 127.266 16.04 123.749 16.04C115.425 16.04 108.732 23.156 108.732 32.044C108.732 40.934 115.427 47.956 123.751 47.956C129.818 47.956 134.126 45.07 134.126 45.07C134.318 44.8806 134.437 44.6274 134.463 44.356L134.418 32.4C134.418 31.956 134.085 31.556 133.663 31.556H133.665ZM154.942 16C146.575 16 139.922 23.156 139.922 32.044C139.922 40.934 146.575 48 154.94 48C163.304 48 170 40.934 170 32.044C170 23.156 163.306 16 154.94 16H154.942ZM154.94 40.888C150.382 40.888 146.616 36.888 146.616 32.044C146.616 27.156 150.382 23.11 154.94 23.11C159.542 23.11 163.304 27.156 163.304 32.044C163.304 36.884 159.542 40.888 154.94 40.888Z" fill="black"/>
</svg>
