<svg fill="none" height="50" viewBox="0 0 94 50" width="94" xmlns="http://www.w3.org/2000/svg"><path d="m4.04 15.4 17.94 26.49h3.29v-34.52h-3.99v26.25l-17.37-25.6-.44-.65h-1.88l-.03-.04v.04h-1.51v34.52h3.99zm47.51 12.68c6.07-3.68 8.45-6.84 8.45-11.29 0-6.11-4.13-10.06-10.5-10.06-2.3595.00007-4.6678.68773-6.6427 1.97887-1.9749 1.29113-3.5308 3.12983-4.4773 5.29113l-.6 1.34 3.61 1.66.61-1.29c.6184-1.4756 1.6574-2.7366 2.9875-3.6257 1.3302-.8891 2.8926-1.3671 4.4925-1.3743 4 0 6.45 2.28 6.45 6.11 0 2.46-1.07 4.64-6.37 7.9-9.46 5.8-11.55 8.39-11.8 14.6v2.6h22.13v-4h-18c.36-3.18 1.76-5.03 9.66-9.84zm30.95-8.64c-2.9893.1002-5.8689 1.1511-8.22 3 .62-7.44 3.9-11.8 9-11.8 1.1214-.0239 2.2363.177 3.2788.5909s1.9916 1.0325 2.7912 1.8191l1.14 1 2.59-3.05-1.14-1c-2.3672-2.15807-5.467-3.33435-8.67-3.29-8.07 0-13.08 7.07-13.08 18.45 0 12.79 6.34 17.35 12.27 17.35 7.54.02 11.54-5.96 11.54-11.87 0-8.27-6.19-11.2-11.5-11.2zm7.5 11.2c0 3.95-2.58 7.94-7.51 7.94-3.35 0-7.47-2.85-8.2-10.85 1.45-1.74 4.58-4.35 8.24-4.35 6.71.01 7.47 5.08 7.47 7.26zm-90 15.75h25.32v2.97h-25.32zm.09-46.39h25.23v2.97h-25.23z" fill="#000"/></svg>