<svg width="120" height="64" viewBox="0 0 120 64" fill="none" xmlns="http://www.w3.org/2000/svg">
<g clip-path="url(#clip0_657_7254)">
<path d="M5.15745 19.712L28.0596 53.6192H32.2596V9.4336H27.166V43.0336L4.99149 10.2656L4.42979 9.4336H2.02979L1.99149 9.3824V9.4336H0.0638298V53.6192H5.15745V19.712ZM65.8085 35.9424C73.5574 31.232 76.5957 27.1872 76.5957 21.4912C76.5957 13.6704 71.3234 8.6144 63.1915 8.6144C60.1794 8.61449 57.2326 9.4947 54.7114 11.1474C52.1903 12.8 50.204 15.1535 48.9957 17.92L48.2298 19.6352L52.8383 21.76L53.617 20.1088C54.4065 18.22 55.7328 16.606 57.4308 15.4679C59.129 14.3299 61.1235 13.718 63.166 13.7088C68.2723 13.7088 71.4 16.6272 71.4 21.5296C71.4 24.6784 70.034 27.4688 63.2681 31.6416C51.1915 39.0656 48.5234 42.3808 48.2043 50.3296V53.6576H76.4553V48.5376H53.4766C53.9362 44.4672 55.7234 42.0992 65.8085 35.9424ZM105.319 24.8832C101.503 25.0115 97.8269 26.3566 94.8255 28.7232C95.617 19.2 99.8043 13.6192 106.315 13.6192C107.746 13.5886 109.17 13.8458 110.501 14.3756C111.831 14.9053 113.043 15.6972 114.064 16.704L115.519 17.984L118.826 14.08L117.37 12.8C114.348 10.0377 110.391 8.53203 106.302 8.5888C96 8.5888 89.6043 17.6384 89.6043 32.2048C89.6043 48.576 97.6979 54.4128 105.268 54.4128C114.894 54.4384 120 46.784 120 39.2192C120 28.6336 112.098 24.8832 105.319 24.8832ZM114.894 39.2192C114.894 44.2752 111.6 49.3824 105.306 49.3824C101.03 49.3824 95.7702 45.7344 94.8383 35.4944C96.6894 33.2672 100.685 29.9264 105.357 29.9264C113.923 29.9392 114.894 36.4288 114.894 39.2192ZM0 59.3792H32.3234V63.1808H0V59.3792ZM0.114894 0H32.3234V3.8016H0.114894V0Z" fill="black"/>
</g>
<defs>
<clipPath id="clip0_657_7254">
<rect width="120" height="64" fill="white"/>
</clipPath>
</defs>
</svg>
