<svg height="112" viewBox="0 0 301 112" width="301" xmlns="http://www.w3.org/2000/svg"><g fill="#0c2b57" transform="matrix(1 0 0 -1 0 112)"><path d="m47 111c-2.5-.7-33.7-18.4-35.4-20.1-1.6-1.5 1.5-3.9 5-3.9 2.5 0 7.7 2.4 18.3 8.5l14.9 8.5 20.3-11.7c11.2-6.4 20.7-12.1 21.1-12.7 1.4-2 .9-46-.4-47.7-1.2-1.5-15-9.9-16.2-9.9-.3 0-.7 11.2-.8 25l-.3 25-11.7-6.7-11.8-6.7v-16.5c0-9.8-.4-16.1-.9-15.6-.5.6-7.1 11.5-14.7 24.3l-13.7 23.2-8.7 5c-4.8 2.8-9.2 5-9.8 5-1.9 0-2.2-3.4-2.2-28.3 0-22.2.2-25.5 1.8-28 .9-1.5 5.5-5 10.2-7.7l8.5-4.9.5 14.7.5 14.7 13.3-22.2c11-18.5 13.7-22.3 15.5-22.3 2.9 0 43.5 23.2 46.5 26.6 2.2 2.5 2.2 2.9 2.2 29.5 0 26.7 0 27-2.2 29.2-2.6 2.5-42.2 25.2-45.3 26-1.1.3-3.1.2-4.5-.3z"/><path d="m193 69.5c0-4.3-.1-4.5-3-4.5-2 0-3-.5-3-1.5s1-1.5 3-1.5h3v-12c0-10 .3-12 1.5-12 1.3 0 1.5 2 1.5 12v12h4.1c4.5 0 3.8 1.1 10.9-16.3 2.9-7.1 3.5-7.8 5.8-7.5 2.2.3 3.1 1.8 7.8 13.3l5.2 13-3 .3c-1.7.2-3.4 0-3.8-.5-.4-.4-1.8-3.9-3-7.8-1.2-3.8-2.6-7.4-3-7.8s-2 2.9-3.7 7.5l-2.9 8.3-7.2.3-7.2.3v4.4c0 3.3-.4 4.5-1.5 4.5s-1.5-1.2-1.5-4.5z"/><path d="m233 71c0-2.7.3-3 3-3s3 .3 3 3-.3 3-3 3-3-.3-3-3z"/><path d="m262 70c0-2.9-.4-4-1.5-4-1 0-1.5-1-1.5-3s.5-3 1.5-3c1.2 0 1.5-1.9 1.5-11v-11h3 3v11c0 9.1.3 11 1.5 11 1 0 1.5 1 1.5 3s-.5 3-1.5 3c-1.1 0-1.5 1.1-1.5 4 0 3.8-.2 4-3 4s-3-.2-3-4z"/><path d="m251.7 64.3c-1.1-1.1-1.7-1.3-1.7-.5 0 .7-1.3 1.2-3 1.2h-3v-13.5-13.5h3.5 3.5v9.3c0 7.8.3 9.7 1.8 11 1 1 2.4 1.7 3 1.7.7 0 1.2 1.4 1.2 3 0 3.5-2.5 4.1-5.3 1.3z"/><path d="m282 65.2c-7.9-3.5-11.1-12.5-7.2-20.1 3.6-7.2 12.2-9.8 18.5-5.6 2.4 1.5 2.7 1.6 2.7.1 0-1 .9-1.6 2.5-1.6h2.5v13.5 13.5h-2.5c-1.5 0-2.5-.6-2.5-1.5 0-1.2-.6-1.1-3.2.5-3.3 2-7.9 2.5-10.8 1.2zm10.7-7.4c3.4-3.2 3.2-9.9-.3-12.7-3.5-2.7-6.7-2.6-10 .3-2.2 1.8-2.8 3.2-2.7 6.1.2 7.4 7.9 11.1 13 6.3z"/><path d="m128 51.5c0-12.8.1-13.5 2-13.5s2 .7 2 9.8c0 8.5.3 10.1 2 12 3.1 3.3 9.2 3 11.9-.4 1.8-2.3 2.1-4.1 2.1-12 0-8.7.1-9.4 2-9.4 1.8 0 2 .7 2 7.8 0 9.6-1.3 14.5-4.7 17.2-3.1 2.4-9.9 2.7-13 .5-1.9-1.3-2.2-1.3-2.7 0-.3.8-1.2 1.5-2.1 1.5-1.3 0-1.5-2-1.5-13.5z"/><path d="m163.3 63c-4.6-2.8-6.6-7.2-6-13.3.8-8.3 8.1-13.4 16.5-11.6 3.6.7 9.2 5.4 9.2 7.6s-2 1.5-5-1.7c-4.8-5.2-13.6-3.8-16.9 2.7-.6 1.2-1.1 2.4-1.1 2.7s5.4.6 12 .6h12v2.8c0 3.7-3.3 8.8-6.9 10.7-4.1 2.1-9.9 1.9-13.8-.5zm13.3-2.8c2-1.5 4.4-5.2 4.4-6.6 0-.3-4.7-.6-10.5-.6s-10.5.3-10.5.6.5 1.5 1.1 2.7c1.9 3.7 5.2 5.7 9.4 5.7 2.3 0 4.9-.8 6.1-1.8z"/><path d="m233 51.5v-13.5h3 3v13.5 13.5h-3-3z"/></g></svg>