<svg width="172" height="64" viewBox="0 0 172 64" fill="none" xmlns="http://www.w3.org/2000/svg">
<g clip-path="url(#clip0_657_7256)">
<path d="M26.8571 0.571426C25.4286 0.971426 7.6 11.0857 6.62857 12.0571C5.71429 12.9143 7.48571 14.2857 9.48571 14.2857C10.9143 14.2857 13.8857 12.9143 19.9429 9.42857L28.4571 4.57143L40.0571 11.2571C46.4571 14.9143 51.8857 18.1714 52.1143 18.5143C52.9143 19.6571 52.6286 44.8 51.8857 45.7714C51.2 46.6286 43.3143 51.4286 42.6286 51.4286C42.4571 51.4286 42.2286 45.0286 42.1714 37.1429L42 22.8571L35.3143 26.6857L28.5714 30.5143V39.9429C28.5714 45.5429 28.3429 49.1429 28.0571 48.8571C27.7714 48.5143 24 42.2857 19.6571 34.9714L11.8286 21.7143L6.85714 18.8571C4.11429 17.2571 1.6 16 1.25714 16C0.171429 16 0 17.9429 0 32.1714C0 44.8571 0.114286 46.7429 1.02857 48.1714C1.54286 49.0286 4.17143 51.0286 6.85714 52.5714L11.7143 55.3714L12 46.9714L12.2857 38.5714L19.8857 51.2571C26.1714 61.8286 27.7143 64 28.7429 64C30.4 64 53.6 50.7429 55.3143 48.8C56.5714 47.3714 56.5714 47.1429 56.5714 31.9429C56.5714 16.6857 56.5714 16.5143 55.3143 15.2571C53.8286 13.8286 31.2 0.857138 29.4286 0.399995C28.8 0.228567 27.6571 0.285711 26.8571 0.571426Z" fill="#0C2B57"/>
<path d="M110.286 24.2861C110.286 26.7433 110.229 26.8576 108.572 26.8576C107.429 26.8576 106.857 27.1433 106.857 27.7147C106.857 28.2861 107.429 28.5718 108.572 28.5718H110.286V35.429C110.286 41.1433 110.457 42.2861 111.143 42.2861C111.886 42.2861 112 41.1433 112 35.429V28.5718H114.343C116.915 28.5718 116.515 27.9433 120.572 37.8861C122.229 41.9433 122.572 42.3433 123.886 42.1718C125.143 42.0004 125.657 41.1433 128.343 34.5718L131.315 27.1433L129.6 26.9718C128.629 26.8576 127.657 26.9718 127.429 27.2576C127.2 27.4861 126.4 29.4861 125.715 31.7147C125.029 33.8861 124.229 35.9433 124 36.1718C123.772 36.4004 122.857 34.5147 121.886 31.8861L120.229 27.1433L116.115 26.9718L112 26.8004V24.2861C112 22.4004 111.772 21.7147 111.143 21.7147C110.515 21.7147 110.286 22.4004 110.286 24.2861Z" fill="#0C2B57"/>
<path d="M133.143 23.4283C133.143 24.9711 133.314 25.1426 134.857 25.1426C136.4 25.1426 136.571 24.9711 136.571 23.4283C136.571 21.8854 136.4 21.714 134.857 21.714C133.314 21.714 133.143 21.8854 133.143 23.4283Z" fill="#0C2B57"/>
<path d="M149.714 24.0004C149.714 25.6576 149.486 26.2861 148.857 26.2861C148.286 26.2861 148 26.8576 148 28.0004C148 29.1433 148.286 29.7147 148.857 29.7147C149.543 29.7147 149.714 30.8004 149.714 36.0004V42.2861H151.429H153.143V36.0004C153.143 30.8004 153.314 29.7147 154 29.7147C154.571 29.7147 154.857 29.1433 154.857 28.0004C154.857 26.8576 154.571 26.2861 154 26.2861C153.371 26.2861 153.143 25.6576 153.143 24.0004C153.143 21.829 153.029 21.7147 151.429 21.7147C149.829 21.7147 149.714 21.829 149.714 24.0004Z" fill="#0C2B57"/>
<path d="M143.828 27.2576C143.199 27.8861 142.856 28.0004 142.856 27.5433C142.856 27.1433 142.113 26.8576 141.142 26.8576H139.428V34.5718V42.2861H141.428H143.428V36.9718C143.428 32.5147 143.599 31.429 144.456 30.6861C145.028 30.1147 145.828 29.7147 146.171 29.7147C146.571 29.7147 146.856 28.9147 146.856 28.0004C146.856 26.0004 145.428 25.6576 143.828 27.2576Z" fill="#0C2B57"/>
<path d="M161.143 26.7425C156.629 28.7425 154.8 33.8853 157.029 38.2282C159.086 42.3425 164 43.8282 167.6 41.4282C168.972 40.5711 169.143 40.5139 169.143 41.3711C169.143 41.9425 169.657 42.2853 170.572 42.2853H172V34.5711V26.8568H170.572C169.715 26.8568 169.143 27.1996 169.143 27.7139C169.143 28.3996 168.8 28.3425 167.314 27.4282C165.429 26.2853 162.8 25.9996 161.143 26.7425ZM167.257 30.9711C169.2 32.7996 169.086 36.6282 167.086 38.2282C165.086 39.7711 163.257 39.7139 161.372 38.0568C160.114 37.0282 159.772 36.2282 159.829 34.5711C159.943 30.3425 164.343 28.2282 167.257 30.9711Z" fill="#0C2B57"/>
<path d="M73.1426 34.5718C73.1426 41.8861 73.1997 42.2861 74.2854 42.2861C75.3711 42.2861 75.4283 41.8861 75.4283 36.6861C75.4283 31.829 75.5997 30.9147 76.5711 29.829C78.3426 27.9433 81.8283 28.1147 83.3711 30.0576C84.3997 31.3718 84.5712 32.4004 84.5712 36.9147C84.5712 41.8861 84.6283 42.2861 85.714 42.2861C86.7426 42.2861 86.8569 41.8861 86.8569 37.829C86.8569 32.3433 86.114 29.5433 84.1712 28.0004C82.3997 26.629 78.514 26.4576 76.7426 27.7147C75.6569 28.4576 75.4854 28.4576 75.1997 27.7147C75.0283 27.2576 74.514 26.8576 73.9997 26.8576C73.2569 26.8576 73.1426 28.0004 73.1426 34.5718Z" fill="#0C2B57"/>
<path d="M93.3141 27.9998C90.6855 29.5998 89.5427 32.1141 89.8855 35.5998C90.3427 40.3427 94.5141 43.2569 99.3141 42.2284C101.371 41.8284 104.571 39.1427 104.571 37.8855C104.571 36.6284 103.428 37.0284 101.714 38.8569C98.9712 41.8284 93.9427 41.0284 92.0569 37.3141C91.7141 36.6284 91.4284 35.9427 91.4284 35.7712C91.4284 35.5998 94.5141 35.4284 98.2855 35.4284H105.143V33.8284C105.143 31.7141 103.257 28.7998 101.2 27.7141C98.8569 26.5141 95.5427 26.6284 93.3141 27.9998ZM100.914 29.5998C102.057 30.4569 103.428 32.5712 103.428 33.3712C103.428 33.5427 100.743 33.7141 97.4284 33.7141C94.1141 33.7141 91.4284 33.5427 91.4284 33.3712C91.4284 33.1998 91.7141 32.5141 92.0569 31.8284C93.1427 29.7141 95.0284 28.5712 97.4284 28.5712C98.7427 28.5712 100.228 29.0284 100.914 29.5998Z" fill="#0C2B57"/>
<path d="M133.143 34.5718V42.2861H134.857H136.571V34.5718V26.8576H134.857H133.143V34.5718Z" fill="#0C2B57"/>
</g>
<defs>
<clipPath id="clip0_657_7256">
<rect width="172" height="64" fill="white"/>
</clipPath>
</defs>
</svg>
