<svg width="160" height="64" viewBox="0 0 160 64" fill="none" xmlns="http://www.w3.org/2000/svg">
<path d="M22.0595 50.6461C19.6563 51.0658 17.2088 51.1899 14.6785 51.5253L6.9578 29.1152V52.4871C4.55311 52.7368 2.35974 53.0723 0.0820312 53.4062V10.5928H6.49403L15.268 34.8851V10.5928H22.061V50.6461H22.0595ZM35.3489 26.271C37.9633 26.271 41.9707 26.1454 44.3754 26.1454V32.8358C41.3799 32.8358 37.8792 32.8358 35.3489 32.9613V42.9126C39.3133 42.6614 43.2793 42.3275 47.2867 42.2005V48.6396L28.5986 50.1024V10.5928H47.2867V17.2831H35.3489V26.271ZM72.3853 17.2831H65.3839V48.0546C63.1048 48.0546 60.8272 48.0546 58.6337 48.1387V17.2831H51.6322V10.5928H72.3867V17.2831H72.3853ZM83.3541 25.8115H92.5914V32.5019H83.3541V47.6778H76.7308V10.5928H95.5868V17.2831H83.3541V25.8115ZM106.555 41.8237C110.394 41.9094 114.275 42.2019 118.029 42.4088V49.0164C111.998 48.6396 105.965 48.2643 99.8063 48.1387V10.5928H106.556V41.8252L106.555 41.8237ZM123.724 49.4759C125.876 49.6015 128.154 49.7271 130.346 49.9782V10.5928H123.724V49.4759ZM159.918 10.5928L151.356 30.9548L159.918 53.4062C157.387 53.0723 154.857 52.6112 152.326 52.1932L147.475 39.8187L142.539 51.1899C140.092 50.7717 137.73 50.6476 135.284 50.3122L143.973 30.7037L136.127 10.5928H143.382L147.811 21.8384L152.537 10.5928H159.918Z" fill="#D81F26"/>
</svg>
