<svg width="240" height="64" viewBox="0 0 240 64" fill="none" xmlns="http://www.w3.org/2000/svg">
<path d="M5.061 46.76C4.5828 46.5607 4.38354 45.4051 4.18429 42.496C3.98504 39.3877 4.18429 34.8847 4.78205 29.1064C5.65876 20.4191 7.85053 18.5462 9.04604 18.1875C9.28514 18.1078 9.52424 18.1078 9.76335 18.1078C10.6799 18.1078 11.8754 18.5063 13.2303 19.3432C15.0634 20.4191 17.2552 22.2522 19.7259 24.8026C19.965 25.0417 20.1643 25.2808 20.4034 25.5199C17.5342 30.3816 14.5454 35.2433 11.9153 39.0689C10.122 41.699 8.60768 43.6517 7.29262 44.9667C6.13696 46.1622 5.57906 46.7998 5.18055 46.7998C5.18055 46.76 5.1407 46.76 5.061 46.76ZM47.422 52.0201C44.6324 48.872 41.285 44.6081 37.7782 40.0652C33.7533 34.8448 29.6088 29.4651 25.5441 24.9222C26.0223 24.0853 26.5404 23.2485 27.0186 22.4116C30.2066 17.0319 33.1555 13.0469 35.8654 10.6559C38.2165 8.58371 40.209 7.74686 41.8828 8.14536C44.6324 8.82281 51.2476 14.4416 53.0409 51.5419C53.2003 54.9292 53.1604 56.3638 52.6424 56.6029C52.6025 56.6029 52.5627 56.6427 52.483 56.6427C51.8852 56.6427 50.4107 55.3675 47.422 52.0201ZM33.1555 7.58746C30.1269 10.2574 26.8592 14.5612 23.4719 20.3394C23.1929 20.8176 22.914 21.2958 22.5952 21.8139C16.4184 15.5575 11.7559 13.1266 7.93023 14.2424C5.85801 14.8402 4.22414 16.4341 2.98878 18.9447C1.87297 21.2958 1.11581 24.4838 0.677456 28.7079C0.239102 33.1313 0 36.7576 0 39.7464V40.0253C0 41.4599 0.0398502 42.6953 0.159401 43.8111C0.398504 46.3615 1.03611 49.8682 3.74594 50.7449C6.29636 51.5818 8.68739 49.3502 9.48439 48.6329C10.9589 47.2382 12.6724 45.166 14.7048 42.2968C17.3748 38.511 20.3635 33.6095 23.3125 28.7079C27.0186 32.932 30.8044 37.8336 34.5104 42.6554C38.2962 47.5968 41.9226 52.2194 44.9512 55.5269C47.5415 58.3164 50.2115 60.827 52.7619 60.8668H52.8815C53.28 60.8668 53.7183 60.7871 54.1168 60.6277C57.1056 59.5119 57.3049 55.1284 57.1056 51.4224C56.4282 37.1163 54.9138 25.9184 52.6822 18.1477C51.5664 14.2424 50.2115 11.0943 48.6972 8.82281C47.0235 6.31226 45.0309 4.79797 42.8392 4.24007C42.2414 4.08067 41.6038 4.00096 41.0061 4.00096C38.5353 3.96111 35.8654 5.15661 33.1555 7.58746Z" fill="url(#paint0_linear_657_7718)"/>
<path d="M95.0809 45.844H89.7011L79.1806 28.5093V45.844H73.8008V19.5032H79.1806L89.7011 36.8778V19.5032H95.0809V45.844ZM131.026 19.5032H125.048L134.134 45.844H139.753L148.879 19.5032H142.862L136.924 39.3086L131.026 19.5032ZM165.696 45.844H171.673L162.587 19.5032H156.969L147.843 45.844H153.86L159.798 26.0386L165.696 45.844ZM191.798 19.5032H170.438V23.8867H178.368V45.844H183.748V23.8867H191.798V19.5032ZM211.603 30.183H201.242V23.8867H213.357V19.5032H195.823V45.844H213.397V41.5004H201.242V34.4469H211.603V30.183ZM117.397 33.371C117.397 36.1206 116.879 38.1928 115.923 39.6274C114.966 41.062 113.571 41.7793 111.738 41.7793C109.905 41.7793 108.471 41.0222 107.474 39.5477C106.478 38.0733 106 35.9612 106 33.2913V32.0161C106 29.2664 106.518 27.1942 107.474 25.7995C108.471 24.3649 109.865 23.6874 111.659 23.6874C113.492 23.6874 114.887 24.4047 115.883 25.8393C116.879 27.2739 117.357 29.386 117.357 32.1356V33.371H117.397ZM122.857 32.0958C122.857 29.5055 122.378 27.2341 121.462 25.2814C120.545 23.3288 119.23 21.8145 117.517 20.7385C115.803 19.6626 113.89 19.1445 111.699 19.1445C109.507 19.1445 107.554 19.6626 105.88 20.7385C104.167 21.7746 102.852 23.2889 101.935 25.2814C101.019 27.2739 100.54 29.5454 100.54 32.1356V33.4507C100.54 36.0011 101.019 38.2327 101.975 40.1853C102.892 42.1379 104.246 43.6124 105.92 44.6884C107.634 45.7245 109.547 46.2824 111.738 46.2824C113.93 46.2824 115.883 45.7643 117.596 44.6884C119.31 43.6124 120.585 42.138 121.502 40.1455C122.418 38.1928 122.857 35.9214 122.857 33.3311V32.0958ZM233.681 37.077C233.561 38.671 233.083 39.8665 232.286 40.6237C231.449 41.3808 230.214 41.7793 228.54 41.7793C226.707 41.7793 225.352 41.1018 224.475 39.7868C223.638 38.4718 223.2 36.3996 223.2 33.5304V31.5379C223.24 28.8281 223.678 26.7957 224.595 25.5205C225.471 24.2055 226.826 23.5679 228.62 23.5679C230.293 23.5679 231.489 23.9664 232.326 24.7235C233.123 25.4807 233.601 26.716 233.76 28.4296H239.14C238.861 25.4807 237.785 23.2092 235.952 21.5754C234.119 19.9415 231.688 19.1445 228.659 19.1445C226.468 19.1445 224.555 19.6626 222.921 20.6987C221.287 21.7348 220.012 23.2092 219.095 25.1619C218.219 27.0747 217.78 29.3063 217.78 31.8567V33.4507C217.78 37.4357 218.737 40.544 220.649 42.8154C222.562 45.0868 225.232 46.2425 228.58 46.2425C231.648 46.2425 234.119 45.4455 235.992 43.8116C237.865 42.1778 238.901 39.9462 239.1 37.1169H233.681V37.077Z" fill="black"/>
<defs>
<linearGradient id="paint0_linear_657_7718" x1="0" y1="32.4334" x2="57.161" y2="32.4334" gradientUnits="userSpaceOnUse">
<stop stop-color="#20AF9A"/>
<stop offset="1" stop-color="#36BBE8"/>
</linearGradient>
</defs>
</svg>
