<svg width="110" height="64" viewBox="0 0 110 64" fill="none" xmlns="http://www.w3.org/2000/svg">
<path fill-rule="evenodd" clip-rule="evenodd" d="M25.5975 57.7888C39.7349 57.7888 51.1951 46.2462 51.1951 32.0077C51.1951 17.7692 39.7349 6.22656 25.5975 6.22656C11.4603 6.22656 0 17.7692 0 32.0077C0 46.2462 11.4603 57.7888 25.5975 57.7888ZM25.5478 39.7673C29.987 39.7673 33.5856 36.3117 33.5856 32.0488C33.5856 27.786 29.987 24.3302 25.5478 24.3302C21.1087 24.3302 17.5101 27.786 17.5101 32.0488C17.5101 36.3117 21.1087 39.7673 25.5478 39.7673Z" fill="#3A77FF"/>
<path d="M56.5117 0.609375H71.45V63.1031H56.5117V0.609375Z" fill="#3A77FF"/>
<path d="M77.6113 37.637V47.4906H87.7597L93.1173 42.1185L98.4748 47.4906H108.917V37.9318L103.105 32.1039L108.917 26.2759V16.4258H98.7654L93.1173 22.0891L87.4691 16.4258H77.6113V26.5706L83.1297 32.1039L77.6113 37.637Z" fill="#3A77FF"/>
</svg>
