<svg fill="none" height="47" viewBox="0 0 81 47" width="81" xmlns="http://www.w3.org/2000/svg"><g fill="#3a77ff"><path clip-rule="evenodd" d="m18.8491 42.4388c10.4102 0 18.8491-8.4766 18.8491-18.933s-8.4389-18.93299-18.8491-18.93299c-10.41014 0-18.8491 8.47659-18.8491 18.93299s8.43896 18.933 18.8491 18.933zm-.0366-13.2345c3.2688 0 5.9187-2.5377 5.9187-5.6683 0-3.1305-2.6499-5.6683-5.9187-5.6683s-5.9187 2.5378-5.9187 5.6683c0 3.1306 2.6499 5.6683 5.9187 5.6683z" fill-rule="evenodd"/><path d="m41.6133.447449h11v45.893851h-11z"/><path d="m57.1501 27.6394v7.2362h7.4729l3.9451-3.9451 3.9451 3.9451h7.6893v-7.0197l-4.2799-4.2799 4.2799-4.2799v-7.2337h-7.4753l-4.1591 4.159-4.1591-4.159h-7.2589v7.4501l4.0635 4.0635z"/></g></svg>