<svg width="1148" height="549" viewBox="0 0 1148 549" fill="none" xmlns="http://www.w3.org/2000/svg">
<rect y="288.661" width="1147.53" height="259.449" rx="23.7347" fill="#2D427E"/>
<path d="M1031.35 163.519H836.721V174.773C836.721 195.47 826.588 205.814 806.352 205.814H739.72V174.773H793.568C800.877 174.773 804.609 171.185 804.609 164.04H764.829C748.1 164.04 739.72 156.323 739.72 140.848V94.4747C739.72 78.9078 748.151 71.1908 764.952 71.1908H811.52C828.321 71.1908 836.732 78.9078 836.732 94.4747V132.61H859.099V70.9965H890.539V132.61H919.043V70.9965H950.503V132.61H979.629V70.9965H1011.05V132.61H1025.38C1034.56 132.61 1039.15 127.918 1039.15 118.668V0H1071.21V132.61C1071.21 153.206 1060.59 163.509 1039.45 163.509H1031.36L1031.35 163.519ZM804.609 125.189V109.715C804.609 104.737 801.795 102.243 796.198 102.243H779.856C774.116 102.243 771.252 104.737 771.252 109.715V125.189C771.252 130.361 774.116 132.947 779.856 132.947H796.198C801.785 132.947 804.609 130.361 804.609 125.189ZM712.765 43.1233C712.765 47.4775 711.236 51.2696 708.198 54.3769C705.12 57.4432 701.388 58.9253 696.994 58.9253C692.601 58.9253 689.012 57.341 686.056 54.2338C683.048 51.1163 681.519 47.4264 681.519 43.1233C681.519 38.8202 683.048 35.069 686.056 31.9617C689.022 28.8443 692.723 27.3111 696.994 27.3111C701.266 27.3111 705.12 28.7932 708.198 31.9106C711.236 34.9259 712.765 38.6668 712.765 43.1233ZM676.83 43.1233C676.83 47.4366 675.3 51.1674 672.242 54.2338C669.133 57.3512 665.503 58.9253 661.181 58.9253C656.858 58.9253 653.229 57.341 650.12 54.2338C647.061 51.1674 645.583 47.4264 645.583 43.1233C645.583 38.8202 647.061 35.0281 650.12 31.9617C653.229 28.8443 656.899 27.3111 661.181 27.3111C665.463 27.3111 669.133 28.8443 672.242 31.9617C675.351 35.0792 676.83 38.7588 676.83 43.1233ZM726.905 162.415C726.905 183.256 719.647 205.242 705.069 219.807C690.562 234.372 672.864 241.65 652.026 241.65C631.188 241.65 613.511 234.362 598.984 219.807C586.006 206.826 578.819 191.249 577.412 173.29H609.025C610.096 182.582 614.327 190.973 621.738 198.394C630.383 207.164 640.374 211.518 651.629 211.518C662.883 211.518 673.465 207.296 681.998 198.721C690.501 190.288 694.803 175.917 694.803 164.132H655.288C638.396 164.132 629.945 156.415 629.945 140.94V94.6587C629.945 79.0918 638.406 71.3236 655.248 71.3236H701.623C718.444 71.3236 726.926 79.0815 726.926 94.7098V162.405L726.905 162.415ZM694.792 125.476V109.858C694.792 104.87 692.02 102.335 686.576 102.335H670.285C664.841 102.335 662.068 104.87 662.068 109.858V125.476C662.068 130.504 664.841 133.09 670.285 133.09H686.576C692.02 133.09 694.792 130.504 694.792 125.476ZM1119.55 163.519H1088.11V0H1119.55V163.519Z" fill="#77AD53"/>
<path d="M233.582 174.773C233.582 195.471 223.448 205.814 203.233 205.814H136.621V174.773H190.428C197.789 174.773 201.489 171.185 201.489 164.04H161.73C144.981 164.04 136.621 156.323 136.621 140.848V94.4747C136.621 78.9078 145.032 71.1908 161.853 71.1908H208.391C225.182 71.1908 233.572 78.9078 233.572 94.4747V132.61H249.434V71.2828H280.875V132.61H306.769V94.2805C306.769 78.7136 315.108 70.9966 331.858 70.9966H377.947C394.748 70.9966 403.159 78.7136 403.159 94.2805V132.61H420.55V70.9966H492.035C508.856 70.9966 517.266 78.7136 517.266 94.2294V132.61H519.56C528.756 132.61 533.374 127.919 533.374 118.668V0H565.415V132.61C565.415 152.347 555.669 162.65 536.249 163.509H233.582V174.762V174.773ZM201.489 125.189V109.715C201.489 104.737 198.645 102.243 193.058 102.243H176.717C171.028 102.243 168.163 104.737 168.163 109.715V125.189C168.163 130.361 171.028 132.947 176.717 132.947H193.058C198.645 132.947 201.489 130.361 201.489 125.189ZM300.305 42.878C300.305 47.1914 298.797 50.9221 295.789 54.0396C292.68 57.1059 288.979 58.6391 284.606 58.6391C280.232 58.6391 276.654 57.0548 273.636 53.9476C270.649 50.8301 269.171 47.1914 269.171 42.878C269.171 38.5646 270.649 34.8339 273.636 31.7675C276.644 28.6501 280.304 27.076 284.606 27.076C288.908 27.076 292.68 28.6603 295.789 31.6755C298.797 34.793 300.305 38.4727 300.305 42.8882M264.135 42.8882C264.135 47.2016 262.657 50.8403 259.598 53.9578C256.52 57.0753 252.911 58.6493 248.588 58.6493C244.266 58.6493 240.637 57.065 237.578 53.9578C234.52 50.8403 233.011 47.2016 233.011 42.8882C233.011 38.5749 234.52 34.8441 237.578 31.7778C240.637 28.6603 244.317 27.0862 248.588 27.0862C252.86 27.0862 256.52 28.6705 259.598 31.7778C262.657 34.8441 264.135 38.534 264.135 42.8882ZM370.526 42.2136C370.526 46.527 368.946 50.2168 365.887 53.3752C362.778 56.4927 359.128 58.0667 354.795 58.0667C350.463 58.0667 346.813 56.4824 343.755 53.3752C340.625 50.2168 339.075 46.527 339.075 42.2136C339.075 37.9003 340.625 34.1695 343.755 31.144C346.813 28.0777 350.493 26.4934 354.795 26.4934C359.098 26.4934 362.778 28.0777 365.887 31.144C368.946 34.1593 370.526 37.9003 370.526 42.2136ZM371.148 124.954V109.428C371.148 104.451 368.375 101.957 362.931 101.957H346.681C341.237 101.957 338.504 104.451 338.504 109.428V124.954C338.504 129.983 341.226 132.62 346.681 132.62H362.931C368.375 132.62 371.148 129.983 371.148 124.954ZM484.97 124.954V109.428C484.97 104.451 482.197 101.957 476.753 101.957H452.908V132.62H476.753C482.197 132.62 484.97 129.983 484.97 124.954ZM608.222 163.519H576.803V0H608.222V163.519Z" fill="#2853A2"/>
<path d="M46.0795 167.095C52.5225 161.31 60.3315 158.417 69.4965 158.417H122.07V98.4286C121.988 98.4286 121.897 98.4286 121.815 98.4286V93.594C121.815 79.2025 113.252 72.0783 96.0635 72.0783C74.3287 72.0783 39.2797 73.2742 30.8182 68.8484C30.8182 99.8493 35.0796 100.422 74.0942 100.422C83.5854 100.422 88.438 104.715 88.438 113.26V129.021H87.6122C87.6122 129.021 87.6122 129.031 87.6224 129.041H65.5715C47.2417 129.041 31.7357 134.642 19.0333 145.855C6.35122 157.047 0 170.948 0 187.527C0 204.106 6.35122 218.293 19.0333 230.098C31.7255 241.894 47.2315 247.791 65.5715 247.791H122.07V218.139H69.4965C60.2296 218.139 52.4001 215.247 46.0081 209.462C39.6161 203.676 36.415 196.593 36.415 188.212C36.415 179.83 39.6365 172.88 46.0795 167.095Z" fill="#2853A2"/>
<path d="M1022.97 355.346C1039.83 355.346 1057.24 357.709 1075.19 362.434V499.25L1034.79 500.904V469.713C1034.79 463.726 1035.97 456.716 1038.33 448.682L1037.62 448.21C1033.69 455.299 1028.57 460.34 1022.26 463.333C1015.96 466.168 1010.06 467.586 1004.54 467.586C992.255 467.586 982.33 463.254 974.769 454.59C967.207 445.768 963.427 432.535 963.427 414.892C963.427 403.077 964.923 392.365 967.916 382.756C970.909 373.146 974.532 366.924 978.786 364.088C983.354 361.095 989.577 358.89 997.453 357.472C1005.33 356.054 1013.84 355.346 1022.97 355.346ZM1021.56 434.741C1025.34 434.741 1029.75 434.032 1034.79 432.614V383.228C1032.9 382.913 1030.06 382.598 1026.28 382.283C1024.86 382.126 1022.74 382.047 1019.9 382.047C1013.76 382.047 1010.29 382.677 1009.5 383.937C1008.09 386.143 1006.98 390.16 1006.2 395.988C1005.41 401.502 1005.01 406.858 1005.01 412.057C1005.01 420.248 1006.35 426.077 1009.03 429.542C1011.71 433.008 1015.88 434.741 1021.56 434.741Z" fill="white"/>
<path d="M894.364 469.244C875.46 469.244 861.283 464.834 851.831 456.012C842.537 447.033 837.889 432.934 837.889 413.715C837.889 403.16 838.835 393.945 840.725 386.068C842.773 378.034 845.215 372.442 848.05 369.291C851.673 365.196 858.29 361.809 867.899 359.131C877.666 356.453 886.803 355.114 895.309 355.114C915.631 355.114 930.123 359.446 938.788 368.11C947.452 376.774 951.784 390.637 951.784 409.698C951.784 430.177 947.137 445.221 937.842 454.83C928.548 464.44 914.055 469.244 894.364 469.244ZM895.073 441.598C901.217 441.598 905.234 439.471 907.124 435.218C909.014 430.807 909.96 423.088 909.96 412.061C909.96 404.342 909.566 398.435 908.778 394.339C907.99 390.085 906.494 387.014 904.288 385.123C902.241 383.075 899.011 382.051 894.6 382.051C888.299 382.051 884.676 382.603 883.731 383.705C882.471 384.808 881.447 388.274 880.659 394.102C879.871 399.931 879.477 405.996 879.477 412.297C879.477 423.009 880.501 430.571 882.549 434.982C884.755 439.392 888.929 441.598 895.073 441.598Z" fill="white"/>
<path d="M769.062 469.244C750.158 469.244 735.981 464.833 726.529 456.012C717.235 447.033 712.587 432.934 712.587 413.715C712.587 403.16 713.533 393.945 715.423 386.068C717.471 378.034 719.913 372.442 722.748 369.291C726.371 365.195 732.988 361.809 742.597 359.131C752.364 356.453 761.501 355.113 770.007 355.113C790.329 355.113 804.822 359.446 813.486 368.11C822.15 376.774 826.482 390.637 826.482 409.698C826.482 430.177 821.835 445.221 812.541 454.83C803.246 464.44 788.753 469.244 769.062 469.244ZM769.771 441.598C775.915 441.598 779.932 439.471 781.822 435.218C783.712 430.807 784.658 423.088 784.658 412.061C784.658 404.342 784.264 398.434 783.476 394.339C782.689 390.085 781.192 387.013 778.987 385.123C776.939 383.075 773.709 382.051 769.298 382.051C762.997 382.051 759.374 382.603 758.429 383.705C757.169 384.808 756.145 388.274 755.357 394.102C754.569 399.931 754.175 405.996 754.175 412.297C754.175 423.009 755.199 430.571 757.247 434.981C759.453 439.392 763.627 441.598 769.771 441.598Z" fill="white"/>
<path d="M635.874 367.869C635.874 371.177 637.528 373.776 640.836 375.667C644.302 377.557 649.658 379.605 656.904 381.81C665.569 384.646 672.657 387.403 678.171 390.081C683.842 392.759 688.726 396.933 692.821 402.604C697.075 408.276 699.201 415.68 699.201 424.816C699.201 454.117 680.14 468.767 642.018 468.767C635.717 468.767 627.998 468.216 618.861 467.113C609.882 466.01 601.69 464.593 594.286 462.86C594.601 459.552 595.231 454.747 596.176 448.446C597.279 441.987 598.303 437.182 599.248 434.032C604.762 434.819 613.032 435.765 624.059 436.867C635.244 437.97 643.672 438.521 649.343 438.521C652.651 438.521 654.62 438.285 655.25 437.813C656.195 437.182 656.904 436.158 657.377 434.741C658.007 433.165 658.322 431.826 658.322 430.724C658.322 427.573 656.826 425.21 653.833 423.635C650.839 421.902 645.72 419.854 638.473 417.491C629.809 414.813 622.642 412.056 616.97 409.221C611.299 406.385 606.337 401.974 602.084 395.988C597.83 390.002 595.704 382.126 595.704 372.359C595.704 365.427 597.279 358.653 600.43 352.037C603.58 345.263 606.81 340.695 610.118 338.332C612.638 336.599 617.837 334.945 625.713 333.37C633.59 331.795 640.994 331.007 647.925 331.007C665.569 331.007 679.983 332.661 691.167 335.969C691.01 339.12 690.458 343.452 689.513 348.965C688.725 354.479 687.859 359.52 686.914 364.088L681.479 363.852C661 362.434 647.925 361.725 642.254 361.725C639.891 361.725 638.552 361.804 638.237 361.962C637.607 362.277 637.056 362.986 636.583 364.088C636.11 365.191 635.874 366.451 635.874 367.869Z" fill="white"/>
<path d="M572.077 364.329C573.495 366.062 574.519 370.394 575.149 377.325C575.937 384.257 576.331 394.811 576.331 408.989V466.173H535.924V409.462V399.774C535.924 394.733 535.53 391.582 534.743 390.322C533.483 388.746 530.568 387.959 526 387.959C523.794 387.959 522.14 388.038 521.038 388.195C516.627 388.353 512.058 389.377 507.332 391.267V466.173H466.926V357.477H499.771L504.261 375.671C515.603 361.966 529.15 355.114 544.903 355.114C550.575 355.114 555.852 355.901 560.735 357.477C565.776 359.052 569.557 361.336 572.077 364.329Z" fill="white"/>
<path d="M416.55 437.813C420.488 437.813 427.814 437.419 438.526 436.631C439.943 436.631 442.543 436.474 446.323 436.159L449.868 460.497C437.738 466.168 421.985 469.004 402.609 469.004C384.493 469.004 370.551 464.435 360.784 455.299C351.175 446.162 346.37 432.378 346.37 413.947C346.37 404.495 347.552 395.358 349.915 386.537C352.435 377.715 355.271 371.571 358.421 368.106C361.73 364.64 367.873 361.647 376.853 359.126C385.832 356.606 394.732 355.346 403.554 355.346C417.732 355.346 428.365 357.866 435.454 362.907C442.543 367.948 447.19 374.958 449.395 383.937C451.601 392.759 452.703 404.653 452.703 419.618C441.991 420.248 431.516 420.563 421.276 420.563H387.722C387.722 425.604 388.746 429.385 390.794 431.905C392.999 434.426 396.071 436.08 400.01 436.868C403.948 437.498 409.461 437.813 416.55 437.813ZM390.085 383.465C389.14 383.937 388.431 385.985 387.958 389.608C387.486 393.232 387.171 397.327 387.013 401.896H399.301C406.705 401.896 412.061 401.817 415.369 401.66C415.369 394.098 414.266 388.742 412.061 385.591C410.013 382.441 406.39 380.865 401.191 380.865C396.938 380.865 393.236 381.732 390.085 383.465Z" fill="white"/>
<path d="M297.686 355.114C309.028 355.114 318.007 358.894 324.624 366.456C331.397 373.86 334.784 386.856 334.784 405.445C334.784 419.307 333.445 430.65 330.767 439.471C328.089 448.135 325.017 453.885 321.552 456.721C318.086 459.556 312.021 461.841 303.357 463.573C294.85 465.306 286.029 466.173 276.892 466.173C274.214 466.173 269.724 466.015 263.423 465.7V499.254L223.016 500.908V357.477H256.098L260.115 374.254C264.211 368.425 269.409 363.778 275.71 360.312C282.169 356.847 289.494 355.114 297.686 355.114ZM288.234 437.345C289.967 436.084 291.227 432.54 292.015 426.711C292.802 420.725 293.196 415.054 293.196 409.698C293.196 400.876 292.094 394.339 289.888 390.085C287.683 385.832 283.272 383.705 276.656 383.705C271.93 383.705 267.519 384.178 263.423 385.123V437.581L270.039 438.29C272.087 438.447 275.002 438.526 278.782 438.526C284.138 438.526 287.289 438.132 288.234 437.345Z" fill="white"/>
<path d="M138.994 469.243C115.522 469.243 97.8783 463.729 86.0636 452.702C74.4063 441.518 68.5777 423.638 68.5777 399.063C68.5777 374.961 75.0364 357.396 87.9539 346.369C100.871 335.342 117.963 329.828 139.23 329.828C183.969 329.828 206.338 352.119 206.338 396.7C206.338 419.227 200.824 436.949 189.797 449.867C178.928 462.784 161.993 469.243 138.994 469.243ZM138.049 441.36C142.459 441.36 146.161 440.651 149.155 439.233C152.148 437.658 154.511 434.98 156.243 431.199C159.552 424.741 161.206 414.186 161.206 399.536C161.206 385.2 159.552 374.803 156.243 368.345C152.935 361.728 146.87 358.263 138.049 357.948C134.74 357.948 131.275 358.341 127.652 359.129C124.186 359.759 121.98 360.704 121.035 361.965C119.145 364.17 117.648 368.896 116.546 376.142C115.601 383.231 115.128 391.029 115.128 399.536C115.128 412.768 116.388 422.456 118.909 428.6C120.641 433.168 123.083 436.477 126.234 438.524C129.384 440.415 133.323 441.36 138.049 441.36Z" fill="white"/>
</svg>
