<svg width="178" height="64" viewBox="0 0 178 64" fill="none" xmlns="http://www.w3.org/2000/svg">
<g clip-path="url(#clip0_657_7680)">
<path d="M124.273 22.3367V14.7723C134.12 14.6238 134.518 14.4932 137.774 14.5771C142.777 14.7036 145.795 16.1343 147.965 18.3336C150.057 20.4534 151.715 23.6862 151.638 28.3783C151.593 31.0799 149.926 41.0185 137.855 41.6387C136.439 41.7651 133.19 41.6537 131.125 41.7019L133.166 33.941C137.949 34.3399 141.743 32.8294 141.945 28.2983C142.166 23.2116 137.661 21.5965 133.168 22.393L124.273 22.3367Z" fill="#3570BA"/>
<path d="M133.162 49.0173L124.273 49.0159V20.7246L133.162 20.7822V49.0173Z" fill="#3570BA"/>
<path d="M165.118 26.8332L172.413 29.4343C177.27 31.3533 178.302 35.2474 178.255 38.6012C178.148 46.38 171.947 49.2962 167.004 49.7172C161.384 50.1948 157.033 49.2525 155.571 49.0146V40.5492C160.019 41.9016 165.196 41.8478 166.944 41.1657C168.266 40.6497 169.271 39.8615 169.191 38.827C169.147 38.2657 169.091 37.5519 167.42 36.8367L160.692 34.3937C156.371 32.8366 154.704 28.7305 154.884 25.073C155.25 17.6833 161.148 13.9431 167.036 14.1593C168.853 14.2251 171.301 14.1825 174.86 14.6752V23.0619C170.872 22.1335 169.002 22.1487 166.944 22.4046C164.643 22.6892 163.609 23.8805 163.657 25.1531C163.681 25.7982 164.324 26.5053 165.118 26.8218" fill="#3570BA"/>
<path d="M40.342 27.5342H49.9135L49.9108 14.8047H58.8007V49.0235H49.9135V35.2858H40.342L40.3406 49.0235H31.4414V14.8047H40.3406L40.342 27.5342Z" fill="#3570BA"/>
<path d="M76.0749 14.8047H67.1797V49.0235H76.0749V14.8047Z" fill="#3570BA"/>
<path d="M115.815 14.8047H106.918V49.0235H115.815V14.8047Z" fill="#3570BA"/>
<path d="M93.3395 41.2523H102.511V49.0188L84.4414 49.0215V14.8027H93.3395V41.2523Z" fill="#3570BA"/>
<path d="M-0.25 22.3367V14.7723C9.59753 14.6238 9.99492 14.4932 13.2517 14.5771C18.2538 14.7036 21.2716 16.1343 23.4428 18.3336C25.5329 20.4534 27.1932 23.6862 27.1162 28.3783C27.0693 31.0799 25.4024 41.0185 13.3314 41.6387C11.9174 41.7651 8.76883 41.6537 6.7049 41.7019L8.6479 33.941C13.4315 34.3399 17.2232 32.8294 17.4208 28.2983C17.642 23.2116 13.1361 21.5965 8.64388 22.393L-0.25 22.3367Z" fill="#3570BA"/>
<path d="M8.65214 49.016L-0.25 49.0147V21.3105L8.64388 21.3671L8.65214 49.016Z" fill="#3570BA"/>
</g>
<defs>
<clipPath id="clip0_657_7680">
<rect width="178" height="64" fill="white"/>
</clipPath>
</defs>
</svg>
