<?xml version="1.0" encoding="utf-8"?>
<!-- Generator: Adobe Illustrator 28.0.0, SVG Export Plug-In . SVG Version: 6.00 Build 0)  -->
<svg version="1.1" id="Layer_1" xmlns="http://www.w3.org/2000/svg" xmlns:xlink="http://www.w3.org/1999/xlink" x="0px" y="0px"
	 viewBox="0 0 256 107" style="enable-background:new 0 0 256 107;" xml:space="preserve">
<style type="text/css">
	.st0{fill:#EBEAE9;}
</style>
<path class="st0" d="M40.1,21.2c-7.7-0.4-14.8,2.1-20.4,6.4c-1.9-3.7-5.6-6.3-11.2-6.3H2.3c-1.3,0-2.3,1-2.3,2.3v8.2
	c0,1.3,1,2.4,2.3,2.4c0,0,2-0.2,3.2,1c1.1,1.1,1.1,2.3,1.1,4.1V104c0,1.3,1,2.3,2.3,2.3h9.7c1.3,0,2.3-1,2.3-2.3V75.4
	c4.6,3.1,10,4.8,15.8,5.1c18.3,0.9,32.6-13.2,32.1-31C68.6,35.1,55.7,22,40.1,21.2L40.1,21.2z M54.8,52.3
	c-0.7,8.1-7.4,14.6-15.6,15.3c-10.5,0.8-19.3-7.7-18.4-18c0.7-8.1,7.4-14.6,15.6-15.3C46.9,33.4,55.7,42,54.8,52.3L54.8,52.3z"/>
<path class="st0" d="M186.3,66.3c-1.1-1-1.1-2-1.1-4V4.1c0-1.3-1-2.3-2.3-2.3h-9.7c-1.3,0-2.3,1-2.3,2.3v63.8
	c0,6.8,4.2,12.4,12.6,12.4h6.1c1.3,0,2.3-1,2.3-2.3v-7.4c0-1.3-0.4-3-2.3-3.2C189.5,67.4,187.4,67.4,186.3,66.3L186.3,66.3z"/>
<path class="st0" d="M147.2,21.5h-6.1c-1.3,0-2.3,1-2.3,2.3V32c0,1.3,1,2.3,2.3,2.3c0,0,2.1,0,3.2,1.1c1.1,1.1,1.1,2.2,1.1,4V78
	c0,1.3,1,2.3,2.3,2.3h9.7c1.3,0,2.3-1,2.3-2.3V33.9C159.8,27,155.6,21.5,147.2,21.5L147.2,21.5z"/>
<path class="st0" d="M256,49.4c-0.8-15.1-13.3-27.3-28.7-28.1c-18-0.9-32.8,13.6-31.9,31.2c0.8,15.1,13.3,27.3,28.7,28.1
	C242.1,81.5,256.9,67,256,49.4L256,49.4z M242.4,52.2c-0.7,8-7.3,14.5-15.5,15.1c-10.4,0.8-19.1-7.7-18.2-17.8
	c0.7-8,7.3-14.5,15.5-15.1C234.6,33.6,243.3,42.1,242.4,52.2z"/>
<path class="st0" d="M148.1,15.9c5.6,0.9,10.4-3.8,9.4-9.2c-0.6-3.3-3.3-6-6.7-6.5c-5.6-0.9-10.4,3.8-9.4,9.2
	C142,12.6,144.8,15.3,148.1,15.9L148.1,15.9z"/>
<path class="st0" d="M116.7,23.1c-2.9-1.1-6-1.7-9.3-1.8c-11.1-0.3-17.5,5.2-17.5,5.2V4.2c0-1.3-1-2.3-2.3-2.3h-9.7
	c-1.3,0-2.3,1-2.3,2.3V78c0,1.3,1,2.3,2.3,2.3h9.7c1.3,0,2.3-1,2.3-2.3V47.2c0-4.2,2.2-8.1,5.9-10.3c11.5-6.8,23.4,1.1,23.4,11.8V78
	c0,1.3,1,2.3,2.3,2.3h9.7c1.3,0,2.3-1,2.3-2.3V50.1C133.5,37.2,127.7,27.5,116.7,23.1L116.7,23.1z"/>
</svg>
