<svg height="159.842" viewBox="0 0 800 159.842" width="800" xmlns="http://www.w3.org/2000/svg"><g fill="#0081c4"><path d="m558.091 36.654v-33.868c44.129-.665 45.915-1.25 60.505-.874 22.425.566 35.949 6.972 45.674 16.819 9.374 9.491 16.808 23.965 16.463 44.973-.203 12.096-7.674 56.594-61.773 59.371-6.344.566-20.909.067-30.16.283l9.146-34.748c21.433 1.786 38.438-4.977 39.343-25.264.991-22.775-19.197-30.006-39.337-26.44z"/><path d="m597.927 156.111-39.836-.006v-126.669l39.836.258z"/><path d="m741.115 56.787 32.697 11.646c21.766 8.592 26.391 26.027 26.182 41.043-.48 34.828-28.27 47.885-50.423 49.77-25.189 2.138-44.688-2.081-51.242-3.146v-37.902c19.937 6.055 43.137 5.814 50.971 2.76 5.926-2.31 10.428-5.839 10.07-10.471-.197-2.513-.449-5.709-7.939-8.911l-30.153-10.938c-19.363-6.972-26.834-25.356-26.027-41.732 1.639-33.086 28.072-49.832 54.463-48.864 8.142.295 19.111.104 35.063 2.31v37.55c-17.873-4.157-26.255-4.089-35.476-2.943-10.315 1.274-14.947 6.608-14.731 12.306.104 2.888 2.987 6.054 6.547 7.471"/><path d="m181.926 59.922h42.897l-.012-56.994h39.842v153.208h-39.83v-61.508h-42.897l-.006 61.508h-39.884v-153.208h39.884z"/><path d="m302.17801 2.928h39.866001v153.20799h-39.866001z"/><path d="m480.311 2.928h39.873001v153.20799h-39.873001z"/><path d="m419.437 121.351h41.105v34.773l-80.984.012v-153.208h39.879z"/><path d="m0 36.654v-33.868c44.134-.665 45.915-1.25 60.511-.874 22.418.566 35.943 6.972 45.674 16.819 9.367 9.491 16.808 23.965 16.463 44.973-.21 12.096-7.681 56.594-61.78 59.371-6.337.566-20.448.067-29.698.283l8.708-34.748c21.439 1.786 38.432-4.977 39.318-25.264.991-22.775-19.203-30.006-39.336-26.44z"/><path d="m39.897 156.111-39.897-.006v-124.04l39.86.253z"/></g></svg>