<svg width="868" height="384" viewBox="0 0 868 384" fill="none" xmlns="http://www.w3.org/2000/svg">
<path d="M861.378 142.098C851.445 165.705 830.396 176.092 807.692 176.092C776.001 176.092 754.007 156.498 754.007 124.157C754.007 107.633 758.027 92.0525 766.068 79.7771C777.184 62.0722 795.394 50.9772 820.463 50.9772C854.283 50.9772 868 72.9312 868 97.7181C868 105.508 866.344 112.826 863.506 120.38H791.137V121.561C791.137 137.377 796.813 147.292 810.057 147.292C820.936 147.292 827.322 141.626 830.869 131.712L861.378 142.098ZM797.286 92.5247C795.867 95.3575 794.448 98.4263 793.502 101.967H830.869C831.815 100.079 832.525 97.4821 832.525 94.8853C832.525 86.1509 828.268 78.3608 817.389 78.3608C808.875 78.3608 802.016 84.0263 797.286 92.5247Z" fill="#0D0B9D"/>
<path d="M667.415 145.873C679.476 145.873 688.227 135.486 691.301 119.197C693.193 109.519 694.612 101.02 694.612 97.4793C694.612 87.5646 688.7 79.3023 676.875 79.3023C667.651 79.3023 660.556 85.2039 655.59 94.4105C651.569 102.201 649.441 112.351 649.441 123.683C649.441 137.61 655.826 145.873 667.415 145.873ZM650.623 176.089C625.318 176.089 609.472 156.024 609.472 127.224C609.472 107.866 614.439 90.1613 623.189 76.7056C633.359 60.6531 648.968 50.9744 667.178 50.9744C684.206 50.9744 696.268 60.6531 699.579 71.9842L711.877 2.81708H750.663L726.776 138.555C726.54 139.971 726.303 141.387 726.303 142.568C726.303 146.109 727.723 148.469 731.98 148.469C734.108 148.469 736 147.997 738.602 147.053L734.345 170.896C729.615 173.492 722.283 175.145 714.715 175.145C698.16 175.145 688.227 165.938 688.227 152.483V149.65C680.895 167.119 666.942 176.089 650.623 176.089Z" fill="#0D0B9D"/>
<path d="M544.566 50.9772C575.784 50.9772 598.015 70.0985 598.015 102.675C598.015 119.436 593.995 135.016 585.954 147.292C574.838 164.997 556.864 176.092 532.031 176.092C500.577 176.092 478.582 156.971 478.582 124.157C478.582 107.397 482.603 91.8165 490.407 79.5411C501.759 62.0722 519.497 50.9772 544.566 50.9772ZM533.687 147.528C542.91 147.528 548.823 141.626 553.317 133.364C557.81 124.866 559.939 113.062 559.939 103.384C559.939 89.2198 554.736 79.305 542.674 79.305C533.687 79.305 527.538 85.4427 523.044 93.705C518.787 102.203 516.659 114.007 516.659 123.685C516.659 137.849 521.625 147.528 533.687 147.528Z" fill="#0D0B9D"/>
<path d="M424.292 50.9772C455.037 50.9772 470.883 69.3903 470.883 95.1214L437.063 99.6067C437.536 88.5116 433.279 79.305 422.637 79.305C413.413 79.305 407.264 85.4427 402.771 93.705C398.514 102.203 396.385 114.007 396.385 123.685C396.385 137.849 401.825 147.528 413.886 147.528C424.529 147.528 429.968 138.321 432.806 128.407L465.443 138.794C456.456 164.761 437.3 176.092 411.758 176.092C380.303 176.092 358.309 156.971 358.309 124.157C358.309 107.397 362.329 91.8165 370.134 79.5411C381.486 62.0722 399.46 50.9772 424.292 50.9772Z" fill="#0D0B9D"/>
<path d="M290.292 82.846C279.177 82.846 269.244 91.1083 265.696 111.174L254.817 173.259H215.795L236.843 53.8099H270.19L270.899 76.9444C279.177 60.6558 293.603 50.9772 311.104 50.9772C330.734 50.9772 342.796 61.6001 342.796 80.7214C342.796 83.7903 342.559 87.0952 341.85 90.6362L333.336 138.557C333.099 139.974 332.863 141.39 332.863 142.571C332.863 146.112 334.518 148.472 338.539 148.472C340.667 148.472 342.559 148 345.161 147.056L341.14 170.898C336.41 173.495 328.369 175.148 320.801 175.148C302.59 175.148 293.367 164.997 293.367 149.18C293.367 146.584 293.603 143.751 294.076 140.918L301.171 101.023C301.644 98.1902 301.881 96.0657 301.881 94.1771C301.881 87.3312 298.57 82.846 290.292 82.846Z" fill="#0D0B9D"/>
<path d="M167.816 53.8052H206.839L191.939 138.553C191.703 139.969 191.466 141.385 191.466 142.566C191.466 146.107 192.885 148.467 196.906 148.467C199.034 148.467 201.163 147.995 203.764 147.051L199.507 170.894C194.777 173.49 186.736 175.143 179.168 175.143C161.194 175.143 151.734 164.992 151.734 149.176C151.734 146.579 151.971 143.746 152.444 140.913L167.816 53.8052Z" fill="#0D0B9D"/>
<path d="M173.688 20.0669C175.415 8.98423 185.926 0 197.143 0C208.339 0 216.036 8.96808 214.312 20.0308C212.588 31.0935 202.114 40.0616 190.917 40.0616H170.572L173.688 20.0669Z" fill="#0D0B9D"/>
<path d="M82.5388 81.4296C70.2407 81.4296 61.4902 92.0526 58.4157 108.105C56.5237 117.784 55.3412 126.282 55.3412 129.823C55.3412 139.738 61.2537 148 72.8422 148C82.0658 148 89.1608 142.098 94.3638 132.892C98.3843 125.338 100.513 114.951 100.513 103.856C100.513 89.6919 94.1273 81.4296 82.5388 81.4296ZM63.6187 76.4722C70.9502 60.6558 84.6673 50.9772 100.276 50.9772C125.345 50.9772 140.481 71.0427 140.481 99.8427C140.481 119.2 135.515 136.905 126.764 150.361C116.595 166.413 100.986 176.092 82.7753 176.092C65.5107 176.092 53.6857 166.413 50.3747 155.082L39.0226 220H0L29.3261 53.8099H62.6727L63.6187 76.4722Z" fill="#0D0B9D"/>
<path d="M48 381.652V278.152H93.8841C120.552 278.152 132.317 286.761 132.317 304.565C132.317 318.065 124.081 325.696 109.963 328.826V330.391C129.376 332.152 137.219 338.804 137.219 353.478C137.219 370.109 126.238 381.652 98.198 381.652H48ZM69.7656 337.63V365.804H97.6098C109.963 365.804 115.65 360.326 115.65 351.717C115.65 342.913 110.944 337.63 96.6293 337.63H69.7656ZM69.7656 294.587V322.957H93.492C104.669 322.957 111.532 319.043 111.532 308.283C111.532 298.891 106.826 294.587 94.4724 294.587H69.7656Z" fill="#0D0B9D"/>
<path d="M200.002 365.217C218.826 365.217 224.317 355.63 224.317 340.565V278.152H246.082V341.935C246.082 369.13 229.807 383.804 200.002 383.804C169.609 383.804 152.745 369.326 152.745 341.935V278.152H174.511V339.978C174.511 355.043 180.393 365.217 200.002 365.217Z" fill="#0D0B9D"/>
<path d="M309.989 384C276.655 383.609 264.497 369.326 261.752 350.348L282.537 346.043C285.283 359.935 294.695 366.783 310.774 366.783C325.48 366.783 331.951 362.087 331.951 354.065C331.951 346.043 326.068 341.348 304.891 338.217C274.89 333.522 265.674 322.37 265.674 306.13C265.674 287.348 279.596 276 307.832 276C336.069 276 347.638 288.326 351.167 306.326L329.598 310.435C326.657 298.696 321.558 292.63 306.852 292.63C293.518 292.63 287.047 297.13 287.047 304.957C287.047 312 291.165 316.891 313.519 320.804C346.265 326.283 353.913 338.022 353.913 352.696C353.913 372.065 340.775 384 309.989 384Z" fill="#0D0B9D"/>
<path d="M392.618 278.152V381.652H370.853V278.152H392.618Z" fill="#0D0B9D"/>
<path d="M510.202 381.652H481.378L454.514 336.261C448.827 326.283 441.768 310.043 436.474 297.522L432.748 297.913C433.925 312.587 434.709 334.5 434.709 347.413V381.652H414.512V278.152H445.69L469.22 317.283C476.476 330 483.731 346.826 488.437 358.761L491.966 358.565C490.986 343.891 490.202 325.696 490.202 312.978V278.152H510.202V381.652Z" fill="#0D0B9D"/>
<path d="M611.302 381.652H532.279V278.152H611.498V296.543H554.045V321.391H606.203V337.043H554.045V363.261H611.302V381.652Z" fill="#0D0B9D"/>
<path d="M673.055 384C639.72 383.609 627.563 369.326 624.818 350.348L645.603 346.043C648.348 359.935 657.76 366.783 673.839 366.783C688.546 366.783 695.017 362.087 695.017 354.065C695.017 346.043 689.134 341.348 667.957 338.217C637.956 333.522 628.74 322.37 628.74 306.13C628.74 287.348 642.662 276 670.898 276C699.134 276 710.703 288.326 714.233 306.326L692.664 310.435C689.722 298.696 684.624 292.63 669.918 292.63C656.584 292.63 650.113 297.13 650.113 304.957C650.113 312 654.231 316.891 676.585 320.804C709.331 326.283 716.978 338.022 716.978 352.696C716.978 372.065 703.84 384 673.055 384Z" fill="#0D0B9D"/>
<path d="M776.077 384C742.742 383.609 730.585 369.326 727.84 350.348L748.625 346.043C751.37 359.935 760.782 366.783 776.861 366.783C791.568 366.783 798.038 362.087 798.038 354.065C798.038 346.043 792.156 341.348 770.979 338.217C740.977 333.522 731.761 322.37 731.761 306.13C731.761 287.348 745.683 276 773.92 276C802.156 276 813.725 288.326 817.255 306.326L795.685 310.435C792.744 298.696 787.646 292.63 772.939 292.63C759.605 292.63 753.135 297.13 753.135 304.957C753.135 312 757.253 316.891 779.606 320.804C812.353 326.283 820 338.022 820 352.696C820 372.065 806.862 384 776.077 384Z" fill="#0D0B9D"/>
</svg>
