<svg width="427" height="64" viewBox="0 0 427 64" fill="none" xmlns="http://www.w3.org/2000/svg">
<g clip-path="url(#clip0_657_7283)">
<path d="M75.7234 28.6457C73.0796 28.6063 70.1201 29.1982 68.0287 31.0132V29.0798H62.8594V61.6716H68.5811V51.9257C70.2385 53.7012 72.3693 54.0958 75.0526 54.0958C84.602 54.0958 85.6674 47.388 85.6674 41.43C85.6674 35.4719 84.5231 28.7641 75.7234 28.6457ZM74.8159 49.0453C69.9228 49.0453 68.5417 47.5853 68.5417 41.43C68.5417 35.2746 69.9228 33.6963 74.8159 33.6963C79.7089 33.6963 79.9851 35.6692 79.9851 41.43C79.9851 47.1908 79.0776 49.0453 74.8159 49.0453ZM99.4391 28.6457C95.4536 28.6457 92.4546 29.356 90.3632 31.4078C88.1929 33.4596 87.7194 36.6556 87.7194 41.3511C87.7194 46.0465 88.1534 49.2425 90.3632 51.2943C92.4941 53.3461 95.4536 54.0564 99.4391 54.0564C103.425 54.0564 106.424 53.3461 108.515 51.2943C110.685 49.2425 111.119 46.0465 111.119 41.3511C111.119 36.6556 110.685 33.4596 108.515 31.4078C106.384 29.356 103.346 28.6457 99.3996 28.6457H99.4391ZM99.4391 49.0453C93.9146 49.0453 93.4411 46.9146 93.4411 41.3511C93.4411 35.7876 93.9541 33.6568 99.4391 33.6568C104.924 33.6568 105.437 35.7876 105.437 41.3511C105.437 46.9146 104.924 49.0453 99.4391 49.0453ZM167.469 28.6457C157.564 28.6457 156.144 34.2882 156.144 41.6667C156.144 49.0453 157.722 54.0958 167.626 54.0958C177.531 54.0958 178.439 52.9515 178.439 46.3227H172.914C172.875 49.0847 169.915 49.4004 167.824 49.4004C162.931 49.4004 161.865 47.7432 161.865 43.5607H178.754C178.754 34.9589 178.241 28.6457 167.508 28.6457H167.469ZM161.944 38.8652C161.944 35.5903 162.457 33.3017 167.469 33.3017C172.48 33.3017 173.072 35.3141 173.072 38.8652H161.944ZM193.157 28.6457C189.685 28.6457 187.436 29.7506 186.054 31.0132V29.0798H181.122V53.7012H186.844V42.2191C186.844 37.9183 186.37 33.6963 192.565 33.6963C198.761 33.6963 197.064 35.9848 197.064 40.7197V53.7012H202.786V40.2462C202.786 34.88 203.18 28.6457 193.236 28.6457H193.157ZM146.713 49.4398C143.95 49.4004 143.595 47.9799 143.595 46.1254V34.012H154.841V29.0798H143.595V21.1094H137.873V29.0798H134.559V34.012H137.873V46.1254C137.873 51.61 141.149 54.0958 146.87 54.0958C152.592 54.0958 154.881 52.2413 154.881 46.3227H149.712C149.672 47.901 149.277 49.5187 146.713 49.4398ZM122.563 38.7863C120.077 38.6285 118.459 38.6285 118.577 35.8665C118.617 34.2487 119.051 33.1044 123.944 33.2228C127.298 33.3412 128.324 34.0514 128.324 36.4189H133.572C133.572 30.5792 130.021 28.7247 123.904 28.6457C117.354 28.5668 112.974 29.9084 112.895 36.0243C112.737 43.6001 118.419 43.4028 123.904 43.7185C126.746 43.8763 128.442 43.9158 128.363 46.8356C128.324 48.6112 127.732 49.716 122.839 49.5582C118.814 49.4398 118.064 48.4534 118.064 46.3227H112.816C112.816 52.3991 116.683 54.0169 122.918 54.0958C129.547 54.2142 133.967 52.6359 134.046 46.5594C134.204 38.6679 128.285 39.1414 122.642 38.7863H122.563Z" fill="#E32D22"/>
<path d="M53.6266 29.0801C53.0741 36.2613 47.0367 41.9432 39.6971 41.9432C32.3575 41.9432 26.32 36.2613 25.7676 29.0801H0C0.591905 43.995 12.8641 55.9112 27.9379 55.9112C43.0117 55.9112 55.2839 43.995 55.8758 29.0801H53.6266Z" fill="#E32D22"/>
<path d="M25.7281 26.8311C26.2806 19.6498 32.318 13.9679 39.6576 13.9679C46.9972 13.9679 53.0347 19.6498 53.5871 26.8311H55.8363C55.2839 11.9162 43.0117 0 27.9379 0C12.8641 0 0.591905 11.9162 0 26.8311H25.7281Z" fill="#BFC0C4"/>
<path d="M335.334 28.6457C332.651 28.6457 329.731 28.9614 327.876 30.8554V21.1094H322.154V53.6618H327.284V51.6889C328.784 53.0305 331.112 54.0564 334.387 54.0564C344.252 54.0564 344.883 47.388 344.883 41.3905C344.883 35.393 343.739 28.6063 335.295 28.6063L335.334 28.6457ZM334.071 48.9269C329.178 48.9269 327.758 47.5853 327.758 41.3905C327.758 35.1957 329.178 33.8541 334.071 33.8541C338.964 33.8541 339.201 35.6297 339.201 41.3905C339.201 47.1513 338.294 48.9269 334.071 48.9269ZM359.563 28.6457C356.682 28.6457 354.433 29.5533 352.775 31.2894V29.0798H347.843V53.7012H353.565V43.0083C353.565 41.0748 353.486 38.3523 354.117 36.6162C354.709 34.9589 356.169 33.6963 358.576 33.6963C360.983 33.6963 361.891 34.2093 361.891 36.4583H367.573C367.573 31.0527 364.89 28.6852 359.602 28.6852L359.563 28.6457ZM391.762 28.6457C388.29 28.6457 386.041 29.7506 384.659 31.0132V29.0798H379.727V53.7012H385.449V42.2586C385.449 37.9577 384.975 33.7358 391.17 33.7358C397.366 33.7358 395.669 36.0243 395.669 40.7592V53.7407H401.391V40.3252C401.391 34.9589 401.785 28.7247 391.841 28.7247L391.762 28.6457ZM421.87 29.0798V31.0132C419.976 29.3165 416.82 28.6457 414.215 28.6457C405.731 28.6457 404.39 33.7358 404.39 41.2327C404.39 48.7296 404.942 53.7012 414.294 53.7012C423.646 53.7012 419.582 53.1488 421.358 51.5311C421.358 52.7937 421.397 54.5693 421.279 55.8319C420.963 58.1599 418.595 59.1464 415.32 59.1464C412.045 59.1464 411.137 58.2388 411.137 56.4633H404.942C404.942 62.737 410.545 63.9602 415.478 63.9602C420.41 63.9602 425.974 62.737 426.882 56.8973C427.079 55.5163 427.079 53.3067 427.079 51.0181V29.0403H421.91L421.87 29.0798ZM415.162 48.5323C410.94 48.5323 410.072 46.954 410.072 41.1932C410.072 35.4324 410.94 33.6568 415.162 33.6568C419.384 33.6568 421.358 35.0379 421.358 41.1932C421.358 47.3486 420.055 48.5323 415.162 48.5323ZM370.296 53.7012H376.018V29.0798H370.296V53.7012ZM370.296 26.8307H376.018V21.1094H370.296V26.8307Z" fill="#56B529"/>
<path d="M289.362 29.0801C288.77 36.2613 282.772 41.9432 275.433 41.9432C268.093 41.9432 262.056 36.2613 261.503 29.0801H259.254C259.846 43.995 272.118 55.9112 287.192 55.9112C302.266 55.9112 314.538 43.995 315.13 29.0801H289.402H289.362Z" fill="#BFC0C4"/>
<path d="M261.504 26.8311C262.095 19.6498 268.093 13.9679 275.433 13.9679C282.773 13.9679 288.81 19.6498 289.363 26.8311H315.091C314.499 11.9162 302.227 0 287.153 0C272.079 0 259.807 11.9162 259.215 26.8311H261.464H261.504Z" fill="#56B529"/>
</g>
<defs>
<clipPath id="clip0_657_7283">
<rect width="427" height="64" fill="white"/>
</clipPath>
</defs>
</svg>
