<?xml version="1.0" encoding="UTF-8"?>
<svg xmlns="http://www.w3.org/2000/svg" version="1.1" viewBox="0 0 1082.1 162.2">
  <defs>
    <style>
      .cls-1 {
        fill: #bfc0c4;
      }

      .cls-2 {
        fill: #e32d22;
      }

      .cls-3 {
        fill: #56b529;
      }
    </style>
  </defs>
  <!-- Generator: Adobe Illustrator 28.7.1, SVG Export Plug-In . SVG Version: 1.2.0 Build 142)  -->
  <g>
    <g id="_Layer_">
      <g>
        <path class="cls-2" d="M191.9,72.6c-6.7-.1-14.2,1.4-19.5,6v-4.9h-13.1v82.6h14.5v-24.7c4.2,4.5,9.6,5.5,16.4,5.5,24.2,0,26.9-17,26.9-32.1s-2.9-32.1-25.2-32.4h0ZM189.6,124.3c-12.4,0-15.9-3.7-15.9-19.3s3.5-19.6,15.9-19.6,13.1,5,13.1,19.6-2.3,19.3-13.1,19.3ZM252,72.6c-10.1,0-17.7,1.8-23,7-5.5,5.2-6.7,13.3-6.7,25.2s1.1,20,6.7,25.2c5.4,5.2,12.9,7,23,7s17.7-1.8,23-7c5.5-5.2,6.6-13.3,6.6-25.2s-1.1-20-6.6-25.2c-5.4-5.2-13.1-7-23.1-7ZM252,124.3c-14,0-15.2-5.4-15.2-19.5s1.3-19.5,15.2-19.5,15.2,5.4,15.2,19.5-1.3,19.5-15.2,19.5ZM424.4,72.6c-25.1,0-28.7,14.3-28.7,33s4,31.5,29.1,31.5,27.4-2.9,27.4-19.7h-14c-.1,7-7.6,7.8-12.9,7.8-12.4,0-15.1-4.2-15.1-14.8h42.8c0-21.8-1.3-37.8-28.5-37.8h0ZM410.4,98.5c0-8.3,1.3-14.1,14-14.1s14.2,5.1,14.2,14.1h-28.2ZM489.5,72.6c-8.8,0-14.5,2.8-18,6v-4.9h-12.5v62.4h14.5v-29.1c0-10.9-1.2-21.6,14.5-21.6s11.4,5.8,11.4,17.8v32.9h14.5v-34.1c0-13.6,1-29.4-24.2-29.4h0ZM371.8,125.3c-7-.1-7.9-3.7-7.9-8.4v-30.7h28.5v-12.5h-28.5v-20.2h-14.5v20.2h-8.4v12.5h8.4v30.7c0,13.9,8.3,20.2,22.8,20.2s20.3-4.7,20.3-19.7h-13.1c-.1,4-1.1,8.1-7.6,7.9h0ZM310.6,98.3c-6.3-.4-10.4-.4-10.1-7.4.1-4.1,1.2-7,13.6-6.7,8.5.3,11.1,2.1,11.1,8.1h13.3c0-14.8-9-19.5-24.5-19.7-16.6-.2-27.7,3.2-27.9,18.7-.4,19.2,14,18.7,27.9,19.5,7.2.4,11.5.5,11.3,7.9-.1,4.5-1.6,7.3-14,6.9-10.2-.3-12.1-2.8-12.1-8.2h-13.3c0,15.4,9.8,19.5,25.6,19.7,16.8.3,28-3.7,28.2-19.1.4-20-14.6-18.8-28.9-19.7h0Z"/>
        <path class="cls-2" d="M135.9,73.7c-1.4,18.2-16.7,32.6-35.3,32.6s-33.9-14.4-35.3-32.6H0c1.5,37.8,32.6,68,70.8,68s69.3-30.2,70.8-68h-5.7,0Z"/>
        <path class="cls-1" d="M65.2,68c1.4-18.2,16.7-32.6,35.3-32.6s33.9,14.4,35.3,32.6h5.7C140.1,30.2,109,0,70.8,0S1.5,30.2,0,68h65.2Z"/>
      </g>
      <g>
        <path class="cls-3" d="M849.8,72.6c-6.8,0-14.2.8-18.9,5.6v-24.7h-14.5v82.5h13v-5c3.8,3.4,9.7,6,18,6,25,0,26.6-16.9,26.6-32.1s-2.9-32.4-24.3-32.4h0ZM846.6,124c-12.4,0-16-3.4-16-19.1s3.6-19.1,16-19.1,13,4.5,13,19.1-2.3,19.1-13,19.1ZM911.2,72.6c-7.3,0-13,2.3-17.2,6.7v-5.6h-12.5v62.4h14.5v-27.1c0-4.9-.2-11.8,1.4-16.2,1.5-4.2,5.2-7.4,11.3-7.4s8.4,1.3,8.4,7h14.4c0-13.7-6.8-19.7-20.2-19.7h0ZM992.8,72.6c-8.8,0-14.5,2.8-18,6v-4.9h-12.5v62.4h14.5v-29c0-10.9-1.2-21.6,14.5-21.6s11.4,5.8,11.4,17.8v32.9h14.5v-34c0-13.6,1-29.4-24.2-29.4h0ZM1069.1,73.7v4.9c-4.8-4.3-12.8-6-19.4-6-21.5,0-24.9,12.9-24.9,31.9s1.4,31.6,25.1,31.6,13.4-1.4,17.9-5.5c0,3.2.1,7.7-.2,10.9-.8,5.9-6.8,8.4-15.1,8.4s-10.6-2.3-10.6-6.8h-15.7c0,15.9,14.2,19,26.7,19s26.6-3.1,28.9-17.9c.5-3.5.5-9.1.5-14.9v-55.7h-13.1ZM1052.1,123c-10.7,0-12.9-4-12.9-18.6s2.2-19.1,12.9-19.1,15.7,3.5,15.7,19.1-3.3,18.6-15.7,18.6ZM938.4,136.1h14.5v-62.4h-14.5v62.4ZM938.4,68h14.5v-14.5h-14.5v14.5Z"/>
        <path class="cls-1" d="M733.3,73.7c-1.5,18.2-16.7,32.6-35.3,32.6s-33.9-14.4-35.3-32.6h-5.7c1.5,37.8,32.6,68,70.8,68s69.3-30.2,70.8-68h-65.2,0Z"/>
        <path class="cls-3" d="M662.7,68c1.5-18.2,16.7-32.6,35.3-32.6s33.9,14.4,35.3,32.6h65.2c-1.5-37.8-32.6-68-70.8-68s-69.3,30.2-70.8,68h5.7,0Z"/>
      </g>
    </g>
  </g>
</svg>