<svg fill="none" height="28" viewBox="0 0 127 28" width="127" xmlns="http://www.w3.org/2000/svg"><path clip-rule="evenodd" d="m14.0481.574814c8.0062 0 14.048 6.001736 14.048 13.674586 0 3.5329-1.322 6.6478-3.4748 9.0026l3.7382 4.216h-6.3063l-1.296-1.5042c-1.8738 1.3113-4.217 1.9221-6.7091 1.9221-7.96876 0-14.0481-5.9637-14.0481-13.636 0-7.90211 6.30628-13.675086 14.0481-13.675086zm0 22.030986c1.0566 0 2.0007-.2271 2.9074-.6075l-5.4006-6.1534h6.3068l2.908 3.3813c1.0566-1.3304 1.5479-2.9254 1.5479-4.9768 0-4.59538-3.4352-8.3565-8.2706-8.3565-4.83377 0-8.23102 3.72256-8.23102 8.3565 0 4.71 3.39725 8.357 8.23162 8.357zm17.7201-14.2805h5.702v10.9394c0 2.5835 1.5865 3.5324 3.4748 3.5324 1.8878 0 3.4743-.9494 3.4743-3.5324v-10.94046h5.7025v11.43286c-.0005 5.6224-4.305 8.2429-9.1768 8.2429s-9.1763-2.6205-9.1763-8.2418v-11.43449zm22.251 19.1437h5.6266v-19.14476h-5.6266v19.14376zm-.5163-24.13899c0-1.88082 1.5198-3.33001 3.3103-3.33001 1.8311 0 3.3104 1.44919 3.3104 3.33001 0 1.8412-1.4793 3.29145-3.3104 3.29145-1.7905 0-3.3103-1.45025-3.3103-3.29145zm18.6013 9.97099h-8.713v-4.9757h18.39l-10.4879 14.168h9.9586v4.9757h-19.7475zm12.3201 14.168h5.6265v-26.475227h-5.627v26.474227zm8.8811-9.6101c0-6.0773 4.3055-9.98955 10.0826-9.98955 5.816 0 9.63 4.33015 9.63 9.68625 0 0 0 1.0725-.113 1.9463h-13.972c.1135 2.2792 1.811 3.6365 5.022 3.6365 3.625 0 5.664-1.1016 6.759-1.8613v4.9382c-1.775 1.1396-3.738 1.7477-7.061 1.7477-6.383 0-10.3476-3.9122-10.3476-9.9139zm14.0486-2.1271c0-1.7091-1.737-3.1525-3.966-3.1525-2.341 0-4.3041 1.4054-4.4175 3.1525h8.3825zm9.978-2.2786h-2.529v-5.1279h2.529v-7.332055h5.476v7.330995h4.192v5.12786h-4.192v14.0164h-5.476v-14.0164z" fill="#4257b2" fill-rule="evenodd"/></svg>