<svg width="172" height="64" viewBox="0 0 172 64" fill="none" xmlns="http://www.w3.org/2000/svg">
<path d="M67.2441 24.3324H60.2913C60.1511 24.3324 60.0173 24.3878 59.9181 24.4882C59.8189 24.5872 59.7633 24.7218 59.7633 24.8631V39.5541C59.7633 43.2071 57.4889 44.4863 54.8507 44.4863C52.2125 44.4863 49.9383 43.1173 49.9383 39.5541V24.8618C49.9383 24.7218 49.8827 24.5858 49.7835 24.4868C49.6841 24.3878 49.5505 24.3311 49.4103 24.3311H42.4575C42.3173 24.3311 42.1837 24.3865 42.0845 24.4868C41.9851 24.5858 41.9297 24.7205 41.9297 24.8618V40.2049C41.9297 48.0575 48.0263 51.7091 54.8441 51.7091C61.6619 51.7091 67.7587 48.0561 67.7587 40.2049V24.8618C67.7587 24.7231 67.7045 24.5898 67.6079 24.4908C67.5127 24.3918 67.3817 24.335 67.2441 24.3324Z" fill="#4254FF"/>
<path d="M121.558 14.8477H114.698C114.407 14.8477 114.172 15.0853 114.172 15.3771V50.2907C114.172 50.5837 114.407 50.8201 114.698 50.8201H121.558C121.85 50.8201 122.085 50.5825 122.085 50.2907V15.3784C122.085 15.0853 121.85 14.8477 121.558 14.8477Z" fill="#4254FF"/>
<path d="M110.345 24.332H86.2332C86.0928 24.332 85.9592 24.3875 85.86 24.4878C85.7608 24.5868 85.7052 24.7215 85.7052 24.8628V30.6901C85.7052 30.83 85.7608 30.966 85.86 31.065C85.9592 31.164 86.0928 31.2208 86.2332 31.2208H97.9092L83.7298 49.9635C83.6704 50.0413 83.6346 50.1351 83.6254 50.2341C83.616 50.3317 83.6346 50.4307 83.6782 50.5193C83.722 50.6077 83.7894 50.6815 83.8728 50.7345C83.956 50.7873 84.0526 50.8137 84.1506 50.8137H109.429C109.57 50.8137 109.703 50.7581 109.802 50.6591C109.902 50.5601 109.957 50.4255 109.957 50.2843V44.4569C109.957 44.3169 109.902 44.1823 109.802 44.0819C109.703 43.9829 109.57 43.9263 109.429 43.9263H96.8256L110.766 25.177C110.824 25.0978 110.858 25.0053 110.867 24.9076C110.875 24.81 110.857 24.7123 110.813 24.6251C110.77 24.538 110.702 24.4641 110.62 24.4126C110.538 24.3598 110.441 24.332 110.345 24.332Z" fill="#4254FF"/>
<path d="M171.481 24.4085H167.586V15.3784C167.586 15.2384 167.53 15.1025 167.431 15.0034C167.332 14.9044 167.198 14.8477 167.058 14.8477H160.206C160.065 14.8477 159.932 14.9031 159.832 15.0034C159.733 15.1025 159.678 15.2371 159.678 15.3784V24.4085H155.809C155.669 24.4085 155.535 24.4639 155.436 24.5642C155.337 24.6633 155.281 24.7979 155.281 24.9392V30.7665C155.281 30.9064 155.337 31.0411 155.436 31.1414C155.535 31.2404 155.669 31.2959 155.809 31.2959H159.67V50.2867C159.67 50.4267 159.725 50.5613 159.825 50.6617C159.924 50.7607 160.057 50.8175 160.198 50.8175H167.05C167.19 50.8175 167.324 50.7619 167.423 50.6617C167.522 50.5627 167.578 50.4279 167.578 50.2867V31.3011H171.473C171.613 31.3011 171.747 31.2457 171.846 31.1467C171.945 31.0477 172.001 30.913 172.001 30.7718V24.9431C172.002 24.8032 171.948 24.6685 171.851 24.5682C171.753 24.4679 171.621 24.4111 171.481 24.4085Z" fill="#4254FF"/>
<path d="M79.9321 24.332H73.1223C72.8311 24.332 72.5957 24.5697 72.5957 24.8614V50.2921C72.5957 50.5853 72.8311 50.8215 73.1223 50.8215H79.9321C80.2233 50.8215 80.4587 50.5839 80.4587 50.2921V24.8614C80.4587 24.5697 80.2233 24.332 79.9321 24.332Z" fill="#4254FF"/>
<path d="M76.5277 12.0003C75.6255 12.0122 74.7455 12.292 73.9993 12.8043C73.2531 13.3165 72.6749 14.0386 72.3363 14.8796C71.9975 15.7206 71.9115 16.6434 72.0929 17.5332C72.2727 18.423 72.7107 19.2388 73.3497 19.8791C73.9887 20.5194 74.8025 20.9564 75.6889 21.1346C76.5741 21.3129 77.4923 21.2244 78.3285 20.8798C79.1647 20.5353 79.8805 19.9517 80.3871 19.2006C80.8939 18.4494 81.1691 17.5649 81.1783 16.6566C81.1837 16.0427 81.0659 15.4328 80.8343 14.8651C80.6029 14.2974 80.2601 13.7812 79.8275 13.3469C79.3949 12.9138 78.8801 12.5706 78.3139 12.3396C77.7449 12.1085 77.1391 11.9937 76.5277 12.0003Z" fill="#4254FF"/>
<path d="M20.103 13.7759C17.1949 13.5845 14.2828 14.0729 11.593 15.203C8.90454 16.3331 6.51242 18.0731 4.60586 20.2884C2.69932 22.5036 1.32597 25.1308 0.598274 27.9666C-0.129416 30.8023 -0.194247 33.7702 0.409074 36.635C1.0124 39.501 2.26932 42.1864 4.07796 44.4822C5.88792 46.778 8.20066 48.6222 10.8389 49.8684C13.4758 51.116 16.364 51.7312 19.2774 51.6692C22.1908 51.6058 25.05 50.8666 27.6326 49.5068C27.7146 49.4646 27.8074 49.4448 27.9 49.45C27.9926 49.4552 28.0826 49.4844 28.1592 49.5358C28.707 49.9028 29.2786 50.2316 29.87 50.5206C31.9194 51.5174 34.17 52.023 36.4456 51.9992C36.586 51.9992 36.7196 51.9438 36.8188 51.8448C36.918 51.7458 36.9736 51.6112 36.9736 51.4698V45.0326C36.9748 44.906 36.9326 44.7844 36.8518 44.6868C36.7712 44.589 36.66 44.5244 36.5356 44.5032C35.9296 44.4068 35.337 44.2366 34.772 43.995C34.7018 43.9632 34.6396 43.9184 34.5894 43.8604C34.5392 43.8022 34.502 43.735 34.4808 43.661C34.4598 43.587 34.4544 43.5104 34.465 43.434C34.4756 43.3586 34.5034 43.286 34.5444 43.2214C36.3848 40.453 37.4684 37.2462 37.684 33.9246C37.901 30.603 37.2422 27.2814 35.7762 24.2951C34.3102 21.3089 32.0888 18.7649 29.3328 16.9153C26.5782 15.067 23.387 13.9792 20.0818 13.764L20.103 13.7759ZM7.4518 32.706C7.44916 30.434 8.1173 28.2108 9.37158 26.3203C10.6259 24.4298 12.4107 22.9551 14.4985 22.0838C16.5863 21.2125 18.8858 20.9841 21.1032 21.4264C23.3208 21.8686 25.3582 22.9631 26.9578 24.5684C28.5574 26.1751 29.6464 28.2227 30.087 30.4512C30.5288 32.6796 30.3014 34.99 29.436 37.0904C28.5708 39.1896 27.1048 40.9836 25.2234 42.2458C23.3432 43.5078 21.1324 44.1798 18.8713 44.1784C15.8427 44.1784 12.9373 42.9706 10.7952 40.8186C8.65316 38.6668 7.44652 35.749 7.44386 32.7048L7.4518 32.706Z" fill="#4254FF"/>
<path d="M138.943 23.2509C136.615 23.4291 134.366 24.1816 132.397 25.4437C130.428 26.7058 128.799 28.4379 127.656 30.4842C126.513 32.5318 125.891 34.8302 125.846 37.1776C125.801 39.5248 126.333 41.8458 127.396 43.9356C128.458 46.0254 130.019 47.8196 131.938 49.157C133.858 50.4942 136.075 51.3352 138.396 51.6032C140.716 51.8712 143.066 51.5596 145.237 50.695C147.408 49.8302 149.334 48.44 150.841 46.646C150.887 46.5918 150.923 46.5298 150.945 46.461C150.968 46.3938 150.975 46.3212 150.969 46.2498C150.962 46.1786 150.942 46.1086 150.909 46.0466C150.876 45.9832 150.83 45.9278 150.774 45.8828L146.66 42.5612C146.554 42.4768 146.419 42.4358 146.284 42.4478C146.149 42.4596 146.023 42.5242 145.935 42.6272C145.045 43.657 143.906 44.4372 142.628 44.8914C141.35 45.3456 139.975 45.4578 138.64 45.2174C137.305 44.9772 136.055 44.3924 135.013 43.5198C133.97 42.647 133.171 41.5184 132.693 40.2416H153.491C153.615 40.2444 153.737 40.2008 153.833 40.1216C153.93 40.0424 153.995 39.9302 154.017 39.8074C154.148 39.0324 154.213 38.2468 154.212 37.46C154.212 35.4956 153.807 33.5536 153.025 31.7542C152.243 29.9548 151.099 28.3376 149.664 27.0029C148.23 25.6681 146.538 24.6463 144.692 24.0007C142.849 23.3565 140.891 23.1004 138.943 23.2509ZM132.693 34.6706C133.254 33.1708 134.258 31.8783 135.57 30.966C136.881 30.0538 138.438 29.5653 140.032 29.5653C141.627 29.5653 143.184 30.0538 144.495 30.966C145.806 31.8783 146.809 33.1708 147.371 34.6706H132.693Z" fill="#4254FF"/>
</svg>
