<svg fill="none" height="44" viewBox="0 0 157 44" width="157" xmlns="http://www.w3.org/2000/svg" xmlns:xlink="http://www.w3.org/1999/xlink"><linearGradient id="a" gradientUnits="userSpaceOnUse" x1="22.4523" x2="22.4523" y1="43.2555" y2="-10.8982"><stop offset="0" stop-color="#25f"/><stop offset="1" stop-color="#0af"/></linearGradient><g fill="#242424"><path d="m52.7292 26.6573c0-1.2234 1.5779-2.5755 1.7751-2.4468 1.1177.9659 3.2872 1.9317 5.128 1.9317 1.6436 0 2.4326-.4507 2.4326-1.3522 0-1.0302-1.3807-1.0302-3.09-1.4165-2.8927-.5795-5.7854-1.7385-5.7854-5.2155s2.6297-5.6018 7.3632-5.6018c4.5364 0 6.5087 1.5453 6.5087 3.2194 0 1.481-1.7751 2.7044-1.9066 2.5756-1.1176-1.0302-2.9585-1.8029-4.6021-1.8029-1.5778 0-2.301.4507-2.301 1.2878 0 .9658 1.3806.9014 3.2215 1.2877 3.4186.7083 5.9826 2.1249 5.9826 5.2799 0 3.6701-2.564 5.7306-7.8235 5.7306-5.0622 0-6.9031-1.6741-6.9031-3.477z"/><path d="m69.231 27.4942v-12.2339c0-1.6097.7889-2.4467 2.2352-2.4467h.789c1.5778 0 2.3667.837 2.3667 2.4467v3.8633h5.5225v-3.8633c0-1.6097.7889-2.4467 2.2353-2.4467h.7889c1.5121 0 2.3011.837 2.3011 2.4467v12.2339c0 1.6097-.789 2.4467-2.3011 2.4467h-.7889c-1.4464 0-2.2353-.837-2.2353-2.4467v-3.9921h-5.5225v3.9921c0 1.6097-.7889 2.4467-2.3667 2.4467h-.789c-1.4463-.0644-2.2352-.9014-2.2352-2.4467z"/><path d="m97.8306 23.5023c0 1.8028-1.3806 2.9618-3.2214 2.9618-1.3149 0-2.1696-.6439-2.1696-1.6741 0-1.7385 2.3668-2.4467 4.1419-2.4467h1.1833v1.159zm-3.0242-11.0105c-3.4844 0-6.7716 1.6097-6.7716 3.7346 0 2.6399 3.3529 2.5755 3.3529 2.5755.3945-1.4166 1.5779-2.1892 3.1557-2.1892 2.4325 0 3.2872 1.159 3.2872 2.8331h-1.1834c-6.9031 0-9.5328 2.7043-9.5328 5.7306 0 2.9618 2.564 4.9579 5.9169 4.9579 2.3668 0 4.6021-.8371 4.9965-2.4468.1972 1.2234 1.3806 2.318 2.9582 2.318 1.381 0 2.038-.4507 2.104-.6439v-10.3021c0-4.1853-2.958-6.5677-8.2836-6.5677z"/><path d="m104.667 27.6874v-.2576c0-1.4809.526-2.0604 1.447-2.9619l6.574-7.2759h-5.457c-1.577 0-2.366-.5151-2.366-1.996v-.2576c0-1.4165.789-1.996 2.366-1.996h9.665c1.972 0 2.695 1.0302 2.695 1.996v.2576c0 1.4809-.591 2.0604-1.446 2.9619l-6.706 7.2759h5.917c1.578 0 2.367.5795 2.367 2.0604v.1932c0 1.4165-.789 2.0604-2.367 2.0604h-9.993c-1.907 0-2.696-1.0302-2.696-2.0604z"/><path d="m131.688 23.5023c0 1.8028-1.381 2.9618-3.221 2.9618-1.315 0-2.17-.6439-2.17-1.6741 0-1.7385 2.367-2.4467 4.142-2.4467h1.183v1.159zm-3.09-11.0105c-3.484 0-6.772 1.6097-6.772 3.7346 0 2.6399 3.353 2.5755 3.353 2.5755.395-1.4166 1.578-2.1892 3.156-2.1892 2.433 0 3.287 1.159 3.287 2.8331h-1.183c-6.903 0-9.533 2.7043-9.533 5.7306 0 2.9618 2.564 4.9579 5.917 4.9579 2.367 0 4.602-.8371 4.996-2.4468.198 1.2234 1.381 2.318 2.959 2.318 1.381 0 2.038-.4507 2.104-.6439v-10.3021c0-4.1853-2.893-6.5677-8.284-6.5677z"/><path d="m138.855 27.4942v-12.1694c0-1.6741.854-2.5112 2.366-2.5112h1.512c1.447 0 1.907.322 2.367 1.4166l2.827 6.7608 2.827-6.7608c.526-1.159 1.052-1.4166 2.301-1.4166h1.512c1.578 0 2.433.8371 2.433 2.5112v12.1694c0 1.6097-.592 2.4468-2.104 2.4468h-.855c-1.446 0-2.103-.8371-2.103-2.4468v-7.2115l-1.841 4.9579c-.263.6439-.263 1.2878-2.301 1.2878s-1.973-.5795-2.236-1.2878l-1.775-4.7003v7.0183c0 1.6097-.526 2.4468-2.103 2.4468h-.855c-1.315-.1288-1.972-.9659-1.972-2.5112z"/></g><path d="m.331787 21.6348c0 11.9762 9.927313 21.6345 22.089913 21.6345 12.2283 0 22.0898-9.7227 22.0898-21.6345 0-11.97631-9.9272-21.63459782-22.0898-21.63459782-12.1626-.06438828-22.089913 9.65828782-22.089913 21.63459782z" fill="url(#a)"/><path d="m34.2546 29.6834c-2.1038 2.2536-5.8512 5.795-6.0484 5.9238-.5259.4507-1.1176.7082-1.7751.7082-.6574 0-1.3148-.2575-1.8408-.7726-.9862-1.0302-.9204-2.5756.0657-3.5414.0658-.0644 3.8132-3.5414 5.7855-5.6662.9204-1.0302 1.3806-2.318 1.3149-3.6701-.0658-1.4166-.789-2.7687-1.9723-3.7346-1.5779-1.2877-4.6021-1.6097-6.5087.0644-1.1176 1.0302-2.4982 2.4468-2.564 2.5112-.9861 1.0302-2.564 1.0946-3.6159.1288-1.0519-.9659-1.1176-2.5112-.1315-3.5414.0658-.0644 1.5779-1.6741 2.8927-2.8331 3.616-3.2194 9.5986-3.2838 13.2803-.1288 2.2353 1.8673 3.5501 4.4428 3.7474 7.2115.1972 2.7043-.7232 5.3443-2.6298 7.3403zm-15.4497.1932c-2.3668 0-4.7336-.7727-6.5744-2.318-2.2353-1.8673-3.55017-4.4428-3.7474-7.2115-.19723-2.7043.78892-5.2799 2.6297-7.3403 2.1038-2.2536 5.8512-5.79498 6.0485-5.92376 1.0519-.96583 2.6297-.90144 3.6159.06439.9861 1.03022.9204 2.57554-.0658 3.54137-.0657.0644-3.8131 3.5414-5.7854 5.6662-.9204 1.0302-1.3806 2.318-1.3149 3.6701.0657 1.4166.7889 2.7687 1.9723 3.7346 1.5779 1.2877 4.6021 1.6097 6.5086-.0644 1.1177-1.0302 2.4983-2.4468 2.564-2.5112.9862-1.0302 2.564-1.0946 3.6159-.1288 1.0519.9659 1.1177 2.5112.1315 3.5414-.0657.0644-1.5778 1.6741-2.8927 2.8331-1.8408 1.6097-4.2733 2.4468-6.7058 2.4468z" fill="#fff"/></svg>