<svg width="214" height="64" viewBox="0 0 214 64" fill="none" xmlns="http://www.w3.org/2000/svg">
<g clip-path="url(#clip0_657_7707)">
<path d="M71.873 38.3508C71.873 36.6826 74.0238 34.8388 74.2926 35.0143C75.8161 36.3314 78.7733 37.6484 81.2824 37.6484C83.5227 37.6484 84.5981 37.0338 84.5981 35.8045C84.5981 34.3997 82.7162 34.3997 80.3863 33.8729C76.4434 33.0827 72.5005 31.5023 72.5005 26.7609C72.5005 22.0195 76.0849 19.1221 82.5369 19.1221C88.7203 19.1221 91.4087 21.2293 91.4087 23.5122C91.4087 25.5317 88.9891 27.2 88.8099 27.0243C87.2865 25.6195 84.7773 24.5658 82.5369 24.5658C80.3863 24.5658 79.4005 25.1804 79.4005 26.3219C79.4005 27.6389 81.2824 27.5511 83.7916 28.0779C88.4514 29.0438 91.9463 30.9755 91.9463 35.2778C91.9463 40.2824 88.4514 43.0922 81.2824 43.0922C74.3823 43.0922 71.873 40.8093 71.873 38.3508Z" fill="#242424"/>
<path d="M94.3652 39.4917V22.8091C94.3652 20.614 95.4405 19.4727 97.4119 19.4727H98.4874C100.638 19.4727 101.713 20.614 101.713 22.8091V28.0772H109.241V22.8091C109.241 20.614 110.316 19.4727 112.288 19.4727H113.363C115.424 19.4727 116.5 20.614 116.5 22.8091V39.4917C116.5 41.6867 115.424 42.8281 113.363 42.8281H112.288C110.316 42.8281 109.241 41.6867 109.241 39.4917V34.0479H101.713V39.4917C101.713 41.6867 100.638 42.8281 98.4874 42.8281H97.4119C95.4405 42.7403 94.3652 41.5989 94.3652 39.4917Z" fill="#242424"/>
<path d="M133.349 34.0485C133.349 36.5069 131.467 38.0873 128.958 38.0873C127.166 38.0873 126.001 37.2093 126.001 35.8045C126.001 33.4338 129.227 32.468 131.646 32.468H133.259V34.0485H133.349ZM129.227 19.0342C124.477 19.0342 119.997 21.2292 119.997 24.1268C119.997 27.7267 124.567 27.6389 124.567 27.6389C125.105 25.7071 126.718 24.6536 128.868 24.6536C132.184 24.6536 133.349 26.234 133.349 28.5169H131.736C122.327 28.5169 118.742 32.2046 118.742 36.3314C118.742 40.3702 122.237 43.0921 126.807 43.0921C130.033 43.0921 133.08 41.9506 133.618 39.7556C133.887 41.4239 135.5 42.9165 137.65 42.9165C139.532 42.9165 140.428 42.3019 140.518 42.0385V27.9901C140.518 22.2829 136.486 19.0342 129.227 19.0342Z" fill="#242424"/>
<path d="M142.668 39.7553V39.404C142.668 37.3846 143.385 36.5943 144.64 35.365L153.601 25.4433H146.163C144.013 25.4433 142.938 24.7409 142.938 22.7215V22.3703C142.938 20.4387 144.013 19.6484 146.163 19.6484H159.337C162.025 19.6484 163.01 21.0533 163.01 22.3703V22.7215C163.01 24.7409 162.205 25.5312 161.039 26.7605L151.899 36.6822H159.964C162.115 36.6822 163.19 37.4724 163.19 39.4918V39.7553C163.19 41.6868 162.115 42.5649 159.964 42.5649H146.343C143.743 42.5649 142.668 41.1601 142.668 39.7553Z" fill="#242424"/>
<path d="M179.499 34.0485C179.499 36.5069 177.617 38.0873 175.109 38.0873C173.316 38.0873 172.151 37.2093 172.151 35.8045C172.151 33.4338 175.377 32.468 177.797 32.468H179.409V34.0485H179.499ZM175.287 19.0342C170.538 19.0342 166.057 21.2292 166.057 24.1268C166.057 27.7267 170.627 27.6389 170.627 27.6389C171.165 25.7071 172.778 24.6536 174.929 24.6536C178.245 24.6536 179.409 26.234 179.409 28.5169H177.797C168.388 28.5169 164.803 32.2046 164.803 36.3314C164.803 40.3702 168.298 43.0921 172.868 43.0921C176.094 43.0921 179.141 41.9506 179.678 39.7556C179.948 41.4239 181.56 42.9165 183.711 42.9165C185.593 42.9165 186.489 42.3019 186.579 42.0385V27.9901C186.579 22.2829 182.636 19.0342 175.287 19.0342Z" fill="#242424"/>
<path d="M189.268 39.4917V22.897C189.268 20.6142 190.432 19.4727 192.493 19.4727H194.554C196.526 19.4727 197.153 19.9117 197.78 21.4044L201.633 30.6237L205.487 21.4044C206.204 19.8239 206.921 19.4727 208.623 19.4727H210.684C212.835 19.4727 214 20.6142 214 22.897V39.4917C214 41.6867 213.193 42.8282 211.132 42.8282H209.967C207.996 42.8282 207.1 41.6867 207.1 39.4917V29.6578L204.591 36.4186C204.233 37.2966 204.233 38.1747 201.455 38.1747C198.677 38.1747 198.765 37.3844 198.407 36.4186L195.987 30.0091V39.5795C195.987 41.7745 195.27 42.916 193.121 42.916H191.956C190.163 42.7404 189.268 41.5989 189.268 39.4917Z" fill="#242424"/>
<path d="M0.453125 31.5022C0.453125 47.8333 13.9846 61.0037 30.5629 61.0037C47.2308 61.0037 60.6726 47.7455 60.6726 31.5022C60.6726 15.1708 47.1413 2.00043 30.5629 2.00043C13.9846 1.91263 0.453125 15.1708 0.453125 31.5022Z" fill="url(#paint0_linear_657_7707)"/>
<path d="M46.6912 42.4775C43.8236 45.5506 38.7157 50.3798 38.4469 50.5554C37.73 51.17 36.9235 51.5212 36.0273 51.5212C35.1312 51.5212 34.2352 51.17 33.5182 50.4676C32.174 49.0628 32.2636 46.9554 33.6078 45.6384C33.6974 45.5506 38.8054 40.8092 41.4937 37.9118C42.7483 36.507 43.3756 34.7509 43.286 32.9071C43.1963 30.9754 42.2106 29.1316 40.5976 27.8145C38.4469 26.0585 34.3247 25.6194 31.7259 27.9023C30.2026 29.3071 28.3207 31.2388 28.231 31.3267C26.8869 32.7315 24.7362 32.8193 23.3024 31.5023C21.8686 30.1852 21.779 28.0779 23.1231 26.6731C23.2128 26.5853 25.2739 24.3902 27.066 22.8098C31.9948 18.4197 40.1495 18.3319 45.1678 22.6342C48.2147 25.1805 50.0068 28.6925 50.2758 32.468C50.5446 36.1557 49.29 39.7557 46.6912 42.4775ZM25.6324 42.741C22.4063 42.741 19.1802 41.6873 16.6711 39.5801C13.6242 37.0337 11.832 33.5217 11.5632 29.7462C11.2943 26.0585 12.6385 22.5463 15.1476 19.7367C18.0152 16.6636 23.1231 11.8345 23.392 11.6588C24.8258 10.3418 26.9765 10.4296 28.3207 11.7466C29.6648 13.1515 29.5753 15.2587 28.231 16.5758C28.1415 16.6636 23.0336 21.405 20.3452 24.3024C19.0906 25.7072 18.4634 27.4633 18.5529 29.3071C18.6425 31.2388 19.6282 33.0826 21.2413 34.3997C23.392 36.1557 27.5142 36.5948 30.1129 34.3119C31.6364 32.9071 33.5182 30.9754 33.6078 30.8876C34.952 29.4827 37.1026 29.3949 38.5364 30.7119C39.9702 32.0291 40.0599 34.1363 38.7157 35.5411C38.6261 35.6289 36.565 37.824 34.7728 39.4044C32.2636 41.5995 28.948 42.741 25.6324 42.741Z" fill="white"/>
</g>
<defs>
<linearGradient id="paint0_linear_657_7707" x1="30.6047" y1="60.9849" x2="30.6047" y2="-12.861" gradientUnits="userSpaceOnUse">
<stop stop-color="#2255FF"/>
<stop offset="1" stop-color="#00AAFF"/>
</linearGradient>
<clipPath id="clip0_657_7707">
<rect width="214" height="64" fill="white"/>
</clipPath>
</defs>
</svg>
