<svg fill="none" height="45" viewBox="0 0 163 45" width="163" xmlns="http://www.w3.org/2000/svg"><g fill="#6db33f"><path d="m40.0982 2.65357c-.5892 1.48461-1.4049 2.92283-2.3565 4.22186-8.4291-8.95404-22.3415-9.18602-31.04242-.55672-8.70093 8.62929-8.97283 22.87229-.54381 31.77989.2719.3248.58912.6031.90634.8815l.81572.7423c9.24477 7.9798 23.11187 6.7735 30.90647-2.6908 2.9909-3.6188 4.8036-8.1654 5.1208-12.8976.6345-5.6137-1.0423-12.8511-3.8066-21.48043zm-29.8642 36.55853c-.63441.8351-1.81266.9279-2.62838.2783-.81571-.6495-.90634-1.8557-.2719-2.6908s1.81269-.9279 2.62841-.2784c.77037.6495.90637 1.8558.27187 2.6909zm29.7282-6.7272c-5.3927 7.3767-16.994 4.8714-24.3807 5.2426 0 0-1.3142.0928-2.6284.2783 0 0 .4985-.2319 1.1329-.4639 5.2115-1.8558 7.6586-2.2269 10.8309-3.8971 5.9365-3.1084 11.8731-9.9283 13.0514-16.9802-2.2659 6.7735-9.1542 12.6191-15.4079 14.9852-4.3052 1.6238-12.0545 3.2012-12.0545 3.2012l-.3172-.1855c-5.2568-2.6445-5.43807-14.3358 4.1692-18.0937 4.2145-1.6702 8.2025-.7423 12.7795-1.8558 4.849-1.1598 10.4683-4.87135 12.7342-9.74272 2.5378 7.84062 5.6193 19.99582.0906 27.51162z"/><path d="m56.3669 31.3715c-.5891-.3712-.9517-1.0207-.9063-1.7166 0-1.1135.861-2.0413 1.9486-2.0413h.0453c.3626 0 .7251.0927 1.0423.2783 1.8127 1.299 3.9426 1.995 6.1179 2.0877 2.0846 0 3.3081-.9278 3.3081-2.366v-.0928c0-1.7166-2.2658-2.2733-4.7583-3.062-3.1269-.9279-6.6617-2.227-6.6617-6.4024v-.0928c0-4.1291 3.3535-6.6344 7.568-6.6344 2.3566.0464 4.6224.6496 6.707 1.763.7251.3712 1.1783 1.0671 1.1783 1.9022 0 1.1134-.9064 2.0413-1.994 2.0413h-.0453c-.3172 0-.6344-.0928-.9517-.232-1.5408-.8814-3.2175-1.3918-4.9849-1.4846-1.9033 0-2.9909.9279-2.9909 2.1342v.0927c0 1.6238 2.3112 2.2734 4.8036 3.1084 3.1269.9743 6.6164 2.4589 6.6164 6.356v.0928c0 4.593-3.4895 6.8663-7.8853 6.8663-2.9003-.0464-5.7553-.9278-8.1571-2.598z"/><path d="m74.222 13.8809c-.0453-1.3454 1.0423-2.4589 2.3565-2.5053h.0453c1.3595 0 2.4471 1.1135 2.4471 2.5053v1.4846c1.5862-2.2733 3.8067-4.0827 7.2508-4.0827 4.9849 0 9.8792 4.0363 9.8792 11.3202v.0928c0 7.2374-4.849 11.3201-9.8792 11.3201-3.5347 0-5.7553-1.8093-7.2508-3.8507v7.7014c0 1.3918-1.0876 2.5053-2.4471 2.5053-1.3142 0-2.4018-1.1135-2.4018-2.4589zm17.0846 8.8149v-.0928c0-4.2219-2.7643-6.9591-6.0725-6.9591s-6.2085 2.83-6.2085 6.9591v.0928c0 4.1754 2.9003 6.9591 6.2085 6.9591s6.0725-2.6445 6.0725-6.9591z"/><path d="m98.1042 13.8809c-.0453-1.3454 1.0423-2.4588 2.3568-2.5052h.045c1.36 0 2.447 1.1134 2.447 2.5052v1.2063c.227-1.8558 3.218-3.7115 5.348-3.7115 1.223-.0928 2.311.8351 2.401 2.0877v.3711c0 1.2063-.815 2.227-1.948 2.4125-3.49.6032-5.846 3.7116-5.846 8.0262v7.1911c0 1.3918-1.088 2.4589-2.447 2.4589-1.3145 0-2.4021-1.0671-2.4021-2.4125 0 0 0 0 0-.0464z"/><path d="m112.651 13.9273c-.045-1.3454 1.042-2.4588 2.357-2.5052h.045c1.359 0 2.447 1.1134 2.447 2.5052v17.5834c0 1.3918-1.088 2.4589-2.447 2.4589-1.36 0-2.402-1.1135-2.402-2.4589z"/><path d="m119.993 13.9274c-.046-1.3455 1.042-2.4589 2.356-2.5053h.045c1.36 0 2.447 1.1134 2.447 2.5053v1.0206c1.451-2.3197 3.988-3.6651 6.662-3.5723 4.804 0 7.568 3.294 7.568 8.3509v11.7377c.045 1.3454-.997 2.4125-2.311 2.4589-.045 0-.045 0-.091 0-1.314.0464-2.402-1.0671-2.447-2.4125v-10.2531c0-3.3868-1.631-5.3353-4.577-5.3353-2.81 0-4.804 2.0413-4.804 5.4281v10.1603c0 1.3918-1.087 2.5053-2.447 2.5053-1.359 0-2.447-1.1135-2.447-2.5053z"/><path d="m160.551 11.3293c-1.359 0-2.447 1.1134-2.447 2.5053v1.4846c-1.586-2.2733-3.806-4.0827-7.25-4.0827-4.985 0-9.88 4.0363-9.88 11.3201v.0928c0 7.2375 4.849 11.3202 9.88 11.3202 3.534 0 5.755-1.8094 7.25-3.8043-.226 3.9435-2.583 5.9848-6.707 5.9848-2.265 0-4.531-.5567-6.525-1.7166-.272-.1392-.544-.1856-.861-.1856-1.133 0-2.04.8815-2.085 2.0414 0 .8815.544 1.7166 1.36 1.9949 2.583 1.299 5.392 1.9486 8.247 1.9486 3.852 0 6.843-.9279 8.747-2.9229 1.767-1.8093 2.719-4.5466 2.719-8.2117v-15.2172c.045-1.3919-1.043-2.5053-2.402-2.5517zm-8.565 18.3256c-3.353 0-6.072-2.6908-6.072-7.0055v-.0928c0-4.2218 2.764-6.9591 6.072-6.9591 3.309 0 6.209 2.8301 6.209 6.9591v.0928c.045 4.1755-2.855 7.0055-6.209 7.0055z"/><path d="m117.545 5.39081c0 1.39182-1.087 2.50528-2.447 2.50528-1.359 0-2.447-1.11346-2.447-2.50528s1.088-2.50527 2.447-2.50527c1.314-.0464 2.402 1.06706 2.447 2.41248z"/><path d="m38.784 37.0316c2.9909-3.6188 4.8036-8.1654 5.1208-12.8976z"/></g></svg>