<svg width="214" height="64" viewBox="0 0 214 64" fill="none" xmlns="http://www.w3.org/2000/svg">
<g clip-path="url(#clip0_657_7306)">
<path d="M52.6443 6.47912C51.8707 8.42561 50.7998 10.3113 49.5504 12.0145C38.484 0.274711 20.2187 -0.0294418 8.79537 11.2845C-2.62794 22.5985 -2.98491 41.2726 8.08141 52.9515C8.43838 53.3773 8.85486 53.7422 9.27133 54.1072L10.3423 55.0805C22.4796 65.5429 40.6855 63.9613 50.9189 51.5525C54.8456 46.8079 57.2254 40.8468 57.6419 34.6424C58.4749 27.2822 56.2735 17.7931 52.6443 6.47912ZM13.436 54.4114C12.6031 55.5063 11.0562 55.628 9.98529 54.7763C8.91436 53.9247 8.79537 52.3433 9.62832 51.2484C10.4613 50.1535 12.0082 50.0318 13.0791 50.8833C14.0905 51.7349 14.2691 53.3165 13.436 54.4114ZM52.4657 45.5913C45.3857 55.263 30.1546 51.9783 20.4567 52.4649C20.4567 52.4649 18.7313 52.5866 17.0059 52.8298C17.0059 52.8298 17.6604 52.5258 18.4933 52.2216C25.3354 49.7884 28.5481 49.3019 32.713 47.1121C40.5069 43.0366 48.301 34.095 49.8479 24.8491C46.8731 33.73 37.8296 41.3942 29.6192 44.4964C23.9669 46.6254 13.793 48.6935 13.793 48.6935L13.3766 48.4503C6.47501 44.9831 6.23702 29.6545 18.8502 24.7275C24.3834 22.5377 29.6192 23.7542 35.6282 22.2943C41.9944 20.7737 49.3719 15.9074 52.3468 9.52052C55.6786 19.8004 59.7242 35.7373 52.4657 45.5913Z" fill="#6DB33F"/>
<path d="M74.0035 44.1312C73.2301 43.6445 72.754 42.7929 72.8136 41.8805C72.8136 40.4206 73.944 39.2042 75.3719 39.2042H75.4314C75.9074 39.2042 76.3833 39.3257 76.7998 39.5691C79.1796 41.2722 81.976 42.1847 84.8319 42.3063C87.5687 42.3063 89.175 41.0898 89.175 39.2042V39.0825C89.175 36.8319 86.2003 36.102 82.9279 35.0679C78.8227 33.8513 74.1819 32.148 74.1819 26.6736V26.552C74.1819 21.1382 78.5847 17.8535 84.1178 17.8535C87.2117 17.9144 90.1865 18.7052 92.9233 20.165C93.8753 20.6517 94.4703 21.5641 94.4703 22.659C94.4703 24.1188 93.2803 25.3354 91.8524 25.3354H91.7929C91.3765 25.3354 90.96 25.2137 90.5434 25.0312C88.5206 23.8756 86.3192 23.2064 83.9989 23.0847C81.5 23.0847 80.0721 24.3013 80.0721 25.8829V26.0044C80.0721 28.1334 83.1065 28.9851 86.3787 30.0799C90.484 31.3573 95.0653 33.3038 95.0653 38.4133V38.535C95.0653 44.5569 90.484 47.5375 84.7128 47.5375C80.905 47.4766 77.1568 46.321 74.0035 44.1312Z" fill="#6DB33F"/>
<path d="M97.4452 21.1994C97.3857 19.4354 98.8136 17.9755 100.539 17.9146H100.598C102.383 17.9146 103.811 19.3746 103.811 21.1994V23.1458C105.894 20.1653 108.809 17.793 113.331 17.793C119.875 17.793 126.301 23.085 126.301 32.635V32.7567C126.301 42.2457 119.935 47.5986 113.331 47.5986C108.69 47.5986 105.775 45.2264 103.811 42.5499V52.6473C103.811 54.4721 102.383 55.932 100.598 55.932C98.873 55.932 97.4452 54.4721 97.4452 52.7081V21.1994ZM119.875 32.7567V32.635C119.875 27.0996 116.246 23.5109 111.903 23.5109C107.559 23.5109 103.752 27.2213 103.752 32.635V32.7567C103.752 38.2311 107.559 41.8808 111.903 41.8808C116.246 41.8808 119.875 38.4136 119.875 32.7567Z" fill="#6DB33F"/>
<path d="M128.8 21.1992C128.74 19.4353 130.168 17.9755 131.894 17.9146H131.953C133.739 17.9146 135.166 19.3744 135.166 21.1992V22.7808C135.464 20.3477 139.39 17.9146 142.187 17.9146C143.793 17.793 145.221 19.0095 145.339 20.6518V21.1384C145.339 22.72 144.269 24.0582 142.782 24.3014C138.2 25.0923 135.107 29.1678 135.107 34.8247V44.253C135.107 46.0778 133.678 47.4769 131.894 47.4769C130.168 47.4769 128.74 46.0778 128.74 44.3139C128.74 44.3139 128.74 44.3139 128.74 44.253L128.8 21.1992Z" fill="#6DB33F"/>
<path d="M147.898 21.2602C147.839 19.4962 149.266 18.0364 150.993 17.9756H151.052C152.836 17.9756 154.264 19.4354 154.264 21.2602V44.314C154.264 46.1388 152.836 47.5379 151.052 47.5379C149.266 47.5379 147.898 46.0779 147.898 44.314V21.2602Z" fill="#6DB33F"/>
<path d="M157.537 21.2607C157.477 19.4966 158.905 18.0368 160.63 17.9759H160.689C162.475 17.9759 163.902 19.4357 163.902 21.2607V22.5988C165.807 19.5574 169.138 17.7934 172.648 17.9151C178.955 17.9151 182.584 22.2339 182.584 28.864V44.2535C182.643 46.0174 181.275 47.4165 179.55 47.4774C179.491 47.4774 179.491 47.4774 179.431 47.4774C177.705 47.5382 176.277 46.0783 176.218 44.3143V30.8714C176.218 26.4309 174.077 23.8762 170.209 23.8762C166.52 23.8762 163.902 26.5526 163.902 30.993V44.3143C163.902 46.1391 162.475 47.599 160.689 47.599C158.905 47.599 157.477 46.1391 157.477 44.3143L157.537 21.2607Z" fill="#6DB33F"/>
<path d="M210.784 17.8541C209 17.8541 207.572 19.3139 207.572 21.1388V23.0853C205.489 20.1047 202.575 17.7324 198.053 17.7324C191.509 17.7324 185.082 23.0245 185.082 32.5743V32.696C185.082 42.1852 191.448 47.538 198.053 47.538C202.693 47.538 205.609 45.1657 207.572 42.5502C207.275 47.7206 204.181 50.3969 198.766 50.3969C195.793 50.3969 192.818 49.667 190.2 48.1463C189.843 47.9638 189.485 47.9029 189.069 47.9029C187.582 47.9029 186.391 49.0587 186.332 50.5794C186.332 51.7352 187.046 52.8301 188.117 53.195C191.509 54.8981 195.196 55.7498 198.945 55.7498C204.002 55.7498 207.929 54.5332 210.429 51.9176C212.748 49.5454 213.998 45.9565 213.998 41.1511V21.1997C214.057 19.3747 212.629 17.9149 210.845 17.8541H210.784ZM199.539 41.881C195.137 41.881 191.568 38.3531 191.568 32.696V32.5743C191.568 27.0391 195.196 23.4502 199.539 23.4502C203.884 23.4502 207.691 27.1608 207.691 32.5743V32.696C207.75 38.1706 203.943 41.881 199.539 41.881Z" fill="#6DB33F"/>
<path d="M154.324 10.0678C154.324 11.8926 152.897 13.3525 151.111 13.3525C149.327 13.3525 147.898 11.8926 147.898 10.0678C147.898 8.24294 149.327 6.78309 151.111 6.78309C152.836 6.72225 154.265 8.18212 154.324 9.94611V10.0678Z" fill="#6DB33F"/>
<path d="M50.918 51.5528C54.8447 46.8081 57.2245 40.847 57.641 34.6426L50.918 51.5528Z" fill="#6DB33F"/>
</g>
<defs>
<clipPath id="clip0_657_7306">
<rect width="214" height="64" fill="white"/>
</clipPath>
</defs>
</svg>
