<svg width="232" height="64" viewBox="0 0 232 64" fill="none" xmlns="http://www.w3.org/2000/svg">
<path d="M49.9057 31.8529C49.9057 25.4694 45.3519 20.1817 39.7236 20.1817C34.0314 20.1817 29.4883 25.4694 29.4883 31.8529C29.4883 38.279 34.0314 43.5667 39.7236 43.5667C45.3519 43.5667 49.9057 38.279 49.9057 31.8529ZM56.481 31.8529C56.481 41.8431 49.4162 49.748 39.7236 49.748C29.9777 49.748 22.9023 41.8431 22.9023 31.8529C22.9023 21.9159 29.9777 14.0003 39.7236 14.0003C49.4162 14.0003 56.481 21.9159 56.481 31.8529Z" fill="#00BBC9"/>
<path d="M15.7253 21.1727V49.4092H9.20326V21.1727H0V15.0871H24.918V21.1727H15.7253Z" fill="#00B1DB"/>
<path d="M84.4412 35.8073C84.4412 44.5634 79.8449 50 71.1842 50C62.5236 50 57.9805 44.5634 57.9805 35.8073V15.0928H64.5132V36.0094C64.5132 41.095 66.7369 43.6697 71.1842 43.6697C75.6316 43.6697 77.8659 41.095 77.8659 36.0094V15.0928H84.4412V35.8073Z" fill="#4DBEA9"/>
<path d="M102.475 49.999C93.133 49.999 85.8555 42.1366 85.8555 32.1039C85.8555 22.0605 93.133 14.1981 102.475 14.1981C110.241 14.1981 115.976 18.6027 118.104 25.6246H111.029C109.497 22.5073 106.432 20.188 102.475 20.188C96.8355 20.188 92.3882 25.6246 92.3882 32.1039C92.3882 38.6257 96.8355 44.0623 102.475 44.0623C106.379 44.0623 109.497 41.6472 111.029 38.53H118.051C115.87 45.4986 110.093 49.999 102.475 49.999Z" fill="#6EC288"/>
<path d="M147.193 49.4053H140.66V34.9147H126.03V49.4053H119.455V15.0938H126.03V28.8397H140.66V15.0938H147.193V49.4053Z" fill="#88C773"/>
<path d="M156.868 43.3245H173.924V49.4102H150.293V15.0881H156.868V43.3245Z" fill="#A9CF52"/>
<path d="M188.037 22.3604L183.238 36.4467H192.835L188.037 22.3604ZM181.217 42.5323L178.886 49.4053H171.971L183.93 15.0938H192.197L204.156 49.4053H197.24L194.91 42.5323H181.217Z" fill="#C8DA33"/>
<path d="M219.766 34.5742H210.616V43.426H219.915C222.436 43.426 224.905 42.4366 224.905 39.0746C224.905 36.202 223.075 34.5742 219.766 34.5742ZM210.616 21.0305V28.595H219.915C222.139 28.595 223.915 27.0629 223.915 24.7862C223.915 22.5094 222.383 21.0305 219.915 21.0305H210.616ZM220.809 49.4053H204.094V15.0938H219.915C226.788 15.0938 230.246 18.658 230.246 24.3925C230.246 27.2544 229.012 29.5844 226.884 31.1165C229.799 32.6485 231.587 35.4147 231.587 39.3193C231.587 45.4581 227.426 49.4053 220.809 49.4053Z" fill="#E2E31B"/>
</svg>
