<svg xmlns="http://www.w3.org/2000/svg" width="116" height="64" fill="none" viewBox="0 0 116 64">
    <g clip-path="url(#a)">
        <path fill="#000"
              d="M15.91 47.017c5.451 0 9.666-4.212 9.666-10.446V12.309h5.9v39.313h-5.844v-3.65c-2.64 2.751-6.293 4.324-10.396 4.324-8.43 0-14.893-6.122-14.893-15.384V12.316h5.9V36.57c0 6.346 4.158 10.446 9.666 10.446M35.86 12.31h5.677v14.321a14.17 14.17 0 0 1 10.171-4.269c8.43 0 15.06 6.684 15.06 14.996 0 8.256-6.63 14.938-15.06 14.938a14.3 14.3 0 0 1-10.232-4.268v3.593h-5.623zm15.455 34.988c5.396 0 9.835-4.437 9.835-9.94 0-5.56-4.44-9.941-9.835-9.941-5.451 0-9.89 4.38-9.89 9.94 0 5.504 4.382 9.941 9.89 9.941M83.743 22.419c8.26 0 14.33 6.346 14.33 14.882v1.854h-23.32c.788 4.661 4.665 8.143 9.496 8.143 3.318 0 6.126-1.348 8.261-4.212l4.103 3.032c-2.867 3.82-7.138 6.122-12.364 6.122-8.598 0-15.23-6.403-15.23-14.939 0-8.087 6.35-14.882 14.724-14.882m-8.88 12.243h17.478c-.955-4.381-4.495-7.301-8.71-7.301s-7.755 2.92-8.767 7.301M113.303 28.035c-3.71 0-6.407 2.864-6.407 7.3v16.288h-5.677V22.98h5.624v3.54c1.405-2.302 3.709-3.762 6.856-3.762h1.966v5.279z"/>
    </g>
    <defs>
        <clipPath id="a">
            <path fill="#fff" d="M0 0h116v64H0z"/>
        </clipPath>
    </defs>
</svg>