<svg width="213" height="64" viewBox="0 0 213 64" fill="none" xmlns="http://www.w3.org/2000/svg">
<g clip-path="url(#clip0_657_7461)">
<path d="M91.5185 45.9643L82.1585 19.9368C82.0353 19.5673 81.8711 19.1157 81.8711 18.6641C81.8711 17.5557 82.8153 16.4473 84.2111 16.4473C85.4016 16.4473 86.1817 17.2273 86.5511 18.3357L94.3101 40.7917L102.11 18.2946C102.48 17.2273 103.178 16.4473 104.368 16.4473H104.614C105.887 16.4473 106.626 17.2273 106.996 18.2946L114.755 40.7917L122.637 18.2536C122.924 17.3094 123.581 16.4473 124.854 16.4473C126.167 16.4473 127.111 17.4736 127.111 18.582C127.111 18.9925 126.947 19.4852 126.824 19.8547L117.423 45.9643C116.93 47.3191 115.986 48.058 114.919 48.058H114.755C113.564 48.058 112.661 47.3601 112.25 45.9643L104.573 23.8368L96.8144 45.9643C96.4038 47.3191 95.5007 48.058 94.3101 48.058H94.187C92.9554 48.017 91.9701 47.3191 91.5185 45.9643Z" fill="#707074"/>
<path d="M159.666 18.7463C159.666 17.4736 160.692 16.4062 161.924 16.4062C163.238 16.4062 164.264 17.4326 164.264 18.7463V24.0421C166.522 18.9105 171.571 16.4884 174.897 16.4884C176.293 16.4884 177.155 17.5147 177.155 18.8284C177.155 20.101 176.334 20.9631 175.102 21.1684C169.149 21.8663 164.223 26.3821 164.223 35.2496V45.7181C164.223 46.9907 163.279 48.0581 161.965 48.0581C160.651 48.0581 159.625 47.0318 159.625 45.7181L159.666 18.7463Z" fill="#707074"/>
<path d="M191.977 48.3454C183.684 48.3454 176.91 41.9001 176.91 32.4579V32.3348C176.91 23.5494 183.068 16.4473 191.402 16.4473C200.351 16.4473 205.442 23.8368 205.442 31.9242C205.442 33.1558 204.457 34.059 203.348 34.059H181.508C182.165 40.6685 186.763 44.4043 192.141 44.4043C195.877 44.4043 198.627 42.9264 200.844 40.8738C201.214 40.5864 201.624 40.3401 202.117 40.3401C203.225 40.3401 204.087 41.2433 204.087 42.3106C204.087 42.8443 203.841 43.378 203.389 43.7885C200.516 46.5391 197.149 48.3454 191.977 48.3454ZM200.926 30.6926C200.475 25.1505 197.313 20.3062 191.279 20.3062C186.024 20.3062 182.042 24.74 181.467 30.6926H200.926Z" fill="#707074"/>
<path d="M127.234 38.821V38.6979C127.234 32.2115 132.571 28.763 140.371 28.763C144.312 28.763 147.104 29.2967 149.855 30.0767V29.0094C149.855 23.4672 146.447 20.6346 140.7 20.6346C137.621 20.6346 135.814 21.0451 133.557 22.0304C133.269 22.1535 132.982 22.1946 132.735 22.1946C131.668 22.1946 130.724 21.2914 130.724 20.224C130.724 19.2798 131.134 18.7051 131.997 18.3356C135.034 17.0219 137.292 16.5703 141.233 16.5703C145.585 16.5703 148.91 17.6787 151.168 19.9777C153.262 22.0714 154.329 25.0272 154.329 28.9683V45.9642C154.329 47.2779 153.385 48.2221 152.112 48.2221C150.799 48.2221 149.937 47.2779 149.937 46.0874V43.1726C147.802 45.9642 144.23 48.4685 138.811 48.4685C133.023 48.4274 127.234 45.1432 127.234 38.821ZM149.896 36.4399V33.4841C147.638 32.8273 144.6 32.1704 140.864 32.1704C135.117 32.1704 131.873 34.6747 131.873 38.5336V38.6568C131.873 42.5158 135.445 44.7737 139.591 44.7737C145.257 44.7737 149.896 41.3252 149.896 36.4399Z" fill="#707074"/>
<path d="M8.26484 18.4594C7.23851 16.2426 4.77533 15.2573 2.43531 16.2836C0.0952957 17.3099 -0.766821 19.8963 0.300555 22.1131L10.0712 43.3375C11.5901 46.6628 13.2322 48.387 16.2702 48.387C19.5133 48.387 20.9502 46.4986 22.4692 43.3375C22.4692 43.3375 30.9671 24.7816 31.0903 24.5763C31.1724 24.371 31.4598 23.7963 32.3219 23.7963C33.0608 23.7963 33.6766 24.371 33.6766 25.151V43.2965C33.6766 46.0881 35.2366 48.387 38.1924 48.387C41.1893 48.387 42.7904 46.0881 42.7904 43.2965V28.4353C42.7904 25.5616 44.843 23.7142 47.6346 23.7142C50.4262 23.7142 52.2736 25.6437 52.2736 28.4353V43.2965C52.2736 46.0881 53.8336 48.387 56.7894 48.387C59.7863 48.387 61.3874 46.0881 61.3874 43.2965V28.4353C61.3874 25.5616 63.44 23.7142 66.2316 23.7142C69.0232 23.7142 70.8706 25.6437 70.8706 28.4353V43.2965C70.8706 46.0881 72.4306 48.387 75.3864 48.387C78.3833 48.387 79.9843 46.0881 79.9843 43.2965V26.3826C79.9843 20.1836 74.9759 15.832 68.9822 15.832C62.9884 15.832 59.2116 19.9784 59.2116 19.9784C57.2 17.392 54.4494 15.832 49.8104 15.832C44.8841 15.832 40.5735 19.9784 40.5735 19.9784C38.5619 17.392 35.1545 15.832 32.3629 15.832C28.0113 15.832 24.5629 17.7615 22.4281 22.5647L16.1881 37.2617L8.26484 18.4594Z" fill="#707074"/>
<path d="M205.809 20.3473C205.809 18.2536 207.492 16.4883 209.627 16.4883C211.761 16.4883 213.444 18.2125 213.444 20.3062C213.444 22.3999 211.761 24.1241 209.627 24.1241C207.451 24.1241 205.809 22.3999 205.809 20.3473ZM212.664 20.3062C212.664 18.582 211.351 17.1862 209.585 17.1862C207.861 17.1862 206.506 18.623 206.506 20.3062C206.506 21.9894 207.82 23.4262 209.585 23.4262C211.351 23.4262 212.664 21.9894 212.664 20.3062Z" fill="#707074"/>
<path d="M208.191 18.7465C208.191 18.5001 208.356 18.3359 208.602 18.3359H209.875C210.367 18.3359 210.737 18.4591 210.942 18.7054C211.147 18.9107 211.27 19.198 211.27 19.5265C211.27 20.1012 210.983 20.4707 210.531 20.6349L211.106 21.3328C211.188 21.4149 211.229 21.5381 211.229 21.6612C211.229 21.8665 211.024 22.0307 210.86 22.0307C210.696 22.0307 210.572 21.9486 210.449 21.8254L209.669 20.8402H209.012V21.6612C209.012 21.9075 208.848 22.0718 208.602 22.0718C208.356 22.0718 208.191 21.9075 208.191 21.6612V18.7465ZM209.834 20.1423C210.244 20.1423 210.449 19.937 210.449 19.6086C210.449 19.2802 210.203 19.0749 209.834 19.0749H209.012V20.1423H209.834Z" fill="#707074"/>
</g>
<defs>
<clipPath id="clip0_657_7461">
<rect width="213" height="64" fill="white"/>
</clipPath>
</defs>
</svg>
