<svg fill="none" height="30" viewBox="0 0 186 30" width="186" xmlns="http://www.w3.org/2000/svg"><g fill="#696566"><path d="m79.9094 27.7407-8.1378-23.98964c-.1451-.36847-.2328-.75745-.2598-1.15307.0097-.53301.2261-1.04086.6027-1.41429.3766-.373428.8832-.5826 1.4109-.582509.4856.014864.9517.1967 1.3212.515449.3695.31876.6203.75534.7109 1.2376l6.746 20.62416 6.7924-20.6804c.0883-.46654.3312-.88879.6888-1.19721.3576-.308419.8084-.484624 1.2784-.499599h.2134c.4843.003661.953.173631 1.329.481989.376.30835.6371.73675.7403 1.21482l6.7462 20.6992 6.857-20.74608c.082-.48833.343-.92766.731-1.23112.387-.303454.874-.448949 1.362-.407713.489.041237.944.266202 1.277.630413.332.36421.517.84116.518 1.33654-.029.40142-.116.79631-.26 1.17182l-8.193 24.01774c-.118.5069-.393.9623-.786 1.2997-.392.3374-.881.539-1.395.5753h-.158c-.5218-.0091-1.0247-.201-1.4224-.5429-.3977-.342-.6655-.8128-.7579-1.3321l-6.6903-20.38976-6.7181 20.36166c-.0924.5193-.3603.9901-.758 1.3321-.3976.3419-.9005.5338-1.4226.5428h-.1392c-.5231-.0234-1.0241-.2195-1.4264-.5582-.4022-.3386-.6835-.8011-.8007-1.3167z"/><path d="m139.278 2.69173c-.015-.54575.182-1.07565.55-1.47548.368-.399827.877-.637554 1.417-.661932.274.001073.544.057726.796.16659s.479.267717.668.467112c.19.1994.338.43527.435.69359.098.25832.143.53382.133.81012v4.86543c1.967-4.68731 6.347-6.955969 9.279-6.955969.274-.002077.545.053138.796.162158.251.109019.477.269471.663.471221.187.20175.33.44041.421.7009.091.2605.127.53716.106.81251.023.51572-.146 1.0214-.474 1.41713-.328.39574-.792.65275-1.298.72028-5.197.65623-9.456 4.78106-9.456 12.96511v9.6184c.019.2768-.019.5546-.111.8161s-.236.501-.424.7038c-.187.2028-.414.3645-.666.4751-.252.1105-.524.1676-.798.1676-.275 0-.547-.0571-.799-.1676-.252-.1106-.478-.2723-.666-.4751s-.332-.4423-.424-.7038-.13-.5393-.111-.8161z"/><path d="m175.133 13.6319c-.409-5.10915-3.164-9.5621-8.407-9.5621-4.584 0-8.045 4.06858-8.546 9.5621zm-7.795 16.2462c-7.228 0-13.139-5.9247-13.139-14.615v-.1125c0-8.09967 5.354-14.615032 12.629-14.615032 7.794 0 12.276 6.787222 12.276 14.230632.012.2533-.028.5062-.116.7435s-.223.4541-.397.6372c-.173.1831-.382.3288-.613.4283-.23.0995-.479.1506-.73.1503h-19.068c.556 6.0842 4.574 9.5059 9.279 9.5059 1.417.003 2.82-.2836 4.124-.8426 1.305-.5591 2.484-1.379 3.466-2.4104.3-.3007.701-.475 1.123-.4875.464.0074.905.2 1.229.5355.323.3355.502.7868.497 1.2551-.004.2569-.061.5101-.166.7439-.106.2338-.258.4433-.446.6154-1.261 1.3801-2.799 2.4722-4.511 3.2029-1.713.7308-3.56 1.0835-5.418 1.0344"/><path d="m130.648 18.8911v-2.7374c-2.552-.7959-5.207-1.2034-7.878-1.2093-5.02 0-7.822 2.3061-7.822 5.8591v.1125c0 3.553 3.108 5.6248 6.736 5.6248 4.918 0 8.964-3.178 8.964-7.6591zm-19.737 2.1843v-.1125c0-5.9717 4.64-9.1497 11.442-9.1497 2.794-.025 5.576.3829 8.249 1.2094v-.975c0-5.09042-2.96-7.72468-7.98-7.72468-2.153-.09263-4.296.35506-6.236 1.30307-.228.10329-.474.16061-.724.16874-.465-.02325-.904-.22215-1.231-.55729-.326-.33513-.516-.782-.532-1.25201-.028-.371.063-.74126.258-1.05667s.485-.55943.828-.69639c2.512-1.19132 5.273-1.7479 8.045-1.621805 3.786 0 6.681 1.031205 8.648 3.112375 1.856 1.87492 2.784 4.68731 2.784 8.26846v15.6181c.015.2662-.024.5328-.114.7836-.09.2507-.229.4803-.409.675-.181.1946-.399.3501-.641.4571-.241.1071-.502.1633-.766.1654-.256.0068-.51-.0398-.747-.137-.237-.0971-.451-.2427-.63-.4275-.178-.1849-.317-.405-.408-.6466-.09-.2417-.13-.4995-.117-.7575v-2.6999c-1.101 1.5469-2.559 2.7994-4.247 3.6488-1.688.8495-3.556 1.2703-5.441 1.226-4.974 0-10.003-3.0186-10.003-8.8122"/><path d="m7.32743 2.38237c-.18684-.48029-.46979-.91645-.83114-1.28118-.36135-.364733-.79333-.650188-1.2689-.8385-.47558-.1883132-.9845-.2754297-1.49493-.25589804-.51043.01953174-1.01138.14529104-1.47149.36940804-.47331.225596-.89744.544111-1.24767.93698-.350238.39287-.619569.85224-.792302 1.35133-.1727316.4991-.2454091 1.02793-.21379625 1.55569.03161285.52775.16688325 1.04388.39792825 1.51828l8.49976 19.57422c1.33621 3.0561 2.78381 4.6873 5.39121 4.6873 2.7838 0 4.055-1.7437 5.3912-4.6873l7.4884-17.28681c.0771-.2211.2224-.4114.4144-.54299.1921-.1316.4208-.19756.6527-.18823.1596.00485.3168.04144.4624.10768.1457.06624.277.16083.3864.27837.1095.11753.1949.25571.2515.40662.0565.15092.0831.31161.0781.4729v16.68686c0 2.5686 1.3455 4.6873 3.9437 4.6873s3.9993-2.1093 3.9993-4.6873v-13.6495c-.0328-.5723.0533-1.1452.2529-1.68178.1995-.53663.5081-1.0251.9058-1.43396s.8758-.72907 1.4034-.93999c.5276-.21093 1.093-.30791 1.66-.2847 2.4311 0 4.055 1.76243 4.055 4.34043v13.6495c0 2.5686 1.3548 4.6873 3.9437 4.6873s4.0086-2.1093 4.0086-4.6873v-13.6495c-.0342-.5718.0507-1.1445.2491-1.68112.1985-.53661.5062-1.02521.9032-1.43424s.8745-.72939 1.4016-.94041c.5272-.21101 1.0923-.30799 1.6589-.28466 2.4311 0 4.055 1.76243 4.055 4.34043v13.6495c0 2.5686 1.3547 4.6873 3.9436 4.6873s3.9994-2.1093 3.9994-4.6873v-15.53378c.0263-1.27875-.2028-2.54974-.6736-3.73702-.4709-1.18728-1.1738-2.26646-2.0669-3.17306-.893-.90659-1.9578-1.62199-3.1307-2.103425-1.1729-.481439-2.4298-.7190391-3.6957-.69859988-1.5957.03862358-3.1682.39560388-4.6269 1.05040488-1.4587.6548-2.7749 1.59451-3.8728 2.76507-1.7353-2.38116-4.1386-3.81547488-8.1936-3.81547488-4.2777 0-8.0265 3.81547488-8.0265 3.81547488-.8384-1.13154-1.9151-2.0608-3.1524-2.72064-1.2373-.659846-2.6041-1.0337961-4.0019-1.09483488-3.7859 0-6.8017 1.76242488-8.6389 6.20599488l-5.4284 13.48069z"/><path d="m185.368 4.05105c.007-.36273-.056-.72337-.187-1.06122-.131-.33786-.327-.64628-.576-.90757s-.547-.47032-.876-.61508c-.33-.14476-.684-.22242-1.043-.22852-.716.03378-1.391.34493-1.885.86873-.494.52381-.77 1.21996-.769 1.94366-.007.36274.056.72337.187 1.06123.131.33785.327.64627.576.90756s.547.47032.876.61508c.329.14477.684.22242 1.043.22852.73-.02691 1.421-.34279 1.922-.87947.502-.53668.775-1.25113.76-1.98917zm-5.967-.05625c-.005-.89498.335-1.75686.948-2.40271.613-.645849 1.452-1.024835 2.337-1.056522.446.007269.885.103781 1.294.283944.408.180164.777.440398 1.085.765628s.549.709.71 1.12906c.16.42007.236.86808.224 1.3181 0 .88761-.349 1.73887-.971 2.3665-.621.62764-1.463.98024-2.342.98024s-1.721-.3526-2.342-.98024c-.622-.62763-.971-1.47889-.971-2.3665"/><path d="m182.816 3.93856c.343 0 .538-.1875.538-.47811 0-.31874-.204-.48748-.547-.48748h-.706v.93746zm-1.392-1.27495c-.002-.04834.005-.09668.021-.14209.017-.04541.043-.08693.076-.12202s.072-.06302.116-.08208c.044-.01907.092-.02886.14-.0288h1.104c.17-.00941.34.01651.499.07617.16.05967.306.1518.429.27069.095.1045.169.22713.217.36073.047.1336.068.27549.061.41737.016.21828-.038.43585-.153.62123s-.286.32896-.487.40998l.492.6281c.067.07833.107.17746.111.28123.001.04511-.006.09-.023.13204-.016.04203-.04.08035-.071.11269-.032.03233-.069.05804-.11.07558s-.085.02657-.13.02655c-.068-.00142-.134-.01917-.194-.05178-.06-.0326-.111-.07913-.149-.13571l-.687-.93746h-.566v.73122c.003.04834-.005.09668-.021.14209-.017.04541-.042.08693-.075.12202s-.073.06302-.117.08208-.092.02886-.14.0288c-.048.00006-.095-.00974-.139-.0288s-.084-.04699-.117-.08208-.058-.07661-.075-.12202c-.016-.04541-.024-.09375-.021-.14209z"/></g></svg>