<svg width="123" height="64" viewBox="0 0 123 64" fill="none" xmlns="http://www.w3.org/2000/svg">
<path d="M51.1132 18.5071C50.1366 27.8751 46.1602 43.5038 39.787 50.5237C34.0089 56.8882 26.9689 54.5153 24.51 46.65C23.1667 42.3531 22.996 37.4661 22.8797 32.9836C22.7106 33.0126 22.6509 33.2048 22.5789 33.3385C19.4516 39.1436 17.2337 45.9318 13.5585 51.4729C11.6446 54.3586 9.49284 54.1987 6.34915 53.7483C3.10828 53.2841 1.72059 53.0379 0.969518 49.5858C-0.975283 40.6471 0.327481 28.0327 2.05884 19.046C2.81943 15.0982 2.85553 12.7758 7.41488 12.2168C8.30643 12.1075 10.4664 11.9302 11.2588 12.138C11.8386 12.2901 12.102 12.7986 12.1993 13.3578C9.8798 24.6542 8.0906 36.1914 9.47705 47.7591C9.6557 47.7313 9.69769 47.5322 9.77496 47.4013C11.7862 43.9934 13.6831 39.4453 15.3905 35.7895C18.2199 29.7316 20.6719 23.2244 23.5717 17.2858C23.8939 16.626 24.3127 15.7072 25.0146 15.3834C26.1196 14.8736 30.3769 14.7009 31.1886 15.6214C31.4266 15.8912 31.5141 16.3498 31.5456 16.7015C31.7268 18.7274 31.2513 21.6712 31.1799 23.7889C30.9822 29.6599 30.4648 40.2378 32.5512 45.5947C34.1836 49.7859 36.3743 47.7955 37.7303 44.8372C41.1269 37.4272 42.0519 23.8001 41.8663 15.6203C41.8351 14.2494 41.3443 11.3517 41.8395 10.1974C42.1246 9.53299 42.5541 9.21332 43.2566 9.10974C44.6258 8.90786 48.5632 8.94899 49.7726 9.53604C50.6031 9.93915 51.0944 10.6917 51.2985 11.5947C51.6868 13.3119 51.3055 16.6631 51.1132 18.5071ZM122.995 26.0593C122.863 27.8832 121.294 28.8399 119.627 28.9039L112.328 29.0204C111.828 32.1882 111.077 35.3147 110.582 38.4843C110.229 40.7375 109.399 45.1657 110.066 47.2248C110.691 49.1507 112.292 49.5921 114.13 49.1648C115.752 48.7877 117.061 47.4309 117.999 46.1152C118.855 44.9144 118.933 43.5974 120.748 44.3361C123.096 45.2911 121.281 47.4696 120.321 48.8271C117.15 53.3121 110.823 57.0393 105.529 53.7417C103.288 52.3458 102.556 49.8666 102.065 47.3975C98.8955 52.2645 93.7259 55.8717 87.72 54.3572C79.661 52.3249 82.7581 41.1296 83.6173 35.266C81.9244 36.7583 79.9003 37.7855 77.7101 38.2936C76.2994 45.4732 71.9592 52.8342 64.3095 54.2137C50.1788 56.7618 47.454 43.155 51.838 32.9476C53.2993 29.5451 55.5506 26.5203 58.4325 24.5974C62.3218 22.0025 67.9323 21.0254 72.3109 22.8712C76.3396 24.5696 78.0452 28.6484 78.1621 32.8636C80.8834 32.4606 83.1824 30.5112 84.8652 28.4198C85.6708 24.3331 86.3447 20.2163 87.214 16.1428C87.4906 14.8466 88.0066 11.4914 88.7195 10.5799C89.8727 9.1055 94.1725 9.28671 95.7952 9.78155C97.8104 10.3961 97.4436 12.5887 97.2455 14.2884C96.6382 19.4981 94.4606 23.8607 93.1425 28.7532C92.0036 32.9809 90.9312 38.407 90.7374 42.7751C90.6533 44.6709 90.4792 48.6323 92.959 49.052C97.6655 49.8484 101.221 42.8437 102.42 39.1087L103.904 29.3793C103.173 29.3902 102.437 29.3677 101.704 29.3748C100.935 29.3823 100.531 29.6282 99.6667 29.2858C98.7929 28.9394 98.761 28.3669 98.7985 27.5123C98.847 26.408 99.1514 23.7849 100.432 23.521C101.154 23.372 104.951 23.6719 105.154 23.3783L106.626 15.9787C106.828 15.3881 107.405 14.8586 108.025 14.7531C109.123 14.5665 112.645 14.6732 113.62 15.1563C114.283 15.4848 114.658 16.0661 114.687 16.8138L113.276 23.9734C114.096 23.882 114.916 24.0481 115.709 24.0929C117.5 24.1942 119.509 24.1392 121.27 24.3477C122.203 24.4583 123.072 25.0018 122.995 26.0593ZM70.2157 36.8942C70.181 36.6718 69.0454 35.5652 68.7699 35.1061C67.2617 32.5922 67.7396 29.6345 68.0656 26.8688C62.835 25.6175 60.3747 32.0021 59.4552 36.0841C58.6965 39.4521 57.0871 49.4733 62.4382 49.6863C66.1775 49.8352 68.6015 43.5254 69.4422 40.5512C69.6298 39.8875 70.2976 37.4181 70.2157 36.8942Z" fill="black"/>
</svg>
