<svg width="93" height="64" viewBox="0 0 93 64" fill="none" xmlns="http://www.w3.org/2000/svg">
<path fill-rule="evenodd" clip-rule="evenodd" d="M30.5098 51.9035V63.6907H33.1424V60.0744C33.2006 60.0569 35.0753 60.074 35.1335 60.0565L37.6092 63.6907H40.6667L37.6672 59.5088C38.366 59.2176 38.9078 58.7932 39.2864 58.2283C39.7231 57.6343 39.9092 56.7138 39.8801 55.8286C39.8801 54.955 39.676 54.233 39.2974 53.6506C38.3831 52.3112 36.8109 51.921 35.1045 51.9035L30.5098 51.9035ZM33.1424 54.2035H35.2504C35.6289 54.2035 35.9663 54.204 36.24 54.3613C36.5195 54.5185 36.7355 54.7393 36.8986 55.013C37.2189 55.5546 37.2189 56.4398 36.8986 56.9931C36.5491 57.5871 35.9667 57.8786 35.2504 57.8786H33.1424V54.2035Z" fill="#46BEAA"/>
<path fill-rule="evenodd" clip-rule="evenodd" d="M22.9082 51.6418C21.9232 51.6418 20.9355 51.8162 20.1842 52.1656C18.7167 52.8179 17.5984 54.0114 17.0568 55.479C16.7365 56.306 16.6378 57.1391 16.667 57.9777C16.6786 60.2198 18.0359 62.4734 20.1441 63.446C21.6409 64.1856 24.1739 64.1856 25.6764 63.446C27.8021 62.4734 29.1416 60.2198 29.1707 57.9777C29.2289 56.382 28.687 54.7514 27.5805 53.5459C27.0564 52.981 26.4046 52.515 25.6184 52.1656C24.8759 51.8162 23.8931 51.6418 22.9082 51.6418ZM22.9218 54.0407C24.8728 54.0407 26.4331 55.3918 26.4331 57.8378C26.4331 59.8703 25.1232 61.6119 22.9218 61.6119C20.6971 61.6119 19.4156 59.8703 19.4156 57.8378C19.4156 55.7296 20.6098 54.0407 22.9218 54.0407Z" fill="#46BEAA"/>
<path fill-rule="evenodd" clip-rule="evenodd" d="M50.084 51.9037V63.7489H54.4228C55.4885 63.7489 56.4151 63.592 57.2013 63.26C58.6864 62.6602 59.822 61.53 60.3927 60.0857C60.6956 59.2878 60.8001 58.4725 60.7826 57.6339C60.7826 56.1314 60.2583 54.6928 59.1984 53.6329C57.9463 52.4158 56.3039 51.8921 54.4228 51.9037H50.084ZM52.7226 54.2036H54.4817C55.0349 54.2036 55.5293 54.2739 55.966 54.4195C56.8396 54.7223 57.4628 55.3341 57.7831 56.1785C58.1209 57.0929 58.1325 58.4728 57.7831 59.393C57.4628 60.2607 56.8396 60.8723 55.966 61.2101C55.5293 61.3673 55.0349 61.4549 54.4817 61.4549H52.7226V54.2036Z" fill="#46BEAA"/>
<path fill-rule="evenodd" clip-rule="evenodd" d="M11.8747 61.3844C11.6883 61.3844 11.6883 61.3844 11.6883 61.3844C9.74898 52.311 9.74899 52.311 9.74899 52.311C7.01182 52.311 7.01181 52.311 7.01181 52.311C5.29963 61.3844 5.29963 61.3844 5.29963 61.3844C5.03756 61.3844 5.03757 61.3844 5.03757 61.3844C2.69059 51.9907 2.69059 51.9907 2.69059 51.9907C1.49957e-05 51.9907 0 51.9907 0 51.9907C2.88276 63.6906 2.88277 63.6906 2.88277 63.6906C6.92446 63.6906 6.92446 63.6906 6.92446 63.6906C8.36875 56.5682 8.36876 56.5682 8.36876 56.5682C9.9237 63.6906 9.92369 63.6906 9.92369 63.6906C14.0469 63.6906 14.0469 63.6906 14.0469 63.6906C16.6094 51.9907 16.6094 51.9907 16.6094 51.9907C13.9013 51.9907 13.9013 51.9907 13.9013 51.9907L11.8747 61.3844Z" fill="#46BEAA"/>
<path fill-rule="evenodd" clip-rule="evenodd" d="M82.1676 62.8346C81.9754 62.8346 81.9754 62.8346 81.9754 62.8346C75.1965 51.9907 75.1965 51.9907 75.1965 51.9907C73.4785 51.9907 73.4785 51.9907 73.4785 51.9907C73.4785 63.6906 73.4785 63.6906 73.4785 63.6906C74.422 63.6906 74.422 63.6906 74.422 63.6906C74.422 52.8468 74.422 52.8468 74.422 52.8468C74.6549 52.8468 74.6549 52.8468 74.6549 52.8468C81.4396 63.6906 81.4396 63.6906 81.4396 63.6906C83.111 63.6906 83.111 63.6906 83.111 63.6906C83.111 51.9907 83.111 51.9907 83.111 51.9907C82.1676 51.9907 82.1676 51.9907 82.1676 51.9907V62.8346Z" fill="#46BEAA"/>
<path fill-rule="evenodd" clip-rule="evenodd" d="M86.3027 62.8346C86.3027 58.1115 86.3027 58.1115 86.3027 58.1115C91.4684 58.1115 91.4684 58.1115 91.4684 58.1115C91.4684 57.2845 91.4684 57.2845 91.4684 57.2845C86.3027 57.2845 86.3027 57.2845 86.3027 57.2845C86.3027 52.8468 86.3027 52.8468 86.3027 52.8468C91.8644 52.8468 91.8644 52.8468 91.8644 52.8468C91.8644 51.9907 91.8644 51.9907 91.8644 51.9907C85.3418 51.9907 85.3418 51.9907 85.3418 51.9907C85.3418 63.6906 85.3418 63.6906 85.3418 63.6906C92.0508 63.6906 92.0508 63.6906 92.0508 63.6906C92.0508 62.8345 92.0508 62.8346 92.0508 62.8346H86.3027Z" fill="#46BEAA"/>
<path fill-rule="evenodd" clip-rule="evenodd" d="M69.9668 63.6906C70.9161 63.6906 70.9161 63.6906 70.9161 63.6906C70.9161 51.9907 70.9161 51.9907 70.9161 51.9907C69.9668 51.9907 69.9668 51.9907 69.9668 51.9907V63.6906Z" fill="#46BEAA"/>
<path fill-rule="evenodd" clip-rule="evenodd" d="M63.5372 51.9907C62.5879 51.9907 62.5879 51.9907 62.5879 51.9907C62.5879 63.6906 62.5879 63.6906 62.5879 63.6906C68.8776 63.6906 68.8776 63.6906 68.8776 63.6906C68.8776 62.8345 68.8776 62.8346 68.8776 62.8346C63.5372 62.8346 63.5372 62.8346 63.5372 62.8346V51.9907Z" fill="#46BEAA"/>
<path fill-rule="evenodd" clip-rule="evenodd" d="M44.4058 51.9907C41.7734 51.9907 41.7734 51.9907 41.7734 51.9907C41.7734 63.6906 41.7734 63.6906 41.7734 63.6906C48.9949 63.6906 48.9949 63.6906 48.9949 63.6906C48.9949 61.3844 48.9949 61.3844 48.9949 61.3844C44.4058 61.3844 44.4058 61.3844 44.4058 61.3844V51.9907Z" fill="#46BEAA"/>
<path fill-rule="evenodd" clip-rule="evenodd" d="M91.4564 37.9782C90.3556 40.2238 89.4749 42.7116 88.8145 45.4416C92.0509 45.4416 92.0509 45.4416 92.0509 45.4416C92.0509 42.8657 91.8968 40.4 91.4564 37.9782Z" fill="#46BEAA"/>
<path fill-rule="evenodd" clip-rule="evenodd" d="M76.6602 45.4416C79.8966 45.4416 79.8965 45.4416 79.8965 45.4416C81.3936 37.0974 84.8502 31.043 88.1526 26.8159C87.7123 25.7811 87.1619 24.7242 86.6114 23.6895C81.988 29.0835 78.2453 36.3268 76.6602 45.4416Z" fill="#46BEAA"/>
<path fill-rule="evenodd" clip-rule="evenodd" d="M81.6144 16.27C80.9539 15.4554 80.2274 14.6188 79.5228 13.8482C72.4116 21.1136 66.4671 31.6594 64.5957 45.4416C67.8541 45.4416 67.8542 45.4416 67.8542 45.4416C69.7256 32.0337 75.5598 22.9189 80.5575 17.3708C80.9538 16.9745 81.2842 16.6002 81.6144 16.27Z" fill="#46BEAA"/>
<path fill-rule="evenodd" clip-rule="evenodd" d="M72.9629 8.14594C72.0822 7.48545 71.2017 6.86909 70.277 6.31868C69.8366 6.759 69.4403 7.19928 69 7.6396C63.672 13.584 57.6176 22.6548 54.4252 35.4462C53.4344 30.2944 52.0474 25.2747 50.2861 20.5632C53.7647 12.8134 58.102 6.75899 62.0649 2.31169C61.0302 1.93741 59.9293 1.54112 58.8284 1.21087C55.3499 5.21785 51.7832 10.2815 48.6349 16.5562C46.4332 11.3163 43.6812 6.49471 40.5549 2.09145C40.0045 1.38692 39.4982 0.660492 38.9478 2.10517e-06C36.526 0.330247 34.1261 0.946704 31.8144 1.65123C37.3625 8.08 41.8759 16.1599 44.9582 25.3848C43.7913 28.6432 42.8005 32.1438 42.03 35.8866C39.8944 26.0013 35.9976 16.8645 30.5375 9.35694C29.1725 7.41951 27.6753 5.61414 26.1342 3.96291C24.1087 4.8876 22.1272 6.05451 20.2559 7.30944C28.9963 16.16 35.1609 29.744 36.9222 45.4416C43.8573 45.4416 43.8574 45.4416 43.8574 45.4416C44.3417 40.1137 45.2884 35.2261 46.5433 30.7788C47.7542 35.4462 48.635 40.3338 49.1413 45.4416C55.7903 45.4416 55.7902 45.4416 55.7902 45.4416C57.7717 28.3129 65.1031 16.7103 71.3778 9.79716C71.9282 9.1807 72.4125 8.6303 72.9629 8.14594Z" fill="#46BEAA"/>
<path fill-rule="evenodd" clip-rule="evenodd" d="M0 45.4416C6.71498 45.4416 6.71502 45.4416 6.71502 45.4416C5.72429 40.8402 4.07306 36.5471 1.6953 32.8704C0.594484 36.8773 0 41.0604 0 45.4416Z" fill="#46BEAA"/>
<path fill-rule="evenodd" clip-rule="evenodd" d="M7.52976 20.1669C6.27483 22.1043 5.10792 24.1738 4.11719 26.3314C8.14618 31.2631 11.0523 37.868 12.3733 45.4416C19.0883 45.4416 19.0883 45.4416 19.0883 45.4416C17.8334 37.3176 14.9052 29.8541 10.502 23.8436C9.57729 22.5446 8.58654 21.3338 7.52976 20.1669Z" fill="#46BEAA"/>
<path fill-rule="evenodd" clip-rule="evenodd" d="M20.5197 16.6003C26.31 24.5702 30.0529 34.5655 31.3738 45.4416C24.7029 45.4416 24.7028 45.4416 24.7028 45.4416C23.0076 33.1345 17.9879 22.4787 11.0527 15.5656C12.4838 13.8483 14.0249 12.3071 15.6761 10.832C17.3934 12.5933 19.0446 14.4647 20.5197 16.6003Z" fill="#46BEAA"/>
</svg>
