<?xml version="1.0" encoding="UTF-8" standalone="no"?>
<!-- Created with Inkscape (http://www.inkscape.org/) -->

<svg
   version="1.1"
   id="svg824"
   xml:space="preserve"
   width="700"
   height="486.69162"
   viewBox="0 0 700 486.69164"
   sodipodi:docname="Logo Worldline - 2021.svg"
   inkscape:version="1.1.1 (c3084ef, 2021-09-22)"
   xmlns:inkscape="http://www.inkscape.org/namespaces/inkscape"
   xmlns:sodipodi="http://sodipodi.sourceforge.net/DTD/sodipodi-0.dtd"
   xmlns="http://www.w3.org/2000/svg"
   xmlns:svg="http://www.w3.org/2000/svg"><defs
     id="defs828" /><sodipodi:namedview
     id="namedview826"
     pagecolor="#ffffff"
     bordercolor="#666666"
     borderopacity="1.0"
     inkscape:pageshadow="2"
     inkscape:pageopacity="0.0"
     inkscape:pagecheckerboard="0"
     showgrid="false"
     inkscape:zoom="0.70549419"
     inkscape:cx="228.91755"
     inkscape:cy="255.1403"
     inkscape:window-width="1440"
     inkscape:window-height="900"
     inkscape:window-x="0"
     inkscape:window-y="0"
     inkscape:window-maximized="0"
     inkscape:current-layer="g830" /><g
     id="g830"
     inkscape:groupmode="layer"
     inkscape:label="Logo Worldline - 2021"
     transform="matrix(1.3333333,0,0,-1.3333333,-649.30508,1072.387)"><g
       id="g3226"
       transform="matrix(3.3215236,0,0,3.3215236,-616.76347,-2161.8731)"><path
         id="path3056"
         style="fill:#46beaa;fill-opacity:1;fill-rule:evenodd;stroke:none;stroke-width:1.33333"
         d="m 512.91992,50.707031 v 26.986328 h 6.02735 v -8.279297 c 0.13333,-0.04 4.42526,-0.001 4.55859,-0.04102 l 5.66797,8.320312 h 7 l -6.86719,-9.574218 c 1.6,-0.666667 2.84037,-1.638308 3.70703,-2.931641 1,-1.36 1.42604,-3.467474 1.35938,-5.494141 0,-2 -0.46732,-3.652994 -1.33399,-4.986328 -2.09333,-3.066666 -5.69294,-3.96 -9.59961,-4 z m 6.02735,5.265625 h 4.82617 c 0.86666,0 1.63896,0.0013 2.26562,0.361328 0.64,0.36 1.13448,0.865521 1.50782,1.492188 0.73333,1.24 0.73333,3.266536 0,4.533203 -0.8,1.36 -2.13344,2.027344 -3.77344,2.027344 h -4.82617 z"
         transform="matrix(0.75000002,0,0,-0.75000002,0,841.92002)" /><path
         id="path3052"
         style="fill:#46beaa;fill-opacity:1;fill-rule:evenodd;stroke:none;stroke-width:1.33333"
         d="m 495.51562,50.107422 c -2.25499,0 -4.51632,0.399219 -6.23632,1.199219 -3.36,1.493333 -5.92016,4.225937 -7.16016,7.585937 -0.73333,1.893333 -0.95924,3.800703 -0.89258,5.720703 0.0267,5.133333 3.13427,10.292865 7.96094,12.519531 3.42667,1.693334 9.22602,1.693334 12.66602,0 4.86666,-2.226666 7.93333,-7.386198 8,-12.519531 0.13333,-3.653333 -1.1073,-7.386484 -3.64063,-10.146484 -1.2,-1.293333 -2.69219,-2.360156 -4.49219,-3.160156 -1.7,-0.8 -3.95008,-1.199219 -6.20508,-1.199219 z m 0.0313,5.492187 c 4.46666,0 8.03906,3.09336 8.03906,8.69336 0,4.653333 -2.99907,8.640625 -8.03906,8.640625 -5.09334,0 -8.02735,-3.987292 -8.02735,-8.640625 0,-4.826667 2.73401,-8.69336 8.02735,-8.69336 z"
         transform="matrix(0.75000002,0,0,-0.75000002,0,841.92002)" /><path
         id="path3048"
         style="fill:#46beaa;fill-opacity:1;fill-rule:evenodd;stroke:none;stroke-width:1.33333"
         d="m 557.73242,50.707031 v 27.119141 h 9.9336 c 2.44,0 4.56132,-0.359141 6.36132,-1.119141 3.4,-1.373333 5.99998,-3.960911 7.30664,-7.267578 0.69334,-1.826666 0.93258,-3.693281 0.89258,-5.613281 0,-3.44 -1.20028,-6.73349 -3.62695,-9.160156 -2.86667,-2.786667 -6.62693,-3.985651 -10.93359,-3.958985 z m 6.04102,5.265625 h 4.02734 c 1.26667,0 2.39844,0.160808 3.39844,0.494141 2,0.693333 3.42682,2.09401 4.16016,4.027344 0.77333,2.093333 0.79999,5.252708 0,7.359375 -0.73334,1.986666 -2.16016,3.386823 -4.16016,4.160156 -1,0.36 -2.13177,0.560547 -3.39844,0.560547 h -4.02734 z"
         transform="matrix(0.75000002,0,0,-0.75000002,0,841.92002)" /><path
         style="fill:#46beaa;fill-opacity:1;fill-rule:evenodd;stroke:none"
         d="m 352.69,787.61 c -0.32,0 -0.32,0 -0.32,0 -3.33,15.58 -3.33,15.58 -3.33,15.58 -4.7,0 -4.7,0 -4.7,0 -2.94,-15.58 -2.94,-15.58 -2.94,-15.58 -0.45,0 -0.45,0 -0.45,0 -4.03,16.13 -4.03,16.13 -4.03,16.13 -4.62,0 -4.62,0 -4.62,0 4.95,-20.09 4.95,-20.09 4.95,-20.09 6.94,0 6.94,0 6.94,0 2.48,12.23 2.48,12.23 2.48,12.23 2.67,-12.23 2.67,-12.23 2.67,-12.23 7.08,0 7.08,0 7.08,0 4.4,20.09 4.4,20.09 4.4,20.09 -4.65,0 -4.65,0 -4.65,0 z"
         id="path3046" /><path
         style="fill:#46beaa;fill-opacity:1;fill-rule:evenodd;stroke:none"
         d="m 473.39,785.12 c -0.33,0 -0.33,0 -0.33,0 -11.64,18.62 -11.64,18.62 -11.64,18.62 -2.95,0 -2.95,0 -2.95,0 0,-20.09 0,-20.09 0,-20.09 1.62,0 1.62,0 1.62,0 0,18.62 0,18.62 0,18.62 0.4,0 0.4,0 0.4,0 11.65,-18.62 11.65,-18.62 11.65,-18.62 2.87,0 2.87,0 2.87,0 0,20.09 0,20.09 0,20.09 -1.62,0 -1.62,0 -1.62,0 z"
         id="path3044" /><path
         style="fill:#46beaa;fill-opacity:1;fill-rule:evenodd;stroke:none"
         d="m 480.49,785.12 c 0,8.11 0,8.11 0,8.11 8.87,0 8.87,0 8.87,0 0,1.42 0,1.42 0,1.42 -8.87,0 -8.87,0 -8.87,0 0,7.62 0,7.62 0,7.62 9.55,0 9.55,0 9.55,0 0,1.47 0,1.47 0,1.47 -11.2,0 -11.2,0 -11.2,0 0,-20.09 0,-20.09 0,-20.09 11.52,0 11.52,0 11.52,0 0,1.47 0,1.47 0,1.47 z"
         id="path3042" /><path
         style="fill:#46beaa;fill-opacity:1;fill-rule:evenodd;stroke:none"
         d="m 452.44,783.65 c 1.63,0 1.63,0 1.63,0 0,20.09 0,20.09 0,20.09 -1.63,0 -1.63,0 -1.63,0 z"
         id="path3040" /><path
         style="fill:#46beaa;fill-opacity:1;fill-rule:evenodd;stroke:none"
         d="m 441.4,803.74 c -1.63,0 -1.63,0 -1.63,0 0,-20.09 0,-20.09 0,-20.09 10.8,0 10.8,0 10.8,0 0,1.47 0,1.47 0,1.47 -9.17,0 -9.17,0 -9.17,0 z"
         id="path3038" /><path
         style="fill:#46beaa;fill-opacity:1;fill-rule:evenodd;stroke:none"
         d="m 408.55,803.74 c -4.52,0 -4.52,0 -4.52,0 0,-20.09 0,-20.09 0,-20.09 12.4,0 12.4,0 12.4,0 0,3.96 0,3.96 0,3.96 -7.88,0 -7.88,0 -7.88,0 z"
         id="path3036" /></g><g
       id="g3235"
       transform="matrix(12.556793,0,0,12.556793,-5778.3583,-9295.0128)"><path
         style="fill:#46beaa;fill-opacity:1;fill-rule:evenodd;stroke:none"
         d="m 540.5,787.04 c -0.5,-1.02 -0.9,-2.15 -1.2,-3.39 1.47,0 1.47,0 1.47,0 0,1.17 -0.07,2.29 -0.27,3.39 z"
         id="path3034" /><path
         style="fill:#46beaa;fill-opacity:1;fill-rule:evenodd;stroke:none"
         d="m 533.78,783.65 c 1.47,0 1.47,0 1.47,0 0.68,3.79 2.25,6.54 3.75,8.46 -0.2,0.47 -0.45,0.95 -0.7,1.42 -2.1,-2.45 -3.8,-5.74 -4.52,-9.88 z"
         id="path3032" /><path
         style="fill:#46beaa;fill-opacity:1;fill-rule:evenodd;stroke:none"
         d="m 536.03,796.9 c -0.3,0.37 -0.63,0.75 -0.95,1.1 -3.23,-3.3 -5.93,-8.09 -6.78,-14.35 1.48,0 1.48,0 1.48,0 0.85,6.09 3.5,10.23 5.77,12.75 0.18,0.18 0.33,0.35 0.48,0.5 z"
         id="path3030" /><path
         style="fill:#46beaa;fill-opacity:1;fill-rule:evenodd;stroke:none"
         d="m 532.1,800.59 c -0.4,0.3 -0.8,0.58 -1.22,0.83 -0.2,-0.2 -0.38,-0.4 -0.58,-0.6 -2.42,-2.7 -5.17,-6.82 -6.62,-12.63 -0.45,2.34 -1.08,4.62 -1.88,6.76 1.58,3.52 3.55,6.27 5.35,8.29 -0.47,0.17 -0.97,0.35 -1.47,0.5 -1.58,-1.82 -3.2,-4.12 -4.63,-6.97 -1,2.38 -2.25,4.57 -3.67,6.57 -0.25,0.32 -0.48,0.65 -0.73,0.95 -1.1,-0.15 -2.19,-0.43 -3.24,-0.75 2.52,-2.92 4.57,-6.59 5.97,-10.78 -0.53,-1.48 -0.98,-3.07 -1.33,-4.77 -0.97,4.49 -2.74,8.64 -5.22,12.05 -0.62,0.88 -1.3,1.7 -2,2.45 -0.92,-0.42 -1.82,-0.95 -2.67,-1.52 3.97,-4.02 6.77,-10.19 7.57,-17.32 3.15,0 3.15,0 3.15,0 0.22,2.42 0.65,4.64 1.22,6.66 0.55,-2.12 0.95,-4.34 1.18,-6.66 3.02,0 3.02,0 3.02,0 0.9,7.78 4.23,13.05 7.08,16.19 0.25,0.28 0.47,0.53 0.72,0.75 z"
         id="path3028" /><path
         style="fill:#46beaa;fill-opacity:1;fill-rule:evenodd;stroke:none"
         d="m 498.96,783.65 c 3.05,0 3.05,0 3.05,0 -0.45,2.09 -1.2,4.04 -2.28,5.71 -0.5,-1.82 -0.77,-3.72 -0.77,-5.71 z"
         id="path3026" /><path
         style="fill:#46beaa;fill-opacity:1;fill-rule:evenodd;stroke:none"
         d="m 502.38,795.13 c -0.57,-0.88 -1.1,-1.82 -1.55,-2.8 1.83,-2.24 3.15,-5.24 3.75,-8.68 3.05,0 3.05,0 3.05,0 -0.57,3.69 -1.9,7.08 -3.9,9.81 -0.42,0.59 -0.87,1.14 -1.35,1.67 z"
         id="path3024" /><path
         style="fill:#46beaa;fill-opacity:1;fill-rule:evenodd;stroke:none"
         d="m 508.28,796.75 c 2.63,-3.62 4.33,-8.16 4.93,-13.1 -3.03,0 -3.03,0 -3.03,0 -0.77,5.59 -3.05,10.43 -6.2,13.57 0.65,0.78 1.35,1.48 2.1,2.15 0.78,-0.8 1.53,-1.65 2.2,-2.62 z"
         id="path832" /></g></g></svg>
