<svg width="92" height="64" viewBox="0 0 92 64" fill="none" xmlns="http://www.w3.org/2000/svg">
<path d="M31.2533 45.334C29.9127 34.5163 26.1997 24.5284 20.4692 16.5626C18.9574 14.4611 17.3402 12.5522 15.6356 10.8374C13.9867 12.2835 12.4425 13.8457 11.0156 15.5118C17.9312 22.4564 22.9218 33.0582 24.6005 45.334H31.2533Z" fill="#55C4A4"/>
<path d="M19.0199 45.334C17.7595 37.2579 14.8489 29.8158 10.5065 23.795C9.5633 22.4872 8.56967 21.2703 7.53238 20.1448C6.25417 22.0863 5.11867 24.1298 4.14258 26.2621C8.10153 31.1988 11.0162 37.8171 12.3433 45.334H19.0199Z" fill="#55C4A4"/>
<path d="M1.73194 32.806C0.60398 36.7881 0 40.9904 0 45.334H6.69716C5.73343 40.754 4.05201 36.494 1.73194 32.806Z" fill="#55C4A4"/>
<path d="M55.6185 45.334C57.5856 28.2291 64.8695 16.7137 71.1286 9.76355C71.643 9.19305 72.1599 8.64618 72.6794 8.11338C71.8116 7.48712 70.9201 6.89086 70.0083 6.32535C69.593 6.75866 69.1803 7.19712 68.7769 7.64542C63.4452 13.5654 57.4056 22.6252 54.2075 35.3731C53.228 30.23 51.8506 25.2612 50.0965 20.5381C53.5681 12.7698 57.8811 6.76543 61.8531 2.32758C60.7829 1.92962 59.694 1.57013 58.5877 1.25148C55.1763 5.21535 51.5908 10.2718 48.4925 16.5222C46.2601 11.3347 43.5524 6.49018 40.3997 2.09496C39.8862 1.37903 39.3615 0.683784 38.8309 0.000144958C36.392 0.375732 34.0176 0.945976 31.7213 1.6897C37.2259 8.05966 41.7168 16.1327 44.793 25.3398C43.6611 28.586 42.6798 32.072 41.9136 35.8171C39.7472 25.937 35.8501 16.8688 30.4351 9.32898C29.0489 7.39874 27.5889 5.60375 26.0639 3.94783C24.0179 4.92867 22.0556 6.0562 20.1914 7.3178C28.8914 16.1258 35.0558 29.6951 36.7995 45.334H43.6901C44.2028 40.0338 45.1492 35.178 46.4021 30.7492C47.6184 35.3937 48.4863 40.2766 48.9618 45.334H55.6185Z" fill="#55C4A4"/>
<path d="M67.5789 45.334C69.467 31.9775 75.2695 22.8998 80.2822 17.3392C80.6271 16.9565 80.9746 16.588 81.322 16.2258C80.6449 15.402 79.939 14.6029 79.2068 13.8286C72.1373 21.07 66.2281 31.5744 64.3828 45.334H67.5789Z" fill="#55C4A4"/>
<path d="M79.6025 45.334C81.1169 37.055 84.5236 30.987 87.8405 26.8026C87.3694 25.7357 86.8583 24.6899 86.31 23.6676C81.7041 29.0483 77.9389 36.2719 76.3906 45.334H79.6025Z" fill="#55C4A4"/>
<path d="M91.1408 37.9188C90.0459 40.1554 89.1434 42.6268 88.5078 45.334H91.7408C91.7408 42.809 91.5332 40.3328 91.1408 37.9188Z" fill="#55C4A4"/>
<path d="M44.3588 51.9892H41.7324V63.6797H48.9388V61.3735H44.3588V51.9892Z" fill="#55C4A4"/>
<path d="M63.4637 51.9892H62.5137V63.6797H68.7915V62.8266H63.4637V51.9892Z" fill="#55C4A4"/>
<path d="M69.8828 63.6797H70.8328V51.9892H69.8828V63.6797Z" fill="#55C4A4"/>
<path d="M86.1933 62.8266V58.1075H91.361V57.273H86.1933V52.8422H91.7466V51.9892H85.2441V63.6797H91.9399V62.8266H86.1933Z" fill="#55C4A4"/>
<path d="M82.0704 62.8266H81.878L75.1061 51.9892H73.3984V63.6797H74.3442V52.8419H74.5747L81.3467 63.6797H83.0179V51.9892H82.0704V62.8266Z" fill="#55C4A4"/>
<path d="M11.8683 61.3735H11.6723L9.74655 52.3097H7.01344L5.29252 61.3735H5.03871L2.69406 51.9892H0.00585938L2.88897 63.6797H6.91649L8.36461 56.5594L9.92426 63.6797H14.0325L16.5944 51.9892H13.8943L11.8683 61.3735Z" fill="#55C4A4"/>
<path d="M57.7257 59.3884C57.3935 60.2549 56.7794 60.8699 55.9079 61.1978C55.47 61.3636 54.9737 61.446 54.4185 61.446H52.6538V54.1913H54.4185C54.9737 54.1913 55.47 54.2662 55.9079 54.4156C56.7808 54.7111 57.394 55.3235 57.7257 56.177C58.0529 57.0842 58.0607 58.4677 57.7257 59.3884ZM59.1236 53.6231C57.8775 52.4046 56.2425 51.8883 54.3671 51.8933H50.0273V63.7441H54.3671C55.4243 63.7441 56.3476 63.5816 57.1378 63.2557C58.6276 62.6547 59.7596 61.5197 60.3165 60.077C60.6275 59.2836 60.7335 58.4617 60.709 57.6267C60.7071 56.1285 60.1978 54.6852 59.1236 53.6231Z" fill="#55C4A4"/>
<path d="M22.8948 61.6083C20.6688 61.6083 19.3898 59.8572 19.3898 57.8244C19.3898 55.7165 20.5897 54.0406 22.8948 54.0406C24.849 54.0406 26.3998 55.3883 26.3998 57.8244C26.3998 59.8692 25.0956 61.6083 22.8948 61.6083ZM25.594 52.1572C24.0995 51.4626 21.6596 51.4639 20.1731 52.1572C18.6911 52.8092 17.5801 53.9981 17.0339 55.4722C16.7239 56.2961 16.6181 57.1274 16.6419 57.9783C16.6627 60.2162 18.0076 62.4718 20.125 63.4395C21.627 64.187 24.148 64.1867 25.6499 63.4395C27.767 62.4725 29.1127 60.2158 29.133 57.9783C29.2005 56.379 28.6567 54.7417 27.5475 53.5425C27.0243 52.9658 26.373 52.5043 25.594 52.1572Z" fill="#55C4A4"/>
<path d="M36.858 56.9776C36.5125 57.5819 35.9259 57.8694 35.2083 57.8664H33.1069V54.1909H35.2083C35.5925 54.1909 35.9236 54.1965 36.2012 54.3512C36.4787 54.5061 36.6977 54.7251 36.858 55.0079C37.173 55.5464 37.1836 56.4291 36.858 56.9776ZM39.2488 58.2266C39.6842 57.6174 39.8663 56.7141 39.8329 55.8165C39.8329 54.9518 39.6408 54.2286 39.2566 53.6466C38.347 52.3038 36.7647 51.906 35.0765 51.8928H30.4805V63.6797H33.1069V60.0602C33.1587 60.0595 35.04 60.0617 35.0961 60.0595L37.5751 63.6797H40.6176L37.6317 59.4938C38.3254 59.2109 38.8646 58.7889 39.2488 58.2266Z" fill="#55C4A4"/>
</svg>
