<svg width="237" height="64" viewBox="0 0 237 64" fill="none" xmlns="http://www.w3.org/2000/svg">
<path d="M141.374 49.3465H148.928V37.5535C148.928 30.4277 155.194 30.5527 158.473 31.0944V23.0519C153.244 22.5935 150.131 24.052 148.72 26.8856H148.554L148.596 23.1769H141.332V49.3465H141.374Z" fill="black"/>
<path d="M180.555 49.3468H185.286L193.089 39.4706L199.689 49.3468H208.487L198.111 34.1784L207.201 23.1355H198.443L188.067 36.3036H187.901L187.984 10.0508H180.555V49.3468Z" fill="black"/>
<path d="M95.2628 49.346H101.114L110.08 32.5108L118.754 49.346H124.689L138.013 23.1348H129.172L120.996 39.845L113.234 23.1348H106.884L98.7072 39.9283L90.9462 23.1348H82.1055L95.2628 49.346Z" fill="black"/>
<path d="M168.559 19.3851C171.126 19.3851 173.207 17.2955 173.207 14.7179C173.207 12.1403 171.126 10.0508 168.559 10.0508C165.991 10.0508 163.91 12.1403 163.91 14.7179C163.91 17.2955 165.991 19.3851 168.559 19.3851Z" fill="black"/>
<path d="M172.295 23.1348H164.824V49.346H172.295V23.1348Z" fill="black"/>
<path d="M17.5239 25.3848C21.1349 25.3848 22.8366 26.0515 25.4514 28.6768L39.48 42.7616C39.895 43.1783 39.978 43.345 40.061 43.595C40.1025 43.6784 40.1025 43.8034 40.1025 43.8868C40.1025 43.9701 40.1025 44.0951 40.061 44.1785C39.978 44.4285 39.895 44.5952 39.48 45.0119L29.8924 54.6796C29.4773 55.0963 29.3113 55.1796 29.0623 55.263C28.9793 55.3047 28.8547 55.3047 28.7717 55.3047C28.6887 55.3047 28.5642 55.3047 28.4812 55.263C28.2322 55.1796 28.0661 55.0963 27.6511 54.6796L0.465504 27.3849C-0.323086 26.5932 -0.0325527 25.3848 1.2956 25.3848H17.5239Z" fill="#08CF65"/>
<path d="M57.1177 8.17448C53.5068 8.17448 51.8051 8.84122 49.1902 11.4665L35.1616 25.5514C34.7466 25.9681 34.6636 26.1348 34.5806 26.3848C34.5391 26.4681 34.5391 26.5931 34.5391 26.6765C34.5391 26.7598 34.5391 26.8848 34.5806 26.9682C34.6636 27.2182 34.7466 27.3849 35.1616 27.8016L44.7493 37.4277C45.1643 37.8444 45.3303 37.9277 45.5793 38.0111C45.6623 38.0527 45.7868 38.0527 45.8699 38.0527C45.9529 38.0527 46.0774 38.0527 46.1604 38.0111C46.4094 37.9277 46.5754 37.8444 46.9905 37.4277L74.1764 10.133C74.9647 9.34128 74.6744 8.13281 73.3458 8.13281H57.1177V8.17448Z" fill="#08CF65"/>
<path d="M229.695 40.6361C228.782 42.0112 226.872 43.7197 223.677 43.7197C219.941 43.7197 217.285 41.5528 216.704 38.4275H237C237 37.8858 237 37.094 237 36.3439C237 28.7598 231.563 22.6758 223.511 22.6758C215.625 22.6758 209.523 28.6764 209.523 36.3439C209.523 43.9698 215.501 50.0121 223.511 50.0121C229.487 50.0121 233.098 47.6368 235.423 44.5948L229.695 40.6361ZM223.096 28.5514C226.54 28.5514 228.948 30.4683 229.778 33.2186H216.372C217.202 30.4683 219.568 28.5514 223.096 28.5514Z" fill="black"/>
</svg>
