<svg width="496" height="314" viewBox="0 0 496 314" fill="none" xmlns="http://www.w3.org/2000/svg">
<rect width="133.3" height="91.9485" rx="6" transform="matrix(0.630866 0.669687 -0.676352 0.631498 64.1289 126.578)" fill="#BFBFBF"/>
<rect width="130.272" height="91.9596" rx="6" transform="matrix(0.630863 0.669688 -0.676348 0.6315 62.3135 124.696)" fill="#DBDBDB"/>
<mask id="path-3-outside-1_7171_82462" maskUnits="userSpaceOnUse" x="35.2645" y="179.322" width="57.7919" height="49.9626" fill="black">
<rect fill="white" x="35.2645" y="179.322" width="57.7919" height="49.9626"/>
<path fill-rule="evenodd" clip-rule="evenodd" d="M39.7309 200.737L77.2248 224.92C79.7885 219.338 78.8583 212.558 74.9376 206.72L80.73 204.322C81.0559 204.188 81.1407 203.806 80.9301 203.471C80.7196 203.135 80.281 202.968 79.9592 203.105L74.0915 205.533C72.234 203.085 69.8327 200.839 66.9225 198.962C64.0123 197.085 61.0014 195.84 58.0507 195.187L57.6164 188.694C57.5912 188.333 57.2584 188.003 56.869 187.951C56.4795 187.9 56.1865 188.148 56.2117 188.508L56.6397 194.918C49.8297 193.834 43.4946 195.929 39.7309 200.737Z"/>
</mask>
<path fill-rule="evenodd" clip-rule="evenodd" d="M39.7309 200.737L77.2248 224.92C79.7885 219.338 78.8583 212.558 74.9376 206.72L80.73 204.322C81.0559 204.188 81.1407 203.806 80.9301 203.471C80.7196 203.135 80.281 202.968 79.9592 203.105L74.0915 205.533C72.234 203.085 69.8327 200.839 66.9225 198.962C64.0123 197.085 61.0014 195.84 58.0507 195.187L57.6164 188.694C57.5912 188.333 57.2584 188.003 56.869 187.951C56.4795 187.9 56.1865 188.148 56.2117 188.508L56.6397 194.918C49.8297 193.834 43.4946 195.929 39.7309 200.737Z" fill="#3DDC84"/>
<path d="M77.2248 224.92L75.8418 227.024C76.5837 227.502 77.46 227.699 78.2483 227.564C79.0365 227.429 79.661 226.974 79.963 226.317L77.2248 224.92ZM39.7309 200.737L37.243 198.929C36.8123 199.479 36.6868 200.212 36.8962 200.954C37.1057 201.695 37.6314 202.378 38.348 202.84L39.7309 200.737ZM74.9376 206.72L73.3536 204.237C72.6873 204.513 72.222 205.048 72.0633 205.72C71.9047 206.393 72.0662 207.146 72.5111 207.808L74.9376 206.72ZM80.73 204.322L79.1532 201.836L79.1459 201.839L80.73 204.322ZM80.9301 203.471L83.4128 202.469L83.4128 202.469L80.9301 203.471ZM79.9592 203.105L81.543 205.588C81.5493 205.585 81.5556 205.583 81.5619 205.58L79.9592 203.105ZM74.0915 205.533L71.7784 206.78C72.7106 208.008 74.3996 208.544 75.6753 208.016L74.0915 205.533ZM66.9225 198.962L68.3054 196.858L66.9225 198.962ZM58.0507 195.187L55.1223 194.868C55.2122 196.212 56.3871 197.466 57.8632 197.793L58.0507 195.187ZM57.6164 188.694L60.5448 189.012L60.5443 189.005L57.6164 188.694ZM56.869 187.951L56.9725 190.609L56.869 187.951ZM56.2117 188.508L59.1401 188.827L59.1396 188.819L56.2117 188.508ZM56.6397 194.918L56.6545 197.563C57.4609 197.691 58.2301 197.514 58.7813 197.074C59.3325 196.634 59.6171 195.97 59.5681 195.237L56.6397 194.918ZM78.6077 222.816L41.1139 198.633L38.348 202.84L75.8418 227.024L78.6077 222.816ZM72.5111 207.808C75.899 212.852 76.7001 218.704 74.4866 223.523L79.963 226.317C82.8768 219.973 81.8175 212.263 77.3642 205.632L72.5111 207.808ZM79.1459 201.839L73.3536 204.237L76.5217 209.203L82.314 206.805L79.1459 201.839ZM78.4475 204.472C77.8659 203.545 78.013 202.304 79.1532 201.836L82.3067 206.808C84.0987 206.073 84.4156 204.068 83.4128 202.469L78.4475 204.472ZM81.5619 205.58C80.4273 206.061 79.0557 205.442 78.4475 204.472L83.4128 202.469C82.3834 200.828 80.1347 199.876 78.3565 200.629L81.5619 205.58ZM75.6753 208.016L81.543 205.588L78.3754 200.621L72.5077 203.05L75.6753 208.016ZM65.5396 201.066C68.089 202.71 70.1733 204.664 71.7784 206.78L76.4047 204.287C74.2948 201.506 71.5764 198.968 68.3054 196.858L65.5396 201.066ZM57.8632 197.793C60.386 198.351 62.9903 199.422 65.5396 201.066L68.3054 196.858C65.0343 194.748 61.6168 193.329 58.2382 192.581L57.8632 197.793ZM54.688 188.375L55.1223 194.868L60.9791 195.506L60.5448 189.012L54.688 188.375ZM56.9725 190.609C55.7286 190.445 54.7612 189.423 54.6885 188.382L60.5443 189.005C60.4213 187.244 58.7881 185.561 56.7654 185.294L56.9725 190.609ZM59.1396 188.819C59.2166 189.922 58.2786 190.781 56.9725 190.609L56.7654 185.294C54.6805 185.019 53.1564 186.374 53.2837 188.196L59.1396 188.819ZM59.5681 195.237L59.1401 188.827L53.2832 188.189L53.7113 194.599L59.5681 195.237ZM42.2189 202.544C45.4532 198.412 50.8583 196.64 56.6545 197.563L56.6249 192.274C48.8012 191.028 41.536 193.445 37.243 198.929L42.2189 202.544Z" fill="white" mask="url(#path-3-outside-1_7171_82462)"/>
<rect width="20.2355" height="12.7196" transform="matrix(0.458556 0.728772 -0.856911 0.527262 108.136 202.505)" fill="black"/>
<path d="M126.081 211.275L115.751 194.856C114.726 193.226 112.335 192.336 110.206 193.646L94.3409 203.411C92.2123 204.721 91.9633 207.236 92.9884 208.865L103.318 225.284C104.343 226.914 106.734 227.804 108.863 226.494L124.728 216.73C126.857 215.42 127.106 212.905 126.081 211.275Z" fill="#F7DF1E" stroke="white" stroke-width="3"/>
<path d="M125.754 210.755L115.712 194.794C114.681 193.154 112.279 192.371 110.18 193.663L94.1205 203.546C92.0212 204.838 91.671 207.315 92.7024 208.955L102.744 224.916C103.775 226.555 106.177 227.339 108.276 226.047L124.335 216.163C126.435 214.871 126.785 212.394 125.754 210.755Z" fill="#F7DF1E" stroke="white" stroke-width="3"/>
<path d="M74.8144 150.584C74.8401 149.756 74.1897 149.064 73.3616 149.039L49.3732 148.295C48.5451 148.269 47.8531 148.919 47.8274 149.747L47.0833 173.736C47.0645 174.342 47.4128 174.9 47.9659 175.15C48.5189 175.399 49.1678 175.291 49.6099 174.875L60.8831 164.28L71.478 175.554C71.8935 175.996 72.5344 176.144 73.1018 175.929C73.6693 175.715 74.0515 175.179 74.0703 174.573L74.8144 150.584Z" fill="#FF722C" stroke="white" stroke-width="3" stroke-linejoin="round"/>
<path d="M445.63 41.937C448.561 55.8468 438.976 60.0498 438.976 60.0498" stroke="black" stroke-width="7" stroke-linecap="round"/>
<path d="M27.8789 213.586C30.134 205.961 38.1677 204.017 38.1677 204.017" stroke="black" stroke-width="7" stroke-linecap="round"/>
<path d="M34.8219 222.308C35.7218 211.6 42.0104 207.378 42.0104 207.378" stroke="black" stroke-width="7" stroke-linecap="round"/>
<path d="M434.976 58.0391C422.976 117.039 416.976 145.039 332.976 141.039" stroke="#BFBFBF" stroke-width="21"/>
<path d="M42.2227 205.42C101.409 161.624 106.182 150.04 155.122 209.578" stroke="#BFBFBF" stroke-width="21"/>
<path d="M33.3725 198.84L47.4999 215" stroke="black" stroke-width="7"/>
<path d="M131.976 275.039C177.976 292.039 205.424 341.387 250.424 232.387" stroke="#BFBFBF" stroke-width="25"/>
<path d="M127.646 273.1L136.996 277.17" stroke="black" stroke-width="25"/>
<path d="M129.646 251.189C132.491 253.474 134.315 256.792 134.72 260.418C135.125 264.045 134.077 267.684 131.806 270.539L125.926 277.889C124.795 279.305 123.396 280.484 121.81 281.359C120.223 282.233 118.479 282.787 116.679 282.987C114.878 283.188 113.055 283.032 111.315 282.528C109.575 282.023 107.951 281.181 106.536 280.049C106.31 279.868 106.121 279.645 105.981 279.391C105.842 279.137 105.753 278.858 105.722 278.57C105.69 278.282 105.716 277.99 105.797 277.712C105.879 277.434 106.014 277.175 106.196 276.949L126.536 251.539C126.717 251.312 126.941 251.122 127.195 250.981C127.45 250.841 127.729 250.751 128.018 250.719C128.307 250.686 128.6 250.711 128.879 250.792C129.158 250.873 129.419 251.008 129.646 251.189Z" fill="black"/>
<path d="M401.976 280.039C328.976 221.039 294 216.5 253 228.5" stroke="#BFBFBF" stroke-width="25"/>
<path d="M404.406 282.229L396.506 275.789" stroke="black" stroke-width="25"/>
<path d="M424.796 267.93C423.228 267.022 421.497 266.431 419.701 266.192C417.905 265.953 416.079 266.071 414.329 266.537C412.578 267.004 410.937 267.811 409.498 268.913C408.06 270.015 406.852 271.389 405.945 272.957L401.227 281.118C399.398 284.285 398.899 288.049 399.842 291.583C400.784 295.117 403.09 298.133 406.254 299.969C406.761 300.262 407.364 300.342 407.93 300.192C408.496 300.041 408.979 299.671 409.273 299.164L425.608 270.968C425.754 270.715 425.85 270.436 425.888 270.147C425.927 269.857 425.908 269.563 425.832 269.281C425.757 268.999 425.627 268.734 425.449 268.502C425.271 268.271 425.049 268.076 424.796 267.93Z" fill="black"/>
<path d="M112.236 87.6095C111.664 85.4436 111.71 83.1609 112.369 81.0198C113.027 78.8787 114.272 76.9647 115.962 75.4943C117.652 74.0239 119.72 73.0559 121.931 72.6998C124.143 72.3438 126.41 72.6138 128.476 73.4795L235.476 118.05L306.816 26.6295C308.191 24.8654 310.033 23.5208 312.132 22.7475C314.231 21.9743 316.504 21.8032 318.695 22.2535C320.886 22.7038 322.908 23.7576 324.532 25.2959C326.156 26.8343 327.318 28.7959 327.886 30.9595L369.226 188.38C369.894 190.92 370.055 193.567 369.7 196.17C369.345 198.772 368.481 201.28 367.156 203.548C365.832 205.817 364.074 207.802 361.982 209.391C359.891 210.981 357.507 212.142 354.966 212.809L177.966 259.29C172.837 260.636 167.383 259.89 162.804 257.216C158.224 254.542 154.894 250.158 153.546 245.029L112.236 87.6095Z" fill="#BFBFBF"/>
<path d="M174.386 158.92C174.053 157.649 173.973 156.326 174.152 155.024C174.33 153.723 174.764 152.47 175.427 151.336C176.09 150.202 176.97 149.21 178.016 148.416C179.063 147.622 180.255 147.043 181.526 146.71L332.406 107.08C334.971 106.407 337.698 106.78 339.987 108.117C342.277 109.454 343.942 111.645 344.616 114.21L361.386 178.05C362.059 180.614 361.686 183.341 360.349 185.631C359.012 187.921 356.82 189.586 354.256 190.26L203.366 229.89C202.095 230.223 200.772 230.302 199.47 230.124C198.169 229.945 196.916 229.512 195.782 228.849C194.648 228.186 193.656 227.306 192.862 226.26C192.069 225.213 191.489 224.02 191.156 222.75L174.386 158.92Z" fill="black"/>
<g clip-path="url(#clip0_7171_82462)">
<path d="M351.69 174C350.665 176.436 349.43 178.778 348 181" stroke="white" stroke-width="8" stroke-linecap="round"/>
</g>
<path d="M209.42 217.87C204.51 214.717 200.259 210.64 196.904 205.866" stroke="white" stroke-width="8" stroke-linecap="round"/>
<path d="M235.706 206.9C252.827 206.9 266.706 193.021 266.706 175.9C266.706 158.78 252.827 144.9 235.706 144.9C218.585 144.9 204.706 158.78 204.706 175.9C204.706 193.021 218.585 206.9 235.706 206.9Z" stroke="white" stroke-width="8"/>
<path d="M310.186 187.34C327.307 187.34 341.186 173.461 341.186 156.34C341.186 139.219 327.307 125.34 310.186 125.34C293.065 125.34 279.186 139.219 279.186 156.34C279.186 173.461 293.065 187.34 310.186 187.34Z" stroke="white" stroke-width="8"/>
<path d="M444.847 62.2334L423.936 58.6699" stroke="black" stroke-width="7"/>
<path fill-rule="evenodd" clip-rule="evenodd" d="M396.534 3.9591C396.867 1.77525 398.908 0.275074 401.091 0.608371L491.894 14.4665C494.078 14.7998 495.578 16.8404 495.244 19.0242L493.485 30.5547C488.14 29.7394 483.146 33.4108 482.331 38.7554C481.515 44.0999 485.186 49.0938 490.531 49.9098L488.771 61.4389C488.438 63.6228 486.397 65.1229 484.213 64.7896L393.411 50.9315C391.227 50.5982 389.727 48.5576 390.06 46.3738L391.82 34.8468L391.82 34.847C397.165 35.6627 402.159 31.9912 402.975 26.6464C403.791 21.3017 400.119 16.3076 394.774 15.4919L394.774 15.4918L396.534 3.9591Z" fill="#6B57FF"/>
<path d="M418.379 3.2975C418.212 4.38942 418.962 5.4097 420.054 5.57635C421.146 5.743 422.166 4.99291 422.333 3.90098L418.379 3.2975ZM421.251 10.9902C421.418 9.89823 420.667 8.87795 419.576 8.7113C418.484 8.54465 417.463 9.29474 417.297 10.3867L421.251 10.9902ZM417.281 10.4865C417.115 11.5784 417.865 12.5987 418.957 12.7654C420.049 12.932 421.069 12.1819 421.236 11.09L417.281 10.4865ZM420.154 18.1792C420.32 17.0872 419.57 16.067 418.478 15.9003C417.386 15.7337 416.366 16.4838 416.199 17.5757L420.154 18.1792ZM416.184 17.6755C416.018 18.7675 416.768 19.7877 417.86 19.9544C418.952 20.121 419.972 19.3709 420.138 18.279L416.184 17.6755ZM419.057 25.3682C419.223 24.2763 418.473 23.256 417.381 23.0893C416.289 22.9227 415.269 23.6728 415.102 24.7647L419.057 25.3682ZM415.087 24.8645C414.92 25.9565 415.671 26.9767 416.762 27.1434C417.854 27.31 418.875 26.56 419.041 25.468L415.087 24.8645ZM417.959 32.5572C418.126 31.4653 417.376 30.445 416.284 30.2784C415.192 30.1117 414.172 30.8618 414.005 31.9537L417.959 32.5572ZM413.99 32.0536C413.823 33.1455 414.573 34.1658 415.665 34.3324C416.757 34.4991 417.777 33.749 417.944 32.6571L413.99 32.0536ZM416.862 39.7462C417.029 38.6543 416.279 37.634 415.187 37.4674C414.095 37.3007 413.075 38.0508 412.908 39.1427L416.862 39.7462ZM412.893 39.2426C412.726 40.3345 413.476 41.3548 414.568 41.5214C415.66 41.6881 416.68 40.938 416.847 39.8461L412.893 39.2426ZM415.765 46.9352C415.932 45.8433 415.182 44.823 414.09 44.6564C412.998 44.4897 411.977 45.2398 411.811 46.3317L415.765 46.9352ZM411.796 46.4316C411.629 47.5235 412.379 48.5438 413.471 48.7104C414.563 48.8771 415.583 48.127 415.75 47.0351L411.796 46.4316ZM414.668 54.1242C414.834 53.0323 414.084 52.012 412.992 51.8454C411.901 51.6788 410.88 52.4288 410.714 53.5208L414.668 54.1242ZM418.386 3.24757L418.379 3.2975L422.333 3.90098L422.34 3.85106L418.386 3.24757ZM417.297 10.3867L417.281 10.4865L421.236 11.09L421.251 10.9902L417.297 10.3867ZM416.199 17.5757L416.184 17.6755L420.138 18.279L420.154 18.1792L416.199 17.5757ZM415.102 24.7647L415.087 24.8645L419.041 25.468L419.057 25.3682L415.102 24.7647ZM414.005 31.9537L413.99 32.0536L417.944 32.6571L417.959 32.5572L414.005 31.9537ZM412.908 39.1427L412.893 39.2426L416.847 39.8461L416.862 39.7462L412.908 39.1427ZM411.811 46.3317L411.796 46.4316L415.75 47.0351L415.765 46.9352L411.811 46.3317ZM410.714 53.5208L410.706 53.5707L414.66 54.1742L414.668 54.1242L410.714 53.5208Z" fill="#A397FF"/>
<path d="M433.286 59.352C430.506 56.6636 423.486 45.4212 433.916 38.2127" stroke="black" stroke-width="7" stroke-linecap="round"/>
<g clip-path="url(#clip1_7171_82462)">
<path d="M154 134C154 134 144 147.5 144 155C144 157.652 145.054 160.196 146.929 162.071C148.804 163.946 151.348 165 154 165C156.652 165 159.196 163.946 161.071 162.071C162.947 160.196 164 157.652 164 155C164 147.5 154 134 154 134Z" fill="black"/>
</g>
<defs>
<clipPath id="clip0_7171_82462">
<rect width="11.68" height="14.98" fill="white" transform="translate(344 170)"/>
</clipPath>
<clipPath id="clip1_7171_82462">
<rect width="20" height="31" fill="white" transform="translate(144 134)"/>
</clipPath>
</defs>
</svg>
