<svg width="510" height="365" viewBox="0 0 510 365" fill="none" xmlns="http://www.w3.org/2000/svg">
<mask id="mask0_7171_82424" style="mask-type:alpha" maskUnits="userSpaceOnUse" x="40" y="9" width="355" height="356">
<path d="M217.709 364.157C315.607 364.157 394.969 284.795 394.969 186.897C394.969 88.9987 315.607 9.63672 217.709 9.63672C119.811 9.63672 40.449 88.9987 40.449 186.897C40.449 284.795 119.811 364.157 217.709 364.157Z" fill="#F4F4F4"/>
</mask>
<g mask="url(#mask0_7171_82424)">
<path d="M217.709 364.157C315.607 364.157 394.969 284.795 394.969 186.897C394.969 88.9987 315.607 9.63672 217.709 9.63672C119.811 9.63672 40.449 88.9987 40.449 186.897C40.449 284.795 119.811 364.157 217.709 364.157Z" fill="#F4F4F4"/>
<path d="M217.709 364.157C279.144 364.157 328.946 284.795 328.946 186.897C328.946 88.9987 279.144 9.63672 217.709 9.63672C156.274 9.63672 106.471 88.9987 106.471 186.897C106.471 284.795 156.274 364.157 217.709 364.157Z" stroke="white" stroke-width="7"/>
<path d="M217.709 364.157C237.959 364.157 254.374 284.795 254.374 186.897C254.374 88.9987 237.959 9.63672 217.709 9.63672C197.459 9.63672 181.043 88.9987 181.043 186.897C181.043 284.795 197.459 364.157 217.709 364.157Z" stroke="white" stroke-width="7"/>
<path d="M446.27 182.771H0.300781" stroke="white" stroke-width="7"/>
<path d="M446.27 93.3535H0.300781" stroke="white" stroke-width="7"/>
<path d="M446.27 272.191H0.300781" stroke="white" stroke-width="7"/>
</g>
<path d="M421.038 186C420.578 182.16 423.357 172.945 434.868 170" stroke="black" stroke-width="7" stroke-linecap="round"/>
<path d="M424.609 182.146C400.189 202.846 357.959 226.856 305.849 206.326" stroke="#BFBFBF" stroke-width="21"/>
<path d="M509.603 123.908C509.603 123.908 477.537 156.945 436.879 160.061C428.879 139.698 422.796 122.876 415.825 104.732C440.011 107.191 481.432 72.9849 481.432 72.9849C481.432 72.9849 478.969 97.4082 463.321 118.083C470.746 123.839 509.603 123.908 509.603 123.908Z" fill="#6B57FF"/>
<path d="M61.9194 4.06L51.3594 22.53L40.9194 4" stroke="black" stroke-width="7" stroke-linecap="round"/>
<path d="M107.456 157.979C59.0461 129.819 49.24 67.2915 51.8435 24.4512" stroke="#BFBFBF" stroke-width="21"/>
<path d="M62.3594 22.57L41.3594 22" stroke="black" stroke-width="7"/>
<path d="M446.963 191.745L414.702 105.937" stroke="#A397FF" stroke-width="7" stroke-linecap="round"/>
<path d="M118.489 47.4254C118.818 45.2133 119.759 43.1374 121.206 41.4317C122.653 39.7261 124.547 38.4586 126.676 37.7723C128.804 37.086 131.082 37.0082 133.252 37.5477C135.423 38.0871 137.399 39.2224 138.959 40.8253L219.819 123.955L321.399 68.0054C323.358 66.9258 325.58 66.4154 327.814 66.5316C330.048 66.6479 332.204 67.3862 334.041 68.6632C335.877 69.9402 337.32 71.7051 338.207 73.7588C339.094 75.8124 339.389 78.073 339.059 80.2854L315.059 241.285C314.283 246.531 311.456 251.253 307.199 254.415C302.943 257.576 297.605 258.918 292.359 258.145L111.359 231.145C108.758 230.763 106.258 229.871 104.002 228.521C101.746 227.171 99.778 225.389 98.2112 223.278C96.6443 221.167 95.509 218.768 94.8703 216.217C94.2316 213.667 94.102 211.016 94.4889 208.415L118.489 47.4254Z" fill="#BFBFBF"/>
<path d="M282.957 399.427L224.287 234.73" stroke="#BFBFBF" stroke-width="25"/>
<path d="M123.819 133.917C124.209 131.294 125.625 128.934 127.755 127.355C129.886 125.776 132.556 125.108 135.179 125.497L300.359 150.147C301.659 150.34 302.907 150.788 304.034 151.464C305.161 152.14 306.143 153.031 306.925 154.087C307.707 155.143 308.273 156.343 308.591 157.618C308.91 158.893 308.973 160.218 308.779 161.517L299.049 226.797C298.642 229.407 297.219 231.75 295.091 233.315C292.962 234.879 290.301 235.538 287.689 235.147L122.489 210.567C121.189 210.374 119.94 209.927 118.814 209.251C117.687 208.574 116.705 207.683 115.923 206.627C115.141 205.571 114.574 204.371 114.256 203.097C113.938 201.822 113.875 200.497 114.069 199.197L123.819 133.917Z" fill="black"/>
<path d="M199.929 370.497L191.877 233.471" stroke="#BFBFBF" stroke-width="25"/>
<path d="M142.839 169.146C143.406 165.091 144.77 161.188 146.854 157.663C148.937 154.138 151.699 151.061 154.978 148.609C158.258 146.157 161.99 144.38 165.961 143.378C169.931 142.377 174.061 142.173 178.111 142.776C182.161 143.38 186.051 144.78 189.557 146.895C193.063 149.011 196.115 151.8 198.536 155.102C200.958 158.403 202.702 162.152 203.667 166.132C204.632 170.111 204.799 174.242 204.159 178.286" stroke="white" stroke-width="8"/>
<path d="M218.999 180.457C219.556 176.394 220.915 172.482 222.995 168.948C225.074 165.414 227.835 162.328 231.116 159.868C234.397 157.408 238.134 155.624 242.109 154.618C246.085 153.613 250.22 153.406 254.276 154.01C258.332 154.614 262.228 156.016 265.738 158.137C269.249 160.257 272.303 163.052 274.725 166.361C277.148 169.67 278.889 173.427 279.849 177.414C280.809 181.4 280.969 185.538 280.319 189.587" stroke="white" stroke-width="8"/>
<path d="M438.699 173.837C430.799 186.067 422.529 184.367 422.529 184.367" stroke="black" stroke-width="7" stroke-linecap="round"/>
<path d="M428.756 192.377L415.221 176.272" stroke="black" stroke-width="7"/>
</svg>
