<svg width="160" height="64" viewBox="0 0 160 64" fill="none" xmlns="http://www.w3.org/2000/svg">
<path d="M157.253 22.3163C155.887 20.5745 154.135 19.165 152.134 18.1951C150.131 17.2254 147.932 16.7213 145.703 16.7213C143.474 16.7213 141.274 17.2254 139.273 18.1951C137.27 19.165 135.519 20.5745 134.152 22.3163C132.321 24.9005 131.361 27.9902 131.407 31.1456C131.361 34.301 132.321 37.3906 134.152 39.9748C135.519 41.7166 137.27 43.1263 139.273 44.0959C141.274 45.0658 143.474 45.5698 145.703 45.5698C147.932 45.5698 150.131 45.0658 152.134 44.0959C154.135 43.1263 155.887 41.7166 157.253 39.9748C159.084 37.3902 160.045 34.3009 159.998 31.1456C160.045 27.9902 159.084 24.9008 157.253 22.3163ZM152.678 34.4565C151.628 37.5578 149.14 39.9748 145.691 40.052C142.243 40.1293 139.755 37.5578 138.717 34.4565C137.974 32.3102 137.974 29.9809 138.717 27.8346C139.766 24.7333 142.254 22.3163 145.691 22.2391C149.129 22.1618 151.628 24.7333 152.678 27.8346C153.416 29.9777 153.416 32.3024 152.678 34.4455V34.4565ZM47.4973 44.8308C47.4973 45.0474 47.4103 45.2552 47.2553 45.4084C47.1005 45.5615 46.8905 45.6475 46.6714 45.6475H41.8727C41.6538 45.6475 41.4437 45.5615 41.2888 45.4084C41.134 45.2552 41.047 45.0474 41.047 44.8308V5.8167C41.047 5.6001 41.134 5.39237 41.2888 5.23921C41.4437 5.08604 41.6538 5 41.8727 5H46.6714C46.8905 5 47.1005 5.08604 47.2553 5.23921C47.4103 5.39237 47.4973 5.6001 47.4973 5.8167V44.8308ZM36.226 44.8308C36.226 45.0474 36.1389 45.2552 35.9841 45.4084C35.8292 45.5615 35.6192 45.6475 35.4002 45.6475H30.6014C30.3824 45.6475 30.1724 45.5615 30.0175 45.4084C29.8626 45.2552 29.7756 45.0474 29.7756 44.8308V5.8167C29.7756 5.602 29.861 5.39592 30.0136 5.24307C30.166 5.09023 30.3732 5.0029 30.5903 5H35.3889C35.6079 5 35.8181 5.08604 35.9729 5.23921C36.1278 5.39237 36.2147 5.6001 36.2147 5.8167V44.8308H36.226ZM130.324 18.3432V21.6541C130.344 21.797 130.327 21.9424 130.274 22.0771C130.222 22.2117 130.137 22.3311 130.026 22.4246C129.915 22.5179 129.781 22.5822 129.639 22.6115C129.497 22.6408 129.348 22.6342 129.208 22.5922C123.785 21.4886 120.448 23.8725 120.448 28.8279V44.8308C120.448 45.0474 120.361 45.2552 120.207 45.4084C120.052 45.5615 119.842 45.6475 119.623 45.6475H114.824C114.605 45.6475 114.395 45.5615 114.24 45.4084C114.085 45.2552 113.998 45.0474 113.998 44.8308V28.4857C113.969 26.9397 114.269 25.4049 114.879 23.9808C115.488 22.5568 116.393 21.2753 117.536 20.2194C119.882 17.9512 123.038 16.6899 126.318 16.7098C127.441 16.7127 128.563 16.8162 129.666 17.0188C130.236 17.2064 130.324 17.5376 130.324 18.3873V18.3432ZM109.78 31.1346C109.84 27.9772 108.878 24.8834 107.034 22.3052C105.668 20.5635 103.917 19.1538 101.915 18.1841C99.9128 17.2144 97.7133 16.7102 95.484 16.7102C93.2549 16.7102 91.0553 17.2144 89.0534 18.1841C87.0514 19.1538 85.3003 20.5635 83.9337 22.3052C82.1201 24.9002 81.1486 27.98 81.1486 31.1346C81.1486 34.289 82.1201 37.3688 83.9337 39.9638C85.2783 41.7292 87.025 43.156 89.0319 44.1283C91.0389 45.1005 93.2495 45.5908 95.484 45.5593C98.4108 45.5687 101.274 44.7157 103.709 43.1092V46.5968C103.709 51.3314 99.5239 52.1922 96.8455 52.3578C95.0027 52.418 93.158 52.3183 91.3326 52.0598C90.5961 51.9494 90.0828 52.0598 90.0828 52.8434V57.0372C90.0871 57.1315 90.1102 57.224 90.1506 57.3093C90.1911 57.3948 90.2482 57.4715 90.3187 57.5351C90.3892 57.5987 90.4716 57.6479 90.5614 57.6798C90.6511 57.7118 90.7463 57.726 90.8416 57.7216C97.0575 58.2513 101.243 58.1409 104.389 56.3641C106.594 55.0747 108.231 53.0154 108.976 50.5919C109.533 48.7221 109.8 46.7798 109.768 44.8308V31.1346H109.78ZM95.484 40.03C92.0357 40.03 89.5471 37.5357 88.498 34.4345C87.7558 32.2881 87.7558 29.9588 88.498 27.8125C89.5471 24.7113 92.0357 22.217 95.484 22.217C103.195 22.217 103.452 29.9977 103.452 31.1234C103.452 32.2492 103.195 40.03 95.484 40.03ZM25.3788 28.2761C25.3788 24.5126 24.5305 21.6541 22.7004 19.6785C20.8702 17.7031 17.1875 16.7208 13.7726 16.7208C10.3448 16.7075 6.97501 17.5949 4.00784 19.2923C3.91497 19.3466 3.83821 19.4242 3.78531 19.5172C3.73241 19.6103 3.70524 19.7153 3.70653 19.822L3.9632 23.9718C3.986 24.1009 4.04308 24.2217 4.1286 24.3218C4.21412 24.4219 4.325 24.4978 4.44989 24.5415C4.57479 24.5854 4.70921 24.5955 4.83939 24.571C4.96958 24.5466 5.09083 24.4884 5.19077 24.4022C9.37567 21.8527 14.3976 21.3782 16.9531 22.6585C17.6562 23.0592 18.2355 23.6419 18.6288 24.3439C19.0221 25.0459 19.2143 25.8407 19.185 26.6426V27.2496H12.2103C9.20827 27.2496 0.0126603 28.3534 0.0126603 36.708V36.7962C-0.0588949 38.0676 0.173611 39.3378 0.691314 40.5036C1.20902 41.6695 1.99733 42.6983 2.99231 43.5065C5.16566 45.0205 7.79282 45.7635 10.447 45.6144H24.5641C24.7831 45.6144 24.9931 45.5284 25.148 45.3753C25.3029 45.2221 25.3899 45.0143 25.3899 44.7978V28.243L25.3788 28.2761ZM19.185 40.5155H10.8487C9.77916 40.4852 8.74562 40.1265 7.89143 39.4892C7.45204 39.184 7.09507 38.7769 6.85186 38.3036C6.60865 37.8302 6.4866 37.3051 6.49645 36.7742C6.49645 35.2842 7.51199 32.3044 12.5897 32.3044H19.185V40.5155ZM65.163 16.7208C56.6259 16.7208 52.8874 22.3826 51.6933 27.1724C51.3649 28.4643 51.2 29.7914 51.2024 31.1234C51.1562 34.2788 52.1168 37.3682 53.9476 39.9528C55.3158 41.6927 57.0672 43.1011 59.0688 44.0708C61.0703 45.0404 63.2691 45.5457 65.4979 45.5483C70.1069 45.7138 73.1869 44.9412 75.5417 43.6168C75.7713 43.4703 75.9486 43.2562 76.0487 43.0048C76.1488 42.7534 76.1666 42.4772 76.0996 42.2152V38.54C76.0996 37.7896 75.6421 37.4363 74.9837 37.8888C72.2275 39.6358 68.9566 40.4133 65.6988 40.0962C63.8435 40.072 62.0612 39.3775 60.688 38.1434C59.3148 36.9094 58.4455 35.2211 58.2441 33.397H77.2156C77.4209 33.397 77.6179 33.3172 77.7641 33.1747C77.9103 33.0321 77.9938 32.8384 77.9968 32.6355C78.3315 27.5035 76.8251 16.7208 65.163 16.7208ZM58.3445 28.3202C58.383 27.4754 58.5908 26.6464 58.9562 25.8818C59.3215 25.1171 59.8369 24.4319 60.4724 23.866C61.1079 23.3001 61.8509 22.8648 62.6581 22.5855C63.4653 22.3062 64.3207 22.1885 65.1743 22.2391C65.9912 22.1896 66.8095 22.3137 67.574 22.6029C68.3385 22.8921 69.0315 23.3397 69.6066 23.9157C70.1817 24.4917 70.6254 25.1828 70.9081 25.9425C71.1906 26.7022 71.3056 27.5129 71.2452 28.3202H58.3445Z" fill="#FF5A00"/>
</svg>
