<svg width="122" height="64" viewBox="0 0 122 64" fill="none" xmlns="http://www.w3.org/2000/svg">
<path d="M113.858 47.4638C109.053 52.0749 97.593 51.0946 97.593 42C97.593 32.4182 107.548 31.6809 113.795 32.2598C113.795 32.2482 113.795 32.2367 113.795 32.2251C113.564 27.2113 105.299 28.4462 102 31.108C100.967 29.6115 99.2182 26.9438 98.5007 25.7376C102.298 22.7805 111.57 20.6249 116.32 23.3459C121.069 26.0666 121.999 30.8262 122 33.248V33.2771V52V49.5033H114.078L113.858 47.4638ZM82.6871 47.2431C74.2565 53.9911 65.6122 47.5845 64.5331 38.9031C63.1894 28.0909 71.6835 19.5033 82.6183 23.2454V12H90.953V49.5033H82.9306L82.6871 47.2431ZM82.6183 38.1329V30.6242C79.0065 28.9631 73.4286 28.9016 72.9217 36.44C72.4023 44.1642 81.9667 44.9485 82.6183 38.1329ZM50.6263 25.6878C53.0656 22.6798 56.5353 21.8125 61.0357 23.0864C60.3587 26.8471 59.8936 29.3882 59.64 30.7096C53.1539 29.5682 50.7665 31.5367 50.7378 37.2534V37.4645C50.7378 37.4776 50.738 37.4906 50.738 37.5035C50.738 37.5069 50.7378 37.5102 50.7378 37.5134V49.5393H42.403V22.9788H50.4252L50.6263 25.6878ZM21.514 25.0551C19.2396 26.7456 17.5015 29.1414 16.6084 31.9269C15.7483 31.288 14.6893 30.9111 13.5439 30.9111C10.667 30.9111 8.33472 33.2894 8.33472 36.2231C8.33472 39.1569 10.667 41.5353 13.5439 41.5353C14.6893 41.5353 15.7483 41.1584 16.6084 40.5193C17.5015 43.3049 19.2396 45.7005 21.514 47.3913C19.2779 49.0536 16.5232 50.0346 13.5439 50.0346C6.06384 50.0346 0 43.8511 0 36.2231C0 28.5953 6.06384 22.4118 13.5439 22.4118C16.5232 22.4118 19.2779 23.3927 21.514 25.0551ZM113.77 37.9231C111.282 37.9529 105.672 37.0426 105.801 41.2176C105.93 45.3929 113.77 44.6658 113.77 39.8353C113.77 38.2389 113.771 38.2449 113.77 37.9231ZM29.4841 41.5353C26.6072 41.5353 24.275 39.1569 24.275 36.2231C24.275 33.2894 26.6072 30.9111 29.4841 30.9111C32.3611 30.9111 34.6935 33.2894 34.6935 36.2231C34.6935 39.1569 32.3611 41.5353 29.4841 41.5353Z" fill="#E0081C"/>
</svg>
