<svg width="263" height="64" viewBox="0 0 263 64" fill="none" xmlns="http://www.w3.org/2000/svg">
<g clip-path="url(#clip0_202_2389)">
<mask id="mask0_202_2389" style="mask-type:luminance" maskUnits="userSpaceOnUse" x="-5" y="16" width="263" height="32">
<path d="M258 16.1713H-5V47.8287H258V16.1713Z" fill="white"/>
</mask>
<g mask="url(#mask0_202_2389)">
<path d="M71.2921 25.0953V38.9278H74.641C75.4957 38.9147 76.3392 38.7253 77.1215 38.3706C77.9038 38.0159 78.6092 37.5033 79.1957 36.8631C80.3996 35.5504 81.0584 33.8055 81.0316 32.0002C81.0572 31.1034 80.9103 30.2103 80.5997 29.3721C80.2891 28.5339 79.8206 27.7672 79.2214 27.1161C78.6323 26.4749 77.9221 25.9647 77.1344 25.6168C76.3466 25.269 75.4981 25.0909 74.641 25.0935H71.2938L71.2921 25.0953ZM74.641 20.7582C80.883 20.7582 85.6051 25.739 85.6051 32.0002C85.6051 38.2613 80.883 43.2702 74.641 43.2702H67.2549C67.1844 43.2692 67.1149 43.254 67.0502 43.2254C66.9854 43.1968 66.9269 43.1554 66.8777 43.1034C66.8285 43.0515 66.7898 42.9901 66.7636 42.9227C66.7375 42.8554 66.7245 42.7834 66.7255 42.7108V21.3404C66.7255 21.0308 66.9628 20.7793 67.2549 20.7793L74.641 20.7582ZM101.694 39.4097C104.529 39.4185 107.089 37.6229 108.18 34.8598C108.715 33.5098 108.858 32.0293 108.592 30.5972C108.325 29.1654 107.662 27.8437 106.681 26.7925C105.717 25.7585 104.472 25.0499 103.109 24.7604C101.746 24.4709 100.329 24.614 99.0471 25.1709C96.4273 26.3106 94.7161 29.0067 94.711 32.0002C94.711 36.0804 97.8329 39.3903 101.696 39.4097H101.694ZM101.696 20.2482C108.266 20.2482 113.288 25.5807 113.288 32.0002C113.288 38.4195 108.266 43.752 101.694 43.752C95.1244 43.752 90.1444 38.446 90.1444 32.0002C90.1444 25.5543 95.167 20.2482 101.694 20.2482H101.696ZM129.248 39.4097C133.113 39.3991 136.239 36.0857 136.236 32.0054C136.231 27.9216 133.097 24.6151 129.234 24.6134C125.367 24.6134 122.232 27.9181 122.227 32.0002C122.227 33.9664 122.966 35.8518 124.284 37.2412C124.928 37.9259 125.699 38.4706 126.551 38.843C127.403 39.2155 128.32 39.4082 129.245 39.4097H129.248ZM129.245 20.2482C135.795 20.2482 140.817 25.5543 140.817 32.0002C140.817 38.446 135.775 43.752 129.245 43.752C122.719 43.752 117.654 38.446 117.654 32.0002C117.654 25.5543 122.677 20.2482 129.245 20.2482ZM156.137 25.0953H151.415V31.0486H156.137C156.51 31.0656 156.882 31.0038 157.232 30.8667C157.58 30.7297 157.898 30.5204 158.166 30.2519C158.712 29.7067 159.023 28.9504 159.03 28.1555C159.044 27.7522 158.978 27.3502 158.838 26.9736C158.697 26.597 158.483 26.2537 158.211 25.9641C157.942 25.6791 157.619 25.4551 157.262 25.3064C156.906 25.1576 156.522 25.0875 156.137 25.1006V25.0953ZM146.847 21.3404C146.847 21.0308 147.086 20.7793 147.378 20.7793H156.269C160.507 20.7793 163.574 24.0594 163.574 28.1784C163.607 30.9642 162.129 33.5232 159.77 34.7702L163.871 42.4259C163.929 42.5139 163.96 42.6163 163.964 42.7219C163.968 42.8275 163.942 42.9321 163.892 43.0239C163.842 43.1143 163.769 43.1884 163.68 43.2369C163.591 43.2857 163.49 43.3068 163.39 43.2983H159.791C159.691 43.2998 159.594 43.2721 159.509 43.2186C159.423 43.1651 159.354 43.0878 159.31 42.9957L155.358 35.4192H151.398V42.6933C151.398 42.766 151.386 42.8382 151.361 42.9056C151.334 42.9732 151.295 43.0348 151.246 43.0869C151.197 43.1391 151.138 43.1807 151.073 43.2094C151.009 43.2382 150.939 43.2534 150.869 43.2544H147.401C147.332 43.2534 147.261 43.2382 147.196 43.2094C147.132 43.1807 147.073 43.1391 147.024 43.0869C146.975 43.0348 146.936 42.9732 146.91 42.9056C146.883 42.8382 146.871 42.766 146.873 42.6933L146.848 21.3421L146.847 21.3404ZM175.481 25.2008V39.035H178.828C179.683 39.0231 180.527 38.8349 181.308 38.4815C182.091 38.1281 182.798 37.6165 183.384 36.9773C184.589 35.6662 185.249 33.9227 185.224 32.1179C185.251 31.22 185.106 30.3255 184.796 29.4858C184.486 28.646 184.019 27.8777 183.419 27.2251C182.829 26.5828 182.117 26.072 181.328 25.7241C180.539 25.3763 179.689 25.1987 178.829 25.2026L175.481 25.2008ZM178.828 20.8585C185.071 20.8585 189.793 25.8445 189.793 32.1179C189.793 38.3914 185.071 43.3775 178.828 43.3775H171.464C171.394 43.3765 171.324 43.3613 171.26 43.3325C171.194 43.3038 171.135 43.2623 171.087 43.21C171.037 43.1579 170.999 43.0963 170.972 43.0289C170.947 42.9613 170.933 42.8891 170.935 42.8164V21.4476C170.935 21.1363 171.172 20.8848 171.464 20.8848L178.829 20.8585H178.828ZM203.721 26.3598L201.131 33.7571H206.307L203.721 26.3598ZM199.61 37.9376L197.915 42.8622C197.881 42.978 197.811 43.0789 197.714 43.1489C197.618 43.219 197.502 43.2542 197.386 43.249H193.706C193.613 43.258 193.519 43.2408 193.433 43.1994C193.348 43.1579 193.276 43.0938 193.224 43.0134C193.169 42.9321 193.137 42.8379 193.129 42.7399C193.12 42.642 193.137 42.5435 193.178 42.454L201.125 21.1047C201.163 20.9921 201.234 20.8951 201.329 20.8284C201.426 20.7617 201.54 20.7291 201.654 20.7353H205.77C205.886 20.7287 206 20.7612 206.096 20.8279C206.192 20.8946 206.264 20.9918 206.302 21.1047L214.249 42.454C214.289 42.5437 214.305 42.6423 214.297 42.7402C214.288 42.8382 214.255 42.9323 214.202 43.0134C214.149 43.0934 214.076 43.1573 213.991 43.1985C213.906 43.2396 213.812 43.2564 213.718 43.2473H210.041C209.924 43.2524 209.809 43.2172 209.712 43.1472C209.616 43.0771 209.546 42.9763 209.513 42.8603L207.817 37.9359H199.61V37.9376ZM218.514 26.84C218.514 23.3049 221.407 20.2482 225.976 20.2482C228.435 20.1916 230.817 21.1393 232.602 22.8845C232.656 22.9375 232.699 23.0013 232.729 23.072C232.759 23.1428 232.774 23.219 232.774 23.2961C232.774 23.3731 232.759 23.4494 232.729 23.5201C232.699 23.5909 232.656 23.6547 232.602 23.7076L230.564 25.8445C230.515 25.8964 230.457 25.9377 230.392 25.9659C230.328 25.9941 230.258 26.0086 230.189 26.0086C230.118 26.0086 230.049 25.9941 229.984 25.9659C229.92 25.9377 229.861 25.8964 229.812 25.8445C228.853 24.9182 227.593 24.3934 226.278 24.3724C224.45 24.3724 223.1 25.4928 223.1 26.7854C223.1 30.9642 233.898 28.553 233.898 36.594C233.893 40.6689 230.978 43.752 225.824 43.752C224.392 43.7671 222.972 43.4856 221.649 42.9243C220.325 42.3628 219.126 41.533 218.12 40.4843C218.065 40.4314 218.021 40.3676 217.992 40.2968C217.963 40.2261 217.947 40.1497 217.947 40.0728C217.947 39.9957 217.963 39.9195 217.992 39.8488C218.021 39.7779 218.065 39.7141 218.12 39.6612L220.09 37.5788C220.14 37.5244 220.198 37.481 220.265 37.4513C220.331 37.4216 220.403 37.4063 220.475 37.4063C220.547 37.4063 220.618 37.4216 220.684 37.4513C220.75 37.481 220.81 37.5244 220.858 37.5788C222.099 38.845 223.77 39.5641 225.516 39.5838C227.8 39.5838 229.304 38.2964 229.304 36.6836C229.304 32.5031 218.511 34.9162 218.511 26.8734L218.514 26.84ZM253.479 21.3122V29.7612H244.34V21.3122C244.34 21.2397 244.327 21.1677 244.301 21.1003C244.275 21.033 244.236 20.9716 244.187 20.9196C244.137 20.8677 244.079 20.8263 244.015 20.7977C243.95 20.7691 243.881 20.7539 243.81 20.7529H240.343C240.273 20.7539 240.203 20.7691 240.139 20.7977C240.073 20.8263 240.015 20.8677 239.966 20.9196C239.916 20.9716 239.878 21.033 239.852 21.1003C239.826 21.1677 239.813 21.2397 239.814 21.3122V42.6581C239.814 42.9676 240.052 43.2192 240.343 43.2192H243.81C244.1 43.2192 244.34 42.9676 244.34 42.6581V34.0754H253.473V42.6581C253.473 42.9676 253.711 43.2192 254.002 43.2192H257.469C257.761 43.2192 257.999 42.9676 257.999 42.6581V21.3122C257.999 21.2397 257.986 21.1677 257.96 21.1003C257.934 21.033 257.895 20.9716 257.846 20.9196C257.796 20.8677 257.738 20.8263 257.673 20.7977C257.609 20.7691 257.54 20.7539 257.469 20.7529H254.002C253.861 20.7566 253.727 20.8174 253.629 20.9221C253.531 21.0268 253.478 21.1669 253.479 21.3122ZM47.2652 23.6021C44.8606 19.0118 40.1557 16.1538 35.0391 16.1714H-3.67317C-3.9346 16.1725 -4.18995 16.2528 -4.40738 16.4023C-4.62482 16.5518 -4.79473 16.7638 -4.89595 17.0121C-4.99569 17.2587 -5.02167 17.5304 -4.97055 17.7924C-4.91944 18.0543 -4.79356 18.2946 -4.60904 18.4824L3.82404 27.1002C4.56864 27.8635 5.58306 28.2909 6.63848 28.2909H33.929C35.8742 28.2698 37.4642 29.8562 37.4846 31.8313C37.5051 33.8063 35.9459 35.4244 34.0007 35.4437H15.186C14.9243 35.4439 14.6685 35.5233 14.4505 35.6722C14.2324 35.8211 14.0618 36.0328 13.9598 36.2808C13.8591 36.5278 13.8324 36.8001 13.8833 37.0628C13.9341 37.3254 14.0601 37.5664 14.245 37.7547L22.6832 46.3796C23.4325 47.1425 24.444 47.5698 25.4977 47.5685H34.0075C45.0791 47.5685 53.4508 35.5387 47.2652 23.5968" fill="#FF3008"/>
</g>
</g>
<defs>
<clipPath id="clip0_202_2389">
<rect width="263" height="64" fill="white"/>
</clipPath>
</defs>
</svg>
