<svg width="241" height="64" viewBox="0 0 241 64" fill="none" xmlns="http://www.w3.org/2000/svg">
<path fill-rule="evenodd" clip-rule="evenodd" d="M26.079 24.1907L25.6669 24.3883C24.5409 23.045 23.4697 21.8992 22.4534 20.951C21.4372 20.0027 20.4484 19.3047 19.4871 18.857C19.0202 18.6462 18.1756 18.4684 16.9534 18.3236C15.7311 18.1787 14.3097 18.1063 12.6893 18.1063C12.4146 18.1063 12.0988 18.1129 11.7417 18.126C11.3846 18.1392 11.0413 18.1524 10.7117 18.1655C10.3821 18.1787 10.0731 18.1919 9.78474 18.205C9.49636 18.2182 9.28349 18.2248 9.14616 18.2248C9.11869 18.3828 9.08437 18.5409 9.04316 18.6989C9.00196 18.857 8.96764 19.0413 8.94017 19.252C8.91271 19.4628 8.88524 19.7327 8.85777 20.062C8.83031 20.3912 8.80284 20.7929 8.77538 21.267C8.74791 22.1889 8.7273 23.1964 8.71358 24.2895C8.69984 25.3826 8.69298 26.4164 8.69298 27.391V31.1444H9.43455C9.87401 31.1444 10.3615 31.1313 10.8971 31.1049C11.4327 31.0785 11.9889 31.0457 12.5657 31.0062C13.1425 30.9667 13.6231 30.9073 14.0076 30.8283C14.9964 30.6176 15.7791 30.3411 16.356 29.9986C16.9327 29.6562 17.3859 29.248 17.7156 28.7738C18.0451 28.2997 18.2786 27.7795 18.4159 27.2132C18.5533 26.6469 18.6768 26.0345 18.7866 25.376H19.2811V38.0981H18.7866C18.567 37.2553 18.2512 36.3662 17.8391 35.4312C17.4272 34.4961 16.9327 33.7784 16.356 33.278C15.8341 32.8301 15.2779 32.4943 14.6874 32.2704C14.0968 32.0466 13.4034 31.9082 12.6069 31.8556C12.1949 31.8292 11.8378 31.8095 11.5357 31.7964C11.2336 31.7831 10.9452 31.7766 10.6705 31.7766H8.69298V36.6758C8.69298 37.4132 8.69984 38.0916 8.71358 38.7105C8.7273 39.3294 8.73417 39.8629 8.73417 40.3106C8.76164 41.1535 8.8097 41.9502 8.87837 42.7009C8.94703 43.4516 9.10497 44.0113 9.35216 44.3801C9.59935 44.7489 10.0182 45.032 10.6087 45.2296C11.1992 45.4272 12.0575 45.5522 13.1837 45.6049V46H0V45.6049C0.686652 45.4995 1.32523 45.3283 1.91576 45.0913C2.50628 44.8542 2.99379 44.525 3.37831 44.1035C3.51564 43.9456 3.6255 43.7151 3.70791 43.4121C3.79031 43.1093 3.86583 42.7603 3.93449 42.3651C4.00316 41.97 4.05122 41.5551 4.07869 41.1205C4.10616 40.686 4.11989 40.258 4.11989 39.8365C4.11989 39.4678 4.12676 38.9674 4.14049 38.3352C4.15423 37.703 4.16796 37.0115 4.1817 36.2608C4.19542 35.5101 4.20229 34.7399 4.20229 33.9495V23.9537C4.20229 23.4796 4.19542 22.9923 4.1817 22.4918C4.16796 21.9914 4.14049 21.5173 4.0993 21.0695C4.05809 20.6217 3.98944 20.22 3.8933 19.8644C3.79716 19.5089 3.6667 19.252 3.50191 19.094C3.08991 18.6726 2.65046 18.4026 2.18354 18.2841C1.71663 18.1655 1.11237 18.0536 0.370791 17.9482V17.5531H23.2774L26.079 24.1907ZM71.0956 46V45.6049C71.178 45.6049 71.3771 45.5785 71.6929 45.5259C72.0089 45.4732 72.3385 45.3811 72.6817 45.2493C73.0251 45.1176 73.3272 44.9332 73.5881 44.6962C73.849 44.4591 73.9795 44.1563 73.9795 43.7874C73.9795 43.5505 73.904 43.1619 73.7529 42.6219C73.6018 42.082 73.3891 41.4235 73.1144 40.6465C72.8398 39.8694 72.5238 39.0069 72.1668 38.0586C71.8097 37.1104 71.4252 36.1226 71.0133 35.0953H60.0543C59.6424 36.0962 59.244 37.0512 58.8595 37.9598C58.475 38.8685 58.0906 39.7838 57.7059 40.7057C57.1292 42.1281 56.8408 43.129 56.8408 43.7084C56.8408 44.0509 56.9507 44.334 57.1703 44.5579C57.3901 44.7817 57.6716 44.9662 58.0149 45.1111C58.3583 45.2559 58.7291 45.3613 59.1273 45.427C59.5256 45.4929 59.9032 45.5522 60.2603 45.6049V46H51.4849V45.5654C52.1991 45.4864 52.8102 45.3021 53.3183 45.0122C53.8264 44.7225 54.1217 44.525 54.2041 44.4196C54.3963 44.2353 54.7121 43.8007 55.1516 43.1157C55.5911 42.4309 56.1267 41.4169 56.7584 40.0735C57.3351 38.8356 57.9806 37.4265 58.6947 35.846C59.4089 34.2656 60.1436 32.6391 60.8989 30.9667C61.6542 29.294 62.4027 27.6083 63.1442 25.9094C63.8858 24.2105 64.5862 22.6235 65.2453 21.1485L64.8334 20.2793C65.3278 20.0686 65.774 19.8183 66.1724 19.5286C66.5706 19.2389 66.9209 18.936 67.2229 18.6199C67.525 18.3038 67.7792 18.0009 67.9851 17.7112C68.1911 17.4214 68.349 17.1844 68.4588 17H68.7885C69.6399 19.1862 70.4501 21.2604 71.2192 23.2228C71.9882 25.1851 72.723 27.0749 73.4234 28.8924C74.1237 30.7098 74.8035 32.4679 75.4626 34.1669C76.1219 35.8659 76.7811 37.545 77.4402 39.2043C77.7424 40.0209 78.0239 40.6991 78.2848 41.2392C78.5458 41.7791 78.8411 42.3914 79.1706 43.0762C79.2256 43.1816 79.3491 43.366 79.5414 43.6295C79.7336 43.8928 79.9878 44.1628 80.3036 44.4394C80.6195 44.716 81.0108 44.9596 81.4778 45.1703C81.9447 45.3811 82.494 45.4995 83.1257 45.5259V46H71.0956ZM65.6985 22.0572C65.5337 22.3996 65.2934 22.9396 64.9776 23.6771C64.6617 24.4146 64.2703 25.3102 63.8034 26.3638C63.3365 27.4174 62.8215 28.6092 62.2585 29.9394C61.6954 31.2695 61.0842 32.7116 60.4251 34.2656H70.6836C70.2167 33.0804 69.7429 31.8951 69.2623 30.7098C68.7815 29.5245 68.3146 28.3853 67.8614 27.2922C67.4082 26.1991 66.9963 25.1982 66.6256 24.2895C66.2548 23.3808 65.9458 22.6367 65.6985 22.0572ZM123.652 46H111.168V45.6049C111.855 45.4995 112.494 45.3283 113.084 45.0913C113.675 44.8542 114.176 44.5117 114.588 44.064C114.725 43.9061 114.828 43.6821 114.897 43.3923C114.966 43.1026 115.021 42.7603 115.062 42.3651C115.103 41.97 115.13 41.5551 115.144 41.1205C115.158 40.686 115.165 40.258 115.165 39.8365C115.165 39.4678 115.172 38.9674 115.185 38.3352C115.199 37.703 115.213 37.0115 115.227 36.2608C115.24 35.5101 115.247 34.7399 115.247 33.9495V22.5313C115.247 22.0572 115.227 21.616 115.185 21.2078C115.144 20.7995 115.082 20.4307 115 20.1015C114.918 19.7722 114.794 19.5154 114.629 19.3311C114.245 18.8833 113.771 18.5606 113.208 18.3631C112.645 18.1655 112.006 18.0272 111.292 17.9482V17.5531H123.611V17.9482C123.034 18.0272 122.416 18.1721 121.757 18.3828C121.097 18.5936 120.589 19.015 120.232 19.6471C119.985 20.0949 119.855 20.6612 119.841 21.3461C119.827 22.0309 119.807 22.6762 119.779 23.282C119.779 23.9405 119.772 24.5924 119.758 25.2377C119.745 25.8831 119.738 26.535 119.738 27.1935V40.4291C119.738 41.193 119.752 41.9305 119.779 42.6417C119.807 43.3529 119.93 43.8533 120.15 44.143C120.479 44.5909 121.001 44.9332 121.715 45.1703C122.43 45.4073 123.075 45.5522 123.652 45.6049V46ZM186.013 46H177.567C177.321 45.7629 177.142 45.5852 177.031 45.4667C176.922 45.3481 176.798 45.2098 176.661 45.0518C176.524 44.8937 176.352 44.6632 176.146 44.3604C175.94 44.0574 175.617 43.6031 175.178 42.9973C174.656 42.2597 174.196 41.5946 173.797 41.0021C173.4 40.4094 172.994 39.8234 172.582 39.2438C172.171 38.6644 171.724 38.0783 171.243 37.4857C170.762 36.893 170.193 36.228 169.534 35.4904C168.984 34.8847 168.387 34.3184 167.742 33.7916C167.096 33.2647 166.416 32.9355 165.703 32.8038C165.181 32.6984 164.782 32.6458 164.507 32.6458C164.26 32.6458 163.944 32.6327 163.56 32.6063V37.0709C163.56 38.3352 163.574 39.4019 163.602 40.2711C163.628 41.1141 163.656 41.8384 163.683 42.4442C163.711 43.05 163.862 43.5505 164.136 43.9456C164.356 44.2879 164.782 44.6369 165.413 44.9925C166.045 45.3481 166.924 45.5522 168.05 45.6049V46H154.867V45.6049C155.553 45.4995 156.212 45.3416 156.844 45.1308C157.475 44.9201 157.97 44.604 158.327 44.1825C158.464 44.0245 158.575 43.7874 158.657 43.4713C158.74 43.1554 158.801 42.7998 158.843 42.4047C158.884 42.0096 158.917 41.5881 158.945 41.1403C158.973 40.6926 158.987 40.258 158.987 39.8365C158.987 39.4678 158.994 38.9674 159.007 38.3352C159.021 37.703 159.035 37.0115 159.049 36.2608C159.063 35.5101 159.07 34.7399 159.07 33.9495V23.9537C159.07 23.4796 159.063 22.9989 159.049 22.5116C159.035 22.0243 159.007 21.5634 158.966 21.1287C158.924 20.6941 158.856 20.2991 158.759 19.9435C158.664 19.5879 158.534 19.3311 158.369 19.173C157.956 18.7516 157.496 18.4684 156.988 18.3236C156.481 18.1787 155.855 18.0536 155.114 17.9482V17.5531H156.804C157.737 17.5531 158.794 17.5465 159.976 17.5334C161.157 17.5202 162.337 17.5136 163.518 17.5136H166.402C168.243 17.5136 169.877 17.5663 171.305 17.6717C172.733 17.777 174.038 18.1326 175.219 18.7384C176.427 19.3442 177.402 20.1673 178.145 21.2078C178.886 22.2482 179.257 23.5586 179.257 25.139C179.257 26.1135 179.071 26.9893 178.7 27.7663C178.329 28.5434 177.836 29.2282 177.217 29.8208C176.599 30.4135 175.879 30.9206 175.055 31.342C174.231 31.7633 173.365 32.1189 172.459 32.4087V32.5273C172.926 32.7643 173.379 33.1067 173.818 33.5544C174.258 34.0023 174.683 34.5027 175.095 35.0558C175.809 36.0567 176.585 37.1366 177.423 38.2957C178.261 39.4546 179.009 40.4819 179.668 41.3774C180.685 42.747 181.674 43.7479 182.635 44.3801C183.596 45.0122 184.722 45.4206 186.013 45.6049V46ZM174.519 24.9019C174.519 23.5849 174.175 22.4128 173.488 21.3856C172.803 20.3583 171.8 19.5418 170.481 18.936C169.822 18.6462 169.128 18.4355 168.401 18.3038C167.672 18.1721 166.911 18.1063 166.114 18.1063C165.538 18.1063 165.07 18.1194 164.714 18.1458C164.356 18.1721 164.082 18.1985 163.89 18.2248C163.862 18.3828 163.834 18.5211 163.807 18.6396C163.779 18.7582 163.759 18.9096 163.746 19.094C163.732 19.2784 163.718 19.5352 163.704 19.8644C163.69 20.1937 163.669 20.6612 163.642 21.267C163.614 22.1889 163.595 23.2293 163.581 24.3883C163.567 25.5472 163.56 26.6667 163.56 27.7466V32.0927C164.686 32.0927 165.736 32.0466 166.711 31.9543C167.686 31.8622 168.627 31.6712 169.534 31.3815C170.412 31.118 171.168 30.7625 171.8 30.3147C172.431 29.8669 172.947 29.3599 173.344 28.7936C173.743 28.2273 174.038 27.6149 174.231 26.9564C174.423 26.2979 174.519 25.6131 174.519 24.9019ZM241 38.4536L238.94 46H213.727V45.6049C214.412 45.4995 215.051 45.3283 215.642 45.0913C216.232 44.8542 216.72 44.525 217.105 44.1035C217.242 43.9456 217.352 43.7151 217.435 43.4121C217.516 43.1093 217.593 42.7603 217.66 42.3651C217.73 41.97 217.778 41.5551 217.804 41.1205C217.832 40.686 217.846 40.258 217.846 39.8365C217.846 39.4678 217.853 38.9674 217.867 38.3352C217.881 37.703 217.894 37.0115 217.908 36.2608C217.922 35.5101 217.929 34.7399 217.929 33.9495C217.929 33.1331 217.929 32.3692 217.929 31.658V23.9537C217.929 23.4796 217.922 22.9923 217.908 22.4918C217.894 21.9914 217.867 21.5173 217.825 21.0695C217.785 20.6217 217.716 20.22 217.62 19.8644C217.523 19.5089 217.393 19.252 217.228 19.094C216.817 18.6726 216.376 18.4026 215.91 18.2841C215.443 18.1655 214.839 18.0536 214.097 17.9482V17.5531H236.839L239.64 24.0722L239.229 24.2698C237.004 21.6094 234.917 19.8184 232.967 18.8965C232.5 18.6857 231.634 18.5014 230.371 18.3433C229.108 18.1853 227.569 18.1063 225.756 18.1063C225.18 18.1063 224.582 18.126 223.964 18.1655C223.346 18.205 222.9 18.2511 222.626 18.3038C222.57 18.7253 222.522 19.5945 222.48 20.9115C222.44 22.2284 222.419 23.7561 222.419 25.4946C222.419 26.4955 222.419 27.3383 222.419 28.0232C222.419 28.708 222.426 29.2677 222.44 29.7023C222.454 30.1369 222.461 30.4728 222.461 30.7098C222.461 30.9206 222.461 31.0654 222.461 31.1444C222.598 31.1444 222.872 31.1444 223.285 31.1444C223.696 31.1444 224.17 31.1313 224.706 31.1049C225.241 31.0785 225.777 31.0457 226.313 31.0062C226.847 30.9667 227.295 30.9073 227.652 30.8283C228.475 30.644 229.162 30.3937 229.712 30.0777C230.26 29.7616 230.708 29.3797 231.051 28.9319C231.393 28.4841 231.669 27.9639 231.874 27.3713C232.08 26.7786 232.266 26.1135 232.431 25.376H232.925V37.8216H232.431C232.21 36.9787 231.874 36.1095 231.421 35.2139C230.968 34.3184 230.494 33.6467 230 33.1988C229.561 32.8301 229.032 32.5273 228.414 32.2902C227.796 32.0531 227.075 31.9082 226.251 31.8556C225.839 31.8292 225.496 31.8095 225.221 31.7964C224.946 31.7831 224.672 31.7766 224.397 31.7766C224.149 31.7766 223.875 31.7766 223.573 31.7766C223.298 31.7766 222.942 31.7766 222.501 31.7766C222.447 32.1453 222.419 32.6853 222.419 33.3965C222.419 34.1077 222.419 34.8451 222.419 35.609C222.419 35.9514 222.419 36.3465 222.419 36.7943C222.419 37.242 222.419 37.6898 222.419 38.1375C222.419 38.559 222.426 38.9607 222.44 39.3427C222.454 39.7245 222.461 40.0473 222.461 40.3106C222.487 41.1535 222.536 41.9502 222.605 42.7009C222.673 43.4516 222.831 44.0113 223.079 44.3801C223.325 44.7489 223.917 45.0122 224.85 45.1703C225.784 45.3283 226.8 45.4073 227.899 45.4073C228.366 45.4073 228.962 45.3942 229.691 45.3678C230.418 45.3416 231.181 45.2757 231.978 45.1703C232.856 45.065 233.666 44.8609 234.409 44.5579C235.15 44.255 235.864 43.8269 236.55 43.2739C237.237 42.7207 237.903 42.0425 238.548 41.2392C239.194 40.4357 239.86 39.4678 240.547 38.3352L241 38.4536Z" fill="white"/>
</svg>
