<svg width="191" height="64" viewBox="0 0 191 64" fill="none" xmlns="http://www.w3.org/2000/svg">
<path d="M72.7491 14C69.3176 13.9962 65.9566 14.986 63.0623 16.8527L45.4161 29.9776L36.1151 23.0605C35.5544 23.9818 34.9902 24.8974 34.4502 25.8453C34.3199 26.0734 34.1994 26.3045 34.0713 26.5323L41.8456 32.3139L25.532 44.4456C23.2975 45.8572 20.7165 46.6048 18.0829 46.6033C10.3032 46.6033 3.97288 40.1933 3.97288 32.3139C3.97288 24.4342 10.3021 18.0245 18.0829 18.0245C20.7165 18.0223 23.2976 18.7699 25.532 20.1819L27.1535 21.3871C27.8236 20.2142 28.518 19.0687 29.2192 17.9314L27.7697 16.8534C24.8756 14.9864 21.5143 13.9968 18.0829 14.0014C8.09656 14.0011 0 22.2006 0 32.3139C0 42.4272 8.0955 50.6264 18.0829 50.6264C21.6481 50.6264 24.9695 49.5771 27.7697 47.7741L45.4166 34.65L54.7535 41.5939C55.3255 40.645 55.8961 39.6927 56.4606 38.7007C56.5724 38.5041 56.6735 38.3089 56.7838 38.112L48.9878 32.3139L65.3004 20.1819C67.535 18.7706 70.1159 18.0231 72.7495 18.0245C80.5303 18.0245 86.8595 24.4342 86.8595 32.3139C86.8595 40.1933 80.5303 46.6033 72.7495 46.6033C70.1158 46.6052 67.5347 45.8576 65.3004 44.4456L63.7024 43.2573C63.0346 44.4222 62.3509 45.5777 61.6516 46.7233L63.0637 47.7726C65.9578 49.6398 69.3189 50.6299 72.7505 50.6257C82.7368 50.6257 90.8334 42.4257 90.8334 32.3129C90.832 22.1995 82.7365 14 72.7491 14Z" fill="#44B74A"/>
<path d="M112.792 49.1613V36.9716H125.389V31.8425H112.792V23.5372H126.591V18.1934H106.311V49.1613H112.792Z" fill="white"/>
<path d="M131.291 49.1613H137.536V16.498H131.291V49.1613Z" fill="white"/>
<path d="M164.58 25.533H158.334V39.182C158.334 42.4226 156.661 44.4184 153.549 44.4184C150.673 44.4184 149.192 42.7231 149.192 39.3751V25.533H142.947V40.9203C142.947 46.4143 146.123 49.6548 151.231 49.6548C154.815 49.6548 157.026 48.1097 158.142 45.3627H158.527V49.1613H164.58V25.533Z" fill="white"/>
<path d="M179.647 41.371L184.069 49.1827H191L183.511 37.2505L190.957 25.5544H184.132L179.948 33.409H179.561L175.377 25.5544H168.188L175.655 37.5081L168.252 49.1827H174.861L179.26 41.371H179.647Z" fill="white"/>
</svg>
