<svg width="143" height="64" viewBox="0 0 143 64" fill="none" xmlns="http://www.w3.org/2000/svg">
<path fill-rule="evenodd" clip-rule="evenodd" d="M0.887939 24.05C1.96239 24.05 2.71111 24.2773 3.17605 24.7417C3.69632 25.2614 3.92924 26.1199 3.92924 27.5248V45.0731C3.92924 47.5014 3.41968 48.5845 0.412289 48.5845H0V49.6614H13.5154V48.5898L13.1076 48.5845C10.1287 48.5488 9.62633 47.472 9.62633 45.0731V27.5239C9.62633 26.1235 9.85835 25.2686 10.3786 24.7498C10.848 24.2782 11.6101 24.0491 12.7069 24.0491H13.5145V22.957H0V24.0491L0.887939 24.05Z" fill="white"/>
<path fill-rule="evenodd" clip-rule="evenodd" d="M44.1133 40.7095C44.1133 40.7095 43.8786 39.6139 43.8447 39.0006V30.9855C43.792 26.3116 44.4301 23.9849 40.3393 24.0028V22.9526H49.7497V24.0028C45.5367 23.9858 46.0668 26.3125 46.0427 30.9855V49.7007L44.7032 49.6864L24.3823 28.4431C24.3823 28.4431 24.6108 29.5369 24.6447 30.1511V43.276C24.5296 48.0639 25.123 48.6425 28.2107 48.5863V49.6802H18.4006V48.5863C21.4927 48.5899 22.1005 48.1789 22.0969 42.8855V43.202V30.267L22.0719 28.214C22.187 25.5566 21.2045 24.0153 18.2051 24.0402V22.9892H27.2371L44.1133 40.7095Z" fill="white"/>
<path fill-rule="evenodd" clip-rule="evenodd" d="M78.1791 22.4429H77.1421L77.0939 22.7977C77.0234 23.3272 76.8146 24.2142 76.2105 24.2142C76.0382 24.2142 75.609 24.1331 75.1253 23.912C73.0246 23.0027 70.3028 22.4429 68.0111 22.4429C63.5517 22.4429 59.5065 24.0386 56.6169 26.9376C53.9629 29.6012 52.511 33.2268 52.5315 37.1447C52.5502 40.8977 54.0271 43.9848 57.0506 46.587C60.0964 49.19 63.5089 50.2999 68.468 50.2999C72.5989 50.2999 74.9638 49.707 78.5932 47.761L79.2286 47.4169V40.4145C79.2286 37.43 79.5944 36.9655 82.0253 36.8675L82.4207 36.8523V35.812H70.5446V36.8523L70.9399 36.8675C73.6475 36.9727 74.1588 37.4576 74.1588 39.9251V46.414C72.15 47.7378 70.6901 48.2406 68.849 48.2406C66.1245 48.2406 63.6999 47.1887 61.8383 45.3309C59.6582 43.1513 58.5945 39.9768 58.5945 36.3896C58.5945 32.5252 59.6243 29.2286 61.7464 27.1105C63.4357 25.423 65.6792 24.4861 68.2386 24.4861C70.525 24.4861 73.1808 25.4658 75.0021 26.9091C76.4835 28.1205 77.2519 29.2928 77.8319 31.2299L77.9203 31.5232H78.9341L78.1791 22.4429Z" fill="white"/>
<path fill-rule="evenodd" clip-rule="evenodd" d="M130.196 49.5897C130.856 49.4898 131.557 49.505 132.083 49.0218C134.314 49.3641 136.575 48.8132 138.329 47.5857C139.253 46.8413 140.085 45.9775 140.759 45.0334C141.352 44.2026 141.819 43.4279 142.122 42.4973C142.347 41.9232 142.526 41.3259 142.661 40.7126C143.297 37.8207 142.962 34.5865 142.02 31.8364C141.848 31.3256 141.65 30.8308 141.436 30.3593C140.26 27.9309 138.659 25.311 136.194 23.775C134.806 22.9103 133.528 21.5722 132.743 20.1869C132.317 19.8036 131.908 19.2954 131.357 19.2036C131.507 19.4523 131.673 19.6957 131.715 19.9863L131.682 20.0273C131.097 20.0443 130.638 19.7349 130.238 19.3605L130.679 18.9603C130.512 18.8756 130.321 18.8435 130.137 18.8007C128.451 18.609 127.064 19.3864 125.569 19.7608L125.545 19.8437C126.464 20.252 126.655 21.2629 127.19 21.9466C127.322 21.7879 127.548 21.9038 127.733 21.8896C127.999 21.9047 128.25 22.0973 128.509 22.0295C128.517 21.8067 128.391 21.6293 128.351 21.4296C128.509 21.3547 128.701 21.4207 128.878 21.4296C129.361 21.7122 130.137 21.3797 130.438 22.0295C129.887 22.0643 129.369 22.1802 128.852 22.3059C128.886 22.5145 129.094 22.6803 129.077 22.8898C128.635 22.7061 128.166 22.5902 127.674 22.5323L127.649 22.6063C128.275 23.34 129.135 23.775 130.013 24.0326C131.275 24.3241 132.385 23.7242 133.603 23.9328C136.594 25.3012 139.149 28.4311 140.26 31.4014C140.315 31.544 140.367 31.6884 140.416 31.8355C141.347 34.5482 141.524 37.8822 140.591 40.7117C140.095 41.8884 139.549 42.9992 138.673 43.9557C138.342 44.3631 137.976 44.7259 137.578 45.0326C136.325 46.0078 134.779 46.4384 133.185 46.0016C133.085 45.9329 132.884 45.916 132.918 45.7422C132.974 45.5095 133.025 45.2741 133.071 45.0326C133.334 43.6767 133.457 42.2503 133.386 40.824C133.384 40.7634 133.382 40.7019 133.381 40.6413C133.292 38.5704 132.879 36.7091 132.118 34.9181C131.629 33.8903 131.049 32.7697 130.318 31.7642C129.445 30.5652 128.363 29.5293 126.972 29.0123C126.12 28.7867 125.068 28.744 124.425 29.4527C123.966 29.8547 123.775 30.3958 123.841 30.9895C123.122 31.4442 122.315 31.6893 121.436 31.7642C121.221 31.7829 121 31.8622 120.776 31.8596C120.564 31.8694 120.357 31.8605 120.153 31.8355C119.096 31.7054 118.026 31.1348 117.213 30.4841C117.196 30.0499 117.171 29.6416 117.154 29.1825C116.688 28.941 116.302 28.4819 116.27 27.939L116.311 27.898C116.579 27.9809 116.811 28.1137 117.054 28.2554C116.945 27.6047 116.819 26.9628 116.495 26.395C116.194 26.2693 115.893 26.1694 115.61 26.0188C115.285 25.8039 115.075 25.4099 115.027 25.0525C115.318 25.3359 115.827 25.2361 116.053 25.5356C115.659 24.3758 115.653 23.0493 115.009 21.9894C114.683 21.2058 113.831 20.8466 113.246 20.2716C113.02 19.9952 112.929 19.6119 112.521 19.5691C112.186 19.4862 112.161 19.1118 112.103 18.8684C112.311 18.8934 112.486 19.0351 112.661 19.0681C112.177 17.7853 111.751 16.3572 110.441 15.5398L110.216 15.6824C109.706 15.7573 109.163 15.7911 108.654 15.8081C108.88 15.4747 109.28 15.332 109.597 15.1805C109.23 14.9059 108.927 14.84 108.467 14.7651C108.201 15.0307 107.718 15.1653 107.375 15.2402L107.332 15.2064C107.323 14.9059 107.256 14.5396 107.708 14.4638C107.273 14.2552 106.553 14.3399 106.111 14.4638C105.987 14.7892 105.628 15.0815 105.654 15.4667C105.396 15.7332 105.212 16.0925 104.943 16.2841C104.935 15.6414 105.209 15.0495 105.326 14.5075C104.95 14.6492 104.569 14.8498 104.2 15.0245C103.608 14.6822 102.984 14.3408 102.349 14.0813C102.292 14.0564 102.165 14.0323 102.19 14.1402C102.734 14.5315 102.523 15.267 102.581 15.8241L102.238 15.5415C102.072 15.1163 101.59 14.8079 101.507 14.3408C100.938 14.4495 100.575 14.5993 100.049 14.8248L99.9758 14.8667C100.368 14.8667 100.702 15.1743 100.894 15.4845C100.301 15.5166 99.7741 15.2839 99.1895 15.2242C99.1315 15.1671 99.0807 15.0985 98.9888 15.1074C98.6969 15.2162 98.4453 15.4239 98.1883 15.6244C97.6118 16.1923 97.0264 16.8181 96.7515 17.5696C96.9443 17.6017 97.1861 17.5937 97.328 17.7104C97.0112 17.9021 96.7354 18.2284 96.4267 18.4111C96.3178 18.8453 96.3348 19.3391 96.3089 19.8134C96.0661 20.1815 95.7413 20.5051 95.5834 20.9161C95.0649 22.5902 94.9319 24.4525 95.0069 26.354C94.8391 26.5135 94.6213 26.6143 94.4643 26.7391L94.4812 28.44H94.5223C94.5973 28.0825 95.0238 27.8828 95.2826 27.6403H95.3665C95.3246 28.0237 95.2746 28.4079 95.2666 28.8001L94.7829 29.2004C94.2974 29.6265 94.707 30.2683 94.666 30.8032C94.6999 30.9432 94.7231 31.1527 94.8239 31.1865C94.8828 30.9779 95.0658 30.8282 95.1836 30.6436C95.3915 30.5946 95.5753 30.4261 95.7672 30.4029C95.6583 30.8201 95.5182 31.2284 95.3495 31.6287C95.2692 31.6813 95.1755 31.7517 95.0952 31.8373C95.0095 31.9291 94.9408 32.0316 94.923 32.1457C95.3005 34.1221 95.8912 36.0744 96.5668 37.9348C96.109 38.7113 95.8484 39.625 95.4664 40.4264C95.4111 40.5379 95.362 40.6529 95.3165 40.7687C94.9328 41.7386 94.8159 42.8235 94.3385 43.7551C94.1448 43.6232 93.936 43.5207 93.7209 43.4297C92.8178 43.1293 91.7737 43.321 91.1151 44.0145C90.5297 43.9058 89.9282 44.0056 89.4686 44.3149C89.1393 44.5601 88.885 44.8587 88.7386 45.2064C88.6387 45.4489 88.5932 45.7127 88.6083 46.0007C88.2335 46.2583 88.0327 46.6577 87.9078 47.0597C87.7329 47.9601 88.0497 48.8979 88.5673 49.5914H130.196V49.5897Z" fill="white"/>
<path fill-rule="evenodd" clip-rule="evenodd" d="M124.667 30.8308C124.659 31.0474 124.501 31.2908 124.643 31.4735C124.843 31.248 125.178 31.256 125.445 31.1571C126.187 31.0902 126.898 31.3229 127.59 31.4914C127.416 31.215 127.298 30.9084 127.106 30.657C126.721 30.5571 126.137 30.8237 126.071 30.2567C125.837 30.0561 125.468 30.1997 125.228 30.2139C124.993 30.3824 124.801 30.5892 124.667 30.8308Z" fill="white"/>
<path fill-rule="evenodd" clip-rule="evenodd" d="M99.1414 23.6276C99.1379 23.6241 99.1325 23.6205 99.1289 23.6196C99.1289 23.6196 99.1289 23.6241 99.1307 23.6276H99.1414Z" fill="white"/>
<path fill-rule="evenodd" clip-rule="evenodd" d="M102.179 31.0427L102.68 30.5595C102.723 30.5595 102.755 30.5684 102.78 30.6023L102.738 31.5276C102.98 31.7532 103.281 31.8281 103.598 31.845C103.624 31.5945 103.816 31.4198 103.924 31.2023C104.016 31.0275 103.958 30.7681 104.141 30.6424L104.198 30.7013C104.258 30.9758 104.242 31.2852 104.384 31.5268C104.401 31.6596 104.425 31.8272 104.441 31.9439C104.809 31.9618 105.142 31.8602 105.426 31.7273C105.409 31.4109 105.519 31.1514 105.567 30.8591C105.644 30.7583 105.475 30.5756 105.685 30.5845C105.802 30.8341 106.011 31.0926 106.128 31.3592C106.611 30.8671 106.812 30.2252 106.929 29.5584C106.788 29.365 106.57 29.365 106.403 29.2411C104.984 28.782 103.161 28.6893 101.792 29.3989C101.703 29.9676 101.82 30.5934 102.179 31.0427Z" fill="white"/>
<path fill-rule="evenodd" clip-rule="evenodd" d="M88.9061 46.6984C88.8553 47.342 88.9061 47.9446 88.9463 48.5784C89.081 48.787 89.3236 49.0295 89.5636 49.0464L89.6073 48.6203C89.7064 48.0266 89.3896 47.3972 89.7242 46.8971C89.9579 46.972 90.1899 47.0888 90.3924 47.1976C90.4906 46.6466 90.3505 46.0048 89.8241 45.6714L88.9061 46.6984Z" fill="white"/>
<path fill-rule="evenodd" clip-rule="evenodd" d="M90.9679 45.7988C90.6423 46.7741 90.3996 47.9793 90.794 49.0054C91.0179 48.8565 91.2525 48.7139 91.4515 48.5053C91.4113 47.7199 91.3025 46.882 91.7691 46.2312C92.1777 46.3569 92.4551 46.7491 92.6121 47.1334C92.8887 46.7812 92.9806 46.2981 92.8718 45.83C92.8887 45.4646 92.4694 45.5484 92.2696 45.3968C92.3374 45.0884 92.3276 44.7309 92.6541 44.5562L91.6522 44.656C91.3944 45.0215 91.1107 45.3816 90.9679 45.7988Z" fill="white"/>
<path fill-rule="evenodd" clip-rule="evenodd" d="M93.0312 48.6792C93.0741 48.7558 93.0313 48.8878 93.1152 48.9047C93.241 48.2049 93.8086 47.7503 94.1183 47.1334C94.2673 46.9248 94.2584 46.6324 94.5011 46.4737C94.8277 46.4737 95.0615 46.7082 95.3792 46.7331C95.4792 46.808 95.3275 46.874 95.3203 46.9569C95.2543 47.5256 95.0366 47.9963 95.0785 48.5793H95.1356C95.5782 48.114 95.879 47.6076 96.2047 47.0737L96.2617 46.5994C96.3367 46.0315 95.7192 45.6652 95.3185 45.4316L95.6773 44.9725L95.1767 44.7969C94.5912 44.8557 94.0647 45.0973 93.656 45.5573C93.1482 46.4906 93.0652 47.5452 93.0312 48.6792Z" fill="white"/>
<path fill-rule="evenodd" clip-rule="evenodd" d="M95.2793 43.7284C95.4711 43.7873 95.646 43.6286 95.837 43.7124C96.6063 43.995 97.4085 44.2874 97.9841 44.9301L98.6695 46.6729L99.0122 45.5978L98.7864 45.013C98.5945 44.5958 98.068 44.6297 97.7084 44.6127C97.5593 44.446 97.7173 44.2535 97.7682 44.0957C97.9422 43.5038 97.2158 43.5359 96.9239 43.2961C96.9418 42.9368 96.5063 43.0616 96.2636 43.0277L96.1806 42.9279C96.1315 42.853 96.0066 42.853 95.9387 42.911C95.9209 42.8869 95.8888 42.8699 95.9066 42.8272L95.721 42.87C95.4631 43.0955 95.2873 43.387 95.2793 43.7284Z" fill="white"/>
<path fill-rule="evenodd" clip-rule="evenodd" d="M95.7617 41.8109C95.7867 41.9187 95.8536 42.0275 95.9366 42.0935C96.3132 41.9936 96.671 41.736 97.1056 41.8929C97.666 42.385 98.2497 42.902 98.9279 43.1703L99.1688 43.1275C99.3197 43.1792 99.4856 43.1864 99.5865 43.3531C99.6793 43.5786 99.4464 43.7123 99.3696 43.8951C99.7462 44.1705 99.5954 44.6635 99.8301 44.996L100.432 44.1955C100.291 43.8443 100.44 43.2443 99.8881 43.2113C99.7052 43.1186 99.5793 42.935 99.5874 42.7264C99.2295 42.401 98.7869 42.2602 98.4264 41.9268C98.1346 41.6923 97.9596 41.3331 97.583 41.2501C97.3251 41.1093 97.0423 41.0335 96.7415 40.9676C96.1793 40.8846 96.1302 41.5506 95.7617 41.8109Z" fill="white"/>
<path fill-rule="evenodd" clip-rule="evenodd" d="M96.5625 40.1671L96.6633 40.3257C97.0801 40.2999 97.4575 40.1171 97.8672 40.1252C98.142 40.2927 98.5016 40.2847 98.7845 40.4256C99.0103 40.734 99.253 41.0844 99.585 41.2938C100.263 41.3928 100.638 42.1193 100.872 42.6524V42.3939C100.972 42.0364 100.863 41.6183 100.729 41.2938C100.562 41.1263 100.32 41.0166 100.145 40.8668C100.111 40.759 100.136 40.7082 100.17 40.6083C99.9108 40.3329 99.527 40.1822 99.2102 39.9665C98.7676 39.3237 97.9153 39.4994 97.2389 39.3237L96.5625 40.1671Z" fill="white"/>
<path fill-rule="evenodd" clip-rule="evenodd" d="M96.5508 34.0463C96.6249 34.3057 96.7159 34.6311 96.7649 34.9056C96.9987 34.3886 97.4599 34.1568 97.8685 33.7307C97.6339 33.5711 97.343 33.4962 97.0843 33.4463V33.4312C96.9005 33.6139 96.6168 33.7976 96.5508 34.0463Z" fill="white"/>
<path fill-rule="evenodd" clip-rule="evenodd" d="M98.0684 36.7911L98.444 36.4077C98.8205 36.0244 99.1292 35.5814 99.1872 35.0893C98.9204 34.9306 98.5698 35.0385 98.3111 35.1303C98.2174 35.6741 98.0773 36.2081 98.0684 36.7911Z" fill="white"/>
<path fill-rule="evenodd" clip-rule="evenodd" d="M98.3418 37.9678C98.919 38.0017 99.4775 38.1167 99.9459 37.794L100.412 36.291C100.263 36.2821 100.112 36.2161 99.9709 36.2661C99.6631 36.9507 99.0431 37.6255 98.3418 37.9678Z" fill="white"/>
<path fill-rule="evenodd" clip-rule="evenodd" d="M98.5107 32.6451C98.8863 33.1969 99.5126 33.8137 100.156 33.9876C100.081 33.2878 99.4805 32.8028 99.1709 32.2029L99.1531 32.0023C98.9113 31.7679 98.6187 31.611 98.368 31.4844C98.3278 31.8864 98.4367 32.2706 98.5107 32.6451Z" fill="white"/>
<path fill-rule="evenodd" clip-rule="evenodd" d="M100.547 38.0347C100.989 38.1114 101.465 38.0347 101.873 37.9081C102.468 37.7682 102.793 37.1165 102.993 36.6084H102.25L101.448 37.392C101.132 37.5596 100.83 37.811 100.547 38.0347Z" fill="white"/>
<path fill-rule="evenodd" clip-rule="evenodd" d="M100.457 31.8862C100.583 32.537 100.857 33.1289 101.234 33.6888L101.334 32.4452L100.457 31.8862Z" fill="white"/>
<path fill-rule="evenodd" clip-rule="evenodd" d="M103.196 35.1308C103.246 34.7136 103.072 34.2305 103.023 33.8052C102.772 33.6377 102.42 33.6546 102.162 33.4888C102.179 34.1476 102.695 34.7056 103.196 35.1308Z" fill="white"/>
<path fill-rule="evenodd" clip-rule="evenodd" d="M102.436 39.3707C102.962 39.2031 103.471 39.0195 103.954 38.7521C104.263 38.3117 104.731 37.9087 104.797 37.3926C104.414 37.5005 104.079 37.3765 103.721 37.5522C103.505 37.9435 103.37 38.3866 102.953 38.6691C102.887 38.9517 102.578 39.1452 102.436 39.3707Z" fill="white"/>
<path fill-rule="evenodd" clip-rule="evenodd" d="M103.252 40.3968L103.878 41.2134C104.213 41.3221 104.63 41.2883 104.922 41.0966L104.696 40.354C104.254 40.5225 103.729 40.4708 103.252 40.3968Z" fill="white"/>
<path fill-rule="evenodd" clip-rule="evenodd" d="M104.297 34.4885L104.539 35.5904C105.122 35.1143 105.241 34.4217 105.226 33.688C104.892 34.0713 104.697 34.3058 104.297 34.4885Z" fill="white"/>
<path fill-rule="evenodd" clip-rule="evenodd" d="M105.943 36.4336C105.952 36.5914 105.994 36.742 106.086 36.8677C106.736 37.1004 106.803 37.8929 107.406 38.1933C107.797 38.3681 108.247 38.1505 108.59 37.9928C108.332 37.7012 108.038 37.4989 107.789 37.1913C107.613 37.1165 107.438 37.0077 107.447 36.7911L105.943 36.4336Z" fill="white"/>
<path fill-rule="evenodd" clip-rule="evenodd" d="M106.459 40.371C106.744 40.6964 107.127 40.8631 107.528 40.954C107.462 40.8622 107.571 40.954 107.587 40.896L107.085 39.7969C106.835 39.8031 106.576 39.8539 106.342 39.8379C106.358 40.0197 106.401 40.2025 106.459 40.371Z" fill="white"/>
<path fill-rule="evenodd" clip-rule="evenodd" d="M107.345 35.2309C107.11 34.6889 107.012 34.0301 106.946 33.4302C106.695 33.7297 106.437 33.9223 106.203 34.2298C106.094 34.8476 106.976 34.9991 107.345 35.2309Z" fill="white"/>
<path fill-rule="evenodd" clip-rule="evenodd" d="M108.364 34.6648C108.665 35.0561 109.324 34.9224 109.693 34.8056C109.517 34.5052 108.951 34.3305 108.851 34.0051C108.792 33.4301 108.677 32.8712 108.492 32.3452C108.199 33.0539 107.847 33.8972 108.364 34.6648Z" fill="white"/>
<path fill-rule="evenodd" clip-rule="evenodd" d="M108.891 36.4335C109.727 37.0432 110.544 37.751 111.713 37.4925C111.797 37.4337 111.939 37.4417 111.956 37.3338C111.613 37.1163 111.247 36.9496 110.895 36.7508L110.495 36.166H110.311C109.86 36.3167 109.374 36.3737 108.891 36.4335Z" fill="white"/>
<path fill-rule="evenodd" clip-rule="evenodd" d="M108.908 43.1994H108.965C109.467 42.7991 110.06 42.6654 110.652 42.4978C110.812 42.5557 110.711 42.7314 110.853 42.7991C111.213 42.6485 111.647 42.6823 112.014 42.5566C112.458 42.5745 112.817 42.5825 113.175 42.7741C113.458 43.1486 113.993 43.1084 114.362 43.3572L114.303 42.7741C113.527 41.864 112.315 41.7971 111.197 41.8149L111.172 41.6973C110.905 41.6973 110.605 41.7561 110.354 41.8738C109.995 41.8889 109.653 42.0654 109.309 42.1733C109.149 42.4907 109.024 42.8731 108.908 43.1994Z" fill="white"/>
<path fill-rule="evenodd" clip-rule="evenodd" d="M109.577 32.9464C109.902 33.3725 110.386 33.697 110.937 33.5891C110.655 33.3136 110.328 33.0204 110.311 32.629C110.395 31.8864 109.577 31.8285 109.176 31.4434C109.308 31.9453 109.293 32.5033 109.577 32.9464Z" fill="white"/>
<path fill-rule="evenodd" clip-rule="evenodd" d="M109.492 44.6769H109.59C110.033 44.3996 110.676 44.6091 111.111 44.3167C111.353 44.191 111.369 44.5253 111.538 44.6172C111.946 44.8676 111.996 45.6174 112.573 45.4435C113.265 45.8019 113.09 46.6461 113.115 47.263L113.759 46.8627C113.7 46.5373 113.883 46.1433 113.674 45.8607C113.516 45.5033 113.082 45.4694 112.874 45.177C113.124 44.7509 112.557 44.5521 112.439 44.2427L112.473 44.2L113.356 44.3167C113.659 44.5004 113.766 44.8347 113.859 45.1431C114.552 45.2599 114.719 46.0435 114.962 46.5445C115.104 46.2022 115.162 45.8349 115.304 45.5024C115.313 45.226 114.945 45.226 114.762 45.1021C114.71 44.6769 114.519 44.2748 114.144 44.0172C113.375 43.8255 112.7 43.3994 111.856 43.3994L111.154 43.6169C110.769 43.7088 110.361 43.592 110.069 43.8576C109.632 43.8906 109.599 44.3675 109.492 44.6769Z" fill="white"/>
<path fill-rule="evenodd" clip-rule="evenodd" d="M109.934 41.2384L110.094 41.3133C110.435 41.1537 110.778 40.971 111.138 40.8373C111.696 40.6786 112.131 41.3133 112.6 40.913C112.774 40.7874 112.923 40.971 113.058 41.0717C113.259 41.439 113.727 41.414 114.077 41.5139C113.902 41.0387 113.686 40.3871 113.075 40.3104C112.833 40.2026 112.549 40.2133 112.315 40.0697C111.672 39.361 111.255 40.6527 110.552 40.3363C110.302 40.6135 109.994 40.8711 109.934 41.2384Z" fill="white"/>
<path fill-rule="evenodd" clip-rule="evenodd" d="M110.094 45.3015C110.36 45.5253 110.635 45.9104 111.052 45.8595C111.572 46.102 111.354 46.7849 111.638 47.1441L111.938 46.8767L111.913 46.8606L111.956 46.8188L111.973 46.8437C112.056 46.5923 111.939 46.1502 111.797 45.8587C111.605 45.7267 111.379 45.8676 111.196 45.7419C111.171 45.4753 111.004 45.3416 110.812 45.1749C110.678 45.0751 110.502 45.2088 110.352 45.1999L110.094 45.3015Z" fill="white"/>
<path fill-rule="evenodd" clip-rule="evenodd" d="M111.139 35.1311C111.414 35.591 111.948 35.8745 112.374 36.191C112.724 36.3506 113.184 36.3907 113.56 36.3078C113.201 36.0163 112.875 35.6829 112.575 35.3307C112.458 35.164 112.432 34.9563 112.274 34.8057C111.88 34.8814 111.439 34.8734 111.139 35.1311Z" fill="white"/>
<path fill-rule="evenodd" clip-rule="evenodd" d="M111.598 32.1455C111.984 32.6198 112.576 32.429 113.118 32.4451V32.388L112.283 31.6856C112.049 31.7613 111.8 31.969 111.598 32.1455Z" fill="white"/>
<path fill-rule="evenodd" clip-rule="evenodd" d="M96.2246 24.2776L96.7081 25.7797C96.6992 24.9284 97.0917 24.2196 97.0087 23.3523L97.3683 22.8174L96.6073 23.0509C96.4074 23.4343 96.2415 23.8194 96.2246 24.2776Z" fill="white"/>
<path fill-rule="evenodd" clip-rule="evenodd" d="M96.5508 21.6748L97.2092 21.2906V20.3145C96.9336 20.4821 96.7819 20.7655 96.5669 20.9911L96.5508 21.6748Z" fill="white"/>
<path fill-rule="evenodd" clip-rule="evenodd" d="M110.096 23.1934C109.936 23.402 109.695 23.452 109.495 23.4939C109.845 22.8511 110.013 21.957 109.736 21.2314C109.921 21.1654 110.122 21.1333 110.297 21.0317L110.279 21.0156L110.739 20.6136C111.349 20.1964 111.115 19.4048 111.341 18.8128C111.04 18.3448 110.949 17.7779 110.514 17.3847L110.54 17.3696C110.196 16.9355 109.578 16.9845 109.109 16.7679C108.491 16.5593 108.016 16.9845 107.573 17.2697C107.381 17.3018 107.498 17.5523 107.289 17.5443C107.172 17.8536 107.03 18.187 106.947 18.5285C106.119 18.4108 105.227 18.5044 104.567 18.9706C104.215 18.713 103.789 18.6622 103.38 18.5454C103.08 18.4875 102.737 18.5962 102.521 18.4277C102.204 18.0703 102.136 17.4186 101.592 17.3277C101.401 17.2608 101.36 17.0531 101.36 16.8686C101.001 16.8106 100.682 16.6448 100.331 16.5682C99.7983 16.3257 99.3726 16.7108 98.971 16.9684C98.7961 17.0442 98.5953 17.0683 98.4293 17.1699C98.1286 17.6361 97.8439 18.1122 97.6521 18.6283C97.711 19.0535 97.8939 19.4297 98.1125 19.7881C98.3044 20.331 98.905 20.7562 99.4145 20.9737C99.1727 21.7992 99.1727 22.7843 99.4145 23.6187C99.4145 23.6187 99.4003 23.6285 99.4003 23.6267C99.4003 23.6285 99.3735 23.6499 99.3735 23.6499C99.2932 23.6499 99.2084 23.6659 99.1424 23.6267H99.1317C99.2486 24.4237 99.6243 25.1208 100.231 25.7189C100.449 25.7956 100.399 26.0532 100.492 26.2208C100.549 26.2948 100.557 26.4535 100.532 26.5204C99.2307 26.4785 98.0688 26.8038 97.0247 27.3958C96.7579 27.5295 96.8757 27.8976 96.8507 28.1553C97.5851 27.6721 98.3785 27.3129 99.2548 27.1551C99.6305 27.1301 100.056 27.0383 100.416 27.1381L100.458 27.8557C99.4645 28.3728 98.3785 28.6732 97.5262 29.5245C97.5432 29.7822 97.4941 30.0835 97.5691 30.301L98.3294 29.6823C99.0629 29.1252 99.8313 28.6482 100.676 28.3398C100.902 28.6072 101.136 28.8907 101.437 29.0565C101.946 28.7312 102.497 28.4905 103.082 28.3398C103.391 28.1562 103.882 28.3229 104.083 27.9565L104.226 27.197C104.2 27.18 104.185 27.1479 104.142 27.1568C103.75 26.9313 103.491 26.54 103.524 26.08C103.391 26.1459 103.241 26.1887 103.082 26.1968C102.948 26.1629 102.824 26.1308 102.765 25.9962C102.756 25.8286 102.672 25.579 102.839 25.4542C103.382 25.1199 104.084 25.1029 104.769 25.1546C105.278 25.2206 106.014 25.1948 106.188 25.7974C106.165 25.9721 106.18 26.1638 106.005 26.2806C105.821 26.3804 105.613 26.2716 105.445 26.1976C105.313 26.6059 105.087 27.0659 104.626 27.1979L104.686 27.6828C104.743 27.9003 104.76 28.2578 105.104 28.1829C105.897 28.3746 106.598 28.7837 107.291 29.2259C107.525 28.9915 107.709 28.724 107.875 28.4833C109.111 28.8996 110.181 29.8259 111.199 30.6852L111.242 29.9845C110.273 29.1252 109.195 28.5163 108.076 28.0403C108.118 27.8147 108.168 27.5972 108.176 27.3565C109.504 27.4305 110.764 27.8397 111.859 28.4833L111.842 27.8825C110.689 27.2656 109.428 26.8564 108.05 26.8395C108 26.7628 107.984 26.6559 107.993 26.5801C108.661 26.4713 109.136 25.7796 109.296 25.1778C109.637 24.7865 110.132 24.3604 110.015 23.7773C110.03 23.7301 110.047 23.6784 110.064 23.6285C110.108 23.4814 110.146 23.3289 110.096 23.1934Z" fill="white"/>
<path fill-rule="evenodd" clip-rule="evenodd" d="M111.258 25.3374L111.943 25.1199L112.017 24.7366C112.21 24.1776 111.802 23.7604 111.599 23.3174L111.258 25.3374Z" fill="white"/>
<path fill-rule="evenodd" clip-rule="evenodd" d="M112.985 27.9825C113.31 28.3399 113.628 28.9167 114.205 28.7402C114.162 28.4995 114.028 28.2998 113.945 28.0823C113.794 27.9058 113.745 27.4057 113.444 27.5822C113.218 27.4316 113.161 27.1802 113.018 26.9805C112.953 27.2889 112.994 27.6731 112.985 27.9825Z" fill="white"/>
<path fill-rule="evenodd" clip-rule="evenodd" d="M113.102 30.425C113.227 30.6015 113.261 30.8271 113.384 30.9849C113.61 31.1337 113.945 31.1106 114.219 31.0847C114.47 31.0268 114.629 31.3013 114.863 31.1418C114.572 30.959 114.397 30.6247 114.119 30.384C113.793 30.1255 113.444 30.351 113.102 30.425Z" fill="white"/>
<path fill-rule="evenodd" clip-rule="evenodd" d="M113.544 34.3058C114.119 34.6481 114.853 34.9824 115.621 34.8656C115.704 34.8228 115.847 34.8318 115.863 34.731C115.387 34.5634 114.888 34.0883 114.388 33.9884C114.111 33.5632 113.753 34.0972 113.402 34.0633C113.41 34.1641 113.51 34.2398 113.544 34.3058Z" fill="white"/>
<path fill-rule="evenodd" clip-rule="evenodd" d="M115.281 41.6719L115.406 41.9402C115.532 42.8085 116.082 43.6081 115.781 44.5593C116.032 44.734 116.108 45.0255 116.266 45.2591H116.308C116.499 44.5343 116.366 43.7828 116.266 43.0563C116.341 42.3975 115.672 42.0133 115.281 41.6719Z" fill="white"/>
<path fill-rule="evenodd" clip-rule="evenodd" d="M115.424 33.1288C115.859 33.4631 116.552 33.4961 117.051 33.3294C116.735 33.1546 116.385 32.963 116.124 32.7285L115.424 33.1288Z" fill="white"/>
<path fill-rule="evenodd" clip-rule="evenodd" d="M117.484 35.6911C117.441 36.0423 117.676 36.3338 117.927 36.5085C118.019 36.2999 118.169 36.1252 118.185 35.8916C118.111 35.5324 117.91 35.2079 117.584 34.9663C117.525 35.199 117.459 35.4227 117.484 35.6911Z" fill="white"/>
<path fill-rule="evenodd" clip-rule="evenodd" d="M117.511 39.4941C117.452 39.8854 117.886 39.9371 118.07 40.1537C118.22 40.3365 117.97 40.4622 117.97 40.6369C118.286 41.0452 118.47 41.5132 118.47 42.0561C118.596 41.548 118.788 41.0621 118.857 40.5371C118.823 40.1707 118.239 40.2456 118.33 39.8373C118.496 39.4201 118.296 39.0109 118.187 38.6365C118.154 38.5768 118.079 38.46 118.013 38.4939C117.86 38.8362 117.485 39.0769 117.511 39.4941Z" fill="white"/>
<path fill-rule="evenodd" clip-rule="evenodd" d="M118.656 37.5084L119.089 38.3508C119.282 38.3277 119.405 38.1422 119.556 38.0103C119.673 37.6591 119.364 37.4335 119.273 37.1501C119.196 36.9495 119.273 36.6829 119.13 36.5073C119.022 36.4414 118.896 36.3326 118.771 36.3647L118.656 37.5084Z" fill="white"/>
<path fill-rule="evenodd" clip-rule="evenodd" d="M119.213 35.2905C119.556 35.4982 119.948 35.7987 120.131 36.1651C120.424 37.0164 120.892 37.7839 121.234 38.6094C121.359 39.1853 121.459 39.6988 121.618 40.2666C121.677 40.4146 121.643 40.707 121.878 40.6829C121.944 40.0491 122.07 39.4402 122.078 38.7806C121.87 38.506 121.592 38.3892 121.334 38.2207V38.1637C121.368 38.0211 121.485 37.8544 121.661 37.8811C121.735 37.7955 121.961 37.7135 121.862 37.5637C121.427 37.1305 121.452 36.3826 120.758 36.248C120.517 36.1481 120.457 35.8985 120.434 35.6649C120.107 35.3913 119.622 35.2968 119.213 35.2905Z" fill="white"/>
<path fill-rule="evenodd" clip-rule="evenodd" d="M119.614 39.8122C120.04 40.2027 119.891 40.7705 119.856 41.2965C119.79 41.6139 120.191 41.4302 120.317 41.5969C120.575 41.9811 120.425 42.5401 120.332 42.9573C120.558 42.6141 120.817 42.3136 120.992 41.9392C120.983 41.7966 121.166 41.7306 121.16 41.5559C121.234 41.3134 120.951 41.4222 120.834 41.3955C120.734 41.3705 120.625 41.3036 120.658 41.1708C120.875 40.7527 120.675 40.2526 120.591 39.8363C120.492 39.4931 120.634 39.0358 120.475 38.7354C120.208 39.1026 119.414 39.1864 119.614 39.8122Z" fill="white"/>
<path fill-rule="evenodd" clip-rule="evenodd" d="M120.391 33.8873C121.135 34.6388 121.677 35.3929 122.478 36.1195C122.496 35.7959 122.454 35.4937 122.437 35.1763C122.319 34.9526 122.102 34.785 121.918 34.6183C121.327 34.5594 121.017 33.7625 120.391 33.8873Z" fill="white"/>
<path fill-rule="evenodd" clip-rule="evenodd" d="M122.336 37.8641C122.353 37.939 122.387 38.0049 122.419 38.0807C122.745 38.6156 123.053 39.1647 123.28 39.7406C123.213 39.1246 123.631 38.3553 123.079 37.881C123.004 37.6804 122.753 37.7473 122.595 37.7633L122.336 37.8641Z" fill="white"/>
<path fill-rule="evenodd" clip-rule="evenodd" d="M124.34 43.9593C124.575 44.0654 124.874 43.8737 125.1 43.7418C125.309 43.691 125.485 43.8077 125.644 43.9165C125.71 44.0493 125.644 44.1741 125.667 44.2998C126.169 44.4416 126.661 44.6252 127.105 44.9167L127.245 44.7759C127.279 44.4166 126.996 44.1599 126.728 43.9593C126.553 43.8568 126.293 43.9165 126.169 43.7569C126.252 43.625 126.252 43.4244 126.243 43.2738C125.967 43.2738 125.792 43.19 125.566 43.0562C125.426 43.0152 125.299 42.8985 125.182 43.0562C124.766 43.3406 124.741 43.7569 124.34 43.9593Z" fill="white"/>
<path fill-rule="evenodd" clip-rule="evenodd" d="M124.927 33.4594C125.134 33.4024 125.353 33.3418 125.528 33.1929C126.085 32.6839 126.896 33.0253 127.547 33.0173C127.423 32.7917 127.246 32.568 127.088 32.3745C126.855 32.2827 126.637 32.174 126.37 32.174C125.802 31.8414 125.419 32.3995 124.984 32.6741C124.868 32.9014 124.81 33.2339 124.927 33.4594Z" fill="white"/>
<path fill-rule="evenodd" clip-rule="evenodd" d="M124.944 35.1764C124.944 35.1532 124.944 35.1265 124.969 35.1194C125.044 35.1862 124.96 35.344 125.085 35.377C125.302 35.27 125.503 35.1194 125.703 34.9785C126.263 34.9785 126.597 34.4365 127.147 34.4365C128.065 34.6023 128.977 34.786 129.778 35.2361C129.721 34.6941 129.252 34.2021 128.777 33.9587C128.509 33.8669 128.3 34.0104 128.108 34.1593C127.548 34.5114 127.841 33.6511 127.449 33.6333C126.939 33.7938 126.412 33.9676 125.846 33.9186C125.511 34.0425 125.276 34.35 124.902 34.3179C124.885 34.5934 124.843 34.9277 124.944 35.1764Z" fill="white"/>
<path fill-rule="evenodd" clip-rule="evenodd" d="M125.326 37.0389C125.5 37.2217 125.792 37.1878 126.044 37.2217L126.77 36.9391C126.779 36.8054 126.553 36.7706 126.602 36.6226C126.803 36.3971 127.08 36.5549 127.329 36.4622C127.681 36.4131 128.04 36.0628 128.389 36.3213C128.381 36.3623 128.407 36.422 128.374 36.4622C128.263 36.7216 128.449 36.8794 128.648 36.9792C129.058 37.0559 129.442 37.4312 129.851 37.2627C129.81 36.9213 129.718 36.6048 129.634 36.2785C129.292 36.2197 129.05 35.9362 128.732 35.8185C128.59 35.9523 128.407 36.053 128.231 36.0361C127.587 35.8863 126.819 35.486 126.168 35.8952C125.934 36.1778 125.516 36.0949 125.199 36.2188C125.217 36.505 125.249 36.7795 125.326 37.0389Z" fill="white"/>
<path fill-rule="evenodd" clip-rule="evenodd" d="M125.602 41.9972C125.551 42.139 125.41 42.3734 125.668 42.4394C126.203 42.4572 126.887 42.1817 127.306 42.5981C127.447 42.7077 127.38 42.9315 127.372 43.0741L128.072 43.6589C128.14 43.3077 128.264 42.9903 128.273 42.6141C128.216 42.3476 128.081 42.0881 127.848 41.9134C127.388 41.9134 127.12 41.3759 126.628 41.4445C126.37 41.3848 126.145 41.6139 125.885 41.6139C125.768 41.7307 125.702 41.8733 125.602 41.9972Z" fill="white"/>
<path fill-rule="evenodd" clip-rule="evenodd" d="M125.803 38.0651C125.911 38.2888 126.038 38.657 126.245 38.6819C126.738 38.4653 127.456 38.3307 128.008 38.5652C128.192 38.5981 128.192 38.8067 128.151 38.9413C128.434 39.108 128.777 39.24 129.077 39.4245L128.994 38.9244C128.976 38.3815 128.292 38.3307 128.25 37.7958C127.69 37.6131 127.064 37.5551 126.471 37.6969C126.278 37.8725 126.004 37.8475 125.769 37.8983C125.754 37.9643 125.794 38.0053 125.803 38.0651Z" fill="white"/>
<path fill-rule="evenodd" clip-rule="evenodd" d="M125.946 40.7677C126.272 40.6759 126.479 40.3167 126.83 40.2846C127.365 40.2935 127.841 40.5083 128.174 40.9683C128.377 41.1011 128.334 41.4444 128.592 41.4444C128.517 41.0343 128.65 40.659 128.634 40.2418C128.282 39.6588 127.417 40.1081 127.09 39.4243L126.473 39.4653C126.03 39.5741 126.148 40.092 126.087 40.4424C126.037 40.5511 125.937 40.634 125.946 40.7677Z" fill="white"/>
<path fill-rule="evenodd" clip-rule="evenodd" d="M129.008 44.4166C129.268 44.9336 129.837 45.3268 129.894 45.9196C130.028 45.76 130.12 45.5773 130.212 45.4025C130.203 45.235 130.01 45.235 129.934 45.1021C129.86 44.8855 129.977 44.6938 130.01 44.5004C129.902 44.1911 129.643 43.8996 129.351 43.7168L129.008 44.4166Z" fill="white"/>
<path fill-rule="evenodd" clip-rule="evenodd" d="M130.037 43.0991L130.638 43.9166C130.896 43.5074 130.896 42.9074 130.796 42.4136C130.739 42.3218 130.629 42.172 130.479 42.2389C130.252 42.4733 130.22 42.8308 130.037 43.0991Z" fill="white"/>
<path fill-rule="evenodd" clip-rule="evenodd" d="M127.59 20.2626C127.808 20.3714 128.017 20.4712 128.275 20.4873C128.451 20.3964 128.677 20.3295 128.894 20.3874C129.202 20.588 129.578 20.3455 129.936 20.3625C129.62 20.063 129.26 19.8793 128.894 19.7046C128.425 19.8035 128.051 20.136 127.59 20.2626Z" fill="white"/>
<path fill-rule="evenodd" clip-rule="evenodd" d="M130.857 21.0472C131.298 21.0882 131.616 21.4795 131.916 21.8076C132.293 21.8646 132.577 22.1312 132.801 22.4075L132.66 21.9645C132.56 21.5214 132.284 21.1791 132.001 20.8306C131.601 20.8555 131.206 20.8885 130.857 21.0472Z" fill="white"/>
<path fill-rule="evenodd" clip-rule="evenodd" d="M99.6886 17.3857L99.9304 17.4107C100.583 17.7361 101.635 17.9028 101.693 18.8451C101.035 19.1045 100.4 19.4557 99.8742 19.9879C99.4735 19.5787 98.6623 19.8043 98.5293 19.0875C98.6552 18.4118 98.8961 17.5623 99.6886 17.3857Z" fill="#FF6600"/>
<path fill-rule="evenodd" clip-rule="evenodd" d="M100.318 21.6168C101.076 21.5508 101.812 21.6569 102.598 21.5918C102.79 21.6747 102.99 21.8423 103.081 22.034C103.056 22.9343 102.781 23.7946 102.739 24.7199C102.397 24.8634 102.062 25.146 101.979 25.5213C101.67 25.6123 101.394 25.7977 101.093 25.9376C100.959 25.655 100.984 25.2289 101.22 24.9963C101.545 24.5363 102.389 24.645 102.32 23.9194C102.538 23.5681 102.329 23.118 102.338 22.7507C102.254 22.4761 102.171 22.8425 102.037 22.8336C101.771 22.8906 101.495 22.9085 101.262 22.7765C101.085 22.5911 100.868 22.4422 100.818 22.1917C100.585 22.075 100.31 21.8913 100.193 21.6488L100.318 21.6168Z" fill="#FF6600"/>
<path fill-rule="evenodd" clip-rule="evenodd" d="M101.234 27.0564C101.591 27.1054 101.968 26.9476 102.277 27.1223C102.21 27.2391 102.035 27.289 101.893 27.3229L101.334 27.5823C101.125 27.5306 101.242 27.1972 101.234 27.0564Z" fill="#FF6600"/>
<path fill-rule="evenodd" clip-rule="evenodd" d="M102.698 20.0887C103.055 19.972 103.441 19.7313 103.824 19.8481C103.549 20.1235 103.332 20.4819 103.124 20.8144L101.98 20.7903C102.103 20.4908 102.42 20.2403 102.698 20.0887Z" fill="#FF6600"/>
<path fill-rule="evenodd" clip-rule="evenodd" d="M106.046 19.8144C106.52 19.7315 106.495 20.3484 106.93 20.3742C107.006 20.4741 107.115 20.565 107.072 20.7148C106.821 20.8146 106.454 20.7656 106.169 20.8315C105.793 20.6229 106.037 19.9722 105.443 20.0141C105.411 19.965 105.343 19.8643 105.427 19.8304C105.611 19.7654 105.851 19.7894 106.046 19.8144Z" fill="#FF6600"/>
<path fill-rule="evenodd" clip-rule="evenodd" d="M105.745 22.051C105.953 21.7577 106.272 21.7345 106.572 21.6748L108.735 21.7167C108.827 21.7996 108.652 21.8745 108.652 21.9752C108.518 22.1 108.325 22.1339 108.208 22.2516C107.925 22.2605 107.949 22.5921 107.749 22.7347C107.439 23.0432 106.989 22.9023 106.63 22.8515C106.504 22.7597 106.363 22.634 106.304 22.4923L106.204 22.5921C106.33 23.0601 106.296 23.5781 106.387 24.0523L106.904 24.3955C106.913 25.1631 107.816 24.9545 108.208 25.3806C108.116 25.6551 107.932 25.8887 107.733 26.1232C107.416 25.8138 107.056 25.6124 106.672 25.4804C106.639 25.0293 106.147 24.7637 105.87 24.5373C105.795 23.7198 105.778 22.8854 105.646 22.0929L105.745 22.051Z" fill="#FF6600"/>
<path fill-rule="evenodd" clip-rule="evenodd" d="M106.53 27.1972H107.532L107.407 27.7232L106.404 27.2971C106.381 27.2142 106.471 27.1892 106.53 27.1972Z" fill="#FF6600"/>
<path fill-rule="evenodd" clip-rule="evenodd" d="M108.334 17.7462L109.077 17.5117C109.504 17.7114 109.905 17.9628 110.296 18.2454C110.606 18.8141 110.554 19.5799 110.413 20.2137C110.187 20.4651 109.695 20.2137 109.512 20.614H109.478C109.201 19.8304 108.418 19.1306 107.691 18.7704C107.807 18.3711 107.933 17.9797 108.334 17.7462Z" fill="#FF6600"/>
<path fill-rule="evenodd" clip-rule="evenodd" d="M125.752 49.5307H130.208C130.867 49.4308 131.569 49.4469 132.094 48.9619C134.325 49.3051 136.587 48.7542 138.341 47.5285C139.266 46.7814 140.098 45.9185 140.77 44.9763C141.363 44.1454 141.831 43.369 142.134 42.4392C142.359 41.8642 142.537 41.2678 142.672 40.6536C143.308 37.7626 142.974 34.5293 142.034 31.7765C141.859 31.2657 141.663 30.7736 141.448 30.3012C140.272 27.8729 138.673 25.2538 136.206 23.7169C134.817 22.8513 133.54 21.5123 132.755 20.1288C132.329 19.7437 131.919 19.2356 131.369 19.1438C131.52 19.3943 131.686 19.6358 131.728 19.9273L131.694 19.9692C131.111 19.9862 130.65 19.6777 130.25 19.3007L130.693 18.9013C130.525 18.8184 130.334 18.7836 130.15 18.7435C128.462 18.5518 127.076 19.3265 125.582 19.7027L125.557 19.7856C126.475 20.1939 126.667 21.203 127.202 21.8885C127.336 21.729 127.562 21.8457 127.745 21.8288C128.011 21.8457 128.262 22.0374 128.52 21.9706C128.529 21.7459 128.405 21.5712 128.362 21.3715C128.52 21.2948 128.714 21.3626 128.889 21.3715C129.372 21.6541 130.15 21.3198 130.45 21.9706C129.899 22.0053 129.381 22.1203 128.864 22.246C128.897 22.4546 129.106 22.6222 129.09 22.8308C128.646 22.6454 128.179 22.5313 127.686 22.4715L127.663 22.5455C128.289 23.2801 129.148 23.7142 130.025 23.9736C131.286 24.2652 132.396 23.6652 133.614 23.8738C136.606 25.2422 139.16 28.3721 140.272 31.3424C140.327 31.485 140.378 31.6294 140.428 31.7748C141.359 34.4874 141.535 37.8241 140.603 40.6518C140.107 41.8303 139.561 42.9393 138.685 43.8976C138.354 44.3032 137.988 44.666 137.59 44.9745C136.336 45.9497 134.79 46.3785 133.198 45.9408C133.099 45.8757 132.896 45.8579 132.93 45.6832C132.986 45.4514 133.037 45.2143 133.083 44.9745C133.348 43.6168 133.469 42.1905 133.399 40.7659C133.395 40.7044 133.394 40.6429 133.392 40.5823C133.304 38.5123 132.891 36.6501 132.129 34.8601C131.642 33.8322 131.061 32.7117 130.33 31.7052C129.458 30.5053 128.375 29.4686 126.984 28.9515C126.132 28.726 125.079 28.685 124.437 29.3946C123.977 29.7948 123.786 30.3368 123.852 30.9288C123.134 31.3852 122.326 31.6312 121.447 31.7052C121.232 31.7239 121.011 31.8015 120.788 31.8006C120.575 31.8104 120.367 31.8006 120.166 31.7748C119.106 31.6446 118.037 31.0767 117.224 30.4233C117.207 29.9918 117.181 29.5809 117.165 29.1236C116.699 28.8811 116.315 28.4211 116.281 27.88L116.324 27.8381C116.591 27.921 116.824 28.0547 117.065 28.1974C116.956 27.5466 116.832 26.9039 116.507 26.3369C116.206 26.2112 115.903 26.1122 115.62 25.9607C115.295 25.7441 115.086 25.3518 115.038 24.9926C115.329 25.2779 115.838 25.1771 116.064 25.4775C115.672 24.3178 115.663 22.9913 115.02 21.9313C114.694 21.1468 113.842 20.7885 113.257 20.2117C113.032 19.9371 112.941 19.5538 112.531 19.511C112.197 19.4281 112.171 19.0519 112.113 18.8112C112.322 18.8353 112.497 18.9779 112.674 19.0109C112.188 17.7255 111.763 16.3 110.452 15.4826L110.226 15.6234C109.717 15.7001 109.174 15.7322 108.664 15.7491C108.89 15.4148 109.291 15.274 109.608 15.1224C109.24 14.8479 108.938 14.781 108.478 14.7052C108.211 14.9736 107.729 15.1055 107.386 15.1804L107.345 15.1483C107.336 14.8487 107.267 14.4797 107.718 14.4057C107.285 14.1971 106.566 14.28 106.123 14.4057C105.997 14.7311 105.641 15.0226 105.664 15.4059C105.407 15.6742 105.223 16.0317 104.955 16.2243C104.947 15.5815 105.22 14.9887 105.337 14.4476C104.962 14.5884 104.58 14.7881 104.213 14.9646C103.619 14.6223 102.995 14.28 102.361 14.0224C102.302 13.9965 102.176 13.9716 102.201 14.0794C102.744 14.4717 102.534 15.2053 102.592 15.7652L102.25 15.4826C102.083 15.0565 101.6 14.748 101.518 14.28C100.949 14.3888 100.586 14.5394 100.06 14.765L99.987 14.806C100.378 14.806 100.712 15.1144 100.905 15.4228C100.312 15.4567 99.7862 15.2223 99.2026 15.1652C99.1437 15.1064 99.0945 15.0395 99.0008 15.0484C98.7081 15.1572 98.4591 15.3658 98.1994 15.5664C97.6238 16.1324 97.0385 16.76 96.7637 17.5097C96.9564 17.5436 97.1983 17.5356 97.3402 17.6524C97.0242 17.844 96.7476 18.1694 96.4379 18.353C96.33 18.7872 96.346 19.2793 96.321 19.7553C96.0792 20.1217 95.7535 20.4471 95.5946 20.8553C95.077 22.5322 94.9432 24.3926 95.019 26.295C94.8512 26.4528 94.6335 26.5553 94.4764 26.6792L94.4933 28.381H94.5343C94.6111 28.0217 95.0368 27.8221 95.2947 27.5805H95.3786C95.3375 27.9638 95.2866 28.3471 95.2786 28.7402L94.7941 29.1405C94.3113 29.5657 94.72 30.2067 94.6771 30.7407C94.7119 30.8833 94.7352 31.0919 94.8379 31.1258C94.895 30.9172 95.0787 30.7665 95.1947 30.5838C95.4035 30.5321 95.5866 30.3663 95.7785 30.3413C95.6723 30.7576 95.5294 31.1668 95.3607 31.567C95.2813 31.6196 95.1868 31.6918 95.1065 31.7756C95.0217 31.8675 94.9539 31.9727 94.9378 32.0859C95.3126 34.0631 95.9034 36.0145 96.5807 37.875C96.1202 38.6496 95.8606 39.5643 95.4777 40.3657C95.4233 40.478 95.3742 40.5912 95.3278 40.708C94.9441 41.6788 94.8271 42.7619 94.3496 43.6952C94.1578 43.5606 93.9498 43.4608 93.733 43.369C92.829 43.0694 91.7859 43.2611 91.1273 43.9529C90.5418 43.8441 89.9404 43.944 89.4799 44.2524C89.1515 44.5002 88.8962 44.798 88.7507 45.1465C88.6525 45.3881 88.6053 45.6511 88.6214 45.939C88.2448 46.1975 88.044 46.5978 87.92 46.9981C87.7442 47.9002 88.061 48.8371 88.5786 49.5298L125.752 49.5307Z" fill="white"/>
<path fill-rule="evenodd" clip-rule="evenodd" d="M142.034 31.7775C141.859 31.2667 141.663 30.7746 141.448 30.3022C140.272 27.8738 138.673 25.2548 136.206 23.7179C134.817 22.8523 133.54 21.5133 132.755 20.1298C132.329 19.7447 131.919 19.2366 131.369 19.1447C131.519 19.3952 131.685 19.6368 131.728 19.9283L131.694 19.9702C131.111 19.9872 130.65 19.6787 130.25 19.3016L130.693 18.9023C130.525 18.8194 130.333 18.7846 130.15 18.7445C128.462 18.5528 127.076 19.3275 125.582 19.7037L125.557 19.7866C126.475 20.1949 126.667 21.204 127.202 21.8895C127.336 21.7299 127.562 21.8467 127.745 21.8298C128.011 21.8467 128.262 22.0384 128.52 21.9715C128.529 21.7469 128.405 21.5722 128.362 21.3725C128.52 21.2958 128.714 21.3636 128.889 21.3725C129.372 21.6551 130.15 21.3208 130.45 21.9715C129.899 22.0063 129.381 22.1213 128.864 22.247C128.897 22.4556 129.106 22.6232 129.089 22.8318C128.646 22.6464 128.179 22.5323 127.686 22.4725L127.663 22.5465C128.289 23.2811 129.147 23.7152 130.025 23.9746C131.286 24.2661 132.396 23.6662 133.614 23.8748C136.606 25.2432 139.16 28.3731 140.272 31.3434C140.327 31.486 140.378 31.6304 140.428 31.7757C141.359 34.4884 141.535 37.8251 140.603 40.6528C140.107 41.8313 139.561 42.9403 138.685 43.8986C138.354 44.3042 137.988 44.667 137.59 44.9755C136.336 45.9507 134.79 46.3795 133.198 45.9418C133.099 45.8767 132.896 45.8589 132.929 45.6842C132.986 45.4524 133.037 45.2153 133.083 44.9755C133.348 43.6178 133.468 42.1914 133.399 40.7669C133.395 40.7054 133.394 40.6439 133.392 40.5833C133.304 38.5133 132.891 36.6511 132.129 34.861C131.642 33.8332 131.061 32.7126 130.33 31.7062C129.458 30.5063 128.375 29.4695 126.984 28.9525C126.132 28.727 125.079 28.686 124.437 29.3956C123.977 29.7958 123.786 30.3378 123.852 30.9297C123.134 31.3862 122.326 31.6322 121.447 31.7062C121.232 31.7249 121.011 31.8025 120.788 31.8016C120.575 31.8114 120.367 31.8016 120.166 31.7757C119.106 31.6456 118.037 31.0777 117.224 30.4243C117.207 29.9928 117.181 29.5819 117.165 29.1246C116.698 28.8821 116.315 28.4221 116.281 27.881L116.324 27.8391C116.591 27.922 116.824 28.0557 117.065 28.1983C116.956 27.5476 116.832 26.9048 116.507 26.3379C116.206 26.2122 115.903 26.1132 115.62 25.9617C115.295 25.7451 115.086 25.3528 115.038 24.9936C115.329 25.2788 115.838 25.1781 116.064 25.4785C115.672 24.3187 115.663 22.9922 115.02 21.9323C114.694 21.1478 113.842 20.7895 113.257 20.2127C113.032 19.9381 112.941 19.5548 112.531 19.512C112.197 19.4291 112.171 19.0529 112.113 18.8122C112.322 18.8363 112.497 18.9789 112.674 19.0119C112.188 17.7264 111.763 16.301 110.452 15.4835L110.226 15.6244C109.717 15.7011 109.174 15.7331 108.664 15.7501C108.89 15.4158 109.291 15.2749 109.608 15.1234C109.24 14.8488 108.938 14.782 108.478 14.7062C108.211 14.9745 107.729 15.1065 107.386 15.1813L107.345 15.1492C107.336 14.8497 107.267 14.4807 107.718 14.4067C107.285 14.1981 106.566 14.281 106.123 14.4067C105.997 14.7321 105.641 15.0236 105.664 15.4069C105.407 15.6752 105.223 16.0327 104.955 16.2252C104.947 15.5825 105.22 14.9897 105.337 14.4486C104.962 14.5894 104.58 14.7891 104.213 14.9656C103.619 14.6233 102.995 14.281 102.361 14.0233C102.302 13.9975 102.176 13.9725 102.201 14.0804C102.744 14.4726 102.534 15.2063 102.592 15.7661L102.25 15.4835C102.083 15.0574 101.6 14.749 101.518 14.281C100.949 14.3897 100.586 14.5404 100.06 14.7659L99.987 14.8069C100.378 14.8069 100.712 15.1154 100.905 15.4238C100.312 15.4577 99.7862 15.2232 99.2026 15.1662C99.1437 15.1073 99.0945 15.0405 99.0008 15.0494C98.7081 15.1582 98.4591 15.3668 98.1994 15.5673C97.6238 16.1334 97.0385 16.761 96.7637 17.5107C96.9564 17.5446 97.1983 17.5366 97.3401 17.6533C97.0242 17.845 96.7476 18.1704 96.4379 18.354C96.3299 18.7882 96.346 19.2802 96.321 19.7563C96.0792 20.1227 95.7535 20.448 95.5946 20.8563C95.077 22.5331 94.9432 24.3936 95.019 26.296C94.8512 26.4538 94.6335 26.5563 94.4764 26.6802L94.4933 28.382H94.5343C94.6111 28.0227 95.0368 27.823 95.2947 27.5814H95.3786C95.3375 27.9648 95.2866 28.3481 95.2786 28.7412L94.7941 29.1415C94.3113 29.5667 94.72 30.2077 94.6771 30.7416C94.7119 30.8843 94.7352 31.0929 94.8379 31.1268C94.895 30.9182 95.0787 30.7675 95.1947 30.5847C95.4035 30.533 95.5866 30.3672 95.7784 30.3423C95.6723 30.7586 95.5294 31.1678 95.3607 31.568C95.2813 31.6206 95.1868 31.6928 95.1065 31.7766C95.0217 31.8684 94.9539 31.9736 94.9378 32.0868C95.3126 34.0641 95.9034 36.0155 96.5807 37.8759C96.1202 38.6506 95.8605 39.5652 95.4777 40.3666C95.4233 40.479 95.3742 40.5922 95.3278 40.709C94.9441 41.6798 94.827 42.7629 94.3496 43.6962C94.1577 43.5616 93.9498 43.4618 93.733 43.37C92.829 43.0704 91.7858 43.2621 91.1273 43.9539C90.5418 43.8451 89.9404 43.9449 89.4799 44.2534C89.1515 44.5012 88.8962 44.7989 88.7507 45.1475C88.6525 45.3891 88.6053 45.6521 88.6214 45.94C88.2448 46.1985 88.044 46.5988 87.92 46.9991C87.7442 47.9012 88.061 48.8381 88.5786 49.5308H103.336C103.119 49.2731 102.918 48.9139 102.766 48.6054C102.45 48.1285 102.667 47.4537 102.633 46.9028C102.934 46.2966 103.239 45.6868 103.583 45.094C103.652 44.9746 103.722 44.8578 103.793 44.7419L104.471 44.4834C104.83 44.4834 105.131 44.2248 105.473 44.3158C105.933 44.7758 105.933 43.8576 106.376 43.8157C107.411 43.682 108.438 43.7818 109.022 44.6581C109.022 44.7749 109.208 44.7749 109.165 44.8836C109.031 44.9238 108.905 44.8408 108.764 44.8408C108.13 44.6831 107.385 44.281 106.76 44.6403C106.736 44.79 106.704 44.9425 106.673 45.0922C106.642 45.2518 106.613 45.4078 106.6 45.5576C107.009 45.6744 107.351 45.9667 107.66 46.2832C107.869 45.8749 108.312 45.6913 108.704 45.5576C109.047 45.6325 109.423 45.6414 109.707 45.858C110.234 46.3429 109.974 47.1684 109.925 47.7853C110.4 48.0519 110.926 48.2034 111.41 48.461C111.184 48.6634 110.885 48.7454 110.61 48.8461L109.808 48.6866C109.716 48.6206 109.557 48.6206 109.524 48.5038C109.257 48.7864 108.931 49.1626 108.764 49.529H120.205C120.054 49.1867 119.879 48.9201 119.67 48.6037C119.435 48.1027 119.529 47.418 119.503 46.8841L120.572 45.2572C121.156 45.2491 121.817 45.0316 122.451 45.1404C122.483 45.1261 122.513 45.1101 122.543 45.0913C122.806 44.9095 122.886 44.4869 123.278 44.5395C123.979 44.3488 124.514 44.6661 125.041 44.9826C125.023 45.0245 125.006 45.061 124.987 45.0913C124.767 45.4435 124.354 45.0503 124.054 45.1564C123.928 45.2901 124.113 45.4479 124.137 45.5995C124.246 45.7483 124.028 45.7314 123.954 45.7573C123.779 45.7822 123.587 45.7403 123.452 45.5995C123.419 45.5567 123.444 45.5077 123.378 45.4996C123.226 45.7483 123.01 45.9748 122.952 46.2583C123.143 46.4428 123.401 46.6255 123.494 46.86C123.686 47.1354 123.343 47.3432 123.277 47.5856C123.252 47.6347 123.176 47.6347 123.151 47.5856C122.975 47.4858 122.826 47.2344 122.633 47.3004C122.465 48.0438 122.691 48.7864 122.591 49.529C122.917 49.6057 123.3 49.5121 123.651 49.529L123.794 47.96C123.943 46.9429 124.546 46.0916 125.256 45.3142C126.022 44.7909 126.517 45.825 127.083 46.1834C127.176 46.2003 127.143 46.3002 127.183 46.3581C127.175 46.5257 127 46.5917 126.883 46.6425C126.532 46.7664 126.273 46.3831 126.056 46.1575C125.848 46.3831 125.755 46.6826 125.514 46.8591L125.597 46.8832C125.874 47.1595 126.139 47.451 126.2 47.8183C126.166 48.1508 125.999 48.4762 125.697 48.6447C125.473 48.2596 125.289 47.8343 125.14 47.4421C125.148 47.4599 125.13 47.4671 125.114 47.4849C124.653 47.6088 124.531 48.1258 124.454 48.5439C124.479 48.9531 124.171 49.1198 124.253 49.5281H130.209C130.868 49.4283 131.569 49.4443 132.095 48.9594C134.326 49.3026 136.588 48.7516 138.342 47.5259C139.267 46.7789 140.099 45.9159 140.771 44.9737C141.364 44.1428 141.832 43.3664 142.135 42.4366C142.359 41.8616 142.538 41.2652 142.673 40.651C143.308 37.7627 142.974 34.5294 142.034 31.7775Z" fill="#FF6600"/>
<path fill-rule="evenodd" clip-rule="evenodd" d="M103.71 47.2617C104.035 47.0531 104.562 47.0023 104.636 46.5192C104.504 46.4184 104.386 46.2927 104.235 46.2598L103.892 46.3596C103.917 46.159 104.026 45.9344 104.095 45.7178L105.196 45.3594C105.044 45.8595 104.987 46.4853 104.936 47.0612C105.036 47.9125 105.162 48.8218 105.596 49.5305H104.41C104.277 48.7469 103.457 48.1782 103.71 47.2617Z" fill="#FF6600"/>
<path fill-rule="evenodd" clip-rule="evenodd" d="M106.275 46.2598H106.341L107.141 46.9863L107.258 46.9614C107.193 47.8127 107.15 48.6471 107.141 49.5305H106.274C106.097 48.705 105.805 47.8368 105.839 46.9453C105.989 46.7198 106.089 46.4354 106.275 46.2598Z" fill="#FF6600"/>
<path fill-rule="evenodd" clip-rule="evenodd" d="M108.06 47.0624C108.22 46.8547 108.286 46.5025 108.603 46.4624C108.828 46.4687 109.037 46.5025 109.206 46.6621C109.497 47.0285 109.212 47.4974 109.106 47.8638C108.988 48.4227 108.786 49.0057 108.603 49.5317H107.76L108.06 47.0624Z" fill="#FF6600"/>
<path fill-rule="evenodd" clip-rule="evenodd" d="M120.729 46.8031C120.913 47.0375 120.971 47.354 121.247 47.5626C121.49 47.2292 121.548 46.7112 121.431 46.286L121.189 46.0435C121.498 45.9695 121.823 45.9437 122.133 45.8858C121.999 46.3279 121.747 46.7282 121.79 47.2452C121.798 47.9967 121.923 48.7482 121.99 49.5309H121.072C120.738 48.7963 120.404 48.0966 120.429 47.2452C120.529 47.0946 120.596 46.9189 120.729 46.8031Z" fill="#FF6600"/>
<path fill-rule="evenodd" clip-rule="evenodd" d="M124.68 30.7734C124.671 30.99 124.513 31.2307 124.654 31.4161C124.857 31.1906 125.19 31.1986 125.457 31.0988C126.201 31.031 126.91 31.2655 127.603 31.4331C127.428 31.1567 127.311 30.8483 127.118 30.5987C126.734 30.498 126.149 30.7654 126.083 30.1966C125.849 29.997 125.482 30.1396 125.24 30.1556C125.005 30.3223 124.814 30.5309 124.68 30.7734Z" fill="white"/>
<path fill-rule="evenodd" clip-rule="evenodd" d="M99.1531 23.569C99.1495 23.5672 99.146 23.5636 99.1406 23.5601C99.1406 23.5636 99.1424 23.5654 99.1424 23.569H99.1531Z" fill="white"/>
<path fill-rule="evenodd" clip-rule="evenodd" d="M102.191 30.9859L102.692 30.5028C102.735 30.5028 102.768 30.5108 102.792 30.5429L102.751 31.4691C102.993 31.6946 103.292 31.7686 103.61 31.7865C103.635 31.5369 103.827 31.3603 103.936 31.1437C104.028 30.969 103.97 30.7105 104.153 30.5866L104.212 30.6436C104.269 30.92 104.253 31.2284 104.396 31.4691C104.413 31.6028 104.436 31.7686 104.452 31.8863C104.821 31.9032 105.155 31.8034 105.438 31.6688C105.421 31.3523 105.531 31.0938 105.579 30.8032C105.656 30.7025 105.487 30.5179 105.696 30.5268C105.814 30.7773 106.022 31.035 106.14 31.3033C106.623 30.8112 106.826 30.1694 106.94 29.5008C106.799 29.31 106.582 29.31 106.414 29.1843C104.995 28.7261 103.175 28.6343 101.805 29.343C101.713 29.9082 101.83 30.534 102.191 30.9859Z" fill="white"/>
<path fill-rule="evenodd" clip-rule="evenodd" d="M88.9178 46.6415C88.867 47.2842 88.9178 47.8868 88.9589 48.5215C89.0927 48.7301 89.3362 48.9726 89.578 48.9878L89.619 48.5616C89.719 47.9697 89.4023 47.3412 89.7368 46.8402C89.9706 46.9142 90.2043 47.0319 90.405 47.1398C90.505 46.5898 90.3622 45.9461 89.8358 45.6118L88.9178 46.6415Z" fill="white"/>
<path fill-rule="evenodd" clip-rule="evenodd" d="M90.9815 45.7393C90.6558 46.7163 90.4141 47.9189 90.8066 48.9476C91.0323 48.7961 91.2652 48.6543 91.465 48.4466C91.424 47.6612 91.3151 46.8251 91.7826 46.1725C92.1912 46.2982 92.4678 46.6905 92.6248 47.0729C92.9023 46.7234 92.9933 46.2385 92.8853 45.7732C92.9023 45.405 92.4847 45.4897 92.284 45.339C92.35 45.0297 92.3411 44.6731 92.6676 44.4966L91.6666 44.5964C91.4079 44.9646 91.1242 45.3212 90.9815 45.7393Z" fill="white"/>
<path fill-rule="evenodd" clip-rule="evenodd" d="M93.0449 48.6224C93.0868 48.6964 93.0449 48.831 93.1296 48.848C93.2537 48.1464 93.8213 47.6926 94.1318 47.074C94.2808 46.8681 94.2737 46.5739 94.5156 46.4161C94.8404 46.4161 95.0751 46.6496 95.3928 46.6746C95.4927 46.7504 95.341 46.8172 95.333 46.9001C95.267 47.4689 95.0501 47.9378 95.0912 48.5226H95.1492C95.5918 48.0546 95.8925 47.5509 96.2183 47.0169L96.2754 46.5427C96.3521 45.9748 95.7346 45.6084 95.3312 45.374L95.6908 44.914L95.1893 44.7393C94.6048 44.7972 94.0783 45.0397 93.6696 45.4997C93.1609 46.4321 93.0779 47.4876 93.0449 48.6224Z" fill="white"/>
<path fill-rule="evenodd" clip-rule="evenodd" d="M95.291 43.6713C95.482 43.7283 95.6578 43.5714 95.8487 43.6535C96.618 43.9378 97.4194 44.2293 97.9959 44.8712L98.6812 46.6158L99.0239 45.538L98.7981 44.9559C98.6054 44.5387 98.0798 44.5725 97.7201 44.5556C97.5702 44.388 97.7281 44.1964 97.779 44.0386C97.9539 43.4458 97.2275 43.4787 96.9357 43.2372C96.9526 42.8797 96.518 43.0027 96.2753 42.9706L96.1923 42.8708C96.1423 42.7941 96.0174 42.7941 95.9496 42.8529C95.9344 42.828 95.9005 42.811 95.9175 42.77L95.7345 42.811C95.4739 43.0366 95.299 43.3281 95.291 43.6713Z" fill="white"/>
<path fill-rule="evenodd" clip-rule="evenodd" d="M95.7734 41.7519C95.7993 41.8589 95.8653 41.9676 95.9483 42.0354C96.3249 41.9355 96.6854 41.6752 97.1183 41.8348C97.6787 42.3269 98.2623 42.8439 98.9396 43.1105L99.1824 43.0695C99.3314 43.1185 99.4983 43.1265 99.5982 43.295C99.691 43.5205 99.4572 43.6525 99.3832 43.8361C99.758 44.1125 99.6089 44.6036 99.8419 44.9371L100.443 44.1374C100.303 43.7862 100.452 43.1862 99.9017 43.1524C99.716 43.0605 99.592 42.8778 99.5991 42.6692C99.2413 42.3438 98.7986 42.2021 98.4399 41.8678C98.1454 41.6351 97.9714 41.2768 97.5966 41.193C97.3369 41.0503 97.0531 40.9754 96.7533 40.9104C96.1919 40.8248 96.142 41.4925 95.7734 41.7519Z" fill="white"/>
<path fill-rule="evenodd" clip-rule="evenodd" d="M96.5781 40.108L96.6781 40.2684C97.0957 40.2426 97.4705 40.0598 97.8802 40.067C98.155 40.2337 98.5146 40.2248 98.7984 40.3674C99.0242 40.6767 99.2669 41.0253 99.5989 41.2339C100.277 41.3337 100.652 42.062 100.885 42.5942V42.3366C100.985 41.9773 100.876 41.5593 100.745 41.2339C100.577 41.0672 100.334 40.9593 100.16 40.8104C100.126 40.7017 100.151 40.65 100.185 40.551C99.9246 40.2756 99.5409 40.1249 99.2232 39.9074C98.7806 39.2647 97.9301 39.4421 97.2528 39.2647L96.5781 40.108Z" fill="white"/>
<path fill-rule="evenodd" clip-rule="evenodd" d="M96.5625 33.9881C96.6365 34.2475 96.7266 34.572 96.7775 34.8483C97.0103 34.3313 97.4715 34.0968 97.8802 33.6725C97.6455 33.5138 97.3538 33.4381 97.096 33.389V33.3721C96.9113 33.5539 96.6276 33.7385 96.5625 33.9881Z" fill="white"/>
<path fill-rule="evenodd" clip-rule="evenodd" d="M98.0801 36.7339L98.4548 36.3506C98.8313 35.9655 99.1418 35.5224 99.198 35.0312C98.9312 34.8734 98.5806 34.9822 98.3228 35.074C98.2309 35.6142 98.0881 36.1482 98.0801 36.7339Z" fill="white"/>
<path fill-rule="evenodd" clip-rule="evenodd" d="M98.3535 37.9104C98.9298 37.9425 99.4901 38.0593 99.9576 37.7339L100.426 36.2327C100.274 36.2238 100.123 36.156 99.9825 36.2078C99.6739 36.8906 99.0565 37.5672 98.3535 37.9104Z" fill="white"/>
<path fill-rule="evenodd" clip-rule="evenodd" d="M98.5244 32.5875C98.9 33.1376 99.5272 33.7535 100.169 33.9301C100.094 33.2285 99.4933 32.7444 99.1837 32.1454L99.1667 31.9448C98.925 31.7112 98.6323 31.5517 98.3817 31.4277C98.3415 31.828 98.4504 32.2104 98.5244 32.5875Z" fill="white"/>
<path fill-rule="evenodd" clip-rule="evenodd" d="M100.561 37.9766C101.003 38.0515 101.48 37.9766 101.888 37.8509C102.481 37.7083 102.807 37.0584 103.007 36.5503H102.264L101.464 37.3339C101.147 37.4997 100.846 37.7502 100.561 37.9766Z" fill="white"/>
<path fill-rule="evenodd" clip-rule="evenodd" d="M100.471 31.8281C100.597 32.4798 100.873 33.0717 101.249 33.6307L101.348 32.3871L100.471 31.8281Z" fill="white"/>
<path fill-rule="evenodd" clip-rule="evenodd" d="M103.207 35.0732C103.258 34.656 103.083 34.1711 103.034 33.7476C102.784 33.58 102.434 33.5961 102.174 33.4312C102.191 34.0882 102.707 34.648 103.207 35.0732Z" fill="white"/>
<path fill-rule="evenodd" clip-rule="evenodd" d="M102.447 39.3113C102.972 39.1446 103.482 38.961 103.967 38.6944C104.276 38.2514 104.742 37.852 104.81 37.335C104.424 37.4428 104.092 37.3171 103.732 37.4937C103.516 37.885 103.381 38.3289 102.964 38.6115C102.897 38.8932 102.589 39.0858 102.447 39.3113Z" fill="white"/>
<path fill-rule="evenodd" clip-rule="evenodd" d="M103.266 40.337L103.892 41.1545C104.227 41.2623 104.644 41.2302 104.936 41.0386L104.712 40.2969C104.269 40.4618 103.742 40.4137 103.266 40.337Z" fill="white"/>
<path fill-rule="evenodd" clip-rule="evenodd" d="M104.311 34.4314L104.552 35.5314C105.137 35.0572 105.257 34.3645 105.24 33.6309C104.907 34.0142 104.713 34.2478 104.311 34.4314Z" fill="white"/>
<path fill-rule="evenodd" clip-rule="evenodd" d="M105.955 36.3735C105.963 36.5331 106.004 36.6829 106.095 36.8077C106.747 37.0421 106.814 37.8329 107.416 38.1333C107.807 38.3098 108.259 38.0923 108.6 37.9327C108.342 37.6412 108.05 37.4406 107.799 37.1331C107.625 37.0582 107.447 36.9494 107.457 36.7328L105.955 36.3735Z" fill="white"/>
<path fill-rule="evenodd" clip-rule="evenodd" d="M106.474 40.3131C106.757 40.6367 107.14 40.8052 107.541 40.8952C107.475 40.8043 107.584 40.8952 107.6 40.8382L107.098 39.7363C106.848 39.7453 106.588 39.7961 106.355 39.7791C106.374 39.9628 106.414 40.1455 106.474 40.3131Z" fill="white"/>
<path fill-rule="evenodd" clip-rule="evenodd" d="M107.359 35.1737C107.124 34.6317 107.028 33.9711 106.959 33.3721C106.71 33.6725 106.45 33.8651 106.216 34.1717C106.107 34.7886 106.991 34.9393 107.359 35.1737Z" fill="white"/>
<path fill-rule="evenodd" clip-rule="evenodd" d="M108.375 34.605C108.678 34.999 109.336 34.8653 109.704 34.7476C109.528 34.4472 108.962 34.2707 108.862 33.948C108.805 33.3721 108.687 32.8114 108.503 32.2881C108.211 32.9959 107.858 33.8392 108.375 34.605Z" fill="white"/>
<path fill-rule="evenodd" clip-rule="evenodd" d="M108.902 36.374C109.737 36.9828 110.556 37.6924 111.723 37.433C111.807 37.376 111.95 37.3822 111.966 37.2752C111.623 37.0586 111.257 36.8901 110.906 36.6904L110.506 36.1074H110.322C109.871 36.2563 109.387 36.3169 108.902 36.374Z" fill="white"/>
<path fill-rule="evenodd" clip-rule="evenodd" d="M108.92 43.1399H108.98C109.481 42.7396 110.073 42.605 110.666 42.4392C110.826 42.498 110.725 42.6737 110.868 42.7396C111.226 42.5908 111.661 42.6229 112.028 42.498C112.47 42.5141 112.83 42.5221 113.189 42.7138C113.474 43.09 114.007 43.0472 114.376 43.2986L114.316 42.7138C113.54 41.8045 112.329 41.7385 111.21 41.7555L111.185 41.6387C110.919 41.6387 110.618 41.6957 110.367 41.8134C110.009 41.8303 109.666 42.0051 109.323 42.1129C109.163 42.4303 109.037 42.8163 108.92 43.1399Z" fill="white"/>
<path fill-rule="evenodd" clip-rule="evenodd" d="M109.59 32.8874C109.915 33.3135 110.399 33.6397 110.95 33.531C110.668 33.2537 110.34 32.9622 110.324 32.5709C110.408 31.8283 109.59 31.7686 109.189 31.3853C109.323 31.8863 109.305 32.4452 109.59 32.8874Z" fill="white"/>
<path fill-rule="evenodd" clip-rule="evenodd" d="M109.504 44.6161H109.604C110.046 44.3415 110.689 44.551 111.124 44.2586C111.366 44.1329 111.383 44.4672 111.55 44.559C111.959 44.8078 112.01 45.5593 112.586 45.3845C113.277 45.7429 113.103 46.5853 113.128 47.2022L113.772 46.8028C113.713 46.4774 113.898 46.0852 113.688 45.8017C113.529 45.4434 113.094 45.4104 112.886 45.1189C113.137 44.6928 112.569 44.4913 112.451 44.1829L112.486 44.1418L113.371 44.2586C113.672 44.4414 113.781 44.7757 113.873 45.085C114.564 45.2018 114.731 45.9854 114.974 46.4855C115.117 46.144 115.175 45.7759 115.316 45.4425C115.325 45.167 114.958 45.167 114.774 45.0422C114.725 44.6161 114.532 44.2167 114.156 43.9591C113.388 43.7648 112.712 43.3413 111.869 43.3413L111.168 43.5571C110.782 43.6498 110.373 43.533 110.081 43.7986C109.645 43.8325 109.613 44.3085 109.504 44.6161Z" fill="white"/>
<path fill-rule="evenodd" clip-rule="evenodd" d="M109.947 41.1797L110.106 41.2555C110.449 41.0968 110.791 40.9131 111.151 40.7794C111.708 40.6216 112.143 41.2555 112.612 40.8543C112.786 40.7304 112.938 40.9131 113.07 41.0139C113.274 41.3803 113.739 41.3553 114.091 41.4543C113.915 40.98 113.697 40.3292 113.088 40.2535C112.846 40.1456 112.561 40.1545 112.328 40.0119C111.685 39.3032 111.268 40.5967 110.564 40.2802C110.315 40.5539 110.006 40.8142 109.947 41.1797Z" fill="white"/>
<path fill-rule="evenodd" clip-rule="evenodd" d="M110.107 45.2426C110.373 45.4682 110.649 45.8524 111.067 45.8016C111.584 46.0432 111.367 46.7278 111.65 47.087L111.951 46.8196L111.926 46.8018L111.968 46.7608L111.985 46.784C112.068 46.5352 111.952 46.0931 111.809 45.7998C111.618 45.667 111.393 45.8087 111.208 45.683C111.183 45.4147 111.017 45.2827 110.825 45.1169C110.691 45.0153 110.515 45.149 110.364 45.1401L110.107 45.2426Z" fill="white"/>
<path fill-rule="evenodd" clip-rule="evenodd" d="M111.15 35.0734C111.424 35.5316 111.959 35.8159 112.385 36.1324C112.737 36.2911 113.194 36.333 113.571 36.2483C113.211 35.9568 112.885 35.6225 112.586 35.273C112.468 35.1054 112.443 34.896 112.285 34.7471C111.893 34.8229 111.449 34.8139 111.15 35.0734Z" fill="white"/>
<path fill-rule="evenodd" clip-rule="evenodd" d="M111.611 32.0875C111.995 32.5627 112.588 32.371 113.13 32.3879V32.3291L112.295 31.6284C112.062 31.7024 111.812 31.911 111.611 32.0875Z" fill="white"/>
<path fill-rule="evenodd" clip-rule="evenodd" d="M96.2363 24.2199L96.7198 25.722C96.7109 24.8706 97.1052 24.1602 97.0214 23.2937L97.3791 22.7588L96.619 22.9932C96.4192 23.3766 96.2524 23.7608 96.2363 24.2199Z" fill="white"/>
<path fill-rule="evenodd" clip-rule="evenodd" d="M96.5625 21.6167L97.2217 21.2334V20.2563C96.9443 20.423 96.7953 20.7083 96.5785 20.9312L96.5625 21.6167Z" fill="white"/>
<path fill-rule="evenodd" clip-rule="evenodd" d="M110.109 23.1348C109.95 23.3426 109.708 23.3943 109.508 23.4344C109.859 22.7934 110.026 21.9002 109.75 21.1737C109.933 21.1077 110.134 21.0738 110.309 20.974L110.292 20.9561L110.752 20.5559C111.361 20.1387 111.126 19.3471 111.352 18.7543C111.052 18.288 110.96 17.7202 110.526 17.3279L110.551 17.311C110.208 16.8769 109.591 16.9277 109.123 16.711C108.504 16.5024 108.028 16.9277 107.584 17.2111C107.393 17.245 107.51 17.4946 107.302 17.4857C107.185 17.7942 107.042 18.1285 106.958 18.4708C106.132 18.354 105.238 18.4458 104.579 18.9129C104.226 18.6535 103.802 18.6045 103.393 18.4877C103.092 18.428 102.75 18.5367 102.533 18.37C102.217 18.0126 102.148 17.3609 101.604 17.27C101.413 17.2022 101.372 16.9936 101.372 16.81C101.013 16.7503 100.694 16.5845 100.345 16.5096C99.8106 16.2671 99.3849 16.6522 98.9843 16.9098C98.8076 16.9838 98.6077 17.0097 98.4408 17.1095C98.1409 17.5775 97.858 18.0527 97.6635 18.5697C97.7233 18.9949 97.9062 19.3694 98.124 19.7295C98.3158 20.2715 98.9173 20.6976 99.426 20.9151C99.1842 21.7406 99.1842 22.7239 99.426 23.5583C99.426 23.5583 99.4126 23.5699 99.4126 23.5672C99.4126 23.5699 99.3858 23.5922 99.3858 23.5922C99.3073 23.5922 99.2198 23.6073 99.1547 23.5672H99.144C99.2636 24.3642 99.6384 25.0631 100.245 25.6612C100.463 25.7361 100.412 25.9955 100.503 26.1613C100.562 26.2371 100.571 26.3949 100.546 26.4618C99.2422 26.4208 98.0812 26.7461 97.037 27.3381C96.7702 27.4718 96.8871 27.8382 96.8621 28.0976C97.5975 27.6126 98.3899 27.2551 99.2671 27.0956C99.6428 27.0724 100.068 26.9788 100.428 27.0786L100.469 27.798C99.4769 28.316 98.3899 28.6155 97.5395 29.4668C97.5555 29.7245 97.5055 30.024 97.5805 30.2415L98.3417 29.6246C99.0762 29.0648 99.8445 28.5897 100.687 28.2812C100.914 28.5478 101.148 28.833 101.448 28.9988C101.957 28.6726 102.509 28.431 103.094 28.2812C103.403 28.0976 103.896 28.2643 104.096 27.8979L104.237 27.1384C104.214 27.1214 104.196 27.0876 104.154 27.0956C103.762 26.87 103.503 26.4787 103.536 26.0205C103.403 26.0865 103.254 26.1292 103.094 26.1355C102.962 26.1034 102.835 26.0695 102.777 25.9349C102.769 25.7691 102.684 25.5186 102.853 25.3947C103.395 25.0604 104.097 25.0435 104.781 25.0934C105.29 25.1611 106.025 25.1353 106.202 25.7361C106.177 25.9117 106.193 26.1043 106.017 26.2202C105.834 26.32 105.626 26.2113 105.458 26.1355C105.325 26.5456 105.099 27.0038 104.64 27.1375L104.698 27.6206C104.755 27.8382 104.772 28.1965 105.115 28.1207C105.908 28.3142 106.611 28.7225 107.303 29.1637C107.538 28.9311 107.721 28.6636 107.887 28.4212C109.125 28.8402 110.192 29.7655 111.213 30.6257L111.253 29.9242C110.284 29.0639 109.208 28.4559 108.088 27.9808C108.131 27.7553 108.181 27.5377 108.189 27.2953C109.516 27.371 110.777 27.7802 111.871 28.4212L111.854 27.8212C110.702 27.2034 109.441 26.7952 108.064 26.7791C108.012 26.7042 107.996 26.5955 108.005 26.5206C108.673 26.4127 109.148 25.721 109.308 25.1183C109.651 24.727 110.144 24.3009 110.027 23.7179C110.041 23.6688 110.058 23.618 110.076 23.5672C110.12 23.4237 110.157 23.2703 110.109 23.1348Z" fill="white"/>
<path fill-rule="evenodd" clip-rule="evenodd" d="M111.27 25.2794L111.954 25.0619L112.031 24.6795C112.223 24.1196 111.813 23.7024 111.613 23.2603L111.27 25.2794Z" fill="white"/>
<path fill-rule="evenodd" clip-rule="evenodd" d="M112.999 27.923C113.324 28.2822 113.642 28.8572 114.218 28.6825C114.176 28.44 114.042 28.2395 113.96 28.0228C113.81 27.8481 113.758 27.3471 113.458 27.5227C113.233 27.373 113.175 27.1225 113.032 26.9219C112.967 27.2312 113.008 27.6145 112.999 27.923Z" fill="white"/>
<path fill-rule="evenodd" clip-rule="evenodd" d="M113.113 30.3669C113.239 30.5417 113.274 30.7681 113.397 30.9268C113.623 31.0756 113.957 31.0507 114.234 31.0266C114.483 30.9678 114.643 31.2423 114.875 31.0846C114.584 30.9009 114.409 30.5675 114.134 30.3241C113.807 30.0674 113.457 30.2929 113.113 30.3669Z" fill="white"/>
<path fill-rule="evenodd" clip-rule="evenodd" d="M113.557 34.2478C114.133 34.5892 114.865 34.9235 115.634 34.8067C115.717 34.7657 115.859 34.7737 115.875 34.6739C115.399 34.5063 114.899 34.0312 114.4 33.9313C114.124 33.5061 113.765 34.0401 113.414 34.0062C113.422 34.1051 113.522 34.18 113.557 34.2478Z" fill="white"/>
<path fill-rule="evenodd" clip-rule="evenodd" d="M115.291 41.6138L115.417 41.8803C115.544 42.7486 116.092 43.5482 115.793 44.4994C116.043 44.6759 116.118 44.9674 116.278 45.201H116.319C116.511 44.4762 116.378 43.7247 116.278 42.9982C116.353 42.3394 115.684 41.9561 115.291 41.6138Z" fill="white"/>
<path fill-rule="evenodd" clip-rule="evenodd" d="M115.436 33.0712C115.869 33.4055 116.562 33.4376 117.063 33.2718C116.746 33.097 116.396 32.9036 116.136 32.6709L115.436 33.0712Z" fill="white"/>
<path fill-rule="evenodd" clip-rule="evenodd" d="M117.498 35.6314C117.457 35.9826 117.69 36.2742 117.94 36.4507C118.032 36.243 118.181 36.0656 118.198 35.8329C118.123 35.4745 117.923 35.1482 117.597 34.9058C117.54 35.1393 117.472 35.3649 117.498 35.6314Z" fill="white"/>
<path fill-rule="evenodd" clip-rule="evenodd" d="M117.523 39.4367C117.463 39.8281 117.898 39.8789 118.08 40.0955C118.231 40.2791 117.98 40.4048 117.98 40.5795C118.298 40.9878 118.483 41.4532 118.483 41.997C118.607 41.4888 118.799 41.0048 118.866 40.4797C118.832 40.1115 118.249 40.1882 118.34 39.779C118.508 39.3618 118.307 38.9535 118.198 38.5765C118.166 38.5194 118.089 38.4017 118.024 38.4365C117.873 38.777 117.498 39.0195 117.523 39.4367Z" fill="white"/>
<path fill-rule="evenodd" clip-rule="evenodd" d="M118.666 37.4504L119.1 38.2928C119.292 38.2679 119.417 38.0842 119.567 37.9505C119.683 37.6002 119.374 37.3746 119.284 37.0903C119.208 36.8897 119.284 36.624 119.141 36.4493C119.032 36.3816 118.908 36.2728 118.783 36.3067L118.666 37.4504Z" fill="white"/>
<path fill-rule="evenodd" clip-rule="evenodd" d="M119.225 35.231C119.568 35.4396 119.96 35.7391 120.145 36.1073C120.437 36.9586 120.904 37.7244 121.246 38.5507C121.372 39.1266 121.472 39.641 121.63 40.207C121.69 40.3577 121.656 40.6492 121.89 40.6242C121.956 39.9904 122.081 39.3807 122.09 38.7219C121.882 38.4464 121.607 38.3305 121.347 38.1638V38.105C121.381 37.9642 121.499 37.7957 121.673 37.8224C121.747 37.7386 121.973 37.6557 121.874 37.5051C121.439 37.0718 121.464 36.3257 120.772 36.1911C120.53 36.0912 120.472 35.8398 120.447 35.6081C120.12 35.3308 119.636 35.2399 119.225 35.231Z" fill="white"/>
<path fill-rule="evenodd" clip-rule="evenodd" d="M119.629 39.7531C120.053 40.1444 119.904 40.7123 119.871 41.2382C119.805 41.5556 120.204 41.3702 120.33 41.5387C120.59 41.922 120.439 42.4818 120.348 42.8981C120.574 42.5549 120.831 42.2554 121.006 41.8792C120.999 41.7383 121.182 41.6706 121.174 41.495C121.248 41.2534 120.965 41.3621 120.847 41.3372C120.748 41.3122 120.64 41.2454 120.673 41.1116C120.888 40.6944 120.69 40.1943 120.606 39.7771C120.506 39.4348 120.648 38.9757 120.488 38.6753C120.22 39.0444 119.426 39.1273 119.629 39.7531Z" fill="white"/>
<path fill-rule="evenodd" clip-rule="evenodd" d="M120.404 33.8303C121.148 34.5818 121.69 35.336 122.491 36.0625C122.508 35.7362 122.466 35.4367 122.45 35.1194C122.334 34.8938 122.116 34.728 121.931 34.5595C121.339 34.5025 121.03 33.7046 120.404 33.8303Z" fill="white"/>
<path fill-rule="evenodd" clip-rule="evenodd" d="M122.348 37.8053C122.365 37.8819 122.399 37.9479 122.433 38.0219C122.758 38.5568 123.068 39.1077 123.293 39.6827C123.225 39.0649 123.643 38.2983 123.091 37.8222C123.017 37.6208 122.768 37.6885 122.607 37.7046L122.348 37.8053Z" fill="white"/>
<path fill-rule="evenodd" clip-rule="evenodd" d="M124.354 43.8995C124.588 44.0083 124.888 43.8166 125.114 43.6829C125.323 43.633 125.498 43.7507 125.658 43.8585C125.724 43.9913 125.658 44.117 125.683 44.2427C126.183 44.3836 126.675 44.5681 127.118 44.8596L127.259 44.7179C127.292 44.3595 127.01 44.1001 126.741 43.8995C126.567 43.7997 126.306 43.8585 126.182 43.6998C126.266 43.5661 126.266 43.3655 126.257 43.2158C125.982 43.2158 125.806 43.1311 125.582 42.9992C125.439 42.9573 125.313 42.8396 125.196 42.9992C124.779 43.2818 124.754 43.6998 124.354 43.8995Z" fill="white"/>
<path fill-rule="evenodd" clip-rule="evenodd" d="M124.939 33.4016C125.147 33.3418 125.365 33.2839 125.54 33.1332C126.1 32.6242 126.909 32.9665 127.561 32.9585C127.436 32.733 127.259 32.5074 127.101 32.3158C126.866 32.2239 126.65 32.1161 126.383 32.1161C125.814 31.7818 125.432 32.3416 124.996 32.6162C124.879 32.8417 124.822 33.1751 124.939 33.4016Z" fill="white"/>
<path fill-rule="evenodd" clip-rule="evenodd" d="M124.952 35.1193C124.952 35.0934 124.952 35.0676 124.977 35.0613C125.054 35.1273 124.969 35.2878 125.095 35.3199C125.312 35.2111 125.513 35.0613 125.713 34.9196C126.272 34.9196 126.607 34.3767 127.157 34.3767C128.077 34.5443 128.987 34.7288 129.787 35.1772C129.73 34.637 129.261 34.1431 128.786 33.9016C128.518 33.8097 128.309 33.9515 128.118 34.1021C127.559 34.4534 127.851 33.5931 127.459 33.5762C126.949 33.734 126.422 33.9105 125.855 33.8588C125.521 33.9854 125.286 34.2929 124.91 34.259C124.895 34.5363 124.854 34.8706 124.952 35.1193Z" fill="white"/>
<path fill-rule="evenodd" clip-rule="evenodd" d="M125.339 36.9789C125.513 37.1644 125.805 37.1305 126.057 37.1644L126.783 36.8791C126.791 36.748 126.567 36.7124 126.616 36.5626C126.817 36.3371 127.091 36.4967 127.343 36.4048C127.693 36.354 128.052 36.0055 128.403 36.2622C128.392 36.305 128.418 36.362 128.385 36.4048C128.277 36.6634 128.46 36.822 128.661 36.9219C129.071 36.9968 129.453 37.373 129.863 37.2045C129.822 36.8622 129.731 36.5475 129.647 36.2203C129.304 36.1624 129.062 35.8789 128.745 35.7612C128.604 35.8949 128.418 35.9948 128.243 35.9778C127.6 35.8272 126.831 35.4269 126.18 35.8361C125.946 36.1205 125.529 36.0367 125.211 36.1615C125.23 36.445 125.263 36.7213 125.339 36.9789Z" fill="white"/>
<path fill-rule="evenodd" clip-rule="evenodd" d="M125.615 41.939C125.565 42.0808 125.423 42.3134 125.682 42.3812C126.216 42.3972 126.901 42.1218 127.319 42.539C127.46 42.6477 127.393 42.8733 127.384 43.015L128.085 43.5989C128.152 43.2468 128.279 42.9303 128.288 42.555C128.229 42.2876 128.095 42.03 127.861 41.8552C127.401 41.8552 127.135 41.3177 126.641 41.3836C126.383 41.3266 126.157 41.5557 125.897 41.5557C125.782 41.6716 125.715 41.8142 125.615 41.939Z" fill="white"/>
<path fill-rule="evenodd" clip-rule="evenodd" d="M125.815 38.0052C125.923 38.2307 126.05 38.598 126.258 38.6221C126.75 38.4072 127.47 38.2726 128.02 38.5071C128.203 38.5392 128.203 38.7478 128.163 38.8815C128.446 39.0482 128.789 39.1819 129.089 39.3646L129.006 38.8636C128.989 38.3216 128.305 38.2726 128.262 37.7377C127.703 37.555 127.076 37.4953 126.484 37.6379C126.292 37.8126 126.015 37.7894 125.783 37.8385C125.766 37.9053 125.806 37.9481 125.815 38.0052Z" fill="white"/>
<path fill-rule="evenodd" clip-rule="evenodd" d="M125.955 40.7087C126.281 40.616 126.49 40.2585 126.841 40.2246C127.374 40.2335 127.851 40.451 128.185 40.911C128.385 41.0421 128.343 41.3844 128.603 41.3844C128.526 40.9761 128.66 40.6017 128.643 40.1827C128.294 39.5997 127.425 40.0508 127.1 39.3652L126.482 39.4071C126.039 39.5168 126.157 40.0338 126.099 40.3851C126.048 40.492 125.948 40.5758 125.955 40.7087Z" fill="white"/>
<path fill-rule="evenodd" clip-rule="evenodd" d="M129.023 44.3583C129.281 44.8754 129.85 45.2676 129.907 45.8595C130.04 45.7017 130.133 45.5181 130.224 45.3425C130.215 45.1758 130.023 45.1758 129.949 45.0421C129.872 44.8254 129.989 44.6338 130.023 44.4412C129.914 44.1328 129.654 43.8413 129.363 43.6567L129.023 44.3583Z" fill="white"/>
<path fill-rule="evenodd" clip-rule="evenodd" d="M130.051 43.0401L130.652 43.8584C130.909 43.4502 130.909 42.8484 130.809 42.3563C130.752 42.2636 130.643 42.1139 130.494 42.1816C130.268 42.4143 130.234 42.7735 130.051 43.0401Z" fill="white"/>
<path fill-rule="evenodd" clip-rule="evenodd" d="M127.602 20.2044C127.819 20.3132 128.028 20.413 128.288 20.43C128.462 20.3382 128.689 20.2704 128.906 20.3301C129.214 20.5307 129.59 20.2882 129.949 20.3052C129.632 20.0048 129.271 19.8202 128.906 19.6455C128.437 19.7445 128.063 20.0787 127.602 20.2044Z" fill="white"/>
<path fill-rule="evenodd" clip-rule="evenodd" d="M130.867 20.9871C131.31 21.029 131.628 21.4212 131.927 21.7466C132.302 21.8036 132.586 22.0719 132.811 22.3465L132.671 21.9052C132.571 21.4622 132.294 21.1199 132.011 20.7695C131.61 20.7954 131.217 20.8302 130.867 20.9871Z" fill="white"/>
<path fill-rule="evenodd" clip-rule="evenodd" d="M99.7029 17.3286L99.9456 17.3545C100.596 17.6799 101.648 17.8466 101.708 18.7888C101.047 19.0482 100.413 19.3977 99.8858 19.9317C99.486 19.5234 98.6757 19.748 98.541 19.0313C98.6677 18.3538 98.9087 17.5025 99.7029 17.3286Z" fill="#FF6600"/>
<path fill-rule="evenodd" clip-rule="evenodd" d="M100.329 21.5596C101.09 21.4918 101.824 21.5997 102.609 21.5337C102.8 21.6166 103 21.7824 103.093 21.975C103.067 22.8762 102.792 23.7365 102.751 24.6618C102.408 24.8027 102.074 25.0879 101.99 25.4623C101.681 25.5542 101.405 25.7369 101.104 25.8786C100.973 25.596 100.996 25.1699 101.231 24.9355C101.556 24.4773 102.4 24.5843 102.334 23.8586C102.55 23.5092 102.342 23.0581 102.349 22.6917C102.266 22.4153 102.182 22.7835 102.049 22.7746C101.782 22.8317 101.507 22.8486 101.272 22.7149C101.097 22.5312 100.882 22.3806 100.83 22.1319C100.595 22.0151 100.321 21.8323 100.203 21.5899L100.329 21.5596Z" fill="#FF6600"/>
<path fill-rule="evenodd" clip-rule="evenodd" d="M101.248 26.9966C101.605 27.0483 101.982 26.8879 102.291 27.0644C102.226 27.1821 102.049 27.2311 101.907 27.265L101.347 27.5226C101.139 27.4736 101.256 27.1393 101.248 26.9966Z" fill="#FF6600"/>
<path fill-rule="evenodd" clip-rule="evenodd" d="M102.707 20.0316C103.065 19.9148 103.45 19.6741 103.834 19.7891C103.559 20.0655 103.342 20.423 103.134 20.7573L101.99 20.7323C102.116 20.431 102.432 20.1823 102.707 20.0316Z" fill="#FF6600"/>
<path fill-rule="evenodd" clip-rule="evenodd" d="M106.058 19.7569C106.534 19.674 106.508 20.2909 106.942 20.3141C107.019 20.4139 107.128 20.5057 107.085 20.6564C106.833 20.7562 106.467 20.7081 106.183 20.7732C105.807 20.5646 106.05 19.9138 105.457 19.9557C105.424 19.9049 105.358 19.8051 105.44 19.7721C105.624 19.7061 105.867 19.7311 106.058 19.7569Z" fill="#FF6600"/>
<path fill-rule="evenodd" clip-rule="evenodd" d="M105.756 21.9911C105.965 21.6987 106.283 21.6746 106.584 21.6167L108.747 21.6568C108.839 21.7415 108.663 21.8164 108.663 21.9162C108.53 22.0419 108.337 22.0758 108.22 22.1917C107.936 22.1997 107.961 22.534 107.762 22.6766C107.452 22.9851 107 22.8424 106.642 22.7934C106.517 22.7007 106.375 22.5759 106.315 22.4342L106.215 22.534C106.341 23.002 106.308 23.5191 106.401 23.9942L106.918 24.3365C106.926 25.1032 107.828 24.8946 108.22 25.3207C108.128 25.597 107.945 25.8297 107.745 26.0633C107.428 25.7548 107.067 25.5551 106.684 25.4205C106.651 24.9721 106.158 24.7038 105.884 24.4792C105.807 23.6608 105.791 22.8264 105.658 22.0339L105.756 21.9911Z" fill="#FF6600"/>
<path fill-rule="evenodd" clip-rule="evenodd" d="M106.543 27.1391H107.546L107.42 27.6642L106.416 27.239C106.393 27.1561 106.484 27.1311 106.543 27.1391Z" fill="#FF6600"/>
<path fill-rule="evenodd" clip-rule="evenodd" d="M108.345 17.6881L109.088 17.4546C109.515 17.6543 109.915 17.9039 110.307 18.1883C110.616 18.7552 110.567 19.5228 110.424 20.1566C110.198 20.4062 109.706 20.1566 109.523 20.5568H109.488C109.213 19.7733 108.428 19.0708 107.701 18.7142C107.818 18.3131 107.944 17.9208 108.345 17.6881Z" fill="#FF6600"/>
</svg>
