<svg fill="none" height="52" viewBox="0 0 148 52" width="148" xmlns="http://www.w3.org/2000/svg"><path d="m20.3515 43.4217c-2.2265.391-4.4921.5082-6.8358.8204l-7.14861-20.9373v21.8359c-2.22648.2343-4.25769.5468-6.36709.8593v-40h5.93766l8.12484 22.6957v-22.6957h6.289zm12.3048-22.7733c2.422 0 6.1329-.1172 8.3594-.1172v6.2499c-2.7736 0-6.0156 0-8.3594.1172v9.297c3.672-.2343 7.3438-.547 11.0546-.6643v6.0153l-17.3048 1.3675v-36.9138h17.3048v6.25h-11.0546zm34.2967-8.3982h-6.4843v28.7499c-2.1094 0-4.2188 0-6.2497.0779v-28.8278h-6.4843v-6.2502h19.2186zm10.1562 7.9687h8.5548v6.2498h-8.5548v14.1799h-6.1332v-34.6486h17.4615v6.25h-11.3283zm21.4844 14.9608c3.5544.0779 7.1484.3518 10.6254.5468v6.1719c-5.586-.3518-11.1722-.7029-16.8752-.8204v-35.078h6.2498zm15.8984 7.1484c1.992.1174 4.102.2346 6.133.4686v-36.7967h-6.133zm33.516-36.3281-7.93 19.0235 7.93 20.9765c-2.344-.3125-4.688-.7422-7.032-1.1329l-4.492-11.5622-4.57 10.625c-2.266-.391-4.453-.5082-6.718-.8207l8.047-18.3203-7.266-18.7889h6.718l4.102 10.5078 4.375-10.5078z" fill="#d81f26"/></svg>