<svg width="212" height="64" viewBox="0 0 212 64" fill="none" xmlns="http://www.w3.org/2000/svg">
<mask id="mask0_202_2723" style="mask-type:luminance" maskUnits="userSpaceOnUse" x="0" y="13" width="212" height="38">
<path d="M0 13H211.436V51H0V13Z" fill="white"/>
</mask>
<g mask="url(#mask0_202_2723)">
<path d="M18.4862 13V22.5L27.7293 13H36.9724V22.5L27.73 31.9993L36.9724 32V41.5L27.7293 51V41.5H18.4862L9.2431 51V41.5H0L9.2431 32V22.5H0L9.2431 13H18.4862ZM169.769 24.8094C173.718 24.8094 175.728 26.7656 175.799 30.6779L175.801 30.8932V41.5H172.303V38.9518H172.241C171.142 40.9054 169.53 41.8822 167.406 41.8822C165.841 41.8822 164.615 41.4469 163.729 40.5763C162.843 39.7057 162.4 38.5537 162.4 37.1203C162.4 34.1054 164.059 32.3223 167.378 31.7708L167.592 31.7373L172.318 31.0525C172.318 28.7273 171.241 27.5647 169.085 27.5647C167.271 27.5647 165.627 28.1767 164.154 29.4007L163.954 29.5714V26.3384C165.634 25.3191 167.572 24.8094 169.769 24.8094ZM127.751 24.8094C130.238 24.8094 132.176 25.558 133.565 27.055C134.954 28.5521 135.648 30.6278 135.648 33.2821C135.648 35.8834 134.899 37.9671 133.402 39.5331C131.904 41.0992 129.891 41.8822 127.362 41.8822C124.906 41.8822 122.944 41.1204 121.478 39.5968C120.011 38.0732 119.278 36.0533 119.278 33.537C119.278 30.7977 120.042 28.6583 121.571 27.1187C123.1 25.5792 125.159 24.8094 127.751 24.8094ZM83.6116 24.8094C85.7881 24.8094 87.4723 25.5261 88.6642 26.9595C89.8103 28.3377 90.4054 30.2313 90.4494 32.6402L90.4521 32.9318V34.3492H79.6006C79.6421 35.8569 80.0955 37.0195 80.9609 37.837C81.8264 38.6546 83.0157 39.0633 84.5289 39.0633C86.1392 39.0633 87.6239 38.5964 88.983 37.6625L89.2084 37.5026V40.4807C87.7573 41.4151 85.84 41.8822 83.4562 41.8822C81.1138 41.8822 79.2767 41.1417 77.9449 39.6605C76.6131 38.1794 75.9472 36.0958 75.9472 33.4096C75.9472 30.872 76.6805 28.8042 78.147 27.2063C79.6136 25.6084 81.4351 24.8094 83.6116 24.8094ZM200.616 17.356V32.661H200.678L206.523 25.1917H210.861L204.285 33.0592L211.436 41.5H206.865L200.678 33.6644H200.616V41.5H196.993V17.356H200.616ZM54.667 18.662L60.528 33.8714L60.698 34.3227C60.9944 35.1211 61.2072 35.7595 61.3364 36.2381L61.3986 36.4833H61.4764L61.7129 35.7544C61.9394 35.068 62.136 34.5088 62.3025 34.0768L68.379 18.662H73.4005V41.5H69.7315V26.7206C69.7315 25.6964 69.7835 24.4784 69.8874 23.0665L69.9492 22.2772H69.887L69.7836 22.7178C69.6143 23.419 69.4604 23.9536 69.3218 24.3218L62.6268 41.5H60.0772L53.4077 24.5546C53.2355 24.094 53.0545 23.4117 52.8646 22.5078L52.817 22.2772H52.7548L52.7784 22.5685C52.8418 23.443 52.8753 24.7356 52.8788 26.4462L52.8792 41.5H49.4589V18.662H54.667ZM152.103 18.662C154.258 18.662 155.966 19.1451 157.225 20.1112C158.485 21.0774 159.114 22.3356 159.114 23.8857C159.114 25.1811 158.757 26.3065 158.041 27.2621C157.371 28.1579 156.459 28.8111 155.306 29.2217L155.072 29.3006V29.3643C156.606 29.5448 157.832 30.1261 158.749 31.1082C159.666 32.0903 160.125 33.3671 160.125 34.9385C160.125 36.8921 159.373 38.474 157.87 39.6844C156.43 40.8444 154.628 41.4485 152.465 41.4969L152.18 41.5H145.029V18.662H152.103ZM188.154 24.8094C189.885 24.8094 191.206 25.3854 192.118 26.5374C192.991 27.6393 193.446 29.21 193.484 31.2493L193.486 31.5303V41.5H189.879V32.3106C189.879 29.2635 188.827 27.7399 186.724 27.7399C185.625 27.7399 184.718 28.1619 184.003 29.006C183.33 29.8004 182.973 30.79 182.934 31.9747L182.93 32.1992V41.5H179.308V25.1917H182.93V27.8991H182.992C184.184 25.8393 185.905 24.8094 188.154 24.8094ZM111.542 24.8094C114.983 24.8094 116.734 26.9448 116.795 31.2156L116.797 31.4506V41.5H113.19V32.6132C113.19 30.9038 112.954 29.6669 112.483 28.9025C112.011 28.138 111.216 27.7558 110.096 27.7558C109.153 27.7558 108.352 28.2389 107.694 29.2051C107.077 30.1109 106.75 31.1846 106.711 32.4264L106.707 32.6769V41.5H103.085V32.3106C103.085 29.2741 102.038 27.7558 99.9444 27.7558C98.9702 27.7558 98.1695 28.2123 97.5425 29.1254C96.9547 29.9815 96.6423 31.0754 96.6056 32.4074L96.6019 32.6769V41.5H92.9952V25.1917H96.6019V27.7717H96.6641C97.8146 25.7969 99.4884 24.8094 101.686 24.8094C102.784 24.8094 103.746 25.12 104.57 25.7411C105.393 26.3622 105.956 27.1771 106.256 28.1858C107.438 25.9349 109.2 24.8094 111.542 24.8094ZM27.7293 22.5H18.4862L9.2431 32H18.4862V41.5L27.73 31.9993L27.7293 22.5ZM172.318 33.4892L168.976 33.967C167.94 34.105 167.16 34.3625 166.636 34.7394C166.113 35.1163 165.851 35.7772 165.851 36.7222C165.851 37.4123 166.092 37.9777 166.574 38.4183C167.056 38.8589 167.701 39.0792 168.51 39.0792C169.608 39.0792 170.518 38.6837 171.238 37.8927C171.913 37.1512 172.272 36.23 172.314 35.1292L172.318 34.9066V33.4892ZM127.533 27.7558C126.123 27.7558 125.009 28.2601 124.19 29.2688C123.372 30.2774 122.962 31.6683 122.962 33.4414C122.962 35.1508 123.377 36.4966 124.206 37.4787C125.035 38.4608 126.144 38.9518 127.533 38.9518C128.953 38.9518 130.044 38.4687 130.805 37.5026C131.567 36.5364 131.948 35.1614 131.948 33.3777C131.948 31.5834 131.567 30.1978 130.805 29.221C130.044 28.2442 128.953 27.7558 127.533 27.7558ZM151.388 31.2436H148.714V38.474H151.869C153.248 38.474 154.313 38.1476 155.064 37.4946C155.816 36.8416 156.191 35.9418 156.191 34.7951C156.191 32.4801 154.66 31.2968 151.599 31.2454L151.388 31.2436ZM83.565 27.5328C82.5285 27.5328 81.6502 27.9203 80.9299 28.6954C80.2576 29.4188 79.8268 30.3503 79.6375 31.4899L79.6006 31.7373H86.9697C86.9593 30.4101 86.6535 29.3776 86.0524 28.6397C85.4513 27.9018 84.6221 27.5328 83.565 27.5328ZM151.403 21.7038H148.714V28.2017H151.108C152.393 28.2017 153.401 27.8912 154.132 27.27C154.862 26.6489 155.228 25.7703 155.228 24.6343C155.228 22.7307 154.017 21.7546 151.597 21.7058L151.403 21.7038Z" fill="white"/>
</g>
</svg>
