<svg width="239" height="64" viewBox="0 0 239 64" fill="none" xmlns="http://www.w3.org/2000/svg">
<g clip-path="url(#clip0_202_2359)">
<mask id="mask0_202_2359" style="mask-type:luminance" maskUnits="userSpaceOnUse" x="0" y="3" width="58" height="58">
<path d="M5.05797 46.3182C4.58005 46.119 4.38092 44.9641 4.18179 42.0567C3.98265 38.9503 4.18179 34.4498 4.77919 28.675C5.65537 19.9928 7.84583 18.1209 9.04063 17.7625C9.27958 17.6828 9.51854 17.6828 9.7575 17.6828C10.6735 17.6828 11.8683 18.0811 13.2224 18.9175C15.0544 19.9928 17.2449 21.8248 19.7141 24.3737C19.9531 24.6127 20.1522 24.8516 20.3912 25.0906C17.5237 29.9494 14.5367 34.8083 11.9081 38.6316C10.1159 41.2602 8.60253 43.2117 7.28826 44.526C6.13329 45.7208 5.57572 46.358 5.17745 46.358C5.17745 46.3182 5.13762 46.3182 5.05797 46.3182ZM47.3936 51.5753C44.6057 48.429 41.2603 44.1675 37.7556 39.6273C33.7331 34.41 29.5911 29.0334 25.5288 24.4932C26.0067 23.6568 26.5245 22.8205 27.0024 21.9841C30.1885 16.6075 33.1357 12.6249 35.8439 10.2353C38.1937 8.16428 40.185 7.32792 41.8577 7.72618C44.6057 8.40323 51.2169 14.0188 53.0091 51.0974C53.1684 54.4826 53.1286 55.9164 52.6109 56.1554C52.571 56.1554 52.5312 56.1952 52.4516 56.1952C51.8542 56.1952 50.3806 54.9207 47.3936 51.5753ZM33.1357 7.16861C30.1089 9.83699 26.8431 14.1383 23.4578 19.9131C23.179 20.391 22.9003 20.869 22.5816 21.3867C16.4085 15.1339 11.7488 12.7045 7.92548 13.8197C5.8545 14.4171 4.22161 16.0101 2.98699 18.5192C1.87185 20.869 1.11514 24.0551 0.677051 28.2767C0.238959 32.6975 0 36.3217 0 39.3087V39.5875C0 41.0212 0.0398264 42.2559 0.159306 43.371C0.398265 45.9199 1.03549 49.4246 3.74369 50.3008C6.29259 51.1372 8.68219 48.9069 9.47872 48.19C10.9523 46.7961 12.6648 44.7251 14.696 41.8576C17.3644 38.0741 20.3514 33.1754 23.2985 28.2767C27.0024 32.4983 30.7859 37.397 34.4898 42.216C38.2733 47.1545 41.8975 51.7744 44.9243 55.08C47.5131 57.8679 50.1814 60.377 52.7303 60.4168H52.8498C53.2481 60.4168 53.6862 60.3372 54.0844 60.1778C57.0714 59.0627 57.2706 54.6818 57.0714 50.9779C56.3944 36.6801 54.881 25.4889 52.6507 17.7227C51.5355 13.8197 50.1814 10.6734 48.668 8.40324C46.9953 5.89416 45.004 4.38075 42.8135 3.82318C42.2161 3.66387 41.5789 3.58422 40.9815 3.58422C38.5123 3.54439 35.8439 4.73919 33.1357 7.16861Z" fill="white"/>
</mask>
<g mask="url(#mask0_202_2359)">
<path d="M57.2706 3.54425H0V60.3768H57.2706V3.54425Z" fill="url(#paint0_linear_202_2359)"/>
</g>
<path d="M95.0271 45.4022H89.6506L79.1363 28.0776V45.4022H73.7598V19.0768H79.1363L89.6506 36.4412V19.0768H95.0271V45.4022ZM130.951 19.0768H124.977L134.057 45.4022H139.673L148.793 19.0768H142.779L136.845 38.8707L130.951 19.0768ZM165.6 45.4022H171.574L162.493 19.0768H156.878L147.757 45.4022H153.771L159.705 25.6084L165.6 45.4022ZM191.686 19.0768H170.339V23.4577H178.265V45.4022H183.641V23.4577H191.686V19.0768ZM211.48 29.7504H201.125V23.4577H213.232V19.0768H195.709V45.4022H213.272V41.0611H201.125V34.0118H211.48V29.7504ZM117.33 32.9365C117.33 35.6845 116.812 37.7555 115.856 39.1893C114.901 40.623 113.507 41.3399 111.675 41.3399C109.843 41.3399 108.409 40.5832 107.413 39.1096C106.418 37.636 105.94 35.5252 105.94 32.8568V31.5824C105.94 28.8343 106.457 26.7634 107.413 25.3694C108.409 23.9357 109.803 23.2586 111.595 23.2586C113.427 23.2586 114.821 23.9755 115.817 25.4093C116.812 26.843 117.29 28.9538 117.29 31.7019V32.9365H117.33ZM122.786 31.662C122.786 29.0733 122.308 26.8032 121.392 24.8517C120.476 22.9002 119.162 21.3868 117.449 20.3114C115.737 19.2361 113.825 18.7184 111.635 18.7184C109.444 18.7184 107.493 19.2361 105.82 20.3114C104.108 21.3469 102.793 22.8603 101.877 24.8517C100.961 26.843 100.483 29.1131 100.483 31.7019V33.0161C100.483 35.565 100.961 37.7953 101.917 39.7468C102.833 41.6983 104.187 43.1719 105.86 44.2472C107.573 45.2827 109.484 45.8403 111.675 45.8403C113.865 45.8403 115.817 45.3226 117.529 44.2472C119.242 43.1719 120.516 41.6983 121.432 39.707C122.348 37.7555 122.786 35.4854 122.786 32.8967V31.662ZM233.544 36.6404C233.424 38.2334 232.946 39.4282 232.15 40.1849C231.314 40.9416 230.079 41.3399 228.406 41.3399C226.574 41.3399 225.22 40.6628 224.344 39.3486C223.508 38.0343 223.069 35.9633 223.069 33.0958V31.1045C223.109 28.3963 223.547 26.3651 224.463 25.0906C225.34 23.7764 226.694 23.1391 228.486 23.1391C230.159 23.1391 231.353 23.5374 232.19 24.2941C232.986 25.0508 233.464 26.2854 233.624 27.998H239C238.721 25.0508 237.646 22.7807 235.814 21.1478C233.982 19.5149 231.553 18.7184 228.526 18.7184C226.335 18.7184 224.424 19.2361 222.791 20.2716C221.158 21.3071 219.883 22.7807 218.967 24.7322C218.091 26.6439 217.653 28.8742 217.653 31.4231V33.0161C217.653 36.9988 218.609 40.1053 220.521 42.3754C222.432 44.6455 225.101 45.8005 228.446 45.8005C231.513 45.8005 233.982 45.0039 235.854 43.3711C237.726 41.7382 238.761 39.5079 238.96 36.6802H233.544V36.6404Z" fill="white"/>
</g>
<defs>
<linearGradient id="paint0_linear_202_2359" x1="0.0171241" y1="31.9485" x2="57.296" y2="31.9485" gradientUnits="userSpaceOnUse">
<stop stop-color="#60BCA3"/>
<stop offset="1" stop-color="#36BCED"/>
</linearGradient>
<clipPath id="clip0_202_2359">
<rect width="239" height="64" fill="white"/>
</clipPath>
</defs>
</svg>
