<svg width="194" height="52" viewBox="0 0 194 52" fill="none" xmlns="http://www.w3.org/2000/svg">
<path d="M47.5352 3.06635C46.8368 4.7819 45.8698 6.44384 44.7417 7.94494C34.7493 -2.40196 18.2565 -2.67001 7.9418 7.30161C-2.3729 17.2732 -2.69524 33.7318 7.29714 44.0251C7.61947 44.4003 7.99553 44.722 8.37158 45.0437L9.33859 45.9014C20.298 55.1225 36.737 53.7286 45.9773 42.792C49.523 38.6104 51.6719 33.3565 52.0479 27.8882C52.8 21.4013 50.8123 13.038 47.5352 3.06635ZM12.1322 45.3117C11.38 46.2767 9.98326 46.3839 9.01625 45.6334C8.04925 44.8828 7.9418 43.489 8.69392 42.524C9.44603 41.559 10.8428 41.4517 11.8098 42.2023C12.7231 42.9529 12.8843 44.3467 12.1322 45.3117ZM47.3741 37.5382C40.9811 46.0623 27.2282 43.1673 18.4714 43.5962C18.4714 43.5962 16.9134 43.7034 15.3555 43.9178C15.3555 43.9178 15.9464 43.6498 16.6986 43.3817C22.8766 41.2373 25.7776 40.8084 29.5382 38.8784C36.5759 35.2865 43.6135 27.4057 45.0103 19.2568C42.3242 27.084 34.1583 33.839 26.7447 36.5732C21.641 38.4495 12.4545 40.2723 12.4545 40.2723L12.0784 40.0579C5.84663 37.002 5.63174 23.4921 17.0209 19.1496C22.0171 17.2196 26.7447 18.2918 32.1706 17.0052C37.9189 15.6649 44.5805 11.376 47.2666 5.7469C50.2751 14.8071 53.9282 28.8532 47.3741 37.5382Z" fill="#6DB33F"/>
<path d="M66.8231 36.2513C66.1247 35.8224 65.6949 35.0718 65.7487 34.2677C65.7487 32.981 66.7694 31.9088 68.0587 31.9088C68.0587 31.9088 68.0587 31.9088 68.1124 31.9088C68.5422 31.9088 68.972 32.016 69.3481 32.2305C71.497 33.7316 74.0219 34.5357 76.6006 34.6429C79.0718 34.6429 80.5223 33.5707 80.5223 31.9088V31.8016C80.5223 29.818 77.8362 29.1746 74.8815 28.2632C71.1746 27.191 66.9843 25.6899 66.9843 20.8649V20.7577C66.9843 15.9864 70.9597 13.0914 75.9559 13.0914C78.7495 13.145 81.4356 13.8419 83.9068 15.1286C84.7664 15.5575 85.3036 16.3616 85.3036 17.3266C85.3036 18.6133 84.2292 19.6855 82.9398 19.6855H82.8861C82.51 19.6855 82.134 19.5783 81.7579 19.4175C79.9314 18.3988 77.9436 17.8091 75.8485 17.7019C73.5921 17.7019 72.3028 18.7741 72.3028 20.168V20.2752C72.3028 22.1516 75.0426 22.9022 77.9974 23.8672C81.7042 24.993 85.8408 26.7085 85.8408 31.2118V31.3191C85.8408 36.6265 81.7042 39.2535 76.4931 39.2535C73.0549 39.1999 69.6704 38.1813 66.8231 36.2513Z" fill="#6DB33F"/>
<path d="M87.9879 16.0406C87.9342 14.4859 89.2236 13.1992 90.7815 13.1456H90.8352C92.4469 13.1456 93.7362 14.4323 93.7362 16.0406V17.7561C95.6165 15.1292 98.2489 13.0384 102.332 13.0384C108.241 13.0384 114.043 17.7025 114.043 26.1194V26.2267C114.043 34.59 108.295 39.3077 102.332 39.3077C98.1415 39.3077 95.5091 37.2169 93.7362 34.858V43.7574C93.7362 45.3658 92.4469 46.6524 90.8352 46.6524C89.2773 46.6524 87.9879 45.3658 87.9879 43.811V43.7574V16.0406ZM108.241 26.2267V26.1194C108.241 21.2409 104.964 18.0778 101.042 18.0778C97.1208 18.0778 93.6825 21.3481 93.6825 26.1194V26.2267C93.6825 31.0516 97.1208 34.2683 101.042 34.2683C104.964 34.2683 108.241 31.2125 108.241 26.2267Z" fill="#6DB33F"/>
<path d="M116.302 16.0403C116.248 14.4856 117.537 13.1989 119.095 13.1453H119.149C120.761 13.1453 122.05 14.432 122.05 16.0403V17.4342C122.319 15.2898 125.864 13.1453 128.389 13.1453C129.84 13.0381 131.129 14.1103 131.237 15.5578C131.237 15.7186 131.237 15.8259 131.237 15.9867C131.237 17.3806 130.27 18.56 128.927 18.7745C124.79 19.4714 121.996 23.0633 121.996 28.0492V36.3588C121.996 37.9672 120.707 39.2002 119.095 39.2002C117.537 39.2002 116.248 37.9672 116.248 36.4125C116.248 36.4125 116.248 36.4125 116.248 36.3588L116.302 16.0403Z" fill="#6DB33F"/>
<path d="M133.547 16.0944C133.493 14.5397 134.782 13.253 136.34 13.1994H136.394C138.005 13.1994 139.295 14.4861 139.295 16.0944V36.4129C139.295 38.0212 138.005 39.2543 136.394 39.2543C134.782 39.2543 133.547 37.9676 133.547 36.4129V16.0944Z" fill="#6DB33F"/>
<path d="M142.249 16.0939C142.195 14.5392 143.485 13.2525 145.043 13.1989H145.096C146.708 13.1989 147.997 14.4856 147.997 16.0939V17.2733C149.716 14.5928 152.725 13.0381 155.895 13.1453C161.589 13.1453 164.866 16.9517 164.866 22.7952V36.3588C164.92 37.9135 163.684 39.1466 162.126 39.2002C162.073 39.2002 162.073 39.2002 162.019 39.2002C160.461 39.2538 159.172 37.9671 159.118 36.4124V36.3588V24.5644C159.118 20.6508 157.184 18.3991 153.692 18.3991C150.361 18.3991 147.997 20.758 147.997 24.6716V36.4124C147.997 38.0207 146.708 39.3074 145.096 39.3074C143.485 39.3074 142.195 38.0207 142.195 36.4124L142.249 16.0939Z" fill="#6DB33F"/>
<path d="M190.329 13.0916C188.717 13.0916 187.428 14.3783 187.428 15.9866V17.7021C185.548 15.0752 182.915 12.9844 178.833 12.9844C172.923 12.9844 167.121 17.6485 167.121 26.0654V26.1727C167.121 34.5359 172.869 39.2537 178.833 39.2537C183.023 39.2537 185.655 37.1629 187.428 34.8576C187.16 39.4145 184.366 41.7734 179.477 41.7734C176.791 41.7734 174.105 41.1301 171.741 39.7898C171.419 39.629 171.097 39.5754 170.72 39.5754C169.377 39.5754 168.303 40.594 168.249 41.9342C168.249 42.9529 168.894 43.9179 169.861 44.2395C172.923 45.7406 176.254 46.4912 179.638 46.4912C184.205 46.4912 187.751 45.419 190.007 43.1137C192.102 41.0229 193.23 37.8598 193.23 33.6246V16.0402C193.284 14.4319 191.995 13.1452 190.383 13.0916H190.329ZM180.176 34.2679C176.2 34.2679 172.977 31.1585 172.977 26.1727V26.0654C172.977 21.1868 176.254 18.0238 180.176 18.0238C184.097 18.0238 187.536 21.2941 187.536 26.0654V26.1727C187.589 30.9976 184.151 34.2679 180.176 34.2679Z" fill="#6DB33F"/>
<path d="M139.349 6.22955C139.349 7.83788 138.06 9.12454 136.448 9.12454C134.836 9.12454 133.547 7.83788 133.547 6.22955C133.547 4.62123 134.836 3.33456 136.448 3.33456C138.006 3.28095 139.295 4.56761 139.349 6.12233C139.349 6.17594 139.349 6.17594 139.349 6.22955Z" fill="#6DB33F"/>
<path d="M45.9766 42.7916C49.5222 38.61 51.6711 33.3561 52.0472 27.8878L45.9766 42.7916Z" fill="#6DB33F"/>
<path d="M47.3752 37.5378C40.9822 46.062 27.2293 43.167 18.4725 43.5959C18.4725 43.5959 16.9146 43.7031 15.3566 43.9175C15.3566 43.9175 15.9476 43.6495 16.6997 43.3814C22.8778 41.237 25.7788 40.8081 29.5393 38.8781C36.577 35.2862 43.6146 27.4054 45.0114 19.2565C42.3253 27.0837 34.1595 33.8387 26.7458 36.5728C21.6421 38.4492 12.4556 40.272 12.4556 40.272L12.0795 40.0575C5.84774 37.0017 5.63285 23.4918 17.022 19.1493C22.0182 17.2193 26.7458 18.2915 32.1717 17.0049C37.92 15.6646 44.5816 11.3757 47.2677 5.74658C50.2762 14.8068 53.9293 28.8529 47.3752 37.5378Z" fill="white"/>
<path d="M12.133 45.3119C11.3809 46.2769 9.98408 46.3842 9.01708 45.6336C8.05008 44.8831 7.94263 43.4892 8.69475 42.5242C9.44686 41.5592 10.8436 41.452 11.8106 42.2025C12.7239 42.9531 12.8851 44.3469 12.133 45.3119Z" fill="white"/>
</svg>
