<svg width="487" height="45" viewBox="0 0 487 45" fill="none" xmlns="http://www.w3.org/2000/svg">
<rect width="487" height="45" rx="22.5" fill="black"/>
<path d="M34.8096 34.384C32.7936 34.384 30.9643 33.8827 29.3216 32.88C27.6896 31.8667 26.4043 30.48 25.4656 28.72C24.527 26.9493 24.0576 24.976 24.0576 22.8C24.0576 20.624 24.527 18.656 25.4656 16.896C26.4043 15.1253 27.6896 13.7387 29.3216 12.736C30.9643 11.7227 32.7936 11.216 34.8096 11.216C36.495 11.216 38.0683 11.568 39.5296 12.272C41.0016 12.976 42.207 13.9307 43.1456 15.136C44.095 16.3413 44.6656 17.6587 44.8576 19.088H42.2336C42.0416 18.0747 41.5883 17.152 40.8736 16.32C40.1696 15.4773 39.2843 14.8107 38.2176 14.32C37.1616 13.8293 36.0256 13.584 34.8096 13.584C33.2736 13.584 31.8923 13.9787 30.6656 14.768C29.439 15.5573 28.479 16.6507 27.7856 18.048C27.0923 19.4453 26.7456 21.0293 26.7456 22.8C26.7456 24.5707 27.0923 26.1547 27.7856 27.552C28.479 28.9493 29.439 30.0427 30.6656 30.832C31.8923 31.6213 33.2736 32.016 34.8096 32.016C36.2176 32.016 37.487 31.728 38.6176 31.152C39.759 30.576 40.6603 29.776 41.3216 28.752C41.983 27.7173 42.3243 26.5547 42.3456 25.264V25.072H36.4256V22.672H45.0336V24.304C45.0336 26.192 44.5856 27.904 43.6896 29.44C42.8043 30.976 41.583 32.1867 40.0256 33.072C38.4683 33.9467 36.7296 34.384 34.8096 34.384ZM64.9001 26.432H51.9081C52.0041 27.552 52.2975 28.544 52.7881 29.408C53.2788 30.272 53.9241 30.944 54.7241 31.424C55.5241 31.904 56.4308 32.144 57.4441 32.144C58.1268 32.144 58.7828 32.0373 59.4121 31.824C60.0415 31.6107 60.5908 31.312 61.0601 30.928C61.5295 30.544 61.8655 30.1067 62.0681 29.616H64.5321C64.3508 30.512 63.9081 31.3227 63.2041 32.048C62.5108 32.7733 61.6415 33.344 60.5961 33.76C59.5615 34.176 58.4575 34.384 57.2841 34.384C55.7375 34.384 54.3508 34.016 53.1241 33.28C51.9081 32.544 50.9588 31.5253 50.2761 30.224C49.5935 28.912 49.2521 27.4293 49.2521 25.776C49.2521 24.1653 49.5988 22.7093 50.2921 21.408C50.9855 20.1067 51.9401 19.088 53.1561 18.352C54.3828 17.6053 55.7588 17.232 57.2841 17.232C58.7348 17.232 60.0361 17.6053 61.1881 18.352C62.3508 19.088 63.2575 20.112 63.9081 21.424C64.5695 22.7253 64.9001 24.1867 64.9001 25.808V26.432ZM57.3161 19.488C55.8761 19.488 54.6815 19.92 53.7321 20.784C52.7828 21.648 52.1961 22.8267 51.9721 24.32H62.2281C62.0041 22.8373 61.4548 21.664 60.5801 20.8C59.7161 19.9253 58.6281 19.488 57.3161 19.488ZM73.4801 34C72.2961 34 71.3575 33.6853 70.6641 33.056C69.9815 32.4267 69.6401 31.5573 69.6401 30.448L69.6241 19.888H66.7441L66.7601 17.616H68.5361C68.9415 17.616 69.2668 17.488 69.5121 17.232C69.7681 16.976 69.8961 16.6507 69.8961 16.256V13.52H72.2001V17.616H76.1521L76.1361 19.888H72.1841L72.2001 30.288C72.2001 30.736 72.3281 31.088 72.5841 31.344C72.8508 31.6 73.2028 31.728 73.6401 31.728H76.1361V34H73.4801ZM93.7854 34.384C92.452 34.384 91.2734 34.176 90.2494 33.76C89.236 33.3333 88.4467 32.7467 87.8814 32C87.3267 31.2533 87.044 30.4053 87.0334 29.456H89.5934C89.6147 30.0107 89.8014 30.5013 90.1534 30.928C90.5054 31.3547 90.9854 31.6907 91.5934 31.936C92.212 32.1707 92.916 32.288 93.7054 32.288C94.9214 32.288 95.8654 32.032 96.5374 31.52C97.2094 31.008 97.5454 30.3093 97.5454 29.424C97.5454 28.7413 97.3374 28.1867 96.9214 27.76C96.516 27.3227 95.9134 27.04 95.1134 26.912L92.1374 26.448C90.708 26.224 89.5934 25.7067 88.7934 24.896C87.9934 24.0747 87.5934 23.056 87.5934 21.84C87.5934 20.944 87.844 20.1493 88.3454 19.456C88.8574 18.752 89.5614 18.208 90.4574 17.824C91.364 17.4293 92.388 17.232 93.5294 17.232C94.7027 17.232 95.7534 17.4293 96.6814 17.824C97.62 18.2187 98.356 18.768 98.8894 19.472C99.4334 20.1653 99.716 20.9547 99.7374 21.84H97.1774C97.1667 21.3707 96.996 20.944 96.6654 20.56C96.3454 20.176 95.908 19.8773 95.3534 19.664C94.7987 19.44 94.18 19.328 93.4974 19.328C92.836 19.328 92.2387 19.4347 91.7054 19.648C91.1827 19.8507 90.772 20.1387 90.4734 20.512C90.1854 20.8747 90.0414 21.296 90.0414 21.776C90.0414 22.416 90.2334 22.9333 90.6174 23.328C91.0014 23.712 91.5667 23.9627 92.3134 24.08L95.3854 24.576C96.8787 24.8107 98.02 25.344 98.8094 26.176C99.6094 27.008 100.009 28.0693 100.009 29.36C100.009 30.3627 99.7534 31.2427 99.2414 32C98.7294 32.7573 98.004 33.344 97.0654 33.76C96.1267 34.176 95.0334 34.384 93.7854 34.384ZM108.73 34C107.546 34 106.607 33.6853 105.914 33.056C105.231 32.4267 104.89 31.5573 104.89 30.448L104.874 19.888H101.994L102.01 17.616H103.786C104.191 17.616 104.517 17.488 104.762 17.232C105.018 16.976 105.146 16.6507 105.146 16.256V13.52H107.45V17.616H111.402L111.386 19.888H107.434L107.45 30.288C107.45 30.736 107.578 31.088 107.834 31.344C108.101 31.6 108.453 31.728 108.89 31.728H111.386V34H108.73ZM121.913 17.232C123.15 17.232 124.233 17.4613 125.161 17.92C126.1 18.368 126.825 19.024 127.337 19.888C127.849 20.752 128.105 21.792 128.105 23.008V34H125.609V31.568C125.108 32.4853 124.388 33.184 123.449 33.664C122.521 34.144 121.406 34.384 120.105 34.384C119.028 34.384 118.068 34.1867 117.225 33.792C116.393 33.3867 115.742 32.8267 115.273 32.112C114.814 31.3973 114.585 30.5813 114.585 29.664C114.585 28.8107 114.798 28.0267 115.225 27.312C115.662 26.5867 116.265 25.9947 117.033 25.536C117.801 25.0773 118.67 24.8 119.641 24.704L124.425 24.224C124.777 24.192 125.054 24.0427 125.257 23.776C125.47 23.5093 125.577 23.1253 125.577 22.624C125.577 21.9733 125.417 21.4027 125.097 20.912C124.788 20.4213 124.35 20.0427 123.785 19.776C123.23 19.5093 122.585 19.376 121.849 19.376C121.124 19.376 120.462 19.4987 119.865 19.744C119.268 19.9893 118.782 20.3253 118.409 20.752C118.036 21.1787 117.817 21.648 117.753 22.16H115.257C115.353 21.2533 115.705 20.4267 116.313 19.68C116.921 18.9227 117.716 18.3253 118.697 17.888C119.678 17.4507 120.75 17.232 121.913 17.232ZM120.585 32.384C121.556 32.384 122.42 32.1973 123.177 31.824C123.934 31.44 124.521 30.9067 124.937 30.224C125.364 29.5307 125.577 28.7467 125.577 27.872V26.016L119.993 26.592C119.14 26.6773 118.452 26.992 117.929 27.536C117.406 28.08 117.145 28.7413 117.145 29.52C117.145 30.0747 117.289 30.5707 117.577 31.008C117.865 31.4347 118.27 31.7707 118.793 32.016C119.316 32.2613 119.913 32.384 120.585 32.384ZM141.188 17.456V20.128H140.596C139.103 20.128 137.93 20.576 137.076 21.472C136.223 22.368 135.796 23.6267 135.796 25.248V34H133.236V17.616H135.796V20.912C136.255 19.8027 136.895 18.9493 137.716 18.352C138.548 17.7547 139.54 17.456 140.692 17.456H141.188ZM148.37 34C147.165 34 146.221 33.6853 145.538 33.056C144.866 32.4267 144.53 31.5573 144.53 30.448V13.52H147.09V17.616H150.946L150.93 19.888H147.074L147.09 30.288C147.09 30.736 147.218 31.088 147.474 31.344C147.73 31.6 148.082 31.728 148.53 31.728H150.93V34H148.37ZM169.431 26.432H156.439C156.535 27.552 156.829 28.544 157.319 29.408C157.81 30.272 158.455 30.944 159.255 31.424C160.055 31.904 160.962 32.144 161.975 32.144C162.658 32.144 163.314 32.0373 163.943 31.824C164.573 31.6107 165.122 31.312 165.591 30.928C166.061 30.544 166.397 30.1067 166.599 29.616H169.063C168.882 30.512 168.439 31.3227 167.735 32.048C167.042 32.7733 166.173 33.344 165.127 33.76C164.093 34.176 162.989 34.384 161.815 34.384C160.269 34.384 158.882 34.016 157.655 33.28C156.439 32.544 155.49 31.5253 154.807 30.224C154.125 28.912 153.783 27.4293 153.783 25.776C153.783 24.1653 154.13 22.7093 154.823 21.408C155.517 20.1067 156.471 19.088 157.687 18.352C158.914 17.6053 160.29 17.232 161.815 17.232C163.266 17.232 164.567 17.6053 165.719 18.352C166.882 19.088 167.789 20.112 168.439 21.424C169.101 22.7253 169.431 24.1867 169.431 25.808V26.432ZM161.847 19.488C160.407 19.488 159.213 19.92 158.263 20.784C157.314 21.648 156.727 22.8267 156.503 24.32H166.759C166.535 22.8373 165.986 21.664 165.111 20.8C164.247 19.9253 163.159 19.488 161.847 19.488ZM188.443 17.616H188.459V34H185.995V31.248C185.366 32.2507 184.55 33.024 183.547 33.568C182.545 34.112 181.419 34.384 180.171 34.384C178.689 34.384 177.345 34.0107 176.139 33.264C174.934 32.5173 173.99 31.4933 173.307 30.192C172.625 28.88 172.283 27.4187 172.283 25.808C172.283 24.1973 172.625 22.7413 173.307 21.44C173.99 20.128 174.934 19.0987 176.139 18.352C177.345 17.6053 178.689 17.232 180.171 17.232C181.419 17.232 182.539 17.504 183.531 18.048C184.534 18.592 185.35 19.3653 185.979 20.368L185.883 11.6H188.443V17.616ZM180.411 32.08C181.457 32.08 182.395 31.808 183.227 31.264C184.07 30.72 184.726 29.9733 185.195 29.024C185.665 28.064 185.899 26.992 185.899 25.808C185.899 24.624 185.665 23.5573 185.195 22.608C184.726 21.648 184.07 20.896 183.227 20.352C182.395 19.808 181.457 19.536 180.411 19.536C179.377 19.536 178.443 19.808 177.611 20.352C176.79 20.896 176.145 21.648 175.675 22.608C175.206 23.5573 174.971 24.624 174.971 25.808C174.971 26.992 175.206 28.064 175.675 29.024C176.145 29.9733 176.79 30.72 177.611 31.264C178.443 31.808 179.377 32.08 180.411 32.08ZM207.41 34H204.754L199.362 17.616H202.082L205.826 29.664L206.194 30.976L206.514 29.664L210.402 17.616H213.042L216.946 29.664L217.298 30.976L217.634 29.664L221.282 17.616H223.938L218.546 34H215.858L212.018 21.408L211.714 20.352L211.442 21.376L207.41 34ZM230.046 34H227.486V17.616H230.046V34ZM227.31 14.64V11.6H230.222V14.64H227.31ZM239.949 34C238.765 34 237.826 33.6853 237.133 33.056C236.45 32.4267 236.109 31.5573 236.109 30.448L236.093 19.888H233.213L233.229 17.616H235.005C235.41 17.616 235.736 17.488 235.981 17.232C236.237 16.976 236.365 16.6507 236.365 16.256V13.52H238.669V17.616H242.621L242.605 19.888H238.653L238.669 30.288C238.669 30.736 238.797 31.088 239.053 31.344C239.32 31.6 239.672 31.728 240.109 31.728H242.605V34H239.949ZM254.636 17.232C255.863 17.232 256.935 17.4987 257.852 18.032C258.769 18.5547 259.473 19.3013 259.964 20.272C260.465 21.2427 260.716 22.3733 260.716 23.664V34H258.156V23.776C258.156 22.4 257.804 21.328 257.1 20.56C256.407 19.792 255.431 19.408 254.172 19.408C253.223 19.408 252.396 19.6267 251.692 20.064C250.988 20.4907 250.444 21.104 250.06 21.904C249.676 22.6933 249.484 23.6267 249.484 24.704V34H246.924V11.6H249.484V16.864L249.388 20.112C249.9 19.1733 250.599 18.4587 251.484 17.968C252.38 17.4773 253.431 17.232 254.636 17.232ZM276.936 34H274.376V11.6H276.936V22.096L287.432 11.6H290.92L280.056 22.416L291.112 34H287.528L276.936 22.928V34ZM299.976 34.384C298.419 34.384 297.016 34.016 295.768 33.28C294.52 32.5333 293.539 31.5093 292.824 30.208C292.109 28.9067 291.752 27.44 291.752 25.808C291.752 24.176 292.109 22.7093 292.824 21.408C293.539 20.1067 294.525 19.088 295.784 18.352C297.043 17.6053 298.451 17.232 300.008 17.232C301.565 17.232 302.973 17.6053 304.232 18.352C305.491 19.088 306.477 20.1067 307.192 21.408C307.907 22.7093 308.264 24.176 308.264 25.808C308.264 27.44 307.901 28.9067 307.176 30.208C306.461 31.5093 305.475 32.5333 304.216 33.28C302.957 34.016 301.544 34.384 299.976 34.384ZM300.008 32.016C301.075 32.016 302.029 31.76 302.872 31.248C303.715 30.7253 304.376 29.9947 304.856 29.056C305.336 28.1173 305.576 27.0347 305.576 25.808C305.576 24.5813 305.336 23.4987 304.856 22.56C304.376 21.6107 303.715 20.88 302.872 20.368C302.029 19.8453 301.075 19.584 300.008 19.584C298.941 19.584 297.987 19.8453 297.144 20.368C296.301 20.88 295.64 21.6107 295.16 22.56C294.68 23.4987 294.44 24.5813 294.44 25.808C294.44 27.0347 294.68 28.1173 295.16 29.056C295.64 29.9947 296.301 30.7253 297.144 31.248C297.987 31.76 298.941 32.016 300.008 32.016ZM316.855 34C315.671 34 314.732 33.6853 314.039 33.056C313.356 32.4267 313.015 31.5573 313.015 30.448L312.999 19.888H310.119L310.135 17.616H311.911C312.316 17.616 312.642 17.488 312.887 17.232C313.143 16.976 313.271 16.6507 313.271 16.256V13.52H315.575V17.616H319.527L319.511 19.888H315.559L315.575 30.288C315.575 30.736 315.703 31.088 315.959 31.344C316.226 31.6 316.578 31.728 317.015 31.728H319.511V34H316.855ZM326.39 34H323.83V11.6H326.39V34ZM334.453 34H331.893V17.616H334.453V34ZM331.717 14.64V11.6H334.629V14.64H331.717ZM347.667 17.232C348.894 17.232 349.966 17.4987 350.883 18.032C351.8 18.5547 352.504 19.3013 352.995 20.272C353.496 21.2427 353.747 22.3733 353.747 23.664V34H351.187V23.856C351.187 22.4587 350.824 21.3707 350.099 20.592C349.384 19.8027 348.387 19.408 347.107 19.408C346.19 19.408 345.384 19.6053 344.691 20C343.998 20.384 343.459 20.9387 343.075 21.664C342.702 22.3893 342.515 23.2427 342.515 24.224V34H339.955V17.616H342.419V20.128C342.942 19.168 343.646 18.448 344.531 17.968C345.416 17.4773 346.462 17.232 347.667 17.232ZM358.733 34H356.109L366.285 11.6H368.909L358.733 34ZM372.314 11.6H375.13L387.002 29.776V11.6H389.658V34H386.81L374.97 15.824V34H372.314V11.6ZM402.007 17.232C403.244 17.232 404.327 17.4613 405.255 17.92C406.194 18.368 406.919 19.024 407.431 19.888C407.943 20.752 408.199 21.792 408.199 23.008V34H405.703V31.568C405.202 32.4853 404.482 33.184 403.543 33.664C402.615 34.144 401.5 34.384 400.199 34.384C399.122 34.384 398.162 34.1867 397.319 33.792C396.487 33.3867 395.836 32.8267 395.367 32.112C394.908 31.3973 394.679 30.5813 394.679 29.664C394.679 28.8107 394.892 28.0267 395.319 27.312C395.756 26.5867 396.359 25.9947 397.127 25.536C397.895 25.0773 398.764 24.8 399.735 24.704L404.519 24.224C404.871 24.192 405.148 24.0427 405.351 23.776C405.564 23.5093 405.671 23.1253 405.671 22.624C405.671 21.9733 405.511 21.4027 405.191 20.912C404.882 20.4213 404.444 20.0427 403.879 19.776C403.324 19.5093 402.679 19.376 401.943 19.376C401.218 19.376 400.556 19.4987 399.959 19.744C399.362 19.9893 398.876 20.3253 398.503 20.752C398.13 21.1787 397.911 21.648 397.847 22.16H395.351C395.447 21.2533 395.799 20.4267 396.407 19.68C397.015 18.9227 397.81 18.3253 398.791 17.888C399.772 17.4507 400.844 17.232 402.007 17.232ZM400.679 32.384C401.65 32.384 402.514 32.1973 403.271 31.824C404.028 31.44 404.615 30.9067 405.031 30.224C405.458 29.5307 405.671 28.7467 405.671 27.872V26.016L400.087 26.592C399.234 26.6773 398.546 26.992 398.023 27.536C397.5 28.08 397.239 28.7413 397.239 29.52C397.239 30.0747 397.383 30.5707 397.671 31.008C397.959 31.4347 398.364 31.7707 398.887 32.016C399.41 32.2613 400.007 32.384 400.679 32.384ZM417.73 34C416.546 34 415.607 33.6853 414.914 33.056C414.231 32.4267 413.89 31.5573 413.89 30.448L413.874 19.888H410.994L411.01 17.616H412.786C413.191 17.616 413.517 17.488 413.762 17.232C414.018 16.976 414.146 16.6507 414.146 16.256V13.52H416.45V17.616H420.402L420.386 19.888H416.434L416.45 30.288C416.45 30.736 416.578 31.088 416.834 31.344C417.101 31.6 417.453 31.728 417.89 31.728H420.386V34H417.73ZM427.265 34H424.705V17.616H427.265V34ZM424.529 14.64V11.6H427.441V14.64H424.529ZM439.808 34H437.088L430.704 17.616H433.488L438.544 31.008L443.504 17.616H446.192L439.808 34ZM463.775 26.432H450.783C450.879 27.552 451.172 28.544 451.663 29.408C452.154 30.272 452.799 30.944 453.599 31.424C454.399 31.904 455.306 32.144 456.319 32.144C457.002 32.144 457.658 32.0373 458.287 31.824C458.916 31.6107 459.466 31.312 459.935 30.928C460.404 30.544 460.74 30.1067 460.943 29.616H463.407C463.226 30.512 462.783 31.3227 462.079 32.048C461.386 32.7733 460.516 33.344 459.471 33.76C458.436 34.176 457.332 34.384 456.159 34.384C454.612 34.384 453.226 34.016 451.999 33.28C450.783 32.544 449.834 31.5253 449.151 30.224C448.468 28.912 448.127 27.4293 448.127 25.776C448.127 24.1653 448.474 22.7093 449.167 21.408C449.86 20.1067 450.815 19.088 452.031 18.352C453.258 17.6053 454.634 17.232 456.159 17.232C457.61 17.232 458.911 17.6053 460.063 18.352C461.226 19.088 462.132 20.112 462.783 21.424C463.444 22.7253 463.775 24.1867 463.775 25.808V26.432ZM456.191 19.488C454.751 19.488 453.556 19.92 452.607 20.784C451.658 21.648 451.071 22.8267 450.847 24.32H461.103C460.879 22.8373 460.33 21.664 459.455 20.8C458.591 19.9253 457.503 19.488 456.191 19.488Z" fill="white"/>
</svg>
