<svg width="706" height="481" viewBox="0 0 706 481" fill="none" xmlns="http://www.w3.org/2000/svg">
<rect width="706" height="481" fill="white"/>
<rect x="270" y="312" width="83" height="48" rx="2" fill="#E8E8E8"/>
<path d="M287.4 332.808H288.632V334.192C288.877 333.685 289.216 333.296 289.648 333.024C290.085 332.752 290.597 332.616 291.184 332.616C291.797 332.616 292.331 332.763 292.784 333.056C293.237 333.349 293.576 333.763 293.8 334.296C294.061 333.763 294.427 333.349 294.896 333.056C295.365 332.763 295.907 332.616 296.52 332.616C297.101 332.616 297.616 332.749 298.064 333.016C298.517 333.277 298.869 333.651 299.12 334.136C299.371 334.621 299.496 335.187 299.496 335.832V341H298.216V335.888C298.216 335.211 298.045 334.677 297.704 334.288C297.368 333.899 296.893 333.704 296.28 333.704C295.843 333.704 295.459 333.805 295.128 334.008C294.797 334.205 294.541 334.488 294.36 334.856C294.179 335.219 294.088 335.648 294.088 336.144V341H292.808V335.888C292.808 335.211 292.637 334.677 292.296 334.288C291.96 333.899 291.485 333.704 290.872 333.704C290.429 333.704 290.043 333.803 289.712 334C289.381 334.197 289.125 334.48 288.944 334.848C288.768 335.216 288.68 335.648 288.68 336.144V341H287.4V332.808ZM304.968 332.616C305.587 332.616 306.131 332.731 306.6 332.96C307.07 333.184 307.432 333.515 307.688 333.952C307.95 334.384 308.08 334.899 308.08 335.496V341H306.832V339.664C306.603 340.16 306.267 340.539 305.824 340.8C305.382 341.061 304.856 341.192 304.248 341.192C303.726 341.192 303.254 341.091 302.832 340.888C302.411 340.685 302.08 340.405 301.84 340.048C301.6 339.691 301.48 339.285 301.48 338.832C301.48 338.405 301.59 338.013 301.808 337.656C302.032 337.293 302.339 336.997 302.728 336.768C303.123 336.539 303.566 336.397 304.056 336.344L306.24 336.104C306.422 336.083 306.563 336.008 306.664 335.88C306.766 335.752 306.816 335.565 306.816 335.32C306.816 334.995 306.739 334.709 306.584 334.464C306.43 334.219 306.211 334.029 305.928 333.896C305.651 333.757 305.328 333.688 304.96 333.688C304.592 333.688 304.262 333.752 303.968 333.88C303.675 334.003 303.438 334.171 303.256 334.384C303.08 334.592 302.974 334.819 302.936 335.064H301.656C301.72 334.6 301.902 334.184 302.2 333.816C302.504 333.443 302.896 333.149 303.376 332.936C303.856 332.723 304.387 332.616 304.968 332.616ZM302.808 338.76C302.808 339.037 302.88 339.283 303.024 339.496C303.174 339.709 303.379 339.877 303.64 340C303.902 340.117 304.2 340.176 304.536 340.176C304.995 340.176 305.395 340.083 305.736 339.896C306.083 339.709 306.35 339.448 306.536 339.112C306.723 338.771 306.816 338.379 306.816 337.936V337L304.232 337.288C303.806 337.336 303.462 337.496 303.2 337.768C302.939 338.04 302.808 338.371 302.808 338.76ZM314.067 341.192C313.293 341.192 312.595 341.005 311.971 340.632C311.347 340.259 310.856 339.747 310.499 339.096C310.147 338.44 309.971 337.709 309.971 336.904C309.971 336.099 310.147 335.371 310.499 334.72C310.856 334.064 311.347 333.549 311.971 333.176C312.595 332.803 313.293 332.616 314.067 332.616C315.059 332.616 315.891 332.869 316.563 333.376C317.235 333.877 317.664 334.605 317.851 335.56H316.571C316.4 334.973 316.085 334.531 315.627 334.232C315.173 333.928 314.653 333.776 314.067 333.776C313.539 333.776 313.064 333.909 312.643 334.176C312.227 334.443 311.901 334.813 311.667 335.288C311.432 335.763 311.315 336.301 311.315 336.904C311.315 337.501 311.432 338.037 311.667 338.512C311.901 338.987 312.227 339.36 312.643 339.632C313.064 339.899 313.539 340.032 314.067 340.032C314.653 340.032 315.173 339.883 315.627 339.584C316.085 339.28 316.4 338.835 316.571 338.248H317.851C317.728 338.867 317.488 339.397 317.131 339.84C316.773 340.283 316.331 340.619 315.803 340.848C315.275 341.077 314.696 341.192 314.067 341.192ZM323.436 341.192C322.658 341.192 321.948 341.008 321.308 340.64C320.674 340.267 320.172 339.755 319.804 339.104C319.442 338.448 319.26 337.715 319.26 336.904C319.26 336.093 319.442 335.363 319.804 334.712C320.172 334.056 320.676 333.544 321.316 333.176C321.956 332.803 322.666 332.616 323.444 332.616C324.223 332.616 324.93 332.803 325.564 333.176C326.199 333.544 326.698 334.053 327.06 334.704C327.428 335.355 327.612 336.088 327.612 336.904C327.612 337.72 327.428 338.453 327.06 339.104C326.698 339.755 326.199 340.267 325.564 340.64C324.93 341.008 324.22 341.192 323.436 341.192ZM320.604 336.904C320.604 337.517 320.727 338.061 320.972 338.536C321.223 339.005 321.564 339.371 321.996 339.632C322.434 339.893 322.919 340.024 323.452 340.024C323.986 340.024 324.466 339.893 324.892 339.632C325.319 339.371 325.655 339.005 325.9 338.536C326.146 338.061 326.268 337.517 326.268 336.904C326.268 336.291 326.146 335.747 325.9 335.272C325.655 334.797 325.316 334.429 324.884 334.168C324.458 333.907 323.978 333.776 323.444 333.776C322.911 333.776 322.428 333.907 321.996 334.168C321.564 334.429 321.223 334.797 320.972 335.272C320.727 335.747 320.604 336.291 320.604 336.904ZM332.45 341.192C331.831 341.192 331.271 341.093 330.77 340.896C330.274 340.699 329.877 340.424 329.578 340.072C329.285 339.715 329.127 339.312 329.106 338.864H330.41C330.431 339.109 330.533 339.331 330.714 339.528C330.895 339.72 331.135 339.872 331.434 339.984C331.733 340.096 332.066 340.152 332.434 340.152C332.807 340.152 333.135 340.091 333.418 339.968C333.706 339.845 333.927 339.675 334.082 339.456C334.242 339.237 334.322 338.989 334.322 338.712C334.322 338.413 334.237 338.163 334.066 337.96C333.901 337.752 333.669 337.621 333.37 337.568L331.394 337.208C330.765 337.091 330.274 336.837 329.922 336.448C329.57 336.053 329.394 335.555 329.394 334.952C329.394 334.52 329.517 334.128 329.762 333.776C330.013 333.419 330.362 333.136 330.81 332.928C331.258 332.72 331.77 332.616 332.346 332.616C332.917 332.616 333.431 332.709 333.89 332.896C334.349 333.083 334.714 333.341 334.986 333.672C335.258 334.003 335.405 334.371 335.426 334.776H334.122C334.106 334.563 334.018 334.371 333.858 334.2C333.703 334.029 333.495 333.896 333.234 333.8C332.973 333.704 332.679 333.656 332.354 333.656C332.023 333.656 331.73 333.712 331.474 333.824C331.218 333.936 331.018 334.091 330.874 334.288C330.735 334.48 330.666 334.699 330.666 334.944C330.666 335.221 330.743 335.451 330.898 335.632C331.053 335.813 331.279 335.931 331.578 335.984L333.602 336.344C334.018 336.419 334.375 336.565 334.674 336.784C334.978 337.003 335.207 337.275 335.362 337.6C335.522 337.925 335.602 338.28 335.602 338.664C335.602 339.144 335.463 339.576 335.186 339.96C334.914 340.344 334.538 340.645 334.058 340.864C333.578 341.083 333.042 341.192 332.45 341.192Z" fill="#19191C"/>
<rect x="178" y="312" width="54" height="48" rx="2" fill="#4DBB5F" fill-opacity="0.2"/>
<path d="M195.4 332.808H196.68V341H195.4V332.808ZM196.792 329.8V331.32H195.288V329.8H196.792ZM202.982 341.192C202.203 341.192 201.494 341.008 200.854 340.64C200.219 340.267 199.718 339.755 199.35 339.104C198.987 338.448 198.806 337.715 198.806 336.904C198.806 336.093 198.987 335.363 199.35 334.712C199.718 334.056 200.222 333.544 200.862 333.176C201.502 332.803 202.211 332.616 202.99 332.616C203.769 332.616 204.475 332.803 205.11 333.176C205.745 333.544 206.243 334.053 206.606 334.704C206.974 335.355 207.158 336.088 207.158 336.904C207.158 337.72 206.974 338.453 206.606 339.104C206.243 339.755 205.745 340.267 205.11 340.64C204.475 341.008 203.766 341.192 202.982 341.192ZM200.15 336.904C200.15 337.517 200.273 338.061 200.518 338.536C200.769 339.005 201.11 339.371 201.542 339.632C201.979 339.893 202.465 340.024 202.998 340.024C203.531 340.024 204.011 339.893 204.438 339.632C204.865 339.371 205.201 339.005 205.446 338.536C205.691 338.061 205.814 337.517 205.814 336.904C205.814 336.291 205.691 335.747 205.446 335.272C205.201 334.797 204.862 334.429 204.43 334.168C204.003 333.907 203.523 333.776 202.99 333.776C202.457 333.776 201.974 333.907 201.542 334.168C201.11 334.429 200.769 334.797 200.518 335.272C200.273 335.747 200.15 336.291 200.15 336.904ZM211.996 341.192C211.377 341.192 210.817 341.093 210.316 340.896C209.82 340.699 209.422 340.424 209.124 340.072C208.83 339.715 208.673 339.312 208.652 338.864H209.956C209.977 339.109 210.078 339.331 210.26 339.528C210.441 339.72 210.681 339.872 210.98 339.984C211.278 340.096 211.612 340.152 211.98 340.152C212.353 340.152 212.681 340.091 212.964 339.968C213.252 339.845 213.473 339.675 213.628 339.456C213.788 339.237 213.868 338.989 213.868 338.712C213.868 338.413 213.782 338.163 213.612 337.96C213.446 337.752 213.214 337.621 212.916 337.568L210.94 337.208C210.31 337.091 209.82 336.837 209.468 336.448C209.116 336.053 208.94 335.555 208.94 334.952C208.94 334.52 209.062 334.128 209.308 333.776C209.558 333.419 209.908 333.136 210.356 332.928C210.804 332.72 211.316 332.616 211.892 332.616C212.462 332.616 212.977 332.709 213.436 332.896C213.894 333.083 214.26 333.341 214.532 333.672C214.804 334.003 214.95 334.371 214.972 334.776H213.668C213.652 334.563 213.564 334.371 213.404 334.2C213.249 334.029 213.041 333.896 212.78 333.8C212.518 333.704 212.225 333.656 211.9 333.656C211.569 333.656 211.276 333.712 211.02 333.824C210.764 333.936 210.564 334.091 210.42 334.288C210.281 334.48 210.212 334.699 210.212 334.944C210.212 335.221 210.289 335.451 210.444 335.632C210.598 335.813 210.825 335.931 211.124 335.984L213.148 336.344C213.564 336.419 213.921 336.565 214.22 336.784C214.524 337.003 214.753 337.275 214.908 337.6C215.068 337.925 215.148 338.28 215.148 338.664C215.148 339.144 215.009 339.576 214.732 339.96C214.46 340.344 214.084 340.645 213.604 340.864C213.124 341.083 212.588 341.192 211.996 341.192Z" fill="#19191C"/>
<rect x="274" y="216" width="75" height="48" rx="2" fill="#4DBB5F" fill-opacity="0.2"/>
<path d="M294.288 236.616C294.907 236.616 295.451 236.731 295.92 236.96C296.389 237.184 296.752 237.515 297.008 237.952C297.269 238.384 297.4 238.899 297.4 239.496V245H296.152V243.664C295.923 244.16 295.587 244.539 295.144 244.8C294.701 245.061 294.176 245.192 293.568 245.192C293.045 245.192 292.573 245.091 292.152 244.888C291.731 244.685 291.4 244.405 291.16 244.048C290.92 243.691 290.8 243.285 290.8 242.832C290.8 242.405 290.909 242.013 291.128 241.656C291.352 241.293 291.659 240.997 292.048 240.768C292.443 240.539 292.885 240.397 293.376 240.344L295.56 240.104C295.741 240.083 295.883 240.008 295.984 239.88C296.085 239.752 296.136 239.565 296.136 239.32C296.136 238.995 296.059 238.709 295.904 238.464C295.749 238.219 295.531 238.029 295.248 237.896C294.971 237.757 294.648 237.688 294.28 237.688C293.912 237.688 293.581 237.752 293.288 237.88C292.995 238.003 292.757 238.171 292.576 238.384C292.4 238.592 292.293 238.819 292.256 239.064H290.976C291.04 238.6 291.221 238.184 291.52 237.816C291.824 237.443 292.216 237.149 292.696 236.936C293.176 236.723 293.707 236.616 294.288 236.616ZM292.128 242.76C292.128 243.037 292.2 243.283 292.344 243.496C292.493 243.709 292.699 243.877 292.96 244C293.221 244.117 293.52 244.176 293.856 244.176C294.315 244.176 294.715 244.083 295.056 243.896C295.403 243.709 295.669 243.448 295.856 243.112C296.043 242.771 296.136 242.379 296.136 241.936V241L293.552 241.288C293.125 241.336 292.781 241.496 292.52 241.768C292.259 242.04 292.128 242.371 292.128 242.76ZM301.235 236.808V238.256C301.544 237.739 301.96 237.336 302.483 237.048C303.005 236.76 303.605 236.616 304.283 236.616C305.045 236.616 305.723 236.797 306.315 237.16C306.912 237.517 307.376 238.021 307.707 238.672C308.043 239.323 308.211 240.067 308.211 240.904C308.211 241.741 308.043 242.485 307.707 243.136C307.376 243.787 306.912 244.293 306.315 244.656C305.723 245.013 305.045 245.192 304.283 245.192C303.616 245.192 303.024 245.053 302.507 244.776C301.989 244.499 301.576 244.109 301.267 243.608V247.576H299.987V236.808H301.235ZM301.267 240.904C301.267 241.517 301.384 242.061 301.619 242.536C301.859 243.005 302.192 243.373 302.619 243.64C303.045 243.901 303.533 244.032 304.083 244.032C304.627 244.032 305.109 243.901 305.531 243.64C305.952 243.373 306.28 243.005 306.515 242.536C306.749 242.061 306.867 241.517 306.867 240.904C306.867 240.291 306.749 239.749 306.515 239.28C306.28 238.805 305.952 238.437 305.531 238.176C305.109 237.909 304.627 237.776 304.083 237.776C303.533 237.776 303.045 237.909 302.619 238.176C302.192 238.437 301.859 238.805 301.619 239.28C301.384 239.749 301.267 240.291 301.267 240.904ZM311.587 236.808V238.256C311.896 237.739 312.312 237.336 312.835 237.048C313.357 236.76 313.957 236.616 314.635 236.616C315.397 236.616 316.075 236.797 316.667 237.16C317.264 237.517 317.728 238.021 318.059 238.672C318.395 239.323 318.563 240.067 318.563 240.904C318.563 241.741 318.395 242.485 318.059 243.136C317.728 243.787 317.264 244.293 316.667 244.656C316.075 245.013 315.397 245.192 314.635 245.192C313.968 245.192 313.376 245.053 312.859 244.776C312.341 244.499 311.928 244.109 311.619 243.608V247.576H310.339V236.808H311.587ZM311.619 240.904C311.619 241.517 311.736 242.061 311.971 242.536C312.211 243.005 312.544 243.373 312.971 243.64C313.397 243.901 313.885 244.032 314.435 244.032C314.979 244.032 315.461 243.901 315.883 243.64C316.304 243.373 316.632 243.005 316.867 242.536C317.101 242.061 317.219 241.517 317.219 240.904C317.219 240.291 317.101 239.749 316.867 239.28C316.632 238.805 316.304 238.437 315.883 238.176C315.461 237.909 314.979 237.776 314.435 237.776C313.885 237.776 313.397 237.909 312.971 238.176C312.544 238.437 312.211 238.805 311.971 239.28C311.736 239.749 311.619 240.291 311.619 240.904ZM320.691 233.8H321.971V245H320.691V233.8ZM328.121 245.192C327.353 245.192 326.662 245.008 326.049 244.64C325.436 244.272 324.956 243.763 324.609 243.112C324.268 242.456 324.097 241.715 324.097 240.888C324.097 240.083 324.27 239.355 324.617 238.704C324.969 238.053 325.452 237.544 326.065 237.176C326.678 236.803 327.364 236.616 328.121 236.616C328.894 236.616 329.572 236.8 330.153 237.168C330.74 237.536 331.19 238.045 331.505 238.696C331.825 239.347 331.985 240.083 331.985 240.904V241.216H325.401C325.454 241.776 325.606 242.272 325.857 242.704C326.108 243.136 326.436 243.472 326.841 243.712C327.246 243.952 327.7 244.072 328.201 244.072C328.74 244.072 329.214 243.973 329.625 243.776C330.036 243.579 330.334 243.309 330.521 242.968H331.801C331.705 243.309 331.502 243.651 331.193 243.992C330.889 244.333 330.473 244.619 329.945 244.848C329.422 245.077 328.814 245.192 328.121 245.192ZM330.657 240.16C330.55 239.413 330.278 238.824 329.841 238.392C329.409 237.96 328.841 237.744 328.137 237.744C327.662 237.744 327.236 237.843 326.857 238.04C326.478 238.232 326.166 238.512 325.921 238.88C325.676 239.243 325.513 239.669 325.433 240.16H330.657Z" fill="#19191C"/>
<rect x="387" y="216" width="84" height="48" rx="2" fill="#E8E8E8"/>
<path d="M404.4 236.808H405.632V238.192C405.877 237.685 406.216 237.296 406.648 237.024C407.085 236.752 407.597 236.616 408.184 236.616C408.797 236.616 409.331 236.763 409.784 237.056C410.237 237.349 410.576 237.763 410.8 238.296C411.061 237.763 411.427 237.349 411.896 237.056C412.365 236.763 412.907 236.616 413.52 236.616C414.101 236.616 414.616 236.749 415.064 237.016C415.517 237.277 415.869 237.651 416.12 238.136C416.371 238.621 416.496 239.187 416.496 239.832V245H415.216V239.888C415.216 239.211 415.045 238.677 414.704 238.288C414.368 237.899 413.893 237.704 413.28 237.704C412.843 237.704 412.459 237.805 412.128 238.008C411.797 238.205 411.541 238.488 411.36 238.856C411.179 239.219 411.088 239.648 411.088 240.144V245H409.808V239.888C409.808 239.211 409.637 238.677 409.296 238.288C408.96 237.899 408.485 237.704 407.872 237.704C407.429 237.704 407.043 237.803 406.712 238C406.381 238.197 406.125 238.48 405.944 238.848C405.768 239.216 405.68 239.648 405.68 240.144V245H404.4V236.808ZM419.08 236.808H420.36V245H419.08V236.808ZM420.472 233.8V235.32H418.968V233.8H420.472ZM423.182 236.808H424.414V238.136C424.692 237.645 425.06 237.269 425.518 237.008C425.982 236.747 426.518 236.616 427.126 236.616C427.713 236.616 428.233 236.741 428.686 236.992C429.14 237.243 429.494 237.613 429.75 238.104C430.012 238.589 430.142 239.173 430.142 239.856V245H428.862V239.984C428.862 239.275 428.678 238.723 428.31 238.328C427.942 237.933 427.436 237.736 426.79 237.736C426.332 237.736 425.926 237.837 425.574 238.04C425.222 238.243 424.948 238.528 424.75 238.896C424.558 239.259 424.462 239.675 424.462 240.144V245H423.182V236.808ZM436.01 247.752C435.413 247.752 434.861 247.659 434.354 247.472C433.847 247.285 433.426 247.021 433.09 246.68C432.754 246.339 432.538 245.944 432.442 245.496H433.722C433.893 245.864 434.183 246.144 434.594 246.336C435.01 246.533 435.469 246.632 435.97 246.632C436.493 246.632 436.949 246.525 437.338 246.312C437.733 246.104 438.037 245.811 438.25 245.432C438.463 245.053 438.57 244.616 438.57 244.12V243.784L438.594 242.96C438.274 243.413 437.866 243.765 437.37 244.016C436.879 244.267 436.338 244.392 435.746 244.392C435.053 244.392 434.426 244.227 433.866 243.896C433.306 243.56 432.866 243.099 432.546 242.512C432.226 241.92 432.066 241.253 432.066 240.512C432.066 239.771 432.226 239.104 432.546 238.512C432.866 237.92 433.306 237.456 433.866 237.12C434.426 236.784 435.053 236.616 435.746 236.616C436.349 236.616 436.901 236.749 437.402 237.016C437.903 237.277 438.314 237.645 438.634 238.12V236.808H439.874L439.85 244.12C439.85 244.829 439.69 245.459 439.37 246.008C439.05 246.563 438.599 246.992 438.018 247.296C437.437 247.6 436.767 247.752 436.01 247.752ZM433.41 240.512C433.41 241.029 433.519 241.499 433.738 241.92C433.962 242.341 434.271 242.672 434.666 242.912C435.061 243.152 435.503 243.272 435.994 243.272C436.479 243.272 436.917 243.152 437.306 242.912C437.701 242.672 438.013 242.341 438.242 241.92C438.471 241.499 438.586 241.029 438.586 240.512C438.586 239.989 438.471 239.517 438.242 239.096C438.013 238.675 437.701 238.344 437.306 238.104C436.917 237.859 436.479 237.736 435.994 237.736C435.503 237.736 435.061 237.859 434.666 238.104C434.271 238.344 433.962 238.675 433.738 239.096C433.519 239.517 433.41 239.989 433.41 240.512ZM441.668 236.808H443.044L444.972 242.696L445.156 243.392L445.324 242.696L447.348 236.808H448.572L450.636 242.696L450.82 243.392L450.988 242.696L452.868 236.808H454.212L451.404 245H450.14L448.116 238.84L447.964 238.272L447.828 238.824L445.724 245H444.476L441.668 236.808Z" fill="#19191C"/>
<rect x="97" y="216" width="139" height="48" rx="2" fill="#E8E8E8"/>
<path d="M117.288 236.616C117.907 236.616 118.451 236.731 118.92 236.96C119.389 237.184 119.752 237.515 120.008 237.952C120.269 238.384 120.4 238.899 120.4 239.496V245H119.152V243.664C118.923 244.16 118.587 244.539 118.144 244.8C117.701 245.061 117.176 245.192 116.568 245.192C116.045 245.192 115.573 245.091 115.152 244.888C114.731 244.685 114.4 244.405 114.16 244.048C113.92 243.691 113.8 243.285 113.8 242.832C113.8 242.405 113.909 242.013 114.128 241.656C114.352 241.293 114.659 240.997 115.048 240.768C115.443 240.539 115.885 240.397 116.376 240.344L118.56 240.104C118.741 240.083 118.883 240.008 118.984 239.88C119.085 239.752 119.136 239.565 119.136 239.32C119.136 238.995 119.059 238.709 118.904 238.464C118.749 238.219 118.531 238.029 118.248 237.896C117.971 237.757 117.648 237.688 117.28 237.688C116.912 237.688 116.581 237.752 116.288 237.88C115.995 238.003 115.757 238.171 115.576 238.384C115.4 238.592 115.293 238.819 115.256 239.064H113.976C114.04 238.6 114.221 238.184 114.52 237.816C114.824 237.443 115.216 237.149 115.696 236.936C116.176 236.723 116.707 236.616 117.288 236.616ZM115.128 242.76C115.128 243.037 115.2 243.283 115.344 243.496C115.493 243.709 115.699 243.877 115.96 244C116.221 244.117 116.52 244.176 116.856 244.176C117.315 244.176 117.715 244.083 118.056 243.896C118.403 243.709 118.669 243.448 118.856 243.112C119.043 242.771 119.136 242.379 119.136 241.936V241L116.552 241.288C116.125 241.336 115.781 241.496 115.52 241.768C115.259 242.04 115.128 242.371 115.128 242.76ZM122.987 236.808H124.219V238.136C124.496 237.645 124.864 237.269 125.323 237.008C125.787 236.747 126.323 236.616 126.931 236.616C127.517 236.616 128.037 236.741 128.491 236.992C128.944 237.243 129.299 237.613 129.555 238.104C129.816 238.589 129.947 239.173 129.947 239.856V245H128.667V239.984C128.667 239.275 128.483 238.723 128.115 238.328C127.747 237.933 127.24 237.736 126.595 237.736C126.136 237.736 125.731 237.837 125.379 238.04C125.027 238.243 124.752 238.528 124.555 238.896C124.363 239.259 124.267 239.675 124.267 240.144V245H122.987V236.808ZM138.75 243.64C138.441 244.136 138.027 244.52 137.51 244.792C136.998 245.059 136.414 245.192 135.758 245.192C134.995 245.192 134.315 245.013 133.718 244.656C133.126 244.293 132.662 243.787 132.326 243.136C131.995 242.485 131.83 241.741 131.83 240.904C131.83 240.067 131.995 239.323 132.326 238.672C132.662 238.021 133.126 237.517 133.718 237.16C134.315 236.797 134.995 236.616 135.758 236.616C136.414 236.616 136.998 236.752 137.51 237.024C138.027 237.291 138.441 237.672 138.75 238.168V233.8H140.03V245H138.75V243.64ZM133.174 240.904C133.174 241.517 133.291 242.061 133.526 242.536C133.761 243.005 134.089 243.373 134.51 243.64C134.931 243.901 135.414 244.032 135.958 244.032C136.459 244.032 136.91 243.923 137.31 243.704C137.715 243.48 138.041 243.168 138.286 242.768C138.537 242.363 138.691 241.893 138.75 241.36V240.448C138.691 239.915 138.537 239.448 138.286 239.048C138.041 238.643 137.715 238.331 137.31 238.112C136.91 237.888 136.459 237.776 135.958 237.776C135.414 237.776 134.931 237.909 134.51 238.176C134.089 238.437 133.761 238.805 133.526 239.28C133.291 239.749 133.174 240.291 133.174 240.904ZM142.738 236.808H144.018V238.168C144.279 237.704 144.618 237.349 145.034 237.104C145.45 236.853 145.927 236.728 146.466 236.728H146.754V238.064H146.418C145.932 238.064 145.508 238.157 145.146 238.344C144.783 238.531 144.503 238.797 144.306 239.144C144.114 239.485 144.018 239.888 144.018 240.352V245H142.738V236.808ZM151.96 245.192C151.182 245.192 150.472 245.008 149.832 244.64C149.198 244.267 148.696 243.755 148.328 243.104C147.966 242.448 147.784 241.715 147.784 240.904C147.784 240.093 147.966 239.363 148.328 238.712C148.696 238.056 149.2 237.544 149.84 237.176C150.48 236.803 151.19 236.616 151.968 236.616C152.747 236.616 153.454 236.803 154.088 237.176C154.723 237.544 155.222 238.053 155.584 238.704C155.952 239.355 156.136 240.088 156.136 240.904C156.136 241.72 155.952 242.453 155.584 243.104C155.222 243.755 154.723 244.267 154.088 244.64C153.454 245.008 152.744 245.192 151.96 245.192ZM149.128 240.904C149.128 241.517 149.251 242.061 149.496 242.536C149.747 243.005 150.088 243.371 150.52 243.632C150.958 243.893 151.443 244.024 151.976 244.024C152.51 244.024 152.99 243.893 153.416 243.632C153.843 243.371 154.179 243.005 154.424 242.536C154.67 242.061 154.792 241.517 154.792 240.904C154.792 240.291 154.67 239.747 154.424 239.272C154.179 238.797 153.84 238.429 153.408 238.168C152.982 237.907 152.502 237.776 151.968 237.776C151.435 237.776 150.952 237.907 150.52 238.168C150.088 238.429 149.747 238.797 149.496 239.272C149.251 239.747 149.128 240.291 149.128 240.904ZM158.27 236.808H159.55V245H158.27V236.808ZM159.662 233.8V235.32H158.158V233.8H159.662ZM168.596 243.64C168.287 244.136 167.873 244.52 167.356 244.792C166.844 245.059 166.26 245.192 165.604 245.192C164.841 245.192 164.161 245.013 163.564 244.656C162.972 244.293 162.508 243.787 162.172 243.136C161.841 242.485 161.676 241.741 161.676 240.904C161.676 240.067 161.841 239.323 162.172 238.672C162.508 238.021 162.972 237.517 163.564 237.16C164.161 236.797 164.841 236.616 165.604 236.616C166.26 236.616 166.844 236.752 167.356 237.024C167.873 237.291 168.287 237.672 168.596 238.168V233.8H169.876V245H168.596V243.64ZM163.02 240.904C163.02 241.517 163.137 242.061 163.372 242.536C163.607 243.005 163.935 243.373 164.356 243.64C164.777 243.901 165.26 244.032 165.804 244.032C166.305 244.032 166.756 243.923 167.156 243.704C167.561 243.48 167.887 243.168 168.132 242.768C168.383 242.363 168.537 241.893 168.596 241.36V240.448C168.537 239.915 168.383 239.448 168.132 239.048C167.887 238.643 167.561 238.331 167.156 238.112C166.756 237.888 166.305 237.776 165.804 237.776C165.26 237.776 164.777 237.909 164.356 238.176C163.935 238.437 163.607 238.805 163.372 239.28C163.137 239.749 163.02 240.291 163.02 240.904ZM172.904 233.8H174.312L180.328 242.888V233.8H181.656V245H180.232L174.232 235.912V245H172.904V233.8ZM187.683 236.616C188.302 236.616 188.846 236.731 189.315 236.96C189.784 237.184 190.147 237.515 190.403 237.952C190.664 238.384 190.795 238.899 190.795 239.496V245H189.547V243.664C189.318 244.16 188.982 244.539 188.539 244.8C188.096 245.061 187.571 245.192 186.963 245.192C186.44 245.192 185.968 245.091 185.547 244.888C185.126 244.685 184.795 244.405 184.555 244.048C184.315 243.691 184.195 243.285 184.195 242.832C184.195 242.405 184.304 242.013 184.523 241.656C184.747 241.293 185.054 240.997 185.443 240.768C185.838 240.539 186.28 240.397 186.771 240.344L188.955 240.104C189.136 240.083 189.278 240.008 189.379 239.88C189.48 239.752 189.531 239.565 189.531 239.32C189.531 238.995 189.454 238.709 189.299 238.464C189.144 238.219 188.926 238.029 188.643 237.896C188.366 237.757 188.043 237.688 187.675 237.688C187.307 237.688 186.976 237.752 186.683 237.88C186.39 238.003 186.152 238.171 185.971 238.384C185.795 238.592 185.688 238.819 185.651 239.064H184.371C184.435 238.6 184.616 238.184 184.915 237.816C185.219 237.443 185.611 237.149 186.091 236.936C186.571 236.723 187.102 236.616 187.683 236.616ZM185.523 242.76C185.523 243.037 185.595 243.283 185.739 243.496C185.888 243.709 186.094 243.877 186.355 244C186.616 244.117 186.915 244.176 187.251 244.176C187.71 244.176 188.11 244.083 188.451 243.896C188.798 243.709 189.064 243.448 189.251 243.112C189.438 242.771 189.531 242.379 189.531 241.936V241L186.947 241.288C186.52 241.336 186.176 241.496 185.915 241.768C185.654 242.04 185.523 242.371 185.523 242.76ZM196.014 245C195.624 245 195.27 244.917 194.95 244.752C194.635 244.581 194.387 244.349 194.206 244.056C194.024 243.757 193.934 243.427 193.934 243.064L193.926 237.944H192.486L192.494 236.808H193.382C193.584 236.808 193.747 236.744 193.87 236.616C193.998 236.488 194.062 236.325 194.062 236.128V234.808H195.214V236.808H197.19L197.182 237.944H195.206L195.214 242.984C195.214 243.235 195.296 243.445 195.462 243.616C195.632 243.781 195.843 243.864 196.094 243.864H197.182V245H196.014ZM199.437 236.808H200.717V245H199.437V236.808ZM200.829 233.8V235.32H199.325V233.8H200.829ZM202.475 236.808H203.867L206.363 243.288L208.779 236.808H210.139L206.915 245H205.715L202.475 236.808ZM215.063 245.192C214.295 245.192 213.604 245.008 212.991 244.64C212.378 244.272 211.898 243.763 211.551 243.112C211.21 242.456 211.039 241.715 211.039 240.888C211.039 240.083 211.212 239.355 211.559 238.704C211.911 238.053 212.394 237.544 213.007 237.176C213.62 236.803 214.306 236.616 215.063 236.616C215.836 236.616 216.514 236.8 217.095 237.168C217.682 237.536 218.132 238.045 218.447 238.696C218.767 239.347 218.927 240.083 218.927 240.904V241.216H212.343C212.396 241.776 212.548 242.272 212.799 242.704C213.05 243.136 213.378 243.472 213.783 243.712C214.188 243.952 214.642 244.072 215.143 244.072C215.682 244.072 216.156 243.973 216.567 243.776C216.978 243.579 217.276 243.309 217.463 242.968H218.743C218.647 243.309 218.444 243.651 218.135 243.992C217.831 244.333 217.415 244.619 216.887 244.848C216.364 245.077 215.756 245.192 215.063 245.192ZM217.599 240.16C217.492 239.413 217.22 238.824 216.783 238.392C216.351 237.96 215.783 237.744 215.079 237.744C214.604 237.744 214.178 237.843 213.799 238.04C213.42 238.232 213.108 238.512 212.863 238.88C212.618 239.243 212.455 239.669 212.375 240.16H217.599Z" fill="#19191C"/>
<rect x="509" y="216" width="68" height="48" rx="2" fill="#E8E8E8"/>
<path d="M526.4 233.8H527.68V245H526.4V233.8ZM530.502 236.808H531.782V245H530.502V236.808ZM531.894 233.8V235.32H530.39V233.8H531.894ZM534.604 236.808H535.836V238.136C536.114 237.645 536.482 237.269 536.94 237.008C537.404 236.747 537.94 236.616 538.548 236.616C539.135 236.616 539.655 236.741 540.108 236.992C540.562 237.243 540.916 237.613 541.172 238.104C541.434 238.589 541.564 239.173 541.564 239.856V245H540.284V239.984C540.284 239.275 540.1 238.723 539.732 238.328C539.364 237.933 538.858 237.736 538.212 237.736C537.754 237.736 537.348 237.837 536.996 238.04C536.644 238.243 536.37 238.528 536.172 238.896C535.98 239.259 535.884 239.675 535.884 240.144V245H534.604V236.808ZM550.864 245H549.632V243.672C549.355 244.163 548.984 244.539 548.52 244.8C548.061 245.061 547.528 245.192 546.92 245.192C546.333 245.192 545.813 245.067 545.36 244.816C544.907 244.565 544.549 244.197 544.288 243.712C544.032 243.221 543.904 242.635 543.904 241.952V236.808H545.184V241.824C545.184 242.533 545.368 243.085 545.736 243.48C546.104 243.875 546.611 244.072 547.256 244.072C547.715 244.072 548.12 243.971 548.472 243.768C548.824 243.565 549.096 243.283 549.288 242.92C549.485 242.552 549.584 242.133 549.584 241.664V236.808H550.864V245ZM556.3 241.808L554.116 245H552.66L555.628 240.776L552.804 236.808H554.292L556.364 239.784L558.396 236.808H559.852L557.044 240.816L560.004 245H558.516L556.3 241.808Z" fill="#19191C"/>
<rect x="273" y="120" width="78" height="48" rx="2" fill="#4DBB5F" fill-opacity="0.2"/>
<path d="M290.4 140.808H291.632V142.136C291.909 141.645 292.277 141.269 292.736 141.008C293.2 140.747 293.736 140.616 294.344 140.616C294.931 140.616 295.451 140.741 295.904 140.992C296.357 141.243 296.712 141.613 296.968 142.104C297.229 142.589 297.36 143.173 297.36 143.856V149H296.08V143.984C296.08 143.275 295.896 142.723 295.528 142.328C295.16 141.933 294.653 141.736 294.008 141.736C293.549 141.736 293.144 141.837 292.792 142.04C292.44 142.243 292.165 142.528 291.968 142.896C291.776 143.259 291.68 143.675 291.68 144.144V149H290.4V140.808ZM302.828 140.616C303.446 140.616 303.99 140.731 304.46 140.96C304.929 141.184 305.292 141.515 305.548 141.952C305.809 142.384 305.94 142.899 305.94 143.496V149H304.692V147.664C304.462 148.16 304.126 148.539 303.684 148.8C303.241 149.061 302.716 149.192 302.108 149.192C301.585 149.192 301.113 149.091 300.692 148.888C300.27 148.685 299.94 148.405 299.7 148.048C299.46 147.691 299.34 147.285 299.34 146.832C299.34 146.405 299.449 146.013 299.668 145.656C299.892 145.293 300.198 144.997 300.588 144.768C300.982 144.539 301.425 144.397 301.916 144.344L304.1 144.104C304.281 144.083 304.422 144.008 304.524 143.88C304.625 143.752 304.676 143.565 304.676 143.32C304.676 142.995 304.598 142.709 304.444 142.464C304.289 142.219 304.07 142.029 303.788 141.896C303.51 141.757 303.188 141.688 302.82 141.688C302.452 141.688 302.121 141.752 301.828 141.88C301.534 142.003 301.297 142.171 301.116 142.384C300.94 142.592 300.833 142.819 300.796 143.064H299.516C299.58 142.6 299.761 142.184 300.06 141.816C300.364 141.443 300.756 141.149 301.236 140.936C301.716 140.723 302.246 140.616 302.828 140.616ZM300.668 146.76C300.668 147.037 300.74 147.283 300.884 147.496C301.033 147.709 301.238 147.877 301.5 148C301.761 148.117 302.06 148.176 302.396 148.176C302.854 148.176 303.254 148.083 303.596 147.896C303.942 147.709 304.209 147.448 304.396 147.112C304.582 146.771 304.676 146.379 304.676 145.936V145L302.092 145.288C301.665 145.336 301.321 145.496 301.06 145.768C300.798 146.04 300.668 146.371 300.668 146.76ZM311.158 149C310.769 149 310.414 148.917 310.094 148.752C309.779 148.581 309.531 148.349 309.35 148.056C309.169 147.757 309.078 147.427 309.078 147.064L309.07 141.944H307.63L307.638 140.808H308.526C308.729 140.808 308.891 140.744 309.014 140.616C309.142 140.488 309.206 140.325 309.206 140.128V138.808H310.358V140.808H312.334L312.326 141.944H310.35L310.358 146.984C310.358 147.235 310.441 147.445 310.606 147.616C310.777 147.781 310.987 147.864 311.238 147.864H312.326V149H311.158ZM314.581 140.808H315.861V149H314.581V140.808ZM315.973 137.8V139.32H314.469V137.8H315.973ZM317.62 140.808H319.012L321.508 147.288L323.924 140.808H325.284L322.06 149H320.86L317.62 140.808ZM330.207 149.192C329.439 149.192 328.749 149.008 328.135 148.64C327.522 148.272 327.042 147.763 326.695 147.112C326.354 146.456 326.183 145.715 326.183 144.888C326.183 144.083 326.357 143.355 326.703 142.704C327.055 142.053 327.538 141.544 328.151 141.176C328.765 140.803 329.45 140.616 330.207 140.616C330.981 140.616 331.658 140.8 332.239 141.168C332.826 141.536 333.277 142.045 333.591 142.696C333.911 143.347 334.071 144.083 334.071 144.904V145.216H327.487C327.541 145.776 327.693 146.272 327.943 146.704C328.194 147.136 328.522 147.472 328.927 147.712C329.333 147.952 329.786 148.072 330.287 148.072C330.826 148.072 331.301 147.973 331.711 147.776C332.122 147.579 332.421 147.309 332.607 146.968H333.887C333.791 147.309 333.589 147.651 333.279 147.992C332.975 148.333 332.559 148.619 332.031 148.848C331.509 149.077 330.901 149.192 330.207 149.192ZM332.743 144.16C332.637 143.413 332.365 142.824 331.927 142.392C331.495 141.96 330.927 141.744 330.223 141.744C329.749 141.744 329.322 141.843 328.943 142.04C328.565 142.232 328.253 142.512 328.007 142.88C327.762 143.243 327.599 143.669 327.519 144.16H332.743Z" fill="#19191C"/>
<rect x="454" y="120" width="91" height="48" rx="2" fill="#4DBB5F" fill-opacity="0.2"/>
<path d="M474.288 140.616C474.907 140.616 475.451 140.731 475.92 140.96C476.389 141.184 476.752 141.515 477.008 141.952C477.269 142.384 477.4 142.899 477.4 143.496V149H476.152V147.664C475.923 148.16 475.587 148.539 475.144 148.8C474.701 149.061 474.176 149.192 473.568 149.192C473.045 149.192 472.573 149.091 472.152 148.888C471.731 148.685 471.4 148.405 471.16 148.048C470.92 147.691 470.8 147.285 470.8 146.832C470.8 146.405 470.909 146.013 471.128 145.656C471.352 145.293 471.659 144.997 472.048 144.768C472.443 144.539 472.885 144.397 473.376 144.344L475.56 144.104C475.741 144.083 475.883 144.008 475.984 143.88C476.085 143.752 476.136 143.565 476.136 143.32C476.136 142.995 476.059 142.709 475.904 142.464C475.749 142.219 475.531 142.029 475.248 141.896C474.971 141.757 474.648 141.688 474.28 141.688C473.912 141.688 473.581 141.752 473.288 141.88C472.995 142.003 472.757 142.171 472.576 142.384C472.4 142.592 472.293 142.819 472.256 143.064H470.976C471.04 142.6 471.221 142.184 471.52 141.816C471.824 141.443 472.216 141.149 472.696 140.936C473.176 140.723 473.707 140.616 474.288 140.616ZM472.128 146.76C472.128 147.037 472.2 147.283 472.344 147.496C472.493 147.709 472.699 147.877 472.96 148C473.221 148.117 473.52 148.176 473.856 148.176C474.315 148.176 474.715 148.083 475.056 147.896C475.403 147.709 475.669 147.448 475.856 147.112C476.043 146.771 476.136 146.379 476.136 145.936V145L473.552 145.288C473.125 145.336 472.781 145.496 472.52 145.768C472.259 146.04 472.128 146.371 472.128 146.76ZM479.987 140.808H481.219V142.136C481.496 141.645 481.864 141.269 482.323 141.008C482.787 140.747 483.323 140.616 483.931 140.616C484.517 140.616 485.037 140.741 485.491 140.992C485.944 141.243 486.299 141.613 486.555 142.104C486.816 142.589 486.947 143.173 486.947 143.856V149H485.667V143.984C485.667 143.275 485.483 142.723 485.115 142.328C484.747 141.933 484.24 141.736 483.595 141.736C483.136 141.736 482.731 141.837 482.379 142.04C482.027 142.243 481.752 142.528 481.555 142.896C481.363 143.259 481.267 143.675 481.267 144.144V149H479.987V140.808ZM495.75 147.64C495.441 148.136 495.027 148.52 494.51 148.792C493.998 149.059 493.414 149.192 492.758 149.192C491.995 149.192 491.315 149.013 490.718 148.656C490.126 148.293 489.662 147.787 489.326 147.136C488.995 146.485 488.83 145.741 488.83 144.904C488.83 144.067 488.995 143.323 489.326 142.672C489.662 142.021 490.126 141.517 490.718 141.16C491.315 140.797 491.995 140.616 492.758 140.616C493.414 140.616 493.998 140.752 494.51 141.024C495.027 141.291 495.441 141.672 495.75 142.168V137.8H497.03V149H495.75V147.64ZM490.174 144.904C490.174 145.517 490.291 146.061 490.526 146.536C490.761 147.005 491.089 147.373 491.51 147.64C491.931 147.901 492.414 148.032 492.958 148.032C493.459 148.032 493.91 147.923 494.31 147.704C494.715 147.48 495.041 147.168 495.286 146.768C495.537 146.363 495.691 145.893 495.75 145.36V144.448C495.691 143.915 495.537 143.448 495.286 143.048C495.041 142.643 494.715 142.331 494.31 142.112C493.91 141.888 493.459 141.776 492.958 141.776C492.414 141.776 491.931 141.909 491.51 142.176C491.089 142.437 490.761 142.805 490.526 143.28C490.291 143.749 490.174 144.291 490.174 144.904ZM499.738 140.808H501.018V142.168C501.279 141.704 501.618 141.349 502.034 141.104C502.45 140.853 502.927 140.728 503.466 140.728H503.754V142.064H503.418C502.932 142.064 502.508 142.157 502.146 142.344C501.783 142.531 501.503 142.797 501.306 143.144C501.114 143.485 501.018 143.888 501.018 144.352V149H499.738V140.808ZM508.96 149.192C508.182 149.192 507.472 149.008 506.832 148.64C506.198 148.267 505.696 147.755 505.328 147.104C504.966 146.448 504.784 145.715 504.784 144.904C504.784 144.093 504.966 143.363 505.328 142.712C505.696 142.056 506.2 141.544 506.84 141.176C507.48 140.803 508.19 140.616 508.968 140.616C509.747 140.616 510.454 140.803 511.088 141.176C511.723 141.544 512.222 142.053 512.584 142.704C512.952 143.355 513.136 144.088 513.136 144.904C513.136 145.72 512.952 146.453 512.584 147.104C512.222 147.755 511.723 148.267 511.088 148.64C510.454 149.008 509.744 149.192 508.96 149.192ZM506.128 144.904C506.128 145.517 506.251 146.061 506.496 146.536C506.747 147.005 507.088 147.371 507.52 147.632C507.958 147.893 508.443 148.024 508.976 148.024C509.51 148.024 509.99 147.893 510.416 147.632C510.843 147.371 511.179 147.005 511.424 146.536C511.67 146.061 511.792 145.517 511.792 144.904C511.792 144.291 511.67 143.747 511.424 143.272C511.179 142.797 510.84 142.429 510.408 142.168C509.982 141.907 509.502 141.776 508.968 141.776C508.435 141.776 507.952 141.907 507.52 142.168C507.088 142.429 506.747 142.797 506.496 143.272C506.251 143.747 506.128 144.291 506.128 144.904ZM515.27 140.808H516.55V149H515.27V140.808ZM516.662 137.8V139.32H515.158V137.8H516.662ZM525.596 147.64C525.287 148.136 524.873 148.52 524.356 148.792C523.844 149.059 523.26 149.192 522.604 149.192C521.841 149.192 521.161 149.013 520.564 148.656C519.972 148.293 519.508 147.787 519.172 147.136C518.841 146.485 518.676 145.741 518.676 144.904C518.676 144.067 518.841 143.323 519.172 142.672C519.508 142.021 519.972 141.517 520.564 141.16C521.161 140.797 521.841 140.616 522.604 140.616C523.26 140.616 523.844 140.752 524.356 141.024C524.873 141.291 525.287 141.672 525.596 142.168V137.8H526.876V149H525.596V147.64ZM520.02 144.904C520.02 145.517 520.137 146.061 520.372 146.536C520.607 147.005 520.935 147.373 521.356 147.64C521.777 147.901 522.26 148.032 522.804 148.032C523.305 148.032 523.756 147.923 524.156 147.704C524.561 147.48 524.887 147.168 525.132 146.768C525.383 146.363 525.537 145.893 525.596 145.36V144.448C525.537 143.915 525.383 143.448 525.132 143.048C524.887 142.643 524.561 142.331 524.156 142.112C523.756 141.888 523.305 141.776 522.804 141.776C522.26 141.776 521.777 141.909 521.356 142.176C520.935 142.437 520.607 142.805 520.372 143.28C520.137 143.749 520.02 144.291 520.02 144.904Z" fill="#19191C"/>
<rect x="356" y="24" width="100" height="48" rx="2" fill="#4DBB5F" fill-opacity="0.2"/>
<path d="M376.8 53.192C376.027 53.192 375.328 53.0053 374.704 52.632C374.08 52.2587 373.589 51.7467 373.232 51.096C372.88 50.44 372.704 49.7093 372.704 48.904C372.704 48.0987 372.88 47.3707 373.232 46.72C373.589 46.064 374.08 45.5493 374.704 45.176C375.328 44.8027 376.027 44.616 376.8 44.616C377.792 44.616 378.624 44.8693 379.296 45.376C379.968 45.8773 380.397 46.6053 380.584 47.56H379.304C379.133 46.9733 378.819 46.5307 378.36 46.232C377.907 45.928 377.387 45.776 376.8 45.776C376.272 45.776 375.797 45.9093 375.376 46.176C374.96 46.4427 374.635 46.8133 374.4 47.288C374.165 47.7627 374.048 48.3013 374.048 48.904C374.048 49.5013 374.165 50.0373 374.4 50.512C374.635 50.9867 374.96 51.36 375.376 51.632C375.797 51.8987 376.272 52.032 376.8 52.032C377.387 52.032 377.907 51.8827 378.36 51.584C378.819 51.28 379.133 50.8347 379.304 50.248H380.584C380.461 50.8667 380.221 51.3973 379.864 51.84C379.507 52.2827 379.064 52.6187 378.536 52.848C378.008 53.0773 377.429 53.192 376.8 53.192ZM386.17 53.192C385.391 53.192 384.682 53.008 384.042 52.64C383.407 52.2667 382.906 51.7547 382.538 51.104C382.175 50.448 381.994 49.7147 381.994 48.904C381.994 48.0933 382.175 47.3627 382.538 46.712C382.906 46.056 383.41 45.544 384.05 45.176C384.69 44.8027 385.399 44.616 386.178 44.616C386.956 44.616 387.663 44.8027 388.298 45.176C388.932 45.544 389.431 46.0533 389.794 46.704C390.162 47.3547 390.346 48.088 390.346 48.904C390.346 49.72 390.162 50.4533 389.794 51.104C389.431 51.7547 388.932 52.2667 388.298 52.64C387.663 53.008 386.954 53.192 386.17 53.192ZM383.338 48.904C383.338 49.5173 383.46 50.0613 383.706 50.536C383.956 51.0053 384.298 51.3707 384.73 51.632C385.167 51.8933 385.652 52.024 386.186 52.024C386.719 52.024 387.199 51.8933 387.626 51.632C388.052 51.3707 388.388 51.0053 388.634 50.536C388.879 50.0613 389.002 49.5173 389.002 48.904C389.002 48.2907 388.879 47.7467 388.634 47.272C388.388 46.7973 388.05 46.4293 387.618 46.168C387.191 45.9067 386.711 45.776 386.178 45.776C385.644 45.776 385.162 45.9067 384.73 46.168C384.298 46.4293 383.956 46.7973 383.706 47.272C383.46 47.7467 383.338 48.2907 383.338 48.904ZM392.479 44.808H393.711V46.192C393.957 45.6853 394.295 45.296 394.727 45.024C395.165 44.752 395.677 44.616 396.263 44.616C396.877 44.616 397.41 44.7627 397.863 45.056C398.317 45.3493 398.655 45.7627 398.879 46.296C399.141 45.7627 399.506 45.3493 399.975 45.056C400.445 44.7627 400.986 44.616 401.599 44.616C402.181 44.616 402.695 44.7493 403.143 45.016C403.597 45.2773 403.949 45.6507 404.199 46.136C404.45 46.6213 404.575 47.1867 404.575 47.832V53H403.295V47.888C403.295 47.2107 403.125 46.6773 402.783 46.288C402.447 45.8987 401.973 45.704 401.359 45.704C400.922 45.704 400.538 45.8053 400.207 46.008C399.877 46.2053 399.621 46.488 399.439 46.856C399.258 47.2187 399.167 47.648 399.167 48.144V53H397.887V47.888C397.887 47.2107 397.717 46.6773 397.375 46.288C397.039 45.8987 396.565 45.704 395.951 45.704C395.509 45.704 395.122 45.8027 394.791 46C394.461 46.1973 394.205 46.48 394.023 46.848C393.847 47.216 393.759 47.648 393.759 48.144V53H392.479V44.808ZM407.159 44.808H408.391V46.192C408.637 45.6853 408.975 45.296 409.407 45.024C409.845 44.752 410.357 44.616 410.943 44.616C411.557 44.616 412.09 44.7627 412.543 45.056C412.997 45.3493 413.335 45.7627 413.559 46.296C413.821 45.7627 414.186 45.3493 414.655 45.056C415.125 44.7627 415.666 44.616 416.279 44.616C416.861 44.616 417.375 44.7493 417.823 45.016C418.277 45.2773 418.629 45.6507 418.879 46.136C419.13 46.6213 419.255 47.1867 419.255 47.832V53H417.975V47.888C417.975 47.2107 417.805 46.6773 417.463 46.288C417.127 45.8987 416.653 45.704 416.039 45.704C415.602 45.704 415.218 45.8053 414.887 46.008C414.557 46.2053 414.301 46.488 414.119 46.856C413.938 47.2187 413.847 47.648 413.847 48.144V53H412.567V47.888C412.567 47.2107 412.397 46.6773 412.055 46.288C411.719 45.8987 411.245 45.704 410.631 45.704C410.189 45.704 409.802 45.8027 409.471 46C409.141 46.1973 408.885 46.48 408.703 46.848C408.527 47.216 408.439 47.648 408.439 48.144V53H407.159V44.808ZM425.32 53.192C424.541 53.192 423.832 53.008 423.192 52.64C422.557 52.2667 422.056 51.7547 421.688 51.104C421.325 50.448 421.144 49.7147 421.144 48.904C421.144 48.0933 421.325 47.3627 421.688 46.712C422.056 46.056 422.56 45.544 423.2 45.176C423.84 44.8027 424.549 44.616 425.328 44.616C426.106 44.616 426.813 44.8027 427.448 45.176C428.082 45.544 428.581 46.0533 428.944 46.704C429.312 47.3547 429.496 48.088 429.496 48.904C429.496 49.72 429.312 50.4533 428.944 51.104C428.581 51.7547 428.082 52.2667 427.448 52.64C426.813 53.008 426.104 53.192 425.32 53.192ZM422.488 48.904C422.488 49.5173 422.61 50.0613 422.856 50.536C423.106 51.0053 423.448 51.3707 423.88 51.632C424.317 51.8933 424.802 52.024 425.336 52.024C425.869 52.024 426.349 51.8933 426.776 51.632C427.202 51.3707 427.538 51.0053 427.784 50.536C428.029 50.0613 428.152 49.5173 428.152 48.904C428.152 48.2907 428.029 47.7467 427.784 47.272C427.538 46.7973 427.2 46.4293 426.768 46.168C426.341 45.9067 425.861 45.776 425.328 45.776C424.794 45.776 424.312 45.9067 423.88 46.168C423.448 46.4293 423.106 46.7973 422.856 47.272C422.61 47.7467 422.488 48.2907 422.488 48.904ZM431.629 44.808H432.861V46.136C433.139 45.6453 433.507 45.2693 433.965 45.008C434.429 44.7467 434.965 44.616 435.573 44.616C436.16 44.616 436.68 44.7413 437.133 44.992C437.587 45.2427 437.941 45.6133 438.197 46.104C438.459 46.5893 438.589 47.1733 438.589 47.856V53H437.309V47.984C437.309 47.2747 437.125 46.7227 436.757 46.328C436.389 45.9333 435.883 45.736 435.237 45.736C434.779 45.736 434.373 45.8373 434.021 46.04C433.669 46.2427 433.395 46.528 433.197 46.896C433.005 47.2587 432.909 47.6747 432.909 48.144V53H431.629V44.808Z" fill="#19191C"/>
<rect x="391" y="312" width="65" height="48" rx="2" fill="#E8E8E8"/>
<path d="M411.032 341C410.643 341 410.288 340.917 409.968 340.752C409.653 340.581 409.405 340.349 409.224 340.056C409.043 339.757 408.952 339.427 408.952 339.064L408.944 333.944H407.504L407.512 332.808H408.4C408.603 332.808 408.765 332.744 408.888 332.616C409.016 332.488 409.08 332.325 409.08 332.128V330.808H410.232V332.808H412.208L412.2 333.944H410.224L410.232 338.984C410.232 339.235 410.315 339.445 410.48 339.616C410.651 339.781 410.861 339.864 411.112 339.864H412.2V341H411.032ZM413.391 332.808H414.783L417.279 339.288L419.695 332.808H421.055L417.831 341H416.631L413.391 332.808ZM426.131 341.192C425.352 341.192 424.643 341.008 424.003 340.64C423.368 340.267 422.867 339.755 422.499 339.104C422.136 338.448 421.955 337.715 421.955 336.904C421.955 336.093 422.136 335.363 422.499 334.712C422.867 334.056 423.371 333.544 424.011 333.176C424.651 332.803 425.36 332.616 426.139 332.616C426.918 332.616 427.624 332.803 428.259 333.176C428.894 333.544 429.392 334.053 429.755 334.704C430.123 335.355 430.307 336.088 430.307 336.904C430.307 337.72 430.123 338.453 429.755 339.104C429.392 339.755 428.894 340.267 428.259 340.64C427.624 341.008 426.915 341.192 426.131 341.192ZM423.299 336.904C423.299 337.517 423.422 338.061 423.667 338.536C423.918 339.005 424.259 339.371 424.691 339.632C425.128 339.893 425.614 340.024 426.147 340.024C426.68 340.024 427.16 339.893 427.587 339.632C428.014 339.371 428.35 339.005 428.595 338.536C428.84 338.061 428.963 337.517 428.963 336.904C428.963 336.291 428.84 335.747 428.595 335.272C428.35 334.797 428.011 334.429 427.579 334.168C427.152 333.907 426.672 333.776 426.139 333.776C425.606 333.776 425.123 333.907 424.691 334.168C424.259 334.429 423.918 334.797 423.667 335.272C423.422 335.747 423.299 336.291 423.299 336.904ZM435.145 341.192C434.526 341.192 433.966 341.093 433.465 340.896C432.969 340.699 432.571 340.424 432.273 340.072C431.979 339.715 431.822 339.312 431.801 338.864H433.105C433.126 339.109 433.227 339.331 433.409 339.528C433.59 339.72 433.83 339.872 434.129 339.984C434.427 340.096 434.761 340.152 435.129 340.152C435.502 340.152 435.83 340.091 436.113 339.968C436.401 339.845 436.622 339.675 436.777 339.456C436.937 339.237 437.017 338.989 437.017 338.712C437.017 338.413 436.931 338.163 436.761 337.96C436.595 337.752 436.363 337.621 436.065 337.568L434.089 337.208C433.459 337.091 432.969 336.837 432.617 336.448C432.265 336.053 432.089 335.555 432.089 334.952C432.089 334.52 432.211 334.128 432.457 333.776C432.707 333.419 433.057 333.136 433.505 332.928C433.953 332.72 434.465 332.616 435.041 332.616C435.611 332.616 436.126 332.709 436.585 332.896C437.043 333.083 437.409 333.341 437.681 333.672C437.953 334.003 438.099 334.371 438.121 334.776H436.817C436.801 334.563 436.713 334.371 436.553 334.2C436.398 334.029 436.19 333.896 435.929 333.8C435.667 333.704 435.374 333.656 435.049 333.656C434.718 333.656 434.425 333.712 434.169 333.824C433.913 333.936 433.713 334.091 433.569 334.288C433.43 334.48 433.361 334.699 433.361 334.944C433.361 335.221 433.438 335.451 433.593 335.632C433.747 335.813 433.974 335.931 434.273 335.984L436.297 336.344C436.713 336.419 437.07 336.565 437.369 336.784C437.673 337.003 437.902 337.275 438.057 337.6C438.217 337.925 438.297 338.28 438.297 338.664C438.297 339.144 438.158 339.576 437.881 339.96C437.609 340.344 437.233 340.645 436.753 340.864C436.273 341.083 435.737 341.192 435.145 341.192Z" fill="#19191C"/>
<rect x="304" y="408" width="178" height="48" rx="2" fill="#4DBB5F" fill-opacity="0.2"/>
<path d="M321.4 428.808H322.68V437H321.4V428.808ZM322.792 425.8V427.32H321.288V425.8H322.792ZM328.982 437.192C328.203 437.192 327.494 437.008 326.854 436.64C326.219 436.267 325.718 435.755 325.35 435.104C324.987 434.448 324.806 433.715 324.806 432.904C324.806 432.093 324.987 431.363 325.35 430.712C325.718 430.056 326.222 429.544 326.862 429.176C327.502 428.803 328.211 428.616 328.99 428.616C329.769 428.616 330.475 428.803 331.11 429.176C331.745 429.544 332.243 430.053 332.606 430.704C332.974 431.355 333.158 432.088 333.158 432.904C333.158 433.72 332.974 434.453 332.606 435.104C332.243 435.755 331.745 436.267 331.11 436.64C330.475 437.008 329.766 437.192 328.982 437.192ZM326.15 432.904C326.15 433.517 326.273 434.061 326.518 434.536C326.769 435.005 327.11 435.371 327.542 435.632C327.979 435.893 328.465 436.024 328.998 436.024C329.531 436.024 330.011 435.893 330.438 435.632C330.865 435.371 331.201 435.005 331.446 434.536C331.691 434.061 331.814 433.517 331.814 432.904C331.814 432.291 331.691 431.747 331.446 431.272C331.201 430.797 330.862 430.429 330.43 430.168C330.003 429.907 329.523 429.776 328.99 429.776C328.457 429.776 327.974 429.907 327.542 430.168C327.11 430.429 326.769 430.797 326.518 431.272C326.273 431.747 326.15 432.291 326.15 432.904ZM337.996 437.192C337.377 437.192 336.817 437.093 336.316 436.896C335.82 436.699 335.422 436.424 335.124 436.072C334.83 435.715 334.673 435.312 334.652 434.864H335.956C335.977 435.109 336.078 435.331 336.26 435.528C336.441 435.72 336.681 435.872 336.98 435.984C337.278 436.096 337.612 436.152 337.98 436.152C338.353 436.152 338.681 436.091 338.964 435.968C339.252 435.845 339.473 435.675 339.628 435.456C339.788 435.237 339.868 434.989 339.868 434.712C339.868 434.413 339.782 434.163 339.612 433.96C339.446 433.752 339.214 433.621 338.916 433.568L336.94 433.208C336.31 433.091 335.82 432.837 335.468 432.448C335.116 432.053 334.94 431.555 334.94 430.952C334.94 430.52 335.062 430.128 335.308 429.776C335.558 429.419 335.908 429.136 336.356 428.928C336.804 428.72 337.316 428.616 337.892 428.616C338.462 428.616 338.977 428.709 339.436 428.896C339.894 429.083 340.26 429.341 340.532 429.672C340.804 430.003 340.95 430.371 340.972 430.776H339.668C339.652 430.563 339.564 430.371 339.404 430.2C339.249 430.029 339.041 429.896 338.78 429.8C338.518 429.704 338.225 429.656 337.9 429.656C337.569 429.656 337.276 429.712 337.02 429.824C336.764 429.936 336.564 430.091 336.42 430.288C336.281 430.48 336.212 430.699 336.212 430.944C336.212 431.221 336.289 431.451 336.444 431.632C336.598 431.813 336.825 431.931 337.124 431.984L339.148 432.344C339.564 432.419 339.921 432.565 340.22 432.784C340.524 433.003 340.753 433.275 340.908 433.6C341.068 433.925 341.148 434.28 341.148 434.664C341.148 435.144 341.009 435.576 340.732 435.96C340.46 436.344 340.084 436.645 339.604 436.864C339.124 437.083 338.588 437.192 337.996 437.192ZM346.715 437.192C345.947 437.192 345.267 437.051 344.675 436.768C344.089 436.485 343.63 436.091 343.299 435.584C342.974 435.077 342.811 434.496 342.811 433.84H344.171C344.171 434.261 344.278 434.635 344.491 434.96C344.705 435.285 345.006 435.539 345.395 435.72C345.785 435.901 346.23 435.992 346.731 435.992C347.227 435.992 347.662 435.909 348.035 435.744C348.414 435.573 348.705 435.336 348.907 435.032C349.115 434.723 349.219 434.368 349.219 433.968C349.219 433.461 349.067 433.027 348.763 432.664C348.465 432.301 348.065 432.077 347.563 431.992L345.755 431.68C345.211 431.584 344.739 431.395 344.339 431.112C343.939 430.829 343.633 430.477 343.419 430.056C343.206 429.635 343.099 429.176 343.099 428.68C343.099 428.099 343.251 427.576 343.555 427.112C343.865 426.643 344.291 426.275 344.835 426.008C345.385 425.741 346.001 425.608 346.683 425.608C347.387 425.608 348.014 425.741 348.563 426.008C349.113 426.269 349.539 426.635 349.843 427.104C350.147 427.573 350.299 428.109 350.299 428.712H348.939C348.939 428.344 348.846 428.016 348.659 427.728C348.473 427.435 348.209 427.208 347.867 427.048C347.531 426.888 347.142 426.808 346.699 426.808C346.257 426.808 345.865 426.885 345.523 427.04C345.182 427.195 344.915 427.413 344.723 427.696C344.537 427.979 344.443 428.307 344.443 428.68C344.443 429.123 344.585 429.504 344.867 429.824C345.155 430.144 345.531 430.344 345.995 430.424L347.835 430.744C348.369 430.84 348.843 431.045 349.259 431.36C349.675 431.675 349.998 432.061 350.227 432.52C350.457 432.973 350.571 433.451 350.571 433.952C350.571 434.555 350.409 435.104 350.083 435.6C349.758 436.091 349.302 436.48 348.715 436.768C348.129 437.051 347.462 437.192 346.715 437.192ZM352.965 428.808H354.245V437H352.965V428.808ZM354.357 425.8V427.32H352.853V425.8H354.357ZM357.067 428.808H358.299V430.192C358.544 429.685 358.883 429.296 359.315 429.024C359.752 428.752 360.264 428.616 360.851 428.616C361.464 428.616 361.998 428.763 362.451 429.056C362.904 429.349 363.243 429.763 363.467 430.296C363.728 429.763 364.094 429.349 364.563 429.056C365.032 428.763 365.574 428.616 366.187 428.616C366.768 428.616 367.283 428.749 367.731 429.016C368.184 429.277 368.536 429.651 368.787 430.136C369.038 430.621 369.163 431.187 369.163 431.832V437H367.883V431.888C367.883 431.211 367.712 430.677 367.371 430.288C367.035 429.899 366.56 429.704 365.947 429.704C365.51 429.704 365.126 429.805 364.795 430.008C364.464 430.205 364.208 430.488 364.027 430.856C363.846 431.219 363.755 431.648 363.755 432.144V437H362.475V431.888C362.475 431.211 362.304 430.677 361.963 430.288C361.627 429.899 361.152 429.704 360.539 429.704C360.096 429.704 359.71 429.803 359.379 430C359.048 430.197 358.792 430.48 358.611 430.848C358.435 431.216 358.347 431.648 358.347 432.144V437H357.067V428.808ZM378.467 437H377.235V435.672C376.958 436.163 376.587 436.539 376.123 436.8C375.664 437.061 375.131 437.192 374.523 437.192C373.936 437.192 373.416 437.067 372.963 436.816C372.51 436.565 372.152 436.197 371.891 435.712C371.635 435.221 371.507 434.635 371.507 433.952V428.808H372.787V433.824C372.787 434.533 372.971 435.085 373.339 435.48C373.707 435.875 374.214 436.072 374.859 436.072C375.318 436.072 375.723 435.971 376.075 435.768C376.427 435.565 376.699 435.283 376.891 434.92C377.088 434.552 377.187 434.133 377.187 433.664V428.808H378.467V437ZM381.287 425.8H382.567V437H381.287V425.8ZM388.277 428.616C388.896 428.616 389.44 428.731 389.909 428.96C390.378 429.184 390.741 429.515 390.997 429.952C391.258 430.384 391.389 430.899 391.389 431.496V437H390.141V435.664C389.912 436.16 389.576 436.539 389.133 436.8C388.69 437.061 388.165 437.192 387.557 437.192C387.034 437.192 386.562 437.091 386.141 436.888C385.72 436.685 385.389 436.405 385.149 436.048C384.909 435.691 384.789 435.285 384.789 434.832C384.789 434.405 384.898 434.013 385.117 433.656C385.341 433.293 385.648 432.997 386.037 432.768C386.432 432.539 386.874 432.397 387.365 432.344L389.549 432.104C389.73 432.083 389.872 432.008 389.973 431.88C390.074 431.752 390.125 431.565 390.125 431.32C390.125 430.995 390.048 430.709 389.893 430.464C389.738 430.219 389.52 430.029 389.237 429.896C388.96 429.757 388.637 429.688 388.269 429.688C387.901 429.688 387.57 429.752 387.277 429.88C386.984 430.003 386.746 430.171 386.565 430.384C386.389 430.592 386.282 430.819 386.245 431.064H384.965C385.029 430.6 385.21 430.184 385.509 429.816C385.813 429.443 386.205 429.149 386.685 428.936C387.165 428.723 387.696 428.616 388.277 428.616ZM386.117 434.76C386.117 435.037 386.189 435.283 386.333 435.496C386.482 435.709 386.688 435.877 386.949 436C387.21 436.117 387.509 436.176 387.845 436.176C388.304 436.176 388.704 436.083 389.045 435.896C389.392 435.709 389.658 435.448 389.845 435.112C390.032 434.771 390.125 434.379 390.125 433.936V433L387.541 433.288C387.114 433.336 386.77 433.496 386.509 433.768C386.248 434.04 386.117 434.371 386.117 434.76ZM396.607 437C396.218 437 395.863 436.917 395.543 436.752C395.229 436.581 394.981 436.349 394.799 436.056C394.618 435.757 394.527 435.427 394.527 435.064L394.519 429.944H393.079L393.087 428.808H393.975C394.178 428.808 394.341 428.744 394.463 428.616C394.591 428.488 394.655 428.325 394.655 428.128V426.808H395.807V428.808H397.783L397.775 429.944H395.799L395.807 434.984C395.807 435.235 395.89 435.445 396.055 435.616C396.226 435.781 396.437 435.864 396.687 435.864H397.775V437H396.607ZM403.511 437.192C402.732 437.192 402.023 437.008 401.383 436.64C400.748 436.267 400.247 435.755 399.879 435.104C399.516 434.448 399.335 433.715 399.335 432.904C399.335 432.093 399.516 431.363 399.879 430.712C400.247 430.056 400.751 429.544 401.391 429.176C402.031 428.803 402.74 428.616 403.519 428.616C404.297 428.616 405.004 428.803 405.639 429.176C406.273 429.544 406.772 430.053 407.135 430.704C407.503 431.355 407.687 432.088 407.687 432.904C407.687 433.72 407.503 434.453 407.135 435.104C406.772 435.755 406.273 436.267 405.639 436.64C405.004 437.008 404.295 437.192 403.511 437.192ZM400.679 432.904C400.679 433.517 400.801 434.061 401.047 434.536C401.297 435.005 401.639 435.371 402.071 435.632C402.508 435.893 402.993 436.024 403.527 436.024C404.06 436.024 404.54 435.893 404.967 435.632C405.393 435.371 405.729 435.005 405.975 434.536C406.22 434.061 406.343 433.517 406.343 432.904C406.343 432.291 406.22 431.747 405.975 431.272C405.729 430.797 405.391 430.429 404.959 430.168C404.532 429.907 404.052 429.776 403.519 429.776C402.985 429.776 402.503 429.907 402.071 430.168C401.639 430.429 401.297 430.797 401.047 431.272C400.801 431.747 400.679 432.291 400.679 432.904ZM409.82 428.808H411.1V430.168C411.362 429.704 411.7 429.349 412.116 429.104C412.532 428.853 413.01 428.728 413.548 428.728H413.836V430.064H413.5C413.015 430.064 412.591 430.157 412.228 430.344C411.866 430.531 411.586 430.797 411.388 431.144C411.196 431.485 411.1 431.888 411.1 432.352V437H409.82V428.808ZM418.659 425.8H420.091L424.395 437H422.987L421.907 434.024H416.955L415.947 437H414.507L418.659 425.8ZM421.475 432.872L419.563 427.664L419.371 426.984L419.179 427.664L417.363 432.872H421.475ZM426.165 428.808H427.445V430.168C427.706 429.704 428.045 429.349 428.461 429.104C428.877 428.853 429.354 428.728 429.893 428.728H430.181V430.064H429.845C429.36 430.064 428.936 430.157 428.573 430.344C428.21 430.531 427.93 430.797 427.733 431.144C427.541 431.485 427.445 431.888 427.445 432.352V437H426.165V428.808ZM431.908 428.808H433.14V430.192C433.385 429.685 433.724 429.296 434.156 429.024C434.593 428.752 435.105 428.616 435.692 428.616C436.305 428.616 436.839 428.763 437.292 429.056C437.745 429.349 438.084 429.763 438.308 430.296C438.569 429.763 438.935 429.349 439.404 429.056C439.873 428.763 440.415 428.616 441.028 428.616C441.609 428.616 442.124 428.749 442.572 429.016C443.025 429.277 443.377 429.651 443.628 430.136C443.879 430.621 444.004 431.187 444.004 431.832V437H442.724V431.888C442.724 431.211 442.553 430.677 442.212 430.288C441.876 429.899 441.401 429.704 440.788 429.704C440.351 429.704 439.967 429.805 439.636 430.008C439.305 430.205 439.049 430.488 438.868 430.856C438.687 431.219 438.596 431.648 438.596 432.144V437H437.316V431.888C437.316 431.211 437.145 430.677 436.804 430.288C436.468 429.899 435.993 429.704 435.38 429.704C434.937 429.704 434.551 429.803 434.22 430C433.889 430.197 433.633 430.48 433.452 430.848C433.276 431.216 433.188 431.648 433.188 432.144V437H431.908V428.808ZM450.22 437.192C449.569 437.192 448.988 437.056 448.476 436.784C447.969 436.512 447.545 436.12 447.204 435.608C446.553 434.648 446.228 433.317 446.228 431.616V431.264C446.228 430.16 446.396 429.179 446.732 428.32C447.068 427.461 447.537 426.795 448.14 426.32C448.748 425.845 449.441 425.608 450.22 425.608C451.063 425.608 451.796 425.8 452.42 426.184C453.044 426.563 453.487 427.16 453.748 427.976H452.356C452.191 427.603 451.929 427.309 451.572 427.096C451.215 426.883 450.791 426.776 450.3 426.776C449.751 426.776 449.263 426.96 448.836 427.328C448.415 427.696 448.087 428.211 447.852 428.872C447.623 429.533 447.508 430.291 447.508 431.144V431.224C447.657 430.909 447.873 430.627 448.156 430.376C448.444 430.125 448.777 429.931 449.156 429.792C449.54 429.648 449.943 429.576 450.364 429.576C451.105 429.576 451.756 429.736 452.316 430.056C452.876 430.376 453.308 430.821 453.612 431.392C453.916 431.957 454.068 432.597 454.068 433.312C454.068 434.08 453.911 434.757 453.596 435.344C453.281 435.931 452.833 436.387 452.252 436.712C451.676 437.032 450.999 437.192 450.22 437.192ZM447.74 433.344C447.74 433.845 447.849 434.301 448.068 434.712C448.287 435.117 448.585 435.437 448.964 435.672C449.343 435.907 449.767 436.024 450.236 436.024C450.711 436.024 451.14 435.907 451.524 435.672C451.908 435.437 452.209 435.117 452.428 434.712C452.647 434.301 452.756 433.845 452.756 433.344C452.756 432.843 452.647 432.389 452.428 431.984C452.209 431.573 451.908 431.251 451.524 431.016C451.14 430.781 450.711 430.664 450.236 430.664C449.767 430.664 449.343 430.781 448.964 431.016C448.585 431.251 448.287 431.573 448.068 431.984C447.849 432.389 447.74 432.843 447.74 433.344ZM461.454 434.24H455.654V432.976L461.446 425.8H462.766V433.024H464.574V434.24H462.766V437H461.454V434.24ZM461.454 433.024V427.504L457.014 433.024H461.454Z" fill="#19191C"/>
<rect x="158" y="408" width="105" height="48" rx="2" fill="#4DBB5F" fill-opacity="0.2"/>
<path d="M175.4 428.808H176.68V437H175.4V428.808ZM176.792 425.8V427.32H175.288V425.8H176.792ZM182.982 437.192C182.203 437.192 181.494 437.008 180.854 436.64C180.219 436.267 179.718 435.755 179.35 435.104C178.987 434.448 178.806 433.715 178.806 432.904C178.806 432.093 178.987 431.363 179.35 430.712C179.718 430.056 180.222 429.544 180.862 429.176C181.502 428.803 182.211 428.616 182.99 428.616C183.769 428.616 184.475 428.803 185.11 429.176C185.745 429.544 186.243 430.053 186.606 430.704C186.974 431.355 187.158 432.088 187.158 432.904C187.158 433.72 186.974 434.453 186.606 435.104C186.243 435.755 185.745 436.267 185.11 436.64C184.475 437.008 183.766 437.192 182.982 437.192ZM180.15 432.904C180.15 433.517 180.273 434.061 180.518 434.536C180.769 435.005 181.11 435.371 181.542 435.632C181.979 435.893 182.465 436.024 182.998 436.024C183.531 436.024 184.011 435.893 184.438 435.632C184.865 435.371 185.201 435.005 185.446 434.536C185.691 434.061 185.814 433.517 185.814 432.904C185.814 432.291 185.691 431.747 185.446 431.272C185.201 430.797 184.862 430.429 184.43 430.168C184.003 429.907 183.523 429.776 182.99 429.776C182.457 429.776 181.974 429.907 181.542 430.168C181.11 430.429 180.769 430.797 180.518 431.272C180.273 431.747 180.15 432.291 180.15 432.904ZM191.996 437.192C191.377 437.192 190.817 437.093 190.316 436.896C189.82 436.699 189.422 436.424 189.124 436.072C188.83 435.715 188.673 435.312 188.652 434.864H189.956C189.977 435.109 190.078 435.331 190.26 435.528C190.441 435.72 190.681 435.872 190.98 435.984C191.278 436.096 191.612 436.152 191.98 436.152C192.353 436.152 192.681 436.091 192.964 435.968C193.252 435.845 193.473 435.675 193.628 435.456C193.788 435.237 193.868 434.989 193.868 434.712C193.868 434.413 193.782 434.163 193.612 433.96C193.446 433.752 193.214 433.621 192.916 433.568L190.94 433.208C190.31 433.091 189.82 432.837 189.468 432.448C189.116 432.053 188.94 431.555 188.94 430.952C188.94 430.52 189.062 430.128 189.308 429.776C189.558 429.419 189.908 429.136 190.356 428.928C190.804 428.72 191.316 428.616 191.892 428.616C192.462 428.616 192.977 428.709 193.436 428.896C193.894 429.083 194.26 429.341 194.532 429.672C194.804 430.003 194.95 430.371 194.972 430.776H193.668C193.652 430.563 193.564 430.371 193.404 430.2C193.249 430.029 193.041 429.896 192.78 429.8C192.518 429.704 192.225 429.656 191.9 429.656C191.569 429.656 191.276 429.712 191.02 429.824C190.764 429.936 190.564 430.091 190.42 430.288C190.281 430.48 190.212 430.699 190.212 430.944C190.212 431.221 190.289 431.451 190.444 431.632C190.598 431.813 190.825 431.931 191.124 431.984L193.148 432.344C193.564 432.419 193.921 432.565 194.22 432.784C194.524 433.003 194.753 433.275 194.908 433.6C195.068 433.925 195.148 434.28 195.148 434.664C195.148 435.144 195.009 435.576 194.732 435.96C194.46 436.344 194.084 436.645 193.604 436.864C193.124 437.083 192.588 437.192 191.996 437.192ZM200.427 425.8H201.859L206.163 437H204.755L203.675 434.024H198.723L197.715 437H196.275L200.427 425.8ZM203.243 432.872L201.331 427.664L201.139 426.984L200.947 427.664L199.131 432.872H203.243ZM207.934 428.808H209.214V430.168C209.475 429.704 209.814 429.349 210.23 429.104C210.646 428.853 211.123 428.728 211.662 428.728H211.95V430.064H211.614C211.128 430.064 210.704 430.157 210.342 430.344C209.979 430.531 209.699 430.797 209.502 431.144C209.31 431.485 209.214 431.888 209.214 432.352V437H207.934V428.808ZM213.676 428.808H214.908V430.192C215.154 429.685 215.492 429.296 215.924 429.024C216.362 428.752 216.874 428.616 217.46 428.616C218.074 428.616 218.607 428.763 219.06 429.056C219.514 429.349 219.852 429.763 220.076 430.296C220.338 429.763 220.703 429.349 221.172 429.056C221.642 428.763 222.183 428.616 222.796 428.616C223.378 428.616 223.892 428.749 224.34 429.016C224.794 429.277 225.146 429.651 225.396 430.136C225.647 430.621 225.772 431.187 225.772 431.832V437H224.492V431.888C224.492 431.211 224.322 430.677 223.98 430.288C223.644 429.899 223.17 429.704 222.556 429.704C222.119 429.704 221.735 429.805 221.404 430.008C221.074 430.205 220.818 430.488 220.636 430.856C220.455 431.219 220.364 431.648 220.364 432.144V437H219.084V431.888C219.084 431.211 218.914 430.677 218.572 430.288C218.236 429.899 217.762 429.704 217.148 429.704C216.706 429.704 216.319 429.803 215.988 430C215.658 430.197 215.402 430.48 215.22 430.848C215.044 431.216 214.956 431.648 214.956 432.144V437H213.676V428.808ZM231.989 437.192C231.338 437.192 230.757 437.056 230.245 436.784C229.738 436.512 229.314 436.12 228.973 435.608C228.322 434.648 227.997 433.317 227.997 431.616V431.264C227.997 430.16 228.165 429.179 228.501 428.32C228.837 427.461 229.306 426.795 229.909 426.32C230.517 425.845 231.21 425.608 231.989 425.608C232.831 425.608 233.565 425.8 234.189 426.184C234.813 426.563 235.255 427.16 235.517 427.976H234.125C233.959 427.603 233.698 427.309 233.341 427.096C232.983 426.883 232.559 426.776 232.069 426.776C231.519 426.776 231.031 426.96 230.605 427.328C230.183 427.696 229.855 428.211 229.621 428.872C229.391 429.533 229.277 430.291 229.277 431.144V431.224C229.426 430.909 229.642 430.627 229.925 430.376C230.213 430.125 230.546 429.931 230.925 429.792C231.309 429.648 231.711 429.576 232.133 429.576C232.874 429.576 233.525 429.736 234.085 430.056C234.645 430.376 235.077 430.821 235.381 431.392C235.685 431.957 235.837 432.597 235.837 433.312C235.837 434.08 235.679 434.757 235.365 435.344C235.05 435.931 234.602 436.387 234.021 436.712C233.445 437.032 232.767 437.192 231.989 437.192ZM229.509 433.344C229.509 433.845 229.618 434.301 229.837 434.712C230.055 435.117 230.354 435.437 230.733 435.672C231.111 435.907 231.535 436.024 232.005 436.024C232.479 436.024 232.909 435.907 233.293 435.672C233.677 435.437 233.978 435.117 234.197 434.712C234.415 434.301 234.525 433.845 234.525 433.344C234.525 432.843 234.415 432.389 234.197 431.984C233.978 431.573 233.677 431.251 233.293 431.016C232.909 430.781 232.479 430.664 232.005 430.664C231.535 430.664 231.111 430.781 230.733 431.016C230.354 431.251 230.055 431.573 229.837 431.984C229.618 432.389 229.509 432.843 229.509 433.344ZM243.222 434.24H237.422V432.976L243.214 425.8H244.534V433.024H246.342V434.24H244.534V437H243.222V434.24ZM243.222 433.024V427.504L238.782 433.024H243.222Z" fill="#19191C"/>
<rect x="494" y="312" width="97" height="48" rx="2" fill="#E8E8E8"/>
<path d="M510.384 332.808H511.76L513.688 338.696L513.872 339.392L514.04 338.696L516.064 332.808H517.288L519.352 338.696L519.536 339.392L519.704 338.696L521.584 332.808H522.928L520.12 341H518.856L516.832 334.84L516.68 334.272L516.544 334.824L514.44 341H513.192L510.384 332.808ZM527.468 332.616C528.087 332.616 528.631 332.731 529.1 332.96C529.57 333.184 529.932 333.515 530.188 333.952C530.45 334.384 530.58 334.899 530.58 335.496V341H529.332V339.664C529.103 340.16 528.767 340.539 528.324 340.8C527.882 341.061 527.356 341.192 526.748 341.192C526.226 341.192 525.754 341.091 525.332 340.888C524.911 340.685 524.58 340.405 524.34 340.048C524.1 339.691 523.98 339.285 523.98 338.832C523.98 338.405 524.09 338.013 524.308 337.656C524.532 337.293 524.839 336.997 525.228 336.768C525.623 336.539 526.066 336.397 526.556 336.344L528.74 336.104C528.922 336.083 529.063 336.008 529.164 335.88C529.266 335.752 529.316 335.565 529.316 335.32C529.316 334.995 529.239 334.709 529.084 334.464C528.93 334.219 528.711 334.029 528.428 333.896C528.151 333.757 527.828 333.688 527.46 333.688C527.092 333.688 526.762 333.752 526.468 333.88C526.175 334.003 525.938 334.171 525.756 334.384C525.58 334.592 525.474 334.819 525.436 335.064H524.156C524.22 334.6 524.402 334.184 524.7 333.816C525.004 333.443 525.396 333.149 525.876 332.936C526.356 332.723 526.887 332.616 527.468 332.616ZM525.308 338.76C525.308 339.037 525.38 339.283 525.524 339.496C525.674 339.709 525.879 339.877 526.14 340C526.402 340.117 526.7 340.176 527.036 340.176C527.495 340.176 527.895 340.083 528.236 339.896C528.583 339.709 528.85 339.448 529.036 339.112C529.223 338.771 529.316 338.379 529.316 337.936V337L526.732 337.288C526.306 337.336 525.962 337.496 525.7 337.768C525.439 338.04 525.308 338.371 525.308 338.76ZM535.799 341C535.409 341 535.055 340.917 534.735 340.752C534.42 340.581 534.172 340.349 533.991 340.056C533.809 339.757 533.719 339.427 533.719 339.064L533.711 333.944H532.271L532.279 332.808H533.167C533.369 332.808 533.532 332.744 533.655 332.616C533.783 332.488 533.847 332.325 533.847 332.128V330.808H534.999V332.808H536.975L536.967 333.944H534.991L534.999 338.984C534.999 339.235 535.081 339.445 535.247 339.616C535.417 339.781 535.628 339.864 535.879 339.864H536.967V341H535.799ZM542.622 341.192C541.849 341.192 541.15 341.005 540.526 340.632C539.902 340.259 539.411 339.747 539.054 339.096C538.702 338.44 538.526 337.709 538.526 336.904C538.526 336.099 538.702 335.371 539.054 334.72C539.411 334.064 539.902 333.549 540.526 333.176C541.15 332.803 541.849 332.616 542.622 332.616C543.614 332.616 544.446 332.869 545.118 333.376C545.79 333.877 546.219 334.605 546.406 335.56H545.126C544.955 334.973 544.641 334.531 544.182 334.232C543.729 333.928 543.209 333.776 542.622 333.776C542.094 333.776 541.619 333.909 541.198 334.176C540.782 334.443 540.457 334.813 540.222 335.288C539.987 335.763 539.87 336.301 539.87 336.904C539.87 337.501 539.987 338.037 540.222 338.512C540.457 338.987 540.782 339.36 541.198 339.632C541.619 339.899 542.094 340.032 542.622 340.032C543.209 340.032 543.729 339.883 544.182 339.584C544.641 339.28 544.955 338.835 545.126 338.248H546.406C546.283 338.867 546.043 339.397 545.686 339.84C545.329 340.283 544.886 340.619 544.358 340.848C543.83 341.077 543.251 341.192 542.622 341.192ZM548.512 329.8H549.744V334.136C550.021 333.645 550.389 333.269 550.848 333.008C551.312 332.747 551.848 332.616 552.456 332.616C553.042 332.616 553.562 332.741 554.016 332.992C554.469 333.243 554.824 333.613 555.08 334.104C555.341 334.589 555.472 335.173 555.472 335.856V341H554.192V335.984C554.192 335.275 554.008 334.723 553.64 334.328C553.272 333.933 552.765 333.736 552.12 333.736C551.661 333.736 551.256 333.837 550.904 334.04C550.552 334.243 550.277 334.528 550.08 334.896C549.888 335.259 549.792 335.675 549.792 336.144V341H548.512V329.8ZM561.531 341.192C560.753 341.192 560.043 341.008 559.403 340.64C558.769 340.267 558.267 339.755 557.899 339.104C557.537 338.448 557.355 337.715 557.355 336.904C557.355 336.093 557.537 335.363 557.899 334.712C558.267 334.056 558.771 333.544 559.411 333.176C560.051 332.803 560.761 332.616 561.539 332.616C562.318 332.616 563.025 332.803 563.659 333.176C564.294 333.544 564.793 334.053 565.155 334.704C565.523 335.355 565.707 336.088 565.707 336.904C565.707 337.72 565.523 338.453 565.155 339.104C564.793 339.755 564.294 340.267 563.659 340.64C563.025 341.008 562.315 341.192 561.531 341.192ZM558.699 336.904C558.699 337.517 558.822 338.061 559.067 338.536C559.318 339.005 559.659 339.371 560.091 339.632C560.529 339.893 561.014 340.024 561.547 340.024C562.081 340.024 562.561 339.893 562.987 339.632C563.414 339.371 563.75 339.005 563.995 338.536C564.241 338.061 564.363 337.517 564.363 336.904C564.363 336.291 564.241 335.747 563.995 335.272C563.75 334.797 563.411 334.429 562.979 334.168C562.553 333.907 562.073 333.776 561.539 333.776C561.006 333.776 560.523 333.907 560.091 334.168C559.659 334.429 559.318 334.797 559.067 335.272C558.822 335.747 558.699 336.291 558.699 336.904ZM570.545 341.192C569.926 341.192 569.366 341.093 568.865 340.896C568.369 340.699 567.972 340.424 567.673 340.072C567.38 339.715 567.222 339.312 567.201 338.864H568.505C568.526 339.109 568.628 339.331 568.809 339.528C568.99 339.72 569.23 339.872 569.529 339.984C569.828 340.096 570.161 340.152 570.529 340.152C570.902 340.152 571.23 340.091 571.513 339.968C571.801 339.845 572.022 339.675 572.177 339.456C572.337 339.237 572.417 338.989 572.417 338.712C572.417 338.413 572.332 338.163 572.161 337.96C571.996 337.752 571.764 337.621 571.465 337.568L569.489 337.208C568.86 337.091 568.369 336.837 568.017 336.448C567.665 336.053 567.489 335.555 567.489 334.952C567.489 334.52 567.612 334.128 567.857 333.776C568.108 333.419 568.457 333.136 568.905 332.928C569.353 332.72 569.865 332.616 570.441 332.616C571.012 332.616 571.526 332.709 571.985 332.896C572.444 333.083 572.809 333.341 573.081 333.672C573.353 334.003 573.5 334.371 573.521 334.776H572.217C572.201 334.563 572.113 334.371 571.953 334.2C571.798 334.029 571.59 333.896 571.329 333.8C571.068 333.704 570.774 333.656 570.449 333.656C570.118 333.656 569.825 333.712 569.569 333.824C569.313 333.936 569.113 334.091 568.969 334.288C568.83 334.48 568.761 334.699 568.761 334.944C568.761 335.221 568.838 335.451 568.993 335.632C569.148 335.813 569.374 335.931 569.673 335.984L571.697 336.344C572.113 336.419 572.47 336.565 572.769 336.784C573.073 337.003 573.302 337.275 573.457 337.6C573.617 337.925 573.697 338.28 573.697 338.664C573.697 339.144 573.558 339.576 573.281 339.96C573.009 340.344 572.633 340.645 572.153 340.864C571.673 341.083 571.137 341.192 570.545 341.192Z" fill="#19191C"/>
<path d="M312 264L306.226 274L317.774 274L312 264ZM313 311.968L313 273L311 273L311 311.968L313 311.968Z" fill="#A3A3A3"/>
<path d="M312 168L306.226 178L317.774 178L312 168ZM313 215.968L313 177L311 177L311 215.968L313 215.968Z" fill="#A3A3A3"/>
<path d="M205 360L199.226 370L210.774 370L205 360ZM206 407.968L206 369L204 369L204 407.968L206 407.968Z" fill="#A3A3A3"/>
<path d="M320 96L320 95L320 96ZM398 96L398 97L398 96ZM406 72L400.226 82L411.773 82L406 72ZM313 120L313 104L311 104L311 120L313 120ZM320 97L398 97L398 95L320 95L320 97ZM407 88L407 81L405 81L405 88L407 88ZM398 97C402.971 97 407 92.9706 407 88L405 88C405 91.866 401.866 95 398 95L398 97ZM313 104C313 100.134 316.134 97 320 97L320 95C315.029 95 311 99.0294 311 104L313 104Z" fill="#A3A3A3"/>
<path d="M213 288L213 287L213 288ZM304 288L304 289L304 288ZM312 264L306.226 274L317.773 274L312 264ZM206 312L206 296L204 296L204 312L206 312ZM213 289L304 289L304 287L213 287L213 289ZM313 280L313 273L311 273L311 280L313 280ZM304 289C308.971 289 313 284.971 313 280L311 280C311 283.866 307.866 287 304 287L304 289ZM206 296C206 292.134 209.134 289 213 289L213 287C208.029 287 204 291.029 204 296L206 296Z" fill="#A3A3A3"/>
<path d="M175 192L175 191L175 192ZM304 192L304 193L304 192ZM312 168L306.226 178L317.773 178L312 168ZM168 216L168 200L166 200L166 216L168 216ZM175 193L304 193L304 191L175 191L175 193ZM313 184L313 177L311 177L311 184L313 184ZM304 193C308.971 193 313 188.971 313 184L311 184C311 187.866 307.866 191 304 191L304 193ZM168 200C168 196.134 171.134 193 175 193L175 191C170.029 191 166 195.029 166 200L168 200Z" fill="#A3A3A3"/>
<path d="M421 288L421 287L421 288ZM320 288L320 289L320 288ZM312 264L317.774 274L306.227 274L312 264ZM428 312L428 296L430 296L430 312L428 312ZM421 289L320 289L320 287L421 287L421 289ZM311 280L311 273L313 273L313 280L311 280ZM320 289C315.029 289 311 284.971 311 280L313 280C313 283.866 316.134 287 320 287L320 289ZM428 296C428 292.134 424.866 289 421 289L421 287C425.971 287 430 291.029 430 296L428 296Z" fill="#A3A3A3"/>
<path d="M538 288L538 287L538 288ZM320 288L320 289L320 288ZM312 264L317.774 274L306.227 274L312 264ZM545 312L545 296L547 296L547 312L545 312ZM538 289L320 289L320 287L538 287L538 289ZM311 280L311 273L313 273L313 280L311 280ZM320 289C315.029 289 311 284.971 311 280L313 280C313 283.866 316.134 287 320 287L320 289ZM545 296C545 292.134 541.866 289 538 289L538 287C542.971 287 547 291.029 547 296L545 296Z" fill="#A3A3A3"/>
<path d="M385 384L385 383L385 384ZM213 384L213 385L213 384ZM205 360L210.774 370L199.227 370L205 360ZM392 408L392 392L394 392L394 408L392 408ZM385 385L213 385L213 383L385 383L385 385ZM204 376L204 369L206 369L206 376L204 376ZM213 385C208.029 385 204 380.971 204 376L206 376C206 379.866 209.134 383 213 383L213 385ZM392 392C392 388.134 388.866 385 385 385L385 383C389.971 383 394 387.029 394 392L392 392Z" fill="#A3A3A3"/>
<path d="M421 192L421 191L421 192ZM320 192L320 193L320 192ZM312 168L317.774 178L306.227 178L312 168ZM428 216L428 200L430 200L430 216L428 216ZM421 193L320 193L320 191L421 191L421 193ZM311 184L311 177L313 177L313 184L311 184ZM320 193C315.029 193 311 188.971 311 184L313 184C313 187.866 316.134 191 320 191L320 193ZM428 200C428 196.134 424.866 193 421 193L421 191C425.971 191 430 195.029 430 200L428 200Z" fill="#A3A3A3"/>
<path d="M538 192L538 191L538 192ZM320 192L320 193L320 192ZM312 168L317.774 178L306.227 178L312 168ZM545 216L545 200L547 200L547 216L545 216ZM538 193L320 193L320 191L538 191L538 193ZM311 184L311 177L313 177L313 184L311 184ZM320 193C315.029 193 311 188.971 311 184L313 184C313 187.866 316.134 191 320 191L320 193ZM545 200C545 196.134 541.866 193 538 193L538 191C542.971 191 547 195.029 547 200L545 200Z" fill="#A3A3A3"/>
<path d="M492 96L492 95L492 96ZM414 96L414 97L414 96ZM406 72L411.774 82L400.227 82L406 72ZM499 120L499 104L501 104L501 120L499 120ZM492 97L414 97L414 95L492 95L492 97ZM405 88L405 81L407 81L407 88L405 88ZM414 97C409.029 97 405 92.9706 405 88L407 88C407 91.866 410.134 95 414 95L414 97ZM499 104C499 100.134 495.866 97 492 97L492 95C496.971 95 501 99.0294 501 104L499 104Z" fill="#A3A3A3"/>
</svg>
