<svg width="706" height="481" viewBox="0 0 706 481" fill="none" xmlns="http://www.w3.org/2000/svg">
<rect width="706" height="481" fill="white"/>
<rect x="270" y="312" width="83" height="48" rx="2" fill="#E8E8E8"/>
<path d="M287.4 332.808H288.632V334.192C288.877 333.685 289.216 333.296 289.648 333.024C290.085 332.752 290.597 332.616 291.184 332.616C291.797 332.616 292.331 332.763 292.784 333.056C293.237 333.349 293.576 333.763 293.8 334.296C294.061 333.763 294.427 333.349 294.896 333.056C295.365 332.763 295.907 332.616 296.52 332.616C297.101 332.616 297.616 332.749 298.064 333.016C298.517 333.277 298.869 333.651 299.12 334.136C299.371 334.621 299.496 335.187 299.496 335.832V341H298.216V335.888C298.216 335.211 298.045 334.677 297.704 334.288C297.368 333.899 296.893 333.704 296.28 333.704C295.843 333.704 295.459 333.805 295.128 334.008C294.797 334.205 294.541 334.488 294.36 334.856C294.179 335.219 294.088 335.648 294.088 336.144V341H292.808V335.888C292.808 335.211 292.637 334.677 292.296 334.288C291.96 333.899 291.485 333.704 290.872 333.704C290.429 333.704 290.043 333.803 289.712 334C289.381 334.197 289.125 334.48 288.944 334.848C288.768 335.216 288.68 335.648 288.68 336.144V341H287.4V332.808ZM304.968 332.616C305.587 332.616 306.131 332.731 306.6 332.96C307.07 333.184 307.432 333.515 307.688 333.952C307.95 334.384 308.08 334.899 308.08 335.496V341H306.832V339.664C306.603 340.16 306.267 340.539 305.824 340.8C305.382 341.061 304.856 341.192 304.248 341.192C303.726 341.192 303.254 341.091 302.832 340.888C302.411 340.685 302.08 340.405 301.84 340.048C301.6 339.691 301.48 339.285 301.48 338.832C301.48 338.405 301.59 338.013 301.808 337.656C302.032 337.293 302.339 336.997 302.728 336.768C303.123 336.539 303.566 336.397 304.056 336.344L306.24 336.104C306.422 336.083 306.563 336.008 306.664 335.88C306.766 335.752 306.816 335.565 306.816 335.32C306.816 334.995 306.739 334.709 306.584 334.464C306.43 334.219 306.211 334.029 305.928 333.896C305.651 333.757 305.328 333.688 304.96 333.688C304.592 333.688 304.262 333.752 303.968 333.88C303.675 334.003 303.438 334.171 303.256 334.384C303.08 334.592 302.974 334.819 302.936 335.064H301.656C301.72 334.6 301.902 334.184 302.2 333.816C302.504 333.443 302.896 333.149 303.376 332.936C303.856 332.723 304.387 332.616 304.968 332.616ZM302.808 338.76C302.808 339.037 302.88 339.283 303.024 339.496C303.174 339.709 303.379 339.877 303.64 340C303.902 340.117 304.2 340.176 304.536 340.176C304.995 340.176 305.395 340.083 305.736 339.896C306.083 339.709 306.35 339.448 306.536 339.112C306.723 338.771 306.816 338.379 306.816 337.936V337L304.232 337.288C303.806 337.336 303.462 337.496 303.2 337.768C302.939 338.04 302.808 338.371 302.808 338.76ZM314.067 341.192C313.293 341.192 312.595 341.005 311.971 340.632C311.347 340.259 310.856 339.747 310.499 339.096C310.147 338.44 309.971 337.709 309.971 336.904C309.971 336.099 310.147 335.371 310.499 334.72C310.856 334.064 311.347 333.549 311.971 333.176C312.595 332.803 313.293 332.616 314.067 332.616C315.059 332.616 315.891 332.869 316.563 333.376C317.235 333.877 317.664 334.605 317.851 335.56H316.571C316.4 334.973 316.085 334.531 315.627 334.232C315.173 333.928 314.653 333.776 314.067 333.776C313.539 333.776 313.064 333.909 312.643 334.176C312.227 334.443 311.901 334.813 311.667 335.288C311.432 335.763 311.315 336.301 311.315 336.904C311.315 337.501 311.432 338.037 311.667 338.512C311.901 338.987 312.227 339.36 312.643 339.632C313.064 339.899 313.539 340.032 314.067 340.032C314.653 340.032 315.173 339.883 315.627 339.584C316.085 339.28 316.4 338.835 316.571 338.248H317.851C317.728 338.867 317.488 339.397 317.131 339.84C316.773 340.283 316.331 340.619 315.803 340.848C315.275 341.077 314.696 341.192 314.067 341.192ZM323.436 341.192C322.658 341.192 321.948 341.008 321.308 340.64C320.674 340.267 320.172 339.755 319.804 339.104C319.442 338.448 319.26 337.715 319.26 336.904C319.26 336.093 319.442 335.363 319.804 334.712C320.172 334.056 320.676 333.544 321.316 333.176C321.956 332.803 322.666 332.616 323.444 332.616C324.223 332.616 324.93 332.803 325.564 333.176C326.199 333.544 326.698 334.053 327.06 334.704C327.428 335.355 327.612 336.088 327.612 336.904C327.612 337.72 327.428 338.453 327.06 339.104C326.698 339.755 326.199 340.267 325.564 340.64C324.93 341.008 324.22 341.192 323.436 341.192ZM320.604 336.904C320.604 337.517 320.727 338.061 320.972 338.536C321.223 339.005 321.564 339.371 321.996 339.632C322.434 339.893 322.919 340.024 323.452 340.024C323.986 340.024 324.466 339.893 324.892 339.632C325.319 339.371 325.655 339.005 325.9 338.536C326.146 338.061 326.268 337.517 326.268 336.904C326.268 336.291 326.146 335.747 325.9 335.272C325.655 334.797 325.316 334.429 324.884 334.168C324.458 333.907 323.978 333.776 323.444 333.776C322.911 333.776 322.428 333.907 321.996 334.168C321.564 334.429 321.223 334.797 320.972 335.272C320.727 335.747 320.604 336.291 320.604 336.904ZM332.45 341.192C331.831 341.192 331.271 341.093 330.77 340.896C330.274 340.699 329.877 340.424 329.578 340.072C329.285 339.715 329.127 339.312 329.106 338.864H330.41C330.431 339.109 330.533 339.331 330.714 339.528C330.895 339.72 331.135 339.872 331.434 339.984C331.733 340.096 332.066 340.152 332.434 340.152C332.807 340.152 333.135 340.091 333.418 339.968C333.706 339.845 333.927 339.675 334.082 339.456C334.242 339.237 334.322 338.989 334.322 338.712C334.322 338.413 334.237 338.163 334.066 337.96C333.901 337.752 333.669 337.621 333.37 337.568L331.394 337.208C330.765 337.091 330.274 336.837 329.922 336.448C329.57 336.053 329.394 335.555 329.394 334.952C329.394 334.52 329.517 334.128 329.762 333.776C330.013 333.419 330.362 333.136 330.81 332.928C331.258 332.72 331.77 332.616 332.346 332.616C332.917 332.616 333.431 332.709 333.89 332.896C334.349 333.083 334.714 333.341 334.986 333.672C335.258 334.003 335.405 334.371 335.426 334.776H334.122C334.106 334.563 334.018 334.371 333.858 334.2C333.703 334.029 333.495 333.896 333.234 333.8C332.973 333.704 332.679 333.656 332.354 333.656C332.023 333.656 331.73 333.712 331.474 333.824C331.218 333.936 331.018 334.091 330.874 334.288C330.735 334.48 330.666 334.699 330.666 334.944C330.666 335.221 330.743 335.451 330.898 335.632C331.053 335.813 331.279 335.931 331.578 335.984L333.602 336.344C334.018 336.419 334.375 336.565 334.674 336.784C334.978 337.003 335.207 337.275 335.362 337.6C335.522 337.925 335.602 338.28 335.602 338.664C335.602 339.144 335.463 339.576 335.186 339.96C334.914 340.344 334.538 340.645 334.058 340.864C333.578 341.083 333.042 341.192 332.45 341.192Z" fill="#19191C"/>
<rect x="178" y="312" width="54" height="48" rx="2" fill="#4DBB5F" fill-opacity="0.2"/>
<path d="M195.4 332.808H196.68V341H195.4V332.808ZM196.792 329.8V331.32H195.288V329.8H196.792ZM202.982 341.192C202.203 341.192 201.494 341.008 200.854 340.64C200.219 340.267 199.718 339.755 199.35 339.104C198.987 338.448 198.806 337.715 198.806 336.904C198.806 336.093 198.987 335.363 199.35 334.712C199.718 334.056 200.222 333.544 200.862 333.176C201.502 332.803 202.211 332.616 202.99 332.616C203.769 332.616 204.475 332.803 205.11 333.176C205.745 333.544 206.243 334.053 206.606 334.704C206.974 335.355 207.158 336.088 207.158 336.904C207.158 337.72 206.974 338.453 206.606 339.104C206.243 339.755 205.745 340.267 205.11 340.64C204.475 341.008 203.766 341.192 202.982 341.192ZM200.15 336.904C200.15 337.517 200.273 338.061 200.518 338.536C200.769 339.005 201.11 339.371 201.542 339.632C201.979 339.893 202.465 340.024 202.998 340.024C203.531 340.024 204.011 339.893 204.438 339.632C204.865 339.371 205.201 339.005 205.446 338.536C205.691 338.061 205.814 337.517 205.814 336.904C205.814 336.291 205.691 335.747 205.446 335.272C205.201 334.797 204.862 334.429 204.43 334.168C204.003 333.907 203.523 333.776 202.99 333.776C202.457 333.776 201.974 333.907 201.542 334.168C201.11 334.429 200.769 334.797 200.518 335.272C200.273 335.747 200.15 336.291 200.15 336.904ZM211.996 341.192C211.377 341.192 210.817 341.093 210.316 340.896C209.82 340.699 209.422 340.424 209.124 340.072C208.83 339.715 208.673 339.312 208.652 338.864H209.956C209.977 339.109 210.078 339.331 210.26 339.528C210.441 339.72 210.681 339.872 210.98 339.984C211.278 340.096 211.612 340.152 211.98 340.152C212.353 340.152 212.681 340.091 212.964 339.968C213.252 339.845 213.473 339.675 213.628 339.456C213.788 339.237 213.868 338.989 213.868 338.712C213.868 338.413 213.782 338.163 213.612 337.96C213.446 337.752 213.214 337.621 212.916 337.568L210.94 337.208C210.31 337.091 209.82 336.837 209.468 336.448C209.116 336.053 208.94 335.555 208.94 334.952C208.94 334.52 209.062 334.128 209.308 333.776C209.558 333.419 209.908 333.136 210.356 332.928C210.804 332.72 211.316 332.616 211.892 332.616C212.462 332.616 212.977 332.709 213.436 332.896C213.894 333.083 214.26 333.341 214.532 333.672C214.804 334.003 214.95 334.371 214.972 334.776H213.668C213.652 334.563 213.564 334.371 213.404 334.2C213.249 334.029 213.041 333.896 212.78 333.8C212.518 333.704 212.225 333.656 211.9 333.656C211.569 333.656 211.276 333.712 211.02 333.824C210.764 333.936 210.564 334.091 210.42 334.288C210.281 334.48 210.212 334.699 210.212 334.944C210.212 335.221 210.289 335.451 210.444 335.632C210.598 335.813 210.825 335.931 211.124 335.984L213.148 336.344C213.564 336.419 213.921 336.565 214.22 336.784C214.524 337.003 214.753 337.275 214.908 337.6C215.068 337.925 215.148 338.28 215.148 338.664C215.148 339.144 215.009 339.576 214.732 339.96C214.46 340.344 214.084 340.645 213.604 340.864C213.124 341.083 212.588 341.192 211.996 341.192Z" fill="#19191C"/>
<rect x="274" y="216" width="75" height="48" rx="2" fill="#4DBB5F" fill-opacity="0.2"/>
<path d="M294.288 236.616C294.907 236.616 295.451 236.731 295.92 236.96C296.389 237.184 296.752 237.515 297.008 237.952C297.269 238.384 297.4 238.899 297.4 239.496V245H296.152V243.664C295.923 244.16 295.587 244.539 295.144 244.8C294.701 245.061 294.176 245.192 293.568 245.192C293.045 245.192 292.573 245.091 292.152 244.888C291.731 244.685 291.4 244.405 291.16 244.048C290.92 243.691 290.8 243.285 290.8 242.832C290.8 242.405 290.909 242.013 291.128 241.656C291.352 241.293 291.659 240.997 292.048 240.768C292.443 240.539 292.885 240.397 293.376 240.344L295.56 240.104C295.741 240.083 295.883 240.008 295.984 239.88C296.085 239.752 296.136 239.565 296.136 239.32C296.136 238.995 296.059 238.709 295.904 238.464C295.749 238.219 295.531 238.029 295.248 237.896C294.971 237.757 294.648 237.688 294.28 237.688C293.912 237.688 293.581 237.752 293.288 237.88C292.995 238.003 292.757 238.171 292.576 238.384C292.4 238.592 292.293 238.819 292.256 239.064H290.976C291.04 238.6 291.221 238.184 291.52 237.816C291.824 237.443 292.216 237.149 292.696 236.936C293.176 236.723 293.707 236.616 294.288 236.616ZM292.128 242.76C292.128 243.037 292.2 243.283 292.344 243.496C292.493 243.709 292.699 243.877 292.96 244C293.221 244.117 293.52 244.176 293.856 244.176C294.315 244.176 294.715 244.083 295.056 243.896C295.403 243.709 295.669 243.448 295.856 243.112C296.043 242.771 296.136 242.379 296.136 241.936V241L293.552 241.288C293.125 241.336 292.781 241.496 292.52 241.768C292.259 242.04 292.128 242.371 292.128 242.76ZM301.235 236.808V238.256C301.544 237.739 301.96 237.336 302.483 237.048C303.005 236.76 303.605 236.616 304.283 236.616C305.045 236.616 305.723 236.797 306.315 237.16C306.912 237.517 307.376 238.021 307.707 238.672C308.043 239.323 308.211 240.067 308.211 240.904C308.211 241.741 308.043 242.485 307.707 243.136C307.376 243.787 306.912 244.293 306.315 244.656C305.723 245.013 305.045 245.192 304.283 245.192C303.616 245.192 303.024 245.053 302.507 244.776C301.989 244.499 301.576 244.109 301.267 243.608V247.576H299.987V236.808H301.235ZM301.267 240.904C301.267 241.517 301.384 242.061 301.619 242.536C301.859 243.005 302.192 243.373 302.619 243.64C303.045 243.901 303.533 244.032 304.083 244.032C304.627 244.032 305.109 243.901 305.531 243.64C305.952 243.373 306.28 243.005 306.515 242.536C306.749 242.061 306.867 241.517 306.867 240.904C306.867 240.291 306.749 239.749 306.515 239.28C306.28 238.805 305.952 238.437 305.531 238.176C305.109 237.909 304.627 237.776 304.083 237.776C303.533 237.776 303.045 237.909 302.619 238.176C302.192 238.437 301.859 238.805 301.619 239.28C301.384 239.749 301.267 240.291 301.267 240.904ZM311.587 236.808V238.256C311.896 237.739 312.312 237.336 312.835 237.048C313.357 236.76 313.957 236.616 314.635 236.616C315.397 236.616 316.075 236.797 316.667 237.16C317.264 237.517 317.728 238.021 318.059 238.672C318.395 239.323 318.563 240.067 318.563 240.904C318.563 241.741 318.395 242.485 318.059 243.136C317.728 243.787 317.264 244.293 316.667 244.656C316.075 245.013 315.397 245.192 314.635 245.192C313.968 245.192 313.376 245.053 312.859 244.776C312.341 244.499 311.928 244.109 311.619 243.608V247.576H310.339V236.808H311.587ZM311.619 240.904C311.619 241.517 311.736 242.061 311.971 242.536C312.211 243.005 312.544 243.373 312.971 243.64C313.397 243.901 313.885 244.032 314.435 244.032C314.979 244.032 315.461 243.901 315.883 243.64C316.304 243.373 316.632 243.005 316.867 242.536C317.101 242.061 317.219 241.517 317.219 240.904C317.219 240.291 317.101 239.749 316.867 239.28C316.632 238.805 316.304 238.437 315.883 238.176C315.461 237.909 314.979 237.776 314.435 237.776C313.885 237.776 313.397 237.909 312.971 238.176C312.544 238.437 312.211 238.805 311.971 239.28C311.736 239.749 311.619 240.291 311.619 240.904ZM320.691 233.8H321.971V245H320.691V233.8ZM328.121 245.192C327.353 245.192 326.662 245.008 326.049 244.64C325.436 244.272 324.956 243.763 324.609 243.112C324.268 242.456 324.097 241.715 324.097 240.888C324.097 240.083 324.27 239.355 324.617 238.704C324.969 238.053 325.452 237.544 326.065 237.176C326.678 236.803 327.364 236.616 328.121 236.616C328.894 236.616 329.572 236.8 330.153 237.168C330.74 237.536 331.19 238.045 331.505 238.696C331.825 239.347 331.985 240.083 331.985 240.904V241.216H325.401C325.454 241.776 325.606 242.272 325.857 242.704C326.108 243.136 326.436 243.472 326.841 243.712C327.246 243.952 327.7 244.072 328.201 244.072C328.74 244.072 329.214 243.973 329.625 243.776C330.036 243.579 330.334 243.309 330.521 242.968H331.801C331.705 243.309 331.502 243.651 331.193 243.992C330.889 244.333 330.473 244.619 329.945 244.848C329.422 245.077 328.814 245.192 328.121 245.192ZM330.657 240.16C330.55 239.413 330.278 238.824 329.841 238.392C329.409 237.96 328.841 237.744 328.137 237.744C327.662 237.744 327.236 237.843 326.857 238.04C326.478 238.232 326.166 238.512 325.921 238.88C325.676 239.243 325.513 239.669 325.433 240.16H330.657Z" fill="#19191C"/>
<rect x="387" y="216" width="84" height="48" rx="2" fill="#E8E8E8"/>
<path d="M404.4 236.808H405.632V238.192C405.877 237.685 406.216 237.296 406.648 237.024C407.085 236.752 407.597 236.616 408.184 236.616C408.797 236.616 409.331 236.763 409.784 237.056C410.237 237.349 410.576 237.763 410.8 238.296C411.061 237.763 411.427 237.349 411.896 237.056C412.365 236.763 412.907 236.616 413.52 236.616C414.101 236.616 414.616 236.749 415.064 237.016C415.517 237.277 415.869 237.651 416.12 238.136C416.371 238.621 416.496 239.187 416.496 239.832V245H415.216V239.888C415.216 239.211 415.045 238.677 414.704 238.288C414.368 237.899 413.893 237.704 413.28 237.704C412.843 237.704 412.459 237.805 412.128 238.008C411.797 238.205 411.541 238.488 411.36 238.856C411.179 239.219 411.088 239.648 411.088 240.144V245H409.808V239.888C409.808 239.211 409.637 238.677 409.296 238.288C408.96 237.899 408.485 237.704 407.872 237.704C407.429 237.704 407.043 237.803 406.712 238C406.381 238.197 406.125 238.48 405.944 238.848C405.768 239.216 405.68 239.648 405.68 240.144V245H404.4V236.808ZM419.08 236.808H420.36V245H419.08V236.808ZM420.472 233.8V235.32H418.968V233.8H420.472ZM423.182 236.808H424.414V238.136C424.692 237.645 425.06 237.269 425.518 237.008C425.982 236.747 426.518 236.616 427.126 236.616C427.713 236.616 428.233 236.741 428.686 236.992C429.14 237.243 429.494 237.613 429.75 238.104C430.012 238.589 430.142 239.173 430.142 239.856V245H428.862V239.984C428.862 239.275 428.678 238.723 428.31 238.328C427.942 237.933 427.436 237.736 426.79 237.736C426.332 237.736 425.926 237.837 425.574 238.04C425.222 238.243 424.948 238.528 424.75 238.896C424.558 239.259 424.462 239.675 424.462 240.144V245H423.182V236.808ZM436.01 247.752C435.413 247.752 434.861 247.659 434.354 247.472C433.847 247.285 433.426 247.021 433.09 246.68C432.754 246.339 432.538 245.944 432.442 245.496H433.722C433.893 245.864 434.183 246.144 434.594 246.336C435.01 246.533 435.469 246.632 435.97 246.632C436.493 246.632 436.949 246.525 437.338 246.312C437.733 246.104 438.037 245.811 438.25 245.432C438.463 245.053 438.57 244.616 438.57 244.12V243.784L438.594 242.96C438.274 243.413 437.866 243.765 437.37 244.016C436.879 244.267 436.338 244.392 435.746 244.392C435.053 244.392 434.426 244.227 433.866 243.896C433.306 243.56 432.866 243.099 432.546 242.512C432.226 241.92 432.066 241.253 432.066 240.512C432.066 239.771 432.226 239.104 432.546 238.512C432.866 237.92 433.306 237.456 433.866 237.12C434.426 236.784 435.053 236.616 435.746 236.616C436.349 236.616 436.901 236.749 437.402 237.016C437.903 237.277 438.314 237.645 438.634 238.12V236.808H439.874L439.85 244.12C439.85 244.829 439.69 245.459 439.37 246.008C439.05 246.563 438.599 246.992 438.018 247.296C437.437 247.6 436.767 247.752 436.01 247.752ZM433.41 240.512C433.41 241.029 433.519 241.499 433.738 241.92C433.962 242.341 434.271 242.672 434.666 242.912C435.061 243.152 435.503 243.272 435.994 243.272C436.479 243.272 436.917 243.152 437.306 242.912C437.701 242.672 438.013 242.341 438.242 241.92C438.471 241.499 438.586 241.029 438.586 240.512C438.586 239.989 438.471 239.517 438.242 239.096C438.013 238.675 437.701 238.344 437.306 238.104C436.917 237.859 436.479 237.736 435.994 237.736C435.503 237.736 435.061 237.859 434.666 238.104C434.271 238.344 433.962 238.675 433.738 239.096C433.519 239.517 433.41 239.989 433.41 240.512ZM441.668 236.808H443.044L444.972 242.696L445.156 243.392L445.324 242.696L447.348 236.808H448.572L450.636 242.696L450.82 243.392L450.988 242.696L452.868 236.808H454.212L451.404 245H450.14L448.116 238.84L447.964 238.272L447.828 238.824L445.724 245H444.476L441.668 236.808Z" fill="#19191C"/>
<rect x="97" y="216" width="139" height="48" rx="2" fill="#E8E8E8"/>
<path d="M117.288 236.616C117.907 236.616 118.451 236.731 118.92 236.96C119.389 237.184 119.752 237.515 120.008 237.952C120.269 238.384 120.4 238.899 120.4 239.496V245H119.152V243.664C118.923 244.16 118.587 244.539 118.144 244.8C117.701 245.061 117.176 245.192 116.568 245.192C116.045 245.192 115.573 245.091 115.152 244.888C114.731 244.685 114.4 244.405 114.16 244.048C113.92 243.691 113.8 243.285 113.8 242.832C113.8 242.405 113.909 242.013 114.128 241.656C114.352 241.293 114.659 240.997 115.048 240.768C115.443 240.539 115.885 240.397 116.376 240.344L118.56 240.104C118.741 240.083 118.883 240.008 118.984 239.88C119.085 239.752 119.136 239.565 119.136 239.32C119.136 238.995 119.059 238.709 118.904 238.464C118.749 238.219 118.531 238.029 118.248 237.896C117.971 237.757 117.648 237.688 117.28 237.688C116.912 237.688 116.581 237.752 116.288 237.88C115.995 238.003 115.757 238.171 115.576 238.384C115.4 238.592 115.293 238.819 115.256 239.064H113.976C114.04 238.6 114.221 238.184 114.52 237.816C114.824 237.443 115.216 237.149 115.696 236.936C116.176 236.723 116.707 236.616 117.288 236.616ZM115.128 242.76C115.128 243.037 115.2 243.283 115.344 243.496C115.493 243.709 115.699 243.877 115.96 244C116.221 244.117 116.52 244.176 116.856 244.176C117.315 244.176 117.715 244.083 118.056 243.896C118.403 243.709 118.669 243.448 118.856 243.112C119.043 242.771 119.136 242.379 119.136 241.936V241L116.552 241.288C116.125 241.336 115.781 241.496 115.52 241.768C115.259 242.04 115.128 242.371 115.128 242.76ZM122.987 236.808H124.219V238.136C124.496 237.645 124.864 237.269 125.323 237.008C125.787 236.747 126.323 236.616 126.931 236.616C127.517 236.616 128.037 236.741 128.491 236.992C128.944 237.243 129.299 237.613 129.555 238.104C129.816 238.589 129.947 239.173 129.947 239.856V245H128.667V239.984C128.667 239.275 128.483 238.723 128.115 238.328C127.747 237.933 127.24 237.736 126.595 237.736C126.136 237.736 125.731 237.837 125.379 238.04C125.027 238.243 124.752 238.528 124.555 238.896C124.363 239.259 124.267 239.675 124.267 240.144V245H122.987V236.808ZM138.75 243.64C138.441 244.136 138.027 244.52 137.51 244.792C136.998 245.059 136.414 245.192 135.758 245.192C134.995 245.192 134.315 245.013 133.718 244.656C133.126 244.293 132.662 243.787 132.326 243.136C131.995 242.485 131.83 241.741 131.83 240.904C131.83 240.067 131.995 239.323 132.326 238.672C132.662 238.021 133.126 237.517 133.718 237.16C134.315 236.797 134.995 236.616 135.758 236.616C136.414 236.616 136.998 236.752 137.51 237.024C138.027 237.291 138.441 237.672 138.75 238.168V233.8H140.03V245H138.75V243.64ZM133.174 240.904C133.174 241.517 133.291 242.061 133.526 242.536C133.761 243.005 134.089 243.373 134.51 243.64C134.931 243.901 135.414 244.032 135.958 244.032C136.459 244.032 136.91 243.923 137.31 243.704C137.715 243.48 138.041 243.168 138.286 242.768C138.537 242.363 138.691 241.893 138.75 241.36V240.448C138.691 239.915 138.537 239.448 138.286 239.048C138.041 238.643 137.715 238.331 137.31 238.112C136.91 237.888 136.459 237.776 135.958 237.776C135.414 237.776 134.931 237.909 134.51 238.176C134.089 238.437 133.761 238.805 133.526 239.28C133.291 239.749 133.174 240.291 133.174 240.904ZM142.738 236.808H144.018V238.168C144.279 237.704 144.618 237.349 145.034 237.104C145.45 236.853 145.927 236.728 146.466 236.728H146.754V238.064H146.418C145.932 238.064 145.508 238.157 145.146 238.344C144.783 238.531 144.503 238.797 144.306 239.144C144.114 239.485 144.018 239.888 144.018 240.352V245H142.738V236.808ZM151.96 245.192C151.182 245.192 150.472 245.008 149.832 244.64C149.198 244.267 148.696 243.755 148.328 243.104C147.966 242.448 147.784 241.715 147.784 240.904C147.784 240.093 147.966 239.363 148.328 238.712C148.696 238.056 149.2 237.544 149.84 237.176C150.48 236.803 151.19 236.616 151.968 236.616C152.747 236.616 153.454 236.803 154.088 237.176C154.723 237.544 155.222 238.053 155.584 238.704C155.952 239.355 156.136 240.088 156.136 240.904C156.136 241.72 155.952 242.453 155.584 243.104C155.222 243.755 154.723 244.267 154.088 244.64C153.454 245.008 152.744 245.192 151.96 245.192ZM149.128 240.904C149.128 241.517 149.251 242.061 149.496 242.536C149.747 243.005 150.088 243.371 150.52 243.632C150.958 243.893 151.443 244.024 151.976 244.024C152.51 244.024 152.99 243.893 153.416 243.632C153.843 243.371 154.179 243.005 154.424 242.536C154.67 242.061 154.792 241.517 154.792 240.904C154.792 240.291 154.67 239.747 154.424 239.272C154.179 238.797 153.84 238.429 153.408 238.168C152.982 237.907 152.502 237.776 151.968 237.776C151.435 237.776 150.952 237.907 150.52 238.168C150.088 238.429 149.747 238.797 149.496 239.272C149.251 239.747 149.128 240.291 149.128 240.904ZM158.27 236.808H159.55V245H158.27V236.808ZM159.662 233.8V235.32H158.158V233.8H159.662ZM168.596 243.64C168.287 244.136 167.873 244.52 167.356 244.792C166.844 245.059 166.26 245.192 165.604 245.192C164.841 245.192 164.161 245.013 163.564 244.656C162.972 244.293 162.508 243.787 162.172 243.136C161.841 242.485 161.676 241.741 161.676 240.904C161.676 240.067 161.841 239.323 162.172 238.672C162.508 238.021 162.972 237.517 163.564 237.16C164.161 236.797 164.841 236.616 165.604 236.616C166.26 236.616 166.844 236.752 167.356 237.024C167.873 237.291 168.287 237.672 168.596 238.168V233.8H169.876V245H168.596V243.64ZM163.02 240.904C163.02 241.517 163.137 242.061 163.372 242.536C163.607 243.005 163.935 243.373 164.356 243.64C164.777 243.901 165.26 244.032 165.804 244.032C166.305 244.032 166.756 243.923 167.156 243.704C167.561 243.48 167.887 243.168 168.132 242.768C168.383 242.363 168.537 241.893 168.596 241.36V240.448C168.537 239.915 168.383 239.448 168.132 239.048C167.887 238.643 167.561 238.331 167.156 238.112C166.756 237.888 166.305 237.776 165.804 237.776C165.26 237.776 164.777 237.909 164.356 238.176C163.935 238.437 163.607 238.805 163.372 239.28C163.137 239.749 163.02 240.291 163.02 240.904ZM172.904 233.8H174.312L180.328 242.888V233.8H181.656V245H180.232L174.232 235.912V245H172.904V233.8ZM187.683 236.616C188.302 236.616 188.846 236.731 189.315 236.96C189.784 237.184 190.147 237.515 190.403 237.952C190.664 238.384 190.795 238.899 190.795 239.496V245H189.547V243.664C189.318 244.16 188.982 244.539 188.539 244.8C188.096 245.061 187.571 245.192 186.963 245.192C186.44 245.192 185.968 245.091 185.547 244.888C185.126 244.685 184.795 244.405 184.555 244.048C184.315 243.691 184.195 243.285 184.195 242.832C184.195 242.405 184.304 242.013 184.523 241.656C184.747 241.293 185.054 240.997 185.443 240.768C185.838 240.539 186.28 240.397 186.771 240.344L188.955 240.104C189.136 240.083 189.278 240.008 189.379 239.88C189.48 239.752 189.531 239.565 189.531 239.32C189.531 238.995 189.454 238.709 189.299 238.464C189.144 238.219 188.926 238.029 188.643 237.896C188.366 237.757 188.043 237.688 187.675 237.688C187.307 237.688 186.976 237.752 186.683 237.88C186.39 238.003 186.152 238.171 185.971 238.384C185.795 238.592 185.688 238.819 185.651 239.064H184.371C184.435 238.6 184.616 238.184 184.915 237.816C185.219 237.443 185.611 237.149 186.091 236.936C186.571 236.723 187.102 236.616 187.683 236.616ZM185.523 242.76C185.523 243.037 185.595 243.283 185.739 243.496C185.888 243.709 186.094 243.877 186.355 244C186.616 244.117 186.915 244.176 187.251 244.176C187.71 244.176 188.11 244.083 188.451 243.896C188.798 243.709 189.064 243.448 189.251 243.112C189.438 242.771 189.531 242.379 189.531 241.936V241L186.947 241.288C186.52 241.336 186.176 241.496 185.915 241.768C185.654 242.04 185.523 242.371 185.523 242.76ZM196.014 245C195.624 245 195.27 244.917 194.95 244.752C194.635 244.581 194.387 244.349 194.206 244.056C194.024 243.757 193.934 243.427 193.934 243.064L193.926 237.944H192.486L192.494 236.808H193.382C193.584 236.808 193.747 236.744 193.87 236.616C193.998 236.488 194.062 236.325 194.062 236.128V234.808H195.214V236.808H197.19L197.182 237.944H195.206L195.214 242.984C195.214 243.235 195.296 243.445 195.462 243.616C195.632 243.781 195.843 243.864 196.094 243.864H197.182V245H196.014ZM199.437 236.808H200.717V245H199.437V236.808ZM200.829 233.8V235.32H199.325V233.8H200.829ZM202.475 236.808H203.867L206.363 243.288L208.779 236.808H210.139L206.915 245H205.715L202.475 236.808ZM215.063 245.192C214.295 245.192 213.604 245.008 212.991 244.64C212.378 244.272 211.898 243.763 211.551 243.112C211.21 242.456 211.039 241.715 211.039 240.888C211.039 240.083 211.212 239.355 211.559 238.704C211.911 238.053 212.394 237.544 213.007 237.176C213.62 236.803 214.306 236.616 215.063 236.616C215.836 236.616 216.514 236.8 217.095 237.168C217.682 237.536 218.132 238.045 218.447 238.696C218.767 239.347 218.927 240.083 218.927 240.904V241.216H212.343C212.396 241.776 212.548 242.272 212.799 242.704C213.05 243.136 213.378 243.472 213.783 243.712C214.188 243.952 214.642 244.072 215.143 244.072C215.682 244.072 216.156 243.973 216.567 243.776C216.978 243.579 217.276 243.309 217.463 242.968H218.743C218.647 243.309 218.444 243.651 218.135 243.992C217.831 244.333 217.415 244.619 216.887 244.848C216.364 245.077 215.756 245.192 215.063 245.192ZM217.599 240.16C217.492 239.413 217.22 238.824 216.783 238.392C216.351 237.96 215.783 237.744 215.079 237.744C214.604 237.744 214.178 237.843 213.799 238.04C213.42 238.232 213.108 238.512 212.863 238.88C212.618 239.243 212.455 239.669 212.375 240.16H217.599Z" fill="#19191C"/>
<rect x="509" y="216" width="68" height="48" rx="2" fill="#E8E8E8"/>
<path d="M527.656 245H526.376V233.8H527.656V245ZM531.711 245H530.431V236.808H531.711V245ZM530.343 235.32V233.8H531.799V235.32H530.343ZM538.343 236.616C538.956 236.616 539.492 236.749 539.951 237.016C540.409 237.277 540.761 237.651 541.007 238.136C541.257 238.621 541.383 239.187 541.383 239.832V245H540.103V239.928C540.103 239.229 539.921 238.685 539.559 238.296C539.201 237.901 538.703 237.704 538.063 237.704C537.604 237.704 537.201 237.803 536.855 238C536.508 238.192 536.239 238.469 536.047 238.832C535.86 239.195 535.767 239.621 535.767 240.112V245H534.487V236.808H535.719V238.064C535.98 237.584 536.332 237.224 536.775 236.984C537.217 236.739 537.74 236.616 538.343 236.616ZM549.388 236.808H550.668V245H549.436V243.744C549.174 244.224 548.822 244.587 548.38 244.832C547.937 245.072 547.414 245.192 546.812 245.192C546.198 245.192 545.662 245.061 545.204 244.8C544.745 244.533 544.39 244.157 544.14 243.672C543.894 243.187 543.772 242.621 543.772 241.976V236.808H545.052V241.88C545.052 242.579 545.23 243.125 545.588 243.52C545.95 243.909 546.452 244.104 547.092 244.104C547.55 244.104 547.953 244.008 548.3 243.816C548.646 243.619 548.913 243.339 549.1 242.976C549.292 242.613 549.388 242.187 549.388 241.696V236.808ZM556.849 240.8L559.825 245H558.369L556.113 241.776L553.881 245H552.481L555.465 240.776L552.641 236.808H554.097L556.193 239.8L558.265 236.808H559.665L556.849 240.8Z" fill="#19191C"/>
<rect x="273" y="120" width="78" height="48" rx="2" fill="#4DBB5F" fill-opacity="0.2"/>
<path d="M290.4 140.808H291.632V142.136C291.909 141.645 292.277 141.269 292.736 141.008C293.2 140.747 293.736 140.616 294.344 140.616C294.931 140.616 295.451 140.741 295.904 140.992C296.357 141.243 296.712 141.613 296.968 142.104C297.229 142.589 297.36 143.173 297.36 143.856V149H296.08V143.984C296.08 143.275 295.896 142.723 295.528 142.328C295.16 141.933 294.653 141.736 294.008 141.736C293.549 141.736 293.144 141.837 292.792 142.04C292.44 142.243 292.165 142.528 291.968 142.896C291.776 143.259 291.68 143.675 291.68 144.144V149H290.4V140.808ZM302.828 140.616C303.446 140.616 303.99 140.731 304.46 140.96C304.929 141.184 305.292 141.515 305.548 141.952C305.809 142.384 305.94 142.899 305.94 143.496V149H304.692V147.664C304.462 148.16 304.126 148.539 303.684 148.8C303.241 149.061 302.716 149.192 302.108 149.192C301.585 149.192 301.113 149.091 300.692 148.888C300.27 148.685 299.94 148.405 299.7 148.048C299.46 147.691 299.34 147.285 299.34 146.832C299.34 146.405 299.449 146.013 299.668 145.656C299.892 145.293 300.198 144.997 300.588 144.768C300.982 144.539 301.425 144.397 301.916 144.344L304.1 144.104C304.281 144.083 304.422 144.008 304.524 143.88C304.625 143.752 304.676 143.565 304.676 143.32C304.676 142.995 304.598 142.709 304.444 142.464C304.289 142.219 304.07 142.029 303.788 141.896C303.51 141.757 303.188 141.688 302.82 141.688C302.452 141.688 302.121 141.752 301.828 141.88C301.534 142.003 301.297 142.171 301.116 142.384C300.94 142.592 300.833 142.819 300.796 143.064H299.516C299.58 142.6 299.761 142.184 300.06 141.816C300.364 141.443 300.756 141.149 301.236 140.936C301.716 140.723 302.246 140.616 302.828 140.616ZM300.668 146.76C300.668 147.037 300.74 147.283 300.884 147.496C301.033 147.709 301.238 147.877 301.5 148C301.761 148.117 302.06 148.176 302.396 148.176C302.854 148.176 303.254 148.083 303.596 147.896C303.942 147.709 304.209 147.448 304.396 147.112C304.582 146.771 304.676 146.379 304.676 145.936V145L302.092 145.288C301.665 145.336 301.321 145.496 301.06 145.768C300.798 146.04 300.668 146.371 300.668 146.76ZM311.158 149C310.769 149 310.414 148.917 310.094 148.752C309.779 148.581 309.531 148.349 309.35 148.056C309.169 147.757 309.078 147.427 309.078 147.064L309.07 141.944H307.63L307.638 140.808H308.526C308.729 140.808 308.891 140.744 309.014 140.616C309.142 140.488 309.206 140.325 309.206 140.128V138.808H310.358V140.808H312.334L312.326 141.944H310.35L310.358 146.984C310.358 147.235 310.441 147.445 310.606 147.616C310.777 147.781 310.987 147.864 311.238 147.864H312.326V149H311.158ZM314.581 140.808H315.861V149H314.581V140.808ZM315.973 137.8V139.32H314.469V137.8H315.973ZM317.62 140.808H319.012L321.508 147.288L323.924 140.808H325.284L322.06 149H320.86L317.62 140.808ZM330.207 149.192C329.439 149.192 328.749 149.008 328.135 148.64C327.522 148.272 327.042 147.763 326.695 147.112C326.354 146.456 326.183 145.715 326.183 144.888C326.183 144.083 326.357 143.355 326.703 142.704C327.055 142.053 327.538 141.544 328.151 141.176C328.765 140.803 329.45 140.616 330.207 140.616C330.981 140.616 331.658 140.8 332.239 141.168C332.826 141.536 333.277 142.045 333.591 142.696C333.911 143.347 334.071 144.083 334.071 144.904V145.216H327.487C327.541 145.776 327.693 146.272 327.943 146.704C328.194 147.136 328.522 147.472 328.927 147.712C329.333 147.952 329.786 148.072 330.287 148.072C330.826 148.072 331.301 147.973 331.711 147.776C332.122 147.579 332.421 147.309 332.607 146.968H333.887C333.791 147.309 333.589 147.651 333.279 147.992C332.975 148.333 332.559 148.619 332.031 148.848C331.509 149.077 330.901 149.192 330.207 149.192ZM332.743 144.16C332.637 143.413 332.365 142.824 331.927 142.392C331.495 141.96 330.927 141.744 330.223 141.744C329.749 141.744 329.322 141.843 328.943 142.04C328.565 142.232 328.253 142.512 328.007 142.88C327.762 143.243 327.599 143.669 327.519 144.16H332.743Z" fill="#19191C"/>
<rect x="431" y="120" width="138" height="48" rx="2" fill="#4DBB5F" fill-opacity="0.2"/>
<path d="M451.48 140.616C452.099 140.616 452.64 140.731 453.104 140.96C453.573 141.184 453.936 141.512 454.192 141.944C454.448 142.376 454.576 142.896 454.576 143.504V149H453.328V147.784C453.077 148.243 452.717 148.592 452.248 148.832C451.784 149.072 451.227 149.192 450.576 149.192C450.037 149.192 449.557 149.093 449.136 148.896C448.72 148.693 448.395 148.413 448.16 148.056C447.931 147.699 447.816 147.291 447.816 146.832C447.816 146.405 447.923 146.013 448.136 145.656C448.355 145.293 448.656 144.997 449.04 144.768C449.424 144.539 449.859 144.4 450.344 144.352L452.736 144.112C452.912 144.096 453.051 144.021 453.152 143.888C453.259 143.755 453.312 143.563 453.312 143.312C453.312 142.987 453.232 142.701 453.072 142.456C452.917 142.211 452.699 142.021 452.416 141.888C452.139 141.755 451.816 141.688 451.448 141.688C451.085 141.688 450.755 141.749 450.456 141.872C450.157 141.995 449.915 142.163 449.728 142.376C449.541 142.589 449.432 142.824 449.4 143.08H448.152C448.2 142.627 448.376 142.213 448.68 141.84C448.984 141.461 449.381 141.163 449.872 140.944C450.363 140.725 450.899 140.616 451.48 140.616ZM450.816 148.192C451.301 148.192 451.733 148.099 452.112 147.912C452.491 147.72 452.784 147.453 452.992 147.112C453.205 146.765 453.312 146.373 453.312 145.936V145.008L450.52 145.296C450.093 145.339 449.749 145.496 449.488 145.768C449.227 146.04 449.096 146.371 449.096 146.76C449.096 147.037 449.168 147.285 449.312 147.504C449.456 147.717 449.659 147.885 449.92 148.008C450.181 148.131 450.48 148.192 450.816 148.192ZM461.022 140.616C461.635 140.616 462.171 140.749 462.63 141.016C463.088 141.277 463.44 141.651 463.686 142.136C463.936 142.621 464.062 143.187 464.062 143.832V149H462.782V143.928C462.782 143.229 462.6 142.685 462.238 142.296C461.88 141.901 461.382 141.704 460.742 141.704C460.283 141.704 459.88 141.803 459.534 142C459.187 142.192 458.918 142.469 458.726 142.832C458.539 143.195 458.446 143.621 458.446 144.112V149H457.166V140.808H458.398V142.064C458.659 141.584 459.011 141.224 459.454 140.984C459.896 140.739 460.419 140.616 461.022 140.616ZM474.059 140.808H474.067V149H472.835V147.624C472.52 148.125 472.112 148.512 471.611 148.784C471.109 149.056 470.547 149.192 469.923 149.192C469.181 149.192 468.509 149.005 467.907 148.632C467.304 148.259 466.832 147.747 466.491 147.096C466.149 146.44 465.979 145.709 465.979 144.904C465.979 144.099 466.149 143.371 466.491 142.72C466.832 142.064 467.304 141.549 467.907 141.176C468.509 140.803 469.181 140.616 469.923 140.616C470.547 140.616 471.107 140.752 471.603 141.024C472.104 141.296 472.512 141.683 472.827 142.184L472.779 137.8H474.059V140.808ZM470.043 148.04C470.565 148.04 471.035 147.904 471.451 147.632C471.872 147.36 472.2 146.987 472.435 146.512C472.669 146.032 472.787 145.496 472.787 144.904C472.787 144.312 472.669 143.779 472.435 143.304C472.2 142.824 471.872 142.448 471.451 142.176C471.035 141.904 470.565 141.768 470.043 141.768C469.525 141.768 469.059 141.904 468.643 142.176C468.232 142.448 467.909 142.824 467.675 143.304C467.44 143.779 467.323 144.312 467.323 144.904C467.323 145.496 467.44 146.032 467.675 146.512C467.909 146.987 468.232 147.36 468.643 147.632C469.059 147.904 469.525 148.04 470.043 148.04ZM480.752 140.728V142.064H480.456C479.709 142.064 479.123 142.288 478.696 142.736C478.269 143.184 478.056 143.813 478.056 144.624V149H476.776V140.808H478.056V142.456C478.285 141.901 478.605 141.475 479.016 141.176C479.432 140.877 479.928 140.728 480.504 140.728H480.752ZM485.92 149.192C485.141 149.192 484.44 149.008 483.816 148.64C483.192 148.267 482.701 147.755 482.344 147.104C481.987 146.453 481.808 145.72 481.808 144.904C481.808 144.088 481.987 143.355 482.344 142.704C482.701 142.053 483.195 141.544 483.824 141.176C484.453 140.803 485.157 140.616 485.936 140.616C486.715 140.616 487.419 140.803 488.048 141.176C488.677 141.544 489.171 142.053 489.528 142.704C489.885 143.355 490.064 144.088 490.064 144.904C490.064 145.72 489.883 146.453 489.52 147.104C489.163 147.755 488.669 148.267 488.04 148.64C487.411 149.008 486.704 149.192 485.92 149.192ZM485.936 148.008C486.469 148.008 486.947 147.88 487.368 147.624C487.789 147.363 488.12 146.997 488.36 146.528C488.6 146.059 488.72 145.517 488.72 144.904C488.72 144.291 488.6 143.749 488.36 143.28C488.12 142.805 487.789 142.44 487.368 142.184C486.947 141.923 486.469 141.792 485.936 141.792C485.403 141.792 484.925 141.923 484.504 142.184C484.083 142.44 483.752 142.805 483.512 143.28C483.272 143.749 483.152 144.291 483.152 144.904C483.152 145.517 483.272 146.059 483.512 146.528C483.752 146.997 484.083 147.363 484.504 147.624C484.925 147.88 485.403 148.008 485.936 148.008ZM493.463 149H492.183V140.808H493.463V149ZM492.095 139.32V137.8H493.551V139.32H492.095ZM503.655 140.808H503.663V149H502.431V147.624C502.116 148.125 501.708 148.512 501.207 148.784C500.705 149.056 500.143 149.192 499.519 149.192C498.777 149.192 498.105 149.005 497.503 148.632C496.9 148.259 496.428 147.747 496.087 147.096C495.745 146.44 495.575 145.709 495.575 144.904C495.575 144.099 495.745 143.371 496.087 142.72C496.428 142.064 496.9 141.549 497.503 141.176C498.105 140.803 498.777 140.616 499.519 140.616C500.143 140.616 500.703 140.752 501.199 141.024C501.7 141.296 502.108 141.683 502.423 142.184L502.375 137.8H503.655V140.808ZM499.639 148.04C500.161 148.04 500.631 147.904 501.047 147.632C501.468 147.36 501.796 146.987 502.031 146.512C502.265 146.032 502.383 145.496 502.383 144.904C502.383 144.312 502.265 143.779 502.031 143.304C501.796 142.824 501.468 142.448 501.047 142.176C500.631 141.904 500.161 141.768 499.639 141.768C499.121 141.768 498.655 141.904 498.239 142.176C497.828 142.448 497.505 142.824 497.271 143.304C497.036 143.779 496.919 144.312 496.919 144.904C496.919 145.496 497.036 146.032 497.271 146.512C497.505 146.987 497.828 147.36 498.239 147.632C498.655 147.904 499.121 148.04 499.639 148.04ZM509.172 139.04H505.508V137.8H514.148V139.04H510.5V149.032H509.172V139.04ZM517.672 140.616C518.291 140.616 518.832 140.731 519.296 140.96C519.765 141.184 520.128 141.512 520.384 141.944C520.64 142.376 520.768 142.896 520.768 143.504V149H519.52V147.784C519.269 148.243 518.909 148.592 518.44 148.832C517.976 149.072 517.419 149.192 516.768 149.192C516.229 149.192 515.749 149.093 515.328 148.896C514.912 148.693 514.587 148.413 514.352 148.056C514.123 147.699 514.008 147.291 514.008 146.832C514.008 146.405 514.115 146.013 514.328 145.656C514.547 145.293 514.848 144.997 515.232 144.768C515.616 144.539 516.051 144.4 516.536 144.352L518.928 144.112C519.104 144.096 519.243 144.021 519.344 143.888C519.451 143.755 519.504 143.563 519.504 143.312C519.504 142.987 519.424 142.701 519.264 142.456C519.109 142.211 518.891 142.021 518.608 141.888C518.331 141.755 518.008 141.688 517.64 141.688C517.277 141.688 516.947 141.749 516.648 141.872C516.349 141.995 516.107 142.163 515.92 142.376C515.733 142.589 515.624 142.824 515.592 143.08H514.344C514.392 142.627 514.568 142.213 514.872 141.84C515.176 141.461 515.573 141.163 516.064 140.944C516.555 140.725 517.091 140.616 517.672 140.616ZM517.008 148.192C517.493 148.192 517.925 148.099 518.304 147.912C518.683 147.72 518.976 147.453 519.184 147.112C519.397 146.765 519.504 146.373 519.504 145.936V145.008L516.712 145.296C516.285 145.339 515.941 145.496 515.68 145.768C515.419 146.04 515.288 146.371 515.288 146.76C515.288 147.037 515.36 147.285 515.504 147.504C515.648 147.717 515.851 147.885 516.112 148.008C516.373 148.131 516.672 148.192 517.008 148.192ZM527.334 140.728V142.064H527.038C526.291 142.064 525.704 142.288 525.278 142.736C524.851 143.184 524.638 143.813 524.638 144.624V149H523.358V140.808H524.638V142.456C524.867 141.901 525.187 141.475 525.598 141.176C526.014 140.877 526.51 140.728 527.086 140.728H527.334ZM534.87 140.808H536.11L536.094 148.352C536.094 149.061 535.942 149.669 535.638 150.176C535.34 150.688 534.908 151.077 534.342 151.344C533.782 151.616 533.121 151.752 532.358 151.752C531.66 151.752 531.036 151.635 530.486 151.4C529.942 151.171 529.508 150.848 529.182 150.432C528.857 150.016 528.665 149.536 528.606 148.992H529.886C529.956 149.312 530.102 149.597 530.326 149.848C530.55 150.104 530.836 150.301 531.182 150.44C531.534 150.584 531.926 150.656 532.358 150.656C533.121 150.656 533.718 150.453 534.15 150.048C534.588 149.648 534.806 149.083 534.806 148.352V147.784L534.83 146.944C534.521 147.381 534.126 147.72 533.646 147.96C533.172 148.195 532.641 148.312 532.054 148.312C531.361 148.312 530.74 148.149 530.19 147.824C529.646 147.499 529.22 147.045 528.91 146.464C528.606 145.883 528.454 145.221 528.454 144.48C528.454 143.739 528.606 143.077 528.91 142.496C529.22 141.915 529.646 141.461 530.19 141.136C530.74 140.811 531.361 140.648 532.054 140.648C532.652 140.648 533.193 140.773 533.678 141.024C534.164 141.269 534.561 141.619 534.87 142.072V140.808ZM532.286 147.192C532.777 147.192 533.214 147.08 533.598 146.856C533.982 146.632 534.281 146.315 534.494 145.904C534.713 145.493 534.822 145.019 534.822 144.48C534.822 143.941 534.713 143.467 534.494 143.056C534.281 142.645 533.982 142.328 533.598 142.104C533.214 141.88 532.777 141.768 532.286 141.768C531.801 141.768 531.369 141.883 530.99 142.112C530.612 142.336 530.318 142.653 530.11 143.064C529.902 143.469 529.798 143.941 529.798 144.48C529.798 145.019 529.902 145.493 530.11 145.904C530.318 146.309 530.612 146.627 530.99 146.856C531.369 147.08 531.801 147.192 532.286 147.192ZM545.972 145.216H539.476C539.524 145.776 539.671 146.272 539.916 146.704C540.161 147.136 540.484 147.472 540.884 147.712C541.284 147.952 541.737 148.072 542.244 148.072C542.585 148.072 542.913 148.019 543.228 147.912C543.543 147.805 543.817 147.656 544.052 147.464C544.287 147.272 544.455 147.053 544.556 146.808H545.788C545.697 147.256 545.476 147.661 545.124 148.024C544.777 148.387 544.343 148.672 543.82 148.88C543.303 149.088 542.751 149.192 542.164 149.192C541.391 149.192 540.697 149.008 540.084 148.64C539.476 148.272 539.001 147.763 538.66 147.112C538.319 146.456 538.148 145.715 538.148 144.888C538.148 144.083 538.321 143.355 538.668 142.704C539.015 142.053 539.492 141.544 540.1 141.176C540.713 140.803 541.401 140.616 542.164 140.616C542.889 140.616 543.54 140.803 544.116 141.176C544.697 141.544 545.151 142.056 545.476 142.712C545.807 143.363 545.972 144.093 545.972 144.904V145.216ZM542.18 141.744C541.46 141.744 540.863 141.96 540.388 142.392C539.913 142.824 539.62 143.413 539.508 144.16H544.636C544.524 143.419 544.249 142.832 543.812 142.4C543.38 141.963 542.836 141.744 542.18 141.744ZM550.286 149C549.694 149 549.225 148.843 548.878 148.528C548.537 148.213 548.366 147.779 548.366 147.224L548.358 141.944H546.918L546.926 140.808H547.814C548.017 140.808 548.179 140.744 548.302 140.616C548.43 140.488 548.494 140.325 548.494 140.128V138.76H549.646V140.808H551.622L551.614 141.944H549.638L549.646 147.144C549.646 147.368 549.71 147.544 549.838 147.672C549.971 147.8 550.147 147.864 550.366 147.864H551.614V149H550.286Z" fill="#19191C"/>
<rect x="356" y="24" width="100" height="48" rx="2" fill="#4DBB5F" fill-opacity="0.2"/>
<path d="M376.8 53.192C376.027 53.192 375.328 53.0053 374.704 52.632C374.08 52.2587 373.589 51.7467 373.232 51.096C372.88 50.44 372.704 49.7093 372.704 48.904C372.704 48.0987 372.88 47.3707 373.232 46.72C373.589 46.064 374.08 45.5493 374.704 45.176C375.328 44.8027 376.027 44.616 376.8 44.616C377.792 44.616 378.624 44.8693 379.296 45.376C379.968 45.8773 380.397 46.6053 380.584 47.56H379.304C379.133 46.9733 378.819 46.5307 378.36 46.232C377.907 45.928 377.387 45.776 376.8 45.776C376.272 45.776 375.797 45.9093 375.376 46.176C374.96 46.4427 374.635 46.8133 374.4 47.288C374.165 47.7627 374.048 48.3013 374.048 48.904C374.048 49.5013 374.165 50.0373 374.4 50.512C374.635 50.9867 374.96 51.36 375.376 51.632C375.797 51.8987 376.272 52.032 376.8 52.032C377.387 52.032 377.907 51.8827 378.36 51.584C378.819 51.28 379.133 50.8347 379.304 50.248H380.584C380.461 50.8667 380.221 51.3973 379.864 51.84C379.507 52.2827 379.064 52.6187 378.536 52.848C378.008 53.0773 377.429 53.192 376.8 53.192ZM386.17 53.192C385.391 53.192 384.682 53.008 384.042 52.64C383.407 52.2667 382.906 51.7547 382.538 51.104C382.175 50.448 381.994 49.7147 381.994 48.904C381.994 48.0933 382.175 47.3627 382.538 46.712C382.906 46.056 383.41 45.544 384.05 45.176C384.69 44.8027 385.399 44.616 386.178 44.616C386.956 44.616 387.663 44.8027 388.298 45.176C388.932 45.544 389.431 46.0533 389.794 46.704C390.162 47.3547 390.346 48.088 390.346 48.904C390.346 49.72 390.162 50.4533 389.794 51.104C389.431 51.7547 388.932 52.2667 388.298 52.64C387.663 53.008 386.954 53.192 386.17 53.192ZM383.338 48.904C383.338 49.5173 383.46 50.0613 383.706 50.536C383.956 51.0053 384.298 51.3707 384.73 51.632C385.167 51.8933 385.652 52.024 386.186 52.024C386.719 52.024 387.199 51.8933 387.626 51.632C388.052 51.3707 388.388 51.0053 388.634 50.536C388.879 50.0613 389.002 49.5173 389.002 48.904C389.002 48.2907 388.879 47.7467 388.634 47.272C388.388 46.7973 388.05 46.4293 387.618 46.168C387.191 45.9067 386.711 45.776 386.178 45.776C385.644 45.776 385.162 45.9067 384.73 46.168C384.298 46.4293 383.956 46.7973 383.706 47.272C383.46 47.7467 383.338 48.2907 383.338 48.904ZM392.479 44.808H393.711V46.192C393.957 45.6853 394.295 45.296 394.727 45.024C395.165 44.752 395.677 44.616 396.263 44.616C396.877 44.616 397.41 44.7627 397.863 45.056C398.317 45.3493 398.655 45.7627 398.879 46.296C399.141 45.7627 399.506 45.3493 399.975 45.056C400.445 44.7627 400.986 44.616 401.599 44.616C402.181 44.616 402.695 44.7493 403.143 45.016C403.597 45.2773 403.949 45.6507 404.199 46.136C404.45 46.6213 404.575 47.1867 404.575 47.832V53H403.295V47.888C403.295 47.2107 403.125 46.6773 402.783 46.288C402.447 45.8987 401.973 45.704 401.359 45.704C400.922 45.704 400.538 45.8053 400.207 46.008C399.877 46.2053 399.621 46.488 399.439 46.856C399.258 47.2187 399.167 47.648 399.167 48.144V53H397.887V47.888C397.887 47.2107 397.717 46.6773 397.375 46.288C397.039 45.8987 396.565 45.704 395.951 45.704C395.509 45.704 395.122 45.8027 394.791 46C394.461 46.1973 394.205 46.48 394.023 46.848C393.847 47.216 393.759 47.648 393.759 48.144V53H392.479V44.808ZM407.159 44.808H408.391V46.192C408.637 45.6853 408.975 45.296 409.407 45.024C409.845 44.752 410.357 44.616 410.943 44.616C411.557 44.616 412.09 44.7627 412.543 45.056C412.997 45.3493 413.335 45.7627 413.559 46.296C413.821 45.7627 414.186 45.3493 414.655 45.056C415.125 44.7627 415.666 44.616 416.279 44.616C416.861 44.616 417.375 44.7493 417.823 45.016C418.277 45.2773 418.629 45.6507 418.879 46.136C419.13 46.6213 419.255 47.1867 419.255 47.832V53H417.975V47.888C417.975 47.2107 417.805 46.6773 417.463 46.288C417.127 45.8987 416.653 45.704 416.039 45.704C415.602 45.704 415.218 45.8053 414.887 46.008C414.557 46.2053 414.301 46.488 414.119 46.856C413.938 47.2187 413.847 47.648 413.847 48.144V53H412.567V47.888C412.567 47.2107 412.397 46.6773 412.055 46.288C411.719 45.8987 411.245 45.704 410.631 45.704C410.189 45.704 409.802 45.8027 409.471 46C409.141 46.1973 408.885 46.48 408.703 46.848C408.527 47.216 408.439 47.648 408.439 48.144V53H407.159V44.808ZM425.32 53.192C424.541 53.192 423.832 53.008 423.192 52.64C422.557 52.2667 422.056 51.7547 421.688 51.104C421.325 50.448 421.144 49.7147 421.144 48.904C421.144 48.0933 421.325 47.3627 421.688 46.712C422.056 46.056 422.56 45.544 423.2 45.176C423.84 44.8027 424.549 44.616 425.328 44.616C426.106 44.616 426.813 44.8027 427.448 45.176C428.082 45.544 428.581 46.0533 428.944 46.704C429.312 47.3547 429.496 48.088 429.496 48.904C429.496 49.72 429.312 50.4533 428.944 51.104C428.581 51.7547 428.082 52.2667 427.448 52.64C426.813 53.008 426.104 53.192 425.32 53.192ZM422.488 48.904C422.488 49.5173 422.61 50.0613 422.856 50.536C423.106 51.0053 423.448 51.3707 423.88 51.632C424.317 51.8933 424.802 52.024 425.336 52.024C425.869 52.024 426.349 51.8933 426.776 51.632C427.202 51.3707 427.538 51.0053 427.784 50.536C428.029 50.0613 428.152 49.5173 428.152 48.904C428.152 48.2907 428.029 47.7467 427.784 47.272C427.538 46.7973 427.2 46.4293 426.768 46.168C426.341 45.9067 425.861 45.776 425.328 45.776C424.794 45.776 424.312 45.9067 423.88 46.168C423.448 46.4293 423.106 46.7973 422.856 47.272C422.61 47.7467 422.488 48.2907 422.488 48.904ZM431.629 44.808H432.861V46.136C433.139 45.6453 433.507 45.2693 433.965 45.008C434.429 44.7467 434.965 44.616 435.573 44.616C436.16 44.616 436.68 44.7413 437.133 44.992C437.587 45.2427 437.941 45.6133 438.197 46.104C438.459 46.5893 438.589 47.1733 438.589 47.856V53H437.309V47.984C437.309 47.2747 437.125 46.7227 436.757 46.328C436.389 45.9333 435.883 45.736 435.237 45.736C434.779 45.736 434.373 45.8373 434.021 46.04C433.669 46.2427 433.395 46.528 433.197 46.896C433.005 47.2587 432.909 47.6747 432.909 48.144V53H431.629V44.808Z" fill="#19191C"/>
<rect x="391" y="312" width="65" height="48" rx="2" fill="#E8E8E8"/>
<path d="M411.032 341C410.643 341 410.288 340.917 409.968 340.752C409.653 340.581 409.405 340.349 409.224 340.056C409.043 339.757 408.952 339.427 408.952 339.064L408.944 333.944H407.504L407.512 332.808H408.4C408.603 332.808 408.765 332.744 408.888 332.616C409.016 332.488 409.08 332.325 409.08 332.128V330.808H410.232V332.808H412.208L412.2 333.944H410.224L410.232 338.984C410.232 339.235 410.315 339.445 410.48 339.616C410.651 339.781 410.861 339.864 411.112 339.864H412.2V341H411.032ZM413.391 332.808H414.783L417.279 339.288L419.695 332.808H421.055L417.831 341H416.631L413.391 332.808ZM426.131 341.192C425.352 341.192 424.643 341.008 424.003 340.64C423.368 340.267 422.867 339.755 422.499 339.104C422.136 338.448 421.955 337.715 421.955 336.904C421.955 336.093 422.136 335.363 422.499 334.712C422.867 334.056 423.371 333.544 424.011 333.176C424.651 332.803 425.36 332.616 426.139 332.616C426.918 332.616 427.624 332.803 428.259 333.176C428.894 333.544 429.392 334.053 429.755 334.704C430.123 335.355 430.307 336.088 430.307 336.904C430.307 337.72 430.123 338.453 429.755 339.104C429.392 339.755 428.894 340.267 428.259 340.64C427.624 341.008 426.915 341.192 426.131 341.192ZM423.299 336.904C423.299 337.517 423.422 338.061 423.667 338.536C423.918 339.005 424.259 339.371 424.691 339.632C425.128 339.893 425.614 340.024 426.147 340.024C426.68 340.024 427.16 339.893 427.587 339.632C428.014 339.371 428.35 339.005 428.595 338.536C428.84 338.061 428.963 337.517 428.963 336.904C428.963 336.291 428.84 335.747 428.595 335.272C428.35 334.797 428.011 334.429 427.579 334.168C427.152 333.907 426.672 333.776 426.139 333.776C425.606 333.776 425.123 333.907 424.691 334.168C424.259 334.429 423.918 334.797 423.667 335.272C423.422 335.747 423.299 336.291 423.299 336.904ZM435.145 341.192C434.526 341.192 433.966 341.093 433.465 340.896C432.969 340.699 432.571 340.424 432.273 340.072C431.979 339.715 431.822 339.312 431.801 338.864H433.105C433.126 339.109 433.227 339.331 433.409 339.528C433.59 339.72 433.83 339.872 434.129 339.984C434.427 340.096 434.761 340.152 435.129 340.152C435.502 340.152 435.83 340.091 436.113 339.968C436.401 339.845 436.622 339.675 436.777 339.456C436.937 339.237 437.017 338.989 437.017 338.712C437.017 338.413 436.931 338.163 436.761 337.96C436.595 337.752 436.363 337.621 436.065 337.568L434.089 337.208C433.459 337.091 432.969 336.837 432.617 336.448C432.265 336.053 432.089 335.555 432.089 334.952C432.089 334.52 432.211 334.128 432.457 333.776C432.707 333.419 433.057 333.136 433.505 332.928C433.953 332.72 434.465 332.616 435.041 332.616C435.611 332.616 436.126 332.709 436.585 332.896C437.043 333.083 437.409 333.341 437.681 333.672C437.953 334.003 438.099 334.371 438.121 334.776H436.817C436.801 334.563 436.713 334.371 436.553 334.2C436.398 334.029 436.19 333.896 435.929 333.8C435.667 333.704 435.374 333.656 435.049 333.656C434.718 333.656 434.425 333.712 434.169 333.824C433.913 333.936 433.713 334.091 433.569 334.288C433.43 334.48 433.361 334.699 433.361 334.944C433.361 335.221 433.438 335.451 433.593 335.632C433.747 335.813 433.974 335.931 434.273 335.984L436.297 336.344C436.713 336.419 437.07 336.565 437.369 336.784C437.673 337.003 437.902 337.275 438.057 337.6C438.217 337.925 438.297 338.28 438.297 338.664C438.297 339.144 438.158 339.576 437.881 339.96C437.609 340.344 437.233 340.645 436.753 340.864C436.273 341.083 435.737 341.192 435.145 341.192Z" fill="#19191C"/>
<rect x="304" y="408" width="178" height="48" rx="2" fill="#4DBB5F" fill-opacity="0.2"/>
<path d="M321.4 428.808H322.68V437H321.4V428.808ZM322.792 425.8V427.32H321.288V425.8H322.792ZM328.982 437.192C328.203 437.192 327.494 437.008 326.854 436.64C326.219 436.267 325.718 435.755 325.35 435.104C324.987 434.448 324.806 433.715 324.806 432.904C324.806 432.093 324.987 431.363 325.35 430.712C325.718 430.056 326.222 429.544 326.862 429.176C327.502 428.803 328.211 428.616 328.99 428.616C329.769 428.616 330.475 428.803 331.11 429.176C331.745 429.544 332.243 430.053 332.606 430.704C332.974 431.355 333.158 432.088 333.158 432.904C333.158 433.72 332.974 434.453 332.606 435.104C332.243 435.755 331.745 436.267 331.11 436.64C330.475 437.008 329.766 437.192 328.982 437.192ZM326.15 432.904C326.15 433.517 326.273 434.061 326.518 434.536C326.769 435.005 327.11 435.371 327.542 435.632C327.979 435.893 328.465 436.024 328.998 436.024C329.531 436.024 330.011 435.893 330.438 435.632C330.865 435.371 331.201 435.005 331.446 434.536C331.691 434.061 331.814 433.517 331.814 432.904C331.814 432.291 331.691 431.747 331.446 431.272C331.201 430.797 330.862 430.429 330.43 430.168C330.003 429.907 329.523 429.776 328.99 429.776C328.457 429.776 327.974 429.907 327.542 430.168C327.11 430.429 326.769 430.797 326.518 431.272C326.273 431.747 326.15 432.291 326.15 432.904ZM337.996 437.192C337.377 437.192 336.817 437.093 336.316 436.896C335.82 436.699 335.422 436.424 335.124 436.072C334.83 435.715 334.673 435.312 334.652 434.864H335.956C335.977 435.109 336.078 435.331 336.26 435.528C336.441 435.72 336.681 435.872 336.98 435.984C337.278 436.096 337.612 436.152 337.98 436.152C338.353 436.152 338.681 436.091 338.964 435.968C339.252 435.845 339.473 435.675 339.628 435.456C339.788 435.237 339.868 434.989 339.868 434.712C339.868 434.413 339.782 434.163 339.612 433.96C339.446 433.752 339.214 433.621 338.916 433.568L336.94 433.208C336.31 433.091 335.82 432.837 335.468 432.448C335.116 432.053 334.94 431.555 334.94 430.952C334.94 430.52 335.062 430.128 335.308 429.776C335.558 429.419 335.908 429.136 336.356 428.928C336.804 428.72 337.316 428.616 337.892 428.616C338.462 428.616 338.977 428.709 339.436 428.896C339.894 429.083 340.26 429.341 340.532 429.672C340.804 430.003 340.95 430.371 340.972 430.776H339.668C339.652 430.563 339.564 430.371 339.404 430.2C339.249 430.029 339.041 429.896 338.78 429.8C338.518 429.704 338.225 429.656 337.9 429.656C337.569 429.656 337.276 429.712 337.02 429.824C336.764 429.936 336.564 430.091 336.42 430.288C336.281 430.48 336.212 430.699 336.212 430.944C336.212 431.221 336.289 431.451 336.444 431.632C336.598 431.813 336.825 431.931 337.124 431.984L339.148 432.344C339.564 432.419 339.921 432.565 340.22 432.784C340.524 433.003 340.753 433.275 340.908 433.6C341.068 433.925 341.148 434.28 341.148 434.664C341.148 435.144 341.009 435.576 340.732 435.96C340.46 436.344 340.084 436.645 339.604 436.864C339.124 437.083 338.588 437.192 337.996 437.192ZM346.715 437.192C345.947 437.192 345.267 437.051 344.675 436.768C344.089 436.485 343.63 436.091 343.299 435.584C342.974 435.077 342.811 434.496 342.811 433.84H344.171C344.171 434.261 344.278 434.635 344.491 434.96C344.705 435.285 345.006 435.539 345.395 435.72C345.785 435.901 346.23 435.992 346.731 435.992C347.227 435.992 347.662 435.909 348.035 435.744C348.414 435.573 348.705 435.336 348.907 435.032C349.115 434.723 349.219 434.368 349.219 433.968C349.219 433.461 349.067 433.027 348.763 432.664C348.465 432.301 348.065 432.077 347.563 431.992L345.755 431.68C345.211 431.584 344.739 431.395 344.339 431.112C343.939 430.829 343.633 430.477 343.419 430.056C343.206 429.635 343.099 429.176 343.099 428.68C343.099 428.099 343.251 427.576 343.555 427.112C343.865 426.643 344.291 426.275 344.835 426.008C345.385 425.741 346.001 425.608 346.683 425.608C347.387 425.608 348.014 425.741 348.563 426.008C349.113 426.269 349.539 426.635 349.843 427.104C350.147 427.573 350.299 428.109 350.299 428.712H348.939C348.939 428.344 348.846 428.016 348.659 427.728C348.473 427.435 348.209 427.208 347.867 427.048C347.531 426.888 347.142 426.808 346.699 426.808C346.257 426.808 345.865 426.885 345.523 427.04C345.182 427.195 344.915 427.413 344.723 427.696C344.537 427.979 344.443 428.307 344.443 428.68C344.443 429.123 344.585 429.504 344.867 429.824C345.155 430.144 345.531 430.344 345.995 430.424L347.835 430.744C348.369 430.84 348.843 431.045 349.259 431.36C349.675 431.675 349.998 432.061 350.227 432.52C350.457 432.973 350.571 433.451 350.571 433.952C350.571 434.555 350.409 435.104 350.083 435.6C349.758 436.091 349.302 436.48 348.715 436.768C348.129 437.051 347.462 437.192 346.715 437.192ZM352.965 428.808H354.245V437H352.965V428.808ZM354.357 425.8V427.32H352.853V425.8H354.357ZM357.067 428.808H358.299V430.192C358.544 429.685 358.883 429.296 359.315 429.024C359.752 428.752 360.264 428.616 360.851 428.616C361.464 428.616 361.998 428.763 362.451 429.056C362.904 429.349 363.243 429.763 363.467 430.296C363.728 429.763 364.094 429.349 364.563 429.056C365.032 428.763 365.574 428.616 366.187 428.616C366.768 428.616 367.283 428.749 367.731 429.016C368.184 429.277 368.536 429.651 368.787 430.136C369.038 430.621 369.163 431.187 369.163 431.832V437H367.883V431.888C367.883 431.211 367.712 430.677 367.371 430.288C367.035 429.899 366.56 429.704 365.947 429.704C365.51 429.704 365.126 429.805 364.795 430.008C364.464 430.205 364.208 430.488 364.027 430.856C363.846 431.219 363.755 431.648 363.755 432.144V437H362.475V431.888C362.475 431.211 362.304 430.677 361.963 430.288C361.627 429.899 361.152 429.704 360.539 429.704C360.096 429.704 359.71 429.803 359.379 430C359.048 430.197 358.792 430.48 358.611 430.848C358.435 431.216 358.347 431.648 358.347 432.144V437H357.067V428.808ZM378.467 437H377.235V435.672C376.958 436.163 376.587 436.539 376.123 436.8C375.664 437.061 375.131 437.192 374.523 437.192C373.936 437.192 373.416 437.067 372.963 436.816C372.51 436.565 372.152 436.197 371.891 435.712C371.635 435.221 371.507 434.635 371.507 433.952V428.808H372.787V433.824C372.787 434.533 372.971 435.085 373.339 435.48C373.707 435.875 374.214 436.072 374.859 436.072C375.318 436.072 375.723 435.971 376.075 435.768C376.427 435.565 376.699 435.283 376.891 434.92C377.088 434.552 377.187 434.133 377.187 433.664V428.808H378.467V437ZM381.287 425.8H382.567V437H381.287V425.8ZM388.277 428.616C388.896 428.616 389.44 428.731 389.909 428.96C390.378 429.184 390.741 429.515 390.997 429.952C391.258 430.384 391.389 430.899 391.389 431.496V437H390.141V435.664C389.912 436.16 389.576 436.539 389.133 436.8C388.69 437.061 388.165 437.192 387.557 437.192C387.034 437.192 386.562 437.091 386.141 436.888C385.72 436.685 385.389 436.405 385.149 436.048C384.909 435.691 384.789 435.285 384.789 434.832C384.789 434.405 384.898 434.013 385.117 433.656C385.341 433.293 385.648 432.997 386.037 432.768C386.432 432.539 386.874 432.397 387.365 432.344L389.549 432.104C389.73 432.083 389.872 432.008 389.973 431.88C390.074 431.752 390.125 431.565 390.125 431.32C390.125 430.995 390.048 430.709 389.893 430.464C389.738 430.219 389.52 430.029 389.237 429.896C388.96 429.757 388.637 429.688 388.269 429.688C387.901 429.688 387.57 429.752 387.277 429.88C386.984 430.003 386.746 430.171 386.565 430.384C386.389 430.592 386.282 430.819 386.245 431.064H384.965C385.029 430.6 385.21 430.184 385.509 429.816C385.813 429.443 386.205 429.149 386.685 428.936C387.165 428.723 387.696 428.616 388.277 428.616ZM386.117 434.76C386.117 435.037 386.189 435.283 386.333 435.496C386.482 435.709 386.688 435.877 386.949 436C387.21 436.117 387.509 436.176 387.845 436.176C388.304 436.176 388.704 436.083 389.045 435.896C389.392 435.709 389.658 435.448 389.845 435.112C390.032 434.771 390.125 434.379 390.125 433.936V433L387.541 433.288C387.114 433.336 386.77 433.496 386.509 433.768C386.248 434.04 386.117 434.371 386.117 434.76ZM396.607 437C396.218 437 395.863 436.917 395.543 436.752C395.229 436.581 394.981 436.349 394.799 436.056C394.618 435.757 394.527 435.427 394.527 435.064L394.519 429.944H393.079L393.087 428.808H393.975C394.178 428.808 394.341 428.744 394.463 428.616C394.591 428.488 394.655 428.325 394.655 428.128V426.808H395.807V428.808H397.783L397.775 429.944H395.799L395.807 434.984C395.807 435.235 395.89 435.445 396.055 435.616C396.226 435.781 396.437 435.864 396.687 435.864H397.775V437H396.607ZM403.511 437.192C402.732 437.192 402.023 437.008 401.383 436.64C400.748 436.267 400.247 435.755 399.879 435.104C399.516 434.448 399.335 433.715 399.335 432.904C399.335 432.093 399.516 431.363 399.879 430.712C400.247 430.056 400.751 429.544 401.391 429.176C402.031 428.803 402.74 428.616 403.519 428.616C404.297 428.616 405.004 428.803 405.639 429.176C406.273 429.544 406.772 430.053 407.135 430.704C407.503 431.355 407.687 432.088 407.687 432.904C407.687 433.72 407.503 434.453 407.135 435.104C406.772 435.755 406.273 436.267 405.639 436.64C405.004 437.008 404.295 437.192 403.511 437.192ZM400.679 432.904C400.679 433.517 400.801 434.061 401.047 434.536C401.297 435.005 401.639 435.371 402.071 435.632C402.508 435.893 402.993 436.024 403.527 436.024C404.06 436.024 404.54 435.893 404.967 435.632C405.393 435.371 405.729 435.005 405.975 434.536C406.22 434.061 406.343 433.517 406.343 432.904C406.343 432.291 406.22 431.747 405.975 431.272C405.729 430.797 405.391 430.429 404.959 430.168C404.532 429.907 404.052 429.776 403.519 429.776C402.985 429.776 402.503 429.907 402.071 430.168C401.639 430.429 401.297 430.797 401.047 431.272C400.801 431.747 400.679 432.291 400.679 432.904ZM409.82 428.808H411.1V430.168C411.362 429.704 411.7 429.349 412.116 429.104C412.532 428.853 413.01 428.728 413.548 428.728H413.836V430.064H413.5C413.015 430.064 412.591 430.157 412.228 430.344C411.866 430.531 411.586 430.797 411.388 431.144C411.196 431.485 411.1 431.888 411.1 432.352V437H409.82V428.808ZM418.659 425.8H420.091L424.395 437H422.987L421.907 434.024H416.955L415.947 437H414.507L418.659 425.8ZM421.475 432.872L419.563 427.664L419.371 426.984L419.179 427.664L417.363 432.872H421.475ZM426.165 428.808H427.445V430.168C427.706 429.704 428.045 429.349 428.461 429.104C428.877 428.853 429.354 428.728 429.893 428.728H430.181V430.064H429.845C429.36 430.064 428.936 430.157 428.573 430.344C428.21 430.531 427.93 430.797 427.733 431.144C427.541 431.485 427.445 431.888 427.445 432.352V437H426.165V428.808ZM431.908 428.808H433.14V430.192C433.385 429.685 433.724 429.296 434.156 429.024C434.593 428.752 435.105 428.616 435.692 428.616C436.305 428.616 436.839 428.763 437.292 429.056C437.745 429.349 438.084 429.763 438.308 430.296C438.569 429.763 438.935 429.349 439.404 429.056C439.873 428.763 440.415 428.616 441.028 428.616C441.609 428.616 442.124 428.749 442.572 429.016C443.025 429.277 443.377 429.651 443.628 430.136C443.879 430.621 444.004 431.187 444.004 431.832V437H442.724V431.888C442.724 431.211 442.553 430.677 442.212 430.288C441.876 429.899 441.401 429.704 440.788 429.704C440.351 429.704 439.967 429.805 439.636 430.008C439.305 430.205 439.049 430.488 438.868 430.856C438.687 431.219 438.596 431.648 438.596 432.144V437H437.316V431.888C437.316 431.211 437.145 430.677 436.804 430.288C436.468 429.899 435.993 429.704 435.38 429.704C434.937 429.704 434.551 429.803 434.22 430C433.889 430.197 433.633 430.48 433.452 430.848C433.276 431.216 433.188 431.648 433.188 432.144V437H431.908V428.808ZM450.22 437.192C449.569 437.192 448.988 437.056 448.476 436.784C447.969 436.512 447.545 436.12 447.204 435.608C446.553 434.648 446.228 433.317 446.228 431.616V431.264C446.228 430.16 446.396 429.179 446.732 428.32C447.068 427.461 447.537 426.795 448.14 426.32C448.748 425.845 449.441 425.608 450.22 425.608C451.063 425.608 451.796 425.8 452.42 426.184C453.044 426.563 453.487 427.16 453.748 427.976H452.356C452.191 427.603 451.929 427.309 451.572 427.096C451.215 426.883 450.791 426.776 450.3 426.776C449.751 426.776 449.263 426.96 448.836 427.328C448.415 427.696 448.087 428.211 447.852 428.872C447.623 429.533 447.508 430.291 447.508 431.144V431.224C447.657 430.909 447.873 430.627 448.156 430.376C448.444 430.125 448.777 429.931 449.156 429.792C449.54 429.648 449.943 429.576 450.364 429.576C451.105 429.576 451.756 429.736 452.316 430.056C452.876 430.376 453.308 430.821 453.612 431.392C453.916 431.957 454.068 432.597 454.068 433.312C454.068 434.08 453.911 434.757 453.596 435.344C453.281 435.931 452.833 436.387 452.252 436.712C451.676 437.032 450.999 437.192 450.22 437.192ZM447.74 433.344C447.74 433.845 447.849 434.301 448.068 434.712C448.287 435.117 448.585 435.437 448.964 435.672C449.343 435.907 449.767 436.024 450.236 436.024C450.711 436.024 451.14 435.907 451.524 435.672C451.908 435.437 452.209 435.117 452.428 434.712C452.647 434.301 452.756 433.845 452.756 433.344C452.756 432.843 452.647 432.389 452.428 431.984C452.209 431.573 451.908 431.251 451.524 431.016C451.14 430.781 450.711 430.664 450.236 430.664C449.767 430.664 449.343 430.781 448.964 431.016C448.585 431.251 448.287 431.573 448.068 431.984C447.849 432.389 447.74 432.843 447.74 433.344ZM461.454 434.24H455.654V432.976L461.446 425.8H462.766V433.024H464.574V434.24H462.766V437H461.454V434.24ZM461.454 433.024V427.504L457.014 433.024H461.454Z" fill="#19191C"/>
<rect x="158" y="408" width="105" height="48" rx="2" fill="#4DBB5F" fill-opacity="0.2"/>
<path d="M175.4 428.808H176.68V437H175.4V428.808ZM176.792 425.8V427.32H175.288V425.8H176.792ZM182.982 437.192C182.203 437.192 181.494 437.008 180.854 436.64C180.219 436.267 179.718 435.755 179.35 435.104C178.987 434.448 178.806 433.715 178.806 432.904C178.806 432.093 178.987 431.363 179.35 430.712C179.718 430.056 180.222 429.544 180.862 429.176C181.502 428.803 182.211 428.616 182.99 428.616C183.769 428.616 184.475 428.803 185.11 429.176C185.745 429.544 186.243 430.053 186.606 430.704C186.974 431.355 187.158 432.088 187.158 432.904C187.158 433.72 186.974 434.453 186.606 435.104C186.243 435.755 185.745 436.267 185.11 436.64C184.475 437.008 183.766 437.192 182.982 437.192ZM180.15 432.904C180.15 433.517 180.273 434.061 180.518 434.536C180.769 435.005 181.11 435.371 181.542 435.632C181.979 435.893 182.465 436.024 182.998 436.024C183.531 436.024 184.011 435.893 184.438 435.632C184.865 435.371 185.201 435.005 185.446 434.536C185.691 434.061 185.814 433.517 185.814 432.904C185.814 432.291 185.691 431.747 185.446 431.272C185.201 430.797 184.862 430.429 184.43 430.168C184.003 429.907 183.523 429.776 182.99 429.776C182.457 429.776 181.974 429.907 181.542 430.168C181.11 430.429 180.769 430.797 180.518 431.272C180.273 431.747 180.15 432.291 180.15 432.904ZM191.996 437.192C191.377 437.192 190.817 437.093 190.316 436.896C189.82 436.699 189.422 436.424 189.124 436.072C188.83 435.715 188.673 435.312 188.652 434.864H189.956C189.977 435.109 190.078 435.331 190.26 435.528C190.441 435.72 190.681 435.872 190.98 435.984C191.278 436.096 191.612 436.152 191.98 436.152C192.353 436.152 192.681 436.091 192.964 435.968C193.252 435.845 193.473 435.675 193.628 435.456C193.788 435.237 193.868 434.989 193.868 434.712C193.868 434.413 193.782 434.163 193.612 433.96C193.446 433.752 193.214 433.621 192.916 433.568L190.94 433.208C190.31 433.091 189.82 432.837 189.468 432.448C189.116 432.053 188.94 431.555 188.94 430.952C188.94 430.52 189.062 430.128 189.308 429.776C189.558 429.419 189.908 429.136 190.356 428.928C190.804 428.72 191.316 428.616 191.892 428.616C192.462 428.616 192.977 428.709 193.436 428.896C193.894 429.083 194.26 429.341 194.532 429.672C194.804 430.003 194.95 430.371 194.972 430.776H193.668C193.652 430.563 193.564 430.371 193.404 430.2C193.249 430.029 193.041 429.896 192.78 429.8C192.518 429.704 192.225 429.656 191.9 429.656C191.569 429.656 191.276 429.712 191.02 429.824C190.764 429.936 190.564 430.091 190.42 430.288C190.281 430.48 190.212 430.699 190.212 430.944C190.212 431.221 190.289 431.451 190.444 431.632C190.598 431.813 190.825 431.931 191.124 431.984L193.148 432.344C193.564 432.419 193.921 432.565 194.22 432.784C194.524 433.003 194.753 433.275 194.908 433.6C195.068 433.925 195.148 434.28 195.148 434.664C195.148 435.144 195.009 435.576 194.732 435.96C194.46 436.344 194.084 436.645 193.604 436.864C193.124 437.083 192.588 437.192 191.996 437.192ZM200.427 425.8H201.859L206.163 437H204.755L203.675 434.024H198.723L197.715 437H196.275L200.427 425.8ZM203.243 432.872L201.331 427.664L201.139 426.984L200.947 427.664L199.131 432.872H203.243ZM207.934 428.808H209.214V430.168C209.475 429.704 209.814 429.349 210.23 429.104C210.646 428.853 211.123 428.728 211.662 428.728H211.95V430.064H211.614C211.128 430.064 210.704 430.157 210.342 430.344C209.979 430.531 209.699 430.797 209.502 431.144C209.31 431.485 209.214 431.888 209.214 432.352V437H207.934V428.808ZM213.676 428.808H214.908V430.192C215.154 429.685 215.492 429.296 215.924 429.024C216.362 428.752 216.874 428.616 217.46 428.616C218.074 428.616 218.607 428.763 219.06 429.056C219.514 429.349 219.852 429.763 220.076 430.296C220.338 429.763 220.703 429.349 221.172 429.056C221.642 428.763 222.183 428.616 222.796 428.616C223.378 428.616 223.892 428.749 224.34 429.016C224.794 429.277 225.146 429.651 225.396 430.136C225.647 430.621 225.772 431.187 225.772 431.832V437H224.492V431.888C224.492 431.211 224.322 430.677 223.98 430.288C223.644 429.899 223.17 429.704 222.556 429.704C222.119 429.704 221.735 429.805 221.404 430.008C221.074 430.205 220.818 430.488 220.636 430.856C220.455 431.219 220.364 431.648 220.364 432.144V437H219.084V431.888C219.084 431.211 218.914 430.677 218.572 430.288C218.236 429.899 217.762 429.704 217.148 429.704C216.706 429.704 216.319 429.803 215.988 430C215.658 430.197 215.402 430.48 215.22 430.848C215.044 431.216 214.956 431.648 214.956 432.144V437H213.676V428.808ZM231.989 437.192C231.338 437.192 230.757 437.056 230.245 436.784C229.738 436.512 229.314 436.12 228.973 435.608C228.322 434.648 227.997 433.317 227.997 431.616V431.264C227.997 430.16 228.165 429.179 228.501 428.32C228.837 427.461 229.306 426.795 229.909 426.32C230.517 425.845 231.21 425.608 231.989 425.608C232.831 425.608 233.565 425.8 234.189 426.184C234.813 426.563 235.255 427.16 235.517 427.976H234.125C233.959 427.603 233.698 427.309 233.341 427.096C232.983 426.883 232.559 426.776 232.069 426.776C231.519 426.776 231.031 426.96 230.605 427.328C230.183 427.696 229.855 428.211 229.621 428.872C229.391 429.533 229.277 430.291 229.277 431.144V431.224C229.426 430.909 229.642 430.627 229.925 430.376C230.213 430.125 230.546 429.931 230.925 429.792C231.309 429.648 231.711 429.576 232.133 429.576C232.874 429.576 233.525 429.736 234.085 430.056C234.645 430.376 235.077 430.821 235.381 431.392C235.685 431.957 235.837 432.597 235.837 433.312C235.837 434.08 235.679 434.757 235.365 435.344C235.05 435.931 234.602 436.387 234.021 436.712C233.445 437.032 232.767 437.192 231.989 437.192ZM229.509 433.344C229.509 433.845 229.618 434.301 229.837 434.712C230.055 435.117 230.354 435.437 230.733 435.672C231.111 435.907 231.535 436.024 232.005 436.024C232.479 436.024 232.909 435.907 233.293 435.672C233.677 435.437 233.978 435.117 234.197 434.712C234.415 434.301 234.525 433.845 234.525 433.344C234.525 432.843 234.415 432.389 234.197 431.984C233.978 431.573 233.677 431.251 233.293 431.016C232.909 430.781 232.479 430.664 232.005 430.664C231.535 430.664 231.111 430.781 230.733 431.016C230.354 431.251 230.055 431.573 229.837 431.984C229.618 432.389 229.509 432.843 229.509 433.344ZM243.222 434.24H237.422V432.976L243.214 425.8H244.534V433.024H246.342V434.24H244.534V437H243.222V434.24ZM243.222 433.024V427.504L238.782 433.024H243.222Z" fill="#19191C"/>
<rect x="494" y="312" width="96" height="48" rx="2" fill="#E8E8E8"/>
<path d="M514.416 341H513.088L510.392 332.808H511.752L513.624 338.832L513.808 339.488L513.968 338.832L515.912 332.808H517.232L519.184 338.832L519.36 339.488L519.528 338.832L521.352 332.808H522.68L519.984 341H518.64L516.72 334.704L516.568 334.176L516.432 334.688L514.416 341ZM527.348 332.616C527.966 332.616 528.508 332.731 528.972 332.96C529.441 333.184 529.804 333.512 530.06 333.944C530.316 334.376 530.444 334.896 530.444 335.504V341H529.196V339.784C528.945 340.243 528.585 340.592 528.116 340.832C527.652 341.072 527.094 341.192 526.444 341.192C525.905 341.192 525.425 341.093 525.004 340.896C524.588 340.693 524.262 340.413 524.028 340.056C523.798 339.699 523.684 339.291 523.684 338.832C523.684 338.405 523.79 338.013 524.004 337.656C524.222 337.293 524.524 336.997 524.908 336.768C525.292 336.539 525.726 336.4 526.212 336.352L528.604 336.112C528.78 336.096 528.918 336.021 529.02 335.888C529.126 335.755 529.18 335.563 529.18 335.312C529.18 334.987 529.1 334.701 528.94 334.456C528.785 334.211 528.566 334.021 528.284 333.888C528.006 333.755 527.684 333.688 527.316 333.688C526.953 333.688 526.622 333.749 526.324 333.872C526.025 333.995 525.782 334.163 525.596 334.376C525.409 334.589 525.3 334.824 525.268 335.08H524.02C524.068 334.627 524.244 334.213 524.548 333.84C524.852 333.461 525.249 333.163 525.74 332.944C526.23 332.725 526.766 332.616 527.348 332.616ZM526.684 340.192C527.169 340.192 527.601 340.099 527.98 339.912C528.358 339.72 528.652 339.453 528.86 339.112C529.073 338.765 529.18 338.373 529.18 337.936V337.008L526.388 337.296C525.961 337.339 525.617 337.496 525.356 337.768C525.094 338.04 524.964 338.371 524.964 338.76C524.964 339.037 525.036 339.285 525.18 339.504C525.324 339.717 525.526 339.885 525.788 340.008C526.049 340.131 526.348 340.192 526.684 340.192ZM535.233 341C534.641 341 534.172 340.843 533.825 340.528C533.484 340.213 533.313 339.779 533.313 339.224L533.305 333.944H531.865L531.873 332.808H532.761C532.964 332.808 533.127 332.744 533.249 332.616C533.377 332.488 533.441 332.325 533.441 332.128V330.76H534.593V332.808H536.569L536.561 333.944H534.585L534.593 339.144C534.593 339.368 534.657 339.544 534.785 339.672C534.919 339.8 535.095 339.864 535.313 339.864H536.561V341H535.233ZM542.177 341.192C541.404 341.192 540.705 341.005 540.081 340.632C539.457 340.259 538.966 339.747 538.609 339.096C538.257 338.44 538.081 337.709 538.081 336.904C538.081 336.099 538.257 335.371 538.609 334.72C538.966 334.064 539.457 333.549 540.081 333.176C540.705 332.803 541.404 332.616 542.177 332.616C542.838 332.616 543.446 332.747 544.001 333.008C544.556 333.264 545.004 333.621 545.345 334.08C545.692 334.533 545.892 335.043 545.945 335.608H544.665C544.601 335.256 544.449 334.939 544.209 334.656C543.974 334.373 543.678 334.152 543.321 333.992C542.969 333.832 542.588 333.752 542.177 333.752C541.654 333.752 541.182 333.891 540.761 334.168C540.345 334.44 540.017 334.816 539.777 335.296C539.542 335.776 539.425 336.312 539.425 336.904C539.425 337.496 539.542 338.032 539.777 338.512C540.017 338.992 540.345 339.368 540.761 339.64C541.182 339.912 541.654 340.048 542.177 340.048C542.588 340.048 542.969 339.971 543.321 339.816C543.678 339.661 543.974 339.451 544.209 339.184C544.449 338.912 544.601 338.611 544.665 338.28H545.945C545.897 338.829 545.7 339.325 545.353 339.768C545.012 340.211 544.564 340.56 544.009 340.816C543.454 341.067 542.844 341.192 542.177 341.192ZM551.906 332.616C552.519 332.616 553.055 332.749 553.514 333.016C553.973 333.277 554.325 333.651 554.57 334.136C554.821 334.621 554.946 335.187 554.946 335.832V341H553.666V335.888C553.666 335.2 553.49 334.664 553.138 334.28C552.791 333.896 552.303 333.704 551.674 333.704C551.199 333.704 550.786 333.813 550.434 334.032C550.082 334.245 549.81 334.552 549.618 334.952C549.426 335.347 549.33 335.813 549.33 336.352V341H548.05V329.8H549.33V332.432L549.282 334.056C549.538 333.587 549.887 333.229 550.33 332.984C550.778 332.739 551.303 332.616 551.906 332.616ZM560.975 341.192C560.197 341.192 559.495 341.008 558.871 340.64C558.247 340.267 557.757 339.755 557.399 339.104C557.042 338.453 556.863 337.72 556.863 336.904C556.863 336.088 557.042 335.355 557.399 334.704C557.757 334.053 558.25 333.544 558.879 333.176C559.509 332.803 560.213 332.616 560.991 332.616C561.77 332.616 562.474 332.803 563.103 333.176C563.733 333.544 564.226 334.053 564.583 334.704C564.941 335.355 565.119 336.088 565.119 336.904C565.119 337.72 564.938 338.453 564.575 339.104C564.218 339.755 563.725 340.267 563.095 340.64C562.466 341.008 561.759 341.192 560.975 341.192ZM560.991 340.008C561.525 340.008 562.002 339.88 562.423 339.624C562.845 339.363 563.175 338.997 563.415 338.528C563.655 338.059 563.775 337.517 563.775 336.904C563.775 336.291 563.655 335.749 563.415 335.28C563.175 334.805 562.845 334.44 562.423 334.184C562.002 333.923 561.525 333.792 560.991 333.792C560.458 333.792 559.981 333.923 559.559 334.184C559.138 334.44 558.807 334.805 558.567 335.28C558.327 335.749 558.207 336.291 558.207 336.904C558.207 337.517 558.327 338.059 558.567 338.528C558.807 338.997 559.138 339.363 559.559 339.624C559.981 339.88 560.458 340.008 560.991 340.008ZM569.951 341.192C569.284 341.192 568.695 341.088 568.183 340.88C567.676 340.667 567.281 340.373 566.999 340C566.721 339.627 566.58 339.203 566.575 338.728H567.855C567.865 339.005 567.959 339.251 568.135 339.464C568.311 339.677 568.551 339.845 568.855 339.968C569.164 340.085 569.516 340.144 569.911 340.144C570.519 340.144 570.991 340.016 571.327 339.76C571.663 339.504 571.831 339.155 571.831 338.712C571.831 338.371 571.727 338.093 571.519 337.88C571.316 337.661 571.015 337.52 570.615 337.456L569.127 337.224C568.412 337.112 567.855 336.853 567.455 336.448C567.055 336.037 566.855 335.528 566.855 334.92C566.855 334.472 566.98 334.075 567.231 333.728C567.487 333.376 567.839 333.104 568.287 332.912C568.74 332.715 569.252 332.616 569.823 332.616C570.409 332.616 570.935 332.715 571.399 332.912C571.868 333.109 572.236 333.384 572.503 333.736C572.775 334.083 572.916 334.477 572.927 334.92H571.647C571.641 334.685 571.556 334.472 571.391 334.28C571.231 334.088 571.012 333.939 570.735 333.832C570.457 333.72 570.148 333.664 569.807 333.664C569.476 333.664 569.177 333.717 568.911 333.824C568.649 333.925 568.444 334.069 568.295 334.256C568.151 334.437 568.079 334.648 568.079 334.888C568.079 335.208 568.175 335.467 568.367 335.664C568.559 335.856 568.841 335.981 569.215 336.04L570.751 336.288C571.497 336.405 572.068 336.672 572.463 337.088C572.863 337.504 573.063 338.035 573.063 338.68C573.063 339.181 572.935 339.621 572.679 340C572.423 340.379 572.06 340.672 571.591 340.88C571.121 341.088 570.575 341.192 569.951 341.192Z" fill="#19191C"/>
<path d="M312 264L306.226 274L317.774 274L312 264ZM313 311.968L313 273L311 273L311 311.968L313 311.968Z" fill="#A3A3A3"/>
<path d="M312 168L306.226 178L317.774 178L312 168ZM313 215.968L313 177L311 177L311 215.968L313 215.968Z" fill="#A3A3A3"/>
<path d="M205 360L199.226 370L210.774 370L205 360ZM206 407.968L206 369L204 369L204 407.968L206 407.968Z" fill="#A3A3A3"/>
<path d="M320 96L320 95L320 96ZM398 96L398 97L398 96ZM406 72L400.226 82L411.773 82L406 72ZM313 120L313 104L311 104L311 120L313 120ZM320 97L398 97L398 95L320 95L320 97ZM407 88L407 81L405 81L405 88L407 88ZM398 97C402.971 97 407 92.9706 407 88L405 88C405 91.866 401.866 95 398 95L398 97ZM313 104C313 100.134 316.134 97 320 97L320 95C315.029 95 311 99.0294 311 104L313 104Z" fill="#A3A3A3"/>
<path d="M213 288L213 287L213 288ZM304 288L304 289L304 288ZM312 264L306.226 274L317.773 274L312 264ZM206 312L206 296L204 296L204 312L206 312ZM213 289L304 289L304 287L213 287L213 289ZM313 280L313 273L311 273L311 280L313 280ZM304 289C308.971 289 313 284.971 313 280L311 280C311 283.866 307.866 287 304 287L304 289ZM206 296C206 292.134 209.134 289 213 289L213 287C208.029 287 204 291.029 204 296L206 296Z" fill="#A3A3A3"/>
<path d="M175 192L175 191L175 192ZM304 192L304 193L304 192ZM312 168L306.226 178L317.773 178L312 168ZM168 216L168 200L166 200L166 216L168 216ZM175 193L304 193L304 191L175 191L175 193ZM313 184L313 177L311 177L311 184L313 184ZM304 193C308.971 193 313 188.971 313 184L311 184C311 187.866 307.866 191 304 191L304 193ZM168 200C168 196.134 171.134 193 175 193L175 191C170.029 191 166 195.029 166 200L168 200Z" fill="#A3A3A3"/>
<path d="M421 288L421 287L421 288ZM320 288L320 289L320 288ZM312 264L317.774 274L306.227 274L312 264ZM428 312L428 296L430 296L430 312L428 312ZM421 289L320 289L320 287L421 287L421 289ZM311 280L311 273L313 273L313 280L311 280ZM320 289C315.029 289 311 284.971 311 280L313 280C313 283.866 316.134 287 320 287L320 289ZM428 296C428 292.134 424.866 289 421 289L421 287C425.971 287 430 291.029 430 296L428 296Z" fill="#A3A3A3"/>
<path d="M538 288L538 287L538 288ZM320 288L320 289L320 288ZM312 264L317.774 274L306.227 274L312 264ZM545 312L545 296L547 296L547 312L545 312ZM538 289L320 289L320 287L538 287L538 289ZM311 280L311 273L313 273L313 280L311 280ZM320 289C315.029 289 311 284.971 311 280L313 280C313 283.866 316.134 287 320 287L320 289ZM545 296C545 292.134 541.866 289 538 289L538 287C542.971 287 547 291.029 547 296L545 296Z" fill="#A3A3A3"/>
<path d="M385 384L385 383L385 384ZM213 384L213 385L213 384ZM205 360L210.774 370L199.227 370L205 360ZM392 408L392 392L394 392L394 408L392 408ZM385 385L213 385L213 383L385 383L385 385ZM204 376L204 369L206 369L206 376L204 376ZM213 385C208.029 385 204 380.971 204 376L206 376C206 379.866 209.134 383 213 383L213 385ZM392 392C392 388.134 388.866 385 385 385L385 383C389.971 383 394 387.029 394 392L392 392Z" fill="#A3A3A3"/>
<path d="M421 192L421 191L421 192ZM320 192L320 193L320 192ZM312 168L317.774 178L306.227 178L312 168ZM428 216L428 200L430 200L430 216L428 216ZM421 193L320 193L320 191L421 191L421 193ZM311 184L311 177L313 177L313 184L311 184ZM320 193C315.029 193 311 188.971 311 184L313 184C313 187.866 316.134 191 320 191L320 193ZM428 200C428 196.134 424.866 193 421 193L421 191C425.971 191 430 195.029 430 200L428 200Z" fill="#A3A3A3"/>
<path d="M538 192L538 191L538 192ZM320 192L320 193L320 192ZM312 168L317.774 178L306.227 178L312 168ZM545 216L545 200L547 200L547 216L545 216ZM538 193L320 193L320 191L538 191L538 193ZM311 184L311 177L313 177L313 184L311 184ZM320 193C315.029 193 311 188.971 311 184L313 184C313 187.866 316.134 191 320 191L320 193ZM545 200C545 196.134 541.866 193 538 193L538 191C542.971 191 547 195.029 547 200L545 200Z" fill="#A3A3A3"/>
<path d="M492 96L492 95L492 96ZM414 96L414 97L414 96ZM406 72L411.774 82L400.227 82L406 72ZM499 120L499 104L501 104L501 120L499 120ZM492 97L414 97L414 95L492 95L492 97ZM405 88L405 81L407 81L407 88L405 88ZM414 97C409.029 97 405 92.9706 405 88L407 88C407 91.866 410.134 95 414 95L414 97ZM499 104C499 100.134 495.866 97 492 97L492 95C496.971 95 501 99.0294 501 104L499 104Z" fill="#A3A3A3"/>
</svg>
