<svg width="1412" height="588" viewBox="0 0 1412 588" fill="none" xmlns="http://www.w3.org/2000/svg">
<rect width="1412" height="588" fill="white"/>
<path d="M652 132L645.674 141.66L657.203 142.308L652 132ZM533 252C533 239.483 539.663 230.86 550.049 223.79C560.488 216.685 574.505 211.271 588.977 205.14C617.743 192.951 648.2 177.972 652.488 141.099L650.502 140.868C646.362 176.468 617.072 191.063 588.197 203.298C573.849 209.378 559.573 214.888 548.923 222.137C538.221 229.422 531 238.584 531 252H533Z" fill="#A9A9AB"/>
<path d="M311 336L304.674 345.66L316.203 346.308L311 336ZM192 456C192 443.483 198.663 434.86 209.049 427.79C219.488 420.685 233.505 415.271 247.977 409.14C276.743 396.951 307.2 381.972 311.488 345.099L309.502 344.868C305.362 380.468 276.072 395.063 247.197 407.298C232.849 413.378 218.573 418.888 207.923 426.137C197.221 433.422 190 442.584 190 456H192Z" fill="#A9A9AB"/>
<path d="M310 336L316.326 345.66L304.797 346.308L310 336ZM429 456C429 443.483 422.337 434.86 411.951 427.79C401.512 420.685 387.495 415.271 373.023 409.14C344.257 396.951 313.8 381.972 309.512 345.099L311.498 344.868C315.638 380.468 344.928 395.063 373.803 407.298C388.151 413.378 402.427 418.888 413.077 426.137C423.779 433.422 431 442.584 431 456H429Z" fill="#A9A9AB"/>
<path d="M994 336L1000.28 345.69L988.748 346.283L994 336ZM1221 456C1221 443.22 1217.67 433.644 1211.91 426.408C1206.13 419.159 1197.83 414.166 1187.72 410.695C1167.45 403.734 1140.24 402.991 1112.45 402.192C1084.77 401.397 1056.51 400.545 1034.48 393.234C1023.45 389.572 1013.9 384.269 1006.76 376.487C999.601 368.692 994.905 358.473 993.468 345.087L995.456 344.873C996.853 357.883 1001.39 367.689 1008.23 375.134C1015.08 382.591 1024.29 387.744 1035.11 391.336C1056.81 398.535 1084.73 399.395 1112.51 400.193C1140.19 400.988 1167.74 401.722 1188.37 408.803C1198.7 412.352 1207.38 417.521 1213.47 425.161C1219.57 432.814 1223 442.853 1223 456H1221Z" fill="#A9A9AB"/>
<path d="M995 336L988.72 345.69L1000.25 346.283L995 336ZM768 456C768 443.22 771.326 433.644 777.094 426.408C782.872 419.159 791.174 414.166 801.283 410.695C821.553 403.734 848.757 402.991 876.546 402.192C904.235 401.397 932.486 400.545 954.517 393.234C965.554 389.572 975.096 384.269 982.242 376.487C989.399 368.692 994.095 358.473 995.532 345.087L993.544 344.873C992.147 357.883 987.606 367.689 980.769 375.134C973.922 382.591 964.713 387.744 953.887 391.336C932.192 398.535 904.267 399.395 876.489 400.193C848.81 400.988 821.256 401.722 800.634 408.803C790.297 412.352 781.62 417.521 775.53 425.161C769.43 432.814 766 442.853 766 456H768Z" fill="#A9A9AB"/>
<path d="M652 132L658.326 141.66L646.797 142.308L652 132ZM771 252C771 239.483 764.337 230.86 753.951 223.79C743.512 216.685 729.495 211.271 715.023 205.14C686.257 192.951 655.8 177.972 651.512 141.099L653.498 140.868C657.638 176.468 686.928 191.063 715.803 203.298C730.151 209.378 744.427 214.888 755.077 222.137C765.779 229.422 773 238.584 773 252H771Z" fill="#A9A9AB"/>
<path d="M994 336L988.226 346H999.774L994 336ZM995 456V345H993V456H995Z" fill="#A9A9AB"/>
<path d="M652 132L645.766 141.719L657.3 142.259L652 132ZM311 252C311 234.748 316.058 222.335 324.84 213.46C333.647 204.561 346.302 199.114 361.689 196.026C392.499 189.842 433.782 193.194 475.696 196.643C517.511 200.084 559.941 203.619 592.749 197.652C609.168 194.665 623.28 189.284 633.721 180.236C644.188 171.164 650.883 158.478 652.576 141.067L650.585 140.874C648.936 157.83 642.451 170.024 632.411 178.724C622.344 187.449 608.621 192.732 592.391 195.684C559.899 201.593 517.769 198.099 475.86 194.65C434.05 191.21 392.444 187.813 361.296 194.065C345.703 197.194 332.613 202.762 323.418 212.054C314.198 221.371 309 234.326 309 252H311Z" fill="#A9A9AB"/>
<path d="M652 132L658.234 141.719L646.7 142.259L652 132ZM993 252C993 234.748 987.942 222.335 979.16 213.46C970.353 204.561 957.698 199.114 942.311 196.026C911.501 189.842 870.218 193.194 828.304 196.643C786.489 200.084 744.059 203.619 711.251 197.652C694.832 194.665 680.72 189.284 670.279 180.236C659.812 171.164 653.117 158.478 651.424 141.067L653.415 140.874C655.064 157.83 661.549 170.024 671.589 178.724C681.656 187.449 695.379 192.732 711.609 195.684C744.101 201.593 786.231 198.099 828.14 194.65C869.95 191.21 911.556 187.813 942.704 194.065C958.297 197.194 971.387 202.762 980.582 212.054C989.802 221.371 995 234.326 995 252H993Z" fill="#A9A9AB"/>
<path d="M740 90C740 101.288 730.176 111.663 713.928 119.245C697.721 126.809 675.297 131.5 650.5 131.5C625.703 131.5 603.279 126.809 587.072 119.245C570.824 111.663 561 101.288 561 90C561 78.7117 570.824 68.3368 587.072 60.7546C603.279 53.1914 625.703 48.5 650.5 48.5C675.297 48.5 697.721 53.1914 713.928 60.7546C730.176 68.3368 740 78.7117 740 90Z" fill="#F5F5F5" stroke="#E1E1E1"/>
<path d="M599.972 96.18C598.772 96.18 597.812 95.844 597.092 95.172C596.384 94.5 596.03 93.576 596.03 92.4V89.7C596.03 88.524 596.384 87.6 597.092 86.928C597.812 86.256 598.772 85.92 599.972 85.92C601.112 85.92 602.03 86.226 602.726 86.838C603.422 87.45 603.788 88.284 603.824 89.34H602.204C602.168 88.704 601.952 88.218 601.556 87.882C601.172 87.534 600.644 87.36 599.972 87.36C599.264 87.36 598.7 87.564 598.28 87.972C597.86 88.368 597.65 88.938 597.65 89.682V92.4C597.65 93.144 597.86 93.72 598.28 94.128C598.7 94.536 599.264 94.74 599.972 94.74C600.644 94.74 601.172 94.566 601.556 94.218C601.952 93.87 602.168 93.384 602.204 92.76H603.824C603.788 93.816 603.422 94.65 602.726 95.262C602.03 95.874 601.112 96.18 599.972 96.18ZM610.693 96.144C609.493 96.144 608.545 95.808 607.849 95.136C607.165 94.452 606.823 93.528 606.823 92.364V89.736C606.823 88.56 607.165 87.636 607.849 86.964C608.545 86.292 609.493 85.956 610.693 85.956C611.893 85.956 612.835 86.292 613.519 86.964C614.215 87.636 614.563 88.554 614.563 89.718V92.364C614.563 93.528 614.215 94.452 613.519 95.136C612.835 95.808 611.893 96.144 610.693 96.144ZM610.693 94.704C611.401 94.704 611.953 94.506 612.349 94.11C612.745 93.714 612.943 93.132 612.943 92.364V89.736C612.943 88.968 612.745 88.386 612.349 87.99C611.953 87.594 611.401 87.396 610.693 87.396C609.997 87.396 609.445 87.594 609.037 87.99C608.641 88.386 608.443 88.968 608.443 89.736V92.364C608.443 93.132 608.641 93.714 609.037 94.11C609.445 94.506 609.997 94.704 610.693 94.704ZM617.274 96V86.1H618.696V87.288H618.804C618.876 86.868 619.05 86.538 619.326 86.298C619.614 86.046 619.974 85.92 620.406 85.92C621.258 85.92 621.798 86.376 622.026 87.288H622.098C622.17 86.868 622.35 86.538 622.638 86.298C622.938 86.046 623.304 85.92 623.736 85.92C624.36 85.92 624.84 86.154 625.176 86.622C625.524 87.09 625.698 87.708 625.698 88.476V96H624.204V88.458C624.204 88.05 624.114 87.732 623.934 87.504C623.766 87.276 623.514 87.162 623.178 87.162C622.854 87.162 622.596 87.276 622.404 87.504C622.224 87.72 622.134 88.032 622.134 88.44V96H620.838V88.458C620.838 88.038 620.742 87.72 620.55 87.504C620.37 87.276 620.112 87.162 619.776 87.162C619.44 87.162 619.188 87.276 619.02 87.504C618.852 87.72 618.768 88.032 618.768 88.44V96H617.274ZM628.067 96V86.1H629.489V87.288H629.597C629.669 86.868 629.843 86.538 630.119 86.298C630.407 86.046 630.767 85.92 631.199 85.92C632.051 85.92 632.591 86.376 632.819 87.288H632.891C632.963 86.868 633.143 86.538 633.431 86.298C633.731 86.046 634.097 85.92 634.529 85.92C635.153 85.92 635.633 86.154 635.969 86.622C636.317 87.09 636.491 87.708 636.491 88.476V96H634.997V88.458C634.997 88.05 634.907 87.732 634.727 87.504C634.559 87.276 634.307 87.162 633.971 87.162C633.647 87.162 633.389 87.276 633.197 87.504C633.017 87.72 632.927 88.032 632.927 88.44V96H631.631V88.458C631.631 88.038 631.535 87.72 631.343 87.504C631.163 87.276 630.905 87.162 630.569 87.162C630.233 87.162 629.981 87.276 629.813 87.504C629.645 87.72 629.561 88.032 629.561 88.44V96H628.067ZM643.072 96.144C641.872 96.144 640.924 95.808 640.228 95.136C639.544 94.452 639.202 93.528 639.202 92.364V89.736C639.202 88.56 639.544 87.636 640.228 86.964C640.924 86.292 641.872 85.956 643.072 85.956C644.272 85.956 645.214 86.292 645.898 86.964C646.594 87.636 646.942 88.554 646.942 89.718V92.364C646.942 93.528 646.594 94.452 645.898 95.136C645.214 95.808 644.272 96.144 643.072 96.144ZM643.072 94.704C643.78 94.704 644.332 94.506 644.728 94.11C645.124 93.714 645.322 93.132 645.322 92.364V89.736C645.322 88.968 645.124 88.386 644.728 87.99C644.332 87.594 643.78 87.396 643.072 87.396C642.376 87.396 641.824 87.594 641.416 87.99C641.02 88.386 640.822 88.968 640.822 89.736V92.364C640.822 93.132 641.02 93.714 641.416 94.11C641.824 94.506 642.376 94.704 643.072 94.704ZM650.121 96V86.1H651.741V87.99H651.759C651.843 87.33 652.113 86.82 652.569 86.46C653.025 86.1 653.631 85.92 654.387 85.92C655.383 85.92 656.175 86.226 656.763 86.838C657.351 87.45 657.645 88.284 657.645 89.34V96H656.025V89.52C656.025 88.812 655.833 88.272 655.449 87.9C655.077 87.516 654.567 87.324 653.919 87.324C653.247 87.324 652.713 87.528 652.317 87.936C651.933 88.344 651.741 88.932 651.741 89.7V96H650.121ZM660.626 96V82.86H662.75L664.154 87.108C664.286 87.492 664.394 87.876 664.478 88.26C664.574 88.632 664.646 88.92 664.694 89.124C664.742 88.92 664.814 88.632 664.91 88.26C665.006 87.876 665.114 87.486 665.234 87.09L666.566 82.86H668.69V96H667.106V91.23C667.106 90.702 667.118 90.102 667.142 89.43C667.178 88.758 667.22 88.074 667.268 87.378C667.316 86.67 667.364 85.998 667.412 85.362C667.472 84.714 667.526 84.15 667.574 83.67L665.432 90.24H663.884L661.724 83.67C661.784 84.138 661.838 84.684 661.886 85.308C661.946 85.92 662 86.574 662.048 87.27C662.096 87.954 662.132 88.638 662.156 89.322C662.192 90.006 662.21 90.642 662.21 91.23V96H660.626ZM674.587 96.18C673.543 96.18 672.721 95.916 672.121 95.388C671.521 94.848 671.221 94.122 671.221 93.21C671.221 92.286 671.521 91.56 672.121 91.032C672.721 90.504 673.531 90.24 674.551 90.24H677.611V89.25C677.611 88.65 677.425 88.182 677.053 87.846C676.693 87.51 676.177 87.342 675.505 87.342C674.917 87.342 674.431 87.468 674.047 87.72C673.663 87.96 673.429 88.29 673.345 88.71H671.725C671.833 87.858 672.235 87.18 672.931 86.676C673.627 86.172 674.497 85.92 675.541 85.92C676.681 85.92 677.581 86.214 678.241 86.802C678.901 87.39 679.231 88.188 679.231 89.196V96H677.647V94.11H677.629C677.557 94.746 677.245 95.25 676.693 95.622C676.153 95.994 675.451 96.18 674.587 96.18ZM674.983 94.902C675.751 94.902 676.381 94.71 676.873 94.326C677.365 93.942 677.611 93.45 677.611 92.85V91.446H674.587C674.047 91.446 673.621 91.596 673.309 91.896C672.997 92.196 672.841 92.604 672.841 93.12C672.841 93.672 673.027 94.11 673.399 94.434C673.783 94.746 674.311 94.902 674.983 94.902ZM682.374 96V94.524H685.884V87.576H682.824V86.1H687.504V94.524H690.834V96H682.374ZM686.514 84.318C686.118 84.318 685.806 84.216 685.578 84.012C685.35 83.808 685.236 83.532 685.236 83.184C685.236 82.824 685.35 82.542 685.578 82.338C685.806 82.122 686.118 82.014 686.514 82.014C686.91 82.014 687.222 82.122 687.45 82.338C687.678 82.542 687.792 82.824 687.792 83.184C687.792 83.532 687.678 83.808 687.45 84.012C687.222 84.216 686.91 84.318 686.514 84.318ZM693.293 96V86.1H694.913V87.99H694.931C695.015 87.33 695.285 86.82 695.741 86.46C696.197 86.1 696.803 85.92 697.559 85.92C698.555 85.92 699.347 86.226 699.935 86.838C700.523 87.45 700.817 88.284 700.817 89.34V96H699.197V89.52C699.197 88.812 699.005 88.272 698.621 87.9C698.249 87.516 697.739 87.324 697.091 87.324C696.419 87.324 695.885 87.528 695.489 87.936C695.105 88.344 694.913 88.932 694.913 89.7V96H693.293Z" fill="black"/>
<ellipse cx="310" cy="294" rx="90" ry="42" fill="#DFE0FF"/>
<path d="M272.512 300.279V298.803H276.022V291.855H272.962V290.379H277.642V298.803H280.972V300.279H272.512ZM276.652 288.597C276.256 288.597 275.944 288.495 275.716 288.291C275.488 288.087 275.374 287.811 275.374 287.463C275.374 287.103 275.488 286.821 275.716 286.617C275.944 286.401 276.256 286.293 276.652 286.293C277.048 286.293 277.36 286.401 277.588 286.617C277.816 286.821 277.93 287.103 277.93 287.463C277.93 287.811 277.816 288.087 277.588 288.291C277.36 288.495 277.048 288.597 276.652 288.597ZM287.175 300.423C285.975 300.423 285.027 300.087 284.331 299.415C283.647 298.731 283.305 297.807 283.305 296.643V294.015C283.305 292.839 283.647 291.915 284.331 291.243C285.027 290.571 285.975 290.235 287.175 290.235C288.375 290.235 289.317 290.571 290.001 291.243C290.697 291.915 291.045 292.833 291.045 293.997V296.643C291.045 297.807 290.697 298.731 290.001 299.415C289.317 300.087 288.375 300.423 287.175 300.423ZM287.175 298.983C287.883 298.983 288.435 298.785 288.831 298.389C289.227 297.993 289.425 297.411 289.425 296.643V294.015C289.425 293.247 289.227 292.665 288.831 292.269C288.435 291.873 287.883 291.675 287.175 291.675C286.479 291.675 285.927 291.873 285.519 292.269C285.123 292.665 284.925 293.247 284.925 294.015V296.643C284.925 297.411 285.123 297.993 285.519 298.389C285.927 298.785 286.479 298.983 287.175 298.983ZM297.662 300.423C296.642 300.423 295.832 300.195 295.232 299.739C294.632 299.271 294.284 298.641 294.188 297.849H295.808C295.88 298.197 296.072 298.473 296.384 298.677C296.708 298.881 297.134 298.983 297.662 298.983H298.418C299.054 298.983 299.528 298.857 299.84 298.605C300.152 298.341 300.308 297.993 300.308 297.561C300.308 296.745 299.75 296.247 298.634 296.067L297.302 295.851C296.33 295.683 295.604 295.383 295.124 294.951C294.656 294.507 294.422 293.865 294.422 293.025C294.422 292.137 294.704 291.453 295.268 290.973C295.832 290.481 296.678 290.235 297.806 290.235H298.49C299.438 290.235 300.2 290.457 300.776 290.901C301.352 291.345 301.7 291.945 301.82 292.701H300.2C300.128 292.389 299.948 292.143 299.66 291.963C299.372 291.771 298.982 291.675 298.49 291.675H297.806C297.194 291.675 296.744 291.789 296.456 292.017C296.18 292.245 296.042 292.587 296.042 293.043C296.042 293.451 296.162 293.751 296.402 293.943C296.642 294.135 297.02 294.273 297.536 294.357L298.868 294.573C299.936 294.741 300.71 295.053 301.19 295.509C301.682 295.965 301.928 296.625 301.928 297.489C301.928 298.401 301.634 299.121 301.046 299.649C300.47 300.165 299.594 300.423 298.418 300.423H297.662ZM304.729 300.279V287.139H306.853L308.257 291.387C308.389 291.771 308.497 292.155 308.581 292.539C308.677 292.911 308.749 293.199 308.797 293.403C308.845 293.199 308.917 292.911 309.013 292.539C309.109 292.155 309.217 291.765 309.337 291.369L310.669 287.139H312.793V300.279H311.209V295.509C311.209 294.981 311.221 294.381 311.245 293.709C311.281 293.037 311.323 292.353 311.371 291.657C311.419 290.949 311.467 290.277 311.515 289.641C311.575 288.993 311.629 288.429 311.677 287.949L309.535 294.519H307.987L305.827 287.949C305.887 288.417 305.941 288.963 305.989 289.587C306.049 290.199 306.103 290.853 306.151 291.549C306.199 292.233 306.235 292.917 306.259 293.601C306.295 294.285 306.313 294.921 306.313 295.509V300.279H304.729ZM318.69 300.459C317.646 300.459 316.824 300.195 316.224 299.667C315.624 299.127 315.324 298.401 315.324 297.489C315.324 296.565 315.624 295.839 316.224 295.311C316.824 294.783 317.634 294.519 318.654 294.519H321.714V293.529C321.714 292.929 321.528 292.461 321.156 292.125C320.796 291.789 320.28 291.621 319.608 291.621C319.02 291.621 318.534 291.747 318.15 291.999C317.766 292.239 317.532 292.569 317.448 292.989H315.828C315.936 292.137 316.338 291.459 317.034 290.955C317.73 290.451 318.6 290.199 319.644 290.199C320.784 290.199 321.684 290.493 322.344 291.081C323.004 291.669 323.334 292.467 323.334 293.475V300.279H321.75V298.389H321.732C321.66 299.025 321.348 299.529 320.796 299.901C320.256 300.273 319.554 300.459 318.69 300.459ZM319.086 299.181C319.854 299.181 320.484 298.989 320.976 298.605C321.468 298.221 321.714 297.729 321.714 297.129V295.725H318.69C318.15 295.725 317.724 295.875 317.412 296.175C317.1 296.475 316.944 296.883 316.944 297.399C316.944 297.951 317.13 298.389 317.502 298.713C317.886 299.025 318.414 299.181 319.086 299.181ZM326.477 300.279V298.803H329.987V291.855H326.927V290.379H331.607V298.803H334.937V300.279H326.477ZM330.617 288.597C330.221 288.597 329.909 288.495 329.681 288.291C329.453 288.087 329.339 287.811 329.339 287.463C329.339 287.103 329.453 286.821 329.681 286.617C329.909 286.401 330.221 286.293 330.617 286.293C331.013 286.293 331.325 286.401 331.553 286.617C331.781 286.821 331.895 287.103 331.895 287.463C331.895 287.811 331.781 288.087 331.553 288.291C331.325 288.495 331.013 288.597 330.617 288.597ZM337.396 300.279V290.379H339.016V292.269H339.034C339.118 291.609 339.388 291.099 339.844 290.739C340.3 290.379 340.906 290.199 341.662 290.199C342.658 290.199 343.45 290.505 344.038 291.117C344.626 291.729 344.92 292.563 344.92 293.619V300.279H343.3V293.799C343.3 293.091 343.108 292.551 342.724 292.179C342.352 291.795 341.842 291.603 341.194 291.603C340.522 291.603 339.988 291.807 339.592 292.215C339.208 292.623 339.016 293.211 339.016 293.979V300.279H337.396Z" fill="black"/>
<ellipse cx="538" cy="294" rx="90" ry="42" fill="#BBEEC5"/>
<path d="M500.242 303.519V302.025H502.834C503.578 302.025 504.154 301.821 504.562 301.413C504.982 301.017 505.192 300.453 505.192 299.721V291.855H500.602V290.379H506.812V299.721C506.812 300.885 506.452 301.809 505.732 302.493C505.012 303.177 504.046 303.519 502.834 303.519H500.242ZM505.912 288.597C505.516 288.597 505.204 288.495 504.976 288.291C504.748 288.087 504.634 287.811 504.634 287.463C504.634 287.103 504.748 286.821 504.976 286.617C505.204 286.401 505.516 286.293 505.912 286.293C506.308 286.293 506.62 286.401 506.848 286.617C507.076 286.821 507.19 287.103 507.19 287.463C507.19 287.811 507.076 288.087 506.848 288.291C506.62 288.495 506.308 288.597 505.912 288.597ZM514.077 300.279L510.765 290.379H512.475L514.671 297.039C514.803 297.435 514.911 297.819 514.995 298.191C515.091 298.551 515.163 298.833 515.211 299.037C515.271 298.833 515.349 298.551 515.445 298.191C515.553 297.819 515.667 297.435 515.787 297.039L517.929 290.379H519.585L516.273 300.279H514.077ZM521.756 300.279V290.379H523.178V291.567H523.286C523.358 291.147 523.532 290.817 523.808 290.577C524.096 290.325 524.456 290.199 524.888 290.199C525.74 290.199 526.28 290.655 526.508 291.567H526.58C526.652 291.147 526.832 290.817 527.12 290.577C527.42 290.325 527.786 290.199 528.218 290.199C528.842 290.199 529.322 290.433 529.658 290.901C530.006 291.369 530.18 291.987 530.18 292.755V300.279H528.686V292.737C528.686 292.329 528.596 292.011 528.416 291.783C528.248 291.555 527.996 291.441 527.66 291.441C527.336 291.441 527.078 291.555 526.886 291.783C526.706 291.999 526.616 292.311 526.616 292.719V300.279H525.32V292.737C525.32 292.317 525.224 291.999 525.032 291.783C524.852 291.555 524.594 291.441 524.258 291.441C523.922 291.441 523.67 291.555 523.502 291.783C523.334 291.999 523.25 292.311 523.25 292.719V300.279H521.756ZM532.729 300.279V287.139H534.853L536.257 291.387C536.389 291.771 536.497 292.155 536.581 292.539C536.677 292.911 536.749 293.199 536.797 293.403C536.845 293.199 536.917 292.911 537.013 292.539C537.109 292.155 537.217 291.765 537.337 291.369L538.669 287.139H540.793V300.279H539.209V295.509C539.209 294.981 539.221 294.381 539.245 293.709C539.281 293.037 539.323 292.353 539.371 291.657C539.419 290.949 539.467 290.277 539.515 289.641C539.575 288.993 539.629 288.429 539.677 287.949L537.535 294.519H535.987L533.827 287.949C533.887 288.417 533.941 288.963 533.989 289.587C534.049 290.199 534.103 290.853 534.151 291.549C534.199 292.233 534.235 292.917 534.259 293.601C534.295 294.285 534.313 294.921 534.313 295.509V300.279H532.729ZM546.69 300.459C545.646 300.459 544.824 300.195 544.224 299.667C543.624 299.127 543.324 298.401 543.324 297.489C543.324 296.565 543.624 295.839 544.224 295.311C544.824 294.783 545.634 294.519 546.654 294.519H549.714V293.529C549.714 292.929 549.528 292.461 549.156 292.125C548.796 291.789 548.28 291.621 547.608 291.621C547.02 291.621 546.534 291.747 546.15 291.999C545.766 292.239 545.532 292.569 545.448 292.989H543.828C543.936 292.137 544.338 291.459 545.034 290.955C545.73 290.451 546.6 290.199 547.644 290.199C548.784 290.199 549.684 290.493 550.344 291.081C551.004 291.669 551.334 292.467 551.334 293.475V300.279H549.75V298.389H549.732C549.66 299.025 549.348 299.529 548.796 299.901C548.256 300.273 547.554 300.459 546.69 300.459ZM547.086 299.181C547.854 299.181 548.484 298.989 548.976 298.605C549.468 298.221 549.714 297.729 549.714 297.129V295.725H546.69C546.15 295.725 545.724 295.875 545.412 296.175C545.1 296.475 544.944 296.883 544.944 297.399C544.944 297.951 545.13 298.389 545.502 298.713C545.886 299.025 546.414 299.181 547.086 299.181ZM554.477 300.279V298.803H557.987V291.855H554.927V290.379H559.607V298.803H562.937V300.279H554.477ZM558.617 288.597C558.221 288.597 557.909 288.495 557.681 288.291C557.453 288.087 557.339 287.811 557.339 287.463C557.339 287.103 557.453 286.821 557.681 286.617C557.909 286.401 558.221 286.293 558.617 286.293C559.013 286.293 559.325 286.401 559.553 286.617C559.781 286.821 559.895 287.103 559.895 287.463C559.895 287.811 559.781 288.087 559.553 288.291C559.325 288.495 559.013 288.597 558.617 288.597ZM565.396 300.279V290.379H567.016V292.269H567.034C567.118 291.609 567.388 291.099 567.844 290.739C568.3 290.379 568.906 290.199 569.662 290.199C570.658 290.199 571.45 290.505 572.038 291.117C572.626 291.729 572.92 292.563 572.92 293.619V300.279H571.3V293.799C571.3 293.091 571.108 292.551 570.724 292.179C570.352 291.795 569.842 291.603 569.194 291.603C568.522 291.603 567.988 291.807 567.592 292.215C567.208 292.623 567.016 293.211 567.016 293.979V300.279H565.396Z" fill="black"/>
<ellipse cx="766" cy="294" rx="90" ry="42" fill="#BBEEC5"/>
<path d="M733.445 303.519V302.025H736.037C736.781 302.025 737.357 301.821 737.765 301.413C738.185 301.017 738.395 300.453 738.395 299.721V291.855H733.805V290.379H740.015V299.721C740.015 300.885 739.655 301.809 738.935 302.493C738.215 303.177 737.249 303.519 736.037 303.519H733.445ZM739.115 288.597C738.719 288.597 738.407 288.495 738.179 288.291C737.951 288.087 737.837 287.811 737.837 287.463C737.837 287.103 737.951 286.821 738.179 286.617C738.407 286.401 738.719 286.293 739.115 286.293C739.511 286.293 739.823 286.401 740.051 286.617C740.279 286.821 740.393 287.103 740.393 287.463C740.393 287.811 740.279 288.087 740.051 288.291C739.823 288.495 739.511 288.597 739.115 288.597ZM748.072 300.423C747.052 300.423 746.242 300.195 745.642 299.739C745.042 299.271 744.694 298.641 744.598 297.849H746.218C746.29 298.197 746.482 298.473 746.794 298.677C747.118 298.881 747.544 298.983 748.072 298.983H748.828C749.464 298.983 749.938 298.857 750.25 298.605C750.562 298.341 750.718 297.993 750.718 297.561C750.718 296.745 750.16 296.247 749.044 296.067L747.712 295.851C746.74 295.683 746.014 295.383 745.534 294.951C745.066 294.507 744.832 293.865 744.832 293.025C744.832 292.137 745.114 291.453 745.678 290.973C746.242 290.481 747.088 290.235 748.216 290.235H748.9C749.848 290.235 750.61 290.457 751.186 290.901C751.762 291.345 752.11 291.945 752.23 292.701H750.61C750.538 292.389 750.358 292.143 750.07 291.963C749.782 291.771 749.392 291.675 748.9 291.675H748.216C747.604 291.675 747.154 291.789 746.866 292.017C746.59 292.245 746.452 292.587 746.452 293.043C746.452 293.451 746.572 293.751 746.812 293.943C747.052 294.135 747.43 294.273 747.946 294.357L749.278 294.573C750.346 294.741 751.12 295.053 751.6 295.509C752.092 295.965 752.338 296.625 752.338 297.489C752.338 298.401 752.044 299.121 751.456 299.649C750.88 300.165 750.004 300.423 748.828 300.423H748.072ZM755.139 300.279V287.139H757.263L758.667 291.387C758.799 291.771 758.907 292.155 758.991 292.539C759.087 292.911 759.159 293.199 759.207 293.403C759.255 293.199 759.327 292.911 759.423 292.539C759.519 292.155 759.627 291.765 759.747 291.369L761.079 287.139H763.203V300.279H761.619V295.509C761.619 294.981 761.631 294.381 761.655 293.709C761.691 293.037 761.733 292.353 761.781 291.657C761.829 290.949 761.877 290.277 761.925 289.641C761.985 288.993 762.039 288.429 762.087 287.949L759.945 294.519H758.397L756.237 287.949C756.297 288.417 756.351 288.963 756.399 289.587C756.459 290.199 756.513 290.853 756.561 291.549C756.609 292.233 756.645 292.917 756.669 293.601C756.705 294.285 756.723 294.921 756.723 295.509V300.279H755.139ZM769.1 300.459C768.056 300.459 767.234 300.195 766.634 299.667C766.034 299.127 765.734 298.401 765.734 297.489C765.734 296.565 766.034 295.839 766.634 295.311C767.234 294.783 768.044 294.519 769.064 294.519H772.124V293.529C772.124 292.929 771.938 292.461 771.566 292.125C771.206 291.789 770.69 291.621 770.018 291.621C769.43 291.621 768.944 291.747 768.56 291.999C768.176 292.239 767.942 292.569 767.858 292.989H766.238C766.346 292.137 766.748 291.459 767.444 290.955C768.14 290.451 769.01 290.199 770.054 290.199C771.194 290.199 772.094 290.493 772.754 291.081C773.414 291.669 773.744 292.467 773.744 293.475V300.279H772.16V298.389H772.142C772.07 299.025 771.758 299.529 771.206 299.901C770.666 300.273 769.964 300.459 769.1 300.459ZM769.496 299.181C770.264 299.181 770.894 298.989 771.386 298.605C771.878 298.221 772.124 297.729 772.124 297.129V295.725H769.1C768.56 295.725 768.134 295.875 767.822 296.175C767.51 296.475 767.354 296.883 767.354 297.399C767.354 297.951 767.54 298.389 767.912 298.713C768.296 299.025 768.824 299.181 769.496 299.181ZM776.887 300.279V298.803H780.397V291.855H777.337V290.379H782.017V298.803H785.347V300.279H776.887ZM781.027 288.597C780.631 288.597 780.319 288.495 780.091 288.291C779.863 288.087 779.749 287.811 779.749 287.463C779.749 287.103 779.863 286.821 780.091 286.617C780.319 286.401 780.631 286.293 781.027 286.293C781.423 286.293 781.735 286.401 781.963 286.617C782.191 286.821 782.305 287.103 782.305 287.463C782.305 287.811 782.191 288.087 781.963 288.291C781.735 288.495 781.423 288.597 781.027 288.597ZM787.806 300.279V290.379H789.426V292.269H789.444C789.528 291.609 789.798 291.099 790.254 290.739C790.71 290.379 791.316 290.199 792.072 290.199C793.068 290.199 793.86 290.505 794.448 291.117C795.036 291.729 795.33 292.563 795.33 293.619V300.279H793.71V293.799C793.71 293.091 793.518 292.551 793.134 292.179C792.762 291.795 792.252 291.603 791.604 291.603C790.932 291.603 790.398 291.807 790.002 292.215C789.618 292.623 789.426 293.211 789.426 293.979V300.279H787.806Z" fill="black"/>
<ellipse cx="994" cy="294" rx="90" ry="42" fill="#DFE0FF"/>
<path d="M936.916 300.459C935.932 300.459 935.134 300.129 934.522 299.469C933.922 298.809 933.622 297.915 933.622 296.787V293.889C933.622 292.749 933.922 291.849 934.522 291.189C935.122 290.529 935.92 290.199 936.916 290.199C937.66 290.199 938.272 290.385 938.752 290.757C939.232 291.129 939.514 291.633 939.598 292.269H939.652L939.616 290.019V287.139H941.236V300.279H939.616V298.389H939.598C939.514 299.037 939.232 299.547 938.752 299.919C938.272 300.279 937.66 300.459 936.916 300.459ZM937.456 299.055C938.128 299.055 938.656 298.845 939.04 298.425C939.424 298.005 939.616 297.423 939.616 296.679V293.979C939.616 293.235 939.424 292.653 939.04 292.233C938.656 291.813 938.128 291.603 937.456 291.603C936.772 291.603 936.232 291.807 935.836 292.215C935.44 292.623 935.242 293.211 935.242 293.979V296.679C935.242 297.447 935.44 298.035 935.836 298.443C936.232 298.851 936.772 299.055 937.456 299.055ZM948.285 300.459C947.505 300.459 946.821 300.303 946.233 299.991C945.657 299.679 945.207 299.241 944.883 298.677C944.571 298.101 944.415 297.435 944.415 296.679V293.979C944.415 293.211 944.571 292.545 944.883 291.981C945.207 291.417 945.657 290.979 946.233 290.667C946.821 290.355 947.505 290.199 948.285 290.199C949.065 290.199 949.743 290.355 950.319 290.667C950.907 290.979 951.357 291.417 951.669 291.981C951.993 292.545 952.155 293.211 952.155 293.979V295.725H945.999V296.679C945.999 297.459 946.197 298.059 946.593 298.479C946.989 298.887 947.553 299.091 948.285 299.091C948.909 299.091 949.413 298.983 949.797 298.767C950.181 298.539 950.415 298.203 950.499 297.759H952.119C952.011 298.587 951.603 299.247 950.895 299.739C950.199 300.219 949.329 300.459 948.285 300.459ZM945.999 294.501H950.571V293.979C950.571 293.199 950.373 292.599 949.977 292.179C949.593 291.759 949.029 291.549 948.285 291.549C947.553 291.549 946.989 291.759 946.593 292.179C946.197 292.599 945.999 293.199 945.999 293.979V294.501ZM958.772 300.423C957.752 300.423 956.942 300.195 956.342 299.739C955.742 299.271 955.394 298.641 955.298 297.849H956.918C956.99 298.197 957.182 298.473 957.494 298.677C957.818 298.881 958.244 298.983 958.772 298.983H959.528C960.164 298.983 960.638 298.857 960.95 298.605C961.262 298.341 961.418 297.993 961.418 297.561C961.418 296.745 960.86 296.247 959.744 296.067L958.412 295.851C957.44 295.683 956.714 295.383 956.234 294.951C955.766 294.507 955.532 293.865 955.532 293.025C955.532 292.137 955.814 291.453 956.378 290.973C956.942 290.481 957.788 290.235 958.916 290.235H959.6C960.548 290.235 961.31 290.457 961.886 290.901C962.462 291.345 962.81 291.945 962.93 292.701H961.31C961.238 292.389 961.058 292.143 960.77 291.963C960.482 291.771 960.092 291.675 959.6 291.675H958.916C958.304 291.675 957.854 291.789 957.566 292.017C957.29 292.245 957.152 292.587 957.152 293.043C957.152 293.451 957.272 293.751 957.512 293.943C957.752 294.135 958.13 294.273 958.646 294.357L959.978 294.573C961.046 294.741 961.82 295.053 962.3 295.509C962.792 295.965 963.038 296.625 963.038 297.489C963.038 298.401 962.744 299.121 962.156 299.649C961.58 300.165 960.704 300.423 959.528 300.423H958.772ZM966.181 300.279V287.139H967.801V294.465H969.709L972.589 290.379H974.443L971.113 295.095L974.497 300.279H972.607L969.727 295.869H967.801V300.279H966.181ZM981.744 300.279C980.892 300.279 980.226 300.051 979.746 299.595C979.278 299.139 979.044 298.497 979.044 297.669V291.855H976.254V290.379H979.044V287.589H980.664V290.379H984.624V291.855H980.664V297.669C980.664 298.425 981.024 298.803 981.744 298.803H984.444V300.279H981.744ZM991.457 300.423C990.257 300.423 989.309 300.087 988.613 299.415C987.929 298.731 987.587 297.807 987.587 296.643V294.015C987.587 292.839 987.929 291.915 988.613 291.243C989.309 290.571 990.257 290.235 991.457 290.235C992.657 290.235 993.599 290.571 994.283 291.243C994.979 291.915 995.327 292.833 995.327 293.997V296.643C995.327 297.807 994.979 298.731 994.283 299.415C993.599 300.087 992.657 300.423 991.457 300.423ZM991.457 298.983C992.165 298.983 992.717 298.785 993.113 298.389C993.509 297.993 993.707 297.411 993.707 296.643V294.015C993.707 293.247 993.509 292.665 993.113 292.269C992.717 291.873 992.165 291.675 991.457 291.675C990.761 291.675 990.209 291.873 989.801 292.269C989.405 292.665 989.207 293.247 989.207 294.015V296.643C989.207 297.411 989.405 297.993 989.801 298.389C990.209 298.785 990.761 298.983 991.457 298.983ZM998.506 303.519V290.379H1000.13V292.269H1000.14C1000.23 291.621 1000.51 291.117 1000.99 290.757C1001.48 290.385 1002.1 290.199 1002.84 290.199C1003.84 290.199 1004.63 290.529 1005.22 291.189C1005.82 291.837 1006.12 292.731 1006.12 293.871V296.769C1006.12 297.909 1005.82 298.809 1005.22 299.469C1004.63 300.129 1003.84 300.459 1002.84 300.459C1002.1 300.459 1001.49 300.273 1001.01 299.901C1000.53 299.529 1000.24 299.025 1000.14 298.389H1000.09L1000.13 300.639V303.519H998.506ZM1002.3 299.055C1002.99 299.055 1003.52 298.851 1003.91 298.443C1004.3 298.035 1004.5 297.447 1004.5 296.679V293.979C1004.5 293.211 1004.3 292.623 1003.91 292.215C1003.52 291.807 1002.99 291.603 1002.3 291.603C1001.64 291.603 1001.12 291.813 1000.72 292.233C1000.32 292.653 1000.13 293.235 1000.13 293.979V296.679C1000.13 297.423 1000.32 298.005 1000.72 298.425C1001.12 298.845 1001.64 299.055 1002.3 299.055ZM1009.01 300.279V287.139H1011.14L1012.54 291.387C1012.67 291.771 1012.78 292.155 1012.86 292.539C1012.96 292.911 1013.03 293.199 1013.08 293.403C1013.13 293.199 1013.2 292.911 1013.3 292.539C1013.39 292.155 1013.5 291.765 1013.62 291.369L1014.95 287.139H1017.08V300.279H1015.49V295.509C1015.49 294.981 1015.5 294.381 1015.53 293.709C1015.56 293.037 1015.61 292.353 1015.65 291.657C1015.7 290.949 1015.75 290.277 1015.8 289.641C1015.86 288.993 1015.91 288.429 1015.96 287.949L1013.82 294.519H1012.27L1010.11 287.949C1010.17 288.417 1010.22 288.963 1010.27 289.587C1010.33 290.199 1010.39 290.853 1010.43 291.549C1010.48 292.233 1010.52 292.917 1010.54 293.601C1010.58 294.285 1010.6 294.921 1010.6 295.509V300.279H1009.01ZM1022.97 300.459C1021.93 300.459 1021.11 300.195 1020.51 299.667C1019.91 299.127 1019.61 298.401 1019.61 297.489C1019.61 296.565 1019.91 295.839 1020.51 295.311C1021.11 294.783 1021.92 294.519 1022.94 294.519H1026V293.529C1026 292.929 1025.81 292.461 1025.44 292.125C1025.08 291.789 1024.56 291.621 1023.89 291.621C1023.3 291.621 1022.82 291.747 1022.43 291.999C1022.05 292.239 1021.81 292.569 1021.73 292.989H1020.11C1020.22 292.137 1020.62 291.459 1021.32 290.955C1022.01 290.451 1022.88 290.199 1023.93 290.199C1025.07 290.199 1025.97 290.493 1026.63 291.081C1027.29 291.669 1027.62 292.467 1027.62 293.475V300.279H1026.03V298.389H1026.01C1025.94 299.025 1025.63 299.529 1025.08 299.901C1024.54 300.273 1023.84 300.459 1022.97 300.459ZM1023.37 299.181C1024.14 299.181 1024.77 298.989 1025.26 298.605C1025.75 298.221 1026 297.729 1026 297.129V295.725H1022.97C1022.43 295.725 1022.01 295.875 1021.69 296.175C1021.38 296.475 1021.23 296.883 1021.23 297.399C1021.23 297.951 1021.41 298.389 1021.78 298.713C1022.17 299.025 1022.7 299.181 1023.37 299.181ZM1030.76 300.279V298.803H1034.27V291.855H1031.21V290.379H1035.89V298.803H1039.22V300.279H1030.76ZM1034.9 288.597C1034.5 288.597 1034.19 288.495 1033.96 288.291C1033.74 288.087 1033.62 287.811 1033.62 287.463C1033.62 287.103 1033.74 286.821 1033.96 286.617C1034.19 286.401 1034.5 286.293 1034.9 286.293C1035.3 286.293 1035.61 286.401 1035.84 286.617C1036.06 286.821 1036.18 287.103 1036.18 287.463C1036.18 287.811 1036.06 288.087 1035.84 288.291C1035.61 288.495 1035.3 288.597 1034.9 288.597ZM1041.68 300.279V290.379H1043.3V292.269H1043.32C1043.4 291.609 1043.67 291.099 1044.13 290.739C1044.58 290.379 1045.19 290.199 1045.94 290.199C1046.94 290.199 1047.73 290.505 1048.32 291.117C1048.91 291.729 1049.2 292.563 1049.2 293.619V300.279H1047.58V293.799C1047.58 293.091 1047.39 292.551 1047.01 292.179C1046.63 291.795 1046.12 291.603 1045.48 291.603C1044.8 291.603 1044.27 291.807 1043.87 292.215C1043.49 292.623 1043.3 293.211 1043.3 293.979V300.279H1041.68Z" fill="black"/>
<ellipse cx="190" cy="498" rx="90" ry="42" fill="#BBEEC5"/>
<path d="M127.292 504.279V502.803H130.802V495.855H127.742V494.379H132.422V502.803H135.752V504.279H127.292ZM131.432 492.597C131.036 492.597 130.724 492.495 130.496 492.291C130.268 492.087 130.154 491.811 130.154 491.463C130.154 491.103 130.268 490.821 130.496 490.617C130.724 490.401 131.036 490.293 131.432 490.293C131.828 490.293 132.14 490.401 132.368 490.617C132.596 490.821 132.71 491.103 132.71 491.463C132.71 491.811 132.596 492.087 132.368 492.291C132.14 492.495 131.828 492.597 131.432 492.597ZM141.955 504.423C140.755 504.423 139.807 504.087 139.111 503.415C138.427 502.731 138.085 501.807 138.085 500.643V498.015C138.085 496.839 138.427 495.915 139.111 495.243C139.807 494.571 140.755 494.235 141.955 494.235C143.155 494.235 144.097 494.571 144.781 495.243C145.477 495.915 145.825 496.833 145.825 497.997V500.643C145.825 501.807 145.477 502.731 144.781 503.415C144.097 504.087 143.155 504.423 141.955 504.423ZM141.955 502.983C142.663 502.983 143.215 502.785 143.611 502.389C144.007 501.993 144.205 501.411 144.205 500.643V498.015C144.205 497.247 144.007 496.665 143.611 496.269C143.215 495.873 142.663 495.675 141.955 495.675C141.259 495.675 140.707 495.873 140.299 496.269C139.903 496.665 139.705 497.247 139.705 498.015V500.643C139.705 501.411 139.903 501.993 140.299 502.389C140.707 502.785 141.259 502.983 141.955 502.983ZM152.442 504.423C151.422 504.423 150.612 504.195 150.012 503.739C149.412 503.271 149.064 502.641 148.968 501.849H150.588C150.66 502.197 150.852 502.473 151.164 502.677C151.488 502.881 151.914 502.983 152.442 502.983H153.198C153.834 502.983 154.308 502.857 154.62 502.605C154.932 502.341 155.088 501.993 155.088 501.561C155.088 500.745 154.53 500.247 153.414 500.067L152.082 499.851C151.11 499.683 150.384 499.383 149.904 498.951C149.436 498.507 149.202 497.865 149.202 497.025C149.202 496.137 149.484 495.453 150.048 494.973C150.612 494.481 151.458 494.235 152.586 494.235H153.27C154.218 494.235 154.98 494.457 155.556 494.901C156.132 495.345 156.48 495.945 156.6 496.701H154.98C154.908 496.389 154.728 496.143 154.44 495.963C154.152 495.771 153.762 495.675 153.27 495.675H152.586C151.974 495.675 151.524 495.789 151.236 496.017C150.96 496.245 150.822 496.587 150.822 497.043C150.822 497.451 150.942 497.751 151.182 497.943C151.422 498.135 151.8 498.273 152.316 498.357L153.648 498.573C154.716 498.741 155.49 499.053 155.97 499.509C156.462 499.965 156.708 500.625 156.708 501.489C156.708 502.401 156.414 503.121 155.826 503.649C155.25 504.165 154.374 504.423 153.198 504.423H152.442ZM159.041 504.279L162.461 491.139H164.639L168.041 504.279H166.403L165.539 500.787H161.561L160.697 504.279H159.041ZM161.885 499.419H165.197L164.189 495.369C163.997 494.601 163.847 493.959 163.739 493.443C163.631 492.927 163.565 492.591 163.541 492.435C163.517 492.591 163.451 492.927 163.343 493.443C163.235 493.959 163.085 494.595 162.893 495.351L161.885 499.419ZM170.932 504.279V494.379H172.516V496.143C172.84 494.847 173.71 494.199 175.126 494.199C176.17 494.199 176.998 494.529 177.61 495.189C178.234 495.837 178.546 496.719 178.546 497.835V498.429H176.926V497.979C176.926 497.199 176.734 496.605 176.35 496.197C175.978 495.777 175.444 495.567 174.748 495.567C174.064 495.567 173.524 495.777 173.128 496.197C172.744 496.617 172.552 497.211 172.552 497.979V504.279H170.932ZM180.915 504.279V494.379H182.337V495.567H182.445C182.517 495.147 182.691 494.817 182.967 494.577C183.255 494.325 183.615 494.199 184.047 494.199C184.899 494.199 185.439 494.655 185.667 495.567H185.739C185.811 495.147 185.991 494.817 186.279 494.577C186.579 494.325 186.945 494.199 187.377 494.199C188.001 494.199 188.481 494.433 188.817 494.901C189.165 495.369 189.339 495.987 189.339 496.755V504.279H187.845V496.737C187.845 496.329 187.755 496.011 187.575 495.783C187.407 495.555 187.155 495.441 186.819 495.441C186.495 495.441 186.237 495.555 186.045 495.783C185.865 495.999 185.775 496.311 185.775 496.719V504.279H184.479V496.737C184.479 496.317 184.383 495.999 184.191 495.783C184.011 495.555 183.753 495.441 183.417 495.441C183.081 495.441 182.829 495.555 182.661 495.783C182.493 495.999 182.409 496.311 182.409 496.719V504.279H180.915ZM195.938 504.459C195.086 504.459 194.336 504.285 193.688 503.937C193.052 503.577 192.554 503.085 192.194 502.461C191.846 501.825 191.672 501.093 191.672 500.265C191.672 499.689 191.774 499.101 191.978 498.501C192.194 497.889 192.488 497.253 192.86 496.593L195.956 491.139H197.72L194.156 497.205L194.228 497.259C194.444 496.935 194.756 496.677 195.164 496.485C195.572 496.293 196.034 496.197 196.55 496.197C197.27 496.197 197.9 496.365 198.44 496.701C198.992 497.037 199.418 497.505 199.718 498.105C200.018 498.693 200.168 499.389 200.168 500.193C200.168 501.045 199.988 501.795 199.628 502.443C199.28 503.079 198.788 503.577 198.152 503.937C197.528 504.285 196.79 504.459 195.938 504.459ZM195.92 503.019C196.7 503.019 197.33 502.767 197.81 502.263C198.302 501.747 198.548 501.069 198.548 500.229C198.548 499.389 198.302 498.717 197.81 498.213C197.33 497.697 196.7 497.439 195.92 497.439C195.14 497.439 194.504 497.697 194.012 498.213C193.532 498.717 193.292 499.389 193.292 500.229C193.292 501.069 193.532 501.747 194.012 502.263C194.504 502.767 195.14 503.019 195.92 503.019ZM208.693 504.279V501.399H202.753V498.861L207.541 491.139H209.323L204.373 499.185V499.923H208.693V496.719H210.313V504.279H208.693ZM213.474 504.279V491.139H215.598L217.002 495.387C217.134 495.771 217.242 496.155 217.326 496.539C217.422 496.911 217.494 497.199 217.542 497.403C217.59 497.199 217.662 496.911 217.758 496.539C217.854 496.155 217.962 495.765 218.082 495.369L219.414 491.139H221.538V504.279H219.954V499.509C219.954 498.981 219.966 498.381 219.99 497.709C220.026 497.037 220.068 496.353 220.116 495.657C220.164 494.949 220.212 494.277 220.26 493.641C220.32 492.993 220.374 492.429 220.422 491.949L218.28 498.519H216.732L214.572 491.949C214.632 492.417 214.686 492.963 214.734 493.587C214.794 494.199 214.848 494.853 214.896 495.549C214.944 496.233 214.98 496.917 215.004 497.601C215.04 498.285 215.058 498.921 215.058 499.509V504.279H213.474ZM227.435 504.459C226.391 504.459 225.569 504.195 224.969 503.667C224.369 503.127 224.069 502.401 224.069 501.489C224.069 500.565 224.369 499.839 224.969 499.311C225.569 498.783 226.379 498.519 227.399 498.519H230.459V497.529C230.459 496.929 230.273 496.461 229.901 496.125C229.541 495.789 229.025 495.621 228.353 495.621C227.765 495.621 227.279 495.747 226.895 495.999C226.511 496.239 226.277 496.569 226.193 496.989H224.573C224.681 496.137 225.083 495.459 225.779 494.955C226.475 494.451 227.345 494.199 228.389 494.199C229.529 494.199 230.429 494.493 231.089 495.081C231.749 495.669 232.079 496.467 232.079 497.475V504.279H230.495V502.389H230.477C230.405 503.025 230.093 503.529 229.541 503.901C229.001 504.273 228.299 504.459 227.435 504.459ZM227.831 503.181C228.599 503.181 229.229 502.989 229.721 502.605C230.213 502.221 230.459 501.729 230.459 501.129V499.725H227.435C226.895 499.725 226.469 499.875 226.157 500.175C225.845 500.475 225.689 500.883 225.689 501.399C225.689 501.951 225.875 502.389 226.247 502.713C226.631 503.025 227.159 503.181 227.831 503.181ZM235.222 504.279V502.803H238.732V495.855H235.672V494.379H240.352V502.803H243.682V504.279H235.222ZM239.362 492.597C238.966 492.597 238.654 492.495 238.426 492.291C238.198 492.087 238.084 491.811 238.084 491.463C238.084 491.103 238.198 490.821 238.426 490.617C238.654 490.401 238.966 490.293 239.362 490.293C239.758 490.293 240.07 490.401 240.298 490.617C240.526 490.821 240.64 491.103 240.64 491.463C240.64 491.811 240.526 492.087 240.298 492.291C240.07 492.495 239.758 492.597 239.362 492.597ZM246.141 504.279V494.379H247.761V496.269H247.779C247.863 495.609 248.133 495.099 248.589 494.739C249.045 494.379 249.651 494.199 250.407 494.199C251.403 494.199 252.195 494.505 252.783 495.117C253.371 495.729 253.665 496.563 253.665 497.619V504.279H252.045V497.799C252.045 497.091 251.853 496.551 251.469 496.179C251.097 495.795 250.587 495.603 249.939 495.603C249.267 495.603 248.733 495.807 248.337 496.215C247.953 496.623 247.761 497.211 247.761 497.979V504.279H246.141Z" fill="black"/>
<ellipse cx="430" cy="498" rx="90" ry="42" fill="#BBEEC5"/>
<path d="M378.086 504.279V502.803H381.596V495.855H378.536V494.379H383.216V502.803H386.546V504.279H378.086ZM382.226 492.597C381.83 492.597 381.518 492.495 381.29 492.291C381.062 492.087 380.948 491.811 380.948 491.463C380.948 491.103 381.062 490.821 381.29 490.617C381.518 490.401 381.83 490.293 382.226 490.293C382.622 490.293 382.934 490.401 383.162 490.617C383.39 490.821 383.504 491.103 383.504 491.463C383.504 491.811 383.39 492.087 383.162 492.291C382.934 492.495 382.622 492.597 382.226 492.597ZM392.749 504.423C391.549 504.423 390.601 504.087 389.905 503.415C389.221 502.731 388.879 501.807 388.879 500.643V498.015C388.879 496.839 389.221 495.915 389.905 495.243C390.601 494.571 391.549 494.235 392.749 494.235C393.949 494.235 394.891 494.571 395.575 495.243C396.271 495.915 396.619 496.833 396.619 497.997V500.643C396.619 501.807 396.271 502.731 395.575 503.415C394.891 504.087 393.949 504.423 392.749 504.423ZM392.749 502.983C393.457 502.983 394.009 502.785 394.405 502.389C394.801 501.993 394.999 501.411 394.999 500.643V498.015C394.999 497.247 394.801 496.665 394.405 496.269C394.009 495.873 393.457 495.675 392.749 495.675C392.053 495.675 391.501 495.873 391.093 496.269C390.697 496.665 390.499 497.247 390.499 498.015V500.643C390.499 501.411 390.697 501.993 391.093 502.389C391.501 502.785 392.053 502.983 392.749 502.983ZM403.236 504.423C402.216 504.423 401.406 504.195 400.806 503.739C400.206 503.271 399.858 502.641 399.762 501.849H401.382C401.454 502.197 401.646 502.473 401.958 502.677C402.282 502.881 402.708 502.983 403.236 502.983H403.992C404.628 502.983 405.102 502.857 405.414 502.605C405.726 502.341 405.882 501.993 405.882 501.561C405.882 500.745 405.324 500.247 404.208 500.067L402.876 499.851C401.904 499.683 401.178 499.383 400.698 498.951C400.23 498.507 399.996 497.865 399.996 497.025C399.996 496.137 400.278 495.453 400.842 494.973C401.406 494.481 402.252 494.235 403.38 494.235H404.064C405.012 494.235 405.774 494.457 406.35 494.901C406.926 495.345 407.274 495.945 407.394 496.701H405.774C405.702 496.389 405.522 496.143 405.234 495.963C404.946 495.771 404.556 495.675 404.064 495.675H403.38C402.768 495.675 402.318 495.789 402.03 496.017C401.754 496.245 401.616 496.587 401.616 497.043C401.616 497.451 401.736 497.751 401.976 497.943C402.216 498.135 402.594 498.273 403.11 498.357L404.442 498.573C405.51 498.741 406.284 499.053 406.764 499.509C407.256 499.965 407.502 500.625 407.502 501.489C407.502 502.401 407.208 503.121 406.62 503.649C406.044 504.165 405.168 504.423 403.992 504.423H403.236ZM409.654 504.279L413.434 497.619L409.852 491.139H411.724L413.758 495.027C413.866 495.231 413.974 495.453 414.082 495.693C414.202 495.921 414.298 496.101 414.37 496.233C414.43 496.101 414.514 495.921 414.622 495.693C414.742 495.453 414.856 495.231 414.964 495.027L417.034 491.139H418.816L415.234 497.511L419.014 504.279H417.16L414.91 500.103C414.802 499.899 414.688 499.683 414.568 499.455C414.46 499.215 414.376 499.023 414.316 498.879C414.256 499.023 414.166 499.209 414.046 499.437C413.938 499.665 413.83 499.881 413.722 500.085L411.454 504.279H409.654ZM425.145 504.459C424.293 504.459 423.543 504.285 422.895 503.937C422.259 503.577 421.761 503.085 421.401 502.461C421.053 501.825 420.879 501.093 420.879 500.265C420.879 499.689 420.981 499.101 421.185 498.501C421.401 497.889 421.695 497.253 422.067 496.593L425.163 491.139H426.927L423.363 497.205L423.435 497.259C423.651 496.935 423.963 496.677 424.371 496.485C424.779 496.293 425.241 496.197 425.757 496.197C426.477 496.197 427.107 496.365 427.647 496.701C428.199 497.037 428.625 497.505 428.925 498.105C429.225 498.693 429.375 499.389 429.375 500.193C429.375 501.045 429.195 501.795 428.835 502.443C428.487 503.079 427.995 503.577 427.359 503.937C426.735 504.285 425.997 504.459 425.145 504.459ZM425.127 503.019C425.907 503.019 426.537 502.767 427.017 502.263C427.509 501.747 427.755 501.069 427.755 500.229C427.755 499.389 427.509 498.717 427.017 498.213C426.537 497.697 425.907 497.439 425.127 497.439C424.347 497.439 423.711 497.697 423.219 498.213C422.739 498.717 422.499 499.389 422.499 500.229C422.499 501.069 422.739 501.747 423.219 502.263C423.711 502.767 424.347 503.019 425.127 503.019ZM437.9 504.279V501.399H431.96V498.861L436.748 491.139H438.53L433.58 499.185V499.923H437.9V496.719H439.52V504.279H437.9ZM442.681 504.279V491.139H444.805L446.209 495.387C446.341 495.771 446.449 496.155 446.533 496.539C446.629 496.911 446.701 497.199 446.749 497.403C446.797 497.199 446.869 496.911 446.965 496.539C447.061 496.155 447.169 495.765 447.289 495.369L448.621 491.139H450.745V504.279H449.161V499.509C449.161 498.981 449.173 498.381 449.197 497.709C449.233 497.037 449.275 496.353 449.323 495.657C449.371 494.949 449.419 494.277 449.467 493.641C449.527 492.993 449.581 492.429 449.629 491.949L447.487 498.519H445.939L443.779 491.949C443.839 492.417 443.893 492.963 443.941 493.587C444.001 494.199 444.055 494.853 444.103 495.549C444.151 496.233 444.187 496.917 444.211 497.601C444.247 498.285 444.265 498.921 444.265 499.509V504.279H442.681ZM456.642 504.459C455.598 504.459 454.776 504.195 454.176 503.667C453.576 503.127 453.276 502.401 453.276 501.489C453.276 500.565 453.576 499.839 454.176 499.311C454.776 498.783 455.586 498.519 456.606 498.519H459.666V497.529C459.666 496.929 459.48 496.461 459.108 496.125C458.748 495.789 458.232 495.621 457.56 495.621C456.972 495.621 456.486 495.747 456.102 495.999C455.718 496.239 455.484 496.569 455.4 496.989H453.78C453.888 496.137 454.29 495.459 454.986 494.955C455.682 494.451 456.552 494.199 457.596 494.199C458.736 494.199 459.636 494.493 460.296 495.081C460.956 495.669 461.286 496.467 461.286 497.475V504.279H459.702V502.389H459.684C459.612 503.025 459.3 503.529 458.748 503.901C458.208 504.273 457.506 504.459 456.642 504.459ZM457.038 503.181C457.806 503.181 458.436 502.989 458.928 502.605C459.42 502.221 459.666 501.729 459.666 501.129V499.725H456.642C456.102 499.725 455.676 499.875 455.364 500.175C455.052 500.475 454.896 500.883 454.896 501.399C454.896 501.951 455.082 502.389 455.454 502.713C455.838 503.025 456.366 503.181 457.038 503.181ZM464.429 504.279V502.803H467.939V495.855H464.879V494.379H469.559V502.803H472.889V504.279H464.429ZM468.569 492.597C468.173 492.597 467.861 492.495 467.633 492.291C467.405 492.087 467.291 491.811 467.291 491.463C467.291 491.103 467.405 490.821 467.633 490.617C467.861 490.401 468.173 490.293 468.569 490.293C468.965 490.293 469.277 490.401 469.505 490.617C469.733 490.821 469.847 491.103 469.847 491.463C469.847 491.811 469.733 492.087 469.505 492.291C469.277 492.495 468.965 492.597 468.569 492.597ZM475.348 504.279V494.379H476.968V496.269H476.986C477.07 495.609 477.34 495.099 477.796 494.739C478.252 494.379 478.858 494.199 479.614 494.199C480.61 494.199 481.402 494.505 481.99 495.117C482.578 495.729 482.872 496.563 482.872 497.619V504.279H481.252V497.799C481.252 497.091 481.06 496.551 480.676 496.179C480.304 495.795 479.794 495.603 479.146 495.603C478.474 495.603 477.94 495.807 477.544 496.215C477.16 496.623 476.968 497.211 476.968 497.979V504.279H475.348Z" fill="black"/>
<ellipse cx="766" cy="498" rx="90" ry="42" fill="#BBEEC5"/>
<path d="M708.602 504.279C707.726 504.279 707.024 504.027 706.496 503.523C705.98 503.007 705.722 502.329 705.722 501.489V492.615H702.302V491.139H707.342V501.489C707.342 501.897 707.456 502.221 707.684 502.461C707.912 502.689 708.218 502.803 708.602 502.803H711.662V504.279H708.602ZM714.085 504.279V502.803H717.595V495.855H714.535V494.379H719.215V502.803H722.545V504.279H714.085ZM718.225 492.597C717.829 492.597 717.517 492.495 717.289 492.291C717.061 492.087 716.947 491.811 716.947 491.463C716.947 491.103 717.061 490.821 717.289 490.617C717.517 490.401 717.829 490.293 718.225 490.293C718.621 490.293 718.933 490.401 719.161 490.617C719.389 490.821 719.503 491.103 719.503 491.463C719.503 491.811 719.389 492.087 719.161 492.291C718.933 492.495 718.621 492.597 718.225 492.597ZM725.004 504.279V494.379H726.624V496.269H726.642C726.726 495.609 726.996 495.099 727.452 494.739C727.908 494.379 728.514 494.199 729.27 494.199C730.266 494.199 731.058 494.505 731.646 495.117C732.234 495.729 732.528 496.563 732.528 497.619V504.279H730.908V497.799C730.908 497.091 730.716 496.551 730.332 496.179C729.96 495.795 729.45 495.603 728.802 495.603C728.13 495.603 727.596 495.807 727.2 496.215C726.816 496.623 726.624 497.211 726.624 497.979V504.279H725.004ZM739.523 504.459C738.383 504.459 737.471 504.123 736.787 503.451C736.103 502.767 735.761 501.843 735.761 500.679V494.379H737.381V500.679C737.381 501.423 737.573 502.005 737.957 502.425C738.341 502.833 738.863 503.037 739.523 503.037C740.195 503.037 740.723 502.833 741.107 502.425C741.503 502.005 741.701 501.423 741.701 500.679V494.379H743.321V500.679C743.321 501.843 742.973 502.767 742.277 503.451C741.581 504.123 740.663 504.459 739.523 504.459ZM745.834 504.279L749.344 499.185L746.05 494.379H747.958L749.92 497.439C750.004 497.571 750.082 497.715 750.154 497.871C750.238 498.027 750.304 498.153 750.352 498.249C750.388 498.153 750.442 498.027 750.514 497.871C750.598 497.715 750.682 497.571 750.766 497.439L752.746 494.379H754.636L751.342 499.203L754.834 504.279H752.926L750.802 501.039C750.718 500.907 750.634 500.757 750.55 500.589C750.478 500.409 750.412 500.265 750.352 500.157C750.304 500.265 750.232 500.409 750.136 500.589C750.052 500.757 749.962 500.907 749.866 501.039L747.724 504.279H745.834ZM756.447 504.279L760.227 497.619L756.645 491.139H758.517L760.551 495.027C760.659 495.231 760.767 495.453 760.875 495.693C760.995 495.921 761.091 496.101 761.163 496.233C761.223 496.101 761.307 495.921 761.415 495.693C761.535 495.453 761.649 495.231 761.757 495.027L763.827 491.139H765.609L762.027 497.511L765.807 504.279H763.953L761.703 500.103C761.595 499.899 761.481 499.683 761.361 499.455C761.253 499.215 761.169 499.023 761.109 498.879C761.049 499.023 760.959 499.209 760.839 499.437C760.731 499.665 760.623 499.881 760.515 500.085L758.247 504.279H756.447ZM771.938 504.459C771.086 504.459 770.336 504.285 769.688 503.937C769.052 503.577 768.554 503.085 768.194 502.461C767.846 501.825 767.672 501.093 767.672 500.265C767.672 499.689 767.774 499.101 767.978 498.501C768.194 497.889 768.488 497.253 768.86 496.593L771.956 491.139H773.72L770.156 497.205L770.228 497.259C770.444 496.935 770.756 496.677 771.164 496.485C771.572 496.293 772.034 496.197 772.55 496.197C773.27 496.197 773.9 496.365 774.44 496.701C774.992 497.037 775.418 497.505 775.718 498.105C776.018 498.693 776.168 499.389 776.168 500.193C776.168 501.045 775.988 501.795 775.628 502.443C775.28 503.079 774.788 503.577 774.152 503.937C773.528 504.285 772.79 504.459 771.938 504.459ZM771.92 503.019C772.7 503.019 773.33 502.767 773.81 502.263C774.302 501.747 774.548 501.069 774.548 500.229C774.548 499.389 774.302 498.717 773.81 498.213C773.33 497.697 772.7 497.439 771.92 497.439C771.14 497.439 770.504 497.697 770.012 498.213C769.532 498.717 769.292 499.389 769.292 500.229C769.292 501.069 769.532 501.747 770.012 502.263C770.504 502.767 771.14 503.019 771.92 503.019ZM784.693 504.279V501.399H778.753V498.861L783.541 491.139H785.323L780.373 499.185V499.923H784.693V496.719H786.313V504.279H784.693ZM789.474 504.279V491.139H791.598L793.002 495.387C793.134 495.771 793.242 496.155 793.326 496.539C793.422 496.911 793.494 497.199 793.542 497.403C793.59 497.199 793.662 496.911 793.758 496.539C793.854 496.155 793.962 495.765 794.082 495.369L795.414 491.139H797.538V504.279H795.954V499.509C795.954 498.981 795.966 498.381 795.99 497.709C796.026 497.037 796.068 496.353 796.116 495.657C796.164 494.949 796.212 494.277 796.26 493.641C796.32 492.993 796.374 492.429 796.422 491.949L794.28 498.519H792.732L790.572 491.949C790.632 492.417 790.686 492.963 790.734 493.587C790.794 494.199 790.848 494.853 790.896 495.549C790.944 496.233 790.98 496.917 791.004 497.601C791.04 498.285 791.058 498.921 791.058 499.509V504.279H789.474ZM803.435 504.459C802.391 504.459 801.569 504.195 800.969 503.667C800.369 503.127 800.069 502.401 800.069 501.489C800.069 500.565 800.369 499.839 800.969 499.311C801.569 498.783 802.379 498.519 803.399 498.519H806.459V497.529C806.459 496.929 806.273 496.461 805.901 496.125C805.541 495.789 805.025 495.621 804.353 495.621C803.765 495.621 803.279 495.747 802.895 495.999C802.511 496.239 802.277 496.569 802.193 496.989H800.573C800.681 496.137 801.083 495.459 801.779 494.955C802.475 494.451 803.345 494.199 804.389 494.199C805.529 494.199 806.429 494.493 807.089 495.081C807.749 495.669 808.079 496.467 808.079 497.475V504.279H806.495V502.389H806.477C806.405 503.025 806.093 503.529 805.541 503.901C805.001 504.273 804.299 504.459 803.435 504.459ZM803.831 503.181C804.599 503.181 805.229 502.989 805.721 502.605C806.213 502.221 806.459 501.729 806.459 501.129V499.725H803.435C802.895 499.725 802.469 499.875 802.157 500.175C801.845 500.475 801.689 500.883 801.689 501.399C801.689 501.951 801.875 502.389 802.247 502.713C802.631 503.025 803.159 503.181 803.831 503.181ZM811.222 504.279V502.803H814.732V495.855H811.672V494.379H816.352V502.803H819.682V504.279H811.222ZM815.362 492.597C814.966 492.597 814.654 492.495 814.426 492.291C814.198 492.087 814.084 491.811 814.084 491.463C814.084 491.103 814.198 490.821 814.426 490.617C814.654 490.401 814.966 490.293 815.362 490.293C815.758 490.293 816.07 490.401 816.298 490.617C816.526 490.821 816.64 491.103 816.64 491.463C816.64 491.811 816.526 492.087 816.298 492.291C816.07 492.495 815.758 492.597 815.362 492.597ZM822.141 504.279V494.379H823.761V496.269H823.779C823.863 495.609 824.133 495.099 824.589 494.739C825.045 494.379 825.651 494.199 826.407 494.199C827.403 494.199 828.195 494.505 828.783 495.117C829.371 495.729 829.665 496.563 829.665 497.619V504.279H828.045V497.799C828.045 497.091 827.853 496.551 827.469 496.179C827.097 495.795 826.587 495.603 825.939 495.603C825.267 495.603 824.733 495.807 824.337 496.215C823.953 496.623 823.761 497.211 823.761 497.979V504.279H822.141Z" fill="black"/>
<ellipse cx="994" cy="498" rx="90" ry="42" fill="#BBEEC5"/>
<path d="M930.95 504.279V494.379H932.372V495.567H932.48C932.552 495.147 932.726 494.817 933.002 494.577C933.29 494.325 933.65 494.199 934.082 494.199C934.934 494.199 935.474 494.655 935.702 495.567H935.774C935.846 495.147 936.026 494.817 936.314 494.577C936.614 494.325 936.98 494.199 937.412 494.199C938.036 494.199 938.516 494.433 938.852 494.901C939.2 495.369 939.374 495.987 939.374 496.755V504.279H937.88V496.737C937.88 496.329 937.79 496.011 937.61 495.783C937.442 495.555 937.19 495.441 936.854 495.441C936.53 495.441 936.272 495.555 936.08 495.783C935.9 495.999 935.81 496.311 935.81 496.719V504.279H934.514V496.737C934.514 496.317 934.418 495.999 934.226 495.783C934.046 495.555 933.788 495.441 933.452 495.441C933.116 495.441 932.864 495.555 932.696 495.783C932.528 495.999 932.444 496.311 932.444 496.719V504.279H930.95ZM942.085 504.279V502.803H945.595V495.855H942.535V494.379H947.215V502.803H950.545V504.279H942.085ZM946.225 492.597C945.829 492.597 945.517 492.495 945.289 492.291C945.061 492.087 944.947 491.811 944.947 491.463C944.947 491.103 945.061 490.821 945.289 490.617C945.517 490.401 945.829 490.293 946.225 490.293C946.621 490.293 946.933 490.401 947.161 490.617C947.389 490.821 947.503 491.103 947.503 491.463C947.503 491.811 947.389 492.087 947.161 492.291C946.933 492.495 946.621 492.597 946.225 492.597ZM953.004 504.279V494.379H954.624V496.269H954.642C954.726 495.609 954.996 495.099 955.452 494.739C955.908 494.379 956.514 494.199 957.27 494.199C958.266 494.199 959.058 494.505 959.646 495.117C960.234 495.729 960.528 496.563 960.528 497.619V504.279H958.908V497.799C958.908 497.091 958.716 496.551 958.332 496.179C957.96 495.795 957.45 495.603 956.802 495.603C956.13 495.603 955.596 495.807 955.2 496.215C954.816 496.623 954.624 497.211 954.624 497.979V504.279H953.004ZM965.039 507.519V506.043H968.189C969.161 506.043 969.647 505.575 969.647 504.639V503.379L969.683 501.579H969.647C969.587 502.215 969.317 502.719 968.837 503.091C968.369 503.463 967.763 503.649 967.019 503.649C965.999 503.649 965.195 503.319 964.607 502.659C964.019 501.987 963.725 501.087 963.725 499.959V497.871C963.725 496.743 964.019 495.849 964.607 495.189C965.195 494.529 965.999 494.199 967.019 494.199C967.763 494.199 968.369 494.385 968.837 494.757C969.317 495.129 969.587 495.633 969.647 496.269H969.665V494.379H971.267V504.639C971.267 505.527 970.991 506.229 970.439 506.745C969.899 507.261 969.143 507.519 968.171 507.519H965.039ZM967.505 502.245C968.177 502.245 968.705 502.035 969.089 501.615C969.473 501.195 969.665 500.613 969.665 499.869V497.979C969.665 497.235 969.473 496.653 969.089 496.233C968.705 495.813 968.177 495.603 967.505 495.603C966.821 495.603 966.287 495.807 965.903 496.215C965.531 496.623 965.345 497.211 965.345 497.979V499.869C965.345 500.637 965.531 501.225 965.903 501.633C966.287 502.041 966.821 502.245 967.505 502.245ZM975.148 504.279L973.564 494.379H975.004L975.994 501.399C976.03 501.663 976.066 501.951 976.102 502.263C976.15 502.563 976.186 502.815 976.21 503.019C976.234 502.815 976.27 502.563 976.318 502.263C976.378 501.951 976.426 501.663 976.462 501.399L977.56 494.379H979.108L980.206 501.399C980.242 501.663 980.284 501.951 980.332 502.263C980.392 502.563 980.434 502.815 980.458 503.019C980.482 502.815 980.518 502.563 980.566 502.263C980.626 501.951 980.674 501.663 980.71 501.399L981.736 494.379H983.104L981.448 504.279H979.666L978.604 497.439C978.556 497.103 978.502 496.767 978.442 496.431C978.382 496.095 978.34 495.831 978.316 495.639C978.292 495.831 978.256 496.095 978.208 496.431C978.16 496.767 978.106 497.103 978.046 497.439L976.93 504.279H975.148ZM984.447 504.279L988.227 497.619L984.645 491.139H986.517L988.551 495.027C988.659 495.231 988.767 495.453 988.875 495.693C988.995 495.921 989.091 496.101 989.163 496.233C989.223 496.101 989.307 495.921 989.415 495.693C989.535 495.453 989.649 495.231 989.757 495.027L991.827 491.139H993.609L990.027 497.511L993.807 504.279H991.953L989.703 500.103C989.595 499.899 989.481 499.683 989.361 499.455C989.253 499.215 989.169 499.023 989.109 498.879C989.049 499.023 988.959 499.209 988.839 499.437C988.731 499.665 988.623 499.881 988.515 500.085L986.247 504.279H984.447ZM999.938 504.459C999.086 504.459 998.336 504.285 997.688 503.937C997.052 503.577 996.554 503.085 996.194 502.461C995.846 501.825 995.672 501.093 995.672 500.265C995.672 499.689 995.774 499.101 995.978 498.501C996.194 497.889 996.488 497.253 996.86 496.593L999.956 491.139H1001.72L998.156 497.205L998.228 497.259C998.444 496.935 998.756 496.677 999.164 496.485C999.572 496.293 1000.03 496.197 1000.55 496.197C1001.27 496.197 1001.9 496.365 1002.44 496.701C1002.99 497.037 1003.42 497.505 1003.72 498.105C1004.02 498.693 1004.17 499.389 1004.17 500.193C1004.17 501.045 1003.99 501.795 1003.63 502.443C1003.28 503.079 1002.79 503.577 1002.15 503.937C1001.53 504.285 1000.79 504.459 999.938 504.459ZM999.92 503.019C1000.7 503.019 1001.33 502.767 1001.81 502.263C1002.3 501.747 1002.55 501.069 1002.55 500.229C1002.55 499.389 1002.3 498.717 1001.81 498.213C1001.33 497.697 1000.7 497.439 999.92 497.439C999.14 497.439 998.504 497.697 998.012 498.213C997.532 498.717 997.292 499.389 997.292 500.229C997.292 501.069 997.532 501.747 998.012 502.263C998.504 502.767 999.14 503.019 999.92 503.019ZM1012.69 504.279V501.399H1006.75V498.861L1011.54 491.139H1013.32L1008.37 499.185V499.923H1012.69V496.719H1014.31V504.279H1012.69ZM1017.47 504.279V491.139H1019.6L1021 495.387C1021.13 495.771 1021.24 496.155 1021.33 496.539C1021.42 496.911 1021.49 497.199 1021.54 497.403C1021.59 497.199 1021.66 496.911 1021.76 496.539C1021.85 496.155 1021.96 495.765 1022.08 495.369L1023.41 491.139H1025.54V504.279H1023.95V499.509C1023.95 498.981 1023.97 498.381 1023.99 497.709C1024.03 497.037 1024.07 496.353 1024.12 495.657C1024.16 494.949 1024.21 494.277 1024.26 493.641C1024.32 492.993 1024.37 492.429 1024.42 491.949L1022.28 498.519H1020.73L1018.57 491.949C1018.63 492.417 1018.69 492.963 1018.73 493.587C1018.79 494.199 1018.85 494.853 1018.9 495.549C1018.94 496.233 1018.98 496.917 1019 497.601C1019.04 498.285 1019.06 498.921 1019.06 499.509V504.279H1017.47ZM1031.44 504.459C1030.39 504.459 1029.57 504.195 1028.97 503.667C1028.37 503.127 1028.07 502.401 1028.07 501.489C1028.07 500.565 1028.37 499.839 1028.97 499.311C1029.57 498.783 1030.38 498.519 1031.4 498.519H1034.46V497.529C1034.46 496.929 1034.27 496.461 1033.9 496.125C1033.54 495.789 1033.03 495.621 1032.35 495.621C1031.77 495.621 1031.28 495.747 1030.9 495.999C1030.51 496.239 1030.28 496.569 1030.19 496.989H1028.57C1028.68 496.137 1029.08 495.459 1029.78 494.955C1030.48 494.451 1031.35 494.199 1032.39 494.199C1033.53 494.199 1034.43 494.493 1035.09 495.081C1035.75 495.669 1036.08 496.467 1036.08 497.475V504.279H1034.5V502.389H1034.48C1034.41 503.025 1034.09 503.529 1033.54 503.901C1033 504.273 1032.3 504.459 1031.44 504.459ZM1031.83 503.181C1032.6 503.181 1033.23 502.989 1033.72 502.605C1034.21 502.221 1034.46 501.729 1034.46 501.129V499.725H1031.44C1030.9 499.725 1030.47 499.875 1030.16 500.175C1029.85 500.475 1029.69 500.883 1029.69 501.399C1029.69 501.951 1029.88 502.389 1030.25 502.713C1030.63 503.025 1031.16 503.181 1031.83 503.181ZM1039.22 504.279V502.803H1042.73V495.855H1039.67V494.379H1044.35V502.803H1047.68V504.279H1039.22ZM1043.36 492.597C1042.97 492.597 1042.65 492.495 1042.43 492.291C1042.2 492.087 1042.08 491.811 1042.08 491.463C1042.08 491.103 1042.2 490.821 1042.43 490.617C1042.65 490.401 1042.97 490.293 1043.36 490.293C1043.76 490.293 1044.07 490.401 1044.3 490.617C1044.53 490.821 1044.64 491.103 1044.64 491.463C1044.64 491.811 1044.53 492.087 1044.3 492.291C1044.07 492.495 1043.76 492.597 1043.36 492.597ZM1050.14 504.279V494.379H1051.76V496.269H1051.78C1051.86 495.609 1052.13 495.099 1052.59 494.739C1053.05 494.379 1053.65 494.199 1054.41 494.199C1055.4 494.199 1056.2 494.505 1056.78 495.117C1057.37 495.729 1057.67 496.563 1057.67 497.619V504.279H1056.05V497.799C1056.05 497.091 1055.85 496.551 1055.47 496.179C1055.1 495.795 1054.59 495.603 1053.94 495.603C1053.27 495.603 1052.73 495.807 1052.34 496.215C1051.95 496.623 1051.76 497.211 1051.76 497.979V504.279H1050.14Z" fill="black"/>
<ellipse cx="1222" cy="498" rx="90" ry="42" fill="#BBEEC5"/>
<path d="M1158.95 504.279V494.379H1160.37V495.567H1160.48C1160.55 495.147 1160.73 494.817 1161 494.577C1161.29 494.325 1161.65 494.199 1162.08 494.199C1162.93 494.199 1163.47 494.655 1163.7 495.567H1163.77C1163.85 495.147 1164.03 494.817 1164.31 494.577C1164.61 494.325 1164.98 494.199 1165.41 494.199C1166.04 494.199 1166.52 494.433 1166.85 494.901C1167.2 495.369 1167.37 495.987 1167.37 496.755V504.279H1165.88V496.737C1165.88 496.329 1165.79 496.011 1165.61 495.783C1165.44 495.555 1165.19 495.441 1164.85 495.441C1164.53 495.441 1164.27 495.555 1164.08 495.783C1163.9 495.999 1163.81 496.311 1163.81 496.719V504.279H1162.51V496.737C1162.51 496.317 1162.42 495.999 1162.23 495.783C1162.05 495.555 1161.79 495.441 1161.45 495.441C1161.12 495.441 1160.86 495.555 1160.7 495.783C1160.53 495.999 1160.44 496.311 1160.44 496.719V504.279H1158.95ZM1173.09 504.459C1172.05 504.459 1171.23 504.195 1170.63 503.667C1170.03 503.127 1169.73 502.401 1169.73 501.489C1169.73 500.565 1170.03 499.839 1170.63 499.311C1171.23 498.783 1172.04 498.519 1173.06 498.519H1176.12V497.529C1176.12 496.929 1175.93 496.461 1175.56 496.125C1175.2 495.789 1174.68 495.621 1174.01 495.621C1173.42 495.621 1172.94 495.747 1172.55 495.999C1172.17 496.239 1171.93 496.569 1171.85 496.989H1170.23C1170.34 496.137 1170.74 495.459 1171.44 494.955C1172.13 494.451 1173 494.199 1174.05 494.199C1175.19 494.199 1176.09 494.493 1176.75 495.081C1177.41 495.669 1177.74 496.467 1177.74 497.475V504.279H1176.15V502.389H1176.13C1176.06 503.025 1175.75 503.529 1175.2 503.901C1174.66 504.273 1173.96 504.459 1173.09 504.459ZM1173.49 503.181C1174.26 503.181 1174.89 502.989 1175.38 502.605C1175.87 502.221 1176.12 501.729 1176.12 501.129V499.725H1173.09C1172.55 499.725 1172.13 499.875 1171.81 500.175C1171.5 500.475 1171.35 500.883 1171.35 501.399C1171.35 501.951 1171.53 502.389 1171.9 502.713C1172.29 503.025 1172.82 503.181 1173.49 503.181ZM1184.82 504.459C1183.62 504.459 1182.66 504.123 1181.94 503.451C1181.23 502.779 1180.88 501.855 1180.88 500.679V497.979C1180.88 496.803 1181.23 495.879 1181.94 495.207C1182.66 494.535 1183.62 494.199 1184.82 494.199C1185.96 494.199 1186.88 494.505 1187.57 495.117C1188.27 495.729 1188.64 496.563 1188.67 497.619H1187.05C1187.02 496.983 1186.8 496.497 1186.4 496.161C1186.02 495.813 1185.49 495.639 1184.82 495.639C1184.11 495.639 1183.55 495.843 1183.13 496.251C1182.71 496.647 1182.5 497.217 1182.5 497.961V500.679C1182.5 501.423 1182.71 501.999 1183.13 502.407C1183.55 502.815 1184.11 503.019 1184.82 503.019C1185.49 503.019 1186.02 502.845 1186.4 502.497C1186.8 502.149 1187.02 501.663 1187.05 501.039H1188.67C1188.64 502.095 1188.27 502.929 1187.57 503.541C1186.88 504.153 1185.96 504.459 1184.82 504.459ZM1195.54 504.423C1194.34 504.423 1193.39 504.087 1192.7 503.415C1192.01 502.731 1191.67 501.807 1191.67 500.643V498.015C1191.67 496.839 1192.01 495.915 1192.7 495.243C1193.39 494.571 1194.34 494.235 1195.54 494.235C1196.74 494.235 1197.68 494.571 1198.37 495.243C1199.06 495.915 1199.41 496.833 1199.41 497.997V500.643C1199.41 501.807 1199.06 502.731 1198.37 503.415C1197.68 504.087 1196.74 504.423 1195.54 504.423ZM1195.54 502.983C1196.25 502.983 1196.8 502.785 1197.2 502.389C1197.59 501.993 1197.79 501.411 1197.79 500.643V498.015C1197.79 497.247 1197.59 496.665 1197.2 496.269C1196.8 495.873 1196.25 495.675 1195.54 495.675C1194.85 495.675 1194.29 495.873 1193.89 496.269C1193.49 496.665 1193.29 497.247 1193.29 498.015V500.643C1193.29 501.411 1193.49 501.993 1193.89 502.389C1194.29 502.785 1194.85 502.983 1195.54 502.983ZM1206.03 504.423C1205.01 504.423 1204.2 504.195 1203.6 503.739C1203 503.271 1202.65 502.641 1202.55 501.849H1204.17C1204.25 502.197 1204.44 502.473 1204.75 502.677C1205.07 502.881 1205.5 502.983 1206.03 502.983H1206.78C1207.42 502.983 1207.89 502.857 1208.21 502.605C1208.52 502.341 1208.67 501.993 1208.67 501.561C1208.67 500.745 1208.12 500.247 1207 500.067L1205.67 499.851C1204.7 499.683 1203.97 499.383 1203.49 498.951C1203.02 498.507 1202.79 497.865 1202.79 497.025C1202.79 496.137 1203.07 495.453 1203.63 494.973C1204.2 494.481 1205.04 494.235 1206.17 494.235H1206.86C1207.8 494.235 1208.57 494.457 1209.14 494.901C1209.72 495.345 1210.07 495.945 1210.19 496.701H1208.57C1208.49 496.389 1208.31 496.143 1208.03 495.963C1207.74 495.771 1207.35 495.675 1206.86 495.675H1206.17C1205.56 495.675 1205.11 495.789 1204.82 496.017C1204.55 496.245 1204.41 496.587 1204.41 497.043C1204.41 497.451 1204.53 497.751 1204.77 497.943C1205.01 498.135 1205.39 498.273 1205.9 498.357L1207.23 498.573C1208.3 498.741 1209.08 499.053 1209.56 499.509C1210.05 499.965 1210.29 500.625 1210.29 501.489C1210.29 502.401 1210 503.121 1209.41 503.649C1208.84 504.165 1207.96 504.423 1206.78 504.423H1206.03ZM1212.45 504.279L1216.23 497.619L1212.65 491.139H1214.52L1216.55 495.027C1216.66 495.231 1216.77 495.453 1216.88 495.693C1217 495.921 1217.09 496.101 1217.16 496.233C1217.22 496.101 1217.31 495.921 1217.42 495.693C1217.54 495.453 1217.65 495.231 1217.76 495.027L1219.83 491.139H1221.61L1218.03 497.511L1221.81 504.279H1219.95L1217.7 500.103C1217.6 499.899 1217.48 499.683 1217.36 499.455C1217.25 499.215 1217.17 499.023 1217.11 498.879C1217.05 499.023 1216.96 499.209 1216.84 499.437C1216.73 499.665 1216.62 499.881 1216.52 500.085L1214.25 504.279H1212.45ZM1227.94 504.459C1227.09 504.459 1226.34 504.285 1225.69 503.937C1225.05 503.577 1224.55 503.085 1224.19 502.461C1223.85 501.825 1223.67 501.093 1223.67 500.265C1223.67 499.689 1223.77 499.101 1223.98 498.501C1224.19 497.889 1224.49 497.253 1224.86 496.593L1227.96 491.139H1229.72L1226.16 497.205L1226.23 497.259C1226.44 496.935 1226.76 496.677 1227.16 496.485C1227.57 496.293 1228.03 496.197 1228.55 496.197C1229.27 496.197 1229.9 496.365 1230.44 496.701C1230.99 497.037 1231.42 497.505 1231.72 498.105C1232.02 498.693 1232.17 499.389 1232.17 500.193C1232.17 501.045 1231.99 501.795 1231.63 502.443C1231.28 503.079 1230.79 503.577 1230.15 503.937C1229.53 504.285 1228.79 504.459 1227.94 504.459ZM1227.92 503.019C1228.7 503.019 1229.33 502.767 1229.81 502.263C1230.3 501.747 1230.55 501.069 1230.55 500.229C1230.55 499.389 1230.3 498.717 1229.81 498.213C1229.33 497.697 1228.7 497.439 1227.92 497.439C1227.14 497.439 1226.5 497.697 1226.01 498.213C1225.53 498.717 1225.29 499.389 1225.29 500.229C1225.29 501.069 1225.53 501.747 1226.01 502.263C1226.5 502.767 1227.14 503.019 1227.92 503.019ZM1240.69 504.279V501.399H1234.75V498.861L1239.54 491.139H1241.32L1236.37 499.185V499.923H1240.69V496.719H1242.31V504.279H1240.69ZM1245.47 504.279V491.139H1247.6L1249 495.387C1249.13 495.771 1249.24 496.155 1249.33 496.539C1249.42 496.911 1249.49 497.199 1249.54 497.403C1249.59 497.199 1249.66 496.911 1249.76 496.539C1249.85 496.155 1249.96 495.765 1250.08 495.369L1251.41 491.139H1253.54V504.279H1251.95V499.509C1251.95 498.981 1251.97 498.381 1251.99 497.709C1252.03 497.037 1252.07 496.353 1252.12 495.657C1252.16 494.949 1252.21 494.277 1252.26 493.641C1252.32 492.993 1252.37 492.429 1252.42 491.949L1250.28 498.519H1248.73L1246.57 491.949C1246.63 492.417 1246.69 492.963 1246.73 493.587C1246.79 494.199 1246.85 494.853 1246.9 495.549C1246.94 496.233 1246.98 496.917 1247 497.601C1247.04 498.285 1247.06 498.921 1247.06 499.509V504.279H1245.47ZM1259.44 504.459C1258.39 504.459 1257.57 504.195 1256.97 503.667C1256.37 503.127 1256.07 502.401 1256.07 501.489C1256.07 500.565 1256.37 499.839 1256.97 499.311C1257.57 498.783 1258.38 498.519 1259.4 498.519H1262.46V497.529C1262.46 496.929 1262.27 496.461 1261.9 496.125C1261.54 495.789 1261.03 495.621 1260.35 495.621C1259.77 495.621 1259.28 495.747 1258.9 495.999C1258.51 496.239 1258.28 496.569 1258.19 496.989H1256.57C1256.68 496.137 1257.08 495.459 1257.78 494.955C1258.48 494.451 1259.35 494.199 1260.39 494.199C1261.53 494.199 1262.43 494.493 1263.09 495.081C1263.75 495.669 1264.08 496.467 1264.08 497.475V504.279H1262.5V502.389H1262.48C1262.41 503.025 1262.09 503.529 1261.54 503.901C1261 504.273 1260.3 504.459 1259.44 504.459ZM1259.83 503.181C1260.6 503.181 1261.23 502.989 1261.72 502.605C1262.21 502.221 1262.46 501.729 1262.46 501.129V499.725H1259.44C1258.9 499.725 1258.47 499.875 1258.16 500.175C1257.85 500.475 1257.69 500.883 1257.69 501.399C1257.69 501.951 1257.88 502.389 1258.25 502.713C1258.63 503.025 1259.16 503.181 1259.83 503.181ZM1267.22 504.279V502.803H1270.73V495.855H1267.67V494.379H1272.35V502.803H1275.68V504.279H1267.22ZM1271.36 492.597C1270.97 492.597 1270.65 492.495 1270.43 492.291C1270.2 492.087 1270.08 491.811 1270.08 491.463C1270.08 491.103 1270.2 490.821 1270.43 490.617C1270.65 490.401 1270.97 490.293 1271.36 490.293C1271.76 490.293 1272.07 490.401 1272.3 490.617C1272.53 490.821 1272.64 491.103 1272.64 491.463C1272.64 491.811 1272.53 492.087 1272.3 492.291C1272.07 492.495 1271.76 492.597 1271.36 492.597ZM1278.14 504.279V494.379H1279.76V496.269H1279.78C1279.86 495.609 1280.13 495.099 1280.59 494.739C1281.05 494.379 1281.65 494.199 1282.41 494.199C1283.4 494.199 1284.2 494.505 1284.78 495.117C1285.37 495.729 1285.67 496.563 1285.67 497.619V504.279H1284.05V497.799C1284.05 497.091 1283.85 496.551 1283.47 496.179C1283.1 495.795 1282.59 495.603 1281.94 495.603C1281.27 495.603 1280.73 495.807 1280.34 496.215C1279.95 496.623 1279.76 497.211 1279.76 497.979V504.279H1278.14Z" fill="black"/>
</svg>
