<svg id="Layer_1" data-name="Layer 1" xmlns="http://www.w3.org/2000/svg" xmlns:xlink="http://www.w3.org/1999/xlink" viewBox="0 0 600 254.51"><defs><style>.cls-1{fill:url(#radial-gradient);}.cls-2{fill:#fff;}.cls-3{fill:#f3f3f3;}.cls-4{fill:url(#radial-gradient-2);}</style><radialGradient id="radial-gradient" cx="201.55" cy="262.14" r="200.03" gradientUnits="userSpaceOnUse"><stop offset="0" stop-color="#e44857"/><stop offset="0.05" stop-color="#da4968"/><stop offset="0.22" stop-color="#be4c96"/><stop offset="0.38" stop-color="#a74ebc"/><stop offset="0.54" stop-color="#9650d9"/><stop offset="0.7" stop-color="#8951ee"/><stop offset="0.85" stop-color="#8252fb"/><stop offset="1" stop-color="#7f52ff"/></radialGradient><radialGradient id="radial-gradient-2" cx="302.97" cy="154.46" r="200.03" xlink:href="#radial-gradient"/></defs><rect class="cls-1" x="198.67" y="217.2" width="202.6" height="37.26" rx="18.63"/><path class="cls-2" d="M216.33,241a5.5,5.5,0,0,1-2-2.13,6.67,6.67,0,0,1,0-6.07,5.39,5.39,0,0,1,4.87-2.91,5.51,5.51,0,0,1,4.29,2,4.21,4.21,0,0,1,.88,2H223a3.26,3.26,0,0,0-.71-1.38,4.1,4.1,0,0,0-3.1-1.41,4,4,0,0,0-2.15.6,4.08,4.08,0,0,0-1.5,1.68,5.67,5.67,0,0,0,0,4.83,4.15,4.15,0,0,0,1.5,1.68,4,4,0,0,0,2.15.6,4.06,4.06,0,0,0,3.1-1.42,3.22,3.22,0,0,0,.71-1.37h1.36a4.14,4.14,0,0,1-.88,2,5.36,5.36,0,0,1-1.86,1.49,5.6,5.6,0,0,1-5.29-.22Z"/><path class="cls-2" d="M227.7,241.2a4.14,4.14,0,0,1-1.51-1.57,4.92,4.92,0,0,1,0-4.52,4,4,0,0,1,1.52-1.57,4.4,4.4,0,0,1,4.33,0,4,4,0,0,1,1.52,1.57,4.69,4.69,0,0,1,.55,2.26,4.59,4.59,0,0,1-.56,2.26A4,4,0,0,1,232,241.2a4.4,4.4,0,0,1-4.33,0Zm3.64-1a2.8,2.8,0,0,0,1-1.13,3.53,3.53,0,0,0,.37-1.66,3.57,3.57,0,0,0-.37-1.67,2.81,2.81,0,0,0-4-1.13,2.67,2.67,0,0,0-1,1.13,3.57,3.57,0,0,0-.37,1.67,3.53,3.53,0,0,0,.37,1.66,2.67,2.67,0,0,0,1,1.13,2.95,2.95,0,0,0,2.93,0Z"/><path class="cls-2" d="M246.89,233.38a2.77,2.77,0,0,1,1.06,1.16,3.83,3.83,0,0,1,.38,1.73v5.3H247v-5.25a2.48,2.48,0,0,0-.5-1.65,1.8,1.8,0,0,0-1.43-.59,2.19,2.19,0,0,0-1.23.34,2.1,2.1,0,0,0-.79.94,3.4,3.4,0,0,0-.28,1.44v4.77h-1.31v-5.25a2.42,2.42,0,0,0-.53-1.65,1.85,1.85,0,0,0-1.46-.59,2.1,2.1,0,0,0-1.21.34,2.12,2.12,0,0,0-.77.94,3.56,3.56,0,0,0-.27,1.44v4.77h-1.31v-8.41h1.26v1.24a2.86,2.86,0,0,1,1-1.06,2.93,2.93,0,0,1,1.5-.37,3,3,0,0,1,1.63.44,2.86,2.86,0,0,1,1.09,1.22,3.29,3.29,0,0,1,4.45-1.25Z"/><path class="cls-2" d="M261.59,233.38a2.77,2.77,0,0,1,1.06,1.16,3.83,3.83,0,0,1,.38,1.73v5.3h-1.32v-5.25a2.43,2.43,0,0,0-.5-1.65,1.79,1.79,0,0,0-1.43-.59,2.14,2.14,0,0,0-2,1.28,3.4,3.4,0,0,0-.28,1.44v4.77h-1.31v-5.25a2.42,2.42,0,0,0-.53-1.65,1.85,1.85,0,0,0-1.46-.59,2.1,2.1,0,0,0-1.21.34,2.12,2.12,0,0,0-.77.94,3.56,3.56,0,0,0-.26,1.44v4.77h-1.32v-8.41h1.27v1.24a2.76,2.76,0,0,1,1-1.06,2.93,2.93,0,0,1,1.5-.37,3,3,0,0,1,1.63.44,2.86,2.86,0,0,1,1.09,1.22,3.1,3.1,0,0,1,1.16-1.22A3.15,3.15,0,0,1,260,233,3,3,0,0,1,261.59,233.38Z"/><path class="cls-2" d="M266.7,241.2a4.14,4.14,0,0,1-1.51-1.57,4.92,4.92,0,0,1,0-4.52,4.1,4.1,0,0,1,1.52-1.57,4.21,4.21,0,0,1,2.17-.57,4.15,4.15,0,0,1,2.16.57,4,4,0,0,1,1.52,1.57,4.92,4.92,0,0,1,0,4.52A4.12,4.12,0,0,1,271,241.2a4.4,4.4,0,0,1-4.33,0Zm3.65-1a2.71,2.71,0,0,0,1-1.13,3.53,3.53,0,0,0,.37-1.66,3.57,3.57,0,0,0-.37-1.67,2.71,2.71,0,0,0-1-1.13,2.84,2.84,0,0,0-1.47-.4,2.7,2.7,0,0,0-2.49,1.53,3.57,3.57,0,0,0-.37,1.67,3.53,3.53,0,0,0,.37,1.66,2.67,2.67,0,0,0,2.49,1.52A2.84,2.84,0,0,0,270.35,240.16Z"/><path class="cls-2" d="M280.53,233.37a2.69,2.69,0,0,1,1.08,1.16,3.66,3.66,0,0,1,.38,1.74v5.3h-1.31v-5.2a2.38,2.38,0,0,0-.55-1.68,2,2,0,0,0-1.54-.61,2.5,2.5,0,0,0-1.24.3,2.06,2.06,0,0,0-.82.86,2.72,2.72,0,0,0-.29,1.31v5h-1.32v-8.41h1.27v1.29a2.69,2.69,0,0,1,1.08-1.11,3.64,3.64,0,0,1,3.26,0Z"/><path class="cls-2" d="M289.71,241.57h-1.36V230.08h1.74l4.08,9.4.22.61.21-.61,4-9.4h1.79v11.49H299V232l-4,9.54h-1.19l-4.06-9.49Z"/><path class="cls-2" d="M308.75,233.16h1.31v8.41H308.8v-1.29a2.68,2.68,0,0,1-1.09,1.12,3.37,3.37,0,0,1-1.6.37,3.26,3.26,0,0,1-1.65-.41,2.69,2.69,0,0,1-1.09-1.15,3.84,3.84,0,0,1-.38-1.74v-5.31h1.31v5.21a2.38,2.38,0,0,0,.56,1.68,2,2,0,0,0,1.53.6,2.47,2.47,0,0,0,1.24-.3,2,2,0,0,0,.83-.86,2.84,2.84,0,0,0,.29-1.31Z"/><path class="cls-2" d="M313.87,241.57h-1.32V230.08h1.32Z"/><path class="cls-2" d="M318.62,241.57a2.05,2.05,0,0,1-1.44-.48,1.71,1.71,0,0,1-.53-1.34v-5.42h-1.48v-1.17h.91a.69.69,0,0,0,.51-.19.69.69,0,0,0,.19-.5v-1.41H318v2.1h2v1.17h-2v5.34a.73.73,0,0,0,.2.54.77.77,0,0,0,.54.2H320v1.16Z"/><path class="cls-2" d="M321.77,231.64v-1.56h1.49v1.56Zm1.4,9.93h-1.31v-8.41h1.31Z"/><path class="cls-2" d="M332,233.54a4,4,0,0,1,1.45,1.58,5,5,0,0,1,0,4.49,4,4,0,0,1-1.45,1.58,3.8,3.8,0,0,1-2.07.58,3.57,3.57,0,0,1-1.73-.42,3.39,3.39,0,0,1-1.25-1.19v.53l0,3.53h-1.3V233.16h1.27v1.42a3.34,3.34,0,0,1,1.25-1.2,3.68,3.68,0,0,1,1.73-.41A3.88,3.88,0,0,1,332,233.54Zm-.76,6.63a2.83,2.83,0,0,0,1-1.16,3.66,3.66,0,0,0,.36-1.64,3.7,3.7,0,0,0-.36-1.65,2.81,2.81,0,0,0-1-1.15,2.53,2.53,0,0,0-1.43-.42,2.59,2.59,0,0,0-1.45.42,2.81,2.81,0,0,0-1,1.15,3.7,3.7,0,0,0-.36,1.65,3.66,3.66,0,0,0,.36,1.64,2.83,2.83,0,0,0,1,1.16,2.59,2.59,0,0,0,1.45.42A2.53,2.53,0,0,0,331.22,240.17Z"/><path class="cls-2" d="M337.08,241.57h-1.31V230.08h1.31Z"/><path class="cls-2" d="M344.43,233.31a2.61,2.61,0,0,1,1.11,1,3,3,0,0,1,.4,1.6v5.64h-1.28v-1.25a2.63,2.63,0,0,1-1.11,1.08,3.67,3.67,0,0,1-1.72.37,3.31,3.31,0,0,1-1.47-.31,2.34,2.34,0,0,1-1-.86,2.21,2.21,0,0,1-.36-1.25,2.3,2.3,0,0,1,.34-1.21,2.59,2.59,0,0,1,.92-.91,3.12,3.12,0,0,1,1.34-.43l2.45-.25a.56.56,0,0,0,.43-.23.9.9,0,0,0,.16-.59,1.54,1.54,0,0,0-.91-1.46,2.26,2.26,0,0,0-1-.2,2.61,2.61,0,0,0-1,.19,2,2,0,0,0-.75.51,1.32,1.32,0,0,0-.33.73h-1.28a2.39,2.39,0,0,1,.54-1.28,3.26,3.26,0,0,1,1.22-.92,4.12,4.12,0,0,1,1.65-.33A3.8,3.8,0,0,1,344.43,233.31Zm-1,7.14a2.19,2.19,0,0,0,.91-.82,2.29,2.29,0,0,0,.32-1.2v-1l-2.86.3a1.66,1.66,0,0,0-1.06.48,1.41,1.41,0,0,0-.4,1,1.31,1.31,0,0,0,.22.76,1.45,1.45,0,0,0,.62.52,2.1,2.1,0,0,0,.92.19A2.86,2.86,0,0,0,343.41,240.45Z"/><path class="cls-2" d="M350.49,241.57a2.05,2.05,0,0,1-1.44-.48,1.75,1.75,0,0,1-.53-1.34v-5.42H347v-1.17H348a.68.68,0,0,0,.5-.19.69.69,0,0,0,.19-.5v-1.41h1.18v2.1h2v1.17h-2v5.34a.73.73,0,0,0,.2.54.77.77,0,0,0,.54.2h1.28v1.16Z"/><path class="cls-2" d="M354.09,241.57v-7.24h-1.48v-1.17h1.48V231.9a1.76,1.76,0,0,1,.52-1.34,2.06,2.06,0,0,1,1.45-.48h1.51v1.16h-1.43a.69.69,0,0,0-.74.74v1.18h2.09v1.17H355.4v7.24Z"/><path class="cls-2" d="M360.42,241.2a4.07,4.07,0,0,1-1.51-1.57,4.92,4.92,0,0,1,0-4.52,4,4,0,0,1,1.51-1.57,4.42,4.42,0,0,1,4.34,0,4,4,0,0,1,1.51,1.57,4.92,4.92,0,0,1,0,4.52,4.17,4.17,0,0,1-1.52,1.57,4.22,4.22,0,0,1-2.18.57A4.14,4.14,0,0,1,360.42,241.2Zm3.64-1a2.8,2.8,0,0,0,1-1.13,3.66,3.66,0,0,0,.37-1.66,3.7,3.7,0,0,0-.37-1.67,2.82,2.82,0,0,0-4-1.13,2.71,2.71,0,0,0-1,1.13,3.57,3.57,0,0,0-.37,1.67,3.53,3.53,0,0,0,.37,1.66,2.71,2.71,0,0,0,1,1.13,3,3,0,0,0,2.94,0Z"/><path class="cls-2" d="M372.71,233.08v1.37h-.3a2.36,2.36,0,0,0-1.8.69,2.7,2.7,0,0,0-.66,1.94v4.49h-1.31v-8.41H370v1.69a3,3,0,0,1,1-1.31,2.49,2.49,0,0,1,1.52-.46Z"/><path class="cls-2" d="M385.14,233.38a2.79,2.79,0,0,1,1.07,1.16,4,4,0,0,1,.37,1.73v5.3h-1.31v-5.25a2.43,2.43,0,0,0-.51-1.65,1.78,1.78,0,0,0-1.43-.59,2.14,2.14,0,0,0-2,1.28,3.56,3.56,0,0,0-.28,1.44v4.77h-1.31v-5.25a2.42,2.42,0,0,0-.52-1.65,1.88,1.88,0,0,0-1.47-.59,2.1,2.1,0,0,0-1.21.34,2.12,2.12,0,0,0-.77.94,3.74,3.74,0,0,0-.26,1.44v4.77h-1.32v-8.41h1.27v1.24a2.79,2.79,0,0,1,1-1.06A2.87,2.87,0,0,1,378,233a3,3,0,0,1,1.64.44,2.91,2.91,0,0,1,1.08,1.22,3.1,3.1,0,0,1,1.16-1.22,3.15,3.15,0,0,1,1.68-.44A3,3,0,0,1,385.14,233.38Z"/><rect class="cls-3" x="202.94" width="97.15" height="37.26" rx="18.63"/><path d="M223.77,23.8h-1.49l4.14-11.5h1.69l4.31,11.5H231l-1.11-3.06h-5.07Zm3.29-9.7-1.86,5.46h4.22l-2-5.46-.19-.67Z"/><path d="M239.45,15.6a2.67,2.67,0,0,1,1.08,1.15,3.72,3.72,0,0,1,.38,1.74V23.8H239.6V18.59a2.38,2.38,0,0,0-.55-1.68,2,2,0,0,0-1.54-.6,2.5,2.5,0,0,0-1.24.3,2,2,0,0,0-.82.86,2.72,2.72,0,0,0-.29,1.31v5h-1.32V15.39h1.27v1.29a2.66,2.66,0,0,1,1.08-1.12,3.39,3.39,0,0,1,1.61-.37A3.26,3.26,0,0,1,239.45,15.6Z"/><path d="M250.82,15.39h0V23.8h-1.27V22.38a3.34,3.34,0,0,1-1.25,1.2,3.68,3.68,0,0,1-1.73.41,3.88,3.88,0,0,1-2.07-.57,4,4,0,0,1-1.45-1.58,5,5,0,0,1,0-4.49,4,4,0,0,1,1.45-1.58,3.8,3.8,0,0,1,2.07-.58,3.51,3.51,0,0,1,1.72.42,3.39,3.39,0,0,1,1.25,1.19l-.05-4.5h1.32Zm-2.67,7a2.81,2.81,0,0,0,1-1.15,3.7,3.7,0,0,0,.36-1.65,3.66,3.66,0,0,0-.36-1.64,2.83,2.83,0,0,0-1-1.16,2.62,2.62,0,0,0-1.45-.42,2.53,2.53,0,0,0-1.43.42,2.83,2.83,0,0,0-1,1.16,3.66,3.66,0,0,0-.36,1.64,3.7,3.7,0,0,0,.36,1.65,2.81,2.81,0,0,0,1,1.15,2.53,2.53,0,0,0,1.43.42A2.62,2.62,0,0,0,248.15,22.39Z"/><path d="M257.32,15.31v1.37H257a2.38,2.38,0,0,0-1.81.69,2.72,2.72,0,0,0-.65,1.94V23.8h-1.31V15.39h1.31v1.69a2.84,2.84,0,0,1,1-1.31,2.49,2.49,0,0,1,1.52-.46Z"/><path d="M260.12,23.42a4.07,4.07,0,0,1-1.51-1.57,4.92,4.92,0,0,1,0-4.52,4.09,4.09,0,0,1,1.52-1.57,4.4,4.4,0,0,1,4.33,0A4.09,4.09,0,0,1,266,17.33a4.72,4.72,0,0,1,.55,2.26,4.59,4.59,0,0,1-.56,2.26,4,4,0,0,1-1.52,1.57,4.4,4.4,0,0,1-4.33,0Zm3.64-1a2.77,2.77,0,0,0,1-1.12,4,4,0,0,0,0-3.34,2.77,2.77,0,0,0-1-1.12,2.88,2.88,0,0,0-2.93,0,2.64,2.64,0,0,0-1,1.12,4,4,0,0,0,0,3.34,2.64,2.64,0,0,0,1,1.12,2.88,2.88,0,0,0,2.93,0Z"/><path d="M268.25,13.86V12.3h1.49v1.56Zm1.4,9.94h-1.31V15.39h1.31Z"/><path d="M279.75,15.39h0V23.8H278.5V22.38a3.37,3.37,0,0,1-1.26,1.2,3.65,3.65,0,0,1-1.73.41,3.88,3.88,0,0,1-2.07-.57A4,4,0,0,1,272,21.84a5.11,5.11,0,0,1,0-4.49,4,4,0,0,1,1.45-1.58,3.8,3.8,0,0,1,2.07-.58,3.54,3.54,0,0,1,1.73.42,3.39,3.39,0,0,1,1.25,1.19l-.05-4.5h1.31Zm-2.67,7a2.83,2.83,0,0,0,1-1.15,3.7,3.7,0,0,0,.36-1.65,3.66,3.66,0,0,0-.36-1.64,2.86,2.86,0,0,0-1-1.16,2.59,2.59,0,0,0-1.45-.42,2.55,2.55,0,0,0-1.43.42,2.89,2.89,0,0,0-1,1.16,3.53,3.53,0,0,0-.37,1.64,3.58,3.58,0,0,0,.37,1.65,2.86,2.86,0,0,0,1,1.15,2.55,2.55,0,0,0,1.43.42A2.59,2.59,0,0,0,277.08,22.39Z"/><rect class="cls-3" x="302.93" width="97.15" height="37.26" rx="18.63"/><path d="M339.55,13.86V12.3H341v1.56ZM341,23.8h-1.31V15.39H341Z"/><path d="M345.74,23.22a5.6,5.6,0,0,1-2-2.14,6.13,6.13,0,0,1-.75-3,6.2,6.2,0,0,1,.75-3,5.64,5.64,0,0,1,2-2.13,5.74,5.74,0,0,1,5.78,0,5.64,5.64,0,0,1,2,2.13,6.2,6.2,0,0,1,.75,3,6.13,6.13,0,0,1-.75,3,5.6,5.6,0,0,1-2,2.14,5.81,5.81,0,0,1-5.78,0Zm5.07-1.08a4.12,4.12,0,0,0,1.53-1.67,5.58,5.58,0,0,0,0-4.85,4.06,4.06,0,0,0-3.72-2.27,4,4,0,0,0-2.18.61,4.12,4.12,0,0,0-1.53,1.67,5.17,5.17,0,0,0-.55,2.42,5.17,5.17,0,0,0,.55,2.42,4.19,4.19,0,0,0,1.53,1.67,4.2,4.2,0,0,0,4.36,0Z"/><path d="M357.74,23.56a3.4,3.4,0,0,1-1.42-1.22,3.18,3.18,0,0,1-.51-1.79h1.39a2,2,0,0,0,.34,1.15,2.19,2.19,0,0,0,.94.78,3.17,3.17,0,0,0,1.37.28,3.4,3.4,0,0,0,1.36-.26,2.16,2.16,0,0,0,.93-.74,1.94,1.94,0,0,0,.32-1.09,1.86,1.86,0,0,0-.45-1.25,2.12,2.12,0,0,0-1.24-.67l-2-.4a3.44,3.44,0,0,1-1.41-.59,3,3,0,0,1-.91-1.09,3,3,0,0,1-.32-1.41,2.87,2.87,0,0,1,.47-1.64,3.2,3.2,0,0,1,1.32-1.11,4.43,4.43,0,0,1,1.92-.41,4.5,4.5,0,0,1,1.95.41,3.24,3.24,0,0,1,1.34,1.13,2.91,2.91,0,0,1,.48,1.65h-1.4a1.76,1.76,0,0,0-.3-1,2,2,0,0,0-.83-.69,2.83,2.83,0,0,0-1.22-.25,3,3,0,0,0-1.22.24,2.06,2.06,0,0,0-.84.69,1.8,1.8,0,0,0-.3,1,1.71,1.71,0,0,0,.41,1.16,2,2,0,0,0,1.17.63l2.11.42a3.36,3.36,0,0,1,1.39.61,3.2,3.2,0,0,1,.95,1.12,3.06,3.06,0,0,1,.34,1.44,3,3,0,0,1-.51,1.73,3.42,3.42,0,0,1-1.43,1.18,5.06,5.06,0,0,1-2.07.41A4.84,4.84,0,0,1,357.74,23.56Z"/><rect class="cls-3" x="403.01" width="97.15" height="37.26" rx="18.63"/><path d="M422.18,23.8V12.35h4.06a5.5,5.5,0,0,1,2.85.73,5,5,0,0,1,2,2,6.27,6.27,0,0,1,.69,3,6.23,6.23,0,0,1-.69,3,5.08,5.08,0,0,1-2,2,5.59,5.59,0,0,1-2.85.72Zm4.06-1.27a4.07,4.07,0,0,0,2.12-.56,3.82,3.82,0,0,0,1.45-1.58,5.41,5.41,0,0,0,0-4.63,3.82,3.82,0,0,0-1.45-1.58,4.07,4.07,0,0,0-2.12-.56h-2.7v8.91Z"/><path d="M441.08,19.93h-6.64a3.7,3.7,0,0,0,.45,1.52,2.73,2.73,0,0,0,1,1,2.6,2.6,0,0,0,1.39.37,3,3,0,0,0,1-.16,2.52,2.52,0,0,0,.84-.46,1.72,1.72,0,0,0,.52-.67h1.26a2.43,2.43,0,0,1-.68,1.24,3.82,3.82,0,0,1-1.33.88,4.57,4.57,0,0,1-1.69.32,4,4,0,0,1-2.13-.57,3.92,3.92,0,0,1-1.46-1.56,5,5,0,0,1-.52-2.27,4.75,4.75,0,0,1,.53-2.24,4.09,4.09,0,0,1,1.47-1.56,4,4,0,0,1,2.11-.57,3.59,3.59,0,0,1,2,.57,3.79,3.79,0,0,1,1.39,1.57,4.86,4.86,0,0,1,.51,2.24Zm-5.71-2.88a2.93,2.93,0,0,0-.9,1.8h5.24a3,3,0,0,0-.84-1.8,2.28,2.28,0,0,0-1.67-.67A2.6,2.6,0,0,0,435.37,17.05Z"/><path d="M443.89,23.67a2.74,2.74,0,0,1-1.21-.89,2.1,2.1,0,0,1-.44-1.3h1.31a1.22,1.22,0,0,0,.28.75,1.75,1.75,0,0,0,.74.51,3,3,0,0,0,1.08.18,2.38,2.38,0,0,0,1.45-.39,1.28,1.28,0,0,0,.51-1.07,1.17,1.17,0,0,0-.31-.85,1.56,1.56,0,0,0-.93-.43l-1.52-.24a2.92,2.92,0,0,1-1.71-.8,2.1,2.1,0,0,1-.61-1.55,2,2,0,0,1,.38-1.23,2.61,2.61,0,0,1,1.08-.83,3.92,3.92,0,0,1,1.57-.3,4.09,4.09,0,0,1,1.61.3,2.65,2.65,0,0,1,1.13.84,2,2,0,0,1,.43,1.22h-1.31a1,1,0,0,0-.25-.66,1.67,1.67,0,0,0-.68-.46,2.59,2.59,0,0,0-.95-.17,2.38,2.38,0,0,0-.91.16,1.49,1.49,0,0,0-.63.44,1,1,0,0,0-.22.65,1.06,1.06,0,0,0,.29.79,1.53,1.53,0,0,0,.87.39l1.57.25a3,3,0,0,1,1.75.82,2.26,2.26,0,0,1,.61,1.63,2.38,2.38,0,0,1-.39,1.35,2.64,2.64,0,0,1-1.11.9,4.16,4.16,0,0,1-1.68.32A4.59,4.59,0,0,1,443.89,23.67Z"/><path d="M452.09,23.8h-1.31V12.35h1.31v6.94l3.79-3.86h1.63l-3.92,4,4.07,4.39H456l-3.9-4.23Z"/><path d="M461.1,23.8a2,2,0,0,1-1.43-.48,1.73,1.73,0,0,1-.53-1.34V16.59h-1.47V15.43h.91a.69.69,0,0,0,.5-.2.68.68,0,0,0,.19-.5v-1.4h1.18v2.1h2v1.16h-2V21.9a.73.73,0,0,0,.2.54.72.72,0,0,0,.53.2h1.28V23.8Z"/><path d="M465.74,23.43a4.07,4.07,0,0,1-1.51-1.57,4.62,4.62,0,0,1-.54-2.25,4.68,4.68,0,0,1,.54-2.25,4.07,4.07,0,0,1,1.52-1.56,4.15,4.15,0,0,1,2.16-.57,4.2,4.2,0,0,1,2.16.57,4.11,4.11,0,0,1,1.51,1.56,4.68,4.68,0,0,1,.55,2.25,4.52,4.52,0,0,1-.56,2.25,4,4,0,0,1-1.51,1.57,4.21,4.21,0,0,1-2.17.57A4.11,4.11,0,0,1,465.74,23.43Zm3.63-1a2.74,2.74,0,0,0,1-1.12,3.91,3.91,0,0,0,0-3.32,2.76,2.76,0,0,0-4.95,0,3.91,3.91,0,0,0,0,3.32,2.74,2.74,0,0,0,1,1.12,2.88,2.88,0,0,0,2.93,0Z"/><path d="M480.26,15.8a4,4,0,0,1,1.45,1.58,5.06,5.06,0,0,1,0,4.47,3.93,3.93,0,0,1-1.45,1.57,3.75,3.75,0,0,1-2.06.58,3.51,3.51,0,0,1-1.72-.42,3.34,3.34,0,0,1-1.26-1.19v.53l0,3.51H474v-11h1.26v1.41a3.34,3.34,0,0,1,1.26-1.19,3.51,3.51,0,0,1,1.72-.42A3.82,3.82,0,0,1,480.26,15.8Zm-.75,6.6a2.86,2.86,0,0,0,1-1.15,3.92,3.92,0,0,0,0-3.28,2.93,2.93,0,0,0-1-1.15,2.62,2.62,0,0,0-1.43-.41,2.67,2.67,0,0,0-1.45.41,3,3,0,0,0-1,1.15,3.92,3.92,0,0,0,0,3.28,2.88,2.88,0,0,0,1,1.15,2.59,2.59,0,0,0,1.45.42A2.55,2.55,0,0,0,479.51,22.4Z"/><rect class="cls-3" x="502.84" width="97.15" height="37.26" rx="18.63"/><path d="M537.58,23.8l-3.83-11.51h1.48l3.11,9.52,2.94-9.55h1.3l3,9.55,3-9.52H550L546.18,23.8h-1.33l-3-9.39-3,9.39Z"/><path d="M558.51,19.91h-6.68a3.7,3.7,0,0,0,.45,1.53,2.83,2.83,0,0,0,1,1,2.62,2.62,0,0,0,1.4.37,3.14,3.14,0,0,0,1-.16,2.63,2.63,0,0,0,.84-.46,1.72,1.72,0,0,0,.52-.67h1.27a2.58,2.58,0,0,1-.68,1.25,3.79,3.79,0,0,1-1.34.87,4.45,4.45,0,0,1-1.71.33,4,4,0,0,1-2.13-.57A3.87,3.87,0,0,1,551,21.85a4.85,4.85,0,0,1-.52-2.28,4.78,4.78,0,0,1,.53-2.24,4,4,0,0,1,3.59-2.14,3.63,3.63,0,0,1,2,.57,3.88,3.88,0,0,1,1.4,1.57,5,5,0,0,1,.51,2.26ZM552.77,17a3,3,0,0,0-.91,1.82h5.27a3.1,3.1,0,0,0-.84-1.82,2.32,2.32,0,0,0-1.68-.67A2.65,2.65,0,0,0,552.77,17Z"/><path d="M567,15.76a4,4,0,0,1,1.45,1.58,5,5,0,0,1,0,4.5A4,4,0,0,1,567,23.42a3.89,3.89,0,0,1-2.07.58,3.61,3.61,0,0,1-1.74-.42,3.34,3.34,0,0,1-1.25-1.2V23.8h-1.27V15.38h0V12.29H562l-.05,4.51a3.37,3.37,0,0,1,1.26-1.2,3.54,3.54,0,0,1,1.73-.41A3.88,3.88,0,0,1,567,15.76Zm-.76,6.63a2.88,2.88,0,0,0,1-1.15,4,4,0,0,0,0-3.3,2.88,2.88,0,0,0-1-1.15,2.56,2.56,0,0,0-1.44-.42,2.62,2.62,0,0,0-1.45.42,2.81,2.81,0,0,0-1,1.15,3.86,3.86,0,0,0,0,3.3,2.81,2.81,0,0,0,1,1.15,2.62,2.62,0,0,0,1.45.42A2.56,2.56,0,0,0,566.22,22.39Z"/><path d="M300.2,214.81h-.43V193.92A12.23,12.23,0,0,1,312,181.71h77.36a11.8,11.8,0,0,0,11.79-11.79V153.69h.43v16.23a12.23,12.23,0,0,1-12.22,12.21H312a11.8,11.8,0,0,0-11.78,11.79Z"/><polygon points="404.49 154.61 401.35 149.16 398.19 154.61 404.49 154.61"/><path d="M300.19,197h-.42v-3.08A11.8,11.8,0,0,0,288,182.13H112a12.22,12.22,0,0,1-12.21-12.21V44.19h.42V169.92A11.8,11.8,0,0,0,112,181.71H288a12.22,12.22,0,0,1,12.21,12.21Z"/><polygon points="96.89 45.11 100.04 39.66 103.19 45.11 96.89 45.11"/><path d="M401.5,107.15h-.42V86.26a11.8,11.8,0,0,0-11.79-11.79h-26a12.23,12.23,0,0,1-12.21-12.21V44.19h.43V62.26a11.8,11.8,0,0,0,11.78,11.79h26A12.21,12.21,0,0,1,401.5,86.26Z"/><polygon points="354.48 45.11 351.33 39.66 348.19 45.11 354.48 45.11"/><path d="M401.08,107.15h.42V86.26a11.8,11.8,0,0,1,11.79-11.79h26a12.22,12.22,0,0,0,12.21-12.21V44.19H451V62.26a11.8,11.8,0,0,1-11.79,11.79h-26a12.22,12.22,0,0,0-12.21,12.21Z"/><polygon points="448.1 45.11 451.25 39.66 454.4 45.11 448.1 45.11"/><path d="M401.5,107.15h-.42V86.26a12.22,12.22,0,0,1,12.21-12.21h126.1a11.8,11.8,0,0,0,11.79-11.79V44.19h.42V62.26a12.23,12.23,0,0,1-12.21,12.21H413.29A11.8,11.8,0,0,0,401.5,86.26Z"/><polygon points="554.54 45.11 551.39 39.66 548.24 45.11 554.54 45.11"/><path d="M401.5,107.15h-.42V86.26a11.8,11.8,0,0,0-11.79-11.79H263.53a12.22,12.22,0,0,1-12.21-12.21V44.19h.42V62.26a11.8,11.8,0,0,0,11.79,11.79H389.29A12.21,12.21,0,0,1,401.5,86.26Z"/><polygon points="254.68 45.11 251.53 39.66 248.38 45.11 254.68 45.11"/><rect class="cls-3" width="200.03" height="37.26" rx="18.63"/><path d="M78.81,23.56a3.4,3.4,0,0,1-1.42-1.22,3.18,3.18,0,0,1-.51-1.79h1.4a2,2,0,0,0,.33,1.15,2.19,2.19,0,0,0,.94.78,3.17,3.17,0,0,0,1.37.28,3.4,3.4,0,0,0,1.36-.26,2.16,2.16,0,0,0,.93-.74,1.94,1.94,0,0,0,.32-1.09,1.86,1.86,0,0,0-.45-1.25,2.12,2.12,0,0,0-1.24-.67l-2-.4a3.44,3.44,0,0,1-1.41-.59,3,3,0,0,1-.91-1.09,3,3,0,0,1-.32-1.41,2.87,2.87,0,0,1,.47-1.64A3.2,3.2,0,0,1,79,12.51a4.43,4.43,0,0,1,1.92-.41,4.5,4.5,0,0,1,2,.41,3.24,3.24,0,0,1,1.34,1.13,2.91,2.91,0,0,1,.48,1.65h-1.4a1.76,1.76,0,0,0-.3-1,1.89,1.89,0,0,0-.83-.69,2.83,2.83,0,0,0-1.22-.25,3,3,0,0,0-1.22.24,2.06,2.06,0,0,0-.84.69,1.8,1.8,0,0,0-.3,1A1.71,1.71,0,0,0,79,16.45a2,2,0,0,0,1.17.63l2.11.42a3.36,3.36,0,0,1,1.39.61,3.2,3.2,0,0,1,1,1.12,3.06,3.06,0,0,1,.34,1.44,3,3,0,0,1-.51,1.73A3.42,3.42,0,0,1,83,23.58a5.06,5.06,0,0,1-2.07.41A4.84,4.84,0,0,1,78.81,23.56Z"/><path d="M94.35,19.91H87.69a3.43,3.43,0,0,0,.45,1.53,2.83,2.83,0,0,0,1,1,2.69,2.69,0,0,0,1.39.36,3.1,3.1,0,0,0,1-.16,2.57,2.57,0,0,0,.85-.46,1.69,1.69,0,0,0,.51-.67h1.27a2.5,2.5,0,0,1-.68,1.25,3.7,3.7,0,0,1-1.34.87,4.4,4.4,0,0,1-1.7.32,4,4,0,0,1-2.13-.56,3.91,3.91,0,0,1-1.46-1.58,4.84,4.84,0,0,1-.53-2.27,4.68,4.68,0,0,1,.54-2.25,4,4,0,0,1,3.58-2.14,3.65,3.65,0,0,1,2,.57,3.89,3.89,0,0,1,1.39,1.58,4.9,4.9,0,0,1,.51,2.25ZM88.62,17a2.93,2.93,0,0,0-.9,1.82H93A3.19,3.19,0,0,0,92.14,17a2.28,2.28,0,0,0-1.68-.67A2.65,2.65,0,0,0,88.62,17Z"/><path d="M100.24,15.31v1.37h-.31a2.37,2.37,0,0,0-1.8.69,2.68,2.68,0,0,0-.66,1.94V23.8H96.16V15.39h1.31v1.69a3,3,0,0,1,1-1.31,2.49,2.49,0,0,1,1.52-.46Z"/><path d="M105.31,23.8h-1.4l-3.27-8.41h1.43l2.59,6.87,2.54-6.87h1.38Z"/><path d="M117.26,19.91H110.6a3.7,3.7,0,0,0,.45,1.53,2.83,2.83,0,0,0,1,1,2.73,2.73,0,0,0,1.4.36,3.14,3.14,0,0,0,1-.16,2.63,2.63,0,0,0,.84-.46,1.82,1.82,0,0,0,.52-.67h1.26a2.56,2.56,0,0,1-.67,1.25,3.79,3.79,0,0,1-1.34.87,4.43,4.43,0,0,1-1.7.32,4,4,0,0,1-2.13-.56,3.87,3.87,0,0,1-1.47-1.58,4.84,4.84,0,0,1-.52-2.27,4.67,4.67,0,0,1,.53-2.25,4.12,4.12,0,0,1,1.47-1.57,4,4,0,0,1,2.12-.57,3.62,3.62,0,0,1,2,.57,4,4,0,0,1,1.4,1.58,5,5,0,0,1,.5,2.25ZM111.53,17a3,3,0,0,0-.9,1.82h5.26a3.07,3.07,0,0,0-.84-1.81,2.28,2.28,0,0,0-1.68-.67A2.65,2.65,0,0,0,111.53,17Z"/><path d="M123.15,15.31v1.37h-.3a2.38,2.38,0,0,0-1.81.69,2.68,2.68,0,0,0-.65,1.94V23.8h-1.32V15.39h1.32v1.69a2.9,2.9,0,0,1,1-1.31,2.54,2.54,0,0,1,1.53-.46Z"/><rect class="cls-4" x="300.09" y="109.51" width="202.6" height="37.26" rx="18.63"/><path class="cls-2" d="M331.81,133.31a5.45,5.45,0,0,1-2-2.14,6.67,6.67,0,0,1,0-6.07,5.54,5.54,0,0,1,7.3-2.35,5.23,5.23,0,0,1,1.85,1.49,4.06,4.06,0,0,1,.89,2h-1.36a3.14,3.14,0,0,0-.72-1.37,3.89,3.89,0,0,0-1.36-1,4.1,4.1,0,0,0-3.88.21,4.15,4.15,0,0,0-1.5,1.68,5.29,5.29,0,0,0-.54,2.42,5.35,5.35,0,0,0,.54,2.42,4.12,4.12,0,0,0,1.5,1.67,4.14,4.14,0,0,0,3.88.22,4,4,0,0,0,1.36-1,3.17,3.17,0,0,0,.72-1.38h1.36a4.14,4.14,0,0,1-.89,2,5.21,5.21,0,0,1-1.85,1.48,5.32,5.32,0,0,1-2.43.56A5.5,5.5,0,0,1,331.81,133.31Z"/><path class="cls-2" d="M343.11,133.89H341.8v-11.5h1.31Z"/><path class="cls-2" d="M345.52,124v-1.56H347V124Zm1.4,9.94h-1.31v-8.41h1.31Z"/><path class="cls-2" d="M356.76,130h-6.67a3.61,3.61,0,0,0,.46,1.53,2.73,2.73,0,0,0,1,1,2.6,2.6,0,0,0,1.39.37,3.1,3.1,0,0,0,1-.16,2.68,2.68,0,0,0,.85-.46,1.69,1.69,0,0,0,.51-.67h1.27a2.55,2.55,0,0,1-.68,1.24,3.6,3.6,0,0,1-1.34.88,4.4,4.4,0,0,1-1.7.32,4.13,4.13,0,0,1-2.13-.56,4,4,0,0,1-1.46-1.58,4.85,4.85,0,0,1-.53-2.28,4.67,4.67,0,0,1,.54-2.24,3.91,3.91,0,0,1,1.47-1.57,4,4,0,0,1,2.11-.57,3.68,3.68,0,0,1,2,.57,3.89,3.89,0,0,1,1.39,1.58,4.9,4.9,0,0,1,.51,2.25ZM351,127.1a2.93,2.93,0,0,0-.9,1.82h5.26a3.19,3.19,0,0,0-.84-1.81,2.28,2.28,0,0,0-1.68-.67A2.65,2.65,0,0,0,351,127.1Z"/><path class="cls-2" d="M364.17,125.69a2.69,2.69,0,0,1,1.09,1.15,3.84,3.84,0,0,1,.38,1.74v5.31h-1.31v-5.21a2.38,2.38,0,0,0-.56-1.68,2,2,0,0,0-1.53-.6,2.47,2.47,0,0,0-1.24.3,2.06,2.06,0,0,0-.83.85,2.89,2.89,0,0,0-.29,1.32v5h-1.31v-8.41h1.26v1.29a2.68,2.68,0,0,1,1.09-1.12,3.26,3.26,0,0,1,1.6-.37A3.16,3.16,0,0,1,364.17,125.69Z"/><path class="cls-2" d="M370.19,133.89a2.09,2.09,0,0,1-1.44-.49,1.73,1.73,0,0,1-.52-1.34v-5.42h-1.48v-1.16h.91a.65.65,0,0,0,.5-.2.69.69,0,0,0,.2-.5v-1.41h1.18v2.11h2v1.16h-2V132a.69.69,0,0,0,.2.54.73.73,0,0,0,.54.2h1.28v1.17Z"/><path class="cls-2" d="M378.85,133.89H377.5v-11.5h1.73l4.08,9.4.22.61.22-.61,4-9.4h1.79v11.5h-1.37v-9.55l-4,9.55h-1.19l-4.06-9.5Z"/><path class="cls-2" d="M397.89,125.48h1.31v8.41h-1.26V132.6a2.75,2.75,0,0,1-1.08,1.11,3.3,3.3,0,0,1-1.61.37,3.25,3.25,0,0,1-1.65-.4,2.84,2.84,0,0,1-1.09-1.16,3.84,3.84,0,0,1-.38-1.74v-5.3h1.31v5.2a2.38,2.38,0,0,0,.56,1.68,2,2,0,0,0,1.54.61,2.5,2.5,0,0,0,1.24-.3,2.06,2.06,0,0,0,.82-.86,2.86,2.86,0,0,0,.29-1.32Z"/><path class="cls-2" d="M403,133.89H401.7v-11.5H403Z"/><path class="cls-2" d="M407.76,133.89a2.06,2.06,0,0,1-1.44-.49,1.73,1.73,0,0,1-.53-1.34v-5.42h-1.47v-1.16h.92a.69.69,0,0,0,.5-.2.68.68,0,0,0,.19-.5v-1.41h1.18v2.11h2v1.16h-2V132a.7.7,0,0,0,.21.54.72.72,0,0,0,.53.2h1.28v1.17Z"/><path class="cls-2" d="M410.91,124v-1.56h1.49V124Zm1.4,9.94H411v-8.41h1.31Z"/><path class="cls-2" d="M421.12,125.85a4,4,0,0,1,1.46,1.58,5.13,5.13,0,0,1,0,4.5,4,4,0,0,1-1.46,1.58,3.82,3.82,0,0,1-2.06.57,3.54,3.54,0,0,1-1.73-.42,3.27,3.27,0,0,1-1.26-1.19V133l0,3.52h-1.29v-11h1.26v1.42a3.3,3.3,0,0,1,1.26-1.2,3.54,3.54,0,0,1,1.73-.42A3.82,3.82,0,0,1,421.12,125.85Zm-.75,6.63a2.86,2.86,0,0,0,1-1.15,4,4,0,0,0,0-3.3,2.86,2.86,0,0,0-1-1.15,2.68,2.68,0,0,0-2.88,0,2.83,2.83,0,0,0-1,1.15,4,4,0,0,0,0,3.3,2.83,2.83,0,0,0,1,1.15,2.68,2.68,0,0,0,2.88,0Z"/><path class="cls-2" d="M426.23,133.89h-1.32v-11.5h1.32Z"/><path class="cls-2" d="M433.57,125.63a2.61,2.61,0,0,1,1.12,1,3.14,3.14,0,0,1,.39,1.6v5.65H433.8v-1.25a2.53,2.53,0,0,1-1.1,1.07,3.7,3.7,0,0,1-1.72.37,3.28,3.28,0,0,1-1.47-.31,2.42,2.42,0,0,1-1-.85,2.34,2.34,0,0,1-.35-1.26,2.32,2.32,0,0,1,.33-1.21,2.67,2.67,0,0,1,.92-.91,3.31,3.31,0,0,1,1.34-.43l2.45-.24a.61.61,0,0,0,.43-.23.94.94,0,0,0,.16-.59,1.59,1.59,0,0,0-.24-.88,1.61,1.61,0,0,0-.67-.59,2.41,2.41,0,0,0-1-.2,2.61,2.61,0,0,0-1,.19,1.91,1.91,0,0,0-.74.52,1.3,1.3,0,0,0-.34.72h-1.28a2.43,2.43,0,0,1,.54-1.28,3.27,3.27,0,0,1,1.23-.91,3.88,3.88,0,0,1,1.64-.34A3.77,3.77,0,0,1,433.57,125.63Zm-1,7.13a2.13,2.13,0,0,0,.91-.82,2.2,2.2,0,0,0,.32-1.2v-1l-2.86.29a1.67,1.67,0,0,0-1.06.49,1.41,1.41,0,0,0-.4,1,1.35,1.35,0,0,0,.22.76,1.55,1.55,0,0,0,.63.52,2.17,2.17,0,0,0,.91.19A2.86,2.86,0,0,0,432.55,132.76Z"/><path class="cls-2" d="M439.63,133.89a2.09,2.09,0,0,1-1.44-.49,1.73,1.73,0,0,1-.53-1.34v-5.42h-1.48v-1.16h.91a.67.67,0,0,0,.5-.2.69.69,0,0,0,.2-.5v-1.41H439v2.11h2v1.16h-2V132a.69.69,0,0,0,.2.54.73.73,0,0,0,.54.2H441v1.17Z"/><path class="cls-2" d="M443.23,133.89v-7.25h-1.47v-1.16h1.47v-1.27a1.75,1.75,0,0,1,.53-1.34,2,2,0,0,1,1.44-.48h1.51v1.16h-1.42a.74.74,0,0,0-.55.2.73.73,0,0,0-.19.54v1.19h2.08v1.16h-2.08v7.25Z"/><path class="cls-2" d="M449.56,133.51a4.07,4.07,0,0,1-1.51-1.57,4.92,4.92,0,0,1,0-4.52,4,4,0,0,1,1.52-1.57,4.4,4.4,0,0,1,4.33,0,4,4,0,0,1,1.52,1.57,4.69,4.69,0,0,1,.55,2.26,4.59,4.59,0,0,1-.56,2.26,4,4,0,0,1-1.52,1.57,4.4,4.4,0,0,1-4.33,0Zm3.64-1a2.84,2.84,0,0,0,1-1.12,4,4,0,0,0,0-3.34,2.87,2.87,0,0,0-1-1.13,2.95,2.95,0,0,0-2.93,0,2.73,2.73,0,0,0-1,1.13,4,4,0,0,0,0,3.34,2.7,2.7,0,0,0,1,1.12,2.88,2.88,0,0,0,2.93,0Z"/><path class="cls-2" d="M461.86,125.39v1.38h-.31a2.37,2.37,0,0,0-1.8.69,2.67,2.67,0,0,0-.66,1.93v4.5h-1.31v-8.41h1.31v1.69a3.08,3.08,0,0,1,1-1.32,2.58,2.58,0,0,1,1.52-.46Z"/><path class="cls-2" d="M474.28,125.69a2.82,2.82,0,0,1,1.07,1.17,3.76,3.76,0,0,1,.37,1.72v5.31h-1.31v-5.25a2.46,2.46,0,0,0-.51-1.66,1.77,1.77,0,0,0-1.43-.58,2.23,2.23,0,0,0-1.22.33,2.13,2.13,0,0,0-.79,1,3.38,3.38,0,0,0-.28,1.43v4.78h-1.32v-5.25a2.38,2.38,0,0,0-.52-1.65,1.84,1.84,0,0,0-1.46-.59,2.15,2.15,0,0,0-1.21.33,2,2,0,0,0-.77,1,3.54,3.54,0,0,0-.27,1.43v4.78h-1.31v-8.41h1.26v1.24a2.82,2.82,0,0,1,1-1.07,2.93,2.93,0,0,1,1.5-.37,3.08,3.08,0,0,1,1.63.44,2.87,2.87,0,0,1,1.08,1.23,3.13,3.13,0,0,1,1.16-1.23,3.24,3.24,0,0,1,1.68-.44A3.13,3.13,0,0,1,474.28,125.69Z"/></svg>