<svg width="706" height="265" viewBox="0 0 706 265" fill="none" xmlns="http://www.w3.org/2000/svg">
<rect width="706" height="265" fill="white"/>
<path d="M360.267 123.5L360.617 123.5L360.267 123.5ZM374.267 137.5L374.267 137.15L374.267 137.5ZM530.492 137.5L530.492 137.85L530.492 137.5ZM544.492 188.5L542.471 185L546.513 185L544.492 188.5ZM360.617 76L360.617 123.5L359.917 123.5L359.917 76L360.617 76ZM374.267 137.15L530.492 137.15L530.492 137.85L374.267 137.85L374.267 137.15ZM544.842 151.5L544.842 185.35L544.142 185.35L544.142 151.5L544.842 151.5ZM530.492 137.15C538.417 137.15 544.842 143.575 544.842 151.5L544.142 151.5C544.142 143.961 538.031 137.85 530.492 137.85L530.492 137.15ZM360.617 123.5C360.617 131.039 366.729 137.15 374.267 137.15L374.267 137.85C366.342 137.85 359.917 131.425 359.917 123.5L360.617 123.5Z" fill="black"/>
<rect x="459.779" y="194" width="170.446" height="46" rx="12" fill="#DBC6FF"/>
<path d="M492.854 212.6H493.91L498.362 219.416V212.6H499.358V221H498.29L493.85 214.184V221H492.854V212.6ZM503.989 214.712C504.453 214.712 504.859 214.798 505.207 214.97C505.559 215.138 505.831 215.384 506.023 215.708C506.215 216.032 506.311 216.422 506.311 216.878V221H505.375V220.088C505.187 220.432 504.917 220.694 504.565 220.874C504.217 221.054 503.799 221.144 503.311 221.144C502.907 221.144 502.547 221.07 502.231 220.922C501.919 220.77 501.675 220.56 501.499 220.292C501.327 220.024 501.241 219.718 501.241 219.374C501.241 219.054 501.321 218.76 501.481 218.492C501.645 218.22 501.871 217.998 502.159 217.826C502.447 217.654 502.773 217.55 503.137 217.514L504.931 217.334C505.063 217.322 505.167 217.266 505.243 217.166C505.323 217.066 505.363 216.922 505.363 216.734C505.363 216.49 505.303 216.276 505.183 216.092C505.067 215.908 504.903 215.766 504.691 215.666C504.483 215.566 504.241 215.516 503.965 215.516C503.693 215.516 503.445 215.562 503.221 215.654C502.997 215.746 502.815 215.872 502.675 216.032C502.535 216.192 502.453 216.368 502.429 216.56H501.493C501.529 216.22 501.661 215.91 501.889 215.63C502.117 215.346 502.415 215.122 502.783 214.958C503.151 214.794 503.553 214.712 503.989 214.712ZM503.491 220.394C503.855 220.394 504.179 220.324 504.463 220.184C504.747 220.04 504.967 219.84 505.123 219.584C505.283 219.324 505.363 219.03 505.363 218.702V218.006L503.269 218.222C502.949 218.254 502.691 218.372 502.495 218.576C502.299 218.78 502.201 219.028 502.201 219.32C502.201 219.528 502.255 219.714 502.363 219.878C502.471 220.038 502.623 220.164 502.819 220.256C503.015 220.348 503.239 220.394 503.491 220.394ZM509.885 221C509.441 221 509.089 220.882 508.829 220.646C508.573 220.41 508.445 220.084 508.445 219.668L508.439 215.708H507.359L507.365 214.856H508.031C508.183 214.856 508.305 214.808 508.397 214.712C508.493 214.616 508.541 214.494 508.541 214.346V213.32H509.405V214.856H510.887L510.881 215.708H509.399L509.405 219.608C509.405 219.776 509.453 219.908 509.549 220.004C509.649 220.1 509.781 220.148 509.945 220.148H510.881V221H509.885ZM513.461 221H512.501V214.856H513.461V221ZM512.435 213.74V212.6H513.527V213.74H512.435ZM518.165 221H517.145L514.751 214.856H515.795L517.691 219.878L519.551 214.856H520.559L518.165 221ZM527.152 218.162H522.28C522.316 218.582 522.426 218.954 522.61 219.278C522.794 219.602 523.036 219.854 523.336 220.034C523.636 220.214 523.976 220.304 524.356 220.304C524.612 220.304 524.858 220.264 525.094 220.184C525.33 220.104 525.536 219.992 525.712 219.848C525.888 219.704 526.014 219.54 526.09 219.356H527.014C526.946 219.692 526.78 219.996 526.516 220.268C526.256 220.54 525.93 220.754 525.538 220.91C525.15 221.066 524.736 221.144 524.296 221.144C523.716 221.144 523.196 221.006 522.736 220.73C522.28 220.454 521.924 220.072 521.668 219.584C521.412 219.092 521.284 218.536 521.284 217.916C521.284 217.312 521.414 216.766 521.674 216.278C521.934 215.79 522.292 215.408 522.748 215.132C523.208 214.852 523.724 214.712 524.296 214.712C524.84 214.712 525.328 214.852 525.76 215.132C526.196 215.408 526.536 215.792 526.78 216.284C527.028 216.772 527.152 217.32 527.152 217.928V218.162ZM524.308 215.558C523.768 215.558 523.32 215.72 522.964 216.044C522.608 216.368 522.388 216.81 522.304 217.37H526.15C526.066 216.814 525.86 216.374 525.532 216.05C525.208 215.722 524.8 215.558 524.308 215.558ZM536.703 218.162H531.831C531.867 218.582 531.977 218.954 532.161 219.278C532.345 219.602 532.587 219.854 532.887 220.034C533.187 220.214 533.527 220.304 533.907 220.304C534.163 220.304 534.409 220.264 534.645 220.184C534.881 220.104 535.087 219.992 535.263 219.848C535.439 219.704 535.565 219.54 535.641 219.356H536.565C536.497 219.692 536.331 219.996 536.067 220.268C535.807 220.54 535.481 220.754 535.089 220.91C534.701 221.066 534.287 221.144 533.847 221.144C533.267 221.144 532.747 221.006 532.287 220.73C531.831 220.454 531.475 220.072 531.219 219.584C530.963 219.092 530.835 218.536 530.835 217.916C530.835 217.312 530.965 216.766 531.225 216.278C531.485 215.79 531.843 215.408 532.299 215.132C532.759 214.852 533.275 214.712 533.847 214.712C534.391 214.712 534.879 214.852 535.311 215.132C535.747 215.408 536.087 215.792 536.331 216.284C536.579 216.772 536.703 217.32 536.703 217.928V218.162ZM533.859 215.558C533.319 215.558 532.871 215.72 532.515 216.044C532.159 216.368 531.939 216.81 531.855 217.37H535.701C535.617 216.814 535.411 216.374 535.083 216.05C534.759 215.722 534.351 215.558 533.859 215.558ZM540.651 217.85L542.883 221H541.791L540.099 218.582L538.425 221H537.375L539.613 217.832L537.495 214.856H538.587L540.159 217.1L541.713 214.856H542.763L540.651 217.85ZM549.418 218.162H544.546C544.582 218.582 544.692 218.954 544.876 219.278C545.06 219.602 545.302 219.854 545.602 220.034C545.902 220.214 546.242 220.304 546.622 220.304C546.878 220.304 547.124 220.264 547.36 220.184C547.596 220.104 547.802 219.992 547.978 219.848C548.154 219.704 548.28 219.54 548.356 219.356H549.28C549.212 219.692 549.046 219.996 548.782 220.268C548.522 220.54 548.196 220.754 547.804 220.91C547.416 221.066 547.002 221.144 546.562 221.144C545.982 221.144 545.462 221.006 545.002 220.73C544.546 220.454 544.19 220.072 543.934 219.584C543.678 219.092 543.55 218.536 543.55 217.916C543.55 217.312 543.68 216.766 543.94 216.278C544.2 215.79 544.558 215.408 545.014 215.132C545.474 214.852 545.99 214.712 546.562 214.712C547.106 214.712 547.594 214.852 548.026 215.132C548.462 215.408 548.802 215.792 549.046 216.284C549.294 216.772 549.418 217.32 549.418 217.928V218.162ZM546.574 215.558C546.034 215.558 545.586 215.72 545.23 216.044C544.874 216.368 544.654 216.81 544.57 217.37H548.416C548.332 216.814 548.126 216.374 547.798 216.05C547.474 215.722 547.066 215.558 546.574 215.558ZM553.559 221.144C552.979 221.144 552.455 221.004 551.987 220.724C551.519 220.444 551.151 220.06 550.883 219.572C550.619 219.08 550.487 218.532 550.487 217.928C550.487 217.324 550.619 216.778 550.883 216.29C551.151 215.798 551.519 215.412 551.987 215.132C552.455 214.852 552.979 214.712 553.559 214.712C554.055 214.712 554.511 214.81 554.927 215.006C555.343 215.198 555.679 215.466 555.935 215.81C556.195 216.15 556.345 216.532 556.385 216.956H555.425C555.377 216.692 555.263 216.454 555.083 216.242C554.907 216.03 554.685 215.864 554.417 215.744C554.153 215.624 553.867 215.564 553.559 215.564C553.167 215.564 552.813 215.668 552.497 215.876C552.185 216.08 551.939 216.362 551.759 216.722C551.583 217.082 551.495 217.484 551.495 217.928C551.495 218.372 551.583 218.774 551.759 219.134C551.939 219.494 552.185 219.776 552.497 219.98C552.813 220.184 553.167 220.286 553.559 220.286C553.867 220.286 554.153 220.228 554.417 220.112C554.685 219.996 554.907 219.838 555.083 219.638C555.263 219.434 555.377 219.208 555.425 218.96H556.385C556.349 219.372 556.201 219.744 555.941 220.076C555.685 220.408 555.349 220.67 554.933 220.862C554.517 221.05 554.059 221.144 553.559 221.144ZM562.014 214.856H562.974V221H562.05V220.058C561.854 220.418 561.59 220.69 561.258 220.874C560.926 221.054 560.534 221.144 560.082 221.144C559.622 221.144 559.22 221.046 558.876 220.85C558.532 220.65 558.266 220.368 558.078 220.004C557.894 219.64 557.802 219.216 557.802 218.732V214.856H558.762V218.66C558.762 219.184 558.896 219.594 559.164 219.89C559.436 220.182 559.812 220.328 560.292 220.328C560.636 220.328 560.938 220.256 561.198 220.112C561.458 219.964 561.658 219.754 561.798 219.482C561.942 219.21 562.014 218.89 562.014 218.522V214.856ZM566.686 221C566.242 221 565.89 220.882 565.63 220.646C565.374 220.41 565.246 220.084 565.246 219.668L565.24 215.708H564.16L564.166 214.856H564.832C564.984 214.856 565.106 214.808 565.198 214.712C565.294 214.616 565.342 214.494 565.342 214.346V213.32H566.206V214.856H567.688L567.682 215.708H566.2L566.206 219.608C566.206 219.776 566.254 219.908 566.35 220.004C566.45 220.1 566.582 220.148 566.746 220.148H567.682V221H566.686ZM571.63 214.712C572.094 214.712 572.5 214.798 572.848 214.97C573.2 215.138 573.472 215.384 573.664 215.708C573.856 216.032 573.952 216.422 573.952 216.878V221H573.016V220.088C572.828 220.432 572.558 220.694 572.206 220.874C571.858 221.054 571.44 221.144 570.952 221.144C570.548 221.144 570.188 221.07 569.872 220.922C569.56 220.77 569.316 220.56 569.14 220.292C568.968 220.024 568.882 219.718 568.882 219.374C568.882 219.054 568.962 218.76 569.122 218.492C569.286 218.22 569.512 217.998 569.8 217.826C570.088 217.654 570.414 217.55 570.778 217.514L572.572 217.334C572.704 217.322 572.808 217.266 572.884 217.166C572.964 217.066 573.004 216.922 573.004 216.734C573.004 216.49 572.944 216.276 572.824 216.092C572.708 215.908 572.544 215.766 572.332 215.666C572.124 215.566 571.882 215.516 571.606 215.516C571.334 215.516 571.086 215.562 570.862 215.654C570.638 215.746 570.456 215.872 570.316 216.032C570.176 216.192 570.094 216.368 570.07 216.56H569.134C569.17 216.22 569.302 215.91 569.53 215.63C569.758 215.346 570.056 215.122 570.424 214.958C570.792 214.794 571.194 214.712 571.63 214.712ZM571.132 220.394C571.496 220.394 571.82 220.324 572.104 220.184C572.388 220.04 572.608 219.84 572.764 219.584C572.924 219.324 573.004 219.03 573.004 218.702V218.006L570.91 218.222C570.59 218.254 570.332 218.372 570.136 218.576C569.94 218.78 569.842 219.028 569.842 219.32C569.842 219.528 569.896 219.714 570.004 219.878C570.112 220.038 570.264 220.164 570.46 220.256C570.656 220.348 570.88 220.394 571.132 220.394ZM578.984 214.712C579.54 214.712 580.044 214.852 580.496 215.132C580.948 215.412 581.302 215.798 581.558 216.29C581.814 216.778 581.942 217.324 581.942 217.928C581.942 218.532 581.814 219.08 581.558 219.572C581.302 220.06 580.948 220.444 580.496 220.724C580.044 221.004 579.54 221.144 578.984 221.144C578.516 221.144 578.094 221.042 577.718 220.838C577.342 220.634 577.036 220.344 576.8 219.968V221H575.876V214.856H575.882V212.6H576.842L576.806 215.888C577.042 215.512 577.346 215.222 577.718 215.018C578.094 214.814 578.516 214.712 578.984 214.712ZM578.894 220.28C579.282 220.28 579.63 220.178 579.938 219.974C580.25 219.77 580.494 219.49 580.67 219.134C580.846 218.774 580.934 218.372 580.934 217.928C580.934 217.484 580.846 217.084 580.67 216.728C580.494 216.368 580.25 216.086 579.938 215.882C579.63 215.678 579.282 215.576 578.894 215.576C578.502 215.576 578.148 215.678 577.832 215.882C577.52 216.086 577.276 216.368 577.1 216.728C576.924 217.084 576.836 217.484 576.836 217.928C576.836 218.372 576.924 218.774 577.1 219.134C577.276 219.49 577.52 219.77 577.832 219.974C578.148 220.178 578.502 220.28 578.894 220.28ZM584.465 221H583.505V212.6H584.465V221ZM591.898 218.162H587.026C587.062 218.582 587.172 218.954 587.356 219.278C587.54 219.602 587.782 219.854 588.082 220.034C588.382 220.214 588.722 220.304 589.102 220.304C589.358 220.304 589.604 220.264 589.84 220.184C590.076 220.104 590.282 219.992 590.458 219.848C590.634 219.704 590.76 219.54 590.836 219.356H591.76C591.692 219.692 591.526 219.996 591.262 220.268C591.002 220.54 590.676 220.754 590.284 220.91C589.896 221.066 589.482 221.144 589.042 221.144C588.462 221.144 587.942 221.006 587.482 220.73C587.026 220.454 586.67 220.072 586.414 219.584C586.158 219.092 586.03 218.536 586.03 217.916C586.03 217.312 586.16 216.766 586.42 216.278C586.68 215.79 587.038 215.408 587.494 215.132C587.954 214.852 588.47 214.712 589.042 214.712C589.586 214.712 590.074 214.852 590.506 215.132C590.942 215.408 591.282 215.792 591.526 216.284C591.774 216.772 591.898 217.32 591.898 217.928V218.162ZM589.054 215.558C588.514 215.558 588.066 215.72 587.71 216.044C587.354 216.368 587.134 216.81 587.05 217.37H590.896C590.812 216.814 590.606 216.374 590.278 216.05C589.954 215.722 589.546 215.558 589.054 215.558ZM595.5 221.144C595 221.144 594.558 221.066 594.174 220.91C593.794 220.75 593.498 220.53 593.286 220.25C593.078 219.97 592.972 219.652 592.968 219.296H593.928C593.936 219.504 594.006 219.688 594.138 219.848C594.27 220.008 594.45 220.134 594.678 220.226C594.91 220.314 595.174 220.358 595.47 220.358C595.926 220.358 596.28 220.262 596.532 220.07C596.784 219.878 596.91 219.616 596.91 219.284C596.91 219.028 596.832 218.82 596.676 218.66C596.524 218.496 596.298 218.39 595.998 218.342L594.882 218.168C594.346 218.084 593.928 217.89 593.628 217.586C593.328 217.278 593.178 216.896 593.178 216.44C593.178 216.104 593.272 215.806 593.46 215.546C593.652 215.282 593.916 215.078 594.252 214.934C594.592 214.786 594.976 214.712 595.404 214.712C595.844 214.712 596.238 214.786 596.586 214.934C596.938 215.082 597.214 215.288 597.414 215.552C597.618 215.812 597.724 216.108 597.732 216.44H596.772C596.768 216.264 596.704 216.104 596.58 215.96C596.46 215.816 596.296 215.704 596.088 215.624C595.88 215.54 595.648 215.498 595.392 215.498C595.144 215.498 594.92 215.538 594.72 215.618C594.524 215.694 594.37 215.802 594.258 215.942C594.15 216.078 594.096 216.236 594.096 216.416C594.096 216.656 594.168 216.85 594.312 216.998C594.456 217.142 594.668 217.236 594.948 217.28L596.1 217.466C596.66 217.554 597.088 217.754 597.384 218.066C597.684 218.378 597.834 218.776 597.834 219.26C597.834 219.636 597.738 219.966 597.546 220.25C597.354 220.534 597.082 220.754 596.73 220.91C596.378 221.066 595.968 221.144 595.5 221.144Z" fill="black"/>
<rect x="75" y="194" width="170.446" height="46" rx="12" fill="#D7C6FF"/>
<path d="M119.817 221V220.07H121.425C121.729 220.07 121.975 219.976 122.163 219.788C122.351 219.6 122.445 219.354 122.445 219.05V212.6H123.441V219.188C123.441 219.54 123.361 219.854 123.201 220.13C123.041 220.406 122.817 220.62 122.529 220.772C122.241 220.924 121.913 221 121.545 221H119.817ZM129.223 221H128.011L124.897 212.6H125.989L128.659 219.836L131.233 212.6H132.337L129.223 221ZM134.852 221H133.862V212.6H135.134L138.116 219.47L138.278 219.914L138.434 219.47L141.338 212.6H142.646V221H141.65V214.028L138.692 221H137.822L134.852 214.064V221ZM147.649 221V219.68H148.969V221H147.649ZM152.977 221.144C152.397 221.144 151.873 221.004 151.405 220.724C150.937 220.444 150.569 220.06 150.301 219.572C150.037 219.08 149.905 218.532 149.905 217.928C149.905 217.324 150.037 216.778 150.301 216.29C150.569 215.798 150.937 215.412 151.405 215.132C151.873 214.852 152.397 214.712 152.977 214.712C153.473 214.712 153.929 214.81 154.345 215.006C154.761 215.198 155.097 215.466 155.353 215.81C155.613 216.15 155.763 216.532 155.803 216.956H154.843C154.795 216.692 154.681 216.454 154.501 216.242C154.325 216.03 154.103 215.864 153.835 215.744C153.571 215.624 153.285 215.564 152.977 215.564C152.585 215.564 152.231 215.668 151.915 215.876C151.603 216.08 151.357 216.362 151.177 216.722C151.001 217.082 150.913 217.484 150.913 217.928C150.913 218.372 151.001 218.774 151.177 219.134C151.357 219.494 151.603 219.776 151.915 219.98C152.231 220.184 152.585 220.286 152.977 220.286C153.285 220.286 153.571 220.228 153.835 220.112C154.103 219.996 154.325 219.838 154.501 219.638C154.681 219.434 154.795 219.208 154.843 218.96H155.803C155.767 219.372 155.619 219.744 155.359 220.076C155.103 220.408 154.767 220.67 154.351 220.862C153.935 221.05 153.477 221.144 152.977 221.144ZM158.324 221H157.364V212.6H158.324V221ZM162.716 214.712C163.18 214.712 163.586 214.798 163.934 214.97C164.286 215.138 164.558 215.384 164.75 215.708C164.942 216.032 165.038 216.422 165.038 216.878V221H164.102V220.088C163.914 220.432 163.644 220.694 163.292 220.874C162.944 221.054 162.526 221.144 162.038 221.144C161.634 221.144 161.274 221.07 160.958 220.922C160.646 220.77 160.402 220.56 160.226 220.292C160.054 220.024 159.968 219.718 159.968 219.374C159.968 219.054 160.048 218.76 160.208 218.492C160.372 218.22 160.598 217.998 160.886 217.826C161.174 217.654 161.5 217.55 161.864 217.514L163.658 217.334C163.79 217.322 163.894 217.266 163.97 217.166C164.05 217.066 164.09 216.922 164.09 216.734C164.09 216.49 164.03 216.276 163.91 216.092C163.794 215.908 163.63 215.766 163.418 215.666C163.21 215.566 162.968 215.516 162.692 215.516C162.42 215.516 162.172 215.562 161.948 215.654C161.724 215.746 161.542 215.872 161.402 216.032C161.262 216.192 161.18 216.368 161.156 216.56H160.22C160.256 216.22 160.388 215.91 160.616 215.63C160.844 215.346 161.142 215.122 161.51 214.958C161.878 214.794 162.28 214.712 162.716 214.712ZM162.218 220.394C162.582 220.394 162.906 220.324 163.19 220.184C163.474 220.04 163.694 219.84 163.85 219.584C164.01 219.324 164.09 219.03 164.09 218.702V218.006L161.996 218.222C161.676 218.254 161.418 218.372 161.222 218.576C161.026 218.78 160.928 219.028 160.928 219.32C160.928 219.528 160.982 219.714 161.09 219.878C161.198 220.038 161.35 220.164 161.546 220.256C161.742 220.348 161.966 220.394 162.218 220.394ZM168.996 221.144C168.496 221.144 168.054 221.066 167.67 220.91C167.29 220.75 166.994 220.53 166.782 220.25C166.574 219.97 166.468 219.652 166.464 219.296H167.424C167.432 219.504 167.502 219.688 167.634 219.848C167.766 220.008 167.946 220.134 168.174 220.226C168.406 220.314 168.67 220.358 168.966 220.358C169.422 220.358 169.776 220.262 170.028 220.07C170.28 219.878 170.406 219.616 170.406 219.284C170.406 219.028 170.328 218.82 170.172 218.66C170.02 218.496 169.794 218.39 169.494 218.342L168.378 218.168C167.842 218.084 167.424 217.89 167.124 217.586C166.824 217.278 166.674 216.896 166.674 216.44C166.674 216.104 166.768 215.806 166.956 215.546C167.148 215.282 167.412 215.078 167.748 214.934C168.088 214.786 168.472 214.712 168.9 214.712C169.34 214.712 169.734 214.786 170.082 214.934C170.434 215.082 170.71 215.288 170.91 215.552C171.114 215.812 171.22 216.108 171.228 216.44H170.268C170.264 216.264 170.2 216.104 170.076 215.96C169.956 215.816 169.792 215.704 169.584 215.624C169.376 215.54 169.144 215.498 168.888 215.498C168.64 215.498 168.416 215.538 168.216 215.618C168.02 215.694 167.866 215.802 167.754 215.942C167.646 216.078 167.592 216.236 167.592 216.416C167.592 216.656 167.664 216.85 167.808 216.998C167.952 217.142 168.164 217.236 168.444 217.28L169.596 217.466C170.156 217.554 170.584 217.754 170.88 218.066C171.18 218.378 171.33 218.776 171.33 219.26C171.33 219.636 171.234 219.966 171.042 220.25C170.85 220.534 170.578 220.754 170.226 220.91C169.874 221.066 169.464 221.144 168.996 221.144ZM174.984 221.144C174.484 221.144 174.042 221.066 173.658 220.91C173.278 220.75 172.982 220.53 172.77 220.25C172.562 219.97 172.456 219.652 172.452 219.296H173.412C173.42 219.504 173.49 219.688 173.622 219.848C173.754 220.008 173.934 220.134 174.162 220.226C174.394 220.314 174.658 220.358 174.954 220.358C175.41 220.358 175.764 220.262 176.016 220.07C176.268 219.878 176.394 219.616 176.394 219.284C176.394 219.028 176.316 218.82 176.16 218.66C176.008 218.496 175.782 218.39 175.482 218.342L174.366 218.168C173.83 218.084 173.412 217.89 173.112 217.586C172.812 217.278 172.662 216.896 172.662 216.44C172.662 216.104 172.756 215.806 172.944 215.546C173.136 215.282 173.4 215.078 173.736 214.934C174.076 214.786 174.46 214.712 174.888 214.712C175.328 214.712 175.722 214.786 176.07 214.934C176.422 215.082 176.698 215.288 176.898 215.552C177.102 215.812 177.208 216.108 177.216 216.44H176.256C176.252 216.264 176.188 216.104 176.064 215.96C175.944 215.816 175.78 215.704 175.572 215.624C175.364 215.54 175.132 215.498 174.876 215.498C174.628 215.498 174.404 215.538 174.204 215.618C174.008 215.694 173.854 215.802 173.742 215.942C173.634 216.078 173.58 216.236 173.58 216.416C173.58 216.656 173.652 216.85 173.796 216.998C173.94 217.142 174.152 217.236 174.432 217.28L175.584 217.466C176.144 217.554 176.572 217.754 176.868 218.066C177.168 218.378 177.318 218.776 177.318 219.26C177.318 219.636 177.222 219.966 177.03 220.25C176.838 220.534 176.566 220.754 176.214 220.91C175.862 221.066 175.452 221.144 174.984 221.144ZM179.203 221V215.708H178.123V214.856H179.203V213.932C179.203 213.516 179.329 213.19 179.581 212.954C179.837 212.718 180.191 212.6 180.643 212.6H181.747V213.452H180.703C180.531 213.452 180.397 213.5 180.301 213.596C180.209 213.692 180.163 213.824 180.163 213.992V214.856H181.687V215.708H180.163V221H179.203ZM183.695 213.74H182.735V212.6H183.695V213.74ZM183.695 221H182.735V215.708H181.511V214.856H183.695V221ZM186.672 221H185.712V212.6H186.672V221ZM194.105 218.162H189.233C189.269 218.582 189.379 218.954 189.563 219.278C189.747 219.602 189.989 219.854 190.289 220.034C190.589 220.214 190.929 220.304 191.309 220.304C191.565 220.304 191.811 220.264 192.047 220.184C192.283 220.104 192.489 219.992 192.665 219.848C192.841 219.704 192.967 219.54 193.043 219.356H193.967C193.899 219.692 193.733 219.996 193.469 220.268C193.209 220.54 192.883 220.754 192.491 220.91C192.103 221.066 191.689 221.144 191.249 221.144C190.669 221.144 190.149 221.006 189.689 220.73C189.233 220.454 188.877 220.072 188.621 219.584C188.365 219.092 188.237 218.536 188.237 217.916C188.237 217.312 188.367 216.766 188.627 216.278C188.887 215.79 189.245 215.408 189.701 215.132C190.161 214.852 190.677 214.712 191.249 214.712C191.793 214.712 192.281 214.852 192.713 215.132C193.149 215.408 193.489 215.792 193.733 216.284C193.981 216.772 194.105 217.32 194.105 217.928V218.162ZM191.261 215.558C190.721 215.558 190.273 215.72 189.917 216.044C189.561 216.368 189.341 216.81 189.257 217.37H193.103C193.019 216.814 192.813 216.374 192.485 216.05C192.161 215.722 191.753 215.558 191.261 215.558ZM197.707 221.144C197.207 221.144 196.765 221.066 196.381 220.91C196.001 220.75 195.705 220.53 195.493 220.25C195.285 219.97 195.179 219.652 195.175 219.296H196.135C196.143 219.504 196.213 219.688 196.345 219.848C196.477 220.008 196.657 220.134 196.885 220.226C197.117 220.314 197.381 220.358 197.677 220.358C198.133 220.358 198.487 220.262 198.739 220.07C198.991 219.878 199.117 219.616 199.117 219.284C199.117 219.028 199.039 218.82 198.883 218.66C198.731 218.496 198.505 218.39 198.205 218.342L197.089 218.168C196.553 218.084 196.135 217.89 195.835 217.586C195.535 217.278 195.385 216.896 195.385 216.44C195.385 216.104 195.479 215.806 195.667 215.546C195.859 215.282 196.123 215.078 196.459 214.934C196.799 214.786 197.183 214.712 197.611 214.712C198.051 214.712 198.445 214.786 198.793 214.934C199.145 215.082 199.421 215.288 199.621 215.552C199.825 215.812 199.931 216.108 199.939 216.44H198.979C198.975 216.264 198.911 216.104 198.787 215.96C198.667 215.816 198.503 215.704 198.295 215.624C198.087 215.54 197.855 215.498 197.599 215.498C197.351 215.498 197.127 215.538 196.927 215.618C196.731 215.694 196.577 215.802 196.465 215.942C196.357 216.078 196.303 216.236 196.303 216.416C196.303 216.656 196.375 216.85 196.519 216.998C196.663 217.142 196.875 217.236 197.155 217.28L198.307 217.466C198.867 217.554 199.295 217.754 199.591 218.066C199.891 218.378 200.041 218.776 200.041 219.26C200.041 219.636 199.945 219.966 199.753 220.25C199.561 220.534 199.289 220.754 198.937 220.91C198.585 221.066 198.175 221.144 197.707 221.144Z" fill="black"/>
<path d="M345.979 123.5L345.629 123.5L345.979 123.5ZM331.979 137.5L331.979 137.15L331.979 137.5ZM175.754 137.5L175.754 137.85L175.754 137.5ZM161.754 188.5L163.775 185L159.733 185L161.754 188.5ZM345.629 76L345.629 123.5L346.329 123.5L346.329 76L345.629 76ZM331.979 137.15L175.754 137.15L175.754 137.85L331.979 137.85L331.979 137.15ZM161.404 151.5L161.404 185.35L162.104 185.35L162.104 151.5L161.404 151.5ZM175.754 137.15C167.829 137.15 161.404 143.575 161.404 151.5L162.104 151.5C162.104 143.961 168.215 137.85 175.754 137.85L175.754 137.15ZM345.629 123.5C345.629 131.039 339.517 137.15 331.979 137.15L331.979 137.85C339.904 137.85 346.329 131.425 346.329 123.5L345.629 123.5Z" fill="black"/>
<rect x="252.59" y="25" width="200.044" height="52" rx="12" fill="url(#paint0_radial_1218_1164)"/>
<path d="M277.644 56.144C277.064 56.144 276.54 56.004 276.072 55.724C275.604 55.444 275.236 55.06 274.968 54.572C274.704 54.08 274.572 53.532 274.572 52.928C274.572 52.324 274.704 51.778 274.968 51.29C275.236 50.798 275.604 50.412 276.072 50.132C276.54 49.852 277.064 49.712 277.644 49.712C278.14 49.712 278.596 49.81 279.012 50.006C279.428 50.198 279.764 50.466 280.02 50.81C280.28 51.15 280.43 51.532 280.47 51.956H279.51C279.462 51.692 279.348 51.454 279.168 51.242C278.992 51.03 278.77 50.864 278.502 50.744C278.238 50.624 277.952 50.564 277.644 50.564C277.252 50.564 276.898 50.668 276.582 50.876C276.27 51.08 276.024 51.362 275.844 51.722C275.668 52.082 275.58 52.484 275.58 52.928C275.58 53.372 275.668 53.774 275.844 54.134C276.024 54.494 276.27 54.776 276.582 54.98C276.898 55.184 277.252 55.286 277.644 55.286C277.952 55.286 278.238 55.228 278.502 55.112C278.77 54.996 278.992 54.838 279.168 54.638C279.348 54.434 279.462 54.208 279.51 53.96H280.47C280.434 54.372 280.286 54.744 280.026 55.076C279.77 55.408 279.434 55.67 279.018 55.862C278.602 56.05 278.144 56.144 277.644 56.144ZM284.617 56.144C284.033 56.144 283.507 56.006 283.039 55.73C282.571 55.45 282.203 55.066 281.935 54.578C281.667 54.09 281.533 53.54 281.533 52.928C281.533 52.316 281.667 51.766 281.935 51.278C282.203 50.79 282.573 50.408 283.045 50.132C283.517 49.852 284.045 49.712 284.629 49.712C285.213 49.712 285.741 49.852 286.213 50.132C286.685 50.408 287.055 50.79 287.323 51.278C287.591 51.766 287.725 52.316 287.725 52.928C287.725 53.54 287.589 54.09 287.317 54.578C287.049 55.066 286.679 55.45 286.207 55.73C285.735 56.006 285.205 56.144 284.617 56.144ZM284.629 55.256C285.029 55.256 285.387 55.16 285.703 54.968C286.019 54.772 286.267 54.498 286.447 54.146C286.627 53.794 286.717 53.388 286.717 52.928C286.717 52.468 286.627 52.062 286.447 51.71C286.267 51.354 286.019 51.08 285.703 50.888C285.387 50.692 285.029 50.594 284.629 50.594C284.229 50.594 283.871 50.692 283.555 50.888C283.239 51.08 282.991 51.354 282.811 51.71C282.631 52.062 282.541 52.468 282.541 52.928C282.541 53.388 282.631 53.794 282.811 54.146C282.991 54.498 283.239 54.772 283.555 54.968C283.871 55.16 284.229 55.256 284.629 55.256ZM296.137 49.712C296.585 49.712 296.977 49.814 297.313 50.018C297.653 50.218 297.913 50.5 298.093 50.864C298.277 51.228 298.369 51.648 298.369 52.124V56H297.409V52.166C297.409 51.646 297.285 51.244 297.037 50.96C296.793 50.672 296.445 50.528 295.993 50.528C295.649 50.528 295.351 50.61 295.099 50.774C294.847 50.934 294.653 51.164 294.517 51.464C294.381 51.764 294.313 52.114 294.313 52.514V56H293.353V52.166C293.353 51.65 293.225 51.248 292.969 50.96C292.713 50.672 292.357 50.528 291.901 50.528C291.557 50.528 291.261 50.61 291.013 50.774C290.769 50.934 290.581 51.164 290.449 51.464C290.321 51.764 290.257 52.114 290.257 52.514V56H289.297V49.856H290.221V50.762C290.413 50.426 290.665 50.168 290.977 49.988C291.293 49.804 291.659 49.712 292.075 49.712C292.523 49.712 292.921 49.82 293.269 50.036C293.617 50.252 293.881 50.55 294.061 50.93C294.269 50.546 294.551 50.248 294.907 50.036C295.267 49.82 295.677 49.712 296.137 49.712ZM307.129 49.712C307.577 49.712 307.969 49.814 308.305 50.018C308.645 50.218 308.905 50.5 309.085 50.864C309.269 51.228 309.361 51.648 309.361 52.124V56H308.401V52.166C308.401 51.646 308.277 51.244 308.029 50.96C307.785 50.672 307.437 50.528 306.985 50.528C306.641 50.528 306.343 50.61 306.091 50.774C305.839 50.934 305.645 51.164 305.509 51.464C305.373 51.764 305.305 52.114 305.305 52.514V56H304.345V52.166C304.345 51.65 304.217 51.248 303.961 50.96C303.705 50.672 303.349 50.528 302.893 50.528C302.549 50.528 302.253 50.61 302.005 50.774C301.761 50.934 301.573 51.164 301.441 51.464C301.313 51.764 301.249 52.114 301.249 52.514V56H300.289V49.856H301.213V50.762C301.405 50.426 301.657 50.168 301.969 49.988C302.285 49.804 302.651 49.712 303.067 49.712C303.515 49.712 303.913 49.82 304.261 50.036C304.609 50.252 304.873 50.55 305.053 50.93C305.261 50.546 305.543 50.248 305.899 50.036C306.259 49.82 306.669 49.712 307.129 49.712ZM313.867 56.144C313.283 56.144 312.757 56.006 312.289 55.73C311.821 55.45 311.453 55.066 311.185 54.578C310.917 54.09 310.783 53.54 310.783 52.928C310.783 52.316 310.917 51.766 311.185 51.278C311.453 50.79 311.823 50.408 312.295 50.132C312.767 49.852 313.295 49.712 313.879 49.712C314.463 49.712 314.991 49.852 315.463 50.132C315.935 50.408 316.305 50.79 316.573 51.278C316.841 51.766 316.975 52.316 316.975 52.928C316.975 53.54 316.839 54.09 316.567 54.578C316.299 55.066 315.929 55.45 315.457 55.73C314.985 56.006 314.455 56.144 313.867 56.144ZM313.879 55.256C314.279 55.256 314.637 55.16 314.953 54.968C315.269 54.772 315.517 54.498 315.697 54.146C315.877 53.794 315.967 53.388 315.967 52.928C315.967 52.468 315.877 52.062 315.697 51.71C315.517 51.354 315.269 51.08 314.953 50.888C314.637 50.692 314.279 50.594 313.879 50.594C313.479 50.594 313.121 50.692 312.805 50.888C312.489 51.08 312.241 51.354 312.061 51.71C311.881 52.062 311.791 52.468 311.791 52.928C311.791 53.388 311.881 53.794 312.061 54.146C312.241 54.498 312.489 54.772 312.805 54.968C313.121 55.16 313.479 55.256 313.879 55.256ZM321.439 49.712C321.899 49.712 322.301 49.812 322.645 50.012C322.989 50.208 323.253 50.488 323.437 50.852C323.625 51.216 323.719 51.64 323.719 52.124V56H322.759V52.196C322.759 51.672 322.623 51.264 322.351 50.972C322.083 50.676 321.709 50.528 321.229 50.528C320.885 50.528 320.583 50.602 320.323 50.75C320.063 50.894 319.861 51.102 319.717 51.374C319.577 51.646 319.507 51.966 319.507 52.334V56H318.547V49.856H319.471V50.798C319.667 50.438 319.931 50.168 320.263 49.988C320.595 49.804 320.987 49.712 321.439 49.712ZM326.867 56H325.877V47.6H327.149L330.131 54.47L330.293 54.914L330.449 54.47L333.353 47.6H334.661V56H333.665V49.028L330.707 56H329.837L326.867 49.064V56ZM339.297 49.712C339.761 49.712 340.167 49.798 340.515 49.97C340.867 50.138 341.139 50.384 341.331 50.708C341.523 51.032 341.619 51.422 341.619 51.878V56H340.683V55.088C340.495 55.432 340.225 55.694 339.873 55.874C339.525 56.054 339.107 56.144 338.619 56.144C338.215 56.144 337.855 56.07 337.539 55.922C337.227 55.77 336.983 55.56 336.807 55.292C336.635 55.024 336.549 54.718 336.549 54.374C336.549 54.054 336.629 53.76 336.789 53.492C336.953 53.22 337.179 52.998 337.467 52.826C337.755 52.654 338.081 52.55 338.445 52.514L340.239 52.334C340.371 52.322 340.475 52.266 340.551 52.166C340.631 52.066 340.671 51.922 340.671 51.734C340.671 51.49 340.611 51.276 340.491 51.092C340.375 50.908 340.211 50.766 339.999 50.666C339.791 50.566 339.549 50.516 339.273 50.516C339.001 50.516 338.753 50.562 338.529 50.654C338.305 50.746 338.123 50.872 337.983 51.032C337.843 51.192 337.761 51.368 337.737 51.56H336.801C336.837 51.22 336.969 50.91 337.197 50.63C337.425 50.346 337.723 50.122 338.091 49.958C338.459 49.794 338.861 49.712 339.297 49.712ZM338.799 55.394C339.163 55.394 339.487 55.324 339.771 55.184C340.055 55.04 340.275 54.84 340.431 54.584C340.591 54.324 340.671 54.03 340.671 53.702V53.006L338.577 53.222C338.257 53.254 337.999 53.372 337.803 53.576C337.607 53.78 337.509 54.028 337.509 54.32C337.509 54.528 337.563 54.714 337.671 54.878C337.779 55.038 337.931 55.164 338.127 55.256C338.323 55.348 338.547 55.394 338.799 55.394ZM344.503 56H343.543V49.856H344.503V56ZM343.477 48.74V47.6H344.569V48.74H343.477ZM349.459 49.712C349.919 49.712 350.321 49.812 350.665 50.012C351.009 50.208 351.273 50.488 351.457 50.852C351.645 51.216 351.739 51.64 351.739 52.124V56H350.779V52.196C350.779 51.672 350.643 51.264 350.371 50.972C350.103 50.676 349.729 50.528 349.249 50.528C348.905 50.528 348.603 50.602 348.343 50.75C348.083 50.894 347.881 51.102 347.737 51.374C347.597 51.646 347.527 51.966 347.527 52.334V56H346.567V49.856H347.491V50.798C347.687 50.438 347.951 50.168 348.283 49.988C348.615 49.804 349.007 49.712 349.459 49.712ZM353.608 56H352.624L356.44 47.6H357.424L353.608 56ZM358.191 56V54.68H359.511V56H358.191ZM361.039 56V54.68H362.359V56H361.039ZM363.886 56V54.68H365.206V56H363.886ZM366.956 56H365.972L369.788 47.6H370.772L366.956 56ZM376.195 49.856H377.125L377.113 55.514C377.113 56.046 376.999 56.502 376.771 56.882C376.547 57.266 376.223 57.558 375.799 57.758C375.379 57.962 374.883 58.064 374.311 58.064C373.787 58.064 373.319 57.976 372.907 57.8C372.499 57.628 372.173 57.386 371.929 57.074C371.685 56.762 371.541 56.402 371.497 55.994H372.457C372.509 56.234 372.619 56.448 372.787 56.636C372.955 56.828 373.169 56.976 373.429 57.08C373.693 57.188 373.987 57.242 374.311 57.242C374.883 57.242 375.331 57.09 375.655 56.786C375.983 56.486 376.147 56.062 376.147 55.514V55.088L376.165 54.458C375.933 54.786 375.637 55.04 375.277 55.22C374.921 55.396 374.523 55.484 374.083 55.484C373.563 55.484 373.097 55.362 372.685 55.118C372.277 54.874 371.957 54.534 371.725 54.098C371.497 53.662 371.383 53.166 371.383 52.61C371.383 52.054 371.497 51.558 371.725 51.122C371.957 50.686 372.277 50.346 372.685 50.102C373.097 49.858 373.563 49.736 374.083 49.736C374.531 49.736 374.937 49.83 375.301 50.018C375.665 50.202 375.963 50.464 376.195 50.804V49.856ZM374.257 54.644C374.625 54.644 374.953 54.56 375.241 54.392C375.529 54.224 375.753 53.986 375.913 53.678C376.077 53.37 376.159 53.014 376.159 52.61C376.159 52.206 376.077 51.85 375.913 51.542C375.753 51.234 375.529 50.996 375.241 50.828C374.953 50.66 374.625 50.576 374.257 50.576C373.893 50.576 373.569 50.662 373.285 50.834C373.001 51.002 372.781 51.24 372.625 51.548C372.469 51.852 372.391 52.206 372.391 52.61C372.391 53.014 372.469 53.37 372.625 53.678C372.781 53.982 373.001 54.22 373.285 54.392C373.569 54.56 373.893 54.644 374.257 54.644ZM382.115 49.796V50.798H381.893C381.333 50.798 380.893 50.966 380.573 51.302C380.253 51.638 380.093 52.11 380.093 52.718V56H379.133V49.856H380.093V51.092C380.265 50.676 380.505 50.356 380.813 50.132C381.125 49.908 381.497 49.796 381.929 49.796H382.115ZM388.757 53.162H383.885C383.921 53.582 384.031 53.954 384.215 54.278C384.399 54.602 384.641 54.854 384.941 55.034C385.241 55.214 385.581 55.304 385.961 55.304C386.217 55.304 386.463 55.264 386.699 55.184C386.935 55.104 387.141 54.992 387.317 54.848C387.493 54.704 387.619 54.54 387.695 54.356H388.619C388.551 54.692 388.385 54.996 388.121 55.268C387.861 55.54 387.535 55.754 387.143 55.91C386.755 56.066 386.341 56.144 385.901 56.144C385.321 56.144 384.801 56.006 384.341 55.73C383.885 55.454 383.529 55.072 383.273 54.584C383.017 54.092 382.889 53.536 382.889 52.916C382.889 52.312 383.019 51.766 383.279 51.278C383.539 50.79 383.897 50.408 384.353 50.132C384.813 49.852 385.329 49.712 385.901 49.712C386.445 49.712 386.933 49.852 387.365 50.132C387.801 50.408 388.141 50.792 388.385 51.284C388.633 51.772 388.757 52.32 388.757 52.928V53.162ZM385.913 50.558C385.373 50.558 384.925 50.72 384.569 51.044C384.213 51.368 383.993 51.81 383.909 52.37H387.755C387.671 51.814 387.465 51.374 387.137 51.05C386.813 50.722 386.405 50.558 385.913 50.558ZM395.694 53.162H390.822C390.858 53.582 390.968 53.954 391.152 54.278C391.336 54.602 391.578 54.854 391.878 55.034C392.178 55.214 392.518 55.304 392.898 55.304C393.154 55.304 393.4 55.264 393.636 55.184C393.872 55.104 394.078 54.992 394.254 54.848C394.43 54.704 394.556 54.54 394.632 54.356H395.556C395.488 54.692 395.322 54.996 395.058 55.268C394.798 55.54 394.472 55.754 394.08 55.91C393.692 56.066 393.278 56.144 392.838 56.144C392.258 56.144 391.738 56.006 391.278 55.73C390.822 55.454 390.466 55.072 390.21 54.584C389.954 54.092 389.826 53.536 389.826 52.916C389.826 52.312 389.956 51.766 390.216 51.278C390.476 50.79 390.834 50.408 391.29 50.132C391.75 49.852 392.266 49.712 392.838 49.712C393.382 49.712 393.87 49.852 394.302 50.132C394.738 50.408 395.078 50.792 395.322 51.284C395.57 51.772 395.694 52.32 395.694 52.928V53.162ZM392.85 50.558C392.31 50.558 391.862 50.72 391.506 51.044C391.15 51.368 390.93 51.81 390.846 52.37H394.692C394.608 51.814 394.402 51.374 394.074 51.05C393.75 50.722 393.342 50.558 392.85 50.558ZM398.912 56C398.468 56 398.116 55.882 397.856 55.646C397.6 55.41 397.472 55.084 397.472 54.668L397.466 50.708H396.386L396.392 49.856H397.058C397.21 49.856 397.332 49.808 397.424 49.712C397.52 49.616 397.568 49.494 397.568 49.346V48.32H398.432V49.856H399.914L399.908 50.708H398.426L398.432 54.608C398.432 54.776 398.48 54.908 398.576 55.004C398.676 55.1 398.808 55.148 398.972 55.148H399.908V56H398.912ZM402.487 56H401.527V49.856H402.487V56ZM401.461 48.74V47.6H402.553V48.74H401.461ZM407.443 49.712C407.903 49.712 408.305 49.812 408.649 50.012C408.993 50.208 409.257 50.488 409.441 50.852C409.629 51.216 409.723 51.64 409.723 52.124V56H408.763V52.196C408.763 51.672 408.627 51.264 408.355 50.972C408.087 50.676 407.713 50.528 407.233 50.528C406.889 50.528 406.587 50.602 406.327 50.75C406.067 50.894 405.865 51.102 405.721 51.374C405.581 51.646 405.511 51.966 405.511 52.334V56H404.551V49.856H405.475V50.798C405.671 50.438 405.935 50.168 406.267 49.988C406.599 49.804 406.991 49.712 407.443 49.712ZM416.027 49.856H416.957L416.945 55.514C416.945 56.046 416.831 56.502 416.603 56.882C416.379 57.266 416.055 57.558 415.631 57.758C415.211 57.962 414.715 58.064 414.143 58.064C413.619 58.064 413.151 57.976 412.739 57.8C412.331 57.628 412.005 57.386 411.761 57.074C411.517 56.762 411.373 56.402 411.329 55.994H412.289C412.341 56.234 412.451 56.448 412.619 56.636C412.787 56.828 413.001 56.976 413.261 57.08C413.525 57.188 413.819 57.242 414.143 57.242C414.715 57.242 415.163 57.09 415.487 56.786C415.815 56.486 415.979 56.062 415.979 55.514V55.088L415.997 54.458C415.765 54.786 415.469 55.04 415.109 55.22C414.753 55.396 414.355 55.484 413.915 55.484C413.395 55.484 412.929 55.362 412.517 55.118C412.109 54.874 411.789 54.534 411.557 54.098C411.329 53.662 411.215 53.166 411.215 52.61C411.215 52.054 411.329 51.558 411.557 51.122C411.789 50.686 412.109 50.346 412.517 50.102C412.929 49.858 413.395 49.736 413.915 49.736C414.363 49.736 414.769 49.83 415.133 50.018C415.497 50.202 415.795 50.464 416.027 50.804V49.856ZM414.089 54.644C414.457 54.644 414.785 54.56 415.073 54.392C415.361 54.224 415.585 53.986 415.745 53.678C415.909 53.37 415.991 53.014 415.991 52.61C415.991 52.206 415.909 51.85 415.745 51.542C415.585 51.234 415.361 50.996 415.073 50.828C414.785 50.66 414.457 50.576 414.089 50.576C413.725 50.576 413.401 50.662 413.117 50.834C412.833 51.002 412.613 51.24 412.457 51.548C412.301 51.852 412.223 52.206 412.223 52.61C412.223 53.014 412.301 53.37 412.457 53.678C412.613 53.982 412.833 54.22 413.117 54.392C413.401 54.56 413.725 54.644 414.089 54.644ZM418.695 56V54.68H420.015V56H418.695ZM422.773 56H421.813V47.6H422.773V52.694L425.551 49.856H426.751L423.871 52.778L426.859 56H425.635L422.773 52.898V56ZM429.603 56C429.159 56 428.807 55.882 428.547 55.646C428.291 55.41 428.163 55.084 428.163 54.668L428.157 50.708H427.077L427.083 49.856H427.749C427.901 49.856 428.023 49.808 428.115 49.712C428.211 49.616 428.259 49.494 428.259 49.346V48.32H429.123V49.856H430.605L430.599 50.708H429.117L429.123 54.608C429.123 54.776 429.171 54.908 429.267 55.004C429.367 55.1 429.499 55.148 429.663 55.148H430.599V56H429.603Z" fill="white"/>
<defs>
<radialGradient id="paint0_radial_1218_1164" cx="0" cy="0" r="1" gradientUnits="userSpaceOnUse" gradientTransform="translate(252.031 77.7836) scale(195.006 192.458)">
<stop stop-color="#EB4857"/>
<stop offset="0.5" stop-color="#C611E0"/>
<stop offset="1" stop-color="#7F52FF"/>
</radialGradient>
</defs>
</svg>
