<svg width="830" height="391" viewBox="0 0 830 391" fill="none" xmlns="http://www.w3.org/2000/svg">
<path d="M40 42C40 40.8954 40.8954 40 42 40H788C789.105 40 790 40.8954 790 42V349C790 350.105 789.105 351 788 351H42C40.8954 351 40 350.105 40 349V42Z" fill="white"/>
<path d="M42 40V41H788V40V39H42V40ZM790 42H789V349H790H791V42H790ZM788 351V350H42V351V352H788V351ZM40 349H41V42H40H39V349H40ZM42 351V350C41.4477 350 41 349.552 41 349H40H39C39 350.657 40.3431 352 42 352V351ZM790 349H789C789 349.552 788.552 350 788 350V351V352C789.657 352 791 350.657 791 349H790ZM788 40V41C788.552 41 789 41.4477 789 42H790H791C791 40.3432 789.657 39 788 39V40ZM42 40V39C40.3431 39 39 40.3431 39 42H40H41C41 41.4477 41.4477 41 42 41V40Z" fill="black" fill-opacity="0.1"/>
<path d="M565 183H469C462.373 183 457 188.373 457 195V211C457 217.627 462.373 223 469 223H565C571.627 223 577 217.627 577 211V195C577 188.373 571.627 183 565 183Z" fill="#F2F2F2"/>
<path d="M503.85 200.712C504.31 200.712 504.712 200.812 505.056 201.012C505.4 201.208 505.664 201.488 505.848 201.852C506.036 202.216 506.13 202.64 506.13 203.124V207H505.17V203.196C505.17 202.672 505.034 202.264 504.762 201.972C504.494 201.676 504.12 201.528 503.64 201.528C503.296 201.528 502.994 201.602 502.734 201.75C502.474 201.894 502.272 202.102 502.128 202.374C501.988 202.646 501.918 202.966 501.918 203.334V207H500.958V200.856H501.882V201.798C502.078 201.438 502.342 201.168 502.674 200.988C503.006 200.804 503.398 200.712 503.85 200.712ZM510.376 200.712C510.84 200.712 511.246 200.798 511.594 200.97C511.946 201.138 512.218 201.384 512.41 201.708C512.602 202.032 512.698 202.422 512.698 202.878V207H511.762V206.088C511.574 206.432 511.304 206.694 510.952 206.874C510.604 207.054 510.186 207.144 509.698 207.144C509.294 207.144 508.934 207.07 508.618 206.922C508.306 206.77 508.062 206.56 507.886 206.292C507.714 206.024 507.628 205.718 507.628 205.374C507.628 205.054 507.708 204.76 507.868 204.492C508.032 204.22 508.258 203.998 508.546 203.826C508.834 203.654 509.16 203.55 509.524 203.514L511.318 203.334C511.45 203.322 511.554 203.266 511.63 203.166C511.71 203.066 511.75 202.922 511.75 202.734C511.75 202.49 511.69 202.276 511.57 202.092C511.454 201.908 511.29 201.766 511.078 201.666C510.87 201.566 510.628 201.516 510.352 201.516C510.08 201.516 509.832 201.562 509.608 201.654C509.384 201.746 509.202 201.872 509.062 202.032C508.922 202.192 508.84 202.368 508.816 202.56H507.88C507.916 202.22 508.048 201.91 508.276 201.63C508.504 201.346 508.802 201.122 509.17 200.958C509.538 200.794 509.94 200.712 510.376 200.712ZM509.878 206.394C510.242 206.394 510.566 206.324 510.85 206.184C511.134 206.04 511.354 205.84 511.51 205.584C511.67 205.324 511.75 205.03 511.75 204.702V204.006L509.656 204.222C509.336 204.254 509.078 204.372 508.882 204.576C508.686 204.78 508.588 205.028 508.588 205.32C508.588 205.528 508.642 205.714 508.75 205.878C508.858 206.038 509.01 206.164 509.206 206.256C509.402 206.348 509.626 206.394 509.878 206.394ZM516.272 207C515.828 207 515.476 206.882 515.216 206.646C514.96 206.41 514.832 206.084 514.832 205.668L514.826 201.708H513.746L513.752 200.856H514.418C514.57 200.856 514.692 200.808 514.784 200.712C514.88 200.616 514.928 200.494 514.928 200.346V199.32H515.792V200.856H517.274L517.268 201.708H515.786L515.792 205.608C515.792 205.776 515.84 205.908 515.936 206.004C516.036 206.1 516.168 206.148 516.332 206.148H517.268V207H516.272ZM519.847 207H518.887V200.856H519.847V207ZM518.821 199.74V198.6H519.913V199.74H518.821ZM524.551 207H523.531L521.137 200.856H522.181L524.077 205.878L525.937 200.856H526.945L524.551 207ZM533.539 204.162H528.667C528.703 204.582 528.813 204.954 528.997 205.278C529.181 205.602 529.423 205.854 529.723 206.034C530.023 206.214 530.363 206.304 530.743 206.304C530.999 206.304 531.245 206.264 531.481 206.184C531.717 206.104 531.923 205.992 532.099 205.848C532.275 205.704 532.401 205.54 532.477 205.356H533.401C533.333 205.692 533.167 205.996 532.903 206.268C532.643 206.54 532.317 206.754 531.925 206.91C531.537 207.066 531.123 207.144 530.683 207.144C530.103 207.144 529.583 207.006 529.123 206.73C528.667 206.454 528.311 206.072 528.055 205.584C527.799 205.092 527.671 204.536 527.671 203.916C527.671 203.312 527.801 202.766 528.061 202.278C528.321 201.79 528.679 201.408 529.135 201.132C529.595 200.852 530.111 200.712 530.683 200.712C531.227 200.712 531.715 200.852 532.147 201.132C532.583 201.408 532.923 201.792 533.167 202.284C533.415 202.772 533.539 203.32 533.539 203.928V204.162ZM530.695 201.558C530.155 201.558 529.707 201.72 529.351 202.044C528.995 202.368 528.775 202.81 528.691 203.37H532.537C532.453 202.814 532.247 202.374 531.919 202.05C531.595 201.722 531.187 201.558 530.695 201.558Z" fill="black"/>
<path d="M383.4 274H306.6C301.298 274 297 279.238 297 285.7V301.3C297 307.762 301.298 313 306.6 313H383.4C388.702 313 393 307.762 393 301.3V285.7C393 279.238 388.702 274 383.4 274Z" fill="url(#paint0_radial_0_1)"/>
<path d="M144.4 275H67.6C62.2981 275 58 280.238 58 286.7V302.3C58 308.762 62.2981 314 67.6 314H144.4C149.702 314 154 308.762 154 302.3V286.7C154 280.238 149.702 275 144.4 275Z" fill="url(#paint1_radial_0_1)"/>
<path d="M103.144 291.804V298.874C103.144 299.714 102.99 300.405 102.682 300.946C102.374 301.497 101.893 301.959 101.24 302.332L100.666 301.338C100.946 301.17 101.174 300.983 101.352 300.778C101.529 300.582 101.664 300.367 101.758 300.134C101.86 299.91 101.93 299.677 101.968 299.434C102.005 299.201 102.024 298.963 102.024 298.72V291.972L103.144 291.804ZM101.8 289.942C101.8 289.727 101.87 289.55 102.01 289.41C102.159 289.261 102.341 289.186 102.556 289.186C102.78 289.186 102.966 289.261 103.116 289.41C103.274 289.55 103.354 289.727 103.354 289.942C103.354 290.157 103.274 290.339 103.116 290.488C102.966 290.628 102.78 290.698 102.556 290.698C102.341 290.698 102.159 290.628 102.01 290.488C101.87 290.339 101.8 290.157 101.8 289.942ZM108.962 293.106C108.57 292.985 108.22 292.905 107.912 292.868C107.614 292.821 107.338 292.798 107.086 292.798C106.76 292.798 106.484 292.877 106.26 293.036C106.046 293.195 105.938 293.4 105.938 293.652C105.948 293.876 106.046 294.067 106.232 294.226C106.419 294.385 106.634 294.529 106.876 294.66C107.128 294.781 107.404 294.917 107.702 295.066C108.01 295.215 108.295 295.383 108.556 295.57C108.827 295.757 109.046 295.981 109.214 296.242C109.382 296.503 109.471 296.816 109.48 297.18C109.471 297.572 109.382 297.899 109.214 298.16C109.056 298.412 108.846 298.617 108.584 298.776C108.332 298.925 108.057 299.028 107.758 299.084C107.46 299.149 107.18 299.182 106.918 299.182C106.582 299.182 106.232 299.163 105.868 299.126C105.514 299.089 105.131 299.009 104.72 298.888L104.93 297.88C105.35 297.992 105.733 298.076 106.078 298.132C106.424 298.179 106.708 298.202 106.932 298.202C107.1 298.202 107.264 298.183 107.422 298.146C107.59 298.109 107.74 298.057 107.87 297.992C108.001 297.917 108.104 297.824 108.178 297.712C108.262 297.6 108.304 297.474 108.304 297.334C108.295 297.073 108.206 296.853 108.038 296.676C107.87 296.489 107.651 296.326 107.38 296.186C107.119 296.037 106.834 295.892 106.526 295.752C106.228 295.603 105.943 295.435 105.672 295.248C105.411 295.052 105.192 294.823 105.014 294.562C104.837 294.291 104.748 293.96 104.748 293.568C104.748 293.288 104.818 293.041 104.958 292.826C105.108 292.602 105.294 292.42 105.518 292.28C105.752 292.131 106.004 292.019 106.274 291.944C106.554 291.86 106.825 291.818 107.086 291.818C107.357 291.818 107.66 291.841 107.996 291.888C108.332 291.925 108.72 292 109.158 292.112L108.962 293.106Z" fill="white"/>
<path d="M321.68 291.958H322.856L323.682 295.136C323.756 295.407 323.822 295.696 323.878 296.004C323.943 296.303 324.004 296.583 324.06 296.844C324.116 297.152 324.176 297.455 324.242 297.754H324.256C324.321 297.455 324.396 297.152 324.48 296.844C324.554 296.583 324.634 296.303 324.718 296.004C324.802 295.696 324.886 295.407 324.97 295.136L325.964 291.958H327.462L328.26 295.136C328.325 295.407 328.39 295.696 328.456 296.004C328.53 296.303 328.591 296.583 328.638 296.844C328.694 297.152 328.75 297.455 328.806 297.754H328.82C328.904 297.446 328.992 297.138 329.086 296.83C329.16 296.569 329.244 296.289 329.338 295.99C329.431 295.682 329.52 295.397 329.604 295.136L330.584 291.958H331.746L329.436 299H328.19L327.182 295.136C327.088 294.781 327.009 294.464 326.944 294.184C326.888 293.895 326.836 293.652 326.79 293.456C326.743 293.223 326.701 293.017 326.664 292.84H326.636C326.598 293.017 326.552 293.223 326.496 293.456C326.449 293.652 326.384 293.895 326.3 294.184C326.216 294.464 326.122 294.781 326.02 295.136L324.83 299H323.584L321.68 291.958ZM336.787 295.766C336.601 295.775 336.423 295.785 336.255 295.794C336.087 295.803 335.919 295.817 335.751 295.836C335.593 295.845 335.448 295.859 335.317 295.878C334.645 295.962 334.169 296.111 333.889 296.326C333.609 296.531 333.469 296.83 333.469 297.222C333.469 297.549 333.567 297.796 333.763 297.964C333.969 298.123 334.235 298.202 334.561 298.202C335.009 298.202 335.406 298.127 335.751 297.978C336.106 297.819 336.451 297.614 336.787 297.362V295.766ZM336.773 298.342C336.335 298.594 335.924 298.799 335.541 298.958C335.168 299.107 334.762 299.182 334.323 299.182C333.698 299.182 333.199 299.033 332.825 298.734C332.461 298.426 332.279 297.922 332.279 297.222C332.279 296.858 332.373 296.541 332.559 296.27C332.746 295.999 332.989 295.775 333.287 295.598C333.595 295.411 333.941 295.267 334.323 295.164C334.706 295.061 335.098 294.996 335.499 294.968C335.667 294.949 335.887 294.935 336.157 294.926C336.428 294.907 336.638 294.893 336.787 294.884C336.787 294.557 336.778 294.268 336.759 294.016C336.741 293.755 336.685 293.535 336.591 293.358C336.498 293.171 336.358 293.031 336.171 292.938C335.994 292.845 335.737 292.798 335.401 292.798C335.131 292.798 334.869 292.817 334.617 292.854C334.365 292.882 334.141 292.915 333.945 292.952C333.712 292.999 333.497 293.05 333.301 293.106L333.077 292.14C333.311 292.084 333.563 292.033 333.833 291.986C334.067 291.939 334.337 291.902 334.645 291.874C334.953 291.837 335.285 291.818 335.639 291.818C336.115 291.818 336.498 291.888 336.787 292.028C337.086 292.168 337.315 292.359 337.473 292.602C337.641 292.835 337.753 293.106 337.809 293.414C337.875 293.713 337.907 294.03 337.907 294.366V297.726C337.907 297.857 337.907 297.997 337.907 298.146C337.917 298.286 337.926 298.426 337.935 298.566C337.954 298.706 337.973 298.851 337.991 299L336.913 299.112L336.773 298.342ZM343.689 293.106C343.297 292.985 342.947 292.905 342.639 292.868C342.34 292.821 342.065 292.798 341.813 292.798C341.486 292.798 341.211 292.877 340.987 293.036C340.772 293.195 340.665 293.4 340.665 293.652C340.674 293.876 340.772 294.067 340.959 294.226C341.146 294.385 341.36 294.529 341.603 294.66C341.855 294.781 342.13 294.917 342.429 295.066C342.737 295.215 343.022 295.383 343.283 295.57C343.554 295.757 343.773 295.981 343.941 296.242C344.109 296.503 344.198 296.816 344.207 297.18C344.198 297.572 344.109 297.899 343.941 298.16C343.782 298.412 343.572 298.617 343.311 298.776C343.059 298.925 342.784 299.028 342.485 299.084C342.186 299.149 341.906 299.182 341.645 299.182C341.309 299.182 340.959 299.163 340.595 299.126C340.24 299.089 339.858 299.009 339.447 298.888L339.657 297.88C340.077 297.992 340.46 298.076 340.805 298.132C341.15 298.179 341.435 298.202 341.659 298.202C341.827 298.202 341.99 298.183 342.149 298.146C342.317 298.109 342.466 298.057 342.597 297.992C342.728 297.917 342.83 297.824 342.905 297.712C342.989 297.6 343.031 297.474 343.031 297.334C343.022 297.073 342.933 296.853 342.765 296.676C342.597 296.489 342.378 296.326 342.107 296.186C341.846 296.037 341.561 295.892 341.253 295.752C340.954 295.603 340.67 295.435 340.399 295.248C340.138 295.052 339.918 294.823 339.741 294.562C339.564 294.291 339.475 293.96 339.475 293.568C339.475 293.288 339.545 293.041 339.685 292.826C339.834 292.602 340.021 292.42 340.245 292.28C340.478 292.131 340.73 292.019 341.001 291.944C341.281 291.86 341.552 291.818 341.813 291.818C342.084 291.818 342.387 291.841 342.723 291.888C343.059 291.925 343.446 292 343.885 292.112L343.689 293.106ZM345.733 293.232C345.733 292.915 345.705 292.532 345.649 292.084L346.699 291.944L346.853 292.826C347.105 292.639 347.352 292.476 347.595 292.336C347.838 292.196 348.099 292.075 348.379 291.972C348.659 291.869 348.944 291.818 349.233 291.818C349.7 291.818 350.068 291.902 350.339 292.07C350.61 292.229 350.81 292.504 350.941 292.896C351.324 292.625 351.72 292.378 352.131 292.154C352.551 291.93 352.985 291.818 353.433 291.818C353.778 291.818 354.072 291.865 354.315 291.958C354.558 292.042 354.754 292.187 354.903 292.392C355.052 292.597 355.16 292.868 355.225 293.204C355.29 293.54 355.323 293.96 355.323 294.464V299H354.203V294.59C354.203 294.31 354.198 294.063 354.189 293.848C354.18 293.624 354.147 293.437 354.091 293.288C354.035 293.129 353.942 293.008 353.811 292.924C353.69 292.84 353.512 292.798 353.279 292.798C353.064 292.798 352.859 292.831 352.663 292.896C352.476 292.952 352.28 293.036 352.075 293.148C351.87 293.26 351.552 293.489 351.123 293.834V299H350.003V294.59C350.003 294.31 349.998 294.063 349.989 293.848C349.98 293.624 349.947 293.437 349.891 293.288C349.835 293.129 349.742 293.008 349.611 292.924C349.49 292.84 349.312 292.798 349.079 292.798C348.836 292.798 348.584 292.849 348.323 292.952C348.062 293.055 347.814 293.176 347.581 293.316C347.348 293.456 347.105 293.619 346.853 293.806V299H345.733V293.232ZM359.665 289.452V296.018C359.665 296.569 359.614 297.04 359.511 297.432C359.418 297.815 359.222 298.123 358.923 298.356C358.708 298.524 358.428 298.687 358.083 298.846C357.747 298.995 357.299 299.107 356.739 299.182L356.585 298.188C357.024 298.113 357.369 298.02 357.621 297.908C357.882 297.787 358.074 297.642 358.195 297.474C358.326 297.306 358.405 297.101 358.433 296.858C358.47 296.615 358.489 296.331 358.489 296.004V289.452H359.665ZM365.55 293.106C365.158 292.985 364.808 292.905 364.5 292.868C364.202 292.821 363.926 292.798 363.674 292.798C363.348 292.798 363.072 292.877 362.848 293.036C362.634 293.195 362.526 293.4 362.526 293.652C362.536 293.876 362.634 294.067 362.82 294.226C363.007 294.385 363.222 294.529 363.464 294.66C363.716 294.781 363.992 294.917 364.29 295.066C364.598 295.215 364.883 295.383 365.144 295.57C365.415 295.757 365.634 295.981 365.802 296.242C365.97 296.503 366.059 296.816 366.068 297.18C366.059 297.572 365.97 297.899 365.802 298.16C365.644 298.412 365.434 298.617 365.172 298.776C364.92 298.925 364.645 299.028 364.346 299.084C364.048 299.149 363.768 299.182 363.506 299.182C363.17 299.182 362.82 299.163 362.456 299.126C362.102 299.089 361.719 299.009 361.308 298.888L361.518 297.88C361.938 297.992 362.321 298.076 362.666 298.132C363.012 298.179 363.296 298.202 363.52 298.202C363.688 298.202 363.852 298.183 364.01 298.146C364.178 298.109 364.328 298.057 364.458 297.992C364.589 297.917 364.692 297.824 364.766 297.712C364.85 297.6 364.892 297.474 364.892 297.334C364.883 297.073 364.794 296.853 364.626 296.676C364.458 296.489 364.239 296.326 363.968 296.186C363.707 296.037 363.422 295.892 363.114 295.752C362.816 295.603 362.531 295.435 362.26 295.248C361.999 295.052 361.78 294.823 361.602 294.562C361.425 294.291 361.336 293.96 361.336 293.568C361.336 293.288 361.406 293.041 361.546 292.826C361.696 292.602 361.882 292.42 362.106 292.28C362.34 292.131 362.592 292.019 362.862 291.944C363.142 291.86 363.413 291.818 363.674 291.818C363.945 291.818 364.248 291.841 364.584 291.888C364.92 291.925 365.308 292 365.746 292.112L365.55 293.106Z" fill="white"/>
<path d="M287 185H191C184.373 185 179 190.373 179 197V213C179 219.627 184.373 225 191 225H287C293.627 225 299 219.627 299 213V197C299 190.373 293.627 185 287 185Z" fill="url(#paint2_radial_0_1)"/>
<path d="M225.694 201.958H226.87L227.696 205.136C227.771 205.407 227.836 205.696 227.892 206.004C227.958 206.303 228.018 206.583 228.074 206.844C228.13 207.152 228.191 207.455 228.256 207.754H228.27C228.336 207.455 228.41 207.152 228.494 206.844C228.569 206.583 228.648 206.303 228.732 206.004C228.816 205.696 228.9 205.407 228.984 205.136L229.978 201.958H231.476L232.274 205.136C232.34 205.407 232.405 205.696 232.47 206.004C232.545 206.303 232.606 206.583 232.652 206.844C232.708 207.152 232.764 207.455 232.82 207.754H232.834C232.918 207.446 233.007 207.138 233.1 206.83C233.175 206.569 233.259 206.289 233.352 205.99C233.446 205.682 233.534 205.397 233.618 205.136L234.598 201.958H235.76L233.45 209H232.204L231.196 205.136C231.103 204.781 231.024 204.464 230.958 204.184C230.902 203.895 230.851 203.652 230.804 203.456C230.758 203.223 230.716 203.017 230.678 202.84H230.65C230.613 203.017 230.566 203.223 230.51 203.456C230.464 203.652 230.398 203.895 230.314 204.184C230.23 204.464 230.137 204.781 230.034 205.136L228.844 209H227.598L225.694 201.958ZM242.158 208.832C241.944 208.897 241.72 208.953 241.486 209C241.262 209.047 241.01 209.089 240.73 209.126C240.46 209.163 240.175 209.182 239.876 209.182C239.41 209.182 238.976 209.117 238.574 208.986C238.173 208.855 237.823 208.645 237.524 208.356C237.226 208.067 236.988 207.693 236.81 207.236C236.642 206.769 236.558 206.2 236.558 205.528C236.558 204.921 236.642 204.389 236.81 203.932C236.978 203.465 237.207 203.078 237.496 202.77C237.795 202.453 238.14 202.215 238.532 202.056C238.934 201.897 239.368 201.818 239.834 201.818C240.292 201.818 240.688 201.907 241.024 202.084C241.36 202.261 241.636 202.504 241.85 202.812C242.074 203.111 242.238 203.465 242.34 203.876C242.452 204.277 242.508 204.702 242.508 205.15L242.298 205.766H237.776C237.776 206.055 237.814 206.345 237.888 206.634C237.963 206.923 238.089 207.185 238.266 207.418C238.453 207.651 238.691 207.843 238.98 207.992C239.279 208.132 239.648 208.202 240.086 208.202C240.366 208.202 240.623 208.188 240.856 208.16C241.09 208.123 241.29 208.085 241.458 208.048C241.636 208.001 241.799 207.95 241.948 207.894L242.158 208.832ZM241.346 204.87C241.346 204.805 241.332 204.66 241.304 204.436C241.276 204.212 241.211 203.979 241.108 203.736C241.006 203.493 240.847 203.279 240.632 203.092C240.418 202.896 240.133 202.798 239.778 202.798C239.386 202.798 239.064 202.882 238.812 203.05C238.56 203.209 238.36 203.4 238.21 203.624C238.061 203.848 237.958 204.077 237.902 204.31C237.846 204.543 237.818 204.73 237.818 204.87H241.346ZM244.018 198.514L245.138 198.388V202.56C245.344 202.42 245.558 202.299 245.782 202.196C245.969 202.103 246.179 202.019 246.412 201.944C246.646 201.86 246.879 201.818 247.112 201.818C247.495 201.818 247.854 201.893 248.19 202.042C248.536 202.191 248.834 202.415 249.086 202.714C249.348 203.013 249.553 203.391 249.702 203.848C249.852 204.305 249.926 204.847 249.926 205.472C249.926 206.163 249.828 206.746 249.632 207.222C249.446 207.689 249.189 208.067 248.862 208.356C248.545 208.645 248.181 208.855 247.77 208.986C247.36 209.117 246.94 209.182 246.51 209.182C246.081 209.182 245.708 209.149 245.39 209.084C245.082 209.028 244.826 208.963 244.62 208.888C244.378 208.795 244.177 208.692 244.018 208.58V198.514ZM245.138 207.964C245.26 208.011 245.39 208.053 245.53 208.09C245.67 208.118 245.82 208.146 245.978 208.174C246.146 208.193 246.324 208.202 246.51 208.202C246.94 208.202 247.299 208.141 247.588 208.02C247.878 207.899 248.106 207.721 248.274 207.488C248.442 207.255 248.559 206.975 248.624 206.648C248.699 206.312 248.736 205.939 248.736 205.528C248.736 205.201 248.699 204.875 248.624 204.548C248.559 204.221 248.452 203.932 248.302 203.68C248.153 203.419 247.966 203.209 247.742 203.05C247.528 202.882 247.276 202.798 246.986 202.798C246.79 202.798 246.585 202.84 246.37 202.924C246.156 202.999 245.955 203.087 245.768 203.19C245.554 203.302 245.344 203.428 245.138 203.568V207.964Z" fill="white"/>
<path d="M381 183H345C338.373 183 333 188.373 333 195V211C333 217.627 338.373 223 345 223H381C387.627 223 393 217.627 393 211V195C393 188.373 387.627 183 381 183Z" fill="#F2F2F2"/>
<path d="M749 183H653C646.373 183 641 188.373 641 195V211C641 217.627 646.373 223 653 223H749C755.627 223 761 217.627 761 211V195C761 188.373 755.627 183 749 183Z" fill="#F2F2F2"/>
<path d="M352.486 207.92V207.008H353.374C353.538 207.008 353.668 206.958 353.764 206.858C353.864 206.758 353.914 206.626 353.914 206.462V199.856H354.874V206.54C354.874 206.816 354.814 207.058 354.694 207.266C354.578 207.474 354.41 207.634 354.19 207.746C353.974 207.862 353.722 207.92 353.434 207.92H352.486ZM353.848 198.74V197.6H354.94V198.74H353.848ZM359.506 206H358.486L356.092 199.856H357.136L359.032 204.878L360.892 199.856H361.9L359.506 206ZM370.034 199.712C370.482 199.712 370.874 199.814 371.21 200.018C371.55 200.218 371.81 200.5 371.99 200.864C372.174 201.228 372.266 201.648 372.266 202.124V206H371.306V202.166C371.306 201.646 371.182 201.244 370.934 200.96C370.69 200.672 370.342 200.528 369.89 200.528C369.546 200.528 369.248 200.61 368.996 200.774C368.744 200.934 368.55 201.164 368.414 201.464C368.278 201.764 368.21 202.114 368.21 202.514V206H367.25V202.166C367.25 201.65 367.122 201.248 366.866 200.96C366.61 200.672 366.254 200.528 365.798 200.528C365.454 200.528 365.158 200.61 364.91 200.774C364.666 200.934 364.478 201.164 364.346 201.464C364.218 201.764 364.154 202.114 364.154 202.514V206H363.194V199.856H364.118V200.762C364.31 200.426 364.562 200.168 364.874 199.988C365.19 199.804 365.556 199.712 365.972 199.712C366.42 199.712 366.818 199.82 367.166 200.036C367.514 200.252 367.778 200.55 367.958 200.93C368.166 200.546 368.448 200.248 368.804 200.036C369.164 199.82 369.574 199.712 370.034 199.712Z" fill="black"/>
<path d="M664.944 200.712C665.408 200.712 665.814 200.798 666.162 200.97C666.514 201.138 666.786 201.384 666.978 201.708C667.17 202.032 667.266 202.422 667.266 202.878V207H666.33V206.088C666.142 206.432 665.872 206.694 665.52 206.874C665.172 207.054 664.754 207.144 664.266 207.144C663.862 207.144 663.502 207.07 663.186 206.922C662.874 206.77 662.63 206.56 662.454 206.292C662.282 206.024 662.196 205.718 662.196 205.374C662.196 205.054 662.276 204.76 662.436 204.492C662.6 204.22 662.826 203.998 663.114 203.826C663.402 203.654 663.728 203.55 664.092 203.514L665.886 203.334C666.018 203.322 666.122 203.266 666.198 203.166C666.278 203.066 666.318 202.922 666.318 202.734C666.318 202.49 666.258 202.276 666.138 202.092C666.022 201.908 665.858 201.766 665.646 201.666C665.438 201.566 665.196 201.516 664.92 201.516C664.648 201.516 664.4 201.562 664.176 201.654C663.952 201.746 663.77 201.872 663.63 202.032C663.49 202.192 663.408 202.368 663.384 202.56H662.448C662.484 202.22 662.616 201.91 662.844 201.63C663.072 201.346 663.37 201.122 663.738 200.958C664.106 200.794 664.508 200.712 664.944 200.712ZM664.446 206.394C664.81 206.394 665.134 206.324 665.418 206.184C665.702 206.04 665.922 205.84 666.078 205.584C666.238 205.324 666.318 205.03 666.318 204.702V204.006L664.224 204.222C663.904 204.254 663.646 204.372 663.45 204.576C663.254 204.78 663.156 205.028 663.156 205.32C663.156 205.528 663.21 205.714 663.318 205.878C663.426 206.038 663.578 206.164 663.774 206.256C663.97 206.348 664.194 206.394 664.446 206.394ZM672.082 200.712C672.542 200.712 672.944 200.812 673.288 201.012C673.632 201.208 673.896 201.488 674.08 201.852C674.268 202.216 674.362 202.64 674.362 203.124V207H673.402V203.196C673.402 202.672 673.266 202.264 672.994 201.972C672.726 201.676 672.352 201.528 671.872 201.528C671.528 201.528 671.226 201.602 670.966 201.75C670.706 201.894 670.504 202.102 670.36 202.374C670.22 202.646 670.15 202.966 670.15 203.334V207H669.19V200.856H670.114V201.798C670.31 201.438 670.574 201.168 670.906 200.988C671.238 200.804 671.63 200.712 672.082 200.712ZM681.842 200.856H681.848V207H680.924V205.968C680.688 206.344 680.382 206.634 680.006 206.838C679.63 207.042 679.208 207.144 678.74 207.144C678.184 207.144 677.68 207.004 677.228 206.724C676.776 206.444 676.422 206.06 676.166 205.572C675.91 205.08 675.782 204.532 675.782 203.928C675.782 203.324 675.91 202.778 676.166 202.29C676.422 201.798 676.776 201.412 677.228 201.132C677.68 200.852 678.184 200.712 678.74 200.712C679.208 200.712 679.628 200.814 680 201.018C680.376 201.222 680.682 201.512 680.918 201.888L680.882 198.6H681.842V200.856ZM678.83 206.28C679.222 206.28 679.574 206.178 679.886 205.974C680.202 205.77 680.448 205.49 680.624 205.134C680.8 204.774 680.888 204.372 680.888 203.928C680.888 203.484 680.8 203.084 680.624 202.728C680.448 202.368 680.202 202.086 679.886 201.882C679.574 201.678 679.222 201.576 678.83 201.576C678.442 201.576 678.092 201.678 677.78 201.882C677.472 202.086 677.23 202.368 677.054 202.728C676.878 203.084 676.79 203.484 676.79 203.928C676.79 204.372 676.878 204.774 677.054 205.134C677.23 205.49 677.472 205.77 677.78 205.974C678.092 206.178 678.442 206.28 678.83 206.28ZM686.844 200.796V201.798H686.622C686.062 201.798 685.622 201.966 685.302 202.302C684.982 202.638 684.822 203.11 684.822 203.718V207H683.862V200.856H684.822V202.092C684.994 201.676 685.234 201.356 685.542 201.132C685.854 200.908 686.226 200.796 686.658 200.796H686.844ZM690.702 207.144C690.118 207.144 689.592 207.006 689.124 206.73C688.656 206.45 688.288 206.066 688.02 205.578C687.752 205.09 687.618 204.54 687.618 203.928C687.618 203.316 687.752 202.766 688.02 202.278C688.288 201.79 688.658 201.408 689.13 201.132C689.602 200.852 690.13 200.712 690.714 200.712C691.298 200.712 691.826 200.852 692.298 201.132C692.77 201.408 693.14 201.79 693.408 202.278C693.676 202.766 693.81 203.316 693.81 203.928C693.81 204.54 693.674 205.09 693.402 205.578C693.134 206.066 692.764 206.45 692.292 206.73C691.82 207.006 691.29 207.144 690.702 207.144ZM690.714 206.256C691.114 206.256 691.472 206.16 691.788 205.968C692.104 205.772 692.352 205.498 692.532 205.146C692.712 204.794 692.802 204.388 692.802 203.928C692.802 203.468 692.712 203.062 692.532 202.71C692.352 202.354 692.104 202.08 691.788 201.888C691.472 201.692 691.114 201.594 690.714 201.594C690.314 201.594 689.956 201.692 689.64 201.888C689.324 202.08 689.076 202.354 688.896 202.71C688.716 203.062 688.626 203.468 688.626 203.928C688.626 204.388 688.716 204.794 688.896 205.146C689.076 205.498 689.324 205.772 689.64 205.968C689.956 206.16 690.314 206.256 690.714 206.256ZM696.342 207H695.382V200.856H696.342V207ZM695.316 199.74V198.6H696.408V199.74H695.316ZM703.967 200.856H703.973V207H703.049V205.968C702.813 206.344 702.507 206.634 702.131 206.838C701.755 207.042 701.333 207.144 700.865 207.144C700.309 207.144 699.805 207.004 699.353 206.724C698.901 206.444 698.547 206.06 698.291 205.572C698.035 205.08 697.907 204.532 697.907 203.928C697.907 203.324 698.035 202.778 698.291 202.29C698.547 201.798 698.901 201.412 699.353 201.132C699.805 200.852 700.309 200.712 700.865 200.712C701.333 200.712 701.753 200.814 702.125 201.018C702.501 201.222 702.807 201.512 703.043 201.888L703.007 198.6H703.967V200.856ZM700.955 206.28C701.347 206.28 701.699 206.178 702.011 205.974C702.327 205.77 702.573 205.49 702.749 205.134C702.925 204.774 703.013 204.372 703.013 203.928C703.013 203.484 702.925 203.084 702.749 202.728C702.573 202.368 702.327 202.086 702.011 201.882C701.699 201.678 701.347 201.576 700.955 201.576C700.567 201.576 700.217 201.678 699.905 201.882C699.597 202.086 699.355 202.368 699.179 202.728C699.003 203.084 698.915 203.484 698.915 203.928C698.915 204.372 699.003 204.774 699.179 205.134C699.355 205.49 699.597 205.77 699.905 205.974C700.217 206.178 700.567 206.28 700.955 206.28ZM708.087 199.53H705.339V198.6H711.819V199.53H709.083V207.024H708.087V199.53ZM714.444 200.712C714.908 200.712 715.314 200.798 715.662 200.97C716.014 201.138 716.286 201.384 716.478 201.708C716.67 202.032 716.766 202.422 716.766 202.878V207H715.83V206.088C715.642 206.432 715.372 206.694 715.02 206.874C714.672 207.054 714.254 207.144 713.766 207.144C713.362 207.144 713.002 207.07 712.686 206.922C712.374 206.77 712.13 206.56 711.954 206.292C711.782 206.024 711.696 205.718 711.696 205.374C711.696 205.054 711.776 204.76 711.936 204.492C712.1 204.22 712.326 203.998 712.614 203.826C712.902 203.654 713.228 203.55 713.592 203.514L715.386 203.334C715.518 203.322 715.622 203.266 715.698 203.166C715.778 203.066 715.818 202.922 715.818 202.734C715.818 202.49 715.758 202.276 715.638 202.092C715.522 201.908 715.358 201.766 715.146 201.666C714.938 201.566 714.696 201.516 714.42 201.516C714.148 201.516 713.9 201.562 713.676 201.654C713.452 201.746 713.27 201.872 713.13 202.032C712.99 202.192 712.908 202.368 712.884 202.56H711.948C711.984 202.22 712.116 201.91 712.344 201.63C712.572 201.346 712.87 201.122 713.238 200.958C713.606 200.794 714.008 200.712 714.444 200.712ZM713.946 206.394C714.31 206.394 714.634 206.324 714.918 206.184C715.202 206.04 715.422 205.84 715.578 205.584C715.738 205.324 715.818 205.03 715.818 204.702V204.006L713.724 204.222C713.404 204.254 713.146 204.372 712.95 204.576C712.754 204.78 712.656 205.028 712.656 205.32C712.656 205.528 712.71 205.714 712.818 205.878C712.926 206.038 713.078 206.164 713.274 206.256C713.47 206.348 713.694 206.394 713.946 206.394ZM721.672 200.796V201.798H721.45C720.89 201.798 720.45 201.966 720.13 202.302C719.81 202.638 719.65 203.11 719.65 203.718V207H718.69V200.856H719.65V202.092C719.822 201.676 720.062 201.356 720.37 201.132C720.682 200.908 721.054 200.796 721.486 200.796H721.672ZM727.307 200.856H728.237L728.225 206.514C728.225 207.046 728.111 207.502 727.883 207.882C727.659 208.266 727.335 208.558 726.911 208.758C726.491 208.962 725.995 209.064 725.423 209.064C724.899 209.064 724.431 208.976 724.019 208.8C723.611 208.628 723.285 208.386 723.041 208.074C722.797 207.762 722.653 207.402 722.609 206.994H723.569C723.621 207.234 723.731 207.448 723.899 207.636C724.067 207.828 724.281 207.976 724.541 208.08C724.805 208.188 725.099 208.242 725.423 208.242C725.995 208.242 726.443 208.09 726.767 207.786C727.095 207.486 727.259 207.062 727.259 206.514V206.088L727.277 205.458C727.045 205.786 726.749 206.04 726.389 206.22C726.033 206.396 725.635 206.484 725.195 206.484C724.675 206.484 724.209 206.362 723.797 206.118C723.389 205.874 723.069 205.534 722.837 205.098C722.609 204.662 722.495 204.166 722.495 203.61C722.495 203.054 722.609 202.558 722.837 202.122C723.069 201.686 723.389 201.346 723.797 201.102C724.209 200.858 724.675 200.736 725.195 200.736C725.643 200.736 726.049 200.83 726.413 201.018C726.777 201.202 727.075 201.464 727.307 201.804V200.856ZM725.369 205.644C725.737 205.644 726.065 205.56 726.353 205.392C726.641 205.224 726.865 204.986 727.025 204.678C727.189 204.37 727.271 204.014 727.271 203.61C727.271 203.206 727.189 202.85 727.025 202.542C726.865 202.234 726.641 201.996 726.353 201.828C726.065 201.66 725.737 201.576 725.369 201.576C725.005 201.576 724.681 201.662 724.397 201.834C724.113 202.002 723.893 202.24 723.737 202.548C723.581 202.852 723.503 203.206 723.503 203.61C723.503 204.014 723.581 204.37 723.737 204.678C723.893 204.982 724.113 205.22 724.397 205.392C724.681 205.56 725.005 205.644 725.369 205.644ZM735.615 204.162H730.743C730.779 204.582 730.889 204.954 731.073 205.278C731.257 205.602 731.499 205.854 731.799 206.034C732.099 206.214 732.439 206.304 732.819 206.304C733.075 206.304 733.321 206.264 733.557 206.184C733.793 206.104 733.999 205.992 734.175 205.848C734.351 205.704 734.477 205.54 734.553 205.356H735.477C735.409 205.692 735.243 205.996 734.979 206.268C734.719 206.54 734.393 206.754 734.001 206.91C733.613 207.066 733.199 207.144 732.759 207.144C732.179 207.144 731.659 207.006 731.199 206.73C730.743 206.454 730.387 206.072 730.131 205.584C729.875 205.092 729.747 204.536 729.747 203.916C729.747 203.312 729.877 202.766 730.137 202.278C730.397 201.79 730.755 201.408 731.211 201.132C731.671 200.852 732.187 200.712 732.759 200.712C733.303 200.712 733.791 200.852 734.223 201.132C734.659 201.408 734.999 201.792 735.243 202.284C735.491 202.772 735.615 203.32 735.615 203.928V204.162ZM732.771 201.558C732.231 201.558 731.783 201.72 731.427 202.044C731.071 202.368 730.851 202.81 730.767 203.37H734.613C734.529 202.814 734.323 202.374 733.995 202.05C733.671 201.722 733.263 201.558 732.771 201.558ZM738.832 207C738.388 207 738.036 206.882 737.776 206.646C737.52 206.41 737.392 206.084 737.392 205.668L737.386 201.708H736.306L736.312 200.856H736.978C737.13 200.856 737.252 200.808 737.344 200.712C737.44 200.616 737.488 200.494 737.488 200.346V199.32H738.352V200.856H739.834L739.828 201.708H738.346L738.352 205.608C738.352 205.776 738.4 205.908 738.496 206.004C738.596 206.1 738.728 206.148 738.892 206.148H739.828V207H738.832Z" fill="black"/>
<path fill-rule="evenodd" clip-rule="evenodd" d="M608 75H435C428.373 75 423 80.3726 423 87V116C423 122.627 428.373 128 435 128H608C614.627 128 620 122.627 620 116V87C620 80.3726 614.627 75 608 75Z" fill="url(#paint3_radial_0_1)"/>
<path d="M525 130L527.021 133.5H522.979L525 130ZM700.65 183V168.537H701.35V183H700.65ZM687 154.887H539V154.187H687V154.887ZM524.65 140.537V133.15H525.35V140.537H524.65ZM539 154.887C531.075 154.887 524.65 148.462 524.65 140.537H525.35C525.35 148.076 531.461 154.187 539 154.187V154.887ZM700.65 168.537C700.65 160.998 694.539 154.887 687 154.887V154.187C694.925 154.187 701.35 160.612 701.35 168.537H700.65Z" fill="black"/>
<path d="M247.497 225L248.994 228.241H246L247.497 225ZM346.482 275V261.111H347V275H346.482ZM336.372 248.472H257.866V247.824H336.372V248.472ZM247.238 235.185V227.917H247.756V235.185H247.238ZM257.866 248.472C251.996 248.472 247.238 242.523 247.238 235.185H247.756C247.756 242.166 252.282 247.824 257.866 247.824V248.472ZM346.482 261.111C346.482 254.131 341.956 248.472 336.372 248.472V247.824C342.241 247.824 347 253.773 347 261.111H346.482Z" fill="black"/>
<path d="M515 130L512.979 133.5H517.021L515 130ZM239.35 183V168.537H238.65V183H239.35ZM253 154.887H501V154.187H253V154.887ZM515.35 140.537V133.15H514.65V140.537H515.35ZM501 154.887C508.925 154.887 515.35 148.462 515.35 140.537H514.65C514.65 148.076 508.539 154.187 501 154.187V154.887ZM239.35 168.537C239.35 160.998 245.461 154.887 253 154.887V154.187C245.075 154.187 238.65 160.612 238.65 168.537H239.35Z" fill="black"/>
<path d="M515 130L512.979 133.5H517.021L515 130ZM364.35 183V168.537H363.65V183H364.35ZM378 154.887H501V154.187H378V154.887ZM515.35 140.537V133.15H514.65V140.537H515.35ZM501 154.887C508.925 154.887 515.35 148.462 515.35 140.537H514.65C514.65 148.076 508.539 154.187 501 154.187V154.887ZM364.35 168.537C364.35 160.998 370.461 154.887 378 154.887V154.187C370.075 154.187 363.65 160.612 363.65 168.537H364.35Z" fill="black"/>
<path d="M240.493 225L238.986 228.236H242L240.493 225ZM106.522 274V260.629H106V274H106.522ZM116.701 248.009H230.053V247.362H116.701V248.009ZM240.754 234.742V227.912H240.232V234.742H240.754ZM230.053 248.009C235.963 248.009 240.754 242.069 240.754 234.742H240.232C240.232 241.712 235.675 247.362 230.053 247.362V248.009ZM106.522 260.629C106.522 253.659 111.079 248.009 116.701 248.009V247.362C110.791 247.362 106 253.302 106 260.629H106.522Z" fill="black"/>
<path d="M520 130L517.979 133.5H522.021L520 130ZM520.35 183V133.15H519.65V183H520.35Z" fill="black"/>
<path d="M500.455 99.98C500.296 99.9427 500.077 99.9053 499.797 99.868C499.517 99.8213 499.232 99.798 498.943 99.798C498.523 99.798 498.178 99.882 497.907 100.05C497.646 100.218 497.44 100.437 497.291 100.708C497.142 100.969 497.039 101.263 496.983 101.59C496.927 101.907 496.899 102.22 496.899 102.528C496.899 103.004 496.96 103.415 497.081 103.76C497.202 104.096 497.361 104.371 497.557 104.586C497.762 104.801 497.996 104.959 498.257 105.062C498.518 105.155 498.794 105.202 499.083 105.202C499.279 105.202 499.466 105.193 499.643 105.174C499.83 105.146 499.998 105.118 500.147 105.09C500.306 105.053 500.455 105.011 500.595 104.964L500.819 105.902C500.623 105.958 500.441 106.005 500.273 106.042C500.105 106.079 499.904 106.112 499.671 106.14C499.447 106.168 499.204 106.182 498.943 106.182C498.43 106.182 497.972 106.117 497.571 105.986C497.17 105.855 496.829 105.645 496.549 105.356C496.278 105.067 496.068 104.689 495.919 104.222C495.779 103.755 495.709 103.186 495.709 102.514C495.709 101.861 495.798 101.301 495.975 100.834C496.162 100.358 496.404 99.9753 496.703 99.686C497.002 99.3873 497.342 99.168 497.725 99.028C498.117 98.888 498.523 98.818 498.943 98.818C499.167 98.818 499.382 98.832 499.587 98.86C499.802 98.8787 499.988 98.902 500.147 98.93C500.334 98.9673 500.511 99.0047 500.679 99.042L500.455 99.98ZM502.832 102.514C502.832 103.419 503.033 104.096 503.434 104.544C503.845 104.983 504.396 105.202 505.086 105.202C505.768 105.202 506.3 104.983 506.682 104.544C507.065 104.105 507.256 103.447 507.256 102.57C507.256 101.637 507.051 100.941 506.64 100.484C506.239 100.027 505.688 99.798 504.988 99.798C504.288 99.798 503.752 100.027 503.378 100.484C503.014 100.932 502.832 101.609 502.832 102.514ZM501.642 102.5C501.642 101.791 501.754 101.203 501.978 100.736C502.202 100.26 502.487 99.882 502.832 99.602C503.178 99.3127 503.546 99.112 503.938 99C504.34 98.8787 504.718 98.818 505.072 98.818C505.408 98.818 505.772 98.874 506.164 98.986C506.566 99.0887 506.934 99.28 507.27 99.56C507.606 99.8307 507.886 100.199 508.11 100.666C508.334 101.123 508.446 101.707 508.446 102.416C508.446 103.153 508.33 103.765 508.096 104.25C507.872 104.735 507.588 105.123 507.242 105.412C506.897 105.692 506.524 105.888 506.122 106C505.721 106.121 505.348 106.182 505.002 106.182C504.648 106.182 504.274 106.126 503.882 106.014C503.49 105.902 503.126 105.711 502.79 105.44C502.464 105.16 502.188 104.782 501.964 104.306C501.75 103.83 501.642 103.228 501.642 102.5ZM510.087 100.232C510.087 99.9147 510.059 99.532 510.003 99.084L511.053 98.944L511.207 99.826C511.459 99.6393 511.707 99.476 511.949 99.336C512.192 99.196 512.453 99.0747 512.733 98.972C513.013 98.8693 513.298 98.818 513.587 98.818C514.054 98.818 514.423 98.902 514.693 99.07C514.964 99.2287 515.165 99.504 515.295 99.896C515.678 99.6253 516.075 99.378 516.485 99.154C516.905 98.93 517.339 98.818 517.787 98.818C518.133 98.818 518.427 98.8647 518.669 98.958C518.912 99.042 519.108 99.1867 519.257 99.392C519.407 99.5973 519.514 99.868 519.579 100.204C519.645 100.54 519.677 100.96 519.677 101.464V106H518.557V101.59C518.557 101.31 518.553 101.063 518.543 100.848C518.534 100.624 518.501 100.437 518.445 100.288C518.389 100.129 518.296 100.008 518.165 99.924C518.044 99.84 517.867 99.798 517.633 99.798C517.419 99.798 517.213 99.8307 517.017 99.896C516.831 99.952 516.635 100.036 516.429 100.148C516.224 100.26 515.907 100.489 515.477 100.834V106H514.357V101.59C514.357 101.31 514.353 101.063 514.343 100.848C514.334 100.624 514.301 100.437 514.245 100.288C514.189 100.129 514.096 100.008 513.965 99.924C513.844 99.84 513.667 99.798 513.433 99.798C513.191 99.798 512.939 99.8493 512.677 99.952C512.416 100.055 512.169 100.176 511.935 100.316C511.702 100.456 511.459 100.619 511.207 100.806V106H510.087V100.232ZM521.668 100.232C521.668 99.9147 521.64 99.532 521.584 99.084L522.634 98.944L522.788 99.826C523.04 99.6393 523.287 99.476 523.53 99.336C523.772 99.196 524.034 99.0747 524.314 98.972C524.594 98.8693 524.878 98.818 525.168 98.818C525.634 98.818 526.003 98.902 526.274 99.07C526.544 99.2287 526.745 99.504 526.876 99.896C527.258 99.6253 527.655 99.378 528.066 99.154C528.486 98.93 528.92 98.818 529.368 98.818C529.713 98.818 530.007 98.8647 530.25 98.958C530.492 99.042 530.688 99.1867 530.838 99.392C530.987 99.5973 531.094 99.868 531.16 100.204C531.225 100.54 531.258 100.96 531.258 101.464V106H530.138V101.59C530.138 101.31 530.133 101.063 530.124 100.848C530.114 100.624 530.082 100.437 530.026 100.288C529.97 100.129 529.876 100.008 529.746 99.924C529.624 99.84 529.447 99.798 529.214 99.798C528.999 99.798 528.794 99.8307 528.598 99.896C528.411 99.952 528.215 100.036 528.01 100.148C527.804 100.26 527.487 100.489 527.058 100.834V106H525.938V101.59C525.938 101.31 525.933 101.063 525.924 100.848C525.914 100.624 525.882 100.437 525.826 100.288C525.77 100.129 525.676 100.008 525.546 99.924C525.424 99.84 525.247 99.798 525.014 99.798C524.771 99.798 524.519 99.8493 524.258 99.952C523.996 100.055 523.749 100.176 523.516 100.316C523.282 100.456 523.04 100.619 522.788 100.806V106H521.668V100.232ZM534.032 102.514C534.032 103.419 534.232 104.096 534.634 104.544C535.044 104.983 535.595 105.202 536.286 105.202C536.967 105.202 537.499 104.983 537.882 104.544C538.264 104.105 538.456 103.447 538.456 102.57C538.456 101.637 538.25 100.941 537.84 100.484C537.438 100.027 536.888 99.798 536.188 99.798C535.488 99.798 534.951 100.027 534.578 100.484C534.214 100.932 534.032 101.609 534.032 102.514ZM532.842 102.5C532.842 101.791 532.954 101.203 533.178 100.736C533.402 100.26 533.686 99.882 534.032 99.602C534.377 99.3127 534.746 99.112 535.138 99C535.539 98.8787 535.917 98.818 536.272 98.818C536.608 98.818 536.972 98.874 537.364 98.986C537.765 99.0887 538.134 99.28 538.47 99.56C538.806 99.8307 539.086 100.199 539.31 100.666C539.534 101.123 539.646 101.707 539.646 102.416C539.646 103.153 539.529 103.765 539.296 104.25C539.072 104.735 538.787 105.123 538.442 105.412C538.096 105.692 537.723 105.888 537.322 106C536.92 106.121 536.547 106.182 536.202 106.182C535.847 106.182 535.474 106.126 535.082 106.014C534.69 105.902 534.326 105.711 533.99 105.44C533.663 105.16 533.388 104.782 533.164 104.306C532.949 103.83 532.842 103.228 532.842 102.5ZM541.287 100.358C541.296 100.162 541.273 99.7373 541.217 99.084L542.253 98.944L542.407 99.84C542.687 99.6533 542.962 99.49 543.233 99.35C543.513 99.21 543.797 99.0887 544.087 98.986C544.376 98.874 544.656 98.818 544.927 98.818C545.309 98.818 545.627 98.8647 545.879 98.958C546.14 99.042 546.35 99.1867 546.509 99.392C546.667 99.5973 546.779 99.868 546.845 100.204C546.919 100.54 546.957 100.96 546.957 101.464V106H545.837V101.59C545.837 101.31 545.832 101.063 545.823 100.848C545.813 100.624 545.771 100.437 545.697 100.288C545.631 100.129 545.524 100.008 545.375 99.924C545.235 99.84 545.034 99.798 544.773 99.798C544.53 99.798 544.273 99.854 544.003 99.966C543.732 100.069 543.466 100.19 543.205 100.33C542.943 100.47 542.677 100.633 542.407 100.82V106H541.287V100.358Z" fill="white"/>
<defs>
<radialGradient id="paint0_radial_0_1" cx="0" cy="0" r="1" gradientUnits="userSpaceOnUse" gradientTransform="translate(296.731 313.588) scale(93.5816 144.344)">
<stop stop-color="#EB4857"/>
<stop offset="0.5" stop-color="#C611E0"/>
<stop offset="1" stop-color="#7F52FF"/>
</radialGradient>
<radialGradient id="paint1_radial_0_1" cx="0" cy="0" r="1" gradientUnits="userSpaceOnUse" gradientTransform="translate(57.7312 314.588) scale(93.5816 144.344)">
<stop stop-color="#EB4857"/>
<stop offset="0.5" stop-color="#C611E0"/>
<stop offset="1" stop-color="#7F52FF"/>
</radialGradient>
<radialGradient id="paint2_radial_0_1" cx="0" cy="0" r="1" gradientUnits="userSpaceOnUse" gradientTransform="translate(178.664 225.603) scale(116.977 148.045)">
<stop stop-color="#EB4857"/>
<stop offset="0.5" stop-color="#C611E0"/>
<stop offset="1" stop-color="#7F52FF"/>
</radialGradient>
<radialGradient id="paint3_radial_0_1" cx="0" cy="0" r="1" gradientUnits="userSpaceOnUse" gradientTransform="translate(422.449 128.799) scale(192.038 196.159)">
<stop stop-color="#EB4857"/>
<stop offset="0.5" stop-color="#C611E0"/>
<stop offset="1" stop-color="#7F52FF"/>
</radialGradient>
</defs>
</svg>
