<svg width="750" height="300" viewBox="0 0 750 300" fill="none" xmlns="http://www.w3.org/2000/svg">
<rect width="750" height="300" fill="white"/>
<path d="M530 138H434C427.373 138 422 143.373 422 150V166C422 172.627 427.373 178 434 178H530C536.627 178 542 172.627 542 166V150C542 143.373 536.627 138 530 138Z" fill="#F2F2F2"/>
<path d="M468.85 155.712C469.31 155.712 469.712 155.812 470.056 156.012C470.4 156.208 470.664 156.488 470.848 156.852C471.036 157.216 471.13 157.64 471.13 158.124V162H470.17V158.196C470.17 157.672 470.034 157.264 469.762 156.972C469.494 156.676 469.12 156.528 468.64 156.528C468.296 156.528 467.994 156.602 467.734 156.75C467.474 156.894 467.272 157.102 467.128 157.374C466.988 157.646 466.918 157.966 466.918 158.334V162H465.958V155.856H466.882V156.798C467.078 156.438 467.342 156.168 467.674 155.988C468.006 155.804 468.398 155.712 468.85 155.712ZM475.376 155.712C475.84 155.712 476.246 155.798 476.594 155.97C476.946 156.138 477.218 156.384 477.41 156.708C477.602 157.032 477.698 157.422 477.698 157.878V162H476.762V161.088C476.574 161.432 476.304 161.694 475.952 161.874C475.604 162.054 475.186 162.144 474.698 162.144C474.294 162.144 473.934 162.07 473.618 161.922C473.306 161.77 473.062 161.56 472.886 161.292C472.714 161.024 472.628 160.718 472.628 160.374C472.628 160.054 472.708 159.76 472.868 159.492C473.032 159.22 473.258 158.998 473.546 158.826C473.834 158.654 474.16 158.55 474.524 158.514L476.318 158.334C476.45 158.322 476.554 158.266 476.63 158.166C476.71 158.066 476.75 157.922 476.75 157.734C476.75 157.49 476.69 157.276 476.57 157.092C476.454 156.908 476.29 156.766 476.078 156.666C475.87 156.566 475.628 156.516 475.352 156.516C475.08 156.516 474.832 156.562 474.608 156.654C474.384 156.746 474.202 156.872 474.062 157.032C473.922 157.192 473.84 157.368 473.816 157.56H472.88C472.916 157.22 473.048 156.91 473.276 156.63C473.504 156.346 473.802 156.122 474.17 155.958C474.538 155.794 474.94 155.712 475.376 155.712ZM474.878 161.394C475.242 161.394 475.566 161.324 475.85 161.184C476.134 161.04 476.354 160.84 476.51 160.584C476.67 160.324 476.75 160.03 476.75 159.702V159.006L474.656 159.222C474.336 159.254 474.078 159.372 473.882 159.576C473.686 159.78 473.588 160.028 473.588 160.32C473.588 160.528 473.642 160.714 473.75 160.878C473.858 161.038 474.01 161.164 474.206 161.256C474.402 161.348 474.626 161.394 474.878 161.394ZM481.272 162C480.828 162 480.476 161.882 480.216 161.646C479.96 161.41 479.832 161.084 479.832 160.668L479.826 156.708H478.746L478.752 155.856H479.418C479.57 155.856 479.692 155.808 479.784 155.712C479.88 155.616 479.928 155.494 479.928 155.346V154.32H480.792V155.856H482.274L482.268 156.708H480.786L480.792 160.608C480.792 160.776 480.84 160.908 480.936 161.004C481.036 161.1 481.168 161.148 481.332 161.148H482.268V162H481.272ZM484.847 162H483.887V155.856H484.847V162ZM483.821 154.74V153.6H484.913V154.74H483.821ZM489.551 162H488.531L486.137 155.856H487.181L489.077 160.878L490.937 155.856H491.945L489.551 162ZM498.539 159.162H493.667C493.703 159.582 493.813 159.954 493.997 160.278C494.181 160.602 494.423 160.854 494.723 161.034C495.023 161.214 495.363 161.304 495.743 161.304C495.999 161.304 496.245 161.264 496.481 161.184C496.717 161.104 496.923 160.992 497.099 160.848C497.275 160.704 497.401 160.54 497.477 160.356H498.401C498.333 160.692 498.167 160.996 497.903 161.268C497.643 161.54 497.317 161.754 496.925 161.91C496.537 162.066 496.123 162.144 495.683 162.144C495.103 162.144 494.583 162.006 494.123 161.73C493.667 161.454 493.311 161.072 493.055 160.584C492.799 160.092 492.671 159.536 492.671 158.916C492.671 158.312 492.801 157.766 493.061 157.278C493.321 156.79 493.679 156.408 494.135 156.132C494.595 155.852 495.111 155.712 495.683 155.712C496.227 155.712 496.715 155.852 497.147 156.132C497.583 156.408 497.923 156.792 498.167 157.284C498.415 157.772 498.539 158.32 498.539 158.928V159.162ZM495.695 156.558C495.155 156.558 494.707 156.72 494.351 157.044C493.995 157.368 493.775 157.81 493.691 158.37H497.537C497.453 157.814 497.247 157.374 496.919 157.05C496.595 156.722 496.187 156.558 495.695 156.558Z" fill="black"/>
<path d="M348.4 229H271.6C266.298 229 262 234.238 262 240.7V256.3C262 262.762 266.298 268 271.6 268H348.4C353.702 268 358 262.762 358 256.3V240.7C358 234.238 353.702 229 348.4 229Z" fill="url(#paint0_radial_2015_45)"/>
<path d="M109.4 230H32.6C27.2981 230 23 235.238 23 241.7V257.3C23 263.762 27.2981 269 32.6 269H109.4C114.702 269 119 263.762 119 257.3V241.7C119 235.238 114.702 230 109.4 230Z" fill="url(#paint1_radial_2015_45)"/>
<path d="M68.1436 246.804V253.874C68.1436 254.714 67.9896 255.405 67.6816 255.946C67.3736 256.497 66.893 256.959 66.2396 257.332L65.6656 256.338C65.9456 256.17 66.1743 255.983 66.3516 255.778C66.529 255.582 66.6643 255.367 66.7576 255.134C66.8603 254.91 66.9303 254.677 66.9676 254.434C67.005 254.201 67.0236 253.963 67.0236 253.72V246.972L68.1436 246.804ZM66.7996 244.942C66.7996 244.727 66.8696 244.55 67.0096 244.41C67.159 244.261 67.341 244.186 67.5556 244.186C67.7796 244.186 67.9663 244.261 68.1156 244.41C68.2743 244.55 68.3536 244.727 68.3536 244.942C68.3536 245.157 68.2743 245.339 68.1156 245.488C67.9663 245.628 67.7796 245.698 67.5556 245.698C67.341 245.698 67.159 245.628 67.0096 245.488C66.8696 245.339 66.7996 245.157 66.7996 244.942ZM73.9625 248.106C73.5705 247.985 73.2205 247.905 72.9125 247.868C72.6138 247.821 72.3385 247.798 72.0865 247.798C71.7598 247.798 71.4845 247.877 71.2605 248.036C71.0458 248.195 70.9385 248.4 70.9385 248.652C70.9478 248.876 71.0458 249.067 71.2325 249.226C71.4192 249.385 71.6338 249.529 71.8765 249.66C72.1285 249.781 72.4038 249.917 72.7025 250.066C73.0105 250.215 73.2952 250.383 73.5565 250.57C73.8272 250.757 74.0465 250.981 74.2145 251.242C74.3825 251.503 74.4712 251.816 74.4805 252.18C74.4712 252.572 74.3825 252.899 74.2145 253.16C74.0558 253.412 73.8458 253.617 73.5845 253.776C73.3325 253.925 73.0572 254.028 72.7585 254.084C72.4598 254.149 72.1798 254.182 71.9185 254.182C71.5825 254.182 71.2325 254.163 70.8685 254.126C70.5138 254.089 70.1312 254.009 69.7205 253.888L69.9305 252.88C70.3505 252.992 70.7332 253.076 71.0785 253.132C71.4238 253.179 71.7085 253.202 71.9325 253.202C72.1005 253.202 72.2638 253.183 72.4225 253.146C72.5905 253.109 72.7398 253.057 72.8705 252.992C73.0012 252.917 73.1038 252.824 73.1785 252.712C73.2625 252.6 73.3045 252.474 73.3045 252.334C73.2952 252.073 73.2065 251.853 73.0385 251.676C72.8705 251.489 72.6512 251.326 72.3805 251.186C72.1192 251.037 71.8345 250.892 71.5265 250.752C71.2278 250.603 70.9432 250.435 70.6725 250.248C70.4112 250.052 70.1918 249.823 70.0145 249.562C69.8372 249.291 69.7485 248.96 69.7485 248.568C69.7485 248.288 69.8185 248.041 69.9585 247.826C70.1078 247.602 70.2945 247.42 70.5185 247.28C70.7518 247.131 71.0038 247.019 71.2745 246.944C71.5545 246.86 71.8252 246.818 72.0865 246.818C72.3572 246.818 72.6605 246.841 72.9965 246.888C73.3325 246.925 73.7198 247 74.1585 247.112L73.9625 248.106Z" fill="white"/>
<path d="M286.68 246.958H287.856L288.682 250.136C288.756 250.407 288.822 250.696 288.878 251.004C288.943 251.303 289.004 251.583 289.06 251.844C289.116 252.152 289.176 252.455 289.242 252.754H289.256C289.321 252.455 289.396 252.152 289.48 251.844C289.554 251.583 289.634 251.303 289.718 251.004C289.802 250.696 289.886 250.407 289.97 250.136L290.964 246.958H292.462L293.26 250.136C293.325 250.407 293.39 250.696 293.456 251.004C293.53 251.303 293.591 251.583 293.638 251.844C293.694 252.152 293.75 252.455 293.806 252.754H293.82C293.904 252.446 293.992 252.138 294.086 251.83C294.16 251.569 294.244 251.289 294.338 250.99C294.431 250.682 294.52 250.397 294.604 250.136L295.584 246.958H296.746L294.436 254H293.19L292.182 250.136C292.088 249.781 292.009 249.464 291.944 249.184C291.888 248.895 291.836 248.652 291.79 248.456C291.743 248.223 291.701 248.017 291.664 247.84H291.636C291.598 248.017 291.552 248.223 291.496 248.456C291.449 248.652 291.384 248.895 291.3 249.184C291.216 249.464 291.122 249.781 291.02 250.136L289.83 254H288.584L286.68 246.958ZM301.787 250.766C301.601 250.775 301.423 250.785 301.255 250.794C301.087 250.803 300.919 250.817 300.751 250.836C300.593 250.845 300.448 250.859 300.317 250.878C299.645 250.962 299.169 251.111 298.889 251.326C298.609 251.531 298.469 251.83 298.469 252.222C298.469 252.549 298.567 252.796 298.763 252.964C298.969 253.123 299.235 253.202 299.561 253.202C300.009 253.202 300.406 253.127 300.751 252.978C301.106 252.819 301.451 252.614 301.787 252.362V250.766ZM301.773 253.342C301.335 253.594 300.924 253.799 300.541 253.958C300.168 254.107 299.762 254.182 299.323 254.182C298.698 254.182 298.199 254.033 297.825 253.734C297.461 253.426 297.279 252.922 297.279 252.222C297.279 251.858 297.373 251.541 297.559 251.27C297.746 250.999 297.989 250.775 298.287 250.598C298.595 250.411 298.941 250.267 299.323 250.164C299.706 250.061 300.098 249.996 300.499 249.968C300.667 249.949 300.887 249.935 301.157 249.926C301.428 249.907 301.638 249.893 301.787 249.884C301.787 249.557 301.778 249.268 301.759 249.016C301.741 248.755 301.685 248.535 301.591 248.358C301.498 248.171 301.358 248.031 301.171 247.938C300.994 247.845 300.737 247.798 300.401 247.798C300.131 247.798 299.869 247.817 299.617 247.854C299.365 247.882 299.141 247.915 298.945 247.952C298.712 247.999 298.497 248.05 298.301 248.106L298.077 247.14C298.311 247.084 298.563 247.033 298.833 246.986C299.067 246.939 299.337 246.902 299.645 246.874C299.953 246.837 300.285 246.818 300.639 246.818C301.115 246.818 301.498 246.888 301.787 247.028C302.086 247.168 302.315 247.359 302.473 247.602C302.641 247.835 302.753 248.106 302.809 248.414C302.875 248.713 302.907 249.03 302.907 249.366V252.726C302.907 252.857 302.907 252.997 302.907 253.146C302.917 253.286 302.926 253.426 302.935 253.566C302.954 253.706 302.973 253.851 302.991 254L301.913 254.112L301.773 253.342ZM308.689 248.106C308.297 247.985 307.947 247.905 307.639 247.868C307.34 247.821 307.065 247.798 306.813 247.798C306.486 247.798 306.211 247.877 305.987 248.036C305.772 248.195 305.665 248.4 305.665 248.652C305.674 248.876 305.772 249.067 305.959 249.226C306.146 249.385 306.36 249.529 306.603 249.66C306.855 249.781 307.13 249.917 307.429 250.066C307.737 250.215 308.022 250.383 308.283 250.57C308.554 250.757 308.773 250.981 308.941 251.242C309.109 251.503 309.198 251.816 309.207 252.18C309.198 252.572 309.109 252.899 308.941 253.16C308.782 253.412 308.572 253.617 308.311 253.776C308.059 253.925 307.784 254.028 307.485 254.084C307.186 254.149 306.906 254.182 306.645 254.182C306.309 254.182 305.959 254.163 305.595 254.126C305.24 254.089 304.858 254.009 304.447 253.888L304.657 252.88C305.077 252.992 305.46 253.076 305.805 253.132C306.15 253.179 306.435 253.202 306.659 253.202C306.827 253.202 306.99 253.183 307.149 253.146C307.317 253.109 307.466 253.057 307.597 252.992C307.728 252.917 307.83 252.824 307.905 252.712C307.989 252.6 308.031 252.474 308.031 252.334C308.022 252.073 307.933 251.853 307.765 251.676C307.597 251.489 307.378 251.326 307.107 251.186C306.846 251.037 306.561 250.892 306.253 250.752C305.954 250.603 305.67 250.435 305.399 250.248C305.138 250.052 304.918 249.823 304.741 249.562C304.564 249.291 304.475 248.96 304.475 248.568C304.475 248.288 304.545 248.041 304.685 247.826C304.834 247.602 305.021 247.42 305.245 247.28C305.478 247.131 305.73 247.019 306.001 246.944C306.281 246.86 306.552 246.818 306.813 246.818C307.084 246.818 307.387 246.841 307.723 246.888C308.059 246.925 308.446 247 308.885 247.112L308.689 248.106ZM310.733 248.232C310.733 247.915 310.705 247.532 310.649 247.084L311.699 246.944L311.853 247.826C312.105 247.639 312.352 247.476 312.595 247.336C312.838 247.196 313.099 247.075 313.379 246.972C313.659 246.869 313.944 246.818 314.233 246.818C314.7 246.818 315.068 246.902 315.339 247.07C315.61 247.229 315.81 247.504 315.941 247.896C316.324 247.625 316.72 247.378 317.131 247.154C317.551 246.93 317.985 246.818 318.433 246.818C318.778 246.818 319.072 246.865 319.315 246.958C319.558 247.042 319.754 247.187 319.903 247.392C320.052 247.597 320.16 247.868 320.225 248.204C320.29 248.54 320.323 248.96 320.323 249.464V254H319.203V249.59C319.203 249.31 319.198 249.063 319.189 248.848C319.18 248.624 319.147 248.437 319.091 248.288C319.035 248.129 318.942 248.008 318.811 247.924C318.69 247.84 318.512 247.798 318.279 247.798C318.064 247.798 317.859 247.831 317.663 247.896C317.476 247.952 317.28 248.036 317.075 248.148C316.87 248.26 316.552 248.489 316.123 248.834V254H315.003V249.59C315.003 249.31 314.998 249.063 314.989 248.848C314.98 248.624 314.947 248.437 314.891 248.288C314.835 248.129 314.742 248.008 314.611 247.924C314.49 247.84 314.312 247.798 314.079 247.798C313.836 247.798 313.584 247.849 313.323 247.952C313.062 248.055 312.814 248.176 312.581 248.316C312.348 248.456 312.105 248.619 311.853 248.806V254H310.733V248.232ZM324.665 244.452V251.018C324.665 251.569 324.614 252.04 324.511 252.432C324.418 252.815 324.222 253.123 323.923 253.356C323.708 253.524 323.428 253.687 323.083 253.846C322.747 253.995 322.299 254.107 321.739 254.182L321.585 253.188C322.024 253.113 322.369 253.02 322.621 252.908C322.882 252.787 323.074 252.642 323.195 252.474C323.326 252.306 323.405 252.101 323.433 251.858C323.47 251.615 323.489 251.331 323.489 251.004V244.452H324.665ZM330.55 248.106C330.158 247.985 329.808 247.905 329.5 247.868C329.202 247.821 328.926 247.798 328.674 247.798C328.348 247.798 328.072 247.877 327.848 248.036C327.634 248.195 327.526 248.4 327.526 248.652C327.536 248.876 327.634 249.067 327.82 249.226C328.007 249.385 328.222 249.529 328.464 249.66C328.716 249.781 328.992 249.917 329.29 250.066C329.598 250.215 329.883 250.383 330.144 250.57C330.415 250.757 330.634 250.981 330.802 251.242C330.97 251.503 331.059 251.816 331.068 252.18C331.059 252.572 330.97 252.899 330.802 253.16C330.644 253.412 330.434 253.617 330.172 253.776C329.92 253.925 329.645 254.028 329.346 254.084C329.048 254.149 328.768 254.182 328.506 254.182C328.17 254.182 327.82 254.163 327.456 254.126C327.102 254.089 326.719 254.009 326.308 253.888L326.518 252.88C326.938 252.992 327.321 253.076 327.666 253.132C328.012 253.179 328.296 253.202 328.52 253.202C328.688 253.202 328.852 253.183 329.01 253.146C329.178 253.109 329.328 253.057 329.458 252.992C329.589 252.917 329.692 252.824 329.766 252.712C329.85 252.6 329.892 252.474 329.892 252.334C329.883 252.073 329.794 251.853 329.626 251.676C329.458 251.489 329.239 251.326 328.968 251.186C328.707 251.037 328.422 250.892 328.114 250.752C327.816 250.603 327.531 250.435 327.26 250.248C326.999 250.052 326.78 249.823 326.602 249.562C326.425 249.291 326.336 248.96 326.336 248.568C326.336 248.288 326.406 248.041 326.546 247.826C326.696 247.602 326.882 247.42 327.106 247.28C327.34 247.131 327.592 247.019 327.862 246.944C328.142 246.86 328.413 246.818 328.674 246.818C328.945 246.818 329.248 246.841 329.584 246.888C329.92 246.925 330.308 247 330.746 247.112L330.55 248.106Z" fill="white"/>
<path d="M252 140H156C149.373 140 144 145.373 144 152V168C144 174.627 149.373 180 156 180H252C258.627 180 264 174.627 264 168V152C264 145.373 258.627 140 252 140Z" fill="url(#paint2_radial_2015_45)"/>
<path d="M190.694 156.958H191.87L192.696 160.136C192.771 160.407 192.836 160.696 192.892 161.004C192.958 161.303 193.018 161.583 193.074 161.844C193.13 162.152 193.191 162.455 193.256 162.754H193.27C193.336 162.455 193.41 162.152 193.494 161.844C193.569 161.583 193.648 161.303 193.732 161.004C193.816 160.696 193.9 160.407 193.984 160.136L194.978 156.958H196.476L197.274 160.136C197.34 160.407 197.405 160.696 197.47 161.004C197.545 161.303 197.606 161.583 197.652 161.844C197.708 162.152 197.764 162.455 197.82 162.754H197.834C197.918 162.446 198.007 162.138 198.1 161.83C198.175 161.569 198.259 161.289 198.352 160.99C198.446 160.682 198.534 160.397 198.618 160.136L199.598 156.958H200.76L198.45 164H197.204L196.196 160.136C196.103 159.781 196.024 159.464 195.958 159.184C195.902 158.895 195.851 158.652 195.804 158.456C195.758 158.223 195.716 158.017 195.678 157.84H195.65C195.613 158.017 195.566 158.223 195.51 158.456C195.464 158.652 195.398 158.895 195.314 159.184C195.23 159.464 195.137 159.781 195.034 160.136L193.844 164H192.598L190.694 156.958ZM207.158 163.832C206.944 163.897 206.72 163.953 206.486 164C206.262 164.047 206.01 164.089 205.73 164.126C205.46 164.163 205.175 164.182 204.876 164.182C204.41 164.182 203.976 164.117 203.574 163.986C203.173 163.855 202.823 163.645 202.524 163.356C202.226 163.067 201.988 162.693 201.81 162.236C201.642 161.769 201.558 161.2 201.558 160.528C201.558 159.921 201.642 159.389 201.81 158.932C201.978 158.465 202.207 158.078 202.496 157.77C202.795 157.453 203.14 157.215 203.532 157.056C203.934 156.897 204.368 156.818 204.834 156.818C205.292 156.818 205.688 156.907 206.024 157.084C206.36 157.261 206.636 157.504 206.85 157.812C207.074 158.111 207.238 158.465 207.34 158.876C207.452 159.277 207.508 159.702 207.508 160.15L207.298 160.766H202.776C202.776 161.055 202.814 161.345 202.888 161.634C202.963 161.923 203.089 162.185 203.266 162.418C203.453 162.651 203.691 162.843 203.98 162.992C204.279 163.132 204.648 163.202 205.086 163.202C205.366 163.202 205.623 163.188 205.856 163.16C206.09 163.123 206.29 163.085 206.458 163.048C206.636 163.001 206.799 162.95 206.948 162.894L207.158 163.832ZM206.346 159.87C206.346 159.805 206.332 159.66 206.304 159.436C206.276 159.212 206.211 158.979 206.108 158.736C206.006 158.493 205.847 158.279 205.632 158.092C205.418 157.896 205.133 157.798 204.778 157.798C204.386 157.798 204.064 157.882 203.812 158.05C203.56 158.209 203.36 158.4 203.21 158.624C203.061 158.848 202.958 159.077 202.902 159.31C202.846 159.543 202.818 159.73 202.818 159.87H206.346ZM209.018 153.514L210.138 153.388V157.56C210.344 157.42 210.558 157.299 210.782 157.196C210.969 157.103 211.179 157.019 211.412 156.944C211.646 156.86 211.879 156.818 212.112 156.818C212.495 156.818 212.854 156.893 213.19 157.042C213.536 157.191 213.834 157.415 214.086 157.714C214.348 158.013 214.553 158.391 214.702 158.848C214.852 159.305 214.926 159.847 214.926 160.472C214.926 161.163 214.828 161.746 214.632 162.222C214.446 162.689 214.189 163.067 213.862 163.356C213.545 163.645 213.181 163.855 212.77 163.986C212.36 164.117 211.94 164.182 211.51 164.182C211.081 164.182 210.708 164.149 210.39 164.084C210.082 164.028 209.826 163.963 209.62 163.888C209.378 163.795 209.177 163.692 209.018 163.58V153.514ZM210.138 162.964C210.26 163.011 210.39 163.053 210.53 163.09C210.67 163.118 210.82 163.146 210.978 163.174C211.146 163.193 211.324 163.202 211.51 163.202C211.94 163.202 212.299 163.141 212.588 163.02C212.878 162.899 213.106 162.721 213.274 162.488C213.442 162.255 213.559 161.975 213.624 161.648C213.699 161.312 213.736 160.939 213.736 160.528C213.736 160.201 213.699 159.875 213.624 159.548C213.559 159.221 213.452 158.932 213.302 158.68C213.153 158.419 212.966 158.209 212.742 158.05C212.528 157.882 212.276 157.798 211.986 157.798C211.79 157.798 211.585 157.84 211.37 157.924C211.156 157.999 210.955 158.087 210.768 158.19C210.554 158.302 210.344 158.428 210.138 158.568V162.964Z" fill="white"/>
<path d="M346 138H310C303.373 138 298 143.373 298 150V166C298 172.627 303.373 178 310 178H346C352.627 178 358 172.627 358 166V150C358 143.373 352.627 138 346 138Z" fill="#F2F2F2"/>
<path d="M714 138H618C611.373 138 606 143.373 606 150V166C606 172.627 611.373 178 618 178H714C720.627 178 726 172.627 726 166V150C726 143.373 720.627 138 714 138Z" fill="#F2F2F2"/>
<path d="M317.486 162.92V162.008H318.374C318.538 162.008 318.668 161.958 318.764 161.858C318.864 161.758 318.914 161.626 318.914 161.462V154.856H319.874V161.54C319.874 161.816 319.814 162.058 319.694 162.266C319.578 162.474 319.41 162.634 319.19 162.746C318.974 162.862 318.722 162.92 318.434 162.92H317.486ZM318.848 153.74V152.6H319.94V153.74H318.848ZM324.506 161H323.486L321.092 154.856H322.136L324.032 159.878L325.892 154.856H326.9L324.506 161ZM335.034 154.712C335.482 154.712 335.874 154.814 336.21 155.018C336.55 155.218 336.81 155.5 336.99 155.864C337.174 156.228 337.266 156.648 337.266 157.124V161H336.306V157.166C336.306 156.646 336.182 156.244 335.934 155.96C335.69 155.672 335.342 155.528 334.89 155.528C334.546 155.528 334.248 155.61 333.996 155.774C333.744 155.934 333.55 156.164 333.414 156.464C333.278 156.764 333.21 157.114 333.21 157.514V161H332.25V157.166C332.25 156.65 332.122 156.248 331.866 155.96C331.61 155.672 331.254 155.528 330.798 155.528C330.454 155.528 330.158 155.61 329.91 155.774C329.666 155.934 329.478 156.164 329.346 156.464C329.218 156.764 329.154 157.114 329.154 157.514V161H328.194V154.856H329.118V155.762C329.31 155.426 329.562 155.168 329.874 154.988C330.19 154.804 330.556 154.712 330.972 154.712C331.42 154.712 331.818 154.82 332.166 155.036C332.514 155.252 332.778 155.55 332.958 155.93C333.166 155.546 333.448 155.248 333.804 155.036C334.164 154.82 334.574 154.712 335.034 154.712Z" fill="black"/>
<path d="M629.944 155.712C630.408 155.712 630.814 155.798 631.162 155.97C631.514 156.138 631.786 156.384 631.978 156.708C632.17 157.032 632.266 157.422 632.266 157.878V162H631.33V161.088C631.142 161.432 630.872 161.694 630.52 161.874C630.172 162.054 629.754 162.144 629.266 162.144C628.862 162.144 628.502 162.07 628.186 161.922C627.874 161.77 627.63 161.56 627.454 161.292C627.282 161.024 627.196 160.718 627.196 160.374C627.196 160.054 627.276 159.76 627.436 159.492C627.6 159.22 627.826 158.998 628.114 158.826C628.402 158.654 628.728 158.55 629.092 158.514L630.886 158.334C631.018 158.322 631.122 158.266 631.198 158.166C631.278 158.066 631.318 157.922 631.318 157.734C631.318 157.49 631.258 157.276 631.138 157.092C631.022 156.908 630.858 156.766 630.646 156.666C630.438 156.566 630.196 156.516 629.92 156.516C629.648 156.516 629.4 156.562 629.176 156.654C628.952 156.746 628.77 156.872 628.63 157.032C628.49 157.192 628.408 157.368 628.384 157.56H627.448C627.484 157.22 627.616 156.91 627.844 156.63C628.072 156.346 628.37 156.122 628.738 155.958C629.106 155.794 629.508 155.712 629.944 155.712ZM629.446 161.394C629.81 161.394 630.134 161.324 630.418 161.184C630.702 161.04 630.922 160.84 631.078 160.584C631.238 160.324 631.318 160.03 631.318 159.702V159.006L629.224 159.222C628.904 159.254 628.646 159.372 628.45 159.576C628.254 159.78 628.156 160.028 628.156 160.32C628.156 160.528 628.21 160.714 628.318 160.878C628.426 161.038 628.578 161.164 628.774 161.256C628.97 161.348 629.194 161.394 629.446 161.394ZM637.082 155.712C637.542 155.712 637.944 155.812 638.288 156.012C638.632 156.208 638.896 156.488 639.08 156.852C639.268 157.216 639.362 157.64 639.362 158.124V162H638.402V158.196C638.402 157.672 638.266 157.264 637.994 156.972C637.726 156.676 637.352 156.528 636.872 156.528C636.528 156.528 636.226 156.602 635.966 156.75C635.706 156.894 635.504 157.102 635.36 157.374C635.22 157.646 635.15 157.966 635.15 158.334V162H634.19V155.856H635.114V156.798C635.31 156.438 635.574 156.168 635.906 155.988C636.238 155.804 636.63 155.712 637.082 155.712ZM646.842 155.856H646.848V162H645.924V160.968C645.688 161.344 645.382 161.634 645.006 161.838C644.63 162.042 644.208 162.144 643.74 162.144C643.184 162.144 642.68 162.004 642.228 161.724C641.776 161.444 641.422 161.06 641.166 160.572C640.91 160.08 640.782 159.532 640.782 158.928C640.782 158.324 640.91 157.778 641.166 157.29C641.422 156.798 641.776 156.412 642.228 156.132C642.68 155.852 643.184 155.712 643.74 155.712C644.208 155.712 644.628 155.814 645 156.018C645.376 156.222 645.682 156.512 645.918 156.888L645.882 153.6H646.842V155.856ZM643.83 161.28C644.222 161.28 644.574 161.178 644.886 160.974C645.202 160.77 645.448 160.49 645.624 160.134C645.8 159.774 645.888 159.372 645.888 158.928C645.888 158.484 645.8 158.084 645.624 157.728C645.448 157.368 645.202 157.086 644.886 156.882C644.574 156.678 644.222 156.576 643.83 156.576C643.442 156.576 643.092 156.678 642.78 156.882C642.472 157.086 642.23 157.368 642.054 157.728C641.878 158.084 641.79 158.484 641.79 158.928C641.79 159.372 641.878 159.774 642.054 160.134C642.23 160.49 642.472 160.77 642.78 160.974C643.092 161.178 643.442 161.28 643.83 161.28ZM651.844 155.796V156.798H651.622C651.062 156.798 650.622 156.966 650.302 157.302C649.982 157.638 649.822 158.11 649.822 158.718V162H648.862V155.856H649.822V157.092C649.994 156.676 650.234 156.356 650.542 156.132C650.854 155.908 651.226 155.796 651.658 155.796H651.844ZM655.702 162.144C655.118 162.144 654.592 162.006 654.124 161.73C653.656 161.45 653.288 161.066 653.02 160.578C652.752 160.09 652.618 159.54 652.618 158.928C652.618 158.316 652.752 157.766 653.02 157.278C653.288 156.79 653.658 156.408 654.13 156.132C654.602 155.852 655.13 155.712 655.714 155.712C656.298 155.712 656.826 155.852 657.298 156.132C657.77 156.408 658.14 156.79 658.408 157.278C658.676 157.766 658.81 158.316 658.81 158.928C658.81 159.54 658.674 160.09 658.402 160.578C658.134 161.066 657.764 161.45 657.292 161.73C656.82 162.006 656.29 162.144 655.702 162.144ZM655.714 161.256C656.114 161.256 656.472 161.16 656.788 160.968C657.104 160.772 657.352 160.498 657.532 160.146C657.712 159.794 657.802 159.388 657.802 158.928C657.802 158.468 657.712 158.062 657.532 157.71C657.352 157.354 657.104 157.08 656.788 156.888C656.472 156.692 656.114 156.594 655.714 156.594C655.314 156.594 654.956 156.692 654.64 156.888C654.324 157.08 654.076 157.354 653.896 157.71C653.716 158.062 653.626 158.468 653.626 158.928C653.626 159.388 653.716 159.794 653.896 160.146C654.076 160.498 654.324 160.772 654.64 160.968C654.956 161.16 655.314 161.256 655.714 161.256ZM661.342 162H660.382V155.856H661.342V162ZM660.316 154.74V153.6H661.408V154.74H660.316ZM668.967 155.856H668.973V162H668.049V160.968C667.813 161.344 667.507 161.634 667.131 161.838C666.755 162.042 666.333 162.144 665.865 162.144C665.309 162.144 664.805 162.004 664.353 161.724C663.901 161.444 663.547 161.06 663.291 160.572C663.035 160.08 662.907 159.532 662.907 158.928C662.907 158.324 663.035 157.778 663.291 157.29C663.547 156.798 663.901 156.412 664.353 156.132C664.805 155.852 665.309 155.712 665.865 155.712C666.333 155.712 666.753 155.814 667.125 156.018C667.501 156.222 667.807 156.512 668.043 156.888L668.007 153.6H668.967V155.856ZM665.955 161.28C666.347 161.28 666.699 161.178 667.011 160.974C667.327 160.77 667.573 160.49 667.749 160.134C667.925 159.774 668.013 159.372 668.013 158.928C668.013 158.484 667.925 158.084 667.749 157.728C667.573 157.368 667.327 157.086 667.011 156.882C666.699 156.678 666.347 156.576 665.955 156.576C665.567 156.576 665.217 156.678 664.905 156.882C664.597 157.086 664.355 157.368 664.179 157.728C664.003 158.084 663.915 158.484 663.915 158.928C663.915 159.372 664.003 159.774 664.179 160.134C664.355 160.49 664.597 160.77 664.905 160.974C665.217 161.178 665.567 161.28 665.955 161.28ZM673.087 154.53H670.339V153.6H676.819V154.53H674.083V162.024H673.087V154.53ZM679.444 155.712C679.908 155.712 680.314 155.798 680.662 155.97C681.014 156.138 681.286 156.384 681.478 156.708C681.67 157.032 681.766 157.422 681.766 157.878V162H680.83V161.088C680.642 161.432 680.372 161.694 680.02 161.874C679.672 162.054 679.254 162.144 678.766 162.144C678.362 162.144 678.002 162.07 677.686 161.922C677.374 161.77 677.13 161.56 676.954 161.292C676.782 161.024 676.696 160.718 676.696 160.374C676.696 160.054 676.776 159.76 676.936 159.492C677.1 159.22 677.326 158.998 677.614 158.826C677.902 158.654 678.228 158.55 678.592 158.514L680.386 158.334C680.518 158.322 680.622 158.266 680.698 158.166C680.778 158.066 680.818 157.922 680.818 157.734C680.818 157.49 680.758 157.276 680.638 157.092C680.522 156.908 680.358 156.766 680.146 156.666C679.938 156.566 679.696 156.516 679.42 156.516C679.148 156.516 678.9 156.562 678.676 156.654C678.452 156.746 678.27 156.872 678.13 157.032C677.99 157.192 677.908 157.368 677.884 157.56H676.948C676.984 157.22 677.116 156.91 677.344 156.63C677.572 156.346 677.87 156.122 678.238 155.958C678.606 155.794 679.008 155.712 679.444 155.712ZM678.946 161.394C679.31 161.394 679.634 161.324 679.918 161.184C680.202 161.04 680.422 160.84 680.578 160.584C680.738 160.324 680.818 160.03 680.818 159.702V159.006L678.724 159.222C678.404 159.254 678.146 159.372 677.95 159.576C677.754 159.78 677.656 160.028 677.656 160.32C677.656 160.528 677.71 160.714 677.818 160.878C677.926 161.038 678.078 161.164 678.274 161.256C678.47 161.348 678.694 161.394 678.946 161.394ZM686.672 155.796V156.798H686.45C685.89 156.798 685.45 156.966 685.13 157.302C684.81 157.638 684.65 158.11 684.65 158.718V162H683.69V155.856H684.65V157.092C684.822 156.676 685.062 156.356 685.37 156.132C685.682 155.908 686.054 155.796 686.486 155.796H686.672ZM692.307 155.856H693.237L693.225 161.514C693.225 162.046 693.111 162.502 692.883 162.882C692.659 163.266 692.335 163.558 691.911 163.758C691.491 163.962 690.995 164.064 690.423 164.064C689.899 164.064 689.431 163.976 689.019 163.8C688.611 163.628 688.285 163.386 688.041 163.074C687.797 162.762 687.653 162.402 687.609 161.994H688.569C688.621 162.234 688.731 162.448 688.899 162.636C689.067 162.828 689.281 162.976 689.541 163.08C689.805 163.188 690.099 163.242 690.423 163.242C690.995 163.242 691.443 163.09 691.767 162.786C692.095 162.486 692.259 162.062 692.259 161.514V161.088L692.277 160.458C692.045 160.786 691.749 161.04 691.389 161.22C691.033 161.396 690.635 161.484 690.195 161.484C689.675 161.484 689.209 161.362 688.797 161.118C688.389 160.874 688.069 160.534 687.837 160.098C687.609 159.662 687.495 159.166 687.495 158.61C687.495 158.054 687.609 157.558 687.837 157.122C688.069 156.686 688.389 156.346 688.797 156.102C689.209 155.858 689.675 155.736 690.195 155.736C690.643 155.736 691.049 155.83 691.413 156.018C691.777 156.202 692.075 156.464 692.307 156.804V155.856ZM690.369 160.644C690.737 160.644 691.065 160.56 691.353 160.392C691.641 160.224 691.865 159.986 692.025 159.678C692.189 159.37 692.271 159.014 692.271 158.61C692.271 158.206 692.189 157.85 692.025 157.542C691.865 157.234 691.641 156.996 691.353 156.828C691.065 156.66 690.737 156.576 690.369 156.576C690.005 156.576 689.681 156.662 689.397 156.834C689.113 157.002 688.893 157.24 688.737 157.548C688.581 157.852 688.503 158.206 688.503 158.61C688.503 159.014 688.581 159.37 688.737 159.678C688.893 159.982 689.113 160.22 689.397 160.392C689.681 160.56 690.005 160.644 690.369 160.644ZM700.615 159.162H695.743C695.779 159.582 695.889 159.954 696.073 160.278C696.257 160.602 696.499 160.854 696.799 161.034C697.099 161.214 697.439 161.304 697.819 161.304C698.075 161.304 698.321 161.264 698.557 161.184C698.793 161.104 698.999 160.992 699.175 160.848C699.351 160.704 699.477 160.54 699.553 160.356H700.477C700.409 160.692 700.243 160.996 699.979 161.268C699.719 161.54 699.393 161.754 699.001 161.91C698.613 162.066 698.199 162.144 697.759 162.144C697.179 162.144 696.659 162.006 696.199 161.73C695.743 161.454 695.387 161.072 695.131 160.584C694.875 160.092 694.747 159.536 694.747 158.916C694.747 158.312 694.877 157.766 695.137 157.278C695.397 156.79 695.755 156.408 696.211 156.132C696.671 155.852 697.187 155.712 697.759 155.712C698.303 155.712 698.791 155.852 699.223 156.132C699.659 156.408 699.999 156.792 700.243 157.284C700.491 157.772 700.615 158.32 700.615 158.928V159.162ZM697.771 156.558C697.231 156.558 696.783 156.72 696.427 157.044C696.071 157.368 695.851 157.81 695.767 158.37H699.613C699.529 157.814 699.323 157.374 698.995 157.05C698.671 156.722 698.263 156.558 697.771 156.558ZM703.832 162C703.388 162 703.036 161.882 702.776 161.646C702.52 161.41 702.392 161.084 702.392 160.668L702.386 156.708H701.306L701.312 155.856H701.978C702.13 155.856 702.252 155.808 702.344 155.712C702.44 155.616 702.488 155.494 702.488 155.346V154.32H703.352V155.856H704.834L704.828 156.708H703.346L703.352 160.608C703.352 160.776 703.4 160.908 703.496 161.004C703.596 161.1 703.728 161.148 703.892 161.148H704.828V162H703.832Z" fill="black"/>
<path fill-rule="evenodd" clip-rule="evenodd" d="M573 30H400C393.373 30 388 35.3726 388 42V71C388 77.6274 393.373 83 400 83H573C579.627 83 585 77.6274 585 71V42C585 35.3726 579.627 30 573 30Z" fill="url(#paint3_radial_2015_45)"/>
<path d="M490 85L492.021 88.5H487.979L490 85ZM665.65 138V123.537H666.35V138H665.65ZM652 109.887H504V109.187H652V109.887ZM489.65 95.537V88.15H490.35V95.537H489.65ZM504 109.887C496.075 109.887 489.65 103.462 489.65 95.537H490.35C490.35 103.076 496.461 109.187 504 109.187V109.887ZM665.65 123.537C665.65 115.998 659.539 109.887 652 109.887V109.187C659.925 109.187 666.35 115.612 666.35 123.537H665.65Z" fill="black"/>
<path d="M212.497 180L213.994 183.241H211L212.497 180ZM311.482 230V216.111H312V230H311.482ZM301.372 203.472H222.866V202.824H301.372V203.472ZM212.238 190.185V182.917H212.756V190.185H212.238ZM222.866 203.472C216.996 203.472 212.238 197.523 212.238 190.185H212.756C212.756 197.166 217.282 202.824 222.866 202.824V203.472ZM311.482 216.111C311.482 209.131 306.956 203.472 301.372 203.472V202.824C307.241 202.824 312 208.773 312 216.111H311.482Z" fill="black"/>
<path d="M480 85L477.979 88.5H482.021L480 85ZM204.35 138V123.537H203.65V138H204.35ZM218 109.887H466V109.187H218V109.887ZM480.35 95.537V88.15H479.65V95.537H480.35ZM466 109.887C473.925 109.887 480.35 103.462 480.35 95.537H479.65C479.65 103.076 473.539 109.187 466 109.187V109.887ZM204.35 123.537C204.35 115.998 210.461 109.887 218 109.887V109.187C210.075 109.187 203.65 115.612 203.65 123.537H204.35Z" fill="black"/>
<path d="M480 85L477.979 88.5H482.021L480 85ZM329.35 138V123.537H328.65V138H329.35ZM343 109.887H466V109.187H343V109.887ZM480.35 95.537V88.15H479.65V95.537H480.35ZM466 109.887C473.925 109.887 480.35 103.462 480.35 95.537H479.65C479.65 103.076 473.539 109.187 466 109.187V109.887ZM329.35 123.537C329.35 115.998 335.461 109.887 343 109.887V109.187C335.075 109.187 328.65 115.612 328.65 123.537H329.35Z" fill="black"/>
<path d="M205.493 180L203.986 183.236H207L205.493 180ZM71.522 229V215.629H71V229H71.522ZM81.7013 203.009H195.053V202.362H81.7013V203.009ZM205.754 189.742V182.912H205.232V189.742H205.754ZM195.053 203.009C200.963 203.009 205.754 197.069 205.754 189.742H205.232C205.232 196.712 200.675 202.362 195.053 202.362V203.009ZM71.522 215.629C71.522 208.659 76.0792 203.009 81.7013 203.009V202.362C75.7913 202.362 71 208.302 71 215.629H71.522Z" fill="black"/>
<path d="M485 85L482.979 88.5H487.021L485 85ZM485.35 138V88.15H484.65V138H485.35Z" fill="black"/>
<path d="M465.455 54.98C465.296 54.9427 465.077 54.9053 464.797 54.868C464.517 54.8213 464.232 54.798 463.943 54.798C463.523 54.798 463.178 54.882 462.907 55.05C462.646 55.218 462.44 55.4373 462.291 55.708C462.142 55.9693 462.039 56.2633 461.983 56.59C461.927 56.9073 461.899 57.22 461.899 57.528C461.899 58.004 461.96 58.4147 462.081 58.76C462.202 59.096 462.361 59.3713 462.557 59.586C462.762 59.8007 462.996 59.9593 463.257 60.062C463.518 60.1553 463.794 60.202 464.083 60.202C464.279 60.202 464.466 60.1927 464.643 60.174C464.83 60.146 464.998 60.118 465.147 60.09C465.306 60.0527 465.455 60.0107 465.595 59.964L465.819 60.902C465.623 60.958 465.441 61.0047 465.273 61.042C465.105 61.0793 464.904 61.112 464.671 61.14C464.447 61.168 464.204 61.182 463.943 61.182C463.43 61.182 462.972 61.1167 462.571 60.986C462.17 60.8553 461.829 60.6453 461.549 60.356C461.278 60.0667 461.068 59.6887 460.919 59.222C460.779 58.7553 460.709 58.186 460.709 57.514C460.709 56.8607 460.798 56.3007 460.975 55.834C461.162 55.358 461.404 54.9753 461.703 54.686C462.002 54.3873 462.342 54.168 462.725 54.028C463.117 53.888 463.523 53.818 463.943 53.818C464.167 53.818 464.382 53.832 464.587 53.86C464.802 53.8787 464.988 53.902 465.147 53.93C465.334 53.9673 465.511 54.0047 465.679 54.042L465.455 54.98ZM467.832 57.514C467.832 58.4193 468.033 59.096 468.434 59.544C468.845 59.9827 469.396 60.202 470.086 60.202C470.768 60.202 471.3 59.9827 471.682 59.544C472.065 59.1053 472.256 58.4473 472.256 57.57C472.256 56.6367 472.051 55.9413 471.64 55.484C471.239 55.0267 470.688 54.798 469.988 54.798C469.288 54.798 468.752 55.0267 468.378 55.484C468.014 55.932 467.832 56.6087 467.832 57.514ZM466.642 57.5C466.642 56.7907 466.754 56.2027 466.978 55.736C467.202 55.26 467.487 54.882 467.832 54.602C468.178 54.3127 468.546 54.112 468.938 54C469.34 53.8787 469.718 53.818 470.072 53.818C470.408 53.818 470.772 53.874 471.164 53.986C471.566 54.0887 471.934 54.28 472.27 54.56C472.606 54.8307 472.886 55.1993 473.11 55.666C473.334 56.1233 473.446 56.7067 473.446 57.416C473.446 58.1533 473.33 58.7647 473.096 59.25C472.872 59.7353 472.588 60.1227 472.242 60.412C471.897 60.692 471.524 60.888 471.122 61C470.721 61.1213 470.348 61.182 470.002 61.182C469.648 61.182 469.274 61.126 468.882 61.014C468.49 60.902 468.126 60.7107 467.79 60.44C467.464 60.16 467.188 59.782 466.964 59.306C466.75 58.83 466.642 58.228 466.642 57.5ZM475.087 55.232C475.087 54.9147 475.059 54.532 475.003 54.084L476.053 53.944L476.207 54.826C476.459 54.6393 476.707 54.476 476.949 54.336C477.192 54.196 477.453 54.0747 477.733 53.972C478.013 53.8693 478.298 53.818 478.587 53.818C479.054 53.818 479.423 53.902 479.693 54.07C479.964 54.2287 480.165 54.504 480.295 54.896C480.678 54.6253 481.075 54.378 481.485 54.154C481.905 53.93 482.339 53.818 482.787 53.818C483.133 53.818 483.427 53.8647 483.669 53.958C483.912 54.042 484.108 54.1867 484.257 54.392C484.407 54.5973 484.514 54.868 484.579 55.204C484.645 55.54 484.677 55.96 484.677 56.464V61H483.557V56.59C483.557 56.31 483.553 56.0627 483.543 55.848C483.534 55.624 483.501 55.4373 483.445 55.288C483.389 55.1293 483.296 55.008 483.165 54.924C483.044 54.84 482.867 54.798 482.633 54.798C482.419 54.798 482.213 54.8307 482.017 54.896C481.831 54.952 481.635 55.036 481.429 55.148C481.224 55.26 480.907 55.4887 480.477 55.834V61H479.357V56.59C479.357 56.31 479.353 56.0627 479.343 55.848C479.334 55.624 479.301 55.4373 479.245 55.288C479.189 55.1293 479.096 55.008 478.965 54.924C478.844 54.84 478.667 54.798 478.433 54.798C478.191 54.798 477.939 54.8493 477.677 54.952C477.416 55.0547 477.169 55.176 476.935 55.316C476.702 55.456 476.459 55.6193 476.207 55.806V61H475.087V55.232ZM486.668 55.232C486.668 54.9147 486.64 54.532 486.584 54.084L487.634 53.944L487.788 54.826C488.04 54.6393 488.287 54.476 488.53 54.336C488.772 54.196 489.034 54.0747 489.314 53.972C489.594 53.8693 489.878 53.818 490.168 53.818C490.634 53.818 491.003 53.902 491.274 54.07C491.544 54.2287 491.745 54.504 491.876 54.896C492.258 54.6253 492.655 54.378 493.066 54.154C493.486 53.93 493.92 53.818 494.368 53.818C494.713 53.818 495.007 53.8647 495.25 53.958C495.492 54.042 495.688 54.1867 495.838 54.392C495.987 54.5973 496.094 54.868 496.16 55.204C496.225 55.54 496.258 55.96 496.258 56.464V61H495.138V56.59C495.138 56.31 495.133 56.0627 495.124 55.848C495.114 55.624 495.082 55.4373 495.026 55.288C494.97 55.1293 494.876 55.008 494.746 54.924C494.624 54.84 494.447 54.798 494.214 54.798C493.999 54.798 493.794 54.8307 493.598 54.896C493.411 54.952 493.215 55.036 493.01 55.148C492.804 55.26 492.487 55.4887 492.058 55.834V61H490.938V56.59C490.938 56.31 490.933 56.0627 490.924 55.848C490.914 55.624 490.882 55.4373 490.826 55.288C490.77 55.1293 490.676 55.008 490.546 54.924C490.424 54.84 490.247 54.798 490.014 54.798C489.771 54.798 489.519 54.8493 489.258 54.952C488.996 55.0547 488.749 55.176 488.516 55.316C488.282 55.456 488.04 55.6193 487.788 55.806V61H486.668V55.232ZM499.032 57.514C499.032 58.4193 499.232 59.096 499.634 59.544C500.044 59.9827 500.595 60.202 501.286 60.202C501.967 60.202 502.499 59.9827 502.882 59.544C503.264 59.1053 503.456 58.4473 503.456 57.57C503.456 56.6367 503.25 55.9413 502.84 55.484C502.438 55.0267 501.888 54.798 501.188 54.798C500.488 54.798 499.951 55.0267 499.578 55.484C499.214 55.932 499.032 56.6087 499.032 57.514ZM497.842 57.5C497.842 56.7907 497.954 56.2027 498.178 55.736C498.402 55.26 498.686 54.882 499.032 54.602C499.377 54.3127 499.746 54.112 500.138 54C500.539 53.8787 500.917 53.818 501.272 53.818C501.608 53.818 501.972 53.874 502.364 53.986C502.765 54.0887 503.134 54.28 503.47 54.56C503.806 54.8307 504.086 55.1993 504.31 55.666C504.534 56.1233 504.646 56.7067 504.646 57.416C504.646 58.1533 504.529 58.7647 504.296 59.25C504.072 59.7353 503.787 60.1227 503.442 60.412C503.096 60.692 502.723 60.888 502.322 61C501.92 61.1213 501.547 61.182 501.202 61.182C500.847 61.182 500.474 61.126 500.082 61.014C499.69 60.902 499.326 60.7107 498.99 60.44C498.663 60.16 498.388 59.782 498.164 59.306C497.949 58.83 497.842 58.228 497.842 57.5ZM506.287 55.358C506.296 55.162 506.273 54.7373 506.217 54.084L507.253 53.944L507.407 54.84C507.687 54.6533 507.962 54.49 508.233 54.35C508.513 54.21 508.797 54.0887 509.087 53.986C509.376 53.874 509.656 53.818 509.927 53.818C510.309 53.818 510.627 53.8647 510.879 53.958C511.14 54.042 511.35 54.1867 511.509 54.392C511.667 54.5973 511.779 54.868 511.845 55.204C511.919 55.54 511.957 55.96 511.957 56.464V61H510.837V56.59C510.837 56.31 510.832 56.0627 510.823 55.848C510.813 55.624 510.771 55.4373 510.697 55.288C510.631 55.1293 510.524 55.008 510.375 54.924C510.235 54.84 510.034 54.798 509.773 54.798C509.53 54.798 509.273 54.854 509.003 54.966C508.732 55.0687 508.466 55.19 508.205 55.33C507.943 55.47 507.677 55.6333 507.407 55.82V61H506.287V55.358Z" fill="white"/>
<defs>
<radialGradient id="paint0_radial_2015_45" cx="0" cy="0" r="1" gradientUnits="userSpaceOnUse" gradientTransform="translate(261.731 268.588) scale(93.5816 144.344)">
<stop stop-color="#EB4857"/>
<stop offset="0.5" stop-color="#C611E0"/>
<stop offset="1" stop-color="#7F52FF"/>
</radialGradient>
<radialGradient id="paint1_radial_2015_45" cx="0" cy="0" r="1" gradientUnits="userSpaceOnUse" gradientTransform="translate(22.7312 269.588) scale(93.5816 144.344)">
<stop stop-color="#EB4857"/>
<stop offset="0.5" stop-color="#C611E0"/>
<stop offset="1" stop-color="#7F52FF"/>
</radialGradient>
<radialGradient id="paint2_radial_2015_45" cx="0" cy="0" r="1" gradientUnits="userSpaceOnUse" gradientTransform="translate(143.664 180.603) scale(116.977 148.045)">
<stop stop-color="#EB4857"/>
<stop offset="0.5" stop-color="#C611E0"/>
<stop offset="1" stop-color="#7F52FF"/>
</radialGradient>
<radialGradient id="paint3_radial_2015_45" cx="0" cy="0" r="1" gradientUnits="userSpaceOnUse" gradientTransform="translate(387.449 83.7987) scale(192.038 196.159)">
<stop stop-color="#EB4857"/>
<stop offset="0.5" stop-color="#C611E0"/>
<stop offset="1" stop-color="#7F52FF"/>
</radialGradient>
</defs>
</svg>
