<svg width="706" height="454" viewBox="0 0 706 454" fill="none" xmlns="http://www.w3.org/2000/svg">
<rect width="706" height="454" fill="white"/>
<rect x="290" y="132" width="120" height="40" rx="12" fill="url(#paint0_radial_1596_259)"/>
<rect x="108" y="229" width="120" height="40" rx="12" fill="#F2F2F2"/>
<rect x="216" y="324" width="120" height="40" rx="12" fill="#F2F2F2"/>
<rect x="434" y="228" width="120" height="40" rx="12" fill="#F2F2F2"/>
<rect x="381" y="324" width="120" height="40" rx="12" fill="#F2F2F2"/>
<rect x="577" y="228" width="120" height="40" rx="12" fill="#F2F2F2"/>
<rect x="545" y="324" width="120" height="40" rx="12" fill="#F2F2F2"/>
<path d="M336.85 149.712C337.31 149.712 337.712 149.812 338.056 150.012C338.4 150.208 338.664 150.488 338.848 150.852C339.036 151.216 339.13 151.64 339.13 152.124V156H338.17V152.196C338.17 151.672 338.034 151.264 337.762 150.972C337.494 150.676 337.12 150.528 336.64 150.528C336.296 150.528 335.994 150.602 335.734 150.75C335.474 150.894 335.272 151.102 335.128 151.374C334.988 151.646 334.918 151.966 334.918 152.334V156H333.958V149.856H334.882V150.798C335.078 150.438 335.342 150.168 335.674 149.988C336.006 149.804 336.398 149.712 336.85 149.712ZM343.376 149.712C343.84 149.712 344.246 149.798 344.594 149.97C344.946 150.138 345.218 150.384 345.41 150.708C345.602 151.032 345.698 151.422 345.698 151.878V156H344.762V155.088C344.574 155.432 344.304 155.694 343.952 155.874C343.604 156.054 343.186 156.144 342.698 156.144C342.294 156.144 341.934 156.07 341.618 155.922C341.306 155.77 341.062 155.56 340.886 155.292C340.714 155.024 340.628 154.718 340.628 154.374C340.628 154.054 340.708 153.76 340.868 153.492C341.032 153.22 341.258 152.998 341.546 152.826C341.834 152.654 342.16 152.55 342.524 152.514L344.318 152.334C344.45 152.322 344.554 152.266 344.63 152.166C344.71 152.066 344.75 151.922 344.75 151.734C344.75 151.49 344.69 151.276 344.57 151.092C344.454 150.908 344.29 150.766 344.078 150.666C343.87 150.566 343.628 150.516 343.352 150.516C343.08 150.516 342.832 150.562 342.608 150.654C342.384 150.746 342.202 150.872 342.062 151.032C341.922 151.192 341.84 151.368 341.816 151.56H340.88C340.916 151.22 341.048 150.91 341.276 150.63C341.504 150.346 341.802 150.122 342.17 149.958C342.538 149.794 342.94 149.712 343.376 149.712ZM342.878 155.394C343.242 155.394 343.566 155.324 343.85 155.184C344.134 155.04 344.354 154.84 344.51 154.584C344.67 154.324 344.75 154.03 344.75 153.702V153.006L342.656 153.222C342.336 153.254 342.078 153.372 341.882 153.576C341.686 153.78 341.588 154.028 341.588 154.32C341.588 154.528 341.642 154.714 341.75 154.878C341.858 155.038 342.01 155.164 342.206 155.256C342.402 155.348 342.626 155.394 342.878 155.394ZM349.272 156C348.828 156 348.476 155.882 348.216 155.646C347.96 155.41 347.832 155.084 347.832 154.668L347.826 150.708H346.746L346.752 149.856H347.418C347.57 149.856 347.692 149.808 347.784 149.712C347.88 149.616 347.928 149.494 347.928 149.346V148.32H348.792V149.856H350.274L350.268 150.708H348.786L348.792 154.608C348.792 154.776 348.84 154.908 348.936 155.004C349.036 155.1 349.168 155.148 349.332 155.148H350.268V156H349.272ZM352.847 156H351.887V149.856H352.847V156ZM351.821 148.74V147.6H352.913V148.74H351.821ZM357.551 156H356.531L354.137 149.856H355.181L357.077 154.878L358.937 149.856H359.945L357.551 156ZM366.539 153.162H361.667C361.703 153.582 361.813 153.954 361.997 154.278C362.181 154.602 362.423 154.854 362.723 155.034C363.023 155.214 363.363 155.304 363.743 155.304C363.999 155.304 364.245 155.264 364.481 155.184C364.717 155.104 364.923 154.992 365.099 154.848C365.275 154.704 365.401 154.54 365.477 154.356H366.401C366.333 154.692 366.167 154.996 365.903 155.268C365.643 155.54 365.317 155.754 364.925 155.91C364.537 156.066 364.123 156.144 363.683 156.144C363.103 156.144 362.583 156.006 362.123 155.73C361.667 155.454 361.311 155.072 361.055 154.584C360.799 154.092 360.671 153.536 360.671 152.916C360.671 152.312 360.801 151.766 361.061 151.278C361.321 150.79 361.679 150.408 362.135 150.132C362.595 149.852 363.111 149.712 363.683 149.712C364.227 149.712 364.715 149.852 365.147 150.132C365.583 150.408 365.923 150.792 366.167 151.284C366.415 151.772 366.539 152.32 366.539 152.928V153.162ZM363.695 150.558C363.155 150.558 362.707 150.72 362.351 151.044C361.995 151.368 361.775 151.81 361.691 152.37H365.537C365.453 151.814 365.247 151.374 364.919 151.05C364.595 150.722 364.187 150.558 363.695 150.558Z" fill="white"/>
<rect x="293" y="228" width="120" height="40" rx="12" fill="url(#paint1_radial_1596_259)"/>
<rect x="52" y="327" width="120" height="40" rx="12" fill="url(#paint2_radial_1596_259)"/>
<path d="M340.464 244.712C340.928 244.712 341.334 244.798 341.682 244.97C342.034 245.138 342.306 245.384 342.498 245.708C342.69 246.032 342.786 246.422 342.786 246.878V251H341.85V250.088C341.662 250.432 341.392 250.694 341.04 250.874C340.692 251.054 340.274 251.144 339.786 251.144C339.382 251.144 339.022 251.07 338.706 250.922C338.394 250.77 338.15 250.56 337.974 250.292C337.802 250.024 337.716 249.718 337.716 249.374C337.716 249.054 337.796 248.76 337.956 248.492C338.12 248.22 338.346 247.998 338.634 247.826C338.922 247.654 339.248 247.55 339.612 247.514L341.406 247.334C341.538 247.322 341.642 247.266 341.718 247.166C341.798 247.066 341.838 246.922 341.838 246.734C341.838 246.49 341.778 246.276 341.658 246.092C341.542 245.908 341.378 245.766 341.166 245.666C340.958 245.566 340.716 245.516 340.44 245.516C340.168 245.516 339.92 245.562 339.696 245.654C339.472 245.746 339.29 245.872 339.15 246.032C339.01 246.192 338.928 246.368 338.904 246.56H337.968C338.004 246.22 338.136 245.91 338.364 245.63C338.592 245.346 338.89 245.122 339.258 244.958C339.626 244.794 340.028 244.712 340.464 244.712ZM339.966 250.394C340.33 250.394 340.654 250.324 340.938 250.184C341.222 250.04 341.442 249.84 341.598 249.584C341.758 249.324 341.838 249.03 341.838 248.702V248.006L339.744 248.222C339.424 248.254 339.166 248.372 338.97 248.576C338.774 248.78 338.676 249.028 338.676 249.32C338.676 249.528 338.73 249.714 338.838 249.878C338.946 250.038 339.098 250.164 339.294 250.256C339.49 250.348 339.714 250.394 339.966 250.394ZM347.818 244.712C348.374 244.712 348.878 244.852 349.33 245.132C349.782 245.412 350.136 245.798 350.392 246.29C350.648 246.778 350.776 247.324 350.776 247.928C350.776 248.532 350.648 249.08 350.392 249.572C350.136 250.06 349.782 250.444 349.33 250.724C348.878 251.004 348.374 251.144 347.818 251.144C347.35 251.144 346.928 251.042 346.552 250.838C346.176 250.634 345.87 250.344 345.634 249.968V250.358L345.658 252.932H344.71V244.856H345.634V245.894C345.87 245.514 346.176 245.222 346.552 245.018C346.928 244.814 347.35 244.712 347.818 244.712ZM347.728 250.28C348.116 250.28 348.464 250.178 348.772 249.974C349.084 249.77 349.328 249.49 349.504 249.134C349.68 248.774 349.768 248.372 349.768 247.928C349.768 247.484 349.68 247.084 349.504 246.728C349.328 246.368 349.084 246.086 348.772 245.882C348.464 245.678 348.116 245.576 347.728 245.576C347.336 245.576 346.982 245.678 346.666 245.882C346.354 246.086 346.11 246.368 345.934 246.728C345.758 247.084 345.67 247.484 345.67 247.928C345.67 248.372 345.758 248.774 345.934 249.134C346.11 249.49 346.354 249.77 346.666 249.974C346.982 250.178 347.336 250.28 347.728 250.28ZM355.447 244.712C356.003 244.712 356.507 244.852 356.959 245.132C357.411 245.412 357.765 245.798 358.021 246.29C358.277 246.778 358.405 247.324 358.405 247.928C358.405 248.532 358.277 249.08 358.021 249.572C357.765 250.06 357.411 250.444 356.959 250.724C356.507 251.004 356.003 251.144 355.447 251.144C354.979 251.144 354.557 251.042 354.181 250.838C353.805 250.634 353.499 250.344 353.263 249.968V250.358L353.287 252.932H352.339V244.856H353.263V245.894C353.499 245.514 353.805 245.222 354.181 245.018C354.557 244.814 354.979 244.712 355.447 244.712ZM355.357 250.28C355.745 250.28 356.093 250.178 356.401 249.974C356.713 249.77 356.957 249.49 357.133 249.134C357.309 248.774 357.397 248.372 357.397 247.928C357.397 247.484 357.309 247.084 357.133 246.728C356.957 246.368 356.713 246.086 356.401 245.882C356.093 245.678 355.745 245.576 355.357 245.576C354.965 245.576 354.611 245.678 354.295 245.882C353.983 246.086 353.739 246.368 353.563 246.728C353.387 247.084 353.299 247.484 353.299 247.928C353.299 248.372 353.387 248.774 353.563 249.134C353.739 249.49 353.983 249.77 354.295 249.974C354.611 250.178 354.965 250.28 355.357 250.28ZM360.928 251H359.968V242.6H360.928V251ZM368.361 248.162H363.489C363.525 248.582 363.635 248.954 363.819 249.278C364.003 249.602 364.245 249.854 364.545 250.034C364.845 250.214 365.185 250.304 365.565 250.304C365.821 250.304 366.067 250.264 366.303 250.184C366.539 250.104 366.745 249.992 366.921 249.848C367.097 249.704 367.223 249.54 367.299 249.356H368.223C368.155 249.692 367.989 249.996 367.725 250.268C367.465 250.54 367.139 250.754 366.747 250.91C366.359 251.066 365.945 251.144 365.505 251.144C364.925 251.144 364.405 251.006 363.945 250.73C363.489 250.454 363.133 250.072 362.877 249.584C362.621 249.092 362.493 248.536 362.493 247.916C362.493 247.312 362.623 246.766 362.883 246.278C363.143 245.79 363.501 245.408 363.957 245.132C364.417 244.852 364.933 244.712 365.505 244.712C366.049 244.712 366.537 244.852 366.969 245.132C367.405 245.408 367.745 245.792 367.989 246.284C368.237 246.772 368.361 247.32 368.361 247.928V248.162ZM365.517 245.558C364.977 245.558 364.529 245.72 364.173 246.044C363.817 246.368 363.597 246.81 363.513 247.37H367.359C367.275 246.814 367.069 246.374 366.741 246.05C366.417 245.722 366.009 245.558 365.517 245.558Z" fill="white"/>
<path d="M105.853 352H104.893V345.856H105.853V352ZM104.827 344.74V343.6H105.919V344.74H104.827ZM110.503 352.144C109.919 352.144 109.393 352.006 108.925 351.73C108.457 351.45 108.089 351.066 107.821 350.578C107.553 350.09 107.419 349.54 107.419 348.928C107.419 348.316 107.553 347.766 107.821 347.278C108.089 346.79 108.459 346.408 108.931 346.132C109.403 345.852 109.931 345.712 110.515 345.712C111.099 345.712 111.627 345.852 112.099 346.132C112.571 346.408 112.941 346.79 113.209 347.278C113.477 347.766 113.611 348.316 113.611 348.928C113.611 349.54 113.475 350.09 113.203 350.578C112.935 351.066 112.565 351.45 112.093 351.73C111.621 352.006 111.091 352.144 110.503 352.144ZM110.515 351.256C110.915 351.256 111.273 351.16 111.589 350.968C111.905 350.772 112.153 350.498 112.333 350.146C112.513 349.794 112.603 349.388 112.603 348.928C112.603 348.468 112.513 348.062 112.333 347.71C112.153 347.354 111.905 347.08 111.589 346.888C111.273 346.692 110.915 346.594 110.515 346.594C110.115 346.594 109.757 346.692 109.441 346.888C109.125 347.08 108.877 347.354 108.697 347.71C108.517 348.062 108.427 348.468 108.427 348.928C108.427 349.388 108.517 349.794 108.697 350.146C108.877 350.498 109.125 350.772 109.441 350.968C109.757 351.16 110.115 351.256 110.515 351.256ZM117.216 352.144C116.716 352.144 116.274 352.066 115.89 351.91C115.51 351.75 115.214 351.53 115.002 351.25C114.794 350.97 114.688 350.652 114.684 350.296H115.644C115.652 350.504 115.722 350.688 115.854 350.848C115.986 351.008 116.166 351.134 116.394 351.226C116.626 351.314 116.89 351.358 117.186 351.358C117.642 351.358 117.996 351.262 118.248 351.07C118.5 350.878 118.626 350.616 118.626 350.284C118.626 350.028 118.548 349.82 118.392 349.66C118.24 349.496 118.014 349.39 117.714 349.342L116.598 349.168C116.062 349.084 115.644 348.89 115.344 348.586C115.044 348.278 114.894 347.896 114.894 347.44C114.894 347.104 114.988 346.806 115.176 346.546C115.368 346.282 115.632 346.078 115.968 345.934C116.308 345.786 116.692 345.712 117.12 345.712C117.56 345.712 117.954 345.786 118.302 345.934C118.654 346.082 118.93 346.288 119.13 346.552C119.334 346.812 119.44 347.108 119.448 347.44H118.488C118.484 347.264 118.42 347.104 118.296 346.96C118.176 346.816 118.012 346.704 117.804 346.624C117.596 346.54 117.364 346.498 117.108 346.498C116.86 346.498 116.636 346.538 116.436 346.618C116.24 346.694 116.086 346.802 115.974 346.942C115.866 347.078 115.812 347.236 115.812 347.416C115.812 347.656 115.884 347.85 116.028 347.998C116.172 348.142 116.384 348.236 116.664 348.28L117.816 348.466C118.376 348.554 118.804 348.754 119.1 349.066C119.4 349.378 119.55 349.776 119.55 350.26C119.55 350.636 119.454 350.966 119.262 351.25C119.07 351.534 118.798 351.754 118.446 351.91C118.094 352.066 117.684 352.144 117.216 352.144Z" fill="white"/>
<path d="M42 144C42 137.373 47.3726 132 54 132H90C96.6274 132 102 137.373 102 144V160C102 166.627 96.6274 172 90 172H54C47.3726 172 42 166.627 42 160V144Z" fill="#F2F2F2"/>
<rect x="166" y="132" width="60" height="40" rx="12" fill="#F2F2F2"/>
<rect x="474" y="132" width="120" height="40" rx="12" fill="url(#paint3_radial_1596_259)"/>
<path d="M67.1517 158.42V157.508H68.0397C68.2037 157.508 68.3337 157.458 68.4297 157.358C68.5297 157.258 68.5797 157.126 68.5797 156.962V150.356H69.5397V157.04C69.5397 157.316 69.4797 157.558 69.3597 157.766C69.2437 157.974 69.0757 158.134 68.8557 158.246C68.6397 158.362 68.3877 158.42 68.0997 158.42H67.1517ZM68.5137 149.24V148.1H69.6057V149.24H68.5137ZM73.566 156.644C73.066 156.644 72.624 156.566 72.24 156.41C71.86 156.25 71.564 156.03 71.352 155.75C71.144 155.47 71.038 155.152 71.034 154.796H71.994C72.002 155.004 72.072 155.188 72.204 155.348C72.336 155.508 72.516 155.634 72.744 155.726C72.976 155.814 73.24 155.858 73.536 155.858C73.992 155.858 74.346 155.762 74.598 155.57C74.85 155.378 74.976 155.116 74.976 154.784C74.976 154.528 74.898 154.32 74.742 154.16C74.59 153.996 74.364 153.89 74.064 153.842L72.948 153.668C72.412 153.584 71.994 153.39 71.694 153.086C71.394 152.778 71.244 152.396 71.244 151.94C71.244 151.604 71.338 151.306 71.526 151.046C71.718 150.782 71.982 150.578 72.318 150.434C72.658 150.286 73.042 150.212 73.47 150.212C73.91 150.212 74.304 150.286 74.652 150.434C75.004 150.582 75.28 150.788 75.48 151.052C75.684 151.312 75.79 151.608 75.798 151.94H74.838C74.834 151.764 74.77 151.604 74.646 151.46C74.526 151.316 74.362 151.204 74.154 151.124C73.946 151.04 73.714 150.998 73.458 150.998C73.21 150.998 72.986 151.038 72.786 151.118C72.59 151.194 72.436 151.302 72.324 151.442C72.216 151.578 72.162 151.736 72.162 151.916C72.162 152.156 72.234 152.35 72.378 152.498C72.522 152.642 72.734 152.736 73.014 152.78L74.166 152.966C74.726 153.054 75.154 153.254 75.45 153.566C75.75 153.878 75.9 154.276 75.9 154.76C75.9 155.136 75.804 155.466 75.612 155.75C75.42 156.034 75.148 156.254 74.796 156.41C74.444 156.566 74.034 156.644 73.566 156.644Z" fill="black"/>
<path d="M185.486 156.92V156.008H186.374C186.538 156.008 186.668 155.958 186.764 155.858C186.864 155.758 186.914 155.626 186.914 155.462V148.856H187.874V155.54C187.874 155.816 187.814 156.058 187.694 156.266C187.578 156.474 187.41 156.634 187.19 156.746C186.974 156.862 186.722 156.92 186.434 156.92H185.486ZM186.848 147.74V146.6H187.94V147.74H186.848ZM192.506 155H191.486L189.092 148.856H190.136L192.032 153.878L193.892 148.856H194.9L192.506 155ZM203.034 148.712C203.482 148.712 203.874 148.814 204.21 149.018C204.55 149.218 204.81 149.5 204.99 149.864C205.174 150.228 205.266 150.648 205.266 151.124V155H204.306V151.166C204.306 150.646 204.182 150.244 203.934 149.96C203.69 149.672 203.342 149.528 202.89 149.528C202.546 149.528 202.248 149.61 201.996 149.774C201.744 149.934 201.55 150.164 201.414 150.464C201.278 150.764 201.21 151.114 201.21 151.514V155H200.25V151.166C200.25 150.65 200.122 150.248 199.866 149.96C199.61 149.672 199.254 149.528 198.798 149.528C198.454 149.528 198.158 149.61 197.91 149.774C197.666 149.934 197.478 150.164 197.346 150.464C197.218 150.764 197.154 151.114 197.154 151.514V155H196.194V148.856H197.118V149.762C197.31 149.426 197.562 149.168 197.874 148.988C198.19 148.804 198.556 148.712 198.972 148.712C199.42 148.712 199.818 148.82 200.166 149.036C200.514 149.252 200.778 149.55 200.958 149.93C201.166 149.546 201.448 149.248 201.804 149.036C202.164 148.82 202.574 148.712 203.034 148.712Z" fill="black"/>
<path d="M497.944 149.712C498.408 149.712 498.814 149.798 499.162 149.97C499.514 150.138 499.786 150.384 499.978 150.708C500.17 151.032 500.266 151.422 500.266 151.878V156H499.33V155.088C499.142 155.432 498.872 155.694 498.52 155.874C498.172 156.054 497.754 156.144 497.266 156.144C496.862 156.144 496.502 156.07 496.186 155.922C495.874 155.77 495.63 155.56 495.454 155.292C495.282 155.024 495.196 154.718 495.196 154.374C495.196 154.054 495.276 153.76 495.436 153.492C495.6 153.22 495.826 152.998 496.114 152.826C496.402 152.654 496.728 152.55 497.092 152.514L498.886 152.334C499.018 152.322 499.122 152.266 499.198 152.166C499.278 152.066 499.318 151.922 499.318 151.734C499.318 151.49 499.258 151.276 499.138 151.092C499.022 150.908 498.858 150.766 498.646 150.666C498.438 150.566 498.196 150.516 497.92 150.516C497.648 150.516 497.4 150.562 497.176 150.654C496.952 150.746 496.77 150.872 496.63 151.032C496.49 151.192 496.408 151.368 496.384 151.56H495.448C495.484 151.22 495.616 150.91 495.844 150.63C496.072 150.346 496.37 150.122 496.738 149.958C497.106 149.794 497.508 149.712 497.944 149.712ZM497.446 155.394C497.81 155.394 498.134 155.324 498.418 155.184C498.702 155.04 498.922 154.84 499.078 154.584C499.238 154.324 499.318 154.03 499.318 153.702V153.006L497.224 153.222C496.904 153.254 496.646 153.372 496.45 153.576C496.254 153.78 496.156 154.028 496.156 154.32C496.156 154.528 496.21 154.714 496.318 154.878C496.426 155.038 496.578 155.164 496.774 155.256C496.97 155.348 497.194 155.394 497.446 155.394ZM505.082 149.712C505.542 149.712 505.944 149.812 506.288 150.012C506.632 150.208 506.896 150.488 507.08 150.852C507.268 151.216 507.362 151.64 507.362 152.124V156H506.402V152.196C506.402 151.672 506.266 151.264 505.994 150.972C505.726 150.676 505.352 150.528 504.872 150.528C504.528 150.528 504.226 150.602 503.966 150.75C503.706 150.894 503.504 151.102 503.36 151.374C503.22 151.646 503.15 151.966 503.15 152.334V156H502.19V149.856H503.114V150.798C503.31 150.438 503.574 150.168 503.906 149.988C504.238 149.804 504.63 149.712 505.082 149.712ZM514.842 149.856H514.848V156H513.924V154.968C513.688 155.344 513.382 155.634 513.006 155.838C512.63 156.042 512.208 156.144 511.74 156.144C511.184 156.144 510.68 156.004 510.228 155.724C509.776 155.444 509.422 155.06 509.166 154.572C508.91 154.08 508.782 153.532 508.782 152.928C508.782 152.324 508.91 151.778 509.166 151.29C509.422 150.798 509.776 150.412 510.228 150.132C510.68 149.852 511.184 149.712 511.74 149.712C512.208 149.712 512.628 149.814 513 150.018C513.376 150.222 513.682 150.512 513.918 150.888L513.882 147.6H514.842V149.856ZM511.83 155.28C512.222 155.28 512.574 155.178 512.886 154.974C513.202 154.77 513.448 154.49 513.624 154.134C513.8 153.774 513.888 153.372 513.888 152.928C513.888 152.484 513.8 152.084 513.624 151.728C513.448 151.368 513.202 151.086 512.886 150.882C512.574 150.678 512.222 150.576 511.83 150.576C511.442 150.576 511.092 150.678 510.78 150.882C510.472 151.086 510.23 151.368 510.054 151.728C509.878 152.084 509.79 152.484 509.79 152.928C509.79 153.372 509.878 153.774 510.054 154.134C510.23 154.49 510.472 154.77 510.78 154.974C511.092 155.178 511.442 155.28 511.83 155.28ZM519.844 149.796V150.798H519.622C519.062 150.798 518.622 150.966 518.302 151.302C517.982 151.638 517.822 152.11 517.822 152.718V156H516.862V149.856H517.822V151.092C517.994 150.676 518.234 150.356 518.542 150.132C518.854 149.908 519.226 149.796 519.658 149.796H519.844ZM523.702 156.144C523.118 156.144 522.592 156.006 522.124 155.73C521.656 155.45 521.288 155.066 521.02 154.578C520.752 154.09 520.618 153.54 520.618 152.928C520.618 152.316 520.752 151.766 521.02 151.278C521.288 150.79 521.658 150.408 522.13 150.132C522.602 149.852 523.13 149.712 523.714 149.712C524.298 149.712 524.826 149.852 525.298 150.132C525.77 150.408 526.14 150.79 526.408 151.278C526.676 151.766 526.81 152.316 526.81 152.928C526.81 153.54 526.674 154.09 526.402 154.578C526.134 155.066 525.764 155.45 525.292 155.73C524.82 156.006 524.29 156.144 523.702 156.144ZM523.714 155.256C524.114 155.256 524.472 155.16 524.788 154.968C525.104 154.772 525.352 154.498 525.532 154.146C525.712 153.794 525.802 153.388 525.802 152.928C525.802 152.468 525.712 152.062 525.532 151.71C525.352 151.354 525.104 151.08 524.788 150.888C524.472 150.692 524.114 150.594 523.714 150.594C523.314 150.594 522.956 150.692 522.64 150.888C522.324 151.08 522.076 151.354 521.896 151.71C521.716 152.062 521.626 152.468 521.626 152.928C521.626 153.388 521.716 153.794 521.896 154.146C522.076 154.498 522.324 154.772 522.64 154.968C522.956 155.16 523.314 155.256 523.714 155.256ZM529.342 156H528.382V149.856H529.342V156ZM528.316 148.74V147.6H529.408V148.74H528.316ZM536.967 149.856H536.973V156H536.049V154.968C535.813 155.344 535.507 155.634 535.131 155.838C534.755 156.042 534.333 156.144 533.865 156.144C533.309 156.144 532.805 156.004 532.353 155.724C531.901 155.444 531.547 155.06 531.291 154.572C531.035 154.08 530.907 153.532 530.907 152.928C530.907 152.324 531.035 151.778 531.291 151.29C531.547 150.798 531.901 150.412 532.353 150.132C532.805 149.852 533.309 149.712 533.865 149.712C534.333 149.712 534.753 149.814 535.125 150.018C535.501 150.222 535.807 150.512 536.043 150.888L536.007 147.6H536.967V149.856ZM533.955 155.28C534.347 155.28 534.699 155.178 535.011 154.974C535.327 154.77 535.573 154.49 535.749 154.134C535.925 153.774 536.013 153.372 536.013 152.928C536.013 152.484 535.925 152.084 535.749 151.728C535.573 151.368 535.327 151.086 535.011 150.882C534.699 150.678 534.347 150.576 533.955 150.576C533.567 150.576 533.217 150.678 532.905 150.882C532.597 151.086 532.355 151.368 532.179 151.728C532.003 152.084 531.915 152.484 531.915 152.928C531.915 153.372 532.003 153.774 532.179 154.134C532.355 154.49 532.597 154.77 532.905 154.974C533.217 155.178 533.567 155.28 533.955 155.28ZM541.087 148.53H538.339V147.6H544.819V148.53H542.083V156.024H541.087V148.53ZM547.444 149.712C547.908 149.712 548.314 149.798 548.662 149.97C549.014 150.138 549.286 150.384 549.478 150.708C549.67 151.032 549.766 151.422 549.766 151.878V156H548.83V155.088C548.642 155.432 548.372 155.694 548.02 155.874C547.672 156.054 547.254 156.144 546.766 156.144C546.362 156.144 546.002 156.07 545.686 155.922C545.374 155.77 545.13 155.56 544.954 155.292C544.782 155.024 544.696 154.718 544.696 154.374C544.696 154.054 544.776 153.76 544.936 153.492C545.1 153.22 545.326 152.998 545.614 152.826C545.902 152.654 546.228 152.55 546.592 152.514L548.386 152.334C548.518 152.322 548.622 152.266 548.698 152.166C548.778 152.066 548.818 151.922 548.818 151.734C548.818 151.49 548.758 151.276 548.638 151.092C548.522 150.908 548.358 150.766 548.146 150.666C547.938 150.566 547.696 150.516 547.42 150.516C547.148 150.516 546.9 150.562 546.676 150.654C546.452 150.746 546.27 150.872 546.13 151.032C545.99 151.192 545.908 151.368 545.884 151.56H544.948C544.984 151.22 545.116 150.91 545.344 150.63C545.572 150.346 545.87 150.122 546.238 149.958C546.606 149.794 547.008 149.712 547.444 149.712ZM546.946 155.394C547.31 155.394 547.634 155.324 547.918 155.184C548.202 155.04 548.422 154.84 548.578 154.584C548.738 154.324 548.818 154.03 548.818 153.702V153.006L546.724 153.222C546.404 153.254 546.146 153.372 545.95 153.576C545.754 153.78 545.656 154.028 545.656 154.32C545.656 154.528 545.71 154.714 545.818 154.878C545.926 155.038 546.078 155.164 546.274 155.256C546.47 155.348 546.694 155.394 546.946 155.394ZM554.672 149.796V150.798H554.45C553.89 150.798 553.45 150.966 553.13 151.302C552.81 151.638 552.65 152.11 552.65 152.718V156H551.69V149.856H552.65V151.092C552.822 150.676 553.062 150.356 553.37 150.132C553.682 149.908 554.054 149.796 554.486 149.796H554.672ZM560.307 149.856H561.237L561.225 155.514C561.225 156.046 561.111 156.502 560.883 156.882C560.659 157.266 560.335 157.558 559.911 157.758C559.491 157.962 558.995 158.064 558.423 158.064C557.899 158.064 557.431 157.976 557.019 157.8C556.611 157.628 556.285 157.386 556.041 157.074C555.797 156.762 555.653 156.402 555.609 155.994H556.569C556.621 156.234 556.731 156.448 556.899 156.636C557.067 156.828 557.281 156.976 557.541 157.08C557.805 157.188 558.099 157.242 558.423 157.242C558.995 157.242 559.443 157.09 559.767 156.786C560.095 156.486 560.259 156.062 560.259 155.514V155.088L560.277 154.458C560.045 154.786 559.749 155.04 559.389 155.22C559.033 155.396 558.635 155.484 558.195 155.484C557.675 155.484 557.209 155.362 556.797 155.118C556.389 154.874 556.069 154.534 555.837 154.098C555.609 153.662 555.495 153.166 555.495 152.61C555.495 152.054 555.609 151.558 555.837 151.122C556.069 150.686 556.389 150.346 556.797 150.102C557.209 149.858 557.675 149.736 558.195 149.736C558.643 149.736 559.049 149.83 559.413 150.018C559.777 150.202 560.075 150.464 560.307 150.804V149.856ZM558.369 154.644C558.737 154.644 559.065 154.56 559.353 154.392C559.641 154.224 559.865 153.986 560.025 153.678C560.189 153.37 560.271 153.014 560.271 152.61C560.271 152.206 560.189 151.85 560.025 151.542C559.865 151.234 559.641 150.996 559.353 150.828C559.065 150.66 558.737 150.576 558.369 150.576C558.005 150.576 557.681 150.662 557.397 150.834C557.113 151.002 556.893 151.24 556.737 151.548C556.581 151.852 556.503 152.206 556.503 152.61C556.503 153.014 556.581 153.37 556.737 153.678C556.893 153.982 557.113 154.22 557.397 154.392C557.681 154.56 558.005 154.644 558.369 154.644ZM568.615 153.162H563.743C563.779 153.582 563.889 153.954 564.073 154.278C564.257 154.602 564.499 154.854 564.799 155.034C565.099 155.214 565.439 155.304 565.819 155.304C566.075 155.304 566.321 155.264 566.557 155.184C566.793 155.104 566.999 154.992 567.175 154.848C567.351 154.704 567.477 154.54 567.553 154.356H568.477C568.409 154.692 568.243 154.996 567.979 155.268C567.719 155.54 567.393 155.754 567.001 155.91C566.613 156.066 566.199 156.144 565.759 156.144C565.179 156.144 564.659 156.006 564.199 155.73C563.743 155.454 563.387 155.072 563.131 154.584C562.875 154.092 562.747 153.536 562.747 152.916C562.747 152.312 562.877 151.766 563.137 151.278C563.397 150.79 563.755 150.408 564.211 150.132C564.671 149.852 565.187 149.712 565.759 149.712C566.303 149.712 566.791 149.852 567.223 150.132C567.659 150.408 567.999 150.792 568.243 151.284C568.491 151.772 568.615 152.32 568.615 152.928V153.162ZM565.771 150.558C565.231 150.558 564.783 150.72 564.427 151.044C564.071 151.368 563.851 151.81 563.767 152.37H567.613C567.529 151.814 567.323 151.374 566.995 151.05C566.671 150.722 566.263 150.558 565.771 150.558ZM571.832 156C571.388 156 571.036 155.882 570.776 155.646C570.52 155.41 570.392 155.084 570.392 154.668L570.386 150.708H569.306L569.312 149.856H569.978C570.13 149.856 570.252 149.808 570.344 149.712C570.44 149.616 570.488 149.494 570.488 149.346V148.32H571.352V149.856H572.834L572.828 150.708H571.346L571.352 154.608C571.352 154.776 571.4 154.908 571.496 155.004C571.596 155.1 571.728 155.148 571.892 155.148H572.828V156H571.832Z" fill="white"/>
<rect x="255" y="24" width="197" height="53" rx="12" fill="url(#paint4_radial_1596_259)"/>
<path d="M331.823 53.144C331.243 53.144 330.719 53.004 330.251 52.724C329.783 52.444 329.415 52.06 329.147 51.572C328.883 51.08 328.751 50.532 328.751 49.928C328.751 49.324 328.883 48.778 329.147 48.29C329.415 47.798 329.783 47.412 330.251 47.132C330.719 46.852 331.243 46.712 331.823 46.712C332.319 46.712 332.775 46.81 333.191 47.006C333.607 47.198 333.943 47.466 334.199 47.81C334.459 48.15 334.609 48.532 334.649 48.956H333.689C333.641 48.692 333.527 48.454 333.347 48.242C333.171 48.03 332.949 47.864 332.681 47.744C332.417 47.624 332.131 47.564 331.823 47.564C331.431 47.564 331.077 47.668 330.761 47.876C330.449 48.08 330.203 48.362 330.023 48.722C329.847 49.082 329.759 49.484 329.759 49.928C329.759 50.372 329.847 50.774 330.023 51.134C330.203 51.494 330.449 51.776 330.761 51.98C331.077 52.184 331.431 52.286 331.823 52.286C332.131 52.286 332.417 52.228 332.681 52.112C332.949 51.996 333.171 51.838 333.347 51.638C333.527 51.434 333.641 51.208 333.689 50.96H334.649C334.613 51.372 334.465 51.744 334.205 52.076C333.949 52.408 333.613 52.67 333.197 52.862C332.781 53.05 332.323 53.144 331.823 53.144ZM338.796 53.144C338.212 53.144 337.686 53.006 337.218 52.73C336.75 52.45 336.382 52.066 336.114 51.578C335.846 51.09 335.712 50.54 335.712 49.928C335.712 49.316 335.846 48.766 336.114 48.278C336.382 47.79 336.752 47.408 337.224 47.132C337.696 46.852 338.224 46.712 338.808 46.712C339.392 46.712 339.92 46.852 340.392 47.132C340.864 47.408 341.234 47.79 341.502 48.278C341.77 48.766 341.904 49.316 341.904 49.928C341.904 50.54 341.768 51.09 341.496 51.578C341.228 52.066 340.858 52.45 340.386 52.73C339.914 53.006 339.384 53.144 338.796 53.144ZM338.808 52.256C339.208 52.256 339.566 52.16 339.882 51.968C340.198 51.772 340.446 51.498 340.626 51.146C340.806 50.794 340.896 50.388 340.896 49.928C340.896 49.468 340.806 49.062 340.626 48.71C340.446 48.354 340.198 48.08 339.882 47.888C339.566 47.692 339.208 47.594 338.808 47.594C338.408 47.594 338.05 47.692 337.734 47.888C337.418 48.08 337.17 48.354 336.99 48.71C336.81 49.062 336.72 49.468 336.72 49.928C336.72 50.388 336.81 50.794 336.99 51.146C337.17 51.498 337.418 51.772 337.734 51.968C338.05 52.16 338.408 52.256 338.808 52.256ZM350.315 46.712C350.763 46.712 351.155 46.814 351.491 47.018C351.831 47.218 352.091 47.5 352.271 47.864C352.455 48.228 352.547 48.648 352.547 49.124V53H351.587V49.166C351.587 48.646 351.463 48.244 351.215 47.96C350.971 47.672 350.623 47.528 350.171 47.528C349.827 47.528 349.529 47.61 349.277 47.774C349.025 47.934 348.831 48.164 348.695 48.464C348.559 48.764 348.491 49.114 348.491 49.514V53H347.531V49.166C347.531 48.65 347.403 48.248 347.147 47.96C346.891 47.672 346.535 47.528 346.079 47.528C345.735 47.528 345.439 47.61 345.191 47.774C344.947 47.934 344.759 48.164 344.627 48.464C344.499 48.764 344.435 49.114 344.435 49.514V53H343.475V46.856H344.399V47.762C344.591 47.426 344.843 47.168 345.155 46.988C345.471 46.804 345.837 46.712 346.253 46.712C346.701 46.712 347.099 46.82 347.447 47.036C347.795 47.252 348.059 47.55 348.239 47.93C348.447 47.546 348.729 47.248 349.085 47.036C349.445 46.82 349.855 46.712 350.315 46.712ZM361.308 46.712C361.756 46.712 362.148 46.814 362.484 47.018C362.824 47.218 363.084 47.5 363.264 47.864C363.448 48.228 363.54 48.648 363.54 49.124V53H362.58V49.166C362.58 48.646 362.456 48.244 362.208 47.96C361.964 47.672 361.616 47.528 361.164 47.528C360.82 47.528 360.522 47.61 360.27 47.774C360.018 47.934 359.824 48.164 359.688 48.464C359.552 48.764 359.484 49.114 359.484 49.514V53H358.524V49.166C358.524 48.65 358.396 48.248 358.14 47.96C357.884 47.672 357.528 47.528 357.072 47.528C356.728 47.528 356.432 47.61 356.184 47.774C355.94 47.934 355.752 48.164 355.62 48.464C355.492 48.764 355.428 49.114 355.428 49.514V53H354.468V46.856H355.392V47.762C355.584 47.426 355.836 47.168 356.148 46.988C356.464 46.804 356.83 46.712 357.246 46.712C357.694 46.712 358.092 46.82 358.44 47.036C358.788 47.252 359.052 47.55 359.232 47.93C359.44 47.546 359.722 47.248 360.078 47.036C360.438 46.82 360.848 46.712 361.308 46.712ZM368.046 53.144C367.462 53.144 366.936 53.006 366.468 52.73C366 52.45 365.632 52.066 365.364 51.578C365.096 51.09 364.962 50.54 364.962 49.928C364.962 49.316 365.096 48.766 365.364 48.278C365.632 47.79 366.002 47.408 366.474 47.132C366.946 46.852 367.474 46.712 368.058 46.712C368.642 46.712 369.17 46.852 369.642 47.132C370.114 47.408 370.484 47.79 370.752 48.278C371.02 48.766 371.154 49.316 371.154 49.928C371.154 50.54 371.018 51.09 370.746 51.578C370.478 52.066 370.108 52.45 369.636 52.73C369.164 53.006 368.634 53.144 368.046 53.144ZM368.058 52.256C368.458 52.256 368.816 52.16 369.132 51.968C369.448 51.772 369.696 51.498 369.876 51.146C370.056 50.794 370.146 50.388 370.146 49.928C370.146 49.468 370.056 49.062 369.876 48.71C369.696 48.354 369.448 48.08 369.132 47.888C368.816 47.692 368.458 47.594 368.058 47.594C367.658 47.594 367.3 47.692 366.984 47.888C366.668 48.08 366.42 48.354 366.24 48.71C366.06 49.062 365.97 49.468 365.97 49.928C365.97 50.388 366.06 50.794 366.24 51.146C366.42 51.498 366.668 51.772 366.984 51.968C367.3 52.16 367.658 52.256 368.058 52.256ZM375.617 46.712C376.077 46.712 376.479 46.812 376.823 47.012C377.167 47.208 377.431 47.488 377.615 47.852C377.803 48.216 377.897 48.64 377.897 49.124V53H376.937V49.196C376.937 48.672 376.801 48.264 376.529 47.972C376.261 47.676 375.887 47.528 375.407 47.528C375.063 47.528 374.761 47.602 374.501 47.75C374.241 47.894 374.039 48.102 373.895 48.374C373.755 48.646 373.685 48.966 373.685 49.334V53H372.725V46.856H373.649V47.798C373.845 47.438 374.109 47.168 374.441 46.988C374.773 46.804 375.165 46.712 375.617 46.712Z" fill="white"/>
<rect x="48.35" y="323.35" width="126.3" height="102.3" rx="14.65" stroke="#595959" stroke-width="0.7"/>
<path d="M131.622 246.712C132.086 246.712 132.492 246.798 132.84 246.97C133.192 247.138 133.464 247.384 133.656 247.708C133.848 248.032 133.944 248.422 133.944 248.878V253H133.008V252.088C132.82 252.432 132.55 252.694 132.198 252.874C131.85 253.054 131.432 253.144 130.944 253.144C130.54 253.144 130.18 253.07 129.864 252.922C129.552 252.77 129.308 252.56 129.132 252.292C128.96 252.024 128.874 251.718 128.874 251.374C128.874 251.054 128.954 250.76 129.114 250.492C129.278 250.22 129.504 249.998 129.792 249.826C130.08 249.654 130.406 249.55 130.77 249.514L132.564 249.334C132.696 249.322 132.8 249.266 132.876 249.166C132.956 249.066 132.996 248.922 132.996 248.734C132.996 248.49 132.936 248.276 132.816 248.092C132.7 247.908 132.536 247.766 132.324 247.666C132.116 247.566 131.874 247.516 131.598 247.516C131.326 247.516 131.078 247.562 130.854 247.654C130.63 247.746 130.448 247.872 130.308 248.032C130.168 248.192 130.086 248.368 130.062 248.56H129.126C129.162 248.22 129.294 247.91 129.522 247.63C129.75 247.346 130.048 247.122 130.416 246.958C130.784 246.794 131.186 246.712 131.622 246.712ZM131.124 252.394C131.488 252.394 131.812 252.324 132.096 252.184C132.38 252.04 132.6 251.84 132.756 251.584C132.916 251.324 132.996 251.03 132.996 250.702V250.006L130.902 250.222C130.582 250.254 130.324 250.372 130.128 250.576C129.932 250.78 129.834 251.028 129.834 251.32C129.834 251.528 129.888 251.714 129.996 251.878C130.104 252.038 130.256 252.164 130.452 252.256C130.648 252.348 130.872 252.394 131.124 252.394ZM138.76 246.712C139.22 246.712 139.622 246.812 139.966 247.012C140.31 247.208 140.574 247.488 140.758 247.852C140.946 248.216 141.04 248.64 141.04 249.124V253H140.08V249.196C140.08 248.672 139.944 248.264 139.672 247.972C139.404 247.676 139.03 247.528 138.55 247.528C138.206 247.528 137.904 247.602 137.644 247.75C137.384 247.894 137.182 248.102 137.038 248.374C136.898 248.646 136.828 248.966 136.828 249.334V253H135.868V246.856H136.792V247.798C136.988 247.438 137.252 247.168 137.584 246.988C137.916 246.804 138.308 246.712 138.76 246.712ZM148.52 246.856H148.526V253H147.602V251.968C147.366 252.344 147.06 252.634 146.684 252.838C146.308 253.042 145.886 253.144 145.418 253.144C144.862 253.144 144.358 253.004 143.906 252.724C143.454 252.444 143.1 252.06 142.844 251.572C142.588 251.08 142.46 250.532 142.46 249.928C142.46 249.324 142.588 248.778 142.844 248.29C143.1 247.798 143.454 247.412 143.906 247.132C144.358 246.852 144.862 246.712 145.418 246.712C145.886 246.712 146.306 246.814 146.678 247.018C147.054 247.222 147.36 247.512 147.596 247.888L147.56 244.6H148.52V246.856ZM145.508 252.28C145.9 252.28 146.252 252.178 146.564 251.974C146.88 251.77 147.126 251.49 147.302 251.134C147.478 250.774 147.566 250.372 147.566 249.928C147.566 249.484 147.478 249.084 147.302 248.728C147.126 248.368 146.88 248.086 146.564 247.882C146.252 247.678 145.9 247.576 145.508 247.576C145.12 247.576 144.77 247.678 144.458 247.882C144.15 248.086 143.908 248.368 143.732 248.728C143.556 249.084 143.468 249.484 143.468 249.928C143.468 250.372 143.556 250.774 143.732 251.134C143.908 251.49 144.15 251.77 144.458 251.974C144.77 252.178 145.12 252.28 145.508 252.28ZM153.522 246.796V247.798H153.3C152.74 247.798 152.3 247.966 151.98 248.302C151.66 248.638 151.5 249.11 151.5 249.718V253H150.54V246.856H151.5V248.092C151.672 247.676 151.912 247.356 152.22 247.132C152.532 246.908 152.904 246.796 153.336 246.796H153.522ZM157.38 253.144C156.796 253.144 156.27 253.006 155.802 252.73C155.334 252.45 154.966 252.066 154.698 251.578C154.43 251.09 154.296 250.54 154.296 249.928C154.296 249.316 154.43 248.766 154.698 248.278C154.966 247.79 155.336 247.408 155.808 247.132C156.28 246.852 156.808 246.712 157.392 246.712C157.976 246.712 158.504 246.852 158.976 247.132C159.448 247.408 159.818 247.79 160.086 248.278C160.354 248.766 160.488 249.316 160.488 249.928C160.488 250.54 160.352 251.09 160.08 251.578C159.812 252.066 159.442 252.45 158.97 252.73C158.498 253.006 157.968 253.144 157.38 253.144ZM157.392 252.256C157.792 252.256 158.15 252.16 158.466 251.968C158.782 251.772 159.03 251.498 159.21 251.146C159.39 250.794 159.48 250.388 159.48 249.928C159.48 249.468 159.39 249.062 159.21 248.71C159.03 248.354 158.782 248.08 158.466 247.888C158.15 247.692 157.792 247.594 157.392 247.594C156.992 247.594 156.634 247.692 156.318 247.888C156.002 248.08 155.754 248.354 155.574 248.71C155.394 249.062 155.304 249.468 155.304 249.928C155.304 250.388 155.394 250.794 155.574 251.146C155.754 251.498 156.002 251.772 156.318 251.968C156.634 252.16 156.992 252.256 157.392 252.256ZM163.019 253H162.059V246.856H163.019V253ZM161.993 245.74V244.6H163.085V245.74H161.993ZM170.645 246.856H170.651V253H169.727V251.968C169.491 252.344 169.185 252.634 168.809 252.838C168.433 253.042 168.011 253.144 167.543 253.144C166.987 253.144 166.483 253.004 166.031 252.724C165.579 252.444 165.225 252.06 164.969 251.572C164.713 251.08 164.585 250.532 164.585 249.928C164.585 249.324 164.713 248.778 164.969 248.29C165.225 247.798 165.579 247.412 166.031 247.132C166.483 246.852 166.987 246.712 167.543 246.712C168.011 246.712 168.431 246.814 168.803 247.018C169.179 247.222 169.485 247.512 169.721 247.888L169.685 244.6H170.645V246.856ZM167.633 252.28C168.025 252.28 168.377 252.178 168.689 251.974C169.005 251.77 169.251 251.49 169.427 251.134C169.603 250.774 169.691 250.372 169.691 249.928C169.691 249.484 169.603 249.084 169.427 248.728C169.251 248.368 169.005 248.086 168.689 247.882C168.377 247.678 168.025 247.576 167.633 247.576C167.245 247.576 166.895 247.678 166.583 247.882C166.275 248.086 166.033 248.368 165.857 248.728C165.681 249.084 165.593 249.484 165.593 249.928C165.593 250.372 165.681 250.774 165.857 251.134C166.033 251.49 166.275 251.77 166.583 251.974C166.895 252.178 167.245 252.28 167.633 252.28ZM172.905 244.6H173.961L178.413 251.416V244.6H179.409V253H178.341L173.901 246.184V253H172.905V244.6ZM184.04 246.712C184.504 246.712 184.91 246.798 185.258 246.97C185.61 247.138 185.882 247.384 186.074 247.708C186.266 248.032 186.362 248.422 186.362 248.878V253H185.426V252.088C185.238 252.432 184.968 252.694 184.616 252.874C184.268 253.054 183.85 253.144 183.362 253.144C182.958 253.144 182.598 253.07 182.282 252.922C181.97 252.77 181.726 252.56 181.55 252.292C181.378 252.024 181.292 251.718 181.292 251.374C181.292 251.054 181.372 250.76 181.532 250.492C181.696 250.22 181.922 249.998 182.21 249.826C182.498 249.654 182.824 249.55 183.188 249.514L184.982 249.334C185.114 249.322 185.218 249.266 185.294 249.166C185.374 249.066 185.414 248.922 185.414 248.734C185.414 248.49 185.354 248.276 185.234 248.092C185.118 247.908 184.954 247.766 184.742 247.666C184.534 247.566 184.292 247.516 184.016 247.516C183.744 247.516 183.496 247.562 183.272 247.654C183.048 247.746 182.866 247.872 182.726 248.032C182.586 248.192 182.504 248.368 182.48 248.56H181.544C181.58 248.22 181.712 247.91 181.94 247.63C182.168 247.346 182.466 247.122 182.834 246.958C183.202 246.794 183.604 246.712 184.04 246.712ZM183.542 252.394C183.906 252.394 184.23 252.324 184.514 252.184C184.798 252.04 185.018 251.84 185.174 251.584C185.334 251.324 185.414 251.03 185.414 250.702V250.006L183.32 250.222C183 250.254 182.742 250.372 182.546 250.576C182.35 250.78 182.252 251.028 182.252 251.32C182.252 251.528 182.306 251.714 182.414 251.878C182.522 252.038 182.674 252.164 182.87 252.256C183.066 252.348 183.29 252.394 183.542 252.394ZM189.936 253C189.492 253 189.14 252.882 188.88 252.646C188.624 252.41 188.496 252.084 188.496 251.668L188.49 247.708H187.41L187.416 246.856H188.082C188.234 246.856 188.356 246.808 188.448 246.712C188.544 246.616 188.592 246.494 188.592 246.346V245.32H189.456V246.856H190.938L190.932 247.708H189.45L189.456 251.608C189.456 251.776 189.504 251.908 189.6 252.004C189.7 252.1 189.832 252.148 189.996 252.148H190.932V253H189.936ZM193.512 253H192.552V246.856H193.512V253ZM192.486 245.74V244.6H193.578V245.74H192.486ZM198.215 253H197.195L194.801 246.856H195.845L197.741 251.878L199.601 246.856H200.609L198.215 253ZM207.203 250.162H202.331C202.367 250.582 202.477 250.954 202.661 251.278C202.845 251.602 203.087 251.854 203.387 252.034C203.687 252.214 204.027 252.304 204.407 252.304C204.663 252.304 204.909 252.264 205.145 252.184C205.381 252.104 205.587 251.992 205.763 251.848C205.939 251.704 206.065 251.54 206.141 251.356H207.065C206.997 251.692 206.831 251.996 206.567 252.268C206.307 252.54 205.981 252.754 205.589 252.91C205.201 253.066 204.787 253.144 204.347 253.144C203.767 253.144 203.247 253.006 202.787 252.73C202.331 252.454 201.975 252.072 201.719 251.584C201.463 251.092 201.335 250.536 201.335 249.916C201.335 249.312 201.465 248.766 201.725 248.278C201.985 247.79 202.343 247.408 202.799 247.132C203.259 246.852 203.775 246.712 204.347 246.712C204.891 246.712 205.379 246.852 205.811 247.132C206.247 247.408 206.587 247.792 206.831 248.284C207.079 248.772 207.203 249.32 207.203 249.928V250.162ZM204.359 247.558C203.819 247.558 203.371 247.72 203.015 248.044C202.659 248.368 202.439 248.81 202.355 249.37H206.201C206.117 248.814 205.911 248.374 205.583 248.05C205.259 247.722 204.851 247.558 204.359 247.558Z" fill="black"/>
<path d="M264.981 341.712C265.429 341.712 265.821 341.814 266.157 342.018C266.497 342.218 266.757 342.5 266.937 342.864C267.121 343.228 267.213 343.648 267.213 344.124V348H266.253V344.166C266.253 343.646 266.129 343.244 265.881 342.96C265.637 342.672 265.289 342.528 264.837 342.528C264.493 342.528 264.195 342.61 263.943 342.774C263.691 342.934 263.497 343.164 263.361 343.464C263.225 343.764 263.157 344.114 263.157 344.514V348H262.197V344.166C262.197 343.65 262.069 343.248 261.813 342.96C261.557 342.672 261.201 342.528 260.745 342.528C260.401 342.528 260.105 342.61 259.857 342.774C259.613 342.934 259.425 343.164 259.293 343.464C259.165 343.764 259.101 344.114 259.101 344.514V348H258.141V341.856H259.065V342.762C259.257 342.426 259.509 342.168 259.821 341.988C260.137 341.804 260.503 341.712 260.919 341.712C261.367 341.712 261.765 341.82 262.113 342.036C262.461 342.252 262.725 342.55 262.905 342.93C263.113 342.546 263.395 342.248 263.751 342.036C264.111 341.82 264.521 341.712 264.981 341.712ZM271.462 341.712C271.926 341.712 272.332 341.798 272.68 341.97C273.032 342.138 273.304 342.384 273.496 342.708C273.688 343.032 273.784 343.422 273.784 343.878V348H272.848V347.088C272.66 347.432 272.39 347.694 272.038 347.874C271.69 348.054 271.272 348.144 270.784 348.144C270.38 348.144 270.02 348.07 269.704 347.922C269.392 347.77 269.148 347.56 268.972 347.292C268.8 347.024 268.714 346.718 268.714 346.374C268.714 346.054 268.794 345.76 268.954 345.492C269.118 345.22 269.344 344.998 269.632 344.826C269.92 344.654 270.246 344.55 270.61 344.514L272.404 344.334C272.536 344.322 272.64 344.266 272.716 344.166C272.796 344.066 272.836 343.922 272.836 343.734C272.836 343.49 272.776 343.276 272.656 343.092C272.54 342.908 272.376 342.766 272.164 342.666C271.956 342.566 271.714 342.516 271.438 342.516C271.166 342.516 270.918 342.562 270.694 342.654C270.47 342.746 270.288 342.872 270.148 343.032C270.008 343.192 269.926 343.368 269.902 343.56H268.966C269.002 343.22 269.134 342.91 269.362 342.63C269.59 342.346 269.888 342.122 270.256 341.958C270.624 341.794 271.026 341.712 271.462 341.712ZM270.964 347.394C271.328 347.394 271.652 347.324 271.936 347.184C272.22 347.04 272.44 346.84 272.596 346.584C272.756 346.324 272.836 346.03 272.836 345.702V345.006L270.742 345.222C270.422 345.254 270.164 345.372 269.968 345.576C269.772 345.78 269.674 346.028 269.674 346.32C269.674 346.528 269.728 346.714 269.836 346.878C269.944 347.038 270.096 347.164 270.292 347.256C270.488 347.348 270.712 347.394 270.964 347.394ZM278.282 348.144C277.702 348.144 277.178 348.004 276.71 347.724C276.242 347.444 275.874 347.06 275.606 346.572C275.342 346.08 275.21 345.532 275.21 344.928C275.21 344.324 275.342 343.778 275.606 343.29C275.874 342.798 276.242 342.412 276.71 342.132C277.178 341.852 277.702 341.712 278.282 341.712C278.778 341.712 279.234 341.81 279.65 342.006C280.066 342.198 280.402 342.466 280.658 342.81C280.918 343.15 281.068 343.532 281.108 343.956H280.148C280.1 343.692 279.986 343.454 279.806 343.242C279.63 343.03 279.408 342.864 279.14 342.744C278.876 342.624 278.59 342.564 278.282 342.564C277.89 342.564 277.536 342.668 277.22 342.876C276.908 343.08 276.662 343.362 276.482 343.722C276.306 344.082 276.218 344.484 276.218 344.928C276.218 345.372 276.306 345.774 276.482 346.134C276.662 346.494 276.908 346.776 277.22 346.98C277.536 347.184 277.89 347.286 278.282 347.286C278.59 347.286 278.876 347.228 279.14 347.112C279.408 346.996 279.63 346.838 279.806 346.638C279.986 346.434 280.1 346.208 280.148 345.96H281.108C281.072 346.372 280.924 346.744 280.664 347.076C280.408 347.408 280.072 347.67 279.656 347.862C279.24 348.05 278.782 348.144 278.282 348.144ZM285.255 348.144C284.671 348.144 284.145 348.006 283.677 347.73C283.209 347.45 282.841 347.066 282.573 346.578C282.305 346.09 282.171 345.54 282.171 344.928C282.171 344.316 282.305 343.766 282.573 343.278C282.841 342.79 283.211 342.408 283.683 342.132C284.155 341.852 284.683 341.712 285.267 341.712C285.851 341.712 286.379 341.852 286.851 342.132C287.323 342.408 287.693 342.79 287.961 343.278C288.229 343.766 288.363 344.316 288.363 344.928C288.363 345.54 288.227 346.09 287.955 346.578C287.687 347.066 287.317 347.45 286.845 347.73C286.373 348.006 285.843 348.144 285.255 348.144ZM285.267 347.256C285.667 347.256 286.025 347.16 286.341 346.968C286.657 346.772 286.905 346.498 287.085 346.146C287.265 345.794 287.355 345.388 287.355 344.928C287.355 344.468 287.265 344.062 287.085 343.71C286.905 343.354 286.657 343.08 286.341 342.888C286.025 342.692 285.667 342.594 285.267 342.594C284.867 342.594 284.509 342.692 284.193 342.888C283.877 343.08 283.629 343.354 283.449 343.71C283.269 344.062 283.179 344.468 283.179 344.928C283.179 345.388 283.269 345.794 283.449 346.146C283.629 346.498 283.877 346.772 284.193 346.968C284.509 347.16 284.867 347.256 285.267 347.256ZM291.968 348.144C291.468 348.144 291.026 348.066 290.642 347.91C290.262 347.75 289.966 347.53 289.754 347.25C289.546 346.97 289.44 346.652 289.436 346.296H290.396C290.404 346.504 290.474 346.688 290.606 346.848C290.738 347.008 290.918 347.134 291.146 347.226C291.378 347.314 291.642 347.358 291.938 347.358C292.394 347.358 292.748 347.262 293 347.07C293.252 346.878 293.378 346.616 293.378 346.284C293.378 346.028 293.3 345.82 293.144 345.66C292.992 345.496 292.766 345.39 292.466 345.342L291.35 345.168C290.814 345.084 290.396 344.89 290.096 344.586C289.796 344.278 289.646 343.896 289.646 343.44C289.646 343.104 289.74 342.806 289.928 342.546C290.12 342.282 290.384 342.078 290.72 341.934C291.06 341.786 291.444 341.712 291.872 341.712C292.312 341.712 292.706 341.786 293.054 341.934C293.406 342.082 293.682 342.288 293.882 342.552C294.086 342.812 294.192 343.108 294.2 343.44H293.24C293.236 343.264 293.172 343.104 293.048 342.96C292.928 342.816 292.764 342.704 292.556 342.624C292.348 342.54 292.116 342.498 291.86 342.498C291.612 342.498 291.388 342.538 291.188 342.618C290.992 342.694 290.838 342.802 290.726 342.942C290.618 343.078 290.564 343.236 290.564 343.416C290.564 343.656 290.636 343.85 290.78 343.998C290.924 344.142 291.136 344.236 291.416 344.28L292.568 344.466C293.128 344.554 293.556 344.754 293.852 345.066C294.152 345.378 294.302 345.776 294.302 346.26C294.302 346.636 294.206 346.966 294.014 347.25C293.822 347.534 293.55 347.754 293.198 347.91C292.846 348.066 292.436 348.144 291.968 348.144Z" fill="black"/>
<path d="M624.753 244.712C625.201 244.712 625.593 244.814 625.929 245.018C626.269 245.218 626.529 245.5 626.709 245.864C626.893 246.228 626.985 246.648 626.985 247.124V251H626.025V247.166C626.025 246.646 625.901 246.244 625.653 245.96C625.409 245.672 625.061 245.528 624.609 245.528C624.265 245.528 623.967 245.61 623.715 245.774C623.463 245.934 623.269 246.164 623.133 246.464C622.997 246.764 622.929 247.114 622.929 247.514V251H621.969V247.166C621.969 246.65 621.841 246.248 621.585 245.96C621.329 245.672 620.973 245.528 620.517 245.528C620.173 245.528 619.877 245.61 619.629 245.774C619.385 245.934 619.197 246.164 619.065 246.464C618.937 246.764 618.873 247.114 618.873 247.514V251H617.913V244.856H618.837V245.762C619.029 245.426 619.281 245.168 619.593 244.988C619.909 244.804 620.275 244.712 620.691 244.712C621.139 244.712 621.537 244.82 621.885 245.036C622.233 245.252 622.497 245.55 622.677 245.93C622.885 245.546 623.167 245.248 623.523 245.036C623.883 244.82 624.293 244.712 624.753 244.712ZM629.865 251H628.905V244.856H629.865V251ZM628.839 243.74V242.6H629.931V243.74H628.839ZM634.82 244.712C635.28 244.712 635.682 244.812 636.026 245.012C636.37 245.208 636.634 245.488 636.818 245.852C637.006 246.216 637.1 246.64 637.1 247.124V251H636.14V247.196C636.14 246.672 636.004 246.264 635.732 245.972C635.464 245.676 635.09 245.528 634.61 245.528C634.266 245.528 633.964 245.602 633.704 245.75C633.444 245.894 633.242 246.102 633.098 246.374C632.958 246.646 632.888 246.966 632.888 247.334V251H631.928V244.856H632.852V245.798C633.048 245.438 633.312 245.168 633.644 244.988C633.976 244.804 634.368 244.712 634.82 244.712ZM643.404 244.856H644.334L644.322 250.514C644.322 251.046 644.208 251.502 643.98 251.882C643.756 252.266 643.432 252.558 643.008 252.758C642.588 252.962 642.092 253.064 641.52 253.064C640.996 253.064 640.528 252.976 640.116 252.8C639.708 252.628 639.382 252.386 639.138 252.074C638.894 251.762 638.75 251.402 638.706 250.994H639.666C639.718 251.234 639.828 251.448 639.996 251.636C640.164 251.828 640.378 251.976 640.638 252.08C640.902 252.188 641.196 252.242 641.52 252.242C642.092 252.242 642.54 252.09 642.864 251.786C643.192 251.486 643.356 251.062 643.356 250.514V250.088L643.374 249.458C643.142 249.786 642.846 250.04 642.486 250.22C642.13 250.396 641.732 250.484 641.292 250.484C640.772 250.484 640.306 250.362 639.894 250.118C639.486 249.874 639.166 249.534 638.934 249.098C638.706 248.662 638.592 248.166 638.592 247.61C638.592 247.054 638.706 246.558 638.934 246.122C639.166 245.686 639.486 245.346 639.894 245.102C640.306 244.858 640.772 244.736 641.292 244.736C641.74 244.736 642.146 244.83 642.51 245.018C642.874 245.202 643.172 245.464 643.404 245.804V244.856ZM641.466 249.644C641.834 249.644 642.162 249.56 642.45 249.392C642.738 249.224 642.962 248.986 643.122 248.678C643.286 248.37 643.368 248.014 643.368 247.61C643.368 247.206 643.286 246.85 643.122 246.542C642.962 246.234 642.738 245.996 642.45 245.828C642.162 245.66 641.834 245.576 641.466 245.576C641.102 245.576 640.778 245.662 640.494 245.834C640.21 246.002 639.99 246.24 639.834 246.548C639.678 246.852 639.6 247.206 639.6 247.61C639.6 248.014 639.678 248.37 639.834 248.678C639.99 248.982 640.21 249.22 640.494 249.392C640.778 249.56 641.102 249.644 641.466 249.644ZM648.623 251H647.627L645.605 244.856H646.625L648.029 249.374L648.167 249.866L648.287 249.374L649.745 244.856H650.735L652.199 249.374L652.331 249.866L652.457 249.374L653.825 244.856H654.821L652.799 251H651.791L650.351 246.278L650.237 245.882L650.135 246.266L648.623 251Z" fill="black"/>
<path d="M584.423 348H583.427L581.405 341.856H582.425L583.829 346.374L583.967 346.866L584.087 346.374L585.545 341.856H586.535L587.999 346.374L588.131 346.866L588.257 346.374L589.625 341.856H590.621L588.599 348H587.591L586.151 343.278L586.037 342.882L585.935 343.266L584.423 348ZM594.104 341.712C594.568 341.712 594.974 341.798 595.322 341.97C595.674 342.138 595.946 342.384 596.138 342.708C596.33 343.032 596.426 343.422 596.426 343.878V348H595.49V347.088C595.302 347.432 595.032 347.694 594.68 347.874C594.332 348.054 593.914 348.144 593.426 348.144C593.022 348.144 592.662 348.07 592.346 347.922C592.034 347.77 591.79 347.56 591.614 347.292C591.442 347.024 591.356 346.718 591.356 346.374C591.356 346.054 591.436 345.76 591.596 345.492C591.76 345.22 591.986 344.998 592.274 344.826C592.562 344.654 592.888 344.55 593.252 344.514L595.046 344.334C595.178 344.322 595.282 344.266 595.358 344.166C595.438 344.066 595.478 343.922 595.478 343.734C595.478 343.49 595.418 343.276 595.298 343.092C595.182 342.908 595.018 342.766 594.806 342.666C594.598 342.566 594.356 342.516 594.08 342.516C593.808 342.516 593.56 342.562 593.336 342.654C593.112 342.746 592.93 342.872 592.79 343.032C592.65 343.192 592.568 343.368 592.544 343.56H591.608C591.644 343.22 591.776 342.91 592.004 342.63C592.232 342.346 592.53 342.122 592.898 341.958C593.266 341.794 593.668 341.712 594.104 341.712ZM593.606 347.394C593.97 347.394 594.294 347.324 594.578 347.184C594.862 347.04 595.082 346.84 595.238 346.584C595.398 346.324 595.478 346.03 595.478 345.702V345.006L593.384 345.222C593.064 345.254 592.806 345.372 592.61 345.576C592.414 345.78 592.316 346.028 592.316 346.32C592.316 346.528 592.37 346.714 592.478 346.878C592.586 347.038 592.738 347.164 592.934 347.256C593.13 347.348 593.354 347.394 593.606 347.394ZM600 348C599.556 348 599.204 347.882 598.944 347.646C598.688 347.41 598.56 347.084 598.56 346.668L598.554 342.708H597.474L597.48 341.856H598.146C598.298 341.856 598.42 341.808 598.512 341.712C598.608 341.616 598.656 341.494 598.656 341.346V340.32H599.52V341.856H601.002L600.996 342.708H599.514L599.52 346.608C599.52 346.776 599.568 346.908 599.664 347.004C599.764 347.1 599.896 347.148 600.06 347.148H600.996V348H600ZM605.19 348.144C604.61 348.144 604.086 348.004 603.618 347.724C603.15 347.444 602.782 347.06 602.514 346.572C602.25 346.08 602.118 345.532 602.118 344.928C602.118 344.324 602.25 343.778 602.514 343.29C602.782 342.798 603.15 342.412 603.618 342.132C604.086 341.852 604.61 341.712 605.19 341.712C605.686 341.712 606.142 341.81 606.558 342.006C606.974 342.198 607.31 342.466 607.566 342.81C607.826 343.15 607.976 343.532 608.016 343.956H607.056C607.008 343.692 606.894 343.454 606.714 343.242C606.538 343.03 606.316 342.864 606.048 342.744C605.784 342.624 605.498 342.564 605.19 342.564C604.798 342.564 604.444 342.668 604.128 342.876C603.816 343.08 603.57 343.362 603.39 343.722C603.214 344.082 603.126 344.484 603.126 344.928C603.126 345.372 603.214 345.774 603.39 346.134C603.57 346.494 603.816 346.776 604.128 346.98C604.444 347.184 604.798 347.286 605.19 347.286C605.498 347.286 605.784 347.228 606.048 347.112C606.316 346.996 606.538 346.838 606.714 346.638C606.894 346.434 607.008 346.208 607.056 345.96H608.016C607.98 346.372 607.832 346.744 607.572 347.076C607.316 347.408 606.98 347.67 606.564 347.862C606.148 348.05 605.69 348.144 605.19 348.144ZM612.469 341.712C612.929 341.712 613.331 341.812 613.675 342.012C614.019 342.208 614.283 342.488 614.467 342.852C614.655 343.216 614.749 343.64 614.749 344.124V348H613.789V344.166C613.789 343.65 613.657 343.248 613.393 342.96C613.133 342.672 612.767 342.528 612.295 342.528C611.939 342.528 611.629 342.61 611.365 342.774C611.101 342.934 610.897 343.164 610.753 343.464C610.609 343.76 610.537 344.11 610.537 344.514V348H609.577V339.6H610.537V341.574L610.501 342.792C610.693 342.44 610.955 342.172 611.287 341.988C611.623 341.804 612.017 341.712 612.469 341.712ZM619.253 348.144C618.669 348.144 618.143 348.006 617.675 347.73C617.207 347.45 616.839 347.066 616.571 346.578C616.303 346.09 616.169 345.54 616.169 344.928C616.169 344.316 616.303 343.766 616.571 343.278C616.839 342.79 617.209 342.408 617.681 342.132C618.153 341.852 618.681 341.712 619.265 341.712C619.849 341.712 620.377 341.852 620.849 342.132C621.321 342.408 621.691 342.79 621.959 343.278C622.227 343.766 622.361 344.316 622.361 344.928C622.361 345.54 622.225 346.09 621.953 346.578C621.685 347.066 621.315 347.45 620.843 347.73C620.371 348.006 619.841 348.144 619.253 348.144ZM619.265 347.256C619.665 347.256 620.023 347.16 620.339 346.968C620.655 346.772 620.903 346.498 621.083 346.146C621.263 345.794 621.353 345.388 621.353 344.928C621.353 344.468 621.263 344.062 621.083 343.71C620.903 343.354 620.655 343.08 620.339 342.888C620.023 342.692 619.665 342.594 619.265 342.594C618.865 342.594 618.507 342.692 618.191 342.888C617.875 343.08 617.627 343.354 617.447 343.71C617.267 344.062 617.177 344.468 617.177 344.928C617.177 345.388 617.267 345.794 617.447 346.146C617.627 346.498 617.875 346.772 618.191 346.968C618.507 347.16 618.865 347.256 619.265 347.256ZM625.966 348.144C625.466 348.144 625.024 348.066 624.64 347.91C624.26 347.75 623.964 347.53 623.752 347.25C623.544 346.97 623.438 346.652 623.434 346.296H624.394C624.402 346.504 624.472 346.688 624.604 346.848C624.736 347.008 624.916 347.134 625.144 347.226C625.376 347.314 625.64 347.358 625.936 347.358C626.392 347.358 626.746 347.262 626.998 347.07C627.25 346.878 627.376 346.616 627.376 346.284C627.376 346.028 627.298 345.82 627.142 345.66C626.99 345.496 626.764 345.39 626.464 345.342L625.348 345.168C624.812 345.084 624.394 344.89 624.094 344.586C623.794 344.278 623.644 343.896 623.644 343.44C623.644 343.104 623.738 342.806 623.926 342.546C624.118 342.282 624.382 342.078 624.718 341.934C625.058 341.786 625.442 341.712 625.87 341.712C626.31 341.712 626.704 341.786 627.052 341.934C627.404 342.082 627.68 342.288 627.88 342.552C628.084 342.812 628.19 343.108 628.198 343.44H627.238C627.234 343.264 627.17 343.104 627.046 342.96C626.926 342.816 626.762 342.704 626.554 342.624C626.346 342.54 626.114 342.498 625.858 342.498C625.61 342.498 625.386 342.538 625.186 342.618C624.99 342.694 624.836 342.802 624.724 342.942C624.616 343.078 624.562 343.236 624.562 343.416C624.562 343.656 624.634 343.85 624.778 343.998C624.922 344.142 625.134 344.236 625.414 344.28L626.566 344.466C627.126 344.554 627.554 344.754 627.85 345.066C628.15 345.378 628.3 345.776 628.3 346.26C628.3 346.636 628.204 346.966 628.012 347.25C627.82 347.534 627.548 347.754 627.196 347.91C626.844 348.066 626.434 348.144 625.966 348.144Z" fill="black"/>
<path d="M482.814 252H481.854V243.6H482.814V252ZM485.838 252H484.878V245.856H485.838V252ZM484.812 244.74V243.6H485.904V244.74H484.812ZM490.793 245.712C491.253 245.712 491.655 245.812 491.999 246.012C492.343 246.208 492.607 246.488 492.791 246.852C492.979 247.216 493.073 247.64 493.073 248.124V252H492.113V248.196C492.113 247.672 491.977 247.264 491.705 246.972C491.437 246.676 491.063 246.528 490.583 246.528C490.239 246.528 489.937 246.602 489.677 246.75C489.417 246.894 489.215 247.102 489.071 247.374C488.931 247.646 488.861 247.966 488.861 248.334V252H487.901V245.856H488.825V246.798C489.021 246.438 489.285 246.168 489.617 245.988C489.949 245.804 490.341 245.712 490.793 245.712ZM499.059 245.856H500.019V252H499.095V251.058C498.899 251.418 498.635 251.69 498.303 251.874C497.971 252.054 497.579 252.144 497.127 252.144C496.667 252.144 496.265 252.046 495.921 251.85C495.577 251.65 495.311 251.368 495.123 251.004C494.939 250.64 494.847 250.216 494.847 249.732V245.856H495.807V249.66C495.807 250.184 495.941 250.594 496.209 250.89C496.481 251.182 496.857 251.328 497.337 251.328C497.681 251.328 497.983 251.256 498.243 251.112C498.503 250.964 498.703 250.754 498.843 250.482C498.987 250.21 499.059 249.89 499.059 249.522V245.856ZM504.637 248.85L506.869 252H505.777L504.085 249.582L502.411 252H501.361L503.599 248.832L501.481 245.856H502.573L504.145 248.1L505.699 245.856H506.749L504.637 248.85Z" fill="black"/>
<path d="M431.793 347C431.349 347 430.997 346.882 430.737 346.646C430.481 346.41 430.353 346.084 430.353 345.668L430.347 341.708H429.267L429.273 340.856H429.939C430.091 340.856 430.213 340.808 430.305 340.712C430.401 340.616 430.449 340.494 430.449 340.346V339.32H431.313V340.856H432.795L432.789 341.708H431.307L431.313 345.608C431.313 345.776 431.361 345.908 431.457 346.004C431.557 346.1 431.689 346.148 431.853 346.148H432.789V347H431.793ZM437.049 347H436.029L433.635 340.856H434.679L436.575 345.878L438.435 340.856H439.443L437.049 347ZM443.253 347.144C442.669 347.144 442.143 347.006 441.675 346.73C441.207 346.45 440.839 346.066 440.571 345.578C440.303 345.09 440.169 344.54 440.169 343.928C440.169 343.316 440.303 342.766 440.571 342.278C440.839 341.79 441.209 341.408 441.681 341.132C442.153 340.852 442.681 340.712 443.265 340.712C443.849 340.712 444.377 340.852 444.849 341.132C445.321 341.408 445.691 341.79 445.959 342.278C446.227 342.766 446.361 343.316 446.361 343.928C446.361 344.54 446.225 345.09 445.953 345.578C445.685 346.066 445.315 346.45 444.843 346.73C444.371 347.006 443.841 347.144 443.253 347.144ZM443.265 346.256C443.665 346.256 444.023 346.16 444.339 345.968C444.655 345.772 444.903 345.498 445.083 345.146C445.263 344.794 445.353 344.388 445.353 343.928C445.353 343.468 445.263 343.062 445.083 342.71C444.903 342.354 444.655 342.08 444.339 341.888C444.023 341.692 443.665 341.594 443.265 341.594C442.865 341.594 442.507 341.692 442.191 341.888C441.875 342.08 441.627 342.354 441.447 342.71C441.267 343.062 441.177 343.468 441.177 343.928C441.177 344.388 441.267 344.794 441.447 345.146C441.627 345.498 441.875 345.772 442.191 345.968C442.507 346.16 442.865 346.256 443.265 346.256ZM449.966 347.144C449.466 347.144 449.024 347.066 448.64 346.91C448.26 346.75 447.964 346.53 447.752 346.25C447.544 345.97 447.438 345.652 447.434 345.296H448.394C448.402 345.504 448.472 345.688 448.604 345.848C448.736 346.008 448.916 346.134 449.144 346.226C449.376 346.314 449.64 346.358 449.936 346.358C450.392 346.358 450.746 346.262 450.998 346.07C451.25 345.878 451.376 345.616 451.376 345.284C451.376 345.028 451.298 344.82 451.142 344.66C450.99 344.496 450.764 344.39 450.464 344.342L449.348 344.168C448.812 344.084 448.394 343.89 448.094 343.586C447.794 343.278 447.644 342.896 447.644 342.44C447.644 342.104 447.738 341.806 447.926 341.546C448.118 341.282 448.382 341.078 448.718 340.934C449.058 340.786 449.442 340.712 449.87 340.712C450.31 340.712 450.704 340.786 451.052 340.934C451.404 341.082 451.68 341.288 451.88 341.552C452.084 341.812 452.19 342.108 452.198 342.44H451.238C451.234 342.264 451.17 342.104 451.046 341.96C450.926 341.816 450.762 341.704 450.554 341.624C450.346 341.54 450.114 341.498 449.858 341.498C449.61 341.498 449.386 341.538 449.186 341.618C448.99 341.694 448.836 341.802 448.724 341.942C448.616 342.078 448.562 342.236 448.562 342.416C448.562 342.656 448.634 342.85 448.778 342.998C448.922 343.142 449.134 343.236 449.414 343.28L450.566 343.466C451.126 343.554 451.554 343.754 451.85 344.066C452.15 344.378 452.3 344.776 452.3 345.26C452.3 345.636 452.204 345.966 452.012 346.25C451.82 346.534 451.548 346.754 451.196 346.91C450.844 347.066 450.434 347.144 449.966 347.144Z" fill="black"/>
<rect x="52" y="370" width="120" height="24" rx="12" fill="url(#paint5_radial_1596_259)"/>
<rect x="52" y="398" width="120" height="24" rx="12" fill="url(#paint6_radial_1596_259)"/>
<path d="M86.7928 387H85.8328V380.856H86.7928V387ZM85.7668 379.74V378.6H86.8588V379.74H85.7668ZM91.4422 387.144C90.8582 387.144 90.3322 387.006 89.8642 386.73C89.3962 386.45 89.0282 386.066 88.7602 385.578C88.4922 385.09 88.3582 384.54 88.3582 383.928C88.3582 383.316 88.4922 382.766 88.7602 382.278C89.0282 381.79 89.3982 381.408 89.8702 381.132C90.3422 380.852 90.8702 380.712 91.4542 380.712C92.0382 380.712 92.5662 380.852 93.0382 381.132C93.5102 381.408 93.8802 381.79 94.1482 382.278C94.4162 382.766 94.5502 383.316 94.5502 383.928C94.5502 384.54 94.4142 385.09 94.1422 385.578C93.8742 386.066 93.5042 386.45 93.0322 386.73C92.5602 387.006 92.0302 387.144 91.4422 387.144ZM91.4542 386.256C91.8542 386.256 92.2122 386.16 92.5282 385.968C92.8442 385.772 93.0922 385.498 93.2722 385.146C93.4522 384.794 93.5422 384.388 93.5422 383.928C93.5422 383.468 93.4522 383.062 93.2722 382.71C93.0922 382.354 92.8442 382.08 92.5282 381.888C92.2122 381.692 91.8542 381.594 91.4542 381.594C91.0542 381.594 90.6962 381.692 90.3802 381.888C90.0642 382.08 89.8162 382.354 89.6362 382.71C89.4562 383.062 89.3662 383.468 89.3662 383.928C89.3662 384.388 89.4562 384.794 89.6362 385.146C89.8162 385.498 90.0642 385.772 90.3802 385.968C90.6962 386.16 91.0542 386.256 91.4542 386.256ZM98.1558 387.144C97.6558 387.144 97.2138 387.066 96.8298 386.91C96.4498 386.75 96.1538 386.53 95.9418 386.25C95.7338 385.97 95.6278 385.652 95.6238 385.296H96.5838C96.5918 385.504 96.6618 385.688 96.7938 385.848C96.9258 386.008 97.1058 386.134 97.3338 386.226C97.5658 386.314 97.8298 386.358 98.1258 386.358C98.5818 386.358 98.9358 386.262 99.1878 386.07C99.4398 385.878 99.5658 385.616 99.5658 385.284C99.5658 385.028 99.4878 384.82 99.3318 384.66C99.1798 384.496 98.9538 384.39 98.6538 384.342L97.5378 384.168C97.0018 384.084 96.5838 383.89 96.2838 383.586C95.9838 383.278 95.8338 382.896 95.8338 382.44C95.8338 382.104 95.9278 381.806 96.1158 381.546C96.3078 381.282 96.5718 381.078 96.9078 380.934C97.2478 380.786 97.6318 380.712 98.0598 380.712C98.4998 380.712 98.8938 380.786 99.2418 380.934C99.5938 381.082 99.8698 381.288 100.07 381.552C100.274 381.812 100.38 382.108 100.388 382.44H99.4278C99.4238 382.264 99.3598 382.104 99.2358 381.96C99.1158 381.816 98.9518 381.704 98.7438 381.624C98.5358 381.54 98.3038 381.498 98.0478 381.498C97.7998 381.498 97.5758 381.538 97.3758 381.618C97.1798 381.694 97.0258 381.802 96.9138 381.942C96.8058 382.078 96.7518 382.236 96.7518 382.416C96.7518 382.656 96.8238 382.85 96.9678 382.998C97.1118 383.142 97.3238 383.236 97.6038 383.28L98.7558 383.466C99.3158 383.554 99.7438 383.754 100.04 384.066C100.34 384.378 100.49 384.776 100.49 385.26C100.49 385.636 100.394 385.966 100.202 386.25C100.01 386.534 99.7378 386.754 99.3858 386.91C99.0338 387.066 98.6238 387.144 98.1558 387.144ZM102.422 387H101.33L104.36 378.6H105.596L108.746 387H107.69L106.88 384.768H103.166L102.422 387ZM104.828 379.914L103.472 383.904H106.556L105.116 379.914L104.972 379.422L104.828 379.914ZM113.014 380.796V381.798H112.792C112.232 381.798 111.792 381.966 111.472 382.302C111.152 382.638 110.992 383.11 110.992 383.718V387H110.032V380.856H110.992V382.092C111.164 381.676 111.404 381.356 111.712 381.132C112.024 380.908 112.396 380.796 112.828 380.796H113.014ZM121.161 380.712C121.609 380.712 122.001 380.814 122.337 381.018C122.677 381.218 122.937 381.5 123.117 381.864C123.301 382.228 123.393 382.648 123.393 383.124V387H122.433V383.166C122.433 382.646 122.309 382.244 122.061 381.96C121.817 381.672 121.469 381.528 121.017 381.528C120.673 381.528 120.375 381.61 120.123 381.774C119.871 381.934 119.677 382.164 119.541 382.464C119.405 382.764 119.337 383.114 119.337 383.514V387H118.377V383.166C118.377 382.65 118.249 382.248 117.993 381.96C117.737 381.672 117.381 381.528 116.925 381.528C116.581 381.528 116.285 381.61 116.037 381.774C115.793 381.934 115.605 382.164 115.473 382.464C115.345 382.764 115.281 383.114 115.281 383.514V387H114.321V380.856H115.245V381.762C115.437 381.426 115.689 381.168 116.001 380.988C116.317 380.804 116.683 380.712 117.099 380.712C117.547 380.712 117.945 380.82 118.293 381.036C118.641 381.252 118.905 381.55 119.085 381.93C119.293 381.546 119.575 381.248 119.931 381.036C120.291 380.82 120.701 380.712 121.161 380.712ZM128.217 387.144C127.797 387.144 127.387 387.06 126.987 386.892C126.591 386.72 126.259 386.488 125.991 386.196C125.675 385.852 125.433 385.412 125.265 384.876C125.101 384.336 125.019 383.716 125.019 383.016C125.019 382.12 125.159 381.328 125.439 380.64C125.719 379.948 126.109 379.412 126.609 379.032C127.113 378.648 127.687 378.456 128.331 378.456C128.755 378.456 129.163 378.538 129.555 378.702C129.947 378.866 130.277 379.096 130.545 379.392C130.817 379.688 130.991 380.024 131.067 380.4H130.059C130.019 380.192 129.913 380.008 129.741 379.848C129.569 379.684 129.357 379.558 129.105 379.47C128.853 379.378 128.595 379.332 128.331 379.332C127.863 379.332 127.451 379.482 127.095 379.782C126.743 380.082 126.467 380.514 126.267 381.078C126.067 381.642 125.961 382.31 125.949 383.082C126.069 382.778 126.255 382.504 126.507 382.26C126.759 382.012 127.053 381.818 127.389 381.678C127.725 381.538 128.075 381.468 128.439 381.468C128.983 381.468 129.467 381.59 129.891 381.834C130.315 382.074 130.643 382.41 130.875 382.842C131.111 383.27 131.229 383.758 131.229 384.306C131.229 384.858 131.101 385.35 130.845 385.782C130.593 386.21 130.239 386.544 129.783 386.784C129.327 387.024 128.805 387.144 128.217 387.144ZM128.259 386.268C128.639 386.268 128.975 386.186 129.267 386.022C129.563 385.854 129.791 385.622 129.951 385.326C130.115 385.03 130.197 384.692 130.197 384.312C130.197 383.932 130.115 383.594 129.951 383.298C129.787 382.998 129.555 382.764 129.255 382.596C128.955 382.428 128.609 382.344 128.217 382.344C127.825 382.344 127.475 382.43 127.167 382.602C126.863 382.774 126.625 383.01 126.453 383.31C126.285 383.606 126.201 383.936 126.201 384.3C126.201 384.668 126.289 385.002 126.465 385.302C126.641 385.602 126.885 385.838 127.197 386.01C127.513 386.182 127.867 386.268 128.259 386.268ZM137.346 378.6V384.03H138.654V384.93H137.346V387H136.362V384.93H132.102V383.994L136.356 378.6H137.346ZM136.362 379.908L133.152 384.03H136.362V379.908Z" fill="white"/>
<path d="M59.8924 414H58.9324V407.856H59.8924V414ZM58.8664 406.74V405.6H59.9584V406.74H58.8664ZM64.5418 414.144C63.9578 414.144 63.4318 414.006 62.9638 413.73C62.4958 413.45 62.1278 413.066 61.8598 412.578C61.5918 412.09 61.4578 411.54 61.4578 410.928C61.4578 410.316 61.5918 409.766 61.8598 409.278C62.1278 408.79 62.4978 408.408 62.9698 408.132C63.4418 407.852 63.9698 407.712 64.5538 407.712C65.1378 407.712 65.6658 407.852 66.1378 408.132C66.6098 408.408 66.9798 408.79 67.2478 409.278C67.5158 409.766 67.6498 410.316 67.6498 410.928C67.6498 411.54 67.5138 412.09 67.2418 412.578C66.9738 413.066 66.6038 413.45 66.1318 413.73C65.6598 414.006 65.1298 414.144 64.5418 414.144ZM64.5538 413.256C64.9538 413.256 65.3118 413.16 65.6278 412.968C65.9438 412.772 66.1918 412.498 66.3718 412.146C66.5518 411.794 66.6418 411.388 66.6418 410.928C66.6418 410.468 66.5518 410.062 66.3718 409.71C66.1918 409.354 65.9438 409.08 65.6278 408.888C65.3118 408.692 64.9538 408.594 64.5538 408.594C64.1538 408.594 63.7958 408.692 63.4798 408.888C63.1638 409.08 62.9158 409.354 62.7358 409.71C62.5558 410.062 62.4658 410.468 62.4658 410.928C62.4658 411.388 62.5558 411.794 62.7358 412.146C62.9158 412.498 63.1638 412.772 63.4798 412.968C63.7958 413.16 64.1538 413.256 64.5538 413.256ZM71.2555 414.144C70.7555 414.144 70.3135 414.066 69.9295 413.91C69.5495 413.75 69.2535 413.53 69.0415 413.25C68.8335 412.97 68.7275 412.652 68.7235 412.296H69.6835C69.6915 412.504 69.7615 412.688 69.8935 412.848C70.0255 413.008 70.2055 413.134 70.4335 413.226C70.6655 413.314 70.9295 413.358 71.2255 413.358C71.6815 413.358 72.0355 413.262 72.2875 413.07C72.5395 412.878 72.6655 412.616 72.6655 412.284C72.6655 412.028 72.5875 411.82 72.4315 411.66C72.2795 411.496 72.0535 411.39 71.7535 411.342L70.6375 411.168C70.1015 411.084 69.6835 410.89 69.3835 410.586C69.0835 410.278 68.9335 409.896 68.9335 409.44C68.9335 409.104 69.0275 408.806 69.2155 408.546C69.4075 408.282 69.6715 408.078 70.0075 407.934C70.3475 407.786 70.7315 407.712 71.1595 407.712C71.5995 407.712 71.9935 407.786 72.3415 407.934C72.6935 408.082 72.9695 408.288 73.1695 408.552C73.3735 408.812 73.4795 409.108 73.4875 409.44H72.5275C72.5235 409.264 72.4595 409.104 72.3355 408.96C72.2155 408.816 72.0515 408.704 71.8435 408.624C71.6355 408.54 71.4035 408.498 71.1475 408.498C70.8995 408.498 70.6755 408.538 70.4755 408.618C70.2795 408.694 70.1255 408.802 70.0135 408.942C69.9055 409.078 69.8515 409.236 69.8515 409.416C69.8515 409.656 69.9235 409.85 70.0675 409.998C70.2115 410.142 70.4235 410.236 70.7035 410.28L71.8555 410.466C72.4155 410.554 72.8435 410.754 73.1395 411.066C73.4395 411.378 73.5895 411.776 73.5895 412.26C73.5895 412.636 73.4935 412.966 73.3015 413.25C73.1095 413.534 72.8375 413.754 72.4855 413.91C72.1335 414.066 71.7235 414.144 71.2555 414.144ZM77.7897 414.144C77.2137 414.144 76.7017 414.038 76.2537 413.826C75.8097 413.614 75.4637 413.318 75.2157 412.938C74.9677 412.558 74.8437 412.122 74.8437 411.63H75.8637C75.8637 411.946 75.9457 412.226 76.1097 412.47C76.2737 412.714 76.5017 412.904 76.7937 413.04C77.0897 413.176 77.4257 413.244 77.8017 413.244C78.1737 413.244 78.5037 413.18 78.7917 413.052C79.0837 412.924 79.3097 412.744 79.4697 412.512C79.6297 412.28 79.7097 412.014 79.7097 411.714C79.7097 411.362 79.5997 411.06 79.3797 410.808C79.1597 410.552 78.8557 410.386 78.4677 410.31L76.9917 410.022C76.5957 409.946 76.2517 409.802 75.9597 409.59C75.6717 409.374 75.4497 409.108 75.2937 408.792C75.1377 408.476 75.0597 408.132 75.0597 407.76C75.0597 407.312 75.1757 406.914 75.4077 406.566C75.6397 406.218 75.9617 405.946 76.3737 405.75C76.7857 405.554 77.2537 405.456 77.7777 405.456C78.3097 405.456 78.7837 405.556 79.1997 405.756C79.6197 405.952 79.9457 406.226 80.1777 406.578C80.4137 406.93 80.5317 407.332 80.5317 407.784H79.5117C79.5117 407.508 79.4377 407.262 79.2897 407.046C79.1457 406.83 78.9417 406.662 78.6777 406.542C78.4177 406.418 78.1217 406.356 77.7897 406.356C77.4577 406.356 77.1597 406.416 76.8957 406.536C76.6357 406.656 76.4317 406.824 76.2837 407.04C76.1397 407.256 76.0677 407.504 76.0677 407.784C76.0677 408.12 76.1677 408.404 76.3677 408.636C76.5677 408.864 76.8517 409.016 77.2197 409.092L78.7617 409.398C79.1457 409.474 79.4857 409.624 79.7817 409.848C80.0777 410.068 80.3077 410.34 80.4717 410.664C80.6397 410.988 80.7237 411.338 80.7237 411.714C80.7237 412.19 80.5977 412.612 80.3457 412.98C80.0977 413.348 79.7497 413.634 79.3017 413.838C78.8577 414.042 78.3537 414.144 77.7897 414.144ZM83.4471 414H82.4871V407.856H83.4471V414ZM82.4211 406.74V405.6H83.5131V406.74H82.4211ZM92.3505 407.712C92.7985 407.712 93.1905 407.814 93.5265 408.018C93.8665 408.218 94.1265 408.5 94.3065 408.864C94.4905 409.228 94.5825 409.648 94.5825 410.124V414H93.6225V410.166C93.6225 409.646 93.4985 409.244 93.2505 408.96C93.0065 408.672 92.6585 408.528 92.2065 408.528C91.8625 408.528 91.5645 408.61 91.3125 408.774C91.0605 408.934 90.8665 409.164 90.7305 409.464C90.5945 409.764 90.5265 410.114 90.5265 410.514V414H89.5665V410.166C89.5665 409.65 89.4385 409.248 89.1825 408.96C88.9265 408.672 88.5705 408.528 88.1145 408.528C87.7705 408.528 87.4745 408.61 87.2265 408.774C86.9825 408.934 86.7945 409.164 86.6625 409.464C86.5345 409.764 86.4705 410.114 86.4705 410.514V414H85.5105V407.856H86.4345V408.762C86.6265 408.426 86.8785 408.168 87.1905 407.988C87.5065 407.804 87.8725 407.712 88.2885 407.712C88.7365 407.712 89.1345 407.82 89.4825 408.036C89.8305 408.252 90.0945 408.55 90.2745 408.93C90.4825 408.546 90.7645 408.248 91.1205 408.036C91.4805 407.82 91.8905 407.712 92.3505 407.712ZM100.571 407.856H101.531V414H100.607V413.058C100.411 413.418 100.147 413.69 99.8147 413.874C99.4827 414.054 99.0907 414.144 98.6387 414.144C98.1787 414.144 97.7767 414.046 97.4327 413.85C97.0887 413.65 96.8227 413.368 96.6347 413.004C96.4507 412.64 96.3587 412.216 96.3587 411.732V407.856H97.3187V411.66C97.3187 412.184 97.4527 412.594 97.7207 412.89C97.9927 413.182 98.3687 413.328 98.8487 413.328C99.1927 413.328 99.4947 413.256 99.7547 413.112C100.015 412.964 100.215 412.754 100.355 412.482C100.499 412.21 100.571 411.89 100.571 411.522V407.856ZM104.553 414H103.593V405.6H104.553V414ZM108.944 407.712C109.408 407.712 109.814 407.798 110.162 407.97C110.514 408.138 110.786 408.384 110.978 408.708C111.17 409.032 111.266 409.422 111.266 409.878V414H110.33V413.088C110.142 413.432 109.872 413.694 109.52 413.874C109.172 414.054 108.754 414.144 108.266 414.144C107.862 414.144 107.502 414.07 107.186 413.922C106.874 413.77 106.63 413.56 106.454 413.292C106.282 413.024 106.196 412.718 106.196 412.374C106.196 412.054 106.276 411.76 106.436 411.492C106.6 411.22 106.826 410.998 107.114 410.826C107.402 410.654 107.728 410.55 108.092 410.514L109.886 410.334C110.018 410.322 110.122 410.266 110.198 410.166C110.278 410.066 110.318 409.922 110.318 409.734C110.318 409.49 110.258 409.276 110.138 409.092C110.022 408.908 109.858 408.766 109.646 408.666C109.438 408.566 109.196 408.516 108.92 408.516C108.648 408.516 108.4 408.562 108.176 408.654C107.952 408.746 107.77 408.872 107.63 409.032C107.49 409.192 107.408 409.368 107.384 409.56H106.448C106.484 409.22 106.616 408.91 106.844 408.63C107.072 408.346 107.37 408.122 107.738 407.958C108.106 407.794 108.508 407.712 108.944 407.712ZM108.446 413.394C108.81 413.394 109.134 413.324 109.418 413.184C109.702 413.04 109.922 412.84 110.078 412.584C110.238 412.324 110.318 412.03 110.318 411.702V411.006L108.224 411.222C107.904 411.254 107.646 411.372 107.45 411.576C107.254 411.78 107.156 412.028 107.156 412.32C107.156 412.528 107.21 412.714 107.318 412.878C107.426 413.038 107.578 413.164 107.774 413.256C107.97 413.348 108.194 413.394 108.446 413.394ZM114.84 414C114.396 414 114.044 413.882 113.784 413.646C113.528 413.41 113.4 413.084 113.4 412.668L113.394 408.708H112.314L112.32 407.856H112.986C113.138 407.856 113.26 407.808 113.352 407.712C113.448 407.616 113.496 407.494 113.496 407.346V406.32H114.36V407.856H115.842L115.836 408.708H114.354L114.36 412.608C114.36 412.776 114.408 412.908 114.504 413.004C114.604 413.1 114.736 413.148 114.9 413.148H115.836V414H114.84ZM120.042 414.144C119.458 414.144 118.932 414.006 118.464 413.73C117.996 413.45 117.628 413.066 117.36 412.578C117.092 412.09 116.958 411.54 116.958 410.928C116.958 410.316 117.092 409.766 117.36 409.278C117.628 408.79 117.998 408.408 118.47 408.132C118.942 407.852 119.47 407.712 120.054 407.712C120.638 407.712 121.166 407.852 121.638 408.132C122.11 408.408 122.48 408.79 122.748 409.278C123.016 409.766 123.15 410.316 123.15 410.928C123.15 411.54 123.014 412.09 122.742 412.578C122.474 413.066 122.104 413.45 121.632 413.73C121.16 414.006 120.63 414.144 120.042 414.144ZM120.054 413.256C120.454 413.256 120.812 413.16 121.128 412.968C121.444 412.772 121.692 412.498 121.872 412.146C122.052 411.794 122.142 411.388 122.142 410.928C122.142 410.468 122.052 410.062 121.872 409.71C121.692 409.354 121.444 409.08 121.128 408.888C120.812 408.692 120.454 408.594 120.054 408.594C119.654 408.594 119.296 408.692 118.98 408.888C118.664 409.08 118.416 409.354 118.236 409.71C118.056 410.062 117.966 410.468 117.966 410.928C117.966 411.388 118.056 411.794 118.236 412.146C118.416 412.498 118.664 412.772 118.98 412.968C119.296 413.16 119.654 413.256 120.054 413.256ZM127.703 407.796V408.798H127.481C126.921 408.798 126.481 408.966 126.161 409.302C125.841 409.638 125.681 410.11 125.681 410.718V414H124.721V407.856H125.681V409.092C125.853 408.676 126.093 408.356 126.401 408.132C126.713 407.908 127.085 407.796 127.517 407.796H127.703ZM129.323 414H128.231L131.261 405.6H132.497L135.647 414H134.591L133.781 411.768H130.067L129.323 414ZM131.729 406.914L130.373 410.904H133.457L132.017 406.914L131.873 406.422L131.729 406.914ZM139.914 407.796V408.798H139.692C139.132 408.798 138.692 408.966 138.372 409.302C138.052 409.638 137.892 410.11 137.892 410.718V414H136.932V407.856H137.892V409.092C138.064 408.676 138.304 408.356 138.612 408.132C138.924 407.908 139.296 407.796 139.728 407.796H139.914ZM148.061 407.712C148.509 407.712 148.901 407.814 149.237 408.018C149.577 408.218 149.837 408.5 150.017 408.864C150.201 409.228 150.293 409.648 150.293 410.124V414H149.333V410.166C149.333 409.646 149.209 409.244 148.961 408.96C148.717 408.672 148.369 408.528 147.917 408.528C147.573 408.528 147.275 408.61 147.023 408.774C146.771 408.934 146.577 409.164 146.441 409.464C146.305 409.764 146.237 410.114 146.237 410.514V414H145.277V410.166C145.277 409.65 145.149 409.248 144.893 408.96C144.637 408.672 144.281 408.528 143.825 408.528C143.481 408.528 143.185 408.61 142.937 408.774C142.693 408.934 142.505 409.164 142.373 409.464C142.245 409.764 142.181 410.114 142.181 410.514V414H141.221V407.856H142.145V408.762C142.337 408.426 142.589 408.168 142.901 407.988C143.217 407.804 143.583 407.712 143.999 407.712C144.447 407.712 144.845 407.82 145.193 408.036C145.541 408.252 145.805 408.55 145.985 408.93C146.193 408.546 146.475 408.248 146.831 408.036C147.191 407.82 147.601 407.712 148.061 407.712ZM155.118 414.144C154.698 414.144 154.288 414.06 153.888 413.892C153.492 413.72 153.16 413.488 152.892 413.196C152.576 412.852 152.334 412.412 152.166 411.876C152.002 411.336 151.92 410.716 151.92 410.016C151.92 409.12 152.06 408.328 152.34 407.64C152.62 406.948 153.01 406.412 153.51 406.032C154.014 405.648 154.588 405.456 155.232 405.456C155.656 405.456 156.064 405.538 156.456 405.702C156.848 405.866 157.178 406.096 157.446 406.392C157.718 406.688 157.892 407.024 157.968 407.4H156.96C156.92 407.192 156.814 407.008 156.642 406.848C156.47 406.684 156.258 406.558 156.006 406.47C155.754 406.378 155.496 406.332 155.232 406.332C154.764 406.332 154.352 406.482 153.996 406.782C153.644 407.082 153.368 407.514 153.168 408.078C152.968 408.642 152.862 409.31 152.85 410.082C152.97 409.778 153.156 409.504 153.408 409.26C153.66 409.012 153.954 408.818 154.29 408.678C154.626 408.538 154.976 408.468 155.34 408.468C155.884 408.468 156.368 408.59 156.792 408.834C157.216 409.074 157.544 409.41 157.776 409.842C158.012 410.27 158.13 410.758 158.13 411.306C158.13 411.858 158.002 412.35 157.746 412.782C157.494 413.21 157.14 413.544 156.684 413.784C156.228 414.024 155.706 414.144 155.118 414.144ZM155.16 413.268C155.54 413.268 155.876 413.186 156.168 413.022C156.464 412.854 156.692 412.622 156.852 412.326C157.016 412.03 157.098 411.692 157.098 411.312C157.098 410.932 157.016 410.594 156.852 410.298C156.688 409.998 156.456 409.764 156.156 409.596C155.856 409.428 155.51 409.344 155.118 409.344C154.726 409.344 154.376 409.43 154.068 409.602C153.764 409.774 153.526 410.01 153.354 410.31C153.186 410.606 153.102 410.936 153.102 411.3C153.102 411.668 153.19 412.002 153.366 412.302C153.542 412.602 153.786 412.838 154.098 413.01C154.414 413.182 154.768 413.268 155.16 413.268ZM164.246 405.6V411.03H165.554V411.93H164.246V414H163.262V411.93H159.002V410.994L163.256 405.6H164.246ZM163.262 406.908L160.052 411.03H163.262V406.908Z" fill="white"/>
<path d="M534 117.537L534.35 117.537L534 117.537ZM520 103.537L520 103.887L520 103.537ZM372 103.537L372 103.187L372 103.537ZM358 79L360.021 82.5L355.979 82.5L358 79ZM533.65 132L533.65 117.537L534.35 117.537L534.35 132L533.65 132ZM520 103.887L372 103.887L372 103.187L520 103.187L520 103.887ZM357.65 89.537L357.65 82.15L358.35 82.15L358.35 89.537L357.65 89.537ZM372 103.887C364.075 103.887 357.65 97.4623 357.65 89.537L358.35 89.537C358.35 97.0757 364.461 103.187 372 103.187L372 103.887ZM533.65 117.537C533.65 109.998 527.539 103.887 520 103.887L520 103.187C527.925 103.187 534.35 109.612 534.35 117.537L533.65 117.537Z" fill="black"/>
<path d="M492 213L491.65 213L492 213ZM478 199L478 199.35L478 199ZM372 199L372 198.65L372 199ZM358 174L360.021 177.5L355.979 177.5L358 174ZM491.65 228L491.65 213L492.35 213L492.35 228L491.65 228ZM478 199.35L372 199.35L372 198.65L478 198.65L478 199.35ZM357.65 185L357.65 177.15L358.35 177.15L358.35 185L357.65 185ZM372 199.35C364.075 199.35 357.65 192.925 357.65 185L358.35 185C358.35 192.539 364.461 198.65 372 198.65L372 199.35ZM491.65 213C491.65 205.461 485.539 199.35 478 199.35L478 198.65C485.925 198.65 492.35 205.075 492.35 213L491.65 213Z" fill="black"/>
<path d="M444 309L444.35 309L444 309ZM373 295L373 295.35L373 295ZM359 270L361.021 273.5L356.979 273.5L359 270ZM443.65 324L443.65 309L444.35 309L444.35 324L443.65 324ZM430 295.35L373 295.35L373 294.65L430 294.65L430 295.35ZM358.65 281L358.65 273.15L359.35 273.15L359.35 281L358.65 281ZM373 295.35C365.075 295.35 358.65 288.925 358.65 281L359.35 281C359.35 288.539 365.461 294.65 373 294.65L373 295.35ZM443.65 309C443.65 301.461 437.539 295.35 430 295.35L430 294.65C437.925 294.65 444.35 301.075 444.35 309L443.65 309Z" fill="black"/>
<path d="M72 117.537L72.35 117.537L72 117.537ZM86 103.537L86 103.887L86 103.537ZM334 103.537L334 103.187L334 103.537ZM348 79L345.979 82.5L350.021 82.5L348 79ZM72.35 132L72.35 117.537L71.65 117.537L71.65 132L72.35 132ZM86 103.887L334 103.887L334 103.187L86 103.187L86 103.887ZM348.35 89.537L348.35 82.15L347.65 82.15L347.65 89.537L348.35 89.537ZM334 103.887C341.925 103.887 348.35 97.4623 348.35 89.537L347.65 89.537C347.65 97.0757 341.539 103.187 334 103.187L334 103.887ZM72.35 117.537C72.35 109.998 78.4613 103.887 86 103.887L86 103.187C78.0747 103.187 71.65 109.612 71.65 117.537L72.35 117.537Z" fill="black"/>
<path d="M637 213L637.35 213L637 213ZM623 199L623 199.35L623 199ZM372 199L372 198.65L372 199ZM358 174L360.021 177.5L355.979 177.5L358 174ZM636.65 228L636.65 213L637.35 213L637.35 228L636.65 228ZM623 199.35L372 199.35L372 198.65L623 198.65L623 199.35ZM357.65 185L357.65 177.15L358.35 177.15L358.35 185L357.65 185ZM372 199.35C364.075 199.35 357.65 192.925 357.65 185L358.35 185C358.35 192.539 364.461 198.65 372 198.65L372 199.35ZM636.65 213C636.65 205.461 630.539 199.35 623 199.35L623 198.65C630.925 198.65 637.35 205.075 637.35 213L636.65 213Z" fill="black"/>
<path d="M612 309L611.65 309L612 309ZM598 295L598 295.35L598 295ZM373 295L373 294.65L373 295ZM359 270L361.021 273.5L356.979 273.5L359 270ZM611.65 324L611.65 309L612.35 309L612.35 324L611.65 324ZM598 295.35L373 295.35L373 294.65L598 294.65L598 295.35ZM358.65 281L358.65 273.15L359.35 273.15L359.35 281L358.65 281ZM373 295.35C365.075 295.35 358.65 288.925 358.65 281L359.35 281C359.35 288.539 365.461 294.65 373 294.65L373 295.35ZM611.65 309C611.65 301.461 605.539 295.35 598 295.35L598 294.65C605.925 294.65 612.35 301.075 612.35 309L611.65 309Z" fill="black"/>
<path d="M197 117.537L196.65 117.537L197 117.537ZM211 103.537L211 103.887L211 103.537ZM334 103.537L334 103.187L334 103.537ZM348 79L345.979 82.5L350.021 82.5L348 79ZM197.35 132L197.35 117.537L196.65 117.537L196.65 132L197.35 132ZM211 103.887L334 103.887L334 103.187L211 103.187L211 103.887ZM348.35 89.537L348.35 82.15L347.65 82.15L347.65 89.537L348.35 89.537ZM334 103.887C341.925 103.887 348.35 97.4623 348.35 89.537L347.65 89.537C347.65 97.0757 341.539 103.187 334 103.187L334 103.887ZM197.35 117.537C197.35 109.998 203.461 103.887 211 103.887L211 103.187C203.075 103.187 196.65 109.612 196.65 117.537L197.35 117.537Z" fill="black"/>
<path d="M168 212.537L168.35 212.537L168 212.537ZM182 198.537L182 198.887L182 198.537ZM334 198.537L334 198.187L334 198.537ZM348 174L345.979 177.5L350.021 177.5L348 174ZM168.35 227L168.35 212.537L167.65 212.537L167.65 227L168.35 227ZM182 198.887L334 198.887L334 198.187L182 198.187L182 198.887ZM348.35 184.537L348.35 177.15L347.65 177.15L347.65 184.537L348.35 184.537ZM334 198.887C341.925 198.887 348.35 192.462 348.35 184.537L347.65 184.537C347.65 192.076 341.539 198.187 334 198.187L334 198.887ZM168.35 212.537C168.35 204.998 174.461 198.887 182 198.887L182 198.187C174.075 198.187 167.65 204.612 167.65 212.537L168.35 212.537Z" fill="black"/>
<path d="M108 308.537L107.65 308.537L108 308.537ZM122 294.537L122 294.887L122 294.537ZM335 294.537L335 294.187L335 294.537ZM349 270L346.979 273.5L351.021 273.5L349 270ZM108.35 323L108.35 308.537L107.65 308.537L107.65 323L108.35 323ZM122 294.887L335 294.887L335 294.187L122 294.187L122 294.887ZM349.35 280.537L349.35 273.15L348.65 273.15L348.65 280.537L349.35 280.537ZM335 294.887C342.925 294.887 349.35 288.462 349.35 280.537L348.65 280.537C348.65 288.076 342.539 294.187 335 294.187L335 294.887ZM108.35 308.537C108.35 300.998 114.461 294.887 122 294.887L122 294.187C114.075 294.187 107.65 300.612 107.65 308.537L108.35 308.537Z" fill="black"/>
<path d="M276 309L276.35 309L276 309ZM290 295L290 295.35L290 295ZM335 295L335 294.65L335 295ZM349 270L346.979 273.5L351.021 273.5L349 270ZM276.35 324L276.35 309L275.65 309L275.65 324L276.35 324ZM290 295.35L335 295.35L335 294.65L290 294.65L290 295.35ZM349.35 281L349.35 273.15L348.65 273.15L348.65 281L349.35 281ZM335 295.35C342.925 295.35 349.35 288.925 349.35 281L348.65 281C348.65 288.539 342.539 294.65 335 294.65L335 295.35ZM276.35 309C276.35 301.461 282.461 295.35 290 295.35L290 294.65C282.075 294.65 275.65 301.075 275.65 309L276.35 309Z" fill="black"/>
<path d="M353 79L350.979 82.5L355.021 82.5L353 79ZM353.35 132L353.35 82.15L352.65 82.15L352.65 132L353.35 132Z" fill="black"/>
<path d="M353 174L350.979 177.5L355.021 177.5L353 174ZM353.35 228L353.35 177.15L352.65 177.15L352.65 228L353.35 228Z" fill="black"/>
<defs>
<radialGradient id="paint0_radial_1596_259" cx="0" cy="0" r="1" gradientUnits="userSpaceOnUse" gradientTransform="translate(289.664 172.603) scale(116.977 148.045)">
<stop stop-color="#EB4857"/>
<stop offset="0.5" stop-color="#C611E0"/>
<stop offset="1" stop-color="#7F52FF"/>
</radialGradient>
<radialGradient id="paint1_radial_1596_259" cx="0" cy="0" r="1" gradientUnits="userSpaceOnUse" gradientTransform="translate(292.664 268.603) scale(116.977 148.045)">
<stop stop-color="#EB4857"/>
<stop offset="0.5" stop-color="#C611E0"/>
<stop offset="1" stop-color="#7F52FF"/>
</radialGradient>
<radialGradient id="paint2_radial_1596_259" cx="0" cy="0" r="1" gradientUnits="userSpaceOnUse" gradientTransform="translate(51.6642 367.603) scale(116.977 148.045)">
<stop stop-color="#EB4857"/>
<stop offset="0.5" stop-color="#C611E0"/>
<stop offset="1" stop-color="#7F52FF"/>
</radialGradient>
<radialGradient id="paint3_radial_1596_259" cx="0" cy="0" r="1" gradientUnits="userSpaceOnUse" gradientTransform="translate(473.664 172.603) scale(116.977 148.045)">
<stop stop-color="#EB4857"/>
<stop offset="0.5" stop-color="#C611E0"/>
<stop offset="1" stop-color="#7F52FF"/>
</radialGradient>
<radialGradient id="paint4_radial_1596_259" cx="0" cy="0" r="1" gradientUnits="userSpaceOnUse" gradientTransform="translate(254.449 77.7987) scale(192.038 196.159)">
<stop stop-color="#EB4857"/>
<stop offset="0.5" stop-color="#C611E0"/>
<stop offset="1" stop-color="#7F52FF"/>
</radialGradient>
<radialGradient id="paint5_radial_1596_259" cx="0" cy="0" r="1" gradientUnits="userSpaceOnUse" gradientTransform="translate(51.6642 394.362) scale(116.977 88.8269)">
<stop stop-color="#EB4857"/>
<stop offset="0.5" stop-color="#C611E0"/>
<stop offset="1" stop-color="#7F52FF"/>
</radialGradient>
<radialGradient id="paint6_radial_1596_259" cx="0" cy="0" r="1" gradientUnits="userSpaceOnUse" gradientTransform="translate(51.6642 422.362) scale(116.977 88.8269)">
<stop stop-color="#EB4857"/>
<stop offset="0.5" stop-color="#C611E0"/>
<stop offset="1" stop-color="#7F52FF"/>
</radialGradient>
</defs>
</svg>
