<svg width="751" height="288" viewBox="0 0 751 288" fill="none" xmlns="http://www.w3.org/2000/svg">
<rect width="751" height="288" fill="white"/>
<path d="M528 134H432C425.373 134 420 139.373 420 146V162C420 168.627 425.373 174 432 174H528C534.627 174 540 168.627 540 162V146C540 139.373 534.627 134 528 134Z" fill="#F2F2F2"/>
<path d="M463.742 150.832H464.82V153.933H464.372C464.372 153.27 464.487 152.694 464.715 152.204C464.944 151.709 465.271 151.329 465.695 151.063C466.12 150.797 466.619 150.664 467.193 150.664C467.707 150.664 468.162 150.774 468.558 150.993C468.955 151.212 469.265 151.537 469.489 151.966C469.718 152.391 469.832 152.902 469.832 153.499V158H468.712V153.611C468.712 153.196 468.638 152.841 468.488 152.547C468.344 152.253 468.136 152.029 467.865 151.875C467.595 151.721 467.273 151.644 466.899 151.644C466.498 151.644 466.143 151.733 465.835 151.91C465.527 152.087 465.287 152.337 465.114 152.659C464.946 152.976 464.862 153.34 464.862 153.751V158H463.742V150.832ZM474.514 150.664C475.069 150.664 475.547 150.767 475.949 150.972C476.355 151.173 476.665 151.462 476.88 151.84C477.099 152.218 477.209 152.666 477.209 153.184V158H476.103V155.319H476.523C476.523 155.888 476.411 156.39 476.187 156.824C475.967 157.253 475.655 157.585 475.249 157.818C474.843 158.051 474.371 158.168 473.835 158.168C473.377 158.168 472.964 158.079 472.596 157.902C472.232 157.72 471.947 157.473 471.742 157.16C471.536 156.843 471.434 156.488 471.434 156.096C471.434 155.718 471.532 155.368 471.728 155.046C471.924 154.719 472.194 154.453 472.54 154.248C472.885 154.038 473.275 153.91 473.709 153.863L475.585 153.653C475.743 153.634 475.869 153.576 475.963 153.478C476.056 153.375 476.112 153.214 476.131 152.995L476.173 154.437L473.87 154.689C473.622 154.717 473.401 154.794 473.205 154.92C473.013 155.046 472.864 155.207 472.757 155.403C472.649 155.599 472.596 155.811 472.596 156.04C472.596 156.273 472.659 156.481 472.785 156.663C472.911 156.845 473.086 156.987 473.31 157.09C473.538 157.188 473.8 157.237 474.094 157.237C474.481 157.237 474.826 157.158 475.13 156.999C475.433 156.836 475.669 156.609 475.837 156.32C476.005 156.031 476.089 155.697 476.089 155.319V153.044C476.089 152.759 476.023 152.512 475.893 152.302C475.767 152.092 475.585 151.931 475.347 151.819C475.109 151.702 474.831 151.644 474.514 151.644C474.192 151.644 473.907 151.695 473.66 151.798C473.417 151.896 473.223 152.029 473.079 152.197C472.934 152.365 472.843 152.545 472.806 152.736H471.686C471.746 152.349 471.9 151.999 472.148 151.686C472.4 151.369 472.729 151.119 473.135 150.937C473.541 150.755 474 150.664 474.514 150.664ZM481.736 158C481.395 158 481.085 157.928 480.805 157.783C480.529 157.634 480.312 157.431 480.154 157.174C479.995 156.913 479.916 156.623 479.916 156.306L479.909 151.826H478.649L478.656 150.832H479.433C479.61 150.832 479.752 150.776 479.86 150.664C479.972 150.552 480.028 150.41 480.028 150.237V149.082H481.036V150.832H482.975L482.968 151.826H481.029L481.036 156.236C481.036 156.455 481.108 156.64 481.253 156.789C481.402 156.934 481.586 157.006 481.806 157.006H482.968V158H481.736ZM484.715 150.832H485.835V158H484.715V150.832ZM484.659 148.2H485.891V149.474H484.659V148.2ZM487.25 150.832H488.461L490.652 156.495L492.759 150.832H493.956L491.135 158H490.085L487.25 150.832ZM498.335 158.168C497.658 158.168 497.047 158.007 496.501 157.685C495.955 157.363 495.525 156.915 495.213 156.341C494.9 155.767 494.744 155.121 494.744 154.402C494.744 153.702 494.902 153.067 495.22 152.498C495.537 151.924 495.969 151.476 496.515 151.154C497.065 150.827 497.672 150.664 498.335 150.664C499.016 150.664 499.62 150.823 500.148 151.14C500.675 151.453 501.086 151.894 501.38 152.463C501.674 153.032 501.821 153.683 501.821 154.416V154.668H495.857L495.871 154.381C495.875 154.936 495.98 155.424 496.186 155.844C496.396 156.259 496.685 156.581 497.054 156.81C497.422 157.039 497.849 157.153 498.335 157.153C498.769 157.153 499.154 157.069 499.49 156.901C499.826 156.733 500.101 156.493 500.316 156.18H501.562C501.384 156.591 501.139 156.945 500.827 157.244C500.519 157.538 500.152 157.767 499.728 157.93C499.303 158.089 498.839 158.168 498.335 158.168ZM495.857 153.779H500.701V154.402C500.701 153.865 500.6 153.392 500.4 152.981C500.204 152.566 499.926 152.244 499.567 152.015C499.207 151.786 498.797 151.672 498.335 151.672C497.854 151.672 497.427 151.784 497.054 152.008C496.68 152.232 496.389 152.547 496.179 152.953C495.973 153.359 495.871 153.826 495.871 154.353L495.857 153.779Z" fill="black"/>
<path d="M644.742 148.832H645.82V151.933H645.372C645.372 151.27 645.487 150.694 645.715 150.204C645.944 149.709 646.271 149.329 646.695 149.063C647.12 148.797 647.619 148.664 648.193 148.664C648.707 148.664 649.162 148.774 649.558 148.993C649.955 149.212 650.265 149.537 650.489 149.966C650.718 150.391 650.832 150.902 650.832 151.499V156H649.712V151.611C649.712 151.196 649.638 150.841 649.488 150.547C649.344 150.253 649.136 150.029 648.865 149.875C648.595 149.721 648.273 149.644 647.899 149.644C647.498 149.644 647.143 149.733 646.835 149.91C646.527 150.087 646.287 150.337 646.114 150.659C645.946 150.976 645.862 151.34 645.862 151.751V156H644.742V148.832ZM655.514 148.664C656.069 148.664 656.547 148.767 656.949 148.972C657.355 149.173 657.665 149.462 657.88 149.84C658.099 150.218 658.209 150.666 658.209 151.184V156H657.103V153.319H657.523C657.523 153.888 657.411 154.39 657.187 154.824C656.967 155.253 656.655 155.585 656.249 155.818C655.843 156.051 655.371 156.168 654.835 156.168C654.377 156.168 653.964 156.079 653.596 155.902C653.232 155.72 652.947 155.473 652.742 155.16C652.536 154.843 652.434 154.488 652.434 154.096C652.434 153.718 652.532 153.368 652.728 153.046C652.924 152.719 653.194 152.453 653.54 152.248C653.885 152.038 654.275 151.91 654.709 151.863L656.585 151.653C656.743 151.634 656.869 151.576 656.963 151.478C657.056 151.375 657.112 151.214 657.131 150.995L657.173 152.437L654.87 152.689C654.622 152.717 654.401 152.794 654.205 152.92C654.013 153.046 653.864 153.207 653.757 153.403C653.649 153.599 653.596 153.811 653.596 154.04C653.596 154.273 653.659 154.481 653.785 154.663C653.911 154.845 654.086 154.987 654.31 155.09C654.538 155.188 654.8 155.237 655.094 155.237C655.481 155.237 655.826 155.158 656.13 154.999C656.433 154.836 656.669 154.609 656.837 154.32C657.005 154.031 657.089 153.697 657.089 153.319V151.044C657.089 150.759 657.023 150.512 656.893 150.302C656.767 150.092 656.585 149.931 656.347 149.819C656.109 149.702 655.831 149.644 655.514 149.644C655.192 149.644 654.907 149.695 654.66 149.798C654.417 149.896 654.223 150.029 654.079 150.197C653.934 150.365 653.843 150.545 653.806 150.736H652.686C652.746 150.349 652.9 149.999 653.148 149.686C653.4 149.369 653.729 149.119 654.135 148.937C654.541 148.755 655 148.664 655.514 148.664ZM662.736 156C662.395 156 662.085 155.928 661.805 155.783C661.529 155.634 661.312 155.431 661.154 155.174C660.995 154.913 660.916 154.623 660.916 154.306L660.909 149.826H659.649L659.656 148.832H660.433C660.61 148.832 660.752 148.776 660.86 148.664C660.972 148.552 661.028 148.41 661.028 148.237V147.082H662.036V148.832H663.975L663.968 149.826H662.029L662.036 154.236C662.036 154.455 662.108 154.64 662.253 154.789C662.402 154.934 662.586 155.006 662.806 155.006H663.968V156H662.736ZM665.715 148.832H666.835V156H665.715V148.832ZM665.659 146.2H666.891V147.474H665.659V146.2ZM668.25 148.832H669.461L671.652 154.495L673.759 148.832H674.956L672.135 156H671.085L668.25 148.832ZM679.335 156.168C678.658 156.168 678.047 156.007 677.501 155.685C676.955 155.363 676.525 154.915 676.213 154.341C675.9 153.767 675.744 153.121 675.744 152.402C675.744 151.702 675.902 151.067 676.22 150.498C676.537 149.924 676.969 149.476 677.515 149.154C678.065 148.827 678.672 148.664 679.335 148.664C680.016 148.664 680.62 148.823 681.148 149.14C681.675 149.453 682.086 149.894 682.38 150.463C682.674 151.032 682.821 151.683 682.821 152.416V152.668H676.857L676.871 152.381C676.875 152.936 676.98 153.424 677.186 153.844C677.396 154.259 677.685 154.581 678.054 154.81C678.422 155.039 678.849 155.153 679.335 155.153C679.769 155.153 680.154 155.069 680.49 154.901C680.826 154.733 681.101 154.493 681.316 154.18H682.562C682.384 154.591 682.139 154.945 681.827 155.244C681.519 155.538 681.152 155.767 680.728 155.93C680.303 156.089 679.839 156.168 679.335 156.168ZM676.857 151.779H681.701V152.402C681.701 151.865 681.6 151.392 681.4 150.981C681.204 150.566 680.926 150.244 680.567 150.015C680.207 149.786 679.797 149.672 679.335 149.672C678.854 149.672 678.427 149.784 678.054 150.008C677.68 150.232 677.389 150.547 677.179 150.953C676.973 151.359 676.871 151.826 676.871 152.353L676.857 151.779Z" fill="black"/>
<path d="M346.4 225H269.6C264.298 225 260 230.238 260 236.7V252.3C260 258.762 264.298 264 269.6 264H346.4C351.702 264 356 258.762 356 252.3V236.7C356 230.238 351.702 225 346.4 225Z" fill="url(#paint0_radial_2032_28)"/>
<path d="M107.4 226H30.6C25.2981 226 21 231.238 21 237.7V253.3C21 259.762 25.2981 265 30.6 265H107.4C112.702 265 117 259.762 117 253.3V237.7C117 231.238 112.702 226 107.4 226Z" fill="url(#paint1_radial_2032_28)"/>
<path d="M63.1885 250.232H63.8045C64.0331 250.232 64.2175 250.16 64.3575 250.015C64.5021 249.875 64.5745 249.691 64.5745 249.462V241.832H65.6945V249.49C65.6945 249.831 65.6175 250.134 65.4635 250.4C65.3095 250.666 65.0948 250.871 64.8195 251.016C64.5441 251.165 64.2291 251.24 63.8745 251.24H63.1885V250.232ZM64.5185 239.2H65.7505V240.474H64.5185V239.2ZM70.4152 249.168C69.8645 249.168 69.3745 249.082 68.9452 248.909C68.5159 248.732 68.1752 248.482 67.9232 248.16C67.6712 247.838 67.5312 247.462 67.5032 247.033H68.6232C68.6512 247.271 68.7445 247.479 68.9032 247.656C69.0619 247.833 69.2695 247.971 69.5262 248.069C69.7829 248.167 70.0745 248.216 70.4012 248.216C70.7279 248.216 71.0172 248.165 71.2692 248.062C71.5259 247.959 71.7242 247.817 71.8642 247.635C72.0042 247.448 72.0742 247.236 72.0742 246.998C72.0742 246.83 72.0369 246.674 71.9622 246.529C71.8922 246.384 71.7895 246.263 71.6542 246.165C71.5189 246.067 71.3602 246.002 71.1782 245.969L69.6312 245.682C69.2439 245.612 68.9102 245.488 68.6302 245.311C68.3502 245.129 68.1332 244.905 67.9792 244.639C67.8299 244.373 67.7552 244.074 67.7552 243.743C67.7552 243.351 67.8625 242.999 68.0772 242.686C68.2919 242.369 68.5929 242.119 68.9802 241.937C69.3722 241.755 69.8202 241.664 70.3242 241.664C70.8422 241.664 71.2972 241.748 71.6892 241.916C72.0812 242.079 72.3892 242.317 72.6132 242.63C72.8419 242.938 72.9725 243.304 73.0052 243.729H71.8852C71.8572 243.5 71.7732 243.302 71.6332 243.134C71.4932 242.961 71.3089 242.828 71.0802 242.735C70.8562 242.642 70.6042 242.595 70.3242 242.595C70.0349 242.595 69.7782 242.644 69.5542 242.742C69.3302 242.835 69.1575 242.971 69.0362 243.148C68.9149 243.321 68.8542 243.519 68.8542 243.743C68.8542 243.99 68.9359 244.189 69.0992 244.338C69.2625 244.483 69.5262 244.59 69.8902 244.66L71.4232 244.947C71.7872 245.017 72.0999 245.15 72.3612 245.346C72.6272 245.537 72.8279 245.778 72.9632 246.067C73.1032 246.352 73.1732 246.662 73.1732 246.998C73.1732 247.413 73.0519 247.787 72.8092 248.118C72.5712 248.449 72.2422 248.708 71.8222 248.895C71.4022 249.077 70.9332 249.168 70.4152 249.168Z" fill="white"/>
<path d="M284.775 242.832H285.979L287.68 247.984L287.841 248.593L287.988 247.984L289.745 242.832H290.816L292.601 247.984L292.762 248.593L292.909 247.984L294.575 242.832H295.751L293.273 250H292.167L290.417 244.61L290.284 244.113L290.165 244.596L288.338 250H287.246L284.775 242.832ZM299.662 242.664C300.217 242.664 300.696 242.767 301.097 242.972C301.503 243.173 301.813 243.462 302.028 243.84C302.247 244.218 302.357 244.666 302.357 245.184V250H301.251V247.319H301.671C301.671 247.888 301.559 248.39 301.335 248.824C301.116 249.253 300.803 249.585 300.397 249.818C299.991 250.051 299.52 250.168 298.983 250.168C298.526 250.168 298.113 250.079 297.744 249.902C297.38 249.72 297.095 249.473 296.89 249.16C296.685 248.843 296.582 248.488 296.582 248.096C296.582 247.718 296.68 247.368 296.876 247.046C297.072 246.719 297.343 246.453 297.688 246.248C298.033 246.038 298.423 245.91 298.857 245.863L300.733 245.653C300.892 245.634 301.018 245.576 301.111 245.478C301.204 245.375 301.26 245.214 301.279 244.995L301.321 246.437L299.018 246.689C298.771 246.717 298.549 246.794 298.353 246.92C298.162 247.046 298.012 247.207 297.905 247.403C297.798 247.599 297.744 247.811 297.744 248.04C297.744 248.273 297.807 248.481 297.933 248.663C298.059 248.845 298.234 248.987 298.458 249.09C298.687 249.188 298.948 249.237 299.242 249.237C299.629 249.237 299.975 249.158 300.278 248.999C300.581 248.836 300.817 248.609 300.985 248.32C301.153 248.031 301.237 247.697 301.237 247.319V245.044C301.237 244.759 301.172 244.512 301.041 244.302C300.915 244.092 300.733 243.931 300.495 243.819C300.257 243.702 299.979 243.644 299.662 243.644C299.34 243.644 299.055 243.695 298.808 243.798C298.565 243.896 298.372 244.029 298.227 244.197C298.082 244.365 297.991 244.545 297.954 244.736H296.834C296.895 244.349 297.049 243.999 297.296 243.686C297.548 243.369 297.877 243.119 298.283 242.937C298.689 242.755 299.149 242.664 299.662 242.664ZM306.877 250.168C306.326 250.168 305.836 250.082 305.407 249.909C304.978 249.732 304.637 249.482 304.385 249.16C304.133 248.838 303.993 248.462 303.965 248.033H305.085C305.113 248.271 305.206 248.479 305.365 248.656C305.524 248.833 305.731 248.971 305.988 249.069C306.245 249.167 306.536 249.216 306.863 249.216C307.19 249.216 307.479 249.165 307.731 249.062C307.988 248.959 308.186 248.817 308.326 248.635C308.466 248.448 308.536 248.236 308.536 247.998C308.536 247.83 308.499 247.674 308.424 247.529C308.354 247.384 308.251 247.263 308.116 247.165C307.981 247.067 307.822 247.002 307.64 246.969L306.093 246.682C305.706 246.612 305.372 246.488 305.092 246.311C304.812 246.129 304.595 245.905 304.441 245.639C304.292 245.373 304.217 245.074 304.217 244.743C304.217 244.351 304.324 243.999 304.539 243.686C304.754 243.369 305.055 243.119 305.442 242.937C305.834 242.755 306.282 242.664 306.786 242.664C307.304 242.664 307.759 242.748 308.151 242.916C308.543 243.079 308.851 243.317 309.075 243.63C309.304 243.938 309.434 244.304 309.467 244.729H308.347C308.319 244.5 308.235 244.302 308.095 244.134C307.955 243.961 307.771 243.828 307.542 243.735C307.318 243.642 307.066 243.595 306.786 243.595C306.497 243.595 306.24 243.644 306.016 243.742C305.792 243.835 305.619 243.971 305.498 244.148C305.377 244.321 305.316 244.519 305.316 244.743C305.316 244.99 305.398 245.189 305.561 245.338C305.724 245.483 305.988 245.59 306.352 245.66L307.885 245.947C308.249 246.017 308.562 246.15 308.823 246.346C309.089 246.537 309.29 246.778 309.425 247.067C309.565 247.352 309.635 247.662 309.635 247.998C309.635 248.413 309.514 248.787 309.271 249.118C309.033 249.449 308.704 249.708 308.284 249.895C307.864 250.077 307.395 250.168 306.877 250.168ZM311.449 242.832H312.527V245.933H312.149C312.149 245.261 312.252 244.68 312.457 244.19C312.667 243.7 312.968 243.324 313.36 243.063C313.752 242.797 314.219 242.664 314.76 242.664C315.269 242.664 315.715 242.781 316.097 243.014C316.48 243.243 316.776 243.569 316.986 243.994C317.196 244.419 317.301 244.913 317.301 245.478V250H316.181V245.527C316.181 245.135 316.114 244.797 315.978 244.512C315.848 244.223 315.654 244.001 315.397 243.847C315.145 243.693 314.842 243.616 314.487 243.616C314.1 243.616 313.762 243.702 313.472 243.875C313.183 244.048 312.959 244.295 312.8 244.617C312.646 244.939 312.569 245.317 312.569 245.751V250H311.449V242.832ZM320.913 245.527C320.913 245.135 320.846 244.797 320.71 244.512C320.58 244.223 320.388 244.001 320.136 243.847C319.884 243.693 319.579 243.616 319.219 243.616C318.837 243.616 318.501 243.705 318.211 243.882C317.922 244.055 317.698 244.302 317.539 244.624C317.381 244.941 317.301 245.317 317.301 245.751L316.671 245.933C316.671 245.289 316.783 244.72 317.007 244.225C317.231 243.73 317.551 243.348 317.966 243.077C318.386 242.802 318.874 242.664 319.429 242.664C319.938 242.664 320.388 242.781 320.78 243.014C321.177 243.243 321.485 243.569 321.704 243.994C321.924 244.419 322.033 244.913 322.033 245.478V250H320.913V245.527ZM322.967 248.915H324.493C324.801 248.915 325.076 248.847 325.319 248.712C325.566 248.572 325.758 248.381 325.893 248.138C326.033 247.891 326.103 247.613 326.103 247.305V240.2H327.265V247.375C327.265 247.874 327.148 248.325 326.915 248.726C326.682 249.123 326.36 249.435 325.949 249.664C325.538 249.888 325.076 250 324.563 250H322.967V248.915ZM332.102 250.168C331.551 250.168 331.061 250.082 330.632 249.909C330.202 249.732 329.862 249.482 329.61 249.16C329.358 248.838 329.218 248.462 329.19 248.033H330.31C330.338 248.271 330.431 248.479 330.59 248.656C330.748 248.833 330.956 248.971 331.213 249.069C331.469 249.167 331.761 249.216 332.088 249.216C332.414 249.216 332.704 249.165 332.956 249.062C333.212 248.959 333.411 248.817 333.551 248.635C333.691 248.448 333.761 248.236 333.761 247.998C333.761 247.83 333.723 247.674 333.649 247.529C333.579 247.384 333.476 247.263 333.341 247.165C333.205 247.067 333.047 247.002 332.865 246.969L331.318 246.682C330.93 246.612 330.597 246.488 330.317 246.311C330.037 246.129 329.82 245.905 329.666 245.639C329.516 245.373 329.442 245.074 329.442 244.743C329.442 244.351 329.549 243.999 329.764 243.686C329.978 243.369 330.279 243.119 330.667 242.937C331.059 242.755 331.507 242.664 332.011 242.664C332.529 242.664 332.984 242.748 333.376 242.916C333.768 243.079 334.076 243.317 334.3 243.63C334.528 243.938 334.659 244.304 334.692 244.729H333.572C333.544 244.5 333.46 244.302 333.32 244.134C333.18 243.961 332.995 243.828 332.767 243.735C332.543 243.642 332.291 243.595 332.011 243.595C331.721 243.595 331.465 243.644 331.241 243.742C331.017 243.835 330.844 243.971 330.723 244.148C330.601 244.321 330.541 244.519 330.541 244.743C330.541 244.99 330.622 245.189 330.786 245.338C330.949 245.483 331.213 245.59 331.577 245.66L333.11 245.947C333.474 246.017 333.786 246.15 334.048 246.346C334.314 246.537 334.514 246.778 334.65 247.067C334.79 247.352 334.86 247.662 334.86 247.998C334.86 248.413 334.738 248.787 334.496 249.118C334.258 249.449 333.929 249.708 333.509 249.895C333.089 250.077 332.62 250.168 332.102 250.168Z" fill="white"/>
<path d="M250 136H154C147.373 136 142 141.373 142 148V164C142 170.627 147.373 176 154 176H250C256.627 176 262 170.627 262 164V148C262 141.373 256.627 136 250 136Z" fill="url(#paint2_radial_2032_28)"/>
<path d="M187.404 152.832H188.608L190.309 157.984L190.47 158.593L190.617 157.984L192.374 152.832H193.445L195.23 157.984L195.391 158.593L195.538 157.984L197.204 152.832H198.38L195.902 160H194.796L193.046 154.61L192.913 154.113L192.794 154.596L190.967 160H189.875L187.404 152.832ZM202.802 160.168C202.125 160.168 201.514 160.007 200.968 159.685C200.422 159.363 199.992 158.915 199.68 158.341C199.367 157.767 199.211 157.121 199.211 156.402C199.211 155.702 199.369 155.067 199.687 154.498C200.004 153.924 200.436 153.476 200.982 153.154C201.532 152.827 202.139 152.664 202.802 152.664C203.483 152.664 204.087 152.823 204.615 153.14C205.142 153.453 205.553 153.894 205.847 154.463C206.141 155.032 206.288 155.683 206.288 156.416V156.668H200.324L200.338 156.381C200.342 156.936 200.447 157.424 200.653 157.844C200.863 158.259 201.152 158.581 201.521 158.81C201.889 159.039 202.316 159.153 202.802 159.153C203.236 159.153 203.621 159.069 203.957 158.901C204.293 158.733 204.568 158.493 204.783 158.18H206.029C205.851 158.591 205.606 158.945 205.294 159.244C204.986 159.538 204.619 159.767 204.195 159.93C203.77 160.089 203.306 160.168 202.802 160.168ZM200.324 155.779H205.168V156.402C205.168 155.865 205.067 155.392 204.867 154.981C204.671 154.566 204.393 154.244 204.034 154.015C203.674 153.786 203.264 153.672 202.802 153.672C202.321 153.672 201.894 153.784 201.521 154.008C201.147 154.232 200.856 154.547 200.646 154.953C200.44 155.359 200.338 155.826 200.338 156.353L200.324 155.779ZM208.076 150.2H209.196V160H208.076V150.2ZM211.828 160.168C211.212 160.168 210.669 160.033 210.197 159.762C209.726 159.487 209.357 159.104 209.091 158.614C208.83 158.119 208.695 157.548 208.685 156.899H209.147V155.933H208.685C208.695 155.284 208.83 154.715 209.091 154.225C209.357 153.73 209.726 153.348 210.197 153.077C210.669 152.802 211.212 152.664 211.828 152.664C212.496 152.664 213.088 152.823 213.606 153.14C214.129 153.453 214.535 153.894 214.824 154.463C215.118 155.032 215.265 155.683 215.265 156.416C215.265 157.149 215.118 157.8 214.824 158.369C214.535 158.938 214.129 159.382 213.606 159.699C213.088 160.012 212.496 160.168 211.828 160.168ZM211.653 159.153C212.129 159.153 212.552 159.039 212.92 158.81C213.289 158.577 213.576 158.255 213.781 157.844C213.987 157.429 214.089 156.953 214.089 156.416C214.089 155.879 213.987 155.406 213.781 154.995C213.576 154.58 213.289 154.258 212.92 154.029C212.552 153.796 212.129 153.679 211.653 153.679C211.173 153.679 210.746 153.796 210.372 154.029C209.999 154.258 209.707 154.58 209.497 154.995C209.292 155.406 209.189 155.879 209.189 156.416C209.189 156.953 209.292 157.429 209.497 157.844C209.707 158.255 209.999 158.577 210.372 158.81C210.746 159.039 211.173 159.153 211.653 159.153Z" fill="white"/>
<path d="M344 134H308C301.373 134 296 139.373 296 146V162C296 168.627 301.373 174 308 174H344C350.627 174 356 168.627 356 162V146C356 139.373 350.627 134 344 134Z" fill="#F2F2F2"/>
<path d="M712 134H616C609.373 134 604 139.373 604 146V162C604 168.627 609.373 174 616 174H712C718.627 174 724 168.627 724 162V146C724 139.373 718.627 134 712 134Z" fill="#F2F2F2"/>
<path d="M620.951 150.664C621.506 150.664 621.985 150.767 622.386 150.972C622.792 151.173 623.102 151.462 623.317 151.84C623.536 152.218 623.646 152.666 623.646 153.184V158H622.54V155.319H622.96C622.96 155.888 622.848 156.39 622.624 156.824C622.405 157.253 622.092 157.585 621.686 157.818C621.28 158.051 620.809 158.168 620.272 158.168C619.815 158.168 619.402 158.079 619.033 157.902C618.669 157.72 618.384 157.473 618.179 157.16C617.974 156.843 617.871 156.488 617.871 156.096C617.871 155.718 617.969 155.368 618.165 155.046C618.361 154.719 618.632 154.453 618.977 154.248C619.322 154.038 619.712 153.91 620.146 153.863L622.022 153.653C622.181 153.634 622.307 153.576 622.4 153.478C622.493 153.375 622.549 153.214 622.568 152.995L622.61 154.437L620.307 154.689C620.06 154.717 619.838 154.794 619.642 154.92C619.451 155.046 619.301 155.207 619.194 155.403C619.087 155.599 619.033 155.811 619.033 156.04C619.033 156.273 619.096 156.481 619.222 156.663C619.348 156.845 619.523 156.987 619.747 157.09C619.976 157.188 620.237 157.237 620.531 157.237C620.918 157.237 621.264 157.158 621.567 156.999C621.87 156.836 622.106 156.609 622.274 156.32C622.442 156.031 622.526 155.697 622.526 155.319V153.044C622.526 152.759 622.461 152.512 622.33 152.302C622.204 152.092 622.022 151.931 621.784 151.819C621.546 151.702 621.268 151.644 620.951 151.644C620.629 151.644 620.344 151.695 620.097 151.798C619.854 151.896 619.661 152.029 619.516 152.197C619.371 152.365 619.28 152.545 619.243 152.736H618.123C618.184 152.349 618.338 151.999 618.585 151.686C618.837 151.369 619.166 151.119 619.572 150.937C619.978 150.755 620.438 150.664 620.951 150.664ZM625.793 150.832H626.871V153.933H626.423C626.423 153.27 626.538 152.694 626.766 152.204C626.995 151.709 627.322 151.329 627.746 151.063C628.171 150.797 628.67 150.664 629.244 150.664C629.758 150.664 630.213 150.774 630.609 150.993C631.006 151.212 631.316 151.537 631.54 151.966C631.769 152.391 631.883 152.902 631.883 153.499V158H630.763V153.611C630.763 153.196 630.689 152.841 630.539 152.547C630.395 152.253 630.187 152.029 629.916 151.875C629.646 151.721 629.324 151.644 628.95 151.644C628.549 151.644 628.194 151.733 627.886 151.91C627.578 152.087 627.338 152.337 627.165 152.659C626.997 152.976 626.913 153.34 626.913 153.751V158H625.793V150.832ZM639.546 148.2H640.666V158H639.546V148.2ZM636.907 158.168C636.24 158.168 635.645 158.012 635.122 157.699C634.604 157.382 634.198 156.938 633.904 156.369C633.615 155.8 633.47 155.149 633.47 154.416C633.47 153.683 633.615 153.032 633.904 152.463C634.198 151.894 634.604 151.453 635.122 151.14C635.645 150.823 636.24 150.664 636.907 150.664C637.523 150.664 638.067 150.802 638.538 151.077C639.01 151.348 639.376 151.73 639.637 152.225C639.903 152.715 640.041 153.284 640.05 153.933H639.588V154.899H640.05C640.041 155.548 639.903 156.119 639.637 156.614C639.376 157.104 639.01 157.487 638.538 157.762C638.067 158.033 637.523 158.168 636.907 158.168ZM637.082 157.153C637.563 157.153 637.99 157.039 638.363 156.81C638.737 156.577 639.026 156.255 639.231 155.844C639.441 155.429 639.546 154.953 639.546 154.416C639.546 153.879 639.441 153.406 639.231 152.995C639.026 152.58 638.737 152.258 638.363 152.029C637.99 151.796 637.563 151.679 637.082 151.679C636.606 151.679 636.184 151.796 635.815 152.029C635.447 152.258 635.16 152.58 634.954 152.995C634.749 153.406 634.646 153.879 634.646 154.416C634.646 154.953 634.749 155.429 634.954 155.844C635.16 156.255 635.447 156.577 635.815 156.81C636.184 157.039 636.606 157.153 637.082 157.153ZM643.02 150.832H644.14V153.233L643.671 153.933C643.689 153.289 643.806 152.729 644.021 152.253C644.24 151.772 644.543 151.404 644.931 151.147C645.318 150.89 645.768 150.762 646.282 150.762H646.534V151.931H646.24C645.815 151.931 645.444 152.013 645.127 152.176C644.809 152.339 644.564 152.573 644.392 152.876C644.224 153.175 644.14 153.527 644.14 153.933V158H643.02V150.832ZM651.056 158.168C650.37 158.168 649.747 158.005 649.187 157.678C648.632 157.351 648.195 156.903 647.878 156.334C647.561 155.76 647.402 155.121 647.402 154.416C647.402 153.711 647.561 153.074 647.878 152.505C648.195 151.931 648.632 151.481 649.187 151.154C649.747 150.827 650.37 150.664 651.056 150.664C651.742 150.664 652.363 150.827 652.918 151.154C653.478 151.481 653.917 151.931 654.234 152.505C654.551 153.074 654.71 153.711 654.71 154.416C654.71 155.121 654.551 155.76 654.234 156.334C653.917 156.903 653.478 157.351 652.918 157.678C652.363 158.005 651.742 158.168 651.056 158.168ZM651.056 157.146C651.541 157.146 651.971 157.032 652.344 156.803C652.722 156.57 653.014 156.248 653.219 155.837C653.429 155.422 653.534 154.948 653.534 154.416C653.534 153.879 653.429 153.406 653.219 152.995C653.014 152.58 652.722 152.258 652.344 152.029C651.971 151.796 651.541 151.679 651.056 151.679C650.571 151.679 650.139 151.796 649.761 152.029C649.388 152.258 649.096 152.58 648.886 152.995C648.681 153.406 648.578 153.879 648.578 154.416C648.578 154.948 648.681 155.422 648.886 155.837C649.096 156.248 649.388 156.57 649.761 156.803C650.139 157.032 650.571 157.146 651.056 157.146ZM656.5 150.832H657.62V158H656.5V150.832ZM656.444 148.2H657.676V149.474H656.444V148.2ZM665.482 148.2H666.602V158H665.482V148.2ZM662.843 158.168C662.176 158.168 661.581 158.012 661.058 157.699C660.54 157.382 660.134 156.938 659.84 156.369C659.551 155.8 659.406 155.149 659.406 154.416C659.406 153.683 659.551 153.032 659.84 152.463C660.134 151.894 660.54 151.453 661.058 151.14C661.581 150.823 662.176 150.664 662.843 150.664C663.459 150.664 664.003 150.802 664.474 151.077C664.945 151.348 665.312 151.73 665.573 152.225C665.839 152.715 665.977 153.284 665.986 153.933H665.524V154.899H665.986C665.977 155.548 665.839 156.119 665.573 156.614C665.312 157.104 664.945 157.487 664.474 157.762C664.003 158.033 663.459 158.168 662.843 158.168ZM663.018 157.153C663.499 157.153 663.926 157.039 664.299 156.81C664.672 156.577 664.962 156.255 665.167 155.844C665.377 155.429 665.482 154.953 665.482 154.416C665.482 153.879 665.377 153.406 665.167 152.995C664.962 152.58 664.672 152.258 664.299 152.029C663.926 151.796 663.499 151.679 663.018 151.679C662.542 151.679 662.12 151.796 661.751 152.029C661.382 152.258 661.095 152.58 660.89 152.995C660.685 153.406 660.582 153.879 660.582 154.416C660.582 154.953 660.685 155.429 660.89 155.844C661.095 156.255 661.382 156.577 661.751 156.81C662.12 157.039 662.542 157.153 663.018 157.153ZM668.185 148.2H675.745V149.285H672.553V158H671.391V149.285H668.185V148.2ZM678.551 150.664C679.106 150.664 679.584 150.767 679.986 150.972C680.392 151.173 680.702 151.462 680.917 151.84C681.136 152.218 681.246 152.666 681.246 153.184V158H680.14V155.319H680.56C680.56 155.888 680.448 156.39 680.224 156.824C680.004 157.253 679.692 157.585 679.286 157.818C678.88 158.051 678.408 158.168 677.872 158.168C677.414 158.168 677.001 158.079 676.633 157.902C676.269 157.72 675.984 157.473 675.779 157.16C675.573 156.843 675.471 156.488 675.471 156.096C675.471 155.718 675.569 155.368 675.765 155.046C675.961 154.719 676.231 154.453 676.577 154.248C676.922 154.038 677.312 153.91 677.746 153.863L679.622 153.653C679.78 153.634 679.906 153.576 680 153.478C680.093 153.375 680.149 153.214 680.168 152.995L680.21 154.437L677.907 154.689C677.659 154.717 677.438 154.794 677.242 154.92C677.05 155.046 676.901 155.207 676.794 155.403C676.686 155.599 676.633 155.811 676.633 156.04C676.633 156.273 676.696 156.481 676.822 156.663C676.948 156.845 677.123 156.987 677.347 157.09C677.575 157.188 677.837 157.237 678.131 157.237C678.518 157.237 678.863 157.158 679.167 156.999C679.47 156.836 679.706 156.609 679.874 156.32C680.042 156.031 680.126 155.697 680.126 155.319V153.044C680.126 152.759 680.06 152.512 679.93 152.302C679.804 152.092 679.622 151.931 679.384 151.819C679.146 151.702 678.868 151.644 678.551 151.644C678.229 151.644 677.944 151.695 677.697 151.798C677.454 151.896 677.26 152.029 677.116 152.197C676.971 152.365 676.88 152.545 676.843 152.736H675.723C675.783 152.349 675.937 151.999 676.185 151.686C676.437 151.369 676.766 151.119 677.172 150.937C677.578 150.755 678.037 150.664 678.551 150.664ZM683.393 150.832H684.513V153.233L684.044 153.933C684.062 153.289 684.179 152.729 684.394 152.253C684.613 151.772 684.916 151.404 685.304 151.147C685.691 150.89 686.141 150.762 686.655 150.762H686.907V151.931H686.613C686.188 151.931 685.817 152.013 685.5 152.176C685.182 152.339 684.937 152.573 684.765 152.876C684.597 153.175 684.513 153.527 684.513 153.933V158H683.393V150.832ZM691.38 160.408C690.853 160.408 690.36 160.319 689.903 160.142C689.45 159.965 689.068 159.715 688.755 159.393C688.447 159.076 688.239 158.709 688.132 158.294H689.28C689.341 158.504 689.471 158.691 689.672 158.854C689.873 159.022 690.12 159.153 690.414 159.246C690.713 159.339 691.035 159.386 691.38 159.386C691.823 159.386 692.22 159.302 692.57 159.134C692.925 158.966 693.2 158.73 693.396 158.427C693.597 158.124 693.697 157.771 693.697 157.37V156.936L693.753 154.976L694.334 154.262C694.325 154.925 694.187 155.51 693.921 156.019C693.66 156.523 693.291 156.915 692.815 157.195C692.339 157.47 691.788 157.608 691.163 157.608C690.514 157.608 689.94 157.461 689.441 157.167C688.942 156.873 688.554 156.462 688.279 155.935C688.008 155.408 687.873 154.808 687.873 154.136C687.873 153.464 688.008 152.864 688.279 152.337C688.554 151.81 688.942 151.399 689.441 151.105C689.94 150.811 690.514 150.664 691.163 150.664C691.788 150.664 692.339 150.804 692.815 151.084C693.291 151.359 693.66 151.751 693.921 152.26C694.187 152.764 694.325 153.352 694.334 154.024L693.753 153.394V150.832H694.838L694.817 157.37C694.817 157.963 694.67 158.488 694.376 158.945C694.082 159.407 693.674 159.766 693.151 160.023C692.633 160.28 692.043 160.408 691.38 160.408ZM691.38 156.621C691.833 156.621 692.234 156.518 692.584 156.313C692.939 156.103 693.214 155.809 693.41 155.431C693.606 155.053 693.706 154.621 693.711 154.136C693.706 153.651 693.606 153.219 693.41 152.841C693.214 152.463 692.939 152.171 692.584 151.966C692.234 151.756 691.833 151.651 691.38 151.651C690.923 151.651 690.517 151.756 690.162 151.966C689.807 152.171 689.532 152.463 689.336 152.841C689.145 153.219 689.049 153.651 689.049 154.136C689.049 154.621 689.145 155.053 689.336 155.431C689.532 155.809 689.807 156.103 690.162 156.313C690.517 156.518 690.923 156.621 691.38 156.621ZM700.335 158.168C699.658 158.168 699.047 158.007 698.501 157.685C697.955 157.363 697.525 156.915 697.213 156.341C696.9 155.767 696.744 155.121 696.744 154.402C696.744 153.702 696.902 153.067 697.22 152.498C697.537 151.924 697.969 151.476 698.515 151.154C699.065 150.827 699.672 150.664 700.335 150.664C701.016 150.664 701.62 150.823 702.148 151.14C702.675 151.453 703.086 151.894 703.38 152.463C703.674 153.032 703.821 153.683 703.821 154.416V154.668H697.857L697.871 154.381C697.875 154.936 697.98 155.424 698.186 155.844C698.396 156.259 698.685 156.581 699.054 156.81C699.422 157.039 699.849 157.153 700.335 157.153C700.769 157.153 701.154 157.069 701.49 156.901C701.826 156.733 702.101 156.493 702.316 156.18H703.562C703.384 156.591 703.139 156.945 702.827 157.244C702.519 157.538 702.152 157.767 701.728 157.93C701.303 158.089 700.839 158.168 700.335 158.168ZM697.857 153.779H702.701V154.402C702.701 153.865 702.6 153.392 702.4 152.981C702.204 152.566 701.926 152.244 701.567 152.015C701.207 151.786 700.797 151.672 700.335 151.672C699.854 151.672 699.427 151.784 699.054 152.008C698.68 152.232 698.389 152.547 698.179 152.953C697.973 153.359 697.871 153.826 697.871 154.353L697.857 153.779ZM707.949 158C707.608 158 707.298 157.928 707.018 157.783C706.742 157.634 706.525 157.431 706.367 157.174C706.208 156.913 706.129 156.623 706.129 156.306L706.122 151.826H704.862L704.869 150.832H705.646C705.823 150.832 705.965 150.776 706.073 150.664C706.185 150.552 706.241 150.41 706.241 150.237V149.082H707.249V150.832H709.188L709.181 151.826H707.242L707.249 156.236C707.249 156.455 707.321 156.64 707.466 156.789C707.615 156.934 707.799 157.006 708.019 157.006H709.181V158H707.949Z" fill="black"/>
<path fill-rule="evenodd" clip-rule="evenodd" d="M571 26H398C391.373 26 386 31.3726 386 38V67C386 73.6274 391.373 79 398 79H571C577.627 79 583 73.6274 583 67V38C583 31.3726 577.627 26 571 26Z" fill="url(#paint3_radial_2032_28)"/>
<path d="M488 81L490.021 84.5H485.979L488 81ZM663.65 134V119.537H664.35V134H663.65ZM650 105.887H502V105.187H650V105.887ZM487.65 91.537V84.15H488.35V91.537H487.65ZM502 105.887C494.075 105.887 487.65 99.4623 487.65 91.537H488.35C488.35 99.0757 494.461 105.187 502 105.187V105.887ZM663.65 119.537C663.65 111.998 657.539 105.887 650 105.887V105.187C657.925 105.187 664.35 111.612 664.35 119.537H663.65Z" fill="black"/>
<path d="M210.497 176L211.994 179.241H209L210.497 176ZM309.482 226V212.111H310V226H309.482ZM299.372 199.472H220.866V198.824H299.372V199.472ZM210.238 186.185V178.917H210.756V186.185H210.238ZM220.866 199.472C214.996 199.472 210.238 193.523 210.238 186.185H210.756C210.756 193.166 215.282 198.824 220.866 198.824V199.472ZM309.482 212.111C309.482 205.131 304.956 199.472 299.372 199.472V198.824C305.241 198.824 310 204.773 310 212.111H309.482Z" fill="black"/>
<path d="M478 81L475.979 84.5H480.021L478 81ZM202.35 134V119.537H201.65V134H202.35ZM216 105.887H464V105.187H216V105.887ZM478.35 91.537V84.15H477.65V91.537H478.35ZM464 105.887C471.925 105.887 478.35 99.4623 478.35 91.537H477.65C477.65 99.0757 471.539 105.187 464 105.187V105.887ZM202.35 119.537C202.35 111.998 208.461 105.887 216 105.887V105.187C208.075 105.187 201.65 111.612 201.65 119.537H202.35Z" fill="black"/>
<path d="M478 81L475.979 84.5H480.021L478 81ZM327.35 134V119.537H326.65V134H327.35ZM341 105.887H464V105.187H341V105.887ZM478.35 91.537V84.15H477.65V91.537H478.35ZM464 105.887C471.925 105.887 478.35 99.4623 478.35 91.537H477.65C477.65 99.0757 471.539 105.187 464 105.187V105.887ZM327.35 119.537C327.35 111.998 333.461 105.887 341 105.887V105.187C333.075 105.187 326.65 111.612 326.65 119.537H327.35Z" fill="black"/>
<path d="M203.493 176L201.986 179.236H205L203.493 176ZM69.522 225V211.629H69V225H69.522ZM79.7013 199.009H193.053V198.362H79.7013V199.009ZM203.754 185.742V178.912H203.232V185.742H203.754ZM193.053 199.009C198.963 199.009 203.754 193.069 203.754 185.742H203.232C203.232 192.712 198.675 198.362 193.053 198.362V199.009ZM69.522 211.629C69.522 204.659 74.0792 199.009 79.7013 199.009V198.362C73.7913 198.362 69 204.302 69 211.629H69.522Z" fill="black"/>
<path d="M483 81L480.979 84.5H485.021L483 81ZM483.35 134V84.15H482.65V134H483.35Z" fill="black"/>
<path d="M459.312 57.168C458.635 57.168 458.024 57.0047 457.478 56.678C456.932 56.3513 456.503 55.9033 456.19 55.334C455.882 54.76 455.728 54.1207 455.728 53.416C455.728 52.7113 455.882 52.0743 456.19 51.505C456.503 50.931 456.932 50.4807 457.478 50.154C458.024 49.8273 458.635 49.664 459.312 49.664C459.849 49.664 460.341 49.7667 460.789 49.972C461.242 50.1727 461.622 50.4597 461.93 50.833C462.243 51.2063 462.467 51.6403 462.602 52.135H461.377C461.265 51.8363 461.109 51.5797 460.908 51.365C460.707 51.1457 460.469 50.9777 460.194 50.861C459.923 50.7397 459.629 50.679 459.312 50.679C458.85 50.679 458.435 50.7957 458.066 51.029C457.702 51.2623 457.417 51.5867 457.212 52.002C457.007 52.4173 456.904 52.8887 456.904 53.416C456.904 53.9387 457.007 54.4077 457.212 54.823C457.417 55.2383 457.702 55.565 458.066 55.803C458.435 56.0363 458.85 56.153 459.312 56.153C459.629 56.153 459.923 56.0947 460.194 55.978C460.469 55.8567 460.707 55.6887 460.908 55.474C461.109 55.2547 461.265 54.9957 461.377 54.697H462.602C462.467 55.1917 462.243 55.6257 461.93 55.999C461.622 56.3723 461.242 56.6617 460.789 56.867C460.341 57.0677 459.849 57.168 459.312 57.168ZM467.38 57.168C466.694 57.168 466.071 57.0047 465.511 56.678C464.956 56.3513 464.52 55.9033 464.202 55.334C463.885 54.76 463.726 54.1207 463.726 53.416C463.726 52.7113 463.885 52.0743 464.202 51.505C464.52 50.931 464.956 50.4807 465.511 50.154C466.071 49.8273 466.694 49.664 467.38 49.664C468.066 49.664 468.687 49.8273 469.242 50.154C469.802 50.4807 470.241 50.931 470.558 51.505C470.876 52.0743 471.034 52.7113 471.034 53.416C471.034 54.1207 470.876 54.76 470.558 55.334C470.241 55.9033 469.802 56.3513 469.242 56.678C468.687 57.0047 468.066 57.168 467.38 57.168ZM467.38 56.146C467.866 56.146 468.295 56.0317 468.668 55.803C469.046 55.5697 469.338 55.2477 469.543 54.837C469.753 54.4217 469.858 53.948 469.858 53.416C469.858 52.8793 469.753 52.4057 469.543 51.995C469.338 51.5797 469.046 51.2577 468.668 51.029C468.295 50.7957 467.866 50.679 467.38 50.679C466.895 50.679 466.463 50.7957 466.085 51.029C465.712 51.2577 465.42 51.5797 465.21 51.995C465.005 52.4057 464.902 52.8793 464.902 53.416C464.902 53.948 465.005 54.4217 465.21 54.837C465.42 55.2477 465.712 55.5697 466.085 55.803C466.463 56.0317 466.895 56.146 467.38 56.146ZM472.824 49.832H473.902V52.933H473.524C473.524 52.261 473.627 51.68 473.832 51.19C474.042 50.7 474.343 50.3243 474.735 50.063C475.127 49.797 475.594 49.664 476.135 49.664C476.644 49.664 477.09 49.7807 477.472 50.014C477.855 50.2427 478.151 50.5693 478.361 50.994C478.571 51.4187 478.676 51.9133 478.676 52.478V57H477.556V52.527C477.556 52.135 477.489 51.7967 477.353 51.512C477.223 51.2227 477.029 51.001 476.772 50.847C476.52 50.693 476.217 50.616 475.862 50.616C475.475 50.616 475.137 50.7023 474.847 50.875C474.558 51.0477 474.334 51.295 474.175 51.617C474.021 51.939 473.944 52.317 473.944 52.751V57H472.824V49.832ZM482.288 52.527C482.288 52.135 482.221 51.7967 482.085 51.512C481.955 51.2227 481.763 51.001 481.511 50.847C481.259 50.693 480.954 50.616 480.594 50.616C480.212 50.616 479.876 50.7047 479.586 50.882C479.297 51.0547 479.073 51.302 478.914 51.624C478.756 51.9413 478.676 52.317 478.676 52.751L478.046 52.933C478.046 52.289 478.158 51.7197 478.382 51.225C478.606 50.7303 478.926 50.3477 479.341 50.077C479.761 49.8017 480.249 49.664 480.804 49.664C481.313 49.664 481.763 49.7807 482.155 50.014C482.552 50.2427 482.86 50.5693 483.079 50.994C483.299 51.4187 483.408 51.9133 483.408 52.478V57H482.288V52.527ZM485.553 49.832H486.631V52.933H486.253C486.253 52.261 486.356 51.68 486.561 51.19C486.771 50.7 487.072 50.3243 487.464 50.063C487.856 49.797 488.323 49.664 488.864 49.664C489.373 49.664 489.818 49.7807 490.201 50.014C490.584 50.2427 490.88 50.5693 491.09 50.994C491.3 51.4187 491.405 51.9133 491.405 52.478V57H490.285V52.527C490.285 52.135 490.217 51.7967 490.082 51.512C489.951 51.2227 489.758 51.001 489.501 50.847C489.249 50.693 488.946 50.616 488.591 50.616C488.204 50.616 487.865 50.7023 487.576 50.875C487.287 51.0477 487.063 51.295 486.904 51.617C486.75 51.939 486.673 52.317 486.673 52.751V57H485.553V49.832ZM495.017 52.527C495.017 52.135 494.949 51.7967 494.814 51.512C494.683 51.2227 494.492 51.001 494.24 50.847C493.988 50.693 493.682 50.616 493.323 50.616C492.94 50.616 492.604 50.7047 492.315 50.882C492.026 51.0547 491.802 51.302 491.643 51.624C491.484 51.9413 491.405 52.317 491.405 52.751L490.775 52.933C490.775 52.289 490.887 51.7197 491.111 51.225C491.335 50.7303 491.655 50.3477 492.07 50.077C492.49 49.8017 492.978 49.664 493.533 49.664C494.042 49.664 494.492 49.7807 494.884 50.014C495.281 50.2427 495.589 50.5693 495.808 50.994C496.027 51.4187 496.137 51.9133 496.137 52.478V57H495.017V52.527ZM501.368 57.168C500.682 57.168 500.059 57.0047 499.499 56.678C498.944 56.3513 498.508 55.9033 498.19 55.334C497.873 54.76 497.714 54.1207 497.714 53.416C497.714 52.7113 497.873 52.0743 498.19 51.505C498.508 50.931 498.944 50.4807 499.499 50.154C500.059 49.8273 500.682 49.664 501.368 49.664C502.054 49.664 502.675 49.8273 503.23 50.154C503.79 50.4807 504.229 50.931 504.546 51.505C504.864 52.0743 505.022 52.7113 505.022 53.416C505.022 54.1207 504.864 54.76 504.546 55.334C504.229 55.9033 503.79 56.3513 503.23 56.678C502.675 57.0047 502.054 57.168 501.368 57.168ZM501.368 56.146C501.854 56.146 502.283 56.0317 502.656 55.803C503.034 55.5697 503.326 55.2477 503.531 54.837C503.741 54.4217 503.846 53.948 503.846 53.416C503.846 52.8793 503.741 52.4057 503.531 51.995C503.326 51.5797 503.034 51.2577 502.656 51.029C502.283 50.7957 501.854 50.679 501.368 50.679C500.883 50.679 500.451 50.7957 500.073 51.029C499.7 51.2577 499.408 51.5797 499.198 51.995C498.993 52.4057 498.89 52.8793 498.89 53.416C498.89 53.948 498.993 54.4217 499.198 54.837C499.408 55.2477 499.7 55.5697 500.073 55.803C500.451 56.0317 500.883 56.146 501.368 56.146ZM506.813 49.832H507.891V52.933H507.443C507.443 52.2703 507.557 51.694 507.786 51.204C508.014 50.7093 508.341 50.329 508.766 50.063C509.19 49.797 509.69 49.664 510.264 49.664C510.777 49.664 511.232 49.7737 511.629 49.993C512.025 50.2123 512.336 50.5367 512.56 50.966C512.788 51.3907 512.903 51.9017 512.903 52.499V57H511.783V52.611C511.783 52.1957 511.708 51.841 511.559 51.547C511.414 51.253 511.206 51.029 510.936 50.875C510.665 50.721 510.343 50.644 509.97 50.644C509.568 50.644 509.214 50.7327 508.906 50.91C508.598 51.0873 508.357 51.337 508.185 51.659C508.017 51.9763 507.933 52.3403 507.933 52.751V57H506.813V49.832Z" fill="white"/>
<path d="M314.708 160.232H315.324C315.553 160.232 315.737 160.16 315.877 160.015C316.022 159.875 316.094 159.691 316.094 159.462V151.832H317.214V159.49C317.214 159.831 317.137 160.134 316.983 160.4C316.829 160.666 316.614 160.871 316.339 161.016C316.064 161.165 315.749 161.24 315.394 161.24H314.708V160.232ZM316.038 149.2H317.27V150.474H316.038V149.2ZM318.624 151.832H319.835L322.026 157.495L324.133 151.832H325.33L322.509 159H321.459L318.624 151.832ZM326.739 151.832H327.817V154.933H327.439C327.439 154.261 327.542 153.68 327.747 153.19C327.957 152.7 328.258 152.324 328.65 152.063C329.042 151.797 329.509 151.664 330.05 151.664C330.559 151.664 331.005 151.781 331.387 152.014C331.77 152.243 332.066 152.569 332.276 152.994C332.486 153.419 332.591 153.913 332.591 154.478V159H331.471V154.527C331.471 154.135 331.404 153.797 331.268 153.512C331.138 153.223 330.944 153.001 330.687 152.847C330.435 152.693 330.132 152.616 329.777 152.616C329.39 152.616 329.052 152.702 328.762 152.875C328.473 153.048 328.249 153.295 328.09 153.617C327.936 153.939 327.859 154.317 327.859 154.751V159H326.739V151.832ZM336.203 154.527C336.203 154.135 336.136 153.797 336 153.512C335.87 153.223 335.678 153.001 335.426 152.847C335.174 152.693 334.869 152.616 334.509 152.616C334.127 152.616 333.791 152.705 333.501 152.882C333.212 153.055 332.988 153.302 332.829 153.624C332.671 153.941 332.591 154.317 332.591 154.751L331.961 154.933C331.961 154.289 332.073 153.72 332.297 153.225C332.521 152.73 332.841 152.348 333.256 152.077C333.676 151.802 334.164 151.664 334.719 151.664C335.228 151.664 335.678 151.781 336.07 152.014C336.467 152.243 336.775 152.569 336.994 152.994C337.214 153.419 337.323 153.913 337.323 154.478V159H336.203V154.527Z" fill="black"/>
<defs>
<radialGradient id="paint0_radial_2032_28" cx="0" cy="0" r="1" gradientUnits="userSpaceOnUse" gradientTransform="translate(259.731 264.588) scale(93.5816 144.344)">
<stop stop-color="#EB4857"/>
<stop offset="0.5" stop-color="#C611E0"/>
<stop offset="1" stop-color="#7F52FF"/>
</radialGradient>
<radialGradient id="paint1_radial_2032_28" cx="0" cy="0" r="1" gradientUnits="userSpaceOnUse" gradientTransform="translate(20.7312 265.588) scale(93.5816 144.344)">
<stop stop-color="#EB4857"/>
<stop offset="0.5" stop-color="#C611E0"/>
<stop offset="1" stop-color="#7F52FF"/>
</radialGradient>
<radialGradient id="paint2_radial_2032_28" cx="0" cy="0" r="1" gradientUnits="userSpaceOnUse" gradientTransform="translate(141.664 176.603) scale(116.977 148.045)">
<stop stop-color="#EB4857"/>
<stop offset="0.5" stop-color="#C611E0"/>
<stop offset="1" stop-color="#7F52FF"/>
</radialGradient>
<radialGradient id="paint3_radial_2032_28" cx="0" cy="0" r="1" gradientUnits="userSpaceOnUse" gradientTransform="translate(385.449 79.7987) scale(192.038 196.159)">
<stop stop-color="#EB4857"/>
<stop offset="0.5" stop-color="#C611E0"/>
<stop offset="1" stop-color="#7F52FF"/>
</radialGradient>
</defs>
</svg>
