<svg width="706" height="174" viewBox="0 0 706 174" fill="none" xmlns="http://www.w3.org/2000/svg">
<rect width="706" height="174" fill="white"/>
<path d="M540 127.64L540 127.29L540 127.64ZM554 75.8315L556.021 79.3315L551.979 79.3315L554 75.8315ZM433 127.291L540 127.29L540 127.99L433 127.991L433 127.291ZM553.65 113.64L553.65 78.9815L554.35 78.9815L554.35 113.64L553.65 113.64ZM540 127.29C547.539 127.29 553.65 121.179 553.65 113.64L554.35 113.64C554.35 121.566 547.925 127.99 540 127.99L540 127.29Z" fill="black"/>
<path d="M266 125.685L262.5 123.665L262.5 127.706L266 125.685ZM167 125.685L167 125.335L167 125.685ZM262.85 125.335L167 125.335L167 126.035L262.85 126.035L262.85 125.335ZM153.35 111.685L153.35 73.8765L152.65 73.8765L152.65 111.685L153.35 111.685ZM167 125.335C159.461 125.335 153.35 119.224 153.35 111.685L152.65 111.685C152.65 119.611 159.075 126.035 167 126.035L167 125.335Z" fill="black"/>
<rect x="455" y="25" width="197" height="50.8315" rx="12" fill="url(#paint0_radial_1544_2)"/>
<path d="M515.315 54.7854H514.175L517.091 50.5194L514.295 46.3854H515.459L517.433 49.3974L517.691 49.7634L518.105 49.1454L519.935 46.3854H521.075L518.255 50.4954L521.195 54.7854H520.031L517.913 51.6414L517.643 51.2514L517.193 51.9294L515.315 54.7854ZM524.979 54.9294C524.399 54.9294 523.875 54.7894 523.407 54.5094C522.939 54.2294 522.571 53.8454 522.303 53.3574C522.039 52.8654 521.907 52.3174 521.907 51.7134C521.907 51.1094 522.039 50.5634 522.303 50.0754C522.571 49.5834 522.939 49.1974 523.407 48.9174C523.875 48.6374 524.399 48.4974 524.979 48.4974C525.475 48.4974 525.931 48.5954 526.347 48.7914C526.763 48.9834 527.099 49.2514 527.355 49.5954C527.615 49.9354 527.765 50.3174 527.805 50.7414H526.845C526.797 50.4774 526.683 50.2394 526.503 50.0274C526.327 49.8154 526.105 49.6494 525.837 49.5294C525.573 49.4094 525.287 49.3494 524.979 49.3494C524.587 49.3494 524.233 49.4534 523.917 49.6614C523.605 49.8654 523.359 50.1474 523.179 50.5074C523.003 50.8674 522.915 51.2694 522.915 51.7134C522.915 52.1574 523.003 52.5594 523.179 52.9194C523.359 53.2794 523.605 53.5614 523.917 53.7654C524.233 53.9694 524.587 54.0714 524.979 54.0714C525.287 54.0714 525.573 54.0134 525.837 53.8974C526.105 53.7814 526.327 53.6234 526.503 53.4234C526.683 53.2194 526.797 52.9934 526.845 52.7454H527.805C527.769 53.1574 527.621 53.5294 527.361 53.8614C527.105 54.1934 526.769 54.4554 526.353 54.6474C525.937 54.8354 525.479 54.9294 524.979 54.9294ZM531.952 54.9294C531.368 54.9294 530.842 54.7914 530.374 54.5154C529.906 54.2354 529.538 53.8514 529.27 53.3634C529.002 52.8754 528.868 52.3254 528.868 51.7134C528.868 51.1014 529.002 50.5514 529.27 50.0634C529.538 49.5754 529.908 49.1934 530.38 48.9174C530.852 48.6374 531.38 48.4974 531.964 48.4974C532.548 48.4974 533.076 48.6374 533.548 48.9174C534.02 49.1934 534.39 49.5754 534.658 50.0634C534.926 50.5514 535.06 51.1014 535.06 51.7134C535.06 52.3254 534.924 52.8754 534.652 53.3634C534.384 53.8514 534.014 54.2354 533.542 54.5154C533.07 54.7914 532.54 54.9294 531.952 54.9294ZM531.964 54.0414C532.364 54.0414 532.722 53.9454 533.038 53.7534C533.354 53.5574 533.602 53.2834 533.782 52.9314C533.962 52.5794 534.052 52.1734 534.052 51.7134C534.052 51.2534 533.962 50.8474 533.782 50.4954C533.602 50.1394 533.354 49.8654 533.038 49.6734C532.722 49.4774 532.364 49.3794 531.964 49.3794C531.564 49.3794 531.206 49.4774 530.89 49.6734C530.574 49.8654 530.326 50.1394 530.146 50.4954C529.966 50.8474 529.876 51.2534 529.876 51.7134C529.876 52.1734 529.966 52.5794 530.146 52.9314C530.326 53.2834 530.574 53.5574 530.89 53.7534C531.206 53.9454 531.564 54.0414 531.964 54.0414ZM542.194 48.6414H542.2V54.7854H541.276V53.7534C541.04 54.1294 540.734 54.4194 540.358 54.6234C539.982 54.8274 539.56 54.9294 539.092 54.9294C538.536 54.9294 538.032 54.7894 537.58 54.5094C537.128 54.2294 536.774 53.8454 536.518 53.3574C536.262 52.8654 536.134 52.3174 536.134 51.7134C536.134 51.1094 536.262 50.5634 536.518 50.0754C536.774 49.5834 537.128 49.1974 537.58 48.9174C538.032 48.6374 538.536 48.4974 539.092 48.4974C539.56 48.4974 539.98 48.5994 540.352 48.8034C540.728 49.0074 541.034 49.2974 541.27 49.6734L541.234 46.3854H542.194V48.6414ZM539.182 54.0654C539.574 54.0654 539.926 53.9634 540.238 53.7594C540.554 53.5554 540.8 53.2754 540.976 52.9194C541.152 52.5594 541.24 52.1574 541.24 51.7134C541.24 51.2694 541.152 50.8694 540.976 50.5134C540.8 50.1534 540.554 49.8714 540.238 49.6674C539.926 49.4634 539.574 49.3614 539.182 49.3614C538.794 49.3614 538.444 49.4634 538.132 49.6674C537.824 49.8714 537.582 50.1534 537.406 50.5134C537.23 50.8694 537.142 51.2694 537.142 51.7134C537.142 52.1574 537.23 52.5594 537.406 52.9194C537.582 53.2754 537.824 53.5554 538.132 53.7594C538.444 53.9634 538.794 54.0654 539.182 54.0654ZM549.584 51.9474H544.712C544.748 52.3674 544.858 52.7394 545.042 53.0634C545.226 53.3874 545.468 53.6394 545.768 53.8194C546.068 53.9994 546.408 54.0894 546.788 54.0894C547.044 54.0894 547.29 54.0494 547.526 53.9694C547.762 53.8894 547.968 53.7774 548.144 53.6334C548.32 53.4894 548.446 53.3254 548.522 53.1414H549.446C549.378 53.4774 549.212 53.7814 548.948 54.0534C548.688 54.3254 548.362 54.5394 547.97 54.6954C547.582 54.8514 547.168 54.9294 546.728 54.9294C546.148 54.9294 545.628 54.7914 545.168 54.5154C544.712 54.2394 544.356 53.8574 544.1 53.3694C543.844 52.8774 543.716 52.3214 543.716 51.7014C543.716 51.0974 543.846 50.5514 544.106 50.0634C544.366 49.5754 544.724 49.1934 545.18 48.9174C545.64 48.6374 546.156 48.4974 546.728 48.4974C547.272 48.4974 547.76 48.6374 548.192 48.9174C548.628 49.1934 548.968 49.5774 549.212 50.0694C549.46 50.5574 549.584 51.1054 549.584 51.7134V51.9474ZM546.74 49.3434C546.2 49.3434 545.752 49.5054 545.396 49.8294C545.04 50.1534 544.82 50.5954 544.736 51.1554H548.582C548.498 50.5994 548.292 50.1594 547.964 49.8354C547.64 49.5074 547.232 49.3434 546.74 49.3434ZM557.048 48.4974C557.604 48.4974 558.108 48.6374 558.56 48.9174C559.012 49.1974 559.366 49.5834 559.622 50.0754C559.878 50.5634 560.006 51.1094 560.006 51.7134C560.006 52.3174 559.878 52.8654 559.622 53.3574C559.366 53.8454 559.012 54.2294 558.56 54.5094C558.108 54.7894 557.604 54.9294 557.048 54.9294C556.58 54.9294 556.158 54.8274 555.782 54.6234C555.406 54.4194 555.1 54.1294 554.864 53.7534V54.1434L554.888 56.7174H553.94V48.6414H554.864V49.6794C555.1 49.2994 555.406 49.0074 555.782 48.8034C556.158 48.5994 556.58 48.4974 557.048 48.4974ZM556.958 54.0654C557.346 54.0654 557.694 53.9634 558.002 53.7594C558.314 53.5554 558.558 53.2754 558.734 52.9194C558.91 52.5594 558.998 52.1574 558.998 51.7134C558.998 51.2694 558.91 50.8694 558.734 50.5134C558.558 50.1534 558.314 49.8714 558.002 49.6674C557.694 49.4634 557.346 49.3614 556.958 49.3614C556.566 49.3614 556.212 49.4634 555.896 49.6674C555.584 49.8714 555.34 50.1534 555.164 50.5134C554.988 50.8694 554.9 51.2694 554.9 51.7134C554.9 52.1574 554.988 52.5594 555.164 52.9194C555.34 53.2754 555.584 53.5554 555.896 53.7594C556.212 53.9634 556.566 54.0654 556.958 54.0654ZM564.551 48.5814V49.5834H564.329C563.769 49.5834 563.329 49.7514 563.009 50.0874C562.689 50.4234 562.529 50.8954 562.529 51.5034V54.7854H561.569V48.6414H562.529V49.8774C562.701 49.4614 562.941 49.1414 563.249 48.9174C563.561 48.6934 563.933 48.5814 564.365 48.5814H564.551ZM568.409 54.9294C567.825 54.9294 567.299 54.7914 566.831 54.5154C566.363 54.2354 565.995 53.8514 565.727 53.3634C565.459 52.8754 565.325 52.3254 565.325 51.7134C565.325 51.1014 565.459 50.5514 565.727 50.0634C565.995 49.5754 566.365 49.1934 566.837 48.9174C567.309 48.6374 567.837 48.4974 568.421 48.4974C569.005 48.4974 569.533 48.6374 570.005 48.9174C570.477 49.1934 570.847 49.5754 571.115 50.0634C571.383 50.5514 571.517 51.1014 571.517 51.7134C571.517 52.3254 571.381 52.8754 571.109 53.3634C570.841 53.8514 570.471 54.2354 569.999 54.5154C569.527 54.7914 568.997 54.9294 568.409 54.9294ZM568.421 54.0414C568.821 54.0414 569.179 53.9454 569.495 53.7534C569.811 53.5574 570.059 53.2834 570.239 52.9314C570.419 52.5794 570.509 52.1734 570.509 51.7134C570.509 51.2534 570.419 50.8474 570.239 50.4954C570.059 50.1394 569.811 49.8654 569.495 49.6734C569.179 49.4774 568.821 49.3794 568.421 49.3794C568.021 49.3794 567.663 49.4774 567.347 49.6734C567.031 49.8654 566.783 50.1394 566.603 50.4954C566.423 50.8474 566.333 51.2534 566.333 51.7134C566.333 52.1734 566.423 52.5794 566.603 52.9314C566.783 53.2834 567.031 53.5574 567.347 53.7534C567.663 53.9454 568.021 54.0414 568.421 54.0414ZM571.697 56.7054V55.7934H572.585C572.749 55.7934 572.879 55.7434 572.975 55.6434C573.075 55.5434 573.125 55.4114 573.125 55.2474V48.6414H574.085V55.3254C574.085 55.6014 574.025 55.8434 573.905 56.0514C573.789 56.2594 573.621 56.4194 573.401 56.5314C573.185 56.6474 572.933 56.7054 572.645 56.7054H571.697ZM573.059 47.5254V46.3854H574.151V47.5254H573.059ZM581.447 51.9474H576.575C576.611 52.3674 576.721 52.7394 576.905 53.0634C577.089 53.3874 577.331 53.6394 577.631 53.8194C577.931 53.9994 578.271 54.0894 578.651 54.0894C578.907 54.0894 579.153 54.0494 579.389 53.9694C579.625 53.8894 579.831 53.7774 580.007 53.6334C580.183 53.4894 580.309 53.3254 580.385 53.1414H581.309C581.241 53.4774 581.075 53.7814 580.811 54.0534C580.551 54.3254 580.225 54.5394 579.833 54.6954C579.445 54.8514 579.031 54.9294 578.591 54.9294C578.011 54.9294 577.491 54.7914 577.031 54.5154C576.575 54.2394 576.219 53.8574 575.963 53.3694C575.707 52.8774 575.579 52.3214 575.579 51.7014C575.579 51.0974 575.709 50.5514 575.969 50.0634C576.229 49.5754 576.587 49.1934 577.043 48.9174C577.503 48.6374 578.019 48.4974 578.591 48.4974C579.135 48.4974 579.623 48.6374 580.055 48.9174C580.491 49.1934 580.831 49.5774 581.075 50.0694C581.323 50.5574 581.447 51.1054 581.447 51.7134V51.9474ZM578.603 49.3434C578.063 49.3434 577.615 49.5054 577.259 49.8294C576.903 50.1534 576.683 50.5954 576.599 51.1554H580.445C580.361 50.5994 580.155 50.1594 579.827 49.8354C579.503 49.5074 579.095 49.3434 578.603 49.3434ZM585.588 54.9294C585.008 54.9294 584.484 54.7894 584.016 54.5094C583.548 54.2294 583.18 53.8454 582.912 53.3574C582.648 52.8654 582.516 52.3174 582.516 51.7134C582.516 51.1094 582.648 50.5634 582.912 50.0754C583.18 49.5834 583.548 49.1974 584.016 48.9174C584.484 48.6374 585.008 48.4974 585.588 48.4974C586.084 48.4974 586.54 48.5954 586.956 48.7914C587.372 48.9834 587.708 49.2514 587.964 49.5954C588.224 49.9354 588.374 50.3174 588.414 50.7414H587.454C587.406 50.4774 587.292 50.2394 587.112 50.0274C586.936 49.8154 586.714 49.6494 586.446 49.5294C586.182 49.4094 585.896 49.3494 585.588 49.3494C585.196 49.3494 584.842 49.4534 584.526 49.6614C584.214 49.8654 583.968 50.1474 583.788 50.5074C583.612 50.8674 583.524 51.2694 583.524 51.7134C583.524 52.1574 583.612 52.5594 583.788 52.9194C583.968 53.2794 584.214 53.5614 584.526 53.7654C584.842 53.9694 585.196 54.0714 585.588 54.0714C585.896 54.0714 586.182 54.0134 586.446 53.8974C586.714 53.7814 586.936 53.6234 587.112 53.4234C587.292 53.2194 587.406 52.9934 587.454 52.7454H588.414C588.378 53.1574 588.23 53.5294 587.97 53.8614C587.714 54.1934 587.378 54.4554 586.962 54.6474C586.546 54.8354 586.088 54.9294 585.588 54.9294ZM591.625 54.7854C591.181 54.7854 590.829 54.6674 590.569 54.4314C590.313 54.1954 590.185 53.8694 590.185 53.4534L590.179 49.4934H589.099L589.105 48.6414H589.771C589.923 48.6414 590.045 48.5934 590.137 48.4974C590.233 48.4014 590.281 48.2794 590.281 48.1314V47.1054H591.145V48.6414H592.627L592.621 49.4934H591.139L591.145 53.3934C591.145 53.5614 591.193 53.6934 591.289 53.7894C591.389 53.8854 591.521 53.9334 591.685 53.9334H592.621V54.7854H591.625Z" fill="white"/>
<rect x="55" y="25" width="197" height="50.8315" rx="12" fill="url(#paint1_radial_1544_2)"/>
<path d="M99.8394 50.6628H98.8794V42.2628H99.8394V46.1988L103.775 42.2628H105.083L101.009 46.3188L105.155 50.6628H103.811L99.8394 46.5108V50.6628ZM108.479 50.8068C107.895 50.8068 107.369 50.6688 106.901 50.3928C106.433 50.1128 106.065 49.7288 105.797 49.2408C105.529 48.7528 105.395 48.2028 105.395 47.5908C105.395 46.9788 105.529 46.4288 105.797 45.9408C106.065 45.4528 106.435 45.0708 106.907 44.7948C107.379 44.5148 107.907 44.3748 108.491 44.3748C109.075 44.3748 109.603 44.5148 110.075 44.7948C110.547 45.0708 110.917 45.4528 111.185 45.9408C111.453 46.4288 111.587 46.9788 111.587 47.5908C111.587 48.2028 111.451 48.7528 111.179 49.2408C110.911 49.7288 110.541 50.1128 110.069 50.3928C109.597 50.6688 109.067 50.8068 108.479 50.8068ZM108.491 49.9188C108.891 49.9188 109.249 49.8228 109.565 49.6308C109.881 49.4348 110.129 49.1608 110.309 48.8088C110.489 48.4568 110.579 48.0508 110.579 47.5908C110.579 47.1308 110.489 46.7248 110.309 46.3728C110.129 46.0168 109.881 45.7428 109.565 45.5508C109.249 45.3548 108.891 45.2568 108.491 45.2568C108.091 45.2568 107.733 45.3548 107.417 45.5508C107.101 45.7428 106.853 46.0168 106.673 46.3728C106.493 46.7248 106.403 47.1308 106.403 47.5908C106.403 48.0508 106.493 48.4568 106.673 48.8088C106.853 49.1608 107.101 49.4348 107.417 49.6308C107.733 49.8228 108.091 49.9188 108.491 49.9188ZM114.809 50.6628C114.365 50.6628 114.013 50.5448 113.753 50.3088C113.497 50.0728 113.369 49.7468 113.369 49.3308L113.363 45.3708H112.283L112.289 44.5188H112.955C113.107 44.5188 113.229 44.4708 113.321 44.3748C113.417 44.2788 113.465 44.1568 113.465 44.0088V42.9828H114.329V44.5188H115.811L115.805 45.3708H114.323L114.329 49.2708C114.329 49.4388 114.377 49.5708 114.473 49.6668C114.573 49.7628 114.705 49.8108 114.869 49.8108H115.805V50.6628H114.809ZM118.385 50.6628H117.425V42.2628H118.385V50.6628ZM121.408 50.6628H120.448V44.5188H121.408V50.6628ZM120.382 43.4028V42.2628H121.474V43.4028H120.382ZM126.363 44.3748C126.823 44.3748 127.225 44.4748 127.569 44.6748C127.913 44.8708 128.177 45.1508 128.361 45.5148C128.549 45.8788 128.643 46.3028 128.643 46.7868V50.6628H127.683V46.8588C127.683 46.3348 127.547 45.9268 127.275 45.6348C127.007 45.3388 126.633 45.1908 126.153 45.1908C125.809 45.1908 125.507 45.2648 125.247 45.4128C124.987 45.5568 124.785 45.7648 124.641 46.0368C124.501 46.3088 124.431 46.6288 124.431 46.9968V50.6628H123.471V44.5188H124.395V45.4608C124.591 45.1008 124.855 44.8308 125.187 44.6508C125.519 44.4668 125.911 44.3748 126.363 44.3748ZM134.756 50.6628H133.766V42.2628H135.038L138.02 49.1328L138.182 49.5768L138.338 49.1328L141.242 42.2628H142.55V50.6628H141.554V43.6908L138.596 50.6628H137.726L134.756 43.7268V50.6628ZM148.926 44.5188H149.886V50.6628H148.962V49.7208C148.766 50.0808 148.502 50.3528 148.17 50.5368C147.838 50.7168 147.446 50.8068 146.994 50.8068C146.534 50.8068 146.132 50.7088 145.788 50.5128C145.444 50.3128 145.178 50.0308 144.99 49.6668C144.806 49.3028 144.714 48.8788 144.714 48.3948V44.5188H145.674V48.3228C145.674 48.8468 145.808 49.2568 146.076 49.5528C146.348 49.8448 146.724 49.9908 147.204 49.9908C147.548 49.9908 147.85 49.9188 148.11 49.7748C148.37 49.6268 148.57 49.4168 148.71 49.1448C148.854 48.8728 148.926 48.5528 148.926 48.1848V44.5188ZM152.908 50.6628H151.948V42.2628H152.908V50.6628ZM156.621 50.6628C156.177 50.6628 155.825 50.5448 155.565 50.3088C155.309 50.0728 155.181 49.7468 155.181 49.3308L155.175 45.3708H154.095L154.101 44.5188H154.767C154.919 44.5188 155.041 44.4708 155.133 44.3748C155.229 44.2788 155.277 44.1568 155.277 44.0088V42.9828H156.141V44.5188H157.623L157.617 45.3708H156.135L156.141 49.2708C156.141 49.4388 156.189 49.5708 156.285 49.6668C156.385 49.7628 156.517 49.8108 156.681 49.8108H157.617V50.6628H156.621ZM160.197 50.6628H159.237V44.5188H160.197V50.6628ZM159.171 43.4028V42.2628H160.263V43.4028H159.171ZM165.369 44.3748C165.925 44.3748 166.429 44.5148 166.881 44.7948C167.333 45.0748 167.687 45.4608 167.943 45.9528C168.199 46.4408 168.327 46.9868 168.327 47.5908C168.327 48.1948 168.199 48.7428 167.943 49.2348C167.687 49.7228 167.333 50.1068 166.881 50.3868C166.429 50.6668 165.925 50.8068 165.369 50.8068C164.901 50.8068 164.479 50.7048 164.103 50.5008C163.727 50.2968 163.421 50.0068 163.185 49.6308V50.0208L163.209 52.5948H162.261V44.5188H163.185V45.5568C163.421 45.1768 163.727 44.8848 164.103 44.6808C164.479 44.4768 164.901 44.3748 165.369 44.3748ZM165.279 49.9428C165.667 49.9428 166.015 49.8408 166.323 49.6368C166.635 49.4328 166.879 49.1528 167.055 48.7968C167.231 48.4368 167.319 48.0348 167.319 47.5908C167.319 47.1468 167.231 46.7468 167.055 46.3908C166.879 46.0308 166.635 45.7488 166.323 45.5448C166.015 45.3408 165.667 45.2388 165.279 45.2388C164.887 45.2388 164.533 45.3408 164.217 45.5448C163.905 45.7488 163.661 46.0308 163.485 46.3908C163.309 46.7468 163.221 47.1468 163.221 47.5908C163.221 48.0348 163.309 48.4368 163.485 48.7968C163.661 49.1528 163.905 49.4328 164.217 49.6368C164.533 49.8408 164.887 49.9428 165.279 49.9428ZM170.849 50.6628H169.889V42.2628H170.849V50.6628ZM175.241 44.3748C175.705 44.3748 176.111 44.4608 176.459 44.6328C176.811 44.8008 177.083 45.0468 177.275 45.3708C177.467 45.6948 177.563 46.0848 177.563 46.5408V50.6628H176.627V49.7508C176.439 50.0948 176.169 50.3568 175.817 50.5368C175.469 50.7168 175.051 50.8068 174.563 50.8068C174.159 50.8068 173.799 50.7328 173.483 50.5848C173.171 50.4328 172.927 50.2228 172.751 49.9548C172.579 49.6868 172.493 49.3808 172.493 49.0368C172.493 48.7168 172.573 48.4228 172.733 48.1548C172.897 47.8828 173.123 47.6608 173.411 47.4888C173.699 47.3168 174.025 47.2128 174.389 47.1768L176.183 46.9968C176.315 46.9848 176.419 46.9288 176.495 46.8288C176.575 46.7288 176.615 46.5848 176.615 46.3968C176.615 46.1528 176.555 45.9388 176.435 45.7548C176.319 45.5708 176.155 45.4288 175.943 45.3288C175.735 45.2288 175.493 45.1788 175.217 45.1788C174.945 45.1788 174.697 45.2248 174.473 45.3168C174.249 45.4088 174.067 45.5348 173.927 45.6948C173.787 45.8548 173.705 46.0308 173.681 46.2228H172.745C172.781 45.8828 172.913 45.5728 173.141 45.2928C173.369 45.0088 173.667 44.7848 174.035 44.6208C174.403 44.4568 174.805 44.3748 175.241 44.3748ZM174.743 50.0568C175.107 50.0568 175.431 49.9868 175.715 49.8468C175.999 49.7028 176.219 49.5028 176.375 49.2468C176.535 48.9868 176.615 48.6928 176.615 48.3648V47.6688L174.521 47.8848C174.201 47.9168 173.943 48.0348 173.747 48.2388C173.551 48.4428 173.453 48.6908 173.453 48.9828C173.453 49.1908 173.507 49.3768 173.615 49.5408C173.723 49.7008 173.875 49.8268 174.071 49.9188C174.267 50.0108 174.491 50.0568 174.743 50.0568ZM181.137 50.6628C180.693 50.6628 180.341 50.5448 180.081 50.3088C179.825 50.0728 179.697 49.7468 179.697 49.3308L179.691 45.3708H178.611L178.617 44.5188H179.283C179.435 44.5188 179.557 44.4708 179.649 44.3748C179.745 44.2788 179.793 44.1568 179.793 44.0088V42.9828H180.657V44.5188H182.139L182.133 45.3708H180.651L180.657 49.2708C180.657 49.4388 180.705 49.5708 180.801 49.6668C180.901 49.7628 181.033 49.8108 181.197 49.8108H182.133V50.6628H181.137ZM184.017 50.6628V45.3708H182.937V44.5188H184.017V43.5948C184.017 43.1788 184.143 42.8528 184.395 42.6168C184.651 42.3808 185.005 42.2628 185.457 42.2628H186.561V43.1148H185.517C185.345 43.1148 185.211 43.1628 185.115 43.2588C185.023 43.3548 184.977 43.4868 184.977 43.6548V44.5188H186.501V45.3708H184.977V50.6628H184.017ZM190.464 50.8068C189.88 50.8068 189.354 50.6688 188.886 50.3928C188.418 50.1128 188.05 49.7288 187.782 49.2408C187.514 48.7528 187.38 48.2028 187.38 47.5908C187.38 46.9788 187.514 46.4288 187.782 45.9408C188.05 45.4528 188.42 45.0708 188.892 44.7948C189.364 44.5148 189.892 44.3748 190.476 44.3748C191.06 44.3748 191.588 44.5148 192.06 44.7948C192.532 45.0708 192.902 45.4528 193.17 45.9408C193.438 46.4288 193.572 46.9788 193.572 47.5908C193.572 48.2028 193.436 48.7528 193.164 49.2408C192.896 49.7288 192.526 50.1128 192.054 50.3928C191.582 50.6688 191.052 50.8068 190.464 50.8068ZM190.476 49.9188C190.876 49.9188 191.234 49.8228 191.55 49.6308C191.866 49.4348 192.114 49.1608 192.294 48.8088C192.474 48.4568 192.564 48.0508 192.564 47.5908C192.564 47.1308 192.474 46.7248 192.294 46.3728C192.114 46.0168 191.866 45.7428 191.55 45.5508C191.234 45.3548 190.876 45.2568 190.476 45.2568C190.076 45.2568 189.718 45.3548 189.402 45.5508C189.086 45.7428 188.838 46.0168 188.658 46.3728C188.478 46.7248 188.388 47.1308 188.388 47.5908C188.388 48.0508 188.478 48.4568 188.658 48.8088C188.838 49.1608 189.086 49.4348 189.402 49.6308C189.718 49.8228 190.076 49.9188 190.476 49.9188ZM198.125 44.4588V45.4608H197.903C197.343 45.4608 196.903 45.6288 196.583 45.9648C196.263 46.3008 196.103 46.7728 196.103 47.3808V50.6628H195.143V44.5188H196.103V45.7548C196.275 45.3388 196.515 45.0188 196.823 44.7948C197.135 44.5708 197.507 44.4588 197.939 44.4588H198.125ZM206.272 44.3748C206.72 44.3748 207.112 44.4768 207.448 44.6808C207.788 44.8808 208.048 45.1628 208.228 45.5268C208.412 45.8908 208.504 46.3108 208.504 46.7868V50.6628H207.544V46.8288C207.544 46.3088 207.42 45.9068 207.172 45.6228C206.928 45.3348 206.58 45.1908 206.128 45.1908C205.784 45.1908 205.486 45.2728 205.234 45.4368C204.982 45.5968 204.788 45.8268 204.652 46.1268C204.516 46.4268 204.448 46.7768 204.448 47.1768V50.6628H203.488V46.8288C203.488 46.3128 203.36 45.9108 203.104 45.6228C202.848 45.3348 202.492 45.1908 202.036 45.1908C201.692 45.1908 201.396 45.2728 201.148 45.4368C200.904 45.5968 200.716 45.8268 200.584 46.1268C200.456 46.4268 200.392 46.7768 200.392 47.1768V50.6628H199.432V44.5188H200.356V45.4248C200.548 45.0888 200.8 44.8308 201.112 44.6508C201.428 44.4668 201.794 44.3748 202.21 44.3748C202.658 44.3748 203.056 44.4828 203.404 44.6988C203.752 44.9148 204.016 45.2128 204.196 45.5928C204.404 45.2088 204.686 44.9108 205.042 44.6988C205.402 44.4828 205.812 44.3748 206.272 44.3748ZM137.49 58.3748C138.046 58.3748 138.55 58.5148 139.002 58.7948C139.454 59.0748 139.808 59.4608 140.064 59.9528C140.32 60.4408 140.448 60.9868 140.448 61.5908C140.448 62.1948 140.32 62.7428 140.064 63.2348C139.808 63.7228 139.454 64.1068 139.002 64.3868C138.55 64.6668 138.046 64.8068 137.49 64.8068C137.022 64.8068 136.6 64.7048 136.224 64.5008C135.848 64.2968 135.542 64.0068 135.306 63.6308V64.0208L135.33 66.5948H134.382V58.5188H135.306V59.5568C135.542 59.1768 135.848 58.8848 136.224 58.6808C136.6 58.4768 137.022 58.3748 137.49 58.3748ZM137.4 63.9428C137.788 63.9428 138.136 63.8408 138.444 63.6368C138.756 63.4328 139 63.1528 139.176 62.7968C139.352 62.4368 139.44 62.0348 139.44 61.5908C139.44 61.1468 139.352 60.7468 139.176 60.3908C139 60.0308 138.756 59.7488 138.444 59.5448C138.136 59.3408 137.788 59.2388 137.4 59.2388C137.008 59.2388 136.654 59.3408 136.338 59.5448C136.026 59.7488 135.782 60.0308 135.606 60.3908C135.43 60.7468 135.342 61.1468 135.342 61.5908C135.342 62.0348 135.43 62.4368 135.606 62.7968C135.782 63.1528 136.026 63.4328 136.338 63.6368C136.654 63.8408 137.008 63.9428 137.4 63.9428ZM144.993 58.4588V59.4608H144.771C144.211 59.4608 143.771 59.6288 143.451 59.9648C143.131 60.3008 142.971 60.7728 142.971 61.3808V64.6628H142.011V58.5188H142.971V59.7548C143.143 59.3388 143.383 59.0188 143.691 58.7948C144.003 58.5708 144.375 58.4588 144.807 58.4588H144.993ZM148.85 64.8068C148.266 64.8068 147.74 64.6688 147.272 64.3928C146.804 64.1128 146.436 63.7288 146.168 63.2408C145.9 62.7528 145.766 62.2028 145.766 61.5908C145.766 60.9788 145.9 60.4288 146.168 59.9408C146.436 59.4528 146.806 59.0708 147.278 58.7948C147.75 58.5148 148.278 58.3748 148.862 58.3748C149.446 58.3748 149.974 58.5148 150.446 58.7948C150.918 59.0708 151.288 59.4528 151.556 59.9408C151.824 60.4288 151.958 60.9788 151.958 61.5908C151.958 62.2028 151.822 62.7528 151.55 63.2408C151.282 63.7288 150.912 64.1128 150.44 64.3928C149.968 64.6688 149.438 64.8068 148.85 64.8068ZM148.862 63.9188C149.262 63.9188 149.62 63.8228 149.936 63.6308C150.252 63.4348 150.5 63.1608 150.68 62.8088C150.86 62.4568 150.95 62.0508 150.95 61.5908C150.95 61.1308 150.86 60.7248 150.68 60.3728C150.5 60.0168 150.252 59.7428 149.936 59.5508C149.62 59.3548 149.262 59.2568 148.862 59.2568C148.462 59.2568 148.104 59.3548 147.788 59.5508C147.472 59.7428 147.224 60.0168 147.044 60.3728C146.864 60.7248 146.774 61.1308 146.774 61.5908C146.774 62.0508 146.864 62.4568 147.044 62.8088C147.224 63.1608 147.472 63.4348 147.788 63.6308C148.104 63.8228 148.462 63.9188 148.862 63.9188ZM152.138 66.5828V65.6708H153.026C153.19 65.6708 153.32 65.6208 153.416 65.5208C153.516 65.4208 153.566 65.2888 153.566 65.1248V58.5188H154.526V65.2028C154.526 65.4788 154.466 65.7208 154.346 65.9288C154.23 66.1368 154.062 66.2968 153.842 66.4088C153.626 66.5248 153.374 66.5828 153.086 66.5828H152.138ZM153.5 57.4028V56.2628H154.592V57.4028H153.5ZM161.888 61.8248H157.016C157.052 62.2448 157.162 62.6168 157.346 62.9408C157.53 63.2648 157.772 63.5168 158.072 63.6968C158.372 63.8768 158.712 63.9668 159.092 63.9668C159.348 63.9668 159.594 63.9268 159.83 63.8468C160.066 63.7668 160.272 63.6548 160.448 63.5108C160.624 63.3668 160.75 63.2028 160.826 63.0188H161.75C161.682 63.3548 161.516 63.6588 161.252 63.9308C160.992 64.2028 160.666 64.4168 160.274 64.5728C159.886 64.7288 159.472 64.8068 159.032 64.8068C158.452 64.8068 157.932 64.6688 157.472 64.3928C157.016 64.1168 156.66 63.7348 156.404 63.2468C156.148 62.7548 156.02 62.1988 156.02 61.5788C156.02 60.9748 156.15 60.4288 156.41 59.9408C156.67 59.4528 157.028 59.0708 157.484 58.7948C157.944 58.5148 158.46 58.3748 159.032 58.3748C159.576 58.3748 160.064 58.5148 160.496 58.7948C160.932 59.0708 161.272 59.4548 161.516 59.9468C161.764 60.4348 161.888 60.9828 161.888 61.5908V61.8248ZM159.044 59.2208C158.504 59.2208 158.056 59.3828 157.7 59.7068C157.344 60.0308 157.124 60.4728 157.04 61.0328H160.886C160.802 60.4768 160.596 60.0368 160.268 59.7128C159.944 59.3848 159.536 59.2208 159.044 59.2208ZM166.03 64.8068C165.45 64.8068 164.926 64.6668 164.458 64.3868C163.99 64.1068 163.622 63.7228 163.354 63.2348C163.09 62.7428 162.958 62.1948 162.958 61.5908C162.958 60.9868 163.09 60.4408 163.354 59.9528C163.622 59.4608 163.99 59.0748 164.458 58.7948C164.926 58.5148 165.45 58.3748 166.03 58.3748C166.526 58.3748 166.982 58.4728 167.398 58.6688C167.814 58.8608 168.15 59.1288 168.406 59.4728C168.666 59.8128 168.816 60.1948 168.856 60.6188H167.896C167.848 60.3548 167.734 60.1168 167.554 59.9048C167.378 59.6928 167.156 59.5268 166.888 59.4068C166.624 59.2868 166.338 59.2268 166.03 59.2268C165.638 59.2268 165.284 59.3308 164.968 59.5388C164.656 59.7428 164.41 60.0248 164.23 60.3848C164.054 60.7448 163.966 61.1468 163.966 61.5908C163.966 62.0348 164.054 62.4368 164.23 62.7968C164.41 63.1568 164.656 63.4388 164.968 63.6428C165.284 63.8468 165.638 63.9488 166.03 63.9488C166.338 63.9488 166.624 63.8908 166.888 63.7748C167.156 63.6588 167.378 63.5008 167.554 63.3008C167.734 63.0968 167.848 62.8708 167.896 62.6228H168.856C168.82 63.0348 168.672 63.4068 168.412 63.7388C168.156 64.0708 167.82 64.3328 167.404 64.5248C166.988 64.7128 166.53 64.8068 166.03 64.8068ZM172.067 64.6628C171.623 64.6628 171.271 64.5448 171.011 64.3088C170.755 64.0728 170.627 63.7468 170.627 63.3308L170.621 59.3708H169.541L169.547 58.5188H170.213C170.365 58.5188 170.487 58.4708 170.579 58.3748C170.675 58.2788 170.723 58.1568 170.723 58.0088V56.9828H171.587V58.5188H173.069L173.063 59.3708H171.581L171.587 63.2708C171.587 63.4388 171.635 63.5708 171.731 63.6668C171.831 63.7628 171.963 63.8108 172.127 63.8108H173.063V64.6628H172.067Z" fill="white"/>
<rect x="266" y="103.202" width="167" height="44.9663" rx="12" fill="#F2F2F2"/>
<path d="M309.844 129.843H308.884V123.699H309.844V129.843ZM308.818 122.583V121.443H309.91V122.583H308.818ZM315.699 129.987C314.923 129.987 314.219 129.799 313.587 129.423C312.955 129.043 312.457 128.523 312.093 127.863C311.729 127.199 311.547 126.459 311.547 125.643C311.547 124.827 311.729 124.089 312.093 123.429C312.457 122.765 312.955 122.245 313.587 121.869C314.219 121.489 314.923 121.299 315.699 121.299C316.471 121.299 317.173 121.489 317.805 121.869C318.441 122.245 318.941 122.765 319.305 123.429C319.669 124.089 319.851 124.827 319.851 125.643C319.851 126.459 319.669 127.199 319.305 127.863C318.941 128.523 318.441 129.043 317.805 129.423C317.173 129.799 316.471 129.987 315.699 129.987ZM315.699 129.075C316.287 129.075 316.819 128.929 317.295 128.637C317.771 128.341 318.143 127.933 318.411 127.413C318.683 126.889 318.819 126.299 318.819 125.643C318.819 124.983 318.685 124.393 318.417 123.873C318.153 123.349 317.783 122.941 317.307 122.649C316.835 122.357 316.299 122.211 315.699 122.211C315.107 122.211 314.573 122.359 314.097 122.655C313.625 122.947 313.253 123.353 312.981 123.873C312.713 124.393 312.579 124.983 312.579 125.643C312.579 126.303 312.713 126.893 312.981 127.413C313.253 127.933 313.625 128.341 314.097 128.637C314.573 128.929 315.107 129.075 315.699 129.075ZM324.132 129.987C323.556 129.987 323.044 129.881 322.596 129.669C322.152 129.457 321.806 129.161 321.558 128.781C321.31 128.401 321.186 127.965 321.186 127.473H322.206C322.206 127.789 322.288 128.069 322.452 128.313C322.616 128.557 322.844 128.747 323.136 128.883C323.432 129.019 323.768 129.087 324.144 129.087C324.516 129.087 324.846 129.023 325.134 128.895C325.426 128.767 325.652 128.587 325.812 128.355C325.972 128.123 326.052 127.857 326.052 127.557C326.052 127.205 325.942 126.903 325.722 126.651C325.502 126.395 325.198 126.229 324.81 126.153L323.334 125.865C322.938 125.789 322.594 125.645 322.302 125.433C322.014 125.217 321.792 124.951 321.636 124.635C321.48 124.319 321.402 123.975 321.402 123.603C321.402 123.155 321.518 122.757 321.75 122.409C321.982 122.061 322.304 121.789 322.716 121.593C323.128 121.397 323.596 121.299 324.12 121.299C324.652 121.299 325.126 121.399 325.542 121.599C325.962 121.795 326.288 122.069 326.52 122.421C326.756 122.773 326.874 123.175 326.874 123.627H325.854C325.854 123.351 325.78 123.105 325.632 122.889C325.488 122.673 325.284 122.505 325.02 122.385C324.76 122.261 324.464 122.199 324.132 122.199C323.8 122.199 323.502 122.259 323.238 122.379C322.978 122.499 322.774 122.667 322.626 122.883C322.482 123.099 322.41 123.347 322.41 123.627C322.41 123.963 322.51 124.247 322.71 124.479C322.91 124.707 323.194 124.859 323.562 124.935L325.104 125.241C325.488 125.317 325.828 125.467 326.124 125.691C326.42 125.911 326.65 126.183 326.814 126.507C326.982 126.831 327.066 127.181 327.066 127.557C327.066 128.033 326.94 128.455 326.688 128.823C326.44 129.191 326.092 129.477 325.644 129.681C325.2 129.885 324.696 129.987 324.132 129.987ZM332.058 129.843V124.551H330.978V123.699H332.058V122.775C332.058 122.359 332.184 122.033 332.436 121.797C332.692 121.561 333.046 121.443 333.498 121.443H334.602V122.295H333.558C333.386 122.295 333.252 122.343 333.156 122.439C333.064 122.535 333.018 122.667 333.018 122.835V123.699H334.542V124.551H333.018V129.843H332.058ZM339.1 123.639V124.641H338.878C338.318 124.641 337.878 124.809 337.558 125.145C337.238 125.481 337.078 125.953 337.078 126.561V129.843H336.118V123.699H337.078V124.935C337.25 124.519 337.49 124.199 337.798 123.975C338.11 123.751 338.482 123.639 338.914 123.639H339.1ZM342.641 123.555C343.105 123.555 343.511 123.641 343.859 123.813C344.211 123.981 344.483 124.227 344.675 124.551C344.867 124.875 344.963 125.265 344.963 125.721V129.843H344.027V128.931C343.839 129.275 343.569 129.537 343.217 129.717C342.869 129.897 342.451 129.987 341.963 129.987C341.559 129.987 341.199 129.913 340.883 129.765C340.571 129.613 340.327 129.403 340.151 129.135C339.979 128.867 339.893 128.561 339.893 128.217C339.893 127.897 339.973 127.603 340.133 127.335C340.297 127.063 340.523 126.841 340.811 126.669C341.099 126.497 341.425 126.393 341.789 126.357L343.583 126.177C343.715 126.165 343.819 126.109 343.895 126.009C343.975 125.909 344.015 125.765 344.015 125.577C344.015 125.333 343.955 125.119 343.835 124.935C343.719 124.751 343.555 124.609 343.343 124.509C343.135 124.409 342.893 124.359 342.617 124.359C342.345 124.359 342.097 124.405 341.873 124.497C341.649 124.589 341.467 124.715 341.327 124.875C341.187 125.035 341.105 125.211 341.081 125.403H340.145C340.181 125.063 340.313 124.753 340.541 124.473C340.769 124.189 341.067 123.965 341.435 123.801C341.803 123.637 342.205 123.555 342.641 123.555ZM342.143 129.237C342.507 129.237 342.831 129.167 343.115 129.027C343.399 128.883 343.619 128.683 343.775 128.427C343.935 128.167 344.015 127.873 344.015 127.545V126.849L341.921 127.065C341.601 127.097 341.343 127.215 341.147 127.419C340.951 127.623 340.853 127.871 340.853 128.163C340.853 128.371 340.907 128.557 341.015 128.721C341.123 128.881 341.275 129.007 341.471 129.099C341.667 129.191 341.891 129.237 342.143 129.237ZM353.727 123.555C354.175 123.555 354.567 123.657 354.903 123.861C355.243 124.061 355.503 124.343 355.683 124.707C355.867 125.071 355.959 125.491 355.959 125.967V129.843H354.999V126.009C354.999 125.489 354.875 125.087 354.627 124.803C354.383 124.515 354.035 124.371 353.583 124.371C353.239 124.371 352.941 124.453 352.689 124.617C352.437 124.777 352.243 125.007 352.107 125.307C351.971 125.607 351.903 125.957 351.903 126.357V129.843H350.943V126.009C350.943 125.493 350.815 125.091 350.559 124.803C350.303 124.515 349.947 124.371 349.491 124.371C349.147 124.371 348.851 124.453 348.603 124.617C348.359 124.777 348.171 125.007 348.039 125.307C347.911 125.607 347.847 125.957 347.847 126.357V129.843H346.887V123.699H347.811V124.605C348.003 124.269 348.255 124.011 348.567 123.831C348.883 123.647 349.249 123.555 349.665 123.555C350.113 123.555 350.511 123.663 350.859 123.879C351.207 124.095 351.471 124.393 351.651 124.773C351.859 124.389 352.141 124.091 352.497 123.879C352.857 123.663 353.267 123.555 353.727 123.555ZM363.25 127.005H358.378C358.414 127.425 358.524 127.797 358.708 128.121C358.892 128.445 359.134 128.697 359.434 128.877C359.734 129.057 360.074 129.147 360.454 129.147C360.71 129.147 360.956 129.107 361.192 129.027C361.428 128.947 361.634 128.835 361.81 128.691C361.986 128.547 362.112 128.383 362.188 128.199H363.112C363.044 128.535 362.878 128.839 362.614 129.111C362.354 129.383 362.028 129.597 361.636 129.753C361.248 129.909 360.834 129.987 360.394 129.987C359.814 129.987 359.294 129.849 358.834 129.573C358.378 129.297 358.022 128.915 357.766 128.427C357.51 127.935 357.382 127.379 357.382 126.759C357.382 126.155 357.512 125.609 357.772 125.121C358.032 124.633 358.39 124.251 358.846 123.975C359.306 123.695 359.822 123.555 360.394 123.555C360.938 123.555 361.426 123.695 361.858 123.975C362.294 124.251 362.634 124.635 362.878 125.127C363.126 125.615 363.25 126.163 363.25 126.771V127.005ZM360.406 124.401C359.866 124.401 359.418 124.563 359.062 124.887C358.706 125.211 358.486 125.653 358.402 126.213H362.248C362.164 125.657 361.958 125.217 361.63 124.893C361.306 124.565 360.898 124.401 360.406 124.401ZM367.027 129.843H366.031L364.009 123.699H365.029L366.433 128.217L366.571 128.709L366.691 128.217L368.149 123.699H369.139L370.603 128.217L370.735 128.709L370.861 128.217L372.229 123.699H373.225L371.203 129.843H370.195L368.755 125.121L368.641 124.725L368.539 125.109L367.027 129.843ZM377.071 129.987C376.487 129.987 375.961 129.849 375.493 129.573C375.025 129.293 374.657 128.909 374.389 128.421C374.121 127.933 373.987 127.383 373.987 126.771C373.987 126.159 374.121 125.609 374.389 125.121C374.657 124.633 375.027 124.251 375.499 123.975C375.971 123.695 376.499 123.555 377.083 123.555C377.667 123.555 378.195 123.695 378.667 123.975C379.139 124.251 379.509 124.633 379.777 125.121C380.045 125.609 380.179 126.159 380.179 126.771C380.179 127.383 380.043 127.933 379.771 128.421C379.503 128.909 379.133 129.293 378.661 129.573C378.189 129.849 377.659 129.987 377.071 129.987ZM377.083 129.099C377.483 129.099 377.841 129.003 378.157 128.811C378.473 128.615 378.721 128.341 378.901 127.989C379.081 127.637 379.171 127.231 379.171 126.771C379.171 126.311 379.081 125.905 378.901 125.553C378.721 125.197 378.473 124.923 378.157 124.731C377.841 124.535 377.483 124.437 377.083 124.437C376.683 124.437 376.325 124.535 376.009 124.731C375.693 124.923 375.445 125.197 375.265 125.553C375.085 125.905 374.995 126.311 374.995 126.771C374.995 127.231 375.085 127.637 375.265 127.989C375.445 128.341 375.693 128.615 376.009 128.811C376.325 129.003 376.683 129.099 377.083 129.099ZM384.733 123.639V124.641H384.511C383.951 124.641 383.511 124.809 383.191 125.145C382.871 125.481 382.711 125.953 382.711 126.561V129.843H381.751V123.699H382.711V124.935C382.883 124.519 383.123 124.199 383.431 123.975C383.743 123.751 384.115 123.639 384.547 123.639H384.733ZM387 129.843H386.04V121.443H387V126.537L389.778 123.699H390.978L388.098 126.621L391.086 129.843H389.862L387 126.741V129.843Z" fill="black"/>
<path d="M189.04 123.098C188.41 123.098 187.838 122.941 187.325 122.628C186.815 122.311 186.413 121.878 186.12 121.328C185.827 120.774 185.68 120.158 185.68 119.478C185.68 118.798 185.827 118.183 186.12 117.633C186.413 117.079 186.815 116.646 187.325 116.333C187.838 116.016 188.41 115.858 189.04 115.858C189.567 115.858 190.058 115.968 190.515 116.188C190.975 116.408 191.352 116.706 191.645 117.083C191.942 117.459 192.12 117.871 192.18 118.318H191.36C191.3 118.001 191.158 117.713 190.935 117.453C190.715 117.189 190.438 116.981 190.105 116.828C189.775 116.674 189.42 116.598 189.04 116.598C188.56 116.598 188.128 116.721 187.745 116.968C187.362 117.214 187.062 117.556 186.845 117.993C186.628 118.429 186.52 118.924 186.52 119.478C186.52 120.031 186.628 120.526 186.845 120.963C187.062 121.399 187.362 121.741 187.745 121.988C188.128 122.234 188.56 122.358 189.04 122.358C189.48 122.358 189.877 122.268 190.23 122.088C190.587 121.908 190.868 121.658 191.075 121.338C191.282 121.014 191.388 120.651 191.395 120.248V120.188H189.545V119.438H192.235V119.948C192.235 120.538 192.095 121.073 191.815 121.553C191.538 122.033 191.157 122.411 190.67 122.688C190.183 122.961 189.64 123.098 189.04 123.098ZM198.443 120.613H194.383C194.413 120.963 194.505 121.273 194.658 121.543C194.812 121.813 195.013 122.023 195.263 122.173C195.513 122.323 195.797 122.398 196.113 122.398C196.327 122.398 196.532 122.364 196.728 122.298C196.925 122.231 197.097 122.138 197.243 122.018C197.39 121.898 197.495 121.761 197.558 121.608H198.328C198.272 121.888 198.133 122.141 197.913 122.368C197.697 122.594 197.425 122.773 197.098 122.903C196.775 123.033 196.43 123.098 196.063 123.098C195.58 123.098 195.147 122.983 194.763 122.753C194.383 122.523 194.087 122.204 193.873 121.798C193.66 121.388 193.553 120.924 193.553 120.408C193.553 119.904 193.662 119.449 193.878 119.043C194.095 118.636 194.393 118.318 194.773 118.088C195.157 117.854 195.587 117.738 196.063 117.738C196.517 117.738 196.923 117.854 197.283 118.088C197.647 118.318 197.93 118.638 198.133 119.048C198.34 119.454 198.443 119.911 198.443 120.418V120.613ZM196.073 118.443C195.623 118.443 195.25 118.578 194.953 118.848C194.657 119.118 194.473 119.486 194.403 119.953H197.608C197.538 119.489 197.367 119.123 197.093 118.853C196.823 118.579 196.483 118.443 196.073 118.443ZM202.16 117.738C202.543 117.738 202.878 117.821 203.165 117.988C203.451 118.151 203.671 118.384 203.825 118.688C203.981 118.991 204.06 119.344 204.06 119.748V122.978H203.26V119.808C203.26 119.371 203.146 119.031 202.92 118.788C202.696 118.541 202.385 118.418 201.985 118.418C201.698 118.418 201.446 118.479 201.23 118.603C201.013 118.723 200.845 118.896 200.725 119.123C200.608 119.349 200.55 119.616 200.55 119.923V122.978H199.75V117.858H200.52V118.643C200.683 118.343 200.903 118.118 201.18 117.968C201.456 117.814 201.783 117.738 202.16 117.738ZM210.133 120.613H206.073C206.103 120.963 206.195 121.273 206.348 121.543C206.501 121.813 206.703 122.023 206.953 122.173C207.203 122.323 207.486 122.398 207.803 122.398C208.016 122.398 208.221 122.364 208.418 122.298C208.615 122.231 208.786 122.138 208.933 122.018C209.08 121.898 209.185 121.761 209.248 121.608H210.018C209.961 121.888 209.823 122.141 209.603 122.368C209.386 122.594 209.115 122.773 208.788 122.903C208.465 123.033 208.12 123.098 207.753 123.098C207.27 123.098 206.836 122.983 206.453 122.753C206.073 122.523 205.776 122.204 205.563 121.798C205.35 121.388 205.243 120.924 205.243 120.408C205.243 119.904 205.351 119.449 205.568 119.043C205.785 118.636 206.083 118.318 206.463 118.088C206.846 117.854 207.276 117.738 207.753 117.738C208.206 117.738 208.613 117.854 208.973 118.088C209.336 118.318 209.62 118.638 209.823 119.048C210.03 119.454 210.133 119.911 210.133 120.418V120.613ZM207.763 118.443C207.313 118.443 206.94 118.578 206.643 118.848C206.346 119.118 206.163 119.486 206.093 119.953H209.298C209.228 119.489 209.056 119.123 208.783 118.853C208.513 118.579 208.173 118.443 207.763 118.443ZM213.924 117.808V118.643H213.739C213.272 118.643 212.906 118.783 212.639 119.063C212.372 119.343 212.239 119.736 212.239 120.243V122.978H211.439V117.858H212.239V118.888C212.382 118.541 212.582 118.274 212.839 118.088C213.099 117.901 213.409 117.808 213.769 117.808H213.924ZM216.875 117.738C217.262 117.738 217.6 117.809 217.89 117.953C218.184 118.093 218.41 118.298 218.57 118.568C218.73 118.838 218.81 119.163 218.81 119.543V122.978H218.03V122.218C217.874 122.504 217.649 122.723 217.355 122.873C217.065 123.023 216.717 123.098 216.31 123.098C215.974 123.098 215.674 123.036 215.41 122.913C215.15 122.786 214.947 122.611 214.8 122.388C214.657 122.164 214.585 121.909 214.585 121.623C214.585 121.356 214.652 121.111 214.785 120.888C214.922 120.661 215.11 120.476 215.35 120.333C215.59 120.189 215.862 120.103 216.165 120.073L217.66 119.923C217.77 119.913 217.857 119.866 217.92 119.783C217.987 119.699 218.02 119.579 218.02 119.423C218.02 119.219 217.97 119.041 217.87 118.888C217.774 118.734 217.637 118.616 217.46 118.533C217.287 118.449 217.085 118.408 216.855 118.408C216.629 118.408 216.422 118.446 216.235 118.523C216.049 118.599 215.897 118.704 215.78 118.838C215.664 118.971 215.595 119.118 215.575 119.278H214.795C214.825 118.994 214.935 118.736 215.125 118.503C215.315 118.266 215.564 118.079 215.87 117.943C216.177 117.806 216.512 117.738 216.875 117.738ZM216.46 122.473C216.764 122.473 217.034 122.414 217.27 122.298C217.507 122.178 217.69 122.011 217.82 121.798C217.954 121.581 218.02 121.336 218.02 121.063V120.483L216.275 120.663C216.009 120.689 215.794 120.788 215.63 120.958C215.467 121.128 215.385 121.334 215.385 121.578C215.385 121.751 215.43 121.906 215.52 122.043C215.61 122.176 215.737 122.281 215.9 122.358C216.064 122.434 216.25 122.473 216.46 122.473ZM221.789 122.978C221.419 122.978 221.125 122.879 220.909 122.683C220.695 122.486 220.589 122.214 220.589 121.868L220.584 118.568H219.684L219.689 117.858H220.244C220.37 117.858 220.472 117.818 220.549 117.738C220.629 117.658 220.669 117.556 220.669 117.433V116.578H221.389V117.858H222.624L222.619 118.568H221.384L221.389 121.818C221.389 121.958 221.429 122.068 221.509 122.148C221.592 122.228 221.702 122.268 221.839 122.268H222.619V122.978H221.789ZM228.443 120.613H224.383C224.413 120.963 224.505 121.273 224.658 121.543C224.812 121.813 225.013 122.023 225.263 122.173C225.513 122.323 225.797 122.398 226.113 122.398C226.327 122.398 226.532 122.364 226.728 122.298C226.925 122.231 227.097 122.138 227.243 122.018C227.39 121.898 227.495 121.761 227.558 121.608H228.328C228.272 121.888 228.133 122.141 227.913 122.368C227.697 122.594 227.425 122.773 227.098 122.903C226.775 123.033 226.43 123.098 226.063 123.098C225.58 123.098 225.147 122.983 224.763 122.753C224.383 122.523 224.087 122.204 223.873 121.798C223.66 121.388 223.553 120.924 223.553 120.408C223.553 119.904 223.662 119.449 223.878 119.043C224.095 118.636 224.393 118.318 224.773 118.088C225.157 117.854 225.587 117.738 226.063 117.738C226.517 117.738 226.923 117.854 227.283 118.088C227.647 118.318 227.93 118.638 228.133 119.048C228.34 119.454 228.443 119.911 228.443 120.418V120.613ZM226.073 118.443C225.623 118.443 225.25 118.578 224.953 118.848C224.657 119.118 224.473 119.486 224.403 119.953H227.608C227.538 119.489 227.367 119.123 227.093 118.853C226.823 118.579 226.483 118.443 226.073 118.443ZM231.445 123.098C231.028 123.098 230.66 123.033 230.34 122.903C230.023 122.769 229.776 122.586 229.6 122.353C229.426 122.119 229.338 121.854 229.335 121.558H230.135C230.141 121.731 230.2 121.884 230.31 122.018C230.42 122.151 230.57 122.256 230.76 122.333C230.953 122.406 231.173 122.443 231.42 122.443C231.8 122.443 232.095 122.363 232.305 122.203C232.515 122.043 232.62 121.824 232.62 121.548C232.62 121.334 232.555 121.161 232.425 121.028C232.298 120.891 232.11 120.803 231.86 120.763L230.93 120.618C230.483 120.548 230.135 120.386 229.885 120.133C229.635 119.876 229.51 119.558 229.51 119.178C229.51 118.898 229.588 118.649 229.745 118.433C229.905 118.213 230.125 118.043 230.405 117.923C230.688 117.799 231.008 117.738 231.365 117.738C231.731 117.738 232.06 117.799 232.35 117.923C232.643 118.046 232.873 118.218 233.04 118.438C233.21 118.654 233.298 118.901 233.305 119.178H232.505C232.501 119.031 232.448 118.898 232.345 118.778C232.245 118.658 232.108 118.564 231.935 118.498C231.761 118.428 231.568 118.393 231.355 118.393C231.148 118.393 230.961 118.426 230.795 118.493C230.631 118.556 230.503 118.646 230.41 118.763C230.32 118.876 230.275 119.008 230.275 119.158C230.275 119.358 230.335 119.519 230.455 119.643C230.575 119.763 230.751 119.841 230.985 119.878L231.945 120.033C232.411 120.106 232.768 120.273 233.015 120.533C233.265 120.793 233.39 121.124 233.39 121.528C233.39 121.841 233.31 122.116 233.15 122.353C232.99 122.589 232.763 122.773 232.47 122.903C232.176 123.033 231.835 123.098 231.445 123.098Z" fill="#595959"/>
<path d="M442.975 125.053C442.335 125.053 441.753 124.896 441.23 124.583C440.71 124.266 440.302 123.833 440.005 123.283C439.708 122.729 439.56 122.113 439.56 121.433C439.56 120.753 439.708 120.138 440.005 119.588C440.302 119.034 440.71 118.601 441.23 118.288C441.753 117.971 442.335 117.813 442.975 117.813C443.502 117.813 443.993 117.926 444.45 118.153C444.91 118.379 445.288 118.681 445.585 119.058C445.882 119.434 446.062 119.839 446.125 120.273H445.295C445.228 119.976 445.083 119.698 444.86 119.438C444.637 119.174 444.36 118.964 444.03 118.808C443.7 118.651 443.348 118.573 442.975 118.573C442.488 118.573 442.05 118.696 441.66 118.943C441.273 119.186 440.97 119.526 440.75 119.963C440.53 120.396 440.42 120.886 440.42 121.433C440.42 121.979 440.53 122.471 440.75 122.908C440.97 123.341 441.273 123.681 441.66 123.928C442.05 124.171 442.488 124.293 442.975 124.293C443.348 124.293 443.7 124.214 444.03 124.058C444.36 123.901 444.637 123.693 444.86 123.433C445.083 123.169 445.228 122.889 445.295 122.593H446.125C446.062 123.026 445.882 123.431 445.585 123.808C445.288 124.184 444.91 124.486 444.45 124.713C443.993 124.939 443.502 125.053 442.975 125.053ZM449.671 125.053C449.185 125.053 448.746 124.938 448.356 124.708C447.966 124.474 447.66 124.154 447.436 123.748C447.213 123.341 447.101 122.883 447.101 122.373C447.101 121.863 447.213 121.404 447.436 120.998C447.66 120.591 447.968 120.273 448.361 120.043C448.755 119.809 449.195 119.693 449.681 119.693C450.168 119.693 450.608 119.809 451.001 120.043C451.395 120.273 451.703 120.591 451.926 120.998C452.15 121.404 452.261 121.863 452.261 122.373C452.261 122.883 452.148 123.341 451.921 123.748C451.698 124.154 451.39 124.474 450.996 124.708C450.603 124.938 450.161 125.053 449.671 125.053ZM449.681 124.313C450.015 124.313 450.313 124.233 450.576 124.073C450.84 123.909 451.046 123.681 451.196 123.388C451.346 123.094 451.421 122.756 451.421 122.373C451.421 121.989 451.346 121.651 451.196 121.358C451.046 121.061 450.84 120.833 450.576 120.673C450.313 120.509 450.015 120.428 449.681 120.428C449.348 120.428 449.05 120.509 448.786 120.673C448.523 120.833 448.316 121.061 448.166 121.358C448.016 121.651 447.941 121.989 447.941 122.373C447.941 122.756 448.016 123.094 448.166 123.388C448.316 123.681 448.523 123.909 448.786 124.073C449.05 124.233 449.348 124.313 449.681 124.313ZM455.981 119.693C456.364 119.693 456.699 119.776 456.986 119.943C457.273 120.106 457.493 120.339 457.646 120.643C457.803 120.946 457.881 121.299 457.881 121.703V124.933H457.081V121.763C457.081 121.326 456.968 120.986 456.741 120.743C456.518 120.496 456.206 120.373 455.806 120.373C455.519 120.373 455.268 120.434 455.051 120.558C454.834 120.678 454.666 120.851 454.546 121.078C454.429 121.304 454.371 121.571 454.371 121.878V124.933H453.571V119.813H454.341V120.598C454.504 120.298 454.724 120.073 455.001 119.923C455.278 119.769 455.604 119.693 455.981 119.693ZM461.889 119.693C462.272 119.693 462.607 119.776 462.894 119.943C463.181 120.106 463.401 120.339 463.554 120.643C463.711 120.946 463.789 121.299 463.789 121.703V124.933H462.989V121.763C462.989 121.326 462.876 120.986 462.649 120.743C462.426 120.496 462.114 120.373 461.714 120.373C461.427 120.373 461.176 120.434 460.959 120.558C460.742 120.678 460.574 120.851 460.454 121.078C460.337 121.304 460.279 121.571 460.279 121.878V124.933H459.479V119.813H460.249V120.598C460.412 120.298 460.632 120.073 460.909 119.923C461.186 119.769 461.512 119.693 461.889 119.693ZM469.862 122.568H465.802C465.832 122.918 465.924 123.228 466.077 123.498C466.231 123.768 466.432 123.978 466.682 124.128C466.932 124.278 467.216 124.353 467.532 124.353C467.746 124.353 467.951 124.319 468.147 124.253C468.344 124.186 468.516 124.093 468.662 123.973C468.809 123.853 468.914 123.716 468.977 123.563H469.747C469.691 123.843 469.552 124.096 469.332 124.323C469.116 124.549 468.844 124.728 468.517 124.858C468.194 124.988 467.849 125.053 467.482 125.053C466.999 125.053 466.566 124.938 466.182 124.708C465.802 124.478 465.506 124.159 465.292 123.753C465.079 123.343 464.972 122.879 464.972 122.363C464.972 121.859 465.081 121.404 465.297 120.998C465.514 120.591 465.812 120.273 466.192 120.043C466.576 119.809 467.006 119.693 467.482 119.693C467.936 119.693 468.342 119.809 468.702 120.043C469.066 120.273 469.349 120.593 469.552 121.003C469.759 121.409 469.862 121.866 469.862 122.373V122.568ZM467.492 120.398C467.042 120.398 466.669 120.533 466.372 120.803C466.076 121.073 465.892 121.441 465.822 121.908H469.027C468.957 121.444 468.786 121.078 468.512 120.808C468.242 120.534 467.902 120.398 467.492 120.398ZM473.314 125.053C472.83 125.053 472.394 124.936 472.004 124.703C471.614 124.469 471.307 124.149 471.084 123.743C470.864 123.333 470.754 122.876 470.754 122.373C470.754 121.869 470.864 121.414 471.084 121.008C471.307 120.598 471.614 120.276 472.004 120.043C472.394 119.809 472.83 119.693 473.314 119.693C473.727 119.693 474.107 119.774 474.454 119.938C474.8 120.098 475.08 120.321 475.294 120.608C475.51 120.891 475.635 121.209 475.669 121.563H474.869C474.829 121.343 474.734 121.144 474.584 120.968C474.437 120.791 474.252 120.653 474.029 120.553C473.809 120.453 473.57 120.403 473.314 120.403C472.987 120.403 472.692 120.489 472.429 120.663C472.169 120.833 471.964 121.068 471.814 121.368C471.667 121.668 471.594 122.003 471.594 122.373C471.594 122.743 471.667 123.078 471.814 123.378C471.964 123.678 472.169 123.913 472.429 124.083C472.692 124.253 472.987 124.338 473.314 124.338C473.57 124.338 473.809 124.289 474.029 124.193C474.252 124.096 474.437 123.964 474.584 123.798C474.734 123.628 474.829 123.439 474.869 123.233H475.669C475.639 123.576 475.515 123.886 475.299 124.163C475.085 124.439 474.805 124.658 474.459 124.818C474.112 124.974 473.73 125.053 473.314 125.053ZM478.344 124.933C477.974 124.933 477.681 124.834 477.464 124.638C477.251 124.441 477.144 124.169 477.144 123.823L477.139 120.523H476.239L476.244 119.813H476.799C476.926 119.813 477.028 119.773 477.104 119.693C477.184 119.613 477.224 119.511 477.224 119.388V118.533H477.944V119.813H479.179L479.174 120.523H477.939L477.944 123.773C477.944 123.913 477.984 124.023 478.064 124.103C478.148 124.183 478.258 124.223 478.394 124.223H479.174V124.933H478.344ZM484.999 122.568H480.939C480.969 122.918 481.061 123.228 481.214 123.498C481.367 123.768 481.569 123.978 481.819 124.128C482.069 124.278 482.352 124.353 482.669 124.353C482.882 124.353 483.087 124.319 483.284 124.253C483.481 124.186 483.652 124.093 483.799 123.973C483.946 123.853 484.051 123.716 484.114 123.563H484.884C484.827 123.843 484.689 124.096 484.469 124.323C484.252 124.549 483.981 124.728 483.654 124.858C483.331 124.988 482.986 125.053 482.619 125.053C482.136 125.053 481.702 124.938 481.319 124.708C480.939 124.478 480.642 124.159 480.429 123.753C480.216 123.343 480.109 122.879 480.109 122.363C480.109 121.859 480.217 121.404 480.434 120.998C480.651 120.591 480.949 120.273 481.329 120.043C481.712 119.809 482.142 119.693 482.619 119.693C483.072 119.693 483.479 119.809 483.839 120.043C484.202 120.273 484.486 120.593 484.689 121.003C484.896 121.409 484.999 121.866 484.999 122.373V122.568ZM482.629 120.398C482.179 120.398 481.806 120.533 481.509 120.803C481.212 121.073 481.029 121.441 480.959 121.908H484.164C484.094 121.444 483.922 121.078 483.649 120.808C483.379 120.534 483.039 120.398 482.629 120.398ZM490.94 119.813H490.945V124.933H490.175V124.073C489.979 124.386 489.724 124.628 489.41 124.798C489.097 124.968 488.745 125.053 488.355 125.053C487.892 125.053 487.472 124.936 487.095 124.703C486.719 124.469 486.424 124.149 486.21 123.743C485.997 123.333 485.89 122.876 485.89 122.373C485.89 121.869 485.997 121.414 486.21 121.008C486.424 120.598 486.719 120.276 487.095 120.043C487.472 119.809 487.892 119.693 488.355 119.693C488.745 119.693 489.095 119.778 489.405 119.948C489.719 120.118 489.974 120.359 490.17 120.673L490.14 117.933H490.94V119.813ZM488.43 124.333C488.757 124.333 489.05 124.248 489.31 124.078C489.574 123.908 489.779 123.674 489.925 123.378C490.072 123.078 490.145 122.743 490.145 122.373C490.145 122.003 490.072 121.669 489.925 121.373C489.779 121.073 489.574 120.838 489.31 120.668C489.05 120.498 488.757 120.413 488.43 120.413C488.107 120.413 487.815 120.498 487.555 120.668C487.299 120.838 487.097 121.073 486.95 121.373C486.804 121.669 486.73 122.003 486.73 122.373C486.73 122.743 486.804 123.078 486.95 123.378C487.097 123.674 487.299 123.908 487.555 124.078C487.815 124.248 488.107 124.333 488.43 124.333ZM496.867 124.933H496.037L494.352 119.813H495.202L496.372 123.578L496.487 123.988L496.587 123.578L497.802 119.813H498.627L499.847 123.578L499.957 123.988L500.062 123.578L501.202 119.813H502.032L500.347 124.933H499.507L498.307 120.998L498.212 120.668L498.127 120.988L496.867 124.933ZM503.941 124.933H503.141V119.813H503.941V124.933ZM503.086 118.883V117.933H503.996V118.883H503.086ZM507.036 124.933C506.666 124.933 506.372 124.834 506.156 124.638C505.942 124.441 505.836 124.169 505.836 123.823L505.831 120.523H504.931L504.936 119.813H505.491C505.617 119.813 505.719 119.773 505.796 119.693C505.876 119.613 505.916 119.511 505.916 119.388V118.533H506.636V119.813H507.871L507.866 120.523H506.631L506.636 123.773C506.636 123.913 506.676 124.023 506.756 124.103C506.839 124.183 506.949 124.223 507.086 124.223H507.866V124.933H507.036ZM511.625 119.693C512.009 119.693 512.344 119.776 512.63 119.943C512.917 120.106 513.137 120.339 513.29 120.643C513.447 120.946 513.525 121.299 513.525 121.703V124.933H512.725V121.738C512.725 121.308 512.615 120.973 512.395 120.733C512.179 120.493 511.874 120.373 511.48 120.373C511.184 120.373 510.925 120.441 510.705 120.578C510.485 120.711 510.315 120.903 510.195 121.153C510.075 121.399 510.015 121.691 510.015 122.028V124.933H509.215V117.933H510.015V119.578L509.985 120.593C510.145 120.299 510.364 120.076 510.64 119.923C510.92 119.769 511.249 119.693 511.625 119.693ZM444.495 131.813H444.5V136.933H443.73V136.073C443.533 136.386 443.278 136.628 442.965 136.798C442.652 136.968 442.3 137.053 441.91 137.053C441.447 137.053 441.027 136.936 440.65 136.703C440.273 136.469 439.978 136.149 439.765 135.743C439.552 135.333 439.445 134.876 439.445 134.373C439.445 133.869 439.552 133.414 439.765 133.008C439.978 132.598 440.273 132.276 440.65 132.043C441.027 131.809 441.447 131.693 441.91 131.693C442.3 131.693 442.65 131.778 442.96 131.948C443.273 132.118 443.528 132.359 443.725 132.673L443.695 129.933H444.495V131.813ZM441.985 136.333C442.312 136.333 442.605 136.248 442.865 136.078C443.128 135.908 443.333 135.674 443.48 135.378C443.627 135.078 443.7 134.743 443.7 134.373C443.7 134.003 443.627 133.669 443.48 133.373C443.333 133.073 443.128 132.838 442.865 132.668C442.605 132.498 442.312 132.413 441.985 132.413C441.662 132.413 441.37 132.498 441.11 132.668C440.853 132.838 440.652 133.073 440.505 133.373C440.358 133.669 440.285 134.003 440.285 134.373C440.285 134.743 440.358 135.078 440.505 135.378C440.652 135.674 440.853 135.908 441.11 136.078C441.37 136.248 441.662 136.333 441.985 136.333ZM446.978 136.933H446.178V131.813H446.978V136.933ZM446.123 130.883V129.933H447.033V130.883H446.123ZM451.183 131.763V132.598H450.998C450.531 132.598 450.165 132.738 449.898 133.018C449.631 133.298 449.498 133.691 449.498 134.198V136.933H448.698V131.813H449.498V132.843C449.641 132.496 449.841 132.229 450.098 132.043C450.358 131.856 450.668 131.763 451.028 131.763H451.183ZM456.718 134.568H452.658C452.688 134.918 452.779 135.228 452.933 135.498C453.086 135.768 453.288 135.978 453.538 136.128C453.788 136.278 454.071 136.353 454.388 136.353C454.601 136.353 454.806 136.319 455.003 136.253C455.199 136.186 455.371 136.093 455.518 135.973C455.664 135.853 455.769 135.716 455.833 135.563H456.603C456.546 135.843 456.408 136.096 456.188 136.323C455.971 136.549 455.699 136.728 455.373 136.858C455.049 136.988 454.704 137.053 454.338 137.053C453.854 137.053 453.421 136.938 453.038 136.708C452.658 136.478 452.361 136.159 452.148 135.753C451.934 135.343 451.828 134.879 451.828 134.363C451.828 133.859 451.936 133.404 452.153 132.998C452.369 132.591 452.668 132.273 453.048 132.043C453.431 131.809 453.861 131.693 454.338 131.693C454.791 131.693 455.198 131.809 455.558 132.043C455.921 132.273 456.204 132.593 456.408 133.003C456.614 133.409 456.718 133.866 456.718 134.373V134.568ZM454.348 132.398C453.898 132.398 453.524 132.533 453.228 132.803C452.931 133.073 452.748 133.441 452.678 133.908H455.883C455.813 133.444 455.641 133.078 455.368 132.808C455.098 132.534 454.758 132.398 454.348 132.398ZM460.169 137.053C459.686 137.053 459.249 136.936 458.859 136.703C458.469 136.469 458.162 136.149 457.939 135.743C457.719 135.333 457.609 134.876 457.609 134.373C457.609 133.869 457.719 133.414 457.939 133.008C458.162 132.598 458.469 132.276 458.859 132.043C459.249 131.809 459.686 131.693 460.169 131.693C460.582 131.693 460.962 131.774 461.309 131.938C461.656 132.098 461.936 132.321 462.149 132.608C462.366 132.891 462.491 133.209 462.524 133.563H461.724C461.684 133.343 461.589 133.144 461.439 132.968C461.292 132.791 461.107 132.653 460.884 132.553C460.664 132.453 460.426 132.403 460.169 132.403C459.842 132.403 459.547 132.489 459.284 132.663C459.024 132.833 458.819 133.068 458.669 133.368C458.522 133.668 458.449 134.003 458.449 134.373C458.449 134.743 458.522 135.078 458.669 135.378C458.819 135.678 459.024 135.913 459.284 136.083C459.547 136.253 459.842 136.338 460.169 136.338C460.426 136.338 460.664 136.289 460.884 136.193C461.107 136.096 461.292 135.964 461.439 135.798C461.589 135.628 461.684 135.439 461.724 135.233H462.524C462.494 135.576 462.371 135.886 462.154 136.163C461.941 136.439 461.661 136.658 461.314 136.818C460.967 136.974 460.586 137.053 460.169 137.053ZM465.2 136.933C464.83 136.933 464.537 136.834 464.32 136.638C464.107 136.441 464 136.169 464 135.823L463.995 132.523H463.095L463.1 131.813H463.655C463.782 131.813 463.883 131.773 463.96 131.693C464.04 131.613 464.08 131.511 464.08 131.388V130.533H464.8V131.813H466.035L466.03 132.523H464.795L464.8 135.773C464.8 135.913 464.84 136.023 464.92 136.103C465.003 136.183 465.113 136.223 465.25 136.223H466.03V136.933H465.2ZM470.65 136.933H469.85V131.813H470.65V136.933ZM469.795 130.883V129.933H470.705V130.883H469.795ZM474.78 131.693C475.163 131.693 475.498 131.776 475.785 131.943C476.071 132.106 476.291 132.339 476.445 132.643C476.601 132.946 476.68 133.299 476.68 133.703V136.933H475.88V133.763C475.88 133.326 475.766 132.986 475.54 132.743C475.316 132.496 475.005 132.373 474.605 132.373C474.318 132.373 474.066 132.434 473.85 132.558C473.633 132.678 473.465 132.851 473.345 133.078C473.228 133.304 473.17 133.571 473.17 133.878V136.933H472.37V131.813H473.14V132.598C473.303 132.298 473.523 132.073 473.8 131.923C474.076 131.769 474.403 131.693 474.78 131.693ZM479.653 136.933C479.283 136.933 478.99 136.834 478.773 136.638C478.56 136.441 478.453 136.169 478.453 135.823L478.448 132.523H477.548L477.553 131.813H478.108C478.235 131.813 478.336 131.773 478.413 131.693C478.493 131.613 478.533 131.511 478.533 131.388V130.533H479.253V131.813H480.488L480.483 132.523H479.248L479.253 135.773C479.253 135.913 479.293 136.023 479.373 136.103C479.456 136.183 479.566 136.223 479.703 136.223H480.483V136.933H479.653ZM486.308 134.568H482.248C482.278 134.918 482.369 135.228 482.523 135.498C482.676 135.768 482.878 135.978 483.128 136.128C483.378 136.278 483.661 136.353 483.978 136.353C484.191 136.353 484.396 136.319 484.593 136.253C484.789 136.186 484.961 136.093 485.108 135.973C485.254 135.853 485.359 135.716 485.423 135.563H486.193C486.136 135.843 485.998 136.096 485.778 136.323C485.561 136.549 485.289 136.728 484.963 136.858C484.639 136.988 484.294 137.053 483.928 137.053C483.444 137.053 483.011 136.938 482.628 136.708C482.248 136.478 481.951 136.159 481.738 135.753C481.524 135.343 481.418 134.879 481.418 134.363C481.418 133.859 481.526 133.404 481.743 132.998C481.959 132.591 482.258 132.273 482.638 132.043C483.021 131.809 483.451 131.693 483.928 131.693C484.381 131.693 484.788 131.809 485.148 132.043C485.511 132.273 485.794 132.593 485.998 133.003C486.204 133.409 486.308 133.866 486.308 134.373V134.568ZM483.938 132.398C483.488 132.398 483.114 132.533 482.818 132.803C482.521 133.073 482.338 133.441 482.268 133.908H485.473C485.403 133.444 485.231 133.078 484.958 132.808C484.688 132.534 484.348 132.398 483.938 132.398ZM491.269 131.813H492.044L492.034 136.528C492.034 136.971 491.939 137.351 491.749 137.668C491.562 137.988 491.292 138.231 490.939 138.398C490.589 138.568 490.176 138.653 489.699 138.653C489.262 138.653 488.872 138.579 488.529 138.433C488.189 138.289 487.917 138.088 487.714 137.828C487.511 137.568 487.391 137.268 487.354 136.928H488.154C488.197 137.128 488.289 137.306 488.429 137.463C488.569 137.623 488.747 137.746 488.964 137.833C489.184 137.923 489.429 137.968 489.699 137.968C490.176 137.968 490.549 137.841 490.819 137.588C491.092 137.338 491.229 136.984 491.229 136.528V136.173L491.244 135.648C491.051 135.921 490.804 136.133 490.504 136.283C490.207 136.429 489.876 136.503 489.509 136.503C489.076 136.503 488.687 136.401 488.344 136.198C488.004 135.994 487.737 135.711 487.544 135.348C487.354 134.984 487.259 134.571 487.259 134.108C487.259 133.644 487.354 133.231 487.544 132.868C487.737 132.504 488.004 132.221 488.344 132.018C488.687 131.814 489.076 131.713 489.509 131.713C489.882 131.713 490.221 131.791 490.524 131.948C490.827 132.101 491.076 132.319 491.269 132.603V131.813ZM489.654 135.803C489.961 135.803 490.234 135.733 490.474 135.593C490.714 135.453 490.901 135.254 491.034 134.998C491.171 134.741 491.239 134.444 491.239 134.108C491.239 133.771 491.171 133.474 491.034 133.218C490.901 132.961 490.714 132.763 490.474 132.623C490.234 132.483 489.961 132.413 489.654 132.413C489.351 132.413 489.081 132.484 488.844 132.628C488.607 132.768 488.424 132.966 488.294 133.223C488.164 133.476 488.099 133.771 488.099 134.108C488.099 134.444 488.164 134.741 488.294 134.998C488.424 135.251 488.607 135.449 488.844 135.593C489.081 135.733 489.351 135.803 489.654 135.803ZM496.202 131.763V132.598H496.017C495.551 132.598 495.184 132.738 494.917 133.018C494.651 133.298 494.517 133.691 494.517 134.198V136.933H493.717V131.813H494.517V132.843C494.661 132.496 494.861 132.229 495.117 132.043C495.377 131.856 495.687 131.763 496.047 131.763H496.202ZM499.154 131.693C499.54 131.693 499.879 131.764 500.169 131.908C500.462 132.048 500.689 132.253 500.849 132.523C501.009 132.793 501.089 133.118 501.089 133.498V136.933H500.309V136.173C500.152 136.459 499.927 136.678 499.634 136.828C499.344 136.978 498.995 137.053 498.589 137.053C498.252 137.053 497.952 136.991 497.689 136.868C497.429 136.741 497.225 136.566 497.079 136.343C496.935 136.119 496.864 135.864 496.864 135.578C496.864 135.311 496.93 135.066 497.064 134.843C497.2 134.616 497.389 134.431 497.629 134.288C497.869 134.144 498.14 134.058 498.444 134.028L499.939 133.878C500.049 133.868 500.135 133.821 500.199 133.738C500.265 133.654 500.299 133.534 500.299 133.378C500.299 133.174 500.249 132.996 500.149 132.843C500.052 132.689 499.915 132.571 499.739 132.488C499.565 132.404 499.364 132.363 499.134 132.363C498.907 132.363 498.7 132.401 498.514 132.478C498.327 132.554 498.175 132.659 498.059 132.793C497.942 132.926 497.874 133.073 497.854 133.233H497.074C497.104 132.949 497.214 132.691 497.404 132.458C497.594 132.221 497.842 132.034 498.149 131.898C498.455 131.761 498.79 131.693 499.154 131.693ZM498.739 136.428C499.042 136.428 499.312 136.369 499.549 136.253C499.785 136.133 499.969 135.966 500.099 135.753C500.232 135.536 500.299 135.291 500.299 135.018V134.438L498.554 134.618C498.287 134.644 498.072 134.743 497.909 134.913C497.745 135.083 497.664 135.289 497.664 135.533C497.664 135.706 497.709 135.861 497.799 135.998C497.889 136.131 498.015 136.236 498.179 136.313C498.342 136.389 498.529 136.428 498.739 136.428ZM504.067 136.933C503.697 136.933 503.404 136.834 503.187 136.638C502.974 136.441 502.867 136.169 502.867 135.823L502.862 132.523H501.962L501.967 131.813H502.522C502.649 131.813 502.75 131.773 502.827 131.693C502.907 131.613 502.947 131.511 502.947 131.388V130.533H503.667V131.813H504.902L504.897 132.523H503.662L503.667 135.773C503.667 135.913 503.707 136.023 503.787 136.103C503.87 136.183 503.98 136.223 504.117 136.223H504.897V136.933H504.067ZM507.047 136.933H506.247V131.813H507.047V136.933ZM506.192 130.883V129.933H507.102V130.883H506.192ZM510.921 137.053C510.435 137.053 509.996 136.938 509.606 136.708C509.216 136.474 508.91 136.154 508.686 135.748C508.463 135.341 508.351 134.883 508.351 134.373C508.351 133.863 508.463 133.404 508.686 132.998C508.91 132.591 509.218 132.273 509.611 132.043C510.005 131.809 510.445 131.693 510.931 131.693C511.418 131.693 511.858 131.809 512.251 132.043C512.645 132.273 512.953 132.591 513.176 132.998C513.4 133.404 513.511 133.863 513.511 134.373C513.511 134.883 513.398 135.341 513.171 135.748C512.948 136.154 512.64 136.474 512.246 136.708C511.853 136.938 511.411 137.053 510.921 137.053ZM510.931 136.313C511.265 136.313 511.563 136.233 511.826 136.073C512.09 135.909 512.296 135.681 512.446 135.388C512.596 135.094 512.671 134.756 512.671 134.373C512.671 133.989 512.596 133.651 512.446 133.358C512.296 133.061 512.09 132.833 511.826 132.673C511.563 132.509 511.265 132.428 510.931 132.428C510.598 132.428 510.3 132.509 510.036 132.673C509.773 132.833 509.566 133.061 509.416 133.358C509.266 133.651 509.191 133.989 509.191 134.373C509.191 134.756 509.266 135.094 509.416 135.388C509.566 135.681 509.773 135.909 510.036 136.073C510.3 136.233 510.598 136.313 510.931 136.313ZM517.231 131.693C517.614 131.693 517.949 131.776 518.236 131.943C518.523 132.106 518.743 132.339 518.896 132.643C519.053 132.946 519.131 133.299 519.131 133.703V136.933H518.331V133.763C518.331 133.326 518.218 132.986 517.991 132.743C517.768 132.496 517.456 132.373 517.056 132.373C516.769 132.373 516.518 132.434 516.301 132.558C516.084 132.678 515.916 132.851 515.796 133.078C515.679 133.304 515.621 133.571 515.621 133.878V136.933H514.821V131.813H515.591V132.598C515.754 132.298 515.974 132.073 516.251 131.923C516.528 131.769 516.854 131.693 517.231 131.693Z" fill="#595959"/>
<defs>
<radialGradient id="paint0_radial_1544_2" cx="0" cy="0" r="1" gradientUnits="userSpaceOnUse" gradientTransform="translate(454.449 76.5975) scale(192.038 188.133)">
<stop stop-color="#EB4857"/>
<stop offset="0.5" stop-color="#C611E0"/>
<stop offset="1" stop-color="#7F52FF"/>
</radialGradient>
<radialGradient id="paint1_radial_1544_2" cx="0" cy="0" r="1" gradientUnits="userSpaceOnUse" gradientTransform="translate(54.4487 76.5975) scale(192.038 188.133)">
<stop stop-color="#EB4857"/>
<stop offset="0.5" stop-color="#C611E0"/>
<stop offset="1" stop-color="#7F52FF"/>
</radialGradient>
</defs>
</svg>
