<svg width="706" height="379" viewBox="0 0 706 379" fill="none" xmlns="http://www.w3.org/2000/svg">
<rect width="706" height="379" fill="white"/>
<path d="M545 147.523L544.65 147.523L545 147.523ZM369 94L371.021 97.5L366.979 97.5L369 94ZM544.65 176L544.65 147.523L545.35 147.523L545.35 176L544.65 176ZM531 133.873L383 133.873L383 133.173L531 133.173L531 133.873ZM368.65 119.523L368.65 97.15L369.35 97.15L369.35 119.523L368.65 119.523ZM383 133.873C375.075 133.873 368.65 127.448 368.65 119.523L369.35 119.523C369.35 127.061 375.461 133.173 383 133.173L383 133.873ZM544.65 147.523C544.65 139.984 538.539 133.873 531 133.873L531 133.173C538.925 133.173 545.35 139.597 545.35 147.523L544.65 147.523Z" fill="black"/>
<path d="M436 280.509L435.65 280.509L436 280.509ZM167 240L169.021 243.5L164.979 243.5L167 240ZM435.65 295L435.65 280.509L436.35 280.509L436.35 295L435.65 295ZM422 266.859L181 266.859L181 266.159L422 266.159L422 266.859ZM166.65 252.509L166.65 243.15L167.35 243.15L167.35 252.509L166.65 252.509ZM181 266.859C173.075 266.859 166.65 260.434 166.65 252.509L167.35 252.509C167.35 260.048 173.461 266.159 181 266.159L181 266.859ZM435.65 280.509C435.65 272.97 429.539 266.859 422 266.859L422 266.159C429.925 266.159 436.35 272.584 436.35 280.509L435.65 280.509Z" fill="black"/>
<path d="M164 147.523L164.35 147.523L164 147.523ZM363 94L360.979 97.5L365.021 97.5L363 94ZM164.35 176L164.35 147.523L163.65 147.523L163.65 176L164.35 176ZM178 133.873L349 133.873L349 133.173L178 133.173L178 133.873ZM363.35 119.523L363.35 97.15L362.65 97.15L362.65 119.523L363.35 119.523ZM349 133.873C356.925 133.873 363.35 127.448 363.35 119.523L362.65 119.523C362.65 127.061 356.539 133.173 349 133.173L349 133.873ZM164.35 147.523C164.35 139.984 170.461 133.873 178 133.873L178 133.173C170.075 133.173 163.65 139.597 163.65 147.523L164.35 147.523Z" fill="black"/>
<rect x="143" y="29" width="197" height="53" rx="12" fill="url(#paint0_radial_1506_307)"/>
<path d="M205.748 59.144C205.168 59.144 204.644 59.004 204.176 58.724C203.708 58.444 203.34 58.06 203.072 57.572C202.808 57.08 202.676 56.532 202.676 55.928C202.676 55.324 202.808 54.778 203.072 54.29C203.34 53.798 203.708 53.412 204.176 53.132C204.644 52.852 205.168 52.712 205.748 52.712C206.492 52.712 207.116 52.902 207.62 53.282C208.124 53.658 208.446 54.204 208.586 54.92H207.626C207.498 54.48 207.262 54.148 206.918 53.924C206.578 53.696 206.188 53.582 205.748 53.582C205.352 53.582 204.996 53.682 204.68 53.882C204.368 54.082 204.124 54.36 203.948 54.716C203.772 55.072 203.684 55.476 203.684 55.928C203.684 56.376 203.772 56.778 203.948 57.134C204.124 57.49 204.368 57.77 204.68 57.974C204.996 58.174 205.352 58.274 205.748 58.274C206.188 58.274 206.578 58.162 206.918 57.938C207.262 57.71 207.498 57.376 207.626 56.936H208.586C208.494 57.4 208.314 57.798 208.046 58.13C207.778 58.462 207.446 58.714 207.05 58.886C206.654 59.058 206.22 59.144 205.748 59.144ZM212.758 59.144C212.174 59.144 211.642 59.006 211.162 58.73C210.686 58.45 210.31 58.066 210.034 57.578C209.762 57.086 209.626 56.536 209.626 55.928C209.626 55.32 209.762 54.772 210.034 54.284C210.31 53.792 210.688 53.408 211.168 53.132C211.648 52.852 212.18 52.712 212.764 52.712C213.348 52.712 213.878 52.852 214.354 53.132C214.83 53.408 215.204 53.79 215.476 54.278C215.752 54.766 215.89 55.316 215.89 55.928C215.89 56.54 215.752 57.09 215.476 57.578C215.204 58.066 214.83 58.45 214.354 58.73C213.878 59.006 213.346 59.144 212.758 59.144ZM210.634 55.928C210.634 56.388 210.726 56.796 210.91 57.152C211.098 57.504 211.354 57.778 211.678 57.974C212.006 58.17 212.37 58.268 212.77 58.268C213.17 58.268 213.53 58.17 213.85 57.974C214.17 57.778 214.422 57.504 214.606 57.152C214.79 56.796 214.882 56.388 214.882 55.928C214.882 55.468 214.79 55.06 214.606 54.704C214.422 54.348 214.168 54.072 213.844 53.876C213.524 53.68 213.164 53.582 212.764 53.582C212.364 53.582 212.002 53.68 211.678 53.876C211.354 54.072 211.098 54.348 210.91 54.704C210.726 55.06 210.634 55.468 210.634 55.928ZM217.472 52.856H218.396V53.894C218.58 53.514 218.834 53.222 219.158 53.018C219.486 52.814 219.87 52.712 220.31 52.712C220.77 52.712 221.17 52.822 221.51 53.042C221.85 53.262 222.104 53.572 222.272 53.972C222.468 53.572 222.742 53.262 223.094 53.042C223.446 52.822 223.852 52.712 224.312 52.712C224.748 52.712 225.134 52.812 225.47 53.012C225.81 53.208 226.074 53.488 226.262 53.852C226.45 54.216 226.544 54.64 226.544 55.124V59H225.584V55.166C225.584 54.658 225.456 54.258 225.2 53.966C224.948 53.674 224.592 53.528 224.132 53.528C223.804 53.528 223.516 53.604 223.268 53.756C223.02 53.904 222.828 54.116 222.692 54.392C222.556 54.664 222.488 54.986 222.488 55.358V59H221.528V55.166C221.528 54.658 221.4 54.258 221.144 53.966C220.892 53.674 220.536 53.528 220.076 53.528C219.744 53.528 219.454 53.602 219.206 53.75C218.958 53.898 218.766 54.11 218.63 54.386C218.498 54.662 218.432 54.986 218.432 55.358V59H217.472V52.856ZM228.464 52.856H229.388V53.894C229.572 53.514 229.826 53.222 230.15 53.018C230.478 52.814 230.862 52.712 231.302 52.712C231.762 52.712 232.162 52.822 232.502 53.042C232.842 53.262 233.096 53.572 233.264 53.972C233.46 53.572 233.734 53.262 234.086 53.042C234.438 52.822 234.844 52.712 235.304 52.712C235.74 52.712 236.126 52.812 236.462 53.012C236.802 53.208 237.066 53.488 237.254 53.852C237.442 54.216 237.536 54.64 237.536 55.124V59H236.576V55.166C236.576 54.658 236.448 54.258 236.192 53.966C235.94 53.674 235.584 53.528 235.124 53.528C234.796 53.528 234.508 53.604 234.26 53.756C234.012 53.904 233.82 54.116 233.684 54.392C233.548 54.664 233.48 54.986 233.48 55.358V59H232.52V55.166C232.52 54.658 232.392 54.258 232.136 53.966C231.884 53.674 231.528 53.528 231.068 53.528C230.736 53.528 230.446 53.602 230.198 53.75C229.95 53.898 229.758 54.11 229.622 54.386C229.49 54.662 229.424 54.986 229.424 55.358V59H228.464V52.856ZM242.066 59.144C241.482 59.144 240.95 59.006 240.47 58.73C239.994 58.45 239.618 58.066 239.342 57.578C239.07 57.086 238.934 56.536 238.934 55.928C238.934 55.32 239.07 54.772 239.342 54.284C239.618 53.792 239.996 53.408 240.476 53.132C240.956 52.852 241.488 52.712 242.072 52.712C242.656 52.712 243.186 52.852 243.662 53.132C244.138 53.408 244.512 53.79 244.784 54.278C245.06 54.766 245.198 55.316 245.198 55.928C245.198 56.54 245.06 57.09 244.784 57.578C244.512 58.066 244.138 58.45 243.662 58.73C243.186 59.006 242.654 59.144 242.066 59.144ZM239.942 55.928C239.942 56.388 240.034 56.796 240.218 57.152C240.406 57.504 240.662 57.778 240.986 57.974C241.314 58.17 241.678 58.268 242.078 58.268C242.478 58.268 242.838 58.17 243.158 57.974C243.478 57.778 243.73 57.504 243.914 57.152C244.098 56.796 244.19 56.388 244.19 55.928C244.19 55.468 244.098 55.06 243.914 54.704C243.73 54.348 243.476 54.072 243.152 53.876C242.832 53.68 242.472 53.582 242.072 53.582C241.672 53.582 241.31 53.68 240.986 53.876C240.662 54.072 240.406 54.348 240.218 54.704C240.034 55.06 239.942 55.468 239.942 55.928ZM246.78 52.856H247.704V53.852C247.912 53.484 248.188 53.202 248.532 53.006C248.88 52.81 249.282 52.712 249.738 52.712C250.178 52.712 250.568 52.806 250.908 52.994C251.248 53.182 251.514 53.46 251.706 53.828C251.902 54.192 252 54.63 252 55.142V59H251.04V55.238C251.04 54.706 250.902 54.292 250.626 53.996C250.35 53.7 249.97 53.552 249.486 53.552C249.142 53.552 248.838 53.628 248.574 53.78C248.31 53.932 248.104 54.146 247.956 54.422C247.812 54.694 247.74 55.006 247.74 55.358V59H246.78V52.856ZM254.157 50.6H255.399L258.411 57.332L258.567 57.758L258.717 57.332L261.675 50.6H262.941V59H261.945V52.208L258.975 59H258.141L255.147 52.244V59H254.157V50.6ZM267.45 52.712C267.914 52.712 268.322 52.798 268.674 52.97C269.026 53.138 269.298 53.386 269.49 53.714C269.686 54.038 269.784 54.424 269.784 54.872V59H268.848V57.998C268.676 58.37 268.424 58.654 268.092 58.85C267.76 59.046 267.366 59.144 266.91 59.144C266.518 59.144 266.164 59.068 265.848 58.916C265.532 58.764 265.284 58.554 265.104 58.286C264.924 58.018 264.834 57.714 264.834 57.374C264.834 57.054 264.916 56.76 265.08 56.492C265.248 56.22 265.478 55.998 265.77 55.826C266.066 55.654 266.398 55.548 266.766 55.508L268.404 55.328C268.54 55.312 268.646 55.256 268.722 55.16C268.798 55.064 268.836 54.924 268.836 54.74C268.836 54.496 268.778 54.282 268.662 54.098C268.546 53.914 268.382 53.772 268.17 53.672C267.962 53.568 267.72 53.516 267.444 53.516C267.168 53.516 266.92 53.564 266.7 53.66C266.48 53.752 266.302 53.878 266.166 54.038C266.034 54.194 265.954 54.364 265.926 54.548H264.966C265.014 54.2 265.15 53.888 265.374 53.612C265.602 53.332 265.896 53.112 266.256 52.952C266.616 52.792 267.014 52.712 267.45 52.712ZM265.83 57.32C265.83 57.528 265.884 57.712 265.992 57.872C266.104 58.032 266.258 58.158 266.454 58.25C266.65 58.338 266.874 58.382 267.126 58.382C267.47 58.382 267.77 58.312 268.026 58.172C268.286 58.032 268.486 57.836 268.626 57.584C268.766 57.328 268.836 57.034 268.836 56.702V56L266.898 56.216C266.578 56.252 266.32 56.372 266.124 56.576C265.928 56.78 265.83 57.028 265.83 57.32ZM271.706 52.856H272.666V59H271.706V52.856ZM272.75 50.6V51.74H271.622V50.6H272.75ZM274.765 52.856H275.689V53.852C275.897 53.484 276.173 53.202 276.517 53.006C276.865 52.81 277.267 52.712 277.723 52.712C278.163 52.712 278.553 52.806 278.893 52.994C279.233 53.182 279.499 53.46 279.691 53.828C279.887 54.192 279.985 54.63 279.985 55.142V59H279.025V55.238C279.025 54.706 278.887 54.292 278.611 53.996C278.335 53.7 277.955 53.552 277.471 53.552C277.127 53.552 276.823 53.628 276.559 53.78C276.295 53.932 276.089 54.146 275.941 54.422C275.797 54.694 275.725 55.006 275.725 55.358V59H274.765V52.856Z" fill="white"/>
<rect x="344" y="31" width="112" height="24" rx="12" fill="#F2F2F2"/>
<path d="M387.924 45.07H389.352C389.588 45.07 389.796 45.02 389.976 44.92C390.16 44.82 390.302 44.68 390.402 44.5C390.502 44.316 390.552 44.106 390.552 43.87V37.6H391.548V43.93C391.548 44.334 391.458 44.694 391.278 45.01C391.098 45.322 390.846 45.566 390.522 45.742C390.198 45.914 389.828 46 389.412 46H387.924V45.07ZM393.033 37.6H394.125L396.783 44.71L399.345 37.6H400.449L397.263 46H396.243L393.033 37.6ZM401.999 37.6H403.241L406.253 44.332L406.409 44.758L406.559 44.332L409.517 37.6H410.783V46H409.787V39.208L406.817 46H405.983L402.989 39.244V46H401.999V37.6Z" fill="black"/>
<path d="M462 43C462 36.3726 467.373 31 474 31H576C582.627 31 588 36.3726 588 43C588 49.6274 582.627 55 576 55H474C467.373 55 462 49.6274 462 43Z" fill="#F2F2F2"/>
<path d="M501.783 38.6H502.743V47H501.783V38.6ZM504.842 40.856H505.802V47H504.842V40.856ZM505.886 38.6V39.74H504.758V38.6H505.886ZM507.9 40.856H508.824V41.852C509.032 41.484 509.308 41.202 509.652 41.006C510 40.81 510.402 40.712 510.858 40.712C511.298 40.712 511.688 40.806 512.028 40.994C512.368 41.182 512.634 41.46 512.826 41.828C513.022 42.192 513.12 42.63 513.12 43.142V47H512.16V43.238C512.16 42.706 512.022 42.292 511.746 41.996C511.47 41.7 511.09 41.552 510.606 41.552C510.262 41.552 509.958 41.628 509.694 41.78C509.43 41.932 509.224 42.146 509.076 42.422C508.932 42.694 508.86 43.006 508.86 43.358V47H507.9V40.856ZM520.077 47H519.153V46.004C518.945 46.372 518.667 46.654 518.319 46.85C517.975 47.046 517.575 47.144 517.119 47.144C516.679 47.144 516.289 47.05 515.949 46.862C515.609 46.674 515.341 46.398 515.145 46.034C514.953 45.666 514.857 45.226 514.857 44.714V40.856H515.817V44.618C515.817 45.15 515.955 45.564 516.231 45.86C516.507 46.156 516.887 46.304 517.371 46.304C517.715 46.304 518.019 46.228 518.283 46.076C518.547 45.924 518.751 45.712 518.895 45.44C519.043 45.164 519.117 44.85 519.117 44.498V40.856H520.077V47ZM524.136 44.606L522.498 47H521.406L523.632 43.832L521.514 40.856H522.63L524.184 43.088L525.708 40.856H526.8L524.694 43.862L526.914 47H525.798L524.136 44.606ZM530.5 42.734L527.704 38.6H528.868L530.842 41.612L531.1 41.978L531.514 41.36L533.344 38.6H534.484L531.664 42.71L534.604 47H533.44L531.322 43.856L531.052 43.466L530.602 44.144L528.724 47H527.584L530.5 42.734ZM539.061 47.144C538.401 47.144 537.823 46.974 537.327 46.634C536.835 46.29 536.455 45.804 536.187 45.176C535.919 44.544 535.785 43.806 535.785 42.962C535.785 42.054 535.923 41.26 536.199 40.58C536.475 39.896 536.861 39.372 537.357 39.008C537.853 38.64 538.421 38.456 539.061 38.456C539.689 38.456 540.259 38.598 540.771 38.882C541.287 39.166 541.663 39.616 541.899 40.232H540.903C540.759 39.98 540.525 39.772 540.201 39.608C539.881 39.44 539.519 39.356 539.115 39.356C538.671 39.356 538.271 39.48 537.915 39.728C537.563 39.976 537.281 40.368 537.069 40.904C536.857 41.436 536.749 42.11 536.745 42.926C536.933 42.45 537.251 42.072 537.699 41.792C538.151 41.512 538.679 41.372 539.283 41.372C539.823 41.372 540.309 41.498 540.741 41.75C541.177 41.998 541.517 42.342 541.761 42.782C542.009 43.222 542.133 43.714 542.133 44.258C542.133 44.802 541.999 45.294 541.731 45.734C541.467 46.174 541.101 46.52 540.633 46.772C540.165 47.02 539.641 47.144 539.061 47.144ZM537.045 44.252C537.045 44.632 537.133 44.974 537.309 45.278C537.485 45.578 537.729 45.814 538.041 45.986C538.357 46.158 538.711 46.244 539.103 46.244C539.483 46.244 539.825 46.16 540.129 45.992C540.433 45.82 540.671 45.584 540.843 45.284C541.015 44.98 541.101 44.64 541.101 44.264C541.101 43.884 541.013 43.542 540.837 43.238C540.661 42.93 540.417 42.688 540.105 42.512C539.797 42.336 539.449 42.248 539.061 42.248C538.677 42.248 538.331 42.336 538.023 42.512C537.719 42.684 537.479 42.924 537.303 43.232C537.131 43.536 537.045 43.876 537.045 44.252ZM547.29 44.93H543.03V44.03L547.284 38.6H548.274V44.03H549.582V44.93H548.274V47H547.29V44.93ZM547.29 44.03V39.884L544.062 44.03H547.29Z" fill="black"/>
<rect x="344" y="59" width="112" height="24" rx="12" fill="#F2F2F2"/>
<path d="M393.971 74.07H395.399C395.635 74.07 395.843 74.02 396.023 73.92C396.207 73.82 396.349 73.68 396.449 73.5C396.549 73.316 396.599 73.106 396.599 72.87V66.6H397.595V72.93C397.595 73.334 397.505 73.694 397.325 74.01C397.145 74.322 396.893 74.566 396.569 74.742C396.245 74.914 395.875 75 395.459 75H393.971V74.07ZM402.41 75.144C401.834 75.144 401.324 75.038 400.88 74.826C400.44 74.614 400.096 74.318 399.848 73.938C399.604 73.558 399.482 73.122 399.482 72.63H400.502C400.502 72.946 400.582 73.226 400.742 73.47C400.902 73.714 401.128 73.904 401.42 74.04C401.712 74.176 402.046 74.244 402.422 74.244C402.794 74.244 403.12 74.182 403.4 74.058C403.684 73.93 403.902 73.752 404.054 73.524C404.21 73.292 404.288 73.026 404.288 72.726C404.288 72.346 404.174 72.02 403.946 71.748C403.722 71.476 403.422 71.308 403.046 71.244L401.69 71.01C401.282 70.938 400.928 70.796 400.628 70.584C400.328 70.372 400.098 70.108 399.938 69.792C399.778 69.476 399.698 69.132 399.698 68.76C399.698 68.324 399.812 67.932 400.04 67.584C400.272 67.232 400.592 66.956 401 66.756C401.412 66.556 401.874 66.456 402.386 66.456C402.914 66.456 403.384 66.556 403.796 66.756C404.208 66.952 404.528 67.226 404.756 67.578C404.984 67.93 405.098 68.332 405.098 68.784H404.078C404.078 68.508 404.008 68.262 403.868 68.046C403.728 67.826 403.53 67.656 403.274 67.536C403.022 67.416 402.73 67.356 402.398 67.356C402.066 67.356 401.772 67.414 401.516 67.53C401.26 67.646 401.06 67.81 400.916 68.022C400.776 68.234 400.706 68.48 400.706 68.76C400.706 69.092 400.812 69.378 401.024 69.618C401.24 69.858 401.522 70.008 401.87 70.068L403.25 70.308C403.65 70.38 404.006 70.534 404.318 70.77C404.63 71.006 404.872 71.296 405.044 71.64C405.216 71.98 405.302 72.338 405.302 72.714C405.302 73.166 405.18 73.578 404.936 73.95C404.692 74.318 404.35 74.61 403.91 74.826C403.47 75.038 402.97 75.144 402.41 75.144Z" fill="black"/>
<rect x="139.35" y="25.35" width="452.3" height="60.3" rx="14.65" stroke="#595959" stroke-width="0.7"/>
<path d="M429 191C429 184.373 434.373 179 441 179H532C538.627 179 544 184.373 544 191V220C544 226.627 538.627 232 532 232H441C434.373 232 429 226.627 429 220V191Z" fill="url(#paint1_radial_1506_307)"/>
<path d="M448.843 199.6H449.803V208H448.843V199.6ZM451.902 201.856H452.862V208H451.902V201.856ZM452.946 199.6V200.74H451.818V199.6H452.946ZM454.96 201.856H455.884V202.852C456.092 202.484 456.368 202.202 456.712 202.006C457.06 201.81 457.462 201.712 457.918 201.712C458.358 201.712 458.748 201.806 459.088 201.994C459.428 202.182 459.694 202.46 459.886 202.828C460.082 203.192 460.18 203.63 460.18 204.142V208H459.22V204.238C459.22 203.706 459.082 203.292 458.806 202.996C458.53 202.7 458.15 202.552 457.666 202.552C457.322 202.552 457.018 202.628 456.754 202.78C456.49 202.932 456.284 203.146 456.136 203.422C455.992 203.694 455.92 204.006 455.92 204.358V208H454.96V201.856ZM467.137 208H466.213V207.004C466.005 207.372 465.727 207.654 465.379 207.85C465.035 208.046 464.635 208.144 464.179 208.144C463.739 208.144 463.349 208.05 463.009 207.862C462.669 207.674 462.401 207.398 462.205 207.034C462.013 206.666 461.917 206.226 461.917 205.714V201.856H462.877V205.618C462.877 206.15 463.015 206.564 463.291 206.86C463.567 207.156 463.947 207.304 464.431 207.304C464.775 207.304 465.079 207.228 465.343 207.076C465.607 206.924 465.811 206.712 465.955 206.44C466.103 206.164 466.177 205.85 466.177 205.498V201.856H467.137V208ZM471.196 205.606L469.558 208H468.466L470.692 204.832L468.574 201.856H469.69L471.244 204.088L472.768 201.856H473.86L471.754 204.862L473.974 208H472.858L471.196 205.606ZM477.56 203.734L474.764 199.6H475.928L477.902 202.612L478.16 202.978L478.574 202.36L480.404 199.6H481.544L478.724 203.71L481.664 208H480.5L478.382 204.856L478.112 204.466L477.662 205.144L475.784 208H474.644L477.56 203.734ZM486.121 208.144C485.461 208.144 484.883 207.974 484.387 207.634C483.895 207.29 483.515 206.804 483.247 206.176C482.979 205.544 482.845 204.806 482.845 203.962C482.845 203.054 482.983 202.26 483.259 201.58C483.535 200.896 483.921 200.372 484.417 200.008C484.913 199.64 485.481 199.456 486.121 199.456C486.749 199.456 487.319 199.598 487.831 199.882C488.347 200.166 488.723 200.616 488.959 201.232H487.963C487.819 200.98 487.585 200.772 487.261 200.608C486.941 200.44 486.579 200.356 486.175 200.356C485.731 200.356 485.331 200.48 484.975 200.728C484.623 200.976 484.341 201.368 484.129 201.904C483.917 202.436 483.809 203.11 483.805 203.926C483.993 203.45 484.311 203.072 484.759 202.792C485.211 202.512 485.739 202.372 486.343 202.372C486.883 202.372 487.369 202.498 487.801 202.75C488.237 202.998 488.577 203.342 488.821 203.782C489.069 204.222 489.193 204.714 489.193 205.258C489.193 205.802 489.059 206.294 488.791 206.734C488.527 207.174 488.161 207.52 487.693 207.772C487.225 208.02 486.701 208.144 486.121 208.144ZM484.105 205.252C484.105 205.632 484.193 205.974 484.369 206.278C484.545 206.578 484.789 206.814 485.101 206.986C485.417 207.158 485.771 207.244 486.163 207.244C486.543 207.244 486.885 207.16 487.189 206.992C487.493 206.82 487.731 206.584 487.903 206.284C488.075 205.98 488.161 205.64 488.161 205.264C488.161 204.884 488.073 204.542 487.897 204.238C487.721 203.93 487.477 203.688 487.165 203.512C486.857 203.336 486.509 203.248 486.121 203.248C485.737 203.248 485.391 203.336 485.083 203.512C484.779 203.684 484.539 203.924 484.363 204.232C484.191 204.536 484.105 204.876 484.105 205.252ZM494.35 205.93H490.09V205.03L494.344 199.6H495.334V205.03H496.642V205.93H495.334V208H494.35V205.93ZM494.35 205.03V200.884L491.122 205.03H494.35ZM498.513 199.6H499.755L502.767 206.332L502.923 206.758L503.073 206.332L506.031 199.6H507.297V208H506.301V201.208L503.331 208H502.497L499.503 201.244V208H498.513V199.6ZM511.806 201.712C512.27 201.712 512.678 201.798 513.03 201.97C513.382 202.138 513.654 202.386 513.846 202.714C514.042 203.038 514.14 203.424 514.14 203.872V208H513.204V206.998C513.032 207.37 512.78 207.654 512.448 207.85C512.116 208.046 511.722 208.144 511.266 208.144C510.874 208.144 510.52 208.068 510.204 207.916C509.888 207.764 509.64 207.554 509.46 207.286C509.28 207.018 509.19 206.714 509.19 206.374C509.19 206.054 509.272 205.76 509.436 205.492C509.604 205.22 509.834 204.998 510.126 204.826C510.422 204.654 510.754 204.548 511.122 204.508L512.76 204.328C512.896 204.312 513.002 204.256 513.078 204.16C513.154 204.064 513.192 203.924 513.192 203.74C513.192 203.496 513.134 203.282 513.018 203.098C512.902 202.914 512.738 202.772 512.526 202.672C512.318 202.568 512.076 202.516 511.8 202.516C511.524 202.516 511.276 202.564 511.056 202.66C510.836 202.752 510.658 202.878 510.522 203.038C510.39 203.194 510.31 203.364 510.282 203.548H509.322C509.37 203.2 509.506 202.888 509.73 202.612C509.958 202.332 510.252 202.112 510.612 201.952C510.972 201.792 511.37 201.712 511.806 201.712ZM510.186 206.32C510.186 206.528 510.24 206.712 510.348 206.872C510.46 207.032 510.614 207.158 510.81 207.25C511.006 207.338 511.23 207.382 511.482 207.382C511.826 207.382 512.126 207.312 512.382 207.172C512.642 207.032 512.842 206.836 512.982 206.584C513.122 206.328 513.192 206.034 513.192 205.702V205L511.254 205.216C510.934 205.252 510.676 205.372 510.48 205.576C510.284 205.78 510.186 206.028 510.186 206.32ZM516.062 201.856H517.022V208H516.062V201.856ZM517.106 199.6V200.74H515.978V199.6H517.106ZM519.12 201.856H520.044V202.852C520.252 202.484 520.528 202.202 520.872 202.006C521.22 201.81 521.622 201.712 522.078 201.712C522.518 201.712 522.908 201.806 523.248 201.994C523.588 202.182 523.854 202.46 524.046 202.828C524.242 203.192 524.34 203.63 524.34 204.142V208H523.38V204.238C523.38 203.706 523.242 203.292 522.966 202.996C522.69 202.7 522.31 202.552 521.826 202.552C521.482 202.552 521.178 202.628 520.914 202.78C520.65 202.932 520.444 203.146 520.296 203.422C520.152 203.694 520.08 204.006 520.08 204.358V208H519.12V201.856Z" fill="white"/>
<rect x="548" y="179" width="112" height="24" rx="12" fill="#F2F2F2"/>
<path d="M580.335 187.6H581.295V196H580.335V187.6ZM583.394 189.856H584.354V196H583.394V189.856ZM584.438 187.6V188.74H583.31V187.6H584.438ZM586.452 189.856H587.376V190.852C587.584 190.484 587.86 190.202 588.204 190.006C588.552 189.81 588.954 189.712 589.41 189.712C589.85 189.712 590.24 189.806 590.58 189.994C590.92 190.182 591.186 190.46 591.378 190.828C591.574 191.192 591.672 191.63 591.672 192.142V196H590.712V192.238C590.712 191.706 590.574 191.292 590.298 190.996C590.022 190.7 589.642 190.552 589.158 190.552C588.814 190.552 588.51 190.628 588.246 190.78C587.982 190.932 587.776 191.146 587.628 191.422C587.484 191.694 587.412 192.006 587.412 192.358V196H586.452V189.856ZM598.629 196H597.705V195.004C597.497 195.372 597.219 195.654 596.871 195.85C596.527 196.046 596.127 196.144 595.671 196.144C595.231 196.144 594.841 196.05 594.501 195.862C594.161 195.674 593.893 195.398 593.697 195.034C593.505 194.666 593.409 194.226 593.409 193.714V189.856H594.369V193.618C594.369 194.15 594.507 194.564 594.783 194.86C595.059 195.156 595.439 195.304 595.923 195.304C596.267 195.304 596.571 195.228 596.835 195.076C597.099 194.924 597.303 194.712 597.447 194.44C597.595 194.164 597.669 193.85 597.669 193.498V189.856H598.629V196ZM602.688 193.606L601.05 196H599.958L602.184 192.832L600.066 189.856H601.182L602.736 192.088L604.26 189.856H605.352L603.246 192.862L605.466 196H604.35L602.688 193.606ZM609.052 191.734L606.256 187.6H607.42L609.394 190.612L609.652 190.978L610.066 190.36L611.896 187.6H613.036L610.216 191.71L613.156 196H611.992L609.874 192.856L609.604 192.466L609.154 193.144L607.276 196H606.136L609.052 191.734ZM617.613 196.144C616.953 196.144 616.375 195.974 615.879 195.634C615.387 195.29 615.007 194.804 614.739 194.176C614.471 193.544 614.337 192.806 614.337 191.962C614.337 191.054 614.475 190.26 614.751 189.58C615.027 188.896 615.413 188.372 615.909 188.008C616.405 187.64 616.973 187.456 617.613 187.456C618.241 187.456 618.811 187.598 619.323 187.882C619.839 188.166 620.215 188.616 620.451 189.232H619.455C619.311 188.98 619.077 188.772 618.753 188.608C618.433 188.44 618.071 188.356 617.667 188.356C617.223 188.356 616.823 188.48 616.467 188.728C616.115 188.976 615.833 189.368 615.621 189.904C615.409 190.436 615.301 191.11 615.297 191.926C615.485 191.45 615.803 191.072 616.251 190.792C616.703 190.512 617.231 190.372 617.835 190.372C618.375 190.372 618.861 190.498 619.293 190.75C619.729 190.998 620.069 191.342 620.313 191.782C620.561 192.222 620.685 192.714 620.685 193.258C620.685 193.802 620.551 194.294 620.283 194.734C620.019 195.174 619.653 195.52 619.185 195.772C618.717 196.02 618.193 196.144 617.613 196.144ZM615.597 193.252C615.597 193.632 615.685 193.974 615.861 194.278C616.037 194.578 616.281 194.814 616.593 194.986C616.909 195.158 617.263 195.244 617.655 195.244C618.035 195.244 618.377 195.16 618.681 194.992C618.985 194.82 619.223 194.584 619.395 194.284C619.567 193.98 619.653 193.64 619.653 193.264C619.653 192.884 619.565 192.542 619.389 192.238C619.213 191.93 618.969 191.688 618.657 191.512C618.349 191.336 618.001 191.248 617.613 191.248C617.229 191.248 616.883 191.336 616.575 191.512C616.271 191.684 616.031 191.924 615.855 192.232C615.683 192.536 615.597 192.876 615.597 193.252ZM625.842 193.93H621.582V193.03L625.836 187.6H626.826V193.03H628.134V193.93H626.826V196H625.842V193.93ZM625.842 193.03V188.884L622.614 193.03H625.842Z" fill="black"/>
<rect x="426.35" y="176.35" width="237.3" height="58.3" rx="14.65" stroke="#595959" stroke-width="0.7"/>
<path d="M318 310C318 303.373 323.373 298 330 298H420.714C427.341 298 432.714 303.373 432.714 310V339C432.714 345.627 427.341 351 420.714 351H330C323.373 351 318 345.627 318 339V310Z" fill="url(#paint2_radial_1506_307)"/>
<path d="M361.19 328.008H361.718C361.914 328.008 362.072 327.946 362.192 327.822C362.316 327.702 362.378 327.544 362.378 327.348V320.856H363.338V327.42C363.338 327.712 363.272 327.972 363.14 328.2C363.008 328.428 362.824 328.604 362.588 328.728C362.352 328.856 362.082 328.92 361.778 328.92H361.19V328.008ZM363.422 318.6V319.74H362.294V318.6H363.422ZM367.379 327.144C366.915 327.144 366.495 327.07 366.119 326.922C365.747 326.774 365.449 326.568 365.225 326.304C365.005 326.036 364.887 325.734 364.871 325.398H365.849C365.865 325.582 365.941 325.748 366.077 325.896C366.213 326.04 366.393 326.154 366.617 326.238C366.841 326.322 367.091 326.364 367.367 326.364C367.647 326.364 367.893 326.318 368.105 326.226C368.321 326.134 368.487 326.006 368.603 325.842C368.723 325.678 368.783 325.492 368.783 325.284C368.783 325.06 368.719 324.872 368.591 324.72C368.467 324.564 368.293 324.466 368.069 324.426L366.587 324.156C366.115 324.068 365.747 323.878 365.483 323.586C365.219 323.29 365.087 322.916 365.087 322.464C365.087 322.14 365.179 321.846 365.363 321.582C365.551 321.314 365.813 321.102 366.149 320.946C366.485 320.79 366.869 320.712 367.301 320.712C367.729 320.712 368.115 320.782 368.459 320.922C368.803 321.062 369.077 321.256 369.281 321.504C369.485 321.752 369.595 322.028 369.611 322.332H368.633C368.621 322.172 368.555 322.028 368.435 321.9C368.319 321.772 368.163 321.672 367.967 321.6C367.771 321.528 367.551 321.492 367.307 321.492C367.059 321.492 366.839 321.534 366.647 321.618C366.455 321.702 366.305 321.818 366.197 321.966C366.093 322.11 366.041 322.274 366.041 322.458C366.041 322.666 366.099 322.838 366.215 322.974C366.331 323.11 366.501 323.198 366.725 323.238L368.243 323.508C368.555 323.564 368.823 323.674 369.047 323.838C369.275 324.002 369.447 324.206 369.563 324.45C369.683 324.694 369.743 324.96 369.743 325.248C369.743 325.608 369.639 325.932 369.431 326.22C369.227 326.508 368.945 326.734 368.585 326.898C368.225 327.062 367.823 327.144 367.379 327.144ZM371.603 318.6H372.845L375.857 325.332L376.013 325.758L376.163 325.332L379.121 318.6H380.387V327H379.391V320.208L376.421 327H375.587L372.593 320.244V327H371.603V318.6ZM384.896 320.712C385.36 320.712 385.768 320.798 386.12 320.97C386.472 321.138 386.744 321.386 386.936 321.714C387.132 322.038 387.23 322.424 387.23 322.872V327H386.294V325.998C386.122 326.37 385.87 326.654 385.538 326.85C385.206 327.046 384.812 327.144 384.356 327.144C383.964 327.144 383.61 327.068 383.294 326.916C382.978 326.764 382.73 326.554 382.55 326.286C382.37 326.018 382.28 325.714 382.28 325.374C382.28 325.054 382.362 324.76 382.526 324.492C382.694 324.22 382.924 323.998 383.216 323.826C383.512 323.654 383.844 323.548 384.212 323.508L385.85 323.328C385.986 323.312 386.092 323.256 386.168 323.16C386.244 323.064 386.282 322.924 386.282 322.74C386.282 322.496 386.224 322.282 386.108 322.098C385.992 321.914 385.828 321.772 385.616 321.672C385.408 321.568 385.166 321.516 384.89 321.516C384.614 321.516 384.366 321.564 384.146 321.66C383.926 321.752 383.748 321.878 383.612 322.038C383.48 322.194 383.4 322.364 383.372 322.548H382.412C382.46 322.2 382.596 321.888 382.82 321.612C383.048 321.332 383.342 321.112 383.702 320.952C384.062 320.792 384.46 320.712 384.896 320.712ZM383.276 325.32C383.276 325.528 383.33 325.712 383.438 325.872C383.55 326.032 383.704 326.158 383.9 326.25C384.096 326.338 384.32 326.382 384.572 326.382C384.916 326.382 385.216 326.312 385.472 326.172C385.732 326.032 385.932 325.836 386.072 325.584C386.212 325.328 386.282 325.034 386.282 324.702V324L384.344 324.216C384.024 324.252 383.766 324.372 383.57 324.576C383.374 324.78 383.276 325.028 383.276 325.32ZM389.152 320.856H390.112V327H389.152V320.856ZM390.196 318.6V319.74H389.068V318.6H390.196ZM392.21 320.856H393.134V321.852C393.342 321.484 393.618 321.202 393.962 321.006C394.31 320.81 394.712 320.712 395.168 320.712C395.608 320.712 395.998 320.806 396.338 320.994C396.678 321.182 396.944 321.46 397.136 321.828C397.332 322.192 397.43 322.63 397.43 323.142V327H396.47V323.238C396.47 322.706 396.332 322.292 396.056 321.996C395.78 321.7 395.4 321.552 394.916 321.552C394.572 321.552 394.268 321.628 394.004 321.78C393.74 321.932 393.534 322.146 393.386 322.422C393.242 322.694 393.17 323.006 393.17 323.358V327H392.21V320.856Z" fill="white"/>
<path d="M436 310C436 303.373 441.373 298 448 298H536C542.627 298 548 303.373 548 310C548 316.627 542.627 322 536 322H448C441.373 322 436 316.627 436 310Z" fill="#F2F2F2"/>
<path d="M486.419 314.07H487.847C488.083 314.07 488.291 314.02 488.471 313.92C488.655 313.82 488.797 313.68 488.897 313.5C488.997 313.316 489.047 313.106 489.047 312.87V306.6H490.043V312.93C490.043 313.334 489.953 313.694 489.773 314.01C489.593 314.322 489.341 314.566 489.017 314.742C488.693 314.914 488.323 315 487.907 315H486.419V314.07ZM494.858 315.144C494.282 315.144 493.772 315.038 493.328 314.826C492.888 314.614 492.544 314.318 492.296 313.938C492.052 313.558 491.93 313.122 491.93 312.63H492.95C492.95 312.946 493.03 313.226 493.19 313.47C493.35 313.714 493.576 313.904 493.868 314.04C494.16 314.176 494.494 314.244 494.87 314.244C495.242 314.244 495.568 314.182 495.848 314.058C496.132 313.93 496.35 313.752 496.502 313.524C496.658 313.292 496.736 313.026 496.736 312.726C496.736 312.346 496.622 312.02 496.394 311.748C496.17 311.476 495.87 311.308 495.494 311.244L494.138 311.01C493.73 310.938 493.376 310.796 493.076 310.584C492.776 310.372 492.546 310.108 492.386 309.792C492.226 309.476 492.146 309.132 492.146 308.76C492.146 308.324 492.26 307.932 492.488 307.584C492.72 307.232 493.04 306.956 493.448 306.756C493.86 306.556 494.322 306.456 494.834 306.456C495.362 306.456 495.832 306.556 496.244 306.756C496.656 306.952 496.976 307.226 497.204 307.578C497.432 307.93 497.546 308.332 497.546 308.784H496.526C496.526 308.508 496.456 308.262 496.316 308.046C496.176 307.826 495.978 307.656 495.722 307.536C495.47 307.416 495.178 307.356 494.846 307.356C494.514 307.356 494.22 307.414 493.964 307.53C493.708 307.646 493.508 307.81 493.364 308.022C493.224 308.234 493.154 308.48 493.154 308.76C493.154 309.092 493.26 309.378 493.472 309.618C493.688 309.858 493.97 310.008 494.318 310.068L495.698 310.308C496.098 310.38 496.454 310.534 496.766 310.77C497.078 311.006 497.32 311.296 497.492 311.64C497.664 311.98 497.75 312.338 497.75 312.714C497.75 313.166 497.628 313.578 497.384 313.95C497.14 314.318 496.798 314.61 496.358 314.826C495.918 315.038 495.418 315.144 494.858 315.144Z" fill="black"/>
<rect x="314.35" y="295.35" width="237.3" height="58.3" rx="14.65" stroke="#595959" stroke-width="0.7"/>
<rect x="170" y="179" width="112" height="24" rx="12" fill="#F2F2F2"/>
<path d="M213.898 194.07H215.326C215.562 194.07 215.77 194.02 215.95 193.92C216.134 193.82 216.276 193.68 216.376 193.5C216.476 193.316 216.526 193.106 216.526 192.87V186.6H217.522V192.93C217.522 193.334 217.432 193.694 217.252 194.01C217.072 194.322 216.82 194.566 216.496 194.742C216.172 194.914 215.802 195 215.386 195H213.898V194.07ZM219.008 186.6H220.1L222.758 193.71L225.32 186.6H226.424L223.238 195H222.218L219.008 186.6ZM227.974 186.6H229.216L232.228 193.332L232.384 193.758L232.534 193.332L235.492 186.6H236.758V195H235.762V188.208L232.792 195H231.958L228.964 188.244V195H227.974V186.6Z" fill="black"/>
<rect x="49.35" y="176.35" width="237.3" height="58.3" rx="14.65" stroke="#595959" stroke-width="0.7"/>
<rect x="53" y="179" width="109" height="53" rx="12" fill="url(#paint3_radial_1506_307)"/>
<path d="M62.926 209.008H63.454C63.65 209.008 63.808 208.946 63.928 208.822C64.052 208.702 64.114 208.544 64.114 208.348V201.856H65.074V208.42C65.074 208.712 65.008 208.972 64.876 209.2C64.744 209.428 64.56 209.604 64.324 209.728C64.088 209.856 63.818 209.92 63.514 209.92H62.926V209.008ZM65.158 199.6V200.74H64.03V199.6H65.158ZM66.2891 201.856H67.3331L69.2051 206.716L71.0171 201.856H72.0371L69.6191 208H68.7191L66.2891 201.856ZM73.3332 201.856H74.2572V202.894C74.4412 202.514 74.6952 202.222 75.0192 202.018C75.3472 201.814 75.7312 201.712 76.1712 201.712C76.6312 201.712 77.0312 201.822 77.3712 202.042C77.7112 202.262 77.9652 202.572 78.1332 202.972C78.3292 202.572 78.6032 202.262 78.9552 202.042C79.3072 201.822 79.7132 201.712 80.1732 201.712C80.6092 201.712 80.9952 201.812 81.3312 202.012C81.6712 202.208 81.9352 202.488 82.1232 202.852C82.3112 203.216 82.4052 203.64 82.4052 204.124V208H81.4452V204.166C81.4452 203.658 81.3172 203.258 81.0612 202.966C80.8092 202.674 80.4532 202.528 79.9932 202.528C79.6652 202.528 79.3772 202.604 79.1292 202.756C78.8812 202.904 78.6892 203.116 78.5532 203.392C78.4172 203.664 78.3492 203.986 78.3492 204.358V208H77.3892V204.166C77.3892 203.658 77.2612 203.258 77.0052 202.966C76.7532 202.674 76.3972 202.528 75.9372 202.528C75.6052 202.528 75.3152 202.602 75.0672 202.75C74.8192 202.898 74.6272 203.11 74.4912 203.386C74.3592 203.662 74.2932 203.986 74.2932 204.358V208H73.3332V201.856ZM86.6474 199.6H87.7214L90.9494 208H89.8934L89.0834 205.768H85.3694L84.6134 208H83.5334L86.6474 199.6ZM88.7594 204.904L87.3254 200.998L87.1814 200.488L87.0374 200.998L85.6754 204.904H88.7594ZM92.259 201.856H93.183V202.852C93.391 202.484 93.667 202.202 94.011 202.006C94.359 201.81 94.761 201.712 95.217 201.712C95.657 201.712 96.047 201.806 96.387 201.994C96.727 202.182 96.993 202.46 97.185 202.828C97.381 203.192 97.479 203.63 97.479 204.142V208H96.519V204.238C96.519 203.706 96.381 203.292 96.105 202.996C95.829 202.7 95.449 202.552 94.965 202.552C94.621 202.552 94.317 202.628 94.053 202.78C93.789 202.932 93.583 203.146 93.435 203.422C93.291 203.694 93.219 204.006 93.219 204.358V208H92.259V201.856ZM104.064 206.98C103.832 207.352 103.522 207.64 103.134 207.844C102.75 208.044 102.312 208.144 101.82 208.144C101.248 208.144 100.738 208.01 100.29 207.742C99.8457 207.47 99.4977 207.09 99.2457 206.602C98.9977 206.114 98.8737 205.556 98.8737 204.928C98.8737 204.3 98.9977 203.742 99.2457 203.254C99.4977 202.766 99.8457 202.388 100.29 202.12C100.738 201.848 101.248 201.712 101.82 201.712C102.312 201.712 102.75 201.814 103.134 202.018C103.522 202.218 103.832 202.504 104.064 202.876V199.6H105.024V208H104.064V206.98ZM99.8817 204.928C99.8817 205.388 99.9697 205.796 100.146 206.152C100.322 206.504 100.568 206.78 100.884 206.98C101.2 207.176 101.562 207.274 101.97 207.274C102.346 207.274 102.684 207.192 102.984 207.028C103.288 206.86 103.532 206.626 103.716 206.326C103.904 206.022 104.02 205.67 104.064 205.27V204.586C104.02 204.186 103.904 203.836 103.716 203.536C103.532 203.232 103.288 202.998 102.984 202.834C102.684 202.666 102.346 202.582 101.97 202.582C101.562 202.582 101.2 202.682 100.884 202.882C100.568 203.078 100.322 203.354 100.146 203.71C99.9697 204.062 99.8817 204.468 99.8817 204.928ZM105.986 207.07H107.414C107.65 207.07 107.858 207.02 108.038 206.92C108.222 206.82 108.364 206.68 108.464 206.5C108.564 206.316 108.614 206.106 108.614 205.87V199.6H109.61V205.93C109.61 206.334 109.52 206.694 109.34 207.01C109.16 207.322 108.908 207.566 108.584 207.742C108.26 207.914 107.89 208 107.474 208H105.986V207.07ZM113.916 208.144C113.452 208.144 113.032 208.07 112.656 207.922C112.284 207.774 111.986 207.568 111.762 207.304C111.542 207.036 111.424 206.734 111.408 206.398H112.386C112.402 206.582 112.478 206.748 112.614 206.896C112.75 207.04 112.93 207.154 113.154 207.238C113.378 207.322 113.628 207.364 113.904 207.364C114.184 207.364 114.43 207.318 114.642 207.226C114.858 207.134 115.024 207.006 115.14 206.842C115.26 206.678 115.32 206.492 115.32 206.284C115.32 206.06 115.256 205.872 115.128 205.72C115.004 205.564 114.83 205.466 114.606 205.426L113.124 205.156C112.652 205.068 112.284 204.878 112.02 204.586C111.756 204.29 111.624 203.916 111.624 203.464C111.624 203.14 111.716 202.846 111.9 202.582C112.088 202.314 112.35 202.102 112.686 201.946C113.022 201.79 113.406 201.712 113.838 201.712C114.266 201.712 114.652 201.782 114.996 201.922C115.34 202.062 115.614 202.256 115.818 202.504C116.022 202.752 116.132 203.028 116.148 203.332H115.17C115.158 203.172 115.092 203.028 114.972 202.9C114.856 202.772 114.7 202.672 114.504 202.6C114.308 202.528 114.088 202.492 113.844 202.492C113.596 202.492 113.376 202.534 113.184 202.618C112.992 202.702 112.842 202.818 112.734 202.966C112.63 203.11 112.578 203.274 112.578 203.458C112.578 203.666 112.636 203.838 112.752 203.974C112.868 204.11 113.038 204.198 113.262 204.238L114.78 204.508C115.092 204.564 115.36 204.674 115.584 204.838C115.812 205.002 115.984 205.206 116.1 205.45C116.22 205.694 116.28 205.96 116.28 206.248C116.28 206.608 116.176 206.932 115.968 207.22C115.764 207.508 115.482 207.734 115.122 207.898C114.762 208.062 114.36 208.144 113.916 208.144ZM118.14 199.6H119.382L122.394 206.332L122.55 206.758L122.7 206.332L125.658 199.6H126.924V208H125.928V201.208L122.958 208H122.124L119.13 201.244V208H118.14V199.6ZM131.433 201.712C131.897 201.712 132.305 201.798 132.657 201.97C133.009 202.138 133.281 202.386 133.473 202.714C133.669 203.038 133.767 203.424 133.767 203.872V208H132.831V206.998C132.659 207.37 132.407 207.654 132.075 207.85C131.743 208.046 131.349 208.144 130.893 208.144C130.501 208.144 130.147 208.068 129.831 207.916C129.515 207.764 129.267 207.554 129.087 207.286C128.907 207.018 128.817 206.714 128.817 206.374C128.817 206.054 128.899 205.76 129.063 205.492C129.231 205.22 129.461 204.998 129.753 204.826C130.049 204.654 130.381 204.548 130.749 204.508L132.387 204.328C132.523 204.312 132.629 204.256 132.705 204.16C132.781 204.064 132.819 203.924 132.819 203.74C132.819 203.496 132.761 203.282 132.645 203.098C132.529 202.914 132.365 202.772 132.153 202.672C131.945 202.568 131.703 202.516 131.427 202.516C131.151 202.516 130.903 202.564 130.683 202.66C130.463 202.752 130.285 202.878 130.149 203.038C130.017 203.194 129.937 203.364 129.909 203.548H128.949C128.997 203.2 129.133 202.888 129.357 202.612C129.585 202.332 129.879 202.112 130.239 201.952C130.599 201.792 130.997 201.712 131.433 201.712ZM129.813 206.32C129.813 206.528 129.867 206.712 129.975 206.872C130.087 207.032 130.241 207.158 130.437 207.25C130.633 207.338 130.857 207.382 131.109 207.382C131.453 207.382 131.753 207.312 132.009 207.172C132.269 207.032 132.469 206.836 132.609 206.584C132.749 206.328 132.819 206.034 132.819 205.702V205L130.881 205.216C130.561 205.252 130.303 205.372 130.107 205.576C129.911 205.78 129.813 206.028 129.813 206.32ZM135.689 201.856H136.649V208H135.689V201.856ZM136.733 199.6V200.74H135.605V199.6H136.733ZM138.747 201.856H139.671V202.852C139.879 202.484 140.155 202.202 140.499 202.006C140.847 201.81 141.249 201.712 141.705 201.712C142.145 201.712 142.535 201.806 142.875 201.994C143.215 202.182 143.481 202.46 143.673 202.828C143.869 203.192 143.967 203.63 143.967 204.142V208H143.007V204.238C143.007 203.706 142.869 203.292 142.593 202.996C142.317 202.7 141.937 202.552 141.453 202.552C141.109 202.552 140.805 202.628 140.541 202.78C140.277 202.932 140.071 203.146 139.923 203.422C139.779 203.694 139.707 204.006 139.707 204.358V208H138.747V201.856Z" fill="white"/>
<path d="M171 220C171 213.373 176.373 208 183 208H271C277.627 208 283 213.373 283 220C283 226.627 277.627 232 271 232H183C176.373 232 171 226.627 171 220Z" fill="#F2F2F2"/>
<path d="M221.419 224.07H222.847C223.083 224.07 223.291 224.02 223.471 223.92C223.655 223.82 223.797 223.68 223.897 223.5C223.997 223.316 224.047 223.106 224.047 222.87V216.6H225.043V222.93C225.043 223.334 224.953 223.694 224.773 224.01C224.593 224.322 224.341 224.566 224.017 224.742C223.693 224.914 223.323 225 222.907 225H221.419V224.07ZM229.858 225.144C229.282 225.144 228.772 225.038 228.328 224.826C227.888 224.614 227.544 224.318 227.296 223.938C227.052 223.558 226.93 223.122 226.93 222.63H227.95C227.95 222.946 228.03 223.226 228.19 223.47C228.35 223.714 228.576 223.904 228.868 224.04C229.16 224.176 229.494 224.244 229.87 224.244C230.242 224.244 230.568 224.182 230.848 224.058C231.132 223.93 231.35 223.752 231.502 223.524C231.658 223.292 231.736 223.026 231.736 222.726C231.736 222.346 231.622 222.02 231.394 221.748C231.17 221.476 230.87 221.308 230.494 221.244L229.138 221.01C228.73 220.938 228.376 220.796 228.076 220.584C227.776 220.372 227.546 220.108 227.386 219.792C227.226 219.476 227.146 219.132 227.146 218.76C227.146 218.324 227.26 217.932 227.488 217.584C227.72 217.232 228.04 216.956 228.448 216.756C228.86 216.556 229.322 216.456 229.834 216.456C230.362 216.456 230.832 216.556 231.244 216.756C231.656 216.952 231.976 217.226 232.204 217.578C232.432 217.93 232.546 218.332 232.546 218.784H231.526C231.526 218.508 231.456 218.262 231.316 218.046C231.176 217.826 230.978 217.656 230.722 217.536C230.47 217.416 230.178 217.356 229.846 217.356C229.514 217.356 229.22 217.414 228.964 217.53C228.708 217.646 228.508 217.81 228.364 218.022C228.224 218.234 228.154 218.48 228.154 218.76C228.154 219.092 228.26 219.378 228.472 219.618C228.688 219.858 228.97 220.008 229.318 220.068L230.698 220.308C231.098 220.38 231.454 220.534 231.766 220.77C232.078 221.006 232.32 221.296 232.492 221.64C232.664 221.98 232.75 222.338 232.75 222.714C232.75 223.166 232.628 223.578 232.384 223.95C232.14 224.318 231.798 224.61 231.358 224.826C230.918 225.038 230.418 225.144 229.858 225.144Z" fill="black"/>
<rect x="47.0676" y="298" width="104.823" height="53" rx="12" fill="url(#paint4_radial_1506_307)"/>
<path d="M75.2131 329.008H75.7411C75.9371 329.008 76.0951 328.946 76.2151 328.822C76.3391 328.702 76.4011 328.544 76.4011 328.348V321.856H77.3611V328.42C77.3611 328.712 77.2951 328.972 77.1631 329.2C77.0311 329.428 76.8471 329.604 76.6111 329.728C76.3751 329.856 76.1051 329.92 75.8011 329.92H75.2131V329.008ZM77.4451 319.6V320.74H76.3171V319.6H77.4451ZM78.5762 321.856H79.6202L81.4922 326.716L83.3042 321.856H84.3242L81.9062 328H81.0062L78.5762 321.856ZM85.6203 321.856H86.5443V322.894C86.7283 322.514 86.9823 322.222 87.3063 322.018C87.6343 321.814 88.0183 321.712 88.4583 321.712C88.9183 321.712 89.3183 321.822 89.6583 322.042C89.9983 322.262 90.2523 322.572 90.4203 322.972C90.6163 322.572 90.8903 322.262 91.2423 322.042C91.5943 321.822 92.0003 321.712 92.4603 321.712C92.8963 321.712 93.2823 321.812 93.6183 322.012C93.9583 322.208 94.2223 322.488 94.4103 322.852C94.5983 323.216 94.6923 323.64 94.6923 324.124V328H93.7323V324.166C93.7323 323.658 93.6043 323.258 93.3483 322.966C93.0963 322.674 92.7403 322.528 92.2803 322.528C91.9523 322.528 91.6643 322.604 91.4163 322.756C91.1683 322.904 90.9763 323.116 90.8403 323.392C90.7043 323.664 90.6363 323.986 90.6363 324.358V328H89.6763V324.166C89.6763 323.658 89.5483 323.258 89.2923 322.966C89.0403 322.674 88.6843 322.528 88.2243 322.528C87.8923 322.528 87.6023 322.602 87.3543 322.75C87.1063 322.898 86.9143 323.11 86.7783 323.386C86.6463 323.662 86.5803 323.986 86.5803 324.358V328H85.6203V321.856ZM96.8525 319.6H98.0945L101.107 326.332L101.263 326.758L101.413 326.332L104.371 319.6H105.637V328H104.641V321.208L101.671 328H100.837L97.8425 321.244V328H96.8525V319.6ZM110.146 321.712C110.61 321.712 111.018 321.798 111.37 321.97C111.722 322.138 111.994 322.386 112.186 322.714C112.382 323.038 112.48 323.424 112.48 323.872V328H111.544V326.998C111.372 327.37 111.12 327.654 110.788 327.85C110.456 328.046 110.062 328.144 109.606 328.144C109.214 328.144 108.86 328.068 108.544 327.916C108.228 327.764 107.98 327.554 107.8 327.286C107.62 327.018 107.53 326.714 107.53 326.374C107.53 326.054 107.612 325.76 107.776 325.492C107.944 325.22 108.174 324.998 108.466 324.826C108.762 324.654 109.094 324.548 109.462 324.508L111.1 324.328C111.236 324.312 111.342 324.256 111.418 324.16C111.494 324.064 111.532 323.924 111.532 323.74C111.532 323.496 111.474 323.282 111.358 323.098C111.242 322.914 111.078 322.772 110.866 322.672C110.658 322.568 110.416 322.516 110.14 322.516C109.864 322.516 109.616 322.564 109.396 322.66C109.176 322.752 108.998 322.878 108.862 323.038C108.73 323.194 108.65 323.364 108.622 323.548H107.662C107.71 323.2 107.846 322.888 108.07 322.612C108.298 322.332 108.592 322.112 108.952 321.952C109.312 321.792 109.71 321.712 110.146 321.712ZM108.526 326.32C108.526 326.528 108.58 326.712 108.688 326.872C108.8 327.032 108.954 327.158 109.15 327.25C109.346 327.338 109.57 327.382 109.822 327.382C110.166 327.382 110.466 327.312 110.722 327.172C110.982 327.032 111.182 326.836 111.322 326.584C111.462 326.328 111.532 326.034 111.532 325.702V325L109.594 325.216C109.274 325.252 109.016 325.372 108.82 325.576C108.624 325.78 108.526 326.028 108.526 326.32ZM114.402 321.856H115.362V328H114.402V321.856ZM115.446 319.6V320.74H114.318V319.6H115.446ZM117.46 321.856H118.384V322.852C118.592 322.484 118.868 322.202 119.212 322.006C119.56 321.81 119.962 321.712 120.418 321.712C120.858 321.712 121.248 321.806 121.588 321.994C121.928 322.182 122.194 322.46 122.386 322.828C122.582 323.192 122.68 323.63 122.68 324.142V328H121.72V324.238C121.72 323.706 121.582 323.292 121.306 322.996C121.03 322.7 120.65 322.552 120.166 322.552C119.822 322.552 119.518 322.628 119.254 322.78C118.99 322.932 118.784 323.146 118.636 323.422C118.492 323.694 118.42 324.006 118.42 324.358V328H117.46V321.856Z" fill="white"/>
<rect x="163.608" y="298" width="112" height="24" rx="12" fill="#F2F2F2"/>
<path d="M207.506 313.07H208.934C209.17 313.07 209.378 313.02 209.558 312.92C209.742 312.82 209.884 312.68 209.984 312.5C210.084 312.316 210.134 312.106 210.134 311.87V305.6H211.13V311.93C211.13 312.334 211.04 312.694 210.86 313.01C210.68 313.322 210.428 313.566 210.104 313.742C209.78 313.914 209.41 314 208.994 314H207.506V313.07ZM212.616 305.6H213.708L216.366 312.71L218.928 305.6H220.032L216.846 314H215.826L212.616 305.6ZM221.581 305.6H222.823L225.835 312.332L225.991 312.758L226.141 312.332L229.099 305.6H230.365V314H229.369V307.208L226.399 314H225.565L222.571 307.244V314H221.581V305.6Z" fill="black"/>
<rect x="42.35" y="295.35" width="237.3" height="58.3" rx="14.65" stroke="#595959" stroke-width="0.7"/>
<path d="M161 240L163.021 243.5L158.979 243.5L161 240ZM160.65 295L160.65 243.15L161.35 243.15L161.35 295L160.65 295Z" fill="black"/>
<defs>
<radialGradient id="paint0_radial_1506_307" cx="0" cy="0" r="1" gradientUnits="userSpaceOnUse" gradientTransform="translate(142.449 82.7987) scale(192.038 196.159)">
<stop stop-color="#EB4857"/>
<stop offset="0.5" stop-color="#C611E0"/>
<stop offset="1" stop-color="#7F52FF"/>
</radialGradient>
<radialGradient id="paint1_radial_1506_307" cx="0" cy="0" r="1" gradientUnits="userSpaceOnUse" gradientTransform="translate(428.678 232.799) scale(112.103 196.159)">
<stop stop-color="#EB4857"/>
<stop offset="0.5" stop-color="#C611E0"/>
<stop offset="1" stop-color="#7F52FF"/>
</radialGradient>
<radialGradient id="paint2_radial_1506_307" cx="0" cy="0" r="1" gradientUnits="userSpaceOnUse" gradientTransform="translate(317.679 351.799) scale(111.824 196.159)">
<stop stop-color="#EB4857"/>
<stop offset="0.5" stop-color="#C611E0"/>
<stop offset="1" stop-color="#7F52FF"/>
</radialGradient>
<radialGradient id="paint3_radial_1506_307" cx="0" cy="0" r="1" gradientUnits="userSpaceOnUse" gradientTransform="translate(52.6949 232.799) scale(106.254 196.159)">
<stop stop-color="#EB4857"/>
<stop offset="0.5" stop-color="#C611E0"/>
<stop offset="1" stop-color="#7F52FF"/>
</radialGradient>
<radialGradient id="paint4_radial_1506_307" cx="0" cy="0" r="1" gradientUnits="userSpaceOnUse" gradientTransform="translate(46.7743 351.799) scale(102.183 196.159)">
<stop stop-color="#EB4857"/>
<stop offset="0.5" stop-color="#C611E0"/>
<stop offset="1" stop-color="#7F52FF"/>
</radialGradient>
</defs>
</svg>
