<svg width="706" height="349" viewBox="0 0 706 349" fill="none" xmlns="http://www.w3.org/2000/svg">
<rect width="706" height="349" fill="white"/>
<rect x="253" y="24" width="197" height="53" rx="12" fill="#585858"/>
<path d="M315.813 53.144C315.233 53.144 314.709 53.004 314.241 52.724C313.773 52.444 313.405 52.06 313.137 51.572C312.873 51.08 312.741 50.532 312.741 49.928C312.741 49.324 312.873 48.778 313.137 48.29C313.405 47.798 313.773 47.412 314.241 47.132C314.709 46.852 315.233 46.712 315.813 46.712C316.309 46.712 316.765 46.81 317.181 47.006C317.597 47.198 317.933 47.466 318.189 47.81C318.449 48.15 318.599 48.532 318.639 48.956H317.679C317.631 48.692 317.517 48.454 317.337 48.242C317.161 48.03 316.939 47.864 316.671 47.744C316.407 47.624 316.121 47.564 315.813 47.564C315.421 47.564 315.067 47.668 314.751 47.876C314.439 48.08 314.193 48.362 314.013 48.722C313.837 49.082 313.749 49.484 313.749 49.928C313.749 50.372 313.837 50.774 314.013 51.134C314.193 51.494 314.439 51.776 314.751 51.98C315.067 52.184 315.421 52.286 315.813 52.286C316.121 52.286 316.407 52.228 316.671 52.112C316.939 51.996 317.161 51.838 317.337 51.638C317.517 51.434 317.631 51.208 317.679 50.96H318.639C318.603 51.372 318.455 51.744 318.195 52.076C317.939 52.408 317.603 52.67 317.187 52.862C316.771 53.05 316.313 53.144 315.813 53.144ZM322.786 53.144C322.202 53.144 321.676 53.006 321.208 52.73C320.74 52.45 320.372 52.066 320.104 51.578C319.836 51.09 319.702 50.54 319.702 49.928C319.702 49.316 319.836 48.766 320.104 48.278C320.372 47.79 320.742 47.408 321.214 47.132C321.686 46.852 322.214 46.712 322.798 46.712C323.382 46.712 323.91 46.852 324.382 47.132C324.854 47.408 325.224 47.79 325.492 48.278C325.76 48.766 325.894 49.316 325.894 49.928C325.894 50.54 325.758 51.09 325.486 51.578C325.218 52.066 324.848 52.45 324.376 52.73C323.904 53.006 323.374 53.144 322.786 53.144ZM322.798 52.256C323.198 52.256 323.556 52.16 323.872 51.968C324.188 51.772 324.436 51.498 324.616 51.146C324.796 50.794 324.886 50.388 324.886 49.928C324.886 49.468 324.796 49.062 324.616 48.71C324.436 48.354 324.188 48.08 323.872 47.888C323.556 47.692 323.198 47.594 322.798 47.594C322.398 47.594 322.04 47.692 321.724 47.888C321.408 48.08 321.16 48.354 320.98 48.71C320.8 49.062 320.71 49.468 320.71 49.928C320.71 50.388 320.8 50.794 320.98 51.146C321.16 51.498 321.408 51.772 321.724 51.968C322.04 52.16 322.398 52.256 322.798 52.256ZM334.306 46.712C334.754 46.712 335.146 46.814 335.482 47.018C335.822 47.218 336.082 47.5 336.262 47.864C336.446 48.228 336.538 48.648 336.538 49.124V53H335.578V49.166C335.578 48.646 335.454 48.244 335.206 47.96C334.962 47.672 334.614 47.528 334.162 47.528C333.818 47.528 333.52 47.61 333.268 47.774C333.016 47.934 332.822 48.164 332.686 48.464C332.55 48.764 332.482 49.114 332.482 49.514V53H331.522V49.166C331.522 48.65 331.394 48.248 331.138 47.96C330.882 47.672 330.526 47.528 330.07 47.528C329.726 47.528 329.43 47.61 329.182 47.774C328.938 47.934 328.75 48.164 328.618 48.464C328.49 48.764 328.426 49.114 328.426 49.514V53H327.466V46.856H328.39V47.762C328.582 47.426 328.834 47.168 329.146 46.988C329.462 46.804 329.828 46.712 330.244 46.712C330.692 46.712 331.09 46.82 331.438 47.036C331.786 47.252 332.05 47.55 332.23 47.93C332.438 47.546 332.72 47.248 333.076 47.036C333.436 46.82 333.846 46.712 334.306 46.712ZM345.298 46.712C345.746 46.712 346.138 46.814 346.474 47.018C346.814 47.218 347.074 47.5 347.254 47.864C347.438 48.228 347.53 48.648 347.53 49.124V53H346.57V49.166C346.57 48.646 346.446 48.244 346.198 47.96C345.954 47.672 345.606 47.528 345.154 47.528C344.81 47.528 344.512 47.61 344.26 47.774C344.008 47.934 343.814 48.164 343.678 48.464C343.542 48.764 343.474 49.114 343.474 49.514V53H342.514V49.166C342.514 48.65 342.386 48.248 342.13 47.96C341.874 47.672 341.518 47.528 341.062 47.528C340.718 47.528 340.422 47.61 340.174 47.774C339.93 47.934 339.742 48.164 339.61 48.464C339.482 48.764 339.418 49.114 339.418 49.514V53H338.458V46.856H339.382V47.762C339.574 47.426 339.826 47.168 340.138 46.988C340.454 46.804 340.82 46.712 341.236 46.712C341.684 46.712 342.082 46.82 342.43 47.036C342.778 47.252 343.042 47.55 343.222 47.93C343.43 47.546 343.712 47.248 344.068 47.036C344.428 46.82 344.838 46.712 345.298 46.712ZM352.036 53.144C351.452 53.144 350.926 53.006 350.458 52.73C349.99 52.45 349.622 52.066 349.354 51.578C349.086 51.09 348.952 50.54 348.952 49.928C348.952 49.316 349.086 48.766 349.354 48.278C349.622 47.79 349.992 47.408 350.464 47.132C350.936 46.852 351.464 46.712 352.048 46.712C352.632 46.712 353.16 46.852 353.632 47.132C354.104 47.408 354.474 47.79 354.742 48.278C355.01 48.766 355.144 49.316 355.144 49.928C355.144 50.54 355.008 51.09 354.736 51.578C354.468 52.066 354.098 52.45 353.626 52.73C353.154 53.006 352.624 53.144 352.036 53.144ZM352.048 52.256C352.448 52.256 352.806 52.16 353.122 51.968C353.438 51.772 353.686 51.498 353.866 51.146C354.046 50.794 354.136 50.388 354.136 49.928C354.136 49.468 354.046 49.062 353.866 48.71C353.686 48.354 353.438 48.08 353.122 47.888C352.806 47.692 352.448 47.594 352.048 47.594C351.648 47.594 351.29 47.692 350.974 47.888C350.658 48.08 350.41 48.354 350.23 48.71C350.05 49.062 349.96 49.468 349.96 49.928C349.96 50.388 350.05 50.794 350.23 51.146C350.41 51.498 350.658 51.772 350.974 51.968C351.29 52.16 351.648 52.256 352.048 52.256ZM359.608 46.712C360.068 46.712 360.47 46.812 360.814 47.012C361.158 47.208 361.422 47.488 361.606 47.852C361.794 48.216 361.888 48.64 361.888 49.124V53H360.928V49.196C360.928 48.672 360.792 48.264 360.52 47.972C360.252 47.676 359.878 47.528 359.398 47.528C359.054 47.528 358.752 47.602 358.492 47.75C358.232 47.894 358.03 48.102 357.886 48.374C357.746 48.646 357.676 48.966 357.676 49.334V53H356.716V46.856H357.64V47.798C357.836 47.438 358.1 47.168 358.432 46.988C358.764 46.804 359.156 46.712 359.608 46.712ZM365.035 53H364.045V44.6H365.317L368.299 51.47L368.461 51.914L368.617 51.47L371.521 44.6H372.829V53H371.833V46.028L368.875 53H368.005L365.035 46.064V53ZM377.465 46.712C377.929 46.712 378.335 46.798 378.683 46.97C379.035 47.138 379.307 47.384 379.499 47.708C379.691 48.032 379.787 48.422 379.787 48.878V53H378.851V52.088C378.663 52.432 378.393 52.694 378.041 52.874C377.693 53.054 377.275 53.144 376.787 53.144C376.383 53.144 376.023 53.07 375.707 52.922C375.395 52.77 375.151 52.56 374.975 52.292C374.803 52.024 374.717 51.718 374.717 51.374C374.717 51.054 374.797 50.76 374.957 50.492C375.121 50.22 375.347 49.998 375.635 49.826C375.923 49.654 376.249 49.55 376.613 49.514L378.407 49.334C378.539 49.322 378.643 49.266 378.719 49.166C378.799 49.066 378.839 48.922 378.839 48.734C378.839 48.49 378.779 48.276 378.659 48.092C378.543 47.908 378.379 47.766 378.167 47.666C377.959 47.566 377.717 47.516 377.441 47.516C377.169 47.516 376.921 47.562 376.697 47.654C376.473 47.746 376.291 47.872 376.151 48.032C376.011 48.192 375.929 48.368 375.905 48.56H374.969C375.005 48.22 375.137 47.91 375.365 47.63C375.593 47.346 375.891 47.122 376.259 46.958C376.627 46.794 377.029 46.712 377.465 46.712ZM376.967 52.394C377.331 52.394 377.655 52.324 377.939 52.184C378.223 52.04 378.443 51.84 378.599 51.584C378.759 51.324 378.839 51.03 378.839 50.702V50.006L376.745 50.222C376.425 50.254 376.167 50.372 375.971 50.576C375.775 50.78 375.677 51.028 375.677 51.32C375.677 51.528 375.731 51.714 375.839 51.878C375.947 52.038 376.099 52.164 376.295 52.256C376.491 52.348 376.715 52.394 376.967 52.394ZM382.672 53H381.712V46.856H382.672V53ZM381.646 45.74V44.6H382.738V45.74H381.646ZM387.627 46.712C388.087 46.712 388.489 46.812 388.833 47.012C389.177 47.208 389.441 47.488 389.625 47.852C389.813 48.216 389.907 48.64 389.907 49.124V53H388.947V49.196C388.947 48.672 388.811 48.264 388.539 47.972C388.271 47.676 387.897 47.528 387.417 47.528C387.073 47.528 386.771 47.602 386.511 47.75C386.251 47.894 386.049 48.102 385.905 48.374C385.765 48.646 385.695 48.966 385.695 49.334V53H384.735V46.856H385.659V47.798C385.855 47.438 386.119 47.168 386.451 46.988C386.783 46.804 387.175 46.712 387.627 46.712Z" fill="white"/>
<path d="M430 300C430 293.373 435.373 288 442 288H528C534.627 288 540 293.373 540 300V312C540 318.627 534.627 324 528 324H442C435.373 324 430 318.627 430 312V300Z" fill="url(#paint0_radial_1560_185)"/>
<rect x="562" y="288" width="110" height="36" rx="12" fill="url(#paint1_radial_1560_185)"/>
<rect x="298" y="288" width="110" height="36" rx="12" fill="url(#paint2_radial_1560_185)"/>
<rect x="36" y="288" width="110" height="36" rx="12" fill="url(#paint3_radial_1560_185)"/>
<path d="M66.4759 311.92V311.008H67.3639C67.5279 311.008 67.6579 310.958 67.7539 310.858C67.8539 310.758 67.9039 310.626 67.9039 310.462V303.856H68.8639V310.54C68.8639 310.816 68.8039 311.058 68.6839 311.266C68.5679 311.474 68.3999 311.634 68.1799 311.746C67.9639 311.862 67.7119 311.92 67.4239 311.92H66.4759ZM67.8379 302.74V301.6H68.9299V302.74H67.8379ZM73.4962 310H72.4762L70.0822 303.856H71.1262L73.0222 308.878L74.8822 303.856H75.8902L73.4962 310ZM84.0243 303.712C84.4723 303.712 84.8643 303.814 85.2003 304.018C85.5403 304.218 85.8003 304.5 85.9803 304.864C86.1643 305.228 86.2563 305.648 86.2563 306.124V310H85.2963V306.166C85.2963 305.646 85.1723 305.244 84.9243 304.96C84.6803 304.672 84.3323 304.528 83.8803 304.528C83.5363 304.528 83.2383 304.61 82.9863 304.774C82.7343 304.934 82.5403 305.164 82.4043 305.464C82.2683 305.764 82.2003 306.114 82.2003 306.514V310H81.2403V306.166C81.2403 305.65 81.1123 305.248 80.8563 304.96C80.6003 304.672 80.2443 304.528 79.7883 304.528C79.4443 304.528 79.1483 304.61 78.9003 304.774C78.6563 304.934 78.4683 305.164 78.3363 305.464C78.2083 305.764 78.1443 306.114 78.1443 306.514V310H77.1843V303.856H78.1083V304.762C78.3003 304.426 78.5523 304.168 78.8643 303.988C79.1803 303.804 79.5463 303.712 79.9623 303.712C80.4103 303.712 80.8083 303.82 81.1563 304.036C81.5043 304.252 81.7683 304.55 81.9483 304.93C82.1563 304.546 82.4383 304.248 82.7943 304.036C83.1543 303.82 83.5643 303.712 84.0243 303.712ZM89.4065 310H88.4165V301.6H89.6885L92.6705 308.47L92.8325 308.914L92.9885 308.47L95.8925 301.6H97.2005V310H96.2045V303.028L93.2465 310H92.3765L89.4065 303.064V310ZM101.837 303.712C102.301 303.712 102.707 303.798 103.055 303.97C103.407 304.138 103.679 304.384 103.871 304.708C104.063 305.032 104.159 305.422 104.159 305.878V310H103.223V309.088C103.035 309.432 102.765 309.694 102.413 309.874C102.065 310.054 101.647 310.144 101.159 310.144C100.755 310.144 100.395 310.07 100.079 309.922C99.7666 309.77 99.5226 309.56 99.3466 309.292C99.1746 309.024 99.0886 308.718 99.0886 308.374C99.0886 308.054 99.1686 307.76 99.3286 307.492C99.4926 307.22 99.7186 306.998 100.007 306.826C100.295 306.654 100.621 306.55 100.985 306.514L102.779 306.334C102.911 306.322 103.015 306.266 103.091 306.166C103.171 306.066 103.211 305.922 103.211 305.734C103.211 305.49 103.151 305.276 103.031 305.092C102.915 304.908 102.751 304.766 102.539 304.666C102.331 304.566 102.089 304.516 101.813 304.516C101.541 304.516 101.293 304.562 101.069 304.654C100.845 304.746 100.663 304.872 100.523 305.032C100.383 305.192 100.301 305.368 100.277 305.56H99.3406C99.3766 305.22 99.5086 304.91 99.7366 304.63C99.9646 304.346 100.263 304.122 100.631 303.958C100.999 303.794 101.401 303.712 101.837 303.712ZM101.339 309.394C101.703 309.394 102.027 309.324 102.311 309.184C102.595 309.04 102.815 308.84 102.971 308.584C103.131 308.324 103.211 308.03 103.211 307.702V307.006L101.117 307.222C100.797 307.254 100.539 307.372 100.343 307.576C100.147 307.78 100.049 308.028 100.049 308.32C100.049 308.528 100.103 308.714 100.211 308.878C100.319 309.038 100.471 309.164 100.667 309.256C100.863 309.348 101.087 309.394 101.339 309.394ZM107.043 310H106.083V303.856H107.043V310ZM106.017 302.74V301.6H107.109V302.74H106.017ZM111.998 303.712C112.458 303.712 112.86 303.812 113.204 304.012C113.548 304.208 113.812 304.488 113.996 304.852C114.184 305.216 114.278 305.64 114.278 306.124V310H113.318V306.196C113.318 305.672 113.182 305.264 112.91 304.972C112.642 304.676 112.268 304.528 111.788 304.528C111.444 304.528 111.142 304.602 110.882 304.75C110.622 304.894 110.42 305.102 110.276 305.374C110.136 305.646 110.066 305.966 110.066 306.334V310H109.106V303.856H110.03V304.798C110.226 304.438 110.49 304.168 110.822 303.988C111.154 303.804 111.546 303.712 111.998 303.712Z" fill="white"/>
<rect x="168" y="288" width="110" height="36" rx="12" fill="url(#paint4_radial_1560_185)"/>
<path d="M204.142 311.92V311.008H205.03C205.194 311.008 205.324 310.958 205.42 310.858C205.52 310.758 205.57 310.626 205.57 310.462V303.856H206.53V310.54C206.53 310.816 206.47 311.058 206.35 311.266C206.234 311.474 206.066 311.634 205.846 311.746C205.63 311.862 205.378 311.92 205.09 311.92H204.142ZM205.504 302.74V301.6H206.596V302.74H205.504ZM210.556 310.144C210.056 310.144 209.614 310.066 209.23 309.91C208.85 309.75 208.554 309.53 208.342 309.25C208.134 308.97 208.028 308.652 208.024 308.296H208.984C208.992 308.504 209.062 308.688 209.194 308.848C209.326 309.008 209.506 309.134 209.734 309.226C209.966 309.314 210.23 309.358 210.526 309.358C210.982 309.358 211.336 309.262 211.588 309.07C211.84 308.878 211.966 308.616 211.966 308.284C211.966 308.028 211.888 307.82 211.732 307.66C211.58 307.496 211.354 307.39 211.054 307.342L209.938 307.168C209.402 307.084 208.984 306.89 208.684 306.586C208.384 306.278 208.234 305.896 208.234 305.44C208.234 305.104 208.328 304.806 208.516 304.546C208.708 304.282 208.972 304.078 209.308 303.934C209.648 303.786 210.032 303.712 210.46 303.712C210.9 303.712 211.294 303.786 211.642 303.934C211.994 304.082 212.27 304.288 212.47 304.552C212.674 304.812 212.78 305.108 212.788 305.44H211.828C211.824 305.264 211.76 305.104 211.636 304.96C211.516 304.816 211.352 304.704 211.144 304.624C210.936 304.54 210.704 304.498 210.448 304.498C210.2 304.498 209.976 304.538 209.776 304.618C209.58 304.694 209.426 304.802 209.314 304.942C209.206 305.078 209.152 305.236 209.152 305.416C209.152 305.656 209.224 305.85 209.368 305.998C209.512 306.142 209.724 306.236 210.004 306.28L211.156 306.466C211.716 306.554 212.144 306.754 212.44 307.066C212.74 307.378 212.89 307.776 212.89 308.26C212.89 308.636 212.794 308.966 212.602 309.25C212.41 309.534 212.138 309.754 211.786 309.91C211.434 310.066 211.024 310.144 210.556 310.144ZM215.741 310H214.751V301.6H216.023L219.005 308.47L219.167 308.914L219.323 308.47L222.227 301.6H223.535V310H222.539V303.028L219.581 310H218.711L215.741 303.064V310ZM228.171 303.712C228.635 303.712 229.041 303.798 229.389 303.97C229.741 304.138 230.013 304.384 230.205 304.708C230.397 305.032 230.493 305.422 230.493 305.878V310H229.557V309.088C229.369 309.432 229.099 309.694 228.747 309.874C228.399 310.054 227.981 310.144 227.493 310.144C227.089 310.144 226.729 310.07 226.413 309.922C226.101 309.77 225.857 309.56 225.681 309.292C225.509 309.024 225.423 308.718 225.423 308.374C225.423 308.054 225.503 307.76 225.663 307.492C225.827 307.22 226.053 306.998 226.341 306.826C226.629 306.654 226.955 306.55 227.319 306.514L229.113 306.334C229.245 306.322 229.349 306.266 229.425 306.166C229.505 306.066 229.545 305.922 229.545 305.734C229.545 305.49 229.485 305.276 229.365 305.092C229.249 304.908 229.085 304.766 228.873 304.666C228.665 304.566 228.423 304.516 228.147 304.516C227.875 304.516 227.627 304.562 227.403 304.654C227.179 304.746 226.997 304.872 226.857 305.032C226.717 305.192 226.635 305.368 226.611 305.56H225.675C225.711 305.22 225.843 304.91 226.071 304.63C226.299 304.346 226.597 304.122 226.965 303.958C227.333 303.794 227.735 303.712 228.171 303.712ZM227.673 309.394C228.037 309.394 228.361 309.324 228.645 309.184C228.929 309.04 229.149 308.84 229.305 308.584C229.465 308.324 229.545 308.03 229.545 307.702V307.006L227.451 307.222C227.131 307.254 226.873 307.372 226.677 307.576C226.481 307.78 226.383 308.028 226.383 308.32C226.383 308.528 226.437 308.714 226.545 308.878C226.653 309.038 226.805 309.164 227.001 309.256C227.197 309.348 227.421 309.394 227.673 309.394ZM233.377 310H232.417V303.856H233.377V310ZM232.351 302.74V301.6H233.443V302.74H232.351ZM238.332 303.712C238.792 303.712 239.194 303.812 239.538 304.012C239.882 304.208 240.146 304.488 240.33 304.852C240.518 305.216 240.612 305.64 240.612 306.124V310H239.652V306.196C239.652 305.672 239.516 305.264 239.244 304.972C238.976 304.676 238.602 304.528 238.122 304.528C237.778 304.528 237.476 304.602 237.216 304.75C236.956 304.894 236.754 305.102 236.61 305.374C236.47 305.646 236.4 305.966 236.4 306.334V310H235.44V303.856H236.364V304.798C236.56 304.438 236.824 304.168 237.156 303.988C237.488 303.804 237.88 303.712 238.332 303.712Z" fill="white"/>
<path d="M448.449 310H447.489V301.6H448.449V310ZM451.472 310H450.512V303.856H451.472V310ZM450.446 302.74V301.6H451.538V302.74H450.446ZM456.428 303.712C456.888 303.712 457.29 303.812 457.634 304.012C457.978 304.208 458.242 304.488 458.426 304.852C458.614 305.216 458.708 305.64 458.708 306.124V310H457.748V306.196C457.748 305.672 457.612 305.264 457.34 304.972C457.072 304.676 456.698 304.528 456.218 304.528C455.874 304.528 455.572 304.602 455.312 304.75C455.052 304.894 454.85 305.102 454.706 305.374C454.566 305.646 454.496 305.966 454.496 306.334V310H453.536V303.856H454.46V304.798C454.656 304.438 454.92 304.168 455.252 303.988C455.584 303.804 455.976 303.712 456.428 303.712ZM464.694 303.856H465.654V310H464.73V309.058C464.534 309.418 464.27 309.69 463.938 309.874C463.606 310.054 463.214 310.144 462.762 310.144C462.302 310.144 461.9 310.046 461.556 309.85C461.212 309.65 460.946 309.368 460.758 309.004C460.574 308.64 460.482 308.216 460.482 307.732V303.856H461.442V307.66C461.442 308.184 461.576 308.594 461.844 308.89C462.116 309.182 462.492 309.328 462.972 309.328C463.316 309.328 463.618 309.256 463.878 309.112C464.138 308.964 464.338 308.754 464.478 308.482C464.622 308.21 464.694 307.89 464.694 307.522V303.856ZM470.272 306.85L472.504 310H471.412L469.72 307.582L468.046 310H466.996L469.234 306.832L467.116 303.856H468.208L469.78 306.1L471.334 303.856H472.384L470.272 306.85ZM474.337 310H473.197L476.113 305.734L473.317 301.6H474.481L476.455 304.612L476.713 304.978L477.127 304.36L478.957 301.6H480.097L477.277 305.71L480.217 310H479.053L476.935 306.856L476.665 306.466L476.215 307.144L474.337 310ZM484.541 310.144C484.121 310.144 483.711 310.06 483.311 309.892C482.915 309.72 482.583 309.488 482.315 309.196C481.999 308.852 481.757 308.412 481.589 307.876C481.425 307.336 481.343 306.716 481.343 306.016C481.343 305.12 481.483 304.328 481.763 303.64C482.043 302.948 482.433 302.412 482.933 302.032C483.437 301.648 484.011 301.456 484.655 301.456C485.079 301.456 485.487 301.538 485.879 301.702C486.271 301.866 486.601 302.096 486.869 302.392C487.141 302.688 487.315 303.024 487.391 303.4H486.383C486.343 303.192 486.237 303.008 486.065 302.848C485.893 302.684 485.681 302.558 485.429 302.47C485.177 302.378 484.919 302.332 484.655 302.332C484.187 302.332 483.775 302.482 483.419 302.782C483.067 303.082 482.791 303.514 482.591 304.078C482.391 304.642 482.285 305.31 482.273 306.082C482.393 305.778 482.579 305.504 482.831 305.26C483.083 305.012 483.377 304.818 483.713 304.678C484.049 304.538 484.399 304.468 484.763 304.468C485.307 304.468 485.791 304.59 486.215 304.834C486.639 305.074 486.967 305.41 487.199 305.842C487.435 306.27 487.553 306.758 487.553 307.306C487.553 307.858 487.425 308.35 487.169 308.782C486.917 309.21 486.563 309.544 486.107 309.784C485.651 310.024 485.129 310.144 484.541 310.144ZM484.583 309.268C484.963 309.268 485.299 309.186 485.591 309.022C485.887 308.854 486.115 308.622 486.275 308.326C486.439 308.03 486.521 307.692 486.521 307.312C486.521 306.932 486.439 306.594 486.275 306.298C486.111 305.998 485.879 305.764 485.579 305.596C485.279 305.428 484.933 305.344 484.541 305.344C484.149 305.344 483.799 305.43 483.491 305.602C483.187 305.774 482.949 306.01 482.777 306.31C482.609 306.606 482.525 306.936 482.525 307.3C482.525 307.668 482.613 308.002 482.789 308.302C482.965 308.602 483.209 308.838 483.521 309.01C483.837 309.182 484.191 309.268 484.583 309.268ZM493.67 301.6V307.03H494.978V307.93H493.67V310H492.686V307.93H488.426V306.994L492.68 301.6H493.67ZM492.686 302.908L489.476 307.03H492.686V302.908ZM497.785 310H496.795V301.6H498.067L501.049 308.47L501.211 308.914L501.367 308.47L504.271 301.6H505.579V310H504.583V303.028L501.625 310H500.755L497.785 303.064V310ZM510.215 303.712C510.679 303.712 511.085 303.798 511.433 303.97C511.785 304.138 512.057 304.384 512.249 304.708C512.441 305.032 512.537 305.422 512.537 305.878V310H511.601V309.088C511.413 309.432 511.143 309.694 510.791 309.874C510.443 310.054 510.025 310.144 509.537 310.144C509.133 310.144 508.773 310.07 508.457 309.922C508.145 309.77 507.901 309.56 507.725 309.292C507.553 309.024 507.467 308.718 507.467 308.374C507.467 308.054 507.547 307.76 507.707 307.492C507.871 307.22 508.097 306.998 508.385 306.826C508.673 306.654 508.999 306.55 509.363 306.514L511.157 306.334C511.289 306.322 511.393 306.266 511.469 306.166C511.549 306.066 511.589 305.922 511.589 305.734C511.589 305.49 511.529 305.276 511.409 305.092C511.293 304.908 511.129 304.766 510.917 304.666C510.709 304.566 510.467 304.516 510.191 304.516C509.919 304.516 509.671 304.562 509.447 304.654C509.223 304.746 509.041 304.872 508.901 305.032C508.761 305.192 508.679 305.368 508.655 305.56H507.719C507.755 305.22 507.887 304.91 508.115 304.63C508.343 304.346 508.641 304.122 509.009 303.958C509.377 303.794 509.779 303.712 510.215 303.712ZM509.717 309.394C510.081 309.394 510.405 309.324 510.689 309.184C510.973 309.04 511.193 308.84 511.349 308.584C511.509 308.324 511.589 308.03 511.589 307.702V307.006L509.495 307.222C509.175 307.254 508.917 307.372 508.721 307.576C508.525 307.78 508.427 308.028 508.427 308.32C508.427 308.528 508.481 308.714 508.589 308.878C508.697 309.038 508.849 309.164 509.045 309.256C509.241 309.348 509.465 309.394 509.717 309.394ZM515.422 310H514.462V303.856H515.422V310ZM514.396 302.74V301.6H515.488V302.74H514.396ZM520.377 303.712C520.837 303.712 521.239 303.812 521.583 304.012C521.927 304.208 522.191 304.488 522.375 304.852C522.563 305.216 522.657 305.64 522.657 306.124V310H521.697V306.196C521.697 305.672 521.561 305.264 521.289 304.972C521.021 304.676 520.647 304.528 520.167 304.528C519.823 304.528 519.521 304.602 519.261 304.75C519.001 304.894 518.799 305.102 518.655 305.374C518.515 305.646 518.445 305.966 518.445 306.334V310H517.485V303.856H518.409V304.798C518.605 304.438 518.869 304.168 519.201 303.988C519.533 303.804 519.925 303.712 520.377 303.712Z" fill="white"/>
<path d="M580.388 303.712C580.836 303.712 581.228 303.814 581.564 304.018C581.904 304.218 582.164 304.5 582.344 304.864C582.528 305.228 582.62 305.648 582.62 306.124V310H581.66V306.166C581.66 305.646 581.536 305.244 581.288 304.96C581.044 304.672 580.696 304.528 580.244 304.528C579.9 304.528 579.602 304.61 579.35 304.774C579.098 304.934 578.904 305.164 578.768 305.464C578.632 305.764 578.564 306.114 578.564 306.514V310H577.604V306.166C577.604 305.65 577.476 305.248 577.22 304.96C576.964 304.672 576.608 304.528 576.152 304.528C575.808 304.528 575.512 304.61 575.264 304.774C575.02 304.934 574.832 305.164 574.7 305.464C574.572 305.764 574.508 306.114 574.508 306.514V310H573.548V303.856H574.472V304.762C574.664 304.426 574.916 304.168 575.228 303.988C575.544 303.804 575.91 303.712 576.326 303.712C576.774 303.712 577.172 303.82 577.52 304.036C577.868 304.252 578.132 304.55 578.312 304.93C578.52 304.546 578.802 304.248 579.158 304.036C579.518 303.82 579.928 303.712 580.388 303.712ZM585.5 310H584.54V303.856H585.5V310ZM584.474 302.74V301.6H585.566V302.74H584.474ZM590.455 303.712C590.915 303.712 591.317 303.812 591.661 304.012C592.005 304.208 592.269 304.488 592.453 304.852C592.641 305.216 592.735 305.64 592.735 306.124V310H591.775V306.196C591.775 305.672 591.639 305.264 591.367 304.972C591.099 304.676 590.725 304.528 590.245 304.528C589.901 304.528 589.599 304.602 589.339 304.75C589.079 304.894 588.877 305.102 588.733 305.374C588.593 305.646 588.523 305.966 588.523 306.334V310H587.563V303.856H588.487V304.798C588.683 304.438 588.947 304.168 589.279 303.988C589.611 303.804 590.003 303.712 590.455 303.712ZM599.039 303.856H599.969L599.957 309.514C599.957 310.046 599.843 310.502 599.615 310.882C599.391 311.266 599.067 311.558 598.643 311.758C598.223 311.962 597.727 312.064 597.155 312.064C596.631 312.064 596.163 311.976 595.751 311.8C595.343 311.628 595.017 311.386 594.773 311.074C594.529 310.762 594.385 310.402 594.341 309.994H595.301C595.353 310.234 595.463 310.448 595.631 310.636C595.799 310.828 596.013 310.976 596.273 311.08C596.537 311.188 596.831 311.242 597.155 311.242C597.727 311.242 598.175 311.09 598.499 310.786C598.827 310.486 598.991 310.062 598.991 309.514V309.088L599.009 308.458C598.777 308.786 598.481 309.04 598.121 309.22C597.765 309.396 597.367 309.484 596.927 309.484C596.407 309.484 595.941 309.362 595.529 309.118C595.121 308.874 594.801 308.534 594.569 308.098C594.341 307.662 594.227 307.166 594.227 306.61C594.227 306.054 594.341 305.558 594.569 305.122C594.801 304.686 595.121 304.346 595.529 304.102C595.941 303.858 596.407 303.736 596.927 303.736C597.375 303.736 597.781 303.83 598.145 304.018C598.509 304.202 598.807 304.464 599.039 304.804V303.856ZM597.101 308.644C597.469 308.644 597.797 308.56 598.085 308.392C598.373 308.224 598.597 307.986 598.757 307.678C598.921 307.37 599.003 307.014 599.003 306.61C599.003 306.206 598.921 305.85 598.757 305.542C598.597 305.234 598.373 304.996 598.085 304.828C597.797 304.66 597.469 304.576 597.101 304.576C596.737 304.576 596.413 304.662 596.129 304.834C595.845 305.002 595.625 305.24 595.469 305.548C595.313 305.852 595.235 306.206 595.235 306.61C595.235 307.014 595.313 307.37 595.469 307.678C595.625 307.982 595.845 308.22 596.129 308.392C596.413 308.56 596.737 308.644 597.101 308.644ZM604.257 310H603.261L601.239 303.856H602.259L603.663 308.374L603.801 308.866L603.921 308.374L605.379 303.856H606.369L607.833 308.374L607.965 308.866L608.091 308.374L609.459 303.856H610.455L608.433 310H607.425L605.985 305.278L605.871 304.882L605.769 305.266L604.257 310ZM612.278 310H611.138L614.054 305.734L611.258 301.6H612.422L614.396 304.612L614.654 304.978L615.068 304.36L616.898 301.6H618.038L615.218 305.71L618.158 310H616.994L614.876 306.856L614.606 306.466L614.156 307.144L612.278 310ZM622.483 310.144C622.063 310.144 621.653 310.06 621.253 309.892C620.857 309.72 620.525 309.488 620.257 309.196C619.941 308.852 619.699 308.412 619.531 307.876C619.367 307.336 619.285 306.716 619.285 306.016C619.285 305.12 619.425 304.328 619.705 303.64C619.985 302.948 620.375 302.412 620.875 302.032C621.379 301.648 621.953 301.456 622.597 301.456C623.021 301.456 623.429 301.538 623.821 301.702C624.213 301.866 624.543 302.096 624.811 302.392C625.083 302.688 625.257 303.024 625.333 303.4H624.325C624.285 303.192 624.179 303.008 624.007 302.848C623.835 302.684 623.623 302.558 623.371 302.47C623.119 302.378 622.861 302.332 622.597 302.332C622.129 302.332 621.717 302.482 621.361 302.782C621.009 303.082 620.733 303.514 620.533 304.078C620.333 304.642 620.227 305.31 620.215 306.082C620.335 305.778 620.521 305.504 620.773 305.26C621.025 305.012 621.319 304.818 621.655 304.678C621.991 304.538 622.341 304.468 622.705 304.468C623.249 304.468 623.733 304.59 624.157 304.834C624.581 305.074 624.909 305.41 625.141 305.842C625.377 306.27 625.495 306.758 625.495 307.306C625.495 307.858 625.367 308.35 625.111 308.782C624.859 309.21 624.505 309.544 624.049 309.784C623.593 310.024 623.071 310.144 622.483 310.144ZM622.525 309.268C622.905 309.268 623.241 309.186 623.533 309.022C623.829 308.854 624.057 308.622 624.217 308.326C624.381 308.03 624.463 307.692 624.463 307.312C624.463 306.932 624.381 306.594 624.217 306.298C624.053 305.998 623.821 305.764 623.521 305.596C623.221 305.428 622.875 305.344 622.483 305.344C622.091 305.344 621.741 305.43 621.433 305.602C621.129 305.774 620.891 306.01 620.719 306.31C620.551 306.606 620.467 306.936 620.467 307.3C620.467 307.668 620.555 308.002 620.731 308.302C620.907 308.602 621.151 308.838 621.463 309.01C621.779 309.182 622.133 309.268 622.525 309.268ZM631.611 301.6V307.03H632.919V307.93H631.611V310H630.627V307.93H626.367V306.994L630.621 301.6H631.611ZM630.627 302.908L627.417 307.03H630.627V302.908ZM635.727 310H634.737V301.6H636.009L638.991 308.47L639.153 308.914L639.309 308.47L642.213 301.6H643.521V310H642.525V303.028L639.567 310H638.697L635.727 303.064V310ZM648.157 303.712C648.621 303.712 649.027 303.798 649.375 303.97C649.727 304.138 649.999 304.384 650.191 304.708C650.383 305.032 650.479 305.422 650.479 305.878V310H649.543V309.088C649.355 309.432 649.085 309.694 648.733 309.874C648.385 310.054 647.967 310.144 647.479 310.144C647.075 310.144 646.715 310.07 646.399 309.922C646.087 309.77 645.843 309.56 645.667 309.292C645.495 309.024 645.409 308.718 645.409 308.374C645.409 308.054 645.489 307.76 645.649 307.492C645.813 307.22 646.039 306.998 646.327 306.826C646.615 306.654 646.941 306.55 647.305 306.514L649.099 306.334C649.231 306.322 649.335 306.266 649.411 306.166C649.491 306.066 649.531 305.922 649.531 305.734C649.531 305.49 649.471 305.276 649.351 305.092C649.235 304.908 649.071 304.766 648.859 304.666C648.651 304.566 648.409 304.516 648.133 304.516C647.861 304.516 647.613 304.562 647.389 304.654C647.165 304.746 646.983 304.872 646.843 305.032C646.703 305.192 646.621 305.368 646.597 305.56H645.661C645.697 305.22 645.829 304.91 646.057 304.63C646.285 304.346 646.583 304.122 646.951 303.958C647.319 303.794 647.721 303.712 648.157 303.712ZM647.659 309.394C648.023 309.394 648.347 309.324 648.631 309.184C648.915 309.04 649.135 308.84 649.291 308.584C649.451 308.324 649.531 308.03 649.531 307.702V307.006L647.437 307.222C647.117 307.254 646.859 307.372 646.663 307.576C646.467 307.78 646.369 308.028 646.369 308.32C646.369 308.528 646.423 308.714 646.531 308.878C646.639 309.038 646.791 309.164 646.987 309.256C647.183 309.348 647.407 309.394 647.659 309.394ZM653.363 310H652.403V303.856H653.363V310ZM652.337 302.74V301.6H653.429V302.74H652.337ZM658.319 303.712C658.779 303.712 659.181 303.812 659.525 304.012C659.869 304.208 660.133 304.488 660.317 304.852C660.505 305.216 660.599 305.64 660.599 306.124V310H659.639V306.196C659.639 305.672 659.503 305.264 659.231 304.972C658.963 304.676 658.589 304.528 658.109 304.528C657.765 304.528 657.463 304.602 657.203 304.75C656.943 304.894 656.741 305.102 656.597 305.374C656.457 305.646 656.387 305.966 656.387 306.334V310H655.427V303.856H656.351V304.798C656.547 304.438 656.811 304.168 657.143 303.988C657.475 303.804 657.867 303.712 658.319 303.712Z" fill="white"/>
<path d="M316.616 303.712C317.064 303.712 317.456 303.814 317.792 304.018C318.132 304.218 318.392 304.5 318.572 304.864C318.756 305.228 318.848 305.648 318.848 306.124V310H317.888V306.166C317.888 305.646 317.764 305.244 317.516 304.96C317.272 304.672 316.924 304.528 316.472 304.528C316.128 304.528 315.83 304.61 315.578 304.774C315.326 304.934 315.132 305.164 314.996 305.464C314.86 305.764 314.792 306.114 314.792 306.514V310H313.832V306.166C313.832 305.65 313.704 305.248 313.448 304.96C313.192 304.672 312.836 304.528 312.38 304.528C312.036 304.528 311.74 304.61 311.492 304.774C311.248 304.934 311.06 305.164 310.928 305.464C310.8 305.764 310.736 306.114 310.736 306.514V310H309.776V303.856H310.7V304.762C310.892 304.426 311.144 304.168 311.456 303.988C311.772 303.804 312.138 303.712 312.554 303.712C313.002 303.712 313.4 303.82 313.748 304.036C314.096 304.252 314.36 304.55 314.54 304.93C314.748 304.546 315.03 304.248 315.386 304.036C315.746 303.82 316.156 303.712 316.616 303.712ZM323.096 303.712C323.56 303.712 323.966 303.798 324.314 303.97C324.666 304.138 324.938 304.384 325.13 304.708C325.322 305.032 325.418 305.422 325.418 305.878V310H324.482V309.088C324.294 309.432 324.024 309.694 323.672 309.874C323.324 310.054 322.906 310.144 322.418 310.144C322.014 310.144 321.654 310.07 321.338 309.922C321.026 309.77 320.782 309.56 320.606 309.292C320.434 309.024 320.348 308.718 320.348 308.374C320.348 308.054 320.428 307.76 320.588 307.492C320.752 307.22 320.978 306.998 321.266 306.826C321.554 306.654 321.88 306.55 322.244 306.514L324.038 306.334C324.17 306.322 324.274 306.266 324.35 306.166C324.43 306.066 324.47 305.922 324.47 305.734C324.47 305.49 324.41 305.276 324.29 305.092C324.174 304.908 324.01 304.766 323.798 304.666C323.59 304.566 323.348 304.516 323.072 304.516C322.8 304.516 322.552 304.562 322.328 304.654C322.104 304.746 321.922 304.872 321.782 305.032C321.642 305.192 321.56 305.368 321.536 305.56H320.6C320.636 305.22 320.768 304.91 320.996 304.63C321.224 304.346 321.522 304.122 321.89 303.958C322.258 303.794 322.66 303.712 323.096 303.712ZM322.598 309.394C322.962 309.394 323.286 309.324 323.57 309.184C323.854 309.04 324.074 308.84 324.23 308.584C324.39 308.324 324.47 308.03 324.47 307.702V307.006L322.376 307.222C322.056 307.254 321.798 307.372 321.602 307.576C321.406 307.78 321.308 308.028 321.308 308.32C321.308 308.528 321.362 308.714 321.47 308.878C321.578 309.038 321.73 309.164 321.926 309.256C322.122 309.348 322.346 309.394 322.598 309.394ZM329.917 310.144C329.337 310.144 328.813 310.004 328.345 309.724C327.877 309.444 327.509 309.06 327.241 308.572C326.977 308.08 326.845 307.532 326.845 306.928C326.845 306.324 326.977 305.778 327.241 305.29C327.509 304.798 327.877 304.412 328.345 304.132C328.813 303.852 329.337 303.712 329.917 303.712C330.413 303.712 330.869 303.81 331.285 304.006C331.701 304.198 332.037 304.466 332.293 304.81C332.553 305.15 332.703 305.532 332.743 305.956H331.783C331.735 305.692 331.621 305.454 331.441 305.242C331.265 305.03 331.043 304.864 330.775 304.744C330.511 304.624 330.225 304.564 329.917 304.564C329.525 304.564 329.171 304.668 328.855 304.876C328.543 305.08 328.297 305.362 328.117 305.722C327.941 306.082 327.853 306.484 327.853 306.928C327.853 307.372 327.941 307.774 328.117 308.134C328.297 308.494 328.543 308.776 328.855 308.98C329.171 309.184 329.525 309.286 329.917 309.286C330.225 309.286 330.511 309.228 330.775 309.112C331.043 308.996 331.265 308.838 331.441 308.638C331.621 308.434 331.735 308.208 331.783 307.96H332.743C332.707 308.372 332.559 308.744 332.299 309.076C332.043 309.408 331.707 309.67 331.291 309.862C330.875 310.05 330.417 310.144 329.917 310.144ZM336.889 310.144C336.305 310.144 335.779 310.006 335.311 309.73C334.843 309.45 334.475 309.066 334.207 308.578C333.939 308.09 333.805 307.54 333.805 306.928C333.805 306.316 333.939 305.766 334.207 305.278C334.475 304.79 334.845 304.408 335.317 304.132C335.789 303.852 336.317 303.712 336.901 303.712C337.485 303.712 338.013 303.852 338.485 304.132C338.957 304.408 339.327 304.79 339.595 305.278C339.863 305.766 339.997 306.316 339.997 306.928C339.997 307.54 339.861 308.09 339.589 308.578C339.321 309.066 338.951 309.45 338.479 309.73C338.007 310.006 337.477 310.144 336.889 310.144ZM336.901 309.256C337.301 309.256 337.659 309.16 337.975 308.968C338.291 308.772 338.539 308.498 338.719 308.146C338.899 307.794 338.989 307.388 338.989 306.928C338.989 306.468 338.899 306.062 338.719 305.71C338.539 305.354 338.291 305.08 337.975 304.888C337.659 304.692 337.301 304.594 336.901 304.594C336.501 304.594 336.143 304.692 335.827 304.888C335.511 305.08 335.263 305.354 335.083 305.71C334.903 306.062 334.813 306.468 334.813 306.928C334.813 307.388 334.903 307.794 335.083 308.146C335.263 308.498 335.511 308.772 335.827 308.968C336.143 309.16 336.501 309.256 336.901 309.256ZM343.603 310.144C343.103 310.144 342.661 310.066 342.277 309.91C341.897 309.75 341.601 309.53 341.389 309.25C341.181 308.97 341.075 308.652 341.071 308.296H342.031C342.039 308.504 342.109 308.688 342.241 308.848C342.373 309.008 342.553 309.134 342.781 309.226C343.013 309.314 343.277 309.358 343.573 309.358C344.029 309.358 344.383 309.262 344.635 309.07C344.887 308.878 345.013 308.616 345.013 308.284C345.013 308.028 344.935 307.82 344.779 307.66C344.627 307.496 344.401 307.39 344.101 307.342L342.985 307.168C342.449 307.084 342.031 306.89 341.731 306.586C341.431 306.278 341.281 305.896 341.281 305.44C341.281 305.104 341.375 304.806 341.563 304.546C341.755 304.282 342.019 304.078 342.355 303.934C342.695 303.786 343.079 303.712 343.507 303.712C343.947 303.712 344.341 303.786 344.689 303.934C345.041 304.082 345.317 304.288 345.517 304.552C345.721 304.812 345.827 305.108 345.835 305.44H344.875C344.871 305.264 344.807 305.104 344.683 304.96C344.563 304.816 344.399 304.704 344.191 304.624C343.983 304.54 343.751 304.498 343.495 304.498C343.247 304.498 343.023 304.538 342.823 304.618C342.627 304.694 342.473 304.802 342.361 304.942C342.253 305.078 342.199 305.236 342.199 305.416C342.199 305.656 342.271 305.85 342.415 305.998C342.559 306.142 342.771 306.236 343.051 306.28L344.203 306.466C344.763 306.554 345.191 306.754 345.487 307.066C345.787 307.378 345.937 307.776 345.937 308.26C345.937 308.636 345.841 308.966 345.649 309.25C345.457 309.534 345.185 309.754 344.833 309.91C344.481 310.066 344.071 310.144 343.603 310.144ZM348.049 310H346.909L349.825 305.734L347.029 301.6H348.193L350.167 304.612L350.425 304.978L350.839 304.36L352.669 301.6H353.809L350.989 305.71L353.929 310H352.765L350.647 306.856L350.377 306.466L349.927 307.144L348.049 310ZM358.254 310.144C357.834 310.144 357.424 310.06 357.024 309.892C356.628 309.72 356.296 309.488 356.028 309.196C355.712 308.852 355.47 308.412 355.302 307.876C355.138 307.336 355.056 306.716 355.056 306.016C355.056 305.12 355.196 304.328 355.476 303.64C355.756 302.948 356.146 302.412 356.646 302.032C357.15 301.648 357.724 301.456 358.368 301.456C358.792 301.456 359.2 301.538 359.592 301.702C359.984 301.866 360.314 302.096 360.582 302.392C360.854 302.688 361.028 303.024 361.104 303.4H360.096C360.056 303.192 359.95 303.008 359.778 302.848C359.606 302.684 359.394 302.558 359.142 302.47C358.89 302.378 358.632 302.332 358.368 302.332C357.9 302.332 357.488 302.482 357.132 302.782C356.78 303.082 356.504 303.514 356.304 304.078C356.104 304.642 355.998 305.31 355.986 306.082C356.106 305.778 356.292 305.504 356.544 305.26C356.796 305.012 357.09 304.818 357.426 304.678C357.762 304.538 358.112 304.468 358.476 304.468C359.02 304.468 359.504 304.59 359.928 304.834C360.352 305.074 360.68 305.41 360.912 305.842C361.148 306.27 361.266 306.758 361.266 307.306C361.266 307.858 361.138 308.35 360.882 308.782C360.63 309.21 360.276 309.544 359.82 309.784C359.364 310.024 358.842 310.144 358.254 310.144ZM358.296 309.268C358.676 309.268 359.012 309.186 359.304 309.022C359.6 308.854 359.828 308.622 359.988 308.326C360.152 308.03 360.234 307.692 360.234 307.312C360.234 306.932 360.152 306.594 359.988 306.298C359.824 305.998 359.592 305.764 359.292 305.596C358.992 305.428 358.646 305.344 358.254 305.344C357.862 305.344 357.512 305.43 357.204 305.602C356.9 305.774 356.662 306.01 356.49 306.31C356.322 306.606 356.238 306.936 356.238 307.3C356.238 307.668 356.326 308.002 356.502 308.302C356.678 308.602 356.922 308.838 357.234 309.01C357.55 309.182 357.904 309.268 358.296 309.268ZM367.383 301.6V307.03H368.691V307.93H367.383V310H366.399V307.93H362.139V306.994L366.393 301.6H367.383ZM366.399 302.908L363.189 307.03H366.399V302.908ZM371.498 310H370.508V301.6H371.78L374.762 308.47L374.924 308.914L375.08 308.47L377.984 301.6H379.292V310H378.296V303.028L375.338 310H374.468L371.498 303.064V310ZM383.928 303.712C384.392 303.712 384.798 303.798 385.146 303.97C385.498 304.138 385.77 304.384 385.962 304.708C386.154 305.032 386.25 305.422 386.25 305.878V310H385.314V309.088C385.126 309.432 384.856 309.694 384.504 309.874C384.156 310.054 383.738 310.144 383.25 310.144C382.846 310.144 382.486 310.07 382.17 309.922C381.858 309.77 381.614 309.56 381.438 309.292C381.266 309.024 381.18 308.718 381.18 308.374C381.18 308.054 381.26 307.76 381.42 307.492C381.584 307.22 381.81 306.998 382.098 306.826C382.386 306.654 382.712 306.55 383.076 306.514L384.87 306.334C385.002 306.322 385.106 306.266 385.182 306.166C385.262 306.066 385.302 305.922 385.302 305.734C385.302 305.49 385.242 305.276 385.122 305.092C385.006 304.908 384.842 304.766 384.63 304.666C384.422 304.566 384.18 304.516 383.904 304.516C383.632 304.516 383.384 304.562 383.16 304.654C382.936 304.746 382.754 304.872 382.614 305.032C382.474 305.192 382.392 305.368 382.368 305.56H381.432C381.468 305.22 381.6 304.91 381.828 304.63C382.056 304.346 382.354 304.122 382.722 303.958C383.09 303.794 383.492 303.712 383.928 303.712ZM383.43 309.394C383.794 309.394 384.118 309.324 384.402 309.184C384.686 309.04 384.906 308.84 385.062 308.584C385.222 308.324 385.302 308.03 385.302 307.702V307.006L383.208 307.222C382.888 307.254 382.63 307.372 382.434 307.576C382.238 307.78 382.14 308.028 382.14 308.32C382.14 308.528 382.194 308.714 382.302 308.878C382.41 309.038 382.562 309.164 382.758 309.256C382.954 309.348 383.178 309.394 383.43 309.394ZM389.135 310H388.175V303.856H389.135V310ZM388.109 302.74V301.6H389.201V302.74H388.109ZM394.09 303.712C394.55 303.712 394.952 303.812 395.296 304.012C395.64 304.208 395.904 304.488 396.088 304.852C396.276 305.216 396.37 305.64 396.37 306.124V310H395.41V306.196C395.41 305.672 395.274 305.264 395.002 304.972C394.734 304.676 394.36 304.528 393.88 304.528C393.536 304.528 393.234 304.602 392.974 304.75C392.714 304.894 392.512 305.102 392.368 305.374C392.228 305.646 392.158 305.966 392.158 306.334V310H391.198V303.856H392.122V304.798C392.318 304.438 392.582 304.168 392.914 303.988C393.246 303.804 393.638 303.712 394.09 303.712Z" fill="white"/>
<path d="M351 83L353.021 86.5L348.979 86.5L351 83ZM350.65 288L350.65 86.15L351.35 86.15L351.35 288L350.65 288Z" fill="black"/>
<path d="M616 191.907L615.65 191.907L616 191.907ZM602 177.907L602 178.257L602 177.907ZM372 177.907L372 177.557L372 177.907ZM358 83L360.021 86.5L355.979 86.5L358 83ZM615.65 288L615.65 191.907L616.35 191.907L616.35 288L615.65 288ZM602 178.257L372 178.257L372 177.557L602 177.557L602 178.257ZM357.65 163.907L357.65 86.15L358.35 86.15L358.35 163.907L357.65 163.907ZM372 178.257C364.075 178.257 357.65 171.833 357.65 163.907L358.35 163.907C358.35 171.446 364.461 177.557 372 177.557L372 178.257ZM615.65 191.907C615.65 184.369 609.539 178.257 602 178.257L602 177.557C609.925 177.557 616.35 183.982 616.35 191.907L615.65 191.907Z" fill="black"/>
<path d="M484 191.907L484.35 191.907L484 191.907ZM470 177.907L470 178.257L470 177.907ZM372 177.907L372 177.557L372 177.907ZM358 83L360.021 86.5L355.979 86.5L358 83ZM483.65 288L483.65 191.907L484.35 191.907L484.35 288L483.65 288ZM470 178.257L372 178.257L372 177.557L470 177.557L470 178.257ZM357.65 163.907L357.65 86.15L358.35 86.15L358.35 163.907L357.65 163.907ZM372 178.257C364.075 178.257 357.65 171.833 357.65 163.907L358.35 163.907C358.35 171.446 364.461 177.557 372 177.557L372 178.257ZM483.65 191.907C483.65 184.369 477.539 178.257 470 178.257L470 177.557C477.925 177.557 484.35 183.982 484.35 191.907L483.65 191.907Z" fill="black"/>
<path d="M88 191.907L88.35 191.907L88 191.907ZM102 177.907L102 178.257L102 177.907ZM330 177.907L330 177.557L330 177.907ZM344 83L341.979 86.5L346.021 86.5L344 83ZM88.35 288L88.35 191.907L87.65 191.907L87.65 288L88.35 288ZM102 178.257L330 178.257L330 177.557L102 177.557L102 178.257ZM344.35 163.907L344.35 86.15L343.65 86.15L343.65 163.907L344.35 163.907ZM330 178.257C337.925 178.257 344.35 171.833 344.35 163.907L343.65 163.907C343.65 171.446 337.539 177.557 330 177.557L330 178.257ZM88.35 191.907C88.35 184.369 94.4613 178.257 102 178.257L102 177.557C94.0747 177.557 87.65 183.982 87.65 191.907L88.35 191.907Z" fill="black"/>
<path d="M224 191.907L223.65 191.907L224 191.907ZM238 177.907L238 178.257L238 177.907ZM330 177.907L330 177.557L330 177.907ZM344 83L341.979 86.5L346.021 86.5L344 83ZM224.35 288L224.35 191.907L223.65 191.907L223.65 288L224.35 288ZM238 178.257L330 178.257L330 177.557L238 177.557L238 178.257ZM344.35 163.907L344.35 86.15L343.65 86.15L343.65 163.907L344.35 163.907ZM330 178.257C337.925 178.257 344.35 171.833 344.35 163.907L343.65 163.907C343.65 171.446 337.539 177.557 330 177.557L330 178.257ZM224.35 191.907C224.35 184.369 230.461 178.257 238 178.257L238 177.557C230.075 177.557 223.65 183.982 223.65 191.907L224.35 191.907Z" fill="black"/>
<defs>
<radialGradient id="paint0_radial_1560_185" cx="0" cy="0" r="1" gradientUnits="userSpaceOnUse" gradientTransform="translate(429.692 324.543) scale(107.229 133.24)">
<stop stop-color="#EB4857"/>
<stop offset="0.5" stop-color="#C611E0"/>
<stop offset="1" stop-color="#7F52FF"/>
</radialGradient>
<radialGradient id="paint1_radial_1560_185" cx="0" cy="0" r="1" gradientUnits="userSpaceOnUse" gradientTransform="translate(561.692 324.543) scale(107.229 133.24)">
<stop stop-color="#EB4857"/>
<stop offset="0.5" stop-color="#C611E0"/>
<stop offset="1" stop-color="#7F52FF"/>
</radialGradient>
<radialGradient id="paint2_radial_1560_185" cx="0" cy="0" r="1" gradientUnits="userSpaceOnUse" gradientTransform="translate(297.692 324.543) scale(107.229 133.24)">
<stop stop-color="#EB4857"/>
<stop offset="0.5" stop-color="#C611E0"/>
<stop offset="1" stop-color="#7F52FF"/>
</radialGradient>
<radialGradient id="paint3_radial_1560_185" cx="0" cy="0" r="1" gradientUnits="userSpaceOnUse" gradientTransform="translate(35.6921 324.543) scale(107.229 133.24)">
<stop stop-color="#EB4857"/>
<stop offset="0.5" stop-color="#C611E0"/>
<stop offset="1" stop-color="#7F52FF"/>
</radialGradient>
<radialGradient id="paint4_radial_1560_185" cx="0" cy="0" r="1" gradientUnits="userSpaceOnUse" gradientTransform="translate(167.692 324.543) scale(107.229 133.24)">
<stop stop-color="#EB4857"/>
<stop offset="0.5" stop-color="#C611E0"/>
<stop offset="1" stop-color="#7F52FF"/>
</radialGradient>
</defs>
</svg>
