<svg width="706" height="229" viewBox="0 0 706 229" fill="none" xmlns="http://www.w3.org/2000/svg">
<rect width="706" height="229" fill="white"/>
<rect x="253" y="24" width="197" height="53" rx="12" fill="#585858"/>
<path d="M315.813 53.144C315.233 53.144 314.709 53.004 314.241 52.724C313.773 52.444 313.405 52.06 313.137 51.572C312.873 51.08 312.741 50.532 312.741 49.928C312.741 49.324 312.873 48.778 313.137 48.29C313.405 47.798 313.773 47.412 314.241 47.132C314.709 46.852 315.233 46.712 315.813 46.712C316.309 46.712 316.765 46.81 317.181 47.006C317.597 47.198 317.933 47.466 318.189 47.81C318.449 48.15 318.599 48.532 318.639 48.956H317.679C317.631 48.692 317.517 48.454 317.337 48.242C317.161 48.03 316.939 47.864 316.671 47.744C316.407 47.624 316.121 47.564 315.813 47.564C315.421 47.564 315.067 47.668 314.751 47.876C314.439 48.08 314.193 48.362 314.013 48.722C313.837 49.082 313.749 49.484 313.749 49.928C313.749 50.372 313.837 50.774 314.013 51.134C314.193 51.494 314.439 51.776 314.751 51.98C315.067 52.184 315.421 52.286 315.813 52.286C316.121 52.286 316.407 52.228 316.671 52.112C316.939 51.996 317.161 51.838 317.337 51.638C317.517 51.434 317.631 51.208 317.679 50.96H318.639C318.603 51.372 318.455 51.744 318.195 52.076C317.939 52.408 317.603 52.67 317.187 52.862C316.771 53.05 316.313 53.144 315.813 53.144ZM322.786 53.144C322.202 53.144 321.676 53.006 321.208 52.73C320.74 52.45 320.372 52.066 320.104 51.578C319.836 51.09 319.702 50.54 319.702 49.928C319.702 49.316 319.836 48.766 320.104 48.278C320.372 47.79 320.742 47.408 321.214 47.132C321.686 46.852 322.214 46.712 322.798 46.712C323.382 46.712 323.91 46.852 324.382 47.132C324.854 47.408 325.224 47.79 325.492 48.278C325.76 48.766 325.894 49.316 325.894 49.928C325.894 50.54 325.758 51.09 325.486 51.578C325.218 52.066 324.848 52.45 324.376 52.73C323.904 53.006 323.374 53.144 322.786 53.144ZM322.798 52.256C323.198 52.256 323.556 52.16 323.872 51.968C324.188 51.772 324.436 51.498 324.616 51.146C324.796 50.794 324.886 50.388 324.886 49.928C324.886 49.468 324.796 49.062 324.616 48.71C324.436 48.354 324.188 48.08 323.872 47.888C323.556 47.692 323.198 47.594 322.798 47.594C322.398 47.594 322.04 47.692 321.724 47.888C321.408 48.08 321.16 48.354 320.98 48.71C320.8 49.062 320.71 49.468 320.71 49.928C320.71 50.388 320.8 50.794 320.98 51.146C321.16 51.498 321.408 51.772 321.724 51.968C322.04 52.16 322.398 52.256 322.798 52.256ZM334.306 46.712C334.754 46.712 335.146 46.814 335.482 47.018C335.822 47.218 336.082 47.5 336.262 47.864C336.446 48.228 336.538 48.648 336.538 49.124V53H335.578V49.166C335.578 48.646 335.454 48.244 335.206 47.96C334.962 47.672 334.614 47.528 334.162 47.528C333.818 47.528 333.52 47.61 333.268 47.774C333.016 47.934 332.822 48.164 332.686 48.464C332.55 48.764 332.482 49.114 332.482 49.514V53H331.522V49.166C331.522 48.65 331.394 48.248 331.138 47.96C330.882 47.672 330.526 47.528 330.07 47.528C329.726 47.528 329.43 47.61 329.182 47.774C328.938 47.934 328.75 48.164 328.618 48.464C328.49 48.764 328.426 49.114 328.426 49.514V53H327.466V46.856H328.39V47.762C328.582 47.426 328.834 47.168 329.146 46.988C329.462 46.804 329.828 46.712 330.244 46.712C330.692 46.712 331.09 46.82 331.438 47.036C331.786 47.252 332.05 47.55 332.23 47.93C332.438 47.546 332.72 47.248 333.076 47.036C333.436 46.82 333.846 46.712 334.306 46.712ZM345.298 46.712C345.746 46.712 346.138 46.814 346.474 47.018C346.814 47.218 347.074 47.5 347.254 47.864C347.438 48.228 347.53 48.648 347.53 49.124V53H346.57V49.166C346.57 48.646 346.446 48.244 346.198 47.96C345.954 47.672 345.606 47.528 345.154 47.528C344.81 47.528 344.512 47.61 344.26 47.774C344.008 47.934 343.814 48.164 343.678 48.464C343.542 48.764 343.474 49.114 343.474 49.514V53H342.514V49.166C342.514 48.65 342.386 48.248 342.13 47.96C341.874 47.672 341.518 47.528 341.062 47.528C340.718 47.528 340.422 47.61 340.174 47.774C339.93 47.934 339.742 48.164 339.61 48.464C339.482 48.764 339.418 49.114 339.418 49.514V53H338.458V46.856H339.382V47.762C339.574 47.426 339.826 47.168 340.138 46.988C340.454 46.804 340.82 46.712 341.236 46.712C341.684 46.712 342.082 46.82 342.43 47.036C342.778 47.252 343.042 47.55 343.222 47.93C343.43 47.546 343.712 47.248 344.068 47.036C344.428 46.82 344.838 46.712 345.298 46.712ZM352.036 53.144C351.452 53.144 350.926 53.006 350.458 52.73C349.99 52.45 349.622 52.066 349.354 51.578C349.086 51.09 348.952 50.54 348.952 49.928C348.952 49.316 349.086 48.766 349.354 48.278C349.622 47.79 349.992 47.408 350.464 47.132C350.936 46.852 351.464 46.712 352.048 46.712C352.632 46.712 353.16 46.852 353.632 47.132C354.104 47.408 354.474 47.79 354.742 48.278C355.01 48.766 355.144 49.316 355.144 49.928C355.144 50.54 355.008 51.09 354.736 51.578C354.468 52.066 354.098 52.45 353.626 52.73C353.154 53.006 352.624 53.144 352.036 53.144ZM352.048 52.256C352.448 52.256 352.806 52.16 353.122 51.968C353.438 51.772 353.686 51.498 353.866 51.146C354.046 50.794 354.136 50.388 354.136 49.928C354.136 49.468 354.046 49.062 353.866 48.71C353.686 48.354 353.438 48.08 353.122 47.888C352.806 47.692 352.448 47.594 352.048 47.594C351.648 47.594 351.29 47.692 350.974 47.888C350.658 48.08 350.41 48.354 350.23 48.71C350.05 49.062 349.96 49.468 349.96 49.928C349.96 50.388 350.05 50.794 350.23 51.146C350.41 51.498 350.658 51.772 350.974 51.968C351.29 52.16 351.648 52.256 352.048 52.256ZM359.608 46.712C360.068 46.712 360.47 46.812 360.814 47.012C361.158 47.208 361.422 47.488 361.606 47.852C361.794 48.216 361.888 48.64 361.888 49.124V53H360.928V49.196C360.928 48.672 360.792 48.264 360.52 47.972C360.252 47.676 359.878 47.528 359.398 47.528C359.054 47.528 358.752 47.602 358.492 47.75C358.232 47.894 358.03 48.102 357.886 48.374C357.746 48.646 357.676 48.966 357.676 49.334V53H356.716V46.856H357.64V47.798C357.836 47.438 358.1 47.168 358.432 46.988C358.764 46.804 359.156 46.712 359.608 46.712ZM365.035 53H364.045V44.6H365.317L368.299 51.47L368.461 51.914L368.617 51.47L371.521 44.6H372.829V53H371.833V46.028L368.875 53H368.005L365.035 46.064V53ZM377.465 46.712C377.929 46.712 378.335 46.798 378.683 46.97C379.035 47.138 379.307 47.384 379.499 47.708C379.691 48.032 379.787 48.422 379.787 48.878V53H378.851V52.088C378.663 52.432 378.393 52.694 378.041 52.874C377.693 53.054 377.275 53.144 376.787 53.144C376.383 53.144 376.023 53.07 375.707 52.922C375.395 52.77 375.151 52.56 374.975 52.292C374.803 52.024 374.717 51.718 374.717 51.374C374.717 51.054 374.797 50.76 374.957 50.492C375.121 50.22 375.347 49.998 375.635 49.826C375.923 49.654 376.249 49.55 376.613 49.514L378.407 49.334C378.539 49.322 378.643 49.266 378.719 49.166C378.799 49.066 378.839 48.922 378.839 48.734C378.839 48.49 378.779 48.276 378.659 48.092C378.543 47.908 378.379 47.766 378.167 47.666C377.959 47.566 377.717 47.516 377.441 47.516C377.169 47.516 376.921 47.562 376.697 47.654C376.473 47.746 376.291 47.872 376.151 48.032C376.011 48.192 375.929 48.368 375.905 48.56H374.969C375.005 48.22 375.137 47.91 375.365 47.63C375.593 47.346 375.891 47.122 376.259 46.958C376.627 46.794 377.029 46.712 377.465 46.712ZM376.967 52.394C377.331 52.394 377.655 52.324 377.939 52.184C378.223 52.04 378.443 51.84 378.599 51.584C378.759 51.324 378.839 51.03 378.839 50.702V50.006L376.745 50.222C376.425 50.254 376.167 50.372 375.971 50.576C375.775 50.78 375.677 51.028 375.677 51.32C375.677 51.528 375.731 51.714 375.839 51.878C375.947 52.038 376.099 52.164 376.295 52.256C376.491 52.348 376.715 52.394 376.967 52.394ZM382.672 53H381.712V46.856H382.672V53ZM381.646 45.74V44.6H382.738V45.74H381.646ZM387.627 46.712C388.087 46.712 388.489 46.812 388.833 47.012C389.177 47.208 389.441 47.488 389.625 47.852C389.813 48.216 389.907 48.64 389.907 49.124V53H388.947V49.196C388.947 48.672 388.811 48.264 388.539 47.972C388.271 47.676 387.897 47.528 387.417 47.528C387.073 47.528 386.771 47.602 386.511 47.75C386.251 47.894 386.049 48.102 385.905 48.374C385.765 48.646 385.695 48.966 385.695 49.334V53H384.735V46.856H385.659V47.798C385.855 47.438 386.119 47.168 386.451 46.988C386.783 46.804 387.175 46.712 387.627 46.712Z" fill="white"/>
<rect x="514" y="165" width="110" height="36" rx="12" fill="url(#paint0_radial_1599_381)"/>
<path d="M544.476 188.92V188.008H545.364C545.528 188.008 545.658 187.958 545.754 187.858C545.854 187.758 545.904 187.626 545.904 187.462V180.856H546.864V187.54C546.864 187.816 546.804 188.058 546.684 188.266C546.568 188.474 546.4 188.634 546.18 188.746C545.964 188.862 545.712 188.92 545.424 188.92H544.476ZM545.838 179.74V178.6H546.93V179.74H545.838ZM551.496 187H550.476L548.082 180.856H549.126L551.022 185.878L552.882 180.856H553.89L551.496 187ZM562.024 180.712C562.472 180.712 562.864 180.814 563.2 181.018C563.54 181.218 563.8 181.5 563.98 181.864C564.164 182.228 564.256 182.648 564.256 183.124V187H563.296V183.166C563.296 182.646 563.172 182.244 562.924 181.96C562.68 181.672 562.332 181.528 561.88 181.528C561.536 181.528 561.238 181.61 560.986 181.774C560.734 181.934 560.54 182.164 560.404 182.464C560.268 182.764 560.2 183.114 560.2 183.514V187H559.24V183.166C559.24 182.65 559.112 182.248 558.856 181.96C558.6 181.672 558.244 181.528 557.788 181.528C557.444 181.528 557.148 181.61 556.9 181.774C556.656 181.934 556.468 182.164 556.336 182.464C556.208 182.764 556.144 183.114 556.144 183.514V187H555.184V180.856H556.108V181.762C556.3 181.426 556.552 181.168 556.864 180.988C557.18 180.804 557.546 180.712 557.962 180.712C558.41 180.712 558.808 180.82 559.156 181.036C559.504 181.252 559.768 181.55 559.948 181.93C560.156 181.546 560.438 181.248 560.794 181.036C561.154 180.82 561.564 180.712 562.024 180.712ZM567.407 187H566.417V178.6H567.689L570.671 185.47L570.833 185.914L570.989 185.47L573.893 178.6H575.201V187H574.205V180.028L571.247 187H570.377L567.407 180.064V187ZM579.837 180.712C580.301 180.712 580.707 180.798 581.055 180.97C581.407 181.138 581.679 181.384 581.871 181.708C582.063 182.032 582.159 182.422 582.159 182.878V187H581.223V186.088C581.035 186.432 580.765 186.694 580.413 186.874C580.065 187.054 579.647 187.144 579.159 187.144C578.755 187.144 578.395 187.07 578.079 186.922C577.767 186.77 577.523 186.56 577.347 186.292C577.175 186.024 577.089 185.718 577.089 185.374C577.089 185.054 577.169 184.76 577.329 184.492C577.493 184.22 577.719 183.998 578.007 183.826C578.295 183.654 578.621 183.55 578.985 183.514L580.779 183.334C580.911 183.322 581.015 183.266 581.091 183.166C581.171 183.066 581.211 182.922 581.211 182.734C581.211 182.49 581.151 182.276 581.031 182.092C580.915 181.908 580.751 181.766 580.539 181.666C580.331 181.566 580.089 181.516 579.813 181.516C579.541 181.516 579.293 181.562 579.069 181.654C578.845 181.746 578.663 181.872 578.523 182.032C578.383 182.192 578.301 182.368 578.277 182.56H577.341C577.377 182.22 577.509 181.91 577.737 181.63C577.965 181.346 578.263 181.122 578.631 180.958C578.999 180.794 579.401 180.712 579.837 180.712ZM579.339 186.394C579.703 186.394 580.027 186.324 580.311 186.184C580.595 186.04 580.815 185.84 580.971 185.584C581.131 185.324 581.211 185.03 581.211 184.702V184.006L579.117 184.222C578.797 184.254 578.539 184.372 578.343 184.576C578.147 184.78 578.049 185.028 578.049 185.32C578.049 185.528 578.103 185.714 578.211 185.878C578.319 186.038 578.471 186.164 578.667 186.256C578.863 186.348 579.087 186.394 579.339 186.394ZM585.043 187H584.083V180.856H585.043V187ZM584.017 179.74V178.6H585.109V179.74H584.017ZM589.998 180.712C590.458 180.712 590.86 180.812 591.204 181.012C591.548 181.208 591.812 181.488 591.996 181.852C592.184 182.216 592.278 182.64 592.278 183.124V187H591.318V183.196C591.318 182.672 591.182 182.264 590.91 181.972C590.642 181.676 590.268 181.528 589.788 181.528C589.444 181.528 589.142 181.602 588.882 181.75C588.622 181.894 588.42 182.102 588.276 182.374C588.136 182.646 588.066 182.966 588.066 183.334V187H587.106V180.856H588.03V181.798C588.226 181.438 588.49 181.168 588.822 180.988C589.154 180.804 589.546 180.712 589.998 180.712Z" fill="white"/>
<rect x="77" y="165" width="110" height="36" rx="12" fill="url(#paint1_radial_1599_381)"/>
<path d="M113.142 188.92V188.008H114.03C114.194 188.008 114.324 187.958 114.42 187.858C114.52 187.758 114.57 187.626 114.57 187.462V180.856H115.53V187.54C115.53 187.816 115.47 188.058 115.35 188.266C115.234 188.474 115.066 188.634 114.846 188.746C114.63 188.862 114.378 188.92 114.09 188.92H113.142ZM114.504 179.74V178.6H115.596V179.74H114.504ZM119.556 187.144C119.056 187.144 118.614 187.066 118.23 186.91C117.85 186.75 117.554 186.53 117.342 186.25C117.134 185.97 117.028 185.652 117.024 185.296H117.984C117.992 185.504 118.062 185.688 118.194 185.848C118.326 186.008 118.506 186.134 118.734 186.226C118.966 186.314 119.23 186.358 119.526 186.358C119.982 186.358 120.336 186.262 120.588 186.07C120.84 185.878 120.966 185.616 120.966 185.284C120.966 185.028 120.888 184.82 120.732 184.66C120.58 184.496 120.354 184.39 120.054 184.342L118.938 184.168C118.402 184.084 117.984 183.89 117.684 183.586C117.384 183.278 117.234 182.896 117.234 182.44C117.234 182.104 117.328 181.806 117.516 181.546C117.708 181.282 117.972 181.078 118.308 180.934C118.648 180.786 119.032 180.712 119.46 180.712C119.9 180.712 120.294 180.786 120.642 180.934C120.994 181.082 121.27 181.288 121.47 181.552C121.674 181.812 121.78 182.108 121.788 182.44H120.828C120.824 182.264 120.76 182.104 120.636 181.96C120.516 181.816 120.352 181.704 120.144 181.624C119.936 181.54 119.704 181.498 119.448 181.498C119.2 181.498 118.976 181.538 118.776 181.618C118.58 181.694 118.426 181.802 118.314 181.942C118.206 182.078 118.152 182.236 118.152 182.416C118.152 182.656 118.224 182.85 118.368 182.998C118.512 183.142 118.724 183.236 119.004 183.28L120.156 183.466C120.716 183.554 121.144 183.754 121.44 184.066C121.74 184.378 121.89 184.776 121.89 185.26C121.89 185.636 121.794 185.966 121.602 186.25C121.41 186.534 121.138 186.754 120.786 186.91C120.434 187.066 120.024 187.144 119.556 187.144ZM124.741 187H123.751V178.6H125.023L128.005 185.47L128.167 185.914L128.323 185.47L131.227 178.6H132.535V187H131.539V180.028L128.581 187H127.711L124.741 180.064V187ZM137.171 180.712C137.635 180.712 138.041 180.798 138.389 180.97C138.741 181.138 139.013 181.384 139.205 181.708C139.397 182.032 139.493 182.422 139.493 182.878V187H138.557V186.088C138.369 186.432 138.099 186.694 137.747 186.874C137.399 187.054 136.981 187.144 136.493 187.144C136.089 187.144 135.729 187.07 135.413 186.922C135.101 186.77 134.857 186.56 134.681 186.292C134.509 186.024 134.423 185.718 134.423 185.374C134.423 185.054 134.503 184.76 134.663 184.492C134.827 184.22 135.053 183.998 135.341 183.826C135.629 183.654 135.955 183.55 136.319 183.514L138.113 183.334C138.245 183.322 138.349 183.266 138.425 183.166C138.505 183.066 138.545 182.922 138.545 182.734C138.545 182.49 138.485 182.276 138.365 182.092C138.249 181.908 138.085 181.766 137.873 181.666C137.665 181.566 137.423 181.516 137.147 181.516C136.875 181.516 136.627 181.562 136.403 181.654C136.179 181.746 135.997 181.872 135.857 182.032C135.717 182.192 135.635 182.368 135.611 182.56H134.675C134.711 182.22 134.843 181.91 135.071 181.63C135.299 181.346 135.597 181.122 135.965 180.958C136.333 180.794 136.735 180.712 137.171 180.712ZM136.673 186.394C137.037 186.394 137.361 186.324 137.645 186.184C137.929 186.04 138.149 185.84 138.305 185.584C138.465 185.324 138.545 185.03 138.545 184.702V184.006L136.451 184.222C136.131 184.254 135.873 184.372 135.677 184.576C135.481 184.78 135.383 185.028 135.383 185.32C135.383 185.528 135.437 185.714 135.545 185.878C135.653 186.038 135.805 186.164 136.001 186.256C136.197 186.348 136.421 186.394 136.673 186.394ZM142.377 187H141.417V180.856H142.377V187ZM141.351 179.74V178.6H142.443V179.74H141.351ZM147.332 180.712C147.792 180.712 148.194 180.812 148.538 181.012C148.882 181.208 149.146 181.488 149.33 181.852C149.518 182.216 149.612 182.64 149.612 183.124V187H148.652V183.196C148.652 182.672 148.516 182.264 148.244 181.972C147.976 181.676 147.602 181.528 147.122 181.528C146.778 181.528 146.476 181.602 146.216 181.75C145.956 181.894 145.754 182.102 145.61 182.374C145.47 182.646 145.4 182.966 145.4 183.334V187H144.44V180.856H145.364V181.798C145.56 181.438 145.824 181.168 146.156 180.988C146.488 180.804 146.88 180.712 147.332 180.712Z" fill="white"/>
<path d="M132 134.963L132.35 134.963L132 134.963ZM347 83L344.979 86.5L349.021 86.5L347 83ZM132.35 165L132.35 134.963L131.65 134.963L131.65 165L132.35 165ZM146 121.313L333 121.313L333 120.613L146 120.613L146 121.313ZM347.35 106.963L347.35 86.15L346.65 86.15L346.65 106.963L347.35 106.963ZM333 121.313C340.925 121.313 347.35 114.888 347.35 106.963L346.65 106.963C346.65 114.502 340.539 120.613 333 120.613L333 121.313ZM132.35 134.963C132.35 127.424 138.461 121.313 146 121.313L146 120.613C138.075 120.613 131.65 127.038 131.65 134.963L132.35 134.963Z" fill="black"/>
<path d="M570 134.963L570.35 134.963L570 134.963ZM357 83L359.021 86.5L354.979 86.5L357 83ZM569.65 165L569.65 134.963L570.35 134.963L570.35 165L569.65 165ZM556 121.313L371 121.313L371 120.613L556 120.613L556 121.313ZM356.65 106.963L356.65 86.15L357.35 86.15L357.35 106.963L356.65 106.963ZM371 121.313C363.075 121.313 356.65 114.888 356.65 106.963L357.35 106.963C357.35 114.502 363.461 120.613 371 120.613L371 121.313ZM569.65 134.963C569.65 127.424 563.539 121.313 556 121.313L556 120.613C563.925 120.613 570.35 127.038 570.35 134.963L569.65 134.963Z" fill="black"/>
<defs>
<radialGradient id="paint0_radial_1599_381" cx="0" cy="0" r="1" gradientUnits="userSpaceOnUse" gradientTransform="translate(513.692 201.543) scale(107.229 133.24)">
<stop stop-color="#EB4857"/>
<stop offset="0.5" stop-color="#C611E0"/>
<stop offset="1" stop-color="#7F52FF"/>
</radialGradient>
<radialGradient id="paint1_radial_1599_381" cx="0" cy="0" r="1" gradientUnits="userSpaceOnUse" gradientTransform="translate(76.6921 201.543) scale(107.229 133.24)">
<stop stop-color="#EB4857"/>
<stop offset="0.5" stop-color="#C611E0"/>
<stop offset="1" stop-color="#7F52FF"/>
</radialGradient>
</defs>
</svg>
