<svg width="716" height="288" viewBox="0 0 716 288" fill="none" xmlns="http://www.w3.org/2000/svg">
<rect width="716" height="288" fill="white"/>
<rect x="583" y="216" width="98" height="48" rx="2" fill="#4DBB5F" fill-opacity="0.2"/>
<path d="M600.4 233.8H601.68V245H600.4V233.8ZM604.502 236.808H605.782V245H604.502V236.808ZM605.894 233.8V235.32H604.39V233.8H605.894ZM608.604 236.808H609.836V238.136C610.114 237.645 610.482 237.269 610.94 237.008C611.404 236.747 611.94 236.616 612.548 236.616C613.135 236.616 613.655 236.741 614.108 236.992C614.562 237.243 614.916 237.613 615.172 238.104C615.434 238.589 615.564 239.173 615.564 239.856V245H614.284V239.984C614.284 239.275 614.1 238.723 613.732 238.328C613.364 237.933 612.858 237.736 612.212 237.736C611.754 237.736 611.348 237.837 610.996 238.04C610.644 238.243 610.37 238.528 610.172 238.896C609.98 239.259 609.884 239.675 609.884 240.144V245H608.604V236.808ZM624.864 245H623.632V243.672C623.355 244.163 622.984 244.539 622.52 244.8C622.061 245.061 621.528 245.192 620.92 245.192C620.333 245.192 619.813 245.067 619.36 244.816C618.907 244.565 618.549 244.197 618.288 243.712C618.032 243.221 617.904 242.635 617.904 241.952V236.808H619.184V241.824C619.184 242.533 619.368 243.085 619.736 243.48C620.104 243.875 620.611 244.072 621.256 244.072C621.715 244.072 622.12 243.971 622.472 243.768C622.824 243.565 623.096 243.283 623.288 242.92C623.485 242.552 623.584 242.133 623.584 241.664V236.808H624.864V245ZM630.3 241.808L628.116 245H626.66L629.628 240.776L626.804 236.808H628.292L630.364 239.784L632.396 236.808H633.852L631.044 240.816L634.004 245H632.516L630.3 241.808ZM638.809 239.312L635.081 233.8H636.633L639.265 237.816L639.609 238.304L640.161 237.48L642.601 233.8H644.121L640.361 239.28L644.281 245H642.729L639.905 240.808L639.545 240.288L638.945 241.192L636.441 245H634.921L638.809 239.312ZM649.864 245.192C649.213 245.192 648.632 245.056 648.12 244.784C647.613 244.512 647.189 244.12 646.848 243.608C646.197 242.648 645.872 241.317 645.872 239.616V239.264C645.872 238.16 646.04 237.179 646.376 236.32C646.712 235.461 647.181 234.795 647.784 234.32C648.392 233.845 649.085 233.608 649.864 233.608C650.706 233.608 651.44 233.8 652.064 234.184C652.688 234.563 653.13 235.16 653.392 235.976H652C651.834 235.603 651.573 235.309 651.216 235.096C650.858 234.883 650.434 234.776 649.944 234.776C649.394 234.776 648.906 234.96 648.48 235.328C648.058 235.696 647.73 236.211 647.496 236.872C647.266 237.533 647.152 238.291 647.152 239.144V239.224C647.301 238.909 647.517 238.627 647.8 238.376C648.088 238.125 648.421 237.931 648.8 237.792C649.184 237.648 649.586 237.576 650.008 237.576C650.749 237.576 651.4 237.736 651.96 238.056C652.52 238.376 652.952 238.821 653.256 239.392C653.56 239.957 653.712 240.597 653.712 241.312C653.712 242.08 653.554 242.757 653.24 243.344C652.925 243.931 652.477 244.387 651.896 244.712C651.32 245.032 650.642 245.192 649.864 245.192ZM647.384 241.344C647.384 241.845 647.493 242.301 647.712 242.712C647.93 243.117 648.229 243.437 648.608 243.672C648.986 243.907 649.41 244.024 649.88 244.024C650.354 244.024 650.784 243.907 651.168 243.672C651.552 243.437 651.853 243.117 652.072 242.712C652.29 242.301 652.4 241.845 652.4 241.344C652.4 240.843 652.29 240.389 652.072 239.984C651.853 239.573 651.552 239.251 651.168 239.016C650.784 238.781 650.354 238.664 649.88 238.664C649.41 238.664 648.986 238.781 648.608 239.016C648.229 239.251 647.93 239.573 647.712 239.984C647.493 240.389 647.384 240.843 647.384 241.344ZM661.097 242.24H655.297V240.976L661.089 233.8H662.409V241.024H664.217V242.24H662.409V245H661.097V242.24ZM661.097 241.024V235.504L656.657 241.024H661.097Z" fill="#19191C"/>
<rect x="198" y="216" width="85" height="48" rx="2" fill="#4DBB5F" fill-opacity="0.2"/>
<path d="M215.4 236.808H216.68V245H215.4V236.808ZM216.792 233.8V235.32H215.288V233.8H216.792ZM222.982 245.192C222.203 245.192 221.494 245.008 220.854 244.64C220.219 244.267 219.718 243.755 219.35 243.104C218.987 242.448 218.806 241.715 218.806 240.904C218.806 240.093 218.987 239.363 219.35 238.712C219.718 238.056 220.222 237.544 220.862 237.176C221.502 236.803 222.211 236.616 222.99 236.616C223.769 236.616 224.475 236.803 225.11 237.176C225.745 237.544 226.243 238.053 226.606 238.704C226.974 239.355 227.158 240.088 227.158 240.904C227.158 241.72 226.974 242.453 226.606 243.104C226.243 243.755 225.745 244.267 225.11 244.64C224.475 245.008 223.766 245.192 222.982 245.192ZM220.15 240.904C220.15 241.517 220.273 242.061 220.518 242.536C220.769 243.005 221.11 243.371 221.542 243.632C221.979 243.893 222.465 244.024 222.998 244.024C223.531 244.024 224.011 243.893 224.438 243.632C224.865 243.371 225.201 243.005 225.446 242.536C225.691 242.061 225.814 241.517 225.814 240.904C225.814 240.291 225.691 239.747 225.446 239.272C225.201 238.797 224.862 238.429 224.43 238.168C224.003 237.907 223.523 237.776 222.99 237.776C222.457 237.776 221.974 237.907 221.542 238.168C221.11 238.429 220.769 238.797 220.518 239.272C220.273 239.747 220.15 240.291 220.15 240.904ZM231.996 245.192C231.377 245.192 230.817 245.093 230.316 244.896C229.82 244.699 229.422 244.424 229.124 244.072C228.83 243.715 228.673 243.312 228.652 242.864H229.956C229.977 243.109 230.078 243.331 230.26 243.528C230.441 243.72 230.681 243.872 230.98 243.984C231.278 244.096 231.612 244.152 231.98 244.152C232.353 244.152 232.681 244.091 232.964 243.968C233.252 243.845 233.473 243.675 233.628 243.456C233.788 243.237 233.868 242.989 233.868 242.712C233.868 242.413 233.782 242.163 233.612 241.96C233.446 241.752 233.214 241.621 232.916 241.568L230.94 241.208C230.31 241.091 229.82 240.837 229.468 240.448C229.116 240.053 228.94 239.555 228.94 238.952C228.94 238.52 229.062 238.128 229.308 237.776C229.558 237.419 229.908 237.136 230.356 236.928C230.804 236.72 231.316 236.616 231.892 236.616C232.462 236.616 232.977 236.709 233.436 236.896C233.894 237.083 234.26 237.341 234.532 237.672C234.804 238.003 234.95 238.371 234.972 238.776H233.668C233.652 238.563 233.564 238.371 233.404 238.2C233.249 238.029 233.041 237.896 232.78 237.8C232.518 237.704 232.225 237.656 231.9 237.656C231.569 237.656 231.276 237.712 231.02 237.824C230.764 237.936 230.564 238.091 230.42 238.288C230.281 238.48 230.212 238.699 230.212 238.944C230.212 239.221 230.289 239.451 230.444 239.632C230.598 239.813 230.825 239.931 231.124 239.984L233.148 240.344C233.564 240.419 233.921 240.565 234.22 240.784C234.524 241.003 234.753 241.275 234.908 241.6C235.068 241.925 235.148 242.28 235.148 242.664C235.148 243.144 235.009 243.576 234.732 243.96C234.46 244.344 234.084 244.645 233.604 244.864C233.124 245.083 232.588 245.192 231.996 245.192ZM240.339 239.312L236.611 233.8H238.163L240.795 237.816L241.139 238.304L241.691 237.48L244.131 233.8H245.651L241.891 239.28L245.811 245H244.259L241.435 240.808L241.075 240.288L240.475 241.192L237.971 245H236.451L240.339 239.312ZM251.394 245.192C250.743 245.192 250.162 245.056 249.65 244.784C249.143 244.512 248.719 244.12 248.378 243.608C247.727 242.648 247.402 241.317 247.402 239.616V239.264C247.402 238.16 247.57 237.179 247.906 236.32C248.242 235.461 248.711 234.795 249.314 234.32C249.922 233.845 250.615 233.608 251.394 233.608C252.236 233.608 252.97 233.8 253.594 234.184C254.218 234.563 254.66 235.16 254.922 235.976H253.53C253.364 235.603 253.103 235.309 252.746 235.096C252.388 234.883 251.964 234.776 251.474 234.776C250.924 234.776 250.436 234.96 250.01 235.328C249.588 235.696 249.26 236.211 249.026 236.872C248.796 237.533 248.682 238.291 248.682 239.144V239.224C248.831 238.909 249.047 238.627 249.33 238.376C249.618 238.125 249.951 237.931 250.33 237.792C250.714 237.648 251.116 237.576 251.538 237.576C252.279 237.576 252.93 237.736 253.49 238.056C254.05 238.376 254.482 238.821 254.786 239.392C255.09 239.957 255.242 240.597 255.242 241.312C255.242 242.08 255.084 242.757 254.77 243.344C254.455 243.931 254.007 244.387 253.426 244.712C252.85 245.032 252.172 245.192 251.394 245.192ZM248.914 241.344C248.914 241.845 249.023 242.301 249.242 242.712C249.46 243.117 249.759 243.437 250.138 243.672C250.516 243.907 250.94 244.024 251.41 244.024C251.884 244.024 252.314 243.907 252.698 243.672C253.082 243.437 253.383 243.117 253.602 242.712C253.82 242.301 253.93 241.845 253.93 241.344C253.93 240.843 253.82 240.389 253.602 239.984C253.383 239.573 253.082 239.251 252.698 239.016C252.314 238.781 251.884 238.664 251.41 238.664C250.94 238.664 250.516 238.781 250.138 239.016C249.759 239.251 249.46 239.573 249.242 239.984C249.023 240.389 248.914 240.843 248.914 241.344ZM262.627 242.24H256.827V240.976L262.619 233.8H263.939V241.024H265.747V242.24H263.939V245H262.627V242.24ZM262.627 241.024V235.504L258.187 241.024H262.627Z" fill="#19191C"/>
<rect x="32" y="216" width="105" height="48" rx="2" fill="#4DBB5F" fill-opacity="0.2"/>
<path d="M49.4 236.808H50.68V245H49.4V236.808ZM50.792 233.8V235.32H49.288V233.8H50.792ZM56.9821 245.192C56.2035 245.192 55.4941 245.008 54.8541 244.64C54.2195 244.267 53.7181 243.755 53.3501 243.104C52.9875 242.448 52.8061 241.715 52.8061 240.904C52.8061 240.093 52.9875 239.363 53.3501 238.712C53.7181 238.056 54.2221 237.544 54.8621 237.176C55.5021 236.803 56.2115 236.616 56.9901 236.616C57.7688 236.616 58.4755 236.803 59.1101 237.176C59.7448 237.544 60.2435 238.053 60.6061 238.704C60.9741 239.355 61.1581 240.088 61.1581 240.904C61.1581 241.72 60.9741 242.453 60.6061 243.104C60.2435 243.755 59.7448 244.267 59.1101 244.64C58.4755 245.008 57.7661 245.192 56.9821 245.192ZM54.1501 240.904C54.1501 241.517 54.2728 242.061 54.5181 242.536C54.7688 243.005 55.1101 243.371 55.5421 243.632C55.9795 243.893 56.4648 244.024 56.9981 244.024C57.5315 244.024 58.0115 243.893 58.4381 243.632C58.8648 243.371 59.2008 243.005 59.4461 242.536C59.6915 242.061 59.8141 241.517 59.8141 240.904C59.8141 240.291 59.6915 239.747 59.4461 239.272C59.2008 238.797 58.8621 238.429 58.4301 238.168C58.0035 237.907 57.5235 237.776 56.9901 237.776C56.4568 237.776 55.9741 237.907 55.5421 238.168C55.1101 238.429 54.7688 238.797 54.5181 239.272C54.2728 239.747 54.1501 240.291 54.1501 240.904ZM65.9958 245.192C65.3771 245.192 64.8171 245.093 64.3158 244.896C63.8198 244.699 63.4224 244.424 63.1238 244.072C62.8304 243.715 62.6731 243.312 62.6518 242.864H63.9558C63.9771 243.109 64.0784 243.331 64.2598 243.528C64.4411 243.72 64.6811 243.872 64.9798 243.984C65.2784 244.096 65.6118 244.152 65.9798 244.152C66.3531 244.152 66.6811 244.091 66.9638 243.968C67.2518 243.845 67.4731 243.675 67.6278 243.456C67.7878 243.237 67.8678 242.989 67.8678 242.712C67.8678 242.413 67.7824 242.163 67.6118 241.96C67.4464 241.752 67.2144 241.621 66.9158 241.568L64.9398 241.208C64.3104 241.091 63.8198 240.837 63.4678 240.448C63.1158 240.053 62.9398 239.555 62.9398 238.952C62.9398 238.52 63.0624 238.128 63.3078 237.776C63.5584 237.419 63.9078 237.136 64.3558 236.928C64.8038 236.72 65.3158 236.616 65.8918 236.616C66.4624 236.616 66.9771 236.709 67.4358 236.896C67.8944 237.083 68.2598 237.341 68.5318 237.672C68.8038 238.003 68.9504 238.371 68.9718 238.776H67.6678C67.6518 238.563 67.5638 238.371 67.4038 238.2C67.2491 238.029 67.0411 237.896 66.7798 237.8C66.5184 237.704 66.2251 237.656 65.8998 237.656C65.5691 237.656 65.2758 237.712 65.0198 237.824C64.7638 237.936 64.5638 238.091 64.4198 238.288C64.2811 238.48 64.2118 238.699 64.2118 238.944C64.2118 239.221 64.2891 239.451 64.4438 239.632C64.5984 239.813 64.8251 239.931 65.1238 239.984L67.1478 240.344C67.5638 240.419 67.9211 240.565 68.2198 240.784C68.5238 241.003 68.7531 241.275 68.9078 241.6C69.0678 241.925 69.1478 242.28 69.1478 242.664C69.1478 243.144 69.0091 243.576 68.7318 243.96C68.4598 244.344 68.0838 244.645 67.6038 244.864C67.1238 245.083 66.5878 245.192 65.9958 245.192ZM74.4274 233.8H75.8594L80.1634 245H78.7554L77.6754 242.024H72.7234L71.7154 245H70.2754L74.4274 233.8ZM77.2434 240.872L75.3314 235.664L75.1394 234.984L74.9474 235.664L73.1314 240.872H77.2434ZM81.9335 236.808H83.2135V238.168C83.4748 237.704 83.8135 237.349 84.2295 237.104C84.6455 236.853 85.1228 236.728 85.6615 236.728H85.9495V238.064H85.6135C85.1282 238.064 84.7042 238.157 84.3415 238.344C83.9788 238.531 83.6988 238.797 83.5015 239.144C83.3095 239.485 83.2135 239.888 83.2135 240.352V245H81.9335V236.808ZM87.6762 236.808H88.9082V238.192C89.1536 237.685 89.4922 237.296 89.9242 237.024C90.3616 236.752 90.8736 236.616 91.4602 236.616C92.0736 236.616 92.6069 236.763 93.0602 237.056C93.5136 237.349 93.8522 237.763 94.0762 238.296C94.3376 237.763 94.7029 237.349 95.1722 237.056C95.6416 236.763 96.1829 236.616 96.7962 236.616C97.3776 236.616 97.8922 236.749 98.3402 237.016C98.7936 237.277 99.1456 237.651 99.3962 238.136C99.6469 238.621 99.7722 239.187 99.7722 239.832V245H98.4922V239.888C98.4922 239.211 98.3216 238.677 97.9802 238.288C97.6442 237.899 97.1696 237.704 96.5562 237.704C96.1189 237.704 95.7349 237.805 95.4042 238.008C95.0736 238.205 94.8176 238.488 94.6362 238.856C94.4549 239.219 94.3642 239.648 94.3642 240.144V245H93.0842V239.888C93.0842 239.211 92.9136 238.677 92.5722 238.288C92.2362 237.899 91.7616 237.704 91.1482 237.704C90.7056 237.704 90.3189 237.803 89.9882 238C89.6576 238.197 89.4016 238.48 89.2202 238.848C89.0442 239.216 88.9562 239.648 88.9562 240.144V245H87.6762V236.808ZM105.989 245.192C105.338 245.192 104.757 245.056 104.245 244.784C103.738 244.512 103.314 244.12 102.973 243.608C102.322 242.648 101.997 241.317 101.997 239.616V239.264C101.997 238.16 102.165 237.179 102.501 236.32C102.837 235.461 103.306 234.795 103.909 234.32C104.517 233.845 105.21 233.608 105.989 233.608C106.831 233.608 107.565 233.8 108.189 234.184C108.813 234.563 109.255 235.16 109.517 235.976H108.125C107.959 235.603 107.698 235.309 107.341 235.096C106.983 234.883 106.559 234.776 106.069 234.776C105.519 234.776 105.031 234.96 104.605 235.328C104.183 235.696 103.855 236.211 103.621 236.872C103.391 237.533 103.277 238.291 103.277 239.144V239.224C103.426 238.909 103.642 238.627 103.925 238.376C104.213 238.125 104.546 237.931 104.925 237.792C105.309 237.648 105.711 237.576 106.133 237.576C106.874 237.576 107.525 237.736 108.085 238.056C108.645 238.376 109.077 238.821 109.381 239.392C109.685 239.957 109.837 240.597 109.837 241.312C109.837 242.08 109.679 242.757 109.365 243.344C109.05 243.931 108.602 244.387 108.021 244.712C107.445 245.032 106.767 245.192 105.989 245.192ZM103.509 241.344C103.509 241.845 103.618 242.301 103.837 242.712C104.055 243.117 104.354 243.437 104.733 243.672C105.111 243.907 105.535 244.024 106.005 244.024C106.479 244.024 106.909 243.907 107.293 243.672C107.677 243.437 107.978 243.117 108.197 242.712C108.415 242.301 108.525 241.845 108.525 241.344C108.525 240.843 108.415 240.389 108.197 239.984C107.978 239.573 107.677 239.251 107.293 239.016C106.909 238.781 106.479 238.664 106.005 238.664C105.535 238.664 105.111 238.781 104.733 239.016C104.354 239.251 104.055 239.573 103.837 239.984C103.618 240.389 103.509 240.843 103.509 241.344ZM117.222 242.24H111.422V240.976L117.214 233.8H118.534V241.024H120.342V242.24H118.534V245H117.222V242.24ZM117.222 241.024V235.504L112.782 241.024H117.222Z" fill="#19191C"/>
<rect x="450" y="216" width="114" height="48" rx="2" fill="#4DBB5F" fill-opacity="0.2"/>
<path d="M467.4 236.808H468.632V238.192C468.877 237.685 469.216 237.296 469.648 237.024C470.085 236.752 470.597 236.616 471.184 236.616C471.797 236.616 472.331 236.763 472.784 237.056C473.237 237.349 473.576 237.763 473.8 238.296C474.061 237.763 474.427 237.349 474.896 237.056C475.365 236.763 475.907 236.616 476.52 236.616C477.101 236.616 477.616 236.749 478.064 237.016C478.517 237.277 478.869 237.651 479.12 238.136C479.371 238.621 479.496 239.187 479.496 239.832V245H478.216V239.888C478.216 239.211 478.045 238.677 477.704 238.288C477.368 237.899 476.893 237.704 476.28 237.704C475.843 237.704 475.459 237.805 475.128 238.008C474.797 238.205 474.541 238.488 474.36 238.856C474.179 239.219 474.088 239.648 474.088 240.144V245H472.808V239.888C472.808 239.211 472.637 238.677 472.296 238.288C471.96 237.899 471.485 237.704 470.872 237.704C470.429 237.704 470.043 237.803 469.712 238C469.381 238.197 469.125 238.48 468.944 238.848C468.768 239.216 468.68 239.648 468.68 240.144V245H467.4V236.808ZM482.08 236.808H483.36V245H482.08V236.808ZM483.472 233.8V235.32H481.968V233.8H483.472ZM486.182 236.808H487.414V238.136C487.692 237.645 488.06 237.269 488.518 237.008C488.982 236.747 489.518 236.616 490.126 236.616C490.713 236.616 491.233 236.741 491.686 236.992C492.14 237.243 492.494 237.613 492.75 238.104C493.012 238.589 493.142 239.173 493.142 239.856V245H491.862V239.984C491.862 239.275 491.678 238.723 491.31 238.328C490.942 237.933 490.436 237.736 489.79 237.736C489.332 237.736 488.926 237.837 488.574 238.04C488.222 238.243 487.948 238.528 487.75 238.896C487.558 239.259 487.462 239.675 487.462 240.144V245H486.182V236.808ZM499.01 247.752C498.413 247.752 497.861 247.659 497.354 247.472C496.847 247.285 496.426 247.021 496.09 246.68C495.754 246.339 495.538 245.944 495.442 245.496H496.722C496.893 245.864 497.183 246.144 497.594 246.336C498.01 246.533 498.469 246.632 498.97 246.632C499.493 246.632 499.949 246.525 500.338 246.312C500.733 246.104 501.037 245.811 501.25 245.432C501.463 245.053 501.57 244.616 501.57 244.12V243.784L501.594 242.96C501.274 243.413 500.866 243.765 500.37 244.016C499.879 244.267 499.338 244.392 498.746 244.392C498.053 244.392 497.426 244.227 496.866 243.896C496.306 243.56 495.866 243.099 495.546 242.512C495.226 241.92 495.066 241.253 495.066 240.512C495.066 239.771 495.226 239.104 495.546 238.512C495.866 237.92 496.306 237.456 496.866 237.12C497.426 236.784 498.053 236.616 498.746 236.616C499.349 236.616 499.901 236.749 500.402 237.016C500.903 237.277 501.314 237.645 501.634 238.12V236.808H502.874L502.85 244.12C502.85 244.829 502.69 245.459 502.37 246.008C502.05 246.563 501.599 246.992 501.018 247.296C500.437 247.6 499.767 247.752 499.01 247.752ZM496.41 240.512C496.41 241.029 496.519 241.499 496.738 241.92C496.962 242.341 497.271 242.672 497.666 242.912C498.061 243.152 498.503 243.272 498.994 243.272C499.479 243.272 499.917 243.152 500.306 242.912C500.701 242.672 501.013 242.341 501.242 241.92C501.471 241.499 501.586 241.029 501.586 240.512C501.586 239.989 501.471 239.517 501.242 239.096C501.013 238.675 500.701 238.344 500.306 238.104C499.917 237.859 499.479 237.736 498.994 237.736C498.503 237.736 498.061 237.859 497.666 238.104C497.271 238.344 496.962 238.675 496.738 239.096C496.519 239.517 496.41 239.989 496.41 240.512ZM504.668 236.808H506.044L507.972 242.696L508.156 243.392L508.324 242.696L510.348 236.808H511.572L513.636 242.696L513.82 243.392L513.988 242.696L515.868 236.808H517.212L514.404 245H513.14L511.116 238.84L510.964 238.272L510.828 238.824L508.724 245H507.476L504.668 236.808ZM522.028 239.312L518.3 233.8H519.852L522.484 237.816L522.828 238.304L523.38 237.48L525.82 233.8H527.34L523.58 239.28L527.5 245H525.948L523.124 240.808L522.764 240.288L522.164 241.192L519.66 245H518.14L522.028 239.312ZM533.082 245.192C532.432 245.192 531.85 245.056 531.338 244.784C530.832 244.512 530.408 244.12 530.066 243.608C529.416 242.648 529.09 241.317 529.09 239.616V239.264C529.09 238.16 529.258 237.179 529.594 236.32C529.93 235.461 530.4 234.795 531.002 234.32C531.61 233.845 532.304 233.608 533.082 233.608C533.925 233.608 534.658 233.8 535.282 234.184C535.906 234.563 536.349 235.16 536.61 235.976H535.218C535.053 235.603 534.792 235.309 534.434 235.096C534.077 234.883 533.653 234.776 533.162 234.776C532.613 234.776 532.125 234.96 531.698 235.328C531.277 235.696 530.949 236.211 530.714 236.872C530.485 237.533 530.37 238.291 530.37 239.144V239.224C530.52 238.909 530.736 238.627 531.018 238.376C531.306 238.125 531.64 237.931 532.018 237.792C532.402 237.648 532.805 237.576 533.226 237.576C533.968 237.576 534.618 237.736 535.178 238.056C535.738 238.376 536.17 238.821 536.474 239.392C536.778 239.957 536.93 240.597 536.93 241.312C536.93 242.08 536.773 242.757 536.458 243.344C536.144 243.931 535.696 244.387 535.114 244.712C534.538 245.032 533.861 245.192 533.082 245.192ZM530.602 241.344C530.602 241.845 530.712 242.301 530.93 242.712C531.149 243.117 531.448 243.437 531.826 243.672C532.205 243.907 532.629 244.024 533.098 244.024C533.573 244.024 534.002 243.907 534.386 243.672C534.77 243.437 535.072 243.117 535.29 242.712C535.509 242.301 535.618 241.845 535.618 241.344C535.618 240.843 535.509 240.389 535.29 239.984C535.072 239.573 534.77 239.251 534.386 239.016C534.002 238.781 533.573 238.664 533.098 238.664C532.629 238.664 532.205 238.781 531.826 239.016C531.448 239.251 531.149 239.573 530.93 239.984C530.712 240.389 530.602 240.843 530.602 241.344ZM544.316 242.24H538.516V240.976L544.308 233.8H545.628V241.024H547.436V242.24H545.628V245H544.316V242.24ZM544.316 241.024V235.504L539.876 241.024H544.316Z" fill="#19191C"/>
<rect x="318" y="216" width="113" height="48" rx="2" fill="#4DBB5F" fill-opacity="0.2"/>
<path d="M335.4 236.808H336.632V238.192C336.877 237.685 337.216 237.296 337.648 237.024C338.085 236.752 338.597 236.616 339.184 236.616C339.797 236.616 340.331 236.763 340.784 237.056C341.237 237.349 341.576 237.763 341.8 238.296C342.061 237.763 342.427 237.349 342.896 237.056C343.365 236.763 343.907 236.616 344.52 236.616C345.101 236.616 345.616 236.749 346.064 237.016C346.517 237.277 346.869 237.651 347.12 238.136C347.371 238.621 347.496 239.187 347.496 239.832V245H346.216V239.888C346.216 239.211 346.045 238.677 345.704 238.288C345.368 237.899 344.893 237.704 344.28 237.704C343.843 237.704 343.459 237.805 343.128 238.008C342.797 238.205 342.541 238.488 342.36 238.856C342.179 239.219 342.088 239.648 342.088 240.144V245H340.808V239.888C340.808 239.211 340.637 238.677 340.296 238.288C339.96 237.899 339.485 237.704 338.872 237.704C338.429 237.704 338.043 237.803 337.712 238C337.381 238.197 337.125 238.48 336.944 238.848C336.768 239.216 336.68 239.648 336.68 240.144V245H335.4V236.808ZM352.968 236.616C353.587 236.616 354.131 236.731 354.6 236.96C355.07 237.184 355.432 237.515 355.688 237.952C355.95 238.384 356.08 238.899 356.08 239.496V245H354.832V243.664C354.603 244.16 354.267 244.539 353.824 244.8C353.382 245.061 352.856 245.192 352.248 245.192C351.726 245.192 351.254 245.091 350.832 244.888C350.411 244.685 350.08 244.405 349.84 244.048C349.6 243.691 349.48 243.285 349.48 242.832C349.48 242.405 349.59 242.013 349.808 241.656C350.032 241.293 350.339 240.997 350.728 240.768C351.123 240.539 351.566 240.397 352.056 240.344L354.24 240.104C354.422 240.083 354.563 240.008 354.664 239.88C354.766 239.752 354.816 239.565 354.816 239.32C354.816 238.995 354.739 238.709 354.584 238.464C354.43 238.219 354.211 238.029 353.928 237.896C353.651 237.757 353.328 237.688 352.96 237.688C352.592 237.688 352.262 237.752 351.968 237.88C351.675 238.003 351.438 238.171 351.256 238.384C351.08 238.592 350.974 238.819 350.936 239.064H349.656C349.72 238.6 349.902 238.184 350.2 237.816C350.504 237.443 350.896 237.149 351.376 236.936C351.856 236.723 352.387 236.616 352.968 236.616ZM350.808 242.76C350.808 243.037 350.88 243.283 351.024 243.496C351.174 243.709 351.379 243.877 351.64 244C351.902 244.117 352.2 244.176 352.536 244.176C352.995 244.176 353.395 244.083 353.736 243.896C354.083 243.709 354.35 243.448 354.536 243.112C354.723 242.771 354.816 242.379 354.816 241.936V241L352.232 241.288C351.806 241.336 351.462 241.496 351.2 241.768C350.939 242.04 350.808 242.371 350.808 242.76ZM362.067 245.192C361.293 245.192 360.595 245.005 359.971 244.632C359.347 244.259 358.856 243.747 358.499 243.096C358.147 242.44 357.971 241.709 357.971 240.904C357.971 240.099 358.147 239.371 358.499 238.72C358.856 238.064 359.347 237.549 359.971 237.176C360.595 236.803 361.293 236.616 362.067 236.616C363.059 236.616 363.891 236.869 364.563 237.376C365.235 237.877 365.664 238.605 365.851 239.56H364.571C364.4 238.973 364.085 238.531 363.627 238.232C363.173 237.928 362.653 237.776 362.067 237.776C361.539 237.776 361.064 237.909 360.643 238.176C360.227 238.443 359.901 238.813 359.667 239.288C359.432 239.763 359.315 240.301 359.315 240.904C359.315 241.501 359.432 242.037 359.667 242.512C359.901 242.987 360.227 243.36 360.643 243.632C361.064 243.899 361.539 244.032 362.067 244.032C362.653 244.032 363.173 243.883 363.627 243.584C364.085 243.28 364.4 242.835 364.571 242.248H365.851C365.728 242.867 365.488 243.397 365.131 243.84C364.773 244.283 364.331 244.619 363.803 244.848C363.275 245.077 362.696 245.192 362.067 245.192ZM371.436 245.192C370.658 245.192 369.948 245.008 369.308 244.64C368.674 244.267 368.172 243.755 367.804 243.104C367.442 242.448 367.26 241.715 367.26 240.904C367.26 240.093 367.442 239.363 367.804 238.712C368.172 238.056 368.676 237.544 369.316 237.176C369.956 236.803 370.666 236.616 371.444 236.616C372.223 236.616 372.93 236.803 373.564 237.176C374.199 237.544 374.698 238.053 375.06 238.704C375.428 239.355 375.612 240.088 375.612 240.904C375.612 241.72 375.428 242.453 375.06 243.104C374.698 243.755 374.199 244.267 373.564 244.64C372.93 245.008 372.22 245.192 371.436 245.192ZM368.604 240.904C368.604 241.517 368.727 242.061 368.972 242.536C369.223 243.005 369.564 243.371 369.996 243.632C370.434 243.893 370.919 244.024 371.452 244.024C371.986 244.024 372.466 243.893 372.892 243.632C373.319 243.371 373.655 243.005 373.9 242.536C374.146 242.061 374.268 241.517 374.268 240.904C374.268 240.291 374.146 239.747 373.9 239.272C373.655 238.797 373.316 238.429 372.884 238.168C372.458 237.907 371.978 237.776 371.444 237.776C370.911 237.776 370.428 237.907 369.996 238.168C369.564 238.429 369.223 238.797 368.972 239.272C368.727 239.747 368.604 240.291 368.604 240.904ZM380.45 245.192C379.831 245.192 379.271 245.093 378.77 244.896C378.274 244.699 377.877 244.424 377.578 244.072C377.285 243.715 377.127 243.312 377.106 242.864H378.41C378.431 243.109 378.533 243.331 378.714 243.528C378.895 243.72 379.135 243.872 379.434 243.984C379.733 244.096 380.066 244.152 380.434 244.152C380.807 244.152 381.135 244.091 381.418 243.968C381.706 243.845 381.927 243.675 382.082 243.456C382.242 243.237 382.322 242.989 382.322 242.712C382.322 242.413 382.237 242.163 382.066 241.96C381.901 241.752 381.669 241.621 381.37 241.568L379.394 241.208C378.765 241.091 378.274 240.837 377.922 240.448C377.57 240.053 377.394 239.555 377.394 238.952C377.394 238.52 377.517 238.128 377.762 237.776C378.013 237.419 378.362 237.136 378.81 236.928C379.258 236.72 379.77 236.616 380.346 236.616C380.917 236.616 381.431 236.709 381.89 236.896C382.349 237.083 382.714 237.341 382.986 237.672C383.258 238.003 383.405 238.371 383.426 238.776H382.122C382.106 238.563 382.018 238.371 381.858 238.2C381.703 238.029 381.495 237.896 381.234 237.8C380.973 237.704 380.679 237.656 380.354 237.656C380.023 237.656 379.73 237.712 379.474 237.824C379.218 237.936 379.018 238.091 378.874 238.288C378.735 238.48 378.666 238.699 378.666 238.944C378.666 239.221 378.743 239.451 378.898 239.632C379.053 239.813 379.279 239.931 379.578 239.984L381.602 240.344C382.018 240.419 382.375 240.565 382.674 240.784C382.978 241.003 383.207 241.275 383.362 241.6C383.522 241.925 383.602 242.28 383.602 242.664C383.602 243.144 383.463 243.576 383.186 243.96C382.914 244.344 382.538 244.645 382.058 244.864C381.578 245.083 381.042 245.192 380.45 245.192ZM388.794 239.312L385.066 233.8H386.618L389.25 237.816L389.594 238.304L390.146 237.48L392.586 233.8H394.106L390.346 239.28L394.266 245H392.714L389.89 240.808L389.53 240.288L388.93 241.192L386.426 245H384.906L388.794 239.312ZM399.848 245.192C399.197 245.192 398.616 245.056 398.104 244.784C397.597 244.512 397.173 244.12 396.832 243.608C396.181 242.648 395.856 241.317 395.856 239.616V239.264C395.856 238.16 396.024 237.179 396.36 236.32C396.696 235.461 397.165 234.795 397.768 234.32C398.376 233.845 399.069 233.608 399.848 233.608C400.691 233.608 401.424 233.8 402.048 234.184C402.672 234.563 403.115 235.16 403.376 235.976H401.984C401.819 235.603 401.557 235.309 401.2 235.096C400.843 234.883 400.419 234.776 399.928 234.776C399.379 234.776 398.891 234.96 398.464 235.328C398.043 235.696 397.715 236.211 397.48 236.872C397.251 237.533 397.136 238.291 397.136 239.144V239.224C397.285 238.909 397.501 238.627 397.784 238.376C398.072 238.125 398.405 237.931 398.784 237.792C399.168 237.648 399.571 237.576 399.992 237.576C400.733 237.576 401.384 237.736 401.944 238.056C402.504 238.376 402.936 238.821 403.24 239.392C403.544 239.957 403.696 240.597 403.696 241.312C403.696 242.08 403.539 242.757 403.224 243.344C402.909 243.931 402.461 244.387 401.88 244.712C401.304 245.032 400.627 245.192 399.848 245.192ZM397.368 241.344C397.368 241.845 397.477 242.301 397.696 242.712C397.915 243.117 398.213 243.437 398.592 243.672C398.971 243.907 399.395 244.024 399.864 244.024C400.339 244.024 400.768 243.907 401.152 243.672C401.536 243.437 401.837 243.117 402.056 242.712C402.275 242.301 402.384 241.845 402.384 241.344C402.384 240.843 402.275 240.389 402.056 239.984C401.837 239.573 401.536 239.251 401.152 239.016C400.768 238.781 400.339 238.664 399.864 238.664C399.395 238.664 398.971 238.781 398.592 239.016C398.213 239.251 397.915 239.573 397.696 239.984C397.477 240.389 397.368 240.843 397.368 241.344ZM411.082 242.24H405.282V240.976L411.074 233.8H412.394V241.024H414.202V242.24H412.394V245H411.082V242.24ZM411.082 241.024V235.504L406.642 241.024H411.082Z" fill="#19191C"/>
<rect x="458" y="120" width="94" height="48" rx="2" fill="#8473FF" fill-opacity="0.3"/>
<path d="M481.624 147.64C481.315 148.136 480.901 148.52 480.384 148.792C479.872 149.059 479.288 149.192 478.632 149.192C477.869 149.192 477.189 149.013 476.592 148.656C476 148.293 475.536 147.787 475.2 147.136C474.869 146.485 474.704 145.741 474.704 144.904C474.704 144.067 474.869 143.323 475.2 142.672C475.536 142.021 476 141.517 476.592 141.16C477.189 140.797 477.869 140.616 478.632 140.616C479.288 140.616 479.872 140.752 480.384 141.024C480.901 141.291 481.315 141.672 481.624 142.168V137.8H482.904V149H481.624V147.64ZM476.048 144.904C476.048 145.517 476.165 146.061 476.4 146.536C476.635 147.005 476.963 147.373 477.384 147.64C477.805 147.901 478.288 148.032 478.832 148.032C479.333 148.032 479.784 147.923 480.184 147.704C480.589 147.48 480.915 147.168 481.16 146.768C481.411 146.363 481.565 145.893 481.624 145.36V144.448C481.565 143.915 481.411 143.448 481.16 143.048C480.915 142.643 480.589 142.331 480.184 142.112C479.784 141.888 479.333 141.776 478.832 141.776C478.288 141.776 477.805 141.909 477.384 142.176C476.963 142.437 476.635 142.805 476.4 143.28C476.165 143.749 476.048 144.291 476.048 144.904ZM488.94 149.192C488.172 149.192 487.481 149.008 486.868 148.64C486.254 148.272 485.774 147.763 485.428 147.112C485.086 146.456 484.916 145.715 484.916 144.888C484.916 144.083 485.089 143.355 485.436 142.704C485.788 142.053 486.27 141.544 486.884 141.176C487.497 140.803 488.182 140.616 488.94 140.616C489.713 140.616 490.39 140.8 490.972 141.168C491.558 141.536 492.009 142.045 492.324 142.696C492.644 143.347 492.804 144.083 492.804 144.904V145.216H486.22C486.273 145.776 486.425 146.272 486.676 146.704C486.926 147.136 487.254 147.472 487.66 147.712C488.065 147.952 488.518 148.072 489.02 148.072C489.558 148.072 490.033 147.973 490.444 147.776C490.854 147.579 491.153 147.309 491.34 146.968H492.62C492.524 147.309 492.321 147.651 492.012 147.992C491.708 148.333 491.292 148.619 490.764 148.848C490.241 149.077 489.633 149.192 488.94 149.192ZM491.476 144.16C491.369 143.413 491.097 142.824 490.66 142.392C490.228 141.96 489.66 141.744 488.956 141.744C488.481 141.744 488.054 141.843 487.676 142.04C487.297 142.232 486.985 142.512 486.74 142.88C486.494 143.243 486.332 143.669 486.252 144.16H491.476ZM497.636 149.192C497.018 149.192 496.458 149.093 495.956 148.896C495.46 148.699 495.063 148.424 494.764 148.072C494.471 147.715 494.314 147.312 494.292 146.864H495.596C495.618 147.109 495.719 147.331 495.9 147.528C496.082 147.72 496.322 147.872 496.62 147.984C496.919 148.096 497.252 148.152 497.62 148.152C497.994 148.152 498.322 148.091 498.604 147.968C498.892 147.845 499.114 147.675 499.268 147.456C499.428 147.237 499.508 146.989 499.508 146.712C499.508 146.413 499.423 146.163 499.252 145.96C499.087 145.752 498.855 145.621 498.556 145.568L496.58 145.208C495.951 145.091 495.46 144.837 495.108 144.448C494.756 144.053 494.58 143.555 494.58 142.952C494.58 142.52 494.703 142.128 494.948 141.776C495.199 141.419 495.548 141.136 495.996 140.928C496.444 140.72 496.956 140.616 497.532 140.616C498.103 140.616 498.618 140.709 499.076 140.896C499.535 141.083 499.9 141.341 500.172 141.672C500.444 142.003 500.591 142.371 500.612 142.776H499.308C499.292 142.563 499.204 142.371 499.044 142.2C498.89 142.029 498.682 141.896 498.42 141.8C498.159 141.704 497.866 141.656 497.54 141.656C497.21 141.656 496.916 141.712 496.66 141.824C496.404 141.936 496.204 142.091 496.06 142.288C495.922 142.48 495.852 142.699 495.852 142.944C495.852 143.221 495.93 143.451 496.084 143.632C496.239 143.813 496.466 143.931 496.764 143.984L498.788 144.344C499.204 144.419 499.562 144.565 499.86 144.784C500.164 145.003 500.394 145.275 500.548 145.6C500.708 145.925 500.788 146.28 500.788 146.664C500.788 147.144 500.65 147.576 500.372 147.96C500.1 148.344 499.724 148.645 499.244 148.864C498.764 149.083 498.228 149.192 497.636 149.192ZM502.972 137.8H504.252V144.648L507.964 140.808H509.556L505.82 144.712L509.7 149H508.052L504.252 144.872V149H502.972V137.8ZM513.8 149C513.411 149 513.056 148.917 512.736 148.752C512.421 148.581 512.173 148.349 511.992 148.056C511.811 147.757 511.72 147.427 511.72 147.064L511.712 141.944H510.272L510.28 140.808H511.168C511.371 140.808 511.533 140.744 511.656 140.616C511.784 140.488 511.848 140.325 511.848 140.128V138.808H513V140.808H514.976L514.968 141.944H512.992L513 146.984C513 147.235 513.083 147.445 513.248 147.616C513.419 147.781 513.629 147.864 513.88 147.864H514.968V149H513.8ZM520.703 149.192C519.924 149.192 519.215 149.008 518.575 148.64C517.94 148.267 517.439 147.755 517.071 147.104C516.708 146.448 516.527 145.715 516.527 144.904C516.527 144.093 516.708 143.363 517.071 142.712C517.439 142.056 517.943 141.544 518.583 141.176C519.223 140.803 519.932 140.616 520.711 140.616C521.49 140.616 522.196 140.803 522.831 141.176C523.466 141.544 523.964 142.053 524.327 142.704C524.695 143.355 524.879 144.088 524.879 144.904C524.879 145.72 524.695 146.453 524.327 147.104C523.964 147.755 523.466 148.267 522.831 148.64C522.196 149.008 521.487 149.192 520.703 149.192ZM517.871 144.904C517.871 145.517 517.994 146.061 518.239 146.536C518.49 147.005 518.831 147.371 519.263 147.632C519.7 147.893 520.186 148.024 520.719 148.024C521.252 148.024 521.732 147.893 522.159 147.632C522.586 147.371 522.922 147.005 523.167 146.536C523.412 146.061 523.535 145.517 523.535 144.904C523.535 144.291 523.412 143.747 523.167 143.272C522.922 142.797 522.583 142.429 522.151 142.168C521.724 141.907 521.244 141.776 520.711 141.776C520.178 141.776 519.695 141.907 519.263 142.168C518.831 142.429 518.49 142.797 518.239 143.272C517.994 143.747 517.871 144.291 517.871 144.904ZM528.261 140.808V142.256C528.57 141.739 528.986 141.336 529.509 141.048C530.031 140.76 530.631 140.616 531.309 140.616C532.071 140.616 532.749 140.797 533.341 141.16C533.938 141.517 534.402 142.021 534.733 142.672C535.069 143.323 535.237 144.067 535.237 144.904C535.237 145.741 535.069 146.485 534.733 147.136C534.402 147.787 533.938 148.293 533.341 148.656C532.749 149.013 532.071 149.192 531.309 149.192C530.642 149.192 530.05 149.053 529.533 148.776C529.015 148.499 528.602 148.109 528.293 147.608V151.576H527.013V140.808H528.261ZM528.293 144.904C528.293 145.517 528.41 146.061 528.645 146.536C528.885 147.005 529.218 147.373 529.645 147.64C530.071 147.901 530.559 148.032 531.109 148.032C531.653 148.032 532.135 147.901 532.557 147.64C532.978 147.373 533.306 147.005 533.541 146.536C533.775 146.061 533.893 145.517 533.893 144.904C533.893 144.291 533.775 143.749 533.541 143.28C533.306 142.805 532.978 142.437 532.557 142.176C532.135 141.909 531.653 141.776 531.109 141.776C530.559 141.776 530.071 141.909 529.645 142.176C529.218 142.437 528.885 142.805 528.645 143.28C528.41 143.749 528.293 144.291 528.293 144.904Z" fill="#19191C"/>
<rect x="137" y="120" width="54" height="48" rx="2" fill="#8473FF" fill-opacity="0.3"/>
<path d="M154.4 140.808H155.68V149H154.4V140.808ZM155.792 137.8V139.32H154.288V137.8H155.792ZM161.982 149.192C161.203 149.192 160.494 149.008 159.854 148.64C159.219 148.267 158.718 147.755 158.35 147.104C157.987 146.448 157.806 145.715 157.806 144.904C157.806 144.093 157.987 143.363 158.35 142.712C158.718 142.056 159.222 141.544 159.862 141.176C160.502 140.803 161.211 140.616 161.99 140.616C162.769 140.616 163.475 140.803 164.11 141.176C164.745 141.544 165.243 142.053 165.606 142.704C165.974 143.355 166.158 144.088 166.158 144.904C166.158 145.72 165.974 146.453 165.606 147.104C165.243 147.755 164.745 148.267 164.11 148.64C163.475 149.008 162.766 149.192 161.982 149.192ZM159.15 144.904C159.15 145.517 159.273 146.061 159.518 146.536C159.769 147.005 160.11 147.371 160.542 147.632C160.979 147.893 161.465 148.024 161.998 148.024C162.531 148.024 163.011 147.893 163.438 147.632C163.865 147.371 164.201 147.005 164.446 146.536C164.691 146.061 164.814 145.517 164.814 144.904C164.814 144.291 164.691 143.747 164.446 143.272C164.201 142.797 163.862 142.429 163.43 142.168C163.003 141.907 162.523 141.776 161.99 141.776C161.457 141.776 160.974 141.907 160.542 142.168C160.11 142.429 159.769 142.797 159.518 143.272C159.273 143.747 159.15 144.291 159.15 144.904ZM170.996 149.192C170.377 149.192 169.817 149.093 169.316 148.896C168.82 148.699 168.422 148.424 168.124 148.072C167.83 147.715 167.673 147.312 167.652 146.864H168.956C168.977 147.109 169.078 147.331 169.26 147.528C169.441 147.72 169.681 147.872 169.98 147.984C170.278 148.096 170.612 148.152 170.98 148.152C171.353 148.152 171.681 148.091 171.964 147.968C172.252 147.845 172.473 147.675 172.628 147.456C172.788 147.237 172.868 146.989 172.868 146.712C172.868 146.413 172.782 146.163 172.612 145.96C172.446 145.752 172.214 145.621 171.916 145.568L169.94 145.208C169.31 145.091 168.82 144.837 168.468 144.448C168.116 144.053 167.94 143.555 167.94 142.952C167.94 142.52 168.062 142.128 168.308 141.776C168.558 141.419 168.908 141.136 169.356 140.928C169.804 140.72 170.316 140.616 170.892 140.616C171.462 140.616 171.977 140.709 172.436 140.896C172.894 141.083 173.26 141.341 173.532 141.672C173.804 142.003 173.95 142.371 173.972 142.776H172.668C172.652 142.563 172.564 142.371 172.404 142.2C172.249 142.029 172.041 141.896 171.78 141.8C171.518 141.704 171.225 141.656 170.9 141.656C170.569 141.656 170.276 141.712 170.02 141.824C169.764 141.936 169.564 142.091 169.42 142.288C169.281 142.48 169.212 142.699 169.212 142.944C169.212 143.221 169.289 143.451 169.444 143.632C169.598 143.813 169.825 143.931 170.124 143.984L172.148 144.344C172.564 144.419 172.921 144.565 173.22 144.784C173.524 145.003 173.753 145.275 173.908 145.6C174.068 145.925 174.148 146.28 174.148 146.664C174.148 147.144 174.009 147.576 173.732 147.96C173.46 148.344 173.084 148.645 172.604 148.864C172.124 149.083 171.588 149.192 170.996 149.192Z" fill="#19191C"/>
<rect x="295" y="120" width="59" height="48" rx="2" fill="#E8E8E8"/>
<path d="M310.68 150.344H311.384C311.645 150.344 311.856 150.261 312.016 150.096C312.181 149.936 312.264 149.725 312.264 149.464V140.808H313.544V149.56C313.544 149.949 313.456 150.296 313.28 150.6C313.104 150.904 312.859 151.139 312.544 151.304C312.229 151.475 311.869 151.56 311.464 151.56H310.68V150.344ZM313.656 137.8V139.32H312.152V137.8H313.656ZM315.188 140.808H316.58L319.076 147.288L321.492 140.808H322.852L319.628 149H318.428L315.188 140.808ZM324.604 140.808H325.836V142.192C326.082 141.685 326.42 141.296 326.852 141.024C327.29 140.752 327.802 140.616 328.388 140.616C329.002 140.616 329.535 140.763 329.988 141.056C330.442 141.349 330.78 141.763 331.004 142.296C331.266 141.763 331.631 141.349 332.1 141.056C332.57 140.763 333.111 140.616 333.724 140.616C334.306 140.616 334.82 140.749 335.268 141.016C335.722 141.277 336.074 141.651 336.324 142.136C336.575 142.621 336.7 143.187 336.7 143.832V149H335.42V143.888C335.42 143.211 335.25 142.677 334.908 142.288C334.572 141.899 334.098 141.704 333.484 141.704C333.047 141.704 332.663 141.805 332.332 142.008C332.002 142.205 331.746 142.488 331.564 142.856C331.383 143.219 331.292 143.648 331.292 144.144V149H330.012V143.888C330.012 143.211 329.842 142.677 329.5 142.288C329.164 141.899 328.69 141.704 328.076 141.704C327.634 141.704 327.247 141.803 326.916 142C326.586 142.197 326.33 142.48 326.148 142.848C325.972 143.216 325.884 143.648 325.884 144.144V149H324.604V140.808Z" fill="#19191C"/>
<rect x="275.5" y="24.5" width="99" height="47" rx="1.5" fill="white"/>
<path d="M295.8 53.192C295.027 53.192 294.328 53.0053 293.704 52.632C293.08 52.2587 292.589 51.7467 292.232 51.096C291.88 50.44 291.704 49.7093 291.704 48.904C291.704 48.0987 291.88 47.3707 292.232 46.72C292.589 46.064 293.08 45.5493 293.704 45.176C294.328 44.8027 295.027 44.616 295.8 44.616C296.792 44.616 297.624 44.8693 298.296 45.376C298.968 45.8773 299.397 46.6053 299.584 47.56H298.304C298.133 46.9733 297.819 46.5307 297.36 46.232C296.907 45.928 296.387 45.776 295.8 45.776C295.272 45.776 294.797 45.9093 294.376 46.176C293.96 46.4427 293.635 46.8133 293.4 47.288C293.165 47.7627 293.048 48.3013 293.048 48.904C293.048 49.5013 293.165 50.0373 293.4 50.512C293.635 50.9867 293.96 51.36 294.376 51.632C294.797 51.8987 295.272 52.032 295.8 52.032C296.387 52.032 296.907 51.8827 297.36 51.584C297.819 51.28 298.133 50.8347 298.304 50.248H299.584C299.461 50.8667 299.221 51.3973 298.864 51.84C298.507 52.2827 298.064 52.6187 297.536 52.848C297.008 53.0773 296.429 53.192 295.8 53.192ZM305.17 53.192C304.391 53.192 303.682 53.008 303.042 52.64C302.407 52.2667 301.906 51.7547 301.538 51.104C301.175 50.448 300.994 49.7147 300.994 48.904C300.994 48.0933 301.175 47.3627 301.538 46.712C301.906 46.056 302.41 45.544 303.05 45.176C303.69 44.8027 304.399 44.616 305.178 44.616C305.956 44.616 306.663 44.8027 307.298 45.176C307.932 45.544 308.431 46.0533 308.794 46.704C309.162 47.3547 309.346 48.088 309.346 48.904C309.346 49.72 309.162 50.4533 308.794 51.104C308.431 51.7547 307.932 52.2667 307.298 52.64C306.663 53.008 305.954 53.192 305.17 53.192ZM302.338 48.904C302.338 49.5173 302.46 50.0613 302.706 50.536C302.956 51.0053 303.298 51.3707 303.73 51.632C304.167 51.8933 304.652 52.024 305.186 52.024C305.719 52.024 306.199 51.8933 306.626 51.632C307.052 51.3707 307.388 51.0053 307.634 50.536C307.879 50.0613 308.002 49.5173 308.002 48.904C308.002 48.2907 307.879 47.7467 307.634 47.272C307.388 46.7973 307.05 46.4293 306.618 46.168C306.191 45.9067 305.711 45.776 305.178 45.776C304.644 45.776 304.162 45.9067 303.73 46.168C303.298 46.4293 302.956 46.7973 302.706 47.272C302.46 47.7467 302.338 48.2907 302.338 48.904ZM311.479 44.808H312.711V46.192C312.957 45.6853 313.295 45.296 313.727 45.024C314.165 44.752 314.677 44.616 315.263 44.616C315.877 44.616 316.41 44.7627 316.863 45.056C317.317 45.3493 317.655 45.7627 317.879 46.296C318.141 45.7627 318.506 45.3493 318.975 45.056C319.445 44.7627 319.986 44.616 320.599 44.616C321.181 44.616 321.695 44.7493 322.143 45.016C322.597 45.2773 322.949 45.6507 323.199 46.136C323.45 46.6213 323.575 47.1867 323.575 47.832V53H322.295V47.888C322.295 47.2107 322.125 46.6773 321.783 46.288C321.447 45.8987 320.973 45.704 320.359 45.704C319.922 45.704 319.538 45.8053 319.207 46.008C318.877 46.2053 318.621 46.488 318.439 46.856C318.258 47.2187 318.167 47.648 318.167 48.144V53H316.887V47.888C316.887 47.2107 316.717 46.6773 316.375 46.288C316.039 45.8987 315.565 45.704 314.951 45.704C314.509 45.704 314.122 45.8027 313.791 46C313.461 46.1973 313.205 46.48 313.023 46.848C312.847 47.216 312.759 47.648 312.759 48.144V53H311.479V44.808ZM326.159 44.808H327.391V46.192C327.637 45.6853 327.975 45.296 328.407 45.024C328.845 44.752 329.357 44.616 329.943 44.616C330.557 44.616 331.09 44.7627 331.543 45.056C331.997 45.3493 332.335 45.7627 332.559 46.296C332.821 45.7627 333.186 45.3493 333.655 45.056C334.125 44.7627 334.666 44.616 335.279 44.616C335.861 44.616 336.375 44.7493 336.823 45.016C337.277 45.2773 337.629 45.6507 337.879 46.136C338.13 46.6213 338.255 47.1867 338.255 47.832V53H336.975V47.888C336.975 47.2107 336.805 46.6773 336.463 46.288C336.127 45.8987 335.653 45.704 335.039 45.704C334.602 45.704 334.218 45.8053 333.887 46.008C333.557 46.2053 333.301 46.488 333.119 46.856C332.938 47.2187 332.847 47.648 332.847 48.144V53H331.567V47.888C331.567 47.2107 331.397 46.6773 331.055 46.288C330.719 45.8987 330.245 45.704 329.631 45.704C329.189 45.704 328.802 45.8027 328.471 46C328.141 46.1973 327.885 46.48 327.703 46.848C327.527 47.216 327.439 47.648 327.439 48.144V53H326.159V44.808ZM344.32 53.192C343.541 53.192 342.832 53.008 342.192 52.64C341.557 52.2667 341.056 51.7547 340.688 51.104C340.325 50.448 340.144 49.7147 340.144 48.904C340.144 48.0933 340.325 47.3627 340.688 46.712C341.056 46.056 341.56 45.544 342.2 45.176C342.84 44.8027 343.549 44.616 344.328 44.616C345.106 44.616 345.813 44.8027 346.448 45.176C347.082 45.544 347.581 46.0533 347.944 46.704C348.312 47.3547 348.496 48.088 348.496 48.904C348.496 49.72 348.312 50.4533 347.944 51.104C347.581 51.7547 347.082 52.2667 346.448 52.64C345.813 53.008 345.104 53.192 344.32 53.192ZM341.488 48.904C341.488 49.5173 341.61 50.0613 341.856 50.536C342.106 51.0053 342.448 51.3707 342.88 51.632C343.317 51.8933 343.802 52.024 344.336 52.024C344.869 52.024 345.349 51.8933 345.776 51.632C346.202 51.3707 346.538 51.0053 346.784 50.536C347.029 50.0613 347.152 49.5173 347.152 48.904C347.152 48.2907 347.029 47.7467 346.784 47.272C346.538 46.7973 346.2 46.4293 345.768 46.168C345.341 45.9067 344.861 45.776 344.328 45.776C343.794 45.776 343.312 45.9067 342.88 46.168C342.448 46.4293 342.106 46.7973 341.856 47.272C341.61 47.7467 341.488 48.2907 341.488 48.904ZM350.629 44.808H351.861V46.136C352.139 45.6453 352.507 45.2693 352.965 45.008C353.429 44.7467 353.965 44.616 354.573 44.616C355.16 44.616 355.68 44.7413 356.133 44.992C356.587 45.2427 356.941 45.6133 357.197 46.104C357.459 46.5893 357.589 47.1733 357.589 47.856V53H356.309V47.984C356.309 47.2747 356.125 46.7227 355.757 46.328C355.389 45.9333 354.883 45.736 354.237 45.736C353.779 45.736 353.373 45.8373 353.021 46.04C352.669 46.2427 352.395 46.528 352.197 46.896C352.005 47.2587 351.909 47.6747 351.909 48.144V53H350.629V44.808Z" fill="#19191C"/>
<rect x="275.5" y="24.5" width="99" height="47" rx="1.5" stroke="#A3A3A4"/>
<path d="M324 72.0003L318.226 82.0003L329.774 82.0003L324 72.0003ZM325 119.968L325 81.0003L323 81.0003L323 119.968L325 119.968Z" fill="#A3A3A3"/>
<path d="M504 168L498.227 178L509.774 178L504 168ZM505 215.968L505 177L503 177L503 215.968L505 215.968Z" fill="#A3A3A3"/>
<path d="M171 96L171 95L171 96ZM316 96L316 97L316 96ZM324 72L318.226 82L329.773 82L324 72ZM164 120L164 104L162 104L162 120L164 120ZM171 97L316 97L316 95L171 95L171 97ZM325 88L325 81L323 81L323 88L325 88ZM316 97C320.971 97 325 92.9706 325 88L323 88C323 91.866 319.866 95 316 95L316 97ZM164 104C164 100.134 167.134 97 171 97L171 95C166.029 95 162 99.0294 162 104L164 104Z" fill="#A3A3A3"/>
<path d="M92 192L92 191H92L92 192ZM155 192L155 193H155L155 192ZM163 168L157.226 178L168.773 178L163 168ZM85 216L85 200L83 200L83 216L85 216ZM92 193L155 193L155 191L92 191L92 193ZM164 184L164 177L162 177L162 184L164 184ZM155 193C159.971 193 164 188.971 164 184L162 184C162 187.866 158.866 191 155 191L155 193ZM85 200C85 196.134 88.134 193 92 193L92 191C87.0294 191 83 195.029 83 200L85 200Z" fill="#A3A3A3"/>
<path d="M380 192L380 191H380L380 192ZM496 192L496 193H496L496 192ZM504 168L498.226 178L509.773 178L504 168ZM373 216L373 200L371 200L371 216L373 216ZM380 193L496 193L496 191L380 191L380 193ZM505 184L505 177L503 177L503 184L505 184ZM496 193C500.971 193 505 188.971 505 184L503 184C503 187.866 499.866 191 496 191L496 193ZM373 200C373 196.134 376.134 193 380 193L380 191C375.029 191 371 195.029 371 200L373 200Z" fill="#A3A3A3"/>
<path d="M628 192L628 191H628L628 192ZM512 192L512 193H512L512 192ZM504 168L509.774 178L498.227 178L504 168ZM635 216L635 200L637 200L637 216L635 216ZM628 193L512 193L512 191L628 191L628 193ZM503 184L503 177L505 177L505 184L503 184ZM512 193C507.029 193 503 188.971 503 184L505 184C505 187.866 508.134 191 512 191L512 193ZM635 200C635 196.134 631.866 193 628 193L628 191C632.971 191 637 195.029 637 200L635 200Z" fill="#A3A3A3"/>
<path d="M496 96L496 95L496 96ZM332 96L332 97L332 96ZM324 72L329.774 82L318.227 82L324 72ZM503 120L503 104L505 104L505 120L503 120ZM496 97L332 97L332 95L496 95L496 97ZM323 88L323 81L325 81L325 88L323 88ZM332 97C327.029 97 323 92.9706 323 88L325 88C325 91.866 328.134 95 332 95L332 97ZM503 104C503 100.134 499.866 97 496 97L496 95C500.971 95 505 99.0294 505 104L503 104Z" fill="#A3A3A3"/>
<path d="M234 192L234 191H234L234 192ZM171 192L171 193H171L171 192ZM163 168L168.774 178L157.227 178L163 168ZM241 216L241 200L243 200L243 216L241 216ZM234 193L171 193L171 191L234 191L234 193ZM162 184L162 177L164 177L164 184L162 184ZM171 193C166.029 193 162 188.971 162 184L164 184C164 187.866 167.134 191 171 191L171 193ZM241 200C241 196.134 237.866 193 234 193L234 191C238.971 191 243 195.029 243 200L241 200Z" fill="#A3A3A3"/>
</svg>
