<svg width="706" height="421" viewBox="0 0 706 421" fill="none" xmlns="http://www.w3.org/2000/svg">
<rect width="706" height="421" fill="white"/>
<rect x="545" y="284" width="120" height="40" rx="12" fill="#FF688D"/>
<rect x="292" y="284" width="120" height="40" rx="12" fill="#FF688D"/>
<rect x="413" y="206" width="120" height="40" rx="12" fill="#FF688D"/>
<rect x="356" y="120" width="120" height="40" rx="12" fill="#FF688D"/>
<path d="M575.737 301.712C576.197 301.712 576.599 301.812 576.943 302.012C577.287 302.208 577.551 302.488 577.735 302.852C577.923 303.216 578.017 303.64 578.017 304.124V308H577.057V304.196C577.057 303.672 576.921 303.264 576.649 302.972C576.381 302.676 576.007 302.528 575.527 302.528C575.183 302.528 574.881 302.602 574.621 302.75C574.361 302.894 574.159 303.102 574.015 303.374C573.875 303.646 573.805 303.966 573.805 304.334V308H572.845V301.856H573.769V302.798C573.965 302.438 574.229 302.168 574.561 301.988C574.893 301.804 575.285 301.712 575.737 301.712ZM582.262 301.712C582.726 301.712 583.132 301.798 583.48 301.97C583.832 302.138 584.104 302.384 584.296 302.708C584.488 303.032 584.584 303.422 584.584 303.878V308H583.648V307.088C583.46 307.432 583.19 307.694 582.838 307.874C582.49 308.054 582.072 308.144 581.584 308.144C581.18 308.144 580.82 308.07 580.504 307.922C580.192 307.77 579.948 307.56 579.772 307.292C579.6 307.024 579.514 306.718 579.514 306.374C579.514 306.054 579.594 305.76 579.754 305.492C579.918 305.22 580.144 304.998 580.432 304.826C580.72 304.654 581.046 304.55 581.41 304.514L583.204 304.334C583.336 304.322 583.44 304.266 583.516 304.166C583.596 304.066 583.636 303.922 583.636 303.734C583.636 303.49 583.576 303.276 583.456 303.092C583.34 302.908 583.176 302.766 582.964 302.666C582.756 302.566 582.514 302.516 582.238 302.516C581.966 302.516 581.718 302.562 581.494 302.654C581.27 302.746 581.088 302.872 580.948 303.032C580.808 303.192 580.726 303.368 580.702 303.56H579.766C579.802 303.22 579.934 302.91 580.162 302.63C580.39 302.346 580.688 302.122 581.056 301.958C581.424 301.794 581.826 301.712 582.262 301.712ZM581.764 307.394C582.128 307.394 582.452 307.324 582.736 307.184C583.02 307.04 583.24 306.84 583.396 306.584C583.556 306.324 583.636 306.03 583.636 305.702V305.006L581.542 305.222C581.222 305.254 580.964 305.372 580.768 305.576C580.572 305.78 580.474 306.028 580.474 306.32C580.474 306.528 580.528 306.714 580.636 306.878C580.744 307.038 580.896 307.164 581.092 307.256C581.288 307.348 581.512 307.394 581.764 307.394ZM588.159 308C587.715 308 587.363 307.882 587.103 307.646C586.847 307.41 586.719 307.084 586.719 306.668L586.713 302.708H585.633L585.639 301.856H586.305C586.457 301.856 586.579 301.808 586.671 301.712C586.767 301.616 586.815 301.494 586.815 301.346V300.32H587.679V301.856H589.161L589.155 302.708H587.673L587.679 306.608C587.679 306.776 587.727 306.908 587.823 307.004C587.923 307.1 588.055 307.148 588.219 307.148H589.155V308H588.159ZM591.734 308H590.774V301.856H591.734V308ZM590.708 300.74V299.6H591.8V300.74H590.708ZM596.438 308H595.418L593.024 301.856H594.068L595.964 306.878L597.824 301.856H598.832L596.438 308ZM605.425 305.162H600.553C600.589 305.582 600.699 305.954 600.883 306.278C601.067 306.602 601.309 306.854 601.609 307.034C601.909 307.214 602.249 307.304 602.629 307.304C602.885 307.304 603.131 307.264 603.367 307.184C603.603 307.104 603.809 306.992 603.985 306.848C604.161 306.704 604.287 306.54 604.363 306.356H605.287C605.219 306.692 605.053 306.996 604.789 307.268C604.529 307.54 604.203 307.754 603.811 307.91C603.423 308.066 603.009 308.144 602.569 308.144C601.989 308.144 601.469 308.006 601.009 307.73C600.553 307.454 600.197 307.072 599.941 306.584C599.685 306.092 599.557 305.536 599.557 304.916C599.557 304.312 599.687 303.766 599.947 303.278C600.207 302.79 600.565 302.408 601.021 302.132C601.481 301.852 601.997 301.712 602.569 301.712C603.113 301.712 603.601 301.852 604.033 302.132C604.469 302.408 604.809 302.792 605.053 303.284C605.301 303.772 605.425 304.32 605.425 304.928V305.162ZM602.581 302.558C602.041 302.558 601.593 302.72 601.237 303.044C600.881 303.368 600.661 303.81 600.577 304.37H604.423C604.339 303.814 604.133 303.374 603.805 303.05C603.481 302.722 603.073 302.558 602.581 302.558ZM610.785 308.144C610.009 308.144 609.305 307.956 608.673 307.58C608.041 307.2 607.543 306.68 607.179 306.02C606.815 305.356 606.633 304.616 606.633 303.8C606.633 302.984 606.815 302.246 607.179 301.586C607.543 300.922 608.041 300.402 608.673 300.026C609.305 299.646 610.009 299.456 610.785 299.456C611.557 299.456 612.259 299.646 612.891 300.026C613.527 300.402 614.027 300.922 614.391 301.586C614.755 302.246 614.937 302.984 614.937 303.8C614.937 304.616 614.755 305.356 614.391 306.02C614.027 306.68 613.527 307.2 612.891 307.58C612.259 307.956 611.557 308.144 610.785 308.144ZM610.785 307.232C611.373 307.232 611.905 307.086 612.381 306.794C612.857 306.498 613.229 306.09 613.497 305.57C613.769 305.046 613.905 304.456 613.905 303.8C613.905 303.14 613.771 302.55 613.503 302.03C613.239 301.506 612.869 301.098 612.393 300.806C611.921 300.514 611.385 300.368 610.785 300.368C610.193 300.368 609.659 300.516 609.183 300.812C608.711 301.104 608.339 301.51 608.067 302.03C607.799 302.55 607.665 303.14 607.665 303.8C607.665 304.46 607.799 305.05 608.067 305.57C608.339 306.09 608.711 306.498 609.183 306.794C609.659 307.086 610.193 307.232 610.785 307.232ZM618.287 308C617.843 308 617.491 307.882 617.231 307.646C616.975 307.41 616.847 307.084 616.847 306.668L616.841 302.708H615.761L615.767 301.856H616.433C616.585 301.856 616.707 301.808 616.799 301.712C616.895 301.616 616.943 301.494 616.943 301.346V300.32H617.807V301.856H619.289L619.283 302.708H617.801L617.807 306.608C617.807 306.776 617.855 306.908 617.951 307.004C618.051 307.1 618.183 307.148 618.347 307.148H619.283V308H618.287ZM623.795 301.712C624.255 301.712 624.657 301.812 625.001 302.012C625.345 302.208 625.609 302.488 625.793 302.852C625.981 303.216 626.075 303.64 626.075 304.124V308H625.115V304.166C625.115 303.65 624.983 303.248 624.719 302.96C624.459 302.672 624.093 302.528 623.621 302.528C623.265 302.528 622.955 302.61 622.691 302.774C622.427 302.934 622.223 303.164 622.079 303.464C621.935 303.76 621.863 304.11 621.863 304.514V308H620.903V299.6H621.863V301.574L621.827 302.792C622.019 302.44 622.281 302.172 622.613 301.988C622.949 301.804 623.343 301.712 623.795 301.712ZM633.363 305.162H628.491C628.527 305.582 628.637 305.954 628.821 306.278C629.005 306.602 629.247 306.854 629.547 307.034C629.847 307.214 630.187 307.304 630.567 307.304C630.823 307.304 631.069 307.264 631.305 307.184C631.541 307.104 631.747 306.992 631.923 306.848C632.099 306.704 632.225 306.54 632.301 306.356H633.225C633.157 306.692 632.991 306.996 632.727 307.268C632.467 307.54 632.141 307.754 631.749 307.91C631.361 308.066 630.947 308.144 630.507 308.144C629.927 308.144 629.407 308.006 628.947 307.73C628.491 307.454 628.135 307.072 627.879 306.584C627.623 306.092 627.495 305.536 627.495 304.916C627.495 304.312 627.625 303.766 627.885 303.278C628.145 302.79 628.503 302.408 628.959 302.132C629.419 301.852 629.935 301.712 630.507 301.712C631.051 301.712 631.539 301.852 631.971 302.132C632.407 302.408 632.747 302.792 632.991 303.284C633.239 303.772 633.363 304.32 633.363 304.928V305.162ZM630.519 302.558C629.979 302.558 629.531 302.72 629.175 303.044C628.819 303.368 628.599 303.81 628.515 304.37H632.361C632.277 303.814 632.071 303.374 631.743 303.05C631.419 302.722 631.011 302.558 630.519 302.558ZM637.912 301.796V302.798H637.69C637.13 302.798 636.69 302.966 636.37 303.302C636.05 303.638 635.89 304.11 635.89 304.718V308H634.93V301.856H635.89V303.092C636.062 302.676 636.302 302.356 636.61 302.132C636.922 301.908 637.294 301.796 637.726 301.796H637.912Z" fill="white"/>
<path d="M318.981 301.712C319.441 301.712 319.843 301.812 320.187 302.012C320.531 302.208 320.795 302.488 320.979 302.852C321.167 303.216 321.261 303.64 321.261 304.124V308H320.301V304.196C320.301 303.672 320.165 303.264 319.893 302.972C319.625 302.676 319.251 302.528 318.771 302.528C318.427 302.528 318.125 302.602 317.865 302.75C317.605 302.894 317.403 303.102 317.259 303.374C317.119 303.646 317.049 303.966 317.049 304.334V308H316.089V301.856H317.013V302.798C317.209 302.438 317.473 302.168 317.805 301.988C318.137 301.804 318.529 301.712 318.981 301.712ZM325.506 301.712C325.97 301.712 326.376 301.798 326.724 301.97C327.076 302.138 327.348 302.384 327.54 302.708C327.732 303.032 327.828 303.422 327.828 303.878V308H326.892V307.088C326.704 307.432 326.434 307.694 326.082 307.874C325.734 308.054 325.316 308.144 324.828 308.144C324.424 308.144 324.064 308.07 323.748 307.922C323.436 307.77 323.192 307.56 323.016 307.292C322.844 307.024 322.758 306.718 322.758 306.374C322.758 306.054 322.838 305.76 322.998 305.492C323.162 305.22 323.388 304.998 323.676 304.826C323.964 304.654 324.29 304.55 324.654 304.514L326.448 304.334C326.58 304.322 326.684 304.266 326.76 304.166C326.84 304.066 326.88 303.922 326.88 303.734C326.88 303.49 326.82 303.276 326.7 303.092C326.584 302.908 326.42 302.766 326.208 302.666C326 302.566 325.758 302.516 325.482 302.516C325.21 302.516 324.962 302.562 324.738 302.654C324.514 302.746 324.332 302.872 324.192 303.032C324.052 303.192 323.97 303.368 323.946 303.56H323.01C323.046 303.22 323.178 302.91 323.406 302.63C323.634 302.346 323.932 302.122 324.3 301.958C324.668 301.794 325.07 301.712 325.506 301.712ZM325.008 307.394C325.372 307.394 325.696 307.324 325.98 307.184C326.264 307.04 326.484 306.84 326.64 306.584C326.8 306.324 326.88 306.03 326.88 305.702V305.006L324.786 305.222C324.466 305.254 324.208 305.372 324.012 305.576C323.816 305.78 323.718 306.028 323.718 306.32C323.718 306.528 323.772 306.714 323.88 306.878C323.988 307.038 324.14 307.164 324.336 307.256C324.532 307.348 324.756 307.394 325.008 307.394ZM331.403 308C330.959 308 330.607 307.882 330.347 307.646C330.091 307.41 329.963 307.084 329.963 306.668L329.957 302.708H328.877L328.883 301.856H329.549C329.701 301.856 329.823 301.808 329.915 301.712C330.011 301.616 330.059 301.494 330.059 301.346V300.32H330.923V301.856H332.405L332.399 302.708H330.917L330.923 306.608C330.923 306.776 330.971 306.908 331.067 307.004C331.167 307.1 331.299 307.148 331.463 307.148H332.399V308H331.403ZM334.978 308H334.018V301.856H334.978V308ZM333.952 300.74V299.6H335.044V300.74H333.952ZM339.682 308H338.662L336.268 301.856H337.312L339.208 306.878L341.068 301.856H342.076L339.682 308ZM348.67 305.162H343.798C343.834 305.582 343.944 305.954 344.128 306.278C344.312 306.602 344.554 306.854 344.854 307.034C345.154 307.214 345.494 307.304 345.874 307.304C346.13 307.304 346.376 307.264 346.612 307.184C346.848 307.104 347.054 306.992 347.23 306.848C347.406 306.704 347.532 306.54 347.608 306.356H348.532C348.464 306.692 348.298 306.996 348.034 307.268C347.774 307.54 347.448 307.754 347.056 307.91C346.668 308.066 346.254 308.144 345.814 308.144C345.234 308.144 344.714 308.006 344.254 307.73C343.798 307.454 343.442 307.072 343.186 306.584C342.93 306.092 342.802 305.536 342.802 304.916C342.802 304.312 342.932 303.766 343.192 303.278C343.452 302.79 343.81 302.408 344.266 302.132C344.726 301.852 345.242 301.712 345.814 301.712C346.358 301.712 346.846 301.852 347.278 302.132C347.714 302.408 348.054 302.792 348.298 303.284C348.546 303.772 348.67 304.32 348.67 304.928V305.162ZM345.826 302.558C345.286 302.558 344.838 302.72 344.482 303.044C344.126 303.368 343.906 303.81 343.822 304.37H347.668C347.584 303.814 347.378 303.374 347.05 303.05C346.726 302.722 346.318 302.558 345.826 302.558ZM350.477 308V299.6H353.453C354.241 299.6 354.939 299.778 355.547 300.134C356.159 300.486 356.635 300.98 356.975 301.616C357.315 302.252 357.485 302.98 357.485 303.8C357.485 304.62 357.315 305.348 356.975 305.984C356.635 306.62 356.159 307.116 355.547 307.472C354.939 307.824 354.241 308 353.453 308H350.477ZM353.453 307.07C354.037 307.07 354.557 306.932 355.013 306.656C355.469 306.38 355.823 305.996 356.075 305.504C356.327 305.008 356.453 304.44 356.453 303.8C356.453 303.16 356.327 302.594 356.075 302.102C355.823 301.606 355.469 301.22 355.013 300.944C354.557 300.668 354.037 300.53 353.453 300.53H351.473V307.07H353.453ZM361.518 301.712C361.982 301.712 362.388 301.798 362.736 301.97C363.088 302.138 363.36 302.384 363.552 302.708C363.744 303.032 363.84 303.422 363.84 303.878V308H362.904V307.088C362.716 307.432 362.446 307.694 362.094 307.874C361.746 308.054 361.328 308.144 360.84 308.144C360.436 308.144 360.076 308.07 359.76 307.922C359.448 307.77 359.204 307.56 359.028 307.292C358.856 307.024 358.77 306.718 358.77 306.374C358.77 306.054 358.85 305.76 359.01 305.492C359.174 305.22 359.4 304.998 359.688 304.826C359.976 304.654 360.302 304.55 360.666 304.514L362.46 304.334C362.592 304.322 362.696 304.266 362.772 304.166C362.852 304.066 362.892 303.922 362.892 303.734C362.892 303.49 362.832 303.276 362.712 303.092C362.596 302.908 362.432 302.766 362.22 302.666C362.012 302.566 361.77 302.516 361.494 302.516C361.222 302.516 360.974 302.562 360.75 302.654C360.526 302.746 360.344 302.872 360.204 303.032C360.064 303.192 359.982 303.368 359.958 303.56H359.022C359.058 303.22 359.19 302.91 359.418 302.63C359.646 302.346 359.944 302.122 360.312 301.958C360.68 301.794 361.082 301.712 361.518 301.712ZM361.02 307.394C361.384 307.394 361.708 307.324 361.992 307.184C362.276 307.04 362.496 306.84 362.652 306.584C362.812 306.324 362.892 306.03 362.892 305.702V305.006L360.798 305.222C360.478 305.254 360.22 305.372 360.024 305.576C359.828 305.78 359.73 306.028 359.73 306.32C359.73 306.528 359.784 306.714 359.892 306.878C360 307.038 360.152 307.164 360.348 307.256C360.544 307.348 360.768 307.394 361.02 307.394ZM368.746 301.796V302.798H368.524C367.964 302.798 367.524 302.966 367.204 303.302C366.884 303.638 366.724 304.11 366.724 304.718V308H365.764V301.856H366.724V303.092C366.896 302.676 367.136 302.356 367.444 302.132C367.756 301.908 368.128 301.796 368.56 301.796H368.746ZM372.333 308H371.337L369.315 301.856H370.335L371.739 306.374L371.877 306.866L371.997 306.374L373.455 301.856H374.445L375.909 306.374L376.041 306.866L376.167 306.374L377.535 301.856H378.531L376.509 308H375.501L374.061 303.278L373.947 302.882L373.845 303.266L372.333 308ZM380.822 308H379.862V301.856H380.822V308ZM379.796 300.74V299.6H380.888V300.74H379.796ZM385.778 301.712C386.238 301.712 386.64 301.812 386.984 302.012C387.328 302.208 387.592 302.488 387.776 302.852C387.964 303.216 388.058 303.64 388.058 304.124V308H387.098V304.196C387.098 303.672 386.962 303.264 386.69 302.972C386.422 302.676 386.048 302.528 385.568 302.528C385.224 302.528 384.922 302.602 384.662 302.75C384.402 302.894 384.2 303.102 384.056 303.374C383.916 303.646 383.846 303.966 383.846 304.334V308H382.886V301.856H383.81V302.798C384.006 302.438 384.27 302.168 384.602 301.988C384.934 301.804 385.326 301.712 385.778 301.712Z" fill="white"/>
<path d="M459.85 223.712C460.31 223.712 460.712 223.812 461.056 224.012C461.4 224.208 461.664 224.488 461.848 224.852C462.036 225.216 462.13 225.64 462.13 226.124V230H461.17V226.196C461.17 225.672 461.034 225.264 460.762 224.972C460.494 224.676 460.12 224.528 459.64 224.528C459.296 224.528 458.994 224.602 458.734 224.75C458.474 224.894 458.272 225.102 458.128 225.374C457.988 225.646 457.918 225.966 457.918 226.334V230H456.958V223.856H457.882V224.798C458.078 224.438 458.342 224.168 458.674 223.988C459.006 223.804 459.398 223.712 459.85 223.712ZM466.376 223.712C466.84 223.712 467.246 223.798 467.594 223.97C467.946 224.138 468.218 224.384 468.41 224.708C468.602 225.032 468.698 225.422 468.698 225.878V230H467.762V229.088C467.574 229.432 467.304 229.694 466.952 229.874C466.604 230.054 466.186 230.144 465.698 230.144C465.294 230.144 464.934 230.07 464.618 229.922C464.306 229.77 464.062 229.56 463.886 229.292C463.714 229.024 463.628 228.718 463.628 228.374C463.628 228.054 463.708 227.76 463.868 227.492C464.032 227.22 464.258 226.998 464.546 226.826C464.834 226.654 465.16 226.55 465.524 226.514L467.318 226.334C467.45 226.322 467.554 226.266 467.63 226.166C467.71 226.066 467.75 225.922 467.75 225.734C467.75 225.49 467.69 225.276 467.57 225.092C467.454 224.908 467.29 224.766 467.078 224.666C466.87 224.566 466.628 224.516 466.352 224.516C466.08 224.516 465.832 224.562 465.608 224.654C465.384 224.746 465.202 224.872 465.062 225.032C464.922 225.192 464.84 225.368 464.816 225.56H463.88C463.916 225.22 464.048 224.91 464.276 224.63C464.504 224.346 464.802 224.122 465.17 223.958C465.538 223.794 465.94 223.712 466.376 223.712ZM465.878 229.394C466.242 229.394 466.566 229.324 466.85 229.184C467.134 229.04 467.354 228.84 467.51 228.584C467.67 228.324 467.75 228.03 467.75 227.702V227.006L465.656 227.222C465.336 227.254 465.078 227.372 464.882 227.576C464.686 227.78 464.588 228.028 464.588 228.32C464.588 228.528 464.642 228.714 464.75 228.878C464.858 229.038 465.01 229.164 465.206 229.256C465.402 229.348 465.626 229.394 465.878 229.394ZM472.272 230C471.828 230 471.476 229.882 471.216 229.646C470.96 229.41 470.832 229.084 470.832 228.668L470.826 224.708H469.746L469.752 223.856H470.418C470.57 223.856 470.692 223.808 470.784 223.712C470.88 223.616 470.928 223.494 470.928 223.346V222.32H471.792V223.856H473.274L473.268 224.708H471.786L471.792 228.608C471.792 228.776 471.84 228.908 471.936 229.004C472.036 229.1 472.168 229.148 472.332 229.148H473.268V230H472.272ZM475.847 230H474.887V223.856H475.847V230ZM474.821 222.74V221.6H475.913V222.74H474.821ZM480.551 230H479.531L477.137 223.856H478.181L480.077 228.878L481.937 223.856H482.945L480.551 230ZM489.539 227.162H484.667C484.703 227.582 484.813 227.954 484.997 228.278C485.181 228.602 485.423 228.854 485.723 229.034C486.023 229.214 486.363 229.304 486.743 229.304C486.999 229.304 487.245 229.264 487.481 229.184C487.717 229.104 487.923 228.992 488.099 228.848C488.275 228.704 488.401 228.54 488.477 228.356H489.401C489.333 228.692 489.167 228.996 488.903 229.268C488.643 229.54 488.317 229.754 487.925 229.91C487.537 230.066 487.123 230.144 486.683 230.144C486.103 230.144 485.583 230.006 485.123 229.73C484.667 229.454 484.311 229.072 484.055 228.584C483.799 228.092 483.671 227.536 483.671 226.916C483.671 226.312 483.801 225.766 484.061 225.278C484.321 224.79 484.679 224.408 485.135 224.132C485.595 223.852 486.111 223.712 486.683 223.712C487.227 223.712 487.715 223.852 488.147 224.132C488.583 224.408 488.923 224.792 489.167 225.284C489.415 225.772 489.539 226.32 489.539 226.928V227.162ZM486.695 224.558C486.155 224.558 485.707 224.72 485.351 225.044C484.995 225.368 484.775 225.81 484.691 226.37H488.537C488.453 225.814 488.247 225.374 487.919 225.05C487.595 224.722 487.187 224.558 486.695 224.558Z" fill="white"/>
<path d="M388.504 143.144C387.924 143.144 387.4 143.004 386.932 142.724C386.464 142.444 386.096 142.06 385.828 141.572C385.564 141.08 385.432 140.532 385.432 139.928C385.432 139.324 385.564 138.778 385.828 138.29C386.096 137.798 386.464 137.412 386.932 137.132C387.4 136.852 387.924 136.712 388.504 136.712C389 136.712 389.456 136.81 389.872 137.006C390.288 137.198 390.624 137.466 390.88 137.81C391.14 138.15 391.29 138.532 391.33 138.956H390.37C390.322 138.692 390.208 138.454 390.028 138.242C389.852 138.03 389.63 137.864 389.362 137.744C389.098 137.624 388.812 137.564 388.504 137.564C388.112 137.564 387.758 137.668 387.442 137.876C387.13 138.08 386.884 138.362 386.704 138.722C386.528 139.082 386.44 139.484 386.44 139.928C386.44 140.372 386.528 140.774 386.704 141.134C386.884 141.494 387.13 141.776 387.442 141.98C387.758 142.184 388.112 142.286 388.504 142.286C388.812 142.286 389.098 142.228 389.362 142.112C389.63 141.996 389.852 141.838 390.028 141.638C390.208 141.434 390.322 141.208 390.37 140.96H391.33C391.294 141.372 391.146 141.744 390.886 142.076C390.63 142.408 390.294 142.67 389.878 142.862C389.462 143.05 389.004 143.144 388.504 143.144ZM395.477 143.144C394.893 143.144 394.367 143.006 393.899 142.73C393.431 142.45 393.063 142.066 392.795 141.578C392.527 141.09 392.393 140.54 392.393 139.928C392.393 139.316 392.527 138.766 392.795 138.278C393.063 137.79 393.433 137.408 393.905 137.132C394.377 136.852 394.905 136.712 395.489 136.712C396.073 136.712 396.601 136.852 397.073 137.132C397.545 137.408 397.915 137.79 398.183 138.278C398.451 138.766 398.585 139.316 398.585 139.928C398.585 140.54 398.449 141.09 398.177 141.578C397.909 142.066 397.539 142.45 397.067 142.73C396.595 143.006 396.065 143.144 395.477 143.144ZM395.489 142.256C395.889 142.256 396.247 142.16 396.563 141.968C396.879 141.772 397.127 141.498 397.307 141.146C397.487 140.794 397.577 140.388 397.577 139.928C397.577 139.468 397.487 139.062 397.307 138.71C397.127 138.354 396.879 138.08 396.563 137.888C396.247 137.692 395.889 137.594 395.489 137.594C395.089 137.594 394.731 137.692 394.415 137.888C394.099 138.08 393.851 138.354 393.671 138.71C393.491 139.062 393.401 139.468 393.401 139.928C393.401 140.388 393.491 140.794 393.671 141.146C393.851 141.498 394.099 141.772 394.415 141.968C394.731 142.16 395.089 142.256 395.489 142.256ZM403.049 136.712C403.509 136.712 403.911 136.812 404.255 137.012C404.599 137.208 404.863 137.488 405.047 137.852C405.235 138.216 405.329 138.64 405.329 139.124V143H404.369V139.196C404.369 138.672 404.233 138.264 403.961 137.972C403.693 137.676 403.319 137.528 402.839 137.528C402.495 137.528 402.193 137.602 401.933 137.75C401.673 137.894 401.471 138.102 401.327 138.374C401.187 138.646 401.117 138.966 401.117 139.334V143H400.157V136.856H401.081V137.798C401.277 137.438 401.541 137.168 401.873 136.988C402.205 136.804 402.597 136.712 403.049 136.712ZM409.821 143.144C409.241 143.144 408.717 143.004 408.249 142.724C407.781 142.444 407.413 142.06 407.145 141.572C406.881 141.08 406.749 140.532 406.749 139.928C406.749 139.324 406.881 138.778 407.145 138.29C407.413 137.798 407.781 137.412 408.249 137.132C408.717 136.852 409.241 136.712 409.821 136.712C410.317 136.712 410.773 136.81 411.189 137.006C411.605 137.198 411.941 137.466 412.197 137.81C412.457 138.15 412.607 138.532 412.647 138.956H411.687C411.639 138.692 411.525 138.454 411.345 138.242C411.169 138.03 410.947 137.864 410.679 137.744C410.415 137.624 410.129 137.564 409.821 137.564C409.429 137.564 409.075 137.668 408.759 137.876C408.447 138.08 408.201 138.362 408.021 138.722C407.845 139.082 407.757 139.484 407.757 139.928C407.757 140.372 407.845 140.774 408.021 141.134C408.201 141.494 408.447 141.776 408.759 141.98C409.075 142.184 409.429 142.286 409.821 142.286C410.129 142.286 410.415 142.228 410.679 142.112C410.947 141.996 411.169 141.838 411.345 141.638C411.525 141.434 411.639 141.208 411.687 140.96H412.647C412.611 141.372 412.463 141.744 412.203 142.076C411.947 142.408 411.611 142.67 411.195 142.862C410.779 143.05 410.321 143.144 409.821 143.144ZM418.276 136.856H419.236V143H418.312V142.058C418.116 142.418 417.852 142.69 417.52 142.874C417.188 143.054 416.796 143.144 416.344 143.144C415.884 143.144 415.482 143.046 415.138 142.85C414.794 142.65 414.528 142.368 414.34 142.004C414.156 141.64 414.064 141.216 414.064 140.732V136.856H415.024V140.66C415.024 141.184 415.158 141.594 415.426 141.89C415.698 142.182 416.074 142.328 416.554 142.328C416.898 142.328 417.2 142.256 417.46 142.112C417.72 141.964 417.92 141.754 418.06 141.482C418.204 141.21 418.276 140.89 418.276 140.522V136.856ZM424.28 136.796V137.798H424.058C423.498 137.798 423.058 137.966 422.738 138.302C422.418 138.638 422.258 139.11 422.258 139.718V143H421.298V136.856H422.258V138.092C422.43 137.676 422.67 137.356 422.978 137.132C423.29 136.908 423.662 136.796 424.094 136.796H424.28ZM428.569 136.796V137.798H428.347C427.787 137.798 427.347 137.966 427.027 138.302C426.707 138.638 426.547 139.11 426.547 139.718V143H425.587V136.856H426.547V138.092C426.719 137.676 426.959 137.356 427.267 137.132C427.579 136.908 427.951 136.796 428.383 136.796H428.569ZM435.211 140.162H430.339C430.375 140.582 430.485 140.954 430.669 141.278C430.853 141.602 431.095 141.854 431.395 142.034C431.695 142.214 432.035 142.304 432.415 142.304C432.671 142.304 432.917 142.264 433.153 142.184C433.389 142.104 433.595 141.992 433.771 141.848C433.947 141.704 434.073 141.54 434.149 141.356H435.073C435.005 141.692 434.839 141.996 434.575 142.268C434.315 142.54 433.989 142.754 433.597 142.91C433.209 143.066 432.795 143.144 432.355 143.144C431.775 143.144 431.255 143.006 430.795 142.73C430.339 142.454 429.983 142.072 429.727 141.584C429.471 141.092 429.343 140.536 429.343 139.916C429.343 139.312 429.473 138.766 429.733 138.278C429.993 137.79 430.351 137.408 430.807 137.132C431.267 136.852 431.783 136.712 432.355 136.712C432.899 136.712 433.387 136.852 433.819 137.132C434.255 137.408 434.595 137.792 434.839 138.284C435.087 138.772 435.211 139.32 435.211 139.928V140.162ZM432.367 137.558C431.827 137.558 431.379 137.72 431.023 138.044C430.667 138.368 430.447 138.81 430.363 139.37H434.209C434.125 138.814 433.919 138.374 433.591 138.05C433.267 137.722 432.859 137.558 432.367 137.558ZM439.67 136.712C440.13 136.712 440.532 136.812 440.876 137.012C441.22 137.208 441.484 137.488 441.668 137.852C441.856 138.216 441.95 138.64 441.95 139.124V143H440.99V139.196C440.99 138.672 440.854 138.264 440.582 137.972C440.314 137.676 439.94 137.528 439.46 137.528C439.116 137.528 438.814 137.602 438.554 137.75C438.294 137.894 438.092 138.102 437.948 138.374C437.808 138.646 437.738 138.966 437.738 139.334V143H436.778V136.856H437.702V137.798C437.898 137.438 438.162 137.168 438.494 136.988C438.826 136.804 439.218 136.712 439.67 136.712ZM445.518 143C445.074 143 444.722 142.882 444.462 142.646C444.206 142.41 444.078 142.084 444.078 141.668L444.072 137.708H442.992L442.998 136.856H443.664C443.816 136.856 443.938 136.808 444.03 136.712C444.126 136.616 444.174 136.494 444.174 136.346V135.32H445.038V136.856H446.52L446.514 137.708H445.032L445.038 141.608C445.038 141.776 445.086 141.908 445.182 142.004C445.282 142.1 445.414 142.148 445.578 142.148H446.514V143H445.518Z" fill="white"/>
<path d="M59 169.971L59.35 169.971L59 169.971ZM336 81L333.979 84.5L338.021 84.5L336 81ZM59.35 367L59.35 169.971L58.65 169.971L58.65 367L59.35 367ZM73 156.321L322 156.321L322 155.621L73 155.621L73 156.321ZM336.35 141.971L336.35 84.15L335.65 84.15L335.65 141.971L336.35 141.971ZM322 156.321C329.925 156.321 336.35 149.896 336.35 141.971L335.65 141.971C335.65 149.51 329.539 155.621 322 155.621L322 156.321ZM59.35 169.971C59.35 162.432 65.4613 156.321 73 156.321L73 155.621C65.0747 155.621 58.65 162.046 58.65 169.971L59.35 169.971Z" fill="black"/>
<rect x="29" y="367" width="60" height="30" rx="12" fill="url(#paint0_radial_1558_44)"/>
<rect x="113" y="367" width="60" height="30" rx="12" fill="url(#paint1_radial_1558_44)"/>
<rect x="197" y="366" width="60" height="30" rx="12" fill="url(#paint2_radial_1558_44)"/>
<rect x="281" y="366" width="60" height="30" rx="12" fill="url(#paint3_radial_1558_44)"/>
<rect x="365" y="366" width="60" height="30" rx="12" fill="url(#paint4_radial_1558_44)"/>
<rect x="449" y="366" width="60" height="30" rx="12" fill="url(#paint5_radial_1558_44)"/>
<rect x="533" y="366" width="60" height="30" rx="12" fill="url(#paint6_radial_1558_44)"/>
<rect x="617" y="366" width="60" height="30" rx="12" fill="url(#paint7_radial_1558_44)"/>
<path d="M54.1517 387.92V387.008H55.0397C55.2037 387.008 55.3337 386.958 55.4297 386.858C55.5297 386.758 55.5797 386.626 55.5797 386.462V379.856H56.5397V386.54C56.5397 386.816 56.4797 387.058 56.3597 387.266C56.2437 387.474 56.0757 387.634 55.8557 387.746C55.6397 387.862 55.3877 387.92 55.0997 387.92H54.1517ZM55.5137 378.74V377.6H56.6057V378.74H55.5137ZM60.566 386.144C60.066 386.144 59.624 386.066 59.24 385.91C58.86 385.75 58.564 385.53 58.352 385.25C58.144 384.97 58.038 384.652 58.034 384.296H58.994C59.002 384.504 59.072 384.688 59.204 384.848C59.336 385.008 59.516 385.134 59.744 385.226C59.976 385.314 60.24 385.358 60.536 385.358C60.992 385.358 61.346 385.262 61.598 385.07C61.85 384.878 61.976 384.616 61.976 384.284C61.976 384.028 61.898 383.82 61.742 383.66C61.59 383.496 61.364 383.39 61.064 383.342L59.948 383.168C59.412 383.084 58.994 382.89 58.694 382.586C58.394 382.278 58.244 381.896 58.244 381.44C58.244 381.104 58.338 380.806 58.526 380.546C58.718 380.282 58.982 380.078 59.318 379.934C59.658 379.786 60.042 379.712 60.47 379.712C60.91 379.712 61.304 379.786 61.652 379.934C62.004 380.082 62.28 380.288 62.48 380.552C62.684 380.812 62.79 381.108 62.798 381.44H61.838C61.834 381.264 61.77 381.104 61.646 380.96C61.526 380.816 61.362 380.704 61.154 380.624C60.946 380.54 60.714 380.498 60.458 380.498C60.21 380.498 59.986 380.538 59.786 380.618C59.59 380.694 59.436 380.802 59.324 380.942C59.216 381.078 59.162 381.236 59.162 381.416C59.162 381.656 59.234 381.85 59.378 381.998C59.522 382.142 59.734 382.236 60.014 382.28L61.166 382.466C61.726 382.554 62.154 382.754 62.45 383.066C62.75 383.378 62.9 383.776 62.9 384.26C62.9 384.636 62.804 384.966 62.612 385.25C62.42 385.534 62.148 385.754 61.796 385.91C61.444 386.066 61.034 386.144 60.566 386.144Z" fill="white"/>
<path d="M132.486 386.92V386.008H133.374C133.538 386.008 133.668 385.958 133.764 385.858C133.864 385.758 133.914 385.626 133.914 385.462V378.856H134.874V385.54C134.874 385.816 134.814 386.058 134.694 386.266C134.578 386.474 134.41 386.634 134.19 386.746C133.974 386.862 133.722 386.92 133.434 386.92H132.486ZM133.848 377.74V376.6H134.94V377.74H133.848ZM139.506 385H138.486L136.092 378.856H137.136L139.032 383.878L140.892 378.856H141.9L139.506 385ZM150.034 378.712C150.482 378.712 150.874 378.814 151.21 379.018C151.55 379.218 151.81 379.5 151.99 379.864C152.174 380.228 152.266 380.648 152.266 381.124V385H151.306V381.166C151.306 380.646 151.182 380.244 150.934 379.96C150.69 379.672 150.342 379.528 149.89 379.528C149.546 379.528 149.248 379.61 148.996 379.774C148.744 379.934 148.55 380.164 148.414 380.464C148.278 380.764 148.21 381.114 148.21 381.514V385H147.25V381.166C147.25 380.65 147.122 380.248 146.866 379.96C146.61 379.672 146.254 379.528 145.798 379.528C145.454 379.528 145.158 379.61 144.91 379.774C144.666 379.934 144.478 380.164 144.346 380.464C144.218 380.764 144.154 381.114 144.154 381.514V385H143.194V378.856H144.118V379.762C144.31 379.426 144.562 379.168 144.874 378.988C145.19 378.804 145.556 378.712 145.972 378.712C146.42 378.712 146.818 378.82 147.166 379.036C147.514 379.252 147.778 379.55 147.958 379.93C148.166 379.546 148.448 379.248 148.804 379.036C149.164 378.82 149.574 378.712 150.034 378.712Z" fill="white"/>
<path d="M215.981 377.712C216.429 377.712 216.821 377.814 217.157 378.018C217.497 378.218 217.757 378.5 217.937 378.864C218.121 379.228 218.213 379.648 218.213 380.124V384H217.253V380.166C217.253 379.646 217.129 379.244 216.881 378.96C216.637 378.672 216.289 378.528 215.837 378.528C215.493 378.528 215.195 378.61 214.943 378.774C214.691 378.934 214.497 379.164 214.361 379.464C214.225 379.764 214.157 380.114 214.157 380.514V384H213.197V380.166C213.197 379.65 213.069 379.248 212.813 378.96C212.557 378.672 212.201 378.528 211.745 378.528C211.401 378.528 211.105 378.61 210.857 378.774C210.613 378.934 210.425 379.164 210.293 379.464C210.165 379.764 210.101 380.114 210.101 380.514V384H209.141V377.856H210.065V378.762C210.257 378.426 210.509 378.168 210.821 377.988C211.137 377.804 211.503 377.712 211.919 377.712C212.367 377.712 212.765 377.82 213.113 378.036C213.461 378.252 213.725 378.55 213.905 378.93C214.113 378.546 214.395 378.248 214.751 378.036C215.111 377.82 215.521 377.712 215.981 377.712ZM222.462 377.712C222.926 377.712 223.332 377.798 223.68 377.97C224.032 378.138 224.304 378.384 224.496 378.708C224.688 379.032 224.784 379.422 224.784 379.878V384H223.848V383.088C223.66 383.432 223.39 383.694 223.038 383.874C222.69 384.054 222.272 384.144 221.784 384.144C221.38 384.144 221.02 384.07 220.704 383.922C220.392 383.77 220.148 383.56 219.972 383.292C219.8 383.024 219.714 382.718 219.714 382.374C219.714 382.054 219.794 381.76 219.954 381.492C220.118 381.22 220.344 380.998 220.632 380.826C220.92 380.654 221.246 380.55 221.61 380.514L223.404 380.334C223.536 380.322 223.64 380.266 223.716 380.166C223.796 380.066 223.836 379.922 223.836 379.734C223.836 379.49 223.776 379.276 223.656 379.092C223.54 378.908 223.376 378.766 223.164 378.666C222.956 378.566 222.714 378.516 222.438 378.516C222.166 378.516 221.918 378.562 221.694 378.654C221.47 378.746 221.288 378.872 221.148 379.032C221.008 379.192 220.926 379.368 220.902 379.56H219.966C220.002 379.22 220.134 378.91 220.362 378.63C220.59 378.346 220.888 378.122 221.256 377.958C221.624 377.794 222.026 377.712 222.462 377.712ZM221.964 383.394C222.328 383.394 222.652 383.324 222.936 383.184C223.22 383.04 223.44 382.84 223.596 382.584C223.756 382.324 223.836 382.03 223.836 381.702V381.006L221.742 381.222C221.422 381.254 221.164 381.372 220.968 381.576C220.772 381.78 220.674 382.028 220.674 382.32C220.674 382.528 220.728 382.714 220.836 382.878C220.944 383.038 221.096 383.164 221.292 383.256C221.488 383.348 221.712 383.394 221.964 383.394ZM229.282 384.144C228.702 384.144 228.178 384.004 227.71 383.724C227.242 383.444 226.874 383.06 226.606 382.572C226.342 382.08 226.21 381.532 226.21 380.928C226.21 380.324 226.342 379.778 226.606 379.29C226.874 378.798 227.242 378.412 227.71 378.132C228.178 377.852 228.702 377.712 229.282 377.712C229.778 377.712 230.234 377.81 230.65 378.006C231.066 378.198 231.402 378.466 231.658 378.81C231.918 379.15 232.068 379.532 232.108 379.956H231.148C231.1 379.692 230.986 379.454 230.806 379.242C230.63 379.03 230.408 378.864 230.14 378.744C229.876 378.624 229.59 378.564 229.282 378.564C228.89 378.564 228.536 378.668 228.22 378.876C227.908 379.08 227.662 379.362 227.482 379.722C227.306 380.082 227.218 380.484 227.218 380.928C227.218 381.372 227.306 381.774 227.482 382.134C227.662 382.494 227.908 382.776 228.22 382.98C228.536 383.184 228.89 383.286 229.282 383.286C229.59 383.286 229.876 383.228 230.14 383.112C230.408 382.996 230.63 382.838 230.806 382.638C230.986 382.434 231.1 382.208 231.148 381.96H232.108C232.072 382.372 231.924 382.744 231.664 383.076C231.408 383.408 231.072 383.67 230.656 383.862C230.24 384.05 229.782 384.144 229.282 384.144ZM236.255 384.144C235.671 384.144 235.145 384.006 234.677 383.73C234.209 383.45 233.841 383.066 233.573 382.578C233.305 382.09 233.171 381.54 233.171 380.928C233.171 380.316 233.305 379.766 233.573 379.278C233.841 378.79 234.211 378.408 234.683 378.132C235.155 377.852 235.683 377.712 236.267 377.712C236.851 377.712 237.379 377.852 237.851 378.132C238.323 378.408 238.693 378.79 238.961 379.278C239.229 379.766 239.363 380.316 239.363 380.928C239.363 381.54 239.227 382.09 238.955 382.578C238.687 383.066 238.317 383.45 237.845 383.73C237.373 384.006 236.843 384.144 236.255 384.144ZM236.267 383.256C236.667 383.256 237.025 383.16 237.341 382.968C237.657 382.772 237.905 382.498 238.085 382.146C238.265 381.794 238.355 381.388 238.355 380.928C238.355 380.468 238.265 380.062 238.085 379.71C237.905 379.354 237.657 379.08 237.341 378.888C237.025 378.692 236.667 378.594 236.267 378.594C235.867 378.594 235.509 378.692 235.193 378.888C234.877 379.08 234.629 379.354 234.449 379.71C234.269 380.062 234.179 380.468 234.179 380.928C234.179 381.388 234.269 381.794 234.449 382.146C234.629 382.498 234.877 382.772 235.193 382.968C235.509 383.16 235.867 383.256 236.267 383.256ZM242.968 384.144C242.468 384.144 242.026 384.066 241.642 383.91C241.262 383.75 240.966 383.53 240.754 383.25C240.546 382.97 240.44 382.652 240.436 382.296H241.396C241.404 382.504 241.474 382.688 241.606 382.848C241.738 383.008 241.918 383.134 242.146 383.226C242.378 383.314 242.642 383.358 242.938 383.358C243.394 383.358 243.748 383.262 244 383.07C244.252 382.878 244.378 382.616 244.378 382.284C244.378 382.028 244.3 381.82 244.144 381.66C243.992 381.496 243.766 381.39 243.466 381.342L242.35 381.168C241.814 381.084 241.396 380.89 241.096 380.586C240.796 380.278 240.646 379.896 240.646 379.44C240.646 379.104 240.74 378.806 240.928 378.546C241.12 378.282 241.384 378.078 241.72 377.934C242.06 377.786 242.444 377.712 242.872 377.712C243.312 377.712 243.706 377.786 244.054 377.934C244.406 378.082 244.682 378.288 244.882 378.552C245.086 378.812 245.192 379.108 245.2 379.44H244.24C244.236 379.264 244.172 379.104 244.048 378.96C243.928 378.816 243.764 378.704 243.556 378.624C243.348 378.54 243.116 378.498 242.86 378.498C242.612 378.498 242.388 378.538 242.188 378.618C241.992 378.694 241.838 378.802 241.726 378.942C241.618 379.078 241.564 379.236 241.564 379.416C241.564 379.656 241.636 379.85 241.78 379.998C241.924 380.142 242.136 380.236 242.416 380.28L243.568 380.466C244.128 380.554 244.556 380.754 244.852 381.066C245.152 381.378 245.302 381.776 245.302 382.26C245.302 382.636 245.206 382.966 245.014 383.25C244.822 383.534 244.55 383.754 244.198 383.91C243.846 384.066 243.436 384.144 242.968 384.144Z" fill="white"/>
<path d="M304.853 384H303.893V377.856H304.853V384ZM303.827 376.74V375.6H304.919V376.74H303.827ZM309.503 384.144C308.919 384.144 308.393 384.006 307.925 383.73C307.457 383.45 307.089 383.066 306.821 382.578C306.553 382.09 306.419 381.54 306.419 380.928C306.419 380.316 306.553 379.766 306.821 379.278C307.089 378.79 307.459 378.408 307.931 378.132C308.403 377.852 308.931 377.712 309.515 377.712C310.099 377.712 310.627 377.852 311.099 378.132C311.571 378.408 311.941 378.79 312.209 379.278C312.477 379.766 312.611 380.316 312.611 380.928C312.611 381.54 312.475 382.09 312.203 382.578C311.935 383.066 311.565 383.45 311.093 383.73C310.621 384.006 310.091 384.144 309.503 384.144ZM309.515 383.256C309.915 383.256 310.273 383.16 310.589 382.968C310.905 382.772 311.153 382.498 311.333 382.146C311.513 381.794 311.603 381.388 311.603 380.928C311.603 380.468 311.513 380.062 311.333 379.71C311.153 379.354 310.905 379.08 310.589 378.888C310.273 378.692 309.915 378.594 309.515 378.594C309.115 378.594 308.757 378.692 308.441 378.888C308.125 379.08 307.877 379.354 307.697 379.71C307.517 380.062 307.427 380.468 307.427 380.928C307.427 381.388 307.517 381.794 307.697 382.146C307.877 382.498 308.125 382.772 308.441 382.968C308.757 383.16 309.115 383.256 309.515 383.256ZM316.216 384.144C315.716 384.144 315.274 384.066 314.89 383.91C314.51 383.75 314.214 383.53 314.002 383.25C313.794 382.97 313.688 382.652 313.684 382.296H314.644C314.652 382.504 314.722 382.688 314.854 382.848C314.986 383.008 315.166 383.134 315.394 383.226C315.626 383.314 315.89 383.358 316.186 383.358C316.642 383.358 316.996 383.262 317.248 383.07C317.5 382.878 317.626 382.616 317.626 382.284C317.626 382.028 317.548 381.82 317.392 381.66C317.24 381.496 317.014 381.39 316.714 381.342L315.598 381.168C315.062 381.084 314.644 380.89 314.344 380.586C314.044 380.278 313.894 379.896 313.894 379.44C313.894 379.104 313.988 378.806 314.176 378.546C314.368 378.282 314.632 378.078 314.968 377.934C315.308 377.786 315.692 377.712 316.12 377.712C316.56 377.712 316.954 377.786 317.302 377.934C317.654 378.082 317.93 378.288 318.13 378.552C318.334 378.812 318.44 379.108 318.448 379.44H317.488C317.484 379.264 317.42 379.104 317.296 378.96C317.176 378.816 317.012 378.704 316.804 378.624C316.596 378.54 316.364 378.498 316.108 378.498C315.86 378.498 315.636 378.538 315.436 378.618C315.24 378.694 315.086 378.802 314.974 378.942C314.866 379.078 314.812 379.236 314.812 379.416C314.812 379.656 314.884 379.85 315.028 379.998C315.172 380.142 315.384 380.236 315.664 380.28L316.816 380.466C317.376 380.554 317.804 380.754 318.1 381.066C318.4 381.378 318.55 381.776 318.55 382.26C318.55 382.636 318.454 382.966 318.262 383.25C318.07 383.534 317.798 383.754 317.446 383.91C317.094 384.066 316.684 384.144 316.216 384.144Z" fill="white"/>
<rect x="485" y="125" width="170" height="31" rx="12" fill="#F2F2F2"/>
<path d="M374.423 384H373.427L371.405 377.856H372.425L373.829 382.374L373.967 382.866L374.087 382.374L375.545 377.856H376.535L377.999 382.374L378.131 382.866L378.257 382.374L379.625 377.856H380.621L378.599 384H377.591L376.151 379.278L376.037 378.882L375.935 379.266L374.423 384ZM384.104 377.712C384.568 377.712 384.974 377.798 385.322 377.97C385.674 378.138 385.946 378.384 386.138 378.708C386.33 379.032 386.426 379.422 386.426 379.878V384H385.49V383.088C385.302 383.432 385.032 383.694 384.68 383.874C384.332 384.054 383.914 384.144 383.426 384.144C383.022 384.144 382.662 384.07 382.346 383.922C382.034 383.77 381.79 383.56 381.614 383.292C381.442 383.024 381.356 382.718 381.356 382.374C381.356 382.054 381.436 381.76 381.596 381.492C381.76 381.22 381.986 380.998 382.274 380.826C382.562 380.654 382.888 380.55 383.252 380.514L385.046 380.334C385.178 380.322 385.282 380.266 385.358 380.166C385.438 380.066 385.478 379.922 385.478 379.734C385.478 379.49 385.418 379.276 385.298 379.092C385.182 378.908 385.018 378.766 384.806 378.666C384.598 378.566 384.356 378.516 384.08 378.516C383.808 378.516 383.56 378.562 383.336 378.654C383.112 378.746 382.93 378.872 382.79 379.032C382.65 379.192 382.568 379.368 382.544 379.56H381.608C381.644 379.22 381.776 378.91 382.004 378.63C382.232 378.346 382.53 378.122 382.898 377.958C383.266 377.794 383.668 377.712 384.104 377.712ZM383.606 383.394C383.97 383.394 384.294 383.324 384.578 383.184C384.862 383.04 385.082 382.84 385.238 382.584C385.398 382.324 385.478 382.03 385.478 381.702V381.006L383.384 381.222C383.064 381.254 382.806 381.372 382.61 381.576C382.414 381.78 382.316 382.028 382.316 382.32C382.316 382.528 382.37 382.714 382.478 382.878C382.586 383.038 382.738 383.164 382.934 383.256C383.13 383.348 383.354 383.394 383.606 383.394ZM390 384C389.556 384 389.204 383.882 388.944 383.646C388.688 383.41 388.56 383.084 388.56 382.668L388.554 378.708H387.474L387.48 377.856H388.146C388.298 377.856 388.42 377.808 388.512 377.712C388.608 377.616 388.656 377.494 388.656 377.346V376.32H389.52V377.856H391.002L390.996 378.708H389.514L389.52 382.608C389.52 382.776 389.568 382.908 389.664 383.004C389.764 383.1 389.896 383.148 390.06 383.148H390.996V384H390ZM395.19 384.144C394.61 384.144 394.086 384.004 393.618 383.724C393.15 383.444 392.782 383.06 392.514 382.572C392.25 382.08 392.118 381.532 392.118 380.928C392.118 380.324 392.25 379.778 392.514 379.29C392.782 378.798 393.15 378.412 393.618 378.132C394.086 377.852 394.61 377.712 395.19 377.712C395.686 377.712 396.142 377.81 396.558 378.006C396.974 378.198 397.31 378.466 397.566 378.81C397.826 379.15 397.976 379.532 398.016 379.956H397.056C397.008 379.692 396.894 379.454 396.714 379.242C396.538 379.03 396.316 378.864 396.048 378.744C395.784 378.624 395.498 378.564 395.19 378.564C394.798 378.564 394.444 378.668 394.128 378.876C393.816 379.08 393.57 379.362 393.39 379.722C393.214 380.082 393.126 380.484 393.126 380.928C393.126 381.372 393.214 381.774 393.39 382.134C393.57 382.494 393.816 382.776 394.128 382.98C394.444 383.184 394.798 383.286 395.19 383.286C395.498 383.286 395.784 383.228 396.048 383.112C396.316 382.996 396.538 382.838 396.714 382.638C396.894 382.434 397.008 382.208 397.056 381.96H398.016C397.98 382.372 397.832 382.744 397.572 383.076C397.316 383.408 396.98 383.67 396.564 383.862C396.148 384.05 395.69 384.144 395.19 384.144ZM402.469 377.712C402.929 377.712 403.331 377.812 403.675 378.012C404.019 378.208 404.283 378.488 404.467 378.852C404.655 379.216 404.749 379.64 404.749 380.124V384H403.789V380.166C403.789 379.65 403.657 379.248 403.393 378.96C403.133 378.672 402.767 378.528 402.295 378.528C401.939 378.528 401.629 378.61 401.365 378.774C401.101 378.934 400.897 379.164 400.753 379.464C400.609 379.76 400.537 380.11 400.537 380.514V384H399.577V375.6H400.537V377.574L400.501 378.792C400.693 378.44 400.955 378.172 401.287 377.988C401.623 377.804 402.017 377.712 402.469 377.712ZM409.253 384.144C408.669 384.144 408.143 384.006 407.675 383.73C407.207 383.45 406.839 383.066 406.571 382.578C406.303 382.09 406.169 381.54 406.169 380.928C406.169 380.316 406.303 379.766 406.571 379.278C406.839 378.79 407.209 378.408 407.681 378.132C408.153 377.852 408.681 377.712 409.265 377.712C409.849 377.712 410.377 377.852 410.849 378.132C411.321 378.408 411.691 378.79 411.959 379.278C412.227 379.766 412.361 380.316 412.361 380.928C412.361 381.54 412.225 382.09 411.953 382.578C411.685 383.066 411.315 383.45 410.843 383.73C410.371 384.006 409.841 384.144 409.253 384.144ZM409.265 383.256C409.665 383.256 410.023 383.16 410.339 382.968C410.655 382.772 410.903 382.498 411.083 382.146C411.263 381.794 411.353 381.388 411.353 380.928C411.353 380.468 411.263 380.062 411.083 379.71C410.903 379.354 410.655 379.08 410.339 378.888C410.023 378.692 409.665 378.594 409.265 378.594C408.865 378.594 408.507 378.692 408.191 378.888C407.875 379.08 407.627 379.354 407.447 379.71C407.267 380.062 407.177 380.468 407.177 380.928C407.177 381.388 407.267 381.794 407.447 382.146C407.627 382.498 407.875 382.772 408.191 382.968C408.507 383.16 408.865 383.256 409.265 383.256ZM415.966 384.144C415.466 384.144 415.024 384.066 414.64 383.91C414.26 383.75 413.964 383.53 413.752 383.25C413.544 382.97 413.438 382.652 413.434 382.296H414.394C414.402 382.504 414.472 382.688 414.604 382.848C414.736 383.008 414.916 383.134 415.144 383.226C415.376 383.314 415.64 383.358 415.936 383.358C416.392 383.358 416.746 383.262 416.998 383.07C417.25 382.878 417.376 382.616 417.376 382.284C417.376 382.028 417.298 381.82 417.142 381.66C416.99 381.496 416.764 381.39 416.464 381.342L415.348 381.168C414.812 381.084 414.394 380.89 414.094 380.586C413.794 380.278 413.644 379.896 413.644 379.44C413.644 379.104 413.738 378.806 413.926 378.546C414.118 378.282 414.382 378.078 414.718 377.934C415.058 377.786 415.442 377.712 415.87 377.712C416.31 377.712 416.704 377.786 417.052 377.934C417.404 378.082 417.68 378.288 417.88 378.552C418.084 378.812 418.19 379.108 418.198 379.44H417.238C417.234 379.264 417.17 379.104 417.046 378.96C416.926 378.816 416.762 378.704 416.554 378.624C416.346 378.54 416.114 378.498 415.858 378.498C415.61 378.498 415.386 378.538 415.186 378.618C414.99 378.694 414.836 378.802 414.724 378.942C414.616 379.078 414.562 379.236 414.562 379.416C414.562 379.656 414.634 379.85 414.778 379.998C414.922 380.142 415.134 380.236 415.414 380.28L416.566 380.466C417.126 380.554 417.554 380.754 417.85 381.066C418.15 381.378 418.3 381.776 418.3 382.26C418.3 382.636 418.204 382.966 418.012 383.25C417.82 383.534 417.548 383.754 417.196 383.91C416.844 384.066 416.434 384.144 415.966 384.144Z" fill="white"/>
<path d="M469.793 385C469.349 385 468.997 384.882 468.737 384.646C468.481 384.41 468.353 384.084 468.353 383.668L468.347 379.708H467.267L467.273 378.856H467.939C468.091 378.856 468.213 378.808 468.305 378.712C468.401 378.616 468.449 378.494 468.449 378.346V377.32H469.313V378.856H470.795L470.789 379.708H469.307L469.313 383.608C469.313 383.776 469.361 383.908 469.457 384.004C469.557 384.1 469.689 384.148 469.853 384.148H470.789V385H469.793ZM475.049 385H474.029L471.635 378.856H472.679L474.575 383.878L476.435 378.856H477.443L475.049 385ZM481.253 385.144C480.669 385.144 480.143 385.006 479.675 384.73C479.207 384.45 478.839 384.066 478.571 383.578C478.303 383.09 478.169 382.54 478.169 381.928C478.169 381.316 478.303 380.766 478.571 380.278C478.839 379.79 479.209 379.408 479.681 379.132C480.153 378.852 480.681 378.712 481.265 378.712C481.849 378.712 482.377 378.852 482.849 379.132C483.321 379.408 483.691 379.79 483.959 380.278C484.227 380.766 484.361 381.316 484.361 381.928C484.361 382.54 484.225 383.09 483.953 383.578C483.685 384.066 483.315 384.45 482.843 384.73C482.371 385.006 481.841 385.144 481.253 385.144ZM481.265 384.256C481.665 384.256 482.023 384.16 482.339 383.968C482.655 383.772 482.903 383.498 483.083 383.146C483.263 382.794 483.353 382.388 483.353 381.928C483.353 381.468 483.263 381.062 483.083 380.71C482.903 380.354 482.655 380.08 482.339 379.888C482.023 379.692 481.665 379.594 481.265 379.594C480.865 379.594 480.507 379.692 480.191 379.888C479.875 380.08 479.627 380.354 479.447 380.71C479.267 381.062 479.177 381.468 479.177 381.928C479.177 382.388 479.267 382.794 479.447 383.146C479.627 383.498 479.875 383.772 480.191 383.968C480.507 384.16 480.865 384.256 481.265 384.256ZM487.966 385.144C487.466 385.144 487.024 385.066 486.64 384.91C486.26 384.75 485.964 384.53 485.752 384.25C485.544 383.97 485.438 383.652 485.434 383.296H486.394C486.402 383.504 486.472 383.688 486.604 383.848C486.736 384.008 486.916 384.134 487.144 384.226C487.376 384.314 487.64 384.358 487.936 384.358C488.392 384.358 488.746 384.262 488.998 384.07C489.25 383.878 489.376 383.616 489.376 383.284C489.376 383.028 489.298 382.82 489.142 382.66C488.99 382.496 488.764 382.39 488.464 382.342L487.348 382.168C486.812 382.084 486.394 381.89 486.094 381.586C485.794 381.278 485.644 380.896 485.644 380.44C485.644 380.104 485.738 379.806 485.926 379.546C486.118 379.282 486.382 379.078 486.718 378.934C487.058 378.786 487.442 378.712 487.87 378.712C488.31 378.712 488.704 378.786 489.052 378.934C489.404 379.082 489.68 379.288 489.88 379.552C490.084 379.812 490.19 380.108 490.198 380.44H489.238C489.234 380.264 489.17 380.104 489.046 379.96C488.926 379.816 488.762 379.704 488.554 379.624C488.346 379.54 488.114 379.498 487.858 379.498C487.61 379.498 487.386 379.538 487.186 379.618C486.99 379.694 486.836 379.802 486.724 379.942C486.616 380.078 486.562 380.236 486.562 380.416C486.562 380.656 486.634 380.85 486.778 380.998C486.922 381.142 487.134 381.236 487.414 381.28L488.566 381.466C489.126 381.554 489.554 381.754 489.85 382.066C490.15 382.378 490.3 382.776 490.3 383.26C490.3 383.636 490.204 383.966 490.012 384.25C489.82 384.534 489.548 384.754 489.196 384.91C488.844 385.066 488.434 385.144 487.966 385.144Z" fill="white"/>
<path d="M551.814 385H550.854V376.6H551.814V385ZM554.838 385H553.878V378.856H554.838V385ZM553.812 377.74V376.6H554.904V377.74H553.812ZM559.793 378.712C560.253 378.712 560.655 378.812 560.999 379.012C561.343 379.208 561.607 379.488 561.791 379.852C561.979 380.216 562.073 380.64 562.073 381.124V385H561.113V381.196C561.113 380.672 560.977 380.264 560.705 379.972C560.437 379.676 560.063 379.528 559.583 379.528C559.239 379.528 558.937 379.602 558.677 379.75C558.417 379.894 558.215 380.102 558.071 380.374C557.931 380.646 557.861 380.966 557.861 381.334V385H556.901V378.856H557.825V379.798C558.021 379.438 558.285 379.168 558.617 378.988C558.949 378.804 559.341 378.712 559.793 378.712ZM568.059 378.856H569.019V385H568.095V384.058C567.899 384.418 567.635 384.69 567.303 384.874C566.971 385.054 566.579 385.144 566.127 385.144C565.667 385.144 565.265 385.046 564.921 384.85C564.577 384.65 564.311 384.368 564.123 384.004C563.939 383.64 563.847 383.216 563.847 382.732V378.856H564.807V382.66C564.807 383.184 564.941 383.594 565.209 383.89C565.481 384.182 565.857 384.328 566.337 384.328C566.681 384.328 566.983 384.256 567.243 384.112C567.503 383.964 567.703 383.754 567.843 383.482C567.987 383.21 568.059 382.89 568.059 382.522V378.856ZM573.637 381.85L575.869 385H574.777L573.085 382.582L571.411 385H570.361L572.599 381.832L570.481 378.856H571.573L573.145 381.1L574.699 378.856H575.749L573.637 381.85Z" fill="white"/>
<path d="M635.753 377.712C636.201 377.712 636.593 377.814 636.929 378.018C637.269 378.218 637.529 378.5 637.709 378.864C637.893 379.228 637.985 379.648 637.985 380.124V384H637.025V380.166C637.025 379.646 636.901 379.244 636.653 378.96C636.409 378.672 636.061 378.528 635.609 378.528C635.265 378.528 634.967 378.61 634.715 378.774C634.463 378.934 634.269 379.164 634.133 379.464C633.997 379.764 633.929 380.114 633.929 380.514V384H632.969V380.166C632.969 379.65 632.841 379.248 632.585 378.96C632.329 378.672 631.973 378.528 631.517 378.528C631.173 378.528 630.877 378.61 630.629 378.774C630.385 378.934 630.197 379.164 630.065 379.464C629.937 379.764 629.873 380.114 629.873 380.514V384H628.913V377.856H629.837V378.762C630.029 378.426 630.281 378.168 630.593 377.988C630.909 377.804 631.275 377.712 631.691 377.712C632.139 377.712 632.537 377.82 632.885 378.036C633.233 378.252 633.497 378.55 633.677 378.93C633.885 378.546 634.167 378.248 634.523 378.036C634.883 377.82 635.293 377.712 635.753 377.712ZM640.865 384H639.905V377.856H640.865V384ZM639.839 376.74V375.6H640.931V376.74H639.839ZM645.82 377.712C646.28 377.712 646.682 377.812 647.026 378.012C647.37 378.208 647.634 378.488 647.818 378.852C648.006 379.216 648.1 379.64 648.1 380.124V384H647.14V380.196C647.14 379.672 647.004 379.264 646.732 378.972C646.464 378.676 646.09 378.528 645.61 378.528C645.266 378.528 644.964 378.602 644.704 378.75C644.444 378.894 644.242 379.102 644.098 379.374C643.958 379.646 643.888 379.966 643.888 380.334V384H642.928V377.856H643.852V378.798C644.048 378.438 644.312 378.168 644.644 377.988C644.976 377.804 645.368 377.712 645.82 377.712ZM654.404 377.856H655.334L655.322 383.514C655.322 384.046 655.208 384.502 654.98 384.882C654.756 385.266 654.432 385.558 654.008 385.758C653.588 385.962 653.092 386.064 652.52 386.064C651.996 386.064 651.528 385.976 651.116 385.8C650.708 385.628 650.382 385.386 650.138 385.074C649.894 384.762 649.75 384.402 649.706 383.994H650.666C650.718 384.234 650.828 384.448 650.996 384.636C651.164 384.828 651.378 384.976 651.638 385.08C651.902 385.188 652.196 385.242 652.52 385.242C653.092 385.242 653.54 385.09 653.864 384.786C654.192 384.486 654.356 384.062 654.356 383.514V383.088L654.374 382.458C654.142 382.786 653.846 383.04 653.486 383.22C653.13 383.396 652.732 383.484 652.292 383.484C651.772 383.484 651.306 383.362 650.894 383.118C650.486 382.874 650.166 382.534 649.934 382.098C649.706 381.662 649.592 381.166 649.592 380.61C649.592 380.054 649.706 379.558 649.934 379.122C650.166 378.686 650.486 378.346 650.894 378.102C651.306 377.858 651.772 377.736 652.292 377.736C652.74 377.736 653.146 377.83 653.51 378.018C653.874 378.202 654.172 378.464 654.404 378.804V377.856ZM652.466 382.644C652.834 382.644 653.162 382.56 653.45 382.392C653.738 382.224 653.962 381.986 654.122 381.678C654.286 381.37 654.368 381.014 654.368 380.61C654.368 380.206 654.286 379.85 654.122 379.542C653.962 379.234 653.738 378.996 653.45 378.828C653.162 378.66 652.834 378.576 652.466 378.576C652.102 378.576 651.778 378.662 651.494 378.834C651.21 379.002 650.99 379.24 650.834 379.548C650.678 379.852 650.6 380.206 650.6 380.61C650.6 381.014 650.678 381.37 650.834 381.678C650.99 381.982 651.21 382.22 651.494 382.392C651.778 382.56 652.102 382.644 652.466 382.644ZM659.623 384H658.627L656.605 377.856H657.625L659.029 382.374L659.167 382.866L659.287 382.374L660.745 377.856H661.735L663.199 382.374L663.331 382.866L663.457 382.374L664.825 377.856H665.821L663.799 384H662.791L661.351 379.278L661.237 378.882L661.135 379.266L659.623 384Z" fill="white"/>
<path d="M345 81L347.021 84.5L342.979 84.5L345 81ZM412.65 120L412.65 113.797L413.35 113.797L413.35 120L412.65 120ZM399 100.147L359 100.147L359 99.4473L399 99.4473L399 100.147ZM344.65 85.7973L344.65 84.15L345.35 84.15L345.35 85.7973L344.65 85.7973ZM359 100.147C351.075 100.147 344.65 93.7226 344.65 85.7973L345.35 85.7973C345.35 93.336 351.461 99.4473 359 99.4473L359 100.147ZM412.65 113.797C412.65 106.259 406.539 100.147 399 100.147L399 99.4473C406.925 99.4473 413.35 105.872 413.35 113.797L412.65 113.797Z" fill="black"/>
<rect x="248" y="24" width="197" height="53" rx="12" fill="#585858"/>
<path d="M310.813 53.144C310.233 53.144 309.709 53.004 309.241 52.724C308.773 52.444 308.405 52.06 308.137 51.572C307.873 51.08 307.741 50.532 307.741 49.928C307.741 49.324 307.873 48.778 308.137 48.29C308.405 47.798 308.773 47.412 309.241 47.132C309.709 46.852 310.233 46.712 310.813 46.712C311.309 46.712 311.765 46.81 312.181 47.006C312.597 47.198 312.933 47.466 313.189 47.81C313.449 48.15 313.599 48.532 313.639 48.956H312.679C312.631 48.692 312.517 48.454 312.337 48.242C312.161 48.03 311.939 47.864 311.671 47.744C311.407 47.624 311.121 47.564 310.813 47.564C310.421 47.564 310.067 47.668 309.751 47.876C309.439 48.08 309.193 48.362 309.013 48.722C308.837 49.082 308.749 49.484 308.749 49.928C308.749 50.372 308.837 50.774 309.013 51.134C309.193 51.494 309.439 51.776 309.751 51.98C310.067 52.184 310.421 52.286 310.813 52.286C311.121 52.286 311.407 52.228 311.671 52.112C311.939 51.996 312.161 51.838 312.337 51.638C312.517 51.434 312.631 51.208 312.679 50.96H313.639C313.603 51.372 313.455 51.744 313.195 52.076C312.939 52.408 312.603 52.67 312.187 52.862C311.771 53.05 311.313 53.144 310.813 53.144ZM317.786 53.144C317.202 53.144 316.676 53.006 316.208 52.73C315.74 52.45 315.372 52.066 315.104 51.578C314.836 51.09 314.702 50.54 314.702 49.928C314.702 49.316 314.836 48.766 315.104 48.278C315.372 47.79 315.742 47.408 316.214 47.132C316.686 46.852 317.214 46.712 317.798 46.712C318.382 46.712 318.91 46.852 319.382 47.132C319.854 47.408 320.224 47.79 320.492 48.278C320.76 48.766 320.894 49.316 320.894 49.928C320.894 50.54 320.758 51.09 320.486 51.578C320.218 52.066 319.848 52.45 319.376 52.73C318.904 53.006 318.374 53.144 317.786 53.144ZM317.798 52.256C318.198 52.256 318.556 52.16 318.872 51.968C319.188 51.772 319.436 51.498 319.616 51.146C319.796 50.794 319.886 50.388 319.886 49.928C319.886 49.468 319.796 49.062 319.616 48.71C319.436 48.354 319.188 48.08 318.872 47.888C318.556 47.692 318.198 47.594 317.798 47.594C317.398 47.594 317.04 47.692 316.724 47.888C316.408 48.08 316.16 48.354 315.98 48.71C315.8 49.062 315.71 49.468 315.71 49.928C315.71 50.388 315.8 50.794 315.98 51.146C316.16 51.498 316.408 51.772 316.724 51.968C317.04 52.16 317.398 52.256 317.798 52.256ZM329.306 46.712C329.754 46.712 330.146 46.814 330.482 47.018C330.822 47.218 331.082 47.5 331.262 47.864C331.446 48.228 331.538 48.648 331.538 49.124V53H330.578V49.166C330.578 48.646 330.454 48.244 330.206 47.96C329.962 47.672 329.614 47.528 329.162 47.528C328.818 47.528 328.52 47.61 328.268 47.774C328.016 47.934 327.822 48.164 327.686 48.464C327.55 48.764 327.482 49.114 327.482 49.514V53H326.522V49.166C326.522 48.65 326.394 48.248 326.138 47.96C325.882 47.672 325.526 47.528 325.07 47.528C324.726 47.528 324.43 47.61 324.182 47.774C323.938 47.934 323.75 48.164 323.618 48.464C323.49 48.764 323.426 49.114 323.426 49.514V53H322.466V46.856H323.39V47.762C323.582 47.426 323.834 47.168 324.146 46.988C324.462 46.804 324.828 46.712 325.244 46.712C325.692 46.712 326.09 46.82 326.438 47.036C326.786 47.252 327.05 47.55 327.23 47.93C327.438 47.546 327.72 47.248 328.076 47.036C328.436 46.82 328.846 46.712 329.306 46.712ZM340.298 46.712C340.746 46.712 341.138 46.814 341.474 47.018C341.814 47.218 342.074 47.5 342.254 47.864C342.438 48.228 342.53 48.648 342.53 49.124V53H341.57V49.166C341.57 48.646 341.446 48.244 341.198 47.96C340.954 47.672 340.606 47.528 340.154 47.528C339.81 47.528 339.512 47.61 339.26 47.774C339.008 47.934 338.814 48.164 338.678 48.464C338.542 48.764 338.474 49.114 338.474 49.514V53H337.514V49.166C337.514 48.65 337.386 48.248 337.13 47.96C336.874 47.672 336.518 47.528 336.062 47.528C335.718 47.528 335.422 47.61 335.174 47.774C334.93 47.934 334.742 48.164 334.61 48.464C334.482 48.764 334.418 49.114 334.418 49.514V53H333.458V46.856H334.382V47.762C334.574 47.426 334.826 47.168 335.138 46.988C335.454 46.804 335.82 46.712 336.236 46.712C336.684 46.712 337.082 46.82 337.43 47.036C337.778 47.252 338.042 47.55 338.222 47.93C338.43 47.546 338.712 47.248 339.068 47.036C339.428 46.82 339.838 46.712 340.298 46.712ZM347.036 53.144C346.452 53.144 345.926 53.006 345.458 52.73C344.99 52.45 344.622 52.066 344.354 51.578C344.086 51.09 343.952 50.54 343.952 49.928C343.952 49.316 344.086 48.766 344.354 48.278C344.622 47.79 344.992 47.408 345.464 47.132C345.936 46.852 346.464 46.712 347.048 46.712C347.632 46.712 348.16 46.852 348.632 47.132C349.104 47.408 349.474 47.79 349.742 48.278C350.01 48.766 350.144 49.316 350.144 49.928C350.144 50.54 350.008 51.09 349.736 51.578C349.468 52.066 349.098 52.45 348.626 52.73C348.154 53.006 347.624 53.144 347.036 53.144ZM347.048 52.256C347.448 52.256 347.806 52.16 348.122 51.968C348.438 51.772 348.686 51.498 348.866 51.146C349.046 50.794 349.136 50.388 349.136 49.928C349.136 49.468 349.046 49.062 348.866 48.71C348.686 48.354 348.438 48.08 348.122 47.888C347.806 47.692 347.448 47.594 347.048 47.594C346.648 47.594 346.29 47.692 345.974 47.888C345.658 48.08 345.41 48.354 345.23 48.71C345.05 49.062 344.96 49.468 344.96 49.928C344.96 50.388 345.05 50.794 345.23 51.146C345.41 51.498 345.658 51.772 345.974 51.968C346.29 52.16 346.648 52.256 347.048 52.256ZM354.608 46.712C355.068 46.712 355.47 46.812 355.814 47.012C356.158 47.208 356.422 47.488 356.606 47.852C356.794 48.216 356.888 48.64 356.888 49.124V53H355.928V49.196C355.928 48.672 355.792 48.264 355.52 47.972C355.252 47.676 354.878 47.528 354.398 47.528C354.054 47.528 353.752 47.602 353.492 47.75C353.232 47.894 353.03 48.102 352.886 48.374C352.746 48.646 352.676 48.966 352.676 49.334V53H351.716V46.856H352.64V47.798C352.836 47.438 353.1 47.168 353.432 46.988C353.764 46.804 354.156 46.712 354.608 46.712ZM360.035 53H359.045V44.6H360.317L363.299 51.47L363.461 51.914L363.617 51.47L366.521 44.6H367.829V53H366.833V46.028L363.875 53H363.005L360.035 46.064V53ZM372.465 46.712C372.929 46.712 373.335 46.798 373.683 46.97C374.035 47.138 374.307 47.384 374.499 47.708C374.691 48.032 374.787 48.422 374.787 48.878V53H373.851V52.088C373.663 52.432 373.393 52.694 373.041 52.874C372.693 53.054 372.275 53.144 371.787 53.144C371.383 53.144 371.023 53.07 370.707 52.922C370.395 52.77 370.151 52.56 369.975 52.292C369.803 52.024 369.717 51.718 369.717 51.374C369.717 51.054 369.797 50.76 369.957 50.492C370.121 50.22 370.347 49.998 370.635 49.826C370.923 49.654 371.249 49.55 371.613 49.514L373.407 49.334C373.539 49.322 373.643 49.266 373.719 49.166C373.799 49.066 373.839 48.922 373.839 48.734C373.839 48.49 373.779 48.276 373.659 48.092C373.543 47.908 373.379 47.766 373.167 47.666C372.959 47.566 372.717 47.516 372.441 47.516C372.169 47.516 371.921 47.562 371.697 47.654C371.473 47.746 371.291 47.872 371.151 48.032C371.011 48.192 370.929 48.368 370.905 48.56H369.969C370.005 48.22 370.137 47.91 370.365 47.63C370.593 47.346 370.891 47.122 371.259 46.958C371.627 46.794 372.029 46.712 372.465 46.712ZM371.967 52.394C372.331 52.394 372.655 52.324 372.939 52.184C373.223 52.04 373.443 51.84 373.599 51.584C373.759 51.324 373.839 51.03 373.839 50.702V50.006L371.745 50.222C371.425 50.254 371.167 50.372 370.971 50.576C370.775 50.78 370.677 51.028 370.677 51.32C370.677 51.528 370.731 51.714 370.839 51.878C370.947 52.038 371.099 52.164 371.295 52.256C371.491 52.348 371.715 52.394 371.967 52.394ZM377.672 53H376.712V46.856H377.672V53ZM376.646 45.74V44.6H377.738V45.74H376.646ZM382.627 46.712C383.087 46.712 383.489 46.812 383.833 47.012C384.177 47.208 384.441 47.488 384.625 47.852C384.813 48.216 384.907 48.64 384.907 49.124V53H383.947V49.196C383.947 48.672 383.811 48.264 383.539 47.972C383.271 47.676 382.897 47.528 382.417 47.528C382.073 47.528 381.771 47.602 381.511 47.75C381.251 47.894 381.049 48.102 380.905 48.374C380.765 48.646 380.695 48.966 380.695 49.334V53H379.735V46.856H380.659V47.798C380.855 47.438 381.119 47.168 381.451 46.988C381.783 46.804 382.175 46.712 382.627 46.712Z" fill="white"/>
<path d="M489.055 144.1C488.628 144.1 488.258 144.017 487.945 143.85C487.631 143.677 487.388 143.433 487.215 143.12C487.041 142.807 486.955 142.443 486.955 142.03V140.47C486.955 140.05 487.041 139.687 487.215 139.38C487.388 139.067 487.631 138.827 487.945 138.66C488.258 138.487 488.628 138.4 489.055 138.4C489.481 138.4 489.851 138.487 490.165 138.66C490.478 138.827 490.721 139.067 490.895 139.38C491.068 139.687 491.155 140.05 491.155 140.47V141.44H487.735V142.03C487.735 142.477 487.848 142.823 488.075 143.07C488.308 143.31 488.635 143.43 489.055 143.43C489.408 143.43 489.695 143.36 489.915 143.22C490.141 143.08 490.285 142.877 490.345 142.61H491.135C491.061 143.07 490.838 143.433 490.465 143.7C490.091 143.967 489.621 144.1 489.055 144.1ZM490.375 140.91V140.47C490.375 140.023 490.261 139.68 490.035 139.44C489.808 139.193 489.481 139.07 489.055 139.07C488.635 139.07 488.308 139.193 488.075 139.44C487.848 139.68 487.735 140.023 487.735 140.47V140.82H490.455L490.375 140.91ZM492.621 144L494.571 141.17L492.741 138.5H493.671L494.831 140.28C494.871 140.347 494.911 140.423 494.951 140.51C494.997 140.59 495.034 140.653 495.061 140.7C495.087 140.653 495.121 140.59 495.161 140.51C495.207 140.423 495.251 140.347 495.291 140.28L496.451 138.5H497.371L495.541 141.18L497.481 144H496.551L495.311 142.12C495.264 142.053 495.217 141.973 495.171 141.88C495.131 141.787 495.094 141.713 495.061 141.66C495.034 141.713 494.994 141.787 494.941 141.88C494.887 141.973 494.837 142.053 494.791 142.12L493.541 144H492.621ZM499.017 145.8V138.5H499.807V139.47H500.017L499.777 139.8C499.777 139.367 499.917 139.027 500.197 138.78C500.484 138.527 500.86 138.4 501.327 138.4C501.88 138.4 502.32 138.583 502.647 138.95C502.98 139.31 503.147 139.803 503.147 140.43V142.06C503.147 142.48 503.07 142.843 502.917 143.15C502.764 143.45 502.55 143.683 502.277 143.85C502.01 144.017 501.694 144.1 501.327 144.1C500.867 144.1 500.494 143.973 500.207 143.72C499.92 143.467 499.777 143.127 499.777 142.7L499.987 143.03H499.797L499.807 144.15V145.8H499.017ZM501.077 143.41C501.477 143.41 501.787 143.29 502.007 143.05C502.234 142.81 502.347 142.47 502.347 142.03V140.47C502.347 140.023 502.234 139.683 502.007 139.45C501.787 139.21 501.477 139.09 501.077 139.09C500.69 139.09 500.38 139.213 500.147 139.46C499.92 139.7 499.807 140.037 499.807 140.47V142.03C499.807 142.463 499.92 142.803 500.147 143.05C500.38 143.29 500.69 143.41 501.077 143.41ZM507.043 144.1C506.616 144.1 506.246 144.017 505.933 143.85C505.62 143.677 505.376 143.433 505.203 143.12C505.03 142.807 504.943 142.443 504.943 142.03V140.47C504.943 140.05 505.03 139.687 505.203 139.38C505.376 139.067 505.62 138.827 505.933 138.66C506.246 138.487 506.616 138.4 507.043 138.4C507.47 138.4 507.84 138.487 508.153 138.66C508.466 138.827 508.71 139.067 508.883 139.38C509.056 139.687 509.143 140.05 509.143 140.47V141.44H505.723V142.03C505.723 142.477 505.836 142.823 506.063 143.07C506.296 143.31 506.623 143.43 507.043 143.43C507.396 143.43 507.683 143.36 507.903 143.22C508.13 143.08 508.273 142.877 508.333 142.61H509.123C509.05 143.07 508.826 143.433 508.453 143.7C508.08 143.967 507.61 144.1 507.043 144.1ZM508.363 140.91V140.47C508.363 140.023 508.25 139.68 508.023 139.44C507.796 139.193 507.47 139.07 507.043 139.07C506.623 139.07 506.296 139.193 506.063 139.44C505.836 139.68 505.723 140.023 505.723 140.47V140.82H508.443L508.363 140.91ZM513.069 144.1C512.642 144.1 512.269 144.017 511.949 143.85C511.629 143.683 511.379 143.447 511.199 143.14C511.026 142.827 510.939 142.457 510.939 142.03V140.47C510.939 140.043 511.026 139.677 511.199 139.37C511.379 139.057 511.629 138.817 511.949 138.65C512.269 138.483 512.642 138.4 513.069 138.4C513.696 138.4 514.199 138.57 514.579 138.91C514.959 139.25 515.156 139.713 515.169 140.3H514.379C514.366 139.92 514.242 139.627 514.009 139.42C513.782 139.213 513.469 139.11 513.069 139.11C512.662 139.11 512.339 139.23 512.099 139.47C511.859 139.703 511.739 140.037 511.739 140.47V142.03C511.739 142.457 511.859 142.79 512.099 143.03C512.339 143.27 512.662 143.39 513.069 143.39C513.469 143.39 513.782 143.287 514.009 143.08C514.242 142.867 514.366 142.573 514.379 142.2H515.169C515.156 142.787 514.959 143.25 514.579 143.59C514.199 143.93 513.696 144.1 513.069 144.1ZM519.635 144C519.175 144 518.818 143.88 518.565 143.64C518.312 143.393 518.185 143.047 518.185 142.6V139.22H516.625V138.5H518.185V136.95H518.985V138.5H521.195V139.22H518.985V142.6C518.985 143.053 519.202 143.28 519.635 143.28H521.095V144H519.635ZM530.277 144V139.77H528.657V139.05H530.277V138.06C530.277 137.64 530.407 137.31 530.667 137.07C530.934 136.823 531.297 136.7 531.757 136.7H533.347V137.42H531.757C531.537 137.42 531.367 137.477 531.247 137.59C531.134 137.697 531.077 137.853 531.077 138.06V139.05H533.347V139.77H531.077V144H530.277ZM537.013 144.1C536.393 144.1 535.897 143.913 535.523 143.54C535.157 143.167 534.973 142.66 534.973 142.02V138.5H535.763V142.02C535.763 142.453 535.873 142.793 536.093 143.04C536.32 143.28 536.627 143.4 537.013 143.4C537.407 143.4 537.717 143.28 537.943 143.04C538.17 142.793 538.283 142.453 538.283 142.02V138.5H539.073V142.02C539.073 142.66 538.887 143.167 538.513 143.54C538.14 143.913 537.64 144.1 537.013 144.1ZM540.99 144V138.5H541.78V139.52H541.98L541.76 139.81C541.76 139.37 541.893 139.027 542.16 138.78C542.433 138.527 542.803 138.4 543.27 138.4C543.816 138.4 544.253 138.573 544.58 138.92C544.906 139.26 545.07 139.723 545.07 140.31V144H544.28V140.4C544.28 139.98 544.17 139.657 543.95 139.43C543.73 139.203 543.43 139.09 543.05 139.09C542.656 139.09 542.346 139.21 542.12 139.45C541.893 139.69 541.78 140.03 541.78 140.47V144H540.99Z" fill="#7F52FF"/>
<path d="M553.162 144V138.5H553.942V139.52H554.132L553.852 140.15C553.858 139.59 553.995 139.16 554.262 138.86C554.528 138.553 554.912 138.4 555.412 138.4C555.992 138.4 556.452 138.583 556.792 138.95C557.138 139.31 557.312 139.797 557.312 140.41V140.74H556.502V140.47C556.502 140.023 556.392 139.68 556.172 139.44C555.952 139.193 555.638 139.07 555.232 139.07C554.838 139.07 554.528 139.193 554.302 139.44C554.075 139.687 553.962 140.03 553.962 140.47V144H553.162ZM560.998 144.1C560.378 144.1 559.881 143.913 559.508 143.54C559.141 143.167 558.958 142.66 558.958 142.02V138.5H559.748V142.02C559.748 142.453 559.858 142.793 560.078 143.04C560.304 143.28 560.611 143.4 560.998 143.4C561.391 143.4 561.701 143.28 561.928 143.04C562.154 142.793 562.268 142.453 562.268 142.02V138.5H563.058V142.02C563.058 142.66 562.871 143.167 562.498 143.54C562.124 143.913 561.624 144.1 560.998 144.1ZM564.974 144V138.5H565.764V139.52H565.964L565.744 139.81C565.744 139.37 565.877 139.027 566.144 138.78C566.417 138.527 566.787 138.4 567.254 138.4C567.801 138.4 568.237 138.573 568.564 138.92C568.891 139.26 569.054 139.723 569.054 140.31V144H568.264V140.4C568.264 139.98 568.154 139.657 567.934 139.43C567.714 139.203 567.414 139.09 567.034 139.09C566.641 139.09 566.331 139.21 566.104 139.45C565.877 139.69 565.764 140.03 565.764 140.47V144H564.974ZM570.98 144V136.7H572.99C573.643 136.7 574.157 136.87 574.53 137.21C574.903 137.543 575.09 138.003 575.09 138.59C575.09 138.923 575.02 139.217 574.88 139.47C574.747 139.717 574.553 139.91 574.3 140.05C574.053 140.183 573.753 140.247 573.4 140.24V140.1C573.78 140.1 574.107 140.177 574.38 140.33C574.66 140.477 574.877 140.693 575.03 140.98C575.183 141.26 575.26 141.593 575.26 141.98C575.26 142.393 575.173 142.753 575 143.06C574.827 143.36 574.58 143.593 574.26 143.76C573.94 143.92 573.557 144 573.11 144H570.98ZM571.75 143.28H573.04C573.487 143.28 573.837 143.163 574.09 142.93C574.35 142.69 574.48 142.367 574.48 141.96C574.48 141.54 574.35 141.203 574.09 140.95C573.837 140.69 573.487 140.56 573.04 140.56H571.75V143.28ZM571.75 139.87H572.99C573.397 139.87 573.717 139.76 573.95 139.54C574.183 139.32 574.3 139.02 574.3 138.64C574.3 138.26 574.183 137.963 573.95 137.75C573.723 137.53 573.403 137.42 572.99 137.42H571.75V139.87ZM579.716 144C579.403 144 579.129 143.94 578.896 143.82C578.669 143.7 578.493 143.527 578.366 143.3C578.239 143.073 578.176 142.807 578.176 142.5V137.42H576.346V136.7H578.966V142.5C578.966 142.747 579.033 142.94 579.166 143.08C579.299 143.213 579.483 143.28 579.716 143.28H581.466V144H579.716ZM584.992 144.09C584.566 144.09 584.196 144.007 583.882 143.84C583.569 143.673 583.326 143.433 583.152 143.12C582.979 142.807 582.892 142.437 582.892 142.01V140.49C582.892 140.057 582.979 139.687 583.152 139.38C583.326 139.067 583.569 138.827 583.882 138.66C584.196 138.493 584.566 138.41 584.992 138.41C585.419 138.41 585.789 138.493 586.102 138.66C586.416 138.827 586.659 139.067 586.832 139.38C587.006 139.687 587.092 140.053 587.092 140.48V142.01C587.092 142.437 587.006 142.807 586.832 143.12C586.659 143.433 586.416 143.673 586.102 143.84C585.789 144.007 585.419 144.09 584.992 144.09ZM584.992 143.38C585.406 143.38 585.726 143.263 585.952 143.03C586.179 142.797 586.292 142.457 586.292 142.01V140.49C586.292 140.043 586.176 139.703 585.942 139.47C585.716 139.237 585.399 139.12 584.992 139.12C584.586 139.12 584.266 139.237 584.032 139.47C583.806 139.703 583.692 140.043 583.692 140.49V142.01C583.692 142.457 583.806 142.797 584.032 143.03C584.266 143.263 584.586 143.38 584.992 143.38ZM591.018 144.1C590.592 144.1 590.218 144.017 589.898 143.85C589.578 143.683 589.328 143.447 589.148 143.14C588.975 142.827 588.888 142.457 588.888 142.03V140.47C588.888 140.043 588.975 139.677 589.148 139.37C589.328 139.057 589.578 138.817 589.898 138.65C590.218 138.483 590.592 138.4 591.018 138.4C591.645 138.4 592.148 138.57 592.528 138.91C592.908 139.25 593.105 139.713 593.118 140.3H592.328C592.315 139.92 592.192 139.627 591.958 139.42C591.732 139.213 591.418 139.11 591.018 139.11C590.612 139.11 590.288 139.23 590.048 139.47C589.808 139.703 589.688 140.037 589.688 140.47V142.03C589.688 142.457 589.808 142.79 590.048 143.03C590.288 143.27 590.612 143.39 591.018 143.39C591.418 143.39 591.732 143.287 591.958 143.08C592.192 142.867 592.315 142.573 592.328 142.2H593.118C593.105 142.787 592.908 143.25 592.528 143.59C592.148 143.93 591.645 144.1 591.018 144.1ZM594.984 144V136.7H595.774V140.81H596.904L598.534 138.5H599.454L597.604 141.12L599.484 144H598.554L596.914 141.5H595.774V144H594.984ZM600.86 144V143.28H602.82V139.22H601.11V138.5H603.62V143.28H605.48V144H600.86ZM603.13 137.49C602.924 137.49 602.757 137.437 602.63 137.33C602.51 137.223 602.45 137.077 602.45 136.89C602.45 136.697 602.51 136.543 602.63 136.43C602.757 136.317 602.924 136.26 603.13 136.26C603.337 136.26 603.5 136.317 603.62 136.43C603.747 136.543 603.81 136.697 603.81 136.89C603.81 137.07 603.747 137.217 603.62 137.33C603.5 137.437 603.337 137.49 603.13 137.49ZM606.947 144V138.5H607.737V139.52H607.937L607.717 139.81C607.717 139.37 607.85 139.027 608.117 138.78C608.39 138.527 608.76 138.4 609.227 138.4C609.773 138.4 610.21 138.573 610.537 138.92C610.863 139.26 611.027 139.723 611.027 140.31V144H610.237V140.4C610.237 139.98 610.127 139.657 609.907 139.43C609.687 139.203 609.387 139.09 609.007 139.09C608.613 139.09 608.303 139.21 608.077 139.45C607.85 139.69 607.737 140.03 607.737 140.47V144H606.947ZM613.613 145.8V145.08H615.283C615.596 145.08 615.826 145.007 615.973 144.86C616.126 144.713 616.203 144.49 616.203 144.19V143.55L616.223 142.51H616.043L616.233 142.28C616.233 142.693 616.096 143.023 615.823 143.27C615.549 143.517 615.183 143.64 614.723 143.64C614.163 143.64 613.719 143.457 613.393 143.09C613.066 142.717 612.903 142.22 612.903 141.6V140.43C612.903 139.81 613.066 139.317 613.393 138.95C613.719 138.583 614.163 138.4 614.723 138.4C615.183 138.4 615.549 138.523 615.823 138.77C616.096 139.01 616.233 139.337 616.233 139.75L616.053 139.52H616.213V138.5H616.993V144.19C616.993 144.697 616.843 145.09 616.543 145.37C616.249 145.657 615.829 145.8 615.283 145.8H613.613ZM614.953 142.95C615.346 142.95 615.653 142.83 615.873 142.59C616.099 142.343 616.213 142.003 616.213 141.57V140.47C616.213 140.037 616.099 139.7 615.873 139.46C615.653 139.213 615.346 139.09 614.953 139.09C614.553 139.09 614.243 139.21 614.023 139.45C613.803 139.69 613.693 140.03 613.693 140.47V141.57C613.693 142.01 613.803 142.35 614.023 142.59C614.243 142.83 614.553 142.95 614.953 142.95ZM622.819 145.2C621.879 144.967 621.152 144.513 620.639 143.84C620.125 143.167 619.869 142.33 619.869 141.33V139.47C619.869 138.81 619.985 138.22 620.219 137.7C620.459 137.173 620.799 136.73 621.239 136.37C621.679 136.01 622.205 135.753 622.819 135.6V136.36C622.379 136.46 621.999 136.657 621.679 136.95C621.359 137.237 621.112 137.593 620.939 138.02C620.765 138.447 620.679 138.93 620.679 139.47V141.33C620.679 141.857 620.765 142.337 620.939 142.77C621.112 143.197 621.359 143.553 621.679 143.84C621.999 144.12 622.379 144.31 622.819 144.41V145.2ZM628.077 144.1C627.83 144.1 627.637 144.03 627.497 143.89C627.35 143.743 627.277 143.55 627.277 143.31C627.277 143.057 627.35 142.857 627.497 142.71C627.637 142.563 627.83 142.49 628.077 142.49C628.324 142.49 628.52 142.563 628.667 142.71C628.807 142.857 628.877 143.057 628.877 143.31C628.877 143.55 628.807 143.743 628.667 143.89C628.52 144.03 628.324 144.1 628.077 144.1ZM632.967 144.1C632.72 144.1 632.527 144.03 632.387 143.89C632.24 143.743 632.167 143.55 632.167 143.31C632.167 143.057 632.24 142.857 632.387 142.71C632.527 142.563 632.72 142.49 632.967 142.49C633.214 142.49 633.41 142.563 633.557 142.71C633.697 142.857 633.767 143.057 633.767 143.31C633.767 143.55 633.697 143.743 633.557 143.89C633.41 144.03 633.214 144.1 632.967 144.1ZM637.847 144.1C637.6 144.1 637.404 144.03 637.257 143.89C637.117 143.743 637.047 143.55 637.047 143.31C637.047 143.057 637.117 142.857 637.257 142.71C637.404 142.563 637.6 142.49 637.847 142.49C638.094 142.49 638.287 142.563 638.427 142.71C638.574 142.857 638.647 143.057 638.647 143.31C638.647 143.55 638.574 143.743 638.427 143.89C638.287 144.03 638.094 144.1 637.847 144.1ZM643.103 145.2V144.41C643.55 144.31 643.93 144.12 644.243 143.84C644.563 143.553 644.81 143.197 644.983 142.77C645.156 142.337 645.243 141.857 645.243 141.33V139.47C645.243 138.93 645.156 138.447 644.983 138.02C644.81 137.593 644.563 137.237 644.243 136.95C643.923 136.657 643.543 136.46 643.103 136.36V135.6C643.723 135.753 644.25 136.01 644.683 136.37C645.123 136.73 645.46 137.173 645.693 137.7C645.933 138.22 646.053 138.81 646.053 139.47V141.33C646.053 142.33 645.796 143.167 645.283 143.84C644.77 144.513 644.043 144.967 643.103 145.2Z" fill="black"/>
<path d="M605 279.741L605.35 279.741L605 279.741ZM591 265.741L591 266.091L591 265.741ZM493 265.741L493 265.391L493 265.741ZM479 250L481.021 253.5L476.979 253.5L479 250ZM604.65 284L604.65 279.741L605.35 279.741L605.35 284L604.65 284ZM591 266.091L493 266.091L493 265.391L591 265.391L591 266.091ZM493 266.091C485.075 266.091 478.65 259.666 478.65 251.741L479.35 251.741C479.35 259.279 485.461 265.391 493 265.391L493 266.091ZM604.65 279.741C604.65 272.202 598.539 266.091 591 266.091L591 265.391C598.925 265.391 605.35 271.815 605.35 279.741L604.65 279.741Z" fill="black"/>
<path d="M353 279.741L352.65 279.741L353 279.741ZM367 265.741L367 266.091L367 265.741ZM456 265.741L456 265.391L456 265.741ZM470 250L467.979 253.5L472.021 253.5L470 250ZM353.35 284L353.35 279.741L352.65 279.741L352.65 284L353.35 284ZM367 266.091L456 266.091L456 265.391L367 265.391L367 266.091ZM456 266.091C463.925 266.091 470.35 259.666 470.35 251.741L469.65 251.741C469.65 259.279 463.539 265.391 456 265.391L456 266.091ZM353.35 279.741C353.35 272.202 359.461 266.091 367 266.091L367 265.391C359.075 265.391 352.65 271.815 352.65 279.741L353.35 279.741Z" fill="black"/>
<path d="M473 196.907L473.35 196.907L473 196.907ZM459 182.907L459 183.257L459 182.907ZM431 182.907L431 182.557L431 182.907ZM417 163L419.021 166.5L414.979 166.5L417 163ZM472.65 206L472.65 196.907L473.35 196.907L473.35 206L472.65 206ZM459 183.257L431 183.257L431 182.557L459 182.557L459 183.257ZM416.65 168.907L416.65 166.15L417.35 166.15L417.35 168.907L416.65 168.907ZM431 183.257C423.075 183.257 416.65 176.833 416.65 168.907L417.35 168.907C417.35 176.446 423.461 182.557 431 182.557L431 183.257ZM472.65 196.907C472.65 189.369 466.539 183.257 459 183.257L459 182.557C466.925 182.557 473.35 188.982 473.35 196.907L472.65 196.907Z" fill="black"/>
<path d="M227 359.056L226.65 359.056L227 359.056ZM241 345.056L241 345.406L241 345.056ZM334 345.056L334 344.706L334 345.056ZM348 327L345.979 330.5L350.021 330.5L348 327ZM227.35 366L227.35 359.056L226.65 359.056L226.65 366L227.35 366ZM241 345.406L334 345.406L334 344.706L241 344.706L241 345.406ZM348.35 331.056L348.35 330.15L347.65 330.15L347.65 331.056L348.35 331.056ZM334 345.406C341.925 345.406 348.35 338.981 348.35 331.056L347.65 331.056C347.65 338.594 341.539 344.706 334 344.706L334 345.406ZM227.35 359.056C227.35 351.517 233.461 345.406 241 345.406L241 344.706C233.075 344.706 226.65 351.13 226.65 359.056L227.35 359.056Z" fill="black"/>
<path d="M479 359.056L479.35 359.056L479 359.056ZM465 345.056L465 345.406L465 345.056ZM370 345.056L370 344.706L370 345.056ZM356 327L358.021 330.5L353.979 330.5L356 327ZM478.65 366L478.65 359.056L479.35 359.056L479.35 366L478.65 366ZM465 345.406L370 345.406L370 344.706L465 344.706L465 345.406ZM355.65 331.056L355.65 330.15L356.35 330.15L356.35 331.056L355.65 331.056ZM370 345.406C362.075 345.406 355.65 338.981 355.65 331.056L356.35 331.056C356.35 338.594 362.461 344.706 370 344.706L370 345.406ZM478.65 359.056C478.65 351.517 472.539 345.406 465 345.406L465 344.706C472.925 344.706 479.35 351.13 479.35 359.056L478.65 359.056Z" fill="black"/>
<path d="M348 327L345.979 330.5L350.021 330.5L348 327ZM311.35 366L311.35 359.056L310.65 359.056L310.65 366L311.35 366ZM325 345.406L334 345.406L334 344.706L325 344.706L325 345.406ZM348.35 331.056L348.35 330.15L347.65 330.15L347.65 331.056L348.35 331.056ZM334 345.406C341.925 345.406 348.35 338.981 348.35 331.056L347.65 331.056C347.65 338.594 341.539 344.706 334 344.706L334 345.406ZM311.35 359.056C311.35 351.517 317.461 345.406 325 345.406L325 344.706C317.075 344.706 310.65 351.13 310.65 359.056L311.35 359.056Z" fill="black"/>
<path d="M356 327L358.021 330.5L353.979 330.5L356 327ZM394.65 366L394.65 359.056L395.35 359.056L395.35 366L394.65 366ZM381 345.406L370 345.406L370 344.706L381 344.706L381 345.406ZM355.65 331.056L355.65 330.15L356.35 330.15L356.35 331.056L355.65 331.056ZM370 345.406C362.075 345.406 355.65 338.981 355.65 331.056L356.35 331.056C356.35 338.594 362.461 344.706 370 344.706L370 345.406ZM394.65 359.056C394.65 351.517 388.539 345.406 381 345.406L381 344.706C388.925 344.706 395.35 351.13 395.35 359.056L394.65 359.056Z" fill="black"/>
<path d="M59 169.971L59.35 169.971L59 169.971ZM336 81L333.979 84.5L338.021 84.5L336 81ZM59.35 367L59.35 169.971L58.65 169.971L58.65 367L59.35 367ZM73 156.321L322 156.321L322 155.621L73 155.621L73 156.321ZM336.35 141.971L336.35 84.15L335.65 84.15L335.65 141.971L336.35 141.971ZM322 156.321C329.925 156.321 336.35 149.896 336.35 141.971L335.65 141.971C335.65 149.51 329.539 155.621 322 155.621L322 156.321ZM59.35 169.971C59.35 162.432 65.4613 156.321 73 156.321L73 155.621C65.0747 155.621 58.65 162.046 58.65 169.971L59.35 169.971Z" fill="black"/>
<path d="M141 271.445L141.35 271.445L141 271.445ZM155 257.444L155 257.794L155 257.444ZM396 257.444L396 257.094L396 257.444ZM410 163L407.979 166.5L412.021 166.5L410 163ZM141.35 367L141.35 271.445L140.65 271.445L140.65 367L141.35 367ZM155 257.794L396 257.794L396 257.094L155 257.094L155 257.794ZM410.35 243.444L410.35 166.15L409.65 166.15L409.65 243.444L410.35 243.444ZM396 257.794C403.925 257.794 410.35 251.37 410.35 243.444L409.65 243.444C409.65 250.983 403.539 257.094 396 257.094L396 257.794ZM141.35 271.445C141.35 263.906 147.461 257.794 155 257.794L155 257.094C147.075 257.094 140.65 263.519 140.65 271.445L141.35 271.445Z" fill="black"/>
<path d="M602 327L599.979 330.5L604.021 330.5L602 327ZM563.35 366L563.35 359.056L562.65 359.056L562.65 366L563.35 366ZM577 345.406L588 345.406L588 344.706L577 344.706L577 345.406ZM602.35 331.056L602.35 330.15L601.65 330.15L601.65 331.056L602.35 331.056ZM588 345.406C595.925 345.406 602.35 338.981 602.35 331.056L601.65 331.056C601.65 338.594 595.539 344.706 588 344.706L588 345.406ZM563.35 359.056C563.35 351.517 569.461 345.406 577 345.406L577 344.706C569.075 344.706 562.65 351.13 562.65 359.056L563.35 359.056Z" fill="black"/>
<path d="M609 327L611.021 330.5L606.979 330.5L609 327ZM646.65 366L646.65 359.056L647.35 359.056L647.35 366L646.65 366ZM633 345.406L623 345.406L623 344.706L633 344.706L633 345.406ZM608.65 331.056L608.65 330.15L609.35 330.15L609.35 331.056L608.65 331.056ZM623 345.406C615.075 345.406 608.65 338.981 608.65 331.056L609.35 331.056C609.35 338.594 615.461 344.706 623 344.706L623 345.406ZM646.65 359.056C646.65 351.517 640.539 345.406 633 345.406L633 344.706C640.925 344.706 647.35 351.13 647.35 359.056L646.65 359.056Z" fill="black"/>
<defs>
<radialGradient id="paint0_radial_1558_44" cx="0" cy="0" r="1" gradientUnits="userSpaceOnUse" gradientTransform="translate(28.8321 397.452) scale(58.4887 111.034)">
<stop stop-color="#EB4857"/>
<stop offset="0.5" stop-color="#C611E0"/>
<stop offset="1" stop-color="#7F52FF"/>
</radialGradient>
<radialGradient id="paint1_radial_1558_44" cx="0" cy="0" r="1" gradientUnits="userSpaceOnUse" gradientTransform="translate(112.832 397.452) scale(58.4887 111.034)">
<stop stop-color="#EB4857"/>
<stop offset="0.5" stop-color="#C611E0"/>
<stop offset="1" stop-color="#7F52FF"/>
</radialGradient>
<radialGradient id="paint2_radial_1558_44" cx="0" cy="0" r="1" gradientUnits="userSpaceOnUse" gradientTransform="translate(196.832 396.452) scale(58.4887 111.034)">
<stop stop-color="#EB4857"/>
<stop offset="0.5" stop-color="#C611E0"/>
<stop offset="1" stop-color="#7F52FF"/>
</radialGradient>
<radialGradient id="paint3_radial_1558_44" cx="0" cy="0" r="1" gradientUnits="userSpaceOnUse" gradientTransform="translate(280.832 396.452) scale(58.4887 111.034)">
<stop stop-color="#EB4857"/>
<stop offset="0.5" stop-color="#C611E0"/>
<stop offset="1" stop-color="#7F52FF"/>
</radialGradient>
<radialGradient id="paint4_radial_1558_44" cx="0" cy="0" r="1" gradientUnits="userSpaceOnUse" gradientTransform="translate(364.832 396.452) scale(58.4887 111.034)">
<stop stop-color="#EB4857"/>
<stop offset="0.5" stop-color="#C611E0"/>
<stop offset="1" stop-color="#7F52FF"/>
</radialGradient>
<radialGradient id="paint5_radial_1558_44" cx="0" cy="0" r="1" gradientUnits="userSpaceOnUse" gradientTransform="translate(448.832 396.452) scale(58.4887 111.034)">
<stop stop-color="#EB4857"/>
<stop offset="0.5" stop-color="#C611E0"/>
<stop offset="1" stop-color="#7F52FF"/>
</radialGradient>
<radialGradient id="paint6_radial_1558_44" cx="0" cy="0" r="1" gradientUnits="userSpaceOnUse" gradientTransform="translate(532.832 396.452) scale(58.4887 111.034)">
<stop stop-color="#EB4857"/>
<stop offset="0.5" stop-color="#C611E0"/>
<stop offset="1" stop-color="#7F52FF"/>
</radialGradient>
<radialGradient id="paint7_radial_1558_44" cx="0" cy="0" r="1" gradientUnits="userSpaceOnUse" gradientTransform="translate(616.832 396.452) scale(58.4887 111.034)">
<stop stop-color="#EB4857"/>
<stop offset="0.5" stop-color="#C611E0"/>
<stop offset="1" stop-color="#7F52FF"/>
</radialGradient>
</defs>
</svg>
