<svg width="706" height="349" viewBox="0 0 706 349" fill="none" xmlns="http://www.w3.org/2000/svg">
<rect width="706" height="349" fill="white"/>
<rect x="253" y="24" width="197" height="53" rx="12" fill="#585858"/>
<path d="M315.813 53.144C315.233 53.144 314.709 53.004 314.241 52.724C313.773 52.444 313.405 52.06 313.137 51.572C312.873 51.08 312.741 50.532 312.741 49.928C312.741 49.324 312.873 48.778 313.137 48.29C313.405 47.798 313.773 47.412 314.241 47.132C314.709 46.852 315.233 46.712 315.813 46.712C316.309 46.712 316.765 46.81 317.181 47.006C317.597 47.198 317.933 47.466 318.189 47.81C318.449 48.15 318.599 48.532 318.639 48.956H317.679C317.631 48.692 317.517 48.454 317.337 48.242C317.161 48.03 316.939 47.864 316.671 47.744C316.407 47.624 316.121 47.564 315.813 47.564C315.421 47.564 315.067 47.668 314.751 47.876C314.439 48.08 314.193 48.362 314.013 48.722C313.837 49.082 313.749 49.484 313.749 49.928C313.749 50.372 313.837 50.774 314.013 51.134C314.193 51.494 314.439 51.776 314.751 51.98C315.067 52.184 315.421 52.286 315.813 52.286C316.121 52.286 316.407 52.228 316.671 52.112C316.939 51.996 317.161 51.838 317.337 51.638C317.517 51.434 317.631 51.208 317.679 50.96H318.639C318.603 51.372 318.455 51.744 318.195 52.076C317.939 52.408 317.603 52.67 317.187 52.862C316.771 53.05 316.313 53.144 315.813 53.144ZM322.786 53.144C322.202 53.144 321.676 53.006 321.208 52.73C320.74 52.45 320.372 52.066 320.104 51.578C319.836 51.09 319.702 50.54 319.702 49.928C319.702 49.316 319.836 48.766 320.104 48.278C320.372 47.79 320.742 47.408 321.214 47.132C321.686 46.852 322.214 46.712 322.798 46.712C323.382 46.712 323.91 46.852 324.382 47.132C324.854 47.408 325.224 47.79 325.492 48.278C325.76 48.766 325.894 49.316 325.894 49.928C325.894 50.54 325.758 51.09 325.486 51.578C325.218 52.066 324.848 52.45 324.376 52.73C323.904 53.006 323.374 53.144 322.786 53.144ZM322.798 52.256C323.198 52.256 323.556 52.16 323.872 51.968C324.188 51.772 324.436 51.498 324.616 51.146C324.796 50.794 324.886 50.388 324.886 49.928C324.886 49.468 324.796 49.062 324.616 48.71C324.436 48.354 324.188 48.08 323.872 47.888C323.556 47.692 323.198 47.594 322.798 47.594C322.398 47.594 322.04 47.692 321.724 47.888C321.408 48.08 321.16 48.354 320.98 48.71C320.8 49.062 320.71 49.468 320.71 49.928C320.71 50.388 320.8 50.794 320.98 51.146C321.16 51.498 321.408 51.772 321.724 51.968C322.04 52.16 322.398 52.256 322.798 52.256ZM334.306 46.712C334.754 46.712 335.146 46.814 335.482 47.018C335.822 47.218 336.082 47.5 336.262 47.864C336.446 48.228 336.538 48.648 336.538 49.124V53H335.578V49.166C335.578 48.646 335.454 48.244 335.206 47.96C334.962 47.672 334.614 47.528 334.162 47.528C333.818 47.528 333.52 47.61 333.268 47.774C333.016 47.934 332.822 48.164 332.686 48.464C332.55 48.764 332.482 49.114 332.482 49.514V53H331.522V49.166C331.522 48.65 331.394 48.248 331.138 47.96C330.882 47.672 330.526 47.528 330.07 47.528C329.726 47.528 329.43 47.61 329.182 47.774C328.938 47.934 328.75 48.164 328.618 48.464C328.49 48.764 328.426 49.114 328.426 49.514V53H327.466V46.856H328.39V47.762C328.582 47.426 328.834 47.168 329.146 46.988C329.462 46.804 329.828 46.712 330.244 46.712C330.692 46.712 331.09 46.82 331.438 47.036C331.786 47.252 332.05 47.55 332.23 47.93C332.438 47.546 332.72 47.248 333.076 47.036C333.436 46.82 333.846 46.712 334.306 46.712ZM345.298 46.712C345.746 46.712 346.138 46.814 346.474 47.018C346.814 47.218 347.074 47.5 347.254 47.864C347.438 48.228 347.53 48.648 347.53 49.124V53H346.57V49.166C346.57 48.646 346.446 48.244 346.198 47.96C345.954 47.672 345.606 47.528 345.154 47.528C344.81 47.528 344.512 47.61 344.26 47.774C344.008 47.934 343.814 48.164 343.678 48.464C343.542 48.764 343.474 49.114 343.474 49.514V53H342.514V49.166C342.514 48.65 342.386 48.248 342.13 47.96C341.874 47.672 341.518 47.528 341.062 47.528C340.718 47.528 340.422 47.61 340.174 47.774C339.93 47.934 339.742 48.164 339.61 48.464C339.482 48.764 339.418 49.114 339.418 49.514V53H338.458V46.856H339.382V47.762C339.574 47.426 339.826 47.168 340.138 46.988C340.454 46.804 340.82 46.712 341.236 46.712C341.684 46.712 342.082 46.82 342.43 47.036C342.778 47.252 343.042 47.55 343.222 47.93C343.43 47.546 343.712 47.248 344.068 47.036C344.428 46.82 344.838 46.712 345.298 46.712ZM352.036 53.144C351.452 53.144 350.926 53.006 350.458 52.73C349.99 52.45 349.622 52.066 349.354 51.578C349.086 51.09 348.952 50.54 348.952 49.928C348.952 49.316 349.086 48.766 349.354 48.278C349.622 47.79 349.992 47.408 350.464 47.132C350.936 46.852 351.464 46.712 352.048 46.712C352.632 46.712 353.16 46.852 353.632 47.132C354.104 47.408 354.474 47.79 354.742 48.278C355.01 48.766 355.144 49.316 355.144 49.928C355.144 50.54 355.008 51.09 354.736 51.578C354.468 52.066 354.098 52.45 353.626 52.73C353.154 53.006 352.624 53.144 352.036 53.144ZM352.048 52.256C352.448 52.256 352.806 52.16 353.122 51.968C353.438 51.772 353.686 51.498 353.866 51.146C354.046 50.794 354.136 50.388 354.136 49.928C354.136 49.468 354.046 49.062 353.866 48.71C353.686 48.354 353.438 48.08 353.122 47.888C352.806 47.692 352.448 47.594 352.048 47.594C351.648 47.594 351.29 47.692 350.974 47.888C350.658 48.08 350.41 48.354 350.23 48.71C350.05 49.062 349.96 49.468 349.96 49.928C349.96 50.388 350.05 50.794 350.23 51.146C350.41 51.498 350.658 51.772 350.974 51.968C351.29 52.16 351.648 52.256 352.048 52.256ZM359.608 46.712C360.068 46.712 360.47 46.812 360.814 47.012C361.158 47.208 361.422 47.488 361.606 47.852C361.794 48.216 361.888 48.64 361.888 49.124V53H360.928V49.196C360.928 48.672 360.792 48.264 360.52 47.972C360.252 47.676 359.878 47.528 359.398 47.528C359.054 47.528 358.752 47.602 358.492 47.75C358.232 47.894 358.03 48.102 357.886 48.374C357.746 48.646 357.676 48.966 357.676 49.334V53H356.716V46.856H357.64V47.798C357.836 47.438 358.1 47.168 358.432 46.988C358.764 46.804 359.156 46.712 359.608 46.712ZM365.035 53H364.045V44.6H365.317L368.299 51.47L368.461 51.914L368.617 51.47L371.521 44.6H372.829V53H371.833V46.028L368.875 53H368.005L365.035 46.064V53ZM377.465 46.712C377.929 46.712 378.335 46.798 378.683 46.97C379.035 47.138 379.307 47.384 379.499 47.708C379.691 48.032 379.787 48.422 379.787 48.878V53H378.851V52.088C378.663 52.432 378.393 52.694 378.041 52.874C377.693 53.054 377.275 53.144 376.787 53.144C376.383 53.144 376.023 53.07 375.707 52.922C375.395 52.77 375.151 52.56 374.975 52.292C374.803 52.024 374.717 51.718 374.717 51.374C374.717 51.054 374.797 50.76 374.957 50.492C375.121 50.22 375.347 49.998 375.635 49.826C375.923 49.654 376.249 49.55 376.613 49.514L378.407 49.334C378.539 49.322 378.643 49.266 378.719 49.166C378.799 49.066 378.839 48.922 378.839 48.734C378.839 48.49 378.779 48.276 378.659 48.092C378.543 47.908 378.379 47.766 378.167 47.666C377.959 47.566 377.717 47.516 377.441 47.516C377.169 47.516 376.921 47.562 376.697 47.654C376.473 47.746 376.291 47.872 376.151 48.032C376.011 48.192 375.929 48.368 375.905 48.56H374.969C375.005 48.22 375.137 47.91 375.365 47.63C375.593 47.346 375.891 47.122 376.259 46.958C376.627 46.794 377.029 46.712 377.465 46.712ZM376.967 52.394C377.331 52.394 377.655 52.324 377.939 52.184C378.223 52.04 378.443 51.84 378.599 51.584C378.759 51.324 378.839 51.03 378.839 50.702V50.006L376.745 50.222C376.425 50.254 376.167 50.372 375.971 50.576C375.775 50.78 375.677 51.028 375.677 51.32C375.677 51.528 375.731 51.714 375.839 51.878C375.947 52.038 376.099 52.164 376.295 52.256C376.491 52.348 376.715 52.394 376.967 52.394ZM382.672 53H381.712V46.856H382.672V53ZM381.646 45.74V44.6H382.738V45.74H381.646ZM387.627 46.712C388.087 46.712 388.489 46.812 388.833 47.012C389.177 47.208 389.441 47.488 389.625 47.852C389.813 48.216 389.907 48.64 389.907 49.124V53H388.947V49.196C388.947 48.672 388.811 48.264 388.539 47.972C388.271 47.676 387.897 47.528 387.417 47.528C387.073 47.528 386.771 47.602 386.511 47.75C386.251 47.894 386.049 48.102 385.905 48.374C385.765 48.646 385.695 48.966 385.695 49.334V53H384.735V46.856H385.659V47.798C385.855 47.438 386.119 47.168 386.451 46.988C386.783 46.804 387.175 46.712 387.627 46.712Z" fill="white"/>
<path d="M36 300C36 293.373 41.3726 288 48 288H134C140.627 288 146 293.373 146 300V312C146 318.627 140.627 324 134 324H48C41.3726 324 36 318.627 36 312V300Z" fill="url(#paint0_radial_1587_44)"/>
<rect x="297" y="288" width="110" height="36" rx="12" fill="url(#paint1_radial_1587_44)"/>
<rect x="562" y="288" width="110" height="36" rx="12" fill="url(#paint2_radial_1587_44)"/>
<rect x="514" y="165" width="110" height="36" rx="12" fill="url(#paint3_radial_1587_44)"/>
<path d="M544.476 188.92V188.008H545.364C545.528 188.008 545.658 187.958 545.754 187.858C545.854 187.758 545.904 187.626 545.904 187.462V180.856H546.864V187.54C546.864 187.816 546.804 188.058 546.684 188.266C546.568 188.474 546.4 188.634 546.18 188.746C545.964 188.862 545.712 188.92 545.424 188.92H544.476ZM545.838 179.74V178.6H546.93V179.74H545.838ZM551.496 187H550.476L548.082 180.856H549.126L551.022 185.878L552.882 180.856H553.89L551.496 187ZM562.024 180.712C562.472 180.712 562.864 180.814 563.2 181.018C563.54 181.218 563.8 181.5 563.98 181.864C564.164 182.228 564.256 182.648 564.256 183.124V187H563.296V183.166C563.296 182.646 563.172 182.244 562.924 181.96C562.68 181.672 562.332 181.528 561.88 181.528C561.536 181.528 561.238 181.61 560.986 181.774C560.734 181.934 560.54 182.164 560.404 182.464C560.268 182.764 560.2 183.114 560.2 183.514V187H559.24V183.166C559.24 182.65 559.112 182.248 558.856 181.96C558.6 181.672 558.244 181.528 557.788 181.528C557.444 181.528 557.148 181.61 556.9 181.774C556.656 181.934 556.468 182.164 556.336 182.464C556.208 182.764 556.144 183.114 556.144 183.514V187H555.184V180.856H556.108V181.762C556.3 181.426 556.552 181.168 556.864 180.988C557.18 180.804 557.546 180.712 557.962 180.712C558.41 180.712 558.808 180.82 559.156 181.036C559.504 181.252 559.768 181.55 559.948 181.93C560.156 181.546 560.438 181.248 560.794 181.036C561.154 180.82 561.564 180.712 562.024 180.712ZM567.407 187H566.417V178.6H567.689L570.671 185.47L570.833 185.914L570.989 185.47L573.893 178.6H575.201V187H574.205V180.028L571.247 187H570.377L567.407 180.064V187ZM579.837 180.712C580.301 180.712 580.707 180.798 581.055 180.97C581.407 181.138 581.679 181.384 581.871 181.708C582.063 182.032 582.159 182.422 582.159 182.878V187H581.223V186.088C581.035 186.432 580.765 186.694 580.413 186.874C580.065 187.054 579.647 187.144 579.159 187.144C578.755 187.144 578.395 187.07 578.079 186.922C577.767 186.77 577.523 186.56 577.347 186.292C577.175 186.024 577.089 185.718 577.089 185.374C577.089 185.054 577.169 184.76 577.329 184.492C577.493 184.22 577.719 183.998 578.007 183.826C578.295 183.654 578.621 183.55 578.985 183.514L580.779 183.334C580.911 183.322 581.015 183.266 581.091 183.166C581.171 183.066 581.211 182.922 581.211 182.734C581.211 182.49 581.151 182.276 581.031 182.092C580.915 181.908 580.751 181.766 580.539 181.666C580.331 181.566 580.089 181.516 579.813 181.516C579.541 181.516 579.293 181.562 579.069 181.654C578.845 181.746 578.663 181.872 578.523 182.032C578.383 182.192 578.301 182.368 578.277 182.56H577.341C577.377 182.22 577.509 181.91 577.737 181.63C577.965 181.346 578.263 181.122 578.631 180.958C578.999 180.794 579.401 180.712 579.837 180.712ZM579.339 186.394C579.703 186.394 580.027 186.324 580.311 186.184C580.595 186.04 580.815 185.84 580.971 185.584C581.131 185.324 581.211 185.03 581.211 184.702V184.006L579.117 184.222C578.797 184.254 578.539 184.372 578.343 184.576C578.147 184.78 578.049 185.028 578.049 185.32C578.049 185.528 578.103 185.714 578.211 185.878C578.319 186.038 578.471 186.164 578.667 186.256C578.863 186.348 579.087 186.394 579.339 186.394ZM585.043 187H584.083V180.856H585.043V187ZM584.017 179.74V178.6H585.109V179.74H584.017ZM589.998 180.712C590.458 180.712 590.86 180.812 591.204 181.012C591.548 181.208 591.812 181.488 591.996 181.852C592.184 182.216 592.278 182.64 592.278 183.124V187H591.318V183.196C591.318 182.672 591.182 182.264 590.91 181.972C590.642 181.676 590.268 181.528 589.788 181.528C589.444 181.528 589.142 181.602 588.882 181.75C588.622 181.894 588.42 182.102 588.276 182.374C588.136 182.646 588.066 182.966 588.066 183.334V187H587.106V180.856H588.03V181.798C588.226 181.438 588.49 181.168 588.822 180.988C589.154 180.804 589.546 180.712 589.998 180.712Z" fill="white"/>
<rect x="298" y="165" width="110" height="36" rx="12" fill="url(#paint4_radial_1587_44)"/>
<path d="M334.142 188.92V188.008H335.03C335.194 188.008 335.324 187.958 335.42 187.858C335.52 187.758 335.57 187.626 335.57 187.462V180.856H336.53V187.54C336.53 187.816 336.47 188.058 336.35 188.266C336.234 188.474 336.066 188.634 335.846 188.746C335.63 188.862 335.378 188.92 335.09 188.92H334.142ZM335.504 179.74V178.6H336.596V179.74H335.504ZM340.556 187.144C340.056 187.144 339.614 187.066 339.23 186.91C338.85 186.75 338.554 186.53 338.342 186.25C338.134 185.97 338.028 185.652 338.024 185.296H338.984C338.992 185.504 339.062 185.688 339.194 185.848C339.326 186.008 339.506 186.134 339.734 186.226C339.966 186.314 340.23 186.358 340.526 186.358C340.982 186.358 341.336 186.262 341.588 186.07C341.84 185.878 341.966 185.616 341.966 185.284C341.966 185.028 341.888 184.82 341.732 184.66C341.58 184.496 341.354 184.39 341.054 184.342L339.938 184.168C339.402 184.084 338.984 183.89 338.684 183.586C338.384 183.278 338.234 182.896 338.234 182.44C338.234 182.104 338.328 181.806 338.516 181.546C338.708 181.282 338.972 181.078 339.308 180.934C339.648 180.786 340.032 180.712 340.46 180.712C340.9 180.712 341.294 180.786 341.642 180.934C341.994 181.082 342.27 181.288 342.47 181.552C342.674 181.812 342.78 182.108 342.788 182.44H341.828C341.824 182.264 341.76 182.104 341.636 181.96C341.516 181.816 341.352 181.704 341.144 181.624C340.936 181.54 340.704 181.498 340.448 181.498C340.2 181.498 339.976 181.538 339.776 181.618C339.58 181.694 339.426 181.802 339.314 181.942C339.206 182.078 339.152 182.236 339.152 182.416C339.152 182.656 339.224 182.85 339.368 182.998C339.512 183.142 339.724 183.236 340.004 183.28L341.156 183.466C341.716 183.554 342.144 183.754 342.44 184.066C342.74 184.378 342.89 184.776 342.89 185.26C342.89 185.636 342.794 185.966 342.602 186.25C342.41 186.534 342.138 186.754 341.786 186.91C341.434 187.066 341.024 187.144 340.556 187.144ZM345.741 187H344.751V178.6H346.023L349.005 185.47L349.167 185.914L349.323 185.47L352.227 178.6H353.535V187H352.539V180.028L349.581 187H348.711L345.741 180.064V187ZM358.171 180.712C358.635 180.712 359.041 180.798 359.389 180.97C359.741 181.138 360.013 181.384 360.205 181.708C360.397 182.032 360.493 182.422 360.493 182.878V187H359.557V186.088C359.369 186.432 359.099 186.694 358.747 186.874C358.399 187.054 357.981 187.144 357.493 187.144C357.089 187.144 356.729 187.07 356.413 186.922C356.101 186.77 355.857 186.56 355.681 186.292C355.509 186.024 355.423 185.718 355.423 185.374C355.423 185.054 355.503 184.76 355.663 184.492C355.827 184.22 356.053 183.998 356.341 183.826C356.629 183.654 356.955 183.55 357.319 183.514L359.113 183.334C359.245 183.322 359.349 183.266 359.425 183.166C359.505 183.066 359.545 182.922 359.545 182.734C359.545 182.49 359.485 182.276 359.365 182.092C359.249 181.908 359.085 181.766 358.873 181.666C358.665 181.566 358.423 181.516 358.147 181.516C357.875 181.516 357.627 181.562 357.403 181.654C357.179 181.746 356.997 181.872 356.857 182.032C356.717 182.192 356.635 182.368 356.611 182.56H355.675C355.711 182.22 355.843 181.91 356.071 181.63C356.299 181.346 356.597 181.122 356.965 180.958C357.333 180.794 357.735 180.712 358.171 180.712ZM357.673 186.394C358.037 186.394 358.361 186.324 358.645 186.184C358.929 186.04 359.149 185.84 359.305 185.584C359.465 185.324 359.545 185.03 359.545 184.702V184.006L357.451 184.222C357.131 184.254 356.873 184.372 356.677 184.576C356.481 184.78 356.383 185.028 356.383 185.32C356.383 185.528 356.437 185.714 356.545 185.878C356.653 186.038 356.805 186.164 357.001 186.256C357.197 186.348 357.421 186.394 357.673 186.394ZM363.377 187H362.417V180.856H363.377V187ZM362.351 179.74V178.6H363.443V179.74H362.351ZM368.332 180.712C368.792 180.712 369.194 180.812 369.538 181.012C369.882 181.208 370.146 181.488 370.33 181.852C370.518 182.216 370.612 182.64 370.612 183.124V187H369.652V183.196C369.652 182.672 369.516 182.264 369.244 181.972C368.976 181.676 368.602 181.528 368.122 181.528C367.778 181.528 367.476 181.602 367.216 181.75C366.956 181.894 366.754 182.102 366.61 182.374C366.47 182.646 366.4 182.966 366.4 183.334V187H365.44V180.856H366.364V181.798C366.56 181.438 366.824 181.168 367.156 180.988C367.488 180.804 367.88 180.712 368.332 180.712Z" fill="white"/>
<path d="M54.449 310H53.489V301.6H54.449V310ZM57.4725 310H56.5125V303.856H57.4725V310ZM56.4465 302.74V301.6H57.5385V302.74H56.4465ZM62.4279 303.712C62.8879 303.712 63.2899 303.812 63.6339 304.012C63.9779 304.208 64.2419 304.488 64.4259 304.852C64.6139 305.216 64.7079 305.64 64.7079 306.124V310H63.7479V306.196C63.7479 305.672 63.6119 305.264 63.3399 304.972C63.0719 304.676 62.6979 304.528 62.2179 304.528C61.8739 304.528 61.5719 304.602 61.3119 304.75C61.0519 304.894 60.8499 305.102 60.7059 305.374C60.5659 305.646 60.4959 305.966 60.4959 306.334V310H59.5359V303.856H60.4599V304.798C60.6559 304.438 60.9199 304.168 61.2519 303.988C61.5839 303.804 61.9759 303.712 62.4279 303.712ZM70.6938 303.856H71.6537V310H70.7298V309.058C70.5338 309.418 70.2698 309.69 69.9378 309.874C69.6058 310.054 69.2138 310.144 68.7617 310.144C68.3018 310.144 67.8998 310.046 67.5558 309.85C67.2118 309.65 66.9458 309.368 66.7578 309.004C66.5738 308.64 66.4818 308.216 66.4818 307.732V303.856H67.4418V307.66C67.4418 308.184 67.5758 308.594 67.8438 308.89C68.1158 309.182 68.4918 309.328 68.9718 309.328C69.3158 309.328 69.6178 309.256 69.8778 309.112C70.1378 308.964 70.3378 308.754 70.4778 308.482C70.6218 308.21 70.6938 307.89 70.6938 307.522V303.856ZM76.2716 306.85L78.5036 310H77.4116L75.7196 307.582L74.0456 310H72.9956L75.2336 306.832L73.1156 303.856H74.2076L75.7796 306.1L77.3336 303.856H78.3836L76.2716 306.85ZM80.3365 310H79.1965L82.1125 305.734L79.3165 301.6H80.4805L82.4545 304.612L82.7125 304.978L83.1265 304.36L84.9565 301.6H86.0965L83.2765 305.71L86.2165 310H85.0525L82.9345 306.856L82.6645 306.466L82.2145 307.144L80.3365 310ZM90.5415 310.144C90.1215 310.144 89.7115 310.06 89.3115 309.892C88.9155 309.72 88.5835 309.488 88.3155 309.196C87.9995 308.852 87.7575 308.412 87.5895 307.876C87.4255 307.336 87.3435 306.716 87.3435 306.016C87.3435 305.12 87.4835 304.328 87.7635 303.64C88.0435 302.948 88.4335 302.412 88.9335 302.032C89.4375 301.648 90.0115 301.456 90.6555 301.456C91.0795 301.456 91.4875 301.538 91.8795 301.702C92.2715 301.866 92.6015 302.096 92.8695 302.392C93.1415 302.688 93.3155 303.024 93.3915 303.4H92.3835C92.3435 303.192 92.2375 303.008 92.0655 302.848C91.8935 302.684 91.6815 302.558 91.4295 302.47C91.1775 302.378 90.9195 302.332 90.6555 302.332C90.1875 302.332 89.7755 302.482 89.4195 302.782C89.0675 303.082 88.7915 303.514 88.5915 304.078C88.3915 304.642 88.2855 305.31 88.2735 306.082C88.3935 305.778 88.5795 305.504 88.8315 305.26C89.0835 305.012 89.3775 304.818 89.7135 304.678C90.0495 304.538 90.3995 304.468 90.7635 304.468C91.3075 304.468 91.7915 304.59 92.2155 304.834C92.6395 305.074 92.9675 305.41 93.1995 305.842C93.4355 306.27 93.5535 306.758 93.5535 307.306C93.5535 307.858 93.4255 308.35 93.1695 308.782C92.9175 309.21 92.5635 309.544 92.1075 309.784C91.6515 310.024 91.1295 310.144 90.5415 310.144ZM90.5835 309.268C90.9635 309.268 91.2995 309.186 91.5915 309.022C91.8875 308.854 92.1155 308.622 92.2755 308.326C92.4395 308.03 92.5215 307.692 92.5215 307.312C92.5215 306.932 92.4395 306.594 92.2755 306.298C92.1115 305.998 91.8795 305.764 91.5795 305.596C91.2795 305.428 90.9335 305.344 90.5415 305.344C90.1495 305.344 89.7995 305.43 89.4915 305.602C89.1875 305.774 88.9495 306.01 88.7775 306.31C88.6095 306.606 88.5255 306.936 88.5255 307.3C88.5255 307.668 88.6135 308.002 88.7895 308.302C88.9655 308.602 89.2095 308.838 89.5215 309.01C89.8375 309.182 90.1915 309.268 90.5835 309.268ZM99.6698 301.6V307.03H100.978V307.93H99.6698V310H98.6858V307.93H94.4258V306.994L98.6798 301.6H99.6698ZM98.6858 302.908L95.4758 307.03H98.6858V302.908ZM103.785 310H102.795V301.6H104.067L107.049 308.47L107.211 308.914L107.367 308.47L110.271 301.6H111.579V310H110.583V303.028L107.625 310H106.755L103.785 303.064V310ZM116.215 303.712C116.679 303.712 117.085 303.798 117.433 303.97C117.785 304.138 118.057 304.384 118.249 304.708C118.441 305.032 118.537 305.422 118.537 305.878V310H117.601V309.088C117.413 309.432 117.143 309.694 116.791 309.874C116.443 310.054 116.025 310.144 115.537 310.144C115.133 310.144 114.773 310.07 114.457 309.922C114.145 309.77 113.901 309.56 113.725 309.292C113.553 309.024 113.467 308.718 113.467 308.374C113.467 308.054 113.547 307.76 113.707 307.492C113.871 307.22 114.097 306.998 114.385 306.826C114.673 306.654 114.999 306.55 115.363 306.514L117.157 306.334C117.289 306.322 117.393 306.266 117.469 306.166C117.549 306.066 117.589 305.922 117.589 305.734C117.589 305.49 117.529 305.276 117.409 305.092C117.293 304.908 117.129 304.766 116.917 304.666C116.709 304.566 116.467 304.516 116.191 304.516C115.919 304.516 115.671 304.562 115.447 304.654C115.223 304.746 115.041 304.872 114.901 305.032C114.761 305.192 114.679 305.368 114.655 305.56H113.719C113.755 305.22 113.887 304.91 114.115 304.63C114.343 304.346 114.641 304.122 115.009 303.958C115.377 303.794 115.779 303.712 116.215 303.712ZM115.717 309.394C116.081 309.394 116.405 309.324 116.689 309.184C116.973 309.04 117.193 308.84 117.349 308.584C117.509 308.324 117.589 308.03 117.589 307.702V307.006L115.495 307.222C115.175 307.254 114.917 307.372 114.721 307.576C114.525 307.78 114.427 308.028 114.427 308.32C114.427 308.528 114.481 308.714 114.589 308.878C114.697 309.038 114.849 309.164 115.045 309.256C115.241 309.348 115.465 309.394 115.717 309.394ZM121.422 310H120.462V303.856H121.422V310ZM120.396 302.74V301.6H121.488V302.74H120.396ZM126.377 303.712C126.837 303.712 127.239 303.812 127.583 304.012C127.927 304.208 128.191 304.488 128.375 304.852C128.563 305.216 128.657 305.64 128.657 306.124V310H127.697V306.196C127.697 305.672 127.561 305.264 127.289 304.972C127.021 304.676 126.647 304.528 126.167 304.528C125.823 304.528 125.521 304.602 125.261 304.75C125.001 304.894 124.799 305.102 124.655 305.374C124.515 305.646 124.445 305.966 124.445 306.334V310H123.485V303.856H124.409V304.798C124.605 304.438 124.869 304.168 125.201 303.988C125.533 303.804 125.925 303.712 126.377 303.712Z" fill="white"/>
<path d="M315.388 303.712C315.836 303.712 316.228 303.814 316.564 304.018C316.904 304.218 317.164 304.5 317.344 304.864C317.528 305.228 317.62 305.648 317.62 306.124V310H316.66V306.166C316.66 305.646 316.536 305.244 316.288 304.96C316.044 304.672 315.696 304.528 315.244 304.528C314.9 304.528 314.602 304.61 314.35 304.774C314.098 304.934 313.904 305.164 313.768 305.464C313.632 305.764 313.564 306.114 313.564 306.514V310H312.604V306.166C312.604 305.65 312.476 305.248 312.22 304.96C311.964 304.672 311.608 304.528 311.152 304.528C310.808 304.528 310.512 304.61 310.264 304.774C310.02 304.934 309.832 305.164 309.7 305.464C309.572 305.764 309.508 306.114 309.508 306.514V310H308.548V303.856H309.472V304.762C309.664 304.426 309.916 304.168 310.228 303.988C310.544 303.804 310.91 303.712 311.326 303.712C311.774 303.712 312.172 303.82 312.52 304.036C312.868 304.252 313.132 304.55 313.312 304.93C313.52 304.546 313.802 304.248 314.158 304.036C314.518 303.82 314.928 303.712 315.388 303.712ZM320.5 310H319.54V303.856H320.5V310ZM319.474 302.74V301.6H320.566V302.74H319.474ZM325.455 303.712C325.915 303.712 326.317 303.812 326.661 304.012C327.005 304.208 327.269 304.488 327.453 304.852C327.641 305.216 327.735 305.64 327.735 306.124V310H326.775V306.196C326.775 305.672 326.639 305.264 326.367 304.972C326.099 304.676 325.725 304.528 325.245 304.528C324.901 304.528 324.599 304.602 324.339 304.75C324.079 304.894 323.877 305.102 323.733 305.374C323.593 305.646 323.523 305.966 323.523 306.334V310H322.563V303.856H323.487V304.798C323.683 304.438 323.947 304.168 324.279 303.988C324.611 303.804 325.003 303.712 325.455 303.712ZM334.039 303.856H334.969L334.957 309.514C334.957 310.046 334.843 310.502 334.615 310.882C334.391 311.266 334.067 311.558 333.643 311.758C333.223 311.962 332.727 312.064 332.155 312.064C331.631 312.064 331.163 311.976 330.751 311.8C330.343 311.628 330.017 311.386 329.773 311.074C329.529 310.762 329.385 310.402 329.341 309.994H330.301C330.353 310.234 330.463 310.448 330.631 310.636C330.799 310.828 331.013 310.976 331.273 311.08C331.537 311.188 331.831 311.242 332.155 311.242C332.727 311.242 333.175 311.09 333.499 310.786C333.827 310.486 333.991 310.062 333.991 309.514V309.088L334.009 308.458C333.777 308.786 333.481 309.04 333.121 309.22C332.765 309.396 332.367 309.484 331.927 309.484C331.407 309.484 330.941 309.362 330.529 309.118C330.121 308.874 329.801 308.534 329.569 308.098C329.341 307.662 329.227 307.166 329.227 306.61C329.227 306.054 329.341 305.558 329.569 305.122C329.801 304.686 330.121 304.346 330.529 304.102C330.941 303.858 331.407 303.736 331.927 303.736C332.375 303.736 332.781 303.83 333.145 304.018C333.509 304.202 333.807 304.464 334.039 304.804V303.856ZM332.101 308.644C332.469 308.644 332.797 308.56 333.085 308.392C333.373 308.224 333.597 307.986 333.757 307.678C333.921 307.37 334.003 307.014 334.003 306.61C334.003 306.206 333.921 305.85 333.757 305.542C333.597 305.234 333.373 304.996 333.085 304.828C332.797 304.66 332.469 304.576 332.101 304.576C331.737 304.576 331.413 304.662 331.129 304.834C330.845 305.002 330.625 305.24 330.469 305.548C330.313 305.852 330.235 306.206 330.235 306.61C330.235 307.014 330.313 307.37 330.469 307.678C330.625 307.982 330.845 308.22 331.129 308.392C331.413 308.56 331.737 308.644 332.101 308.644ZM339.257 310H338.261L336.239 303.856H337.259L338.663 308.374L338.801 308.866L338.921 308.374L340.379 303.856H341.369L342.833 308.374L342.965 308.866L343.091 308.374L344.459 303.856H345.455L343.433 310H342.425L340.985 305.278L340.871 304.882L340.769 305.266L339.257 310ZM347.278 310H346.138L349.054 305.734L346.258 301.6H347.422L349.396 304.612L349.654 304.978L350.068 304.36L351.898 301.6H353.038L350.218 305.71L353.158 310H351.994L349.876 306.856L349.606 306.466L349.156 307.144L347.278 310ZM357.483 310.144C357.063 310.144 356.653 310.06 356.253 309.892C355.857 309.72 355.525 309.488 355.257 309.196C354.941 308.852 354.699 308.412 354.531 307.876C354.367 307.336 354.285 306.716 354.285 306.016C354.285 305.12 354.425 304.328 354.705 303.64C354.985 302.948 355.375 302.412 355.875 302.032C356.379 301.648 356.953 301.456 357.597 301.456C358.021 301.456 358.429 301.538 358.821 301.702C359.213 301.866 359.543 302.096 359.811 302.392C360.083 302.688 360.257 303.024 360.333 303.4H359.325C359.285 303.192 359.179 303.008 359.007 302.848C358.835 302.684 358.623 302.558 358.371 302.47C358.119 302.378 357.861 302.332 357.597 302.332C357.129 302.332 356.717 302.482 356.361 302.782C356.009 303.082 355.733 303.514 355.533 304.078C355.333 304.642 355.227 305.31 355.215 306.082C355.335 305.778 355.521 305.504 355.773 305.26C356.025 305.012 356.319 304.818 356.655 304.678C356.991 304.538 357.341 304.468 357.705 304.468C358.249 304.468 358.733 304.59 359.157 304.834C359.581 305.074 359.909 305.41 360.141 305.842C360.377 306.27 360.495 306.758 360.495 307.306C360.495 307.858 360.367 308.35 360.111 308.782C359.859 309.21 359.505 309.544 359.049 309.784C358.593 310.024 358.071 310.144 357.483 310.144ZM357.525 309.268C357.905 309.268 358.241 309.186 358.533 309.022C358.829 308.854 359.057 308.622 359.217 308.326C359.381 308.03 359.463 307.692 359.463 307.312C359.463 306.932 359.381 306.594 359.217 306.298C359.053 305.998 358.821 305.764 358.521 305.596C358.221 305.428 357.875 305.344 357.483 305.344C357.091 305.344 356.741 305.43 356.433 305.602C356.129 305.774 355.891 306.01 355.719 306.31C355.551 306.606 355.467 306.936 355.467 307.3C355.467 307.668 355.555 308.002 355.731 308.302C355.907 308.602 356.151 308.838 356.463 309.01C356.779 309.182 357.133 309.268 357.525 309.268ZM366.611 301.6V307.03H367.919V307.93H366.611V310H365.627V307.93H361.367V306.994L365.621 301.6H366.611ZM365.627 302.908L362.417 307.03H365.627V302.908ZM370.727 310H369.737V301.6H371.009L373.991 308.47L374.153 308.914L374.309 308.47L377.213 301.6H378.521V310H377.525V303.028L374.567 310H373.697L370.727 303.064V310ZM383.157 303.712C383.621 303.712 384.027 303.798 384.375 303.97C384.727 304.138 384.999 304.384 385.191 304.708C385.383 305.032 385.479 305.422 385.479 305.878V310H384.543V309.088C384.355 309.432 384.085 309.694 383.733 309.874C383.385 310.054 382.967 310.144 382.479 310.144C382.075 310.144 381.715 310.07 381.399 309.922C381.087 309.77 380.843 309.56 380.667 309.292C380.495 309.024 380.409 308.718 380.409 308.374C380.409 308.054 380.489 307.76 380.649 307.492C380.813 307.22 381.039 306.998 381.327 306.826C381.615 306.654 381.941 306.55 382.305 306.514L384.099 306.334C384.231 306.322 384.335 306.266 384.411 306.166C384.491 306.066 384.531 305.922 384.531 305.734C384.531 305.49 384.471 305.276 384.351 305.092C384.235 304.908 384.071 304.766 383.859 304.666C383.651 304.566 383.409 304.516 383.133 304.516C382.861 304.516 382.613 304.562 382.389 304.654C382.165 304.746 381.983 304.872 381.843 305.032C381.703 305.192 381.621 305.368 381.597 305.56H380.661C380.697 305.22 380.829 304.91 381.057 304.63C381.285 304.346 381.583 304.122 381.951 303.958C382.319 303.794 382.721 303.712 383.157 303.712ZM382.659 309.394C383.023 309.394 383.347 309.324 383.631 309.184C383.915 309.04 384.135 308.84 384.291 308.584C384.451 308.324 384.531 308.03 384.531 307.702V307.006L382.437 307.222C382.117 307.254 381.859 307.372 381.663 307.576C381.467 307.78 381.369 308.028 381.369 308.32C381.369 308.528 381.423 308.714 381.531 308.878C381.639 309.038 381.791 309.164 381.987 309.256C382.183 309.348 382.407 309.394 382.659 309.394ZM388.363 310H387.403V303.856H388.363V310ZM387.337 302.74V301.6H388.429V302.74H387.337ZM393.319 303.712C393.779 303.712 394.181 303.812 394.525 304.012C394.869 304.208 395.133 304.488 395.317 304.852C395.505 305.216 395.599 305.64 395.599 306.124V310H394.639V306.196C394.639 305.672 394.503 305.264 394.231 304.972C393.963 304.676 393.589 304.528 393.109 304.528C392.765 304.528 392.463 304.602 392.203 304.75C391.943 304.894 391.741 305.102 391.597 305.374C391.457 305.646 391.387 305.966 391.387 306.334V310H390.427V303.856H391.351V304.798C391.547 304.438 391.811 304.168 392.143 303.988C392.475 303.804 392.867 303.712 393.319 303.712Z" fill="white"/>
<path d="M580.616 303.712C581.064 303.712 581.456 303.814 581.792 304.018C582.132 304.218 582.392 304.5 582.572 304.864C582.756 305.228 582.848 305.648 582.848 306.124V310H581.888V306.166C581.888 305.646 581.764 305.244 581.516 304.96C581.272 304.672 580.924 304.528 580.472 304.528C580.128 304.528 579.83 304.61 579.578 304.774C579.326 304.934 579.132 305.164 578.996 305.464C578.86 305.764 578.792 306.114 578.792 306.514V310H577.832V306.166C577.832 305.65 577.704 305.248 577.448 304.96C577.192 304.672 576.836 304.528 576.38 304.528C576.036 304.528 575.74 304.61 575.492 304.774C575.248 304.934 575.06 305.164 574.928 305.464C574.8 305.764 574.736 306.114 574.736 306.514V310H573.776V303.856H574.7V304.762C574.892 304.426 575.144 304.168 575.456 303.988C575.772 303.804 576.138 303.712 576.554 303.712C577.002 303.712 577.4 303.82 577.748 304.036C578.096 304.252 578.36 304.55 578.54 304.93C578.748 304.546 579.03 304.248 579.386 304.036C579.746 303.82 580.156 303.712 580.616 303.712ZM587.096 303.712C587.56 303.712 587.966 303.798 588.314 303.97C588.666 304.138 588.938 304.384 589.13 304.708C589.322 305.032 589.418 305.422 589.418 305.878V310H588.482V309.088C588.294 309.432 588.024 309.694 587.672 309.874C587.324 310.054 586.906 310.144 586.418 310.144C586.014 310.144 585.654 310.07 585.338 309.922C585.026 309.77 584.782 309.56 584.606 309.292C584.434 309.024 584.348 308.718 584.348 308.374C584.348 308.054 584.428 307.76 584.588 307.492C584.752 307.22 584.978 306.998 585.266 306.826C585.554 306.654 585.88 306.55 586.244 306.514L588.038 306.334C588.17 306.322 588.274 306.266 588.35 306.166C588.43 306.066 588.47 305.922 588.47 305.734C588.47 305.49 588.41 305.276 588.29 305.092C588.174 304.908 588.01 304.766 587.798 304.666C587.59 304.566 587.348 304.516 587.072 304.516C586.8 304.516 586.552 304.562 586.328 304.654C586.104 304.746 585.922 304.872 585.782 305.032C585.642 305.192 585.56 305.368 585.536 305.56H584.6C584.636 305.22 584.768 304.91 584.996 304.63C585.224 304.346 585.522 304.122 585.89 303.958C586.258 303.794 586.66 303.712 587.096 303.712ZM586.598 309.394C586.962 309.394 587.286 309.324 587.57 309.184C587.854 309.04 588.074 308.84 588.23 308.584C588.39 308.324 588.47 308.03 588.47 307.702V307.006L586.376 307.222C586.056 307.254 585.798 307.372 585.602 307.576C585.406 307.78 585.308 308.028 585.308 308.32C585.308 308.528 585.362 308.714 585.47 308.878C585.578 309.038 585.73 309.164 585.926 309.256C586.122 309.348 586.346 309.394 586.598 309.394ZM593.917 310.144C593.337 310.144 592.813 310.004 592.345 309.724C591.877 309.444 591.509 309.06 591.241 308.572C590.977 308.08 590.845 307.532 590.845 306.928C590.845 306.324 590.977 305.778 591.241 305.29C591.509 304.798 591.877 304.412 592.345 304.132C592.813 303.852 593.337 303.712 593.917 303.712C594.413 303.712 594.869 303.81 595.285 304.006C595.701 304.198 596.037 304.466 596.293 304.81C596.553 305.15 596.703 305.532 596.743 305.956H595.783C595.735 305.692 595.621 305.454 595.441 305.242C595.265 305.03 595.043 304.864 594.775 304.744C594.511 304.624 594.225 304.564 593.917 304.564C593.525 304.564 593.171 304.668 592.855 304.876C592.543 305.08 592.297 305.362 592.117 305.722C591.941 306.082 591.853 306.484 591.853 306.928C591.853 307.372 591.941 307.774 592.117 308.134C592.297 308.494 592.543 308.776 592.855 308.98C593.171 309.184 593.525 309.286 593.917 309.286C594.225 309.286 594.511 309.228 594.775 309.112C595.043 308.996 595.265 308.838 595.441 308.638C595.621 308.434 595.735 308.208 595.783 307.96H596.743C596.707 308.372 596.559 308.744 596.299 309.076C596.043 309.408 595.707 309.67 595.291 309.862C594.875 310.05 594.417 310.144 593.917 310.144ZM600.889 310.144C600.305 310.144 599.779 310.006 599.311 309.73C598.843 309.45 598.475 309.066 598.207 308.578C597.939 308.09 597.805 307.54 597.805 306.928C597.805 306.316 597.939 305.766 598.207 305.278C598.475 304.79 598.845 304.408 599.317 304.132C599.789 303.852 600.317 303.712 600.901 303.712C601.485 303.712 602.013 303.852 602.485 304.132C602.957 304.408 603.327 304.79 603.595 305.278C603.863 305.766 603.997 306.316 603.997 306.928C603.997 307.54 603.861 308.09 603.589 308.578C603.321 309.066 602.951 309.45 602.479 309.73C602.007 310.006 601.477 310.144 600.889 310.144ZM600.901 309.256C601.301 309.256 601.659 309.16 601.975 308.968C602.291 308.772 602.539 308.498 602.719 308.146C602.899 307.794 602.989 307.388 602.989 306.928C602.989 306.468 602.899 306.062 602.719 305.71C602.539 305.354 602.291 305.08 601.975 304.888C601.659 304.692 601.301 304.594 600.901 304.594C600.501 304.594 600.143 304.692 599.827 304.888C599.511 305.08 599.263 305.354 599.083 305.71C598.903 306.062 598.813 306.468 598.813 306.928C598.813 307.388 598.903 307.794 599.083 308.146C599.263 308.498 599.511 308.772 599.827 308.968C600.143 309.16 600.501 309.256 600.901 309.256ZM607.603 310.144C607.103 310.144 606.661 310.066 606.277 309.91C605.897 309.75 605.601 309.53 605.389 309.25C605.181 308.97 605.075 308.652 605.071 308.296H606.031C606.039 308.504 606.109 308.688 606.241 308.848C606.373 309.008 606.553 309.134 606.781 309.226C607.013 309.314 607.277 309.358 607.573 309.358C608.029 309.358 608.383 309.262 608.635 309.07C608.887 308.878 609.013 308.616 609.013 308.284C609.013 308.028 608.935 307.82 608.779 307.66C608.627 307.496 608.401 307.39 608.101 307.342L606.985 307.168C606.449 307.084 606.031 306.89 605.731 306.586C605.431 306.278 605.281 305.896 605.281 305.44C605.281 305.104 605.375 304.806 605.563 304.546C605.755 304.282 606.019 304.078 606.355 303.934C606.695 303.786 607.079 303.712 607.507 303.712C607.947 303.712 608.341 303.786 608.689 303.934C609.041 304.082 609.317 304.288 609.517 304.552C609.721 304.812 609.827 305.108 609.835 305.44H608.875C608.871 305.264 608.807 305.104 608.683 304.96C608.563 304.816 608.399 304.704 608.191 304.624C607.983 304.54 607.751 304.498 607.495 304.498C607.247 304.498 607.023 304.538 606.823 304.618C606.627 304.694 606.473 304.802 606.361 304.942C606.253 305.078 606.199 305.236 606.199 305.416C606.199 305.656 606.271 305.85 606.415 305.998C606.559 306.142 606.771 306.236 607.051 306.28L608.203 306.466C608.763 306.554 609.191 306.754 609.487 307.066C609.787 307.378 609.937 307.776 609.937 308.26C609.937 308.636 609.841 308.966 609.649 309.25C609.457 309.534 609.185 309.754 608.833 309.91C608.481 310.066 608.071 310.144 607.603 310.144ZM612.049 310H610.909L613.825 305.734L611.029 301.6H612.193L614.167 304.612L614.425 304.978L614.839 304.36L616.669 301.6H617.809L614.989 305.71L617.929 310H616.765L614.647 306.856L614.377 306.466L613.927 307.144L612.049 310ZM622.254 310.144C621.834 310.144 621.424 310.06 621.024 309.892C620.628 309.72 620.296 309.488 620.028 309.196C619.712 308.852 619.47 308.412 619.302 307.876C619.138 307.336 619.056 306.716 619.056 306.016C619.056 305.12 619.196 304.328 619.476 303.64C619.756 302.948 620.146 302.412 620.646 302.032C621.15 301.648 621.724 301.456 622.368 301.456C622.792 301.456 623.2 301.538 623.592 301.702C623.984 301.866 624.314 302.096 624.582 302.392C624.854 302.688 625.028 303.024 625.104 303.4H624.096C624.056 303.192 623.95 303.008 623.778 302.848C623.606 302.684 623.394 302.558 623.142 302.47C622.89 302.378 622.632 302.332 622.368 302.332C621.9 302.332 621.488 302.482 621.132 302.782C620.78 303.082 620.504 303.514 620.304 304.078C620.104 304.642 619.998 305.31 619.986 306.082C620.106 305.778 620.292 305.504 620.544 305.26C620.796 305.012 621.09 304.818 621.426 304.678C621.762 304.538 622.112 304.468 622.476 304.468C623.02 304.468 623.504 304.59 623.928 304.834C624.352 305.074 624.68 305.41 624.912 305.842C625.148 306.27 625.266 306.758 625.266 307.306C625.266 307.858 625.138 308.35 624.882 308.782C624.63 309.21 624.276 309.544 623.82 309.784C623.364 310.024 622.842 310.144 622.254 310.144ZM622.296 309.268C622.676 309.268 623.012 309.186 623.304 309.022C623.6 308.854 623.828 308.622 623.988 308.326C624.152 308.03 624.234 307.692 624.234 307.312C624.234 306.932 624.152 306.594 623.988 306.298C623.824 305.998 623.592 305.764 623.292 305.596C622.992 305.428 622.646 305.344 622.254 305.344C621.862 305.344 621.512 305.43 621.204 305.602C620.9 305.774 620.662 306.01 620.49 306.31C620.322 306.606 620.238 306.936 620.238 307.3C620.238 307.668 620.326 308.002 620.502 308.302C620.678 308.602 620.922 308.838 621.234 309.01C621.55 309.182 621.904 309.268 622.296 309.268ZM631.383 301.6V307.03H632.691V307.93H631.383V310H630.399V307.93H626.139V306.994L630.393 301.6H631.383ZM630.399 302.908L627.189 307.03H630.399V302.908ZM635.498 310H634.508V301.6H635.78L638.762 308.47L638.924 308.914L639.08 308.47L641.984 301.6H643.292V310H642.296V303.028L639.338 310H638.468L635.498 303.064V310ZM647.928 303.712C648.392 303.712 648.798 303.798 649.146 303.97C649.498 304.138 649.77 304.384 649.962 304.708C650.154 305.032 650.25 305.422 650.25 305.878V310H649.314V309.088C649.126 309.432 648.856 309.694 648.504 309.874C648.156 310.054 647.738 310.144 647.25 310.144C646.846 310.144 646.486 310.07 646.17 309.922C645.858 309.77 645.614 309.56 645.438 309.292C645.266 309.024 645.18 308.718 645.18 308.374C645.18 308.054 645.26 307.76 645.42 307.492C645.584 307.22 645.81 306.998 646.098 306.826C646.386 306.654 646.712 306.55 647.076 306.514L648.87 306.334C649.002 306.322 649.106 306.266 649.182 306.166C649.262 306.066 649.302 305.922 649.302 305.734C649.302 305.49 649.242 305.276 649.122 305.092C649.006 304.908 648.842 304.766 648.63 304.666C648.422 304.566 648.18 304.516 647.904 304.516C647.632 304.516 647.384 304.562 647.16 304.654C646.936 304.746 646.754 304.872 646.614 305.032C646.474 305.192 646.392 305.368 646.368 305.56H645.432C645.468 305.22 645.6 304.91 645.828 304.63C646.056 304.346 646.354 304.122 646.722 303.958C647.09 303.794 647.492 303.712 647.928 303.712ZM647.43 309.394C647.794 309.394 648.118 309.324 648.402 309.184C648.686 309.04 648.906 308.84 649.062 308.584C649.222 308.324 649.302 308.03 649.302 307.702V307.006L647.208 307.222C646.888 307.254 646.63 307.372 646.434 307.576C646.238 307.78 646.14 308.028 646.14 308.32C646.14 308.528 646.194 308.714 646.302 308.878C646.41 309.038 646.562 309.164 646.758 309.256C646.954 309.348 647.178 309.394 647.43 309.394ZM653.135 310H652.175V303.856H653.135V310ZM652.109 302.74V301.6H653.201V302.74H652.109ZM658.09 303.712C658.55 303.712 658.952 303.812 659.296 304.012C659.64 304.208 659.904 304.488 660.088 304.852C660.276 305.216 660.37 305.64 660.37 306.124V310H659.41V306.196C659.41 305.672 659.274 305.264 659.002 304.972C658.734 304.676 658.36 304.528 657.88 304.528C657.536 304.528 657.234 304.602 656.974 304.75C656.714 304.894 656.512 305.102 656.368 305.374C656.228 305.646 656.158 305.966 656.158 306.334V310H655.198V303.856H656.122V304.798C656.318 304.438 656.582 304.168 656.914 303.988C657.246 303.804 657.638 303.712 658.09 303.712Z" fill="white"/>
<rect x="72" y="165" width="120" height="40" rx="12" fill="#FF688D"/>
<path d="M101.68 182.856H101.686V189H100.762V187.968C100.526 188.344 100.22 188.634 99.8439 188.838C99.4679 189.042 99.0459 189.144 98.5779 189.144C98.0219 189.144 97.5179 189.004 97.0659 188.724C96.6139 188.444 96.2599 188.06 96.0039 187.572C95.7479 187.08 95.6199 186.532 95.6199 185.928C95.6199 185.324 95.7479 184.778 96.0039 184.29C96.2599 183.798 96.6139 183.412 97.0659 183.132C97.5179 182.852 98.0219 182.712 98.5779 182.712C99.0459 182.712 99.4659 182.814 99.8379 183.018C100.214 183.222 100.52 183.512 100.756 183.888L100.72 180.6H101.68V182.856ZM98.6679 188.28C99.0599 188.28 99.4119 188.178 99.7239 187.974C100.04 187.77 100.286 187.49 100.462 187.134C100.638 186.774 100.726 186.372 100.726 185.928C100.726 185.484 100.638 185.084 100.462 184.728C100.286 184.368 100.04 184.086 99.7239 183.882C99.4119 183.678 99.0599 183.576 98.6679 183.576C98.2799 183.576 97.9299 183.678 97.6179 183.882C97.3099 184.086 97.0679 184.368 96.8919 184.728C96.7159 185.084 96.6279 185.484 96.6279 185.928C96.6279 186.372 96.7159 186.774 96.8919 187.134C97.0679 187.49 97.3099 187.77 97.6179 187.974C97.9299 188.178 98.2799 188.28 98.6679 188.28ZM109.07 186.162H104.198C104.234 186.582 104.344 186.954 104.528 187.278C104.712 187.602 104.954 187.854 105.254 188.034C105.554 188.214 105.894 188.304 106.274 188.304C106.53 188.304 106.776 188.264 107.012 188.184C107.248 188.104 107.454 187.992 107.63 187.848C107.806 187.704 107.932 187.54 108.008 187.356H108.932C108.864 187.692 108.698 187.996 108.434 188.268C108.174 188.54 107.848 188.754 107.456 188.91C107.068 189.066 106.654 189.144 106.214 189.144C105.634 189.144 105.114 189.006 104.654 188.73C104.198 188.454 103.842 188.072 103.586 187.584C103.33 187.092 103.202 186.536 103.202 185.916C103.202 185.312 103.332 184.766 103.592 184.278C103.852 183.79 104.21 183.408 104.666 183.132C105.126 182.852 105.642 182.712 106.214 182.712C106.758 182.712 107.246 182.852 107.678 183.132C108.114 183.408 108.454 183.792 108.698 184.284C108.946 184.772 109.07 185.32 109.07 185.928V186.162ZM106.226 183.558C105.686 183.558 105.238 183.72 104.882 184.044C104.526 184.368 104.306 184.81 104.222 185.37H108.068C107.984 184.814 107.778 184.374 107.45 184.05C107.126 183.722 106.718 183.558 106.226 183.558ZM112.671 189.144C112.171 189.144 111.729 189.066 111.345 188.91C110.965 188.75 110.669 188.53 110.457 188.25C110.249 187.97 110.143 187.652 110.139 187.296H111.099C111.107 187.504 111.177 187.688 111.309 187.848C111.441 188.008 111.621 188.134 111.849 188.226C112.081 188.314 112.345 188.358 112.641 188.358C113.097 188.358 113.451 188.262 113.703 188.07C113.955 187.878 114.081 187.616 114.081 187.284C114.081 187.028 114.003 186.82 113.847 186.66C113.695 186.496 113.469 186.39 113.169 186.342L112.053 186.168C111.517 186.084 111.099 185.89 110.799 185.586C110.499 185.278 110.349 184.896 110.349 184.44C110.349 184.104 110.443 183.806 110.631 183.546C110.823 183.282 111.087 183.078 111.423 182.934C111.763 182.786 112.147 182.712 112.575 182.712C113.015 182.712 113.409 182.786 113.757 182.934C114.109 183.082 114.385 183.288 114.585 183.552C114.789 183.812 114.895 184.108 114.903 184.44H113.943C113.939 184.264 113.875 184.104 113.751 183.96C113.631 183.816 113.467 183.704 113.259 183.624C113.051 183.54 112.819 183.498 112.563 183.498C112.315 183.498 112.091 183.538 111.891 183.618C111.695 183.694 111.541 183.802 111.429 183.942C111.321 184.078 111.267 184.236 111.267 184.416C111.267 184.656 111.339 184.85 111.483 184.998C111.627 185.142 111.839 185.236 112.119 185.28L113.271 185.466C113.831 185.554 114.259 185.754 114.555 186.066C114.855 186.378 115.005 186.776 115.005 187.26C115.005 187.636 114.909 187.966 114.717 188.25C114.525 188.534 114.253 188.754 113.901 188.91C113.549 189.066 113.139 189.144 112.671 189.144ZM117.586 189H116.626V180.6H117.586V185.694L120.364 182.856H121.564L118.684 185.778L121.672 189H120.448L117.586 185.898V189ZM124.416 189C123.972 189 123.62 188.882 123.36 188.646C123.104 188.41 122.976 188.084 122.976 187.668L122.97 183.708H121.89L121.896 182.856H122.562C122.714 182.856 122.836 182.808 122.928 182.712C123.024 182.616 123.072 182.494 123.072 182.346V181.32H123.936V182.856H125.418L125.412 183.708H123.93L123.936 187.608C123.936 187.776 123.984 187.908 124.08 188.004C124.18 188.1 124.312 188.148 124.476 188.148H125.412V189H124.416ZM129.618 189.144C129.034 189.144 128.508 189.006 128.04 188.73C127.572 188.45 127.204 188.066 126.936 187.578C126.668 187.09 126.534 186.54 126.534 185.928C126.534 185.316 126.668 184.766 126.936 184.278C127.204 183.79 127.574 183.408 128.046 183.132C128.518 182.852 129.046 182.712 129.63 182.712C130.214 182.712 130.742 182.852 131.214 183.132C131.686 183.408 132.056 183.79 132.324 184.278C132.592 184.766 132.726 185.316 132.726 185.928C132.726 186.54 132.59 187.09 132.318 187.578C132.05 188.066 131.68 188.45 131.208 188.73C130.736 189.006 130.206 189.144 129.618 189.144ZM129.63 188.256C130.03 188.256 130.388 188.16 130.704 187.968C131.02 187.772 131.268 187.498 131.448 187.146C131.628 186.794 131.718 186.388 131.718 185.928C131.718 185.468 131.628 185.062 131.448 184.71C131.268 184.354 131.02 184.08 130.704 183.888C130.388 183.692 130.03 183.594 129.63 183.594C129.23 183.594 128.872 183.692 128.556 183.888C128.24 184.08 127.992 184.354 127.812 184.71C127.632 185.062 127.542 185.468 127.542 185.928C127.542 186.388 127.632 186.794 127.812 187.146C127.992 187.498 128.24 187.772 128.556 187.968C128.872 188.16 129.23 188.256 129.63 188.256ZM137.406 182.712C137.962 182.712 138.466 182.852 138.918 183.132C139.37 183.412 139.724 183.798 139.98 184.29C140.236 184.778 140.364 185.324 140.364 185.928C140.364 186.532 140.236 187.08 139.98 187.572C139.724 188.06 139.37 188.444 138.918 188.724C138.466 189.004 137.962 189.144 137.406 189.144C136.938 189.144 136.516 189.042 136.14 188.838C135.764 188.634 135.458 188.344 135.222 187.968V188.358L135.246 190.932H134.298V182.856H135.222V183.894C135.458 183.514 135.764 183.222 136.14 183.018C136.516 182.814 136.938 182.712 137.406 182.712ZM137.316 188.28C137.704 188.28 138.052 188.178 138.36 187.974C138.672 187.77 138.916 187.49 139.092 187.134C139.268 186.774 139.356 186.372 139.356 185.928C139.356 185.484 139.268 185.084 139.092 184.728C138.916 184.368 138.672 184.086 138.36 183.882C138.052 183.678 137.704 183.576 137.316 183.576C136.924 183.576 136.57 183.678 136.254 183.882C135.942 184.086 135.698 184.368 135.522 184.728C135.346 185.084 135.258 185.484 135.258 185.928C135.258 186.372 135.346 186.774 135.522 187.134C135.698 187.49 135.942 187.77 136.254 187.974C136.57 188.178 136.924 188.28 137.316 188.28ZM143.157 189H142.167V180.6H143.439L146.421 187.47L146.583 187.914L146.739 187.47L149.643 180.6H150.951V189H149.955V182.028L146.997 189H146.127L143.157 182.064V189ZM155.587 182.712C156.051 182.712 156.457 182.798 156.805 182.97C157.157 183.138 157.429 183.384 157.621 183.708C157.813 184.032 157.909 184.422 157.909 184.878V189H156.973V188.088C156.785 188.432 156.515 188.694 156.163 188.874C155.815 189.054 155.397 189.144 154.909 189.144C154.505 189.144 154.145 189.07 153.829 188.922C153.517 188.77 153.273 188.56 153.097 188.292C152.925 188.024 152.839 187.718 152.839 187.374C152.839 187.054 152.919 186.76 153.079 186.492C153.243 186.22 153.469 185.998 153.757 185.826C154.045 185.654 154.371 185.55 154.735 185.514L156.529 185.334C156.661 185.322 156.765 185.266 156.841 185.166C156.921 185.066 156.961 184.922 156.961 184.734C156.961 184.49 156.901 184.276 156.781 184.092C156.665 183.908 156.501 183.766 156.289 183.666C156.081 183.566 155.839 183.516 155.563 183.516C155.291 183.516 155.043 183.562 154.819 183.654C154.595 183.746 154.413 183.872 154.273 184.032C154.133 184.192 154.051 184.368 154.027 184.56H153.091C153.127 184.22 153.259 183.91 153.487 183.63C153.715 183.346 154.013 183.122 154.381 182.958C154.749 182.794 155.151 182.712 155.587 182.712ZM155.089 188.394C155.453 188.394 155.777 188.324 156.061 188.184C156.345 188.04 156.565 187.84 156.721 187.584C156.881 187.324 156.961 187.03 156.961 186.702V186.006L154.867 186.222C154.547 186.254 154.289 186.372 154.093 186.576C153.897 186.78 153.799 187.028 153.799 187.32C153.799 187.528 153.853 187.714 153.961 187.878C154.069 188.038 154.221 188.164 154.417 188.256C154.613 188.348 154.837 188.394 155.089 188.394ZM160.793 189H159.833V182.856H160.793V189ZM159.767 181.74V180.6H160.859V181.74H159.767ZM165.748 182.712C166.208 182.712 166.61 182.812 166.954 183.012C167.298 183.208 167.562 183.488 167.746 183.852C167.934 184.216 168.028 184.64 168.028 185.124V189H167.068V185.196C167.068 184.672 166.932 184.264 166.66 183.972C166.392 183.676 166.018 183.528 165.538 183.528C165.194 183.528 164.892 183.602 164.632 183.75C164.372 183.894 164.17 184.102 164.026 184.374C163.886 184.646 163.816 184.966 163.816 185.334V189H162.856V182.856H163.78V183.798C163.976 183.438 164.24 183.168 164.572 182.988C164.904 182.804 165.296 182.712 165.748 182.712Z" fill="white"/>
<path d="M132 134.963L132.35 134.963L132 134.963ZM347 83L344.979 86.5L349.021 86.5L347 83ZM132.35 165L132.35 134.963L131.65 134.963L131.65 165L132.35 165ZM146 121.313L333 121.313L333 120.613L146 120.613L146 121.313ZM347.35 106.963L347.35 86.15L346.65 86.15L346.65 106.963L347.35 106.963ZM333 121.313C340.925 121.313 347.35 114.888 347.35 106.963L346.65 106.963C346.65 114.502 340.539 120.613 333 120.613L333 121.313ZM132.35 134.963C132.35 127.424 138.461 121.313 146 121.313L146 120.613C138.075 120.613 131.65 127.038 131.65 134.963L132.35 134.963Z" fill="black"/>
<path d="M570 134.963L570.35 134.963L570 134.963ZM357 83L359.021 86.5L354.979 86.5L357 83ZM569.65 165L569.65 134.963L570.35 134.963L570.35 165L569.65 165ZM556 121.313L371 121.313L371 120.613L556 120.613L556 121.313ZM356.65 106.963L356.65 86.15L357.35 86.15L357.35 106.963L356.65 106.963ZM371 121.313C363.075 121.313 356.65 114.888 356.65 106.963L357.35 106.963C357.35 114.502 363.461 120.613 371 120.613L371 121.313ZM569.65 134.963C569.65 127.424 563.539 121.313 556 121.313L556 120.613C563.925 120.613 570.35 127.038 570.35 134.963L569.65 134.963Z" fill="black"/>
<path d="M129 208L126.979 211.5L131.021 211.5L129 208ZM91.35 288L91.35 259.037L90.65 259.037L90.65 288L91.35 288ZM105 245.387L115 245.387L115 244.687L105 244.687L105 245.387ZM129.35 231.037L129.35 211.15L128.65 211.15L128.65 231.037L129.35 231.037ZM115 245.387C122.925 245.387 129.35 238.962 129.35 231.037L128.65 231.037C128.65 238.576 122.539 244.687 115 244.687L115 245.387ZM91.35 259.037C91.35 251.498 97.4613 245.387 105 245.387L105 244.687C97.0747 244.687 90.65 251.112 90.65 259.037L91.35 259.037Z" fill="black"/>
<path d="M618 259.037L617.65 259.037L618 259.037ZM604 245.037L604 245.387L604 245.037ZM149 245.037L149 244.687L149 245.037ZM135 208L137.021 211.5L132.979 211.5L135 208ZM617.65 288L617.65 259.037L618.35 259.037L618.35 288L617.65 288ZM604 245.387L149 245.387L149 244.687L604 244.687L604 245.387ZM134.65 231.037L134.65 211.15L135.35 211.15L135.35 231.037L134.65 231.037ZM149 245.387C141.075 245.387 134.65 238.962 134.65 231.037L135.35 231.037C135.35 238.576 141.461 244.687 149 244.687L149 245.387ZM617.65 259.037C617.65 251.498 611.539 245.387 604 245.387L604 244.687C611.925 244.687 618.35 251.112 618.35 259.037L617.65 259.037Z" fill="black"/>
<path d="M357 259.037L357.35 259.037L357 259.037ZM343 245.037L343 245.387L343 245.037ZM149 245.037L149 244.687L149 245.037ZM135 208L137.021 211.5L132.979 211.5L135 208ZM356.65 288L356.65 259.037L357.35 259.037L357.35 288L356.65 288ZM343 245.387L149 245.387L149 244.687L343 244.687L343 245.387ZM134.65 231.037L134.65 211.15L135.35 211.15L135.35 231.037L134.65 231.037ZM149 245.387C141.075 245.387 134.65 238.962 134.65 231.037L135.35 231.037C135.35 238.576 141.461 244.687 149 244.687L149 245.387ZM356.65 259.037C356.65 251.498 350.539 245.387 343 245.387L343 244.687C350.925 244.687 357.35 251.112 357.35 259.037L356.65 259.037Z" fill="black"/>
<path d="M352 83L349.979 86.5L354.021 86.5L352 83ZM352.35 165L352.35 86.15L351.65 86.15L351.65 165L352.35 165Z" fill="black"/>
<defs>
<radialGradient id="paint0_radial_1587_44" cx="0" cy="0" r="1" gradientUnits="userSpaceOnUse" gradientTransform="translate(35.6921 324.543) scale(107.229 133.24)">
<stop stop-color="#EB4857"/>
<stop offset="0.5" stop-color="#C611E0"/>
<stop offset="1" stop-color="#7F52FF"/>
</radialGradient>
<radialGradient id="paint1_radial_1587_44" cx="0" cy="0" r="1" gradientUnits="userSpaceOnUse" gradientTransform="translate(296.692 324.543) scale(107.229 133.24)">
<stop stop-color="#EB4857"/>
<stop offset="0.5" stop-color="#C611E0"/>
<stop offset="1" stop-color="#7F52FF"/>
</radialGradient>
<radialGradient id="paint2_radial_1587_44" cx="0" cy="0" r="1" gradientUnits="userSpaceOnUse" gradientTransform="translate(561.692 324.543) scale(107.229 133.24)">
<stop stop-color="#EB4857"/>
<stop offset="0.5" stop-color="#C611E0"/>
<stop offset="1" stop-color="#7F52FF"/>
</radialGradient>
<radialGradient id="paint3_radial_1587_44" cx="0" cy="0" r="1" gradientUnits="userSpaceOnUse" gradientTransform="translate(513.692 201.543) scale(107.229 133.24)">
<stop stop-color="#EB4857"/>
<stop offset="0.5" stop-color="#C611E0"/>
<stop offset="1" stop-color="#7F52FF"/>
</radialGradient>
<radialGradient id="paint4_radial_1587_44" cx="0" cy="0" r="1" gradientUnits="userSpaceOnUse" gradientTransform="translate(297.692 201.543) scale(107.229 133.24)">
<stop stop-color="#EB4857"/>
<stop offset="0.5" stop-color="#C611E0"/>
<stop offset="1" stop-color="#7F52FF"/>
</radialGradient>
</defs>
</svg>
