<svg width="706" height="378" viewBox="0 0 706 378" fill="none" xmlns="http://www.w3.org/2000/svg">
<rect width="706" height="378" fill="white"/>
<path d="M545 147.523L544.65 147.523L545 147.523ZM372 94L374.021 97.5L369.979 97.5L372 94ZM544.65 176L544.65 147.523L545.35 147.523L545.35 176L544.65 176ZM531 133.873L386 133.873L386 133.173L531 133.173L531 133.873ZM371.65 119.523L371.65 97.15L372.35 97.15L372.35 119.523L371.65 119.523ZM386 133.873C378.075 133.873 371.65 127.448 371.65 119.523L372.35 119.523C372.35 127.061 378.461 133.173 386 133.173L386 133.873ZM544.65 147.523C544.65 139.984 538.539 133.873 531 133.873L531 133.173C538.925 133.173 545.35 139.597 545.35 147.523L544.65 147.523Z" fill="black"/>
<path d="M166 147.523L166.35 147.523L166 147.523ZM360 94L357.979 97.5L362.021 97.5L360 94ZM166.35 176L166.35 147.523L165.65 147.523L165.65 176L166.35 176ZM180 133.873L346 133.873L346 133.173L180 133.173L180 133.873ZM360.35 119.523L360.35 97.15L359.65 97.15L359.65 119.523L360.35 119.523ZM346 133.873C353.925 133.873 360.35 127.448 360.35 119.523L359.65 119.523C359.65 127.061 353.539 133.173 346 133.173L346 133.873ZM166.35 147.523C166.35 139.984 172.461 133.873 180 133.873L180 133.173C172.075 133.173 165.65 139.597 165.65 147.523L166.35 147.523Z" fill="black"/>
<rect x="143" y="29" width="197" height="53" rx="12" fill="url(#paint0_radial_1506_207)"/>
<path d="M205.813 59.144C205.233 59.144 204.709 59.004 204.241 58.724C203.773 58.444 203.405 58.06 203.137 57.572C202.873 57.08 202.741 56.532 202.741 55.928C202.741 55.324 202.873 54.778 203.137 54.29C203.405 53.798 203.773 53.412 204.241 53.132C204.709 52.852 205.233 52.712 205.813 52.712C206.309 52.712 206.765 52.81 207.181 53.006C207.597 53.198 207.933 53.466 208.189 53.81C208.449 54.15 208.599 54.532 208.639 54.956H207.679C207.631 54.692 207.517 54.454 207.337 54.242C207.161 54.03 206.939 53.864 206.671 53.744C206.407 53.624 206.121 53.564 205.813 53.564C205.421 53.564 205.067 53.668 204.751 53.876C204.439 54.08 204.193 54.362 204.013 54.722C203.837 55.082 203.749 55.484 203.749 55.928C203.749 56.372 203.837 56.774 204.013 57.134C204.193 57.494 204.439 57.776 204.751 57.98C205.067 58.184 205.421 58.286 205.813 58.286C206.121 58.286 206.407 58.228 206.671 58.112C206.939 57.996 207.161 57.838 207.337 57.638C207.517 57.434 207.631 57.208 207.679 56.96H208.639C208.603 57.372 208.455 57.744 208.195 58.076C207.939 58.408 207.603 58.67 207.187 58.862C206.771 59.05 206.313 59.144 205.813 59.144ZM212.786 59.144C212.202 59.144 211.676 59.006 211.208 58.73C210.74 58.45 210.372 58.066 210.104 57.578C209.836 57.09 209.702 56.54 209.702 55.928C209.702 55.316 209.836 54.766 210.104 54.278C210.372 53.79 210.742 53.408 211.214 53.132C211.686 52.852 212.214 52.712 212.798 52.712C213.382 52.712 213.91 52.852 214.382 53.132C214.854 53.408 215.224 53.79 215.492 54.278C215.76 54.766 215.894 55.316 215.894 55.928C215.894 56.54 215.758 57.09 215.486 57.578C215.218 58.066 214.848 58.45 214.376 58.73C213.904 59.006 213.374 59.144 212.786 59.144ZM212.798 58.256C213.198 58.256 213.556 58.16 213.872 57.968C214.188 57.772 214.436 57.498 214.616 57.146C214.796 56.794 214.886 56.388 214.886 55.928C214.886 55.468 214.796 55.062 214.616 54.71C214.436 54.354 214.188 54.08 213.872 53.888C213.556 53.692 213.198 53.594 212.798 53.594C212.398 53.594 212.04 53.692 211.724 53.888C211.408 54.08 211.16 54.354 210.98 54.71C210.8 55.062 210.71 55.468 210.71 55.928C210.71 56.388 210.8 56.794 210.98 57.146C211.16 57.498 211.408 57.772 211.724 57.968C212.04 58.16 212.398 58.256 212.798 58.256ZM224.306 52.712C224.754 52.712 225.146 52.814 225.482 53.018C225.822 53.218 226.082 53.5 226.262 53.864C226.446 54.228 226.538 54.648 226.538 55.124V59H225.578V55.166C225.578 54.646 225.454 54.244 225.206 53.96C224.962 53.672 224.614 53.528 224.162 53.528C223.818 53.528 223.52 53.61 223.268 53.774C223.016 53.934 222.822 54.164 222.686 54.464C222.55 54.764 222.482 55.114 222.482 55.514V59H221.522V55.166C221.522 54.65 221.394 54.248 221.138 53.96C220.882 53.672 220.526 53.528 220.07 53.528C219.726 53.528 219.43 53.61 219.182 53.774C218.938 53.934 218.75 54.164 218.618 54.464C218.49 54.764 218.426 55.114 218.426 55.514V59H217.466V52.856H218.39V53.762C218.582 53.426 218.834 53.168 219.146 52.988C219.462 52.804 219.828 52.712 220.244 52.712C220.692 52.712 221.09 52.82 221.438 53.036C221.786 53.252 222.05 53.55 222.23 53.93C222.438 53.546 222.72 53.248 223.076 53.036C223.436 52.82 223.846 52.712 224.306 52.712ZM235.298 52.712C235.746 52.712 236.138 52.814 236.474 53.018C236.814 53.218 237.074 53.5 237.254 53.864C237.438 54.228 237.53 54.648 237.53 55.124V59H236.57V55.166C236.57 54.646 236.446 54.244 236.198 53.96C235.954 53.672 235.606 53.528 235.154 53.528C234.81 53.528 234.512 53.61 234.26 53.774C234.008 53.934 233.814 54.164 233.678 54.464C233.542 54.764 233.474 55.114 233.474 55.514V59H232.514V55.166C232.514 54.65 232.386 54.248 232.13 53.96C231.874 53.672 231.518 53.528 231.062 53.528C230.718 53.528 230.422 53.61 230.174 53.774C229.93 53.934 229.742 54.164 229.61 54.464C229.482 54.764 229.418 55.114 229.418 55.514V59H228.458V52.856H229.382V53.762C229.574 53.426 229.826 53.168 230.138 52.988C230.454 52.804 230.82 52.712 231.236 52.712C231.684 52.712 232.082 52.82 232.43 53.036C232.778 53.252 233.042 53.55 233.222 53.93C233.43 53.546 233.712 53.248 234.068 53.036C234.428 52.82 234.838 52.712 235.298 52.712ZM242.036 59.144C241.452 59.144 240.926 59.006 240.458 58.73C239.99 58.45 239.622 58.066 239.354 57.578C239.086 57.09 238.952 56.54 238.952 55.928C238.952 55.316 239.086 54.766 239.354 54.278C239.622 53.79 239.992 53.408 240.464 53.132C240.936 52.852 241.464 52.712 242.048 52.712C242.632 52.712 243.16 52.852 243.632 53.132C244.104 53.408 244.474 53.79 244.742 54.278C245.01 54.766 245.144 55.316 245.144 55.928C245.144 56.54 245.008 57.09 244.736 57.578C244.468 58.066 244.098 58.45 243.626 58.73C243.154 59.006 242.624 59.144 242.036 59.144ZM242.048 58.256C242.448 58.256 242.806 58.16 243.122 57.968C243.438 57.772 243.686 57.498 243.866 57.146C244.046 56.794 244.136 56.388 244.136 55.928C244.136 55.468 244.046 55.062 243.866 54.71C243.686 54.354 243.438 54.08 243.122 53.888C242.806 53.692 242.448 53.594 242.048 53.594C241.648 53.594 241.29 53.692 240.974 53.888C240.658 54.08 240.41 54.354 240.23 54.71C240.05 55.062 239.96 55.468 239.96 55.928C239.96 56.388 240.05 56.794 240.23 57.146C240.41 57.498 240.658 57.772 240.974 57.968C241.29 58.16 241.648 58.256 242.048 58.256ZM249.608 52.712C250.068 52.712 250.47 52.812 250.814 53.012C251.158 53.208 251.422 53.488 251.606 53.852C251.794 54.216 251.888 54.64 251.888 55.124V59H250.928V55.196C250.928 54.672 250.792 54.264 250.52 53.972C250.252 53.676 249.878 53.528 249.398 53.528C249.054 53.528 248.752 53.602 248.492 53.75C248.232 53.894 248.03 54.102 247.886 54.374C247.746 54.646 247.676 54.966 247.676 55.334V59H246.716V52.856H247.64V53.798C247.836 53.438 248.1 53.168 248.432 52.988C248.764 52.804 249.156 52.712 249.608 52.712ZM255.035 59H254.045V50.6H255.317L258.299 57.47L258.461 57.914L258.617 57.47L261.521 50.6H262.829V59H261.833V52.028L258.875 59H258.005L255.035 52.064V59ZM267.465 52.712C267.929 52.712 268.335 52.798 268.683 52.97C269.035 53.138 269.307 53.384 269.499 53.708C269.691 54.032 269.787 54.422 269.787 54.878V59H268.851V58.088C268.663 58.432 268.393 58.694 268.041 58.874C267.693 59.054 267.275 59.144 266.787 59.144C266.383 59.144 266.023 59.07 265.707 58.922C265.395 58.77 265.151 58.56 264.975 58.292C264.803 58.024 264.717 57.718 264.717 57.374C264.717 57.054 264.797 56.76 264.957 56.492C265.121 56.22 265.347 55.998 265.635 55.826C265.923 55.654 266.249 55.55 266.613 55.514L268.407 55.334C268.539 55.322 268.643 55.266 268.719 55.166C268.799 55.066 268.839 54.922 268.839 54.734C268.839 54.49 268.779 54.276 268.659 54.092C268.543 53.908 268.379 53.766 268.167 53.666C267.959 53.566 267.717 53.516 267.441 53.516C267.169 53.516 266.921 53.562 266.697 53.654C266.473 53.746 266.291 53.872 266.151 54.032C266.011 54.192 265.929 54.368 265.905 54.56H264.969C265.005 54.22 265.137 53.91 265.365 53.63C265.593 53.346 265.891 53.122 266.259 52.958C266.627 52.794 267.029 52.712 267.465 52.712ZM266.967 58.394C267.331 58.394 267.655 58.324 267.939 58.184C268.223 58.04 268.443 57.84 268.599 57.584C268.759 57.324 268.839 57.03 268.839 56.702V56.006L266.745 56.222C266.425 56.254 266.167 56.372 265.971 56.576C265.775 56.78 265.677 57.028 265.677 57.32C265.677 57.528 265.731 57.714 265.839 57.878C265.947 58.038 266.099 58.164 266.295 58.256C266.491 58.348 266.715 58.394 266.967 58.394ZM272.672 59H271.712V52.856H272.672V59ZM271.646 51.74V50.6H272.738V51.74H271.646ZM277.627 52.712C278.087 52.712 278.489 52.812 278.833 53.012C279.177 53.208 279.441 53.488 279.625 53.852C279.813 54.216 279.907 54.64 279.907 55.124V59H278.947V55.196C278.947 54.672 278.811 54.264 278.539 53.972C278.271 53.676 277.897 53.528 277.417 53.528C277.073 53.528 276.771 53.602 276.511 53.75C276.251 53.894 276.049 54.102 275.905 54.374C275.765 54.646 275.695 54.966 275.695 55.334V59H274.735V52.856H275.659V53.798C275.855 53.438 276.119 53.168 276.451 52.988C276.783 52.804 277.175 52.712 277.627 52.712Z" fill="white"/>
<rect x="344" y="31" width="112" height="24" rx="12" fill="#F2F2F2"/>
<path d="M387.947 46V45.07H389.555C389.859 45.07 390.105 44.976 390.293 44.788C390.481 44.6 390.575 44.354 390.575 44.05V37.6H391.571V44.188C391.571 44.54 391.491 44.854 391.331 45.13C391.171 45.406 390.947 45.62 390.659 45.772C390.371 45.924 390.043 46 389.675 46H387.947ZM397.353 46H396.141L393.027 37.6H394.119L396.789 44.836L399.363 37.6H400.467L397.353 46ZM402.983 46H401.993V37.6H403.265L406.247 44.47L406.409 44.914L406.565 44.47L409.469 37.6H410.777V46H409.781V39.028L406.823 46H405.953L402.983 39.064V46Z" fill="black"/>
<path d="M462 43C462 36.3726 467.373 31 474 31H576C582.627 31 588 36.3726 588 43C588 49.6274 582.627 55 576 55H474C467.373 55 462 49.6274 462 43Z" fill="#F2F2F2"/>
<path d="M501.783 38.6H502.743V47H501.783V38.6ZM504.842 40.856H505.802V47H504.842V40.856ZM505.886 38.6V39.74H504.758V38.6H505.886ZM507.9 40.856H508.824V41.852C509.032 41.484 509.308 41.202 509.652 41.006C510 40.81 510.402 40.712 510.858 40.712C511.298 40.712 511.688 40.806 512.028 40.994C512.368 41.182 512.634 41.46 512.826 41.828C513.022 42.192 513.12 42.63 513.12 43.142V47H512.16V43.238C512.16 42.706 512.022 42.292 511.746 41.996C511.47 41.7 511.09 41.552 510.606 41.552C510.262 41.552 509.958 41.628 509.694 41.78C509.43 41.932 509.224 42.146 509.076 42.422C508.932 42.694 508.86 43.006 508.86 43.358V47H507.9V40.856ZM520.077 47H519.153V46.004C518.945 46.372 518.667 46.654 518.319 46.85C517.975 47.046 517.575 47.144 517.119 47.144C516.679 47.144 516.289 47.05 515.949 46.862C515.609 46.674 515.341 46.398 515.145 46.034C514.953 45.666 514.857 45.226 514.857 44.714V40.856H515.817V44.618C515.817 45.15 515.955 45.564 516.231 45.86C516.507 46.156 516.887 46.304 517.371 46.304C517.715 46.304 518.019 46.228 518.283 46.076C518.547 45.924 518.751 45.712 518.895 45.44C519.043 45.164 519.117 44.85 519.117 44.498V40.856H520.077V47ZM524.136 44.606L522.498 47H521.406L523.632 43.832L521.514 40.856H522.63L524.184 43.088L525.708 40.856H526.8L524.694 43.862L526.914 47H525.798L524.136 44.606ZM530.5 42.734L527.704 38.6H528.868L530.842 41.612L531.1 41.978L531.514 41.36L533.344 38.6H534.484L531.664 42.71L534.604 47H533.44L531.322 43.856L531.052 43.466L530.602 44.144L528.724 47H527.584L530.5 42.734ZM539.061 47.144C538.401 47.144 537.823 46.974 537.327 46.634C536.835 46.29 536.455 45.804 536.187 45.176C535.919 44.544 535.785 43.806 535.785 42.962C535.785 42.054 535.923 41.26 536.199 40.58C536.475 39.896 536.861 39.372 537.357 39.008C537.853 38.64 538.421 38.456 539.061 38.456C539.689 38.456 540.259 38.598 540.771 38.882C541.287 39.166 541.663 39.616 541.899 40.232H540.903C540.759 39.98 540.525 39.772 540.201 39.608C539.881 39.44 539.519 39.356 539.115 39.356C538.671 39.356 538.271 39.48 537.915 39.728C537.563 39.976 537.281 40.368 537.069 40.904C536.857 41.436 536.749 42.11 536.745 42.926C536.933 42.45 537.251 42.072 537.699 41.792C538.151 41.512 538.679 41.372 539.283 41.372C539.823 41.372 540.309 41.498 540.741 41.75C541.177 41.998 541.517 42.342 541.761 42.782C542.009 43.222 542.133 43.714 542.133 44.258C542.133 44.802 541.999 45.294 541.731 45.734C541.467 46.174 541.101 46.52 540.633 46.772C540.165 47.02 539.641 47.144 539.061 47.144ZM537.045 44.252C537.045 44.632 537.133 44.974 537.309 45.278C537.485 45.578 537.729 45.814 538.041 45.986C538.357 46.158 538.711 46.244 539.103 46.244C539.483 46.244 539.825 46.16 540.129 45.992C540.433 45.82 540.671 45.584 540.843 45.284C541.015 44.98 541.101 44.64 541.101 44.264C541.101 43.884 541.013 43.542 540.837 43.238C540.661 42.93 540.417 42.688 540.105 42.512C539.797 42.336 539.449 42.248 539.061 42.248C538.677 42.248 538.331 42.336 538.023 42.512C537.719 42.684 537.479 42.924 537.303 43.232C537.131 43.536 537.045 43.876 537.045 44.252ZM547.29 44.93H543.03V44.03L547.284 38.6H548.274V44.03H549.582V44.93H548.274V47H547.29V44.93ZM547.29 44.03V39.884L544.062 44.03H547.29Z" fill="black"/>
<rect x="344" y="59" width="112" height="24" rx="12" fill="#F2F2F2"/>
<path d="M393.947 75V74.07H395.555C395.859 74.07 396.105 73.976 396.293 73.788C396.481 73.6 396.575 73.354 396.575 73.05V66.6H397.571V73.188C397.571 73.54 397.491 73.854 397.331 74.13C397.171 74.406 396.947 74.62 396.659 74.772C396.371 74.924 396.043 75 395.675 75H393.947ZM402.387 75.144C401.811 75.144 401.299 75.038 400.851 74.826C400.407 74.614 400.061 74.318 399.813 73.938C399.565 73.558 399.441 73.122 399.441 72.63H400.461C400.461 72.946 400.543 73.226 400.707 73.47C400.871 73.714 401.099 73.904 401.391 74.04C401.687 74.176 402.023 74.244 402.399 74.244C402.771 74.244 403.101 74.18 403.389 74.052C403.681 73.924 403.907 73.744 404.067 73.512C404.227 73.28 404.307 73.014 404.307 72.714C404.307 72.362 404.197 72.06 403.977 71.808C403.757 71.552 403.453 71.386 403.065 71.31L401.589 71.022C401.193 70.946 400.849 70.802 400.557 70.59C400.269 70.374 400.047 70.108 399.891 69.792C399.735 69.476 399.657 69.132 399.657 68.76C399.657 68.312 399.773 67.914 400.005 67.566C400.237 67.218 400.559 66.946 400.971 66.75C401.383 66.554 401.851 66.456 402.375 66.456C402.907 66.456 403.381 66.556 403.797 66.756C404.217 66.952 404.543 67.226 404.775 67.578C405.011 67.93 405.129 68.332 405.129 68.784H404.109C404.109 68.508 404.035 68.262 403.887 68.046C403.743 67.83 403.539 67.662 403.275 67.542C403.015 67.418 402.719 67.356 402.387 67.356C402.055 67.356 401.757 67.416 401.493 67.536C401.233 67.656 401.029 67.824 400.881 68.04C400.737 68.256 400.665 68.504 400.665 68.784C400.665 69.12 400.765 69.404 400.965 69.636C401.165 69.864 401.449 70.016 401.817 70.092L403.359 70.398C403.743 70.474 404.083 70.624 404.379 70.848C404.675 71.068 404.905 71.34 405.069 71.664C405.237 71.988 405.321 72.338 405.321 72.714C405.321 73.19 405.195 73.612 404.943 73.98C404.695 74.348 404.347 74.634 403.899 74.838C403.455 75.042 402.951 75.144 402.387 75.144Z" fill="black"/>
<rect x="139.35" y="25.35" width="452.3" height="60.3" rx="14.65" stroke="#595959" stroke-width="0.7"/>
<path d="M428 191C428 184.373 433.373 179 440 179H531C537.627 179 543 184.373 543 191V220C543 226.627 537.627 232 531 232H440C433.373 232 428 226.627 428 220V191Z" fill="url(#paint1_radial_1506_207)"/>
<path d="M448.949 208H447.989V199.6H448.949V208ZM451.972 208H451.012V201.856H451.972V208ZM450.946 200.74V199.6H452.038V200.74H450.946ZM456.928 201.712C457.388 201.712 457.79 201.812 458.134 202.012C458.478 202.208 458.742 202.488 458.926 202.852C459.114 203.216 459.208 203.64 459.208 204.124V208H458.248V204.196C458.248 203.672 458.112 203.264 457.84 202.972C457.572 202.676 457.198 202.528 456.718 202.528C456.374 202.528 456.072 202.602 455.812 202.75C455.552 202.894 455.35 203.102 455.206 203.374C455.066 203.646 454.996 203.966 454.996 204.334V208H454.036V201.856H454.96V202.798C455.156 202.438 455.42 202.168 455.752 201.988C456.084 201.804 456.476 201.712 456.928 201.712ZM465.194 201.856H466.154V208H465.23V207.058C465.034 207.418 464.77 207.69 464.438 207.874C464.106 208.054 463.714 208.144 463.262 208.144C462.802 208.144 462.4 208.046 462.056 207.85C461.712 207.65 461.446 207.368 461.258 207.004C461.074 206.64 460.982 206.216 460.982 205.732V201.856H461.942V205.66C461.942 206.184 462.076 206.594 462.344 206.89C462.616 207.182 462.992 207.328 463.472 207.328C463.816 207.328 464.118 207.256 464.378 207.112C464.638 206.964 464.838 206.754 464.978 206.482C465.122 206.21 465.194 205.89 465.194 205.522V201.856ZM470.772 204.85L473.004 208H471.912L470.22 205.582L468.546 208H467.496L469.734 204.832L467.616 201.856H468.708L470.28 204.1L471.834 201.856H472.884L470.772 204.85ZM474.836 208H473.696L476.612 203.734L473.816 199.6H474.98L476.954 202.612L477.212 202.978L477.626 202.36L479.456 199.6H480.596L477.776 203.71L480.716 208H479.552L477.434 204.856L477.164 204.466L476.714 205.144L474.836 208ZM485.041 208.144C484.621 208.144 484.211 208.06 483.811 207.892C483.415 207.72 483.083 207.488 482.815 207.196C482.499 206.852 482.257 206.412 482.089 205.876C481.925 205.336 481.843 204.716 481.843 204.016C481.843 203.12 481.983 202.328 482.263 201.64C482.543 200.948 482.933 200.412 483.433 200.032C483.937 199.648 484.511 199.456 485.155 199.456C485.579 199.456 485.987 199.538 486.379 199.702C486.771 199.866 487.101 200.096 487.369 200.392C487.641 200.688 487.815 201.024 487.891 201.4H486.883C486.843 201.192 486.737 201.008 486.565 200.848C486.393 200.684 486.181 200.558 485.929 200.47C485.677 200.378 485.419 200.332 485.155 200.332C484.687 200.332 484.275 200.482 483.919 200.782C483.567 201.082 483.291 201.514 483.091 202.078C482.891 202.642 482.785 203.31 482.773 204.082C482.893 203.778 483.079 203.504 483.331 203.26C483.583 203.012 483.877 202.818 484.213 202.678C484.549 202.538 484.899 202.468 485.263 202.468C485.807 202.468 486.291 202.59 486.715 202.834C487.139 203.074 487.467 203.41 487.699 203.842C487.935 204.27 488.053 204.758 488.053 205.306C488.053 205.858 487.925 206.35 487.669 206.782C487.417 207.21 487.063 207.544 486.607 207.784C486.151 208.024 485.629 208.144 485.041 208.144ZM485.083 207.268C485.463 207.268 485.799 207.186 486.091 207.022C486.387 206.854 486.615 206.622 486.775 206.326C486.939 206.03 487.021 205.692 487.021 205.312C487.021 204.932 486.939 204.594 486.775 204.298C486.611 203.998 486.379 203.764 486.079 203.596C485.779 203.428 485.433 203.344 485.041 203.344C484.649 203.344 484.299 203.43 483.991 203.602C483.687 203.774 483.449 204.01 483.277 204.31C483.109 204.606 483.025 204.936 483.025 205.3C483.025 205.668 483.113 206.002 483.289 206.302C483.465 206.602 483.709 206.838 484.021 207.01C484.337 207.182 484.691 207.268 485.083 207.268ZM494.17 199.6V205.03H495.478V205.93H494.17V208H493.186V205.93H488.926V204.994L493.18 199.6H494.17ZM493.186 200.908L489.976 205.03H493.186V200.908ZM498.285 208H497.295V199.6H498.567L501.549 206.47L501.711 206.914L501.867 206.47L504.771 199.6H506.079V208H505.083V201.028L502.125 208H501.255L498.285 201.064V208ZM510.715 201.712C511.179 201.712 511.585 201.798 511.933 201.97C512.285 202.138 512.557 202.384 512.749 202.708C512.941 203.032 513.037 203.422 513.037 203.878V208H512.101V207.088C511.913 207.432 511.643 207.694 511.291 207.874C510.943 208.054 510.525 208.144 510.037 208.144C509.633 208.144 509.273 208.07 508.957 207.922C508.645 207.77 508.401 207.56 508.225 207.292C508.053 207.024 507.967 206.718 507.967 206.374C507.967 206.054 508.047 205.76 508.207 205.492C508.371 205.22 508.597 204.998 508.885 204.826C509.173 204.654 509.499 204.55 509.863 204.514L511.657 204.334C511.789 204.322 511.893 204.266 511.969 204.166C512.049 204.066 512.089 203.922 512.089 203.734C512.089 203.49 512.029 203.276 511.909 203.092C511.793 202.908 511.629 202.766 511.417 202.666C511.209 202.566 510.967 202.516 510.691 202.516C510.419 202.516 510.171 202.562 509.947 202.654C509.723 202.746 509.541 202.872 509.401 203.032C509.261 203.192 509.179 203.368 509.155 203.56H508.219C508.255 203.22 508.387 202.91 508.615 202.63C508.843 202.346 509.141 202.122 509.509 201.958C509.877 201.794 510.279 201.712 510.715 201.712ZM510.217 207.394C510.581 207.394 510.905 207.324 511.189 207.184C511.473 207.04 511.693 206.84 511.849 206.584C512.009 206.324 512.089 206.03 512.089 205.702V205.006L509.995 205.222C509.675 205.254 509.417 205.372 509.221 205.576C509.025 205.78 508.927 206.028 508.927 206.32C508.927 206.528 508.981 206.714 509.089 206.878C509.197 207.038 509.349 207.164 509.545 207.256C509.741 207.348 509.965 207.394 510.217 207.394ZM515.922 208H514.962V201.856H515.922V208ZM514.896 200.74V199.6H515.988V200.74H514.896ZM520.877 201.712C521.337 201.712 521.739 201.812 522.083 202.012C522.427 202.208 522.691 202.488 522.875 202.852C523.063 203.216 523.157 203.64 523.157 204.124V208H522.197V204.196C522.197 203.672 522.061 203.264 521.789 202.972C521.521 202.676 521.147 202.528 520.667 202.528C520.323 202.528 520.021 202.602 519.761 202.75C519.501 202.894 519.299 203.102 519.155 203.374C519.015 203.646 518.945 203.966 518.945 204.334V208H517.985V201.856H518.909V202.798C519.105 202.438 519.369 202.168 519.701 201.988C520.033 201.804 520.425 201.712 520.877 201.712Z" fill="white"/>
<rect x="546" y="179" width="112" height="24" rx="12" fill="#F2F2F2"/>
<path d="M578.113 187.6H579.073V196H578.113V187.6ZM581.172 189.856H582.132V196H581.172V189.856ZM582.216 187.6V188.74H581.088V187.6H582.216ZM584.23 189.856H585.154V190.852C585.362 190.484 585.638 190.202 585.982 190.006C586.33 189.81 586.732 189.712 587.188 189.712C587.628 189.712 588.018 189.806 588.358 189.994C588.698 190.182 588.964 190.46 589.156 190.828C589.352 191.192 589.45 191.63 589.45 192.142V196H588.49V192.238C588.49 191.706 588.352 191.292 588.076 190.996C587.8 190.7 587.42 190.552 586.936 190.552C586.592 190.552 586.288 190.628 586.024 190.78C585.76 190.932 585.554 191.146 585.406 191.422C585.262 191.694 585.19 192.006 585.19 192.358V196H584.23V189.856ZM596.407 196H595.483V195.004C595.275 195.372 594.997 195.654 594.649 195.85C594.305 196.046 593.905 196.144 593.449 196.144C593.009 196.144 592.619 196.05 592.279 195.862C591.939 195.674 591.671 195.398 591.475 195.034C591.283 194.666 591.187 194.226 591.187 193.714V189.856H592.147V193.618C592.147 194.15 592.285 194.564 592.561 194.86C592.837 195.156 593.217 195.304 593.701 195.304C594.045 195.304 594.349 195.228 594.613 195.076C594.877 194.924 595.081 194.712 595.225 194.44C595.373 194.164 595.447 193.85 595.447 193.498V189.856H596.407V196ZM600.466 193.606L598.828 196H597.736L599.962 192.832L597.844 189.856H598.96L600.514 192.088L602.038 189.856H603.13L601.024 192.862L603.244 196H602.128L600.466 193.606ZM606.83 191.734L604.034 187.6H605.198L607.172 190.612L607.43 190.978L607.844 190.36L609.674 187.6H610.814L607.994 191.71L610.934 196H609.77L607.652 192.856L607.382 192.466L606.932 193.144L605.054 196H603.914L606.83 191.734ZM615.391 196.144C614.731 196.144 614.153 195.974 613.657 195.634C613.165 195.29 612.785 194.804 612.517 194.176C612.249 193.544 612.115 192.806 612.115 191.962C612.115 191.054 612.253 190.26 612.529 189.58C612.805 188.896 613.191 188.372 613.687 188.008C614.183 187.64 614.751 187.456 615.391 187.456C616.019 187.456 616.589 187.598 617.101 187.882C617.617 188.166 617.993 188.616 618.229 189.232H617.233C617.089 188.98 616.855 188.772 616.531 188.608C616.211 188.44 615.849 188.356 615.445 188.356C615.001 188.356 614.601 188.48 614.245 188.728C613.893 188.976 613.611 189.368 613.399 189.904C613.187 190.436 613.079 191.11 613.075 191.926C613.263 191.45 613.581 191.072 614.029 190.792C614.481 190.512 615.009 190.372 615.613 190.372C616.153 190.372 616.639 190.498 617.071 190.75C617.507 190.998 617.847 191.342 618.091 191.782C618.339 192.222 618.463 192.714 618.463 193.258C618.463 193.802 618.329 194.294 618.061 194.734C617.797 195.174 617.431 195.52 616.963 195.772C616.495 196.02 615.971 196.144 615.391 196.144ZM613.375 193.252C613.375 193.632 613.463 193.974 613.639 194.278C613.815 194.578 614.059 194.814 614.371 194.986C614.687 195.158 615.041 195.244 615.433 195.244C615.813 195.244 616.155 195.16 616.459 194.992C616.763 194.82 617.001 194.584 617.173 194.284C617.345 193.98 617.431 193.64 617.431 193.264C617.431 192.884 617.343 192.542 617.167 192.238C616.991 191.93 616.747 191.688 616.435 191.512C616.127 191.336 615.779 191.248 615.391 191.248C615.007 191.248 614.661 191.336 614.353 191.512C614.049 191.684 613.809 191.924 613.633 192.232C613.461 192.536 613.375 192.876 613.375 193.252ZM623.62 193.93H619.36V193.03L623.614 187.6H624.604V193.03H625.912V193.93H624.604V196H623.62V193.93ZM623.62 193.03V188.884L620.392 193.03H623.62Z" fill="black"/>
<rect x="424.35" y="176.35" width="237.3" height="58.3" rx="14.65" stroke="#595959" stroke-width="0.7"/>
<path d="M250 309C250 302.373 255.373 297 262 297H353C359.627 297 365 302.373 365 309V338C365 344.627 359.627 350 353 350H262C255.373 350 250 344.627 250 338V309Z" fill="url(#paint2_radial_1506_207)"/>
<path d="M288.421 330.92V330.008H289.309C289.473 330.008 289.603 329.958 289.699 329.858C289.799 329.758 289.849 329.626 289.849 329.462V322.856H290.809V329.54C290.809 329.816 290.749 330.058 290.629 330.266C290.513 330.474 290.345 330.634 290.125 330.746C289.909 330.862 289.657 330.92 289.369 330.92H288.421ZM289.783 321.74V320.6H290.875V321.74H289.783ZM294.835 329.144C294.335 329.144 293.893 329.066 293.509 328.91C293.129 328.75 292.833 328.53 292.621 328.25C292.413 327.97 292.307 327.652 292.303 327.296H293.263C293.271 327.504 293.341 327.688 293.473 327.848C293.605 328.008 293.785 328.134 294.013 328.226C294.245 328.314 294.509 328.358 294.805 328.358C295.261 328.358 295.615 328.262 295.867 328.07C296.119 327.878 296.245 327.616 296.245 327.284C296.245 327.028 296.167 326.82 296.011 326.66C295.859 326.496 295.633 326.39 295.333 326.342L294.217 326.168C293.681 326.084 293.263 325.89 292.963 325.586C292.663 325.278 292.513 324.896 292.513 324.44C292.513 324.104 292.607 323.806 292.795 323.546C292.987 323.282 293.251 323.078 293.587 322.934C293.927 322.786 294.311 322.712 294.739 322.712C295.179 322.712 295.573 322.786 295.921 322.934C296.273 323.082 296.549 323.288 296.749 323.552C296.953 323.812 297.059 324.108 297.067 324.44H296.107C296.103 324.264 296.039 324.104 295.915 323.96C295.795 323.816 295.631 323.704 295.423 323.624C295.215 323.54 294.983 323.498 294.727 323.498C294.479 323.498 294.255 323.538 294.055 323.618C293.859 323.694 293.705 323.802 293.593 323.942C293.485 324.078 293.431 324.236 293.431 324.416C293.431 324.656 293.503 324.85 293.647 324.998C293.791 325.142 294.003 325.236 294.283 325.28L295.435 325.466C295.995 325.554 296.423 325.754 296.719 326.066C297.019 326.378 297.169 326.776 297.169 327.26C297.169 327.636 297.073 327.966 296.881 328.25C296.689 328.534 296.417 328.754 296.065 328.91C295.713 329.066 295.303 329.144 294.835 329.144ZM300.02 329H299.03V320.6H300.302L303.284 327.47L303.446 327.914L303.602 327.47L306.506 320.6H307.814V329H306.818V322.028L303.86 329H302.99L300.02 322.064V329ZM312.45 322.712C312.914 322.712 313.32 322.798 313.668 322.97C314.02 323.138 314.292 323.384 314.484 323.708C314.676 324.032 314.772 324.422 314.772 324.878V329H313.836V328.088C313.648 328.432 313.378 328.694 313.026 328.874C312.678 329.054 312.26 329.144 311.772 329.144C311.368 329.144 311.008 329.07 310.692 328.922C310.38 328.77 310.136 328.56 309.96 328.292C309.788 328.024 309.702 327.718 309.702 327.374C309.702 327.054 309.782 326.76 309.942 326.492C310.106 326.22 310.332 325.998 310.62 325.826C310.908 325.654 311.234 325.55 311.598 325.514L313.392 325.334C313.524 325.322 313.628 325.266 313.704 325.166C313.784 325.066 313.824 324.922 313.824 324.734C313.824 324.49 313.764 324.276 313.644 324.092C313.528 323.908 313.364 323.766 313.152 323.666C312.944 323.566 312.702 323.516 312.426 323.516C312.154 323.516 311.906 323.562 311.682 323.654C311.458 323.746 311.276 323.872 311.136 324.032C310.996 324.192 310.914 324.368 310.89 324.56H309.954C309.99 324.22 310.122 323.91 310.35 323.63C310.578 323.346 310.876 323.122 311.244 322.958C311.612 322.794 312.014 322.712 312.45 322.712ZM311.952 328.394C312.316 328.394 312.64 328.324 312.924 328.184C313.208 328.04 313.428 327.84 313.584 327.584C313.744 327.324 313.824 327.03 313.824 326.702V326.006L311.73 326.222C311.41 326.254 311.152 326.372 310.956 326.576C310.76 326.78 310.662 327.028 310.662 327.32C310.662 327.528 310.716 327.714 310.824 327.878C310.932 328.038 311.084 328.164 311.28 328.256C311.476 328.348 311.7 328.394 311.952 328.394ZM317.656 329H316.696V322.856H317.656V329ZM316.63 321.74V320.6H317.722V321.74H316.63ZM322.611 322.712C323.071 322.712 323.473 322.812 323.817 323.012C324.161 323.208 324.425 323.488 324.609 323.852C324.797 324.216 324.891 324.64 324.891 325.124V329H323.931V325.196C323.931 324.672 323.795 324.264 323.523 323.972C323.255 323.676 322.881 323.528 322.401 323.528C322.057 323.528 321.755 323.602 321.495 323.75C321.235 323.894 321.033 324.102 320.889 324.374C320.749 324.646 320.679 324.966 320.679 325.334V329H319.719V322.856H320.643V323.798C320.839 323.438 321.103 323.168 321.435 322.988C321.767 322.804 322.159 322.712 322.611 322.712Z" fill="white"/>
<path d="M369 309C369 302.373 374.373 297 381 297H469C475.627 297 481 302.373 481 309C481 315.627 475.627 321 469 321H381C374.373 321 369 315.627 369 309Z" fill="#F2F2F2"/>
<path d="M421.569 312.07H422.997C423.233 312.07 423.441 312.02 423.621 311.92C423.805 311.82 423.947 311.68 424.047 311.5C424.147 311.316 424.197 311.106 424.197 310.87V304.6H425.193V310.93C425.193 311.334 425.103 311.694 424.923 312.01C424.743 312.322 424.491 312.566 424.167 312.742C423.843 312.914 423.473 313 423.057 313H421.569V312.07ZM430.008 313.144C429.432 313.144 428.922 313.038 428.478 312.826C428.038 312.614 427.694 312.318 427.446 311.938C427.202 311.558 427.08 311.122 427.08 310.63H428.1C428.1 310.946 428.18 311.226 428.34 311.47C428.5 311.714 428.726 311.904 429.018 312.04C429.31 312.176 429.644 312.244 430.02 312.244C430.392 312.244 430.718 312.182 430.998 312.058C431.282 311.93 431.5 311.752 431.652 311.524C431.808 311.292 431.886 311.026 431.886 310.726C431.886 310.346 431.772 310.02 431.544 309.748C431.32 309.476 431.02 309.308 430.644 309.244L429.288 309.01C428.88 308.938 428.526 308.796 428.226 308.584C427.926 308.372 427.696 308.108 427.536 307.792C427.376 307.476 427.296 307.132 427.296 306.76C427.296 306.324 427.41 305.932 427.638 305.584C427.87 305.232 428.19 304.956 428.598 304.756C429.01 304.556 429.472 304.456 429.984 304.456C430.512 304.456 430.982 304.556 431.394 304.756C431.806 304.952 432.126 305.226 432.354 305.578C432.582 305.93 432.696 306.332 432.696 306.784H431.676C431.676 306.508 431.606 306.262 431.466 306.046C431.326 305.826 431.128 305.656 430.872 305.536C430.62 305.416 430.328 305.356 429.996 305.356C429.664 305.356 429.37 305.414 429.114 305.53C428.858 305.646 428.658 305.81 428.514 306.022C428.374 306.234 428.304 306.48 428.304 306.76C428.304 307.092 428.41 307.378 428.622 307.618C428.838 307.858 429.12 308.008 429.468 308.068L430.848 308.308C431.248 308.38 431.604 308.534 431.916 308.77C432.228 309.006 432.47 309.296 432.642 309.64C432.814 309.98 432.9 310.338 432.9 310.714C432.9 311.166 432.778 311.578 432.534 311.95C432.29 312.318 431.948 312.61 431.508 312.826C431.068 313.038 430.568 313.144 430.008 313.144Z" fill="black"/>
<rect x="246.35" y="294.35" width="237.3" height="58.3" rx="14.65" stroke="#595959" stroke-width="0.7"/>
<rect x="48.0405" y="179" width="104.823" height="53" rx="12" fill="url(#paint3_radial_1506_207)"/>
<path d="M77.9759 209.92V209.008H78.8639C79.0279 209.008 79.1579 208.958 79.2539 208.858C79.3539 208.758 79.4039 208.626 79.4039 208.462V201.856H80.3639V208.54C80.3639 208.816 80.3039 209.058 80.1839 209.266C80.0679 209.474 79.8999 209.634 79.6799 209.746C79.4639 209.862 79.2119 209.92 78.9239 209.92H77.9759ZM79.3379 200.74V199.6H80.4299V200.74H79.3379ZM84.9962 208H83.9762L81.5822 201.856H82.6262L84.5222 206.878L86.3822 201.856H87.3902L84.9962 208ZM95.5243 201.712C95.9723 201.712 96.3643 201.814 96.7003 202.018C97.0403 202.218 97.3003 202.5 97.4803 202.864C97.6643 203.228 97.7563 203.648 97.7563 204.124V208H96.7963V204.166C96.7963 203.646 96.6723 203.244 96.4243 202.96C96.1803 202.672 95.8323 202.528 95.3803 202.528C95.0363 202.528 94.7383 202.61 94.4863 202.774C94.2343 202.934 94.0403 203.164 93.9043 203.464C93.7683 203.764 93.7003 204.114 93.7003 204.514V208H92.7403V204.166C92.7403 203.65 92.6123 203.248 92.3563 202.96C92.1003 202.672 91.7443 202.528 91.2883 202.528C90.9443 202.528 90.6483 202.61 90.4003 202.774C90.1563 202.934 89.9683 203.164 89.8363 203.464C89.7083 203.764 89.6443 204.114 89.6443 204.514V208H88.6843V201.856H89.6083V202.762C89.8003 202.426 90.0523 202.168 90.3643 201.988C90.6803 201.804 91.0463 201.712 91.4623 201.712C91.9103 201.712 92.3083 201.82 92.6563 202.036C93.0043 202.252 93.2683 202.55 93.4483 202.93C93.6563 202.546 93.9383 202.248 94.2943 202.036C94.6543 201.82 95.0643 201.712 95.5243 201.712ZM100.907 208H99.9165V199.6H101.189L104.171 206.47L104.333 206.914L104.489 206.47L107.393 199.6H108.701V208H107.705V201.028L104.747 208H103.877L100.907 201.064V208ZM113.337 201.712C113.801 201.712 114.207 201.798 114.555 201.97C114.907 202.138 115.179 202.384 115.371 202.708C115.563 203.032 115.659 203.422 115.659 203.878V208H114.723V207.088C114.535 207.432 114.265 207.694 113.913 207.874C113.565 208.054 113.147 208.144 112.659 208.144C112.255 208.144 111.895 208.07 111.579 207.922C111.267 207.77 111.023 207.56 110.847 207.292C110.675 207.024 110.589 206.718 110.589 206.374C110.589 206.054 110.669 205.76 110.829 205.492C110.993 205.22 111.219 204.998 111.507 204.826C111.795 204.654 112.121 204.55 112.485 204.514L114.279 204.334C114.411 204.322 114.515 204.266 114.591 204.166C114.671 204.066 114.711 203.922 114.711 203.734C114.711 203.49 114.651 203.276 114.531 203.092C114.415 202.908 114.251 202.766 114.039 202.666C113.831 202.566 113.589 202.516 113.313 202.516C113.041 202.516 112.793 202.562 112.569 202.654C112.345 202.746 112.163 202.872 112.023 203.032C111.883 203.192 111.801 203.368 111.777 203.56H110.841C110.877 203.22 111.009 202.91 111.237 202.63C111.465 202.346 111.763 202.122 112.131 201.958C112.499 201.794 112.901 201.712 113.337 201.712ZM112.839 207.394C113.203 207.394 113.527 207.324 113.811 207.184C114.095 207.04 114.315 206.84 114.471 206.584C114.631 206.324 114.711 206.03 114.711 205.702V205.006L112.617 205.222C112.297 205.254 112.039 205.372 111.843 205.576C111.647 205.78 111.549 206.028 111.549 206.32C111.549 206.528 111.603 206.714 111.711 206.878C111.819 207.038 111.971 207.164 112.167 207.256C112.363 207.348 112.587 207.394 112.839 207.394ZM118.543 208H117.583V201.856H118.543V208ZM117.517 200.74V199.6H118.609V200.74H117.517ZM123.498 201.712C123.958 201.712 124.36 201.812 124.704 202.012C125.048 202.208 125.312 202.488 125.496 202.852C125.684 203.216 125.778 203.64 125.778 204.124V208H124.818V204.196C124.818 203.672 124.682 203.264 124.41 202.972C124.142 202.676 123.768 202.528 123.288 202.528C122.944 202.528 122.642 202.602 122.382 202.75C122.122 202.894 121.92 203.102 121.776 203.374C121.636 203.646 121.566 203.966 121.566 204.334V208H120.606V201.856H121.53V202.798C121.726 202.438 121.99 202.168 122.322 201.988C122.654 201.804 123.046 201.712 123.498 201.712Z" fill="white"/>
<rect x="166" y="179" width="112" height="24" rx="12" fill="#F2F2F2"/>
<path d="M208.924 194.07H210.352C210.588 194.07 210.796 194.02 210.976 193.92C211.16 193.82 211.302 193.68 211.402 193.5C211.502 193.316 211.552 193.106 211.552 192.87V186.6H212.548V192.93C212.548 193.334 212.458 193.694 212.278 194.01C212.098 194.322 211.846 194.566 211.522 194.742C211.198 194.914 210.828 195 210.412 195H208.924V194.07ZM214.033 186.6H215.125L217.783 193.71L220.345 186.6H221.449L218.263 195H217.243L214.033 186.6ZM222.999 186.6H224.241L227.253 193.332L227.409 193.758L227.559 193.332L230.517 186.6H231.783V195H230.787V188.208L227.817 195H226.983L223.989 188.244V195H222.999V186.6Z" fill="black"/>
<rect x="44.35" y="176.35" width="237.3" height="58.3" rx="14.65" stroke="#595959" stroke-width="0.7"/>
<rect x="50" y="297" width="109" height="53" rx="12" fill="url(#paint4_radial_1506_207)"/>
<path d="M63.7709 330.92V330.008H64.6589C64.8229 330.008 64.9529 329.958 65.0489 329.858C65.1489 329.758 65.1989 329.626 65.1989 329.462V322.856H66.1589V329.54C66.1589 329.816 66.0989 330.058 65.9789 330.266C65.8629 330.474 65.6949 330.634 65.4749 330.746C65.2589 330.862 65.0069 330.92 64.7189 330.92H63.7709ZM65.1329 321.74V320.6H66.2249V321.74H65.1329ZM70.7911 329H69.7711L67.3771 322.856H68.4211L70.3171 327.878L72.1771 322.856H73.1851L70.7911 329ZM81.3193 322.712C81.7673 322.712 82.1593 322.814 82.4953 323.018C82.8353 323.218 83.0953 323.5 83.2753 323.864C83.4593 324.228 83.5513 324.648 83.5513 325.124V329H82.5913V325.166C82.5913 324.646 82.4673 324.244 82.2193 323.96C81.9753 323.672 81.6273 323.528 81.1753 323.528C80.8313 323.528 80.5333 323.61 80.2813 323.774C80.0293 323.934 79.8353 324.164 79.6993 324.464C79.5633 324.764 79.4953 325.114 79.4953 325.514V329H78.5353V325.166C78.5353 324.65 78.4073 324.248 78.1513 323.96C77.8953 323.672 77.5393 323.528 77.0833 323.528C76.7393 323.528 76.4433 323.61 76.1953 323.774C75.9513 323.934 75.7633 324.164 75.6313 324.464C75.5033 324.764 75.4393 325.114 75.4393 325.514V329H74.4793V322.856H75.4033V323.762C75.5953 323.426 75.8473 323.168 76.1593 322.988C76.4753 322.804 76.8413 322.712 77.2573 322.712C77.7053 322.712 78.1033 322.82 78.4513 323.036C78.7993 323.252 79.0633 323.55 79.2433 323.93C79.4513 323.546 79.7333 323.248 80.0893 323.036C80.4493 322.82 80.8593 322.712 81.3193 322.712ZM85.7835 329H84.6915L87.7215 320.6H88.9575L92.1075 329H91.0515L90.2415 326.768H86.5275L85.7835 329ZM88.1895 321.914L86.8335 325.904H89.9175L88.4775 321.914L88.3335 321.422L88.1895 321.914ZM96.2853 322.712C96.7453 322.712 97.1473 322.812 97.4913 323.012C97.8353 323.208 98.0993 323.488 98.2833 323.852C98.4713 324.216 98.5653 324.64 98.5653 325.124V329H97.6053V325.196C97.6053 324.672 97.4693 324.264 97.1973 323.972C96.9293 323.676 96.5553 323.528 96.0753 323.528C95.7313 323.528 95.4293 323.602 95.1693 323.75C94.9093 323.894 94.7073 324.102 94.5633 324.374C94.4233 324.646 94.3533 324.966 94.3533 325.334V329H93.3933V322.856H94.3173V323.798C94.5133 323.438 94.7773 323.168 95.1093 322.988C95.4413 322.804 95.8333 322.712 96.2853 322.712ZM106.045 322.856H106.051V329H105.127V327.968C104.891 328.344 104.585 328.634 104.209 328.838C103.833 329.042 103.411 329.144 102.943 329.144C102.387 329.144 101.883 329.004 101.431 328.724C100.979 328.444 100.625 328.06 100.369 327.572C100.113 327.08 99.9852 326.532 99.9852 325.928C99.9852 325.324 100.113 324.778 100.369 324.29C100.625 323.798 100.979 323.412 101.431 323.132C101.883 322.852 102.387 322.712 102.943 322.712C103.411 322.712 103.831 322.814 104.203 323.018C104.579 323.222 104.885 323.512 105.121 323.888L105.085 320.6H106.045V322.856ZM103.033 328.28C103.425 328.28 103.777 328.178 104.089 327.974C104.405 327.77 104.651 327.49 104.827 327.134C105.003 326.774 105.091 326.372 105.091 325.928C105.091 325.484 105.003 325.084 104.827 324.728C104.651 324.368 104.405 324.086 104.089 323.882C103.777 323.678 103.425 323.576 103.033 323.576C102.645 323.576 102.295 323.678 101.983 323.882C101.675 324.086 101.433 324.368 101.257 324.728C101.081 325.084 100.993 325.484 100.993 325.928C100.993 326.372 101.081 326.774 101.257 327.134C101.433 327.49 101.675 327.77 101.983 327.974C102.295 328.178 102.645 328.28 103.033 328.28ZM107.033 329V328.07H108.641C108.945 328.07 109.191 327.976 109.379 327.788C109.567 327.6 109.661 327.354 109.661 327.05V320.6H110.657V327.188C110.657 327.54 110.577 327.854 110.417 328.13C110.257 328.406 110.033 328.62 109.745 328.772C109.457 328.924 109.129 329 108.761 329H107.033ZM114.927 329.144C114.427 329.144 113.985 329.066 113.601 328.91C113.221 328.75 112.925 328.53 112.713 328.25C112.505 327.97 112.399 327.652 112.395 327.296H113.355C113.363 327.504 113.433 327.688 113.565 327.848C113.697 328.008 113.877 328.134 114.105 328.226C114.337 328.314 114.601 328.358 114.897 328.358C115.353 328.358 115.707 328.262 115.959 328.07C116.211 327.878 116.337 327.616 116.337 327.284C116.337 327.028 116.259 326.82 116.103 326.66C115.951 326.496 115.725 326.39 115.425 326.342L114.309 326.168C113.773 326.084 113.355 325.89 113.055 325.586C112.755 325.278 112.605 324.896 112.605 324.44C112.605 324.104 112.699 323.806 112.887 323.546C113.079 323.282 113.343 323.078 113.679 322.934C114.019 322.786 114.403 322.712 114.831 322.712C115.271 322.712 115.665 322.786 116.013 322.934C116.365 323.082 116.641 323.288 116.841 323.552C117.045 323.812 117.151 324.108 117.159 324.44H116.199C116.195 324.264 116.131 324.104 116.007 323.96C115.887 323.816 115.723 323.704 115.515 323.624C115.307 323.54 115.075 323.498 114.819 323.498C114.571 323.498 114.347 323.538 114.147 323.618C113.951 323.694 113.797 323.802 113.685 323.942C113.577 324.078 113.523 324.236 113.523 324.416C113.523 324.656 113.595 324.85 113.739 324.998C113.883 325.142 114.095 325.236 114.375 325.28L115.527 325.466C116.087 325.554 116.515 325.754 116.811 326.066C117.111 326.378 117.261 326.776 117.261 327.26C117.261 327.636 117.165 327.966 116.973 328.25C116.781 328.534 116.509 328.754 116.157 328.91C115.805 329.066 115.395 329.144 114.927 329.144ZM120.112 329H119.122V320.6H120.394L123.376 327.47L123.538 327.914L123.694 327.47L126.598 320.6H127.906V329H126.91V322.028L123.952 329H123.082L120.112 322.064V329ZM132.542 322.712C133.006 322.712 133.412 322.798 133.76 322.97C134.112 323.138 134.384 323.384 134.576 323.708C134.768 324.032 134.864 324.422 134.864 324.878V329H133.928V328.088C133.74 328.432 133.47 328.694 133.118 328.874C132.77 329.054 132.352 329.144 131.864 329.144C131.46 329.144 131.1 329.07 130.784 328.922C130.472 328.77 130.228 328.56 130.052 328.292C129.88 328.024 129.794 327.718 129.794 327.374C129.794 327.054 129.874 326.76 130.034 326.492C130.198 326.22 130.424 325.998 130.712 325.826C131 325.654 131.326 325.55 131.69 325.514L133.484 325.334C133.616 325.322 133.72 325.266 133.796 325.166C133.876 325.066 133.916 324.922 133.916 324.734C133.916 324.49 133.856 324.276 133.736 324.092C133.62 323.908 133.456 323.766 133.244 323.666C133.036 323.566 132.794 323.516 132.518 323.516C132.246 323.516 131.998 323.562 131.774 323.654C131.55 323.746 131.368 323.872 131.228 324.032C131.088 324.192 131.006 324.368 130.982 324.56H130.046C130.082 324.22 130.214 323.91 130.442 323.63C130.67 323.346 130.968 323.122 131.336 322.958C131.704 322.794 132.106 322.712 132.542 322.712ZM132.044 328.394C132.408 328.394 132.732 328.324 133.016 328.184C133.3 328.04 133.52 327.84 133.676 327.584C133.836 327.324 133.916 327.03 133.916 326.702V326.006L131.822 326.222C131.502 326.254 131.244 326.372 131.048 326.576C130.852 326.78 130.754 327.028 130.754 327.32C130.754 327.528 130.808 327.714 130.916 327.878C131.024 328.038 131.176 328.164 131.372 328.256C131.568 328.348 131.792 328.394 132.044 328.394ZM137.748 329H136.788V322.856H137.748V329ZM136.722 321.74V320.6H137.814V321.74H136.722ZM142.703 322.712C143.163 322.712 143.565 322.812 143.909 323.012C144.253 323.208 144.517 323.488 144.701 323.852C144.889 324.216 144.983 324.64 144.983 325.124V329H144.023V325.196C144.023 324.672 143.887 324.264 143.615 323.972C143.347 323.676 142.973 323.528 142.493 323.528C142.149 323.528 141.847 323.602 141.587 323.75C141.327 323.894 141.125 324.102 140.981 324.374C140.841 324.646 140.771 324.966 140.771 325.334V329H139.811V322.856H140.735V323.798C140.931 323.438 141.195 323.168 141.527 322.988C141.859 322.804 142.251 322.712 142.703 322.712Z" fill="white"/>
<rect x="46.35" y="294.35" width="115.3" height="58.3" rx="14.65" stroke="#595959" stroke-width="0.7"/>
<path d="M366 94L368.021 97.5L363.979 97.5L366 94ZM365.65 294L365.65 97.15L366.35 97.15L366.35 294L365.65 294Z" fill="black"/>
<defs>
<radialGradient id="paint0_radial_1506_207" cx="0" cy="0" r="1" gradientUnits="userSpaceOnUse" gradientTransform="translate(142.449 82.7987) scale(192.038 196.159)">
<stop stop-color="#EB4857"/>
<stop offset="0.5" stop-color="#C611E0"/>
<stop offset="1" stop-color="#7F52FF"/>
</radialGradient>
<radialGradient id="paint1_radial_1506_207" cx="0" cy="0" r="1" gradientUnits="userSpaceOnUse" gradientTransform="translate(427.678 232.799) scale(112.103 196.159)">
<stop stop-color="#EB4857"/>
<stop offset="0.5" stop-color="#C611E0"/>
<stop offset="1" stop-color="#7F52FF"/>
</radialGradient>
<radialGradient id="paint2_radial_1506_207" cx="0" cy="0" r="1" gradientUnits="userSpaceOnUse" gradientTransform="translate(249.678 350.799) scale(112.103 196.159)">
<stop stop-color="#EB4857"/>
<stop offset="0.5" stop-color="#C611E0"/>
<stop offset="1" stop-color="#7F52FF"/>
</radialGradient>
<radialGradient id="paint3_radial_1506_207" cx="0" cy="0" r="1" gradientUnits="userSpaceOnUse" gradientTransform="translate(47.7472 232.799) scale(102.183 196.159)">
<stop stop-color="#EB4857"/>
<stop offset="0.5" stop-color="#C611E0"/>
<stop offset="1" stop-color="#7F52FF"/>
</radialGradient>
<radialGradient id="paint4_radial_1506_207" cx="0" cy="0" r="1" gradientUnits="userSpaceOnUse" gradientTransform="translate(49.6949 350.799) scale(106.254 196.159)">
<stop stop-color="#EB4857"/>
<stop offset="0.5" stop-color="#C611E0"/>
<stop offset="1" stop-color="#7F52FF"/>
</radialGradient>
</defs>
</svg>
