<svg width="706" height="272" viewBox="0 0 706 272" fill="none" xmlns="http://www.w3.org/2000/svg">
<rect width="706" height="272" fill="white"/>
<path d="M360.5 130.07L360.85 130.07L360.5 130.07ZM374.5 144.07L374.5 143.72L374.5 144.07ZM527 144.07L527 144.42L527 144.07ZM541 194.887L538.979 191.387L543.021 191.387L541 194.887ZM360.85 84.2859L360.85 130.07L360.15 130.07L360.15 84.2859L360.85 84.2859ZM374.5 143.72L527 143.72L527 144.42L374.5 144.42L374.5 143.72ZM541.35 158.07L541.35 191.737L540.65 191.737L540.65 158.07L541.35 158.07ZM527 143.72C534.925 143.72 541.35 150.145 541.35 158.07L540.65 158.07C540.65 150.531 534.539 144.42 527 144.42L527 143.72ZM360.85 130.07C360.85 137.609 366.961 143.72 374.5 143.72L374.5 144.42C366.575 144.42 360.15 137.995 360.15 130.07L360.85 130.07Z" fill="black"/>
<rect x="457" y="200.367" width="167" height="45.8345" rx="12" fill="#D7C6FF"/>
<path d="M488.352 212.931H489.408L493.86 219.747V212.931H494.856V221.331H493.788L489.348 214.515V221.331H488.352V212.931ZM499.487 215.043C499.951 215.043 500.357 215.129 500.705 215.301C501.057 215.469 501.329 215.715 501.521 216.039C501.713 216.363 501.809 216.753 501.809 217.209V221.331H500.873V220.419C500.685 220.763 500.415 221.025 500.063 221.205C499.715 221.385 499.297 221.475 498.809 221.475C498.405 221.475 498.045 221.401 497.729 221.253C497.417 221.101 497.173 220.891 496.997 220.623C496.825 220.355 496.739 220.049 496.739 219.705C496.739 219.385 496.819 219.091 496.979 218.823C497.143 218.551 497.369 218.329 497.657 218.157C497.945 217.985 498.271 217.881 498.635 217.845L500.429 217.665C500.561 217.653 500.665 217.597 500.741 217.497C500.821 217.397 500.861 217.253 500.861 217.065C500.861 216.821 500.801 216.607 500.681 216.423C500.565 216.239 500.401 216.097 500.189 215.997C499.981 215.897 499.739 215.847 499.463 215.847C499.191 215.847 498.943 215.893 498.719 215.985C498.495 216.077 498.313 216.203 498.173 216.363C498.033 216.523 497.951 216.699 497.927 216.891H496.991C497.027 216.551 497.159 216.241 497.387 215.961C497.615 215.677 497.913 215.453 498.281 215.289C498.649 215.125 499.051 215.043 499.487 215.043ZM498.989 220.725C499.353 220.725 499.677 220.655 499.961 220.515C500.245 220.371 500.465 220.171 500.621 219.915C500.781 219.655 500.861 219.361 500.861 219.033V218.337L498.767 218.553C498.447 218.585 498.189 218.703 497.993 218.907C497.797 219.111 497.699 219.359 497.699 219.651C497.699 219.859 497.753 220.045 497.861 220.209C497.969 220.369 498.121 220.495 498.317 220.587C498.513 220.679 498.737 220.725 498.989 220.725ZM505.383 221.331C504.939 221.331 504.587 221.213 504.327 220.977C504.071 220.741 503.943 220.415 503.943 219.999L503.937 216.039H502.857L502.863 215.187H503.529C503.681 215.187 503.803 215.139 503.895 215.043C503.991 214.947 504.039 214.825 504.039 214.677V213.651H504.903V215.187H506.385L506.379 216.039H504.897L504.903 219.939C504.903 220.107 504.951 220.239 505.047 220.335C505.147 220.431 505.279 220.479 505.443 220.479H506.379V221.331H505.383ZM508.959 221.331H507.999V215.187H508.959V221.331ZM507.933 214.071V212.931H509.025V214.071H507.933ZM513.662 221.331H512.642L510.248 215.187H511.292L513.188 220.209L515.048 215.187H516.056L513.662 221.331ZM522.65 218.493H517.778C517.814 218.913 517.924 219.285 518.108 219.609C518.292 219.933 518.534 220.185 518.834 220.365C519.134 220.545 519.474 220.635 519.854 220.635C520.11 220.635 520.356 220.595 520.592 220.515C520.828 220.435 521.034 220.323 521.21 220.179C521.386 220.035 521.512 219.871 521.588 219.687H522.512C522.444 220.023 522.278 220.327 522.014 220.599C521.754 220.871 521.428 221.085 521.036 221.241C520.648 221.397 520.234 221.475 519.794 221.475C519.214 221.475 518.694 221.337 518.234 221.061C517.778 220.785 517.422 220.403 517.166 219.915C516.91 219.423 516.782 218.867 516.782 218.247C516.782 217.643 516.912 217.097 517.172 216.609C517.432 216.121 517.79 215.739 518.246 215.463C518.706 215.183 519.222 215.043 519.794 215.043C520.338 215.043 520.826 215.183 521.258 215.463C521.694 215.739 522.034 216.123 522.278 216.615C522.526 217.103 522.65 217.651 522.65 218.259V218.493ZM519.806 215.889C519.266 215.889 518.818 216.051 518.462 216.375C518.106 216.699 517.886 217.141 517.802 217.701H521.648C521.564 217.145 521.358 216.705 521.03 216.381C520.706 216.053 520.298 215.889 519.806 215.889ZM532.201 218.493H527.329C527.365 218.913 527.475 219.285 527.659 219.609C527.843 219.933 528.085 220.185 528.385 220.365C528.685 220.545 529.025 220.635 529.405 220.635C529.661 220.635 529.907 220.595 530.143 220.515C530.379 220.435 530.585 220.323 530.761 220.179C530.937 220.035 531.063 219.871 531.139 219.687H532.063C531.995 220.023 531.829 220.327 531.565 220.599C531.305 220.871 530.979 221.085 530.587 221.241C530.199 221.397 529.785 221.475 529.345 221.475C528.765 221.475 528.245 221.337 527.785 221.061C527.329 220.785 526.973 220.403 526.717 219.915C526.461 219.423 526.333 218.867 526.333 218.247C526.333 217.643 526.463 217.097 526.723 216.609C526.983 216.121 527.341 215.739 527.797 215.463C528.257 215.183 528.773 215.043 529.345 215.043C529.889 215.043 530.377 215.183 530.809 215.463C531.245 215.739 531.585 216.123 531.829 216.615C532.077 217.103 532.201 217.651 532.201 218.259V218.493ZM529.357 215.889C528.817 215.889 528.369 216.051 528.013 216.375C527.657 216.699 527.437 217.141 527.353 217.701H531.199C531.115 217.145 530.909 216.705 530.581 216.381C530.257 216.053 529.849 215.889 529.357 215.889ZM536.149 218.181L538.381 221.331H537.289L535.597 218.913L533.923 221.331H532.873L535.111 218.163L532.993 215.187H534.085L535.657 217.431L537.211 215.187H538.261L536.149 218.181ZM544.916 218.493H540.044C540.08 218.913 540.19 219.285 540.374 219.609C540.558 219.933 540.8 220.185 541.1 220.365C541.4 220.545 541.74 220.635 542.12 220.635C542.376 220.635 542.622 220.595 542.858 220.515C543.094 220.435 543.3 220.323 543.476 220.179C543.652 220.035 543.778 219.871 543.854 219.687H544.778C544.71 220.023 544.544 220.327 544.28 220.599C544.02 220.871 543.694 221.085 543.302 221.241C542.914 221.397 542.5 221.475 542.06 221.475C541.48 221.475 540.96 221.337 540.5 221.061C540.044 220.785 539.688 220.403 539.432 219.915C539.176 219.423 539.048 218.867 539.048 218.247C539.048 217.643 539.178 217.097 539.438 216.609C539.698 216.121 540.056 215.739 540.512 215.463C540.972 215.183 541.488 215.043 542.06 215.043C542.604 215.043 543.092 215.183 543.524 215.463C543.96 215.739 544.3 216.123 544.544 216.615C544.792 217.103 544.916 217.651 544.916 218.259V218.493ZM542.072 215.889C541.532 215.889 541.084 216.051 540.728 216.375C540.372 216.699 540.152 217.141 540.068 217.701H543.914C543.83 217.145 543.624 216.705 543.296 216.381C542.972 216.053 542.564 215.889 542.072 215.889ZM549.057 221.475C548.477 221.475 547.953 221.335 547.485 221.055C547.017 220.775 546.649 220.391 546.381 219.903C546.117 219.411 545.985 218.863 545.985 218.259C545.985 217.655 546.117 217.109 546.381 216.621C546.649 216.129 547.017 215.743 547.485 215.463C547.953 215.183 548.477 215.043 549.057 215.043C549.553 215.043 550.009 215.141 550.425 215.337C550.841 215.529 551.177 215.797 551.433 216.141C551.693 216.481 551.843 216.863 551.883 217.287H550.923C550.875 217.023 550.761 216.785 550.581 216.573C550.405 216.361 550.183 216.195 549.915 216.075C549.651 215.955 549.365 215.895 549.057 215.895C548.665 215.895 548.311 215.999 547.995 216.207C547.683 216.411 547.437 216.693 547.257 217.053C547.081 217.413 546.993 217.815 546.993 218.259C546.993 218.703 547.081 219.105 547.257 219.465C547.437 219.825 547.683 220.107 547.995 220.311C548.311 220.515 548.665 220.617 549.057 220.617C549.365 220.617 549.651 220.559 549.915 220.443C550.183 220.327 550.405 220.169 550.581 219.969C550.761 219.765 550.875 219.539 550.923 219.291H551.883C551.847 219.703 551.699 220.075 551.439 220.407C551.183 220.739 550.847 221.001 550.431 221.193C550.015 221.381 549.557 221.475 549.057 221.475ZM557.512 215.187H558.472V221.331H557.548V220.389C557.352 220.749 557.088 221.021 556.756 221.205C556.424 221.385 556.032 221.475 555.58 221.475C555.12 221.475 554.718 221.377 554.374 221.181C554.03 220.981 553.764 220.699 553.576 220.335C553.392 219.971 553.3 219.547 553.3 219.063V215.187H554.26V218.991C554.26 219.515 554.394 219.925 554.662 220.221C554.934 220.513 555.31 220.659 555.79 220.659C556.134 220.659 556.436 220.587 556.696 220.443C556.956 220.295 557.156 220.085 557.296 219.813C557.44 219.541 557.512 219.221 557.512 218.853V215.187ZM562.184 221.331C561.74 221.331 561.388 221.213 561.128 220.977C560.872 220.741 560.744 220.415 560.744 219.999L560.738 216.039H559.658L559.664 215.187H560.33C560.482 215.187 560.604 215.139 560.696 215.043C560.792 214.947 560.84 214.825 560.84 214.677V213.651H561.704V215.187H563.186L563.18 216.039H561.698L561.704 219.939C561.704 220.107 561.752 220.239 561.848 220.335C561.948 220.431 562.08 220.479 562.244 220.479H563.18V221.331H562.184ZM567.128 215.043C567.592 215.043 567.998 215.129 568.346 215.301C568.698 215.469 568.97 215.715 569.162 216.039C569.354 216.363 569.45 216.753 569.45 217.209V221.331H568.514V220.419C568.326 220.763 568.056 221.025 567.704 221.205C567.356 221.385 566.938 221.475 566.45 221.475C566.046 221.475 565.686 221.401 565.37 221.253C565.058 221.101 564.814 220.891 564.638 220.623C564.466 220.355 564.38 220.049 564.38 219.705C564.38 219.385 564.46 219.091 564.62 218.823C564.784 218.551 565.01 218.329 565.298 218.157C565.586 217.985 565.912 217.881 566.276 217.845L568.07 217.665C568.202 217.653 568.306 217.597 568.382 217.497C568.462 217.397 568.502 217.253 568.502 217.065C568.502 216.821 568.442 216.607 568.322 216.423C568.206 216.239 568.042 216.097 567.83 215.997C567.622 215.897 567.38 215.847 567.104 215.847C566.832 215.847 566.584 215.893 566.36 215.985C566.136 216.077 565.954 216.203 565.814 216.363C565.674 216.523 565.592 216.699 565.568 216.891H564.632C564.668 216.551 564.8 216.241 565.028 215.961C565.256 215.677 565.554 215.453 565.922 215.289C566.29 215.125 566.692 215.043 567.128 215.043ZM566.63 220.725C566.994 220.725 567.318 220.655 567.602 220.515C567.886 220.371 568.106 220.171 568.262 219.915C568.422 219.655 568.502 219.361 568.502 219.033V218.337L566.408 218.553C566.088 218.585 565.83 218.703 565.634 218.907C565.438 219.111 565.34 219.359 565.34 219.651C565.34 219.859 565.394 220.045 565.502 220.209C565.61 220.369 565.762 220.495 565.958 220.587C566.154 220.679 566.378 220.725 566.63 220.725ZM574.482 215.043C575.038 215.043 575.542 215.183 575.994 215.463C576.446 215.743 576.8 216.129 577.056 216.621C577.312 217.109 577.44 217.655 577.44 218.259C577.44 218.863 577.312 219.411 577.056 219.903C576.8 220.391 576.446 220.775 575.994 221.055C575.542 221.335 575.038 221.475 574.482 221.475C574.014 221.475 573.592 221.373 573.216 221.169C572.84 220.965 572.534 220.675 572.298 220.299V221.331H571.374V215.187H571.38V212.931H572.34L572.304 216.219C572.54 215.843 572.844 215.553 573.216 215.349C573.592 215.145 574.014 215.043 574.482 215.043ZM574.392 220.611C574.78 220.611 575.128 220.509 575.436 220.305C575.748 220.101 575.992 219.821 576.168 219.465C576.344 219.105 576.432 218.703 576.432 218.259C576.432 217.815 576.344 217.415 576.168 217.059C575.992 216.699 575.748 216.417 575.436 216.213C575.128 216.009 574.78 215.907 574.392 215.907C574 215.907 573.646 216.009 573.33 216.213C573.018 216.417 572.774 216.699 572.598 217.059C572.422 217.415 572.334 217.815 572.334 218.259C572.334 218.703 572.422 219.105 572.598 219.465C572.774 219.821 573.018 220.101 573.33 220.305C573.646 220.509 574 220.611 574.392 220.611ZM579.963 221.331H579.003V212.931H579.963V221.331ZM587.396 218.493H582.524C582.56 218.913 582.67 219.285 582.854 219.609C583.038 219.933 583.28 220.185 583.58 220.365C583.88 220.545 584.22 220.635 584.6 220.635C584.856 220.635 585.102 220.595 585.338 220.515C585.574 220.435 585.78 220.323 585.956 220.179C586.132 220.035 586.258 219.871 586.334 219.687H587.258C587.19 220.023 587.024 220.327 586.76 220.599C586.5 220.871 586.174 221.085 585.782 221.241C585.394 221.397 584.98 221.475 584.54 221.475C583.96 221.475 583.44 221.337 582.98 221.061C582.524 220.785 582.168 220.403 581.912 219.915C581.656 219.423 581.528 218.867 581.528 218.247C581.528 217.643 581.658 217.097 581.918 216.609C582.178 216.121 582.536 215.739 582.992 215.463C583.452 215.183 583.968 215.043 584.54 215.043C585.084 215.043 585.572 215.183 586.004 215.463C586.44 215.739 586.78 216.123 587.024 216.615C587.272 217.103 587.396 217.651 587.396 218.259V218.493ZM584.552 215.889C584.012 215.889 583.564 216.051 583.208 216.375C582.852 216.699 582.632 217.141 582.548 217.701H586.394C586.31 217.145 586.104 216.705 585.776 216.381C585.452 216.053 585.044 215.889 584.552 215.889ZM590.998 221.475C590.498 221.475 590.056 221.397 589.672 221.241C589.292 221.081 588.996 220.861 588.784 220.581C588.576 220.301 588.47 219.983 588.466 219.627H589.426C589.434 219.835 589.504 220.019 589.636 220.179C589.768 220.339 589.948 220.465 590.176 220.557C590.408 220.645 590.672 220.689 590.968 220.689C591.424 220.689 591.778 220.593 592.03 220.401C592.282 220.209 592.408 219.947 592.408 219.615C592.408 219.359 592.33 219.151 592.174 218.991C592.022 218.827 591.796 218.721 591.496 218.673L590.38 218.499C589.844 218.415 589.426 218.221 589.126 217.917C588.826 217.609 588.676 217.227 588.676 216.771C588.676 216.435 588.77 216.137 588.958 215.877C589.15 215.613 589.414 215.409 589.75 215.265C590.09 215.117 590.474 215.043 590.902 215.043C591.342 215.043 591.736 215.117 592.084 215.265C592.436 215.413 592.712 215.619 592.912 215.883C593.116 216.143 593.222 216.439 593.23 216.771H592.27C592.266 216.595 592.202 216.435 592.078 216.291C591.958 216.147 591.794 216.035 591.586 215.955C591.378 215.871 591.146 215.829 590.89 215.829C590.642 215.829 590.418 215.869 590.218 215.949C590.022 216.025 589.868 216.133 589.756 216.273C589.648 216.409 589.594 216.567 589.594 216.747C589.594 216.987 589.666 217.181 589.81 217.329C589.954 217.473 590.166 217.567 590.446 217.611L591.598 217.797C592.158 217.885 592.586 218.085 592.882 218.397C593.182 218.709 593.332 219.107 593.332 219.591C593.332 219.967 593.236 220.297 593.044 220.581C592.852 220.865 592.58 221.085 592.228 221.241C591.876 221.397 591.466 221.475 590.998 221.475ZM473.657 235.331V230.039H472.577V229.187H473.657V228.263C473.657 227.847 473.783 227.521 474.035 227.285C474.291 227.049 474.645 226.931 475.097 226.931H476.201V227.783H475.157C474.985 227.783 474.851 227.831 474.755 227.927C474.663 228.023 474.617 228.155 474.617 228.323V229.187H476.141V230.039H474.617V235.331H473.657ZM480.104 235.475C479.52 235.475 478.994 235.337 478.526 235.061C478.058 234.781 477.69 234.397 477.422 233.909C477.154 233.421 477.02 232.871 477.02 232.259C477.02 231.647 477.154 231.097 477.422 230.609C477.69 230.121 478.06 229.739 478.532 229.463C479.004 229.183 479.532 229.043 480.116 229.043C480.7 229.043 481.228 229.183 481.7 229.463C482.172 229.739 482.542 230.121 482.81 230.609C483.078 231.097 483.212 231.647 483.212 232.259C483.212 232.871 483.076 233.421 482.804 233.909C482.536 234.397 482.166 234.781 481.694 235.061C481.222 235.337 480.692 235.475 480.104 235.475ZM480.116 234.587C480.516 234.587 480.874 234.491 481.19 234.299C481.506 234.103 481.754 233.829 481.934 233.477C482.114 233.125 482.204 232.719 482.204 232.259C482.204 231.799 482.114 231.393 481.934 231.041C481.754 230.685 481.506 230.411 481.19 230.219C480.874 230.023 480.516 229.925 480.116 229.925C479.716 229.925 479.358 230.023 479.042 230.219C478.726 230.411 478.478 230.685 478.298 231.041C478.118 231.393 478.028 231.799 478.028 232.259C478.028 232.719 478.118 233.125 478.298 233.477C478.478 233.829 478.726 234.103 479.042 234.299C479.358 234.491 479.716 234.587 480.116 234.587ZM487.766 229.127V230.129H487.544C486.984 230.129 486.544 230.297 486.224 230.633C485.904 230.969 485.744 231.441 485.744 232.049V235.331H484.784V229.187H485.744V230.423C485.916 230.007 486.156 229.687 486.464 229.463C486.776 229.239 487.148 229.127 487.58 229.127H487.766ZM494.532 235.475C494.112 235.475 493.702 235.391 493.302 235.223C492.906 235.051 492.574 234.819 492.306 234.527C491.99 234.183 491.748 233.743 491.58 233.207C491.416 232.667 491.334 232.047 491.334 231.347C491.334 230.451 491.474 229.659 491.754 228.971C492.034 228.279 492.424 227.743 492.924 227.363C493.428 226.979 494.002 226.787 494.646 226.787C495.07 226.787 495.478 226.869 495.87 227.033C496.262 227.197 496.592 227.427 496.86 227.723C497.132 228.019 497.306 228.355 497.382 228.731H496.374C496.334 228.523 496.228 228.339 496.056 228.179C495.884 228.015 495.672 227.889 495.42 227.801C495.168 227.709 494.91 227.663 494.646 227.663C494.178 227.663 493.766 227.813 493.41 228.113C493.058 228.413 492.782 228.845 492.582 229.409C492.382 229.973 492.276 230.641 492.264 231.413C492.384 231.109 492.57 230.835 492.822 230.591C493.074 230.343 493.368 230.149 493.704 230.009C494.04 229.869 494.39 229.799 494.754 229.799C495.298 229.799 495.782 229.921 496.206 230.165C496.63 230.405 496.958 230.741 497.19 231.173C497.426 231.601 497.544 232.089 497.544 232.637C497.544 233.189 497.416 233.681 497.16 234.113C496.908 234.541 496.554 234.875 496.098 235.115C495.642 235.355 495.12 235.475 494.532 235.475ZM494.574 234.599C494.954 234.599 495.29 234.517 495.582 234.353C495.878 234.185 496.106 233.953 496.266 233.657C496.43 233.361 496.512 233.023 496.512 232.643C496.512 232.263 496.43 231.925 496.266 231.629C496.102 231.329 495.87 231.095 495.57 230.927C495.27 230.759 494.924 230.675 494.532 230.675C494.14 230.675 493.79 230.761 493.482 230.933C493.178 231.105 492.94 231.341 492.768 231.641C492.6 231.937 492.516 232.267 492.516 232.631C492.516 232.999 492.604 233.333 492.78 233.633C492.956 233.933 493.2 234.169 493.512 234.341C493.828 234.513 494.182 234.599 494.574 234.599ZM503.66 226.931V232.361H504.968V233.261H503.66V235.331H502.676V233.261H498.416V232.325L502.67 226.931H503.66ZM502.676 228.239L499.466 232.361H502.676V228.239ZM506.37 232.307V231.467H510.39V232.307H506.37ZM515.56 229.043C516.116 229.043 516.62 229.183 517.072 229.463C517.524 229.743 517.878 230.129 518.134 230.621C518.39 231.109 518.518 231.655 518.518 232.259C518.518 232.863 518.39 233.411 518.134 233.903C517.878 234.391 517.524 234.775 517.072 235.055C516.62 235.335 516.116 235.475 515.56 235.475C515.092 235.475 514.67 235.373 514.294 235.169C513.918 234.965 513.612 234.675 513.376 234.299V235.331H512.452V229.187H512.458V226.931H513.418L513.382 230.219C513.618 229.843 513.922 229.553 514.294 229.349C514.67 229.145 515.092 229.043 515.56 229.043ZM515.47 234.611C515.858 234.611 516.206 234.509 516.514 234.305C516.826 234.101 517.07 233.821 517.246 233.465C517.422 233.105 517.51 232.703 517.51 232.259C517.51 231.815 517.422 231.415 517.246 231.059C517.07 230.699 516.826 230.417 516.514 230.213C516.206 230.009 515.858 229.907 515.47 229.907C515.078 229.907 514.724 230.009 514.408 230.213C514.096 230.417 513.852 230.699 513.676 231.059C513.5 231.415 513.412 231.815 513.412 232.259C513.412 232.703 513.5 233.105 513.676 233.465C513.852 233.821 514.096 234.101 514.408 234.305C514.724 234.509 515.078 234.611 515.47 234.611ZM521.041 235.331H520.081V229.187H521.041V235.331ZM520.015 228.071V226.931H521.107V228.071H520.015ZM524.754 235.331C524.31 235.331 523.958 235.213 523.698 234.977C523.442 234.741 523.314 234.415 523.314 233.999L523.308 230.039H522.228L522.234 229.187H522.9C523.052 229.187 523.174 229.139 523.266 229.043C523.362 228.947 523.41 228.825 523.41 228.677V227.651H524.274V229.187H525.756L525.75 230.039H524.268L524.274 233.939C524.274 234.107 524.322 234.239 524.418 234.335C524.518 234.431 524.65 234.479 524.814 234.479H525.75V235.331H524.754ZM531.295 235.331H530.335V229.187H531.295V235.331ZM530.269 228.071V226.931H531.361V228.071H530.269ZM533.598 235.331V226.931H536.958C537.494 226.931 537.964 227.031 538.368 227.231C538.776 227.431 539.09 227.715 539.31 228.083C539.534 228.451 539.646 228.879 539.646 229.367C539.646 229.855 539.532 230.285 539.304 230.657C539.08 231.025 538.762 231.311 538.35 231.515C537.938 231.715 537.458 231.815 536.91 231.815H534.594V235.331H533.598ZM536.958 230.885C537.286 230.885 537.572 230.823 537.816 230.699C538.064 230.575 538.254 230.399 538.386 230.171C538.522 229.943 538.59 229.675 538.59 229.367C538.59 229.063 538.522 228.797 538.386 228.569C538.254 228.341 538.064 228.167 537.816 228.047C537.572 227.923 537.286 227.861 536.958 227.861H534.594V230.885H536.958ZM543.867 229.043C544.327 229.043 544.729 229.143 545.073 229.343C545.417 229.539 545.681 229.819 545.865 230.183C546.053 230.547 546.147 230.971 546.147 231.455V235.331H545.187V231.497C545.187 230.981 545.055 230.579 544.791 230.291C544.531 230.003 544.165 229.859 543.693 229.859C543.337 229.859 543.027 229.941 542.763 230.105C542.499 230.265 542.295 230.495 542.151 230.795C542.007 231.091 541.935 231.441 541.935 231.845V235.331H540.975V226.931H541.935V228.905L541.899 230.123C542.091 229.771 542.353 229.503 542.685 229.319C543.021 229.135 543.415 229.043 543.867 229.043ZM550.651 235.475C550.067 235.475 549.541 235.337 549.073 235.061C548.605 234.781 548.237 234.397 547.969 233.909C547.701 233.421 547.567 232.871 547.567 232.259C547.567 231.647 547.701 231.097 547.969 230.609C548.237 230.121 548.607 229.739 549.079 229.463C549.551 229.183 550.079 229.043 550.663 229.043C551.247 229.043 551.775 229.183 552.247 229.463C552.719 229.739 553.089 230.121 553.357 230.609C553.625 231.097 553.759 231.647 553.759 232.259C553.759 232.871 553.623 233.421 553.351 233.909C553.083 234.397 552.713 234.781 552.241 235.061C551.769 235.337 551.239 235.475 550.651 235.475ZM550.663 234.587C551.063 234.587 551.421 234.491 551.737 234.299C552.053 234.103 552.301 233.829 552.481 233.477C552.661 233.125 552.751 232.719 552.751 232.259C552.751 231.799 552.661 231.393 552.481 231.041C552.301 230.685 552.053 230.411 551.737 230.219C551.421 230.023 551.063 229.925 550.663 229.925C550.263 229.925 549.905 230.023 549.589 230.219C549.273 230.411 549.025 230.685 548.845 231.041C548.665 231.393 548.575 231.799 548.575 232.259C548.575 232.719 548.665 233.125 548.845 233.477C549.025 233.829 549.273 234.103 549.589 234.299C549.905 234.491 550.263 234.587 550.663 234.587ZM558.223 229.043C558.683 229.043 559.085 229.143 559.429 229.343C559.773 229.539 560.037 229.819 560.221 230.183C560.409 230.547 560.503 230.971 560.503 231.455V235.331H559.543V231.527C559.543 231.003 559.407 230.595 559.135 230.303C558.867 230.007 558.493 229.859 558.013 229.859C557.669 229.859 557.367 229.933 557.107 230.081C556.847 230.225 556.645 230.433 556.501 230.705C556.361 230.977 556.291 231.297 556.291 231.665V235.331H555.331V229.187H556.255V230.129C556.451 229.769 556.715 229.499 557.047 229.319C557.379 229.135 557.771 229.043 558.223 229.043ZM567.791 232.493H562.919C562.955 232.913 563.065 233.285 563.249 233.609C563.433 233.933 563.675 234.185 563.975 234.365C564.275 234.545 564.615 234.635 564.995 234.635C565.251 234.635 565.497 234.595 565.733 234.515C565.969 234.435 566.175 234.323 566.351 234.179C566.527 234.035 566.653 233.871 566.729 233.687H567.653C567.585 234.023 567.419 234.327 567.155 234.599C566.895 234.871 566.569 235.085 566.177 235.241C565.789 235.397 565.375 235.475 564.935 235.475C564.355 235.475 563.835 235.337 563.375 235.061C562.919 234.785 562.563 234.403 562.307 233.915C562.051 233.423 561.923 232.867 561.923 232.247C561.923 231.643 562.053 231.097 562.313 230.609C562.573 230.121 562.931 229.739 563.387 229.463C563.847 229.183 564.363 229.043 564.935 229.043C565.479 229.043 565.967 229.183 566.399 229.463C566.835 229.739 567.175 230.123 567.419 230.615C567.667 231.103 567.791 231.651 567.791 232.259V232.493ZM564.947 229.889C564.407 229.889 563.959 230.051 563.603 230.375C563.247 230.699 563.027 231.141 562.943 231.701H566.789C566.705 231.145 566.499 230.705 566.171 230.381C565.847 230.053 565.439 229.889 564.947 229.889ZM577.533 229.187H577.539V235.331H576.615V234.299C576.379 234.675 576.073 234.965 575.697 235.169C575.321 235.373 574.899 235.475 574.431 235.475C573.875 235.475 573.371 235.335 572.919 235.055C572.467 234.775 572.113 234.391 571.857 233.903C571.601 233.411 571.473 232.863 571.473 232.259C571.473 231.655 571.601 231.109 571.857 230.621C572.113 230.129 572.467 229.743 572.919 229.463C573.371 229.183 573.875 229.043 574.431 229.043C574.899 229.043 575.319 229.145 575.691 229.349C576.067 229.553 576.373 229.843 576.609 230.219L576.573 226.931H577.533V229.187ZM574.521 234.611C574.913 234.611 575.265 234.509 575.577 234.305C575.893 234.101 576.139 233.821 576.315 233.465C576.491 233.105 576.579 232.703 576.579 232.259C576.579 231.815 576.491 231.415 576.315 231.059C576.139 230.699 575.893 230.417 575.577 230.213C575.265 230.009 574.913 229.907 574.521 229.907C574.133 229.907 573.783 230.009 573.471 230.213C573.163 230.417 572.921 230.699 572.745 231.059C572.569 231.415 572.481 231.815 572.481 232.259C572.481 232.703 572.569 233.105 572.745 233.465C572.921 233.821 573.163 234.101 573.471 234.305C573.783 234.509 574.133 234.611 574.521 234.611ZM584.923 232.493H580.051C580.087 232.913 580.197 233.285 580.381 233.609C580.565 233.933 580.807 234.185 581.107 234.365C581.407 234.545 581.747 234.635 582.127 234.635C582.383 234.635 582.629 234.595 582.865 234.515C583.101 234.435 583.307 234.323 583.483 234.179C583.659 234.035 583.785 233.871 583.861 233.687H584.785C584.717 234.023 584.551 234.327 584.287 234.599C584.027 234.871 583.701 235.085 583.309 235.241C582.921 235.397 582.507 235.475 582.067 235.475C581.487 235.475 580.967 235.337 580.507 235.061C580.051 234.785 579.695 234.403 579.439 233.915C579.183 233.423 579.055 232.867 579.055 232.247C579.055 231.643 579.185 231.097 579.445 230.609C579.705 230.121 580.063 229.739 580.519 229.463C580.979 229.183 581.495 229.043 582.067 229.043C582.611 229.043 583.099 229.183 583.531 229.463C583.967 229.739 584.307 230.123 584.551 230.615C584.799 231.103 584.923 231.651 584.923 232.259V232.493ZM582.079 229.889C581.539 229.889 581.091 230.051 580.735 230.375C580.379 230.699 580.159 231.141 580.075 231.701H583.921C583.837 231.145 583.631 230.705 583.303 230.381C582.979 230.053 582.571 229.889 582.079 229.889ZM589.061 235.331H588.041L585.647 229.187H586.691L588.587 234.209L590.447 229.187H591.455L589.061 235.331ZM593.709 235.331H592.749V229.187H593.709V235.331ZM592.683 228.071V226.931H593.775V228.071H592.683ZM598.346 235.475C597.766 235.475 597.242 235.335 596.774 235.055C596.306 234.775 595.938 234.391 595.67 233.903C595.406 233.411 595.274 232.863 595.274 232.259C595.274 231.655 595.406 231.109 595.67 230.621C595.938 230.129 596.306 229.743 596.774 229.463C597.242 229.183 597.766 229.043 598.346 229.043C598.842 229.043 599.298 229.141 599.714 229.337C600.13 229.529 600.466 229.797 600.722 230.141C600.982 230.481 601.132 230.863 601.172 231.287H600.212C600.164 231.023 600.05 230.785 599.87 230.573C599.694 230.361 599.472 230.195 599.204 230.075C598.94 229.955 598.654 229.895 598.346 229.895C597.954 229.895 597.6 229.999 597.284 230.207C596.972 230.411 596.726 230.693 596.546 231.053C596.37 231.413 596.282 231.815 596.282 232.259C596.282 232.703 596.37 233.105 596.546 233.465C596.726 233.825 596.972 234.107 597.284 234.311C597.6 234.515 597.954 234.617 598.346 234.617C598.654 234.617 598.94 234.559 599.204 234.443C599.472 234.327 599.694 234.169 599.87 233.969C600.05 233.765 600.164 233.539 600.212 233.291H601.172C601.136 233.703 600.988 234.075 600.728 234.407C600.472 234.739 600.136 235.001 599.72 235.193C599.304 235.381 598.846 235.475 598.346 235.475ZM608.103 232.493H603.231C603.267 232.913 603.377 233.285 603.561 233.609C603.745 233.933 603.987 234.185 604.287 234.365C604.587 234.545 604.927 234.635 605.307 234.635C605.563 234.635 605.809 234.595 606.045 234.515C606.281 234.435 606.487 234.323 606.663 234.179C606.839 234.035 606.965 233.871 607.041 233.687H607.965C607.897 234.023 607.731 234.327 607.467 234.599C607.207 234.871 606.881 235.085 606.489 235.241C606.101 235.397 605.687 235.475 605.247 235.475C604.667 235.475 604.147 235.337 603.687 235.061C603.231 234.785 602.875 234.403 602.619 233.915C602.363 233.423 602.235 232.867 602.235 232.247C602.235 231.643 602.365 231.097 602.625 230.609C602.885 230.121 603.243 229.739 603.699 229.463C604.159 229.183 604.675 229.043 605.247 229.043C605.791 229.043 606.279 229.183 606.711 229.463C607.147 229.739 607.487 230.123 607.731 230.615C607.979 231.103 608.103 231.651 608.103 232.259V232.493ZM605.259 229.889C604.719 229.889 604.271 230.051 603.915 230.375C603.559 230.699 603.339 231.141 603.255 231.701H607.101C607.017 231.145 606.811 230.705 606.483 230.381C606.159 230.053 605.751 229.889 605.259 229.889Z" fill="black"/>
<rect x="82" y="200.367" width="167" height="45.8345" rx="12" fill="#D7C6FF"/>
<path d="M125.094 227.309V226.379H126.702C127.006 226.379 127.252 226.285 127.44 226.097C127.628 225.909 127.722 225.663 127.722 225.359V218.909H128.718V225.497C128.718 225.849 128.638 226.163 128.478 226.439C128.318 226.715 128.094 226.929 127.806 227.081C127.518 227.233 127.19 227.309 126.822 227.309H125.094ZM134.5 227.309H133.288L130.174 218.909H131.266L133.936 226.145L136.51 218.909H137.614L134.5 227.309ZM140.129 227.309H139.139V218.909H140.411L143.393 225.779L143.555 226.223L143.711 225.779L146.615 218.909H147.923V227.309H146.927V220.337L143.969 227.309H143.099L140.129 220.373V227.309ZM152.926 227.309V225.989H154.246V227.309H152.926ZM158.254 227.453C157.674 227.453 157.15 227.313 156.682 227.033C156.214 226.753 155.846 226.369 155.578 225.881C155.314 225.389 155.182 224.841 155.182 224.237C155.182 223.633 155.314 223.087 155.578 222.599C155.846 222.107 156.214 221.721 156.682 221.441C157.15 221.161 157.674 221.021 158.254 221.021C158.75 221.021 159.206 221.119 159.622 221.315C160.038 221.507 160.374 221.775 160.63 222.119C160.89 222.459 161.04 222.841 161.08 223.265H160.12C160.072 223.001 159.958 222.763 159.778 222.551C159.602 222.339 159.38 222.173 159.112 222.053C158.848 221.933 158.562 221.873 158.254 221.873C157.862 221.873 157.508 221.977 157.192 222.185C156.88 222.389 156.634 222.671 156.454 223.031C156.278 223.391 156.19 223.793 156.19 224.237C156.19 224.681 156.278 225.083 156.454 225.443C156.634 225.803 156.88 226.085 157.192 226.289C157.508 226.493 157.862 226.595 158.254 226.595C158.562 226.595 158.848 226.537 159.112 226.421C159.38 226.305 159.602 226.147 159.778 225.947C159.958 225.743 160.072 225.517 160.12 225.269H161.08C161.044 225.681 160.896 226.053 160.636 226.385C160.38 226.717 160.044 226.979 159.628 227.171C159.212 227.359 158.754 227.453 158.254 227.453ZM163.601 227.309H162.641V218.909H163.601V227.309ZM167.993 221.021C168.457 221.021 168.863 221.107 169.211 221.279C169.563 221.447 169.835 221.693 170.027 222.017C170.219 222.341 170.315 222.731 170.315 223.187V227.309H169.379V226.397C169.191 226.741 168.921 227.003 168.569 227.183C168.221 227.363 167.803 227.453 167.315 227.453C166.911 227.453 166.551 227.379 166.235 227.231C165.923 227.079 165.679 226.869 165.503 226.601C165.331 226.333 165.245 226.027 165.245 225.683C165.245 225.363 165.325 225.069 165.485 224.801C165.649 224.529 165.875 224.307 166.163 224.135C166.451 223.963 166.777 223.859 167.141 223.823L168.935 223.643C169.067 223.631 169.171 223.575 169.247 223.475C169.327 223.375 169.367 223.231 169.367 223.043C169.367 222.799 169.307 222.585 169.187 222.401C169.071 222.217 168.907 222.075 168.695 221.975C168.487 221.875 168.245 221.825 167.969 221.825C167.697 221.825 167.449 221.871 167.225 221.963C167.001 222.055 166.819 222.181 166.679 222.341C166.539 222.501 166.457 222.677 166.433 222.869H165.497C165.533 222.529 165.665 222.219 165.893 221.939C166.121 221.655 166.419 221.431 166.787 221.267C167.155 221.103 167.557 221.021 167.993 221.021ZM167.495 226.703C167.859 226.703 168.183 226.633 168.467 226.493C168.751 226.349 168.971 226.149 169.127 225.893C169.287 225.633 169.367 225.339 169.367 225.011V224.315L167.273 224.531C166.953 224.563 166.695 224.681 166.499 224.885C166.303 225.089 166.205 225.337 166.205 225.629C166.205 225.837 166.259 226.023 166.367 226.187C166.475 226.347 166.627 226.473 166.823 226.565C167.019 226.657 167.243 226.703 167.495 226.703ZM174.273 227.453C173.773 227.453 173.331 227.375 172.947 227.219C172.567 227.059 172.271 226.839 172.059 226.559C171.851 226.279 171.745 225.961 171.741 225.605H172.701C172.709 225.813 172.779 225.997 172.911 226.157C173.043 226.317 173.223 226.443 173.451 226.535C173.683 226.623 173.947 226.667 174.243 226.667C174.699 226.667 175.053 226.571 175.305 226.379C175.557 226.187 175.683 225.925 175.683 225.593C175.683 225.337 175.605 225.129 175.449 224.969C175.297 224.805 175.071 224.699 174.771 224.651L173.655 224.477C173.119 224.393 172.701 224.199 172.401 223.895C172.101 223.587 171.951 223.205 171.951 222.749C171.951 222.413 172.045 222.115 172.233 221.855C172.425 221.591 172.689 221.387 173.025 221.243C173.365 221.095 173.749 221.021 174.177 221.021C174.617 221.021 175.011 221.095 175.359 221.243C175.711 221.391 175.987 221.597 176.187 221.861C176.391 222.121 176.497 222.417 176.505 222.749H175.545C175.541 222.573 175.477 222.413 175.353 222.269C175.233 222.125 175.069 222.013 174.861 221.933C174.653 221.849 174.421 221.807 174.165 221.807C173.917 221.807 173.693 221.847 173.493 221.927C173.297 222.003 173.143 222.111 173.031 222.251C172.923 222.387 172.869 222.545 172.869 222.725C172.869 222.965 172.941 223.159 173.085 223.307C173.229 223.451 173.441 223.545 173.721 223.589L174.873 223.775C175.433 223.863 175.861 224.063 176.157 224.375C176.457 224.687 176.607 225.085 176.607 225.569C176.607 225.945 176.511 226.275 176.319 226.559C176.127 226.843 175.855 227.063 175.503 227.219C175.151 227.375 174.741 227.453 174.273 227.453ZM180.261 227.453C179.761 227.453 179.319 227.375 178.935 227.219C178.555 227.059 178.259 226.839 178.047 226.559C177.839 226.279 177.733 225.961 177.729 225.605H178.689C178.697 225.813 178.767 225.997 178.899 226.157C179.031 226.317 179.211 226.443 179.439 226.535C179.671 226.623 179.935 226.667 180.231 226.667C180.687 226.667 181.041 226.571 181.293 226.379C181.545 226.187 181.671 225.925 181.671 225.593C181.671 225.337 181.593 225.129 181.437 224.969C181.285 224.805 181.059 224.699 180.759 224.651L179.643 224.477C179.107 224.393 178.689 224.199 178.389 223.895C178.089 223.587 177.939 223.205 177.939 222.749C177.939 222.413 178.033 222.115 178.221 221.855C178.413 221.591 178.677 221.387 179.013 221.243C179.353 221.095 179.737 221.021 180.165 221.021C180.605 221.021 180.999 221.095 181.347 221.243C181.699 221.391 181.975 221.597 182.175 221.861C182.379 222.121 182.485 222.417 182.493 222.749H181.533C181.529 222.573 181.465 222.413 181.341 222.269C181.221 222.125 181.057 222.013 180.849 221.933C180.641 221.849 180.409 221.807 180.153 221.807C179.905 221.807 179.681 221.847 179.481 221.927C179.285 222.003 179.131 222.111 179.019 222.251C178.911 222.387 178.857 222.545 178.857 222.725C178.857 222.965 178.929 223.159 179.073 223.307C179.217 223.451 179.429 223.545 179.709 223.589L180.861 223.775C181.421 223.863 181.849 224.063 182.145 224.375C182.445 224.687 182.595 225.085 182.595 225.569C182.595 225.945 182.499 226.275 182.307 226.559C182.115 226.843 181.843 227.063 181.491 227.219C181.139 227.375 180.729 227.453 180.261 227.453ZM184.48 227.309V222.017H183.4V221.165H184.48V220.241C184.48 219.825 184.606 219.499 184.858 219.263C185.114 219.027 185.468 218.909 185.92 218.909H187.024V219.761H185.98C185.808 219.761 185.674 219.809 185.578 219.905C185.486 220.001 185.44 220.133 185.44 220.301V221.165H186.964V222.017H185.44V227.309H184.48ZM188.972 220.049H188.012V218.909H188.972V220.049ZM188.972 227.309H188.012V222.017H186.788V221.165H188.972V227.309ZM191.949 227.309H190.989V218.909H191.949V227.309ZM199.382 224.471H194.51C194.546 224.891 194.656 225.263 194.84 225.587C195.024 225.911 195.266 226.163 195.566 226.343C195.866 226.523 196.206 226.613 196.586 226.613C196.842 226.613 197.088 226.573 197.324 226.493C197.56 226.413 197.766 226.301 197.942 226.157C198.118 226.013 198.244 225.849 198.32 225.665H199.244C199.176 226.001 199.01 226.305 198.746 226.577C198.486 226.849 198.16 227.063 197.768 227.219C197.38 227.375 196.966 227.453 196.526 227.453C195.946 227.453 195.426 227.315 194.966 227.039C194.51 226.763 194.154 226.381 193.898 225.893C193.642 225.401 193.514 224.845 193.514 224.225C193.514 223.621 193.644 223.075 193.904 222.587C194.164 222.099 194.522 221.717 194.978 221.441C195.438 221.161 195.954 221.021 196.526 221.021C197.07 221.021 197.558 221.161 197.99 221.441C198.426 221.717 198.766 222.101 199.01 222.593C199.258 223.081 199.382 223.629 199.382 224.237V224.471ZM196.538 221.867C195.998 221.867 195.55 222.029 195.194 222.353C194.838 222.677 194.618 223.119 194.534 223.679H198.38C198.296 223.123 198.09 222.683 197.762 222.359C197.438 222.031 197.03 221.867 196.538 221.867ZM202.984 227.453C202.484 227.453 202.042 227.375 201.658 227.219C201.278 227.059 200.982 226.839 200.77 226.559C200.562 226.279 200.456 225.961 200.452 225.605H201.412C201.42 225.813 201.49 225.997 201.622 226.157C201.754 226.317 201.934 226.443 202.162 226.535C202.394 226.623 202.658 226.667 202.954 226.667C203.41 226.667 203.764 226.571 204.016 226.379C204.268 226.187 204.394 225.925 204.394 225.593C204.394 225.337 204.316 225.129 204.16 224.969C204.008 224.805 203.782 224.699 203.482 224.651L202.366 224.477C201.83 224.393 201.412 224.199 201.112 223.895C200.812 223.587 200.662 223.205 200.662 222.749C200.662 222.413 200.756 222.115 200.944 221.855C201.136 221.591 201.4 221.387 201.736 221.243C202.076 221.095 202.46 221.021 202.888 221.021C203.328 221.021 203.722 221.095 204.07 221.243C204.422 221.391 204.698 221.597 204.898 221.861C205.102 222.121 205.208 222.417 205.216 222.749H204.256C204.252 222.573 204.188 222.413 204.064 222.269C203.944 222.125 203.78 222.013 203.572 221.933C203.364 221.849 203.132 221.807 202.876 221.807C202.628 221.807 202.404 221.847 202.204 221.927C202.008 222.003 201.854 222.111 201.742 222.251C201.634 222.387 201.58 222.545 201.58 222.725C201.58 222.965 201.652 223.159 201.796 223.307C201.94 223.451 202.152 223.545 202.432 223.589L203.584 223.775C204.144 223.863 204.572 224.063 204.868 224.375C205.168 224.687 205.318 225.085 205.318 225.569C205.318 225.945 205.222 226.275 205.03 226.559C204.838 226.843 204.566 227.063 204.214 227.219C203.862 227.375 203.452 227.453 202.984 227.453Z" fill="black"/>
<path d="M346.5 130.07L346.15 130.07L346.5 130.07ZM332.5 144.07L332.5 143.72L332.5 144.07ZM180 144.07L180 144.42L180 144.07ZM166 194.887L168.021 191.387L163.979 191.387L166 194.887ZM346.15 84.2859L346.15 130.07L346.85 130.07L346.85 84.2859L346.15 84.2859ZM332.5 143.72L180 143.72L180 144.42L332.5 144.42L332.5 143.72ZM165.65 158.07L165.65 191.737L166.35 191.737L166.35 158.07L165.65 158.07ZM180 143.72C172.075 143.72 165.65 150.145 165.65 158.07L166.35 158.07C166.35 150.531 172.461 144.42 180 144.42L180 143.72ZM346.15 130.07C346.15 137.609 340.039 143.72 332.5 143.72L332.5 144.42C340.425 144.42 346.85 137.995 346.85 130.07L346.15 130.07Z" fill="black"/>
<rect x="207" y="28.9856" width="196" height="51.813" rx="12" fill="url(#paint0_radial_1218_890)"/>
<path d="M230.032 60.0576C229.452 60.0576 228.928 59.9176 228.46 59.6376C227.992 59.3576 227.624 58.9736 227.356 58.4856C227.092 57.9936 226.96 57.4456 226.96 56.8416C226.96 56.2376 227.092 55.6916 227.356 55.2036C227.624 54.7116 227.992 54.3256 228.46 54.0456C228.928 53.7656 229.452 53.6256 230.032 53.6256C230.528 53.6256 230.984 53.7236 231.4 53.9196C231.816 54.1116 232.152 54.3796 232.408 54.7236C232.668 55.0636 232.818 55.4456 232.858 55.8696H231.898C231.85 55.6056 231.736 55.3676 231.556 55.1556C231.38 54.9436 231.158 54.7776 230.89 54.6576C230.626 54.5376 230.34 54.4776 230.032 54.4776C229.64 54.4776 229.286 54.5816 228.97 54.7896C228.658 54.9936 228.412 55.2756 228.232 55.6356C228.056 55.9956 227.968 56.3976 227.968 56.8416C227.968 57.2856 228.056 57.6876 228.232 58.0476C228.412 58.4076 228.658 58.6896 228.97 58.8936C229.286 59.0976 229.64 59.1996 230.032 59.1996C230.34 59.1996 230.626 59.1416 230.89 59.0256C231.158 58.9096 231.38 58.7516 231.556 58.5516C231.736 58.3476 231.85 58.1216 231.898 57.8736H232.858C232.822 58.2856 232.674 58.6576 232.414 58.9896C232.158 59.3216 231.822 59.5836 231.406 59.7756C230.99 59.9636 230.532 60.0576 230.032 60.0576ZM237.005 60.0576C236.421 60.0576 235.895 59.9196 235.427 59.6436C234.959 59.3636 234.591 58.9796 234.323 58.4916C234.055 58.0036 233.921 57.4536 233.921 56.8416C233.921 56.2296 234.055 55.6796 234.323 55.1916C234.591 54.7036 234.961 54.3216 235.433 54.0456C235.905 53.7656 236.433 53.6256 237.017 53.6256C237.601 53.6256 238.129 53.7656 238.601 54.0456C239.073 54.3216 239.443 54.7036 239.711 55.1916C239.979 55.6796 240.113 56.2296 240.113 56.8416C240.113 57.4536 239.977 58.0036 239.705 58.4916C239.437 58.9796 239.067 59.3636 238.595 59.6436C238.123 59.9196 237.593 60.0576 237.005 60.0576ZM237.017 59.1696C237.417 59.1696 237.775 59.0736 238.091 58.8816C238.407 58.6856 238.655 58.4116 238.835 58.0596C239.015 57.7076 239.105 57.3016 239.105 56.8416C239.105 56.3816 239.015 55.9756 238.835 55.6236C238.655 55.2676 238.407 54.9936 238.091 54.8016C237.775 54.6056 237.417 54.5076 237.017 54.5076C236.617 54.5076 236.259 54.6056 235.943 54.8016C235.627 54.9936 235.379 55.2676 235.199 55.6236C235.019 55.9756 234.929 56.3816 234.929 56.8416C234.929 57.3016 235.019 57.7076 235.199 58.0596C235.379 58.4116 235.627 58.6856 235.943 58.8816C236.259 59.0736 236.617 59.1696 237.017 59.1696ZM248.524 53.6256C248.972 53.6256 249.364 53.7276 249.7 53.9316C250.04 54.1316 250.3 54.4136 250.48 54.7776C250.664 55.1416 250.756 55.5616 250.756 56.0376V59.9136H249.796V56.0796C249.796 55.5596 249.672 55.1576 249.424 54.8736C249.18 54.5856 248.832 54.4416 248.38 54.4416C248.036 54.4416 247.738 54.5236 247.486 54.6876C247.234 54.8476 247.04 55.0776 246.904 55.3776C246.768 55.6776 246.7 56.0276 246.7 56.4276V59.9136H245.74V56.0796C245.74 55.5636 245.612 55.1616 245.356 54.8736C245.1 54.5856 244.744 54.4416 244.288 54.4416C243.944 54.4416 243.648 54.5236 243.4 54.6876C243.156 54.8476 242.968 55.0776 242.836 55.3776C242.708 55.6776 242.644 56.0276 242.644 56.4276V59.9136H241.684V53.7696H242.608V54.6756C242.8 54.3396 243.052 54.0816 243.364 53.9016C243.68 53.7176 244.046 53.6256 244.462 53.6256C244.91 53.6256 245.308 53.7336 245.656 53.9496C246.004 54.1656 246.268 54.4636 246.448 54.8436C246.656 54.4596 246.938 54.1616 247.294 53.9496C247.654 53.7336 248.064 53.6256 248.524 53.6256ZM259.517 53.6256C259.965 53.6256 260.357 53.7276 260.693 53.9316C261.033 54.1316 261.293 54.4136 261.473 54.7776C261.657 55.1416 261.749 55.5616 261.749 56.0376V59.9136H260.789V56.0796C260.789 55.5596 260.665 55.1576 260.417 54.8736C260.173 54.5856 259.825 54.4416 259.373 54.4416C259.029 54.4416 258.731 54.5236 258.479 54.6876C258.227 54.8476 258.033 55.0776 257.897 55.3776C257.761 55.6776 257.693 56.0276 257.693 56.4276V59.9136H256.733V56.0796C256.733 55.5636 256.605 55.1616 256.349 54.8736C256.093 54.5856 255.737 54.4416 255.281 54.4416C254.937 54.4416 254.641 54.5236 254.393 54.6876C254.149 54.8476 253.961 55.0776 253.829 55.3776C253.701 55.6776 253.637 56.0276 253.637 56.4276V59.9136H252.677V53.7696H253.601V54.6756C253.793 54.3396 254.045 54.0816 254.357 53.9016C254.673 53.7176 255.039 53.6256 255.455 53.6256C255.903 53.6256 256.301 53.7336 256.649 53.9496C256.997 54.1656 257.261 54.4636 257.441 54.8436C257.649 54.4596 257.931 54.1616 258.287 53.9496C258.647 53.7336 259.057 53.6256 259.517 53.6256ZM266.255 60.0576C265.671 60.0576 265.145 59.9196 264.677 59.6436C264.209 59.3636 263.841 58.9796 263.573 58.4916C263.305 58.0036 263.171 57.4536 263.171 56.8416C263.171 56.2296 263.305 55.6796 263.573 55.1916C263.841 54.7036 264.211 54.3216 264.683 54.0456C265.155 53.7656 265.683 53.6256 266.267 53.6256C266.851 53.6256 267.379 53.7656 267.851 54.0456C268.323 54.3216 268.693 54.7036 268.961 55.1916C269.229 55.6796 269.363 56.2296 269.363 56.8416C269.363 57.4536 269.227 58.0036 268.955 58.4916C268.687 58.9796 268.317 59.3636 267.845 59.6436C267.373 59.9196 266.843 60.0576 266.255 60.0576ZM266.267 59.1696C266.667 59.1696 267.025 59.0736 267.341 58.8816C267.657 58.6856 267.905 58.4116 268.085 58.0596C268.265 57.7076 268.355 57.3016 268.355 56.8416C268.355 56.3816 268.265 55.9756 268.085 55.6236C267.905 55.2676 267.657 54.9936 267.341 54.8016C267.025 54.6056 266.667 54.5076 266.267 54.5076C265.867 54.5076 265.509 54.6056 265.193 54.8016C264.877 54.9936 264.629 55.2676 264.449 55.6236C264.269 55.9756 264.179 56.3816 264.179 56.8416C264.179 57.3016 264.269 57.7076 264.449 58.0596C264.629 58.4116 264.877 58.6856 265.193 58.8816C265.509 59.0736 265.867 59.1696 266.267 59.1696ZM273.826 53.6256C274.286 53.6256 274.688 53.7256 275.032 53.9256C275.376 54.1216 275.64 54.4016 275.824 54.7656C276.012 55.1296 276.106 55.5536 276.106 56.0376V59.9136H275.146V56.1096C275.146 55.5856 275.01 55.1776 274.738 54.8856C274.47 54.5896 274.096 54.4416 273.616 54.4416C273.272 54.4416 272.97 54.5156 272.71 54.6636C272.45 54.8076 272.248 55.0156 272.104 55.2876C271.964 55.5596 271.894 55.8796 271.894 56.2476V59.9136H270.934V53.7696H271.858V54.7116C272.054 54.3516 272.318 54.0816 272.65 53.9016C272.982 53.7176 273.374 53.6256 273.826 53.6256ZM279.254 59.9136H278.264V51.5136H279.536L282.518 58.3836L282.68 58.8276L282.836 58.3836L285.74 51.5136H287.048V59.9136H286.052V52.9416L283.094 59.9136H282.224L279.254 52.9776V59.9136ZM291.684 53.6256C292.148 53.6256 292.554 53.7116 292.902 53.8836C293.254 54.0516 293.526 54.2976 293.718 54.6216C293.91 54.9456 294.006 55.3356 294.006 55.7916V59.9136H293.07V59.0016C292.882 59.3456 292.612 59.6076 292.26 59.7876C291.912 59.9676 291.494 60.0576 291.006 60.0576C290.602 60.0576 290.242 59.9836 289.926 59.8356C289.614 59.6836 289.37 59.4736 289.194 59.2056C289.022 58.9376 288.936 58.6316 288.936 58.2876C288.936 57.9676 289.016 57.6736 289.176 57.4056C289.34 57.1336 289.566 56.9116 289.854 56.7396C290.142 56.5676 290.468 56.4636 290.832 56.4276L292.626 56.2476C292.758 56.2356 292.862 56.1796 292.938 56.0796C293.018 55.9796 293.058 55.8356 293.058 55.6476C293.058 55.4036 292.998 55.1896 292.878 55.0056C292.762 54.8216 292.598 54.6796 292.386 54.5796C292.178 54.4796 291.936 54.4296 291.66 54.4296C291.388 54.4296 291.14 54.4756 290.916 54.5676C290.692 54.6596 290.51 54.7856 290.37 54.9456C290.23 55.1056 290.148 55.2816 290.124 55.4736H289.188C289.224 55.1336 289.356 54.8236 289.584 54.5436C289.812 54.2596 290.11 54.0356 290.478 53.8716C290.846 53.7076 291.248 53.6256 291.684 53.6256ZM291.186 59.3076C291.55 59.3076 291.874 59.2376 292.158 59.0976C292.442 58.9536 292.662 58.7536 292.818 58.4976C292.978 58.2376 293.058 57.9436 293.058 57.6156V56.9196L290.964 57.1356C290.644 57.1676 290.386 57.2856 290.19 57.4896C289.994 57.6936 289.896 57.9416 289.896 58.2336C289.896 58.4416 289.95 58.6276 290.058 58.7916C290.166 58.9516 290.318 59.0776 290.514 59.1696C290.71 59.2616 290.934 59.3076 291.186 59.3076ZM296.89 59.9136H295.93V53.7696H296.89V59.9136ZM295.864 52.6536V51.5136H296.956V52.6536H295.864ZM301.846 53.6256C302.306 53.6256 302.708 53.7256 303.052 53.9256C303.396 54.1216 303.66 54.4016 303.844 54.7656C304.032 55.1296 304.126 55.5536 304.126 56.0376V59.9136H303.166V56.1096C303.166 55.5856 303.03 55.1776 302.758 54.8856C302.49 54.5896 302.116 54.4416 301.636 54.4416C301.292 54.4416 300.99 54.5156 300.73 54.6636C300.47 54.8076 300.268 55.0156 300.124 55.2876C299.984 55.5596 299.914 55.8796 299.914 56.2476V59.9136H298.954V53.7696H299.878V54.7116C300.074 54.3516 300.338 54.0816 300.67 53.9016C301.002 53.7176 301.394 53.6256 301.846 53.6256ZM305.996 59.9136H305.012L308.828 51.5136H309.812L305.996 59.9136ZM310.578 59.9136V58.5936H311.898V59.9136H310.578ZM313.426 59.9136V58.5936H314.746V59.9136H313.426ZM316.274 59.9136V58.5936H317.594V59.9136H316.274ZM319.343 59.9136H318.359L322.175 51.5136H323.159L319.343 59.9136ZM328.582 53.7696H329.512L329.5 59.4276C329.5 59.9596 329.386 60.4156 329.158 60.7956C328.934 61.1796 328.61 61.4716 328.186 61.6716C327.766 61.8756 327.27 61.9776 326.698 61.9776C326.174 61.9776 325.706 61.8896 325.294 61.7136C324.886 61.5416 324.56 61.2996 324.316 60.9876C324.072 60.6756 323.928 60.3156 323.884 59.9076H324.844C324.896 60.1476 325.006 60.3616 325.174 60.5496C325.342 60.7416 325.556 60.8896 325.816 60.9936C326.08 61.1016 326.374 61.1556 326.698 61.1556C327.27 61.1556 327.718 61.0036 328.042 60.6996C328.37 60.3996 328.534 59.9756 328.534 59.4276V59.0016L328.552 58.3716C328.32 58.6996 328.024 58.9536 327.664 59.1336C327.308 59.3096 326.91 59.3976 326.47 59.3976C325.95 59.3976 325.484 59.2756 325.072 59.0316C324.664 58.7876 324.344 58.4476 324.112 58.0116C323.884 57.5756 323.77 57.0796 323.77 56.5236C323.77 55.9676 323.884 55.4716 324.112 55.0356C324.344 54.5996 324.664 54.2596 325.072 54.0156C325.484 53.7716 325.95 53.6496 326.47 53.6496C326.918 53.6496 327.324 53.7436 327.688 53.9316C328.052 54.1156 328.35 54.3776 328.582 54.7176V53.7696ZM326.644 58.5576C327.012 58.5576 327.34 58.4736 327.628 58.3056C327.916 58.1376 328.14 57.8996 328.3 57.5916C328.464 57.2836 328.546 56.9276 328.546 56.5236C328.546 56.1196 328.464 55.7636 328.3 55.4556C328.14 55.1476 327.916 54.9096 327.628 54.7416C327.34 54.5736 327.012 54.4896 326.644 54.4896C326.28 54.4896 325.956 54.5756 325.672 54.7476C325.388 54.9156 325.168 55.1536 325.012 55.4616C324.856 55.7656 324.778 56.1196 324.778 56.5236C324.778 56.9276 324.856 57.2836 325.012 57.5916C325.168 57.8956 325.388 58.1336 325.672 58.3056C325.956 58.4736 326.28 58.5576 326.644 58.5576ZM334.502 53.7096V54.7116H334.28C333.72 54.7116 333.28 54.8796 332.96 55.2156C332.64 55.5516 332.48 56.0236 332.48 56.6316V59.9136H331.52V53.7696H332.48V55.0056C332.652 54.5896 332.892 54.2696 333.2 54.0456C333.512 53.8216 333.884 53.7096 334.316 53.7096H334.502ZM341.144 57.0756H336.272C336.308 57.4956 336.418 57.8676 336.602 58.1916C336.786 58.5156 337.028 58.7676 337.328 58.9476C337.628 59.1276 337.968 59.2176 338.348 59.2176C338.604 59.2176 338.85 59.1776 339.086 59.0976C339.322 59.0176 339.528 58.9056 339.704 58.7616C339.88 58.6176 340.006 58.4536 340.082 58.2696H341.006C340.938 58.6056 340.772 58.9096 340.508 59.1816C340.248 59.4536 339.922 59.6676 339.53 59.8236C339.142 59.9796 338.728 60.0576 338.288 60.0576C337.708 60.0576 337.188 59.9196 336.728 59.6436C336.272 59.3676 335.916 58.9856 335.66 58.4976C335.404 58.0056 335.276 57.4496 335.276 56.8296C335.276 56.2256 335.406 55.6796 335.666 55.1916C335.926 54.7036 336.284 54.3216 336.74 54.0456C337.2 53.7656 337.716 53.6256 338.288 53.6256C338.832 53.6256 339.32 53.7656 339.752 54.0456C340.188 54.3216 340.528 54.7056 340.772 55.1976C341.02 55.6856 341.144 56.2336 341.144 56.8416V57.0756ZM338.3 54.4716C337.76 54.4716 337.312 54.6336 336.956 54.9576C336.6 55.2816 336.38 55.7236 336.296 56.2836H340.142C340.058 55.7276 339.852 55.2876 339.524 54.9636C339.2 54.6356 338.792 54.4716 338.3 54.4716ZM348.082 57.0756H343.21C343.246 57.4956 343.356 57.8676 343.54 58.1916C343.724 58.5156 343.966 58.7676 344.266 58.9476C344.566 59.1276 344.906 59.2176 345.286 59.2176C345.542 59.2176 345.788 59.1776 346.024 59.0976C346.26 59.0176 346.466 58.9056 346.642 58.7616C346.818 58.6176 346.944 58.4536 347.02 58.2696H347.944C347.876 58.6056 347.71 58.9096 347.446 59.1816C347.186 59.4536 346.86 59.6676 346.468 59.8236C346.08 59.9796 345.666 60.0576 345.226 60.0576C344.646 60.0576 344.126 59.9196 343.666 59.6436C343.21 59.3676 342.854 58.9856 342.598 58.4976C342.342 58.0056 342.214 57.4496 342.214 56.8296C342.214 56.2256 342.344 55.6796 342.604 55.1916C342.864 54.7036 343.222 54.3216 343.678 54.0456C344.138 53.7656 344.654 53.6256 345.226 53.6256C345.77 53.6256 346.258 53.7656 346.69 54.0456C347.126 54.3216 347.466 54.7056 347.71 55.1976C347.958 55.6856 348.082 56.2336 348.082 56.8416V57.0756ZM345.238 54.4716C344.698 54.4716 344.25 54.6336 343.894 54.9576C343.538 55.2816 343.318 55.7236 343.234 56.2836H347.08C346.996 55.7276 346.79 55.2876 346.462 54.9636C346.138 54.6356 345.73 54.4716 345.238 54.4716ZM351.299 59.9136C350.855 59.9136 350.503 59.7956 350.243 59.5596C349.987 59.3236 349.859 58.9976 349.859 58.5816L349.853 54.6216H348.773L348.779 53.7696H349.445C349.597 53.7696 349.719 53.7216 349.811 53.6256C349.907 53.5296 349.955 53.4076 349.955 53.2596V52.2336H350.819V53.7696H352.301L352.295 54.6216H350.813L350.819 58.5216C350.819 58.6896 350.867 58.8216 350.963 58.9176C351.063 59.0136 351.195 59.0616 351.359 59.0616H352.295V59.9136H351.299ZM354.875 59.9136H353.915V53.7696H354.875V59.9136ZM353.849 52.6536V51.5136H354.941V52.6536H353.849ZM359.83 53.6256C360.29 53.6256 360.692 53.7256 361.036 53.9256C361.38 54.1216 361.644 54.4016 361.828 54.7656C362.016 55.1296 362.11 55.5536 362.11 56.0376V59.9136H361.15V56.1096C361.15 55.5856 361.014 55.1776 360.742 54.8856C360.474 54.5896 360.1 54.4416 359.62 54.4416C359.276 54.4416 358.974 54.5156 358.714 54.6636C358.454 54.8076 358.252 55.0156 358.108 55.2876C357.968 55.5596 357.898 55.8796 357.898 56.2476V59.9136H356.938V53.7696H357.862V54.7116C358.058 54.3516 358.322 54.0816 358.654 53.9016C358.986 53.7176 359.378 53.6256 359.83 53.6256ZM368.414 53.7696H369.344L369.332 59.4276C369.332 59.9596 369.218 60.4156 368.99 60.7956C368.766 61.1796 368.442 61.4716 368.018 61.6716C367.598 61.8756 367.102 61.9776 366.53 61.9776C366.006 61.9776 365.538 61.8896 365.126 61.7136C364.718 61.5416 364.392 61.2996 364.148 60.9876C363.904 60.6756 363.76 60.3156 363.716 59.9076H364.676C364.728 60.1476 364.838 60.3616 365.006 60.5496C365.174 60.7416 365.388 60.8896 365.648 60.9936C365.912 61.1016 366.206 61.1556 366.53 61.1556C367.102 61.1556 367.55 61.0036 367.874 60.6996C368.202 60.3996 368.366 59.9756 368.366 59.4276V59.0016L368.384 58.3716C368.152 58.6996 367.856 58.9536 367.496 59.1336C367.14 59.3096 366.742 59.3976 366.302 59.3976C365.782 59.3976 365.316 59.2756 364.904 59.0316C364.496 58.7876 364.176 58.4476 363.944 58.0116C363.716 57.5756 363.602 57.0796 363.602 56.5236C363.602 55.9676 363.716 55.4716 363.944 55.0356C364.176 54.5996 364.496 54.2596 364.904 54.0156C365.316 53.7716 365.782 53.6496 366.302 53.6496C366.75 53.6496 367.156 53.7436 367.52 53.9316C367.884 54.1156 368.182 54.3776 368.414 54.7176V53.7696ZM366.476 58.5576C366.844 58.5576 367.172 58.4736 367.46 58.3056C367.748 58.1376 367.972 57.8996 368.132 57.5916C368.296 57.2836 368.378 56.9276 368.378 56.5236C368.378 56.1196 368.296 55.7636 368.132 55.4556C367.972 55.1476 367.748 54.9096 367.46 54.7416C367.172 54.5736 366.844 54.4896 366.476 54.4896C366.112 54.4896 365.788 54.5756 365.504 54.7476C365.22 54.9156 365 55.1536 364.844 55.4616C364.688 55.7656 364.61 56.1196 364.61 56.5236C364.61 56.9276 364.688 57.2836 364.844 57.5916C365 57.8956 365.22 58.1336 365.504 58.3056C365.788 58.4736 366.112 58.5576 366.476 58.5576ZM371.082 59.9136V58.5936H372.402V59.9136H371.082ZM375.16 59.9136H374.2V51.5136H375.16V56.6076L377.938 53.7696H379.138L376.258 56.6916L379.246 59.9136H378.022L375.16 56.8116V59.9136ZM381.991 59.9136C381.547 59.9136 381.195 59.7956 380.935 59.5596C380.679 59.3236 380.551 58.9976 380.551 58.5816L380.545 54.6216H379.465L379.471 53.7696H380.137C380.289 53.7696 380.411 53.7216 380.503 53.6256C380.599 53.5296 380.647 53.4076 380.647 53.2596V52.2336H381.511V53.7696H382.993L382.987 54.6216H381.505L381.511 58.5216C381.511 58.6896 381.559 58.8216 381.655 58.9176C381.755 59.0136 381.887 59.0616 382.051 59.0616H382.987V59.9136H381.991Z" fill="white"/>
<rect x="406" y="28.9856" width="91" height="23.9137" rx="11.9568" fill="#F2F2F2"/>
<path d="M439.447 44.9676V44.0376H441.055C441.359 44.0376 441.605 43.9436 441.793 43.7556C441.981 43.5676 442.075 43.3216 442.075 43.0176V36.5676H443.071V43.1556C443.071 43.5076 442.991 43.8216 442.831 44.0976C442.671 44.3736 442.447 44.5876 442.159 44.7396C441.871 44.8916 441.543 44.9676 441.175 44.9676H439.447ZM448.853 44.9676H447.641L444.527 36.5676H445.619L448.289 43.8036L450.863 36.5676H451.967L448.853 44.9676ZM454.483 44.9676H453.493V36.5676H454.765L457.747 43.4376L457.909 43.8816L458.065 43.4376L460.969 36.5676H462.277V44.9676H461.281V37.9956L458.323 44.9676H457.453L454.483 38.0316V44.9676Z" fill="black"/>
<rect x="406" y="56.8849" width="91" height="23.9137" rx="11.9568" fill="#F2F2F2"/>
<path d="M426.293 72.8669H425.333V66.7229H426.293V72.8669ZM425.267 65.6069V64.4669H426.359V65.6069H425.267ZM430.942 73.0109C430.358 73.0109 429.832 72.8729 429.364 72.5969C428.896 72.3169 428.528 71.9329 428.26 71.4449C427.992 70.9569 427.858 70.4069 427.858 69.7949C427.858 69.1829 427.992 68.6329 428.26 68.1449C428.528 67.6569 428.898 67.2749 429.37 66.9989C429.842 66.7189 430.37 66.5789 430.954 66.5789C431.538 66.5789 432.066 66.7189 432.538 66.9989C433.01 67.2749 433.38 67.6569 433.648 68.1449C433.916 68.6329 434.05 69.1829 434.05 69.7949C434.05 70.4069 433.914 70.9569 433.642 71.4449C433.374 71.9329 433.004 72.3169 432.532 72.5969C432.06 72.8729 431.53 73.0109 430.942 73.0109ZM430.954 72.1229C431.354 72.1229 431.712 72.0269 432.028 71.8349C432.344 71.6389 432.592 71.3649 432.772 71.0129C432.952 70.6609 433.042 70.2549 433.042 69.7949C433.042 69.3349 432.952 68.9289 432.772 68.5769C432.592 68.2209 432.344 67.9469 432.028 67.7549C431.712 67.5589 431.354 67.4609 430.954 67.4609C430.554 67.4609 430.196 67.5589 429.88 67.7549C429.564 67.9469 429.316 68.2209 429.136 68.5769C428.956 68.9289 428.866 69.3349 428.866 69.7949C428.866 70.2549 428.956 70.6609 429.136 71.0129C429.316 71.3649 429.564 71.6389 429.88 71.8349C430.196 72.0269 430.554 72.1229 430.954 72.1229ZM437.656 73.0109C437.156 73.0109 436.714 72.9329 436.33 72.7769C435.95 72.6169 435.654 72.3969 435.442 72.1169C435.234 71.8369 435.128 71.5189 435.124 71.1629H436.084C436.092 71.3709 436.162 71.5549 436.294 71.7149C436.426 71.8749 436.606 72.0009 436.834 72.0929C437.066 72.1809 437.33 72.2249 437.626 72.2249C438.082 72.2249 438.436 72.1289 438.688 71.9369C438.94 71.7449 439.066 71.4829 439.066 71.1509C439.066 70.8949 438.988 70.6869 438.832 70.5269C438.68 70.3629 438.454 70.2569 438.154 70.2089L437.038 70.0349C436.502 69.9509 436.084 69.7569 435.784 69.4529C435.484 69.1449 435.334 68.7629 435.334 68.3069C435.334 67.9709 435.428 67.6729 435.616 67.4129C435.808 67.1489 436.072 66.9449 436.408 66.8009C436.748 66.6529 437.132 66.5789 437.56 66.5789C438 66.5789 438.394 66.6529 438.742 66.8009C439.094 66.9489 439.37 67.1549 439.57 67.4189C439.774 67.6789 439.88 67.9749 439.888 68.3069H438.928C438.924 68.1309 438.86 67.9709 438.736 67.8269C438.616 67.6829 438.452 67.5709 438.244 67.4909C438.036 67.4069 437.804 67.3649 437.548 67.3649C437.3 67.3649 437.076 67.4049 436.876 67.4849C436.68 67.5609 436.526 67.6689 436.414 67.8089C436.306 67.9449 436.252 68.1029 436.252 68.2829C436.252 68.5229 436.324 68.7169 436.468 68.8649C436.612 69.0089 436.824 69.1029 437.104 69.1469L438.256 69.3329C438.816 69.4209 439.244 69.6209 439.54 69.9329C439.84 70.2449 439.99 70.6429 439.99 71.1269C439.99 71.5029 439.894 71.8329 439.702 72.1169C439.51 72.4009 439.238 72.6209 438.886 72.7769C438.534 72.9329 438.124 73.0109 437.656 73.0109ZM441.922 72.8669H440.83L443.86 64.4669H445.096L448.246 72.8669H447.19L446.38 70.6349H442.666L441.922 72.8669ZM444.328 65.7809L442.972 69.7709H446.056L444.616 65.7809L444.472 65.2889L444.328 65.7809ZM452.514 66.6629V67.6649H452.292C451.732 67.6649 451.292 67.8329 450.972 68.1689C450.652 68.5049 450.492 68.9769 450.492 69.5849V72.8669H449.532V66.7229H450.492V67.9589C450.664 67.5429 450.904 67.2229 451.212 66.9989C451.524 66.7749 451.896 66.6629 452.328 66.6629H452.514ZM460.661 66.5789C461.109 66.5789 461.501 66.6809 461.837 66.8849C462.177 67.0849 462.437 67.3669 462.617 67.7309C462.801 68.0949 462.893 68.5149 462.893 68.9909V72.8669H461.933V69.0329C461.933 68.5129 461.809 68.1109 461.561 67.8269C461.317 67.5389 460.969 67.3949 460.517 67.3949C460.173 67.3949 459.875 67.4769 459.623 67.6409C459.371 67.8009 459.177 68.0309 459.041 68.3309C458.905 68.6309 458.837 68.9809 458.837 69.3809V72.8669H457.877V69.0329C457.877 68.5169 457.749 68.1149 457.493 67.8269C457.237 67.5389 456.881 67.3949 456.425 67.3949C456.081 67.3949 455.785 67.4769 455.537 67.6409C455.293 67.8009 455.105 68.0309 454.973 68.3309C454.845 68.6309 454.781 68.9809 454.781 69.3809V72.8669H453.821V66.7229H454.745V67.6289C454.937 67.2929 455.189 67.0349 455.501 66.8549C455.817 66.6709 456.183 66.5789 456.599 66.5789C457.047 66.5789 457.445 66.6869 457.793 66.9029C458.141 67.1189 458.405 67.4169 458.585 67.7969C458.793 67.4129 459.075 67.1149 459.431 66.9029C459.791 66.6869 460.201 66.5789 460.661 66.5789ZM467.717 73.0109C467.297 73.0109 466.887 72.9269 466.487 72.7589C466.091 72.5869 465.759 72.3549 465.491 72.0629C465.175 71.7189 464.933 71.2789 464.765 70.7429C464.601 70.2029 464.519 69.5829 464.519 68.8829C464.519 67.9869 464.659 67.1949 464.939 66.5069C465.219 65.8149 465.609 65.2789 466.109 64.8989C466.613 64.5149 467.187 64.3229 467.831 64.3229C468.255 64.3229 468.663 64.4049 469.055 64.5689C469.447 64.7329 469.777 64.9629 470.045 65.2589C470.317 65.5549 470.491 65.8909 470.567 66.2669H469.559C469.519 66.0589 469.413 65.8749 469.241 65.7149C469.069 65.5509 468.857 65.4249 468.605 65.3369C468.353 65.2449 468.095 65.1989 467.831 65.1989C467.363 65.1989 466.951 65.3489 466.595 65.6489C466.243 65.9489 465.967 66.3809 465.767 66.9449C465.567 67.5089 465.461 68.1769 465.449 68.9489C465.569 68.6449 465.755 68.3709 466.007 68.1269C466.259 67.8789 466.553 67.6849 466.889 67.5449C467.225 67.4049 467.575 67.3349 467.939 67.3349C468.483 67.3349 468.967 67.4569 469.391 67.7009C469.815 67.9409 470.143 68.2769 470.375 68.7089C470.611 69.1369 470.729 69.6249 470.729 70.1729C470.729 70.7249 470.601 71.2169 470.345 71.6489C470.093 72.0769 469.739 72.4109 469.283 72.6509C468.827 72.8909 468.305 73.0109 467.717 73.0109ZM467.759 72.1349C468.139 72.1349 468.475 72.0529 468.767 71.8889C469.063 71.7209 469.291 71.4889 469.451 71.1929C469.615 70.8969 469.697 70.5589 469.697 70.1789C469.697 69.7989 469.615 69.4609 469.451 69.1649C469.287 68.8649 469.055 68.6309 468.755 68.4629C468.455 68.2949 468.109 68.2109 467.717 68.2109C467.325 68.2109 466.975 68.2969 466.667 68.4689C466.363 68.6409 466.125 68.8769 465.953 69.1769C465.785 69.4729 465.701 69.8029 465.701 70.1669C465.701 70.5349 465.789 70.8689 465.965 71.1689C466.141 71.4689 466.385 71.7049 466.697 71.8769C467.013 72.0489 467.367 72.1349 467.759 72.1349ZM476.846 64.4669V69.8969H478.154V70.7969H476.846V72.8669H475.862V70.7969H471.602V69.8609L475.856 64.4669H476.846ZM475.862 65.7749L472.652 69.8969H475.862V65.7749Z" fill="black"/>
<rect x="203.35" y="25.35" width="297.3" height="59.0842" rx="14.65" stroke="#595959" stroke-width="0.7"/>
<defs>
<radialGradient id="paint0_radial_1218_890" cx="0" cy="0" r="1" gradientUnits="userSpaceOnUse" gradientTransform="translate(206.451 81.5793) scale(191.063 191.766)">
<stop stop-color="#EB4857"/>
<stop offset="0.5" stop-color="#C611E0"/>
<stop offset="1" stop-color="#7F52FF"/>
</radialGradient>
</defs>
</svg>
