<svg width="706" height="293" viewBox="0 0 706 293" fill="none" xmlns="http://www.w3.org/2000/svg">
<rect width="706" height="293" fill="white"/>
<path d="M369 154.486L369.35 154.486L369 154.486ZM383 168.486L383 168.136L383 168.486ZM535 168.486L535 168.836L535 168.486ZM549 219.837L546.98 216.337L551.021 216.337L549 219.837ZM369.35 111.094L369.35 154.486L368.65 154.486L368.65 111.094L369.35 111.094ZM383 168.136L535 168.136L535 168.836L383 168.836L383 168.136ZM549.35 182.486L549.35 216.687L548.65 216.687L548.65 182.486L549.35 182.486ZM535 168.136C542.926 168.136 549.35 174.561 549.35 182.486L548.65 182.486C548.65 174.948 542.539 168.836 535 168.836L535 168.136ZM369.35 154.486C369.35 162.025 375.462 168.136 383 168.136L383 168.836C375.075 168.836 368.65 162.412 368.65 154.486L369.35 154.486Z" fill="black"/>
<path d="M354 219.333L351.979 215.833L356.021 215.833L354 219.333ZM354.35 111.094L354.35 216.183L353.65 216.183L353.65 111.094L354.35 111.094Z" fill="black"/>
<path d="M338.5 153.983L338.85 153.983L338.5 153.983ZM324.5 167.983L324.5 167.633L324.5 167.983ZM172 167.983L172 168.333L172 167.983ZM158 219.333L160.021 215.833L155.979 215.833L158 219.333ZM338.15 111.094L338.15 153.983L338.85 153.983L338.85 111.094L338.15 111.094ZM324.5 167.633L172 167.633L172 168.333L324.5 168.333L324.5 167.633ZM157.65 181.983L157.65 216.183L158.35 216.183L158.35 181.983L157.65 181.983ZM172 167.633C164.075 167.633 157.65 174.058 157.65 181.983L158.35 181.983C158.35 174.444 164.461 168.333 172 168.333L172 167.633ZM338.15 153.983C338.15 161.522 332.039 167.633 324.5 167.633L324.5 168.333C332.425 168.333 338.85 161.908 338.85 153.983L338.15 153.983Z" fill="black"/>
<rect x="205.35" y="24.35" width="298.3" height="86.8979" rx="14.65" stroke="#595959" stroke-width="0.7"/>
<rect x="209" y="28.0275" width="196" height="79.543" rx="12" fill="url(#paint0_radial_1218_347)"/>
<path d="M232.032 71.3914C231.452 71.3914 230.928 71.2514 230.46 70.9714C229.992 70.6914 229.624 70.3074 229.356 69.8194C229.092 69.3274 228.96 68.7794 228.96 68.1754C228.96 67.5714 229.092 67.0254 229.356 66.5374C229.624 66.0454 229.992 65.6594 230.46 65.3794C230.928 65.0994 231.452 64.9594 232.032 64.9594C232.528 64.9594 232.984 65.0574 233.4 65.2534C233.816 65.4454 234.152 65.7134 234.408 66.0574C234.668 66.3974 234.818 66.7794 234.858 67.2034H233.898C233.85 66.9394 233.736 66.7014 233.556 66.4894C233.38 66.2774 233.158 66.1114 232.89 65.9914C232.626 65.8714 232.34 65.8114 232.032 65.8114C231.64 65.8114 231.286 65.9154 230.97 66.1234C230.658 66.3274 230.412 66.6094 230.232 66.9694C230.056 67.3294 229.968 67.7314 229.968 68.1754C229.968 68.6194 230.056 69.0214 230.232 69.3814C230.412 69.7414 230.658 70.0234 230.97 70.2274C231.286 70.4314 231.64 70.5334 232.032 70.5334C232.34 70.5334 232.626 70.4754 232.89 70.3594C233.158 70.2434 233.38 70.0854 233.556 69.8854C233.736 69.6814 233.85 69.4554 233.898 69.2074H234.858C234.822 69.6194 234.674 69.9914 234.414 70.3234C234.158 70.6554 233.822 70.9174 233.406 71.1094C232.99 71.2974 232.532 71.3914 232.032 71.3914ZM239.005 71.3914C238.421 71.3914 237.895 71.2534 237.427 70.9774C236.959 70.6974 236.591 70.3134 236.323 69.8254C236.055 69.3374 235.921 68.7874 235.921 68.1754C235.921 67.5634 236.055 67.0134 236.323 66.5254C236.591 66.0374 236.961 65.6554 237.433 65.3794C237.905 65.0994 238.433 64.9594 239.017 64.9594C239.601 64.9594 240.129 65.0994 240.601 65.3794C241.073 65.6554 241.443 66.0374 241.711 66.5254C241.979 67.0134 242.113 67.5634 242.113 68.1754C242.113 68.7874 241.977 69.3374 241.705 69.8254C241.437 70.3134 241.067 70.6974 240.595 70.9774C240.123 71.2534 239.593 71.3914 239.005 71.3914ZM239.017 70.5034C239.417 70.5034 239.775 70.4074 240.091 70.2154C240.407 70.0194 240.655 69.7454 240.835 69.3934C241.015 69.0414 241.105 68.6354 241.105 68.1754C241.105 67.7154 241.015 67.3094 240.835 66.9574C240.655 66.6014 240.407 66.3274 240.091 66.1354C239.775 65.9394 239.417 65.8414 239.017 65.8414C238.617 65.8414 238.259 65.9394 237.943 66.1354C237.627 66.3274 237.379 66.6014 237.199 66.9574C237.019 67.3094 236.929 67.7154 236.929 68.1754C236.929 68.6354 237.019 69.0414 237.199 69.3934C237.379 69.7454 237.627 70.0194 237.943 70.2154C238.259 70.4074 238.617 70.5034 239.017 70.5034ZM250.524 64.9594C250.972 64.9594 251.364 65.0614 251.7 65.2654C252.04 65.4654 252.3 65.7474 252.48 66.1114C252.664 66.4754 252.756 66.8954 252.756 67.3714V71.2474H251.796V67.4134C251.796 66.8934 251.672 66.4914 251.424 66.2074C251.18 65.9194 250.832 65.7754 250.38 65.7754C250.036 65.7754 249.738 65.8574 249.486 66.0214C249.234 66.1814 249.04 66.4114 248.904 66.7114C248.768 67.0114 248.7 67.3614 248.7 67.7614V71.2474H247.74V67.4134C247.74 66.8974 247.612 66.4954 247.356 66.2074C247.1 65.9194 246.744 65.7754 246.288 65.7754C245.944 65.7754 245.648 65.8574 245.4 66.0214C245.156 66.1814 244.968 66.4114 244.836 66.7114C244.708 67.0114 244.644 67.3614 244.644 67.7614V71.2474H243.684V65.1034H244.608V66.0094C244.8 65.6734 245.052 65.4154 245.364 65.2354C245.68 65.0514 246.046 64.9594 246.462 64.9594C246.91 64.9594 247.308 65.0674 247.656 65.2834C248.004 65.4994 248.268 65.7974 248.448 66.1774C248.656 65.7934 248.938 65.4954 249.294 65.2834C249.654 65.0674 250.064 64.9594 250.524 64.9594ZM261.517 64.9594C261.965 64.9594 262.357 65.0614 262.693 65.2654C263.033 65.4654 263.293 65.7474 263.473 66.1114C263.657 66.4754 263.749 66.8954 263.749 67.3714V71.2474H262.789V67.4134C262.789 66.8934 262.665 66.4914 262.417 66.2074C262.173 65.9194 261.825 65.7754 261.373 65.7754C261.029 65.7754 260.731 65.8574 260.479 66.0214C260.227 66.1814 260.033 66.4114 259.897 66.7114C259.761 67.0114 259.693 67.3614 259.693 67.7614V71.2474H258.733V67.4134C258.733 66.8974 258.605 66.4954 258.349 66.2074C258.093 65.9194 257.737 65.7754 257.281 65.7754C256.937 65.7754 256.641 65.8574 256.393 66.0214C256.149 66.1814 255.961 66.4114 255.829 66.7114C255.701 67.0114 255.637 67.3614 255.637 67.7614V71.2474H254.677V65.1034H255.601V66.0094C255.793 65.6734 256.045 65.4154 256.357 65.2354C256.673 65.0514 257.039 64.9594 257.455 64.9594C257.903 64.9594 258.301 65.0674 258.649 65.2834C258.997 65.4994 259.261 65.7974 259.441 66.1774C259.649 65.7934 259.931 65.4954 260.287 65.2834C260.647 65.0674 261.057 64.9594 261.517 64.9594ZM268.255 71.3914C267.671 71.3914 267.145 71.2534 266.677 70.9774C266.209 70.6974 265.841 70.3134 265.573 69.8254C265.305 69.3374 265.171 68.7874 265.171 68.1754C265.171 67.5634 265.305 67.0134 265.573 66.5254C265.841 66.0374 266.211 65.6554 266.683 65.3794C267.155 65.0994 267.683 64.9594 268.267 64.9594C268.851 64.9594 269.379 65.0994 269.851 65.3794C270.323 65.6554 270.693 66.0374 270.961 66.5254C271.229 67.0134 271.363 67.5634 271.363 68.1754C271.363 68.7874 271.227 69.3374 270.955 69.8254C270.687 70.3134 270.317 70.6974 269.845 70.9774C269.373 71.2534 268.843 71.3914 268.255 71.3914ZM268.267 70.5034C268.667 70.5034 269.025 70.4074 269.341 70.2154C269.657 70.0194 269.905 69.7454 270.085 69.3934C270.265 69.0414 270.355 68.6354 270.355 68.1754C270.355 67.7154 270.265 67.3094 270.085 66.9574C269.905 66.6014 269.657 66.3274 269.341 66.1354C269.025 65.9394 268.667 65.8414 268.267 65.8414C267.867 65.8414 267.509 65.9394 267.193 66.1354C266.877 66.3274 266.629 66.6014 266.449 66.9574C266.269 67.3094 266.179 67.7154 266.179 68.1754C266.179 68.6354 266.269 69.0414 266.449 69.3934C266.629 69.7454 266.877 70.0194 267.193 70.2154C267.509 70.4074 267.867 70.5034 268.267 70.5034ZM275.826 64.9594C276.286 64.9594 276.688 65.0594 277.032 65.2594C277.376 65.4554 277.64 65.7354 277.824 66.0994C278.012 66.4634 278.106 66.8874 278.106 67.3714V71.2474H277.146V67.4434C277.146 66.9194 277.01 66.5114 276.738 66.2194C276.47 65.9234 276.096 65.7754 275.616 65.7754C275.272 65.7754 274.97 65.8494 274.71 65.9974C274.45 66.1414 274.248 66.3494 274.104 66.6214C273.964 66.8934 273.894 67.2134 273.894 67.5814V71.2474H272.934V65.1034H273.858V66.0454C274.054 65.6854 274.318 65.4154 274.65 65.2354C274.982 65.0514 275.374 64.9594 275.826 64.9594ZM281.254 71.2474H280.264V62.8474H281.536L284.518 69.7174L284.68 70.1614L284.836 69.7174L287.74 62.8474H289.048V71.2474H288.052V64.2754L285.094 71.2474H284.224L281.254 64.3114V71.2474ZM293.684 64.9594C294.148 64.9594 294.554 65.0454 294.902 65.2174C295.254 65.3854 295.526 65.6314 295.718 65.9554C295.91 66.2794 296.006 66.6694 296.006 67.1254V71.2474H295.07V70.3354C294.882 70.6794 294.612 70.9414 294.26 71.1214C293.912 71.3014 293.494 71.3914 293.006 71.3914C292.602 71.3914 292.242 71.3174 291.926 71.1694C291.614 71.0174 291.37 70.8074 291.194 70.5394C291.022 70.2714 290.936 69.9654 290.936 69.6214C290.936 69.3014 291.016 69.0074 291.176 68.7394C291.34 68.4674 291.566 68.2454 291.854 68.0734C292.142 67.9014 292.468 67.7974 292.832 67.7614L294.626 67.5814C294.758 67.5694 294.862 67.5134 294.938 67.4134C295.018 67.3134 295.058 67.1694 295.058 66.9814C295.058 66.7374 294.998 66.5234 294.878 66.3394C294.762 66.1554 294.598 66.0134 294.386 65.9134C294.178 65.8134 293.936 65.7634 293.66 65.7634C293.388 65.7634 293.14 65.8094 292.916 65.9014C292.692 65.9934 292.51 66.1194 292.37 66.2794C292.23 66.4394 292.148 66.6154 292.124 66.8074H291.188C291.224 66.4674 291.356 66.1574 291.584 65.8774C291.812 65.5934 292.11 65.3694 292.478 65.2054C292.846 65.0414 293.248 64.9594 293.684 64.9594ZM293.186 70.6414C293.55 70.6414 293.874 70.5714 294.158 70.4314C294.442 70.2874 294.662 70.0874 294.818 69.8314C294.978 69.5714 295.058 69.2774 295.058 68.9494V68.2534L292.964 68.4694C292.644 68.5014 292.386 68.6194 292.19 68.8234C291.994 69.0274 291.896 69.2754 291.896 69.5674C291.896 69.7754 291.95 69.9614 292.058 70.1254C292.166 70.2854 292.318 70.4114 292.514 70.5034C292.71 70.5954 292.934 70.6414 293.186 70.6414ZM298.89 71.2474H297.93V65.1034H298.89V71.2474ZM297.864 63.9874V62.8474H298.956V63.9874H297.864ZM303.846 64.9594C304.306 64.9594 304.708 65.0594 305.052 65.2594C305.396 65.4554 305.66 65.7354 305.844 66.0994C306.032 66.4634 306.126 66.8874 306.126 67.3714V71.2474H305.166V67.4434C305.166 66.9194 305.03 66.5114 304.758 66.2194C304.49 65.9234 304.116 65.7754 303.636 65.7754C303.292 65.7754 302.99 65.8494 302.73 65.9974C302.47 66.1414 302.268 66.3494 302.124 66.6214C301.984 66.8934 301.914 67.2134 301.914 67.5814V71.2474H300.954V65.1034H301.878V66.0454C302.074 65.6854 302.338 65.4154 302.67 65.2354C303.002 65.0514 303.394 64.9594 303.846 64.9594ZM307.996 71.2474H307.012L310.828 62.8474H311.812L307.996 71.2474ZM312.578 71.2474V69.9274H313.898V71.2474H312.578ZM315.426 71.2474V69.9274H316.746V71.2474H315.426ZM318.274 71.2474V69.9274H319.594V71.2474H318.274ZM321.343 71.2474H320.359L324.175 62.8474H325.159L321.343 71.2474ZM330.582 65.1034H331.512L331.5 70.7614C331.5 71.2934 331.386 71.7494 331.158 72.1294C330.934 72.5134 330.61 72.8054 330.186 73.0054C329.766 73.2094 329.27 73.3114 328.698 73.3114C328.174 73.3114 327.706 73.2234 327.294 73.0474C326.886 72.8754 326.56 72.6334 326.316 72.3214C326.072 72.0094 325.928 71.6494 325.884 71.2414H326.844C326.896 71.4814 327.006 71.6954 327.174 71.8834C327.342 72.0754 327.556 72.2234 327.816 72.3274C328.08 72.4354 328.374 72.4894 328.698 72.4894C329.27 72.4894 329.718 72.3374 330.042 72.0334C330.37 71.7334 330.534 71.3094 330.534 70.7614V70.3354L330.552 69.7054C330.32 70.0334 330.024 70.2874 329.664 70.4674C329.308 70.6434 328.91 70.7314 328.47 70.7314C327.95 70.7314 327.484 70.6094 327.072 70.3654C326.664 70.1214 326.344 69.7814 326.112 69.3454C325.884 68.9094 325.77 68.4134 325.77 67.8574C325.77 67.3014 325.884 66.8054 326.112 66.3694C326.344 65.9334 326.664 65.5934 327.072 65.3494C327.484 65.1054 327.95 64.9834 328.47 64.9834C328.918 64.9834 329.324 65.0774 329.688 65.2654C330.052 65.4494 330.35 65.7114 330.582 66.0514V65.1034ZM328.644 69.8914C329.012 69.8914 329.34 69.8074 329.628 69.6394C329.916 69.4714 330.14 69.2334 330.3 68.9254C330.464 68.6174 330.546 68.2614 330.546 67.8574C330.546 67.4534 330.464 67.0974 330.3 66.7894C330.14 66.4814 329.916 66.2434 329.628 66.0754C329.34 65.9074 329.012 65.8234 328.644 65.8234C328.28 65.8234 327.956 65.9094 327.672 66.0814C327.388 66.2494 327.168 66.4874 327.012 66.7954C326.856 67.0994 326.778 67.4534 326.778 67.8574C326.778 68.2614 326.856 68.6174 327.012 68.9254C327.168 69.2294 327.388 69.4674 327.672 69.6394C327.956 69.8074 328.28 69.8914 328.644 69.8914ZM336.502 65.0434V66.0454H336.28C335.72 66.0454 335.28 66.2134 334.96 66.5494C334.64 66.8854 334.48 67.3574 334.48 67.9654V71.2474H333.52V65.1034H334.48V66.3394C334.652 65.9234 334.892 65.6034 335.2 65.3794C335.512 65.1554 335.884 65.0434 336.316 65.0434H336.502ZM343.144 68.4094H338.272C338.308 68.8294 338.418 69.2014 338.602 69.5254C338.786 69.8494 339.028 70.1014 339.328 70.2814C339.628 70.4614 339.968 70.5514 340.348 70.5514C340.604 70.5514 340.85 70.5114 341.086 70.4314C341.322 70.3514 341.528 70.2394 341.704 70.0954C341.88 69.9514 342.006 69.7874 342.082 69.6034H343.006C342.938 69.9394 342.772 70.2434 342.508 70.5154C342.248 70.7874 341.922 71.0014 341.53 71.1574C341.142 71.3134 340.728 71.3914 340.288 71.3914C339.708 71.3914 339.188 71.2534 338.728 70.9774C338.272 70.7014 337.916 70.3194 337.66 69.8314C337.404 69.3394 337.276 68.7834 337.276 68.1634C337.276 67.5594 337.406 67.0134 337.666 66.5254C337.926 66.0374 338.284 65.6554 338.74 65.3794C339.2 65.0994 339.716 64.9594 340.288 64.9594C340.832 64.9594 341.32 65.0994 341.752 65.3794C342.188 65.6554 342.528 66.0394 342.772 66.5314C343.02 67.0194 343.144 67.5674 343.144 68.1754V68.4094ZM340.3 65.8054C339.76 65.8054 339.312 65.9674 338.956 66.2914C338.6 66.6154 338.38 67.0574 338.296 67.6174H342.142C342.058 67.0614 341.852 66.6214 341.524 66.2974C341.2 65.9694 340.792 65.8054 340.3 65.8054ZM350.082 68.4094H345.21C345.246 68.8294 345.356 69.2014 345.54 69.5254C345.724 69.8494 345.966 70.1014 346.266 70.2814C346.566 70.4614 346.906 70.5514 347.286 70.5514C347.542 70.5514 347.788 70.5114 348.024 70.4314C348.26 70.3514 348.466 70.2394 348.642 70.0954C348.818 69.9514 348.944 69.7874 349.02 69.6034H349.944C349.876 69.9394 349.71 70.2434 349.446 70.5154C349.186 70.7874 348.86 71.0014 348.468 71.1574C348.08 71.3134 347.666 71.3914 347.226 71.3914C346.646 71.3914 346.126 71.2534 345.666 70.9774C345.21 70.7014 344.854 70.3194 344.598 69.8314C344.342 69.3394 344.214 68.7834 344.214 68.1634C344.214 67.5594 344.344 67.0134 344.604 66.5254C344.864 66.0374 345.222 65.6554 345.678 65.3794C346.138 65.0994 346.654 64.9594 347.226 64.9594C347.77 64.9594 348.258 65.0994 348.69 65.3794C349.126 65.6554 349.466 66.0394 349.71 66.5314C349.958 67.0194 350.082 67.5674 350.082 68.1754V68.4094ZM347.238 65.8054C346.698 65.8054 346.25 65.9674 345.894 66.2914C345.538 66.6154 345.318 67.0574 345.234 67.6174H349.08C348.996 67.0614 348.79 66.6214 348.462 66.2974C348.138 65.9694 347.73 65.8054 347.238 65.8054ZM353.299 71.2474C352.855 71.2474 352.503 71.1294 352.243 70.8934C351.987 70.6574 351.859 70.3314 351.859 69.9154L351.853 65.9554H350.773L350.779 65.1034H351.445C351.597 65.1034 351.719 65.0554 351.811 64.9594C351.907 64.8634 351.955 64.7414 351.955 64.5934V63.5674H352.819V65.1034H354.301L354.295 65.9554H352.813L352.819 69.8554C352.819 70.0234 352.867 70.1554 352.963 70.2514C353.063 70.3474 353.195 70.3954 353.359 70.3954H354.295V71.2474H353.299ZM356.875 71.2474H355.915V65.1034H356.875V71.2474ZM355.849 63.9874V62.8474H356.941V63.9874H355.849ZM361.83 64.9594C362.29 64.9594 362.692 65.0594 363.036 65.2594C363.38 65.4554 363.644 65.7354 363.828 66.0994C364.016 66.4634 364.11 66.8874 364.11 67.3714V71.2474H363.15V67.4434C363.15 66.9194 363.014 66.5114 362.742 66.2194C362.474 65.9234 362.1 65.7754 361.62 65.7754C361.276 65.7754 360.974 65.8494 360.714 65.9974C360.454 66.1414 360.252 66.3494 360.108 66.6214C359.968 66.8934 359.898 67.2134 359.898 67.5814V71.2474H358.938V65.1034H359.862V66.0454C360.058 65.6854 360.322 65.4154 360.654 65.2354C360.986 65.0514 361.378 64.9594 361.83 64.9594ZM370.414 65.1034H371.344L371.332 70.7614C371.332 71.2934 371.218 71.7494 370.99 72.1294C370.766 72.5134 370.442 72.8054 370.018 73.0054C369.598 73.2094 369.102 73.3114 368.53 73.3114C368.006 73.3114 367.538 73.2234 367.126 73.0474C366.718 72.8754 366.392 72.6334 366.148 72.3214C365.904 72.0094 365.76 71.6494 365.716 71.2414H366.676C366.728 71.4814 366.838 71.6954 367.006 71.8834C367.174 72.0754 367.388 72.2234 367.648 72.3274C367.912 72.4354 368.206 72.4894 368.53 72.4894C369.102 72.4894 369.55 72.3374 369.874 72.0334C370.202 71.7334 370.366 71.3094 370.366 70.7614V70.3354L370.384 69.7054C370.152 70.0334 369.856 70.2874 369.496 70.4674C369.14 70.6434 368.742 70.7314 368.302 70.7314C367.782 70.7314 367.316 70.6094 366.904 70.3654C366.496 70.1214 366.176 69.7814 365.944 69.3454C365.716 68.9094 365.602 68.4134 365.602 67.8574C365.602 67.3014 365.716 66.8054 365.944 66.3694C366.176 65.9334 366.496 65.5934 366.904 65.3494C367.316 65.1054 367.782 64.9834 368.302 64.9834C368.75 64.9834 369.156 65.0774 369.52 65.2654C369.884 65.4494 370.182 65.7114 370.414 66.0514V65.1034ZM368.476 69.8914C368.844 69.8914 369.172 69.8074 369.46 69.6394C369.748 69.4714 369.972 69.2334 370.132 68.9254C370.296 68.6174 370.378 68.2614 370.378 67.8574C370.378 67.4534 370.296 67.0974 370.132 66.7894C369.972 66.4814 369.748 66.2434 369.46 66.0754C369.172 65.9074 368.844 65.8234 368.476 65.8234C368.112 65.8234 367.788 65.9094 367.504 66.0814C367.22 66.2494 367 66.4874 366.844 66.7954C366.688 67.0994 366.61 67.4534 366.61 67.8574C366.61 68.2614 366.688 68.6174 366.844 68.9254C367 69.2294 367.22 69.4674 367.504 69.6394C367.788 69.8074 368.112 69.8914 368.476 69.8914ZM373.082 71.2474V69.9274H374.402V71.2474H373.082ZM377.16 71.2474H376.2V62.8474H377.16V67.9414L379.938 65.1034H381.138L378.258 68.0254L381.246 71.2474H380.022L377.16 68.1454V71.2474ZM383.991 71.2474C383.547 71.2474 383.195 71.1294 382.935 70.8934C382.679 70.6574 382.551 70.3314 382.551 69.9154L382.545 65.9554H381.465L381.471 65.1034H382.137C382.289 65.1034 382.411 65.0554 382.503 64.9594C382.599 64.8634 382.647 64.7414 382.647 64.5934V63.5674H383.511V65.1034H384.993L384.987 65.9554H383.505L383.511 69.8554C383.511 70.0234 383.559 70.1554 383.655 70.2514C383.755 70.3474 383.887 70.3954 384.051 70.3954H384.987V71.2474H383.991Z" fill="white"/>
<rect x="408" y="28.0275" width="91" height="24.1649" rx="12.0825" fill="#F2F2F2"/>
<path d="M441.447 44.0619V43.1319H443.055C443.359 43.1319 443.605 43.0379 443.793 42.8499C443.981 42.6619 444.075 42.4159 444.075 42.1119V35.6619H445.071V42.2499C445.071 42.6019 444.991 42.9159 444.831 43.1919C444.671 43.4679 444.447 43.6819 444.159 43.8339C443.871 43.9859 443.543 44.0619 443.175 44.0619H441.447ZM450.853 44.0619H449.641L446.527 35.6619H447.619L450.289 42.8979L452.863 35.6619H453.967L450.853 44.0619ZM456.483 44.0619H455.493V35.6619H456.765L459.747 42.5319L459.909 42.9759L460.065 42.5319L462.969 35.6619H464.277V44.0619H463.281V37.0899L460.323 44.0619H459.453L456.483 37.1259V44.0619Z" fill="black"/>
<rect x="408" y="56.2199" width="91" height="24.1649" rx="12.0825" fill="#F2F2F2"/>
<path d="M428.293 72.2543H427.333V66.1103H428.293V72.2543ZM427.267 64.9943V63.8543H428.359V64.9943H427.267ZM432.942 72.3983C432.358 72.3983 431.832 72.2603 431.364 71.9843C430.896 71.7043 430.528 71.3203 430.26 70.8323C429.992 70.3443 429.858 69.7943 429.858 69.1823C429.858 68.5703 429.992 68.0203 430.26 67.5323C430.528 67.0443 430.898 66.6623 431.37 66.3863C431.842 66.1063 432.37 65.9663 432.954 65.9663C433.538 65.9663 434.066 66.1063 434.538 66.3863C435.01 66.6623 435.38 67.0443 435.648 67.5323C435.916 68.0203 436.05 68.5703 436.05 69.1823C436.05 69.7943 435.914 70.3443 435.642 70.8323C435.374 71.3203 435.004 71.7043 434.532 71.9843C434.06 72.2603 433.53 72.3983 432.942 72.3983ZM432.954 71.5103C433.354 71.5103 433.712 71.4143 434.028 71.2223C434.344 71.0263 434.592 70.7523 434.772 70.4003C434.952 70.0483 435.042 69.6423 435.042 69.1823C435.042 68.7223 434.952 68.3163 434.772 67.9643C434.592 67.6083 434.344 67.3343 434.028 67.1423C433.712 66.9463 433.354 66.8483 432.954 66.8483C432.554 66.8483 432.196 66.9463 431.88 67.1423C431.564 67.3343 431.316 67.6083 431.136 67.9643C430.956 68.3163 430.866 68.7223 430.866 69.1823C430.866 69.6423 430.956 70.0483 431.136 70.4003C431.316 70.7523 431.564 71.0263 431.88 71.2223C432.196 71.4143 432.554 71.5103 432.954 71.5103ZM439.656 72.3983C439.156 72.3983 438.714 72.3203 438.33 72.1643C437.95 72.0043 437.654 71.7843 437.442 71.5043C437.234 71.2243 437.128 70.9063 437.124 70.5503H438.084C438.092 70.7583 438.162 70.9423 438.294 71.1023C438.426 71.2623 438.606 71.3883 438.834 71.4803C439.066 71.5683 439.33 71.6123 439.626 71.6123C440.082 71.6123 440.436 71.5163 440.688 71.3243C440.94 71.1323 441.066 70.8703 441.066 70.5383C441.066 70.2823 440.988 70.0743 440.832 69.9143C440.68 69.7503 440.454 69.6443 440.154 69.5963L439.038 69.4223C438.502 69.3383 438.084 69.1443 437.784 68.8403C437.484 68.5323 437.334 68.1503 437.334 67.6943C437.334 67.3583 437.428 67.0603 437.616 66.8003C437.808 66.5363 438.072 66.3323 438.408 66.1883C438.748 66.0403 439.132 65.9663 439.56 65.9663C440 65.9663 440.394 66.0403 440.742 66.1883C441.094 66.3363 441.37 66.5423 441.57 66.8063C441.774 67.0663 441.88 67.3623 441.888 67.6943H440.928C440.924 67.5183 440.86 67.3583 440.736 67.2143C440.616 67.0703 440.452 66.9583 440.244 66.8783C440.036 66.7943 439.804 66.7523 439.548 66.7523C439.3 66.7523 439.076 66.7923 438.876 66.8723C438.68 66.9483 438.526 67.0563 438.414 67.1963C438.306 67.3323 438.252 67.4903 438.252 67.6703C438.252 67.9103 438.324 68.1043 438.468 68.2523C438.612 68.3963 438.824 68.4903 439.104 68.5343L440.256 68.7203C440.816 68.8083 441.244 69.0083 441.54 69.3203C441.84 69.6323 441.99 70.0303 441.99 70.5143C441.99 70.8903 441.894 71.2203 441.702 71.5043C441.51 71.7883 441.238 72.0083 440.886 72.1643C440.534 72.3203 440.124 72.3983 439.656 72.3983ZM443.922 72.2543H442.83L445.86 63.8543H447.096L450.246 72.2543H449.19L448.38 70.0223H444.666L443.922 72.2543ZM446.328 65.1683L444.972 69.1583H448.056L446.616 65.1683L446.472 64.6763L446.328 65.1683ZM454.514 66.0503V67.0523H454.292C453.732 67.0523 453.292 67.2203 452.972 67.5563C452.652 67.8923 452.492 68.3643 452.492 68.9723V72.2543H451.532V66.1103H452.492V67.3463C452.664 66.9303 452.904 66.6103 453.212 66.3863C453.524 66.1623 453.896 66.0503 454.328 66.0503H454.514ZM462.661 65.9663C463.109 65.9663 463.501 66.0683 463.837 66.2723C464.177 66.4723 464.437 66.7543 464.617 67.1183C464.801 67.4823 464.893 67.9023 464.893 68.3783V72.2543H463.933V68.4203C463.933 67.9003 463.809 67.4983 463.561 67.2143C463.317 66.9263 462.969 66.7823 462.517 66.7823C462.173 66.7823 461.875 66.8643 461.623 67.0283C461.371 67.1883 461.177 67.4183 461.041 67.7183C460.905 68.0183 460.837 68.3683 460.837 68.7683V72.2543H459.877V68.4203C459.877 67.9043 459.749 67.5023 459.493 67.2143C459.237 66.9263 458.881 66.7823 458.425 66.7823C458.081 66.7823 457.785 66.8643 457.537 67.0283C457.293 67.1883 457.105 67.4183 456.973 67.7183C456.845 68.0183 456.781 68.3683 456.781 68.7683V72.2543H455.821V66.1103H456.745V67.0163C456.937 66.6803 457.189 66.4223 457.501 66.2423C457.817 66.0583 458.183 65.9663 458.599 65.9663C459.047 65.9663 459.445 66.0743 459.793 66.2903C460.141 66.5063 460.405 66.8043 460.585 67.1843C460.793 66.8003 461.075 66.5023 461.431 66.2903C461.791 66.0743 462.201 65.9663 462.661 65.9663ZM469.717 72.3983C469.297 72.3983 468.887 72.3143 468.487 72.1463C468.091 71.9743 467.759 71.7423 467.491 71.4503C467.175 71.1063 466.933 70.6663 466.765 70.1303C466.601 69.5903 466.519 68.9703 466.519 68.2703C466.519 67.3743 466.659 66.5823 466.939 65.8943C467.219 65.2023 467.609 64.6663 468.109 64.2863C468.613 63.9023 469.187 63.7103 469.831 63.7103C470.255 63.7103 470.663 63.7923 471.055 63.9563C471.447 64.1203 471.777 64.3503 472.045 64.6463C472.317 64.9423 472.491 65.2783 472.567 65.6543H471.559C471.519 65.4463 471.413 65.2623 471.241 65.1023C471.069 64.9383 470.857 64.8123 470.605 64.7243C470.353 64.6323 470.095 64.5863 469.831 64.5863C469.363 64.5863 468.951 64.7363 468.595 65.0363C468.243 65.3363 467.967 65.7683 467.767 66.3323C467.567 66.8963 467.461 67.5643 467.449 68.3363C467.569 68.0323 467.755 67.7583 468.007 67.5143C468.259 67.2663 468.553 67.0723 468.889 66.9323C469.225 66.7923 469.575 66.7223 469.939 66.7223C470.483 66.7223 470.967 66.8443 471.391 67.0883C471.815 67.3283 472.143 67.6643 472.375 68.0963C472.611 68.5243 472.729 69.0123 472.729 69.5603C472.729 70.1123 472.601 70.6043 472.345 71.0363C472.093 71.4643 471.739 71.7983 471.283 72.0383C470.827 72.2783 470.305 72.3983 469.717 72.3983ZM469.759 71.5223C470.139 71.5223 470.475 71.4403 470.767 71.2763C471.063 71.1083 471.291 70.8763 471.451 70.5803C471.615 70.2843 471.697 69.9463 471.697 69.5663C471.697 69.1863 471.615 68.8483 471.451 68.5523C471.287 68.2523 471.055 68.0183 470.755 67.8503C470.455 67.6823 470.109 67.5983 469.717 67.5983C469.325 67.5983 468.975 67.6843 468.667 67.8563C468.363 68.0283 468.125 68.2643 467.953 68.5643C467.785 68.8603 467.701 69.1903 467.701 69.5543C467.701 69.9223 467.789 70.2563 467.965 70.5563C468.141 70.8563 468.385 71.0923 468.697 71.2643C469.013 71.4363 469.367 71.5223 469.759 71.5223ZM478.846 63.8543V69.2843H480.154V70.1843H478.846V72.2543H477.862V70.1843H473.602V69.2483L477.856 63.8543H478.846ZM477.862 65.1623L474.652 69.2843H477.862V65.1623Z" fill="black"/>
<rect x="408" y="83.4055" width="91" height="24.1649" rx="12.0825" fill="#F2F2F2"/>
<path d="M447.447 99.4399V98.5099H449.055C449.359 98.5099 449.605 98.4159 449.793 98.2279C449.981 98.0399 450.075 97.7939 450.075 97.4899V91.0399H451.071V97.6279C451.071 97.9799 450.991 98.2939 450.831 98.5699C450.671 98.8459 450.447 99.0599 450.159 99.2119C449.871 99.3639 449.543 99.4399 449.175 99.4399H447.447ZM455.887 99.5839C455.311 99.5839 454.799 99.4779 454.351 99.2659C453.907 99.0539 453.561 98.7579 453.313 98.3779C453.065 97.9979 452.941 97.5619 452.941 97.0699H453.961C453.961 97.3859 454.043 97.6659 454.207 97.9099C454.371 98.1539 454.599 98.3439 454.891 98.4799C455.187 98.6159 455.523 98.6839 455.899 98.6839C456.271 98.6839 456.601 98.6199 456.889 98.4919C457.181 98.3639 457.407 98.1839 457.567 97.9519C457.727 97.7199 457.807 97.4539 457.807 97.1539C457.807 96.8019 457.697 96.4999 457.477 96.2479C457.257 95.9919 456.953 95.8259 456.565 95.7499L455.089 95.4619C454.693 95.3859 454.349 95.2419 454.057 95.0299C453.769 94.8139 453.547 94.5479 453.391 94.2319C453.235 93.9159 453.157 93.5719 453.157 93.1999C453.157 92.7519 453.273 92.3539 453.505 92.0059C453.737 91.6579 454.059 91.3859 454.471 91.1899C454.883 90.9939 455.351 90.8959 455.875 90.8959C456.407 90.8959 456.881 90.9959 457.297 91.1959C457.717 91.3919 458.043 91.6659 458.275 92.0179C458.511 92.3699 458.629 92.7719 458.629 93.2239H457.609C457.609 92.9479 457.535 92.7019 457.387 92.4859C457.243 92.2699 457.039 92.1019 456.775 91.9819C456.515 91.8579 456.219 91.7959 455.887 91.7959C455.555 91.7959 455.257 91.8559 454.993 91.9759C454.733 92.0959 454.529 92.2639 454.381 92.4799C454.237 92.6959 454.165 92.9439 454.165 93.2239C454.165 93.5599 454.265 93.8439 454.465 94.0759C454.665 94.3039 454.949 94.4559 455.317 94.5319L456.859 94.8379C457.243 94.9139 457.583 95.0639 457.879 95.2879C458.175 95.5079 458.405 95.7799 458.569 96.1039C458.737 96.4279 458.821 96.7779 458.821 97.1539C458.821 97.6299 458.695 98.0519 458.443 98.4199C458.195 98.7879 457.847 99.0739 457.399 99.2779C456.955 99.4819 456.451 99.5839 455.887 99.5839Z" fill="black"/>
<rect x="464" y="223.361" width="167" height="46.3162" rx="12" fill="#D7C6FF"/>
<path d="M495.352 236.03H496.408L500.86 242.846V236.03H501.856V244.43H500.788L496.348 237.614V244.43H495.352V236.03ZM506.487 238.142C506.951 238.142 507.357 238.228 507.705 238.4C508.057 238.568 508.329 238.814 508.521 239.138C508.713 239.462 508.809 239.852 508.809 240.308V244.43H507.873V243.518C507.685 243.862 507.415 244.124 507.063 244.304C506.715 244.484 506.297 244.574 505.809 244.574C505.405 244.574 505.045 244.5 504.729 244.352C504.417 244.2 504.173 243.99 503.997 243.722C503.825 243.454 503.739 243.148 503.739 242.804C503.739 242.484 503.819 242.19 503.979 241.922C504.143 241.65 504.369 241.428 504.657 241.256C504.945 241.084 505.271 240.98 505.635 240.944L507.429 240.764C507.561 240.752 507.665 240.696 507.741 240.596C507.821 240.496 507.861 240.352 507.861 240.164C507.861 239.92 507.801 239.706 507.681 239.522C507.565 239.338 507.401 239.196 507.189 239.096C506.981 238.996 506.739 238.946 506.463 238.946C506.191 238.946 505.943 238.992 505.719 239.084C505.495 239.176 505.313 239.302 505.173 239.462C505.033 239.622 504.951 239.798 504.927 239.99H503.991C504.027 239.65 504.159 239.34 504.387 239.06C504.615 238.776 504.913 238.552 505.281 238.388C505.649 238.224 506.051 238.142 506.487 238.142ZM505.989 243.824C506.353 243.824 506.677 243.754 506.961 243.614C507.245 243.47 507.465 243.27 507.621 243.014C507.781 242.754 507.861 242.46 507.861 242.132V241.436L505.767 241.652C505.447 241.684 505.189 241.802 504.993 242.006C504.797 242.21 504.699 242.458 504.699 242.75C504.699 242.958 504.753 243.144 504.861 243.308C504.969 243.468 505.121 243.594 505.317 243.686C505.513 243.778 505.737 243.824 505.989 243.824ZM512.383 244.43C511.939 244.43 511.587 244.312 511.327 244.076C511.071 243.84 510.943 243.514 510.943 243.098L510.937 239.138H509.857L509.863 238.286H510.529C510.681 238.286 510.803 238.238 510.895 238.142C510.991 238.046 511.039 237.924 511.039 237.776V236.75H511.903V238.286H513.385L513.379 239.138H511.897L511.903 243.038C511.903 243.206 511.951 243.338 512.047 243.434C512.147 243.53 512.279 243.578 512.443 243.578H513.379V244.43H512.383ZM515.959 244.43H514.999V238.286H515.959V244.43ZM514.933 237.17V236.03H516.025V237.17H514.933ZM520.662 244.43H519.642L517.248 238.286H518.292L520.188 243.308L522.048 238.286H523.056L520.662 244.43ZM529.65 241.592H524.778C524.814 242.012 524.924 242.384 525.108 242.708C525.292 243.032 525.534 243.284 525.834 243.464C526.134 243.644 526.474 243.734 526.854 243.734C527.11 243.734 527.356 243.694 527.592 243.614C527.828 243.534 528.034 243.422 528.21 243.278C528.386 243.134 528.512 242.97 528.588 242.786H529.512C529.444 243.122 529.278 243.426 529.014 243.698C528.754 243.97 528.428 244.184 528.036 244.34C527.648 244.496 527.234 244.574 526.794 244.574C526.214 244.574 525.694 244.436 525.234 244.16C524.778 243.884 524.422 243.502 524.166 243.014C523.91 242.522 523.782 241.966 523.782 241.346C523.782 240.742 523.912 240.196 524.172 239.708C524.432 239.22 524.79 238.838 525.246 238.562C525.706 238.282 526.222 238.142 526.794 238.142C527.338 238.142 527.826 238.282 528.258 238.562C528.694 238.838 529.034 239.222 529.278 239.714C529.526 240.202 529.65 240.75 529.65 241.358V241.592ZM526.806 238.988C526.266 238.988 525.818 239.15 525.462 239.474C525.106 239.798 524.886 240.24 524.802 240.8H528.648C528.564 240.244 528.358 239.804 528.03 239.48C527.706 239.152 527.298 238.988 526.806 238.988ZM539.201 241.592H534.329C534.365 242.012 534.475 242.384 534.659 242.708C534.843 243.032 535.085 243.284 535.385 243.464C535.685 243.644 536.025 243.734 536.405 243.734C536.661 243.734 536.907 243.694 537.143 243.614C537.379 243.534 537.585 243.422 537.761 243.278C537.937 243.134 538.063 242.97 538.139 242.786H539.063C538.995 243.122 538.829 243.426 538.565 243.698C538.305 243.97 537.979 244.184 537.587 244.34C537.199 244.496 536.785 244.574 536.345 244.574C535.765 244.574 535.245 244.436 534.785 244.16C534.329 243.884 533.973 243.502 533.717 243.014C533.461 242.522 533.333 241.966 533.333 241.346C533.333 240.742 533.463 240.196 533.723 239.708C533.983 239.22 534.341 238.838 534.797 238.562C535.257 238.282 535.773 238.142 536.345 238.142C536.889 238.142 537.377 238.282 537.809 238.562C538.245 238.838 538.585 239.222 538.829 239.714C539.077 240.202 539.201 240.75 539.201 241.358V241.592ZM536.357 238.988C535.817 238.988 535.369 239.15 535.013 239.474C534.657 239.798 534.437 240.24 534.353 240.8H538.199C538.115 240.244 537.909 239.804 537.581 239.48C537.257 239.152 536.849 238.988 536.357 238.988ZM543.149 241.28L545.381 244.43H544.289L542.597 242.012L540.923 244.43H539.873L542.111 241.262L539.993 238.286H541.085L542.657 240.53L544.211 238.286H545.261L543.149 241.28ZM551.916 241.592H547.044C547.08 242.012 547.19 242.384 547.374 242.708C547.558 243.032 547.8 243.284 548.1 243.464C548.4 243.644 548.74 243.734 549.12 243.734C549.376 243.734 549.622 243.694 549.858 243.614C550.094 243.534 550.3 243.422 550.476 243.278C550.652 243.134 550.778 242.97 550.854 242.786H551.778C551.71 243.122 551.544 243.426 551.28 243.698C551.02 243.97 550.694 244.184 550.302 244.34C549.914 244.496 549.5 244.574 549.06 244.574C548.48 244.574 547.96 244.436 547.5 244.16C547.044 243.884 546.688 243.502 546.432 243.014C546.176 242.522 546.048 241.966 546.048 241.346C546.048 240.742 546.178 240.196 546.438 239.708C546.698 239.22 547.056 238.838 547.512 238.562C547.972 238.282 548.488 238.142 549.06 238.142C549.604 238.142 550.092 238.282 550.524 238.562C550.96 238.838 551.3 239.222 551.544 239.714C551.792 240.202 551.916 240.75 551.916 241.358V241.592ZM549.072 238.988C548.532 238.988 548.084 239.15 547.728 239.474C547.372 239.798 547.152 240.24 547.068 240.8H550.914C550.83 240.244 550.624 239.804 550.296 239.48C549.972 239.152 549.564 238.988 549.072 238.988ZM556.057 244.574C555.477 244.574 554.953 244.434 554.485 244.154C554.017 243.874 553.649 243.49 553.381 243.002C553.117 242.51 552.985 241.962 552.985 241.358C552.985 240.754 553.117 240.208 553.381 239.72C553.649 239.228 554.017 238.842 554.485 238.562C554.953 238.282 555.477 238.142 556.057 238.142C556.553 238.142 557.009 238.24 557.425 238.436C557.841 238.628 558.177 238.896 558.433 239.24C558.693 239.58 558.843 239.962 558.883 240.386H557.923C557.875 240.122 557.761 239.884 557.581 239.672C557.405 239.46 557.183 239.294 556.915 239.174C556.651 239.054 556.365 238.994 556.057 238.994C555.665 238.994 555.311 239.098 554.995 239.306C554.683 239.51 554.437 239.792 554.257 240.152C554.081 240.512 553.993 240.914 553.993 241.358C553.993 241.802 554.081 242.204 554.257 242.564C554.437 242.924 554.683 243.206 554.995 243.41C555.311 243.614 555.665 243.716 556.057 243.716C556.365 243.716 556.651 243.658 556.915 243.542C557.183 243.426 557.405 243.268 557.581 243.068C557.761 242.864 557.875 242.638 557.923 242.39H558.883C558.847 242.802 558.699 243.174 558.439 243.506C558.183 243.838 557.847 244.1 557.431 244.292C557.015 244.48 556.557 244.574 556.057 244.574ZM564.512 238.286H565.472V244.43H564.548V243.488C564.352 243.848 564.088 244.12 563.756 244.304C563.424 244.484 563.032 244.574 562.58 244.574C562.12 244.574 561.718 244.476 561.374 244.28C561.03 244.08 560.764 243.798 560.576 243.434C560.392 243.07 560.3 242.646 560.3 242.162V238.286H561.26V242.09C561.26 242.614 561.394 243.024 561.662 243.32C561.934 243.612 562.31 243.758 562.79 243.758C563.134 243.758 563.436 243.686 563.696 243.542C563.956 243.394 564.156 243.184 564.296 242.912C564.44 242.64 564.512 242.32 564.512 241.952V238.286ZM569.184 244.43C568.74 244.43 568.388 244.312 568.128 244.076C567.872 243.84 567.744 243.514 567.744 243.098L567.738 239.138H566.658L566.664 238.286H567.33C567.482 238.286 567.604 238.238 567.696 238.142C567.792 238.046 567.84 237.924 567.84 237.776V236.75H568.704V238.286H570.186L570.18 239.138H568.698L568.704 243.038C568.704 243.206 568.752 243.338 568.848 243.434C568.948 243.53 569.08 243.578 569.244 243.578H570.18V244.43H569.184ZM574.128 238.142C574.592 238.142 574.998 238.228 575.346 238.4C575.698 238.568 575.97 238.814 576.162 239.138C576.354 239.462 576.45 239.852 576.45 240.308V244.43H575.514V243.518C575.326 243.862 575.056 244.124 574.704 244.304C574.356 244.484 573.938 244.574 573.45 244.574C573.046 244.574 572.686 244.5 572.37 244.352C572.058 244.2 571.814 243.99 571.638 243.722C571.466 243.454 571.38 243.148 571.38 242.804C571.38 242.484 571.46 242.19 571.62 241.922C571.784 241.65 572.01 241.428 572.298 241.256C572.586 241.084 572.912 240.98 573.276 240.944L575.07 240.764C575.202 240.752 575.306 240.696 575.382 240.596C575.462 240.496 575.502 240.352 575.502 240.164C575.502 239.92 575.442 239.706 575.322 239.522C575.206 239.338 575.042 239.196 574.83 239.096C574.622 238.996 574.38 238.946 574.104 238.946C573.832 238.946 573.584 238.992 573.36 239.084C573.136 239.176 572.954 239.302 572.814 239.462C572.674 239.622 572.592 239.798 572.568 239.99H571.632C571.668 239.65 571.8 239.34 572.028 239.06C572.256 238.776 572.554 238.552 572.922 238.388C573.29 238.224 573.692 238.142 574.128 238.142ZM573.63 243.824C573.994 243.824 574.318 243.754 574.602 243.614C574.886 243.47 575.106 243.27 575.262 243.014C575.422 242.754 575.502 242.46 575.502 242.132V241.436L573.408 241.652C573.088 241.684 572.83 241.802 572.634 242.006C572.438 242.21 572.34 242.458 572.34 242.75C572.34 242.958 572.394 243.144 572.502 243.308C572.61 243.468 572.762 243.594 572.958 243.686C573.154 243.778 573.378 243.824 573.63 243.824ZM581.482 238.142C582.038 238.142 582.542 238.282 582.994 238.562C583.446 238.842 583.8 239.228 584.056 239.72C584.312 240.208 584.44 240.754 584.44 241.358C584.44 241.962 584.312 242.51 584.056 243.002C583.8 243.49 583.446 243.874 582.994 244.154C582.542 244.434 582.038 244.574 581.482 244.574C581.014 244.574 580.592 244.472 580.216 244.268C579.84 244.064 579.534 243.774 579.298 243.398V244.43H578.374V238.286H578.38V236.03H579.34L579.304 239.318C579.54 238.942 579.844 238.652 580.216 238.448C580.592 238.244 581.014 238.142 581.482 238.142ZM581.392 243.71C581.78 243.71 582.128 243.608 582.436 243.404C582.748 243.2 582.992 242.92 583.168 242.564C583.344 242.204 583.432 241.802 583.432 241.358C583.432 240.914 583.344 240.514 583.168 240.158C582.992 239.798 582.748 239.516 582.436 239.312C582.128 239.108 581.78 239.006 581.392 239.006C581 239.006 580.646 239.108 580.33 239.312C580.018 239.516 579.774 239.798 579.598 240.158C579.422 240.514 579.334 240.914 579.334 241.358C579.334 241.802 579.422 242.204 579.598 242.564C579.774 242.92 580.018 243.2 580.33 243.404C580.646 243.608 581 243.71 581.392 243.71ZM586.963 244.43H586.003V236.03H586.963V244.43ZM594.396 241.592H589.524C589.56 242.012 589.67 242.384 589.854 242.708C590.038 243.032 590.28 243.284 590.58 243.464C590.88 243.644 591.22 243.734 591.6 243.734C591.856 243.734 592.102 243.694 592.338 243.614C592.574 243.534 592.78 243.422 592.956 243.278C593.132 243.134 593.258 242.97 593.334 242.786H594.258C594.19 243.122 594.024 243.426 593.76 243.698C593.5 243.97 593.174 244.184 592.782 244.34C592.394 244.496 591.98 244.574 591.54 244.574C590.96 244.574 590.44 244.436 589.98 244.16C589.524 243.884 589.168 243.502 588.912 243.014C588.656 242.522 588.528 241.966 588.528 241.346C588.528 240.742 588.658 240.196 588.918 239.708C589.178 239.22 589.536 238.838 589.992 238.562C590.452 238.282 590.968 238.142 591.54 238.142C592.084 238.142 592.572 238.282 593.004 238.562C593.44 238.838 593.78 239.222 594.024 239.714C594.272 240.202 594.396 240.75 594.396 241.358V241.592ZM591.552 238.988C591.012 238.988 590.564 239.15 590.208 239.474C589.852 239.798 589.632 240.24 589.548 240.8H593.394C593.31 240.244 593.104 239.804 592.776 239.48C592.452 239.152 592.044 238.988 591.552 238.988ZM597.998 244.574C597.498 244.574 597.056 244.496 596.672 244.34C596.292 244.18 595.996 243.96 595.784 243.68C595.576 243.4 595.47 243.082 595.466 242.726H596.426C596.434 242.934 596.504 243.118 596.636 243.278C596.768 243.438 596.948 243.564 597.176 243.656C597.408 243.744 597.672 243.788 597.968 243.788C598.424 243.788 598.778 243.692 599.03 243.5C599.282 243.308 599.408 243.046 599.408 242.714C599.408 242.458 599.33 242.25 599.174 242.09C599.022 241.926 598.796 241.82 598.496 241.772L597.38 241.598C596.844 241.514 596.426 241.32 596.126 241.016C595.826 240.708 595.676 240.326 595.676 239.87C595.676 239.534 595.77 239.236 595.958 238.976C596.15 238.712 596.414 238.508 596.75 238.364C597.09 238.216 597.474 238.142 597.902 238.142C598.342 238.142 598.736 238.216 599.084 238.364C599.436 238.512 599.712 238.718 599.912 238.982C600.116 239.242 600.222 239.538 600.23 239.87H599.27C599.266 239.694 599.202 239.534 599.078 239.39C598.958 239.246 598.794 239.134 598.586 239.054C598.378 238.97 598.146 238.928 597.89 238.928C597.642 238.928 597.418 238.968 597.218 239.048C597.022 239.124 596.868 239.232 596.756 239.372C596.648 239.508 596.594 239.666 596.594 239.846C596.594 240.086 596.666 240.28 596.81 240.428C596.954 240.572 597.166 240.666 597.446 240.71L598.598 240.896C599.158 240.984 599.586 241.184 599.882 241.496C600.182 241.808 600.332 242.206 600.332 242.69C600.332 243.066 600.236 243.396 600.044 243.68C599.852 243.964 599.58 244.184 599.228 244.34C598.876 244.496 598.466 244.574 597.998 244.574ZM480.657 258.43V253.138H479.577V252.286H480.657V251.362C480.657 250.946 480.783 250.62 481.035 250.384C481.291 250.148 481.645 250.03 482.097 250.03H483.201V250.882H482.157C481.985 250.882 481.851 250.93 481.755 251.026C481.663 251.122 481.617 251.254 481.617 251.422V252.286H483.141V253.138H481.617V258.43H480.657ZM487.104 258.574C486.52 258.574 485.994 258.436 485.526 258.16C485.058 257.88 484.69 257.496 484.422 257.008C484.154 256.52 484.02 255.97 484.02 255.358C484.02 254.746 484.154 254.196 484.422 253.708C484.69 253.22 485.06 252.838 485.532 252.562C486.004 252.282 486.532 252.142 487.116 252.142C487.7 252.142 488.228 252.282 488.7 252.562C489.172 252.838 489.542 253.22 489.81 253.708C490.078 254.196 490.212 254.746 490.212 255.358C490.212 255.97 490.076 256.52 489.804 257.008C489.536 257.496 489.166 257.88 488.694 258.16C488.222 258.436 487.692 258.574 487.104 258.574ZM487.116 257.686C487.516 257.686 487.874 257.59 488.19 257.398C488.506 257.202 488.754 256.928 488.934 256.576C489.114 256.224 489.204 255.818 489.204 255.358C489.204 254.898 489.114 254.492 488.934 254.14C488.754 253.784 488.506 253.51 488.19 253.318C487.874 253.122 487.516 253.024 487.116 253.024C486.716 253.024 486.358 253.122 486.042 253.318C485.726 253.51 485.478 253.784 485.298 254.14C485.118 254.492 485.028 254.898 485.028 255.358C485.028 255.818 485.118 256.224 485.298 256.576C485.478 256.928 485.726 257.202 486.042 257.398C486.358 257.59 486.716 257.686 487.116 257.686ZM494.766 252.226V253.228H494.544C493.984 253.228 493.544 253.396 493.224 253.732C492.904 254.068 492.744 254.54 492.744 255.148V258.43H491.784V252.286H492.744V253.522C492.916 253.106 493.156 252.786 493.464 252.562C493.776 252.338 494.148 252.226 494.58 252.226H494.766ZM501.532 258.574C501.112 258.574 500.702 258.49 500.302 258.322C499.906 258.15 499.574 257.918 499.306 257.626C498.99 257.282 498.748 256.842 498.58 256.306C498.416 255.766 498.334 255.146 498.334 254.446C498.334 253.55 498.474 252.758 498.754 252.07C499.034 251.378 499.424 250.842 499.924 250.462C500.428 250.078 501.002 249.886 501.646 249.886C502.07 249.886 502.478 249.968 502.87 250.132C503.262 250.296 503.592 250.526 503.86 250.822C504.132 251.118 504.306 251.454 504.382 251.83H503.374C503.334 251.622 503.228 251.438 503.056 251.278C502.884 251.114 502.672 250.988 502.42 250.9C502.168 250.808 501.91 250.762 501.646 250.762C501.178 250.762 500.766 250.912 500.41 251.212C500.058 251.512 499.782 251.944 499.582 252.508C499.382 253.072 499.276 253.74 499.264 254.512C499.384 254.208 499.57 253.934 499.822 253.69C500.074 253.442 500.368 253.248 500.704 253.108C501.04 252.968 501.39 252.898 501.754 252.898C502.298 252.898 502.782 253.02 503.206 253.264C503.63 253.504 503.958 253.84 504.19 254.272C504.426 254.7 504.544 255.188 504.544 255.736C504.544 256.288 504.416 256.78 504.16 257.212C503.908 257.64 503.554 257.974 503.098 258.214C502.642 258.454 502.12 258.574 501.532 258.574ZM501.574 257.698C501.954 257.698 502.29 257.616 502.582 257.452C502.878 257.284 503.106 257.052 503.266 256.756C503.43 256.46 503.512 256.122 503.512 255.742C503.512 255.362 503.43 255.024 503.266 254.728C503.102 254.428 502.87 254.194 502.57 254.026C502.27 253.858 501.924 253.774 501.532 253.774C501.14 253.774 500.79 253.86 500.482 254.032C500.178 254.204 499.94 254.44 499.768 254.74C499.6 255.036 499.516 255.366 499.516 255.73C499.516 256.098 499.604 256.432 499.78 256.732C499.956 257.032 500.2 257.268 500.512 257.44C500.828 257.612 501.182 257.698 501.574 257.698ZM510.66 250.03V255.46H511.968V256.36H510.66V258.43H509.676V256.36H505.416V255.424L509.67 250.03H510.66ZM509.676 251.338L506.466 255.46H509.676V251.338ZM513.37 255.406V254.566H517.39V255.406H513.37ZM522.56 252.142C523.116 252.142 523.62 252.282 524.072 252.562C524.524 252.842 524.878 253.228 525.134 253.72C525.39 254.208 525.518 254.754 525.518 255.358C525.518 255.962 525.39 256.51 525.134 257.002C524.878 257.49 524.524 257.874 524.072 258.154C523.62 258.434 523.116 258.574 522.56 258.574C522.092 258.574 521.67 258.472 521.294 258.268C520.918 258.064 520.612 257.774 520.376 257.398V258.43H519.452V252.286H519.458V250.03H520.418L520.382 253.318C520.618 252.942 520.922 252.652 521.294 252.448C521.67 252.244 522.092 252.142 522.56 252.142ZM522.47 257.71C522.858 257.71 523.206 257.608 523.514 257.404C523.826 257.2 524.07 256.92 524.246 256.564C524.422 256.204 524.51 255.802 524.51 255.358C524.51 254.914 524.422 254.514 524.246 254.158C524.07 253.798 523.826 253.516 523.514 253.312C523.206 253.108 522.858 253.006 522.47 253.006C522.078 253.006 521.724 253.108 521.408 253.312C521.096 253.516 520.852 253.798 520.676 254.158C520.5 254.514 520.412 254.914 520.412 255.358C520.412 255.802 520.5 256.204 520.676 256.564C520.852 256.92 521.096 257.2 521.408 257.404C521.724 257.608 522.078 257.71 522.47 257.71ZM528.041 258.43H527.081V252.286H528.041V258.43ZM527.015 251.17V250.03H528.107V251.17H527.015ZM531.754 258.43C531.31 258.43 530.958 258.312 530.698 258.076C530.442 257.84 530.314 257.514 530.314 257.098L530.308 253.138H529.228L529.234 252.286H529.9C530.052 252.286 530.174 252.238 530.266 252.142C530.362 252.046 530.41 251.924 530.41 251.776V250.75H531.274V252.286H532.756L532.75 253.138H531.268L531.274 257.038C531.274 257.206 531.322 257.338 531.418 257.434C531.518 257.53 531.65 257.578 531.814 257.578H532.75V258.43H531.754ZM538.295 258.43H537.335V252.286H538.295V258.43ZM537.269 251.17V250.03H538.361V251.17H537.269ZM540.598 258.43V250.03H543.958C544.494 250.03 544.964 250.13 545.368 250.33C545.776 250.53 546.09 250.814 546.31 251.182C546.534 251.55 546.646 251.978 546.646 252.466C546.646 252.954 546.532 253.384 546.304 253.756C546.08 254.124 545.762 254.41 545.35 254.614C544.938 254.814 544.458 254.914 543.91 254.914H541.594V258.43H540.598ZM543.958 253.984C544.286 253.984 544.572 253.922 544.816 253.798C545.064 253.674 545.254 253.498 545.386 253.27C545.522 253.042 545.59 252.774 545.59 252.466C545.59 252.162 545.522 251.896 545.386 251.668C545.254 251.44 545.064 251.266 544.816 251.146C544.572 251.022 544.286 250.96 543.958 250.96H541.594V253.984H543.958ZM550.867 252.142C551.327 252.142 551.729 252.242 552.073 252.442C552.417 252.638 552.681 252.918 552.865 253.282C553.053 253.646 553.147 254.07 553.147 254.554V258.43H552.187V254.596C552.187 254.08 552.055 253.678 551.791 253.39C551.531 253.102 551.165 252.958 550.693 252.958C550.337 252.958 550.027 253.04 549.763 253.204C549.499 253.364 549.295 253.594 549.151 253.894C549.007 254.19 548.935 254.54 548.935 254.944V258.43H547.975V250.03H548.935V252.004L548.899 253.222C549.091 252.87 549.353 252.602 549.685 252.418C550.021 252.234 550.415 252.142 550.867 252.142ZM557.651 258.574C557.067 258.574 556.541 258.436 556.073 258.16C555.605 257.88 555.237 257.496 554.969 257.008C554.701 256.52 554.567 255.97 554.567 255.358C554.567 254.746 554.701 254.196 554.969 253.708C555.237 253.22 555.607 252.838 556.079 252.562C556.551 252.282 557.079 252.142 557.663 252.142C558.247 252.142 558.775 252.282 559.247 252.562C559.719 252.838 560.089 253.22 560.357 253.708C560.625 254.196 560.759 254.746 560.759 255.358C560.759 255.97 560.623 256.52 560.351 257.008C560.083 257.496 559.713 257.88 559.241 258.16C558.769 258.436 558.239 258.574 557.651 258.574ZM557.663 257.686C558.063 257.686 558.421 257.59 558.737 257.398C559.053 257.202 559.301 256.928 559.481 256.576C559.661 256.224 559.751 255.818 559.751 255.358C559.751 254.898 559.661 254.492 559.481 254.14C559.301 253.784 559.053 253.51 558.737 253.318C558.421 253.122 558.063 253.024 557.663 253.024C557.263 253.024 556.905 253.122 556.589 253.318C556.273 253.51 556.025 253.784 555.845 254.14C555.665 254.492 555.575 254.898 555.575 255.358C555.575 255.818 555.665 256.224 555.845 256.576C556.025 256.928 556.273 257.202 556.589 257.398C556.905 257.59 557.263 257.686 557.663 257.686ZM565.223 252.142C565.683 252.142 566.085 252.242 566.429 252.442C566.773 252.638 567.037 252.918 567.221 253.282C567.409 253.646 567.503 254.07 567.503 254.554V258.43H566.543V254.626C566.543 254.102 566.407 253.694 566.135 253.402C565.867 253.106 565.493 252.958 565.013 252.958C564.669 252.958 564.367 253.032 564.107 253.18C563.847 253.324 563.645 253.532 563.501 253.804C563.361 254.076 563.291 254.396 563.291 254.764V258.43H562.331V252.286H563.255V253.228C563.451 252.868 563.715 252.598 564.047 252.418C564.379 252.234 564.771 252.142 565.223 252.142ZM574.791 255.592H569.919C569.955 256.012 570.065 256.384 570.249 256.708C570.433 257.032 570.675 257.284 570.975 257.464C571.275 257.644 571.615 257.734 571.995 257.734C572.251 257.734 572.497 257.694 572.733 257.614C572.969 257.534 573.175 257.422 573.351 257.278C573.527 257.134 573.653 256.97 573.729 256.786H574.653C574.585 257.122 574.419 257.426 574.155 257.698C573.895 257.97 573.569 258.184 573.177 258.34C572.789 258.496 572.375 258.574 571.935 258.574C571.355 258.574 570.835 258.436 570.375 258.16C569.919 257.884 569.563 257.502 569.307 257.014C569.051 256.522 568.923 255.966 568.923 255.346C568.923 254.742 569.053 254.196 569.313 253.708C569.573 253.22 569.931 252.838 570.387 252.562C570.847 252.282 571.363 252.142 571.935 252.142C572.479 252.142 572.967 252.282 573.399 252.562C573.835 252.838 574.175 253.222 574.419 253.714C574.667 254.202 574.791 254.75 574.791 255.358V255.592ZM571.947 252.988C571.407 252.988 570.959 253.15 570.603 253.474C570.247 253.798 570.027 254.24 569.943 254.8H573.789C573.705 254.244 573.499 253.804 573.171 253.48C572.847 253.152 572.439 252.988 571.947 252.988ZM584.533 252.286H584.539V258.43H583.615V257.398C583.379 257.774 583.073 258.064 582.697 258.268C582.321 258.472 581.899 258.574 581.431 258.574C580.875 258.574 580.371 258.434 579.919 258.154C579.467 257.874 579.113 257.49 578.857 257.002C578.601 256.51 578.473 255.962 578.473 255.358C578.473 254.754 578.601 254.208 578.857 253.72C579.113 253.228 579.467 252.842 579.919 252.562C580.371 252.282 580.875 252.142 581.431 252.142C581.899 252.142 582.319 252.244 582.691 252.448C583.067 252.652 583.373 252.942 583.609 253.318L583.573 250.03H584.533V252.286ZM581.521 257.71C581.913 257.71 582.265 257.608 582.577 257.404C582.893 257.2 583.139 256.92 583.315 256.564C583.491 256.204 583.579 255.802 583.579 255.358C583.579 254.914 583.491 254.514 583.315 254.158C583.139 253.798 582.893 253.516 582.577 253.312C582.265 253.108 581.913 253.006 581.521 253.006C581.133 253.006 580.783 253.108 580.471 253.312C580.163 253.516 579.921 253.798 579.745 254.158C579.569 254.514 579.481 254.914 579.481 255.358C579.481 255.802 579.569 256.204 579.745 256.564C579.921 256.92 580.163 257.2 580.471 257.404C580.783 257.608 581.133 257.71 581.521 257.71ZM591.923 255.592H587.051C587.087 256.012 587.197 256.384 587.381 256.708C587.565 257.032 587.807 257.284 588.107 257.464C588.407 257.644 588.747 257.734 589.127 257.734C589.383 257.734 589.629 257.694 589.865 257.614C590.101 257.534 590.307 257.422 590.483 257.278C590.659 257.134 590.785 256.97 590.861 256.786H591.785C591.717 257.122 591.551 257.426 591.287 257.698C591.027 257.97 590.701 258.184 590.309 258.34C589.921 258.496 589.507 258.574 589.067 258.574C588.487 258.574 587.967 258.436 587.507 258.16C587.051 257.884 586.695 257.502 586.439 257.014C586.183 256.522 586.055 255.966 586.055 255.346C586.055 254.742 586.185 254.196 586.445 253.708C586.705 253.22 587.063 252.838 587.519 252.562C587.979 252.282 588.495 252.142 589.067 252.142C589.611 252.142 590.099 252.282 590.531 252.562C590.967 252.838 591.307 253.222 591.551 253.714C591.799 254.202 591.923 254.75 591.923 255.358V255.592ZM589.079 252.988C588.539 252.988 588.091 253.15 587.735 253.474C587.379 253.798 587.159 254.24 587.075 254.8H590.921C590.837 254.244 590.631 253.804 590.303 253.48C589.979 253.152 589.571 252.988 589.079 252.988ZM596.061 258.43H595.041L592.647 252.286H593.691L595.587 257.308L597.447 252.286H598.455L596.061 258.43ZM600.709 258.43H599.749V252.286H600.709V258.43ZM599.683 251.17V250.03H600.775V251.17H599.683ZM605.346 258.574C604.766 258.574 604.242 258.434 603.774 258.154C603.306 257.874 602.938 257.49 602.67 257.002C602.406 256.51 602.274 255.962 602.274 255.358C602.274 254.754 602.406 254.208 602.67 253.72C602.938 253.228 603.306 252.842 603.774 252.562C604.242 252.282 604.766 252.142 605.346 252.142C605.842 252.142 606.298 252.24 606.714 252.436C607.13 252.628 607.466 252.896 607.722 253.24C607.982 253.58 608.132 253.962 608.172 254.386H607.212C607.164 254.122 607.05 253.884 606.87 253.672C606.694 253.46 606.472 253.294 606.204 253.174C605.94 253.054 605.654 252.994 605.346 252.994C604.954 252.994 604.6 253.098 604.284 253.306C603.972 253.51 603.726 253.792 603.546 254.152C603.37 254.512 603.282 254.914 603.282 255.358C603.282 255.802 603.37 256.204 603.546 256.564C603.726 256.924 603.972 257.206 604.284 257.41C604.6 257.614 604.954 257.716 605.346 257.716C605.654 257.716 605.94 257.658 606.204 257.542C606.472 257.426 606.694 257.268 606.87 257.068C607.05 256.864 607.164 256.638 607.212 256.39H608.172C608.136 256.802 607.988 257.174 607.728 257.506C607.472 257.838 607.136 258.1 606.72 258.292C606.304 258.48 605.846 258.574 605.346 258.574ZM615.103 255.592H610.231C610.267 256.012 610.377 256.384 610.561 256.708C610.745 257.032 610.987 257.284 611.287 257.464C611.587 257.644 611.927 257.734 612.307 257.734C612.563 257.734 612.809 257.694 613.045 257.614C613.281 257.534 613.487 257.422 613.663 257.278C613.839 257.134 613.965 256.97 614.041 256.786H614.965C614.897 257.122 614.731 257.426 614.467 257.698C614.207 257.97 613.881 258.184 613.489 258.34C613.101 258.496 612.687 258.574 612.247 258.574C611.667 258.574 611.147 258.436 610.687 258.16C610.231 257.884 609.875 257.502 609.619 257.014C609.363 256.522 609.235 255.966 609.235 255.346C609.235 254.742 609.365 254.196 609.625 253.708C609.885 253.22 610.243 252.838 610.699 252.562C611.159 252.282 611.675 252.142 612.247 252.142C612.791 252.142 613.279 252.282 613.711 252.562C614.147 252.838 614.487 253.222 614.731 253.714C614.979 254.202 615.103 254.75 615.103 255.358V255.592ZM612.259 252.988C611.719 252.988 611.271 253.15 610.915 253.474C610.559 253.798 610.339 254.24 610.255 254.8H614.101C614.017 254.244 613.811 253.804 613.483 253.48C613.159 253.152 612.751 252.988 612.259 252.988Z" fill="black"/>
<rect x="75" y="223.361" width="167" height="46.3162" rx="12" fill="#D7C6FF"/>
<path d="M118.094 250.471V249.541H119.702C120.006 249.541 120.252 249.447 120.44 249.259C120.628 249.071 120.722 248.825 120.722 248.521V242.071H121.718V248.659C121.718 249.011 121.638 249.325 121.478 249.601C121.318 249.877 121.094 250.091 120.806 250.243C120.518 250.395 120.19 250.471 119.822 250.471H118.094ZM127.5 250.471H126.288L123.174 242.071H124.266L126.936 249.307L129.51 242.071H130.614L127.5 250.471ZM133.129 250.471H132.139V242.071H133.411L136.393 248.941L136.555 249.385L136.711 248.941L139.615 242.071H140.923V250.471H139.927V243.499L136.969 250.471H136.099L133.129 243.535V250.471ZM145.926 250.471V249.151H147.246V250.471H145.926ZM151.254 250.615C150.674 250.615 150.15 250.475 149.682 250.195C149.214 249.915 148.846 249.531 148.578 249.043C148.314 248.551 148.182 248.003 148.182 247.399C148.182 246.795 148.314 246.249 148.578 245.761C148.846 245.269 149.214 244.883 149.682 244.603C150.15 244.323 150.674 244.183 151.254 244.183C151.75 244.183 152.206 244.281 152.622 244.477C153.038 244.669 153.374 244.937 153.63 245.281C153.89 245.621 154.04 246.003 154.08 246.427H153.12C153.072 246.163 152.958 245.925 152.778 245.713C152.602 245.501 152.38 245.335 152.112 245.215C151.848 245.095 151.562 245.035 151.254 245.035C150.862 245.035 150.508 245.139 150.192 245.347C149.88 245.551 149.634 245.833 149.454 246.193C149.278 246.553 149.19 246.955 149.19 247.399C149.19 247.843 149.278 248.245 149.454 248.605C149.634 248.965 149.88 249.247 150.192 249.451C150.508 249.655 150.862 249.757 151.254 249.757C151.562 249.757 151.848 249.699 152.112 249.583C152.38 249.467 152.602 249.309 152.778 249.109C152.958 248.905 153.072 248.679 153.12 248.431H154.08C154.044 248.843 153.896 249.215 153.636 249.547C153.38 249.879 153.044 250.141 152.628 250.333C152.212 250.521 151.754 250.615 151.254 250.615ZM156.601 250.471H155.641V242.071H156.601V250.471ZM160.993 244.183C161.457 244.183 161.863 244.269 162.211 244.441C162.563 244.609 162.835 244.855 163.027 245.179C163.219 245.503 163.315 245.893 163.315 246.349V250.471H162.379V249.559C162.191 249.903 161.921 250.165 161.569 250.345C161.221 250.525 160.803 250.615 160.315 250.615C159.911 250.615 159.551 250.541 159.235 250.393C158.923 250.241 158.679 250.031 158.503 249.763C158.331 249.495 158.245 249.189 158.245 248.845C158.245 248.525 158.325 248.231 158.485 247.963C158.649 247.691 158.875 247.469 159.163 247.297C159.451 247.125 159.777 247.021 160.141 246.985L161.935 246.805C162.067 246.793 162.171 246.737 162.247 246.637C162.327 246.537 162.367 246.393 162.367 246.205C162.367 245.961 162.307 245.747 162.187 245.563C162.071 245.379 161.907 245.237 161.695 245.137C161.487 245.037 161.245 244.987 160.969 244.987C160.697 244.987 160.449 245.033 160.225 245.125C160.001 245.217 159.819 245.343 159.679 245.503C159.539 245.663 159.457 245.839 159.433 246.031H158.497C158.533 245.691 158.665 245.381 158.893 245.101C159.121 244.817 159.419 244.593 159.787 244.429C160.155 244.265 160.557 244.183 160.993 244.183ZM160.495 249.865C160.859 249.865 161.183 249.795 161.467 249.655C161.751 249.511 161.971 249.311 162.127 249.055C162.287 248.795 162.367 248.501 162.367 248.173V247.477L160.273 247.693C159.953 247.725 159.695 247.843 159.499 248.047C159.303 248.251 159.205 248.499 159.205 248.791C159.205 248.999 159.259 249.185 159.367 249.349C159.475 249.509 159.627 249.635 159.823 249.727C160.019 249.819 160.243 249.865 160.495 249.865ZM167.273 250.615C166.773 250.615 166.331 250.537 165.947 250.381C165.567 250.221 165.271 250.001 165.059 249.721C164.851 249.441 164.745 249.123 164.741 248.767H165.701C165.709 248.975 165.779 249.159 165.911 249.319C166.043 249.479 166.223 249.605 166.451 249.697C166.683 249.785 166.947 249.829 167.243 249.829C167.699 249.829 168.053 249.733 168.305 249.541C168.557 249.349 168.683 249.087 168.683 248.755C168.683 248.499 168.605 248.291 168.449 248.131C168.297 247.967 168.071 247.861 167.771 247.813L166.655 247.639C166.119 247.555 165.701 247.361 165.401 247.057C165.101 246.749 164.951 246.367 164.951 245.911C164.951 245.575 165.045 245.277 165.233 245.017C165.425 244.753 165.689 244.549 166.025 244.405C166.365 244.257 166.749 244.183 167.177 244.183C167.617 244.183 168.011 244.257 168.359 244.405C168.711 244.553 168.987 244.759 169.187 245.023C169.391 245.283 169.497 245.579 169.505 245.911H168.545C168.541 245.735 168.477 245.575 168.353 245.431C168.233 245.287 168.069 245.175 167.861 245.095C167.653 245.011 167.421 244.969 167.165 244.969C166.917 244.969 166.693 245.009 166.493 245.089C166.297 245.165 166.143 245.273 166.031 245.413C165.923 245.549 165.869 245.707 165.869 245.887C165.869 246.127 165.941 246.321 166.085 246.469C166.229 246.613 166.441 246.707 166.721 246.751L167.873 246.937C168.433 247.025 168.861 247.225 169.157 247.537C169.457 247.849 169.607 248.247 169.607 248.731C169.607 249.107 169.511 249.437 169.319 249.721C169.127 250.005 168.855 250.225 168.503 250.381C168.151 250.537 167.741 250.615 167.273 250.615ZM173.261 250.615C172.761 250.615 172.319 250.537 171.935 250.381C171.555 250.221 171.259 250.001 171.047 249.721C170.839 249.441 170.733 249.123 170.729 248.767H171.689C171.697 248.975 171.767 249.159 171.899 249.319C172.031 249.479 172.211 249.605 172.439 249.697C172.671 249.785 172.935 249.829 173.231 249.829C173.687 249.829 174.041 249.733 174.293 249.541C174.545 249.349 174.671 249.087 174.671 248.755C174.671 248.499 174.593 248.291 174.437 248.131C174.285 247.967 174.059 247.861 173.759 247.813L172.643 247.639C172.107 247.555 171.689 247.361 171.389 247.057C171.089 246.749 170.939 246.367 170.939 245.911C170.939 245.575 171.033 245.277 171.221 245.017C171.413 244.753 171.677 244.549 172.013 244.405C172.353 244.257 172.737 244.183 173.165 244.183C173.605 244.183 173.999 244.257 174.347 244.405C174.699 244.553 174.975 244.759 175.175 245.023C175.379 245.283 175.485 245.579 175.493 245.911H174.533C174.529 245.735 174.465 245.575 174.341 245.431C174.221 245.287 174.057 245.175 173.849 245.095C173.641 245.011 173.409 244.969 173.153 244.969C172.905 244.969 172.681 245.009 172.481 245.089C172.285 245.165 172.131 245.273 172.019 245.413C171.911 245.549 171.857 245.707 171.857 245.887C171.857 246.127 171.929 246.321 172.073 246.469C172.217 246.613 172.429 246.707 172.709 246.751L173.861 246.937C174.421 247.025 174.849 247.225 175.145 247.537C175.445 247.849 175.595 248.247 175.595 248.731C175.595 249.107 175.499 249.437 175.307 249.721C175.115 250.005 174.843 250.225 174.491 250.381C174.139 250.537 173.729 250.615 173.261 250.615ZM177.48 250.471V245.179H176.4V244.327H177.48V243.403C177.48 242.987 177.606 242.661 177.858 242.425C178.114 242.189 178.468 242.071 178.92 242.071H180.024V242.923H178.98C178.808 242.923 178.674 242.971 178.578 243.067C178.486 243.163 178.44 243.295 178.44 243.463V244.327H179.964V245.179H178.44V250.471H177.48ZM181.972 243.211H181.012V242.071H181.972V243.211ZM181.972 250.471H181.012V245.179H179.788V244.327H181.972V250.471ZM184.949 250.471H183.989V242.071H184.949V250.471ZM192.382 247.633H187.51C187.546 248.053 187.656 248.425 187.84 248.749C188.024 249.073 188.266 249.325 188.566 249.505C188.866 249.685 189.206 249.775 189.586 249.775C189.842 249.775 190.088 249.735 190.324 249.655C190.56 249.575 190.766 249.463 190.942 249.319C191.118 249.175 191.244 249.011 191.32 248.827H192.244C192.176 249.163 192.01 249.467 191.746 249.739C191.486 250.011 191.16 250.225 190.768 250.381C190.38 250.537 189.966 250.615 189.526 250.615C188.946 250.615 188.426 250.477 187.966 250.201C187.51 249.925 187.154 249.543 186.898 249.055C186.642 248.563 186.514 248.007 186.514 247.387C186.514 246.783 186.644 246.237 186.904 245.749C187.164 245.261 187.522 244.879 187.978 244.603C188.438 244.323 188.954 244.183 189.526 244.183C190.07 244.183 190.558 244.323 190.99 244.603C191.426 244.879 191.766 245.263 192.01 245.755C192.258 246.243 192.382 246.791 192.382 247.399V247.633ZM189.538 245.029C188.998 245.029 188.55 245.191 188.194 245.515C187.838 245.839 187.618 246.281 187.534 246.841H191.38C191.296 246.285 191.09 245.845 190.762 245.521C190.438 245.193 190.03 245.029 189.538 245.029ZM195.984 250.615C195.484 250.615 195.042 250.537 194.658 250.381C194.278 250.221 193.982 250.001 193.77 249.721C193.562 249.441 193.456 249.123 193.452 248.767H194.412C194.42 248.975 194.49 249.159 194.622 249.319C194.754 249.479 194.934 249.605 195.162 249.697C195.394 249.785 195.658 249.829 195.954 249.829C196.41 249.829 196.764 249.733 197.016 249.541C197.268 249.349 197.394 249.087 197.394 248.755C197.394 248.499 197.316 248.291 197.16 248.131C197.008 247.967 196.782 247.861 196.482 247.813L195.366 247.639C194.83 247.555 194.412 247.361 194.112 247.057C193.812 246.749 193.662 246.367 193.662 245.911C193.662 245.575 193.756 245.277 193.944 245.017C194.136 244.753 194.4 244.549 194.736 244.405C195.076 244.257 195.46 244.183 195.888 244.183C196.328 244.183 196.722 244.257 197.07 244.405C197.422 244.553 197.698 244.759 197.898 245.023C198.102 245.283 198.208 245.579 198.216 245.911H197.256C197.252 245.735 197.188 245.575 197.064 245.431C196.944 245.287 196.78 245.175 196.572 245.095C196.364 245.011 196.132 244.969 195.876 244.969C195.628 244.969 195.404 245.009 195.204 245.089C195.008 245.165 194.854 245.273 194.742 245.413C194.634 245.549 194.58 245.707 194.58 245.887C194.58 246.127 194.652 246.321 194.796 246.469C194.94 246.613 195.152 246.707 195.432 246.751L196.584 246.937C197.144 247.025 197.572 247.225 197.868 247.537C198.168 247.849 198.318 248.247 198.318 248.731C198.318 249.107 198.222 249.437 198.03 249.721C197.838 250.005 197.566 250.225 197.214 250.381C196.862 250.537 196.452 250.615 195.984 250.615Z" fill="black"/>
<rect x="271" y="223.361" width="167" height="46.3162" rx="12" fill="#D7C6FF"/>
<path d="M336.506 250.471V249.151H337.826V250.471H336.506ZM338.232 252.391V251.479H339.12C339.284 251.479 339.414 251.429 339.51 251.329C339.61 251.229 339.66 251.097 339.66 250.933V244.327H340.62V251.011C340.62 251.287 340.56 251.529 340.44 251.737C340.324 251.945 340.156 252.105 339.936 252.217C339.72 252.333 339.468 252.391 339.18 252.391H338.232ZM339.594 243.211V242.071H340.686V243.211H339.594ZM344.646 250.615C344.146 250.615 343.704 250.537 343.32 250.381C342.94 250.221 342.644 250.001 342.432 249.721C342.224 249.441 342.118 249.123 342.114 248.767H343.074C343.082 248.975 343.152 249.159 343.284 249.319C343.416 249.479 343.596 249.605 343.824 249.697C344.056 249.785 344.32 249.829 344.616 249.829C345.072 249.829 345.426 249.733 345.678 249.541C345.93 249.349 346.056 249.087 346.056 248.755C346.056 248.499 345.978 248.291 345.822 248.131C345.67 247.967 345.444 247.861 345.144 247.813L344.028 247.639C343.492 247.555 343.074 247.361 342.774 247.057C342.474 246.749 342.324 246.367 342.324 245.911C342.324 245.575 342.418 245.277 342.606 245.017C342.798 244.753 343.062 244.549 343.398 244.405C343.738 244.257 344.122 244.183 344.55 244.183C344.99 244.183 345.384 244.257 345.732 244.405C346.084 244.553 346.36 244.759 346.56 245.023C346.764 245.283 346.87 245.579 346.878 245.911H345.918C345.914 245.735 345.85 245.575 345.726 245.431C345.606 245.287 345.442 245.175 345.234 245.095C345.026 245.011 344.794 244.969 344.538 244.969C344.29 244.969 344.066 245.009 343.866 245.089C343.67 245.165 343.516 245.273 343.404 245.413C343.296 245.549 343.242 245.707 343.242 245.887C343.242 246.127 343.314 246.321 343.458 246.469C343.602 246.613 343.814 246.707 344.094 246.751L345.246 246.937C345.806 247.025 346.234 247.225 346.53 247.537C346.83 247.849 346.98 248.247 346.98 248.731C346.98 249.107 346.884 249.437 346.692 249.721C346.5 250.005 346.228 250.225 345.876 250.381C345.524 250.537 345.114 250.615 344.646 250.615ZM351.829 250.471V245.179H350.749V244.327H351.829V243.403C351.829 242.987 351.955 242.661 352.207 242.425C352.463 242.189 352.817 242.071 353.269 242.071H354.373V242.923H353.329C353.157 242.923 353.023 242.971 352.927 243.067C352.835 243.163 352.789 243.295 352.789 243.463V244.327H354.313V245.179H352.789V250.471H351.829ZM356.321 243.211H355.361V242.071H356.321V243.211ZM356.321 250.471H355.361V245.179H354.137V244.327H356.321V250.471ZM359.299 250.471H358.339V242.071H359.299V250.471ZM366.732 247.633H361.86C361.896 248.053 362.006 248.425 362.19 248.749C362.374 249.073 362.616 249.325 362.916 249.505C363.216 249.685 363.556 249.775 363.936 249.775C364.192 249.775 364.438 249.735 364.674 249.655C364.91 249.575 365.116 249.463 365.292 249.319C365.468 249.175 365.594 249.011 365.67 248.827H366.594C366.526 249.163 366.36 249.467 366.096 249.739C365.836 250.011 365.51 250.225 365.118 250.381C364.73 250.537 364.316 250.615 363.876 250.615C363.296 250.615 362.776 250.477 362.316 250.201C361.86 249.925 361.504 249.543 361.248 249.055C360.992 248.563 360.864 248.007 360.864 247.387C360.864 246.783 360.994 246.237 361.254 245.749C361.514 245.261 361.872 244.879 362.328 244.603C362.788 244.323 363.304 244.183 363.876 244.183C364.42 244.183 364.908 244.323 365.34 244.603C365.776 244.879 366.116 245.263 366.36 245.755C366.608 246.243 366.732 246.791 366.732 247.399V247.633ZM363.888 245.029C363.348 245.029 362.9 245.191 362.544 245.515C362.188 245.839 361.968 246.281 361.884 246.841H365.73C365.646 246.285 365.44 245.845 365.112 245.521C364.788 245.193 364.38 245.029 363.888 245.029ZM370.334 250.615C369.834 250.615 369.392 250.537 369.008 250.381C368.628 250.221 368.332 250.001 368.12 249.721C367.912 249.441 367.806 249.123 367.802 248.767H368.762C368.77 248.975 368.84 249.159 368.972 249.319C369.104 249.479 369.284 249.605 369.512 249.697C369.744 249.785 370.008 249.829 370.304 249.829C370.76 249.829 371.114 249.733 371.366 249.541C371.618 249.349 371.744 249.087 371.744 248.755C371.744 248.499 371.666 248.291 371.51 248.131C371.358 247.967 371.132 247.861 370.832 247.813L369.716 247.639C369.18 247.555 368.762 247.361 368.462 247.057C368.162 246.749 368.012 246.367 368.012 245.911C368.012 245.575 368.106 245.277 368.294 245.017C368.486 244.753 368.75 244.549 369.086 244.405C369.426 244.257 369.81 244.183 370.238 244.183C370.678 244.183 371.072 244.257 371.42 244.405C371.772 244.553 372.048 244.759 372.248 245.023C372.452 245.283 372.558 245.579 372.566 245.911H371.606C371.602 245.735 371.538 245.575 371.414 245.431C371.294 245.287 371.13 245.175 370.922 245.095C370.714 245.011 370.482 244.969 370.226 244.969C369.978 244.969 369.754 245.009 369.554 245.089C369.358 245.165 369.204 245.273 369.092 245.413C368.984 245.549 368.93 245.707 368.93 245.887C368.93 246.127 369.002 246.321 369.146 246.469C369.29 246.613 369.502 246.707 369.782 246.751L370.934 246.937C371.494 247.025 371.922 247.225 372.218 247.537C372.518 247.849 372.668 248.247 372.668 248.731C372.668 249.107 372.572 249.437 372.38 249.721C372.188 250.005 371.916 250.225 371.564 250.381C371.212 250.537 370.802 250.615 370.334 250.615Z" fill="black"/>
<defs>
<radialGradient id="paint0_radial_1218_347" cx="0" cy="0" r="1" gradientUnits="userSpaceOnUse" gradientTransform="translate(208.451 108.769) scale(191.063 294.398)">
<stop stop-color="#EB4857"/>
<stop offset="0.5" stop-color="#C611E0"/>
<stop offset="1" stop-color="#7F52FF"/>
</radialGradient>
</defs>
</svg>
