<svg width="32" height="32" viewBox="0 0 32 32" fill="none" xmlns="http://www.w3.org/2000/svg">
    <path fill-rule="evenodd" clip-rule="evenodd" d="M15.9985 0C7.16436 0 0 7.34468 0 16.4054C0 23.6534 4.58406 29.8017 10.942 31.9709C11.7425 32.122 12.0343 31.6154 12.0343 31.1804C12.0343 30.7916 12.0205 29.7594 12.0126 28.3907C7.56217 29.3817 6.62316 26.1913 6.62316 26.1913C5.89533 24.2959 4.8463 23.7914 4.8463 23.7914C3.39359 22.7742 4.95631 22.7944 4.95631 22.7944C6.56226 22.9102 7.40697 24.4853 7.40697 24.4853C8.83414 26.9919 11.1522 26.2678 12.0637 25.8479C12.2091 24.7884 12.6226 24.0653 13.0793 23.6554C9.52662 23.2415 5.79121 21.8336 5.79121 15.5474C5.79121 13.7568 6.41493 12.2915 7.43841 11.1454C7.2734 10.7305 6.72432 9.06175 7.59556 6.80387C7.59556 6.80387 8.93826 6.36276 11.995 8.4857C13.2709 8.12114 14.6401 7.93986 16.0005 7.93281C17.3599 7.93986 18.7281 8.12114 20.006 8.4857C23.0607 6.36276 24.4015 6.80387 24.4015 6.80387C25.2747 9.06175 24.7256 10.7305 24.5616 11.1454C25.587 12.2915 26.2058 13.7568 26.2058 15.5474C26.2058 21.8497 22.4645 23.2365 18.901 23.6423C19.4746 24.1489 19.9864 25.1499 19.9864 26.6807C19.9864 28.8731 19.9667 30.6426 19.9667 31.1804C19.9667 31.6195 20.2555 32.1301 21.0668 31.9699C27.4199 29.7956 32 23.6514 32 16.4054C32 7.34468 24.8356 0 15.9985 0Z" fill="#27282C" fill-opacity="0.4"/>
</svg>
