<svg width="549" height="46" viewBox="0 0 549 46" fill="none" xmlns="http://www.w3.org/2000/svg">
<rect x="58" width="433" height="46" rx="23" fill="black"/>
<path d="M78.2405 10.6H95.5205V13.08H88.2245V33H85.5685V13.08H78.2405V10.6ZM97.5318 16.616H100.092V22.104L99.0198 23.704C99.0624 22.232 99.3291 20.952 99.8198 19.864C100.321 18.7653 101.014 17.9227 101.9 17.336C102.785 16.7493 103.814 16.456 104.988 16.456H105.564V19.128H104.892C103.921 19.128 103.073 19.3147 102.348 19.688C101.622 20.0613 101.062 20.5947 100.668 21.288C100.284 21.9707 100.092 22.776 100.092 23.704V33H97.5318V16.616ZM108.121 35.848H110.553C110.894 35.848 111.219 35.736 111.529 35.512C111.838 35.2987 112.078 35.0107 112.249 34.648L113.177 32.632L106.857 16.616H109.561L114.441 29.368L119.193 16.616H121.961L114.521 35.448C114.201 36.2693 113.689 36.92 112.985 37.4C112.291 37.88 111.507 38.12 110.633 38.12H108.121V35.848ZM140.338 33.384C138.77 33.384 137.346 33.0107 136.066 32.264C134.796 31.5173 133.799 30.4933 133.074 29.192C132.348 27.88 131.986 26.4187 131.986 24.808C131.986 23.1973 132.348 21.7413 133.074 20.44C133.799 19.128 134.796 18.0987 136.066 17.352C137.346 16.6053 138.77 16.232 140.338 16.232C141.906 16.232 143.324 16.6053 144.594 17.352C145.874 18.0987 146.876 19.128 147.602 20.44C148.327 21.7413 148.69 23.1973 148.69 24.808C148.69 26.4187 148.327 27.88 147.602 29.192C146.876 30.4933 145.874 31.5173 144.594 32.264C143.324 33.0107 141.906 33.384 140.338 33.384ZM140.338 31.048C141.447 31.048 142.428 30.7867 143.282 30.264C144.146 29.7307 144.812 28.9947 145.282 28.056C145.762 27.1067 146.002 26.024 146.002 24.808C146.002 23.5813 145.762 22.4987 145.282 21.56C144.812 20.6107 144.146 19.8747 143.282 19.352C142.428 18.8187 141.447 18.552 140.338 18.552C139.228 18.552 138.242 18.8187 137.378 19.352C136.524 19.8747 135.858 20.6107 135.378 21.56C134.908 22.4987 134.674 23.5813 134.674 24.808C134.674 26.024 134.908 27.1067 135.378 28.056C135.858 28.9947 136.524 29.7307 137.378 30.264C138.242 30.7867 139.228 31.048 140.338 31.048ZM166.238 33H163.774V25.912H164.798C164.798 27.4267 164.536 28.7493 164.014 29.88C163.491 31 162.744 31.864 161.774 32.472C160.803 33.08 159.662 33.384 158.35 33.384C157.176 33.384 156.136 33.1333 155.23 32.632C154.323 32.1307 153.608 31.3947 153.086 30.424C152.574 29.4427 152.318 28.2693 152.318 26.904V16.616H154.878V26.648C154.878 27.5973 155.043 28.408 155.374 29.08C155.715 29.752 156.195 30.264 156.814 30.616C157.432 30.968 158.168 31.144 159.022 31.144C159.939 31.144 160.75 30.9413 161.454 30.536C162.158 30.1307 162.702 29.5653 163.086 28.84C163.48 28.104 163.678 27.2667 163.678 26.328V16.616H166.238V33ZM177.128 33C176.349 33 175.64 32.8347 175 32.504C174.371 32.1627 173.875 31.6987 173.512 31.112C173.149 30.5147 172.968 29.8533 172.968 29.128L172.952 18.888H170.072L170.088 16.616H171.864C172.269 16.616 172.595 16.488 172.84 16.232C173.096 15.976 173.224 15.6507 173.224 15.256V12.616H175.528V16.616H179.96L179.944 18.888H175.512L175.528 28.968C175.528 29.4693 175.693 29.8907 176.024 30.232C176.365 30.5627 176.787 30.728 177.288 30.728H179.944V33H177.128ZM193.557 10.6H196.117V21.096L206.613 10.6H210.101L199.237 21.416L210.293 33H206.709L196.117 21.928V33H193.557V10.6ZM219.213 33.384C217.645 33.384 216.221 33.0107 214.941 32.264C213.671 31.5173 212.674 30.4933 211.949 29.192C211.223 27.88 210.861 26.4187 210.861 24.808C210.861 23.1973 211.223 21.7413 211.949 20.44C212.674 19.128 213.671 18.0987 214.941 17.352C216.221 16.6053 217.645 16.232 219.213 16.232C220.781 16.232 222.199 16.6053 223.469 17.352C224.749 18.0987 225.751 19.128 226.477 20.44C227.202 21.7413 227.565 23.1973 227.565 24.808C227.565 26.4187 227.202 27.88 226.477 29.192C225.751 30.4933 224.749 31.5173 223.469 32.264C222.199 33.0107 220.781 33.384 219.213 33.384ZM219.213 31.048C220.322 31.048 221.303 30.7867 222.157 30.264C223.021 29.7307 223.687 28.9947 224.157 28.056C224.637 27.1067 224.877 26.024 224.877 24.808C224.877 23.5813 224.637 22.4987 224.157 21.56C223.687 20.6107 223.021 19.8747 222.157 19.352C221.303 18.8187 220.322 18.552 219.213 18.552C218.103 18.552 217.117 18.8187 216.253 19.352C215.399 19.8747 214.733 20.6107 214.253 21.56C213.783 22.4987 213.549 23.5813 213.549 24.808C213.549 26.024 213.783 27.1067 214.253 28.056C214.733 28.9947 215.399 29.7307 216.253 30.264C217.117 30.7867 218.103 31.048 219.213 31.048ZM237.003 33C236.224 33 235.515 32.8347 234.875 32.504C234.246 32.1627 233.75 31.6987 233.387 31.112C233.024 30.5147 232.843 29.8533 232.843 29.128L232.827 18.888H229.947L229.963 16.616H231.739C232.144 16.616 232.47 16.488 232.715 16.232C232.971 15.976 233.099 15.6507 233.099 15.256V12.616H235.403V16.616H239.835L239.819 18.888H235.387L235.403 28.968C235.403 29.4693 235.568 29.8907 235.899 30.232C236.24 30.5627 236.662 30.728 237.163 30.728H239.819V33H237.003ZM244.085 10.6H246.645V33H244.085V10.6ZM252.282 16.616H254.842V33H252.282V16.616ZM252.154 10.6H254.97V13.512H252.154V10.6ZM260.219 16.616H262.683V23.704H261.659C261.659 22.1893 261.921 20.872 262.443 19.752C262.966 18.6213 263.713 17.752 264.683 17.144C265.654 16.536 266.795 16.232 268.107 16.232C269.281 16.232 270.321 16.4827 271.227 16.984C272.134 17.4853 272.843 18.2267 273.355 19.208C273.878 20.1787 274.139 21.3467 274.139 22.712V33H271.579V22.968C271.579 22.0187 271.409 21.208 271.067 20.536C270.737 19.864 270.262 19.352 269.643 19C269.025 18.648 268.289 18.472 267.435 18.472C266.518 18.472 265.707 18.6747 265.003 19.08C264.299 19.4853 263.75 20.056 263.355 20.792C262.971 21.5173 262.779 22.3493 262.779 23.288V33H260.219V16.616ZM288.838 10.6H291.654L303.59 28.776V10.6H306.246V33H303.398L291.494 14.824V33H288.838V10.6ZM319.088 33.384C317.52 33.384 316.096 33.0107 314.816 32.264C313.546 31.5173 312.549 30.4933 311.824 29.192C311.098 27.88 310.736 26.4187 310.736 24.808C310.736 23.1973 311.098 21.7413 311.824 20.44C312.549 19.128 313.546 18.0987 314.816 17.352C316.096 16.6053 317.52 16.232 319.088 16.232C320.656 16.232 322.074 16.6053 323.344 17.352C324.624 18.0987 325.626 19.128 326.352 20.44C327.077 21.7413 327.44 23.1973 327.44 24.808C327.44 26.4187 327.077 27.88 326.352 29.192C325.626 30.4933 324.624 31.5173 323.344 32.264C322.074 33.0107 320.656 33.384 319.088 33.384ZM319.088 31.048C320.197 31.048 321.178 30.7867 322.032 30.264C322.896 29.7307 323.562 28.9947 324.032 28.056C324.512 27.1067 324.752 26.024 324.752 24.808C324.752 23.5813 324.512 22.4987 324.032 21.56C323.562 20.6107 322.896 19.8747 322.032 19.352C321.178 18.8187 320.197 18.552 319.088 18.552C317.978 18.552 316.992 18.8187 316.128 19.352C315.274 19.8747 314.608 20.6107 314.128 21.56C313.658 22.4987 313.424 23.5813 313.424 24.808C313.424 26.024 313.658 27.1067 314.128 28.056C314.608 28.9947 315.274 29.7307 316.128 30.264C316.992 30.7867 317.978 31.048 319.088 31.048ZM336.878 33C336.099 33 335.39 32.8347 334.75 32.504C334.121 32.1627 333.625 31.6987 333.262 31.112C332.899 30.5147 332.718 29.8533 332.718 29.128L332.702 18.888H329.822L329.838 16.616H331.614C332.019 16.616 332.345 16.488 332.59 16.232C332.846 15.976 332.974 15.6507 332.974 15.256V12.616H335.278V16.616H339.71L339.694 18.888H335.262L335.278 28.968C335.278 29.4693 335.443 29.8907 335.774 30.232C336.115 30.5627 336.537 30.728 337.038 30.728H339.694V33H336.878ZM350.444 33.384C348.897 33.384 347.5 33.016 346.252 32.28C345.004 31.544 344.022 30.52 343.308 29.208C342.593 27.896 342.236 26.4187 342.236 24.776C342.236 23.176 342.598 21.7253 343.324 20.424C344.049 19.112 345.036 18.088 346.284 17.352C347.542 16.6053 348.929 16.232 350.444 16.232C352.001 16.232 353.382 16.5947 354.588 17.32C355.793 18.0347 356.732 19.0427 357.404 20.344C358.076 21.6453 358.412 23.1333 358.412 24.808V25.384H344.78L344.812 24.728C344.822 25.9973 345.062 27.112 345.532 28.072C346.012 29.0213 346.673 29.7573 347.516 30.28C348.358 30.8027 349.334 31.064 350.444 31.064C351.436 31.064 352.316 30.872 353.084 30.488C353.852 30.104 354.481 29.5547 354.972 28.84H357.82C357.414 29.7787 356.854 30.5893 356.14 31.272C355.436 31.944 354.598 32.4667 353.628 32.84C352.657 33.2027 351.596 33.384 350.444 33.384ZM344.78 23.352H355.852V24.776C355.852 23.5493 355.622 22.4667 355.164 21.528C354.716 20.5787 354.081 19.8427 353.26 19.32C352.438 18.7973 351.5 18.536 350.444 18.536C349.345 18.536 348.369 18.792 347.516 19.304C346.662 19.816 345.996 20.536 345.516 21.464C345.046 22.392 344.812 23.4587 344.812 24.664L344.78 23.352ZM362.501 10.6H365.061V33H362.501V10.6ZM371.077 33.384C369.669 33.384 368.426 33.0747 367.349 32.456C366.271 31.8267 365.429 30.952 364.821 29.832C364.223 28.7013 363.914 27.3947 363.893 25.912H364.949V23.704H363.893C363.914 22.2213 364.223 20.92 364.821 19.8C365.429 18.6693 366.271 17.7947 367.349 17.176C368.426 16.5467 369.669 16.232 371.077 16.232C372.602 16.232 373.957 16.5947 375.141 17.32C376.335 18.0347 377.263 19.0427 377.925 20.344C378.597 21.6453 378.933 23.1333 378.933 24.808C378.933 26.4827 378.597 27.9707 377.925 29.272C377.263 30.5733 376.335 31.5867 375.141 32.312C373.957 33.0267 372.602 33.384 371.077 33.384ZM370.677 31.064C371.765 31.064 372.73 30.8027 373.573 30.28C374.415 29.7467 375.071 29.0107 375.541 28.072C376.01 27.1227 376.245 26.0347 376.245 24.808C376.245 23.5813 376.01 22.4987 375.541 21.56C375.071 20.6107 374.415 19.8747 373.573 19.352C372.73 18.8187 371.765 18.552 370.677 18.552C369.578 18.552 368.602 18.8187 367.749 19.352C366.895 19.8747 366.229 20.6107 365.749 21.56C365.279 22.4987 365.045 23.5813 365.045 24.808C365.045 26.0347 365.279 27.1227 365.749 28.072C366.229 29.0107 366.895 29.7467 367.749 30.28C368.602 30.8027 369.578 31.064 370.677 31.064ZM390.057 33.384C388.489 33.384 387.065 33.0107 385.785 32.264C384.515 31.5173 383.518 30.4933 382.793 29.192C382.067 27.88 381.705 26.4187 381.705 24.808C381.705 23.1973 382.067 21.7413 382.793 20.44C383.518 19.128 384.515 18.0987 385.785 17.352C387.065 16.6053 388.489 16.232 390.057 16.232C391.625 16.232 393.043 16.6053 394.313 17.352C395.593 18.0987 396.595 19.128 397.321 20.44C398.046 21.7413 398.409 23.1973 398.409 24.808C398.409 26.4187 398.046 27.88 397.321 29.192C396.595 30.4933 395.593 31.5173 394.313 32.264C393.043 33.0107 391.625 33.384 390.057 33.384ZM390.057 31.048C391.166 31.048 392.147 30.7867 393.001 30.264C393.865 29.7307 394.531 28.9947 395.001 28.056C395.481 27.1067 395.721 26.024 395.721 24.808C395.721 23.5813 395.481 22.4987 395.001 21.56C394.531 20.6107 393.865 19.8747 393.001 19.352C392.147 18.8187 391.166 18.552 390.057 18.552C388.947 18.552 387.961 18.8187 387.097 19.352C386.243 19.8747 385.577 20.6107 385.097 21.56C384.627 22.4987 384.393 23.5813 384.393 24.808C384.393 26.024 384.627 27.1067 385.097 28.056C385.577 28.9947 386.243 29.7307 387.097 30.264C387.961 30.7867 388.947 31.048 390.057 31.048ZM409.557 33.384C407.989 33.384 406.565 33.0107 405.285 32.264C404.015 31.5173 403.018 30.4933 402.293 29.192C401.567 27.88 401.205 26.4187 401.205 24.808C401.205 23.1973 401.567 21.7413 402.293 20.44C403.018 19.128 404.015 18.0987 405.285 17.352C406.565 16.6053 407.989 16.232 409.557 16.232C411.125 16.232 412.543 16.6053 413.813 17.352C415.093 18.0987 416.095 19.128 416.821 20.44C417.546 21.7413 417.909 23.1973 417.909 24.808C417.909 26.4187 417.546 27.88 416.821 29.192C416.095 30.4933 415.093 31.5173 413.813 32.264C412.543 33.0107 411.125 33.384 409.557 33.384ZM409.557 31.048C410.666 31.048 411.647 30.7867 412.501 30.264C413.365 29.7307 414.031 28.9947 414.501 28.056C414.981 27.1067 415.221 26.024 415.221 24.808C415.221 23.5813 414.981 22.4987 414.501 21.56C414.031 20.6107 413.365 19.8747 412.501 19.352C411.647 18.8187 410.666 18.552 409.557 18.552C408.447 18.552 407.461 18.8187 406.597 19.352C405.743 19.8747 405.077 20.6107 404.597 21.56C404.127 22.4987 403.893 23.5813 403.893 24.808C403.893 26.024 404.127 27.1067 404.597 28.056C405.077 28.9947 405.743 29.7307 406.597 30.264C407.461 30.7867 408.447 31.048 409.557 31.048ZM422.001 10.6H424.561V24.28L431.985 16.616H435.169L427.745 24.28L435.457 33H432.129L424.561 24.44V33H422.001V10.6ZM461.917 23.224H446.957V20.84H461.917V14.792L469.741 22.008L461.917 29.352V23.224Z" fill="white"/>
</svg>
