<svg width="471" height="64" viewBox="0 0 471 64" fill="none" xmlns="http://www.w3.org/2000/svg">
<g clip-path="url(#clip0_2019_2)">
<rect width="471" height="64" fill="white"/>
<rect x="16" y="6" width="448" height="46" rx="23" fill="black"/>
<path d="M41.9665 39.372C40.4785 39.372 39.161 39.0982 38.014 38.5505C36.8773 38.0028 35.9887 37.2382 35.348 36.2565C34.7177 35.2748 34.4025 34.1485 34.4025 32.8775H37.0375C37.0375 33.6938 37.2442 34.4172 37.6575 35.0475C38.0708 35.6778 38.6547 36.1687 39.409 36.52C40.1633 36.8713 41.0262 37.047 41.9975 37.047C42.9585 37.047 43.8007 36.8868 44.524 36.5665C45.2577 36.2358 45.8208 35.776 46.2135 35.187C46.6165 34.5877 46.818 33.9005 46.818 33.1255C46.818 32.1748 46.5338 31.3947 45.9655 30.785C45.3972 30.1753 44.6118 29.7413 43.6095 29.483L40.029 28.553C38.9957 28.2843 38.0967 27.8917 37.332 27.375C36.5777 26.848 35.9938 26.2073 35.5805 25.453C35.1672 24.6883 34.9605 23.8307 34.9605 22.88C34.9605 21.7537 35.255 20.741 35.844 19.842C36.4433 18.9327 37.27 18.2197 38.324 17.703C39.3883 17.1863 40.5818 16.928 41.9045 16.928C43.2685 16.928 44.4827 17.1863 45.547 17.703C46.6113 18.2093 47.438 18.9172 48.027 19.8265C48.616 20.7358 48.9105 21.7743 48.9105 22.942H46.2755C46.2755 22.229 46.0947 21.5935 45.733 21.0355C45.3713 20.4672 44.8598 20.028 44.1985 19.718C43.5475 19.408 42.7932 19.253 41.9355 19.253C41.0778 19.253 40.3183 19.4028 39.657 19.7025C38.9957 20.0022 38.479 20.4258 38.107 20.9735C37.7453 21.5212 37.5645 22.1567 37.5645 22.88C37.5645 23.7067 37.8332 24.3835 38.3705 24.9105C38.9078 25.4375 39.6415 25.825 40.5715 26.073L44.214 27.0185C45.2267 27.2768 46.1257 27.7005 46.911 28.2895C47.7067 28.8785 48.3267 29.5863 48.771 30.413C49.2154 31.2397 49.4375 32.1335 49.4375 33.0945C49.4375 34.2622 49.1224 35.3265 48.492 36.2875C47.8617 37.2382 46.9782 37.9925 45.8415 38.5505C44.7048 39.0982 43.4132 39.372 41.9665 39.372ZM60.4045 39.372C58.9062 39.372 57.5525 39.0155 56.3435 38.3025C55.1345 37.5895 54.1838 36.5975 53.4915 35.3265C52.7992 34.0555 52.453 32.6243 52.453 31.033C52.453 29.483 52.8043 28.0777 53.507 26.817C54.2097 25.546 55.1655 24.554 56.3745 23.841C57.5938 23.1177 58.9372 22.756 60.4045 22.756C61.9132 22.756 63.2513 23.1073 64.419 23.81C65.5867 24.5023 66.496 25.4788 67.147 26.7395C67.798 28.0002 68.1235 29.4417 68.1235 31.064V31.622H54.9175L54.9485 30.9865C54.9588 32.2162 55.1913 33.296 55.646 34.226C56.111 35.1457 56.7517 35.8587 57.568 36.365C58.3843 36.8713 59.3298 37.1245 60.4045 37.1245C61.3655 37.1245 62.218 36.9385 62.962 36.5665C63.706 36.1945 64.3157 35.6623 64.791 34.97H67.55C67.1573 35.8793 66.6148 36.6647 65.9225 37.326C65.2405 37.977 64.4293 38.4833 63.489 38.845C62.5487 39.1963 61.5205 39.372 60.4045 39.372ZM54.9175 29.6535H65.6435V31.033C65.6435 29.8447 65.4213 28.7958 64.977 27.8865C64.543 26.9668 63.9282 26.2538 63.1325 25.7475C62.3368 25.2412 61.4275 24.988 60.4045 24.988C59.3402 24.988 58.3947 25.236 57.568 25.732C56.7413 26.228 56.0955 26.9255 55.6305 27.8245C55.1758 28.7235 54.9485 29.7568 54.9485 30.9245L54.9175 29.6535ZM77.2636 39C76.5093 39 75.8221 38.8398 75.2021 38.5195C74.5925 38.1888 74.112 37.7393 73.7606 37.171C73.4093 36.5923 73.2336 35.9517 73.2336 35.249L73.2181 25.329H70.4281L70.4436 23.128H72.1641C72.5568 23.128 72.872 23.004 73.1096 22.756C73.3576 22.508 73.4816 22.1928 73.4816 21.8105V19.253H75.7136V23.128H80.0071L79.9916 25.329H75.6981L75.7136 35.094C75.7136 35.5797 75.8738 35.9878 76.1941 36.3185C76.5248 36.6388 76.933 36.799 77.4186 36.799H79.9916V39H77.2636ZM105.827 39H103.44V32.1335H104.432C104.432 33.6008 104.179 34.8822 103.673 35.9775C103.166 37.0625 102.443 37.8995 101.503 38.4885C100.562 39.0775 99.4565 39.372 98.1855 39.372C97.0488 39.372 96.0413 39.1292 95.163 38.6435C94.2847 38.1578 93.5923 37.4448 93.086 36.5045C92.59 35.5538 92.342 34.4172 92.342 33.0945V23.128H94.822V32.8465C94.822 33.7662 94.9822 34.5515 95.3025 35.2025C95.6332 35.8535 96.0982 36.3495 96.6975 36.6905C97.2968 37.0315 98.0098 37.202 98.8365 37.202C99.7252 37.202 100.511 37.0057 101.193 36.613C101.875 36.2203 102.402 35.6727 102.774 34.97C103.156 34.257 103.347 33.4458 103.347 32.5365V23.128H105.827V39ZM113.525 23.128V26.228H113.587V43.96H111.107V23.128H113.525ZM119.43 39.372C118.066 39.372 116.863 39.0723 115.819 38.473C114.775 37.8633 113.959 37.016 113.37 35.931C112.791 34.8357 112.492 33.5698 112.471 32.1335H113.494V29.9945H112.471C112.492 28.5582 112.791 27.2975 113.37 26.2125C113.959 25.1172 114.775 24.2698 115.819 23.6705C116.863 23.0608 118.066 22.756 119.43 22.756C120.908 22.756 122.22 23.1073 123.367 23.81C124.525 24.5023 125.424 25.4788 126.064 26.7395C126.715 28.0002 127.041 29.4417 127.041 31.064C127.041 32.6863 126.715 34.1278 126.064 35.3885C125.424 36.6492 124.525 37.6308 123.367 38.3335C122.22 39.0258 120.908 39.372 119.43 39.372ZM119.043 37.1245C120.097 37.1245 121.032 36.8713 121.848 36.365C122.665 35.8483 123.3 35.1353 123.755 34.226C124.21 33.3063 124.437 32.2523 124.437 31.064C124.437 29.8757 124.21 28.8268 123.755 27.9175C123.3 26.9978 122.665 26.2848 121.848 25.7785C121.032 25.2618 120.097 25.0035 119.043 25.0035C117.979 25.0035 117.033 25.2618 116.206 25.7785C115.38 26.2848 114.734 26.9978 114.269 27.9175C113.814 28.8268 113.587 29.8757 113.587 31.064C113.587 32.2523 113.814 33.3063 114.269 34.226C114.734 35.1353 115.38 35.8483 116.206 36.365C117.033 36.8713 117.979 37.1245 119.043 37.1245ZM144.978 22.756C146.207 22.756 147.267 22.9833 148.155 23.438C149.054 23.8823 149.741 24.523 150.217 25.36C150.702 26.197 150.945 27.189 150.945 28.336V39H148.496V33.0635H149.426C149.426 34.3242 149.178 35.435 148.682 36.396C148.197 37.3467 147.504 38.0803 146.605 38.597C145.706 39.1137 144.663 39.372 143.474 39.372C142.462 39.372 141.547 39.1757 140.731 38.783C139.925 38.38 139.294 37.8323 138.84 37.14C138.385 36.4373 138.158 35.652 138.158 34.784C138.158 33.947 138.375 33.172 138.809 32.459C139.243 31.7357 139.842 31.1467 140.607 30.692C141.371 30.227 142.234 29.9428 143.195 29.8395L147.349 29.3745C147.701 29.3332 147.98 29.204 148.186 28.987C148.393 28.7597 148.517 28.4032 148.558 27.9175L148.651 31.1105L143.552 31.6685C143.004 31.7305 142.513 31.901 142.079 32.18C141.656 32.459 141.325 32.8155 141.087 33.2495C140.85 33.6835 140.731 34.1537 140.731 34.66C140.731 35.1767 140.87 35.6365 141.149 36.0395C141.428 36.4425 141.816 36.7577 142.312 36.985C142.818 37.202 143.397 37.3105 144.048 37.3105C144.905 37.3105 145.67 37.1348 146.342 36.7835C147.013 36.4218 147.535 35.9207 147.907 35.28C148.279 34.6393 148.465 33.9005 148.465 33.0635V28.026C148.465 27.3957 148.321 26.848 148.031 26.383C147.752 25.918 147.349 25.5615 146.822 25.3135C146.295 25.0552 145.68 24.926 144.978 24.926C144.265 24.926 143.634 25.0397 143.087 25.267C142.549 25.484 142.121 25.7785 141.8 26.1505C141.48 26.5225 141.278 26.9203 141.196 27.344H138.716C138.85 26.4863 139.191 25.7113 139.739 25.019C140.297 24.3163 141.025 23.7635 141.924 23.3605C142.823 22.9575 143.841 22.756 144.978 22.756ZM165.169 17.3H167.649V27.468L177.817 17.3H181.196L170.672 27.778L181.382 39H177.91L167.649 28.274V39H165.169V17.3ZM190.023 39.372C188.504 39.372 187.125 39.0103 185.885 38.287C184.655 37.5637 183.689 36.5717 182.986 35.311C182.284 34.04 181.932 32.6243 181.932 31.064C181.932 29.5037 182.284 28.0932 182.986 26.8325C183.689 25.5615 184.655 24.5643 185.885 23.841C187.125 23.1177 188.504 22.756 190.023 22.756C191.542 22.756 192.917 23.1177 194.146 23.841C195.386 24.5643 196.358 25.5615 197.06 26.8325C197.763 28.0932 198.114 29.5037 198.114 31.064C198.114 32.6243 197.763 34.04 197.06 35.311C196.358 36.5717 195.386 37.5637 194.146 38.287C192.917 39.0103 191.542 39.372 190.023 39.372ZM190.023 37.109C191.098 37.109 192.049 36.8558 192.875 36.3495C193.712 35.8328 194.358 35.1198 194.813 34.2105C195.278 33.2908 195.51 32.242 195.51 31.064C195.51 29.8757 195.278 28.8268 194.813 27.9175C194.358 26.9978 193.712 26.2848 192.875 25.7785C192.049 25.2618 191.098 25.0035 190.023 25.0035C188.949 25.0035 187.993 25.2618 187.156 25.7785C186.329 26.2848 185.683 26.9978 185.218 27.9175C184.764 28.8268 184.536 29.8757 184.536 31.064C184.536 32.242 184.764 33.2908 185.218 34.2105C185.683 35.1198 186.329 35.8328 187.156 36.3495C187.993 36.8558 188.949 37.109 190.023 37.109ZM207.258 39C206.503 39 205.816 38.8398 205.196 38.5195C204.587 38.1888 204.106 37.7393 203.755 37.171C203.403 36.5923 203.228 35.9517 203.228 35.249L203.212 25.329H200.422L200.438 23.128H202.158C202.551 23.128 202.866 23.004 203.104 22.756C203.352 22.508 203.476 22.1928 203.476 21.8105V19.253H205.708V23.128H210.001L209.986 25.329H205.692L205.708 35.094C205.708 35.5797 205.868 35.9878 206.188 36.3185C206.519 36.6388 206.927 36.799 207.413 36.799H209.986V39H207.258ZM214.118 17.3H216.598V39H214.118V17.3ZM222.059 23.128H224.539V39H222.059V23.128ZM221.935 17.3H224.663V20.121H221.935V17.3ZM229.749 23.128H232.136V29.9945H231.144C231.144 28.5272 231.397 27.251 231.903 26.166C232.409 25.0707 233.133 24.2285 234.073 23.6395C235.013 23.0505 236.119 22.756 237.39 22.756C238.527 22.756 239.534 22.9988 240.413 23.4845C241.291 23.9702 241.978 24.6883 242.474 25.639C242.98 26.5793 243.234 27.7108 243.234 29.0335V39H240.754V29.2815C240.754 28.3618 240.588 27.5765 240.258 26.9255C239.937 26.2745 239.477 25.7785 238.878 25.4375C238.279 25.0965 237.566 24.926 236.739 24.926C235.85 24.926 235.065 25.1223 234.383 25.515C233.701 25.9077 233.169 26.4605 232.787 27.1735C232.415 27.8762 232.229 28.6822 232.229 29.5915V39H229.749V23.128ZM255.257 17.3H257.799L247.941 39H245.399L255.257 17.3ZM257.734 36.5975H261.113C261.795 36.5975 262.405 36.4477 262.942 36.148C263.49 35.838 263.913 35.4143 264.213 34.877C264.523 34.3293 264.678 33.7145 264.678 33.0325V17.3H267.251V33.1875C267.251 34.2932 266.993 35.2903 266.476 36.179C265.959 37.0573 265.246 37.7497 264.337 38.256C263.428 38.752 262.405 39 261.268 39H257.734V36.5975ZM279.341 39.372C277.853 39.372 276.535 39.0982 275.388 38.5505C274.251 38.0028 273.363 37.2382 272.722 36.2565C272.092 35.2748 271.777 34.1485 271.777 32.8775H274.412C274.412 33.6938 274.618 34.4172 275.032 35.0475C275.445 35.6778 276.029 36.1687 276.783 36.52C277.537 36.8713 278.4 37.047 279.372 37.047C280.333 37.047 281.175 36.8868 281.898 36.5665C282.632 36.2358 283.195 35.776 283.588 35.187C283.991 34.5877 284.192 33.9005 284.192 33.1255C284.192 32.1748 283.908 31.3947 283.34 30.785C282.771 30.1753 281.986 29.7413 280.984 29.483L277.403 28.553C276.37 28.2843 275.471 27.8917 274.706 27.375C273.952 26.848 273.368 26.2073 272.955 25.453C272.541 24.6883 272.335 23.8307 272.335 22.88C272.335 21.7537 272.629 20.741 273.218 19.842C273.817 18.9327 274.644 18.2197 275.698 17.703C276.762 17.1863 277.956 16.928 279.279 16.928C280.643 16.928 281.857 17.1863 282.921 17.703C283.985 18.2093 284.812 18.9172 285.401 19.8265C285.99 20.7358 286.285 21.7743 286.285 22.942H283.65C283.65 22.229 283.469 21.5935 283.107 21.0355C282.745 20.4672 282.234 20.028 281.573 19.718C280.922 19.408 280.167 19.253 279.31 19.253C278.452 19.253 277.692 19.4028 277.031 19.7025C276.37 20.0022 275.853 20.4258 275.481 20.9735C275.119 21.5212 274.939 22.1567 274.939 22.88C274.939 23.7067 275.207 24.3835 275.745 24.9105C276.282 25.4375 277.016 25.825 277.946 26.073L281.588 27.0185C282.601 27.2768 283.5 27.7005 284.285 28.2895C285.081 28.8785 285.701 29.5863 286.145 30.413C286.589 31.2397 286.812 32.1335 286.812 33.0945C286.812 34.2622 286.496 35.3265 285.866 36.2875C285.236 37.2382 284.352 37.9925 283.216 38.5505C282.079 39.0982 280.787 39.372 279.341 39.372ZM302.583 23.128V26.228H302.645V43.96H300.165V23.128H302.583ZM308.488 39.372C307.124 39.372 305.92 39.0723 304.877 38.473C303.833 37.8633 303.017 37.016 302.428 35.931C301.849 34.8357 301.549 33.5698 301.529 32.1335H302.552V29.9945H301.529C301.549 28.5582 301.849 27.2975 302.428 26.2125C303.017 25.1172 303.833 24.2698 304.877 23.6705C305.92 23.0608 307.124 22.756 308.488 22.756C309.966 22.756 311.278 23.1073 312.425 23.81C313.582 24.5023 314.481 25.4788 315.122 26.7395C315.773 28.0002 316.099 29.4417 316.099 31.064C316.099 32.6863 315.773 34.1278 315.122 35.3885C314.481 36.6492 313.582 37.6308 312.425 38.3335C311.278 39.0258 309.966 39.372 308.488 39.372ZM308.101 37.1245C309.155 37.1245 310.09 36.8713 310.906 36.365C311.722 35.8483 312.358 35.1353 312.813 34.226C313.267 33.3063 313.495 32.2523 313.495 31.064C313.495 29.8757 313.267 28.8268 312.813 27.9175C312.358 26.9978 311.722 26.2848 310.906 25.7785C310.09 25.2618 309.155 25.0035 308.101 25.0035C307.036 25.0035 306.091 25.2618 305.264 25.7785C304.437 26.2848 303.792 26.9978 303.327 27.9175C302.872 28.8268 302.645 29.8757 302.645 31.064C302.645 32.2523 302.872 33.3063 303.327 34.226C303.792 35.1353 304.437 35.8483 305.264 36.365C306.091 36.8713 307.036 37.1245 308.101 37.1245ZM320.054 23.128H322.534V28.4445L321.496 29.9945C321.537 28.5685 321.795 27.3285 322.271 26.2745C322.756 25.2102 323.428 24.3938 324.286 23.8255C325.143 23.2572 326.141 22.973 327.277 22.973H327.835V25.5615H327.184C326.244 25.5615 325.422 25.7423 324.72 26.104C324.017 26.4657 323.475 26.9823 323.092 27.654C322.72 28.3153 322.534 29.0955 322.534 29.9945V39H320.054V23.128ZM337.849 39.372C336.33 39.372 334.95 39.0103 333.71 38.287C332.481 37.5637 331.514 36.5717 330.812 35.311C330.109 34.04 329.758 32.6243 329.758 31.064C329.758 29.5037 330.109 28.0932 330.812 26.8325C331.514 25.5615 332.481 24.5643 333.71 23.841C334.95 23.1177 336.33 22.756 337.849 22.756C339.368 22.756 340.742 23.1177 341.972 23.841C343.212 24.5643 344.183 25.5615 344.886 26.8325C345.588 28.0932 345.94 29.5037 345.94 31.064C345.94 32.6243 345.588 34.04 344.886 35.311C344.183 36.5717 343.212 37.5637 341.972 38.287C340.742 39.0103 339.368 39.372 337.849 39.372ZM337.849 37.109C338.923 37.109 339.874 36.8558 340.701 36.3495C341.538 35.8328 342.184 35.1198 342.638 34.2105C343.103 33.2908 343.336 32.242 343.336 31.064C343.336 29.8757 343.103 28.8268 342.638 27.9175C342.184 26.9978 341.538 26.2848 340.701 25.7785C339.874 25.2618 338.923 25.0035 337.849 25.0035C336.774 25.0035 335.818 25.2618 334.981 25.7785C334.155 26.2848 333.509 26.9978 333.044 27.9175C332.589 28.8268 332.362 29.8757 332.362 31.064C332.362 32.242 332.589 33.2908 333.044 34.2105C333.509 35.1198 334.155 35.8328 334.981 36.3495C335.818 36.8558 336.774 37.109 337.849 37.109ZM347.3 41.728H348.664C349.17 41.728 349.578 41.5678 349.888 41.2475C350.209 40.9375 350.369 40.5293 350.369 40.023V23.128H352.849V40.085C352.849 40.8393 352.678 41.511 352.337 42.1C351.996 42.689 351.521 43.1437 350.911 43.464C350.302 43.7947 349.604 43.96 348.819 43.96H347.3V41.728ZM350.245 17.3H352.973V20.121H350.245V17.3ZM364.743 39.372C363.245 39.372 361.891 39.0155 360.682 38.3025C359.473 37.5895 358.523 36.5975 357.83 35.3265C357.138 34.0555 356.792 32.6243 356.792 31.033C356.792 29.483 357.143 28.0777 357.846 26.817C358.549 25.546 359.504 24.554 360.713 23.841C361.933 23.1177 363.276 22.756 364.743 22.756C366.252 22.756 367.59 23.1073 368.758 23.81C369.926 24.5023 370.835 25.4788 371.486 26.7395C372.137 28.0002 372.462 29.4417 372.462 31.064V31.622H359.256L359.287 30.9865C359.298 32.2162 359.53 33.296 359.985 34.226C360.45 35.1457 361.091 35.8587 361.907 36.365C362.723 36.8713 363.669 37.1245 364.743 37.1245C365.704 37.1245 366.557 36.9385 367.301 36.5665C368.045 36.1945 368.655 35.6623 369.13 34.97H371.889C371.496 35.8793 370.954 36.6647 370.261 37.326C369.579 37.977 368.768 38.4833 367.828 38.845C366.888 39.1963 365.859 39.372 364.743 39.372ZM359.256 29.6535H369.982V31.033C369.982 29.8447 369.76 28.7958 369.316 27.8865C368.882 26.9668 368.267 26.2538 367.471 25.7475C366.676 25.2412 365.766 24.988 364.743 24.988C363.679 24.988 362.734 25.236 361.907 25.732C361.08 26.228 360.434 26.9255 359.969 27.8245C359.515 28.7235 359.287 29.7568 359.287 30.9245L359.256 29.6535ZM383.104 39.372C381.606 39.372 380.252 39.0103 379.043 38.287C377.834 37.5637 376.883 36.5717 376.191 35.311C375.509 34.04 375.168 32.6243 375.168 31.064C375.168 29.5037 375.509 28.0932 376.191 26.8325C376.883 25.5615 377.834 24.5643 379.043 23.841C380.252 23.1177 381.606 22.756 383.104 22.756C384.292 22.756 385.382 22.9833 386.374 23.438C387.377 23.8823 388.219 24.5178 388.901 25.3445C389.593 26.1712 390.089 27.1322 390.389 28.2275H387.676C387.428 27.5662 387.082 26.9978 386.638 26.5225C386.194 26.0368 385.667 25.6648 385.057 25.4065C384.458 25.1378 383.807 25.0035 383.104 25.0035C382.081 25.0035 381.161 25.2618 380.345 25.7785C379.539 26.2952 378.909 27.0133 378.454 27.933C377.999 28.8527 377.772 29.8963 377.772 31.064C377.772 32.2213 377.999 33.2598 378.454 34.1795C378.909 35.0992 379.539 35.8225 380.345 36.3495C381.161 36.8662 382.081 37.1245 383.104 37.1245C383.807 37.1245 384.458 36.9953 385.057 36.737C385.667 36.4683 386.194 36.0963 386.638 35.621C387.082 35.1353 387.428 34.5618 387.676 33.9005H390.389C390.089 34.9958 389.593 35.9568 388.901 36.7835C388.219 37.6102 387.377 38.2508 386.374 38.7055C385.382 39.1498 384.292 39.372 383.104 39.372ZM399.312 39C398.558 39 397.871 38.8398 397.251 38.5195C396.641 38.1888 396.161 37.7393 395.809 37.171C395.458 36.5923 395.282 35.9517 395.282 35.249L395.267 25.329H392.477L392.492 23.128H394.213C394.606 23.128 394.921 23.004 395.158 22.756C395.406 22.508 395.53 22.1928 395.53 21.8105V19.253H397.762V23.128H402.056L402.04 25.329H397.747L397.762 35.094C397.762 35.5797 397.923 35.9878 398.243 36.3185C398.574 36.6388 398.982 36.799 399.467 36.799H402.04V39H399.312ZM428.806 29.5295H414.313V27.22H428.806V21.361L436.385 28.3515L428.806 35.466V29.5295Z" fill="white"/>
</g>
<defs>
<clipPath id="clip0_2019_2">
<rect width="471" height="64" fill="white"/>
</clipPath>
</defs>
</svg>
