<svg width="471" height="64" viewBox="0 0 471 64" fill="none" xmlns="http://www.w3.org/2000/svg">
<g clip-path="url(#clip0_2019_2)">
<rect width="471" height="64" fill="white"/>
<rect x="16" y="6" width="448" height="46" rx="23" fill="black"/>
<path d="M47.2281 23.0909C47.096 21.9754 46.5603 21.1094 45.6209 20.4929C44.6815 19.8764 43.5293 19.5682 42.1642 19.5682C41.1661 19.5682 40.2927 19.7296 39.5442 20.0526C38.8029 20.3755 38.2231 20.8195 37.8048 21.3846C37.3938 21.9497 37.1883 22.5919 37.1883 23.3111C37.1883 23.9129 37.3315 24.4303 37.6177 24.8633C37.9112 25.2889 38.2855 25.6449 38.7405 25.9311C39.1956 26.21 39.6726 26.4412 40.1717 26.6246C40.6707 26.8008 41.1294 26.9439 41.5477 27.054L43.8375 27.6705C44.4246 27.8246 45.0778 28.0374 45.797 28.3089C46.5236 28.5805 47.2171 28.9511 47.8776 29.4208C48.5455 29.8832 49.0959 30.4776 49.5289 31.2042C49.9619 31.9308 50.1784 32.8224 50.1784 33.8793C50.1784 35.0975 49.8592 36.1984 49.2207 37.1818C48.5895 38.1652 47.6648 38.9469 46.4465 39.5266C45.2356 40.1064 43.7641 40.3963 42.0321 40.3963C40.4175 40.3963 39.0194 40.1358 37.8378 39.6147C36.6636 39.0936 35.7389 38.3671 35.0637 37.435C34.3958 36.503 34.0179 35.4205 33.9298 34.1875H36.748C36.8214 35.0388 37.1076 35.7434 37.6067 36.3011C38.1131 36.8516 38.7516 37.2625 39.5222 37.5341C40.3001 37.7983 41.1367 37.9304 42.0321 37.9304C43.0742 37.9304 44.01 37.7616 44.8393 37.424C45.6686 37.0791 46.3254 36.602 46.8098 35.9929C47.2942 35.3764 47.5364 34.6572 47.5364 33.8352C47.5364 33.0866 47.3272 32.4775 46.9089 32.0078C46.4905 31.5381 45.9401 31.1565 45.2576 30.8629C44.5751 30.5694 43.8375 30.3125 43.0449 30.0923L40.2707 29.2997C38.5094 28.7933 37.115 28.0704 36.0875 27.131C35.06 26.1916 34.5463 24.9624 34.5463 23.4432C34.5463 22.1809 34.8876 21.08 35.5701 20.1406C36.26 19.1939 37.1847 18.46 38.3442 17.9389C39.5111 17.4105 40.8138 17.1463 42.2523 17.1463C43.7054 17.1463 44.9971 17.4068 46.1273 17.9279C47.2575 18.4416 48.1528 19.1462 48.8133 20.0415C49.4812 20.9369 49.8335 21.9534 49.8702 23.0909H47.2281ZM61.4043 40.3523C59.7751 40.3523 58.3697 39.9927 57.1881 39.2734C56.0138 38.5469 55.1075 37.5341 54.469 36.2351C53.8378 34.9287 53.5222 33.4096 53.5222 31.6776C53.5222 29.9455 53.8378 28.419 54.469 27.098C55.1075 25.7696 55.9955 24.7348 57.133 23.9936C58.2779 23.245 59.6136 22.8707 61.1401 22.8707C62.0208 22.8707 62.8905 23.0175 63.7492 23.3111C64.6078 23.6046 65.3894 24.0817 66.094 24.7422C66.7985 25.3954 67.36 26.2614 67.7783 27.3402C68.1966 28.419 68.4058 29.7474 68.4058 31.3253V32.4261H55.3717V30.1804H65.7637C65.7637 29.2263 65.5729 28.375 65.1913 27.6264C64.817 26.8778 64.2812 26.287 63.584 25.854C62.8942 25.421 62.0795 25.2045 61.1401 25.2045C60.1053 25.2045 59.21 25.4614 58.4541 25.9751C57.7055 26.4815 57.1294 27.142 56.7257 27.9567C56.3221 28.7713 56.1203 29.6446 56.1203 30.5767V32.0739C56.1203 33.3509 56.3404 34.4334 56.7808 35.3214C57.2284 36.2021 57.8486 36.8736 58.6412 37.3359C59.4338 37.791 60.3549 38.0185 61.4043 38.0185C62.0869 38.0185 62.7033 37.9231 63.2538 37.7322C63.8115 37.5341 64.2922 37.2405 64.6959 36.8516C65.0995 36.4553 65.4114 35.9635 65.6316 35.3764L68.1416 36.081C67.8774 36.9323 67.4333 37.6809 66.8095 38.3267C66.1857 38.9652 65.4151 39.4643 64.4977 39.8239C63.5804 40.1761 62.5492 40.3523 61.4043 40.3523ZM79.7115 23.0909V25.2926H70.9487V23.0909H79.7115ZM73.5027 19.0398H76.1007V35.1562C76.1007 35.8902 76.2071 36.4406 76.42 36.8075C76.6401 37.1671 76.919 37.4093 77.2566 37.5341C77.6015 37.6515 77.9648 37.7102 78.3465 37.7102C78.6327 37.7102 78.8675 37.6955 79.051 37.6662C79.2345 37.6295 79.3813 37.6001 79.4913 37.5781L80.0198 39.9119C79.8436 39.978 79.5978 40.044 79.2822 40.1101C78.9666 40.1835 78.5666 40.2202 78.0823 40.2202C77.3484 40.2202 76.6291 40.0624 75.9246 39.7468C75.2274 39.4312 74.6476 38.9505 74.1852 38.3047C73.7302 37.6589 73.5027 36.8442 73.5027 35.8608V19.0398ZM102.995 33.0866V23.0909H105.593V40H102.995V37.1378H102.818C102.422 37.9964 101.806 38.7267 100.969 39.3285C100.132 39.9229 99.0755 40.2202 97.7985 40.2202C96.7417 40.2202 95.8023 39.989 94.9803 39.5266C94.1584 39.0569 93.5125 38.3524 93.0428 37.413C92.5731 36.4663 92.3383 35.2737 92.3383 33.8352V23.0909H94.9363V33.6591C94.9363 34.892 95.2812 35.8755 95.9711 36.6094C96.6683 37.3433 97.5563 37.7102 98.6352 37.7102C99.281 37.7102 99.9378 37.5451 100.606 37.2148C101.281 36.8846 101.846 36.3782 102.301 35.6957C102.763 35.0131 102.995 34.1435 102.995 33.0866ZM110.351 46.3409V23.0909H112.861V25.777H113.169C113.36 25.4834 113.624 25.1091 113.962 24.6541C114.307 24.1918 114.798 23.7808 115.437 23.4212C116.083 23.0542 116.956 22.8707 118.057 22.8707C119.481 22.8707 120.736 23.2267 121.822 23.9386C122.908 24.6504 123.756 25.6596 124.365 26.9659C124.974 28.2723 125.279 29.8134 125.279 31.5895C125.279 33.3802 124.974 34.9324 124.365 36.2461C123.756 37.5524 122.912 38.5652 121.833 39.2844C120.754 39.9963 119.51 40.3523 118.101 40.3523C117.015 40.3523 116.145 40.1725 115.492 39.8129C114.839 39.4459 114.336 39.0312 113.984 38.5689C113.632 38.0992 113.36 37.7102 113.169 37.402H112.949V46.3409H110.351ZM112.905 31.5455C112.905 32.8224 113.092 33.949 113.466 34.9251C113.841 35.8938 114.387 36.6534 115.107 37.2038C115.826 37.7469 116.707 38.0185 117.749 38.0185C118.835 38.0185 119.741 37.7322 120.468 37.1598C121.202 36.58 121.752 35.8021 122.119 34.826C122.493 33.8426 122.681 32.7491 122.681 31.5455C122.681 30.3565 122.497 29.285 122.13 28.331C121.77 27.3696 121.224 26.61 120.49 26.0522C119.763 25.4871 118.85 25.2045 117.749 25.2045C116.692 25.2045 115.804 25.4724 115.085 26.0082C114.365 26.5366 113.822 27.2778 113.455 28.2319C113.088 29.1786 112.905 30.2831 112.905 31.5455ZM142.936 40.3963C141.865 40.3963 140.892 40.1945 140.019 39.7908C139.146 39.3799 138.452 38.7891 137.938 38.0185C137.425 37.2405 137.168 36.3011 137.168 35.2003C137.168 34.2315 137.359 33.4463 137.74 32.8445C138.122 32.2353 138.632 31.7583 139.27 31.4134C139.909 31.0684 140.613 30.8116 141.384 30.6428C142.162 30.4666 142.944 30.3272 143.729 30.2244C144.756 30.0923 145.589 29.9933 146.228 29.9272C146.874 29.8538 147.343 29.7327 147.637 29.5639C147.938 29.3951 148.088 29.1016 148.088 28.6832V28.5952C148.088 27.509 147.791 26.665 147.197 26.0632C146.609 25.4614 145.718 25.1605 144.521 25.1605C143.281 25.1605 142.309 25.4321 141.604 25.9751C140.9 26.5182 140.404 27.098 140.118 27.7145L137.652 26.8338C138.092 25.8063 138.68 25.0064 139.413 24.4339C140.155 23.8542 140.962 23.4505 141.835 23.223C142.716 22.9882 143.582 22.8707 144.433 22.8707C144.976 22.8707 145.6 22.9368 146.305 23.0689C147.017 23.1937 147.703 23.4542 148.363 23.8505C149.031 24.2468 149.585 24.8449 150.026 25.6449C150.466 26.4448 150.686 27.5163 150.686 28.8594V40H148.088V37.7102H147.956C147.78 38.0772 147.486 38.4698 147.075 38.8881C146.664 39.3065 146.118 39.6624 145.435 39.956C144.753 40.2495 143.92 40.3963 142.936 40.3963ZM143.333 38.0625C144.36 38.0625 145.226 37.8607 145.931 37.457C146.642 37.0534 147.178 36.5323 147.538 35.8938C147.905 35.2553 148.088 34.5838 148.088 33.8793V31.5014C147.978 31.6335 147.736 31.7546 147.362 31.8647C146.995 31.9674 146.569 32.0592 146.085 32.1399C145.608 32.2133 145.142 32.2794 144.687 32.3381C144.239 32.3894 143.876 32.4335 143.597 32.4702C142.922 32.5582 142.29 32.7013 141.703 32.8995C141.123 33.0903 140.654 33.3802 140.294 33.7692C139.942 34.1508 139.766 34.6719 139.766 35.3324C139.766 36.2351 140.1 36.9176 140.768 37.38C141.443 37.835 142.298 38.0625 143.333 38.0625ZM164.499 40V17.4545H167.229V28.6392H167.493L177.621 17.4545H181.188L171.721 27.6264L181.188 40H177.886L170.047 29.5199L167.229 32.6903V40H164.499ZM189.998 40.3523C188.471 40.3523 187.132 39.989 185.98 39.2624C184.835 38.5359 183.939 37.5194 183.293 36.2131C182.655 34.9067 182.336 33.3802 182.336 31.6335C182.336 29.8722 182.655 28.3346 183.293 27.021C183.939 25.7073 184.835 24.6871 185.98 23.9606C187.132 23.234 188.471 22.8707 189.998 22.8707C191.524 22.8707 192.86 23.234 194.005 23.9606C195.157 24.6871 196.052 25.7073 196.691 27.021C197.337 28.3346 197.66 29.8722 197.66 31.6335C197.66 33.3802 197.337 34.9067 196.691 36.2131C196.052 37.5194 195.157 38.5359 194.005 39.2624C192.86 39.989 191.524 40.3523 189.998 40.3523ZM189.998 38.0185C191.157 38.0185 192.111 37.7212 192.86 37.1268C193.608 36.5323 194.163 35.7507 194.522 34.782C194.882 33.8132 195.062 32.7637 195.062 31.6335C195.062 30.5033 194.882 29.4502 194.522 28.4741C194.163 27.498 193.608 26.709 192.86 26.1072C192.111 25.5054 191.157 25.2045 189.998 25.2045C188.838 25.2045 187.884 25.5054 187.135 26.1072C186.387 26.709 185.833 27.498 185.473 28.4741C185.114 29.4502 184.934 30.5033 184.934 31.6335C184.934 32.7637 185.114 33.8132 185.473 34.782C185.833 35.7507 186.387 36.5323 187.135 37.1268C187.884 37.7212 188.838 38.0185 189.998 38.0185ZM208.979 23.0909V25.2926H200.216V23.0909H208.979ZM202.77 19.0398H205.368V35.1562C205.368 35.8902 205.475 36.4406 205.688 36.8075C205.908 37.1671 206.187 37.4093 206.524 37.5341C206.869 37.6515 207.232 37.7102 207.614 37.7102C207.9 37.7102 208.135 37.6955 208.319 37.6662C208.502 37.6295 208.649 37.6001 208.759 37.5781L209.287 39.9119C209.111 39.978 208.865 40.044 208.55 40.1101C208.234 40.1835 207.834 40.2202 207.35 40.2202C206.616 40.2202 205.897 40.0624 205.192 39.7468C204.495 39.4312 203.915 38.9505 203.453 38.3047C202.998 37.6589 202.77 36.8442 202.77 35.8608V19.0398ZM215.848 17.4545V40H213.25V17.4545H215.848ZM220.607 40V23.0909H223.205V40H220.607ZM221.928 20.2727C221.421 20.2727 220.985 20.1003 220.618 19.7553C220.258 19.4104 220.078 18.9957 220.078 18.5114C220.078 18.027 220.258 17.6123 220.618 17.2674C220.985 16.9225 221.421 16.75 221.928 16.75C222.434 16.75 222.867 16.9225 223.227 17.2674C223.594 17.6123 223.777 18.027 223.777 18.5114C223.777 18.9957 223.594 19.4104 223.227 19.7553C222.867 20.1003 222.434 20.2727 221.928 20.2727ZM230.561 29.8281V40H227.963V23.0909H230.473V25.733H230.693C231.09 24.8743 231.692 24.1844 232.499 23.6634C233.306 23.1349 234.348 22.8707 235.625 22.8707C236.77 22.8707 237.772 23.1056 238.631 23.5753C239.489 24.0376 240.157 24.7422 240.634 25.6889C241.111 26.6283 241.35 27.8172 241.35 29.2557V40H238.752V29.4318C238.752 28.1035 238.407 27.0687 237.717 26.3274C237.027 25.5788 236.08 25.2045 234.877 25.2045C234.047 25.2045 233.306 25.3844 232.653 25.744C232.007 26.1036 231.497 26.6283 231.123 27.3182C230.748 28.008 230.561 28.8447 230.561 29.8281ZM254.067 16.3977L246.802 43.3906H244.424L251.689 16.3977H254.067ZM264.192 17.4545H266.922V33.571C266.922 35.0095 266.658 36.2314 266.13 37.2369C265.601 38.2423 264.857 39.0056 263.895 39.5266C262.934 40.0477 261.8 40.3082 260.493 40.3082C259.261 40.3082 258.163 40.0844 257.202 39.6367C256.241 39.1817 255.485 38.5359 254.934 37.6992C254.384 36.8626 254.109 35.8681 254.109 34.7159H256.795C256.795 35.3544 256.952 35.9122 257.268 36.3892C257.591 36.8589 258.031 37.2259 258.589 37.4901C259.147 37.7543 259.782 37.8864 260.493 37.8864C261.279 37.8864 261.947 37.7212 262.497 37.391C263.047 37.0607 263.466 36.5763 263.752 35.9379C264.046 35.292 264.192 34.5031 264.192 33.571V17.4545ZM284.723 23.0909C284.591 21.9754 284.055 21.1094 283.116 20.4929C282.177 19.8764 281.024 19.5682 279.659 19.5682C278.661 19.5682 277.788 19.7296 277.039 20.0526C276.298 20.3755 275.718 20.8195 275.3 21.3846C274.889 21.9497 274.683 22.5919 274.683 23.3111C274.683 23.9129 274.827 24.4303 275.113 24.8633C275.406 25.2889 275.781 25.6449 276.236 25.9311C276.691 26.21 277.168 26.4412 277.667 26.6246C278.166 26.8008 278.625 26.9439 279.043 27.054L281.333 27.6705C281.92 27.8246 282.573 28.0374 283.292 28.3089C284.019 28.5805 284.712 28.9511 285.373 29.4208C286.041 29.8832 286.591 30.4776 287.024 31.2042C287.457 31.9308 287.674 32.8224 287.674 33.8793C287.674 35.0975 287.354 36.1984 286.716 37.1818C286.085 38.1652 285.16 38.9469 283.942 39.5266C282.731 40.1064 281.259 40.3963 279.527 40.3963C277.913 40.3963 276.515 40.1358 275.333 39.6147C274.159 39.0936 273.234 38.3671 272.559 37.435C271.891 36.503 271.513 35.4205 271.425 34.1875H274.243C274.317 35.0388 274.603 35.7434 275.102 36.3011C275.608 36.8516 276.247 37.2625 277.017 37.5341C277.795 37.7983 278.632 37.9304 279.527 37.9304C280.569 37.9304 281.505 37.7616 282.334 37.424C283.164 37.0791 283.821 36.602 284.305 35.9929C284.789 35.3764 285.031 34.6572 285.031 33.8352C285.031 33.0866 284.822 32.4775 284.404 32.0078C283.986 31.5381 283.435 31.1565 282.753 30.8629C282.07 30.5694 281.333 30.3125 280.54 30.0923L277.766 29.2997C276.004 28.7933 274.61 28.0704 273.583 27.131C272.555 26.1916 272.041 24.9624 272.041 23.4432C272.041 22.1809 272.383 21.08 273.065 20.1406C273.755 19.1939 274.68 18.46 275.839 17.9389C277.006 17.4105 278.309 17.1463 279.747 17.1463C281.201 17.1463 282.492 17.4068 283.622 17.9279C284.753 18.4416 285.648 19.1462 286.308 20.0415C286.976 20.9369 287.329 21.9534 287.365 23.0909H284.723ZM300.529 46.3409V23.0909H303.039V25.777H303.347C303.538 25.4834 303.802 25.1091 304.14 24.6541C304.484 24.1918 304.976 23.7808 305.615 23.4212C306.26 23.0542 307.134 22.8707 308.235 22.8707C309.658 22.8707 310.913 23.2267 312 23.9386C313.086 24.6504 313.933 25.6596 314.543 26.9659C315.152 28.2723 315.456 29.8134 315.456 31.5895C315.456 33.3802 315.152 34.9324 314.543 36.2461C313.933 37.5524 313.089 38.5652 312.011 39.2844C310.932 39.9963 309.688 40.3523 308.279 40.3523C307.193 40.3523 306.323 40.1725 305.67 39.8129C305.017 39.4459 304.514 39.0312 304.162 38.5689C303.809 38.0992 303.538 37.7102 303.347 37.402H303.127V46.3409H300.529ZM303.083 31.5455C303.083 32.8224 303.27 33.949 303.644 34.9251C304.018 35.8938 304.565 36.6534 305.284 37.2038C306.004 37.7469 306.884 38.0185 307.926 38.0185C309.013 38.0185 309.919 37.7322 310.646 37.1598C311.379 36.58 311.93 35.8021 312.297 34.826C312.671 33.8426 312.858 32.7491 312.858 31.5455C312.858 30.3565 312.675 29.285 312.308 28.331C311.948 27.3696 311.401 26.61 310.668 26.0522C309.941 25.4871 309.027 25.2045 307.926 25.2045C306.87 25.2045 305.982 25.4724 305.262 26.0082C304.543 26.5366 304 27.2778 303.633 28.2319C303.266 29.1786 303.083 30.2831 303.083 31.5455ZM319.419 40V23.0909H321.929V25.6449H322.105C322.414 24.8082 322.971 24.1294 323.779 23.6083C324.586 23.0872 325.496 22.8267 326.509 22.8267C326.7 22.8267 326.938 22.8304 327.224 22.8377C327.511 22.8451 327.727 22.8561 327.874 22.8707V25.5128C327.786 25.4908 327.584 25.4577 327.268 25.4137C326.96 25.3623 326.634 25.3366 326.289 25.3366C325.467 25.3366 324.733 25.5091 324.087 25.854C323.448 26.1916 322.942 26.6613 322.568 27.2631C322.201 27.8576 322.017 28.5365 322.017 29.2997V40H319.419ZM337.308 40.3523C335.782 40.3523 334.442 39.989 333.29 39.2624C332.145 38.5359 331.25 37.5194 330.604 36.2131C329.966 34.9067 329.646 33.3802 329.646 31.6335C329.646 29.8722 329.966 28.3346 330.604 27.021C331.25 25.7073 332.145 24.6871 333.29 23.9606C334.442 23.234 335.782 22.8707 337.308 22.8707C338.835 22.8707 340.17 23.234 341.315 23.9606C342.468 24.6871 343.363 25.7073 344.001 27.021C344.647 28.3346 344.97 29.8722 344.97 31.6335C344.97 33.3802 344.647 34.9067 344.001 36.2131C343.363 37.5194 342.468 38.5359 341.315 39.2624C340.17 39.989 338.835 40.3523 337.308 40.3523ZM337.308 38.0185C338.468 38.0185 339.422 37.7212 340.17 37.1268C340.919 36.5323 341.473 35.7507 341.833 34.782C342.192 33.8132 342.372 32.7637 342.372 31.6335C342.372 30.5033 342.192 29.4502 341.833 28.4741C341.473 27.498 340.919 26.709 340.17 26.1072C339.422 25.5054 338.468 25.2045 337.308 25.2045C336.149 25.2045 335.195 25.5054 334.446 26.1072C333.697 26.709 333.143 27.498 332.784 28.4741C332.424 29.4502 332.244 30.5033 332.244 31.6335C332.244 32.7637 332.424 33.8132 332.784 34.782C333.143 35.7507 333.697 36.5323 334.446 37.1268C335.195 37.7212 336.149 38.0185 337.308 38.0185ZM348.936 23.0909H351.534V41.233C351.534 42.2751 351.354 43.1778 350.995 43.9411C350.642 44.7043 350.107 45.2951 349.387 45.7134C348.675 46.1317 347.776 46.3409 346.69 46.3409C346.602 46.3409 346.514 46.3409 346.426 46.3409C346.338 46.3409 346.25 46.3409 346.162 46.3409V43.919C346.25 43.919 346.331 43.919 346.404 43.919C346.477 43.919 346.558 43.919 346.646 43.919C347.439 43.919 348.019 43.6842 348.386 43.2145C348.752 42.7521 348.936 42.0916 348.936 41.233V23.0909ZM350.213 20.2727C349.707 20.2727 349.27 20.1003 348.903 19.7553C348.543 19.4104 348.364 18.9957 348.364 18.5114C348.364 18.027 348.543 17.6123 348.903 17.2674C349.27 16.9225 349.707 16.75 350.213 16.75C350.719 16.75 351.152 16.9225 351.512 17.2674C351.879 17.6123 352.062 18.027 352.062 18.5114C352.062 18.9957 351.879 19.4104 351.512 19.7553C351.152 20.1003 350.719 20.2727 350.213 20.2727ZM363.382 40.3523C361.753 40.3523 360.347 39.9927 359.166 39.2734C357.991 38.5469 357.085 37.5341 356.447 36.2351C355.815 34.9287 355.5 33.4096 355.5 31.6776C355.5 29.9455 355.815 28.419 356.447 27.098C357.085 25.7696 357.973 24.7348 359.111 23.9936C360.255 23.245 361.591 22.8707 363.118 22.8707C363.998 22.8707 364.868 23.0175 365.727 23.3111C366.585 23.6046 367.367 24.0817 368.072 24.7422C368.776 25.3954 369.337 26.2614 369.756 27.3402C370.174 28.419 370.383 29.7474 370.383 31.3253V32.4261H357.349V30.1804H367.741C367.741 29.2263 367.55 28.375 367.169 27.6264C366.795 26.8778 366.259 26.287 365.562 25.854C364.872 25.421 364.057 25.2045 363.118 25.2045C362.083 25.2045 361.188 25.4614 360.432 25.9751C359.683 26.4815 359.107 27.142 358.703 27.9567C358.3 28.7713 358.098 29.6446 358.098 30.5767V32.0739C358.098 33.3509 358.318 34.4334 358.758 35.3214C359.206 36.2021 359.826 36.8736 360.619 37.3359C361.411 37.791 362.332 38.0185 363.382 38.0185C364.064 38.0185 364.681 37.9231 365.231 37.7322C365.789 37.5341 366.27 37.2405 366.673 36.8516C367.077 36.4553 367.389 35.9635 367.609 35.3764L370.119 36.081C369.855 36.9323 369.411 37.6809 368.787 38.3267C368.163 38.9652 367.393 39.4643 366.475 39.8239C365.558 40.1761 364.527 40.3523 363.382 40.3523ZM381.205 40.3523C379.619 40.3523 378.254 39.978 377.11 39.2294C375.965 38.4808 375.084 37.4497 374.467 36.136C373.851 34.8223 373.543 33.3215 373.543 31.6335C373.543 29.9162 373.858 28.4007 374.489 27.087C375.128 25.766 376.016 24.7348 377.154 23.9936C378.298 23.245 379.634 22.8707 381.161 22.8707C382.35 22.8707 383.421 23.0909 384.375 23.5312C385.329 23.9716 386.111 24.5881 386.72 25.3807C387.329 26.1733 387.707 27.098 387.854 28.1548H385.256C385.058 27.3842 384.617 26.7017 383.935 26.1072C383.26 25.5054 382.35 25.2045 381.205 25.2045C380.192 25.2045 379.304 25.4687 378.541 25.9972C377.785 26.5182 377.194 27.2558 376.768 28.2099C376.35 29.1566 376.141 30.2685 376.141 31.5455C376.141 32.8518 376.346 33.9893 376.757 34.9581C377.176 35.9268 377.763 36.6791 378.519 37.2148C379.282 37.7506 380.177 38.0185 381.205 38.0185C381.88 38.0185 382.493 37.901 383.043 37.6662C383.594 37.4313 384.06 37.0938 384.441 36.6534C384.823 36.2131 385.094 35.6847 385.256 35.0682H387.854C387.707 36.0663 387.344 36.9653 386.764 37.7653C386.192 38.5579 385.432 39.189 384.485 39.6587C383.546 40.1211 382.452 40.3523 381.205 40.3523ZM399.005 23.0909V25.2926H390.243V23.0909H399.005ZM392.797 19.0398H395.395V35.1562C395.395 35.8902 395.501 36.4406 395.714 36.8075C395.934 37.1671 396.213 37.4093 396.551 37.5341C396.895 37.6515 397.259 37.7102 397.64 37.7102C397.927 37.7102 398.161 37.6955 398.345 37.6662C398.528 37.6295 398.675 37.6001 398.785 37.5781L399.314 39.9119C399.138 39.978 398.892 40.044 398.576 40.1101C398.261 40.1835 397.861 40.2202 397.376 40.2202C396.642 40.2202 395.923 40.0624 395.219 39.7468C394.521 39.4312 393.942 38.9505 393.479 38.3047C393.024 37.6589 392.797 36.8442 392.797 35.8608V19.0398ZM425.921 40L424.226 38.3267L431.205 31.3473H413.129V28.9254H431.205L424.226 21.968L425.921 20.2727L435.785 30.1364L425.921 40Z" fill="white"/>
</g>
<defs>
<clipPath id="clip0_2019_2">
<rect width="471" height="64" fill="white"/>
</clipPath>
</defs>
</svg>
