<?xml version="1.0" encoding="utf-8"?>
<!-- Generator: Adobe Illustrator 18.1.1, SVG Export Plug-In . SVG Version: 6.00 Build 0)  -->
<svg version="1.1" id="Layer_1" xmlns="http://www.w3.org/2000/svg" xmlns:xlink="http://www.w3.org/1999/xlink" x="0px" y="0px"
	 viewBox="-334 256.7 172.1 83.6" enable-background="new -334 256.7 172.1 83.6" xml:space="preserve">
<title>kotlinOrg_banner</title>
<rect x="-278.7" y="308.8" opacity="0.3" fill="#414D5A" enable-background="new    " width="108.5" height="25.2"/>
<path fill="#FFF" d="M-278.6,276.2h3.5v6.9l6.4-6.9h4.2l-6.5,6.7l6.7,9.1h-4.2l-4.9-6.7l-1.8,1.9v4.8h-3.5v-15.8H-278.6z"/>
<path fill="#FFF" d="M-265.6,286L-265.6,286c0.1-3.6,3.2-6.4,6.8-6.3c3.4,0.1,6.1,2.8,6.3,6.2l0,0c-0.1,3.6-3.2,6.4-6.8,6.3
	C-262.7,292-265.4,289.4-265.6,286z M-255.9,286L-255.9,286c0.1-1.8-1.3-3.3-3.1-3.4c0,0,0,0-0.1,0c-1.7,0-3.1,1.3-3.1,3
	c0,0.1,0,0.2,0,0.3l0,0c-0.1,1.8,1.3,3.2,3.1,3.3c0,0,0.1,0,0.1,0c1.6,0.1,3-1.2,3.1-2.8C-255.9,286.2-255.9,286.1-255.9,286z"/>
<path fill="#FFF" d="M-251.3,288.5v-5.7h-1.4v-2.9h1.4v-3.1h3.4v3.1h2.9v2.9h-2.8v5.2c0,0.8,0.3,1.2,1.1,1.2
	c0.6,0,1.2-0.2,1.7-0.4v2.7c-0.8,0.5-1.8,0.7-2.7,0.7C-249.9,292.1-251.3,291.3-251.3,288.5z"/>
<path fill="#FFF" d="M-244.1,275.5h3.4v16.4h-3.4V275.5z"/>
<path fill="#FFF" d="M-239.2,275.5h3.6v3h-3.6V275.5z M-239.1,279.9h3.4V292h-3.4V279.9z"/>
<path fill="#FFF" d="M-234.3,279.9h3.4v1.7c0.8-1.2,2.1-1.9,3.5-1.9c2.6,0,4.1,1.7,4.1,4.5v7.8h-3.4v-6.7c0-1.6-0.8-2.5-2.1-2.5
	s-2.1,0.8-2.1,2.5v6.7h-3.4V279.9z"/>
<path fill="#FFF" d="M-222.4,284.1L-222.4,284.1c0.2-4.7,4.1-8.4,8.8-8.2c2.1,0.1,4.1,0.9,5.6,2.4l-2.2,2.5
	c-1.1-1.1-2.5-1.7-4-1.8c-2.6,0-4.6,2.1-4.6,4.7c0,0.1,0,0.1,0,0.2l0,0c-0.1,2.6,1.9,4.9,4.5,5c0,0,0.1,0,0.1,0c1.6,0,3-0.7,4.1-1.8
	l2.2,2.2c-1.6,1.9-4,2.9-6.5,2.8c-4.3,0.1-7.9-3.3-8-7.6C-222.4,284.4-222.4,284.2-222.4,284.1z"/>
<path fill="#FFF" d="M-208.1,286L-208.1,286c0.1-3.6,3.2-6.4,6.8-6.3c3.4,0.1,6.1,2.8,6.3,6.2l0,0c-0.1,3.6-3.2,6.4-6.8,6.3
	C-205.2,292-207.9,289.4-208.1,286z M-198.4,286L-198.4,286c0.1-1.8-1.3-3.3-3.1-3.4c0,0,0,0-0.1,0c-1.7,0-3.1,1.3-3.1,3
	c0,0.1,0,0.2,0,0.3l0,0c-0.1,1.8,1.3,3.2,3.1,3.3c0,0,0.1,0,0.1,0c1.6,0.1,3-1.2,3.1-2.8C-198.4,286.2-198.4,286.1-198.4,286
	L-198.4,286z"/>
<path fill="#FFF" d="M-194.4,279.9h3.4v1.7c0.8-1.2,2.1-1.9,3.5-1.9c2.6,0,4.1,1.7,4.1,4.5v7.8h-3.4v-6.7c0-1.6-0.8-2.5-2.1-2.5
	s-2.1,0.8-2.1,2.5v6.7h-3.4V279.9z"/>
<path fill="#FFF" d="M-181.5,282.8h-1.5V280h1.4v-0.8c-0.1-1.1,0.3-2.1,1-2.9c0.8-0.7,1.8-1,2.8-0.9c0.8,0,1.6,0.1,2.4,0.3v2.8
	c-0.5-0.2-1.1-0.3-1.6-0.3c-0.8,0-1.2,0.4-1.2,1.3v0.5h2.8v2.8h-2.7v9.1h-3.4V282.8z"/>
<g>
	<polygon fill="#4BB8F6" points="-323.4,261.5 -323.4,276.1 -316.1,268.8 	"/>
	<polygon fill="#FF7616" points="-323.9,268.5 -323.9,261.5 -330.9,268.5 	"/>
	<polygon fill="#4BB8F6" points="-316,292.3 -316,285.3 -323,292.3 	"/>
	<polygon fill="#4BB8F6" points="-315.7,284.3 -292.6,261.2 -300.2,261.2 -307.6,261.2 -323.3,276.8 	"/>
	<polygon fill="#4BB8F6" points="-315.5,292.3 -308.5,292.3 -315.5,285.3 	"/>
	<polygon fill="#4BB8F6" points="-307.8,277.1 -315.3,284.7 -307.6,292.3 -292.6,292.3 	"/>
	<polygon fill="#4BB8F6" points="-323.4,292 -316.1,284.7 -323.4,277.4 	"/>
</g>
<rect x="-281.5" y="306.4" fill="#FF7615" width="108.5" height="25.2"/>
<g>
	<path fill="#FFFFFF" d="M-265.5,313.5h4.5c1.1,0,2.1,0.3,2.9,1c0.5,0.6,0.8,1.4,0.8,2.2l0,0c0.1,1.4-0.8,2.6-2.1,3l2.4,3.5h-2.5
		l-2.1-3.1h-1.7v3.1h-2.2V313.5z M-261.1,318.3c1.1,0,1.7-0.6,1.7-1.4l0,0c0-0.9-0.6-1.4-1.7-1.4h-2.1v2.8H-261.1z"/>
	<path fill="#FFFFFF" d="M-255.3,313.5h7.4v1.9h-5.3v2h4.6v1.9h-4.6v2.1h5.3v1.9h-7.5L-255.3,313.5L-255.3,313.5z"/>
	<path fill="#FFFFFF" d="M-246.4,318.5L-246.4,318.5c0-2.8,2.2-5.1,5-5.1c0,0,0.1,0,0.1,0c1.4,0,2.8,0.4,3.9,1.3l-1.4,1.6
		c-0.7-0.7-1.6-1-2.6-1c-1.6,0.1-2.9,1.4-2.8,3.1c0,0,0,0,0,0l0,0c-0.1,1.6,1.1,3,2.7,3.1c0.1,0,0.2,0,0.3,0c0.7,0,1.4-0.2,2-0.6
		v-1.4h-2.2v-1.8h4.3v4.3c-1.1,1-2.6,1.6-4.2,1.6c-2.8,0.1-5-2.1-5.1-4.9C-246.4,318.6-246.4,318.5-246.4,318.5z"/>
	<path fill="#FFFFFF" d="M-234.9,313.5h2.2v9.8h-2.2V313.5z"/>
	<path fill="#FFFFFF" d="M-231,321.9l1.3-1.5c0.8,0.7,1.8,1.1,2.9,1.2c0.9,0,1.4-0.4,1.4-0.9l0,0c0-0.5-0.3-0.8-2-1.2
		c-2-0.5-3.3-1.1-3.3-3l0,0c0-1.8,1.4-3,3.4-3c1.3,0,2.6,0.4,3.6,1.2l-1.1,1.6c-0.7-0.6-1.6-0.9-2.5-1c-0.8,0-1.3,0.4-1.3,0.9l0,0
		c0,0.6,0.4,0.9,2.1,1.3c2,0.5,3.1,1.2,3.1,2.9l0,0c0,1.9-1.5,3-3.6,3C-228.5,323.4-229.9,322.9-231,321.9z"/>
	<path fill="#FFFFFF" d="M-219.3,315.5h-3v-2h8.1v2h-3v7.8h-2.2L-219.3,315.5L-219.3,315.5z"/>
	<path fill="#FFFFFF" d="M-212.5,313.5h7.4v1.9h-5.3v2h4.6v1.9h-4.6v2.1h5.3v1.9h-7.5v-9.8H-212.5z"/>
	<path fill="#FFFFFF" d="M-203.1,313.5h4.5c1.1,0,2.1,0.3,2.9,1c0.5,0.6,0.8,1.4,0.8,2.2l0,0c0.1,1.4-0.8,2.6-2.1,3l2.4,3.5h-2.5
		l-2.1-3.1h-1.7v3.1h-2.2L-203.1,313.5L-203.1,313.5z M-198.7,318.3c1.1,0,1.7-0.6,1.7-1.4l0,0c0-0.9-0.6-1.4-1.7-1.4h-2.1v2.8
		H-198.7z"/>
	<path fill="#FFFFFF" d="M-189,320.4l3.5-1.9l-3.5-1.9v-2l5.1,3v1.9l-5.1,3V320.4z"/>
</g>
</svg>
