<svg id="Layer_1" data-name="Layer 1" xmlns="http://www.w3.org/2000/svg" viewBox="0 0 172.1 83.6">
    <defs>
        <style>
            .cls-1{fill:#414d5a;opacity:0.3;isolation:isolate;}.cls-2{fill:#fff;}.cls-3{fill:#4bb8f6;}.cls-4{fill:#ff7616;}.cls-5{fill:#ff7615;}
        </style>
    </defs>
    <title>kotlinOrg_banner</title>
    <rect class="cls-1" x="55.3" y="52.1" width="108.5" height="25.2"/>
    <path class="cls-2" d="M55.4,19.5h3.5v6.9l6.4-6.9h4.2L63,26.2l6.7,9.1H65.5l-4.9-6.7-1.8,1.9v4.8H55.3V19.5Z"/>
    <path class="cls-2"
          d="M68.4,29.3h0a6.56,6.56,0,0,1,13.1-.1h0a6.56,6.56,0,0,1-13.1.1Zm9.7,0h0A3.27,3.27,0,0,0,75,25.9H74.9a3,3,0,0,0-3.1,3.3h0a3.18,3.18,0,0,0,3.06,3.3H75a3,3,0,0,0,3.1-3.2Z"/>
    <path class="cls-2"
          d="M82.7,31.8V26.1H81.3V23.2h1.4V20.1h3.4v3.1H89v2.9H86.2v5.2c0,.8.3,1.2,1.1,1.2a4.71,4.71,0,0,0,1.7-.4v2.7a5.38,5.38,0,0,1-2.7.7C84.1,35.4,82.7,34.6,82.7,31.8Z"/>
    <path class="cls-2" d="M89.9,18.8h3.4V35.2H89.9Z"/>
    <path class="cls-2" d="M94.8,18.8h3.6v3H94.8Zm.1,4.4h3.4V35.3H94.9Z"/>
    <path class="cls-2"
          d="M99.7,23.2h3.4v1.7a4.27,4.27,0,0,1,3.5-1.9c2.6,0,4.1,1.7,4.1,4.5v7.8h-3.4V28.6c0-1.6-.8-2.5-2.1-2.5s-2.1.8-2.1,2.5v6.7H99.7Z"/>
    <path class="cls-2"
          d="M116.6,27.4h0A8.49,8.49,0,0,1,131,21.6l-2.2,2.5a5.9,5.9,0,0,0-4-1.8A4.66,4.66,0,0,0,120.19,27q0,.09,0,.19h0a4.75,4.75,0,0,0,4.49,5h.11a5.59,5.59,0,0,0,4.1-1.8l2.2,2.2a8.11,8.11,0,0,1-6.5,2.8,7.78,7.78,0,0,1-8-7.55Q116.59,27.62,116.6,27.4Z"/>
    <path class="cls-2"
          d="M130.9,29.3h0a6.56,6.56,0,0,1,13.1-.1h0a6.56,6.56,0,0,1-13.1.1Zm9.7,0h0a3.27,3.27,0,0,0-3.13-3.4h-.07a3,3,0,0,0-3.1,3.3h0a3.18,3.18,0,0,0,3.06,3.3h.14a3,3,0,0,0,3.1-3.2Z"/>
    <path class="cls-2"
          d="M144.6,23.2H148v1.7a4.27,4.27,0,0,1,3.5-1.9c2.6,0,4.1,1.7,4.1,4.5v7.8h-3.4V28.6c0-1.6-.8-2.5-2.1-2.5s-2.1.8-2.1,2.5v6.7h-3.4Z"/>
    <path class="cls-2"
          d="M157.5,26.1H156V23.3h1.4v-.8a3.66,3.66,0,0,1,1-2.9,3.93,3.93,0,0,1,2.8-.9,7.38,7.38,0,0,1,2.4.3v2.8a4.15,4.15,0,0,0-1.6-.3c-.8,0-1.2.4-1.2,1.3v.5h2.8v2.8h-2.7v9.1h-3.4Z"/>
    <polygon class="cls-3" points="10.6 4.8 10.6 19.4 17.9 12.1 10.6 4.8"/>
    <polygon class="cls-4" points="10.1 11.8 10.1 4.8 3.1 11.8 10.1 11.8"/>
    <polygon class="cls-3" points="18 35.6 18 28.6 11 35.6 18 35.6"/>
    <polygon class="cls-3" points="18.3 27.6 41.4 4.5 33.8 4.5 26.4 4.5 10.7 20.1 18.3 27.6"/>
    <polygon class="cls-3" points="18.5 35.6 25.5 35.6 18.5 28.6 18.5 35.6"/>
    <polygon class="cls-3" points="26.2 20.4 18.7 28 26.4 35.6 41.4 35.6 26.2 20.4"/>
    <polygon class="cls-3" points="10.6 35.3 17.9 28 10.6 20.7 10.6 35.3"/>
    <rect class="cls-5" x="52.5" y="49.7" width="108.5" height="25.2"/>
    <path class="cls-2"
          d="M68.5,56.8H73a4.41,4.41,0,0,1,2.9,1,3.11,3.11,0,0,1,.8,2.2h0a3,3,0,0,1-2.1,3L77,66.5H74.5l-2.1-3.1H70.7v3.1H68.5Zm4.4,4.8c1.1,0,1.7-.6,1.7-1.4h0c0-.9-.6-1.4-1.7-1.4H70.8v2.8Z"/>
    <path class="cls-2" d="M78.7,56.8h7.4v1.9H80.8v2h4.6v1.9H80.8v2.1h5.3v1.9H78.6V56.8Z"/>
    <path class="cls-2"
          d="M87.6,61.8h0a5.06,5.06,0,0,1,5-5.1h.08A5.9,5.9,0,0,1,96.6,58l-1.4,1.6a3.8,3.8,0,0,0-2.6-1,2.93,2.93,0,0,0-2.8,3.06v0h0a2.91,2.91,0,0,0,2.72,3.1h.28a3.17,3.17,0,0,0,2-.6V62.8H92.6V61h4.3v4.3a6.16,6.16,0,0,1-4.2,1.6A5,5,0,0,1,87.6,62Q87.6,61.9,87.6,61.8Z"/>
    <path class="cls-2" d="M99.1,56.8h2.2v9.8H99.1Z"/>
    <path class="cls-2"
          d="M103,65.2l1.3-1.5a4.67,4.67,0,0,0,2.9,1.2c.9,0,1.4-.4,1.4-.9h0c0-.5-.3-.8-2-1.2-2-.5-3.3-1.1-3.3-3h0c0-1.8,1.4-3,3.4-3a5.58,5.58,0,0,1,3.6,1.2l-1.1,1.6a4.71,4.71,0,0,0-2.5-1c-.8,0-1.3.4-1.3.9h0c0,.6.4.9,2.1,1.3,2,.5,3.1,1.2,3.1,2.9h0c0,1.9-1.5,3-3.6,3A5.45,5.45,0,0,1,103,65.2Z"/>
    <path class="cls-2" d="M114.7,58.8h-3v-2h8.1v2h-3v7.8h-2.2V58.8Z"/>
    <path class="cls-2" d="M121.5,56.8h7.4v1.9h-5.3v2h4.6v1.9h-4.6v2.1h5.3v1.9h-7.5V56.8Z"/>
    <path class="cls-2"
          d="M130.9,56.8h4.5a4.41,4.41,0,0,1,2.9,1,3.11,3.11,0,0,1,.8,2.2h0a3,3,0,0,1-2.1,3l2.4,3.5h-2.5l-2.1-3.1h-1.7v3.1h-2.2V56.8Zm4.4,4.8c1.1,0,1.7-.6,1.7-1.4h0c0-.9-.6-1.4-1.7-1.4h-2.1v2.8Z"/>
    <path class="cls-2" d="M145,63.7l3.5-1.9L145,59.9v-2l5.1,3v1.9l-5.1,3Z"/>
</svg>