<svg width="72" height="72" viewBox="0 0 72 72" fill="none" xmlns="http://www.w3.org/2000/svg">
    <path d="M46 20.0556C49.6491 20.0556 52.6072 17.133 52.6072 13.5278C52.6072 9.92259 49.6491 7 46 7C42.351 7 39.3929 9.92259 39.3929 13.5278C39.3929 17.133 42.351 20.0556 46 20.0556Z" fill="#585DEF"/>
    <path d="M32 35.75C32 30.2272 36.4772 25.75 42 25.75H50C55.5228 25.75 60 30.2272 60 35.75V55.75H32V35.75Z" fill="#585DEF"/>
    <path d="M25 30.0556C28.6491 30.0556 31.6072 27.133 31.6072 23.5278C31.6072 19.9226 28.6491 17 25 17C21.351 17 18.3929 19.9226 18.3929 23.5278C18.3929 27.133 21.351 30.0556 25 30.0556Z" fill="#F8873C"/>
    <path d="M11 45.75C11 40.2272 15.4772 35.75 21 35.75H29C34.5228 35.75 39 40.2272 39 45.75V65.75H11V45.75Z" fill="#F8873C"/>
</svg>
