<?xml version="1.0"?><svg width="24" height="24" viewBox="0 0 24 24" fill="none" xmlns="http://www.w3.org/2000/svg"><path d="M6.90178 5.0702C8.96531 6.62467 11.1852 9.77608 12 11.4672V15.934C12 15.839 11.9634 15.9464 11.8847 16.1779C11.4594 17.4311 9.79837 22.3224 6.00009 18.4121C4.00012 16.3534 4.926 14.2946 8.5665 13.6731C6.48384 14.0286 4.14244 13.441 3.50006 11.1376C3.315 10.475 3 6.39348 3 5.84223C3 3.08092 5.41284 3.94886 6.90178 5.0702ZM17.0982 5.0702C15.0347 6.62467 12.8148 9.77608 12 11.4672V15.934C12 15.839 12.0366 15.9464 12.1153 16.1779C12.5406 17.4311 14.2016 22.3224 17.9999 18.4121C19.9999 16.3534 19.074 14.2946 15.4335 13.6731C17.5162 14.0286 19.8576 13.441 20.4999 11.1376C20.685 10.475 21 6.39348 21 5.84223C21 3.08092 18.5874 3.94886 17.0982 5.0702Z" fill="#27282C"/></svg>