<svg width="24" height="24" viewBox="0 0 24 24" fill="none" xmlns="http://www.w3.org/2000/svg">
<path fill-rule="evenodd" clip-rule="evenodd" d="M20.8996 12.1999C20.9123 16.1695 18.3057 19.6721 14.4996 20.7999C14.3929 20.8022 14.2898 20.7607 14.2143 20.6852C14.1388 20.6097 14.0974 20.5067 14.0996 20.3999V17.3999C14.1128 16.9467 13.9307 16.5097 13.5996 16.1999C15.6014 16.2967 17.3226 14.7961 17.4996 12.7999C17.7361 11.5574 17.4061 10.2742 16.5996 9.29988C16.8901 8.50953 16.8169 7.63126 16.3996 6.89988C15.5525 7.05474 14.7397 7.35952 13.9996 7.79988C12.5602 7.39988 11.039 7.39988 9.59964 7.79988C8.92887 7.29669 8.13378 6.98556 7.29964 6.89988H7.19964C6.76751 7.62658 6.69375 8.51169 6.99964 9.29988C6.17039 10.2624 5.83758 11.5567 6.09964 12.7999C6.31312 14.7773 8.01154 16.258 9.99964 16.1999C9.80162 16.3483 9.66044 16.56 9.59964 16.7999C9.53505 17.0277 9.50141 17.2631 9.49964 17.4999C8.73474 17.8197 7.85116 17.6189 7.29964 16.9999C6.79964 16.1999 6.39964 15.7999 5.89964 15.6999C5.39964 15.5999 5.29964 15.8999 5.29964 15.8999C5.37851 16.1592 5.55884 16.3755 5.79964 16.4999C6.1868 16.7158 6.47398 17.0748 6.59964 17.4999C6.77826 18.0727 7.22682 18.5213 7.79964 18.6999C8.42337 18.8559 9.07591 18.8559 9.69964 18.6999V20.3999C9.7069 20.5007 9.6624 20.5984 9.58151 20.659C9.50061 20.7197 9.39443 20.7351 9.29964 20.6999C5.54487 19.5802 2.97872 16.118 2.99964 12.1999C3.02718 7.27647 7.02615 3.2998 11.9496 3.2998C16.8731 3.2998 20.8721 7.27647 20.8996 12.1999Z" fill="#27282C"/>
</svg>
