<svg width="24" height="24" viewBox="0 0 24 24" fill="none" xmlns="http://www.w3.org/2000/svg">
<path d="M22 11.0681C22 9.84956 21.0146 8.88174 19.8136 8.88174C19.2463 8.88096 18.7006 9.09928 18.2904 9.49113C16.7851 8.41574 14.724 7.71697 12.4302 7.62736L13.4336 2.932L16.6952 3.63077C16.7313 4.4552 17.4121 5.11838 18.2546 5.11838C19.1147 5.11838 19.8136 4.41961 19.8136 3.55901C19.8136 2.69888 19.1149 2 18.2546 2C17.6453 2 17.1075 2.35843 16.8566 2.87822L13.2188 2.10757C13.1112 2.08949 13.0036 2.10757 12.9319 2.16136C12.8423 2.21515 12.7886 2.30464 12.7709 2.41221L11.6594 7.6451C9.32977 7.71697 7.23288 8.41574 5.70969 9.5091C5.29943 9.11726 4.7537 8.89899 4.18638 8.89983C2.9677 8.89983 2 9.88526 2 11.0862C2 11.9821 2.53752 12.7347 3.29043 13.0755C3.25387 13.2946 3.23587 13.5164 3.23664 13.7386C3.23664 17.1075 7.16148 19.8497 12.0001 19.8497C16.8389 19.8497 20.7637 17.1255 20.7637 13.7386C20.7636 13.5165 20.7456 13.2947 20.7099 13.0755C21.4625 12.7347 22 11.9641 22 11.0681V11.0681ZM6.98203 12.6271C6.98203 11.767 7.6808 11.0681 8.5414 11.0681C9.40153 11.0681 10.1004 11.7669 10.1004 12.6271C10.1004 13.4874 9.40165 14.1865 8.5414 14.1865C7.68092 14.2041 6.98203 13.4874 6.98203 12.6271ZM15.7098 16.767C14.6345 17.8424 12.5914 17.9142 12.0001 17.9142C11.3908 17.9142 9.34786 17.8243 8.29019 16.767C8.12918 16.6058 8.12918 16.3548 8.29019 16.1935C8.45156 16.0325 8.70241 16.0325 8.86377 16.1935C9.54492 16.8747 10.9786 17.1075 12.0001 17.1075C13.0217 17.1075 14.4732 16.8746 15.1362 16.1935C15.2976 16.0325 15.5484 16.0325 15.7098 16.1935C15.8531 16.3548 15.8531 16.6058 15.7098 16.767ZM15.4229 14.2042C14.5627 14.2042 13.8639 13.5055 13.8639 12.6452C13.8639 11.785 14.5627 11.0862 15.4229 11.0862C16.2834 11.0862 16.9822 11.785 16.9822 12.6452C16.9822 13.4873 16.2834 14.2042 15.4229 14.2042Z" fill="#27282C"/>
</svg>
