<svg width="24" height="24" viewBox="0 0 24 24" fill="none" xmlns="http://www.w3.org/2000/svg">
<path d="M8.29 20.2501C11.3985 20.2823 14.3897 19.0645 16.5916 16.8701C18.7935 14.6757 20.0216 11.6887 20 8.58007C20 8.40007 20 8.22007 20 8.05007C20.7874 7.46392 21.4645 6.74275 22 5.92007C21.2495 6.25136 20.4543 6.47037 19.64 6.57007C20.4964 6.05532 21.1389 5.24955 21.45 4.30007C20.6437 4.78049 19.7609 5.11875 18.84 5.30007C17.5673 3.94212 15.5409 3.60888 13.9004 4.48775C12.2598 5.36661 11.4146 7.23821 11.84 9.05007C8.54275 8.87333 5.4737 7.31157 3.39 4.75007C2.30118 6.62571 2.85713 9.02458 4.66 10.2301C4.0072 10.2089 3.36915 10.0305 2.8 9.71007V9.71007C2.81295 11.6536 4.18551 13.3223 6.09 13.7101C5.48658 13.8731 4.85402 13.897 4.24 13.7801C4.7801 15.4483 6.31693 16.5919 8.07 16.6301C6.63388 17.7941 4.84842 18.4421 3 18.4701C2.66574 18.4712 2.33174 18.4511 2 18.4101C3.87834 19.6106 6.06078 20.249 8.29 20.2501" fill="#27282C"/>
</svg>
