<svg width="634" height="47" viewBox="0 0 634 47" fill="none" xmlns="http://www.w3.org/2000/svg">
<path d="M37.1539 0.35H533.857C546.451 0.35 556.661 10.5596 556.661 23.1538C556.661 35.7481 546.451 45.9577 533.857 45.9577H37.1538C24.5596 45.9577 14.35 35.7481 14.35 23.1538C14.35 10.5596 24.5596 0.35 37.1539 0.35Z" fill="black" stroke="#595959" stroke-width="0.7"/>
<path d="M46.6866 35.384C44.6386 35.384 42.7773 34.8827 41.1026 33.88C39.4386 32.8667 38.1319 31.48 37.1826 29.72C36.2332 27.9493 35.7586 25.976 35.7586 23.8C35.7586 21.624 36.2332 19.656 37.1826 17.896C38.1319 16.1253 39.4386 14.7387 41.1026 13.736C42.7773 12.7227 44.6386 12.216 46.6866 12.216C48.3719 12.216 49.9453 12.5787 51.4066 13.304C52.8786 14.0293 54.0893 14.9947 55.0386 16.2C55.9879 17.4053 56.5639 18.7013 56.7666 20.088H54.1106C53.8973 19.1387 53.4333 18.248 52.7186 17.416C52.0039 16.5733 51.1186 15.9013 50.0626 15.4C49.0066 14.8987 47.8813 14.648 46.6866 14.648C45.1293 14.648 43.7266 15.0427 42.4786 15.832C41.2413 16.6107 40.2706 17.6987 39.5666 19.096C38.8626 20.4827 38.5106 22.0507 38.5106 23.8C38.5106 25.5493 38.8626 27.1227 39.5666 28.52C40.2706 29.9067 41.2413 30.9947 42.4786 31.784C43.7266 32.5627 45.1293 32.952 46.6866 32.952C47.8813 32.952 49.0066 32.7013 50.0626 32.2C51.1186 31.6987 52.0039 31.032 52.7186 30.2C53.4333 29.3573 53.8973 28.4613 54.1106 27.512H56.7666C56.5639 28.8987 55.9879 30.1947 55.0386 31.4C54.0893 32.6053 52.8786 33.5707 51.4066 34.296C49.9453 35.0213 48.3719 35.384 46.6866 35.384ZM68.9306 18.232C70.1573 18.232 71.2293 18.4987 72.1466 19.032C73.0639 19.5547 73.7679 20.3013 74.2586 21.272C74.7599 22.2427 75.0106 23.3733 75.0106 24.664V35H72.4506V24.776C72.4506 23.4 72.0986 22.328 71.3946 21.56C70.7013 20.792 69.7253 20.408 68.4666 20.408C67.5173 20.408 66.6906 20.6267 65.9866 21.064C65.2826 21.4907 64.7386 22.104 64.3546 22.904C63.9706 23.6933 63.7786 24.6267 63.7786 25.704V35H61.2186V12.6H63.7786V17.864L63.6826 21.112C64.1946 20.1733 64.8933 19.4587 65.7786 18.968C66.6746 18.4773 67.7253 18.232 68.9306 18.232ZM87.0208 35.384C85.4635 35.384 84.0608 35.016 82.8128 34.28C81.5648 33.5333 80.5835 32.5093 79.8688 31.208C79.1542 29.9067 78.7968 28.44 78.7968 26.808C78.7968 25.176 79.1542 23.7093 79.8688 22.408C80.5835 21.1067 81.5702 20.088 82.8288 19.352C84.0875 18.6053 85.4955 18.232 87.0528 18.232C88.6102 18.232 90.0182 18.6053 91.2768 19.352C92.5355 20.088 93.5222 21.1067 94.2368 22.408C94.9515 23.7093 95.3088 25.176 95.3088 26.808C95.3088 28.44 94.9462 29.9067 94.2208 31.208C93.5062 32.5093 92.5195 33.5333 91.2608 34.28C90.0022 35.016 88.5888 35.384 87.0208 35.384ZM87.0528 33.016C88.1195 33.016 89.0742 32.76 89.9168 32.248C90.7595 31.7253 91.4208 30.9947 91.9008 30.056C92.3808 29.1173 92.6208 28.0347 92.6208 26.808C92.6208 25.5813 92.3808 24.4987 91.9008 23.56C91.4208 22.6107 90.7595 21.88 89.9168 21.368C89.0742 20.8453 88.1195 20.584 87.0528 20.584C85.9862 20.584 85.0315 20.8453 84.1888 21.368C83.3462 21.88 82.6848 22.6107 82.2048 23.56C81.7248 24.4987 81.4848 25.5813 81.4848 26.808C81.4848 28.0347 81.7248 29.1173 82.2048 30.056C82.6848 30.9947 83.3462 31.7253 84.1888 32.248C85.0315 32.76 85.9862 33.016 87.0528 33.016ZM106.396 35.384C104.839 35.384 103.436 35.016 102.188 34.28C100.94 33.5333 99.9585 32.5093 99.2438 31.208C98.5292 29.9067 98.1718 28.44 98.1718 26.808C98.1718 25.176 98.5292 23.7093 99.2438 22.408C99.9585 21.1067 100.945 20.088 102.204 19.352C103.463 18.6053 104.871 18.232 106.428 18.232C107.985 18.232 109.393 18.6053 110.652 19.352C111.911 20.088 112.897 21.1067 113.612 22.408C114.327 23.7093 114.684 25.176 114.684 26.808C114.684 28.44 114.321 29.9067 113.596 31.208C112.881 32.5093 111.895 33.5333 110.636 34.28C109.377 35.016 107.964 35.384 106.396 35.384ZM106.428 33.016C107.495 33.016 108.449 32.76 109.292 32.248C110.135 31.7253 110.796 30.9947 111.276 30.056C111.756 29.1173 111.996 28.0347 111.996 26.808C111.996 25.5813 111.756 24.4987 111.276 23.56C110.796 22.6107 110.135 21.88 109.292 21.368C108.449 20.8453 107.495 20.584 106.428 20.584C105.361 20.584 104.407 20.8453 103.564 21.368C102.721 21.88 102.06 22.6107 101.58 23.56C101.1 24.4987 100.86 25.5813 100.86 26.808C100.86 28.0347 101.1 29.1173 101.58 30.056C102.06 30.9947 102.721 31.7253 103.564 32.248C104.407 32.76 105.361 33.016 106.428 33.016ZM124.299 35.384C122.966 35.384 121.787 35.176 120.763 34.76C119.75 34.3333 118.96 33.7467 118.395 33C117.84 32.2533 117.557 31.4053 117.547 30.456H120.107C120.128 31.0107 120.315 31.5013 120.667 31.928C121.019 32.3547 121.499 32.6907 122.107 32.936C122.726 33.1707 123.43 33.288 124.219 33.288C125.435 33.288 126.379 33.032 127.051 32.52C127.723 32.008 128.059 31.3093 128.059 30.424C128.059 29.7413 127.851 29.1867 127.435 28.76C127.03 28.3227 126.427 28.04 125.627 27.912L122.651 27.448C121.222 27.224 120.107 26.7067 119.307 25.896C118.507 25.0747 118.107 24.056 118.107 22.84C118.107 21.944 118.357 21.1493 118.859 20.456C119.371 19.752 120.075 19.208 120.971 18.824C121.878 18.4293 122.902 18.232 124.043 18.232C125.216 18.232 126.267 18.4293 127.195 18.824C128.134 19.2187 128.87 19.768 129.403 20.472C129.947 21.1653 130.23 21.9547 130.251 22.84H127.691C127.68 22.3707 127.51 21.944 127.179 21.56C126.859 21.176 126.422 20.8773 125.867 20.664C125.312 20.44 124.694 20.328 124.011 20.328C123.35 20.328 122.752 20.4347 122.219 20.648C121.696 20.8507 121.286 21.1387 120.987 21.512C120.699 21.8747 120.555 22.296 120.555 22.776C120.555 23.416 120.747 23.9333 121.131 24.328C121.515 24.712 122.08 24.9627 122.827 25.08L125.899 25.576C127.392 25.8107 128.534 26.344 129.323 27.176C130.123 28.008 130.523 29.0693 130.523 30.36C130.523 31.3627 130.267 32.2427 129.755 33C129.243 33.7573 128.518 34.344 127.579 34.76C126.64 35.176 125.547 35.384 124.299 35.384ZM149.164 27.432H136.172C136.268 28.552 136.561 29.544 137.052 30.408C137.542 31.272 138.188 31.944 138.988 32.424C139.788 32.904 140.694 33.144 141.708 33.144C142.39 33.144 143.046 33.0373 143.676 32.824C144.305 32.6107 144.854 32.312 145.324 31.928C145.793 31.544 146.129 31.1067 146.332 30.616H148.796C148.614 31.512 148.172 32.3227 147.468 33.048C146.774 33.7733 145.905 34.344 144.86 34.76C143.825 35.176 142.721 35.384 141.548 35.384C140.001 35.384 138.614 35.016 137.388 34.28C136.172 33.544 135.222 32.5253 134.54 31.224C133.857 29.912 133.516 28.4293 133.516 26.776C133.516 25.1653 133.862 23.7093 134.556 22.408C135.249 21.1067 136.204 20.088 137.42 19.352C138.646 18.6053 140.022 18.232 141.548 18.232C142.998 18.232 144.3 18.6053 145.452 19.352C146.614 20.088 147.521 21.112 148.172 22.424C148.833 23.7253 149.164 25.1867 149.164 26.808V27.432ZM141.58 20.488C140.14 20.488 138.945 20.92 137.996 21.784C137.046 22.648 136.46 23.8267 136.236 25.32H146.492C146.268 23.8373 145.718 22.664 144.844 21.8C143.98 20.9253 142.892 20.488 141.58 20.488ZM163.341 35H160.781V18.616H163.341V35ZM160.605 15.64V12.6H163.517V15.64H160.605ZM178.956 35.384C176.886 35.384 175.009 34.8827 173.324 33.88C171.638 32.8667 170.31 31.48 169.34 29.72C168.369 27.9493 167.884 25.976 167.884 23.8C167.884 21.624 168.369 19.656 169.34 17.896C170.31 16.1253 171.638 14.7387 173.324 13.736C175.009 12.7227 176.886 12.216 178.956 12.216C181.014 12.216 182.886 12.7227 184.572 13.736C186.268 14.7387 187.601 16.1253 188.572 17.896C189.542 19.656 190.028 21.624 190.028 23.8C190.028 25.976 189.542 27.9493 188.572 29.72C187.601 31.48 186.268 32.8667 184.572 33.88C182.886 34.8827 181.014 35.384 178.956 35.384ZM178.956 32.952C180.524 32.952 181.942 32.5627 183.212 31.784C184.481 30.9947 185.473 29.9067 186.188 28.52C186.913 27.1227 187.276 25.5493 187.276 23.8C187.276 22.04 186.918 20.4667 186.204 19.08C185.5 17.6827 184.513 16.5947 183.244 15.816C181.985 15.0373 180.556 14.648 178.956 14.648C177.377 14.648 175.953 15.0427 174.684 15.832C173.425 16.6107 172.433 17.6933 171.708 19.08C170.993 20.4667 170.636 22.04 170.636 23.8C170.636 25.56 170.993 27.1333 171.708 28.52C172.433 29.9067 173.425 30.9947 174.684 31.784C175.953 32.5627 177.377 32.952 178.956 32.952ZM201.442 35.384C199.906 35.384 198.541 35.1013 197.346 34.536C196.162 33.9707 195.24 33.1813 194.578 32.168C193.917 31.1547 193.586 29.992 193.586 28.68H196.306C196.306 29.5227 196.525 30.2693 196.962 30.92C197.4 31.5707 198.008 32.0773 198.786 32.44C199.576 32.8027 200.472 32.984 201.474 32.984C202.466 32.984 203.346 32.8133 204.114 32.472C204.893 32.1307 205.496 31.6507 205.922 31.032C206.349 30.4133 206.562 29.704 206.562 28.904C206.562 27.9653 206.269 27.16 205.682 26.488C205.096 25.8053 204.285 25.3627 203.25 25.16L199.314 24.392C198.258 24.1893 197.341 23.8053 196.562 23.24C195.794 22.664 195.202 21.9547 194.786 21.112C194.37 20.2693 194.162 19.352 194.162 18.36C194.162 17.1653 194.472 16.104 195.09 15.176C195.709 14.248 196.568 13.5227 197.666 13C198.765 12.4773 200.013 12.216 201.41 12.216C202.829 12.216 204.093 12.4827 205.202 13.016C206.322 13.5387 207.192 14.2693 207.81 15.208C208.44 16.1467 208.754 17.2187 208.754 18.424H206.034C206.034 17.688 205.837 17.032 205.442 16.456C205.058 15.88 204.514 15.432 203.81 15.112C203.117 14.7813 202.328 14.616 201.442 14.616C200.557 14.616 199.762 14.776 199.058 15.096C198.365 15.416 197.821 15.864 197.426 16.44C197.042 17.016 196.85 17.6773 196.85 18.424C196.85 19.32 197.117 20.0773 197.65 20.696C198.184 21.304 198.941 21.7093 199.922 21.912L204.034 22.728C205.058 22.9307 205.965 23.3307 206.754 23.928C207.544 24.5147 208.157 25.24 208.594 26.104C209.042 26.968 209.266 27.9013 209.266 28.904C209.266 30.1733 208.93 31.2987 208.258 32.28C207.597 33.2613 206.669 34.024 205.474 34.568C204.29 35.112 202.946 35.384 201.442 35.384ZM224.435 35H221.875V18.616H224.435V35ZM221.699 15.64V12.6H224.611V15.64H221.699ZM237.649 18.232C238.876 18.232 239.948 18.4987 240.865 19.032C241.783 19.5547 242.487 20.3013 242.977 21.272C243.479 22.2427 243.729 23.3733 243.729 24.664V35H241.169V24.856C241.169 23.4587 240.807 22.3707 240.081 21.592C239.367 20.8027 238.369 20.408 237.089 20.408C236.172 20.408 235.367 20.6053 234.673 21C233.98 21.384 233.441 21.9387 233.057 22.664C232.684 23.3893 232.497 24.2427 232.497 25.224V35H229.937V18.616H232.401V21.128C232.924 20.168 233.628 19.448 234.513 18.968C235.399 18.4773 236.444 18.232 237.649 18.232ZM253.244 35C252.06 35 251.121 34.6853 250.428 34.056C249.745 33.4267 249.404 32.5573 249.404 31.448L249.388 20.888H246.508L246.524 18.616H248.3C248.705 18.616 249.03 18.488 249.276 18.232C249.532 17.976 249.66 17.6507 249.66 17.256V14.52H251.964V18.616H255.916L255.9 20.888H251.948L251.964 31.288C251.964 31.736 252.092 32.088 252.348 32.344C252.614 32.6 252.966 32.728 253.404 32.728H255.9V35H253.244ZM274.539 27.432H261.547C261.643 28.552 261.936 29.544 262.427 30.408C262.917 31.272 263.563 31.944 264.363 32.424C265.163 32.904 266.069 33.144 267.083 33.144C267.765 33.144 268.421 33.0373 269.051 32.824C269.68 32.6107 270.229 32.312 270.699 31.928C271.168 31.544 271.504 31.1067 271.707 30.616H274.171C273.989 31.512 273.547 32.3227 272.843 33.048C272.149 33.7733 271.28 34.344 270.235 34.76C269.2 35.176 268.096 35.384 266.923 35.384C265.376 35.384 263.989 35.016 262.763 34.28C261.547 33.544 260.597 32.5253 259.915 31.224C259.232 29.912 258.891 28.4293 258.891 26.776C258.891 25.1653 259.237 23.7093 259.931 22.408C260.624 21.1067 261.579 20.088 262.795 19.352C264.021 18.6053 265.397 18.232 266.923 18.232C268.373 18.232 269.675 18.6053 270.827 19.352C271.989 20.088 272.896 21.112 273.547 22.424C274.208 23.7253 274.539 25.1867 274.539 26.808V27.432ZM266.955 20.488C265.515 20.488 264.32 20.92 263.371 21.784C262.421 22.648 261.835 23.8267 261.611 25.32H271.867C271.643 23.8373 271.093 22.664 270.219 21.8C269.355 20.9253 268.267 20.488 266.955 20.488ZM290.415 18.616H292.895L292.863 33.704C292.863 35.1227 292.559 36.3387 291.951 37.352C291.353 38.376 290.489 39.1547 289.359 39.688C288.239 40.232 286.916 40.504 285.391 40.504C283.993 40.504 282.745 40.2693 281.647 39.8C280.559 39.3413 279.689 38.696 279.039 37.864C278.388 37.032 278.004 36.072 277.887 34.984H280.447C280.585 35.624 280.879 36.1947 281.327 36.696C281.775 37.208 282.345 37.6027 283.039 37.88C283.743 38.168 284.527 38.312 285.391 38.312C286.916 38.312 288.111 37.9067 288.975 37.096C289.849 36.296 290.287 35.1653 290.287 33.704V32.568L290.335 30.888C289.716 31.7627 288.927 32.44 287.967 32.92C287.017 33.3893 285.956 33.624 284.783 33.624C283.396 33.624 282.153 33.2987 281.055 32.648C279.967 31.9973 279.113 31.0907 278.495 29.928C277.887 28.7653 277.583 27.4427 277.583 25.96C277.583 24.4773 277.887 23.1547 278.495 21.992C279.113 20.8293 279.967 19.9227 281.055 19.272C282.153 18.6213 283.396 18.296 284.783 18.296C285.977 18.296 287.06 18.5467 288.031 19.048C289.001 19.5387 289.796 20.2373 290.415 21.144V18.616ZM285.247 31.384C286.228 31.384 287.103 31.16 287.871 30.712C288.639 30.264 289.236 29.6293 289.663 28.808C290.1 27.9867 290.319 27.0373 290.319 25.96C290.319 24.8827 290.1 23.9333 289.663 23.112C289.236 22.2907 288.639 21.656 287.871 21.208C287.103 20.76 286.228 20.536 285.247 20.536C284.276 20.536 283.412 20.7653 282.655 21.224C281.897 21.672 281.311 22.3067 280.895 23.128C280.479 23.9387 280.271 24.8827 280.271 25.96C280.271 27.0373 280.479 27.9867 280.895 28.808C281.311 29.6187 281.897 30.2533 282.655 30.712C283.412 31.16 284.276 31.384 285.247 31.384ZM306.202 18.456V21.128H305.61C304.117 21.128 302.943 21.576 302.09 22.472C301.237 23.368 300.81 24.6267 300.81 26.248V35H298.25V18.616H300.81V21.912C301.269 20.8027 301.909 19.9493 302.73 19.352C303.562 18.7547 304.554 18.456 305.706 18.456H306.202ZM315.645 18.232C316.883 18.232 317.965 18.4613 318.893 18.92C319.832 19.368 320.557 20.024 321.069 20.888C321.581 21.752 321.837 22.792 321.837 24.008V35H319.341V32.568C318.84 33.4853 318.12 34.184 317.181 34.664C316.253 35.144 315.139 35.384 313.837 35.384C312.76 35.384 311.8 35.1867 310.957 34.792C310.125 34.3867 309.475 33.8267 309.005 33.112C308.547 32.3973 308.317 31.5813 308.317 30.664C308.317 29.8107 308.531 29.0267 308.957 28.312C309.395 27.5867 309.997 26.9947 310.765 26.536C311.533 26.0773 312.403 25.8 313.373 25.704L318.157 25.224C318.509 25.192 318.787 25.0427 318.989 24.776C319.203 24.5093 319.309 24.1253 319.309 23.624C319.309 22.9733 319.149 22.4027 318.829 21.912C318.52 21.4213 318.083 21.0427 317.517 20.776C316.963 20.5093 316.317 20.376 315.581 20.376C314.856 20.376 314.195 20.4987 313.597 20.744C313 20.9893 312.515 21.3253 312.141 21.752C311.768 22.1787 311.549 22.648 311.485 23.16H308.989C309.085 22.2533 309.437 21.4267 310.045 20.68C310.653 19.9227 311.448 19.3253 312.429 18.888C313.411 18.4507 314.483 18.232 315.645 18.232ZM314.317 33.384C315.288 33.384 316.152 33.1973 316.909 32.824C317.667 32.44 318.253 31.9067 318.669 31.224C319.096 30.5307 319.309 29.7467 319.309 28.872V27.016L313.725 27.592C312.872 27.6773 312.184 27.992 311.661 28.536C311.139 29.08 310.877 29.7413 310.877 30.52C310.877 31.0747 311.021 31.5707 311.309 32.008C311.597 32.4347 312.003 32.7707 312.525 33.016C313.048 33.2613 313.645 33.384 314.317 33.384ZM331.369 35C330.185 35 329.246 34.6853 328.553 34.056C327.87 33.4267 327.529 32.5573 327.529 31.448L327.513 20.888H324.633L324.649 18.616H326.425C326.83 18.616 327.155 18.488 327.401 18.232C327.657 17.976 327.785 17.6507 327.785 17.256V14.52H330.089V18.616H334.041L334.025 20.888H330.073L330.089 31.288C330.089 31.736 330.217 32.088 330.473 32.344C330.739 32.6 331.091 32.728 331.529 32.728H334.025V35H331.369ZM340.904 35H338.344V18.616H340.904V35ZM338.168 15.64V12.6H341.08V15.64H338.168ZM353.302 35.384C351.745 35.384 350.342 35.016 349.094 34.28C347.846 33.5333 346.865 32.5093 346.15 31.208C345.435 29.9067 345.078 28.44 345.078 26.808C345.078 25.176 345.435 23.7093 346.15 22.408C346.865 21.1067 347.851 20.088 349.11 19.352C350.369 18.6053 351.777 18.232 353.334 18.232C354.891 18.232 356.299 18.6053 357.558 19.352C358.817 20.088 359.803 21.1067 360.518 22.408C361.233 23.7093 361.59 25.176 361.59 26.808C361.59 28.44 361.227 29.9067 360.502 31.208C359.787 32.5093 358.801 33.5333 357.542 34.28C356.283 35.016 354.87 35.384 353.302 35.384ZM353.334 33.016C354.401 33.016 355.355 32.76 356.198 32.248C357.041 31.7253 357.702 30.9947 358.182 30.056C358.662 29.1173 358.902 28.0347 358.902 26.808C358.902 25.5813 358.662 24.4987 358.182 23.56C357.702 22.6107 357.041 21.88 356.198 21.368C355.355 20.8453 354.401 20.584 353.334 20.584C352.267 20.584 351.313 20.8453 350.47 21.368C349.627 21.88 348.966 22.6107 348.486 23.56C348.006 24.4987 347.766 25.5813 347.766 26.808C347.766 28.0347 348.006 29.1173 348.486 30.056C348.966 30.9947 349.627 31.7253 350.47 32.248C351.313 32.76 352.267 33.016 353.334 33.016ZM373.493 18.232C374.72 18.232 375.792 18.4987 376.709 19.032C377.626 19.5547 378.33 20.3013 378.821 21.272C379.322 22.2427 379.573 23.3733 379.573 24.664V35H377.013V24.856C377.013 23.4587 376.65 22.3707 375.925 21.592C375.21 20.8027 374.213 20.408 372.933 20.408C372.016 20.408 371.21 20.6053 370.517 21C369.824 21.384 369.285 21.9387 368.901 22.664C368.528 23.3893 368.341 24.2427 368.341 25.224V35H365.781V18.616H368.245V21.128C368.768 20.168 369.472 19.448 370.357 18.968C371.242 18.4773 372.288 18.232 373.493 18.232ZM410.834 18.232C412.028 18.232 413.074 18.504 413.97 19.048C414.876 19.5813 415.57 20.3333 416.05 21.304C416.54 22.2747 416.786 23.3947 416.786 24.664V35H414.226V24.776C414.226 23.3893 413.895 22.3173 413.234 21.56C412.583 20.792 411.655 20.408 410.45 20.408C409.532 20.408 408.738 20.6267 408.066 21.064C407.394 21.4907 406.876 22.104 406.514 22.904C406.151 23.704 405.97 24.6373 405.97 25.704V35H403.41V24.776C403.41 23.4 403.068 22.328 402.386 21.56C401.703 20.792 400.754 20.408 399.538 20.408C398.62 20.408 397.831 20.6267 397.17 21.064C396.519 21.4907 396.018 22.104 395.666 22.904C395.324 23.704 395.154 24.6373 395.154 25.704V35H392.594V18.616H395.058V21.032C395.57 20.136 396.242 19.448 397.074 18.968C397.916 18.4773 398.892 18.232 400.002 18.232C401.196 18.232 402.258 18.52 403.186 19.096C404.114 19.672 404.818 20.4667 405.298 21.48C405.852 20.456 406.604 19.6613 407.554 19.096C408.514 18.52 409.607 18.232 410.834 18.232ZM436.226 27.432H423.234C423.33 28.552 423.623 29.544 424.114 30.408C424.605 31.272 425.25 31.944 426.05 32.424C426.85 32.904 427.757 33.144 428.77 33.144C429.453 33.144 430.109 33.0373 430.738 32.824C431.367 32.6107 431.917 32.312 432.386 31.928C432.855 31.544 433.191 31.1067 433.394 30.616H435.858C435.677 31.512 435.234 32.3227 434.53 33.048C433.837 33.7733 432.967 34.344 431.922 34.76C430.887 35.176 429.783 35.384 428.61 35.384C427.063 35.384 425.677 35.016 424.45 34.28C423.234 33.544 422.285 32.5253 421.602 31.224C420.919 29.912 420.578 28.4293 420.578 26.776C420.578 25.1653 420.925 23.7093 421.618 22.408C422.311 21.1067 423.266 20.088 424.482 19.352C425.709 18.6053 427.085 18.232 428.61 18.232C430.061 18.232 431.362 18.6053 432.514 19.352C433.677 20.088 434.583 21.112 435.234 22.424C435.895 23.7253 436.226 25.1867 436.226 26.808V27.432ZM428.642 20.488C427.202 20.488 426.007 20.92 425.058 21.784C424.109 22.648 423.522 23.8267 423.298 25.32H433.554C433.33 23.8373 432.781 22.664 431.906 21.8C431.042 20.9253 429.954 20.488 428.642 20.488ZM444.806 35C443.622 35 442.683 34.6853 441.99 34.056C441.307 33.4267 440.966 32.5573 440.966 31.448L440.95 20.888H438.07L438.086 18.616H439.862C440.267 18.616 440.593 18.488 440.838 18.232C441.094 17.976 441.222 17.6507 441.222 17.256V14.52H443.526V18.616H447.478L447.462 20.888H443.51L443.526 31.288C443.526 31.736 443.654 32.088 443.91 32.344C444.177 32.6 444.529 32.728 444.966 32.728H447.462V35H444.806ZM459.493 18.232C460.72 18.232 461.792 18.4987 462.709 19.032C463.626 19.5547 464.33 20.3013 464.821 21.272C465.322 22.2427 465.573 23.3733 465.573 24.664V35H463.013V24.776C463.013 23.4 462.661 22.328 461.957 21.56C461.264 20.792 460.288 20.408 459.029 20.408C458.08 20.408 457.253 20.6267 456.549 21.064C455.845 21.4907 455.301 22.104 454.917 22.904C454.533 23.6933 454.341 24.6267 454.341 25.704V35H451.781V12.6H454.341V17.864L454.245 21.112C454.757 20.1733 455.456 19.4587 456.341 18.968C457.237 18.4773 458.288 18.232 459.493 18.232ZM477.583 35.384C476.026 35.384 474.623 35.016 473.375 34.28C472.127 33.5333 471.146 32.5093 470.431 31.208C469.717 29.9067 469.359 28.44 469.359 26.808C469.359 25.176 469.717 23.7093 470.431 22.408C471.146 21.1067 472.133 20.088 473.391 19.352C474.65 18.6053 476.058 18.232 477.615 18.232C479.173 18.232 480.581 18.6053 481.839 19.352C483.098 20.088 484.085 21.1067 484.799 22.408C485.514 23.7093 485.871 25.176 485.871 26.808C485.871 28.44 485.509 29.9067 484.783 31.208C484.069 32.5093 483.082 33.5333 481.823 34.28C480.565 35.016 479.151 35.384 477.583 35.384ZM477.615 33.016C478.682 33.016 479.637 32.76 480.479 32.248C481.322 31.7253 481.983 30.9947 482.463 30.056C482.943 29.1173 483.183 28.0347 483.183 26.808C483.183 25.5813 482.943 24.4987 482.463 23.56C481.983 22.6107 481.322 21.88 480.479 21.368C479.637 20.8453 478.682 20.584 477.615 20.584C476.549 20.584 475.594 20.8453 474.751 21.368C473.909 21.88 473.247 22.6107 472.767 23.56C472.287 24.4987 472.047 25.5813 472.047 26.808C472.047 28.0347 472.287 29.1173 472.767 30.056C473.247 30.9947 473.909 31.7253 474.751 32.248C475.594 32.76 476.549 33.016 477.615 33.016ZM504.894 18.616H504.91V35H502.446V32.248C501.817 33.2507 501.001 34.024 499.998 34.568C498.996 35.112 497.87 35.384 496.622 35.384C495.14 35.384 493.796 35.0107 492.59 34.264C491.385 33.5173 490.441 32.4933 489.758 31.192C489.076 29.88 488.734 28.4187 488.734 26.808C488.734 25.1973 489.076 23.7413 489.758 22.44C490.441 21.128 491.385 20.0987 492.59 19.352C493.796 18.6053 495.14 18.232 496.622 18.232C497.87 18.232 498.99 18.504 499.982 19.048C500.985 19.592 501.801 20.3653 502.43 21.368L502.334 12.6H504.894V18.616ZM496.862 33.08C497.908 33.08 498.846 32.808 499.678 32.264C500.521 31.72 501.177 30.9733 501.646 30.024C502.116 29.064 502.35 27.992 502.35 26.808C502.35 25.624 502.116 24.5573 501.646 23.608C501.177 22.648 500.521 21.896 499.678 21.352C498.846 20.808 497.908 20.536 496.862 20.536C495.828 20.536 494.894 20.808 494.062 21.352C493.241 21.896 492.596 22.648 492.126 23.608C491.657 24.5573 491.422 25.624 491.422 26.808C491.422 27.992 491.657 29.064 492.126 30.024C492.596 30.9733 493.241 31.72 494.062 32.264C494.894 32.808 495.828 33.08 496.862 33.08ZM540.971 24.008L533.147 31.352V25.224H518.187V22.84H533.147V16.792L540.971 24.008Z" fill="white"/>
</svg>
