<svg width="400" height="295" viewBox="0 0 400 295" fill="none" xmlns="http://www.w3.org/2000/svg">
<g clip-path="url(#clip0_9716_116495)">
<path d="M45.1577 173.311C45.1577 173.311 56.4189 156.757 73.8739 147.748C90.0901 139.302 108.221 141.667 120.158 132.32C142.905 114.414 145.833 99.7748 145.833 99.7748L100.676 37.9504C100.676 37.9504 92.2297 62.1621 74.5495 70.9459C60.473 77.8153 44.0315 76.5766 28.1532 85.1351C10.9234 94.3694 0 111.486 0 111.486L45.1577 173.311Z" fill="#C4C4C4"/>
<path d="M400 241.216L312.613 291.554L276.464 229.054L363.851 178.604L400 241.216Z" fill="url(#paint0_linear_9716_116495)"/>
<path d="M123.874 245.608L28.1532 261.599L0 210.586L29.7297 205.631L95.7207 194.482L123.874 245.608Z" fill="url(#paint1_linear_9716_116495)"/>
<path d="M45.1577 173.311C45.1577 173.311 56.4189 156.757 73.8739 147.748C90.0901 139.302 108.221 141.667 120.158 132.32C142.905 114.414 145.833 99.7748 145.833 99.7748L100.676 37.9504C100.676 37.9504 92.2297 62.1621 74.5495 70.9459C60.473 77.8153 44.0315 76.5766 28.1532 85.1351C10.9234 94.3694 0 111.486 0 111.486L45.1577 173.311Z" fill="url(#paint2_linear_9716_116495)"/>
<path d="M238.401 294.482C245.608 294.482 251.464 288.626 251.577 281.419C251.689 274.099 245.833 268.243 238.513 268.131L231.869 268.018C232.207 266.441 232.658 264.978 232.995 263.514C241.892 228.266 252.027 188.401 218.243 150.563C213.401 145.158 205.068 144.707 199.662 149.55C194.257 154.392 193.806 162.725 198.649 168.131C223.086 195.496 215.878 223.987 207.545 257.095C205.743 263.964 203.941 271.171 202.477 278.378C201.689 282.207 202.59 286.261 205.068 289.302C207.545 292.342 211.261 294.144 215.203 294.257L238.288 294.482C238.288 294.482 238.288 294.482 238.401 294.482Z" fill="url(#paint3_linear_9716_116495)"/>
<path d="M177.703 294.482C184.91 294.482 190.766 288.626 190.878 281.419C190.991 274.099 185.135 268.243 177.815 268.131H175.563C194.707 229.617 211.036 182.32 189.302 149.775C185.248 143.694 177.14 142.117 171.059 146.059C164.977 150.113 163.401 158.221 167.342 164.302C180.293 183.784 171.847 220.946 142.23 274.662C139.978 278.716 140.09 283.671 142.342 287.613C144.707 291.667 148.987 294.031 153.604 294.144L177.478 294.369C177.703 294.482 177.703 294.482 177.703 294.482Z" fill="url(#paint4_linear_9716_116495)"/>
<path d="M121.284 143.468C119.482 143.468 117.68 143.131 115.878 142.342C114.752 141.779 86.8243 129.054 70.7207 93.3558C66.5541 84.009 59.9099 78.0405 51.0135 75.5631C44.5946 73.7612 39.1892 74.4369 39.0766 74.4369C31.8694 75.5631 25.1126 70.7207 23.9865 63.5135C22.973 56.3063 27.9279 49.5495 35.0225 48.4234C49.3243 46.1712 80.1802 50.4504 94.7072 82.545C99.6622 93.4685 106.419 102.815 115.09 110.248C121.622 115.878 126.689 118.356 126.802 118.356C133.446 121.284 136.374 129.054 133.446 135.698C131.194 140.541 126.351 143.468 121.284 143.468Z" fill="url(#paint5_linear_9716_116495)"/>
<path d="M298.761 174.55C292.568 175 286.824 171.171 285.023 164.977C283.108 157.995 287.162 150.676 294.144 148.761C294.932 148.536 315.428 142.23 330.856 118.018C343.806 97.7477 362.387 91.4414 377.365 90.8783C386.374 90.5405 393.018 99.2117 390.315 107.883C388.626 113.176 383.784 117.004 378.266 117.117C370.946 117.342 360.698 120.158 353.041 132.207C331.982 165.09 302.477 173.649 301.239 174.099C300.338 174.324 299.55 174.437 298.761 174.55Z" fill="url(#paint6_linear_9716_116495)"/>
<path d="M275 196.396L125.225 169.144C113.514 167.004 105.856 155.856 107.996 144.144L129.505 25.7883C132.996 6.86934 156.532 -0.112648 169.707 14.0765L216.441 64.3018C219.144 67.1171 223.311 67.9054 226.802 66.2162L288.063 35.6982C305.293 27.1396 325 41.8919 321.509 60.8108L300 179.167C297.86 190.878 286.599 198.536 275 196.396Z" fill="url(#paint7_linear_9716_116495)"/>
<path d="M137.05 155.405L266.104 179.842C275.113 181.532 283.671 175.563 285.36 166.554L296.284 106.081C297.973 97.0721 292.005 88.5135 282.995 86.8244L153.941 62.3874C144.932 60.6982 136.374 66.6667 134.685 75.6757L123.761 136.149C122.185 145.158 128.153 153.829 137.05 155.405Z" fill="black"/>
<path d="M246.622 105.631C247.86 105.631 249.212 105.743 250.45 105.968C260.811 107.883 267.793 117.905 265.878 128.266C264.302 137.162 256.532 143.806 247.41 144.031C246.171 144.031 244.82 143.919 243.581 143.694C238.514 142.793 234.122 139.977 231.194 135.698C228.266 131.531 227.14 126.351 228.041 121.396C229.73 112.387 237.5 105.743 246.622 105.631ZM246.396 94.9324C232.545 95.1576 220.27 105.18 217.68 119.482C214.752 135.698 225.45 151.239 241.667 154.167C243.694 154.504 245.608 154.73 247.635 154.617C261.487 154.392 273.761 144.369 276.351 130.068C279.279 113.851 268.581 98.3108 252.365 95.3828C250.338 95.045 248.311 94.9324 246.396 94.9324ZM177.365 93.1306C178.604 93.1306 179.955 93.2432 181.194 93.4684C191.554 95.3828 198.536 105.405 196.622 115.766C195.045 124.662 187.275 131.306 178.153 131.531C176.914 131.531 175.563 131.419 174.324 131.194C169.257 130.293 164.865 127.477 161.937 123.198C159.009 119.031 157.883 113.851 158.784 108.896C160.586 99.8873 168.356 93.2432 177.365 93.1306ZM177.14 82.4324C163.288 82.6576 151.014 92.6801 148.423 106.982C145.496 123.198 156.194 138.739 172.41 141.667C174.437 142.004 176.351 142.23 178.378 142.117C192.23 141.892 204.505 131.869 207.095 117.568C210.023 101.351 199.324 85.8108 183.108 82.8828C181.081 82.545 179.167 82.4324 177.14 82.4324Z" fill="white"/>
<path d="M251.464 27.5901C251.464 27.5901 275.563 22.4099 288.851 40.6531C302.14 58.8964 308.784 79.7297 336.937 80.4054L398.086 56.5315C398.086 56.5315 368.806 49.3243 352.14 15.8783C342.905 -2.59012 325.113 -1.23877 317.568 1.68916L251.464 27.5901Z" fill="#D8D8D8"/>
<g opacity="0.3">
<path d="M106.419 237.95C105.856 237.95 105.18 237.613 104.955 237.05L88.063 203.829C87.6126 203.041 87.9504 202.027 88.8513 201.577C89.6396 201.126 90.6531 201.464 91.1036 202.365L107.995 235.586C108.446 236.374 108.108 237.387 107.207 237.838C106.869 237.838 106.644 237.95 106.419 237.95ZM95.1576 239.64C94.5946 239.64 93.9189 239.302 93.6937 238.739L76.8018 205.518C76.3513 204.73 76.6892 203.716 77.5901 203.266C78.3784 202.815 79.3919 203.153 79.8423 204.054L96.7342 237.275C97.1847 238.063 96.8468 239.077 95.9459 239.527C95.7207 239.64 95.3829 239.64 95.1576 239.64ZM83.5585 241.667C82.9955 241.667 82.3198 241.329 82.0946 240.766L65.2027 207.545C64.7522 206.757 65.0901 205.743 65.991 205.293C66.7793 204.842 67.7928 205.18 68.2432 206.081L85.1351 239.302C85.5856 240.09 85.2477 241.104 84.3468 241.554C84.1216 241.554 83.8964 241.667 83.5585 241.667Z" fill="#8C8C8C"/>
</g>
<path d="M367.568 277.928C367.568 277.928 351.914 265.428 332.545 261.937C314.527 258.671 297.973 266.216 283.784 260.811C256.757 250.338 249.662 237.162 249.662 237.162L274.662 164.865C274.662 164.865 289.865 185.586 309.347 188.626C324.775 191.104 340.09 185.135 357.883 188.626C377.027 192.342 392.455 205.518 392.455 205.518L367.568 277.928ZM182.207 237.162C182.207 237.162 163.514 234.009 146.284 248.536C129.054 263.063 114.189 274.212 86.5991 268.131L32.8829 230.293C32.8829 230.293 66.3289 239.077 95.8334 216.104C110.36 204.73 127.815 198.761 134.46 203.491L182.207 237.162Z" fill="#E2E2E2"/>
<path d="M269.369 180.18L245.045 175.901L243.581 190.766L264.414 194.482L269.369 180.18Z" fill="url(#paint8_linear_9716_116495)"/>
<path d="M182.207 237.162L173.086 268.131L151.351 257.432L160.473 240.203C160.473 240.09 174.212 235.473 182.207 237.162Z" fill="url(#paint9_linear_9716_116495)"/>
<g opacity="0.3">
<path d="M289.527 26.2387C288.851 26.2387 288.176 25.7883 287.95 25.2252C287.613 24.3243 288.063 23.4234 288.851 22.9729L327.815 7.09457C328.716 6.75673 329.617 7.20718 330.068 7.99547C330.405 8.89637 329.955 9.79727 329.167 10.2477L290.203 26.1261C289.977 26.2387 289.752 26.2387 289.527 26.2387ZM299.324 34.2342C298.649 34.2342 297.973 33.7838 297.748 33.2207C297.41 32.3198 297.86 31.4189 298.649 30.9684L337.613 15.0901C338.513 14.7522 339.414 15.2027 339.865 15.991C340.203 16.8919 339.752 17.7928 338.964 18.2432L300 34.1216C299.662 34.1216 299.437 34.2342 299.324 34.2342ZM306.531 45.2702C305.856 45.2702 305.18 44.8198 304.955 44.2567C304.617 43.3558 305.068 42.4549 305.856 42.0045L344.82 26.1261C345.721 25.7883 346.622 26.2387 347.072 27.027C347.41 27.9279 346.959 28.8288 346.171 29.2793L307.207 45.1576C306.982 45.2702 306.757 45.2702 306.531 45.2702Z" fill="#8C8C8C"/>
</g>
<g opacity="0.3">
<path d="M284.122 235.811L281.194 245.383L275.788 243.694L266.216 231.982L267.455 227.815L277.815 240.428L278.941 240.766L280.743 234.685L275.788 233.221L276.914 229.505L289.414 233.333L288.288 237.05L284.122 235.811ZM284.797 226.689L275.45 223.874C271.509 222.635 269.82 219.257 271.059 214.977C272.297 210.698 275.676 208.896 279.617 210.023L288.964 212.838C292.905 214.077 294.595 217.455 293.356 221.734C292.117 226.014 288.739 227.928 284.797 226.689ZM287.95 216.441L278.604 213.626C276.689 213.063 274.887 213.964 274.324 215.991C273.649 218.131 274.55 219.82 276.577 220.383L285.923 223.198C287.838 223.761 289.64 222.86 290.203 220.833C290.766 218.694 289.865 217.005 287.95 216.441ZM281.532 220.27C280.293 219.932 279.955 218.919 280.293 217.793C280.631 216.554 281.532 215.991 282.658 216.329C283.896 216.667 284.347 217.68 283.896 218.919C283.671 220.158 282.77 220.721 281.532 220.27ZM294.932 200L292.004 209.572L286.599 207.883L277.027 196.171L278.266 192.005L288.626 204.617L289.752 204.955L291.554 198.874L286.599 197.41L287.725 193.694L300.225 197.523L299.099 201.239L294.932 200Z" fill="#8C8C8C"/>
</g>
<path d="M215.203 150.113C215.09 150.113 214.865 150.113 214.752 150.113L199.662 147.072C198.423 146.847 197.635 145.608 197.86 144.369C198.086 143.131 199.324 142.342 200.563 142.568L215.653 145.608C216.892 145.833 217.68 147.072 217.455 148.311C217.23 149.324 216.216 150.113 215.203 150.113Z" fill="white"/>
</g>
<defs>
<linearGradient id="paint0_linear_9716_116495" x1="291.717" y1="310.604" x2="367.63" y2="187.368" gradientUnits="userSpaceOnUse">
<stop offset="0.312" stop-color="#C4C4C4"/>
<stop offset="0.371" stop-color="#B7B7B7" stop-opacity="0.9488"/>
<stop offset="0.546" stop-color="#969696" stop-opacity="0.7961"/>
<stop offset="0.713" stop-color="#7E7E7E" stop-opacity="0.65"/>
<stop offset="0.869" stop-color="#707070" stop-opacity="0.5145"/>
<stop offset="1" stop-color="#6B6B6B" stop-opacity="0.4"/>
</linearGradient>
<linearGradient id="paint1_linear_9716_116495" x1="35.4031" y1="189.85" x2="126.995" y2="321.929" gradientUnits="userSpaceOnUse">
<stop offset="0.312" stop-color="#C4C4C4"/>
<stop offset="0.371" stop-color="#B7B7B7" stop-opacity="0.9488"/>
<stop offset="0.546" stop-color="#969696" stop-opacity="0.7961"/>
<stop offset="0.713" stop-color="#7E7E7E" stop-opacity="0.65"/>
<stop offset="0.869" stop-color="#707070" stop-opacity="0.5145"/>
<stop offset="1" stop-color="#6B6B6B" stop-opacity="0.4"/>
</linearGradient>
<linearGradient id="paint2_linear_9716_116495" x1="115.695" y1="75.8153" x2="15.7556" y2="153.545" gradientUnits="userSpaceOnUse">
<stop offset="0.153" stop-color="#C4C4C4"/>
<stop offset="0.342" stop-color="#6B6B6B" stop-opacity="0.4"/>
<stop offset="0.356" stop-color="#7A7A7A" stop-opacity="0.4359"/>
<stop offset="0.387" stop-color="#959595" stop-opacity="0.5174"/>
<stop offset="0.421" stop-color="#AAAAAA" stop-opacity="0.6064"/>
<stop offset="0.459" stop-color="#B9B9B9" stop-opacity="0.7052"/>
<stop offset="0.503" stop-color="#C1C1C1" stop-opacity="0.8217"/>
<stop offset="0.571" stop-color="#C4C4C4"/>
</linearGradient>
<linearGradient id="paint3_linear_9716_116495" x1="223.339" y1="284.114" x2="223.339" y2="165.241" gradientUnits="userSpaceOnUse">
<stop offset="0.316" stop-color="#7F52FF"/>
<stop offset="0.52" stop-color="#7C4FFC"/>
<stop offset="0.687" stop-color="#7247F2"/>
<stop offset="0.842" stop-color="#6139E0"/>
<stop offset="0.987" stop-color="#4926C9"/>
<stop offset="1" stop-color="#4724C6"/>
</linearGradient>
<linearGradient id="paint4_linear_9716_116495" x1="170.228" y1="262.073" x2="170.228" y2="172.369" gradientUnits="userSpaceOnUse">
<stop offset="0.577" stop-color="#7F52FF"/>
<stop offset="1" stop-color="#4724C6"/>
</linearGradient>
<linearGradient id="paint5_linear_9716_116495" x1="23.9516" y1="95.7128" x2="134.479" y2="95.7128" gradientUnits="userSpaceOnUse">
<stop offset="0.577" stop-color="#7F52FF"/>
<stop offset="1" stop-color="#4724C6"/>
</linearGradient>
<linearGradient id="paint6_linear_9716_116495" x1="373.987" y1="109.776" x2="286.145" y2="160.275" gradientUnits="userSpaceOnUse">
<stop offset="0.577" stop-color="#7F52FF"/>
<stop offset="1" stop-color="#4724C6"/>
</linearGradient>
<linearGradient id="paint7_linear_9716_116495" x1="196.589" y1="118.526" x2="293.862" y2="30.8164" gradientUnits="userSpaceOnUse">
<stop stop-color="#7F52FF"/>
<stop offset="0.456" stop-color="#7D50FD"/>
<stop offset="0.651" stop-color="#764BF6"/>
<stop offset="0.796" stop-color="#6A40E9"/>
<stop offset="0.916" stop-color="#5832D8"/>
<stop offset="1" stop-color="#4724C6"/>
</linearGradient>
<linearGradient id="paint8_linear_9716_116495" x1="241.169" y1="182.157" x2="273.726" y2="189.179" gradientUnits="userSpaceOnUse">
<stop stop-color="#7F52FF"/>
<stop offset="0.456" stop-color="#7D50FD"/>
<stop offset="0.651" stop-color="#764BF6"/>
<stop offset="0.796" stop-color="#6A40E9"/>
<stop offset="0.916" stop-color="#5832D8"/>
<stop offset="1" stop-color="#4724C6"/>
</linearGradient>
<linearGradient id="paint9_linear_9716_116495" x1="170.571" y1="255.859" x2="162.547" y2="237.622" gradientUnits="userSpaceOnUse">
<stop offset="0.316" stop-color="#7F52FF"/>
<stop offset="0.52" stop-color="#7C4FFC"/>
<stop offset="0.687" stop-color="#7247F2"/>
<stop offset="0.842" stop-color="#6139E0"/>
<stop offset="0.987" stop-color="#4926C9"/>
<stop offset="1" stop-color="#4724C6"/>
</linearGradient>
<clipPath id="clip0_9716_116495">
<rect width="400" height="294.482" fill="white"/>
</clipPath>
</defs>
</svg>
