<svg xmlns="http://www.w3.org/2000/svg" viewBox="0 0 16 16" class="SvgIcon__icon--3t glyph_1f4" size="14" style="width: 14px; height: 14px;"><path d="M14.27 12.81a1.69 1.69 0 0 1-.36-.75c-.08-.38-.18-.75-.59-.9a.26.26 0 0 0 0-.07 3.34 3.34 0 0 0 .05-1.8A6.18 6.18 0 0 0 12.28 7c-.32-.43-.66-.84-1-1.27a2.79 2.79 0 0 1-.59-1.87 7.48 7.48 0 0 0 0-.82 5 5 0 0 0-.27-1.67A1.92 1.92 0 0 0 8.86.05a3.34 3.34 0 0 0-1.57.1A1.82 1.82 0 0 0 6 1.37a3.72 3.72 0 0 0-.18.94v1.64a3.5 3.5 0 0 1-.76 2.37 11 11 0 0 0-1.49 2.44 4.18 4.18 0 0 0-.41 1.87.75.75 0 0 1-.16.52 1.54 1.54 0 0 1-1 .71h-.1a.84.84 0 0 0-.48.87 2.34 2.34 0 0 0 0 .26 1.54 1.54 0 0 1-.05.9.5.5 0 0 0 0 .13.73.73 0 0 0 .65 1l.57.09a4 4 0 0 1 1.48.39 2.43 2.43 0 0 0 1.35.28 1.21 1.21 0 0 0 1-.6.21.21 0 0 1 .11-.07l.47-.04A4.68 4.68 0 0 1 8.38 15c.43 0 .87.07 1.3.12 0 0 .07.06.09.11a1.28 1.28 0 0 0 1.43.8 2.32 2.32 0 0 0 1.32-.79 2.86 2.86 0 0 1 .87-.67l.7-.36a.77.77 0 0 0 .47-.56 1 1 0 0 0-.29-.84zm-6-10.32a.57.57 0 0 1 .83 0 1 1 0 0 1 .09 1.27H9.1c-.02 0-.8-.36-1-.46 0 0-.05 0-.05-.06a1 1 0 0 1 .24-.75zM8 3.85l1 .37a.36.36 0 0 1 .24.26A3.67 3.67 0 0 1 7.62 5a5.28 5.28 0 0 1-1.16-.32c-.08-.11 0-.23.08-.32L7.1 4a1 1 0 0 1 .9-.15zM6.4 2.73a.39.39 0 0 1 .72 0 1 1 0 0 1 .16.6c0 .11 0 .1-.23.2a1.79 1.79 0 0 0-.51.37 2.39 2.39 0 0 1-.13-.21 1 1 0 0 1-.01-.96zM5.18 15.09H5a1.78 1.78 0 0 1-.85-.21A3.15 3.15 0 0 0 3 14.57a4.34 4.34 0 0 1-.52-.09.36.36 0 0 1-.3-.48 1.42 1.42 0 0 1 0-.2 1.19 1.19 0 0 0 0-.72 1.33 1.33 0 0 1 0-.28.48.48 0 0 1 .29-.46l.27-.1a.85.85 0 0 0 .44-.33l.24-.3a.45.45 0 0 1 .64-.09 1.75 1.75 0 0 1 .36.36 1.59 1.59 0 0 1 .14.26 7.2 7.2 0 0 0 .92 1.4 2.8 2.8 0 0 1 .3.46.72.72 0 0 1-.6 1.09zm4.76-1.47a.2.2 0 0 1-.07.09 3.35 3.35 0 0 1-2.39.63 2.46 2.46 0 0 1-1.07-.41 1.16 1.16 0 0 1-.18-.2l-.33-.44h.21a.38.38 0 0 0 .31-.5 1.82 1.82 0 0 0-.27-.56 3.88 3.88 0 0 0-1-.9 1.14 1.14 0 0 1-.3-.18.79.79 0 0 1-.12-.58v-.44a6.08 6.08 0 0 1 .59-1.9 14.08 14.08 0 0 0 .86-2.13c.08-.32.14-.64.22-1l.5.39a1 1 0 0 0 .64.28 2 2 0 0 0 .72-.13 4 4 0 0 0 .47-.22 1.32 1.32 0 0 0 .2-.12 3.41 3.41 0 0 0 .56-.42 16.08 16.08 0 0 0 1 2.6c.19.41.41.82.58 1.24a2.81 2.81 0 0 1 .3 1c0 .47-.31.47-.39.85a.23.23 0 0 1-.08.11 1.06 1.06 0 0 0-.56.68 6.17 6.17 0 0 0-.18 1.28c-.06.36-.16.66-.22.98zm3.78.1a2.56 2.56 0 0 1-.4.22l-.38.2a2.26 2.26 0 0 0-.64.5 1.7 1.7 0 0 1-1 .61.84.84 0 0 1-1-.48 1 1 0 0 1 0-.65 4.54 4.54 0 0 1 .12-.5 4.24 4.24 0 0 0 .21-1.18 4.66 4.66 0 0 1 .13-.73.54.54 0 0 1 .3-.36c0 .13.07.27.12.39a.54.54 0 0 0 .71.31 1.42 1.42 0 0 0 .56-.32.3.3 0 0 1 .15-.07h.16a.49.49 0 0 1 .45.33 3.45 3.45 0 0 1 .12.46 1.07 1.07 0 0 0 .23.45 1.86 1.86 0 0 1 .23.32.33.33 0 0 1-.07.5z"></path></svg>