<svg xmlns="http://www.w3.org/2000/svg" width="14" height="14" viewBox="0 0 14 14" class="SvgIcon__icon--3t glyph_1f4" size="14" style="width: 14px; height: 14px;"><path d="M10.539 6.906a2.889 2.889 0 0 0 1.801 2.63 7.013 7.013 0 0 1-.929 1.85c-.56.792-1.14 1.58-2.054 1.597-.899.016-1.188-.516-2.215-.516s-1.349.5-2.2.532c-.882.033-1.554-.856-2.118-1.645C1.67 9.74.79 6.793 1.973 4.804a3.302 3.302 0 0 1 2.777-1.63c.867-.015 1.685.565 2.215.565.53 0 1.524-.698 2.57-.596a3.17 3.17 0 0 1 2.454 1.29 2.935 2.935 0 0 0-1.45 2.474m-1.69-4.831A2.806 2.806 0 0 0 9.549 0 3.043 3.043 0 0 0 7.57.985a2.669 2.669 0 0 0-.712 2.011 2.52 2.52 0 0 0 1.99-.92"></path></svg>