<svg xmlns="http://www.w3.org/2000/svg" width="48" height="48" fill="none" viewBox="0 0 48 48">
    <path fill="#fff" d="M16.703 27.105a2.14 2.14 0 0 0 .768 4.174 2.134 2.134 0 0 0 1.92-2.794 2.133 2.133 0 0 0-2.688-1.38M29.978 27.105a2.14 2.14 0 0 0 .768 4.174 2.134 2.134 0 0 0 1.92-2.794 2.133 2.133 0 0 0-2.688-1.38"/>
    <path fill="#fff" fill-rule="evenodd" d="m40.343 15.672-2.87 5.737C42.072 25.264 45 31.047 45 37.5V39H3v-1.5c0-6.453 2.929-12.236 7.526-16.09l-2.868-5.738 2.684-1.343 2.648 5.299A20.9 20.9 0 0 1 24 16.5c4.035 0 7.808 1.148 11.01 3.128l2.648-5.299zM24 19.5c-9.42 0-17.171 7.275-17.936 16.5h35.872C41.171 26.775 33.42 19.5 24 19.5" clip-rule="evenodd"/>
</svg>