<svg width="48" height="48" viewBox="0 0 48 48" fill="none" xmlns="http://www.w3.org/2000/svg">
    <path fill-rule="evenodd" clip-rule="evenodd" d="M37.125 33H10.875C9.01125 33 7.5 31.4888 7.5 29.625V9.375C7.5 7.51125 9.01125 6 10.875 6H37.125C38.9888 6 40.5 7.51125 40.5 9.375V29.625C40.5 31.4888 38.9888 33 37.125 33ZM37.125 9H10.875C10.6688 9 10.5 9.16875 10.5 9.375V29.625C10.5 29.8313 10.6688 30 10.875 30H37.125C37.3313 30 37.5 29.8313 37.5 29.625V9.375C37.5 9.16875 37.3313 9 37.125 9Z" fill="white"/>
    <path d="M3 37.5H45V40.5H3V37.5Z" fill="white"/>
</svg>
