<svg xmlns="http://www.w3.org/2000/svg" width="48" height="48" fill="none" viewBox="0 0 48 48">
    <path fill="#fff" d="M41.006 31.077c-.274-.113-4.602-1.992-4.602-7.02 0-3.63 2.337-5.708 3.732-6.62q.151-.1.202-.138l1.125-.874-.817-1.17c-2.149-3.082-5.524-4.777-9.499-4.777-2.104 0-3.911.716-5.366 1.293l-.221.087c.34-2.963 2.047-5.412 5.283-7.617l-1.687-2.478c-4.174 2.838-6.349 6.221-6.63 10.305-.252-.094-.518-.203-.788-.311-1.29-.522-2.898-1.17-4.728-1.17-5.944 0-11.96 4.777-11.96 13.904 0 4.988 1.775 10.61 4.636 14.678 1.98 2.779 4.222 5.925 7.706 5.925 1.534 0 2.666-.48 3.668-.904 1.008-.427 1.878-.799 3.25-.799 1.385 0 2.172.345 3.087.743.971.424 2.074.904 3.754.904 3.701 0 5.929-3.203 7.721-5.786 2.115-3.083 3.038-6.135 3.101-6.492l.24-1.286zm-4.602 6.472c-1.766 2.543-3.277 4.489-5.253 4.489-1.054 0-1.718-.289-2.554-.653-1.016-.442-2.276-.994-4.286-.994-1.984 0-3.338.574-4.425 1.035-.878.372-1.568.664-2.494.664-1.796 0-3.315-1.935-5.257-4.657-2.483-3.53-4.084-8.61-4.084-12.945 0-7.159 4.507-10.905 8.958-10.905 1.245 0 2.445.483 3.604.952 1.092.443 2.123.859 3.18.859.979 0 1.958-.386 3.09-.836 1.279-.507 2.73-1.08 4.26-1.08 1.793 0 4.193.442 6.109 2.374-1.793 1.522-3.851 4.154-3.851 8.205 0 4.976 3.116 7.916 5.25 9.195a21.4 21.4 0 0 1-2.247 4.297"/>
</svg>