<svg xmlns="http://www.w3.org/2000/svg" width="48" height="48" fill="none" viewBox="0 0 48 48">
    <path fill="#fff" d="M13.5 30h21c2.483 0 4.5-2.017 4.5-4.5V12c0-2.482-2.017-4.5-4.5-4.5h-21A4.504 4.504 0 0 0 9 12v13.5c0 2.483 2.018 4.5 4.5 4.5M12 12a1.5 1.5 0 0 1 1.5-1.5h21A1.5 1.5 0 0 1 36 12v13.5a1.5 1.5 0 0 1-1.5 1.5h-21a1.5 1.5 0 0 1-1.5-1.5zM28.74 36A4.88 4.88 0 0 0 24 32.25 4.88 4.88 0 0 0 19.26 36H6v3h13.5a4.88 4.88 0 0 0 4.5 3 4.89 4.89 0 0 0 4.5-3H42v-3zm-2.865 1.125a1.876 1.876 0 0 1-3.75 0c0-.424.146-.81.386-1.125.341-.454.881-.75 1.489-.75s1.148.296 1.489.75c.24.315.386.701.386 1.125"/>
</svg>