<svg xmlns="http://www.w3.org/2000/svg" width="48" height="48" fill="none" viewBox="0 0 48 48">
    <path fill="#fff" d="M44.813 24c0-11.426-9.173-20.741-20.54-20.989q-.09-.006-.18-.007c.03 0 .06-.004.095-.004-.038 0-.08.004-.117.004C24.05 3.004 24.026 3 24 3s-.045.004-.071.004c-.038 0-.079-.004-.116-.004.03 0 .063.004.093.004q-.09.001-.18.007C12.36 3.26 3.188 12.574 3.188 24s9.172 20.741 20.538 20.989q.09.006.18.007-.044.002-.093.004c.037 0 .078-.004.116-.004q.033.002.071.004c.026 0 .045-.004.071-.004q.059.002.116.004c-.03 0-.063-.004-.093-.004q.09-.001.18-.007C35.64 44.74 44.813 35.426 44.813 24M24 6c2.392 0 5.681 6.24 5.977 16.5h-11.95C18.318 12.24 21.606 6 24 6m5.977 19.5C29.682 35.76 26.393 42 24 42s-5.681-6.24-5.977-16.5zm-.614 15.623c2.197-3.743 3.435-9.69 3.61-15.623h8.772c-.607 7.328-5.621 13.425-12.382 15.623M41.745 22.5h-8.771c-.18-5.929-1.414-11.88-3.611-15.622 6.76 2.197 11.775 8.295 12.382 15.622M18.638 6.878c-2.198 3.742-3.436 9.69-3.612 15.622H6.255c.607-7.328 5.621-13.425 12.383-15.622M6.255 25.5h8.771c.18 5.929 1.414 11.88 3.611 15.623-6.76-2.198-11.775-8.295-12.382-15.623"/>
</svg>