<svg xmlns="http://www.w3.org/2000/svg" width="109" height="143" viewBox="0 0 109 143" fill="none">
    <path d="M87.6963 0C90.7061 0.000225673 93.1455 2.91036 93.1455 6.5C93.1455 6.69915 93.1377 6.89624 93.123 7.09082H93.1689C93.1543 6.8966 93.1455 6.69975 93.1455 6.50098C93.1456 2.91128 95.5858 0.000976406 98.5957 0.000976562C101.605 0.00113637 104.046 2.91138 104.046 6.50098C104.046 6.69973 104.037 6.89661 104.022 7.09082H104.046V7.11816C106.823 7.41699 109 10.2004 109 13.5908C109 16.9812 106.823 19.7636 104.046 20.0625V20.1182C106.823 20.417 109 23.2004 109 26.5908C109 29.9812 106.823 32.7636 104.046 33.0625V33.1182C106.823 33.417 109 36.2004 109 39.5908C109 42.9811 106.823 45.7626 104.046 46.0615V46.1182C106.823 46.417 109 49.2004 109 52.5908C109 55.9811 106.823 58.7626 104.046 59.0615V59.1182C106.823 59.417 109 62.2004 109 65.5908C109 68.981 106.823 71.7626 104.046 72.0615V72.1182C106.823 72.417 109 75.2004 109 78.5908C109 81.981 106.823 84.7626 104.046 85.0615V85.1182C106.823 85.417 109 88.1997 109 91.5898C109 94.9802 106.823 97.7626 104.046 98.0615V98.1182C106.823 98.417 109 101.2 109 104.59C109 107.98 106.823 110.763 104.046 111.062V111.118C106.823 111.417 109 114.2 109 117.59C109 120.98 106.823 123.763 104.046 124.062V124.118C106.823 124.417 109 127.2 109 130.59C109 133.98 106.823 136.763 104.046 137.062V137.09H104.021C103.772 140.403 101.439 143 98.5957 143C95.7524 143 93.4188 140.403 93.1689 137.09H93.123C92.8728 140.403 90.5391 142.999 87.6963 142.999C84.8534 142.999 82.5199 140.403 82.2695 137.09H82.2227C81.9723 140.403 79.6387 142.999 76.7959 142.999C73.953 142.999 71.6195 140.403 71.3691 137.09H71.3223C71.0719 140.403 68.7375 142.999 65.8945 142.999C63.0518 142.999 60.7181 140.403 60.4678 137.09H60.4219C60.1716 140.403 57.8381 142.999 54.9951 142.999C52.1523 142.999 49.8186 140.403 49.5684 137.09H49.5225C49.2722 140.403 46.9386 142.999 44.0957 142.999C41.2528 142.999 38.9193 140.403 38.6689 137.09H38.623C38.3732 140.403 36.0394 143 33.1963 143C30.353 143 28.0194 140.403 27.7695 137.09H27.7227C27.4724 140.403 25.1387 142.999 22.2959 142.999C19.453 142.999 17.1185 140.403 16.8682 137.09H16.8223C16.5719 140.403 14.2383 142.999 11.3955 142.999C8.55261 142.999 6.21913 140.403 5.96875 137.09H5.94531V137.062C5.78217 137.079 5.61716 137.09 5.4502 137.09C2.44024 137.09 0 134.18 0 130.59C6.78827e-05 127 2.44029 124.09 5.4502 124.09C5.61715 124.09 5.78218 124.101 5.94531 124.118V124.062C5.78217 124.079 5.61717 124.09 5.4502 124.09C2.44024 124.09 0 121.18 0 117.59C0.000115687 114 2.44031 111.09 5.4502 111.09C5.61715 111.09 5.78219 111.101 5.94531 111.118V111.062C5.78216 111.079 5.61717 111.09 5.4502 111.09C2.44024 111.09 0 108.18 0 104.59C0.00016349 101 2.44034 98.0898 5.4502 98.0898C5.61714 98.0899 5.78219 98.1006 5.94531 98.1182V98.0615C5.78216 98.0791 5.61717 98.0898 5.4502 98.0898C2.44024 98.0898 0 95.1797 0 91.5898C0.000211293 88.0002 2.44037 85.0908 5.4502 85.0908C5.61714 85.0908 5.78219 85.1006 5.94531 85.1182V85.0615C5.78216 85.0791 5.61718 85.0908 5.4502 85.0908C2.44036 85.0908 0.000183406 82.1805 0 78.5908C0 75.001 2.44024 72.0908 5.4502 72.0908C5.61714 72.0908 5.7822 72.1006 5.94531 72.1182V72.0615C5.78215 72.0791 5.61718 72.0908 5.4502 72.0908C2.44033 72.0908 0.000135603 69.1805 0 65.5908C0 62.001 2.44024 59.0908 5.4502 59.0908C5.61713 59.0908 5.7822 59.1006 5.94531 59.1182V59.0615C5.78215 59.0791 5.61719 59.0908 5.4502 59.0908C2.4403 59.0908 8.77984e-05 56.1806 0 52.5908C0 49.001 2.44024 46.0908 5.4502 46.0908C5.61713 46.0908 5.7822 46.1006 5.94531 46.1182V46.0615C5.78215 46.0791 5.61719 46.0908 5.4502 46.0908C2.44027 46.0908 3.99924e-05 43.1806 0 39.5908C0 36.001 2.44024 33.0908 5.4502 33.0908C5.61713 33.0908 5.78221 33.1006 5.94531 33.1182V33.0625C5.78218 33.08 5.61716 33.0908 5.4502 33.0908C2.44024 33.0908 0 30.1806 0 26.5908C7.81499e-06 23.001 2.44025 20.0908 5.4502 20.0908C5.61712 20.0908 5.78221 20.1006 5.94531 20.1182V20.0625C5.78217 20.08 5.61716 20.0908 5.4502 20.0908C2.44024 20.0908 0 17.1806 0 13.5908C5.56208e-05 10.0011 2.44028 7.09082 5.4502 7.09082C5.61712 7.09083 5.78221 7.10064 5.94531 7.11816V7.09082H5.96875C5.95404 6.89619 5.94531 6.69919 5.94531 6.5C5.94531 2.91018 8.38556 -1.56916e-07 11.3955 0C14.4053 0.000209841 16.8447 2.91031 16.8447 6.5C16.8447 6.69918 16.837 6.89621 16.8223 7.09082H16.8682C16.8535 6.89621 16.8447 6.69918 16.8447 6.5C16.8447 2.91018 19.2859 -1.56916e-07 22.2959 0C25.3056 0.000286117 27.7451 2.9104 27.7451 6.5C27.7451 6.69914 27.7374 6.89624 27.7227 7.09082H27.7695C27.7549 6.89659 27.7461 6.69975 27.7461 6.50098C27.7462 2.91128 30.1864 0.000976406 33.1963 0.000976562C36.206 0.00120253 38.6454 2.91142 38.6455 6.50098C38.6455 6.69973 38.6377 6.89661 38.623 7.09082H38.6689C38.6542 6.89623 38.6455 6.69916 38.6455 6.5C38.6455 2.91022 41.0858 -1.56915e-07 44.0957 0C47.1056 7.72886e-05 49.5459 2.91027 49.5459 6.5C49.5459 6.69915 49.5372 6.89624 49.5225 7.09082H49.5684C49.5537 6.89624 49.5459 6.69915 49.5459 6.5C49.5459 2.91035 51.9853 0.000217584 54.9951 0C58.005 1.56915e-07 60.4453 2.91022 60.4453 6.5C60.4453 6.69915 60.4366 6.89623 60.4219 7.09082H60.4678C60.4531 6.89624 60.4453 6.69914 60.4453 6.5C60.4454 2.91039 62.8848 0.000283441 65.8945 0C68.9045 1.56915e-07 71.3457 2.91022 71.3457 6.5C71.3457 6.69915 71.337 6.89623 71.3223 7.09082H71.3691C71.3544 6.89622 71.3457 6.69916 71.3457 6.5C71.3457 2.91022 73.786 -1.56915e-07 76.7959 0C79.8056 0.000246832 82.2461 2.91037 82.2461 6.5C82.2461 6.69916 82.2374 6.89623 82.2227 7.09082H82.2695C82.2548 6.89622 82.2461 6.69916 82.2461 6.5C82.2461 2.91022 84.6864 -1.56915e-07 87.6963 0Z" fill="#997BED"/>
</svg>