<svg width="706" height="444" viewBox="0 0 706 444" fill="none" xmlns="http://www.w3.org/2000/svg">
<rect width="706" height="444" fill="white"/>
<path d="M360.5 217.5L360.15 217.5L360.5 217.5ZM374.5 231.5L374.5 231.15L374.5 231.5ZM527 231.5L527 231.85L527 231.5ZM541 282.5L538.979 279L543.021 279L541 282.5ZM360.85 170L360.85 217.5L360.15 217.5L360.15 170L360.85 170ZM374.5 231.15L527 231.15L527 231.85L374.5 231.85L374.5 231.15ZM541.35 245.5L541.35 279.35L540.65 279.35L540.65 245.5L541.35 245.5ZM527 231.15C534.925 231.15 541.35 237.575 541.35 245.5L540.65 245.5C540.65 237.961 534.539 231.85 527 231.85L527 231.15ZM360.85 217.5C360.85 225.039 366.961 231.15 374.5 231.15L374.5 231.85C366.575 231.85 360.15 225.425 360.15 217.5L360.85 217.5Z" fill="black"/>
<rect x="458" y="288" width="167" height="46" rx="12" fill="#DBC6FF"/>
<path d="M489.101 306.6H490.157L494.669 313.416V306.6H495.665V315H494.597L490.097 308.184V315H489.101V306.6ZM500.167 308.712C500.631 308.712 501.039 308.798 501.391 308.97C501.743 309.138 502.015 309.386 502.207 309.714C502.403 310.038 502.501 310.424 502.501 310.872V315H501.565V312.702H501.817C501.817 313.214 501.729 313.654 501.553 314.022C501.377 314.386 501.125 314.664 500.797 314.856C500.469 315.048 500.079 315.144 499.627 315.144C499.235 315.144 498.881 315.068 498.565 314.916C498.249 314.764 498.001 314.554 497.821 314.286C497.641 314.018 497.551 313.714 497.551 313.374C497.551 313.054 497.633 312.76 497.797 312.492C497.965 312.22 498.195 311.998 498.487 311.826C498.783 311.654 499.115 311.548 499.483 311.508L501.121 311.328C501.257 311.312 501.363 311.256 501.439 311.16C501.515 311.064 501.553 310.922 501.553 310.734L501.625 311.994L499.615 312.216C499.407 312.24 499.221 312.302 499.057 312.402C498.897 312.502 498.771 312.632 498.679 312.792C498.591 312.952 498.547 313.128 498.547 313.32C498.547 313.528 498.601 313.712 498.709 313.872C498.821 314.032 498.975 314.158 499.171 314.25C499.367 314.338 499.591 314.382 499.843 314.382C500.187 314.382 500.487 314.312 500.743 314.172C501.003 314.032 501.203 313.836 501.343 313.584C501.483 313.328 501.553 313.034 501.553 312.702V310.746C501.553 310.502 501.495 310.288 501.379 310.104C501.263 309.916 501.099 309.772 500.887 309.672C500.679 309.568 500.437 309.516 500.161 309.516C499.885 309.516 499.637 309.564 499.417 309.66C499.197 309.752 499.019 309.878 498.883 310.038C498.751 310.194 498.671 310.364 498.643 310.548H497.683C497.731 310.2 497.867 309.888 498.091 309.612C498.319 309.332 498.613 309.112 498.973 308.952C499.333 308.792 499.731 308.712 500.167 308.712ZM506.397 315C506.105 315 505.839 314.938 505.599 314.814C505.363 314.686 505.177 314.512 505.041 314.292C504.905 314.068 504.837 313.82 504.837 313.548L504.831 309.708H503.751L503.757 308.856H504.423C504.575 308.856 504.697 308.808 504.789 308.712C504.885 308.616 504.933 308.494 504.933 308.346V307.356H505.797V308.856H507.279L507.273 309.708H505.791L505.797 313.488C505.797 313.676 505.859 313.834 505.983 313.962C506.111 314.086 506.269 314.148 506.457 314.148H507.273V315H506.397ZM508.946 308.856H509.906V315H508.946V308.856ZM509.99 306.6V307.74H508.862V306.6H509.99ZM511.207 308.856H512.251L514.123 313.716L515.935 308.856H516.955L514.537 315H513.637L511.207 308.856ZM520.642 315.144C520.066 315.144 519.548 315.006 519.088 314.73C518.628 314.454 518.268 314.072 518.008 313.584C517.752 313.092 517.624 312.536 517.624 311.916C517.624 311.312 517.754 310.766 518.014 310.278C518.278 309.79 518.64 309.408 519.1 309.132C519.56 308.852 520.074 308.712 520.642 308.712C521.222 308.712 521.73 308.85 522.166 309.126C522.606 309.402 522.944 309.784 523.18 310.272C523.42 310.76 523.54 311.312 523.54 311.928V312.162H518.578L518.59 311.898C518.594 312.362 518.686 312.778 518.866 313.146C519.05 313.51 519.302 313.794 519.622 313.998C519.942 314.202 520.302 314.304 520.702 314.304C520.97 314.304 521.218 314.272 521.446 314.208C521.678 314.14 521.878 314.044 522.046 313.92C522.218 313.792 522.35 313.644 522.442 313.476H523.402C523.33 313.732 523.178 313.988 522.946 314.244C522.718 314.5 522.406 314.714 522.01 314.886C521.618 315.058 521.162 315.144 520.642 315.144ZM518.578 311.37H522.58V311.916C522.58 311.444 522.506 311.032 522.358 310.68C522.21 310.324 521.99 310.048 521.698 309.852C521.41 309.656 521.062 309.558 520.654 309.558C520.246 309.558 519.886 309.654 519.574 309.846C519.262 310.034 519.02 310.304 518.848 310.656C518.676 311.004 518.59 311.41 518.59 311.874L518.578 311.37ZM530.228 315.144C529.652 315.144 529.134 315.006 528.674 314.73C528.214 314.454 527.854 314.072 527.594 313.584C527.338 313.092 527.21 312.536 527.21 311.916C527.21 311.312 527.34 310.766 527.6 310.278C527.864 309.79 528.226 309.408 528.686 309.132C529.146 308.852 529.66 308.712 530.228 308.712C530.808 308.712 531.316 308.85 531.752 309.126C532.192 309.402 532.53 309.784 532.766 310.272C533.006 310.76 533.126 311.312 533.126 311.928V312.162H528.164L528.176 311.898C528.18 312.362 528.272 312.778 528.452 313.146C528.636 313.51 528.888 313.794 529.208 313.998C529.528 314.202 529.888 314.304 530.288 314.304C530.556 314.304 530.804 314.272 531.032 314.208C531.264 314.14 531.464 314.044 531.632 313.92C531.804 313.792 531.936 313.644 532.028 313.476H532.988C532.916 313.732 532.764 313.988 532.532 314.244C532.304 314.5 531.992 314.714 531.596 314.886C531.204 315.058 530.748 315.144 530.228 315.144ZM528.164 311.37H532.166V311.916C532.166 311.444 532.092 311.032 531.944 310.68C531.796 310.324 531.576 310.048 531.284 309.852C530.996 309.656 530.648 309.558 530.24 309.558C529.832 309.558 529.472 309.654 529.16 309.846C528.848 310.034 528.606 310.304 528.434 310.656C528.262 311.004 528.176 311.41 528.176 311.874L528.164 311.37ZM536.268 312.258L536.142 312.018L533.892 308.856H535.008L536.76 311.376L536.868 311.574L539.292 315H538.176L536.268 312.258ZM536.208 311.55L536.382 311.346L538.086 308.856H539.178L536.934 312.054L536.67 312.378L534.876 315H533.784L536.208 311.55ZM542.966 315.144C542.39 315.144 541.872 315.006 541.412 314.73C540.952 314.454 540.592 314.072 540.332 313.584C540.076 313.092 539.948 312.536 539.948 311.916C539.948 311.312 540.078 310.766 540.338 310.278C540.602 309.79 540.964 309.408 541.424 309.132C541.884 308.852 542.398 308.712 542.966 308.712C543.546 308.712 544.054 308.85 544.49 309.126C544.93 309.402 545.268 309.784 545.504 310.272C545.744 310.76 545.864 311.312 545.864 311.928V312.162H540.902L540.914 311.898C540.918 312.362 541.01 312.778 541.19 313.146C541.374 313.51 541.626 313.794 541.946 313.998C542.266 314.202 542.626 314.304 543.026 314.304C543.294 314.304 543.542 314.272 543.77 314.208C544.002 314.14 544.202 314.044 544.37 313.92C544.542 313.792 544.674 313.644 544.766 313.476H545.726C545.654 313.732 545.502 313.988 545.27 314.244C545.042 314.5 544.73 314.714 544.334 314.886C543.942 315.058 543.486 315.144 542.966 315.144ZM540.902 311.37H544.904V311.916C544.904 311.444 544.83 311.032 544.682 310.68C544.534 310.324 544.314 310.048 544.022 309.852C543.734 309.656 543.386 309.558 542.978 309.558C542.57 309.558 542.21 309.654 541.898 309.846C541.586 310.034 541.344 310.304 541.172 310.656C541 311.004 540.914 311.41 540.914 311.874L540.902 311.37ZM549.993 315.144C549.413 315.144 548.889 315.004 548.421 314.724C547.953 314.444 547.585 314.06 547.317 313.572C547.053 313.08 546.921 312.532 546.921 311.928C546.921 311.324 547.053 310.778 547.317 310.29C547.585 309.798 547.953 309.412 548.421 309.132C548.889 308.852 549.413 308.712 549.993 308.712C550.485 308.712 550.927 308.796 551.319 308.964C551.711 309.128 552.037 309.376 552.297 309.708C552.557 310.036 552.735 310.44 552.831 310.92H551.871C551.783 310.624 551.645 310.376 551.457 310.176C551.269 309.976 551.049 309.828 550.797 309.732C550.545 309.632 550.277 309.582 549.993 309.582C549.597 309.582 549.241 309.682 548.925 309.882C548.613 310.082 548.369 310.36 548.193 310.716C548.017 311.072 547.929 311.476 547.929 311.928C547.929 312.376 548.017 312.778 548.193 313.134C548.369 313.49 548.613 313.77 548.925 313.974C549.241 314.174 549.597 314.274 549.993 314.274C550.277 314.274 550.545 314.226 550.797 314.13C551.049 314.03 551.269 313.88 551.457 313.68C551.645 313.48 551.783 313.232 551.871 312.936H552.831C552.739 313.4 552.559 313.798 552.291 314.13C552.023 314.462 551.691 314.714 551.295 314.886C550.899 315.058 550.465 315.144 549.993 315.144ZM559.432 315H558.508V312.342H558.892C558.892 312.91 558.794 313.406 558.598 313.83C558.402 314.25 558.122 314.574 557.758 314.802C557.394 315.03 556.966 315.144 556.474 315.144C556.034 315.144 555.644 315.05 555.304 314.862C554.964 314.674 554.696 314.398 554.5 314.034C554.308 313.666 554.212 313.226 554.212 312.714V308.856H555.172V312.618C555.172 312.974 555.234 313.278 555.358 313.53C555.486 313.782 555.666 313.974 555.898 314.106C556.13 314.238 556.406 314.304 556.726 314.304C557.07 314.304 557.374 314.228 557.638 314.076C557.902 313.924 558.106 313.712 558.25 313.44C558.398 313.164 558.472 312.85 558.472 312.498V308.856H559.432V315ZM563.503 315C563.211 315 562.945 314.938 562.705 314.814C562.469 314.686 562.283 314.512 562.147 314.292C562.011 314.068 561.943 313.82 561.943 313.548L561.937 309.708H560.857L560.863 308.856H561.529C561.681 308.856 561.803 308.808 561.895 308.712C561.991 308.616 562.039 308.494 562.039 308.346V307.356H562.903V308.856H564.385L564.379 309.708H562.897L562.903 313.488C562.903 313.676 562.965 313.834 563.089 313.962C563.217 314.086 563.375 314.148 563.563 314.148H564.379V315H563.503ZM568.218 308.712C568.682 308.712 569.09 308.798 569.442 308.97C569.794 309.138 570.066 309.386 570.258 309.714C570.454 310.038 570.552 310.424 570.552 310.872V315H569.616V312.702H569.868C569.868 313.214 569.78 313.654 569.604 314.022C569.428 314.386 569.176 314.664 568.848 314.856C568.52 315.048 568.13 315.144 567.678 315.144C567.286 315.144 566.932 315.068 566.616 314.916C566.3 314.764 566.052 314.554 565.872 314.286C565.692 314.018 565.602 313.714 565.602 313.374C565.602 313.054 565.684 312.76 565.848 312.492C566.016 312.22 566.246 311.998 566.538 311.826C566.834 311.654 567.166 311.548 567.534 311.508L569.172 311.328C569.308 311.312 569.414 311.256 569.49 311.16C569.566 311.064 569.604 310.922 569.604 310.734L569.676 311.994L567.666 312.216C567.458 312.24 567.272 312.302 567.108 312.402C566.948 312.502 566.822 312.632 566.73 312.792C566.642 312.952 566.598 313.128 566.598 313.32C566.598 313.528 566.652 313.712 566.76 313.872C566.872 314.032 567.026 314.158 567.222 314.25C567.418 314.338 567.642 314.382 567.894 314.382C568.238 314.382 568.538 314.312 568.794 314.172C569.054 314.032 569.254 313.836 569.394 313.584C569.534 313.328 569.604 313.034 569.604 312.702V310.746C569.604 310.502 569.546 310.288 569.43 310.104C569.314 309.916 569.15 309.772 568.938 309.672C568.73 309.568 568.488 309.516 568.212 309.516C567.936 309.516 567.688 309.564 567.468 309.66C567.248 309.752 567.07 309.878 566.934 310.038C566.802 310.194 566.722 310.364 566.694 310.548H565.734C565.782 310.2 565.918 309.888 566.142 309.612C566.37 309.332 566.664 309.112 567.024 308.952C567.384 308.792 567.782 308.712 568.218 308.712ZM572.474 306.6H573.434V315H572.474V306.6ZM575.678 315.144C575.15 315.144 574.684 315.028 574.28 314.796C573.876 314.56 573.56 314.232 573.332 313.812C573.108 313.388 572.992 312.898 572.984 312.342H573.38V311.514H572.984C572.992 310.958 573.108 310.47 573.332 310.05C573.56 309.626 573.876 309.298 574.28 309.066C574.684 308.83 575.15 308.712 575.678 308.712C576.25 308.712 576.758 308.848 577.202 309.12C577.65 309.388 577.998 309.766 578.246 310.254C578.498 310.742 578.624 311.3 578.624 311.928C578.624 312.556 578.498 313.114 578.246 313.602C577.998 314.09 577.65 314.47 577.202 314.742C576.758 315.01 576.25 315.144 575.678 315.144ZM575.528 314.274C575.936 314.274 576.298 314.176 576.614 313.98C576.93 313.78 577.176 313.504 577.352 313.152C577.528 312.796 577.616 312.388 577.616 311.928C577.616 311.468 577.528 311.062 577.352 310.71C577.176 310.354 576.93 310.078 576.614 309.882C576.298 309.682 575.936 309.582 575.528 309.582C575.116 309.582 574.75 309.682 574.43 309.882C574.11 310.078 573.86 310.354 573.68 310.71C573.504 311.062 573.416 311.468 573.416 311.928C573.416 312.388 573.504 312.796 573.68 313.152C573.86 313.504 574.11 313.78 574.43 313.98C574.75 314.176 575.116 314.274 575.528 314.274ZM580.196 306.6H581.156V315H580.196V306.6ZM585.751 315.144C585.175 315.144 584.657 315.006 584.197 314.73C583.737 314.454 583.377 314.072 583.117 313.584C582.861 313.092 582.733 312.536 582.733 311.916C582.733 311.312 582.863 310.766 583.123 310.278C583.387 309.79 583.749 309.408 584.209 309.132C584.669 308.852 585.183 308.712 585.751 308.712C586.331 308.712 586.839 308.85 587.275 309.126C587.715 309.402 588.053 309.784 588.289 310.272C588.529 310.76 588.649 311.312 588.649 311.928V312.162H583.687L583.699 311.898C583.703 312.362 583.795 312.778 583.975 313.146C584.159 313.51 584.411 313.794 584.731 313.998C585.051 314.202 585.411 314.304 585.811 314.304C586.079 314.304 586.327 314.272 586.555 314.208C586.787 314.14 586.987 314.044 587.155 313.92C587.327 313.792 587.459 313.644 587.551 313.476H588.511C588.439 313.732 588.287 313.988 588.055 314.244C587.827 314.5 587.515 314.714 587.119 314.886C586.727 315.058 586.271 315.144 585.751 315.144ZM583.687 311.37H587.689V311.916C587.689 311.444 587.615 311.032 587.467 310.68C587.319 310.324 587.099 310.048 586.807 309.852C586.519 309.656 586.171 309.558 585.763 309.558C585.355 309.558 584.995 309.654 584.683 309.846C584.371 310.034 584.129 310.304 583.957 310.656C583.785 311.004 583.699 311.41 583.699 311.874L583.687 311.37ZM592.256 315.144C591.792 315.144 591.372 315.07 590.996 314.922C590.624 314.774 590.326 314.568 590.102 314.304C589.882 314.036 589.764 313.734 589.748 313.398H590.726C590.742 313.582 590.818 313.748 590.954 313.896C591.09 314.04 591.27 314.154 591.494 314.238C591.718 314.322 591.968 314.364 592.244 314.364C592.524 314.364 592.77 314.318 592.982 314.226C593.198 314.134 593.364 314.006 593.48 313.842C593.6 313.678 593.66 313.492 593.66 313.284C593.66 313.136 593.632 313.002 593.576 312.882C593.52 312.762 593.438 312.664 593.33 312.588C593.226 312.508 593.098 312.454 592.946 312.426L591.464 312.156C591.152 312.1 590.882 311.996 590.654 311.844C590.43 311.692 590.258 311.5 590.138 311.268C590.022 311.032 589.964 310.764 589.964 310.464C589.964 310.14 590.056 309.846 590.24 309.582C590.428 309.314 590.69 309.102 591.026 308.946C591.362 308.79 591.746 308.712 592.178 308.712C592.606 308.712 592.992 308.782 593.336 308.922C593.68 309.062 593.954 309.256 594.158 309.504C594.362 309.752 594.472 310.028 594.488 310.332H593.51C593.498 310.172 593.432 310.028 593.312 309.9C593.196 309.772 593.04 309.672 592.844 309.6C592.648 309.528 592.428 309.492 592.184 309.492C591.936 309.492 591.716 309.534 591.524 309.618C591.332 309.702 591.182 309.818 591.074 309.966C590.97 310.11 590.918 310.274 590.918 310.458C590.918 310.598 590.942 310.722 590.99 310.83C591.042 310.934 591.118 311.022 591.218 311.094C591.322 311.162 591.45 311.21 591.602 311.238L593.12 311.508C593.432 311.564 593.7 311.674 593.924 311.838C594.152 312.002 594.324 312.206 594.44 312.45C594.56 312.694 594.62 312.96 594.62 313.248C594.62 313.608 594.516 313.932 594.308 314.22C594.104 314.508 593.822 314.734 593.462 314.898C593.102 315.062 592.7 315.144 592.256 315.144Z" fill="black"/>
<rect x="81" y="288" width="167" height="46" rx="12" fill="#D7C6FF"/>
<path d="M123.754 314.07H125.182C125.418 314.07 125.626 314.02 125.806 313.92C125.99 313.82 126.132 313.68 126.232 313.5C126.332 313.316 126.382 313.106 126.382 312.87V306.6H127.378V312.93C127.378 313.334 127.288 313.694 127.108 314.01C126.928 314.322 126.676 314.566 126.352 314.742C126.028 314.914 125.658 315 125.242 315H123.754V314.07ZM128.863 306.6H129.955L132.613 313.71L135.175 306.6H136.279L133.093 315H132.073L128.863 306.6ZM137.829 306.6H139.071L142.083 313.332L142.239 313.758L142.389 313.332L145.347 306.6H146.613V315H145.617V308.364V308.208L142.647 315H141.813L138.819 308.244V308.364V315H137.829V306.6ZM152.965 313.68V315H151.645V313.68H152.965ZM157.166 315.144C156.586 315.144 156.062 315.004 155.594 314.724C155.126 314.444 154.758 314.06 154.49 313.572C154.226 313.08 154.094 312.532 154.094 311.928C154.094 311.324 154.226 310.778 154.49 310.29C154.758 309.798 155.126 309.412 155.594 309.132C156.062 308.852 156.586 308.712 157.166 308.712C157.658 308.712 158.1 308.796 158.492 308.964C158.884 309.128 159.21 309.376 159.47 309.708C159.73 310.036 159.908 310.44 160.004 310.92H159.044C158.956 310.624 158.818 310.376 158.63 310.176C158.442 309.976 158.222 309.828 157.97 309.732C157.718 309.632 157.45 309.582 157.166 309.582C156.77 309.582 156.414 309.682 156.098 309.882C155.786 310.082 155.542 310.36 155.366 310.716C155.19 311.072 155.102 311.476 155.102 311.928C155.102 312.376 155.19 312.778 155.366 313.134C155.542 313.49 155.786 313.77 156.098 313.974C156.414 314.174 156.77 314.274 157.166 314.274C157.45 314.274 157.718 314.226 157.97 314.13C158.222 314.03 158.442 313.88 158.63 313.68C158.818 313.48 158.956 313.232 159.044 312.936H160.004C159.912 313.4 159.732 313.798 159.464 314.13C159.196 314.462 158.864 314.714 158.468 314.886C158.072 315.058 157.638 315.144 157.166 315.144ZM161.566 306.6H162.526V315H161.566V306.6ZM166.79 308.712C167.254 308.712 167.662 308.798 168.014 308.97C168.366 309.138 168.638 309.386 168.83 309.714C169.026 310.038 169.124 310.424 169.124 310.872V315H168.188V312.702H168.44C168.44 313.214 168.352 313.654 168.176 314.022C168 314.386 167.748 314.664 167.42 314.856C167.092 315.048 166.702 315.144 166.25 315.144C165.858 315.144 165.504 315.068 165.188 314.916C164.872 314.764 164.624 314.554 164.444 314.286C164.264 314.018 164.174 313.714 164.174 313.374C164.174 313.054 164.256 312.76 164.42 312.492C164.588 312.22 164.818 311.998 165.11 311.826C165.406 311.654 165.738 311.548 166.106 311.508L167.744 311.328C167.88 311.312 167.986 311.256 168.062 311.16C168.138 311.064 168.176 310.922 168.176 310.734L168.248 311.994L166.238 312.216C166.03 312.24 165.844 312.302 165.68 312.402C165.52 312.502 165.394 312.632 165.302 312.792C165.214 312.952 165.17 313.128 165.17 313.32C165.17 313.528 165.224 313.712 165.332 313.872C165.444 314.032 165.598 314.158 165.794 314.25C165.99 314.338 166.214 314.382 166.466 314.382C166.81 314.382 167.11 314.312 167.366 314.172C167.626 314.032 167.826 313.836 167.966 313.584C168.106 313.328 168.176 313.034 168.176 312.702V310.746C168.176 310.502 168.118 310.288 168.002 310.104C167.886 309.916 167.722 309.772 167.51 309.672C167.302 309.568 167.06 309.516 166.784 309.516C166.508 309.516 166.26 309.564 166.04 309.66C165.82 309.752 165.642 309.878 165.506 310.038C165.374 310.194 165.294 310.364 165.266 310.548H164.306C164.354 310.2 164.49 309.888 164.714 309.612C164.942 309.332 165.236 309.112 165.596 308.952C165.956 308.792 166.354 308.712 166.79 308.712ZM173.074 315.144C172.61 315.144 172.19 315.07 171.814 314.922C171.442 314.774 171.144 314.568 170.92 314.304C170.7 314.036 170.582 313.734 170.566 313.398H171.544C171.56 313.582 171.636 313.748 171.772 313.896C171.908 314.04 172.088 314.154 172.312 314.238C172.536 314.322 172.786 314.364 173.062 314.364C173.342 314.364 173.588 314.318 173.8 314.226C174.016 314.134 174.182 314.006 174.298 313.842C174.418 313.678 174.478 313.492 174.478 313.284C174.478 313.136 174.45 313.002 174.394 312.882C174.338 312.762 174.256 312.664 174.148 312.588C174.044 312.508 173.916 312.454 173.764 312.426L172.282 312.156C171.97 312.1 171.7 311.996 171.472 311.844C171.248 311.692 171.076 311.5 170.956 311.268C170.84 311.032 170.782 310.764 170.782 310.464C170.782 310.14 170.874 309.846 171.058 309.582C171.246 309.314 171.508 309.102 171.844 308.946C172.18 308.79 172.564 308.712 172.996 308.712C173.424 308.712 173.81 308.782 174.154 308.922C174.498 309.062 174.772 309.256 174.976 309.504C175.18 309.752 175.29 310.028 175.306 310.332H174.328C174.316 310.172 174.25 310.028 174.13 309.9C174.014 309.772 173.858 309.672 173.662 309.6C173.466 309.528 173.246 309.492 173.002 309.492C172.754 309.492 172.534 309.534 172.342 309.618C172.15 309.702 172 309.818 171.892 309.966C171.788 310.11 171.736 310.274 171.736 310.458C171.736 310.598 171.76 310.722 171.808 310.83C171.86 310.934 171.936 311.022 172.036 311.094C172.14 311.162 172.268 311.21 172.42 311.238L173.938 311.508C174.25 311.564 174.518 311.674 174.742 311.838C174.97 312.002 175.142 312.206 175.258 312.45C175.378 312.694 175.438 312.96 175.438 313.248C175.438 313.608 175.334 313.932 175.126 314.22C174.922 314.508 174.64 314.734 174.28 314.898C173.92 315.062 173.518 315.144 173.074 315.144ZM179.027 315.144C178.563 315.144 178.143 315.07 177.767 314.922C177.395 314.774 177.097 314.568 176.873 314.304C176.653 314.036 176.535 313.734 176.519 313.398H177.497C177.513 313.582 177.589 313.748 177.725 313.896C177.861 314.04 178.041 314.154 178.265 314.238C178.489 314.322 178.739 314.364 179.015 314.364C179.295 314.364 179.541 314.318 179.753 314.226C179.969 314.134 180.135 314.006 180.251 313.842C180.371 313.678 180.431 313.492 180.431 313.284C180.431 313.136 180.403 313.002 180.347 312.882C180.291 312.762 180.209 312.664 180.101 312.588C179.997 312.508 179.869 312.454 179.717 312.426L178.235 312.156C177.923 312.1 177.653 311.996 177.425 311.844C177.201 311.692 177.029 311.5 176.909 311.268C176.793 311.032 176.735 310.764 176.735 310.464C176.735 310.14 176.827 309.846 177.011 309.582C177.199 309.314 177.461 309.102 177.797 308.946C178.133 308.79 178.517 308.712 178.949 308.712C179.377 308.712 179.763 308.782 180.107 308.922C180.451 309.062 180.725 309.256 180.929 309.504C181.133 309.752 181.243 310.028 181.259 310.332H180.281C180.269 310.172 180.203 310.028 180.083 309.9C179.967 309.772 179.811 309.672 179.615 309.6C179.419 309.528 179.199 309.492 178.955 309.492C178.707 309.492 178.487 309.534 178.295 309.618C178.103 309.702 177.953 309.818 177.845 309.966C177.741 310.11 177.689 310.274 177.689 310.458C177.689 310.598 177.713 310.722 177.761 310.83C177.813 310.934 177.889 311.022 177.989 311.094C178.093 311.162 178.221 311.21 178.373 311.238L179.891 311.508C180.203 311.564 180.471 311.674 180.695 311.838C180.923 312.002 181.095 312.206 181.211 312.45C181.331 312.694 181.391 312.96 181.391 313.248C181.391 313.608 181.287 313.932 181.079 314.22C180.875 314.508 180.593 314.734 180.233 314.898C179.873 315.062 179.471 315.144 179.027 315.144ZM183.491 309.708H182.411V308.856H183.491V308.052C183.491 307.768 183.557 307.516 183.689 307.296C183.821 307.076 184.005 306.906 184.241 306.786C184.477 306.662 184.747 306.6 185.051 306.6H186.035V307.452H185.111C184.915 307.452 184.755 307.514 184.631 307.638C184.511 307.758 184.451 307.916 184.451 308.112V308.856H185.975V309.708H184.451V315H183.491V309.708ZM187.179 309.708H185.955V308.856H188.139V315H187.179V309.708ZM187.113 306.6H188.241V307.74H187.113V306.6ZM190.253 306.6H191.213V315H190.253V306.6ZM195.808 315.144C195.232 315.144 194.714 315.006 194.254 314.73C193.794 314.454 193.434 314.072 193.174 313.584C192.918 313.092 192.79 312.536 192.79 311.916C192.79 311.312 192.92 310.766 193.18 310.278C193.444 309.79 193.806 309.408 194.266 309.132C194.726 308.852 195.24 308.712 195.808 308.712C196.388 308.712 196.896 308.85 197.332 309.126C197.772 309.402 198.11 309.784 198.346 310.272C198.586 310.76 198.706 311.312 198.706 311.928V312.162H193.744L193.756 311.898C193.76 312.362 193.852 312.778 194.032 313.146C194.216 313.51 194.468 313.794 194.788 313.998C195.108 314.202 195.468 314.304 195.868 314.304C196.136 314.304 196.384 314.272 196.612 314.208C196.844 314.14 197.044 314.044 197.212 313.92C197.384 313.792 197.516 313.644 197.608 313.476H198.568C198.496 313.732 198.344 313.988 198.112 314.244C197.884 314.5 197.572 314.714 197.176 314.886C196.784 315.058 196.328 315.144 195.808 315.144ZM193.744 311.37H197.746V311.916C197.746 311.444 197.672 311.032 197.524 310.68C197.376 310.324 197.156 310.048 196.864 309.852C196.576 309.656 196.228 309.558 195.82 309.558C195.412 309.558 195.052 309.654 194.74 309.846C194.428 310.034 194.186 310.304 194.014 310.656C193.842 311.004 193.756 311.41 193.756 311.874L193.744 311.37ZM202.312 315.144C201.848 315.144 201.428 315.07 201.052 314.922C200.68 314.774 200.382 314.568 200.158 314.304C199.938 314.036 199.82 313.734 199.804 313.398H200.782C200.798 313.582 200.874 313.748 201.01 313.896C201.146 314.04 201.326 314.154 201.55 314.238C201.774 314.322 202.024 314.364 202.3 314.364C202.58 314.364 202.826 314.318 203.038 314.226C203.254 314.134 203.42 314.006 203.536 313.842C203.656 313.678 203.716 313.492 203.716 313.284C203.716 313.136 203.688 313.002 203.632 312.882C203.576 312.762 203.494 312.664 203.386 312.588C203.282 312.508 203.154 312.454 203.002 312.426L201.52 312.156C201.208 312.1 200.938 311.996 200.71 311.844C200.486 311.692 200.314 311.5 200.194 311.268C200.078 311.032 200.02 310.764 200.02 310.464C200.02 310.14 200.112 309.846 200.296 309.582C200.484 309.314 200.746 309.102 201.082 308.946C201.418 308.79 201.802 308.712 202.234 308.712C202.662 308.712 203.048 308.782 203.392 308.922C203.736 309.062 204.01 309.256 204.214 309.504C204.418 309.752 204.528 310.028 204.544 310.332H203.566C203.554 310.172 203.488 310.028 203.368 309.9C203.252 309.772 203.096 309.672 202.9 309.6C202.704 309.528 202.484 309.492 202.24 309.492C201.992 309.492 201.772 309.534 201.58 309.618C201.388 309.702 201.238 309.818 201.13 309.966C201.026 310.11 200.974 310.274 200.974 310.458C200.974 310.598 200.998 310.722 201.046 310.83C201.098 310.934 201.174 311.022 201.274 311.094C201.378 311.162 201.506 311.21 201.658 311.238L203.176 311.508C203.488 311.564 203.756 311.674 203.98 311.838C204.208 312.002 204.38 312.206 204.496 312.45C204.616 312.694 204.676 312.96 204.676 313.248C204.676 313.608 204.572 313.932 204.364 314.22C204.16 314.508 203.878 314.734 203.518 314.898C203.158 315.062 202.756 315.144 202.312 315.144Z" fill="black"/>
<path d="M346.5 217.5L346.85 217.5L346.5 217.5ZM332.5 231.5L332.5 231.15L332.5 231.5ZM180 231.5L180 231.85L180 231.5ZM166 282.5L168.021 279L163.979 279L166 282.5ZM346.15 170L346.15 217.5L346.85 217.5L346.85 170L346.15 170ZM332.5 231.15L180 231.15L180 231.85L332.5 231.85L332.5 231.15ZM165.65 245.5L165.65 279.35L166.35 279.35L166.35 245.5L165.65 245.5ZM180 231.15C172.075 231.15 165.65 237.575 165.65 245.5L166.35 245.5C166.35 237.961 172.461 231.85 180 231.85L180 231.15ZM346.15 217.5C346.15 225.039 340.039 231.15 332.5 231.15L332.5 231.85C340.425 231.85 346.85 225.425 346.85 217.5L346.15 217.5Z" fill="black"/>
<rect x="255" y="119" width="196" height="52" rx="12" fill="url(#paint0_radial_1218_1164)"/>
<path d="M277.446 150.144C276.866 150.144 276.342 150.004 275.874 149.724C275.406 149.444 275.038 149.06 274.77 148.572C274.506 148.08 274.374 147.532 274.374 146.928C274.374 146.324 274.506 145.778 274.77 145.29C275.038 144.798 275.406 144.412 275.874 144.132C276.342 143.852 276.866 143.712 277.446 143.712C277.938 143.712 278.38 143.796 278.772 143.964C279.164 144.128 279.49 144.376 279.75 144.708C280.01 145.036 280.188 145.44 280.284 145.92H279.324C279.236 145.624 279.098 145.376 278.91 145.176C278.722 144.976 278.502 144.828 278.25 144.732C277.998 144.632 277.73 144.582 277.446 144.582C277.05 144.582 276.694 144.682 276.378 144.882C276.066 145.082 275.822 145.36 275.646 145.716C275.47 146.072 275.382 146.476 275.382 146.928C275.382 147.376 275.47 147.778 275.646 148.134C275.822 148.49 276.066 148.77 276.378 148.974C276.694 149.174 277.05 149.274 277.446 149.274C277.73 149.274 277.998 149.226 278.25 149.13C278.502 149.03 278.722 148.88 278.91 148.68C279.098 148.48 279.236 148.232 279.324 147.936H280.284C280.192 148.4 280.012 148.798 279.744 149.13C279.476 149.462 279.144 149.714 278.748 149.886C278.352 150.058 277.918 150.144 277.446 150.144ZM284.455 150.144C283.871 150.144 283.339 150.006 282.859 149.73C282.383 149.45 282.007 149.066 281.731 148.578C281.459 148.086 281.323 147.536 281.323 146.928C281.323 146.32 281.459 145.772 281.731 145.284C282.007 144.792 282.385 144.408 282.865 144.132C283.345 143.852 283.877 143.712 284.461 143.712C285.045 143.712 285.575 143.852 286.051 144.132C286.527 144.408 286.901 144.79 287.173 145.278C287.449 145.766 287.587 146.316 287.587 146.928C287.587 147.54 287.449 148.09 287.173 148.578C286.901 149.066 286.527 149.45 286.051 149.73C285.575 150.006 285.043 150.144 284.455 150.144ZM284.467 149.268C284.867 149.268 285.227 149.17 285.547 148.974C285.867 148.778 286.119 148.504 286.303 148.152C286.487 147.796 286.579 147.388 286.579 146.928C286.579 146.468 286.487 146.06 286.303 145.704C286.119 145.348 285.865 145.072 285.541 144.876C285.221 144.68 284.861 144.582 284.461 144.582C284.061 144.582 283.699 144.68 283.375 144.876C283.051 145.072 282.795 145.348 282.607 145.704C282.423 146.06 282.331 146.468 282.331 146.928C282.331 147.388 282.423 147.796 282.607 148.152C282.795 148.504 283.051 148.778 283.375 148.974C283.703 149.17 284.067 149.268 284.467 149.268ZM289.169 143.856H290.093V146.514H289.769C289.769 145.938 289.857 145.44 290.033 145.02C290.213 144.6 290.471 144.278 290.807 144.054C291.143 143.826 291.543 143.712 292.007 143.712C292.443 143.712 292.825 143.812 293.153 144.012C293.481 144.208 293.735 144.488 293.915 144.852C294.095 145.216 294.185 145.64 294.185 146.124V150H293.225V146.166C293.225 145.83 293.167 145.54 293.051 145.296C292.939 145.048 292.773 144.858 292.553 144.726C292.337 144.594 292.077 144.528 291.773 144.528C291.441 144.528 291.151 144.602 290.903 144.75C290.655 144.898 290.463 145.11 290.327 145.386C290.195 145.662 290.129 145.986 290.129 146.358V150H289.169V143.856ZM297.281 146.166C297.281 145.83 297.223 145.54 297.107 145.296C296.995 145.048 296.831 144.858 296.615 144.726C296.399 144.594 296.137 144.528 295.829 144.528C295.501 144.528 295.213 144.604 294.965 144.756C294.717 144.904 294.525 145.116 294.389 145.392C294.253 145.664 294.185 145.986 294.185 146.358L293.645 146.514C293.645 145.962 293.741 145.474 293.933 145.05C294.125 144.626 294.399 144.298 294.755 144.066C295.115 143.83 295.533 143.712 296.009 143.712C296.445 143.712 296.831 143.812 297.167 144.012C297.507 144.208 297.771 144.488 297.959 144.852C298.147 145.216 298.241 145.64 298.241 146.124V150H297.281V146.166ZM300.161 143.856H301.085V146.514H300.761C300.761 145.938 300.849 145.44 301.025 145.02C301.205 144.6 301.463 144.278 301.799 144.054C302.135 143.826 302.535 143.712 302.999 143.712C303.435 143.712 303.817 143.812 304.145 144.012C304.473 144.208 304.727 144.488 304.907 144.852C305.087 145.216 305.177 145.64 305.177 146.124V150H304.217V146.166C304.217 145.83 304.159 145.54 304.043 145.296C303.931 145.048 303.765 144.858 303.545 144.726C303.329 144.594 303.069 144.528 302.765 144.528C302.433 144.528 302.143 144.602 301.895 144.75C301.647 144.898 301.455 145.11 301.319 145.386C301.187 145.662 301.121 145.986 301.121 146.358V150H300.161V143.856ZM308.273 146.166C308.273 145.83 308.215 145.54 308.099 145.296C307.987 145.048 307.823 144.858 307.607 144.726C307.391 144.594 307.129 144.528 306.821 144.528C306.493 144.528 306.205 144.604 305.957 144.756C305.709 144.904 305.517 145.116 305.381 145.392C305.245 145.664 305.177 145.986 305.177 146.358L304.637 146.514C304.637 145.962 304.733 145.474 304.925 145.05C305.117 144.626 305.391 144.298 305.747 144.066C306.107 143.83 306.525 143.712 307.001 143.712C307.437 143.712 307.823 143.812 308.159 144.012C308.499 144.208 308.763 144.488 308.951 144.852C309.139 145.216 309.233 145.64 309.233 146.124V150H308.273V146.166ZM313.764 150.144C313.18 150.144 312.648 150.006 312.168 149.73C311.692 149.45 311.316 149.066 311.04 148.578C310.768 148.086 310.632 147.536 310.632 146.928C310.632 146.32 310.768 145.772 311.04 145.284C311.316 144.792 311.694 144.408 312.174 144.132C312.654 143.852 313.186 143.712 313.77 143.712C314.354 143.712 314.884 143.852 315.36 144.132C315.836 144.408 316.21 144.79 316.482 145.278C316.758 145.766 316.896 146.316 316.896 146.928C316.896 147.54 316.758 148.09 316.482 148.578C316.21 149.066 315.836 149.45 315.36 149.73C314.884 150.006 314.352 150.144 313.764 150.144ZM313.776 149.268C314.176 149.268 314.536 149.17 314.856 148.974C315.176 148.778 315.428 148.504 315.612 148.152C315.796 147.796 315.888 147.388 315.888 146.928C315.888 146.468 315.796 146.06 315.612 145.704C315.428 145.348 315.174 145.072 314.85 144.876C314.53 144.68 314.17 144.582 313.77 144.582C313.37 144.582 313.008 144.68 312.684 144.876C312.36 145.072 312.104 145.348 311.916 145.704C311.732 146.06 311.64 146.468 311.64 146.928C311.64 147.388 311.732 147.796 311.916 148.152C312.104 148.504 312.36 148.778 312.684 148.974C313.012 149.17 313.376 149.268 313.776 149.268ZM318.478 143.856H319.402V146.514H319.018C319.018 145.946 319.116 145.452 319.312 145.032C319.508 144.608 319.788 144.282 320.152 144.054C320.516 143.826 320.944 143.712 321.436 143.712C321.876 143.712 322.266 143.806 322.606 143.994C322.946 144.182 323.212 144.46 323.404 144.828C323.6 145.192 323.698 145.63 323.698 146.142V150H322.738V146.238C322.738 145.882 322.674 145.578 322.546 145.326C322.422 145.074 322.244 144.882 322.012 144.75C321.78 144.618 321.504 144.552 321.184 144.552C320.84 144.552 320.536 144.628 320.272 144.78C320.008 144.932 319.802 145.146 319.654 145.422C319.51 145.694 319.438 146.006 319.438 146.358V150H318.478V143.856ZM325.854 141.6H327.096L330.108 148.332L330.264 148.758L330.414 148.332L333.372 141.6H334.638V150H333.642V143.364V143.208L330.672 150H329.838L326.844 143.244V143.364V150H325.854V141.6ZM339.148 143.712C339.612 143.712 340.02 143.798 340.372 143.97C340.724 144.138 340.996 144.386 341.188 144.714C341.384 145.038 341.482 145.424 341.482 145.872V150H340.546V147.702H340.798C340.798 148.214 340.71 148.654 340.534 149.022C340.358 149.386 340.106 149.664 339.778 149.856C339.45 150.048 339.06 150.144 338.608 150.144C338.216 150.144 337.862 150.068 337.546 149.916C337.23 149.764 336.982 149.554 336.802 149.286C336.622 149.018 336.532 148.714 336.532 148.374C336.532 148.054 336.614 147.76 336.778 147.492C336.946 147.22 337.176 146.998 337.468 146.826C337.764 146.654 338.096 146.548 338.464 146.508L340.102 146.328C340.238 146.312 340.344 146.256 340.42 146.16C340.496 146.064 340.534 145.922 340.534 145.734L340.606 146.994L338.596 147.216C338.388 147.24 338.202 147.302 338.038 147.402C337.878 147.502 337.752 147.632 337.66 147.792C337.572 147.952 337.528 148.128 337.528 148.32C337.528 148.528 337.582 148.712 337.69 148.872C337.802 149.032 337.956 149.158 338.152 149.25C338.348 149.338 338.572 149.382 338.824 149.382C339.168 149.382 339.468 149.312 339.724 149.172C339.984 149.032 340.184 148.836 340.324 148.584C340.464 148.328 340.534 148.034 340.534 147.702V145.746C340.534 145.502 340.476 145.288 340.36 145.104C340.244 144.916 340.08 144.772 339.868 144.672C339.66 144.568 339.418 144.516 339.142 144.516C338.866 144.516 338.618 144.564 338.398 144.66C338.178 144.752 338 144.878 337.864 145.038C337.732 145.194 337.652 145.364 337.624 145.548H336.664C336.712 145.2 336.848 144.888 337.072 144.612C337.3 144.332 337.594 144.112 337.954 143.952C338.314 143.792 338.712 143.712 339.148 143.712ZM343.404 143.856H344.364V150H343.404V143.856ZM344.448 141.6V142.74H343.32V141.6H344.448ZM346.462 143.856H347.386V146.514H347.002C347.002 145.946 347.1 145.452 347.296 145.032C347.492 144.608 347.772 144.282 348.136 144.054C348.5 143.826 348.928 143.712 349.42 143.712C349.86 143.712 350.25 143.806 350.59 143.994C350.93 144.182 351.196 144.46 351.388 144.828C351.584 145.192 351.682 145.63 351.682 146.142V150H350.722V146.238C350.722 145.882 350.658 145.578 350.53 145.326C350.406 145.074 350.228 144.882 349.996 144.75C349.764 144.618 349.488 144.552 349.168 144.552C348.824 144.552 348.52 144.628 348.256 144.78C347.992 144.932 347.786 145.146 347.638 145.422C347.494 145.694 347.422 146.006 347.422 146.358V150H346.462V143.856ZM356.365 141.6H357.349L353.533 150H352.549L356.365 141.6ZM359.448 148.68V150H358.128V148.68H359.448ZM362.319 148.68V150H360.999V148.68H362.319ZM365.19 148.68V150H363.87V148.68H365.19ZM369.783 141.6H370.767L366.951 150H365.967L369.783 141.6ZM374.287 152.064C373.839 152.064 373.425 151.994 373.045 151.854C372.665 151.714 372.349 151.516 372.097 151.26C371.845 151.004 371.683 150.708 371.611 150.372H372.571C372.659 150.556 372.789 150.712 372.961 150.84C373.133 150.968 373.331 151.064 373.555 151.128C373.779 151.192 374.013 151.224 374.257 151.224C374.649 151.224 374.991 151.144 375.283 150.984C375.579 150.828 375.807 150.608 375.967 150.324C376.127 150.04 376.207 149.712 376.207 149.34V149.088L376.255 147.354L376.753 146.742C376.745 147.286 376.625 147.772 376.393 148.2C376.161 148.624 375.843 148.954 375.439 149.19C375.039 149.426 374.589 149.544 374.089 149.544C373.569 149.544 373.099 149.42 372.679 149.172C372.259 148.92 371.929 148.574 371.689 148.134C371.449 147.69 371.329 147.19 371.329 146.634C371.329 146.078 371.449 145.578 371.689 145.134C371.929 144.69 372.259 144.342 372.679 144.09C373.099 143.838 373.569 143.712 374.089 143.712C374.589 143.712 375.039 143.832 375.439 144.072C375.843 144.312 376.161 144.646 376.393 145.074C376.625 145.502 376.745 145.99 376.753 146.538L376.255 145.998V143.856H377.185L377.167 149.34C377.167 149.872 377.047 150.344 376.807 150.756C376.567 151.172 376.229 151.494 375.793 151.722C375.357 151.95 374.855 152.064 374.287 152.064ZM374.275 148.704C374.639 148.704 374.967 148.614 375.259 148.434C375.555 148.254 375.789 148.006 375.961 147.69C376.133 147.374 376.219 147.022 376.219 146.634C376.219 146.242 376.133 145.888 375.961 145.572C375.789 145.256 375.555 145.008 375.259 144.828C374.967 144.644 374.639 144.552 374.275 144.552C373.907 144.552 373.575 144.644 373.279 144.828C372.983 145.008 372.751 145.256 372.583 145.572C372.419 145.888 372.337 146.242 372.337 146.634C372.337 147.022 372.419 147.374 372.583 147.69C372.751 148.006 372.983 148.254 373.279 148.434C373.575 148.614 373.907 148.704 374.275 148.704ZM379.275 143.856H380.235V145.914L379.833 146.514C379.849 145.962 379.949 145.482 380.133 145.074C380.321 144.662 380.581 144.346 380.913 144.126C381.245 143.906 381.631 143.796 382.071 143.796H382.287V144.798H382.035C381.671 144.798 381.353 144.868 381.081 145.008C380.809 145.148 380.599 145.348 380.451 145.608C380.307 145.864 380.235 146.166 380.235 146.514V150H379.275V143.856ZM386.06 150.144C385.484 150.144 384.966 150.006 384.506 149.73C384.046 149.454 383.686 149.072 383.426 148.584C383.17 148.092 383.042 147.536 383.042 146.916C383.042 146.312 383.172 145.766 383.432 145.278C383.696 144.79 384.058 144.408 384.518 144.132C384.978 143.852 385.492 143.712 386.06 143.712C386.64 143.712 387.148 143.85 387.584 144.126C388.024 144.402 388.362 144.784 388.598 145.272C388.838 145.76 388.958 146.312 388.958 146.928V147.162H383.996L384.008 146.898C384.012 147.362 384.104 147.778 384.284 148.146C384.468 148.51 384.72 148.794 385.04 148.998C385.36 149.202 385.72 149.304 386.12 149.304C386.388 149.304 386.636 149.272 386.864 149.208C387.096 149.14 387.296 149.044 387.464 148.92C387.636 148.792 387.768 148.644 387.86 148.476H388.82C388.748 148.732 388.596 148.988 388.364 149.244C388.136 149.5 387.824 149.714 387.428 149.886C387.036 150.058 386.58 150.144 386.06 150.144ZM383.996 146.37H387.998V146.916C387.998 146.444 387.924 146.032 387.776 145.68C387.628 145.324 387.408 145.048 387.116 144.852C386.828 144.656 386.48 144.558 386.072 144.558C385.664 144.558 385.304 144.654 384.992 144.846C384.68 145.034 384.438 145.304 384.266 145.656C384.094 146.004 384.008 146.41 384.008 146.874L383.996 146.37ZM393.032 150.144C392.456 150.144 391.938 150.006 391.478 149.73C391.018 149.454 390.658 149.072 390.398 148.584C390.142 148.092 390.014 147.536 390.014 146.916C390.014 146.312 390.144 145.766 390.404 145.278C390.668 144.79 391.03 144.408 391.49 144.132C391.95 143.852 392.464 143.712 393.032 143.712C393.612 143.712 394.12 143.85 394.556 144.126C394.996 144.402 395.334 144.784 395.57 145.272C395.81 145.76 395.93 146.312 395.93 146.928V147.162H390.968L390.98 146.898C390.984 147.362 391.076 147.778 391.256 148.146C391.44 148.51 391.692 148.794 392.012 148.998C392.332 149.202 392.692 149.304 393.092 149.304C393.36 149.304 393.608 149.272 393.836 149.208C394.068 149.14 394.268 149.044 394.436 148.92C394.608 148.792 394.74 148.644 394.832 148.476H395.792C395.72 148.732 395.568 148.988 395.336 149.244C395.108 149.5 394.796 149.714 394.4 149.886C394.008 150.058 393.552 150.144 393.032 150.144ZM390.968 146.37H394.97V146.916C394.97 146.444 394.896 146.032 394.748 145.68C394.6 145.324 394.38 145.048 394.088 144.852C393.8 144.656 393.452 144.558 393.044 144.558C392.636 144.558 392.276 144.654 391.964 144.846C391.652 145.034 391.41 145.304 391.238 145.656C391.066 146.004 390.98 146.41 390.98 146.874L390.968 146.37ZM399.483 150C399.191 150 398.925 149.938 398.685 149.814C398.449 149.686 398.263 149.512 398.127 149.292C397.991 149.068 397.923 148.82 397.923 148.548L397.917 144.708H396.837L396.843 143.856H397.509C397.661 143.856 397.783 143.808 397.875 143.712C397.971 143.616 398.019 143.494 398.019 143.346V142.356H398.883V143.856H400.365L400.359 144.708H398.877L398.883 148.488C398.883 148.676 398.945 148.834 399.069 148.962C399.197 149.086 399.355 149.148 399.543 149.148H400.359V150H399.483ZM402.032 143.856H402.992V150H402.032V143.856ZM403.076 141.6V142.74H401.948V141.6H403.076ZM405.091 143.856H406.015V146.514H405.631C405.631 145.946 405.729 145.452 405.925 145.032C406.121 144.608 406.401 144.282 406.765 144.054C407.129 143.826 407.557 143.712 408.049 143.712C408.489 143.712 408.879 143.806 409.219 143.994C409.559 144.182 409.825 144.46 410.017 144.828C410.213 145.192 410.311 145.63 410.311 146.142V150H409.351V146.238C409.351 145.882 409.287 145.578 409.159 145.326C409.035 145.074 408.857 144.882 408.625 144.75C408.393 144.618 408.117 144.552 407.797 144.552C407.453 144.552 407.149 144.628 406.885 144.78C406.621 144.932 406.415 145.146 406.267 145.422C406.123 145.694 406.051 146.006 406.051 146.358V150H405.091V143.856ZM414.694 152.064C414.246 152.064 413.832 151.994 413.452 151.854C413.072 151.714 412.756 151.516 412.504 151.26C412.252 151.004 412.09 150.708 412.018 150.372H412.978C413.066 150.556 413.196 150.712 413.368 150.84C413.54 150.968 413.738 151.064 413.962 151.128C414.186 151.192 414.42 151.224 414.664 151.224C415.056 151.224 415.398 151.144 415.69 150.984C415.986 150.828 416.214 150.608 416.374 150.324C416.534 150.04 416.614 149.712 416.614 149.34V149.088L416.662 147.354L417.16 146.742C417.152 147.286 417.032 147.772 416.8 148.2C416.568 148.624 416.25 148.954 415.846 149.19C415.446 149.426 414.996 149.544 414.496 149.544C413.976 149.544 413.506 149.42 413.086 149.172C412.666 148.92 412.336 148.574 412.096 148.134C411.856 147.69 411.736 147.19 411.736 146.634C411.736 146.078 411.856 145.578 412.096 145.134C412.336 144.69 412.666 144.342 413.086 144.09C413.506 143.838 413.976 143.712 414.496 143.712C414.996 143.712 415.446 143.832 415.846 144.072C416.25 144.312 416.568 144.646 416.8 145.074C417.032 145.502 417.152 145.99 417.16 146.538L416.662 145.998V143.856H417.592L417.574 149.34C417.574 149.872 417.454 150.344 417.214 150.756C416.974 151.172 416.636 151.494 416.2 151.722C415.764 151.95 415.262 152.064 414.694 152.064ZM414.682 148.704C415.046 148.704 415.374 148.614 415.666 148.434C415.962 148.254 416.196 148.006 416.368 147.69C416.54 147.374 416.626 147.022 416.626 146.634C416.626 146.242 416.54 145.888 416.368 145.572C416.196 145.256 415.962 145.008 415.666 144.828C415.374 144.644 415.046 144.552 414.682 144.552C414.314 144.552 413.982 144.644 413.686 144.828C413.39 145.008 413.158 145.256 412.99 145.572C412.826 145.888 412.744 146.242 412.744 146.634C412.744 147.022 412.826 147.374 412.99 147.69C413.158 148.006 413.39 148.254 413.686 148.434C413.982 148.614 414.314 148.704 414.682 148.704ZM420.725 148.68V150H419.405V148.68H420.725ZM422.552 141.6H423.512V146.736L426.296 143.856H427.49L424.688 146.784L427.598 150H426.362L423.512 146.904V150H422.552V141.6ZM430.655 150C430.363 150 430.097 149.938 429.857 149.814C429.621 149.686 429.435 149.512 429.299 149.292C429.163 149.068 429.095 148.82 429.095 148.548L429.089 144.708H428.009L428.015 143.856H428.681C428.833 143.856 428.955 143.808 429.047 143.712C429.143 143.616 429.191 143.494 429.191 143.346V142.356H430.055V143.856H431.537L431.531 144.708H430.049L430.055 148.488C430.055 148.676 430.117 148.834 430.241 148.962C430.369 149.086 430.527 149.148 430.715 149.148H431.531V150H430.655Z" fill="white"/>
<defs>
<radialGradient id="paint0_radial_1218_1164" cx="0" cy="0" r="1" gradientUnits="userSpaceOnUse" gradientTransform="translate(254.451 171.784) scale(191.063 192.458)">
<stop stop-color="#EB4857"/>
<stop offset="0.5" stop-color="#C611E0"/>
<stop offset="1" stop-color="#7F52FF"/>
</radialGradient>
</defs>
</svg>
