<?xml version="1.0" encoding="utf-8"?>
<!-- Generator: Adobe Illustrator 27.5.0, SVG Export Plug-In . SVG Version: 6.00 Build 0)  -->
<svg version="1.1" id="Layer_1" xmlns="http://www.w3.org/2000/svg" xmlns:xlink="http://www.w3.org/1999/xlink" x="0px" y="0px"
	 viewBox="0 0 700 395" style="enable-background:new 0 0 700 395;" xml:space="preserve">
<style type="text/css">
	.st0{fill:#FFFFFF;}
	.st1{fill:none;stroke:#000000;stroke-width:0.5469;stroke-miterlimit:10;}
	.st2{fill:#F2F2F2;}
	.st3{fill:none;stroke:#595959;stroke-width:0.5469;stroke-miterlimit:10;}
	.st4{fill:url(#SVGID_1_);}
	.st5{fill:url(#SVGID_00000098900864707139960920000001066086954963711674_);}
	.st6{fill:url(#SVGID_00000170975441960447722780000007632874878031893410_);}
	.st7{fill:#595959;}
	.st8{fill:url(#SVGID_00000083051868606125931510000000653444947260310957_);}
	.st9{fill:url(#SVGID_00000075850971206603449720000009501609479860343977_);}
	.st10{fill:url(#SVGID_00000146457286410766334600000000300069313158623661_);}
	.st11{fill:url(#SVGID_00000090272023022857387580000008358083221008494998_);}
	.st12{fill:url(#SVGID_00000071524473962999097660000015402730150699643309_);}
	.st13{fill:url(#SVGID_00000178897094517987429050000017891325249891141774_);}
	.st14{fill:url(#SVGID_00000001665129426471867240000014597080203404887447_);}
	.st15{fill:url(#SVGID_00000063630151257146026660000011414325391048439427_);}
	.st16{fill:url(#SVGID_00000086668009582245622370000009244706439091647678_);}
	.st17{fill:url(#SVGID_00000178891001514171488670000005814777022033280906_);}
	.st18{fill:url(#SVGID_00000106855642455979182580000011328921510770939522_);}
	.st19{fill:none;stroke:#000000;stroke-width:0.5469;stroke-miterlimit:10;stroke-dasharray:1.5,2.5,1.5,2.5,1.5,2.5;}
	.st20{fill:url(#SVGID_00000062174409946656823720000005166551907756161409_);}
	.st21{fill:url(#SVGID_00000066513352163507561660000003112414687034369680_);}
	.st22{fill:url(#SVGID_00000143601704524006636380000006630985812300846015_);}
	.st23{fill:url(#SVGID_00000042015010568137835020000007288929579915289007_);}
	.st24{fill:url(#SVGID_00000125590256888640885220000010687052713361874049_);}
	.st25{fill:url(#SVGID_00000125572703565694252240000015826065802171120056_);}
	.st26{fill:url(#SVGID_00000034065727827096200980000000214671552415281801_);}
	.st27{fill:url(#SVGID_00000149358316420410331220000000277249946639556006_);}
	.st28{fill:url(#SVGID_00000065051538920334011450000012715051473877981615_);}
	.st29{fill:url(#SVGID_00000183969154907331757710000007178059691392979882_);}
	.st30{fill:url(#SVGID_00000025430095832729444160000017104636782303285693_);}
	.st31{fill:url(#SVGID_00000065036541497078358510000002109162806431232397_);}
	.st32{fill:url(#SVGID_00000114753511302676114580000018256253756079962018_);}
	.st33{fill:url(#SVGID_00000067220797479698120540000016131055908943432850_);}
	.st34{fill:url(#SVGID_00000183238312915924370770000000642636206269857176_);}
	.st35{fill:url(#SVGID_00000074430903242643864130000006131778607551142839_);}
	.st36{fill:url(#SVGID_00000129897687468175424650000009897226481778264753_);}
	.st37{fill:url(#SVGID_00000172431143734769623390000016245479064348065417_);}
	.st38{fill:url(#SVGID_00000017475133882521665820000007994680499657360829_);}
	.st39{fill:url(#SVGID_00000023982952033392962780000010064358542883167138_);}
	.st40{fill:url(#SVGID_00000090293789488107185270000007742369093988705719_);}
	.st41{fill:url(#SVGID_00000008841750691946993310000010664740978972535942_);}
	.st42{fill:#7F52FF;}
	.st43{opacity:0.35;}
	.st44{fill:url(#SVGID_00000091013577038800806280000012875339623106109063_);}
	.st45{fill:none;stroke:#000000;stroke-width:0.4423;stroke-miterlimit:10;}
</style>
<g>
	<rect class="st0" width="700" height="395"/>
	<g>
		<g>
			<g>
				<g>
					<g>
						<path class="st1" d="M342.6,145.2l0,47.52c0,8.05-6.53,14.58-14.58,14.58H176.2c-8.05,0-14.58,6.53-14.58,14.58v32.69"/>
						<g>
							<polygon points="158.89,253.78 161.62,258.5 164.35,253.78 							"/>
						</g>
					</g>
					<g>
						<g>
							<g>
								<path class="st2" d="M234.46,264.04l-145.68,0c-6.04,0-10.94,4.9-10.94,10.94v24.26c0,6.04,4.9,10.94,10.94,10.94l145.68,0
									c6.04,0,10.94-4.9,10.94-10.94v-24.26C245.4,268.94,240.5,264.04,234.46,264.04z"/>
							</g>
						</g>
						<g>
							<g>
								<path d="M118.3,290.48h1.52c0.25,0,0.47-0.05,0.67-0.16c0.19-0.11,0.34-0.26,0.45-0.45c0.11-0.19,0.16-0.42,0.16-0.67v-6.67
									h1.06v6.73c0,0.43-0.1,0.81-0.29,1.15c-0.19,0.33-0.46,0.59-0.8,0.78c-0.34,0.19-0.74,0.28-1.18,0.28h-1.58V290.48z"/>
								<path d="M123.73,282.53h1.16l2.83,7.56l2.72-7.56h1.17l-3.39,8.93h-1.08L123.73,282.53z"/>
								<path d="M133.26,282.53h1.32l3.2,7.16l0.17,0.45l0.16-0.45l3.15-7.16h1.35v8.93h-1.06v-7.06v-0.17l-3.16,7.22h-0.89
									l-3.18-7.18v0.13v7.06h-1.05V282.53z"/>
								<path d="M149.36,290.06v1.4h-1.4v-1.4H149.36z"/>
								<path d="M152.14,291.17c-0.5-0.3-0.89-0.71-1.17-1.23c-0.28-0.52-0.42-1.1-0.42-1.74c0-0.64,0.14-1.22,0.42-1.74
									c0.28-0.52,0.67-0.93,1.17-1.23c0.5-0.3,1.05-0.45,1.67-0.45c0.52,0,0.99,0.09,1.41,0.26s0.76,0.44,1.04,0.79
									c0.28,0.35,0.47,0.78,0.57,1.29h-1.02c-0.09-0.31-0.24-0.58-0.44-0.79s-0.43-0.37-0.7-0.48c-0.27-0.1-0.55-0.16-0.85-0.16
									c-0.42,0-0.8,0.11-1.13,0.32s-0.59,0.51-0.78,0.89s-0.28,0.81-0.28,1.29c0,0.48,0.09,0.9,0.28,1.28
									c0.19,0.38,0.45,0.68,0.78,0.89c0.33,0.21,0.71,0.32,1.13,0.32c0.3,0,0.59-0.05,0.85-0.16c0.27-0.1,0.5-0.26,0.7-0.48
									c0.2-0.21,0.35-0.48,0.44-0.79h1.02c-0.1,0.49-0.29,0.92-0.57,1.27c-0.29,0.35-0.64,0.62-1.06,0.8s-0.88,0.27-1.38,0.27
									C153.2,291.62,152.64,291.47,152.14,291.17z"/>
								<path d="M158.49,282.53h1.02v8.93h-1.02V282.53z"/>
								<path d="M165.35,285.05c0.37,0.18,0.66,0.44,0.87,0.79c0.21,0.35,0.31,0.76,0.31,1.23v4.39h-1v-2.44h0.27
									c0,0.54-0.09,1.01-0.28,1.4c-0.19,0.39-0.46,0.69-0.8,0.89c-0.35,0.2-0.76,0.31-1.24,0.31c-0.42,0-0.79-0.08-1.13-0.24
									s-0.6-0.38-0.79-0.67c-0.19-0.28-0.29-0.61-0.29-0.97c0-0.34,0.09-0.65,0.26-0.94c0.18-0.29,0.42-0.52,0.73-0.7
									c0.31-0.18,0.66-0.3,1.06-0.34l1.74-0.19c0.14-0.02,0.26-0.08,0.34-0.18c0.08-0.1,0.12-0.25,0.12-0.45l0.08,1.34l-2.14,0.24
									c-0.22,0.03-0.42,0.09-0.59,0.2c-0.17,0.11-0.31,0.24-0.4,0.41c-0.1,0.17-0.14,0.36-0.14,0.56c0,0.22,0.06,0.42,0.18,0.59
									c0.12,0.17,0.28,0.3,0.49,0.4c0.21,0.1,0.45,0.14,0.71,0.14c0.37,0,0.69-0.07,0.96-0.22c0.27-0.15,0.49-0.36,0.63-0.63
									c0.15-0.27,0.22-0.58,0.22-0.93v-2.08c0-0.26-0.06-0.49-0.18-0.69c-0.12-0.2-0.3-0.35-0.52-0.46
									c-0.22-0.11-0.48-0.16-0.78-0.16c-0.29,0-0.56,0.05-0.79,0.15c-0.23,0.1-0.42,0.23-0.56,0.4c-0.14,0.17-0.23,0.35-0.26,0.55
									h-1.02c0.05-0.37,0.2-0.7,0.44-1c0.24-0.3,0.55-0.53,0.93-0.7c0.38-0.17,0.81-0.26,1.27-0.26
									C164.54,284.78,164.98,284.87,165.35,285.05z"/>
								<path d="M169.39,291.38c-0.4-0.16-0.71-0.38-0.95-0.66c-0.24-0.28-0.36-0.6-0.38-0.96h1.04c0.02,0.2,0.1,0.37,0.24,0.53
									s0.34,0.28,0.57,0.37s0.5,0.13,0.8,0.13c0.3,0,0.56-0.05,0.79-0.15s0.4-0.23,0.53-0.41c0.12-0.17,0.19-0.37,0.19-0.59
									c0-0.16-0.03-0.3-0.09-0.43s-0.15-0.23-0.26-0.32c-0.11-0.08-0.25-0.14-0.41-0.17l-1.58-0.29
									c-0.33-0.06-0.62-0.17-0.86-0.33s-0.42-0.37-0.55-0.62c-0.13-0.25-0.19-0.53-0.19-0.85c0-0.34,0.1-0.66,0.3-0.94
									c0.2-0.28,0.47-0.51,0.83-0.67s0.77-0.25,1.23-0.25c0.46,0,0.87,0.07,1.23,0.22c0.37,0.15,0.66,0.36,0.87,0.62
									c0.22,0.26,0.33,0.56,0.35,0.88h-1.04c-0.01-0.17-0.08-0.32-0.21-0.46c-0.13-0.14-0.29-0.24-0.5-0.32
									c-0.21-0.08-0.44-0.11-0.7-0.11c-0.26,0-0.5,0.04-0.7,0.13c-0.21,0.09-0.36,0.21-0.48,0.37c-0.11,0.16-0.17,0.33-0.17,0.53
									c0,0.15,0.03,0.28,0.08,0.39c0.05,0.11,0.13,0.21,0.24,0.28c0.11,0.07,0.24,0.13,0.4,0.16l1.61,0.29
									c0.33,0.06,0.62,0.18,0.86,0.35c0.24,0.17,0.42,0.39,0.55,0.65c0.12,0.26,0.19,0.54,0.19,0.85c0,0.38-0.11,0.73-0.33,1.03
									c-0.22,0.31-0.52,0.55-0.9,0.72c-0.38,0.17-0.81,0.26-1.28,0.26C170.24,291.62,169.79,291.54,169.39,291.38z"/>
								<path d="M175.72,291.38c-0.4-0.16-0.71-0.38-0.95-0.66c-0.24-0.28-0.36-0.6-0.38-0.96h1.04c0.02,0.2,0.1,0.37,0.24,0.53
									s0.34,0.28,0.57,0.37s0.5,0.13,0.8,0.13c0.3,0,0.56-0.05,0.79-0.15s0.4-0.23,0.53-0.41c0.12-0.17,0.19-0.37,0.19-0.59
									c0-0.16-0.03-0.3-0.09-0.43s-0.15-0.23-0.26-0.32c-0.11-0.08-0.25-0.14-0.41-0.17l-1.58-0.29
									c-0.33-0.06-0.62-0.17-0.86-0.33s-0.42-0.37-0.55-0.62c-0.13-0.25-0.19-0.53-0.19-0.85c0-0.34,0.1-0.66,0.3-0.94
									c0.2-0.28,0.47-0.51,0.83-0.67s0.77-0.25,1.23-0.25c0.46,0,0.87,0.07,1.23,0.22c0.37,0.15,0.66,0.36,0.87,0.62
									c0.22,0.26,0.33,0.56,0.35,0.88h-1.04c-0.01-0.17-0.08-0.32-0.21-0.46c-0.13-0.14-0.29-0.24-0.5-0.32
									c-0.21-0.08-0.44-0.11-0.7-0.11c-0.26,0-0.5,0.04-0.7,0.13c-0.21,0.09-0.36,0.21-0.48,0.37c-0.11,0.16-0.17,0.33-0.17,0.53
									c0,0.15,0.03,0.28,0.08,0.39c0.05,0.11,0.13,0.21,0.24,0.28c0.11,0.07,0.24,0.13,0.4,0.16l1.61,0.29
									c0.33,0.06,0.62,0.18,0.86,0.35c0.24,0.17,0.42,0.39,0.55,0.65c0.12,0.26,0.19,0.54,0.19,0.85c0,0.38-0.11,0.73-0.33,1.03
									c-0.22,0.31-0.52,0.55-0.9,0.72c-0.38,0.17-0.81,0.26-1.28,0.26C176.57,291.62,176.12,291.54,175.72,291.38z"/>
								<path d="M181.81,285.84h-1.15v-0.91h1.15v-0.85c0-0.3,0.07-0.57,0.21-0.8c0.14-0.23,0.34-0.42,0.59-0.55
									s0.54-0.19,0.86-0.19h1.05v0.91h-0.98c-0.21,0-0.38,0.06-0.51,0.19c-0.13,0.13-0.2,0.3-0.2,0.51v0.79h1.62v0.91h-1.62v5.63
									h-1.02V285.84z"/>
								<path d="M185.73,285.84h-1.3v-0.91h2.32v6.53h-1.02V285.84z M185.66,282.53h1.2v1.21h-1.2V282.53z"/>
								<path d="M189,282.53h1.02v8.93H189V282.53z"/>
								<path d="M193.26,291.18c-0.49-0.29-0.87-0.7-1.15-1.22c-0.27-0.52-0.41-1.11-0.41-1.77c0-0.64,0.14-1.22,0.42-1.74
									c0.28-0.52,0.66-0.93,1.15-1.22c0.49-0.3,1.04-0.44,1.64-0.44c0.62,0,1.16,0.15,1.62,0.44s0.83,0.7,1.08,1.22
									s0.38,1.11,0.38,1.76v0.25h-5.28l0.01-0.28c0,0.49,0.1,0.93,0.3,1.32c0.19,0.39,0.46,0.69,0.8,0.91
									c0.34,0.22,0.72,0.33,1.15,0.33c0.28,0,0.55-0.04,0.79-0.11c0.24-0.07,0.46-0.17,0.64-0.31c0.18-0.13,0.32-0.29,0.42-0.47
									h1.02c-0.08,0.27-0.24,0.54-0.48,0.82c-0.24,0.27-0.58,0.5-1,0.68s-0.91,0.27-1.46,0.27
									C194.3,291.62,193.75,291.47,193.26,291.18z M192.72,287.61h4.25v0.58c0-0.5-0.08-0.94-0.24-1.32s-0.39-0.67-0.7-0.88
									c-0.31-0.21-0.68-0.31-1.11-0.31c-0.43,0-0.82,0.1-1.15,0.3c-0.33,0.2-0.59,0.49-0.77,0.86c-0.18,0.37-0.27,0.8-0.27,1.3
									L192.72,287.61z"/>
								<path d="M200.49,291.38c-0.4-0.16-0.71-0.38-0.95-0.66c-0.24-0.28-0.36-0.6-0.38-0.96h1.04c0.02,0.2,0.1,0.37,0.24,0.53
									s0.34,0.28,0.57,0.37s0.5,0.13,0.8,0.13c0.3,0,0.56-0.05,0.79-0.15s0.4-0.23,0.53-0.41c0.12-0.17,0.19-0.37,0.19-0.59
									c0-0.16-0.03-0.3-0.09-0.43s-0.15-0.23-0.26-0.32c-0.11-0.08-0.25-0.14-0.41-0.17l-1.58-0.29
									c-0.33-0.06-0.62-0.17-0.86-0.33s-0.42-0.37-0.55-0.62c-0.13-0.25-0.19-0.53-0.19-0.85c0-0.34,0.1-0.66,0.3-0.94
									c0.2-0.28,0.47-0.51,0.83-0.67s0.77-0.25,1.23-0.25c0.46,0,0.87,0.07,1.23,0.22c0.37,0.15,0.66,0.36,0.87,0.62
									c0.22,0.26,0.33,0.56,0.35,0.88h-1.04c-0.01-0.17-0.08-0.32-0.21-0.46c-0.13-0.14-0.29-0.24-0.5-0.32
									c-0.21-0.08-0.44-0.11-0.7-0.11c-0.26,0-0.5,0.04-0.7,0.13c-0.21,0.09-0.36,0.21-0.48,0.37c-0.11,0.16-0.17,0.33-0.17,0.53
									c0,0.15,0.03,0.28,0.08,0.39c0.05,0.11,0.13,0.21,0.24,0.28c0.11,0.07,0.24,0.13,0.4,0.16l1.61,0.29
									c0.33,0.06,0.62,0.18,0.86,0.35c0.24,0.17,0.42,0.39,0.55,0.65c0.12,0.26,0.19,0.54,0.19,0.85c0,0.38-0.11,0.73-0.33,1.03
									c-0.22,0.31-0.52,0.55-0.9,0.72c-0.38,0.17-0.81,0.26-1.28,0.26C201.33,291.62,200.89,291.54,200.49,291.38z"/>
							</g>
						</g>
					</g>
				</g>
				<g>
					<g>
						<path class="st1" d="M357.33,145.2v47.52c0,8.05,6.53,14.58,14.58,14.58h151.77c8.05,0,14.58,6.53,14.58,14.58v32.69"/>
						<g>
							<polygon points="535.54,253.78 538.27,258.5 540.99,253.78 							"/>
						</g>
					</g>
					<g>
						<g>
							<path class="st2" d="M611.22,264.04l-145.68,0c-6.04,0-10.94,4.9-10.94,10.94v24.26c0,6.04,4.9,10.94,10.94,10.94l145.68,0
								c6.04,0,10.94-4.9,10.94-10.94v-24.26C622.16,268.94,617.26,264.04,611.22,264.04z"/>
						</g>
						<g>
							<g>
								<path d="M482.61,282.53h1.12l4.8,7.25v-7.25h1.06v8.93h-1.14l-4.79-7.25v7.25h-1.06V282.53z"/>
								<path d="M495.68,285.05c0.37,0.18,0.66,0.44,0.87,0.79c0.21,0.35,0.31,0.76,0.31,1.23v4.39h-1v-2.44h0.27
									c0,0.54-0.09,1.01-0.28,1.4c-0.19,0.39-0.46,0.69-0.8,0.89c-0.35,0.2-0.76,0.31-1.24,0.31c-0.42,0-0.79-0.08-1.13-0.24
									s-0.6-0.38-0.79-0.67c-0.19-0.28-0.29-0.61-0.29-0.97c0-0.34,0.09-0.65,0.26-0.94c0.18-0.29,0.42-0.52,0.73-0.7
									c0.31-0.18,0.66-0.3,1.06-0.34l1.74-0.19c0.14-0.02,0.26-0.08,0.34-0.18c0.08-0.1,0.12-0.25,0.12-0.45l0.08,1.34l-2.14,0.24
									c-0.22,0.03-0.42,0.09-0.59,0.2c-0.17,0.11-0.31,0.24-0.4,0.41c-0.1,0.17-0.14,0.36-0.14,0.56c0,0.22,0.06,0.42,0.18,0.59
									c0.12,0.17,0.28,0.3,0.49,0.4c0.21,0.1,0.45,0.14,0.71,0.14c0.37,0,0.69-0.07,0.96-0.22c0.27-0.15,0.49-0.36,0.63-0.63
									c0.15-0.27,0.22-0.58,0.22-0.93v-2.08c0-0.26-0.06-0.49-0.18-0.69c-0.12-0.2-0.3-0.35-0.52-0.46
									c-0.22-0.11-0.48-0.16-0.78-0.16c-0.29,0-0.56,0.05-0.79,0.15c-0.23,0.1-0.42,0.23-0.56,0.4c-0.14,0.17-0.23,0.35-0.26,0.55
									h-1.02c0.05-0.37,0.2-0.7,0.44-1c0.24-0.3,0.55-0.53,0.93-0.7c0.38-0.17,0.81-0.26,1.27-0.26
									C494.88,284.78,495.31,284.87,495.68,285.05z"/>
								<path d="M500.16,291.27c-0.25-0.13-0.45-0.32-0.6-0.56c-0.14-0.24-0.22-0.5-0.22-0.79l-0.01-4.08h-1.15l0.01-0.91h0.71
									c0.16,0,0.29-0.05,0.39-0.15c0.1-0.1,0.15-0.23,0.15-0.39v-1.05h0.92v1.6h1.58l-0.01,0.91h-1.58l0.01,4.02
									c0,0.2,0.07,0.37,0.2,0.5c0.13,0.13,0.3,0.2,0.5,0.2h0.87v0.91h-0.93C500.7,291.47,500.41,291.4,500.16,291.27z"/>
								<path d="M504.82,282.53v1.21h-1.2v-1.21H504.82z M503.71,284.93h1.02v6.53h-1.02V284.93z"/>
								<path d="M506.12,284.93h1.11l1.99,5.17l1.93-5.17h1.08l-2.57,6.53h-0.96L506.12,284.93z"/>
								<path d="M514.49,291.18c-0.49-0.29-0.87-0.7-1.15-1.22c-0.27-0.52-0.41-1.11-0.41-1.77c0-0.64,0.14-1.22,0.42-1.74
									c0.28-0.52,0.66-0.93,1.15-1.22c0.49-0.3,1.04-0.44,1.64-0.44c0.62,0,1.16,0.15,1.62,0.44s0.83,0.7,1.08,1.22
									s0.38,1.11,0.38,1.76v0.25h-5.28l0.01-0.28c0,0.49,0.1,0.93,0.3,1.32c0.19,0.39,0.46,0.69,0.8,0.91
									c0.34,0.22,0.72,0.33,1.15,0.33c0.28,0,0.55-0.04,0.79-0.11c0.24-0.07,0.46-0.17,0.64-0.31c0.18-0.13,0.32-0.29,0.42-0.47
									h1.02c-0.08,0.27-0.24,0.54-0.48,0.82c-0.24,0.27-0.58,0.5-1,0.68s-0.91,0.27-1.46,0.27
									C515.53,291.62,514.98,291.47,514.49,291.18z M513.95,287.61h4.25v0.58c0-0.5-0.08-0.94-0.24-1.32s-0.39-0.67-0.7-0.88
									c-0.31-0.21-0.68-0.31-1.11-0.31c-0.43,0-0.82,0.1-1.15,0.3c-0.33,0.2-0.59,0.49-0.77,0.86c-0.18,0.37-0.27,0.8-0.27,1.3
									L513.95,287.61z"/>
								<path d="M524.68,291.18c-0.49-0.29-0.87-0.7-1.15-1.22c-0.27-0.52-0.41-1.11-0.41-1.77c0-0.64,0.14-1.22,0.42-1.74
									c0.28-0.52,0.66-0.93,1.15-1.22c0.49-0.3,1.04-0.44,1.64-0.44c0.62,0,1.16,0.15,1.62,0.44s0.83,0.7,1.08,1.22
									s0.38,1.11,0.38,1.76v0.25h-5.28l0.01-0.28c0,0.49,0.1,0.93,0.3,1.32c0.19,0.39,0.46,0.69,0.8,0.91
									c0.34,0.22,0.72,0.33,1.15,0.33c0.28,0,0.55-0.04,0.79-0.11c0.24-0.07,0.46-0.17,0.64-0.31c0.18-0.13,0.32-0.29,0.42-0.47
									h1.02c-0.08,0.27-0.24,0.54-0.48,0.82c-0.24,0.27-0.58,0.5-1,0.68s-0.91,0.27-1.46,0.27
									C525.72,291.62,525.17,291.47,524.68,291.18z M524.14,287.61h4.25v0.58c0-0.5-0.08-0.94-0.24-1.32s-0.39-0.67-0.7-0.88
									c-0.31-0.21-0.68-0.31-1.11-0.31c-0.43,0-0.82,0.1-1.15,0.3c-0.33,0.2-0.59,0.49-0.77,0.86c-0.18,0.37-0.27,0.8-0.27,1.3
									L524.14,287.61z"/>
								<path d="M532.69,287.8l0.18-0.22l1.81-2.65h1.16l-2.39,3.4l-0.28,0.34l-1.91,2.79h-1.16L532.69,287.8z M532.76,288.55
									l-0.13-0.26l-2.39-3.36h1.19l1.86,2.68l0.11,0.21l2.58,3.64h-1.19L532.76,288.55z"/>
								<path d="M538.23,291.18c-0.49-0.29-0.87-0.7-1.15-1.22c-0.27-0.52-0.41-1.11-0.41-1.77c0-0.64,0.14-1.22,0.42-1.74
									c0.28-0.52,0.66-0.93,1.15-1.22c0.49-0.3,1.04-0.44,1.64-0.44c0.62,0,1.16,0.15,1.62,0.44s0.83,0.7,1.08,1.22
									s0.38,1.11,0.38,1.76v0.25h-5.28l0.01-0.28c0,0.49,0.1,0.93,0.3,1.32c0.19,0.39,0.46,0.69,0.8,0.91
									c0.34,0.22,0.72,0.33,1.15,0.33c0.28,0,0.55-0.04,0.79-0.11c0.24-0.07,0.46-0.17,0.64-0.31c0.18-0.13,0.32-0.29,0.42-0.47
									h1.02c-0.08,0.27-0.24,0.54-0.48,0.82c-0.24,0.27-0.58,0.5-1,0.68s-0.91,0.27-1.46,0.27
									C539.27,291.62,538.72,291.47,538.23,291.18z M537.69,287.61h4.25v0.58c0-0.5-0.08-0.94-0.24-1.32s-0.39-0.67-0.7-0.88
									c-0.31-0.21-0.68-0.31-1.11-0.31c-0.43,0-0.82,0.1-1.15,0.3c-0.33,0.2-0.59,0.49-0.77,0.86c-0.18,0.37-0.27,0.8-0.27,1.3
									L537.69,287.61z"/>
								<path d="M545.68,291.17c-0.5-0.3-0.89-0.71-1.17-1.23c-0.28-0.52-0.42-1.1-0.42-1.74c0-0.64,0.14-1.22,0.42-1.74
									c0.28-0.52,0.67-0.93,1.17-1.23c0.5-0.3,1.05-0.45,1.67-0.45c0.52,0,0.99,0.09,1.41,0.26s0.76,0.44,1.04,0.79
									c0.28,0.35,0.47,0.78,0.57,1.29h-1.02c-0.09-0.31-0.24-0.58-0.44-0.79s-0.43-0.37-0.7-0.48c-0.27-0.1-0.55-0.16-0.85-0.16
									c-0.42,0-0.8,0.11-1.13,0.32s-0.59,0.51-0.78,0.89s-0.28,0.81-0.28,1.29c0,0.48,0.09,0.9,0.28,1.28
									c0.19,0.38,0.45,0.68,0.78,0.89c0.33,0.21,0.71,0.32,1.13,0.32c0.3,0,0.59-0.05,0.85-0.16c0.27-0.1,0.5-0.26,0.7-0.48
									c0.2-0.21,0.35-0.48,0.44-0.79h1.02c-0.1,0.49-0.29,0.92-0.57,1.27c-0.29,0.35-0.64,0.62-1.06,0.8s-0.88,0.27-1.38,0.27
									C546.74,291.62,546.18,291.47,545.68,291.17z"/>
								<path d="M557.39,291.47h-0.98v-2.83h0.41c0,0.6-0.1,1.13-0.31,1.58c-0.21,0.45-0.51,0.79-0.89,1.04
									c-0.39,0.24-0.84,0.36-1.37,0.36c-0.47,0-0.88-0.1-1.24-0.3c-0.36-0.2-0.65-0.49-0.85-0.88s-0.31-0.86-0.31-1.4v-4.1h1.02v4
									c0,0.38,0.07,0.7,0.2,0.97c0.13,0.27,0.33,0.47,0.57,0.61c0.25,0.14,0.54,0.21,0.88,0.21c0.37,0,0.69-0.08,0.97-0.24
									c0.28-0.16,0.5-0.39,0.65-0.68c0.15-0.29,0.23-0.62,0.23-1v-3.87h1.02V291.47z"/>
								<path d="M560.88,291.27c-0.25-0.13-0.45-0.32-0.6-0.56c-0.14-0.24-0.22-0.5-0.22-0.79l-0.01-4.08h-1.15l0.01-0.91h0.71
									c0.16,0,0.29-0.05,0.39-0.15c0.1-0.1,0.15-0.23,0.15-0.39v-1.05h0.92v1.6h1.58l-0.01,0.91h-1.58l0.01,4.02
									c0,0.2,0.07,0.37,0.2,0.5c0.13,0.13,0.3,0.2,0.5,0.2h0.87v0.91h-0.93C561.41,291.47,561.13,291.4,560.88,291.27z"/>
								<path d="M568.03,285.05c0.37,0.18,0.66,0.44,0.87,0.79c0.21,0.35,0.31,0.76,0.31,1.23v4.39h-1v-2.44h0.27
									c0,0.54-0.09,1.01-0.28,1.4c-0.19,0.39-0.46,0.69-0.8,0.89c-0.35,0.2-0.76,0.31-1.24,0.31c-0.42,0-0.79-0.08-1.13-0.24
									s-0.6-0.38-0.79-0.67c-0.19-0.28-0.29-0.61-0.29-0.97c0-0.34,0.09-0.65,0.26-0.94c0.18-0.29,0.42-0.52,0.73-0.7
									c0.31-0.18,0.66-0.3,1.06-0.34l1.74-0.19c0.14-0.02,0.26-0.08,0.34-0.18c0.08-0.1,0.12-0.25,0.12-0.45l0.08,1.34l-2.14,0.24
									c-0.22,0.03-0.42,0.09-0.59,0.2c-0.17,0.11-0.31,0.24-0.4,0.41c-0.1,0.17-0.14,0.36-0.14,0.56c0,0.22,0.06,0.42,0.18,0.59
									c0.12,0.17,0.28,0.3,0.49,0.4c0.21,0.1,0.45,0.14,0.71,0.14c0.37,0,0.69-0.07,0.96-0.22c0.27-0.15,0.49-0.36,0.63-0.63
									c0.15-0.27,0.22-0.58,0.22-0.93v-2.08c0-0.26-0.06-0.49-0.18-0.69c-0.12-0.2-0.3-0.35-0.52-0.46
									c-0.22-0.11-0.48-0.16-0.78-0.16c-0.29,0-0.56,0.05-0.79,0.15c-0.23,0.1-0.42,0.23-0.56,0.4c-0.14,0.17-0.23,0.35-0.26,0.55
									h-1.02c0.05-0.37,0.2-0.7,0.44-1c0.24-0.3,0.55-0.53,0.93-0.7c0.38-0.17,0.81-0.26,1.27-0.26
									C567.22,284.78,567.66,284.87,568.03,285.05z"/>
								<path d="M571.25,282.53h1.02v8.93h-1.02V282.53z M573.18,291.25c-0.43-0.25-0.76-0.6-1-1.05c-0.24-0.45-0.37-0.97-0.37-1.56
									h0.42v-0.88h-0.42c0.01-0.59,0.13-1.11,0.37-1.56s0.58-0.8,1-1.05c0.43-0.25,0.92-0.37,1.49-0.37
									c0.61,0,1.15,0.14,1.62,0.43c0.47,0.29,0.84,0.69,1.11,1.21c0.27,0.52,0.4,1.11,0.4,1.78c0,0.67-0.13,1.26-0.4,1.78
									c-0.27,0.52-0.64,0.92-1.11,1.21c-0.47,0.29-1.02,0.43-1.62,0.43C574.1,291.62,573.6,291.5,573.18,291.25z M575.66,290.38
									c0.34-0.21,0.6-0.5,0.79-0.88c0.19-0.38,0.28-0.81,0.28-1.3c0-0.49-0.09-0.92-0.28-1.3s-0.45-0.67-0.79-0.88
									c-0.34-0.21-0.72-0.32-1.15-0.32c-0.44,0-0.83,0.11-1.17,0.32c-0.34,0.21-0.6,0.5-0.79,0.88s-0.28,0.81-0.28,1.3
									c0,0.49,0.09,0.92,0.28,1.3c0.19,0.38,0.45,0.67,0.79,0.88c0.34,0.21,0.73,0.32,1.17,0.32
									C574.94,290.69,575.32,290.59,575.66,290.38z"/>
								<path d="M579.47,282.53h1.02v8.93h-1.02V282.53z"/>
								<path d="M583.73,291.18c-0.49-0.29-0.87-0.7-1.15-1.22c-0.27-0.52-0.41-1.11-0.41-1.77c0-0.64,0.14-1.22,0.42-1.74
									c0.28-0.52,0.66-0.93,1.15-1.22c0.49-0.3,1.04-0.44,1.64-0.44c0.62,0,1.16,0.15,1.62,0.44s0.83,0.7,1.08,1.22
									s0.38,1.11,0.38,1.76v0.25h-5.28l0.01-0.28c0,0.49,0.1,0.93,0.3,1.32c0.19,0.39,0.46,0.69,0.8,0.91
									c0.34,0.22,0.72,0.33,1.15,0.33c0.28,0,0.55-0.04,0.79-0.11c0.24-0.07,0.46-0.17,0.64-0.31c0.18-0.13,0.32-0.29,0.42-0.47
									h1.02c-0.08,0.27-0.24,0.54-0.48,0.82c-0.24,0.27-0.58,0.5-1,0.68s-0.91,0.27-1.46,0.27
									C584.77,291.62,584.22,291.47,583.73,291.18z M583.19,287.61h4.25v0.58c0-0.5-0.08-0.94-0.24-1.32s-0.39-0.67-0.7-0.88
									c-0.31-0.21-0.68-0.31-1.11-0.31c-0.43,0-0.82,0.1-1.15,0.3c-0.33,0.2-0.59,0.49-0.77,0.86c-0.18,0.37-0.27,0.8-0.27,1.3
									L583.19,287.61z"/>
								<path d="M590.96,291.38c-0.4-0.16-0.71-0.38-0.95-0.66c-0.24-0.28-0.36-0.6-0.38-0.96h1.04c0.02,0.2,0.1,0.37,0.24,0.53
									s0.34,0.28,0.57,0.37s0.5,0.13,0.8,0.13c0.3,0,0.56-0.05,0.79-0.15s0.4-0.23,0.53-0.41c0.12-0.17,0.19-0.37,0.19-0.59
									c0-0.16-0.03-0.3-0.09-0.43s-0.15-0.23-0.26-0.32c-0.11-0.08-0.25-0.14-0.41-0.17l-1.58-0.29
									c-0.33-0.06-0.62-0.17-0.86-0.33s-0.42-0.37-0.55-0.62c-0.13-0.25-0.19-0.53-0.19-0.85c0-0.34,0.1-0.66,0.3-0.94
									c0.2-0.28,0.47-0.51,0.83-0.67s0.77-0.25,1.23-0.25c0.46,0,0.87,0.07,1.23,0.22c0.37,0.15,0.66,0.36,0.87,0.62
									c0.22,0.26,0.33,0.56,0.35,0.88h-1.04c-0.01-0.17-0.08-0.32-0.21-0.46c-0.13-0.14-0.29-0.24-0.5-0.32
									c-0.21-0.08-0.44-0.11-0.7-0.11c-0.26,0-0.5,0.04-0.7,0.13c-0.21,0.09-0.36,0.21-0.48,0.37c-0.11,0.16-0.17,0.33-0.17,0.53
									c0,0.15,0.03,0.28,0.08,0.39c0.05,0.11,0.13,0.21,0.24,0.28c0.11,0.07,0.24,0.13,0.4,0.16l1.61,0.29
									c0.33,0.06,0.62,0.18,0.86,0.35c0.24,0.17,0.42,0.39,0.55,0.65c0.12,0.26,0.19,0.54,0.19,0.85c0,0.38-0.11,0.73-0.33,1.03
									c-0.22,0.31-0.52,0.55-0.9,0.72c-0.38,0.17-0.81,0.26-1.28,0.26C591.8,291.62,591.36,291.54,590.96,291.38z"/>
							</g>
						</g>
					</g>
				</g>
			</g>
		</g>
		<g>
			<g>
				<g>
					<g>
						<radialGradient id="SVGID_1_" cx="251.198" cy="147.782" r="191.567" gradientUnits="userSpaceOnUse">
							<stop  offset="0" style="stop-color:#EB4857"/>
							<stop  offset="0.5" style="stop-color:#C611E0"/>
							<stop  offset="1" style="stop-color:#7F52FF"/>
						</radialGradient>
						<path class="st4" d="M437.32,94.54H262.68c-6.04,0-10.94,4.9-10.94,10.94v30.58c0,6.04,4.9,10.94,10.94,10.94h174.64
							c6.04,0,10.94-4.9,10.94-10.94v-30.58C448.26,99.44,443.36,94.54,437.32,94.54z"/>
					</g>
				</g>
			</g>
			<g>
				<g>
					<path class="st0" d="M268.05,124.65c-0.5-0.3-0.89-0.71-1.17-1.23c-0.28-0.52-0.42-1.1-0.42-1.74c0-0.64,0.14-1.22,0.42-1.74
						c0.28-0.52,0.67-0.93,1.17-1.23c0.5-0.3,1.05-0.45,1.67-0.45c0.52,0,0.99,0.09,1.41,0.26s0.76,0.44,1.04,0.79
						c0.28,0.35,0.47,0.78,0.57,1.29h-1.02c-0.09-0.31-0.24-0.58-0.44-0.79s-0.43-0.37-0.7-0.48c-0.27-0.1-0.55-0.16-0.85-0.16
						c-0.42,0-0.8,0.11-1.13,0.32s-0.59,0.51-0.78,0.89s-0.28,0.81-0.28,1.29c0,0.48,0.09,0.9,0.28,1.28
						c0.19,0.38,0.45,0.68,0.78,0.89c0.33,0.21,0.71,0.32,1.13,0.32c0.3,0,0.59-0.05,0.85-0.16c0.27-0.1,0.5-0.26,0.7-0.48
						c0.2-0.21,0.35-0.48,0.44-0.79h1.02c-0.1,0.49-0.29,0.92-0.57,1.27c-0.29,0.35-0.64,0.62-1.06,0.8s-0.88,0.27-1.38,0.27
						C269.1,125.1,268.54,124.95,268.05,124.65z"/>
					<path class="st0" d="M275.48,124.66c-0.51-0.3-0.91-0.7-1.2-1.22c-0.29-0.52-0.44-1.1-0.44-1.75c0-0.65,0.15-1.23,0.44-1.75
						c0.29-0.52,0.69-0.93,1.2-1.22c0.51-0.3,1.08-0.44,1.7-0.44s1.18,0.15,1.69,0.44c0.51,0.3,0.91,0.7,1.2,1.22
						c0.29,0.52,0.44,1.1,0.44,1.75c0,0.65-0.15,1.24-0.44,1.75s-0.69,0.93-1.2,1.22c-0.51,0.3-1.07,0.44-1.7,0.44
						C276.55,125.1,275.98,124.95,275.48,124.66z M278.33,123.86c0.34-0.21,0.61-0.5,0.8-0.88c0.2-0.38,0.29-0.81,0.29-1.3
						c0-0.49-0.1-0.92-0.29-1.3c-0.2-0.38-0.46-0.67-0.81-0.88c-0.34-0.21-0.73-0.31-1.15-0.31c-0.43,0-0.81,0.1-1.16,0.31
						c-0.34,0.21-0.62,0.5-0.81,0.88c-0.2,0.38-0.3,0.81-0.3,1.3c0,0.49,0.1,0.92,0.3,1.3c0.2,0.38,0.47,0.67,0.82,0.88
						c0.35,0.21,0.73,0.31,1.16,0.31C277.61,124.17,277.99,124.06,278.33,123.86z"/>
					<path class="st0" d="M282.18,118.41h0.98v2.83h-0.34c0-0.61,0.09-1.14,0.28-1.59c0.19-0.45,0.46-0.79,0.82-1.03
						s0.78-0.36,1.28-0.36c0.46,0,0.87,0.11,1.22,0.32c0.35,0.21,0.62,0.51,0.81,0.9c0.19,0.39,0.29,0.84,0.29,1.35v4.12h-1.02
						v-4.08c0-0.36-0.06-0.67-0.18-0.93s-0.3-0.46-0.53-0.6c-0.23-0.14-0.51-0.21-0.83-0.21c-0.35,0-0.66,0.08-0.93,0.24
						s-0.47,0.38-0.61,0.68c-0.14,0.29-0.21,0.64-0.21,1.03v3.87h-1.02V118.41z M290.62,119.94c-0.12-0.26-0.3-0.46-0.53-0.6
						c-0.23-0.14-0.51-0.21-0.84-0.21c-0.35,0-0.65,0.08-0.92,0.24c-0.26,0.16-0.47,0.39-0.61,0.68c-0.14,0.29-0.22,0.63-0.22,1.03
						l-0.57,0.17c0-0.59,0.1-1.11,0.31-1.56c0.2-0.45,0.5-0.8,0.88-1.05c0.38-0.25,0.82-0.37,1.33-0.37c0.46,0,0.88,0.11,1.24,0.32
						c0.36,0.21,0.64,0.51,0.84,0.9c0.2,0.39,0.3,0.84,0.3,1.35v4.12h-1.02v-4.08C290.8,120.51,290.74,120.2,290.62,119.94z"/>
					<path class="st0" d="M293.87,118.41h0.98v2.83h-0.34c0-0.61,0.09-1.14,0.28-1.59c0.19-0.45,0.46-0.79,0.82-1.03
						s0.78-0.36,1.28-0.36c0.46,0,0.87,0.11,1.22,0.32c0.35,0.21,0.62,0.51,0.81,0.9c0.19,0.39,0.29,0.84,0.29,1.35v4.12h-1.02
						v-4.08c0-0.36-0.06-0.67-0.18-0.93s-0.3-0.46-0.53-0.6c-0.23-0.14-0.51-0.21-0.83-0.21c-0.35,0-0.66,0.08-0.93,0.24
						s-0.47,0.38-0.61,0.68c-0.14,0.29-0.21,0.64-0.21,1.03v3.87h-1.02V118.41z M302.31,119.94c-0.12-0.26-0.3-0.46-0.53-0.6
						c-0.23-0.14-0.51-0.21-0.84-0.21c-0.35,0-0.65,0.08-0.92,0.24c-0.26,0.16-0.47,0.39-0.61,0.68c-0.14,0.29-0.22,0.63-0.22,1.03
						l-0.57,0.17c0-0.59,0.1-1.11,0.31-1.56c0.2-0.45,0.5-0.8,0.88-1.05c0.38-0.25,0.82-0.37,1.33-0.37c0.46,0,0.88,0.11,1.24,0.32
						c0.36,0.21,0.64,0.51,0.84,0.9c0.2,0.39,0.3,0.84,0.3,1.35v4.12h-1.02v-4.08C302.49,120.51,302.43,120.2,302.31,119.94z"/>
					<path class="st0" d="M306.64,124.66c-0.51-0.3-0.91-0.7-1.2-1.22c-0.29-0.52-0.44-1.1-0.44-1.75c0-0.65,0.15-1.23,0.44-1.75
						c0.29-0.52,0.69-0.93,1.2-1.22c0.51-0.3,1.08-0.44,1.7-0.44s1.18,0.15,1.69,0.44c0.51,0.3,0.91,0.7,1.2,1.22
						c0.29,0.52,0.44,1.1,0.44,1.75c0,0.65-0.15,1.24-0.44,1.75s-0.69,0.93-1.2,1.22c-0.51,0.3-1.07,0.44-1.7,0.44
						C307.71,125.1,307.14,124.95,306.64,124.66z M309.49,123.86c0.34-0.21,0.61-0.5,0.8-0.88c0.2-0.38,0.29-0.81,0.29-1.3
						c0-0.49-0.1-0.92-0.29-1.3c-0.2-0.38-0.46-0.67-0.81-0.88c-0.34-0.21-0.73-0.31-1.15-0.31c-0.43,0-0.81,0.1-1.16,0.31
						c-0.34,0.21-0.62,0.5-0.81,0.88c-0.2,0.38-0.3,0.81-0.3,1.3c0,0.49,0.1,0.92,0.3,1.3c0.2,0.38,0.47,0.67,0.82,0.88
						c0.35,0.21,0.73,0.31,1.16,0.31C308.77,124.17,309.15,124.06,309.49,123.86z"/>
					<path class="st0" d="M313.34,118.41h0.98v2.83h-0.41c0-0.6,0.1-1.13,0.31-1.58c0.21-0.45,0.51-0.79,0.89-1.04
						s0.84-0.36,1.37-0.36c0.47,0,0.88,0.1,1.24,0.3c0.36,0.2,0.65,0.49,0.85,0.88c0.21,0.39,0.31,0.86,0.31,1.4v4.1h-1.02v-4
						c0-0.38-0.07-0.7-0.2-0.97s-0.32-0.47-0.57-0.61c-0.25-0.14-0.54-0.21-0.88-0.21c-0.37,0-0.69,0.08-0.97,0.24
						c-0.28,0.16-0.5,0.39-0.65,0.68c-0.16,0.29-0.23,0.62-0.23,1v3.87h-1.02V118.41z"/>
					<path class="st0" d="M321.18,116.02h1.32l3.2,7.16l0.17,0.45l0.16-0.45l3.15-7.16h1.35v8.93h-1.06v-7.06v-0.17l-3.16,7.22
						h-0.89l-3.18-7.18v0.13v7.06h-1.05V116.02z"/>
					<path class="st0" d="M336.62,118.53c0.37,0.18,0.66,0.44,0.87,0.79c0.21,0.35,0.31,0.76,0.31,1.23v4.39h-1v-2.44h0.27
						c0,0.54-0.09,1.01-0.28,1.4c-0.19,0.39-0.46,0.69-0.8,0.89c-0.35,0.2-0.76,0.31-1.24,0.31c-0.42,0-0.79-0.08-1.13-0.24
						s-0.6-0.38-0.79-0.67c-0.19-0.28-0.29-0.61-0.29-0.97c0-0.34,0.09-0.65,0.26-0.94c0.18-0.29,0.42-0.52,0.73-0.7
						c0.31-0.18,0.66-0.3,1.06-0.34l1.74-0.19c0.14-0.02,0.26-0.08,0.34-0.18c0.08-0.1,0.12-0.25,0.12-0.45l0.08,1.34l-2.14,0.24
						c-0.22,0.03-0.42,0.09-0.59,0.2c-0.17,0.11-0.31,0.24-0.4,0.41c-0.1,0.17-0.14,0.36-0.14,0.56c0,0.22,0.06,0.42,0.18,0.59
						c0.12,0.17,0.28,0.3,0.49,0.4c0.21,0.1,0.45,0.14,0.71,0.14c0.37,0,0.69-0.07,0.96-0.22c0.27-0.15,0.49-0.36,0.63-0.63
						c0.15-0.27,0.22-0.58,0.22-0.93v-2.08c0-0.26-0.06-0.49-0.18-0.69c-0.12-0.2-0.3-0.35-0.52-0.46
						c-0.22-0.11-0.48-0.16-0.78-0.16c-0.29,0-0.56,0.05-0.79,0.15c-0.23,0.1-0.42,0.23-0.56,0.4c-0.14,0.17-0.23,0.35-0.26,0.55
						h-1.02c0.05-0.37,0.2-0.7,0.44-1c0.24-0.3,0.55-0.53,0.93-0.7c0.38-0.17,0.81-0.26,1.27-0.26
						C335.81,118.26,336.24,118.35,336.62,118.53z"/>
					<path class="st0" d="M340.95,116.02v1.21h-1.2v-1.21H340.95z M339.84,118.41h1.02v6.53h-1.02V118.41z"/>
					<path class="st0" d="M343.09,118.41h0.98v2.83h-0.41c0-0.6,0.1-1.13,0.31-1.58c0.21-0.45,0.51-0.79,0.89-1.04
						s0.84-0.36,1.37-0.36c0.47,0,0.88,0.1,1.24,0.3c0.36,0.2,0.65,0.49,0.85,0.88c0.21,0.39,0.31,0.86,0.31,1.4v4.1h-1.02v-4
						c0-0.38-0.07-0.7-0.2-0.97s-0.32-0.47-0.57-0.61c-0.25-0.14-0.54-0.21-0.88-0.21c-0.37,0-0.69,0.08-0.97,0.24
						c-0.28,0.16-0.5,0.39-0.65,0.68c-0.16,0.29-0.23,0.62-0.23,1v3.87h-1.02V118.41z"/>
					<path class="st0" d="M353.63,116.02h1.05l-4.06,8.93h-1.05L353.63,116.02z"/>
					<path class="st0" d="M356.9,123.54v1.4h-1.4v-1.4H356.9z"/>
					<path class="st0" d="M359.95,123.54v1.4h-1.4v-1.4H359.95z"/>
					<path class="st0" d="M363,123.54v1.4h-1.4v-1.4H363z"/>
					<path class="st0" d="M367.88,116.02h1.05l-4.06,8.93h-1.05L367.88,116.02z"/>
					<path class="st0" d="M371.35,126.92c-0.4-0.15-0.74-0.36-1.01-0.63c-0.27-0.27-0.44-0.59-0.52-0.94h1.02
						c0.09,0.2,0.23,0.36,0.42,0.5c0.18,0.14,0.39,0.24,0.63,0.31c0.24,0.07,0.49,0.1,0.75,0.1c0.42,0,0.78-0.08,1.09-0.25
						c0.31-0.17,0.55-0.4,0.72-0.71s0.25-0.65,0.25-1.05v-0.27l0.05-1.84l0.53-0.65c-0.01,0.58-0.14,1.09-0.38,1.55
						c-0.25,0.45-0.58,0.8-1.01,1.06s-0.91,0.38-1.44,0.38c-0.55,0-1.05-0.13-1.5-0.4c-0.45-0.27-0.8-0.63-1.05-1.1
						c-0.26-0.47-0.38-1-0.38-1.59c0-0.59,0.13-1.12,0.38-1.59c0.25-0.47,0.61-0.84,1.05-1.11c0.45-0.27,0.95-0.4,1.5-0.4
						c0.53,0,1.01,0.13,1.44,0.38c0.43,0.26,0.76,0.61,1.01,1.07c0.25,0.46,0.37,0.97,0.38,1.56l-0.53-0.57v-2.28h0.99l-0.02,5.83
						c0,0.57-0.13,1.07-0.38,1.51c-0.26,0.44-0.62,0.78-1.08,1.02c-0.46,0.24-1,0.36-1.6,0.36
						C372.19,127.14,371.75,127.07,371.35,126.92z M373.7,123.28c0.31-0.19,0.56-0.46,0.74-0.79c0.18-0.34,0.27-0.71,0.27-1.12
						c0-0.42-0.09-0.79-0.27-1.13c-0.18-0.34-0.43-0.6-0.74-0.79c-0.31-0.19-0.66-0.29-1.05-0.29c-0.39,0-0.74,0.1-1.06,0.29
						c-0.31,0.19-0.56,0.46-0.74,0.79c-0.18,0.34-0.26,0.71-0.26,1.13c0,0.41,0.09,0.79,0.26,1.12c0.18,0.34,0.42,0.6,0.74,0.79
						s0.67,0.29,1.06,0.29C373.04,123.57,373.39,123.47,373.7,123.28z"/>
					<path class="st0" d="M377.97,118.41H379v2.19l-0.43,0.64c0.02-0.59,0.12-1.1,0.32-1.53c0.2-0.44,0.47-0.77,0.83-1
						c0.35-0.23,0.76-0.35,1.23-0.35h0.23v1.07h-0.27c-0.39,0-0.73,0.07-1.01,0.22c-0.29,0.15-0.51,0.36-0.67,0.63
						c-0.16,0.27-0.23,0.6-0.23,0.97v3.71h-1.02V118.41z"/>
					<path class="st0" d="M383.54,124.66c-0.49-0.29-0.87-0.7-1.15-1.22c-0.27-0.52-0.41-1.11-0.41-1.77c0-0.64,0.14-1.22,0.42-1.74
						c0.28-0.52,0.66-0.93,1.15-1.22c0.49-0.3,1.04-0.44,1.64-0.44c0.62,0,1.16,0.15,1.62,0.44s0.83,0.7,1.08,1.22
						s0.38,1.11,0.38,1.76v0.25H383l0.01-0.28c0,0.49,0.1,0.93,0.3,1.32c0.19,0.39,0.46,0.69,0.8,0.91
						c0.34,0.22,0.72,0.33,1.15,0.33c0.28,0,0.55-0.04,0.79-0.11c0.24-0.07,0.46-0.17,0.64-0.31c0.18-0.13,0.32-0.29,0.42-0.47h1.02
						c-0.08,0.27-0.24,0.54-0.48,0.82c-0.24,0.27-0.58,0.5-1,0.68s-0.91,0.27-1.46,0.27C384.58,125.1,384.03,124.95,383.54,124.66z
						 M383,121.09h4.25v0.58c0-0.5-0.08-0.94-0.24-1.32s-0.39-0.67-0.7-0.88c-0.31-0.21-0.68-0.31-1.11-0.31
						c-0.43,0-0.82,0.1-1.15,0.3c-0.33,0.2-0.59,0.49-0.77,0.86c-0.18,0.37-0.27,0.8-0.27,1.3L383,121.09z"/>
					<path class="st0" d="M390.95,124.66c-0.49-0.29-0.87-0.7-1.15-1.22c-0.27-0.52-0.41-1.11-0.41-1.77c0-0.64,0.14-1.22,0.42-1.74
						c0.28-0.52,0.66-0.93,1.15-1.22c0.49-0.3,1.04-0.44,1.64-0.44c0.62,0,1.16,0.15,1.62,0.44s0.83,0.7,1.08,1.22
						s0.38,1.11,0.38,1.76v0.25h-5.28l0.01-0.28c0,0.49,0.1,0.93,0.3,1.32c0.19,0.39,0.46,0.69,0.8,0.91
						c0.34,0.22,0.72,0.33,1.15,0.33c0.28,0,0.55-0.04,0.79-0.11c0.24-0.07,0.46-0.17,0.64-0.31c0.18-0.13,0.32-0.29,0.42-0.47h1.02
						c-0.08,0.27-0.24,0.54-0.48,0.82c-0.24,0.27-0.58,0.5-1,0.68s-0.91,0.27-1.46,0.27C391.99,125.1,391.44,124.95,390.95,124.66z
						 M390.41,121.09h4.25v0.58c0-0.5-0.08-0.94-0.24-1.32s-0.39-0.67-0.7-0.88c-0.31-0.21-0.68-0.31-1.11-0.31
						c-0.43,0-0.82,0.1-1.15,0.3c-0.33,0.2-0.59,0.49-0.77,0.86c-0.18,0.37-0.27,0.8-0.27,1.3L390.41,121.09z"/>
					<path class="st0" d="M398.62,124.75c-0.25-0.13-0.45-0.32-0.6-0.56c-0.14-0.24-0.22-0.5-0.22-0.79l-0.01-4.08h-1.15l0.01-0.91
						h0.71c0.16,0,0.29-0.05,0.39-0.15c0.1-0.1,0.15-0.23,0.15-0.39v-1.05h0.92v1.6h1.58l-0.01,0.91h-1.58l0.01,4.02
						c0,0.2,0.07,0.37,0.2,0.5c0.13,0.13,0.3,0.2,0.5,0.2h0.87v0.91h-0.93C399.15,124.95,398.87,124.88,398.62,124.75z"/>
					<path class="st0" d="M403.28,116.02v1.21h-1.2v-1.21H403.28z M402.17,118.41h1.02v6.53h-1.02V118.41z"/>
					<path class="st0" d="M405.42,118.41h0.98v2.83H406c0-0.6,0.1-1.13,0.31-1.58c0.21-0.45,0.51-0.79,0.89-1.04
						s0.84-0.36,1.37-0.36c0.47,0,0.88,0.1,1.24,0.3c0.36,0.2,0.65,0.49,0.85,0.88c0.21,0.39,0.31,0.86,0.31,1.4v4.1h-1.02v-4
						c0-0.38-0.07-0.7-0.2-0.97s-0.32-0.47-0.57-0.61c-0.25-0.14-0.54-0.21-0.88-0.21c-0.37,0-0.69,0.08-0.97,0.24
						c-0.28,0.16-0.5,0.39-0.65,0.68c-0.16,0.29-0.23,0.62-0.23,1v3.87h-1.02V118.41z"/>
					<path class="st0" d="M414.32,126.92c-0.4-0.15-0.74-0.36-1.01-0.63c-0.27-0.27-0.44-0.59-0.52-0.94h1.02
						c0.09,0.2,0.23,0.36,0.42,0.5c0.18,0.14,0.39,0.24,0.63,0.31c0.24,0.07,0.49,0.1,0.75,0.1c0.42,0,0.78-0.08,1.09-0.25
						c0.31-0.17,0.55-0.4,0.72-0.71s0.25-0.65,0.25-1.05v-0.27l0.05-1.84l0.53-0.65c-0.01,0.58-0.14,1.09-0.38,1.55
						c-0.25,0.45-0.58,0.8-1.01,1.06s-0.91,0.38-1.44,0.38c-0.55,0-1.05-0.13-1.5-0.4c-0.45-0.27-0.8-0.63-1.05-1.1
						c-0.26-0.47-0.38-1-0.38-1.59c0-0.59,0.13-1.12,0.38-1.59c0.25-0.47,0.61-0.84,1.05-1.11c0.45-0.27,0.95-0.4,1.5-0.4
						c0.53,0,1.01,0.13,1.44,0.38c0.43,0.26,0.76,0.61,1.01,1.07c0.25,0.46,0.37,0.97,0.38,1.56l-0.53-0.57v-2.28h0.99l-0.02,5.83
						c0,0.57-0.13,1.07-0.38,1.51c-0.26,0.44-0.62,0.78-1.08,1.02c-0.46,0.24-1,0.36-1.6,0.36
						C415.16,127.14,414.72,127.07,414.32,126.92z M416.67,123.28c0.31-0.19,0.56-0.46,0.74-0.79c0.18-0.34,0.27-0.71,0.27-1.12
						c0-0.42-0.09-0.79-0.27-1.13c-0.18-0.34-0.43-0.6-0.74-0.79c-0.31-0.19-0.66-0.29-1.05-0.29c-0.39,0-0.74,0.1-1.06,0.29
						c-0.31,0.19-0.56,0.46-0.74,0.79c-0.18,0.34-0.26,0.71-0.26,1.13c0,0.41,0.09,0.79,0.26,1.12c0.18,0.34,0.42,0.6,0.74,0.79
						s0.67,0.29,1.06,0.29C416.01,123.57,416.36,123.47,416.67,123.28z"/>
					<path class="st0" d="M422.06,123.54v1.4h-1.4v-1.4H422.06z"/>
					<path class="st0" d="M424,116.02h1.02v5.46l2.96-3.06h1.27l-2.98,3.11l3.09,3.42h-1.31l-3.03-3.29v3.29H424V116.02z"/>
					<path class="st0" d="M431.76,124.75c-0.25-0.13-0.45-0.32-0.6-0.56c-0.14-0.24-0.22-0.5-0.22-0.79l-0.01-4.08h-1.15l0.01-0.91
						h0.71c0.16,0,0.29-0.05,0.39-0.15c0.1-0.1,0.15-0.23,0.15-0.39v-1.05h0.92v1.6h1.58l-0.01,0.91h-1.58l0.01,4.02
						c0,0.2,0.07,0.37,0.2,0.5c0.13,0.13,0.3,0.2,0.5,0.2h0.87v0.91h-0.93C432.3,124.95,432.02,124.88,431.76,124.75z"/>
				</g>
			</g>
		</g>
	</g>
</g>
</svg>
