<?xml version="1.0" encoding="utf-8"?>
<!-- Generator: Adobe Illustrator 27.5.0, SVG Export Plug-In . SVG Version: 6.00 Build 0)  -->
<svg version="1.1" id="Layer_1" xmlns="http://www.w3.org/2000/svg" xmlns:xlink="http://www.w3.org/1999/xlink" x="0px" y="0px"
	 viewBox="0 0 700 395" style="enable-background:new 0 0 700 395;" xml:space="preserve">
<style type="text/css">
	.st0{fill:#FFFFFF;}
	.st1{fill:none;stroke:#000000;stroke-width:0.5469;stroke-miterlimit:10;}
	.st2{fill:#F2F2F2;}
	.st3{fill:none;stroke:#595959;stroke-width:0.5469;stroke-miterlimit:10;}
	.st4{fill:url(#SVGID_1_);}
	.st5{fill:url(#SVGID_00000060730650250405792990000018279752099819975055_);}
	.st6{fill:url(#SVGID_00000082355255997750142950000009905879264045711489_);}
	.st7{fill:#595959;}
	.st8{fill:url(#SVGID_00000079468801079258335250000001838166000938264462_);}
	.st9{fill:url(#SVGID_00000172412728955405317370000002831595091590309528_);}
	.st10{fill:url(#SVGID_00000159443865846734931070000012100813491099738035_);}
	.st11{fill:url(#SVGID_00000054246798901889416490000003335375387099357590_);}
	.st12{fill:url(#SVGID_00000181775471719470550610000007022948776234848402_);}
	.st13{fill:url(#SVGID_00000022561540088698450460000005135274829433093771_);}
	.st14{fill:url(#SVGID_00000162341811094322684290000002451515515236198283_);}
	.st15{fill:url(#SVGID_00000154426060235561890370000013184021767866993830_);}
	.st16{fill:url(#SVGID_00000129200509072224764690000014034970302017205647_);}
	.st17{fill:url(#SVGID_00000116942168287296946310000003305408153021079692_);}
	.st18{fill:url(#SVGID_00000099663547675625995820000003737050835578575551_);}
	.st19{fill:url(#SVGID_00000014636600316345795530000001612496675959075458_);}
	.st20{fill:url(#SVGID_00000111181477378831156070000010387070644031985058_);}
	.st21{fill:url(#SVGID_00000031913611870705172870000010205126641298615194_);}
	.st22{fill:url(#SVGID_00000157298200463448576410000016359680528917194895_);}
	.st23{fill:url(#SVGID_00000134244194138966306140000006224183395650785168_);}
	.st24{fill:url(#SVGID_00000178886940202896562160000001077264014105483939_);}
	.st25{fill:url(#SVGID_00000150090900917074985020000002765152173840364677_);}
	.st26{fill:url(#SVGID_00000106839689118207974400000005863893859090230914_);}
	.st27{fill:url(#SVGID_00000103944824135548480880000014899613445083565247_);}
	.st28{fill:url(#SVGID_00000146483882071222571930000016893850002197112489_);}
	.st29{fill:url(#SVGID_00000085931198803526567700000017482898260584118964_);}
	.st30{fill:url(#SVGID_00000057145500848433535660000012714444969967252879_);}
	.st31{fill:url(#SVGID_00000052802357948315233740000001426981257504065443_);}
	.st32{fill:url(#SVGID_00000055697888452569453510000008730122501337411514_);}
	.st33{fill:url(#SVGID_00000049199659633901803830000015065418368797908665_);}
	.st34{fill:url(#SVGID_00000090288692560839628700000016276338936903864492_);}
	.st35{fill:url(#SVGID_00000047056491770686049440000009150579569583413432_);}
	.st36{fill:url(#SVGID_00000012439875362663634120000003884031576632596404_);}
	.st37{fill:url(#SVGID_00000112620968777732168140000003575658388033488054_);}
	.st38{fill:url(#SVGID_00000055687316640814064030000011457271568346142140_);}
	.st39{fill:url(#SVGID_00000173863523531711831630000010012155910923045539_);}
	.st40{fill:url(#SVGID_00000098180089908935590740000015252909834919165116_);}
	.st41{fill:#7F52FF;}
	.st42{opacity:0.35;}
	.st43{fill:url(#SVGID_00000038415347651057432420000013765430372190333056_);}
	.st44{fill:none;stroke:#000000;stroke-width:0.4423;stroke-miterlimit:10;}
</style>
<g>
	<rect x="0" class="st0" width="700" height="395"/>
	<g>
		<g>
			<g>
				<path class="st3" d="M145.48,239.03c-16.11,0-29.17-13.06-29.17-29.17V70.55c0-16.11,13.06-29.17,29.17-29.17h409.04
					c16.11,0,29.17,13.06,29.17,29.17v139.31c0,16.11-13.06,29.17-29.17,29.17H145.48z"/>
				<g>
					<g>
						<g>
							<path class="st7" d="M137.15,128.81c-0.38-0.18-0.67-0.43-0.88-0.76c-0.21-0.32-0.31-0.69-0.31-1.11h0.87
								c0,0.27,0.07,0.51,0.2,0.71s0.33,0.37,0.58,0.48c0.25,0.12,0.53,0.17,0.85,0.17c0.32,0,0.59-0.05,0.83-0.16
								c0.24-0.11,0.43-0.26,0.56-0.45c0.13-0.2,0.2-0.42,0.2-0.68c0-0.32-0.1-0.6-0.29-0.83c-0.19-0.23-0.45-0.37-0.77-0.43
								l-1.15-0.2c-0.35-0.06-0.65-0.18-0.9-0.36c-0.25-0.18-0.45-0.4-0.59-0.67c-0.14-0.27-0.2-0.56-0.2-0.88
								c0-0.37,0.1-0.71,0.29-1s0.47-0.53,0.82-0.7c0.35-0.17,0.74-0.26,1.18-0.26c0.45,0,0.85,0.08,1.2,0.25
								c0.35,0.17,0.62,0.4,0.82,0.7c0.19,0.3,0.29,0.64,0.29,1.03h-0.87c0-0.23-0.06-0.44-0.18-0.63s-0.29-0.33-0.5-0.43
								c-0.22-0.1-0.47-0.15-0.75-0.15c-0.28,0-0.53,0.05-0.75,0.15c-0.22,0.1-0.39,0.24-0.51,0.42c-0.12,0.18-0.18,0.39-0.18,0.63
								c0,0.28,0.09,0.53,0.27,0.73c0.18,0.2,0.42,0.33,0.72,0.38l1.17,0.2c0.34,0.06,0.64,0.19,0.91,0.39
								c0.27,0.2,0.47,0.45,0.62,0.74c0.15,0.29,0.22,0.6,0.22,0.92c0,0.38-0.1,0.73-0.31,1.05c-0.21,0.31-0.5,0.56-0.87,0.75
								c-0.37,0.18-0.8,0.27-1.28,0.27C137.95,129.08,137.52,128.99,137.15,128.81z"/>
							<path class="st7" d="M143.08,128.72c-0.41-0.24-0.73-0.56-0.96-0.98c-0.23-0.42-0.35-0.88-0.35-1.4
								c0-0.52,0.12-0.98,0.35-1.4c0.23-0.42,0.55-0.74,0.96-0.98c0.41-0.24,0.86-0.35,1.36-0.35c0.5,0,0.95,0.12,1.35,0.35
								c0.4,0.24,0.72,0.56,0.96,0.98s0.35,0.88,0.35,1.4c0,0.52-0.12,0.99-0.35,1.4c-0.23,0.42-0.55,0.74-0.96,0.98
								s-0.86,0.35-1.36,0.35C143.93,129.08,143.48,128.96,143.08,128.72z M145.36,128.08c0.27-0.17,0.49-0.4,0.64-0.7
								c0.16-0.3,0.23-0.65,0.23-1.04c0-0.39-0.08-0.74-0.23-1.04c-0.16-0.3-0.37-0.54-0.65-0.7c-0.27-0.17-0.58-0.25-0.92-0.25
								s-0.65,0.08-0.92,0.25c-0.28,0.17-0.49,0.4-0.65,0.7c-0.16,0.3-0.24,0.65-0.24,1.04c0,0.39,0.08,0.74,0.24,1.04
								s0.38,0.54,0.65,0.7c0.28,0.17,0.59,0.25,0.93,0.25S145.09,128.25,145.36,128.08z"/>
							<path class="st7" d="M152.52,128.96h-0.79v-2.26h0.33c0,0.48-0.08,0.9-0.25,1.26c-0.17,0.36-0.4,0.64-0.71,0.83
								c-0.31,0.19-0.67,0.29-1.09,0.29c-0.37,0-0.71-0.08-1-0.24c-0.29-0.16-0.52-0.4-0.68-0.71c-0.17-0.31-0.25-0.69-0.25-1.12
								v-3.28h0.82v3.2c0,0.3,0.05,0.56,0.16,0.78c0.11,0.21,0.26,0.38,0.46,0.49s0.43,0.17,0.7,0.17c0.29,0,0.55-0.06,0.78-0.19
								s0.4-0.31,0.52-0.54c0.12-0.23,0.19-0.5,0.19-0.8v-3.1h0.82V128.96z"/>
							<path class="st7" d="M154.1,123.73h0.82v1.75l-0.34,0.51c0.01-0.47,0.1-0.88,0.26-1.23c0.16-0.35,0.38-0.62,0.66-0.8
								s0.61-0.28,0.99-0.28h0.18v0.85h-0.21c-0.31,0-0.58,0.06-0.81,0.18s-0.41,0.29-0.53,0.51c-0.12,0.22-0.19,0.48-0.19,0.77
								v2.97h-0.82V123.73z"/>
							<path class="st7" d="M158.38,128.72c-0.4-0.24-0.71-0.57-0.94-0.98c-0.23-0.42-0.34-0.88-0.34-1.4c0-0.51,0.11-0.98,0.34-1.4
								c0.23-0.42,0.54-0.74,0.94-0.98c0.4-0.24,0.84-0.36,1.34-0.36c0.42,0,0.79,0.07,1.13,0.21c0.33,0.14,0.61,0.35,0.83,0.63
								s0.37,0.62,0.45,1.03h-0.82c-0.07-0.25-0.19-0.46-0.35-0.63c-0.16-0.17-0.35-0.3-0.56-0.38c-0.21-0.08-0.44-0.13-0.68-0.13
								c-0.34,0-0.64,0.09-0.91,0.26c-0.27,0.17-0.48,0.41-0.63,0.71s-0.22,0.65-0.22,1.03c0,0.38,0.07,0.72,0.22,1.03
								s0.36,0.54,0.63,0.71c0.27,0.17,0.57,0.26,0.91,0.26c0.24,0,0.47-0.04,0.68-0.12s0.4-0.21,0.56-0.38
								c0.16-0.17,0.28-0.38,0.35-0.63h0.82c-0.08,0.39-0.23,0.73-0.46,1.02c-0.23,0.28-0.51,0.5-0.85,0.64
								c-0.34,0.15-0.71,0.22-1.11,0.22C159.22,129.08,158.78,128.96,158.38,128.72z"/>
							<path class="st7" d="M164.06,128.73c-0.39-0.23-0.7-0.56-0.92-0.98c-0.22-0.42-0.33-0.89-0.33-1.42
								c0-0.51,0.11-0.98,0.33-1.39c0.22-0.42,0.53-0.74,0.92-0.98c0.39-0.24,0.83-0.35,1.31-0.35c0.49,0,0.93,0.12,1.3,0.35
								s0.66,0.56,0.86,0.98c0.2,0.42,0.3,0.88,0.3,1.41v0.2h-4.22l0.01-0.22c0,0.4,0.08,0.75,0.24,1.06
								c0.15,0.31,0.37,0.55,0.64,0.73c0.27,0.17,0.58,0.26,0.92,0.26c0.23,0,0.44-0.03,0.64-0.08s0.37-0.14,0.51-0.25
								c0.14-0.11,0.26-0.23,0.33-0.37h0.82c-0.06,0.22-0.19,0.44-0.39,0.65s-0.46,0.4-0.8,0.55c-0.34,0.15-0.72,0.22-1.17,0.22
								C164.89,129.08,164.45,128.96,164.06,128.73z M163.62,125.87h3.4v0.46c0-0.4-0.06-0.75-0.19-1.05
								c-0.13-0.3-0.31-0.54-0.56-0.7c-0.25-0.17-0.54-0.25-0.89-0.25s-0.65,0.08-0.92,0.24c-0.27,0.16-0.47,0.39-0.62,0.69
								c-0.15,0.3-0.22,0.64-0.22,1.04L163.62,125.87z"/>
							<path class="st7" d="M172.01,128.81c-0.38-0.18-0.67-0.43-0.88-0.76c-0.21-0.32-0.31-0.69-0.31-1.11h0.87
								c0,0.27,0.07,0.51,0.2,0.71s0.33,0.37,0.58,0.48c0.25,0.12,0.53,0.17,0.85,0.17c0.32,0,0.59-0.05,0.83-0.16
								c0.24-0.11,0.43-0.26,0.56-0.45c0.13-0.2,0.2-0.42,0.2-0.68c0-0.32-0.1-0.6-0.29-0.83c-0.19-0.23-0.45-0.37-0.77-0.43
								l-1.15-0.2c-0.35-0.06-0.65-0.18-0.9-0.36c-0.25-0.18-0.45-0.4-0.59-0.67c-0.14-0.27-0.2-0.56-0.2-0.88
								c0-0.37,0.1-0.71,0.29-1s0.47-0.53,0.82-0.7c0.35-0.17,0.74-0.26,1.18-0.26c0.45,0,0.85,0.08,1.2,0.25
								c0.35,0.17,0.62,0.4,0.82,0.7c0.19,0.3,0.29,0.64,0.29,1.03h-0.87c0-0.23-0.06-0.44-0.18-0.63s-0.29-0.33-0.5-0.43
								c-0.22-0.1-0.47-0.15-0.75-0.15c-0.28,0-0.53,0.05-0.75,0.15c-0.22,0.1-0.39,0.24-0.51,0.42c-0.12,0.18-0.18,0.39-0.18,0.63
								c0,0.28,0.09,0.53,0.27,0.73c0.18,0.2,0.42,0.33,0.72,0.38l1.17,0.2c0.34,0.06,0.64,0.19,0.91,0.39
								c0.27,0.2,0.47,0.45,0.62,0.74c0.15,0.29,0.22,0.6,0.22,0.92c0,0.38-0.1,0.73-0.31,1.05c-0.21,0.31-0.5,0.56-0.87,0.75
								c-0.37,0.18-0.8,0.27-1.28,0.27C172.82,129.08,172.39,128.99,172.01,128.81z"/>
							<path class="st7" d="M177.88,128.73c-0.39-0.23-0.7-0.56-0.92-0.98c-0.22-0.42-0.33-0.89-0.33-1.42
								c0-0.51,0.11-0.98,0.33-1.39c0.22-0.42,0.53-0.74,0.92-0.98c0.39-0.24,0.83-0.35,1.31-0.35c0.49,0,0.93,0.12,1.3,0.35
								s0.66,0.56,0.86,0.98c0.2,0.42,0.3,0.88,0.3,1.41v0.2h-4.22l0.01-0.22c0,0.4,0.08,0.75,0.24,1.06
								c0.15,0.31,0.37,0.55,0.64,0.73c0.27,0.17,0.58,0.26,0.92,0.26c0.23,0,0.44-0.03,0.64-0.08s0.37-0.14,0.51-0.25
								c0.14-0.11,0.26-0.23,0.33-0.37h0.82c-0.06,0.22-0.19,0.44-0.39,0.65s-0.46,0.4-0.8,0.55c-0.34,0.15-0.72,0.22-1.17,0.22
								C178.71,129.08,178.27,128.96,177.88,128.73z M177.44,125.87h3.4v0.46c0-0.4-0.06-0.75-0.19-1.05
								c-0.13-0.3-0.31-0.54-0.56-0.7c-0.25-0.17-0.54-0.25-0.89-0.25s-0.65,0.08-0.92,0.24c-0.27,0.16-0.47,0.39-0.62,0.69
								c-0.15,0.3-0.22,0.64-0.22,1.04L177.44,125.87z"/>
							<path class="st7" d="M183.81,128.79c-0.2-0.11-0.36-0.25-0.48-0.44s-0.17-0.4-0.17-0.63l-0.01-3.27h-0.92l0-0.72h0.57
								c0.13,0,0.23-0.04,0.31-0.12c0.08-0.08,0.12-0.19,0.12-0.31v-0.84h0.73v1.28h1.26l0,0.72h-1.26l0,3.22
								c0,0.16,0.05,0.29,0.16,0.4c0.11,0.11,0.24,0.16,0.4,0.16h0.69v0.73h-0.75C184.23,128.96,184.01,128.9,183.81,128.79z"/>
							<path class="st7" d="M187.57,123.8v1.12h-1.12v-1.12H187.57z M187.57,127.83v1.12h-1.12v-1.12H187.57z"/>
							<path class="st7" d="M192.15,128.72c-0.4-0.24-0.71-0.57-0.94-0.98c-0.23-0.42-0.34-0.88-0.34-1.4c0-0.51,0.11-0.98,0.34-1.4
								c0.23-0.42,0.54-0.74,0.94-0.98c0.4-0.24,0.84-0.36,1.34-0.36c0.42,0,0.79,0.07,1.13,0.21c0.33,0.14,0.61,0.35,0.83,0.63
								s0.37,0.62,0.45,1.03h-0.82c-0.07-0.25-0.19-0.46-0.35-0.63c-0.16-0.17-0.35-0.3-0.56-0.38c-0.21-0.08-0.44-0.13-0.68-0.13
								c-0.34,0-0.64,0.09-0.91,0.26c-0.27,0.17-0.48,0.41-0.63,0.71s-0.22,0.65-0.22,1.03c0,0.38,0.07,0.72,0.22,1.03
								s0.36,0.54,0.63,0.71c0.27,0.17,0.57,0.26,0.91,0.26c0.24,0,0.47-0.04,0.68-0.12s0.4-0.21,0.56-0.38
								c0.16-0.17,0.28-0.38,0.35-0.63h0.82c-0.08,0.39-0.23,0.73-0.46,1.02c-0.23,0.28-0.51,0.5-0.85,0.64
								c-0.34,0.15-0.71,0.22-1.11,0.22C192.99,129.08,192.55,128.96,192.15,128.72z"/>
							<path class="st7" d="M197.89,128.72c-0.41-0.24-0.73-0.56-0.96-0.98c-0.23-0.42-0.35-0.88-0.35-1.4
								c0-0.52,0.12-0.98,0.35-1.4c0.23-0.42,0.55-0.74,0.96-0.98c0.41-0.24,0.86-0.35,1.36-0.35c0.5,0,0.95,0.12,1.35,0.35
								c0.4,0.24,0.72,0.56,0.96,0.98s0.35,0.88,0.35,1.4c0,0.52-0.12,0.99-0.35,1.4c-0.23,0.42-0.55,0.74-0.96,0.98
								s-0.86,0.35-1.36,0.35C198.75,129.08,198.3,128.96,197.89,128.72z M200.17,128.08c0.27-0.17,0.49-0.4,0.64-0.7
								c0.16-0.3,0.23-0.65,0.23-1.04c0-0.39-0.08-0.74-0.23-1.04c-0.16-0.3-0.37-0.54-0.65-0.7c-0.27-0.17-0.58-0.25-0.92-0.25
								s-0.65,0.08-0.92,0.25c-0.28,0.17-0.49,0.4-0.65,0.7c-0.16,0.3-0.24,0.65-0.24,1.04c0,0.39,0.08,0.74,0.24,1.04
								s0.38,0.54,0.65,0.7c0.28,0.17,0.59,0.25,0.93,0.25S199.9,128.25,200.17,128.08z"/>
							<path class="st7" d="M203.05,123.73h0.79v2.26h-0.28c0-0.49,0.08-0.91,0.23-1.27c0.15-0.36,0.37-0.63,0.66-0.82
								c0.29-0.19,0.63-0.29,1.02-0.29c0.37,0,0.7,0.08,0.97,0.25c0.28,0.17,0.5,0.41,0.65,0.72s0.23,0.67,0.23,1.08v3.3h-0.82
								v-3.26c0-0.29-0.05-0.53-0.15-0.74c-0.1-0.21-0.24-0.37-0.42-0.48s-0.41-0.17-0.67-0.17c-0.28,0-0.53,0.06-0.74,0.19
								s-0.37,0.31-0.49,0.54c-0.11,0.23-0.17,0.51-0.17,0.83v3.1h-0.82V123.73z M209.8,124.95c-0.1-0.21-0.24-0.37-0.42-0.48
								s-0.41-0.17-0.67-0.17c-0.28,0-0.52,0.06-0.74,0.19c-0.21,0.13-0.37,0.31-0.49,0.54c-0.12,0.23-0.17,0.51-0.17,0.82
								l-0.46,0.13c0-0.47,0.08-0.88,0.24-1.25c0.16-0.36,0.4-0.64,0.7-0.84c0.3-0.2,0.66-0.3,1.06-0.3c0.37,0,0.7,0.08,0.99,0.25
								s0.51,0.41,0.67,0.72c0.16,0.31,0.24,0.67,0.24,1.08v3.3h-0.82v-3.26C209.95,125.41,209.9,125.16,209.8,124.95z"/>
							<path class="st7" d="M212.19,123.73h0.79v2.26h-0.28c0-0.49,0.08-0.91,0.23-1.27c0.15-0.36,0.37-0.63,0.66-0.82
								c0.29-0.19,0.63-0.29,1.02-0.29c0.37,0,0.7,0.08,0.97,0.25c0.28,0.17,0.5,0.41,0.65,0.72s0.23,0.67,0.23,1.08v3.3h-0.82
								v-3.26c0-0.29-0.05-0.53-0.15-0.74c-0.1-0.21-0.24-0.37-0.42-0.48s-0.41-0.17-0.67-0.17c-0.28,0-0.53,0.06-0.74,0.19
								s-0.37,0.31-0.49,0.54c-0.11,0.23-0.17,0.51-0.17,0.83v3.1h-0.82V123.73z M218.95,124.95c-0.1-0.21-0.24-0.37-0.42-0.48
								s-0.41-0.17-0.67-0.17c-0.28,0-0.52,0.06-0.74,0.19c-0.21,0.13-0.37,0.31-0.49,0.54c-0.12,0.23-0.17,0.51-0.17,0.82
								l-0.46,0.13c0-0.47,0.08-0.88,0.24-1.25c0.16-0.36,0.4-0.64,0.7-0.84c0.3-0.2,0.66-0.3,1.06-0.3c0.37,0,0.7,0.08,0.99,0.25
								s0.51,0.41,0.67,0.72c0.16,0.31,0.24,0.67,0.24,1.08v3.3h-0.82v-3.26C219.09,125.41,219.05,125.16,218.95,124.95z"/>
							<path class="st7" d="M222.2,128.72c-0.41-0.24-0.73-0.56-0.96-0.98c-0.23-0.42-0.35-0.88-0.35-1.4c0-0.52,0.12-0.98,0.35-1.4
								c0.23-0.42,0.55-0.74,0.96-0.98c0.41-0.24,0.86-0.35,1.36-0.35c0.5,0,0.95,0.12,1.35,0.35c0.4,0.24,0.72,0.56,0.96,0.98
								s0.35,0.88,0.35,1.4c0,0.52-0.12,0.99-0.35,1.4c-0.23,0.42-0.55,0.74-0.96,0.98s-0.86,0.35-1.36,0.35
								C223.06,129.08,222.61,128.96,222.2,128.72z M224.49,128.08c0.27-0.17,0.49-0.4,0.64-0.7c0.16-0.3,0.23-0.65,0.23-1.04
								c0-0.39-0.08-0.74-0.23-1.04c-0.16-0.3-0.37-0.54-0.65-0.7c-0.27-0.17-0.58-0.25-0.92-0.25s-0.65,0.08-0.92,0.25
								c-0.28,0.17-0.49,0.4-0.65,0.7c-0.16,0.3-0.24,0.65-0.24,1.04c0,0.39,0.08,0.74,0.24,1.04s0.38,0.54,0.65,0.7
								c0.28,0.17,0.59,0.25,0.93,0.25S224.22,128.25,224.49,128.08z"/>
							<path class="st7" d="M227.36,123.73h0.79v2.26h-0.33c0-0.48,0.08-0.9,0.25-1.26c0.17-0.36,0.41-0.64,0.71-0.83
								c0.31-0.19,0.67-0.29,1.09-0.29c0.37,0,0.71,0.08,1,0.24s0.52,0.4,0.68,0.71c0.17,0.31,0.25,0.68,0.25,1.12v3.28h-0.82v-3.2
								c0-0.3-0.05-0.56-0.16-0.78c-0.11-0.21-0.26-0.38-0.46-0.49s-0.43-0.17-0.7-0.17c-0.29,0-0.55,0.06-0.78,0.19
								c-0.22,0.13-0.4,0.31-0.52,0.54c-0.12,0.23-0.19,0.5-0.19,0.8v3.1h-0.82V123.73z"/>
							<path class="st7" d="M233.44,121.81h1.06l2.56,5.73l0.13,0.36l0.13-0.36l2.52-5.73h1.08v7.15h-0.85v-5.65v-0.13l-2.53,5.78
								h-0.71l-2.55-5.75v0.1v5.65h-0.84V121.81z"/>
							<path class="st7" d="M245.58,123.82c0.3,0.14,0.53,0.36,0.7,0.63s0.25,0.61,0.25,0.99v3.51h-0.8V127h0.21
								c0,0.44-0.08,0.81-0.22,1.12c-0.15,0.31-0.36,0.55-0.64,0.71c-0.28,0.16-0.61,0.25-1,0.25c-0.33,0-0.63-0.06-0.9-0.19
								c-0.27-0.13-0.48-0.31-0.63-0.54c-0.15-0.23-0.23-0.49-0.23-0.78c0-0.27,0.07-0.52,0.21-0.75s0.34-0.42,0.59-0.56
								s0.53-0.24,0.84-0.27l1.39-0.15c0.12-0.01,0.21-0.06,0.27-0.14c0.06-0.08,0.1-0.2,0.1-0.36l0.06,1.07l-1.71,0.19
								c-0.18,0.02-0.33,0.07-0.47,0.16c-0.14,0.09-0.24,0.2-0.32,0.33s-0.11,0.29-0.11,0.45c0,0.18,0.05,0.33,0.14,0.47
								c0.09,0.14,0.22,0.24,0.39,0.32c0.17,0.08,0.36,0.11,0.57,0.11c0.29,0,0.55-0.06,0.77-0.18c0.22-0.12,0.39-0.29,0.51-0.5
								c0.12-0.22,0.18-0.47,0.18-0.75v-1.66c0-0.21-0.05-0.39-0.15-0.55c-0.1-0.16-0.24-0.28-0.42-0.37
								c-0.18-0.09-0.39-0.13-0.62-0.13c-0.23,0-0.45,0.04-0.63,0.12s-0.34,0.19-0.45,0.32c-0.11,0.13-0.18,0.28-0.21,0.44h-0.82
								c0.04-0.3,0.16-0.56,0.35-0.8c0.19-0.24,0.44-0.42,0.75-0.56s0.64-0.2,1.02-0.2C244.93,123.61,245.28,123.68,245.58,123.82z"
								/>
							<path class="st7" d="M248.84,121.81v0.97h-0.96v-0.97H248.84z M247.95,123.73h0.82v5.23h-0.82V123.73z"/>
							<path class="st7" d="M250.35,123.73h0.79v2.26h-0.33c0-0.48,0.08-0.9,0.25-1.26c0.17-0.36,0.41-0.64,0.71-0.83
								c0.31-0.19,0.67-0.29,1.09-0.29c0.37,0,0.71,0.08,1,0.24s0.52,0.4,0.68,0.71c0.17,0.31,0.25,0.68,0.25,1.12v3.28h-0.82v-3.2
								c0-0.3-0.05-0.56-0.16-0.78c-0.11-0.21-0.26-0.38-0.46-0.49s-0.43-0.17-0.7-0.17c-0.29,0-0.55,0.06-0.78,0.19
								c-0.22,0.13-0.4,0.31-0.52,0.54c-0.12,0.23-0.19,0.5-0.19,0.8v3.1h-0.82V123.73z"/>
						</g>
					</g>
					<path class="st3" d="M553.48,56.83l-407.13,0c-8.05,0-14.58,6.53-14.58,14.58v29.73c0,8.05,6.53,14.58,14.58,14.58l407.13,0
						c8.05,0,14.58-6.53,14.58-14.58V71.42C568.06,63.36,561.54,56.83,553.48,56.83z"/>
					<g>
						<g>
							<g>
								<radialGradient id="SVGID_1_" cx="134.8467" cy="112.8828" r="191.567" gradientUnits="userSpaceOnUse">
									<stop  offset="0" style="stop-color:#EB4857"/>
									<stop  offset="0.5" style="stop-color:#C611E0"/>
									<stop  offset="1" style="stop-color:#7F52FF"/>
								</radialGradient>
								<path class="st4" d="M320.97,60.35l-174.64,0c-6.04,0-10.94,4.9-10.94,10.94v29.88c0,6.04,4.9,10.94,10.94,10.94h174.64
									c6.04,0,10.94-4.9,10.94-10.94V71.28C331.9,65.24,327.01,60.35,320.97,60.35z"/>
							</g>
						</g>
						<g>
							<path class="st0" d="M151.69,90.29c-0.5-0.3-0.89-0.71-1.17-1.23c-0.28-0.52-0.42-1.1-0.42-1.74c0-0.64,0.14-1.22,0.42-1.75
								c0.28-0.52,0.67-0.93,1.17-1.23c0.5-0.3,1.05-0.45,1.67-0.45c0.52,0,0.99,0.09,1.41,0.26c0.42,0.18,0.76,0.44,1.04,0.79
								c0.28,0.35,0.47,0.78,0.57,1.29h-1.02c-0.09-0.31-0.24-0.58-0.44-0.79c-0.2-0.21-0.43-0.37-0.7-0.48
								c-0.27-0.1-0.55-0.16-0.85-0.16c-0.42,0-0.8,0.11-1.13,0.32c-0.33,0.21-0.59,0.51-0.78,0.89c-0.19,0.38-0.28,0.81-0.28,1.29
								c0,0.48,0.09,0.9,0.28,1.28s0.45,0.68,0.78,0.89c0.33,0.21,0.71,0.32,1.13,0.32c0.3,0,0.59-0.05,0.85-0.16
								c0.27-0.1,0.5-0.26,0.7-0.48c0.2-0.21,0.35-0.48,0.44-0.79h1.02c-0.1,0.49-0.29,0.92-0.57,1.27
								c-0.29,0.35-0.64,0.62-1.06,0.8c-0.42,0.18-0.88,0.27-1.38,0.27C152.75,90.74,152.19,90.59,151.69,90.29z"/>
							<path class="st0" d="M159.12,90.29c-0.51-0.3-0.91-0.7-1.2-1.23c-0.29-0.52-0.44-1.1-0.44-1.75s0.15-1.23,0.44-1.75
								s0.69-0.93,1.2-1.23c0.51-0.3,1.08-0.44,1.7-0.44c0.62,0,1.18,0.15,1.69,0.44c0.51,0.3,0.91,0.7,1.2,1.22
								c0.29,0.52,0.44,1.1,0.44,1.75c0,0.65-0.15,1.24-0.44,1.75c-0.29,0.52-0.69,0.93-1.2,1.22c-0.51,0.3-1.07,0.44-1.7,0.44
								C160.2,90.74,159.63,90.59,159.12,90.29z M161.98,89.49c0.34-0.21,0.61-0.5,0.8-0.88s0.29-0.81,0.29-1.3
								c0-0.49-0.1-0.92-0.29-1.3s-0.46-0.67-0.81-0.88s-0.73-0.31-1.15-0.31s-0.81,0.1-1.15,0.31c-0.34,0.21-0.62,0.5-0.81,0.88
								s-0.3,0.81-0.3,1.3c0,0.49,0.1,0.92,0.3,1.3s0.47,0.67,0.82,0.88c0.35,0.21,0.73,0.31,1.16,0.31S161.64,89.7,161.98,89.49z"
								/>
							<path class="st0" d="M165.82,84.05h0.98v2.83h-0.34c0-0.61,0.09-1.14,0.28-1.59c0.19-0.45,0.46-0.79,0.82-1.03
								s0.78-0.36,1.28-0.36c0.46,0,0.87,0.1,1.22,0.32c0.35,0.21,0.62,0.51,0.81,0.9c0.19,0.39,0.29,0.84,0.29,1.35v4.12h-1.02
								v-4.08c0-0.36-0.06-0.67-0.18-0.93c-0.12-0.26-0.3-0.46-0.53-0.6c-0.23-0.14-0.51-0.21-0.83-0.21
								c-0.35,0-0.66,0.08-0.93,0.24c-0.26,0.16-0.47,0.38-0.61,0.68c-0.14,0.29-0.21,0.64-0.21,1.03v3.87h-1.02V84.05z
								 M174.27,85.58c-0.12-0.26-0.3-0.46-0.53-0.6c-0.23-0.14-0.51-0.21-0.84-0.21c-0.35,0-0.66,0.08-0.92,0.24
								s-0.47,0.38-0.61,0.68c-0.15,0.29-0.22,0.63-0.22,1.03l-0.57,0.17c0-0.59,0.1-1.11,0.31-1.56c0.2-0.45,0.5-0.8,0.88-1.05
								c0.38-0.25,0.82-0.37,1.33-0.37c0.46,0,0.88,0.1,1.23,0.32c0.36,0.21,0.64,0.51,0.84,0.9c0.2,0.39,0.3,0.84,0.3,1.35v4.12
								h-1.02v-4.08C174.45,86.15,174.39,85.84,174.27,85.58z"/>
							<path class="st0" d="M177.51,84.05h0.98v2.83h-0.34c0-0.61,0.09-1.14,0.28-1.59c0.19-0.45,0.46-0.79,0.82-1.03
								s0.78-0.36,1.28-0.36c0.46,0,0.87,0.1,1.22,0.32c0.35,0.21,0.62,0.51,0.81,0.9c0.19,0.39,0.29,0.84,0.29,1.35v4.12h-1.02
								v-4.08c0-0.36-0.06-0.67-0.18-0.93c-0.12-0.26-0.3-0.46-0.53-0.6c-0.23-0.14-0.51-0.21-0.83-0.21
								c-0.35,0-0.66,0.08-0.93,0.24c-0.26,0.16-0.47,0.38-0.61,0.68c-0.14,0.29-0.21,0.64-0.21,1.03v3.87h-1.02V84.05z
								 M185.96,85.58c-0.12-0.26-0.3-0.46-0.53-0.6c-0.23-0.14-0.51-0.21-0.84-0.21c-0.35,0-0.66,0.08-0.92,0.24
								s-0.47,0.38-0.61,0.68c-0.15,0.29-0.22,0.63-0.22,1.03l-0.57,0.17c0-0.59,0.1-1.11,0.31-1.56c0.2-0.45,0.5-0.8,0.88-1.05
								c0.38-0.25,0.82-0.37,1.33-0.37c0.46,0,0.88,0.1,1.23,0.32c0.36,0.21,0.64,0.51,0.84,0.9c0.2,0.39,0.3,0.84,0.3,1.35v4.12
								h-1.02v-4.08C186.14,86.15,186.08,85.84,185.96,85.58z"/>
							<path class="st0" d="M190.28,90.29c-0.51-0.3-0.91-0.7-1.2-1.23c-0.29-0.52-0.44-1.1-0.44-1.75s0.15-1.23,0.44-1.75
								s0.69-0.93,1.2-1.23c0.51-0.3,1.08-0.44,1.7-0.44c0.62,0,1.18,0.15,1.69,0.44c0.51,0.3,0.91,0.7,1.2,1.22
								c0.29,0.52,0.44,1.1,0.44,1.75c0,0.65-0.15,1.24-0.44,1.75c-0.29,0.52-0.69,0.93-1.2,1.22c-0.51,0.3-1.07,0.44-1.7,0.44
								C191.36,90.74,190.79,90.59,190.28,90.29z M193.14,89.49c0.34-0.21,0.61-0.5,0.8-0.88s0.29-0.81,0.29-1.3
								c0-0.49-0.1-0.92-0.29-1.3s-0.46-0.67-0.81-0.88s-0.73-0.31-1.15-0.31s-0.81,0.1-1.15,0.31c-0.34,0.21-0.62,0.5-0.81,0.88
								s-0.3,0.81-0.3,1.3c0,0.49,0.1,0.92,0.3,1.3s0.47,0.67,0.82,0.88c0.35,0.21,0.73,0.31,1.16,0.31S192.8,89.7,193.14,89.49z"/>
							<path class="st0" d="M196.99,84.05h0.98v2.83h-0.41c0-0.6,0.1-1.13,0.31-1.58s0.51-0.79,0.89-1.04
								c0.39-0.24,0.84-0.36,1.37-0.36c0.47,0,0.88,0.1,1.24,0.3c0.36,0.2,0.65,0.49,0.85,0.88c0.21,0.39,0.31,0.86,0.31,1.4v4.1
								h-1.02v-4c0-0.38-0.07-0.7-0.2-0.97c-0.13-0.27-0.32-0.47-0.57-0.61c-0.25-0.14-0.54-0.21-0.88-0.21
								c-0.37,0-0.69,0.08-0.97,0.24s-0.5,0.39-0.65,0.68c-0.16,0.29-0.23,0.62-0.23,1v3.87h-1.02V84.05z"/>
							<path class="st0" d="M204.83,81.65h1.32l3.2,7.16l0.17,0.45l0.16-0.45l3.15-7.16h1.35v8.93h-1.06v-7.06v-0.17l-3.16,7.22
								h-0.89l-3.18-7.18v0.13v7.06h-1.05V81.65z"/>
							<path class="st0" d="M220.27,84.17c0.37,0.18,0.66,0.44,0.87,0.79c0.21,0.35,0.31,0.76,0.31,1.23v4.39h-1v-2.44h0.27
								c0,0.54-0.09,1.01-0.28,1.4s-0.46,0.69-0.8,0.89c-0.35,0.2-0.76,0.31-1.24,0.31c-0.42,0-0.79-0.08-1.13-0.24
								s-0.6-0.38-0.79-0.67s-0.29-0.61-0.29-0.97c0-0.34,0.09-0.65,0.26-0.94c0.18-0.29,0.42-0.52,0.73-0.71
								c0.31-0.18,0.66-0.3,1.06-0.34l1.74-0.19c0.14-0.02,0.26-0.08,0.34-0.18c0.08-0.1,0.12-0.25,0.12-0.45l0.08,1.34l-2.14,0.24
								c-0.22,0.03-0.42,0.09-0.59,0.2s-0.31,0.24-0.4,0.41c-0.1,0.17-0.14,0.36-0.14,0.56c0,0.22,0.06,0.42,0.18,0.59
								c0.12,0.17,0.28,0.3,0.49,0.4c0.21,0.1,0.45,0.14,0.71,0.14c0.37,0,0.69-0.07,0.96-0.22s0.49-0.36,0.63-0.63
								c0.15-0.27,0.22-0.58,0.22-0.93v-2.08c0-0.26-0.06-0.49-0.19-0.69s-0.3-0.35-0.52-0.46c-0.22-0.11-0.48-0.16-0.77-0.16
								s-0.56,0.05-0.79,0.15s-0.42,0.23-0.56,0.4s-0.23,0.35-0.26,0.55h-1.02c0.05-0.37,0.2-0.7,0.44-1
								c0.24-0.3,0.55-0.53,0.93-0.7c0.38-0.17,0.81-0.26,1.27-0.26C219.46,83.9,219.89,83.99,220.27,84.17z"/>
							<path class="st0" d="M224.6,81.65v1.21h-1.2v-1.21H224.6z M223.49,84.05h1.02v6.53h-1.02V84.05z"/>
							<path class="st0" d="M226.74,84.05h0.98v2.83h-0.41c0-0.6,0.1-1.13,0.31-1.58s0.51-0.79,0.89-1.04
								c0.39-0.24,0.84-0.36,1.37-0.36c0.47,0,0.88,0.1,1.24,0.3c0.36,0.2,0.65,0.49,0.85,0.88c0.21,0.39,0.31,0.86,0.31,1.4v4.1
								h-1.02v-4c0-0.38-0.07-0.7-0.2-0.97c-0.13-0.27-0.32-0.47-0.57-0.61c-0.25-0.14-0.54-0.21-0.88-0.21
								c-0.37,0-0.69,0.08-0.97,0.24s-0.5,0.39-0.65,0.68c-0.16,0.29-0.23,0.62-0.23,1v3.87h-1.02V84.05z"/>
							<path class="st0" d="M237.28,81.65h1.05l-4.06,8.93h-1.05L237.28,81.65z"/>
							<path class="st0" d="M240.55,89.18v1.4h-1.4v-1.4H240.55z"/>
							<path class="st0" d="M243.6,89.18v1.4h-1.4v-1.4H243.6z"/>
							<path class="st0" d="M246.65,89.18v1.4h-1.4v-1.4H246.65z"/>
							<path class="st0" d="M251.53,81.65h1.05l-4.06,8.93h-1.05L251.53,81.65z"/>
							<path class="st0" d="M254.99,92.56c-0.4-0.15-0.74-0.36-1.01-0.63c-0.27-0.27-0.44-0.59-0.52-0.94h1.02
								c0.09,0.2,0.23,0.36,0.41,0.5c0.18,0.14,0.39,0.24,0.63,0.31c0.24,0.07,0.49,0.1,0.75,0.1c0.42,0,0.78-0.08,1.09-0.25
								c0.31-0.17,0.55-0.4,0.72-0.71c0.17-0.3,0.25-0.65,0.25-1.05v-0.27l0.05-1.84l0.53-0.65c-0.01,0.58-0.14,1.09-0.38,1.55
								c-0.25,0.45-0.58,0.81-1.01,1.06c-0.43,0.25-0.91,0.38-1.44,0.38c-0.55,0-1.05-0.13-1.5-0.4c-0.45-0.27-0.8-0.63-1.05-1.1
								c-0.25-0.47-0.38-1-0.38-1.59c0-0.59,0.13-1.12,0.38-1.59c0.26-0.47,0.61-0.84,1.05-1.11c0.45-0.27,0.95-0.4,1.5-0.4
								c0.53,0,1.01,0.13,1.44,0.38c0.43,0.26,0.76,0.61,1.01,1.07c0.25,0.46,0.37,0.97,0.38,1.56l-0.53-0.57v-2.28h0.99l-0.02,5.83
								c0,0.57-0.13,1.07-0.38,1.51c-0.26,0.44-0.61,0.78-1.08,1.02c-0.46,0.24-1,0.36-1.6,0.36
								C255.84,92.78,255.4,92.7,254.99,92.56z M257.35,88.92c0.31-0.19,0.56-0.46,0.74-0.79c0.18-0.34,0.27-0.71,0.27-1.12
								c0-0.42-0.09-0.79-0.27-1.13c-0.18-0.34-0.43-0.6-0.74-0.79c-0.31-0.19-0.66-0.29-1.05-0.29c-0.39,0-0.74,0.1-1.06,0.29
								c-0.31,0.19-0.56,0.46-0.74,0.79c-0.18,0.34-0.27,0.71-0.27,1.13c0,0.41,0.09,0.79,0.27,1.12c0.18,0.34,0.42,0.6,0.74,0.79
								c0.31,0.19,0.67,0.29,1.06,0.29C256.69,89.21,257.04,89.11,257.35,88.92z"/>
							<path class="st0" d="M261.62,84.05h1.02v2.19l-0.43,0.64c0.02-0.59,0.12-1.1,0.32-1.53c0.2-0.44,0.47-0.77,0.83-1
								c0.35-0.23,0.76-0.35,1.23-0.35h0.23v1.07h-0.27c-0.39,0-0.73,0.07-1.01,0.22c-0.29,0.15-0.51,0.36-0.67,0.63
								c-0.16,0.27-0.23,0.6-0.23,0.97v3.71h-1.02V84.05z"/>
							<path class="st0" d="M267.19,90.3c-0.49-0.29-0.87-0.7-1.15-1.22c-0.27-0.52-0.41-1.11-0.41-1.77c0-0.64,0.14-1.22,0.42-1.74
								c0.28-0.52,0.66-0.93,1.15-1.22c0.49-0.3,1.04-0.44,1.64-0.44c0.62,0,1.16,0.15,1.62,0.44c0.47,0.29,0.83,0.7,1.08,1.22
								c0.25,0.52,0.38,1.11,0.38,1.76v0.25h-5.28l0.01-0.28c0,0.49,0.1,0.94,0.3,1.32s0.46,0.69,0.8,0.91
								c0.34,0.22,0.72,0.33,1.15,0.33c0.29,0,0.55-0.04,0.79-0.11c0.24-0.07,0.46-0.17,0.64-0.31c0.18-0.13,0.32-0.29,0.42-0.47
								h1.02c-0.08,0.27-0.24,0.54-0.48,0.82c-0.24,0.27-0.58,0.5-1,0.68c-0.42,0.18-0.9,0.27-1.46,0.27
								C268.23,90.74,267.68,90.59,267.19,90.3z M266.64,86.72h4.26v0.58c0-0.5-0.08-0.94-0.24-1.32c-0.16-0.38-0.39-0.67-0.7-0.88
								c-0.31-0.21-0.68-0.31-1.11-0.31c-0.43,0-0.82,0.1-1.15,0.3c-0.33,0.2-0.59,0.49-0.77,0.86c-0.18,0.37-0.27,0.81-0.27,1.3
								L266.64,86.72z"/>
							<path class="st0" d="M274.6,90.3c-0.49-0.29-0.87-0.7-1.15-1.22c-0.27-0.52-0.41-1.11-0.41-1.77c0-0.64,0.14-1.22,0.42-1.74
								c0.28-0.52,0.66-0.93,1.15-1.22c0.49-0.3,1.04-0.44,1.64-0.44c0.62,0,1.16,0.15,1.62,0.44c0.47,0.29,0.83,0.7,1.08,1.22
								c0.25,0.52,0.38,1.11,0.38,1.76v0.25h-5.28l0.01-0.28c0,0.49,0.1,0.94,0.3,1.32s0.46,0.69,0.8,0.91
								c0.34,0.22,0.72,0.33,1.15,0.33c0.29,0,0.55-0.04,0.79-0.11c0.24-0.07,0.46-0.17,0.64-0.31c0.18-0.13,0.32-0.29,0.42-0.47
								h1.02c-0.08,0.27-0.24,0.54-0.48,0.82c-0.24,0.27-0.58,0.5-1,0.68c-0.42,0.18-0.9,0.27-1.46,0.27
								C275.64,90.74,275.09,90.59,274.6,90.3z M274.06,86.72h4.26v0.58c0-0.5-0.08-0.94-0.24-1.32c-0.16-0.38-0.39-0.67-0.7-0.88
								c-0.31-0.21-0.68-0.31-1.11-0.31c-0.43,0-0.82,0.1-1.15,0.3c-0.33,0.2-0.59,0.49-0.77,0.86c-0.18,0.37-0.27,0.81-0.27,1.3
								L274.06,86.72z"/>
							<path class="st0" d="M282.27,90.38c-0.25-0.13-0.45-0.32-0.6-0.56c-0.15-0.24-0.22-0.5-0.22-0.79l-0.01-4.08h-1.15l0.01-0.91
								h0.71c0.16,0,0.29-0.05,0.39-0.15s0.15-0.23,0.15-0.39v-1.05h0.92v1.59h1.58l-0.01,0.91h-1.58l0.01,4.02
								c0,0.2,0.07,0.37,0.2,0.5c0.13,0.13,0.3,0.2,0.5,0.2h0.87v0.91h-0.93C282.8,90.58,282.52,90.52,282.27,90.38z"/>
							<path class="st0" d="M286.93,81.65v1.21h-1.2v-1.21H286.93z M285.82,84.05h1.02v6.53h-1.02V84.05z"/>
							<path class="st0" d="M289.07,84.05h0.98v2.83h-0.41c0-0.6,0.1-1.13,0.31-1.58s0.51-0.79,0.89-1.04
								c0.39-0.24,0.84-0.36,1.37-0.36c0.47,0,0.88,0.1,1.24,0.3c0.36,0.2,0.65,0.49,0.85,0.88c0.21,0.39,0.31,0.86,0.31,1.4v4.1
								h-1.02v-4c0-0.38-0.07-0.7-0.2-0.97c-0.13-0.27-0.32-0.47-0.57-0.61c-0.25-0.14-0.54-0.21-0.88-0.21
								c-0.37,0-0.69,0.08-0.97,0.24s-0.5,0.39-0.65,0.68c-0.16,0.29-0.23,0.62-0.23,1v3.87h-1.02V84.05z"/>
							<path class="st0" d="M297.96,92.56c-0.4-0.15-0.74-0.36-1.01-0.63c-0.27-0.27-0.44-0.59-0.52-0.94h1.02
								c0.09,0.2,0.23,0.36,0.41,0.5c0.18,0.14,0.39,0.24,0.63,0.31c0.24,0.07,0.49,0.1,0.75,0.1c0.42,0,0.78-0.08,1.09-0.25
								c0.31-0.17,0.55-0.4,0.72-0.71c0.17-0.3,0.25-0.65,0.25-1.05v-0.27l0.05-1.84l0.53-0.65c-0.01,0.58-0.14,1.09-0.38,1.55
								c-0.25,0.45-0.58,0.81-1.01,1.06c-0.43,0.25-0.91,0.38-1.44,0.38c-0.55,0-1.05-0.13-1.5-0.4c-0.45-0.27-0.8-0.63-1.05-1.1
								c-0.25-0.47-0.38-1-0.38-1.59c0-0.59,0.13-1.12,0.38-1.59c0.26-0.47,0.61-0.84,1.05-1.11c0.45-0.27,0.95-0.4,1.5-0.4
								c0.53,0,1.01,0.13,1.44,0.38c0.43,0.26,0.76,0.61,1.01,1.07c0.25,0.46,0.37,0.97,0.38,1.56l-0.53-0.57v-2.28h0.99l-0.02,5.83
								c0,0.57-0.13,1.07-0.38,1.51c-0.26,0.44-0.61,0.78-1.08,1.02c-0.46,0.24-1,0.36-1.6,0.36
								C298.81,92.78,298.37,92.7,297.96,92.56z M300.32,88.92c0.31-0.19,0.56-0.46,0.74-0.79c0.18-0.34,0.27-0.71,0.27-1.12
								c0-0.42-0.09-0.79-0.27-1.13c-0.18-0.34-0.43-0.6-0.74-0.79c-0.31-0.19-0.66-0.29-1.05-0.29c-0.39,0-0.74,0.1-1.06,0.29
								c-0.31,0.19-0.56,0.46-0.74,0.79c-0.18,0.34-0.27,0.71-0.27,1.13c0,0.41,0.09,0.79,0.27,1.12c0.18,0.34,0.42,0.6,0.74,0.79
								c0.31,0.19,0.67,0.29,1.06,0.29C299.66,89.21,300.01,89.11,300.32,88.92z"/>
							<path class="st0" d="M305.7,89.18v1.4h-1.4v-1.4H305.7z"/>
							<path class="st0" d="M307.64,81.65h1.02v5.46l2.96-3.06h1.27l-2.98,3.11l3.09,3.42h-1.31l-3.03-3.29v3.29h-1.02V81.65z"/>
							<path class="st0" d="M315.41,90.38c-0.25-0.13-0.45-0.32-0.6-0.56c-0.15-0.24-0.22-0.5-0.22-0.79l-0.01-4.08h-1.15l0.01-0.91
								h0.71c0.16,0,0.29-0.05,0.39-0.15s0.15-0.23,0.15-0.39v-1.05h0.92v1.59h1.58l-0.01,0.91h-1.58l0.01,4.02
								c0,0.2,0.07,0.37,0.2,0.5c0.13,0.13,0.3,0.2,0.5,0.2h0.87v0.91h-0.93C315.95,90.58,315.66,90.52,315.41,90.38z"/>
						</g>
					</g>
					<g>
						<g>
							<g>
								<g>
									<path class="st2" d="M436,87.63l-87.88,0c-6.78,0-12.28,5.5-12.28,12.28v0c0,6.78,5.5,12.28,12.28,12.28l87.88,0
										c6.78,0,12.28-5.5,12.28-12.28v0C448.29,93.13,442.79,87.63,436,87.63z"/>
								</g>
							</g>
							<g>
								<path d="M386.13,103.37h1.52c0.25,0,0.47-0.05,0.67-0.16c0.19-0.11,0.34-0.26,0.45-0.45c0.11-0.19,0.16-0.42,0.16-0.67
									v-6.67h1.06v6.73c0,0.43-0.1,0.81-0.29,1.15s-0.46,0.59-0.8,0.78c-0.34,0.19-0.74,0.28-1.18,0.28h-1.58V103.37z"/>
								<path d="M393.47,104.17c-0.47-0.23-0.84-0.54-1.1-0.94c-0.26-0.4-0.39-0.87-0.39-1.39h1.08c0,0.34,0.08,0.63,0.25,0.89
									c0.17,0.26,0.41,0.46,0.72,0.61s0.67,0.22,1.07,0.22c0.4,0,0.74-0.07,1.04-0.2c0.3-0.13,0.53-0.32,0.7-0.57
									c0.16-0.24,0.25-0.53,0.25-0.85c0-0.4-0.12-0.75-0.36-1.04c-0.24-0.29-0.56-0.47-0.96-0.54l-1.44-0.25
									c-0.43-0.08-0.81-0.23-1.13-0.45c-0.32-0.23-0.56-0.51-0.73-0.84c-0.17-0.34-0.25-0.7-0.25-1.1c0-0.46,0.12-0.88,0.37-1.25
									c0.24-0.37,0.58-0.66,1.02-0.88c0.44-0.21,0.93-0.32,1.47-0.32c0.56,0,1.06,0.11,1.5,0.32s0.78,0.5,1.02,0.88
									c0.24,0.37,0.36,0.8,0.36,1.28h-1.08c0-0.29-0.07-0.56-0.22-0.79c-0.15-0.23-0.36-0.41-0.63-0.54
									c-0.27-0.13-0.58-0.19-0.93-0.19s-0.67,0.06-0.94,0.19c-0.27,0.12-0.48,0.3-0.63,0.52c-0.15,0.23-0.23,0.49-0.23,0.78
									c0,0.35,0.11,0.66,0.34,0.91c0.23,0.26,0.53,0.42,0.9,0.48l1.47,0.26c0.43,0.08,0.8,0.24,1.14,0.49
									c0.33,0.25,0.59,0.56,0.77,0.92c0.18,0.36,0.27,0.75,0.27,1.15c0,0.48-0.13,0.92-0.39,1.31c-0.26,0.39-0.62,0.7-1.09,0.93
									c-0.47,0.23-1,0.34-1.6,0.34C394.48,104.51,393.94,104.4,393.47,104.17z"/>
							</g>
						</g>
						<g>
							<g>
								<g>
									<path class="st2" d="M552.18,60.46l-87.88,0c-6.78,0-12.28,5.5-12.28,12.28v0c0,6.78,5.5,12.28,12.28,12.28l87.88,0
										c6.78,0,12.28-5.5,12.28-12.28v0C564.46,65.96,558.96,60.46,552.18,60.46z"/>
								</g>
							</g>
							<g>
								<path d="M479.99,68.25v1.21h-1.2v-1.21H479.99z M478.88,70.65h1.02v6.53h-1.02V70.65z"/>
								<path d="M483.92,76.74c-0.67-0.4-1.2-0.95-1.59-1.66c-0.39-0.7-0.58-1.49-0.58-2.36s0.19-1.65,0.58-2.36
									c0.39-0.7,0.92-1.26,1.59-1.66s1.42-0.6,2.25-0.6c0.82,0,1.57,0.2,2.24,0.6c0.67,0.4,1.21,0.96,1.59,1.66
									c0.39,0.7,0.58,1.49,0.58,2.36s-0.19,1.65-0.58,2.36c-0.39,0.7-0.92,1.26-1.59,1.66c-0.67,0.4-1.42,0.6-2.24,0.6
									C485.34,77.34,484.59,77.14,483.92,76.74z M487.86,75.9c0.51-0.31,0.9-0.75,1.19-1.3s0.43-1.18,0.43-1.88
									c0-0.7-0.14-1.33-0.42-1.89c-0.28-0.55-0.68-0.99-1.18-1.3c-0.5-0.31-1.08-0.47-1.71-0.47c-0.63,0-1.2,0.16-1.7,0.47
									s-0.9,0.75-1.19,1.3s-0.43,1.18-0.43,1.88c0,0.7,0.14,1.33,0.43,1.88c0.29,0.55,0.68,0.99,1.19,1.3
									c0.5,0.31,1.07,0.47,1.7,0.47C486.79,76.37,487.35,76.21,487.86,75.9z"/>
								<path d="M493.5,77c-0.47-0.23-0.84-0.54-1.1-0.94c-0.26-0.4-0.39-0.87-0.39-1.39h1.08c0,0.34,0.08,0.63,0.26,0.89
									c0.17,0.26,0.41,0.46,0.72,0.61s0.67,0.22,1.07,0.22c0.4,0,0.74-0.07,1.04-0.2c0.3-0.13,0.53-0.32,0.7-0.57
									c0.16-0.24,0.25-0.53,0.25-0.85c0-0.4-0.12-0.75-0.36-1.04c-0.24-0.29-0.56-0.47-0.96-0.54l-1.44-0.25
									c-0.43-0.08-0.81-0.23-1.13-0.45c-0.32-0.23-0.56-0.51-0.73-0.84c-0.17-0.34-0.25-0.7-0.25-1.1c0-0.46,0.12-0.88,0.37-1.25
									c0.24-0.37,0.58-0.66,1.02-0.88c0.44-0.21,0.93-0.32,1.47-0.32c0.56,0,1.06,0.11,1.5,0.32s0.78,0.5,1.02,0.88
									c0.24,0.37,0.36,0.8,0.36,1.28h-1.08c0-0.29-0.07-0.56-0.22-0.79c-0.15-0.23-0.36-0.41-0.63-0.54
									c-0.27-0.13-0.58-0.19-0.93-0.19c-0.35,0-0.67,0.06-0.94,0.19c-0.27,0.12-0.48,0.3-0.63,0.52
									c-0.15,0.23-0.23,0.49-0.23,0.78c0,0.35,0.11,0.66,0.34,0.91c0.23,0.26,0.53,0.42,0.9,0.48l1.47,0.26
									c0.42,0.08,0.8,0.24,1.14,0.49c0.33,0.25,0.59,0.56,0.77,0.92c0.18,0.36,0.27,0.75,0.27,1.15c0,0.48-0.13,0.92-0.39,1.31
									c-0.26,0.39-0.62,0.7-1.09,0.93s-1,0.34-1.59,0.34C494.51,77.34,493.96,77.23,493.5,77z"/>
								<path d="M502.42,68.25h1.14l3.43,8.93h-1.12l-0.86-2.37h-3.95l-0.8,2.37h-1.15L502.42,68.25z M504.67,73.89l-1.52-4.15
									l-0.15-0.54l-0.15,0.54l-1.45,4.15H504.67z"/>
								<path d="M508.39,70.65h1.02v2.19l-0.43,0.64c0.02-0.59,0.12-1.1,0.32-1.53c0.2-0.44,0.47-0.77,0.83-1
									c0.35-0.23,0.76-0.35,1.23-0.35h0.23v1.07h-0.27c-0.39,0-0.73,0.07-1.01,0.22s-0.51,0.36-0.67,0.63s-0.23,0.6-0.23,0.97
									v3.71h-1.02V70.65z"/>
								<path d="M512.95,70.65h0.98v2.83h-0.34c0-0.61,0.09-1.14,0.28-1.59c0.19-0.45,0.46-0.79,0.82-1.03s0.78-0.36,1.28-0.36
									c0.46,0,0.87,0.11,1.22,0.32c0.35,0.21,0.62,0.51,0.81,0.9s0.29,0.84,0.29,1.35v4.12h-1.02v-4.08
									c0-0.36-0.06-0.67-0.18-0.93c-0.12-0.26-0.3-0.46-0.53-0.6c-0.23-0.14-0.51-0.21-0.83-0.21c-0.35,0-0.66,0.08-0.93,0.24
									s-0.47,0.38-0.61,0.68c-0.14,0.29-0.21,0.64-0.21,1.03v3.87h-1.02V70.65z M521.39,72.18c-0.12-0.26-0.3-0.46-0.53-0.6
									c-0.23-0.14-0.51-0.21-0.84-0.21c-0.35,0-0.65,0.08-0.92,0.24c-0.26,0.16-0.47,0.39-0.61,0.68
									c-0.14,0.29-0.22,0.63-0.22,1.03l-0.57,0.17c0-0.59,0.1-1.11,0.31-1.56c0.2-0.45,0.5-0.8,0.88-1.05
									c0.38-0.25,0.82-0.37,1.33-0.37c0.46,0,0.88,0.11,1.24,0.32c0.36,0.21,0.64,0.51,0.84,0.9c0.2,0.39,0.3,0.84,0.3,1.35v4.12
									h-1.02v-4.08C521.58,72.75,521.52,72.44,521.39,72.18z"/>
								<path d="M526,76.79c-0.53-0.36-0.93-0.88-1.21-1.55c-0.29-0.67-0.43-1.45-0.43-2.35c0-0.97,0.15-1.81,0.44-2.54
									c0.29-0.73,0.7-1.28,1.23-1.67c0.53-0.39,1.13-0.58,1.81-0.58c0.43,0,0.84,0.06,1.23,0.19c0.39,0.12,0.74,0.33,1.06,0.61
									c0.31,0.28,0.56,0.65,0.73,1.09h-1.06c-0.1-0.17-0.24-0.33-0.43-0.47c-0.19-0.14-0.41-0.25-0.66-0.33s-0.52-0.12-0.81-0.12
									c-0.47,0-0.9,0.13-1.27,0.4c-0.38,0.26-0.68,0.68-0.9,1.25s-0.34,1.29-0.34,2.15c0.13-0.33,0.33-0.62,0.59-0.87
									c0.26-0.25,0.57-0.44,0.93-0.58s0.75-0.2,1.18-0.2c0.57,0,1.09,0.13,1.55,0.4c0.46,0.27,0.82,0.63,1.08,1.1
									c0.26,0.47,0.39,0.99,0.39,1.57s-0.14,1.1-0.42,1.57c-0.28,0.47-0.67,0.83-1.17,1.1c-0.5,0.27-1.05,0.4-1.67,0.4
									C527.14,77.34,526.53,77.16,526,76.79z M528.98,76.11c0.32-0.18,0.58-0.43,0.76-0.75c0.18-0.32,0.27-0.68,0.27-1.08
									c0-0.4-0.09-0.77-0.28-1.09s-0.45-0.58-0.78-0.77c-0.33-0.19-0.7-0.28-1.11-0.28c-0.41,0-0.78,0.09-1.1,0.28
									s-0.58,0.44-0.77,0.77c-0.18,0.33-0.28,0.69-0.28,1.09c0,0.4,0.09,0.77,0.28,1.09c0.19,0.32,0.45,0.57,0.78,0.76
									c0.33,0.18,0.71,0.27,1.13,0.27C528.29,76.38,528.65,76.29,528.98,76.11z"/>
								<path d="M536.6,74.98h-4.53v-0.96l4.52-5.77h0.62l0.36,0.12l-4.4,5.65h3.43v-5.77h1.05v5.77h1.39v0.96h-1.39v2.2h-1.05
									V74.98z"/>
							</g>
						</g>
						<g>
							<g>
								<g>
									<g>
										<g>
											<path class="st2" d="M436,60.46l-87.88,0c-6.78,0-12.28,5.5-12.28,12.28v0c0,6.78,5.5,12.28,12.28,12.28l87.88,0
												c6.78,0,12.28-5.5,12.28-12.28v0C448.29,65.96,442.79,60.46,436,60.46z"/>
										</g>
									</g>
									<g>
										<path d="M379.7,76.2h1.52c0.25,0,0.47-0.05,0.67-0.16c0.19-0.11,0.34-0.26,0.45-0.45c0.11-0.19,0.16-0.42,0.16-0.67v-6.67
											h1.06v6.73c0,0.43-0.1,0.81-0.29,1.15s-0.46,0.59-0.8,0.78c-0.34,0.19-0.74,0.28-1.18,0.28h-1.58V76.2z"/>
										<path d="M385.13,68.25h1.16l2.83,7.56l2.72-7.56h1.17l-3.39,8.93h-1.08L385.13,68.25z"/>
										<path d="M394.66,68.25h1.32l3.2,7.16l0.17,0.45l0.16-0.45l3.15-7.16H404v8.93h-1.06v-7.06v-0.17l-3.16,7.22h-0.89
											L395.71,70v0.13v7.06h-1.05V68.25z"/>
									</g>
								</g>
							</g>
						</g>
					</g>
				</g>
				<g>
					<g>
						<path class="st3" d="M438.52,151.74l-292.17,0c-8.05,0-14.58,6.53-14.58,14.58v29.73c0,8.05,6.53,14.58,14.58,14.58l292.17,0
							c8.05,0,14.58-6.53,14.58-14.58v-29.73C453.1,158.27,446.57,151.74,438.52,151.74z"/>
					</g>
					<g>
						<g>
							<g>
								<g>
									<path class="st2" d="M436.11,155.37l-87.88,0c-6.78,0-12.28,5.5-12.28,12.28v0c0,6.78,5.5,12.28,12.28,12.28l87.88,0
										c6.78,0,12.28-5.5,12.28-12.28v0C448.39,160.87,442.89,155.37,436.11,155.37z"/>
								</g>
							</g>
							<g>
								<path d="M379.8,171.11h1.52c0.25,0,0.47-0.05,0.67-0.16c0.19-0.11,0.34-0.26,0.45-0.45c0.11-0.19,0.16-0.42,0.16-0.67v-6.67
									h1.06v6.73c0,0.43-0.1,0.81-0.29,1.15s-0.46,0.59-0.8,0.78c-0.34,0.19-0.74,0.28-1.18,0.28h-1.58V171.11z"/>
								<path d="M385.23,163.16h1.16l2.83,7.56l2.72-7.56h1.17l-3.39,8.93h-1.08L385.23,163.16z"/>
								<path d="M394.77,163.16h1.32l3.2,7.16l0.17,0.45l0.16-0.45l3.15-7.16h1.35v8.93h-1.06v-7.06v-0.17l-3.16,7.22H399
									l-3.18-7.18v0.13v7.06h-1.05V163.16z"/>
							</g>
						</g>
					</g>
					<g>
						<g>
							<path class="st7" d="M136.94,223.72c-0.38-0.18-0.67-0.43-0.88-0.76c-0.21-0.32-0.31-0.69-0.31-1.11h0.87
								c0,0.27,0.07,0.51,0.2,0.71s0.33,0.37,0.58,0.48c0.25,0.12,0.53,0.17,0.85,0.17c0.32,0,0.59-0.05,0.83-0.16
								c0.24-0.11,0.43-0.26,0.56-0.45c0.13-0.2,0.2-0.42,0.2-0.68c0-0.32-0.1-0.6-0.29-0.83c-0.19-0.23-0.45-0.37-0.77-0.43
								l-1.15-0.2c-0.35-0.06-0.65-0.18-0.9-0.36c-0.25-0.18-0.45-0.4-0.59-0.67c-0.14-0.27-0.2-0.56-0.2-0.88
								c0-0.37,0.1-0.71,0.29-1s0.47-0.53,0.82-0.7c0.35-0.17,0.74-0.26,1.18-0.26c0.45,0,0.85,0.08,1.2,0.25
								c0.35,0.17,0.62,0.4,0.82,0.7c0.19,0.3,0.29,0.64,0.29,1.03h-0.87c0-0.23-0.06-0.44-0.18-0.63s-0.29-0.33-0.5-0.43
								c-0.22-0.1-0.47-0.15-0.75-0.15c-0.28,0-0.53,0.05-0.75,0.15c-0.22,0.1-0.39,0.24-0.51,0.42c-0.12,0.18-0.18,0.39-0.18,0.63
								c0,0.28,0.09,0.53,0.27,0.73c0.18,0.2,0.42,0.33,0.72,0.38l1.17,0.2c0.34,0.06,0.64,0.19,0.91,0.39
								c0.27,0.2,0.47,0.45,0.62,0.74c0.15,0.29,0.22,0.6,0.22,0.92c0,0.38-0.1,0.73-0.31,1.05c-0.21,0.31-0.5,0.56-0.87,0.75
								c-0.37,0.18-0.8,0.27-1.28,0.27C137.75,223.99,137.32,223.9,136.94,223.72z"/>
							<path class="st7" d="M142.87,223.63c-0.41-0.24-0.73-0.56-0.96-0.98c-0.23-0.42-0.35-0.88-0.35-1.4
								c0-0.52,0.12-0.98,0.35-1.4c0.23-0.42,0.55-0.74,0.96-0.98c0.41-0.24,0.86-0.35,1.36-0.35c0.5,0,0.95,0.12,1.35,0.35
								c0.4,0.24,0.72,0.56,0.96,0.98s0.35,0.88,0.35,1.4c0,0.52-0.12,0.99-0.35,1.4c-0.23,0.42-0.55,0.74-0.96,0.98
								s-0.86,0.35-1.36,0.35C143.73,223.99,143.28,223.87,142.87,223.63z M145.16,222.99c0.27-0.17,0.49-0.4,0.64-0.7
								c0.16-0.3,0.23-0.65,0.23-1.04c0-0.39-0.08-0.74-0.23-1.04c-0.16-0.3-0.37-0.54-0.65-0.7c-0.27-0.17-0.58-0.25-0.92-0.25
								s-0.65,0.08-0.92,0.25c-0.28,0.17-0.49,0.4-0.65,0.7c-0.16,0.3-0.24,0.65-0.24,1.04c0,0.39,0.08,0.74,0.24,1.04
								s0.38,0.54,0.65,0.7c0.28,0.17,0.59,0.25,0.93,0.25S144.89,223.16,145.16,222.99z"/>
							<path class="st7" d="M152.32,223.87h-0.79v-2.26h0.33c0,0.48-0.08,0.9-0.25,1.26s-0.4,0.64-0.71,0.83
								c-0.31,0.19-0.67,0.29-1.09,0.29c-0.37,0-0.71-0.08-1-0.24c-0.29-0.16-0.52-0.4-0.68-0.71c-0.17-0.31-0.25-0.69-0.25-1.12
								v-3.28h0.82v3.2c0,0.3,0.05,0.56,0.16,0.78c0.11,0.21,0.26,0.38,0.46,0.49s0.43,0.17,0.7,0.17c0.29,0,0.55-0.06,0.78-0.19
								s0.4-0.31,0.52-0.54c0.12-0.23,0.19-0.5,0.19-0.8v-3.1h0.82V223.87z"/>
							<path class="st7" d="M153.9,218.64h0.82v1.75l-0.34,0.51c0.01-0.47,0.1-0.88,0.26-1.23c0.16-0.35,0.38-0.62,0.66-0.8
								s0.61-0.28,0.99-0.28h0.18v0.85h-0.21c-0.31,0-0.58,0.06-0.81,0.18s-0.41,0.29-0.53,0.51c-0.12,0.22-0.19,0.48-0.19,0.77
								v2.97h-0.82V218.64z"/>
							<path class="st7" d="M158.18,223.63c-0.4-0.24-0.71-0.57-0.94-0.98c-0.23-0.42-0.34-0.88-0.34-1.4c0-0.51,0.11-0.98,0.34-1.4
								c0.23-0.42,0.54-0.74,0.94-0.98c0.4-0.24,0.84-0.36,1.34-0.36c0.42,0,0.79,0.07,1.13,0.21c0.33,0.14,0.61,0.35,0.83,0.63
								s0.37,0.62,0.45,1.03h-0.82c-0.07-0.25-0.19-0.46-0.35-0.63c-0.16-0.17-0.35-0.3-0.56-0.38c-0.21-0.08-0.44-0.13-0.68-0.13
								c-0.34,0-0.64,0.09-0.91,0.26c-0.27,0.17-0.48,0.41-0.63,0.71s-0.22,0.65-0.22,1.03c0,0.38,0.07,0.72,0.22,1.03
								s0.36,0.54,0.63,0.71c0.27,0.17,0.57,0.26,0.91,0.26c0.24,0,0.47-0.04,0.68-0.12s0.4-0.21,0.56-0.38
								c0.16-0.17,0.28-0.38,0.35-0.63h0.82c-0.08,0.39-0.23,0.73-0.46,1.02c-0.23,0.28-0.51,0.5-0.85,0.64
								c-0.34,0.15-0.71,0.22-1.11,0.22C159.02,223.99,158.58,223.87,158.18,223.63z"/>
							<path class="st7" d="M163.85,223.64c-0.39-0.23-0.7-0.56-0.92-0.98c-0.22-0.42-0.33-0.89-0.33-1.42
								c0-0.51,0.11-0.98,0.33-1.39c0.22-0.42,0.53-0.74,0.92-0.98c0.39-0.24,0.83-0.35,1.31-0.35c0.49,0,0.93,0.12,1.3,0.35
								s0.66,0.56,0.86,0.98c0.2,0.42,0.3,0.88,0.3,1.41v0.2h-4.22l0.01-0.22c0,0.4,0.08,0.75,0.24,1.06
								c0.15,0.31,0.37,0.55,0.64,0.73c0.27,0.17,0.58,0.26,0.92,0.26c0.23,0,0.44-0.03,0.64-0.08s0.37-0.14,0.51-0.25
								c0.14-0.11,0.26-0.23,0.33-0.38h0.82c-0.06,0.22-0.19,0.44-0.39,0.65s-0.46,0.4-0.8,0.55c-0.34,0.15-0.72,0.22-1.17,0.22
								C164.69,223.99,164.25,223.87,163.85,223.64z M163.42,220.78h3.4v0.46c0-0.4-0.06-0.75-0.19-1.05
								c-0.13-0.3-0.31-0.54-0.56-0.7c-0.25-0.17-0.54-0.25-0.89-0.25s-0.65,0.08-0.92,0.24c-0.27,0.16-0.47,0.39-0.62,0.69
								c-0.15,0.3-0.22,0.64-0.22,1.04L163.42,220.78z"/>
							<path class="st7" d="M171.81,223.72c-0.38-0.18-0.67-0.43-0.88-0.76c-0.21-0.32-0.31-0.69-0.31-1.11h0.87
								c0,0.27,0.07,0.51,0.2,0.71s0.33,0.37,0.58,0.48c0.25,0.12,0.53,0.17,0.85,0.17c0.32,0,0.59-0.05,0.83-0.16
								c0.24-0.11,0.43-0.26,0.56-0.45c0.13-0.2,0.2-0.42,0.2-0.68c0-0.32-0.1-0.6-0.29-0.83c-0.19-0.23-0.45-0.37-0.77-0.43
								l-1.15-0.2c-0.35-0.06-0.65-0.18-0.9-0.36c-0.25-0.18-0.45-0.4-0.59-0.67c-0.14-0.27-0.2-0.56-0.2-0.88
								c0-0.37,0.1-0.71,0.29-1s0.47-0.53,0.82-0.7c0.35-0.17,0.74-0.26,1.18-0.26c0.45,0,0.85,0.08,1.2,0.25
								c0.35,0.17,0.62,0.4,0.82,0.7c0.19,0.3,0.29,0.64,0.29,1.03h-0.87c0-0.23-0.06-0.44-0.18-0.63s-0.29-0.33-0.5-0.43
								c-0.22-0.1-0.47-0.15-0.75-0.15c-0.28,0-0.53,0.05-0.75,0.15c-0.22,0.1-0.39,0.24-0.51,0.42c-0.12,0.18-0.18,0.39-0.18,0.63
								c0,0.28,0.09,0.53,0.27,0.73c0.18,0.2,0.42,0.33,0.72,0.38l1.17,0.2c0.34,0.06,0.64,0.19,0.91,0.39
								c0.27,0.2,0.47,0.45,0.62,0.74c0.15,0.29,0.22,0.6,0.22,0.92c0,0.38-0.1,0.73-0.31,1.05c-0.21,0.31-0.5,0.56-0.87,0.75
								c-0.37,0.18-0.8,0.27-1.28,0.27C172.62,223.99,172.18,223.9,171.81,223.72z"/>
							<path class="st7" d="M177.68,223.64c-0.39-0.23-0.7-0.56-0.92-0.98c-0.22-0.42-0.33-0.89-0.33-1.42
								c0-0.51,0.11-0.98,0.33-1.39c0.22-0.42,0.53-0.74,0.92-0.98c0.39-0.24,0.83-0.35,1.31-0.35c0.49,0,0.93,0.12,1.3,0.35
								s0.66,0.56,0.86,0.98c0.2,0.42,0.3,0.88,0.3,1.41v0.2h-4.22l0.01-0.22c0,0.4,0.08,0.75,0.24,1.06
								c0.15,0.31,0.37,0.55,0.64,0.73c0.27,0.17,0.58,0.26,0.92,0.26c0.23,0,0.44-0.03,0.64-0.08s0.37-0.14,0.51-0.25
								c0.14-0.11,0.26-0.23,0.33-0.38h0.82c-0.06,0.22-0.19,0.44-0.39,0.65s-0.46,0.4-0.8,0.55c-0.34,0.15-0.72,0.22-1.17,0.22
								C178.51,223.99,178.07,223.87,177.68,223.64z M177.24,220.78h3.4v0.46c0-0.4-0.06-0.75-0.19-1.05
								c-0.13-0.3-0.31-0.54-0.56-0.7c-0.25-0.17-0.54-0.25-0.89-0.25s-0.65,0.08-0.92,0.24c-0.27,0.16-0.47,0.39-0.62,0.69
								c-0.15,0.3-0.22,0.64-0.22,1.04L177.24,220.78z"/>
							<path class="st7" d="M183.6,223.7c-0.2-0.11-0.36-0.25-0.48-0.44s-0.17-0.4-0.17-0.63l-0.01-3.27h-0.92l0-0.72h0.57
								c0.13,0,0.23-0.04,0.31-0.12c0.08-0.08,0.12-0.19,0.12-0.31v-0.84h0.73v1.28h1.26l0,0.72h-1.26l0,3.22
								c0,0.16,0.05,0.29,0.16,0.4c0.11,0.11,0.24,0.16,0.4,0.16h0.69v0.73h-0.75C184.03,223.87,183.81,223.81,183.6,223.7z"/>
							<path class="st7" d="M187.36,218.71v1.12h-1.12v-1.12H187.36z M187.36,222.74v1.12h-1.12v-1.12H187.36z"/>
							<path class="st7" d="M190.17,224.72h0.45c0.17,0,0.3-0.05,0.41-0.16c0.1-0.1,0.16-0.24,0.16-0.41v-5.52H192v5.58
								c0,0.25-0.06,0.47-0.17,0.66c-0.11,0.19-0.27,0.34-0.47,0.45c-0.2,0.11-0.43,0.16-0.69,0.16h-0.5V224.72z M192.07,216.72
								v0.97h-0.96v-0.97H192.07z"/>
							<path class="st7" d="M192.83,218.64h0.89l1.59,4.13l1.54-4.13h0.87l-2.06,5.23h-0.77L192.83,218.64z"/>
							<path class="st7" d="M198.62,218.64h0.79v2.26h-0.28c0-0.49,0.08-0.91,0.23-1.27c0.15-0.36,0.37-0.63,0.66-0.82
								c0.29-0.19,0.63-0.29,1.02-0.29c0.37,0,0.7,0.08,0.97,0.25c0.28,0.17,0.5,0.41,0.65,0.72s0.23,0.67,0.23,1.08v3.3h-0.82
								v-3.26c0-0.29-0.05-0.53-0.15-0.74c-0.1-0.21-0.24-0.37-0.42-0.48s-0.41-0.17-0.67-0.17c-0.28,0-0.53,0.06-0.74,0.19
								s-0.37,0.31-0.49,0.54c-0.11,0.23-0.17,0.51-0.17,0.83v3.1h-0.82V218.64z M205.38,219.86c-0.1-0.21-0.24-0.37-0.42-0.48
								s-0.41-0.17-0.67-0.17c-0.28,0-0.52,0.06-0.74,0.19c-0.21,0.13-0.37,0.31-0.49,0.54c-0.12,0.23-0.17,0.51-0.17,0.82
								l-0.46,0.13c0-0.47,0.08-0.88,0.24-1.25c0.16-0.36,0.4-0.64,0.7-0.84c0.3-0.2,0.66-0.3,1.06-0.3c0.37,0,0.7,0.08,0.99,0.25
								s0.51,0.41,0.67,0.72c0.16,0.31,0.24,0.67,0.24,1.08v3.3h-0.82v-3.26C205.52,220.32,205.47,220.07,205.38,219.86z"/>
							<path class="st7" d="M207.97,216.72h1.06l2.56,5.73l0.13,0.36l0.13-0.36l2.52-5.73h1.08v7.15h-0.85v-5.65v-0.13l-2.53,5.78
								h-0.71l-2.55-5.75v0.1v5.65h-0.84V216.72z"/>
							<path class="st7" d="M220.12,218.73c0.3,0.14,0.53,0.36,0.7,0.63s0.25,0.61,0.25,0.99v3.51h-0.8v-1.96h0.21
								c0,0.44-0.08,0.81-0.22,1.12c-0.15,0.31-0.36,0.55-0.64,0.71c-0.28,0.16-0.61,0.25-1,0.25c-0.33,0-0.63-0.06-0.9-0.19
								c-0.27-0.13-0.48-0.31-0.63-0.54c-0.15-0.23-0.23-0.49-0.23-0.78c0-0.27,0.07-0.52,0.21-0.75s0.34-0.42,0.59-0.56
								s0.53-0.24,0.84-0.27l1.39-0.15c0.12-0.01,0.21-0.06,0.27-0.14c0.06-0.08,0.1-0.2,0.1-0.36l0.06,1.07l-1.71,0.19
								c-0.18,0.02-0.33,0.07-0.47,0.16c-0.14,0.09-0.24,0.2-0.32,0.33s-0.11,0.29-0.11,0.45c0,0.18,0.05,0.33,0.14,0.47
								c0.09,0.14,0.22,0.24,0.39,0.32c0.17,0.08,0.36,0.11,0.57,0.11c0.29,0,0.55-0.06,0.77-0.18c0.22-0.12,0.39-0.29,0.51-0.5
								c0.12-0.22,0.18-0.47,0.18-0.75v-1.66c0-0.21-0.05-0.39-0.15-0.55c-0.1-0.16-0.24-0.28-0.42-0.37
								c-0.18-0.09-0.39-0.13-0.62-0.13c-0.23,0-0.45,0.04-0.63,0.12s-0.34,0.19-0.45,0.32c-0.11,0.13-0.18,0.28-0.21,0.44h-0.82
								c0.04-0.3,0.16-0.56,0.35-0.8c0.19-0.24,0.44-0.42,0.75-0.56s0.64-0.2,1.02-0.2C219.47,218.52,219.82,218.59,220.12,218.73z"
								/>
							<path class="st7" d="M223.38,216.72v0.97h-0.96v-0.97H223.38z M222.49,218.64h0.82v5.23h-0.82V218.64z"/>
							<path class="st7" d="M224.89,218.64h0.79v2.26h-0.33c0-0.48,0.08-0.9,0.25-1.26c0.17-0.36,0.41-0.64,0.71-0.83
								c0.31-0.19,0.67-0.29,1.09-0.29c0.37,0,0.71,0.08,1,0.24s0.52,0.4,0.68,0.71c0.17,0.31,0.25,0.68,0.25,1.12v3.28h-0.82v-3.2
								c0-0.3-0.05-0.56-0.16-0.78c-0.11-0.21-0.26-0.38-0.46-0.49s-0.43-0.17-0.7-0.17c-0.29,0-0.55,0.06-0.78,0.19
								c-0.22,0.13-0.4,0.31-0.52,0.54c-0.12,0.23-0.19,0.5-0.19,0.8v3.1h-0.82V218.64z"/>
						</g>
					</g>
					<g>
						<g>
							<g>
								
									<radialGradient id="SVGID_00000119803883213097699190000008130750973532873122_" cx="134.8467" cy="207.7706" r="191.567" gradientUnits="userSpaceOnUse">
									<stop  offset="0" style="stop-color:#EB4857"/>
									<stop  offset="0.5" style="stop-color:#C611E0"/>
									<stop  offset="1" style="stop-color:#7F52FF"/>
								</radialGradient>
								<path style="fill:url(#SVGID_00000119803883213097699190000008130750973532873122_);" d="M320.97,155.23l-174.64,0
									c-6.04,0-10.94,4.9-10.94,10.94v29.88c0,6.04,4.9,10.94,10.94,10.94h174.64c6.04,0,10.94-4.9,10.94-10.94v-29.88
									C331.9,160.13,327.01,155.23,320.97,155.23z"/>
							</g>
						</g>
						<g>
							<path class="st0" d="M153.71,186.54h0.56c0.21,0,0.38-0.06,0.51-0.19s0.19-0.3,0.19-0.51v-6.9h1.02v6.98
								c0,0.31-0.07,0.59-0.21,0.83c-0.14,0.24-0.34,0.43-0.59,0.56s-0.54,0.2-0.86,0.2h-0.63V186.54z M156.08,176.54v1.21h-1.2
								v-1.21H156.08z"/>
							<path class="st0" d="M157.29,178.94h1.11l1.99,5.17l1.93-5.17h1.08l-2.57,6.53h-0.96L157.29,178.94z"/>
							<path class="st0" d="M164.78,178.94h0.98v2.83h-0.34c0-0.61,0.09-1.14,0.28-1.59c0.19-0.45,0.46-0.79,0.82-1.03
								s0.78-0.36,1.28-0.36c0.46,0,0.87,0.11,1.22,0.32s0.62,0.51,0.81,0.9s0.29,0.84,0.29,1.35v4.12h-1.02v-4.08
								c0-0.36-0.06-0.67-0.18-0.93c-0.12-0.26-0.3-0.46-0.53-0.6c-0.23-0.14-0.51-0.21-0.83-0.21c-0.35,0-0.66,0.08-0.93,0.24
								s-0.47,0.38-0.61,0.68s-0.21,0.64-0.21,1.03v3.87h-1.02V178.94z M173.23,180.47c-0.12-0.26-0.3-0.46-0.53-0.6
								c-0.23-0.14-0.51-0.21-0.84-0.21c-0.35,0-0.66,0.08-0.92,0.24c-0.26,0.16-0.47,0.39-0.61,0.68
								c-0.15,0.29-0.22,0.63-0.22,1.03l-0.57,0.17c0-0.59,0.1-1.11,0.31-1.56c0.2-0.45,0.5-0.8,0.88-1.05
								c0.38-0.25,0.82-0.37,1.33-0.37c0.46,0,0.88,0.11,1.23,0.32s0.64,0.51,0.84,0.9c0.2,0.39,0.3,0.84,0.3,1.35v4.12h-1.02v-4.08
								C173.41,181.04,173.35,180.73,173.23,180.47z"/>
							<path class="st0" d="M176.73,176.54h1.32l3.2,7.16l0.17,0.45l0.16-0.45l3.15-7.16h1.35v8.93h-1.06v-7.06v-0.17l-3.16,7.22
								h-0.89l-3.18-7.18v0.13v7.06h-1.05V176.54z"/>
							<path class="st0" d="M192.16,179.06c0.37,0.18,0.66,0.44,0.87,0.79c0.21,0.35,0.31,0.76,0.31,1.23v4.39h-1v-2.44h0.27
								c0,0.54-0.09,1.01-0.28,1.4s-0.46,0.69-0.8,0.89c-0.35,0.2-0.76,0.31-1.24,0.31c-0.42,0-0.79-0.08-1.13-0.24
								s-0.6-0.38-0.79-0.67c-0.19-0.28-0.29-0.61-0.29-0.97c0-0.34,0.09-0.65,0.26-0.94c0.18-0.29,0.42-0.52,0.73-0.71
								c0.31-0.18,0.66-0.3,1.06-0.34l1.74-0.19c0.14-0.02,0.26-0.08,0.34-0.18c0.08-0.1,0.12-0.25,0.12-0.45l0.08,1.34l-2.14,0.24
								c-0.22,0.03-0.42,0.09-0.59,0.2c-0.17,0.11-0.31,0.24-0.4,0.42c-0.1,0.17-0.14,0.36-0.14,0.56c0,0.22,0.06,0.42,0.18,0.59
								c0.12,0.17,0.28,0.3,0.49,0.4c0.21,0.1,0.45,0.14,0.71,0.14c0.37,0,0.69-0.07,0.96-0.22s0.49-0.36,0.63-0.63
								s0.22-0.58,0.22-0.93v-2.08c0-0.26-0.06-0.49-0.19-0.69s-0.3-0.35-0.52-0.46c-0.22-0.11-0.48-0.16-0.77-0.16
								s-0.56,0.05-0.79,0.15c-0.23,0.1-0.42,0.23-0.56,0.4s-0.23,0.35-0.26,0.55h-1.02c0.05-0.37,0.2-0.7,0.44-1
								c0.24-0.3,0.55-0.53,0.93-0.7c0.38-0.17,0.81-0.26,1.27-0.26C191.35,178.79,191.79,178.88,192.16,179.06z"/>
							<path class="st0" d="M196.49,176.54v1.21h-1.2v-1.21H196.49z M195.38,178.94h1.02v6.53h-1.02V178.94z"/>
							<path class="st0" d="M198.64,178.94h0.98v2.83h-0.41c0-0.6,0.1-1.13,0.31-1.58s0.51-0.79,0.89-1.04
								c0.39-0.24,0.84-0.36,1.37-0.36c0.47,0,0.88,0.1,1.24,0.3c0.36,0.2,0.65,0.49,0.85,0.88c0.21,0.39,0.31,0.86,0.31,1.4v4.1
								h-1.02v-4c0-0.38-0.07-0.7-0.2-0.97c-0.13-0.27-0.32-0.47-0.57-0.61c-0.25-0.14-0.54-0.21-0.88-0.21
								c-0.37,0-0.69,0.08-0.97,0.24s-0.5,0.39-0.65,0.68s-0.23,0.62-0.23,1v3.87h-1.02V178.94z"/>
							<path class="st0" d="M209.17,176.54h1.05l-4.06,8.93h-1.05L209.17,176.54z"/>
							<path class="st0" d="M212.44,184.07v1.4h-1.4v-1.4H212.44z"/>
							<path class="st0" d="M215.49,184.07v1.4h-1.4v-1.4H215.49z"/>
							<path class="st0" d="M218.54,184.07v1.4h-1.4v-1.4H218.54z"/>
							<path class="st0" d="M223.42,176.54h1.05l-4.06,8.93h-1.05L223.42,176.54z"/>
							<path class="st0" d="M224.22,186.54h0.56c0.21,0,0.38-0.06,0.51-0.19s0.19-0.3,0.19-0.51v-6.9h1.02v6.98
								c0,0.31-0.07,0.59-0.21,0.83c-0.14,0.24-0.34,0.43-0.59,0.56s-0.54,0.2-0.86,0.2h-0.63V186.54z M226.59,176.54v1.21h-1.2
								v-1.21H226.59z"/>
							<path class="st0" d="M227.8,178.94h1.11l1.99,5.17l1.93-5.17h1.08l-2.57,6.53h-0.96L227.8,178.94z"/>
							<path class="st0" d="M235.29,178.94h0.98v2.83h-0.34c0-0.61,0.09-1.14,0.28-1.59c0.19-0.45,0.46-0.79,0.82-1.03
								s0.78-0.36,1.28-0.36c0.46,0,0.87,0.11,1.22,0.32s0.62,0.51,0.81,0.9s0.29,0.84,0.29,1.35v4.12h-1.02v-4.08
								c0-0.36-0.06-0.67-0.18-0.93c-0.12-0.26-0.3-0.46-0.53-0.6c-0.23-0.14-0.51-0.21-0.83-0.21c-0.35,0-0.66,0.08-0.93,0.24
								s-0.47,0.38-0.61,0.68s-0.21,0.64-0.21,1.03v3.87h-1.02V178.94z M243.74,180.47c-0.12-0.26-0.3-0.46-0.53-0.6
								c-0.23-0.14-0.51-0.21-0.84-0.21c-0.35,0-0.66,0.08-0.92,0.24c-0.26,0.16-0.47,0.39-0.61,0.68
								c-0.15,0.29-0.22,0.63-0.22,1.03l-0.57,0.17c0-0.59,0.1-1.11,0.31-1.56c0.2-0.45,0.5-0.8,0.88-1.05
								c0.38-0.25,0.82-0.37,1.33-0.37c0.46,0,0.88,0.11,1.23,0.32s0.64,0.51,0.84,0.9c0.2,0.39,0.3,0.84,0.3,1.35v4.12h-1.02v-4.08
								C243.92,181.04,243.86,180.73,243.74,180.47z"/>
							<path class="st0" d="M248.69,185.02c-0.65-0.4-1.17-0.95-1.54-1.66c-0.37-0.7-0.56-1.49-0.56-2.36s0.19-1.65,0.56-2.36
								c0.37-0.7,0.89-1.26,1.54-1.66s1.38-0.6,2.19-0.6c0.67,0,1.3,0.14,1.89,0.42c0.58,0.28,1.07,0.66,1.44,1.14
								c0.38,0.48,0.6,1.01,0.68,1.58h-1.05c-0.08-0.4-0.26-0.77-0.54-1.11s-0.64-0.6-1.06-0.79c-0.42-0.2-0.88-0.29-1.36-0.29
								c-0.61,0-1.16,0.16-1.65,0.47c-0.49,0.31-0.87,0.75-1.15,1.31s-0.41,1.19-0.41,1.9s0.14,1.34,0.41,1.89
								c0.28,0.56,0.66,0.99,1.15,1.31s1.04,0.47,1.65,0.47c0.56,0,1.07-0.11,1.52-0.34c0.45-0.23,0.81-0.55,1.08-0.96
								c0.26-0.41,0.4-0.87,0.41-1.39v-0.08h-2.36v-0.96h3.43v0.65c0,0.75-0.18,1.44-0.53,2.05c-0.36,0.61-0.84,1.09-1.46,1.45
								s-1.31,0.53-2.08,0.53C250.07,185.63,249.35,185.42,248.69,185.02z"/>
							<path class="st0" d="M257.19,178.94h1.02v2.19l-0.43,0.64c0.02-0.59,0.12-1.1,0.32-1.53s0.47-0.77,0.83-1
								s0.76-0.35,1.23-0.35h0.23v1.07h-0.27c-0.39,0-0.73,0.07-1.01,0.22c-0.29,0.15-0.51,0.36-0.67,0.63s-0.23,0.6-0.23,0.97v3.71
								h-1.02V178.94z"/>
							<path class="st0" d="M262.76,185.19c-0.49-0.29-0.87-0.7-1.15-1.22s-0.41-1.11-0.41-1.77c0-0.64,0.14-1.22,0.42-1.74
								c0.28-0.52,0.66-0.93,1.15-1.22c0.49-0.3,1.04-0.44,1.64-0.44c0.62,0,1.16,0.15,1.62,0.44s0.83,0.7,1.08,1.22
								s0.38,1.11,0.38,1.76v0.25h-5.28l0.01-0.28c0,0.49,0.1,0.93,0.3,1.32s0.46,0.69,0.8,0.91s0.72,0.33,1.15,0.33
								c0.29,0,0.55-0.04,0.79-0.11s0.46-0.17,0.64-0.31c0.18-0.13,0.32-0.29,0.42-0.47h1.02c-0.08,0.27-0.24,0.54-0.48,0.82
								c-0.24,0.27-0.58,0.5-1,0.68s-0.9,0.27-1.46,0.27C263.8,185.63,263.25,185.48,262.76,185.19z M262.22,181.61h4.26v0.58
								c0-0.5-0.08-0.94-0.24-1.32c-0.16-0.38-0.39-0.67-0.7-0.88c-0.31-0.21-0.68-0.31-1.11-0.31c-0.43,0-0.82,0.1-1.15,0.3
								c-0.33,0.2-0.59,0.49-0.77,0.86c-0.18,0.37-0.27,0.81-0.27,1.3L262.22,181.61z"/>
							<path class="st0" d="M270.17,185.19c-0.49-0.29-0.87-0.7-1.15-1.22s-0.41-1.11-0.41-1.77c0-0.64,0.14-1.22,0.42-1.74
								c0.28-0.52,0.66-0.93,1.15-1.22c0.49-0.3,1.04-0.44,1.64-0.44c0.62,0,1.16,0.15,1.62,0.44s0.83,0.7,1.08,1.22
								s0.38,1.11,0.38,1.76v0.25h-5.28l0.01-0.28c0,0.49,0.1,0.93,0.3,1.32s0.46,0.69,0.8,0.91s0.72,0.33,1.15,0.33
								c0.29,0,0.55-0.04,0.79-0.11s0.46-0.17,0.64-0.31c0.18-0.13,0.32-0.29,0.42-0.47h1.02c-0.08,0.27-0.24,0.54-0.48,0.82
								c-0.24,0.27-0.58,0.5-1,0.68s-0.9,0.27-1.46,0.27C271.21,185.63,270.66,185.48,270.17,185.19z M269.63,181.61h4.26v0.58
								c0-0.5-0.08-0.94-0.24-1.32c-0.16-0.38-0.39-0.67-0.7-0.88c-0.31-0.21-0.68-0.31-1.11-0.31c-0.43,0-0.82,0.1-1.15,0.3
								c-0.33,0.2-0.59,0.49-0.77,0.86c-0.18,0.37-0.27,0.81-0.27,1.3L269.63,181.61z"/>
							<path class="st0" d="M277.84,185.27c-0.25-0.13-0.45-0.32-0.6-0.56c-0.15-0.24-0.22-0.5-0.22-0.79l-0.01-4.08h-1.15
								l0.01-0.91h0.71c0.16,0,0.29-0.05,0.39-0.15s0.15-0.23,0.15-0.39v-1.05h0.92v1.6h1.58l-0.01,0.91h-1.58l0.01,4.02
								c0,0.2,0.07,0.37,0.2,0.5c0.13,0.13,0.3,0.2,0.5,0.2h0.87v0.91h-0.93C278.37,185.47,278.09,185.41,277.84,185.27z"/>
							<path class="st0" d="M282.5,176.54v1.21h-1.2v-1.21H282.5z M281.39,178.94h1.02v6.53h-1.02V178.94z"/>
							<path class="st0" d="M284.64,178.94h0.98v2.83h-0.41c0-0.6,0.1-1.13,0.31-1.58s0.51-0.79,0.89-1.04
								c0.39-0.24,0.84-0.36,1.37-0.36c0.47,0,0.88,0.1,1.24,0.3c0.36,0.2,0.65,0.49,0.85,0.88c0.21,0.39,0.31,0.86,0.31,1.4v4.1
								h-1.02v-4c0-0.38-0.07-0.7-0.2-0.97c-0.13-0.27-0.32-0.47-0.57-0.61c-0.25-0.14-0.54-0.21-0.88-0.21
								c-0.37,0-0.69,0.08-0.97,0.24s-0.5,0.39-0.65,0.68s-0.23,0.62-0.23,1v3.87h-1.02V178.94z"/>
							<path class="st0" d="M293.54,187.44c-0.4-0.15-0.74-0.36-1.01-0.63c-0.27-0.27-0.44-0.59-0.52-0.94h1.02
								c0.09,0.2,0.23,0.36,0.41,0.5c0.18,0.14,0.39,0.24,0.63,0.31c0.24,0.07,0.49,0.1,0.75,0.1c0.42,0,0.78-0.08,1.09-0.25
								c0.31-0.17,0.55-0.4,0.72-0.71c0.17-0.3,0.25-0.65,0.25-1.05v-0.27l0.05-1.84l0.53-0.65c-0.01,0.58-0.14,1.09-0.38,1.55
								c-0.25,0.45-0.58,0.8-1.01,1.06c-0.43,0.25-0.91,0.38-1.44,0.38c-0.55,0-1.05-0.13-1.5-0.4c-0.45-0.27-0.8-0.63-1.05-1.1
								c-0.25-0.47-0.38-1-0.38-1.59s0.13-1.12,0.38-1.6c0.26-0.47,0.61-0.84,1.05-1.11c0.45-0.27,0.95-0.4,1.5-0.4
								c0.53,0,1.01,0.13,1.44,0.38c0.43,0.26,0.76,0.61,1.01,1.07c0.25,0.46,0.37,0.97,0.38,1.56l-0.53-0.57v-2.28h0.99l-0.02,5.83
								c0,0.57-0.13,1.07-0.38,1.51c-0.26,0.44-0.61,0.78-1.08,1.02c-0.46,0.24-1,0.36-1.6,0.36
								C294.38,187.67,293.94,187.59,293.54,187.44z M295.89,183.81c0.31-0.19,0.56-0.46,0.74-0.79c0.18-0.34,0.27-0.71,0.27-1.12
								c0-0.42-0.09-0.79-0.27-1.13c-0.18-0.34-0.43-0.6-0.74-0.79c-0.31-0.19-0.66-0.29-1.05-0.29c-0.39,0-0.74,0.1-1.06,0.29
								c-0.31,0.19-0.56,0.46-0.74,0.79c-0.18,0.34-0.27,0.71-0.27,1.13c0,0.41,0.09,0.79,0.27,1.12c0.18,0.34,0.42,0.6,0.74,0.79
								c0.31,0.19,0.67,0.29,1.06,0.29C295.23,184.09,295.58,184,295.89,183.81z"/>
							<path class="st0" d="M301.28,184.07v1.4h-1.4v-1.4H301.28z"/>
							<path class="st0" d="M303.21,176.54h1.02V182l2.96-3.06h1.27l-2.98,3.11l3.09,3.42h-1.31l-3.03-3.29v3.29h-1.02V176.54z"/>
							<path class="st0" d="M310.98,185.27c-0.25-0.13-0.45-0.32-0.6-0.56c-0.15-0.24-0.22-0.5-0.22-0.79l-0.01-4.08h-1.15
								l0.01-0.91h0.71c0.16,0,0.29-0.05,0.39-0.15s0.15-0.23,0.15-0.39v-1.05h0.92v1.6h1.58l-0.01,0.91h-1.58l0.01,4.02
								c0,0.2,0.07,0.37,0.2,0.5c0.13,0.13,0.3,0.2,0.5,0.2h0.87v0.91h-0.93C311.52,185.47,311.24,185.41,310.98,185.27z"/>
						</g>
					</g>
				</g>
			</g>
		</g>
		<g>
			<g>
				<g>
					<path class="st2" d="M422.84,272.5l-145.68,0c-6.04,0-10.94,4.9-10.94,10.94v59.24c0,6.04,4.9,10.94,10.94,10.94l145.68,0
						c6.04,0,10.94-4.9,10.94-10.94v-59.24C433.78,277.4,428.88,272.5,422.84,272.5z"/>
				</g>
				<g>
					<g>
						<path d="M304.8,290.84h1.52c0.25,0,0.47-0.05,0.67-0.16c0.19-0.11,0.34-0.26,0.45-0.45c0.11-0.19,0.16-0.42,0.16-0.67v-6.67
							h1.06v6.73c0,0.43-0.1,0.81-0.29,1.15c-0.19,0.33-0.46,0.59-0.8,0.78c-0.34,0.19-0.74,0.28-1.18,0.28h-1.58V290.84z"/>
						<path d="M310.23,282.9h1.16l2.83,7.56l2.72-7.56h1.17l-3.39,8.93h-1.08L310.23,282.9z"/>
						<path d="M319.76,282.9h1.32l3.2,7.16l0.17,0.45l0.16-0.45l3.15-7.16h1.35v8.93h-1.06v-7.06v-0.17l-3.16,7.22H324l-3.18-7.18
							v0.13v7.06h-1.05V282.9z"/>
						<path d="M335.86,290.42v1.4h-1.4v-1.4H335.86z"/>
						<path d="M338.65,291.54c-0.5-0.3-0.89-0.71-1.17-1.23c-0.28-0.52-0.42-1.1-0.42-1.75s0.14-1.22,0.42-1.75
							c0.28-0.52,0.67-0.93,1.17-1.23c0.5-0.3,1.05-0.45,1.67-0.45c0.52,0,0.99,0.09,1.41,0.26c0.42,0.18,0.76,0.44,1.04,0.79
							c0.28,0.35,0.47,0.78,0.57,1.29h-1.02c-0.09-0.31-0.24-0.58-0.44-0.79c-0.2-0.21-0.43-0.37-0.7-0.48s-0.55-0.16-0.85-0.16
							c-0.42,0-0.8,0.11-1.13,0.32c-0.33,0.21-0.59,0.51-0.78,0.89c-0.19,0.38-0.28,0.81-0.28,1.29c0,0.48,0.09,0.9,0.28,1.28
							c0.19,0.38,0.45,0.68,0.78,0.89c0.33,0.21,0.71,0.32,1.13,0.32c0.3,0,0.59-0.05,0.85-0.16c0.27-0.1,0.5-0.26,0.7-0.48
							c0.2-0.21,0.35-0.48,0.44-0.79h1.02c-0.1,0.49-0.29,0.92-0.57,1.27c-0.29,0.35-0.64,0.62-1.06,0.8
							c-0.42,0.18-0.88,0.27-1.38,0.27C339.71,291.98,339.15,291.83,338.65,291.54z"/>
						<path d="M345,282.9h1.02v8.93H345V282.9z"/>
						<path d="M351.86,285.41c0.37,0.18,0.66,0.44,0.87,0.79c0.21,0.35,0.31,0.76,0.31,1.23v4.39h-1v-2.44h0.27
							c0,0.54-0.09,1.01-0.28,1.4s-0.46,0.69-0.8,0.89c-0.35,0.2-0.76,0.31-1.24,0.31c-0.42,0-0.79-0.08-1.13-0.24
							s-0.6-0.38-0.79-0.67c-0.19-0.28-0.29-0.61-0.29-0.97c0-0.34,0.09-0.65,0.26-0.94c0.18-0.29,0.42-0.52,0.73-0.71
							c0.31-0.18,0.66-0.3,1.06-0.34l1.74-0.19c0.14-0.02,0.26-0.08,0.34-0.18c0.08-0.1,0.12-0.25,0.12-0.45l0.08,1.34l-2.14,0.24
							c-0.22,0.03-0.42,0.09-0.59,0.2s-0.31,0.24-0.4,0.41c-0.1,0.17-0.14,0.36-0.14,0.56c0,0.22,0.06,0.42,0.18,0.59
							c0.12,0.17,0.28,0.3,0.49,0.4c0.21,0.1,0.45,0.14,0.71,0.14c0.37,0,0.69-0.07,0.96-0.22s0.49-0.36,0.63-0.63
							s0.22-0.58,0.22-0.94v-2.08c0-0.26-0.06-0.49-0.19-0.69s-0.3-0.35-0.52-0.46c-0.22-0.11-0.48-0.16-0.77-0.16
							s-0.56,0.05-0.79,0.15c-0.23,0.1-0.42,0.23-0.56,0.4c-0.14,0.17-0.23,0.35-0.26,0.55h-1.02c0.05-0.37,0.2-0.7,0.44-1
							c0.24-0.3,0.55-0.53,0.93-0.7c0.38-0.17,0.81-0.26,1.27-0.26C351.05,285.14,351.48,285.23,351.86,285.41z"/>
						<path d="M355.9,291.75c-0.4-0.16-0.71-0.38-0.95-0.66c-0.24-0.28-0.36-0.6-0.38-0.96h1.04c0.02,0.2,0.1,0.37,0.24,0.53
							c0.14,0.16,0.34,0.28,0.57,0.37c0.24,0.09,0.5,0.13,0.8,0.13c0.3,0,0.56-0.05,0.79-0.15c0.23-0.1,0.4-0.23,0.53-0.41
							s0.19-0.37,0.19-0.59c0-0.16-0.03-0.3-0.09-0.43c-0.06-0.13-0.15-0.23-0.26-0.32c-0.11-0.08-0.25-0.14-0.41-0.17l-1.58-0.29
							c-0.33-0.06-0.62-0.17-0.86-0.33s-0.42-0.37-0.55-0.62s-0.19-0.53-0.19-0.85c0-0.34,0.1-0.66,0.3-0.94
							c0.2-0.28,0.48-0.51,0.83-0.67c0.36-0.17,0.77-0.25,1.22-0.25c0.46,0,0.87,0.07,1.23,0.22c0.37,0.15,0.66,0.36,0.87,0.62
							c0.22,0.26,0.33,0.56,0.35,0.88h-1.04c-0.01-0.17-0.08-0.32-0.21-0.46c-0.13-0.14-0.29-0.24-0.5-0.32
							c-0.21-0.08-0.44-0.11-0.7-0.11c-0.26,0-0.5,0.04-0.7,0.13s-0.36,0.21-0.48,0.37c-0.11,0.16-0.17,0.33-0.17,0.53
							c0,0.15,0.03,0.28,0.08,0.39c0.05,0.11,0.13,0.21,0.24,0.28c0.11,0.07,0.24,0.13,0.41,0.16l1.61,0.29
							c0.33,0.06,0.62,0.18,0.86,0.35s0.42,0.39,0.55,0.65c0.13,0.26,0.19,0.54,0.19,0.85c0,0.38-0.11,0.73-0.33,1.03
							c-0.22,0.31-0.52,0.55-0.9,0.72s-0.81,0.26-1.28,0.26C356.74,291.98,356.3,291.9,355.9,291.75z"/>
						<path d="M362.23,291.75c-0.4-0.16-0.71-0.38-0.95-0.66c-0.24-0.28-0.36-0.6-0.38-0.96h1.04c0.02,0.2,0.1,0.37,0.24,0.53
							c0.14,0.16,0.34,0.28,0.57,0.37c0.24,0.09,0.5,0.13,0.8,0.13c0.3,0,0.56-0.05,0.79-0.15c0.23-0.1,0.4-0.23,0.53-0.41
							s0.19-0.37,0.19-0.59c0-0.16-0.03-0.3-0.09-0.43c-0.06-0.13-0.15-0.23-0.26-0.32c-0.11-0.08-0.25-0.14-0.41-0.17l-1.58-0.29
							c-0.33-0.06-0.62-0.17-0.86-0.33s-0.42-0.37-0.55-0.62s-0.19-0.53-0.19-0.85c0-0.34,0.1-0.66,0.3-0.94
							c0.2-0.28,0.48-0.51,0.83-0.67c0.36-0.17,0.77-0.25,1.22-0.25c0.46,0,0.87,0.07,1.23,0.22c0.37,0.15,0.66,0.36,0.87,0.62
							c0.22,0.26,0.33,0.56,0.35,0.88h-1.04c-0.01-0.17-0.08-0.32-0.21-0.46c-0.13-0.14-0.29-0.24-0.5-0.32
							c-0.21-0.08-0.44-0.11-0.7-0.11c-0.26,0-0.5,0.04-0.7,0.13s-0.36,0.21-0.48,0.37c-0.11,0.16-0.17,0.33-0.17,0.53
							c0,0.15,0.03,0.28,0.08,0.39c0.05,0.11,0.13,0.21,0.24,0.28c0.11,0.07,0.24,0.13,0.41,0.16l1.61,0.29
							c0.33,0.06,0.62,0.18,0.86,0.35s0.42,0.39,0.55,0.65c0.13,0.26,0.19,0.54,0.19,0.85c0,0.38-0.11,0.73-0.33,1.03
							c-0.22,0.31-0.52,0.55-0.9,0.72s-0.81,0.26-1.28,0.26C363.07,291.98,362.63,291.9,362.23,291.75z"/>
						<path d="M368.31,286.2h-1.15v-0.91h1.15v-0.85c0-0.3,0.07-0.57,0.21-0.8c0.14-0.23,0.34-0.42,0.59-0.55
							c0.25-0.13,0.54-0.19,0.86-0.19h1.05v0.91h-0.98c-0.21,0-0.38,0.06-0.51,0.19c-0.13,0.13-0.19,0.3-0.19,0.51v0.79h1.62v0.91
							h-1.62v5.63h-1.02V286.2z"/>
						<path d="M372.24,286.2h-1.3v-0.91h2.32v6.53h-1.02V286.2z M372.17,282.9h1.2v1.21h-1.2V282.9z"/>
						<path d="M375.51,282.9h1.02v8.93h-1.02V282.9z"/>
						<path d="M379.76,291.54c-0.49-0.29-0.87-0.7-1.15-1.22s-0.41-1.11-0.41-1.77c0-0.64,0.14-1.22,0.42-1.74
							c0.28-0.52,0.66-0.93,1.15-1.22c0.49-0.3,1.04-0.44,1.64-0.44c0.62,0,1.16,0.15,1.62,0.44s0.83,0.7,1.08,1.22
							c0.25,0.52,0.38,1.11,0.38,1.76v0.25h-5.28l0.01-0.28c0,0.49,0.1,0.93,0.3,1.32s0.46,0.69,0.8,0.91s0.72,0.33,1.15,0.33
							c0.29,0,0.55-0.04,0.79-0.1c0.24-0.07,0.46-0.17,0.64-0.31c0.18-0.13,0.32-0.29,0.42-0.47h1.02
							c-0.08,0.27-0.24,0.54-0.48,0.82c-0.24,0.27-0.58,0.5-1,0.68c-0.42,0.18-0.9,0.27-1.46,0.27
							C380.8,291.98,380.25,291.83,379.76,291.54z M379.22,287.97h4.26v0.58c0-0.5-0.08-0.94-0.24-1.32
							c-0.16-0.38-0.39-0.67-0.7-0.88c-0.31-0.21-0.68-0.31-1.11-0.31c-0.43,0-0.82,0.1-1.15,0.3c-0.33,0.2-0.59,0.49-0.77,0.86
							c-0.18,0.37-0.27,0.81-0.27,1.3L379.22,287.97z"/>
						<path d="M387,291.75c-0.4-0.16-0.71-0.38-0.95-0.66c-0.24-0.28-0.36-0.6-0.38-0.96h1.04c0.02,0.2,0.1,0.37,0.24,0.53
							c0.14,0.16,0.34,0.28,0.57,0.37c0.24,0.09,0.5,0.13,0.8,0.13c0.3,0,0.56-0.05,0.79-0.15c0.23-0.1,0.4-0.23,0.53-0.41
							s0.19-0.37,0.19-0.59c0-0.16-0.03-0.3-0.09-0.43c-0.06-0.13-0.15-0.23-0.26-0.32c-0.11-0.08-0.25-0.14-0.41-0.17l-1.58-0.29
							c-0.33-0.06-0.62-0.17-0.86-0.33s-0.42-0.37-0.55-0.62s-0.19-0.53-0.19-0.85c0-0.34,0.1-0.66,0.3-0.94
							c0.2-0.28,0.48-0.51,0.83-0.67c0.36-0.17,0.77-0.25,1.22-0.25c0.46,0,0.87,0.07,1.23,0.22c0.37,0.15,0.66,0.36,0.87,0.62
							c0.22,0.26,0.33,0.56,0.35,0.88h-1.04c-0.01-0.17-0.08-0.32-0.21-0.46c-0.13-0.14-0.29-0.24-0.5-0.32
							c-0.21-0.08-0.44-0.11-0.7-0.11c-0.26,0-0.5,0.04-0.7,0.13s-0.36,0.21-0.48,0.37c-0.11,0.16-0.17,0.33-0.17,0.53
							c0,0.15,0.03,0.28,0.08,0.39c0.05,0.11,0.13,0.21,0.24,0.28c0.11,0.07,0.24,0.13,0.41,0.16l1.61,0.29
							c0.33,0.06,0.62,0.18,0.86,0.35s0.42,0.39,0.55,0.65c0.13,0.26,0.19,0.54,0.19,0.85c0,0.38-0.11,0.73-0.33,1.03
							c-0.22,0.31-0.52,0.55-0.9,0.72s-0.81,0.26-1.28,0.26C387.84,291.98,387.39,291.9,387,291.75z"/>
						<path d="M393.97,285.38v1.4h-1.4v-1.4H393.97z M393.97,290.42v1.4h-1.4v-1.4H393.97z"/>
						<path d="M297.96,319.01h-1.15v-0.91h1.15v-0.85c0-0.3,0.07-0.57,0.21-0.8c0.14-0.23,0.34-0.42,0.59-0.55
							c0.25-0.13,0.54-0.19,0.86-0.19h1.05v0.91h-0.98c-0.21,0-0.38,0.06-0.51,0.19c-0.13,0.13-0.19,0.3-0.19,0.51v0.79h1.62v0.91
							h-1.62v5.63h-1.02V319.01z"/>
						<path d="M307.69,324.64h-0.98v-2.83h0.41c0,0.6-0.1,1.13-0.31,1.58c-0.21,0.45-0.51,0.79-0.89,1.04
							c-0.39,0.24-0.84,0.36-1.37,0.36c-0.47,0-0.88-0.1-1.24-0.3c-0.36-0.2-0.65-0.49-0.85-0.88c-0.21-0.39-0.31-0.86-0.31-1.4
							v-4.1h1.02v4c0,0.38,0.07,0.7,0.2,0.97c0.13,0.27,0.32,0.47,0.57,0.61c0.25,0.14,0.54,0.21,0.88,0.21
							c0.37,0,0.69-0.08,0.97-0.24s0.5-0.39,0.65-0.68c0.16-0.29,0.23-0.62,0.23-1v-3.87h1.02V324.64z"/>
						<path d="M309.93,318.11h0.98v2.83h-0.41c0-0.6,0.1-1.13,0.31-1.58s0.51-0.79,0.89-1.04c0.39-0.24,0.84-0.36,1.37-0.36
							c0.47,0,0.88,0.1,1.24,0.3c0.36,0.2,0.65,0.49,0.85,0.88c0.21,0.39,0.31,0.86,0.31,1.4v4.1h-1.02v-4c0-0.38-0.07-0.7-0.2-0.97
							c-0.13-0.27-0.32-0.47-0.57-0.61c-0.25-0.14-0.54-0.21-0.88-0.21c-0.37,0-0.69,0.08-0.97,0.24s-0.5,0.39-0.65,0.68
							c-0.16,0.29-0.23,0.62-0.23,1v3.87h-1.02V318.11z"/>
						<path d="M321.98,326.61c-0.4-0.15-0.74-0.36-1.01-0.63c-0.27-0.27-0.44-0.59-0.52-0.94h1.02c0.09,0.2,0.23,0.36,0.41,0.5
							c0.18,0.14,0.39,0.24,0.63,0.31c0.24,0.07,0.49,0.1,0.75,0.1c0.42,0,0.78-0.08,1.09-0.25c0.31-0.17,0.55-0.4,0.72-0.7
							c0.17-0.3,0.25-0.65,0.25-1.05v-0.27l0.05-1.84l0.53-0.65c-0.01,0.58-0.14,1.09-0.38,1.55c-0.25,0.45-0.58,0.81-1.01,1.06
							c-0.43,0.25-0.91,0.38-1.44,0.38c-0.55,0-1.05-0.13-1.5-0.4c-0.45-0.27-0.8-0.63-1.05-1.1c-0.25-0.47-0.38-1-0.38-1.59
							s0.13-1.12,0.38-1.6c0.26-0.47,0.61-0.84,1.05-1.11c0.45-0.27,0.95-0.4,1.5-0.4c0.53,0,1.01,0.13,1.44,0.38
							c0.43,0.26,0.76,0.61,1.01,1.07c0.25,0.46,0.37,0.97,0.38,1.56l-0.53-0.57v-2.28h0.99l-0.02,5.83c0,0.57-0.13,1.07-0.38,1.51
							s-0.61,0.78-1.08,1.02c-0.46,0.24-1,0.36-1.6,0.36C322.82,326.84,322.38,326.76,321.98,326.61z M324.34,322.98
							c0.31-0.19,0.56-0.46,0.74-0.79c0.18-0.34,0.27-0.71,0.27-1.12c0-0.42-0.09-0.79-0.27-1.13c-0.18-0.34-0.43-0.6-0.74-0.79
							c-0.31-0.19-0.66-0.29-1.05-0.29c-0.39,0-0.74,0.1-1.06,0.29c-0.31,0.19-0.56,0.46-0.74,0.79c-0.18,0.34-0.27,0.71-0.27,1.13
							c0,0.41,0.09,0.79,0.27,1.12c0.18,0.34,0.42,0.6,0.74,0.79c0.31,0.19,0.67,0.29,1.06,0.29
							C323.67,323.26,324.02,323.17,324.34,322.98z"/>
						<path d="M328.61,318.11h1.02v2.19l-0.43,0.64c0.02-0.59,0.12-1.1,0.32-1.53s0.47-0.77,0.83-1s0.76-0.35,1.23-0.35h0.23v1.07
							h-0.27c-0.39,0-0.73,0.07-1.01,0.22c-0.29,0.15-0.51,0.36-0.67,0.63s-0.23,0.6-0.23,0.97v3.71h-1.02V318.11z"/>
						<path d="M334.17,324.35c-0.49-0.29-0.87-0.7-1.15-1.22s-0.41-1.11-0.41-1.77c0-0.64,0.14-1.22,0.42-1.74
							c0.28-0.52,0.66-0.93,1.15-1.22c0.49-0.3,1.04-0.44,1.64-0.44c0.62,0,1.16,0.15,1.62,0.44s0.83,0.7,1.08,1.22
							c0.25,0.52,0.38,1.11,0.38,1.76v0.25h-5.28l0.01-0.28c0,0.49,0.1,0.93,0.3,1.32s0.46,0.69,0.8,0.91s0.72,0.33,1.15,0.33
							c0.29,0,0.55-0.04,0.79-0.1c0.24-0.07,0.46-0.17,0.64-0.31c0.18-0.13,0.32-0.29,0.42-0.47h1.02
							c-0.08,0.27-0.24,0.54-0.48,0.82c-0.24,0.27-0.58,0.5-1,0.68c-0.42,0.18-0.9,0.27-1.46,0.27
							C335.21,324.79,334.66,324.65,334.17,324.35z M333.63,320.78h4.26v0.58c0-0.5-0.08-0.94-0.24-1.32
							c-0.16-0.38-0.39-0.67-0.7-0.88c-0.31-0.21-0.68-0.31-1.11-0.31c-0.43,0-0.82,0.1-1.15,0.3c-0.33,0.2-0.59,0.49-0.77,0.86
							c-0.18,0.37-0.27,0.81-0.27,1.3L333.63,320.78z"/>
						<path d="M341.59,324.35c-0.49-0.29-0.87-0.7-1.15-1.22s-0.41-1.11-0.41-1.77c0-0.64,0.14-1.22,0.42-1.74
							c0.28-0.52,0.66-0.93,1.15-1.22c0.49-0.3,1.04-0.44,1.64-0.44c0.62,0,1.16,0.15,1.62,0.44s0.83,0.7,1.08,1.22
							c0.25,0.52,0.38,1.11,0.38,1.76v0.25h-5.28l0.01-0.28c0,0.49,0.1,0.93,0.3,1.32s0.46,0.69,0.8,0.91s0.72,0.33,1.15,0.33
							c0.29,0,0.55-0.04,0.79-0.1c0.24-0.07,0.46-0.17,0.64-0.31c0.18-0.13,0.32-0.29,0.42-0.47h1.02
							c-0.08,0.27-0.24,0.54-0.48,0.82c-0.24,0.27-0.58,0.5-1,0.68c-0.42,0.18-0.9,0.27-1.46,0.27
							C342.63,324.79,342.07,324.65,341.59,324.35z M341.04,320.78h4.26v0.58c0-0.5-0.08-0.94-0.24-1.32
							c-0.16-0.38-0.39-0.67-0.7-0.88c-0.31-0.21-0.68-0.31-1.11-0.31c-0.43,0-0.82,0.1-1.15,0.3c-0.33,0.2-0.59,0.49-0.77,0.86
							c-0.18,0.37-0.27,0.81-0.27,1.3L341.04,320.78z"/>
						<path d="M349.25,324.44c-0.25-0.13-0.45-0.32-0.6-0.55c-0.15-0.24-0.22-0.5-0.22-0.79l-0.01-4.08h-1.15l0.01-0.91H348
							c0.16,0,0.29-0.05,0.39-0.15s0.15-0.23,0.15-0.39v-1.05h0.92v1.6h1.58l-0.01,0.91h-1.58l0.01,4.02c0,0.2,0.07,0.37,0.2,0.5
							c0.13,0.13,0.3,0.2,0.5,0.2h0.87v0.91h-0.93C349.79,324.64,349.5,324.57,349.25,324.44z"/>
						<path d="M353.91,315.71v1.21h-1.2v-1.21H353.91z M352.8,318.11h1.02v6.53h-1.02V318.11z"/>
						<path d="M356.06,318.11h0.98v2.83h-0.41c0-0.6,0.1-1.13,0.31-1.58s0.51-0.79,0.89-1.04c0.39-0.24,0.84-0.36,1.37-0.36
							c0.47,0,0.88,0.1,1.24,0.3c0.36,0.2,0.65,0.49,0.85,0.88c0.21,0.39,0.31,0.86,0.31,1.4v4.1h-1.02v-4c0-0.38-0.07-0.7-0.2-0.97
							c-0.13-0.27-0.32-0.47-0.57-0.61c-0.25-0.14-0.54-0.21-0.88-0.21c-0.37,0-0.69,0.08-0.97,0.24s-0.5,0.39-0.65,0.68
							c-0.16,0.29-0.23,0.62-0.23,1v3.87h-1.02V318.11z"/>
						<path d="M364.95,326.61c-0.4-0.15-0.74-0.36-1.01-0.63c-0.27-0.27-0.44-0.59-0.52-0.94h1.02c0.09,0.2,0.23,0.36,0.41,0.5
							c0.18,0.14,0.39,0.24,0.63,0.31c0.24,0.07,0.49,0.1,0.75,0.1c0.42,0,0.78-0.08,1.09-0.25c0.31-0.17,0.55-0.4,0.72-0.7
							c0.17-0.3,0.25-0.65,0.25-1.05v-0.27l0.05-1.84l0.53-0.65c-0.01,0.58-0.14,1.09-0.38,1.55c-0.25,0.45-0.58,0.81-1.01,1.06
							c-0.43,0.25-0.91,0.38-1.44,0.38c-0.55,0-1.05-0.13-1.5-0.4c-0.45-0.27-0.8-0.63-1.05-1.1c-0.25-0.47-0.38-1-0.38-1.59
							s0.13-1.12,0.38-1.6c0.26-0.47,0.61-0.84,1.05-1.11c0.45-0.27,0.95-0.4,1.5-0.4c0.53,0,1.01,0.13,1.44,0.38
							c0.43,0.26,0.76,0.61,1.01,1.07c0.25,0.46,0.37,0.97,0.38,1.56l-0.53-0.57v-2.28h0.99l-0.02,5.83c0,0.57-0.13,1.07-0.38,1.51
							s-0.61,0.78-1.08,1.02c-0.46,0.24-1,0.36-1.6,0.36C365.79,326.84,365.35,326.76,364.95,326.61z M367.31,322.98
							c0.31-0.19,0.56-0.46,0.74-0.79c0.18-0.34,0.27-0.71,0.27-1.12c0-0.42-0.09-0.79-0.27-1.13c-0.18-0.34-0.43-0.6-0.74-0.79
							c-0.31-0.19-0.66-0.29-1.05-0.29c-0.39,0-0.74,0.1-1.06,0.29c-0.31,0.19-0.56,0.46-0.74,0.79c-0.18,0.34-0.27,0.71-0.27,1.13
							c0,0.41,0.09,0.79,0.27,1.12c0.18,0.34,0.42,0.6,0.74,0.79c0.31,0.19,0.67,0.29,1.06,0.29
							C366.64,323.26,366.99,323.17,367.31,322.98z"/>
						<path d="M372.37,325.01c-0.3-0.57-0.54-1.19-0.7-1.87s-0.25-1.37-0.25-2.08s0.08-1.4,0.25-2.08c0.16-0.68,0.4-1.3,0.7-1.87
							c0.3-0.57,0.66-1.04,1.07-1.42h1.01c-0.43,0.42-0.8,0.92-1.11,1.51c-0.31,0.58-0.56,1.21-0.73,1.87s-0.26,1.33-0.26,1.98
							s0.09,1.32,0.26,1.99s0.42,1.29,0.73,1.87c0.32,0.58,0.69,1.08,1.11,1.5h-1.02C373.03,326.05,372.68,325.58,372.37,325.01z"/>
						<path d="M376.31,326.43h-1.02c0.43-0.42,0.8-0.92,1.11-1.5c0.32-0.58,0.56-1.2,0.73-1.87s0.26-1.33,0.26-1.99
							s-0.09-1.32-0.26-1.98s-0.42-1.29-0.73-1.87c-0.31-0.58-0.69-1.08-1.11-1.51h1.01c0.41,0.38,0.76,0.85,1.07,1.42
							c0.3,0.57,0.54,1.19,0.7,1.87c0.16,0.68,0.25,1.37,0.25,2.08s-0.08,1.4-0.25,2.08s-0.4,1.3-0.7,1.87
							C377.08,325.58,376.72,326.05,376.31,326.43z"/>
						<path d="M384.77,321.72c-0.23-0.2-0.54-0.29-0.92-0.29h-0.62v-0.89h0.62c0.39,0,0.69-0.1,0.92-0.29s0.34-0.46,0.33-0.79
							l-0.03-1.61c-0.01-0.44,0.08-0.83,0.27-1.16c0.19-0.33,0.47-0.59,0.83-0.77s0.78-0.27,1.27-0.27h0.64v0.83h-0.64
							c-0.45,0-0.8,0.12-1.06,0.37s-0.39,0.58-0.38,1l0.03,1.61c0.01,0.43-0.11,0.79-0.35,1.06s-0.57,0.43-0.98,0.46
							c0.41,0.08,0.74,0.25,0.98,0.53c0.24,0.28,0.36,0.62,0.35,1.01L386,324.3c-0.01,0.38,0.11,0.68,0.34,0.9
							c0.24,0.22,0.56,0.33,0.97,0.33h0.77v0.83h-0.77c-0.46,0-0.85-0.08-1.19-0.25s-0.6-0.41-0.78-0.72
							c-0.18-0.31-0.27-0.68-0.27-1.09l0.03-1.79C385.11,322.18,385,321.91,384.77,321.72z"/>
						<path d="M390.72,323.24v1.4h-1.4v-1.4H390.72z"/>
						<path d="M393.77,323.24v1.4h-1.4v-1.4H393.77z"/>
						<path d="M396.82,323.24v1.4h-1.4v-1.4H396.82z"/>
						<path d="M401.05,322.51l0.03,1.79c0,0.42-0.08,0.78-0.27,1.09c-0.18,0.31-0.44,0.55-0.78,0.72s-0.74,0.25-1.19,0.25h-0.77
							v-0.83h0.77c0.41,0,0.73-0.11,0.97-0.33c0.24-0.22,0.35-0.52,0.34-0.9l-0.03-1.79c-0.01-0.4,0.11-0.73,0.35-1.01
							c0.24-0.28,0.57-0.46,0.98-0.53c-0.41-0.03-0.74-0.18-0.98-0.46c-0.24-0.27-0.36-0.63-0.35-1.06l0.03-1.61
							c0-0.42-0.12-0.75-0.38-1s-0.61-0.37-1.06-0.37h-0.64v-0.83h0.64c0.49,0,0.91,0.09,1.27,0.27s0.64,0.43,0.83,0.77
							c0.19,0.33,0.28,0.72,0.27,1.16l-0.03,1.61c-0.01,0.33,0.1,0.6,0.33,0.79s0.53,0.29,0.92,0.29h0.62v0.89h-0.62
							c-0.39,0-0.69,0.1-0.92,0.29C401.15,321.91,401.04,322.18,401.05,322.51z"/>
						<path d="M286.12,335.42h-1.15v-0.91h1.15v-0.85c0-0.3,0.07-0.57,0.21-0.8c0.14-0.23,0.34-0.42,0.59-0.55
							c0.25-0.13,0.54-0.19,0.86-0.19h1.05v0.91h-0.98c-0.21,0-0.38,0.06-0.51,0.19c-0.13,0.13-0.19,0.3-0.19,0.51v0.79h1.62v0.91
							h-1.62v5.63h-1.02V335.42z"/>
						<path d="M295.86,341.05h-0.98v-2.83h0.41c0,0.6-0.1,1.13-0.31,1.58c-0.21,0.45-0.51,0.79-0.89,1.04
							c-0.39,0.24-0.84,0.36-1.37,0.36c-0.47,0-0.88-0.1-1.24-0.3c-0.36-0.2-0.65-0.49-0.85-0.88c-0.21-0.39-0.31-0.86-0.31-1.4
							v-4.1h1.02v4c0,0.38,0.07,0.7,0.2,0.97c0.13,0.27,0.32,0.47,0.57,0.61c0.25,0.14,0.54,0.21,0.88,0.21
							c0.37,0,0.69-0.08,0.97-0.24s0.5-0.39,0.65-0.68c0.16-0.29,0.23-0.62,0.23-1v-3.87h1.02V341.05z"/>
						<path d="M298.09,334.51h0.98v2.83h-0.41c0-0.6,0.1-1.13,0.31-1.58s0.51-0.79,0.89-1.04c0.39-0.24,0.84-0.36,1.37-0.36
							c0.47,0,0.88,0.1,1.24,0.3c0.36,0.2,0.65,0.49,0.85,0.88c0.21,0.39,0.31,0.86,0.31,1.4v4.1h-1.02v-4c0-0.38-0.07-0.7-0.2-0.97
							c-0.13-0.27-0.32-0.47-0.57-0.61c-0.25-0.14-0.54-0.21-0.88-0.21c-0.37,0-0.69,0.08-0.97,0.24s-0.5,0.39-0.65,0.68
							c-0.16,0.29-0.23,0.62-0.23,1v3.87h-1.02V334.51z"/>
						<path d="M307.47,342.12h0.56c0.21,0,0.38-0.06,0.51-0.19c0.13-0.13,0.19-0.3,0.19-0.51v-6.9h1.02v6.98
							c0,0.31-0.07,0.59-0.21,0.83c-0.14,0.24-0.34,0.43-0.59,0.56c-0.25,0.13-0.54,0.2-0.86,0.2h-0.63V342.12z M309.84,332.12v1.21
							h-1.2v-1.21H309.84z"/>
						<path d="M311.05,334.51h1.11l1.99,5.17l1.93-5.17h1.08l-2.57,6.53h-0.96L311.05,334.51z"/>
						<path d="M318.54,334.51h0.98v2.83h-0.34c0-0.61,0.09-1.14,0.28-1.59c0.19-0.45,0.46-0.79,0.82-1.03
							c0.36-0.24,0.78-0.36,1.28-0.36c0.46,0,0.87,0.11,1.22,0.32s0.62,0.51,0.81,0.9s0.29,0.84,0.29,1.35v4.12h-1.02v-4.08
							c0-0.36-0.06-0.67-0.18-0.93c-0.12-0.26-0.3-0.46-0.53-0.6c-0.23-0.14-0.51-0.21-0.83-0.21c-0.35,0-0.66,0.08-0.93,0.24
							c-0.26,0.16-0.47,0.38-0.61,0.68s-0.21,0.64-0.21,1.03v3.87h-1.02V334.51z M326.99,336.04c-0.12-0.26-0.3-0.46-0.53-0.6
							c-0.23-0.14-0.51-0.21-0.84-0.21c-0.35,0-0.66,0.08-0.92,0.24c-0.26,0.16-0.47,0.39-0.61,0.68c-0.15,0.29-0.22,0.63-0.22,1.03
							l-0.57,0.17c0-0.59,0.1-1.11,0.31-1.56c0.2-0.45,0.5-0.8,0.88-1.05c0.38-0.25,0.82-0.37,1.33-0.37c0.46,0,0.88,0.11,1.23,0.32
							s0.64,0.51,0.84,0.9c0.2,0.39,0.3,0.84,0.3,1.35v4.12h-1.02v-4.08C327.17,336.61,327.11,336.3,326.99,336.04z"/>
						<path d="M331.94,340.6c-0.65-0.4-1.17-0.96-1.54-1.66c-0.37-0.7-0.56-1.49-0.56-2.36s0.19-1.65,0.56-2.36
							c0.37-0.7,0.89-1.26,1.54-1.66s1.38-0.6,2.19-0.6c0.67,0,1.3,0.14,1.89,0.42c0.58,0.28,1.07,0.66,1.44,1.14
							c0.38,0.48,0.6,1.01,0.68,1.58h-1.05c-0.08-0.4-0.26-0.77-0.54-1.11s-0.64-0.6-1.06-0.79s-0.88-0.29-1.36-0.29
							c-0.61,0-1.16,0.16-1.65,0.47s-0.87,0.75-1.15,1.31c-0.28,0.56-0.41,1.19-0.41,1.89s0.14,1.34,0.41,1.9s0.66,0.99,1.15,1.31
							s1.04,0.47,1.65,0.47c0.56,0,1.07-0.11,1.52-0.34c0.45-0.23,0.81-0.55,1.08-0.96c0.26-0.41,0.4-0.87,0.41-1.39v-0.08h-2.36
							v-0.96h3.43v0.65c0,0.75-0.18,1.44-0.53,2.05c-0.36,0.61-0.84,1.09-1.46,1.45c-0.62,0.35-1.31,0.53-2.08,0.53
							C333.33,341.2,332.6,341,331.94,340.6z"/>
						<path d="M340.45,334.51h1.02v2.19l-0.43,0.64c0.02-0.59,0.12-1.1,0.32-1.53s0.47-0.77,0.83-1s0.76-0.35,1.23-0.35h0.23v1.07
							h-0.27c-0.39,0-0.73,0.07-1.01,0.22c-0.29,0.15-0.51,0.36-0.67,0.63s-0.23,0.6-0.23,0.97v3.71h-1.02V334.51z"/>
						<path d="M346.01,340.76c-0.49-0.29-0.87-0.7-1.15-1.22s-0.41-1.11-0.41-1.77c0-0.64,0.14-1.22,0.42-1.74
							c0.28-0.52,0.66-0.93,1.15-1.22c0.49-0.3,1.04-0.44,1.64-0.44c0.62,0,1.16,0.15,1.62,0.44s0.83,0.7,1.08,1.22
							c0.25,0.52,0.38,1.11,0.38,1.76v0.25h-5.28l0.01-0.28c0,0.49,0.1,0.93,0.3,1.32s0.46,0.69,0.8,0.91s0.72,0.33,1.15,0.33
							c0.29,0,0.55-0.04,0.79-0.1c0.24-0.07,0.46-0.17,0.64-0.31c0.18-0.13,0.32-0.29,0.42-0.47h1.02
							c-0.08,0.27-0.24,0.54-0.48,0.82c-0.24,0.27-0.58,0.5-1,0.68c-0.42,0.18-0.9,0.27-1.46,0.27
							C347.05,341.2,346.5,341.05,346.01,340.76z M345.47,337.19h4.26v0.58c0-0.5-0.08-0.94-0.24-1.32
							c-0.16-0.38-0.39-0.67-0.7-0.88c-0.31-0.21-0.68-0.31-1.11-0.31c-0.43,0-0.82,0.1-1.15,0.3c-0.33,0.2-0.59,0.49-0.77,0.86
							c-0.18,0.37-0.27,0.81-0.27,1.3L345.47,337.19z"/>
						<path d="M353.42,340.76c-0.49-0.29-0.87-0.7-1.15-1.22s-0.41-1.11-0.41-1.77c0-0.64,0.14-1.22,0.42-1.74
							c0.28-0.52,0.66-0.93,1.15-1.22c0.49-0.3,1.04-0.44,1.64-0.44c0.62,0,1.16,0.15,1.62,0.44s0.83,0.7,1.08,1.22
							c0.25,0.52,0.38,1.11,0.38,1.76v0.25h-5.28l0.01-0.28c0,0.49,0.1,0.93,0.3,1.32s0.46,0.69,0.8,0.91s0.72,0.33,1.15,0.33
							c0.29,0,0.55-0.04,0.79-0.1c0.24-0.07,0.46-0.17,0.64-0.31c0.18-0.13,0.32-0.29,0.42-0.47h1.02
							c-0.08,0.27-0.24,0.54-0.48,0.82c-0.24,0.27-0.58,0.5-1,0.68c-0.42,0.18-0.9,0.27-1.46,0.27
							C354.46,341.2,353.91,341.05,353.42,340.76z M352.88,337.19h4.26v0.58c0-0.5-0.08-0.94-0.24-1.32
							c-0.16-0.38-0.39-0.67-0.7-0.88c-0.31-0.21-0.68-0.31-1.11-0.31c-0.43,0-0.82,0.1-1.15,0.3c-0.33,0.2-0.59,0.49-0.77,0.86
							c-0.18,0.37-0.27,0.81-0.27,1.3L352.88,337.19z"/>
						<path d="M361.09,340.85c-0.25-0.13-0.45-0.32-0.6-0.55c-0.15-0.24-0.22-0.5-0.22-0.79l-0.01-4.08h-1.15l0.01-0.91h0.71
							c0.16,0,0.29-0.05,0.39-0.15s0.15-0.23,0.15-0.39v-1.05h0.92v1.6h1.58l-0.01,0.91h-1.58l0.01,4.02c0,0.2,0.07,0.37,0.2,0.5
							c0.13,0.13,0.3,0.2,0.5,0.2h0.87v0.91h-0.93C361.62,341.05,361.34,340.98,361.09,340.85z"/>
						<path d="M365.75,332.12v1.21h-1.2v-1.21H365.75z M364.64,334.51h1.02v6.53h-1.02V334.51z"/>
						<path d="M367.89,334.51h0.98v2.83h-0.41c0-0.6,0.1-1.13,0.31-1.58s0.51-0.79,0.89-1.04c0.39-0.24,0.84-0.36,1.37-0.36
							c0.47,0,0.88,0.1,1.24,0.3c0.36,0.2,0.65,0.49,0.85,0.88c0.21,0.39,0.31,0.86,0.31,1.4v4.1h-1.02v-4c0-0.38-0.07-0.7-0.2-0.97
							c-0.13-0.27-0.32-0.47-0.57-0.61c-0.25-0.14-0.54-0.21-0.88-0.21c-0.37,0-0.69,0.08-0.97,0.24s-0.5,0.39-0.65,0.68
							c-0.16,0.29-0.23,0.62-0.23,1v3.87h-1.02V334.51z"/>
						<path d="M376.79,343.02c-0.4-0.15-0.74-0.36-1.01-0.63c-0.27-0.27-0.44-0.59-0.52-0.94h1.02c0.09,0.2,0.23,0.36,0.41,0.5
							c0.18,0.14,0.39,0.24,0.63,0.31c0.24,0.07,0.49,0.1,0.75,0.1c0.42,0,0.78-0.08,1.09-0.25c0.31-0.17,0.55-0.4,0.72-0.7
							c0.17-0.3,0.25-0.65,0.25-1.05v-0.27l0.05-1.84l0.53-0.65c-0.01,0.58-0.14,1.09-0.38,1.55c-0.25,0.45-0.58,0.81-1.01,1.06
							c-0.43,0.25-0.91,0.38-1.44,0.38c-0.55,0-1.05-0.13-1.5-0.4c-0.45-0.27-0.8-0.63-1.05-1.1c-0.25-0.47-0.38-1-0.38-1.59
							s0.13-1.12,0.38-1.6c0.26-0.47,0.61-0.84,1.05-1.11c0.45-0.27,0.95-0.4,1.5-0.4c0.53,0,1.01,0.13,1.44,0.38
							c0.43,0.26,0.76,0.61,1.01,1.07c0.25,0.46,0.37,0.97,0.38,1.56l-0.53-0.57v-2.28h0.99l-0.02,5.83c0,0.57-0.13,1.07-0.38,1.51
							s-0.61,0.78-1.08,1.02c-0.46,0.24-1,0.36-1.6,0.36C377.63,343.24,377.19,343.17,376.79,343.02z M379.14,339.38
							c0.31-0.19,0.56-0.46,0.74-0.79c0.18-0.34,0.27-0.71,0.27-1.12c0-0.42-0.09-0.79-0.27-1.13c-0.18-0.34-0.43-0.6-0.74-0.79
							c-0.31-0.19-0.66-0.29-1.05-0.29c-0.39,0-0.74,0.1-1.06,0.29c-0.31,0.19-0.56,0.46-0.74,0.79c-0.18,0.34-0.27,0.71-0.27,1.13
							c0,0.41,0.09,0.79,0.27,1.12c0.18,0.34,0.42,0.6,0.74,0.79c0.31,0.19,0.67,0.29,1.06,0.29
							C378.48,339.67,378.83,339.57,379.14,339.38z"/>
						<path d="M384.21,341.42c-0.3-0.57-0.54-1.19-0.7-1.87s-0.25-1.37-0.25-2.08s0.08-1.4,0.25-2.08c0.16-0.68,0.4-1.3,0.7-1.87
							c0.3-0.57,0.66-1.04,1.07-1.42h1.01c-0.43,0.42-0.8,0.92-1.11,1.51c-0.31,0.58-0.56,1.21-0.73,1.87s-0.26,1.33-0.26,1.98
							s0.09,1.32,0.26,1.99s0.42,1.29,0.73,1.87c0.32,0.58,0.69,1.08,1.11,1.5h-1.02C384.87,342.45,384.51,341.98,384.21,341.42z"/>
						<path d="M388.15,342.83h-1.02c0.43-0.42,0.8-0.92,1.11-1.5c0.32-0.58,0.56-1.2,0.73-1.87s0.26-1.33,0.26-1.99
							s-0.09-1.32-0.26-1.98s-0.42-1.29-0.73-1.87c-0.31-0.58-0.69-1.08-1.11-1.51h1.01c0.41,0.38,0.76,0.85,1.07,1.42
							c0.3,0.57,0.54,1.19,0.7,1.87c0.16,0.68,0.25,1.37,0.25,2.08s-0.08,1.4-0.25,2.08s-0.4,1.3-0.7,1.87
							C388.91,341.98,388.56,342.45,388.15,342.83z"/>
						<path d="M396.61,338.12c-0.23-0.2-0.54-0.29-0.92-0.29h-0.62v-0.89h0.62c0.39,0,0.69-0.1,0.92-0.29s0.34-0.46,0.33-0.79
							l-0.03-1.61c-0.01-0.44,0.08-0.83,0.27-1.16c0.19-0.33,0.47-0.59,0.83-0.77s0.78-0.27,1.27-0.27h0.64v0.83h-0.64
							c-0.45,0-0.8,0.12-1.06,0.37s-0.39,0.58-0.38,1l0.03,1.61c0.01,0.43-0.11,0.79-0.35,1.06s-0.57,0.43-0.98,0.46
							c0.41,0.08,0.74,0.25,0.98,0.53c0.24,0.28,0.36,0.62,0.35,1.01l-0.03,1.79c-0.01,0.38,0.11,0.68,0.34,0.9
							c0.24,0.22,0.56,0.33,0.97,0.33h0.77v0.83h-0.77c-0.46,0-0.85-0.08-1.19-0.25s-0.6-0.41-0.78-0.72
							c-0.18-0.31-0.27-0.68-0.27-1.09l0.03-1.79C396.94,338.58,396.83,338.32,396.61,338.12z"/>
						<path d="M402.56,339.64v1.4h-1.4v-1.4H402.56z"/>
						<path d="M405.61,339.64v1.4h-1.4v-1.4H405.61z"/>
						<path d="M408.66,339.64v1.4h-1.4v-1.4H408.66z"/>
						<path d="M412.89,338.92l0.03,1.79c0,0.42-0.08,0.78-0.27,1.09c-0.18,0.31-0.44,0.55-0.79,0.72c-0.34,0.17-0.74,0.25-1.19,0.25
							h-0.77v-0.83h0.77c0.41,0,0.73-0.11,0.97-0.33c0.24-0.22,0.35-0.52,0.34-0.9l-0.03-1.79c-0.01-0.4,0.11-0.73,0.35-1.01
							c0.24-0.28,0.57-0.46,0.98-0.53c-0.41-0.03-0.74-0.18-0.98-0.46s-0.36-0.63-0.35-1.06l0.03-1.61c0-0.42-0.12-0.75-0.38-1
							c-0.26-0.24-0.61-0.37-1.06-0.37h-0.64v-0.83h0.64c0.49,0,0.91,0.09,1.27,0.27s0.63,0.43,0.83,0.77
							c0.19,0.33,0.28,0.72,0.27,1.16l-0.03,1.61c-0.01,0.33,0.1,0.6,0.33,0.79s0.53,0.29,0.92,0.29h0.62v0.89h-0.62
							c-0.39,0-0.69,0.1-0.92,0.29C412.99,338.32,412.88,338.58,412.89,338.92z"/>
					</g>
				</g>
			</g>
			<g>
				<g>
					<g>
						<line class="st1" x1="350" y1="238.85" x2="350" y2="263.03"/>
						<g>
							<polygon points="347.27,262.23 350,266.96 352.73,262.23 							"/>
						</g>
					</g>
				</g>
			</g>
		</g>
	</g>
</g>
</svg>
