<svg width="706" height="444" viewBox="0 0 706 444" fill="none" xmlns="http://www.w3.org/2000/svg">
<rect width="706" height="444" fill="white"/>
<path d="M545 179.523L544.65 179.523L545 179.523ZM369 126L371.021 129.5L366.979 129.5L369 126ZM544.65 208L544.65 179.523L545.35 179.523L545.35 208L544.65 208ZM531 165.873L383 165.873L383 165.173L531 165.173L531 165.873ZM368.65 151.523L368.65 129.15L369.35 129.15L369.35 151.523L368.65 151.523ZM383 165.873C375.075 165.873 368.65 159.448 368.65 151.523L369.35 151.523C369.35 159.061 375.461 165.173 383 165.173L383 165.873ZM544.65 179.523C544.65 171.984 538.539 165.873 531 165.873L531 165.173C538.925 165.173 545.35 171.597 545.35 179.523L544.65 179.523Z" fill="black"/>
<path d="M436 312.509L435.65 312.509L436 312.509ZM167 272L169.021 275.5L164.979 275.5L167 272ZM435.65 327L435.65 312.509L436.35 312.509L436.35 327L435.65 327ZM422 298.859L181 298.859L181 298.159L422 298.159L422 298.859ZM166.65 284.509L166.65 275.15L167.35 275.15L167.35 284.509L166.65 284.509ZM181 298.859C173.075 298.859 166.65 292.434 166.65 284.509L167.35 284.509C167.35 292.048 173.461 298.159 181 298.159L181 298.859ZM435.65 312.509C435.65 304.97 429.539 298.859 422 298.859L422 298.159C429.925 298.159 436.35 304.584 436.35 312.509L435.65 312.509Z" fill="black"/>
<path d="M164 179.523L164.35 179.523L164 179.523ZM363 126L360.979 129.5L365.021 129.5L363 126ZM164.35 208L164.35 179.523L163.65 179.523L163.65 208L164.35 208ZM178 165.873L349 165.873L349 165.173L178 165.173L178 165.873ZM363.35 151.523L363.35 129.15L362.65 129.15L362.65 151.523L363.35 151.523ZM349 165.873C356.925 165.873 363.35 159.448 363.35 151.523L362.65 151.523C362.65 159.061 356.539 165.173 349 165.173L349 165.873ZM164.35 179.523C164.35 171.984 170.461 165.873 178 165.873L178 165.173C170.075 165.173 163.65 171.597 163.65 179.523L164.35 179.523Z" fill="black"/>
<rect x="143" y="61" width="197" height="53" rx="12" fill="url(#paint0_radial_1506_307)"/>
<path d="M205.748 91.144C205.168 91.144 204.644 91.004 204.176 90.724C203.708 90.444 203.34 90.06 203.072 89.572C202.808 89.08 202.676 88.532 202.676 87.928C202.676 87.324 202.808 86.778 203.072 86.29C203.34 85.798 203.708 85.412 204.176 85.132C204.644 84.852 205.168 84.712 205.748 84.712C206.492 84.712 207.116 84.902 207.62 85.282C208.124 85.658 208.446 86.204 208.586 86.92H207.626C207.498 86.48 207.262 86.148 206.918 85.924C206.578 85.696 206.188 85.582 205.748 85.582C205.352 85.582 204.996 85.682 204.68 85.882C204.368 86.082 204.124 86.36 203.948 86.716C203.772 87.072 203.684 87.476 203.684 87.928C203.684 88.376 203.772 88.778 203.948 89.134C204.124 89.49 204.368 89.77 204.68 89.974C204.996 90.174 205.352 90.274 205.748 90.274C206.188 90.274 206.578 90.162 206.918 89.938C207.262 89.71 207.498 89.376 207.626 88.936H208.586C208.494 89.4 208.314 89.798 208.046 90.13C207.778 90.462 207.446 90.714 207.05 90.886C206.654 91.058 206.22 91.144 205.748 91.144ZM212.758 91.144C212.174 91.144 211.642 91.006 211.162 90.73C210.686 90.45 210.31 90.066 210.034 89.578C209.762 89.086 209.626 88.536 209.626 87.928C209.626 87.32 209.762 86.772 210.034 86.284C210.31 85.792 210.688 85.408 211.168 85.132C211.648 84.852 212.18 84.712 212.764 84.712C213.348 84.712 213.878 84.852 214.354 85.132C214.83 85.408 215.204 85.79 215.476 86.278C215.752 86.766 215.89 87.316 215.89 87.928C215.89 88.54 215.752 89.09 215.476 89.578C215.204 90.066 214.83 90.45 214.354 90.73C213.878 91.006 213.346 91.144 212.758 91.144ZM210.634 87.928C210.634 88.388 210.726 88.796 210.91 89.152C211.098 89.504 211.354 89.778 211.678 89.974C212.006 90.17 212.37 90.268 212.77 90.268C213.17 90.268 213.53 90.17 213.85 89.974C214.17 89.778 214.422 89.504 214.606 89.152C214.79 88.796 214.882 88.388 214.882 87.928C214.882 87.468 214.79 87.06 214.606 86.704C214.422 86.348 214.168 86.072 213.844 85.876C213.524 85.68 213.164 85.582 212.764 85.582C212.364 85.582 212.002 85.68 211.678 85.876C211.354 86.072 211.098 86.348 210.91 86.704C210.726 87.06 210.634 87.468 210.634 87.928ZM217.472 84.856H218.396V85.894C218.58 85.514 218.834 85.222 219.158 85.018C219.486 84.814 219.87 84.712 220.31 84.712C220.77 84.712 221.17 84.822 221.51 85.042C221.85 85.262 222.104 85.572 222.272 85.972C222.468 85.572 222.742 85.262 223.094 85.042C223.446 84.822 223.852 84.712 224.312 84.712C224.748 84.712 225.134 84.812 225.47 85.012C225.81 85.208 226.074 85.488 226.262 85.852C226.45 86.216 226.544 86.64 226.544 87.124V91H225.584V87.166C225.584 86.658 225.456 86.258 225.2 85.966C224.948 85.674 224.592 85.528 224.132 85.528C223.804 85.528 223.516 85.604 223.268 85.756C223.02 85.904 222.828 86.116 222.692 86.392C222.556 86.664 222.488 86.986 222.488 87.358V91H221.528V87.166C221.528 86.658 221.4 86.258 221.144 85.966C220.892 85.674 220.536 85.528 220.076 85.528C219.744 85.528 219.454 85.602 219.206 85.75C218.958 85.898 218.766 86.11 218.63 86.386C218.498 86.662 218.432 86.986 218.432 87.358V91H217.472V84.856ZM228.464 84.856H229.388V85.894C229.572 85.514 229.826 85.222 230.15 85.018C230.478 84.814 230.862 84.712 231.302 84.712C231.762 84.712 232.162 84.822 232.502 85.042C232.842 85.262 233.096 85.572 233.264 85.972C233.46 85.572 233.734 85.262 234.086 85.042C234.438 84.822 234.844 84.712 235.304 84.712C235.74 84.712 236.126 84.812 236.462 85.012C236.802 85.208 237.066 85.488 237.254 85.852C237.442 86.216 237.536 86.64 237.536 87.124V91H236.576V87.166C236.576 86.658 236.448 86.258 236.192 85.966C235.94 85.674 235.584 85.528 235.124 85.528C234.796 85.528 234.508 85.604 234.26 85.756C234.012 85.904 233.82 86.116 233.684 86.392C233.548 86.664 233.48 86.986 233.48 87.358V91H232.52V87.166C232.52 86.658 232.392 86.258 232.136 85.966C231.884 85.674 231.528 85.528 231.068 85.528C230.736 85.528 230.446 85.602 230.198 85.75C229.95 85.898 229.758 86.11 229.622 86.386C229.49 86.662 229.424 86.986 229.424 87.358V91H228.464V84.856ZM242.066 91.144C241.482 91.144 240.95 91.006 240.47 90.73C239.994 90.45 239.618 90.066 239.342 89.578C239.07 89.086 238.934 88.536 238.934 87.928C238.934 87.32 239.07 86.772 239.342 86.284C239.618 85.792 239.996 85.408 240.476 85.132C240.956 84.852 241.488 84.712 242.072 84.712C242.656 84.712 243.186 84.852 243.662 85.132C244.138 85.408 244.512 85.79 244.784 86.278C245.06 86.766 245.198 87.316 245.198 87.928C245.198 88.54 245.06 89.09 244.784 89.578C244.512 90.066 244.138 90.45 243.662 90.73C243.186 91.006 242.654 91.144 242.066 91.144ZM239.942 87.928C239.942 88.388 240.034 88.796 240.218 89.152C240.406 89.504 240.662 89.778 240.986 89.974C241.314 90.17 241.678 90.268 242.078 90.268C242.478 90.268 242.838 90.17 243.158 89.974C243.478 89.778 243.73 89.504 243.914 89.152C244.098 88.796 244.19 88.388 244.19 87.928C244.19 87.468 244.098 87.06 243.914 86.704C243.73 86.348 243.476 86.072 243.152 85.876C242.832 85.68 242.472 85.582 242.072 85.582C241.672 85.582 241.31 85.68 240.986 85.876C240.662 86.072 240.406 86.348 240.218 86.704C240.034 87.06 239.942 87.468 239.942 87.928ZM246.78 84.856H247.704V85.852C247.912 85.484 248.188 85.202 248.532 85.006C248.88 84.81 249.282 84.712 249.738 84.712C250.178 84.712 250.568 84.806 250.908 84.994C251.248 85.182 251.514 85.46 251.706 85.828C251.902 86.192 252 86.63 252 87.142V91H251.04V87.238C251.04 86.706 250.902 86.292 250.626 85.996C250.35 85.7 249.97 85.552 249.486 85.552C249.142 85.552 248.838 85.628 248.574 85.78C248.31 85.932 248.104 86.146 247.956 86.422C247.812 86.694 247.74 87.006 247.74 87.358V91H246.78V84.856ZM254.157 82.6H255.399L258.411 89.332L258.567 89.758L258.717 89.332L261.675 82.6H262.941V91H261.945V84.208L258.975 91H258.141L255.147 84.244V91H254.157V82.6ZM267.45 84.712C267.914 84.712 268.322 84.798 268.674 84.97C269.026 85.138 269.298 85.386 269.49 85.714C269.686 86.038 269.784 86.424 269.784 86.872V91H268.848V89.998C268.676 90.37 268.424 90.654 268.092 90.85C267.76 91.046 267.366 91.144 266.91 91.144C266.518 91.144 266.164 91.068 265.848 90.916C265.532 90.764 265.284 90.554 265.104 90.286C264.924 90.018 264.834 89.714 264.834 89.374C264.834 89.054 264.916 88.76 265.08 88.492C265.248 88.22 265.478 87.998 265.77 87.826C266.066 87.654 266.398 87.548 266.766 87.508L268.404 87.328C268.54 87.312 268.646 87.256 268.722 87.16C268.798 87.064 268.836 86.924 268.836 86.74C268.836 86.496 268.778 86.282 268.662 86.098C268.546 85.914 268.382 85.772 268.17 85.672C267.962 85.568 267.72 85.516 267.444 85.516C267.168 85.516 266.92 85.564 266.7 85.66C266.48 85.752 266.302 85.878 266.166 86.038C266.034 86.194 265.954 86.364 265.926 86.548H264.966C265.014 86.2 265.15 85.888 265.374 85.612C265.602 85.332 265.896 85.112 266.256 84.952C266.616 84.792 267.014 84.712 267.45 84.712ZM265.83 89.32C265.83 89.528 265.884 89.712 265.992 89.872C266.104 90.032 266.258 90.158 266.454 90.25C266.65 90.338 266.874 90.382 267.126 90.382C267.47 90.382 267.77 90.312 268.026 90.172C268.286 90.032 268.486 89.836 268.626 89.584C268.766 89.328 268.836 89.034 268.836 88.702V88L266.898 88.216C266.578 88.252 266.32 88.372 266.124 88.576C265.928 88.78 265.83 89.028 265.83 89.32ZM271.706 84.856H272.666V91H271.706V84.856ZM272.75 82.6V83.74H271.622V82.6H272.75ZM274.765 84.856H275.689V85.852C275.897 85.484 276.173 85.202 276.517 85.006C276.865 84.81 277.267 84.712 277.723 84.712C278.163 84.712 278.553 84.806 278.893 84.994C279.233 85.182 279.499 85.46 279.691 85.828C279.887 86.192 279.985 86.63 279.985 87.142V91H279.025V87.238C279.025 86.706 278.887 86.292 278.611 85.996C278.335 85.7 277.955 85.552 277.471 85.552C277.127 85.552 276.823 85.628 276.559 85.78C276.295 85.932 276.089 86.146 275.941 86.422C275.797 86.694 275.725 87.006 275.725 87.358V91H274.765V84.856Z" fill="white"/>
<rect x="344" y="63" width="112" height="24" rx="12" fill="#F2F2F2"/>
<path d="M387.924 77.07H389.352C389.588 77.07 389.796 77.02 389.976 76.92C390.16 76.82 390.302 76.68 390.402 76.5C390.502 76.316 390.552 76.106 390.552 75.87V69.6H391.548V75.93C391.548 76.334 391.458 76.694 391.278 77.01C391.098 77.322 390.846 77.566 390.522 77.742C390.198 77.914 389.828 78 389.412 78H387.924V77.07ZM393.033 69.6H394.125L396.783 76.71L399.345 69.6H400.449L397.263 78H396.243L393.033 69.6ZM401.999 69.6H403.241L406.253 76.332L406.409 76.758L406.559 76.332L409.517 69.6H410.783V78H409.787V71.208L406.817 78H405.983L402.989 71.244V78H401.999V69.6Z" fill="black"/>
<path d="M462 75C462 68.3726 467.373 63 474 63H576C582.627 63 588 68.3726 588 75C588 81.6274 582.627 87 576 87H474C467.373 87 462 81.6274 462 75Z" fill="#F2F2F2"/>
<path d="M501.783 70.6H502.743V79H501.783V70.6ZM504.842 72.856H505.802V79H504.842V72.856ZM505.886 70.6V71.74H504.758V70.6H505.886ZM507.9 72.856H508.824V73.852C509.032 73.484 509.308 73.202 509.652 73.006C510 72.81 510.402 72.712 510.858 72.712C511.298 72.712 511.688 72.806 512.028 72.994C512.368 73.182 512.634 73.46 512.826 73.828C513.022 74.192 513.12 74.63 513.12 75.142V79H512.16V75.238C512.16 74.706 512.022 74.292 511.746 73.996C511.47 73.7 511.09 73.552 510.606 73.552C510.262 73.552 509.958 73.628 509.694 73.78C509.43 73.932 509.224 74.146 509.076 74.422C508.932 74.694 508.86 75.006 508.86 75.358V79H507.9V72.856ZM520.077 79H519.153V78.004C518.945 78.372 518.667 78.654 518.319 78.85C517.975 79.046 517.575 79.144 517.119 79.144C516.679 79.144 516.289 79.05 515.949 78.862C515.609 78.674 515.341 78.398 515.145 78.034C514.953 77.666 514.857 77.226 514.857 76.714V72.856H515.817V76.618C515.817 77.15 515.955 77.564 516.231 77.86C516.507 78.156 516.887 78.304 517.371 78.304C517.715 78.304 518.019 78.228 518.283 78.076C518.547 77.924 518.751 77.712 518.895 77.44C519.043 77.164 519.117 76.85 519.117 76.498V72.856H520.077V79ZM524.136 76.606L522.498 79H521.406L523.632 75.832L521.514 72.856H522.63L524.184 75.088L525.708 72.856H526.8L524.694 75.862L526.914 79H525.798L524.136 76.606ZM530.5 74.734L527.704 70.6H528.868L530.842 73.612L531.1 73.978L531.514 73.36L533.344 70.6H534.484L531.664 74.71L534.604 79H533.44L531.322 75.856L531.052 75.466L530.602 76.144L528.724 79H527.584L530.5 74.734ZM539.061 79.144C538.401 79.144 537.823 78.974 537.327 78.634C536.835 78.29 536.455 77.804 536.187 77.176C535.919 76.544 535.785 75.806 535.785 74.962C535.785 74.054 535.923 73.26 536.199 72.58C536.475 71.896 536.861 71.372 537.357 71.008C537.853 70.64 538.421 70.456 539.061 70.456C539.689 70.456 540.259 70.598 540.771 70.882C541.287 71.166 541.663 71.616 541.899 72.232H540.903C540.759 71.98 540.525 71.772 540.201 71.608C539.881 71.44 539.519 71.356 539.115 71.356C538.671 71.356 538.271 71.48 537.915 71.728C537.563 71.976 537.281 72.368 537.069 72.904C536.857 73.436 536.749 74.11 536.745 74.926C536.933 74.45 537.251 74.072 537.699 73.792C538.151 73.512 538.679 73.372 539.283 73.372C539.823 73.372 540.309 73.498 540.741 73.75C541.177 73.998 541.517 74.342 541.761 74.782C542.009 75.222 542.133 75.714 542.133 76.258C542.133 76.802 541.999 77.294 541.731 77.734C541.467 78.174 541.101 78.52 540.633 78.772C540.165 79.02 539.641 79.144 539.061 79.144ZM537.045 76.252C537.045 76.632 537.133 76.974 537.309 77.278C537.485 77.578 537.729 77.814 538.041 77.986C538.357 78.158 538.711 78.244 539.103 78.244C539.483 78.244 539.825 78.16 540.129 77.992C540.433 77.82 540.671 77.584 540.843 77.284C541.015 76.98 541.101 76.64 541.101 76.264C541.101 75.884 541.013 75.542 540.837 75.238C540.661 74.93 540.417 74.688 540.105 74.512C539.797 74.336 539.449 74.248 539.061 74.248C538.677 74.248 538.331 74.336 538.023 74.512C537.719 74.684 537.479 74.924 537.303 75.232C537.131 75.536 537.045 75.876 537.045 76.252ZM547.29 76.93H543.03V76.03L547.284 70.6H548.274V76.03H549.582V76.93H548.274V79H547.29V76.93ZM547.29 76.03V71.884L544.062 76.03H547.29Z" fill="black"/>
<rect x="344" y="91" width="112" height="24" rx="12" fill="#F2F2F2"/>
<path d="M393.971 106.07H395.399C395.635 106.07 395.843 106.02 396.023 105.92C396.207 105.82 396.349 105.68 396.449 105.5C396.549 105.316 396.599 105.106 396.599 104.87V98.6H397.595V104.93C397.595 105.334 397.505 105.694 397.325 106.01C397.145 106.322 396.893 106.566 396.569 106.742C396.245 106.914 395.875 107 395.459 107H393.971V106.07ZM402.41 107.144C401.834 107.144 401.324 107.038 400.88 106.826C400.44 106.614 400.096 106.318 399.848 105.938C399.604 105.558 399.482 105.122 399.482 104.63H400.502C400.502 104.946 400.582 105.226 400.742 105.47C400.902 105.714 401.128 105.904 401.42 106.04C401.712 106.176 402.046 106.244 402.422 106.244C402.794 106.244 403.12 106.182 403.4 106.058C403.684 105.93 403.902 105.752 404.054 105.524C404.21 105.292 404.288 105.026 404.288 104.726C404.288 104.346 404.174 104.02 403.946 103.748C403.722 103.476 403.422 103.308 403.046 103.244L401.69 103.01C401.282 102.938 400.928 102.796 400.628 102.584C400.328 102.372 400.098 102.108 399.938 101.792C399.778 101.476 399.698 101.132 399.698 100.76C399.698 100.324 399.812 99.932 400.04 99.584C400.272 99.232 400.592 98.956 401 98.756C401.412 98.556 401.874 98.456 402.386 98.456C402.914 98.456 403.384 98.556 403.796 98.756C404.208 98.952 404.528 99.226 404.756 99.578C404.984 99.93 405.098 100.332 405.098 100.784H404.078C404.078 100.508 404.008 100.262 403.868 100.046C403.728 99.826 403.53 99.656 403.274 99.536C403.022 99.416 402.73 99.356 402.398 99.356C402.066 99.356 401.772 99.414 401.516 99.53C401.26 99.646 401.06 99.81 400.916 100.022C400.776 100.234 400.706 100.48 400.706 100.76C400.706 101.092 400.812 101.378 401.024 101.618C401.24 101.858 401.522 102.008 401.87 102.068L403.25 102.308C403.65 102.38 404.006 102.534 404.318 102.77C404.63 103.006 404.872 103.296 405.044 103.64C405.216 103.98 405.302 104.338 405.302 104.714C405.302 105.166 405.18 105.578 404.936 105.95C404.692 106.318 404.35 106.61 403.91 106.826C403.47 107.038 402.97 107.144 402.41 107.144Z" fill="black"/>
<rect x="139.35" y="57.35" width="452.3" height="60.3" rx="14.65" stroke="#595959" stroke-width="0.7"/>
<path d="M429 223C429 216.373 434.373 211 441 211H532C538.627 211 544 216.373 544 223V252C544 258.627 538.627 264 532 264H441C434.373 264 429 258.627 429 252V223Z" fill="url(#paint1_radial_1506_307)"/>
<path d="M448.843 231.6H449.803V240H448.843V231.6ZM451.902 233.856H452.862V240H451.902V233.856ZM452.946 231.6V232.74H451.818V231.6H452.946ZM454.96 233.856H455.884V234.852C456.092 234.484 456.368 234.202 456.712 234.006C457.06 233.81 457.462 233.712 457.918 233.712C458.358 233.712 458.748 233.806 459.088 233.994C459.428 234.182 459.694 234.46 459.886 234.828C460.082 235.192 460.18 235.63 460.18 236.142V240H459.22V236.238C459.22 235.706 459.082 235.292 458.806 234.996C458.53 234.7 458.15 234.552 457.666 234.552C457.322 234.552 457.018 234.628 456.754 234.78C456.49 234.932 456.284 235.146 456.136 235.422C455.992 235.694 455.92 236.006 455.92 236.358V240H454.96V233.856ZM467.137 240H466.213V239.004C466.005 239.372 465.727 239.654 465.379 239.85C465.035 240.046 464.635 240.144 464.179 240.144C463.739 240.144 463.349 240.05 463.009 239.862C462.669 239.674 462.401 239.398 462.205 239.034C462.013 238.666 461.917 238.226 461.917 237.714V233.856H462.877V237.618C462.877 238.15 463.015 238.564 463.291 238.86C463.567 239.156 463.947 239.304 464.431 239.304C464.775 239.304 465.079 239.228 465.343 239.076C465.607 238.924 465.811 238.712 465.955 238.44C466.103 238.164 466.177 237.85 466.177 237.498V233.856H467.137V240ZM471.196 237.606L469.558 240H468.466L470.692 236.832L468.574 233.856H469.69L471.244 236.088L472.768 233.856H473.86L471.754 236.862L473.974 240H472.858L471.196 237.606ZM477.56 235.734L474.764 231.6H475.928L477.902 234.612L478.16 234.978L478.574 234.36L480.404 231.6H481.544L478.724 235.71L481.664 240H480.5L478.382 236.856L478.112 236.466L477.662 237.144L475.784 240H474.644L477.56 235.734ZM486.121 240.144C485.461 240.144 484.883 239.974 484.387 239.634C483.895 239.29 483.515 238.804 483.247 238.176C482.979 237.544 482.845 236.806 482.845 235.962C482.845 235.054 482.983 234.26 483.259 233.58C483.535 232.896 483.921 232.372 484.417 232.008C484.913 231.64 485.481 231.456 486.121 231.456C486.749 231.456 487.319 231.598 487.831 231.882C488.347 232.166 488.723 232.616 488.959 233.232H487.963C487.819 232.98 487.585 232.772 487.261 232.608C486.941 232.44 486.579 232.356 486.175 232.356C485.731 232.356 485.331 232.48 484.975 232.728C484.623 232.976 484.341 233.368 484.129 233.904C483.917 234.436 483.809 235.11 483.805 235.926C483.993 235.45 484.311 235.072 484.759 234.792C485.211 234.512 485.739 234.372 486.343 234.372C486.883 234.372 487.369 234.498 487.801 234.75C488.237 234.998 488.577 235.342 488.821 235.782C489.069 236.222 489.193 236.714 489.193 237.258C489.193 237.802 489.059 238.294 488.791 238.734C488.527 239.174 488.161 239.52 487.693 239.772C487.225 240.02 486.701 240.144 486.121 240.144ZM484.105 237.252C484.105 237.632 484.193 237.974 484.369 238.278C484.545 238.578 484.789 238.814 485.101 238.986C485.417 239.158 485.771 239.244 486.163 239.244C486.543 239.244 486.885 239.16 487.189 238.992C487.493 238.82 487.731 238.584 487.903 238.284C488.075 237.98 488.161 237.64 488.161 237.264C488.161 236.884 488.073 236.542 487.897 236.238C487.721 235.93 487.477 235.688 487.165 235.512C486.857 235.336 486.509 235.248 486.121 235.248C485.737 235.248 485.391 235.336 485.083 235.512C484.779 235.684 484.539 235.924 484.363 236.232C484.191 236.536 484.105 236.876 484.105 237.252ZM494.35 237.93H490.09V237.03L494.344 231.6H495.334V237.03H496.642V237.93H495.334V240H494.35V237.93ZM494.35 237.03V232.884L491.122 237.03H494.35ZM498.513 231.6H499.755L502.767 238.332L502.923 238.758L503.073 238.332L506.031 231.6H507.297V240H506.301V233.208L503.331 240H502.497L499.503 233.244V240H498.513V231.6ZM511.806 233.712C512.27 233.712 512.678 233.798 513.03 233.97C513.382 234.138 513.654 234.386 513.846 234.714C514.042 235.038 514.14 235.424 514.14 235.872V240H513.204V238.998C513.032 239.37 512.78 239.654 512.448 239.85C512.116 240.046 511.722 240.144 511.266 240.144C510.874 240.144 510.52 240.068 510.204 239.916C509.888 239.764 509.64 239.554 509.46 239.286C509.28 239.018 509.19 238.714 509.19 238.374C509.19 238.054 509.272 237.76 509.436 237.492C509.604 237.22 509.834 236.998 510.126 236.826C510.422 236.654 510.754 236.548 511.122 236.508L512.76 236.328C512.896 236.312 513.002 236.256 513.078 236.16C513.154 236.064 513.192 235.924 513.192 235.74C513.192 235.496 513.134 235.282 513.018 235.098C512.902 234.914 512.738 234.772 512.526 234.672C512.318 234.568 512.076 234.516 511.8 234.516C511.524 234.516 511.276 234.564 511.056 234.66C510.836 234.752 510.658 234.878 510.522 235.038C510.39 235.194 510.31 235.364 510.282 235.548H509.322C509.37 235.2 509.506 234.888 509.73 234.612C509.958 234.332 510.252 234.112 510.612 233.952C510.972 233.792 511.37 233.712 511.806 233.712ZM510.186 238.32C510.186 238.528 510.24 238.712 510.348 238.872C510.46 239.032 510.614 239.158 510.81 239.25C511.006 239.338 511.23 239.382 511.482 239.382C511.826 239.382 512.126 239.312 512.382 239.172C512.642 239.032 512.842 238.836 512.982 238.584C513.122 238.328 513.192 238.034 513.192 237.702V237L511.254 237.216C510.934 237.252 510.676 237.372 510.48 237.576C510.284 237.78 510.186 238.028 510.186 238.32ZM516.062 233.856H517.022V240H516.062V233.856ZM517.106 231.6V232.74H515.978V231.6H517.106ZM519.12 233.856H520.044V234.852C520.252 234.484 520.528 234.202 520.872 234.006C521.22 233.81 521.622 233.712 522.078 233.712C522.518 233.712 522.908 233.806 523.248 233.994C523.588 234.182 523.854 234.46 524.046 234.828C524.242 235.192 524.34 235.63 524.34 236.142V240H523.38V236.238C523.38 235.706 523.242 235.292 522.966 234.996C522.69 234.7 522.31 234.552 521.826 234.552C521.482 234.552 521.178 234.628 520.914 234.78C520.65 234.932 520.444 235.146 520.296 235.422C520.152 235.694 520.08 236.006 520.08 236.358V240H519.12V233.856Z" fill="white"/>
<rect x="548" y="211" width="112" height="24" rx="12" fill="#F2F2F2"/>
<path d="M580.335 219.6H581.295V228H580.335V219.6ZM583.394 221.856H584.354V228H583.394V221.856ZM584.438 219.6V220.74H583.31V219.6H584.438ZM586.452 221.856H587.376V222.852C587.584 222.484 587.86 222.202 588.204 222.006C588.552 221.81 588.954 221.712 589.41 221.712C589.85 221.712 590.24 221.806 590.58 221.994C590.92 222.182 591.186 222.46 591.378 222.828C591.574 223.192 591.672 223.63 591.672 224.142V228H590.712V224.238C590.712 223.706 590.574 223.292 590.298 222.996C590.022 222.7 589.642 222.552 589.158 222.552C588.814 222.552 588.51 222.628 588.246 222.78C587.982 222.932 587.776 223.146 587.628 223.422C587.484 223.694 587.412 224.006 587.412 224.358V228H586.452V221.856ZM598.629 228H597.705V227.004C597.497 227.372 597.219 227.654 596.871 227.85C596.527 228.046 596.127 228.144 595.671 228.144C595.231 228.144 594.841 228.05 594.501 227.862C594.161 227.674 593.893 227.398 593.697 227.034C593.505 226.666 593.409 226.226 593.409 225.714V221.856H594.369V225.618C594.369 226.15 594.507 226.564 594.783 226.86C595.059 227.156 595.439 227.304 595.923 227.304C596.267 227.304 596.571 227.228 596.835 227.076C597.099 226.924 597.303 226.712 597.447 226.44C597.595 226.164 597.669 225.85 597.669 225.498V221.856H598.629V228ZM602.688 225.606L601.05 228H599.958L602.184 224.832L600.066 221.856H601.182L602.736 224.088L604.26 221.856H605.352L603.246 224.862L605.466 228H604.35L602.688 225.606ZM609.052 223.734L606.256 219.6H607.42L609.394 222.612L609.652 222.978L610.066 222.36L611.896 219.6H613.036L610.216 223.71L613.156 228H611.992L609.874 224.856L609.604 224.466L609.154 225.144L607.276 228H606.136L609.052 223.734ZM617.613 228.144C616.953 228.144 616.375 227.974 615.879 227.634C615.387 227.29 615.007 226.804 614.739 226.176C614.471 225.544 614.337 224.806 614.337 223.962C614.337 223.054 614.475 222.26 614.751 221.58C615.027 220.896 615.413 220.372 615.909 220.008C616.405 219.64 616.973 219.456 617.613 219.456C618.241 219.456 618.811 219.598 619.323 219.882C619.839 220.166 620.215 220.616 620.451 221.232H619.455C619.311 220.98 619.077 220.772 618.753 220.608C618.433 220.44 618.071 220.356 617.667 220.356C617.223 220.356 616.823 220.48 616.467 220.728C616.115 220.976 615.833 221.368 615.621 221.904C615.409 222.436 615.301 223.11 615.297 223.926C615.485 223.45 615.803 223.072 616.251 222.792C616.703 222.512 617.231 222.372 617.835 222.372C618.375 222.372 618.861 222.498 619.293 222.75C619.729 222.998 620.069 223.342 620.313 223.782C620.561 224.222 620.685 224.714 620.685 225.258C620.685 225.802 620.551 226.294 620.283 226.734C620.019 227.174 619.653 227.52 619.185 227.772C618.717 228.02 618.193 228.144 617.613 228.144ZM615.597 225.252C615.597 225.632 615.685 225.974 615.861 226.278C616.037 226.578 616.281 226.814 616.593 226.986C616.909 227.158 617.263 227.244 617.655 227.244C618.035 227.244 618.377 227.16 618.681 226.992C618.985 226.82 619.223 226.584 619.395 226.284C619.567 225.98 619.653 225.64 619.653 225.264C619.653 224.884 619.565 224.542 619.389 224.238C619.213 223.93 618.969 223.688 618.657 223.512C618.349 223.336 618.001 223.248 617.613 223.248C617.229 223.248 616.883 223.336 616.575 223.512C616.271 223.684 616.031 223.924 615.855 224.232C615.683 224.536 615.597 224.876 615.597 225.252ZM625.842 225.93H621.582V225.03L625.836 219.6H626.826V225.03H628.134V225.93H626.826V228H625.842V225.93ZM625.842 225.03V220.884L622.614 225.03H625.842Z" fill="black"/>
<rect x="426.35" y="208.35" width="237.3" height="58.3" rx="14.65" stroke="#595959" stroke-width="0.7"/>
<path d="M318 342C318 335.373 323.373 330 330 330H420.714C427.341 330 432.714 335.373 432.714 342V371C432.714 377.627 427.341 383 420.714 383H330C323.373 383 318 377.627 318 371V342Z" fill="url(#paint2_radial_1506_307)"/>
<path d="M361.19 360.008H361.718C361.914 360.008 362.072 359.946 362.192 359.822C362.316 359.702 362.378 359.544 362.378 359.348V352.856H363.338V359.42C363.338 359.712 363.272 359.972 363.14 360.2C363.008 360.428 362.824 360.604 362.588 360.728C362.352 360.856 362.082 360.92 361.778 360.92H361.19V360.008ZM363.422 350.6V351.74H362.294V350.6H363.422ZM367.379 359.144C366.915 359.144 366.495 359.07 366.119 358.922C365.747 358.774 365.449 358.568 365.225 358.304C365.005 358.036 364.887 357.734 364.871 357.398H365.849C365.865 357.582 365.941 357.748 366.077 357.896C366.213 358.04 366.393 358.154 366.617 358.238C366.841 358.322 367.091 358.364 367.367 358.364C367.647 358.364 367.893 358.318 368.105 358.226C368.321 358.134 368.487 358.006 368.603 357.842C368.723 357.678 368.783 357.492 368.783 357.284C368.783 357.06 368.719 356.872 368.591 356.72C368.467 356.564 368.293 356.466 368.069 356.426L366.587 356.156C366.115 356.068 365.747 355.878 365.483 355.586C365.219 355.29 365.087 354.916 365.087 354.464C365.087 354.14 365.179 353.846 365.363 353.582C365.551 353.314 365.813 353.102 366.149 352.946C366.485 352.79 366.869 352.712 367.301 352.712C367.729 352.712 368.115 352.782 368.459 352.922C368.803 353.062 369.077 353.256 369.281 353.504C369.485 353.752 369.595 354.028 369.611 354.332H368.633C368.621 354.172 368.555 354.028 368.435 353.9C368.319 353.772 368.163 353.672 367.967 353.6C367.771 353.528 367.551 353.492 367.307 353.492C367.059 353.492 366.839 353.534 366.647 353.618C366.455 353.702 366.305 353.818 366.197 353.966C366.093 354.11 366.041 354.274 366.041 354.458C366.041 354.666 366.099 354.838 366.215 354.974C366.331 355.11 366.501 355.198 366.725 355.238L368.243 355.508C368.555 355.564 368.823 355.674 369.047 355.838C369.275 356.002 369.447 356.206 369.563 356.45C369.683 356.694 369.743 356.96 369.743 357.248C369.743 357.608 369.639 357.932 369.431 358.22C369.227 358.508 368.945 358.734 368.585 358.898C368.225 359.062 367.823 359.144 367.379 359.144ZM371.603 350.6H372.845L375.857 357.332L376.013 357.758L376.163 357.332L379.121 350.6H380.387V359H379.391V352.208L376.421 359H375.587L372.593 352.244V359H371.603V350.6ZM384.896 352.712C385.36 352.712 385.768 352.798 386.12 352.97C386.472 353.138 386.744 353.386 386.936 353.714C387.132 354.038 387.23 354.424 387.23 354.872V359H386.294V357.998C386.122 358.37 385.87 358.654 385.538 358.85C385.206 359.046 384.812 359.144 384.356 359.144C383.964 359.144 383.61 359.068 383.294 358.916C382.978 358.764 382.73 358.554 382.55 358.286C382.37 358.018 382.28 357.714 382.28 357.374C382.28 357.054 382.362 356.76 382.526 356.492C382.694 356.22 382.924 355.998 383.216 355.826C383.512 355.654 383.844 355.548 384.212 355.508L385.85 355.328C385.986 355.312 386.092 355.256 386.168 355.16C386.244 355.064 386.282 354.924 386.282 354.74C386.282 354.496 386.224 354.282 386.108 354.098C385.992 353.914 385.828 353.772 385.616 353.672C385.408 353.568 385.166 353.516 384.89 353.516C384.614 353.516 384.366 353.564 384.146 353.66C383.926 353.752 383.748 353.878 383.612 354.038C383.48 354.194 383.4 354.364 383.372 354.548H382.412C382.46 354.2 382.596 353.888 382.82 353.612C383.048 353.332 383.342 353.112 383.702 352.952C384.062 352.792 384.46 352.712 384.896 352.712ZM383.276 357.32C383.276 357.528 383.33 357.712 383.438 357.872C383.55 358.032 383.704 358.158 383.9 358.25C384.096 358.338 384.32 358.382 384.572 358.382C384.916 358.382 385.216 358.312 385.472 358.172C385.732 358.032 385.932 357.836 386.072 357.584C386.212 357.328 386.282 357.034 386.282 356.702V356L384.344 356.216C384.024 356.252 383.766 356.372 383.57 356.576C383.374 356.78 383.276 357.028 383.276 357.32ZM389.152 352.856H390.112V359H389.152V352.856ZM390.196 350.6V351.74H389.068V350.6H390.196ZM392.21 352.856H393.134V353.852C393.342 353.484 393.618 353.202 393.962 353.006C394.31 352.81 394.712 352.712 395.168 352.712C395.608 352.712 395.998 352.806 396.338 352.994C396.678 353.182 396.944 353.46 397.136 353.828C397.332 354.192 397.43 354.63 397.43 355.142V359H396.47V355.238C396.47 354.706 396.332 354.292 396.056 353.996C395.78 353.7 395.4 353.552 394.916 353.552C394.572 353.552 394.268 353.628 394.004 353.78C393.74 353.932 393.534 354.146 393.386 354.422C393.242 354.694 393.17 355.006 393.17 355.358V359H392.21V352.856Z" fill="white"/>
<path d="M436 342C436 335.373 441.373 330 448 330H536C542.627 330 548 335.373 548 342C548 348.627 542.627 354 536 354H448C441.373 354 436 348.627 436 342Z" fill="#F2F2F2"/>
<path d="M486.419 346.07H487.847C488.083 346.07 488.291 346.02 488.471 345.92C488.655 345.82 488.797 345.68 488.897 345.5C488.997 345.316 489.047 345.106 489.047 344.87V338.6H490.043V344.93C490.043 345.334 489.953 345.694 489.773 346.01C489.593 346.322 489.341 346.566 489.017 346.742C488.693 346.914 488.323 347 487.907 347H486.419V346.07ZM494.858 347.144C494.282 347.144 493.772 347.038 493.328 346.826C492.888 346.614 492.544 346.318 492.296 345.938C492.052 345.558 491.93 345.122 491.93 344.63H492.95C492.95 344.946 493.03 345.226 493.19 345.47C493.35 345.714 493.576 345.904 493.868 346.04C494.16 346.176 494.494 346.244 494.87 346.244C495.242 346.244 495.568 346.182 495.848 346.058C496.132 345.93 496.35 345.752 496.502 345.524C496.658 345.292 496.736 345.026 496.736 344.726C496.736 344.346 496.622 344.02 496.394 343.748C496.17 343.476 495.87 343.308 495.494 343.244L494.138 343.01C493.73 342.938 493.376 342.796 493.076 342.584C492.776 342.372 492.546 342.108 492.386 341.792C492.226 341.476 492.146 341.132 492.146 340.76C492.146 340.324 492.26 339.932 492.488 339.584C492.72 339.232 493.04 338.956 493.448 338.756C493.86 338.556 494.322 338.456 494.834 338.456C495.362 338.456 495.832 338.556 496.244 338.756C496.656 338.952 496.976 339.226 497.204 339.578C497.432 339.93 497.546 340.332 497.546 340.784H496.526C496.526 340.508 496.456 340.262 496.316 340.046C496.176 339.826 495.978 339.656 495.722 339.536C495.47 339.416 495.178 339.356 494.846 339.356C494.514 339.356 494.22 339.414 493.964 339.53C493.708 339.646 493.508 339.81 493.364 340.022C493.224 340.234 493.154 340.48 493.154 340.76C493.154 341.092 493.26 341.378 493.472 341.618C493.688 341.858 493.97 342.008 494.318 342.068L495.698 342.308C496.098 342.38 496.454 342.534 496.766 342.77C497.078 343.006 497.32 343.296 497.492 343.64C497.664 343.98 497.75 344.338 497.75 344.714C497.75 345.166 497.628 345.578 497.384 345.95C497.14 346.318 496.798 346.61 496.358 346.826C495.918 347.038 495.418 347.144 494.858 347.144Z" fill="black"/>
<rect x="314.35" y="327.35" width="237.3" height="58.3" rx="14.65" stroke="#595959" stroke-width="0.7"/>
<rect x="170" y="211" width="112" height="24" rx="12" fill="#F2F2F2"/>
<path d="M213.898 226.07H215.326C215.562 226.07 215.77 226.02 215.95 225.92C216.134 225.82 216.276 225.68 216.376 225.5C216.476 225.316 216.526 225.106 216.526 224.87V218.6H217.522V224.93C217.522 225.334 217.432 225.694 217.252 226.01C217.072 226.322 216.82 226.566 216.496 226.742C216.172 226.914 215.802 227 215.386 227H213.898V226.07ZM219.008 218.6H220.1L222.758 225.71L225.32 218.6H226.424L223.238 227H222.218L219.008 218.6ZM227.974 218.6H229.216L232.228 225.332L232.384 225.758L232.534 225.332L235.492 218.6H236.758V227H235.762V220.208L232.792 227H231.958L228.964 220.244V227H227.974V218.6Z" fill="black"/>
<rect x="49.35" y="208.35" width="237.3" height="58.3" rx="14.65" stroke="#595959" stroke-width="0.7"/>
<rect x="53" y="211" width="109" height="53" rx="12" fill="url(#paint3_radial_1506_307)"/>
<path d="M62.926 241.008H63.454C63.65 241.008 63.808 240.946 63.928 240.822C64.052 240.702 64.114 240.544 64.114 240.348V233.856H65.074V240.42C65.074 240.712 65.008 240.972 64.876 241.2C64.744 241.428 64.56 241.604 64.324 241.728C64.088 241.856 63.818 241.92 63.514 241.92H62.926V241.008ZM65.158 231.6V232.74H64.03V231.6H65.158ZM66.2891 233.856H67.3331L69.2051 238.716L71.0171 233.856H72.0371L69.6191 240H68.7191L66.2891 233.856ZM73.3332 233.856H74.2572V234.894C74.4412 234.514 74.6952 234.222 75.0192 234.018C75.3472 233.814 75.7312 233.712 76.1712 233.712C76.6312 233.712 77.0312 233.822 77.3712 234.042C77.7112 234.262 77.9652 234.572 78.1332 234.972C78.3292 234.572 78.6032 234.262 78.9552 234.042C79.3072 233.822 79.7132 233.712 80.1732 233.712C80.6092 233.712 80.9952 233.812 81.3312 234.012C81.6712 234.208 81.9352 234.488 82.1232 234.852C82.3112 235.216 82.4052 235.64 82.4052 236.124V240H81.4452V236.166C81.4452 235.658 81.3172 235.258 81.0612 234.966C80.8092 234.674 80.4532 234.528 79.9932 234.528C79.6652 234.528 79.3772 234.604 79.1292 234.756C78.8812 234.904 78.6892 235.116 78.5532 235.392C78.4172 235.664 78.3492 235.986 78.3492 236.358V240H77.3892V236.166C77.3892 235.658 77.2612 235.258 77.0052 234.966C76.7532 234.674 76.3972 234.528 75.9372 234.528C75.6052 234.528 75.3152 234.602 75.0672 234.75C74.8192 234.898 74.6272 235.11 74.4912 235.386C74.3592 235.662 74.2932 235.986 74.2932 236.358V240H73.3332V233.856ZM86.6474 231.6H87.7214L90.9494 240H89.8934L89.0834 237.768H85.3694L84.6134 240H83.5334L86.6474 231.6ZM88.7594 236.904L87.3254 232.998L87.1814 232.488L87.0374 232.998L85.6754 236.904H88.7594ZM92.259 233.856H93.183V234.852C93.391 234.484 93.667 234.202 94.011 234.006C94.359 233.81 94.761 233.712 95.217 233.712C95.657 233.712 96.047 233.806 96.387 233.994C96.727 234.182 96.993 234.46 97.185 234.828C97.381 235.192 97.479 235.63 97.479 236.142V240H96.519V236.238C96.519 235.706 96.381 235.292 96.105 234.996C95.829 234.7 95.449 234.552 94.965 234.552C94.621 234.552 94.317 234.628 94.053 234.78C93.789 234.932 93.583 235.146 93.435 235.422C93.291 235.694 93.219 236.006 93.219 236.358V240H92.259V233.856ZM104.064 238.98C103.832 239.352 103.522 239.64 103.134 239.844C102.75 240.044 102.312 240.144 101.82 240.144C101.248 240.144 100.738 240.01 100.29 239.742C99.8457 239.47 99.4977 239.09 99.2457 238.602C98.9977 238.114 98.8737 237.556 98.8737 236.928C98.8737 236.3 98.9977 235.742 99.2457 235.254C99.4977 234.766 99.8457 234.388 100.29 234.12C100.738 233.848 101.248 233.712 101.82 233.712C102.312 233.712 102.75 233.814 103.134 234.018C103.522 234.218 103.832 234.504 104.064 234.876V231.6H105.024V240H104.064V238.98ZM99.8817 236.928C99.8817 237.388 99.9697 237.796 100.146 238.152C100.322 238.504 100.568 238.78 100.884 238.98C101.2 239.176 101.562 239.274 101.97 239.274C102.346 239.274 102.684 239.192 102.984 239.028C103.288 238.86 103.532 238.626 103.716 238.326C103.904 238.022 104.02 237.67 104.064 237.27V236.586C104.02 236.186 103.904 235.836 103.716 235.536C103.532 235.232 103.288 234.998 102.984 234.834C102.684 234.666 102.346 234.582 101.97 234.582C101.562 234.582 101.2 234.682 100.884 234.882C100.568 235.078 100.322 235.354 100.146 235.71C99.9697 236.062 99.8817 236.468 99.8817 236.928ZM105.986 239.07H107.414C107.65 239.07 107.858 239.02 108.038 238.92C108.222 238.82 108.364 238.68 108.464 238.5C108.564 238.316 108.614 238.106 108.614 237.87V231.6H109.61V237.93C109.61 238.334 109.52 238.694 109.34 239.01C109.16 239.322 108.908 239.566 108.584 239.742C108.26 239.914 107.89 240 107.474 240H105.986V239.07ZM113.916 240.144C113.452 240.144 113.032 240.07 112.656 239.922C112.284 239.774 111.986 239.568 111.762 239.304C111.542 239.036 111.424 238.734 111.408 238.398H112.386C112.402 238.582 112.478 238.748 112.614 238.896C112.75 239.04 112.93 239.154 113.154 239.238C113.378 239.322 113.628 239.364 113.904 239.364C114.184 239.364 114.43 239.318 114.642 239.226C114.858 239.134 115.024 239.006 115.14 238.842C115.26 238.678 115.32 238.492 115.32 238.284C115.32 238.06 115.256 237.872 115.128 237.72C115.004 237.564 114.83 237.466 114.606 237.426L113.124 237.156C112.652 237.068 112.284 236.878 112.02 236.586C111.756 236.29 111.624 235.916 111.624 235.464C111.624 235.14 111.716 234.846 111.9 234.582C112.088 234.314 112.35 234.102 112.686 233.946C113.022 233.79 113.406 233.712 113.838 233.712C114.266 233.712 114.652 233.782 114.996 233.922C115.34 234.062 115.614 234.256 115.818 234.504C116.022 234.752 116.132 235.028 116.148 235.332H115.17C115.158 235.172 115.092 235.028 114.972 234.9C114.856 234.772 114.7 234.672 114.504 234.6C114.308 234.528 114.088 234.492 113.844 234.492C113.596 234.492 113.376 234.534 113.184 234.618C112.992 234.702 112.842 234.818 112.734 234.966C112.63 235.11 112.578 235.274 112.578 235.458C112.578 235.666 112.636 235.838 112.752 235.974C112.868 236.11 113.038 236.198 113.262 236.238L114.78 236.508C115.092 236.564 115.36 236.674 115.584 236.838C115.812 237.002 115.984 237.206 116.1 237.45C116.22 237.694 116.28 237.96 116.28 238.248C116.28 238.608 116.176 238.932 115.968 239.22C115.764 239.508 115.482 239.734 115.122 239.898C114.762 240.062 114.36 240.144 113.916 240.144ZM118.14 231.6H119.382L122.394 238.332L122.55 238.758L122.7 238.332L125.658 231.6H126.924V240H125.928V233.208L122.958 240H122.124L119.13 233.244V240H118.14V231.6ZM131.433 233.712C131.897 233.712 132.305 233.798 132.657 233.97C133.009 234.138 133.281 234.386 133.473 234.714C133.669 235.038 133.767 235.424 133.767 235.872V240H132.831V238.998C132.659 239.37 132.407 239.654 132.075 239.85C131.743 240.046 131.349 240.144 130.893 240.144C130.501 240.144 130.147 240.068 129.831 239.916C129.515 239.764 129.267 239.554 129.087 239.286C128.907 239.018 128.817 238.714 128.817 238.374C128.817 238.054 128.899 237.76 129.063 237.492C129.231 237.22 129.461 236.998 129.753 236.826C130.049 236.654 130.381 236.548 130.749 236.508L132.387 236.328C132.523 236.312 132.629 236.256 132.705 236.16C132.781 236.064 132.819 235.924 132.819 235.74C132.819 235.496 132.761 235.282 132.645 235.098C132.529 234.914 132.365 234.772 132.153 234.672C131.945 234.568 131.703 234.516 131.427 234.516C131.151 234.516 130.903 234.564 130.683 234.66C130.463 234.752 130.285 234.878 130.149 235.038C130.017 235.194 129.937 235.364 129.909 235.548H128.949C128.997 235.2 129.133 234.888 129.357 234.612C129.585 234.332 129.879 234.112 130.239 233.952C130.599 233.792 130.997 233.712 131.433 233.712ZM129.813 238.32C129.813 238.528 129.867 238.712 129.975 238.872C130.087 239.032 130.241 239.158 130.437 239.25C130.633 239.338 130.857 239.382 131.109 239.382C131.453 239.382 131.753 239.312 132.009 239.172C132.269 239.032 132.469 238.836 132.609 238.584C132.749 238.328 132.819 238.034 132.819 237.702V237L130.881 237.216C130.561 237.252 130.303 237.372 130.107 237.576C129.911 237.78 129.813 238.028 129.813 238.32ZM135.689 233.856H136.649V240H135.689V233.856ZM136.733 231.6V232.74H135.605V231.6H136.733ZM138.747 233.856H139.671V234.852C139.879 234.484 140.155 234.202 140.499 234.006C140.847 233.81 141.249 233.712 141.705 233.712C142.145 233.712 142.535 233.806 142.875 233.994C143.215 234.182 143.481 234.46 143.673 234.828C143.869 235.192 143.967 235.63 143.967 236.142V240H143.007V236.238C143.007 235.706 142.869 235.292 142.593 234.996C142.317 234.7 141.937 234.552 141.453 234.552C141.109 234.552 140.805 234.628 140.541 234.78C140.277 234.932 140.071 235.146 139.923 235.422C139.779 235.694 139.707 236.006 139.707 236.358V240H138.747V233.856Z" fill="white"/>
<path d="M171 252C171 245.373 176.373 240 183 240H271C277.627 240 283 245.373 283 252C283 258.627 277.627 264 271 264H183C176.373 264 171 258.627 171 252Z" fill="#F2F2F2"/>
<path d="M221.419 256.07H222.847C223.083 256.07 223.291 256.02 223.471 255.92C223.655 255.82 223.797 255.68 223.897 255.5C223.997 255.316 224.047 255.106 224.047 254.87V248.6H225.043V254.93C225.043 255.334 224.953 255.694 224.773 256.01C224.593 256.322 224.341 256.566 224.017 256.742C223.693 256.914 223.323 257 222.907 257H221.419V256.07ZM229.858 257.144C229.282 257.144 228.772 257.038 228.328 256.826C227.888 256.614 227.544 256.318 227.296 255.938C227.052 255.558 226.93 255.122 226.93 254.63H227.95C227.95 254.946 228.03 255.226 228.19 255.47C228.35 255.714 228.576 255.904 228.868 256.04C229.16 256.176 229.494 256.244 229.87 256.244C230.242 256.244 230.568 256.182 230.848 256.058C231.132 255.93 231.35 255.752 231.502 255.524C231.658 255.292 231.736 255.026 231.736 254.726C231.736 254.346 231.622 254.02 231.394 253.748C231.17 253.476 230.87 253.308 230.494 253.244L229.138 253.01C228.73 252.938 228.376 252.796 228.076 252.584C227.776 252.372 227.546 252.108 227.386 251.792C227.226 251.476 227.146 251.132 227.146 250.76C227.146 250.324 227.26 249.932 227.488 249.584C227.72 249.232 228.04 248.956 228.448 248.756C228.86 248.556 229.322 248.456 229.834 248.456C230.362 248.456 230.832 248.556 231.244 248.756C231.656 248.952 231.976 249.226 232.204 249.578C232.432 249.93 232.546 250.332 232.546 250.784H231.526C231.526 250.508 231.456 250.262 231.316 250.046C231.176 249.826 230.978 249.656 230.722 249.536C230.47 249.416 230.178 249.356 229.846 249.356C229.514 249.356 229.22 249.414 228.964 249.53C228.708 249.646 228.508 249.81 228.364 250.022C228.224 250.234 228.154 250.48 228.154 250.76C228.154 251.092 228.26 251.378 228.472 251.618C228.688 251.858 228.97 252.008 229.318 252.068L230.698 252.308C231.098 252.38 231.454 252.534 231.766 252.77C232.078 253.006 232.32 253.296 232.492 253.64C232.664 253.98 232.75 254.338 232.75 254.714C232.75 255.166 232.628 255.578 232.384 255.95C232.14 256.318 231.798 256.61 231.358 256.826C230.918 257.038 230.418 257.144 229.858 257.144Z" fill="black"/>
<rect x="47.0676" y="330" width="104.823" height="53" rx="12" fill="url(#paint4_radial_1506_307)"/>
<path d="M75.2131 360.008H75.7411C75.9371 360.008 76.0951 359.946 76.2151 359.822C76.3391 359.702 76.4011 359.544 76.4011 359.348V352.856H77.3611V359.42C77.3611 359.712 77.2951 359.972 77.1631 360.2C77.0311 360.428 76.8471 360.604 76.6111 360.728C76.3751 360.856 76.1051 360.92 75.8011 360.92H75.2131V360.008ZM77.4451 350.6V351.74H76.3171V350.6H77.4451ZM78.5762 352.856H79.6202L81.4922 357.716L83.3042 352.856H84.3242L81.9062 359H81.0062L78.5762 352.856ZM85.6203 352.856H86.5443V353.894C86.7283 353.514 86.9823 353.222 87.3063 353.018C87.6343 352.814 88.0183 352.712 88.4583 352.712C88.9183 352.712 89.3183 352.822 89.6583 353.042C89.9983 353.262 90.2523 353.572 90.4203 353.972C90.6163 353.572 90.8903 353.262 91.2423 353.042C91.5943 352.822 92.0003 352.712 92.4603 352.712C92.8963 352.712 93.2823 352.812 93.6183 353.012C93.9583 353.208 94.2223 353.488 94.4103 353.852C94.5983 354.216 94.6923 354.64 94.6923 355.124V359H93.7323V355.166C93.7323 354.658 93.6043 354.258 93.3483 353.966C93.0963 353.674 92.7403 353.528 92.2803 353.528C91.9523 353.528 91.6643 353.604 91.4163 353.756C91.1683 353.904 90.9763 354.116 90.8403 354.392C90.7043 354.664 90.6363 354.986 90.6363 355.358V359H89.6763V355.166C89.6763 354.658 89.5483 354.258 89.2923 353.966C89.0403 353.674 88.6843 353.528 88.2243 353.528C87.8923 353.528 87.6023 353.602 87.3543 353.75C87.1063 353.898 86.9143 354.11 86.7783 354.386C86.6463 354.662 86.5803 354.986 86.5803 355.358V359H85.6203V352.856ZM96.8525 350.6H98.0945L101.107 357.332L101.263 357.758L101.413 357.332L104.371 350.6H105.637V359H104.641V352.208L101.671 359H100.837L97.8425 352.244V359H96.8525V350.6ZM110.146 352.712C110.61 352.712 111.018 352.798 111.37 352.97C111.722 353.138 111.994 353.386 112.186 353.714C112.382 354.038 112.48 354.424 112.48 354.872V359H111.544V357.998C111.372 358.37 111.12 358.654 110.788 358.85C110.456 359.046 110.062 359.144 109.606 359.144C109.214 359.144 108.86 359.068 108.544 358.916C108.228 358.764 107.98 358.554 107.8 358.286C107.62 358.018 107.53 357.714 107.53 357.374C107.53 357.054 107.612 356.76 107.776 356.492C107.944 356.22 108.174 355.998 108.466 355.826C108.762 355.654 109.094 355.548 109.462 355.508L111.1 355.328C111.236 355.312 111.342 355.256 111.418 355.16C111.494 355.064 111.532 354.924 111.532 354.74C111.532 354.496 111.474 354.282 111.358 354.098C111.242 353.914 111.078 353.772 110.866 353.672C110.658 353.568 110.416 353.516 110.14 353.516C109.864 353.516 109.616 353.564 109.396 353.66C109.176 353.752 108.998 353.878 108.862 354.038C108.73 354.194 108.65 354.364 108.622 354.548H107.662C107.71 354.2 107.846 353.888 108.07 353.612C108.298 353.332 108.592 353.112 108.952 352.952C109.312 352.792 109.71 352.712 110.146 352.712ZM108.526 357.32C108.526 357.528 108.58 357.712 108.688 357.872C108.8 358.032 108.954 358.158 109.15 358.25C109.346 358.338 109.57 358.382 109.822 358.382C110.166 358.382 110.466 358.312 110.722 358.172C110.982 358.032 111.182 357.836 111.322 357.584C111.462 357.328 111.532 357.034 111.532 356.702V356L109.594 356.216C109.274 356.252 109.016 356.372 108.82 356.576C108.624 356.78 108.526 357.028 108.526 357.32ZM114.402 352.856H115.362V359H114.402V352.856ZM115.446 350.6V351.74H114.318V350.6H115.446ZM117.46 352.856H118.384V353.852C118.592 353.484 118.868 353.202 119.212 353.006C119.56 352.81 119.962 352.712 120.418 352.712C120.858 352.712 121.248 352.806 121.588 352.994C121.928 353.182 122.194 353.46 122.386 353.828C122.582 354.192 122.68 354.63 122.68 355.142V359H121.72V355.238C121.72 354.706 121.582 354.292 121.306 353.996C121.03 353.7 120.65 353.552 120.166 353.552C119.822 353.552 119.518 353.628 119.254 353.78C118.99 353.932 118.784 354.146 118.636 354.422C118.492 354.694 118.42 355.006 118.42 355.358V359H117.46V352.856Z" fill="white"/>
<rect x="163.608" y="330" width="112" height="24" rx="12" fill="#F2F2F2"/>
<path d="M207.506 345.07H208.934C209.17 345.07 209.378 345.02 209.558 344.92C209.742 344.82 209.884 344.68 209.984 344.5C210.084 344.316 210.134 344.106 210.134 343.87V337.6H211.13V343.93C211.13 344.334 211.04 344.694 210.86 345.01C210.68 345.322 210.428 345.566 210.104 345.742C209.78 345.914 209.41 346 208.994 346H207.506V345.07ZM212.616 337.6H213.708L216.366 344.71L218.928 337.6H220.032L216.846 346H215.826L212.616 337.6ZM221.581 337.6H222.823L225.835 344.332L225.991 344.758L226.141 344.332L229.099 337.6H230.365V346H229.369V339.208L226.399 346H225.565L222.571 339.244V346H221.581V337.6Z" fill="black"/>
<rect x="42.35" y="327.35" width="237.3" height="58.3" rx="14.65" stroke="#595959" stroke-width="0.7"/>
<path d="M161 272L163.021 275.5L158.979 275.5L161 272ZM160.65 327L160.65 275.15L161.35 275.15L161.35 327L160.65 327Z" fill="black"/>
<defs>
<radialGradient id="paint0_radial_1506_307" cx="0" cy="0" r="1" gradientUnits="userSpaceOnUse" gradientTransform="translate(142.449 114.799) scale(192.038 196.159)">
<stop stop-color="#EB4857"/>
<stop offset="0.5" stop-color="#C611E0"/>
<stop offset="1" stop-color="#7F52FF"/>
</radialGradient>
<radialGradient id="paint1_radial_1506_307" cx="0" cy="0" r="1" gradientUnits="userSpaceOnUse" gradientTransform="translate(428.678 264.799) scale(112.103 196.159)">
<stop stop-color="#EB4857"/>
<stop offset="0.5" stop-color="#C611E0"/>
<stop offset="1" stop-color="#7F52FF"/>
</radialGradient>
<radialGradient id="paint2_radial_1506_307" cx="0" cy="0" r="1" gradientUnits="userSpaceOnUse" gradientTransform="translate(317.679 383.799) scale(111.824 196.159)">
<stop stop-color="#EB4857"/>
<stop offset="0.5" stop-color="#C611E0"/>
<stop offset="1" stop-color="#7F52FF"/>
</radialGradient>
<radialGradient id="paint3_radial_1506_307" cx="0" cy="0" r="1" gradientUnits="userSpaceOnUse" gradientTransform="translate(52.6949 264.799) scale(106.254 196.159)">
<stop stop-color="#EB4857"/>
<stop offset="0.5" stop-color="#C611E0"/>
<stop offset="1" stop-color="#7F52FF"/>
</radialGradient>
<radialGradient id="paint4_radial_1506_307" cx="0" cy="0" r="1" gradientUnits="userSpaceOnUse" gradientTransform="translate(46.7743 383.799) scale(102.183 196.159)">
<stop stop-color="#EB4857"/>
<stop offset="0.5" stop-color="#C611E0"/>
<stop offset="1" stop-color="#7F52FF"/>
</radialGradient>
</defs>
</svg>
