<svg width="706" height="444" viewBox="0 0 706 444" fill="none" xmlns="http://www.w3.org/2000/svg">
<rect width="706" height="444" fill="white"/>
<path d="M546 180.523L545.65 180.523L546 180.523ZM373 127L375.021 130.5L370.979 130.5L373 127ZM545.65 209L545.65 180.523L546.35 180.523L546.35 209L545.65 209ZM532 166.873L387 166.873L387 166.173L532 166.173L532 166.873ZM372.65 152.523L372.65 130.15L373.35 130.15L373.35 152.523L372.65 152.523ZM387 166.873C379.075 166.873 372.65 160.448 372.65 152.523L373.35 152.523C373.35 160.061 379.461 166.173 387 166.173L387 166.873ZM545.65 180.523C545.65 172.984 539.539 166.873 532 166.873L532 166.173C539.925 166.173 546.35 172.597 546.35 180.523L545.65 180.523Z" fill="black"/>
<path d="M167 180.523L167.35 180.523L167 180.523ZM361 127L358.979 130.5L363.021 130.5L361 127ZM167.35 209L167.35 180.523L166.65 180.523L166.65 209L167.35 209ZM181 166.873L347 166.873L347 166.173L181 166.173L181 166.873ZM361.35 152.523L361.35 130.15L360.65 130.15L360.65 152.523L361.35 152.523ZM347 166.873C354.925 166.873 361.35 160.448 361.35 152.523L360.65 152.523C360.65 160.061 354.539 166.173 347 166.173L347 166.873ZM167.35 180.523C167.35 172.984 173.461 166.873 181 166.873L181 166.173C173.075 166.173 166.65 172.597 166.65 180.523L167.35 180.523Z" fill="black"/>
<rect x="144" y="62" width="197" height="53" rx="12" fill="url(#paint0_radial_1506_207)"/>
<path d="M206.748 92.144C206.168 92.144 205.644 92.004 205.176 91.724C204.708 91.444 204.34 91.06 204.072 90.572C203.808 90.08 203.676 89.532 203.676 88.928C203.676 88.324 203.808 87.778 204.072 87.29C204.34 86.798 204.708 86.412 205.176 86.132C205.644 85.852 206.168 85.712 206.748 85.712C207.492 85.712 208.116 85.902 208.62 86.282C209.124 86.658 209.446 87.204 209.586 87.92H208.626C208.498 87.48 208.262 87.148 207.918 86.924C207.578 86.696 207.188 86.582 206.748 86.582C206.352 86.582 205.996 86.682 205.68 86.882C205.368 87.082 205.124 87.36 204.948 87.716C204.772 88.072 204.684 88.476 204.684 88.928C204.684 89.376 204.772 89.778 204.948 90.134C205.124 90.49 205.368 90.77 205.68 90.974C205.996 91.174 206.352 91.274 206.748 91.274C207.188 91.274 207.578 91.162 207.918 90.938C208.262 90.71 208.498 90.376 208.626 89.936H209.586C209.494 90.4 209.314 90.798 209.046 91.13C208.778 91.462 208.446 91.714 208.05 91.886C207.654 92.058 207.22 92.144 206.748 92.144ZM213.758 92.144C213.174 92.144 212.642 92.006 212.162 91.73C211.686 91.45 211.31 91.066 211.034 90.578C210.762 90.086 210.626 89.536 210.626 88.928C210.626 88.32 210.762 87.772 211.034 87.284C211.31 86.792 211.688 86.408 212.168 86.132C212.648 85.852 213.18 85.712 213.764 85.712C214.348 85.712 214.878 85.852 215.354 86.132C215.83 86.408 216.204 86.79 216.476 87.278C216.752 87.766 216.89 88.316 216.89 88.928C216.89 89.54 216.752 90.09 216.476 90.578C216.204 91.066 215.83 91.45 215.354 91.73C214.878 92.006 214.346 92.144 213.758 92.144ZM211.634 88.928C211.634 89.388 211.726 89.796 211.91 90.152C212.098 90.504 212.354 90.778 212.678 90.974C213.006 91.17 213.37 91.268 213.77 91.268C214.17 91.268 214.53 91.17 214.85 90.974C215.17 90.778 215.422 90.504 215.606 90.152C215.79 89.796 215.882 89.388 215.882 88.928C215.882 88.468 215.79 88.06 215.606 87.704C215.422 87.348 215.168 87.072 214.844 86.876C214.524 86.68 214.164 86.582 213.764 86.582C213.364 86.582 213.002 86.68 212.678 86.876C212.354 87.072 212.098 87.348 211.91 87.704C211.726 88.06 211.634 88.468 211.634 88.928ZM218.472 85.856H219.396V86.894C219.58 86.514 219.834 86.222 220.158 86.018C220.486 85.814 220.87 85.712 221.31 85.712C221.77 85.712 222.17 85.822 222.51 86.042C222.85 86.262 223.104 86.572 223.272 86.972C223.468 86.572 223.742 86.262 224.094 86.042C224.446 85.822 224.852 85.712 225.312 85.712C225.748 85.712 226.134 85.812 226.47 86.012C226.81 86.208 227.074 86.488 227.262 86.852C227.45 87.216 227.544 87.64 227.544 88.124V92H226.584V88.166C226.584 87.658 226.456 87.258 226.2 86.966C225.948 86.674 225.592 86.528 225.132 86.528C224.804 86.528 224.516 86.604 224.268 86.756C224.02 86.904 223.828 87.116 223.692 87.392C223.556 87.664 223.488 87.986 223.488 88.358V92H222.528V88.166C222.528 87.658 222.4 87.258 222.144 86.966C221.892 86.674 221.536 86.528 221.076 86.528C220.744 86.528 220.454 86.602 220.206 86.75C219.958 86.898 219.766 87.11 219.63 87.386C219.498 87.662 219.432 87.986 219.432 88.358V92H218.472V85.856ZM229.464 85.856H230.388V86.894C230.572 86.514 230.826 86.222 231.15 86.018C231.478 85.814 231.862 85.712 232.302 85.712C232.762 85.712 233.162 85.822 233.502 86.042C233.842 86.262 234.096 86.572 234.264 86.972C234.46 86.572 234.734 86.262 235.086 86.042C235.438 85.822 235.844 85.712 236.304 85.712C236.74 85.712 237.126 85.812 237.462 86.012C237.802 86.208 238.066 86.488 238.254 86.852C238.442 87.216 238.536 87.64 238.536 88.124V92H237.576V88.166C237.576 87.658 237.448 87.258 237.192 86.966C236.94 86.674 236.584 86.528 236.124 86.528C235.796 86.528 235.508 86.604 235.26 86.756C235.012 86.904 234.82 87.116 234.684 87.392C234.548 87.664 234.48 87.986 234.48 88.358V92H233.52V88.166C233.52 87.658 233.392 87.258 233.136 86.966C232.884 86.674 232.528 86.528 232.068 86.528C231.736 86.528 231.446 86.602 231.198 86.75C230.95 86.898 230.758 87.11 230.622 87.386C230.49 87.662 230.424 87.986 230.424 88.358V92H229.464V85.856ZM243.066 92.144C242.482 92.144 241.95 92.006 241.47 91.73C240.994 91.45 240.618 91.066 240.342 90.578C240.07 90.086 239.934 89.536 239.934 88.928C239.934 88.32 240.07 87.772 240.342 87.284C240.618 86.792 240.996 86.408 241.476 86.132C241.956 85.852 242.488 85.712 243.072 85.712C243.656 85.712 244.186 85.852 244.662 86.132C245.138 86.408 245.512 86.79 245.784 87.278C246.06 87.766 246.198 88.316 246.198 88.928C246.198 89.54 246.06 90.09 245.784 90.578C245.512 91.066 245.138 91.45 244.662 91.73C244.186 92.006 243.654 92.144 243.066 92.144ZM240.942 88.928C240.942 89.388 241.034 89.796 241.218 90.152C241.406 90.504 241.662 90.778 241.986 90.974C242.314 91.17 242.678 91.268 243.078 91.268C243.478 91.268 243.838 91.17 244.158 90.974C244.478 90.778 244.73 90.504 244.914 90.152C245.098 89.796 245.19 89.388 245.19 88.928C245.19 88.468 245.098 88.06 244.914 87.704C244.73 87.348 244.476 87.072 244.152 86.876C243.832 86.68 243.472 86.582 243.072 86.582C242.672 86.582 242.31 86.68 241.986 86.876C241.662 87.072 241.406 87.348 241.218 87.704C241.034 88.06 240.942 88.468 240.942 88.928ZM247.78 85.856H248.704V86.852C248.912 86.484 249.188 86.202 249.532 86.006C249.88 85.81 250.282 85.712 250.738 85.712C251.178 85.712 251.568 85.806 251.908 85.994C252.248 86.182 252.514 86.46 252.706 86.828C252.902 87.192 253 87.63 253 88.142V92H252.04V88.238C252.04 87.706 251.902 87.292 251.626 86.996C251.35 86.7 250.97 86.552 250.486 86.552C250.142 86.552 249.838 86.628 249.574 86.78C249.31 86.932 249.104 87.146 248.956 87.422C248.812 87.694 248.74 88.006 248.74 88.358V92H247.78V85.856ZM255.157 83.6H256.399L259.411 90.332L259.567 90.758L259.717 90.332L262.675 83.6H263.941V92H262.945V85.208L259.975 92H259.141L256.147 85.244V92H255.157V83.6ZM268.45 85.712C268.914 85.712 269.322 85.798 269.674 85.97C270.026 86.138 270.298 86.386 270.49 86.714C270.686 87.038 270.784 87.424 270.784 87.872V92H269.848V90.998C269.676 91.37 269.424 91.654 269.092 91.85C268.76 92.046 268.366 92.144 267.91 92.144C267.518 92.144 267.164 92.068 266.848 91.916C266.532 91.764 266.284 91.554 266.104 91.286C265.924 91.018 265.834 90.714 265.834 90.374C265.834 90.054 265.916 89.76 266.08 89.492C266.248 89.22 266.478 88.998 266.77 88.826C267.066 88.654 267.398 88.548 267.766 88.508L269.404 88.328C269.54 88.312 269.646 88.256 269.722 88.16C269.798 88.064 269.836 87.924 269.836 87.74C269.836 87.496 269.778 87.282 269.662 87.098C269.546 86.914 269.382 86.772 269.17 86.672C268.962 86.568 268.72 86.516 268.444 86.516C268.168 86.516 267.92 86.564 267.7 86.66C267.48 86.752 267.302 86.878 267.166 87.038C267.034 87.194 266.954 87.364 266.926 87.548H265.966C266.014 87.2 266.15 86.888 266.374 86.612C266.602 86.332 266.896 86.112 267.256 85.952C267.616 85.792 268.014 85.712 268.45 85.712ZM266.83 90.32C266.83 90.528 266.884 90.712 266.992 90.872C267.104 91.032 267.258 91.158 267.454 91.25C267.65 91.338 267.874 91.382 268.126 91.382C268.47 91.382 268.77 91.312 269.026 91.172C269.286 91.032 269.486 90.836 269.626 90.584C269.766 90.328 269.836 90.034 269.836 89.702V89L267.898 89.216C267.578 89.252 267.32 89.372 267.124 89.576C266.928 89.78 266.83 90.028 266.83 90.32ZM272.706 85.856H273.666V92H272.706V85.856ZM273.75 83.6V84.74H272.622V83.6H273.75ZM275.765 85.856H276.689V86.852C276.897 86.484 277.173 86.202 277.517 86.006C277.865 85.81 278.267 85.712 278.723 85.712C279.163 85.712 279.553 85.806 279.893 85.994C280.233 86.182 280.499 86.46 280.691 86.828C280.887 87.192 280.985 87.63 280.985 88.142V92H280.025V88.238C280.025 87.706 279.887 87.292 279.611 86.996C279.335 86.7 278.955 86.552 278.471 86.552C278.127 86.552 277.823 86.628 277.559 86.78C277.295 86.932 277.089 87.146 276.941 87.422C276.797 87.694 276.725 88.006 276.725 88.358V92H275.765V85.856Z" fill="white"/>
<rect x="345" y="64" width="112" height="24" rx="12" fill="#F2F2F2"/>
<path d="M388.924 78.07H390.352C390.588 78.07 390.796 78.02 390.976 77.92C391.16 77.82 391.302 77.68 391.402 77.5C391.502 77.316 391.552 77.106 391.552 76.87V70.6H392.548V76.93C392.548 77.334 392.458 77.694 392.278 78.01C392.098 78.322 391.846 78.566 391.522 78.742C391.198 78.914 390.828 79 390.412 79H388.924V78.07ZM394.033 70.6H395.125L397.783 77.71L400.345 70.6H401.449L398.263 79H397.243L394.033 70.6ZM402.999 70.6H404.241L407.253 77.332L407.409 77.758L407.559 77.332L410.517 70.6H411.783V79H410.787V72.208L407.817 79H406.983L403.989 72.244V79H402.999V70.6Z" fill="black"/>
<path d="M463 76C463 69.3726 468.373 64 475 64H577C583.627 64 589 69.3726 589 76C589 82.6274 583.627 88 577 88H475C468.373 88 463 82.6274 463 76Z" fill="#F2F2F2"/>
<path d="M502.783 71.6H503.743V80H502.783V71.6ZM505.842 73.856H506.802V80H505.842V73.856ZM506.886 71.6V72.74H505.758V71.6H506.886ZM508.9 73.856H509.824V74.852C510.032 74.484 510.308 74.202 510.652 74.006C511 73.81 511.402 73.712 511.858 73.712C512.298 73.712 512.688 73.806 513.028 73.994C513.368 74.182 513.634 74.46 513.826 74.828C514.022 75.192 514.12 75.63 514.12 76.142V80H513.16V76.238C513.16 75.706 513.022 75.292 512.746 74.996C512.47 74.7 512.09 74.552 511.606 74.552C511.262 74.552 510.958 74.628 510.694 74.78C510.43 74.932 510.224 75.146 510.076 75.422C509.932 75.694 509.86 76.006 509.86 76.358V80H508.9V73.856ZM521.077 80H520.153V79.004C519.945 79.372 519.667 79.654 519.319 79.85C518.975 80.046 518.575 80.144 518.119 80.144C517.679 80.144 517.289 80.05 516.949 79.862C516.609 79.674 516.341 79.398 516.145 79.034C515.953 78.666 515.857 78.226 515.857 77.714V73.856H516.817V77.618C516.817 78.15 516.955 78.564 517.231 78.86C517.507 79.156 517.887 79.304 518.371 79.304C518.715 79.304 519.019 79.228 519.283 79.076C519.547 78.924 519.751 78.712 519.895 78.44C520.043 78.164 520.117 77.85 520.117 77.498V73.856H521.077V80ZM525.136 77.606L523.498 80H522.406L524.632 76.832L522.514 73.856H523.63L525.184 76.088L526.708 73.856H527.8L525.694 76.862L527.914 80H526.798L525.136 77.606ZM531.5 75.734L528.704 71.6H529.868L531.842 74.612L532.1 74.978L532.514 74.36L534.344 71.6H535.484L532.664 75.71L535.604 80H534.44L532.322 76.856L532.052 76.466L531.602 77.144L529.724 80H528.584L531.5 75.734ZM540.061 80.144C539.401 80.144 538.823 79.974 538.327 79.634C537.835 79.29 537.455 78.804 537.187 78.176C536.919 77.544 536.785 76.806 536.785 75.962C536.785 75.054 536.923 74.26 537.199 73.58C537.475 72.896 537.861 72.372 538.357 72.008C538.853 71.64 539.421 71.456 540.061 71.456C540.689 71.456 541.259 71.598 541.771 71.882C542.287 72.166 542.663 72.616 542.899 73.232H541.903C541.759 72.98 541.525 72.772 541.201 72.608C540.881 72.44 540.519 72.356 540.115 72.356C539.671 72.356 539.271 72.48 538.915 72.728C538.563 72.976 538.281 73.368 538.069 73.904C537.857 74.436 537.749 75.11 537.745 75.926C537.933 75.45 538.251 75.072 538.699 74.792C539.151 74.512 539.679 74.372 540.283 74.372C540.823 74.372 541.309 74.498 541.741 74.75C542.177 74.998 542.517 75.342 542.761 75.782C543.009 76.222 543.133 76.714 543.133 77.258C543.133 77.802 542.999 78.294 542.731 78.734C542.467 79.174 542.101 79.52 541.633 79.772C541.165 80.02 540.641 80.144 540.061 80.144ZM538.045 77.252C538.045 77.632 538.133 77.974 538.309 78.278C538.485 78.578 538.729 78.814 539.041 78.986C539.357 79.158 539.711 79.244 540.103 79.244C540.483 79.244 540.825 79.16 541.129 78.992C541.433 78.82 541.671 78.584 541.843 78.284C542.015 77.98 542.101 77.64 542.101 77.264C542.101 76.884 542.013 76.542 541.837 76.238C541.661 75.93 541.417 75.688 541.105 75.512C540.797 75.336 540.449 75.248 540.061 75.248C539.677 75.248 539.331 75.336 539.023 75.512C538.719 75.684 538.479 75.924 538.303 76.232C538.131 76.536 538.045 76.876 538.045 77.252ZM548.29 77.93H544.03V77.03L548.284 71.6H549.274V77.03H550.582V77.93H549.274V80H548.29V77.93ZM548.29 77.03V72.884L545.062 77.03H548.29Z" fill="black"/>
<rect x="345" y="92" width="112" height="24" rx="12" fill="#F2F2F2"/>
<path d="M394.971 107.07H396.399C396.635 107.07 396.843 107.02 397.023 106.92C397.207 106.82 397.349 106.68 397.449 106.5C397.549 106.316 397.599 106.106 397.599 105.87V99.6H398.595V105.93C398.595 106.334 398.505 106.694 398.325 107.01C398.145 107.322 397.893 107.566 397.569 107.742C397.245 107.914 396.875 108 396.459 108H394.971V107.07ZM403.41 108.144C402.834 108.144 402.324 108.038 401.88 107.826C401.44 107.614 401.096 107.318 400.848 106.938C400.604 106.558 400.482 106.122 400.482 105.63H401.502C401.502 105.946 401.582 106.226 401.742 106.47C401.902 106.714 402.128 106.904 402.42 107.04C402.712 107.176 403.046 107.244 403.422 107.244C403.794 107.244 404.12 107.182 404.4 107.058C404.684 106.93 404.902 106.752 405.054 106.524C405.21 106.292 405.288 106.026 405.288 105.726C405.288 105.346 405.174 105.02 404.946 104.748C404.722 104.476 404.422 104.308 404.046 104.244L402.69 104.01C402.282 103.938 401.928 103.796 401.628 103.584C401.328 103.372 401.098 103.108 400.938 102.792C400.778 102.476 400.698 102.132 400.698 101.76C400.698 101.324 400.812 100.932 401.04 100.584C401.272 100.232 401.592 99.956 402 99.756C402.412 99.556 402.874 99.456 403.386 99.456C403.914 99.456 404.384 99.556 404.796 99.756C405.208 99.952 405.528 100.226 405.756 100.578C405.984 100.93 406.098 101.332 406.098 101.784H405.078C405.078 101.508 405.008 101.262 404.868 101.046C404.728 100.826 404.53 100.656 404.274 100.536C404.022 100.416 403.73 100.356 403.398 100.356C403.066 100.356 402.772 100.414 402.516 100.53C402.26 100.646 402.06 100.81 401.916 101.022C401.776 101.234 401.706 101.48 401.706 101.76C401.706 102.092 401.812 102.378 402.024 102.618C402.24 102.858 402.522 103.008 402.87 103.068L404.25 103.308C404.65 103.38 405.006 103.534 405.318 103.77C405.63 104.006 405.872 104.296 406.044 104.64C406.216 104.98 406.302 105.338 406.302 105.714C406.302 106.166 406.18 106.578 405.936 106.95C405.692 107.318 405.35 107.61 404.91 107.826C404.47 108.038 403.97 108.144 403.41 108.144Z" fill="black"/>
<rect x="140.35" y="58.35" width="452.3" height="60.3" rx="14.65" stroke="#595959" stroke-width="0.7"/>
<path d="M429 224C429 217.373 434.373 212 441 212H532C538.627 212 544 217.373 544 224V253C544 259.627 538.627 265 532 265H441C434.373 265 429 259.627 429 253V224Z" fill="url(#paint1_radial_1506_207)"/>
<path d="M448.843 232.6H449.803V241H448.843V232.6ZM451.902 234.856H452.862V241H451.902V234.856ZM452.946 232.6V233.74H451.818V232.6H452.946ZM454.96 234.856H455.884V235.852C456.092 235.484 456.368 235.202 456.712 235.006C457.06 234.81 457.462 234.712 457.918 234.712C458.358 234.712 458.748 234.806 459.088 234.994C459.428 235.182 459.694 235.46 459.886 235.828C460.082 236.192 460.18 236.63 460.18 237.142V241H459.22V237.238C459.22 236.706 459.082 236.292 458.806 235.996C458.53 235.7 458.15 235.552 457.666 235.552C457.322 235.552 457.018 235.628 456.754 235.78C456.49 235.932 456.284 236.146 456.136 236.422C455.992 236.694 455.92 237.006 455.92 237.358V241H454.96V234.856ZM467.137 241H466.213V240.004C466.005 240.372 465.727 240.654 465.379 240.85C465.035 241.046 464.635 241.144 464.179 241.144C463.739 241.144 463.349 241.05 463.009 240.862C462.669 240.674 462.401 240.398 462.205 240.034C462.013 239.666 461.917 239.226 461.917 238.714V234.856H462.877V238.618C462.877 239.15 463.015 239.564 463.291 239.86C463.567 240.156 463.947 240.304 464.431 240.304C464.775 240.304 465.079 240.228 465.343 240.076C465.607 239.924 465.811 239.712 465.955 239.44C466.103 239.164 466.177 238.85 466.177 238.498V234.856H467.137V241ZM471.196 238.606L469.558 241H468.466L470.692 237.832L468.574 234.856H469.69L471.244 237.088L472.768 234.856H473.86L471.754 237.862L473.974 241H472.858L471.196 238.606ZM477.56 236.734L474.764 232.6H475.928L477.902 235.612L478.16 235.978L478.574 235.36L480.404 232.6H481.544L478.724 236.71L481.664 241H480.5L478.382 237.856L478.112 237.466L477.662 238.144L475.784 241H474.644L477.56 236.734ZM486.121 241.144C485.461 241.144 484.883 240.974 484.387 240.634C483.895 240.29 483.515 239.804 483.247 239.176C482.979 238.544 482.845 237.806 482.845 236.962C482.845 236.054 482.983 235.26 483.259 234.58C483.535 233.896 483.921 233.372 484.417 233.008C484.913 232.64 485.481 232.456 486.121 232.456C486.749 232.456 487.319 232.598 487.831 232.882C488.347 233.166 488.723 233.616 488.959 234.232H487.963C487.819 233.98 487.585 233.772 487.261 233.608C486.941 233.44 486.579 233.356 486.175 233.356C485.731 233.356 485.331 233.48 484.975 233.728C484.623 233.976 484.341 234.368 484.129 234.904C483.917 235.436 483.809 236.11 483.805 236.926C483.993 236.45 484.311 236.072 484.759 235.792C485.211 235.512 485.739 235.372 486.343 235.372C486.883 235.372 487.369 235.498 487.801 235.75C488.237 235.998 488.577 236.342 488.821 236.782C489.069 237.222 489.193 237.714 489.193 238.258C489.193 238.802 489.059 239.294 488.791 239.734C488.527 240.174 488.161 240.52 487.693 240.772C487.225 241.02 486.701 241.144 486.121 241.144ZM484.105 238.252C484.105 238.632 484.193 238.974 484.369 239.278C484.545 239.578 484.789 239.814 485.101 239.986C485.417 240.158 485.771 240.244 486.163 240.244C486.543 240.244 486.885 240.16 487.189 239.992C487.493 239.82 487.731 239.584 487.903 239.284C488.075 238.98 488.161 238.64 488.161 238.264C488.161 237.884 488.073 237.542 487.897 237.238C487.721 236.93 487.477 236.688 487.165 236.512C486.857 236.336 486.509 236.248 486.121 236.248C485.737 236.248 485.391 236.336 485.083 236.512C484.779 236.684 484.539 236.924 484.363 237.232C484.191 237.536 484.105 237.876 484.105 238.252ZM494.35 238.93H490.09V238.03L494.344 232.6H495.334V238.03H496.642V238.93H495.334V241H494.35V238.93ZM494.35 238.03V233.884L491.122 238.03H494.35ZM498.513 232.6H499.755L502.767 239.332L502.923 239.758L503.073 239.332L506.031 232.6H507.297V241H506.301V234.208L503.331 241H502.497L499.503 234.244V241H498.513V232.6ZM511.806 234.712C512.27 234.712 512.678 234.798 513.03 234.97C513.382 235.138 513.654 235.386 513.846 235.714C514.042 236.038 514.14 236.424 514.14 236.872V241H513.204V239.998C513.032 240.37 512.78 240.654 512.448 240.85C512.116 241.046 511.722 241.144 511.266 241.144C510.874 241.144 510.52 241.068 510.204 240.916C509.888 240.764 509.64 240.554 509.46 240.286C509.28 240.018 509.19 239.714 509.19 239.374C509.19 239.054 509.272 238.76 509.436 238.492C509.604 238.22 509.834 237.998 510.126 237.826C510.422 237.654 510.754 237.548 511.122 237.508L512.76 237.328C512.896 237.312 513.002 237.256 513.078 237.16C513.154 237.064 513.192 236.924 513.192 236.74C513.192 236.496 513.134 236.282 513.018 236.098C512.902 235.914 512.738 235.772 512.526 235.672C512.318 235.568 512.076 235.516 511.8 235.516C511.524 235.516 511.276 235.564 511.056 235.66C510.836 235.752 510.658 235.878 510.522 236.038C510.39 236.194 510.31 236.364 510.282 236.548H509.322C509.37 236.2 509.506 235.888 509.73 235.612C509.958 235.332 510.252 235.112 510.612 234.952C510.972 234.792 511.37 234.712 511.806 234.712ZM510.186 239.32C510.186 239.528 510.24 239.712 510.348 239.872C510.46 240.032 510.614 240.158 510.81 240.25C511.006 240.338 511.23 240.382 511.482 240.382C511.826 240.382 512.126 240.312 512.382 240.172C512.642 240.032 512.842 239.836 512.982 239.584C513.122 239.328 513.192 239.034 513.192 238.702V238L511.254 238.216C510.934 238.252 510.676 238.372 510.48 238.576C510.284 238.78 510.186 239.028 510.186 239.32ZM516.062 234.856H517.022V241H516.062V234.856ZM517.106 232.6V233.74H515.978V232.6H517.106ZM519.12 234.856H520.044V235.852C520.252 235.484 520.528 235.202 520.872 235.006C521.22 234.81 521.622 234.712 522.078 234.712C522.518 234.712 522.908 234.806 523.248 234.994C523.588 235.182 523.854 235.46 524.046 235.828C524.242 236.192 524.34 236.63 524.34 237.142V241H523.38V237.238C523.38 236.706 523.242 236.292 522.966 235.996C522.69 235.7 522.31 235.552 521.826 235.552C521.482 235.552 521.178 235.628 520.914 235.78C520.65 235.932 520.444 236.146 520.296 236.422C520.152 236.694 520.08 237.006 520.08 237.358V241H519.12V234.856Z" fill="white"/>
<rect x="547" y="212" width="112" height="24" rx="12" fill="#F2F2F2"/>
<path d="M579.113 220.6H580.073V229H579.113V220.6ZM582.172 222.856H583.132V229H582.172V222.856ZM583.216 220.6V221.74H582.088V220.6H583.216ZM585.23 222.856H586.154V223.852C586.362 223.484 586.638 223.202 586.982 223.006C587.33 222.81 587.732 222.712 588.188 222.712C588.628 222.712 589.018 222.806 589.358 222.994C589.698 223.182 589.964 223.46 590.156 223.828C590.352 224.192 590.45 224.63 590.45 225.142V229H589.49V225.238C589.49 224.706 589.352 224.292 589.076 223.996C588.8 223.7 588.42 223.552 587.936 223.552C587.592 223.552 587.288 223.628 587.024 223.78C586.76 223.932 586.554 224.146 586.406 224.422C586.262 224.694 586.19 225.006 586.19 225.358V229H585.23V222.856ZM597.407 229H596.483V228.004C596.275 228.372 595.997 228.654 595.649 228.85C595.305 229.046 594.905 229.144 594.449 229.144C594.009 229.144 593.619 229.05 593.279 228.862C592.939 228.674 592.671 228.398 592.475 228.034C592.283 227.666 592.187 227.226 592.187 226.714V222.856H593.147V226.618C593.147 227.15 593.285 227.564 593.561 227.86C593.837 228.156 594.217 228.304 594.701 228.304C595.045 228.304 595.349 228.228 595.613 228.076C595.877 227.924 596.081 227.712 596.225 227.44C596.373 227.164 596.447 226.85 596.447 226.498V222.856H597.407V229ZM601.466 226.606L599.828 229H598.736L600.962 225.832L598.844 222.856H599.96L601.514 225.088L603.038 222.856H604.13L602.024 225.862L604.244 229H603.128L601.466 226.606ZM607.83 224.734L605.034 220.6H606.198L608.172 223.612L608.43 223.978L608.844 223.36L610.674 220.6H611.814L608.994 224.71L611.934 229H610.77L608.652 225.856L608.382 225.466L607.932 226.144L606.054 229H604.914L607.83 224.734ZM616.391 229.144C615.731 229.144 615.153 228.974 614.657 228.634C614.165 228.29 613.785 227.804 613.517 227.176C613.249 226.544 613.115 225.806 613.115 224.962C613.115 224.054 613.253 223.26 613.529 222.58C613.805 221.896 614.191 221.372 614.687 221.008C615.183 220.64 615.751 220.456 616.391 220.456C617.019 220.456 617.589 220.598 618.101 220.882C618.617 221.166 618.993 221.616 619.229 222.232H618.233C618.089 221.98 617.855 221.772 617.531 221.608C617.211 221.44 616.849 221.356 616.445 221.356C616.001 221.356 615.601 221.48 615.245 221.728C614.893 221.976 614.611 222.368 614.399 222.904C614.187 223.436 614.079 224.11 614.075 224.926C614.263 224.45 614.581 224.072 615.029 223.792C615.481 223.512 616.009 223.372 616.613 223.372C617.153 223.372 617.639 223.498 618.071 223.75C618.507 223.998 618.847 224.342 619.091 224.782C619.339 225.222 619.463 225.714 619.463 226.258C619.463 226.802 619.329 227.294 619.061 227.734C618.797 228.174 618.431 228.52 617.963 228.772C617.495 229.02 616.971 229.144 616.391 229.144ZM614.375 226.252C614.375 226.632 614.463 226.974 614.639 227.278C614.815 227.578 615.059 227.814 615.371 227.986C615.687 228.158 616.041 228.244 616.433 228.244C616.813 228.244 617.155 228.16 617.459 227.992C617.763 227.82 618.001 227.584 618.173 227.284C618.345 226.98 618.431 226.64 618.431 226.264C618.431 225.884 618.343 225.542 618.167 225.238C617.991 224.93 617.747 224.688 617.435 224.512C617.127 224.336 616.779 224.248 616.391 224.248C616.007 224.248 615.661 224.336 615.353 224.512C615.049 224.684 614.809 224.924 614.633 225.232C614.461 225.536 614.375 225.876 614.375 226.252ZM624.62 226.93H620.36V226.03L624.614 220.6H625.604V226.03H626.912V226.93H625.604V229H624.62V226.93ZM624.62 226.03V221.884L621.392 226.03H624.62Z" fill="black"/>
<rect x="425.35" y="209.35" width="237.3" height="58.3" rx="14.65" stroke="#595959" stroke-width="0.7"/>
<path d="M251 342C251 335.373 256.373 330 263 330H354C360.627 330 366 335.373 366 342V371C366 377.627 360.627 383 354 383H263C256.373 383 251 377.627 251 371V342Z" fill="url(#paint2_radial_1506_207)"/>
<path d="M289.606 363.008H290.134C290.33 363.008 290.488 362.946 290.608 362.822C290.732 362.702 290.794 362.544 290.794 362.348V355.856H291.754V362.42C291.754 362.712 291.688 362.972 291.556 363.2C291.424 363.428 291.24 363.604 291.004 363.728C290.768 363.856 290.498 363.92 290.194 363.92H289.606V363.008ZM291.838 353.6V354.74H290.71V353.6H291.838ZM295.795 362.144C295.331 362.144 294.911 362.07 294.535 361.922C294.163 361.774 293.865 361.568 293.641 361.304C293.421 361.036 293.303 360.734 293.287 360.398H294.265C294.281 360.582 294.357 360.748 294.493 360.896C294.629 361.04 294.809 361.154 295.033 361.238C295.257 361.322 295.507 361.364 295.783 361.364C296.063 361.364 296.309 361.318 296.521 361.226C296.737 361.134 296.903 361.006 297.019 360.842C297.139 360.678 297.199 360.492 297.199 360.284C297.199 360.06 297.135 359.872 297.007 359.72C296.883 359.564 296.709 359.466 296.485 359.426L295.003 359.156C294.531 359.068 294.163 358.878 293.899 358.586C293.635 358.29 293.503 357.916 293.503 357.464C293.503 357.14 293.595 356.846 293.779 356.582C293.967 356.314 294.229 356.102 294.565 355.946C294.901 355.79 295.285 355.712 295.717 355.712C296.145 355.712 296.531 355.782 296.875 355.922C297.219 356.062 297.493 356.256 297.697 356.504C297.901 356.752 298.011 357.028 298.027 357.332H297.049C297.037 357.172 296.971 357.028 296.851 356.9C296.735 356.772 296.579 356.672 296.383 356.6C296.187 356.528 295.967 356.492 295.723 356.492C295.475 356.492 295.255 356.534 295.063 356.618C294.871 356.702 294.721 356.818 294.613 356.966C294.509 357.11 294.457 357.274 294.457 357.458C294.457 357.666 294.515 357.838 294.631 357.974C294.747 358.11 294.917 358.198 295.141 358.238L296.659 358.508C296.971 358.564 297.239 358.674 297.463 358.838C297.691 359.002 297.863 359.206 297.979 359.45C298.099 359.694 298.159 359.96 298.159 360.248C298.159 360.608 298.055 360.932 297.847 361.22C297.643 361.508 297.361 361.734 297.001 361.898C296.641 362.062 296.239 362.144 295.795 362.144ZM300.018 353.6H301.26L304.272 360.332L304.428 360.758L304.578 360.332L307.536 353.6H308.802V362H307.806V355.208L304.836 362H304.002L301.008 355.244V362H300.018V353.6ZM313.312 355.712C313.776 355.712 314.184 355.798 314.536 355.97C314.888 356.138 315.16 356.386 315.352 356.714C315.548 357.038 315.646 357.424 315.646 357.872V362H314.71V360.998C314.538 361.37 314.286 361.654 313.954 361.85C313.622 362.046 313.228 362.144 312.772 362.144C312.38 362.144 312.026 362.068 311.71 361.916C311.394 361.764 311.146 361.554 310.966 361.286C310.786 361.018 310.696 360.714 310.696 360.374C310.696 360.054 310.778 359.76 310.942 359.492C311.11 359.22 311.34 358.998 311.632 358.826C311.928 358.654 312.26 358.548 312.628 358.508L314.266 358.328C314.402 358.312 314.508 358.256 314.584 358.16C314.66 358.064 314.698 357.924 314.698 357.74C314.698 357.496 314.64 357.282 314.524 357.098C314.408 356.914 314.244 356.772 314.032 356.672C313.824 356.568 313.582 356.516 313.306 356.516C313.03 356.516 312.782 356.564 312.562 356.66C312.342 356.752 312.164 356.878 312.028 357.038C311.896 357.194 311.816 357.364 311.788 357.548H310.828C310.876 357.2 311.012 356.888 311.236 356.612C311.464 356.332 311.758 356.112 312.118 355.952C312.478 355.792 312.876 355.712 313.312 355.712ZM311.692 360.32C311.692 360.528 311.746 360.712 311.854 360.872C311.966 361.032 312.12 361.158 312.316 361.25C312.512 361.338 312.736 361.382 312.988 361.382C313.332 361.382 313.632 361.312 313.888 361.172C314.148 361.032 314.348 360.836 314.488 360.584C314.628 360.328 314.698 360.034 314.698 359.702V359L312.76 359.216C312.44 359.252 312.182 359.372 311.986 359.576C311.79 359.78 311.692 360.028 311.692 360.32ZM317.568 355.856H318.528V362H317.568V355.856ZM318.612 353.6V354.74H317.484V353.6H318.612ZM320.626 355.856H321.55V356.852C321.758 356.484 322.034 356.202 322.378 356.006C322.726 355.81 323.128 355.712 323.584 355.712C324.024 355.712 324.414 355.806 324.754 355.994C325.094 356.182 325.36 356.46 325.552 356.828C325.748 357.192 325.846 357.63 325.846 358.142V362H324.886V358.238C324.886 357.706 324.748 357.292 324.472 356.996C324.196 356.7 323.816 356.552 323.332 356.552C322.988 356.552 322.684 356.628 322.42 356.78C322.156 356.932 321.95 357.146 321.802 357.422C321.658 357.694 321.586 358.006 321.586 358.358V362H320.626V355.856Z" fill="white"/>
<path d="M370 342C370 335.373 375.373 330 382 330H470C476.627 330 482 335.373 482 342C482 348.627 476.627 354 470 354H382C375.373 354 370 348.627 370 342Z" fill="#F2F2F2"/>
<path d="M422.569 345.07H423.997C424.233 345.07 424.441 345.02 424.621 344.92C424.805 344.82 424.947 344.68 425.047 344.5C425.147 344.316 425.197 344.106 425.197 343.87V337.6H426.193V343.93C426.193 344.334 426.103 344.694 425.923 345.01C425.743 345.322 425.491 345.566 425.167 345.742C424.843 345.914 424.473 346 424.057 346H422.569V345.07ZM431.008 346.144C430.432 346.144 429.922 346.038 429.478 345.826C429.038 345.614 428.694 345.318 428.446 344.938C428.202 344.558 428.08 344.122 428.08 343.63H429.1C429.1 343.946 429.18 344.226 429.34 344.47C429.5 344.714 429.726 344.904 430.018 345.04C430.31 345.176 430.644 345.244 431.02 345.244C431.392 345.244 431.718 345.182 431.998 345.058C432.282 344.93 432.5 344.752 432.652 344.524C432.808 344.292 432.886 344.026 432.886 343.726C432.886 343.346 432.772 343.02 432.544 342.748C432.32 342.476 432.02 342.308 431.644 342.244L430.288 342.01C429.88 341.938 429.526 341.796 429.226 341.584C428.926 341.372 428.696 341.108 428.536 340.792C428.376 340.476 428.296 340.132 428.296 339.76C428.296 339.324 428.41 338.932 428.638 338.584C428.87 338.232 429.19 337.956 429.598 337.756C430.01 337.556 430.472 337.456 430.984 337.456C431.512 337.456 431.982 337.556 432.394 337.756C432.806 337.952 433.126 338.226 433.354 338.578C433.582 338.93 433.696 339.332 433.696 339.784H432.676C432.676 339.508 432.606 339.262 432.466 339.046C432.326 338.826 432.128 338.656 431.872 338.536C431.62 338.416 431.328 338.356 430.996 338.356C430.664 338.356 430.37 338.414 430.114 338.53C429.858 338.646 429.658 338.81 429.514 339.022C429.374 339.234 429.304 339.48 429.304 339.76C429.304 340.092 429.41 340.378 429.622 340.618C429.838 340.858 430.12 341.008 430.468 341.068L431.848 341.308C432.248 341.38 432.604 341.534 432.916 341.77C433.228 342.006 433.47 342.296 433.642 342.64C433.814 342.98 433.9 343.338 433.9 343.714C433.9 344.166 433.778 344.578 433.534 344.95C433.29 345.318 432.948 345.61 432.508 345.826C432.068 346.038 431.568 346.144 431.008 346.144Z" fill="black"/>
<rect x="247.35" y="327.35" width="237.3" height="58.3" rx="14.65" stroke="#595959" stroke-width="0.7"/>
<rect x="49.0405" y="212" width="104.823" height="53" rx="12" fill="url(#paint3_radial_1506_207)"/>
<path d="M79.2131 242.008H79.7411C79.9371 242.008 80.0951 241.946 80.2151 241.822C80.3391 241.702 80.4011 241.544 80.4011 241.348V234.856H81.3611V241.42C81.3611 241.712 81.2951 241.972 81.1631 242.2C81.0311 242.428 80.8471 242.604 80.6111 242.728C80.3751 242.856 80.1051 242.92 79.8011 242.92H79.2131V242.008ZM81.4451 232.6V233.74H80.3171V232.6H81.4451ZM82.5762 234.856H83.6202L85.4922 239.716L87.3042 234.856H88.3242L85.9062 241H85.0062L82.5762 234.856ZM89.6203 234.856H90.5443V235.894C90.7283 235.514 90.9823 235.222 91.3063 235.018C91.6343 234.814 92.0183 234.712 92.4583 234.712C92.9183 234.712 93.3183 234.822 93.6583 235.042C93.9983 235.262 94.2523 235.572 94.4203 235.972C94.6163 235.572 94.8903 235.262 95.2423 235.042C95.5943 234.822 96.0003 234.712 96.4603 234.712C96.8963 234.712 97.2823 234.812 97.6183 235.012C97.9583 235.208 98.2223 235.488 98.4103 235.852C98.5983 236.216 98.6923 236.64 98.6923 237.124V241H97.7323V237.166C97.7323 236.658 97.6043 236.258 97.3483 235.966C97.0963 235.674 96.7403 235.528 96.2803 235.528C95.9523 235.528 95.6643 235.604 95.4163 235.756C95.1683 235.904 94.9763 236.116 94.8403 236.392C94.7043 236.664 94.6363 236.986 94.6363 237.358V241H93.6763V237.166C93.6763 236.658 93.5483 236.258 93.2923 235.966C93.0403 235.674 92.6843 235.528 92.2243 235.528C91.8923 235.528 91.6023 235.602 91.3543 235.75C91.1063 235.898 90.9143 236.11 90.7783 236.386C90.6463 236.662 90.5803 236.986 90.5803 237.358V241H89.6203V234.856ZM100.853 232.6H102.095L105.107 239.332L105.263 239.758L105.413 239.332L108.371 232.6H109.637V241H108.641V234.208L105.671 241H104.837L101.843 234.244V241H100.853V232.6ZM114.146 234.712C114.61 234.712 115.018 234.798 115.37 234.97C115.722 235.138 115.994 235.386 116.186 235.714C116.382 236.038 116.48 236.424 116.48 236.872V241H115.544V239.998C115.372 240.37 115.12 240.654 114.788 240.85C114.456 241.046 114.062 241.144 113.606 241.144C113.214 241.144 112.86 241.068 112.544 240.916C112.228 240.764 111.98 240.554 111.8 240.286C111.62 240.018 111.53 239.714 111.53 239.374C111.53 239.054 111.612 238.76 111.776 238.492C111.944 238.22 112.174 237.998 112.466 237.826C112.762 237.654 113.094 237.548 113.462 237.508L115.1 237.328C115.236 237.312 115.342 237.256 115.418 237.16C115.494 237.064 115.532 236.924 115.532 236.74C115.532 236.496 115.474 236.282 115.358 236.098C115.242 235.914 115.078 235.772 114.866 235.672C114.658 235.568 114.416 235.516 114.14 235.516C113.864 235.516 113.616 235.564 113.396 235.66C113.176 235.752 112.998 235.878 112.862 236.038C112.73 236.194 112.65 236.364 112.622 236.548H111.662C111.71 236.2 111.846 235.888 112.07 235.612C112.298 235.332 112.592 235.112 112.952 234.952C113.312 234.792 113.71 234.712 114.146 234.712ZM112.526 239.32C112.526 239.528 112.58 239.712 112.688 239.872C112.8 240.032 112.954 240.158 113.15 240.25C113.346 240.338 113.57 240.382 113.822 240.382C114.166 240.382 114.466 240.312 114.722 240.172C114.982 240.032 115.182 239.836 115.322 239.584C115.462 239.328 115.532 239.034 115.532 238.702V238L113.594 238.216C113.274 238.252 113.016 238.372 112.82 238.576C112.624 238.78 112.526 239.028 112.526 239.32ZM118.402 234.856H119.362V241H118.402V234.856ZM119.446 232.6V233.74H118.318V232.6H119.446ZM121.46 234.856H122.384V235.852C122.592 235.484 122.868 235.202 123.212 235.006C123.56 234.81 123.962 234.712 124.418 234.712C124.858 234.712 125.248 234.806 125.588 234.994C125.928 235.182 126.194 235.46 126.386 235.828C126.582 236.192 126.68 236.63 126.68 237.142V241H125.72V237.238C125.72 236.706 125.582 236.292 125.306 235.996C125.03 235.7 124.65 235.552 124.166 235.552C123.822 235.552 123.518 235.628 123.254 235.78C122.99 235.932 122.784 236.146 122.636 236.422C122.492 236.694 122.42 237.006 122.42 237.358V241H121.46V234.856Z" fill="white"/>
<rect x="167" y="212" width="112" height="24" rx="12" fill="#F2F2F2"/>
<path d="M209.924 227.07H211.352C211.588 227.07 211.796 227.02 211.976 226.92C212.16 226.82 212.302 226.68 212.402 226.5C212.502 226.316 212.552 226.106 212.552 225.87V219.6H213.548V225.93C213.548 226.334 213.458 226.694 213.278 227.01C213.098 227.322 212.846 227.566 212.522 227.742C212.198 227.914 211.828 228 211.412 228H209.924V227.07ZM215.033 219.6H216.125L218.783 226.71L221.345 219.6H222.449L219.263 228H218.243L215.033 219.6ZM223.999 219.6H225.241L228.253 226.332L228.409 226.758L228.559 226.332L231.517 219.6H232.783V228H231.787V221.208L228.817 228H227.983L224.989 221.244V228H223.999V219.6Z" fill="black"/>
<rect x="45.35" y="209.35" width="237.3" height="58.3" rx="14.65" stroke="#595959" stroke-width="0.7"/>
<rect x="51" y="330" width="109" height="53" rx="12" fill="url(#paint4_radial_1506_207)"/>
<path d="M64.926 363.008H65.454C65.65 363.008 65.808 362.946 65.928 362.822C66.052 362.702 66.114 362.544 66.114 362.348V355.856H67.074V362.42C67.074 362.712 67.008 362.972 66.876 363.2C66.744 363.428 66.56 363.604 66.324 363.728C66.088 363.856 65.818 363.92 65.514 363.92H64.926V363.008ZM67.158 353.6V354.74H66.03V353.6H67.158ZM68.2891 355.856H69.3331L71.2051 360.716L73.0171 355.856H74.0371L71.6191 362H70.7191L68.2891 355.856ZM75.3332 355.856H76.2572V356.894C76.4412 356.514 76.6952 356.222 77.0192 356.018C77.3472 355.814 77.7312 355.712 78.1712 355.712C78.6312 355.712 79.0312 355.822 79.3712 356.042C79.7112 356.262 79.9652 356.572 80.1332 356.972C80.3292 356.572 80.6032 356.262 80.9552 356.042C81.3072 355.822 81.7132 355.712 82.1732 355.712C82.6092 355.712 82.9952 355.812 83.3312 356.012C83.6712 356.208 83.9352 356.488 84.1232 356.852C84.3112 357.216 84.4052 357.64 84.4052 358.124V362H83.4452V358.166C83.4452 357.658 83.3172 357.258 83.0612 356.966C82.8092 356.674 82.4532 356.528 81.9932 356.528C81.6652 356.528 81.3772 356.604 81.1292 356.756C80.8812 356.904 80.6892 357.116 80.5532 357.392C80.4172 357.664 80.3492 357.986 80.3492 358.358V362H79.3892V358.166C79.3892 357.658 79.2612 357.258 79.0052 356.966C78.7532 356.674 78.3972 356.528 77.9372 356.528C77.6052 356.528 77.3152 356.602 77.0672 356.75C76.8192 356.898 76.6272 357.11 76.4912 357.386C76.3592 357.662 76.2932 357.986 76.2932 358.358V362H75.3332V355.856ZM88.6474 353.6H89.7214L92.9494 362H91.8934L91.0834 359.768H87.3694L86.6134 362H85.5334L88.6474 353.6ZM90.7594 358.904L89.3254 354.998L89.1814 354.488L89.0374 354.998L87.6754 358.904H90.7594ZM94.259 355.856H95.183V356.852C95.391 356.484 95.667 356.202 96.011 356.006C96.359 355.81 96.761 355.712 97.217 355.712C97.657 355.712 98.047 355.806 98.387 355.994C98.727 356.182 98.993 356.46 99.185 356.828C99.381 357.192 99.479 357.63 99.479 358.142V362H98.519V358.238C98.519 357.706 98.381 357.292 98.105 356.996C97.829 356.7 97.449 356.552 96.965 356.552C96.621 356.552 96.317 356.628 96.053 356.78C95.789 356.932 95.583 357.146 95.435 357.422C95.291 357.694 95.219 358.006 95.219 358.358V362H94.259V355.856ZM106.064 360.98C105.832 361.352 105.522 361.64 105.134 361.844C104.75 362.044 104.312 362.144 103.82 362.144C103.248 362.144 102.738 362.01 102.29 361.742C101.846 361.47 101.498 361.09 101.246 360.602C100.998 360.114 100.874 359.556 100.874 358.928C100.874 358.3 100.998 357.742 101.246 357.254C101.498 356.766 101.846 356.388 102.29 356.12C102.738 355.848 103.248 355.712 103.82 355.712C104.312 355.712 104.75 355.814 105.134 356.018C105.522 356.218 105.832 356.504 106.064 356.876V353.6H107.024V362H106.064V360.98ZM101.882 358.928C101.882 359.388 101.97 359.796 102.146 360.152C102.322 360.504 102.568 360.78 102.884 360.98C103.2 361.176 103.562 361.274 103.97 361.274C104.346 361.274 104.684 361.192 104.984 361.028C105.288 360.86 105.532 360.626 105.716 360.326C105.904 360.022 106.02 359.67 106.064 359.27V358.586C106.02 358.186 105.904 357.836 105.716 357.536C105.532 357.232 105.288 356.998 104.984 356.834C104.684 356.666 104.346 356.582 103.97 356.582C103.562 356.582 103.2 356.682 102.884 356.882C102.568 357.078 102.322 357.354 102.146 357.71C101.97 358.062 101.882 358.468 101.882 358.928ZM107.986 361.07H109.414C109.65 361.07 109.858 361.02 110.038 360.92C110.222 360.82 110.364 360.68 110.464 360.5C110.564 360.316 110.614 360.106 110.614 359.87V353.6H111.61V359.93C111.61 360.334 111.52 360.694 111.34 361.01C111.16 361.322 110.908 361.566 110.584 361.742C110.26 361.914 109.89 362 109.474 362H107.986V361.07ZM115.916 362.144C115.452 362.144 115.032 362.07 114.656 361.922C114.284 361.774 113.986 361.568 113.762 361.304C113.542 361.036 113.424 360.734 113.408 360.398H114.386C114.402 360.582 114.478 360.748 114.614 360.896C114.75 361.04 114.93 361.154 115.154 361.238C115.378 361.322 115.628 361.364 115.904 361.364C116.184 361.364 116.43 361.318 116.642 361.226C116.858 361.134 117.024 361.006 117.14 360.842C117.26 360.678 117.32 360.492 117.32 360.284C117.32 360.06 117.256 359.872 117.128 359.72C117.004 359.564 116.83 359.466 116.606 359.426L115.124 359.156C114.652 359.068 114.284 358.878 114.02 358.586C113.756 358.29 113.624 357.916 113.624 357.464C113.624 357.14 113.716 356.846 113.9 356.582C114.088 356.314 114.35 356.102 114.686 355.946C115.022 355.79 115.406 355.712 115.838 355.712C116.266 355.712 116.652 355.782 116.996 355.922C117.34 356.062 117.614 356.256 117.818 356.504C118.022 356.752 118.132 357.028 118.148 357.332H117.17C117.158 357.172 117.092 357.028 116.972 356.9C116.856 356.772 116.7 356.672 116.504 356.6C116.308 356.528 116.088 356.492 115.844 356.492C115.596 356.492 115.376 356.534 115.184 356.618C114.992 356.702 114.842 356.818 114.734 356.966C114.63 357.11 114.578 357.274 114.578 357.458C114.578 357.666 114.636 357.838 114.752 357.974C114.868 358.11 115.038 358.198 115.262 358.238L116.78 358.508C117.092 358.564 117.36 358.674 117.584 358.838C117.812 359.002 117.984 359.206 118.1 359.45C118.22 359.694 118.28 359.96 118.28 360.248C118.28 360.608 118.176 360.932 117.968 361.22C117.764 361.508 117.482 361.734 117.122 361.898C116.762 362.062 116.36 362.144 115.916 362.144ZM120.14 353.6H121.382L124.394 360.332L124.55 360.758L124.7 360.332L127.658 353.6H128.924V362H127.928V355.208L124.958 362H124.124L121.13 355.244V362H120.14V353.6ZM133.433 355.712C133.897 355.712 134.305 355.798 134.657 355.97C135.009 356.138 135.281 356.386 135.473 356.714C135.669 357.038 135.767 357.424 135.767 357.872V362H134.831V360.998C134.659 361.37 134.407 361.654 134.075 361.85C133.743 362.046 133.349 362.144 132.893 362.144C132.501 362.144 132.147 362.068 131.831 361.916C131.515 361.764 131.267 361.554 131.087 361.286C130.907 361.018 130.817 360.714 130.817 360.374C130.817 360.054 130.899 359.76 131.063 359.492C131.231 359.22 131.461 358.998 131.753 358.826C132.049 358.654 132.381 358.548 132.749 358.508L134.387 358.328C134.523 358.312 134.629 358.256 134.705 358.16C134.781 358.064 134.819 357.924 134.819 357.74C134.819 357.496 134.761 357.282 134.645 357.098C134.529 356.914 134.365 356.772 134.153 356.672C133.945 356.568 133.703 356.516 133.427 356.516C133.151 356.516 132.903 356.564 132.683 356.66C132.463 356.752 132.285 356.878 132.149 357.038C132.017 357.194 131.937 357.364 131.909 357.548H130.949C130.997 357.2 131.133 356.888 131.357 356.612C131.585 356.332 131.879 356.112 132.239 355.952C132.599 355.792 132.997 355.712 133.433 355.712ZM131.813 360.32C131.813 360.528 131.867 360.712 131.975 360.872C132.087 361.032 132.241 361.158 132.437 361.25C132.633 361.338 132.857 361.382 133.109 361.382C133.453 361.382 133.753 361.312 134.009 361.172C134.269 361.032 134.469 360.836 134.609 360.584C134.749 360.328 134.819 360.034 134.819 359.702V359L132.881 359.216C132.561 359.252 132.303 359.372 132.107 359.576C131.911 359.78 131.813 360.028 131.813 360.32ZM137.689 355.856H138.649V362H137.689V355.856ZM138.733 353.6V354.74H137.605V353.6H138.733ZM140.747 355.856H141.671V356.852C141.879 356.484 142.155 356.202 142.499 356.006C142.847 355.81 143.249 355.712 143.705 355.712C144.145 355.712 144.535 355.806 144.875 355.994C145.215 356.182 145.481 356.46 145.673 356.828C145.869 357.192 145.967 357.63 145.967 358.142V362H145.007V358.238C145.007 357.706 144.869 357.292 144.593 356.996C144.317 356.7 143.937 356.552 143.453 356.552C143.109 356.552 142.805 356.628 142.541 356.78C142.277 356.932 142.071 357.146 141.923 357.422C141.779 357.694 141.707 358.006 141.707 358.358V362H140.747V355.856Z" fill="white"/>
<rect x="47.35" y="327.35" width="115.3" height="58.3" rx="14.65" stroke="#595959" stroke-width="0.7"/>
<path d="M367 127L369.021 130.5L364.979 130.5L367 127ZM366.65 327L366.65 130.15L367.35 130.15L367.35 327L366.65 327Z" fill="black"/>
<defs>
<radialGradient id="paint0_radial_1506_207" cx="0" cy="0" r="1" gradientUnits="userSpaceOnUse" gradientTransform="translate(143.449 115.799) scale(192.038 196.159)">
<stop stop-color="#EB4857"/>
<stop offset="0.5" stop-color="#C611E0"/>
<stop offset="1" stop-color="#7F52FF"/>
</radialGradient>
<radialGradient id="paint1_radial_1506_207" cx="0" cy="0" r="1" gradientUnits="userSpaceOnUse" gradientTransform="translate(428.678 265.799) scale(112.103 196.159)">
<stop stop-color="#EB4857"/>
<stop offset="0.5" stop-color="#C611E0"/>
<stop offset="1" stop-color="#7F52FF"/>
</radialGradient>
<radialGradient id="paint2_radial_1506_207" cx="0" cy="0" r="1" gradientUnits="userSpaceOnUse" gradientTransform="translate(250.678 383.799) scale(112.103 196.159)">
<stop stop-color="#EB4857"/>
<stop offset="0.5" stop-color="#C611E0"/>
<stop offset="1" stop-color="#7F52FF"/>
</radialGradient>
<radialGradient id="paint3_radial_1506_207" cx="0" cy="0" r="1" gradientUnits="userSpaceOnUse" gradientTransform="translate(48.7472 265.799) scale(102.183 196.159)">
<stop stop-color="#EB4857"/>
<stop offset="0.5" stop-color="#C611E0"/>
<stop offset="1" stop-color="#7F52FF"/>
</radialGradient>
<radialGradient id="paint4_radial_1506_207" cx="0" cy="0" r="1" gradientUnits="userSpaceOnUse" gradientTransform="translate(50.6949 383.799) scale(106.254 196.159)">
<stop stop-color="#EB4857"/>
<stop offset="0.5" stop-color="#C611E0"/>
<stop offset="1" stop-color="#7F52FF"/>
</radialGradient>
</defs>
</svg>
