<?xml version="1.0" encoding="utf-8"?>
<!-- Generator: Adobe Illustrator 27.5.0, SVG Export Plug-In . SVG Version: 6.00 Build 0)  -->
<svg version="1.1" id="Layer_1" xmlns="http://www.w3.org/2000/svg" xmlns:xlink="http://www.w3.org/1999/xlink" x="0px" y="0px"
	 viewBox="0 0 700 395" style="enable-background:new 0 0 700 395;" xml:space="preserve">
<style type="text/css">
	.st0{fill:#FFFFFF;}
	.st1{fill:none;stroke:#000000;stroke-width:0.5469;stroke-miterlimit:10;}
	.st2{fill:#F2F2F2;}
	.st3{fill:none;stroke:#595959;stroke-width:0.5469;stroke-miterlimit:10;}
	.st4{fill:url(#SVGID_1_);}
	.st5{fill:url(#SVGID_00000144329001007939662950000001677750951229799829_);}
	.st6{fill:url(#SVGID_00000159430076486465720430000013562601667218625153_);}
	.st7{fill:#595959;}
	.st8{fill:url(#SVGID_00000135675797958844422460000006532915310608299430_);}
	.st9{fill:url(#SVGID_00000080172314553985630860000016363292394611118219_);}
	.st10{fill:url(#SVGID_00000010304019580911155470000017671789574255557005_);}
	.st11{fill:url(#SVGID_00000150793205690470509870000000702581407086972844_);}
	.st12{fill:url(#SVGID_00000016064380815606123660000007664878892846185134_);}
	.st13{fill:url(#SVGID_00000072959566891215600540000016285294069753946009_);}
	.st14{fill:url(#SVGID_00000093873158872195891800000003632086021687241644_);}
	.st15{fill:url(#SVGID_00000054251659353972213180000009388045584460208793_);}
	.st16{fill:url(#SVGID_00000132785766784959205890000018387694481475192220_);}
	.st17{fill:url(#SVGID_00000081620600127183474810000003887214500814652833_);}
	.st18{fill:url(#SVGID_00000110455798866529069550000017186059283128563641_);}
	.st19{fill:url(#SVGID_00000010282657000009067550000002333757816289429152_);}
	.st20{fill:url(#SVGID_00000174596006565410212300000011449592258820980108_);}
	.st21{fill:url(#SVGID_00000049197823723970437580000010958668385882697604_);}
	.st22{fill:url(#SVGID_00000003799763658482403700000004126200214484439471_);}
	.st23{fill:url(#SVGID_00000051371341786257013830000005436741874695999412_);}
	.st24{fill:url(#SVGID_00000141418687929829812490000007888293788027271574_);}
	.st25{fill:url(#SVGID_00000015317947701395014810000012113844460250126475_);}
	.st26{fill:url(#SVGID_00000167390317856150406390000015009673405736427696_);}
	.st27{fill:url(#SVGID_00000153667161541523482380000009530150088570875008_);}
	.st28{fill:url(#SVGID_00000008831127782371621850000008111405732455895217_);}
	.st29{fill:url(#SVGID_00000114783902219553929700000003267328844411611819_);}
	.st30{fill:url(#SVGID_00000147927820145916697640000003036062096696816772_);}
	.st31{fill:url(#SVGID_00000134240449235740907980000004035734418412351373_);}
	.st32{fill:url(#SVGID_00000004548014143415594950000001950747992028869016_);}
	.st33{fill:url(#SVGID_00000163034758583373481550000000818794706559457181_);}
	.st34{fill:url(#SVGID_00000117647361063418737800000016262838002311109781_);}
	.st35{fill:url(#SVGID_00000091735033166273377640000017625740250661223076_);}
	.st36{fill:url(#SVGID_00000022529565530992861650000015521093527297755802_);}
	.st37{fill:url(#SVGID_00000153680679442823197980000012668307211835374010_);}
	.st38{fill:url(#SVGID_00000030465776966764739590000013710752241129036729_);}
	.st39{fill:url(#SVGID_00000162330346137181074740000013935789038648326077_);}
	.st40{fill:url(#SVGID_00000026153063631011593210000011270811773057079949_);}
	.st41{fill:#7F52FF;}
	.st42{opacity:0.35;}
	.st43{fill:url(#SVGID_00000181083580302650024690000003170899375993896380_);}
	.st44{fill:none;stroke:#000000;stroke-width:0.4423;stroke-miterlimit:10;}
</style>
<g>
	<rect x="0" class="st0" width="700" height="395"/>
	<g>
		<g>
			<g>
				<g>
					<path class="st1" d="M342.6,150.39l0,42.33c0,8.05-6.53,14.58-14.58,14.58H176.2c-8.05,0-14.58,6.53-14.58,14.58v32.69"/>
					<g>
						<polygon points="158.89,253.78 161.62,258.5 164.35,253.78 						"/>
					</g>
				</g>
				<g>
					<g>
						<g>
							<path class="st2" d="M234.46,264.04l-145.68,0c-6.04,0-10.94,4.9-10.94,10.94v24.26c0,6.04,4.9,10.94,10.94,10.94l145.68,0
								c6.04,0,10.94-4.9,10.94-10.94v-24.26C245.4,268.94,240.5,264.04,234.46,264.04z"/>
						</g>
					</g>
					<g>
						<g>
							<path d="M118.3,290.48h1.52c0.25,0,0.47-0.05,0.67-0.16c0.19-0.11,0.34-0.26,0.45-0.45c0.11-0.19,0.16-0.42,0.16-0.67v-6.67
								h1.06v6.73c0,0.43-0.1,0.81-0.29,1.15c-0.19,0.33-0.46,0.59-0.8,0.78c-0.34,0.19-0.74,0.28-1.18,0.28h-1.58V290.48z"/>
							<path d="M123.73,282.53h1.16l2.83,7.56l2.72-7.56h1.17l-3.39,8.93h-1.08L123.73,282.53z"/>
							<path d="M133.26,282.53h1.32l3.2,7.16l0.17,0.45l0.16-0.45l3.15-7.16h1.35v8.93h-1.06v-7.06v-0.17l-3.16,7.22h-0.89
								l-3.18-7.18v0.13v7.06h-1.05V282.53z"/>
							<path d="M149.36,290.06v1.4h-1.4v-1.4H149.36z"/>
							<path d="M152.14,291.17c-0.5-0.3-0.89-0.71-1.17-1.23c-0.28-0.52-0.42-1.1-0.42-1.74c0-0.64,0.14-1.22,0.42-1.74
								s0.67-0.93,1.17-1.23c0.5-0.3,1.05-0.45,1.67-0.45c0.52,0,0.99,0.09,1.41,0.26c0.42,0.18,0.76,0.44,1.04,0.79
								c0.28,0.35,0.46,0.78,0.57,1.29h-1.02c-0.09-0.31-0.24-0.58-0.44-0.79s-0.43-0.37-0.7-0.48c-0.27-0.1-0.55-0.16-0.85-0.16
								c-0.42,0-0.8,0.11-1.13,0.32s-0.59,0.51-0.78,0.89c-0.19,0.38-0.28,0.81-0.28,1.29c0,0.48,0.09,0.9,0.28,1.28
								c0.19,0.38,0.45,0.68,0.78,0.89c0.33,0.21,0.71,0.32,1.13,0.32c0.3,0,0.59-0.05,0.85-0.16c0.27-0.1,0.5-0.26,0.7-0.48
								c0.2-0.21,0.35-0.48,0.44-0.79h1.02c-0.1,0.49-0.29,0.92-0.57,1.27c-0.29,0.35-0.64,0.62-1.06,0.8
								c-0.42,0.18-0.88,0.27-1.38,0.27C153.2,291.62,152.64,291.47,152.14,291.17z"/>
							<path d="M158.49,282.53h1.02v8.93h-1.02V282.53z"/>
							<path d="M165.35,285.05c0.37,0.18,0.66,0.44,0.87,0.79c0.21,0.35,0.31,0.76,0.31,1.23v4.39h-1v-2.44h0.27
								c0,0.54-0.09,1.01-0.28,1.4c-0.19,0.39-0.46,0.69-0.8,0.89c-0.35,0.2-0.76,0.31-1.24,0.31c-0.42,0-0.79-0.08-1.13-0.24
								s-0.6-0.38-0.79-0.67c-0.19-0.28-0.29-0.61-0.29-0.97c0-0.34,0.09-0.65,0.26-0.94c0.18-0.29,0.42-0.52,0.73-0.7
								c0.31-0.18,0.67-0.3,1.06-0.34l1.74-0.19c0.14-0.02,0.26-0.08,0.34-0.18c0.08-0.1,0.12-0.25,0.12-0.45l0.08,1.34l-2.14,0.24
								c-0.22,0.03-0.42,0.09-0.59,0.2c-0.17,0.11-0.31,0.24-0.4,0.41c-0.1,0.17-0.14,0.36-0.14,0.56c0,0.22,0.06,0.42,0.18,0.59
								c0.12,0.17,0.28,0.3,0.49,0.4c0.21,0.1,0.45,0.14,0.71,0.14c0.37,0,0.69-0.07,0.96-0.22c0.27-0.15,0.49-0.36,0.63-0.63
								c0.15-0.27,0.22-0.58,0.22-0.93v-2.08c0-0.26-0.06-0.49-0.18-0.69c-0.12-0.2-0.3-0.35-0.52-0.46
								c-0.22-0.11-0.48-0.16-0.77-0.16c-0.29,0-0.56,0.05-0.79,0.15c-0.23,0.1-0.42,0.23-0.56,0.4c-0.14,0.17-0.23,0.35-0.26,0.55
								h-1.02c0.05-0.37,0.2-0.7,0.44-1c0.24-0.3,0.55-0.53,0.93-0.7c0.38-0.17,0.81-0.26,1.27-0.26
								C164.54,284.78,164.98,284.87,165.35,285.05z"/>
							<path d="M169.39,291.38c-0.4-0.16-0.71-0.38-0.95-0.66c-0.24-0.28-0.36-0.6-0.38-0.96h1.04c0.02,0.2,0.1,0.37,0.24,0.53
								c0.14,0.16,0.34,0.28,0.57,0.37c0.24,0.09,0.5,0.13,0.8,0.13c0.3,0,0.56-0.05,0.79-0.15s0.4-0.23,0.53-0.41
								c0.13-0.17,0.19-0.37,0.19-0.59c0-0.16-0.03-0.3-0.09-0.43s-0.15-0.23-0.26-0.32c-0.11-0.08-0.25-0.14-0.41-0.17l-1.58-0.29
								c-0.33-0.06-0.62-0.17-0.86-0.33s-0.42-0.37-0.55-0.62c-0.12-0.25-0.19-0.53-0.19-0.85c0-0.34,0.1-0.66,0.3-0.94
								c0.2-0.28,0.48-0.51,0.83-0.67s0.77-0.25,1.22-0.25c0.46,0,0.87,0.07,1.23,0.22c0.37,0.15,0.66,0.36,0.87,0.62
								c0.22,0.26,0.33,0.56,0.35,0.88h-1.04c-0.01-0.17-0.08-0.32-0.21-0.46c-0.12-0.14-0.29-0.24-0.5-0.32
								c-0.21-0.08-0.44-0.11-0.7-0.11c-0.26,0-0.5,0.04-0.7,0.13s-0.36,0.21-0.47,0.37c-0.11,0.16-0.17,0.33-0.17,0.53
								c0,0.15,0.03,0.28,0.08,0.39s0.13,0.21,0.24,0.28c0.11,0.07,0.24,0.13,0.41,0.16l1.61,0.29c0.33,0.06,0.62,0.18,0.86,0.35
								c0.24,0.17,0.42,0.39,0.55,0.65c0.12,0.26,0.19,0.54,0.19,0.85c0,0.38-0.11,0.73-0.33,1.03c-0.22,0.31-0.52,0.55-0.9,0.72
								c-0.38,0.17-0.81,0.26-1.28,0.26C170.24,291.62,169.79,291.54,169.39,291.38z"/>
							<path d="M175.72,291.38c-0.4-0.16-0.71-0.38-0.95-0.66c-0.24-0.28-0.36-0.6-0.38-0.96h1.04c0.02,0.2,0.1,0.37,0.24,0.53
								s0.34,0.28,0.57,0.37s0.5,0.13,0.8,0.13c0.3,0,0.56-0.05,0.79-0.15s0.4-0.23,0.53-0.41c0.12-0.17,0.19-0.37,0.19-0.59
								c0-0.16-0.03-0.3-0.09-0.43s-0.15-0.23-0.26-0.32c-0.11-0.08-0.25-0.14-0.41-0.17l-1.58-0.29c-0.33-0.06-0.62-0.17-0.86-0.33
								s-0.42-0.37-0.55-0.62c-0.13-0.25-0.19-0.53-0.19-0.85c0-0.34,0.1-0.66,0.3-0.94c0.2-0.28,0.48-0.51,0.83-0.67
								c0.36-0.17,0.77-0.25,1.22-0.25c0.46,0,0.87,0.07,1.23,0.22c0.37,0.15,0.66,0.36,0.87,0.62c0.22,0.26,0.33,0.56,0.35,0.88
								h-1.04c-0.01-0.17-0.08-0.32-0.21-0.46c-0.13-0.14-0.29-0.24-0.5-0.32s-0.44-0.11-0.7-0.11c-0.26,0-0.5,0.04-0.7,0.13
								s-0.36,0.21-0.48,0.37c-0.11,0.16-0.17,0.33-0.17,0.53c0,0.15,0.03,0.28,0.08,0.39c0.05,0.11,0.13,0.21,0.24,0.28
								c0.11,0.07,0.24,0.13,0.41,0.16l1.61,0.29c0.33,0.06,0.62,0.18,0.86,0.35c0.24,0.17,0.42,0.39,0.55,0.65
								c0.13,0.26,0.19,0.54,0.19,0.85c0,0.38-0.11,0.73-0.33,1.03c-0.22,0.31-0.52,0.55-0.9,0.72c-0.38,0.17-0.81,0.26-1.28,0.26
								C176.57,291.62,176.12,291.54,175.72,291.38z"/>
							<path d="M181.81,285.84h-1.15v-0.91h1.15v-0.85c0-0.3,0.07-0.57,0.21-0.8c0.14-0.23,0.34-0.42,0.59-0.55s0.54-0.19,0.86-0.19
								h1.05v0.91h-0.98c-0.21,0-0.38,0.06-0.51,0.19s-0.19,0.3-0.19,0.51v0.79h1.62v0.91h-1.62v5.63h-1.02V285.84z"/>
							<path d="M185.73,285.84h-1.3v-0.91h2.32v6.53h-1.02V285.84z M185.66,282.53h1.2v1.21h-1.2V282.53z"/>
							<path d="M189,282.53h1.02v8.93H189V282.53z"/>
							<path d="M193.26,291.18c-0.49-0.29-0.87-0.7-1.15-1.22c-0.27-0.52-0.41-1.11-0.41-1.77c0-0.64,0.14-1.22,0.42-1.74
								c0.28-0.52,0.66-0.93,1.15-1.22c0.49-0.3,1.04-0.44,1.64-0.44c0.62,0,1.16,0.15,1.62,0.44s0.83,0.7,1.08,1.22
								s0.38,1.11,0.38,1.76v0.25h-5.28l0.01-0.28c0,0.49,0.1,0.93,0.3,1.32c0.19,0.39,0.46,0.69,0.8,0.91
								c0.34,0.22,0.72,0.33,1.15,0.33c0.29,0,0.55-0.04,0.79-0.11c0.24-0.07,0.46-0.17,0.64-0.31c0.18-0.13,0.32-0.29,0.42-0.47
								h1.02c-0.08,0.27-0.24,0.54-0.48,0.82c-0.24,0.27-0.58,0.5-1,0.68s-0.91,0.27-1.46,0.27
								C194.3,291.62,193.75,291.47,193.26,291.18z M192.71,287.61h4.26v0.58c0-0.5-0.08-0.94-0.24-1.32
								c-0.16-0.38-0.39-0.67-0.7-0.88c-0.31-0.21-0.68-0.31-1.11-0.31s-0.82,0.1-1.15,0.3s-0.59,0.49-0.77,0.86
								c-0.18,0.37-0.27,0.8-0.27,1.3L192.71,287.61z"/>
							<path d="M200.49,291.38c-0.4-0.16-0.71-0.38-0.95-0.66c-0.24-0.28-0.36-0.6-0.38-0.96h1.04c0.02,0.2,0.1,0.37,0.24,0.53
								s0.34,0.28,0.57,0.37s0.5,0.13,0.8,0.13c0.3,0,0.56-0.05,0.79-0.15s0.4-0.23,0.53-0.41c0.12-0.17,0.19-0.37,0.19-0.59
								c0-0.16-0.03-0.3-0.09-0.43s-0.15-0.23-0.26-0.32c-0.11-0.08-0.25-0.14-0.41-0.17l-1.58-0.29c-0.33-0.06-0.62-0.17-0.86-0.33
								s-0.42-0.37-0.55-0.62c-0.13-0.25-0.19-0.53-0.19-0.85c0-0.34,0.1-0.66,0.3-0.94c0.2-0.28,0.48-0.51,0.83-0.67
								c0.36-0.17,0.77-0.25,1.22-0.25c0.46,0,0.87,0.07,1.23,0.22c0.37,0.15,0.66,0.36,0.87,0.62c0.22,0.26,0.33,0.56,0.35,0.88
								h-1.04c-0.01-0.17-0.08-0.32-0.21-0.46c-0.13-0.14-0.29-0.24-0.5-0.32s-0.44-0.11-0.7-0.11c-0.26,0-0.5,0.04-0.7,0.13
								s-0.36,0.21-0.48,0.37c-0.11,0.16-0.17,0.33-0.17,0.53c0,0.15,0.03,0.28,0.08,0.39c0.05,0.11,0.13,0.21,0.24,0.28
								c0.11,0.07,0.24,0.13,0.41,0.16l1.61,0.29c0.33,0.06,0.62,0.18,0.86,0.35c0.24,0.17,0.42,0.39,0.55,0.65
								c0.13,0.26,0.19,0.54,0.19,0.85c0,0.38-0.11,0.73-0.33,1.03c-0.22,0.31-0.52,0.55-0.9,0.72c-0.38,0.17-0.81,0.26-1.28,0.26
								C201.33,291.62,200.89,291.54,200.49,291.38z"/>
						</g>
					</g>
				</g>
			</g>
			<g>
				<g>
					<path class="st1" d="M357.33,150.39l0,42.33c0,8.05,6.53,14.58,14.58,14.58h151.77c8.05,0,14.58,6.53,14.58,14.58v32.69"/>
					<g>
						<polygon points="535.54,253.78 538.27,258.5 540.99,253.78 						"/>
					</g>
				</g>
				<g>
					<g>
						<path class="st2" d="M611.22,264.04l-145.68,0c-6.04,0-10.94,4.9-10.94,10.94v24.26c0,6.04,4.9,10.94,10.94,10.94l145.68,0
							c6.04,0,10.94-4.9,10.94-10.94v-24.26C622.16,268.94,617.26,264.04,611.22,264.04z"/>
					</g>
					<g>
						<g>
							<path d="M482.61,274.44h1.12l4.8,7.25v-7.25h1.06v8.93h-1.14l-4.79-7.25v7.25h-1.06V274.44z"/>
							<path d="M495.69,276.95c0.37,0.18,0.66,0.44,0.87,0.79c0.21,0.35,0.31,0.76,0.31,1.23v4.39h-1v-2.44h0.27
								c0,0.54-0.09,1.01-0.28,1.4c-0.19,0.39-0.46,0.69-0.8,0.89c-0.35,0.2-0.76,0.31-1.24,0.31c-0.42,0-0.79-0.08-1.13-0.24
								s-0.6-0.38-0.79-0.67c-0.19-0.28-0.29-0.61-0.29-0.97c0-0.34,0.09-0.65,0.26-0.94c0.18-0.29,0.42-0.52,0.73-0.7
								c0.31-0.18,0.66-0.3,1.06-0.34l1.74-0.19c0.14-0.02,0.26-0.08,0.34-0.18c0.08-0.1,0.12-0.25,0.12-0.45l0.08,1.34l-2.14,0.24
								c-0.22,0.03-0.42,0.09-0.59,0.2c-0.17,0.11-0.31,0.24-0.4,0.41c-0.1,0.17-0.14,0.36-0.14,0.56c0,0.22,0.06,0.42,0.18,0.59
								c0.12,0.17,0.28,0.3,0.49,0.4c0.21,0.1,0.45,0.14,0.71,0.14c0.37,0,0.69-0.07,0.96-0.22c0.27-0.15,0.49-0.36,0.63-0.63
								c0.15-0.27,0.22-0.58,0.22-0.93v-2.08c0-0.26-0.06-0.49-0.18-0.69c-0.12-0.2-0.3-0.35-0.52-0.46
								c-0.22-0.11-0.48-0.16-0.78-0.16c-0.29,0-0.56,0.05-0.79,0.15c-0.23,0.1-0.42,0.23-0.56,0.4c-0.14,0.17-0.23,0.35-0.26,0.55
								h-1.02c0.05-0.37,0.2-0.7,0.44-1c0.24-0.3,0.55-0.53,0.93-0.7c0.38-0.17,0.81-0.26,1.27-0.26
								C494.88,276.68,495.31,276.77,495.69,276.95z"/>
							<path d="M500.16,283.17c-0.25-0.13-0.45-0.32-0.6-0.56c-0.14-0.24-0.22-0.5-0.22-0.79l-0.01-4.08h-1.15l0.01-0.91h0.71
								c0.16,0,0.29-0.05,0.39-0.15c0.1-0.1,0.15-0.23,0.15-0.39v-1.05h0.92v1.6h1.58l-0.01,0.91h-1.58l0.01,4.02
								c0,0.2,0.07,0.37,0.2,0.5c0.13,0.13,0.3,0.2,0.5,0.2h0.87v0.91h-0.93C500.7,283.37,500.41,283.3,500.16,283.17z"/>
							<path d="M504.82,274.44v1.21h-1.2v-1.21H504.82z M503.71,276.84h1.02v6.53h-1.02V276.84z"/>
							<path d="M506.12,276.84h1.11l1.99,5.17l1.93-5.17h1.08l-2.57,6.53h-0.96L506.12,276.84z"/>
							<path d="M514.49,283.08c-0.49-0.29-0.87-0.7-1.15-1.22c-0.27-0.52-0.41-1.11-0.41-1.77c0-0.64,0.14-1.22,0.42-1.74
								c0.28-0.52,0.66-0.93,1.15-1.22c0.49-0.3,1.04-0.44,1.64-0.44c0.62,0,1.16,0.15,1.62,0.44s0.83,0.7,1.08,1.22
								s0.38,1.11,0.38,1.76v0.25h-5.28l0.01-0.28c0,0.49,0.1,0.93,0.3,1.32c0.19,0.39,0.46,0.69,0.8,0.91
								c0.34,0.22,0.72,0.33,1.15,0.33c0.28,0,0.55-0.04,0.79-0.11c0.24-0.07,0.46-0.17,0.64-0.31c0.18-0.13,0.32-0.29,0.42-0.47
								h1.02c-0.08,0.27-0.24,0.54-0.48,0.82c-0.24,0.27-0.58,0.5-1,0.68s-0.91,0.27-1.46,0.27
								C515.53,283.52,514.98,283.38,514.49,283.08z M513.95,279.51h4.25v0.58c0-0.5-0.08-0.94-0.24-1.32s-0.39-0.67-0.7-0.88
								c-0.31-0.21-0.68-0.31-1.11-0.31c-0.43,0-0.82,0.1-1.15,0.3c-0.33,0.2-0.59,0.49-0.77,0.86c-0.18,0.37-0.27,0.8-0.27,1.3
								L513.95,279.51z"/>
							<path d="M524.68,283.08c-0.49-0.29-0.87-0.7-1.15-1.22c-0.27-0.52-0.41-1.11-0.41-1.77c0-0.64,0.14-1.22,0.42-1.74
								c0.28-0.52,0.66-0.93,1.15-1.22c0.49-0.3,1.04-0.44,1.64-0.44c0.62,0,1.16,0.15,1.62,0.44s0.83,0.7,1.08,1.22
								s0.38,1.11,0.38,1.76v0.25h-5.28l0.01-0.28c0,0.49,0.1,0.93,0.3,1.32c0.19,0.39,0.46,0.69,0.8,0.91
								c0.34,0.22,0.72,0.33,1.15,0.33c0.28,0,0.55-0.04,0.79-0.11c0.24-0.07,0.46-0.17,0.64-0.31c0.18-0.13,0.32-0.29,0.42-0.47
								h1.02c-0.08,0.27-0.24,0.54-0.48,0.82c-0.24,0.27-0.58,0.5-1,0.68s-0.91,0.27-1.46,0.27
								C525.72,283.52,525.17,283.38,524.68,283.08z M524.14,279.51h4.25v0.58c0-0.5-0.08-0.94-0.24-1.32s-0.39-0.67-0.7-0.88
								c-0.31-0.21-0.68-0.31-1.11-0.31c-0.43,0-0.82,0.1-1.15,0.3c-0.33,0.2-0.59,0.49-0.77,0.86c-0.18,0.37-0.27,0.8-0.27,1.3
								L524.14,279.51z"/>
							<path d="M532.69,279.7l0.18-0.22l1.81-2.65h1.16l-2.39,3.4l-0.28,0.34l-1.91,2.79h-1.16L532.69,279.7z M532.76,280.45
								l-0.13-0.26l-2.39-3.36h1.19l1.86,2.68l0.11,0.21l2.58,3.64h-1.19L532.76,280.45z"/>
							<path d="M538.23,283.08c-0.49-0.29-0.87-0.7-1.15-1.22c-0.27-0.52-0.41-1.11-0.41-1.77c0-0.64,0.14-1.22,0.42-1.74
								c0.28-0.52,0.66-0.93,1.15-1.22c0.49-0.3,1.04-0.44,1.64-0.44c0.62,0,1.16,0.15,1.62,0.44s0.83,0.7,1.08,1.22
								s0.38,1.11,0.38,1.76v0.25h-5.28l0.01-0.28c0,0.49,0.1,0.93,0.3,1.32c0.19,0.39,0.46,0.69,0.8,0.91
								c0.34,0.22,0.72,0.33,1.15,0.33c0.28,0,0.55-0.04,0.79-0.11c0.24-0.07,0.46-0.17,0.64-0.31c0.18-0.13,0.32-0.29,0.42-0.47
								h1.02c-0.08,0.27-0.24,0.54-0.48,0.82c-0.24,0.27-0.58,0.5-1,0.68s-0.91,0.27-1.46,0.27
								C539.27,283.52,538.72,283.38,538.23,283.08z M537.69,279.51h4.25v0.58c0-0.5-0.08-0.94-0.24-1.32s-0.39-0.67-0.7-0.88
								c-0.31-0.21-0.68-0.31-1.11-0.31c-0.43,0-0.82,0.1-1.15,0.3c-0.33,0.2-0.59,0.49-0.77,0.86c-0.18,0.37-0.27,0.8-0.27,1.3
								L537.69,279.51z"/>
							<path d="M545.68,283.08c-0.5-0.3-0.89-0.71-1.17-1.23c-0.28-0.52-0.42-1.1-0.42-1.74c0-0.64,0.14-1.22,0.42-1.74
								c0.28-0.52,0.67-0.93,1.17-1.23c0.5-0.3,1.05-0.45,1.67-0.45c0.52,0,0.99,0.09,1.41,0.26s0.76,0.44,1.04,0.79
								c0.28,0.35,0.47,0.78,0.57,1.29h-1.02c-0.09-0.31-0.24-0.58-0.44-0.79s-0.43-0.37-0.7-0.48c-0.27-0.1-0.55-0.16-0.85-0.16
								c-0.42,0-0.8,0.11-1.13,0.32s-0.59,0.51-0.78,0.89s-0.28,0.81-0.28,1.29c0,0.48,0.09,0.9,0.28,1.28
								c0.19,0.38,0.45,0.68,0.78,0.89c0.33,0.21,0.71,0.32,1.13,0.32c0.3,0,0.59-0.05,0.85-0.16c0.27-0.1,0.5-0.26,0.7-0.48
								c0.2-0.21,0.35-0.48,0.44-0.79h1.02c-0.1,0.49-0.29,0.92-0.57,1.27c-0.29,0.35-0.64,0.62-1.06,0.8s-0.88,0.27-1.38,0.27
								C546.74,283.52,546.18,283.37,545.68,283.08z"/>
							<path d="M557.39,283.37h-0.98v-2.83h0.41c0,0.6-0.1,1.13-0.31,1.58c-0.21,0.45-0.51,0.79-0.89,1.04
								c-0.39,0.24-0.84,0.36-1.37,0.36c-0.47,0-0.88-0.1-1.24-0.3c-0.36-0.2-0.65-0.49-0.85-0.88s-0.31-0.86-0.31-1.4v-4.1h1.02v4
								c0,0.38,0.07,0.7,0.2,0.97c0.13,0.27,0.33,0.47,0.57,0.61c0.25,0.14,0.54,0.21,0.88,0.21c0.37,0,0.69-0.08,0.97-0.24
								c0.28-0.16,0.5-0.39,0.65-0.68c0.15-0.29,0.23-0.62,0.23-1v-3.87h1.02V283.37z"/>
							<path d="M560.88,283.17c-0.25-0.13-0.45-0.32-0.6-0.56c-0.14-0.24-0.22-0.5-0.22-0.79l-0.01-4.08h-1.15l0.01-0.91h0.71
								c0.16,0,0.29-0.05,0.39-0.15c0.1-0.1,0.15-0.23,0.15-0.39v-1.05h0.92v1.6h1.58l-0.01,0.91h-1.58l0.01,4.02
								c0,0.2,0.07,0.37,0.2,0.5c0.13,0.13,0.3,0.2,0.5,0.2h0.87v0.91h-0.93C561.41,283.37,561.13,283.3,560.88,283.17z"/>
							<path d="M568.03,276.95c0.37,0.18,0.66,0.44,0.87,0.79c0.21,0.35,0.31,0.76,0.31,1.23v4.39h-1v-2.44h0.27
								c0,0.54-0.09,1.01-0.28,1.4c-0.19,0.39-0.46,0.69-0.8,0.89c-0.35,0.2-0.76,0.31-1.24,0.31c-0.42,0-0.79-0.08-1.13-0.24
								s-0.6-0.38-0.79-0.67c-0.19-0.28-0.29-0.61-0.29-0.97c0-0.34,0.09-0.65,0.26-0.94c0.18-0.29,0.42-0.52,0.73-0.7
								c0.31-0.18,0.66-0.3,1.06-0.34l1.74-0.19c0.14-0.02,0.26-0.08,0.34-0.18c0.08-0.1,0.12-0.25,0.12-0.45l0.08,1.34l-2.14,0.24
								c-0.22,0.03-0.42,0.09-0.59,0.2c-0.17,0.11-0.31,0.24-0.4,0.41c-0.1,0.17-0.14,0.36-0.14,0.56c0,0.22,0.06,0.42,0.18,0.59
								c0.12,0.17,0.28,0.3,0.49,0.4c0.21,0.1,0.45,0.14,0.71,0.14c0.37,0,0.69-0.07,0.96-0.22c0.27-0.15,0.49-0.36,0.63-0.63
								c0.15-0.27,0.22-0.58,0.22-0.93v-2.08c0-0.26-0.06-0.49-0.18-0.69c-0.12-0.2-0.3-0.35-0.52-0.46
								c-0.22-0.11-0.48-0.16-0.78-0.16c-0.29,0-0.56,0.05-0.79,0.15c-0.23,0.1-0.42,0.23-0.56,0.4c-0.14,0.17-0.23,0.35-0.26,0.55
								h-1.02c0.05-0.37,0.2-0.7,0.44-1c0.24-0.3,0.55-0.53,0.93-0.7c0.38-0.17,0.81-0.26,1.27-0.26
								C567.23,276.68,567.66,276.77,568.03,276.95z"/>
							<path d="M571.26,274.44h1.02v8.93h-1.02V274.44z M573.18,283.15c-0.43-0.25-0.76-0.6-1-1.05c-0.24-0.45-0.37-0.97-0.37-1.56
								h0.42v-0.88h-0.42c0.01-0.59,0.13-1.11,0.37-1.56s0.58-0.8,1-1.05c0.43-0.25,0.92-0.37,1.49-0.37c0.61,0,1.15,0.14,1.62,0.43
								c0.47,0.29,0.84,0.69,1.11,1.21c0.27,0.52,0.4,1.11,0.4,1.78c0,0.67-0.13,1.26-0.4,1.78c-0.27,0.52-0.64,0.92-1.11,1.21
								c-0.47,0.29-1.02,0.43-1.62,0.43C574.1,283.52,573.61,283.4,573.18,283.15z M575.66,282.28c0.34-0.21,0.6-0.5,0.79-0.88
								c0.19-0.38,0.28-0.81,0.28-1.3c0-0.49-0.09-0.92-0.28-1.3s-0.45-0.67-0.79-0.88c-0.34-0.21-0.72-0.32-1.15-0.32
								c-0.44,0-0.83,0.11-1.17,0.32c-0.34,0.21-0.6,0.5-0.79,0.88s-0.28,0.81-0.28,1.3c0,0.49,0.09,0.92,0.28,1.3
								c0.19,0.38,0.45,0.67,0.79,0.88c0.34,0.21,0.73,0.32,1.17,0.32C574.94,282.6,575.32,282.49,575.66,282.28z"/>
							<path d="M579.47,274.44h1.02v8.93h-1.02V274.44z"/>
							<path d="M583.73,283.08c-0.49-0.29-0.87-0.7-1.15-1.22c-0.27-0.52-0.41-1.11-0.41-1.77c0-0.64,0.14-1.22,0.42-1.74
								c0.28-0.52,0.66-0.93,1.15-1.22c0.49-0.3,1.04-0.44,1.64-0.44c0.62,0,1.16,0.15,1.62,0.44s0.83,0.7,1.08,1.22
								s0.38,1.11,0.38,1.76v0.25h-5.28l0.01-0.28c0,0.49,0.1,0.93,0.3,1.32c0.19,0.39,0.46,0.69,0.8,0.91
								c0.34,0.22,0.72,0.33,1.15,0.33c0.28,0,0.55-0.04,0.79-0.11c0.24-0.07,0.46-0.17,0.64-0.31c0.18-0.13,0.32-0.29,0.42-0.47
								h1.02c-0.08,0.27-0.24,0.54-0.48,0.82c-0.24,0.27-0.58,0.5-1,0.68s-0.91,0.27-1.46,0.27
								C584.77,283.52,584.22,283.38,583.73,283.08z M583.19,279.51h4.25v0.58c0-0.5-0.08-0.94-0.24-1.32s-0.39-0.67-0.7-0.88
								c-0.31-0.21-0.68-0.31-1.11-0.31c-0.43,0-0.82,0.1-1.15,0.3c-0.33,0.2-0.59,0.49-0.77,0.86c-0.18,0.37-0.27,0.8-0.27,1.3
								L583.19,279.51z"/>
							<path d="M590.96,283.29c-0.4-0.16-0.71-0.38-0.95-0.66c-0.24-0.28-0.36-0.6-0.38-0.96h1.04c0.02,0.2,0.1,0.37,0.24,0.53
								s0.34,0.28,0.57,0.37s0.5,0.13,0.8,0.13c0.3,0,0.56-0.05,0.79-0.15s0.4-0.23,0.53-0.41c0.12-0.17,0.19-0.37,0.19-0.59
								c0-0.16-0.03-0.3-0.09-0.43s-0.15-0.23-0.26-0.32c-0.11-0.08-0.25-0.14-0.41-0.17l-1.58-0.29c-0.33-0.06-0.62-0.17-0.86-0.33
								s-0.42-0.37-0.55-0.62c-0.13-0.25-0.19-0.53-0.19-0.85c0-0.34,0.1-0.66,0.3-0.94c0.2-0.28,0.47-0.51,0.83-0.67
								s0.77-0.25,1.23-0.25c0.46,0,0.87,0.07,1.23,0.22c0.37,0.15,0.66,0.36,0.87,0.62c0.22,0.26,0.33,0.56,0.35,0.88h-1.04
								c-0.01-0.17-0.08-0.32-0.21-0.46c-0.13-0.14-0.29-0.24-0.5-0.32c-0.21-0.08-0.44-0.11-0.7-0.11c-0.26,0-0.5,0.04-0.7,0.13
								c-0.21,0.09-0.36,0.21-0.48,0.37c-0.11,0.16-0.17,0.33-0.17,0.53c0,0.15,0.03,0.28,0.08,0.39c0.05,0.11,0.13,0.21,0.24,0.28
								c0.11,0.07,0.24,0.13,0.4,0.16l1.61,0.29c0.33,0.06,0.62,0.18,0.86,0.35c0.24,0.17,0.42,0.39,0.55,0.65
								c0.12,0.26,0.19,0.54,0.19,0.85c0,0.38-0.11,0.73-0.33,1.03c-0.22,0.31-0.52,0.55-0.9,0.72c-0.38,0.17-0.81,0.26-1.28,0.26
								C591.8,283.52,591.36,283.44,590.96,283.29z"/>
							<path d="M466.15,294.15H465v-0.91h1.15v-0.85c0-0.3,0.07-0.57,0.21-0.8c0.14-0.23,0.34-0.42,0.59-0.55s0.54-0.19,0.86-0.19
								h1.05v0.91h-0.98c-0.21,0-0.38,0.06-0.51,0.19c-0.13,0.13-0.2,0.3-0.2,0.51v0.79h1.62v0.91h-1.62v5.63h-1.02V294.15z"/>
							<path d="M471.29,299.49c-0.51-0.3-0.91-0.7-1.2-1.22c-0.29-0.52-0.44-1.1-0.44-1.75c0-0.65,0.15-1.23,0.44-1.75
								c0.29-0.52,0.69-0.93,1.2-1.22c0.51-0.3,1.08-0.44,1.7-0.44s1.18,0.15,1.69,0.44c0.51,0.3,0.91,0.7,1.2,1.22
								c0.29,0.52,0.44,1.1,0.44,1.75c0,0.65-0.15,1.24-0.44,1.75s-0.69,0.93-1.2,1.22c-0.51,0.3-1.07,0.44-1.7,0.44
								C472.36,299.93,471.79,299.78,471.29,299.49z M474.14,298.69c0.34-0.21,0.61-0.5,0.8-0.88c0.2-0.38,0.29-0.81,0.29-1.3
								c0-0.49-0.1-0.92-0.29-1.3c-0.2-0.38-0.46-0.67-0.81-0.88c-0.34-0.21-0.73-0.31-1.15-0.31c-0.43,0-0.81,0.1-1.16,0.31
								c-0.34,0.21-0.62,0.5-0.81,0.88c-0.2,0.38-0.3,0.81-0.3,1.3c0,0.49,0.1,0.92,0.3,1.3c0.2,0.38,0.47,0.67,0.82,0.88
								c0.35,0.21,0.73,0.31,1.16,0.31C473.42,299,473.8,298.89,474.14,298.69z"/>
							<path d="M477.99,293.24h1.02v2.19l-0.43,0.64c0.02-0.59,0.12-1.1,0.32-1.53c0.2-0.44,0.47-0.77,0.83-1
								c0.35-0.23,0.76-0.35,1.23-0.35h0.23v1.07h-0.27c-0.39,0-0.73,0.07-1.01,0.22c-0.29,0.15-0.51,0.36-0.67,0.63
								c-0.16,0.27-0.23,0.6-0.23,0.97v3.71h-1.02V293.24z"/>
							<path d="M486.62,299.38c-0.53-0.36-0.93-0.88-1.21-1.55c-0.29-0.67-0.43-1.45-0.43-2.35c0-0.97,0.15-1.81,0.44-2.54
								c0.29-0.73,0.7-1.28,1.23-1.67c0.53-0.39,1.13-0.58,1.81-0.58c0.43,0,0.84,0.06,1.23,0.19c0.39,0.12,0.74,0.33,1.06,0.61
								c0.31,0.28,0.56,0.65,0.73,1.09h-1.06c-0.1-0.17-0.24-0.33-0.43-0.47c-0.19-0.14-0.41-0.25-0.66-0.33
								c-0.25-0.08-0.52-0.12-0.81-0.12c-0.47,0-0.9,0.13-1.27,0.4c-0.38,0.26-0.68,0.68-0.9,1.25s-0.34,1.29-0.34,2.15
								c0.13-0.33,0.33-0.62,0.59-0.87c0.26-0.25,0.57-0.44,0.93-0.58c0.36-0.14,0.75-0.2,1.18-0.2c0.57,0,1.09,0.13,1.55,0.4
								c0.46,0.27,0.82,0.63,1.08,1.1s0.39,0.99,0.39,1.57c0,0.58-0.14,1.1-0.42,1.57c-0.28,0.47-0.67,0.83-1.17,1.1
								c-0.5,0.27-1.05,0.4-1.67,0.4C487.76,299.93,487.15,299.75,486.62,299.38z M489.6,298.7c0.32-0.18,0.58-0.43,0.76-0.75
								c0.18-0.32,0.27-0.68,0.27-1.08c0-0.4-0.09-0.77-0.28-1.09c-0.19-0.33-0.45-0.58-0.78-0.77c-0.33-0.19-0.7-0.28-1.11-0.28
								c-0.41,0-0.78,0.09-1.1,0.28c-0.33,0.19-0.58,0.44-0.77,0.77c-0.18,0.33-0.28,0.69-0.28,1.09c0,0.4,0.09,0.77,0.28,1.09
								c0.19,0.32,0.45,0.57,0.78,0.76c0.33,0.18,0.71,0.27,1.13,0.27C488.91,298.97,489.28,298.88,489.6,298.7z"/>
							<path d="M497.22,297.58h-4.53v-0.96l4.52-5.77h0.62l0.36,0.12l-4.4,5.65h3.43v-5.77h1.05v5.77h1.39v0.96h-1.39v2.2h-1.05
								V297.58z"/>
							<path d="M505.47,295.67v0.89h-4.28v-0.89H505.47z"/>
							<path d="M507.71,290.84h1.02v8.93h-1.02V290.84z M509.63,299.56c-0.43-0.25-0.76-0.6-1-1.05c-0.24-0.45-0.37-0.97-0.37-1.56
								h0.42v-0.88h-0.42c0.01-0.59,0.13-1.11,0.37-1.56s0.58-0.8,1-1.05c0.43-0.25,0.92-0.37,1.49-0.37c0.61,0,1.15,0.14,1.62,0.43
								c0.47,0.29,0.84,0.69,1.11,1.21c0.27,0.52,0.4,1.11,0.4,1.78c0,0.67-0.13,1.26-0.4,1.78c-0.27,0.52-0.64,0.92-1.11,1.21
								c-0.47,0.29-1.02,0.43-1.62,0.43C510.55,299.93,510.06,299.81,509.63,299.56z M512.11,298.69c0.34-0.21,0.6-0.5,0.79-0.88
								c0.19-0.38,0.28-0.81,0.28-1.3c0-0.49-0.09-0.92-0.28-1.3s-0.45-0.67-0.79-0.88c-0.34-0.21-0.72-0.32-1.15-0.32
								c-0.44,0-0.83,0.11-1.17,0.32c-0.34,0.21-0.6,0.5-0.79,0.88s-0.28,0.81-0.28,1.3c0,0.49,0.09,0.92,0.28,1.3
								c0.19,0.38,0.45,0.67,0.79,0.88c0.34,0.21,0.73,0.32,1.17,0.32C511.39,299,511.77,298.9,512.11,298.69z"/>
							<path d="M517.03,290.84v1.21h-1.2v-1.21H517.03z M515.92,293.24h1.02v6.53h-1.02V293.24z"/>
							<path d="M520.43,299.58c-0.25-0.13-0.45-0.32-0.6-0.56c-0.14-0.24-0.22-0.5-0.22-0.79l-0.01-4.08h-1.15l0.01-0.91h0.71
								c0.16,0,0.29-0.05,0.39-0.15c0.1-0.1,0.15-0.23,0.15-0.39v-1.05h0.92v1.6h1.58l-0.01,0.91h-1.58l0.01,4.02
								c0,0.2,0.07,0.37,0.2,0.5c0.13,0.13,0.3,0.2,0.5,0.2h0.87v0.91h-0.93C520.97,299.78,520.69,299.71,520.43,299.58z"/>
							<path d="M528.25,290.84v1.21h-1.2v-1.21H528.25z M527.14,293.24h1.02v6.53h-1.02V293.24z"/>
							<path d="M530.65,290.84h3.61c0.57,0,1.07,0.11,1.5,0.32c0.43,0.21,0.77,0.51,1,0.91s0.35,0.85,0.35,1.37
								s-0.12,0.98-0.36,1.37c-0.24,0.39-0.58,0.7-1.02,0.91c-0.44,0.21-0.95,0.32-1.53,0.32h-2.5v3.74h-1.06V290.84z
								 M535.18,294.85c0.26-0.13,0.46-0.32,0.61-0.56s0.21-0.53,0.21-0.85c0-0.32-0.07-0.61-0.21-0.85
								c-0.14-0.24-0.34-0.43-0.61-0.56c-0.26-0.13-0.57-0.19-0.92-0.19h-2.55v3.22h2.55C534.61,295.05,534.92,294.98,535.18,294.85
								z"/>
							<path d="M538.55,290.84h0.98v2.06v1.16v2h-0.41c0-0.6,0.1-1.13,0.31-1.58c0.21-0.45,0.51-0.79,0.89-1.04s0.84-0.36,1.37-0.36
								c0.47,0,0.88,0.1,1.24,0.3c0.36,0.2,0.65,0.49,0.85,0.88c0.21,0.39,0.31,0.86,0.31,1.4v4.1h-1.02v-4
								c0-0.38-0.07-0.7-0.2-0.97s-0.32-0.47-0.57-0.61c-0.25-0.14-0.54-0.21-0.88-0.21c-0.37,0-0.69,0.08-0.97,0.24
								c-0.28,0.16-0.5,0.39-0.65,0.68c-0.16,0.29-0.23,0.62-0.23,1v3.87h-1.02V290.84z"/>
							<path d="M547.22,299.49c-0.51-0.3-0.91-0.7-1.2-1.22c-0.29-0.52-0.44-1.1-0.44-1.75c0-0.65,0.15-1.23,0.44-1.75
								c0.29-0.52,0.69-0.93,1.2-1.22c0.51-0.3,1.08-0.44,1.7-0.44s1.18,0.15,1.69,0.44c0.51,0.3,0.91,0.7,1.2,1.22
								c0.29,0.52,0.44,1.1,0.44,1.75c0,0.65-0.15,1.24-0.44,1.75s-0.69,0.93-1.2,1.22c-0.51,0.3-1.07,0.44-1.7,0.44
								C548.3,299.93,547.73,299.78,547.22,299.49z M550.08,298.69c0.34-0.21,0.61-0.5,0.8-0.88c0.2-0.38,0.29-0.81,0.29-1.3
								c0-0.49-0.1-0.92-0.29-1.3c-0.2-0.38-0.46-0.67-0.81-0.88c-0.34-0.21-0.73-0.31-1.15-0.31c-0.43,0-0.81,0.1-1.16,0.31
								c-0.34,0.21-0.62,0.5-0.81,0.88c-0.2,0.38-0.3,0.81-0.3,1.3c0,0.49,0.1,0.92,0.3,1.3c0.2,0.38,0.47,0.67,0.82,0.88
								c0.35,0.21,0.73,0.31,1.16,0.31C549.36,299,549.74,298.89,550.08,298.69z"/>
							<path d="M553.92,293.24h0.98v2.83h-0.41c0-0.6,0.1-1.13,0.31-1.58c0.21-0.45,0.51-0.79,0.89-1.04s0.84-0.36,1.37-0.36
								c0.47,0,0.88,0.1,1.24,0.3c0.36,0.2,0.65,0.49,0.85,0.88c0.21,0.39,0.31,0.86,0.31,1.4v4.1h-1.02v-4
								c0-0.38-0.07-0.7-0.2-0.97s-0.32-0.47-0.57-0.61c-0.25-0.14-0.54-0.21-0.88-0.21c-0.37,0-0.69,0.08-0.97,0.24
								c-0.28,0.16-0.5,0.39-0.65,0.68c-0.16,0.29-0.23,0.62-0.23,1v3.87h-1.02V293.24z"/>
							<path d="M562.52,299.49c-0.49-0.29-0.87-0.7-1.15-1.22c-0.27-0.52-0.41-1.11-0.41-1.77c0-0.64,0.14-1.22,0.42-1.74
								c0.28-0.52,0.66-0.93,1.15-1.22c0.49-0.3,1.04-0.44,1.64-0.44c0.62,0,1.16,0.15,1.62,0.44s0.83,0.7,1.08,1.22
								s0.38,1.11,0.38,1.76v0.25h-5.28l0.01-0.28c0,0.49,0.1,0.93,0.3,1.32c0.19,0.39,0.46,0.69,0.8,0.91
								c0.34,0.22,0.72,0.33,1.15,0.33c0.28,0,0.55-0.04,0.79-0.11c0.24-0.07,0.46-0.17,0.64-0.31c0.18-0.13,0.32-0.29,0.42-0.47
								h1.02c-0.08,0.27-0.24,0.54-0.48,0.82c-0.24,0.27-0.58,0.5-1,0.68s-0.91,0.27-1.46,0.27
								C563.56,299.93,563.01,299.78,562.52,299.49z M561.98,295.92h4.25v0.58c0-0.5-0.08-0.94-0.24-1.32s-0.39-0.67-0.7-0.88
								c-0.31-0.21-0.68-0.31-1.11-0.31c-0.43,0-0.82,0.1-1.15,0.3c-0.33,0.2-0.59,0.49-0.77,0.86c-0.18,0.37-0.27,0.8-0.27,1.3
								L561.98,295.92z"/>
							<path d="M572.15,290.84h3.16c0.84,0,1.58,0.19,2.23,0.56c0.65,0.38,1.15,0.9,1.51,1.58c0.36,0.68,0.54,1.45,0.54,2.32
								c0,0.87-0.18,1.65-0.54,2.32c-0.36,0.68-0.87,1.2-1.51,1.58c-0.65,0.38-1.39,0.56-2.23,0.56h-3.16V290.84z M576.98,298.35
								c0.48-0.29,0.86-0.7,1.13-1.23c0.27-0.53,0.4-1.13,0.4-1.81c0-0.68-0.13-1.28-0.4-1.81c-0.27-0.53-0.64-0.93-1.13-1.23
								c-0.49-0.29-1.04-0.44-1.66-0.44h-2.11v6.95h2.11C575.94,298.79,576.49,298.64,576.98,298.35z"/>
							<path d="M582.45,299.49c-0.49-0.29-0.87-0.7-1.15-1.22c-0.27-0.52-0.41-1.11-0.41-1.77c0-0.64,0.14-1.22,0.42-1.74
								c0.28-0.52,0.66-0.93,1.15-1.22c0.49-0.3,1.04-0.44,1.64-0.44c0.62,0,1.16,0.15,1.62,0.44s0.83,0.7,1.08,1.22
								s0.38,1.11,0.38,1.76v0.25h-5.28l0.01-0.28c0,0.49,0.1,0.93,0.3,1.32c0.19,0.39,0.46,0.69,0.8,0.91
								c0.34,0.22,0.72,0.33,1.15,0.33c0.28,0,0.55-0.04,0.79-0.11c0.24-0.07,0.46-0.17,0.64-0.31c0.18-0.13,0.32-0.29,0.42-0.47
								h1.02c-0.08,0.27-0.24,0.54-0.48,0.82c-0.24,0.27-0.58,0.5-1,0.68s-0.91,0.27-1.46,0.27
								C583.49,299.93,582.94,299.78,582.45,299.49z M581.91,295.92h4.25v0.58c0-0.5-0.08-0.94-0.24-1.32s-0.39-0.67-0.7-0.88
								c-0.31-0.21-0.68-0.31-1.11-0.31c-0.43,0-0.82,0.1-1.15,0.3c-0.33,0.2-0.59,0.49-0.77,0.86c-0.18,0.37-0.27,0.8-0.27,1.3
								L581.91,295.92z"/>
							<path d="M587.89,293.24H589l1.99,5.17l1.93-5.17H594l-2.57,6.53h-0.96L587.89,293.24z"/>
							<path d="M596.49,290.84v1.21h-1.2v-1.21H596.49z M595.38,293.24h1.02v6.53h-1.02V293.24z"/>
							<path d="M599.68,299.48c-0.5-0.3-0.89-0.71-1.17-1.23c-0.28-0.52-0.42-1.1-0.42-1.74c0-0.64,0.14-1.22,0.42-1.74
								c0.28-0.52,0.67-0.93,1.17-1.23c0.5-0.3,1.05-0.45,1.67-0.45c0.52,0,0.99,0.09,1.41,0.26s0.76,0.44,1.04,0.79
								c0.28,0.35,0.47,0.78,0.57,1.29h-1.02c-0.09-0.31-0.24-0.58-0.44-0.79s-0.43-0.37-0.7-0.48c-0.27-0.1-0.55-0.16-0.85-0.16
								c-0.42,0-0.8,0.11-1.13,0.32s-0.59,0.51-0.78,0.89s-0.28,0.81-0.28,1.29c0,0.48,0.09,0.9,0.28,1.28
								c0.19,0.38,0.45,0.68,0.78,0.89c0.33,0.21,0.71,0.32,1.13,0.32c0.3,0,0.59-0.05,0.85-0.16c0.27-0.1,0.5-0.26,0.7-0.48
								c0.2-0.21,0.35-0.48,0.44-0.79h1.02c-0.1,0.49-0.29,0.92-0.57,1.27c-0.29,0.35-0.64,0.62-1.06,0.8s-0.88,0.27-1.38,0.27
								C600.73,299.93,600.18,299.78,599.68,299.48z"/>
							<path d="M607.03,299.49c-0.49-0.29-0.87-0.7-1.15-1.22c-0.27-0.52-0.41-1.11-0.41-1.77c0-0.64,0.14-1.22,0.42-1.74
								c0.28-0.52,0.66-0.93,1.15-1.22c0.49-0.3,1.04-0.44,1.64-0.44c0.62,0,1.16,0.15,1.62,0.44s0.83,0.7,1.08,1.22
								s0.38,1.11,0.38,1.76v0.25h-5.28l0.01-0.28c0,0.49,0.1,0.93,0.3,1.32c0.19,0.39,0.46,0.69,0.8,0.91
								c0.34,0.22,0.72,0.33,1.15,0.33c0.28,0,0.55-0.04,0.79-0.11c0.24-0.07,0.46-0.17,0.64-0.31c0.18-0.13,0.32-0.29,0.42-0.47
								h1.02c-0.08,0.27-0.24,0.54-0.48,0.82c-0.24,0.27-0.58,0.5-1,0.68s-0.91,0.27-1.46,0.27
								C608.07,299.93,607.52,299.78,607.03,299.49z M606.49,295.92h4.25v0.58c0-0.5-0.08-0.94-0.24-1.32s-0.39-0.67-0.7-0.88
								c-0.31-0.21-0.68-0.31-1.11-0.31c-0.43,0-0.82,0.1-1.15,0.3c-0.33,0.2-0.59,0.49-0.77,0.86c-0.18,0.37-0.27,0.8-0.27,1.3
								L606.49,295.92z"/>
						</g>
					</g>
				</g>
			</g>
		</g>
		<g>
			<g>
				<path class="st3" d="M484.08,90.91L215.92,91c-8.05,0-14.58,6.53-14.58,14.58v30.19c0,8.05,6.53,14.58,14.58,14.58l268.16-0.08
					c8.05,0,14.58-6.53,14.58-14.58V105.5C498.66,97.44,492.13,90.91,484.08,90.91z"/>
				<g>
					<g>
						
							<radialGradient id="SVGID_1_" cx="460.6381" cy="147.4267" r="191.5668" gradientTransform="matrix(1 0 0 1 -256.1165 2.170347e-03)" gradientUnits="userSpaceOnUse">
							<stop  offset="0" style="stop-color:#EB4857"/>
							<stop  offset="0.5" style="stop-color:#C611E0"/>
							<stop  offset="1" style="stop-color:#7F52FF"/>
						</radialGradient>
						<path class="st4" d="M390.64,94.54l-174.64,0c-6.04,0-10.94,4.9-10.94,10.94l0,30.23c0,6.04,4.9,10.94,10.94,10.94l174.64,0
							c6.04,0,10.94-4.9,10.94-10.94l0-30.23C401.58,99.44,396.68,94.54,390.64,94.54z"/>
					</g>
				</g>
				<g>
					<g>
						<path class="st0" d="M221.37,124.65c-0.5-0.3-0.89-0.71-1.17-1.23c-0.28-0.52-0.42-1.1-0.42-1.74c0-0.64,0.14-1.22,0.42-1.74
							s0.67-0.93,1.17-1.23c0.5-0.3,1.05-0.45,1.67-0.45c0.52,0,0.99,0.09,1.41,0.26c0.42,0.18,0.76,0.44,1.04,0.79
							c0.28,0.35,0.46,0.78,0.57,1.29h-1.02c-0.09-0.31-0.24-0.58-0.44-0.79s-0.43-0.37-0.7-0.48c-0.27-0.1-0.55-0.16-0.85-0.16
							c-0.42,0-0.8,0.11-1.13,0.32s-0.59,0.51-0.78,0.89c-0.19,0.38-0.28,0.81-0.28,1.29c0,0.48,0.09,0.9,0.28,1.28
							c0.19,0.38,0.45,0.68,0.78,0.89c0.33,0.21,0.71,0.32,1.13,0.32c0.3,0,0.59-0.05,0.85-0.16c0.27-0.1,0.5-0.26,0.7-0.48
							c0.2-0.21,0.35-0.48,0.44-0.79h1.02c-0.1,0.49-0.29,0.92-0.57,1.27c-0.29,0.35-0.64,0.62-1.06,0.8
							c-0.42,0.18-0.88,0.27-1.38,0.27C222.43,125.1,221.87,124.95,221.37,124.65z"/>
						<path class="st0" d="M228.8,124.66c-0.51-0.3-0.91-0.7-1.2-1.22c-0.29-0.52-0.44-1.1-0.44-1.75c0-0.65,0.15-1.23,0.44-1.75
							c0.29-0.52,0.69-0.93,1.2-1.22c0.51-0.3,1.08-0.44,1.7-0.44s1.18,0.15,1.69,0.44c0.51,0.3,0.91,0.7,1.2,1.22
							c0.29,0.52,0.44,1.1,0.44,1.75c0,0.65-0.15,1.24-0.44,1.75c-0.29,0.52-0.69,0.93-1.2,1.22c-0.51,0.3-1.07,0.44-1.7,0.44
							C229.87,125.1,229.31,124.95,228.8,124.66z M231.66,123.86c0.34-0.21,0.61-0.5,0.8-0.88c0.2-0.38,0.29-0.81,0.29-1.3
							c0-0.49-0.1-0.92-0.29-1.3c-0.2-0.38-0.46-0.67-0.81-0.88c-0.34-0.21-0.73-0.31-1.15-0.31c-0.42,0-0.81,0.1-1.15,0.31
							c-0.34,0.21-0.62,0.5-0.81,0.88c-0.2,0.38-0.3,0.81-0.3,1.3c0,0.49,0.1,0.92,0.3,1.3c0.2,0.38,0.47,0.67,0.82,0.88
							c0.35,0.21,0.73,0.31,1.16,0.31C230.93,124.17,231.32,124.06,231.66,123.86z"/>
						<path class="st0" d="M235.5,118.41h0.98v2.83h-0.34c0-0.61,0.09-1.14,0.28-1.59c0.19-0.45,0.46-0.79,0.82-1.03
							s0.78-0.36,1.28-0.36c0.46,0,0.87,0.11,1.22,0.32s0.62,0.51,0.81,0.9c0.19,0.39,0.29,0.84,0.29,1.35v4.12h-1.02v-4.08
							c0-0.36-0.06-0.67-0.18-0.93c-0.12-0.26-0.3-0.46-0.53-0.6c-0.23-0.14-0.51-0.21-0.83-0.21c-0.35,0-0.66,0.08-0.93,0.24
							s-0.47,0.38-0.61,0.68s-0.21,0.64-0.21,1.03v3.87h-1.02V118.41z M243.95,119.94c-0.12-0.26-0.3-0.46-0.53-0.6
							c-0.23-0.14-0.51-0.21-0.84-0.21c-0.35,0-0.66,0.08-0.92,0.24c-0.26,0.16-0.47,0.39-0.61,0.68c-0.14,0.29-0.22,0.63-0.22,1.03
							l-0.57,0.17c0-0.59,0.1-1.11,0.31-1.56c0.2-0.45,0.5-0.8,0.88-1.05c0.38-0.25,0.82-0.37,1.33-0.37c0.46,0,0.88,0.11,1.23,0.32
							s0.64,0.51,0.84,0.9c0.2,0.39,0.3,0.84,0.3,1.35v4.12h-1.02v-4.08C244.13,120.51,244.07,120.2,243.95,119.94z"/>
						<path class="st0" d="M247.19,118.41h0.98v2.83h-0.34c0-0.61,0.09-1.14,0.28-1.59c0.19-0.45,0.46-0.79,0.82-1.03
							s0.78-0.36,1.28-0.36c0.46,0,0.87,0.11,1.22,0.32s0.62,0.51,0.81,0.9c0.19,0.39,0.29,0.84,0.29,1.35v4.12h-1.02v-4.08
							c0-0.36-0.06-0.67-0.18-0.93c-0.12-0.26-0.3-0.46-0.53-0.6c-0.23-0.14-0.51-0.21-0.83-0.21c-0.35,0-0.66,0.08-0.93,0.24
							s-0.47,0.38-0.61,0.68s-0.21,0.64-0.21,1.03v3.87h-1.02V118.41z M255.64,119.94c-0.12-0.26-0.3-0.46-0.53-0.6
							c-0.23-0.14-0.51-0.21-0.84-0.21c-0.35,0-0.66,0.08-0.92,0.24c-0.26,0.16-0.47,0.39-0.61,0.68c-0.14,0.29-0.22,0.63-0.22,1.03
							l-0.57,0.17c0-0.59,0.1-1.11,0.31-1.56c0.2-0.45,0.5-0.8,0.88-1.05c0.38-0.25,0.82-0.37,1.33-0.37c0.46,0,0.88,0.11,1.23,0.32
							c0.36,0.21,0.64,0.51,0.84,0.9c0.2,0.39,0.3,0.84,0.3,1.35v4.12h-1.02v-4.08C255.82,120.51,255.76,120.2,255.64,119.94z"/>
						<path class="st0" d="M259.96,124.66c-0.51-0.3-0.91-0.7-1.2-1.22c-0.29-0.52-0.44-1.1-0.44-1.75c0-0.65,0.15-1.23,0.44-1.75
							c0.29-0.52,0.69-0.93,1.2-1.22c0.51-0.3,1.08-0.44,1.7-0.44c0.62,0,1.18,0.15,1.69,0.44c0.51,0.3,0.91,0.7,1.2,1.22
							c0.29,0.52,0.44,1.1,0.44,1.75c0,0.65-0.15,1.24-0.44,1.75s-0.69,0.93-1.2,1.22c-0.51,0.3-1.07,0.44-1.7,0.44
							C261.03,125.1,260.47,124.95,259.96,124.66z M262.82,123.86c0.34-0.21,0.61-0.5,0.8-0.88c0.2-0.38,0.29-0.81,0.29-1.3
							c0-0.49-0.1-0.92-0.29-1.3c-0.2-0.38-0.46-0.67-0.81-0.88c-0.34-0.21-0.73-0.31-1.15-0.31c-0.43,0-0.81,0.1-1.16,0.31
							c-0.34,0.21-0.62,0.5-0.81,0.88c-0.2,0.38-0.3,0.81-0.3,1.3c0,0.49,0.1,0.92,0.3,1.3c0.2,0.38,0.47,0.67,0.82,0.88
							c0.35,0.21,0.73,0.31,1.16,0.31C262.09,124.17,262.48,124.06,262.82,123.86z"/>
						<path class="st0" d="M266.66,118.41h0.98v2.83h-0.41c0-0.6,0.1-1.13,0.31-1.58c0.21-0.45,0.51-0.79,0.89-1.04
							c0.39-0.24,0.84-0.36,1.37-0.36c0.47,0,0.88,0.1,1.24,0.3c0.36,0.2,0.64,0.49,0.85,0.88c0.21,0.39,0.31,0.86,0.31,1.4v4.1
							h-1.02v-4c0-0.38-0.07-0.7-0.2-0.97c-0.13-0.27-0.32-0.47-0.57-0.61c-0.25-0.14-0.54-0.21-0.88-0.21
							c-0.37,0-0.69,0.08-0.97,0.24c-0.28,0.16-0.5,0.39-0.65,0.68c-0.16,0.29-0.23,0.62-0.23,1v3.87h-1.02V118.41z"/>
						<path class="st0" d="M274.51,116.01h1.32l3.2,7.16l0.17,0.45l0.16-0.45l3.15-7.16h1.35v8.93h-1.06v-7.06v-0.17l-3.16,7.22
							h-0.89l-3.18-7.18v0.13v7.06h-1.05V116.01z"/>
						<path class="st0" d="M289.94,118.53c0.38,0.18,0.67,0.44,0.87,0.79s0.31,0.76,0.31,1.23v4.39h-1v-2.44h0.27
							c0,0.54-0.09,1.01-0.28,1.4c-0.19,0.39-0.46,0.69-0.8,0.89c-0.35,0.2-0.76,0.31-1.24,0.31c-0.42,0-0.79-0.08-1.13-0.24
							s-0.6-0.38-0.79-0.67c-0.19-0.28-0.29-0.61-0.29-0.97c0-0.34,0.09-0.65,0.26-0.94s0.42-0.52,0.73-0.7
							c0.31-0.18,0.66-0.3,1.06-0.34l1.74-0.19c0.14-0.02,0.26-0.08,0.34-0.18c0.08-0.1,0.12-0.25,0.12-0.45l0.08,1.34l-2.14,0.24
							c-0.22,0.03-0.42,0.09-0.59,0.2c-0.17,0.11-0.31,0.24-0.4,0.41c-0.1,0.17-0.14,0.36-0.14,0.56c0,0.22,0.06,0.42,0.17,0.59
							c0.12,0.17,0.28,0.3,0.49,0.4s0.45,0.14,0.71,0.14c0.37,0,0.69-0.07,0.96-0.22c0.27-0.15,0.49-0.36,0.63-0.63
							c0.15-0.27,0.22-0.58,0.22-0.93v-2.08c0-0.26-0.06-0.49-0.19-0.69c-0.12-0.2-0.3-0.35-0.52-0.46
							c-0.22-0.11-0.48-0.16-0.78-0.16c-0.29,0-0.56,0.05-0.79,0.15c-0.23,0.1-0.42,0.23-0.56,0.4c-0.14,0.17-0.23,0.35-0.26,0.55
							H286c0.05-0.37,0.2-0.7,0.44-1c0.24-0.3,0.55-0.53,0.93-0.7c0.38-0.17,0.81-0.26,1.27-0.26
							C289.14,118.26,289.57,118.35,289.94,118.53z"/>
						<path class="st0" d="M294.28,116.01v1.21h-1.2v-1.21H294.28z M293.17,118.41h1.02v6.53h-1.02V118.41z"/>
						<path class="st0" d="M296.42,118.41h0.98v2.83H297c0-0.6,0.1-1.13,0.31-1.58c0.21-0.45,0.51-0.79,0.89-1.04
							c0.39-0.24,0.84-0.36,1.37-0.36c0.47,0,0.88,0.1,1.24,0.3c0.36,0.2,0.64,0.49,0.85,0.88c0.21,0.39,0.31,0.86,0.31,1.4v4.1
							h-1.02v-4c0-0.38-0.07-0.7-0.2-0.97c-0.13-0.27-0.32-0.47-0.57-0.61c-0.25-0.14-0.54-0.21-0.88-0.21
							c-0.37,0-0.69,0.08-0.97,0.24c-0.28,0.16-0.5,0.39-0.65,0.68c-0.16,0.29-0.23,0.62-0.23,1v3.87h-1.02V118.41z"/>
						<path class="st0" d="M306.95,116.01H308l-4.06,8.93h-1.05L306.95,116.01z"/>
						<path class="st0" d="M310.23,123.54v1.4h-1.4v-1.4H310.23z"/>
						<path class="st0" d="M313.28,123.54v1.4h-1.4v-1.4H313.28z"/>
						<path class="st0" d="M316.33,123.54v1.4h-1.4v-1.4H316.33z"/>
						<path class="st0" d="M321.21,116.01h1.05l-4.06,8.93h-1.05L321.21,116.01z"/>
						<path class="st0" d="M324.67,126.92c-0.4-0.15-0.74-0.36-1.01-0.63c-0.27-0.27-0.44-0.59-0.52-0.94h1.02
							c0.09,0.2,0.23,0.36,0.41,0.5c0.18,0.14,0.39,0.24,0.63,0.31c0.24,0.07,0.49,0.1,0.75,0.1c0.42,0,0.78-0.08,1.09-0.25
							c0.31-0.17,0.55-0.4,0.72-0.71c0.17-0.3,0.25-0.65,0.25-1.05v-0.27l0.05-1.84l0.53-0.65c-0.01,0.58-0.14,1.09-0.38,1.55
							c-0.25,0.45-0.58,0.8-1.01,1.06s-0.91,0.38-1.44,0.38c-0.55,0-1.05-0.13-1.5-0.4c-0.45-0.27-0.8-0.63-1.05-1.1
							c-0.25-0.47-0.38-1-0.38-1.59c0-0.59,0.13-1.12,0.38-1.59c0.26-0.47,0.61-0.84,1.05-1.11c0.45-0.27,0.95-0.4,1.5-0.4
							c0.53,0,1.01,0.13,1.44,0.38c0.43,0.26,0.76,0.61,1.01,1.07c0.25,0.46,0.38,0.97,0.38,1.56l-0.53-0.57v-2.28h0.99l-0.02,5.83
							c0,0.57-0.13,1.07-0.38,1.51c-0.25,0.44-0.61,0.78-1.08,1.02c-0.46,0.24-1,0.36-1.6,0.36
							C325.52,127.14,325.08,127.07,324.67,126.92z M327.03,123.28c0.31-0.19,0.56-0.46,0.74-0.79c0.18-0.34,0.27-0.71,0.27-1.12
							c0-0.42-0.09-0.79-0.27-1.13c-0.18-0.34-0.43-0.6-0.74-0.79c-0.31-0.19-0.66-0.29-1.05-0.29c-0.39,0-0.74,0.1-1.06,0.29
							c-0.32,0.19-0.56,0.46-0.74,0.79c-0.18,0.34-0.26,0.71-0.26,1.13c0,0.41,0.09,0.79,0.26,1.12c0.18,0.34,0.42,0.6,0.74,0.79
							c0.31,0.19,0.67,0.29,1.06,0.29C326.37,123.57,326.72,123.47,327.03,123.28z"/>
						<path class="st0" d="M331.3,118.41h1.02v2.19l-0.43,0.64c0.02-0.59,0.12-1.1,0.32-1.53c0.2-0.44,0.47-0.77,0.83-1
							c0.35-0.23,0.76-0.35,1.23-0.35h0.23v1.07h-0.27c-0.39,0-0.72,0.07-1.01,0.22c-0.29,0.15-0.51,0.36-0.67,0.63
							c-0.16,0.27-0.23,0.6-0.23,0.97v3.71h-1.02V118.41z"/>
						<path class="st0" d="M336.86,124.66c-0.49-0.29-0.87-0.7-1.14-1.22c-0.27-0.52-0.41-1.11-0.41-1.77
							c0-0.64,0.14-1.22,0.42-1.74c0.28-0.52,0.66-0.93,1.15-1.22c0.49-0.3,1.04-0.44,1.64-0.44c0.62,0,1.16,0.15,1.62,0.44
							s0.83,0.7,1.08,1.22s0.38,1.11,0.38,1.76v0.25h-5.28l0.01-0.28c0,0.49,0.1,0.93,0.3,1.32c0.19,0.39,0.46,0.69,0.8,0.91
							c0.34,0.22,0.72,0.33,1.15,0.33c0.29,0,0.55-0.04,0.79-0.11c0.25-0.07,0.46-0.17,0.64-0.31c0.18-0.13,0.32-0.29,0.42-0.47
							h1.02c-0.08,0.27-0.24,0.54-0.48,0.82c-0.25,0.27-0.58,0.5-1,0.68s-0.9,0.27-1.46,0.27
							C337.9,125.1,337.35,124.95,336.86,124.66z M336.32,121.09h4.26v0.58c0-0.5-0.08-0.94-0.24-1.32s-0.39-0.67-0.7-0.88
							c-0.31-0.21-0.68-0.31-1.11-0.31c-0.43,0-0.82,0.1-1.15,0.3c-0.33,0.2-0.59,0.49-0.77,0.86s-0.27,0.8-0.27,1.3L336.32,121.09z
							"/>
						<path class="st0" d="M344.28,124.66c-0.49-0.29-0.87-0.7-1.15-1.22c-0.27-0.52-0.41-1.11-0.41-1.77
							c0-0.64,0.14-1.22,0.42-1.74c0.28-0.52,0.66-0.93,1.15-1.22c0.49-0.3,1.04-0.44,1.64-0.44c0.62,0,1.16,0.15,1.62,0.44
							s0.83,0.7,1.08,1.22s0.38,1.11,0.38,1.76v0.25h-5.28l0.01-0.28c0,0.49,0.1,0.93,0.3,1.32c0.19,0.39,0.46,0.69,0.8,0.91
							c0.34,0.22,0.72,0.33,1.15,0.33c0.29,0,0.55-0.04,0.79-0.11c0.24-0.07,0.46-0.17,0.64-0.31c0.18-0.13,0.32-0.29,0.42-0.47
							h1.02c-0.08,0.27-0.24,0.54-0.48,0.82c-0.24,0.27-0.58,0.5-1,0.68s-0.91,0.27-1.46,0.27
							C345.32,125.1,344.77,124.95,344.28,124.66z M343.74,121.09h4.26v0.58c0-0.5-0.08-0.94-0.24-1.32
							c-0.16-0.38-0.39-0.67-0.7-0.88c-0.31-0.21-0.68-0.31-1.11-0.31s-0.82,0.1-1.15,0.3s-0.59,0.49-0.77,0.86
							c-0.18,0.37-0.27,0.8-0.27,1.3L343.74,121.09z"/>
						<path class="st0" d="M351.94,124.75c-0.25-0.13-0.45-0.32-0.6-0.56c-0.15-0.24-0.22-0.5-0.22-0.79l-0.01-4.08h-1.15l0.01-0.91
							h0.71c0.16,0,0.29-0.05,0.39-0.15c0.1-0.1,0.15-0.23,0.15-0.39v-1.05h0.92v1.6h1.58l-0.01,0.91h-1.58l0.01,4.02
							c0,0.2,0.07,0.37,0.2,0.5c0.13,0.13,0.3,0.2,0.5,0.2h0.87v0.91h-0.93C352.48,124.95,352.2,124.88,351.94,124.75z"/>
						<path class="st0" d="M356.61,116.01v1.21h-1.2v-1.21H356.61z M355.49,118.41h1.02v6.53h-1.02V118.41z"/>
						<path class="st0" d="M358.75,118.41h0.98v2.83h-0.41c0-0.6,0.1-1.13,0.31-1.58c0.21-0.45,0.51-0.79,0.89-1.04
							c0.39-0.24,0.84-0.36,1.37-0.36c0.47,0,0.88,0.1,1.24,0.3c0.36,0.2,0.65,0.49,0.85,0.88s0.31,0.86,0.31,1.4v4.1h-1.02v-4
							c0-0.38-0.07-0.7-0.2-0.97s-0.32-0.47-0.57-0.61c-0.25-0.14-0.54-0.21-0.88-0.21c-0.37,0-0.69,0.08-0.97,0.24
							c-0.28,0.16-0.5,0.39-0.65,0.68c-0.16,0.29-0.23,0.62-0.23,1v3.87h-1.02V118.41z"/>
						<path class="st0" d="M367.64,126.92c-0.4-0.15-0.74-0.36-1.01-0.63c-0.27-0.27-0.44-0.59-0.52-0.94h1.02
							c0.09,0.2,0.23,0.36,0.42,0.5s0.39,0.24,0.63,0.31c0.24,0.07,0.49,0.1,0.75,0.1c0.42,0,0.78-0.08,1.09-0.25
							c0.31-0.17,0.55-0.4,0.72-0.71s0.25-0.65,0.25-1.05v-0.27l0.05-1.84l0.53-0.65c-0.01,0.58-0.14,1.09-0.38,1.55
							s-0.58,0.8-1.01,1.06c-0.43,0.25-0.91,0.38-1.44,0.38c-0.55,0-1.05-0.13-1.5-0.4c-0.45-0.27-0.8-0.63-1.05-1.1
							c-0.25-0.47-0.38-1-0.38-1.59c0-0.59,0.13-1.12,0.38-1.59c0.25-0.47,0.61-0.84,1.05-1.11c0.45-0.27,0.95-0.4,1.5-0.4
							c0.53,0,1.01,0.13,1.44,0.38c0.43,0.26,0.76,0.61,1.01,1.07c0.25,0.46,0.37,0.97,0.38,1.56l-0.53-0.57v-2.28h0.99l-0.02,5.83
							c0,0.57-0.13,1.07-0.38,1.51c-0.26,0.44-0.62,0.78-1.08,1.02c-0.46,0.24-1,0.36-1.6,0.36
							C368.49,127.14,368.05,127.07,367.64,126.92z M370,123.28c0.31-0.19,0.56-0.46,0.74-0.79c0.18-0.34,0.27-0.71,0.27-1.12
							c0-0.42-0.09-0.79-0.27-1.13c-0.18-0.34-0.43-0.6-0.74-0.79c-0.31-0.19-0.66-0.29-1.05-0.29c-0.39,0-0.75,0.1-1.06,0.29
							c-0.31,0.19-0.56,0.46-0.74,0.79c-0.18,0.34-0.27,0.71-0.27,1.13c0,0.41,0.09,0.79,0.27,1.12c0.18,0.34,0.42,0.6,0.74,0.79
							s0.67,0.29,1.06,0.29C369.34,123.57,369.69,123.47,370,123.28z"/>
						<path class="st0" d="M375.38,123.54v1.4h-1.4v-1.4H375.38z"/>
						<path class="st0" d="M377.32,116.01h1.02v5.46l2.96-3.06h1.27l-2.98,3.11l3.09,3.42h-1.31l-3.03-3.29v3.29h-1.02V116.01z"/>
						<path class="st0" d="M385.09,124.75c-0.25-0.13-0.45-0.32-0.6-0.56c-0.14-0.24-0.22-0.5-0.22-0.79l-0.01-4.08h-1.15l0.01-0.91
							h0.71c0.16,0,0.29-0.05,0.39-0.15c0.1-0.1,0.15-0.23,0.15-0.39v-1.05h0.92v1.6h1.58l-0.01,0.91h-1.58l0.01,4.02
							c0,0.2,0.07,0.37,0.2,0.5c0.13,0.13,0.3,0.2,0.5,0.2h0.87v0.91h-0.93C385.62,124.95,385.34,124.88,385.09,124.75z"/>
					</g>
				</g>
				<g>
					<g>
						<g>
							<g>
								<g>
									<path class="st2" d="M482.67,121.94l-66.37,0c-6.78,0-12.28,5.5-12.28,12.28v0c0,6.78,5.5,12.28,12.28,12.28l66.37,0
										c6.78,0,12.28-5.5,12.28-12.28v0C494.95,127.44,489.45,121.94,482.67,121.94z"/>
								</g>
							</g>
							<g>
								<path d="M421.24,129.74v1.21h-1.2v-1.21H421.24z M420.13,132.14h1.02v6.53h-1.02V132.14z"/>
								<path d="M425.16,138.22c-0.67-0.4-1.2-0.95-1.59-1.66c-0.39-0.7-0.58-1.49-0.58-2.36c0-0.87,0.19-1.65,0.58-2.36
									c0.39-0.7,0.92-1.26,1.59-1.66c0.67-0.4,1.42-0.6,2.25-0.6c0.82,0,1.57,0.2,2.24,0.6c0.67,0.4,1.21,0.95,1.59,1.66
									c0.39,0.7,0.58,1.49,0.58,2.36c0,0.87-0.19,1.65-0.58,2.36c-0.39,0.7-0.92,1.26-1.59,1.66c-0.67,0.4-1.42,0.6-2.24,0.6
									C426.58,138.82,425.83,138.62,425.16,138.22z M429.11,137.38c0.51-0.31,0.9-0.75,1.19-1.3s0.43-1.18,0.43-1.88
									c0-0.7-0.14-1.33-0.42-1.89c-0.28-0.56-0.68-0.99-1.18-1.3c-0.5-0.31-1.08-0.47-1.71-0.47c-0.63,0-1.2,0.16-1.7,0.47
									s-0.9,0.75-1.19,1.3s-0.43,1.18-0.43,1.88c0,0.7,0.14,1.33,0.43,1.88c0.29,0.55,0.68,0.99,1.19,1.3s1.07,0.47,1.7,0.47
									C428.03,137.85,428.6,137.7,429.11,137.38z"/>
								<path d="M434.74,138.48c-0.47-0.23-0.84-0.54-1.1-0.94c-0.26-0.4-0.39-0.87-0.39-1.39h1.08c0,0.34,0.08,0.63,0.26,0.89
									c0.17,0.26,0.41,0.46,0.72,0.61c0.31,0.14,0.67,0.22,1.07,0.22c0.4,0,0.74-0.07,1.04-0.2s0.53-0.32,0.7-0.57
									c0.16-0.24,0.25-0.53,0.25-0.85c0-0.4-0.12-0.75-0.36-1.04c-0.24-0.29-0.56-0.47-0.96-0.54l-1.44-0.25
									c-0.43-0.08-0.81-0.23-1.13-0.45c-0.32-0.23-0.56-0.51-0.73-0.84s-0.25-0.7-0.25-1.1c0-0.46,0.12-0.88,0.37-1.25
									c0.24-0.37,0.58-0.66,1.02-0.88c0.44-0.21,0.93-0.32,1.47-0.32c0.56,0,1.06,0.11,1.5,0.32c0.44,0.21,0.78,0.5,1.02,0.88
									c0.24,0.37,0.36,0.8,0.36,1.28h-1.08c0-0.29-0.07-0.56-0.22-0.79c-0.15-0.23-0.36-0.41-0.63-0.54
									c-0.27-0.13-0.58-0.19-0.93-0.19c-0.35,0-0.67,0.06-0.94,0.19c-0.27,0.12-0.48,0.3-0.63,0.52
									c-0.15,0.23-0.23,0.49-0.23,0.78c0,0.35,0.11,0.66,0.34,0.91c0.23,0.26,0.53,0.41,0.9,0.48l1.47,0.26
									c0.42,0.08,0.8,0.24,1.14,0.49c0.33,0.25,0.59,0.56,0.77,0.92c0.18,0.36,0.27,0.75,0.27,1.15c0,0.48-0.13,0.92-0.39,1.31
									c-0.26,0.39-0.62,0.7-1.09,0.93s-1,0.34-1.59,0.34C435.75,138.82,435.21,138.71,434.74,138.48z"/>
								<path d="M443.67,129.74h1.14l3.43,8.93h-1.12l-0.86-2.37h-3.95l-0.8,2.37h-1.15L443.67,129.74z M445.92,135.38l-1.52-4.15
									l-0.15-0.54l-0.15,0.54l-1.45,4.15H445.92z"/>
								<path d="M449.64,132.14h1.02v2.19l-0.43,0.64c0.02-0.59,0.12-1.1,0.32-1.53c0.2-0.44,0.47-0.77,0.83-1
									c0.35-0.23,0.76-0.35,1.23-0.35h0.23v1.07h-0.27c-0.39,0-0.73,0.07-1.01,0.22c-0.29,0.15-0.51,0.36-0.67,0.63
									c-0.16,0.27-0.23,0.6-0.23,0.97v3.71h-1.02V132.14z"/>
								<path d="M454.2,132.14h0.98v2.83h-0.34c0-0.61,0.09-1.14,0.28-1.59c0.19-0.45,0.46-0.79,0.82-1.03s0.78-0.36,1.28-0.36
									c0.46,0,0.87,0.11,1.22,0.32c0.35,0.21,0.62,0.51,0.81,0.9c0.19,0.39,0.29,0.84,0.29,1.35v4.12h-1.02v-4.08
									c0-0.36-0.06-0.67-0.18-0.93s-0.3-0.46-0.53-0.6c-0.23-0.14-0.51-0.21-0.83-0.21c-0.35,0-0.66,0.08-0.93,0.24
									s-0.47,0.38-0.61,0.68c-0.14,0.29-0.21,0.64-0.21,1.03v3.87h-1.02V132.14z M462.64,133.66c-0.12-0.26-0.3-0.46-0.53-0.6
									c-0.23-0.14-0.51-0.21-0.84-0.21c-0.35,0-0.65,0.08-0.92,0.24c-0.26,0.16-0.47,0.39-0.61,0.68
									c-0.14,0.29-0.22,0.63-0.22,1.03l-0.57,0.17c0-0.59,0.1-1.11,0.31-1.56c0.2-0.45,0.5-0.8,0.88-1.05
									c0.38-0.25,0.82-0.37,1.33-0.37c0.46,0,0.88,0.11,1.24,0.32c0.36,0.21,0.64,0.51,0.84,0.9c0.2,0.39,0.3,0.84,0.3,1.35v4.12
									h-1.02v-4.08C462.82,134.24,462.76,133.93,462.64,133.66z"/>
								<path d="M467.25,138.28c-0.53-0.36-0.93-0.88-1.21-1.55c-0.29-0.67-0.43-1.45-0.43-2.35c0-0.97,0.15-1.81,0.44-2.54
									c0.29-0.73,0.7-1.28,1.23-1.67c0.53-0.39,1.13-0.58,1.81-0.58c0.43,0,0.84,0.06,1.23,0.19c0.39,0.12,0.74,0.33,1.06,0.61
									c0.31,0.28,0.56,0.65,0.73,1.09h-1.06c-0.1-0.17-0.24-0.33-0.43-0.47c-0.19-0.14-0.41-0.25-0.66-0.33
									c-0.25-0.08-0.52-0.12-0.81-0.12c-0.47,0-0.9,0.13-1.27,0.4c-0.38,0.26-0.68,0.68-0.9,1.25s-0.34,1.29-0.34,2.15
									c0.13-0.33,0.33-0.62,0.59-0.87c0.26-0.25,0.57-0.44,0.93-0.58c0.36-0.14,0.75-0.2,1.18-0.2c0.57,0,1.09,0.13,1.55,0.4
									c0.46,0.27,0.82,0.63,1.08,1.1s0.39,0.99,0.39,1.57c0,0.58-0.14,1.1-0.42,1.57c-0.28,0.47-0.67,0.83-1.17,1.1
									c-0.5,0.27-1.05,0.4-1.67,0.4C468.39,138.82,467.77,138.64,467.25,138.28z M470.22,137.59c0.32-0.18,0.58-0.43,0.76-0.75
									c0.18-0.32,0.27-0.68,0.27-1.08c0-0.4-0.09-0.77-0.28-1.09c-0.19-0.33-0.45-0.58-0.78-0.77c-0.33-0.19-0.7-0.28-1.11-0.28
									c-0.41,0-0.78,0.09-1.1,0.28c-0.33,0.19-0.58,0.44-0.77,0.77c-0.18,0.33-0.28,0.69-0.28,1.09c0,0.4,0.09,0.77,0.28,1.09
									c0.19,0.32,0.45,0.57,0.78,0.76c0.33,0.18,0.71,0.27,1.13,0.27C469.54,137.87,469.9,137.78,470.22,137.59z"/>
								<path d="M477.84,136.47h-4.53v-0.96l4.52-5.77h0.62l0.36,0.12l-4.4,5.65h3.43v-5.77h1.05v5.77h1.39v0.96h-1.39v2.2h-1.05
									V136.47z"/>
							</g>
						</g>
						<g>
							<g>
								<g>
									<path class="st2" d="M482.67,94.63l-66.37,0c-6.78,0-12.28,5.5-12.28,12.28v0c0,6.78,5.5,12.28,12.28,12.28l66.37,0
										c6.78,0,12.28-5.5,12.28-12.28v0C494.95,100.13,489.45,94.63,482.67,94.63z"/>
								</g>
							</g>
							<g>
								<path d="M437.12,110.37h1.52c0.25,0,0.47-0.05,0.67-0.16c0.19-0.11,0.34-0.26,0.45-0.45c0.11-0.19,0.16-0.42,0.16-0.67
									v-6.67h1.06v6.73c0,0.43-0.1,0.81-0.29,1.15c-0.19,0.33-0.46,0.59-0.8,0.78c-0.34,0.19-0.74,0.28-1.18,0.28h-1.58V110.37z"
									/>
								<path d="M442.55,102.42h1.16l2.83,7.56l2.72-7.56h1.17l-3.39,8.93h-1.08L442.55,102.42z"/>
								<path d="M452.08,102.42h1.32l3.2,7.16l0.17,0.45l0.16-0.45l3.15-7.16h1.35v8.93h-1.06v-7.06v-0.17l-3.16,7.22h-0.89
									l-3.18-7.18v0.13v7.06h-1.05V102.42z"/>
							</g>
						</g>
					</g>
				</g>
			</g>
		</g>
	</g>
</g>
</svg>
