<svg width="706" height="444" viewBox="0 0 706 444" fill="none" xmlns="http://www.w3.org/2000/svg">
<rect width="706" height="444" fill="white"/>
<path d="M365 210.5L365.35 210.5L365 210.5ZM379 224.5L379 224.15L379 224.5ZM531 224.5L531 224.85L531 224.5ZM545 275.5L542.98 272L547.021 272L545 275.5ZM365.35 167.5L365.35 210.5L364.65 210.5L364.65 167.5L365.35 167.5ZM379 224.15L531 224.15L531 224.85L379 224.85L379 224.15ZM545.35 238.5L545.35 272.35L544.65 272.35L544.65 238.5L545.35 238.5ZM531 224.15C538.926 224.15 545.35 230.575 545.35 238.5L544.65 238.5C544.65 230.961 538.539 224.85 531 224.85L531 224.15ZM365.35 210.5C365.35 218.039 371.462 224.15 379 224.15L379 224.85C371.075 224.85 364.65 218.425 364.65 210.5L365.35 210.5Z" fill="black"/>
<path d="M350 275L347.979 271.5L352.021 271.5L350 275ZM350.35 167.5L350.35 271.85L349.65 271.85L349.65 167.5L350.35 167.5Z" fill="black"/>
<path d="M334.5 210L334.15 210L334.5 210ZM320.5 224L320.5 223.65L320.5 224ZM168 224L168 224.35L168 224ZM154 275L156.021 271.5L151.979 271.5L154 275ZM334.15 167.5L334.15 210L334.85 210L334.85 167.5L334.15 167.5ZM320.5 223.65L168 223.65L168 224.35L320.5 224.35L320.5 223.65ZM153.65 238L153.65 271.85L154.35 271.85L154.35 238L153.65 238ZM168 223.65C160.075 223.65 153.65 230.075 153.65 238L154.35 238C154.35 230.461 160.461 224.35 168 224.35L168 223.65ZM334.15 210C334.15 217.539 328.039 223.65 320.5 223.65L320.5 224.35C328.425 224.35 334.85 217.925 334.85 210L334.15 210Z" fill="black"/>
<rect x="201.35" y="81.35" width="298.3" height="86.3" rx="14.65" stroke="#595959" stroke-width="0.7"/>
<rect x="205" y="85" width="196" height="79" rx="12" fill="url(#paint0_radial_1218_347)"/>
<path d="M227.446 128.144C226.866 128.144 226.342 128.004 225.874 127.724C225.406 127.444 225.038 127.06 224.77 126.572C224.506 126.08 224.374 125.532 224.374 124.928C224.374 124.324 224.506 123.778 224.77 123.29C225.038 122.798 225.406 122.412 225.874 122.132C226.342 121.852 226.866 121.712 227.446 121.712C227.938 121.712 228.38 121.796 228.772 121.964C229.164 122.128 229.49 122.376 229.75 122.708C230.01 123.036 230.188 123.44 230.284 123.92H229.324C229.236 123.624 229.098 123.376 228.91 123.176C228.722 122.976 228.502 122.828 228.25 122.732C227.998 122.632 227.73 122.582 227.446 122.582C227.05 122.582 226.694 122.682 226.378 122.882C226.066 123.082 225.822 123.36 225.646 123.716C225.47 124.072 225.382 124.476 225.382 124.928C225.382 125.376 225.47 125.778 225.646 126.134C225.822 126.49 226.066 126.77 226.378 126.974C226.694 127.174 227.05 127.274 227.446 127.274C227.73 127.274 227.998 127.226 228.25 127.13C228.502 127.03 228.722 126.88 228.91 126.68C229.098 126.48 229.236 126.232 229.324 125.936H230.284C230.192 126.4 230.012 126.798 229.744 127.13C229.476 127.462 229.144 127.714 228.748 127.886C228.352 128.058 227.918 128.144 227.446 128.144ZM234.455 128.144C233.871 128.144 233.339 128.006 232.859 127.73C232.383 127.45 232.007 127.066 231.731 126.578C231.459 126.086 231.323 125.536 231.323 124.928C231.323 124.32 231.459 123.772 231.731 123.284C232.007 122.792 232.385 122.408 232.865 122.132C233.345 121.852 233.877 121.712 234.461 121.712C235.045 121.712 235.575 121.852 236.051 122.132C236.527 122.408 236.901 122.79 237.173 123.278C237.449 123.766 237.587 124.316 237.587 124.928C237.587 125.54 237.449 126.09 237.173 126.578C236.901 127.066 236.527 127.45 236.051 127.73C235.575 128.006 235.043 128.144 234.455 128.144ZM234.467 127.268C234.867 127.268 235.227 127.17 235.547 126.974C235.867 126.778 236.119 126.504 236.303 126.152C236.487 125.796 236.579 125.388 236.579 124.928C236.579 124.468 236.487 124.06 236.303 123.704C236.119 123.348 235.865 123.072 235.541 122.876C235.221 122.68 234.861 122.582 234.461 122.582C234.061 122.582 233.699 122.68 233.375 122.876C233.051 123.072 232.795 123.348 232.607 123.704C232.423 124.06 232.331 124.468 232.331 124.928C232.331 125.388 232.423 125.796 232.607 126.152C232.795 126.504 233.051 126.778 233.375 126.974C233.703 127.17 234.067 127.268 234.467 127.268ZM239.169 121.856H240.093V124.514H239.769C239.769 123.938 239.857 123.44 240.033 123.02C240.213 122.6 240.471 122.278 240.807 122.054C241.143 121.826 241.543 121.712 242.007 121.712C242.443 121.712 242.825 121.812 243.153 122.012C243.481 122.208 243.735 122.488 243.915 122.852C244.095 123.216 244.185 123.64 244.185 124.124V128H243.225V124.166C243.225 123.83 243.167 123.54 243.051 123.296C242.939 123.048 242.773 122.858 242.553 122.726C242.337 122.594 242.077 122.528 241.773 122.528C241.441 122.528 241.151 122.602 240.903 122.75C240.655 122.898 240.463 123.11 240.327 123.386C240.195 123.662 240.129 123.986 240.129 124.358V128H239.169V121.856ZM247.281 124.166C247.281 123.83 247.223 123.54 247.107 123.296C246.995 123.048 246.831 122.858 246.615 122.726C246.399 122.594 246.137 122.528 245.829 122.528C245.501 122.528 245.213 122.604 244.965 122.756C244.717 122.904 244.525 123.116 244.389 123.392C244.253 123.664 244.185 123.986 244.185 124.358L243.645 124.514C243.645 123.962 243.741 123.474 243.933 123.05C244.125 122.626 244.399 122.298 244.755 122.066C245.115 121.83 245.533 121.712 246.009 121.712C246.445 121.712 246.831 121.812 247.167 122.012C247.507 122.208 247.771 122.488 247.959 122.852C248.147 123.216 248.241 123.64 248.241 124.124V128H247.281V124.166ZM250.161 121.856H251.085V124.514H250.761C250.761 123.938 250.849 123.44 251.025 123.02C251.205 122.6 251.463 122.278 251.799 122.054C252.135 121.826 252.535 121.712 252.999 121.712C253.435 121.712 253.817 121.812 254.145 122.012C254.473 122.208 254.727 122.488 254.907 122.852C255.087 123.216 255.177 123.64 255.177 124.124V128H254.217V124.166C254.217 123.83 254.159 123.54 254.043 123.296C253.931 123.048 253.765 122.858 253.545 122.726C253.329 122.594 253.069 122.528 252.765 122.528C252.433 122.528 252.143 122.602 251.895 122.75C251.647 122.898 251.455 123.11 251.319 123.386C251.187 123.662 251.121 123.986 251.121 124.358V128H250.161V121.856ZM258.273 124.166C258.273 123.83 258.215 123.54 258.099 123.296C257.987 123.048 257.823 122.858 257.607 122.726C257.391 122.594 257.129 122.528 256.821 122.528C256.493 122.528 256.205 122.604 255.957 122.756C255.709 122.904 255.517 123.116 255.381 123.392C255.245 123.664 255.177 123.986 255.177 124.358L254.637 124.514C254.637 123.962 254.733 123.474 254.925 123.05C255.117 122.626 255.391 122.298 255.747 122.066C256.107 121.83 256.525 121.712 257.001 121.712C257.437 121.712 257.823 121.812 258.159 122.012C258.499 122.208 258.763 122.488 258.951 122.852C259.139 123.216 259.233 123.64 259.233 124.124V128H258.273V124.166ZM263.764 128.144C263.18 128.144 262.648 128.006 262.168 127.73C261.692 127.45 261.316 127.066 261.04 126.578C260.768 126.086 260.632 125.536 260.632 124.928C260.632 124.32 260.768 123.772 261.04 123.284C261.316 122.792 261.694 122.408 262.174 122.132C262.654 121.852 263.186 121.712 263.77 121.712C264.354 121.712 264.884 121.852 265.36 122.132C265.836 122.408 266.21 122.79 266.482 123.278C266.758 123.766 266.896 124.316 266.896 124.928C266.896 125.54 266.758 126.09 266.482 126.578C266.21 127.066 265.836 127.45 265.36 127.73C264.884 128.006 264.352 128.144 263.764 128.144ZM263.776 127.268C264.176 127.268 264.536 127.17 264.856 126.974C265.176 126.778 265.428 126.504 265.612 126.152C265.796 125.796 265.888 125.388 265.888 124.928C265.888 124.468 265.796 124.06 265.612 123.704C265.428 123.348 265.174 123.072 264.85 122.876C264.53 122.68 264.17 122.582 263.77 122.582C263.37 122.582 263.008 122.68 262.684 122.876C262.36 123.072 262.104 123.348 261.916 123.704C261.732 124.06 261.64 124.468 261.64 124.928C261.64 125.388 261.732 125.796 261.916 126.152C262.104 126.504 262.36 126.778 262.684 126.974C263.012 127.17 263.376 127.268 263.776 127.268ZM268.478 121.856H269.402V124.514H269.018C269.018 123.946 269.116 123.452 269.312 123.032C269.508 122.608 269.788 122.282 270.152 122.054C270.516 121.826 270.944 121.712 271.436 121.712C271.876 121.712 272.266 121.806 272.606 121.994C272.946 122.182 273.212 122.46 273.404 122.828C273.6 123.192 273.698 123.63 273.698 124.142V128H272.738V124.238C272.738 123.882 272.674 123.578 272.546 123.326C272.422 123.074 272.244 122.882 272.012 122.75C271.78 122.618 271.504 122.552 271.184 122.552C270.84 122.552 270.536 122.628 270.272 122.78C270.008 122.932 269.802 123.146 269.654 123.422C269.51 123.694 269.438 124.006 269.438 124.358V128H268.478V121.856ZM275.854 119.6H277.096L280.108 126.332L280.264 126.758L280.414 126.332L283.372 119.6H284.638V128H283.642V121.364V121.208L280.672 128H279.838L276.844 121.244V121.364V128H275.854V119.6ZM289.148 121.712C289.612 121.712 290.02 121.798 290.372 121.97C290.724 122.138 290.996 122.386 291.188 122.714C291.384 123.038 291.482 123.424 291.482 123.872V128H290.546V125.702H290.798C290.798 126.214 290.71 126.654 290.534 127.022C290.358 127.386 290.106 127.664 289.778 127.856C289.45 128.048 289.06 128.144 288.608 128.144C288.216 128.144 287.862 128.068 287.546 127.916C287.23 127.764 286.982 127.554 286.802 127.286C286.622 127.018 286.532 126.714 286.532 126.374C286.532 126.054 286.614 125.76 286.778 125.492C286.946 125.22 287.176 124.998 287.468 124.826C287.764 124.654 288.096 124.548 288.464 124.508L290.102 124.328C290.238 124.312 290.344 124.256 290.42 124.16C290.496 124.064 290.534 123.922 290.534 123.734L290.606 124.994L288.596 125.216C288.388 125.24 288.202 125.302 288.038 125.402C287.878 125.502 287.752 125.632 287.66 125.792C287.572 125.952 287.528 126.128 287.528 126.32C287.528 126.528 287.582 126.712 287.69 126.872C287.802 127.032 287.956 127.158 288.152 127.25C288.348 127.338 288.572 127.382 288.824 127.382C289.168 127.382 289.468 127.312 289.724 127.172C289.984 127.032 290.184 126.836 290.324 126.584C290.464 126.328 290.534 126.034 290.534 125.702V123.746C290.534 123.502 290.476 123.288 290.36 123.104C290.244 122.916 290.08 122.772 289.868 122.672C289.66 122.568 289.418 122.516 289.142 122.516C288.866 122.516 288.618 122.564 288.398 122.66C288.178 122.752 288 122.878 287.864 123.038C287.732 123.194 287.652 123.364 287.624 123.548H286.664C286.712 123.2 286.848 122.888 287.072 122.612C287.3 122.332 287.594 122.112 287.954 121.952C288.314 121.792 288.712 121.712 289.148 121.712ZM293.404 121.856H294.364V128H293.404V121.856ZM294.448 119.6V120.74H293.32V119.6H294.448ZM296.462 121.856H297.386V124.514H297.002C297.002 123.946 297.1 123.452 297.296 123.032C297.492 122.608 297.772 122.282 298.136 122.054C298.5 121.826 298.928 121.712 299.42 121.712C299.86 121.712 300.25 121.806 300.59 121.994C300.93 122.182 301.196 122.46 301.388 122.828C301.584 123.192 301.682 123.63 301.682 124.142V128H300.722V124.238C300.722 123.882 300.658 123.578 300.53 123.326C300.406 123.074 300.228 122.882 299.996 122.75C299.764 122.618 299.488 122.552 299.168 122.552C298.824 122.552 298.52 122.628 298.256 122.78C297.992 122.932 297.786 123.146 297.638 123.422C297.494 123.694 297.422 124.006 297.422 124.358V128H296.462V121.856ZM306.365 119.6H307.349L303.533 128H302.549L306.365 119.6ZM309.448 126.68V128H308.128V126.68H309.448ZM312.319 126.68V128H310.999V126.68H312.319ZM315.19 126.68V128H313.87V126.68H315.19ZM319.783 119.6H320.767L316.951 128H315.967L319.783 119.6ZM324.287 130.064C323.839 130.064 323.425 129.994 323.045 129.854C322.665 129.714 322.349 129.516 322.097 129.26C321.845 129.004 321.683 128.708 321.611 128.372H322.571C322.659 128.556 322.789 128.712 322.961 128.84C323.133 128.968 323.331 129.064 323.555 129.128C323.779 129.192 324.013 129.224 324.257 129.224C324.649 129.224 324.991 129.144 325.283 128.984C325.579 128.828 325.807 128.608 325.967 128.324C326.127 128.04 326.207 127.712 326.207 127.34V127.088L326.255 125.354L326.753 124.742C326.745 125.286 326.625 125.772 326.393 126.2C326.161 126.624 325.843 126.954 325.439 127.19C325.039 127.426 324.589 127.544 324.089 127.544C323.569 127.544 323.099 127.42 322.679 127.172C322.259 126.92 321.929 126.574 321.689 126.134C321.449 125.69 321.329 125.19 321.329 124.634C321.329 124.078 321.449 123.578 321.689 123.134C321.929 122.69 322.259 122.342 322.679 122.09C323.099 121.838 323.569 121.712 324.089 121.712C324.589 121.712 325.039 121.832 325.439 122.072C325.843 122.312 326.161 122.646 326.393 123.074C326.625 123.502 326.745 123.99 326.753 124.538L326.255 123.998V121.856H327.185L327.167 127.34C327.167 127.872 327.047 128.344 326.807 128.756C326.567 129.172 326.229 129.494 325.793 129.722C325.357 129.95 324.855 130.064 324.287 130.064ZM324.275 126.704C324.639 126.704 324.967 126.614 325.259 126.434C325.555 126.254 325.789 126.006 325.961 125.69C326.133 125.374 326.219 125.022 326.219 124.634C326.219 124.242 326.133 123.888 325.961 123.572C325.789 123.256 325.555 123.008 325.259 122.828C324.967 122.644 324.639 122.552 324.275 122.552C323.907 122.552 323.575 122.644 323.279 122.828C322.983 123.008 322.751 123.256 322.583 123.572C322.419 123.888 322.337 124.242 322.337 124.634C322.337 125.022 322.419 125.374 322.583 125.69C322.751 126.006 322.983 126.254 323.279 126.434C323.575 126.614 323.907 126.704 324.275 126.704ZM329.275 121.856H330.235V123.914L329.833 124.514C329.849 123.962 329.949 123.482 330.133 123.074C330.321 122.662 330.581 122.346 330.913 122.126C331.245 121.906 331.631 121.796 332.071 121.796H332.287V122.798H332.035C331.671 122.798 331.353 122.868 331.081 123.008C330.809 123.148 330.599 123.348 330.451 123.608C330.307 123.864 330.235 124.166 330.235 124.514V128H329.275V121.856ZM336.06 128.144C335.484 128.144 334.966 128.006 334.506 127.73C334.046 127.454 333.686 127.072 333.426 126.584C333.17 126.092 333.042 125.536 333.042 124.916C333.042 124.312 333.172 123.766 333.432 123.278C333.696 122.79 334.058 122.408 334.518 122.132C334.978 121.852 335.492 121.712 336.06 121.712C336.64 121.712 337.148 121.85 337.584 122.126C338.024 122.402 338.362 122.784 338.598 123.272C338.838 123.76 338.958 124.312 338.958 124.928V125.162H333.996L334.008 124.898C334.012 125.362 334.104 125.778 334.284 126.146C334.468 126.51 334.72 126.794 335.04 126.998C335.36 127.202 335.72 127.304 336.12 127.304C336.388 127.304 336.636 127.272 336.864 127.208C337.096 127.14 337.296 127.044 337.464 126.92C337.636 126.792 337.768 126.644 337.86 126.476H338.82C338.748 126.732 338.596 126.988 338.364 127.244C338.136 127.5 337.824 127.714 337.428 127.886C337.036 128.058 336.58 128.144 336.06 128.144ZM333.996 124.37H337.998V124.916C337.998 124.444 337.924 124.032 337.776 123.68C337.628 123.324 337.408 123.048 337.116 122.852C336.828 122.656 336.48 122.558 336.072 122.558C335.664 122.558 335.304 122.654 334.992 122.846C334.68 123.034 334.438 123.304 334.266 123.656C334.094 124.004 334.008 124.41 334.008 124.874L333.996 124.37ZM343.032 128.144C342.456 128.144 341.938 128.006 341.478 127.73C341.018 127.454 340.658 127.072 340.398 126.584C340.142 126.092 340.014 125.536 340.014 124.916C340.014 124.312 340.144 123.766 340.404 123.278C340.668 122.79 341.03 122.408 341.49 122.132C341.95 121.852 342.464 121.712 343.032 121.712C343.612 121.712 344.12 121.85 344.556 122.126C344.996 122.402 345.334 122.784 345.57 123.272C345.81 123.76 345.93 124.312 345.93 124.928V125.162H340.968L340.98 124.898C340.984 125.362 341.076 125.778 341.256 126.146C341.44 126.51 341.692 126.794 342.012 126.998C342.332 127.202 342.692 127.304 343.092 127.304C343.36 127.304 343.608 127.272 343.836 127.208C344.068 127.14 344.268 127.044 344.436 126.92C344.608 126.792 344.74 126.644 344.832 126.476H345.792C345.72 126.732 345.568 126.988 345.336 127.244C345.108 127.5 344.796 127.714 344.4 127.886C344.008 128.058 343.552 128.144 343.032 128.144ZM340.968 124.37H344.97V124.916C344.97 124.444 344.896 124.032 344.748 123.68C344.6 123.324 344.38 123.048 344.088 122.852C343.8 122.656 343.452 122.558 343.044 122.558C342.636 122.558 342.276 122.654 341.964 122.846C341.652 123.034 341.41 123.304 341.238 123.656C341.066 124.004 340.98 124.41 340.98 124.874L340.968 124.37ZM349.483 128C349.191 128 348.925 127.938 348.685 127.814C348.449 127.686 348.263 127.512 348.127 127.292C347.991 127.068 347.923 126.82 347.923 126.548L347.917 122.708H346.837L346.843 121.856H347.509C347.661 121.856 347.783 121.808 347.875 121.712C347.971 121.616 348.019 121.494 348.019 121.346V120.356H348.883V121.856H350.365L350.359 122.708H348.877L348.883 126.488C348.883 126.676 348.945 126.834 349.069 126.962C349.197 127.086 349.355 127.148 349.543 127.148H350.359V128H349.483ZM352.032 121.856H352.992V128H352.032V121.856ZM353.076 119.6V120.74H351.948V119.6H353.076ZM355.091 121.856H356.015V124.514H355.631C355.631 123.946 355.729 123.452 355.925 123.032C356.121 122.608 356.401 122.282 356.765 122.054C357.129 121.826 357.557 121.712 358.049 121.712C358.489 121.712 358.879 121.806 359.219 121.994C359.559 122.182 359.825 122.46 360.017 122.828C360.213 123.192 360.311 123.63 360.311 124.142V128H359.351V124.238C359.351 123.882 359.287 123.578 359.159 123.326C359.035 123.074 358.857 122.882 358.625 122.75C358.393 122.618 358.117 122.552 357.797 122.552C357.453 122.552 357.149 122.628 356.885 122.78C356.621 122.932 356.415 123.146 356.267 123.422C356.123 123.694 356.051 124.006 356.051 124.358V128H355.091V121.856ZM364.694 130.064C364.246 130.064 363.832 129.994 363.452 129.854C363.072 129.714 362.756 129.516 362.504 129.26C362.252 129.004 362.09 128.708 362.018 128.372H362.978C363.066 128.556 363.196 128.712 363.368 128.84C363.54 128.968 363.738 129.064 363.962 129.128C364.186 129.192 364.42 129.224 364.664 129.224C365.056 129.224 365.398 129.144 365.69 128.984C365.986 128.828 366.214 128.608 366.374 128.324C366.534 128.04 366.614 127.712 366.614 127.34V127.088L366.662 125.354L367.16 124.742C367.152 125.286 367.032 125.772 366.8 126.2C366.568 126.624 366.25 126.954 365.846 127.19C365.446 127.426 364.996 127.544 364.496 127.544C363.976 127.544 363.506 127.42 363.086 127.172C362.666 126.92 362.336 126.574 362.096 126.134C361.856 125.69 361.736 125.19 361.736 124.634C361.736 124.078 361.856 123.578 362.096 123.134C362.336 122.69 362.666 122.342 363.086 122.09C363.506 121.838 363.976 121.712 364.496 121.712C364.996 121.712 365.446 121.832 365.846 122.072C366.25 122.312 366.568 122.646 366.8 123.074C367.032 123.502 367.152 123.99 367.16 124.538L366.662 123.998V121.856H367.592L367.574 127.34C367.574 127.872 367.454 128.344 367.214 128.756C366.974 129.172 366.636 129.494 366.2 129.722C365.764 129.95 365.262 130.064 364.694 130.064ZM364.682 126.704C365.046 126.704 365.374 126.614 365.666 126.434C365.962 126.254 366.196 126.006 366.368 125.69C366.54 125.374 366.626 125.022 366.626 124.634C366.626 124.242 366.54 123.888 366.368 123.572C366.196 123.256 365.962 123.008 365.666 122.828C365.374 122.644 365.046 122.552 364.682 122.552C364.314 122.552 363.982 122.644 363.686 122.828C363.39 123.008 363.158 123.256 362.99 123.572C362.826 123.888 362.744 124.242 362.744 124.634C362.744 125.022 362.826 125.374 362.99 125.69C363.158 126.006 363.39 126.254 363.686 126.434C363.982 126.614 364.314 126.704 364.682 126.704ZM370.725 126.68V128H369.405V126.68H370.725ZM372.552 119.6H373.512V124.736L376.296 121.856H377.49L374.688 124.784L377.598 128H376.362L373.512 124.904V128H372.552V119.6ZM380.655 128C380.363 128 380.097 127.938 379.857 127.814C379.621 127.686 379.435 127.512 379.299 127.292C379.163 127.068 379.095 126.82 379.095 126.548L379.089 122.708H378.009L378.015 121.856H378.681C378.833 121.856 378.955 121.808 379.047 121.712C379.143 121.616 379.191 121.494 379.191 121.346V120.356H380.055V121.856H381.537L381.531 122.708H380.049L380.055 126.488C380.055 126.676 380.117 126.834 380.241 126.962C380.369 127.086 380.527 127.148 380.715 127.148H381.531V128H380.655Z" fill="white"/>
<rect x="404" y="85" width="91" height="24" rx="12" fill="#F2F2F2"/>
<path d="M437.424 100.07H438.852C439.088 100.07 439.296 100.02 439.476 99.92C439.66 99.82 439.802 99.68 439.902 99.5C440.002 99.316 440.052 99.106 440.052 98.87V92.6H441.048V98.93C441.048 99.334 440.958 99.694 440.778 100.01C440.598 100.322 440.346 100.566 440.022 100.742C439.698 100.914 439.328 101 438.912 101H437.424V100.07ZM442.533 92.6H443.625L446.283 99.71L448.845 92.6H449.949L446.763 101H445.743L442.533 92.6ZM451.499 92.6H452.741L455.753 99.332L455.909 99.758L456.059 99.332L459.017 92.6H460.283V101H459.287V94.364V94.208L456.317 101H455.483L452.489 94.244V94.364V101H451.499V92.6Z" fill="black"/>
<rect x="404" y="113" width="91" height="24" rx="12" fill="#F2F2F2"/>
<path d="M421.452 122.856H422.412V129H421.452V122.856ZM422.496 120.6V121.74H421.368V120.6H422.496ZM428.297 128.232C428.885 128.232 429.417 128.086 429.893 127.794C430.369 127.498 430.741 127.09 431.009 126.57C431.281 126.046 431.417 125.456 431.417 124.8C431.417 124.14 431.283 123.55 431.015 123.03C430.751 122.506 430.381 122.098 429.905 121.806C429.433 121.514 428.897 121.368 428.297 121.368C427.705 121.368 427.171 121.516 426.695 121.812C426.223 122.104 425.851 122.51 425.579 123.03C425.311 123.55 425.177 124.14 425.177 124.8C425.177 125.46 425.311 126.05 425.579 126.57C425.851 127.09 426.223 127.498 426.695 127.794C427.171 128.086 427.705 128.232 428.297 128.232ZM428.297 129.144C427.521 129.144 426.817 128.956 426.185 128.58C425.553 128.2 425.055 127.68 424.691 127.02C424.327 126.356 424.145 125.616 424.145 124.8C424.145 123.984 424.327 123.246 424.691 122.586C425.055 121.922 425.553 121.402 426.185 121.026C426.817 120.646 427.521 120.456 428.297 120.456C429.069 120.456 429.771 120.646 430.403 121.026C431.039 121.402 431.539 121.922 431.903 122.586C432.267 123.246 432.449 123.984 432.449 124.8C432.449 125.616 432.267 126.356 431.903 127.02C431.539 127.68 431.039 128.2 430.403 128.58C429.771 128.956 429.069 129.144 428.297 129.144ZM436.717 129.144C436.141 129.144 435.631 129.038 435.187 128.826C434.747 128.614 434.403 128.318 434.155 127.938C433.911 127.558 433.789 127.122 433.789 126.63H434.809C434.809 126.946 434.889 127.226 435.049 127.47C435.209 127.714 435.435 127.904 435.727 128.04C436.019 128.176 436.353 128.244 436.729 128.244C437.101 128.244 437.427 128.182 437.707 128.058C437.991 127.93 438.209 127.752 438.361 127.524C438.517 127.292 438.595 127.026 438.595 126.726C438.595 126.346 438.481 126.02 438.253 125.748C438.029 125.476 437.729 125.308 437.353 125.244L435.997 125.01C435.589 124.938 435.235 124.796 434.935 124.584C434.635 124.372 434.405 124.108 434.245 123.792C434.085 123.476 434.005 123.132 434.005 122.76C434.005 122.324 434.119 121.932 434.347 121.584C434.579 121.232 434.899 120.956 435.307 120.756C435.719 120.556 436.181 120.456 436.693 120.456C437.221 120.456 437.691 120.556 438.103 120.756C438.515 120.952 438.835 121.226 439.063 121.578C439.291 121.93 439.405 122.332 439.405 122.784H438.385C438.385 122.508 438.315 122.262 438.175 122.046C438.035 121.826 437.837 121.656 437.581 121.536C437.329 121.416 437.037 121.356 436.705 121.356C436.373 121.356 436.079 121.414 435.823 121.53C435.567 121.646 435.367 121.81 435.223 122.022C435.083 122.234 435.013 122.48 435.013 122.76C435.013 123.092 435.119 123.378 435.331 123.618C435.547 123.858 435.829 124.008 436.177 124.068L437.557 124.308C437.957 124.38 438.313 124.534 438.625 124.77C438.937 125.006 439.179 125.296 439.351 125.64C439.523 125.98 439.609 126.338 439.609 126.714C439.609 127.166 439.487 127.578 439.243 127.95C438.999 128.318 438.657 128.61 438.217 128.826C437.777 129.038 437.277 129.144 436.717 129.144ZM443.591 120.6H444.665L447.893 129H446.837L446.027 126.768H442.313L441.557 129H440.477L443.591 120.6ZM445.703 125.904L444.269 121.998L444.125 121.488L443.981 121.998L442.619 125.904H445.703ZM449.202 122.856H450.162V124.914L449.76 125.514C449.776 124.962 449.876 124.482 450.06 124.074C450.248 123.662 450.508 123.346 450.84 123.126C451.172 122.906 451.558 122.796 451.998 122.796H452.214V123.798H451.962C451.598 123.798 451.28 123.868 451.008 124.008C450.736 124.148 450.526 124.348 450.378 124.608C450.234 124.864 450.162 125.166 450.162 125.514V129H449.202V122.856ZM453.491 122.856H454.415V125.514H454.091C454.091 124.938 454.179 124.44 454.355 124.02C454.535 123.6 454.793 123.278 455.129 123.054C455.465 122.826 455.865 122.712 456.329 122.712C456.765 122.712 457.147 122.812 457.475 123.012C457.803 123.208 458.057 123.488 458.237 123.852C458.417 124.216 458.507 124.64 458.507 125.124V129H457.547V125.166C457.547 124.83 457.489 124.54 457.373 124.296C457.261 124.048 457.095 123.858 456.875 123.726C456.659 123.594 456.399 123.528 456.095 123.528C455.763 123.528 455.473 123.602 455.225 123.75C454.977 123.898 454.785 124.11 454.649 124.386C454.517 124.662 454.451 124.986 454.451 125.358V129H453.491V122.856ZM461.603 125.166C461.603 124.83 461.545 124.54 461.429 124.296C461.317 124.048 461.153 123.858 460.937 123.726C460.721 123.594 460.459 123.528 460.151 123.528C459.823 123.528 459.535 123.604 459.287 123.756C459.039 123.904 458.847 124.116 458.711 124.392C458.575 124.664 458.507 124.986 458.507 125.358L457.967 125.514C457.967 124.962 458.063 124.474 458.255 124.05C458.447 123.626 458.721 123.298 459.077 123.066C459.437 122.83 459.855 122.712 460.331 122.712C460.767 122.712 461.153 122.812 461.489 123.012C461.829 123.208 462.093 123.488 462.281 123.852C462.469 124.216 462.563 124.64 462.563 125.124V129H461.603V125.166ZM467.496 129.144C466.836 129.144 466.258 128.974 465.762 128.634C465.27 128.29 464.89 127.804 464.622 127.176C464.354 126.544 464.22 125.806 464.22 124.962C464.22 124.054 464.358 123.26 464.634 122.58C464.91 121.896 465.296 121.372 465.792 121.008C466.288 120.64 466.856 120.456 467.496 120.456C467.9 120.456 468.286 120.514 468.654 120.63C469.022 120.746 469.354 120.938 469.65 121.206C469.946 121.47 470.174 121.812 470.334 122.232H469.338C469.246 122.068 469.11 121.92 468.93 121.788C468.754 121.656 468.546 121.552 468.306 121.476C468.07 121.396 467.818 121.356 467.55 121.356C467.106 121.356 466.706 121.48 466.35 121.728C465.998 121.976 465.716 122.368 465.504 122.904C465.292 123.436 465.184 124.11 465.18 124.926C465.304 124.614 465.488 124.342 465.732 124.11C465.976 123.874 466.268 123.692 466.608 123.564C466.948 123.436 467.318 123.372 467.718 123.372C468.258 123.372 468.744 123.498 469.176 123.75C469.612 123.998 469.952 124.342 470.196 124.782C470.444 125.222 470.568 125.714 470.568 126.258C470.568 126.802 470.434 127.294 470.166 127.734C469.902 128.174 469.536 128.52 469.068 128.772C468.6 129.02 468.076 129.144 467.496 129.144ZM467.538 128.244C467.918 128.244 468.26 128.16 468.564 127.992C468.868 127.82 469.106 127.584 469.278 127.284C469.45 126.98 469.536 126.64 469.536 126.264C469.536 125.884 469.448 125.542 469.272 125.238C469.096 124.93 468.852 124.688 468.54 124.512C468.232 124.336 467.884 124.248 467.496 124.248C467.112 124.248 466.766 124.336 466.458 124.512C466.154 124.684 465.914 124.924 465.738 125.232C465.566 125.536 465.48 125.876 465.48 126.252C465.48 126.632 465.568 126.974 465.744 127.278C465.92 127.578 466.164 127.814 466.476 127.986C466.792 128.158 467.146 128.244 467.538 128.244ZM475.725 126.93H471.465V126.03L475.719 120.6H476.301L476.637 120.714L472.497 126.03H475.725V120.6H476.709V126.03H478.017V126.93H476.709V129H475.725V126.93Z" fill="black"/>
<rect x="404" y="140" width="91" height="24" rx="12" fill="#F2F2F2"/>
<path d="M443.471 155.07H444.899C445.135 155.07 445.343 155.02 445.523 154.92C445.707 154.82 445.849 154.68 445.949 154.5C446.049 154.316 446.099 154.106 446.099 153.87V147.6H447.095V153.93C447.095 154.334 447.005 154.694 446.825 155.01C446.645 155.322 446.393 155.566 446.069 155.742C445.745 155.914 445.375 156 444.959 156H443.471V155.07ZM451.91 156.144C451.334 156.144 450.824 156.038 450.38 155.826C449.94 155.614 449.596 155.318 449.348 154.938C449.104 154.558 448.982 154.122 448.982 153.63H450.002C450.002 153.946 450.082 154.226 450.242 154.47C450.402 154.714 450.628 154.904 450.92 155.04C451.212 155.176 451.546 155.244 451.922 155.244C452.294 155.244 452.62 155.182 452.9 155.058C453.184 154.93 453.402 154.752 453.554 154.524C453.71 154.292 453.788 154.026 453.788 153.726C453.788 153.346 453.674 153.02 453.446 152.748C453.222 152.476 452.922 152.308 452.546 152.244L451.19 152.01C450.782 151.938 450.428 151.796 450.128 151.584C449.828 151.372 449.598 151.108 449.438 150.792C449.278 150.476 449.198 150.132 449.198 149.76C449.198 149.324 449.312 148.932 449.54 148.584C449.772 148.232 450.092 147.956 450.5 147.756C450.912 147.556 451.374 147.456 451.886 147.456C452.414 147.456 452.884 147.556 453.296 147.756C453.708 147.952 454.028 148.226 454.256 148.578C454.484 148.93 454.598 149.332 454.598 149.784H453.578C453.578 149.508 453.508 149.262 453.368 149.046C453.228 148.826 453.03 148.656 452.774 148.536C452.522 148.416 452.23 148.356 451.898 148.356C451.566 148.356 451.272 148.414 451.016 148.53C450.76 148.646 450.56 148.81 450.416 149.022C450.276 149.234 450.206 149.48 450.206 149.76C450.206 150.092 450.312 150.378 450.524 150.618C450.74 150.858 451.022 151.008 451.37 151.068L452.75 151.308C453.15 151.38 453.506 151.534 453.818 151.77C454.13 152.006 454.372 152.296 454.544 152.64C454.716 152.98 454.802 153.338 454.802 153.714C454.802 154.166 454.68 154.578 454.436 154.95C454.192 155.318 453.85 155.61 453.41 155.826C452.97 156.038 452.47 156.144 451.91 156.144Z" fill="black"/>
<rect x="460" y="279" width="167" height="46" rx="12" fill="#D7C6FF"/>
<path d="M491.101 291.6H492.157L496.669 298.416V291.6H497.665V300H496.597L492.097 293.184V300H491.101V291.6ZM502.167 293.712C502.631 293.712 503.039 293.798 503.391 293.97C503.743 294.138 504.015 294.386 504.207 294.714C504.403 295.038 504.501 295.424 504.501 295.872V300H503.565V297.702H503.817C503.817 298.214 503.729 298.654 503.553 299.022C503.377 299.386 503.125 299.664 502.797 299.856C502.469 300.048 502.079 300.144 501.627 300.144C501.235 300.144 500.881 300.068 500.565 299.916C500.249 299.764 500.001 299.554 499.821 299.286C499.641 299.018 499.551 298.714 499.551 298.374C499.551 298.054 499.633 297.76 499.797 297.492C499.965 297.22 500.195 296.998 500.487 296.826C500.783 296.654 501.115 296.548 501.483 296.508L503.121 296.328C503.257 296.312 503.363 296.256 503.439 296.16C503.515 296.064 503.553 295.922 503.553 295.734L503.625 296.994L501.615 297.216C501.407 297.24 501.221 297.302 501.057 297.402C500.897 297.502 500.771 297.632 500.679 297.792C500.591 297.952 500.547 298.128 500.547 298.32C500.547 298.528 500.601 298.712 500.709 298.872C500.821 299.032 500.975 299.158 501.171 299.25C501.367 299.338 501.591 299.382 501.843 299.382C502.187 299.382 502.487 299.312 502.743 299.172C503.003 299.032 503.203 298.836 503.343 298.584C503.483 298.328 503.553 298.034 503.553 297.702V295.746C503.553 295.502 503.495 295.288 503.379 295.104C503.263 294.916 503.099 294.772 502.887 294.672C502.679 294.568 502.437 294.516 502.161 294.516C501.885 294.516 501.637 294.564 501.417 294.66C501.197 294.752 501.019 294.878 500.883 295.038C500.751 295.194 500.671 295.364 500.643 295.548H499.683C499.731 295.2 499.867 294.888 500.091 294.612C500.319 294.332 500.613 294.112 500.973 293.952C501.333 293.792 501.731 293.712 502.167 293.712ZM508.397 300C508.105 300 507.839 299.938 507.599 299.814C507.363 299.686 507.177 299.512 507.041 299.292C506.905 299.068 506.837 298.82 506.837 298.548L506.831 294.708H505.751L505.757 293.856H506.423C506.575 293.856 506.697 293.808 506.789 293.712C506.885 293.616 506.933 293.494 506.933 293.346V292.356H507.797V293.856H509.279L509.273 294.708H507.791L507.797 298.488C507.797 298.676 507.859 298.834 507.983 298.962C508.111 299.086 508.269 299.148 508.457 299.148H509.273V300H508.397ZM510.946 293.856H511.906V300H510.946V293.856ZM511.99 291.6V292.74H510.862V291.6H511.99ZM513.207 293.856H514.251L516.123 298.716L517.935 293.856H518.955L516.537 300H515.637L513.207 293.856ZM522.642 300.144C522.066 300.144 521.548 300.006 521.088 299.73C520.628 299.454 520.268 299.072 520.008 298.584C519.752 298.092 519.624 297.536 519.624 296.916C519.624 296.312 519.754 295.766 520.014 295.278C520.278 294.79 520.64 294.408 521.1 294.132C521.56 293.852 522.074 293.712 522.642 293.712C523.222 293.712 523.73 293.85 524.166 294.126C524.606 294.402 524.944 294.784 525.18 295.272C525.42 295.76 525.54 296.312 525.54 296.928V297.162H520.578L520.59 296.898C520.594 297.362 520.686 297.778 520.866 298.146C521.05 298.51 521.302 298.794 521.622 298.998C521.942 299.202 522.302 299.304 522.702 299.304C522.97 299.304 523.218 299.272 523.446 299.208C523.678 299.14 523.878 299.044 524.046 298.92C524.218 298.792 524.35 298.644 524.442 298.476H525.402C525.33 298.732 525.178 298.988 524.946 299.244C524.718 299.5 524.406 299.714 524.01 299.886C523.618 300.058 523.162 300.144 522.642 300.144ZM520.578 296.37H524.58V296.916C524.58 296.444 524.506 296.032 524.358 295.68C524.21 295.324 523.99 295.048 523.698 294.852C523.41 294.656 523.062 294.558 522.654 294.558C522.246 294.558 521.886 294.654 521.574 294.846C521.262 295.034 521.02 295.304 520.848 295.656C520.676 296.004 520.59 296.41 520.59 296.874L520.578 296.37ZM532.228 300.144C531.652 300.144 531.134 300.006 530.674 299.73C530.214 299.454 529.854 299.072 529.594 298.584C529.338 298.092 529.21 297.536 529.21 296.916C529.21 296.312 529.34 295.766 529.6 295.278C529.864 294.79 530.226 294.408 530.686 294.132C531.146 293.852 531.66 293.712 532.228 293.712C532.808 293.712 533.316 293.85 533.752 294.126C534.192 294.402 534.53 294.784 534.766 295.272C535.006 295.76 535.126 296.312 535.126 296.928V297.162H530.164L530.176 296.898C530.18 297.362 530.272 297.778 530.452 298.146C530.636 298.51 530.888 298.794 531.208 298.998C531.528 299.202 531.888 299.304 532.288 299.304C532.556 299.304 532.804 299.272 533.032 299.208C533.264 299.14 533.464 299.044 533.632 298.92C533.804 298.792 533.936 298.644 534.028 298.476H534.988C534.916 298.732 534.764 298.988 534.532 299.244C534.304 299.5 533.992 299.714 533.596 299.886C533.204 300.058 532.748 300.144 532.228 300.144ZM530.164 296.37H534.166V296.916C534.166 296.444 534.092 296.032 533.944 295.68C533.796 295.324 533.576 295.048 533.284 294.852C532.996 294.656 532.648 294.558 532.24 294.558C531.832 294.558 531.472 294.654 531.16 294.846C530.848 295.034 530.606 295.304 530.434 295.656C530.262 296.004 530.176 296.41 530.176 296.874L530.164 296.37ZM538.268 297.258L538.142 297.018L535.892 293.856H537.008L538.76 296.376L538.868 296.574L541.292 300H540.176L538.268 297.258ZM538.208 296.55L538.382 296.346L540.086 293.856H541.178L538.934 297.054L538.67 297.378L536.876 300H535.784L538.208 296.55ZM544.966 300.144C544.39 300.144 543.872 300.006 543.412 299.73C542.952 299.454 542.592 299.072 542.332 298.584C542.076 298.092 541.948 297.536 541.948 296.916C541.948 296.312 542.078 295.766 542.338 295.278C542.602 294.79 542.964 294.408 543.424 294.132C543.884 293.852 544.398 293.712 544.966 293.712C545.546 293.712 546.054 293.85 546.49 294.126C546.93 294.402 547.268 294.784 547.504 295.272C547.744 295.76 547.864 296.312 547.864 296.928V297.162H542.902L542.914 296.898C542.918 297.362 543.01 297.778 543.19 298.146C543.374 298.51 543.626 298.794 543.946 298.998C544.266 299.202 544.626 299.304 545.026 299.304C545.294 299.304 545.542 299.272 545.77 299.208C546.002 299.14 546.202 299.044 546.37 298.92C546.542 298.792 546.674 298.644 546.766 298.476H547.726C547.654 298.732 547.502 298.988 547.27 299.244C547.042 299.5 546.73 299.714 546.334 299.886C545.942 300.058 545.486 300.144 544.966 300.144ZM542.902 296.37H546.904V296.916C546.904 296.444 546.83 296.032 546.682 295.68C546.534 295.324 546.314 295.048 546.022 294.852C545.734 294.656 545.386 294.558 544.978 294.558C544.57 294.558 544.21 294.654 543.898 294.846C543.586 295.034 543.344 295.304 543.172 295.656C543 296.004 542.914 296.41 542.914 296.874L542.902 296.37ZM551.993 300.144C551.413 300.144 550.889 300.004 550.421 299.724C549.953 299.444 549.585 299.06 549.317 298.572C549.053 298.08 548.921 297.532 548.921 296.928C548.921 296.324 549.053 295.778 549.317 295.29C549.585 294.798 549.953 294.412 550.421 294.132C550.889 293.852 551.413 293.712 551.993 293.712C552.485 293.712 552.927 293.796 553.319 293.964C553.711 294.128 554.037 294.376 554.297 294.708C554.557 295.036 554.735 295.44 554.831 295.92H553.871C553.783 295.624 553.645 295.376 553.457 295.176C553.269 294.976 553.049 294.828 552.797 294.732C552.545 294.632 552.277 294.582 551.993 294.582C551.597 294.582 551.241 294.682 550.925 294.882C550.613 295.082 550.369 295.36 550.193 295.716C550.017 296.072 549.929 296.476 549.929 296.928C549.929 297.376 550.017 297.778 550.193 298.134C550.369 298.49 550.613 298.77 550.925 298.974C551.241 299.174 551.597 299.274 551.993 299.274C552.277 299.274 552.545 299.226 552.797 299.13C553.049 299.03 553.269 298.88 553.457 298.68C553.645 298.48 553.783 298.232 553.871 297.936H554.831C554.739 298.4 554.559 298.798 554.291 299.13C554.023 299.462 553.691 299.714 553.295 299.886C552.899 300.058 552.465 300.144 551.993 300.144ZM561.432 300H560.508V297.342H560.892C560.892 297.91 560.794 298.406 560.598 298.83C560.402 299.25 560.122 299.574 559.758 299.802C559.394 300.03 558.966 300.144 558.474 300.144C558.034 300.144 557.644 300.05 557.304 299.862C556.964 299.674 556.696 299.398 556.5 299.034C556.308 298.666 556.212 298.226 556.212 297.714V293.856H557.172V297.618C557.172 297.974 557.234 298.278 557.358 298.53C557.486 298.782 557.666 298.974 557.898 299.106C558.13 299.238 558.406 299.304 558.726 299.304C559.07 299.304 559.374 299.228 559.638 299.076C559.902 298.924 560.106 298.712 560.25 298.44C560.398 298.164 560.472 297.85 560.472 297.498V293.856H561.432V300ZM565.503 300C565.211 300 564.945 299.938 564.705 299.814C564.469 299.686 564.283 299.512 564.147 299.292C564.011 299.068 563.943 298.82 563.943 298.548L563.937 294.708H562.857L562.863 293.856H563.529C563.681 293.856 563.803 293.808 563.895 293.712C563.991 293.616 564.039 293.494 564.039 293.346V292.356H564.903V293.856H566.385L566.379 294.708H564.897L564.903 298.488C564.903 298.676 564.965 298.834 565.089 298.962C565.217 299.086 565.375 299.148 565.563 299.148H566.379V300H565.503ZM570.218 293.712C570.682 293.712 571.09 293.798 571.442 293.97C571.794 294.138 572.066 294.386 572.258 294.714C572.454 295.038 572.552 295.424 572.552 295.872V300H571.616V297.702H571.868C571.868 298.214 571.78 298.654 571.604 299.022C571.428 299.386 571.176 299.664 570.848 299.856C570.52 300.048 570.13 300.144 569.678 300.144C569.286 300.144 568.932 300.068 568.616 299.916C568.3 299.764 568.052 299.554 567.872 299.286C567.692 299.018 567.602 298.714 567.602 298.374C567.602 298.054 567.684 297.76 567.848 297.492C568.016 297.22 568.246 296.998 568.538 296.826C568.834 296.654 569.166 296.548 569.534 296.508L571.172 296.328C571.308 296.312 571.414 296.256 571.49 296.16C571.566 296.064 571.604 295.922 571.604 295.734L571.676 296.994L569.666 297.216C569.458 297.24 569.272 297.302 569.108 297.402C568.948 297.502 568.822 297.632 568.73 297.792C568.642 297.952 568.598 298.128 568.598 298.32C568.598 298.528 568.652 298.712 568.76 298.872C568.872 299.032 569.026 299.158 569.222 299.25C569.418 299.338 569.642 299.382 569.894 299.382C570.238 299.382 570.538 299.312 570.794 299.172C571.054 299.032 571.254 298.836 571.394 298.584C571.534 298.328 571.604 298.034 571.604 297.702V295.746C571.604 295.502 571.546 295.288 571.43 295.104C571.314 294.916 571.15 294.772 570.938 294.672C570.73 294.568 570.488 294.516 570.212 294.516C569.936 294.516 569.688 294.564 569.468 294.66C569.248 294.752 569.07 294.878 568.934 295.038C568.802 295.194 568.722 295.364 568.694 295.548H567.734C567.782 295.2 567.918 294.888 568.142 294.612C568.37 294.332 568.664 294.112 569.024 293.952C569.384 293.792 569.782 293.712 570.218 293.712ZM574.474 291.6H575.434V300H574.474V291.6ZM577.678 300.144C577.15 300.144 576.684 300.028 576.28 299.796C575.876 299.56 575.56 299.232 575.332 298.812C575.108 298.388 574.992 297.898 574.984 297.342H575.38V296.514H574.984C574.992 295.958 575.108 295.47 575.332 295.05C575.56 294.626 575.876 294.298 576.28 294.066C576.684 293.83 577.15 293.712 577.678 293.712C578.25 293.712 578.758 293.848 579.202 294.12C579.65 294.388 579.998 294.766 580.246 295.254C580.498 295.742 580.624 296.3 580.624 296.928C580.624 297.556 580.498 298.114 580.246 298.602C579.998 299.09 579.65 299.47 579.202 299.742C578.758 300.01 578.25 300.144 577.678 300.144ZM577.528 299.274C577.936 299.274 578.298 299.176 578.614 298.98C578.93 298.78 579.176 298.504 579.352 298.152C579.528 297.796 579.616 297.388 579.616 296.928C579.616 296.468 579.528 296.062 579.352 295.71C579.176 295.354 578.93 295.078 578.614 294.882C578.298 294.682 577.936 294.582 577.528 294.582C577.116 294.582 576.75 294.682 576.43 294.882C576.11 295.078 575.86 295.354 575.68 295.71C575.504 296.062 575.416 296.468 575.416 296.928C575.416 297.388 575.504 297.796 575.68 298.152C575.86 298.504 576.11 298.78 576.43 298.98C576.75 299.176 577.116 299.274 577.528 299.274ZM582.196 291.6H583.156V300H582.196V291.6ZM587.751 300.144C587.175 300.144 586.657 300.006 586.197 299.73C585.737 299.454 585.377 299.072 585.117 298.584C584.861 298.092 584.733 297.536 584.733 296.916C584.733 296.312 584.863 295.766 585.123 295.278C585.387 294.79 585.749 294.408 586.209 294.132C586.669 293.852 587.183 293.712 587.751 293.712C588.331 293.712 588.839 293.85 589.275 294.126C589.715 294.402 590.053 294.784 590.289 295.272C590.529 295.76 590.649 296.312 590.649 296.928V297.162H585.687L585.699 296.898C585.703 297.362 585.795 297.778 585.975 298.146C586.159 298.51 586.411 298.794 586.731 298.998C587.051 299.202 587.411 299.304 587.811 299.304C588.079 299.304 588.327 299.272 588.555 299.208C588.787 299.14 588.987 299.044 589.155 298.92C589.327 298.792 589.459 298.644 589.551 298.476H590.511C590.439 298.732 590.287 298.988 590.055 299.244C589.827 299.5 589.515 299.714 589.119 299.886C588.727 300.058 588.271 300.144 587.751 300.144ZM585.687 296.37H589.689V296.916C589.689 296.444 589.615 296.032 589.467 295.68C589.319 295.324 589.099 295.048 588.807 294.852C588.519 294.656 588.171 294.558 587.763 294.558C587.355 294.558 586.995 294.654 586.683 294.846C586.371 295.034 586.129 295.304 585.957 295.656C585.785 296.004 585.699 296.41 585.699 296.874L585.687 296.37ZM594.256 300.144C593.792 300.144 593.372 300.07 592.996 299.922C592.624 299.774 592.326 299.568 592.102 299.304C591.882 299.036 591.764 298.734 591.748 298.398H592.726C592.742 298.582 592.818 298.748 592.954 298.896C593.09 299.04 593.27 299.154 593.494 299.238C593.718 299.322 593.968 299.364 594.244 299.364C594.524 299.364 594.77 299.318 594.982 299.226C595.198 299.134 595.364 299.006 595.48 298.842C595.6 298.678 595.66 298.492 595.66 298.284C595.66 298.136 595.632 298.002 595.576 297.882C595.52 297.762 595.438 297.664 595.33 297.588C595.226 297.508 595.098 297.454 594.946 297.426L593.464 297.156C593.152 297.1 592.882 296.996 592.654 296.844C592.43 296.692 592.258 296.5 592.138 296.268C592.022 296.032 591.964 295.764 591.964 295.464C591.964 295.14 592.056 294.846 592.24 294.582C592.428 294.314 592.69 294.102 593.026 293.946C593.362 293.79 593.746 293.712 594.178 293.712C594.606 293.712 594.992 293.782 595.336 293.922C595.68 294.062 595.954 294.256 596.158 294.504C596.362 294.752 596.472 295.028 596.488 295.332H595.51C595.498 295.172 595.432 295.028 595.312 294.9C595.196 294.772 595.04 294.672 594.844 294.6C594.648 294.528 594.428 294.492 594.184 294.492C593.936 294.492 593.716 294.534 593.524 294.618C593.332 294.702 593.182 294.818 593.074 294.966C592.97 295.11 592.918 295.274 592.918 295.458C592.918 295.598 592.942 295.722 592.99 295.83C593.042 295.934 593.118 296.022 593.218 296.094C593.322 296.162 593.45 296.21 593.602 296.238L595.12 296.508C595.432 296.564 595.7 296.674 595.924 296.838C596.152 297.002 596.324 297.206 596.44 297.45C596.56 297.694 596.62 297.96 596.62 298.248C596.62 298.608 596.516 298.932 596.308 299.22C596.104 299.508 595.822 299.734 595.462 299.898C595.102 300.062 594.7 300.144 594.256 300.144ZM476.294 308.708H475.214V307.856H476.294V307.052C476.294 306.768 476.36 306.516 476.492 306.296C476.624 306.076 476.808 305.906 477.044 305.786C477.28 305.662 477.55 305.6 477.854 305.6H478.838V306.452H477.914C477.718 306.452 477.558 306.514 477.434 306.638C477.314 306.758 477.254 306.916 477.254 307.112V307.856H478.778V308.708H477.254V314H476.294V308.708ZM482.713 314.144C482.129 314.144 481.597 314.006 481.117 313.73C480.641 313.45 480.265 313.066 479.989 312.578C479.717 312.086 479.581 311.536 479.581 310.928C479.581 310.32 479.717 309.772 479.989 309.284C480.265 308.792 480.643 308.408 481.123 308.132C481.603 307.852 482.135 307.712 482.719 307.712C483.303 307.712 483.833 307.852 484.309 308.132C484.785 308.408 485.159 308.79 485.431 309.278C485.707 309.766 485.845 310.316 485.845 310.928C485.845 311.54 485.707 312.09 485.431 312.578C485.159 313.066 484.785 313.45 484.309 313.73C483.833 314.006 483.301 314.144 482.713 314.144ZM482.725 313.268C483.125 313.268 483.485 313.17 483.805 312.974C484.125 312.778 484.377 312.504 484.561 312.152C484.745 311.796 484.837 311.388 484.837 310.928C484.837 310.468 484.745 310.06 484.561 309.704C484.377 309.348 484.123 309.072 483.799 308.876C483.479 308.68 483.119 308.582 482.719 308.582C482.319 308.582 481.957 308.68 481.633 308.876C481.309 309.072 481.053 309.348 480.865 309.704C480.681 310.06 480.589 310.468 480.589 310.928C480.589 311.388 480.681 311.796 480.865 312.152C481.053 312.504 481.309 312.778 481.633 312.974C481.961 313.17 482.325 313.268 482.725 313.268ZM487.427 307.856H488.387V309.914L487.985 310.514C488.001 309.962 488.101 309.482 488.285 309.074C488.473 308.662 488.733 308.346 489.065 308.126C489.397 307.906 489.783 307.796 490.223 307.796H490.439V308.798H490.187C489.823 308.798 489.505 308.868 489.233 309.008C488.961 309.148 488.751 309.348 488.603 309.608C488.459 309.864 488.387 310.166 488.387 310.514V314H487.427V307.856ZM497.283 314.144C496.623 314.144 496.045 313.974 495.549 313.634C495.057 313.29 494.677 312.804 494.409 312.176C494.141 311.544 494.007 310.806 494.007 309.962C494.007 309.054 494.145 308.26 494.421 307.58C494.697 306.896 495.083 306.372 495.579 306.008C496.075 305.64 496.643 305.456 497.283 305.456C497.687 305.456 498.073 305.514 498.441 305.63C498.809 305.746 499.141 305.938 499.437 306.206C499.733 306.47 499.961 306.812 500.121 307.232H499.125C499.033 307.068 498.897 306.92 498.717 306.788C498.541 306.656 498.333 306.552 498.093 306.476C497.857 306.396 497.605 306.356 497.337 306.356C496.893 306.356 496.493 306.48 496.137 306.728C495.785 306.976 495.503 307.368 495.291 307.904C495.079 308.436 494.971 309.11 494.967 309.926C495.091 309.614 495.275 309.342 495.519 309.11C495.763 308.874 496.055 308.692 496.395 308.564C496.735 308.436 497.105 308.372 497.505 308.372C498.045 308.372 498.531 308.498 498.963 308.75C499.399 308.998 499.739 309.342 499.983 309.782C500.231 310.222 500.355 310.714 500.355 311.258C500.355 311.802 500.221 312.294 499.953 312.734C499.689 313.174 499.323 313.52 498.855 313.772C498.387 314.02 497.863 314.144 497.283 314.144ZM497.325 313.244C497.705 313.244 498.047 313.16 498.351 312.992C498.655 312.82 498.893 312.584 499.065 312.284C499.237 311.98 499.323 311.64 499.323 311.264C499.323 310.884 499.235 310.542 499.059 310.238C498.883 309.93 498.639 309.688 498.327 309.512C498.019 309.336 497.671 309.248 497.283 309.248C496.899 309.248 496.553 309.336 496.245 309.512C495.941 309.684 495.701 309.924 495.525 310.232C495.353 310.536 495.267 310.876 495.267 311.252C495.267 311.632 495.355 311.974 495.531 312.278C495.707 312.578 495.951 312.814 496.263 312.986C496.579 313.158 496.933 313.244 497.325 313.244ZM505.512 311.93H501.252V311.03L505.506 305.6H506.088L506.424 305.714L502.284 311.03H505.512V305.6H506.496V311.03H507.804V311.93H506.496V314H505.512V311.93ZM513.279 310.136V310.976H509.259V310.136H513.279ZM515.376 305.6H516.336V314H515.376V305.6ZM518.58 314.144C518.052 314.144 517.586 314.028 517.182 313.796C516.778 313.56 516.462 313.232 516.234 312.812C516.01 312.388 515.894 311.898 515.886 311.342H516.282V310.514H515.886C515.894 309.958 516.01 309.47 516.234 309.05C516.462 308.626 516.778 308.298 517.182 308.066C517.586 307.83 518.052 307.712 518.58 307.712C519.152 307.712 519.66 307.848 520.104 308.12C520.552 308.388 520.9 308.766 521.148 309.254C521.4 309.742 521.526 310.3 521.526 310.928C521.526 311.556 521.4 312.114 521.148 312.602C520.9 313.09 520.552 313.47 520.104 313.742C519.66 314.01 519.152 314.144 518.58 314.144ZM518.43 313.274C518.838 313.274 519.2 313.176 519.516 312.98C519.832 312.78 520.078 312.504 520.254 312.152C520.43 311.796 520.518 311.388 520.518 310.928C520.518 310.468 520.43 310.062 520.254 309.71C520.078 309.354 519.832 309.078 519.516 308.882C519.2 308.682 518.838 308.582 518.43 308.582C518.018 308.582 517.652 308.682 517.332 308.882C517.012 309.078 516.762 309.354 516.582 309.71C516.406 310.062 516.318 310.468 516.318 310.928C516.318 311.388 516.406 311.796 516.582 312.152C516.762 312.504 517.012 312.78 517.332 312.98C517.652 313.176 518.018 313.274 518.43 313.274ZM523.099 307.856H524.059V314H523.099V307.856ZM524.143 305.6V306.74H523.015V305.6H524.143ZM528.131 314C527.839 314 527.573 313.938 527.333 313.814C527.097 313.686 526.911 313.512 526.775 313.292C526.639 313.068 526.571 312.82 526.571 312.548L526.565 308.708H525.485L525.491 307.856H526.157C526.309 307.856 526.431 307.808 526.523 307.712C526.619 307.616 526.667 307.494 526.667 307.346V306.356H527.531V307.856H529.013L529.007 308.708H527.525L527.531 312.488C527.531 312.676 527.593 312.834 527.717 312.962C527.845 313.086 528.003 313.148 528.191 313.148H529.007V314H528.131ZM533.646 307.856H534.606V314H533.646V307.856ZM534.69 305.6V306.74H533.562V305.6H534.69ZM536.944 305.6H540.34C540.876 305.6 541.346 305.7 541.75 305.9C542.158 306.1 542.472 306.384 542.692 306.752C542.916 307.12 543.028 307.548 543.028 308.036C543.028 308.524 542.914 308.954 542.686 309.326C542.462 309.694 542.144 309.98 541.732 310.184C541.32 310.384 540.84 310.484 540.292 310.484H537.94V314H536.944V305.6ZM540.34 309.554C540.668 309.554 540.954 309.492 541.198 309.368C541.446 309.244 541.636 309.068 541.768 308.84C541.904 308.612 541.972 308.344 541.972 308.036C541.972 307.732 541.904 307.466 541.768 307.238C541.636 307.01 541.446 306.836 541.198 306.716C540.954 306.592 540.668 306.53 540.34 306.53H537.94V309.554H540.34ZM544.368 305.6H545.292V307.538V308.63V310.514H544.908C544.908 309.946 545.006 309.452 545.202 309.032C545.398 308.608 545.678 308.282 546.042 308.054C546.406 307.826 546.834 307.712 547.326 307.712C547.766 307.712 548.156 307.806 548.496 307.994C548.836 308.182 549.102 308.46 549.294 308.828C549.49 309.192 549.588 309.63 549.588 310.142V314H548.628V310.238C548.628 309.882 548.564 309.578 548.436 309.326C548.312 309.074 548.134 308.882 547.902 308.75C547.67 308.618 547.394 308.552 547.074 308.552C546.73 308.552 546.426 308.628 546.162 308.78C545.898 308.932 545.692 309.146 545.544 309.422C545.4 309.694 545.328 310.006 545.328 310.358V314H544.368V305.6ZM554.115 314.144C553.531 314.144 552.999 314.006 552.519 313.73C552.043 313.45 551.667 313.066 551.391 312.578C551.119 312.086 550.983 311.536 550.983 310.928C550.983 310.32 551.119 309.772 551.391 309.284C551.667 308.792 552.045 308.408 552.525 308.132C553.005 307.852 553.537 307.712 554.121 307.712C554.705 307.712 555.235 307.852 555.711 308.132C556.187 308.408 556.561 308.79 556.833 309.278C557.109 309.766 557.247 310.316 557.247 310.928C557.247 311.54 557.109 312.09 556.833 312.578C556.561 313.066 556.187 313.45 555.711 313.73C555.235 314.006 554.703 314.144 554.115 314.144ZM554.127 313.268C554.527 313.268 554.887 313.17 555.207 312.974C555.527 312.778 555.779 312.504 555.963 312.152C556.147 311.796 556.239 311.388 556.239 310.928C556.239 310.468 556.147 310.06 555.963 309.704C555.779 309.348 555.525 309.072 555.201 308.876C554.881 308.68 554.521 308.582 554.121 308.582C553.721 308.582 553.359 308.68 553.035 308.876C552.711 309.072 552.455 309.348 552.267 309.704C552.083 310.06 551.991 310.468 551.991 310.928C551.991 311.388 552.083 311.796 552.267 312.152C552.455 312.504 552.711 312.778 553.035 312.974C553.363 313.17 553.727 313.268 554.127 313.268ZM558.829 307.856H559.753V310.514H559.369C559.369 309.946 559.467 309.452 559.663 309.032C559.859 308.608 560.139 308.282 560.503 308.054C560.867 307.826 561.295 307.712 561.787 307.712C562.227 307.712 562.617 307.806 562.957 307.994C563.297 308.182 563.563 308.46 563.755 308.828C563.951 309.192 564.049 309.63 564.049 310.142V314H563.089V310.238C563.089 309.882 563.025 309.578 562.897 309.326C562.773 309.074 562.595 308.882 562.363 308.75C562.131 308.618 561.855 308.552 561.535 308.552C561.191 308.552 560.887 308.628 560.623 308.78C560.359 308.932 560.153 309.146 560.005 309.422C559.861 309.694 559.789 310.006 559.789 310.358V314H558.829V307.856ZM568.462 314.144C567.886 314.144 567.368 314.006 566.908 313.73C566.448 313.454 566.088 313.072 565.828 312.584C565.572 312.092 565.444 311.536 565.444 310.916C565.444 310.312 565.574 309.766 565.834 309.278C566.098 308.79 566.46 308.408 566.92 308.132C567.38 307.852 567.894 307.712 568.462 307.712C569.042 307.712 569.55 307.85 569.986 308.126C570.426 308.402 570.764 308.784 571 309.272C571.24 309.76 571.36 310.312 571.36 310.928V311.162H566.398L566.41 310.898C566.414 311.362 566.506 311.778 566.686 312.146C566.87 312.51 567.122 312.794 567.442 312.998C567.762 313.202 568.122 313.304 568.522 313.304C568.79 313.304 569.038 313.272 569.266 313.208C569.498 313.14 569.698 313.044 569.866 312.92C570.038 312.792 570.17 312.644 570.262 312.476H571.222C571.15 312.732 570.998 312.988 570.766 313.244C570.538 313.5 570.226 313.714 569.83 313.886C569.438 314.058 568.982 314.144 568.462 314.144ZM566.398 310.37H570.4V310.916C570.4 310.444 570.326 310.032 570.178 309.68C570.03 309.324 569.81 309.048 569.518 308.852C569.23 308.656 568.882 308.558 568.474 308.558C568.066 308.558 567.706 308.654 567.394 308.846C567.082 309.034 566.84 309.304 566.668 309.656C566.496 310.004 566.41 310.41 566.41 310.874L566.398 310.37ZM580.22 305.6H581.18V314H580.22V305.6ZM577.976 314.144C577.404 314.144 576.894 314.01 576.446 313.742C576.002 313.47 575.654 313.09 575.402 312.602C575.154 312.114 575.03 311.556 575.03 310.928C575.03 310.3 575.154 309.742 575.402 309.254C575.654 308.766 576.002 308.388 576.446 308.12C576.894 307.848 577.404 307.712 577.976 307.712C578.504 307.712 578.97 307.83 579.374 308.066C579.778 308.298 580.092 308.626 580.316 309.05C580.544 309.47 580.662 309.958 580.67 310.514H580.274V311.342H580.67C580.662 311.898 580.544 312.388 580.316 312.812C580.092 313.232 579.778 313.56 579.374 313.796C578.97 314.028 578.504 314.144 577.976 314.144ZM578.126 313.274C578.538 313.274 578.904 313.176 579.224 312.98C579.544 312.78 579.792 312.504 579.968 312.152C580.148 311.796 580.238 311.388 580.238 310.928C580.238 310.468 580.148 310.062 579.968 309.71C579.792 309.354 579.544 309.078 579.224 308.882C578.904 308.682 578.538 308.582 578.126 308.582C577.718 308.582 577.356 308.682 577.04 308.882C576.724 309.078 576.478 309.354 576.302 309.71C576.126 310.062 576.038 310.468 576.038 310.928C576.038 311.388 576.126 311.796 576.302 312.152C576.478 312.504 576.724 312.78 577.04 312.98C577.356 313.176 577.718 313.274 578.126 313.274ZM585.689 314.144C585.113 314.144 584.595 314.006 584.135 313.73C583.675 313.454 583.315 313.072 583.055 312.584C582.799 312.092 582.671 311.536 582.671 310.916C582.671 310.312 582.801 309.766 583.061 309.278C583.325 308.79 583.687 308.408 584.147 308.132C584.607 307.852 585.121 307.712 585.689 307.712C586.269 307.712 586.777 307.85 587.213 308.126C587.653 308.402 587.991 308.784 588.227 309.272C588.467 309.76 588.587 310.312 588.587 310.928V311.162H583.625L583.637 310.898C583.641 311.362 583.733 311.778 583.913 312.146C584.097 312.51 584.349 312.794 584.669 312.998C584.989 313.202 585.349 313.304 585.749 313.304C586.017 313.304 586.265 313.272 586.493 313.208C586.725 313.14 586.925 313.044 587.093 312.92C587.265 312.792 587.397 312.644 587.489 312.476H588.449C588.377 312.732 588.225 312.988 587.993 313.244C587.765 313.5 587.453 313.714 587.057 313.886C586.665 314.058 586.209 314.144 585.689 314.144ZM583.625 310.37H587.627V310.916C587.627 310.444 587.553 310.032 587.405 309.68C587.257 309.324 587.037 309.048 586.745 308.852C586.457 308.656 586.109 308.558 585.701 308.558C585.293 308.558 584.933 308.654 584.621 308.846C584.309 309.034 584.067 309.304 583.895 309.656C583.723 310.004 583.637 310.41 583.637 310.874L583.625 310.37ZM589.25 307.856H590.294L592.166 312.716L593.978 307.856H594.998L592.58 314H591.68L589.25 307.856ZM596.306 307.856H597.266V314H596.306V307.856ZM597.35 305.6V306.74H596.222V305.6H597.35ZM601.914 314.144C601.334 314.144 600.81 314.004 600.342 313.724C599.874 313.444 599.506 313.06 599.238 312.572C598.974 312.08 598.842 311.532 598.842 310.928C598.842 310.324 598.974 309.778 599.238 309.29C599.506 308.798 599.874 308.412 600.342 308.132C600.81 307.852 601.334 307.712 601.914 307.712C602.406 307.712 602.848 307.796 603.24 307.964C603.632 308.128 603.958 308.376 604.218 308.708C604.478 309.036 604.656 309.44 604.752 309.92H603.792C603.704 309.624 603.566 309.376 603.378 309.176C603.19 308.976 602.97 308.828 602.718 308.732C602.466 308.632 602.198 308.582 601.914 308.582C601.518 308.582 601.162 308.682 600.846 308.882C600.534 309.082 600.29 309.36 600.114 309.716C599.938 310.072 599.85 310.476 599.85 310.928C599.85 311.376 599.938 311.778 600.114 312.134C600.29 312.49 600.534 312.77 600.846 312.974C601.162 313.174 601.518 313.274 601.914 313.274C602.198 313.274 602.466 313.226 602.718 313.13C602.97 313.03 603.19 312.88 603.378 312.68C603.566 312.48 603.704 312.232 603.792 311.936H604.752C604.66 312.4 604.48 312.798 604.212 313.13C603.944 313.462 603.612 313.714 603.216 313.886C602.82 314.058 602.386 314.144 601.914 314.144ZM608.81 314.144C608.234 314.144 607.716 314.006 607.256 313.73C606.796 313.454 606.436 313.072 606.176 312.584C605.92 312.092 605.792 311.536 605.792 310.916C605.792 310.312 605.922 309.766 606.182 309.278C606.446 308.79 606.808 308.408 607.268 308.132C607.728 307.852 608.242 307.712 608.81 307.712C609.39 307.712 609.898 307.85 610.334 308.126C610.774 308.402 611.112 308.784 611.348 309.272C611.588 309.76 611.708 310.312 611.708 310.928V311.162H606.746L606.758 310.898C606.762 311.362 606.854 311.778 607.034 312.146C607.218 312.51 607.47 312.794 607.79 312.998C608.11 313.202 608.47 313.304 608.87 313.304C609.138 313.304 609.386 313.272 609.614 313.208C609.846 313.14 610.046 313.044 610.214 312.92C610.386 312.792 610.518 312.644 610.61 312.476H611.57C611.498 312.732 611.346 312.988 611.114 313.244C610.886 313.5 610.574 313.714 610.178 313.886C609.786 314.058 609.33 314.144 608.81 314.144ZM606.746 310.37H610.748V310.916C610.748 310.444 610.674 310.032 610.526 309.68C610.378 309.324 610.158 309.048 609.866 308.852C609.578 308.656 609.23 308.558 608.822 308.558C608.414 308.558 608.054 308.654 607.742 308.846C607.43 309.034 607.188 309.304 607.016 309.656C606.844 310.004 606.758 310.41 606.758 310.874L606.746 310.37Z" fill="black"/>
<rect x="71" y="279" width="167" height="46" rx="12" fill="#D7C6FF"/>
<path d="M113.754 305.07H115.182C115.418 305.07 115.626 305.02 115.806 304.92C115.99 304.82 116.132 304.68 116.232 304.5C116.332 304.316 116.382 304.106 116.382 303.87V297.6H117.378V303.93C117.378 304.334 117.288 304.694 117.108 305.01C116.928 305.322 116.676 305.566 116.352 305.742C116.028 305.914 115.658 306 115.242 306H113.754V305.07ZM118.863 297.6H119.955L122.613 304.71L125.175 297.6H126.279L123.093 306H122.073L118.863 297.6ZM127.829 297.6H129.071L132.083 304.332L132.239 304.758L132.389 304.332L135.347 297.6H136.613V306H135.617V299.364V299.208L132.647 306H131.813L128.819 299.244V299.364V306H127.829V297.6ZM142.965 304.68V306H141.645V304.68H142.965ZM147.166 306.144C146.586 306.144 146.062 306.004 145.594 305.724C145.126 305.444 144.758 305.06 144.49 304.572C144.226 304.08 144.094 303.532 144.094 302.928C144.094 302.324 144.226 301.778 144.49 301.29C144.758 300.798 145.126 300.412 145.594 300.132C146.062 299.852 146.586 299.712 147.166 299.712C147.658 299.712 148.1 299.796 148.492 299.964C148.884 300.128 149.21 300.376 149.47 300.708C149.73 301.036 149.908 301.44 150.004 301.92H149.044C148.956 301.624 148.818 301.376 148.63 301.176C148.442 300.976 148.222 300.828 147.97 300.732C147.718 300.632 147.45 300.582 147.166 300.582C146.77 300.582 146.414 300.682 146.098 300.882C145.786 301.082 145.542 301.36 145.366 301.716C145.19 302.072 145.102 302.476 145.102 302.928C145.102 303.376 145.19 303.778 145.366 304.134C145.542 304.49 145.786 304.77 146.098 304.974C146.414 305.174 146.77 305.274 147.166 305.274C147.45 305.274 147.718 305.226 147.97 305.13C148.222 305.03 148.442 304.88 148.63 304.68C148.818 304.48 148.956 304.232 149.044 303.936H150.004C149.912 304.4 149.732 304.798 149.464 305.13C149.196 305.462 148.864 305.714 148.468 305.886C148.072 306.058 147.638 306.144 147.166 306.144ZM151.566 297.6H152.526V306H151.566V297.6ZM156.79 299.712C157.254 299.712 157.662 299.798 158.014 299.97C158.366 300.138 158.638 300.386 158.83 300.714C159.026 301.038 159.124 301.424 159.124 301.872V306H158.188V303.702H158.44C158.44 304.214 158.352 304.654 158.176 305.022C158 305.386 157.748 305.664 157.42 305.856C157.092 306.048 156.702 306.144 156.25 306.144C155.858 306.144 155.504 306.068 155.188 305.916C154.872 305.764 154.624 305.554 154.444 305.286C154.264 305.018 154.174 304.714 154.174 304.374C154.174 304.054 154.256 303.76 154.42 303.492C154.588 303.22 154.818 302.998 155.11 302.826C155.406 302.654 155.738 302.548 156.106 302.508L157.744 302.328C157.88 302.312 157.986 302.256 158.062 302.16C158.138 302.064 158.176 301.922 158.176 301.734L158.248 302.994L156.238 303.216C156.03 303.24 155.844 303.302 155.68 303.402C155.52 303.502 155.394 303.632 155.302 303.792C155.214 303.952 155.17 304.128 155.17 304.32C155.17 304.528 155.224 304.712 155.332 304.872C155.444 305.032 155.598 305.158 155.794 305.25C155.99 305.338 156.214 305.382 156.466 305.382C156.81 305.382 157.11 305.312 157.366 305.172C157.626 305.032 157.826 304.836 157.966 304.584C158.106 304.328 158.176 304.034 158.176 303.702V301.746C158.176 301.502 158.118 301.288 158.002 301.104C157.886 300.916 157.722 300.772 157.51 300.672C157.302 300.568 157.06 300.516 156.784 300.516C156.508 300.516 156.26 300.564 156.04 300.66C155.82 300.752 155.642 300.878 155.506 301.038C155.374 301.194 155.294 301.364 155.266 301.548H154.306C154.354 301.2 154.49 300.888 154.714 300.612C154.942 300.332 155.236 300.112 155.596 299.952C155.956 299.792 156.354 299.712 156.79 299.712ZM163.074 306.144C162.61 306.144 162.19 306.07 161.814 305.922C161.442 305.774 161.144 305.568 160.92 305.304C160.7 305.036 160.582 304.734 160.566 304.398H161.544C161.56 304.582 161.636 304.748 161.772 304.896C161.908 305.04 162.088 305.154 162.312 305.238C162.536 305.322 162.786 305.364 163.062 305.364C163.342 305.364 163.588 305.318 163.8 305.226C164.016 305.134 164.182 305.006 164.298 304.842C164.418 304.678 164.478 304.492 164.478 304.284C164.478 304.136 164.45 304.002 164.394 303.882C164.338 303.762 164.256 303.664 164.148 303.588C164.044 303.508 163.916 303.454 163.764 303.426L162.282 303.156C161.97 303.1 161.7 302.996 161.472 302.844C161.248 302.692 161.076 302.5 160.956 302.268C160.84 302.032 160.782 301.764 160.782 301.464C160.782 301.14 160.874 300.846 161.058 300.582C161.246 300.314 161.508 300.102 161.844 299.946C162.18 299.79 162.564 299.712 162.996 299.712C163.424 299.712 163.81 299.782 164.154 299.922C164.498 300.062 164.772 300.256 164.976 300.504C165.18 300.752 165.29 301.028 165.306 301.332H164.328C164.316 301.172 164.25 301.028 164.13 300.9C164.014 300.772 163.858 300.672 163.662 300.6C163.466 300.528 163.246 300.492 163.002 300.492C162.754 300.492 162.534 300.534 162.342 300.618C162.15 300.702 162 300.818 161.892 300.966C161.788 301.11 161.736 301.274 161.736 301.458C161.736 301.598 161.76 301.722 161.808 301.83C161.86 301.934 161.936 302.022 162.036 302.094C162.14 302.162 162.268 302.21 162.42 302.238L163.938 302.508C164.25 302.564 164.518 302.674 164.742 302.838C164.97 303.002 165.142 303.206 165.258 303.45C165.378 303.694 165.438 303.96 165.438 304.248C165.438 304.608 165.334 304.932 165.126 305.22C164.922 305.508 164.64 305.734 164.28 305.898C163.92 306.062 163.518 306.144 163.074 306.144ZM169.027 306.144C168.563 306.144 168.143 306.07 167.767 305.922C167.395 305.774 167.097 305.568 166.873 305.304C166.653 305.036 166.535 304.734 166.519 304.398H167.497C167.513 304.582 167.589 304.748 167.725 304.896C167.861 305.04 168.041 305.154 168.265 305.238C168.489 305.322 168.739 305.364 169.015 305.364C169.295 305.364 169.541 305.318 169.753 305.226C169.969 305.134 170.135 305.006 170.251 304.842C170.371 304.678 170.431 304.492 170.431 304.284C170.431 304.136 170.403 304.002 170.347 303.882C170.291 303.762 170.209 303.664 170.101 303.588C169.997 303.508 169.869 303.454 169.717 303.426L168.235 303.156C167.923 303.1 167.653 302.996 167.425 302.844C167.201 302.692 167.029 302.5 166.909 302.268C166.793 302.032 166.735 301.764 166.735 301.464C166.735 301.14 166.827 300.846 167.011 300.582C167.199 300.314 167.461 300.102 167.797 299.946C168.133 299.79 168.517 299.712 168.949 299.712C169.377 299.712 169.763 299.782 170.107 299.922C170.451 300.062 170.725 300.256 170.929 300.504C171.133 300.752 171.243 301.028 171.259 301.332H170.281C170.269 301.172 170.203 301.028 170.083 300.9C169.967 300.772 169.811 300.672 169.615 300.6C169.419 300.528 169.199 300.492 168.955 300.492C168.707 300.492 168.487 300.534 168.295 300.618C168.103 300.702 167.953 300.818 167.845 300.966C167.741 301.11 167.689 301.274 167.689 301.458C167.689 301.598 167.713 301.722 167.761 301.83C167.813 301.934 167.889 302.022 167.989 302.094C168.093 302.162 168.221 302.21 168.373 302.238L169.891 302.508C170.203 302.564 170.471 302.674 170.695 302.838C170.923 303.002 171.095 303.206 171.211 303.45C171.331 303.694 171.391 303.96 171.391 304.248C171.391 304.608 171.287 304.932 171.079 305.22C170.875 305.508 170.593 305.734 170.233 305.898C169.873 306.062 169.471 306.144 169.027 306.144ZM173.491 300.708H172.411V299.856H173.491V299.052C173.491 298.768 173.557 298.516 173.689 298.296C173.821 298.076 174.005 297.906 174.241 297.786C174.477 297.662 174.747 297.6 175.051 297.6H176.035V298.452H175.111C174.915 298.452 174.755 298.514 174.631 298.638C174.511 298.758 174.451 298.916 174.451 299.112V299.856H175.975V300.708H174.451V306H173.491V300.708ZM177.179 300.708H175.955V299.856H178.139V306H177.179V300.708ZM177.113 297.6H178.241V298.74H177.113V297.6ZM180.253 297.6H181.213V306H180.253V297.6ZM185.808 306.144C185.232 306.144 184.714 306.006 184.254 305.73C183.794 305.454 183.434 305.072 183.174 304.584C182.918 304.092 182.79 303.536 182.79 302.916C182.79 302.312 182.92 301.766 183.18 301.278C183.444 300.79 183.806 300.408 184.266 300.132C184.726 299.852 185.24 299.712 185.808 299.712C186.388 299.712 186.896 299.85 187.332 300.126C187.772 300.402 188.11 300.784 188.346 301.272C188.586 301.76 188.706 302.312 188.706 302.928V303.162H183.744L183.756 302.898C183.76 303.362 183.852 303.778 184.032 304.146C184.216 304.51 184.468 304.794 184.788 304.998C185.108 305.202 185.468 305.304 185.868 305.304C186.136 305.304 186.384 305.272 186.612 305.208C186.844 305.14 187.044 305.044 187.212 304.92C187.384 304.792 187.516 304.644 187.608 304.476H188.568C188.496 304.732 188.344 304.988 188.112 305.244C187.884 305.5 187.572 305.714 187.176 305.886C186.784 306.058 186.328 306.144 185.808 306.144ZM183.744 302.37H187.746V302.916C187.746 302.444 187.672 302.032 187.524 301.68C187.376 301.324 187.156 301.048 186.864 300.852C186.576 300.656 186.228 300.558 185.82 300.558C185.412 300.558 185.052 300.654 184.74 300.846C184.428 301.034 184.186 301.304 184.014 301.656C183.842 302.004 183.756 302.41 183.756 302.874L183.744 302.37ZM192.312 306.144C191.848 306.144 191.428 306.07 191.052 305.922C190.68 305.774 190.382 305.568 190.158 305.304C189.938 305.036 189.82 304.734 189.804 304.398H190.782C190.798 304.582 190.874 304.748 191.01 304.896C191.146 305.04 191.326 305.154 191.55 305.238C191.774 305.322 192.024 305.364 192.3 305.364C192.58 305.364 192.826 305.318 193.038 305.226C193.254 305.134 193.42 305.006 193.536 304.842C193.656 304.678 193.716 304.492 193.716 304.284C193.716 304.136 193.688 304.002 193.632 303.882C193.576 303.762 193.494 303.664 193.386 303.588C193.282 303.508 193.154 303.454 193.002 303.426L191.52 303.156C191.208 303.1 190.938 302.996 190.71 302.844C190.486 302.692 190.314 302.5 190.194 302.268C190.078 302.032 190.02 301.764 190.02 301.464C190.02 301.14 190.112 300.846 190.296 300.582C190.484 300.314 190.746 300.102 191.082 299.946C191.418 299.79 191.802 299.712 192.234 299.712C192.662 299.712 193.048 299.782 193.392 299.922C193.736 300.062 194.01 300.256 194.214 300.504C194.418 300.752 194.528 301.028 194.544 301.332H193.566C193.554 301.172 193.488 301.028 193.368 300.9C193.252 300.772 193.096 300.672 192.9 300.6C192.704 300.528 192.484 300.492 192.24 300.492C191.992 300.492 191.772 300.534 191.58 300.618C191.388 300.702 191.238 300.818 191.13 300.966C191.026 301.11 190.974 301.274 190.974 301.458C190.974 301.598 190.998 301.722 191.046 301.83C191.098 301.934 191.174 302.022 191.274 302.094C191.378 302.162 191.506 302.21 191.658 302.238L193.176 302.508C193.488 302.564 193.756 302.674 193.98 302.838C194.208 303.002 194.38 303.206 194.496 303.45C194.616 303.694 194.676 303.96 194.676 304.248C194.676 304.608 194.572 304.932 194.364 305.22C194.16 305.508 193.878 305.734 193.518 305.898C193.158 306.062 192.756 306.144 192.312 306.144Z" fill="black"/>
<rect x="267" y="279" width="167" height="46" rx="12" fill="#D7C6FF"/>
<path d="M333.709 304.68V306H332.389V304.68H333.709ZM334.012 307.008H334.54C334.736 307.008 334.894 306.946 335.014 306.822C335.138 306.702 335.2 306.544 335.2 306.348V299.856H336.16V306.42C336.16 306.712 336.094 306.972 335.962 307.2C335.83 307.428 335.646 307.604 335.41 307.728C335.174 307.856 334.904 307.92 334.6 307.92H334.012V307.008ZM336.244 297.6V298.74H335.116V297.6H336.244ZM340.201 306.144C339.737 306.144 339.317 306.07 338.941 305.922C338.569 305.774 338.271 305.568 338.047 305.304C337.827 305.036 337.709 304.734 337.693 304.398H338.671C338.687 304.582 338.763 304.748 338.899 304.896C339.035 305.04 339.215 305.154 339.439 305.238C339.663 305.322 339.913 305.364 340.189 305.364C340.469 305.364 340.715 305.318 340.927 305.226C341.143 305.134 341.309 305.006 341.425 304.842C341.545 304.678 341.605 304.492 341.605 304.284C341.605 304.136 341.577 304.002 341.521 303.882C341.465 303.762 341.383 303.664 341.275 303.588C341.171 303.508 341.043 303.454 340.891 303.426L339.409 303.156C339.097 303.1 338.827 302.996 338.599 302.844C338.375 302.692 338.203 302.5 338.083 302.268C337.967 302.032 337.909 301.764 337.909 301.464C337.909 301.14 338.001 300.846 338.185 300.582C338.373 300.314 338.635 300.102 338.971 299.946C339.307 299.79 339.691 299.712 340.123 299.712C340.551 299.712 340.937 299.782 341.281 299.922C341.625 300.062 341.899 300.256 342.103 300.504C342.307 300.752 342.417 301.028 342.433 301.332H341.455C341.443 301.172 341.377 301.028 341.257 300.9C341.141 300.772 340.985 300.672 340.789 300.6C340.593 300.528 340.373 300.492 340.129 300.492C339.881 300.492 339.661 300.534 339.469 300.618C339.277 300.702 339.127 300.818 339.019 300.966C338.915 301.11 338.863 301.274 338.863 301.458C338.863 301.598 338.887 301.722 338.935 301.83C338.987 301.934 339.063 302.022 339.163 302.094C339.267 302.162 339.395 302.21 339.547 302.238L341.065 302.508C341.377 302.564 341.645 302.674 341.869 302.838C342.097 303.002 342.269 303.206 342.385 303.45C342.505 303.694 342.565 303.96 342.565 304.248C342.565 304.608 342.461 304.932 342.253 305.22C342.049 305.508 341.767 305.734 341.407 305.898C341.047 306.062 340.645 306.144 340.201 306.144ZM347.63 300.708H346.55V299.856H347.63V299.052C347.63 298.768 347.696 298.516 347.828 298.296C347.96 298.076 348.144 297.906 348.38 297.786C348.616 297.662 348.886 297.6 349.19 297.6H350.174V298.452H349.25C349.054 298.452 348.894 298.514 348.77 298.638C348.65 298.758 348.59 298.916 348.59 299.112V299.856H350.114V300.708H348.59V306H347.63V300.708ZM351.317 300.708H350.093V299.856H352.277V306H351.317V300.708ZM351.251 297.6H352.379V298.74H351.251V297.6ZM354.392 297.6H355.352V306H354.392V297.6ZM359.946 306.144C359.37 306.144 358.852 306.006 358.392 305.73C357.932 305.454 357.572 305.072 357.312 304.584C357.056 304.092 356.928 303.536 356.928 302.916C356.928 302.312 357.058 301.766 357.318 301.278C357.582 300.79 357.944 300.408 358.404 300.132C358.864 299.852 359.378 299.712 359.946 299.712C360.526 299.712 361.034 299.85 361.47 300.126C361.91 300.402 362.248 300.784 362.484 301.272C362.724 301.76 362.844 302.312 362.844 302.928V303.162H357.882L357.894 302.898C357.898 303.362 357.99 303.778 358.17 304.146C358.354 304.51 358.606 304.794 358.926 304.998C359.246 305.202 359.606 305.304 360.006 305.304C360.274 305.304 360.522 305.272 360.75 305.208C360.982 305.14 361.182 305.044 361.35 304.92C361.522 304.792 361.654 304.644 361.746 304.476H362.706C362.634 304.732 362.482 304.988 362.25 305.244C362.022 305.5 361.71 305.714 361.314 305.886C360.922 306.058 360.466 306.144 359.946 306.144ZM357.882 302.37H361.884V302.916C361.884 302.444 361.81 302.032 361.662 301.68C361.514 301.324 361.294 301.048 361.002 300.852C360.714 300.656 360.366 300.558 359.958 300.558C359.55 300.558 359.19 300.654 358.878 300.846C358.566 301.034 358.324 301.304 358.152 301.656C357.98 302.004 357.894 302.41 357.894 302.874L357.882 302.37ZM366.451 306.144C365.987 306.144 365.567 306.07 365.191 305.922C364.819 305.774 364.521 305.568 364.297 305.304C364.077 305.036 363.959 304.734 363.943 304.398H364.921C364.937 304.582 365.013 304.748 365.149 304.896C365.285 305.04 365.465 305.154 365.689 305.238C365.913 305.322 366.163 305.364 366.439 305.364C366.719 305.364 366.965 305.318 367.177 305.226C367.393 305.134 367.559 305.006 367.675 304.842C367.795 304.678 367.855 304.492 367.855 304.284C367.855 304.136 367.827 304.002 367.771 303.882C367.715 303.762 367.633 303.664 367.525 303.588C367.421 303.508 367.293 303.454 367.141 303.426L365.659 303.156C365.347 303.1 365.077 302.996 364.849 302.844C364.625 302.692 364.453 302.5 364.333 302.268C364.217 302.032 364.159 301.764 364.159 301.464C364.159 301.14 364.251 300.846 364.435 300.582C364.623 300.314 364.885 300.102 365.221 299.946C365.557 299.79 365.941 299.712 366.373 299.712C366.801 299.712 367.187 299.782 367.531 299.922C367.875 300.062 368.149 300.256 368.353 300.504C368.557 300.752 368.667 301.028 368.683 301.332H367.705C367.693 301.172 367.627 301.028 367.507 300.9C367.391 300.772 367.235 300.672 367.039 300.6C366.843 300.528 366.623 300.492 366.379 300.492C366.131 300.492 365.911 300.534 365.719 300.618C365.527 300.702 365.377 300.818 365.269 300.966C365.165 301.11 365.113 301.274 365.113 301.458C365.113 301.598 365.137 301.722 365.185 301.83C365.237 301.934 365.313 302.022 365.413 302.094C365.517 302.162 365.645 302.21 365.797 302.238L367.315 302.508C367.627 302.564 367.895 302.674 368.119 302.838C368.347 303.002 368.519 303.206 368.635 303.45C368.755 303.694 368.815 303.96 368.815 304.248C368.815 304.608 368.711 304.932 368.503 305.22C368.299 305.508 368.017 305.734 367.657 305.898C367.297 306.062 366.895 306.144 366.451 306.144Z" fill="black"/>
<defs>
<radialGradient id="paint0_radial_1218_347" cx="0" cy="0" r="1" gradientUnits="userSpaceOnUse" gradientTransform="translate(204.451 165.19) scale(191.063 292.389)">
<stop stop-color="#EB4857"/>
<stop offset="0.5" stop-color="#C611E0"/>
<stop offset="1" stop-color="#7F52FF"/>
</radialGradient>
</defs>
</svg>
