<?xml version="1.0" encoding="utf-8"?>
<!-- Generator: Adobe Illustrator 27.5.0, SVG Export Plug-In . SVG Version: 6.00 Build 0)  -->
<svg version="1.1" id="Layer_1" xmlns="http://www.w3.org/2000/svg" xmlns:xlink="http://www.w3.org/1999/xlink" x="0px" y="0px"
	 viewBox="0 0 700 395" style="enable-background:new 0 0 700 395;" xml:space="preserve">
<style type="text/css">
	.st0{fill:#FFFFFF;}
	.st1{fill:none;stroke:#000000;stroke-width:0.5469;stroke-miterlimit:10;}
	.st2{fill:#F2F2F2;}
	.st3{fill:none;stroke:#595959;stroke-width:0.5469;stroke-miterlimit:10;}
	.st4{fill:url(#SVGID_1_);}
	.st5{fill:url(#SVGID_00000091711758921082839740000001497293910224533123_);}
	.st6{fill:url(#SVGID_00000126294145209207874850000016391266045946197391_);}
	.st7{fill:#595959;}
	.st8{fill:url(#SVGID_00000041287560831332575790000017185537112149468596_);}
	.st9{fill:url(#SVGID_00000029025506113846350150000011464625040058221475_);}
	.st10{fill:url(#SVGID_00000123415155426827529600000009596814305286780571_);}
	.st11{fill:url(#SVGID_00000054965058414233897690000004551680874263595184_);}
	.st12{fill:url(#SVGID_00000058564957030250213050000005969229671135486081_);}
	.st13{fill:url(#SVGID_00000032645441502642331480000007488726255188990399_);}
	.st14{fill:url(#SVGID_00000020358943371727181660000013417817378634158251_);}
	.st15{fill:url(#SVGID_00000145021248985585569270000009796507679142265777_);}
	.st16{fill:url(#SVGID_00000138540770816335574070000004191869279807937416_);}
	.st17{fill:url(#SVGID_00000025404865599890924530000013586358976153502866_);}
	.st18{fill:url(#SVGID_00000030464792364048692330000015464225853480145058_);}
	.st19{fill:none;stroke:#000000;stroke-width:0.5469;stroke-miterlimit:10;stroke-dasharray:1.5,2.5,1.5,2.5,1.5,2.5;}
	.st20{fill:url(#SVGID_00000072257476370348817870000014853714885985681581_);}
	.st21{fill:url(#SVGID_00000121246977076783896790000007300031560427674757_);}
	.st22{fill:url(#SVGID_00000173141641235605530320000002496692619061758350_);}
	.st23{fill:url(#SVGID_00000134962404164382157190000005991352094088326572_);}
	.st24{fill:url(#SVGID_00000104707642349762593480000003027075482562411699_);}
	.st25{fill:url(#SVGID_00000117667162305395746320000012944929833522568372_);}
	.st26{fill:url(#SVGID_00000029012819449112586760000014074611497543367602_);}
	.st27{fill:url(#SVGID_00000137822390907626005100000010497442536341355958_);}
	.st28{fill:url(#SVGID_00000173844187493940828200000008490814699547547315_);}
	.st29{fill:url(#SVGID_00000009580325147309210400000000664171325034591618_);}
	.st30{fill:url(#SVGID_00000161622480618700876220000006453709599809717408_);}
	.st31{fill:url(#SVGID_00000016789046473278529920000002137803571708047013_);}
	.st32{fill:url(#SVGID_00000132807039065029380930000000948157033014593949_);}
	.st33{fill:url(#SVGID_00000052102300118126311920000017230024375251675796_);}
	.st34{fill:url(#SVGID_00000061472311145109768330000002156062912727057553_);}
	.st35{fill:url(#SVGID_00000179640507134547647860000015457711379198174629_);}
	.st36{fill:url(#SVGID_00000024696353800517844580000002467383519654187408_);}
	.st37{fill:url(#SVGID_00000033339899987180858230000017300830174198594704_);}
	.st38{fill:url(#SVGID_00000040534457237774495550000001188925059456243880_);}
	.st39{fill:url(#SVGID_00000031927501676901686940000011658992943496524165_);}
	.st40{fill:url(#SVGID_00000038389738004493919260000008398939851409406132_);}
	.st41{fill:url(#SVGID_00000105428649684633082050000012424222250174757537_);}
	.st42{fill:#7F52FF;}
	.st43{opacity:0.35;}
	.st44{fill:url(#SVGID_00000046320048358441428880000003988997285348789151_);}
	.st45{fill:none;stroke:#000000;stroke-width:0.4423;stroke-miterlimit:10;}
</style>
<g>
	<rect class="st0" width="700" height="395"/>
	<g>
		<g>
			<g>
				<path class="st1" d="M335.27,165.35v42.33c0,8.05-6.53,14.58-14.58,14.58H168.87c-8.05,0-14.58,6.53-14.58,14.58v32.69"/>
				<g>
					<polygon points="151.56,268.74 154.29,273.46 157.02,268.74 					"/>
				</g>
			</g>
			<g>
				<path class="st1" d="M364.66,165.35l0,42.33c0,8.05,6.53,14.58,14.58,14.58h151.77c8.05,0,14.58,6.53,14.58,14.58v32.69"/>
				<g>
					<polygon points="542.87,268.74 545.6,273.46 548.32,268.74 					"/>
				</g>
			</g>
			<g>
				<g>
					<g>
						<g>
							<path class="st2" d="M422.84,279l-145.68,0c-6.04,0-10.94,4.9-10.94,10.94v24.26c0,6.04,4.9,10.94,10.94,10.94l145.68,0
								c6.04,0,10.94-4.9,10.94-10.94v-24.26C433.78,283.9,428.88,279,422.84,279z"/>
						</g>
					</g>
					<g>
						<g>
							<path d="M332.14,305.02v1.4h-1.4v-1.4H332.14z"/>
							<path d="M332.46,307.5h0.56c0.21,0,0.38-0.06,0.51-0.19c0.13-0.13,0.19-0.3,0.19-0.51v-6.9h1.02v6.98
								c0,0.31-0.07,0.59-0.21,0.83s-0.34,0.43-0.59,0.56s-0.54,0.2-0.86,0.2h-0.63V307.5z M334.83,297.49v1.21h-1.2v-1.21H334.83z"
								/>
							<path d="M337.7,306.34c-0.4-0.16-0.71-0.38-0.95-0.66c-0.24-0.28-0.36-0.6-0.38-0.96h1.04c0.02,0.2,0.1,0.37,0.24,0.53
								c0.14,0.16,0.34,0.28,0.57,0.37c0.24,0.09,0.5,0.13,0.8,0.13c0.3,0,0.56-0.05,0.79-0.15s0.4-0.23,0.53-0.41
								s0.19-0.37,0.19-0.59c0-0.16-0.03-0.3-0.09-0.43s-0.15-0.23-0.26-0.32c-0.11-0.08-0.25-0.14-0.41-0.17l-1.58-0.29
								c-0.33-0.06-0.62-0.17-0.86-0.33s-0.42-0.37-0.55-0.62s-0.19-0.53-0.19-0.85c0-0.34,0.1-0.66,0.3-0.94
								c0.2-0.28,0.48-0.51,0.83-0.67c0.36-0.17,0.77-0.25,1.22-0.25c0.46,0,0.87,0.07,1.23,0.22c0.37,0.15,0.66,0.36,0.87,0.62
								c0.22,0.26,0.33,0.56,0.35,0.88h-1.04c-0.01-0.17-0.08-0.32-0.21-0.46c-0.13-0.14-0.29-0.24-0.5-0.32
								c-0.21-0.08-0.44-0.11-0.7-0.11c-0.26,0-0.5,0.04-0.7,0.13s-0.36,0.21-0.48,0.37c-0.11,0.16-0.17,0.33-0.17,0.53
								c0,0.15,0.03,0.28,0.08,0.39c0.05,0.11,0.13,0.21,0.24,0.28c0.11,0.07,0.24,0.13,0.41,0.16l1.61,0.29
								c0.33,0.06,0.62,0.18,0.86,0.35c0.24,0.17,0.42,0.39,0.55,0.65s0.19,0.54,0.19,0.85c0,0.38-0.11,0.73-0.33,1.03
								c-0.22,0.31-0.52,0.55-0.9,0.72c-0.38,0.17-0.81,0.26-1.28,0.26C338.55,306.58,338.1,306.5,337.7,306.34z"/>
							<path d="M346.94,300.8h-1.15v-0.91h1.15v-0.85c0-0.3,0.07-0.57,0.21-0.8c0.14-0.23,0.34-0.42,0.59-0.55s0.54-0.19,0.86-0.19
								h1.05v0.91h-0.98c-0.21,0-0.38,0.06-0.51,0.19s-0.19,0.3-0.19,0.51v0.79h1.62v0.91h-1.62v5.63h-1.02V300.8z"/>
							<path d="M350.87,300.8h-1.3v-0.91h2.32v6.53h-1.02V300.8z M350.8,297.49h1.2v1.21h-1.2V297.49z"/>
							<path d="M354.14,297.49h1.02v8.93h-1.02V297.49z"/>
							<path d="M358.4,306.14c-0.49-0.29-0.87-0.7-1.15-1.22c-0.27-0.52-0.41-1.11-0.41-1.77c0-0.64,0.14-1.22,0.42-1.74
								c0.28-0.52,0.66-0.93,1.15-1.22c0.49-0.3,1.04-0.44,1.64-0.44c0.62,0,1.16,0.15,1.62,0.44s0.83,0.7,1.08,1.22
								s0.38,1.11,0.38,1.76v0.25h-5.28l0.01-0.28c0,0.49,0.1,0.93,0.3,1.32c0.19,0.39,0.46,0.69,0.8,0.91
								c0.34,0.22,0.72,0.33,1.15,0.33c0.29,0,0.55-0.04,0.79-0.11s0.46-0.17,0.64-0.31c0.18-0.13,0.32-0.29,0.42-0.47h1.02
								c-0.08,0.27-0.24,0.54-0.48,0.82c-0.24,0.27-0.58,0.5-1,0.68s-0.9,0.27-1.46,0.27C359.44,306.58,358.89,306.43,358.4,306.14z
								 M357.85,302.57h4.26v0.58c0-0.5-0.08-0.94-0.24-1.32c-0.16-0.38-0.39-0.67-0.7-0.88c-0.31-0.21-0.68-0.31-1.11-0.31
								c-0.43,0-0.82,0.1-1.15,0.3c-0.33,0.2-0.59,0.49-0.77,0.86c-0.18,0.37-0.27,0.8-0.27,1.3L357.85,302.57z"/>
							<path d="M365.63,306.34c-0.4-0.16-0.71-0.38-0.95-0.66c-0.24-0.28-0.36-0.6-0.38-0.96h1.04c0.02,0.2,0.1,0.37,0.24,0.53
								c0.14,0.16,0.34,0.28,0.57,0.37c0.24,0.09,0.5,0.13,0.8,0.13c0.3,0,0.56-0.05,0.79-0.15s0.4-0.23,0.53-0.41
								s0.19-0.37,0.19-0.59c0-0.16-0.03-0.3-0.09-0.43s-0.15-0.23-0.26-0.32c-0.11-0.08-0.25-0.14-0.41-0.17l-1.58-0.29
								c-0.33-0.06-0.62-0.17-0.86-0.33s-0.42-0.37-0.55-0.62s-0.19-0.53-0.19-0.85c0-0.34,0.1-0.66,0.3-0.94
								c0.2-0.28,0.48-0.51,0.83-0.67c0.36-0.17,0.77-0.25,1.22-0.25c0.46,0,0.87,0.07,1.23,0.22c0.37,0.15,0.66,0.36,0.87,0.62
								c0.22,0.26,0.33,0.56,0.35,0.88h-1.04c-0.01-0.17-0.08-0.32-0.21-0.46c-0.13-0.14-0.29-0.24-0.5-0.32
								c-0.21-0.08-0.44-0.11-0.7-0.11c-0.26,0-0.5,0.04-0.7,0.13s-0.36,0.21-0.48,0.37c-0.11,0.16-0.17,0.33-0.17,0.53
								c0,0.15,0.03,0.28,0.08,0.39c0.05,0.11,0.13,0.21,0.24,0.28c0.11,0.07,0.24,0.13,0.41,0.16l1.61,0.29
								c0.33,0.06,0.62,0.18,0.86,0.35c0.24,0.17,0.42,0.39,0.55,0.65s0.19,0.54,0.19,0.85c0,0.38-0.11,0.73-0.33,1.03
								c-0.22,0.31-0.52,0.55-0.9,0.72c-0.38,0.17-0.81,0.26-1.28,0.26C366.47,306.58,366.03,306.5,365.63,306.34z"/>
						</g>
					</g>
				</g>
				<g>
					<g>
						<g>
							<path class="st2" d="M227.13,279l-145.68,0c-6.04,0-10.94,4.9-10.94,10.94v24.26c0,6.04,4.9,10.94,10.94,10.94l145.68,0
								c6.04,0,10.94-4.9,10.94-10.94v-24.26C238.07,283.9,233.17,279,227.13,279z"/>
						</g>
					</g>
					<g>
						<g>
							<path d="M110.96,305.44h1.52c0.25,0,0.47-0.05,0.67-0.16c0.19-0.11,0.34-0.26,0.45-0.45c0.11-0.19,0.16-0.42,0.16-0.67v-6.67
								h1.06v6.73c0,0.43-0.1,0.81-0.29,1.15c-0.19,0.33-0.46,0.59-0.8,0.78c-0.34,0.19-0.74,0.28-1.18,0.28h-1.58V305.44z"/>
							<path d="M116.39,297.49h1.16l2.83,7.56l2.72-7.56h1.17l-3.39,8.93h-1.08L116.39,297.49z"/>
							<path d="M125.93,297.49h1.32l3.2,7.16l0.17,0.45l0.16-0.45l3.15-7.16h1.35v8.93h-1.06v-7.06v-0.17l-3.16,7.22h-0.89
								l-3.18-7.18v0.13v7.06h-1.05V297.49z"/>
							<path d="M142.02,305.02v1.4h-1.4v-1.4H142.02z"/>
							<path d="M144.81,306.13c-0.5-0.3-0.89-0.71-1.17-1.23c-0.28-0.52-0.42-1.1-0.42-1.74c0-0.64,0.14-1.22,0.42-1.74
								c0.28-0.52,0.67-0.93,1.17-1.23c0.5-0.3,1.05-0.45,1.67-0.45c0.52,0,0.99,0.09,1.41,0.26c0.42,0.18,0.76,0.44,1.04,0.79
								c0.28,0.35,0.47,0.78,0.57,1.29h-1.02c-0.09-0.31-0.24-0.58-0.44-0.79c-0.2-0.21-0.43-0.37-0.7-0.48s-0.55-0.16-0.85-0.16
								c-0.42,0-0.8,0.11-1.13,0.32c-0.33,0.21-0.59,0.51-0.78,0.89s-0.28,0.81-0.28,1.29c0,0.48,0.09,0.9,0.28,1.28
								c0.19,0.38,0.45,0.68,0.78,0.89c0.33,0.21,0.71,0.32,1.13,0.32c0.3,0,0.59-0.05,0.85-0.16c0.27-0.1,0.5-0.26,0.7-0.48
								c0.2-0.21,0.35-0.48,0.44-0.79h1.02c-0.1,0.49-0.29,0.92-0.57,1.27c-0.29,0.35-0.64,0.62-1.06,0.8
								c-0.42,0.18-0.88,0.27-1.38,0.27C145.87,306.58,145.31,306.43,144.81,306.13z"/>
							<path d="M151.16,297.49h1.02v8.93h-1.02V297.49z"/>
							<path d="M158.02,300.01c0.37,0.18,0.66,0.44,0.87,0.79c0.21,0.35,0.31,0.76,0.31,1.23v4.39h-1v-2.44h0.27
								c0,0.54-0.09,1.01-0.28,1.4c-0.19,0.39-0.46,0.69-0.8,0.89c-0.35,0.2-0.76,0.31-1.24,0.31c-0.42,0-0.79-0.08-1.13-0.24
								s-0.6-0.38-0.79-0.67c-0.19-0.28-0.29-0.61-0.29-0.97c0-0.34,0.09-0.65,0.26-0.94c0.18-0.29,0.42-0.52,0.73-0.7
								c0.31-0.18,0.66-0.3,1.06-0.34l1.74-0.19c0.14-0.02,0.26-0.08,0.34-0.18c0.08-0.1,0.12-0.25,0.12-0.45l0.08,1.34l-2.14,0.24
								c-0.22,0.03-0.42,0.09-0.59,0.2s-0.31,0.24-0.4,0.41c-0.1,0.17-0.14,0.36-0.14,0.56c0,0.22,0.06,0.42,0.18,0.59
								c0.12,0.17,0.28,0.3,0.49,0.4c0.21,0.1,0.45,0.14,0.71,0.14c0.37,0,0.69-0.07,0.96-0.22c0.27-0.15,0.49-0.36,0.63-0.63
								c0.15-0.27,0.22-0.58,0.22-0.93v-2.08c0-0.26-0.06-0.49-0.19-0.69c-0.12-0.2-0.3-0.35-0.52-0.46
								c-0.22-0.11-0.48-0.16-0.77-0.16s-0.56,0.05-0.79,0.15s-0.42,0.23-0.56,0.4c-0.14,0.17-0.23,0.35-0.26,0.55h-1.02
								c0.05-0.37,0.2-0.7,0.44-1c0.24-0.3,0.55-0.53,0.93-0.7c0.38-0.17,0.81-0.26,1.27-0.26
								C157.21,299.74,157.64,299.83,158.02,300.01z"/>
							<path d="M162.06,306.34c-0.4-0.16-0.71-0.38-0.95-0.66c-0.24-0.28-0.36-0.6-0.38-0.96h1.04c0.02,0.2,0.1,0.37,0.24,0.53
								c0.14,0.16,0.34,0.28,0.57,0.37c0.24,0.09,0.5,0.13,0.8,0.13c0.3,0,0.56-0.05,0.79-0.15s0.4-0.23,0.53-0.41
								s0.19-0.37,0.19-0.59c0-0.16-0.03-0.3-0.09-0.43s-0.15-0.23-0.26-0.32c-0.11-0.08-0.25-0.14-0.41-0.17l-1.58-0.29
								c-0.33-0.06-0.62-0.17-0.86-0.33s-0.42-0.37-0.55-0.62s-0.19-0.53-0.19-0.85c0-0.34,0.1-0.66,0.3-0.94
								c0.2-0.28,0.48-0.51,0.83-0.67c0.36-0.17,0.77-0.25,1.22-0.25c0.46,0,0.87,0.07,1.23,0.22c0.37,0.15,0.66,0.36,0.87,0.62
								c0.22,0.26,0.33,0.56,0.35,0.88h-1.04c-0.01-0.17-0.08-0.32-0.21-0.46c-0.13-0.14-0.29-0.24-0.5-0.32
								c-0.21-0.08-0.44-0.11-0.7-0.11c-0.26,0-0.5,0.04-0.7,0.13s-0.36,0.21-0.48,0.37c-0.11,0.16-0.17,0.33-0.17,0.53
								c0,0.15,0.03,0.28,0.08,0.39c0.05,0.11,0.13,0.21,0.24,0.28c0.11,0.07,0.24,0.13,0.41,0.16l1.61,0.29
								c0.33,0.06,0.62,0.18,0.86,0.35c0.24,0.17,0.42,0.39,0.55,0.65s0.19,0.54,0.19,0.85c0,0.38-0.11,0.73-0.33,1.03
								c-0.22,0.31-0.52,0.55-0.9,0.72c-0.38,0.17-0.81,0.26-1.28,0.26C162.9,306.58,162.46,306.5,162.06,306.34z"/>
							<path d="M168.39,306.34c-0.4-0.16-0.71-0.38-0.95-0.66c-0.24-0.28-0.36-0.6-0.38-0.96h1.04c0.02,0.2,0.1,0.37,0.24,0.53
								c0.14,0.16,0.34,0.28,0.57,0.37c0.24,0.09,0.5,0.13,0.8,0.13c0.3,0,0.56-0.05,0.79-0.15s0.4-0.23,0.53-0.41
								s0.19-0.37,0.19-0.59c0-0.16-0.03-0.3-0.09-0.43s-0.15-0.23-0.26-0.32c-0.11-0.08-0.25-0.14-0.41-0.17l-1.58-0.29
								c-0.33-0.06-0.62-0.17-0.86-0.33s-0.42-0.37-0.55-0.62s-0.19-0.53-0.19-0.85c0-0.34,0.1-0.66,0.3-0.94
								c0.2-0.28,0.48-0.51,0.83-0.67c0.36-0.17,0.77-0.25,1.22-0.25c0.46,0,0.87,0.07,1.23,0.22c0.37,0.15,0.66,0.36,0.87,0.62
								c0.22,0.26,0.33,0.56,0.35,0.88h-1.04c-0.01-0.17-0.08-0.32-0.21-0.46c-0.13-0.14-0.29-0.24-0.5-0.32
								c-0.21-0.08-0.44-0.11-0.7-0.11c-0.26,0-0.5,0.04-0.7,0.13s-0.36,0.21-0.48,0.37c-0.11,0.16-0.17,0.33-0.17,0.53
								c0,0.15,0.03,0.28,0.08,0.39c0.05,0.11,0.13,0.21,0.24,0.28c0.11,0.07,0.24,0.13,0.41,0.16l1.61,0.29
								c0.33,0.06,0.62,0.18,0.86,0.35c0.24,0.17,0.42,0.39,0.55,0.65s0.19,0.54,0.19,0.85c0,0.38-0.11,0.73-0.33,1.03
								c-0.22,0.31-0.52,0.55-0.9,0.72c-0.38,0.17-0.81,0.26-1.28,0.26C169.23,306.58,168.79,306.5,168.39,306.34z"/>
							<path d="M174.47,300.8h-1.15v-0.91h1.15v-0.85c0-0.3,0.07-0.57,0.21-0.8c0.14-0.23,0.34-0.42,0.59-0.55s0.54-0.19,0.86-0.19
								h1.05v0.91h-0.98c-0.21,0-0.38,0.06-0.51,0.19s-0.19,0.3-0.19,0.51v0.79h1.62v0.91h-1.62v5.63h-1.02V300.8z"/>
							<path d="M178.4,300.8h-1.3v-0.91h2.32v6.53h-1.02V300.8z M178.33,297.49h1.2v1.21h-1.2V297.49z"/>
							<path d="M181.67,297.49h1.02v8.93h-1.02V297.49z"/>
							<path d="M185.93,306.14c-0.49-0.29-0.87-0.7-1.15-1.22c-0.27-0.52-0.41-1.11-0.41-1.77c0-0.64,0.14-1.22,0.42-1.74
								c0.28-0.52,0.66-0.93,1.15-1.22c0.49-0.3,1.04-0.44,1.64-0.44c0.62,0,1.16,0.15,1.62,0.44s0.83,0.7,1.08,1.22
								s0.38,1.11,0.38,1.76v0.25h-5.28l0.01-0.28c0,0.49,0.1,0.93,0.3,1.32c0.19,0.39,0.46,0.69,0.8,0.91
								c0.34,0.22,0.72,0.33,1.15,0.33c0.29,0,0.55-0.04,0.79-0.11s0.46-0.17,0.64-0.31c0.18-0.13,0.32-0.29,0.42-0.47h1.02
								c-0.08,0.27-0.24,0.54-0.48,0.82c-0.24,0.27-0.58,0.5-1,0.68s-0.9,0.27-1.46,0.27C186.97,306.58,186.42,306.43,185.93,306.14
								z M185.38,302.57h4.26v0.58c0-0.5-0.08-0.94-0.24-1.32c-0.16-0.38-0.39-0.67-0.7-0.88c-0.31-0.21-0.68-0.31-1.11-0.31
								c-0.43,0-0.82,0.1-1.15,0.3c-0.33,0.2-0.59,0.49-0.77,0.86c-0.18,0.37-0.27,0.8-0.27,1.3L185.38,302.57z"/>
							<path d="M193.16,306.34c-0.4-0.16-0.71-0.38-0.95-0.66c-0.24-0.28-0.36-0.6-0.38-0.96h1.04c0.02,0.2,0.1,0.37,0.24,0.53
								c0.14,0.16,0.34,0.28,0.57,0.37c0.24,0.09,0.5,0.13,0.8,0.13c0.3,0,0.56-0.05,0.79-0.15s0.4-0.23,0.53-0.41
								s0.19-0.37,0.19-0.59c0-0.16-0.03-0.3-0.09-0.43s-0.15-0.23-0.26-0.32c-0.11-0.08-0.25-0.14-0.41-0.17l-1.58-0.29
								c-0.33-0.06-0.62-0.17-0.86-0.33s-0.42-0.37-0.55-0.62s-0.19-0.53-0.19-0.85c0-0.34,0.1-0.66,0.3-0.94
								c0.2-0.28,0.48-0.51,0.83-0.67c0.36-0.17,0.77-0.25,1.22-0.25c0.46,0,0.87,0.07,1.23,0.22c0.37,0.15,0.66,0.36,0.87,0.62
								c0.22,0.26,0.33,0.56,0.35,0.88h-1.04c-0.01-0.17-0.08-0.32-0.21-0.46c-0.13-0.14-0.29-0.24-0.5-0.32
								c-0.21-0.08-0.44-0.11-0.7-0.11c-0.26,0-0.5,0.04-0.7,0.13s-0.36,0.21-0.48,0.37c-0.11,0.16-0.17,0.33-0.17,0.53
								c0,0.15,0.03,0.28,0.08,0.39c0.05,0.11,0.13,0.21,0.24,0.28c0.11,0.07,0.24,0.13,0.41,0.16l1.61,0.29
								c0.33,0.06,0.62,0.18,0.86,0.35c0.24,0.17,0.42,0.39,0.55,0.65s0.19,0.54,0.19,0.85c0,0.38-0.11,0.73-0.33,1.03
								c-0.22,0.31-0.52,0.55-0.9,0.72c-0.38,0.17-0.81,0.26-1.28,0.26C194,306.58,193.56,306.5,193.16,306.34z"/>
						</g>
					</g>
				</g>
				<g>
					<g>
						<path class="st2" d="M618.55,279l-145.68,0c-6.04,0-10.94,4.9-10.94,10.94v24.26c0,6.04,4.9,10.94,10.94,10.94l145.68,0
							c6.04,0,10.94-4.9,10.94-10.94v-24.26C629.49,283.9,624.59,279,618.55,279z"/>
					</g>
					<g>
						<g>
							<path d="M489.94,289.4h1.12l4.8,7.25v-7.25h1.06v8.93h-1.14l-4.79-7.25v7.25h-1.06V289.4z"/>
							<path d="M503.02,291.91c0.37,0.18,0.66,0.44,0.87,0.79c0.21,0.35,0.31,0.76,0.31,1.23v4.39h-1v-2.44h0.27
								c0,0.54-0.09,1.01-0.28,1.4c-0.19,0.39-0.46,0.69-0.8,0.89c-0.35,0.2-0.76,0.31-1.24,0.31c-0.42,0-0.79-0.08-1.13-0.24
								s-0.6-0.38-0.79-0.67c-0.19-0.28-0.29-0.61-0.29-0.97c0-0.34,0.09-0.65,0.26-0.94c0.18-0.29,0.42-0.52,0.73-0.7
								c0.31-0.18,0.66-0.3,1.06-0.34l1.74-0.19c0.14-0.02,0.26-0.08,0.34-0.18c0.08-0.1,0.12-0.25,0.12-0.45l0.08,1.34l-2.14,0.24
								c-0.22,0.03-0.42,0.09-0.59,0.2s-0.31,0.24-0.4,0.41c-0.1,0.17-0.14,0.36-0.14,0.56c0,0.22,0.06,0.42,0.18,0.59
								c0.12,0.17,0.28,0.3,0.49,0.4c0.21,0.1,0.45,0.14,0.71,0.14c0.37,0,0.69-0.07,0.96-0.22c0.27-0.15,0.49-0.36,0.63-0.63
								c0.15-0.27,0.22-0.58,0.22-0.93v-2.08c0-0.26-0.06-0.49-0.19-0.69c-0.12-0.2-0.3-0.35-0.52-0.46
								c-0.22-0.11-0.48-0.16-0.77-0.16s-0.56,0.05-0.79,0.15s-0.42,0.23-0.56,0.4c-0.14,0.17-0.23,0.35-0.26,0.55h-1.02
								c0.05-0.37,0.2-0.7,0.44-1c0.24-0.3,0.55-0.53,0.93-0.7c0.38-0.17,0.81-0.26,1.27-0.26
								C502.21,291.64,502.64,291.73,503.02,291.91z"/>
							<path d="M507.49,298.13c-0.25-0.13-0.45-0.32-0.6-0.56c-0.15-0.24-0.22-0.5-0.22-0.79l-0.01-4.08h-1.15l0.01-0.91h0.71
								c0.16,0,0.29-0.05,0.39-0.15c0.1-0.1,0.15-0.23,0.15-0.39v-1.05h0.92v1.6h1.58l-0.01,0.91h-1.58l0.01,4.02
								c0,0.2,0.07,0.37,0.2,0.5c0.13,0.13,0.3,0.2,0.5,0.2h0.87v0.91h-0.93C508.03,298.33,507.74,298.26,507.49,298.13z"/>
							<path d="M512.15,289.4v1.21h-1.2v-1.21H512.15z M511.04,291.8h1.02v6.53h-1.02V291.8z"/>
							<path d="M513.45,291.8h1.11l1.99,5.17l1.93-5.17h1.08l-2.57,6.53h-0.96L513.45,291.8z"/>
							<path d="M521.82,298.04c-0.49-0.29-0.87-0.7-1.15-1.22c-0.27-0.52-0.41-1.11-0.41-1.77c0-0.64,0.14-1.22,0.42-1.74
								c0.28-0.52,0.66-0.93,1.15-1.22c0.49-0.3,1.04-0.44,1.64-0.44c0.62,0,1.16,0.15,1.62,0.44s0.83,0.7,1.08,1.22
								s0.38,1.11,0.38,1.76v0.25h-5.28l0.01-0.28c0,0.49,0.1,0.93,0.3,1.32c0.19,0.39,0.46,0.69,0.8,0.91
								c0.34,0.22,0.72,0.33,1.15,0.33c0.29,0,0.55-0.04,0.79-0.11s0.46-0.17,0.64-0.31c0.18-0.13,0.32-0.29,0.42-0.47h1.02
								c-0.08,0.27-0.24,0.54-0.48,0.82c-0.24,0.27-0.58,0.5-1,0.68s-0.9,0.27-1.46,0.27C522.86,298.48,522.31,298.34,521.82,298.04
								z M521.27,294.47h4.26v0.58c0-0.5-0.08-0.94-0.24-1.32c-0.16-0.38-0.39-0.67-0.7-0.88c-0.31-0.21-0.68-0.31-1.11-0.31
								c-0.43,0-0.82,0.1-1.15,0.3c-0.33,0.2-0.59,0.49-0.77,0.86c-0.18,0.37-0.27,0.8-0.27,1.3L521.27,294.47z"/>
							<path d="M532.01,298.04c-0.49-0.29-0.87-0.7-1.15-1.22c-0.27-0.52-0.41-1.11-0.41-1.77c0-0.64,0.14-1.22,0.42-1.74
								c0.28-0.52,0.66-0.93,1.15-1.22c0.49-0.3,1.04-0.44,1.64-0.44c0.62,0,1.16,0.15,1.62,0.44s0.83,0.7,1.08,1.22
								s0.38,1.11,0.38,1.76v0.25h-5.28l0.01-0.28c0,0.49,0.1,0.93,0.3,1.32c0.19,0.39,0.46,0.69,0.8,0.91
								c0.34,0.22,0.72,0.33,1.15,0.33c0.29,0,0.55-0.04,0.79-0.11s0.46-0.17,0.64-0.31c0.18-0.13,0.32-0.29,0.42-0.47h1.02
								c-0.08,0.27-0.24,0.54-0.48,0.82c-0.24,0.27-0.58,0.5-1,0.68s-0.9,0.27-1.46,0.27C533.05,298.48,532.5,298.34,532.01,298.04z
								 M531.46,294.47h4.26v0.58c0-0.5-0.08-0.94-0.24-1.32c-0.16-0.38-0.39-0.67-0.7-0.88c-0.31-0.21-0.68-0.31-1.11-0.31
								c-0.43,0-0.82,0.1-1.15,0.3c-0.33,0.2-0.59,0.49-0.77,0.86c-0.18,0.37-0.27,0.8-0.27,1.3L531.46,294.47z"/>
							<path d="M540.02,294.66l0.19-0.22l1.81-2.65h1.16l-2.39,3.4l-0.28,0.34l-1.91,2.79h-1.16L540.02,294.66z M540.08,295.41
								l-0.13-0.26l-2.39-3.36h1.19l1.86,2.68l0.11,0.21l2.58,3.64h-1.19L540.08,295.41z"/>
							<path d="M545.56,298.04c-0.49-0.29-0.87-0.7-1.15-1.22c-0.27-0.52-0.41-1.11-0.41-1.77c0-0.64,0.14-1.22,0.42-1.74
								c0.28-0.52,0.66-0.93,1.15-1.22c0.49-0.3,1.04-0.44,1.64-0.44c0.62,0,1.16,0.15,1.62,0.44s0.83,0.7,1.08,1.22
								s0.38,1.11,0.38,1.76v0.25h-5.28l0.01-0.28c0,0.49,0.1,0.93,0.3,1.32c0.19,0.39,0.46,0.69,0.8,0.91
								c0.34,0.22,0.72,0.33,1.15,0.33c0.29,0,0.55-0.04,0.79-0.11s0.46-0.17,0.64-0.31c0.18-0.13,0.32-0.29,0.42-0.47h1.02
								c-0.08,0.27-0.24,0.54-0.48,0.82c-0.24,0.27-0.58,0.5-1,0.68s-0.9,0.27-1.46,0.27C546.6,298.48,546.05,298.34,545.56,298.04z
								 M545.02,294.47h4.26v0.58c0-0.5-0.08-0.94-0.24-1.32c-0.16-0.38-0.39-0.67-0.7-0.88c-0.31-0.21-0.68-0.31-1.11-0.31
								c-0.43,0-0.82,0.1-1.15,0.3c-0.33,0.2-0.59,0.49-0.77,0.86c-0.18,0.37-0.27,0.8-0.27,1.3L545.02,294.47z"/>
							<path d="M553.01,298.04c-0.5-0.3-0.89-0.71-1.17-1.23c-0.28-0.52-0.42-1.1-0.42-1.74c0-0.64,0.14-1.22,0.42-1.74
								c0.28-0.52,0.67-0.93,1.17-1.23c0.5-0.3,1.05-0.45,1.67-0.45c0.52,0,0.99,0.09,1.41,0.26c0.42,0.18,0.76,0.44,1.04,0.79
								c0.28,0.35,0.47,0.78,0.57,1.29h-1.02c-0.09-0.31-0.24-0.58-0.44-0.79c-0.2-0.21-0.43-0.37-0.7-0.48s-0.55-0.16-0.85-0.16
								c-0.42,0-0.8,0.11-1.13,0.32c-0.33,0.21-0.59,0.51-0.78,0.89s-0.28,0.81-0.28,1.29c0,0.48,0.09,0.9,0.28,1.28
								c0.19,0.38,0.45,0.68,0.78,0.89c0.33,0.21,0.71,0.32,1.13,0.32c0.3,0,0.59-0.05,0.85-0.16c0.27-0.1,0.5-0.26,0.7-0.48
								c0.2-0.21,0.35-0.48,0.44-0.79h1.02c-0.1,0.49-0.29,0.92-0.57,1.27c-0.29,0.35-0.64,0.62-1.06,0.8
								c-0.42,0.18-0.88,0.27-1.38,0.27C554.06,298.48,553.51,298.33,553.01,298.04z"/>
							<path d="M564.72,298.33h-0.98v-2.83h0.41c0,0.6-0.1,1.13-0.31,1.58s-0.51,0.79-0.89,1.04s-0.84,0.36-1.37,0.36
								c-0.47,0-0.88-0.1-1.24-0.3c-0.36-0.2-0.65-0.49-0.85-0.88c-0.21-0.39-0.31-0.86-0.31-1.4v-4.1h1.02v4
								c0,0.38,0.07,0.7,0.2,0.97c0.13,0.27,0.32,0.47,0.57,0.61c0.25,0.14,0.54,0.21,0.88,0.21c0.37,0,0.69-0.08,0.97-0.24
								c0.28-0.16,0.5-0.39,0.65-0.68s0.23-0.62,0.23-1v-3.87h1.02V298.33z"/>
							<path d="M568.2,298.13c-0.25-0.13-0.45-0.32-0.6-0.56c-0.15-0.24-0.22-0.5-0.22-0.79l-0.01-4.08h-1.15l0.01-0.91h0.71
								c0.16,0,0.29-0.05,0.39-0.15c0.1-0.1,0.15-0.23,0.15-0.39v-1.05h0.92v1.6h1.58l-0.01,0.91h-1.58l0.01,4.02
								c0,0.2,0.07,0.37,0.2,0.5c0.13,0.13,0.3,0.2,0.5,0.2h0.87v0.91h-0.93C568.74,298.33,568.46,298.26,568.2,298.13z"/>
							<path d="M575.36,291.91c0.37,0.18,0.66,0.44,0.87,0.79c0.21,0.35,0.31,0.76,0.31,1.23v4.39h-1v-2.44h0.27
								c0,0.54-0.09,1.01-0.28,1.4c-0.19,0.39-0.46,0.69-0.8,0.89c-0.35,0.2-0.76,0.31-1.24,0.31c-0.42,0-0.79-0.08-1.13-0.24
								s-0.6-0.38-0.79-0.67c-0.19-0.28-0.29-0.61-0.29-0.97c0-0.34,0.09-0.65,0.26-0.94c0.18-0.29,0.42-0.52,0.73-0.7
								c0.31-0.18,0.66-0.3,1.06-0.34l1.74-0.19c0.14-0.02,0.26-0.08,0.34-0.18c0.08-0.1,0.12-0.25,0.12-0.45l0.08,1.34l-2.14,0.24
								c-0.22,0.03-0.42,0.09-0.59,0.2s-0.31,0.24-0.4,0.41c-0.1,0.17-0.14,0.36-0.14,0.56c0,0.22,0.06,0.42,0.18,0.59
								c0.12,0.17,0.28,0.3,0.49,0.4c0.21,0.1,0.45,0.14,0.71,0.14c0.37,0,0.69-0.07,0.96-0.22c0.27-0.15,0.49-0.36,0.63-0.63
								c0.15-0.27,0.22-0.58,0.22-0.93v-2.08c0-0.26-0.06-0.49-0.19-0.69c-0.12-0.2-0.3-0.35-0.52-0.46
								c-0.22-0.11-0.48-0.16-0.77-0.16s-0.56,0.05-0.79,0.15s-0.42,0.23-0.56,0.4c-0.14,0.17-0.23,0.35-0.26,0.55h-1.02
								c0.05-0.37,0.2-0.7,0.44-1c0.24-0.3,0.55-0.53,0.93-0.7c0.38-0.17,0.81-0.26,1.27-0.26
								C574.55,291.64,574.98,291.73,575.36,291.91z"/>
							<path d="M578.58,289.4h1.02v8.93h-1.02V289.4z M580.5,298.11c-0.43-0.25-0.76-0.6-1-1.05c-0.24-0.45-0.36-0.97-0.37-1.56
								h0.42v-0.88h-0.42c0.01-0.59,0.13-1.11,0.37-1.56c0.24-0.45,0.58-0.8,1-1.05c0.43-0.25,0.92-0.37,1.49-0.37
								c0.61,0,1.15,0.14,1.62,0.43c0.47,0.29,0.84,0.69,1.11,1.21c0.27,0.52,0.4,1.11,0.4,1.78c0,0.67-0.13,1.26-0.4,1.78
								c-0.27,0.52-0.64,0.92-1.11,1.21c-0.47,0.29-1.02,0.43-1.62,0.43C581.43,298.48,580.93,298.36,580.5,298.11z M582.98,297.24
								c0.34-0.21,0.6-0.5,0.78-0.88c0.19-0.38,0.28-0.81,0.28-1.3c0-0.49-0.09-0.92-0.28-1.3c-0.19-0.38-0.45-0.67-0.78-0.88
								c-0.34-0.21-0.72-0.32-1.15-0.32c-0.44,0-0.83,0.11-1.17,0.32c-0.34,0.21-0.6,0.5-0.79,0.88c-0.19,0.38-0.28,0.81-0.28,1.3
								c0,0.49,0.09,0.92,0.28,1.3c0.19,0.38,0.45,0.67,0.79,0.88c0.34,0.21,0.73,0.32,1.17,0.32
								C582.26,297.56,582.65,297.45,582.98,297.24z"/>
							<path d="M586.8,289.4h1.02v8.93h-1.02V289.4z"/>
							<path d="M591.05,298.04c-0.49-0.29-0.87-0.7-1.15-1.22c-0.27-0.52-0.41-1.11-0.41-1.77c0-0.64,0.14-1.22,0.42-1.74
								c0.28-0.52,0.66-0.93,1.15-1.22c0.49-0.3,1.04-0.44,1.64-0.44c0.62,0,1.16,0.15,1.62,0.44s0.83,0.7,1.08,1.22
								s0.38,1.11,0.38,1.76v0.25h-5.28l0.01-0.28c0,0.49,0.1,0.93,0.3,1.32c0.19,0.39,0.46,0.69,0.8,0.91
								c0.34,0.22,0.72,0.33,1.15,0.33c0.29,0,0.55-0.04,0.79-0.11s0.46-0.17,0.64-0.31c0.18-0.13,0.32-0.29,0.42-0.47h1.02
								c-0.08,0.27-0.24,0.54-0.48,0.82c-0.24,0.27-0.58,0.5-1,0.68s-0.9,0.27-1.46,0.27C592.09,298.48,591.54,298.34,591.05,298.04
								z M590.51,294.47h4.26v0.58c0-0.5-0.08-0.94-0.24-1.32c-0.16-0.38-0.39-0.67-0.7-0.88c-0.31-0.21-0.68-0.31-1.11-0.31
								c-0.43,0-0.82,0.1-1.15,0.3c-0.33,0.2-0.59,0.49-0.77,0.86c-0.18,0.37-0.27,0.8-0.27,1.3L590.51,294.47z"/>
							<path d="M598.29,298.25c-0.4-0.16-0.71-0.38-0.95-0.66c-0.24-0.28-0.36-0.6-0.38-0.96H598c0.02,0.2,0.1,0.37,0.24,0.53
								c0.14,0.16,0.34,0.28,0.57,0.37c0.24,0.09,0.5,0.13,0.8,0.13c0.3,0,0.56-0.05,0.79-0.15s0.4-0.23,0.53-0.41
								s0.19-0.37,0.19-0.59c0-0.16-0.03-0.3-0.09-0.43s-0.15-0.23-0.26-0.32c-0.11-0.08-0.25-0.14-0.41-0.17l-1.58-0.29
								c-0.33-0.06-0.62-0.17-0.86-0.33s-0.42-0.37-0.55-0.62s-0.19-0.53-0.19-0.85c0-0.34,0.1-0.66,0.3-0.94
								c0.2-0.28,0.48-0.51,0.83-0.67c0.36-0.17,0.77-0.25,1.22-0.25c0.46,0,0.87,0.07,1.23,0.22c0.37,0.15,0.66,0.36,0.87,0.62
								c0.22,0.26,0.33,0.56,0.35,0.88h-1.04c-0.01-0.17-0.08-0.32-0.21-0.46c-0.13-0.14-0.29-0.24-0.5-0.32
								c-0.21-0.08-0.44-0.11-0.7-0.11c-0.26,0-0.5,0.04-0.7,0.13s-0.36,0.21-0.48,0.37c-0.11,0.16-0.17,0.33-0.17,0.53
								c0,0.15,0.03,0.28,0.08,0.39c0.05,0.11,0.13,0.21,0.24,0.28c0.11,0.07,0.24,0.13,0.41,0.16l1.61,0.29
								c0.33,0.06,0.62,0.18,0.86,0.35c0.24,0.17,0.42,0.39,0.55,0.65s0.19,0.54,0.19,0.85c0,0.38-0.11,0.73-0.33,1.03
								c-0.22,0.31-0.52,0.55-0.9,0.72c-0.38,0.17-0.81,0.26-1.28,0.26C599.13,298.48,598.68,298.4,598.29,298.25z"/>
							<path d="M474.29,309.11h-1.15v-0.91h1.15v-0.85c0-0.3,0.07-0.57,0.21-0.8c0.14-0.23,0.34-0.42,0.59-0.55s0.54-0.19,0.86-0.19
								h1.05v0.91h-0.98c-0.21,0-0.38,0.06-0.51,0.19s-0.19,0.3-0.19,0.51v0.79h1.62v0.91h-1.62v5.63h-1.02V309.11z"/>
							<path d="M479.43,314.45c-0.51-0.3-0.91-0.7-1.2-1.22s-0.44-1.1-0.44-1.75c0-0.65,0.15-1.23,0.44-1.75
								c0.29-0.52,0.69-0.93,1.2-1.22c0.51-0.3,1.08-0.44,1.7-0.44c0.62,0,1.18,0.15,1.69,0.44c0.51,0.3,0.91,0.7,1.2,1.22
								c0.29,0.52,0.44,1.1,0.44,1.75c0,0.65-0.15,1.24-0.44,1.75c-0.29,0.52-0.69,0.93-1.2,1.22c-0.51,0.3-1.07,0.44-1.7,0.44
								C480.5,314.89,479.94,314.74,479.43,314.45z M482.28,313.65c0.34-0.21,0.61-0.5,0.8-0.88c0.2-0.38,0.29-0.81,0.29-1.3
								c0-0.49-0.1-0.92-0.29-1.3c-0.2-0.38-0.46-0.67-0.81-0.88c-0.34-0.21-0.73-0.31-1.15-0.31s-0.81,0.1-1.15,0.31
								c-0.34,0.21-0.62,0.5-0.81,0.88c-0.2,0.38-0.3,0.81-0.3,1.3c0,0.49,0.1,0.92,0.3,1.3c0.2,0.38,0.47,0.67,0.82,0.88
								c0.35,0.21,0.73,0.31,1.16,0.31S481.94,313.85,482.28,313.65z"/>
							<path d="M486.13,308.2h1.02v2.19l-0.43,0.64c0.02-0.59,0.12-1.1,0.32-1.53c0.2-0.44,0.47-0.77,0.83-1
								c0.35-0.23,0.76-0.35,1.23-0.35h0.23v1.07h-0.27c-0.39,0-0.73,0.07-1.01,0.22c-0.29,0.15-0.51,0.36-0.67,0.63
								c-0.16,0.27-0.23,0.6-0.23,0.97v3.71h-1.02V308.2z"/>
							<path d="M494.77,314.34c-0.53-0.36-0.93-0.88-1.22-1.55s-0.43-1.45-0.43-2.35c0-0.97,0.15-1.81,0.44-2.54s0.7-1.28,1.23-1.67
								c0.53-0.39,1.13-0.58,1.81-0.58c0.43,0,0.84,0.06,1.23,0.19c0.39,0.12,0.74,0.33,1.06,0.61c0.31,0.28,0.56,0.65,0.73,1.09
								h-1.06c-0.1-0.17-0.24-0.33-0.43-0.47c-0.19-0.14-0.41-0.25-0.66-0.33c-0.25-0.08-0.52-0.12-0.81-0.12
								c-0.47,0-0.9,0.13-1.27,0.4c-0.38,0.26-0.68,0.68-0.9,1.25s-0.34,1.29-0.34,2.15c0.13-0.33,0.33-0.62,0.59-0.87
								c0.26-0.25,0.57-0.44,0.93-0.58c0.36-0.14,0.75-0.2,1.18-0.2c0.57,0,1.09,0.13,1.55,0.4s0.82,0.63,1.08,1.1
								c0.26,0.47,0.39,0.99,0.39,1.57c0,0.58-0.14,1.1-0.42,1.57c-0.28,0.47-0.67,0.83-1.17,1.1c-0.5,0.27-1.06,0.4-1.67,0.4
								C495.9,314.89,495.29,314.71,494.77,314.34z M497.74,313.66c0.32-0.18,0.58-0.43,0.76-0.75c0.18-0.32,0.27-0.68,0.27-1.08
								c0-0.4-0.09-0.77-0.28-1.09c-0.19-0.33-0.45-0.58-0.78-0.77s-0.7-0.28-1.11-0.28c-0.41,0-0.77,0.09-1.1,0.28
								c-0.33,0.19-0.58,0.44-0.77,0.77c-0.19,0.33-0.28,0.69-0.28,1.09c0,0.4,0.09,0.77,0.28,1.09c0.19,0.32,0.45,0.57,0.78,0.76
								c0.33,0.18,0.71,0.27,1.13,0.27C497.06,313.93,497.42,313.84,497.74,313.66z"/>
							<path d="M505.36,312.54h-4.53v-0.96l4.52-5.77h0.62l0.36,0.12l-4.4,5.65h3.43v-5.77h1.05v5.77h1.39v0.96h-1.39v2.2h-1.05
								V312.54z"/>
							<path d="M513.62,310.63v0.89h-4.27v-0.89H513.62z"/>
							<path d="M515.85,305.8h1.02v8.93h-1.02V305.8z M517.77,314.52c-0.43-0.25-0.76-0.6-1-1.05c-0.24-0.45-0.36-0.97-0.37-1.56
								h0.42v-0.88h-0.42c0.01-0.59,0.13-1.11,0.37-1.56c0.24-0.45,0.58-0.8,1-1.05c0.43-0.25,0.92-0.37,1.49-0.37
								c0.61,0,1.15,0.14,1.62,0.43c0.47,0.29,0.84,0.69,1.11,1.21c0.27,0.52,0.4,1.11,0.4,1.78c0,0.67-0.13,1.26-0.4,1.78
								c-0.27,0.52-0.64,0.92-1.11,1.21c-0.47,0.29-1.02,0.43-1.62,0.43C518.69,314.89,518.2,314.77,517.77,314.52z M520.25,313.65
								c0.34-0.21,0.6-0.5,0.78-0.88c0.19-0.38,0.28-0.81,0.28-1.3c0-0.49-0.09-0.92-0.28-1.3c-0.19-0.38-0.45-0.67-0.78-0.88
								c-0.34-0.21-0.72-0.32-1.15-0.32c-0.44,0-0.83,0.11-1.17,0.32c-0.34,0.21-0.6,0.5-0.79,0.88c-0.19,0.38-0.28,0.81-0.28,1.3
								c0,0.49,0.09,0.92,0.28,1.3c0.19,0.38,0.45,0.67,0.79,0.88c0.34,0.21,0.73,0.32,1.17,0.32
								C519.53,313.96,519.92,313.86,520.25,313.65z"/>
							<path d="M525.18,305.8v1.21h-1.2v-1.21H525.18z M524.07,308.2h1.02v6.53h-1.02V308.2z"/>
							<path d="M528.57,314.54c-0.25-0.13-0.45-0.32-0.6-0.56c-0.15-0.24-0.22-0.5-0.22-0.79l-0.01-4.08h-1.15l0.01-0.91h0.71
								c0.16,0,0.29-0.05,0.39-0.15c0.1-0.1,0.15-0.23,0.15-0.39v-1.05h0.92v1.6h1.58l-0.01,0.91h-1.58l0.01,4.02
								c0,0.2,0.07,0.37,0.2,0.5c0.13,0.13,0.3,0.2,0.5,0.2h0.87v0.91h-0.93C529.11,314.74,528.83,314.67,528.57,314.54z"/>
							<path d="M536.39,305.8v1.21h-1.2v-1.21H536.39z M535.28,308.2h1.02v6.53h-1.02V308.2z"/>
							<path d="M538.79,305.8h3.61c0.57,0,1.07,0.11,1.5,0.32c0.43,0.21,0.77,0.51,1,0.91c0.24,0.39,0.35,0.85,0.35,1.37
								s-0.12,0.98-0.36,1.37c-0.24,0.39-0.58,0.7-1.02,0.91c-0.44,0.21-0.95,0.32-1.53,0.32h-2.5v3.74h-1.06V305.8z M543.32,309.81
								c0.26-0.13,0.46-0.32,0.61-0.56c0.14-0.24,0.21-0.53,0.21-0.85c0-0.32-0.07-0.61-0.21-0.85c-0.14-0.24-0.34-0.43-0.61-0.56
								c-0.26-0.13-0.57-0.19-0.92-0.19h-2.55v3.22h2.55C542.75,310.01,543.06,309.94,543.32,309.81z"/>
							<path d="M546.69,305.8h0.98v2.06v1.16v2h-0.41c0-0.6,0.1-1.13,0.31-1.58c0.21-0.45,0.51-0.79,0.89-1.04s0.84-0.36,1.37-0.36
								c0.47,0,0.88,0.1,1.24,0.3c0.36,0.2,0.65,0.49,0.85,0.88c0.21,0.39,0.31,0.86,0.31,1.4v4.1h-1.02v-4
								c0-0.38-0.07-0.7-0.2-0.97c-0.13-0.27-0.32-0.47-0.57-0.61s-0.54-0.21-0.88-0.21c-0.37,0-0.69,0.08-0.97,0.24
								c-0.28,0.16-0.5,0.39-0.65,0.68c-0.16,0.29-0.23,0.62-0.23,1v3.87h-1.02V305.8z"/>
							<path d="M555.36,314.45c-0.51-0.3-0.91-0.7-1.2-1.22s-0.44-1.1-0.44-1.75c0-0.65,0.15-1.23,0.44-1.75
								c0.29-0.52,0.69-0.93,1.2-1.22c0.51-0.3,1.08-0.44,1.7-0.44c0.62,0,1.18,0.15,1.69,0.44c0.51,0.3,0.91,0.7,1.2,1.22
								c0.29,0.52,0.44,1.1,0.44,1.75c0,0.65-0.15,1.24-0.44,1.75c-0.29,0.52-0.69,0.93-1.2,1.22c-0.51,0.3-1.07,0.44-1.7,0.44
								C556.44,314.89,555.87,314.74,555.36,314.45z M558.22,313.65c0.34-0.21,0.61-0.5,0.8-0.88c0.2-0.38,0.29-0.81,0.29-1.3
								c0-0.49-0.1-0.92-0.29-1.3c-0.2-0.38-0.46-0.67-0.81-0.88c-0.34-0.21-0.73-0.31-1.15-0.31s-0.81,0.1-1.15,0.31
								c-0.34,0.21-0.62,0.5-0.81,0.88c-0.2,0.38-0.3,0.81-0.3,1.3c0,0.49,0.1,0.92,0.3,1.3c0.2,0.38,0.47,0.67,0.82,0.88
								c0.35,0.21,0.73,0.31,1.16,0.31S557.88,313.85,558.22,313.65z"/>
							<path d="M562.07,308.2h0.98v2.83h-0.41c0-0.6,0.1-1.13,0.31-1.58c0.21-0.45,0.51-0.79,0.89-1.04s0.84-0.36,1.37-0.36
								c0.47,0,0.88,0.1,1.24,0.3c0.36,0.2,0.65,0.49,0.85,0.88c0.21,0.39,0.31,0.86,0.31,1.4v4.1h-1.02v-4
								c0-0.38-0.07-0.7-0.2-0.97c-0.13-0.27-0.32-0.47-0.57-0.61s-0.54-0.21-0.88-0.21c-0.37,0-0.69,0.08-0.97,0.24
								c-0.28,0.16-0.5,0.39-0.65,0.68c-0.16,0.29-0.23,0.62-0.23,1v3.87h-1.02V308.2z"/>
							<path d="M570.66,314.45c-0.49-0.29-0.87-0.7-1.15-1.22c-0.27-0.52-0.41-1.11-0.41-1.77c0-0.64,0.14-1.22,0.42-1.74
								c0.28-0.52,0.66-0.93,1.15-1.22c0.49-0.3,1.04-0.44,1.64-0.44c0.62,0,1.16,0.15,1.62,0.44s0.83,0.7,1.08,1.22
								s0.38,1.11,0.38,1.76v0.25h-5.28l0.01-0.28c0,0.49,0.1,0.93,0.3,1.32c0.19,0.39,0.46,0.69,0.8,0.91
								c0.34,0.22,0.72,0.33,1.15,0.33c0.29,0,0.55-0.04,0.79-0.11s0.46-0.17,0.64-0.31c0.18-0.13,0.32-0.29,0.42-0.47h1.02
								c-0.08,0.27-0.24,0.54-0.48,0.82c-0.24,0.27-0.58,0.5-1,0.68s-0.9,0.27-1.46,0.27C571.7,314.89,571.15,314.74,570.66,314.45z
								 M570.12,310.88h4.26v0.58c0-0.5-0.08-0.94-0.24-1.32c-0.16-0.38-0.39-0.67-0.7-0.88c-0.31-0.21-0.68-0.31-1.11-0.31
								c-0.43,0-0.82,0.1-1.15,0.3c-0.33,0.2-0.59,0.49-0.77,0.86c-0.18,0.37-0.27,0.8-0.27,1.3L570.12,310.88z"/>
							<path d="M580.8,314.46c-0.47-0.29-0.84-0.69-1.11-1.21c-0.27-0.52-0.4-1.11-0.4-1.78c0-0.67,0.13-1.26,0.4-1.78
								c0.27-0.52,0.64-0.92,1.11-1.21s1.02-0.43,1.62-0.43c0.56,0,1.06,0.12,1.49,0.37c0.43,0.25,0.76,0.6,1,1.05
								s0.36,0.97,0.37,1.56h-0.42v0.88h0.42c-0.01,0.59-0.13,1.11-0.37,1.56c-0.24,0.45-0.58,0.8-1,1.05
								c-0.43,0.25-0.93,0.37-1.49,0.37C581.82,314.89,581.28,314.75,580.8,314.46z M583.75,313.65c0.34-0.21,0.61-0.5,0.79-0.88
								c0.19-0.38,0.28-0.81,0.28-1.3c0-0.49-0.09-0.92-0.28-1.3c-0.19-0.38-0.45-0.67-0.79-0.88c-0.34-0.21-0.73-0.32-1.17-0.32
								c-0.43,0-0.82,0.11-1.15,0.32c-0.34,0.21-0.6,0.5-0.78,0.88s-0.28,0.81-0.28,1.3c0,0.49,0.09,0.92,0.28,1.3
								c0.19,0.38,0.45,0.67,0.78,0.88c0.34,0.21,0.72,0.32,1.15,0.32C583.02,313.96,583.41,313.86,583.75,313.65z M584.81,305.8
								h1.02v8.93h-1.02V305.8z"/>
							<path d="M588.97,314.45c-0.49-0.29-0.87-0.7-1.15-1.22c-0.27-0.52-0.41-1.11-0.41-1.77c0-0.64,0.14-1.22,0.42-1.74
								c0.28-0.52,0.66-0.93,1.15-1.22c0.49-0.3,1.04-0.44,1.64-0.44c0.62,0,1.16,0.15,1.62,0.44s0.83,0.7,1.08,1.22
								s0.38,1.11,0.38,1.76v0.25h-5.28l0.01-0.28c0,0.49,0.1,0.93,0.3,1.32c0.19,0.39,0.46,0.69,0.8,0.91
								c0.34,0.22,0.72,0.33,1.15,0.33c0.29,0,0.55-0.04,0.79-0.11s0.46-0.17,0.64-0.31c0.18-0.13,0.32-0.29,0.42-0.47h1.02
								c-0.08,0.27-0.24,0.54-0.48,0.82c-0.24,0.27-0.58,0.5-1,0.68s-0.9,0.27-1.46,0.27C590.01,314.89,589.46,314.74,588.97,314.45
								z M588.43,310.88h4.26v0.58c0-0.5-0.08-0.94-0.24-1.32c-0.16-0.38-0.39-0.67-0.7-0.88c-0.31-0.21-0.68-0.31-1.11-0.31
								c-0.43,0-0.82,0.1-1.15,0.3c-0.33,0.2-0.59,0.49-0.77,0.86c-0.18,0.37-0.27,0.8-0.27,1.3L588.43,310.88z"/>
							<path d="M594.41,308.2h1.11l1.99,5.17l1.93-5.17h1.08l-2.57,6.53h-0.96L594.41,308.2z"/>
							<path d="M603.01,305.8v1.21h-1.2v-1.21H603.01z M601.9,308.2h1.02v6.53h-1.02V308.2z"/>
							<path d="M606.2,314.44c-0.5-0.3-0.89-0.71-1.17-1.23c-0.28-0.52-0.42-1.1-0.42-1.74c0-0.64,0.14-1.22,0.42-1.74
								c0.28-0.52,0.67-0.93,1.17-1.23c0.5-0.3,1.05-0.45,1.67-0.45c0.52,0,0.99,0.09,1.41,0.26c0.42,0.18,0.76,0.44,1.04,0.79
								c0.28,0.35,0.47,0.78,0.57,1.29h-1.02c-0.09-0.31-0.24-0.58-0.44-0.79c-0.2-0.21-0.43-0.37-0.7-0.48s-0.55-0.16-0.85-0.16
								c-0.42,0-0.8,0.11-1.13,0.32c-0.33,0.21-0.59,0.51-0.78,0.89s-0.28,0.81-0.28,1.29c0,0.48,0.09,0.9,0.28,1.28
								c0.19,0.38,0.45,0.68,0.78,0.89c0.33,0.21,0.71,0.32,1.13,0.32c0.3,0,0.59-0.05,0.85-0.16c0.27-0.1,0.5-0.26,0.7-0.48
								c0.2-0.21,0.35-0.48,0.44-0.79h1.02c-0.1,0.49-0.29,0.92-0.57,1.27c-0.29,0.35-0.64,0.62-1.06,0.8
								c-0.42,0.18-0.88,0.27-1.38,0.27C607.25,314.89,606.7,314.74,606.2,314.44z"/>
							<path d="M613.55,314.45c-0.49-0.29-0.87-0.7-1.15-1.22c-0.27-0.52-0.41-1.11-0.41-1.77c0-0.64,0.14-1.22,0.42-1.74
								c0.28-0.52,0.66-0.93,1.15-1.22c0.49-0.3,1.04-0.44,1.64-0.44c0.62,0,1.16,0.15,1.62,0.44s0.83,0.7,1.08,1.22
								s0.38,1.11,0.38,1.76v0.25h-5.28l0.01-0.28c0,0.49,0.1,0.93,0.3,1.32c0.19,0.39,0.46,0.69,0.8,0.91
								c0.34,0.22,0.72,0.33,1.15,0.33c0.29,0,0.55-0.04,0.79-0.11s0.46-0.17,0.64-0.31c0.18-0.13,0.32-0.29,0.42-0.47h1.02
								c-0.08,0.27-0.24,0.54-0.48,0.82c-0.24,0.27-0.58,0.5-1,0.68s-0.9,0.27-1.46,0.27C614.59,314.89,614.04,314.74,613.55,314.45
								z M613.01,310.88h4.26v0.58c0-0.5-0.08-0.94-0.24-1.32c-0.16-0.38-0.39-0.67-0.7-0.88c-0.31-0.21-0.68-0.31-1.11-0.31
								c-0.43,0-0.82,0.1-1.15,0.3c-0.33,0.2-0.59,0.49-0.77,0.86c-0.18,0.37-0.27,0.8-0.27,1.3L613.01,310.88z"/>
						</g>
					</g>
				</g>
			</g>
			<g>
				<line class="st1" x1="349.96" y1="165.35" x2="349.96" y2="269.53"/>
				<g>
					<polygon points="347.23,268.74 349.96,273.46 352.69,268.74 					"/>
				</g>
			</g>
		</g>
		<g>
			<path class="st3" d="M484.73,78.81l-269.47,0c-8.05,0-14.58,6.53-14.58,14.58v57.37c0,8.05,6.53,14.58,14.58,14.58l269.47,0
				c8.05,0,14.58-6.53,14.58-14.58V93.4C499.32,85.34,492.79,78.81,484.73,78.81z"/>
			<g>
				<g>
					
						<radialGradient id="SVGID_1_" cx="459.8989" cy="162.9139" r="191.5688" gradientTransform="matrix(1 0 0 1 -256.1165 2.170347e-03)" gradientUnits="userSpaceOnUse">
						<stop  offset="0" style="stop-color:#EB4857"/>
						<stop  offset="0.5" style="stop-color:#C611E0"/>
						<stop  offset="1" style="stop-color:#7F52FF"/>
					</radialGradient>
					<path class="st4" d="M389.9,82.45l-174.64,0c-6.04,0-10.94,4.9-10.94,10.94l0,57.4c0,6.04,4.9,10.94,10.94,10.94l174.64,0
						c6.04,0,10.94-4.9,10.94-10.94l0-57.4C400.84,87.34,395.94,82.45,389.9,82.45z"/>
				</g>
			</g>
			<g>
				<g>
					<path class="st0" d="M220.63,126.15c-0.5-0.3-0.89-0.71-1.17-1.23c-0.28-0.52-0.42-1.1-0.42-1.74c0-0.64,0.14-1.22,0.42-1.74
						c0.28-0.52,0.67-0.93,1.17-1.23c0.5-0.3,1.05-0.45,1.67-0.45c0.52,0,0.99,0.09,1.41,0.26c0.42,0.18,0.76,0.44,1.04,0.79
						c0.28,0.35,0.47,0.78,0.57,1.29h-1.02c-0.09-0.31-0.24-0.58-0.44-0.79c-0.2-0.21-0.43-0.37-0.7-0.48s-0.55-0.16-0.85-0.16
						c-0.42,0-0.8,0.11-1.13,0.32c-0.33,0.21-0.59,0.51-0.78,0.89s-0.28,0.81-0.28,1.29c0,0.48,0.09,0.9,0.28,1.28
						c0.19,0.38,0.45,0.68,0.78,0.89c0.33,0.21,0.71,0.32,1.13,0.32c0.3,0,0.59-0.05,0.85-0.16c0.27-0.1,0.5-0.26,0.7-0.48
						c0.2-0.21,0.35-0.48,0.44-0.79h1.02c-0.1,0.49-0.29,0.92-0.57,1.27c-0.29,0.35-0.64,0.62-1.06,0.8
						c-0.42,0.18-0.88,0.27-1.38,0.27C221.68,126.6,221.13,126.45,220.63,126.15z"/>
					<path class="st0" d="M228.06,126.15c-0.51-0.3-0.91-0.7-1.2-1.22s-0.44-1.1-0.44-1.75c0-0.65,0.15-1.23,0.44-1.75
						c0.29-0.52,0.69-0.93,1.2-1.22c0.51-0.3,1.08-0.44,1.7-0.44c0.62,0,1.18,0.15,1.69,0.44c0.51,0.3,0.91,0.7,1.2,1.22
						c0.29,0.52,0.44,1.1,0.44,1.75c0,0.65-0.15,1.24-0.44,1.75c-0.29,0.52-0.69,0.93-1.2,1.22c-0.51,0.3-1.07,0.44-1.7,0.44
						C229.13,126.6,228.57,126.45,228.06,126.15z M230.91,125.35c0.34-0.21,0.61-0.5,0.8-0.88c0.2-0.38,0.29-0.81,0.29-1.3
						c0-0.49-0.1-0.92-0.29-1.3c-0.2-0.38-0.46-0.67-0.81-0.88c-0.34-0.21-0.73-0.31-1.15-0.31s-0.81,0.1-1.15,0.31
						c-0.34,0.21-0.62,0.5-0.81,0.88c-0.2,0.38-0.3,0.81-0.3,1.3c0,0.49,0.1,0.92,0.3,1.3c0.2,0.38,0.47,0.67,0.82,0.88
						c0.35,0.21,0.73,0.31,1.16,0.31S230.57,125.56,230.91,125.35z"/>
					<path class="st0" d="M234.76,119.91h0.98v2.83h-0.34c0-0.61,0.09-1.14,0.28-1.59c0.19-0.45,0.46-0.79,0.82-1.03
						s0.78-0.36,1.28-0.36c0.46,0,0.87,0.11,1.22,0.32s0.62,0.51,0.81,0.9c0.19,0.39,0.29,0.84,0.29,1.35v4.12h-1.02v-4.08
						c0-0.36-0.06-0.67-0.18-0.93c-0.12-0.26-0.3-0.46-0.53-0.6c-0.23-0.14-0.51-0.21-0.83-0.21c-0.35,0-0.66,0.08-0.93,0.24
						s-0.47,0.38-0.61,0.68s-0.21,0.64-0.21,1.03v3.87h-1.02V119.91z M243.2,121.44c-0.12-0.26-0.3-0.46-0.53-0.6
						c-0.23-0.14-0.51-0.21-0.84-0.21c-0.35,0-0.66,0.08-0.92,0.24c-0.26,0.16-0.47,0.39-0.61,0.68c-0.15,0.29-0.22,0.63-0.22,1.03
						l-0.57,0.17c0-0.59,0.1-1.11,0.31-1.56c0.2-0.45,0.5-0.8,0.88-1.05c0.38-0.25,0.82-0.37,1.33-0.37c0.46,0,0.88,0.11,1.23,0.32
						s0.64,0.51,0.84,0.9c0.2,0.39,0.3,0.84,0.3,1.35v4.12h-1.02v-4.08C243.39,122.01,243.33,121.7,243.2,121.44z"/>
					<path class="st0" d="M246.45,119.91h0.98v2.83h-0.34c0-0.61,0.09-1.14,0.28-1.59c0.19-0.45,0.46-0.79,0.82-1.03
						s0.78-0.36,1.28-0.36c0.46,0,0.87,0.11,1.22,0.32s0.62,0.51,0.81,0.9c0.19,0.39,0.29,0.84,0.29,1.35v4.12h-1.02v-4.08
						c0-0.36-0.06-0.67-0.18-0.93c-0.12-0.26-0.3-0.46-0.53-0.6c-0.23-0.14-0.51-0.21-0.83-0.21c-0.35,0-0.66,0.08-0.93,0.24
						s-0.47,0.38-0.61,0.68s-0.21,0.64-0.21,1.03v3.87h-1.02V119.91z M254.89,121.44c-0.12-0.26-0.3-0.46-0.53-0.6
						c-0.23-0.14-0.51-0.21-0.84-0.21c-0.35,0-0.66,0.08-0.92,0.24c-0.26,0.16-0.47,0.39-0.61,0.68c-0.15,0.29-0.22,0.63-0.22,1.03
						l-0.57,0.17c0-0.59,0.1-1.11,0.31-1.56c0.2-0.45,0.5-0.8,0.88-1.05c0.38-0.25,0.82-0.37,1.33-0.37c0.46,0,0.88,0.11,1.23,0.32
						s0.64,0.51,0.84,0.9c0.2,0.39,0.3,0.84,0.3,1.35v4.12h-1.02v-4.08C255.07,122.01,255.01,121.7,254.89,121.44z"/>
					<path class="st0" d="M259.22,126.15c-0.51-0.3-0.91-0.7-1.2-1.22s-0.44-1.1-0.44-1.75c0-0.65,0.15-1.23,0.44-1.75
						c0.29-0.52,0.69-0.93,1.2-1.22c0.51-0.3,1.08-0.44,1.7-0.44c0.62,0,1.18,0.15,1.69,0.44c0.51,0.3,0.91,0.7,1.2,1.22
						c0.29,0.52,0.44,1.1,0.44,1.75c0,0.65-0.15,1.24-0.44,1.75c-0.29,0.52-0.69,0.93-1.2,1.22c-0.51,0.3-1.07,0.44-1.7,0.44
						C260.29,126.6,259.73,126.45,259.22,126.15z M262.07,125.35c0.34-0.21,0.61-0.5,0.8-0.88c0.2-0.38,0.29-0.81,0.29-1.3
						c0-0.49-0.1-0.92-0.29-1.3c-0.2-0.38-0.46-0.67-0.81-0.88c-0.34-0.21-0.73-0.31-1.15-0.31s-0.81,0.1-1.15,0.31
						c-0.34,0.21-0.62,0.5-0.81,0.88c-0.2,0.38-0.3,0.81-0.3,1.3c0,0.49,0.1,0.92,0.3,1.3c0.2,0.38,0.47,0.67,0.82,0.88
						c0.35,0.21,0.73,0.31,1.16,0.31S261.73,125.56,262.07,125.35z"/>
					<path class="st0" d="M265.92,119.91h0.98v2.83h-0.41c0-0.6,0.1-1.13,0.31-1.58c0.21-0.45,0.51-0.79,0.89-1.04
						s0.84-0.36,1.37-0.36c0.47,0,0.88,0.1,1.24,0.3c0.36,0.2,0.65,0.49,0.85,0.88c0.21,0.39,0.31,0.86,0.31,1.4v4.1h-1.02v-4
						c0-0.38-0.07-0.7-0.2-0.97c-0.13-0.27-0.32-0.47-0.57-0.61s-0.54-0.21-0.88-0.21c-0.37,0-0.69,0.08-0.97,0.24
						c-0.28,0.16-0.5,0.39-0.65,0.68c-0.16,0.29-0.23,0.62-0.23,1v3.87h-1.02V119.91z"/>
					<path class="st0" d="M273.77,117.51h1.32l3.2,7.16l0.17,0.45l0.16-0.45l3.15-7.16h1.35v8.93h-1.06v-7.06v-0.17l-3.16,7.22H278
						l-3.18-7.18v0.13v7.06h-1.05V117.51z"/>
					<path class="st0" d="M289.2,120.03c0.37,0.18,0.66,0.44,0.87,0.79c0.21,0.35,0.31,0.76,0.31,1.23v4.39h-1V124h0.27
						c0,0.54-0.09,1.01-0.28,1.4c-0.19,0.39-0.46,0.69-0.8,0.89c-0.35,0.2-0.76,0.31-1.24,0.31c-0.42,0-0.79-0.08-1.13-0.24
						s-0.6-0.38-0.79-0.67c-0.19-0.28-0.29-0.61-0.29-0.97c0-0.34,0.09-0.65,0.26-0.94c0.18-0.29,0.42-0.52,0.73-0.7
						c0.31-0.18,0.66-0.3,1.06-0.34l1.74-0.19c0.14-0.02,0.26-0.08,0.34-0.18c0.08-0.1,0.12-0.25,0.12-0.45l0.08,1.34l-2.14,0.24
						c-0.22,0.03-0.42,0.09-0.59,0.2s-0.31,0.24-0.4,0.41c-0.1,0.17-0.14,0.36-0.14,0.56c0,0.22,0.06,0.42,0.18,0.59
						c0.12,0.17,0.28,0.3,0.49,0.4c0.21,0.1,0.45,0.14,0.71,0.14c0.37,0,0.69-0.07,0.96-0.22c0.27-0.15,0.49-0.36,0.63-0.63
						c0.15-0.27,0.22-0.58,0.22-0.93v-2.08c0-0.26-0.06-0.49-0.19-0.69c-0.12-0.2-0.3-0.35-0.52-0.46
						c-0.22-0.11-0.48-0.16-0.77-0.16s-0.56,0.05-0.79,0.15s-0.42,0.23-0.56,0.4c-0.14,0.17-0.23,0.35-0.26,0.55h-1.02
						c0.05-0.37,0.2-0.7,0.44-1c0.24-0.3,0.55-0.53,0.93-0.7c0.38-0.17,0.81-0.26,1.27-0.26
						C288.39,119.76,288.83,119.85,289.2,120.03z"/>
					<path class="st0" d="M293.53,117.51v1.21h-1.2v-1.21H293.53z M292.42,119.91h1.02v6.53h-1.02V119.91z"/>
					<path class="st0" d="M295.68,119.91h0.98v2.83h-0.41c0-0.6,0.1-1.13,0.31-1.58c0.21-0.45,0.51-0.79,0.89-1.04
						s0.84-0.36,1.37-0.36c0.47,0,0.88,0.1,1.24,0.3c0.36,0.2,0.65,0.49,0.85,0.88c0.21,0.39,0.31,0.86,0.31,1.4v4.1h-1.02v-4
						c0-0.38-0.07-0.7-0.2-0.97c-0.13-0.27-0.32-0.47-0.57-0.61s-0.54-0.21-0.88-0.21c-0.37,0-0.69,0.08-0.97,0.24
						c-0.28,0.16-0.5,0.39-0.65,0.68c-0.16,0.29-0.23,0.62-0.23,1v3.87h-1.02V119.91z"/>
					<path class="st0" d="M306.21,117.51h1.05l-4.06,8.93h-1.05L306.21,117.51z"/>
					<path class="st0" d="M309.48,125.04v1.4h-1.4v-1.4H309.48z"/>
					<path class="st0" d="M312.53,125.04v1.4h-1.4v-1.4H312.53z"/>
					<path class="st0" d="M315.58,125.04v1.4h-1.4v-1.4H315.58z"/>
					<path class="st0" d="M320.46,117.51h1.05l-4.06,8.93h-1.05L320.46,117.51z"/>
					<path class="st0" d="M323.93,128.42c-0.4-0.15-0.74-0.36-1.01-0.63s-0.44-0.59-0.52-0.94h1.02c0.09,0.2,0.23,0.36,0.41,0.5
						c0.18,0.14,0.39,0.24,0.63,0.31c0.24,0.07,0.49,0.1,0.75,0.1c0.42,0,0.78-0.08,1.09-0.25c0.31-0.17,0.55-0.4,0.72-0.71
						c0.17-0.3,0.25-0.65,0.25-1.05v-0.27l0.05-1.84l0.53-0.65c-0.01,0.58-0.14,1.09-0.38,1.55c-0.25,0.45-0.58,0.8-1.01,1.06
						c-0.43,0.25-0.91,0.38-1.44,0.38c-0.55,0-1.05-0.13-1.5-0.4c-0.45-0.27-0.8-0.63-1.05-1.1c-0.25-0.47-0.38-1-0.38-1.59
						c0-0.59,0.13-1.12,0.38-1.59c0.26-0.47,0.61-0.84,1.05-1.11c0.45-0.27,0.95-0.4,1.5-0.4c0.53,0,1.01,0.13,1.44,0.38
						c0.43,0.26,0.76,0.61,1.01,1.07c0.25,0.46,0.37,0.97,0.38,1.56l-0.53-0.57v-2.28h0.99l-0.02,5.83c0,0.57-0.13,1.07-0.38,1.51
						c-0.26,0.44-0.61,0.78-1.08,1.02c-0.46,0.24-1,0.36-1.6,0.36C324.77,128.64,324.33,128.56,323.93,128.42z M326.29,124.78
						c0.31-0.19,0.56-0.46,0.74-0.79c0.18-0.34,0.27-0.71,0.27-1.12c0-0.42-0.09-0.79-0.27-1.13c-0.18-0.34-0.43-0.6-0.74-0.79
						c-0.31-0.19-0.66-0.29-1.05-0.29c-0.39,0-0.74,0.1-1.06,0.29c-0.31,0.19-0.56,0.46-0.74,0.79c-0.18,0.34-0.27,0.71-0.27,1.13
						c0,0.41,0.09,0.79,0.27,1.12c0.18,0.34,0.42,0.6,0.74,0.79c0.31,0.19,0.67,0.29,1.06,0.29
						C325.62,125.07,325.97,124.97,326.29,124.78z"/>
					<path class="st0" d="M330.56,119.91h1.02v2.19l-0.43,0.64c0.02-0.59,0.12-1.1,0.32-1.53c0.2-0.44,0.47-0.77,0.83-1
						c0.35-0.23,0.76-0.35,1.23-0.35h0.23v1.07h-0.27c-0.39,0-0.73,0.07-1.01,0.22c-0.29,0.15-0.51,0.36-0.67,0.63
						c-0.16,0.27-0.23,0.6-0.23,0.97v3.71h-1.02V119.91z"/>
					<path class="st0" d="M336.12,126.16c-0.49-0.29-0.87-0.7-1.15-1.22c-0.27-0.52-0.41-1.11-0.41-1.77c0-0.64,0.14-1.22,0.42-1.74
						c0.28-0.52,0.66-0.93,1.15-1.22c0.49-0.3,1.04-0.44,1.64-0.44c0.62,0,1.16,0.15,1.62,0.44s0.83,0.7,1.08,1.22
						s0.38,1.11,0.38,1.76v0.25h-5.28l0.01-0.28c0,0.49,0.1,0.93,0.3,1.32c0.19,0.39,0.46,0.69,0.8,0.91
						c0.34,0.22,0.72,0.33,1.15,0.33c0.29,0,0.55-0.04,0.79-0.11s0.46-0.17,0.64-0.31c0.18-0.13,0.32-0.29,0.42-0.47h1.02
						c-0.08,0.27-0.24,0.54-0.48,0.82c-0.24,0.27-0.58,0.5-1,0.68s-0.9,0.27-1.46,0.27C337.16,126.6,336.61,126.45,336.12,126.16z
						 M335.58,122.58h4.26v0.58c0-0.5-0.08-0.94-0.24-1.32c-0.16-0.38-0.39-0.67-0.7-0.88c-0.31-0.21-0.68-0.31-1.11-0.31
						c-0.43,0-0.82,0.1-1.15,0.3c-0.33,0.2-0.59,0.49-0.77,0.86c-0.18,0.37-0.27,0.8-0.27,1.3L335.58,122.58z"/>
					<path class="st0" d="M343.54,126.16c-0.49-0.29-0.87-0.7-1.15-1.22c-0.27-0.52-0.41-1.11-0.41-1.77c0-0.64,0.14-1.22,0.42-1.74
						c0.28-0.52,0.66-0.93,1.15-1.22c0.49-0.3,1.04-0.44,1.64-0.44c0.62,0,1.16,0.15,1.62,0.44s0.83,0.7,1.08,1.22
						s0.38,1.11,0.38,1.76v0.25h-5.28l0.01-0.28c0,0.49,0.1,0.93,0.3,1.32c0.19,0.39,0.46,0.69,0.8,0.91
						c0.34,0.22,0.72,0.33,1.15,0.33c0.29,0,0.55-0.04,0.79-0.11s0.46-0.17,0.64-0.31c0.18-0.13,0.32-0.29,0.42-0.47h1.02
						c-0.08,0.27-0.24,0.54-0.48,0.82c-0.24,0.27-0.58,0.5-1,0.68s-0.9,0.27-1.46,0.27C344.58,126.6,344.02,126.45,343.54,126.16z
						 M342.99,122.58h4.26v0.58c0-0.5-0.08-0.94-0.24-1.32c-0.16-0.38-0.39-0.67-0.7-0.88c-0.31-0.21-0.68-0.31-1.11-0.31
						c-0.43,0-0.82,0.1-1.15,0.3c-0.33,0.2-0.59,0.49-0.77,0.86c-0.18,0.37-0.27,0.8-0.27,1.3L342.99,122.58z"/>
					<path class="st0" d="M351.2,126.24c-0.25-0.13-0.45-0.32-0.6-0.56c-0.15-0.24-0.22-0.5-0.22-0.79l-0.01-4.08h-1.15l0.01-0.91
						h0.71c0.16,0,0.29-0.05,0.39-0.15c0.1-0.1,0.15-0.23,0.15-0.39v-1.05h0.92v1.6h1.58l-0.01,0.91h-1.58l0.01,4.02
						c0,0.2,0.07,0.37,0.2,0.5c0.13,0.13,0.3,0.2,0.5,0.2h0.87v0.91h-0.93C351.74,126.44,351.45,126.38,351.2,126.24z"/>
					<path class="st0" d="M355.86,117.51v1.21h-1.2v-1.21H355.86z M354.75,119.91h1.02v6.53h-1.02V119.91z"/>
					<path class="st0" d="M358.01,119.91h0.98v2.83h-0.41c0-0.6,0.1-1.13,0.31-1.58c0.21-0.45,0.51-0.79,0.89-1.04
						s0.84-0.36,1.37-0.36c0.47,0,0.88,0.1,1.24,0.3c0.36,0.2,0.65,0.49,0.85,0.88c0.21,0.39,0.31,0.86,0.31,1.4v4.1h-1.02v-4
						c0-0.38-0.07-0.7-0.2-0.97c-0.13-0.27-0.32-0.47-0.57-0.61s-0.54-0.21-0.88-0.21c-0.37,0-0.69,0.08-0.97,0.24
						c-0.28,0.16-0.5,0.39-0.65,0.68c-0.16,0.29-0.23,0.62-0.23,1v3.87h-1.02V119.91z"/>
					<path class="st0" d="M366.9,128.42c-0.4-0.15-0.74-0.36-1.01-0.63s-0.44-0.59-0.52-0.94h1.02c0.09,0.2,0.23,0.36,0.41,0.5
						c0.18,0.14,0.39,0.24,0.63,0.31c0.24,0.07,0.49,0.1,0.75,0.1c0.42,0,0.78-0.08,1.09-0.25c0.31-0.17,0.55-0.4,0.72-0.71
						c0.17-0.3,0.25-0.65,0.25-1.05v-0.27l0.05-1.84l0.53-0.65c-0.01,0.58-0.14,1.09-0.38,1.55c-0.25,0.45-0.58,0.8-1.01,1.06
						c-0.43,0.25-0.91,0.38-1.44,0.38c-0.55,0-1.05-0.13-1.5-0.4c-0.45-0.27-0.8-0.63-1.05-1.1c-0.25-0.47-0.38-1-0.38-1.59
						c0-0.59,0.13-1.12,0.38-1.59c0.26-0.47,0.61-0.84,1.05-1.11c0.45-0.27,0.95-0.4,1.5-0.4c0.53,0,1.01,0.13,1.44,0.38
						c0.43,0.26,0.76,0.61,1.01,1.07c0.25,0.46,0.37,0.97,0.38,1.56l-0.53-0.57v-2.28h0.99l-0.02,5.83c0,0.57-0.13,1.07-0.38,1.51
						c-0.26,0.44-0.61,0.78-1.08,1.02c-0.46,0.24-1,0.36-1.6,0.36C367.74,128.64,367.3,128.56,366.9,128.42z M369.26,124.78
						c0.31-0.19,0.56-0.46,0.74-0.79c0.18-0.34,0.27-0.71,0.27-1.12c0-0.42-0.09-0.79-0.27-1.13c-0.18-0.34-0.43-0.6-0.74-0.79
						c-0.31-0.19-0.66-0.29-1.05-0.29c-0.39,0-0.74,0.1-1.06,0.29c-0.31,0.19-0.56,0.46-0.74,0.79c-0.18,0.34-0.27,0.71-0.27,1.13
						c0,0.41,0.09,0.79,0.27,1.12c0.18,0.34,0.42,0.6,0.74,0.79c0.31,0.19,0.67,0.29,1.06,0.29
						C368.59,125.07,368.94,124.97,369.26,124.78z"/>
					<path class="st0" d="M374.64,125.04v1.4h-1.4v-1.4H374.64z"/>
					<path class="st0" d="M376.58,117.51h1.02v5.46l2.96-3.06h1.27l-2.98,3.11l3.09,3.42h-1.31l-3.03-3.29v3.29h-1.02V117.51z"/>
					<path class="st0" d="M384.35,126.24c-0.25-0.13-0.45-0.32-0.6-0.56c-0.15-0.24-0.22-0.5-0.22-0.79l-0.01-4.08h-1.15l0.01-0.91
						h0.71c0.16,0,0.29-0.05,0.39-0.15c0.1-0.1,0.15-0.23,0.15-0.39v-1.05h0.92v1.6h1.58l-0.01,0.91h-1.58l0.01,4.02
						c0,0.2,0.07,0.37,0.2,0.5c0.13,0.13,0.3,0.2,0.5,0.2h0.87v0.91h-0.93C384.88,126.44,384.6,126.38,384.35,126.24z"/>
				</g>
			</g>
			<g>
				<g>
					<g>
						<g>
							<g>
								<path class="st2" d="M481.93,109.85l-66.37,0c-6.78,0-12.28,5.5-12.28,12.28v0c0,6.78,5.5,12.28,12.28,12.28l66.37,0
									c6.78,0,12.28-5.5,12.28-12.28v0C494.21,115.34,488.71,109.85,481.93,109.85z"/>
							</g>
						</g>
						<g>
							<path d="M420.5,117.64v1.21h-1.2v-1.21H420.5z M419.39,120.04h1.02v6.53h-1.02V120.04z"/>
							<path d="M424.42,126.12c-0.67-0.4-1.2-0.95-1.59-1.66c-0.39-0.7-0.58-1.49-0.58-2.36c0-0.87,0.19-1.65,0.58-2.36
								c0.39-0.7,0.92-1.26,1.59-1.66c0.67-0.4,1.42-0.6,2.25-0.6c0.82,0,1.57,0.2,2.24,0.6c0.67,0.4,1.2,0.95,1.59,1.66
								c0.39,0.7,0.58,1.49,0.58,2.36c0,0.87-0.19,1.65-0.58,2.36c-0.39,0.7-0.92,1.26-1.59,1.66c-0.67,0.4-1.42,0.6-2.24,0.6
								C425.84,126.73,425.09,126.53,424.42,126.12z M428.37,125.29c0.51-0.31,0.9-0.75,1.19-1.3s0.43-1.18,0.43-1.88
								c0-0.7-0.14-1.33-0.42-1.89c-0.28-0.56-0.68-0.99-1.18-1.3c-0.5-0.31-1.08-0.47-1.71-0.47c-0.63,0-1.2,0.16-1.7,0.47
								c-0.5,0.31-0.9,0.75-1.19,1.3s-0.43,1.18-0.43,1.88c0,0.7,0.14,1.33,0.43,1.88c0.29,0.55,0.68,0.99,1.19,1.3
								c0.5,0.31,1.07,0.47,1.7,0.47C427.29,125.76,427.86,125.6,428.37,125.29z"/>
							<path d="M434,126.39c-0.47-0.23-0.84-0.54-1.1-0.94c-0.26-0.4-0.39-0.87-0.39-1.39h1.08c0,0.34,0.08,0.63,0.25,0.89
								c0.17,0.26,0.41,0.46,0.72,0.61c0.31,0.14,0.67,0.22,1.07,0.22c0.4,0,0.74-0.07,1.04-0.2c0.3-0.13,0.53-0.32,0.7-0.57
								c0.16-0.24,0.25-0.53,0.25-0.85c0-0.4-0.12-0.75-0.36-1.04c-0.24-0.29-0.56-0.47-0.96-0.54l-1.44-0.25
								c-0.43-0.08-0.81-0.23-1.13-0.45s-0.56-0.51-0.73-0.84c-0.17-0.34-0.25-0.7-0.25-1.1c0-0.46,0.12-0.88,0.37-1.25
								c0.24-0.37,0.58-0.66,1.02-0.88s0.93-0.32,1.47-0.32c0.56,0,1.06,0.11,1.5,0.32c0.44,0.21,0.78,0.5,1.02,0.88
								c0.24,0.37,0.36,0.8,0.36,1.28h-1.08c0-0.29-0.07-0.56-0.22-0.79s-0.36-0.41-0.63-0.54c-0.27-0.13-0.58-0.19-0.93-0.19
								s-0.67,0.06-0.94,0.19c-0.27,0.12-0.48,0.3-0.63,0.52c-0.15,0.23-0.23,0.49-0.23,0.78c0,0.35,0.11,0.66,0.34,0.91
								c0.23,0.26,0.53,0.41,0.9,0.48l1.47,0.26c0.43,0.08,0.8,0.24,1.14,0.49c0.33,0.25,0.59,0.56,0.77,0.92
								c0.18,0.36,0.27,0.75,0.27,1.15c0,0.48-0.13,0.92-0.39,1.31c-0.26,0.39-0.62,0.7-1.09,0.93c-0.47,0.23-1,0.34-1.6,0.34
								C435.01,126.73,434.47,126.61,434,126.39z"/>
							<path d="M442.93,117.64h1.14l3.43,8.93h-1.12l-0.86-2.37h-3.95l-0.8,2.37h-1.15L442.93,117.64z M445.18,123.28l-1.52-4.15
								l-0.15-0.54l-0.15,0.54l-1.45,4.15H445.18z"/>
							<path d="M448.9,120.04h1.02v2.19l-0.43,0.64c0.02-0.59,0.12-1.1,0.32-1.53c0.2-0.44,0.47-0.77,0.83-1
								c0.35-0.23,0.76-0.35,1.23-0.35h0.23v1.07h-0.27c-0.39,0-0.73,0.07-1.01,0.22c-0.29,0.15-0.51,0.36-0.67,0.63
								c-0.16,0.27-0.23,0.6-0.23,0.97v3.71h-1.02V120.04z"/>
							<path d="M453.46,120.04h0.98v2.83h-0.34c0-0.61,0.09-1.14,0.28-1.59c0.19-0.45,0.46-0.79,0.82-1.03s0.78-0.36,1.28-0.36
								c0.46,0,0.87,0.11,1.22,0.32s0.62,0.51,0.81,0.9c0.19,0.39,0.29,0.84,0.29,1.35v4.12h-1.02v-4.08c0-0.36-0.06-0.67-0.18-0.93
								c-0.12-0.26-0.3-0.46-0.53-0.6c-0.23-0.14-0.51-0.21-0.83-0.21c-0.35,0-0.66,0.08-0.93,0.24s-0.47,0.38-0.61,0.68
								s-0.21,0.64-0.21,1.03v3.87h-1.02V120.04z M461.9,121.57c-0.12-0.26-0.3-0.46-0.53-0.6c-0.23-0.14-0.51-0.21-0.84-0.21
								c-0.35,0-0.66,0.08-0.92,0.24c-0.26,0.16-0.47,0.39-0.61,0.68c-0.15,0.29-0.22,0.63-0.22,1.03l-0.57,0.17
								c0-0.59,0.1-1.11,0.31-1.56c0.2-0.45,0.5-0.8,0.88-1.05c0.38-0.25,0.82-0.37,1.33-0.37c0.46,0,0.88,0.11,1.23,0.32
								s0.64,0.51,0.84,0.9c0.2,0.39,0.3,0.84,0.3,1.35v4.12h-1.02v-4.08C462.08,122.14,462.02,121.83,461.9,121.57z"/>
							<path d="M466.51,126.18c-0.53-0.36-0.93-0.88-1.22-1.55s-0.43-1.45-0.43-2.35c0-0.97,0.15-1.81,0.44-2.54s0.7-1.28,1.23-1.67
								c0.53-0.39,1.13-0.58,1.81-0.58c0.43,0,0.84,0.06,1.23,0.19c0.39,0.12,0.74,0.33,1.06,0.61c0.31,0.28,0.56,0.65,0.73,1.09
								h-1.06c-0.1-0.17-0.24-0.33-0.43-0.47c-0.19-0.14-0.41-0.25-0.66-0.33c-0.25-0.08-0.52-0.12-0.81-0.12
								c-0.47,0-0.9,0.13-1.27,0.4c-0.38,0.26-0.68,0.68-0.9,1.25s-0.34,1.29-0.34,2.15c0.13-0.33,0.33-0.62,0.59-0.87
								c0.26-0.25,0.57-0.44,0.93-0.58c0.36-0.14,0.75-0.2,1.18-0.2c0.57,0,1.09,0.13,1.55,0.4s0.82,0.63,1.08,1.1
								c0.26,0.47,0.39,0.99,0.39,1.57c0,0.58-0.14,1.1-0.42,1.57c-0.28,0.47-0.67,0.83-1.17,1.1c-0.5,0.27-1.06,0.4-1.67,0.4
								C467.65,126.73,467.03,126.54,466.51,126.18z M469.49,125.5c0.32-0.18,0.58-0.43,0.76-0.75c0.18-0.32,0.27-0.68,0.27-1.08
								c0-0.4-0.09-0.77-0.28-1.09c-0.19-0.33-0.45-0.58-0.78-0.77s-0.7-0.28-1.11-0.28c-0.41,0-0.77,0.09-1.1,0.28
								c-0.33,0.19-0.58,0.44-0.77,0.77c-0.19,0.33-0.28,0.69-0.28,1.09c0,0.4,0.09,0.77,0.28,1.09c0.19,0.32,0.45,0.57,0.78,0.76
								c0.33,0.18,0.71,0.27,1.13,0.27C468.8,125.77,469.16,125.68,469.49,125.5z"/>
							<path d="M477.1,124.37h-4.53v-0.96l4.52-5.77h0.62l0.36,0.12l-4.4,5.65h3.43v-5.77h1.05v5.77h1.39v0.96h-1.39v2.2h-1.05
								V124.37z"/>
						</g>
					</g>
					<g>
						<g>
							<g>
								<path class="st2" d="M481.93,82.53l-66.37,0c-6.78,0-12.28,5.5-12.28,12.28v0c0,6.78,5.5,12.28,12.28,12.28l66.37,0
									c6.78,0,12.28-5.5,12.28-12.28v0C494.21,88.03,488.71,82.53,481.93,82.53z"/>
							</g>
						</g>
						<g>
							<path d="M436.38,98.27h1.52c0.25,0,0.47-0.05,0.67-0.16c0.19-0.11,0.34-0.26,0.45-0.45c0.11-0.19,0.16-0.42,0.16-0.67v-6.67
								h1.06v6.73c0,0.43-0.1,0.81-0.29,1.15c-0.19,0.33-0.46,0.59-0.8,0.78c-0.34,0.19-0.74,0.28-1.18,0.28h-1.58V98.27z"/>
							<path d="M441.81,90.33h1.16l2.83,7.56l2.72-7.56h1.17l-3.39,8.93h-1.08L441.81,90.33z"/>
							<path d="M451.34,90.33h1.32l3.2,7.16l0.17,0.45l0.16-0.45l3.15-7.16h1.35v8.93h-1.06V92.2v-0.17l-3.16,7.22h-0.89l-3.18-7.18
								v0.13v7.06h-1.05V90.33z"/>
						</g>
					</g>
				</g>
				<g>
					<g>
						<g>
							<path class="st2" d="M481.93,137.16l-66.37,0c-6.78,0-12.28,5.5-12.28,12.28v0c0,6.78,5.5,12.28,12.28,12.28l66.37,0
								c6.78,0,12.28-5.5,12.28-12.28v0C494.21,142.66,488.71,137.16,481.93,137.16z"/>
						</g>
					</g>
					<g>
						<path d="M442.81,152.9h1.52c0.25,0,0.47-0.05,0.67-0.16c0.19-0.11,0.34-0.26,0.45-0.45c0.11-0.19,0.16-0.42,0.16-0.67v-6.67
							h1.06v6.73c0,0.43-0.1,0.81-0.29,1.15c-0.19,0.33-0.46,0.59-0.8,0.78c-0.34,0.19-0.74,0.28-1.18,0.28h-1.58V152.9z"/>
						<path d="M450.15,153.7c-0.47-0.23-0.84-0.54-1.1-0.94c-0.26-0.4-0.39-0.87-0.39-1.39h1.08c0,0.34,0.08,0.63,0.25,0.89
							c0.17,0.26,0.41,0.46,0.72,0.61c0.31,0.14,0.67,0.22,1.07,0.22c0.4,0,0.74-0.07,1.04-0.2c0.3-0.13,0.53-0.32,0.7-0.57
							c0.16-0.24,0.25-0.53,0.25-0.85c0-0.4-0.12-0.75-0.36-1.04c-0.24-0.29-0.56-0.47-0.96-0.54l-1.44-0.25
							c-0.43-0.08-0.81-0.23-1.13-0.45s-0.56-0.51-0.73-0.84c-0.17-0.34-0.25-0.7-0.25-1.1c0-0.46,0.12-0.88,0.37-1.25
							c0.24-0.37,0.58-0.66,1.02-0.88s0.93-0.32,1.47-0.32c0.56,0,1.06,0.11,1.5,0.32c0.44,0.21,0.78,0.5,1.02,0.88
							c0.24,0.37,0.36,0.8,0.36,1.28h-1.08c0-0.29-0.07-0.56-0.22-0.79s-0.36-0.41-0.63-0.54c-0.27-0.13-0.58-0.19-0.93-0.19
							s-0.67,0.06-0.94,0.19c-0.27,0.12-0.48,0.3-0.63,0.52c-0.15,0.23-0.23,0.49-0.23,0.78c0,0.35,0.11,0.66,0.34,0.91
							c0.23,0.26,0.53,0.41,0.9,0.48l1.47,0.26c0.43,0.08,0.8,0.24,1.14,0.49c0.33,0.25,0.59,0.56,0.77,0.92
							c0.18,0.36,0.27,0.75,0.27,1.15c0,0.48-0.13,0.92-0.39,1.31c-0.26,0.39-0.62,0.7-1.09,0.93c-0.47,0.23-1,0.34-1.6,0.34
							C451.16,154.04,450.62,153.93,450.15,153.7z"/>
					</g>
				</g>
			</g>
		</g>
	</g>
</g>
</svg>
