<svg width="706" height="444" viewBox="0 0 706 444" fill="none" xmlns="http://www.w3.org/2000/svg">
<rect width="706" height="444" fill="white"/>
<path d="M360.5 217.5L360.15 217.5L360.5 217.5ZM374.5 231.5L374.5 231.15L374.5 231.5ZM527 231.5L527 231.85L527 231.5ZM541 282.5L538.979 279L543.021 279L541 282.5ZM360.85 171.5L360.85 217.5L360.15 217.5L360.15 171.5L360.85 171.5ZM374.5 231.15L527 231.15L527 231.85L374.5 231.85L374.5 231.15ZM541.35 245.5L541.35 279.35L540.65 279.35L540.65 245.5L541.35 245.5ZM527 231.15C534.925 231.15 541.35 237.575 541.35 245.5L540.65 245.5C540.65 237.961 534.539 231.85 527 231.85L527 231.15ZM360.85 217.5C360.85 225.039 366.961 231.15 374.5 231.15L374.5 231.85C366.575 231.85 360.15 225.425 360.15 217.5L360.85 217.5Z" fill="black"/>
<rect x="457" y="288" width="167" height="46" rx="12" fill="#D7C6FF"/>
<path d="M488.101 300.6H489.157L493.669 307.416V300.6H494.665V309H493.597L489.097 302.184V309H488.101V300.6ZM499.167 302.712C499.631 302.712 500.039 302.798 500.391 302.97C500.743 303.138 501.015 303.386 501.207 303.714C501.403 304.038 501.501 304.424 501.501 304.872V309H500.565V306.702H500.817C500.817 307.214 500.729 307.654 500.553 308.022C500.377 308.386 500.125 308.664 499.797 308.856C499.469 309.048 499.079 309.144 498.627 309.144C498.235 309.144 497.881 309.068 497.565 308.916C497.249 308.764 497.001 308.554 496.821 308.286C496.641 308.018 496.551 307.714 496.551 307.374C496.551 307.054 496.633 306.76 496.797 306.492C496.965 306.22 497.195 305.998 497.487 305.826C497.783 305.654 498.115 305.548 498.483 305.508L500.121 305.328C500.257 305.312 500.363 305.256 500.439 305.16C500.515 305.064 500.553 304.922 500.553 304.734L500.625 305.994L498.615 306.216C498.407 306.24 498.221 306.302 498.057 306.402C497.897 306.502 497.771 306.632 497.679 306.792C497.591 306.952 497.547 307.128 497.547 307.32C497.547 307.528 497.601 307.712 497.709 307.872C497.821 308.032 497.975 308.158 498.171 308.25C498.367 308.338 498.591 308.382 498.843 308.382C499.187 308.382 499.487 308.312 499.743 308.172C500.003 308.032 500.203 307.836 500.343 307.584C500.483 307.328 500.553 307.034 500.553 306.702V304.746C500.553 304.502 500.495 304.288 500.379 304.104C500.263 303.916 500.099 303.772 499.887 303.672C499.679 303.568 499.437 303.516 499.161 303.516C498.885 303.516 498.637 303.564 498.417 303.66C498.197 303.752 498.019 303.878 497.883 304.038C497.751 304.194 497.671 304.364 497.643 304.548H496.683C496.731 304.2 496.867 303.888 497.091 303.612C497.319 303.332 497.613 303.112 497.973 302.952C498.333 302.792 498.731 302.712 499.167 302.712ZM505.397 309C505.105 309 504.839 308.938 504.599 308.814C504.363 308.686 504.177 308.512 504.041 308.292C503.905 308.068 503.837 307.82 503.837 307.548L503.831 303.708H502.751L502.757 302.856H503.423C503.575 302.856 503.697 302.808 503.789 302.712C503.885 302.616 503.933 302.494 503.933 302.346V301.356H504.797V302.856H506.279L506.273 303.708H504.791L504.797 307.488C504.797 307.676 504.859 307.834 504.983 307.962C505.111 308.086 505.269 308.148 505.457 308.148H506.273V309H505.397ZM507.946 302.856H508.906V309H507.946V302.856ZM508.99 300.6V301.74H507.862V300.6H508.99ZM510.207 302.856H511.251L513.123 307.716L514.935 302.856H515.955L513.537 309H512.637L510.207 302.856ZM519.642 309.144C519.066 309.144 518.548 309.006 518.088 308.73C517.628 308.454 517.268 308.072 517.008 307.584C516.752 307.092 516.624 306.536 516.624 305.916C516.624 305.312 516.754 304.766 517.014 304.278C517.278 303.79 517.64 303.408 518.1 303.132C518.56 302.852 519.074 302.712 519.642 302.712C520.222 302.712 520.73 302.85 521.166 303.126C521.606 303.402 521.944 303.784 522.18 304.272C522.42 304.76 522.54 305.312 522.54 305.928V306.162H517.578L517.59 305.898C517.594 306.362 517.686 306.778 517.866 307.146C518.05 307.51 518.302 307.794 518.622 307.998C518.942 308.202 519.302 308.304 519.702 308.304C519.97 308.304 520.218 308.272 520.446 308.208C520.678 308.14 520.878 308.044 521.046 307.92C521.218 307.792 521.35 307.644 521.442 307.476H522.402C522.33 307.732 522.178 307.988 521.946 308.244C521.718 308.5 521.406 308.714 521.01 308.886C520.618 309.058 520.162 309.144 519.642 309.144ZM517.578 305.37H521.58V305.916C521.58 305.444 521.506 305.032 521.358 304.68C521.21 304.324 520.99 304.048 520.698 303.852C520.41 303.656 520.062 303.558 519.654 303.558C519.246 303.558 518.886 303.654 518.574 303.846C518.262 304.034 518.02 304.304 517.848 304.656C517.676 305.004 517.59 305.41 517.59 305.874L517.578 305.37ZM529.228 309.144C528.652 309.144 528.134 309.006 527.674 308.73C527.214 308.454 526.854 308.072 526.594 307.584C526.338 307.092 526.21 306.536 526.21 305.916C526.21 305.312 526.34 304.766 526.6 304.278C526.864 303.79 527.226 303.408 527.686 303.132C528.146 302.852 528.66 302.712 529.228 302.712C529.808 302.712 530.316 302.85 530.752 303.126C531.192 303.402 531.53 303.784 531.766 304.272C532.006 304.76 532.126 305.312 532.126 305.928V306.162H527.164L527.176 305.898C527.18 306.362 527.272 306.778 527.452 307.146C527.636 307.51 527.888 307.794 528.208 307.998C528.528 308.202 528.888 308.304 529.288 308.304C529.556 308.304 529.804 308.272 530.032 308.208C530.264 308.14 530.464 308.044 530.632 307.92C530.804 307.792 530.936 307.644 531.028 307.476H531.988C531.916 307.732 531.764 307.988 531.532 308.244C531.304 308.5 530.992 308.714 530.596 308.886C530.204 309.058 529.748 309.144 529.228 309.144ZM527.164 305.37H531.166V305.916C531.166 305.444 531.092 305.032 530.944 304.68C530.796 304.324 530.576 304.048 530.284 303.852C529.996 303.656 529.648 303.558 529.24 303.558C528.832 303.558 528.472 303.654 528.16 303.846C527.848 304.034 527.606 304.304 527.434 304.656C527.262 305.004 527.176 305.41 527.176 305.874L527.164 305.37ZM535.268 306.258L535.142 306.018L532.892 302.856H534.008L535.76 305.376L535.868 305.574L538.292 309H537.176L535.268 306.258ZM535.208 305.55L535.382 305.346L537.086 302.856H538.178L535.934 306.054L535.67 306.378L533.876 309H532.784L535.208 305.55ZM541.966 309.144C541.39 309.144 540.872 309.006 540.412 308.73C539.952 308.454 539.592 308.072 539.332 307.584C539.076 307.092 538.948 306.536 538.948 305.916C538.948 305.312 539.078 304.766 539.338 304.278C539.602 303.79 539.964 303.408 540.424 303.132C540.884 302.852 541.398 302.712 541.966 302.712C542.546 302.712 543.054 302.85 543.49 303.126C543.93 303.402 544.268 303.784 544.504 304.272C544.744 304.76 544.864 305.312 544.864 305.928V306.162H539.902L539.914 305.898C539.918 306.362 540.01 306.778 540.19 307.146C540.374 307.51 540.626 307.794 540.946 307.998C541.266 308.202 541.626 308.304 542.026 308.304C542.294 308.304 542.542 308.272 542.77 308.208C543.002 308.14 543.202 308.044 543.37 307.92C543.542 307.792 543.674 307.644 543.766 307.476H544.726C544.654 307.732 544.502 307.988 544.27 308.244C544.042 308.5 543.73 308.714 543.334 308.886C542.942 309.058 542.486 309.144 541.966 309.144ZM539.902 305.37H543.904V305.916C543.904 305.444 543.83 305.032 543.682 304.68C543.534 304.324 543.314 304.048 543.022 303.852C542.734 303.656 542.386 303.558 541.978 303.558C541.57 303.558 541.21 303.654 540.898 303.846C540.586 304.034 540.344 304.304 540.172 304.656C540 305.004 539.914 305.41 539.914 305.874L539.902 305.37ZM548.993 309.144C548.413 309.144 547.889 309.004 547.421 308.724C546.953 308.444 546.585 308.06 546.317 307.572C546.053 307.08 545.921 306.532 545.921 305.928C545.921 305.324 546.053 304.778 546.317 304.29C546.585 303.798 546.953 303.412 547.421 303.132C547.889 302.852 548.413 302.712 548.993 302.712C549.485 302.712 549.927 302.796 550.319 302.964C550.711 303.128 551.037 303.376 551.297 303.708C551.557 304.036 551.735 304.44 551.831 304.92H550.871C550.783 304.624 550.645 304.376 550.457 304.176C550.269 303.976 550.049 303.828 549.797 303.732C549.545 303.632 549.277 303.582 548.993 303.582C548.597 303.582 548.241 303.682 547.925 303.882C547.613 304.082 547.369 304.36 547.193 304.716C547.017 305.072 546.929 305.476 546.929 305.928C546.929 306.376 547.017 306.778 547.193 307.134C547.369 307.49 547.613 307.77 547.925 307.974C548.241 308.174 548.597 308.274 548.993 308.274C549.277 308.274 549.545 308.226 549.797 308.13C550.049 308.03 550.269 307.88 550.457 307.68C550.645 307.48 550.783 307.232 550.871 306.936H551.831C551.739 307.4 551.559 307.798 551.291 308.13C551.023 308.462 550.691 308.714 550.295 308.886C549.899 309.058 549.465 309.144 548.993 309.144ZM558.432 309H557.508V306.342H557.892C557.892 306.91 557.794 307.406 557.598 307.83C557.402 308.25 557.122 308.574 556.758 308.802C556.394 309.03 555.966 309.144 555.474 309.144C555.034 309.144 554.644 309.05 554.304 308.862C553.964 308.674 553.696 308.398 553.5 308.034C553.308 307.666 553.212 307.226 553.212 306.714V302.856H554.172V306.618C554.172 306.974 554.234 307.278 554.358 307.53C554.486 307.782 554.666 307.974 554.898 308.106C555.13 308.238 555.406 308.304 555.726 308.304C556.07 308.304 556.374 308.228 556.638 308.076C556.902 307.924 557.106 307.712 557.25 307.44C557.398 307.164 557.472 306.85 557.472 306.498V302.856H558.432V309ZM562.503 309C562.211 309 561.945 308.938 561.705 308.814C561.469 308.686 561.283 308.512 561.147 308.292C561.011 308.068 560.943 307.82 560.943 307.548L560.937 303.708H559.857L559.863 302.856H560.529C560.681 302.856 560.803 302.808 560.895 302.712C560.991 302.616 561.039 302.494 561.039 302.346V301.356H561.903V302.856H563.385L563.379 303.708H561.897L561.903 307.488C561.903 307.676 561.965 307.834 562.089 307.962C562.217 308.086 562.375 308.148 562.563 308.148H563.379V309H562.503ZM567.218 302.712C567.682 302.712 568.09 302.798 568.442 302.97C568.794 303.138 569.066 303.386 569.258 303.714C569.454 304.038 569.552 304.424 569.552 304.872V309H568.616V306.702H568.868C568.868 307.214 568.78 307.654 568.604 308.022C568.428 308.386 568.176 308.664 567.848 308.856C567.52 309.048 567.13 309.144 566.678 309.144C566.286 309.144 565.932 309.068 565.616 308.916C565.3 308.764 565.052 308.554 564.872 308.286C564.692 308.018 564.602 307.714 564.602 307.374C564.602 307.054 564.684 306.76 564.848 306.492C565.016 306.22 565.246 305.998 565.538 305.826C565.834 305.654 566.166 305.548 566.534 305.508L568.172 305.328C568.308 305.312 568.414 305.256 568.49 305.16C568.566 305.064 568.604 304.922 568.604 304.734L568.676 305.994L566.666 306.216C566.458 306.24 566.272 306.302 566.108 306.402C565.948 306.502 565.822 306.632 565.73 306.792C565.642 306.952 565.598 307.128 565.598 307.32C565.598 307.528 565.652 307.712 565.76 307.872C565.872 308.032 566.026 308.158 566.222 308.25C566.418 308.338 566.642 308.382 566.894 308.382C567.238 308.382 567.538 308.312 567.794 308.172C568.054 308.032 568.254 307.836 568.394 307.584C568.534 307.328 568.604 307.034 568.604 306.702V304.746C568.604 304.502 568.546 304.288 568.43 304.104C568.314 303.916 568.15 303.772 567.938 303.672C567.73 303.568 567.488 303.516 567.212 303.516C566.936 303.516 566.688 303.564 566.468 303.66C566.248 303.752 566.07 303.878 565.934 304.038C565.802 304.194 565.722 304.364 565.694 304.548H564.734C564.782 304.2 564.918 303.888 565.142 303.612C565.37 303.332 565.664 303.112 566.024 302.952C566.384 302.792 566.782 302.712 567.218 302.712ZM571.474 300.6H572.434V309H571.474V300.6ZM574.678 309.144C574.15 309.144 573.684 309.028 573.28 308.796C572.876 308.56 572.56 308.232 572.332 307.812C572.108 307.388 571.992 306.898 571.984 306.342H572.38V305.514H571.984C571.992 304.958 572.108 304.47 572.332 304.05C572.56 303.626 572.876 303.298 573.28 303.066C573.684 302.83 574.15 302.712 574.678 302.712C575.25 302.712 575.758 302.848 576.202 303.12C576.65 303.388 576.998 303.766 577.246 304.254C577.498 304.742 577.624 305.3 577.624 305.928C577.624 306.556 577.498 307.114 577.246 307.602C576.998 308.09 576.65 308.47 576.202 308.742C575.758 309.01 575.25 309.144 574.678 309.144ZM574.528 308.274C574.936 308.274 575.298 308.176 575.614 307.98C575.93 307.78 576.176 307.504 576.352 307.152C576.528 306.796 576.616 306.388 576.616 305.928C576.616 305.468 576.528 305.062 576.352 304.71C576.176 304.354 575.93 304.078 575.614 303.882C575.298 303.682 574.936 303.582 574.528 303.582C574.116 303.582 573.75 303.682 573.43 303.882C573.11 304.078 572.86 304.354 572.68 304.71C572.504 305.062 572.416 305.468 572.416 305.928C572.416 306.388 572.504 306.796 572.68 307.152C572.86 307.504 573.11 307.78 573.43 307.98C573.75 308.176 574.116 308.274 574.528 308.274ZM579.196 300.6H580.156V309H579.196V300.6ZM584.751 309.144C584.175 309.144 583.657 309.006 583.197 308.73C582.737 308.454 582.377 308.072 582.117 307.584C581.861 307.092 581.733 306.536 581.733 305.916C581.733 305.312 581.863 304.766 582.123 304.278C582.387 303.79 582.749 303.408 583.209 303.132C583.669 302.852 584.183 302.712 584.751 302.712C585.331 302.712 585.839 302.85 586.275 303.126C586.715 303.402 587.053 303.784 587.289 304.272C587.529 304.76 587.649 305.312 587.649 305.928V306.162H582.687L582.699 305.898C582.703 306.362 582.795 306.778 582.975 307.146C583.159 307.51 583.411 307.794 583.731 307.998C584.051 308.202 584.411 308.304 584.811 308.304C585.079 308.304 585.327 308.272 585.555 308.208C585.787 308.14 585.987 308.044 586.155 307.92C586.327 307.792 586.459 307.644 586.551 307.476H587.511C587.439 307.732 587.287 307.988 587.055 308.244C586.827 308.5 586.515 308.714 586.119 308.886C585.727 309.058 585.271 309.144 584.751 309.144ZM582.687 305.37H586.689V305.916C586.689 305.444 586.615 305.032 586.467 304.68C586.319 304.324 586.099 304.048 585.807 303.852C585.519 303.656 585.171 303.558 584.763 303.558C584.355 303.558 583.995 303.654 583.683 303.846C583.371 304.034 583.129 304.304 582.957 304.656C582.785 305.004 582.699 305.41 582.699 305.874L582.687 305.37ZM591.256 309.144C590.792 309.144 590.372 309.07 589.996 308.922C589.624 308.774 589.326 308.568 589.102 308.304C588.882 308.036 588.764 307.734 588.748 307.398H589.726C589.742 307.582 589.818 307.748 589.954 307.896C590.09 308.04 590.27 308.154 590.494 308.238C590.718 308.322 590.968 308.364 591.244 308.364C591.524 308.364 591.77 308.318 591.982 308.226C592.198 308.134 592.364 308.006 592.48 307.842C592.6 307.678 592.66 307.492 592.66 307.284C592.66 307.136 592.632 307.002 592.576 306.882C592.52 306.762 592.438 306.664 592.33 306.588C592.226 306.508 592.098 306.454 591.946 306.426L590.464 306.156C590.152 306.1 589.882 305.996 589.654 305.844C589.43 305.692 589.258 305.5 589.138 305.268C589.022 305.032 588.964 304.764 588.964 304.464C588.964 304.14 589.056 303.846 589.24 303.582C589.428 303.314 589.69 303.102 590.026 302.946C590.362 302.79 590.746 302.712 591.178 302.712C591.606 302.712 591.992 302.782 592.336 302.922C592.68 303.062 592.954 303.256 593.158 303.504C593.362 303.752 593.472 304.028 593.488 304.332H592.51C592.498 304.172 592.432 304.028 592.312 303.9C592.196 303.772 592.04 303.672 591.844 303.6C591.648 303.528 591.428 303.492 591.184 303.492C590.936 303.492 590.716 303.534 590.524 303.618C590.332 303.702 590.182 303.818 590.074 303.966C589.97 304.11 589.918 304.274 589.918 304.458C589.918 304.598 589.942 304.722 589.99 304.83C590.042 304.934 590.118 305.022 590.218 305.094C590.322 305.162 590.45 305.21 590.602 305.238L592.12 305.508C592.432 305.564 592.7 305.674 592.924 305.838C593.152 306.002 593.324 306.206 593.44 306.45C593.56 306.694 593.62 306.96 593.62 307.248C593.62 307.608 593.516 307.932 593.308 308.22C593.104 308.508 592.822 308.734 592.462 308.898C592.102 309.062 591.7 309.144 591.256 309.144ZM473.294 317.708H472.214V316.856H473.294V316.052C473.294 315.768 473.36 315.516 473.492 315.296C473.624 315.076 473.808 314.906 474.044 314.786C474.28 314.662 474.55 314.6 474.854 314.6H475.838V315.452H474.914C474.718 315.452 474.558 315.514 474.434 315.638C474.314 315.758 474.254 315.916 474.254 316.112V316.856H475.778V317.708H474.254V323H473.294V317.708ZM479.713 323.144C479.129 323.144 478.597 323.006 478.117 322.73C477.641 322.45 477.265 322.066 476.989 321.578C476.717 321.086 476.581 320.536 476.581 319.928C476.581 319.32 476.717 318.772 476.989 318.284C477.265 317.792 477.643 317.408 478.123 317.132C478.603 316.852 479.135 316.712 479.719 316.712C480.303 316.712 480.833 316.852 481.309 317.132C481.785 317.408 482.159 317.79 482.431 318.278C482.707 318.766 482.845 319.316 482.845 319.928C482.845 320.54 482.707 321.09 482.431 321.578C482.159 322.066 481.785 322.45 481.309 322.73C480.833 323.006 480.301 323.144 479.713 323.144ZM479.725 322.268C480.125 322.268 480.485 322.17 480.805 321.974C481.125 321.778 481.377 321.504 481.561 321.152C481.745 320.796 481.837 320.388 481.837 319.928C481.837 319.468 481.745 319.06 481.561 318.704C481.377 318.348 481.123 318.072 480.799 317.876C480.479 317.68 480.119 317.582 479.719 317.582C479.319 317.582 478.957 317.68 478.633 317.876C478.309 318.072 478.053 318.348 477.865 318.704C477.681 319.06 477.589 319.468 477.589 319.928C477.589 320.388 477.681 320.796 477.865 321.152C478.053 321.504 478.309 321.778 478.633 321.974C478.961 322.17 479.325 322.268 479.725 322.268ZM484.427 316.856H485.387V318.914L484.985 319.514C485.001 318.962 485.101 318.482 485.285 318.074C485.473 317.662 485.733 317.346 486.065 317.126C486.397 316.906 486.783 316.796 487.223 316.796H487.439V317.798H487.187C486.823 317.798 486.505 317.868 486.233 318.008C485.961 318.148 485.751 318.348 485.603 318.608C485.459 318.864 485.387 319.166 485.387 319.514V323H484.427V316.856ZM494.283 323.144C493.623 323.144 493.045 322.974 492.549 322.634C492.057 322.29 491.677 321.804 491.409 321.176C491.141 320.544 491.007 319.806 491.007 318.962C491.007 318.054 491.145 317.26 491.421 316.58C491.697 315.896 492.083 315.372 492.579 315.008C493.075 314.64 493.643 314.456 494.283 314.456C494.687 314.456 495.073 314.514 495.441 314.63C495.809 314.746 496.141 314.938 496.437 315.206C496.733 315.47 496.961 315.812 497.121 316.232H496.125C496.033 316.068 495.897 315.92 495.717 315.788C495.541 315.656 495.333 315.552 495.093 315.476C494.857 315.396 494.605 315.356 494.337 315.356C493.893 315.356 493.493 315.48 493.137 315.728C492.785 315.976 492.503 316.368 492.291 316.904C492.079 317.436 491.971 318.11 491.967 318.926C492.091 318.614 492.275 318.342 492.519 318.11C492.763 317.874 493.055 317.692 493.395 317.564C493.735 317.436 494.105 317.372 494.505 317.372C495.045 317.372 495.531 317.498 495.963 317.75C496.399 317.998 496.739 318.342 496.983 318.782C497.231 319.222 497.355 319.714 497.355 320.258C497.355 320.802 497.221 321.294 496.953 321.734C496.689 322.174 496.323 322.52 495.855 322.772C495.387 323.02 494.863 323.144 494.283 323.144ZM494.325 322.244C494.705 322.244 495.047 322.16 495.351 321.992C495.655 321.82 495.893 321.584 496.065 321.284C496.237 320.98 496.323 320.64 496.323 320.264C496.323 319.884 496.235 319.542 496.059 319.238C495.883 318.93 495.639 318.688 495.327 318.512C495.019 318.336 494.671 318.248 494.283 318.248C493.899 318.248 493.553 318.336 493.245 318.512C492.941 318.684 492.701 318.924 492.525 319.232C492.353 319.536 492.267 319.876 492.267 320.252C492.267 320.632 492.355 320.974 492.531 321.278C492.707 321.578 492.951 321.814 493.263 321.986C493.579 322.158 493.933 322.244 494.325 322.244ZM502.512 320.93H498.252V320.03L502.506 314.6H503.088L503.424 314.714L499.284 320.03H502.512V314.6H503.496V320.03H504.804V320.93H503.496V323H502.512V320.93ZM510.279 319.136V319.976H506.259V319.136H510.279ZM512.376 314.6H513.336V323H512.376V314.6ZM515.58 323.144C515.052 323.144 514.586 323.028 514.182 322.796C513.778 322.56 513.462 322.232 513.234 321.812C513.01 321.388 512.894 320.898 512.886 320.342H513.282V319.514H512.886C512.894 318.958 513.01 318.47 513.234 318.05C513.462 317.626 513.778 317.298 514.182 317.066C514.586 316.83 515.052 316.712 515.58 316.712C516.152 316.712 516.66 316.848 517.104 317.12C517.552 317.388 517.9 317.766 518.148 318.254C518.4 318.742 518.526 319.3 518.526 319.928C518.526 320.556 518.4 321.114 518.148 321.602C517.9 322.09 517.552 322.47 517.104 322.742C516.66 323.01 516.152 323.144 515.58 323.144ZM515.43 322.274C515.838 322.274 516.2 322.176 516.516 321.98C516.832 321.78 517.078 321.504 517.254 321.152C517.43 320.796 517.518 320.388 517.518 319.928C517.518 319.468 517.43 319.062 517.254 318.71C517.078 318.354 516.832 318.078 516.516 317.882C516.2 317.682 515.838 317.582 515.43 317.582C515.018 317.582 514.652 317.682 514.332 317.882C514.012 318.078 513.762 318.354 513.582 318.71C513.406 319.062 513.318 319.468 513.318 319.928C513.318 320.388 513.406 320.796 513.582 321.152C513.762 321.504 514.012 321.78 514.332 321.98C514.652 322.176 515.018 322.274 515.43 322.274ZM520.099 316.856H521.059V323H520.099V316.856ZM521.143 314.6V315.74H520.015V314.6H521.143ZM525.131 323C524.839 323 524.573 322.938 524.333 322.814C524.097 322.686 523.911 322.512 523.775 322.292C523.639 322.068 523.571 321.82 523.571 321.548L523.565 317.708H522.485L522.491 316.856H523.157C523.309 316.856 523.431 316.808 523.523 316.712C523.619 316.616 523.667 316.494 523.667 316.346V315.356H524.531V316.856H526.013L526.007 317.708H524.525L524.531 321.488C524.531 321.676 524.593 321.834 524.717 321.962C524.845 322.086 525.003 322.148 525.191 322.148H526.007V323H525.131ZM530.646 316.856H531.606V323H530.646V316.856ZM531.69 314.6V315.74H530.562V314.6H531.69ZM533.944 314.6H537.34C537.876 314.6 538.346 314.7 538.75 314.9C539.158 315.1 539.472 315.384 539.692 315.752C539.916 316.12 540.028 316.548 540.028 317.036C540.028 317.524 539.914 317.954 539.686 318.326C539.462 318.694 539.144 318.98 538.732 319.184C538.32 319.384 537.84 319.484 537.292 319.484H534.94V323H533.944V314.6ZM537.34 318.554C537.668 318.554 537.954 318.492 538.198 318.368C538.446 318.244 538.636 318.068 538.768 317.84C538.904 317.612 538.972 317.344 538.972 317.036C538.972 316.732 538.904 316.466 538.768 316.238C538.636 316.01 538.446 315.836 538.198 315.716C537.954 315.592 537.668 315.53 537.34 315.53H534.94V318.554H537.34ZM541.368 314.6H542.292V316.538V317.63V319.514H541.908C541.908 318.946 542.006 318.452 542.202 318.032C542.398 317.608 542.678 317.282 543.042 317.054C543.406 316.826 543.834 316.712 544.326 316.712C544.766 316.712 545.156 316.806 545.496 316.994C545.836 317.182 546.102 317.46 546.294 317.828C546.49 318.192 546.588 318.63 546.588 319.142V323H545.628V319.238C545.628 318.882 545.564 318.578 545.436 318.326C545.312 318.074 545.134 317.882 544.902 317.75C544.67 317.618 544.394 317.552 544.074 317.552C543.73 317.552 543.426 317.628 543.162 317.78C542.898 317.932 542.692 318.146 542.544 318.422C542.4 318.694 542.328 319.006 542.328 319.358V323H541.368V314.6ZM551.115 323.144C550.531 323.144 549.999 323.006 549.519 322.73C549.043 322.45 548.667 322.066 548.391 321.578C548.119 321.086 547.983 320.536 547.983 319.928C547.983 319.32 548.119 318.772 548.391 318.284C548.667 317.792 549.045 317.408 549.525 317.132C550.005 316.852 550.537 316.712 551.121 316.712C551.705 316.712 552.235 316.852 552.711 317.132C553.187 317.408 553.561 317.79 553.833 318.278C554.109 318.766 554.247 319.316 554.247 319.928C554.247 320.54 554.109 321.09 553.833 321.578C553.561 322.066 553.187 322.45 552.711 322.73C552.235 323.006 551.703 323.144 551.115 323.144ZM551.127 322.268C551.527 322.268 551.887 322.17 552.207 321.974C552.527 321.778 552.779 321.504 552.963 321.152C553.147 320.796 553.239 320.388 553.239 319.928C553.239 319.468 553.147 319.06 552.963 318.704C552.779 318.348 552.525 318.072 552.201 317.876C551.881 317.68 551.521 317.582 551.121 317.582C550.721 317.582 550.359 317.68 550.035 317.876C549.711 318.072 549.455 318.348 549.267 318.704C549.083 319.06 548.991 319.468 548.991 319.928C548.991 320.388 549.083 320.796 549.267 321.152C549.455 321.504 549.711 321.778 550.035 321.974C550.363 322.17 550.727 322.268 551.127 322.268ZM555.829 316.856H556.753V319.514H556.369C556.369 318.946 556.467 318.452 556.663 318.032C556.859 317.608 557.139 317.282 557.503 317.054C557.867 316.826 558.295 316.712 558.787 316.712C559.227 316.712 559.617 316.806 559.957 316.994C560.297 317.182 560.563 317.46 560.755 317.828C560.951 318.192 561.049 318.63 561.049 319.142V323H560.089V319.238C560.089 318.882 560.025 318.578 559.897 318.326C559.773 318.074 559.595 317.882 559.363 317.75C559.131 317.618 558.855 317.552 558.535 317.552C558.191 317.552 557.887 317.628 557.623 317.78C557.359 317.932 557.153 318.146 557.005 318.422C556.861 318.694 556.789 319.006 556.789 319.358V323H555.829V316.856ZM565.462 323.144C564.886 323.144 564.368 323.006 563.908 322.73C563.448 322.454 563.088 322.072 562.828 321.584C562.572 321.092 562.444 320.536 562.444 319.916C562.444 319.312 562.574 318.766 562.834 318.278C563.098 317.79 563.46 317.408 563.92 317.132C564.38 316.852 564.894 316.712 565.462 316.712C566.042 316.712 566.55 316.85 566.986 317.126C567.426 317.402 567.764 317.784 568 318.272C568.24 318.76 568.36 319.312 568.36 319.928V320.162H563.398L563.41 319.898C563.414 320.362 563.506 320.778 563.686 321.146C563.87 321.51 564.122 321.794 564.442 321.998C564.762 322.202 565.122 322.304 565.522 322.304C565.79 322.304 566.038 322.272 566.266 322.208C566.498 322.14 566.698 322.044 566.866 321.92C567.038 321.792 567.17 321.644 567.262 321.476H568.222C568.15 321.732 567.998 321.988 567.766 322.244C567.538 322.5 567.226 322.714 566.83 322.886C566.438 323.058 565.982 323.144 565.462 323.144ZM563.398 319.37H567.4V319.916C567.4 319.444 567.326 319.032 567.178 318.68C567.03 318.324 566.81 318.048 566.518 317.852C566.23 317.656 565.882 317.558 565.474 317.558C565.066 317.558 564.706 317.654 564.394 317.846C564.082 318.034 563.84 318.304 563.668 318.656C563.496 319.004 563.41 319.41 563.41 319.874L563.398 319.37ZM577.22 314.6H578.18V323H577.22V314.6ZM574.976 323.144C574.404 323.144 573.894 323.01 573.446 322.742C573.002 322.47 572.654 322.09 572.402 321.602C572.154 321.114 572.03 320.556 572.03 319.928C572.03 319.3 572.154 318.742 572.402 318.254C572.654 317.766 573.002 317.388 573.446 317.12C573.894 316.848 574.404 316.712 574.976 316.712C575.504 316.712 575.97 316.83 576.374 317.066C576.778 317.298 577.092 317.626 577.316 318.05C577.544 318.47 577.662 318.958 577.67 319.514H577.274V320.342H577.67C577.662 320.898 577.544 321.388 577.316 321.812C577.092 322.232 576.778 322.56 576.374 322.796C575.97 323.028 575.504 323.144 574.976 323.144ZM575.126 322.274C575.538 322.274 575.904 322.176 576.224 321.98C576.544 321.78 576.792 321.504 576.968 321.152C577.148 320.796 577.238 320.388 577.238 319.928C577.238 319.468 577.148 319.062 576.968 318.71C576.792 318.354 576.544 318.078 576.224 317.882C575.904 317.682 575.538 317.582 575.126 317.582C574.718 317.582 574.356 317.682 574.04 317.882C573.724 318.078 573.478 318.354 573.302 318.71C573.126 319.062 573.038 319.468 573.038 319.928C573.038 320.388 573.126 320.796 573.302 321.152C573.478 321.504 573.724 321.78 574.04 321.98C574.356 322.176 574.718 322.274 575.126 322.274ZM582.689 323.144C582.113 323.144 581.595 323.006 581.135 322.73C580.675 322.454 580.315 322.072 580.055 321.584C579.799 321.092 579.671 320.536 579.671 319.916C579.671 319.312 579.801 318.766 580.061 318.278C580.325 317.79 580.687 317.408 581.147 317.132C581.607 316.852 582.121 316.712 582.689 316.712C583.269 316.712 583.777 316.85 584.213 317.126C584.653 317.402 584.991 317.784 585.227 318.272C585.467 318.76 585.587 319.312 585.587 319.928V320.162H580.625L580.637 319.898C580.641 320.362 580.733 320.778 580.913 321.146C581.097 321.51 581.349 321.794 581.669 321.998C581.989 322.202 582.349 322.304 582.749 322.304C583.017 322.304 583.265 322.272 583.493 322.208C583.725 322.14 583.925 322.044 584.093 321.92C584.265 321.792 584.397 321.644 584.489 321.476H585.449C585.377 321.732 585.225 321.988 584.993 322.244C584.765 322.5 584.453 322.714 584.057 322.886C583.665 323.058 583.209 323.144 582.689 323.144ZM580.625 319.37H584.627V319.916C584.627 319.444 584.553 319.032 584.405 318.68C584.257 318.324 584.037 318.048 583.745 317.852C583.457 317.656 583.109 317.558 582.701 317.558C582.293 317.558 581.933 317.654 581.621 317.846C581.309 318.034 581.067 318.304 580.895 318.656C580.723 319.004 580.637 319.41 580.637 319.874L580.625 319.37ZM586.25 316.856H587.294L589.166 321.716L590.978 316.856H591.998L589.58 323H588.68L586.25 316.856ZM593.306 316.856H594.266V323H593.306V316.856ZM594.35 314.6V315.74H593.222V314.6H594.35ZM598.914 323.144C598.334 323.144 597.81 323.004 597.342 322.724C596.874 322.444 596.506 322.06 596.238 321.572C595.974 321.08 595.842 320.532 595.842 319.928C595.842 319.324 595.974 318.778 596.238 318.29C596.506 317.798 596.874 317.412 597.342 317.132C597.81 316.852 598.334 316.712 598.914 316.712C599.406 316.712 599.848 316.796 600.24 316.964C600.632 317.128 600.958 317.376 601.218 317.708C601.478 318.036 601.656 318.44 601.752 318.92H600.792C600.704 318.624 600.566 318.376 600.378 318.176C600.19 317.976 599.97 317.828 599.718 317.732C599.466 317.632 599.198 317.582 598.914 317.582C598.518 317.582 598.162 317.682 597.846 317.882C597.534 318.082 597.29 318.36 597.114 318.716C596.938 319.072 596.85 319.476 596.85 319.928C596.85 320.376 596.938 320.778 597.114 321.134C597.29 321.49 597.534 321.77 597.846 321.974C598.162 322.174 598.518 322.274 598.914 322.274C599.198 322.274 599.466 322.226 599.718 322.13C599.97 322.03 600.19 321.88 600.378 321.68C600.566 321.48 600.704 321.232 600.792 320.936H601.752C601.66 321.4 601.48 321.798 601.212 322.13C600.944 322.462 600.612 322.714 600.216 322.886C599.82 323.058 599.386 323.144 598.914 323.144ZM605.81 323.144C605.234 323.144 604.716 323.006 604.256 322.73C603.796 322.454 603.436 322.072 603.176 321.584C602.92 321.092 602.792 320.536 602.792 319.916C602.792 319.312 602.922 318.766 603.182 318.278C603.446 317.79 603.808 317.408 604.268 317.132C604.728 316.852 605.242 316.712 605.81 316.712C606.39 316.712 606.898 316.85 607.334 317.126C607.774 317.402 608.112 317.784 608.348 318.272C608.588 318.76 608.708 319.312 608.708 319.928V320.162H603.746L603.758 319.898C603.762 320.362 603.854 320.778 604.034 321.146C604.218 321.51 604.47 321.794 604.79 321.998C605.11 322.202 605.47 322.304 605.87 322.304C606.138 322.304 606.386 322.272 606.614 322.208C606.846 322.14 607.046 322.044 607.214 321.92C607.386 321.792 607.518 321.644 607.61 321.476H608.57C608.498 321.732 608.346 321.988 608.114 322.244C607.886 322.5 607.574 322.714 607.178 322.886C606.786 323.058 606.33 323.144 605.81 323.144ZM603.746 319.37H607.748V319.916C607.748 319.444 607.674 319.032 607.526 318.68C607.378 318.324 607.158 318.048 606.866 317.852C606.578 317.656 606.23 317.558 605.822 317.558C605.414 317.558 605.054 317.654 604.742 317.846C604.43 318.034 604.188 318.304 604.016 318.656C603.844 319.004 603.758 319.41 603.758 319.874L603.746 319.37Z" fill="black"/>
<rect x="82" y="288" width="167" height="46" rx="12" fill="#D7C6FF"/>
<path d="M124.754 314.07H126.182C126.418 314.07 126.626 314.02 126.806 313.92C126.99 313.82 127.132 313.68 127.232 313.5C127.332 313.316 127.382 313.106 127.382 312.87V306.6H128.378V312.93C128.378 313.334 128.288 313.694 128.108 314.01C127.928 314.322 127.676 314.566 127.352 314.742C127.028 314.914 126.658 315 126.242 315H124.754V314.07ZM129.863 306.6H130.955L133.613 313.71L136.175 306.6H137.279L134.093 315H133.073L129.863 306.6ZM138.829 306.6H140.071L143.083 313.332L143.239 313.758L143.389 313.332L146.347 306.6H147.613V315H146.617V308.364V308.208L143.647 315H142.813L139.819 308.244V308.364V315H138.829V306.6ZM153.965 313.68V315H152.645V313.68H153.965ZM158.166 315.144C157.586 315.144 157.062 315.004 156.594 314.724C156.126 314.444 155.758 314.06 155.49 313.572C155.226 313.08 155.094 312.532 155.094 311.928C155.094 311.324 155.226 310.778 155.49 310.29C155.758 309.798 156.126 309.412 156.594 309.132C157.062 308.852 157.586 308.712 158.166 308.712C158.658 308.712 159.1 308.796 159.492 308.964C159.884 309.128 160.21 309.376 160.47 309.708C160.73 310.036 160.908 310.44 161.004 310.92H160.044C159.956 310.624 159.818 310.376 159.63 310.176C159.442 309.976 159.222 309.828 158.97 309.732C158.718 309.632 158.45 309.582 158.166 309.582C157.77 309.582 157.414 309.682 157.098 309.882C156.786 310.082 156.542 310.36 156.366 310.716C156.19 311.072 156.102 311.476 156.102 311.928C156.102 312.376 156.19 312.778 156.366 313.134C156.542 313.49 156.786 313.77 157.098 313.974C157.414 314.174 157.77 314.274 158.166 314.274C158.45 314.274 158.718 314.226 158.97 314.13C159.222 314.03 159.442 313.88 159.63 313.68C159.818 313.48 159.956 313.232 160.044 312.936H161.004C160.912 313.4 160.732 313.798 160.464 314.13C160.196 314.462 159.864 314.714 159.468 314.886C159.072 315.058 158.638 315.144 158.166 315.144ZM162.566 306.6H163.526V315H162.566V306.6ZM167.79 308.712C168.254 308.712 168.662 308.798 169.014 308.97C169.366 309.138 169.638 309.386 169.83 309.714C170.026 310.038 170.124 310.424 170.124 310.872V315H169.188V312.702H169.44C169.44 313.214 169.352 313.654 169.176 314.022C169 314.386 168.748 314.664 168.42 314.856C168.092 315.048 167.702 315.144 167.25 315.144C166.858 315.144 166.504 315.068 166.188 314.916C165.872 314.764 165.624 314.554 165.444 314.286C165.264 314.018 165.174 313.714 165.174 313.374C165.174 313.054 165.256 312.76 165.42 312.492C165.588 312.22 165.818 311.998 166.11 311.826C166.406 311.654 166.738 311.548 167.106 311.508L168.744 311.328C168.88 311.312 168.986 311.256 169.062 311.16C169.138 311.064 169.176 310.922 169.176 310.734L169.248 311.994L167.238 312.216C167.03 312.24 166.844 312.302 166.68 312.402C166.52 312.502 166.394 312.632 166.302 312.792C166.214 312.952 166.17 313.128 166.17 313.32C166.17 313.528 166.224 313.712 166.332 313.872C166.444 314.032 166.598 314.158 166.794 314.25C166.99 314.338 167.214 314.382 167.466 314.382C167.81 314.382 168.11 314.312 168.366 314.172C168.626 314.032 168.826 313.836 168.966 313.584C169.106 313.328 169.176 313.034 169.176 312.702V310.746C169.176 310.502 169.118 310.288 169.002 310.104C168.886 309.916 168.722 309.772 168.51 309.672C168.302 309.568 168.06 309.516 167.784 309.516C167.508 309.516 167.26 309.564 167.04 309.66C166.82 309.752 166.642 309.878 166.506 310.038C166.374 310.194 166.294 310.364 166.266 310.548H165.306C165.354 310.2 165.49 309.888 165.714 309.612C165.942 309.332 166.236 309.112 166.596 308.952C166.956 308.792 167.354 308.712 167.79 308.712ZM174.074 315.144C173.61 315.144 173.19 315.07 172.814 314.922C172.442 314.774 172.144 314.568 171.92 314.304C171.7 314.036 171.582 313.734 171.566 313.398H172.544C172.56 313.582 172.636 313.748 172.772 313.896C172.908 314.04 173.088 314.154 173.312 314.238C173.536 314.322 173.786 314.364 174.062 314.364C174.342 314.364 174.588 314.318 174.8 314.226C175.016 314.134 175.182 314.006 175.298 313.842C175.418 313.678 175.478 313.492 175.478 313.284C175.478 313.136 175.45 313.002 175.394 312.882C175.338 312.762 175.256 312.664 175.148 312.588C175.044 312.508 174.916 312.454 174.764 312.426L173.282 312.156C172.97 312.1 172.7 311.996 172.472 311.844C172.248 311.692 172.076 311.5 171.956 311.268C171.84 311.032 171.782 310.764 171.782 310.464C171.782 310.14 171.874 309.846 172.058 309.582C172.246 309.314 172.508 309.102 172.844 308.946C173.18 308.79 173.564 308.712 173.996 308.712C174.424 308.712 174.81 308.782 175.154 308.922C175.498 309.062 175.772 309.256 175.976 309.504C176.18 309.752 176.29 310.028 176.306 310.332H175.328C175.316 310.172 175.25 310.028 175.13 309.9C175.014 309.772 174.858 309.672 174.662 309.6C174.466 309.528 174.246 309.492 174.002 309.492C173.754 309.492 173.534 309.534 173.342 309.618C173.15 309.702 173 309.818 172.892 309.966C172.788 310.11 172.736 310.274 172.736 310.458C172.736 310.598 172.76 310.722 172.808 310.83C172.86 310.934 172.936 311.022 173.036 311.094C173.14 311.162 173.268 311.21 173.42 311.238L174.938 311.508C175.25 311.564 175.518 311.674 175.742 311.838C175.97 312.002 176.142 312.206 176.258 312.45C176.378 312.694 176.438 312.96 176.438 313.248C176.438 313.608 176.334 313.932 176.126 314.22C175.922 314.508 175.64 314.734 175.28 314.898C174.92 315.062 174.518 315.144 174.074 315.144ZM180.027 315.144C179.563 315.144 179.143 315.07 178.767 314.922C178.395 314.774 178.097 314.568 177.873 314.304C177.653 314.036 177.535 313.734 177.519 313.398H178.497C178.513 313.582 178.589 313.748 178.725 313.896C178.861 314.04 179.041 314.154 179.265 314.238C179.489 314.322 179.739 314.364 180.015 314.364C180.295 314.364 180.541 314.318 180.753 314.226C180.969 314.134 181.135 314.006 181.251 313.842C181.371 313.678 181.431 313.492 181.431 313.284C181.431 313.136 181.403 313.002 181.347 312.882C181.291 312.762 181.209 312.664 181.101 312.588C180.997 312.508 180.869 312.454 180.717 312.426L179.235 312.156C178.923 312.1 178.653 311.996 178.425 311.844C178.201 311.692 178.029 311.5 177.909 311.268C177.793 311.032 177.735 310.764 177.735 310.464C177.735 310.14 177.827 309.846 178.011 309.582C178.199 309.314 178.461 309.102 178.797 308.946C179.133 308.79 179.517 308.712 179.949 308.712C180.377 308.712 180.763 308.782 181.107 308.922C181.451 309.062 181.725 309.256 181.929 309.504C182.133 309.752 182.243 310.028 182.259 310.332H181.281C181.269 310.172 181.203 310.028 181.083 309.9C180.967 309.772 180.811 309.672 180.615 309.6C180.419 309.528 180.199 309.492 179.955 309.492C179.707 309.492 179.487 309.534 179.295 309.618C179.103 309.702 178.953 309.818 178.845 309.966C178.741 310.11 178.689 310.274 178.689 310.458C178.689 310.598 178.713 310.722 178.761 310.83C178.813 310.934 178.889 311.022 178.989 311.094C179.093 311.162 179.221 311.21 179.373 311.238L180.891 311.508C181.203 311.564 181.471 311.674 181.695 311.838C181.923 312.002 182.095 312.206 182.211 312.45C182.331 312.694 182.391 312.96 182.391 313.248C182.391 313.608 182.287 313.932 182.079 314.22C181.875 314.508 181.593 314.734 181.233 314.898C180.873 315.062 180.471 315.144 180.027 315.144ZM184.491 309.708H183.411V308.856H184.491V308.052C184.491 307.768 184.557 307.516 184.689 307.296C184.821 307.076 185.005 306.906 185.241 306.786C185.477 306.662 185.747 306.6 186.051 306.6H187.035V307.452H186.111C185.915 307.452 185.755 307.514 185.631 307.638C185.511 307.758 185.451 307.916 185.451 308.112V308.856H186.975V309.708H185.451V315H184.491V309.708ZM188.179 309.708H186.955V308.856H189.139V315H188.179V309.708ZM188.113 306.6H189.241V307.74H188.113V306.6ZM191.253 306.6H192.213V315H191.253V306.6ZM196.808 315.144C196.232 315.144 195.714 315.006 195.254 314.73C194.794 314.454 194.434 314.072 194.174 313.584C193.918 313.092 193.79 312.536 193.79 311.916C193.79 311.312 193.92 310.766 194.18 310.278C194.444 309.79 194.806 309.408 195.266 309.132C195.726 308.852 196.24 308.712 196.808 308.712C197.388 308.712 197.896 308.85 198.332 309.126C198.772 309.402 199.11 309.784 199.346 310.272C199.586 310.76 199.706 311.312 199.706 311.928V312.162H194.744L194.756 311.898C194.76 312.362 194.852 312.778 195.032 313.146C195.216 313.51 195.468 313.794 195.788 313.998C196.108 314.202 196.468 314.304 196.868 314.304C197.136 314.304 197.384 314.272 197.612 314.208C197.844 314.14 198.044 314.044 198.212 313.92C198.384 313.792 198.516 313.644 198.608 313.476H199.568C199.496 313.732 199.344 313.988 199.112 314.244C198.884 314.5 198.572 314.714 198.176 314.886C197.784 315.058 197.328 315.144 196.808 315.144ZM194.744 311.37H198.746V311.916C198.746 311.444 198.672 311.032 198.524 310.68C198.376 310.324 198.156 310.048 197.864 309.852C197.576 309.656 197.228 309.558 196.82 309.558C196.412 309.558 196.052 309.654 195.74 309.846C195.428 310.034 195.186 310.304 195.014 310.656C194.842 311.004 194.756 311.41 194.756 311.874L194.744 311.37ZM203.312 315.144C202.848 315.144 202.428 315.07 202.052 314.922C201.68 314.774 201.382 314.568 201.158 314.304C200.938 314.036 200.82 313.734 200.804 313.398H201.782C201.798 313.582 201.874 313.748 202.01 313.896C202.146 314.04 202.326 314.154 202.55 314.238C202.774 314.322 203.024 314.364 203.3 314.364C203.58 314.364 203.826 314.318 204.038 314.226C204.254 314.134 204.42 314.006 204.536 313.842C204.656 313.678 204.716 313.492 204.716 313.284C204.716 313.136 204.688 313.002 204.632 312.882C204.576 312.762 204.494 312.664 204.386 312.588C204.282 312.508 204.154 312.454 204.002 312.426L202.52 312.156C202.208 312.1 201.938 311.996 201.71 311.844C201.486 311.692 201.314 311.5 201.194 311.268C201.078 311.032 201.02 310.764 201.02 310.464C201.02 310.14 201.112 309.846 201.296 309.582C201.484 309.314 201.746 309.102 202.082 308.946C202.418 308.79 202.802 308.712 203.234 308.712C203.662 308.712 204.048 308.782 204.392 308.922C204.736 309.062 205.01 309.256 205.214 309.504C205.418 309.752 205.528 310.028 205.544 310.332H204.566C204.554 310.172 204.488 310.028 204.368 309.9C204.252 309.772 204.096 309.672 203.9 309.6C203.704 309.528 203.484 309.492 203.24 309.492C202.992 309.492 202.772 309.534 202.58 309.618C202.388 309.702 202.238 309.818 202.13 309.966C202.026 310.11 201.974 310.274 201.974 310.458C201.974 310.598 201.998 310.722 202.046 310.83C202.098 310.934 202.174 311.022 202.274 311.094C202.378 311.162 202.506 311.21 202.658 311.238L204.176 311.508C204.488 311.564 204.756 311.674 204.98 311.838C205.208 312.002 205.38 312.206 205.496 312.45C205.616 312.694 205.676 312.96 205.676 313.248C205.676 313.608 205.572 313.932 205.364 314.22C205.16 314.508 204.878 314.734 204.518 314.898C204.158 315.062 203.756 315.144 203.312 315.144Z" fill="black"/>
<path d="M346.5 217.5L346.85 217.5L346.5 217.5ZM332.5 231.5L332.5 231.15L332.5 231.5ZM180 231.5L180 231.85L180 231.5ZM166 282.5L168.021 279L163.979 279L166 282.5ZM346.15 171.5L346.15 217.5L346.85 217.5L346.85 171.5L346.15 171.5ZM332.5 231.15L180 231.15L180 231.85L332.5 231.85L332.5 231.15ZM165.65 245.5L165.65 279.35L166.35 279.35L166.35 245.5L165.65 245.5ZM180 231.15C172.075 231.15 165.65 237.575 165.65 245.5L166.35 245.5C166.35 237.961 172.461 231.85 180 231.85L180 231.15ZM346.15 217.5C346.15 225.039 340.039 231.15 332.5 231.15L332.5 231.85C340.425 231.85 346.85 225.425 346.85 217.5L346.15 217.5Z" fill="black"/>
<rect x="207" y="116" width="196" height="52" rx="12" fill="url(#paint0_radial_1218_890)"/>
<path d="M229.446 147.144C228.866 147.144 228.342 147.004 227.874 146.724C227.406 146.444 227.038 146.06 226.77 145.572C226.506 145.08 226.374 144.532 226.374 143.928C226.374 143.324 226.506 142.778 226.77 142.29C227.038 141.798 227.406 141.412 227.874 141.132C228.342 140.852 228.866 140.712 229.446 140.712C229.938 140.712 230.38 140.796 230.772 140.964C231.164 141.128 231.49 141.376 231.75 141.708C232.01 142.036 232.188 142.44 232.284 142.92H231.324C231.236 142.624 231.098 142.376 230.91 142.176C230.722 141.976 230.502 141.828 230.25 141.732C229.998 141.632 229.73 141.582 229.446 141.582C229.05 141.582 228.694 141.682 228.378 141.882C228.066 142.082 227.822 142.36 227.646 142.716C227.47 143.072 227.382 143.476 227.382 143.928C227.382 144.376 227.47 144.778 227.646 145.134C227.822 145.49 228.066 145.77 228.378 145.974C228.694 146.174 229.05 146.274 229.446 146.274C229.73 146.274 229.998 146.226 230.25 146.13C230.502 146.03 230.722 145.88 230.91 145.68C231.098 145.48 231.236 145.232 231.324 144.936H232.284C232.192 145.4 232.012 145.798 231.744 146.13C231.476 146.462 231.144 146.714 230.748 146.886C230.352 147.058 229.918 147.144 229.446 147.144ZM236.455 147.144C235.871 147.144 235.339 147.006 234.859 146.73C234.383 146.45 234.007 146.066 233.731 145.578C233.459 145.086 233.323 144.536 233.323 143.928C233.323 143.32 233.459 142.772 233.731 142.284C234.007 141.792 234.385 141.408 234.865 141.132C235.345 140.852 235.877 140.712 236.461 140.712C237.045 140.712 237.575 140.852 238.051 141.132C238.527 141.408 238.901 141.79 239.173 142.278C239.449 142.766 239.587 143.316 239.587 143.928C239.587 144.54 239.449 145.09 239.173 145.578C238.901 146.066 238.527 146.45 238.051 146.73C237.575 147.006 237.043 147.144 236.455 147.144ZM236.467 146.268C236.867 146.268 237.227 146.17 237.547 145.974C237.867 145.778 238.119 145.504 238.303 145.152C238.487 144.796 238.579 144.388 238.579 143.928C238.579 143.468 238.487 143.06 238.303 142.704C238.119 142.348 237.865 142.072 237.541 141.876C237.221 141.68 236.861 141.582 236.461 141.582C236.061 141.582 235.699 141.68 235.375 141.876C235.051 142.072 234.795 142.348 234.607 142.704C234.423 143.06 234.331 143.468 234.331 143.928C234.331 144.388 234.423 144.796 234.607 145.152C234.795 145.504 235.051 145.778 235.375 145.974C235.703 146.17 236.067 146.268 236.467 146.268ZM241.169 140.856H242.093V143.514H241.769C241.769 142.938 241.857 142.44 242.033 142.02C242.213 141.6 242.471 141.278 242.807 141.054C243.143 140.826 243.543 140.712 244.007 140.712C244.443 140.712 244.825 140.812 245.153 141.012C245.481 141.208 245.735 141.488 245.915 141.852C246.095 142.216 246.185 142.64 246.185 143.124V147H245.225V143.166C245.225 142.83 245.167 142.54 245.051 142.296C244.939 142.048 244.773 141.858 244.553 141.726C244.337 141.594 244.077 141.528 243.773 141.528C243.441 141.528 243.151 141.602 242.903 141.75C242.655 141.898 242.463 142.11 242.327 142.386C242.195 142.662 242.129 142.986 242.129 143.358V147H241.169V140.856ZM249.281 143.166C249.281 142.83 249.223 142.54 249.107 142.296C248.995 142.048 248.831 141.858 248.615 141.726C248.399 141.594 248.137 141.528 247.829 141.528C247.501 141.528 247.213 141.604 246.965 141.756C246.717 141.904 246.525 142.116 246.389 142.392C246.253 142.664 246.185 142.986 246.185 143.358L245.645 143.514C245.645 142.962 245.741 142.474 245.933 142.05C246.125 141.626 246.399 141.298 246.755 141.066C247.115 140.83 247.533 140.712 248.009 140.712C248.445 140.712 248.831 140.812 249.167 141.012C249.507 141.208 249.771 141.488 249.959 141.852C250.147 142.216 250.241 142.64 250.241 143.124V147H249.281V143.166ZM252.161 140.856H253.085V143.514H252.761C252.761 142.938 252.849 142.44 253.025 142.02C253.205 141.6 253.463 141.278 253.799 141.054C254.135 140.826 254.535 140.712 254.999 140.712C255.435 140.712 255.817 140.812 256.145 141.012C256.473 141.208 256.727 141.488 256.907 141.852C257.087 142.216 257.177 142.64 257.177 143.124V147H256.217V143.166C256.217 142.83 256.159 142.54 256.043 142.296C255.931 142.048 255.765 141.858 255.545 141.726C255.329 141.594 255.069 141.528 254.765 141.528C254.433 141.528 254.143 141.602 253.895 141.75C253.647 141.898 253.455 142.11 253.319 142.386C253.187 142.662 253.121 142.986 253.121 143.358V147H252.161V140.856ZM260.273 143.166C260.273 142.83 260.215 142.54 260.099 142.296C259.987 142.048 259.823 141.858 259.607 141.726C259.391 141.594 259.129 141.528 258.821 141.528C258.493 141.528 258.205 141.604 257.957 141.756C257.709 141.904 257.517 142.116 257.381 142.392C257.245 142.664 257.177 142.986 257.177 143.358L256.637 143.514C256.637 142.962 256.733 142.474 256.925 142.05C257.117 141.626 257.391 141.298 257.747 141.066C258.107 140.83 258.525 140.712 259.001 140.712C259.437 140.712 259.823 140.812 260.159 141.012C260.499 141.208 260.763 141.488 260.951 141.852C261.139 142.216 261.233 142.64 261.233 143.124V147H260.273V143.166ZM265.764 147.144C265.18 147.144 264.648 147.006 264.168 146.73C263.692 146.45 263.316 146.066 263.04 145.578C262.768 145.086 262.632 144.536 262.632 143.928C262.632 143.32 262.768 142.772 263.04 142.284C263.316 141.792 263.694 141.408 264.174 141.132C264.654 140.852 265.186 140.712 265.77 140.712C266.354 140.712 266.884 140.852 267.36 141.132C267.836 141.408 268.21 141.79 268.482 142.278C268.758 142.766 268.896 143.316 268.896 143.928C268.896 144.54 268.758 145.09 268.482 145.578C268.21 146.066 267.836 146.45 267.36 146.73C266.884 147.006 266.352 147.144 265.764 147.144ZM265.776 146.268C266.176 146.268 266.536 146.17 266.856 145.974C267.176 145.778 267.428 145.504 267.612 145.152C267.796 144.796 267.888 144.388 267.888 143.928C267.888 143.468 267.796 143.06 267.612 142.704C267.428 142.348 267.174 142.072 266.85 141.876C266.53 141.68 266.17 141.582 265.77 141.582C265.37 141.582 265.008 141.68 264.684 141.876C264.36 142.072 264.104 142.348 263.916 142.704C263.732 143.06 263.64 143.468 263.64 143.928C263.64 144.388 263.732 144.796 263.916 145.152C264.104 145.504 264.36 145.778 264.684 145.974C265.012 146.17 265.376 146.268 265.776 146.268ZM270.478 140.856H271.402V143.514H271.018C271.018 142.946 271.116 142.452 271.312 142.032C271.508 141.608 271.788 141.282 272.152 141.054C272.516 140.826 272.944 140.712 273.436 140.712C273.876 140.712 274.266 140.806 274.606 140.994C274.946 141.182 275.212 141.46 275.404 141.828C275.6 142.192 275.698 142.63 275.698 143.142V147H274.738V143.238C274.738 142.882 274.674 142.578 274.546 142.326C274.422 142.074 274.244 141.882 274.012 141.75C273.78 141.618 273.504 141.552 273.184 141.552C272.84 141.552 272.536 141.628 272.272 141.78C272.008 141.932 271.802 142.146 271.654 142.422C271.51 142.694 271.438 143.006 271.438 143.358V147H270.478V140.856ZM277.854 138.6H279.096L282.108 145.332L282.264 145.758L282.414 145.332L285.372 138.6H286.638V147H285.642V140.364V140.208L282.672 147H281.838L278.844 140.244V140.364V147H277.854V138.6ZM291.148 140.712C291.612 140.712 292.02 140.798 292.372 140.97C292.724 141.138 292.996 141.386 293.188 141.714C293.384 142.038 293.482 142.424 293.482 142.872V147H292.546V144.702H292.798C292.798 145.214 292.71 145.654 292.534 146.022C292.358 146.386 292.106 146.664 291.778 146.856C291.45 147.048 291.06 147.144 290.608 147.144C290.216 147.144 289.862 147.068 289.546 146.916C289.23 146.764 288.982 146.554 288.802 146.286C288.622 146.018 288.532 145.714 288.532 145.374C288.532 145.054 288.614 144.76 288.778 144.492C288.946 144.22 289.176 143.998 289.468 143.826C289.764 143.654 290.096 143.548 290.464 143.508L292.102 143.328C292.238 143.312 292.344 143.256 292.42 143.16C292.496 143.064 292.534 142.922 292.534 142.734L292.606 143.994L290.596 144.216C290.388 144.24 290.202 144.302 290.038 144.402C289.878 144.502 289.752 144.632 289.66 144.792C289.572 144.952 289.528 145.128 289.528 145.32C289.528 145.528 289.582 145.712 289.69 145.872C289.802 146.032 289.956 146.158 290.152 146.25C290.348 146.338 290.572 146.382 290.824 146.382C291.168 146.382 291.468 146.312 291.724 146.172C291.984 146.032 292.184 145.836 292.324 145.584C292.464 145.328 292.534 145.034 292.534 144.702V142.746C292.534 142.502 292.476 142.288 292.36 142.104C292.244 141.916 292.08 141.772 291.868 141.672C291.66 141.568 291.418 141.516 291.142 141.516C290.866 141.516 290.618 141.564 290.398 141.66C290.178 141.752 290 141.878 289.864 142.038C289.732 142.194 289.652 142.364 289.624 142.548H288.664C288.712 142.2 288.848 141.888 289.072 141.612C289.3 141.332 289.594 141.112 289.954 140.952C290.314 140.792 290.712 140.712 291.148 140.712ZM295.404 140.856H296.364V147H295.404V140.856ZM296.448 138.6V139.74H295.32V138.6H296.448ZM298.462 140.856H299.386V143.514H299.002C299.002 142.946 299.1 142.452 299.296 142.032C299.492 141.608 299.772 141.282 300.136 141.054C300.5 140.826 300.928 140.712 301.42 140.712C301.86 140.712 302.25 140.806 302.59 140.994C302.93 141.182 303.196 141.46 303.388 141.828C303.584 142.192 303.682 142.63 303.682 143.142V147H302.722V143.238C302.722 142.882 302.658 142.578 302.53 142.326C302.406 142.074 302.228 141.882 301.996 141.75C301.764 141.618 301.488 141.552 301.168 141.552C300.824 141.552 300.52 141.628 300.256 141.78C299.992 141.932 299.786 142.146 299.638 142.422C299.494 142.694 299.422 143.006 299.422 143.358V147H298.462V140.856ZM308.365 138.6H309.349L305.533 147H304.549L308.365 138.6ZM311.448 145.68V147H310.128V145.68H311.448ZM314.319 145.68V147H312.999V145.68H314.319ZM317.19 145.68V147H315.87V145.68H317.19ZM321.783 138.6H322.767L318.951 147H317.967L321.783 138.6ZM326.287 149.064C325.839 149.064 325.425 148.994 325.045 148.854C324.665 148.714 324.349 148.516 324.097 148.26C323.845 148.004 323.683 147.708 323.611 147.372H324.571C324.659 147.556 324.789 147.712 324.961 147.84C325.133 147.968 325.331 148.064 325.555 148.128C325.779 148.192 326.013 148.224 326.257 148.224C326.649 148.224 326.991 148.144 327.283 147.984C327.579 147.828 327.807 147.608 327.967 147.324C328.127 147.04 328.207 146.712 328.207 146.34V146.088L328.255 144.354L328.753 143.742C328.745 144.286 328.625 144.772 328.393 145.2C328.161 145.624 327.843 145.954 327.439 146.19C327.039 146.426 326.589 146.544 326.089 146.544C325.569 146.544 325.099 146.42 324.679 146.172C324.259 145.92 323.929 145.574 323.689 145.134C323.449 144.69 323.329 144.19 323.329 143.634C323.329 143.078 323.449 142.578 323.689 142.134C323.929 141.69 324.259 141.342 324.679 141.09C325.099 140.838 325.569 140.712 326.089 140.712C326.589 140.712 327.039 140.832 327.439 141.072C327.843 141.312 328.161 141.646 328.393 142.074C328.625 142.502 328.745 142.99 328.753 143.538L328.255 142.998V140.856H329.185L329.167 146.34C329.167 146.872 329.047 147.344 328.807 147.756C328.567 148.172 328.229 148.494 327.793 148.722C327.357 148.95 326.855 149.064 326.287 149.064ZM326.275 145.704C326.639 145.704 326.967 145.614 327.259 145.434C327.555 145.254 327.789 145.006 327.961 144.69C328.133 144.374 328.219 144.022 328.219 143.634C328.219 143.242 328.133 142.888 327.961 142.572C327.789 142.256 327.555 142.008 327.259 141.828C326.967 141.644 326.639 141.552 326.275 141.552C325.907 141.552 325.575 141.644 325.279 141.828C324.983 142.008 324.751 142.256 324.583 142.572C324.419 142.888 324.337 143.242 324.337 143.634C324.337 144.022 324.419 144.374 324.583 144.69C324.751 145.006 324.983 145.254 325.279 145.434C325.575 145.614 325.907 145.704 326.275 145.704ZM331.275 140.856H332.235V142.914L331.833 143.514C331.849 142.962 331.949 142.482 332.133 142.074C332.321 141.662 332.581 141.346 332.913 141.126C333.245 140.906 333.631 140.796 334.071 140.796H334.287V141.798H334.035C333.671 141.798 333.353 141.868 333.081 142.008C332.809 142.148 332.599 142.348 332.451 142.608C332.307 142.864 332.235 143.166 332.235 143.514V147H331.275V140.856ZM338.06 147.144C337.484 147.144 336.966 147.006 336.506 146.73C336.046 146.454 335.686 146.072 335.426 145.584C335.17 145.092 335.042 144.536 335.042 143.916C335.042 143.312 335.172 142.766 335.432 142.278C335.696 141.79 336.058 141.408 336.518 141.132C336.978 140.852 337.492 140.712 338.06 140.712C338.64 140.712 339.148 140.85 339.584 141.126C340.024 141.402 340.362 141.784 340.598 142.272C340.838 142.76 340.958 143.312 340.958 143.928V144.162H335.996L336.008 143.898C336.012 144.362 336.104 144.778 336.284 145.146C336.468 145.51 336.72 145.794 337.04 145.998C337.36 146.202 337.72 146.304 338.12 146.304C338.388 146.304 338.636 146.272 338.864 146.208C339.096 146.14 339.296 146.044 339.464 145.92C339.636 145.792 339.768 145.644 339.86 145.476H340.82C340.748 145.732 340.596 145.988 340.364 146.244C340.136 146.5 339.824 146.714 339.428 146.886C339.036 147.058 338.58 147.144 338.06 147.144ZM335.996 143.37H339.998V143.916C339.998 143.444 339.924 143.032 339.776 142.68C339.628 142.324 339.408 142.048 339.116 141.852C338.828 141.656 338.48 141.558 338.072 141.558C337.664 141.558 337.304 141.654 336.992 141.846C336.68 142.034 336.438 142.304 336.266 142.656C336.094 143.004 336.008 143.41 336.008 143.874L335.996 143.37ZM345.032 147.144C344.456 147.144 343.938 147.006 343.478 146.73C343.018 146.454 342.658 146.072 342.398 145.584C342.142 145.092 342.014 144.536 342.014 143.916C342.014 143.312 342.144 142.766 342.404 142.278C342.668 141.79 343.03 141.408 343.49 141.132C343.95 140.852 344.464 140.712 345.032 140.712C345.612 140.712 346.12 140.85 346.556 141.126C346.996 141.402 347.334 141.784 347.57 142.272C347.81 142.76 347.93 143.312 347.93 143.928V144.162H342.968L342.98 143.898C342.984 144.362 343.076 144.778 343.256 145.146C343.44 145.51 343.692 145.794 344.012 145.998C344.332 146.202 344.692 146.304 345.092 146.304C345.36 146.304 345.608 146.272 345.836 146.208C346.068 146.14 346.268 146.044 346.436 145.92C346.608 145.792 346.74 145.644 346.832 145.476H347.792C347.72 145.732 347.568 145.988 347.336 146.244C347.108 146.5 346.796 146.714 346.4 146.886C346.008 147.058 345.552 147.144 345.032 147.144ZM342.968 143.37H346.97V143.916C346.97 143.444 346.896 143.032 346.748 142.68C346.6 142.324 346.38 142.048 346.088 141.852C345.8 141.656 345.452 141.558 345.044 141.558C344.636 141.558 344.276 141.654 343.964 141.846C343.652 142.034 343.41 142.304 343.238 142.656C343.066 143.004 342.98 143.41 342.98 143.874L342.968 143.37ZM351.483 147C351.191 147 350.925 146.938 350.685 146.814C350.449 146.686 350.263 146.512 350.127 146.292C349.991 146.068 349.923 145.82 349.923 145.548L349.917 141.708H348.837L348.843 140.856H349.509C349.661 140.856 349.783 140.808 349.875 140.712C349.971 140.616 350.019 140.494 350.019 140.346V139.356H350.883V140.856H352.365L352.359 141.708H350.877L350.883 145.488C350.883 145.676 350.945 145.834 351.069 145.962C351.197 146.086 351.355 146.148 351.543 146.148H352.359V147H351.483ZM354.032 140.856H354.992V147H354.032V140.856ZM355.076 138.6V139.74H353.948V138.6H355.076ZM357.091 140.856H358.015V143.514H357.631C357.631 142.946 357.729 142.452 357.925 142.032C358.121 141.608 358.401 141.282 358.765 141.054C359.129 140.826 359.557 140.712 360.049 140.712C360.489 140.712 360.879 140.806 361.219 140.994C361.559 141.182 361.825 141.46 362.017 141.828C362.213 142.192 362.311 142.63 362.311 143.142V147H361.351V143.238C361.351 142.882 361.287 142.578 361.159 142.326C361.035 142.074 360.857 141.882 360.625 141.75C360.393 141.618 360.117 141.552 359.797 141.552C359.453 141.552 359.149 141.628 358.885 141.78C358.621 141.932 358.415 142.146 358.267 142.422C358.123 142.694 358.051 143.006 358.051 143.358V147H357.091V140.856ZM366.694 149.064C366.246 149.064 365.832 148.994 365.452 148.854C365.072 148.714 364.756 148.516 364.504 148.26C364.252 148.004 364.09 147.708 364.018 147.372H364.978C365.066 147.556 365.196 147.712 365.368 147.84C365.54 147.968 365.738 148.064 365.962 148.128C366.186 148.192 366.42 148.224 366.664 148.224C367.056 148.224 367.398 148.144 367.69 147.984C367.986 147.828 368.214 147.608 368.374 147.324C368.534 147.04 368.614 146.712 368.614 146.34V146.088L368.662 144.354L369.16 143.742C369.152 144.286 369.032 144.772 368.8 145.2C368.568 145.624 368.25 145.954 367.846 146.19C367.446 146.426 366.996 146.544 366.496 146.544C365.976 146.544 365.506 146.42 365.086 146.172C364.666 145.92 364.336 145.574 364.096 145.134C363.856 144.69 363.736 144.19 363.736 143.634C363.736 143.078 363.856 142.578 364.096 142.134C364.336 141.69 364.666 141.342 365.086 141.09C365.506 140.838 365.976 140.712 366.496 140.712C366.996 140.712 367.446 140.832 367.846 141.072C368.25 141.312 368.568 141.646 368.8 142.074C369.032 142.502 369.152 142.99 369.16 143.538L368.662 142.998V140.856H369.592L369.574 146.34C369.574 146.872 369.454 147.344 369.214 147.756C368.974 148.172 368.636 148.494 368.2 148.722C367.764 148.95 367.262 149.064 366.694 149.064ZM366.682 145.704C367.046 145.704 367.374 145.614 367.666 145.434C367.962 145.254 368.196 145.006 368.368 144.69C368.54 144.374 368.626 144.022 368.626 143.634C368.626 143.242 368.54 142.888 368.368 142.572C368.196 142.256 367.962 142.008 367.666 141.828C367.374 141.644 367.046 141.552 366.682 141.552C366.314 141.552 365.982 141.644 365.686 141.828C365.39 142.008 365.158 142.256 364.99 142.572C364.826 142.888 364.744 143.242 364.744 143.634C364.744 144.022 364.826 144.374 364.99 144.69C365.158 145.006 365.39 145.254 365.686 145.434C365.982 145.614 366.314 145.704 366.682 145.704ZM372.725 145.68V147H371.405V145.68H372.725ZM374.552 138.6H375.512V143.736L378.296 140.856H379.49L376.688 143.784L379.598 147H378.362L375.512 143.904V147H374.552V138.6ZM382.655 147C382.363 147 382.097 146.938 381.857 146.814C381.621 146.686 381.435 146.512 381.299 146.292C381.163 146.068 381.095 145.82 381.095 145.548L381.089 141.708H380.009L380.015 140.856H380.681C380.833 140.856 380.955 140.808 381.047 140.712C381.143 140.616 381.191 140.494 381.191 140.346V139.356H382.055V140.856H383.537L383.531 141.708H382.049L382.055 145.488C382.055 145.676 382.117 145.834 382.241 145.962C382.369 146.086 382.527 146.148 382.715 146.148H383.531V147H382.655Z" fill="white"/>
<rect x="406" y="116" width="91" height="24" rx="12" fill="#F2F2F2"/>
<path d="M439.424 131.07H440.852C441.088 131.07 441.296 131.02 441.476 130.92C441.66 130.82 441.802 130.68 441.902 130.5C442.002 130.316 442.052 130.106 442.052 129.87V123.6H443.048V129.93C443.048 130.334 442.958 130.694 442.778 131.01C442.598 131.322 442.346 131.566 442.022 131.742C441.698 131.914 441.328 132 440.912 132H439.424V131.07ZM444.533 123.6H445.625L448.283 130.71L450.845 123.6H451.949L448.763 132H447.743L444.533 123.6ZM453.499 123.6H454.741L457.753 130.332L457.909 130.758L458.059 130.332L461.017 123.6H462.283V132H461.287V125.364V125.208L458.317 132H457.483L454.489 125.244V125.364V132H453.499V123.6Z" fill="black"/>
<rect x="406" y="144" width="91" height="24" rx="12" fill="#F2F2F2"/>
<path d="M423.452 153.856H424.412V160H423.452V153.856ZM424.496 151.6V152.74H423.368V151.6H424.496ZM430.297 159.232C430.885 159.232 431.417 159.086 431.893 158.794C432.369 158.498 432.741 158.09 433.009 157.57C433.281 157.046 433.417 156.456 433.417 155.8C433.417 155.14 433.283 154.55 433.015 154.03C432.751 153.506 432.381 153.098 431.905 152.806C431.433 152.514 430.897 152.368 430.297 152.368C429.705 152.368 429.171 152.516 428.695 152.812C428.223 153.104 427.851 153.51 427.579 154.03C427.311 154.55 427.177 155.14 427.177 155.8C427.177 156.46 427.311 157.05 427.579 157.57C427.851 158.09 428.223 158.498 428.695 158.794C429.171 159.086 429.705 159.232 430.297 159.232ZM430.297 160.144C429.521 160.144 428.817 159.956 428.185 159.58C427.553 159.2 427.055 158.68 426.691 158.02C426.327 157.356 426.145 156.616 426.145 155.8C426.145 154.984 426.327 154.246 426.691 153.586C427.055 152.922 427.553 152.402 428.185 152.026C428.817 151.646 429.521 151.456 430.297 151.456C431.069 151.456 431.771 151.646 432.403 152.026C433.039 152.402 433.539 152.922 433.903 153.586C434.267 154.246 434.449 154.984 434.449 155.8C434.449 156.616 434.267 157.356 433.903 158.02C433.539 158.68 433.039 159.2 432.403 159.58C431.771 159.956 431.069 160.144 430.297 160.144ZM438.717 160.144C438.141 160.144 437.631 160.038 437.187 159.826C436.747 159.614 436.403 159.318 436.155 158.938C435.911 158.558 435.789 158.122 435.789 157.63H436.809C436.809 157.946 436.889 158.226 437.049 158.47C437.209 158.714 437.435 158.904 437.727 159.04C438.019 159.176 438.353 159.244 438.729 159.244C439.101 159.244 439.427 159.182 439.707 159.058C439.991 158.93 440.209 158.752 440.361 158.524C440.517 158.292 440.595 158.026 440.595 157.726C440.595 157.346 440.481 157.02 440.253 156.748C440.029 156.476 439.729 156.308 439.353 156.244L437.997 156.01C437.589 155.938 437.235 155.796 436.935 155.584C436.635 155.372 436.405 155.108 436.245 154.792C436.085 154.476 436.005 154.132 436.005 153.76C436.005 153.324 436.119 152.932 436.347 152.584C436.579 152.232 436.899 151.956 437.307 151.756C437.719 151.556 438.181 151.456 438.693 151.456C439.221 151.456 439.691 151.556 440.103 151.756C440.515 151.952 440.835 152.226 441.063 152.578C441.291 152.93 441.405 153.332 441.405 153.784H440.385C440.385 153.508 440.315 153.262 440.175 153.046C440.035 152.826 439.837 152.656 439.581 152.536C439.329 152.416 439.037 152.356 438.705 152.356C438.373 152.356 438.079 152.414 437.823 152.53C437.567 152.646 437.367 152.81 437.223 153.022C437.083 153.234 437.013 153.48 437.013 153.76C437.013 154.092 437.119 154.378 437.331 154.618C437.547 154.858 437.829 155.008 438.177 155.068L439.557 155.308C439.957 155.38 440.313 155.534 440.625 155.77C440.937 156.006 441.179 156.296 441.351 156.64C441.523 156.98 441.609 157.338 441.609 157.714C441.609 158.166 441.487 158.578 441.243 158.95C440.999 159.318 440.657 159.61 440.217 159.826C439.777 160.038 439.277 160.144 438.717 160.144ZM445.591 151.6H446.665L449.893 160H448.837L448.027 157.768H444.313L443.557 160H442.477L445.591 151.6ZM447.703 156.904L446.269 152.998L446.125 152.488L445.981 152.998L444.619 156.904H447.703ZM451.202 153.856H452.162V155.914L451.76 156.514C451.776 155.962 451.876 155.482 452.06 155.074C452.248 154.662 452.508 154.346 452.84 154.126C453.172 153.906 453.558 153.796 453.998 153.796H454.214V154.798H453.962C453.598 154.798 453.28 154.868 453.008 155.008C452.736 155.148 452.526 155.348 452.378 155.608C452.234 155.864 452.162 156.166 452.162 156.514V160H451.202V153.856ZM455.491 153.856H456.415V156.514H456.091C456.091 155.938 456.179 155.44 456.355 155.02C456.535 154.6 456.793 154.278 457.129 154.054C457.465 153.826 457.865 153.712 458.329 153.712C458.765 153.712 459.147 153.812 459.475 154.012C459.803 154.208 460.057 154.488 460.237 154.852C460.417 155.216 460.507 155.64 460.507 156.124V160H459.547V156.166C459.547 155.83 459.489 155.54 459.373 155.296C459.261 155.048 459.095 154.858 458.875 154.726C458.659 154.594 458.399 154.528 458.095 154.528C457.763 154.528 457.473 154.602 457.225 154.75C456.977 154.898 456.785 155.11 456.649 155.386C456.517 155.662 456.451 155.986 456.451 156.358V160H455.491V153.856ZM463.603 156.166C463.603 155.83 463.545 155.54 463.429 155.296C463.317 155.048 463.153 154.858 462.937 154.726C462.721 154.594 462.459 154.528 462.151 154.528C461.823 154.528 461.535 154.604 461.287 154.756C461.039 154.904 460.847 155.116 460.711 155.392C460.575 155.664 460.507 155.986 460.507 156.358L459.967 156.514C459.967 155.962 460.063 155.474 460.255 155.05C460.447 154.626 460.721 154.298 461.077 154.066C461.437 153.83 461.855 153.712 462.331 153.712C462.767 153.712 463.153 153.812 463.489 154.012C463.829 154.208 464.093 154.488 464.281 154.852C464.469 155.216 464.563 155.64 464.563 156.124V160H463.603V156.166ZM469.496 160.144C468.836 160.144 468.258 159.974 467.762 159.634C467.27 159.29 466.89 158.804 466.622 158.176C466.354 157.544 466.22 156.806 466.22 155.962C466.22 155.054 466.358 154.26 466.634 153.58C466.91 152.896 467.296 152.372 467.792 152.008C468.288 151.64 468.856 151.456 469.496 151.456C469.9 151.456 470.286 151.514 470.654 151.63C471.022 151.746 471.354 151.938 471.65 152.206C471.946 152.47 472.174 152.812 472.334 153.232H471.338C471.246 153.068 471.11 152.92 470.93 152.788C470.754 152.656 470.546 152.552 470.306 152.476C470.07 152.396 469.818 152.356 469.55 152.356C469.106 152.356 468.706 152.48 468.35 152.728C467.998 152.976 467.716 153.368 467.504 153.904C467.292 154.436 467.184 155.11 467.18 155.926C467.304 155.614 467.488 155.342 467.732 155.11C467.976 154.874 468.268 154.692 468.608 154.564C468.948 154.436 469.318 154.372 469.718 154.372C470.258 154.372 470.744 154.498 471.176 154.75C471.612 154.998 471.952 155.342 472.196 155.782C472.444 156.222 472.568 156.714 472.568 157.258C472.568 157.802 472.434 158.294 472.166 158.734C471.902 159.174 471.536 159.52 471.068 159.772C470.6 160.02 470.076 160.144 469.496 160.144ZM469.538 159.244C469.918 159.244 470.26 159.16 470.564 158.992C470.868 158.82 471.106 158.584 471.278 158.284C471.45 157.98 471.536 157.64 471.536 157.264C471.536 156.884 471.448 156.542 471.272 156.238C471.096 155.93 470.852 155.688 470.54 155.512C470.232 155.336 469.884 155.248 469.496 155.248C469.112 155.248 468.766 155.336 468.458 155.512C468.154 155.684 467.914 155.924 467.738 156.232C467.566 156.536 467.48 156.876 467.48 157.252C467.48 157.632 467.568 157.974 467.744 158.278C467.92 158.578 468.164 158.814 468.476 158.986C468.792 159.158 469.146 159.244 469.538 159.244ZM477.725 157.93H473.465V157.03L477.719 151.6H478.301L478.637 151.714L474.497 157.03H477.725V151.6H478.709V157.03H480.017V157.93H478.709V160H477.725V157.93Z" fill="black"/>
<rect x="203.35" y="112.35" width="297.3" height="59.3" rx="14.65" stroke="#595959" stroke-width="0.7"/>
<defs>
<radialGradient id="paint0_radial_1218_890" cx="0" cy="0" r="1" gradientUnits="userSpaceOnUse" gradientTransform="translate(206.451 168.784) scale(191.063 192.458)">
<stop stop-color="#EB4857"/>
<stop offset="0.5" stop-color="#C611E0"/>
<stop offset="1" stop-color="#7F52FF"/>
</radialGradient>
</defs>
</svg>
