<svg width="48" height="48" viewBox="0 0 48 48" fill="none" xmlns="http://www.w3.org/2000/svg">
<path d="M46 36H2C2.70411 28.7455 6.96712 22.5487 13.261 19.2313L9.61115 13.0811C9.40518 12.7363 9.52493 12.2984 9.87938 12.098C10.2338 11.8977 10.6841 12.0142 10.8901 12.3589L14.5879 18.5884C17.4091 17.335 20.5848 16.6361 24 16.6361C27.4152 16.6361 30.5909 17.335 33.4122 18.5884L37.1099 12.3589C37.3111 12.0142 37.7662 11.8977 38.1158 12.098C38.4655 12.2984 38.59 12.7363 38.3841 13.0811L34.7342 19.2313C41.0329 22.5487 45.2959 28.7455 46 36V36ZM34.0971 29.9896C35.1174 29.9896 35.946 29.1835 35.9412 28.1957C35.9412 27.208 35.1174 26.4019 34.0971 26.4019C33.0816 26.4019 32.253 27.2033 32.253 28.1957C32.253 29.1835 33.0769 29.9896 34.0971 29.9896ZM13.8981 29.9896C14.9184 29.9896 15.747 29.1835 15.7422 28.1957C15.7422 27.208 14.9184 26.4019 13.8981 26.4019C12.8826 26.4019 12.054 27.2033 12.054 28.1957C12.054 29.1835 12.8779 29.9896 13.8981 29.9896Z" fill="white"/>
</svg>
