<svg width="48" height="48" viewBox="0 0 48 48" fill="none" xmlns="http://www.w3.org/2000/svg">
<path d="M48 44H0C0.768125 36.141 5.41868 29.4278 12.2848 25.834L8.30307 19.1712C8.07838 18.7977 8.20901 18.3232 8.59569 18.1062C8.98236 17.8891 9.47355 18.0153 9.69824 18.3888L13.7322 25.1374C16.8099 23.7796 20.2743 23.0225 24 23.0225C27.7257 23.0225 31.1901 23.7796 34.2678 25.1374L38.3018 18.3888C38.5212 18.0153 39.0176 17.8891 39.3991 18.1062C39.7805 18.3232 39.9164 18.7977 39.6917 19.1712L35.71 25.834C42.5813 29.4278 47.2319 36.141 48 44ZM35.015 37.4887C36.128 37.4887 37.032 36.6155 37.0268 35.5454C37.0268 34.4753 36.128 33.6021 35.015 33.6021C33.9072 33.6021 33.0033 34.4703 33.0033 35.5454C33.0033 36.6155 33.902 37.4887 35.015 37.4887ZM12.9798 37.4887C14.0927 37.4887 14.9967 36.6155 14.9915 35.5454C14.9915 34.4753 14.0927 33.6021 12.9798 33.6021C11.872 33.6021 10.968 34.4703 10.968 35.5454C10.968 36.6155 11.8668 37.4887 12.9798 37.4887Z" fill="white"/>
</svg>
