<svg width="48" height="48" viewBox="0 0 48 48" fill="none" xmlns="http://www.w3.org/2000/svg">
<path fill-rule="evenodd" clip-rule="evenodd" d="M16 4C16 2.89543 16.8954 2 18 2H44C45.1046 2 46 2.89543 46 4V30C46 31.1046 45.1046 32 44 32H34V18C34 15.7909 32.2091 14 30 14H16V4ZM14 16H4C2.89543 16 2 16.8954 2 18V44C2 45.1046 2.89543 46 4 46H30C31.1046 46 32 45.1046 32 44V34H18C15.7909 34 14 32.2091 14 30V16ZM32 32H30H18C16.8954 32 16 31.1046 16 30V18V16H18H30C31.1046 16 32 16.8954 32 18V30V32Z" fill="white"/>
</svg>
