<svg width="48" height="48" viewBox="0 0 48 48" fill="none" xmlns="http://www.w3.org/2000/svg">
<path fill-rule="evenodd" clip-rule="evenodd" d="M18 46C16.8954 46 16 45.1046 16 44V31.9711C24.5925 31.4727 31.4727 24.5925 31.9711 16H44C45.1046 16 46 16.8954 46 18V44C46 45.1046 45.1046 46 44 46H18ZM29.9672 16C29.4744 23.4875 23.4875 29.4744 16 29.9672V18C16 16.8954 16.8954 16 18 16H29.9672Z" fill="white"/>
<path fill-rule="evenodd" clip-rule="evenodd" d="M29.9672 14C29.4526 6.182 22.9482 2.86092e-05 15 2.86092e-05C6.71573 2.86092e-05 0 6.71576 0 15C0 22.9483 6.18197 29.4526 14 29.9672V18C14 15.7909 15.7909 14 18 14H29.9672ZM16 29.9672V18C16 16.8955 16.8954 16 18 16H29.9672C29.4744 23.4875 23.4875 29.4744 16 29.9672Z" fill="white"/>
</svg>
