<svg width="48" height="48" viewBox="0 0 48 48" fill="none" xmlns="http://www.w3.org/2000/svg">
<path d="M0 45C0 46.6569 1.34315 48 3 48H45C46.6569 48 48 46.6569 48 45V33.7998C48 33.2475 47.5523 32.7998 47 32.7998H1C0.447715 32.7998 0 33.2475 0 33.7998V45Z" fill="white"/>
<path d="M48 3C48 1.34315 46.6569 0 45 0H3C1.34315 0 0 1.34315 0 3V14.2002C0 14.7525 0.447715 15.2002 1 15.2002H47C47.5523 15.2002 48 14.7525 48 14.2002V3Z" fill="white"/>
<path d="M0 17.7998V30.2002C0 30.7525 0.447715 31.2002 1 31.2002H47C47.5523 31.2002 48 30.7525 48 30.2002V17.7998C48 17.2475 47.5523 16.7998 47 16.7998H1C0.447715 16.7998 0 17.2475 0 17.7998Z" fill="white"/>
</svg>
