<svg width="48" height="48" viewBox="0 0 48 48" fill="none" xmlns="http://www.w3.org/2000/svg">
<path d="M45.6628 34.3481C42.8342 40.2832 37.6523 44.873 31.324 46.9033C31.0764 46.9824 30.8896 46.6685 31.0774 46.4888C33.9041 43.7861 36.1707 39.5215 37.4854 34.3628C37.5415 34.1426 37.7378 33.9858 37.9651 33.9858H45.4324C45.6172 33.9858 45.7424 34.1816 45.6628 34.3481ZM10.5146 34.3628C10.4585 34.1426 10.2622 33.9858 10.0349 33.9858H2.56763C2.38306 33.9858 2.25757 34.1816 2.33716 34.3481C5.16553 40.2827 10.3474 44.8726 16.6758 46.9033C16.9231 46.9824 17.1101 46.6685 16.9221 46.4888C14.0957 43.7861 11.8293 39.5215 10.5146 34.3628ZM46.6204 15.9521C46.5488 15.751 46.3552 15.6172 46.1418 15.6172H38.5291C38.217 15.6172 37.9856 15.896 38.0422 16.2031C38.4949 18.6631 38.7424 21.2817 38.7424 24C38.7424 26.7183 38.4949 29.3369 38.0422 31.7969C37.9856 32.104 38.217 32.3828 38.5291 32.3828H46.1418C46.3552 32.3828 46.5488 32.249 46.6204 32.0479C47.5125 29.5317 48 26.8232 48 24C48 21.1768 47.5125 18.4683 46.6204 15.9521ZM22.7 33.9858H12.7019C12.3728 33.9858 12.1282 34.3037 12.2141 34.6216C14.25 42.1543 18.3772 47.4668 23.2 48V34.4858C23.2 34.2095 22.9761 33.9858 22.7 33.9858ZM37.4854 13.6367C37.5415 13.8574 37.7378 14.0137 37.9651 14.0137H45.4321C45.6169 14.0137 45.7422 13.8179 45.6626 13.6514C42.832 7.71191 37.6443 3.11963 31.3093 1.0918C31.0618 1.0127 30.8752 1.32666 31.0632 1.50635C33.8958 4.20703 36.1687 8.4707 37.4854 13.6367ZM9.95801 31.7969C9.50513 29.3369 9.25757 26.7183 9.25757 24C9.25757 21.2817 9.50513 18.6631 9.95801 16.2031C10.0144 15.896 9.78296 15.6172 9.47095 15.6172H1.8584C1.64478 15.6172 1.45117 15.751 1.37964 15.9521C0.487549 18.4683 0 21.1768 0 24C0 26.8232 0.487549 29.5317 1.37964 32.0479C1.45117 32.249 1.64478 32.3828 1.8584 32.3828H9.47095C9.78296 32.3828 10.0144 32.104 9.95801 31.7969ZM2.56787 14.0137H10.0349C10.2622 14.0137 10.4585 13.8574 10.5146 13.6367C11.8313 8.4707 14.104 4.20703 16.9363 1.50635C17.1245 1.32666 16.938 1.0127 16.6904 1.0918C10.3557 3.11963 5.16797 7.71191 2.3374 13.6514C2.25806 13.8179 2.38306 14.0137 2.56787 14.0137ZM25.2996 14.0137H35.2981C35.6272 14.0137 35.8718 13.6958 35.7859 13.3779C33.75 5.84521 29.6228 0.533203 24.7996 0V13.5137C24.7996 13.79 25.0234 14.0137 25.2996 14.0137ZM35.2981 33.9858H25.2996C25.0234 33.9858 24.7996 34.2095 24.7996 34.4858V48C29.6228 47.4668 33.75 42.1543 35.7859 34.6216C35.8718 34.3037 35.6272 33.9858 35.2981 33.9858ZM25.2996 32.3828H35.9021C36.1428 32.3828 36.3523 32.2144 36.3979 31.978C36.8794 29.48 37.1428 26.7959 37.1428 24C37.1428 21.2041 36.8794 18.52 36.3979 16.022C36.3523 15.7856 36.1428 15.6172 35.9021 15.6172H25.2996C25.0234 15.6172 24.7996 15.8408 24.7996 16.1172V31.8828C24.7996 32.1592 25.0234 32.3828 25.2996 32.3828ZM12.2141 13.3779C12.1282 13.6958 12.3728 14.0137 12.7019 14.0137H22.7C22.9761 14.0137 23.2 13.79 23.2 13.5137V0C18.3772 0.533203 14.25 5.84521 12.2141 13.3779ZM22.7 15.6172H12.0979C11.8572 15.6172 11.6477 15.7856 11.6021 16.022C11.1206 18.52 10.8572 21.2041 10.8572 24C10.8572 26.7959 11.1206 29.48 11.6021 31.978C11.6477 32.2144 11.8572 32.3828 12.0979 32.3828H22.7C22.9761 32.3828 23.2 32.1592 23.2 31.8828V16.1172C23.2 15.8408 22.9761 15.6172 22.7 15.6172Z" fill="white"/>
</svg>
