<svg width="402" height="190" viewBox="0 0 402 190" fill="none" xmlns="http://www.w3.org/2000/svg">
<rect y="16" width="197" height="174" rx="12" fill="#F2F2F2"/>
<path d="M74.4204 40V31.24H77.2404C77.7844 31.24 78.2564 31.348 78.6564 31.564C79.0564 31.772 79.3644 32.068 79.5804 32.452C79.8044 32.836 79.9164 33.292 79.9164 33.82C79.9164 34.34 79.8044 34.796 79.5804 35.188C79.3644 35.572 79.0564 35.872 78.6564 36.088C78.2564 36.296 77.7844 36.4 77.2404 36.4H75.5004V40H74.4204ZM75.5004 35.428H77.2404C77.7124 35.428 78.0884 35.284 78.3684 34.996C78.6564 34.7 78.8004 34.308 78.8004 33.82C78.8004 33.324 78.6564 32.932 78.3684 32.644C78.0884 32.356 77.7124 32.212 77.2404 32.212H75.5004V35.428ZM83.5357 40.12C82.8397 40.12 82.2917 39.944 81.8917 39.592C81.4917 39.232 81.2917 38.748 81.2917 38.14C81.2917 37.524 81.4917 37.04 81.8917 36.688C82.2917 36.336 82.8317 36.16 83.5117 36.16H85.5517V35.5C85.5517 35.092 85.4277 34.78 85.1797 34.564C84.9397 34.34 84.5957 34.228 84.1477 34.228C83.7557 34.228 83.4277 34.312 83.1637 34.48C82.8997 34.64 82.7477 34.86 82.7077 35.14H81.6277C81.6997 34.572 81.9677 34.12 82.4317 33.784C82.8957 33.448 83.4757 33.28 84.1717 33.28C84.9317 33.28 85.5317 33.476 85.9717 33.868C86.4117 34.26 86.6317 34.792 86.6317 35.464V40H85.5757V38.74H85.3957L85.5757 38.56C85.5757 39.04 85.3877 39.42 85.0117 39.7C84.6437 39.98 84.1517 40.12 83.5357 40.12ZM83.7997 39.268C84.3117 39.268 84.7317 39.14 85.0597 38.884C85.3877 38.628 85.5517 38.3 85.5517 37.9V36.964H83.5357C83.1757 36.964 82.8917 37.064 82.6837 37.264C82.4757 37.464 82.3717 37.736 82.3717 38.08C82.3717 38.448 82.4957 38.74 82.7437 38.956C82.9997 39.164 83.3517 39.268 83.7997 39.268ZM91.355 40.12C90.827 40.12 90.363 40.02 89.963 39.82C89.571 39.62 89.267 39.332 89.051 38.956C88.835 38.572 88.727 38.12 88.727 37.6V35.8C88.727 35.272 88.835 34.82 89.051 34.444C89.267 34.068 89.571 33.78 89.963 33.58C90.363 33.38 90.827 33.28 91.355 33.28C92.115 33.28 92.727 33.484 93.191 33.892C93.655 34.3 93.899 34.856 93.923 35.56H92.843C92.819 35.136 92.675 34.812 92.411 34.588C92.155 34.356 91.803 34.24 91.355 34.24C90.883 34.24 90.507 34.376 90.227 34.648C89.947 34.912 89.807 35.292 89.807 35.788V37.6C89.807 38.096 89.947 38.48 90.227 38.752C90.507 39.024 90.883 39.16 91.355 39.16C91.803 39.16 92.155 39.044 92.411 38.812C92.675 38.58 92.819 38.256 92.843 37.84H93.923C93.899 38.544 93.655 39.1 93.191 39.508C92.727 39.916 92.115 40.12 91.355 40.12ZM96.0423 40V31.24H97.1223V36.124H98.3943L100.314 33.4H101.55L99.3303 36.544L101.586 40H100.326L98.4063 37.06H97.1223V40H96.0423ZM105.122 40.12C104.426 40.12 103.878 39.944 103.478 39.592C103.078 39.232 102.878 38.748 102.878 38.14C102.878 37.524 103.078 37.04 103.478 36.688C103.878 36.336 104.418 36.16 105.098 36.16H107.138V35.5C107.138 35.092 107.014 34.78 106.766 34.564C106.526 34.34 106.182 34.228 105.734 34.228C105.342 34.228 105.014 34.312 104.75 34.48C104.486 34.64 104.334 34.86 104.294 35.14H103.214C103.286 34.572 103.554 34.12 104.018 33.784C104.482 33.448 105.062 33.28 105.758 33.28C106.518 33.28 107.118 33.476 107.558 33.868C107.998 34.26 108.218 34.792 108.218 35.464V40H107.162V38.74H106.982L107.162 38.56C107.162 39.04 106.974 39.42 106.598 39.7C106.23 39.98 105.738 40.12 105.122 40.12ZM105.386 39.268C105.898 39.268 106.318 39.14 106.646 38.884C106.974 38.628 107.138 38.3 107.138 37.9V36.964H105.122C104.762 36.964 104.478 37.064 104.27 37.264C104.062 37.464 103.958 37.736 103.958 38.08C103.958 38.448 104.082 38.74 104.33 38.956C104.586 39.164 104.938 39.268 105.386 39.268ZM111.225 42.16V41.176H113.325C113.661 41.176 113.905 41.1 114.057 40.948C114.217 40.796 114.297 40.56 114.297 40.24V39.4L114.321 38.2H114.105L114.309 38.02C114.309 38.5 114.149 38.88 113.829 39.16C113.509 39.44 113.081 39.58 112.545 39.58C111.865 39.58 111.329 39.36 110.937 38.92C110.545 38.472 110.349 37.872 110.349 37.12V35.728C110.349 34.976 110.545 34.38 110.937 33.94C111.329 33.5 111.865 33.28 112.545 33.28C113.081 33.28 113.509 33.42 113.829 33.7C114.149 33.98 114.309 34.36 114.309 34.84L114.105 34.66H114.309V33.4H115.377V40.24C115.377 40.832 115.193 41.3 114.825 41.644C114.465 41.988 113.961 42.16 113.313 42.16H111.225ZM112.869 38.644C113.317 38.644 113.669 38.504 113.925 38.224C114.181 37.944 114.309 37.556 114.309 37.06V35.8C114.309 35.304 114.181 34.916 113.925 34.636C113.669 34.356 113.317 34.216 112.869 34.216C112.413 34.216 112.057 34.352 111.801 34.624C111.553 34.896 111.429 35.288 111.429 35.8V37.06C111.429 37.572 111.553 37.964 111.801 38.236C112.057 38.508 112.413 38.644 112.869 38.644ZM120.088 40.12C119.568 40.12 119.112 40.016 118.72 39.808C118.336 39.6 118.036 39.308 117.82 38.932C117.612 38.548 117.508 38.104 117.508 37.6V35.8C117.508 35.288 117.612 34.844 117.82 34.468C118.036 34.092 118.336 33.8 118.72 33.592C119.112 33.384 119.568 33.28 120.088 33.28C120.608 33.28 121.06 33.384 121.444 33.592C121.836 33.8 122.136 34.092 122.344 34.468C122.56 34.844 122.668 35.288 122.668 35.8V36.964H118.564V37.6C118.564 38.12 118.696 38.52 118.96 38.8C119.224 39.072 119.6 39.208 120.088 39.208C120.504 39.208 120.84 39.136 121.096 38.992C121.352 38.84 121.508 38.616 121.564 38.32H122.644C122.572 38.872 122.3 39.312 121.828 39.64C121.364 39.96 120.784 40.12 120.088 40.12ZM121.612 36.244V35.8C121.612 35.28 121.48 34.88 121.216 34.6C120.96 34.32 120.584 34.18 120.088 34.18C119.6 34.18 119.224 34.32 118.96 34.6C118.696 34.88 118.564 35.28 118.564 35.8V36.148H121.696L121.612 36.244Z" fill="black"/>
<path d="M7.76011 10.5601V3.26006H8.66011V9.74006H11.9601V10.5601H7.76011ZM13.4562 10.5601V9.74006H15.4062V5.88006H13.7062V5.06006H16.3062V9.74006H18.1562V10.5601H13.4562ZM15.7562 4.07006C15.5362 4.07006 15.3629 4.01339 15.2362 3.90006C15.1095 3.78673 15.0462 3.63339 15.0462 3.44006C15.0462 3.24006 15.1095 3.08339 15.2362 2.97006C15.3629 2.85006 15.5362 2.79006 15.7562 2.79006C15.9762 2.79006 16.1495 2.85006 16.2762 2.97006C16.4029 3.08339 16.4662 3.24006 16.4662 3.44006C16.4662 3.63339 16.4029 3.78673 16.2762 3.90006C16.1495 4.01339 15.9762 4.07006 15.7562 4.07006ZM21.9223 10.6601C21.469 10.6601 21.1056 10.5401 20.8323 10.3001C20.559 10.0534 20.4223 9.72006 20.4223 9.30006L20.6023 9.51006H20.4223V10.5601H19.5223V3.26006H20.4223V4.86006L20.4023 6.11006H20.6023L20.4223 6.32006C20.4223 5.90672 20.559 5.57673 20.8323 5.33006C21.1123 5.08339 21.4756 4.96006 21.9223 4.96006C22.4756 4.96006 22.919 5.14339 23.2523 5.51006C23.5856 5.87673 23.7523 6.37673 23.7523 7.01006V8.62006C23.7523 9.24673 23.5856 9.74339 23.2523 10.1101C22.919 10.4767 22.4756 10.6601 21.9223 10.6601ZM21.6223 9.88006C22.0023 9.88006 22.3023 9.76673 22.5223 9.54006C22.7423 9.31339 22.8523 8.98673 22.8523 8.56006V7.06006C22.8523 6.63339 22.7423 6.30672 22.5223 6.08006C22.3023 5.85339 22.0023 5.74006 21.6223 5.74006C21.2556 5.74006 20.9623 5.85673 20.7423 6.09006C20.529 6.32339 20.4223 6.64672 20.4223 7.06006V8.56006C20.4223 8.97339 20.529 9.29673 20.7423 9.53006C20.9623 9.76339 21.2556 9.88006 21.6223 9.88006ZM25.7084 10.5601V5.06006H26.5884V6.11006H26.7984L26.5084 6.76006C26.5084 6.16673 26.6351 5.72006 26.8884 5.42006C27.1484 5.11339 27.5317 4.96006 28.0384 4.96006C28.6184 4.96006 29.0784 5.14339 29.4184 5.51006C29.7651 5.87006 29.9384 6.36006 29.9384 6.98006V7.31006H29.0384V7.06006C29.0384 6.62673 28.9317 6.29673 28.7184 6.07006C28.5117 5.83672 28.2151 5.72006 27.8284 5.72006C27.4484 5.72006 27.1484 5.83672 26.9284 6.07006C26.7151 6.30339 26.6084 6.63339 26.6084 7.06006V10.5601H25.7084ZM33.1145 10.6601C32.5345 10.6601 32.0778 10.5134 31.7445 10.2201C31.4111 9.92006 31.2445 9.51673 31.2445 9.01006C31.2445 8.49673 31.4111 8.09339 31.7445 7.80006C32.0778 7.50673 32.5278 7.36006 33.0945 7.36006H34.7945V6.81006C34.7945 6.47006 34.6911 6.21006 34.4845 6.03006C34.2845 5.84339 33.9978 5.75006 33.6245 5.75006C33.2978 5.75006 33.0245 5.82006 32.8045 5.96006C32.5845 6.09339 32.4578 6.27672 32.4245 6.51006H31.5245C31.5845 6.03673 31.8078 5.66006 32.1945 5.38006C32.5811 5.10006 33.0645 4.96006 33.6445 4.96006C34.2778 4.96006 34.7778 5.12339 35.1445 5.45006C35.5111 5.77673 35.6945 6.22006 35.6945 6.78006V10.5601H34.8145V9.51006H34.6645L34.8145 9.36006C34.8145 9.76006 34.6578 10.0767 34.3445 10.3101C34.0378 10.5434 33.6278 10.6601 33.1145 10.6601ZM33.3345 9.95006C33.7611 9.95006 34.1111 9.84339 34.3845 9.63006C34.6578 9.41673 34.7945 9.14339 34.7945 8.81006V8.03006H33.1145C32.8145 8.03006 32.5778 8.11339 32.4045 8.28006C32.2311 8.44673 32.1445 8.67339 32.1445 8.96006C32.1445 9.26673 32.2478 9.51006 32.4545 9.69006C32.6678 9.86339 32.9611 9.95006 33.3345 9.95006ZM37.7006 10.5601V5.06006H38.5806V6.11006H38.7906L38.5006 6.76006C38.5006 6.16673 38.6272 5.72006 38.8806 5.42006C39.1406 5.11339 39.5239 4.96006 40.0306 4.96006C40.6106 4.96006 41.0706 5.14339 41.4106 5.51006C41.7572 5.87006 41.9306 6.36006 41.9306 6.98006V7.31006H41.0306V7.06006C41.0306 6.62673 40.9239 6.29673 40.7106 6.07006C40.5039 5.83672 40.2072 5.72006 39.8206 5.72006C39.4406 5.72006 39.1406 5.83672 38.9206 6.07006C38.7072 6.30339 38.6006 6.63339 38.6006 7.06006V10.5601H37.7006ZM44.3667 12.3601L45.1767 10.2201L43.1367 5.06006H44.1367L45.4167 8.46006C45.4633 8.57339 45.5067 8.71006 45.5467 8.87006C45.5867 9.02339 45.62 9.15339 45.6467 9.26006C45.6733 9.15339 45.7067 9.02339 45.7467 8.87006C45.7867 8.71006 45.8267 8.57339 45.8667 8.46006L47.0667 5.06006H48.0367L45.3267 12.3601H44.3667Z" fill="#595959"/>
<rect x="4" y="120" width="191" height="27" rx="12" fill="url(#paint0_radial_5516_2)"/>
<path d="M89.307 139L91.587 130.24H93.039L95.307 139H94.215L93.639 136.672H90.987L90.411 139H89.307ZM91.203 135.76H93.411L92.739 133.06C92.611 132.548 92.511 132.12 92.439 131.776C92.367 131.432 92.323 131.208 92.307 131.104C92.291 131.208 92.247 131.432 92.175 131.776C92.103 132.12 92.003 132.544 91.875 133.048L91.203 135.76ZM97.0063 139V130.24H99.8263C100.37 130.24 100.842 130.348 101.242 130.564C101.642 130.772 101.95 131.068 102.166 131.452C102.39 131.836 102.502 132.292 102.502 132.82C102.502 133.34 102.39 133.796 102.166 134.188C101.95 134.572 101.642 134.872 101.242 135.088C100.842 135.296 100.37 135.4 99.8263 135.4H98.0863V139H97.0063ZM98.0863 134.428H99.8263C100.298 134.428 100.674 134.284 100.954 133.996C101.242 133.7 101.386 133.308 101.386 132.82C101.386 132.324 101.242 131.932 100.954 131.644C100.674 131.356 100.298 131.212 99.8263 131.212H98.0863V134.428ZM104.358 139V138.016H106.146V131.224H104.358V130.24H109.038V131.224H107.25V138.016H109.038V139H104.358Z" fill="white"/>
<rect x="3" y="56" width="191" height="27" rx="12" fill="url(#paint1_radial_5516_2)"/>
<path d="M88.307 75L90.587 66.24H92.039L94.307 75H93.215L92.639 72.672H89.987L89.411 75H88.307ZM90.203 71.76H92.411L91.739 69.06C91.611 68.548 91.511 68.12 91.439 67.776C91.367 67.432 91.323 67.208 91.307 67.104C91.291 67.208 91.247 67.432 91.175 67.776C91.103 68.12 91.003 68.544 90.875 69.048L90.203 71.76ZM96.0063 75V66.24H98.8263C99.3703 66.24 99.8423 66.348 100.242 66.564C100.642 66.772 100.95 67.068 101.166 67.452C101.39 67.836 101.502 68.292 101.502 68.82C101.502 69.34 101.39 69.796 101.166 70.188C100.95 70.572 100.642 70.872 100.242 71.088C99.8423 71.296 99.3703 71.4 98.8263 71.4H97.0863V75H96.0063ZM97.0863 70.428H98.8263C99.2983 70.428 99.6743 70.284 99.9543 69.996C100.242 69.7 100.386 69.308 100.386 68.82C100.386 68.324 100.242 67.932 99.9543 67.644C99.6743 67.356 99.2983 67.212 98.8263 67.212H97.0863V70.428ZM103.358 75V74.016H105.146V67.224H103.358V66.24H108.038V67.224H106.25V74.016H108.038V75H103.358Z" fill="white"/>
<rect x="3" y="88" width="191" height="27" rx="12" fill="url(#paint2_radial_5516_2)"/>
<path d="M88.307 107L90.587 98.24H92.039L94.307 107H93.215L92.639 104.672H89.987L89.411 107H88.307ZM90.203 103.76H92.411L91.739 101.06C91.611 100.548 91.511 100.12 91.439 99.776C91.367 99.432 91.323 99.208 91.307 99.104C91.291 99.208 91.247 99.432 91.175 99.776C91.103 100.12 91.003 100.544 90.875 101.048L90.203 103.76ZM96.0063 107V98.24H98.8263C99.3703 98.24 99.8423 98.348 100.242 98.564C100.642 98.772 100.95 99.068 101.166 99.452C101.39 99.836 101.502 100.292 101.502 100.82C101.502 101.34 101.39 101.796 101.166 102.188C100.95 102.572 100.642 102.872 100.242 103.088C99.8423 103.296 99.3703 103.4 98.8263 103.4H97.0863V107H96.0063ZM97.0863 102.428H98.8263C99.2983 102.428 99.6743 102.284 99.9543 101.996C100.242 101.7 100.386 101.308 100.386 100.82C100.386 100.324 100.242 99.932 99.9543 99.644C99.6743 99.356 99.2983 99.212 98.8263 99.212H97.0863V102.428ZM103.358 107V106.016H105.146V99.224H103.358V98.24H108.038V99.224H106.25V106.016H108.038V107H103.358Z" fill="white"/>
<rect x="205" y="16" width="197" height="174" rx="12" fill="#F2F2F2"/>
<path d="M279.42 40V31.24H282.24C282.784 31.24 283.256 31.348 283.656 31.564C284.056 31.772 284.364 32.068 284.58 32.452C284.804 32.836 284.916 33.292 284.916 33.82C284.916 34.34 284.804 34.796 284.58 35.188C284.364 35.572 284.056 35.872 283.656 36.088C283.256 36.296 282.784 36.4 282.24 36.4H280.5V40H279.42ZM280.5 35.428H282.24C282.712 35.428 283.088 35.284 283.368 34.996C283.656 34.7 283.8 34.308 283.8 33.82C283.8 33.324 283.656 32.932 283.368 32.644C283.088 32.356 282.712 32.212 282.24 32.212H280.5V35.428ZM288.536 40.12C287.84 40.12 287.292 39.944 286.892 39.592C286.492 39.232 286.292 38.748 286.292 38.14C286.292 37.524 286.492 37.04 286.892 36.688C287.292 36.336 287.832 36.16 288.512 36.16H290.552V35.5C290.552 35.092 290.428 34.78 290.18 34.564C289.94 34.34 289.596 34.228 289.148 34.228C288.756 34.228 288.428 34.312 288.164 34.48C287.9 34.64 287.748 34.86 287.708 35.14H286.628C286.7 34.572 286.968 34.12 287.432 33.784C287.896 33.448 288.476 33.28 289.172 33.28C289.932 33.28 290.532 33.476 290.972 33.868C291.412 34.26 291.632 34.792 291.632 35.464V40H290.576V38.74H290.396L290.576 38.56C290.576 39.04 290.388 39.42 290.012 39.7C289.644 39.98 289.152 40.12 288.536 40.12ZM288.8 39.268C289.312 39.268 289.732 39.14 290.06 38.884C290.388 38.628 290.552 38.3 290.552 37.9V36.964H288.536C288.176 36.964 287.892 37.064 287.684 37.264C287.476 37.464 287.372 37.736 287.372 38.08C287.372 38.448 287.496 38.74 287.744 38.956C288 39.164 288.352 39.268 288.8 39.268ZM296.355 40.12C295.827 40.12 295.363 40.02 294.963 39.82C294.571 39.62 294.267 39.332 294.051 38.956C293.835 38.572 293.727 38.12 293.727 37.6V35.8C293.727 35.272 293.835 34.82 294.051 34.444C294.267 34.068 294.571 33.78 294.963 33.58C295.363 33.38 295.827 33.28 296.355 33.28C297.115 33.28 297.727 33.484 298.191 33.892C298.655 34.3 298.899 34.856 298.923 35.56H297.843C297.819 35.136 297.675 34.812 297.411 34.588C297.155 34.356 296.803 34.24 296.355 34.24C295.883 34.24 295.507 34.376 295.227 34.648C294.947 34.912 294.807 35.292 294.807 35.788V37.6C294.807 38.096 294.947 38.48 295.227 38.752C295.507 39.024 295.883 39.16 296.355 39.16C296.803 39.16 297.155 39.044 297.411 38.812C297.675 38.58 297.819 38.256 297.843 37.84H298.923C298.899 38.544 298.655 39.1 298.191 39.508C297.727 39.916 297.115 40.12 296.355 40.12ZM301.042 40V31.24H302.122V36.124H303.394L305.314 33.4H306.55L304.33 36.544L306.586 40H305.326L303.406 37.06H302.122V40H301.042ZM310.122 40.12C309.426 40.12 308.878 39.944 308.478 39.592C308.078 39.232 307.878 38.748 307.878 38.14C307.878 37.524 308.078 37.04 308.478 36.688C308.878 36.336 309.418 36.16 310.098 36.16H312.138V35.5C312.138 35.092 312.014 34.78 311.766 34.564C311.526 34.34 311.182 34.228 310.734 34.228C310.342 34.228 310.014 34.312 309.75 34.48C309.486 34.64 309.334 34.86 309.294 35.14H308.214C308.286 34.572 308.554 34.12 309.018 33.784C309.482 33.448 310.062 33.28 310.758 33.28C311.518 33.28 312.118 33.476 312.558 33.868C312.998 34.26 313.218 34.792 313.218 35.464V40H312.162V38.74H311.982L312.162 38.56C312.162 39.04 311.974 39.42 311.598 39.7C311.23 39.98 310.738 40.12 310.122 40.12ZM310.386 39.268C310.898 39.268 311.318 39.14 311.646 38.884C311.974 38.628 312.138 38.3 312.138 37.9V36.964H310.122C309.762 36.964 309.478 37.064 309.27 37.264C309.062 37.464 308.958 37.736 308.958 38.08C308.958 38.448 309.082 38.74 309.33 38.956C309.586 39.164 309.938 39.268 310.386 39.268ZM316.225 42.16V41.176H318.325C318.661 41.176 318.905 41.1 319.057 40.948C319.217 40.796 319.297 40.56 319.297 40.24V39.4L319.321 38.2H319.105L319.309 38.02C319.309 38.5 319.149 38.88 318.829 39.16C318.509 39.44 318.081 39.58 317.545 39.58C316.865 39.58 316.329 39.36 315.937 38.92C315.545 38.472 315.349 37.872 315.349 37.12V35.728C315.349 34.976 315.545 34.38 315.937 33.94C316.329 33.5 316.865 33.28 317.545 33.28C318.081 33.28 318.509 33.42 318.829 33.7C319.149 33.98 319.309 34.36 319.309 34.84L319.105 34.66H319.309V33.4H320.377V40.24C320.377 40.832 320.193 41.3 319.825 41.644C319.465 41.988 318.961 42.16 318.313 42.16H316.225ZM317.869 38.644C318.317 38.644 318.669 38.504 318.925 38.224C319.181 37.944 319.309 37.556 319.309 37.06V35.8C319.309 35.304 319.181 34.916 318.925 34.636C318.669 34.356 318.317 34.216 317.869 34.216C317.413 34.216 317.057 34.352 316.801 34.624C316.553 34.896 316.429 35.288 316.429 35.8V37.06C316.429 37.572 316.553 37.964 316.801 38.236C317.057 38.508 317.413 38.644 317.869 38.644ZM325.088 40.12C324.568 40.12 324.112 40.016 323.72 39.808C323.336 39.6 323.036 39.308 322.82 38.932C322.612 38.548 322.508 38.104 322.508 37.6V35.8C322.508 35.288 322.612 34.844 322.82 34.468C323.036 34.092 323.336 33.8 323.72 33.592C324.112 33.384 324.568 33.28 325.088 33.28C325.608 33.28 326.06 33.384 326.444 33.592C326.836 33.8 327.136 34.092 327.344 34.468C327.56 34.844 327.668 35.288 327.668 35.8V36.964H323.564V37.6C323.564 38.12 323.696 38.52 323.96 38.8C324.224 39.072 324.6 39.208 325.088 39.208C325.504 39.208 325.84 39.136 326.096 38.992C326.352 38.84 326.508 38.616 326.564 38.32H327.644C327.572 38.872 327.3 39.312 326.828 39.64C326.364 39.96 325.784 40.12 325.088 40.12ZM326.612 36.244V35.8C326.612 35.28 326.48 34.88 326.216 34.6C325.96 34.32 325.584 34.18 325.088 34.18C324.6 34.18 324.224 34.32 323.96 34.6C323.696 34.88 323.564 35.28 323.564 35.8V36.148H326.696L326.612 36.244Z" fill="black"/>
<rect x="209" y="120" width="191" height="27" rx="12" fill="url(#paint3_radial_5516_2)"/>
<path d="M294.307 139L296.587 130.24H298.039L300.307 139H299.215L298.639 136.672H295.987L295.411 139H294.307ZM296.203 135.76H298.411L297.739 133.06C297.611 132.548 297.511 132.12 297.439 131.776C297.367 131.432 297.323 131.208 297.307 131.104C297.291 131.208 297.247 131.432 297.175 131.776C297.103 132.12 297.003 132.544 296.875 133.048L296.203 135.76ZM302.006 139V130.24H304.826C305.37 130.24 305.842 130.348 306.242 130.564C306.642 130.772 306.95 131.068 307.166 131.452C307.39 131.836 307.502 132.292 307.502 132.82C307.502 133.34 307.39 133.796 307.166 134.188C306.95 134.572 306.642 134.872 306.242 135.088C305.842 135.296 305.37 135.4 304.826 135.4H303.086V139H302.006ZM303.086 134.428H304.826C305.298 134.428 305.674 134.284 305.954 133.996C306.242 133.7 306.386 133.308 306.386 132.82C306.386 132.324 306.242 131.932 305.954 131.644C305.674 131.356 305.298 131.212 304.826 131.212H303.086V134.428ZM309.358 139V138.016H311.146V131.224H309.358V130.24H314.038V131.224H312.25V138.016H314.038V139H309.358Z" fill="white"/>
<rect x="208" y="56" width="191" height="27" rx="12" fill="url(#paint4_radial_5516_2)"/>
<path d="M293.307 75L295.587 66.24H297.039L299.307 75H298.215L297.639 72.672H294.987L294.411 75H293.307ZM295.203 71.76H297.411L296.739 69.06C296.611 68.548 296.511 68.12 296.439 67.776C296.367 67.432 296.323 67.208 296.307 67.104C296.291 67.208 296.247 67.432 296.175 67.776C296.103 68.12 296.003 68.544 295.875 69.048L295.203 71.76ZM301.006 75V66.24H303.826C304.37 66.24 304.842 66.348 305.242 66.564C305.642 66.772 305.95 67.068 306.166 67.452C306.39 67.836 306.502 68.292 306.502 68.82C306.502 69.34 306.39 69.796 306.166 70.188C305.95 70.572 305.642 70.872 305.242 71.088C304.842 71.296 304.37 71.4 303.826 71.4H302.086V75H301.006ZM302.086 70.428H303.826C304.298 70.428 304.674 70.284 304.954 69.996C305.242 69.7 305.386 69.308 305.386 68.82C305.386 68.324 305.242 67.932 304.954 67.644C304.674 67.356 304.298 67.212 303.826 67.212H302.086V70.428ZM308.358 75V74.016H310.146V67.224H308.358V66.24H313.038V67.224H311.25V74.016H313.038V75H308.358Z" fill="white"/>
<rect x="208" y="88" width="191" height="27" rx="12" fill="url(#paint5_radial_5516_2)"/>
<path d="M293.307 107L295.587 98.24H297.039L299.307 107H298.215L297.639 104.672H294.987L294.411 107H293.307ZM295.203 103.76H297.411L296.739 101.06C296.611 100.548 296.511 100.12 296.439 99.776C296.367 99.432 296.323 99.208 296.307 99.104C296.291 99.208 296.247 99.432 296.175 99.776C296.103 100.12 296.003 100.544 295.875 101.048L295.203 103.76ZM301.006 107V98.24H303.826C304.37 98.24 304.842 98.348 305.242 98.564C305.642 98.772 305.95 99.068 306.166 99.452C306.39 99.836 306.502 100.292 306.502 100.82C306.502 101.34 306.39 101.796 306.166 102.188C305.95 102.572 305.642 102.872 305.242 103.088C304.842 103.296 304.37 103.4 303.826 103.4H302.086V107H301.006ZM302.086 102.428H303.826C304.298 102.428 304.674 102.284 304.954 101.996C305.242 101.7 305.386 101.308 305.386 100.82C305.386 100.324 305.242 99.932 304.954 99.644C304.674 99.356 304.298 99.212 303.826 99.212H302.086V102.428ZM308.358 107V106.016H310.146V99.224H308.358V98.24H313.038V99.224H311.25V106.016H313.038V107H308.358Z" fill="white"/>
<rect x="205" y="16" width="197" height="174" rx="12" fill="#F2F2F2"/>
<path d="M279.42 40V31.24H282.24C282.784 31.24 283.256 31.348 283.656 31.564C284.056 31.772 284.364 32.068 284.58 32.452C284.804 32.836 284.916 33.292 284.916 33.82C284.916 34.34 284.804 34.796 284.58 35.188C284.364 35.572 284.056 35.872 283.656 36.088C283.256 36.296 282.784 36.4 282.24 36.4H280.5V40H279.42ZM280.5 35.428H282.24C282.712 35.428 283.088 35.284 283.368 34.996C283.656 34.7 283.8 34.308 283.8 33.82C283.8 33.324 283.656 32.932 283.368 32.644C283.088 32.356 282.712 32.212 282.24 32.212H280.5V35.428ZM288.536 40.12C287.84 40.12 287.292 39.944 286.892 39.592C286.492 39.232 286.292 38.748 286.292 38.14C286.292 37.524 286.492 37.04 286.892 36.688C287.292 36.336 287.832 36.16 288.512 36.16H290.552V35.5C290.552 35.092 290.428 34.78 290.18 34.564C289.94 34.34 289.596 34.228 289.148 34.228C288.756 34.228 288.428 34.312 288.164 34.48C287.9 34.64 287.748 34.86 287.708 35.14H286.628C286.7 34.572 286.968 34.12 287.432 33.784C287.896 33.448 288.476 33.28 289.172 33.28C289.932 33.28 290.532 33.476 290.972 33.868C291.412 34.26 291.632 34.792 291.632 35.464V40H290.576V38.74H290.396L290.576 38.56C290.576 39.04 290.388 39.42 290.012 39.7C289.644 39.98 289.152 40.12 288.536 40.12ZM288.8 39.268C289.312 39.268 289.732 39.14 290.06 38.884C290.388 38.628 290.552 38.3 290.552 37.9V36.964H288.536C288.176 36.964 287.892 37.064 287.684 37.264C287.476 37.464 287.372 37.736 287.372 38.08C287.372 38.448 287.496 38.74 287.744 38.956C288 39.164 288.352 39.268 288.8 39.268ZM296.355 40.12C295.827 40.12 295.363 40.02 294.963 39.82C294.571 39.62 294.267 39.332 294.051 38.956C293.835 38.572 293.727 38.12 293.727 37.6V35.8C293.727 35.272 293.835 34.82 294.051 34.444C294.267 34.068 294.571 33.78 294.963 33.58C295.363 33.38 295.827 33.28 296.355 33.28C297.115 33.28 297.727 33.484 298.191 33.892C298.655 34.3 298.899 34.856 298.923 35.56H297.843C297.819 35.136 297.675 34.812 297.411 34.588C297.155 34.356 296.803 34.24 296.355 34.24C295.883 34.24 295.507 34.376 295.227 34.648C294.947 34.912 294.807 35.292 294.807 35.788V37.6C294.807 38.096 294.947 38.48 295.227 38.752C295.507 39.024 295.883 39.16 296.355 39.16C296.803 39.16 297.155 39.044 297.411 38.812C297.675 38.58 297.819 38.256 297.843 37.84H298.923C298.899 38.544 298.655 39.1 298.191 39.508C297.727 39.916 297.115 40.12 296.355 40.12ZM301.042 40V31.24H302.122V36.124H303.394L305.314 33.4H306.55L304.33 36.544L306.586 40H305.326L303.406 37.06H302.122V40H301.042ZM310.122 40.12C309.426 40.12 308.878 39.944 308.478 39.592C308.078 39.232 307.878 38.748 307.878 38.14C307.878 37.524 308.078 37.04 308.478 36.688C308.878 36.336 309.418 36.16 310.098 36.16H312.138V35.5C312.138 35.092 312.014 34.78 311.766 34.564C311.526 34.34 311.182 34.228 310.734 34.228C310.342 34.228 310.014 34.312 309.75 34.48C309.486 34.64 309.334 34.86 309.294 35.14H308.214C308.286 34.572 308.554 34.12 309.018 33.784C309.482 33.448 310.062 33.28 310.758 33.28C311.518 33.28 312.118 33.476 312.558 33.868C312.998 34.26 313.218 34.792 313.218 35.464V40H312.162V38.74H311.982L312.162 38.56C312.162 39.04 311.974 39.42 311.598 39.7C311.23 39.98 310.738 40.12 310.122 40.12ZM310.386 39.268C310.898 39.268 311.318 39.14 311.646 38.884C311.974 38.628 312.138 38.3 312.138 37.9V36.964H310.122C309.762 36.964 309.478 37.064 309.27 37.264C309.062 37.464 308.958 37.736 308.958 38.08C308.958 38.448 309.082 38.74 309.33 38.956C309.586 39.164 309.938 39.268 310.386 39.268ZM316.225 42.16V41.176H318.325C318.661 41.176 318.905 41.1 319.057 40.948C319.217 40.796 319.297 40.56 319.297 40.24V39.4L319.321 38.2H319.105L319.309 38.02C319.309 38.5 319.149 38.88 318.829 39.16C318.509 39.44 318.081 39.58 317.545 39.58C316.865 39.58 316.329 39.36 315.937 38.92C315.545 38.472 315.349 37.872 315.349 37.12V35.728C315.349 34.976 315.545 34.38 315.937 33.94C316.329 33.5 316.865 33.28 317.545 33.28C318.081 33.28 318.509 33.42 318.829 33.7C319.149 33.98 319.309 34.36 319.309 34.84L319.105 34.66H319.309V33.4H320.377V40.24C320.377 40.832 320.193 41.3 319.825 41.644C319.465 41.988 318.961 42.16 318.313 42.16H316.225ZM317.869 38.644C318.317 38.644 318.669 38.504 318.925 38.224C319.181 37.944 319.309 37.556 319.309 37.06V35.8C319.309 35.304 319.181 34.916 318.925 34.636C318.669 34.356 318.317 34.216 317.869 34.216C317.413 34.216 317.057 34.352 316.801 34.624C316.553 34.896 316.429 35.288 316.429 35.8V37.06C316.429 37.572 316.553 37.964 316.801 38.236C317.057 38.508 317.413 38.644 317.869 38.644ZM325.088 40.12C324.568 40.12 324.112 40.016 323.72 39.808C323.336 39.6 323.036 39.308 322.82 38.932C322.612 38.548 322.508 38.104 322.508 37.6V35.8C322.508 35.288 322.612 34.844 322.82 34.468C323.036 34.092 323.336 33.8 323.72 33.592C324.112 33.384 324.568 33.28 325.088 33.28C325.608 33.28 326.06 33.384 326.444 33.592C326.836 33.8 327.136 34.092 327.344 34.468C327.56 34.844 327.668 35.288 327.668 35.8V36.964H323.564V37.6C323.564 38.12 323.696 38.52 323.96 38.8C324.224 39.072 324.6 39.208 325.088 39.208C325.504 39.208 325.84 39.136 326.096 38.992C326.352 38.84 326.508 38.616 326.564 38.32H327.644C327.572 38.872 327.3 39.312 326.828 39.64C326.364 39.96 325.784 40.12 325.088 40.12ZM326.612 36.244V35.8C326.612 35.28 326.48 34.88 326.216 34.6C325.96 34.32 325.584 34.18 325.088 34.18C324.6 34.18 324.224 34.32 323.96 34.6C323.696 34.88 323.564 35.28 323.564 35.8V36.148H326.696L326.612 36.244Z" fill="black"/>
<rect x="209" y="120" width="87" height="27" rx="12" fill="url(#paint6_radial_5516_2)"/>
<path d="M242.307 139L244.587 130.24H246.039L248.307 139H247.215L246.639 136.672H243.987L243.411 139H242.307ZM244.203 135.76H246.411L245.739 133.06C245.611 132.548 245.511 132.12 245.439 131.776C245.367 131.432 245.323 131.208 245.307 131.104C245.291 131.208 245.247 131.432 245.175 131.776C245.103 132.12 245.003 132.544 244.875 133.048L244.203 135.76ZM250.006 139V130.24H252.826C253.37 130.24 253.842 130.348 254.242 130.564C254.642 130.772 254.95 131.068 255.166 131.452C255.39 131.836 255.502 132.292 255.502 132.82C255.502 133.34 255.39 133.796 255.166 134.188C254.95 134.572 254.642 134.872 254.242 135.088C253.842 135.296 253.37 135.4 252.826 135.4H251.086V139H250.006ZM251.086 134.428H252.826C253.298 134.428 253.674 134.284 253.954 133.996C254.242 133.7 254.386 133.308 254.386 132.82C254.386 132.324 254.242 131.932 253.954 131.644C253.674 131.356 253.298 131.212 252.826 131.212H251.086V134.428ZM257.358 139V138.016H259.146V131.224H257.358V130.24H262.038V131.224H260.25V138.016H262.038V139H257.358Z" fill="white"/>
<rect x="208" y="56" width="88" height="27" rx="12" fill="url(#paint7_radial_5516_2)"/>
<path d="M241.807 75L244.087 66.24H245.539L247.807 75H246.715L246.139 72.672H243.487L242.911 75H241.807ZM243.703 71.76H245.911L245.239 69.06C245.111 68.548 245.011 68.12 244.939 67.776C244.867 67.432 244.823 67.208 244.807 67.104C244.791 67.208 244.747 67.432 244.675 67.776C244.603 68.12 244.503 68.544 244.375 69.048L243.703 71.76ZM249.506 75V66.24H252.326C252.87 66.24 253.342 66.348 253.742 66.564C254.142 66.772 254.45 67.068 254.666 67.452C254.89 67.836 255.002 68.292 255.002 68.82C255.002 69.34 254.89 69.796 254.666 70.188C254.45 70.572 254.142 70.872 253.742 71.088C253.342 71.296 252.87 71.4 252.326 71.4H250.586V75H249.506ZM250.586 70.428H252.326C252.798 70.428 253.174 70.284 253.454 69.996C253.742 69.7 253.886 69.308 253.886 68.82C253.886 68.324 253.742 67.932 253.454 67.644C253.174 67.356 252.798 67.212 252.326 67.212H250.586V70.428ZM256.858 75V74.016H258.646V67.224H256.858V66.24H261.538V67.224H259.75V74.016H261.538V75H256.858Z" fill="white"/>
<rect x="208" y="88" width="88" height="27" rx="12" fill="url(#paint8_radial_5516_2)"/>
<path d="M241.807 107L244.087 98.24H245.539L247.807 107H246.715L246.139 104.672H243.487L242.911 107H241.807ZM243.703 103.76H245.911L245.239 101.06C245.111 100.548 245.011 100.12 244.939 99.776C244.867 99.432 244.823 99.208 244.807 99.104C244.791 99.208 244.747 99.432 244.675 99.776C244.603 100.12 244.503 100.544 244.375 101.048L243.703 103.76ZM249.506 107V98.24H252.326C252.87 98.24 253.342 98.348 253.742 98.564C254.142 98.772 254.45 99.068 254.666 99.452C254.89 99.836 255.002 100.292 255.002 100.82C255.002 101.34 254.89 101.796 254.666 102.188C254.45 102.572 254.142 102.872 253.742 103.088C253.342 103.296 252.87 103.4 252.326 103.4H250.586V107H249.506ZM250.586 102.428H252.326C252.798 102.428 253.174 102.284 253.454 101.996C253.742 101.7 253.886 101.308 253.886 100.82C253.886 100.324 253.742 99.932 253.454 99.644C253.174 99.356 252.798 99.212 252.326 99.212H250.586V102.428ZM256.858 107V106.016H258.646V99.224H256.858V98.24H261.538V99.224H259.75V106.016H261.538V107H256.858Z" fill="white"/>
<rect x="3" y="152" width="191" height="27" rx="12" fill="url(#paint9_radial_5516_2)"/>
<path d="M88.307 171L90.587 162.24H92.039L94.307 171H93.215L92.639 168.672H89.987L89.411 171H88.307ZM90.203 167.76H92.411L91.739 165.06C91.611 164.548 91.511 164.12 91.439 163.776C91.367 163.432 91.323 163.208 91.307 163.104C91.291 163.208 91.247 163.432 91.175 163.776C91.103 164.12 91.003 164.544 90.875 165.048L90.203 167.76ZM96.0063 171V162.24H98.8263C99.3703 162.24 99.8423 162.348 100.242 162.564C100.642 162.772 100.95 163.068 101.166 163.452C101.39 163.836 101.502 164.292 101.502 164.82C101.502 165.34 101.39 165.796 101.166 166.188C100.95 166.572 100.642 166.872 100.242 167.088C99.8423 167.296 99.3703 167.4 98.8263 167.4H97.0863V171H96.0063ZM97.0863 166.428H98.8263C99.2983 166.428 99.6743 166.284 99.9543 165.996C100.242 165.7 100.386 165.308 100.386 164.82C100.386 164.324 100.242 163.932 99.9543 163.644C99.6743 163.356 99.2983 163.212 98.8263 163.212H97.0863V166.428ZM103.358 171V170.016H105.146V163.224H103.358V162.24H108.038V163.224H106.25V170.016H108.038V171H103.358Z" fill="white"/>
<rect x="302" y="56" width="97" height="91" rx="12" fill="#585858"/>
<path d="M332.514 75.7831C331.986 75.7831 331.53 75.6831 331.146 75.4831C330.77 75.2831 330.478 74.9951 330.27 74.6191C330.07 74.2351 329.97 73.7831 329.97 73.2631V69.3031C329.97 68.7751 330.07 68.3231 330.27 67.9471C330.478 67.5711 330.77 67.2831 331.146 67.0831C331.53 66.8831 331.986 66.7831 332.514 66.7831C333.042 66.7831 333.494 66.8831 333.87 67.0831C334.254 67.2831 334.546 67.5711 334.746 67.9471C334.954 68.3231 335.058 68.7711 335.058 69.2911V73.2631C335.058 73.7831 334.954 74.2351 334.746 74.6191C334.546 74.9951 334.254 75.2831 333.87 75.4831C333.494 75.6831 333.042 75.7831 332.514 75.7831ZM332.514 74.8111C332.986 74.8111 333.346 74.6791 333.594 74.4151C333.85 74.1431 333.978 73.7591 333.978 73.2631V69.3031C333.978 68.8071 333.85 68.4271 333.594 68.1631C333.346 67.8911 332.986 67.7551 332.514 67.7551C332.05 67.7551 331.69 67.8911 331.434 68.1631C331.178 68.4271 331.05 68.8071 331.05 69.3031V73.2631C331.05 73.7591 331.178 74.1431 331.434 74.4151C331.69 74.6791 332.05 74.8111 332.514 74.8111ZM340.093 75.7831C339.549 75.7831 339.113 75.6391 338.785 75.3511C338.457 75.0551 338.293 74.6551 338.293 74.1511L338.509 74.4031H338.293V75.6631H337.213V66.9031H338.293V68.8231L338.269 70.3231H338.509L338.293 70.5751C338.293 70.0791 338.457 69.6831 338.785 69.3871C339.121 69.0911 339.557 68.9431 340.093 68.9431C340.757 68.9431 341.289 69.1631 341.689 69.6031C342.089 70.0431 342.289 70.6431 342.289 71.4031V73.3351C342.289 74.0871 342.089 74.6831 341.689 75.1231C341.289 75.5631 340.757 75.7831 340.093 75.7831ZM339.733 74.8471C340.189 74.8471 340.549 74.7111 340.813 74.4391C341.077 74.1671 341.209 73.7751 341.209 73.2631V71.4631C341.209 70.9511 341.077 70.5591 340.813 70.2871C340.549 70.0151 340.189 69.8791 339.733 69.8791C339.293 69.8791 338.941 70.0191 338.677 70.2991C338.421 70.5791 338.293 70.9671 338.293 71.4631V73.2631C338.293 73.7591 338.421 74.1471 338.677 74.4271C338.941 74.7071 339.293 74.8471 339.733 74.8471ZM344.325 77.8231V76.8271H345.873C346.369 76.8271 346.753 76.6911 347.025 76.4191C347.305 76.1551 347.445 75.7791 347.445 75.2911V70.0471H344.685V69.0631H348.525V75.2911C348.525 76.0671 348.285 76.6831 347.805 77.1391C347.325 77.5951 346.681 77.8231 345.873 77.8231H344.325ZM347.925 67.8751C347.661 67.8751 347.453 67.8071 347.301 67.6711C347.149 67.5351 347.073 67.3511 347.073 67.1191C347.073 66.8791 347.149 66.6911 347.301 66.5551C347.453 66.4111 347.661 66.3391 347.925 66.3391C348.189 66.3391 348.397 66.4111 348.549 66.5551C348.701 66.6911 348.777 66.8791 348.777 67.1191C348.777 67.3511 348.701 67.5351 348.549 67.6711C348.397 67.8071 348.189 67.8751 347.925 67.8751ZM354.1 75.7831C353.58 75.7831 353.124 75.6791 352.732 75.4711C352.348 75.2631 352.048 74.9711 351.832 74.5951C351.624 74.2111 351.52 73.7671 351.52 73.2631V71.4631C351.52 70.9511 351.624 70.5071 351.832 70.1311C352.048 69.7551 352.348 69.4631 352.732 69.2551C353.124 69.0471 353.58 68.9431 354.1 68.9431C354.62 68.9431 355.072 69.0471 355.456 69.2551C355.848 69.4631 356.148 69.7551 356.356 70.1311C356.572 70.5071 356.68 70.9511 356.68 71.4631V72.6271H352.576V73.2631C352.576 73.7831 352.708 74.1831 352.972 74.4631C353.236 74.7351 353.612 74.8711 354.1 74.8711C354.516 74.8711 354.852 74.7991 355.108 74.6551C355.364 74.5031 355.52 74.2791 355.576 73.9831H356.656C356.584 74.5351 356.312 74.9751 355.84 75.3031C355.376 75.6231 354.796 75.7831 354.1 75.7831ZM355.624 71.9071V71.4631C355.624 70.9431 355.492 70.5431 355.228 70.2631C354.972 69.9831 354.596 69.8431 354.1 69.8431C353.612 69.8431 353.236 69.9831 352.972 70.2631C352.708 70.5431 352.576 70.9431 352.576 71.4631V71.8111H355.708L355.624 71.9071ZM361.343 75.7831C360.815 75.7831 360.351 75.6831 359.951 75.4831C359.559 75.2831 359.255 74.9951 359.039 74.6191C358.823 74.2351 358.715 73.7831 358.715 73.2631V71.4631C358.715 70.9351 358.823 70.4831 359.039 70.1071C359.255 69.7311 359.559 69.4431 359.951 69.2431C360.351 69.0431 360.815 68.9431 361.343 68.9431C362.103 68.9431 362.715 69.1471 363.179 69.5551C363.643 69.9631 363.887 70.5191 363.911 71.2231H362.831C362.807 70.7991 362.663 70.4751 362.399 70.2511C362.143 70.0191 361.791 69.9031 361.343 69.9031C360.871 69.9031 360.495 70.0391 360.215 70.3111C359.935 70.5751 359.795 70.9551 359.795 71.4511V73.2631C359.795 73.7591 359.935 74.1431 360.215 74.4151C360.495 74.6871 360.871 74.8231 361.343 74.8231C361.791 74.8231 362.143 74.7071 362.399 74.4751C362.663 74.2431 362.807 73.9191 362.831 73.5031H363.911C363.887 74.2071 363.643 74.7631 363.179 75.1711C362.715 75.5791 362.103 75.7831 361.343 75.7831ZM369.211 75.6631C368.643 75.6631 368.199 75.5111 367.879 75.2071C367.567 74.9031 367.411 74.4751 367.411 73.9231V70.0471H365.551V69.0631H367.411V67.2031H368.491V69.0631H371.131V70.0471H368.491V73.9231C368.491 74.4271 368.731 74.6791 369.211 74.6791H371.011V75.6631H369.211Z" fill="white"/>
<rect x="307" y="85" width="88" height="27" rx="12" fill="url(#paint10_radial_5516_2)"/>
<path d="M340.807 104L343.087 95.24H344.539L346.807 104H345.715L345.139 101.672H342.487L341.911 104H340.807ZM342.703 100.76H344.911L344.239 98.06C344.111 97.548 344.011 97.12 343.939 96.776C343.867 96.432 343.823 96.208 343.807 96.104C343.791 96.208 343.747 96.432 343.675 96.776C343.603 97.12 343.503 97.544 343.375 98.048L342.703 100.76ZM348.506 104V95.24H351.326C351.87 95.24 352.342 95.348 352.742 95.564C353.142 95.772 353.45 96.068 353.666 96.452C353.89 96.836 354.002 97.292 354.002 97.82C354.002 98.34 353.89 98.796 353.666 99.188C353.45 99.572 353.142 99.872 352.742 100.088C352.342 100.296 351.87 100.4 351.326 100.4H349.586V104H348.506ZM349.586 99.428H351.326C351.798 99.428 352.174 99.284 352.454 98.996C352.742 98.7 352.886 98.308 352.886 97.82C352.886 97.324 352.742 96.932 352.454 96.644C352.174 96.356 351.798 96.212 351.326 96.212H349.586V99.428ZM355.858 104V103.016H357.646V96.224H355.858V95.24H360.538V96.224H358.75V103.016H360.538V104H355.858Z" fill="white"/>
<defs>
<radialGradient id="paint0_radial_5516_2" cx="0" cy="0" r="1" gradientUnits="userSpaceOnUse" gradientTransform="translate(3.46544 147.407) scale(186.189 99.9303)">
<stop stop-color="#EB4857"/>
<stop offset="0.5" stop-color="#C611E0"/>
<stop offset="1" stop-color="#7F52FF"/>
</radialGradient>
<radialGradient id="paint1_radial_5516_2" cx="0" cy="0" r="1" gradientUnits="userSpaceOnUse" gradientTransform="translate(2.46544 83.4069) scale(186.189 99.9303)">
<stop stop-color="#EB4857"/>
<stop offset="0.5" stop-color="#C611E0"/>
<stop offset="1" stop-color="#7F52FF"/>
</radialGradient>
<radialGradient id="paint2_radial_5516_2" cx="0" cy="0" r="1" gradientUnits="userSpaceOnUse" gradientTransform="translate(2.46544 115.407) scale(186.189 99.9303)">
<stop stop-color="#EB4857"/>
<stop offset="0.5" stop-color="#C611E0"/>
<stop offset="1" stop-color="#7F52FF"/>
</radialGradient>
<radialGradient id="paint3_radial_5516_2" cx="0" cy="0" r="1" gradientUnits="userSpaceOnUse" gradientTransform="translate(208.465 147.407) scale(186.189 99.9303)">
<stop stop-color="#EB4857"/>
<stop offset="0.5" stop-color="#C611E0"/>
<stop offset="1" stop-color="#7F52FF"/>
</radialGradient>
<radialGradient id="paint4_radial_5516_2" cx="0" cy="0" r="1" gradientUnits="userSpaceOnUse" gradientTransform="translate(207.465 83.4069) scale(186.189 99.9303)">
<stop stop-color="#EB4857"/>
<stop offset="0.5" stop-color="#C611E0"/>
<stop offset="1" stop-color="#7F52FF"/>
</radialGradient>
<radialGradient id="paint5_radial_5516_2" cx="0" cy="0" r="1" gradientUnits="userSpaceOnUse" gradientTransform="translate(207.465 115.407) scale(186.189 99.9303)">
<stop stop-color="#EB4857"/>
<stop offset="0.5" stop-color="#C611E0"/>
<stop offset="1" stop-color="#7F52FF"/>
</radialGradient>
<radialGradient id="paint6_radial_5516_2" cx="0" cy="0" r="1" gradientUnits="userSpaceOnUse" gradientTransform="translate(208.757 147.407) scale(84.8086 99.9303)">
<stop stop-color="#EB4857"/>
<stop offset="0.5" stop-color="#C611E0"/>
<stop offset="1" stop-color="#7F52FF"/>
</radialGradient>
<radialGradient id="paint7_radial_5516_2" cx="0" cy="0" r="1" gradientUnits="userSpaceOnUse" gradientTransform="translate(207.754 83.4069) scale(85.7834 99.9303)">
<stop stop-color="#EB4857"/>
<stop offset="0.5" stop-color="#C611E0"/>
<stop offset="1" stop-color="#7F52FF"/>
</radialGradient>
<radialGradient id="paint8_radial_5516_2" cx="0" cy="0" r="1" gradientUnits="userSpaceOnUse" gradientTransform="translate(207.754 115.407) scale(85.7834 99.9303)">
<stop stop-color="#EB4857"/>
<stop offset="0.5" stop-color="#C611E0"/>
<stop offset="1" stop-color="#7F52FF"/>
</radialGradient>
<radialGradient id="paint9_radial_5516_2" cx="0" cy="0" r="1" gradientUnits="userSpaceOnUse" gradientTransform="translate(2.46544 179.407) scale(186.189 99.9303)">
<stop stop-color="#EB4857"/>
<stop offset="0.5" stop-color="#C611E0"/>
<stop offset="1" stop-color="#7F52FF"/>
</radialGradient>
<radialGradient id="paint10_radial_5516_2" cx="0" cy="0" r="1" gradientUnits="userSpaceOnUse" gradientTransform="translate(306.754 112.407) scale(85.7834 99.9303)">
<stop stop-color="#EB4857"/>
<stop offset="0.5" stop-color="#C611E0"/>
<stop offset="1" stop-color="#7F52FF"/>
</radialGradient>
</defs>
</svg>
