<svg width="218" height="36" viewBox="0 0 218 36" fill="none" xmlns="http://www.w3.org/2000/svg">
<rect width="218" height="36" rx="18" fill="black"/>
<path d="M54.2465 7.1C55.3535 7.1 56.339 7.3115 57.203 7.7345C58.076 8.1575 58.7555 8.7425 59.2415 9.4895C59.7275 10.2365 59.9705 11.0825 59.9705 12.0275C59.9705 13.0445 59.696 13.913 59.147 14.633C58.607 15.353 57.8645 15.8525 56.9195 16.1315C57.9995 16.4195 58.859 16.982 59.498 17.819C60.137 18.647 60.4565 19.628 60.4565 20.762C60.4565 21.77 60.2 22.6745 59.687 23.4755C59.174 24.2675 58.4585 24.8885 57.5405 25.3385C56.6225 25.7795 55.5785 26 54.4085 26H46.6055V7.1H54.2465ZM48.806 23.975H54.4085C55.1375 23.975 55.7855 23.84 56.3525 23.57C56.9195 23.291 57.356 22.904 57.662 22.409C57.977 21.905 58.1345 21.3245 58.1345 20.6675C58.1345 20.0195 57.977 19.439 57.662 18.926C57.347 18.413 56.906 18.017 56.339 17.738C55.781 17.45 55.1375 17.306 54.4085 17.306H48.806V23.975ZM54.2465 15.335C54.9215 15.335 55.5155 15.209 56.0285 14.957C56.5415 14.705 56.9375 14.345 57.2165 13.877C57.5045 13.409 57.6485 12.8645 57.6485 12.2435C57.6485 11.6225 57.5045 11.078 57.2165 10.61C56.9375 10.142 56.537 9.7775 56.015 9.5165C55.502 9.2555 54.9125 9.125 54.2465 9.125H48.806V15.335H54.2465ZM68.7852 26.324C67.4802 26.324 66.3012 26.0135 65.2482 25.3925C64.1952 24.7715 63.3672 23.9075 62.7642 22.8005C62.1612 21.6935 61.8597 20.447 61.8597 19.061C61.8597 17.711 62.1657 16.487 62.7777 15.389C63.3897 14.282 64.2222 13.418 65.2752 12.797C66.3372 12.167 67.5072 11.852 68.7852 11.852C70.0992 11.852 71.2647 12.158 72.2817 12.77C73.2987 13.373 74.0907 14.2235 74.6577 15.3215C75.2247 16.4195 75.5082 17.675 75.5082 19.088V19.574H64.0602C64.1322 20.546 64.3752 21.392 64.7892 22.112C65.2032 22.832 65.7522 23.39 66.4362 23.786C67.1202 24.173 67.9032 24.3665 68.7852 24.3665C69.6222 24.3665 70.3647 24.2045 71.0127 23.8805C71.6607 23.5565 72.1917 23.093 72.6057 22.49H75.0087C74.4957 23.687 73.6947 24.6275 72.6057 25.3115C71.5167 25.9865 70.2432 26.324 68.7852 26.324ZM73.2537 17.8595C73.1187 17.0405 72.8442 16.325 72.4302 15.713C72.0252 15.101 71.5077 14.6285 70.8777 14.2955C70.2567 13.9625 69.5592 13.796 68.7852 13.796C67.9662 13.796 67.2282 13.9625 66.5712 14.2955C65.9232 14.6285 65.3877 15.101 64.9647 15.713C64.5417 16.325 64.2627 17.0405 64.1277 17.8595H73.2537ZM83.467 30.644C82.45 30.644 81.5005 30.473 80.6185 30.131C79.7455 29.789 79.0075 29.3075 78.4045 28.6865C77.8105 28.0745 77.41 27.368 77.203 26.567H79.417C79.534 26.972 79.786 27.332 80.173 27.647C80.56 27.971 81.037 28.223 81.604 28.403C82.18 28.583 82.801 28.673 83.467 28.673C84.322 28.673 85.087 28.511 85.762 28.187C86.446 27.863 86.977 27.4085 87.355 26.8235C87.742 26.2385 87.9355 25.559 87.9355 24.785V23.948L87.9625 22.841C87.4315 23.606 86.743 24.2 85.897 24.623C85.06 25.037 84.1105 25.244 83.0485 25.244C81.7975 25.244 80.6905 24.9605 79.7275 24.3935C78.7645 23.8265 78.0175 23.0345 77.4865 22.0175C76.9645 21.0005 76.7035 19.844 76.7035 18.548C76.7035 17.252 76.9645 16.0955 77.4865 15.0785C78.0175 14.0615 78.7645 13.2695 79.7275 12.7025C80.6905 12.1355 81.7975 11.852 83.0485 11.852C84.1375 11.852 85.1095 12.0725 85.9645 12.5135C86.8195 12.9455 87.5125 13.562 88.0435 14.363V12.176H90.136L90.0955 24.785C90.0955 25.928 89.812 26.9405 89.245 27.8225C88.678 28.7135 87.8905 29.4065 86.8825 29.9015C85.8835 30.3965 84.745 30.644 83.467 30.644ZM83.467 23.3405C84.34 23.3405 85.114 23.1425 85.789 22.7465C86.473 22.3415 87.004 21.7745 87.382 21.0455C87.76 20.3165 87.9535 19.484 87.9625 18.548C87.9535 17.612 87.76 16.7795 87.382 16.0505C87.004 15.3215 86.473 14.759 85.789 14.363C85.114 13.958 84.34 13.7555 83.467 13.7555C82.585 13.7555 81.802 13.958 81.118 14.363C80.434 14.759 79.903 15.3215 79.525 16.0505C79.156 16.7795 78.9715 17.612 78.9715 18.548C78.9715 19.484 79.156 20.3165 79.525 21.0455C79.903 21.7745 80.434 22.3415 81.118 22.7465C81.802 23.1425 82.585 23.3405 83.467 23.3405ZM93.5549 12.176H95.7149V26H93.5549V12.176ZM93.4469 7.1H95.8229V9.557H93.4469V7.1ZM98.9022 12.176H100.981V14.417C101.449 13.589 102.07 12.9545 102.844 12.5135C103.627 12.0725 104.532 11.852 105.558 11.852C106.548 11.852 107.425 12.0635 108.19 12.4865C108.955 12.9095 109.554 13.535 109.986 14.363C110.427 15.182 110.647 16.1675 110.647 17.3195V26H108.487V17.5355C108.487 16.3385 108.177 15.407 107.556 14.741C106.935 14.075 106.08 13.742 104.991 13.742C104.217 13.742 103.533 13.913 102.939 14.255C102.345 14.597 101.881 15.0785 101.548 15.6995C101.224 16.3115 101.062 17.0135 101.062 17.8055V26H98.9022V12.176ZM113.452 12.176H115.531V14.417C115.999 13.589 116.62 12.9545 117.394 12.5135C118.177 12.0725 119.081 11.852 120.107 11.852C121.097 11.852 121.975 12.0635 122.74 12.4865C123.505 12.9095 124.103 13.535 124.535 14.363C124.976 15.182 125.197 16.1675 125.197 17.3195V26H123.037V17.5355C123.037 16.3385 122.726 15.407 122.105 14.741C121.484 14.075 120.629 13.742 119.54 13.742C118.766 13.742 118.082 13.913 117.488 14.255C116.894 14.597 116.431 15.0785 116.098 15.6995C115.774 16.3115 115.612 17.0135 115.612 17.8055V26H113.452V12.176ZM133.833 26.324C132.528 26.324 131.349 26.0135 130.296 25.3925C129.243 24.7715 128.415 23.9075 127.812 22.8005C127.209 21.6935 126.908 20.447 126.908 19.061C126.908 17.711 127.214 16.487 127.826 15.389C128.438 14.282 129.27 13.418 130.323 12.797C131.385 12.167 132.555 11.852 133.833 11.852C135.147 11.852 136.313 12.158 137.33 12.77C138.347 13.373 139.139 14.2235 139.706 15.3215C140.273 16.4195 140.556 17.675 140.556 19.088V19.574H129.108C129.18 20.546 129.423 21.392 129.837 22.112C130.251 22.832 130.8 23.39 131.484 23.786C132.168 24.173 132.951 24.3665 133.833 24.3665C134.67 24.3665 135.413 24.2045 136.061 23.8805C136.709 23.5565 137.24 23.093 137.654 22.49H140.057C139.544 23.687 138.743 24.6275 137.654 25.3115C136.565 25.9865 135.291 26.324 133.833 26.324ZM138.302 17.8595C138.167 17.0405 137.892 16.325 137.478 15.713C137.073 15.101 136.556 14.6285 135.926 14.2955C135.305 13.9625 134.607 13.796 133.833 13.796C133.014 13.796 132.276 13.9625 131.619 14.2955C130.971 14.6285 130.436 15.101 130.013 15.713C129.59 16.325 129.311 17.0405 129.176 17.8595H138.302ZM142.656 12.176H144.816V14.471C145.257 13.688 145.828 13.0895 146.53 12.6755C147.232 12.2525 148.038 12.041 148.947 12.041H149.433V14.2955H148.866C148.047 14.2955 147.331 14.453 146.719 14.768C146.107 15.083 145.635 15.533 145.302 16.118C144.978 16.694 144.816 17.3735 144.816 18.1565V26H142.656V12.176Z" fill="white"/>
<path d="M194.5 26.011L193 24.5275L199.1 18.5934H173V16.5165H199.1L193 10.4835L194.5 9L203.1 17.5055L194.5 26.011Z" fill="white"/>
</svg>
