<svg width="217" height="36" viewBox="0 0 217 36" fill="none" xmlns="http://www.w3.org/2000/svg">
<rect width="217" height="36" rx="18" fill="black"/>
<path d="M21.6055 7.1H23.8465V26H21.6055V7.1ZM27.3799 12.176H29.4589V18.1565H28.5949C28.5949 16.8785 28.8154 15.767 29.2564 14.822C29.6974 13.868 30.3274 13.1345 31.1464 12.6215C31.9654 12.1085 32.9284 11.852 34.0354 11.852C35.0254 11.852 35.9029 12.0635 36.6679 12.4865C37.4329 12.9095 38.0314 13.535 38.4634 14.363C38.9044 15.182 39.1249 16.1675 39.1249 17.3195V26H36.9649V17.5355C36.9649 16.7345 36.8209 16.0505 36.5329 15.4835C36.2539 14.9165 35.8534 14.4845 35.3314 14.1875C34.8094 13.8905 34.1884 13.742 33.4684 13.742C32.6944 13.742 32.0104 13.913 31.4164 14.255C30.8224 14.597 30.3589 15.0785 30.0259 15.6995C29.7019 16.3115 29.5399 17.0135 29.5399 17.8055V26H27.3799V12.176ZM46.5193 26C45.8623 26 45.2638 25.8605 44.7238 25.5815C44.1928 25.2935 43.7743 24.902 43.4683 24.407C43.1623 23.903 43.0093 23.345 43.0093 22.733L42.9958 14.093H40.5658L40.5793 12.176H42.0778C42.4198 12.176 42.6943 12.068 42.9013 11.852C43.1173 11.636 43.2253 11.3615 43.2253 11.0285V8.801H45.1693V12.176H48.9088L48.8953 14.093H45.1558L45.1693 22.598C45.1693 23.021 45.3088 23.3765 45.5878 23.6645C45.8758 23.9435 46.2313 24.083 46.6543 24.083H48.8953V26H46.5193ZM56.6154 26.324C55.3104 26.324 54.1314 26.0135 53.0784 25.3925C52.0254 24.7715 51.1974 23.9075 50.5944 22.8005C49.9914 21.6935 49.6899 20.447 49.6899 19.061C49.6899 17.711 49.9959 16.487 50.6079 15.389C51.2199 14.282 52.0524 13.418 53.1054 12.797C54.1674 12.167 55.3374 11.852 56.6154 11.852C57.9294 11.852 59.0949 12.158 60.1119 12.77C61.1289 13.373 61.9209 14.2235 62.4879 15.3215C63.0549 16.4195 63.3384 17.675 63.3384 19.088V19.574H51.8364L51.8634 19.0205C51.8724 20.0915 52.0749 21.032 52.4709 21.842C52.8759 22.643 53.4339 23.264 54.1449 23.705C54.8559 24.146 55.6794 24.3665 56.6154 24.3665C57.4524 24.3665 58.1949 24.2045 58.8429 23.8805C59.4909 23.5565 60.0219 23.093 60.4359 22.49H62.8389C62.4969 23.282 62.0244 23.966 61.4214 24.542C60.8274 25.109 60.1209 25.55 59.3019 25.865C58.4829 26.171 57.5874 26.324 56.6154 26.324ZM51.8364 17.8595H61.1784V19.061C61.1784 18.026 60.9849 17.1125 60.5979 16.3205C60.2199 15.5195 59.6844 14.8985 58.9914 14.4575C58.2984 14.0165 57.5064 13.796 56.6154 13.796C55.6884 13.796 54.8649 14.012 54.1449 14.444C53.4249 14.876 52.8624 15.4835 52.4574 16.2665C52.0614 17.0495 51.8634 17.9495 51.8634 18.9665L51.8364 17.8595ZM65.4383 12.176H67.5983V16.8065L66.6938 18.1565C66.7298 16.9145 66.9548 15.8345 67.3688 14.9165C67.7918 13.9895 68.3768 13.2785 69.1238 12.7835C69.8708 12.2885 70.7393 12.041 71.7293 12.041H72.2153V14.2955H71.6483C70.8293 14.2955 70.1138 14.453 69.5018 14.768C68.8898 15.083 68.4173 15.533 68.0843 16.118C67.7603 16.694 67.5983 17.3735 67.5983 18.1565V26H65.4383V12.176ZM73.7651 12.176H75.8441V18.1565H75.1151C75.1151 16.8605 75.3131 15.74 75.7091 14.795C76.1141 13.85 76.6946 13.1255 77.4506 12.6215C78.2066 12.1085 79.1066 11.852 80.1506 11.852C81.1316 11.852 81.9911 12.077 82.7291 12.527C83.4671 12.968 84.0386 13.598 84.4436 14.417C84.8486 15.236 85.0511 16.19 85.0511 17.279V26H82.8911V17.3735C82.8911 16.6175 82.7606 15.965 82.4996 15.416C82.2476 14.858 81.8741 14.4305 81.3791 14.1335C80.8931 13.8365 80.3081 13.688 79.6241 13.688C78.8771 13.688 78.2246 13.8545 77.6666 14.1875C77.1086 14.5205 76.6766 14.9975 76.3706 15.6185C76.0736 16.2395 75.9251 16.9685 75.9251 17.8055V26H73.7651V12.176ZM92.0171 17.3735C92.0171 16.6175 91.8866 15.965 91.6256 15.416C91.3736 14.858 91.0046 14.4305 90.5186 14.1335C90.0326 13.8365 89.4431 13.688 88.7501 13.688C88.0121 13.688 87.3641 13.859 86.8061 14.201C86.2481 14.534 85.8161 15.011 85.5101 15.632C85.2041 16.244 85.0511 16.9685 85.0511 17.8055L83.8361 18.1565C83.8361 16.9145 84.0521 15.8165 84.4841 14.8625C84.9161 13.9085 85.5326 13.1705 86.3336 12.6485C87.1436 12.1175 88.0841 11.852 89.1551 11.852C90.1361 11.852 91.0046 12.077 91.7606 12.527C92.5256 12.968 93.1196 13.598 93.5426 14.417C93.9656 15.236 94.1771 16.19 94.1771 17.279V26H92.0171V17.3735ZM102.795 26.324C101.49 26.324 100.311 26.0135 99.2579 25.3925C98.2049 24.7715 97.3769 23.9075 96.7739 22.8005C96.1709 21.6935 95.8694 20.447 95.8694 19.061C95.8694 17.711 96.1754 16.487 96.7874 15.389C97.3994 14.282 98.2319 13.418 99.2849 12.797C100.347 12.167 101.517 11.852 102.795 11.852C104.109 11.852 105.274 12.158 106.291 12.77C107.308 13.373 108.1 14.2235 108.667 15.3215C109.234 16.4195 109.518 17.675 109.518 19.088V19.574H98.0159L98.0429 19.0205C98.0519 20.0915 98.2544 21.032 98.6504 21.842C99.0554 22.643 99.6134 23.264 100.324 23.705C101.035 24.146 101.859 24.3665 102.795 24.3665C103.632 24.3665 104.374 24.2045 105.022 23.8805C105.67 23.5565 106.201 23.093 106.615 22.49H109.018C108.676 23.282 108.204 23.966 107.601 24.542C107.007 25.109 106.3 25.55 105.481 25.865C104.662 26.171 103.767 26.324 102.795 26.324ZM98.0159 17.8595H107.358V19.061C107.358 18.026 107.164 17.1125 106.777 16.3205C106.399 15.5195 105.864 14.8985 105.171 14.4575C104.478 14.0165 103.686 13.796 102.795 13.796C101.868 13.796 101.044 14.012 100.324 14.444C99.6044 14.876 99.0419 15.4835 98.6369 16.2665C98.2409 17.0495 98.0429 17.9495 98.0429 18.9665L98.0159 17.8595ZM122.242 7.1H124.402V26H122.242V7.1ZM117.153 26.324C115.866 26.324 114.718 26.0225 113.71 25.4195C112.711 24.8075 111.928 23.9525 111.361 22.8545C110.803 21.7565 110.524 20.501 110.524 19.088C110.524 17.675 110.803 16.4195 111.361 15.3215C111.928 14.2235 112.711 13.373 113.71 12.77C114.718 12.158 115.866 11.852 117.153 11.852C118.341 11.852 119.389 12.1175 120.298 12.6485C121.207 13.1705 121.914 13.9085 122.418 14.8625C122.931 15.8075 123.196 16.9055 123.214 18.1565H122.323V20.0195H123.214C123.196 21.2705 122.931 22.373 122.418 23.327C121.914 24.272 121.207 25.01 120.298 25.541C119.389 26.063 118.341 26.324 117.153 26.324ZM117.49 24.3665C118.417 24.3665 119.241 24.146 119.961 23.705C120.681 23.255 121.239 22.634 121.635 21.842C122.04 21.041 122.242 20.123 122.242 19.088C122.242 18.053 122.04 17.1395 121.635 16.3475C121.239 15.5465 120.681 14.9255 119.961 14.4845C119.241 14.0345 118.417 13.8095 117.49 13.8095C116.572 13.8095 115.758 14.0345 115.047 14.4845C114.336 14.9255 113.782 15.5465 113.386 16.3475C112.99 17.1395 112.792 18.053 112.792 19.088C112.792 20.123 112.99 21.041 113.386 21.842C113.782 22.634 114.336 23.255 115.047 23.705C115.758 24.146 116.572 24.3665 117.49 24.3665ZM127.591 12.176H129.751V26H127.591V12.176ZM127.483 7.1H129.859V9.557H127.483V7.1ZM137.812 11.852C138.883 11.852 139.805 12.05 140.579 12.446C141.362 12.833 141.961 13.391 142.375 14.12C142.798 14.849 143.009 15.713 143.009 16.712V26H140.876V20.8295H141.686C141.686 21.9275 141.47 22.895 141.038 23.732C140.615 24.56 140.012 25.199 139.229 25.649C138.446 26.099 137.537 26.324 136.502 26.324C135.62 26.324 134.824 26.153 134.113 25.811C133.411 25.469 132.862 24.9965 132.466 24.3935C132.07 23.7905 131.872 23.111 131.872 22.355C131.872 21.626 132.061 20.951 132.439 20.33C132.817 19.709 133.339 19.2005 134.005 18.8045C134.671 18.4085 135.422 18.1655 136.259 18.0755L139.877 17.6705C140.183 17.6345 140.426 17.513 140.606 17.306C140.786 17.09 140.894 16.7705 140.93 16.3475L141.011 19.1825L136.57 19.6685C136.093 19.7225 135.665 19.871 135.287 20.114C134.918 20.348 134.63 20.654 134.423 21.032C134.216 21.401 134.113 21.806 134.113 22.247C134.113 22.697 134.234 23.0975 134.477 23.4485C134.72 23.7905 135.058 24.056 135.49 24.245C135.931 24.434 136.435 24.5285 137.002 24.5285C137.749 24.5285 138.415 24.3755 139 24.0695C139.585 23.7545 140.039 23.318 140.363 22.76C140.687 22.202 140.849 21.5585 140.849 20.8295V16.442C140.849 15.893 140.723 15.416 140.471 15.011C140.228 14.606 139.877 14.2955 139.418 14.0795C138.959 13.8545 138.424 13.742 137.812 13.742C137.191 13.742 136.642 13.841 136.165 14.039C135.697 14.228 135.323 14.4845 135.044 14.8085C134.765 15.1325 134.59 15.479 134.518 15.848H132.358C132.475 15.101 132.772 14.426 133.249 13.823C133.735 13.211 134.369 12.7295 135.152 12.3785C135.935 12.0275 136.822 11.852 137.812 11.852ZM150.39 26C149.733 26 149.135 25.8605 148.595 25.5815C148.064 25.2935 147.645 24.902 147.339 24.407C147.033 23.903 146.88 23.345 146.88 22.733L146.867 14.093H144.437L144.45 12.176H145.949C146.291 12.176 146.565 12.068 146.772 11.852C146.988 11.636 147.096 11.3615 147.096 11.0285V8.801H149.04V12.176H152.78L152.766 14.093H149.027L149.04 22.598C149.04 23.021 149.18 23.3765 149.459 23.6645C149.747 23.9435 150.102 24.083 150.525 24.083H152.766V26H150.39ZM160.486 26.324C159.181 26.324 158.002 26.0135 156.949 25.3925C155.896 24.7715 155.068 23.9075 154.465 22.8005C153.862 21.6935 153.561 20.447 153.561 19.061C153.561 17.711 153.867 16.487 154.479 15.389C155.091 14.282 155.923 13.418 156.976 12.797C158.038 12.167 159.208 11.852 160.486 11.852C161.8 11.852 162.966 12.158 163.983 12.77C165 13.373 165.792 14.2235 166.359 15.3215C166.926 16.4195 167.209 17.675 167.209 19.088V19.574H155.707L155.734 19.0205C155.743 20.0915 155.946 21.032 156.342 21.842C156.747 22.643 157.305 23.264 158.016 23.705C158.727 24.146 159.55 24.3665 160.486 24.3665C161.323 24.3665 162.066 24.2045 162.714 23.8805C163.362 23.5565 163.893 23.093 164.307 22.49H166.71C166.368 23.282 165.895 23.966 165.292 24.542C164.698 25.109 163.992 25.55 163.173 25.865C162.354 26.171 161.458 26.324 160.486 26.324ZM155.707 17.8595H165.049V19.061C165.049 18.026 164.856 17.1125 164.469 16.3205C164.091 15.5195 163.555 14.8985 162.862 14.4575C162.169 14.0165 161.377 13.796 160.486 13.796C159.559 13.796 158.736 14.012 158.016 14.444C157.296 14.876 156.733 15.4835 156.328 16.2665C155.932 17.0495 155.734 17.9495 155.734 18.9665L155.707 17.8595Z" fill="white"/>
<path d="M193.5 26.011L192 24.5275L198.1 18.5934H172V16.5165H198.1L192 10.4835L193.5 9L202.1 17.5055L193.5 26.011Z" fill="white"/>
</svg>
