<svg width="330" height="36" viewBox="0 0 330 36" fill="none" xmlns="http://www.w3.org/2000/svg">
<g clip-path="url(#clip0_8563_215)">
<rect width="330" height="36" rx="18" fill="black"/>
<path d="M25.7465 7.1C26.8535 7.1 27.839 7.3115 28.703 7.7345C29.576 8.1575 30.2555 8.7425 30.7415 9.4895C31.2275 10.2365 31.4705 11.0825 31.4705 12.0275C31.4705 12.8825 31.2725 13.6385 30.8765 14.2955C30.4895 14.9435 29.9405 15.4475 29.2295 15.8075C28.5275 16.1675 27.7175 16.3475 26.7995 16.3475V15.9155C27.7985 15.9155 28.6895 16.1225 29.4725 16.5365C30.2555 16.9505 30.863 17.5265 31.295 18.2645C31.736 19.0025 31.9565 19.835 31.9565 20.762C31.9565 21.77 31.7 22.6745 31.187 23.4755C30.674 24.2675 29.9585 24.8885 29.0405 25.3385C28.1225 25.7795 27.0785 26 25.9085 26H18.1055V7.1H25.7465ZM20.306 23.975H25.9085C26.6375 23.975 27.2855 23.84 27.8525 23.57C28.4195 23.291 28.856 22.904 29.162 22.409C29.477 21.905 29.6345 21.3245 29.6345 20.6675C29.6345 20.0195 29.477 19.439 29.162 18.926C28.847 18.413 28.406 18.017 27.839 17.738C27.281 17.45 26.6375 17.306 25.9085 17.306H20.306V23.975ZM25.7465 15.335C26.4215 15.335 27.0155 15.209 27.5285 14.957C28.0415 14.705 28.4375 14.345 28.7165 13.877C29.0045 13.409 29.1485 12.8645 29.1485 12.2435C29.1485 11.6225 29.0045 11.078 28.7165 10.61C28.4375 10.142 28.037 9.7775 27.515 9.5165C27.002 9.2555 26.4125 9.125 25.7465 9.125H20.306V15.335H25.7465ZM40.2852 26.324C38.9802 26.324 37.8012 26.0135 36.7482 25.3925C35.6952 24.7715 34.8672 23.9075 34.2642 22.8005C33.6612 21.6935 33.3597 20.447 33.3597 19.061C33.3597 17.711 33.6657 16.487 34.2777 15.389C34.8897 14.282 35.7222 13.418 36.7752 12.797C37.8372 12.167 39.0072 11.852 40.2852 11.852C41.5992 11.852 42.7647 12.158 43.7817 12.77C44.7987 13.373 45.5907 14.2235 46.1577 15.3215C46.7247 16.4195 47.0082 17.675 47.0082 19.088V19.574H35.5062L35.5332 19.0205C35.5422 20.0915 35.7447 21.032 36.1407 21.842C36.5457 22.643 37.1037 23.264 37.8147 23.705C38.5257 24.146 39.3492 24.3665 40.2852 24.3665C41.1222 24.3665 41.8647 24.2045 42.5127 23.8805C43.1607 23.5565 43.6917 23.093 44.1057 22.49H46.5087C46.1667 23.282 45.6942 23.966 45.0912 24.542C44.4972 25.109 43.7907 25.55 42.9717 25.865C42.1527 26.171 41.2572 26.324 40.2852 26.324ZM35.5062 17.8595H44.8482V19.061C44.8482 18.026 44.6547 17.1125 44.2677 16.3205C43.8897 15.5195 43.3542 14.8985 42.6612 14.4575C41.9682 14.0165 41.1762 13.796 40.2852 13.796C39.3582 13.796 38.5347 14.012 37.8147 14.444C37.0947 14.876 36.5322 15.4835 36.1272 16.2665C35.7312 17.0495 35.5332 17.9495 35.5332 18.9665L35.5062 17.8595ZM54.967 30.644C53.95 30.644 53.0005 30.473 52.1185 30.131C51.2455 29.789 50.5075 29.3075 49.9045 28.6865C49.3105 28.0745 48.91 27.368 48.703 26.567H50.917C51.034 26.972 51.286 27.332 51.673 27.647C52.06 27.971 52.537 28.223 53.104 28.403C53.68 28.583 54.301 28.673 54.967 28.673C55.822 28.673 56.587 28.511 57.262 28.187C57.946 27.863 58.477 27.4085 58.855 26.8235C59.242 26.2385 59.4355 25.559 59.4355 24.785V23.948L59.5435 20.168L60.664 18.791C60.646 20.069 60.3805 21.1985 59.8675 22.1795C59.3635 23.1515 58.6525 23.9075 57.7345 24.4475C56.8165 24.9785 55.7545 25.244 54.5485 25.244C53.2975 25.244 52.1905 24.9605 51.2275 24.3935C50.2645 23.8265 49.5175 23.0345 48.9865 22.0175C48.4645 21.0005 48.2035 19.844 48.2035 18.548C48.2035 17.252 48.4645 16.0955 48.9865 15.0785C49.5175 14.0615 50.2645 13.2695 51.2275 12.7025C52.1905 12.1355 53.2975 11.852 54.5485 11.852C55.7545 11.852 56.8165 12.122 57.7345 12.662C58.6525 13.193 59.3635 13.949 59.8675 14.93C60.3805 15.902 60.646 17.036 60.664 18.332L59.5435 17.117V12.176H61.636L61.5955 24.785C61.5955 25.928 61.312 26.9405 60.745 27.8225C60.178 28.7135 59.3905 29.4065 58.3825 29.9015C57.3835 30.3965 56.245 30.644 54.967 30.644ZM54.967 23.3405C55.84 23.3405 56.614 23.1425 57.289 22.7465C57.973 22.3415 58.504 21.7745 58.882 21.0455C59.26 20.3165 59.4535 19.484 59.4625 18.548C59.4535 17.612 59.26 16.7795 58.882 16.0505C58.504 15.3215 57.973 14.759 57.289 14.363C56.614 13.958 55.84 13.7555 54.967 13.7555C54.085 13.7555 53.302 13.958 52.618 14.363C51.934 14.759 51.403 15.3215 51.025 16.0505C50.656 16.7795 50.4715 17.612 50.4715 18.548C50.4715 19.484 50.656 20.3165 51.025 21.0455C51.403 21.7745 51.934 22.3415 52.618 22.7465C53.302 23.1425 54.085 23.3405 54.967 23.3405ZM65.0549 12.176H67.2149V26H65.0549V12.176ZM64.9469 7.1H67.3229V9.557H64.9469V7.1ZM70.4022 12.176H72.4812V18.1565H71.6172C71.6172 16.8785 71.8377 15.767 72.2787 14.822C72.7197 13.868 73.3497 13.1345 74.1687 12.6215C74.9877 12.1085 75.9507 11.852 77.0577 11.852C78.0477 11.852 78.9252 12.0635 79.6902 12.4865C80.4552 12.9095 81.0537 13.535 81.4857 14.363C81.9267 15.182 82.1472 16.1675 82.1472 17.3195V26H79.9872V17.5355C79.9872 16.7345 79.8432 16.0505 79.5552 15.4835C79.2762 14.9165 78.8757 14.4845 78.3537 14.1875C77.8317 13.8905 77.2107 13.742 76.4907 13.742C75.7167 13.742 75.0327 13.913 74.4387 14.255C73.8447 14.597 73.3812 15.0785 73.0482 15.6995C72.7242 16.3115 72.5622 17.0135 72.5622 17.8055V26H70.4022V12.176ZM84.9516 12.176H87.0306V18.1565H86.1666C86.1666 16.8785 86.3871 15.767 86.8281 14.822C87.2691 13.868 87.8991 13.1345 88.7181 12.6215C89.5371 12.1085 90.5001 11.852 91.6071 11.852C92.5971 11.852 93.4746 12.0635 94.2396 12.4865C95.0046 12.9095 95.6031 13.535 96.0351 14.363C96.4761 15.182 96.6966 16.1675 96.6966 17.3195V26H94.5366V17.5355C94.5366 16.7345 94.3926 16.0505 94.1046 15.4835C93.8256 14.9165 93.4251 14.4845 92.9031 14.1875C92.3811 13.8905 91.7601 13.742 91.0401 13.742C90.2661 13.742 89.5821 13.913 88.9881 14.255C88.3941 14.597 87.9306 15.0785 87.5976 15.6995C87.2736 16.3115 87.1116 17.0135 87.1116 17.8055V26H84.9516V12.176ZM105.333 26.324C104.028 26.324 102.849 26.0135 101.796 25.3925C100.743 24.7715 99.915 23.9075 99.312 22.8005C98.709 21.6935 98.4075 20.447 98.4075 19.061C98.4075 17.711 98.7135 16.487 99.3255 15.389C99.9375 14.282 100.77 13.418 101.823 12.797C102.885 12.167 104.055 11.852 105.333 11.852C106.647 11.852 107.813 12.158 108.83 12.77C109.847 13.373 110.639 14.2235 111.206 15.3215C111.773 16.4195 112.056 17.675 112.056 19.088V19.574H100.554L100.581 19.0205C100.59 20.0915 100.793 21.032 101.189 21.842C101.594 22.643 102.152 23.264 102.863 23.705C103.574 24.146 104.397 24.3665 105.333 24.3665C106.17 24.3665 106.913 24.2045 107.561 23.8805C108.209 23.5565 108.74 23.093 109.154 22.49H111.557C111.215 23.282 110.742 23.966 110.139 24.542C109.545 25.109 108.839 25.55 108.02 25.865C107.201 26.171 106.305 26.324 105.333 26.324ZM100.554 17.8595H109.896V19.061C109.896 18.026 109.703 17.1125 109.316 16.3205C108.938 15.5195 108.402 14.8985 107.709 14.4575C107.016 14.0165 106.224 13.796 105.333 13.796C104.406 13.796 103.583 14.012 102.863 14.444C102.143 14.876 101.58 15.4835 101.175 16.2665C100.779 17.0495 100.581 17.9495 100.581 18.9665L100.554 17.8595ZM114.156 12.176H116.316V16.8065L115.411 18.1565C115.447 16.9145 115.672 15.8345 116.086 14.9165C116.509 13.9895 117.094 13.2785 117.841 12.7835C118.588 12.2885 119.457 12.041 120.447 12.041H120.933V14.2955H120.366C119.547 14.2955 118.831 14.453 118.219 14.768C117.607 15.083 117.135 15.533 116.802 16.118C116.478 16.694 116.316 17.3735 116.316 18.1565V26H114.156V12.176Z" fill="white"/>
<path d="M149.4 27.3461H130.5V8.65384H149.4L139.9 17.9505L149.4 27.3461Z" fill="white"/>
<path d="M160.006 7.1H162.166V15.956L171.022 7.1H173.965L164.798 16.226L174.127 26H171.103L162.166 16.658V26H160.006V7.1ZM180.303 26.324C178.98 26.324 177.778 26.009 176.698 25.379C175.627 24.749 174.786 23.885 174.174 22.787C173.562 21.68 173.256 20.447 173.256 19.088C173.256 17.729 173.562 16.5005 174.174 15.4025C174.786 14.2955 175.627 13.427 176.698 12.797C177.778 12.167 178.98 11.852 180.303 11.852C181.626 11.852 182.823 12.167 183.894 12.797C184.974 13.427 185.82 14.2955 186.432 15.4025C187.044 16.5005 187.35 17.729 187.35 19.088C187.35 20.447 187.044 21.68 186.432 22.787C185.82 23.885 184.974 24.749 183.894 25.379C182.823 26.009 181.626 26.324 180.303 26.324ZM180.303 24.353C181.239 24.353 182.067 24.1325 182.787 23.6915C183.516 23.2415 184.078 22.6205 184.474 21.8285C184.879 21.0275 185.082 20.114 185.082 19.088C185.082 18.053 184.879 17.1395 184.474 16.3475C184.078 15.5465 183.516 14.9255 182.787 14.4845C182.067 14.0345 181.239 13.8095 180.303 13.8095C179.367 13.8095 178.534 14.0345 177.805 14.4845C177.085 14.9255 176.523 15.5465 176.118 16.3475C175.722 17.1395 175.524 18.053 175.524 19.088C175.524 20.114 175.722 21.0275 176.118 21.8285C176.523 22.6205 177.085 23.2415 177.805 23.6915C178.534 24.1325 179.367 24.353 180.303 24.353ZM193.963 26C193.306 26 192.708 25.8605 192.168 25.5815C191.637 25.2935 191.218 24.902 190.912 24.407C190.606 23.903 190.453 23.345 190.453 22.733L190.44 14.093H188.01L188.023 12.176H189.522C189.864 12.176 190.138 12.068 190.345 11.852C190.561 11.636 190.669 11.3615 190.669 11.0285V8.801H192.613V12.176H196.353L196.339 14.093H192.6L192.613 22.598C192.613 23.021 192.753 23.3765 193.032 23.6645C193.32 23.9435 193.675 24.083 194.098 24.083H196.339V26H193.963ZM198.589 7.1H200.749V26H198.589V7.1ZM204.155 12.176H206.315V26H204.155V12.176ZM204.047 7.1H206.423V9.557H204.047V7.1ZM209.502 12.176H211.581V18.1565H210.717C210.717 16.8785 210.938 15.767 211.379 14.822C211.82 13.868 212.45 13.1345 213.269 12.6215C214.088 12.1085 215.051 11.852 216.158 11.852C217.148 11.852 218.025 12.0635 218.79 12.4865C219.555 12.9095 220.154 13.535 220.586 14.363C221.027 15.182 221.247 16.1675 221.247 17.3195V26H219.087V17.5355C219.087 16.7345 218.943 16.0505 218.655 15.4835C218.376 14.9165 217.976 14.4845 217.454 14.1875C216.932 13.8905 216.311 13.742 215.591 13.742C214.817 13.742 214.133 13.913 213.539 14.255C212.945 14.597 212.481 15.0785 212.148 15.6995C211.824 16.3115 211.662 17.0135 211.662 17.8055V26H209.502V12.176ZM234.991 26C234.334 26 233.735 25.8605 233.195 25.5815C232.664 25.2935 232.246 24.902 231.94 24.407C231.634 23.903 231.481 23.345 231.481 22.733L231.467 14.093H229.037L229.051 12.176H230.549C230.891 12.176 231.166 12.068 231.373 11.852C231.589 11.636 231.697 11.3615 231.697 11.0285V8.801H233.641V12.176H237.38L237.367 14.093H233.627L233.641 22.598C233.641 23.021 233.78 23.3765 234.059 23.6645C234.347 23.9435 234.703 24.083 235.126 24.083H237.367V26H234.991ZM245.208 26.324C243.885 26.324 242.684 26.009 241.604 25.379C240.533 24.749 239.691 23.885 239.079 22.787C238.467 21.68 238.161 20.447 238.161 19.088C238.161 17.729 238.467 16.5005 239.079 15.4025C239.691 14.2955 240.533 13.427 241.604 12.797C242.684 12.167 243.885 11.852 245.208 11.852C246.531 11.852 247.728 12.167 248.799 12.797C249.879 13.427 250.725 14.2955 251.337 15.4025C251.949 16.5005 252.255 17.729 252.255 19.088C252.255 20.447 251.949 21.68 251.337 22.787C250.725 23.885 249.879 24.749 248.799 25.379C247.728 26.009 246.531 26.324 245.208 26.324ZM245.208 24.353C246.144 24.353 246.972 24.1325 247.692 23.6915C248.421 23.2415 248.984 22.6205 249.38 21.8285C249.785 21.0275 249.987 20.114 249.987 19.088C249.987 18.053 249.785 17.1395 249.38 16.3475C248.984 15.5465 248.421 14.9255 247.692 14.4845C246.972 14.0345 246.144 13.8095 245.208 13.8095C244.272 13.8095 243.44 14.0345 242.711 14.4845C241.991 14.9255 241.428 15.5465 241.023 16.3475C240.627 17.1395 240.429 18.053 240.429 19.088C240.429 20.114 240.627 21.0275 241.023 21.8285C241.428 22.6205 241.991 23.2415 242.711 23.6915C243.44 24.1325 244.272 24.353 245.208 24.353ZM265.711 26H263.632V20.0195H264.496C264.496 21.2975 264.276 22.4135 263.835 23.3675C263.394 24.3125 262.764 25.0415 261.945 25.5545C261.126 26.0675 260.163 26.324 259.056 26.324C258.066 26.324 257.188 26.1125 256.423 25.6895C255.658 25.2665 255.055 24.6455 254.614 23.8265C254.182 22.9985 253.966 22.0085 253.966 20.8565V12.176H256.126V20.6405C256.126 21.4415 256.266 22.1255 256.545 22.6925C256.833 23.2595 257.238 23.6915 257.76 23.9885C258.282 24.2855 258.903 24.434 259.623 24.434C260.397 24.434 261.081 24.263 261.675 23.921C262.269 23.579 262.728 23.102 263.052 22.49C263.385 21.869 263.551 21.1625 263.551 20.3705V12.176H265.711V26ZM268.96 12.176H271.12V16.8065L270.216 18.1565C270.252 16.9145 270.477 15.8345 270.891 14.9165C271.314 13.9895 271.899 13.2785 272.646 12.7835C273.393 12.2885 274.261 12.041 275.251 12.041H275.737V14.2955H275.17C274.351 14.2955 273.636 14.453 273.024 14.768C272.412 15.083 271.939 15.533 271.606 16.118C271.282 16.694 271.12 17.3735 271.12 18.1565V26H268.96V12.176Z" fill="white"/>
<path d="M305.9 26.5055L304.4 25.022L310.5 19.0879H284.4V17.011H310.5L304.4 10.978L305.9 9.49451L314.5 18L305.9 26.5055Z" fill="white"/>
</g>
<defs>
<clipPath id="clip0_8563_215">
<rect width="330" height="36" fill="white"/>
</clipPath>
</defs>
</svg>
