<?xml version="1.0" encoding="utf-8"?>
<!-- Generator: Adobe Illustrator 24.1.2, SVG Export Plug-In . SVG Version: 6.00 Build 0)  -->
<svg version="1.1" id="Layer_1" xmlns="http://www.w3.org/2000/svg" xmlns:xlink="http://www.w3.org/1999/xlink" x="0px" y="0px"
	 viewBox="0 0 500 60" style="enable-background:new 0 0 500 60;" xml:space="preserve">
<style type="text/css">
	.st0{fill:#FFFFFF;}
</style>
<g>
	<g>
		<g>
			<path d="M461.3,17.1c-3.4-3.4-8-5.3-12.9-5.3l-396.8,0c-4.9,0-9.5,1.9-12.9,5.3s-5.3,8-5.3,12.9c0,4.9,1.9,9.5,5.3,12.9
				s8,5.3,12.9,5.3l396.8,0c4.9,0,9.5-1.9,12.9-5.3s5.3-8,5.3-12.9C466.7,25.1,464.8,20.5,461.3,17.1z"/>
		</g>
		<g>
			<path class="st0" d="M54.6,39.1c-1-0.5-1.8-1.1-2.3-2c-0.6-0.9-0.8-1.8-0.8-2.9h2.3c0,0.7,0.2,1.3,0.6,1.9c0.4,0.5,0.9,1,1.5,1.3
				c0.7,0.3,1.4,0.5,2.3,0.5c0.8,0,1.6-0.1,2.2-0.4c0.7-0.3,1.2-0.7,1.5-1.2c0.4-0.5,0.5-1.1,0.5-1.8c0-0.8-0.2-1.5-0.7-2
				c-0.5-0.6-1.2-0.9-2-1.1l-3.3-0.6c-0.9-0.2-1.7-0.5-2.3-1c-0.7-0.5-1.2-1.1-1.5-1.8s-0.5-1.5-0.5-2.3c0-1,0.3-1.9,0.8-2.7
				c0.5-0.8,1.2-1.4,2.2-1.8s2-0.7,3.2-0.7c1.2,0,2.3,0.2,3.2,0.7c0.9,0.4,1.7,1.1,2.2,1.9c0.5,0.8,0.8,1.7,0.8,2.7h-2.3
				c0-0.6-0.2-1.2-0.5-1.7c-0.3-0.5-0.8-0.9-1.4-1.1c-0.6-0.3-1.3-0.4-2-0.4c-0.7,0-1.4,0.1-2,0.4c-0.6,0.3-1,0.6-1.4,1.1
				c-0.3,0.5-0.5,1-0.5,1.7c0,0.8,0.2,1.4,0.7,1.9c0.4,0.5,1.1,0.9,1.9,1l3.5,0.7c0.9,0.2,1.6,0.5,2.3,1s1.2,1.1,1.6,1.8
				c0.4,0.7,0.6,1.5,0.6,2.4c0,1.1-0.3,2-0.8,2.8c-0.6,0.8-1.3,1.5-2.3,1.9c-1,0.5-2.1,0.7-3.4,0.7C56.8,39.8,55.6,39.5,54.6,39.1z"
				/>
			<path class="st0" d="M71.2,39.5c-1,0-1.8-0.3-2.4-0.8c-0.6-0.5-0.9-1.3-0.9-2.2l0-8.9h-2.4l0-1.9h1.5c0.3,0,0.6-0.1,0.8-0.3
				c0.2-0.2,0.3-0.5,0.3-0.8v-2.3h1.9v3.4h3.3l0,1.9h-3.3l0,8.8c0,0.4,0.1,0.7,0.3,0.9c0.2,0.2,0.5,0.3,0.9,0.3h2.1v1.9H71.2z"/>
			<path class="st0" d="M84,25.9c0.8,0.4,1.4,0.9,1.8,1.7c0.4,0.7,0.6,1.6,0.6,2.6v9.3h-2.1v-2c-0.4,0.8-1,1.4-1.8,1.8
				c-0.8,0.4-1.7,0.6-2.8,0.6c-0.9,0-1.7-0.2-2.4-0.5c-0.7-0.3-1.3-0.8-1.6-1.4s-0.6-1.3-0.6-2.1c0-0.7,0.2-1.4,0.5-2
				c0.4-0.6,0.9-1.1,1.5-1.5c0.6-0.4,1.4-0.6,2.2-0.7l4-0.4c0.3,0,0.5-0.2,0.7-0.4c0.2-0.2,0.3-0.5,0.3-1c0-0.5-0.1-1-0.4-1.4
				c-0.3-0.4-0.6-0.7-1.1-1c-0.5-0.2-1-0.3-1.6-0.3c-0.6,0-1.2,0.1-1.7,0.3s-0.9,0.5-1.2,0.8c-0.3,0.4-0.5,0.8-0.6,1.2h-2.1
				c0.1-0.8,0.4-1.5,0.9-2.1s1.2-1.1,2-1.5s1.7-0.6,2.7-0.6C82.3,25.3,83.2,25.5,84,25.9z M82.3,37.6c0.6-0.3,1.1-0.8,1.5-1.3
				c0.4-0.6,0.5-1.2,0.5-2v-1.6l-4.7,0.5c-0.7,0.1-1.3,0.3-1.7,0.8s-0.7,1-0.7,1.7c0,0.5,0.1,0.9,0.4,1.2c0.2,0.4,0.6,0.6,1,0.9
				c0.4,0.2,0.9,0.3,1.5,0.3C80.9,38.1,81.7,37.9,82.3,37.6z"/>
			<path class="st0" d="M96.4,25.5v2.2h-0.5c-1.3,0-2.2,0.4-3,1.1c-0.7,0.8-1.1,1.8-1.1,3.2v7.4h-2.2V25.7h2.2v2.8
				c0.4-0.9,0.9-1.7,1.6-2.2c0.7-0.5,1.5-0.8,2.5-0.8H96.4z"/>
			<path class="st0" d="M101.4,39.5c-1,0-1.8-0.3-2.4-0.8c-0.6-0.5-0.9-1.3-0.9-2.2V22.2h2.2v3.4h3.2l0,1.9h-3.2l0,8.8
				c0,0.4,0.1,0.7,0.3,0.9c0.2,0.2,0.5,0.3,0.9,0.3h2v1.9H101.4z"/>
			<path class="st0" d="M111.4,23.2v-2.6h2.5v2.6H111.4z M113.7,39.5h-2.2V25.7h2.2V39.5z"/>
			<path class="st0" d="M126.5,26c0.8,0.4,1.4,1.1,1.8,1.9c0.4,0.8,0.6,1.8,0.6,2.9v8.7h-2.2v-8.5c0-1.2-0.3-2.1-0.9-2.8
				c-0.6-0.7-1.4-1-2.5-1c-0.8,0-1.5,0.2-2,0.5c-0.6,0.3-1,0.8-1.4,1.4c-0.3,0.6-0.5,1.3-0.5,2.2v8.2h-2.2V25.7h2.1v2.1
				c0.4-0.8,1-1.4,1.8-1.8c0.7-0.4,1.6-0.6,2.6-0.6C124.8,25.3,125.7,25.6,126.5,26z"/>
			<path class="st0" d="M135.8,39.5c-1,0-1.8-0.3-2.4-0.8c-0.6-0.5-0.9-1.3-0.9-2.2l0-8.9h-2.4l0-1.9h1.5c0.3,0,0.6-0.1,0.8-0.3
				c0.2-0.2,0.3-0.5,0.3-0.8v-2.3h1.9v3.4h3.3l0,1.9h-3.3l0,8.8c0,0.4,0.1,0.7,0.3,0.9c0.2,0.2,0.5,0.3,0.9,0.3h2.1v1.9H135.8z"/>
			<path class="st0" d="M152.7,33.1h-10.9c0.1,0.9,0.3,1.8,0.7,2.5c0.4,0.7,1,1.3,1.6,1.7c0.7,0.4,1.4,0.6,2.3,0.6
				c0.6,0,1.1-0.1,1.7-0.3c0.5-0.2,1-0.4,1.4-0.8c0.4-0.3,0.7-0.7,0.8-1.1h2.1c-0.2,0.8-0.5,1.4-1.1,2c-0.6,0.6-1.3,1.1-2.2,1.4
				s-1.8,0.5-2.8,0.5c-1.3,0-2.5-0.3-3.5-0.9c-1-0.6-1.8-1.5-2.4-2.6c-0.6-1.1-0.9-2.3-0.9-3.7c0-1.4,0.3-2.6,0.9-3.7
				c0.6-1.1,1.4-2,2.4-2.6c1-0.6,2.2-0.9,3.5-0.9c1.2,0,2.3,0.3,3.3,0.9c1,0.6,1.7,1.5,2.3,2.6s0.8,2.3,0.8,3.7V33.1z M143.2,28.3
				c-0.8,0.7-1.3,1.7-1.5,3h8.6c-0.2-1.2-0.6-2.2-1.4-3c-0.7-0.7-1.7-1.1-2.8-1.1C145.1,27.2,144,27.6,143.2,28.3z"/>
			<path class="st0" d="M161.8,25.5v2.2h-0.5c-1.3,0-2.2,0.4-3,1.1c-0.7,0.8-1.1,1.8-1.1,3.2v7.4h-2.2V25.7h2.2v2.8
				c0.4-0.9,0.9-1.7,1.6-2.2c0.7-0.5,1.5-0.8,2.5-0.8H161.8z"/>
			<path class="st0" d="M181.6,26c0.8,0.5,1.3,1.1,1.8,1.9c0.4,0.8,0.6,1.8,0.6,2.8v8.7h-2.2v-8.6c0-1.2-0.3-2.1-0.8-2.7
				c-0.6-0.6-1.3-1-2.4-1c-0.8,0-1.4,0.2-2,0.5c-0.6,0.4-1,0.9-1.3,1.6s-0.5,1.5-0.5,2.4v7.8h-2.2v-8.6c0-1.2-0.3-2.1-0.9-2.7
				s-1.4-1-2.4-1c-0.8,0-1.4,0.2-2,0.5s-1,0.9-1.3,1.6c-0.3,0.7-0.4,1.5-0.4,2.4v7.8h-2.2V25.7h2.1v2c0.4-0.8,1-1.3,1.7-1.7
				c0.7-0.4,1.5-0.6,2.5-0.6c1,0,1.9,0.2,2.7,0.7c0.8,0.5,1.4,1.2,1.8,2c0.5-0.9,1.1-1.5,1.9-2s1.7-0.7,2.8-0.7
				C180,25.3,180.9,25.6,181.6,26z"/>
			<path class="st0" d="M199.3,33.1h-10.9c0.1,0.9,0.3,1.8,0.7,2.5c0.4,0.7,1,1.3,1.6,1.7c0.7,0.4,1.4,0.6,2.3,0.6
				c0.6,0,1.1-0.1,1.7-0.3c0.5-0.2,1-0.4,1.4-0.8c0.4-0.3,0.7-0.7,0.8-1.1h2.1c-0.2,0.8-0.5,1.4-1.1,2c-0.6,0.6-1.3,1.1-2.2,1.4
				s-1.8,0.5-2.8,0.5c-1.3,0-2.5-0.3-3.5-0.9c-1-0.6-1.8-1.5-2.4-2.6c-0.6-1.1-0.9-2.3-0.9-3.7c0-1.4,0.3-2.6,0.9-3.7
				c0.6-1.1,1.4-2,2.4-2.6c1-0.6,2.2-0.9,3.5-0.9c1.2,0,2.3,0.3,3.3,0.9c1,0.6,1.7,1.5,2.3,2.6s0.8,2.3,0.8,3.7V33.1z M189.9,28.3
				c-0.8,0.7-1.3,1.7-1.5,3h8.6c-0.2-1.2-0.6-2.2-1.4-3c-0.7-0.7-1.7-1.1-2.8-1.1C191.7,27.2,190.7,27.6,189.9,28.3z"/>
			<path class="st0" d="M214.2,25.7L214.2,25.7l0,13.8h-2.1v-2.3c-0.5,0.8-1.2,1.5-2.1,2c-0.8,0.5-1.8,0.7-2.8,0.7
				c-1.2,0-2.4-0.3-3.4-0.9s-1.8-1.5-2.4-2.6c-0.6-1.1-0.9-2.3-0.9-3.7s0.3-2.6,0.9-3.7c0.6-1.1,1.4-2,2.4-2.6
				c1-0.6,2.1-0.9,3.4-0.9c1.1,0,2,0.2,2.8,0.7c0.8,0.5,1.5,1.1,2.1,2l-0.1-7.4h2.2V25.7z M209.8,37.1c0.7-0.5,1.3-1.1,1.6-1.9
				c0.4-0.8,0.6-1.7,0.6-2.7s-0.2-1.9-0.6-2.7c-0.4-0.8-0.9-1.4-1.6-1.9c-0.7-0.5-1.5-0.7-2.4-0.7c-0.9,0-1.7,0.2-2.4,0.7
				s-1.2,1.1-1.6,1.9c-0.4,0.8-0.6,1.7-0.6,2.7s0.2,1.9,0.6,2.7s0.9,1.4,1.6,1.9s1.5,0.7,2.4,0.7C208.3,37.8,209.1,37.6,209.8,37.1z
				"/>
			<path class="st0" d="M217.5,23.2v-2.6h2.5v2.6H217.5z M219.8,39.5h-2.2V25.7h2.2V39.5z"/>
			<path class="st0" d="M231.3,25.9c0.8,0.4,1.4,0.9,1.8,1.7c0.4,0.7,0.6,1.6,0.6,2.6v9.3h-2.1v-2c-0.4,0.8-1,1.4-1.8,1.8
				c-0.8,0.4-1.7,0.6-2.8,0.6c-0.9,0-1.7-0.2-2.4-0.5c-0.7-0.3-1.3-0.8-1.6-1.4s-0.6-1.3-0.6-2.1c0-0.7,0.2-1.4,0.5-2
				c0.4-0.6,0.9-1.1,1.5-1.5c0.6-0.4,1.4-0.6,2.2-0.7l4-0.4c0.3,0,0.5-0.2,0.7-0.4c0.2-0.2,0.3-0.5,0.3-1c0-0.5-0.1-1-0.4-1.4
				c-0.3-0.4-0.6-0.7-1.1-1c-0.5-0.2-1-0.3-1.6-0.3c-0.6,0-1.2,0.1-1.7,0.3s-0.9,0.5-1.2,0.8c-0.3,0.4-0.5,0.8-0.6,1.2H223
				c0.1-0.8,0.4-1.5,0.9-2.1s1.2-1.1,2-1.5s1.7-0.6,2.7-0.6C229.6,25.3,230.6,25.5,231.3,25.9z M229.7,37.6c0.6-0.3,1.1-0.8,1.5-1.3
				c0.4-0.6,0.5-1.2,0.5-2v-1.6l-4.7,0.5c-0.7,0.1-1.3,0.3-1.7,0.8s-0.7,1-0.7,1.7c0,0.5,0.1,0.9,0.4,1.2c0.2,0.4,0.6,0.6,1,0.9
				c0.4,0.2,0.9,0.3,1.5,0.3C228.3,38.1,229,37.9,229.7,37.6z"/>
			<path class="st0" d="M240.8,39.5c-1,0-1.8-0.3-2.4-0.8c-0.6-0.5-0.9-1.3-0.9-2.2l0-8.9h-2.4l0-1.9h1.5c0.3,0,0.6-0.1,0.8-0.3
				c0.2-0.2,0.3-0.5,0.3-0.8v-2.3h1.9v3.4h3.3l0,1.9h-3.3l0,8.8c0,0.4,0.1,0.7,0.3,0.9c0.2,0.2,0.5,0.3,0.9,0.3h2.1v1.9H240.8z"/>
			<path class="st0" d="M257.6,33.1h-10.9c0.1,0.9,0.3,1.8,0.7,2.5c0.4,0.7,1,1.3,1.6,1.7c0.7,0.4,1.4,0.6,2.3,0.6
				c0.6,0,1.1-0.1,1.7-0.3c0.5-0.2,1-0.4,1.4-0.8c0.4-0.3,0.7-0.7,0.8-1.1h2.1c-0.2,0.8-0.5,1.4-1.1,2c-0.6,0.6-1.3,1.1-2.2,1.4
				s-1.8,0.5-2.8,0.5c-1.3,0-2.5-0.3-3.5-0.9c-1-0.6-1.8-1.5-2.4-2.6c-0.6-1.1-0.9-2.3-0.9-3.7c0-1.4,0.3-2.6,0.9-3.7
				c0.6-1.1,1.4-2,2.4-2.6c1-0.6,2.2-0.9,3.5-0.9c1.2,0,2.3,0.3,3.3,0.9c1,0.6,1.7,1.5,2.3,2.6s0.8,2.3,0.8,3.7V33.1z M248.2,28.3
				c-0.8,0.7-1.3,1.7-1.5,3h8.6c-0.2-1.2-0.6-2.2-1.4-3c-0.7-0.7-1.7-1.1-2.8-1.1C250,27.2,249,27.6,248.2,28.3z"/>
			<path class="st0" d="M295.9,39.5h-2.2V20.6h2.2v8.8l8.8-8.8h2.9l-9.1,9.1l9.3,9.8h-3l-8.9-9.3V39.5z"/>
			<path class="st0" d="M310.6,38.8c-1.1-0.6-1.9-1.5-2.5-2.6c-0.6-1.1-0.9-2.3-0.9-3.7s0.3-2.6,0.9-3.7c0.6-1.1,1.4-2,2.5-2.6
				c1.1-0.6,2.2-0.9,3.6-0.9s2.5,0.3,3.6,0.9c1.1,0.6,1.9,1.5,2.5,2.6c0.6,1.1,0.9,2.3,0.9,3.7s-0.3,2.6-0.9,3.7
				c-0.6,1.1-1.4,2-2.5,2.6s-2.2,0.9-3.6,0.9C312.9,39.8,311.7,39.5,310.6,38.8z M316.6,37.1c0.7-0.4,1.3-1,1.7-1.8
				c0.4-0.8,0.6-1.7,0.6-2.7s-0.2-1.9-0.6-2.7c-0.4-0.8-1-1.4-1.7-1.8s-1.5-0.7-2.4-0.7s-1.7,0.2-2.4,0.7c-0.7,0.4-1.3,1.1-1.7,1.8
				c-0.4,0.8-0.6,1.7-0.6,2.7s0.2,1.9,0.6,2.7c0.4,0.8,1,1.4,1.7,1.8c0.7,0.4,1.5,0.7,2.4,0.7S315.9,37.6,316.6,37.1z"/>
			<path class="st0" d="M327.3,39.5c-1,0-1.8-0.3-2.4-0.8c-0.6-0.5-0.9-1.3-0.9-2.2l0-8.9h-2.4l0-1.9h1.5c0.3,0,0.6-0.1,0.8-0.3
				c0.2-0.2,0.3-0.5,0.3-0.8v-2.3h1.9v3.4h3.3l0,1.9h-3.3l0,8.8c0,0.4,0.1,0.7,0.3,0.9c0.2,0.2,0.5,0.3,0.9,0.3h2.1v1.9H327.3z"/>
			<path class="st0" d="M334.2,39.5h-2.2V20.6h2.2V39.5z"/>
			<path class="st0" d="M337.7,23.2v-2.6h2.5v2.6H337.7z M340,39.5h-2.2V25.7h2.2V39.5z"/>
			<path class="st0" d="M352.7,26c0.8,0.4,1.4,1.1,1.8,1.9c0.4,0.8,0.6,1.8,0.6,2.9v8.7H353v-8.5c0-1.2-0.3-2.1-0.9-2.8
				c-0.6-0.7-1.4-1-2.5-1c-0.8,0-1.5,0.2-2,0.5c-0.6,0.3-1,0.8-1.4,1.4c-0.3,0.6-0.5,1.3-0.5,2.2v8.2h-2.2V25.7h2.1v2.1
				c0.4-0.8,1-1.4,1.8-1.8c0.7-0.4,1.6-0.6,2.6-0.6C351,25.3,351.9,25.6,352.7,26z"/>
			<path class="st0" d="M367.7,39.5c-1,0-1.8-0.3-2.4-0.8c-0.6-0.5-0.9-1.3-0.9-2.2l0-8.9H362l0-1.9h1.5c0.3,0,0.6-0.1,0.8-0.3
				c0.2-0.2,0.3-0.5,0.3-0.8v-2.3h1.9v3.4h3.3l0,1.9h-3.3l0,8.8c0,0.4,0.1,0.7,0.3,0.9c0.2,0.2,0.5,0.3,0.9,0.3h2.1v1.9H367.7z"/>
			<path class="st0" d="M374.7,38.8c-1.1-0.6-1.9-1.5-2.5-2.6c-0.6-1.1-0.9-2.3-0.9-3.7s0.3-2.6,0.9-3.7c0.6-1.1,1.4-2,2.5-2.6
				c1.1-0.6,2.2-0.9,3.6-0.9s2.5,0.3,3.6,0.9c1.1,0.6,1.9,1.5,2.5,2.6c0.6,1.1,0.9,2.3,0.9,3.7s-0.3,2.6-0.9,3.7
				c-0.6,1.1-1.4,2-2.5,2.6s-2.2,0.9-3.6,0.9C376.9,39.8,375.7,39.5,374.7,38.8z M380.7,37.1c0.7-0.4,1.3-1,1.7-1.8
				c0.4-0.8,0.6-1.7,0.6-2.7s-0.2-1.9-0.6-2.7c-0.4-0.8-1-1.4-1.7-1.8s-1.5-0.7-2.4-0.7s-1.7,0.2-2.4,0.7c-0.7,0.4-1.3,1.1-1.7,1.8
				c-0.4,0.8-0.6,1.7-0.6,2.7s0.2,1.9,0.6,2.7c0.4,0.8,1,1.4,1.7,1.8c0.7,0.4,1.5,0.7,2.4,0.7S380,37.6,380.7,37.1z"/>
			<path class="st0" d="M396.8,25.7h2.2v13.8h-2.1v-2.1c-0.4,0.8-1,1.4-1.8,1.8c-0.7,0.4-1.6,0.6-2.6,0.6c-1,0-1.9-0.2-2.7-0.7
				c-0.8-0.4-1.4-1.1-1.8-1.9c-0.4-0.8-0.6-1.8-0.6-2.9v-8.7h2.2v8.5c0,1.2,0.3,2.1,0.9,2.8c0.6,0.7,1.4,1,2.5,1
				c0.8,0,1.5-0.2,2-0.5c0.6-0.3,1-0.8,1.4-1.4c0.3-0.6,0.5-1.3,0.5-2.2V25.7z"/>
			<path class="st0" d="M409.2,25.5v2.2h-0.5c-1.3,0-2.2,0.4-3,1.1c-0.7,0.8-1.1,1.8-1.1,3.2v7.4h-2.2V25.7h2.2v2.8
				c0.4-0.9,0.9-1.7,1.6-2.2c0.7-0.5,1.5-0.8,2.5-0.8H409.2z"/>
			<path class="st0" d="M438.8,39.5l-1.5-1.5l6.1-6h-26.1v-2.1h26.1l-6.1-6.1l1.5-1.5l8.6,8.6L438.8,39.5z"/>
		</g>
		<g>
			<polygon class="st0" points="288.7,39.5 269.8,39.5 269.8,20.6 288.7,20.6 279.2,30 			"/>
		</g>
	</g>
</g>
</svg>
