<?xml version="1.0" encoding="utf-8"?>
<!-- Generator: Adobe Illustrator 24.1.2, SVG Export Plug-In . SVG Version: 6.00 Build 0)  -->
<svg version="1.1" id="Layer_1" xmlns="http://www.w3.org/2000/svg" xmlns:xlink="http://www.w3.org/1999/xlink" x="0px" y="0px"
	 viewBox="0 0 500 60" style="enable-background:new 0 0 500 60;" xml:space="preserve">
<style type="text/css">
	.st0{fill:#FFFFFF;}
</style>
<g>
	<g>
		<g>
			<path d="M439.3,17.1c-3.4-3.4-8-5.3-12.9-5.3l-352.9,0c-4.9,0-9.5,1.9-12.9,5.3c-3.4,3.4-5.3,8-5.3,12.9c0,4.9,1.9,9.5,5.3,12.9
				c3.4,3.4,8,5.3,12.9,5.3l352.9,0c4.9,0,9.5-1.9,12.9-5.3s5.3-8,5.3-12.9C444.7,25.1,442.8,20.5,439.3,17.1z"/>
		</g>
		<g>
			<path class="st0" d="M76.7,39.1c-1-0.5-1.8-1.1-2.3-2c-0.6-0.9-0.8-1.8-0.8-2.9h2.3c0,0.7,0.2,1.3,0.6,1.9c0.4,0.5,0.9,1,1.5,1.3
				c0.7,0.3,1.4,0.5,2.3,0.5c0.8,0,1.6-0.1,2.2-0.4c0.7-0.3,1.2-0.7,1.5-1.2c0.4-0.5,0.5-1.1,0.5-1.8c0-0.8-0.2-1.5-0.7-2
				c-0.5-0.6-1.2-0.9-2-1.1l-3.3-0.6c-0.9-0.2-1.7-0.5-2.3-1c-0.7-0.5-1.2-1.1-1.5-1.8S74,26.3,74,25.4c0-1,0.3-1.9,0.8-2.7
				c0.5-0.8,1.2-1.4,2.2-1.8s2-0.7,3.2-0.7c1.2,0,2.3,0.2,3.2,0.7c0.9,0.4,1.7,1.1,2.2,1.9c0.5,0.8,0.8,1.7,0.8,2.7H84
				c0-0.6-0.2-1.2-0.5-1.7c-0.3-0.5-0.8-0.9-1.4-1.1c-0.6-0.3-1.3-0.4-2-0.4c-0.7,0-1.4,0.1-2,0.4c-0.6,0.3-1,0.6-1.4,1.1
				c-0.3,0.5-0.5,1-0.5,1.7c0,0.8,0.2,1.4,0.7,1.9c0.4,0.5,1.1,0.9,1.9,1l3.5,0.7c0.9,0.2,1.6,0.5,2.3,1s1.2,1.1,1.6,1.8
				c0.4,0.7,0.6,1.5,0.6,2.4c0,1.1-0.3,2-0.8,2.8c-0.6,0.8-1.3,1.5-2.3,1.9c-1,0.5-2.1,0.7-3.4,0.7C78.8,39.8,77.7,39.5,76.7,39.1z"
				/>
			<path class="st0" d="M93.3,39.5c-1,0-1.8-0.3-2.4-0.8c-0.6-0.5-0.9-1.3-0.9-2.2l0-8.9h-2.4l0-1.9h1.5c0.3,0,0.6-0.1,0.8-0.3
				c0.2-0.2,0.3-0.5,0.3-0.8v-2.3h1.9v3.4h3.3l0,1.9h-3.3l0,8.8c0,0.4,0.1,0.7,0.3,0.9c0.2,0.2,0.5,0.3,0.9,0.3h2.1v1.9H93.3z"/>
			<path class="st0" d="M106,25.9c0.8,0.4,1.4,0.9,1.8,1.7c0.4,0.7,0.6,1.6,0.6,2.6v9.3h-2.1v-2c-0.4,0.8-1,1.4-1.8,1.8
				c-0.8,0.4-1.7,0.6-2.8,0.6c-0.9,0-1.7-0.2-2.4-0.5c-0.7-0.3-1.3-0.8-1.6-1.4s-0.6-1.3-0.6-2.1c0-0.7,0.2-1.4,0.5-2
				c0.4-0.6,0.9-1.1,1.5-1.5c0.6-0.4,1.4-0.6,2.2-0.7l4-0.4c0.3,0,0.5-0.2,0.7-0.4c0.2-0.2,0.3-0.5,0.3-1c0-0.5-0.1-1-0.4-1.4
				c-0.3-0.4-0.6-0.7-1.1-1c-0.5-0.2-1-0.3-1.6-0.3c-0.6,0-1.2,0.1-1.7,0.3s-0.9,0.5-1.2,0.8c-0.3,0.4-0.5,0.8-0.6,1.2h-2.1
				c0.1-0.8,0.4-1.5,0.9-2.1s1.2-1.1,2-1.5s1.7-0.6,2.7-0.6C104.3,25.3,105.3,25.5,106,25.9z M104.4,37.6c0.6-0.3,1.1-0.8,1.5-1.3
				c0.4-0.6,0.5-1.2,0.5-2v-1.6l-4.7,0.5c-0.7,0.1-1.3,0.3-1.7,0.8s-0.7,1-0.7,1.7c0,0.5,0.1,0.9,0.4,1.2c0.2,0.4,0.6,0.6,1,0.9
				c0.4,0.2,0.9,0.3,1.5,0.3C103,38.1,103.7,37.9,104.4,37.6z"/>
			<path class="st0" d="M118.4,25.5v2.2h-0.5c-1.3,0-2.2,0.4-3,1.1c-0.7,0.8-1.1,1.8-1.1,3.2v7.4h-2.2V25.7h2.2v2.8
				c0.4-0.9,0.9-1.7,1.6-2.2c0.7-0.5,1.5-0.8,2.5-0.8H118.4z"/>
			<path class="st0" d="M123.4,39.5c-1,0-1.8-0.3-2.4-0.8c-0.6-0.5-0.9-1.3-0.9-2.2V22.2h2.2v3.4h3.2l0,1.9h-3.2l0,8.8
				c0,0.4,0.1,0.7,0.3,0.9c0.2,0.2,0.5,0.3,0.9,0.3h2v1.9H123.4z"/>
			<path class="st0" d="M144,26.3c1,0.6,1.8,1.5,2.4,2.6c0.6,1.1,0.9,2.3,0.9,3.7s-0.3,2.6-0.9,3.7s-1.4,2-2.4,2.6
				c-1,0.6-2.1,0.9-3.4,0.9c-1.1,0-2-0.2-2.8-0.7c-0.8-0.5-1.5-1.1-2.1-2v2.3h-2.1V25.7h0v-5.1h2.2l-0.1,7.4c0.5-0.8,1.2-1.5,2.1-2
				c0.8-0.5,1.8-0.7,2.8-0.7C141.8,25.3,143,25.6,144,26.3z M142.7,37.1c0.7-0.5,1.2-1.1,1.6-1.9c0.4-0.8,0.6-1.7,0.6-2.7
				s-0.2-1.9-0.6-2.7c-0.4-0.8-0.9-1.4-1.6-1.9s-1.5-0.7-2.4-0.7c-0.9,0-1.7,0.2-2.4,0.7c-0.7,0.5-1.3,1.1-1.6,1.9
				c-0.4,0.8-0.6,1.7-0.6,2.7s0.2,1.9,0.6,2.7s0.9,1.4,1.6,1.9c0.7,0.5,1.5,0.7,2.4,0.7C141.3,37.8,142,37.6,142.7,37.1z"/>
			<path class="st0" d="M161.7,33.1h-10.9c0.1,0.9,0.3,1.8,0.7,2.5c0.4,0.7,1,1.3,1.6,1.7c0.7,0.4,1.4,0.6,2.3,0.6
				c0.6,0,1.1-0.1,1.7-0.3c0.5-0.2,1-0.4,1.4-0.8c0.4-0.3,0.7-0.7,0.8-1.1h2.1c-0.2,0.8-0.5,1.4-1.1,2c-0.6,0.6-1.3,1.1-2.2,1.4
				s-1.8,0.5-2.8,0.5c-1.3,0-2.5-0.3-3.5-0.9c-1-0.6-1.8-1.5-2.4-2.6c-0.6-1.1-0.9-2.3-0.9-3.7c0-1.4,0.3-2.6,0.9-3.7
				c0.6-1.1,1.4-2,2.4-2.6c1-0.6,2.2-0.9,3.5-0.9c1.2,0,2.3,0.3,3.3,0.9c1,0.6,1.7,1.5,2.3,2.6s0.8,2.3,0.8,3.7V33.1z M152.3,28.3
				c-0.8,0.7-1.3,1.7-1.5,3h8.6c-0.2-1.2-0.6-2.2-1.4-3c-0.7-0.7-1.7-1.1-2.8-1.1C154.1,27.2,153.1,27.6,152.3,28.3z"/>
			<path class="st0" d="M174,25.7h2.1l0,12.7c0,1.2-0.3,2.2-0.8,3.1c-0.5,0.9-1.2,1.5-2.2,2c-0.9,0.5-2.1,0.7-3.3,0.7
				c-1.2,0-2.2-0.2-3.1-0.6c-0.9-0.4-1.7-0.9-2.2-1.6c-0.5-0.7-0.9-1.5-1-2.4h2.2c0.1,0.5,0.4,1,0.7,1.4c0.4,0.4,0.9,0.8,1.4,1
				c0.6,0.2,1.2,0.4,2,0.4c1.3,0,2.3-0.3,3-1c0.7-0.7,1.1-1.6,1.1-2.9v-1l0-1.4c-0.5,0.7-1.2,1.3-2,1.7c-0.8,0.4-1.7,0.6-2.7,0.6
				c-1.2,0-2.2-0.3-3.1-0.8s-1.6-1.3-2.2-2.3c-0.5-1-0.8-2.1-0.8-3.3s0.3-2.4,0.8-3.3c0.5-1,1.2-1.7,2.2-2.3c0.9-0.5,2-0.8,3.1-0.8
				c1,0,1.9,0.2,2.7,0.6c0.8,0.4,1.5,1,2,1.8V25.7z M171.9,35.8c0.6-0.4,1.2-0.9,1.5-1.6c0.4-0.7,0.5-1.5,0.5-2.4
				c0-0.9-0.2-1.7-0.5-2.4s-0.9-1.2-1.5-1.6c-0.6-0.4-1.4-0.6-2.2-0.6c-0.8,0-1.5,0.2-2.2,0.6c-0.6,0.4-1.1,0.9-1.5,1.6
				c-0.4,0.7-0.5,1.5-0.5,2.4c0,0.9,0.2,1.7,0.5,2.4c0.4,0.7,0.8,1.2,1.5,1.6c0.6,0.4,1.4,0.6,2.2,0.6
				C170.5,36.4,171.2,36.2,171.9,35.8z"/>
			<path class="st0" d="M179.4,23.2v-2.6h2.5v2.6H179.4z M181.7,39.5h-2.2V25.7h2.2V39.5z"/>
			<path class="st0" d="M194.4,26c0.8,0.4,1.4,1.1,1.8,1.9c0.4,0.8,0.6,1.8,0.6,2.9v8.7h-2.2v-8.5c0-1.2-0.3-2.1-0.9-2.8
				c-0.6-0.7-1.4-1-2.5-1c-0.8,0-1.5,0.2-2,0.5c-0.6,0.3-1,0.8-1.4,1.4c-0.3,0.6-0.5,1.3-0.5,2.2v8.2h-2.2V25.7h2.1v2.1
				c0.4-0.8,1-1.4,1.8-1.8c0.7-0.4,1.6-0.6,2.6-0.6C192.8,25.3,193.7,25.6,194.4,26z"/>
			<path class="st0" d="M209.3,26c0.8,0.4,1.4,1.1,1.8,1.9c0.4,0.8,0.6,1.8,0.6,2.9v8.7h-2.2v-8.5c0-1.2-0.3-2.1-0.9-2.8
				c-0.6-0.7-1.4-1-2.5-1c-0.8,0-1.5,0.2-2,0.5c-0.6,0.3-1,0.8-1.4,1.4c-0.3,0.6-0.5,1.3-0.5,2.2v8.2h-2.2V25.7h2.1v2.1
				c0.4-0.8,1-1.4,1.8-1.8c0.7-0.4,1.6-0.6,2.6-0.6C207.6,25.3,208.5,25.6,209.3,26z"/>
			<path class="st0" d="M227,33.1H216c0.1,0.9,0.3,1.8,0.7,2.5c0.4,0.7,1,1.3,1.6,1.7c0.7,0.4,1.4,0.6,2.3,0.6
				c0.6,0,1.1-0.1,1.7-0.3c0.5-0.2,1-0.4,1.4-0.8c0.4-0.3,0.7-0.7,0.8-1.1h2.1c-0.2,0.8-0.5,1.4-1.1,2c-0.6,0.6-1.3,1.1-2.2,1.4
				s-1.8,0.5-2.8,0.5c-1.3,0-2.5-0.3-3.5-0.9c-1-0.6-1.8-1.5-2.4-2.6c-0.6-1.1-0.9-2.3-0.9-3.7c0-1.4,0.3-2.6,0.9-3.7
				c0.6-1.1,1.4-2,2.4-2.6c1-0.6,2.2-0.9,3.5-0.9c1.2,0,2.3,0.3,3.3,0.9c1,0.6,1.7,1.5,2.3,2.6s0.8,2.3,0.8,3.7V33.1z M217.6,28.3
				c-0.8,0.7-1.3,1.7-1.5,3h8.6c-0.2-1.2-0.6-2.2-1.4-3c-0.7-0.7-1.7-1.1-2.8-1.1C219.4,27.2,218.4,27.6,217.6,28.3z"/>
			<path class="st0" d="M236.1,25.5v2.2h-0.5c-1.3,0-2.2,0.4-3,1.1c-0.7,0.8-1.1,1.8-1.1,3.2v7.4h-2.2V25.7h2.2v2.8
				c0.4-0.9,0.9-1.7,1.6-2.2c0.7-0.5,1.5-0.8,2.5-0.8H236.1z"/>
			<path class="st0" d="M273.8,39.5h-2.2V20.6h2.2v8.8l8.8-8.8h2.9l-9.1,9.1l9.3,9.8h-3l-8.9-9.3V39.5z"/>
			<path class="st0" d="M288.6,38.8c-1.1-0.6-1.9-1.5-2.5-2.6c-0.6-1.1-0.9-2.3-0.9-3.7s0.3-2.6,0.9-3.7c0.6-1.1,1.4-2,2.5-2.6
				c1.1-0.6,2.2-0.9,3.6-0.9s2.5,0.3,3.6,0.9c1.1,0.6,1.9,1.5,2.5,2.6c0.6,1.1,0.9,2.3,0.9,3.7s-0.3,2.6-0.9,3.7
				c-0.6,1.1-1.4,2-2.5,2.6s-2.2,0.9-3.6,0.9C290.8,39.8,289.6,39.5,288.6,38.8z M294.6,37.1c0.7-0.4,1.3-1,1.7-1.8
				c0.4-0.8,0.6-1.7,0.6-2.7s-0.2-1.9-0.6-2.7c-0.4-0.8-1-1.4-1.7-1.8s-1.5-0.7-2.4-0.7s-1.7,0.2-2.4,0.7c-0.7,0.4-1.3,1.1-1.7,1.8
				c-0.4,0.8-0.6,1.7-0.6,2.7s0.2,1.9,0.6,2.7c0.4,0.8,1,1.4,1.7,1.8c0.7,0.4,1.5,0.7,2.4,0.7S293.9,37.6,294.6,37.1z"/>
			<path class="st0" d="M305.3,39.5c-1,0-1.8-0.3-2.4-0.8c-0.6-0.5-0.9-1.3-0.9-2.2l0-8.9h-2.4l0-1.9h1.5c0.3,0,0.6-0.1,0.8-0.3
				c0.2-0.2,0.3-0.5,0.3-0.8v-2.3h1.9v3.4h3.3l0,1.9h-3.3l0,8.8c0,0.4,0.1,0.7,0.3,0.9c0.2,0.2,0.5,0.3,0.9,0.3h2.1v1.9H305.3z"/>
			<path class="st0" d="M312.2,39.5H310V20.6h2.2V39.5z"/>
			<path class="st0" d="M315.6,23.2v-2.6h2.5v2.6H315.6z M317.9,39.5h-2.2V25.7h2.2V39.5z"/>
			<path class="st0" d="M330.7,26c0.8,0.4,1.4,1.1,1.8,1.9c0.4,0.8,0.6,1.8,0.6,2.9v8.7h-2.2v-8.5c0-1.2-0.3-2.1-0.9-2.8
				c-0.6-0.7-1.4-1-2.5-1c-0.8,0-1.5,0.2-2,0.5c-0.6,0.3-1,0.8-1.4,1.4c-0.3,0.6-0.5,1.3-0.5,2.2v8.2h-2.2V25.7h2.1v2.1
				c0.4-0.8,1-1.4,1.8-1.8c0.7-0.4,1.6-0.6,2.6-0.6C329,25.3,329.9,25.6,330.7,26z"/>
			<path class="st0" d="M345.6,39.5c-1,0-1.8-0.3-2.4-0.8c-0.6-0.5-0.9-1.3-0.9-2.2l0-8.9h-2.4l0-1.9h1.5c0.3,0,0.6-0.1,0.8-0.3
				c0.2-0.2,0.3-0.5,0.3-0.8v-2.3h1.9v3.4h3.3l0,1.9h-3.3l0,8.8c0,0.4,0.1,0.7,0.3,0.9c0.2,0.2,0.5,0.3,0.9,0.3h2.1v1.9H345.6z"/>
			<path class="st0" d="M352.6,38.8c-1.1-0.6-1.9-1.5-2.5-2.6c-0.6-1.1-0.9-2.3-0.9-3.7s0.3-2.6,0.9-3.7c0.6-1.1,1.4-2,2.5-2.6
				c1.1-0.6,2.2-0.9,3.6-0.9s2.5,0.3,3.6,0.9c1.1,0.6,1.9,1.5,2.5,2.6c0.6,1.1,0.9,2.3,0.9,3.7s-0.3,2.6-0.9,3.7
				c-0.6,1.1-1.4,2-2.5,2.6s-2.2,0.9-3.6,0.9C354.9,39.8,353.7,39.5,352.6,38.8z M358.6,37.1c0.7-0.4,1.3-1,1.7-1.8
				c0.4-0.8,0.6-1.7,0.6-2.7s-0.2-1.9-0.6-2.7c-0.4-0.8-1-1.4-1.7-1.8s-1.5-0.7-2.4-0.7s-1.7,0.2-2.4,0.7c-0.7,0.4-1.3,1.1-1.7,1.8
				c-0.4,0.8-0.6,1.7-0.6,2.7s0.2,1.9,0.6,2.7c0.4,0.8,1,1.4,1.7,1.8c0.7,0.4,1.5,0.7,2.4,0.7S357.9,37.6,358.6,37.1z"/>
			<path class="st0" d="M374.7,25.7h2.2v13.8h-2.1v-2.1c-0.4,0.8-1,1.4-1.8,1.8c-0.7,0.4-1.6,0.6-2.6,0.6c-1,0-1.9-0.2-2.7-0.7
				c-0.8-0.4-1.4-1.1-1.8-1.9c-0.4-0.8-0.6-1.8-0.6-2.9v-8.7h2.2v8.5c0,1.2,0.3,2.1,0.9,2.8c0.6,0.7,1.4,1,2.5,1
				c0.8,0,1.5-0.2,2-0.5c0.6-0.3,1-0.8,1.4-1.4c0.3-0.6,0.5-1.3,0.5-2.2V25.7z"/>
			<path class="st0" d="M387.1,25.5v2.2h-0.5c-1.3,0-2.2,0.4-3,1.1c-0.7,0.8-1.1,1.8-1.1,3.2v7.4h-2.2V25.7h2.2v2.8
				c0.4-0.9,0.9-1.7,1.6-2.2c0.7-0.5,1.5-0.8,2.5-0.8H387.1z"/>
			<path class="st0" d="M416.8,39.5l-1.5-1.5l6.1-6h-26.1v-2.1h26.1l-6.1-6.1l1.5-1.5l8.6,8.6L416.8,39.5z"/>
		</g>
		<g>
			<polygon class="st0" points="266.7,39.5 247.8,39.5 247.8,20.6 266.7,20.6 257.2,30 			"/>
		</g>
	</g>
</g>
</svg>
