<svg width="370" height="36" viewBox="0 0 370 36" fill="none" xmlns="http://www.w3.org/2000/svg">
<g clip-path="url(#clip0_8563_336)">
<rect width="370" height="36" rx="18" fill="black"/>
<path d="M16.1055 7.1H18.3465V26H16.1055V7.1ZM21.8799 12.176H23.9589V18.1565H23.0949C23.0949 16.8785 23.3154 15.767 23.7564 14.822C24.1974 13.868 24.8274 13.1345 25.6464 12.6215C26.4654 12.1085 27.4284 11.852 28.5354 11.852C29.5254 11.852 30.4029 12.0635 31.1679 12.4865C31.9329 12.9095 32.5314 13.535 32.9634 14.363C33.4044 15.182 33.6249 16.1675 33.6249 17.3195V26H31.4649V17.5355C31.4649 16.7345 31.3209 16.0505 31.0329 15.4835C30.7539 14.9165 30.3534 14.4845 29.8314 14.1875C29.3094 13.8905 28.6884 13.742 27.9684 13.742C27.1944 13.742 26.5104 13.913 25.9164 14.255C25.3224 14.597 24.8589 15.0785 24.5259 15.6995C24.2019 16.3115 24.0399 17.0135 24.0399 17.8055V26H21.8799V12.176ZM41.0193 26C40.3623 26 39.7638 25.8605 39.2238 25.5815C38.6928 25.2935 38.2743 24.902 37.9683 24.407C37.6623 23.903 37.5093 23.345 37.5093 22.733L37.4958 14.093H35.0658L35.0793 12.176H36.5778C36.9198 12.176 37.1943 12.068 37.4013 11.852C37.6173 11.636 37.7253 11.3615 37.7253 11.0285V8.801H39.6693V12.176H43.4088L43.3953 14.093H39.6558L39.6693 22.598C39.6693 23.021 39.8088 23.3765 40.0878 23.6645C40.3758 23.9435 40.7313 24.083 41.1543 24.083H43.3953V26H41.0193ZM51.1154 26.324C49.8104 26.324 48.6314 26.0135 47.5784 25.3925C46.5254 24.7715 45.6974 23.9075 45.0944 22.8005C44.4914 21.6935 44.1899 20.447 44.1899 19.061C44.1899 17.711 44.4959 16.487 45.1079 15.389C45.7199 14.282 46.5524 13.418 47.6054 12.797C48.6674 12.167 49.8374 11.852 51.1154 11.852C52.4294 11.852 53.5949 12.158 54.6119 12.77C55.6289 13.373 56.4209 14.2235 56.9879 15.3215C57.5549 16.4195 57.8384 17.675 57.8384 19.088V19.574H46.3364L46.3634 19.0205C46.3724 20.0915 46.5749 21.032 46.9709 21.842C47.3759 22.643 47.9339 23.264 48.6449 23.705C49.3559 24.146 50.1794 24.3665 51.1154 24.3665C51.9524 24.3665 52.6949 24.2045 53.3429 23.8805C53.9909 23.5565 54.5219 23.093 54.9359 22.49H57.3389C56.9969 23.282 56.5244 23.966 55.9214 24.542C55.3274 25.109 54.6209 25.55 53.8019 25.865C52.9829 26.171 52.0874 26.324 51.1154 26.324ZM46.3364 17.8595H55.6784V19.061C55.6784 18.026 55.4849 17.1125 55.0979 16.3205C54.7199 15.5195 54.1844 14.8985 53.4914 14.4575C52.7984 14.0165 52.0064 13.796 51.1154 13.796C50.1884 13.796 49.3649 14.012 48.6449 14.444C47.9249 14.876 47.3624 15.4835 46.9574 16.2665C46.5614 17.0495 46.3634 17.9495 46.3634 18.9665L46.3364 17.8595ZM59.9383 12.176H62.0983V16.8065L61.1938 18.1565C61.2298 16.9145 61.4548 15.8345 61.8688 14.9165C62.2918 13.9895 62.8768 13.2785 63.6238 12.7835C64.3708 12.2885 65.2393 12.041 66.2293 12.041H66.7153V14.2955H66.1483C65.3293 14.2955 64.6138 14.453 64.0018 14.768C63.3898 15.083 62.9173 15.533 62.5843 16.118C62.2603 16.694 62.0983 17.3735 62.0983 18.1565V26H59.9383V12.176ZM68.2651 12.176H70.3441V18.1565H69.6151C69.6151 16.8605 69.8131 15.74 70.2091 14.795C70.6141 13.85 71.1946 13.1255 71.9506 12.6215C72.7066 12.1085 73.6066 11.852 74.6506 11.852C75.6316 11.852 76.4911 12.077 77.2291 12.527C77.9671 12.968 78.5386 13.598 78.9436 14.417C79.3486 15.236 79.5511 16.19 79.5511 17.279V26H77.3911V17.3735C77.3911 16.6175 77.2606 15.965 76.9996 15.416C76.7476 14.858 76.3741 14.4305 75.8791 14.1335C75.3931 13.8365 74.8081 13.688 74.1241 13.688C73.3771 13.688 72.7246 13.8545 72.1666 14.1875C71.6086 14.5205 71.1766 14.9975 70.8706 15.6185C70.5736 16.2395 70.4251 16.9685 70.4251 17.8055V26H68.2651V12.176ZM86.5171 17.3735C86.5171 16.6175 86.3866 15.965 86.1256 15.416C85.8736 14.858 85.5046 14.4305 85.0186 14.1335C84.5326 13.8365 83.9431 13.688 83.2501 13.688C82.5121 13.688 81.8641 13.859 81.3061 14.201C80.7481 14.534 80.3161 15.011 80.0101 15.632C79.7041 16.244 79.5511 16.9685 79.5511 17.8055L78.3361 18.1565C78.3361 16.9145 78.5521 15.8165 78.9841 14.8625C79.4161 13.9085 80.0326 13.1705 80.8336 12.6485C81.6436 12.1175 82.5841 11.852 83.6551 11.852C84.6361 11.852 85.5046 12.077 86.2606 12.527C87.0256 12.968 87.6196 13.598 88.0426 14.417C88.4656 15.236 88.6771 16.19 88.6771 17.279V26H86.5171V17.3735ZM97.2949 26.324C95.9899 26.324 94.8109 26.0135 93.7579 25.3925C92.7049 24.7715 91.8769 23.9075 91.2739 22.8005C90.6709 21.6935 90.3694 20.447 90.3694 19.061C90.3694 17.711 90.6754 16.487 91.2874 15.389C91.8994 14.282 92.7319 13.418 93.7849 12.797C94.8469 12.167 96.0169 11.852 97.2949 11.852C98.6089 11.852 99.7744 12.158 100.791 12.77C101.808 13.373 102.6 14.2235 103.167 15.3215C103.734 16.4195 104.018 17.675 104.018 19.088V19.574H92.5159L92.5429 19.0205C92.5519 20.0915 92.7544 21.032 93.1504 21.842C93.5554 22.643 94.1134 23.264 94.8244 23.705C95.5354 24.146 96.3589 24.3665 97.2949 24.3665C98.1319 24.3665 98.8744 24.2045 99.5224 23.8805C100.17 23.5565 100.701 23.093 101.115 22.49H103.518C103.176 23.282 102.704 23.966 102.101 24.542C101.507 25.109 100.8 25.55 99.9814 25.865C99.1624 26.171 98.2669 26.324 97.2949 26.324ZM92.5159 17.8595H101.858V19.061C101.858 18.026 101.664 17.1125 101.277 16.3205C100.899 15.5195 100.364 14.8985 99.6709 14.4575C98.9779 14.0165 98.1859 13.796 97.2949 13.796C96.3679 13.796 95.5444 14.012 94.8244 14.444C94.1044 14.876 93.5419 15.4835 93.1369 16.2665C92.7409 17.0495 92.5429 17.9495 92.5429 18.9665L92.5159 17.8595ZM116.742 7.1H118.902V26H116.742V7.1ZM111.653 26.324C110.366 26.324 109.218 26.0225 108.21 25.4195C107.211 24.8075 106.428 23.9525 105.861 22.8545C105.303 21.7565 105.024 20.501 105.024 19.088C105.024 17.675 105.303 16.4195 105.861 15.3215C106.428 14.2235 107.211 13.373 108.21 12.77C109.218 12.158 110.366 11.852 111.653 11.852C112.841 11.852 113.889 12.1175 114.798 12.6485C115.707 13.1705 116.414 13.9085 116.918 14.8625C117.431 15.8075 117.696 16.9055 117.714 18.1565H116.823V20.0195H117.714C117.696 21.2705 117.431 22.373 116.918 23.327C116.414 24.272 115.707 25.01 114.798 25.541C113.889 26.063 112.841 26.324 111.653 26.324ZM111.99 24.3665C112.917 24.3665 113.741 24.146 114.461 23.705C115.181 23.255 115.739 22.634 116.135 21.842C116.54 21.041 116.742 20.123 116.742 19.088C116.742 18.053 116.54 17.1395 116.135 16.3475C115.739 15.5465 115.181 14.9255 114.461 14.4845C113.741 14.0345 112.917 13.8095 111.99 13.8095C111.072 13.8095 110.258 14.0345 109.547 14.4845C108.836 14.9255 108.282 15.5465 107.886 16.3475C107.49 17.1395 107.292 18.053 107.292 19.088C107.292 20.123 107.49 21.041 107.886 21.842C108.282 22.634 108.836 23.255 109.547 23.705C110.258 24.146 111.072 24.3665 111.99 24.3665ZM122.091 12.176H124.251V26H122.091V12.176ZM121.983 7.1H124.359V9.557H121.983V7.1ZM132.312 11.852C133.383 11.852 134.305 12.05 135.079 12.446C135.862 12.833 136.461 13.391 136.875 14.12C137.298 14.849 137.509 15.713 137.509 16.712V26H135.376V20.8295H136.186C136.186 21.9275 135.97 22.895 135.538 23.732C135.115 24.56 134.512 25.199 133.729 25.649C132.946 26.099 132.037 26.324 131.002 26.324C130.12 26.324 129.324 26.153 128.613 25.811C127.911 25.469 127.362 24.9965 126.966 24.3935C126.57 23.7905 126.372 23.111 126.372 22.355C126.372 21.626 126.561 20.951 126.939 20.33C127.317 19.709 127.839 19.2005 128.505 18.8045C129.171 18.4085 129.922 18.1655 130.759 18.0755L134.377 17.6705C134.683 17.6345 134.926 17.513 135.106 17.306C135.286 17.09 135.394 16.7705 135.43 16.3475L135.511 19.1825L131.07 19.6685C130.593 19.7225 130.165 19.871 129.787 20.114C129.418 20.348 129.13 20.654 128.923 21.032C128.716 21.401 128.613 21.806 128.613 22.247C128.613 22.697 128.734 23.0975 128.977 23.4485C129.22 23.7905 129.558 24.056 129.99 24.245C130.431 24.434 130.935 24.5285 131.502 24.5285C132.249 24.5285 132.915 24.3755 133.5 24.0695C134.085 23.7545 134.539 23.318 134.863 22.76C135.187 22.202 135.349 21.5585 135.349 20.8295V16.442C135.349 15.893 135.223 15.416 134.971 15.011C134.728 14.606 134.377 14.2955 133.918 14.0795C133.459 13.8545 132.924 13.742 132.312 13.742C131.691 13.742 131.142 13.841 130.665 14.039C130.197 14.228 129.823 14.4845 129.544 14.8085C129.265 15.1325 129.09 15.479 129.018 15.848H126.858C126.975 15.101 127.272 14.426 127.749 13.823C128.235 13.211 128.869 12.7295 129.652 12.3785C130.435 12.0275 131.322 11.852 132.312 11.852ZM144.89 26C144.233 26 143.635 25.8605 143.095 25.5815C142.564 25.2935 142.145 24.902 141.839 24.407C141.533 23.903 141.38 23.345 141.38 22.733L141.367 14.093H138.937L138.95 12.176H140.449C140.791 12.176 141.065 12.068 141.272 11.852C141.488 11.636 141.596 11.3615 141.596 11.0285V8.801H143.54V12.176H147.28L147.266 14.093H143.527L143.54 22.598C143.54 23.021 143.68 23.3765 143.959 23.6645C144.247 23.9435 144.602 24.083 145.025 24.083H147.266V26H144.89ZM154.986 26.324C153.681 26.324 152.502 26.0135 151.449 25.3925C150.396 24.7715 149.568 23.9075 148.965 22.8005C148.362 21.6935 148.061 20.447 148.061 19.061C148.061 17.711 148.367 16.487 148.979 15.389C149.591 14.282 150.423 13.418 151.476 12.797C152.538 12.167 153.708 11.852 154.986 11.852C156.3 11.852 157.466 12.158 158.483 12.77C159.5 13.373 160.292 14.2235 160.859 15.3215C161.426 16.4195 161.709 17.675 161.709 19.088V19.574H150.207L150.234 19.0205C150.243 20.0915 150.446 21.032 150.842 21.842C151.247 22.643 151.805 23.264 152.516 23.705C153.227 24.146 154.05 24.3665 154.986 24.3665C155.823 24.3665 156.566 24.2045 157.214 23.8805C157.862 23.5565 158.393 23.093 158.807 22.49H161.21C160.868 23.282 160.395 23.966 159.792 24.542C159.198 25.109 158.492 25.55 157.673 25.865C156.854 26.171 155.958 26.324 154.986 26.324ZM150.207 17.8595H159.549V19.061C159.549 18.026 159.356 17.1125 158.969 16.3205C158.591 15.5195 158.055 14.8985 157.362 14.4575C156.669 14.0165 155.877 13.796 154.986 13.796C154.059 13.796 153.236 14.012 152.516 14.444C151.796 14.876 151.233 15.4835 150.828 16.2665C150.432 17.0495 150.234 17.9495 150.234 18.9665L150.207 17.8595Z" fill="white"/>
<path d="M191.4 27.3461H172.5V8.65384H191.4L181.9 17.9505L191.4 27.3461Z" fill="white"/>
<path d="M202.006 7.1H204.166V15.956L213.022 7.1H215.965L206.798 16.226L216.127 26H213.103L204.166 16.658V26H202.006V7.1ZM222.303 26.324C220.98 26.324 219.778 26.009 218.698 25.379C217.627 24.749 216.786 23.885 216.174 22.787C215.562 21.68 215.256 20.447 215.256 19.088C215.256 17.729 215.562 16.5005 216.174 15.4025C216.786 14.2955 217.627 13.427 218.698 12.797C219.778 12.167 220.98 11.852 222.303 11.852C223.626 11.852 224.823 12.167 225.894 12.797C226.974 13.427 227.82 14.2955 228.432 15.4025C229.044 16.5005 229.35 17.729 229.35 19.088C229.35 20.447 229.044 21.68 228.432 22.787C227.82 23.885 226.974 24.749 225.894 25.379C224.823 26.009 223.626 26.324 222.303 26.324ZM222.303 24.353C223.239 24.353 224.067 24.1325 224.787 23.6915C225.516 23.2415 226.078 22.6205 226.474 21.8285C226.879 21.0275 227.082 20.114 227.082 19.088C227.082 18.053 226.879 17.1395 226.474 16.3475C226.078 15.5465 225.516 14.9255 224.787 14.4845C224.067 14.0345 223.239 13.8095 222.303 13.8095C221.367 13.8095 220.534 14.0345 219.805 14.4845C219.085 14.9255 218.523 15.5465 218.118 16.3475C217.722 17.1395 217.524 18.053 217.524 19.088C217.524 20.114 217.722 21.0275 218.118 21.8285C218.523 22.6205 219.085 23.2415 219.805 23.6915C220.534 24.1325 221.367 24.353 222.303 24.353ZM235.963 26C235.306 26 234.708 25.8605 234.168 25.5815C233.637 25.2935 233.218 24.902 232.912 24.407C232.606 23.903 232.453 23.345 232.453 22.733L232.44 14.093H230.01L230.023 12.176H231.522C231.864 12.176 232.138 12.068 232.345 11.852C232.561 11.636 232.669 11.3615 232.669 11.0285V8.801H234.613V12.176H238.353L238.339 14.093H234.6L234.613 22.598C234.613 23.021 234.753 23.3765 235.032 23.6645C235.32 23.9435 235.675 24.083 236.098 24.083H238.339V26H235.963ZM240.589 7.1H242.749V26H240.589V7.1ZM246.155 12.176H248.315V26H246.155V12.176ZM246.047 7.1H248.423V9.557H246.047V7.1ZM251.502 12.176H253.581V18.1565H252.717C252.717 16.8785 252.938 15.767 253.379 14.822C253.82 13.868 254.45 13.1345 255.269 12.6215C256.088 12.1085 257.051 11.852 258.158 11.852C259.148 11.852 260.025 12.0635 260.79 12.4865C261.555 12.9095 262.154 13.535 262.586 14.363C263.027 15.182 263.247 16.1675 263.247 17.3195V26H261.087V17.5355C261.087 16.7345 260.943 16.0505 260.655 15.4835C260.376 14.9165 259.976 14.4845 259.454 14.1875C258.932 13.8905 258.311 13.742 257.591 13.742C256.817 13.742 256.133 13.913 255.539 14.255C254.945 14.597 254.481 15.0785 254.148 15.6995C253.824 16.3115 253.662 17.0135 253.662 17.8055V26H251.502V12.176ZM276.991 26C276.334 26 275.735 25.8605 275.195 25.5815C274.664 25.2935 274.246 24.902 273.94 24.407C273.634 23.903 273.481 23.345 273.481 22.733L273.467 14.093H271.037L271.051 12.176H272.549C272.891 12.176 273.166 12.068 273.373 11.852C273.589 11.636 273.697 11.3615 273.697 11.0285V8.801H275.641V12.176H279.38L279.367 14.093H275.627L275.641 22.598C275.641 23.021 275.78 23.3765 276.059 23.6645C276.347 23.9435 276.703 24.083 277.126 24.083H279.367V26H276.991ZM287.208 26.324C285.885 26.324 284.684 26.009 283.604 25.379C282.533 24.749 281.691 23.885 281.079 22.787C280.467 21.68 280.161 20.447 280.161 19.088C280.161 17.729 280.467 16.5005 281.079 15.4025C281.691 14.2955 282.533 13.427 283.604 12.797C284.684 12.167 285.885 11.852 287.208 11.852C288.531 11.852 289.728 12.167 290.799 12.797C291.879 13.427 292.725 14.2955 293.337 15.4025C293.949 16.5005 294.255 17.729 294.255 19.088C294.255 20.447 293.949 21.68 293.337 22.787C292.725 23.885 291.879 24.749 290.799 25.379C289.728 26.009 288.531 26.324 287.208 26.324ZM287.208 24.353C288.144 24.353 288.972 24.1325 289.692 23.6915C290.421 23.2415 290.984 22.6205 291.38 21.8285C291.785 21.0275 291.987 20.114 291.987 19.088C291.987 18.053 291.785 17.1395 291.38 16.3475C290.984 15.5465 290.421 14.9255 289.692 14.4845C288.972 14.0345 288.144 13.8095 287.208 13.8095C286.272 13.8095 285.44 14.0345 284.711 14.4845C283.991 14.9255 283.428 15.5465 283.023 16.3475C282.627 17.1395 282.429 18.053 282.429 19.088C282.429 20.114 282.627 21.0275 283.023 21.8285C283.428 22.6205 283.991 23.2415 284.711 23.6915C285.44 24.1325 286.272 24.353 287.208 24.353ZM307.711 26H305.632V20.0195H306.496C306.496 21.2975 306.276 22.4135 305.835 23.3675C305.394 24.3125 304.764 25.0415 303.945 25.5545C303.126 26.0675 302.163 26.324 301.056 26.324C300.066 26.324 299.188 26.1125 298.423 25.6895C297.658 25.2665 297.055 24.6455 296.614 23.8265C296.182 22.9985 295.966 22.0085 295.966 20.8565V12.176H298.126V20.6405C298.126 21.4415 298.266 22.1255 298.545 22.6925C298.833 23.2595 299.238 23.6915 299.76 23.9885C300.282 24.2855 300.903 24.434 301.623 24.434C302.397 24.434 303.081 24.263 303.675 23.921C304.269 23.579 304.728 23.102 305.052 22.49C305.385 21.869 305.551 21.1625 305.551 20.3705V12.176H307.711V26ZM310.96 12.176H313.12V16.8065L312.216 18.1565C312.252 16.9145 312.477 15.8345 312.891 14.9165C313.314 13.9895 313.899 13.2785 314.646 12.7835C315.393 12.2885 316.261 12.041 317.251 12.041H317.737V14.2955H317.17C316.351 14.2955 315.636 14.453 315.024 14.768C314.412 15.083 313.939 15.533 313.606 16.118C313.282 16.694 313.12 17.3735 313.12 18.1565V26H310.96V12.176Z" fill="white"/>
<path d="M347.9 26.5055L346.4 25.022L352.5 19.0879H326.4V17.011H352.5L346.4 10.978L347.9 9.49451L356.5 18L347.9 26.5055Z" fill="white"/>
</g>
<defs>
<clipPath id="clip0_8563_336">
<rect width="370" height="36" fill="white"/>
</clipPath>
</defs>
</svg>
