<?xml version="1.0" encoding="utf-8"?>
<!-- Generator: Adobe Illustrator 24.1.2, SVG Export Plug-In . SVG Version: 6.00 Build 0)  -->
<svg version="1.1" id="Layer_1" xmlns="http://www.w3.org/2000/svg" xmlns:xlink="http://www.w3.org/1999/xlink" x="0px" y="0px"
	 viewBox="0 0 500 60" style="enable-background:new 0 0 500 60;" xml:space="preserve">
<style type="text/css">
	.st0{fill:#FFFFFF;}
</style>
<g>
	<g>
		<g>
			<g>
				<path d="M371.6,11.8l-243.2,0c-10.1,0-18.2,8.2-18.2,18.2c0,10.1,8.2,18.2,18.2,18.2l243.2,0c4.9,0,9.5-1.9,12.9-5.3
					c3.4-3.4,5.3-8,5.3-12.9C389.9,19.9,381.7,11.8,371.6,11.8z"/>
			</g>
			<g>
				<path class="st0" d="M131.5,39.1c-1-0.5-1.8-1.1-2.3-2c-0.6-0.9-0.8-1.8-0.8-2.9h2.3c0,0.7,0.2,1.3,0.6,1.9
					c0.4,0.5,0.9,1,1.5,1.3c0.7,0.3,1.4,0.5,2.3,0.5c0.8,0,1.6-0.1,2.2-0.4c0.7-0.3,1.2-0.7,1.5-1.2c0.4-0.5,0.5-1.1,0.5-1.8
					c0-0.8-0.2-1.5-0.7-2c-0.5-0.6-1.2-0.9-2-1.1l-3.3-0.6c-0.9-0.2-1.7-0.5-2.3-1c-0.7-0.5-1.2-1.1-1.5-1.8s-0.5-1.5-0.5-2.3
					c0-1,0.3-1.9,0.8-2.7c0.5-0.8,1.2-1.4,2.2-1.8s2-0.7,3.2-0.7c1.2,0,2.3,0.2,3.2,0.7c0.9,0.4,1.7,1.1,2.2,1.9
					c0.5,0.8,0.8,1.7,0.8,2.7h-2.3c0-0.6-0.2-1.2-0.5-1.7c-0.3-0.5-0.8-0.9-1.4-1.1c-0.6-0.3-1.3-0.4-2-0.4c-0.7,0-1.4,0.1-2,0.4
					c-0.6,0.3-1,0.6-1.4,1.1c-0.3,0.5-0.5,1-0.5,1.7c0,0.8,0.2,1.4,0.7,1.9c0.4,0.5,1.1,0.9,1.9,1l3.5,0.7c0.9,0.2,1.6,0.5,2.3,1
					s1.2,1.1,1.6,1.8c0.4,0.7,0.6,1.5,0.6,2.4c0,1.1-0.3,2-0.8,2.8c-0.6,0.8-1.3,1.5-2.3,1.9c-1,0.5-2.1,0.7-3.4,0.7
					C133.6,39.8,132.5,39.5,131.5,39.1z"/>
				<path class="st0" d="M148.1,39.5c-1,0-1.8-0.3-2.4-0.8c-0.6-0.5-0.9-1.3-0.9-2.2l0-8.9h-2.4l0-1.9h1.5c0.3,0,0.6-0.1,0.8-0.3
					c0.2-0.2,0.3-0.5,0.3-0.8v-2.3h1.9v3.4h3.3l0,1.9H147l0,8.8c0,0.4,0.1,0.7,0.3,0.9c0.2,0.2,0.5,0.3,0.9,0.3h2.1v1.9H148.1z"/>
				<path class="st0" d="M160.8,25.9c0.8,0.4,1.4,0.9,1.8,1.7c0.4,0.7,0.6,1.6,0.6,2.6v9.3h-2.1v-2c-0.4,0.8-1,1.4-1.8,1.8
					c-0.8,0.4-1.7,0.6-2.8,0.6c-0.9,0-1.7-0.2-2.4-0.5c-0.7-0.3-1.3-0.8-1.6-1.4s-0.6-1.3-0.6-2.1c0-0.7,0.2-1.4,0.5-2
					c0.4-0.6,0.9-1.1,1.5-1.5c0.6-0.4,1.4-0.6,2.2-0.7l4-0.4c0.3,0,0.5-0.2,0.7-0.4c0.2-0.2,0.3-0.5,0.3-1c0-0.5-0.1-1-0.4-1.4
					c-0.3-0.4-0.6-0.7-1.1-1c-0.5-0.2-1-0.3-1.6-0.3c-0.6,0-1.2,0.1-1.7,0.3s-0.9,0.5-1.2,0.8c-0.3,0.4-0.5,0.8-0.6,1.2h-2.1
					c0.1-0.8,0.4-1.5,0.9-2.1s1.2-1.1,2-1.5s1.7-0.6,2.7-0.6C159.1,25.3,160,25.5,160.8,25.9z M159.1,37.6c0.6-0.3,1.1-0.8,1.5-1.3
					c0.4-0.6,0.5-1.2,0.5-2v-1.6l-4.7,0.5c-0.7,0.1-1.3,0.3-1.7,0.8s-0.7,1-0.7,1.7c0,0.5,0.1,0.9,0.4,1.2c0.2,0.4,0.6,0.6,1,0.9
					c0.4,0.2,0.9,0.3,1.5,0.3C157.8,38.1,158.5,37.9,159.1,37.6z"/>
				<path class="st0" d="M173.2,25.5v2.2h-0.5c-1.3,0-2.2,0.4-3,1.1c-0.7,0.8-1.1,1.8-1.1,3.2v7.4h-2.2V25.7h2.2v2.8
					c0.4-0.9,0.9-1.7,1.6-2.2c0.7-0.5,1.5-0.8,2.5-0.8H173.2z"/>
				<path class="st0" d="M178.2,39.5c-1,0-1.8-0.3-2.4-0.8c-0.6-0.5-0.9-1.3-0.9-2.2V22.2h2.2v3.4h3.2l0,1.9h-3.2l0,8.8
					c0,0.4,0.1,0.7,0.3,0.9c0.2,0.2,0.5,0.3,0.9,0.3h2v1.9H178.2z"/>
				<path class="st0" d="M219,39.5h-2.2V20.6h2.2v8.8l8.8-8.8h2.9l-9.1,9.1l9.3,9.8h-3l-8.9-9.3V39.5z"/>
				<path class="st0" d="M233.8,38.8c-1.1-0.6-1.9-1.5-2.5-2.6c-0.6-1.1-0.9-2.3-0.9-3.7s0.3-2.6,0.9-3.7c0.6-1.1,1.4-2,2.5-2.6
					c1.1-0.6,2.2-0.9,3.6-0.9s2.5,0.3,3.6,0.9c1.1,0.6,1.9,1.5,2.5,2.6c0.6,1.1,0.9,2.3,0.9,3.7s-0.3,2.6-0.9,3.7
					c-0.6,1.1-1.4,2-2.5,2.6s-2.2,0.9-3.6,0.9C236.1,39.8,234.9,39.5,233.8,38.8z M239.8,37.1c0.7-0.4,1.3-1,1.7-1.8
					c0.4-0.8,0.6-1.7,0.6-2.7s-0.2-1.9-0.6-2.7c-0.4-0.8-1-1.4-1.7-1.8s-1.5-0.7-2.4-0.7s-1.7,0.2-2.4,0.7c-0.7,0.4-1.3,1.1-1.7,1.8
					c-0.4,0.8-0.6,1.7-0.6,2.7s0.2,1.9,0.6,2.7c0.4,0.8,1,1.4,1.7,1.8c0.7,0.4,1.5,0.7,2.4,0.7S239.1,37.6,239.8,37.1z"/>
				<path class="st0" d="M250.5,39.5c-1,0-1.8-0.3-2.4-0.8c-0.6-0.5-0.9-1.3-0.9-2.2l0-8.9h-2.4l0-1.9h1.5c0.3,0,0.6-0.1,0.8-0.3
					c0.2-0.2,0.3-0.5,0.3-0.8v-2.3h1.9v3.4h3.3l0,1.9h-3.3l0,8.8c0,0.4,0.1,0.7,0.3,0.9c0.2,0.2,0.5,0.3,0.9,0.3h2.1v1.9H250.5z"/>
				<path class="st0" d="M257.4,39.5h-2.2V20.6h2.2V39.5z"/>
				<path class="st0" d="M260.8,23.2v-2.6h2.5v2.6H260.8z M263.1,39.5H261V25.7h2.2V39.5z"/>
				<path class="st0" d="M275.9,26c0.8,0.4,1.4,1.1,1.8,1.9c0.4,0.8,0.6,1.8,0.6,2.9v8.7h-2.2v-8.5c0-1.2-0.3-2.1-0.9-2.8
					c-0.6-0.7-1.4-1-2.5-1c-0.8,0-1.5,0.2-2,0.5c-0.6,0.3-1,0.8-1.4,1.4c-0.3,0.6-0.5,1.3-0.5,2.2v8.2h-2.2V25.7h2.1v2.1
					c0.4-0.8,1-1.4,1.8-1.8c0.7-0.4,1.6-0.6,2.6-0.6C274.2,25.3,275.1,25.6,275.9,26z"/>
				<path class="st0" d="M290.8,39.5c-1,0-1.8-0.3-2.4-0.8c-0.6-0.5-0.9-1.3-0.9-2.2l0-8.9h-2.4l0-1.9h1.5c0.3,0,0.6-0.1,0.8-0.3
					c0.2-0.2,0.3-0.5,0.3-0.8v-2.3h1.9v3.4h3.3l0,1.9h-3.3l0,8.8c0,0.4,0.1,0.7,0.3,0.9c0.2,0.2,0.5,0.3,0.9,0.3h2.1v1.9H290.8z"/>
				<path class="st0" d="M297.9,38.8c-1.1-0.6-1.9-1.5-2.5-2.6c-0.6-1.1-0.9-2.3-0.9-3.7s0.3-2.6,0.9-3.7c0.6-1.1,1.4-2,2.5-2.6
					c1.1-0.6,2.2-0.9,3.6-0.9s2.5,0.3,3.6,0.9c1.1,0.6,1.9,1.5,2.5,2.6c0.6,1.1,0.9,2.3,0.9,3.7s-0.3,2.6-0.9,3.7
					c-0.6,1.1-1.4,2-2.5,2.6s-2.2,0.9-3.6,0.9C300.1,39.8,298.9,39.5,297.9,38.8z M303.8,37.1c0.7-0.4,1.3-1,1.7-1.8
					c0.4-0.8,0.6-1.7,0.6-2.7s-0.2-1.9-0.6-2.7c-0.4-0.8-1-1.4-1.7-1.8s-1.5-0.7-2.4-0.7s-1.7,0.2-2.4,0.7c-0.7,0.4-1.3,1.1-1.7,1.8
					c-0.4,0.8-0.6,1.7-0.6,2.7s0.2,1.9,0.6,2.7c0.4,0.8,1,1.4,1.7,1.8c0.7,0.4,1.5,0.7,2.4,0.7S303.1,37.6,303.8,37.1z"/>
				<path class="st0" d="M320,25.7h2.2v13.8H320v-2.1c-0.4,0.8-1,1.4-1.8,1.8c-0.7,0.4-1.6,0.6-2.6,0.6c-1,0-1.9-0.2-2.7-0.7
					c-0.8-0.4-1.4-1.1-1.8-1.9c-0.4-0.8-0.6-1.8-0.6-2.9v-8.7h2.2v8.5c0,1.2,0.3,2.1,0.9,2.8c0.6,0.7,1.4,1,2.5,1
					c0.8,0,1.5-0.2,2-0.5c0.6-0.3,1-0.8,1.4-1.4c0.3-0.6,0.5-1.3,0.5-2.2V25.7z"/>
				<path class="st0" d="M332.4,25.5v2.2h-0.5c-1.3,0-2.2,0.4-3,1.1c-0.7,0.8-1.1,1.8-1.1,3.2v7.4h-2.2V25.7h2.2v2.8
					c0.4-0.9,0.9-1.7,1.6-2.2c0.7-0.5,1.5-0.8,2.5-0.8H332.4z"/>
				<path class="st0" d="M362,39.5l-1.5-1.5l6.1-6h-26.1v-2.1h26.1l-6.1-6.1l1.5-1.5l8.6,8.6L362,39.5z"/>
			</g>
		</g>
	</g>
	<g>
		<polygon class="st0" points="211.9,39.5 193,39.5 193,20.6 211.9,20.6 202.4,30 		"/>
	</g>
</g>
</svg>
