<svg width="706" height="52" viewBox="0 0 706 52" fill="none" xmlns="http://www.w3.org/2000/svg">
<rect width="706" height="52" fill="white"/>
<rect x="153" y="10" width="400" height="31.4422" rx="15.7211" fill="black"/>
<path d="M173.192 18.483H174.998V33.7211H173.192V18.483ZM178.936 22.5755H180.612V24.3823C180.982 23.722 181.483 23.214 182.114 22.8585C182.745 22.4957 183.474 22.3143 184.302 22.3143C185.1 22.3143 185.807 22.4848 186.424 22.8258C187.041 23.1669 187.523 23.6712 187.872 24.3388C188.227 24.9991 188.405 25.7936 188.405 26.7224V33.7211H186.664V26.8966C186.664 25.9315 186.413 25.1805 185.913 24.6435C185.412 24.1066 184.723 23.8381 183.845 23.8381C183.221 23.8381 182.669 23.9759 182.19 24.2517C181.711 24.5274 181.338 24.9156 181.069 25.4163C180.808 25.9097 180.677 26.4757 180.677 27.1143V33.7211H178.936V22.5755ZM195.455 33.7211C194.926 33.7211 194.443 33.6086 194.008 33.3837C193.58 33.1515 193.242 32.8358 192.995 32.4367C192.749 32.0304 192.625 31.5805 192.625 31.0871L192.614 24.1211H190.655L190.666 22.5755H191.874C192.15 22.5755 192.371 22.4884 192.538 22.3143C192.712 22.1401 192.799 21.9188 192.799 21.6503V19.8544H194.367V22.5755H197.382L197.371 24.1211H194.356L194.367 30.9782C194.367 31.3193 194.479 31.6059 194.704 31.8381C194.936 32.063 195.223 32.1755 195.564 32.1755H197.371V33.7211H195.455ZM200.088 22.5755H201.829V24.4258C202.178 23.7945 202.635 23.312 203.201 22.9782C203.774 22.6372 204.427 22.4666 205.16 22.4666H205.552V24.2843H205.095C204.434 24.2843 203.858 24.4113 203.364 24.6653C202.871 24.9193 202.49 25.2821 202.221 25.7537C201.96 26.2181 201.829 26.766 201.829 27.3973V33.7211H200.088V22.5755ZM212.584 33.9823C211.517 33.9823 210.548 33.7283 209.677 33.2204C208.814 32.7125 208.135 32.0159 207.642 31.1306C207.149 30.2381 206.902 29.244 206.902 28.1483C206.902 27.0526 207.149 26.0621 207.642 25.1769C208.135 24.2843 208.814 23.5841 209.677 23.0762C210.548 22.5682 211.517 22.3143 212.584 22.3143C213.65 22.3143 214.615 22.5682 215.479 23.0762C216.349 23.5841 217.032 24.2843 217.525 25.1769C218.018 26.0621 218.265 27.0526 218.265 28.1483C218.265 29.244 218.018 30.2381 217.525 31.1306C217.032 32.0159 216.349 32.7125 215.479 33.2204C214.615 33.7283 213.65 33.9823 212.584 33.9823ZM212.584 32.3932C213.338 32.3932 214.006 32.2154 214.586 31.8598C215.174 31.497 215.627 30.9964 215.947 30.3578C216.273 29.712 216.437 28.9755 216.437 28.1483C216.437 27.3138 216.273 26.5773 215.947 25.9388C215.627 25.293 215.174 24.7923 214.586 24.4367C214.006 24.0739 213.338 23.8925 212.584 23.8925C211.829 23.8925 211.158 24.0739 210.57 24.4367C209.989 24.7923 209.536 25.293 209.209 25.9388C208.89 26.5773 208.73 27.3138 208.73 28.1483C208.73 28.9755 208.89 29.712 209.209 30.3578C209.536 30.9964 209.989 31.497 210.57 31.8598C211.158 32.2154 211.829 32.3932 212.584 32.3932ZM229.615 31.8272C229.194 32.5093 228.632 33.039 227.928 33.4163C227.224 33.7936 226.418 33.9823 225.511 33.9823C224.474 33.9823 223.549 33.7392 222.736 33.253C221.93 32.7596 221.299 32.0703 220.842 31.185C220.392 30.2998 220.167 29.2875 220.167 28.1483C220.167 27.0091 220.392 25.9968 220.842 25.1115C221.299 24.2263 221.93 23.5406 222.736 23.0544C223.549 22.561 224.474 22.3143 225.511 22.3143C226.418 22.3143 227.224 22.5029 227.928 22.8803C228.632 23.2576 229.194 23.7873 229.615 24.4694V18.483H231.356V33.7211H229.615V31.8272ZM225.784 32.4041C226.531 32.4041 227.195 32.2263 227.775 31.8707C228.356 31.5079 228.806 31.0072 229.125 30.3687C229.452 29.7229 229.615 28.9827 229.615 28.1483C229.615 27.3138 229.452 26.5773 229.125 25.9388C228.806 25.293 228.356 24.7923 227.775 24.4367C227.195 24.0739 226.531 23.8925 225.784 23.8925C225.043 23.8925 224.387 24.0739 223.813 24.4367C223.24 24.7923 222.794 25.293 222.475 25.9388C222.155 26.5773 221.996 27.3138 221.996 28.1483C221.996 28.9827 222.155 29.7229 222.475 30.3687C222.794 31.0072 223.24 31.5079 223.813 31.8707C224.387 32.2263 225.043 32.4041 225.784 32.4041ZM244.169 33.7211H242.493V31.9143C242.123 32.5746 241.622 33.0861 240.991 33.449C240.36 33.8045 239.631 33.9823 238.803 33.9823C238.005 33.9823 237.298 33.8118 236.681 33.4707C236.064 33.1297 235.578 32.629 235.222 31.9687C234.874 31.3011 234.7 30.5029 234.7 29.5741V22.5755H236.441V29.4C236.441 30.3651 236.692 31.1161 237.193 31.653C237.693 32.19 238.383 32.4585 239.261 32.4585C239.885 32.4585 240.436 32.3206 240.915 32.0449C241.394 31.7691 241.764 31.3846 242.025 30.8911C242.294 30.3905 242.428 29.8208 242.428 29.1823V22.5755H244.169V33.7211ZM252.568 33.9823C251.516 33.9823 250.565 33.7283 249.716 33.2204C248.868 32.7125 248.2 32.0159 247.714 31.1306C247.235 30.2381 246.995 29.244 246.995 28.1483C246.995 27.0526 247.235 26.0621 247.714 25.1769C248.2 24.2843 248.868 23.5841 249.716 23.0762C250.565 22.5682 251.516 22.3143 252.568 22.3143C253.403 22.3143 254.168 22.4739 254.865 22.7932C255.569 23.1052 256.16 23.5515 256.639 24.132C257.125 24.7125 257.473 25.3873 257.684 26.1564H255.779C255.518 25.4598 255.101 24.9084 254.527 24.502C253.961 24.0957 253.308 23.8925 252.568 23.8925C251.85 23.8925 251.204 24.0739 250.631 24.4367C250.065 24.7995 249.622 25.3038 249.303 25.9496C248.984 26.5954 248.824 27.3283 248.824 28.1483C248.824 28.961 248.984 29.6902 249.303 30.336C249.622 30.9818 250.065 31.4898 250.631 31.8598C251.204 32.2227 251.85 32.4041 252.568 32.4041C253.308 32.4041 253.961 32.2009 254.527 31.7945C255.101 31.3882 255.518 30.8367 255.779 30.1401H257.684C257.473 30.9093 257.125 31.5841 256.639 32.1646C256.16 32.7451 255.569 33.195 254.865 33.5143C254.168 33.8263 253.403 33.9823 252.568 33.9823ZM265.015 33.9823C263.963 33.9823 263.013 33.732 262.164 33.2313C261.315 32.7306 260.647 32.034 260.161 31.1415C259.675 30.249 259.432 29.244 259.432 28.1265C259.432 27.0381 259.678 26.0512 260.172 25.166C260.665 24.2735 261.336 23.5769 262.185 23.0762C263.042 22.5682 263.985 22.3143 265.015 22.3143C266.075 22.3143 267.014 22.561 267.834 23.0544C268.654 23.5406 269.293 24.2263 269.75 25.1115C270.207 25.9968 270.436 27.0091 270.436 28.1483V28.5401H261.206C261.264 29.3165 261.46 29.9986 261.794 30.5864C262.127 31.1669 262.57 31.6168 263.121 31.936C263.673 32.2481 264.304 32.4041 265.015 32.4041C265.69 32.4041 266.289 32.2735 266.811 32.0122C267.334 31.751 267.762 31.3773 268.096 30.8911H270.033C269.619 31.8562 268.974 32.6145 268.096 33.166C267.218 33.7102 266.191 33.9823 265.015 33.9823ZM268.618 27.1578C268.509 26.4975 268.288 25.9206 267.954 25.4272C267.628 24.9338 267.21 24.5528 266.702 24.2843C266.202 24.0159 265.639 23.8816 265.015 23.8816C264.362 23.8816 263.771 24.0159 263.241 24.2843C262.711 24.5528 262.276 24.9338 261.935 25.4272C261.594 25.9206 261.369 26.4975 261.26 27.1578H268.618ZM279.378 18.483H281.119V25.6231L288.26 18.483H290.632L283.242 25.8408L290.763 33.7211H288.325L281.119 26.1891V33.7211H279.378V18.483ZM296.831 33.9823C295.764 33.9823 294.796 33.7283 293.925 33.2204C293.061 32.7125 292.383 32.0159 291.889 31.1306C291.396 30.2381 291.149 29.244 291.149 28.1483C291.149 27.0526 291.396 26.0621 291.889 25.1769C292.383 24.2843 293.061 23.5841 293.925 23.0762C294.796 22.5682 295.764 22.3143 296.831 22.3143C297.898 22.3143 298.863 22.5682 299.726 23.0762C300.597 23.5841 301.279 24.2843 301.772 25.1769C302.266 26.0621 302.513 27.0526 302.513 28.1483C302.513 29.244 302.266 30.2381 301.772 31.1306C301.279 32.0159 300.597 32.7125 299.726 33.2204C298.863 33.7283 297.898 33.9823 296.831 33.9823ZM296.831 32.3932C297.586 32.3932 298.253 32.2154 298.834 31.8598C299.421 31.497 299.875 30.9964 300.194 30.3578C300.521 29.712 300.684 28.9755 300.684 28.1483C300.684 27.3138 300.521 26.5773 300.194 25.9388C299.875 25.293 299.421 24.7923 298.834 24.4367C298.253 24.0739 297.586 23.8925 296.831 23.8925C296.076 23.8925 295.405 24.0739 294.817 24.4367C294.237 24.7923 293.783 25.293 293.457 25.9388C293.138 26.5773 292.978 27.3138 292.978 28.1483C292.978 28.9755 293.138 29.712 293.457 30.3578C293.783 30.9964 294.237 31.497 294.817 31.8598C295.405 32.2154 296.076 32.3932 296.831 32.3932ZM308.933 33.7211C308.403 33.7211 307.921 33.6086 307.486 33.3837C307.057 33.1515 306.72 32.8358 306.473 32.4367C306.227 32.0304 306.103 31.5805 306.103 31.0871L306.092 24.1211H304.133L304.144 22.5755H305.352C305.628 22.5755 305.849 22.4884 306.016 22.3143C306.19 22.1401 306.277 21.9188 306.277 21.6503V19.8544H307.845V22.5755H310.86L310.849 24.1211H307.834L307.845 30.9782C307.845 31.3193 307.957 31.6059 308.182 31.8381C308.414 32.063 308.701 32.1755 309.042 32.1755H310.849V33.7211H308.933ZM313.751 18.483H315.492V33.7211H313.751V18.483ZM319.327 22.5755H321.068V33.7211H319.327V22.5755ZM319.24 18.483H321.155V20.4639H319.24V18.483ZM324.727 22.5755H326.403V24.3823C326.773 23.722 327.273 23.214 327.905 22.8585C328.536 22.4957 329.265 22.3143 330.093 22.3143C330.891 22.3143 331.598 22.4848 332.215 22.8258C332.832 23.1669 333.314 23.6712 333.663 24.3388C334.018 24.9991 334.196 25.7936 334.196 26.7224V33.7211H332.454V26.8966C332.454 25.9315 332.204 25.1805 331.703 24.6435C331.203 24.1066 330.513 23.8381 329.635 23.8381C329.011 23.8381 328.46 23.9759 327.981 24.2517C327.502 24.5274 327.128 24.9156 326.86 25.4163C326.599 25.9097 326.468 26.4757 326.468 27.1143V33.7211H324.727V22.5755ZM347.454 33.7211C346.924 33.7211 346.441 33.6086 346.006 33.3837C345.578 33.1515 345.24 32.8358 344.994 32.4367C344.747 32.0304 344.624 31.5805 344.624 31.0871L344.613 24.1211H342.654L342.664 22.5755H343.873C344.148 22.5755 344.37 22.4884 344.537 22.3143C344.711 22.1401 344.798 21.9188 344.798 21.6503V19.8544H346.365V22.5755H349.38L349.369 24.1211H346.354L346.365 30.9782C346.365 31.3193 346.478 31.6059 346.703 31.8381C346.935 32.063 347.221 32.1755 347.562 32.1755H349.369V33.7211H347.454ZM356.78 33.9823C355.713 33.9823 354.745 33.7283 353.874 33.2204C353.01 32.7125 352.332 32.0159 351.838 31.1306C351.345 30.2381 351.098 29.244 351.098 28.1483C351.098 27.0526 351.345 26.0621 351.838 25.1769C352.332 24.2843 353.01 23.5841 353.874 23.0762C354.745 22.5682 355.713 22.3143 356.78 22.3143C357.847 22.3143 358.812 22.5682 359.675 23.0762C360.546 23.5841 361.228 24.2843 361.721 25.1769C362.215 26.0621 362.462 27.0526 362.462 28.1483C362.462 29.244 362.215 30.2381 361.721 31.1306C361.228 32.0159 360.546 32.7125 359.675 33.2204C358.812 33.7283 357.847 33.9823 356.78 33.9823ZM356.78 32.3932C357.535 32.3932 358.202 32.2154 358.783 31.8598C359.37 31.497 359.824 30.9964 360.143 30.3578C360.47 29.712 360.633 28.9755 360.633 28.1483C360.633 27.3138 360.47 26.5773 360.143 25.9388C359.824 25.293 359.37 24.7923 358.783 24.4367C358.202 24.0739 357.535 23.8925 356.78 23.8925C356.025 23.8925 355.354 24.0739 354.766 24.4367C354.186 24.7923 353.732 25.293 353.406 25.9388C353.086 26.5773 352.927 27.3138 352.927 28.1483C352.927 28.9755 353.086 29.712 353.406 30.3578C353.732 30.9964 354.186 31.497 354.766 31.8598C355.354 32.2154 356.025 32.3932 356.78 32.3932ZM375.063 22.3143C375.927 22.3143 376.67 22.4739 377.294 22.7932C377.926 23.1052 378.408 23.5551 378.742 24.1428C379.083 24.7306 379.254 25.4272 379.254 26.2326V33.7211H377.534V32.1211C377.178 32.7161 376.696 33.1769 376.086 33.5034C375.484 33.8227 374.791 33.9823 374.007 33.9823C373.296 33.9823 372.654 33.8444 372.081 33.5687C371.515 33.2857 371.072 32.9011 370.753 32.4149C370.434 31.9215 370.274 31.37 370.274 30.7605C370.274 30.1728 370.426 29.6286 370.731 29.1279C371.036 28.6199 371.457 28.2063 371.994 27.8871C372.531 27.5605 373.137 27.361 373.811 27.2884L376.728 26.9619C377.135 26.9111 377.396 26.6898 377.512 26.2979V26.0149C377.512 25.3474 377.291 24.8177 376.848 24.4258C376.405 24.034 375.81 23.8381 375.063 23.8381C374.562 23.8381 374.12 23.9179 373.735 24.0775C373.358 24.2299 373.057 24.4367 372.832 24.6979C372.607 24.9592 372.465 25.2385 372.407 25.536H370.666C370.76 24.9338 371 24.3895 371.384 23.9034C371.776 23.41 372.288 23.0217 372.919 22.7388C373.55 22.4558 374.265 22.3143 375.063 22.3143ZM372.081 30.6735C372.081 31.0363 372.179 31.3592 372.375 31.6422C372.571 31.9252 372.843 32.1465 373.191 32.3061C373.547 32.4585 373.953 32.5347 374.41 32.5347C375.012 32.5347 375.549 32.4113 376.021 32.1646C376.493 31.9106 376.859 31.5587 377.12 31.1088C377.381 30.6589 377.512 30.1401 377.512 29.5524V28.1918L374.062 28.5728C373.677 28.6163 373.332 28.736 373.028 28.932C372.73 29.1279 372.498 29.3782 372.331 29.683C372.164 29.9877 372.081 30.3179 372.081 30.6735ZM387.087 32.034H389.46C389.938 32.034 390.367 31.9288 390.744 31.7183C391.128 31.5007 391.426 31.2032 391.636 30.8258C391.854 30.4413 391.963 30.0095 391.963 29.5306V18.483H393.77V29.6394C393.77 30.4159 393.588 31.1161 393.226 31.7401C392.863 32.3569 392.362 32.8431 391.723 33.1986C391.085 33.5469 390.367 33.7211 389.568 33.7211H387.087V32.034ZM401.509 22.3143C402.372 22.3143 403.116 22.4739 403.74 22.7932C404.371 23.1052 404.854 23.5551 405.188 24.1428C405.529 24.7306 405.699 25.4272 405.699 26.2326V33.7211H403.979V32.1211C403.624 32.7161 403.141 33.1769 402.532 33.5034C401.93 33.8227 401.237 33.9823 400.453 33.9823C399.742 33.9823 399.1 33.8444 398.526 33.5687C397.96 33.2857 397.518 32.9011 397.198 32.4149C396.879 31.9215 396.72 31.37 396.72 30.7605C396.72 30.1728 396.872 29.6286 397.177 29.1279C397.481 28.6199 397.902 28.2063 398.439 27.8871C398.976 27.5605 399.582 27.361 400.257 27.2884L403.174 26.9619C403.58 26.9111 403.842 26.6898 403.958 26.2979V26.0149C403.958 25.3474 403.736 24.8177 403.294 24.4258C402.851 24.034 402.256 23.8381 401.509 23.8381C401.008 23.8381 400.565 23.9179 400.181 24.0775C399.803 24.2299 399.502 24.4367 399.277 24.6979C399.052 24.9592 398.911 25.2385 398.853 25.536H397.111C397.206 24.9338 397.445 24.3895 397.83 23.9034C398.222 23.41 398.733 23.0217 399.364 22.7388C399.996 22.4558 400.71 22.3143 401.509 22.3143ZM398.526 30.6735C398.526 31.0363 398.624 31.3592 398.82 31.6422C399.016 31.9252 399.288 32.1465 399.637 32.3061C399.992 32.4585 400.398 32.5347 400.856 32.5347C401.458 32.5347 401.995 32.4113 402.467 32.1646C402.938 31.9106 403.305 31.5587 403.566 31.1088C403.827 30.6589 403.958 30.1401 403.958 29.5524V28.1918L400.507 28.5728C400.123 28.6163 399.778 28.736 399.473 28.932C399.176 29.1279 398.944 29.3782 398.777 29.683C398.61 29.9877 398.526 30.3179 398.526 30.6735ZM407.579 22.5755H409.462L412.869 31.3809L416.145 22.5755H418.006L413.62 33.7211H411.987L407.579 22.5755ZM424.021 22.3143C424.885 22.3143 425.629 22.4739 426.253 22.7932C426.884 23.1052 427.367 23.5551 427.7 24.1428C428.041 24.7306 428.212 25.4272 428.212 26.2326V33.7211H426.492V32.1211C426.137 32.7161 425.654 33.1769 425.045 33.5034C424.442 33.8227 423.749 33.9823 422.966 33.9823C422.255 33.9823 421.612 33.8444 421.039 33.5687C420.473 33.2857 420.03 32.9011 419.711 32.4149C419.392 31.9215 419.232 31.37 419.232 30.7605C419.232 30.1728 419.385 29.6286 419.689 29.1279C419.994 28.6199 420.415 28.2063 420.952 27.8871C421.489 27.5605 422.095 27.361 422.77 27.2884L425.687 26.9619C426.093 26.9111 426.354 26.6898 426.47 26.2979V26.0149C426.47 25.3474 426.249 24.8177 425.806 24.4258C425.364 24.034 424.769 23.8381 424.021 23.8381C423.521 23.8381 423.078 23.9179 422.694 24.0775C422.316 24.2299 422.015 24.4367 421.79 24.6979C421.565 24.9592 421.424 25.2385 421.366 25.536H419.624C419.718 24.9338 419.958 24.3895 420.343 23.9034C420.734 23.41 421.246 23.0217 421.877 22.7388C422.508 22.4558 423.223 22.3143 424.021 22.3143ZM421.039 30.6735C421.039 31.0363 421.137 31.3592 421.333 31.6422C421.529 31.9252 421.801 32.1465 422.149 32.3061C422.505 32.4585 422.911 32.5347 423.368 32.5347C423.971 32.5347 424.508 32.4113 424.979 32.1646C425.451 31.9106 425.817 31.5587 426.079 31.1088C426.34 30.6589 426.47 30.1401 426.47 29.5524V28.1918L423.02 28.5728C422.635 28.6163 422.291 28.736 421.986 28.932C421.689 29.1279 421.456 29.3782 421.289 29.683C421.123 29.9877 421.039 30.3179 421.039 30.6735ZM439.626 22.5755V24.5456C440.047 23.8344 440.613 23.2866 441.324 22.902C442.035 22.5102 442.851 22.3143 443.773 22.3143C444.811 22.3143 445.732 22.561 446.538 23.0544C447.35 23.5406 447.982 24.2263 448.431 25.1115C448.889 25.9968 449.117 27.0091 449.117 28.1483C449.117 29.2875 448.889 30.2998 448.431 31.185C447.982 32.0703 447.35 32.7596 446.538 33.253C445.732 33.7392 444.811 33.9823 443.773 33.9823C442.866 33.9823 442.06 33.7936 441.357 33.4163C440.653 33.039 440.09 32.5093 439.67 31.8272V37.2041H437.928V22.5755H439.626ZM443.501 32.4041C444.241 32.4041 444.898 32.2263 445.471 31.8707C446.044 31.5079 446.49 31.0072 446.81 30.3687C447.129 29.7229 447.289 28.9827 447.289 28.1483C447.289 27.3138 447.129 26.5773 446.81 25.9388C446.49 25.293 446.044 24.7923 445.471 24.4367C444.898 24.0739 444.241 23.8925 443.501 23.8925C442.753 23.8925 442.09 24.0739 441.509 24.4367C440.929 24.7923 440.475 25.293 440.148 25.9388C439.829 26.5773 439.67 27.3138 439.67 28.1483C439.67 28.9827 439.829 29.7229 440.148 30.3687C440.475 31.0072 440.929 31.5079 441.509 31.8707C442.09 32.2263 442.753 32.4041 443.501 32.4041ZM451.895 22.5755H453.636V24.4258C453.985 23.7945 454.442 23.312 455.008 22.9782C455.581 22.6372 456.234 22.4666 456.967 22.4666H457.359V24.2843H456.902C456.241 24.2843 455.665 24.4113 455.171 24.6653C454.678 24.9193 454.297 25.2821 454.028 25.7537C453.767 26.2181 453.636 26.766 453.636 27.3973V33.7211H451.895V22.5755ZM464.39 33.9823C463.324 33.9823 462.355 33.7283 461.484 33.2204C460.621 32.7125 459.942 32.0159 459.449 31.1306C458.956 30.2381 458.709 29.244 458.709 28.1483C458.709 27.0526 458.956 26.0621 459.449 25.1769C459.942 24.2843 460.621 23.5841 461.484 23.0762C462.355 22.5682 463.324 22.3143 464.39 22.3143C465.457 22.3143 466.422 22.5682 467.286 23.0762C468.156 23.5841 468.839 24.2843 469.332 25.1769C469.825 26.0621 470.072 27.0526 470.072 28.1483C470.072 29.244 469.825 30.2381 469.332 31.1306C468.839 32.0159 468.156 32.7125 467.286 33.2204C466.422 33.7283 465.457 33.9823 464.39 33.9823ZM464.39 32.3932C465.145 32.3932 465.813 32.2154 466.393 31.8598C466.981 31.497 467.434 30.9964 467.754 30.3578C468.08 29.712 468.244 28.9755 468.244 28.1483C468.244 27.3138 468.08 26.5773 467.754 25.9388C467.434 25.293 466.981 24.7923 466.393 24.4367C465.813 24.0739 465.145 23.8925 464.39 23.8925C463.636 23.8925 462.965 24.0739 462.377 24.4367C461.796 24.7923 461.343 25.293 461.016 25.9388C460.697 26.5773 460.537 27.3138 460.537 28.1483C460.537 28.9755 460.697 29.712 461.016 30.3578C461.343 30.9964 461.796 31.497 462.377 31.8598C462.965 32.2154 463.636 32.3932 464.39 32.3932ZM471.027 35.6367H471.985C472.341 35.6367 472.627 35.5242 472.845 35.2993C473.07 35.0816 473.182 34.795 473.182 34.4394V22.5755H474.924V34.483C474.924 35.0127 474.804 35.4843 474.565 35.8979C474.325 36.3115 473.991 36.6308 473.563 36.8558C473.135 37.088 472.645 37.2041 472.094 37.2041H471.027V35.6367ZM473.095 18.483H475.011V20.4639H473.095V18.483ZM483.276 33.9823C482.224 33.9823 481.274 33.732 480.425 33.2313C479.576 32.7306 478.908 32.034 478.422 31.1415C477.936 30.249 477.693 29.244 477.693 28.1265C477.693 27.0381 477.939 26.0512 478.433 25.166C478.926 24.2735 479.597 23.5769 480.446 23.0762C481.303 22.5682 482.246 22.3143 483.276 22.3143C484.336 22.3143 485.275 22.561 486.095 23.0544C486.915 23.5406 487.554 24.2263 488.011 25.1115C488.468 25.9968 488.697 27.0091 488.697 28.1483V28.5401H479.467C479.525 29.3165 479.721 29.9986 480.055 30.5864C480.388 31.1669 480.831 31.6168 481.382 31.936C481.934 32.2481 482.565 32.4041 483.276 32.4041C483.951 32.4041 484.55 32.2735 485.072 32.0122C485.595 31.751 486.023 31.3773 486.357 30.8911H488.294C487.88 31.8562 487.235 32.6145 486.357 33.166C485.479 33.7102 484.452 33.9823 483.276 33.9823ZM486.879 27.1578C486.77 26.4975 486.549 25.9206 486.215 25.4272C485.889 24.9338 485.471 24.5528 484.963 24.2843C484.463 24.0159 483.9 23.8816 483.276 23.8816C482.623 23.8816 482.032 24.0159 481.502 24.2843C480.972 24.5528 480.537 24.9338 480.196 25.4272C479.855 25.9206 479.63 26.4975 479.521 27.1578H486.879ZM496.169 33.9823C495.117 33.9823 494.167 33.7283 493.318 33.2204C492.469 32.7125 491.801 32.0159 491.315 31.1306C490.836 30.2381 490.597 29.244 490.597 28.1483C490.597 27.0526 490.836 26.0621 491.315 25.1769C491.801 24.2843 492.469 23.5841 493.318 23.0762C494.167 22.5682 495.117 22.3143 496.169 22.3143C497.004 22.3143 497.769 22.4739 498.466 22.7932C499.17 23.1052 499.761 23.5515 500.24 24.132C500.726 24.7125 501.075 25.3873 501.285 26.1564H499.38C499.119 25.4598 498.702 24.9084 498.129 24.502C497.563 24.0957 496.91 23.8925 496.169 23.8925C495.451 23.8925 494.805 24.0739 494.232 24.4367C493.666 24.7995 493.223 25.3038 492.904 25.9496C492.585 26.5954 492.425 27.3283 492.425 28.1483C492.425 28.961 492.585 29.6902 492.904 30.336C493.223 30.9818 493.666 31.4898 494.232 31.8598C494.805 32.2227 495.451 32.4041 496.169 32.4041C496.91 32.4041 497.563 32.2009 498.129 31.7945C498.702 31.3882 499.119 30.8367 499.38 30.1401H501.285C501.075 30.9093 500.726 31.5841 500.24 32.1646C499.761 32.7451 499.17 33.195 498.466 33.5143C497.769 33.8263 497.004 33.9823 496.169 33.9823ZM507.551 33.7211C507.022 33.7211 506.539 33.6086 506.104 33.3837C505.676 33.1515 505.338 32.8358 505.091 32.4367C504.845 32.0304 504.721 31.5805 504.721 31.0871L504.711 24.1211H502.751L502.762 22.5755H503.97C504.246 22.5755 504.467 22.4884 504.634 22.3143C504.808 22.1401 504.896 21.9188 504.896 21.6503V19.8544H506.463V22.5755H509.478L509.467 24.1211H506.452L506.463 30.9782C506.463 31.3193 506.575 31.6059 506.8 31.8381C507.033 32.063 507.319 32.1755 507.66 32.1755H509.467V33.7211H507.551ZM528.262 27.0707H518.085V25.449H528.262V21.3347L533.585 26.2435L528.262 31.2394V27.0707Z" fill="white"/>
</svg>
