<svg width="588" height="46" viewBox="0 0 588 46" fill="none" xmlns="http://www.w3.org/2000/svg">
<rect width="588" height="46" rx="23" fill="black"/>
<path d="M29.6818 11.6H32.3378V34H29.6818V11.6ZM38.1255 17.616H40.5895V20.272C41.1335 19.3013 41.8695 18.5547 42.7975 18.032C43.7255 17.4987 44.7975 17.232 46.0135 17.232C47.1868 17.232 48.2268 17.4827 49.1335 17.984C50.0402 18.4853 50.7495 19.2267 51.2615 20.208C51.7842 21.1787 52.0455 22.3467 52.0455 23.712V34H49.4855V23.968C49.4855 22.5493 49.1175 21.4453 48.3815 20.656C47.6455 19.8667 46.6322 19.472 45.3415 19.472C44.4242 19.472 43.6135 19.6747 42.9095 20.08C42.2055 20.4853 41.6562 21.056 41.2615 21.792C40.8775 22.5173 40.6855 23.3493 40.6855 24.288V34H38.1255V17.616ZM62.4093 34C61.6306 34 60.9213 33.8347 60.2813 33.504C59.6519 33.1627 59.1559 32.6987 58.7933 32.112C58.4306 31.5147 58.2493 30.8533 58.2493 30.128L58.2333 19.888H55.3533L55.3693 17.616H57.1453C57.5506 17.616 57.8759 17.488 58.1213 17.232C58.3773 16.976 58.5052 16.6507 58.5052 16.256V13.616H60.8093V17.616H65.2413L65.2253 19.888H60.7933L60.8093 29.968C60.8093 30.4693 60.9746 30.8907 61.3053 31.232C61.6466 31.5627 62.0679 31.728 62.5693 31.728H65.2253V34H62.4093ZM69.2193 17.616H71.7793V20.336C72.2913 19.408 72.9633 18.6987 73.7953 18.208C74.6379 17.7067 75.5979 17.456 76.6753 17.456H77.2513V20.128H76.5793C75.6086 20.128 74.7606 20.3147 74.0353 20.688C73.3099 21.0613 72.7499 21.5947 72.3553 22.288C71.9713 22.9707 71.7793 23.776 71.7793 24.704V34H69.2193V17.616ZM87.5878 34.384C86.0198 34.384 84.5958 34.0107 83.3158 33.264C82.0464 32.5173 81.0491 31.4933 80.3238 30.192C79.5984 28.88 79.2358 27.4187 79.2358 25.808C79.2358 24.1973 79.5984 22.7413 80.3238 21.44C81.0491 20.128 82.0464 19.0987 83.3158 18.352C84.5958 17.6053 86.0198 17.232 87.5878 17.232C89.1558 17.232 90.5744 17.6053 91.8438 18.352C93.1238 19.0987 94.1264 20.128 94.8518 21.44C95.5771 22.7413 95.9398 24.1973 95.9398 25.808C95.9398 27.4187 95.5771 28.88 94.8518 30.192C94.1264 31.4933 93.1238 32.5173 91.8438 33.264C90.5744 34.0107 89.1558 34.384 87.5878 34.384ZM87.5878 32.048C88.6971 32.048 89.6784 31.7867 90.5318 31.264C91.3958 30.7307 92.0624 29.9947 92.5318 29.056C93.0118 28.1067 93.2518 27.024 93.2518 25.808C93.2518 24.5813 93.0118 23.4987 92.5318 22.56C92.0624 21.6107 91.3958 20.8747 90.5318 20.352C89.6784 19.8187 88.6971 19.552 87.5878 19.552C86.4784 19.552 85.4918 19.8187 84.6278 20.352C83.7744 20.8747 83.1078 21.6107 82.6278 22.56C82.1584 23.4987 81.9238 24.5813 81.9238 25.808C81.9238 27.024 82.1584 28.1067 82.6278 29.056C83.1078 29.9947 83.7744 30.7307 84.6278 31.264C85.4918 31.7867 86.4784 32.048 87.5878 32.048ZM112.624 31.216C112.005 32.2187 111.178 32.9973 110.144 33.552C109.109 34.1067 107.925 34.384 106.592 34.384C105.066 34.384 103.706 34.0267 102.512 33.312C101.328 32.5867 100.4 31.5733 99.7278 30.272C99.0664 28.9707 98.7358 27.4827 98.7358 25.808C98.7358 24.1333 99.0664 22.6453 99.7278 21.344C100.4 20.0427 101.328 19.0347 102.512 18.32C103.706 17.5947 105.066 17.232 106.592 17.232C107.925 17.232 109.109 17.5093 110.144 18.064C111.178 18.6187 112.005 19.3973 112.624 20.4V11.6H115.184V34H112.624V31.216ZM106.992 32.064C108.09 32.064 109.066 31.8027 109.92 31.28C110.773 30.7467 111.434 30.0107 111.904 29.072C112.384 28.1227 112.624 27.0347 112.624 25.808C112.624 24.5813 112.384 23.4987 111.904 22.56C111.434 21.6107 110.773 20.8747 109.92 20.352C109.066 19.8187 108.09 19.552 106.992 19.552C105.904 19.552 104.938 19.8187 104.096 20.352C103.253 20.8747 102.597 21.6107 102.128 22.56C101.658 23.4987 101.424 24.5813 101.424 25.808C101.424 27.0347 101.658 28.1227 102.128 29.072C102.597 30.0107 103.253 30.7467 104.096 31.28C104.938 31.8027 105.904 32.064 106.992 32.064ZM134.019 34H131.555V31.344C131.011 32.3147 130.275 33.0667 129.347 33.6C128.419 34.1227 127.347 34.384 126.131 34.384C124.958 34.384 123.918 34.1333 123.011 33.632C122.104 33.1307 121.39 32.3947 120.867 31.424C120.355 30.4427 120.099 29.2693 120.099 27.904V17.616H122.659V27.648C122.659 29.0667 123.027 30.1707 123.763 30.96C124.499 31.7493 125.512 32.144 126.803 32.144C127.72 32.144 128.531 31.9413 129.235 31.536C129.939 31.1307 130.483 30.5653 130.867 29.84C131.262 29.104 131.459 28.2667 131.459 27.328V17.616H134.019V34ZM146.365 34.384C144.819 34.384 143.421 34.0107 142.173 33.264C140.925 32.5173 139.944 31.4933 139.229 30.192C138.525 28.88 138.173 27.4187 138.173 25.808C138.173 24.1973 138.525 22.7413 139.229 21.44C139.944 20.128 140.925 19.0987 142.173 18.352C143.421 17.6053 144.819 17.232 146.365 17.232C147.592 17.232 148.717 17.4667 149.741 17.936C150.776 18.3947 151.645 19.0507 152.349 19.904C153.064 20.7573 153.576 21.7493 153.885 22.88H151.085C150.701 21.856 150.088 21.0453 149.245 20.448C148.413 19.8507 147.453 19.552 146.365 19.552C145.309 19.552 144.36 19.8187 143.517 20.352C142.685 20.8853 142.035 21.6267 141.565 22.576C141.096 23.5253 140.861 24.6027 140.861 25.808C140.861 27.0027 141.096 28.0747 141.565 29.024C142.035 29.9733 142.685 30.72 143.517 31.264C144.36 31.7973 145.309 32.064 146.365 32.064C147.453 32.064 148.413 31.7653 149.245 31.168C150.088 30.5707 150.701 29.76 151.085 28.736H153.885C153.576 29.8667 153.064 30.8587 152.349 31.712C151.645 32.5653 150.776 33.2267 149.741 33.696C148.717 34.1547 147.592 34.384 146.365 34.384ZM164.663 34.384C163.116 34.384 161.719 34.016 160.471 33.28C159.223 32.544 158.241 31.52 157.527 30.208C156.812 28.896 156.455 27.4187 156.455 25.776C156.455 24.176 156.817 22.7253 157.543 21.424C158.268 20.112 159.255 19.088 160.503 18.352C161.761 17.6053 163.148 17.232 164.663 17.232C166.22 17.232 167.601 17.5947 168.807 18.32C170.012 19.0347 170.951 20.0427 171.623 21.344C172.295 22.6453 172.631 24.1333 172.631 25.808V26.384H159.062C159.148 27.5253 159.436 28.528 159.927 29.392C160.417 30.2453 161.068 30.9067 161.879 31.376C162.689 31.8347 163.617 32.064 164.663 32.064C165.655 32.064 166.535 31.872 167.303 31.488C168.071 31.104 168.7 30.5547 169.191 29.84H172.039C171.431 31.2587 170.481 32.3733 169.191 33.184C167.9 33.984 166.391 34.384 164.663 34.384ZM169.959 24.352C169.799 23.3813 169.473 22.5333 168.983 21.808C168.503 21.0827 167.889 20.5227 167.143 20.128C166.407 19.7333 165.58 19.536 164.663 19.536C163.703 19.536 162.833 19.7333 162.055 20.128C161.276 20.5227 160.636 21.0827 160.135 21.808C159.633 22.5333 159.303 23.3813 159.143 24.352H169.959ZM185.776 11.6H188.336V22.096L198.832 11.6H202.32L191.456 22.416L202.512 34H198.928L188.336 22.928V34H185.776V11.6ZM211.432 34.384C209.864 34.384 208.44 34.0107 207.16 33.264C205.89 32.5173 204.893 31.4933 204.168 30.192C203.442 28.88 203.08 27.4187 203.08 25.808C203.08 24.1973 203.442 22.7413 204.168 21.44C204.893 20.128 205.89 19.0987 207.16 18.352C208.44 17.6053 209.864 17.232 211.432 17.232C213 17.232 214.418 17.6053 215.688 18.352C216.968 19.0987 217.97 20.128 218.696 21.44C219.421 22.7413 219.784 24.1973 219.784 25.808C219.784 27.4187 219.421 28.88 218.696 30.192C217.97 31.4933 216.968 32.5173 215.688 33.264C214.418 34.0107 213 34.384 211.432 34.384ZM211.432 32.048C212.541 32.048 213.522 31.7867 214.376 31.264C215.24 30.7307 215.906 29.9947 216.376 29.056C216.856 28.1067 217.096 27.024 217.096 25.808C217.096 24.5813 216.856 23.4987 216.376 22.56C215.906 21.6107 215.24 20.8747 214.376 20.352C213.522 19.8187 212.541 19.552 211.432 19.552C210.322 19.552 209.336 19.8187 208.472 20.352C207.618 20.8747 206.952 21.6107 206.472 22.56C206.002 23.4987 205.768 24.5813 205.768 25.808C205.768 27.024 206.002 28.1067 206.472 29.056C206.952 29.9947 207.618 30.7307 208.472 31.264C209.336 31.7867 210.322 32.048 211.432 32.048ZM229.222 34C228.443 34 227.734 33.8347 227.094 33.504C226.464 33.1627 225.968 32.6987 225.606 32.112C225.243 31.5147 225.062 30.8533 225.062 30.128L225.046 19.888H222.166L222.182 17.616H223.958C224.363 17.616 224.688 17.488 224.934 17.232C225.19 16.976 225.318 16.6507 225.318 16.256V13.616H227.622V17.616H232.054L232.038 19.888H227.606L227.622 29.968C227.622 30.4693 227.787 30.8907 228.118 31.232C228.459 31.5627 228.88 31.728 229.382 31.728H232.038V34H229.222ZM236.304 11.6H238.864V34H236.304V11.6ZM244.501 17.616H247.061V34H244.501V17.616ZM244.373 11.6H247.189V14.512H244.373V11.6ZM252.438 17.616H254.902V20.272C255.446 19.3013 256.182 18.5547 257.11 18.032C258.038 17.4987 259.11 17.232 260.326 17.232C261.499 17.232 262.539 17.4827 263.446 17.984C264.353 18.4853 265.062 19.2267 265.574 20.208C266.097 21.1787 266.358 22.3467 266.358 23.712V34H263.798V23.968C263.798 22.5493 263.43 21.4453 262.694 20.656C261.958 19.8667 260.945 19.472 259.654 19.472C258.737 19.472 257.926 19.6747 257.222 20.08C256.518 20.4853 255.969 21.056 255.574 21.792C255.19 22.5173 254.998 23.3493 254.998 24.288V34H252.438V17.616ZM285.847 34C285.068 34 284.359 33.8347 283.719 33.504C283.089 33.1627 282.593 32.6987 282.231 32.112C281.868 31.5147 281.687 30.8533 281.687 30.128L281.671 19.888H278.791L278.807 17.616H280.583C280.988 17.616 281.313 17.488 281.559 17.232C281.815 16.976 281.943 16.6507 281.943 16.256V13.616H284.247V17.616H288.679L288.663 19.888H284.231L284.247 29.968C284.247 30.4693 284.412 30.8907 284.743 31.232C285.084 31.5627 285.505 31.728 286.007 31.728H288.663V34H285.847ZM299.557 34.384C297.989 34.384 296.565 34.0107 295.285 33.264C294.015 32.5173 293.018 31.4933 292.293 30.192C291.567 28.88 291.205 27.4187 291.205 25.808C291.205 24.1973 291.567 22.7413 292.293 21.44C293.018 20.128 294.015 19.0987 295.285 18.352C296.565 17.6053 297.989 17.232 299.557 17.232C301.125 17.232 302.543 17.6053 303.813 18.352C305.093 19.0987 306.095 20.128 306.821 21.44C307.546 22.7413 307.909 24.1973 307.909 25.808C307.909 27.4187 307.546 28.88 306.821 30.192C306.095 31.4933 305.093 32.5173 303.813 33.264C302.543 34.0107 301.125 34.384 299.557 34.384ZM299.557 32.048C300.666 32.048 301.647 31.7867 302.501 31.264C303.365 30.7307 304.031 29.9947 304.501 29.056C304.981 28.1067 305.221 27.024 305.221 25.808C305.221 24.5813 304.981 23.4987 304.501 22.56C304.031 21.6107 303.365 20.8747 302.501 20.352C301.647 19.8187 300.666 19.552 299.557 19.552C298.447 19.552 297.461 19.8187 296.597 20.352C295.743 20.8747 295.077 21.6107 294.597 22.56C294.127 23.4987 293.893 24.5813 293.893 25.808C293.893 27.024 294.127 28.1067 294.597 29.056C295.077 29.9947 295.743 30.7307 296.597 31.264C297.461 31.7867 298.447 32.048 299.557 32.048ZM326.433 17.232C327.702 17.232 328.795 17.4667 329.713 17.936C330.641 18.3947 331.35 19.056 331.841 19.92C332.342 20.784 332.593 21.808 332.593 22.992V34H330.065V31.648C329.542 32.5227 328.833 33.2 327.937 33.68C327.051 34.1493 326.033 34.384 324.881 34.384C323.835 34.384 322.891 34.1813 322.049 33.776C321.217 33.36 320.566 32.7947 320.097 32.08C319.627 31.3547 319.393 30.544 319.393 29.648C319.393 28.784 319.617 27.984 320.065 27.248C320.513 26.5013 321.131 25.8933 321.921 25.424C322.71 24.944 323.601 24.6507 324.593 24.544L328.881 24.064C329.478 23.9893 329.862 23.664 330.033 23.088V22.672C330.033 21.6907 329.707 20.912 329.057 20.336C328.406 19.76 327.531 19.472 326.433 19.472C325.697 19.472 325.046 19.5893 324.481 19.824C323.926 20.048 323.483 20.352 323.153 20.736C322.822 21.12 322.614 21.5307 322.529 21.968H319.969C320.107 21.0827 320.459 20.2827 321.025 19.568C321.601 18.8427 322.353 18.272 323.281 17.856C324.209 17.44 325.259 17.232 326.433 17.232ZM322.049 29.52C322.049 30.0533 322.193 30.528 322.481 30.944C322.769 31.36 323.169 31.6853 323.681 31.92C324.203 32.144 324.801 32.256 325.473 32.256C326.358 32.256 327.147 32.0747 327.841 31.712C328.534 31.3387 329.073 30.8213 329.457 30.16C329.841 29.4987 330.033 28.736 330.033 27.872V25.872L324.961 26.432C324.395 26.496 323.889 26.672 323.441 26.96C323.003 27.248 322.662 27.616 322.417 28.064C322.171 28.512 322.049 28.9973 322.049 29.52ZM344.107 31.52H347.596C348.3 31.52 348.929 31.3653 349.484 31.056C350.049 30.736 350.486 30.2987 350.796 29.744C351.116 29.1787 351.276 28.544 351.276 27.84V11.6H353.932V28C353.932 29.1413 353.665 30.1707 353.132 31.088C352.598 31.9947 351.862 32.7093 350.924 33.232C349.985 33.744 348.929 34 347.756 34H344.107V31.52ZM365.308 17.232C366.577 17.232 367.67 17.4667 368.588 17.936C369.516 18.3947 370.225 19.056 370.716 19.92C371.217 20.784 371.468 21.808 371.468 22.992V34H368.94V31.648C368.417 32.5227 367.708 33.2 366.812 33.68C365.926 34.1493 364.908 34.384 363.756 34.384C362.71 34.384 361.766 34.1813 360.924 33.776C360.092 33.36 359.441 32.7947 358.972 32.08C358.502 31.3547 358.268 30.544 358.268 29.648C358.268 28.784 358.492 27.984 358.94 27.248C359.388 26.5013 360.006 25.8933 360.796 25.424C361.585 24.944 362.476 24.6507 363.468 24.544L367.756 24.064C368.353 23.9893 368.737 23.664 368.908 23.088V22.672C368.908 21.6907 368.582 20.912 367.932 20.336C367.281 19.76 366.406 19.472 365.308 19.472C364.572 19.472 363.921 19.5893 363.356 19.824C362.801 20.048 362.358 20.352 362.028 20.736C361.697 21.12 361.489 21.5307 361.404 21.968H358.844C358.982 21.0827 359.334 20.2827 359.9 19.568C360.476 18.8427 361.228 18.272 362.156 17.856C363.084 17.44 364.134 17.232 365.308 17.232ZM360.924 29.52C360.924 30.0533 361.068 30.528 361.356 30.944C361.644 31.36 362.044 31.6853 362.556 31.92C363.078 32.144 363.676 32.256 364.348 32.256C365.233 32.256 366.022 32.0747 366.716 31.712C367.409 31.3387 367.948 30.8213 368.332 30.16C368.716 29.4987 368.908 28.736 368.908 27.872V25.872L363.836 26.432C363.27 26.496 362.764 26.672 362.316 26.96C361.878 27.248 361.537 27.616 361.292 28.064C361.046 28.512 360.924 28.9973 360.924 29.52ZM374.232 17.616H377L382.008 30.56L386.824 17.616H389.56L383.112 34H380.712L374.232 17.616ZM398.402 17.232C399.671 17.232 400.764 17.4667 401.682 17.936C402.61 18.3947 403.319 19.056 403.81 19.92C404.311 20.784 404.562 21.808 404.562 22.992V34H402.034V31.648C401.511 32.5227 400.802 33.2 399.906 33.68C399.02 34.1493 398.002 34.384 396.85 34.384C395.804 34.384 394.86 34.1813 394.018 33.776C393.186 33.36 392.535 32.7947 392.066 32.08C391.596 31.3547 391.362 30.544 391.362 29.648C391.362 28.784 391.586 27.984 392.034 27.248C392.482 26.5013 393.1 25.8933 393.89 25.424C394.679 24.944 395.57 24.6507 396.562 24.544L400.85 24.064C401.447 23.9893 401.831 23.664 402.002 23.088V22.672C402.002 21.6907 401.676 20.912 401.026 20.336C400.375 19.76 399.5 19.472 398.402 19.472C397.666 19.472 397.015 19.5893 396.45 19.824C395.895 20.048 395.452 20.352 395.122 20.736C394.791 21.12 394.583 21.5307 394.498 21.968H391.938C392.076 21.0827 392.428 20.2827 392.994 19.568C393.57 18.8427 394.322 18.272 395.25 17.856C396.178 17.44 397.228 17.232 398.402 17.232ZM394.018 29.52C394.018 30.0533 394.162 30.528 394.45 30.944C394.738 31.36 395.138 31.6853 395.65 31.92C396.172 32.144 396.77 32.256 397.442 32.256C398.327 32.256 399.116 32.0747 399.81 31.712C400.503 31.3387 401.042 30.8213 401.426 30.16C401.81 29.4987 402.002 28.736 402.002 27.872V25.872L396.93 26.432C396.364 26.496 395.858 26.672 395.41 26.96C394.972 27.248 394.631 27.616 394.386 28.064C394.14 28.512 394.018 28.9973 394.018 29.52ZM421.34 17.616V20.512C421.959 19.4667 422.791 18.6613 423.836 18.096C424.882 17.52 426.082 17.232 427.436 17.232C428.962 17.232 430.316 17.5947 431.5 18.32C432.695 19.0347 433.623 20.0427 434.284 21.344C434.956 22.6453 435.292 24.1333 435.292 25.808C435.292 27.4827 434.956 28.9707 434.284 30.272C433.623 31.5733 432.695 32.5867 431.5 33.312C430.316 34.0267 428.962 34.384 427.436 34.384C426.103 34.384 424.919 34.1067 423.884 33.552C422.85 32.9973 422.023 32.2187 421.404 31.216V39.12H418.844V17.616H421.34ZM427.036 32.064C428.124 32.064 429.09 31.8027 429.932 31.28C430.775 30.7467 431.431 30.0107 431.9 29.072C432.37 28.1227 432.604 27.0347 432.604 25.808C432.604 24.5813 432.37 23.4987 431.9 22.56C431.431 21.6107 430.775 20.8747 429.932 20.352C429.09 19.8187 428.124 19.552 427.036 19.552C425.938 19.552 424.962 19.8187 424.108 20.352C423.255 20.8747 422.588 21.6107 422.108 22.56C421.639 23.4987 421.404 24.5813 421.404 25.808C421.404 27.0347 421.639 28.1227 422.108 29.072C422.588 30.0107 423.255 30.7467 424.108 31.28C424.962 31.8027 425.938 32.064 427.036 32.064ZM439.376 17.616H441.936V20.336C442.448 19.408 443.12 18.6987 443.952 18.208C444.794 17.7067 445.754 17.456 446.832 17.456H447.408V20.128H446.736C445.765 20.128 444.917 20.3147 444.192 20.688C443.466 21.0613 442.906 21.5947 442.512 22.288C442.128 22.9707 441.936 23.776 441.936 24.704V34H439.376V17.616ZM457.744 34.384C456.176 34.384 454.752 34.0107 453.472 33.264C452.203 32.5173 451.205 31.4933 450.48 30.192C449.755 28.88 449.392 27.4187 449.392 25.808C449.392 24.1973 449.755 22.7413 450.48 21.44C451.205 20.128 452.203 19.0987 453.472 18.352C454.752 17.6053 456.176 17.232 457.744 17.232C459.312 17.232 460.731 17.6053 462 18.352C463.28 19.0987 464.283 20.128 465.008 21.44C465.733 22.7413 466.096 24.1973 466.096 25.808C466.096 27.4187 465.733 28.88 465.008 30.192C464.283 31.4933 463.28 32.5173 462 33.264C460.731 34.0107 459.312 34.384 457.744 34.384ZM457.744 32.048C458.853 32.048 459.835 31.7867 460.688 31.264C461.552 30.7307 462.219 29.9947 462.688 29.056C463.168 28.1067 463.408 27.024 463.408 25.808C463.408 24.5813 463.168 23.4987 462.688 22.56C462.219 21.6107 461.552 20.8747 460.688 20.352C459.835 19.8187 458.853 19.552 457.744 19.552C456.635 19.552 455.648 19.8187 454.784 20.352C453.931 20.8747 453.264 21.6107 452.784 22.56C452.315 23.4987 452.08 24.5813 452.08 25.808C452.08 27.024 452.315 28.1067 452.784 29.056C453.264 29.9947 453.931 30.7307 454.784 31.264C455.648 31.7867 456.635 32.048 457.744 32.048ZM467.5 36.816H468.908C469.431 36.816 469.852 36.6507 470.172 36.32C470.503 36 470.668 35.5787 470.668 35.056V17.616H473.228V35.12C473.228 35.8987 473.052 36.592 472.7 37.2C472.348 37.808 471.857 38.2773 471.228 38.608C470.599 38.9493 469.879 39.12 469.068 39.12H467.5V36.816ZM470.54 11.6H473.356V14.512H470.54V11.6ZM485.506 34.384C483.96 34.384 482.562 34.016 481.314 33.28C480.066 32.544 479.085 31.52 478.37 30.208C477.656 28.896 477.298 27.4187 477.298 25.776C477.298 24.176 477.661 22.7253 478.386 21.424C479.112 20.112 480.098 19.088 481.346 18.352C482.605 17.6053 483.992 17.232 485.506 17.232C487.064 17.232 488.445 17.5947 489.65 18.32C490.856 19.0347 491.794 20.0427 492.466 21.344C493.138 22.6453 493.474 24.1333 493.474 25.808V26.384H479.906C479.992 27.5253 480.28 28.528 480.77 29.392C481.261 30.2453 481.912 30.9067 482.722 31.376C483.533 31.8347 484.461 32.064 485.506 32.064C486.498 32.064 487.378 31.872 488.146 31.488C488.914 31.104 489.544 30.5547 490.034 29.84H492.882C492.274 31.2587 491.325 32.3733 490.034 33.184C488.744 33.984 487.234 34.384 485.506 34.384ZM490.802 24.352C490.642 23.3813 490.317 22.5333 489.826 21.808C489.346 21.0827 488.733 20.5227 487.986 20.128C487.25 19.7333 486.424 19.536 485.506 19.536C484.546 19.536 483.677 19.7333 482.898 20.128C482.12 20.5227 481.48 21.0827 480.978 21.808C480.477 22.5333 480.146 23.3813 479.986 24.352H490.802ZM504.459 34.384C502.912 34.384 501.515 34.0107 500.267 33.264C499.019 32.5173 498.038 31.4933 497.323 30.192C496.619 28.88 496.267 27.4187 496.267 25.808C496.267 24.1973 496.619 22.7413 497.323 21.44C498.038 20.128 499.019 19.0987 500.267 18.352C501.515 17.6053 502.912 17.232 504.459 17.232C505.686 17.232 506.811 17.4667 507.835 17.936C508.87 18.3947 509.739 19.0507 510.443 19.904C511.158 20.7573 511.67 21.7493 511.979 22.88H509.179C508.795 21.856 508.182 21.0453 507.339 20.448C506.507 19.8507 505.547 19.552 504.459 19.552C503.403 19.552 502.454 19.8187 501.611 20.352C500.779 20.8853 500.128 21.6267 499.659 22.576C499.19 23.5253 498.955 24.6027 498.955 25.808C498.955 27.0027 499.19 28.0747 499.659 29.024C500.128 29.9733 500.779 30.72 501.611 31.264C502.454 31.7973 503.403 32.064 504.459 32.064C505.547 32.064 506.507 31.7653 507.339 31.168C508.182 30.5707 508.795 29.76 509.179 28.736H511.979C511.67 29.8667 511.158 30.8587 510.443 31.712C509.739 32.5653 508.87 33.2267 507.835 33.696C506.811 34.1547 505.686 34.384 504.459 34.384ZM521.191 34C520.412 34 519.703 33.8347 519.063 33.504C518.433 33.1627 517.937 32.6987 517.575 32.112C517.212 31.5147 517.031 30.8533 517.031 30.128L517.015 19.888H514.135L514.151 17.616H515.927C516.332 17.616 516.657 17.488 516.903 17.232C517.159 16.976 517.286 16.6507 517.286 16.256V13.616H519.591V17.616H524.023L524.007 19.888H519.575L519.591 29.968C519.591 30.4693 519.756 30.8907 520.087 31.232C520.428 31.5627 520.849 31.728 521.351 31.728H524.007V34H521.191ZM551.635 24.224H536.675V21.84H551.635V15.792L559.459 23.008L551.635 30.352V24.224Z" fill="white"/>
</svg>
