<svg width="706" height="52" viewBox="0 0 706 52" fill="none" xmlns="http://www.w3.org/2000/svg">
<rect width="706" height="52" fill="white"/>
<rect x="153" y="10" width="400" height="31.4422" rx="15.7211" fill="black"/>
<path d="M241.052 33.9823C239.644 33.9823 238.37 33.6413 237.231 32.9592C236.092 32.2698 235.196 31.3265 234.543 30.1292C233.897 28.9247 233.574 27.5823 233.574 26.102C233.574 24.6217 233.897 23.283 234.543 22.0857C235.196 20.8812 236.092 19.9378 237.231 19.2558C238.37 18.5664 239.644 18.2217 241.052 18.2217C242.133 18.2217 243.13 18.4068 244.045 18.7769C244.966 19.1469 245.757 19.6694 246.418 20.3442C247.085 21.019 247.582 21.8063 247.909 22.7061H245.895C245.46 21.8281 244.821 21.1388 243.979 20.6381C243.138 20.1301 242.18 19.8762 241.106 19.8762C240.047 19.8762 239.085 20.1483 238.222 20.6925C237.358 21.2295 236.68 21.9732 236.186 22.9238C235.693 23.8744 235.446 24.9338 235.446 26.102C235.446 27.2703 235.693 28.3297 236.186 29.2803C236.68 30.2308 237.358 30.9782 238.222 31.5224C239.085 32.0594 240.047 32.3279 241.106 32.3279C242.071 32.3279 242.945 32.132 243.729 31.7401C244.52 31.341 245.144 30.7968 245.601 30.1075C246.066 29.4109 246.305 28.6344 246.32 27.7782V27.6476H242.292V26.0149H248.148V27.1252C248.148 28.4168 247.84 29.585 247.223 30.6299C246.606 31.6676 245.757 32.4875 244.676 33.0898C243.595 33.6848 242.387 33.9823 241.052 33.9823ZM255.768 33.9823C254.716 33.9823 253.765 33.732 252.916 33.2313C252.067 32.7306 251.4 32.034 250.913 31.1415C250.427 30.249 250.184 29.244 250.184 28.1265C250.184 27.0381 250.431 26.0512 250.924 25.166C251.418 24.2735 252.089 23.5769 252.938 23.0762C253.794 22.5682 254.737 22.3143 255.768 22.3143C256.827 22.3143 257.767 22.561 258.587 23.0544C259.407 23.5406 260.045 24.2263 260.503 25.1115C260.96 25.9968 261.188 27.0091 261.188 28.1483V28.5401H251.958C252.016 29.3165 252.212 29.9986 252.546 30.5864C252.88 31.1669 253.323 31.6168 253.874 31.936C254.425 32.2481 255.057 32.4041 255.768 32.4041C256.443 32.4041 257.041 32.2735 257.564 32.0122C258.086 31.751 258.514 31.3773 258.848 30.8911H260.786C260.372 31.8562 259.726 32.6145 258.848 33.166C257.97 33.7102 256.943 33.9823 255.768 33.9823ZM259.371 27.1578C259.262 26.4975 259.04 25.9206 258.707 25.4272C258.38 24.9338 257.963 24.5528 257.455 24.2843C256.954 24.0159 256.392 23.8816 255.768 23.8816C255.115 23.8816 254.523 24.0159 253.994 24.2843C253.464 24.5528 253.029 24.9338 252.688 25.4272C252.347 25.9206 252.122 26.4975 252.013 27.1578H259.371ZM267.607 33.7211C267.077 33.7211 266.594 33.6086 266.159 33.3837C265.731 33.1515 265.393 32.8358 265.147 32.4367C264.9 32.0304 264.777 31.5805 264.777 31.0871L264.766 24.1211H262.807L262.818 22.5755H264.026C264.301 22.5755 264.523 22.4884 264.69 22.3143C264.864 22.1401 264.951 21.9188 264.951 21.6503V19.8544H266.518V22.5755H269.533L269.522 24.1211H266.507L266.518 30.9782C266.518 31.3193 266.631 31.6059 266.856 31.8381C267.088 32.063 267.374 32.1755 267.715 32.1755H269.522V33.7211H267.607ZM282.2 33.9823C281.344 33.9823 280.582 33.8481 279.915 33.5796C279.247 33.3038 278.717 32.9156 278.326 32.4149C277.934 31.9143 277.716 31.3301 277.672 30.6626H279.414C279.487 31.2213 279.773 31.6676 280.274 32.0013C280.774 32.3351 281.409 32.502 282.179 32.502C282.687 32.502 283.136 32.4222 283.528 32.2626C283.927 32.1029 284.236 31.8816 284.453 31.5986C284.671 31.3084 284.78 30.9782 284.78 30.6081C284.78 30.2091 284.653 29.8644 284.399 29.5741C284.152 29.2766 283.815 29.088 283.387 29.0081L280.981 28.5619C280.074 28.395 279.36 28.0467 278.837 27.517C278.322 26.98 278.064 26.3233 278.064 25.5469C278.064 24.9374 278.231 24.3895 278.565 23.9034C278.899 23.41 279.367 23.0217 279.969 22.7388C280.579 22.4558 281.275 22.3143 282.059 22.3143C282.864 22.3143 283.572 22.4449 284.181 22.7061C284.791 22.9601 285.27 23.3301 285.618 23.8163C285.974 24.2952 286.177 24.8648 286.228 25.5252H284.486C284.413 24.9882 284.156 24.5601 283.713 24.2408C283.271 23.9215 282.719 23.7619 282.059 23.7619C281.609 23.7619 281.21 23.8381 280.862 23.9905C280.513 24.1356 280.245 24.346 280.056 24.6217C279.867 24.8902 279.773 25.1986 279.773 25.5469C279.773 25.9315 279.9 26.2399 280.154 26.4721C280.408 26.697 280.818 26.8639 281.384 26.9728L283.768 27.419C284.334 27.5279 284.82 27.7347 285.226 28.0394C285.64 28.3369 285.952 28.7106 286.162 29.1605C286.38 29.6032 286.489 30.0857 286.489 30.6081C286.489 31.2539 286.3 31.8344 285.923 32.3496C285.553 32.8648 285.041 33.2676 284.388 33.5578C283.735 33.8408 283.006 33.9823 282.2 33.9823ZM292.819 33.7211C292.29 33.7211 291.807 33.6086 291.372 33.3837C290.943 33.1515 290.606 32.8358 290.359 32.4367C290.113 32.0304 289.989 31.5805 289.989 31.0871L289.978 24.1211H288.019L288.03 22.5755H289.238C289.514 22.5755 289.735 22.4884 289.902 22.3143C290.076 22.1401 290.163 21.9188 290.163 21.6503V19.8544H291.731V22.5755H294.746L294.735 24.1211H291.72L291.731 30.9782C291.731 31.3193 291.843 31.6059 292.068 31.8381C292.3 32.063 292.587 32.1755 292.928 32.1755H294.735V33.7211H292.819ZM301.275 22.3143C302.138 22.3143 302.882 22.4739 303.506 22.7932C304.137 23.1052 304.62 23.5551 304.954 24.1428C305.295 24.7306 305.465 25.4272 305.465 26.2326V33.7211H303.746V32.1211C303.39 32.7161 302.907 33.1769 302.298 33.5034C301.696 33.8227 301.003 33.9823 300.219 33.9823C299.508 33.9823 298.866 33.8444 298.293 33.5687C297.727 33.2857 297.284 32.9011 296.965 32.4149C296.645 31.9215 296.486 31.37 296.486 30.7605C296.486 30.1728 296.638 29.6286 296.943 29.1279C297.248 28.6199 297.668 28.2063 298.205 27.8871C298.742 27.5605 299.348 27.361 300.023 27.2884L302.94 26.9619C303.346 26.9111 303.608 26.6898 303.724 26.2979V26.0149C303.724 25.3474 303.503 24.8177 303.06 24.4258C302.617 24.034 302.022 23.8381 301.275 23.8381C300.774 23.8381 300.332 23.9179 299.947 24.0775C299.57 24.2299 299.268 24.4367 299.044 24.6979C298.819 24.9592 298.677 25.2385 298.619 25.536H296.878C296.972 24.9338 297.211 24.3895 297.596 23.9034C297.988 23.41 298.499 23.0217 299.131 22.7388C299.762 22.4558 300.477 22.3143 301.275 22.3143ZM298.293 30.6735C298.293 31.0363 298.39 31.3592 298.586 31.6422C298.782 31.9252 299.054 32.1465 299.403 32.3061C299.758 32.4585 300.165 32.5347 300.622 32.5347C301.224 32.5347 301.761 32.4113 302.233 32.1646C302.704 31.9106 303.071 31.5587 303.332 31.1088C303.593 30.6589 303.724 30.1401 303.724 29.5524V28.1918L300.273 28.5728C299.889 28.6163 299.544 28.736 299.239 28.932C298.942 29.1279 298.71 29.3782 298.543 29.683C298.376 29.9877 298.293 30.3179 298.293 30.6735ZM308.804 22.5755H310.545V24.4258C310.894 23.7945 311.351 23.312 311.917 22.9782C312.49 22.6372 313.143 22.4666 313.876 22.4666H314.268V24.2843H313.811C313.15 24.2843 312.574 24.4113 312.08 24.6653C311.587 24.9193 311.206 25.2821 310.937 25.7537C310.676 26.2181 310.545 26.766 310.545 27.3973V33.7211H308.804V22.5755ZM319.131 33.7211C318.311 33.7211 317.669 33.507 317.204 33.0789C316.747 32.6508 316.519 32.0594 316.519 31.3047V19.7891H318.26V22.5755H321.275L321.264 24.1211H318.249L318.26 31.1959C318.26 31.5007 318.347 31.7401 318.521 31.9143C318.696 32.0884 318.935 32.1755 319.24 32.1755H321.264V33.7211H319.131ZM328.578 33.9823C327.526 33.9823 326.576 33.732 325.727 33.2313C324.878 32.7306 324.21 32.034 323.724 31.1415C323.238 30.249 322.995 29.244 322.995 28.1265C322.995 27.0381 323.241 26.0512 323.735 25.166C324.228 24.2735 324.899 23.5769 325.748 23.0762C326.605 22.5682 327.548 22.3143 328.578 22.3143C329.638 22.3143 330.577 22.561 331.397 23.0544C332.217 23.5406 332.856 24.2263 333.313 25.1115C333.77 25.9968 333.999 27.0091 333.999 28.1483V28.5401H324.769C324.827 29.3165 325.023 29.9986 325.356 30.5864C325.69 31.1669 326.133 31.6168 326.684 31.936C327.236 32.2481 327.867 32.4041 328.578 32.4041C329.253 32.4041 329.852 32.2735 330.374 32.0122C330.897 31.751 331.325 31.3773 331.659 30.8911H333.596C333.182 31.8562 332.537 32.6145 331.659 33.166C330.781 33.7102 329.754 33.9823 328.578 33.9823ZM332.181 27.1578C332.072 26.4975 331.851 25.9206 331.517 25.4272C331.19 24.9338 330.773 24.5528 330.265 24.2843C329.765 24.0159 329.202 23.8816 328.578 23.8816C327.925 23.8816 327.334 24.0159 326.804 24.2843C326.274 24.5528 325.839 24.9338 325.498 25.4272C325.157 25.9206 324.932 26.4975 324.823 27.1578H332.181ZM345.346 31.8272C344.925 32.5093 344.363 33.039 343.659 33.4163C342.955 33.7936 342.15 33.9823 341.243 33.9823C340.205 33.9823 339.28 33.7392 338.467 33.253C337.662 32.7596 337.03 32.0703 336.573 31.185C336.123 30.2998 335.898 29.2875 335.898 28.1483C335.898 27.0091 336.123 25.9968 336.573 25.1115C337.03 24.2263 337.662 23.5406 338.467 23.0544C339.28 22.561 340.205 22.3143 341.243 22.3143C342.15 22.3143 342.955 22.5029 343.659 22.8803C344.363 23.2576 344.925 23.7873 345.346 24.4694V18.483H347.088V33.7211H345.346V31.8272ZM341.515 32.4041C342.262 32.4041 342.926 32.2263 343.507 31.8707C344.087 31.5079 344.537 31.0072 344.856 30.3687C345.183 29.7229 345.346 28.9827 345.346 28.1483C345.346 27.3138 345.183 26.5773 344.856 25.9388C344.537 25.293 344.087 24.7923 343.507 24.4367C342.926 24.0739 342.262 23.8925 341.515 23.8925C340.775 23.8925 340.118 24.0739 339.545 24.4367C338.971 24.7923 338.525 25.293 338.206 25.9388C337.887 26.5773 337.727 27.3138 337.727 28.1483C337.727 28.9827 337.887 29.7229 338.206 30.3687C338.525 31.0072 338.971 31.5079 339.545 31.8707C340.118 32.2263 340.775 32.4041 341.515 32.4041ZM355.55 22.5755H357.422L360.067 30.5864L360.318 31.5333L360.546 30.5864L363.278 22.5755H364.944L367.719 30.5864L367.969 31.5333L368.198 30.5864L370.788 22.5755H372.617L368.764 33.7211H367.044L364.323 25.3401L364.116 24.5673L363.931 25.3183L361.09 33.7211H359.393L355.55 22.5755ZM374.875 22.5755H376.617V33.7211H374.875V22.5755ZM374.788 18.483H376.704V20.4639H374.788V18.483ZM383.976 33.7211C383.446 33.7211 382.963 33.6086 382.528 33.3837C382.1 33.1515 381.763 32.8358 381.516 32.4367C381.269 32.0304 381.146 31.5805 381.146 31.0871L381.135 24.1211H379.176L379.187 22.5755H380.395C380.67 22.5755 380.892 22.4884 381.059 22.3143C381.233 22.1401 381.32 21.9188 381.32 21.6503V19.8544H382.887V22.5755H385.902L385.891 24.1211H382.876L382.887 30.9782C382.887 31.3193 383 31.6059 383.225 31.8381C383.457 32.063 383.743 32.1755 384.085 32.1755H385.891V33.7211H383.976ZM388.608 18.483H390.285V24.3823C390.655 23.722 391.155 23.214 391.787 22.8585C392.418 22.4957 393.147 22.3143 393.974 22.3143C394.773 22.3143 395.48 22.4848 396.097 22.8258C396.714 23.1669 397.196 23.6712 397.544 24.3388C397.9 24.9991 398.078 25.7936 398.078 26.7224V33.7211H396.336V26.8966C396.336 25.9315 396.086 25.1805 395.585 24.6435C395.085 24.1066 394.395 23.8381 393.517 23.8381C392.893 23.8381 392.342 23.9759 391.863 24.2517C391.384 24.5274 391.01 24.9156 390.742 25.4163C390.48 25.9097 390.35 26.4757 390.35 27.1143V33.7211H388.608V18.483ZM408.077 18.483H409.818V25.6231L416.959 18.483H419.331L411.941 25.8408L419.462 33.7211H417.024L409.818 26.1891V33.7211H408.077V18.483ZM425.302 33.7211C424.773 33.7211 424.29 33.6086 423.855 33.3837C423.426 33.1515 423.089 32.8358 422.842 32.4367C422.596 32.0304 422.472 31.5805 422.472 31.0871L422.461 24.1211H420.502L420.513 22.5755H421.721C421.997 22.5755 422.218 22.4884 422.385 22.3143C422.559 22.1401 422.646 21.9188 422.646 21.6503V19.8544H424.214V22.5755H427.229L427.218 24.1211H424.203L424.214 30.9782C424.214 31.3193 424.326 31.6059 424.551 31.8381C424.783 32.063 425.07 32.1755 425.411 32.1755H427.218V33.7211H425.302ZM434.629 33.9823C433.562 33.9823 432.593 33.7283 431.722 33.2204C430.859 32.7125 430.18 32.0159 429.687 31.1306C429.194 30.2381 428.947 29.244 428.947 28.1483C428.947 27.0526 429.194 26.0621 429.687 25.1769C430.18 24.2843 430.859 23.5841 431.722 23.0762C432.593 22.5682 433.562 22.3143 434.629 22.3143C435.695 22.3143 436.66 22.5682 437.524 23.0762C438.395 23.5841 439.077 24.2843 439.57 25.1769C440.063 26.0621 440.31 27.0526 440.31 28.1483C440.31 29.244 440.063 30.2381 439.57 31.1306C439.077 32.0159 438.395 32.7125 437.524 33.2204C436.66 33.7283 435.695 33.9823 434.629 33.9823ZM434.629 32.3932C435.383 32.3932 436.051 32.2154 436.631 31.8598C437.219 31.497 437.673 30.9964 437.992 30.3578C438.318 29.712 438.482 28.9755 438.482 28.1483C438.482 27.3138 438.318 26.5773 437.992 25.9388C437.673 25.293 437.219 24.7923 436.631 24.4367C436.051 24.0739 435.383 23.8925 434.629 23.8925C433.874 23.8925 433.203 24.0739 432.615 24.4367C432.034 24.7923 431.581 25.293 431.254 25.9388C430.935 26.5773 430.776 27.3138 430.776 28.1483C430.776 28.9755 430.935 29.712 431.254 30.3578C431.581 30.9964 432.034 31.497 432.615 31.8598C433.203 32.2154 433.874 32.3932 434.629 32.3932ZM443.094 22.5755H444.835V24.4258C445.184 23.7945 445.641 23.312 446.207 22.9782C446.78 22.6372 447.433 22.4666 448.166 22.4666H448.558V24.2843H448.101C447.44 24.2843 446.863 24.4113 446.37 24.6653C445.877 24.9193 445.496 25.2821 445.227 25.7537C444.966 26.2181 444.835 26.766 444.835 27.3973V33.7211H443.094V22.5755ZM466.868 27.0707H456.691V25.449H466.868V21.3347L472.19 26.2435L466.868 31.2394V27.0707Z" fill="white"/>
</svg>
