<svg width="588" height="46" viewBox="0 0 588 46" fill="none" xmlns="http://www.w3.org/2000/svg">
<rect width="588" height="46" rx="23" fill="black"/>
<path d="M129.436 34.384C127.366 34.384 125.494 33.8827 123.82 32.88C122.145 31.8667 120.828 30.48 119.868 28.72C118.918 26.9493 118.444 24.976 118.444 22.8C118.444 20.624 118.918 18.656 119.868 16.896C120.828 15.1253 122.145 13.7387 123.82 12.736C125.494 11.7227 127.366 11.216 129.436 11.216C131.025 11.216 132.492 11.488 133.836 12.032C135.19 12.576 136.353 13.344 137.324 14.336C138.305 15.328 139.036 16.4853 139.516 17.808H136.556C135.916 16.5173 134.977 15.504 133.74 14.768C132.502 14.0213 131.094 13.648 129.516 13.648C127.958 13.648 126.545 14.048 125.276 14.848C124.006 15.6373 123.009 16.7307 122.284 18.128C121.558 19.5253 121.196 21.0827 121.196 22.8C121.196 24.5173 121.558 26.0747 122.284 27.472C123.009 28.8693 124.006 29.968 125.276 30.768C126.545 31.5573 127.958 31.952 129.516 31.952C130.934 31.952 132.22 31.664 133.372 31.088C134.534 30.5013 135.452 29.7013 136.124 28.688C136.806 27.664 137.158 26.5227 137.18 25.264V25.072H131.26V22.672H139.868V24.304C139.868 26.2027 139.414 27.92 138.508 29.456C137.601 30.9813 136.353 32.1867 134.764 33.072C133.174 33.9467 131.398 34.384 129.436 34.384ZM151.069 34.384C149.522 34.384 148.125 34.016 146.877 33.28C145.629 32.544 144.647 31.52 143.933 30.208C143.218 28.896 142.861 27.4187 142.861 25.776C142.861 24.176 143.223 22.7253 143.949 21.424C144.674 20.112 145.661 19.088 146.909 18.352C148.167 17.6053 149.554 17.232 151.069 17.232C152.626 17.232 154.007 17.5947 155.213 18.32C156.418 19.0347 157.357 20.0427 158.029 21.344C158.701 22.6453 159.037 24.1333 159.037 25.808V26.384H145.469C145.554 27.5253 145.842 28.528 146.333 29.392C146.823 30.2453 147.474 30.9067 148.285 31.376C149.095 31.8347 150.023 32.064 151.069 32.064C152.061 32.064 152.941 31.872 153.709 31.488C154.477 31.104 155.106 30.5547 155.597 29.84H158.445C157.837 31.2587 156.887 32.3733 155.597 33.184C154.306 33.984 152.797 34.384 151.069 34.384ZM156.365 24.352C156.205 23.3813 155.879 22.5333 155.389 21.808C154.909 21.0827 154.295 20.5227 153.549 20.128C152.813 19.7333 151.986 19.536 151.069 19.536C150.109 19.536 149.239 19.7333 148.461 20.128C147.682 20.5227 147.042 21.0827 146.541 21.808C146.039 22.5333 145.709 23.3813 145.549 24.352H156.365ZM168.472 34C167.693 34 166.984 33.8347 166.344 33.504C165.714 33.1627 165.218 32.6987 164.856 32.112C164.493 31.5147 164.312 30.8533 164.312 30.128L164.296 19.888H161.416L161.432 17.616H163.208C163.613 17.616 163.938 17.488 164.184 17.232C164.44 16.976 164.568 16.6507 164.568 16.256V13.616H166.872V17.616H171.304L171.288 19.888H166.856L166.872 29.968C166.872 30.4693 167.037 30.8907 167.368 31.232C167.709 31.5627 168.13 31.728 168.632 31.728H171.288V34H168.472ZM189.925 34.384C188.666 34.384 187.546 34.1867 186.565 33.792C185.583 33.3867 184.805 32.816 184.229 32.08C183.653 31.344 183.333 30.4853 183.269 29.504H185.829C185.935 30.3253 186.357 30.9813 187.093 31.472C187.829 31.9627 188.762 32.208 189.892 32.208C190.639 32.208 191.301 32.0907 191.877 31.856C192.463 31.6213 192.917 31.296 193.237 30.88C193.557 30.4533 193.717 29.968 193.717 29.424C193.717 28.8373 193.53 28.3307 193.157 27.904C192.794 27.4667 192.298 27.1893 191.669 27.072L188.133 26.416C186.799 26.1707 185.749 25.6587 184.981 24.88C184.223 24.0907 183.845 23.1253 183.845 21.984C183.845 21.088 184.09 20.2827 184.581 19.568C185.071 18.8427 185.759 18.272 186.645 17.856C187.541 17.44 188.565 17.232 189.717 17.232C190.901 17.232 191.941 17.424 192.837 17.808C193.733 18.1813 194.437 18.7253 194.949 19.44C195.471 20.144 195.77 20.9813 195.845 21.952H193.285C193.178 21.1627 192.799 20.5333 192.149 20.064C191.498 19.5947 190.687 19.36 189.717 19.36C189.055 19.36 188.469 19.472 187.957 19.696C187.445 19.9093 187.05 20.2187 186.773 20.624C186.495 21.0187 186.357 21.472 186.357 21.984C186.357 22.5493 186.543 23.0027 186.917 23.344C187.29 23.6747 187.893 23.92 188.725 24.08L192.229 24.736C193.061 24.896 193.775 25.2 194.373 25.648C194.981 26.0853 195.439 26.6347 195.749 27.296C196.069 27.9467 196.229 28.656 196.229 29.424C196.229 30.3733 195.951 31.2267 195.397 31.984C194.853 32.7413 194.101 33.3333 193.141 33.76C192.181 34.176 191.109 34.384 189.925 34.384ZM205.534 34C204.756 34 204.046 33.8347 203.406 33.504C202.777 33.1627 202.281 32.6987 201.918 32.112C201.556 31.5147 201.374 30.8533 201.374 30.128L201.358 19.888H198.478L198.494 17.616H200.27C200.676 17.616 201.001 17.488 201.246 17.232C201.502 16.976 201.63 16.6507 201.63 16.256V13.616H203.934V17.616H208.366L208.35 19.888H203.918L203.934 29.968C203.934 30.4693 204.1 30.8907 204.43 31.232C204.772 31.5627 205.193 31.728 205.694 31.728H208.35V34H205.534ZM217.964 17.232C219.233 17.232 220.327 17.4667 221.244 17.936C222.172 18.3947 222.881 19.056 223.372 19.92C223.873 20.784 224.124 21.808 224.124 22.992V34H221.596V31.648C221.073 32.5227 220.364 33.2 219.468 33.68C218.583 34.1493 217.564 34.384 216.412 34.384C215.367 34.384 214.423 34.1813 213.58 33.776C212.748 33.36 212.097 32.7947 211.628 32.08C211.159 31.3547 210.924 30.544 210.924 29.648C210.924 28.784 211.148 27.984 211.596 27.248C212.044 26.5013 212.663 25.8933 213.452 25.424C214.241 24.944 215.132 24.6507 216.124 24.544L220.412 24.064C221.009 23.9893 221.393 23.664 221.564 23.088V22.672C221.564 21.6907 221.239 20.912 220.588 20.336C219.937 19.76 219.063 19.472 217.964 19.472C217.228 19.472 216.577 19.5893 216.012 19.824C215.457 20.048 215.015 20.352 214.684 20.736C214.353 21.12 214.145 21.5307 214.06 21.968H211.5C211.639 21.0827 211.991 20.2827 212.556 19.568C213.132 18.8427 213.884 18.272 214.812 17.856C215.74 17.44 216.791 17.232 217.964 17.232ZM213.58 29.52C213.58 30.0533 213.724 30.528 214.012 30.944C214.3 31.36 214.7 31.6853 215.212 31.92C215.735 32.144 216.332 32.256 217.004 32.256C217.889 32.256 218.679 32.0747 219.372 31.712C220.065 31.3387 220.604 30.8213 220.988 30.16C221.372 29.4987 221.564 28.736 221.564 27.872V25.872L216.492 26.432C215.927 26.496 215.42 26.672 214.972 26.96C214.535 27.248 214.193 27.616 213.948 28.064C213.703 28.512 213.58 28.9973 213.58 29.52ZM229.032 17.616H231.592V20.336C232.104 19.408 232.776 18.6987 233.608 18.208C234.45 17.7067 235.41 17.456 236.488 17.456H237.064V20.128H236.392C235.421 20.128 234.573 20.3147 233.848 20.688C233.122 21.0613 232.562 21.5947 232.168 22.288C231.784 22.9707 231.592 23.776 231.592 24.704V34H229.032V17.616ZM244.213 34C243.007 34 242.063 33.6853 241.381 33.056C240.709 32.4267 240.373 31.5573 240.373 30.448V13.52H242.933V17.616H247.365L247.349 19.888H242.917L242.933 30.288C242.933 30.736 243.061 31.088 243.317 31.344C243.573 31.6 243.925 31.728 244.373 31.728H247.349V34H244.213ZM258.1 34.384C256.553 34.384 255.156 34.016 253.908 33.28C252.66 32.544 251.679 31.52 250.964 30.208C250.249 28.896 249.892 27.4187 249.892 25.776C249.892 24.176 250.255 22.7253 250.98 21.424C251.705 20.112 252.692 19.088 253.94 18.352C255.199 17.6053 256.585 17.232 258.1 17.232C259.657 17.232 261.039 17.5947 262.244 18.32C263.449 19.0347 264.388 20.0427 265.06 21.344C265.732 22.6453 266.068 24.1333 266.068 25.808V26.384H252.5C252.585 27.5253 252.873 28.528 253.364 29.392C253.855 30.2453 254.505 30.9067 255.316 31.376C256.127 31.8347 257.055 32.064 258.1 32.064C259.092 32.064 259.972 31.872 260.74 31.488C261.508 31.104 262.137 30.5547 262.628 29.84H265.476C264.868 31.2587 263.919 32.3733 262.628 33.184C261.337 33.984 259.828 34.384 258.1 34.384ZM263.396 24.352C263.236 23.3813 262.911 22.5333 262.42 21.808C261.94 21.0827 261.327 20.5227 260.58 20.128C259.844 19.7333 259.017 19.536 258.1 19.536C257.14 19.536 256.271 19.7333 255.492 20.128C254.713 20.5227 254.073 21.0827 253.572 21.808C253.071 22.5333 252.74 23.3813 252.58 24.352H263.396ZM282.749 31.216C282.13 32.2187 281.303 32.9973 280.269 33.552C279.234 34.1067 278.05 34.384 276.717 34.384C275.191 34.384 273.831 34.0267 272.637 33.312C271.453 32.5867 270.525 31.5733 269.853 30.272C269.191 28.9707 268.861 27.4827 268.861 25.808C268.861 24.1333 269.191 22.6453 269.853 21.344C270.525 20.0427 271.453 19.0347 272.637 18.32C273.831 17.5947 275.191 17.232 276.717 17.232C278.05 17.232 279.234 17.5093 280.269 18.064C281.303 18.6187 282.13 19.3973 282.749 20.4V11.6H285.309V34H282.749V31.216ZM277.117 32.064C278.215 32.064 279.191 31.8027 280.045 31.28C280.898 30.7467 281.559 30.0107 282.029 29.072C282.509 28.1227 282.749 27.0347 282.749 25.808C282.749 24.5813 282.509 23.4987 282.029 22.56C281.559 21.6107 280.898 20.8747 280.045 20.352C279.191 19.8187 278.215 19.552 277.117 19.552C276.029 19.552 275.063 19.8187 274.221 20.352C273.378 20.8747 272.722 21.6107 272.253 22.56C271.783 23.4987 271.549 24.5813 271.549 25.808C271.549 27.0347 271.783 28.1227 272.253 29.072C272.722 30.0107 273.378 30.7467 274.221 31.28C275.063 31.8027 276.029 32.064 277.117 32.064ZM297.749 17.616H300.501L304.389 29.392L304.757 30.784L305.093 29.392L309.109 17.616H311.557L315.637 29.392L316.005 30.784L316.341 29.392L320.149 17.616H322.837L317.173 34H314.645L310.645 21.68L310.341 20.544L310.069 21.648L305.893 34H303.397L297.749 17.616ZM326.157 17.616H328.717V34H326.157V17.616ZM326.029 11.6H328.845V14.512H326.029V11.6ZM339.534 34C338.756 34 338.046 33.8347 337.406 33.504C336.777 33.1627 336.281 32.6987 335.918 32.112C335.556 31.5147 335.374 30.8533 335.374 30.128L335.358 19.888H332.478L332.494 17.616H334.27C334.676 17.616 335.001 17.488 335.246 17.232C335.502 16.976 335.63 16.6507 335.63 16.256V13.616H337.934V17.616H342.366L342.35 19.888H337.918L337.934 29.968C337.934 30.4693 338.1 30.8907 338.43 31.232C338.772 31.5627 339.193 31.728 339.694 31.728H342.35V34H339.534ZM346.344 11.6H348.808V20.272C349.352 19.3013 350.088 18.5547 351.016 18.032C351.944 17.4987 353.016 17.232 354.232 17.232C355.406 17.232 356.446 17.4827 357.352 17.984C358.259 18.4853 358.968 19.2267 359.48 20.208C360.003 21.1787 360.264 22.3467 360.264 23.712V34H357.704V23.968C357.704 22.5493 357.336 21.4453 356.6 20.656C355.864 19.8667 354.851 19.472 353.56 19.472C352.643 19.472 351.832 19.6747 351.128 20.08C350.424 20.4853 349.875 21.056 349.48 21.792C349.096 22.5173 348.904 23.3493 348.904 24.288V34H346.344V11.6ZM374.963 11.6H377.523V22.096L388.019 11.6H391.507L380.643 22.416L391.699 34H388.115L377.523 22.928V34H374.963V11.6ZM400.284 34C399.506 34 398.796 33.8347 398.156 33.504C397.527 33.1627 397.031 32.6987 396.668 32.112C396.306 31.5147 396.124 30.8533 396.124 30.128L396.108 19.888H393.228L393.244 17.616H395.02C395.426 17.616 395.751 17.488 395.996 17.232C396.252 16.976 396.38 16.6507 396.38 16.256V13.616H398.684V17.616H403.116L403.1 19.888H398.668L398.684 29.968C398.684 30.4693 398.85 30.8907 399.18 31.232C399.522 31.5627 399.943 31.728 400.444 31.728H403.1V34H400.284ZM413.994 34.384C412.426 34.384 411.002 34.0107 409.722 33.264C408.453 32.5173 407.455 31.4933 406.73 30.192C406.005 28.88 405.642 27.4187 405.642 25.808C405.642 24.1973 406.005 22.7413 406.73 21.44C407.455 20.128 408.453 19.0987 409.722 18.352C411.002 17.6053 412.426 17.232 413.994 17.232C415.562 17.232 416.981 17.6053 418.25 18.352C419.53 19.0987 420.533 20.128 421.258 21.44C421.983 22.7413 422.346 24.1973 422.346 25.808C422.346 27.4187 421.983 28.88 421.258 30.192C420.533 31.4933 419.53 32.5173 418.25 33.264C416.981 34.0107 415.562 34.384 413.994 34.384ZM413.994 32.048C415.103 32.048 416.085 31.7867 416.938 31.264C417.802 30.7307 418.469 29.9947 418.938 29.056C419.418 28.1067 419.658 27.024 419.658 25.808C419.658 24.5813 419.418 23.4987 418.938 22.56C418.469 21.6107 417.802 20.8747 416.938 20.352C416.085 19.8187 415.103 19.552 413.994 19.552C412.885 19.552 411.898 19.8187 411.034 20.352C410.181 20.8747 409.514 21.6107 409.034 22.56C408.565 23.4987 408.33 24.5813 408.33 25.808C408.33 27.024 408.565 28.1067 409.034 29.056C409.514 29.9947 410.181 30.7307 411.034 31.264C411.898 31.7867 412.885 32.048 413.994 32.048ZM426.438 17.616H428.998V20.336C429.51 19.408 430.182 18.6987 431.014 18.208C431.857 17.7067 432.817 17.456 433.894 17.456H434.47V20.128H433.798C432.827 20.128 431.979 20.3147 431.254 20.688C430.529 21.0613 429.969 21.5947 429.574 22.288C429.19 22.9707 428.998 23.776 428.998 24.704V34H426.438V17.616ZM461.385 24.224H446.425V21.84H461.385V15.792L469.209 23.008L461.385 30.352V24.224Z" fill="white"/>
</svg>
