<svg width="706" height="52" viewBox="0 0 706 52" fill="none" xmlns="http://www.w3.org/2000/svg">
<rect width="706" height="52" fill="white"/>
<rect x="153" y="10" width="400" height="31.4543" rx="15.7271" fill="black"/>
<path d="M173.956 33.989C172.545 33.989 171.269 33.6472 170.127 32.9636C168.985 32.2727 168.087 31.3273 167.433 30.1274C166.785 28.9201 166.462 27.5748 166.462 26.0912C166.462 24.6076 166.785 23.2659 167.433 22.0659C168.087 20.8587 168.985 19.9133 170.127 19.2297C171.269 18.5388 172.545 18.1934 173.956 18.1934C175.04 18.1934 176.04 18.3789 176.956 18.7497C177.879 19.1206 178.672 19.6442 179.334 20.3206C180.003 20.9969 180.501 21.786 180.828 22.6877H178.81C178.374 21.8078 177.734 21.1169 176.89 20.6151C176.047 20.106 175.087 19.8515 174.011 19.8515C172.949 19.8515 171.985 20.1242 171.12 20.6696C170.254 21.2078 169.574 21.9532 169.08 22.9059C168.585 23.8586 168.338 24.9203 168.338 26.0912C168.338 27.262 168.585 28.3238 169.08 29.2765C169.574 30.2292 170.254 30.9782 171.12 31.5236C171.985 32.0618 172.949 32.3309 174.011 32.3309C174.978 32.3309 175.854 32.1345 176.639 31.7418C177.432 31.3418 178.058 30.7964 178.516 30.1055C178.981 29.4074 179.221 28.6292 179.236 27.7711V27.6402H175.2V26.0039H181.068V27.1166C181.068 28.4111 180.759 29.5819 180.141 30.6291C179.523 31.6691 178.672 32.4909 177.589 33.0945C176.505 33.6908 175.294 33.989 173.956 33.989ZM188.705 33.989C187.651 33.989 186.698 33.7381 185.847 33.2363C184.996 32.7345 184.327 32.0363 183.84 31.1418C183.353 30.2473 183.109 29.2401 183.109 28.1202C183.109 27.0293 183.356 26.0403 183.851 25.1531C184.345 24.2586 185.018 23.5604 185.869 23.0586C186.727 22.5496 187.672 22.295 188.705 22.295C189.767 22.295 190.709 22.5423 191.53 23.0368C192.352 23.524 192.992 24.2113 193.45 25.0985C193.908 25.9857 194.137 27.0002 194.137 28.142V28.5347H184.887C184.945 29.3128 185.142 29.9965 185.476 30.5855C185.811 31.1673 186.254 31.6182 186.807 31.9382C187.36 32.2509 187.992 32.4072 188.705 32.4072C189.381 32.4072 189.981 32.2763 190.505 32.0145C191.029 31.7527 191.458 31.3782 191.792 30.891H193.734C193.319 31.8582 192.672 32.6181 191.792 33.1708C190.912 33.7163 189.883 33.989 188.705 33.989ZM192.316 27.1493C192.207 26.4875 191.985 25.9094 191.65 25.4149C191.323 24.9203 190.905 24.5385 190.396 24.2695C189.894 24.0004 189.33 23.8659 188.705 23.8659C188.05 23.8659 187.458 24.0004 186.927 24.2695C186.396 24.5385 185.96 24.9203 185.618 25.4149C185.276 25.9094 185.051 26.4875 184.942 27.1493H192.316ZM200.57 33.7272C200.039 33.7272 199.556 33.6145 199.119 33.389C198.69 33.1563 198.352 32.8399 198.105 32.44C197.858 32.0327 197.734 31.5818 197.734 31.0873L197.723 24.1058H195.759L195.77 22.5568H196.981C197.258 22.5568 197.479 22.4696 197.647 22.295C197.821 22.1205 197.908 21.8987 197.908 21.6296V19.8297H199.479V22.5568H202.501L202.49 24.1058H199.468L199.479 30.9782C199.479 31.32 199.592 31.6073 199.817 31.84C200.05 32.0654 200.337 32.1782 200.679 32.1782H202.49V33.7272H200.57ZM215.196 33.989C214.338 33.989 213.574 33.8544 212.905 33.5854C212.236 33.309 211.705 32.9199 211.313 32.4181C210.92 31.9164 210.702 31.3309 210.658 30.6619H212.404C212.476 31.2218 212.764 31.6691 213.265 32.0036C213.767 32.3382 214.404 32.5054 215.174 32.5054C215.683 32.5054 216.134 32.4254 216.527 32.2654C216.927 32.1054 217.236 31.8836 217.454 31.6C217.672 31.3091 217.782 30.9782 217.782 30.6073C217.782 30.2073 217.654 29.8619 217.4 29.571C217.152 29.2729 216.814 29.0838 216.385 29.0038L213.974 28.5565C213.065 28.3893 212.349 28.0402 211.825 27.5093C211.309 26.9711 211.051 26.313 211.051 25.5349C211.051 24.924 211.218 24.3749 211.553 23.8877C211.887 23.3931 212.356 23.0041 212.96 22.7205C213.571 22.4368 214.269 22.295 215.054 22.295C215.862 22.295 216.571 22.4259 217.182 22.6877C217.792 22.9423 218.272 23.3132 218.622 23.8004C218.978 24.2804 219.181 24.8513 219.232 25.513H217.487C217.414 24.9749 217.156 24.5458 216.713 24.2258C216.269 23.9058 215.716 23.7459 215.054 23.7459C214.604 23.7459 214.204 23.8222 213.854 23.9749C213.505 24.1204 213.236 24.3313 213.047 24.6076C212.858 24.8767 212.764 25.1858 212.764 25.5349C212.764 25.9203 212.891 26.2294 213.145 26.4621C213.4 26.6875 213.811 26.8548 214.378 26.9639L216.767 27.4111C217.334 27.5202 217.822 27.7275 218.229 28.0329C218.643 28.3311 218.956 28.7056 219.167 29.1565C219.385 29.6001 219.494 30.0837 219.494 30.6073C219.494 31.2546 219.305 31.8364 218.927 32.3527C218.556 32.869 218.043 33.2727 217.389 33.5635C216.734 33.8472 216.003 33.989 215.196 33.989ZM225.839 33.7272C225.308 33.7272 224.824 33.6145 224.388 33.389C223.959 33.1563 223.621 32.8399 223.373 32.44C223.126 32.0327 223.002 31.5818 223.002 31.0873L222.992 24.1058H221.028L221.039 22.5568H222.25C222.526 22.5568 222.748 22.4696 222.915 22.295C223.09 22.1205 223.177 21.8987 223.177 21.6296V19.8297H224.748V22.5568H227.77L227.759 24.1058H224.737L224.748 30.9782C224.748 31.32 224.861 31.6073 225.086 31.84C225.319 32.0654 225.606 32.1782 225.948 32.1782H227.759V33.7272H225.839ZM234.313 22.295C235.179 22.295 235.924 22.455 236.549 22.775C237.182 23.0877 237.666 23.5386 238 24.1277C238.342 24.7167 238.513 25.4149 238.513 26.2221V33.7272H236.789V32.1236C236.433 32.72 235.949 33.1817 235.339 33.509C234.735 33.829 234.04 33.989 233.255 33.989C232.542 33.989 231.899 33.8508 231.324 33.5745C230.757 33.2908 230.313 32.9054 229.993 32.4181C229.673 31.9236 229.513 31.3709 229.513 30.76C229.513 30.171 229.666 29.6256 229.972 29.1238C230.277 28.6147 230.699 28.2002 231.237 27.8802C231.775 27.5529 232.382 27.3529 233.059 27.2802L235.982 26.953C236.389 26.9021 236.651 26.6803 236.768 26.2875V26.0039C236.768 25.3349 236.546 24.804 236.102 24.4113C235.658 24.0186 235.062 23.8222 234.313 23.8222C233.811 23.8222 233.368 23.9022 232.982 24.0622C232.604 24.2149 232.302 24.4222 232.077 24.684C231.851 24.9458 231.71 25.2258 231.651 25.5239H229.906C230.001 24.9203 230.241 24.3749 230.626 23.8877C231.019 23.3931 231.531 23.0041 232.164 22.7205C232.797 22.4368 233.513 22.295 234.313 22.295ZM231.324 30.6728C231.324 31.0364 231.422 31.36 231.619 31.6436C231.815 31.9273 232.088 32.1491 232.437 32.3091C232.793 32.4618 233.2 32.5381 233.659 32.5381C234.262 32.5381 234.8 32.4145 235.273 32.1673C235.746 31.9127 236.113 31.56 236.375 31.1091C236.637 30.6582 236.768 30.1383 236.768 29.5492V28.1856L233.31 28.5674C232.924 28.6111 232.579 28.7311 232.273 28.9274C231.975 29.1238 231.742 29.3747 231.575 29.6801C231.408 29.9855 231.324 30.3164 231.324 30.6728ZM241.859 22.5568H243.604V24.4113C243.953 23.7786 244.412 23.295 244.979 22.9604C245.553 22.6186 246.208 22.4477 246.942 22.4477H247.335V24.2695H246.877C246.215 24.2695 245.637 24.3967 245.142 24.6513C244.648 24.9058 244.266 25.2694 243.997 25.7421C243.735 26.2076 243.604 26.7566 243.604 27.3893V33.7272H241.859V22.5568ZM252.209 33.7272C251.387 33.7272 250.744 33.5126 250.278 33.0836C249.82 32.6545 249.591 32.0618 249.591 31.3055V19.7642H251.336V22.5568H254.358L254.347 24.1058H251.325L251.336 31.1964C251.336 31.5018 251.423 31.7418 251.598 31.9164C251.773 32.0909 252.013 32.1782 252.318 32.1782H254.347V33.7272H252.209ZM261.677 33.989C260.623 33.989 259.67 33.7381 258.819 33.2363C257.968 32.7345 257.299 32.0363 256.812 31.1418C256.325 30.2473 256.081 29.2401 256.081 28.1202C256.081 27.0293 256.328 26.0403 256.823 25.1531C257.317 24.2586 257.99 23.5604 258.841 23.0586C259.699 22.5496 260.645 22.295 261.677 22.295C262.739 22.295 263.681 22.5423 264.503 23.0368C265.324 23.524 265.964 24.2113 266.422 25.0985C266.881 25.9857 267.11 27.0002 267.11 28.142V28.5347H257.859C257.917 29.3128 258.114 29.9965 258.448 30.5855C258.783 31.1673 259.226 31.6182 259.779 31.9382C260.332 32.2509 260.964 32.4072 261.677 32.4072C262.354 32.4072 262.953 32.2763 263.477 32.0145C264.001 31.7527 264.43 31.3782 264.764 30.891H266.706C266.292 31.8582 265.644 32.6181 264.764 33.1708C263.884 33.7163 262.855 33.989 261.677 33.989ZM265.288 27.1493C265.179 26.4875 264.957 25.9094 264.622 25.4149C264.295 24.9203 263.877 24.5385 263.368 24.2695C262.866 24.0004 262.303 23.8659 261.677 23.8659C261.023 23.8659 260.43 24.0004 259.899 24.2695C259.368 24.5385 258.932 24.9203 258.59 25.4149C258.248 25.9094 258.023 26.4875 257.914 27.1493H265.288ZM278.482 31.8291C278.061 32.5127 277.497 33.0436 276.791 33.4217C276.086 33.7999 275.279 33.989 274.37 33.989C273.33 33.989 272.403 33.7454 271.588 33.2581C270.781 32.7636 270.148 32.0727 269.69 31.1855C269.239 30.2983 269.014 29.2838 269.014 28.142C269.014 27.0002 269.239 25.9857 269.69 25.0985C270.148 24.2113 270.781 23.524 271.588 23.0368C272.403 22.5423 273.33 22.295 274.37 22.295C275.279 22.295 276.086 22.4841 276.791 22.8623C277.497 23.2404 278.061 23.7713 278.482 24.4549V18.4552H280.228V33.7272H278.482V31.8291ZM274.643 32.4072C275.392 32.4072 276.057 32.2291 276.639 31.8727C277.221 31.5091 277.671 31.0073 277.991 30.3673C278.319 29.7201 278.482 28.9783 278.482 28.142C278.482 27.3057 278.319 26.5675 277.991 25.9276C277.671 25.2803 277.221 24.7785 276.639 24.4222C276.057 24.0586 275.392 23.8768 274.643 23.8768C273.901 23.8768 273.243 24.0586 272.668 24.4222C272.094 24.7785 271.646 25.2803 271.326 25.9276C271.006 26.5675 270.846 27.3057 270.846 28.142C270.846 28.9783 271.006 29.7201 271.326 30.3673C271.646 31.0073 272.094 31.5091 272.668 31.8727C273.243 32.2291 273.901 32.4072 274.643 32.4072ZM288.709 22.5568H290.586L293.236 30.5855L293.487 31.5346L293.716 30.5855L296.454 22.5568H298.123L300.905 30.5855L301.156 31.5346L301.385 30.5855L303.981 22.5568H305.814L301.952 33.7272H300.229L297.502 25.3276L297.294 24.5531L297.109 25.3058L294.262 33.7272H292.56L288.709 22.5568ZM308.077 22.5568H309.823V33.7272H308.077V22.5568ZM307.99 18.4552H309.91V20.4406H307.99V18.4552ZM317.198 33.7272C316.667 33.7272 316.183 33.6145 315.747 33.389C315.318 33.1563 314.98 32.8399 314.732 32.44C314.485 32.0327 314.362 31.5818 314.362 31.0873L314.351 24.1058H312.387L312.398 22.5568H313.609C313.885 22.5568 314.107 22.4696 314.274 22.295C314.449 22.1205 314.536 21.8987 314.536 21.6296V19.8297H316.107V22.5568H319.129L319.118 24.1058H316.096L316.107 30.9782C316.107 31.32 316.22 31.6073 316.445 31.84C316.678 32.0654 316.965 32.1782 317.307 32.1782H319.118V33.7272H317.198ZM321.841 18.4552H323.521V24.3676C323.891 23.7059 324.393 23.1968 325.026 22.8404C325.659 22.4768 326.39 22.295 327.219 22.295C328.019 22.295 328.728 22.4659 329.346 22.8077C329.964 23.1495 330.448 23.655 330.797 24.324C331.153 24.9858 331.331 25.7821 331.331 26.713V33.7272H329.586V26.8875C329.586 25.9203 329.335 25.1676 328.833 24.6294C328.331 24.0913 327.64 23.8222 326.76 23.8222C326.135 23.8222 325.582 23.9604 325.102 24.2367C324.622 24.5131 324.248 24.9022 323.979 25.404C323.717 25.8985 323.586 26.4657 323.586 27.1057V33.7272H321.841V18.4552ZM341.352 18.4552H343.098V25.6112L350.254 18.4552H352.632L345.225 25.8294L352.763 33.7272H350.319L343.098 26.1785V33.7272H341.352V18.4552ZM358.844 33.989C357.775 33.989 356.804 33.7344 355.932 33.2254C355.066 32.7163 354.386 32.0182 353.892 31.1309C353.397 30.2364 353.15 29.2401 353.15 28.142C353.15 27.0439 353.397 26.0512 353.892 25.164C354.386 24.2695 355.066 23.5677 355.932 23.0586C356.804 22.5496 357.775 22.295 358.844 22.295C359.913 22.295 360.881 22.5496 361.746 23.0586C362.619 23.5677 363.302 24.2695 363.797 25.164C364.291 26.0512 364.539 27.0439 364.539 28.142C364.539 29.2401 364.291 30.2364 363.797 31.1309C363.302 32.0182 362.619 32.7163 361.746 33.2254C360.881 33.7344 359.913 33.989 358.844 33.989ZM358.844 32.3963C359.601 32.3963 360.27 32.2182 360.852 31.8618C361.441 31.4982 361.895 30.9964 362.215 30.3564C362.542 29.7092 362.706 28.971 362.706 28.142C362.706 27.3057 362.542 26.5675 362.215 25.9276C361.895 25.2803 361.441 24.7785 360.852 24.4222C360.27 24.0586 359.601 23.8768 358.844 23.8768C358.088 23.8768 357.415 24.0586 356.826 24.4222C356.244 24.7785 355.79 25.2803 355.463 25.9276C355.143 26.5675 354.983 27.3057 354.983 28.142C354.983 28.971 355.143 29.7092 355.463 30.3564C355.79 30.9964 356.244 31.4982 356.826 31.8618C357.415 32.2182 358.088 32.3963 358.844 32.3963ZM370.973 33.7272C370.443 33.7272 369.959 33.6145 369.523 33.389C369.094 33.1563 368.755 32.8399 368.508 32.44C368.261 32.0327 368.137 31.5818 368.137 31.0873L368.126 24.1058H366.163L366.174 22.5568H367.385C367.661 22.5568 367.883 22.4696 368.05 22.295C368.224 22.1205 368.312 21.8987 368.312 21.6296V19.8297H369.883V22.5568H372.904L372.893 24.1058H369.872L369.883 30.9782C369.883 31.32 369.995 31.6073 370.221 31.84C370.453 32.0654 370.741 32.1782 371.083 32.1782H372.893V33.7272H370.973ZM375.802 18.4552H377.547V33.7272H375.802V18.4552ZM381.39 22.5568H383.136V33.7272H381.39V22.5568ZM381.303 18.4552H383.223V20.4406H381.303V18.4552ZM386.802 22.5568H388.482V24.3676C388.853 23.7059 389.355 23.1968 389.987 22.8404C390.62 22.4768 391.351 22.295 392.18 22.295C392.98 22.295 393.689 22.4659 394.307 22.8077C394.925 23.1495 395.409 23.655 395.758 24.324C396.114 24.9858 396.292 25.7821 396.292 26.713V33.7272H394.547V26.8875C394.547 25.9203 394.296 25.1676 393.794 24.6294C393.292 24.0913 392.602 23.8222 391.722 23.8222C391.096 23.8222 390.544 23.9604 390.064 24.2367C389.584 24.5131 389.209 24.9022 388.94 25.404C388.678 25.8985 388.547 26.4657 388.547 27.1057V33.7272H386.802V22.5568ZM409.979 22.295C410.844 22.295 411.59 22.455 412.215 22.775C412.848 23.0877 413.332 23.5386 413.666 24.1277C414.008 24.7167 414.179 25.4149 414.179 26.2221V33.7272H412.455V32.1236C412.099 32.72 411.615 33.1817 411.004 33.509C410.401 33.829 409.706 33.989 408.921 33.989C408.208 33.989 407.565 33.8508 406.99 33.5745C406.423 33.2908 405.979 32.9054 405.659 32.4181C405.339 31.9236 405.179 31.3709 405.179 30.76C405.179 30.171 405.332 29.6256 405.637 29.1238C405.943 28.6147 406.365 28.2002 406.903 27.8802C407.441 27.5529 408.048 27.3529 408.724 27.2802L411.648 26.953C412.055 26.9021 412.317 26.6803 412.433 26.2875V26.0039C412.433 25.3349 412.212 24.804 411.768 24.4113C411.324 24.0186 410.728 23.8222 409.979 23.8222C409.477 23.8222 409.034 23.9022 408.648 24.0622C408.27 24.2149 407.968 24.4222 407.743 24.684C407.517 24.9458 407.375 25.2258 407.317 25.5239H405.572C405.666 24.9203 405.906 24.3749 406.292 23.8877C406.685 23.3931 407.197 23.0041 407.83 22.7205C408.463 22.4368 409.179 22.295 409.979 22.295ZM406.99 30.6728C406.99 31.0364 407.088 31.36 407.285 31.6436C407.481 31.9273 407.754 32.1491 408.103 32.3091C408.459 32.4618 408.866 32.5381 409.324 32.5381C409.928 32.5381 410.466 32.4145 410.939 32.1673C411.412 31.9127 411.779 31.56 412.041 31.1091C412.302 30.6582 412.433 30.1383 412.433 29.5492V28.1856L408.975 28.5674C408.59 28.6111 408.245 28.7311 407.939 28.9274C407.641 29.1238 407.408 29.3747 407.241 29.6801C407.074 29.9855 406.99 30.3164 406.99 30.6728ZM417.525 22.5568H419.205V24.3676C419.576 23.7059 420.077 23.1968 420.71 22.8404C421.343 22.4768 422.074 22.295 422.903 22.295C423.703 22.295 424.412 22.4659 425.03 22.8077C425.648 23.1495 426.132 23.655 426.481 24.324C426.837 24.9858 427.015 25.7821 427.015 26.713V33.7272H425.27V26.8875C425.27 25.9203 425.019 25.1676 424.517 24.6294C424.015 24.0913 423.324 23.8222 422.445 23.8222C421.819 23.8222 421.266 23.9604 420.786 24.2367C420.306 24.5131 419.932 24.9022 419.663 25.404C419.401 25.8985 419.27 26.4657 419.27 27.1057V33.7272H417.525V22.5568ZM438.957 31.8291C438.535 32.5127 437.972 33.0436 437.266 33.4217C436.561 33.7999 435.754 33.989 434.845 33.989C433.805 33.989 432.878 33.7454 432.063 33.2581C431.256 32.7636 430.623 32.0727 430.165 31.1855C429.714 30.2983 429.489 29.2838 429.489 28.142C429.489 27.0002 429.714 25.9857 430.165 25.0985C430.623 24.2113 431.256 23.524 432.063 23.0368C432.878 22.5423 433.805 22.295 434.845 22.295C435.754 22.295 436.561 22.4841 437.266 22.8623C437.972 23.2404 438.535 23.7713 438.957 24.4549V18.4552H440.703V33.7272H438.957V31.8291ZM435.117 32.4072C435.866 32.4072 436.532 32.2291 437.114 31.8727C437.695 31.5091 438.146 31.0073 438.466 30.3673C438.794 29.7201 438.957 28.9783 438.957 28.142C438.957 27.3057 438.794 26.5675 438.466 25.9276C438.146 25.2803 437.695 24.7785 437.114 24.4222C436.532 24.0586 435.866 23.8768 435.117 23.8768C434.376 23.8768 433.717 24.0586 433.143 24.4222C432.568 24.7785 432.121 25.2803 431.801 25.9276C431.481 26.5675 431.321 27.3057 431.321 28.142C431.321 28.9783 431.481 29.7201 431.801 30.3673C432.121 31.0073 432.568 31.5091 433.143 31.8727C433.717 32.2291 434.376 32.4072 435.117 32.4072ZM455.431 33.989C454.383 33.989 453.456 33.7963 452.649 33.4108C451.849 33.0254 451.224 32.4872 450.773 31.7964C450.329 31.1055 450.107 30.3128 450.107 29.4183H451.962C451.962 29.9928 452.107 30.5019 452.398 30.9455C452.689 31.3891 453.1 31.7345 453.631 31.9818C454.162 32.2291 454.769 32.3527 455.452 32.3527C456.129 32.3527 456.721 32.24 457.231 32.0145C457.747 31.7818 458.143 31.4582 458.42 31.0437C458.703 30.6219 458.845 30.1383 458.845 29.5928C458.845 28.9238 458.645 28.3747 458.245 27.9456C457.845 27.5166 457.292 27.2111 456.587 27.0293L454.067 26.3748C452.962 26.0912 452.089 25.6039 451.449 24.9131C450.816 24.2222 450.5 23.3786 450.5 22.3823C450.5 21.5896 450.707 20.8769 451.122 20.2442C451.544 19.6042 452.125 19.1025 452.867 18.7388C453.616 18.3752 454.456 18.1934 455.387 18.1934C456.347 18.1934 457.201 18.3752 457.951 18.7388C458.7 19.0952 459.281 19.5933 459.696 20.2333C460.11 20.8733 460.318 21.6041 460.318 22.4259H458.463C458.463 21.9241 458.336 21.4769 458.081 21.0842C457.827 20.6842 457.467 20.3751 457.001 20.1569C456.543 19.9388 456.012 19.8297 455.409 19.8297C454.805 19.8297 454.271 19.9351 453.805 20.146C453.34 20.3569 452.976 20.6551 452.714 21.0405C452.46 21.426 452.333 21.8732 452.333 22.3823C452.333 22.9641 452.522 23.4404 452.9 23.8113C453.278 24.1822 453.794 24.4549 454.449 24.6294L457.012 25.2949C457.725 25.4767 458.358 25.7748 458.91 26.1894C459.47 26.6039 459.907 27.1021 460.219 27.6838C460.532 28.2656 460.689 28.8947 460.689 29.571C460.689 30.3928 460.467 31.1418 460.023 31.8182C459.58 32.4872 458.958 33.0181 458.158 33.4108C457.358 33.7963 456.449 33.989 455.431 33.989ZM465.396 22.5568V24.5313C465.818 23.8186 466.385 23.2695 467.098 22.8841C467.81 22.4914 468.629 22.295 469.552 22.295C470.592 22.295 471.516 22.5423 472.323 23.0368C473.137 23.524 473.77 24.2113 474.221 25.0985C474.679 25.9857 474.908 27.0002 474.908 28.142C474.908 29.2838 474.679 30.2983 474.221 31.1855C473.77 32.0727 473.137 32.7636 472.323 33.2581C471.516 33.7454 470.592 33.989 469.552 33.989C468.643 33.989 467.836 33.7999 467.131 33.4217C466.425 33.0436 465.861 32.5127 465.44 31.8291V37.2179H463.694V22.5568H465.396ZM469.28 32.4072C470.021 32.4072 470.679 32.2291 471.254 31.8727C471.828 31.5091 472.276 31.0073 472.596 30.3673C472.916 29.7201 473.076 28.9783 473.076 28.142C473.076 27.3057 472.916 26.5675 472.596 25.9276C472.276 25.2803 471.828 24.7785 471.254 24.4222C470.679 24.0586 470.021 23.8768 469.28 23.8768C468.53 23.8768 467.865 24.0586 467.283 24.4222C466.701 24.7785 466.247 25.2803 465.92 25.9276C465.6 26.5675 465.44 27.3057 465.44 28.142C465.44 28.9783 465.6 29.7201 465.92 30.3673C466.247 31.0073 466.701 31.5091 467.283 31.8727C467.865 32.2291 468.53 32.4072 469.28 32.4072ZM477.692 22.5568H479.438V24.4113C479.787 23.7786 480.245 23.295 480.812 22.9604C481.387 22.6186 482.041 22.4477 482.776 22.4477H483.168V24.2695H482.71C482.048 24.2695 481.47 24.3967 480.976 24.6513C480.481 24.9058 480.099 25.2694 479.83 25.7421C479.568 26.2076 479.438 26.7566 479.438 27.3893V33.7272H477.692V22.5568ZM485.511 22.5568H487.257V33.7272H485.511V22.5568ZM485.424 18.4552H487.344V20.4406H485.424V18.4552ZM490.923 22.5568H492.603V24.3676C492.974 23.7059 493.476 23.1968 494.108 22.8404C494.741 22.4768 495.472 22.295 496.301 22.295C497.101 22.295 497.81 22.4659 498.428 22.8077C499.046 23.1495 499.53 23.655 499.879 24.324C500.235 24.9858 500.414 25.7821 500.414 26.713V33.7272H498.668V26.8875C498.668 25.9203 498.417 25.1676 497.915 24.6294C497.414 24.0913 496.723 23.8222 495.843 23.8222C495.217 23.8222 494.665 23.9604 494.185 24.2367C493.705 24.5131 493.33 24.9022 493.061 25.404C492.799 25.8985 492.668 26.4657 492.668 27.1057V33.7272H490.923V22.5568ZM508.505 37.4797C507.683 37.4797 506.916 37.3415 506.203 37.0652C505.498 36.7888 504.901 36.3998 504.414 35.898C503.934 35.4035 503.61 34.8326 503.443 34.1853H505.232C505.327 34.5126 505.53 34.8035 505.843 35.058C506.156 35.3198 506.541 35.5234 506.999 35.6689C507.465 35.8143 507.967 35.8871 508.505 35.8871C509.196 35.8871 509.814 35.7562 510.359 35.4944C510.912 35.2326 511.341 34.8653 511.646 34.3926C511.959 33.9199 512.115 33.3708 512.115 32.7454V32.0691L512.137 31.1746C511.701 31.8 511.145 32.28 510.468 32.6145C509.792 32.949 509.025 33.1163 508.167 33.1163C507.156 33.1163 506.261 32.8872 505.483 32.4291C504.705 31.9709 504.101 31.3309 503.672 30.5092C503.25 29.6874 503.04 28.7529 503.04 27.7057C503.04 26.6584 503.25 25.7239 503.672 24.9022C504.101 24.0804 504.705 23.4404 505.483 22.9823C506.261 22.5241 507.156 22.295 508.167 22.295C509.047 22.295 509.832 22.4732 510.523 22.8295C511.214 23.1786 511.774 23.6768 512.203 24.324V22.5568H513.894L513.861 32.7454C513.861 33.669 513.632 34.4871 513.174 35.1998C512.715 35.9198 512.079 36.4798 511.265 36.8797C510.457 37.2797 509.537 37.4797 508.505 37.4797ZM508.505 31.5782C509.21 31.5782 509.836 31.4182 510.381 31.0982C510.934 30.771 511.363 30.3128 511.668 29.7237C511.974 29.1347 512.13 28.462 512.137 27.7057C512.13 26.9493 511.974 26.2766 511.668 25.6876C511.363 25.0985 510.934 24.644 510.381 24.324C509.836 23.9968 509.21 23.8331 508.505 23.8331C507.792 23.8331 507.159 23.9968 506.607 24.324C506.054 24.644 505.625 25.0985 505.319 25.6876C505.021 26.2766 504.872 26.9493 504.872 27.7057C504.872 28.462 505.021 29.1347 505.319 29.7237C505.625 30.3128 506.054 30.771 506.607 31.0982C507.159 31.4182 507.792 31.5782 508.505 31.5782ZM533.967 27.0621H523.768V25.4367H533.967V21.3133L539.302 26.233L533.967 31.24V27.0621Z" fill="white"/>
</svg>
