<svg width="588" height="46" viewBox="0 0 588 46" fill="none" xmlns="http://www.w3.org/2000/svg">
<rect width="588" height="46" rx="23" fill="black"/>
<path d="M31.3889 34.384C29.3195 34.384 27.4475 33.8827 25.7729 32.88C24.0982 31.8667 22.7809 30.48 21.8209 28.72C20.8715 26.9493 20.3969 24.976 20.3969 22.8C20.3969 20.624 20.8715 18.656 21.8209 16.896C22.7809 15.1253 24.0982 13.7387 25.7729 12.736C27.4475 11.7227 29.3195 11.216 31.3889 11.216C32.9782 11.216 34.4449 11.488 35.7889 12.032C37.1435 12.576 38.3062 13.344 39.2769 14.336C40.2582 15.328 40.9889 16.4853 41.4689 17.808H38.5089C37.8689 16.5173 36.9302 15.504 35.6929 14.768C34.4555 14.0213 33.0475 13.648 31.4689 13.648C29.9115 13.648 28.4982 14.048 27.2289 14.848C25.9595 15.6373 24.9622 16.7307 24.2369 18.128C23.5115 19.5253 23.1489 21.0827 23.1489 22.8C23.1489 24.5173 23.5115 26.0747 24.2369 27.472C24.9622 28.8693 25.9595 29.968 27.2289 30.768C28.4982 31.5573 29.9115 31.952 31.4689 31.952C32.8875 31.952 34.1729 31.664 35.3249 31.088C36.4875 30.5013 37.4049 29.7013 38.0769 28.688C38.7595 27.664 39.1115 26.5227 39.1329 25.264V25.072H33.2129V22.672H41.8209V24.304C41.8209 26.2027 41.3675 27.92 40.4609 29.456C39.5542 30.9813 38.3062 32.1867 36.7169 33.072C35.1275 33.9467 33.3515 34.384 31.3889 34.384ZM53.0219 34.384C51.4752 34.384 50.0779 34.016 48.8299 33.28C47.5819 32.544 46.6005 31.52 45.8859 30.208C45.1712 28.896 44.8139 27.4187 44.8139 25.776C44.8139 24.176 45.1765 22.7253 45.9019 21.424C46.6272 20.112 47.6139 19.088 48.8619 18.352C50.1205 17.6053 51.5072 17.232 53.0219 17.232C54.5792 17.232 55.9605 17.5947 57.1659 18.32C58.3712 19.0347 59.3099 20.0427 59.9819 21.344C60.6539 22.6453 60.9899 24.1333 60.9899 25.808V26.384H47.4219C47.5072 27.5253 47.7952 28.528 48.2859 29.392C48.7765 30.2453 49.4272 30.9067 50.2379 31.376C51.0485 31.8347 51.9765 32.064 53.0219 32.064C54.0139 32.064 54.8939 31.872 55.6619 31.488C56.4299 31.104 57.0592 30.5547 57.5499 29.84H60.3979C59.7899 31.2587 58.8405 32.3733 57.5499 33.184C56.2592 33.984 54.7499 34.384 53.0219 34.384ZM58.3179 24.352C58.1579 23.3813 57.8325 22.5333 57.3419 21.808C56.8619 21.0827 56.2485 20.5227 55.5019 20.128C54.7659 19.7333 53.9392 19.536 53.0219 19.536C52.0619 19.536 51.1925 19.7333 50.4139 20.128C49.6352 20.5227 48.9952 21.0827 48.4939 21.808C47.9925 22.5333 47.6619 23.3813 47.5019 24.352H58.3179ZM70.4249 34C69.6462 34 68.9369 33.8347 68.2969 33.504C67.6675 33.1627 67.1715 32.6987 66.8089 32.112C66.4462 31.5147 66.2649 30.8533 66.2649 30.128L66.2489 19.888H63.3689L63.3849 17.616H65.1609C65.5662 17.616 65.8915 17.488 66.1369 17.232C66.3929 16.976 66.5209 16.6507 66.5209 16.256V13.616H68.8249V17.616H73.2569L73.2409 19.888H68.8089L68.8249 29.968C68.8249 30.4693 68.9902 30.8907 69.3209 31.232C69.6622 31.5627 70.0835 31.728 70.5849 31.728H73.2409V34H70.4249ZM91.8776 34.384C90.619 34.384 89.499 34.1867 88.5176 33.792C87.5363 33.3867 86.7576 32.816 86.1816 32.08C85.6056 31.344 85.2856 30.4853 85.2216 29.504H87.7816C87.8883 30.3253 88.3096 30.9813 89.0456 31.472C89.7816 31.9627 90.715 32.208 91.8456 32.208C92.5923 32.208 93.2536 32.0907 93.8296 31.856C94.4163 31.6213 94.8696 31.296 95.1896 30.88C95.5096 30.4533 95.6696 29.968 95.6696 29.424C95.6696 28.8373 95.483 28.3307 95.1096 27.904C94.747 27.4667 94.251 27.1893 93.6216 27.072L90.0856 26.416C88.7523 26.1707 87.7016 25.6587 86.9336 24.88C86.1763 24.0907 85.7976 23.1253 85.7976 21.984C85.7976 21.088 86.043 20.2827 86.5336 19.568C87.0243 18.8427 87.7123 18.272 88.5976 17.856C89.4936 17.44 90.5176 17.232 91.6696 17.232C92.8536 17.232 93.8936 17.424 94.7896 17.808C95.6856 18.1813 96.3896 18.7253 96.9016 19.44C97.4243 20.144 97.723 20.9813 97.7976 21.952H95.2376C95.131 21.1627 94.7523 20.5333 94.1016 20.064C93.451 19.5947 92.6403 19.36 91.6696 19.36C91.0083 19.36 90.4216 19.472 89.9096 19.696C89.3976 19.9093 89.003 20.2187 88.7256 20.624C88.4483 21.0187 88.3096 21.472 88.3096 21.984C88.3096 22.5493 88.4963 23.0027 88.8696 23.344C89.243 23.6747 89.8456 23.92 90.6776 24.08L94.1816 24.736C95.0136 24.896 95.7283 25.2 96.3256 25.648C96.9336 26.0853 97.3923 26.6347 97.7016 27.296C98.0216 27.9467 98.1816 28.656 98.1816 29.424C98.1816 30.3733 97.9043 31.2267 97.3496 31.984C96.8056 32.7413 96.0536 33.3333 95.0936 33.76C94.1336 34.176 93.0616 34.384 91.8776 34.384ZM107.487 34C106.709 34 105.999 33.8347 105.359 33.504C104.73 33.1627 104.234 32.6987 103.871 32.112C103.509 31.5147 103.327 30.8533 103.327 30.128L103.311 19.888H100.431L100.447 17.616H102.223C102.629 17.616 102.954 17.488 103.199 17.232C103.455 16.976 103.583 16.6507 103.583 16.256V13.616H105.887V17.616H110.319L110.303 19.888H105.871L105.887 29.968C105.887 30.4693 106.053 30.8907 106.383 31.232C106.725 31.5627 107.146 31.728 107.647 31.728H110.303V34H107.487ZM119.917 17.232C121.186 17.232 122.28 17.4667 123.197 17.936C124.125 18.3947 124.834 19.056 125.325 19.92C125.826 20.784 126.077 21.808 126.077 22.992V34H123.549V31.648C123.026 32.5227 122.317 33.2 121.421 33.68C120.536 34.1493 119.517 34.384 118.365 34.384C117.32 34.384 116.376 34.1813 115.533 33.776C114.701 33.36 114.05 32.7947 113.581 32.08C113.112 31.3547 112.877 30.544 112.877 29.648C112.877 28.784 113.101 27.984 113.549 27.248C113.997 26.5013 114.616 25.8933 115.405 25.424C116.194 24.944 117.085 24.6507 118.077 24.544L122.365 24.064C122.962 23.9893 123.346 23.664 123.517 23.088V22.672C123.517 21.6907 123.192 20.912 122.541 20.336C121.89 19.76 121.016 19.472 119.917 19.472C119.181 19.472 118.53 19.5893 117.965 19.824C117.41 20.048 116.968 20.352 116.637 20.736C116.306 21.12 116.098 21.5307 116.013 21.968H113.453C113.592 21.0827 113.944 20.2827 114.509 19.568C115.085 18.8427 115.837 18.272 116.765 17.856C117.693 17.44 118.744 17.232 119.917 17.232ZM115.533 29.52C115.533 30.0533 115.677 30.528 115.965 30.944C116.253 31.36 116.653 31.6853 117.165 31.92C117.688 32.144 118.285 32.256 118.957 32.256C119.842 32.256 120.632 32.0747 121.325 31.712C122.018 31.3387 122.557 30.8213 122.941 30.16C123.325 29.4987 123.517 28.736 123.517 27.872V25.872L118.445 26.432C117.88 26.496 117.373 26.672 116.925 26.96C116.488 27.248 116.146 27.616 115.901 28.064C115.656 28.512 115.533 28.9973 115.533 29.52ZM130.985 17.616H133.545V20.336C134.057 19.408 134.729 18.6987 135.561 18.208C136.404 17.7067 137.364 17.456 138.441 17.456H139.017V20.128H138.345C137.374 20.128 136.526 20.3147 135.801 20.688C135.076 21.0613 134.516 21.5947 134.121 22.288C133.737 22.9707 133.545 23.776 133.545 24.704V34H130.985V17.616ZM146.166 34C144.96 34 144.016 33.6853 143.334 33.056C142.662 32.4267 142.326 31.5573 142.326 30.448V13.52H144.886V17.616H149.318L149.302 19.888H144.87L144.886 30.288C144.886 30.736 145.014 31.088 145.27 31.344C145.526 31.6 145.878 31.728 146.326 31.728H149.302V34H146.166ZM160.053 34.384C158.506 34.384 157.109 34.016 155.861 33.28C154.613 32.544 153.632 31.52 152.917 30.208C152.202 28.896 151.845 27.4187 151.845 25.776C151.845 24.176 152.208 22.7253 152.933 21.424C153.658 20.112 154.645 19.088 155.893 18.352C157.152 17.6053 158.538 17.232 160.053 17.232C161.61 17.232 162.992 17.5947 164.197 18.32C165.402 19.0347 166.341 20.0427 167.013 21.344C167.685 22.6453 168.021 24.1333 168.021 25.808V26.384H154.453C154.538 27.5253 154.826 28.528 155.317 29.392C155.808 30.2453 156.458 30.9067 157.269 31.376C158.08 31.8347 159.008 32.064 160.053 32.064C161.045 32.064 161.925 31.872 162.693 31.488C163.461 31.104 164.09 30.5547 164.581 29.84H167.429C166.821 31.2587 165.872 32.3733 164.581 33.184C163.29 33.984 161.781 34.384 160.053 34.384ZM165.349 24.352C165.189 23.3813 164.864 22.5333 164.373 21.808C163.893 21.0827 163.28 20.5227 162.533 20.128C161.797 19.7333 160.97 19.536 160.053 19.536C159.093 19.536 158.224 19.7333 157.445 20.128C156.666 20.5227 156.026 21.0827 155.525 21.808C155.024 22.5333 154.693 23.3813 154.533 24.352H165.349ZM184.702 31.216C184.083 32.2187 183.257 32.9973 182.222 33.552C181.187 34.1067 180.003 34.384 178.67 34.384C177.145 34.384 175.785 34.0267 174.59 33.312C173.406 32.5867 172.478 31.5733 171.806 30.272C171.145 28.9707 170.814 27.4827 170.814 25.808C170.814 24.1333 171.145 22.6453 171.806 21.344C172.478 20.0427 173.406 19.0347 174.59 18.32C175.785 17.5947 177.145 17.232 178.67 17.232C180.003 17.232 181.187 17.5093 182.222 18.064C183.257 18.6187 184.083 19.3973 184.702 20.4V11.6H187.262V34H184.702V31.216ZM179.07 32.064C180.169 32.064 181.145 31.8027 181.998 31.28C182.851 30.7467 183.513 30.0107 183.982 29.072C184.462 28.1227 184.702 27.0347 184.702 25.808C184.702 24.5813 184.462 23.4987 183.982 22.56C183.513 21.6107 182.851 20.8747 181.998 20.352C181.145 19.8187 180.169 19.552 179.07 19.552C177.982 19.552 177.017 19.8187 176.174 20.352C175.331 20.8747 174.675 21.6107 174.206 22.56C173.737 23.4987 173.502 24.5813 173.502 25.808C173.502 27.0347 173.737 28.1227 174.206 29.072C174.675 30.0107 175.331 30.7467 176.174 31.28C177.017 31.8027 177.982 32.064 179.07 32.064ZM199.702 17.616H202.454L206.342 29.392L206.71 30.784L207.046 29.392L211.062 17.616H213.51L217.59 29.392L217.958 30.784L218.294 29.392L222.102 17.616H224.79L219.126 34H216.598L212.598 21.68L212.294 20.544L212.022 21.648L207.846 34H205.35L199.702 17.616ZM228.11 17.616H230.67V34H228.11V17.616ZM227.982 11.6H230.798V14.512H227.982V11.6ZM241.487 34C240.709 34 239.999 33.8347 239.359 33.504C238.73 33.1627 238.234 32.6987 237.871 32.112C237.509 31.5147 237.327 30.8533 237.327 30.128L237.311 19.888H234.431L234.447 17.616H236.223C236.629 17.616 236.954 17.488 237.199 17.232C237.455 16.976 237.583 16.6507 237.583 16.256V13.616H239.887V17.616H244.319L244.303 19.888H239.871L239.887 29.968C239.887 30.4693 240.053 30.8907 240.383 31.232C240.725 31.5627 241.146 31.728 241.647 31.728H244.303V34H241.487ZM248.297 11.6H250.761V20.272C251.305 19.3013 252.041 18.5547 252.969 18.032C253.897 17.4987 254.969 17.232 256.185 17.232C257.359 17.232 258.399 17.4827 259.305 17.984C260.212 18.4853 260.921 19.2267 261.433 20.208C261.956 21.1787 262.217 22.3467 262.217 23.712V34H259.657V23.968C259.657 22.5493 259.289 21.4453 258.553 20.656C257.817 19.8667 256.804 19.472 255.513 19.472C254.596 19.472 253.785 19.6747 253.081 20.08C252.377 20.4853 251.828 21.056 251.433 21.792C251.049 22.5173 250.857 23.3493 250.857 24.288V34H248.297V11.6ZM276.916 11.6H279.476V22.096L289.972 11.6H293.46L282.596 22.416L293.652 34H290.068L279.476 22.928V34H276.916V11.6ZM302.572 34.384C301.004 34.384 299.58 34.0107 298.3 33.264C297.031 32.5173 296.033 31.4933 295.308 30.192C294.583 28.88 294.22 27.4187 294.22 25.808C294.22 24.1973 294.583 22.7413 295.308 21.44C296.033 20.128 297.031 19.0987 298.3 18.352C299.58 17.6053 301.004 17.232 302.572 17.232C304.14 17.232 305.559 17.6053 306.828 18.352C308.108 19.0987 309.111 20.128 309.836 21.44C310.561 22.7413 310.924 24.1973 310.924 25.808C310.924 27.4187 310.561 28.88 309.836 30.192C309.111 31.4933 308.108 32.5173 306.828 33.264C305.559 34.0107 304.14 34.384 302.572 34.384ZM302.572 32.048C303.681 32.048 304.663 31.7867 305.516 31.264C306.38 30.7307 307.047 29.9947 307.516 29.056C307.996 28.1067 308.236 27.024 308.236 25.808C308.236 24.5813 307.996 23.4987 307.516 22.56C307.047 21.6107 306.38 20.8747 305.516 20.352C304.663 19.8187 303.681 19.552 302.572 19.552C301.463 19.552 300.476 19.8187 299.612 20.352C298.759 20.8747 298.092 21.6107 297.612 22.56C297.143 23.4987 296.908 24.5813 296.908 25.808C296.908 27.024 297.143 28.1067 297.612 29.056C298.092 29.9947 298.759 30.7307 299.612 31.264C300.476 31.7867 301.463 32.048 302.572 32.048ZM320.362 34C319.584 34 318.874 33.8347 318.234 33.504C317.605 33.1627 317.109 32.6987 316.746 32.112C316.384 31.5147 316.202 30.8533 316.202 30.128L316.186 19.888H313.306L313.322 17.616H315.098C315.504 17.616 315.829 17.488 316.074 17.232C316.33 16.976 316.458 16.6507 316.458 16.256V13.616H318.762V17.616H323.194L323.178 19.888H318.746L318.762 29.968C318.762 30.4693 318.928 30.8907 319.258 31.232C319.6 31.5627 320.021 31.728 320.522 31.728H323.178V34H320.362ZM327.444 11.6H330.004V34H327.444V11.6ZM335.641 17.616H338.201V34H335.641V17.616ZM335.513 11.6H338.329V14.512H335.513V11.6ZM343.579 17.616H346.043V20.272C346.587 19.3013 347.323 18.5547 348.251 18.032C349.179 17.4987 350.251 17.232 351.467 17.232C352.64 17.232 353.68 17.4827 354.587 17.984C355.493 18.4853 356.203 19.2267 356.715 20.208C357.237 21.1787 357.499 22.3467 357.499 23.712V34H354.939V23.968C354.939 22.5493 354.571 21.4453 353.835 20.656C353.099 19.8667 352.085 19.472 350.795 19.472C349.877 19.472 349.067 19.6747 348.363 20.08C347.659 20.4853 347.109 21.056 346.715 21.792C346.331 22.5173 346.139 23.3493 346.139 24.288V34H343.579V17.616ZM377.573 17.232C378.843 17.232 379.936 17.4667 380.853 17.936C381.781 18.3947 382.491 19.056 382.981 19.92C383.483 20.784 383.733 21.808 383.733 22.992V34H381.205V31.648C380.683 32.5227 379.973 33.2 379.077 33.68C378.192 34.1493 377.173 34.384 376.021 34.384C374.976 34.384 374.032 34.1813 373.189 33.776C372.357 33.36 371.707 32.7947 371.237 32.08C370.768 31.3547 370.533 30.544 370.533 29.648C370.533 28.784 370.757 27.984 371.205 27.248C371.653 26.5013 372.272 25.8933 373.061 25.424C373.851 24.944 374.741 24.6507 375.733 24.544L380.021 24.064C380.619 23.9893 381.003 23.664 381.173 23.088V22.672C381.173 21.6907 380.848 20.912 380.197 20.336C379.547 19.76 378.672 19.472 377.573 19.472C376.837 19.472 376.187 19.5893 375.621 19.824C375.067 20.048 374.624 20.352 374.293 20.736C373.963 21.12 373.755 21.5307 373.669 21.968H371.109C371.248 21.0827 371.6 20.2827 372.165 19.568C372.741 18.8427 373.493 18.272 374.421 17.856C375.349 17.44 376.4 17.232 377.573 17.232ZM373.189 29.52C373.189 30.0533 373.333 30.528 373.621 30.944C373.909 31.36 374.309 31.6853 374.821 31.92C375.344 32.144 375.941 32.256 376.613 32.256C377.499 32.256 378.288 32.0747 378.981 31.712C379.675 31.3387 380.213 30.8213 380.597 30.16C380.981 29.4987 381.173 28.736 381.173 27.872V25.872L376.101 26.432C375.536 26.496 375.029 26.672 374.581 26.96C374.144 27.248 373.803 27.616 373.557 28.064C373.312 28.512 373.189 28.9973 373.189 29.52ZM388.641 17.616H391.105V20.272C391.649 19.3013 392.385 18.5547 393.313 18.032C394.241 17.4987 395.313 17.232 396.529 17.232C397.702 17.232 398.742 17.4827 399.649 17.984C400.556 18.4853 401.265 19.2267 401.777 20.208C402.3 21.1787 402.561 22.3467 402.561 23.712V34H400.001V23.968C400.001 22.5493 399.633 21.4453 398.897 20.656C398.161 19.8667 397.148 19.472 395.857 19.472C394.94 19.472 394.129 19.6747 393.425 20.08C392.721 20.4853 392.172 21.056 391.777 21.792C391.393 22.5173 391.201 23.3493 391.201 24.288V34H388.641V17.616ZM420.077 31.216C419.458 32.2187 418.632 32.9973 417.597 33.552C416.562 34.1067 415.378 34.384 414.045 34.384C412.52 34.384 411.16 34.0267 409.965 33.312C408.781 32.5867 407.853 31.5733 407.181 30.272C406.52 28.9707 406.189 27.4827 406.189 25.808C406.189 24.1333 406.52 22.6453 407.181 21.344C407.853 20.0427 408.781 19.0347 409.965 18.32C411.16 17.5947 412.52 17.232 414.045 17.232C415.378 17.232 416.562 17.5093 417.597 18.064C418.632 18.6187 419.458 19.3973 420.077 20.4V11.6H422.637V34H420.077V31.216ZM414.445 32.064C415.544 32.064 416.52 31.8027 417.373 31.28C418.226 30.7467 418.888 30.0107 419.357 29.072C419.837 28.1227 420.077 27.0347 420.077 25.808C420.077 24.5813 419.837 23.4987 419.357 22.56C418.888 21.6107 418.226 20.8747 417.373 20.352C416.52 19.8187 415.544 19.552 414.445 19.552C413.357 19.552 412.392 19.8187 411.549 20.352C410.706 20.8747 410.05 21.6107 409.581 22.56C409.112 23.4987 408.877 24.5813 408.877 25.808C408.877 27.0347 409.112 28.1227 409.581 29.072C410.05 30.0107 410.706 30.7467 411.549 31.28C412.392 31.8027 413.357 32.064 414.445 32.064ZM444.239 34.384C442.703 34.384 441.343 34.1013 440.159 33.536C438.986 32.9707 438.068 32.1813 437.407 31.168C436.756 30.1547 436.431 28.992 436.431 27.68H439.151C439.151 28.5227 439.364 29.2693 439.791 29.92C440.218 30.5707 440.82 31.0773 441.599 31.44C442.378 31.8027 443.268 31.984 444.271 31.984C445.263 31.984 446.132 31.8187 446.879 31.488C447.636 31.1467 448.218 30.672 448.623 30.064C449.039 29.4453 449.247 28.736 449.247 27.936C449.247 26.9547 448.954 26.1493 448.367 25.52C447.78 24.8907 446.97 24.4427 445.935 24.176L442.239 23.216C440.618 22.8 439.338 22.0853 438.399 21.072C437.471 20.0587 437.007 18.8213 437.007 17.36C437.007 16.1973 437.311 15.152 437.919 14.224C438.538 13.2853 439.391 12.5493 440.479 12.016C441.578 11.4827 442.81 11.216 444.175 11.216C445.583 11.216 446.836 11.4827 447.935 12.016C449.034 12.5387 449.887 13.2693 450.495 14.208C451.103 15.1467 451.407 16.2187 451.407 17.424H448.687C448.687 16.688 448.5 16.032 448.127 15.456C447.754 14.8693 447.226 14.416 446.543 14.096C445.871 13.776 445.092 13.616 444.207 13.616C443.322 13.616 442.538 13.7707 441.855 14.08C441.172 14.3893 440.639 14.8267 440.255 15.392C439.882 15.9573 439.695 16.6133 439.695 17.36C439.695 18.2133 439.972 18.912 440.527 19.456C441.082 20 441.839 20.4 442.799 20.656L446.559 21.632C447.604 21.8987 448.532 22.336 449.343 22.944C450.164 23.552 450.804 24.2827 451.263 25.136C451.722 25.9893 451.951 26.912 451.951 27.904C451.951 29.1093 451.626 30.208 450.975 31.2C450.324 32.1813 449.412 32.96 448.239 33.536C447.066 34.1013 445.732 34.384 444.239 34.384ZM458.856 17.616V20.512C459.475 19.4667 460.307 18.6613 461.352 18.096C462.397 17.52 463.597 17.232 464.952 17.232C466.477 17.232 467.832 17.5947 469.016 18.32C470.211 19.0347 471.139 20.0427 471.8 21.344C472.472 22.6453 472.808 24.1333 472.808 25.808C472.808 27.4827 472.472 28.9707 471.8 30.272C471.139 31.5733 470.211 32.5867 469.016 33.312C467.832 34.0267 466.477 34.384 464.952 34.384C463.619 34.384 462.435 34.1067 461.4 33.552C460.365 32.9973 459.539 32.2187 458.92 31.216V39.12H456.36V17.616H458.856ZM464.552 32.064C465.64 32.064 466.605 31.8027 467.448 31.28C468.291 30.7467 468.947 30.0107 469.416 29.072C469.885 28.1227 470.12 27.0347 470.12 25.808C470.12 24.5813 469.885 23.4987 469.416 22.56C468.947 21.6107 468.291 20.8747 467.448 20.352C466.605 19.8187 465.64 19.552 464.552 19.552C463.453 19.552 462.477 19.8187 461.624 20.352C460.771 20.8747 460.104 21.6107 459.624 22.56C459.155 23.4987 458.92 24.5813 458.92 25.808C458.92 27.0347 459.155 28.1227 459.624 29.072C460.104 30.0107 460.771 30.7467 461.624 31.28C462.477 31.8027 463.453 32.064 464.552 32.064ZM476.891 17.616H479.451V20.336C479.963 19.408 480.635 18.6987 481.467 18.208C482.31 17.7067 483.27 17.456 484.347 17.456H484.923V20.128H484.251C483.28 20.128 482.432 20.3147 481.707 20.688C480.982 21.0613 480.422 21.5947 480.027 22.288C479.643 22.9707 479.451 23.776 479.451 24.704V34H476.891V17.616ZM488.36 17.616H490.92V34H488.36V17.616ZM488.232 11.6H491.048V14.512H488.232V11.6ZM496.297 17.616H498.761V20.272C499.305 19.3013 500.041 18.5547 500.969 18.032C501.897 17.4987 502.969 17.232 504.185 17.232C505.359 17.232 506.399 17.4827 507.305 17.984C508.212 18.4853 508.921 19.2267 509.433 20.208C509.956 21.1787 510.217 22.3467 510.217 23.712V34H507.657V23.968C507.657 22.5493 507.289 21.4453 506.553 20.656C505.817 19.8667 504.804 19.472 503.513 19.472C502.596 19.472 501.785 19.6747 501.081 20.08C500.377 20.4853 499.828 21.056 499.433 21.792C499.049 22.5173 498.857 23.3493 498.857 24.288V34H496.297V17.616ZM522.085 39.504C520.88 39.504 519.754 39.3013 518.709 38.896C517.674 38.4907 516.8 37.92 516.085 37.184C515.381 36.4587 514.906 35.6213 514.661 34.672H517.285C517.424 35.152 517.722 35.5787 518.181 35.952C518.64 36.336 519.205 36.6347 519.877 36.848C520.56 37.0613 521.296 37.168 522.085 37.168C523.098 37.168 524.005 36.976 524.805 36.592C525.616 36.208 526.245 35.6693 526.693 34.976C527.152 34.2827 527.381 33.4773 527.381 32.56V31.568L527.413 30.256C526.773 31.1733 525.957 31.8773 524.965 32.368C523.973 32.8587 522.848 33.104 521.589 33.104C520.106 33.104 518.794 32.768 517.653 32.096C516.512 31.424 515.626 30.4853 514.997 29.28C514.378 28.0747 514.069 26.704 514.069 25.168C514.069 23.632 514.378 22.2613 514.997 21.056C515.626 19.8507 516.512 18.912 517.653 18.24C518.794 17.568 520.106 17.232 521.589 17.232C522.88 17.232 524.032 17.4933 525.045 18.016C526.058 18.528 526.88 19.2587 527.509 20.208V17.616H529.989L529.941 32.56C529.941 33.9147 529.605 35.1147 528.933 36.16C528.261 37.216 527.328 38.0373 526.133 38.624C524.949 39.2107 523.6 39.504 522.085 39.504ZM522.085 30.848C523.12 30.848 524.037 30.6133 524.837 30.144C525.648 29.664 526.277 28.992 526.725 28.128C527.173 27.264 527.402 26.2773 527.413 25.168C527.402 24.0587 527.173 23.072 526.725 22.208C526.277 21.344 525.648 20.6773 524.837 20.208C524.037 19.728 523.12 19.488 522.085 19.488C521.04 19.488 520.112 19.728 519.301 20.208C518.49 20.6773 517.861 21.344 517.413 22.208C516.976 23.072 516.757 24.0587 516.757 25.168C516.757 26.2773 516.976 27.264 517.413 28.128C517.861 28.992 518.49 29.664 519.301 30.144C520.112 30.6133 521.04 30.848 522.085 30.848ZM559.432 24.224H544.472V21.84H559.432V15.792L567.256 23.008L559.432 30.352V24.224Z" fill="white"/>
</svg>
