<svg width="1480" height="833" viewBox="0 0 1480 833" fill="none" xmlns="http://www.w3.org/2000/svg">
    <rect width="1480" height="832.5" fill="#7F52FF"/>
    <g clip-path="url(#clip0)">
        <path d="M381 299C381 271.386 403.386 249 431 249H927V583H431C403.386 583 381 560.614 381 533V299Z" fill="white"/>
        <path d="M462.042 330H634.853L547.454 416.406L634.853 502.811H462.042V330Z" fill="#7F52FF"/>
        <path d="M739.971 502.811L673.095 435.695L764.561 343.9C783.029 325.367 812.97 325.367 831.437 343.9C849.904 362.434 849.904 392.483 831.437 411.016L739.971 502.811Z" fill="#FF4C58"/>
        <path d="M807.045 435.695L740.17 502.811L648.704 411.016C630.236 392.483 630.236 362.434 648.704 343.9C667.171 325.367 697.112 325.367 715.579 343.9L807.045 435.695Z" fill="#FF4C58"/>
        <path d="M928 416L1056.25 312.943L1056.25 519.057L928 416Z" fill="white"/>
    </g>
    <defs>
        <clipPath id="clip0">
            <rect width="718" height="334" fill="white" transform="translate(381 249)"/>
        </clipPath>
    </defs>
</svg>
