<svg width="1440" height="744" viewBox="0 0 1440 744" fill="none" xmlns="http://www.w3.org/2000/svg">
<g clip-path="url(#clip0)">
<path fill-rule="evenodd" clip-rule="evenodd" d="M235.69 301.448L921.534 301.427C928.875 301.427 935.138 306.752 936.303 313.977L966.76 502.887C968.224 511.969 961.203 520.208 951.991 520.208L266.34 520.229C258.998 520.229 252.746 514.914 251.571 507.679L220.921 318.78C219.446 309.698 226.468 301.448 235.69 301.448ZM988.018 743.599H663.504C656.152 743.599 649.889 738.263 648.735 731.016L618.492 542.043C617.038 532.961 624.059 524.743 633.261 524.743H957.55C964.892 524.743 971.154 530.069 972.319 537.305L1002.8 726.289C1004.26 735.371 997.23 743.599 988.018 743.599ZM257.108 542.064L287.383 731.027C288.548 738.274 294.81 743.61 302.152 743.61L628.761 743.599C637.962 743.599 644.983 735.381 643.53 726.299L613.34 537.337C612.185 530.09 605.923 524.754 598.56 524.754L271.877 524.765C262.675 524.765 255.654 532.982 257.108 542.064Z" fill="url(#paint0_linear)"/>
<path d="M252.245 351.095L248.537 328.107H256.691C258.315 328.107 259.694 328.385 260.837 328.929C261.981 329.473 262.889 330.221 263.552 331.138C264.214 332.067 264.642 333.081 264.823 334.212C264.984 335.204 264.941 336.016 264.684 336.656C264.439 337.296 264.054 337.809 263.541 338.182C263.028 338.556 262.451 338.833 261.81 339.014L261.842 339.239C262.558 339.281 263.317 339.527 264.107 339.975C264.898 340.423 265.603 341.064 266.234 341.907C266.854 342.75 267.26 343.774 267.463 344.98C267.645 346.133 267.548 347.168 267.164 348.086C266.779 349.004 266.063 349.74 265.005 350.274C263.947 350.807 262.494 351.085 260.666 351.085H252.245V351.095ZM252.993 338.203H258.23C259.074 338.203 259.822 338.043 260.452 337.712C261.083 337.382 261.564 336.923 261.863 336.325C262.173 335.727 262.259 335.023 262.13 334.212C261.97 333.198 261.468 332.344 260.645 331.64C259.822 330.936 258.625 330.583 257.086 330.583H251.753L252.993 338.203ZM254.671 348.619H260.271C262.12 348.619 263.37 348.267 264.033 347.563C264.695 346.859 264.952 345.994 264.781 344.991C264.652 344.212 264.342 343.497 263.829 342.835C263.317 342.173 262.665 341.64 261.852 341.245C261.04 340.839 260.132 340.647 259.117 340.647H253.378L254.671 348.619Z" fill="white"/>
<path d="M282.136 344.041L280.49 333.849H283.173L285.951 351.095H283.269L282.799 348.171H282.617C282.35 349.046 281.826 349.793 281.067 350.402C280.309 351.01 279.261 351.319 277.936 351.319C276.846 351.319 275.831 351.085 274.912 350.604C273.982 350.124 273.202 349.409 272.561 348.449C271.919 347.488 271.481 346.271 271.246 344.809L269.483 333.849H272.165L273.907 344.628C274.11 345.887 274.634 346.89 275.467 347.637C276.301 348.384 277.284 348.758 278.396 348.758C279.058 348.758 279.721 348.587 280.362 348.256C281.003 347.915 281.506 347.403 281.869 346.709C282.232 346.015 282.318 345.119 282.136 344.041Z" fill="white"/>
<path d="M300.635 337.712L298.327 338.385C298.113 337.99 297.824 337.606 297.472 337.221C297.119 336.837 296.67 336.528 296.136 336.282C295.591 336.037 294.939 335.909 294.148 335.909C293.079 335.909 292.224 336.154 291.594 336.635C290.963 337.115 290.707 337.734 290.824 338.47C290.931 339.132 291.263 339.644 291.808 340.028C292.353 340.412 293.165 340.733 294.233 340.978L296.927 341.608C298.551 341.981 299.812 342.547 300.699 343.315C301.586 344.084 302.131 345.066 302.323 346.272C302.484 347.264 302.334 348.139 301.896 348.918C301.447 349.697 300.752 350.306 299.801 350.754C298.85 351.202 297.696 351.426 296.339 351.426C294.554 351.426 293.015 351.042 291.722 350.284C290.429 349.527 289.51 348.406 288.965 346.944L291.412 346.314C291.808 347.243 292.374 347.936 293.133 348.406C293.892 348.876 294.811 349.1 295.911 349.1C297.162 349.1 298.113 348.833 298.775 348.31C299.427 347.776 299.694 347.147 299.577 346.41C299.481 345.813 299.192 345.311 298.701 344.895C298.209 344.489 297.504 344.18 296.595 343.977L293.571 343.305C291.904 342.931 290.643 342.355 289.766 341.565C288.89 340.775 288.356 339.783 288.163 338.598C288.003 337.627 288.142 336.763 288.58 336.016C289.018 335.268 289.681 334.681 290.589 334.255C291.487 333.828 292.556 333.614 293.785 333.614C295.516 333.614 296.937 333.988 298.049 334.735C299.16 335.482 300.015 336.485 300.635 337.712Z" fill="white"/>
<path d="M304.802 330.978C304.278 330.978 303.798 330.797 303.37 330.445C302.943 330.092 302.686 329.665 302.601 329.175C302.515 328.684 302.643 328.257 302.964 327.905C303.285 327.552 303.701 327.382 304.225 327.382C304.749 327.382 305.23 327.563 305.657 327.905C306.095 328.257 306.341 328.684 306.427 329.175C306.512 329.665 306.384 330.092 306.063 330.445C305.743 330.797 305.326 330.978 304.802 330.978ZM306.683 351.095L303.904 333.849H306.587L309.365 351.095H306.683Z" fill="white"/>
<path d="M314.816 340.722L316.494 351.095H313.811L311.033 333.849H313.629L314.068 336.549H314.292C314.559 335.674 315.072 334.97 315.82 334.436C316.568 333.902 317.605 333.635 318.919 333.635C320.106 333.635 321.174 333.87 322.147 334.351C323.109 334.831 323.921 335.546 324.562 336.506C325.214 337.467 325.652 338.683 325.887 340.146L327.65 351.106H324.968L323.226 340.327C323.002 338.972 322.478 337.915 321.645 337.157C320.811 336.4 319.764 336.015 318.524 336.015C317.669 336.015 316.932 336.197 316.323 336.57C315.713 336.944 315.265 337.478 314.997 338.171C314.709 338.865 314.655 339.719 314.816 340.722Z" fill="white"/>
<path d="M339.47 351.448C337.782 351.448 336.275 351.074 334.939 350.338C333.603 349.601 332.502 348.566 331.626 347.243C330.76 345.919 330.173 344.372 329.895 342.6C329.606 340.839 329.692 339.281 330.13 337.926C330.568 336.57 331.316 335.525 332.374 334.756C333.432 333.998 334.747 333.614 336.328 333.614C337.237 333.614 338.166 333.764 339.096 334.063C340.036 334.361 340.923 334.842 341.757 335.514C342.591 336.186 343.317 337.072 343.926 338.171C344.536 339.271 344.974 340.626 345.23 342.237L345.412 343.358H331.936L331.562 341.063H342.313C342.152 340.092 341.821 339.228 341.308 338.459C340.795 337.702 340.143 337.093 339.353 336.656C338.562 336.218 337.685 335.994 336.713 335.994C335.644 335.994 334.757 336.25 334.063 336.773C333.368 337.296 332.876 337.969 332.598 338.801C332.321 339.633 332.246 340.519 332.406 341.469L332.652 342.995C332.866 344.297 333.272 345.396 333.87 346.304C334.479 347.211 335.227 347.894 336.114 348.363C337.012 348.833 337.995 349.068 339.085 349.068C339.791 349.068 340.41 348.972 340.956 348.769C341.501 348.566 341.939 348.267 342.291 347.872C342.644 347.477 342.89 346.976 343.018 346.378L345.732 347.093C345.604 347.958 345.262 348.726 344.728 349.377C344.194 350.028 343.478 350.54 342.58 350.903C341.693 351.266 340.656 351.448 339.47 351.448Z" fill="white"/>
<path d="M360.502 337.712L358.194 338.385C357.98 337.99 357.692 337.606 357.339 337.221C356.986 336.848 356.537 336.528 356.003 336.282C355.458 336.037 354.806 335.909 354.015 335.909C352.947 335.909 352.092 336.154 351.461 336.635C350.831 337.115 350.574 337.734 350.692 338.47C350.799 339.132 351.13 339.644 351.675 340.028C352.22 340.412 353.032 340.733 354.101 340.978L356.794 341.608C358.418 341.981 359.679 342.547 360.566 343.315C361.453 344.084 361.998 345.066 362.191 346.272C362.351 347.264 362.201 348.139 361.763 348.918C361.314 349.697 360.62 350.306 359.669 350.754C358.717 351.202 357.563 351.426 356.206 351.426C354.421 351.426 352.883 351.042 351.589 350.284C350.296 349.527 349.377 348.406 348.832 346.944L351.279 346.314C351.675 347.243 352.241 347.936 353 348.406C353.759 348.876 354.678 349.1 355.779 349.1C357.029 349.1 357.98 348.833 358.643 348.31C359.295 347.776 359.562 347.147 359.444 346.41C359.348 345.813 359.049 345.311 358.568 344.895C358.076 344.489 357.371 344.18 356.463 343.977L353.438 343.305C351.782 342.931 350.51 342.355 349.634 341.565C348.757 340.775 348.223 339.783 348.031 338.598C347.87 337.627 348.009 336.763 348.447 336.016C348.886 335.268 349.548 334.681 350.457 334.255C351.354 333.828 352.423 333.614 353.652 333.614C355.383 333.614 356.805 333.988 357.916 334.735C359.027 335.503 359.893 336.485 360.502 337.712Z" fill="white"/>
<path d="M376.778 337.712L374.469 338.385C374.256 337.99 373.967 337.606 373.614 337.221C373.262 336.837 372.813 336.528 372.279 336.282C371.734 336.037 371.082 335.909 370.291 335.909C369.222 335.909 368.367 336.154 367.737 336.635C367.106 337.115 366.85 337.734 366.967 338.47C367.074 339.132 367.405 339.644 367.95 340.028C368.495 340.412 369.308 340.733 370.376 340.978L373.069 341.608C374.694 341.981 375.955 342.547 376.842 343.315C377.729 344.084 378.274 345.066 378.466 346.272C378.626 347.264 378.477 348.139 378.039 348.918C377.59 349.697 376.895 350.306 375.944 350.754C374.993 351.202 373.839 351.426 372.482 351.426C370.697 351.426 369.158 351.042 367.865 350.284C366.572 349.527 365.653 348.406 365.108 346.944L367.555 346.314C367.95 347.243 368.517 347.936 369.276 348.406C370.034 348.876 370.953 349.1 372.054 349.1C373.304 349.1 374.256 348.833 374.918 348.31C375.57 347.776 375.837 347.147 375.72 346.41C375.624 345.813 375.335 345.311 374.843 344.895C374.352 344.489 373.646 344.18 372.738 343.977L369.714 343.305C368.047 342.931 366.786 342.355 365.909 341.565C365.033 340.775 364.499 339.783 364.306 338.598C364.146 337.627 364.285 336.763 364.723 336.016C365.161 335.268 365.824 334.681 366.732 334.255C367.63 333.828 368.698 333.614 369.927 333.614C371.659 333.614 373.08 333.988 374.191 334.735C375.303 335.482 376.169 336.485 376.778 337.712Z" fill="white"/>
<path d="M390.35 328.107L394.059 351.095H391.376L387.668 328.107H390.35Z" fill="white"/>
<path d="M405.653 351.447C404.072 351.447 402.629 351.074 401.325 350.338C400.021 349.601 398.921 348.555 398.044 347.232C397.168 345.898 396.58 344.34 396.292 342.557C396.003 340.764 396.078 339.196 396.527 337.851C396.976 336.506 397.735 335.471 398.803 334.735C399.872 333.988 401.197 333.625 402.779 333.625C404.36 333.625 405.803 333.998 407.107 334.735C408.411 335.471 409.511 336.517 410.388 337.851C411.264 339.185 411.852 340.754 412.14 342.557C412.429 344.34 412.343 345.898 411.894 347.232C411.446 348.566 410.687 349.601 409.618 350.338C408.56 351.085 407.235 351.447 405.653 351.447ZM405.269 349.068C406.466 349.068 407.406 348.769 408.079 348.16C408.753 347.552 409.201 346.762 409.415 345.77C409.629 344.777 409.64 343.71 409.458 342.557C409.276 341.405 408.913 340.327 408.379 339.334C407.844 338.342 407.139 337.531 406.273 336.922C405.397 336.303 404.36 336.005 403.163 336.005C401.966 336.005 401.026 336.314 400.353 336.922C399.679 337.531 399.231 338.342 399.017 339.334C398.803 340.327 398.792 341.405 398.974 342.557C399.156 343.71 399.519 344.777 400.054 345.77C400.588 346.762 401.283 347.552 402.159 348.16C403.035 348.769 404.072 349.068 405.269 349.068Z" fill="white"/>
<path d="M425.296 357.915C424.003 357.915 422.859 357.755 421.865 357.424C420.882 357.104 420.038 356.677 419.333 356.143C418.627 355.62 418.05 355.055 417.591 354.457L419.493 352.974C419.782 353.283 420.156 353.646 420.594 354.051C421.032 354.457 421.598 354.82 422.293 355.119C422.988 355.417 423.864 355.578 424.922 355.578C426.333 355.578 427.444 355.236 428.256 354.564C429.068 353.891 429.357 352.835 429.122 351.394L428.555 347.894H428.331C428.181 348.203 427.968 348.598 427.679 349.057C427.39 349.516 426.942 349.921 426.333 350.284C425.723 350.636 424.847 350.818 423.704 350.818C422.293 350.818 420.968 350.487 419.749 349.825C418.521 349.164 417.484 348.214 416.629 346.954C415.774 345.695 415.208 344.169 414.919 342.376C414.631 340.604 414.705 339.068 415.122 337.755C415.539 336.442 416.255 335.428 417.259 334.703C418.264 333.977 419.504 333.625 420.978 333.625C422.111 333.625 423.052 333.806 423.778 334.18C424.505 334.553 425.093 334.969 425.531 335.439C425.969 335.909 426.311 336.293 426.557 336.592H426.835L426.397 333.849H428.994L431.858 351.586C432.093 353.07 431.954 354.276 431.419 355.204C430.885 356.133 430.094 356.826 429.015 357.264C427.936 357.701 426.696 357.915 425.296 357.915ZM423.672 348.449C424.751 348.449 425.616 348.203 426.29 347.723C426.952 347.232 427.412 346.538 427.647 345.62C427.882 344.703 427.903 343.614 427.7 342.344C427.497 341.106 427.134 340.007 426.6 339.057C426.065 338.107 425.381 337.36 424.548 336.826C423.714 336.293 422.752 336.015 421.662 336.015C420.53 336.015 419.621 336.303 418.959 336.869C418.296 337.435 417.847 338.203 417.634 339.164C417.409 340.124 417.398 341.181 417.58 342.355C417.772 343.55 418.136 344.606 418.67 345.524C419.204 346.442 419.888 347.157 420.722 347.68C421.577 348.182 422.549 348.449 423.672 348.449Z" fill="white"/>
<path d="M434.315 330.978C433.791 330.978 433.311 330.797 432.883 330.445C432.456 330.092 432.199 329.665 432.114 329.175C432.028 328.684 432.156 328.257 432.477 327.905C432.798 327.552 433.214 327.382 433.738 327.382C434.262 327.382 434.743 327.563 435.17 327.905C435.608 328.257 435.854 328.684 435.939 329.175C436.025 329.665 435.897 330.092 435.576 330.445C435.255 330.797 434.839 330.978 434.315 330.978ZM436.196 351.095L433.417 333.849H436.1L438.878 351.095H436.196Z" fill="white"/>
<path d="M450.474 351.448C448.839 351.448 447.364 351.063 446.049 350.306C444.746 349.548 443.666 348.491 442.811 347.147C441.956 345.802 441.39 344.276 441.112 342.558C440.834 340.807 440.909 339.26 441.347 337.915C441.785 336.57 442.533 335.525 443.591 334.756C444.649 333.998 445.964 333.614 447.545 333.614C448.774 333.614 449.918 333.838 450.976 334.287C452.034 334.735 452.942 335.365 453.701 336.176C454.46 336.987 455.005 337.926 455.325 339.004H452.643C452.312 338.214 451.745 337.52 450.944 336.912C450.142 336.304 449.148 335.994 447.962 335.994C446.915 335.994 446.039 336.261 445.344 336.795C444.649 337.328 444.158 338.086 443.88 339.057C443.602 340.028 443.57 341.16 443.773 342.462C443.987 343.796 444.393 344.948 444.981 345.941C445.568 346.933 446.295 347.691 447.171 348.246C448.048 348.79 449.01 349.068 450.078 349.068C450.773 349.068 451.393 348.95 451.927 348.705C452.461 348.47 452.889 348.118 453.209 347.67C453.53 347.221 453.722 346.677 453.787 346.047H456.469C456.48 347.072 456.255 347.979 455.796 348.79C455.336 349.601 454.652 350.242 453.754 350.722C452.857 351.202 451.767 351.448 450.474 351.448Z" fill="white"/>
<path d="M261.714 380.145C260.603 380.145 259.566 379.942 258.594 379.526C257.621 379.11 256.809 378.512 256.146 377.722C255.484 376.933 255.067 375.972 254.885 374.852C254.725 373.859 254.789 373.059 255.088 372.44C255.387 371.821 255.836 371.34 256.435 370.988C257.033 370.636 257.728 370.369 258.497 370.199C259.267 370.017 260.058 369.878 260.848 369.772C261.885 369.633 262.74 369.537 263.392 369.462C264.044 369.387 264.514 369.27 264.792 369.099C265.07 368.929 265.177 368.63 265.102 368.203L265.091 368.117C264.909 367.008 264.471 366.154 263.755 365.535C263.05 364.926 262.067 364.617 260.838 364.617C259.555 364.617 258.594 364.894 257.952 365.449C257.311 366.004 256.894 366.591 256.702 367.221L254.009 366.325C254.297 365.279 254.768 364.457 255.441 363.87C256.104 363.283 256.873 362.867 257.749 362.632C258.626 362.397 259.491 362.28 260.378 362.28C260.945 362.28 261.596 362.344 262.355 362.472C263.114 362.6 263.862 362.867 264.61 363.272C265.358 363.678 266.031 364.286 266.619 365.097C267.207 365.908 267.613 367.008 267.827 368.374L269.654 379.729H266.972L266.598 377.392H266.459C266.341 377.765 266.096 378.171 265.743 378.587C265.39 379.014 264.877 379.377 264.225 379.675C263.574 379.974 262.729 380.145 261.714 380.145ZM261.735 377.765C262.793 377.765 263.659 377.562 264.332 377.146C264.995 376.73 265.465 376.207 265.732 375.556C265.999 374.905 266.085 374.222 265.967 373.507L265.572 371.084C265.476 371.223 265.251 371.34 264.888 371.447C264.525 371.554 264.097 371.65 263.616 371.725C263.135 371.799 262.665 371.874 262.206 371.927C261.746 371.981 261.372 372.034 261.094 372.066C260.41 372.152 259.78 372.301 259.213 372.504C258.636 372.707 258.198 372.995 257.899 373.39C257.589 373.784 257.493 374.318 257.6 374.99C257.749 375.908 258.209 376.602 258.978 377.071C259.748 377.53 260.667 377.765 261.735 377.765Z" fill="white"/>
<path d="M275.115 369.366L276.792 379.74H274.11L271.332 362.493H273.928L274.367 365.183H274.591C274.858 364.308 275.371 363.603 276.119 363.07C276.867 362.536 277.904 362.269 279.218 362.269C280.405 362.269 281.473 362.504 282.446 362.984C283.408 363.465 284.22 364.18 284.861 365.14C285.513 366.101 285.951 367.317 286.186 368.779L287.949 379.74H285.267L283.525 368.961C283.311 367.605 282.777 366.549 281.943 365.791C281.11 365.033 280.063 364.649 278.823 364.649C277.968 364.649 277.231 364.831 276.621 365.204C276.012 365.578 275.563 366.101 275.296 366.805C275.029 367.509 274.954 368.363 275.115 369.366Z" fill="white"/>
<path d="M299.042 380.102C297.589 380.102 296.242 379.74 295.002 379.003C293.773 378.277 292.726 377.242 291.882 375.908C291.038 374.574 290.471 372.995 290.172 371.17C289.883 369.355 289.937 367.787 290.354 366.453C290.77 365.119 291.476 364.094 292.491 363.368C293.496 362.643 294.735 362.28 296.21 362.28C297.353 362.28 298.283 362.461 298.999 362.835C299.726 363.208 300.303 363.624 300.731 364.094C301.158 364.564 301.5 364.948 301.746 365.247H301.97L300.602 356.762H303.285L306.993 379.75H304.396L303.969 377.103H303.648C303.498 377.413 303.285 377.808 302.996 378.288C302.708 378.768 302.259 379.185 301.639 379.558C301.03 379.91 300.164 380.102 299.042 380.102ZM299.021 377.722C300.1 377.722 300.966 377.445 301.617 376.89C302.269 376.335 302.708 375.556 302.943 374.564C303.178 373.571 303.178 372.429 302.964 371.127C302.761 369.836 302.387 368.715 301.853 367.744C301.318 366.773 300.634 366.015 299.801 365.481C298.967 364.948 298.005 364.67 296.915 364.67C295.772 364.67 294.874 364.959 294.212 365.524C293.549 366.09 293.111 366.869 292.886 367.851C292.673 368.822 292.662 369.921 292.854 371.138C293.047 372.365 293.421 373.475 293.966 374.478C294.511 375.481 295.205 376.271 296.06 376.858C296.915 377.424 297.899 377.722 299.021 377.722Z" fill="white"/>
<path d="M327.501 380.103C325.866 380.103 324.392 379.718 323.088 378.961C321.784 378.192 320.705 377.146 319.85 375.802C318.995 374.457 318.428 372.931 318.15 371.213C317.873 369.462 317.947 367.915 318.386 366.57C318.824 365.225 319.572 364.18 320.63 363.411C321.688 362.653 323.002 362.269 324.584 362.269C325.813 362.269 326.956 362.493 328.014 362.942C329.072 363.39 329.981 364.02 330.739 364.831C331.498 365.642 332.043 366.581 332.364 367.659H329.681C329.35 366.869 328.784 366.175 327.982 365.567C327.181 364.959 326.187 364.649 325.001 364.649C323.953 364.649 323.077 364.916 322.382 365.45C321.688 365.983 321.196 366.741 320.908 367.701C320.63 368.673 320.598 369.804 320.801 371.106C321.015 372.44 321.421 373.593 322.008 374.585C322.596 375.578 323.323 376.335 324.199 376.89C325.075 377.445 326.037 377.712 327.106 377.712C327.801 377.712 328.42 377.595 328.944 377.349C329.478 377.114 329.906 376.762 330.227 376.314C330.547 375.866 330.739 375.321 330.804 374.702H333.486C333.497 375.716 333.272 376.634 332.802 377.445C332.342 378.256 331.659 378.897 330.761 379.377C329.863 379.857 328.784 380.103 327.501 380.103Z" fill="white"/>
<path d="M344.91 380.102C343.328 380.102 341.886 379.729 340.582 378.992C339.278 378.245 338.177 377.21 337.301 375.887C336.425 374.553 335.837 372.995 335.548 371.212C335.26 369.42 335.335 367.851 335.783 366.506C336.232 365.172 336.991 364.126 338.06 363.39C339.128 362.653 340.454 362.28 342.025 362.28C343.606 362.28 345.049 362.653 346.353 363.39C347.656 364.126 348.757 365.172 349.634 366.506C350.51 367.84 351.098 369.409 351.386 371.212C351.675 372.995 351.589 374.553 351.14 375.887C350.692 377.221 349.933 378.256 348.864 378.992C347.817 379.729 346.492 380.102 344.91 380.102ZM344.525 377.723C345.722 377.723 346.663 377.424 347.336 376.815C348.009 376.207 348.458 375.417 348.672 374.425C348.885 373.432 348.896 372.365 348.714 371.212C348.533 370.06 348.169 368.982 347.635 367.989C347.101 366.997 346.395 366.186 345.53 365.577C344.664 364.969 343.617 364.66 342.42 364.66C341.223 364.66 340.283 364.969 339.609 365.577C338.936 366.186 338.487 366.997 338.284 367.989C338.07 368.982 338.06 370.06 338.241 371.212C338.423 372.365 338.786 373.432 339.321 374.425C339.855 375.417 340.55 376.207 341.426 376.815C342.292 377.413 343.328 377.723 344.525 377.723Z" fill="white"/>
<path d="M356.398 379.74L353.619 362.493H356.216L356.633 365.097H356.815C356.996 364.244 357.456 363.55 358.215 363.016C358.973 362.483 359.86 362.216 360.908 362.216C361.1 362.216 361.357 362.216 361.645 362.226C361.944 362.237 362.169 362.248 362.318 362.258L362.757 364.948C362.66 364.927 362.447 364.895 362.115 364.841C361.784 364.788 361.442 364.766 361.089 364.766C360.234 364.766 359.508 364.937 358.899 365.289C358.289 365.642 357.841 366.122 357.563 366.73C357.274 367.338 357.199 368.032 357.328 368.811L359.091 379.718H356.398V379.74Z" fill="white"/>
<path d="M375.238 380.103C373.55 380.103 372.043 379.729 370.707 378.993C369.371 378.256 368.271 377.221 367.394 375.898C366.529 374.574 365.941 373.027 365.663 371.255C365.374 369.494 365.46 367.936 365.898 366.581C366.336 365.225 367.084 364.18 368.142 363.411C369.2 362.653 370.515 362.269 372.096 362.269C373.005 362.269 373.934 362.419 374.864 362.718C375.805 363.016 376.692 363.497 377.525 364.169C378.359 364.841 379.085 365.727 379.695 366.826C380.304 367.926 380.742 369.281 380.998 370.892L381.18 372.013H367.704L367.33 369.719H378.081C377.921 368.747 377.589 367.883 377.076 367.114C376.563 366.346 375.912 365.748 375.121 365.311C374.33 364.873 373.454 364.649 372.481 364.649C371.412 364.649 370.525 364.905 369.831 365.428C369.136 365.951 368.645 366.624 368.367 367.456C368.078 368.288 368.014 369.174 368.174 370.124L368.42 371.65C368.634 372.952 369.04 374.051 369.638 374.959C370.248 375.866 370.996 376.549 371.883 377.018C372.78 377.488 373.763 377.723 374.854 377.723C375.559 377.723 376.179 377.627 376.724 377.424C377.269 377.221 377.707 376.922 378.06 376.527C378.412 376.133 378.658 375.631 378.786 375.033L381.501 375.748C381.372 376.613 381.03 377.381 380.496 378.032C379.962 378.683 379.246 379.195 378.348 379.558C377.45 379.921 376.424 380.103 375.238 380.103Z" fill="white"/>
<path d="M230.754 257.285C230.615 256.133 230.059 255.236 229.087 254.607C228.114 253.977 226.928 253.657 225.507 253.657C224.47 253.657 223.572 253.828 222.803 254.159C222.033 254.489 221.435 254.948 221.008 255.535C220.58 256.122 220.366 256.784 220.366 257.52C220.366 258.139 220.516 258.673 220.815 259.121C221.114 259.569 221.499 259.932 221.969 260.22C222.44 260.508 222.931 260.754 223.444 260.935C223.957 261.117 224.438 261.266 224.865 261.384L227.238 262.024C227.847 262.184 228.52 262.408 229.268 262.686C230.016 262.963 230.732 263.347 231.416 263.828C232.1 264.308 232.667 264.927 233.116 265.674C233.564 266.421 233.789 267.349 233.789 268.438C233.789 269.697 233.458 270.829 232.806 271.853C232.143 272.867 231.192 273.678 229.942 274.276C228.681 274.873 227.163 275.172 225.368 275.172C223.701 275.172 222.258 274.905 221.04 274.361C219.821 273.827 218.859 273.07 218.176 272.109C217.481 271.149 217.085 270.028 217 268.758H219.917C219.992 269.633 220.292 270.359 220.815 270.935C221.339 271.512 221.991 271.928 222.792 272.205C223.594 272.483 224.459 272.621 225.378 272.621C226.458 272.621 227.42 272.44 228.285 272.088C229.151 271.736 229.824 271.245 230.326 270.615C230.829 269.985 231.074 269.238 231.074 268.395C231.074 267.627 230.861 266.997 230.423 266.506C229.995 266.026 229.418 265.631 228.713 265.322C228.007 265.023 227.249 264.756 226.426 264.521L223.562 263.699C221.745 263.177 220.302 262.429 219.234 261.458C218.165 260.487 217.641 259.217 217.641 257.648C217.641 256.346 217.994 255.204 218.71 254.233C219.415 253.262 220.377 252.504 221.574 251.96C222.782 251.416 224.117 251.149 225.614 251.149C227.12 251.149 228.456 251.416 229.621 251.949C230.786 252.483 231.716 253.209 232.4 254.137C233.084 255.066 233.447 256.112 233.49 257.285H230.754V257.285Z" fill="#777A80"/>
<path d="M240.298 264.245V274.746H237.615V251.459H240.298V260.008H240.522C240.928 259.101 241.548 258.386 242.371 257.852C243.194 257.318 244.295 257.051 245.662 257.051C246.859 257.051 247.896 257.286 248.794 257.767C249.691 258.236 250.386 258.962 250.888 259.944C251.38 260.915 251.636 262.153 251.636 263.658V274.757H248.954V263.839C248.954 262.452 248.591 261.374 247.875 260.616C247.159 259.858 246.165 259.474 244.893 259.474C244.017 259.474 243.226 259.656 242.531 260.029C241.837 260.403 241.292 260.947 240.896 261.651C240.49 262.366 240.298 263.231 240.298 264.245Z" fill="#777A80"/>
<path d="M261.221 275.162C260.11 275.162 259.105 274.949 258.208 274.533C257.31 274.117 256.583 273.498 256.06 272.708C255.525 271.907 255.258 270.936 255.258 269.805C255.258 268.802 255.45 267.991 255.846 267.361C256.241 266.731 256.765 266.24 257.427 265.888C258.09 265.536 258.817 265.269 259.618 265.088C260.42 264.906 261.221 264.768 262.033 264.661C263.091 264.522 263.957 264.416 264.62 264.351C265.282 264.277 265.774 264.159 266.073 263.978C266.383 263.807 266.533 263.498 266.533 263.071V262.985C266.533 261.865 266.223 260.99 265.614 260.371C265.004 259.752 264.075 259.442 262.846 259.442C261.563 259.442 260.559 259.72 259.832 260.285C259.105 260.851 258.592 261.449 258.293 262.078L255.739 261.171C256.198 260.115 256.808 259.282 257.566 258.685C258.325 258.087 259.169 257.671 260.067 257.436C260.965 257.201 261.862 257.073 262.749 257.073C263.316 257.073 263.957 257.137 264.694 257.276C265.432 257.404 266.137 257.681 266.821 258.087C267.505 258.492 268.082 259.111 268.531 259.944C268.991 260.766 269.215 261.876 269.215 263.263V274.768H266.533V272.398H266.394C266.212 272.783 265.902 273.188 265.485 273.615C265.058 274.053 264.491 274.415 263.786 274.714C263.091 275.013 262.237 275.162 261.221 275.162ZM261.627 272.751C262.685 272.751 263.583 272.537 264.32 272.121C265.058 271.705 265.603 271.171 265.988 270.509C266.372 269.848 266.554 269.154 266.554 268.428V265.974C266.436 266.112 266.191 266.23 265.806 266.347C265.421 266.454 264.983 266.55 264.481 266.635C263.978 266.721 263.498 266.785 263.038 266.838C262.568 266.891 262.194 266.945 261.905 266.977C261.211 267.062 260.559 267.212 259.95 267.414C259.351 267.617 258.859 267.916 258.496 268.311C258.133 268.706 257.94 269.25 257.94 269.933C257.94 270.862 258.293 271.566 258.988 272.046C259.672 272.516 260.559 272.751 261.627 272.751Z" fill="#777A80"/>
<path d="M273.672 274.757V257.286H276.269V259.922H276.451C276.771 259.058 277.348 258.353 278.182 257.82C279.016 257.286 279.956 257.009 281.003 257.009C281.196 257.009 281.452 257.009 281.741 257.019C282.029 257.03 282.264 257.041 282.414 257.051V259.784C282.318 259.762 282.115 259.72 281.794 259.677C281.474 259.634 281.132 259.602 280.779 259.602C279.924 259.602 279.176 259.784 278.503 260.136C277.84 260.488 277.316 260.979 276.932 261.587C276.547 262.206 276.355 262.911 276.355 263.7V274.757H273.672Z" fill="#777A80"/>
<path d="M292.448 275.12C290.759 275.12 289.306 274.746 288.088 273.999C286.869 273.252 285.929 272.206 285.277 270.861C284.615 269.517 284.294 267.948 284.294 266.155C284.294 264.362 284.625 262.783 285.277 261.417C285.929 260.05 286.848 258.983 288.034 258.215C289.21 257.446 290.588 257.062 292.17 257.062C293.078 257.062 293.976 257.212 294.863 257.521C295.75 257.82 296.562 258.311 297.289 258.994C298.016 259.677 298.603 260.563 299.031 261.683C299.469 262.793 299.683 264.17 299.683 265.803V266.945H286.218V264.629H296.968C296.968 263.647 296.776 262.761 296.381 261.993C295.985 261.224 295.44 260.605 294.714 260.168C293.998 259.72 293.153 259.496 292.181 259.496C291.112 259.496 290.182 259.762 289.413 260.285C288.633 260.808 288.034 261.491 287.618 262.334C287.201 263.177 286.987 264.074 286.987 265.045V266.593C286.987 267.916 287.211 269.026 287.671 269.944C288.13 270.861 288.772 271.555 289.595 272.025C290.417 272.494 291.369 272.74 292.448 272.74C293.153 272.74 293.794 272.644 294.361 272.441C294.938 272.238 295.43 271.939 295.846 271.534C296.263 271.128 296.584 270.627 296.819 270.018L299.416 270.744C299.138 271.619 298.678 272.398 298.037 273.06C297.396 273.722 296.594 274.234 295.643 274.607C294.692 274.981 293.634 275.12 292.448 275.12Z" fill="#777A80"/>
<path d="M309.911 275.12C308.457 275.12 307.164 274.746 306.053 274.01C304.941 273.273 304.065 272.228 303.434 270.872C302.804 269.517 302.494 267.916 302.494 266.07C302.494 264.234 302.804 262.644 303.434 261.299C304.065 259.954 304.941 258.909 306.063 258.172C307.186 257.436 308.489 257.073 309.953 257.073C311.097 257.073 311.995 257.265 312.657 257.639C313.32 258.012 313.833 258.439 314.185 258.909C314.538 259.378 314.816 259.773 315.008 260.072H315.233V251.481H317.915V274.768H315.318V272.089H314.998C314.805 272.409 314.517 272.804 314.153 273.284C313.79 273.764 313.266 274.191 312.593 274.565C311.92 274.938 311.033 275.12 309.911 275.12ZM310.274 272.708C311.353 272.708 312.262 272.43 313.01 271.865C313.758 271.299 314.314 270.52 314.709 269.506C315.094 268.503 315.286 267.34 315.286 266.027C315.286 264.725 315.094 263.583 314.72 262.601C314.346 261.619 313.779 260.851 313.031 260.307C312.283 259.762 311.364 259.485 310.274 259.485C309.131 259.485 308.19 259.773 307.431 260.36C306.673 260.936 306.106 261.726 305.732 262.719C305.358 263.711 305.166 264.821 305.166 266.048C305.166 267.297 305.358 268.418 305.743 269.431C306.128 270.445 306.694 271.246 307.453 271.843C308.211 272.409 309.152 272.708 310.274 272.708Z" fill="#777A80"/>
<path d="M350.392 258.748H347.57C347.399 257.937 347.111 257.222 346.705 256.614C346.288 255.995 345.786 255.483 345.198 255.066C344.61 254.65 343.958 254.33 343.242 254.117C342.526 253.903 341.789 253.796 341.009 253.796C339.598 253.796 338.316 254.149 337.183 254.864C336.039 255.579 335.131 256.625 334.458 258.012C333.784 259.399 333.453 261.096 333.453 263.113C333.453 265.13 333.784 266.827 334.458 268.215C335.131 269.602 336.039 270.648 337.183 271.363C338.326 272.078 339.598 272.43 341.009 272.43C341.778 272.43 342.526 272.323 343.242 272.11C343.958 271.897 344.61 271.576 345.198 271.16C345.786 270.744 346.288 270.221 346.705 269.602C347.122 268.983 347.41 268.268 347.57 267.468H350.392C350.178 268.663 349.793 269.719 349.227 270.659C348.66 271.598 347.966 272.398 347.132 273.049C346.299 273.7 345.358 274.202 344.322 274.543C343.285 274.885 342.184 275.056 340.998 275.056C339.01 275.056 337.236 274.575 335.697 273.604C334.158 272.633 332.93 271.256 332.043 269.463C331.156 267.67 330.707 265.547 330.707 263.092C330.707 260.637 331.156 258.514 332.043 256.721C332.93 254.928 334.148 253.551 335.697 252.58C337.247 251.609 339.01 251.128 340.998 251.128C342.174 251.128 343.285 251.299 344.322 251.641C345.358 251.982 346.288 252.484 347.132 253.135C347.976 253.786 348.66 254.586 349.227 255.525C349.793 256.465 350.178 257.542 350.392 258.748Z" fill="#777A80"/>
<path d="M361.207 275.12C359.626 275.12 358.247 274.746 357.061 273.999C355.875 273.252 354.945 272.195 354.282 270.851C353.62 269.506 353.288 267.927 353.288 266.123C353.288 264.309 353.62 262.718 354.282 261.363C354.945 260.008 355.875 258.951 357.061 258.204C358.247 257.457 359.636 257.083 361.207 257.083C362.789 257.083 364.168 257.457 365.354 258.204C366.54 258.951 367.47 260.008 368.132 261.363C368.795 262.718 369.126 264.309 369.126 266.123C369.126 267.927 368.795 269.506 368.132 270.851C367.47 272.195 366.54 273.252 365.354 273.999C364.168 274.746 362.789 275.12 361.207 275.12ZM361.207 272.708C362.404 272.708 363.387 272.398 364.168 271.79C364.948 271.182 365.514 270.37 365.888 269.367C366.262 268.364 366.444 267.286 366.444 266.112C366.444 264.938 366.262 263.86 365.888 262.847C365.514 261.843 364.948 261.022 364.168 260.403C363.398 259.784 362.404 259.474 361.207 259.474C360.01 259.474 359.017 259.784 358.247 260.403C357.478 261.022 356.901 261.843 356.527 262.847C356.152 263.86 355.971 264.938 355.971 266.112C355.971 267.286 356.152 268.364 356.527 269.367C356.901 270.37 357.467 271.171 358.247 271.79C359.027 272.409 360.01 272.708 361.207 272.708Z" fill="#777A80"/>
<path d="M379.353 275.12C377.899 275.12 376.606 274.746 375.495 274.01C374.384 273.273 373.507 272.228 372.877 270.872C372.246 269.517 371.936 267.916 371.936 266.07C371.936 264.234 372.246 262.644 372.877 261.299C373.507 259.954 374.384 258.909 375.506 258.172C376.628 257.436 377.932 257.073 379.396 257.073C380.539 257.073 381.437 257.265 382.099 257.639C382.762 258.012 383.275 258.439 383.628 258.909C383.98 259.378 384.258 259.773 384.45 260.072H384.675V251.481H387.357V274.768H384.76V272.089H384.44C384.247 272.409 383.959 272.804 383.596 273.284C383.232 273.764 382.709 274.191 382.035 274.565C381.362 274.938 380.475 275.12 379.353 275.12ZM379.716 272.708C380.796 272.708 381.704 272.43 382.452 271.865C383.2 271.299 383.756 270.52 384.151 269.506C384.536 268.503 384.728 267.34 384.728 266.027C384.728 264.725 384.536 263.583 384.162 262.601C383.788 261.619 383.221 260.851 382.473 260.307C381.725 259.762 380.806 259.485 379.716 259.485C378.573 259.485 377.632 259.773 376.874 260.36C376.115 260.936 375.548 261.726 375.174 262.719C374.8 263.711 374.608 264.821 374.608 266.048C374.608 267.297 374.8 268.418 375.185 269.431C375.57 270.445 376.136 271.246 376.895 271.843C377.654 272.409 378.594 272.708 379.716 272.708Z" fill="#777A80"/>
<path d="M399.497 275.12C397.809 275.12 396.355 274.746 395.137 273.999C393.919 273.252 392.978 272.206 392.326 270.861C391.664 269.517 391.343 267.948 391.343 266.155C391.343 264.362 391.675 262.783 392.326 261.417C392.978 260.05 393.897 258.983 395.084 258.215C396.259 257.446 397.638 257.062 399.219 257.062C400.128 257.062 401.025 257.212 401.912 257.521C402.799 257.82 403.612 258.311 404.338 258.994C405.065 259.677 405.653 260.563 406.08 261.683C406.518 262.793 406.732 264.17 406.732 265.803V266.945H393.256V264.629H404.007C404.007 263.647 403.815 262.761 403.419 261.993C403.024 261.224 402.479 260.605 401.752 260.168C401.036 259.72 400.192 259.496 399.219 259.496C398.151 259.496 397.221 259.762 396.452 260.285C395.671 260.808 395.073 261.491 394.656 262.334C394.239 263.177 394.026 264.074 394.026 265.045V266.593C394.026 267.916 394.25 269.026 394.71 269.944C395.169 270.861 395.81 271.555 396.633 272.025C397.456 272.494 398.407 272.74 399.487 272.74C400.192 272.74 400.833 272.644 401.4 272.441C401.977 272.238 402.468 271.939 402.885 271.534C403.302 271.128 403.622 270.627 403.857 270.018L406.454 270.744C406.176 271.619 405.717 272.398 405.076 273.06C404.435 273.722 403.633 274.234 402.682 274.607C401.731 274.981 400.683 275.12 399.497 275.12Z" fill="#777A80"/>
<path d="M453.914 0.715088V24.0019H451.178L438.472 5.72037H438.247V24.0019H435.426V0.715088H438.162L450.911 19.0393H451.136V0.715088H453.914Z" fill="#777A80"/>
<path d="M463.864 24.4074C462.752 24.4074 461.748 24.1939 460.85 23.7777C459.952 23.3615 459.226 22.7425 458.702 21.9528C458.168 21.1523 457.901 20.1812 457.901 19.0499C457.901 18.0467 458.093 17.2356 458.488 16.606C458.884 15.9763 459.407 15.4961 460.07 15.1332C460.733 14.781 461.459 14.5142 462.261 14.3328C463.062 14.1513 463.864 14.0126 464.676 13.9059C465.734 13.7671 466.6 13.6604 467.262 13.5964C467.925 13.5217 468.416 13.4043 468.716 13.2229C469.026 13.0521 469.175 12.7426 469.175 12.3157V12.2197C469.175 11.0991 468.865 10.224 468.256 9.60497C467.647 8.98598 466.717 8.67649 465.488 8.67649C464.206 8.67649 463.201 8.95397 462.475 9.5196C461.748 10.0852 461.235 10.6829 460.936 11.3125L458.382 10.4054C458.841 9.34884 459.45 8.51641 460.209 7.91876C460.968 7.32111 461.812 6.9049 462.71 6.67011C463.618 6.43532 464.505 6.30725 465.392 6.30725C465.958 6.30725 466.6 6.37129 467.337 6.51002C468.074 6.63809 468.78 6.91557 469.464 7.32111C470.148 7.72666 470.725 8.34565 471.174 9.17808C471.633 9.99985 471.857 11.1098 471.857 12.4972V24.0018H469.175V21.6433H469.036C468.855 22.0275 468.545 22.4223 468.128 22.8599C467.7 23.2975 467.134 23.6603 466.429 23.9591C465.734 24.258 464.879 24.4074 463.864 24.4074ZM464.27 21.9954C465.328 21.9954 466.226 21.782 466.963 21.3658C467.7 20.9496 468.245 20.416 468.63 19.7543C469.004 19.0926 469.197 18.3989 469.197 17.6732V15.2186C469.079 15.3573 468.833 15.4747 468.448 15.5921C468.064 15.6988 467.626 15.7949 467.123 15.8803C466.621 15.955 466.14 16.0297 465.681 16.083C465.21 16.1364 464.836 16.1897 464.548 16.2218C463.853 16.3178 463.201 16.4566 462.592 16.6593C461.994 16.8621 461.502 17.1609 461.139 17.5558C460.775 17.9507 460.583 18.495 460.583 19.178C460.583 20.1065 460.936 20.8108 461.63 21.2804C462.314 21.7607 463.201 21.9954 464.27 21.9954Z" fill="#777A80"/>
<path d="M483.922 6.53142V8.80461H474.86V6.53142H483.922ZM477.499 2.3479H480.182V18.9966C480.182 19.7543 480.299 20.32 480.513 20.6935C480.738 21.067 481.026 21.3231 481.379 21.4405C481.731 21.5686 482.105 21.6326 482.501 21.6326C482.8 21.6326 483.035 21.6113 483.228 21.5793C483.42 21.5473 483.57 21.5152 483.687 21.4939L484.232 23.9058C484.05 23.9699 483.794 24.0446 483.473 24.1193C483.142 24.194 482.736 24.226 482.234 24.226C481.475 24.226 480.738 24.0659 480.011 23.7351C479.284 23.4042 478.686 22.9133 478.215 22.241C477.745 21.5793 477.499 20.7362 477.499 19.7116V2.3479Z" fill="#777A80"/>
<path d="M488.859 3.62856C488.336 3.62856 487.887 3.44713 487.513 3.09495C487.139 2.74277 486.946 2.31588 486.946 1.81428C486.946 1.31269 487.139 0.885796 487.513 0.533612C487.887 0.181428 488.336 0 488.859 0C489.383 0 489.832 0.181428 490.206 0.533612C490.58 0.885796 490.772 1.31269 490.772 1.81428C490.772 2.31588 490.58 2.74277 490.206 3.09495C489.832 3.44713 489.383 3.62856 488.859 3.62856ZM487.491 24.0019V6.53141H490.174V23.9912H487.491V24.0019Z" fill="#777A80"/>
<path d="M508.919 6.53137L502.454 23.9912H499.718L493.252 6.53137H496.17L501 20.448H501.182L506.012 6.53137H508.919Z" fill="#777A80"/>
<path d="M519.317 24.3648C517.629 24.3648 516.176 23.9912 514.957 23.2442C513.739 22.4971 512.799 21.4512 512.147 20.1065C511.484 18.7618 511.163 17.193 511.163 15.4107C511.163 13.6178 511.495 12.0383 512.147 10.6723C512.799 9.30622 513.718 8.239 514.904 7.4706C516.079 6.70219 517.458 6.31799 519.04 6.31799C519.948 6.31799 520.846 6.4674 521.733 6.7769C522.62 7.08639 523.432 7.56664 524.159 8.24967C524.885 8.92202 525.473 9.81849 525.901 10.9391C526.339 12.049 526.552 13.4257 526.552 15.0586V16.2005H513.076V13.8846H523.827C523.827 12.9028 523.635 12.017 523.24 11.2486C522.844 10.4802 522.299 9.87185 521.572 9.42361C520.856 8.97538 520.012 8.75126 519.04 8.75126C517.971 8.75126 517.041 9.01807 516.272 9.54101C515.492 10.0639 514.893 10.747 514.476 11.5901C514.06 12.4332 513.846 13.3297 513.846 14.3008V15.8483C513.846 17.1717 514.07 18.2816 514.53 19.1994C514.989 20.1172 515.631 20.8109 516.453 21.2805C517.276 21.7501 518.227 21.9848 519.307 21.9848C520.012 21.9848 520.653 21.8888 521.22 21.686C521.786 21.4832 522.288 21.1844 522.705 20.7789C523.122 20.3733 523.443 19.8611 523.678 19.2634L526.275 19.9891C525.997 20.8643 525.537 21.6433 524.896 22.305C524.255 22.9667 523.453 23.4896 522.502 23.8525C521.572 24.1833 520.504 24.3648 519.317 24.3648Z" fill="#777A80"/>
<path d="M557.842 7.99351H555.021C554.85 7.18242 554.561 6.46738 554.155 5.85907C553.738 5.24008 553.236 4.72781 552.648 4.30092C552.061 3.8847 551.409 3.56453 550.693 3.35109C549.977 3.13765 549.239 3.03092 548.459 3.03092C547.049 3.03092 545.766 3.38311 544.633 4.09815C543.49 4.81319 542.582 5.85907 541.908 7.24646C541.235 8.63385 540.904 10.3307 540.904 12.3478C540.904 14.3648 541.235 16.0617 541.908 17.4491C542.582 18.8365 543.49 19.8824 544.633 20.5974C545.777 21.3125 547.049 21.6647 548.459 21.6647C549.229 21.6647 549.977 21.5579 550.693 21.3445C551.409 21.131 552.061 20.8109 552.648 20.3947C553.236 19.9784 553.738 19.4555 554.155 18.8365C554.572 18.2175 554.861 17.5132 555.021 16.7021H557.842C557.628 17.8974 557.244 18.9539 556.677 19.8931C556.111 20.8322 555.416 21.6326 554.583 22.2836C553.749 22.9453 552.809 23.4362 551.772 23.7778C550.735 24.1193 549.635 24.29 548.449 24.29C546.461 24.29 544.687 23.7991 543.148 22.8386C541.598 21.8674 540.38 20.4907 539.493 18.6978C538.606 16.9048 538.157 14.7917 538.157 12.3371C538.157 9.8825 538.606 7.75872 539.493 5.96579C540.38 4.17285 541.598 2.79613 543.148 1.82496C544.698 0.853786 546.461 0.373535 548.449 0.373535C549.624 0.373535 550.735 0.544291 551.772 0.885803C552.809 1.22731 553.738 1.72891 554.583 2.37992C555.416 3.0416 556.111 3.83134 556.677 4.7705C557.244 5.70965 557.628 6.79822 557.842 7.99351Z" fill="#777A80"/>
<path d="M568.647 24.3647C567.066 24.3647 565.687 23.9912 564.501 23.2441C563.314 22.4971 562.385 21.4405 561.722 20.0958C561.06 18.7511 560.728 17.1716 560.728 15.368C560.728 13.543 561.06 11.9636 561.722 10.6082C562.385 9.25281 563.314 8.19625 564.501 7.4492C565.687 6.70214 567.076 6.32861 568.647 6.32861C570.229 6.32861 571.607 6.70214 572.794 7.4492C573.98 8.19625 574.91 9.25281 575.572 10.6082C576.235 11.9636 576.566 13.5537 576.566 15.368C576.566 17.1716 576.235 18.7511 575.572 20.0958C574.91 21.4405 573.98 22.4971 572.794 23.2441C571.607 23.9912 570.229 24.3647 568.647 24.3647ZM568.647 21.9528C569.844 21.9528 570.827 21.6433 571.607 21.035C572.377 20.416 572.954 19.6156 573.328 18.6124C573.702 17.6092 573.884 16.5313 573.884 15.3573C573.884 14.1834 573.702 13.1055 573.328 12.0916C572.954 11.0884 572.388 10.2667 571.607 9.64768C570.838 9.02869 569.844 8.70852 568.647 8.70852C567.45 8.70852 566.456 9.01802 565.687 9.64768C564.918 10.2667 564.34 11.0884 563.966 12.0916C563.592 13.1055 563.411 14.1834 563.411 15.3573C563.411 16.5313 563.592 17.6092 563.966 18.6124C564.34 19.6156 564.907 20.416 565.687 21.035C566.467 21.6433 567.45 21.9528 568.647 21.9528Z" fill="#777A80"/>
<path d="M586.794 24.3648C585.34 24.3648 584.047 23.9912 582.936 23.2549C581.824 22.5185 580.948 21.4726 580.317 20.1172C579.687 18.7618 579.377 17.161 579.377 15.3147C579.377 13.4791 579.687 11.8889 580.317 10.5442C580.948 9.19952 581.824 8.15364 582.946 7.41725C584.068 6.68087 585.372 6.31801 586.836 6.31801C587.98 6.31801 588.877 6.51011 589.54 6.88364C590.203 7.25717 590.716 7.68406 591.068 8.15364C591.421 8.62322 591.699 9.01809 591.891 9.31691H592.116V0.715088H594.798V24.0019H592.201V21.3232H591.88C591.688 21.6434 591.4 22.0382 591.036 22.5185C590.673 22.9987 590.149 23.4256 589.476 23.8098C588.803 24.194 587.916 24.3648 586.794 24.3648ZM587.157 21.9528C588.236 21.9528 589.145 21.6754 589.893 21.1097C590.641 20.5441 591.196 19.765 591.592 18.7512C591.987 17.7373 592.169 16.5847 592.169 15.2614C592.169 13.9593 591.977 12.8174 591.603 11.8356C591.229 10.8537 590.662 10.0853 589.914 9.54103C589.166 8.98607 588.247 8.71927 587.157 8.71927C586.013 8.71927 585.073 9.00742 584.314 9.59439C583.555 10.1707 582.989 10.9604 582.615 11.953C582.241 12.9455 582.049 14.0447 582.049 15.2827C582.049 16.5313 582.241 17.6519 582.626 18.6658C583.01 19.6797 583.577 20.4801 584.336 21.0777C585.094 21.654 586.035 21.9528 587.157 21.9528Z" fill="#777A80"/>
<path d="M606.949 24.3648C605.26 24.3648 603.807 23.9912 602.589 23.2442C601.37 22.4971 600.43 21.4512 599.778 20.1065C599.115 18.7618 598.795 17.193 598.795 15.4107C598.795 13.6178 599.126 12.0383 599.778 10.6723C600.43 9.30622 601.349 8.239 602.535 7.4706C603.711 6.70219 605.089 6.31799 606.671 6.31799C607.579 6.31799 608.477 6.4674 609.364 6.7769C610.251 7.08639 611.063 7.56664 611.79 8.24967C612.517 8.92202 613.104 9.81849 613.532 10.9391C613.97 12.049 614.184 13.4257 614.184 15.0586V16.2005H600.708V13.8846H611.459C611.459 12.9028 611.266 12.017 610.871 11.2486C610.475 10.4802 609.93 9.87185 609.204 9.42361C608.488 8.97538 607.643 8.75126 606.671 8.75126C605.602 8.75126 604.673 9.01807 603.903 9.54101C603.123 10.0639 602.524 10.747 602.108 11.5901C601.691 12.4332 601.477 13.3297 601.477 14.3008V15.8483C601.477 17.1717 601.702 18.2816 602.161 19.1994C602.621 20.1172 603.262 20.8109 604.085 21.2805C604.908 21.7501 605.859 21.9848 606.938 21.9848C607.643 21.9848 608.285 21.8888 608.851 21.686C609.417 21.4832 609.92 21.1844 610.336 20.7789C610.753 20.3733 611.074 19.8611 611.309 19.2634L613.906 19.9891C613.628 20.8643 613.168 21.6433 612.527 22.305C611.886 22.9667 611.085 23.4896 610.133 23.8525C609.193 24.1833 608.124 24.3648 606.949 24.3648Z" fill="#777A80"/>
<path d="M846.054 493.036H518.954C511.612 493.036 505.35 487.711 504.185 480.475L437.638 67.854C436.174 58.7719 443.196 50.533 452.407 50.533H779.507C786.849 50.533 793.112 55.8584 794.277 63.0942L860.823 475.704C862.298 484.808 855.266 493.036 846.054 493.036Z" fill="#F4F4F4"/>
<path d="M1207.38 493.036H880.273C872.931 493.036 866.669 487.711 865.504 480.475L798.957 67.854C797.493 58.7719 804.514 50.533 813.726 50.533H1140.83C1148.17 50.533 1154.43 55.8584 1155.6 63.0942L1222.14 475.704C1223.62 484.808 1216.6 493.036 1207.38 493.036Z" fill="#F4F4F4"/>
<path fill-rule="evenodd" clip-rule="evenodd" d="M632.949 192.762C632.949 192.762 630.94 188.429 635.033 183.37C639.639 177.671 647.409 177.65 647.409 177.65C647.409 177.65 649.482 183.008 644.822 188.162C639.842 193.658 632.949 192.762 632.949 192.762ZM659.677 212.484C658.159 203.658 666.73 200.03 666.73 200.03C666.73 200.03 660.895 193.456 648.937 193.456C641.99 193.456 637.181 196.508 634.307 196.508C630.962 196.508 625.458 193.637 619.025 193.637C609.118 193.637 599.724 200.499 601.979 213.573C604.266 226.86 619.591 243.391 629.476 243.391C632.928 243.391 637.758 240.702 643.091 240.702C648.328 240.702 652.634 243.295 657.604 243.295C668.429 243.295 673.442 225.867 673.442 225.867C673.442 225.867 661.387 222.442 659.677 212.484Z" fill="#27282C"/>
<path d="M614.676 271.971L624.721 291.32H624.999L628.803 271.971H631.764L626.912 294.959H623.994L611.726 271.971H614.676Z" fill="#27282C"/>
<path d="M636.38 274.842C635.856 274.842 635.375 274.661 634.948 274.319C634.52 273.967 634.264 273.54 634.178 273.049C634.104 272.558 634.221 272.131 634.542 271.779C634.862 271.427 635.279 271.256 635.803 271.256C636.326 271.256 636.807 271.427 637.235 271.779C637.673 272.131 637.919 272.558 638.004 273.049C638.09 273.54 637.962 273.967 637.641 274.319C637.331 274.671 636.904 274.842 636.38 274.842ZM638.261 294.959L635.482 277.713H638.165L640.943 294.959H638.261Z" fill="#27282C"/>
<path d="M652.774 295.312C651.085 295.312 649.578 294.949 648.243 294.202C646.907 293.465 645.806 292.43 644.93 291.107C644.064 289.783 643.476 288.236 643.198 286.464C642.921 284.693 642.995 283.135 643.434 281.79C643.872 280.445 644.62 279.389 645.678 278.62C646.736 277.862 648.05 277.478 649.632 277.478C650.54 277.478 651.47 277.628 652.4 277.926C653.34 278.225 654.227 278.716 655.061 279.378C655.894 280.05 656.621 280.936 657.23 282.035C657.839 283.135 658.277 284.49 658.534 286.101L658.716 287.222H645.24L644.866 284.927H655.616C655.456 283.956 655.125 283.092 654.612 282.323C654.099 281.566 653.447 280.957 652.656 280.52C651.865 280.082 650.989 279.858 650.017 279.858C648.948 279.858 648.061 280.114 647.366 280.637C646.672 281.16 646.18 281.833 645.902 282.665C645.624 283.497 645.55 284.383 645.71 285.333L645.956 286.859C646.169 288.161 646.575 289.26 647.174 290.168C647.772 291.075 648.531 291.758 649.418 292.217C650.316 292.686 651.299 292.921 652.389 292.921C653.094 292.921 653.714 292.825 654.259 292.622C654.804 292.419 655.242 292.121 655.595 291.726C655.948 291.331 656.194 290.829 656.322 290.232L659.036 290.947C658.908 291.811 658.566 292.579 658.032 293.23C657.497 293.881 656.781 294.394 655.884 294.757C654.997 295.13 653.96 295.312 652.774 295.312Z" fill="#27282C"/>
<path d="M667.532 294.959L659.421 277.713H662.242L668.152 290.915H668.333L669.936 277.713H672.8L678.614 290.872H678.796L680.452 277.713H683.273L680.73 294.959H678.09L672.127 281.715H671.849L670.161 294.959H667.532Z" fill="#27282C"/>
<path d="M979.777 271.971L989.822 291.32H990.09L993.894 271.971H996.854L992.003 294.959H989.085L976.817 271.971H979.777Z" fill="#27282C"/>
<path d="M1001.48 274.842C1000.96 274.842 1000.48 274.661 1000.05 274.319C999.622 273.967 999.366 273.54 999.28 273.049C999.205 272.558 999.323 272.131 999.644 271.779C999.964 271.427 1000.38 271.256 1000.9 271.256C1001.43 271.256 1001.91 271.427 1002.34 271.779C1002.77 272.131 1003.02 272.558 1003.11 273.049C1003.19 273.54 1003.06 273.967 1002.74 274.319C1002.42 274.671 1002.01 274.842 1001.48 274.842ZM1003.36 294.959L1000.58 277.713H1003.27L1006.04 294.959H1003.36Z" fill="#27282C"/>
<path d="M1017.88 295.312C1016.19 295.312 1014.68 294.949 1013.34 294.202C1012.01 293.455 1010.91 292.43 1010.03 291.107C1009.16 289.783 1008.58 288.236 1008.3 286.464C1008.01 284.703 1008.09 283.135 1008.54 281.79C1008.97 280.434 1009.72 279.389 1010.78 278.62C1011.84 277.862 1013.15 277.478 1014.73 277.478C1015.64 277.478 1016.57 277.628 1017.5 277.926C1018.44 278.225 1019.33 278.716 1020.16 279.378C1021 280.05 1021.72 280.936 1022.33 282.035C1022.94 283.135 1023.38 284.49 1023.64 286.101L1023.82 287.222H1010.34L1009.98 284.927H1020.73C1020.57 283.956 1020.24 283.092 1019.72 282.323C1019.21 281.566 1018.56 280.957 1017.77 280.52C1016.98 280.082 1016.1 279.858 1015.13 279.858C1014.06 279.858 1013.17 280.114 1012.48 280.637C1011.78 281.16 1011.29 281.833 1011.01 282.665C1010.74 283.497 1010.66 284.383 1010.82 285.333L1011.07 286.859C1011.28 288.161 1011.69 289.26 1012.29 290.168C1012.88 291.075 1013.64 291.758 1014.54 292.217C1015.44 292.686 1016.42 292.921 1017.51 292.921C1018.22 292.921 1018.84 292.825 1019.38 292.622C1019.93 292.419 1020.37 292.121 1020.72 291.726C1021.07 291.331 1021.32 290.829 1021.45 290.232L1024.16 290.947C1024.03 291.811 1023.69 292.579 1023.15 293.23C1022.62 293.881 1021.9 294.394 1021.01 294.757C1020.11 295.119 1019.06 295.312 1017.88 295.312Z" fill="#27282C"/>
<path d="M1032.63 294.959L1024.52 277.713H1027.34L1033.25 290.915H1033.43L1035.04 277.713H1037.9L1043.72 290.872H1043.9L1045.55 277.713H1048.37L1045.83 294.959H1043.19L1037.23 281.715H1036.95L1035.26 294.959H1032.63Z" fill="#27282C"/>
<path d="M1024.67 205.056L1029.6 194.32C1029.88 193.723 1029.44 192.954 1028.64 192.602C1027.84 192.25 1026.95 192.453 1026.67 193.061L1021.68 203.936C1015.34 201.748 1008.5 200.531 1001.47 200.531C994.44 200.531 988.188 201.748 982.909 203.936L972.671 193.061C972.105 192.463 971.121 192.26 970.48 192.602C969.839 192.954 969.775 193.712 970.341 194.32L980.451 205.056C968.888 210.851 962.711 221.662 964.314 234.33H1054.94C1050.44 221.673 1039.05 210.851 1024.67 205.056ZM986.286 223.84C984.181 223.84 982.15 222.431 981.733 220.713C981.316 218.984 982.684 217.586 984.779 217.586C986.884 217.586 988.915 218.994 989.332 220.713C989.759 222.431 988.391 223.84 986.286 223.84ZM1027.89 223.84C1025.78 223.84 1023.75 222.431 1023.34 220.713C1022.92 218.984 1024.29 217.586 1026.38 217.586C1028.49 217.586 1030.52 218.994 1030.94 220.713C1031.36 222.431 1029.99 223.84 1027.89 223.84Z" fill="#27282C"/>
<path d="M286.507 553.27C285.984 553.27 285.503 553.089 285.075 552.737C284.648 552.385 284.391 551.958 284.316 551.456C284.242 550.955 284.359 550.528 284.68 550.175C285 549.823 285.428 549.642 285.951 549.642C286.475 549.642 286.956 549.823 287.384 550.175C287.811 550.528 288.067 550.965 288.142 551.456C288.217 551.947 288.1 552.385 287.779 552.737C287.448 553.1 287.031 553.27 286.507 553.27ZM288.281 573.654L285.588 556.195H288.271L290.964 573.654H288.281Z" fill="white"/>
<path d="M313.641 562.011C314.015 564.466 313.908 566.589 313.288 568.372C312.679 570.165 311.675 571.541 310.275 572.512C308.875 573.484 307.186 573.964 305.199 573.964C303.211 573.964 301.362 573.473 299.674 572.512C297.985 571.552 296.542 570.165 295.377 568.372C294.213 566.579 293.443 564.466 293.058 562.011C292.684 559.556 292.802 557.433 293.411 555.64C294.02 553.847 295.025 552.47 296.425 551.499C297.825 550.528 299.513 550.047 301.501 550.047C303.489 550.047 305.337 550.528 307.026 551.499C308.725 552.47 310.157 553.847 311.322 555.64C312.487 557.433 313.267 559.556 313.641 562.011ZM310.916 562.011C310.606 559.994 310.008 558.297 309.121 556.91C308.234 555.522 307.165 554.476 305.915 553.761C304.664 553.046 303.328 552.694 301.918 552.694C300.507 552.694 299.289 553.046 298.252 553.761C297.216 554.476 296.478 555.522 296.019 556.91C295.559 558.297 295.484 559.994 295.794 562.011C296.104 564.028 296.703 565.725 297.59 567.112C298.477 568.5 299.545 569.546 300.796 570.261C302.046 570.976 303.382 571.328 304.792 571.328C306.203 571.328 307.421 570.976 308.458 570.261C309.495 569.546 310.232 568.5 310.692 567.112C311.151 565.725 311.226 564.028 310.916 562.011Z" fill="white"/>
<path d="M329.757 556.184C329.447 555.031 328.752 554.135 327.684 553.505C326.615 552.865 325.375 552.555 323.965 552.555C322.928 552.555 322.052 552.726 321.336 553.057C320.62 553.388 320.085 553.847 319.754 554.434C319.412 555.021 319.305 555.682 319.412 556.419C319.508 557.038 319.743 557.571 320.107 558.019C320.47 558.468 320.919 558.831 321.432 559.119C321.945 559.407 322.479 559.652 323.024 559.834C323.569 560.015 324.072 560.165 324.52 560.282L326.989 560.922C327.62 561.082 328.336 561.307 329.126 561.584C329.917 561.862 330.697 562.246 331.456 562.726C332.215 563.206 332.877 563.825 333.444 564.572C334.01 565.319 334.374 566.248 334.545 567.336C334.737 568.596 334.587 569.738 334.085 570.751C333.583 571.765 332.749 572.576 331.584 573.174C330.42 573.772 328.945 574.071 327.149 574.071C325.482 574.071 323.997 573.804 322.693 573.259C321.389 572.726 320.321 571.968 319.476 571.008C318.632 570.047 318.066 568.927 317.777 567.657H320.695C320.908 568.532 321.314 569.257 321.924 569.834C322.533 570.41 323.259 570.826 324.104 571.104C324.948 571.381 325.835 571.52 326.754 571.52C327.833 571.52 328.774 571.338 329.575 570.986C330.377 570.634 330.986 570.143 331.381 569.513C331.787 568.884 331.916 568.137 331.787 567.294C331.67 566.525 331.36 565.896 330.847 565.405C330.345 564.924 329.714 564.53 328.955 564.22C328.197 563.921 327.395 563.654 326.54 563.42L323.548 562.598C321.646 562.075 320.085 561.328 318.878 560.357C317.67 559.386 316.944 558.116 316.698 556.547C316.495 555.245 316.676 554.103 317.232 553.132C317.788 552.16 318.632 551.403 319.754 550.858C320.876 550.314 322.18 550.047 323.666 550.047C325.172 550.047 326.54 550.314 327.801 550.848C329.052 551.381 330.088 552.118 330.922 553.036C331.755 553.964 332.279 555.01 332.493 556.184H329.757Z" fill="white"/>
<path d="M303.05 589.118L300.742 589.801C300.528 589.396 300.25 589.012 299.897 588.627C299.545 588.243 299.096 587.934 298.562 587.678C298.027 587.422 297.365 587.304 296.585 587.304C295.516 587.304 294.661 587.55 294.03 588.04C293.4 588.531 293.133 589.15 293.25 589.897C293.357 590.559 293.678 591.093 294.223 591.477C294.768 591.861 295.58 592.181 296.649 592.448L299.342 593.088C300.966 593.462 302.217 594.049 303.104 594.817C303.991 595.586 304.525 596.589 304.717 597.816C304.867 598.819 304.728 599.716 304.268 600.495C303.809 601.274 303.114 601.904 302.163 602.363C301.212 602.822 300.047 603.046 298.69 603.046C296.905 603.046 295.366 602.661 294.084 601.882C292.801 601.103 291.882 599.983 291.337 598.499L293.785 597.859C294.169 598.798 294.746 599.502 295.495 599.972C296.243 600.442 297.172 600.676 298.273 600.676C299.523 600.676 300.475 600.41 301.137 599.876C301.8 599.342 302.067 598.702 301.949 597.944C301.853 597.336 301.565 596.834 301.073 596.418C300.581 596.002 299.887 595.693 298.968 595.49L295.943 594.807C294.287 594.423 293.015 593.835 292.15 593.035C291.284 592.235 290.75 591.232 290.568 590.026C290.418 589.044 290.557 588.169 291.006 587.411C291.444 586.653 292.118 586.055 293.015 585.629C293.913 585.202 294.982 584.978 296.211 584.978C297.942 584.978 299.363 585.362 300.464 586.119C301.565 586.877 302.441 587.87 303.05 589.118Z" fill="white"/>
<path d="M310.039 609.214L306.341 585.202H308.938L309.366 587.976H309.686C309.836 587.678 310.05 587.283 310.328 586.813C310.605 586.344 311.054 585.917 311.653 585.543C312.251 585.17 313.128 584.978 314.271 584.978C315.746 584.978 317.103 585.34 318.332 586.077C319.572 586.813 320.608 587.859 321.442 589.204C322.275 590.548 322.842 592.149 323.12 593.974C323.408 595.821 323.333 597.421 322.917 598.777C322.5 600.132 321.784 601.178 320.779 601.914C319.775 602.651 318.546 603.024 317.092 603.024C315.97 603.024 315.04 602.832 314.303 602.459C313.566 602.085 312.978 601.658 312.54 601.178C312.102 600.698 311.76 600.292 311.514 599.983H311.289L312.711 609.214H310.039V609.214ZM310.317 593.932C310.52 595.255 310.894 596.408 311.428 597.421C311.973 598.425 312.657 599.214 313.491 599.78C314.324 600.346 315.276 600.623 316.355 600.623C317.477 600.623 318.375 600.324 319.037 599.727C319.7 599.129 320.149 598.329 320.373 597.315C320.598 596.301 320.619 595.18 320.427 593.932C320.234 592.704 319.882 591.594 319.347 590.602C318.824 589.609 318.129 588.83 317.285 588.243C316.44 587.667 315.447 587.368 314.314 587.368C313.224 587.368 312.347 587.646 311.685 588.19C311.022 588.734 310.584 589.503 310.349 590.484C310.114 591.466 310.125 592.63 310.317 593.932Z" fill="white"/>
<path d="M335.474 603.035C333.786 603.035 332.279 602.661 330.943 601.914C329.607 601.167 328.507 600.121 327.652 598.777C326.786 597.432 326.22 595.863 325.942 594.07C325.664 592.277 325.749 590.698 326.198 589.332C326.647 587.966 327.395 586.899 328.464 586.13C329.522 585.362 330.847 584.978 332.429 584.978C333.337 584.978 334.267 585.127 335.197 585.436C336.126 585.746 337.013 586.226 337.847 586.909C338.68 587.592 339.396 588.489 340.006 589.599C340.615 590.709 341.042 592.085 341.288 593.718L341.459 594.86H327.983L327.63 592.544H338.381C338.232 591.562 337.9 590.676 337.387 589.908C336.874 589.129 336.233 588.521 335.442 588.073C334.652 587.624 333.775 587.4 332.803 587.4C331.734 587.4 330.847 587.667 330.152 588.19C329.458 588.713 328.966 589.396 328.678 590.239C328.389 591.082 328.325 591.979 328.464 592.95L328.699 594.497C328.902 595.82 329.308 596.93 329.907 597.848C330.505 598.766 331.253 599.46 332.151 599.929C333.038 600.399 334.032 600.644 335.122 600.644C335.827 600.644 336.447 600.548 336.992 600.346C337.537 600.143 337.986 599.844 338.338 599.438C338.691 599.033 338.937 598.531 339.076 597.923L341.78 598.649C341.641 599.534 341.299 600.303 340.754 600.965C340.209 601.626 339.493 602.138 338.606 602.512C337.697 602.843 336.65 603.035 335.474 603.035Z" fill="white"/>
<path d="M353.427 603.035C351.792 603.035 350.318 602.651 349.014 601.872C347.71 601.093 346.631 600.036 345.786 598.681C344.942 597.325 344.386 595.778 344.109 594.028C343.831 592.256 343.927 590.687 344.365 589.321C344.814 587.955 345.562 586.899 346.631 586.13C347.689 585.362 349.014 584.978 350.595 584.978C351.824 584.978 352.968 585.202 354.026 585.661C355.084 586.119 355.992 586.749 356.74 587.571C357.499 588.393 358.033 589.342 358.354 590.431H355.672C355.34 589.631 354.785 588.926 353.983 588.307C353.182 587.688 352.199 587.379 351.012 587.379C349.965 587.379 349.089 587.646 348.383 588.19C347.678 588.734 347.186 589.492 346.898 590.474C346.609 591.456 346.577 592.608 346.78 593.921C346.983 595.266 347.379 596.45 347.967 597.443C348.544 598.446 349.281 599.225 350.147 599.769C351.012 600.324 351.985 600.602 353.043 600.602C353.737 600.602 354.357 600.484 354.892 600.239C355.426 599.993 355.853 599.652 356.174 599.193C356.495 598.734 356.698 598.19 356.762 597.56H359.444C359.455 598.595 359.22 599.513 358.749 600.335C358.279 601.157 357.595 601.808 356.698 602.288C355.821 602.79 354.721 603.035 353.427 603.035Z" fill="white"/>
<path d="M361.913 582.288C361.389 582.288 360.908 582.107 360.481 581.755C360.053 581.402 359.797 580.965 359.722 580.474C359.647 579.983 359.765 579.545 360.085 579.193C360.406 578.841 360.833 578.66 361.357 578.66C361.881 578.66 362.361 578.841 362.789 579.193C363.216 579.545 363.473 579.972 363.548 580.474C363.622 580.976 363.505 581.402 363.184 581.755C362.864 582.117 362.436 582.288 361.913 582.288ZM363.687 602.661L360.994 585.202H363.676L366.369 602.661H363.687Z" fill="white"/>
<path d="M375.913 585.202L376.265 587.475H366.84L366.487 585.202H375.913ZM372.001 602.661L368.934 582.79C368.785 581.787 368.892 580.954 369.255 580.292C369.618 579.631 370.153 579.129 370.858 578.788C371.563 578.457 372.322 578.286 373.166 578.286C373.829 578.286 374.374 578.339 374.812 578.446C375.25 578.553 375.571 578.649 375.795 578.745L375.378 581.061C375.239 581.018 375.036 580.965 374.791 580.89C374.545 580.815 374.224 580.783 373.84 580.783C372.953 580.783 372.343 581.008 372.023 581.456C371.702 581.904 371.606 582.555 371.745 583.419L374.705 602.661H372.001V602.661Z" fill="white"/>
<path d="M380.123 582.288C379.6 582.288 379.119 582.107 378.691 581.755C378.264 581.402 378.007 580.965 377.932 580.474C377.858 579.972 377.975 579.545 378.296 579.193C378.616 578.841 379.044 578.66 379.567 578.66C380.091 578.66 380.572 578.841 380.999 579.193C381.427 579.545 381.683 579.972 381.758 580.474C381.833 580.976 381.715 581.402 381.395 581.755C381.074 582.117 380.647 582.288 380.123 582.288ZM381.897 602.661L379.204 585.202H381.897L384.59 602.661H381.897Z" fill="white"/>
<path d="M396.185 603.035C394.55 603.035 393.075 602.651 391.772 601.872C390.468 601.093 389.388 600.036 388.544 598.681C387.7 597.325 387.144 595.778 386.866 594.028C386.588 592.256 386.685 590.687 387.123 589.321C387.572 587.955 388.32 586.899 389.388 586.13C390.446 585.362 391.772 584.978 393.353 584.978C394.582 584.978 395.726 585.202 396.784 585.661C397.842 586.119 398.75 586.749 399.498 587.571C400.257 588.393 400.791 589.342 401.112 590.431H398.429C398.098 589.631 397.542 588.926 396.741 588.307C395.939 587.688 394.956 587.379 393.77 587.379C392.723 587.379 391.846 587.646 391.141 588.19C390.436 588.734 389.944 589.492 389.656 590.474C389.367 591.456 389.335 592.608 389.538 593.921C389.741 595.266 390.136 596.45 390.724 597.443C391.301 598.446 392.039 599.225 392.904 599.769C393.77 600.324 394.742 600.602 395.8 600.602C396.495 600.602 397.115 600.484 397.649 600.239C398.184 599.993 398.611 599.652 398.932 599.193C399.252 598.734 399.455 598.19 399.519 597.56H402.202C402.213 598.595 401.977 599.513 401.507 600.335C401.037 601.157 400.353 601.808 399.455 602.288C398.568 602.79 397.468 603.035 396.185 603.035Z" fill="white"/>
<path d="M416.298 602.661H413.338L418.307 579.375H421.224L433.375 602.661H430.415L420.423 583.056H420.241L416.298 602.661ZM415.988 593.569H427.925L428.31 596.066H416.373L415.988 593.569Z" fill="white"/>
<path d="M436.539 602.661L432.948 579.375H440.824C442.652 579.375 444.201 579.705 445.462 580.356C446.723 581.018 447.728 581.893 448.465 583.014C449.203 584.124 449.673 585.372 449.886 586.738C450.1 588.115 450.015 589.353 449.63 590.474C449.245 591.594 448.519 592.491 447.461 593.152C446.403 593.814 444.971 594.145 443.154 594.145H437.511L437.127 591.648H442.684C443.934 591.648 444.906 591.434 445.601 590.997C446.296 590.57 446.755 589.983 446.99 589.236C447.225 588.489 447.268 587.656 447.119 586.728C446.98 585.799 446.67 584.967 446.21 584.23C445.751 583.494 445.109 582.918 444.276 582.501C443.442 582.085 442.395 581.872 441.123 581.872H436.154L439.36 602.651H436.539V602.661Z" fill="white"/>
<path d="M455.646 579.385L459.237 602.672H456.415L452.825 579.385H455.646Z" fill="white"/>
<path d="M474.327 589.118L472.019 589.801C471.805 589.396 471.527 589.012 471.174 588.627C470.822 588.243 470.373 587.934 469.839 587.678C469.304 587.422 468.642 587.304 467.861 587.304C466.793 587.304 465.938 587.55 465.307 588.04C464.677 588.531 464.41 589.15 464.527 589.897C464.634 590.559 464.955 591.093 465.5 591.477C466.045 591.861 466.857 592.181 467.926 592.448L470.619 593.088C472.243 593.462 473.493 594.049 474.38 594.817C475.267 595.586 475.802 596.589 475.994 597.816C476.144 598.819 476.005 599.716 475.545 600.495C475.086 601.274 474.391 601.904 473.44 602.363C472.489 602.822 471.324 603.046 469.967 603.046C468.182 603.046 466.643 602.661 465.361 601.882C464.078 601.103 463.159 599.983 462.614 598.499L465.062 597.859C465.446 598.798 466.023 599.502 466.771 599.972C467.519 600.442 468.449 600.676 469.55 600.676C470.8 600.676 471.762 600.41 472.414 599.876C473.066 599.342 473.344 598.702 473.226 597.944C473.13 597.336 472.842 596.834 472.35 596.418C471.858 596.002 471.164 595.693 470.245 595.49L467.22 594.807C465.564 594.423 464.292 593.835 463.426 593.035C462.561 592.235 462.026 591.232 461.845 590.026C461.695 589.044 461.834 588.169 462.283 587.411C462.721 586.653 463.394 586.055 464.292 585.629C465.19 585.202 466.258 584.978 467.487 584.978C469.219 584.978 470.64 585.362 471.741 586.119C472.842 586.877 473.718 587.87 474.327 589.118Z" fill="white"/>
<path d="M651.79 573.654H648.83L653.799 550.367H656.717L668.868 573.654H665.907L655.915 554.049H655.734L651.79 573.654ZM651.48 564.551H663.417L663.802 567.048H651.865L651.48 564.551Z" fill="white"/>
<path d="M672.726 563.142L674.339 573.644H671.657L668.964 556.184H671.561L671.978 558.916H672.202C672.48 558.03 672.993 557.315 673.741 556.771C674.489 556.227 675.526 555.96 676.851 555.96C678.037 555.96 679.106 556.205 680.067 556.686C681.029 557.166 681.831 557.892 682.472 558.874C683.113 559.845 683.551 561.083 683.786 562.566L685.496 573.665H682.814L681.136 562.747C680.922 561.371 680.399 560.304 679.576 559.535C678.742 558.767 677.706 558.383 676.455 558.383C675.6 558.383 674.863 558.564 674.243 558.938C673.623 559.311 673.185 559.855 672.907 560.56C672.629 561.264 672.576 562.129 672.726 563.142Z" fill="white"/>
<path d="M696.6 574.017C695.146 574.017 693.8 573.644 692.571 572.907C691.342 572.171 690.305 571.125 689.472 569.77C688.627 568.414 688.072 566.813 687.783 564.967C687.505 563.132 687.569 561.541 687.997 560.197C688.414 558.852 689.14 557.806 690.145 557.07C691.16 556.333 692.4 555.97 693.874 555.97C695.007 555.97 695.937 556.163 696.664 556.536C697.39 556.91 697.957 557.337 698.384 557.806C698.812 558.276 699.143 558.671 699.389 558.969H699.613L698.288 550.378H700.97L704.561 573.665H701.964L701.547 570.986H701.227C701.077 571.306 700.864 571.701 700.564 572.182C700.276 572.662 699.816 573.089 699.207 573.473C698.598 573.857 697.722 574.017 696.6 574.017ZM696.589 571.605C697.668 571.605 698.534 571.328 699.186 570.762C699.838 570.197 700.286 569.418 700.522 568.404C700.757 567.4 700.767 566.237 700.564 564.914C700.361 563.612 699.998 562.47 699.464 561.488C698.929 560.506 698.256 559.738 697.422 559.193C696.6 558.639 695.638 558.372 694.537 558.372C693.394 558.372 692.496 558.66 691.833 559.247C691.171 559.823 690.722 560.613 690.497 561.605C690.273 562.598 690.252 563.708 690.444 564.935C690.636 566.184 691 567.304 691.545 568.318C692.079 569.332 692.774 570.133 693.629 570.73C694.484 571.306 695.467 571.605 696.589 571.605Z" fill="white"/>
<path d="M709.36 573.654L706.667 556.194H709.264L709.67 558.83H709.852C710.033 557.966 710.504 557.262 711.262 556.728C712.01 556.194 712.908 555.917 713.966 555.917C714.158 555.917 714.415 555.917 714.703 555.928C715.003 555.938 715.227 555.949 715.377 555.96L715.793 558.692C715.697 558.67 715.484 558.638 715.152 558.585C714.821 558.532 714.479 558.51 714.126 558.51C713.282 558.51 712.545 558.681 711.936 559.033C711.326 559.385 710.878 559.876 710.589 560.485C710.301 561.093 710.215 561.808 710.343 562.598L712.042 573.644H709.36V573.654Z" fill="white"/>
<path d="M727.976 574.017C726.395 574.017 724.952 573.644 723.659 572.896C722.366 572.149 721.265 571.093 720.399 569.748C719.534 568.403 718.957 566.824 718.679 565.02C718.401 563.195 718.486 561.616 718.946 560.261C719.405 558.905 720.164 557.849 721.233 557.102C722.302 556.354 723.627 555.981 725.208 555.981C726.79 555.981 728.233 556.354 729.537 557.102C730.84 557.849 731.93 558.905 732.807 560.261C733.683 561.616 734.26 563.206 734.538 565.02C734.816 566.824 734.73 568.403 734.271 569.748C733.811 571.093 733.052 572.149 731.973 572.896C730.872 573.644 729.547 574.017 727.976 574.017ZM727.602 571.605C728.799 571.605 729.74 571.296 730.424 570.687C731.108 570.079 731.556 569.268 731.77 568.265C731.984 567.262 732.005 566.184 731.824 565.01C731.642 563.846 731.289 562.758 730.766 561.744C730.242 560.741 729.537 559.919 728.671 559.3C727.805 558.681 726.769 558.372 725.572 558.372C724.375 558.372 723.434 558.681 722.761 559.3C722.088 559.919 721.639 560.741 721.415 561.744C721.201 562.758 721.179 563.836 721.361 565.01C721.543 566.173 721.896 567.262 722.419 568.265C722.943 569.268 723.648 570.068 724.514 570.687C725.369 571.296 726.405 571.605 727.602 571.605Z" fill="white"/>
<path d="M737.679 553.27C737.155 553.27 736.675 553.089 736.247 552.737C735.82 552.385 735.563 551.958 735.488 551.456C735.413 550.955 735.531 550.528 735.852 550.175C736.172 549.823 736.6 549.642 737.123 549.642C737.647 549.642 738.128 549.823 738.555 550.175C738.983 550.528 739.239 550.965 739.314 551.456C739.389 551.947 739.271 552.385 738.951 552.737C738.63 553.1 738.203 553.27 737.679 553.27ZM739.453 573.654L736.76 556.195H739.442L742.135 573.654H739.453Z" fill="white"/>
<path d="M753.239 574.017C751.786 574.017 750.439 573.644 749.21 572.907C747.981 572.171 746.945 571.125 746.111 569.77C745.267 568.414 744.711 566.813 744.423 564.967C744.134 563.132 744.209 561.541 744.636 560.197C745.053 558.852 745.769 557.806 746.784 557.07C747.789 556.333 749.039 555.97 750.503 555.97C751.647 555.97 752.577 556.163 753.293 556.536C754.009 556.91 754.586 557.337 755.013 557.806C755.441 558.276 755.772 558.671 756.018 558.969H756.242L754.917 550.378H757.599L761.19 573.665H758.593L758.176 570.986H757.856C757.706 571.306 757.492 571.701 757.193 572.182C756.905 572.662 756.445 573.089 755.836 573.473C755.227 573.857 754.361 574.017 753.239 574.017ZM753.228 571.605C754.308 571.605 755.173 571.328 755.825 570.762C756.477 570.197 756.926 569.418 757.161 568.404C757.396 567.4 757.407 566.237 757.204 564.914C757.001 563.612 756.638 562.47 756.103 561.488C755.569 560.506 754.896 559.738 754.062 559.193C753.228 558.639 752.277 558.372 751.177 558.372C750.044 558.372 749.135 558.66 748.473 559.247C747.81 559.823 747.361 560.613 747.137 561.605C746.913 562.598 746.902 563.708 747.084 564.935C747.276 566.184 747.639 567.304 748.184 568.318C748.719 569.332 749.413 570.133 750.268 570.73C751.123 571.306 752.106 571.605 753.228 571.605Z" fill="white"/>
<path d="M665.234 589.118L662.926 589.801C662.712 589.396 662.434 589.012 662.082 588.627C661.729 588.243 661.28 587.934 660.746 587.678C660.212 587.422 659.549 587.304 658.769 587.304C657.7 587.304 656.845 587.55 656.215 588.04C655.584 588.531 655.317 589.15 655.435 589.897C655.542 590.559 655.862 591.093 656.407 591.477C656.952 591.861 657.764 592.181 658.833 592.448L661.526 593.088C663.15 593.462 664.401 594.049 665.288 594.817C666.175 595.596 666.709 596.589 666.902 597.816C667.051 598.819 666.902 599.716 666.453 600.495C666.004 601.274 665.299 601.904 664.347 602.363C663.396 602.822 662.231 603.046 660.874 603.046C659.09 603.046 657.551 602.661 656.268 601.882C654.986 601.103 654.067 599.983 653.522 598.499L655.969 597.859C656.354 598.798 656.931 599.502 657.679 599.972C658.427 600.442 659.357 600.676 660.457 600.676C661.708 600.676 662.67 600.41 663.321 599.876C663.973 599.342 664.251 598.702 664.134 597.944C664.037 597.336 663.749 596.834 663.257 596.418C662.766 596.002 662.071 595.693 661.152 595.49L658.128 594.807C656.471 594.423 655.2 593.835 654.334 593.035C653.468 592.235 652.934 591.232 652.752 590.026C652.603 589.044 652.742 588.169 653.19 587.411C653.629 586.653 654.302 586.055 655.2 585.629C656.097 585.202 657.166 584.978 658.395 584.978C660.126 584.978 661.547 585.362 662.648 586.119C663.77 586.867 664.625 587.87 665.234 589.118Z" fill="white"/>
<path d="M672.223 609.214L668.526 585.202H671.123L671.55 587.976H671.871C672.02 587.678 672.234 587.283 672.512 586.813C672.79 586.344 673.239 585.917 673.837 585.543C674.446 585.17 675.312 584.978 676.455 584.978C677.93 584.978 679.287 585.34 680.516 586.077C681.756 586.813 682.793 587.859 683.626 589.204C684.46 590.548 685.026 592.149 685.304 593.974C685.592 595.821 685.518 597.421 685.101 598.777C684.684 600.132 683.968 601.178 682.964 601.914C681.959 602.651 680.73 603.024 679.277 603.024C678.154 603.024 677.225 602.832 676.487 602.459C675.75 602.085 675.173 601.658 674.735 601.178C674.297 600.698 673.955 600.292 673.709 599.983H673.484L674.906 609.214H672.223V609.214ZM672.512 593.932C672.715 595.255 673.089 596.408 673.634 597.421C674.179 598.435 674.863 599.214 675.697 599.78C676.53 600.346 677.481 600.623 678.561 600.623C679.683 600.623 680.58 600.324 681.243 599.727C681.906 599.129 682.354 598.329 682.579 597.315C682.803 596.301 682.825 595.18 682.632 593.932C682.44 592.704 682.087 591.594 681.553 590.602C681.029 589.609 680.335 588.83 679.49 588.243C678.646 587.667 677.652 587.368 676.519 587.368C675.429 587.368 674.553 587.646 673.891 588.19C673.228 588.734 672.79 589.503 672.555 590.484C672.32 591.488 672.309 592.63 672.512 593.932Z" fill="white"/>
<path d="M697.658 603.035C695.969 603.035 694.462 602.661 693.126 601.914C691.791 601.167 690.69 600.121 689.835 598.777C688.969 597.432 688.403 595.863 688.125 594.07C687.847 592.277 687.933 590.698 688.381 589.332C688.83 587.966 689.578 586.899 690.647 586.13C691.705 585.362 693.03 584.978 694.612 584.978C695.52 584.978 696.45 585.127 697.38 585.436C698.32 585.746 699.196 586.226 700.03 586.909C700.864 587.592 701.58 588.489 702.189 589.599C702.798 590.709 703.225 592.085 703.471 593.718L703.642 594.86H690.166L689.813 592.544H700.564C700.415 591.562 700.083 590.676 699.57 589.908C699.057 589.129 698.416 588.521 697.625 588.073C696.835 587.624 695.958 587.4 694.986 587.4C693.917 587.4 693.03 587.667 692.336 588.19C691.641 588.713 691.149 589.396 690.861 590.239C690.572 591.082 690.508 591.979 690.647 592.95L690.882 594.497C691.085 595.82 691.491 596.93 692.09 597.848C692.688 598.766 693.436 599.46 694.323 599.929C695.221 600.399 696.204 600.644 697.294 600.644C697.999 600.644 698.619 600.548 699.164 600.346C699.709 600.143 700.158 599.844 700.511 599.438C700.864 599.033 701.109 598.531 701.248 597.923L703.952 598.649C703.813 599.534 703.471 600.303 702.926 600.965C702.381 601.626 701.665 602.138 700.778 602.512C699.88 602.843 698.844 603.035 697.658 603.035Z" fill="white"/>
<path d="M715.622 603.035C713.987 603.035 712.513 602.651 711.209 601.872C709.905 601.103 708.836 600.036 707.981 598.681C707.137 597.325 706.581 595.778 706.304 594.028C706.026 592.256 706.122 590.687 706.56 589.321C707.009 587.955 707.757 586.899 708.826 586.13C709.884 585.362 711.209 584.978 712.79 584.978C714.019 584.978 715.163 585.202 716.221 585.661C717.279 586.119 718.187 586.749 718.935 587.571C719.694 588.393 720.228 589.342 720.549 590.431H717.867C717.535 589.631 716.98 588.926 716.178 588.307C715.377 587.688 714.393 587.379 713.207 587.379C712.16 587.379 711.284 587.646 710.578 588.19C709.873 588.734 709.381 589.492 709.093 590.474C708.804 591.456 708.772 592.608 708.965 593.921C709.178 595.266 709.574 596.45 710.151 597.443C710.728 598.446 711.455 599.225 712.331 599.769C713.197 600.324 714.169 600.602 715.227 600.602C715.922 600.602 716.542 600.484 717.076 600.239C717.61 599.993 718.038 599.652 718.358 599.193C718.679 598.734 718.882 598.19 718.946 597.56H721.628C721.639 598.595 721.404 599.513 720.934 600.335C720.464 601.157 719.78 601.808 718.882 602.288C718.006 602.79 716.916 603.035 715.622 603.035Z" fill="white"/>
<path d="M724.108 582.288C723.584 582.288 723.103 582.107 722.676 581.755C722.248 581.402 721.992 580.965 721.917 580.474C721.842 579.972 721.96 579.545 722.28 579.193C722.601 578.841 723.028 578.66 723.552 578.66C724.076 578.66 724.556 578.841 724.984 579.193C725.411 579.545 725.668 579.972 725.743 580.474C725.818 580.976 725.7 581.402 725.379 581.755C725.048 582.117 724.631 582.288 724.108 582.288ZM725.882 602.661L723.189 585.202H725.871L728.564 602.661H725.882Z" fill="white"/>
<path d="M738.096 585.202L738.449 587.475H729.023L728.67 585.202H738.096ZM734.184 602.661L731.117 582.79C730.968 581.787 731.075 580.954 731.438 580.292C731.801 579.631 732.336 579.129 733.041 578.788C733.746 578.446 734.505 578.286 735.339 578.286C736.001 578.286 736.546 578.339 736.984 578.446C737.423 578.553 737.743 578.649 737.968 578.745L737.551 581.061C737.412 581.018 737.209 580.965 736.963 580.89C736.717 580.815 736.397 580.783 736.012 580.783C735.125 580.783 734.516 581.008 734.195 581.456C733.875 581.904 733.778 582.555 733.917 583.419L736.878 602.661H734.184V602.661Z" fill="white"/>
<path d="M742.317 582.288C741.794 582.288 741.313 582.107 740.885 581.755C740.458 581.402 740.201 580.965 740.126 580.474C740.052 579.983 740.169 579.545 740.49 579.193C740.81 578.841 741.238 578.66 741.762 578.66C742.285 578.66 742.766 578.841 743.194 579.193C743.621 579.545 743.878 579.972 743.952 580.474C744.027 580.976 743.91 581.402 743.589 581.755C743.258 582.117 742.841 582.288 742.317 582.288ZM744.081 602.661L741.388 585.202H744.07L746.763 602.661H744.081Z" fill="white"/>
<path d="M758.369 603.035C756.734 603.035 755.26 602.651 753.956 601.872C752.652 601.103 751.573 600.036 750.728 598.681C749.884 597.325 749.329 595.778 749.051 594.028C748.773 592.256 748.869 590.687 749.307 589.321C749.756 587.955 750.504 586.899 751.573 586.13C752.631 585.362 753.956 584.978 755.537 584.978C756.766 584.978 757.91 585.202 758.968 585.661C760.026 586.119 760.934 586.749 761.682 587.571C762.441 588.393 762.975 589.342 763.296 590.431H760.614C760.282 589.631 759.727 588.926 758.925 588.307C758.124 587.688 757.14 587.379 755.954 587.379C754.907 587.379 754.031 587.646 753.325 588.19C752.62 588.734 752.128 589.492 751.84 590.474C751.551 591.456 751.519 592.608 751.712 593.921C751.925 595.266 752.321 596.45 752.898 597.443C753.486 598.446 754.212 599.225 755.078 599.769C755.944 600.324 756.916 600.602 757.974 600.602C758.669 600.602 759.289 600.484 759.823 600.239C760.357 599.993 760.785 599.652 761.105 599.193C761.426 598.734 761.629 598.19 761.693 597.56H764.375C764.386 598.595 764.151 599.513 763.681 600.335C763.211 601.157 762.527 601.808 761.629 602.288C760.753 602.79 759.663 603.035 758.369 603.035Z" fill="white"/>
<path d="M778.481 602.661H775.521L780.49 579.375H783.408L795.559 602.661H792.598L782.606 583.056H782.425L778.481 602.661ZM778.171 593.569H790.108L790.493 596.066H778.556L778.171 593.569Z" fill="white"/>
<path d="M798.722 602.661L795.131 579.375H803.007C804.835 579.375 806.384 579.705 807.645 580.356C808.906 581.018 809.911 581.893 810.648 583.014C811.386 584.124 811.856 585.372 812.07 586.738C812.284 588.115 812.198 589.353 811.813 590.474C811.429 591.594 810.702 592.491 809.644 593.152C808.586 593.814 807.143 594.145 805.337 594.145H799.694L799.31 591.648H804.867C806.117 591.648 807.09 591.434 807.784 590.997C808.479 590.57 808.939 589.983 809.174 589.236C809.409 588.489 809.451 587.656 809.302 586.728C809.163 585.799 808.853 584.967 808.394 584.23C807.934 583.494 807.293 582.918 806.459 582.501C805.626 582.085 804.578 581.872 803.307 581.872H798.348L801.554 602.651H798.722V602.661Z" fill="white"/>
<path d="M817.83 579.385L821.421 602.672H818.6L815.009 579.385H817.83Z" fill="white"/>
<path d="M836.521 589.118L834.212 589.801C833.999 589.396 833.721 589.012 833.368 588.627C833.016 588.243 832.567 587.934 832.032 587.678C831.498 587.422 830.835 587.304 830.045 587.304C828.976 587.304 828.121 587.55 827.49 588.04C826.86 588.531 826.593 589.15 826.71 589.897C826.817 590.559 827.138 591.093 827.683 591.477C828.228 591.861 829.04 592.181 830.109 592.448L832.802 593.088C834.426 593.462 835.677 594.049 836.564 594.817C837.451 595.596 837.985 596.589 838.177 597.816C838.327 598.819 838.177 599.716 837.728 600.495C837.28 601.285 836.574 601.904 835.623 602.363C834.672 602.822 833.507 603.046 832.15 603.046C830.365 603.046 828.826 602.661 827.544 601.882C826.261 601.103 825.342 599.983 824.797 598.499L827.245 597.859C827.629 598.798 828.206 599.502 828.955 599.972C829.703 600.442 830.632 600.676 831.733 600.676C832.983 600.676 833.935 600.41 834.597 599.876C835.26 599.342 835.527 598.702 835.409 597.944C835.313 597.336 835.025 596.834 834.533 596.418C834.041 596.002 833.347 595.693 832.428 595.49L829.403 594.807C827.747 594.423 826.475 593.835 825.61 593.035C824.744 592.235 824.21 591.232 824.028 590.026C823.878 589.044 824.017 588.169 824.466 587.411C824.904 586.653 825.578 586.055 826.475 585.629C827.373 585.202 828.442 584.978 829.671 584.978C831.402 584.978 832.823 585.362 833.924 586.119C835.025 586.877 835.912 587.87 836.521 589.118Z" fill="white"/>
</g>
<defs>
<linearGradient id="paint0_linear" x1="420.057" y1="803.293" x2="620.677" y2="549.066" gradientUnits="userSpaceOnUse">
<stop stop-color="#EA4961"/>
<stop offset="0.890523" stop-color="#7F52FF"/>
</linearGradient>
<clipPath id="clip0">
<rect width="1005.54" height="744" fill="white" transform="translate(217)"/>
</clipPath>
</defs>
</svg>
