<?xml version="1.0" encoding="utf-8"?>
<!-- Generator: Adobe Illustrator 24.1.2, SVG Export Plug-In . SVG Version: 6.00 Build 0)  -->
<svg version="1.1" id="Layer_1" xmlns="http://www.w3.org/2000/svg" xmlns:xlink="http://www.w3.org/1999/xlink" x="0px" y="0px"
	 viewBox="0 0 1480 1096" style="enable-background:new 0 0 1480 1096;" xml:space="preserve">
<style type="text/css">
	.st0{fill:url(#SVGID_1_);}
	.st1{fill:#FFFFFF;}
	.st2{fill:#777A80;}
	.st3{fill:#F4F4F4;}
	.st4{fill-rule:evenodd;clip-rule:evenodd;fill:#27282C;}
	.st5{fill:#27282C;}
</style>
<g>
	
		<radialGradient id="SVGID_1_" cx="89.0049" cy="-38.5871" r="1072.179" gradientTransform="matrix(0.9943 0 0 -0.9943 55.2104 1034.2856)" gradientUnits="userSpaceOnUse">
		<stop  offset="0" style="stop-color:#E44857"/>
		<stop  offset="0.2427" style="stop-color:#BA4C9C"/>
		<stop  offset="0.4535" style="stop-color:#9A4FD2"/>
		<stop  offset="0.6108" style="stop-color:#8651F3"/>
		<stop  offset="0.6969" style="stop-color:#7F52FF"/>
	</radialGradient>
	<path class="st0" d="M452.9,1069.7c2.1,13.4-8.2,25.5-21.7,25.5H131.5c-10.8,0-20-7.9-21.7-18.5L65.2,798.4
		c-2.1-13.4,8.2-25.5,21.7-25.5h299.8c10.8,0,20,7.9,21.7,18.5L452.9,1069.7z M802.3,1069.6l-44.8-278.3
		c-1.7-10.7-10.9-18.5-21.7-18.5h-298c-13.5,0-23.9,12.1-21.7,25.5l44.5,278.3c1.7,10.7,10.9,18.5,21.7,18.5h298.3
		C794.1,1095.1,804.4,1083,802.3,1069.6z M1077.1,766.2c13.5,0,23.9-12.1,21.7-25.5l-44.7-278.2c-1.7-10.7-10.9-18.5-21.7-18.5H33.8
		c-13.6,0-23.9,12.1-21.7,25.5l45,278.2c1.7,10.7,10.9,18.5,21.7,18.5H1077.1z M1151.7,1069.6l-44.8-278.3
		c-1.7-10.7-10.9-18.5-21.7-18.5h-298c-13.5,0-23.9,12.1-21.7,25.5l44.5,278.3c1.7,10.7,10.9,18.5,21.7,18.5H1130
		C1143.5,1095.1,1153.8,1083,1151.7,1069.6z"/>
	<g>
		<g>
			<path class="st1" d="M59,515.9h-4.3l6.6-32.6h4.9l17.6,32.6h-4.1l-4.6-8.7H60.5L59,515.9z M64,488.4l-2.8,15.5h12.1l-8.2-15.5
				l-0.9-1.9L64,488.4z"/>
			<path class="st1" d="M102.4,493.1c1.9,1.1,3.6,2.6,4.9,4.5s2.2,4,2.5,6.4c0.4,2.3,0.2,4.5-0.5,6.4c-0.7,1.9-1.8,3.4-3.4,4.5
				s-3.5,1.6-5.7,1.6c-1.8,0-3.6-0.4-5.2-1.2s-3-1.9-4.1-3.4l0.2,1.5l1.7,10h-3.7l-5-31.3h3.6l0.6,4c0.7-1.5,1.7-2.6,3.1-3.4
				c1.3-0.8,2.9-1.2,4.8-1.2C98.4,491.5,100.4,492,102.4,493.1z M103.2,511.9c1.1-0.8,1.9-1.9,2.3-3.3c0.5-1.4,0.6-2.9,0.3-4.7
				c-0.3-1.7-0.9-3.3-1.8-4.7c-0.9-1.4-2-2.5-3.4-3.3c-1.3-0.8-2.8-1.2-4.3-1.2s-2.9,0.4-4,1.2c-1.1,0.8-1.9,1.9-2.4,3.3
				s-0.6,2.9-0.3,4.7c0.3,1.7,0.9,3.3,1.8,4.7c0.9,1.4,2.1,2.5,3.4,3.3c1.4,0.8,2.8,1.2,4.3,1.2
				C100.8,513.1,102.1,512.7,103.2,511.9z"/>
			<path class="st1" d="M131.4,493.1c1.9,1.1,3.6,2.6,4.9,4.5c1.3,1.9,2.2,4,2.5,6.4c0.4,2.3,0.2,4.5-0.5,6.4
				c-0.7,1.9-1.8,3.4-3.4,4.5c-1.6,1.1-3.5,1.6-5.7,1.6c-1.8,0-3.6-0.4-5.2-1.2s-3-1.9-4.1-3.4l0.2,1.5l1.7,10h-3.7l-5-31.3h3.6
				l0.6,4c0.7-1.5,1.7-2.6,3.1-3.4c1.3-0.8,2.9-1.2,4.8-1.2C127.4,491.5,129.4,492,131.4,493.1z M132.2,511.9
				c1.1-0.8,1.9-1.9,2.3-3.3c0.5-1.4,0.6-2.9,0.3-4.7c-0.3-1.7-0.9-3.3-1.8-4.7c-0.9-1.4-2-2.5-3.4-3.3c-1.3-0.8-2.8-1.2-4.3-1.2
				s-2.9,0.4-4,1.2c-1.1,0.8-1.9,1.9-2.4,3.3s-0.6,2.9-0.3,4.7c0.3,1.7,0.9,3.3,1.8,4.7c0.9,1.4,2.1,2.5,3.4,3.3
				c1.4,0.8,2.8,1.2,4.3,1.2C129.8,513.1,131.1,512.7,132.2,511.9z"/>
			<path class="st1" d="M149.7,515.9h-3.8l-5.2-32.6h3.8L149.7,515.9z"/>
			<path class="st1" d="M152.1,487.7l-0.7-4.4h4.3l0.7,4.4H152.1z M160.6,515.9h-3.8l-3.8-23.8h3.8L160.6,515.9z"/>
			<path class="st1" d="M171.5,514.8c-2-1.1-3.7-2.6-5-4.5c-1.3-1.9-2.2-4-2.6-6.4c-0.4-2.3-0.2-4.5,0.5-6.4s1.9-3.4,3.6-4.5
				c1.7-1.1,3.6-1.6,5.9-1.6c1.9,0,3.8,0.4,5.6,1.1c1.8,0.8,3.2,1.8,4.5,3.1c1.2,1.3,2,2.8,2.5,4.5h-3.8c-0.4-1-0.9-1.9-1.8-2.8
				c-0.8-0.8-1.8-1.5-2.9-1.9c-1.1-0.5-2.3-0.7-3.5-0.7c-1.5,0-2.9,0.4-4,1.2c-1.1,0.8-1.9,1.9-2.4,3.3s-0.6,3-0.3,4.7
				s0.9,3.3,1.8,4.7c0.9,1.4,2.1,2.5,3.4,3.3c1.4,0.8,2.8,1.2,4.3,1.2c1.2,0,2.3-0.2,3.3-0.7c1-0.4,1.7-1.1,2.3-1.9s0.9-1.7,0.9-2.6
				h3.8c0.1,1.6-0.2,3-1,4.3s-2,2.3-3.5,3s-3.3,1.1-5.2,1.1C175.7,516.5,173.6,515.9,171.5,514.8z"/>
			<path class="st1" d="M204.3,492.5c1.5,0.7,2.7,1.6,3.7,2.9s1.6,2.8,1.9,4.5l2.6,16h-3.7l-0.6-3.5c-0.5,1.3-1.4,2.4-2.7,3
				s-2.8,1-4.8,1c-1.6,0-3-0.3-4.4-0.9c-1.3-0.6-2.4-1.4-3.3-2.4c-0.9-1-1.4-2.2-1.6-3.6c-0.2-1.2-0.1-2.4,0.4-3.4s1.2-1.9,2.2-2.6
				s2.2-1.1,3.6-1.2l6.9-0.7c0.5,0,0.9-0.3,1.1-0.7c0.2-0.4,0.3-0.9,0.2-1.7c-0.2-0.9-0.5-1.8-1.1-2.5s-1.3-1.3-2.2-1.7
				c-0.9-0.4-1.9-0.6-3-0.6s-2,0.2-2.8,0.5c-0.8,0.4-1.5,0.8-1.9,1.5c-0.4,0.6-0.7,1.3-0.6,2h-3.7c-0.1-1.3,0.3-2.5,1-3.6
				s1.7-2,3.1-2.6c1.3-0.6,2.9-1,4.6-1C201.2,491.5,202.9,491.8,204.3,492.5z M204.7,512.7c1-0.6,1.8-1.3,2.2-2.3
				c0.5-1,0.6-2.1,0.4-3.4l-0.4-2.7l-8.1,0.8c-1.2,0.1-2.2,0.6-2.8,1.4s-0.9,1.8-0.7,2.9c0.1,0.8,0.5,1.5,1,2.2
				c0.5,0.6,1.2,1.1,2,1.5c0.8,0.4,1.7,0.5,2.7,0.5C202.4,513.5,203.6,513.3,204.7,512.7z"/>
			<path class="st1" d="M225.5,515.9c-1.7,0-3.2-0.5-4.4-1.4s-1.9-2.2-2.1-3.8l-2.5-15.4h-4.2l-0.5-3.3h2.6c0.6,0,1-0.2,1.4-0.6
				c0.3-0.4,0.4-0.8,0.3-1.4l-0.6-4h3.4l1,6h5.8l0.5,3.3h-5.8l2.5,15.1c0.1,0.7,0.4,1.2,0.8,1.5c0.4,0.4,1,0.6,1.6,0.6h3.7l0.5,3.3
				h-4V515.9z"/>
			<path class="st1" d="M230,487.7l-0.7-4.4h4.3l0.7,4.4H230z M238.6,515.9h-3.8l-3.8-23.8h3.8L238.6,515.9z"/>
			<path class="st1" d="M249.5,514.8c-2-1.1-3.7-2.6-5.1-4.5c-1.4-1.9-2.2-4-2.6-6.4c-0.4-2.4-0.2-4.5,0.5-6.4s2-3.4,3.6-4.5
				c1.7-1.1,3.7-1.6,6-1.6s4.5,0.5,6.5,1.6s3.7,2.6,5.1,4.5s2.2,4,2.6,6.4s0.2,4.5-0.6,6.4c-0.8,1.9-2,3.4-3.7,4.5s-3.7,1.6-6,1.6
				C253.7,516.5,251.5,515.9,249.5,514.8z M259.5,511.9c1.1-0.8,1.9-1.8,2.4-3.2c0.5-1.4,0.6-2.9,0.3-4.7c-0.3-1.8-0.9-3.4-1.8-4.7
				c-0.9-1.4-2.1-2.4-3.4-3.2c-1.4-0.8-2.8-1.1-4.4-1.1c-1.6,0-2.9,0.4-4,1.1c-1.1,0.8-1.9,1.8-2.4,3.2c-0.5,1.4-0.6,3-0.3,4.7
				c0.3,1.8,0.9,3.4,1.8,4.7c0.9,1.4,2.1,2.4,3.4,3.2c1.4,0.8,2.8,1.1,4.4,1.1C257,513,258.4,512.6,259.5,511.9z"/>
			<path class="st1" d="M285.6,492.7c1.5,0.8,2.7,1.9,3.6,3.3s1.6,3.1,1.9,4.9l2.4,15h-3.8l-2.4-14.8c-0.3-2-1.1-3.6-2.4-4.8
				c-1.2-1.1-2.8-1.7-4.7-1.7c-1.4,0-2.5,0.3-3.4,0.9s-1.6,1.4-2,2.4c-0.4,1.1-0.5,2.3-0.2,3.7l2.5,14.3h-3.8l-3.8-23.8h3.6l0.6,3.7
				c0.5-1.4,1.4-2.4,2.6-3.2c1.2-0.7,2.7-1.1,4.4-1.1C282.5,491.5,284.2,491.9,285.6,492.7z"/>
			<path class="st1" d="M68.3,557.8h-3.8l-5.2-32.6h3.8L68.3,557.8z"/>
			<path class="st1" d="M79.2,556.7c-2-1.1-3.7-2.6-5.1-4.5s-2.2-4-2.6-6.4s-0.2-4.5,0.5-6.4s2-3.4,3.6-4.5c1.7-1.1,3.7-1.6,6-1.6
				s4.5,0.5,6.5,1.6s3.7,2.6,5.1,4.5s2.2,4,2.6,6.4s0.2,4.5-0.6,6.4c-0.8,1.9-2,3.4-3.7,4.5s-3.7,1.6-6,1.6
				C83.4,558.3,81.2,557.8,79.2,556.7z M89.2,553.8c1.1-0.8,1.9-1.8,2.4-3.2s0.6-2.9,0.3-4.7c-0.3-1.8-0.9-3.4-1.8-4.7
				c-0.9-1.4-2.1-2.4-3.4-3.2c-1.4-0.8-2.8-1.1-4.4-1.1s-2.9,0.4-4,1.1c-1.1,0.8-1.9,1.8-2.4,3.2s-0.6,3-0.3,4.7
				c0.3,1.8,0.9,3.4,1.8,4.7c0.9,1.4,2.1,2.4,3.4,3.2c1.4,0.8,2.8,1.1,4.4,1.1C86.7,554.9,88.1,554.5,89.2,553.8z"/>
			<path class="st1" d="M116.4,534h3.6l3.5,21.9c0.3,2.1,0.2,3.8-0.5,5.3c-0.6,1.5-1.7,2.6-3.3,3.4c-1.5,0.8-3.4,1.2-5.7,1.2
				c-2.1,0-3.9-0.3-5.7-1c-1.7-0.7-3.2-1.6-4.3-2.8s-1.9-2.6-2.4-4.2h3.8c0.4,0.9,0.9,1.8,1.7,2.5c0.8,0.7,1.7,1.3,2.8,1.7
				c1.1,0.4,2.3,0.6,3.5,0.6c2.2,0,3.9-0.6,5-1.8s1.5-2.8,1.1-4.9l-0.3-1.7l-0.3-2.4c-0.7,1.3-1.7,2.3-3,2.9c-1.3,0.7-2.8,1-4.5,1
				c-2,0-3.9-0.5-5.7-1.4c-1.8-0.9-3.2-2.3-4.4-4c-1.2-1.7-1.9-3.6-2.3-5.8c-0.3-2.2-0.2-4.1,0.4-5.8s1.7-3,3.1-4
				c1.5-0.9,3.2-1.4,5.2-1.4c1.8,0,3.4,0.4,5,1.1c1.5,0.7,2.9,1.7,4,3.1L116.4,534z M115.5,551.5c1-0.7,1.8-1.6,2.2-2.8
				c0.4-1.2,0.5-2.6,0.3-4.1s-0.8-2.9-1.6-4.1c-0.8-1.2-1.9-2.1-3.1-2.8s-2.6-1-4-1s-2.6,0.3-3.7,1c-1,0.7-1.7,1.6-2.1,2.8
				s-0.5,2.6-0.3,4.1c0.3,1.6,0.8,2.9,1.6,4.1c0.8,1.2,1.8,2.1,3,2.8s2.5,1,4,1C113.2,552.5,114.4,552.2,115.5,551.5z"/>
			<path class="st1" d="M126,529.6l-0.7-4.4h4.3l0.7,4.4H126z M134.6,557.8h-3.8L127,534h3.8L134.6,557.8z"/>
			<path class="st1" d="M145.5,556.7c-2-1.1-3.7-2.6-5-4.5c-1.4-1.9-2.2-4-2.6-6.4s-0.2-4.5,0.5-6.4s1.9-3.4,3.6-4.5
				c1.7-1.1,3.6-1.6,5.9-1.6c1.9,0,3.8,0.4,5.6,1.1c1.8,0.8,3.2,1.8,4.5,3.1c1.2,1.3,2.1,2.8,2.5,4.5h-3.8c-0.4-1-0.9-1.9-1.8-2.8
				c-0.8-0.8-1.8-1.5-2.9-1.9c-1.1-0.5-2.3-0.7-3.5-0.7c-1.5,0-2.9,0.4-4,1.2s-1.9,1.9-2.4,3.3c-0.5,1.4-0.6,3-0.3,4.7
				s0.9,3.3,1.8,4.7c0.9,1.4,2.1,2.5,3.4,3.3c1.4,0.8,2.8,1.2,4.3,1.2c1.2,0,2.3-0.2,3.3-0.7c1-0.4,1.7-1.1,2.3-1.9
				c0.6-0.8,0.9-1.7,0.9-2.6h3.8c0.1,1.6-0.2,3-1,4.3s-2,2.3-3.5,3s-3.3,1.1-5.2,1.1C149.6,558.3,147.5,557.8,145.5,556.7z"/>
		</g>
	</g>
	<g>
		<g>
			<path class="st2" d="M11.7,402.8c-1.8-0.8-3.1-2-4.1-3.5s-1.5-3.2-1.5-5.1h4c0,1.2,0.3,2.3,1,3.3s1.5,1.7,2.7,2.2
				s2.5,0.8,3.9,0.8c1.5,0,2.8-0.3,3.9-0.8s2-1.2,2.6-2.1s0.9-2,0.9-3.1c0-1.4-0.4-2.6-1.3-3.6s-2.1-1.6-3.6-1.9l-5.8-1.1
				c-1.6-0.3-2.9-0.9-4-1.7c-1.1-0.8-2-1.9-2.6-3.1s-0.9-2.6-0.9-4.1c0-1.8,0.5-3.3,1.4-4.7c0.9-1.4,2.2-2.4,3.8-3.2
				c1.6-0.8,3.5-1.2,5.5-1.2c2.1,0,4,0.4,5.6,1.2c1.6,0.8,2.9,1.9,3.8,3.2s1.4,3,1.4,4.7h-4c0-1.1-0.3-2-0.9-2.9
				c-0.6-0.8-1.4-1.5-2.4-2s-2.2-0.7-3.5-0.7s-2.5,0.2-3.5,0.7s-1.8,1.1-2.4,2c-0.6,0.8-0.9,1.8-0.9,2.9c0,1.3,0.4,2.4,1.2,3.3
				s1.9,1.5,3.3,1.8l6.1,1.2c1.5,0.3,2.8,0.9,4,1.8s2.1,1.9,2.7,3.2c0.7,1.3,1,2.6,1,4.1c0,1.9-0.5,3.5-1.5,5
				c-1,1.4-2.3,2.6-4.1,3.4c-1.8,0.8-3.7,1.2-5.9,1.2C15.5,404,13.5,403.6,11.7,402.8z"/>
			<path class="st2" d="M51.3,379.9c1.3,0.8,2.4,1.9,3.1,3.3c0.7,1.4,1.1,3.1,1.1,5v15.2h-3.8v-15.1c0-2-0.5-3.6-1.5-4.7
				s-2.5-1.7-4.3-1.7c-1.4,0-2.6,0.3-3.7,1c-1,0.6-1.8,1.5-2.4,2.7c-0.6,1.2-0.8,2.5-0.8,4.1v13.7h-3.8v-33H39v7.8l-0.1,4.8
				c0.8-1.4,1.8-2.4,3.1-3.2c1.3-0.7,2.9-1.1,4.6-1.1C48.4,378.8,50,379.1,51.3,379.9z"/>
			<path class="st2" d="M76.1,379.8c1.4,0.7,2.4,1.6,3.2,2.9c0.8,1.3,1.1,2.8,1.1,4.6v16.2h-3.7v-3.6c-0.7,1.4-1.8,2.4-3.2,3.1
				c-1.4,0.7-3,1.1-4.9,1.1c-1.6,0-3-0.3-4.2-0.9c-1.2-0.6-2.2-1.4-2.9-2.5s-1-2.3-1-3.6c0-1.3,0.3-2.4,1-3.5s1.5-1.9,2.6-2.6
				s2.4-1.1,3.8-1.2l7-0.7c0.5,0,0.9-0.3,1.2-0.7c0.3-0.4,0.5-1,0.5-1.7c0-1-0.2-1.8-0.7-2.5s-1.1-1.3-1.9-1.7
				c-0.8-0.4-1.8-0.6-2.9-0.6s-2,0.2-2.9,0.5c-0.9,0.4-1.6,0.9-2.1,1.5c-0.6,0.6-0.9,1.3-1,2.1h-3.7c0.1-1.3,0.7-2.6,1.6-3.7
				c0.9-1.1,2.1-2,3.5-2.6c1.4-0.6,3-1,4.7-1C73.1,378.8,74.7,379.1,76.1,379.8z M73.1,400.2c1.1-0.6,2-1.3,2.6-2.4
				c0.6-1,0.9-2.2,0.9-3.5v-2.7l-8.2,0.8c-1.3,0.1-2.3,0.6-3,1.4s-1.2,1.8-1.2,2.9c0,0.8,0.2,1.5,0.6,2.2c0.4,0.6,1,1.1,1.8,1.5
				s1.6,0.5,2.6,0.5C70.7,401.1,72,400.8,73.1,400.2z"/>
			<path class="st2" d="M98.7,379.1v3.9h-0.9c-2.2,0-3.9,0.7-5.2,2c-1.3,1.3-1.9,3.2-1.9,5.6v12.9h-3.8v-24.1h3.8v4.9
				c0.7-1.6,1.6-2.9,2.8-3.8c1.2-0.9,2.7-1.3,4.4-1.3h0.8V379.1z"/>
			<path class="st2" d="M123.8,392.3h-19.1c0.1,1.6,0.6,3.1,1.3,4.4c0.7,1.3,1.7,2.3,2.9,3s2.5,1.1,4,1.1c1,0,2-0.2,2.9-0.5
				s1.7-0.8,2.4-1.3c0.7-0.6,1.2-1.2,1.5-1.9h3.6c-0.3,1.3-0.9,2.5-1.9,3.6s-2.3,1.9-3.8,2.5s-3.2,0.9-4.9,0.9
				c-2.3,0-4.3-0.5-6.1-1.6c-1.8-1.1-3.2-2.6-4.2-4.5s-1.5-4.1-1.5-6.5s0.5-4.5,1.5-6.4s2.4-3.4,4.2-4.5c1.8-1.1,3.8-1.6,6.1-1.6
				c2.1,0,4.1,0.5,5.8,1.6c1.7,1.1,3,2.6,4,4.5s1.4,4.1,1.4,6.5v0.7H123.8z M107.4,384c-1.4,1.3-2.3,3-2.6,5.2h15.1
				c-0.3-2.2-1.1-3.9-2.4-5.2c-1.3-1.3-2.9-1.9-4.8-1.9C110.6,382.1,108.8,382.7,107.4,384z"/>
			<path class="st2" d="M150.9,379.3L150.9,379.3v24.1h-3.6v-4.1c-0.9,1.5-2.1,2.6-3.6,3.4s-3.1,1.2-5,1.2c-2.2,0-4.2-0.5-5.9-1.6
				c-1.8-1.1-3.2-2.6-4.2-4.5c-1-1.9-1.5-4.1-1.5-6.4s0.5-4.5,1.5-6.4c1-1.9,2.4-3.4,4.2-4.5s3.8-1.7,5.9-1.7c1.8,0,3.5,0.4,5,1.2
				c1.5,0.8,2.7,1.9,3.6,3.4l-0.1-12.9h3.8L150.9,379.3L150.9,379.3z M143.2,399.4c1.2-0.8,2.2-1.9,2.9-3.3s1-3,1-4.7
				s-0.3-3.3-1-4.7c-0.7-1.4-1.7-2.5-2.9-3.3s-2.6-1.2-4.2-1.2c-1.5,0-2.9,0.4-4.1,1.2c-1.2,0.8-2.2,1.9-2.9,3.3s-1,3-1,4.7
				s0.3,3.3,1,4.7c0.7,1.4,1.6,2.5,2.9,3.3c1.2,0.8,2.6,1.2,4.1,1.2C140.6,400.6,142,400.2,143.2,399.4z"/>
			<path class="st2" d="M173.7,401.8c-2.5-1.5-4.4-3.5-5.8-6.1c-1.4-2.6-2.1-5.5-2.1-8.7s0.7-6.1,2.1-8.7s3.3-4.6,5.8-6.1
				s5.2-2.2,8.2-2.2c2.5,0,4.8,0.5,7,1.6s3.9,2.5,5.3,4.3c1.4,1.8,2.2,3.7,2.5,5.7h-3.9c-0.3-1.4-1-2.7-2-3.9
				c-1.1-1.2-2.4-2.2-3.9-3c-1.6-0.7-3.2-1.1-5-1.1c-2.3,0-4.4,0.6-6.2,1.7c-1.8,1.2-3.3,2.8-4.3,4.8c-1,2.1-1.6,4.4-1.6,6.9
				c0,2.6,0.5,4.9,1.6,6.9c1,2,2.5,3.7,4.3,4.8c1.8,1.2,3.9,1.7,6.2,1.7c1.8,0,3.4-0.4,5-1.1s2.9-1.7,3.9-3c1.1-1.2,1.7-2.5,2-3.9
				h3.9c-0.3,2-1.1,4-2.5,5.7c-1.4,1.8-3.2,3.2-5.3,4.3c-2.2,1.1-4.5,1.6-7,1.6C178.9,404,176.2,403.3,173.7,401.8z"/>
			<path class="st2" d="M206.4,402.4c-1.8-1.1-3.3-2.6-4.3-4.5c-1.1-1.9-1.6-4.1-1.6-6.5s0.5-4.6,1.6-6.5s2.5-3.4,4.4-4.5
				s3.9-1.6,6.2-1.6s4.4,0.5,6.2,1.6c1.9,1.1,3.3,2.6,4.4,4.5c1.1,1.9,1.6,4.1,1.6,6.5s-0.5,4.6-1.6,6.5s-2.5,3.4-4.4,4.5
				s-3.9,1.6-6.2,1.6C210.3,404,208.2,403.5,206.4,402.4z M216.8,399.4c1.2-0.8,2.2-1.8,2.9-3.2c0.7-1.4,1.1-3,1.1-4.8
				s-0.4-3.4-1.1-4.8c-0.7-1.4-1.7-2.5-2.9-3.2c-1.2-0.8-2.6-1.1-4.2-1.1c-1.6,0-3,0.4-4.2,1.1c-1.2,0.8-2.2,1.8-2.9,3.2
				c-0.7,1.4-1.1,3-1.1,4.8s0.4,3.4,1.1,4.8c0.7,1.4,1.7,2.5,2.9,3.2c1.2,0.8,2.6,1.1,4.2,1.1C214.2,400.5,215.6,400.2,216.8,399.4z
				"/>
			<path class="st2" d="M251.8,379.3L251.8,379.3v24.1h-3.6v-4.1c-0.9,1.5-2.1,2.6-3.6,3.4s-3.1,1.2-5,1.2c-2.2,0-4.2-0.5-5.9-1.6
				c-1.8-1.1-3.2-2.6-4.2-4.5s-1.5-4.1-1.5-6.4s0.5-4.5,1.5-6.4s2.4-3.4,4.2-4.5s3.8-1.7,5.9-1.7c1.8,0,3.5,0.4,5,1.2
				c1.5,0.8,2.7,1.9,3.6,3.4l-0.1-12.9h3.8L251.8,379.3L251.8,379.3z M244.1,399.4c1.2-0.8,2.2-1.9,2.9-3.3s1-3,1-4.7
				s-0.3-3.3-1-4.7c-0.7-1.4-1.7-2.5-2.9-3.3s-2.6-1.2-4.2-1.2c-1.5,0-2.9,0.4-4.1,1.2c-1.2,0.8-2.2,1.9-2.9,3.3s-1,3-1,4.7
				s0.3,3.3,1,4.7c0.7,1.4,1.6,2.5,2.9,3.3c1.2,0.8,2.6,1.2,4.1,1.2C241.5,400.6,242.9,400.2,244.1,399.4z"/>
			<path class="st2" d="M279.8,392.3h-19.1c0.1,1.6,0.6,3.1,1.3,4.4c0.7,1.3,1.7,2.3,2.8,3c1.2,0.7,2.5,1.1,4,1.1c1,0,2-0.2,2.9-0.5
				s1.7-0.8,2.4-1.3c0.7-0.6,1.2-1.2,1.5-1.9h3.6c-0.3,1.3-0.9,2.5-1.9,3.6s-2.3,1.9-3.8,2.5s-3.2,0.9-4.9,0.9
				c-2.3,0-4.3-0.5-6.1-1.6c-1.8-1.1-3.2-2.6-4.2-4.5s-1.5-4.1-1.5-6.5s0.5-4.5,1.5-6.4s2.4-3.4,4.2-4.5c1.8-1.1,3.8-1.6,6.1-1.6
				c2.1,0,4.1,0.5,5.8,1.6s3,2.6,4,4.5s1.4,4.1,1.4,6.5L279.8,392.3L279.8,392.3z M263.4,384c-1.4,1.3-2.3,3-2.6,5.2h15.1
				c-0.3-2.2-1.1-3.9-2.4-5.2c-1.3-1.3-2.9-1.9-4.8-1.9C266.6,382.1,264.8,382.7,263.4,384z"/>
		</g>
	</g>
	<g>
		<g>
			<path class="st2" d="M332.4,1.2L349.9,28V1.2h3.9v33h-4.2L332.2,7.4v26.8h-3.9v-33C328.3,1.2,332.4,1.2,332.4,1.2z"/>
			<path class="st2" d="M375.8,10.5c1.4,0.7,2.4,1.6,3.2,2.9s1.1,2.8,1.1,4.6v16.2h-3.7v-3.6c-0.7,1.4-1.8,2.4-3.2,3.1
				c-1.4,0.7-3,1.1-4.9,1.1c-1.6,0-3-0.3-4.2-0.9c-1.2-0.6-2.2-1.4-2.9-2.5c-0.7-1.1-1-2.3-1-3.6c0-1.3,0.3-2.4,1-3.5
				c0.6-1.1,1.5-1.9,2.6-2.6s2.4-1.1,3.8-1.2l7-0.7c0.5,0,0.9-0.3,1.2-0.7c0.3-0.4,0.5-1,0.5-1.7c0-1-0.2-1.8-0.7-2.5
				s-1.1-1.3-1.9-1.7s-1.8-0.6-2.9-0.6s-2,0.2-2.9,0.5c-0.9,0.4-1.6,0.9-2.1,1.5s-0.9,1.3-1,2.1h-3.7c0.1-1.3,0.7-2.6,1.6-3.7
				s2.1-2,3.5-2.6c1.4-0.6,3-1,4.7-1C372.9,9.5,374.5,9.9,375.8,10.5z M372.9,31c1.1-0.6,2-1.3,2.6-2.4c0.6-1,0.9-2.2,0.9-3.5v-2.7
				l-8.2,0.8c-1.3,0.1-2.3,0.6-3,1.4c-0.8,0.8-1.2,1.8-1.2,2.9c0,0.8,0.2,1.5,0.6,2.2c0.4,0.6,1,1.1,1.8,1.5s1.6,0.5,2.6,0.5
				C370.5,31.8,371.8,31.6,372.9,31z"/>
			<path class="st2" d="M393.2,34.2c-1.7,0-3.1-0.5-4.1-1.4c-1-0.9-1.5-2.2-1.5-3.8V13.4h-4.2v-3.3h2.6c0.6,0,1.1-0.2,1.4-0.6
				c0.4-0.4,0.6-0.9,0.6-1.4v-4h3.4v6h5.8v3.3h-5.8v15.3c0,0.7,0.2,1.2,0.6,1.6s0.9,0.6,1.5,0.6h3.7v3.3H393.2z"/>
			<path class="st2" d="M402.3,5.7V1.2h4.3v4.5H402.3z M406.3,34.2h-3.8V10.1h3.8V34.2z"/>
			<path class="st2" d="M423.8,34.2h-4l-9.4-24.1h4.1l7.4,19.7l7.3-19.7h4L423.8,34.2z"/>
			<path class="st2" d="M458.1,23.1H439c0.1,1.6,0.6,3.1,1.3,4.4c0.7,1.3,1.7,2.3,2.8,3c1.2,0.7,2.5,1.1,4,1.1c1,0,2-0.2,2.9-0.5
				s1.7-0.8,2.4-1.3c0.7-0.6,1.2-1.2,1.5-1.9h3.6c-0.3,1.3-0.9,2.5-1.9,3.6c-1,1.1-2.3,1.9-3.8,2.5s-3.2,0.9-4.9,0.9
				c-2.3,0-4.3-0.5-6.1-1.6c-1.8-1.1-3.2-2.6-4.2-4.5s-1.5-4.1-1.5-6.5s0.5-4.5,1.5-6.4s2.4-3.4,4.2-4.5c1.8-1.1,3.8-1.6,6.1-1.6
				c2.1,0,4.1,0.5,5.8,1.6s3,2.6,4,4.5s1.4,4.1,1.4,6.5L458.1,23.1L458.1,23.1z M441.7,14.8c-1.4,1.3-2.3,3-2.6,5.2h15.1
				c-0.3-2.2-1.1-3.9-2.4-5.2s-2.9-1.9-4.8-1.9C444.8,12.8,443.1,13.5,441.7,14.8z"/>
			<path class="st2" d="M478.5,32.6c-2.5-1.5-4.4-3.5-5.8-6.1s-2.1-5.5-2.1-8.7s0.7-6.1,2.1-8.7s3.3-4.6,5.8-6.1s5.2-2.2,8.2-2.2
				c2.5,0,4.8,0.5,7,1.6s3.9,2.5,5.3,4.3s2.2,3.7,2.5,5.7h-3.9c-0.3-1.4-1-2.7-2-3.9c-1.1-1.2-2.4-2.2-3.9-3c-1.6-0.7-3.2-1.1-5-1.1
				c-2.3,0-4.4,0.6-6.2,1.7c-1.8,1.2-3.3,2.8-4.3,4.8c-1,2.1-1.6,4.4-1.6,6.9c0,2.6,0.5,4.9,1.6,6.9c1,2,2.5,3.7,4.3,4.8
				c1.8,1.2,3.9,1.7,6.2,1.7c1.8,0,3.4-0.4,5-1.1s2.9-1.7,3.9-3c1.1-1.2,1.7-2.5,2-3.9h3.9c-0.3,2-1.1,4-2.5,5.7
				c-1.4,1.8-3.2,3.2-5.3,4.3c-2.2,1.1-4.5,1.6-7,1.6C483.7,34.8,481,34.1,478.5,32.6z"/>
			<path class="st2" d="M511.1,33.2c-1.8-1.1-3.3-2.6-4.3-4.5s-1.6-4.1-1.6-6.5s0.5-4.6,1.6-6.5s2.5-3.4,4.4-4.5s3.9-1.6,6.2-1.6
				s4.4,0.5,6.2,1.6c1.9,1.1,3.3,2.6,4.4,4.5s1.6,4.1,1.6,6.5s-0.5,4.6-1.6,6.5s-2.5,3.4-4.4,4.5s-3.9,1.6-6.2,1.6
				C515,34.8,513,34.2,511.1,33.2z M521.6,30.2c1.2-0.8,2.2-1.8,2.9-3.2c0.7-1.4,1.1-3,1.1-4.8s-0.4-3.4-1.1-4.8
				c-0.7-1.4-1.7-2.5-2.9-3.2c-1.2-0.8-2.6-1.1-4.2-1.1c-1.6,0-3,0.4-4.2,1.1c-1.2,0.8-2.2,1.8-2.9,3.2c-0.7,1.4-1.1,3-1.1,4.8
				s0.4,3.4,1.1,4.8s1.7,2.5,2.9,3.2c1.2,0.8,2.6,1.1,4.2,1.1C518.9,31.3,520.4,30.9,521.6,30.2z"/>
			<path class="st2" d="M556.6,10.1L556.6,10.1v24.1H553v-4.1c-0.9,1.5-2.1,2.6-3.6,3.4s-3.1,1.2-5,1.2c-2.2,0-4.2-0.5-5.9-1.6
				c-1.8-1.1-3.2-2.6-4.2-4.5s-1.5-4.1-1.5-6.4s0.5-4.5,1.5-6.4s2.4-3.4,4.2-4.5s3.8-1.7,5.9-1.7c1.8,0,3.5,0.4,5,1.2
				s2.7,1.9,3.6,3.4l-0.1-12.9h3.8v8.8H556.6z M548.9,30.2c1.2-0.8,2.2-1.9,2.9-3.3s1-3,1-4.7s-0.3-3.3-1-4.7
				c-0.7-1.4-1.7-2.5-2.9-3.3s-2.6-1.2-4.2-1.2c-1.5,0-2.9,0.4-4.1,1.2c-1.2,0.8-2.2,1.9-2.9,3.3s-1,3-1,4.7s0.3,3.3,1,4.7
				c0.7,1.4,1.6,2.5,2.9,3.3c1.2,0.8,2.6,1.2,4.1,1.2C546.3,31.4,547.7,31,548.9,30.2z"/>
			<path class="st2" d="M584.6,23.1h-19.1c0.1,1.6,0.6,3.1,1.3,4.4s1.7,2.3,2.8,3c1.2,0.7,2.5,1.1,4,1.1c1,0,2-0.2,2.9-0.5
				s1.7-0.8,2.4-1.3c0.7-0.6,1.2-1.2,1.5-1.9h3.6c-0.3,1.3-0.9,2.5-1.9,3.6c-1,1.1-2.3,1.9-3.8,2.5s-3.2,0.9-4.9,0.9
				c-2.3,0-4.3-0.5-6.1-1.6s-3.2-2.6-4.2-4.5s-1.5-4.1-1.5-6.5s0.5-4.5,1.5-6.4s2.4-3.4,4.2-4.5s3.8-1.6,6.1-1.6
				c2.1,0,4.1,0.5,5.8,1.6s3,2.6,4,4.5s1.4,4.1,1.4,6.5V23.1z M568.2,14.8c-1.4,1.3-2.3,3-2.6,5.2h15.1c-0.3-2.2-1.1-3.9-2.4-5.2
				c-1.3-1.3-2.9-1.9-4.8-1.9C571.3,12.8,569.6,13.5,568.2,14.8z"/>
		</g>
	</g>
	<g>
		<g>
			<path class="st1" d="M106.6,815l-0.7-4.4h4.3l0.7,4.4H106.6z M115,843.2h-3.8l-3.7-23.9h3.8L115,843.2z"/>
			<path class="st1" d="M128.5,841.6c-2.7-1.5-5-3.5-6.8-6.1s-3-5.4-3.5-8.6s-0.2-6,0.8-8.6s2.7-4.6,4.9-6.1c2.3-1.5,4.9-2.2,8-2.2
				c3,0,5.9,0.7,8.6,2.2c2.7,1.5,5,3.5,6.8,6.1s3,5.4,3.5,8.6s0.2,6-0.8,8.6s-2.7,4.6-4.9,6.1c-2.3,1.5-4.9,2.2-7.9,2.2
				C134.1,843.8,131.2,843.1,128.5,841.6z M142.6,838.5c1.7-1.1,2.9-2.7,3.7-4.8c0.7-2,0.9-4.3,0.5-6.9c-0.4-2.6-1.3-4.9-2.6-6.9
				c-1.4-2-3-3.6-5.1-4.7c-2-1.1-4.2-1.7-6.6-1.7c-2.3,0-4.3,0.6-6,1.7c-1.7,1.1-2.9,2.7-3.6,4.7c-0.8,2-0.9,4.3-0.5,6.9
				s1.3,4.9,2.6,6.9c1.4,2,3.1,3.6,5.1,4.7c2,1.1,4.2,1.7,6.5,1.7C138.9,840.3,140.9,839.7,142.6,838.5z"/>
			<path class="st1" d="M163.1,842.6c-1.9-0.8-3.4-2-4.6-3.4c-1.2-1.5-1.9-3.2-2.2-5.1h4c0.2,1.2,0.7,2.3,1.5,3.3
				c0.8,0.9,1.8,1.7,3,2.2s2.6,0.8,4.1,0.8s2.7-0.2,3.8-0.7s1.8-1.2,2.3-2.1s0.6-1.9,0.5-3.1c-0.2-1.4-0.8-2.5-1.8-3.5
				s-2.3-1.6-3.9-1.9l-6-1.1c-1.6-0.3-3-0.9-4.3-1.7s-2.3-1.9-3.1-3.1c-0.8-1.2-1.3-2.6-1.5-4c-0.3-1.7,0-3.3,0.7-4.6
				c0.7-1.4,1.8-2.4,3.3-3.2s3.3-1.1,5.3-1.1c2.1,0,4,0.4,5.8,1.2s3.2,1.8,4.3,3.2s1.8,2.9,2.1,4.7h-4c-0.2-1.1-0.6-2-1.3-2.9
				c-0.7-0.8-1.6-1.5-2.7-2c-1.1-0.5-2.3-0.7-3.6-0.7s-2.4,0.2-3.4,0.7s-1.7,1.1-2.1,2s-0.6,1.8-0.4,2.9c0.2,1.3,0.8,2.4,1.7,3.3
				c0.9,0.9,2.1,1.5,3.6,1.8l6.2,1.2c1.6,0.3,3,0.9,4.3,1.7c1.3,0.9,2.4,1.9,3.2,3.2s1.4,2.6,1.6,4.1c0.3,1.9,0,3.5-0.7,4.9
				c-0.8,1.4-2,2.5-3.6,3.3s-3.5,1.2-5.8,1.2C167,843.8,165,843.4,163.1,842.6z"/>
			<path class="st1" d="M120.4,884.8c-1.6-0.6-2.9-1.5-3.9-2.6s-1.6-2.3-1.8-3.7h3.8c0.2,0.8,0.5,1.5,1.2,2.1
				c0.6,0.6,1.4,1.1,2.4,1.5s2,0.5,3.2,0.5c1.8,0,3.1-0.4,4-1.1c0.9-0.7,1.2-1.8,1-3.1c-0.2-1-0.6-1.8-1.3-2.4
				c-0.7-0.6-1.7-1-2.9-1.2l-4.5-0.7c-2.2-0.3-3.9-1.1-5.3-2.3s-2.2-2.7-2.4-4.4c-0.2-1.3,0-2.5,0.6-3.5s1.5-1.8,2.7-2.4
				c1.2-0.6,2.7-0.9,4.4-0.9c1.7,0,3.3,0.3,4.8,0.9c1.5,0.6,2.7,1.4,3.6,2.4c1,1,1.5,2.2,1.8,3.5H128c-0.1-0.7-0.5-1.3-1-1.9
				c-0.6-0.6-1.3-1-2.1-1.3c-0.9-0.3-1.8-0.5-2.8-0.5s-1.8,0.2-2.6,0.5c-0.7,0.3-1.3,0.7-1.6,1.3c-0.4,0.5-0.5,1.2-0.4,1.9
				c0.1,0.9,0.5,1.7,1.2,2.2s1.5,0.9,2.7,1.1l4.6,0.7c2.3,0.3,4.1,1.1,5.4,2.3c1.4,1.2,2.2,2.8,2.5,4.6c0.2,1.5,0,2.7-0.5,3.8
				s-1.5,2-2.8,2.6s-2.9,0.9-4.7,0.9C123.8,885.7,122,885.4,120.4,884.8z"/>
			<path class="st1" d="M154.9,862.4c1.9,1.1,3.6,2.6,4.9,4.5c1.3,1.9,2.1,4,2.5,6.4c0.4,2.3,0.2,4.5-0.5,6.4s-1.9,3.4-3.5,4.5
				s-3.5,1.6-5.7,1.6c-1.8,0-3.6-0.4-5.2-1.2c-1.6-0.8-3-1.9-4.1-3.4l0.2,1.5l1.6,10h-3.7l-4.8-31.4h3.6l0.6,4
				c0.7-1.5,1.7-2.6,3.1-3.4c1.4-0.8,3-1.2,4.8-1.2C150.9,860.8,152.9,861.3,154.9,862.4z M155.6,881.2c1.1-0.8,1.9-1.9,2.4-3.3
				c0.5-1.4,0.6-2.9,0.3-4.7c-0.3-1.7-0.9-3.3-1.8-4.7c-0.9-1.4-2-2.5-3.4-3.3c-1.3-0.8-2.8-1.2-4.3-1.2s-2.9,0.4-4,1.2
				s-1.9,1.9-2.4,3.3c-0.5,1.4-0.6,2.9-0.3,4.7c0.3,1.7,0.9,3.3,1.8,4.7c0.9,1.4,2,2.5,3.4,3.3s2.8,1.2,4.3,1.2
				C153.2,882.4,154.5,882,155.6,881.2z"/>
			<path class="st1" d="M188.6,874.2h-19.1c0.4,1.6,1,3.1,2,4.3c0.9,1.3,2,2.2,3.3,2.9s2.7,1,4.2,1c1,0,1.9-0.2,2.8-0.5
				c0.9-0.3,1.6-0.7,2.2-1.3c0.6-0.6,1-1.2,1.2-1.9h3.6c-0.1,1.3-0.5,2.5-1.4,3.5c-0.9,1.1-2,1.9-3.5,2.5c-1.4,0.6-3,0.9-4.7,0.9
				c-2.3,0-4.4-0.5-6.4-1.6s-3.6-2.6-4.9-4.5c-1.3-1.9-2.1-4.1-2.5-6.5c-0.4-2.3-0.2-4.5,0.6-6.4c0.7-1.9,1.9-3.4,3.5-4.5
				s3.6-1.6,5.8-1.6c2.1,0,4.1,0.5,6,1.6s3.4,2.6,4.7,4.5s2.1,4,2.4,6.4L188.6,874.2z M170.9,865.9c-1.2,1.3-1.8,3-1.8,5.1h15.1
				c-0.7-2.2-1.7-3.9-3.2-5.1c-1.5-1.3-3.2-1.9-5.1-1.9C173.8,864,172.1,864.7,170.9,865.9z"/>
			<path class="st1" d="M199.3,884.1c-2-1.1-3.7-2.6-5-4.5s-2.2-4-2.5-6.4c-0.4-2.3-0.2-4.5,0.6-6.4s2-3.4,3.6-4.5
				c1.7-1.1,3.6-1.6,5.9-1.6c1.9,0,3.8,0.4,5.5,1.1c1.7,0.8,3.2,1.8,4.4,3.1s2,2.8,2.4,4.5h-3.8c-0.3-1-0.9-2-1.8-2.8
				c-0.8-0.8-1.8-1.5-2.9-1.9c-1.1-0.5-2.3-0.7-3.5-0.7c-1.5,0-2.9,0.4-4,1.2s-1.9,1.9-2.4,3.3c-0.5,1.4-0.6,3-0.3,4.7
				s0.9,3.3,1.8,4.7c0.9,1.4,2,2.5,3.4,3.3s2.8,1.2,4.3,1.2c1.2,0,2.3-0.2,3.3-0.7s1.8-1.1,2.3-1.9c0.6-0.8,0.9-1.7,0.9-2.6h3.8
				c0.1,1.6-0.2,3-1.1,4.3c-0.8,1.3-2,2.3-3.5,3s-3.3,1.1-5.2,1.1C203.5,885.7,201.3,885.2,199.3,884.1z"/>
			<path class="st1" d="M217.3,857l-0.7-4.4h4.3l0.7,4.4H217.3z M225.7,885.2h-3.8l-3.7-23.9h3.8L225.7,885.2z"/>
			<path class="st1" d="M233.9,885.2l-3.2-20.5h-4.2l-0.5-3.3h4.2l-0.6-3.6c-0.2-1.6,0.1-2.9,0.9-3.8c0.9-0.9,2.2-1.4,3.9-1.4h4.3
				l0.5,3.3h-4.1c-0.7,0-1.2,0.2-1.5,0.6c-0.3,0.4-0.4,0.9-0.3,1.5l0.5,3.4h6l0.5,3.3h-6l3.2,20.5H233.9z"/>
			<path class="st1" d="M244.3,857l-0.7-4.4h4.3l0.7,4.4H244.3z M252.7,885.2h-3.8l-3.7-23.9h3.8L252.7,885.2z"/>
			<path class="st1" d="M263.6,884.1c-2-1.1-3.7-2.6-5-4.5s-2.2-4-2.5-6.4c-0.4-2.3-0.2-4.5,0.6-6.4c0.8-1.9,2-3.4,3.6-4.5
				c1.7-1.1,3.6-1.6,5.9-1.6c1.9,0,3.8,0.4,5.5,1.1c1.7,0.8,3.2,1.8,4.4,3.1c1.2,1.3,2,2.8,2.4,4.5h-3.8c-0.3-1-0.9-2-1.8-2.8
				c-0.8-0.8-1.8-1.5-2.9-1.9c-1.1-0.5-2.3-0.7-3.5-0.7c-1.5,0-2.9,0.4-4,1.2s-1.9,1.9-2.4,3.3c-0.5,1.4-0.6,3-0.3,4.7
				c0.3,1.7,0.9,3.3,1.8,4.7s2,2.5,3.4,3.3s2.8,1.2,4.3,1.2c1.2,0,2.3-0.2,3.3-0.7s1.8-1.1,2.3-1.9s0.9-1.7,0.9-2.6h3.8
				c0.1,1.6-0.2,3-1.1,4.3c-0.8,1.3-2,2.3-3.5,3s-3.3,1.1-5.2,1.1C267.7,885.7,265.6,885.2,263.6,884.1z"/>
			<path class="st1" d="M297,885.2h-4.3l6.9-32.6h4.9l17.4,32.6h-4.1l-4.5-8.7h-14.6L297,885.2z M302.2,857.7l-2.9,15.5h12.1
				l-8-15.5l-0.9-1.9L302.2,857.7z"/>
			<path class="st1" d="M326.9,885.2l-5-32.6h13.2c2.1,0,4,0.4,5.7,1.2s3.1,1.9,4.2,3.3c1.1,1.4,1.8,3.1,2.1,5
				c0.3,1.9,0.1,3.6-0.6,5s-1.7,2.5-3.2,3.3s-3.3,1.2-5.5,1.2h-9.1l2.1,13.7h-3.9V885.2z M337.4,867.9c1.3,0,2.4-0.2,3.3-0.7
				s1.5-1.2,1.9-2s0.5-1.9,0.3-3.1c-0.2-1.2-0.6-2.2-1.3-3.1c-0.7-0.9-1.5-1.6-2.6-2c-1-0.5-2.2-0.7-3.5-0.7h-9.3l1.9,11.6H337.4z"
				/>
			<path class="st1" d="M359.7,885.2h-3.9l-5-32.6h3.9L359.7,885.2z"/>
			<path class="st1" d="M370.5,884.8c-1.6-0.6-2.9-1.5-3.9-2.6s-1.6-2.3-1.8-3.7h3.8c0.2,0.8,0.5,1.5,1.2,2.1
				c0.6,0.6,1.4,1.1,2.4,1.5c1,0.3,2,0.5,3.2,0.5c1.8,0,3.1-0.4,4-1.1c0.9-0.7,1.2-1.8,1-3.1c-0.2-1-0.6-1.8-1.3-2.4s-1.7-1-2.9-1.2
				l-4.5-0.7c-2.2-0.3-3.9-1.1-5.3-2.3s-2.2-2.7-2.4-4.4c-0.2-1.3,0-2.5,0.6-3.5s1.5-1.8,2.7-2.4c1.2-0.6,2.7-0.9,4.4-0.9
				c1.7,0,3.3,0.3,4.8,0.9s2.7,1.4,3.6,2.4c1,1,1.5,2.2,1.8,3.5h-3.8c-0.1-0.7-0.5-1.3-1-1.9c-0.6-0.6-1.3-1-2.1-1.3
				c-0.9-0.3-1.8-0.5-2.8-0.5s-1.8,0.2-2.6,0.5c-0.7,0.3-1.3,0.7-1.6,1.3c-0.4,0.5-0.5,1.2-0.4,1.9c0.1,0.9,0.5,1.7,1.2,2.2
				c0.7,0.6,1.5,0.9,2.7,1.1l4.6,0.7c2.3,0.3,4.1,1.1,5.4,2.3c1.4,1.2,2.2,2.8,2.5,4.6c0.2,1.5,0,2.7-0.5,3.8
				c-0.6,1.1-1.5,2-2.8,2.6s-2.9,0.9-4.7,0.9C373.9,885.7,372.1,885.4,370.5,884.8z"/>
		</g>
	</g>
	<g>
		<g>
			<path class="st1" d="M469.6,843.2h-4.3l6.9-32.6h4.9l17.4,32.6h-4.1l-4.5-8.7h-14.6L469.6,843.2z M474.8,815.7l-2.9,15.5H484
				l-8-15.5l-0.9-1.9L474.8,815.7z"/>
			<path class="st1" d="M511,820c1.5,0.8,2.7,1.9,3.6,3.3c0.9,1.4,1.6,3.1,1.9,4.9l2.3,15.1H515l-2.3-14.8c-0.3-2-1.1-3.6-2.3-4.8
				c-1.2-1.1-2.8-1.7-4.7-1.7c-1.4,0-2.5,0.3-3.4,0.9c-0.9,0.6-1.6,1.4-2,2.4c-0.4,1.1-0.5,2.3-0.3,3.7l2.2,14.2h-3.8l-3.7-23.9h3.6
				l0.6,3.7c0.6-1.4,1.4-2.5,2.6-3.2s2.7-1.1,4.5-1.1C507.9,818.8,509.5,819.2,511,820z"/>
			<path class="st1" d="M543.5,819.4L543.5,819.4l3.7,23.9h-3.6l-0.6-4c-0.7,1.5-1.7,2.6-3.1,3.4c-1.4,0.8-3,1.2-4.8,1.2
				c-2.2,0-4.2-0.5-6.2-1.6c-1.9-1.1-3.6-2.6-4.9-4.5c-1.3-1.9-2.1-4-2.5-6.4c-0.4-2.3-0.2-4.5,0.5-6.4s1.9-3.4,3.5-4.5
				s3.5-1.6,5.7-1.6c1.8,0,3.6,0.4,5.1,1.2c1.6,0.8,3,1.9,4.1,3.4l-2.1-12.8h3.8L543.5,819.4z M538.9,839.3c1.1-0.8,1.9-1.9,2.4-3.3
				c0.5-1.4,0.6-2.9,0.3-4.7c-0.3-1.7-0.9-3.3-1.8-4.7c-0.9-1.4-2-2.5-3.4-3.3s-2.8-1.2-4.3-1.2s-2.8,0.4-3.9,1.2
				c-1.1,0.8-1.9,1.9-2.4,3.3c-0.5,1.4-0.6,2.9-0.3,4.7c0.3,1.7,0.9,3.3,1.8,4.7c0.9,1.4,2,2.5,3.4,3.3c1.3,0.8,2.8,1.2,4.3,1.2
				C536.5,840.4,537.8,840,538.9,839.3z"/>
			<path class="st1" d="M562.2,819.1l0.6,3.9h-0.9c-2.2,0-3.8,0.7-4.9,2c-1.1,1.3-1.4,3.1-1,5.5l2,12.7h-3.8l-3.7-23.9h3.8l0.7,4.8
				c0.4-1.6,1.2-2.9,2.3-3.7c1.1-0.9,2.5-1.3,4.2-1.3H562.2z"/>
			<path class="st1" d="M573.8,842.2c-2-1.1-3.7-2.6-5-4.5s-2.2-4-2.6-6.4c-0.4-2.4-0.2-4.5,0.6-6.4s2-3.4,3.7-4.5s3.7-1.6,6-1.6
				s4.4,0.5,6.5,1.6c2,1.1,3.7,2.6,5,4.5s2.2,4,2.6,6.4c0.4,2.4,0.2,4.5-0.6,6.4s-2,3.4-3.7,4.5s-3.7,1.6-6,1.6
				C577.9,843.8,575.8,843.3,573.8,842.2z M583.8,839.2c1.1-0.8,1.9-1.8,2.4-3.2s0.6-2.9,0.3-4.7s-0.9-3.4-1.8-4.7
				c-0.9-1.4-2.1-2.4-3.4-3.2c-1.4-0.8-2.8-1.1-4.4-1.1c-1.6,0-2.9,0.4-4,1.1c-1.1,0.8-1.9,1.8-2.4,3.2s-0.6,3-0.3,4.7
				c0.3,1.8,0.9,3.4,1.8,4.7c0.9,1.4,2.1,2.4,3.4,3.2c1.4,0.8,2.8,1.1,4.4,1.1C581.3,840.3,582.6,840,583.8,839.2z"/>
			<path class="st1" d="M592.9,815l-0.7-4.4h4.3l0.7,4.4H592.9z M601.3,843.2h-3.8l-3.7-23.9h3.8L601.3,843.2z"/>
			<path class="st1" d="M626.6,819.4L626.6,819.4l3.7,23.9h-3.6l-0.6-4c-0.7,1.5-1.7,2.6-3.1,3.4c-1.4,0.8-3,1.2-4.8,1.2
				c-2.2,0-4.2-0.5-6.2-1.6c-1.9-1.1-3.6-2.6-4.9-4.5c-1.3-1.9-2.1-4-2.5-6.4c-0.4-2.3-0.2-4.5,0.5-6.4s1.9-3.4,3.5-4.5
				s3.5-1.6,5.7-1.6c1.8,0,3.6,0.4,5.1,1.2c1.6,0.8,3,1.9,4.1,3.4l-2.1-12.8h3.8L626.6,819.4z M622,839.3c1.1-0.8,1.9-1.9,2.4-3.3
				c0.5-1.4,0.6-2.9,0.3-4.7c-0.3-1.7-0.9-3.3-1.8-4.7c-0.9-1.4-2-2.5-3.4-3.3s-2.8-1.2-4.3-1.2s-2.8,0.4-3.9,1.2
				c-1.1,0.8-1.9,1.9-2.4,3.3c-0.5,1.4-0.6,2.9-0.3,4.7c0.3,1.7,0.9,3.3,1.8,4.7c0.9,1.4,2,2.5,3.4,3.3c1.3,0.8,2.8,1.2,4.3,1.2
				C619.6,840.4,620.9,840,622,839.3z"/>
			<path class="st1" d="M477.5,884.8c-1.6-0.6-2.9-1.5-3.9-2.6s-1.6-2.3-1.8-3.7h3.8c0.2,0.8,0.5,1.5,1.2,2.1
				c0.6,0.6,1.4,1.1,2.4,1.5c1,0.3,2,0.5,3.2,0.5c1.8,0,3.1-0.4,4-1.1c0.9-0.7,1.2-1.8,1-3.1c-0.2-1-0.6-1.8-1.3-2.4
				c-0.7-0.6-1.7-1-2.9-1.2l-4.5-0.7c-2.2-0.3-3.9-1.1-5.3-2.3s-2.2-2.7-2.4-4.4c-0.2-1.3,0-2.5,0.6-3.5s1.5-1.8,2.7-2.4
				c1.2-0.6,2.7-0.9,4.4-0.9c1.7,0,3.3,0.3,4.8,0.9s2.7,1.4,3.6,2.4c1,1,1.5,2.2,1.8,3.5h-3.8c-0.1-0.7-0.5-1.3-1-1.9
				c-0.6-0.6-1.3-1-2.1-1.3c-0.9-0.3-1.8-0.5-2.8-0.5s-1.8,0.2-2.6,0.5c-0.7,0.3-1.3,0.7-1.6,1.3c-0.4,0.5-0.5,1.2-0.4,1.9
				c0.1,0.9,0.5,1.7,1.2,2.2c0.7,0.6,1.5,0.9,2.7,1.1l4.6,0.7c2.3,0.3,4.1,1.1,5.4,2.3c1.4,1.2,2.2,2.8,2.5,4.6
				c0.2,1.5,0,2.7-0.5,3.8c-0.6,1.1-1.5,2-2.8,2.6s-2.9,0.9-4.7,0.9C480.9,885.7,479.1,885.4,477.5,884.8z"/>
			<path class="st1" d="M512,862.4c1.9,1.1,3.6,2.6,4.9,4.5s2.1,4,2.5,6.4c0.4,2.3,0.2,4.5-0.5,6.4s-1.9,3.4-3.5,4.5
				s-3.5,1.6-5.7,1.6c-1.8,0-3.6-0.4-5.2-1.2s-3-1.9-4.1-3.4l0.2,1.5l1.6,10h-3.7l-4.8-31.4h3.6l0.6,4c0.7-1.5,1.7-2.6,3.1-3.4
				c1.4-0.8,2.9-1.2,4.8-1.2C508,860.8,510,861.3,512,862.4z M512.7,881.2c1.1-0.8,1.9-1.9,2.4-3.3c0.5-1.4,0.6-2.9,0.3-4.7
				c-0.3-1.7-0.9-3.3-1.8-4.7c-0.9-1.4-2-2.5-3.4-3.3c-1.3-0.8-2.8-1.2-4.3-1.2s-2.9,0.4-4,1.2s-1.9,1.9-2.4,3.3
				c-0.5,1.4-0.6,2.9-0.3,4.7c0.3,1.7,0.9,3.3,1.8,4.7s2,2.5,3.4,3.3s2.8,1.2,4.3,1.2C510.3,882.4,511.6,882,512.7,881.2z"/>
			<path class="st1" d="M545.8,874.2h-19.1c0.4,1.6,1,3.1,2,4.3c0.9,1.3,2,2.2,3.3,2.9s2.7,1,4.2,1c1,0,1.9-0.2,2.8-0.5
				c0.9-0.3,1.6-0.7,2.2-1.3c0.6-0.6,1-1.2,1.2-1.9h3.6c-0.1,1.3-0.5,2.5-1.4,3.5c-0.9,1.1-2,1.9-3.5,2.5c-1.4,0.6-3,0.9-4.7,0.9
				c-2.3,0-4.4-0.5-6.4-1.6s-3.6-2.6-4.9-4.5s-2.1-4.1-2.5-6.5c-0.4-2.3-0.2-4.5,0.6-6.4c0.7-1.9,1.9-3.4,3.5-4.5s3.6-1.6,5.8-1.6
				c2.1,0,4.1,0.5,6,1.6s3.4,2.6,4.7,4.5s2.1,4,2.4,6.4L545.8,874.2z M528.1,865.9c-1.2,1.3-1.8,3-1.8,5.1h15.1
				c-0.7-2.2-1.7-3.9-3.2-5.1c-1.5-1.3-3.2-1.9-5.1-1.9C530.9,864,529.3,864.7,528.1,865.9z"/>
			<path class="st1" d="M556.4,884.1c-2-1.1-3.7-2.6-5-4.5s-2.2-4-2.5-6.4c-0.4-2.3-0.2-4.5,0.6-6.4s2-3.4,3.6-4.5
				c1.7-1.1,3.6-1.6,5.9-1.6c1.9,0,3.8,0.4,5.5,1.1c1.7,0.8,3.2,1.8,4.4,3.1s2,2.8,2.4,4.5h-3.8c-0.3-1-0.9-2-1.8-2.8
				c-0.8-0.8-1.8-1.5-2.9-1.9c-1.1-0.5-2.3-0.7-3.5-0.7c-1.5,0-2.9,0.4-4,1.2s-1.9,1.9-2.4,3.3c-0.5,1.4-0.6,3-0.3,4.7
				s0.9,3.3,1.8,4.7c0.9,1.4,2,2.5,3.4,3.3s2.8,1.2,4.3,1.2c1.2,0,2.3-0.2,3.3-0.7s1.8-1.1,2.3-1.9c0.6-0.8,0.9-1.7,0.9-2.6h3.8
				c0.1,1.6-0.2,3-1.1,4.3c-0.8,1.3-2,2.3-3.5,3s-3.3,1.1-5.2,1.1C560.6,885.7,558.4,885.2,556.4,884.1z"/>
			<path class="st1" d="M574.5,857l-0.7-4.4h4.3l0.7,4.4H574.5z M582.8,885.2h-3.7l-3.7-23.9h3.8L582.8,885.2z"/>
			<path class="st1" d="M591,885.2l-3.2-20.5h-4.2l-0.5-3.3h4.2l-0.6-3.6c-0.2-1.6,0.1-2.9,0.9-3.8c0.9-0.9,2.2-1.4,3.9-1.4h4.3
				l0.5,3.3h-4.1c-0.7,0-1.2,0.2-1.5,0.6c-0.3,0.4-0.4,0.9-0.3,1.5l0.5,3.4h6l0.5,3.3h-6l3.2,20.5H591z"/>
			<path class="st1" d="M601.4,857l-0.7-4.4h4.3l0.7,4.4H601.4z M609.8,885.2H606l-3.7-23.9h3.8L609.8,885.2z"/>
			<path class="st1" d="M620.7,884.1c-2-1.1-3.7-2.6-5-4.5s-2.2-4-2.5-6.4c-0.4-2.3-0.2-4.5,0.6-6.4s2-3.4,3.6-4.5
				c1.7-1.1,3.6-1.6,5.9-1.6c1.9,0,3.8,0.4,5.5,1.1c1.7,0.8,3.2,1.8,4.4,3.1s2,2.8,2.4,4.5h-3.8c-0.3-1-0.9-2-1.8-2.8
				c-0.8-0.8-1.8-1.5-2.9-1.9c-1.1-0.5-2.3-0.7-3.5-0.7c-1.5,0-2.9,0.4-4,1.2s-1.9,1.9-2.4,3.3c-0.5,1.4-0.6,3-0.3,4.7
				s0.9,3.3,1.8,4.7c0.9,1.4,2,2.5,3.4,3.3s2.8,1.2,4.3,1.2c1.2,0,2.3-0.2,3.3-0.7s1.8-1.1,2.3-1.9c0.6-0.8,0.9-1.7,0.9-2.6h3.8
				c0.1,1.6-0.2,3-1.1,4.3c-0.8,1.3-2,2.3-3.5,3s-3.3,1.1-5.2,1.1C624.9,885.7,622.7,885.2,620.7,884.1z"/>
			<path class="st1" d="M654.1,885.2h-4.3l6.9-32.6h4.9l17.4,32.6h-4.1l-4.5-8.7h-14.6L654.1,885.2z M659.3,857.7l-2.9,15.5h12.1
				l-8-15.5l-0.9-1.9L659.3,857.7z"/>
			<path class="st1" d="M684,885.2l-5-32.6h13.1c2.1,0,4,0.4,5.7,1.2s3.1,1.9,4.2,3.3c1.1,1.4,1.8,3.1,2.1,5s0.1,3.6-0.6,5
				c-0.7,1.4-1.7,2.5-3.2,3.3s-3.3,1.2-5.5,1.2h-9.1l2.1,13.7H684V885.2z M694.5,867.9c1.3,0,2.4-0.2,3.3-0.7c0.9-0.5,1.5-1.2,1.9-2
				s0.5-1.9,0.3-3.1c-0.2-1.2-0.6-2.2-1.3-3.1c-0.7-0.9-1.5-1.6-2.6-2c-1-0.5-2.2-0.7-3.5-0.7h-9.3l1.8,11.7h9.4V867.9z"/>
			<path class="st1" d="M716.8,885.2h-3.9l-5-32.6h3.9L716.8,885.2z"/>
			<path class="st1" d="M727.7,884.8c-1.6-0.6-2.9-1.5-3.9-2.6s-1.6-2.3-1.8-3.7h3.8c0.2,0.8,0.5,1.5,1.2,2.1
				c0.6,0.6,1.4,1.1,2.4,1.5c1,0.3,2,0.5,3.2,0.5c1.8,0,3.1-0.4,4-1.1c0.9-0.7,1.2-1.8,1-3.1c-0.2-1-0.6-1.8-1.3-2.4
				c-0.7-0.6-1.7-1-2.9-1.2l-4.5-0.7c-2.2-0.3-3.9-1.1-5.3-2.3c-1.4-1.2-2.2-2.7-2.4-4.4c-0.2-1.3,0-2.5,0.6-3.5s1.5-1.8,2.7-2.4
				c1.2-0.6,2.7-0.9,4.4-0.9s3.3,0.3,4.8,0.9c1.5,0.6,2.7,1.4,3.6,2.4c0.9,1,1.5,2.2,1.8,3.5h-3.8c-0.1-0.7-0.5-1.3-1-1.9
				c-0.6-0.6-1.3-1-2.1-1.3c-0.9-0.3-1.8-0.5-2.8-0.5s-1.8,0.2-2.6,0.5c-0.7,0.3-1.3,0.7-1.6,1.3c-0.4,0.5-0.5,1.2-0.4,1.9
				c0.1,0.9,0.5,1.7,1.2,2.2c0.7,0.6,1.5,0.9,2.7,1.1l4.6,0.7c2.3,0.3,4.1,1.1,5.4,2.3c1.4,1.2,2.2,2.8,2.5,4.6
				c0.2,1.5,0,2.7-0.5,3.8s-1.5,2-2.8,2.6s-2.9,0.9-4.7,0.9C731,885.7,729.3,885.4,727.7,884.8z"/>
		</g>
	</g>
	<g>
		<g>
			<path class="st1" d="M808.6,843.2l-0.6-3.6h6.3c1.2,0,2.1-0.4,2.7-1.1s0.8-1.7,0.7-2.9l-3.9-25h3.9l3.9,25.6
				c0.2,1.4,0.1,2.6-0.4,3.7c-0.5,1.1-1.2,1.9-2.3,2.5c-1,0.6-2.3,0.9-3.7,0.9h-6.6V843.2z"/>
			<path class="st1" d="M834.7,842.6c-1.9-0.8-3.4-2-4.6-3.4c-1.2-1.5-1.9-3.2-2.2-5.1h4c0.2,1.2,0.7,2.3,1.5,3.3
				c0.8,0.9,1.8,1.7,3,2.2s2.6,0.8,4.1,0.8s2.7-0.2,3.8-0.7s1.8-1.2,2.3-2.1c0.5-0.9,0.6-1.9,0.5-3.1c-0.2-1.4-0.8-2.5-1.8-3.5
				s-2.3-1.6-3.9-1.9l-6-1.1c-1.6-0.3-3-0.9-4.3-1.7s-2.3-1.9-3.1-3.1c-0.8-1.2-1.3-2.6-1.5-4c-0.3-1.7,0-3.3,0.7-4.6
				c0.7-1.4,1.8-2.4,3.3-3.2s3.3-1.1,5.3-1.1c2.1,0,4,0.4,5.8,1.2s3.2,1.8,4.3,3.2s1.8,2.9,2.1,4.7h-4c-0.2-1.1-0.6-2-1.3-2.9
				c-0.7-0.8-1.6-1.5-2.7-2c-1.1-0.5-2.3-0.7-3.6-0.7s-2.4,0.2-3.4,0.7s-1.7,1.1-2.1,2c-0.4,0.8-0.6,1.8-0.4,2.9
				c0.2,1.3,0.8,2.4,1.7,3.3c0.9,0.9,2.1,1.5,3.6,1.8l6.2,1.2c1.6,0.3,3,0.9,4.3,1.7c1.3,0.9,2.4,1.9,3.2,3.2s1.4,2.6,1.6,4.1
				c0.3,1.9,0,3.5-0.7,4.9c-0.8,1.4-2,2.5-3.6,3.3s-3.5,1.2-5.8,1.2C838.6,843.8,836.6,843.4,834.7,842.6z"/>
			<path class="st1" d="M821.9,884.8c-1.6-0.6-2.9-1.5-3.9-2.6s-1.6-2.3-1.8-3.7h3.8c0.2,0.8,0.5,1.5,1.2,2.1
				c0.6,0.6,1.4,1.1,2.4,1.5s2,0.5,3.2,0.5c1.8,0,3.1-0.4,4-1.1c0.9-0.7,1.2-1.8,1-3.1c-0.2-1-0.6-1.8-1.3-2.4s-1.7-1-2.9-1.2
				l-4.5-0.7c-2.2-0.3-3.9-1.1-5.3-2.3c-1.4-1.2-2.2-2.7-2.4-4.4c-0.2-1.3,0-2.5,0.6-3.5s1.5-1.8,2.7-2.4c1.2-0.6,2.7-0.9,4.4-0.9
				s3.3,0.3,4.8,0.9c1.5,0.6,2.7,1.4,3.6,2.4c1,1,1.5,2.2,1.8,3.5h-3.8c-0.1-0.7-0.5-1.3-1-1.9c-0.6-0.6-1.3-1-2.1-1.3
				c-0.9-0.3-1.8-0.5-2.8-0.5s-1.8,0.2-2.6,0.5c-0.7,0.3-1.3,0.7-1.6,1.3c-0.4,0.5-0.5,1.2-0.4,1.9c0.1,0.9,0.5,1.7,1.2,2.2
				c0.7,0.6,1.5,0.9,2.7,1.1l4.6,0.7c2.3,0.3,4.1,1.1,5.4,2.3c1.4,1.2,2.2,2.8,2.5,4.6c0.2,1.5,0,2.7-0.5,3.8s-1.5,2-2.8,2.6
				s-2.9,0.9-4.7,0.9C825.2,885.7,823.4,885.4,821.9,884.8z"/>
			<path class="st1" d="M856.3,862.4c1.9,1.1,3.6,2.6,4.9,4.5c1.3,1.9,2.1,4,2.5,6.4c0.4,2.3,0.2,4.5-0.5,6.4s-1.9,3.4-3.5,4.5
				s-3.5,1.6-5.7,1.6c-1.8,0-3.6-0.4-5.2-1.2c-1.6-0.8-3-1.9-4.1-3.4l0.2,1.5l1.6,10h-3.7l-4.8-31.4h3.6l0.6,4
				c0.7-1.5,1.7-2.6,3.1-3.4c1.4-0.8,2.9-1.2,4.8-1.2C852.3,860.8,854.4,861.3,856.3,862.4z M857,881.2c1.1-0.8,1.9-1.9,2.4-3.3
				c0.5-1.4,0.6-2.9,0.3-4.7c-0.3-1.7-0.9-3.3-1.8-4.7c-0.9-1.4-2-2.5-3.4-3.3c-1.3-0.8-2.8-1.2-4.3-1.2s-2.9,0.4-4,1.2
				s-1.9,1.9-2.4,3.3c-0.5,1.4-0.6,2.9-0.3,4.7c0.3,1.7,0.9,3.3,1.8,4.7c0.9,1.4,2,2.5,3.4,3.3s2.8,1.2,4.3,1.2
				C854.6,882.4,855.9,882,857,881.2z"/>
			<path class="st1" d="M890.1,874.2H871c0.4,1.6,1,3.1,2,4.3c0.9,1.3,2,2.2,3.3,2.9s2.7,1,4.2,1c1,0,1.9-0.2,2.8-0.5
				c0.9-0.3,1.6-0.7,2.2-1.3c0.6-0.6,1-1.2,1.2-1.9h3.6c-0.1,1.3-0.5,2.5-1.4,3.5c-0.9,1.1-2,1.9-3.5,2.5c-1.4,0.6-3,0.9-4.7,0.9
				c-2.3,0-4.4-0.5-6.4-1.6s-3.6-2.6-4.9-4.5c-1.3-1.9-2.1-4.1-2.5-6.5c-0.4-2.3-0.2-4.5,0.6-6.4c0.7-1.9,1.9-3.4,3.5-4.5
				s3.6-1.6,5.8-1.6c2.1,0,4.1,0.5,6,1.6s3.4,2.6,4.7,4.5s2.1,4,2.4,6.4L890.1,874.2z M872.4,865.9c-1.2,1.3-1.8,3-1.8,5.1h15.1
				c-0.7-2.2-1.7-3.9-3.2-5.1c-1.5-1.3-3.2-1.9-5.1-1.9C875.2,864,873.6,864.7,872.4,865.9z"/>
			<path class="st1" d="M900.7,884.1c-2-1.1-3.7-2.6-5-4.5s-2.2-4-2.5-6.4c-0.4-2.3-0.2-4.5,0.6-6.4s2-3.4,3.6-4.5
				c1.7-1.1,3.6-1.6,5.9-1.6c1.9,0,3.8,0.4,5.5,1.1c1.7,0.8,3.2,1.8,4.4,3.1s2,2.8,2.4,4.5h-3.8c-0.3-1-0.9-2-1.8-2.8
				c-0.8-0.8-1.8-1.5-2.9-1.9c-1.1-0.5-2.3-0.7-3.5-0.7c-1.5,0-2.9,0.4-4,1.2s-1.9,1.9-2.4,3.3c-0.5,1.4-0.6,3-0.3,4.7
				s0.9,3.3,1.8,4.7c0.9,1.4,2,2.5,3.4,3.3s2.8,1.2,4.3,1.2c1.2,0,2.3-0.2,3.3-0.7s1.8-1.1,2.3-1.9s0.9-1.7,0.9-2.6h3.8
				c0.1,1.6-0.2,3-1.1,4.3c-0.8,1.3-2,2.3-3.5,3s-3.3,1.1-5.2,1.1C904.9,885.7,902.7,885.2,900.7,884.1z"/>
			<path class="st1" d="M918.8,857l-0.7-4.4h4.3l0.7,4.4H918.8z M927.1,885.2h-3.8l-3.7-23.9h3.8L927.1,885.2z"/>
			<path class="st1" d="M935.3,885.2l-3.2-20.5h-4.2l-0.5-3.3h4.2l-0.6-3.6c-0.2-1.6,0.1-2.9,0.9-3.8c0.9-0.9,2.2-1.4,3.9-1.4h4.3
				l0.5,3.3h-4.1c-0.7,0-1.2,0.2-1.5,0.6c-0.3,0.4-0.4,0.9-0.3,1.5l0.5,3.4h6l0.5,3.3h-6l3.2,20.5H935.3z"/>
			<path class="st1" d="M945.7,857l-0.7-4.4h4.3l0.7,4.4H945.7z M954.1,885.2h-3.8l-3.7-23.9h3.8L954.1,885.2z"/>
			<path class="st1" d="M965,884.1c-2-1.1-3.7-2.6-5-4.5s-2.2-4-2.5-6.4c-0.4-2.3-0.2-4.5,0.6-6.4s2-3.4,3.6-4.5
				c1.7-1.1,3.6-1.6,5.9-1.6c1.9,0,3.8,0.4,5.5,1.1c1.7,0.8,3.2,1.8,4.4,3.1s2,2.8,2.4,4.5h-3.8c-0.3-1-0.9-2-1.8-2.8
				c-0.8-0.8-1.8-1.5-2.9-1.9c-1.1-0.5-2.3-0.7-3.5-0.7c-1.5,0-2.9,0.4-4,1.2s-1.9,1.9-2.4,3.3c-0.5,1.4-0.6,3-0.3,4.7
				s0.9,3.3,1.8,4.7c0.9,1.4,2,2.5,3.4,3.3s2.8,1.2,4.3,1.2c1.2,0,2.3-0.2,3.3-0.7s1.8-1.1,2.3-1.9c0.6-0.8,0.9-1.7,0.9-2.6h3.8
				c0.1,1.6-0.2,3-1.1,4.3c-0.8,1.3-2,2.3-3.5,3s-3.3,1.1-5.2,1.1C969.2,885.7,967,885.2,965,884.1z"/>
			<path class="st1" d="M998.4,885.2h-4.3l6.9-32.6h4.9l17.4,32.6h-4.1l-4.5-8.7h-14.6L998.4,885.2z M1003.6,857.7l-2.9,15.5h12.1
				l-8-15.5l-0.9-1.9L1003.6,857.7z"/>
			<path class="st1" d="M1028.3,885.2l-5-32.6h13.2c2.1,0,4,0.4,5.7,1.2s3.1,1.9,4.2,3.3c1.1,1.4,1.8,3.1,2.1,5
				c0.3,1.9,0.1,3.6-0.6,5s-1.7,2.5-3.2,3.3s-3.3,1.2-5.5,1.2h-9.1l2.1,13.7h-3.9V885.2z M1038.8,867.9c1.3,0,2.4-0.2,3.3-0.7
				s1.5-1.2,1.9-2c0.4-0.9,0.5-1.9,0.3-3.1c-0.2-1.2-0.6-2.2-1.3-3.1s-1.5-1.6-2.6-2c-1-0.5-2.2-0.7-3.5-0.7h-9.3l1.8,11.7h9.4
				V867.9z"/>
			<path class="st1" d="M1061.1,885.2h-3.9l-5-32.6h3.9L1061.1,885.2z"/>
			<path class="st1" d="M1072,884.8c-1.6-0.6-2.9-1.5-3.9-2.6s-1.6-2.3-1.8-3.7h3.8c0.2,0.8,0.5,1.5,1.2,2.1
				c0.6,0.6,1.4,1.1,2.4,1.5c1,0.3,2,0.5,3.2,0.5c1.8,0,3.1-0.4,4-1.1c0.9-0.7,1.2-1.8,1-3.1c-0.2-1-0.6-1.8-1.3-2.4
				c-0.7-0.6-1.7-1-2.9-1.2l-4.5-0.7c-2.2-0.3-3.9-1.1-5.3-2.3s-2.2-2.7-2.4-4.4c-0.2-1.3,0-2.5,0.6-3.5s1.5-1.8,2.7-2.4
				c1.2-0.6,2.7-0.9,4.4-0.9c1.7,0,3.3,0.3,4.8,0.9c1.5,0.6,2.7,1.4,3.6,2.4s1.5,2.2,1.8,3.5h-3.8c-0.1-0.7-0.5-1.3-1-1.9
				c-0.6-0.6-1.3-1-2.1-1.3c-0.9-0.3-1.8-0.5-2.8-0.5s-1.8,0.2-2.6,0.5c-0.7,0.3-1.3,0.7-1.6,1.3c-0.4,0.5-0.5,1.2-0.4,1.9
				c0.1,0.9,0.5,1.7,1.2,2.2c0.7,0.6,1.5,0.9,2.7,1.1l4.6,0.7c2.3,0.3,4.1,1.1,5.4,2.3c1.4,1.2,2.2,2.8,2.5,4.6
				c0.2,1.5,0,2.7-0.5,3.8c-0.6,1.1-1.5,2-2.8,2.6s-2.9,0.9-4.7,0.9C1075.3,885.7,1073.6,885.4,1072,884.8z"/>
		</g>
	</g>
	<path class="st3" d="M750.7,726.2H450.3c-10.8,0-20-7.8-21.7-18.5l-97.9-607.6c-2.2-13.4,8.2-25.5,21.7-25.5h300.4
		c10.8,0,20,7.8,21.7,18.5l97.9,607.6C774.5,714.1,764.2,726.2,750.7,726.2z"/>
	<path class="st3" d="M1101.4,726.2H801c-10.8,0-20-7.8-21.7-18.5l-97.9-607.6c-2.2-13.4,8.2-25.5,21.7-25.5h300.4
		c10.8,0,20,7.8,21.7,18.5l97.9,607.6C1125.3,714.1,1114.9,726.2,1101.4,726.2z"/>
	<path class="st3" d="M1452,726.2h-300.4c-10.8,0-20-7.8-21.7-18.5L1032,100.1c-2.2-13.4,8.2-25.5,21.7-25.5h300.4
		c10.8,0,20,7.8,21.7,18.5l97.9,607.6C1475.9,714.1,1465.6,726.2,1452,726.2z"/>
	<path class="st4" d="M538.6,284c0,0-3-6.4,3.1-13.8c6.8-8.4,18.2-8.4,18.2-8.4s3.1,7.9-3.8,15.5C548.7,285.3,538.6,284,538.6,284z
		 M577.9,313.1c-2.2-13,10.4-18.3,10.4-18.3s-8.6-9.7-26.2-9.7c-10.2,0-17.3,4.5-21.5,4.5c-4.9,0-13-4.2-22.5-4.2
		c-14.6,0-28.4,10.1-25.1,29.4c3.4,19.6,25.9,43.9,40.4,43.9c5.1,0,12.2-4,20-4c7.7,0,14,3.8,21.3,3.8c15.9,0,23.3-25.7,23.3-25.7
		S580.4,327.7,577.9,313.1z"/>
	<g>
		<path class="st5" d="M522.6,433.2h-4.8l-17.5-32.6h4.3l15,28.1l5.6-28.1h4.3L522.6,433.2z"/>
		<path class="st5" d="M534.1,405.1l-0.7-4.4h4.3l0.7,4.4H534.1z M542.7,433.2h-3.8l-3.8-23.8h3.8L542.7,433.2z"/>
		<path class="st5" d="M569.1,422.2H550c0.4,1.6,1.1,3.1,2,4.3c0.9,1.3,2,2.2,3.3,2.9c1.3,0.7,2.7,1,4.2,1c1,0,1.9-0.2,2.8-0.5
			c0.9-0.3,1.6-0.7,2.2-1.3c0.6-0.6,1-1.2,1.2-1.9h3.6c-0.1,1.3-0.5,2.5-1.4,3.5c-0.9,1.1-2,1.9-3.4,2.5s-3,0.9-4.7,0.9
			c-2.3,0-4.4-0.5-6.4-1.6s-3.6-2.6-4.9-4.5s-2.2-4.1-2.5-6.5c-0.4-2.3-0.2-4.5,0.5-6.4s1.9-3.4,3.5-4.5s3.6-1.6,5.8-1.6
			c2.1,0,4.1,0.5,6,1.6s3.5,2.6,4.7,4.5c1.3,1.9,2.1,4,2.5,6.4L569.1,422.2z M551.4,414c-1.2,1.3-1.8,3-1.8,5.1h15.1
			c-0.7-2.2-1.8-3.9-3.2-5.1c-1.5-1.3-3.2-1.9-5.1-1.9C554.2,412.1,552.5,412.8,551.4,414z"/>
		<path class="st5" d="M584.8,433.2h-3.9l-11.8-23.8h4l8.3,17.5l0.9,1.9l0.2-1.9l2.9-17.5h3.9l8.6,17.5l0.8,1.9l0.2-1.9l2.5-17.5
			h3.9l-4.1,23.8h-4l-8.6-18.3l-0.7-1.5l-0.2,1.5L584.8,433.2z"/>
	</g>
	<g>
		<path class="st5" d="M873.5,433.2h-4.8l-17.5-32.6h4.3l15,28.1l5.6-28.1h4.3L873.5,433.2z"/>
		<path class="st5" d="M885,405.1l-0.7-4.4h4.3l0.7,4.4H885z M893.6,433.2h-3.8l-3.8-23.8h3.8L893.6,433.2z"/>
		<path class="st5" d="M920.1,422.2H901c0.4,1.6,1.1,3.1,2,4.3c0.9,1.3,2,2.2,3.3,2.9c1.3,0.7,2.7,1,4.2,1c1,0,1.9-0.2,2.8-0.5
			c0.9-0.3,1.6-0.7,2.2-1.3c0.6-0.6,1-1.2,1.2-1.9h3.6c-0.1,1.3-0.5,2.5-1.4,3.5c-0.9,1.1-2,1.9-3.4,2.5s-3,0.9-4.7,0.9
			c-2.3,0-4.4-0.5-6.4-1.6s-3.6-2.6-4.9-4.5c-1.3-1.9-2.2-4.1-2.5-6.5c-0.4-2.3-0.2-4.5,0.5-6.4s1.9-3.4,3.5-4.5s3.6-1.6,5.8-1.6
			c2.1,0,4.1,0.5,6,1.6s3.5,2.6,4.7,4.5c1.3,1.9,2.1,4,2.5,6.4L920.1,422.2z M902.3,414c-1.2,1.3-1.8,3-1.8,5.1h15.1
			c-0.7-2.2-1.8-3.9-3.2-5.1c-1.5-1.3-3.2-1.9-5.1-1.9C905.1,412.1,903.5,412.8,902.3,414z"/>
		<path class="st5" d="M935.7,433.2h-3.9L920,409.4h4l8.3,17.5l0.8,1.9l0.2-1.9l2.9-17.5h3.9l8.6,17.5l0.8,1.9l0.2-1.9l2.5-17.5h3.9
			l-4.1,23.8h-4l-8.6-18.3l-0.7-1.5l-0.2,1.5L935.7,433.2z"/>
	</g>
	<path class="st5" d="M917.9,302.1l7.2-15.8c0.4-0.9-0.2-2-1.4-2.5s-2.5-0.2-2.9,0.7l-7.3,16c-9.3-3.2-19.4-5-29.7-5
		s-19.5,1.8-27.3,5l-15.1-16c-0.8-0.9-2.3-1.2-3.2-0.7s-1,1.6-0.2,2.5l14.9,15.8c-17,8.5-26.1,24.5-23.7,43.1h133.3
		C955.7,326.6,939,310.7,917.9,302.1z M861.4,329.8c-3.1,0-6.1-2.1-6.7-4.6c-0.6-2.6,1.4-4.6,4.5-4.6s6.1,2.1,6.7,4.6
		S864.5,329.8,861.4,329.8z M922.6,329.8c-3.1,0-6.1-2.1-6.7-4.6c-0.6-2.6,1.4-4.6,4.5-4.6s6.1,2.1,6.7,4.6
		C927.7,327.7,925.7,329.8,922.6,329.8z"/>
	<path class="st5" d="M1293.2,336.4c-3.3,10.9-11.8,19.4-23.6,23.1c-0.5,0.1-1-0.4-0.7-0.8c4.6-5,7.4-12.8,7.9-22.3
		c0-0.4,0.4-0.7,0.8-0.7h14.9C1292.9,335.8,1293.3,336.1,1293.2,336.4z M1223.2,336.5c-0.2-0.4-0.7-0.7-1.1-0.7h-14.9
		c-0.4,0-0.5,0.4-0.3,0.7c8,10.9,20.1,19.4,33.5,23.1c0.5,0.1,0.8-0.4,0.3-0.8C1234.1,353.8,1227.9,345.9,1223.2,336.5z
		 M1287.8,302.6c-0.2-0.4-0.7-0.6-1.1-0.6h-15.2c-0.6,0-1,0.5-0.7,1.1c1.9,4.5,3.4,9.3,4.5,14.3s1.6,9.8,1.7,14.3
		c0,0.6,0.6,1.1,1.2,1.1h15.2c0.4,0,0.8-0.2,0.8-0.6c0.8-4.6,0.7-9.6-0.4-14.8C1292.6,312.2,1290.6,307.2,1287.8,302.6z
		 M1247.3,335.8h-19.9c-0.7,0-1,0.6-0.7,1.2c7,13.9,17.4,23.6,27.2,24.6l-5.4-24.9C1248.4,336.2,1247.9,335.8,1247.3,335.8z
		 M1268.7,298.3c0.2,0.4,0.7,0.7,1.1,0.7h14.9c0.4,0,0.5-0.4,0.3-0.7c-8-10.9-20.1-19.4-33.6-23.1c-0.5-0.1-0.8,0.4-0.3,0.8
		C1257.8,281,1264,288.8,1268.7,298.3z M1221.1,331.7c-1.9-4.5-3.4-9.3-4.5-14.3s-1.6-9.8-1.7-14.3c0-0.6-0.6-1.1-1.2-1.1h-15.2
		c-0.4,0-0.8,0.2-0.8,0.6c-0.8,4.6-0.7,9.6,0.4,14.8c1.1,5.2,3.2,10.2,5.9,14.8c0.2,0.4,0.7,0.6,1.1,0.6h15.2
		C1221,332.8,1221.3,332.3,1221.1,331.7z M1199.3,299h14.9c0.5,0,0.8-0.3,0.8-0.7c0.6-9.5,3.4-17.3,8-22.3c0.3-0.3-0.2-0.9-0.7-0.8
		c-11.8,3.7-20.3,12.2-23.6,23.1C1198.6,298.7,1199,299,1199.3,299z M1244.6,299h19.9c0.7,0,1-0.6,0.7-1.2
		c-7-13.9-17.4-23.6-27.2-24.6l5.4,24.9C1243.5,298.6,1244,299,1244.6,299z M1272.4,335.8h-19.9c-0.5,0-0.9,0.4-0.8,0.9l5.4,24.9
		c9.4-1,15.5-10.8,16.6-24.6C1273.7,336.3,1273.1,335.8,1272.4,335.8z M1251.9,332.8h21.1c0.5,0,0.8-0.3,0.8-0.7
		c0-4.6-0.6-9.5-1.7-14.7c-1.1-5.1-2.7-10.1-4.6-14.7c-0.2-0.4-0.7-0.7-1.1-0.7h-21.1c-0.5,0-0.9,0.4-0.8,0.9l6.3,29
		C1250.8,332.4,1251.3,332.8,1251.9,332.8z M1218.3,297.8c0,0.6,0.6,1.2,1.2,1.2h19.9c0.5,0,0.9-0.4,0.8-0.9l-5.4-24.9
		C1225.5,274.2,1219.3,284,1218.3,297.8z M1240,302h-21.1c-0.5,0-0.8,0.3-0.8,0.7c0,4.6,0.6,9.5,1.7,14.7c1.1,5.1,2.7,10.1,4.6,14.7
		c0.2,0.4,0.7,0.7,1.1,0.7h21.1c0.5,0,0.9-0.4,0.8-0.9l-6.3-29C1241.1,302.4,1240.6,302,1240,302z"/>
	<g>
		<g>
			<path class="st5" d="M1145,433.4l-0.6-3.6h6.3c1.2,0,2.1-0.4,2.7-1.1c0.6-0.7,0.8-1.7,0.6-2.9l-4-25h3.9l4.1,25.6
				c0.2,1.4,0.1,2.6-0.4,3.7s-1.2,1.9-2.2,2.5c-1,0.6-2.3,0.9-3.7,0.9H1145z"/>
			<path class="st5" d="M1171.1,432.8c-1.9-0.8-3.4-2-4.6-3.4c-1.2-1.5-2-3.2-2.3-5.1h4c0.2,1.2,0.7,2.3,1.5,3.3
				c0.8,0.9,1.8,1.7,3.1,2.2c1.2,0.5,2.6,0.8,4.1,0.8c1.5,0,2.7-0.2,3.8-0.7c1.1-0.5,1.8-1.2,2.3-2.1c0.5-0.9,0.6-1.9,0.4-3.1
				c-0.2-1.4-0.8-2.5-1.9-3.5c-1-1-2.3-1.6-3.9-1.9l-6-1.1c-1.6-0.3-3-0.9-4.3-1.7c-1.3-0.8-2.3-1.9-3.1-3.1c-0.8-1.2-1.3-2.6-1.6-4
				c-0.3-1.7-0.1-3.3,0.6-4.6c0.7-1.3,1.8-2.4,3.3-3.2c1.5-0.8,3.3-1.1,5.3-1.1c2.1,0,4,0.4,5.8,1.2c1.8,0.8,3.2,1.8,4.4,3.2
				s1.8,2.9,2.1,4.7h-4c-0.2-1.1-0.6-2-1.3-2.9s-1.6-1.5-2.7-2c-1.1-0.5-2.3-0.7-3.6-0.7s-2.4,0.2-3.4,0.7c-1,0.5-1.6,1.1-2.1,2
				c-0.4,0.8-0.6,1.8-0.4,2.9c0.2,1.3,0.8,2.4,1.7,3.3c0.9,0.9,2.1,1.5,3.6,1.8l6.2,1.2c1.6,0.3,3,0.9,4.3,1.7
				c1.3,0.9,2.4,1.9,3.2,3.2c0.9,1.3,1.4,2.6,1.6,4.1c0.3,1.8,0.1,3.5-0.7,4.9c-0.8,1.4-1.9,2.5-3.6,3.3c-1.6,0.8-3.5,1.2-5.8,1.2
				C1175,434,1173,433.6,1171.1,432.8z"/>
			<path class="st5" d="M1230.3,433.4h-4.2l-4-4.2c-1.1,1.4-2.3,2.6-3.9,3.4c-1.5,0.8-3.1,1.2-4.8,1.2c-2.2,0-4.1-0.4-5.9-1.2
				c-1.8-0.8-3.2-2-4.4-3.5c-1.2-1.5-1.9-3.2-2.2-5.2c-0.3-1.8-0.2-3.3,0.2-4.8c0.4-1.4,1.1-2.6,2.1-3.5c1-0.9,2.3-1.6,3.8-1.9
				l-0.3-0.3c-1-1.1-1.9-2.2-2.6-3.4c-0.7-1.2-1.1-2.2-1.3-3.1c-0.2-1.6-0.1-2.9,0.4-4.1c0.5-1.2,1.4-2.1,2.6-2.8
				c1.2-0.7,2.6-1,4.3-1c1.7,0,3.3,0.3,4.8,1c1.4,0.7,2.6,1.6,3.5,2.8s1.5,2.6,1.8,4.2h-3.8c-0.2-0.9-0.5-1.8-1-2.5
				c-0.5-0.7-1.2-1.3-2-1.7s-1.7-0.6-2.7-0.6c-0.9,0-1.7,0.2-2.4,0.6c-0.7,0.4-1.1,1-1.4,1.7c-0.3,0.7-0.3,1.6-0.2,2.5
				c0.1,0.6,0.4,1.3,0.9,2.2c0.5,0.8,1.1,1.7,1.8,2.4l11.5,12l2.7-7.2h4l-3.9,10.1l0,0L1230.3,433.4z M1216.9,429.6
				c1.2-0.7,2.1-1.7,2.8-2.9l-9.7-10c-1.2,0.1-2.3,0.4-3.2,1s-1.5,1.5-1.8,2.6c-0.4,1.1-0.4,2.3-0.2,3.7c0.2,1.3,0.7,2.5,1.5,3.5
				c0.8,1,1.8,1.8,3,2.3c1.2,0.5,2.5,0.8,4,0.8C1214.5,430.7,1215.7,430.3,1216.9,429.6z"/>
			<path class="st5" d="M1250,433.4h-3.9l-5.2-32.6h3.9l2.3,14.1h17.2l-2.3-14.1h3.9l5.2,32.6h-3.9l-2.4-14.9h-17.2L1250,433.4z"/>
			<path class="st5" d="M1282.8,404.5H1272l-0.6-3.6h25.4l0.6,3.6h-10.7l4.7,29.1h-3.9L1282.8,404.5z"/>
			<path class="st5" d="M1311.5,433.4h-3.9l-5.2-32.6h5l16,26.6l0.9,1.7l0.3-1.7l7.1-26.6h5.1l5.2,32.6h-3.9l-4.4-27l-7.3,27h-3.4
				l-16-26.9L1311.5,433.4z"/>
			<path class="st5" d="M1351.2,433.4l-5.2-32.6h3.9l4.7,29h16.8l0.6,3.6H1351.2z"/>
		</g>
	</g>
</g>
</svg>
