<svg width="535" height="45" viewBox="0 0 535 45" fill="none" xmlns="http://www.w3.org/2000/svg">
<rect width="535" height="45" rx="22.5" fill="black"/>
<path d="M34.8253 34.384C32.8093 34.384 30.9799 33.8827 29.3373 32.88C27.7053 31.8667 26.4199 30.48 25.4813 28.72C24.5426 26.9493 24.0733 24.976 24.0733 22.8C24.0733 20.624 24.5426 18.656 25.4813 16.896C26.4199 15.1253 27.7053 13.7387 29.3373 12.736C30.9799 11.7227 32.8093 11.216 34.8253 11.216C36.5106 11.216 38.0839 11.568 39.5452 12.272C41.0173 12.976 42.2226 13.9307 43.1613 15.136C44.1106 16.3413 44.6813 17.6587 44.8733 19.088H42.2493C42.0573 18.0747 41.6039 17.152 40.8893 16.32C40.1853 15.4773 39.2999 14.8107 38.2333 14.32C37.1773 13.8293 36.0413 13.584 34.8253 13.584C33.2893 13.584 31.9079 13.9787 30.6813 14.768C29.4546 15.5573 28.4946 16.6507 27.8013 18.048C27.1079 19.4453 26.7613 21.0293 26.7613 22.8C26.7613 24.5707 27.1079 26.1547 27.8013 27.552C28.4946 28.9493 29.4546 30.0427 30.6813 30.832C31.9079 31.6213 33.2893 32.016 34.8253 32.016C36.2333 32.016 37.5026 31.728 38.6333 31.152C39.7746 30.576 40.6759 29.776 41.3373 28.752C41.9986 27.7173 42.3399 26.5547 42.3613 25.264V25.072H36.4413V22.672H45.0493V24.304C45.0493 26.192 44.6013 27.904 43.7053 29.44C42.8199 30.976 41.5986 32.1867 40.0413 33.072C38.4839 33.9467 36.7453 34.384 34.8253 34.384ZM64.9158 26.432H51.9238C52.0198 27.552 52.3131 28.544 52.8038 29.408C53.2944 30.272 53.9398 30.944 54.7398 31.424C55.5398 31.904 56.4464 32.144 57.4598 32.144C58.1424 32.144 58.7984 32.0373 59.4278 31.824C60.0571 31.6107 60.6064 31.312 61.0758 30.928C61.5451 30.544 61.8811 30.1067 62.0838 29.616H64.5478C64.3664 30.512 63.9238 31.3227 63.2198 32.048C62.5264 32.7733 61.6571 33.344 60.6118 33.76C59.5771 34.176 58.4731 34.384 57.2998 34.384C55.7531 34.384 54.3664 34.016 53.1398 33.28C51.9238 32.544 50.9744 31.5253 50.2918 30.224C49.6091 28.912 49.2678 27.4293 49.2678 25.776C49.2678 24.1653 49.6144 22.7093 50.3078 21.408C51.0011 20.1067 51.9558 19.088 53.1718 18.352C54.3984 17.6053 55.7744 17.232 57.2998 17.232C58.7504 17.232 60.0518 17.6053 61.2038 18.352C62.3664 19.088 63.2731 20.112 63.9237 21.424C64.5851 22.7253 64.9158 24.1867 64.9158 25.808V26.432ZM57.3318 19.488C55.8918 19.488 54.6971 19.92 53.7478 20.784C52.7984 21.648 52.2118 22.8267 51.9878 24.32H62.2438C62.0198 22.8373 61.4704 21.664 60.5958 20.8C59.7318 19.9253 58.6438 19.488 57.3318 19.488ZM73.4958 34C72.3118 34 71.3731 33.6853 70.6798 33.056C69.9971 32.4267 69.6558 31.5573 69.6558 30.448L69.6398 19.888H66.7598L66.7758 17.616H68.5518C68.9571 17.616 69.2824 17.488 69.5278 17.232C69.7838 16.976 69.9118 16.6507 69.9118 16.256V13.52H72.2158V17.616H76.1678L76.1518 19.888H72.1998L72.2158 30.288C72.2158 30.736 72.3438 31.088 72.5998 31.344C72.8664 31.6 73.2184 31.728 73.6558 31.728H76.1518V34H73.4958ZM93.801 34.384C92.4677 34.384 91.289 34.176 90.265 33.76C89.2517 33.3333 88.4623 32.7467 87.897 32C87.3423 31.2533 87.0597 30.4053 87.049 29.456H89.609C89.6303 30.0107 89.817 30.5013 90.169 30.928C90.521 31.3547 91.001 31.6907 91.609 31.936C92.2277 32.1707 92.9317 32.288 93.721 32.288C94.937 32.288 95.881 32.032 96.553 31.52C97.225 31.008 97.561 30.3093 97.561 29.424C97.561 28.7413 97.353 28.1867 96.937 27.76C96.5317 27.3227 95.929 27.04 95.129 26.912L92.153 26.448C90.7237 26.224 89.609 25.7067 88.809 24.896C88.009 24.0747 87.609 23.056 87.609 21.84C87.609 20.944 87.8597 20.1493 88.361 19.456C88.873 18.752 89.577 18.208 90.473 17.824C91.3797 17.4293 92.4037 17.232 93.545 17.232C94.7183 17.232 95.769 17.4293 96.697 17.824C97.6357 18.2187 98.3717 18.768 98.905 19.472C99.449 20.1653 99.7317 20.9547 99.753 21.84H97.193C97.1823 21.3707 97.0117 20.944 96.681 20.56C96.361 20.176 95.9237 19.8773 95.369 19.664C94.8143 19.44 94.1957 19.328 93.513 19.328C92.8517 19.328 92.2543 19.4347 91.721 19.648C91.1983 19.8507 90.7877 20.1387 90.489 20.512C90.201 20.8747 90.057 21.296 90.057 21.776C90.057 22.416 90.249 22.9333 90.633 23.328C91.017 23.712 91.5823 23.9627 92.329 24.08L95.401 24.576C96.8943 24.8107 98.0357 25.344 98.825 26.176C99.625 27.008 100.025 28.0693 100.025 29.36C100.025 30.3627 99.769 31.2427 99.257 32C98.745 32.7573 98.0197 33.344 97.081 33.76C96.1423 34.176 95.049 34.384 93.801 34.384ZM108.746 34C107.562 34 106.623 33.6853 105.93 33.056C105.247 32.4267 104.906 31.5573 104.906 30.448L104.89 19.888H102.01L102.026 17.616H103.802C104.207 17.616 104.532 17.488 104.778 17.232C105.034 16.976 105.162 16.6507 105.162 16.256V13.52H107.466V17.616H111.418L111.402 19.888H107.45L107.466 30.288C107.466 30.736 107.594 31.088 107.85 31.344C108.116 31.6 108.468 31.728 108.906 31.728H111.402V34H108.746ZM121.929 17.232C123.166 17.232 124.249 17.4613 125.177 17.92C126.115 18.368 126.841 19.024 127.353 19.888C127.865 20.752 128.121 21.792 128.121 23.008V34H125.625V31.568C125.123 32.4853 124.403 33.184 123.465 33.664C122.537 34.144 121.422 34.384 120.121 34.384C119.043 34.384 118.083 34.1867 117.241 33.792C116.409 33.3867 115.758 32.8267 115.289 32.112C114.83 31.3973 114.601 30.5813 114.601 29.664C114.601 28.8107 114.814 28.0267 115.241 27.312C115.678 26.5867 116.281 25.9947 117.049 25.536C117.817 25.0773 118.686 24.8 119.657 24.704L124.441 24.224C124.793 24.192 125.07 24.0427 125.273 23.776C125.486 23.5093 125.593 23.1253 125.593 22.624C125.593 21.9733 125.433 21.4027 125.113 20.912C124.803 20.4213 124.366 20.0427 123.801 19.776C123.246 19.5093 122.601 19.376 121.865 19.376C121.139 19.376 120.478 19.4987 119.881 19.744C119.283 19.9893 118.798 20.3253 118.425 20.752C118.051 21.1787 117.833 21.648 117.769 22.16H115.273C115.369 21.2533 115.721 20.4267 116.329 19.68C116.937 18.9227 117.731 18.3253 118.713 17.888C119.694 17.4507 120.766 17.232 121.929 17.232ZM120.601 32.384C121.571 32.384 122.435 32.1973 123.193 31.824C123.95 31.44 124.537 30.9067 124.953 30.224C125.379 29.5307 125.593 28.7467 125.593 27.872V26.016L120.009 26.592C119.155 26.6773 118.467 26.992 117.945 27.536C117.422 28.08 117.161 28.7413 117.161 29.52C117.161 30.0747 117.305 30.5707 117.593 31.008C117.881 31.4347 118.286 31.7707 118.809 32.016C119.331 32.2613 119.929 32.384 120.601 32.384ZM141.204 17.456V20.128H140.612C139.119 20.128 137.945 20.576 137.092 21.472C136.239 22.368 135.812 23.6267 135.812 25.248V34H133.252V17.616H135.812V20.912C136.271 19.8027 136.911 18.9493 137.732 18.352C138.564 17.7547 139.556 17.456 140.708 17.456H141.204ZM148.386 34C147.18 34 146.236 33.6853 145.554 33.056C144.882 32.4267 144.546 31.5573 144.546 30.448V13.52H147.106V17.616H150.962L150.946 19.888H147.09L147.106 30.288C147.106 30.736 147.234 31.088 147.49 31.344C147.746 31.6 148.098 31.728 148.546 31.728H150.946V34H148.386ZM169.447 26.432H156.455C156.551 27.552 156.844 28.544 157.335 29.408C157.826 30.272 158.471 30.944 159.271 31.424C160.071 31.904 160.978 32.144 161.991 32.144C162.674 32.144 163.33 32.0373 163.959 31.824C164.588 31.6107 165.138 31.312 165.607 30.928C166.076 30.544 166.412 30.1067 166.615 29.616H169.079C168.898 30.512 168.455 31.3227 167.751 32.048C167.058 32.7733 166.188 33.344 165.143 33.76C164.108 34.176 163.004 34.384 161.831 34.384C160.284 34.384 158.898 34.016 157.671 33.28C156.455 32.544 155.506 31.5253 154.823 30.224C154.14 28.912 153.799 27.4293 153.799 25.776C153.799 24.1653 154.146 22.7093 154.839 21.408C155.532 20.1067 156.487 19.088 157.703 18.352C158.93 17.6053 160.306 17.232 161.831 17.232C163.282 17.232 164.583 17.6053 165.735 18.352C166.898 19.088 167.804 20.112 168.455 21.424C169.116 22.7253 169.447 24.1867 169.447 25.808V26.432ZM161.863 19.488C160.423 19.488 159.228 19.92 158.279 20.784C157.33 21.648 156.743 22.8267 156.519 24.32H166.775C166.551 22.8373 166.002 21.664 165.127 20.8C164.263 19.9253 163.175 19.488 161.863 19.488ZM188.459 17.616H188.475V34H186.011V31.248C185.382 32.2507 184.566 33.024 183.563 33.568C182.56 34.112 181.435 34.384 180.187 34.384C178.704 34.384 177.36 34.0107 176.155 33.264C174.95 32.5173 174.006 31.4933 173.323 30.192C172.64 28.88 172.299 27.4187 172.299 25.808C172.299 24.1973 172.64 22.7413 173.323 21.44C174.006 20.128 174.95 19.0987 176.155 18.352C177.36 17.6053 178.704 17.232 180.187 17.232C181.435 17.232 182.555 17.504 183.547 18.048C184.55 18.592 185.366 19.3653 185.995 20.368L185.899 11.6H188.459V17.616ZM180.427 32.08C181.472 32.08 182.411 31.808 183.243 31.264C184.086 30.72 184.742 29.9733 185.211 29.024C185.68 28.064 185.915 26.992 185.915 25.808C185.915 24.624 185.68 23.5573 185.211 22.608C184.742 21.648 184.086 20.896 183.243 20.352C182.411 19.808 181.472 19.536 180.427 19.536C179.392 19.536 178.459 19.808 177.627 20.352C176.806 20.896 176.16 21.648 175.691 22.608C175.222 23.5573 174.987 24.624 174.987 25.808C174.987 26.992 175.222 28.064 175.691 29.024C176.16 29.9733 176.806 30.72 177.627 31.264C178.459 31.808 179.392 32.08 180.427 32.08ZM207.426 34H204.77L199.378 17.616H202.098L205.842 29.664L206.21 30.976L206.53 29.664L210.418 17.616H213.058L216.962 29.664L217.314 30.976L217.65 29.664L221.298 17.616H223.954L218.562 34H215.874L212.034 21.408L211.73 20.352L211.458 21.376L207.426 34ZM230.062 34H227.502V17.616H230.062V34ZM227.326 14.64V11.6H230.238V14.64H227.326ZM239.965 34C238.781 34 237.842 33.6853 237.149 33.056C236.466 32.4267 236.125 31.5573 236.125 30.448L236.109 19.888H233.229L233.245 17.616H235.021C235.426 17.616 235.751 17.488 235.997 17.232C236.253 16.976 236.381 16.6507 236.381 16.256V13.52H238.685V17.616H242.637L242.621 19.888H238.669L238.685 30.288C238.685 30.736 238.813 31.088 239.069 31.344C239.335 31.6 239.687 31.728 240.125 31.728H242.621V34H239.965ZM254.652 17.232C255.878 17.232 256.95 17.4987 257.868 18.032C258.785 18.5547 259.489 19.3013 259.98 20.272C260.481 21.2427 260.732 22.3733 260.732 23.664V34H258.172V23.776C258.172 22.4 257.82 21.328 257.116 20.56C256.422 19.792 255.446 19.408 254.188 19.408C253.238 19.408 252.412 19.6267 251.708 20.064C251.004 20.4907 250.46 21.104 250.076 21.904C249.692 22.6933 249.5 23.6267 249.5 24.704V34H246.94V11.6H249.5V16.864L249.404 20.112C249.916 19.1733 250.614 18.4587 251.5 17.968C252.396 17.4773 253.446 17.232 254.652 17.232ZM276.952 34H274.392V11.6H276.952V22.096L287.448 11.6H290.936L280.072 22.416L291.128 34H287.544L276.952 22.928V34ZM299.992 34.384C298.434 34.384 297.032 34.016 295.784 33.28C294.536 32.5333 293.554 31.5093 292.84 30.208C292.125 28.9067 291.768 27.44 291.768 25.808C291.768 24.176 292.125 22.7093 292.84 21.408C293.554 20.1067 294.541 19.088 295.8 18.352C297.058 17.6053 298.466 17.232 300.024 17.232C301.581 17.232 302.989 17.6053 304.248 18.352C305.506 19.088 306.493 20.1067 307.208 21.408C307.922 22.7093 308.28 24.176 308.28 25.808C308.28 27.44 307.917 28.9067 307.192 30.208C306.477 31.5093 305.49 32.5333 304.232 33.28C302.973 34.016 301.56 34.384 299.992 34.384ZM300.024 32.016C301.09 32.016 302.045 31.76 302.888 31.248C303.73 30.7253 304.392 29.9947 304.872 29.056C305.352 28.1173 305.592 27.0347 305.592 25.808C305.592 24.5813 305.352 23.4987 304.872 22.56C304.392 21.6107 303.73 20.88 302.888 20.368C302.045 19.8453 301.09 19.584 300.024 19.584C298.957 19.584 298.002 19.8453 297.16 20.368C296.317 20.88 295.656 21.6107 295.176 22.56C294.696 23.4987 294.456 24.5813 294.456 25.808C294.456 27.0347 294.696 28.1173 295.176 29.056C295.656 29.9947 296.317 30.7253 297.16 31.248C298.002 31.76 298.957 32.016 300.024 32.016ZM316.871 34C315.687 34 314.748 33.6853 314.055 33.056C313.372 32.4267 313.031 31.5573 313.031 30.448L313.015 19.888H310.135L310.151 17.616H311.927C312.332 17.616 312.657 17.488 312.903 17.232C313.159 16.976 313.287 16.6507 313.287 16.256V13.52H315.591V17.616H319.543L319.527 19.888H315.575L315.591 30.288C315.591 30.736 315.719 31.088 315.975 31.344C316.241 31.6 316.593 31.728 317.031 31.728H319.527V34H316.871ZM326.406 34H323.846V11.6H326.406V34ZM334.468 34H331.908V17.616H334.468V34ZM331.732 14.64V11.6H334.644V14.64H331.732ZM347.683 17.232C348.909 17.232 349.981 17.4987 350.899 18.032C351.816 18.5547 352.52 19.3013 353.011 20.272C353.512 21.2427 353.763 22.3733 353.763 23.664V34H351.203V23.856C351.203 22.4587 350.84 21.3707 350.115 20.592C349.4 19.8027 348.403 19.408 347.123 19.408C346.205 19.408 345.4 19.6053 344.707 20C344.013 20.384 343.475 20.9387 343.091 21.664C342.717 22.3893 342.531 23.2427 342.531 24.224V34H339.971V17.616H342.435V20.128C342.957 19.168 343.661 18.448 344.547 17.968C345.432 17.4773 346.477 17.232 347.683 17.232ZM367.423 11.6H370.239L382.111 29.776V11.6H384.767V34H381.919L370.079 15.824V34H367.423V11.6ZM397.804 34.384C396.247 34.384 394.844 34.016 393.596 33.28C392.348 32.5333 391.367 31.5093 390.652 30.208C389.938 28.9067 389.58 27.44 389.58 25.808C389.58 24.176 389.938 22.7093 390.652 21.408C391.367 20.1067 392.354 19.088 393.612 18.352C394.871 17.6053 396.279 17.232 397.836 17.232C399.394 17.232 400.802 17.6053 402.06 18.352C403.319 19.088 404.306 20.1067 405.02 21.408C405.735 22.7093 406.092 24.176 406.092 25.808C406.092 27.44 405.73 28.9067 405.004 30.208C404.29 31.5093 403.303 32.5333 402.044 33.28C400.786 34.016 399.372 34.384 397.804 34.384ZM397.836 32.016C398.903 32.016 399.858 31.76 400.7 31.248C401.543 30.7253 402.204 29.9947 402.684 29.056C403.164 28.1173 403.404 27.0347 403.404 25.808C403.404 24.5813 403.164 23.4987 402.684 22.56C402.204 21.6107 401.543 20.88 400.7 20.368C399.858 19.8453 398.903 19.584 397.836 19.584C396.77 19.584 395.815 19.8453 394.972 20.368C394.13 20.88 393.468 21.6107 392.988 22.56C392.508 23.4987 392.268 24.5813 392.268 25.808C392.268 27.0347 392.508 28.1173 392.988 29.056C393.468 29.9947 394.13 30.7253 394.972 31.248C395.815 31.76 396.77 32.016 397.836 32.016ZM414.683 34C413.499 34 412.561 33.6853 411.867 33.056C411.185 32.4267 410.843 31.5573 410.843 30.448L410.827 19.888H407.947L407.963 17.616H409.739C410.145 17.616 410.47 17.488 410.715 17.232C410.971 16.976 411.099 16.6507 411.099 16.256V13.52H413.403V17.616H417.355L417.339 19.888H413.387L413.403 30.288C413.403 30.736 413.531 31.088 413.787 31.344C414.054 31.6 414.406 31.728 414.843 31.728H417.339V34H414.683ZM435.978 26.432H422.986C423.082 27.552 423.376 28.544 423.866 29.408C424.357 30.272 425.002 30.944 425.802 31.424C426.602 31.904 427.509 32.144 428.522 32.144C429.205 32.144 429.861 32.0373 430.49 31.824C431.12 31.6107 431.669 31.312 432.138 30.928C432.608 30.544 432.944 30.1067 433.146 29.616H435.61C435.429 30.512 434.986 31.3227 434.282 32.048C433.589 32.7733 432.72 33.344 431.674 33.76C430.64 34.176 429.536 34.384 428.362 34.384C426.816 34.384 425.429 34.016 424.202 33.28C422.986 32.544 422.037 31.5253 421.354 30.224C420.672 28.912 420.33 27.4293 420.33 25.776C420.33 24.1653 420.677 22.7093 421.37 21.408C422.064 20.1067 423.018 19.088 424.234 18.352C425.461 17.6053 426.837 17.232 428.362 17.232C429.813 17.232 431.114 17.6053 432.266 18.352C433.429 19.088 434.336 20.112 434.986 21.424C435.648 22.7253 435.978 24.1867 435.978 25.808V26.432ZM428.394 19.488C426.954 19.488 425.76 19.92 424.81 20.784C423.861 21.648 423.274 22.8267 423.05 24.32H433.306C433.082 22.8373 432.533 21.664 431.658 20.8C430.794 19.9253 429.706 19.488 428.394 19.488ZM448.446 17.232C449.929 17.232 451.273 17.6053 452.478 18.352C453.684 19.0987 454.628 20.128 455.31 21.44C455.993 22.7413 456.334 24.1973 456.334 25.808C456.334 27.4187 455.993 28.88 455.31 30.192C454.628 31.4933 453.684 32.5173 452.478 33.264C451.273 34.0107 449.929 34.384 448.446 34.384C447.198 34.384 446.073 34.112 445.07 33.568C444.068 33.024 443.252 32.2507 442.622 31.248V34H440.158V17.616H440.174V11.6H442.734L442.638 20.368C443.268 19.3653 444.078 18.592 445.07 18.048C446.073 17.504 447.198 17.232 448.446 17.232ZM448.206 32.08C449.241 32.08 450.169 31.808 450.99 31.264C451.822 30.72 452.473 29.9733 452.942 29.024C453.412 28.064 453.646 26.992 453.646 25.808C453.646 24.624 453.412 23.5573 452.942 22.608C452.473 21.648 451.822 20.896 450.99 20.352C450.169 19.808 449.241 19.536 448.206 19.536C447.161 19.536 446.217 19.808 445.374 20.352C444.542 20.896 443.892 21.648 443.422 22.608C442.953 23.5573 442.718 24.624 442.718 25.808C442.718 26.992 442.953 28.064 443.422 29.024C443.892 29.9733 444.542 30.72 445.374 31.264C446.217 31.808 447.161 32.08 448.206 32.08ZM467.398 34.384C465.841 34.384 464.438 34.016 463.19 33.28C461.942 32.5333 460.961 31.5093 460.246 30.208C459.531 28.9067 459.174 27.44 459.174 25.808C459.174 24.176 459.531 22.7093 460.246 21.408C460.961 20.1067 461.947 19.088 463.206 18.352C464.465 17.6053 465.873 17.232 467.43 17.232C468.987 17.232 470.395 17.6053 471.654 18.352C472.913 19.088 473.899 20.1067 474.614 21.408C475.329 22.7093 475.686 24.176 475.686 25.808C475.686 27.44 475.323 28.9067 474.598 30.208C473.883 31.5093 472.897 32.5333 471.638 33.28C470.379 34.016 468.966 34.384 467.398 34.384ZM467.43 32.016C468.497 32.016 469.451 31.76 470.294 31.248C471.137 30.7253 471.798 29.9947 472.278 29.056C472.758 28.1173 472.998 27.0347 472.998 25.808C472.998 24.5813 472.758 23.4987 472.278 22.56C471.798 21.6107 471.137 20.88 470.294 20.368C469.451 19.8453 468.497 19.584 467.43 19.584C466.363 19.584 465.409 19.8453 464.566 20.368C463.723 20.88 463.062 21.6107 462.582 22.56C462.102 23.4987 461.862 24.5813 461.862 25.808C461.862 27.0347 462.102 28.1173 462.582 29.056C463.062 29.9947 463.723 30.7253 464.566 31.248C465.409 31.76 466.363 32.016 467.43 32.016ZM486.773 34.384C485.216 34.384 483.813 34.016 482.565 33.28C481.317 32.5333 480.336 31.5093 479.621 30.208C478.906 28.9067 478.549 27.44 478.549 25.808C478.549 24.176 478.906 22.7093 479.621 21.408C480.336 20.1067 481.322 19.088 482.581 18.352C483.84 17.6053 485.248 17.232 486.805 17.232C488.362 17.232 489.77 17.6053 491.029 18.352C492.288 19.088 493.274 20.1067 493.989 21.408C494.704 22.7093 495.061 24.176 495.061 25.808C495.061 27.44 494.698 28.9067 493.973 30.208C493.258 31.5093 492.272 32.5333 491.013 33.28C489.754 34.016 488.341 34.384 486.773 34.384ZM486.805 32.016C487.872 32.016 488.826 31.76 489.669 31.248C490.512 30.7253 491.173 29.9947 491.653 29.056C492.133 28.1173 492.373 27.0347 492.373 25.808C492.373 24.5813 492.133 23.4987 491.653 22.56C491.173 21.6107 490.512 20.88 489.669 20.368C488.826 19.8453 487.872 19.584 486.805 19.584C485.738 19.584 484.784 19.8453 483.941 20.368C483.098 20.88 482.437 21.6107 481.957 22.56C481.477 23.4987 481.237 24.5813 481.237 25.808C481.237 27.0347 481.477 28.1173 481.957 29.056C482.437 29.9947 483.098 30.7253 483.941 31.248C484.784 31.76 485.738 32.016 486.805 32.016ZM501.812 34H499.252V11.6H501.812V25.184L509.22 17.616H512.42L504.74 25.408L512.708 34H509.444L501.812 25.728V34Z" fill="white"/>
</svg>
