<svg width="556" height="45" viewBox="0 0 556 45" fill="none" xmlns="http://www.w3.org/2000/svg">
<rect width="556" height="45" rx="22.5" fill="black"/>
<path d="M34.576 34.384C32.56 34.384 30.7307 33.8827 29.088 32.88C27.456 31.8667 26.1707 30.48 25.232 28.72C24.2933 26.9493 23.824 24.976 23.824 22.8C23.824 20.624 24.2933 18.656 25.232 16.896C26.1707 15.1253 27.456 13.7387 29.088 12.736C30.7307 11.7227 32.56 11.216 34.576 11.216C36.2613 11.216 37.8347 11.568 39.296 12.272C40.768 12.976 41.9733 13.9307 42.912 15.136C43.8613 16.3413 44.432 17.6587 44.624 19.088H42C41.808 18.0747 41.3547 17.152 40.64 16.32C39.936 15.4773 39.0507 14.8107 37.984 14.32C36.928 13.8293 35.792 13.584 34.576 13.584C33.04 13.584 31.6587 13.9787 30.432 14.768C29.2053 15.5573 28.2453 16.6507 27.552 18.048C26.8587 19.4453 26.512 21.0293 26.512 22.8C26.512 24.5707 26.8587 26.1547 27.552 27.552C28.2453 28.9493 29.2053 30.0427 30.432 30.832C31.6587 31.6213 33.04 32.016 34.576 32.016C35.984 32.016 37.2533 31.728 38.384 31.152C39.5253 30.576 40.4267 29.776 41.088 28.752C41.7493 27.7173 42.0907 26.5547 42.112 25.264V25.072H36.192V22.672H44.8V24.304C44.8 26.192 44.352 27.904 43.456 29.44C42.5707 30.976 41.3493 32.1867 39.792 33.072C38.2347 33.9467 36.496 34.384 34.576 34.384ZM57.081 34.384C55.545 34.384 54.1637 34.016 52.937 33.28C51.7103 32.544 50.7503 31.5253 50.057 30.224C49.3743 28.912 49.033 27.4293 49.033 25.776C49.033 24.1653 49.3797 22.7093 50.073 21.408C50.777 20.1067 51.7423 19.088 52.969 18.352C54.1957 17.6053 55.5663 17.232 57.081 17.232C58.6277 17.232 59.9823 17.6 61.145 18.336C62.3183 19.072 63.2197 20.0907 63.849 21.392C64.489 22.6933 64.809 24.1653 64.809 25.808V26.432H51.641C51.7477 27.552 52.0517 28.544 52.553 29.408C53.0543 30.272 53.7103 30.944 54.521 31.424C55.3317 31.904 56.2383 32.144 57.241 32.144C58.3183 32.144 59.2677 31.9467 60.089 31.552C60.9103 31.1573 61.5077 30.6187 61.881 29.936H64.441C64.249 30.6187 63.8437 31.3013 63.225 31.984C62.617 32.6667 61.785 33.2373 60.729 33.696C59.6837 34.1547 58.4677 34.384 57.081 34.384ZM62.153 24.32C61.9397 22.8267 61.3957 21.648 60.521 20.784C59.657 19.92 58.521 19.488 57.113 19.488C56.1637 19.488 55.3103 19.6853 54.553 20.08C53.7957 20.464 53.1717 21.024 52.681 21.76C52.1903 22.4853 51.865 23.3387 51.705 24.32H62.153ZM74.2828 34C73.5041 34 72.7948 33.8347 72.1548 33.504C71.5254 33.1627 71.0294 32.6987 70.6668 32.112C70.3041 31.5147 70.1228 30.8533 70.1228 30.128L70.1068 19.888H67.2268L67.2428 17.616H69.0188C69.4241 17.616 69.7494 17.488 69.9948 17.232C70.2508 16.976 70.3788 16.6507 70.3788 16.256V13.616H72.6828V17.616H76.6348L76.6188 19.888H72.6668L72.6828 29.968C72.6828 30.4693 72.8481 30.8907 73.1788 31.232C73.5201 31.5627 73.9414 31.728 74.4427 31.728H76.6188V34H74.2828ZM94.3955 34.384C93.1582 34.384 92.0382 34.1867 91.0355 33.792C90.0435 33.3973 89.2488 32.848 88.6515 32.144C88.0648 31.4293 87.7502 30.624 87.7075 29.728H90.3155C90.3582 30.2187 90.5608 30.6613 90.9235 31.056C91.2862 31.44 91.7662 31.744 92.3635 31.968C92.9608 32.192 93.6275 32.304 94.3635 32.304C95.1102 32.304 95.7662 32.1813 96.3315 31.936C96.9075 31.6907 97.3502 31.3493 97.6595 30.912C97.9795 30.4747 98.1395 29.9787 98.1395 29.424C98.1395 28.8267 97.9688 28.3253 97.6275 27.92C97.2968 27.504 96.8328 27.2427 96.2355 27.136L92.2835 26.416C91.0248 26.1813 90.0435 25.6747 89.3395 24.896C88.6355 24.1067 88.2835 23.1093 88.2835 21.904C88.2835 21.04 88.5288 20.256 89.0195 19.552C89.5208 18.8373 90.2195 18.272 91.1155 17.856C92.0115 17.44 93.0355 17.232 94.1875 17.232C95.3288 17.232 96.3582 17.4187 97.2755 17.792C98.1928 18.1653 98.9235 18.6827 99.4675 19.344C100.012 20.0053 100.305 20.7413 100.348 21.552H97.7395C97.7075 21.1253 97.5315 20.7413 97.2115 20.4C96.9022 20.0587 96.4862 19.792 95.9635 19.6C95.4408 19.408 94.8542 19.312 94.2035 19.312C93.5422 19.312 92.9555 19.424 92.4435 19.648C91.9315 19.872 91.5315 20.1813 91.2435 20.576C90.9662 20.96 90.8275 21.3973 90.8275 21.888C90.8275 22.4427 90.9822 22.9013 91.2915 23.264C91.6008 23.6267 92.0542 23.8613 92.6515 23.968L96.6995 24.688C97.5315 24.8373 98.2462 25.1307 98.8435 25.568C99.4515 26.0053 99.9102 26.5493 100.22 27.2C100.54 27.8507 100.7 28.56 100.7 29.328C100.7 30.288 100.422 31.152 99.8675 31.92C99.3235 32.688 98.5715 33.2907 97.6115 33.728C96.6515 34.1653 95.5795 34.384 94.3955 34.384ZM110.283 34C109.504 34 108.795 33.8347 108.155 33.504C107.525 33.1627 107.029 32.6987 106.667 32.112C106.304 31.5147 106.123 30.8533 106.123 30.128L106.107 19.888H103.227L103.243 17.616H105.019C105.424 17.616 105.749 17.488 105.995 17.232C106.251 16.976 106.379 16.6507 106.379 16.256V13.616H108.683V17.616H112.635L112.619 19.888H108.667L108.683 29.968C108.683 30.4693 108.848 30.8907 109.179 31.232C109.52 31.5627 109.941 31.728 110.443 31.728H112.619V34H110.283ZM122.857 17.232C124.095 17.232 125.183 17.4613 126.121 17.92C127.06 18.368 127.785 19.0293 128.297 19.904C128.82 20.768 129.081 21.7973 129.081 22.992V34H126.585V31.328C126.127 32.32 125.455 33.0773 124.569 33.6C123.684 34.1227 122.633 34.384 121.417 34.384C120.372 34.384 119.428 34.1813 118.585 33.776C117.743 33.3707 117.081 32.8107 116.601 32.096C116.121 31.3813 115.881 30.5707 115.881 29.664C115.881 28.8107 116.1 28.0267 116.537 27.312C116.985 26.5867 117.599 25.9947 118.377 25.536C119.167 25.0773 120.052 24.7947 121.033 24.688L125.401 24.208C125.764 24.1653 126.047 24.016 126.249 23.76C126.452 23.504 126.553 23.1307 126.553 22.64C126.553 21.9893 126.399 21.4187 126.089 20.928C125.78 20.4373 125.343 20.0587 124.777 19.792C124.223 19.5147 123.577 19.376 122.841 19.376C122.105 19.376 121.444 19.504 120.857 19.76C120.271 20.0053 119.796 20.3413 119.433 20.768C119.081 21.184 118.868 21.6373 118.793 22.128H116.233C116.361 21.2 116.724 20.368 117.321 19.632C117.929 18.8853 118.713 18.2987 119.673 17.872C120.633 17.4453 121.695 17.232 122.857 17.232ZM118.537 29.52C118.537 30.0747 118.681 30.5653 118.969 30.992C119.268 31.4187 119.679 31.7547 120.201 32C120.724 32.2347 121.321 32.352 121.993 32.352C122.911 32.352 123.711 32.1653 124.393 31.792C125.087 31.4187 125.62 30.896 125.993 30.224C126.367 29.5413 126.553 28.7573 126.553 27.872V26L121.385 26.576C120.532 26.672 119.844 26.992 119.321 27.536C118.799 28.08 118.537 28.7413 118.537 29.52ZM134.206 17.616H136.766V20.336C137.289 19.408 137.966 18.6987 138.798 18.208C139.63 17.7067 140.585 17.456 141.662 17.456H142.238V20.128H141.566C140.596 20.128 139.748 20.3147 139.022 20.688C138.297 21.0613 137.737 21.5947 137.342 22.288C136.958 22.9707 136.766 23.776 136.766 24.704V34H134.206V17.616ZM149.34 34C148.134 34 147.19 33.6853 146.508 33.056C145.836 32.4267 145.5 31.5573 145.5 30.448V13.52H148.06V17.616H151.916L151.9 19.888H148.044L148.06 30.288C148.06 30.736 148.188 31.088 148.444 31.344C148.7 31.6 149.052 31.728 149.5 31.728H151.9V34H149.34ZM162.769 34.384C161.233 34.384 159.851 34.016 158.625 33.28C157.398 32.544 156.438 31.5253 155.745 30.224C155.062 28.912 154.721 27.4293 154.721 25.776C154.721 24.1653 155.067 22.7093 155.761 21.408C156.465 20.1067 157.43 19.088 158.657 18.352C159.883 17.6053 161.254 17.232 162.769 17.232C164.315 17.232 165.67 17.6 166.833 18.336C168.006 19.072 168.907 20.0907 169.537 21.392C170.177 22.6933 170.497 24.1653 170.497 25.808V26.432H157.329C157.435 27.552 157.739 28.544 158.241 29.408C158.742 30.272 159.398 30.944 160.209 31.424C161.019 31.904 161.926 32.144 162.929 32.144C164.006 32.144 164.955 31.9467 165.777 31.552C166.598 31.1573 167.195 30.6187 167.569 29.936H170.128C169.936 30.6187 169.531 31.3013 168.913 31.984C168.305 32.6667 167.473 33.2373 166.417 33.696C165.371 34.1547 164.155 34.384 162.769 34.384ZM167.841 24.32C167.627 22.8267 167.083 21.648 166.209 20.784C165.345 19.92 164.209 19.488 162.801 19.488C161.851 19.488 160.998 19.6853 160.241 20.08C159.483 20.464 158.859 21.024 158.369 21.76C157.878 22.4853 157.553 23.3387 157.393 24.32H167.841ZM187.154 31.28C186.536 32.272 185.709 33.04 184.674 33.584C183.65 34.1173 182.482 34.384 181.17 34.384C179.645 34.384 178.285 34.0267 177.09 33.312C175.906 32.5867 174.978 31.5733 174.306 30.272C173.645 28.9707 173.314 27.4827 173.314 25.808C173.314 24.1333 173.645 22.6453 174.306 21.344C174.978 20.0427 175.906 19.0347 177.09 18.32C178.285 17.5947 179.645 17.232 181.17 17.232C182.482 17.232 183.65 17.504 184.674 18.048C185.709 18.5813 186.536 19.344 187.154 20.336V11.6H189.714V34H187.154V31.28ZM176.002 25.808C176.002 27.0347 176.237 28.1227 176.706 29.072C177.176 30.0107 177.832 30.7467 178.674 31.28C179.517 31.8027 180.482 32.064 181.57 32.064C182.573 32.064 183.474 31.8453 184.274 31.408C185.085 30.96 185.736 30.336 186.226 29.536C186.728 28.7253 187.037 27.7867 187.154 26.72V24.896C187.037 23.8293 186.728 22.896 186.226 22.096C185.736 21.2853 185.085 20.6613 184.274 20.224C183.474 19.776 182.573 19.552 181.57 19.552C180.482 19.552 179.517 19.8187 178.674 20.352C177.832 20.8747 177.176 21.6107 176.706 22.56C176.237 23.4987 176.002 24.5813 176.002 25.808ZM200.549 17.616H203.301L207.157 29.392L207.525 30.784L207.861 29.392L211.909 17.616H214.357L218.485 29.392L218.853 30.784L219.189 29.392L222.949 17.616H225.637L220.021 34H217.493L213.445 21.68L213.141 20.544L212.869 21.648L208.661 34H206.165L200.549 17.616ZM229.206 17.616H231.766V34H229.206V17.616ZM231.99 11.6V14.64H228.982V11.6H231.99ZM242.627 34C241.848 34 241.139 33.8347 240.499 33.504C239.869 33.1627 239.373 32.6987 239.011 32.112C238.648 31.5147 238.467 30.8533 238.467 30.128L238.451 19.888H235.571L235.587 17.616H237.363C237.768 17.616 238.093 17.488 238.339 17.232C238.595 16.976 238.723 16.6507 238.723 16.256V13.616H241.027V17.616H244.979L244.963 19.888H241.011L241.027 29.968C241.027 30.4693 241.192 30.8907 241.523 31.232C241.864 31.5627 242.285 31.728 242.786 31.728H244.963V34H242.627ZM249.425 11.6H251.889V20.272C252.444 19.2907 253.18 18.5387 254.097 18.016C255.025 17.4933 256.097 17.232 257.313 17.232C258.486 17.232 259.526 17.4827 260.433 17.984C261.34 18.4853 262.049 19.2267 262.561 20.208C263.084 21.1787 263.345 22.3467 263.345 23.712V34H260.785V23.968C260.785 22.5493 260.417 21.4453 259.681 20.656C258.945 19.8667 257.932 19.472 256.641 19.472C255.724 19.472 254.913 19.6747 254.209 20.08C253.505 20.4853 252.956 21.056 252.561 21.792C252.177 22.5173 251.985 23.3493 251.985 24.288V34H249.425V11.6ZM277.003 11.6H279.563V22.096L290.059 11.6H293.547L282.683 22.416L293.739 34H290.155L279.563 22.928V34H277.003V11.6ZM302.729 34.384C301.171 34.384 299.753 34.016 298.473 33.28C297.203 32.5333 296.201 31.5093 295.465 30.208C294.739 28.896 294.377 27.4293 294.377 25.808C294.377 24.1867 294.739 22.7253 295.465 21.424C296.201 20.112 297.209 19.088 298.489 18.352C299.769 17.6053 301.187 17.232 302.745 17.232C304.302 17.232 305.715 17.6053 306.985 18.352C308.254 19.088 309.251 20.1067 309.977 21.408C310.713 22.7093 311.081 24.176 311.081 25.808C311.081 27.44 310.713 28.9067 309.977 30.208C309.251 31.5093 308.254 32.5333 306.985 33.28C305.715 34.016 304.297 34.384 302.729 34.384ZM297.065 25.808C297.065 27.0347 297.31 28.1227 297.801 29.072C298.302 30.0107 298.985 30.7413 299.849 31.264C300.723 31.7867 301.694 32.048 302.761 32.048C303.827 32.048 304.787 31.7867 305.641 31.264C306.494 30.7413 307.166 30.0107 307.657 29.072C308.147 28.1227 308.393 27.0347 308.393 25.808C308.393 24.5813 308.147 23.4933 307.657 22.544C307.166 21.5947 306.489 20.8587 305.625 20.336C304.771 19.8133 303.811 19.552 302.745 19.552C301.678 19.552 300.713 19.8133 299.849 20.336C298.985 20.8587 298.302 21.5947 297.801 22.544C297.31 23.4933 297.065 24.5813 297.065 25.808ZM320.564 34C319.785 34 319.076 33.8347 318.436 33.504C317.807 33.1627 317.311 32.6987 316.948 32.112C316.585 31.5147 316.404 30.8533 316.404 30.128L316.388 19.888H313.508L313.524 17.616H315.3C315.705 17.616 316.031 17.488 316.276 17.232C316.532 16.976 316.66 16.6507 316.66 16.256V13.616H318.964V17.616H322.916L322.9 19.888H318.948L318.964 29.968C318.964 30.4693 319.129 30.8907 319.46 31.232C319.801 31.5627 320.223 31.728 320.724 31.728H322.9V34H320.564ZM327.363 11.6H329.923V34H327.363V11.6ZM335.519 17.616H338.079V34H335.519V17.616ZM338.303 11.6V14.64H335.295V11.6H338.303ZM343.675 17.616H346.139V20.272C346.694 19.2907 347.43 18.5387 348.347 18.016C349.275 17.4933 350.347 17.232 351.563 17.232C352.736 17.232 353.776 17.4827 354.683 17.984C355.59 18.4853 356.299 19.2267 356.811 20.208C357.334 21.1787 357.595 22.3467 357.595 23.712V34H355.035V23.968C355.035 22.5493 354.667 21.4453 353.931 20.656C353.195 19.8667 352.182 19.472 350.891 19.472C349.974 19.472 349.163 19.6747 348.459 20.08C347.755 20.4853 347.206 21.056 346.811 21.792C346.427 22.5173 346.235 23.3493 346.235 24.288V34H343.675V17.616ZM371.253 11.6H374.069L386.101 29.776V11.6H388.757V34H385.909L373.909 15.824V34H371.253V11.6ZM401.948 34.384C400.39 34.384 398.972 34.016 397.692 33.28C396.422 32.5333 395.42 31.5093 394.684 30.208C393.958 28.896 393.596 27.4293 393.596 25.808C393.596 24.1867 393.958 22.7253 394.684 21.424C395.42 20.112 396.428 19.088 397.708 18.352C398.988 17.6053 400.406 17.232 401.964 17.232C403.521 17.232 404.934 17.6053 406.204 18.352C407.473 19.088 408.47 20.1067 409.196 21.408C409.932 22.7093 410.3 24.176 410.3 25.808C410.3 27.44 409.932 28.9067 409.196 30.208C408.47 31.5093 407.473 32.5333 406.204 33.28C404.934 34.016 403.516 34.384 401.948 34.384ZM396.284 25.808C396.284 27.0347 396.529 28.1227 397.02 29.072C397.521 30.0107 398.204 30.7413 399.068 31.264C399.942 31.7867 400.913 32.048 401.98 32.048C403.046 32.048 404.006 31.7867 404.86 31.264C405.713 30.7413 406.385 30.0107 406.876 29.072C407.366 28.1227 407.612 27.0347 407.612 25.808C407.612 24.5813 407.366 23.4933 406.876 22.544C406.385 21.5947 405.708 20.8587 404.844 20.336C403.99 19.8133 403.03 19.552 401.964 19.552C400.897 19.552 399.932 19.8133 399.068 20.336C398.204 20.8587 397.521 21.5947 397.02 22.544C396.529 23.4933 396.284 24.5813 396.284 25.808ZM419.783 34C419.004 34 418.295 33.8347 417.655 33.504C417.025 33.1627 416.529 32.6987 416.167 32.112C415.804 31.5147 415.623 30.8533 415.623 30.128L415.607 19.888H412.727L412.743 17.616H414.519C414.924 17.616 415.249 17.488 415.495 17.232C415.751 16.976 415.879 16.6507 415.879 16.256V13.616H418.183V17.616H422.135L422.119 19.888H418.167L418.183 29.968C418.183 30.4693 418.348 30.8907 418.679 31.232C419.02 31.5627 419.441 31.728 419.943 31.728H422.119V34H419.783ZM433.237 34.384C431.701 34.384 430.32 34.016 429.093 33.28C427.867 32.544 426.907 31.5253 426.213 30.224C425.531 28.912 425.189 27.4293 425.189 25.776C425.189 24.1653 425.536 22.7093 426.229 21.408C426.933 20.1067 427.899 19.088 429.125 18.352C430.352 17.6053 431.723 17.232 433.237 17.232C434.784 17.232 436.139 17.6 437.301 18.336C438.475 19.072 439.376 20.0907 440.005 21.392C440.645 22.6933 440.965 24.1653 440.965 25.808V26.432H427.797C427.904 27.552 428.208 28.544 428.709 29.408C429.211 30.272 429.867 30.944 430.677 31.424C431.488 31.904 432.395 32.144 433.397 32.144C434.475 32.144 435.424 31.9467 436.245 31.552C437.067 31.1573 437.664 30.6187 438.037 29.936H440.597C440.405 30.6187 440 31.3013 439.381 31.984C438.773 32.6667 437.941 33.2373 436.885 33.696C435.84 34.1547 434.624 34.384 433.237 34.384ZM438.309 24.32C438.096 22.8267 437.552 21.648 436.677 20.784C435.813 19.92 434.677 19.488 433.269 19.488C432.32 19.488 431.467 19.6853 430.709 20.08C429.952 20.464 429.328 21.024 428.837 21.76C428.347 22.4853 428.021 23.3387 427.861 24.32H438.309ZM445.175 11.6H447.735V20.336C448.354 19.344 449.175 18.5813 450.199 18.048C451.234 17.504 452.407 17.232 453.719 17.232C455.244 17.232 456.599 17.5947 457.783 18.32C458.978 19.0347 459.906 20.0427 460.567 21.344C461.239 22.6453 461.575 24.1333 461.575 25.808C461.575 27.4827 461.239 28.9707 460.567 30.272C459.906 31.5733 458.978 32.5867 457.783 33.312C456.599 34.0267 455.244 34.384 453.719 34.384C452.407 34.384 451.234 34.1173 450.199 33.584C449.175 33.04 448.354 32.272 447.735 31.28V34H445.175V11.6ZM447.735 26.72C447.852 27.7867 448.156 28.7253 448.647 29.536C449.148 30.336 449.799 30.96 450.599 31.408C451.41 31.8453 452.316 32.064 453.319 32.064C454.407 32.064 455.372 31.8027 456.215 31.28C457.058 30.7467 457.714 30.0107 458.183 29.072C458.652 28.1227 458.887 27.0347 458.887 25.808C458.887 24.5813 458.652 23.4987 458.183 22.56C457.714 21.6107 457.058 20.8747 456.215 20.352C455.372 19.8187 454.407 19.552 453.319 19.552C452.316 19.552 451.41 19.776 450.599 20.224C449.799 20.6613 449.148 21.2853 448.647 22.096C448.156 22.896 447.852 23.8293 447.735 24.896V26.72ZM472.729 34.384C471.171 34.384 469.753 34.016 468.473 33.28C467.203 32.5333 466.201 31.5093 465.465 30.208C464.739 28.896 464.377 27.4293 464.377 25.808C464.377 24.1867 464.739 22.7253 465.465 21.424C466.201 20.112 467.209 19.088 468.489 18.352C469.769 17.6053 471.187 17.232 472.745 17.232C474.302 17.232 475.715 17.6053 476.985 18.352C478.254 19.088 479.251 20.1067 479.977 21.408C480.713 22.7093 481.081 24.176 481.081 25.808C481.081 27.44 480.713 28.9067 479.977 30.208C479.251 31.5093 478.254 32.5333 476.985 33.28C475.715 34.016 474.297 34.384 472.729 34.384ZM467.065 25.808C467.065 27.0347 467.31 28.1227 467.801 29.072C468.302 30.0107 468.985 30.7413 469.849 31.264C470.723 31.7867 471.694 32.048 472.761 32.048C473.827 32.048 474.787 31.7867 475.641 31.264C476.494 30.7413 477.166 30.0107 477.657 29.072C478.147 28.1227 478.393 27.0347 478.393 25.808C478.393 24.5813 478.147 23.4933 477.657 22.544C477.166 21.5947 476.489 20.8587 475.625 20.336C474.771 19.8133 473.811 19.552 472.745 19.552C471.678 19.552 470.713 19.8133 469.849 20.336C468.985 20.8587 468.302 21.5947 467.801 22.544C467.31 23.4933 467.065 24.5813 467.065 25.808ZM492.26 34.384C490.703 34.384 489.284 34.016 488.004 33.28C486.735 32.5333 485.732 31.5093 484.996 30.208C484.271 28.896 483.908 27.4293 483.908 25.808C483.908 24.1867 484.271 22.7253 484.996 21.424C485.732 20.112 486.74 19.088 488.02 18.352C489.3 17.6053 490.719 17.232 492.276 17.232C493.833 17.232 495.247 17.6053 496.516 18.352C497.785 19.088 498.783 20.1067 499.508 21.408C500.244 22.7093 500.612 24.176 500.612 25.808C500.612 27.44 500.244 28.9067 499.508 30.208C498.783 31.5093 497.785 32.5333 496.516 33.28C495.247 34.016 493.828 34.384 492.26 34.384ZM486.596 25.808C486.596 27.0347 486.841 28.1227 487.332 29.072C487.833 30.0107 488.516 30.7413 489.38 31.264C490.255 31.7867 491.225 32.048 492.292 32.048C493.359 32.048 494.319 31.7867 495.172 31.264C496.025 30.7413 496.697 30.0107 497.188 29.072C497.679 28.1227 497.924 27.0347 497.924 25.808C497.924 24.5813 497.679 23.4933 497.188 22.544C496.697 21.5947 496.02 20.8587 495.156 20.336C494.303 19.8133 493.343 19.552 492.276 19.552C491.209 19.552 490.244 19.8133 489.38 20.336C488.516 20.8587 487.833 21.5947 487.332 22.544C486.841 23.4933 486.596 24.5813 486.596 25.808ZM504.831 11.6H507.391V25.296L514.815 17.616H517.999L510.527 25.424L518.287 34H514.991L507.391 25.744V34H504.831V11.6ZM526.177 34.384C524.939 34.384 523.819 34.1867 522.817 33.792C521.825 33.3973 521.03 32.848 520.433 32.144C519.846 31.4293 519.531 30.624 519.489 29.728H522.097C522.139 30.2187 522.342 30.6613 522.705 31.056C523.067 31.44 523.547 31.744 524.145 31.968C524.742 32.192 525.409 32.304 526.145 32.304C526.891 32.304 527.547 32.1813 528.113 31.936C528.689 31.6907 529.131 31.3493 529.441 30.912C529.761 30.4747 529.921 29.9787 529.921 29.424C529.921 28.8267 529.75 28.3253 529.409 27.92C529.078 27.504 528.614 27.2427 528.017 27.136L524.065 26.416C522.806 26.1813 521.825 25.6747 521.121 24.896C520.417 24.1067 520.065 23.1093 520.065 21.904C520.065 21.04 520.31 20.256 520.801 19.552C521.302 18.8373 522.001 18.272 522.897 17.856C523.793 17.44 524.817 17.232 525.969 17.232C527.11 17.232 528.139 17.4187 529.057 17.792C529.974 18.1653 530.705 18.6827 531.249 19.344C531.793 20.0053 532.086 20.7413 532.129 21.552H529.521C529.489 21.1253 529.313 20.7413 528.993 20.4C528.683 20.0587 528.267 19.792 527.745 19.6C527.222 19.408 526.635 19.312 525.985 19.312C525.323 19.312 524.737 19.424 524.225 19.648C523.713 19.872 523.313 20.1813 523.025 20.576C522.747 20.96 522.609 21.3973 522.609 21.888C522.609 22.4427 522.763 22.9013 523.073 23.264C523.382 23.6267 523.835 23.8613 524.433 23.968L528.481 24.688C529.313 24.8373 530.027 25.1307 530.625 25.568C531.233 26.0053 531.691 26.5493 532.001 27.2C532.321 27.8507 532.481 28.56 532.481 29.328C532.481 30.288 532.203 31.152 531.649 31.92C531.105 32.688 530.353 33.2907 529.393 33.728C528.433 34.1653 527.361 34.384 526.177 34.384Z" fill="white"/>
</svg>
