<svg width="595" height="61" viewBox="0 0 595 61" fill="none" xmlns="http://www.w3.org/2000/svg">
<rect width="595" height="61" fill="white"/>
<rect x="15.441" y="8" width="565.147" height="46" rx="23" fill="black"/>
<path d="M114.526 40.36C112.636 40.36 110.921 39.89 109.381 38.95C107.851 38 106.646 36.7 105.766 35.05C104.886 33.39 104.446 31.54 104.446 29.5C104.446 27.46 104.886 25.615 105.766 23.965C106.646 22.305 107.851 21.005 109.381 20.065C110.921 19.115 112.636 18.64 114.526 18.64C116.106 18.64 117.581 18.97 118.951 19.63C120.331 20.29 121.461 21.185 122.341 22.315C123.231 23.445 123.766 24.68 123.946 26.02H121.486C121.306 25.07 120.881 24.205 120.211 23.425C119.551 22.635 118.721 22.01 117.721 21.55C116.731 21.09 115.666 20.86 114.526 20.86C113.086 20.86 111.791 21.23 110.641 21.97C109.491 22.71 108.591 23.735 107.941 25.045C107.291 26.355 106.966 27.84 106.966 29.5C106.966 31.16 107.291 32.645 107.941 33.955C108.591 35.265 109.491 36.29 110.641 37.03C111.791 37.77 113.086 38.14 114.526 38.14C115.846 38.14 117.036 37.87 118.096 37.33C119.166 36.79 120.011 36.04 120.631 35.08C121.251 34.11 121.571 33.02 121.591 31.81V31.63H116.041V29.38H124.111V30.91C124.111 32.68 123.691 34.285 122.851 35.725C122.021 37.165 120.876 38.3 119.416 39.13C117.956 39.95 116.326 40.36 114.526 40.36ZM135.625 40.36C134.185 40.36 132.89 40.015 131.74 39.325C130.59 38.635 129.69 37.68 129.04 36.46C128.4 35.23 128.08 33.84 128.08 32.29C128.08 30.78 128.405 29.415 129.055 28.195C129.715 26.975 130.62 26.02 131.77 25.33C132.92 24.63 134.205 24.28 135.625 24.28C137.075 24.28 138.345 24.625 139.435 25.315C140.535 26.005 141.38 26.96 141.97 28.18C142.57 29.4 142.87 30.78 142.87 32.32V32.905H130.525C130.625 33.955 130.91 34.885 131.38 35.695C131.85 36.505 132.465 37.135 133.225 37.585C133.985 38.035 134.835 38.26 135.775 38.26C136.785 38.26 137.675 38.075 138.445 37.705C139.215 37.335 139.775 36.83 140.125 36.19H142.525C142.345 36.83 141.965 37.47 141.385 38.11C140.815 38.75 140.035 39.285 139.045 39.715C138.065 40.145 136.925 40.36 135.625 40.36ZM140.38 30.925C140.18 29.525 139.67 28.42 138.85 27.61C138.04 26.8 136.975 26.395 135.655 26.395C134.765 26.395 133.965 26.58 133.255 26.95C132.545 27.31 131.96 27.835 131.5 28.525C131.04 29.205 130.735 30.005 130.585 30.925H140.38ZM151.751 40C151.021 40 150.356 39.845 149.756 39.535C149.166 39.215 148.701 38.78 148.361 38.23C148.021 37.67 147.851 37.05 147.851 36.37L147.836 26.77H145.136L145.151 24.64H146.816C147.196 24.64 147.501 24.52 147.731 24.28C147.971 24.04 148.091 23.735 148.091 23.365V20.89H150.251V24.64H153.956L153.941 26.77H150.236L150.251 36.22C150.251 36.69 150.406 37.085 150.716 37.405C151.036 37.715 151.431 37.87 151.901 37.87H153.941V40H151.751ZM170.607 40.36C169.447 40.36 168.397 40.175 167.457 39.805C166.527 39.435 165.782 38.92 165.222 38.26C164.672 37.59 164.377 36.835 164.337 35.995H166.782C166.822 36.455 167.012 36.87 167.352 37.24C167.692 37.6 168.142 37.885 168.702 38.095C169.262 38.305 169.887 38.41 170.577 38.41C171.277 38.41 171.892 38.295 172.422 38.065C172.962 37.835 173.377 37.515 173.667 37.105C173.967 36.695 174.117 36.23 174.117 35.71C174.117 35.15 173.957 34.68 173.637 34.3C173.327 33.91 172.892 33.665 172.332 33.565L168.627 32.89C167.447 32.67 166.527 32.195 165.867 31.465C165.207 30.725 164.877 29.79 164.877 28.66C164.877 27.85 165.107 27.115 165.567 26.455C166.037 25.785 166.692 25.255 167.532 24.865C168.372 24.475 169.332 24.28 170.412 24.28C171.482 24.28 172.447 24.455 173.307 24.805C174.167 25.155 174.852 25.64 175.362 26.26C175.872 26.88 176.147 27.57 176.187 28.33H173.742C173.712 27.93 173.547 27.57 173.247 27.25C172.957 26.93 172.567 26.68 172.077 26.5C171.587 26.32 171.037 26.23 170.427 26.23C169.807 26.23 169.257 26.335 168.777 26.545C168.297 26.755 167.922 27.045 167.652 27.415C167.392 27.775 167.262 28.185 167.262 28.645C167.262 29.165 167.407 29.595 167.697 29.935C167.987 30.275 168.412 30.495 168.972 30.595L172.767 31.27C173.547 31.41 174.217 31.685 174.777 32.095C175.347 32.505 175.777 33.015 176.067 33.625C176.367 34.235 176.517 34.9 176.517 35.62C176.517 36.52 176.257 37.33 175.737 38.05C175.227 38.77 174.522 39.335 173.622 39.745C172.722 40.155 171.717 40.36 170.607 40.36ZM185.501 40C184.771 40 184.106 39.845 183.506 39.535C182.916 39.215 182.451 38.78 182.111 38.23C181.771 37.67 181.601 37.05 181.601 36.37L181.586 26.77H178.886L178.901 24.64H180.566C180.946 24.64 181.251 24.52 181.481 24.28C181.721 24.04 181.841 23.735 181.841 23.365V20.89H184.001V24.64H187.706L187.691 26.77H183.986L184.001 36.22C184.001 36.69 184.156 37.085 184.466 37.405C184.786 37.715 185.181 37.87 185.651 37.87H187.691V40H185.501ZM197.29 24.28C198.45 24.28 199.47 24.495 200.35 24.925C201.23 25.345 201.91 25.965 202.39 26.785C202.88 27.595 203.125 28.56 203.125 29.68V40H200.785V37.495C200.355 38.425 199.725 39.135 198.895 39.625C198.065 40.115 197.08 40.36 195.94 40.36C194.96 40.36 194.075 40.17 193.285 39.79C192.495 39.41 191.875 38.885 191.425 38.215C190.975 37.545 190.75 36.785 190.75 35.935C190.75 35.135 190.955 34.4 191.365 33.73C191.785 33.05 192.36 32.495 193.09 32.065C193.83 31.635 194.66 31.37 195.58 31.27L199.675 30.82C200.015 30.78 200.28 30.64 200.47 30.4C200.66 30.16 200.755 29.81 200.755 29.35C200.755 28.74 200.61 28.205 200.32 27.745C200.03 27.285 199.62 26.93 199.09 26.68C198.57 26.42 197.965 26.29 197.275 26.29C196.585 26.29 195.965 26.41 195.415 26.65C194.865 26.88 194.42 27.195 194.08 27.595C193.75 27.985 193.55 28.41 193.48 28.87H191.08C191.2 28 191.54 27.22 192.1 26.53C192.67 25.83 193.405 25.28 194.305 24.88C195.205 24.48 196.2 24.28 197.29 24.28ZM193.24 35.8C193.24 36.32 193.375 36.78 193.645 37.18C193.925 37.58 194.31 37.895 194.8 38.125C195.29 38.345 195.85 38.455 196.48 38.455C197.34 38.455 198.09 38.28 198.73 37.93C199.38 37.58 199.88 37.09 200.23 36.46C200.58 35.82 200.755 35.085 200.755 34.255V32.5L195.91 33.04C195.11 33.13 194.465 33.43 193.975 33.94C193.485 34.45 193.24 35.07 193.24 35.8ZM207.93 24.64H210.33V27.19C210.82 26.32 211.455 25.655 212.235 25.195C213.015 24.725 213.91 24.49 214.92 24.49H215.46V26.995H214.83C213.92 26.995 213.125 27.17 212.445 27.52C211.765 27.87 211.24 28.37 210.87 29.02C210.51 29.66 210.33 30.415 210.33 31.285V40H207.93V24.64ZM222.117 40C220.987 40 220.102 39.705 219.462 39.115C218.832 38.525 218.517 37.71 218.517 36.67V20.8H220.917V24.64H224.532L224.517 26.77H220.902L220.917 36.52C220.917 36.94 221.037 37.27 221.277 37.51C221.517 37.75 221.847 37.87 222.267 37.87H224.517V40H222.117ZM234.707 40.36C233.267 40.36 231.972 40.015 230.822 39.325C229.672 38.635 228.772 37.68 228.122 36.46C227.482 35.23 227.162 33.84 227.162 32.29C227.162 30.78 227.487 29.415 228.137 28.195C228.797 26.975 229.702 26.02 230.852 25.33C232.002 24.63 233.287 24.28 234.707 24.28C236.157 24.28 237.427 24.625 238.517 25.315C239.617 26.005 240.462 26.96 241.052 28.18C241.652 29.4 241.952 30.78 241.952 32.32V32.905H229.607C229.707 33.955 229.992 34.885 230.462 35.695C230.932 36.505 231.547 37.135 232.307 37.585C233.067 38.035 233.917 38.26 234.857 38.26C235.867 38.26 236.757 38.075 237.527 37.705C238.297 37.335 238.857 36.83 239.207 36.19H241.607C241.427 36.83 241.047 37.47 240.467 38.11C239.897 38.75 239.117 39.285 238.127 39.715C237.147 40.145 236.007 40.36 234.707 40.36ZM239.462 30.925C239.262 29.525 238.752 28.42 237.932 27.61C237.122 26.8 236.057 26.395 234.737 26.395C233.847 26.395 233.047 26.58 232.337 26.95C231.627 27.31 231.042 27.835 230.582 28.525C230.122 29.205 229.817 30.005 229.667 30.925H239.462ZM257.568 37.45C256.988 38.38 256.213 39.1 255.243 39.61C254.283 40.11 253.188 40.36 251.958 40.36C250.528 40.36 249.253 40.025 248.133 39.355C247.023 38.675 246.153 37.725 245.523 36.505C244.903 35.285 244.593 33.89 244.593 32.32C244.593 30.75 244.903 29.355 245.523 28.135C246.153 26.915 247.023 25.97 248.133 25.3C249.253 24.62 250.528 24.28 251.958 24.28C253.188 24.28 254.283 24.535 255.243 25.045C256.213 25.545 256.988 26.26 257.568 27.19V19H259.968V40H257.568V37.45ZM247.113 32.32C247.113 33.47 247.333 34.49 247.773 35.38C248.213 36.26 248.828 36.95 249.618 37.45C250.408 37.94 251.313 38.185 252.333 38.185C253.273 38.185 254.118 37.98 254.868 37.57C255.628 37.15 256.238 36.565 256.698 35.815C257.168 35.055 257.458 34.175 257.568 33.175V31.465C257.458 30.465 257.168 29.59 256.698 28.84C256.238 28.08 255.628 27.495 254.868 27.085C254.118 26.665 253.273 26.455 252.333 26.455C251.313 26.455 250.408 26.705 249.618 27.205C248.828 27.695 248.213 28.385 247.773 29.275C247.333 30.155 247.113 31.17 247.113 32.32ZM270.126 24.64H272.706L276.321 35.68L276.666 36.985L276.981 35.68L280.776 24.64H283.071L286.941 35.68L287.286 36.985L287.601 35.68L291.126 24.64H293.646L288.381 40H286.011L282.216 28.45L281.931 27.385L281.676 28.42L277.731 40H275.391L270.126 24.64ZM296.992 24.64H299.392V40H296.992V24.64ZM299.602 19V21.85H296.782V19H299.602ZM309.574 40C308.844 40 308.179 39.845 307.579 39.535C306.989 39.215 306.524 38.78 306.184 38.23C305.844 37.67 305.674 37.05 305.674 36.37L305.659 26.77H302.959L302.974 24.64H304.639C305.019 24.64 305.324 24.52 305.554 24.28C305.794 24.04 305.914 23.735 305.914 23.365V20.89H308.074V24.64H311.779L311.764 26.77H308.059L308.074 36.22C308.074 36.69 308.229 37.085 308.539 37.405C308.859 37.715 309.254 37.87 309.724 37.87H311.764V40H309.574ZM315.947 19H318.257V27.13C318.777 26.21 319.467 25.505 320.327 25.015C321.197 24.525 322.202 24.28 323.342 24.28C324.442 24.28 325.417 24.515 326.267 24.985C327.117 25.455 327.782 26.15 328.262 27.07C328.752 27.98 328.997 29.075 328.997 30.355V40H326.597V30.595C326.597 29.265 326.252 28.23 325.562 27.49C324.872 26.75 323.922 26.38 322.712 26.38C321.852 26.38 321.092 26.57 320.432 26.95C319.772 27.33 319.257 27.865 318.887 28.555C318.527 29.235 318.347 30.015 318.347 30.895V40H315.947V19ZM371.449 19H373.849V28.84L383.689 19H386.959L376.774 29.14L387.139 40H383.779L373.849 29.62V40H371.449V19ZM395.568 40.36C394.108 40.36 392.778 40.015 391.578 39.325C390.388 38.625 389.448 37.665 388.758 36.445C388.078 35.215 387.738 33.84 387.738 32.32C387.738 30.8 388.078 29.43 388.758 28.21C389.448 26.98 390.393 26.02 391.593 25.33C392.793 24.63 394.123 24.28 395.583 24.28C397.043 24.28 398.368 24.63 399.558 25.33C400.748 26.02 401.683 26.975 402.363 28.195C403.053 29.415 403.398 30.79 403.398 32.32C403.398 33.85 403.053 35.225 402.363 36.445C401.683 37.665 400.748 38.625 399.558 39.325C398.368 40.015 397.038 40.36 395.568 40.36ZM390.258 32.32C390.258 33.47 390.488 34.49 390.948 35.38C391.418 36.26 392.058 36.945 392.868 37.435C393.688 37.925 394.598 38.17 395.598 38.17C396.598 38.17 397.498 37.925 398.298 37.435C399.098 36.945 399.728 36.26 400.188 35.38C400.648 34.49 400.878 33.47 400.878 32.32C400.878 31.17 400.648 30.15 400.188 29.26C399.728 28.37 399.093 27.68 398.283 27.19C397.483 26.7 396.583 26.455 395.583 26.455C394.583 26.455 393.678 26.7 392.868 27.19C392.058 27.68 391.418 28.37 390.948 29.26C390.488 30.15 390.258 31.17 390.258 32.32ZM413.878 40.36C412.418 40.36 411.088 40.015 409.888 39.325C408.698 38.625 407.758 37.665 407.068 36.445C406.388 35.215 406.048 33.84 406.048 32.32C406.048 30.8 406.388 29.43 407.068 28.21C407.758 26.98 408.703 26.02 409.903 25.33C411.103 24.63 412.433 24.28 413.893 24.28C415.353 24.28 416.678 24.63 417.868 25.33C419.058 26.02 419.993 26.975 420.673 28.195C421.363 29.415 421.708 30.79 421.708 32.32C421.708 33.85 421.363 35.225 420.673 36.445C419.993 37.665 419.058 38.625 417.868 39.325C416.678 40.015 415.348 40.36 413.878 40.36ZM408.568 32.32C408.568 33.47 408.798 34.49 409.258 35.38C409.728 36.26 410.368 36.945 411.178 37.435C411.998 37.925 412.908 38.17 413.908 38.17C414.908 38.17 415.808 37.925 416.608 37.435C417.408 36.945 418.038 36.26 418.498 35.38C418.958 34.49 419.188 33.47 419.188 32.32C419.188 31.17 418.958 30.15 418.498 29.26C418.038 28.37 417.403 27.68 416.593 27.19C415.793 26.7 414.893 26.455 413.893 26.455C412.893 26.455 411.988 26.7 411.178 27.19C410.368 27.68 409.728 28.37 409.258 29.26C408.798 30.15 408.568 31.17 408.568 32.32ZM431.829 45.16C430.709 45.16 429.674 44.985 428.724 44.635C427.774 44.285 426.984 43.79 426.354 43.15C425.724 42.51 425.319 41.77 425.139 40.93H427.539C427.859 41.62 428.404 42.145 429.174 42.505C429.954 42.875 430.814 43.06 431.754 43.06C432.734 43.06 433.589 42.86 434.319 42.46C435.059 42.07 435.629 41.52 436.029 40.81C436.429 40.1 436.629 39.28 436.629 38.35V37.72L436.674 36.175C436.074 37.025 435.309 37.685 434.379 38.155C433.459 38.625 432.444 38.86 431.334 38.86C430.034 38.86 428.859 38.55 427.809 37.93C426.759 37.3 425.934 36.435 425.334 35.335C424.734 34.225 424.434 32.975 424.434 31.585C424.434 30.195 424.734 28.945 425.334 27.835C425.934 26.725 426.759 25.855 427.809 25.225C428.859 24.595 430.034 24.28 431.334 24.28C432.464 24.28 433.499 24.53 434.439 25.03C435.379 25.52 436.149 26.21 436.749 27.1V24.64H439.074L439.029 38.35C439.029 39.68 438.729 40.86 438.129 41.89C437.529 42.93 436.684 43.735 435.594 44.305C434.504 44.875 433.249 45.16 431.829 45.16ZM426.954 31.585C426.954 32.555 427.159 33.435 427.569 34.225C427.989 35.015 428.569 35.635 429.309 36.085C430.049 36.535 430.879 36.76 431.799 36.76C432.709 36.76 433.529 36.535 434.259 36.085C434.999 35.635 435.584 35.015 436.014 34.225C436.444 33.435 436.659 32.555 436.659 31.585C436.659 30.605 436.444 29.72 436.014 28.93C435.584 28.14 434.999 27.52 434.259 27.07C433.529 26.61 432.709 26.38 431.799 26.38C430.879 26.38 430.049 26.61 429.309 27.07C428.569 27.52 427.989 28.14 427.569 28.93C427.159 29.72 426.954 30.605 426.954 31.585ZM458.322 30.835H444.297V28.6H458.322V22.93L465.657 29.695L458.322 36.58V30.835Z" fill="white"/>
<g clip-path="url(#clip0_461_24)">
<path d="M360.429 40H340.429V19H360.429L350.223 29.3458L360.429 40Z" fill="white"/>
</g>
<defs>
<clipPath id="clip0_461_24">
<rect width="20" height="21" fill="white" transform="translate(340.429 19)"/>
</clipPath>
</defs>
</svg>
