<svg width="100" height="100" viewBox="0 0 100 100" fill="none" xmlns="http://www.w3.org/2000/svg">
<path d="M81.6339 19.4634L62.1664 0L42.699 19.4634L62.1664 38.9267V19.4634C62.1664 19.4634 81.9695 19.1517 81.6339 19.4634Z" fill="#25A4F2"/>
<path d="M93.6211 50.9115V23.3944H66.0981V50.9115L79.8596 37.153C79.8596 37.153 94.0766 50.9115 93.6211 50.9115Z" fill="#25A4F2"/>
<path d="M79.8595 81.6407L99.327 62.1773L79.8595 42.714L60.3921 62.1773H79.8595C79.8595 62.1773 80.1712 81.9523 79.8595 81.6407Z" fill="#25A4F2"/>
<path d="M48.4048 93.6256H75.9277V66.0845H48.4048L62.1662 79.8431C62.1662 79.867 48.4048 94.081 48.4048 93.6256Z" fill="#25A4F2"/>
<path d="M17.6692 79.867L37.1366 99.3304L56.604 79.867L37.1366 60.4037V79.867C37.1606 79.867 17.3575 80.1786 17.6692 79.867Z" fill="#25A4F2"/>
<path d="M5.6816 48.4188V75.9359H33.2285V48.4188L19.467 62.1774C19.467 62.1774 5.22608 48.4188 5.6816 48.4188Z" fill="#25A4F2"/>
<path d="M19.4674 17.6897L0 37.153L19.4674 56.6163L38.9349 37.153H19.4674C19.4674 37.153 19.1318 17.3781 19.4674 17.6897Z" fill="#25A4F2"/>
<path d="M50.9221 5.70493H23.3752V33.246H50.8982L37.1367 19.4874C37.1367 19.4635 50.9221 5.24951 50.9221 5.70493Z" fill="#221F3A"/>
</svg>
