<svg width="24" height="24" viewBox="0 0 24 24" fill="none" xmlns="http://www.w3.org/2000/svg">
    <g clip-path="url(#clip0)">
        <path d="M21.4411 3.88012C21.4265 5.32634 20.9876 6.73643 20.1789 7.93548L16.4132 13.3207L13.7165 9.66991L20.2612 -0.199951C21.0455 1.01521 21.4558 2.4339 21.4411 3.88012Z" fill="#F8873C"/>
        <path fill-rule="evenodd" clip-rule="evenodd" d="M21.7912 19.3676C21.6662 18.7566 21.3969 18.1843 21.0058 17.6985C20.6146 17.2128 20.113 16.8276 19.5427 16.5751C18.9724 16.3226 18.3501 16.2102 17.7275 16.2471C17.1049 16.2841 16.5002 16.4694 15.9638 16.7876L3.61414 -0.162695C2.82983 1.05247 2.41954 2.47116 2.43418 3.91738C2.44881 5.36359 2.88773 6.77369 3.69646 7.97273C3.84003 8.18294 3.99429 8.38563 4.15865 8.58L14.9736 22.7174C15.5406 23.3759 16.3101 23.8275 17.1615 24.0015C18.0128 24.1755 18.8978 24.0619 19.6777 23.6788C20.4576 23.2956 21.0882 22.6643 21.4707 21.8841C21.8533 21.1039 21.966 20.2188 21.7912 19.3676ZM18.1151 22.029C17.7456 22.0613 17.3748 21.9833 17.0496 21.8049C16.7244 21.6265 16.4594 21.3556 16.2882 21.0266C16.1169 20.6976 16.047 20.3252 16.0874 19.9565C16.1278 19.5877 16.2766 19.2393 16.515 18.9551C16.7535 18.671 17.0708 18.4639 17.4269 18.3601C17.783 18.2563 18.1619 18.2604 18.5157 18.372C18.8694 18.4835 19.1822 18.6974 19.4143 18.9867C19.6465 19.276 19.7877 19.6276 19.8201 19.9971C19.8628 20.4925 19.7074 20.9847 19.3877 21.3656C19.0681 21.7465 18.6104 21.9851 18.1151 22.029Z" fill="#F8873C"/>
        <path fill-rule="evenodd" clip-rule="evenodd" d="M6.26178 16.2558C5.48945 16.1882 4.71443 16.3512 4.03473 16.7241C3.35502 17.097 2.80117 17.6631 2.44319 18.3508C2.08521 19.0385 1.9392 19.8169 2.02361 20.5875C2.10802 21.3582 2.41907 22.0865 2.91742 22.6804C3.41576 23.2743 4.07903 23.7071 4.82334 23.924C5.56764 24.141 6.35957 24.1323 7.09896 23.8992C7.83836 23.6661 8.49201 23.2189 8.97727 22.6143C9.46253 22.0096 9.7576 21.2747 9.82516 20.5024C9.91455 19.467 9.58958 18.4384 8.92155 17.6423C8.25352 16.8462 7.29698 16.3475 6.26178 16.2558ZM7.78852 20.3242C7.75621 20.6937 7.61504 21.0454 7.38287 21.3347C7.1507 21.624 6.83795 21.8379 6.48418 21.9495C6.13041 22.061 5.7515 22.0652 5.39538 21.9614C5.03925 21.8576 4.7219 21.6505 4.48345 21.3664C4.24501 21.0822 4.09618 20.7338 4.05579 20.365C4.0154 19.9963 4.08526 19.6238 4.25654 19.2948C4.42782 18.9658 4.69282 18.6949 5.01803 18.5165C5.34325 18.3381 5.71407 18.2601 6.0836 18.2924C6.57889 18.3363 7.03656 18.5749 7.35618 18.9558C7.67581 19.3367 7.83129 19.8288 7.78852 20.3242Z" fill="#F8873C"/>
    </g>
    <defs>
        <clipPath id="clip0">
            <path d="M0 0H24V24H0V0Z" fill="white"/>
        </clipPath>
    </defs>
</svg>
