<svg width="22" height="22" viewBox="0 0 22 22" fill="none" xmlns="http://www.w3.org/2000/svg">
    <path d="M18.0455 10.1416H17.0466V4.98143H11.7532V3.74927C11.7508 2.91481 11.4176 2.11523 10.8266 1.52517C10.2355 0.935115 9.43462 0.602542 8.59876 0.600098C7.7629 0.602549 6.96194 0.935124 6.37089 1.52518C5.77985 2.11523 5.44673 2.91481 5.44428 3.74927V4.98144H0.399994V10.1416H3.452C4.28862 10.1416 5.09097 10.4734 5.68254 11.064C6.27412 11.6545 6.60646 12.4556 6.60646 13.2908C6.60646 14.126 6.27412 14.927 5.68254 15.5176C5.09097 16.1082 4.28862 16.4399 3.452 16.4399H0.399994V21.6001H17.0466V16.4399H18.0455C18.8821 16.4399 19.6845 16.1082 20.2761 15.5176C20.8676 14.927 21.2 14.126 21.2 13.2908C21.2 12.4556 20.8676 11.6545 20.2761 11.064C19.6845 10.4734 18.8821 10.1416 18.0455 10.1416Z" fill="#F8873C"/>
</svg>
