<svg width="22" height="22" viewBox="0 0 22 22" fill="none" xmlns="http://www.w3.org/2000/svg">
    <path d="M20.9502 5.05858L15.6095 10.3993L11.7057 6.49557L17.1374 1.06388C15.6549 0.32193 13.9817 0.0485253 12.3402 0.279975C10.6986 0.511424 9.16629 1.23678 7.94672 2.3597C6.72716 3.48262 5.87805 4.94998 5.51216 6.56689C5.14628 8.18381 5.28093 9.87378 5.89824 11.4124L1.18886 16.1217C0.555511 16.7588 0.200012 17.6206 0.200012 18.5189C0.200012 19.4172 0.555511 20.2791 1.18886 20.9161C1.82591 21.5495 2.68776 21.905 3.58607 21.905C4.48438 21.905 5.34619 21.5495 5.98324 20.9161L10.8082 16.0912C12.3124 16.612 13.936 16.6821 15.4795 16.2929C17.023 15.9036 18.4191 15.072 19.4964 13.9001C20.5737 12.7282 21.2852 11.2671 21.5435 9.6964C21.8017 8.12568 21.5955 6.51372 20.9502 5.05858Z" fill="#F8873C"/>
</svg>
