<svg width="102" height="41" viewBox="0 0 102 41" fill="none" xmlns="http://www.w3.org/2000/svg">
<g clip-path="url(#clip0_114_2776)">
<path d="M53.1066 18.3814C52.8614 18.4539 52.6116 18.51 52.3589 18.5494C52.0565 18.6018 51.7203 18.6427 51.3531 18.6783C50.9895 18.7191 50.6099 18.7476 50.2134 18.7636C49.8284 18.784 49.4435 18.7947 49.0586 18.7956C48.1805 18.8054 47.3015 18.7449 46.4323 18.6143C45.6367 18.4836 44.9254 18.2694 44.3071 17.9583C43.6949 17.6558 43.1579 17.22 42.7355 16.6827C42.3071 16.1396 41.9798 15.4516 41.758 14.6214C41.5363 13.7947 41.4219 12.7947 41.4219 11.6294V8.0827C41.4219 6.91648 41.5354 5.91648 41.758 5.08981C41.9798 4.25959 42.3079 3.57159 42.7355 3.02936C43.158 2.49217 43.695 2.05637 44.3071 1.75381C44.9254 1.44181 45.6367 1.22314 46.4323 1.09692C47.2243 0.972475 48.1007 0.911141 49.0577 0.914697C49.824 0.914697 50.5895 0.95203 51.3522 1.02759C51.7203 1.06403 52.0565 1.10936 52.3589 1.16181C52.6578 1.20981 52.9088 1.2667 53.1066 1.32714V4.41248C52.9088 4.39292 52.6463 4.37692 52.3235 4.35648C51.9763 4.33377 51.6289 4.31481 51.2813 4.29959C50.6136 4.26662 49.9453 4.24765 49.2768 4.2427C48.8563 4.23679 48.4357 4.25014 48.0164 4.2827C47.6755 4.30715 47.3411 4.38794 47.0266 4.52181C46.7392 4.64714 46.505 4.8507 46.3108 5.12536C46.121 5.39648 45.9799 5.77248 45.8833 6.25425C45.7857 6.73248 45.7378 7.33959 45.7378 8.08092V11.6276C45.7378 12.3645 45.7857 12.976 45.8833 13.4543C45.9808 13.9316 46.121 14.3076 46.3108 14.5831C46.5059 14.8587 46.7392 15.0614 47.0266 15.1876C47.3095 15.312 47.6403 15.3894 48.0164 15.4258C48.3916 15.4578 48.812 15.4703 49.2759 15.4667C49.8143 15.4623 50.4112 15.4383 51.0622 15.3929C51.7168 15.3485 52.3988 15.3005 53.1066 15.2471V18.3814ZM68.9512 12.3076C68.9512 13.5431 68.7934 14.5796 68.4865 15.4223C68.176 16.2685 67.7192 16.9396 67.1135 17.4463C66.5077 17.9529 65.76 18.3174 64.8712 18.5396C63.9825 18.7618 62.9598 18.8711 61.8006 18.8676C60.6404 18.8711 59.6187 18.7618 58.7264 18.5387C57.8377 18.3165 57.0855 17.952 56.4753 17.4463C55.8695 16.9396 55.4092 16.2685 55.0943 15.4223C54.783 14.5796 54.6251 13.5431 54.6251 12.3076V1.20536H58.9153V12.2356C58.9118 13.008 58.9925 13.6285 59.1663 14.0978C59.3402 14.5636 59.6391 14.9031 60.063 15.1094C60.4835 15.3209 61.0618 15.4214 61.8006 15.4178C62.5403 15.4214 63.1177 15.32 63.5417 15.1094C63.9621 14.9031 64.261 14.5636 64.4348 14.0978C64.6087 13.6285 64.6938 13.008 64.685 12.2356V1.20625H68.9512V12.3085V12.3076ZM84.9661 13.6205C84.9661 14.4827 84.8694 15.2027 84.6805 15.7894C84.4907 16.3769 84.1998 16.8507 83.8157 17.2151C83.4272 17.5796 82.943 17.8551 82.3611 18.0445C81.7757 18.2347 81.0928 18.3645 80.3087 18.4294C79.5211 18.4987 78.6359 18.5307 77.6461 18.5271H71.1739V1.20447H77.8882C78.7202 1.20092 79.4918 1.22581 80.2032 1.28181C80.9101 1.3387 81.5522 1.44803 82.1181 1.61425C82.6489 1.76021 83.1449 2.01206 83.5763 2.3547C83.9763 2.67825 84.2832 3.11203 84.4978 3.6507C84.7116 4.18403 84.8207 4.85248 84.8207 5.6507V6.23381C84.8271 6.69091 84.774 7.1469 84.6628 7.59025C84.5555 8.00892 84.3568 8.39914 84.0818 8.73248C83.8033 9.07203 83.4113 9.3547 82.9057 9.58581C83.4672 9.78137 83.8956 10.0365 84.1945 10.3476C84.4934 10.6631 84.7 11.0285 84.8082 11.4454C84.9218 11.8658 84.9741 12.3316 84.9661 12.8418V13.6205ZM80.7486 13.6205V12.8427C80.7575 12.336 80.6715 11.944 80.5065 11.664C80.3362 11.3849 80.0453 11.1903 79.6373 11.0809C79.2257 10.9725 78.6599 10.9191 77.937 10.9236H75.3675V15.5636H77.8394C78.5552 15.568 79.1246 15.5191 79.553 15.4178C79.9805 15.312 80.2874 15.1183 80.4737 14.8347C80.6599 14.5556 80.7522 14.1503 80.7486 13.6205ZM80.675 6.40536V5.82225C80.6795 5.5147 80.6466 5.25514 80.5739 5.04892C80.5052 4.84318 80.3664 4.66823 80.1819 4.5547C79.9885 4.43381 79.7136 4.34848 79.3579 4.29603C78.9987 4.2427 78.5339 4.2187 77.96 4.2187H75.3666V8.34848H77.96C78.5135 8.34848 78.9712 8.31203 79.326 8.23559C79.6807 8.1627 79.9557 8.04536 80.1544 7.88714C80.3522 7.72892 80.4896 7.52714 80.5668 7.28359C80.6431 7.03736 80.6795 6.74581 80.675 6.40536ZM101.756 18.5271H97.2239L96.1329 14.3485H91.2857L90.1708 18.5271H85.6127L90.2914 1.20625H97.0544L101.756 18.5271ZM95.5262 11.1911L94.3146 6.40536C94.1931 5.93243 94.0866 5.45574 93.9953 4.97603C93.9022 4.49425 93.8171 4.02848 93.7328 3.58759H93.6352C93.5545 4.02848 93.4703 4.49425 93.3851 4.97603C93.3001 5.45605 93.1978 5.93281 93.0782 6.40536L91.8418 11.1911H95.5262Z" fill="white"/>
<path d="M43.4162 36.8152V34.328H41.6875V36.8152H43.4162ZM52.1899 33.0303V30.5423C52.1899 29.84 52.1305 29.2436 52.0081 28.7574C51.8875 28.272 51.6986 27.8792 51.4467 27.5832C51.1892 27.2833 50.8549 27.0595 50.4799 26.936C50.0852 26.8027 49.6178 26.7352 49.0785 26.7378C48.7991 26.7378 48.4896 26.7752 48.1499 26.8436C47.7974 26.9153 47.4506 27.0124 47.1121 27.1343C46.7795 27.2534 46.4567 27.4 46.148 27.5734V26.96H44.6189V40.6L46.2926 40.3218V36.9076C46.5702 36.9538 46.8753 36.9876 47.2088 37.0072C47.5432 37.0276 47.8829 37.0374 48.2226 37.0374C48.7016 37.0409 49.145 37.0107 49.5504 36.9414C49.9318 36.8854 50.3025 36.768 50.6493 36.5947C50.9748 36.4258 51.2586 36.1858 51.4804 35.8898C51.7101 35.5903 51.884 35.2027 52.0055 34.7352C52.1261 34.2658 52.1899 33.6969 52.1899 33.0285V33.0303ZM50.4985 32.992C50.4985 33.5583 50.44 34.0187 50.3309 34.3689C50.2218 34.7218 50.0648 34.9912 49.8608 35.1769C49.6541 35.3636 49.404 35.4934 49.1335 35.5538C48.8231 35.6214 48.5055 35.6516 48.1871 35.6463C47.8075 35.6463 47.4279 35.632 47.0491 35.6063C46.8247 35.5867 46.5649 35.5663 46.2775 35.5352V28.744C46.517 28.6258 46.7795 28.5209 47.0625 28.4285C47.3463 28.3352 47.6319 28.2649 47.9175 28.2116C48.2013 28.1592 48.4701 28.1316 48.7157 28.1316C49.1947 28.128 49.5646 28.2089 49.8253 28.376C50.0825 28.5423 50.2626 28.8169 50.3593 29.2045C50.4595 29.5876 50.5047 30.1014 50.4985 30.7476V32.992ZM54.9227 36.8152V22.8969L53.249 23.1752V36.8152H54.9227ZM63.1864 36.8152V30.1538C63.1924 29.7367 63.1663 29.3198 63.1084 28.9067C63.0645 28.5723 62.9631 28.2481 62.8086 27.9485C62.6649 27.6729 62.4538 27.4409 62.1966 27.2729C61.9314 27.0943 61.5917 26.9583 61.1766 26.8712C60.7606 26.7823 60.2542 26.7378 59.6572 26.7378C59.016 26.7446 58.3762 26.7996 57.7432 26.9023C57.3508 26.9659 56.9628 27.0538 56.5813 27.1654V28.2792C56.6753 28.2632 56.8243 28.2472 57.0239 28.2258C57.5376 28.1755 58.0525 28.1385 58.5681 28.1147C58.8616 28.0996 59.1534 28.0934 59.439 28.0934C59.8914 28.0898 60.255 28.1209 60.53 28.1823C60.8058 28.2445 61.0161 28.3503 61.1589 28.5049C61.3008 28.656 61.3948 28.8667 61.4471 29.136C61.495 29.4009 61.5163 29.7414 61.5136 30.1538V30.896L59.9109 31.0809C59.2652 31.1556 58.6958 31.2418 58.1991 31.344C57.7024 31.4463 57.2873 31.592 56.9511 31.784C56.6114 31.9752 56.3569 32.2418 56.1883 32.5814C56.0145 32.9218 55.9267 33.3698 55.9267 33.9209V34.6258C55.9294 35.192 56.0287 35.6552 56.2265 36.0116C56.4261 36.3645 56.7179 36.6267 57.1001 36.7912C57.4798 36.9574 57.9463 37.0418 58.4918 37.0383C59.0406 37.0338 59.5852 36.9433 60.106 36.7698C60.6534 36.588 61.18 36.3485 61.6768 36.0552V36.816H63.1873L63.1864 36.8152ZM61.5491 35.0703C61.4033 35.1552 61.2522 35.2306 61.0968 35.296C60.8876 35.387 60.6745 35.4686 60.4582 35.5405C60.2213 35.6178 59.9748 35.6827 59.722 35.7325C59.4683 35.7858 59.2235 35.8098 58.984 35.8125C58.7337 35.8207 58.4836 35.7886 58.2434 35.7174C58.0381 35.6547 57.8617 35.5208 57.7458 35.3396C57.627 35.1565 57.5658 34.8952 57.564 34.5512V33.976C57.5614 33.6418 57.5995 33.3725 57.6793 33.1689C57.7591 32.9672 57.894 32.8098 58.0838 32.6978C58.27 32.5867 58.5281 32.5005 58.8528 32.4383C59.1809 32.3769 59.5872 32.3209 60.0759 32.2694L61.5491 32.1014V35.0703ZM69.4333 36.7965V35.6463C69.3322 35.6587 69.2027 35.6703 69.0412 35.6836C68.8798 35.6925 68.7069 35.7014 68.525 35.7085C68.3459 35.7174 68.1738 35.72 68.0133 35.72C67.7117 35.7236 67.4917 35.6934 67.3463 35.6249C67.2717 35.5902 67.2064 35.5385 67.1555 35.4737C67.1047 35.409 67.0697 35.3332 67.0536 35.2525C67.0092 35.0738 66.9906 34.8143 66.9941 34.4765V28.3343H69.451L69.851 26.9609H66.9941V24.4383L65.3187 24.7352V26.9618H63.4809V28.3352H65.3187V34.5512C65.316 35.1894 65.3896 35.6898 65.5404 36.0552C65.6912 36.4169 65.944 36.6729 66.2934 36.8223C66.642 36.9707 67.1121 37.0445 67.7037 37.0383C67.9556 37.0383 68.1951 37.0232 68.4221 36.9947C68.651 36.9707 68.8541 36.9369 69.0297 36.9032C69.2053 36.8658 69.3384 36.8276 69.4333 36.7965ZM75.5134 26.9609H72.8374V25.8107C72.8334 25.5547 72.8426 25.2987 72.8649 25.0436C72.8862 24.8276 72.9323 24.6507 73.0042 24.5103C73.0759 24.3712 73.1943 24.262 73.3385 24.2018C73.4875 24.1343 73.6898 24.1032 73.9488 24.1032C74.1333 24.1032 74.3213 24.1032 74.5155 24.1094C74.8486 24.1136 75.1814 24.13 75.5134 24.1583V23.064C75.3511 23.0223 75.1871 22.9873 75.022 22.9592C74.8025 22.9197 74.5819 22.8874 74.3603 22.8623C74.1208 22.8369 73.8801 22.8235 73.6392 22.8223C73.0937 22.8258 72.6529 22.8969 72.3185 23.0445C71.9886 23.1903 71.7376 23.3938 71.5664 23.6605C71.389 23.9476 71.2719 24.2703 71.224 24.6063C71.1655 25.0045 71.1389 25.4072 71.146 25.8098V26.96H69.4164V28.3334H71.146V36.8143H72.8374V28.3343H75.1488L75.5134 26.9609ZM83.2494 33.1414V30.6356C83.2467 29.7049 83.0897 28.9538 82.7766 28.3814C82.4804 27.8196 82.0012 27.3764 81.4187 27.1254C80.8209 26.8649 80.0989 26.7352 79.2457 26.7387C78.388 26.7352 77.6624 26.8649 77.0691 27.1254C76.486 27.3761 76.0061 27.8193 75.7094 28.3814C75.3998 28.9538 75.2455 29.7049 75.2428 30.6356V33.1414C75.2455 34.0712 75.3998 34.8232 75.7094 35.3956C76.0061 35.9577 76.4859 36.401 77.0691 36.6516C77.6633 36.9112 78.388 37.0418 79.2466 37.0383C80.098 37.0409 80.8209 36.9112 81.4178 36.6507C82.0007 36.4005 82.4804 35.9575 82.7766 35.3956C83.0897 34.8232 83.2467 34.0712 83.2494 33.1414ZM81.5757 33.0294C81.5757 33.5645 81.518 34.0045 81.4072 34.3449C81.2936 34.6845 81.1367 34.9503 80.93 35.136C80.7242 35.3227 80.4777 35.4507 80.1929 35.5263C79.8825 35.6 79.565 35.6347 79.2466 35.6276C78.9272 35.6342 78.6083 35.6001 78.2975 35.5263C78.0219 35.4584 77.7668 35.3245 77.5542 35.136C77.3449 34.9494 77.1835 34.6845 77.0717 34.3449C76.9564 34.0045 76.8988 33.5645 76.8988 33.0294V30.7467C76.8988 30.2143 76.9555 29.7823 77.0717 29.4409C77.1835 29.0978 77.3449 28.8347 77.5542 28.6472C77.7657 28.4568 78.0206 28.3215 78.2966 28.2534C78.5822 28.1787 78.9006 28.1449 79.2457 28.1485C79.5925 28.1458 79.9109 28.1796 80.1921 28.2534C80.4785 28.328 80.7242 28.4578 80.93 28.6472C81.1358 28.8356 81.2936 29.0987 81.4063 29.4409C81.518 29.7814 81.5757 30.2143 81.5757 30.7458V33.0294ZM89.1672 28.3894V26.7387C89.0174 26.7378 88.8676 26.7438 88.7184 26.7565C88.094 26.8103 87.4833 26.9702 86.9125 27.2294C86.5223 27.4098 86.1542 27.6383 85.818 27.9085V26.9618H84.2721V36.816H85.9457V29.2072C86.2433 29.0096 86.5645 28.8504 86.9019 28.7334C87.215 28.6276 87.5369 28.5467 87.8633 28.4934C88.2944 28.4223 88.7308 28.3867 89.168 28.3903L89.1672 28.3894ZM102 36.816V30.0045C102.009 29.5482 101.982 29.0919 101.918 28.64C101.873 28.2771 101.753 27.9276 101.565 27.6143C101.389 27.3289 101.126 27.1129 100.78 26.9645C100.432 26.816 99.9712 26.7378 99.3973 26.7378C98.8541 26.7428 98.3168 26.8514 97.8141 27.0578C97.3039 27.2656 96.826 27.5455 96.395 27.8889C96.1972 27.4747 95.9249 27.1805 95.5754 27.0018C95.2277 26.8223 94.7905 26.7352 94.2654 26.7387C93.9319 26.7387 93.5895 26.7858 93.2427 26.8747C92.8916 26.9637 92.5505 27.0882 92.2245 27.2463C91.8875 27.4063 91.5664 27.5974 91.2621 27.8152V26.9618H89.6798V36.816H91.3535V29.0214C91.6116 28.8952 91.8821 28.7725 92.166 28.6498C92.4516 28.5272 92.7372 28.4276 93.0148 28.3476C93.2676 28.2712 93.5292 28.2303 93.7926 28.2232C94.0623 28.2205 94.2805 28.2516 94.441 28.3103C94.5918 28.3618 94.7204 28.4667 94.802 28.6063C94.8809 28.7432 94.9359 28.9263 94.9599 29.1547C94.9838 29.3832 94.9962 29.6676 94.9927 30.0045V36.8152H96.6673V30.0045C96.6673 29.8623 96.6673 29.7076 96.6646 29.544C96.6646 29.3769 96.6575 29.2063 96.6495 29.04C96.889 28.9005 97.1409 28.7707 97.4079 28.6472C97.674 28.5236 97.9445 28.4214 98.215 28.3449C98.4687 28.2694 98.7321 28.2294 98.9964 28.224C99.3636 28.2205 99.643 28.2703 99.8337 28.3778C100.028 28.4827 100.159 28.6685 100.228 28.9343C100.298 29.2009 100.33 29.5689 100.325 30.0418V36.8152L102 36.816Z" fill="#4FB2EE"/>
<path d="M36.6813 19.7104C36.6813 18.5616 36.226 17.4598 35.4156 16.6473V16.6455L31.803 13.0269C31.9786 13.6437 31.984 14.2962 31.8181 14.9166L27.6423 30.5362L27.6299 30.578L35.4156 22.7735C36.226 21.961 36.6813 20.8592 36.6813 19.7104ZM5.19522 26.3957C5.01971 25.7785 5.0145 25.1251 5.18014 24.5051L9.35593 8.88463L9.36924 8.84374L1.58265 16.6482C1.1812 17.0505 0.862754 17.5281 0.645492 18.0538C0.42823 18.5794 0.316406 19.1428 0.316406 19.7117C0.316406 20.2807 0.42823 20.8441 0.645492 21.3697C0.862754 21.8954 1.1812 22.373 1.58265 22.7753L5.19522 26.3957ZM11.8288 6.37797C12.4446 6.20172 13.0967 6.1965 13.7153 6.36286L29.3018 10.5495C29.316 10.5522 29.3284 10.5575 29.3435 10.562L21.556 2.75752C21.1546 2.3552 20.678 2.03606 20.1535 1.81833C19.629 1.60059 19.0668 1.48853 18.4991 1.48853C17.9314 1.48853 17.3692 1.60059 16.8447 1.81833C16.3202 2.03606 15.8437 2.3552 15.4422 2.75752L11.8288 6.37797ZM25.1686 33.0446C24.5533 33.2205 23.9019 33.2257 23.2838 33.0597L7.69732 28.8749C7.68313 28.8713 7.66983 28.8642 7.65564 28.8606L15.4431 36.6651C15.8445 37.0674 16.3211 37.3865 16.8456 37.6043C17.3701 37.822 17.9323 37.9341 18.5 37.9341C19.0677 37.9341 19.6299 37.822 20.1544 37.6043C20.6789 37.3865 21.1555 37.0674 21.5569 36.6651L25.1686 33.0446Z" fill="white"/>
<path d="M13.9906 29.5306C14.3294 29.5751 14.6735 29.5529 15.0035 29.464L26.3938 26.4053C27.0597 26.2258 27.6273 25.7886 27.9719 25.19C28.3165 24.5913 28.4099 23.88 28.2315 23.2124L25.1804 11.7991C25.0923 11.4683 24.94 11.1581 24.7322 10.8864C24.5244 10.6146 24.2652 10.3865 23.9694 10.2152C23.6736 10.0439 23.347 9.93276 23.0082 9.88804C22.6695 9.84332 22.3253 9.86595 21.9954 9.95463L10.6051 13.0124C9.93881 13.1916 9.37084 13.6286 9.02604 14.2273C8.68124 14.8261 8.58785 15.5375 8.7664 16.2053L11.8175 27.6213C11.9507 28.1193 12.2282 28.5665 12.615 28.9063C13.0018 29.2462 13.4805 29.4635 13.9906 29.5306Z" fill="#4FB2EE"/>
</g>
<defs>
<clipPath id="clip0_114_2776">
<rect width="102" height="40" fill="white" transform="translate(0 0.600098)"/>
</clipPath>
</defs>
</svg>
