<svg width="136" height="49" viewBox="0 0 136 49" fill="none" xmlns="http://www.w3.org/2000/svg">
<path d="M15.0059 45.6386V29.8693H18.7378V41.9305H33.1745C36.0751 41.7049 38.4699 39.2594 38.6153 36.3683V12.9485C38.4355 9.8917 35.9913 7.52231 32.8995 7.34733C32.2228 7.31161 31.5167 7.37379 30.8372 7.34729V3.69771L30.8961 3.63916H33.4102C38.1071 3.95238 42.0028 7.84411 42.3473 12.4801V36.8367C42.019 41.3752 38.1682 45.2591 33.6067 45.6386H15.0059Z" fill="#06A5E7"/>
<path d="M27.1053 3.63916V19.7012C27.1053 19.7486 26.9748 19.7749 26.9285 19.7598C25.8285 19.6949 24.6108 19.6949 23.5108 19.7598C23.4645 19.7749 23.3341 19.7486 23.3341 19.7012V7.34729H9.52585C6.54837 7.44252 4.00364 9.87144 3.81007 12.8314V36.4463C3.98165 39.2719 6.34683 41.6876 9.2509 41.9304C9.89258 41.9774 10.5875 41.8956 11.2347 41.9305V45.6386H8.81874C4.30813 45.2658 0.441709 41.4509 0.078125 36.9147V12.4021C0.438857 7.81648 4.36234 3.94162 9.01516 3.63916H27.1053Z" fill="#06A5E7"/>
<path d="M89.8398 32.8356L89.7613 38.5149L89.5059 38.6905H85.9704C85.9229 38.6586 85.7305 38.5292 85.7151 38.4759C85.704 38.4375 85.7347 38.3909 85.6758 38.3588V20.4817C85.7359 20.4507 85.7027 20.3955 85.7151 20.3646C85.7212 20.3494 85.7467 20.3417 85.7543 20.3256C85.7679 20.2968 85.7581 20.263 85.8133 20.228C85.8463 20.207 85.9377 20.1995 85.9704 20.1499H89.5452L89.8006 20.4036V21.7698L89.8988 21.9064L90.0559 21.8674C90.3806 21.5886 90.6715 21.1967 90.9987 20.9306C91.0064 20.9243 91.0298 20.9371 91.038 20.9306C92.4792 19.7904 94.5034 19.6712 96.1841 20.1889C102.653 22.2276 102.24 33.4221 95.4378 34.592C93.7416 34.9212 91.9458 34.5682 90.6452 33.4601C90.5013 33.3376 90.0973 32.8637 89.9773 32.8356C89.9388 32.8266 89.8833 32.8413 89.8398 32.8356ZM95.5753 24.3264C95.263 24.1339 94.9764 23.8508 94.6128 23.7019L94.5735 23.6629C93.8097 23.3863 93.0075 23.2943 92.2165 23.5458C92.1562 23.5649 92.0644 23.635 91.9808 23.6238C89.8758 24.5168 89.3557 27.0737 90.0755 29.0299C91.489 32.4225 96.2518 31.6407 96.5966 28.015C96.7525 26.8045 96.5526 25.5634 95.7717 24.5801C95.7059 24.4957 95.5717 24.4332 95.5753 24.3264Z" fill="white"/>
<path d="M14.1625 10.4307H19.5444C19.5806 10.4967 19.6487 10.4552 19.7015 10.4697C19.7159 10.4737 19.724 10.5011 19.7408 10.5087C19.753 10.5142 19.7716 10.5037 19.7801 10.5087C19.8133 10.5284 20.1335 10.8465 20.1533 10.8795C20.1583 10.8879 20.1477 10.9065 20.1533 10.9186C20.1609 10.9353 20.1886 10.9433 20.1925 10.9576C20.2016 10.99 20.1847 11.0393 20.1925 11.0747C20.1959 11.09 20.2297 11.0993 20.2318 11.1137C20.2563 11.2801 20.26 12.0097 20.2318 12.1676C20.2292 12.1823 20.1964 12.1911 20.1925 12.2067C20.1785 12.2632 20.1694 12.3474 20.1533 12.4018C20.1478 12.4203 20.093 12.4532 20.0747 12.4799C20.0683 12.4892 20.0806 12.5108 20.0747 12.5189C20.043 12.5622 19.9006 12.7059 19.8586 12.7336C19.8457 12.7422 19.6359 12.8472 19.6229 12.8507C19.5903 12.8596 19.4758 12.8883 19.4658 12.8897C19.3935 12.9003 19.2956 12.8752 19.2301 12.8897C19.2162 12.8928 19.2079 12.9209 19.1908 12.9288C19.1783 12.9345 19.1593 12.9238 19.1515 12.9288C19.0597 12.9872 19.0775 13.1113 19.014 13.1825V22.1991C19.0805 22.2351 19.0387 22.3027 19.0533 22.3552C19.0559 22.3645 19.1814 22.4893 19.1908 22.4918C19.2437 22.5063 19.3117 22.4648 19.3479 22.5309H25.8298C26.0545 22.6133 26.3481 22.6361 26.5761 22.7651C26.9241 22.9618 27.4409 23.5076 27.5779 23.8775C27.6256 24.0064 27.6212 24.1889 27.6957 24.3069V36.1338C27.7622 36.1699 27.7204 36.2374 27.735 36.29C27.7376 36.2993 27.8631 36.424 27.8725 36.4266C27.9053 36.4356 27.9552 36.4185 27.9904 36.4266C28.0059 36.4302 28.015 36.4632 28.0296 36.4656C28.1658 36.488 28.3445 36.4743 28.4618 36.5437C28.495 36.5633 28.8152 36.8815 28.835 36.9145C28.84 36.9229 28.8294 36.9414 28.835 36.9535C28.8426 36.9702 28.8702 36.9782 28.8742 36.9926C28.8833 37.0249 28.8664 37.0743 28.8742 37.1097C28.8776 37.125 28.9114 37.1343 28.9135 37.1487C28.9387 37.3194 28.9426 38.0798 28.9135 38.2416C28.9109 38.2561 28.8788 38.2648 28.8742 38.2806C28.8671 38.3056 28.8824 38.3368 28.8742 38.3587C28.8686 38.3738 28.8423 38.3815 28.835 38.3977C28.8238 38.4225 28.8066 38.4984 28.7957 38.5148C28.7648 38.5612 28.589 38.7334 28.5403 38.7686C28.5322 38.7744 28.5104 38.7622 28.501 38.7686C28.4742 38.7867 28.4411 38.8412 28.4225 38.8466C28.3485 38.8683 28.2385 38.8681 28.1868 38.9247H22.9228C22.8864 38.8587 22.8187 38.9 22.7656 38.8857C22.7506 38.8816 22.7426 38.8525 22.7263 38.8466C22.6994 38.8369 22.6246 38.8182 22.6085 38.8076C22.564 38.7783 22.3434 38.5591 22.3139 38.5148C22.3081 38.5063 22.32 38.4857 22.3139 38.4758C22.2869 38.4323 22.2054 38.315 22.196 38.2806C22.1871 38.2481 22.2038 38.199 22.196 38.1635C22.1927 38.1482 22.1589 38.1389 22.1567 38.1245C22.1353 37.9787 22.1319 37.3651 22.1567 37.2268C22.1594 37.2121 22.1921 37.2033 22.196 37.1877C22.22 37.0922 22.237 37.0038 22.2746 36.9145C22.3568 36.8352 22.3915 36.7338 22.4906 36.6608C22.4988 36.6548 22.5209 36.6671 22.5299 36.6608C22.5981 36.613 22.6817 36.5355 22.7656 36.5046C22.8816 36.462 23.0258 36.4643 23.1585 36.4266C23.1839 36.4194 23.2157 36.435 23.237 36.4266C23.2524 36.4205 23.2601 36.395 23.2763 36.3875C23.2887 36.3818 23.3077 36.3925 23.3156 36.3875C23.3742 36.3506 23.3667 36.2904 23.4138 36.2509V26.9611C23.2985 26.8231 23.1871 26.7601 23.0013 26.7855C20.9452 26.8504 18.772 26.8504 16.7159 26.7855C16.4261 26.7746 16.0654 26.7011 15.8124 26.5513C15.628 26.4421 15.1206 25.9346 15.0071 25.7511C14.9607 25.676 14.8801 25.5535 14.85 25.4778C14.7628 25.2592 14.7594 25.023 14.6928 24.8143V13.1044C14.6463 13.0515 14.6263 12.9708 14.5553 12.9288C14.5469 12.9238 14.5282 12.9343 14.5161 12.9288C14.499 12.9211 14.4907 12.8928 14.4768 12.8897C14.4212 12.8774 14.3404 12.8996 14.2804 12.8897C14.2167 12.8793 14.0895 12.8029 14.0054 12.8117L13.5536 12.3628C13.5338 12.2876 13.5293 12.2029 13.5143 12.1286C13.5113 12.1134 13.4772 12.104 13.475 12.0896C13.4528 11.9383 13.4494 11.2965 13.475 11.1528C13.4777 11.1381 13.5105 11.1293 13.5143 11.1137C13.5284 11.0572 13.5374 10.973 13.5536 10.9186C13.5591 10.9001 13.6139 10.8672 13.6322 10.8405C13.6386 10.8312 13.6263 10.8096 13.6322 10.8015C13.6677 10.753 13.8407 10.5786 13.8875 10.5478C13.896 10.5422 13.9164 10.5539 13.9268 10.5478C14.0144 10.4963 14.0845 10.472 14.1625 10.4307Z" fill="white"/>
<path d="M51.0684 21.8674H51.2451C51.5833 21.577 51.8864 21.1687 52.2272 20.8915C52.2349 20.8853 52.2583 20.898 52.2665 20.8915C54.4006 19.1927 58.0062 19.6402 59.3965 22.1211C59.8436 22.8825 59.9829 23.6872 60.1036 24.5021V34.1822C60.0564 34.2216 60.064 34.282 60.0054 34.3189C59.9953 34.3252 59.9741 34.3132 59.9661 34.3189C59.9398 34.3375 59.905 34.3921 59.8875 34.3969C59.8347 34.4114 59.7667 34.3699 59.7304 34.4359H56.3127L56.1556 34.3969L55.9788 34.2213L55.9395 34.0651V25.9463C55.8771 25.8149 55.8964 25.6298 55.861 25.4779C55.8288 25.3401 55.7597 25.1118 55.7038 24.9705C55.473 24.381 54.917 23.892 54.3093 23.7409C54.2593 23.7267 54.1132 23.6677 54.0736 23.6629C52.8759 23.5159 51.7538 23.9021 51.2648 25.0876C51.1483 25.4572 51.0985 25.8108 51.0291 26.1805V34.1432C50.9823 34.2057 50.9293 34.3123 50.8523 34.3579C50.8438 34.3629 50.8251 34.3523 50.813 34.3579C50.7968 34.3653 50.7891 34.3908 50.7737 34.3969C50.7427 34.4092 50.687 34.3762 50.6559 34.4359H47.3168C47.2728 34.3638 47.1831 34.4141 47.1204 34.3969C47.0875 34.3879 46.9899 34.2502 46.9436 34.2213L46.9043 34.0651V15.3684C46.9769 15.3247 46.9263 15.2356 46.9436 15.1732C46.9634 15.1016 47.1425 15.0516 47.1989 14.9976H50.7345C50.7668 15.0561 50.8137 15.0256 50.8523 15.0366C50.8807 15.0447 50.9509 15.1488 50.9898 15.1732L51.0684 21.8674Z" fill="white"/>
<path d="M113.153 15.6611H116.256L116.511 15.9148V26.805C116.558 26.8511 116.565 26.9958 116.649 27.0197C116.688 27.0307 116.734 27.0002 116.767 27.0587H118.77L119.026 27.3125V30.1619C118.981 30.1816 118.993 30.2282 118.986 30.2399C118.931 30.3322 118.81 30.3497 118.731 30.4156H116.688C116.66 30.4585 116.565 30.464 116.551 30.5132C116.54 30.5517 116.57 30.5981 116.511 30.6303V34.1823L116.374 34.3579L116.217 34.436H112.799L112.504 34.1432V30.5522L112.367 30.4156H103.685C103.653 30.357 103.606 30.3875 103.567 30.3765C103.555 30.3731 103.406 30.2245 103.391 30.2009C103.386 30.1934 103.314 30.0534 103.312 30.0448C103.292 29.9718 103.291 29.8475 103.273 29.7715C103.125 29.1486 102.969 28.5341 102.841 27.898C102.838 27.8828 102.804 27.8734 102.801 27.8589C102.792 27.7936 102.789 27.5654 102.801 27.5076C102.805 27.4934 102.834 27.4852 102.841 27.4686C102.906 27.3062 102.94 27.282 103.037 27.1563C106.187 23.4774 109.398 19.8791 112.544 16.1881C112.641 16.0812 112.891 15.8078 112.996 15.7392C113.027 15.7185 113.121 15.7107 113.153 15.6611ZM112.367 21.6332C112.303 21.679 112.241 21.7032 112.19 21.7698C112.183 21.779 112.196 21.8022 112.19 21.8088C110.774 23.4514 109.343 25.1126 107.948 26.766C107.929 26.7925 107.874 26.8262 107.869 26.8441C107.832 26.9783 107.919 27.0031 108.007 27.0587H112.328L112.465 26.9612L112.504 21.7308L112.367 21.6332Z" fill="white"/>
<path d="M122.386 14.9976H125.961L126.217 15.2513V24.9314C126.283 25.0311 126.303 25.1282 126.433 25.029C127.828 23.6715 129.061 22.1306 130.42 20.7159C130.533 20.596 130.792 20.3061 130.911 20.228C130.942 20.2073 131.036 20.1995 131.068 20.1499H135.389L135.566 20.3256L135.488 20.5597C134.112 21.9032 132.774 23.3115 131.441 24.6972C131.114 25.0263 130.745 25.3352 130.498 25.7121C130.508 25.7844 130.484 25.8804 130.498 25.9463C130.508 25.9917 130.593 26.0659 130.616 26.1024C132.267 28.7121 134.085 31.3553 135.763 33.9871C135.812 34.0829 135.869 34.1315 135.841 34.2603L135.704 34.3969L135.586 34.4359H131.5C131.438 34.4064 131.392 34.3525 131.343 34.3189C131.334 34.3124 131.312 34.3247 131.304 34.3189C131.159 34.2112 131.095 34.075 131.009 33.948C129.939 32.3176 128.895 30.648 127.827 28.9909C127.761 28.9047 127.663 28.8331 127.572 28.7762C127.461 28.7854 127.409 28.8764 127.336 28.9323C127.032 29.1641 126.687 29.5461 126.452 29.8496C126.402 29.9149 126.378 29.9326 126.334 30.0057C126.283 30.0928 126.258 30.1624 126.217 30.2399V34.1822C126.161 34.3107 126.038 34.3524 125.922 34.4359H122.386L122.092 34.1432V15.2903C122.095 15.276 122.124 15.2679 122.131 15.2513C122.156 15.1898 122.171 15.1129 122.229 15.0756C122.262 15.0546 122.354 15.0472 122.386 14.9976Z" fill="white"/>
<path d="M82.6919 23.5459C82.6846 23.5532 82.6516 23.5357 82.633 23.5459C82.5866 23.5716 82.5343 23.6405 82.4759 23.663H79.5689C79.5406 23.7059 79.4455 23.7115 79.4314 23.7606C79.4204 23.7991 79.451 23.8456 79.3921 23.8777V29.8498C79.4584 29.963 79.4325 30.1461 79.4707 30.2791C79.475 30.2943 79.5046 30.3023 79.51 30.3182C79.5319 30.3834 79.5435 30.4848 79.5885 30.5524C79.6646 30.6665 79.9592 30.918 80.0796 30.9622C80.1016 30.9703 80.1329 30.9551 80.1581 30.9622C80.174 30.9667 80.1826 30.9982 80.1974 31.0012C80.2437 31.0108 80.3065 30.9927 80.3546 31.0012C80.3696 31.0039 80.3794 31.0385 80.3938 31.0403C80.5842 31.0636 81.0246 31.0602 81.2188 31.0403C81.4808 31.0134 81.849 30.8918 82.1223 30.8061C82.1484 30.7979 82.2624 30.731 82.2795 30.728C82.3243 30.7201 82.5178 30.718 82.5544 30.728C82.6079 30.7426 82.698 30.9011 82.7312 30.9427V33.675C82.728 33.6892 82.6986 33.6974 82.6919 33.714C82.6472 33.826 82.5822 33.9366 82.4759 34.0068C82.4091 34.0508 82.1726 34.163 82.083 34.2019C80.779 34.768 78.5443 34.8819 77.2511 34.28C76.8099 34.0746 76.4127 33.7421 76.0923 33.3627C75.4333 32.5058 75.3708 31.5972 75.2673 30.5524V23.7997L75.1298 23.663H73.8728C73.8252 23.6311 73.6328 23.5017 73.6174 23.4484C73.6063 23.41 73.637 23.3634 73.5781 23.3313V20.4819C73.6383 20.4509 73.605 20.3956 73.6174 20.3648C73.6235 20.3495 73.6492 20.3418 73.6567 20.3257C73.6623 20.3138 73.6516 20.2952 73.6567 20.2867C73.6658 20.2714 73.7479 20.1911 73.7549 20.1891C73.7795 20.1821 73.8101 20.1965 73.8335 20.1891C73.8498 20.1839 73.8583 20.1526 73.8728 20.1501C74.2072 20.0908 74.7168 20.2093 75.0513 20.1501C75.0657 20.1475 75.0743 20.1162 75.0905 20.111C75.1139 20.1036 75.1445 20.118 75.1691 20.111C75.2186 20.097 75.2241 20.0026 75.2673 19.9744V16.8518C75.3275 16.8209 75.2942 16.7656 75.3066 16.7347C75.3127 16.7194 75.3384 16.7118 75.3459 16.6957C75.3515 16.6837 75.3408 16.6651 75.3459 16.6566C75.4051 16.5577 75.4921 16.5751 75.5619 16.52H79.1368L79.3921 16.7737V19.8964C79.439 19.9425 79.4458 20.0871 79.5296 20.111C79.5682 20.1221 79.6151 20.0915 79.6475 20.1501H82.5152L82.7705 20.4038V23.4093C82.6998 23.4356 82.6979 23.54 82.6919 23.5459Z" fill="white"/>
<path d="M64.4819 16.52H68.0567L68.312 16.7737V19.8964C68.359 19.9425 68.3657 20.0871 68.4495 20.111C68.4881 20.1221 68.5351 20.0915 68.5674 20.1501H71.4351L71.6904 20.4038V23.4093C71.6331 23.4335 71.6226 23.5124 71.6119 23.5264C71.5375 23.6238 71.4788 23.609 71.3958 23.663H68.4888C68.4605 23.7059 68.3654 23.7115 68.3513 23.7606C68.3403 23.7991 68.3709 23.8456 68.312 23.8777V29.8107C68.3785 29.936 68.3601 30.1333 68.3906 30.2791C68.392 30.2856 68.422 30.3751 68.4299 30.3962C68.497 30.5772 68.8183 30.8956 68.9995 30.9622C69.0215 30.9703 69.0529 30.9551 69.0781 30.9622C69.0939 30.9667 69.1025 30.9982 69.1173 31.0012C69.1636 31.0108 69.2264 30.9927 69.2745 31.0012C69.2895 31.0039 69.2994 31.0385 69.3138 31.0403C69.5042 31.0636 69.9445 31.0602 70.1387 31.0403C70.4008 31.0134 70.7689 30.8918 71.0422 30.8061C71.0683 30.7979 71.1823 30.731 71.1994 30.728C71.2805 30.7136 71.3881 30.738 71.4744 30.728L71.6511 30.9427V33.675C71.648 33.6892 71.6185 33.6974 71.6119 33.714C71.5671 33.826 71.5021 33.9366 71.3958 34.0068C71.329 34.0508 71.0925 34.163 71.003 34.2019C69.5939 34.8136 66.9743 34.9466 65.6604 33.9677C64.5101 33.1627 64.2844 31.8265 64.1872 30.5133V23.7997L64.0498 23.663H62.7927C62.7451 23.6311 62.5528 23.5017 62.5373 23.4484C62.5263 23.41 62.557 23.3634 62.498 23.3313V20.4819C62.5582 20.4509 62.5249 20.3956 62.5373 20.3648C62.5435 20.3495 62.5691 20.3418 62.5766 20.3257C62.5822 20.3138 62.5715 20.2952 62.5766 20.2867C62.5857 20.2714 62.6678 20.1911 62.6748 20.1891C62.6994 20.1821 62.73 20.1965 62.7534 20.1891C62.7697 20.1839 62.7783 20.1526 62.7927 20.1501C63.1271 20.0908 63.6368 20.2093 63.9712 20.1501C63.9856 20.1475 63.9942 20.1162 64.0105 20.111C64.0338 20.1036 64.0644 20.118 64.089 20.111C64.1385 20.097 64.1441 20.0026 64.1872 19.9744V16.8518C64.2474 16.8209 64.2141 16.7656 64.2265 16.7347C64.2327 16.7194 64.2583 16.7118 64.2658 16.6957C64.2714 16.6837 64.2607 16.6651 64.2658 16.6566C64.3251 16.5577 64.412 16.5751 64.4819 16.52Z" fill="white"/>
</svg>
