<svg width="145" height="49" viewBox="0 0 145 49" fill="none" xmlns="http://www.w3.org/2000/svg">
<path fill-rule="evenodd" clip-rule="evenodd" d="M35.6239 42.6C36.8017 41.0592 37.8216 39.401 38.6838 37.6291C39.5423 35.8535 40.199 34.0228 40.6503 32.1298L43.4937 15.9843H38.6324C38.5407 16.5016 38.427 17.1729 38.2949 17.9984L37.8546 20.6948C37.6932 21.667 37.5281 22.6538 37.352 23.6553L36.8567 26.4582L36.4641 28.6813L36.2587 29.8553C36.0239 31.187 35.7744 32.394 35.5139 33.4799C35.2534 34.5658 34.9599 35.5746 34.6297 36.5101C34.3031 37.4383 33.9473 38.3371 33.562 39.2029C33.1768 40.065 32.7292 40.9418 32.2266 41.8296L35.6239 42.6ZM43.7982 12.1726C44.3082 11.7287 44.6421 11.061 44.7998 10.1732C44.9612 9.26342 44.8659 8.58472 44.51 8.14449C44.1578 7.70059 43.49 7.47681 42.5104 7.47681C41.5308 7.47681 40.7861 7.69325 40.2761 8.12615C39.7698 8.55538 39.4322 9.2414 39.2708 10.1732C39.102 11.1087 39.1974 11.7837 39.557 12.2056C39.9165 12.6275 40.5843 12.8366 41.5639 12.8366C42.5438 12.8366 43.2882 12.6129 43.7982 12.1726Z" fill="white"/>
<path fill-rule="evenodd" clip-rule="evenodd" d="M49.5474 29.294C49.7125 28.3622 50.1051 27.6835 50.7288 27.2616C51.3488 26.8434 52.3688 26.5756 53.7923 26.4582L56.8155 26.1757L56.1294 30.0644C55.4213 30.5083 54.6545 30.8825 53.829 31.187C53.0072 31.4878 52.244 31.6382 51.5469 31.6382C49.94 31.6382 49.2722 30.8568 49.5474 29.294ZM55.8322 32.5517H56.111L56.1514 34.896H60.1395L62.3995 22.0815C62.7811 19.9097 62.3922 18.3102 61.2328 17.283C60.0698 16.2558 58.0775 15.7422 55.2562 15.7422C53.1796 15.7422 50.7948 15.977 48.1019 16.4429L47.8047 19.9097C48.8943 19.7006 49.9583 19.5429 51.004 19.4365C52.0459 19.3338 52.9778 19.2787 53.796 19.2787C54.6582 19.2787 55.3552 19.3374 55.8836 19.4548C56.4082 19.5722 56.8044 19.7703 57.0723 20.0491C57.3364 20.3316 57.4869 20.6985 57.5236 21.1534C57.5602 21.6083 57.5162 22.1879 57.3951 22.885L57.2814 23.516L52.7834 23.8315C50.2812 24.0186 48.3624 24.5945 47.0379 25.563C45.7098 26.5315 44.8843 27.9513 44.5577 29.8186C44.2605 31.5025 44.4807 32.7975 45.2181 33.7073C45.9556 34.6171 47.1993 35.0721 48.9494 35.0721C51.2131 35.0721 53.5061 34.2319 55.8322 32.5517Z" fill="white"/>
<path fill-rule="evenodd" clip-rule="evenodd" d="M69.7632 34.896H75.7798L86.1223 16.5127L86.2181 15.9844H81.144L75.3105 27.2617L73.7032 31.011H73.3179L73.0354 27.2617L71.278 15.9844H66.0976L66.0059 16.5127L69.7632 34.896Z" fill="white"/>
<path fill-rule="evenodd" clip-rule="evenodd" d="M90.3433 29.294C90.5084 28.3622 90.901 27.6835 91.521 27.2616C92.1411 26.8434 93.1647 26.5756 94.5882 26.4582L97.6077 26.1757L96.9253 30.0644C96.2172 30.5083 95.4467 30.8825 94.6249 31.187C93.8031 31.4878 93.04 31.6382 92.3429 31.6382C90.7319 31.6382 90.0682 30.8568 90.3433 29.294ZM96.6278 32.5517H96.9066L96.947 34.896H100.935L103.191 22.0815C103.577 19.9097 103.188 18.3102 102.028 17.283C100.865 16.2558 98.8731 15.7422 96.0517 15.7422C93.9752 15.7422 91.5904 15.977 88.8974 16.4429L88.6003 19.9097C89.6899 19.7006 90.7539 19.5429 91.7995 19.4365C92.8415 19.3338 93.7734 19.2787 94.5915 19.2787C95.4537 19.2787 96.1471 19.3374 96.6755 19.4548C97.2038 19.5722 97.6 19.7703 97.8678 20.0491C98.132 20.3316 98.2824 20.6985 98.3191 21.1534C98.3558 21.6083 98.3118 22.1879 98.1907 22.885L98.077 23.516L93.5789 23.8315C91.0731 24.0186 89.1579 24.5945 87.8335 25.563C86.5053 26.5315 85.6798 27.9513 85.3533 29.8186C85.0561 31.5025 85.2726 32.7975 86.0137 33.7073C86.7511 34.6171 87.9949 35.0721 89.7449 35.0721C92.005 35.0721 94.3021 34.2319 96.6278 32.5517Z" fill="white"/>
<path fill-rule="evenodd" clip-rule="evenodd" d="M105.486 34.896H110.351L115.337 6.6001H110.472L105.486 34.896Z" fill="white"/>
<path fill-rule="evenodd" clip-rule="evenodd" d="M115.037 34.8959H119.906L123.237 15.9843H118.372L115.037 34.8959ZM123.608 12.1726C124.118 11.7287 124.451 11.061 124.609 10.1732C124.771 9.26342 124.664 8.58472 124.301 8.14449C123.938 7.70059 123.266 7.47681 122.287 7.47681C121.304 7.47681 120.566 7.69325 120.071 8.12615C119.576 8.55538 119.245 9.2414 119.08 10.1732C118.915 11.1087 119.007 11.7837 119.352 12.2056C119.697 12.6275 120.361 12.8366 121.34 12.8366C122.342 12.8366 123.098 12.6129 123.608 12.1726Z" fill="white"/>
<path fill-rule="evenodd" clip-rule="evenodd" d="M124.588 34.7309H129.453L131.885 20.9333C133.015 20.4673 134.087 20.0858 135.107 19.796C136.127 19.5025 137.011 19.3558 137.759 19.3558C138.618 19.3558 139.208 19.5869 139.524 20.0381C139.843 20.4967 139.905 21.2598 139.718 22.331L137.535 34.7309H142.397L144.869 20.6875C145.17 18.9852 144.943 17.6865 144.191 16.8024C143.435 15.9146 142.243 15.4707 140.61 15.4707C139.539 15.4707 138.335 15.6688 137.007 16.065C135.679 16.4612 134.039 17.1069 132.087 17.991H131.878L131.981 15.8192H127.919L124.588 34.7309Z" fill="white"/>
<path fill-rule="evenodd" clip-rule="evenodd" d="M27.9808 17.0592C32.1193 24.2386 29.6612 33.4138 22.4885 37.5556C15.3159 41.6975 6.14734 39.2359 2.00884 32.0564C-2.12966 24.877 0.332161 15.7018 7.50115 11.5599C14.6738 7.41808 23.842 9.87971 27.9808 17.0592Z" fill="#008CBB"/>
<path fill-rule="evenodd" clip-rule="evenodd" d="M2.00977 31.7191C11.2774 47.7912 35.1177 36.3819 26.8811 21.1938C25.7254 23.916 23.0288 25.82 19.8919 25.82C19.3856 25.82 18.894 25.7723 18.417 25.6769C20.2914 31.7851 6.96275 40.2999 2.00977 31.7191Z" fill="#035E7F"/>
<path fill-rule="evenodd" clip-rule="evenodd" d="M14.5977 18.5597C14.5977 15.6321 16.9678 13.2585 19.8918 13.2585C22.8159 13.2585 25.186 15.6321 25.186 18.5597C25.186 21.4872 22.8159 23.8571 19.8918 23.8571C16.9678 23.8571 14.5977 21.4872 14.5977 18.5597Z" fill="#035E7F"/>
</svg>
