<svg width="86" height="41" viewBox="0 0 86 41" fill="none" xmlns="http://www.w3.org/2000/svg">
<g clip-path="url(#clip0_114_2826)">
<path d="M8.3772 4.15953C7.94255 3.7152 7.33905 3.44158 6.66679 3.44158C5.99605 3.44158 5.39749 3.7152 4.96829 4.15953H4.95706C4.52376 4.60046 4.25483 5.21591 4.25483 5.89597C4.25483 6.58007 4.52376 7.19166 4.95706 7.62826L4.96829 7.64037C5.39749 8.08082 5.99605 8.35062 6.66679 8.35062C7.33905 8.35062 7.94255 8.08082 8.3772 7.64037L8.38213 7.62826C8.81742 7.19166 9.08276 6.58007 9.08276 5.89597C9.08276 5.21591 8.81742 4.60046 8.38213 4.15953H8.3772ZM6.66679 37.7586C7.33905 37.7586 7.94255 37.4799 8.3772 37.0437L8.38213 37.0312C8.81742 36.5958 9.08276 35.9803 9.08276 35.3039C9.08276 34.62 8.81742 34.0072 8.38213 33.5641H8.3772C7.94255 33.1156 7.33905 32.8444 6.66679 32.8444C5.99605 32.8444 5.39749 33.1156 4.96829 33.5641H4.95706C4.52376 34.0072 4.25483 34.62 4.25483 35.3039C4.25483 35.9803 4.52376 36.5958 4.95706 37.0312L4.96829 37.0437C5.39749 37.4799 5.99605 37.7586 6.66679 37.7586ZM19.8082 30.3218C20.4056 30.1619 20.9466 29.7718 21.2767 29.1817L21.3213 29.0954C21.6149 28.5367 21.6688 27.8905 21.5117 27.3174C21.3534 26.7051 20.9657 26.1619 20.387 25.8242L20.3531 25.8008C19.7891 25.4856 19.1472 25.4169 18.5574 25.5805C17.9576 25.7329 17.4183 26.1395 17.0901 26.7245C16.7575 27.3059 16.688 27.9743 16.847 28.5896C17.0116 29.195 17.3961 29.7416 17.9712 30.0832H17.9748C18.5511 30.4207 19.203 30.4809 19.8082 30.3218ZM9.1408 18.0847C8.50763 17.4423 7.63385 17.0396 6.66679 17.0396C5.70103 17.0396 4.82979 17.4423 4.19793 18.0847C3.56771 18.7266 3.17941 19.6118 3.17941 20.5959C3.17941 21.58 3.56771 22.4691 4.19793 23.1185C4.82979 23.7571 5.70103 24.1561 6.66679 24.1561C7.63385 24.1561 8.50763 23.7571 9.1408 23.1185C9.77216 22.4691 10.1605 21.58 10.1605 20.5959C10.1605 19.6118 9.77216 18.7266 9.1408 18.0847ZM7.7496 13.9017C9.15313 14.1369 10.4139 14.821 11.3773 15.8088H11.3847C11.5381 15.9642 11.6871 16.1353 11.8256 16.3065L14.234 14.889C13.91 13.8935 13.8951 12.8526 14.1553 11.8761C14.4986 10.5693 15.3315 9.39898 16.5799 8.66592L16.6208 8.63941C17.8556 7.92847 19.2592 7.78062 20.5261 8.1298C21.8092 8.47966 22.9667 9.33103 23.6871 10.5995V10.6032C24.4043 11.8649 24.5496 13.3127 24.2076 14.6158C23.8663 15.9228 23.0303 17.1007 21.7831 17.8299L21.4542 18.0274H21.4208C20.267 18.5863 18.9988 18.6737 17.8339 18.3616C16.8773 18.1036 16 17.5599 15.3129 16.7891L12.9083 18.2024C13.1846 18.9467 13.3373 19.7484 13.3373 20.5959C13.3373 21.4391 13.1846 22.2527 12.9083 23.0007L15.3129 24.4104C16 23.6274 16.8773 23.0959 17.8339 22.8373C19.1175 22.4804 20.5396 22.6321 21.7831 23.3695L21.8629 23.4073V23.411C23.0638 24.1523 23.8701 25.2956 24.2076 26.5873C24.5496 27.883 24.4043 29.3314 23.6871 30.5955L23.6437 30.6836L23.6387 30.676C22.9185 31.8949 21.7831 32.7204 20.5297 33.0696C19.2443 33.4144 17.8214 33.2671 16.5798 32.5404V32.5303C15.3315 31.796 14.4986 30.6232 14.1553 29.3188C13.8951 28.3468 13.91 27.3059 14.234 26.3104L11.8256 24.8966C11.6871 25.0678 11.538 25.2313 11.3847 25.3867L11.3773 25.3943C10.4139 26.3784 9.15309 27.0625 7.74956 27.2902V30.1217C8.74998 30.3344 9.64532 30.8435 10.3471 31.5577L10.3509 31.5652C11.2914 32.5177 11.8738 33.8448 11.8738 35.3039C11.8738 36.7582 11.2914 38.0777 10.3509 39.0353L10.3471 39.0502C9.39978 40.0073 8.1008 40.6001 6.66675 40.6001C5.2403 40.6001 3.93753 40.0073 2.99271 39.0502H2.98892V39.0353C2.04727 38.0777 1.46357 36.7582 1.46357 35.3039C1.46357 33.8448 2.04727 32.5177 2.98892 31.5652V31.5577H2.99271C3.6938 30.8435 4.59096 30.3344 5.58791 30.1217V27.2902C4.18421 27.0625 2.92593 26.3784 1.96381 25.3943L1.95393 25.3867C0.752546 24.1598 0 22.4691 0 20.5959C0 18.7266 0.752546 17.0357 1.95393 15.8088H1.96381C2.92593 14.821 4.18421 14.1369 5.58791 13.9017V11.0821C4.591 10.862 3.69384 10.3529 2.99275 9.64245H2.98896V9.63487C2.0473 8.67346 1.4636 7.35526 1.4636 5.89596C1.4636 4.44438 2.0473 3.11467 2.98896 2.15721L2.99275 2.15334C3.93757 1.19244 5.24034 0.600098 6.66679 0.600098C8.10084 0.600098 9.39981 1.19244 10.3471 2.15334V2.15721H10.3509C11.2915 3.11467 11.8739 4.44438 11.8739 5.89596C11.8739 7.35526 11.2915 8.67346 10.3509 9.63487L10.3471 9.64245C9.64536 10.3529 8.75001 10.862 7.7496 11.0821V13.9017ZM21.2767 12.0209L21.2565 11.99C20.9244 11.4207 20.3944 11.0407 19.8082 10.8769C19.203 10.7135 18.5511 10.7819 17.9712 11.1205H17.9748C17.3961 11.4546 17.0091 12.0014 16.847 12.6135C16.688 13.2214 16.7575 13.8935 17.09 14.4787L17.1011 14.4938C17.4345 15.0714 17.9649 15.459 18.5574 15.615C19.1521 15.7861 19.8156 15.7138 20.387 15.3752L20.418 15.3601C20.9806 15.0185 21.3554 14.4787 21.5117 13.8859C21.6713 13.2743 21.6075 12.606 21.2767 12.0209Z" fill="white"/>
<path d="M31.9629 12.8491H34.6501V21.1964L38.5252 16.8347H41.7472L37.0689 21.8879L41.7666 28.2934H38.6898L34.6501 22.5718V28.2934H31.9629V12.8491Z" fill="white"/>
<path d="M44.8684 22.6132C44.8684 24.0346 45.873 26.1009 48.2934 26.1009C49.7911 26.1009 50.7767 25.3068 51.2879 24.2661C51.5555 23.7609 51.6788 23.2209 51.7202 22.659C51.7387 22.1154 51.6378 21.5497 51.4108 21.0477C50.9397 19.9652 49.8941 19.0266 48.2736 19.0266C46.1005 19.0266 44.8684 20.8198 44.8684 22.5943V22.6132ZM54.3858 28.2931H51.6974V26.6446C50.9819 27.9779 49.4838 28.6467 47.9038 28.6467C44.2935 28.6467 42.1816 25.7856 42.1816 22.5528C42.1816 18.9429 44.7451 16.4807 47.9038 16.4807C49.9549 16.4807 51.2056 17.5868 51.6974 18.5062V16.8344H54.3858V28.2931Z" fill="white"/>
<path d="M57.4277 18.9433H56.0352V16.8349H57.4277V16.1892C57.4277 12.7845 59.9718 12.5793 61.9009 12.5566V14.6614C61.2225 14.6614 60.1162 14.6614 60.1162 16.2722V16.8349H61.9009V18.9433H60.1162V28.2935H57.4277V18.9433Z" fill="white"/>
<path d="M63.7285 12.8491H66.4148V21.1964L70.2907 16.8347H73.5127L68.8344 21.8879L73.5313 28.2934H70.4545L66.4148 22.5718V28.2934H63.7285V12.8491Z" fill="white"/>
<path d="M76.6343 22.6132C76.6343 24.0346 77.6385 26.1009 80.0593 26.1009C81.5549 26.1009 82.5405 25.3068 83.0525 24.2661C83.321 23.7609 83.4447 23.2209 83.4852 22.659C83.5038 22.1154 83.4029 21.5497 83.1754 21.0477C82.7051 19.9652 81.6596 19.0266 80.0395 19.0266C77.866 19.0266 76.6343 20.8198 76.6343 22.5943V22.6132ZM86.1509 28.2931H83.4633V26.6446C82.7457 27.9779 81.2488 28.6467 79.6697 28.6467C76.0594 28.6467 73.9492 25.7856 73.9492 22.5528C73.9492 18.9429 76.5119 16.4807 79.6697 16.4807C81.7195 16.4807 82.9715 17.5868 83.4633 18.5062V16.8344H86.1509V28.2931Z" fill="white"/>
</g>
<defs>
<clipPath id="clip0_114_2826">
<rect width="86" height="40" fill="white" transform="translate(0 0.600098)"/>
</clipPath>
</defs>
</svg>
