<svg width="195" height="64" viewBox="0 0 195 64" fill="none" xmlns="http://www.w3.org/2000/svg">
<path d="M158.654 22.0537C161.526 22.0537 164.144 22.7204 166.481 24.0537C168.819 25.387 170.662 27.2136 172.011 29.5469C173.36 31.8668 174.027 34.4801 174.027 37.3467C174.027 40.2133 173.346 42.8132 172.011 45.1465C170.675 47.4797 168.819 49.3063 166.481 50.6396C164.131 51.973 161.486 52.6396 158.614 52.6396C155.743 52.6396 153.125 51.9729 150.788 50.6396C148.451 49.3063 146.608 47.4665 145.259 45.1465C143.91 42.8265 143.241 40.2133 143.241 37.3467C143.241 34.4801 143.91 31.8802 145.245 29.5469C146.581 27.2136 148.424 25.387 150.774 24.0537C153.138 22.7204 155.783 22.0538 158.654 22.0537ZM97.7773 12.0137V30.1338L114.299 12.0137H122.834L105.271 31.2666L123.221 51.96H114.419L97.7773 32.8936V51.96H90.832V12.0137H97.7773ZM133.705 15.5996V22.7334H141.479L141.452 28.5869H133.679L133.705 43.333C133.705 44.133 133.972 44.8003 134.493 45.3203C135.014 45.8403 135.682 46.1064 136.483 46.1064H141.452V51.96H135.135C133.572 51.96 132.156 51.6266 130.914 50.96C129.672 50.2933 128.696 49.3599 128.002 48.1865C127.308 46.9999 126.96 45.6664 126.96 44.1865L126.934 28.5732H121.792L121.818 22.7197H125.023C125.758 22.7197 126.333 22.4936 126.773 22.0537C127.214 21.6137 127.428 21.0397 127.428 20.333V15.5996H133.705ZM193.835 22.5469H194.917V29.333H193.033C191.537 29.333 190.215 29.6135 189.106 30.1602C187.985 30.7201 187.13 31.5067 186.529 32.5332C185.928 33.5598 185.634 34.7733 185.634 36.1865V51.96H178.89V22.7334H185.581V27.1602C186.342 25.9202 187.277 24.9065 188.386 24.1465C189.948 23.0667 191.764 22.5333 193.848 22.5332L193.835 22.5469ZM158.628 28.04C156.998 28.04 155.542 28.4396 154.273 29.2129C153.018 29.9862 152.029 31.0799 151.335 32.4932C150.64 33.9065 150.294 35.5334 150.294 37.3467C150.294 39.1598 150.641 40.7597 151.335 42.1729C152.029 43.5727 153.018 44.6665 154.273 45.4531C155.529 46.2398 156.998 46.627 158.628 46.627C160.257 46.6269 161.713 46.2264 162.995 45.4531C164.264 44.6798 165.253 43.5862 165.947 42.1729C166.642 40.7596 166.989 39.1731 166.989 37.3467C166.989 35.52 166.641 33.9068 165.934 32.5068C165.239 31.1069 164.251 30.0132 162.982 29.2266C161.714 28.4399 160.257 28.04 158.628 28.04ZM122.847 12.0137H122.834L122.847 12V12.0137Z" fill="white"/>
<path d="M64.1089 42.6641L42.7363 64.0001L0 21.328L21.3725 0L64.1089 42.6641Z" fill="url(#paint0_linear_202_2729)"/>
<path d="M42.7534 21.328H21.3809V42.664H42.7534V21.328Z" fill="black"/>
<defs>
<linearGradient id="paint0_linear_202_2729" x1="7.37038" y1="28.6084" x2="34.8391" y2="56.26" gradientUnits="userSpaceOnUse">
<stop stop-color="#7F52FF"/>
<stop offset="0.506725" stop-color="#C711E1"/>
<stop offset="1" stop-color="#FF6D3F"/>
</linearGradient>
</defs>
</svg>
