<svg width="133" height="41" viewBox="0 0 133 41" fill="none" xmlns="http://www.w3.org/2000/svg">
<g clip-path="url(#clip0_114_2676)">
<path d="M51.1138 22.2484C51.6227 20.7731 52.1128 19.4301 52.5426 18.068C52.7099 17.5377 52.9583 17.2681 53.53 17.3541C53.6907 17.3687 53.8526 17.3653 54.0126 17.3441C54.3907 17.3153 54.5629 17.4565 54.5597 17.864C54.5456 19.6898 54.5458 21.5157 54.5603 23.3416C54.5639 23.7588 54.3874 23.865 54.0109 23.8516C53.6545 23.8389 53.3226 23.8762 53.3281 23.3533C53.3422 22.0116 53.3328 20.6696 53.2392 19.3053C53.0374 19.8612 52.8324 20.416 52.6345 20.9732C52.347 21.7825 52.0445 22.5872 51.7888 23.4065C51.6618 23.8133 51.3945 23.8423 51.049 23.8525C50.6985 23.8628 50.4918 23.7649 50.37 23.4053C49.906 22.035 49.4128 20.6746 48.8413 19.3199C48.8413 20.6298 48.8251 21.9401 48.8496 23.2495C48.8589 23.7422 48.6437 23.8572 48.2028 23.8526C47.8277 23.8486 47.7063 23.7127 47.7039 23.3464C47.692 21.5757 47.6713 19.8048 47.6275 18.0346C47.6148 17.5187 47.8093 17.3037 48.3173 17.3578C48.424 17.3728 48.5324 17.3719 48.6389 17.355C49.2215 17.2389 49.4562 17.5383 49.6277 18.0556C50.0778 19.4129 50.5796 20.7531 51.1138 22.2484Z" fill="white"/>
<path d="M19.195 18.0849C19.3874 18.0849 19.4959 18.095 19.6018 18.0832C20.0465 18.0334 20.1179 18.2598 20.0375 18.6335C19.8463 19.5228 19.6669 20.4146 19.4823 21.3053C19.4705 21.339 19.4613 21.3736 19.4547 21.4087C19.4408 21.691 19.2277 22.0997 19.641 22.1813C20.0192 22.2559 20.3593 22.0283 20.4537 21.5782C20.6516 20.6354 20.855 19.6938 21.064 18.7534C21.116 18.5188 21.0894 18.1948 21.3861 18.1319C21.8035 18.0435 22.2551 18.0004 22.6561 18.1488C22.8835 18.233 22.7467 18.5386 22.708 18.7359C22.5331 19.6286 22.3395 20.5176 22.1545 21.4084C22.1043 21.6498 21.9913 21.9289 22.235 22.1034C22.4912 22.2869 22.7529 22.1309 22.9757 21.9751C23.224 21.8015 23.4515 21.5984 23.6994 21.4242C23.814 21.3436 23.971 21.2662 24.0931 21.3901C24.2442 21.5434 24.0731 21.6515 23.9865 21.7455C23.5478 22.2418 23.0504 22.683 22.5054 23.0593C21.8605 23.4858 21.1443 23.4167 20.6117 22.8592C20.425 22.6637 20.3027 22.6642 20.1296 22.8315C20.082 22.8854 20.0244 22.9295 19.9599 22.9612C19.2943 23.2126 18.8497 23.5946 18.7796 24.3876C18.7423 24.8092 18.2196 24.7491 17.8891 24.8323C17.0342 25.0476 17.0245 25.0372 17.2045 24.1865C17.5812 22.4061 17.9878 20.6317 18.3362 18.846C18.4486 18.2702 18.6423 17.9403 19.195 18.0849Z" fill="white"/>
<path d="M90.7651 20.622C90.7846 21.0587 90.7274 21.4955 90.5961 21.9124C90.1971 23.2783 88.9883 24.1458 87.6655 24.0269C86.0925 23.8856 85.0504 22.8174 84.9173 21.17C84.8566 20.4192 84.8708 19.6679 85.1777 18.9529C85.6389 17.8782 86.446 17.2921 87.6144 17.2286C88.8805 17.1597 89.8469 17.6441 90.4076 18.8162C90.6725 19.3798 90.7953 19.9999 90.7651 20.622ZM86.2299 20.5124C86.2192 21.1673 86.2549 21.7722 86.5842 22.315C86.8851 22.8108 87.3052 23.078 87.9118 23.0533C88.4843 23.03 88.8574 22.7281 89.0838 22.2519C89.5867 21.1943 89.5829 20.1093 89.131 19.037C88.8988 18.486 88.4768 18.1522 87.8487 18.1431C87.1947 18.1337 86.7836 18.4967 86.5055 19.0422C86.2639 19.5163 86.2157 20.0313 86.2299 20.5124Z" fill="white"/>
<path d="M75.7653 20.6037C75.7649 19.7099 75.7801 18.8158 75.7583 17.9226C75.7479 17.4998 75.9165 17.3394 76.3249 17.3581C77.1621 17.3963 78.0051 17.2587 78.8379 17.4499C79.6864 17.6447 80.2005 18.1357 80.3165 18.8779C80.4403 19.6692 80.1318 20.3035 79.3488 20.7323C79.0424 20.9001 79.0376 21.0573 79.184 21.323C79.5549 21.9959 79.9032 22.6815 80.2782 23.3522C80.4642 23.6849 80.4865 23.831 80.0133 23.8607C79.4172 23.8981 79.0478 23.7354 78.8198 23.1474C78.5883 22.5504 78.2366 22.0011 77.9676 21.417C77.821 21.0985 77.5993 21.0099 77.2814 21.0539C76.9001 21.1065 76.9902 21.4068 76.9869 21.6378C76.9786 22.2096 76.9798 22.782 76.9998 23.3534C77.0185 23.8856 76.6545 23.826 76.3112 23.8476C75.9326 23.8714 75.7515 23.7496 75.7599 23.3384C75.7785 22.4272 75.7657 21.5153 75.7653 20.6037ZM76.9988 19.2322C76.9987 20.2308 76.9987 20.2308 77.5778 20.2331C78.5631 20.2372 79.0991 19.8611 79.0822 19.1776C79.067 18.5638 78.6006 18.2473 77.707 18.2445C76.9988 18.2423 76.9988 18.2423 76.9988 19.2322Z" fill="white"/>
<path d="M65.9805 20.6046C65.9815 18.8342 66.8601 17.5729 68.346 17.2839C69.1927 17.1193 70.0269 17.1966 70.764 17.7096C70.9262 17.8225 71.1943 17.9665 70.9472 18.207C70.7528 18.3962 70.6049 18.7645 70.211 18.5617C70.1001 18.5046 70.0019 18.4228 69.8916 18.3644C69.0183 17.9015 68.0263 18.1809 67.6137 19.0758C67.1246 20.1366 67.1116 21.2294 67.6873 22.2725C68.1549 23.1198 69.2139 23.3263 70.009 22.7632C70.3478 22.5232 70.7989 22.6154 70.9759 22.9701C71.1147 23.2482 70.8603 23.3592 70.7127 23.4836C69.7723 24.2764 68.0021 24.1894 67.0336 23.3154C66.3197 22.6713 65.9798 21.7963 65.9805 20.6046Z" fill="white"/>
<path d="M96.508 18.6024C96.3783 18.7651 96.4382 18.9496 96.4374 19.1186C96.4315 20.4425 96.4356 21.7665 96.4323 23.0904C96.4326 23.2687 96.419 23.4467 96.3916 23.6229C96.3688 23.7653 96.2607 23.8256 96.1166 23.8217C96.0851 23.8233 96.0536 23.8184 96.0241 23.8072C95.9946 23.796 95.9677 23.7788 95.9452 23.7567C95.9226 23.7347 95.9049 23.7081 95.8931 23.6788C95.8813 23.6495 95.8757 23.6181 95.8766 23.5866C95.8635 23.4444 95.8599 23.3009 95.8597 23.158C95.8572 21.4583 95.8506 19.7586 95.8606 18.059C95.862 17.8188 95.7244 17.491 96.1109 17.3859C96.5132 17.2765 96.6375 17.5905 96.7903 17.8504C97.6609 19.3308 98.5307 20.8116 99.3997 22.2928C99.4714 22.4148 99.5488 22.5333 99.6483 22.6931C99.7876 22.5319 99.7365 22.3698 99.737 22.2296C99.7418 20.8341 99.7388 19.4386 99.7417 18.0431C99.7384 17.8827 99.7517 17.7224 99.7814 17.5648C99.812 17.4218 99.94 17.3832 100.076 17.3901C100.13 17.3893 100.183 17.4085 100.224 17.444C100.266 17.4795 100.293 17.5289 100.3 17.5829C100.321 17.7243 100.331 17.8671 100.328 18.01C100.331 19.7455 100.335 21.4809 100.326 23.2163C100.324 23.4397 100.443 23.748 100.071 23.8301C99.7445 23.9024 99.5883 23.701 99.4426 23.4522C98.575 21.9701 97.7023 20.491 96.8245 19.0148C96.7387 18.8704 96.7004 18.6796 96.508 18.6024Z" fill="white"/>
<path d="M118.494 19.9418C118.494 20.5853 118.509 21.2292 118.491 21.8721C118.453 23.1615 117.679 23.9328 116.36 24.0204C115.068 24.1062 114.192 23.46 114.013 22.1935C113.804 20.7202 113.961 19.2321 113.931 17.7509C113.927 17.5518 113.997 17.3883 114.23 17.3902C114.482 17.3921 114.497 17.5904 114.499 17.772C114.507 18.9338 114.509 20.0956 114.518 21.2573C114.516 21.5071 114.531 21.7566 114.562 22.0044C114.768 23.4768 115.755 23.629 116.882 23.4111C117.47 23.2976 117.866 22.7151 117.887 21.9791C117.921 20.7467 117.909 19.513 117.917 18.2799C117.918 18.119 117.916 17.9579 117.925 17.7974C117.936 17.5899 117.976 17.3861 118.247 17.3978C118.507 17.409 118.487 17.623 118.488 17.797C118.493 18.5119 118.49 19.2269 118.49 19.9418L118.494 19.9418Z" fill="white"/>
<path d="M109.68 23.5549C109.707 23.7224 109.669 23.8096 109.533 23.8295C109.356 23.8554 109.207 23.812 109.139 23.6322C109.012 23.2978 108.876 22.9654 108.779 22.622C108.678 22.2587 108.487 22.0878 108.091 22.1049C107.502 22.1305 106.91 22.1237 106.319 22.1073C105.996 22.0983 105.825 22.2314 105.736 22.5337C105.64 22.8594 105.513 23.1757 105.405 23.4977C105.329 23.7244 105.206 23.9095 104.941 23.8076C104.682 23.708 104.841 23.4957 104.891 23.3492C105.519 21.4848 106.159 19.6245 106.789 17.7607C106.874 17.5099 107.01 17.3691 107.286 17.3604C107.599 17.3506 107.666 17.5775 107.741 17.7996C108.371 19.6635 109 21.5277 109.628 23.3922C109.651 23.4598 109.671 23.5282 109.68 23.5549ZM107.329 18.2792L107.206 18.277C106.871 19.271 106.538 20.2658 106.199 21.2586C106.109 21.5237 106.213 21.6266 106.471 21.6262C107.006 21.6253 107.541 21.6207 108.076 21.6261C108.352 21.6289 108.42 21.5142 108.333 21.2601C107.995 20.2678 107.663 19.273 107.329 18.2792Z" fill="white"/>
<path d="M60.9692 20.6026C60.9692 21.514 60.95 22.4259 60.9766 23.3365C60.9918 23.8545 60.688 23.8442 60.3204 23.8524C59.9318 23.8611 59.7314 23.7692 59.7388 23.3202C59.7612 21.9625 59.7524 20.6041 59.743 19.246C59.7398 18.7829 59.6942 18.3202 59.6766 17.8569C59.6552 17.2946 60.0712 17.3852 60.4218 17.3531C60.816 17.3171 60.9774 17.4758 60.9727 17.8686C60.9617 18.7798 60.9692 19.6912 60.9692 20.6026Z" fill="white"/>
<path d="M38.558 27.0605C38.1667 27.0613 37.7911 26.9068 37.5133 26.6309C37.2356 26.3549 37.0784 25.9801 37.0762 25.5883C37.074 25.1966 37.2269 24.82 37.5015 24.5409C37.7761 24.2619 38.15 24.1031 38.5412 24.0995C38.7362 24.0972 38.9297 24.1335 39.1106 24.2063C39.2914 24.2792 39.4562 24.3871 39.5952 24.5239C39.7343 24.6607 39.8449 24.8237 39.9208 25.0035C39.9968 25.1833 40.0364 25.3764 40.0375 25.5716C40.0386 25.7668 40.0011 25.9602 39.9273 26.1409C39.8534 26.3215 39.7446 26.4858 39.6071 26.6242C39.4696 26.7625 39.3061 26.8723 39.1261 26.9472C38.946 27.0221 38.7529 27.0606 38.558 27.0605Z" fill="white"/>
<path d="M2.96106 25.5606C2.96043 25.95 2.80879 26.324 2.5381 26.6036C2.26742 26.8833 1.89884 27.0468 1.51008 27.0597C1.31499 27.0639 1.12099 27.0294 0.939276 26.9582C0.757564 26.887 0.591737 26.7804 0.451361 26.6447C0.310985 26.509 0.198839 26.3468 0.121393 26.1675C0.0439469 25.9882 0.00273389 25.7953 0.00013146 25.5999C-0.00247097 25.4046 0.0335887 25.2106 0.10623 25.0293C0.178872 24.848 0.286657 24.6828 0.423368 24.5434C0.560079 24.404 0.723009 24.2931 0.902759 24.217C1.08251 24.141 1.27552 24.1013 1.47066 24.1003C1.8596 24.1031 2.23229 24.2569 2.51028 24.5293C2.78826 24.8016 2.94986 25.1713 2.96106 25.5606Z" fill="white"/>
<path d="M7.91241 34.2106C7.91006 34.4035 7.86962 34.594 7.79341 34.7712C7.71721 34.9483 7.60674 35.1086 7.46837 35.2429C7.33001 35.3771 7.16649 35.4826 6.98723 35.5533C6.80796 35.624 6.6165 35.6584 6.42387 35.6547C6.03479 35.6462 5.66421 35.4868 5.39021 35.2101C5.11622 34.9334 4.96022 34.561 4.95508 34.1714C4.96639 33.7822 5.12644 33.4122 5.40224 33.1376C5.67804 32.8631 6.04855 32.705 6.43737 32.6959C6.63489 32.6938 6.83078 32.7318 7.01319 32.8077C7.1956 32.8835 7.36075 32.9957 7.49864 33.1373C7.63653 33.2789 7.74429 33.447 7.81541 33.6315C7.88653 33.816 7.91953 34.013 7.91241 34.2106Z" fill="white"/>
<path d="M24.965 3.54472C24.1147 3.54068 23.5265 2.9424 23.5295 2.08441C23.5263 1.89198 23.5612 1.70081 23.6321 1.5219C23.7029 1.343 23.8084 1.17989 23.9425 1.04194C24.0766 0.904003 24.2365 0.793955 24.4132 0.718126C24.5899 0.642298 24.7798 0.602186 24.9721 0.600098C25.7547 0.600072 26.4613 1.28999 26.4707 2.0634C26.4733 2.26086 26.4359 2.45681 26.3608 2.63942C26.2857 2.82203 26.1745 2.98753 26.0338 3.12594C25.8931 3.26436 25.7259 3.37282 25.5422 3.44479C25.3585 3.51676 25.1622 3.55076 24.965 3.54472Z" fill="white"/>
<path d="M16.5098 39.1239C16.5136 39.9724 15.915 40.588 15.0746 40.5997C14.233 40.6115 13.5376 39.9378 13.555 39.1276C13.5744 38.7393 13.7382 38.3723 14.0141 38.0988C14.2901 37.8252 14.6583 37.665 15.0463 37.6494C15.435 37.6527 15.8068 37.8094 16.0808 38.0854C16.3548 38.3615 16.509 38.7347 16.5098 39.1239Z" fill="white"/>
<path d="M24.9865 40.6001C24.1409 40.6049 23.5325 40.0032 23.5293 39.1592C23.5261 38.3194 24.1342 37.6728 24.9488 37.6499C25.7401 37.6277 26.4813 38.3562 26.4696 39.1446C26.4637 39.5339 26.3046 39.9051 26.0269 40.1777C25.7492 40.4502 25.3753 40.602 24.9865 40.6001Z" fill="white"/>
<path d="M16.5098 2.07905C16.5122 2.92417 15.9076 3.5401 15.071 3.54482C14.2204 3.54963 13.5362 2.88554 13.5551 2.07329C13.5732 1.28846 14.2736 0.598435 15.0468 0.603544C15.4355 0.607173 15.8072 0.764132 16.0811 1.04036C16.355 1.3166 16.509 1.68982 16.5098 2.07905Z" fill="white"/>
<path d="M32.1299 7.03665C32.1252 6.84423 32.16 6.65289 32.2322 6.47449C32.3043 6.29608 32.4123 6.1344 32.5494 5.99944C32.6864 5.86448 32.8497 5.75912 33.0291 5.68988C33.2085 5.62064 33.4002 5.58899 33.5922 5.59689C33.7873 5.5937 33.9811 5.6297 34.162 5.70277C34.3429 5.77583 34.5074 5.88449 34.6457 6.02229C34.7839 6.1601 34.8932 6.32427 34.967 6.50509C35.0408 6.6859 35.0776 6.8797 35.0753 7.07502C35.073 7.27033 35.0316 7.4632 34.9535 7.64222C34.8755 7.82124 34.7624 7.98277 34.6209 8.11726C34.4794 8.25175 34.3124 8.35647 34.1298 8.42523C33.9472 8.49399 33.7526 8.52539 33.5577 8.51757C33.3657 8.51787 33.1757 8.47939 32.999 8.40441C32.8222 8.32944 32.6624 8.21953 32.5291 8.08125C32.3958 7.94298 32.2917 7.77919 32.2231 7.5997C32.1545 7.4202 32.1228 7.2287 32.1299 7.03665Z" fill="white"/>
<path d="M6.45299 5.60271C6.64506 5.59801 6.83611 5.63228 7.01461 5.70343C7.19312 5.77459 7.3554 5.88117 7.49169 6.01677C7.62797 6.15236 7.73545 6.31416 7.80764 6.49242C7.87983 6.67069 7.91525 6.86173 7.91176 7.05406C7.91346 7.24665 7.87704 7.43767 7.80462 7.61609C7.7322 7.79452 7.62519 7.95681 7.48979 8.09362C7.35439 8.23043 7.19326 8.33903 7.01572 8.41317C6.83817 8.48731 6.64772 8.52551 6.45535 8.52557C6.25841 8.5275 6.06305 8.49017 5.88067 8.41573C5.69828 8.34129 5.53253 8.23125 5.39307 8.09201C5.25361 7.95278 5.14323 7.78714 5.06838 7.60475C4.99352 7.42236 4.95568 7.22688 4.95707 7.0297C4.96056 6.83731 5.00215 6.64753 5.07944 6.47136C5.15673 6.29519 5.26818 6.13613 5.40733 6.00339C5.54647 5.87066 5.71054 5.7669 5.89004 5.69812C6.06954 5.62934 6.26088 5.59691 6.45299 5.60271Z" fill="white"/>
<path d="M1.49262 14.2117C2.33334 14.2144 2.96051 14.8299 2.96112 15.6527C2.95976 15.8476 2.92002 16.0403 2.84418 16.2198C2.76834 16.3993 2.65788 16.5621 2.51913 16.6988C2.38038 16.8355 2.21606 16.9435 2.03558 17.0166C1.8551 17.0896 1.662 17.1263 1.46733 17.1246C1.27266 17.1228 1.08025 17.0827 0.901105 17.0064C0.721958 16.9301 0.559597 16.8192 0.423313 16.68C0.287029 16.5408 0.179499 16.3761 0.106877 16.1953C0.0342541 16.0145 -0.00203437 15.8211 8.79962e-05 15.6262C0.0119748 14.8084 0.644529 14.2089 1.49262 14.2117Z" fill="white"/>
<path d="M38.5342 14.2119C39.3977 14.207 40.0434 14.8365 40.0364 15.6763C40.0247 16.0648 39.8622 16.4334 39.5833 16.7038C39.3045 16.9742 38.9313 17.1251 38.5431 17.1245C38.1547 17.1241 37.7822 16.9697 37.5072 16.6949C37.2323 16.4201 37.0773 16.0475 37.0762 15.6586C37.0736 14.8327 37.6944 14.2167 38.5342 14.2119Z" fill="white"/>
<path d="M32.1292 34.1734C32.1253 33.9809 32.1597 33.7895 32.2306 33.6105C32.3014 33.4314 32.4072 33.2683 32.5417 33.1307C32.6762 32.9931 32.8368 32.8837 33.0141 32.8089C33.1913 32.7342 33.3817 32.6955 33.574 32.6953C33.9621 32.7023 34.333 32.8569 34.6113 33.1278C34.8896 33.3987 35.0544 33.7655 35.0724 34.1537C35.0886 34.9526 34.3787 35.6608 33.5677 35.6548C32.7489 35.6487 32.1286 35.0099 32.1292 34.1734Z" fill="white"/>
<path d="M23.0187 5.65908C23.0192 6.3531 22.3971 6.97393 21.7161 6.95895C21.3831 6.94055 21.0685 6.79966 20.8329 6.5633C20.5973 6.32694 20.4572 6.01178 20.4395 5.67831C20.4442 5.34404 20.5773 5.02443 20.8112 4.78581C21.045 4.54718 21.3617 4.40786 21.6954 4.39675C21.8655 4.3909 22.0351 4.41909 22.1942 4.47967C22.3533 4.54026 22.4987 4.63202 22.6219 4.74957C22.7452 4.86713 22.8437 5.00812 22.9119 5.1643C22.98 5.32047 23.0163 5.48868 23.0187 5.65908Z" fill="white"/>
<path d="M33.7007 22.2642C33.7482 21.5097 34.3281 21.0315 35.1259 21.0889C35.4481 21.1204 35.7458 21.2748 35.9571 21.5203C36.1685 21.7657 36.2774 22.0832 36.2611 22.4068C36.2018 23.0939 35.5888 23.6521 34.9304 23.6186C34.7608 23.6105 34.5945 23.5692 34.4409 23.4967C34.2873 23.4243 34.1494 23.3223 34.0352 23.1965C33.921 23.0707 33.8327 22.9236 33.7753 22.7637C33.7179 22.6037 33.6925 22.4339 33.7007 22.2642Z" fill="white"/>
<path d="M35.1006 14.6228C35.1047 14.7883 35.0756 14.9528 35.0152 15.1069C34.9548 15.2609 34.8642 15.4013 34.7488 15.5198C34.6334 15.6383 34.4955 15.7325 34.3432 15.7968C34.1909 15.8611 34.0272 15.8943 33.8619 15.8944C33.1139 15.9102 32.5631 15.3777 32.5611 14.6367C32.5562 14.4712 32.5843 14.3064 32.6439 14.152C32.7035 13.9976 32.7933 13.8566 32.908 13.7375C33.0228 13.6183 33.1602 13.5233 33.3121 13.458C33.4641 13.3927 33.6275 13.3585 33.7929 13.3573C33.9628 13.3502 34.1324 13.3777 34.2914 13.4382C34.4505 13.4987 34.5955 13.5909 34.7178 13.7093C34.8401 13.8276 34.9371 13.9696 35.0029 14.1267C35.0687 14.2837 35.102 14.4525 35.1006 14.6228Z" fill="white"/>
<path d="M7.87479 12.9053C7.13134 12.8867 6.63099 12.3396 6.65935 11.5763C6.67239 11.2519 6.80971 10.9449 7.0428 10.7191C7.27589 10.4934 7.58686 10.3661 7.91118 10.3638C8.25388 10.3678 8.58116 10.507 8.82202 10.7511C9.06287 10.9952 9.19785 11.3245 9.19768 11.6676C9.19259 12.3851 8.61669 12.9239 7.87479 12.9053Z" fill="white"/>
<path d="M7.47825 26.626C7.46684 26.9689 7.3209 27.2934 7.07207 27.5293C6.82325 27.7652 6.4916 27.8934 6.14901 27.8861C5.81281 27.8665 5.49776 27.7155 5.27172 27.4656C5.04568 27.2156 4.92674 26.8868 4.94053 26.5499C4.95432 26.2131 5.09972 25.8951 5.34543 25.6645C5.59113 25.434 5.91746 25.3093 6.25413 25.3173C6.9196 25.3328 7.49114 25.9439 7.47825 26.626Z" fill="white"/>
<path d="M18.3186 36.8373C17.9756 36.842 17.6446 36.7109 17.3977 36.4725C17.1507 36.2341 17.0078 35.9077 17 35.5643C17.0041 35.2298 17.1388 34.9102 17.3753 34.674C17.6119 34.4377 17.9314 34.3035 18.2655 34.3001C18.4354 34.2932 18.605 34.3208 18.7639 34.3813C18.9229 34.4419 19.0679 34.5341 19.1902 34.6524C19.3125 34.7708 19.4096 34.9127 19.4755 35.0697C19.5414 35.2266 19.5748 35.3954 19.5737 35.5656C19.5715 35.8996 19.4391 36.2195 19.2046 36.4571C18.9701 36.6947 18.6522 36.8311 18.3186 36.8373Z" fill="white"/>
<path d="M29.0042 9.77442C28.2401 9.78072 27.7202 9.2702 27.7228 8.51603C27.7204 8.35066 27.7506 8.18645 27.8118 8.03281C27.8729 7.87918 27.9638 7.73915 28.0791 7.62076C28.1945 7.50238 28.332 7.40797 28.4839 7.34296C28.6358 7.27796 28.799 7.24362 28.9642 7.24194C29.3067 7.24221 29.6352 7.37791 29.8783 7.61951C30.1213 7.86111 30.2592 8.18905 30.2618 8.53193C30.2633 8.6969 30.2316 8.86049 30.1687 9.01299C30.1058 9.16548 30.013 9.30377 29.8957 9.41966C29.7784 9.53554 29.6391 9.62666 29.4859 9.6876C29.3328 9.74854 29.169 9.77806 29.0042 9.77442Z" fill="white"/>
<path d="M6.30193 18.8793C6.31019 19.6259 5.77077 20.1864 5.04813 20.1821C4.71506 20.1754 4.3971 20.0417 4.15917 19.8082C3.92125 19.5748 3.78131 19.2592 3.76792 18.9259C3.76404 18.7608 3.79298 18.5965 3.85307 18.4426C3.91315 18.2888 4.00318 18.1484 4.11791 18.0296C4.23265 17.9109 4.36981 17.8162 4.52143 17.751C4.67305 17.6858 4.8361 17.6514 5.0011 17.6498C5.78347 17.6341 6.29348 18.1161 6.30193 18.8793Z" fill="white"/>
<path d="M25.9832 35.6601C25.2636 35.654 24.7255 35.1281 24.7188 34.4243C24.7233 34.0815 24.8619 33.7542 25.1049 33.5126C25.3478 33.271 25.6756 33.1344 26.018 33.1321C26.7235 33.13 27.272 33.718 27.2561 34.4595C27.2404 35.1926 26.738 35.6665 25.9832 35.6601Z" fill="white"/>
<path d="M14.0145 8.0561C13.263 8.05446 12.7849 7.57501 12.7832 6.82147C12.7816 6.07051 13.3132 5.52132 14.0399 5.52344C14.7189 5.52543 15.3332 6.16433 15.3135 6.84812C15.2934 7.54494 14.742 8.05769 14.0145 8.0561Z" fill="white"/>
<path d="M32.1317 30.8263C31.3753 30.8333 30.8416 30.3129 30.8418 29.5685C30.839 29.2347 30.968 28.9134 31.2008 28.6746C31.4336 28.4357 31.7513 28.2987 32.0847 28.2935C32.2541 28.2923 32.4222 28.3245 32.5792 28.3885C32.7362 28.4525 32.879 28.5468 32.9995 28.6662C33.12 28.7855 33.2157 28.9275 33.2813 29.084C33.3468 29.2405 33.3808 29.4084 33.3814 29.5781C33.3845 29.7431 33.3543 29.9071 33.2925 30.0601C33.2308 30.2132 33.1388 30.3521 33.0221 30.4687C32.9054 30.5853 32.7663 30.6771 32.6133 30.7385C32.4603 30.7999 32.2965 30.8298 32.1317 30.8263Z" fill="white"/>
<path d="M11.0709 33.9415C10.3127 33.9483 9.77159 33.4263 9.7774 32.6938C9.77588 32.5257 9.80769 32.3589 9.87098 32.2032C9.93427 32.0475 10.0278 31.9059 10.1461 31.7866C10.2644 31.6673 10.4052 31.5727 10.5603 31.5083C10.7154 31.4438 10.8817 31.4108 11.0496 31.4111C11.2175 31.4115 11.3837 31.4452 11.5385 31.5102C11.6934 31.5753 11.8338 31.6705 11.9516 31.7902C12.0695 31.91 12.1624 32.052 12.2251 32.208C12.2877 32.3639 12.3189 32.5308 12.3167 32.6989C12.3217 33.4072 11.7924 33.9351 11.0709 33.9415Z" fill="white"/>
<path d="M124.349 20.7661C124.349 19.9621 124.335 19.1577 124.355 18.3541C124.364 17.9632 124.231 17.7914 123.828 17.827C123.578 17.8405 123.328 17.8394 123.078 17.8238C122.926 17.8194 122.783 17.7822 122.783 17.5907C122.783 17.4271 122.916 17.3796 123.041 17.3781C124.113 17.3654 125.186 17.3581 126.258 17.3562C126.414 17.3558 126.539 17.4229 126.54 17.6084C126.541 17.817 126.384 17.8202 126.24 17.8245C125.99 17.8406 125.74 17.8414 125.49 17.8267C125.071 17.7872 124.926 17.949 124.931 18.3739C124.952 19.9283 124.941 21.4831 124.942 23.0378C124.942 23.145 124.95 23.2527 124.942 23.3593C124.928 23.5625 124.989 23.8346 124.656 23.8221C124.343 23.8103 124.373 23.544 124.371 23.3393C124.363 22.4816 124.368 21.6238 124.368 20.7661L124.349 20.7661Z" fill="white"/>
<path d="M25.5461 31.2553C25.4129 31.2575 25.2806 31.2327 25.1572 31.1824C25.0338 31.1321 24.9219 31.0574 24.828 30.9627C24.7342 30.8681 24.6604 30.7554 24.6111 30.6315C24.5619 30.5075 24.5381 30.3749 24.5413 30.2416C24.5517 29.9748 24.6659 29.7227 24.8594 29.539C25.0528 29.3553 25.3104 29.2546 25.577 29.2584C25.8436 29.2622 26.0982 29.3701 26.2865 29.5591C26.4747 29.7482 26.5817 30.0034 26.5846 30.2704C26.5924 30.8133 26.1221 31.2593 25.5461 31.2553Z" fill="white"/>
<path d="M29.5846 27.1962C29.4547 27.1916 29.327 27.1611 29.2091 27.1062C29.0912 27.0514 28.9855 26.9735 28.8982 26.8771C28.8109 26.7806 28.7439 26.6677 28.701 26.5448C28.6581 26.422 28.6402 26.2918 28.6484 26.1619C28.6793 25.598 29.1851 25.1416 29.7252 25.1903C29.9863 25.2161 30.2284 25.3387 30.4038 25.5342C30.5792 25.7296 30.6752 25.9837 30.673 26.2464C30.6661 26.3811 30.6322 26.5131 30.5733 26.6344C30.5144 26.7557 30.4317 26.8639 30.3301 26.9525C30.2285 27.0412 30.1102 27.1084 29.9821 27.1503C29.854 27.1921 29.7188 27.2078 29.5846 27.1962Z" fill="white"/>
<path d="M25.6104 12.0094C25.3413 12.0024 25.0856 11.8899 24.8984 11.6962C24.7113 11.5025 24.6075 11.243 24.6094 10.9734C24.6066 10.7123 24.7068 10.4607 24.8883 10.2731C25.0698 10.0856 25.3179 9.97743 25.5787 9.97206C25.7122 9.96839 25.8452 9.99147 25.9698 10.0399C26.0943 10.0884 26.2079 10.1613 26.304 10.2544C26.4 10.3474 26.4765 10.4587 26.529 10.5817C26.5815 10.7048 26.6089 10.8371 26.6096 10.9709C26.6118 11.2404 26.5085 11.5001 26.3217 11.6943C26.1349 11.8884 25.8795 12.0016 25.6104 12.0094Z" fill="white"/>
<path d="M15.4483 10.9993C15.4344 11.5654 15.0225 11.9564 14.4428 11.9536C14.1808 11.95 13.9304 11.8448 13.7444 11.6602C13.5583 11.4755 13.4511 11.2258 13.4453 10.9635C13.4547 10.6928 13.5671 10.4358 13.7595 10.2453C13.9518 10.0547 14.2097 9.94499 14.4802 9.93848C15.0403 9.94264 15.4628 10.4056 15.4483 10.9993Z" fill="white"/>
<path d="M28.6896 15.0664C28.6935 14.4635 29.11 14.0609 29.7137 14.0766C29.8437 14.0779 29.9721 14.105 30.0917 14.1562C30.2112 14.2074 30.3193 14.2819 30.41 14.3752C30.5006 14.4685 30.5719 14.5789 30.6197 14.6999C30.6675 14.8209 30.6909 14.9503 30.6885 15.0804C30.6822 15.352 30.5694 15.6103 30.3747 15.7995C30.1799 15.9888 29.9186 16.0938 29.6472 16.092C29.3861 16.0782 29.1405 15.9637 28.9619 15.7724C28.7834 15.5812 28.6858 15.3281 28.6896 15.0664Z" fill="white"/>
<path d="M21.0242 9.48195C21.0284 9.74371 20.9303 9.99673 20.7508 10.1871C20.5713 10.3775 20.3246 10.4901 20.0634 10.5011C19.792 10.4991 19.532 10.3916 19.3383 10.2013C19.1447 10.011 19.0324 9.75278 19.0254 9.48118C19.0256 9.21876 19.1282 8.96682 19.3115 8.77916C19.4947 8.5915 19.7439 8.483 20.006 8.47684C20.6052 8.47287 21.021 8.88337 21.0242 9.48195Z" fill="white"/>
<path d="M11.3492 26.1417C11.3523 26.2736 11.3293 26.4049 11.2816 26.5279C11.2338 26.6509 11.1623 26.7633 11.071 26.8585C10.9797 26.9537 10.8706 27.03 10.7498 27.0828C10.629 27.1357 10.499 27.1641 10.3672 27.1665C10.2354 27.1689 10.1044 27.1452 9.98177 27.0967C9.85915 27.0482 9.74732 26.976 9.65269 26.8841C9.55806 26.7922 9.4825 26.6825 9.43036 26.5613C9.37822 26.4401 9.35053 26.3097 9.34887 26.1778C9.34233 26.048 9.3622 25.9182 9.40728 25.7963C9.45235 25.6744 9.52169 25.5629 9.61108 25.4687C9.70047 25.3744 9.80806 25.2994 9.92731 25.248C10.0466 25.1966 10.175 25.17 10.3048 25.1699C10.906 25.1505 11.3395 25.5538 11.3492 26.1417Z" fill="white"/>
<path d="M31.1537 19.6292C31.7004 19.6319 32.1953 20.1316 32.1785 20.6641C32.1623 21.1822 31.6738 21.6622 31.166 21.6591C30.8979 21.6595 30.6405 21.5537 30.4502 21.3646C30.2598 21.1755 30.152 20.9187 30.1504 20.6503C30.1488 20.3818 30.2534 20.1237 30.4415 19.9323C30.6295 19.7409 30.8856 19.6319 31.1537 19.6292Z" fill="white"/>
<path d="M13.43 30.2661C13.4232 29.6633 13.8316 29.2476 14.4266 29.252C14.6881 29.2513 14.9394 29.3532 15.1267 29.536C15.3139 29.7187 15.4221 29.9677 15.4281 30.2294C15.4272 30.5001 15.3194 30.7596 15.1282 30.951C14.937 31.1425 14.6779 31.2504 14.4075 31.2513C14.2778 31.2539 14.149 31.2302 14.0288 31.1815C13.9086 31.1328 13.7995 31.0603 13.7081 30.9682C13.6168 30.8761 13.545 30.7664 13.4972 30.6457C13.4494 30.525 13.4266 30.3959 13.43 30.2661Z" fill="white"/>
<path d="M21.0091 31.7671C20.9977 32.0382 20.88 32.2938 20.6817 32.4786C20.4834 32.6635 20.2203 32.7627 19.9495 32.7547C19.6898 32.744 19.4445 32.6324 19.2657 32.4434C19.087 32.2545 18.9889 32.0033 18.9923 31.7431C18.9957 31.4829 19.1003 31.2343 19.2839 31.0501C19.4675 30.8659 19.7156 30.7606 19.9754 30.7567C20.1097 30.7547 20.243 30.7793 20.3677 30.8291C20.4924 30.8789 20.606 30.9529 20.7021 31.0467C20.7982 31.1406 20.8747 31.2526 20.9274 31.3763C20.9801 31.4999 21.0079 31.6327 21.0091 31.7671Z" fill="white"/>
<path d="M9.84756 20.5748C9.85208 21.1884 9.45519 21.5924 8.85415 21.586C8.72167 21.5863 8.59047 21.5602 8.46817 21.5092C8.34587 21.4582 8.23493 21.3833 8.14181 21.289C8.04869 21.1947 7.97525 21.0827 7.92577 20.9597C7.87629 20.8367 7.85176 20.705 7.85361 20.5724C7.85546 20.4398 7.88365 20.3088 7.93654 20.1872C7.98943 20.0656 8.06596 19.9558 8.16168 19.8641C8.25739 19.7724 8.37037 19.7007 8.49405 19.6531C8.61772 19.6056 8.7496 19.5831 8.88202 19.5871C9.45146 19.5896 9.84324 19.9904 9.84756 20.5748Z" fill="white"/>
<path d="M11.3531 15.0371C11.3452 15.6508 10.9531 16.0198 10.3269 16.0031C10.1975 16.0019 10.0696 15.9749 9.95067 15.9238C9.83176 15.8727 9.72418 15.7984 9.63419 15.7053C9.54419 15.6122 9.47358 15.5022 9.42645 15.3815C9.37932 15.2608 9.35661 15.132 9.35964 15.0025C9.37188 14.7412 9.48179 14.4942 9.66755 14.3103C9.8533 14.1265 10.1013 14.0193 10.3624 14.0101C10.9394 14.0043 11.3607 14.441 11.3531 15.0371Z" fill="white"/>
<path d="M28.3094 20.3906C28.3074 20.5639 28.2546 20.7327 28.1574 20.8761C28.0601 21.0194 27.9229 21.1309 27.7627 21.1965C27.6025 21.2622 27.4266 21.2791 27.2569 21.2452C27.0872 21.2113 26.9312 21.1281 26.8085 21.0059C26.6857 20.8838 26.6017 20.7281 26.5669 20.5584C26.532 20.3887 26.5479 20.2125 26.6126 20.0517C26.6772 19.891 26.7877 19.7529 26.9303 19.6548C27.0729 19.5566 27.2413 19.5027 27.4143 19.4998C27.6474 19.5104 27.8682 19.6075 28.0336 19.7722C28.1991 19.9369 28.2974 20.1574 28.3094 20.3906Z" fill="white"/>
<path d="M27.4315 24.1271C27.4272 24.5785 26.9774 25.0128 26.5239 25.0036C26.2908 24.9918 26.0718 24.8883 25.9146 24.7157C25.7573 24.543 25.6746 24.3151 25.6844 24.0816C25.692 23.8576 25.786 23.6453 25.9465 23.489C26.107 23.3328 26.3217 23.2448 26.5456 23.2434C26.7787 23.2475 27.0012 23.3418 27.1663 23.5066C27.3315 23.6713 27.4266 23.8937 27.4315 24.1271Z" fill="white"/>
<path d="M14.3537 17.1354C14.3456 17.3689 14.2463 17.5898 14.0772 17.7507C13.9081 17.9116 13.6826 17.9997 13.4493 17.9958C12.9903 17.9795 12.5721 17.5277 12.5946 17.0726C12.6103 16.8487 12.711 16.6393 12.8761 16.4875C13.0413 16.3357 13.2582 16.253 13.4823 16.2564C13.5977 16.2552 13.7121 16.2772 13.8188 16.321C13.9255 16.3648 14.0223 16.4296 14.1036 16.5116C14.1848 16.5935 14.2488 16.691 14.2918 16.7981C14.3347 16.9053 14.3558 17.02 14.3537 17.1354Z" fill="white"/>
<path d="M24.7808 26.9247C24.7803 27.1513 24.6918 27.3689 24.5341 27.5315C24.3763 27.6941 24.1617 27.789 23.9354 27.7961C23.4744 27.8016 23.0281 27.356 23.0372 26.8993C23.0476 26.6639 23.1498 26.4418 23.3218 26.2809C23.4939 26.12 23.7221 26.0331 23.9575 26.0388C24.1832 26.0493 24.3958 26.1479 24.5498 26.3135C24.7037 26.4791 24.7866 26.6985 24.7808 26.9247Z" fill="white"/>
<path d="M20.2426 27.1426C20.478 27.1475 20.7021 27.2444 20.867 27.4125C21.032 27.5806 21.1248 27.8066 21.1255 28.0423C21.1158 28.2684 21.0197 28.4822 20.8571 28.6393C20.6944 28.7965 20.4776 28.8851 20.2515 28.8868C20.0255 28.8884 19.8074 28.8031 19.6425 28.6483C19.4775 28.4935 19.3782 28.2812 19.3652 28.0553C19.368 27.8199 19.4604 27.5945 19.6234 27.4249C19.7864 27.2554 20.0078 27.1544 20.2426 27.1426Z" fill="white"/>
<path d="M19.7813 14.0671C19.6697 14.0701 19.5585 14.0509 19.4543 14.0106C19.3501 13.9704 19.255 13.9097 19.1743 13.8323C19.0937 13.7549 19.0292 13.6623 18.9846 13.5597C18.94 13.4572 18.9162 13.3468 18.9146 13.235C18.9105 13.1186 18.93 13.0025 18.9717 12.8937C19.0134 12.785 19.0766 12.6857 19.1575 12.602C19.2383 12.5182 19.3352 12.4515 19.4423 12.406C19.5495 12.3606 19.6646 12.3371 19.781 12.3372C20.0068 12.3417 20.2227 12.431 20.3857 12.5875C20.5488 12.744 20.6471 12.9561 20.6611 13.1818C20.6641 13.2985 20.6434 13.4146 20.6003 13.523C20.5572 13.6315 20.4926 13.7301 20.4104 13.8128C20.3281 13.8956 20.23 13.9608 20.1219 14.0045C20.0138 14.0482 19.8979 14.0695 19.7813 14.0671Z" fill="white"/>
<path d="M17.3684 27.1783C17.3631 27.4042 17.2699 27.6191 17.1085 27.7771C16.9472 27.935 16.7306 28.0236 16.5049 28.0238C16.2703 28.0159 16.0481 27.9166 15.8856 27.7471C15.723 27.5775 15.6331 27.3512 15.6348 27.1162C15.6525 26.8912 15.7516 26.6805 15.9136 26.5235C16.0755 26.3666 16.2892 26.2743 16.5143 26.2639C16.6308 26.2663 16.7457 26.2921 16.8521 26.3396C16.9585 26.3872 17.0543 26.4556 17.1339 26.5408C17.2135 26.626 17.2753 26.7264 17.3155 26.8359C17.3558 26.9453 17.3738 27.0618 17.3684 27.1783Z" fill="white"/>
<path d="M26.313 15.8337C26.5382 15.8345 26.7542 15.9233 26.9149 16.0811C27.0756 16.239 27.1684 16.4535 27.1735 16.6789C27.1779 16.7952 27.1593 16.9113 27.1187 17.0203C27.0782 17.1294 27.0164 17.2294 26.9371 17.3145C26.8578 17.3995 26.7624 17.4681 26.6565 17.5161C26.5506 17.5641 26.4363 17.5907 26.3201 17.5942C26.092 17.5874 25.8756 17.4921 25.7164 17.3285C25.5572 17.1649 25.4677 16.9458 25.4668 16.7174C25.4659 16.489 25.5536 16.2692 25.7115 16.1043C25.8694 15.9395 26.085 15.8425 26.313 15.8337Z" fill="white"/>
<path d="M16.958 14.3381C16.9607 14.4544 16.9389 14.5699 16.894 14.6773C16.8492 14.7846 16.7823 14.8813 16.6978 14.961C16.6132 15.0408 16.5129 15.1019 16.4032 15.1403C16.2935 15.1788 16.177 15.1937 16.0612 15.1842C15.5806 15.1649 15.2536 14.8048 15.2587 14.3004C15.2535 14.1889 15.2716 14.0775 15.312 13.9734C15.3523 13.8693 15.4139 13.7748 15.4929 13.696C15.5718 13.6172 15.6664 13.5557 15.7704 13.5156C15.8745 13.4755 15.9858 13.4576 16.0971 13.4631C16.6137 13.4606 16.9657 13.8183 16.958 14.3381Z" fill="white"/>
<path d="M13.7117 23.6673C13.8248 23.6664 13.9369 23.6879 14.0416 23.7307C14.1463 23.7735 14.2415 23.8367 14.3216 23.9165C14.4018 23.9964 14.4653 24.0914 14.5086 24.196C14.5518 24.3006 14.5739 24.4127 14.5736 24.5259C14.5732 24.6391 14.5505 24.7512 14.5066 24.8555C14.4627 24.9599 14.3986 25.0545 14.318 25.1338C14.2374 25.2132 14.1418 25.2758 14.0369 25.318C13.932 25.3601 13.8197 25.381 13.7066 25.3795C13.4812 25.3818 13.2638 25.2958 13.1008 25.1399C12.9379 24.9839 12.8423 24.7704 12.8345 24.5448C12.8305 24.4284 12.8505 24.3125 12.8932 24.2042C12.9359 24.0959 13.0004 23.9975 13.0827 23.9153C13.165 23.833 13.2632 23.7685 13.3715 23.7258C13.4797 23.6831 13.5955 23.6632 13.7117 23.6673Z" fill="white"/>
<path d="M12.5698 21.6951C12.4559 21.6947 12.3433 21.6713 12.2387 21.6263C12.1341 21.5812 12.0396 21.5156 11.9609 21.4331C11.8823 21.3507 11.8211 21.2532 11.7809 21.1465C11.7408 21.0399 11.7225 20.9262 11.7273 20.8123C11.7321 20.6984 11.7598 20.5866 11.8087 20.4837C11.8576 20.3807 11.9268 20.2887 12.0121 20.2132C12.0974 20.1377 12.197 20.0801 12.305 20.0441C12.413 20.008 12.5272 19.9941 12.6407 20.0032C12.7549 20.0031 12.868 20.0262 12.973 20.071C13.0781 20.1158 13.1731 20.1814 13.2521 20.2639C13.3312 20.3464 13.3928 20.444 13.4332 20.551C13.4736 20.6579 13.4919 20.772 13.4871 20.8862C13.4824 21.0005 13.4545 21.1126 13.4053 21.2157C13.3561 21.3189 13.2866 21.4111 13.2009 21.4867C13.1152 21.5622 13.0151 21.6197 12.9066 21.6555C12.7982 21.6913 12.6836 21.7048 12.5698 21.6951Z" fill="white"/>
<path d="M24.356 14.0833C24.3572 14.6013 24.0458 14.9212 23.5335 14.9281C23.0025 14.9354 22.664 14.5946 22.674 14.0627C22.6836 13.5547 23.0091 13.2431 23.5262 13.2471C24.0416 13.2511 24.3548 13.5667 24.356 14.0833Z" fill="white"/>
<path d="M131.116 15.557C130.01 15.5706 129.277 16.3654 129.277 17.552C129.278 18.7909 129.993 19.5524 131.15 19.5471C132.275 19.5419 132.998 18.7713 133.001 17.5754C133.003 16.3847 132.218 15.5436 131.116 15.557ZM132.442 17.9028C132.375 18.1185 132.388 18.4575 132.148 18.4802C131.93 18.5009 131.867 18.1508 131.709 17.9873C131.49 17.7617 131.708 17.6622 131.827 17.5136C132.167 17.0895 132.001 16.5596 131.476 16.4172C131.265 16.3784 131.051 16.3632 130.837 16.3719C130.507 16.3598 130.343 16.5056 130.355 16.8536C130.372 17.3362 130.361 17.8198 130.372 18.3027C130.376 18.4717 130.34 18.6981 130.619 18.6835C130.881 18.6698 130.84 18.4539 130.856 18.2805C130.867 18.1606 130.82 18.0293 130.963 17.8772C131.328 18.1447 131.397 18.6526 131.883 18.8261C131.417 19.1498 130.967 19.1301 130.53 18.9353C129.879 18.645 129.597 17.7024 129.897 16.9214C130.158 16.2407 130.802 15.9083 131.491 16.098C132.168 16.2841 132.603 17.0409 132.469 17.7989C132.462 17.8341 132.453 17.8688 132.442 17.9028ZM131.591 17.1525C131.568 17.4018 130.844 17.3563 130.844 17.3563V16.8012C131.059 16.7672 131.614 16.9032 131.591 17.1525Z" fill="white"/>
</g>
<defs>
<clipPath id="clip0_114_2676">
<rect width="133" height="40" fill="white" transform="translate(0 0.600098)"/>
</clipPath>
</defs>
</svg>
