<svg width="163" height="41" viewBox="0 0 163 41" fill="none" xmlns="http://www.w3.org/2000/svg">
<path d="M51.4471 19.5602C51.4471 21.7739 51.0018 23.6145 50.1113 25.082C49.2652 26.5118 47.9212 27.5738 46.3406 28.0615L50.4538 32.3423H47.5364L44.1681 28.4397L43.5174 28.4641C40.9705 28.4641 39.0065 27.6854 37.6252 26.1282C36.244 24.5709 35.5525 22.3735 35.5508 19.5359C35.5508 16.7213 36.2444 14.5397 37.6316 12.991C39.0188 11.4423 40.9888 10.6666 43.5416 10.6641C46.024 10.6641 47.9621 11.4525 49.3561 13.0294C50.7501 14.6064 51.4471 16.7833 51.4471 19.5602ZM37.6761 19.5602C37.6761 21.9012 38.1745 23.6769 39.1712 24.8871C40.1678 26.0974 41.6157 26.7021 43.5149 26.7012C45.4301 26.7012 46.8763 26.0982 47.8535 24.8923C48.8306 23.6863 49.3192 21.9089 49.3192 19.5602C49.3192 17.2346 48.8323 15.4709 47.8586 14.2692C46.8848 13.0675 45.4458 12.4662 43.5416 12.4653C41.6264 12.4653 40.1704 13.0705 39.1737 14.2807C38.177 15.491 37.6787 17.2508 37.6787 19.5602H37.6761Z" fill="white"/>
<path d="M71.2572 10.9399V22.1258C71.2572 24.0959 70.6629 25.6451 69.4744 26.7733C68.2858 27.9015 66.649 28.4652 64.564 28.4643C62.4832 28.4643 60.8736 27.8964 59.7351 26.7605C58.5967 25.6246 58.0287 24.0626 58.0313 22.0746V10.9399H60.0407V22.222C60.0407 23.6647 60.4347 24.772 61.2225 25.5438C62.0103 26.3156 63.1687 26.7002 64.6977 26.6976C66.1545 26.6976 67.2773 26.3096 68.0659 25.5335C68.8546 24.7575 69.2485 23.6472 69.2477 22.2028V10.9399H71.2572Z" fill="white"/>
<path d="M89.5992 28.2284L87.4471 22.7284H80.5209L78.393 28.2284H76.3555L83.1926 10.8694H84.8824L91.6787 28.2284H89.5992ZM86.8206 20.9207L84.8111 15.563C84.5505 14.8861 84.2822 14.0544 84.0063 13.0681C83.8069 13.9137 83.5581 14.7468 83.2613 15.563L81.2238 20.9194L86.8206 20.9207Z" fill="white"/>
<path d="M98.9697 21.0387V28.2284H96.959V10.9399H101.7C103.822 10.9399 105.388 11.3459 106.398 12.1579C107.407 12.9699 107.914 14.1917 107.917 15.8233C107.917 18.1087 106.759 19.654 104.442 20.4592L109.133 28.2284H106.758L102.574 21.0399L98.9697 21.0387ZM98.9697 19.3117H101.723C103.142 19.3117 104.182 19.0297 104.844 18.4656C105.506 17.9015 105.837 17.0562 105.836 15.9297C105.836 14.787 105.5 13.9634 104.826 13.4592C104.153 12.9549 103.071 12.7023 101.582 12.7015H98.9697V19.3117Z" fill="white"/>
<path d="M127.31 28.2283H124.946L118.646 19.8437L116.838 21.4514V28.2283H114.828V10.9398H116.838V19.5103L124.674 10.9373H127.051L120.1 18.4488L127.31 28.2283Z" fill="white"/>
<path d="M145.643 10.9399V22.1258C145.643 24.0959 145.049 25.6451 143.86 26.7733C142.672 27.9015 141.037 28.4652 138.955 28.4643C136.875 28.4643 135.266 27.8964 134.126 26.7605C132.987 25.6246 132.417 24.0626 132.416 22.0746V10.9399H134.426V22.222C134.426 23.6647 134.819 24.772 135.607 25.5438C136.395 26.3156 137.553 26.7002 139.082 26.6976C140.54 26.6976 141.663 26.3096 142.452 25.5335C143.241 24.7575 143.635 23.6438 143.634 22.1925V10.9399H145.643Z" fill="white"/>
<path d="M162.873 23.627C162.873 25.1484 162.321 26.3347 161.217 27.186C160.113 28.0373 158.616 28.4646 156.724 28.4681C154.676 28.4681 153.1 28.204 151.996 27.6758V25.7322C152.744 26.0437 153.52 26.2812 154.314 26.4411C155.13 26.6119 155.962 26.6978 156.796 26.6976C158.135 26.6976 159.144 26.4411 159.821 25.9283C160.499 25.4155 160.838 24.7082 160.84 23.8065C160.84 23.2082 160.72 22.7176 160.48 22.3347C160.239 21.9518 159.838 21.5988 159.275 21.2758C158.711 20.9527 157.853 20.586 156.704 20.1758C155.096 19.6014 153.947 18.9176 153.258 18.1245C152.569 17.3313 152.224 16.3027 152.224 15.0386C152.224 13.707 152.725 12.6467 153.725 11.8578C154.726 11.0689 156.05 10.6749 157.696 10.6758C159.324 10.6578 160.938 10.9795 162.436 11.6206L161.81 13.3706C160.383 12.7723 158.995 12.4732 157.649 12.4732C156.585 12.4732 155.754 12.7018 155.155 13.1591C154.557 13.6164 154.257 14.251 154.256 15.0629C154.256 15.6612 154.367 16.1518 154.588 16.5347C154.808 16.9176 155.181 17.2685 155.704 17.5873C156.229 17.9061 157.031 18.2591 158.11 18.6463C159.923 19.2924 161.17 19.986 161.851 20.727C162.532 21.4681 162.873 22.4347 162.873 23.627Z" fill="white"/>
<path d="M16.0517 12.5359L12.3027 14.7141L16.0517 16.8936V12.5359Z" fill="#4695EB"/>
<path d="M8.55273 12.5359V16.8936L12.3017 14.7141L8.55273 12.5359Z" fill="#FF004A"/>
<path d="M16.0507 16.8936L12.3017 14.7141L8.55273 16.8936L12.3017 19.0731L16.0507 16.8936Z" fill="white"/>
<path d="M4.60156 19.4282L8.35056 21.6077V17.25L4.60156 19.4282Z" fill="#4695EB"/>
<path d="M8.34961 25.9656L12.0986 23.7874L8.34961 21.6079V25.9656Z" fill="#FF004A"/>
<path d="M8.34961 17.25V21.6077L12.0986 23.7872V19.4282L8.34961 17.25Z" fill="white"/>
<path d="M16.2568 25.9656V21.6079L12.5078 23.7874L16.2568 25.9656Z" fill="#4695EB"/>
<path d="M20.0029 19.4282L16.2539 17.25V21.6077L20.0029 19.4282Z" fill="#FF004A"/>
<path d="M12.5078 23.7872L16.2568 21.6077V17.25L12.5078 19.4282V23.7872Z" fill="white"/>
<path d="M20.4383 8.22827H4.1663C3.09593 8.23132 2.07026 8.66074 1.31339 9.42273C0.556521 10.1847 0.129977 11.2173 0.126953 12.2949V28.677C0.129977 29.7546 0.556521 30.7872 1.31339 31.5492C2.07026 32.3112 3.09593 32.7406 4.1663 32.7437H15.3101L12.3023 25.3885L10.1209 30.0321H4.1663C3.81075 30.0275 3.47106 29.8832 3.21962 29.6301C2.96819 29.3769 2.82489 29.0349 2.82027 28.677V12.2949C2.82489 11.937 2.96819 11.595 3.21962 11.3419C3.47106 11.0887 3.81075 10.9445 4.1663 10.9398H20.4383C20.7938 10.9445 21.1335 11.0887 21.385 11.3419C21.6364 11.595 21.7797 11.937 21.7843 12.2949V28.677C21.7797 29.0349 21.6364 29.3769 21.385 29.6301C21.1335 29.8832 20.7938 30.0275 20.4383 30.0321H16.907L18.0162 32.7437H20.4357C21.5061 32.7406 22.5318 32.3112 23.2886 31.5492C24.0455 30.7872 24.4721 29.7546 24.4751 28.677V12.2949C24.4721 11.2178 24.0459 10.1856 23.2895 9.42364C22.5332 8.66172 21.5082 8.23199 20.4383 8.22827Z" fill="#4695EB"/>
</svg>
