<svg width="194" height="64" viewBox="0 0 194 64" fill="none" xmlns="http://www.w3.org/2000/svg">
<path d="M47.5352 9.06635C46.8368 10.7819 45.8698 12.4438 44.7417 13.9449C34.7493 3.59804 18.2565 3.32999 7.9418 13.3016C-2.3729 23.2732 -2.69524 39.7318 7.29714 50.0251C7.61947 50.4003 7.99553 50.722 8.37158 51.0437L9.33859 51.9014C20.298 61.1225 36.737 59.7286 45.9773 48.792C49.523 44.6104 51.6719 39.3565 52.0479 33.8882C52.8 27.4013 50.8123 19.038 47.5352 9.06635ZM12.1322 51.3117C11.38 52.2767 9.98326 52.3839 9.01625 51.6334C8.04925 50.8828 7.9418 49.489 8.69392 48.524C9.44603 47.559 10.8428 47.4517 11.8098 48.2023C12.7231 48.9529 12.8843 50.3467 12.1322 51.3117ZM47.3741 43.5382C40.9811 52.0623 27.2282 49.1673 18.4714 49.5962C18.4714 49.5962 16.9134 49.7034 15.3555 49.9178C15.3555 49.9178 15.9464 49.6498 16.6986 49.3817C22.8766 47.2373 25.7776 46.8084 29.5382 44.8784C36.5759 41.2865 43.6135 33.4057 45.0103 25.2568C42.3242 33.084 34.1583 39.839 26.7447 42.5732C21.641 44.4495 12.4545 46.2723 12.4545 46.2723L12.0784 46.0579C5.84663 43.002 5.63174 29.4921 17.0209 25.1496C22.0171 23.2196 26.7447 24.2918 32.1706 23.0052C37.9189 21.6649 44.5805 17.376 47.2666 11.7469C50.2751 20.8071 53.9282 34.8532 47.3741 43.5382Z" fill="#6DB33F"/>
<path d="M66.8231 42.2513C66.1247 41.8224 65.6949 41.0718 65.7487 40.2677C65.7487 38.981 66.7694 37.9088 68.0587 37.9088C68.0587 37.9088 68.0587 37.9088 68.1124 37.9088C68.5422 37.9088 68.972 38.016 69.3481 38.2305C71.497 39.7316 74.0219 40.5357 76.6006 40.6429C79.0718 40.6429 80.5223 39.5707 80.5223 37.9088V37.8016C80.5223 35.818 77.8362 35.1746 74.8815 34.2632C71.1746 33.191 66.9843 31.6899 66.9843 26.8649V26.7577C66.9843 21.9864 70.9597 19.0914 75.9559 19.0914C78.7495 19.145 81.4356 19.8419 83.9068 21.1286C84.7664 21.5575 85.3036 22.3616 85.3036 23.3266C85.3036 24.6133 84.2292 25.6855 82.9398 25.6855H82.8861C82.51 25.6855 82.134 25.5783 81.7579 25.4175C79.9314 24.3988 77.9436 23.8091 75.8485 23.7019C73.5921 23.7019 72.3028 24.7741 72.3028 26.168V26.2752C72.3028 28.1516 75.0426 28.9022 77.9974 29.8672C81.7042 30.993 85.8408 32.7085 85.8408 37.2118V37.3191C85.8408 42.6265 81.7042 45.2535 76.4931 45.2535C73.0549 45.1999 69.6704 44.1813 66.8231 42.2513Z" fill="#6DB33F"/>
<path d="M87.9879 22.0406C87.9342 20.4859 89.2236 19.1992 90.7815 19.1456H90.8352C92.4469 19.1456 93.7362 20.4323 93.7362 22.0406V23.7561C95.6165 21.1292 98.2489 19.0384 102.332 19.0384C108.241 19.0384 114.043 23.7025 114.043 32.1194V32.2267C114.043 40.59 108.295 45.3077 102.332 45.3077C98.1415 45.3077 95.5091 43.2169 93.7362 40.858V49.7574C93.7362 51.3658 92.4469 52.6524 90.8352 52.6524C89.2773 52.6524 87.9879 51.3658 87.9879 49.811V49.7574V22.0406ZM108.241 32.2267V32.1194C108.241 27.2409 104.964 24.0778 101.042 24.0778C97.1208 24.0778 93.6825 27.3481 93.6825 32.1194V32.2267C93.6825 37.0516 97.1208 40.2683 101.042 40.2683C104.964 40.2683 108.241 37.2125 108.241 32.2267Z" fill="#6DB33F"/>
<path d="M116.302 22.0403C116.248 20.4856 117.537 19.1989 119.095 19.1453H119.149C120.761 19.1453 122.05 20.432 122.05 22.0403V23.4342C122.319 21.2898 125.864 19.1453 128.389 19.1453C129.84 19.0381 131.129 20.1103 131.237 21.5578C131.237 21.7186 131.237 21.8259 131.237 21.9867C131.237 23.3806 130.27 24.56 128.927 24.7745C124.79 25.4714 121.996 29.0633 121.996 34.0492V42.3588C121.996 43.9672 120.707 45.2002 119.095 45.2002C117.537 45.2002 116.248 43.9672 116.248 42.4125C116.248 42.4125 116.248 42.4125 116.248 42.3588L116.302 22.0403Z" fill="#6DB33F"/>
<path d="M133.547 22.0944C133.493 20.5397 134.782 19.253 136.34 19.1994H136.394C138.005 19.1994 139.295 20.4861 139.295 22.0944V42.4129C139.295 44.0212 138.005 45.2543 136.394 45.2543C134.782 45.2543 133.547 43.9676 133.547 42.4129V22.0944Z" fill="#6DB33F"/>
<path d="M142.249 22.0939C142.195 20.5392 143.485 19.2525 145.043 19.1989H145.096C146.708 19.1989 147.997 20.4856 147.997 22.0939V23.2733C149.716 20.5928 152.725 19.0381 155.895 19.1453C161.589 19.1453 164.866 22.9517 164.866 28.7952V42.3588C164.92 43.9135 163.684 45.1466 162.126 45.2002C162.073 45.2002 162.073 45.2002 162.019 45.2002C160.461 45.2538 159.172 43.9671 159.118 42.4124V42.3588V30.5644C159.118 26.6508 157.184 24.3991 153.692 24.3991C150.361 24.3991 147.997 26.758 147.997 30.6716V42.4124C147.997 44.0207 146.708 45.3074 145.096 45.3074C143.485 45.3074 142.195 44.0207 142.195 42.4124L142.249 22.0939Z" fill="#6DB33F"/>
<path d="M190.329 19.0916C188.717 19.0916 187.428 20.3783 187.428 21.9866V23.7021C185.548 21.0752 182.915 18.9844 178.833 18.9844C172.923 18.9844 167.121 23.6485 167.121 32.0654V32.1727C167.121 40.5359 172.869 45.2537 178.833 45.2537C183.023 45.2537 185.655 43.1629 187.428 40.8576C187.16 45.4145 184.366 47.7734 179.477 47.7734C176.791 47.7734 174.105 47.1301 171.741 45.7898C171.419 45.629 171.097 45.5754 170.72 45.5754C169.377 45.5754 168.303 46.594 168.249 47.9342C168.249 48.9529 168.894 49.9179 169.861 50.2395C172.923 51.7406 176.254 52.4912 179.638 52.4912C184.205 52.4912 187.751 51.419 190.007 49.1137C192.102 47.0229 193.23 43.8598 193.23 39.6246V22.0402C193.284 20.4319 191.995 19.1452 190.383 19.0916H190.329ZM180.176 40.2679C176.2 40.2679 172.977 37.1585 172.977 32.1727V32.0654C172.977 27.1868 176.254 24.0238 180.176 24.0238C184.097 24.0238 187.536 27.2941 187.536 32.0654V32.1727C187.589 36.9976 184.151 40.2679 180.176 40.2679Z" fill="#6DB33F"/>
<path d="M139.349 12.2296C139.349 13.8379 138.06 15.1245 136.448 15.1245C134.836 15.1245 133.547 13.8379 133.547 12.2296C133.547 10.6212 134.836 9.33456 136.448 9.33456C138.006 9.28095 139.295 10.5676 139.349 12.1223C139.349 12.1759 139.349 12.1759 139.349 12.2296Z" fill="#6DB33F"/>
<path d="M45.9766 48.7916C49.5222 44.61 51.6711 39.3561 52.0472 33.8878L45.9766 48.7916Z" fill="#6DB33F"/>
<path d="M47.3752 43.5378C40.9822 52.062 27.2293 49.167 18.4725 49.5959C18.4725 49.5959 16.9146 49.7031 15.3566 49.9175C15.3566 49.9175 15.9476 49.6495 16.6997 49.3814C22.8778 47.237 25.7788 46.8081 29.5393 44.8781C36.577 41.2862 43.6146 33.4054 45.0114 25.2565C42.3253 33.0837 34.1595 39.8387 26.7458 42.5728C21.6421 44.4492 12.4556 46.272 12.4556 46.272L12.0795 46.0575C5.84774 43.0017 5.63285 29.4918 17.022 25.1493C22.0182 23.2193 26.7458 24.2915 32.1717 23.0049C37.92 21.6646 44.5816 17.3757 47.2677 11.7466C50.2762 20.8068 53.9293 34.8529 47.3752 43.5378Z" fill="white"/>
<path d="M12.133 51.3119C11.3809 52.2769 9.98408 52.3842 9.01708 51.6336C8.05008 50.8831 7.94263 49.4892 8.69475 48.5242C9.44686 47.5592 10.8436 47.452 11.8106 48.2025C12.7239 48.9531 12.8851 50.3469 12.133 51.3119Z" fill="white"/>
</svg>
