<svg width="141" height="41" viewBox="0 0 141 41" fill="none" xmlns="http://www.w3.org/2000/svg">
<path d="M140.901 20.2875C140.901 19.5108 140.444 18.84 139.776 18.5341C139.753 18.5223 139.73 18.4987 139.694 18.487L127.338 11.7673C127.01 11.579 126.647 11.4849 126.272 11.4849C125.089 11.4849 124.129 12.4499 124.129 13.6385C124.129 14.5917 124.597 15.2389 125.593 15.6744L134.131 20.2758L125.605 24.8771C124.597 25.3243 124.129 25.9716 124.129 26.9248C124.129 28.1134 125.089 29.0784 126.272 29.0784C126.647 29.0784 127.01 28.9843 127.338 28.796L139.694 22.0763C139.718 22.0645 139.73 22.0528 139.753 22.041C140.432 21.7586 140.901 21.076 140.901 20.2875Z" fill="#00B4F0"/>
<path d="M36.8042 20.4639C36.8042 15.3683 32.7167 11.2258 27.6687 11.2258C22.609 11.2258 18.5098 15.3683 18.5098 20.4639C18.5098 25.5596 22.6442 29.702 27.7156 29.702C29.449 29.702 31.1472 29.2195 32.6113 28.2898L32.8338 28.1486L32.9275 28.384C33.2437 29.1842 33.9582 29.6902 34.7897 29.6902C35.9375 29.6902 36.8042 28.7723 36.8042 27.6072V20.4639ZM27.739 24.9359C25.2911 24.9359 23.2883 22.9352 23.2883 20.4639C23.2883 18.0043 25.2794 15.992 27.739 15.992C30.1868 15.992 32.1896 17.9926 32.1896 20.4639C32.1779 22.9235 30.1868 24.9359 27.739 24.9359Z" fill="white"/>
<path d="M57.1011 20.4639C57.1011 15.3683 53.0487 11.2258 47.989 11.2258C42.9294 11.2258 38.8418 15.3683 38.8418 20.4639C38.8418 25.5596 42.9762 29.702 48.0476 29.702C49.781 29.702 51.4793 29.2195 52.9433 28.2898L53.1658 28.1486L53.2595 28.384C53.5758 29.1842 54.2668 29.6902 55.1101 29.6902C56.2461 29.6902 57.1129 28.7605 57.1129 27.6072V20.4639H57.1011ZM48.0593 24.9359C45.6115 24.9359 43.6087 22.9352 43.6087 20.4639C43.6087 18.0043 45.5997 15.992 48.0593 15.992C50.5189 15.992 52.51 17.9926 52.51 20.4639C52.51 22.9235 50.5072 24.9359 48.0593 24.9359Z" fill="white"/>
<path d="M73.5095 28.4193C73.8375 29.243 74.6222 29.7726 75.5006 29.7726C76.6836 29.7726 77.6557 28.8076 77.6557 27.619V6.41262C77.6557 5.22403 76.6367 4.25903 75.4538 4.25903C74.2708 4.25903 73.2519 5.22403 73.2519 6.41262V12.6616L73.0879 12.5321C71.6122 11.6142 70.0427 11.1552 68.3444 11.1552C63.2379 11.1552 59.0918 15.333 59.0918 20.4639C59.0918 25.5949 63.2496 29.7726 68.3679 29.7726C70.113 29.7726 71.823 29.2784 73.287 28.3487L73.4393 28.2545L73.5095 28.4193ZM68.3796 24.8535C65.9669 24.8535 64.0109 22.8764 64.0109 20.4639C64.0109 18.0397 65.9786 16.0744 68.3796 16.0744C70.7923 16.0744 72.7482 18.0514 72.7482 20.4639C72.7482 22.8882 70.7923 24.8535 68.3796 24.8535Z" fill="white"/>
<path d="M104.98 13.9561C103.492 12.3674 101.326 11.5907 98.5264 11.5907C98.4327 11.5907 96.2074 11.7202 94.6965 12.5675C94.3686 11.5436 93.4082 10.8022 92.3189 10.8022C90.972 10.8022 89.8476 11.8967 89.8242 13.25C89.8242 13.2736 89.8242 22.2528 89.8242 27.6191C89.8242 29.0077 90.9486 30.1257 92.3306 30.1257C93.7127 30.1257 94.837 28.996 94.837 27.6073V19.958C94.837 18.3692 95.9966 16.6511 98.5615 16.6511C101.021 16.6511 102.122 18.4163 102.122 19.6755C102.122 20.9229 102.122 27.6309 102.122 27.6309C102.134 29.0077 103.258 30.1257 104.617 30.1257C105.999 30.1257 107.123 28.996 107.123 27.6073V20.0403C107.1 19.8167 107.264 16.4157 104.98 13.9561Z" fill="white"/>
<path d="M15.7452 10.8728C14.6677 10.8728 13.9415 11.3906 13.4496 12.5086L9.12778 21.8526L4.80597 12.5086C4.32577 11.3906 3.59961 10.8728 2.52208 10.8728C1.18689 10.8728 0.0976562 11.9673 0.0976562 13.3088C0.0976562 13.7325 0.203066 14.1444 0.413886 14.5092L7.10156 28.9489C7.64032 29.9845 8.34306 30.0668 9.13949 30.0668C9.93592 30.0668 10.6387 29.9845 11.1774 28.9489L17.8534 14.5327C18.0642 14.1679 18.1696 13.7443 18.1696 13.3206C18.1696 11.9673 17.0804 10.8728 15.7452 10.8728Z" fill="white"/>
<path d="M83.7349 10.9082C82.3646 10.9082 81.2754 11.9791 81.2402 13.356C81.2402 13.3795 81.2402 27.3367 81.2402 27.4779C81.2402 28.8666 82.3646 29.9963 83.7466 29.9963C85.1287 29.9963 86.2531 28.8666 86.2531 27.4779C86.2531 27.3367 86.2531 13.3795 86.2531 13.356C86.1945 11.9791 85.1053 10.9082 83.7349 10.9082Z" fill="white"/>
<path d="M83.735 4.04736C85.1873 4.04736 86.3585 5.22419 86.3585 6.68345C86.3585 8.14272 85.1873 9.31954 83.735 9.31954C82.2826 9.31954 81.1114 8.14272 81.1114 6.68345C81.0997 5.23596 82.2826 4.04736 83.735 4.04736Z" fill="white"/>
<path d="M122.548 20.2757C122.548 19.3342 121.786 18.5575 120.838 18.5575H120.439H120.428C119.538 18.5575 118.811 17.8279 118.811 16.9217V13.5796V8.225V8.13086C118.811 7.11879 118.46 6.20086 117.863 5.47123C117.101 4.54154 115.942 3.95312 114.654 3.95312L111.456 3.96489C110.578 3.96489 109.863 4.68276 109.863 5.56538C109.863 6.16556 110.191 6.68336 110.671 6.9658C110.906 7.09525 111.163 7.16586 111.456 7.16586H112.463C113.365 7.16586 114.091 7.89549 114.091 8.80165V12.2497V16.757C114.091 18.4752 115.356 19.8991 116.996 20.158C116.996 20.158 117.429 20.2404 117.839 20.2404V20.2757V20.311C117.429 20.311 116.996 20.3934 116.996 20.3934C115.356 20.6405 114.091 22.0645 114.091 23.7944V28.3017V31.7498C114.091 32.6559 113.365 33.3855 112.463 33.3855H111.456C111.175 33.3855 110.906 33.4562 110.671 33.5856C110.191 33.8563 109.863 34.3858 109.863 34.986C109.863 35.8686 110.578 36.5865 111.456 36.5865L114.654 36.5983C115.942 36.5983 117.101 36.0099 117.863 35.0802C118.46 34.3623 118.811 33.4326 118.811 32.4205V32.3264V26.9718V23.6297C118.811 22.7353 119.538 22.0056 120.428 21.9939H120.439H120.838C121.775 21.9939 122.548 21.2289 122.548 20.2757C122.548 20.2992 122.548 20.2875 122.548 20.2757Z" fill="#00B4F0"/>
</svg>
