<svg width="124" height="49" viewBox="0 0 124 49" fill="none" xmlns="http://www.w3.org/2000/svg">
<path d="M13.7776 29.8052L4.90112 7.5752H0.203125L12.1966 37.2752H15.3361L27.3295 7.5752H22.7219L13.7776 29.8052Z" fill="white"/>
<path d="M28.2324 37.2752H46.3016V32.7752H32.5239V24.4502H46.0758V20.1752H32.5239V11.8502H46.3016V7.5752H28.2324V37.2752Z" fill="white"/>
<path d="M68.9103 16.8676C68.9103 12.1426 65.6579 7.3501 59.1755 7.3501H48.334V37.2751H52.6254V11.8501H59.1981C62.8345 11.8501 64.6189 14.3476 64.6189 16.8901C64.6189 19.4776 62.8345 21.9751 59.1981 21.9751H54.2065V24.1351L65.048 37.2751H70.6269L61.2083 26.0251C66.3129 25.1251 68.9103 21.0751 68.9103 16.8676Z" fill="white"/>
<path d="M81.6508 37.2751C81.6508 37.2076 81.6508 37.1176 81.6508 37.0501C81.6508 35.7001 82.0347 34.4176 82.6672 33.3151V11.8501H91.4759V7.3501H69.1152V11.8501H78.3757V37.2751H81.6508Z" fill="white"/>
<path d="M93.055 37.0502C93.055 34.8227 91.2255 33.0002 88.9894 33.0002C86.7533 33.0002 84.9238 34.8227 84.9238 37.0502C84.9238 39.2777 86.7533 41.1002 88.9894 41.1002C91.2255 41.1002 93.055 39.2777 93.055 37.0502Z" fill="#9861E2"/>
<path d="M120.025 7.5752H118.625H114.785L108.574 16.0802L102.34 7.5752H98.5001H97.0546H93.2148C95.9478 11.1752 100.804 18.1052 104.011 22.4927L95.6542 33.9452C96.1059 34.8902 96.3544 35.9477 96.3544 37.0502V37.2752H97.0771H98.5227H102.317L123.82 7.5752H120.025Z" fill="#9861E2"/>
<path d="M115.573 25.9126L111.033 32.1901L114.76 37.2751H118.6H120H123.84C121.671 34.1926 118.419 29.7826 115.573 25.9126Z" fill="#9861E2"/>
</svg>
