<?xml version="1.0" encoding="utf-8"?>
<!-- Generator: Adobe Illustrator 21.0.2, SVG Export Plug-In . SVG Version: 6.00 Build 0)  -->
<svg version="1.1" id="Layer_1" xmlns="http://www.w3.org/2000/svg" xmlns:xlink="http://www.w3.org/1999/xlink" x="0px" y="0px"
	 viewBox="0 0 66.9 77.9" style="enable-background:new 0 0 66.9 77.9;" xml:space="preserve">
<style type="text/css">
	.st0{fill:#497BBC;}
	.st1{fill:#5C5C5C;}
</style>
<g>
	<path class="st0" d="M60.2,70.6c-1.4,4.4-4.8,7.2-8.6,7.2h-43c-3.8,0-7.2-2.9-8.6-7.2H60.2z"/>
	<path class="st0" d="M43,0L27.8,23c-1.8,2.7-1.5,6.5,1,9.6L43.8,9.6C45.7,6.9,45.3,3.1,43,0z"/>
	<path class="st0" d="M45.6,12.7l-3.1,4.3L38.5,23c-1.8,2.7-1.5,6.5,1,9.6l7-10.2C48.4,19.6,48,15.8,45.6,12.7z"/>
	<path class="st0" d="M58.2,36.1l-5.4,0H6.4l5.4,19.7c1.7,6.3,7.4,10.5,14.1,10.5h9.2c3.7,0,7.1-1.3,9.7-3.5l17.8-10.4
		c2.7-1.6,4.3-4.4,4.3-7.5C66.9,40,63,36.1,58.2,36.1z M60,47.9l-10.1,5.9l3.4-12.5h4.9c1.9,0,3.5,1.6,3.5,3.5
		C61.7,46.1,61.1,47.2,60,47.9z"/>
</g>
</svg>
