<?xml version="1.0" encoding="utf-8"?>
<!-- Generator: Adobe Illustrator 21.0.2, SVG Export Plug-In . SVG Version: 6.00 Build 0)  -->
<svg version="1.1" id="Layer_1" xmlns="http://www.w3.org/2000/svg" xmlns:xlink="http://www.w3.org/1999/xlink" x="0px" y="0px"
	 viewBox="0 0 71.8 71.8" style="enable-background:new 0 0 71.8 71.8;" xml:space="preserve">
<style type="text/css">
	.st0{fill:#497BBC;}
	.st1{fill:#5C5C5C;}
</style>
<path class="st0" d="M71.8,71.8H0V0h71.8V71.8z M32.9,60.6c2.5,0,4.5-0.7,5.9-2.1c1.4-1.4,2.2-3.4,2.2-6.1v-15h-5.2v14.7
	c0,2.6-1.2,3.8-3.1,3.8c-1.6,0-2.9-0.8-4.2-2.3l-3.2,3.5C27,59,29.4,60.6,32.9,60.6z M54.3,60.6c4.9,0,8.4-2.5,8.4-7.1v-0.1
	c0-4-2.6-5.6-7.2-6.9c-4-1-4.9-1.5-4.9-3v-0.1c0-1.1,1-2,2.9-2c1.9,0,3.9,0.8,5.9,2.3L62,40c-2.3-1.9-5.2-2.9-8.5-2.9
	c-4.7,0-8,2.7-8,6.9V44c0,4.5,3,5.8,7.6,7c3.8,1,4.6,1.6,4.6,2.9V54c0,1.3-1.2,2.2-3.3,2.2c-2.6,0-4.8-1.1-6.8-2.8l-3,3.6
	C47.3,59.4,50.8,60.6,54.3,60.6z"/>
</svg>
