<svg width="50" height="49" viewBox="0 0 50 49" fill="none" xmlns="http://www.w3.org/2000/svg">
<path d="M13.2988 47.8505L44.3195 42.5172C46.6598 42.1184 48.4523 40.324 48.9005 38.0312C49.498 34.891 47.3569 31.8505 44.1702 31.4019L13 27.0156C7.12447 26.1683 1.74687 30.3552 1.04978 36.2867C0.302887 43.2648 6.37759 49.0468 13.2988 47.8505Z" fill="url(#paint0_linear_7943_26186)"/>
<path d="M34.1121 2.34273L4.43571 29.7072C-0.294584 34.0935 -0.0456206 41.6698 5.03323 45.7072C9.31539 49.0966 15.5395 48.5982 19.2739 44.5608L46.6599 14.9035C50.0955 11.1652 49.747 5.28354 45.8134 2.04367C42.3777 -0.797452 37.3984 -0.647919 34.1121 2.34273Z" fill="url(#paint1_linear_7943_26186)"/>
<path d="M40.0376 41.4704L4.88398 16.1994C0.253267 12.8599 -0.0952814 6.1309 4.13709 2.29289C7.62257 -0.847291 12.9504 -0.747602 16.3363 2.54212L47.3073 32.8474C49.5977 35.0904 49.548 38.7788 47.2575 40.972C45.2658 42.8661 42.2284 43.0654 40.0376 41.4704Z" fill="url(#paint2_linear_7943_26186)"/>
<path d="M39.625 9.375H10.375V38.625H39.625V9.375Z" fill="black"/>
<path d="M25 33.1162H14.0312V34.92H25V33.1162Z" fill="white"/>
<path d="M17.2 19.6612L12.9587 13.0312H15.7862L18.4187 17.4187L21.1 13.0312H23.83L19.6375 19.6125V24H17.2V19.6612Z" fill="white"/>
<path d="M28.7051 15.225H25.3413V13.0312H34.4576V15.225H31.0938V24H28.7051V15.225Z" fill="white"/>
<defs>
<linearGradient id="paint0_linear_7943_26186" x1="40.1665" y1="32.3163" x2="11.6595" y2="37.6832" gradientUnits="userSpaceOnUse">
<stop stop-color="#07C3F2"/>
<stop offset="1" stop-color="#6B57FF"/>
</linearGradient>
<linearGradient id="paint1_linear_7943_26186" x1="39.1924" y1="10.1115" x2="9.28629" y2="39.6577" gradientUnits="userSpaceOnUse">
<stop stop-color="#07C3F2"/>
<stop offset="1" stop-color="#6B57FF"/>
</linearGradient>
<linearGradient id="paint2_linear_7943_26186" x1="43.012" y1="39.2408" x2="11.0231" y2="9.86121" gradientUnits="userSpaceOnUse">
<stop offset="0.1503" stop-color="#07C3F2"/>
<stop offset="0.5261" stop-color="#6B57FF"/>
<stop offset="1" stop-color="#FF318C"/>
</linearGradient>
</defs>
</svg>
