<svg width="48" height="48" viewBox="0 0 48 48" fill="none" xmlns="http://www.w3.org/2000/svg">
<path d="M12.4034 29.2774C12.4034 31.5901 10.5142 33.4793 8.20152 33.4793C5.88884 33.4793 3.9996 31.5901 3.9996 29.2774C3.9996 26.9647 5.88884 25.0755 8.20152 25.0755H12.4034V29.2774Z" fill="#E01E5A"/>
<path d="M14.5221 29.2774C14.5221 26.9647 16.4113 25.0755 18.724 25.0755C21.0367 25.0755 22.9259 26.9647 22.9259 29.2774V39.7985C22.9259 42.1112 21.0367 44.0004 18.724 44.0004C16.4113 44.0004 14.5221 42.1112 14.5221 39.7985V29.2774Z" fill="#E01E5A"/>
<path d="M18.724 12.4034C16.4113 12.4034 14.5221 10.5142 14.5221 8.20149C14.5221 5.8888 16.4113 3.99957 18.724 3.99957C21.0367 3.99957 22.9259 5.8888 22.9259 8.20149V12.4034H18.724Z" fill="#36C5F0"/>
<path d="M18.7226 14.5221C21.0353 14.5221 22.9245 16.4113 22.9245 18.724C22.9245 21.0367 21.0353 22.9259 18.7226 22.9259H8.20151C5.88883 22.9259 3.9996 21.0367 3.9996 18.724C3.9996 16.4113 5.88883 14.5221 8.20151 14.5221H18.7226Z" fill="#36C5F0"/>
<path d="M35.5947 18.724C35.5947 16.4113 37.484 14.5221 39.7967 14.5221C42.1093 14.5221 43.9986 16.4113 43.9986 18.724C43.9986 21.0367 42.1093 22.9259 39.7967 22.9259H35.5947V18.724Z" fill="#2EB67D"/>
<path d="M33.4793 18.7225C33.4793 21.0352 31.5901 22.9245 29.2774 22.9245C26.9647 22.9245 25.0755 21.0352 25.0755 18.7225V8.20148C25.0755 5.8888 26.9647 3.99957 29.2774 3.99957C31.5901 3.99957 33.4793 5.8888 33.4793 8.20148V18.7225Z" fill="#2EB67D"/>
<path d="M29.2774 35.5947C31.5901 35.5947 33.4793 37.484 33.4793 39.7966C33.4793 42.1093 31.5901 43.9985 29.2774 43.9985C26.9647 43.9985 25.0755 42.1093 25.0755 39.7966V35.5947H29.2774Z" fill="#ECB22E"/>
<path d="M29.2774 33.4793C26.9647 33.4793 25.0755 31.5901 25.0755 29.2774C25.0755 26.9647 26.9647 25.0755 29.2774 25.0755H39.7985C42.1112 25.0755 44.0004 26.9647 44.0004 29.2774C44.0004 31.5901 42.1112 33.4793 39.7985 33.4793H29.2774Z" fill="#ECB22E"/>
</svg>
