<svg width="48" height="48" viewBox="0 0 48 48" fill="none" xmlns="http://www.w3.org/2000/svg">
<path fill-rule="evenodd" clip-rule="evenodd" d="M24 44C35.0457 44 44 35.0457 44 24C44 12.9543 35.0457 4 24 4C12.9543 4 4 12.9543 4 24C4 35.0457 12.9543 44 24 44ZM34.4182 22.3132C36.0194 22.3132 37.3333 23.6386 37.3333 25.3073C37.3333 26.5343 36.6166 27.5897 35.6132 28.0564C35.6608 28.3566 35.6848 28.6603 35.685 28.9644C35.685 33.6027 30.4518 37.3333 24.0002 37.3333C17.5486 37.3333 12.3155 33.578 12.3155 28.9644C12.3145 28.6602 12.3385 28.3564 12.3872 28.0564C11.3834 27.5897 10.6667 26.5591 10.6667 25.3321C10.6667 23.6875 11.9569 22.3379 13.5818 22.3379C14.3383 22.3368 15.0659 22.6357 15.6129 23.1723C17.6438 21.675 20.4397 20.7181 23.5459 20.6196L25.0278 13.4534C25.0515 13.3061 25.123 13.1835 25.2425 13.1099C25.3382 13.0362 25.4816 13.0114 25.6251 13.0362L30.4755 14.0916C30.8099 13.3797 31.5271 12.8889 32.3395 12.8889C33.4865 12.8889 34.4182 13.846 34.4182 15.0239C34.4182 16.2025 33.4863 17.1594 32.3395 17.1594C31.2161 17.1594 30.3084 16.2512 30.2603 15.1222L25.9115 14.1652L24.5736 20.5953C27.632 20.7181 30.3801 21.675 32.3872 23.1477C32.9342 22.6111 33.6618 22.3121 34.4182 22.3132ZM19.3885 25.3073C18.2411 25.3073 17.3094 26.2644 17.3094 27.4423C17.3094 28.6204 18.2412 29.6019 19.3885 29.5778C20.5355 29.5778 21.4672 28.6204 21.4672 27.4423C21.4672 26.2643 20.5354 25.3073 19.3885 25.3073ZM24.0002 34.6827C24.7886 34.6827 27.5127 34.5844 28.9464 33.1117C29.1374 32.8909 29.1374 32.5472 28.9464 32.3264C28.7313 32.1059 28.3968 32.1059 28.1816 32.3264C27.2976 33.259 25.3623 33.578 24.0002 33.578C22.6382 33.578 20.7266 33.2592 19.8184 32.3264C19.6032 32.1059 19.2687 32.1059 19.0536 32.3264C18.8389 32.5472 18.8389 32.8909 19.0536 33.1117C20.4638 34.5597 23.1878 34.6827 24.0002 34.6827ZM26.4852 27.4671C26.4852 28.6452 27.4169 29.6021 28.5639 29.6021C29.7112 29.6021 30.6429 28.6202 30.6429 27.4671C30.6429 26.289 29.7112 25.3321 28.5639 25.3321C27.4169 25.3321 26.4852 26.289 26.4852 27.4671Z" fill="#FF5700"/>
</svg>
