<svg width="48" height="48" viewBox="0 0 48 48" fill="none" xmlns="http://www.w3.org/2000/svg">
    <g clip-path="url(#clip0)">
        <path d="M48 45.77C32 38.04 16 53.5 0 45.77C0 31.46 0 16.54 0 2.22999C16 9.95999 32 -5.50001 48 2.22999C48 16.54 48 31.46 48 45.77Z" fill="#585DEF"/>
        <path d="M5.91992 33.24H42.0899C41.5999 27.36 38.2899 22.31 33.5299 19.36L36.9799 13.7C37.4099 12.99 37.1899 12.06 36.4799 11.63C35.7699 11.2 34.8399 11.42 34.4099 12.13L30.8399 17.98C28.7299 17.11 26.4299 16.59 23.9999 16.59C21.5699 16.59 19.2799 17.11 17.1599 17.97L13.5899 12.12C13.1599 11.41 12.2299 11.19 11.5199 11.62C10.8099 12.05 10.5899 12.98 11.0199 13.69L14.4699 19.35C9.72992 22.31 6.40992 27.36 5.91992 33.24ZM34.4499 26.47C34.4499 27.63 33.5099 28.57 32.3399 28.57C31.1699 28.57 30.2399 27.63 30.2399 26.47C30.2399 25.31 31.1799 24.36 32.3399 24.36C33.4999 24.36 34.4499 25.31 34.4499 26.47ZM15.7699 24.36C16.9299 24.36 17.8699 25.3 17.8699 26.47C17.8699 27.64 16.9299 28.57 15.7699 28.57C14.6099 28.57 13.6699 27.63 13.6699 26.47C13.6699 25.31 14.6099 24.36 15.7699 24.36Z" fill="#F8873C"/>
    </g>
    <defs>
        <clipPath id="clip0">
            <path d="M0 0H48V48H0V0Z" fill="white"/>
        </clipPath>
    </defs>
</svg>
