<svg width="706" height="444" viewBox="0 0 706 444" fill="none" xmlns="http://www.w3.org/2000/svg">
<rect width="706" height="444" fill="white"/>
<path d="M580 199.167L579.65 199.167L580 199.167ZM566 185.167L566 185.517H566L566 185.167ZM430 185.167L430 184.817H430L430 185.167ZM416 131L418.021 134.5L413.979 134.5L416 131ZM579.65 248L579.65 199.167L580.35 199.167L580.35 248L579.65 248ZM566 185.517L430 185.517L430 184.817L566 184.817L566 185.517ZM415.65 171.167L415.65 134.15L416.35 134.15L416.35 171.167L415.65 171.167ZM430 185.517C422.075 185.517 415.65 179.092 415.65 171.167L416.35 171.167C416.35 178.705 422.461 184.817 430 184.817L430 185.517ZM579.65 199.167C579.65 191.628 573.539 185.517 566 185.517L566 184.817C573.925 184.817 580.35 191.241 580.35 199.167L579.65 199.167Z" fill="black"/>
<path d="M354 131L356.051 134.482L352.01 134.517L354 131ZM354.65 247.003L353.677 134.153L354.377 134.147L355.35 246.997L354.65 247.003Z" fill="black"/>
<path d="M123 199.167L122.65 199.167L123 199.167ZM137 185.167L137 185.517H137L137 185.167ZM282 185.167L282 184.817H282L282 185.167ZM296 131L293.979 134.5L298.021 134.5L296 131ZM123.35 248L123.35 199.167L122.65 199.167L122.65 248L123.35 248ZM137 185.517L282 185.517L282 184.817L137 184.817L137 185.517ZM296.35 171.167L296.35 134.15L295.65 134.15L295.65 171.167L296.35 171.167ZM282 185.517C289.925 185.517 296.35 179.092 296.35 171.167L295.65 171.167C295.65 178.705 289.539 184.817 282 184.817L282 185.517ZM123.35 199.167C123.35 191.628 129.461 185.517 137 185.517L137 184.817C129.075 184.817 122.65 191.241 122.65 199.167L123.35 199.167Z" fill="black"/>
<rect x="255" y="52" width="197" height="79" rx="12" fill="url(#paint0_radial_1_303)"/>
<path d="M303.893 91.484H302.087V95H301.091V86.6H304.487C305.023 86.6 305.493 86.7 305.897 86.9C306.305 87.1 306.619 87.384 306.839 87.752C307.063 88.12 307.175 88.548 307.175 89.036C307.175 89.468 307.085 89.856 306.905 90.2C306.729 90.54 306.477 90.818 306.149 91.034C305.821 91.246 305.433 91.384 304.985 91.448L307.199 95H306.035L303.893 91.484ZM304.487 90.554C304.815 90.554 305.101 90.492 305.345 90.368C305.593 90.244 305.783 90.068 305.915 89.84C306.051 89.612 306.119 89.344 306.119 89.036C306.119 88.732 306.051 88.466 305.915 88.238C305.783 88.01 305.593 87.836 305.345 87.716C305.101 87.592 304.815 87.53 304.487 87.53H302.087V90.554H304.487ZM313.883 95H312.959V94.004C312.751 94.372 312.473 94.654 312.125 94.85C311.781 95.046 311.381 95.144 310.925 95.144C310.485 95.144 310.095 95.05 309.755 94.862C309.415 94.674 309.147 94.398 308.951 94.034C308.759 93.666 308.663 93.226 308.663 92.714V88.856H309.623V92.618C309.623 93.15 309.761 93.564 310.037 93.86C310.313 94.156 310.693 94.304 311.177 94.304C311.521 94.304 311.825 94.228 312.089 94.076C312.353 93.924 312.557 93.712 312.701 93.44C312.849 93.164 312.923 92.85 312.923 92.498V88.856H313.883V95ZM315.98 88.856H316.904V89.852C317.112 89.484 317.388 89.202 317.732 89.006C318.08 88.81 318.482 88.712 318.938 88.712C319.378 88.712 319.768 88.806 320.108 88.994C320.448 89.182 320.714 89.46 320.906 89.828C321.102 90.192 321.2 90.63 321.2 91.142V95H320.24V91.238C320.24 90.706 320.102 90.292 319.826 89.996C319.55 89.7 319.17 89.552 318.686 89.552C318.342 89.552 318.038 89.628 317.774 89.78C317.51 89.932 317.304 90.146 317.156 90.422C317.012 90.694 316.94 91.006 316.94 91.358V95H315.98V88.856ZM325.09 95C324.798 95 324.532 94.938 324.292 94.814C324.056 94.686 323.87 94.512 323.734 94.292C323.598 94.068 323.53 93.82 323.53 93.548L323.524 89.708H322.444L322.45 88.856H323.116C323.268 88.856 323.39 88.808 323.482 88.712C323.578 88.616 323.626 88.494 323.626 88.346V87.356H324.49V88.856H325.972L325.966 89.708H324.484L324.49 93.488C324.49 93.676 324.552 93.834 324.676 93.962C324.804 94.086 324.962 94.148 325.15 94.148H325.966V95H325.09ZM327.64 88.856H328.6V95H327.64V88.856ZM328.684 86.6V87.74H327.556V86.6H328.684ZM330.698 88.856H331.622V89.894C331.806 89.514 332.06 89.222 332.384 89.018C332.712 88.814 333.096 88.712 333.536 88.712C333.996 88.712 334.396 88.822 334.736 89.042C335.076 89.262 335.33 89.572 335.498 89.972C335.694 89.572 335.968 89.262 336.32 89.042C336.672 88.822 337.078 88.712 337.538 88.712C337.974 88.712 338.36 88.812 338.696 89.012C339.036 89.208 339.3 89.488 339.488 89.852C339.676 90.216 339.77 90.64 339.77 91.124V95H338.81V91.166C338.81 90.658 338.682 90.258 338.426 89.966C338.174 89.674 337.818 89.528 337.358 89.528C337.03 89.528 336.742 89.604 336.494 89.756C336.246 89.904 336.054 90.116 335.918 90.392C335.782 90.664 335.714 90.986 335.714 91.358V95H334.754V91.166C334.754 90.658 334.626 90.258 334.37 89.966C334.118 89.674 333.762 89.528 333.302 89.528C332.97 89.528 332.68 89.602 332.432 89.75C332.184 89.898 331.992 90.11 331.856 90.386C331.724 90.662 331.658 90.986 331.658 91.358V95H330.698V88.856ZM344.187 95.144C343.611 95.144 343.093 95.006 342.633 94.73C342.173 94.454 341.813 94.072 341.553 93.584C341.297 93.092 341.169 92.536 341.169 91.916C341.169 91.312 341.299 90.766 341.559 90.278C341.823 89.79 342.185 89.408 342.645 89.132C343.105 88.852 343.619 88.712 344.187 88.712C344.767 88.712 345.275 88.85 345.711 89.126C346.151 89.402 346.489 89.784 346.725 90.272C346.965 90.76 347.085 91.312 347.085 91.928V92.162H342.147C342.187 92.582 342.301 92.954 342.489 93.278C342.677 93.602 342.923 93.854 343.227 94.034C343.531 94.214 343.871 94.304 344.247 94.304C344.651 94.304 345.007 94.23 345.315 94.082C345.623 93.934 345.847 93.732 345.987 93.476H346.947C346.875 93.732 346.723 93.988 346.491 94.244C346.263 94.5 345.951 94.714 345.555 94.886C345.163 95.058 344.707 95.144 344.187 95.144ZM346.089 91.37C346.009 90.81 345.805 90.368 345.477 90.044C345.153 89.72 344.727 89.558 344.199 89.558C343.843 89.558 343.523 89.632 343.239 89.78C342.955 89.924 342.721 90.134 342.537 90.41C342.353 90.682 342.231 91.002 342.171 91.37H346.089ZM348.903 86.6H354.711V87.53H349.875V90.302H354.303V91.226H349.875V94.07H354.831V95H348.903V86.6ZM358.582 92.606L356.944 95H355.852L358.078 91.832L355.96 88.856H357.076L358.63 91.088L360.154 88.856H361.246L359.14 91.862L361.36 95H360.244L358.582 92.606ZM365.088 95.144C364.508 95.144 363.984 95.004 363.516 94.724C363.048 94.444 362.68 94.06 362.412 93.572C362.148 93.08 362.016 92.532 362.016 91.928C362.016 91.324 362.148 90.778 362.412 90.29C362.68 89.798 363.048 89.412 363.516 89.132C363.984 88.852 364.508 88.712 365.088 88.712C365.832 88.712 366.456 88.902 366.96 89.282C367.464 89.658 367.786 90.204 367.926 90.92H366.966C366.838 90.48 366.602 90.148 366.258 89.924C365.918 89.696 365.528 89.582 365.088 89.582C364.692 89.582 364.336 89.682 364.02 89.882C363.708 90.082 363.464 90.36 363.288 90.716C363.112 91.072 363.024 91.476 363.024 91.928C363.024 92.376 363.112 92.778 363.288 93.134C363.464 93.49 363.708 93.77 364.02 93.974C364.336 94.174 364.692 94.274 365.088 94.274C365.528 94.274 365.918 94.162 366.258 93.938C366.602 93.71 366.838 93.376 366.966 92.936H367.926C367.834 93.4 367.654 93.798 367.386 94.13C367.118 94.462 366.786 94.714 366.39 94.886C365.994 95.058 365.56 95.144 365.088 95.144ZM371.984 95.144C371.408 95.144 370.89 95.006 370.43 94.73C369.97 94.454 369.61 94.072 369.35 93.584C369.094 93.092 368.966 92.536 368.966 91.916C368.966 91.312 369.096 90.766 369.356 90.278C369.62 89.79 369.982 89.408 370.442 89.132C370.902 88.852 371.416 88.712 371.984 88.712C372.564 88.712 373.072 88.85 373.508 89.126C373.948 89.402 374.286 89.784 374.522 90.272C374.762 90.76 374.882 91.312 374.882 91.928V92.162H369.944C369.984 92.582 370.098 92.954 370.286 93.278C370.474 93.602 370.72 93.854 371.024 94.034C371.328 94.214 371.668 94.304 372.044 94.304C372.448 94.304 372.804 94.23 373.112 94.082C373.42 93.934 373.644 93.732 373.784 93.476H374.743C374.671 93.732 374.52 93.988 374.288 94.244C374.06 94.5 373.748 94.714 373.352 94.886C372.96 95.058 372.504 95.144 371.984 95.144ZM373.886 91.37C373.806 90.81 373.602 90.368 373.274 90.044C372.95 89.72 372.524 89.558 371.996 89.558C371.64 89.558 371.32 89.632 371.036 89.78C370.752 89.924 370.518 90.134 370.334 90.41C370.15 90.682 370.028 91.002 369.968 91.37H373.886ZM377.396 88.856V89.942C377.628 89.554 377.94 89.252 378.332 89.036C378.724 88.82 379.174 88.712 379.682 88.712C380.254 88.712 380.762 88.848 381.206 89.12C381.654 89.388 382.002 89.766 382.25 90.254C382.502 90.742 382.628 91.3 382.628 91.928C382.628 92.556 382.502 93.114 382.25 93.602C382.002 94.09 381.654 94.47 381.206 94.742C380.762 95.01 380.254 95.144 379.682 95.144C379.182 95.144 378.738 95.04 378.35 94.832C377.962 94.624 377.652 94.332 377.42 93.956V96.932H376.46V88.856H377.396ZM377.42 91.928C377.42 92.388 377.508 92.796 377.684 93.152C377.864 93.504 378.114 93.78 378.434 93.98C378.754 94.176 379.12 94.274 379.532 94.274C379.94 94.274 380.302 94.176 380.618 93.98C380.934 93.78 381.18 93.504 381.356 93.152C381.532 92.796 381.62 92.388 381.62 91.928C381.62 91.468 381.532 91.062 381.356 90.71C381.18 90.354 380.934 90.078 380.618 89.882C380.302 89.682 379.94 89.582 379.532 89.582C379.12 89.582 378.754 89.682 378.434 89.882C378.114 90.078 377.864 90.354 377.684 90.71C377.508 91.062 377.42 91.468 377.42 91.928ZM386.18 95C385.888 95 385.622 94.938 385.382 94.814C385.146 94.686 384.96 94.512 384.824 94.292C384.688 94.068 384.62 93.82 384.62 93.548L384.614 89.708H383.534L383.54 88.856H384.206C384.358 88.856 384.48 88.808 384.572 88.712C384.668 88.616 384.716 88.494 384.716 88.346V87.356H385.58V88.856H387.062L387.056 89.708H385.574L385.58 93.488C385.58 93.676 385.642 93.834 385.766 93.962C385.894 94.086 386.052 94.148 386.24 94.148H387.056V95H386.18ZM388.73 88.856H389.69V95H388.73V88.856ZM389.774 86.6V87.74H388.646V86.6H389.774ZM394.398 95.144C393.814 95.144 393.282 95.006 392.802 94.73C392.326 94.45 391.95 94.066 391.674 93.578C391.402 93.086 391.266 92.536 391.266 91.928C391.266 91.32 391.402 90.772 391.674 90.284C391.95 89.792 392.328 89.408 392.808 89.132C393.288 88.852 393.82 88.712 394.404 88.712C394.988 88.712 395.518 88.852 395.994 89.132C396.47 89.408 396.844 89.79 397.116 90.278C397.392 90.766 397.53 91.316 397.53 91.928C397.53 92.54 397.392 93.09 397.116 93.578C396.844 94.066 396.47 94.45 395.994 94.73C395.518 95.006 394.986 95.144 394.398 95.144ZM392.274 91.928C392.274 92.388 392.366 92.796 392.55 93.152C392.738 93.504 392.994 93.778 393.318 93.974C393.646 94.17 394.01 94.268 394.41 94.268C394.81 94.268 395.17 94.17 395.49 93.974C395.81 93.778 396.062 93.504 396.246 93.152C396.43 92.796 396.522 92.388 396.522 91.928C396.522 91.468 396.43 91.06 396.246 90.704C396.062 90.348 395.808 90.072 395.484 89.876C395.164 89.68 394.804 89.582 394.404 89.582C394.004 89.582 393.642 89.68 393.318 89.876C392.994 90.072 392.738 90.348 392.55 90.704C392.366 91.06 392.274 91.468 392.274 91.928ZM399.113 88.856H400.037V89.852C400.245 89.484 400.521 89.202 400.865 89.006C401.213 88.81 401.615 88.712 402.071 88.712C402.511 88.712 402.901 88.806 403.241 88.994C403.581 89.182 403.847 89.46 404.039 89.828C404.235 90.192 404.333 90.63 404.333 91.142V95H403.373V91.238C403.373 90.706 403.235 90.292 402.959 89.996C402.683 89.7 402.303 89.552 401.819 89.552C401.475 89.552 401.171 89.628 400.907 89.78C400.643 89.932 400.437 90.146 400.289 90.422C400.145 90.694 400.073 91.006 400.073 91.358V95H399.113V88.856Z" fill="white"/>
<path d="M355 294L357.074 297.469L353.033 297.531L355 294ZM355.65 359.005L354.698 297.155L355.398 297.144L356.35 358.995L355.65 359.005Z" fill="black"/>
<rect x="244" y="358" width="219" height="46" rx="12" fill="#F2F2F2"/>
<path d="M256.313 386.144C255.737 386.144 255.227 386.038 254.783 385.826C254.343 385.614 253.999 385.318 253.751 384.938C253.507 384.558 253.385 384.122 253.385 383.63H254.405C254.405 383.946 254.485 384.226 254.645 384.47C254.805 384.714 255.031 384.904 255.323 385.04C255.615 385.176 255.949 385.244 256.325 385.244C256.697 385.244 257.023 385.182 257.303 385.058C257.587 384.93 257.805 384.752 257.957 384.524C258.113 384.292 258.191 384.026 258.191 383.726C258.191 383.346 258.077 383.02 257.849 382.748C257.625 382.476 257.325 382.308 256.949 382.244L255.593 382.01C255.185 381.938 254.831 381.796 254.531 381.584C254.231 381.372 254.001 381.108 253.841 380.792C253.681 380.476 253.601 380.132 253.601 379.76C253.601 379.324 253.715 378.932 253.943 378.584C254.175 378.232 254.495 377.956 254.903 377.756C255.315 377.556 255.777 377.456 256.289 377.456C256.817 377.456 257.287 377.556 257.699 377.756C258.111 377.952 258.431 378.226 258.659 378.578C258.887 378.93 259.001 379.332 259.001 379.784H257.981C257.981 379.508 257.911 379.262 257.771 379.046C257.631 378.826 257.433 378.656 257.177 378.536C256.925 378.416 256.633 378.356 256.301 378.356C255.969 378.356 255.675 378.414 255.419 378.53C255.163 378.646 254.963 378.81 254.819 379.022C254.679 379.234 254.609 379.48 254.609 379.76C254.609 380.092 254.715 380.378 254.927 380.618C255.143 380.858 255.425 381.008 255.773 381.068L257.153 381.308C257.553 381.38 257.909 381.534 258.221 381.77C258.533 382.006 258.775 382.296 258.947 382.64C259.119 382.98 259.205 383.338 259.205 383.714C259.205 384.166 259.083 384.578 258.839 384.95C258.595 385.318 258.253 385.61 257.813 385.826C257.373 386.038 256.873 386.144 256.313 386.144ZM262.956 386C262.664 386 262.398 385.938 262.158 385.814C261.922 385.686 261.736 385.512 261.6 385.292C261.464 385.068 261.396 384.82 261.396 384.548L261.39 380.708H260.31L260.316 379.856H260.982C261.134 379.856 261.256 379.808 261.348 379.712C261.444 379.616 261.492 379.494 261.492 379.346V378.356H262.356V379.856H263.838L263.832 380.708H262.35L262.356 384.488C262.356 384.676 262.418 384.834 262.542 384.962C262.67 385.086 262.828 385.148 263.016 385.148H263.832V386H262.956ZM265.505 379.856H266.465V380.876C266.661 380.528 266.915 380.262 267.227 380.078C267.539 379.89 267.897 379.796 268.301 379.796H268.517V380.798H268.265C267.901 380.798 267.583 380.868 267.311 381.008C267.039 381.148 266.829 381.348 266.681 381.608C266.537 381.864 266.465 382.166 266.465 382.514V386H265.505V379.856ZM269.794 379.856H270.754V386H269.794V379.856ZM270.838 377.6V378.74H269.71V377.6H270.838ZM272.853 379.856H273.777V380.852C273.985 380.484 274.261 380.202 274.605 380.006C274.953 379.81 275.355 379.712 275.811 379.712C276.251 379.712 276.641 379.806 276.981 379.994C277.321 380.182 277.587 380.46 277.779 380.828C277.975 381.192 278.073 381.63 278.073 382.142V386H277.113V382.238C277.113 381.706 276.975 381.292 276.699 380.996C276.423 380.7 276.043 380.552 275.559 380.552C275.215 380.552 274.911 380.628 274.647 380.78C274.383 380.932 274.177 381.146 274.029 381.422C273.885 381.694 273.813 382.006 273.813 382.358V386H272.853V379.856ZM282.455 388.064C282.007 388.064 281.593 387.994 281.213 387.854C280.833 387.714 280.517 387.516 280.265 387.26C280.013 387.004 279.851 386.708 279.779 386.372H280.739C280.867 386.648 281.085 386.858 281.393 387.002C281.705 387.15 282.049 387.224 282.425 387.224C282.817 387.224 283.159 387.144 283.451 386.984C283.747 386.828 283.975 386.608 284.135 386.324C284.295 386.04 284.375 385.712 284.375 385.34V385.088L284.393 384.47C284.153 384.81 283.847 385.074 283.475 385.262C283.107 385.45 282.701 385.544 282.257 385.544C281.737 385.544 281.267 385.42 280.847 385.172C280.427 384.92 280.097 384.574 279.857 384.134C279.617 383.69 279.497 383.19 279.497 382.634C279.497 382.078 279.617 381.578 279.857 381.134C280.097 380.69 280.427 380.342 280.847 380.09C281.267 379.838 281.737 379.712 282.257 379.712C282.709 379.712 283.123 379.812 283.499 380.012C283.875 380.208 284.183 380.484 284.423 380.84V379.856H285.353L285.335 385.34C285.335 385.872 285.215 386.344 284.975 386.756C284.735 387.172 284.397 387.494 283.961 387.722C283.525 387.95 283.023 388.064 282.455 388.064ZM280.505 382.634C280.505 383.022 280.587 383.374 280.751 383.69C280.919 384.006 281.151 384.254 281.447 384.434C281.743 384.614 282.075 384.704 282.443 384.704C282.807 384.704 283.135 384.614 283.427 384.434C283.723 384.254 283.957 384.006 284.129 383.69C284.301 383.374 284.387 383.022 284.387 382.634C284.387 382.242 284.301 381.888 284.129 381.572C283.957 381.256 283.723 381.008 283.427 380.828C283.135 380.644 282.807 380.552 282.443 380.552C282.075 380.552 281.743 380.644 281.447 380.828C281.151 381.008 280.919 381.256 280.751 381.572C280.587 381.888 280.505 382.242 280.505 382.634ZM287.683 377.6H288.679V386H287.683V377.6ZM291.017 379.856H291.941V380.852C292.149 380.484 292.425 380.202 292.769 380.006C293.117 379.81 293.519 379.712 293.975 379.712C294.415 379.712 294.805 379.806 295.145 379.994C295.485 380.182 295.751 380.46 295.943 380.828C296.139 381.192 296.237 381.63 296.237 382.142V386H295.277V382.238C295.277 381.706 295.139 381.292 294.863 380.996C294.587 380.7 294.207 380.552 293.723 380.552C293.379 380.552 293.075 380.628 292.811 380.78C292.547 380.932 292.341 381.146 292.193 381.422C292.049 381.694 291.977 382.006 291.977 382.358V386H291.017V379.856ZM302.822 384.98C302.59 385.352 302.28 385.64 301.892 385.844C301.508 386.044 301.07 386.144 300.578 386.144C300.006 386.144 299.496 386.01 299.048 385.742C298.604 385.47 298.256 385.09 298.004 384.602C297.756 384.114 297.632 383.556 297.632 382.928C297.632 382.3 297.756 381.742 298.004 381.254C298.256 380.766 298.604 380.388 299.048 380.12C299.496 379.848 300.006 379.712 300.578 379.712C301.07 379.712 301.508 379.814 301.892 380.018C302.28 380.218 302.59 380.504 302.822 380.876V377.6H303.782V386H302.822V384.98ZM298.64 382.928C298.64 383.388 298.728 383.796 298.904 384.152C299.08 384.504 299.326 384.78 299.642 384.98C299.958 385.176 300.32 385.274 300.728 385.274C301.104 385.274 301.442 385.192 301.742 385.028C302.046 384.86 302.29 384.626 302.474 384.326C302.662 384.022 302.778 383.67 302.822 383.27V382.586C302.778 382.186 302.662 381.836 302.474 381.536C302.29 381.232 302.046 380.998 301.742 380.834C301.442 380.666 301.104 380.582 300.728 380.582C300.32 380.582 299.958 380.682 299.642 380.882C299.326 381.078 299.08 381.354 298.904 381.71C298.728 382.062 298.64 382.468 298.64 382.928ZM308.29 386.144C307.714 386.144 307.196 386.006 306.736 385.73C306.276 385.454 305.916 385.072 305.656 384.584C305.4 384.092 305.272 383.536 305.272 382.916C305.272 382.312 305.402 381.766 305.662 381.278C305.926 380.79 306.288 380.408 306.748 380.132C307.208 379.852 307.722 379.712 308.29 379.712C308.87 379.712 309.378 379.85 309.814 380.126C310.254 380.402 310.592 380.784 310.828 381.272C311.068 381.76 311.188 382.312 311.188 382.928V383.162H306.25C306.29 383.582 306.404 383.954 306.592 384.278C306.78 384.602 307.026 384.854 307.33 385.034C307.634 385.214 307.974 385.304 308.35 385.304C308.754 385.304 309.11 385.23 309.418 385.082C309.726 384.934 309.95 384.732 310.09 384.476H311.05C310.978 384.732 310.826 384.988 310.594 385.244C310.366 385.5 310.054 385.714 309.658 385.886C309.266 386.058 308.81 386.144 308.29 386.144ZM310.192 382.37C310.112 381.81 309.908 381.368 309.58 381.044C309.256 380.72 308.83 380.558 308.302 380.558C307.946 380.558 307.626 380.632 307.342 380.78C307.058 380.924 306.824 381.134 306.64 381.41C306.456 381.682 306.334 382.002 306.274 382.37H310.192ZM314.576 383.606L312.938 386H311.846L314.072 382.832L311.954 379.856H313.07L314.624 382.088L316.148 379.856H317.24L315.134 382.862L317.354 386H316.238L314.576 383.606ZM322.471 385.232C323.059 385.232 323.591 385.086 324.067 384.794C324.543 384.498 324.915 384.09 325.183 383.57C325.455 383.046 325.591 382.456 325.591 381.8C325.591 381.14 325.457 380.55 325.189 380.03C324.925 379.506 324.555 379.098 324.079 378.806C323.607 378.514 323.071 378.368 322.471 378.368C321.879 378.368 321.345 378.516 320.869 378.812C320.397 379.104 320.025 379.51 319.753 380.03C319.485 380.55 319.351 381.14 319.351 381.8C319.351 382.46 319.485 383.05 319.753 383.57C320.025 384.09 320.397 384.498 320.869 384.794C321.345 385.086 321.879 385.232 322.471 385.232ZM318.319 381.8C318.319 380.984 318.501 380.246 318.865 379.586C319.229 378.922 319.727 378.402 320.359 378.026C320.991 377.646 321.695 377.456 322.471 377.456C323.243 377.456 323.945 377.646 324.577 378.026C325.213 378.402 325.713 378.922 326.077 379.586C326.441 380.246 326.623 380.984 326.623 381.8C326.623 382.616 326.441 383.356 326.077 384.02C325.713 384.68 325.213 385.2 324.577 385.58C323.945 385.956 323.243 386.144 322.471 386.144C321.695 386.144 320.991 385.956 320.359 385.58C319.727 385.2 319.229 384.68 318.865 384.02C318.501 383.356 318.319 382.616 318.319 381.8ZM333.393 386H332.469V385.004C332.261 385.372 331.983 385.654 331.635 385.85C331.291 386.046 330.891 386.144 330.435 386.144C329.995 386.144 329.605 386.05 329.265 385.862C328.925 385.674 328.657 385.398 328.461 385.034C328.269 384.666 328.173 384.226 328.173 383.714V379.856H329.133V383.618C329.133 384.15 329.271 384.564 329.547 384.86C329.823 385.156 330.203 385.304 330.687 385.304C331.031 385.304 331.335 385.228 331.599 385.076C331.863 384.924 332.067 384.712 332.211 384.44C332.359 384.164 332.433 383.85 332.433 383.498V379.856H333.393V386ZM337.463 386C337.171 386 336.905 385.938 336.665 385.814C336.429 385.686 336.243 385.512 336.107 385.292C335.971 385.068 335.903 384.82 335.903 384.548L335.897 380.708H334.817L334.823 379.856H335.489C335.641 379.856 335.763 379.808 335.855 379.712C335.951 379.616 335.999 379.494 335.999 379.346V378.356H336.863V379.856H338.345L338.339 380.708H336.857L336.863 384.488C336.863 384.676 336.925 384.834 337.049 384.962C337.177 385.086 337.335 385.148 337.523 385.148H338.339V386H337.463ZM343.799 385.232C344.387 385.232 344.919 385.086 345.395 384.794C345.871 384.498 346.243 384.09 346.511 383.57C346.783 383.046 346.919 382.456 346.919 381.8C346.919 381.14 346.785 380.55 346.517 380.03C346.253 379.506 345.883 379.098 345.407 378.806C344.935 378.514 344.399 378.368 343.799 378.368C343.207 378.368 342.673 378.516 342.197 378.812C341.725 379.104 341.353 379.51 341.081 380.03C340.813 380.55 340.679 381.14 340.679 381.8C340.679 382.46 340.813 383.05 341.081 383.57C341.353 384.09 341.725 384.498 342.197 384.794C342.673 385.086 343.207 385.232 343.799 385.232ZM339.647 381.8C339.647 380.984 339.829 380.246 340.193 379.586C340.557 378.922 341.055 378.402 341.687 378.026C342.319 377.646 343.023 377.456 343.799 377.456C344.571 377.456 345.273 377.646 345.905 378.026C346.541 378.402 347.041 378.922 347.405 379.586C347.769 380.246 347.951 380.984 347.951 381.8C347.951 382.616 347.769 383.356 347.405 384.02C347.041 384.68 346.541 385.2 345.905 385.58C345.273 385.956 344.571 386.144 343.799 386.144C343.023 386.144 342.319 385.956 341.687 385.58C341.055 385.2 340.557 384.68 340.193 384.02C339.829 383.356 339.647 382.616 339.647 381.8ZM350.161 380.708H349.081V379.856H350.161V379.052C350.161 378.768 350.227 378.516 350.359 378.296C350.491 378.076 350.675 377.906 350.911 377.786C351.147 377.662 351.417 377.6 351.721 377.6H352.705V378.452H351.781C351.585 378.452 351.425 378.514 351.301 378.638C351.181 378.758 351.121 378.916 351.121 379.112V379.856H352.645V380.708H351.121V386H350.161V380.708ZM357.911 377.6C358.403 377.6 358.841 377.694 359.225 377.882C359.613 378.07 359.915 378.33 360.131 378.662C360.347 378.994 360.455 379.37 360.455 379.79C360.455 380.242 360.333 380.628 360.089 380.948C359.849 381.268 359.519 381.49 359.099 381.614C359.579 381.742 359.961 381.992 360.245 382.364C360.529 382.732 360.671 383.168 360.671 383.672C360.671 384.12 360.557 384.522 360.329 384.878C360.101 385.23 359.783 385.506 359.375 385.706C358.967 385.902 358.503 386 357.983 386H354.515V377.6H357.911ZM357.983 385.1C358.307 385.1 358.595 385.04 358.847 384.92C359.099 384.796 359.293 384.624 359.429 384.404C359.569 384.18 359.639 383.922 359.639 383.63C359.639 383.342 359.569 383.084 359.429 382.856C359.289 382.628 359.093 382.452 358.841 382.328C358.593 382.2 358.307 382.136 357.983 382.136H355.493V385.1H357.983ZM357.911 381.26C358.211 381.26 358.475 381.204 358.703 381.092C358.931 380.98 359.107 380.82 359.231 380.612C359.359 380.404 359.423 380.162 359.423 379.886C359.423 379.61 359.359 379.368 359.231 379.16C359.107 378.952 358.929 378.79 358.697 378.674C358.469 378.558 358.207 378.5 357.911 378.5H355.493V381.26H357.911ZM365.099 386.144C364.515 386.144 363.983 386.006 363.503 385.73C363.027 385.45 362.651 385.066 362.375 384.578C362.103 384.086 361.967 383.536 361.967 382.928C361.967 382.32 362.103 381.772 362.375 381.284C362.651 380.792 363.029 380.408 363.509 380.132C363.989 379.852 364.521 379.712 365.105 379.712C365.689 379.712 366.219 379.852 366.695 380.132C367.171 380.408 367.545 380.79 367.817 381.278C368.093 381.766 368.231 382.316 368.231 382.928C368.231 383.54 368.093 384.09 367.817 384.578C367.545 385.066 367.171 385.45 366.695 385.73C366.219 386.006 365.687 386.144 365.099 386.144ZM362.975 382.928C362.975 383.388 363.067 383.796 363.251 384.152C363.439 384.504 363.695 384.778 364.019 384.974C364.347 385.17 364.711 385.268 365.111 385.268C365.511 385.268 365.871 385.17 366.191 384.974C366.511 384.778 366.763 384.504 366.947 384.152C367.131 383.796 367.223 383.388 367.223 382.928C367.223 382.468 367.131 382.06 366.947 381.704C366.763 381.348 366.509 381.072 366.185 380.876C365.865 380.68 365.505 380.582 365.105 380.582C364.705 380.582 364.343 380.68 364.019 380.876C363.695 381.072 363.439 381.348 363.251 381.704C363.067 382.06 362.975 382.468 362.975 382.928ZM374.854 386H373.93V385.004C373.722 385.372 373.444 385.654 373.096 385.85C372.752 386.046 372.352 386.144 371.896 386.144C371.456 386.144 371.066 386.05 370.726 385.862C370.386 385.674 370.118 385.398 369.922 385.034C369.73 384.666 369.634 384.226 369.634 383.714V379.856H370.594V383.618C370.594 384.15 370.732 384.564 371.008 384.86C371.284 385.156 371.664 385.304 372.148 385.304C372.492 385.304 372.796 385.228 373.06 385.076C373.324 384.924 373.528 384.712 373.672 384.44C373.82 384.164 373.894 383.85 373.894 383.498V379.856H374.854V386ZM376.95 379.856H377.874V380.852C378.082 380.484 378.358 380.202 378.702 380.006C379.05 379.81 379.452 379.712 379.908 379.712C380.348 379.712 380.738 379.806 381.078 379.994C381.418 380.182 381.684 380.46 381.876 380.828C382.072 381.192 382.17 381.63 382.17 382.142V386H381.21V382.238C381.21 381.706 381.072 381.292 380.796 380.996C380.52 380.7 380.14 380.552 379.656 380.552C379.312 380.552 379.008 380.628 378.744 380.78C378.48 380.932 378.274 381.146 378.126 381.422C377.982 381.694 377.91 382.006 377.91 382.358V386H376.95V379.856ZM388.755 384.98C388.523 385.352 388.213 385.64 387.825 385.844C387.441 386.044 387.003 386.144 386.511 386.144C385.939 386.144 385.429 386.01 384.981 385.742C384.537 385.47 384.189 385.09 383.937 384.602C383.689 384.114 383.565 383.556 383.565 382.928C383.565 382.3 383.689 381.742 383.937 381.254C384.189 380.766 384.537 380.388 384.981 380.12C385.429 379.848 385.939 379.712 386.511 379.712C387.003 379.712 387.441 379.814 387.825 380.018C388.213 380.218 388.523 380.504 388.755 380.876V377.6H389.715V386H388.755V384.98ZM384.573 382.928C384.573 383.388 384.661 383.796 384.837 384.152C385.013 384.504 385.259 384.78 385.575 384.98C385.891 385.176 386.253 385.274 386.661 385.274C387.037 385.274 387.375 385.192 387.675 385.028C387.979 384.86 388.223 384.626 388.407 384.326C388.595 384.022 388.711 383.67 388.755 383.27V382.586C388.711 382.186 388.595 381.836 388.407 381.536C388.223 381.232 387.979 380.998 387.675 380.834C387.375 380.666 387.037 380.582 386.661 380.582C386.253 380.582 385.891 380.682 385.575 380.882C385.259 381.078 385.013 381.354 384.837 381.71C384.661 382.062 384.573 382.468 384.573 382.928ZM393.756 386.144C393.292 386.144 392.872 386.07 392.496 385.922C392.124 385.774 391.826 385.568 391.602 385.304C391.382 385.036 391.264 384.734 391.248 384.398H392.226C392.242 384.582 392.318 384.748 392.454 384.896C392.59 385.04 392.77 385.154 392.994 385.238C393.218 385.322 393.468 385.364 393.744 385.364C394.024 385.364 394.27 385.318 394.482 385.226C394.698 385.134 394.864 385.006 394.98 384.842C395.1 384.678 395.16 384.492 395.16 384.284C395.16 384.06 395.096 383.872 394.968 383.72C394.844 383.564 394.67 383.466 394.446 383.426L392.964 383.156C392.492 383.068 392.124 382.878 391.86 382.586C391.596 382.29 391.464 381.916 391.464 381.464C391.464 381.14 391.556 380.846 391.74 380.582C391.928 380.314 392.19 380.102 392.526 379.946C392.862 379.79 393.246 379.712 393.678 379.712C394.106 379.712 394.492 379.782 394.836 379.922C395.18 380.062 395.454 380.256 395.658 380.504C395.862 380.752 395.972 381.028 395.988 381.332H395.01C394.998 381.172 394.932 381.028 394.812 380.9C394.696 380.772 394.54 380.672 394.344 380.6C394.148 380.528 393.928 380.492 393.684 380.492C393.436 380.492 393.216 380.534 393.024 380.618C392.832 380.702 392.682 380.818 392.574 380.966C392.47 381.11 392.418 381.274 392.418 381.458C392.418 381.666 392.476 381.838 392.592 381.974C392.708 382.11 392.878 382.198 393.102 382.238L394.62 382.508C394.932 382.564 395.2 382.674 395.424 382.838C395.652 383.002 395.824 383.206 395.94 383.45C396.06 383.694 396.12 383.96 396.12 384.248C396.12 384.608 396.016 384.932 395.808 385.22C395.604 385.508 395.322 385.734 394.962 385.898C394.602 386.062 394.2 386.144 393.756 386.144ZM397.979 377.6H403.787V378.53H398.951V381.302H403.379V382.226H398.951V385.07H403.907V386H397.979V377.6ZM407.658 383.606L406.02 386H404.928L407.154 382.832L405.036 379.856H406.152L407.706 382.088L409.23 379.856H410.322L408.216 382.862L410.436 386H409.32L407.658 383.606ZM414.164 386.144C413.584 386.144 413.06 386.004 412.592 385.724C412.124 385.444 411.756 385.06 411.488 384.572C411.224 384.08 411.092 383.532 411.092 382.928C411.092 382.324 411.224 381.778 411.488 381.29C411.756 380.798 412.124 380.412 412.592 380.132C413.06 379.852 413.584 379.712 414.164 379.712C414.908 379.712 415.532 379.902 416.036 380.282C416.54 380.658 416.862 381.204 417.002 381.92H416.042C415.914 381.48 415.678 381.148 415.334 380.924C414.994 380.696 414.604 380.582 414.164 380.582C413.768 380.582 413.412 380.682 413.096 380.882C412.784 381.082 412.54 381.36 412.364 381.716C412.188 382.072 412.1 382.476 412.1 382.928C412.1 383.376 412.188 383.778 412.364 384.134C412.54 384.49 412.784 384.77 413.096 384.974C413.412 385.174 413.768 385.274 414.164 385.274C414.604 385.274 414.994 385.162 415.334 384.938C415.678 384.71 415.914 384.376 416.042 383.936H417.002C416.91 384.4 416.73 384.798 416.462 385.13C416.194 385.462 415.862 385.714 415.466 385.886C415.07 386.058 414.636 386.144 414.164 386.144ZM421.06 386.144C420.484 386.144 419.966 386.006 419.506 385.73C419.046 385.454 418.686 385.072 418.426 384.584C418.17 384.092 418.042 383.536 418.042 382.916C418.042 382.312 418.172 381.766 418.432 381.278C418.696 380.79 419.058 380.408 419.518 380.132C419.978 379.852 420.492 379.712 421.06 379.712C421.64 379.712 422.148 379.85 422.584 380.126C423.024 380.402 423.362 380.784 423.598 381.272C423.838 381.76 423.958 382.312 423.958 382.928V383.162H419.02C419.06 383.582 419.174 383.954 419.362 384.278C419.55 384.602 419.796 384.854 420.1 385.034C420.404 385.214 420.744 385.304 421.12 385.304C421.524 385.304 421.88 385.23 422.188 385.082C422.496 384.934 422.72 384.732 422.86 384.476H423.82C423.748 384.732 423.596 384.988 423.364 385.244C423.136 385.5 422.824 385.714 422.428 385.886C422.036 386.058 421.58 386.144 421.06 386.144ZM422.962 382.37C422.882 381.81 422.678 381.368 422.35 381.044C422.026 380.72 421.6 380.558 421.072 380.558C420.716 380.558 420.396 380.632 420.112 380.78C419.828 380.924 419.594 381.134 419.41 381.41C419.226 381.682 419.104 382.002 419.044 382.37H422.962ZM426.472 379.856V380.942C426.704 380.554 427.016 380.252 427.408 380.036C427.8 379.82 428.25 379.712 428.758 379.712C429.33 379.712 429.838 379.848 430.282 380.12C430.73 380.388 431.078 380.766 431.326 381.254C431.578 381.742 431.704 382.3 431.704 382.928C431.704 383.556 431.578 384.114 431.326 384.602C431.078 385.09 430.73 385.47 430.282 385.742C429.838 386.01 429.33 386.144 428.758 386.144C428.258 386.144 427.814 386.04 427.426 385.832C427.038 385.624 426.728 385.332 426.496 384.956V387.932H425.536V379.856H426.472ZM426.496 382.928C426.496 383.388 426.584 383.796 426.76 384.152C426.94 384.504 427.19 384.78 427.51 384.98C427.83 385.176 428.196 385.274 428.608 385.274C429.016 385.274 429.378 385.176 429.694 384.98C430.01 384.78 430.256 384.504 430.432 384.152C430.608 383.796 430.696 383.388 430.696 382.928C430.696 382.468 430.608 382.062 430.432 381.71C430.256 381.354 430.01 381.078 429.694 380.882C429.378 380.682 429.016 380.582 428.608 380.582C428.196 380.582 427.83 380.682 427.51 380.882C427.19 381.078 426.94 381.354 426.76 381.71C426.584 382.062 426.496 382.468 426.496 382.928ZM435.256 386C434.964 386 434.698 385.938 434.458 385.814C434.222 385.686 434.036 385.512 433.9 385.292C433.764 385.068 433.696 384.82 433.696 384.548L433.69 380.708H432.61L432.616 379.856H433.282C433.434 379.856 433.556 379.808 433.648 379.712C433.744 379.616 433.792 379.494 433.792 379.346V378.356H434.656V379.856H436.138L436.132 380.708H434.65L434.656 384.488C434.656 384.676 434.718 384.834 434.842 384.962C434.97 385.086 435.128 385.148 435.316 385.148H436.132V386H435.256ZM437.806 379.856H438.766V386H437.806V379.856ZM438.85 377.6V378.74H437.722V377.6H438.85ZM443.474 386.144C442.89 386.144 442.358 386.006 441.878 385.73C441.402 385.45 441.026 385.066 440.75 384.578C440.478 384.086 440.342 383.536 440.342 382.928C440.342 382.32 440.478 381.772 440.75 381.284C441.026 380.792 441.404 380.408 441.884 380.132C442.364 379.852 442.896 379.712 443.48 379.712C444.064 379.712 444.594 379.852 445.07 380.132C445.546 380.408 445.92 380.79 446.192 381.278C446.468 381.766 446.606 382.316 446.606 382.928C446.606 383.54 446.468 384.09 446.192 384.578C445.92 385.066 445.546 385.45 445.07 385.73C444.594 386.006 444.062 386.144 443.474 386.144ZM441.35 382.928C441.35 383.388 441.442 383.796 441.626 384.152C441.814 384.504 442.07 384.778 442.394 384.974C442.722 385.17 443.086 385.268 443.486 385.268C443.886 385.268 444.246 385.17 444.566 384.974C444.886 384.778 445.138 384.504 445.322 384.152C445.506 383.796 445.598 383.388 445.598 382.928C445.598 382.468 445.506 382.06 445.322 381.704C445.138 381.348 444.884 381.072 444.56 380.876C444.24 380.68 443.88 380.582 443.48 380.582C443.08 380.582 442.718 380.68 442.394 380.876C442.07 381.072 441.814 381.348 441.626 381.704C441.442 382.06 441.35 382.468 441.35 382.928ZM448.189 379.856H449.113V380.852C449.321 380.484 449.597 380.202 449.941 380.006C450.289 379.81 450.691 379.712 451.147 379.712C451.587 379.712 451.977 379.806 452.317 379.994C452.657 380.182 452.923 380.46 453.115 380.828C453.311 381.192 453.409 381.63 453.409 382.142V386H452.449V382.238C452.449 381.706 452.311 381.292 452.035 380.996C451.759 380.7 451.379 380.552 450.895 380.552C450.551 380.552 450.247 380.628 449.983 380.78C449.719 380.932 449.513 381.146 449.365 381.422C449.221 381.694 449.149 382.006 449.149 382.358V386H448.189V379.856Z" fill="black"/>
<rect x="472" y="248" width="217" height="46" rx="12" fill="#F2F2F2"/>
<path d="M509.491 268.6H510.547L515.059 275.416V268.6H516.055V277H514.987L510.487 270.184V277H509.491V268.6ZM523.432 277H522.508V276.004C522.3 276.372 522.022 276.654 521.674 276.85C521.33 277.046 520.93 277.144 520.474 277.144C520.034 277.144 519.644 277.05 519.304 276.862C518.964 276.674 518.696 276.398 518.5 276.034C518.308 275.666 518.212 275.226 518.212 274.714V270.856H519.172V274.618C519.172 275.15 519.31 275.564 519.586 275.86C519.862 276.156 520.242 276.304 520.726 276.304C521.07 276.304 521.374 276.228 521.638 276.076C521.902 275.924 522.106 275.712 522.25 275.44C522.398 275.164 522.472 274.85 522.472 274.498V270.856H523.432V277ZM525.529 270.856H526.453V271.894C526.637 271.514 526.891 271.222 527.215 271.018C527.543 270.814 527.927 270.712 528.367 270.712C528.827 270.712 529.227 270.822 529.567 271.042C529.907 271.262 530.161 271.572 530.329 271.972C530.525 271.572 530.799 271.262 531.151 271.042C531.503 270.822 531.909 270.712 532.369 270.712C532.805 270.712 533.191 270.812 533.527 271.012C533.867 271.208 534.131 271.488 534.319 271.852C534.507 272.216 534.601 272.64 534.601 273.124V277H533.641V273.166C533.641 272.658 533.513 272.258 533.257 271.966C533.005 271.674 532.649 271.528 532.189 271.528C531.861 271.528 531.573 271.604 531.325 271.756C531.077 271.904 530.885 272.116 530.749 272.392C530.613 272.664 530.545 272.986 530.545 273.358V277H529.585V273.166C529.585 272.658 529.457 272.258 529.201 271.966C528.949 271.674 528.593 271.528 528.133 271.528C527.801 271.528 527.511 271.602 527.263 271.75C527.015 271.898 526.823 272.11 526.687 272.386C526.555 272.662 526.489 272.986 526.489 273.358V277H525.529V270.856ZM536.521 268.6H537.481V271.876C537.713 271.504 538.021 271.218 538.405 271.018C538.793 270.814 539.233 270.712 539.725 270.712C540.297 270.712 540.805 270.848 541.249 271.12C541.697 271.388 542.045 271.766 542.293 272.254C542.545 272.742 542.671 273.3 542.671 273.928C542.671 274.556 542.545 275.114 542.293 275.602C542.045 276.09 541.697 276.47 541.249 276.742C540.805 277.01 540.297 277.144 539.725 277.144C539.233 277.144 538.793 277.044 538.405 276.844C538.021 276.64 537.713 276.352 537.481 275.98V277H536.521V268.6ZM537.481 274.27C537.525 274.67 537.639 275.022 537.823 275.326C538.011 275.626 538.255 275.86 538.555 276.028C538.859 276.192 539.199 276.274 539.575 276.274C539.983 276.274 540.345 276.176 540.661 275.98C540.977 275.78 541.223 275.504 541.399 275.152C541.575 274.796 541.663 274.388 541.663 273.928C541.663 273.468 541.575 273.062 541.399 272.71C541.223 272.354 540.977 272.078 540.661 271.882C540.345 271.682 539.983 271.582 539.575 271.582C539.199 271.582 538.859 271.666 538.555 271.834C538.255 271.998 538.011 272.232 537.823 272.536C537.639 272.836 537.525 273.186 537.481 273.586V274.27ZM546.739 277.144C546.163 277.144 545.645 277.006 545.185 276.73C544.725 276.454 544.365 276.072 544.105 275.584C543.849 275.092 543.721 274.536 543.721 273.916C543.721 273.312 543.851 272.766 544.111 272.278C544.375 271.79 544.737 271.408 545.197 271.132C545.657 270.852 546.171 270.712 546.739 270.712C547.319 270.712 547.827 270.85 548.263 271.126C548.703 271.402 549.041 271.784 549.277 272.272C549.517 272.76 549.637 273.312 549.637 273.928V274.162H544.699C544.739 274.582 544.853 274.954 545.041 275.278C545.229 275.602 545.475 275.854 545.779 276.034C546.083 276.214 546.423 276.304 546.799 276.304C547.203 276.304 547.559 276.23 547.867 276.082C548.175 275.934 548.399 275.732 548.539 275.476H549.499C549.427 275.732 549.275 275.988 549.043 276.244C548.815 276.5 548.503 276.714 548.107 276.886C547.715 277.058 547.259 277.144 546.739 277.144ZM548.641 273.37C548.561 272.81 548.357 272.368 548.029 272.044C547.705 271.72 547.279 271.558 546.751 271.558C546.395 271.558 546.075 271.632 545.791 271.78C545.507 271.924 545.273 272.134 545.089 272.41C544.905 272.682 544.783 273.002 544.723 273.37H548.641ZM551.216 270.856H552.176V271.876C552.372 271.528 552.626 271.262 552.938 271.078C553.25 270.89 553.608 270.796 554.012 270.796H554.228V271.798H553.976C553.612 271.798 553.294 271.868 553.022 272.008C552.75 272.148 552.54 272.348 552.392 272.608C552.248 272.864 552.176 273.166 552.176 273.514V277H551.216V270.856ZM555.745 268.6H561.133V269.536H556.741V272.434H560.893V273.37H556.741V277H555.745V268.6ZM565.322 277.144C564.738 277.144 564.206 277.006 563.726 276.73C563.25 276.45 562.874 276.066 562.598 275.578C562.326 275.086 562.19 274.536 562.19 273.928C562.19 273.32 562.326 272.772 562.598 272.284C562.874 271.792 563.252 271.408 563.732 271.132C564.212 270.852 564.744 270.712 565.328 270.712C565.912 270.712 566.442 270.852 566.918 271.132C567.394 271.408 567.768 271.79 568.04 272.278C568.316 272.766 568.454 273.316 568.454 273.928C568.454 274.54 568.316 275.09 568.04 275.578C567.768 276.066 567.394 276.45 566.918 276.73C566.442 277.006 565.91 277.144 565.322 277.144ZM563.198 273.928C563.198 274.388 563.29 274.796 563.474 275.152C563.662 275.504 563.918 275.778 564.242 275.974C564.57 276.17 564.934 276.268 565.334 276.268C565.734 276.268 566.094 276.17 566.414 275.974C566.734 275.778 566.986 275.504 567.17 275.152C567.354 274.796 567.446 274.388 567.446 273.928C567.446 273.468 567.354 273.06 567.17 272.704C566.986 272.348 566.732 272.072 566.408 271.876C566.088 271.68 565.728 271.582 565.328 271.582C564.928 271.582 564.566 271.68 564.242 271.876C563.918 272.072 563.662 272.348 563.474 272.704C563.29 273.06 563.198 273.468 563.198 273.928ZM570.036 270.856H570.996V271.876C571.192 271.528 571.446 271.262 571.758 271.078C572.07 270.89 572.428 270.796 572.832 270.796H573.048V271.798H572.796C572.432 271.798 572.114 271.868 571.842 272.008C571.57 272.148 571.36 272.348 571.212 272.608C571.068 272.864 570.996 273.166 570.996 273.514V277H570.036V270.856ZM574.325 270.856H575.249V271.894C575.433 271.514 575.687 271.222 576.011 271.018C576.339 270.814 576.723 270.712 577.163 270.712C577.623 270.712 578.023 270.822 578.363 271.042C578.703 271.262 578.957 271.572 579.125 271.972C579.321 271.572 579.595 271.262 579.947 271.042C580.299 270.822 580.705 270.712 581.165 270.712C581.601 270.712 581.987 270.812 582.323 271.012C582.663 271.208 582.927 271.488 583.115 271.852C583.303 272.216 583.397 272.64 583.397 273.124V277H582.437V273.166C582.437 272.658 582.309 272.258 582.053 271.966C581.801 271.674 581.445 271.528 580.985 271.528C580.657 271.528 580.369 271.604 580.121 271.756C579.873 271.904 579.681 272.116 579.545 272.392C579.409 272.664 579.341 272.986 579.341 273.358V277H578.381V273.166C578.381 272.658 578.253 272.258 577.997 271.966C577.745 271.674 577.389 271.528 576.929 271.528C576.597 271.528 576.307 271.602 576.059 271.75C575.811 271.898 575.619 272.11 575.483 272.386C575.351 272.662 575.285 272.986 575.285 273.358V277H574.325V270.856ZM587.484 270.712C587.948 270.712 588.356 270.798 588.708 270.97C589.06 271.138 589.332 271.386 589.524 271.714C589.72 272.038 589.818 272.424 589.818 272.872V277H588.882V275.998C588.71 276.37 588.458 276.654 588.126 276.85C587.794 277.046 587.4 277.144 586.944 277.144C586.552 277.144 586.198 277.068 585.882 276.916C585.566 276.764 585.318 276.554 585.138 276.286C584.958 276.018 584.868 275.714 584.868 275.374C584.868 275.054 584.95 274.76 585.114 274.492C585.282 274.22 585.512 273.998 585.804 273.826C586.1 273.654 586.432 273.548 586.8 273.508L588.438 273.328C588.574 273.312 588.68 273.256 588.756 273.16C588.832 273.064 588.87 272.924 588.87 272.74C588.87 272.496 588.812 272.282 588.696 272.098C588.58 271.914 588.416 271.772 588.204 271.672C587.996 271.568 587.754 271.516 587.478 271.516C587.202 271.516 586.954 271.564 586.734 271.66C586.514 271.752 586.336 271.878 586.2 272.038C586.068 272.194 585.988 272.364 585.96 272.548H585C585.048 272.2 585.184 271.888 585.408 271.612C585.636 271.332 585.93 271.112 586.29 270.952C586.65 270.792 587.048 270.712 587.484 270.712ZM585.864 275.32C585.864 275.528 585.918 275.712 586.026 275.872C586.138 276.032 586.292 276.158 586.488 276.25C586.684 276.338 586.908 276.382 587.16 276.382C587.504 276.382 587.804 276.312 588.06 276.172C588.32 276.032 588.52 275.836 588.66 275.584C588.8 275.328 588.87 275.034 588.87 274.702V274L586.932 274.216C586.612 274.252 586.354 274.372 586.158 274.576C585.962 274.78 585.864 275.028 585.864 275.32ZM593.713 277C593.421 277 593.155 276.938 592.915 276.814C592.679 276.686 592.493 276.512 592.357 276.292C592.221 276.068 592.153 275.82 592.153 275.548L592.147 271.708H591.067L591.073 270.856H591.739C591.891 270.856 592.013 270.808 592.105 270.712C592.201 270.616 592.249 270.494 592.249 270.346V269.356H593.113V270.856H594.595L594.589 271.708H593.107L593.113 275.488C593.113 275.676 593.175 275.834 593.299 275.962C593.427 276.086 593.585 276.148 593.773 276.148H594.589V277H593.713ZM596.503 268.6H602.311V269.53H597.475V272.302H601.903V273.226H597.475V276.07H602.431V277H596.503V268.6ZM606.182 274.606L604.544 277H603.452L605.678 273.832L603.56 270.856H604.676L606.23 273.088L607.754 270.856H608.846L606.74 273.862L608.96 277H607.844L606.182 274.606ZM612.688 277.144C612.108 277.144 611.584 277.004 611.116 276.724C610.648 276.444 610.28 276.06 610.012 275.572C609.748 275.08 609.616 274.532 609.616 273.928C609.616 273.324 609.748 272.778 610.012 272.29C610.28 271.798 610.648 271.412 611.116 271.132C611.584 270.852 612.108 270.712 612.688 270.712C613.432 270.712 614.056 270.902 614.56 271.282C615.064 271.658 615.386 272.204 615.526 272.92H614.566C614.438 272.48 614.202 272.148 613.858 271.924C613.518 271.696 613.128 271.582 612.688 271.582C612.292 271.582 611.936 271.682 611.62 271.882C611.308 272.082 611.064 272.36 610.888 272.716C610.712 273.072 610.624 273.476 610.624 273.928C610.624 274.376 610.712 274.778 610.888 275.134C611.064 275.49 611.308 275.77 611.62 275.974C611.936 276.174 612.292 276.274 612.688 276.274C613.128 276.274 613.518 276.162 613.858 275.938C614.202 275.71 614.438 275.376 614.566 274.936H615.526C615.434 275.4 615.254 275.798 614.986 276.13C614.718 276.462 614.386 276.714 613.99 276.886C613.594 277.058 613.16 277.144 612.688 277.144ZM619.583 277.144C619.007 277.144 618.489 277.006 618.029 276.73C617.569 276.454 617.209 276.072 616.949 275.584C616.693 275.092 616.565 274.536 616.565 273.916C616.565 273.312 616.695 272.766 616.955 272.278C617.219 271.79 617.581 271.408 618.041 271.132C618.501 270.852 619.015 270.712 619.583 270.712C620.163 270.712 620.671 270.85 621.107 271.126C621.547 271.402 621.885 271.784 622.121 272.272C622.361 272.76 622.481 273.312 622.481 273.928V274.162H617.543C617.583 274.582 617.697 274.954 617.885 275.278C618.073 275.602 618.319 275.854 618.623 276.034C618.927 276.214 619.267 276.304 619.643 276.304C620.047 276.304 620.403 276.23 620.711 276.082C621.019 275.934 621.243 275.732 621.383 275.476H622.343C622.271 275.732 622.119 275.988 621.887 276.244C621.659 276.5 621.347 276.714 620.951 276.886C620.559 277.058 620.103 277.144 619.583 277.144ZM621.485 273.37C621.405 272.81 621.201 272.368 620.873 272.044C620.549 271.72 620.123 271.558 619.595 271.558C619.239 271.558 618.919 271.632 618.635 271.78C618.351 271.924 618.117 272.134 617.933 272.41C617.749 272.682 617.627 273.002 617.567 273.37H621.485ZM624.996 270.856V271.942C625.228 271.554 625.54 271.252 625.932 271.036C626.324 270.82 626.774 270.712 627.282 270.712C627.854 270.712 628.362 270.848 628.806 271.12C629.254 271.388 629.602 271.766 629.85 272.254C630.102 272.742 630.228 273.3 630.228 273.928C630.228 274.556 630.102 275.114 629.85 275.602C629.602 276.09 629.254 276.47 628.806 276.742C628.362 277.01 627.854 277.144 627.282 277.144C626.782 277.144 626.338 277.04 625.95 276.832C625.562 276.624 625.252 276.332 625.02 275.956V278.932H624.06V270.856H624.996ZM625.02 273.928C625.02 274.388 625.108 274.796 625.284 275.152C625.464 275.504 625.714 275.78 626.034 275.98C626.354 276.176 626.72 276.274 627.132 276.274C627.54 276.274 627.902 276.176 628.218 275.98C628.534 275.78 628.78 275.504 628.956 275.152C629.132 274.796 629.22 274.388 629.22 273.928C629.22 273.468 629.132 273.062 628.956 272.71C628.78 272.354 628.534 272.078 628.218 271.882C627.902 271.682 627.54 271.582 627.132 271.582C626.72 271.582 626.354 271.682 626.034 271.882C625.714 272.078 625.464 272.354 625.284 272.71C625.108 273.062 625.02 273.468 625.02 273.928ZM633.78 277C633.488 277 633.222 276.938 632.982 276.814C632.746 276.686 632.56 276.512 632.424 276.292C632.288 276.068 632.22 275.82 632.22 275.548L632.214 271.708H631.134L631.14 270.856H631.806C631.958 270.856 632.08 270.808 632.172 270.712C632.268 270.616 632.316 270.494 632.316 270.346V269.356H633.18V270.856H634.662L634.656 271.708H633.174L633.18 275.488C633.18 275.676 633.242 275.834 633.366 275.962C633.494 276.086 633.652 276.148 633.84 276.148H634.656V277H633.78ZM636.329 270.856H637.289V277H636.329V270.856ZM637.373 268.6V269.74H636.245V268.6H637.373ZM641.998 277.144C641.414 277.144 640.882 277.006 640.402 276.73C639.926 276.45 639.55 276.066 639.274 275.578C639.002 275.086 638.866 274.536 638.866 273.928C638.866 273.32 639.002 272.772 639.274 272.284C639.55 271.792 639.928 271.408 640.408 271.132C640.888 270.852 641.42 270.712 642.004 270.712C642.588 270.712 643.118 270.852 643.594 271.132C644.07 271.408 644.444 271.79 644.716 272.278C644.992 272.766 645.13 273.316 645.13 273.928C645.13 274.54 644.992 275.09 644.716 275.578C644.444 276.066 644.07 276.45 643.594 276.73C643.118 277.006 642.586 277.144 641.998 277.144ZM639.874 273.928C639.874 274.388 639.966 274.796 640.15 275.152C640.338 275.504 640.594 275.778 640.918 275.974C641.246 276.17 641.61 276.268 642.01 276.268C642.41 276.268 642.77 276.17 643.09 275.974C643.41 275.778 643.662 275.504 643.846 275.152C644.03 274.796 644.122 274.388 644.122 273.928C644.122 273.468 644.03 273.06 643.846 272.704C643.662 272.348 643.408 272.072 643.084 271.876C642.764 271.68 642.404 271.582 642.004 271.582C641.604 271.582 641.242 271.68 640.918 271.876C640.594 272.072 640.338 272.348 640.15 272.704C639.966 273.06 639.874 273.468 639.874 273.928ZM646.712 270.856H647.636V271.852C647.844 271.484 648.12 271.202 648.464 271.006C648.812 270.81 649.214 270.712 649.67 270.712C650.11 270.712 650.5 270.806 650.84 270.994C651.18 271.182 651.446 271.46 651.638 271.828C651.834 272.192 651.932 272.63 651.932 273.142V277H650.972V273.238C650.972 272.706 650.834 272.292 650.558 271.996C650.282 271.7 649.902 271.552 649.418 271.552C649.074 271.552 648.77 271.628 648.506 271.78C648.242 271.932 648.036 272.146 647.888 272.422C647.744 272.694 647.672 273.006 647.672 273.358V277H646.712V270.856Z" fill="black"/>
<rect x="12" y="249" width="222" height="46" rx="12" fill="#F2F2F2"/>
<rect x="244" y="248" width="219" height="46" rx="12" fill="#F2F2F2"/>
<path d="M270.849 268.6H271.845V277H270.849V268.6ZM274.183 270.856H275.107V271.852C275.315 271.484 275.591 271.202 275.935 271.006C276.283 270.81 276.685 270.712 277.141 270.712C277.581 270.712 277.971 270.806 278.311 270.994C278.651 271.182 278.917 271.46 279.109 271.828C279.305 272.192 279.403 272.63 279.403 273.142V277H278.443V273.238C278.443 272.706 278.305 272.292 278.029 271.996C277.753 271.7 277.373 271.552 276.889 271.552C276.545 271.552 276.241 271.628 275.977 271.78C275.713 271.932 275.507 272.146 275.359 272.422C275.215 272.694 275.143 273.006 275.143 273.358V277H274.183V270.856ZM285.988 275.98C285.756 276.352 285.446 276.64 285.058 276.844C284.674 277.044 284.236 277.144 283.744 277.144C283.172 277.144 282.662 277.01 282.214 276.742C281.77 276.47 281.422 276.09 281.17 275.602C280.922 275.114 280.798 274.556 280.798 273.928C280.798 273.3 280.922 272.742 281.17 272.254C281.422 271.766 281.77 271.388 282.214 271.12C282.662 270.848 283.172 270.712 283.744 270.712C284.236 270.712 284.674 270.814 285.058 271.018C285.446 271.218 285.756 271.504 285.988 271.876V268.6H286.948V277H285.988V275.98ZM281.806 273.928C281.806 274.388 281.894 274.796 282.07 275.152C282.246 275.504 282.492 275.78 282.808 275.98C283.124 276.176 283.486 276.274 283.894 276.274C284.27 276.274 284.608 276.192 284.908 276.028C285.212 275.86 285.456 275.626 285.64 275.326C285.828 275.022 285.944 274.67 285.988 274.27V273.586C285.944 273.186 285.828 272.836 285.64 272.536C285.456 272.232 285.212 271.998 284.908 271.834C284.608 271.666 284.27 271.582 283.894 271.582C283.486 271.582 283.124 271.682 282.808 271.882C282.492 272.078 282.246 272.354 282.07 272.71C281.894 273.062 281.806 273.468 281.806 273.928ZM291.456 277.144C290.88 277.144 290.362 277.006 289.902 276.73C289.442 276.454 289.082 276.072 288.822 275.584C288.566 275.092 288.438 274.536 288.438 273.916C288.438 273.312 288.568 272.766 288.828 272.278C289.092 271.79 289.454 271.408 289.914 271.132C290.374 270.852 290.888 270.712 291.456 270.712C292.036 270.712 292.544 270.85 292.98 271.126C293.42 271.402 293.758 271.784 293.994 272.272C294.234 272.76 294.354 273.312 294.354 273.928V274.162H289.416C289.456 274.582 289.57 274.954 289.758 275.278C289.946 275.602 290.192 275.854 290.496 276.034C290.8 276.214 291.14 276.304 291.516 276.304C291.92 276.304 292.276 276.23 292.584 276.082C292.892 275.934 293.116 275.732 293.256 275.476H294.216C294.144 275.732 293.992 275.988 293.76 276.244C293.532 276.5 293.22 276.714 292.824 276.886C292.432 277.058 291.976 277.144 291.456 277.144ZM293.358 273.37C293.278 272.81 293.074 272.368 292.746 272.044C292.422 271.72 291.996 271.558 291.468 271.558C291.112 271.558 290.792 271.632 290.508 271.78C290.224 271.924 289.99 272.134 289.806 272.41C289.622 272.682 289.5 273.002 289.44 273.37H293.358ZM297.742 274.606L296.104 277H295.012L297.238 273.832L295.12 270.856H296.236L297.79 273.088L299.314 270.856H300.406L298.3 273.862L300.52 277H299.404L297.742 274.606ZM305.637 276.232C306.225 276.232 306.757 276.086 307.233 275.794C307.709 275.498 308.081 275.09 308.349 274.57C308.621 274.046 308.757 273.456 308.757 272.8C308.757 272.14 308.623 271.55 308.355 271.03C308.091 270.506 307.721 270.098 307.245 269.806C306.773 269.514 306.237 269.368 305.637 269.368C305.045 269.368 304.511 269.516 304.035 269.812C303.563 270.104 303.191 270.51 302.919 271.03C302.651 271.55 302.517 272.14 302.517 272.8C302.517 273.46 302.651 274.05 302.919 274.57C303.191 275.09 303.563 275.498 304.035 275.794C304.511 276.086 305.045 276.232 305.637 276.232ZM301.485 272.8C301.485 271.984 301.667 271.246 302.031 270.586C302.395 269.922 302.893 269.402 303.525 269.026C304.157 268.646 304.861 268.456 305.637 268.456C306.409 268.456 307.111 268.646 307.743 269.026C308.379 269.402 308.879 269.922 309.243 270.586C309.607 271.246 309.789 271.984 309.789 272.8C309.789 273.616 309.607 274.356 309.243 275.02C308.879 275.68 308.379 276.2 307.743 276.58C307.111 276.956 306.409 277.144 305.637 277.144C304.861 277.144 304.157 276.956 303.525 276.58C302.893 276.2 302.395 275.68 302.031 275.02C301.667 274.356 301.485 273.616 301.485 272.8ZM316.559 277H315.635V276.004C315.427 276.372 315.149 276.654 314.801 276.85C314.457 277.046 314.057 277.144 313.601 277.144C313.161 277.144 312.771 277.05 312.431 276.862C312.091 276.674 311.823 276.398 311.627 276.034C311.435 275.666 311.339 275.226 311.339 274.714V270.856H312.299V274.618C312.299 275.15 312.437 275.564 312.713 275.86C312.989 276.156 313.369 276.304 313.853 276.304C314.197 276.304 314.501 276.228 314.765 276.076C315.029 275.924 315.233 275.712 315.377 275.44C315.525 275.164 315.599 274.85 315.599 274.498V270.856H316.559V277ZM320.629 277C320.337 277 320.071 276.938 319.831 276.814C319.595 276.686 319.409 276.512 319.273 276.292C319.137 276.068 319.069 275.82 319.069 275.548L319.063 271.708H317.983L317.989 270.856H318.655C318.807 270.856 318.929 270.808 319.021 270.712C319.117 270.616 319.165 270.494 319.165 270.346V269.356H320.029V270.856H321.511L321.505 271.708H320.023L320.029 275.488C320.029 275.676 320.091 275.834 320.215 275.962C320.343 276.086 320.501 276.148 320.689 276.148H321.505V277H320.629ZM326.965 276.232C327.553 276.232 328.085 276.086 328.561 275.794C329.037 275.498 329.409 275.09 329.677 274.57C329.949 274.046 330.085 273.456 330.085 272.8C330.085 272.14 329.951 271.55 329.683 271.03C329.419 270.506 329.049 270.098 328.573 269.806C328.101 269.514 327.565 269.368 326.965 269.368C326.373 269.368 325.839 269.516 325.363 269.812C324.891 270.104 324.519 270.51 324.247 271.03C323.979 271.55 323.845 272.14 323.845 272.8C323.845 273.46 323.979 274.05 324.247 274.57C324.519 275.09 324.891 275.498 325.363 275.794C325.839 276.086 326.373 276.232 326.965 276.232ZM322.813 272.8C322.813 271.984 322.995 271.246 323.359 270.586C323.723 269.922 324.221 269.402 324.853 269.026C325.485 268.646 326.189 268.456 326.965 268.456C327.737 268.456 328.439 268.646 329.071 269.026C329.707 269.402 330.207 269.922 330.571 270.586C330.935 271.246 331.117 271.984 331.117 272.8C331.117 273.616 330.935 274.356 330.571 275.02C330.207 275.68 329.707 276.2 329.071 276.58C328.439 276.956 327.737 277.144 326.965 277.144C326.189 277.144 325.485 276.956 324.853 276.58C324.221 276.2 323.723 275.68 323.359 275.02C322.995 274.356 322.813 273.616 322.813 272.8ZM333.327 271.708H332.247V270.856H333.327V270.052C333.327 269.768 333.393 269.516 333.525 269.296C333.657 269.076 333.841 268.906 334.077 268.786C334.313 268.662 334.583 268.6 334.887 268.6H335.871V269.452H334.947C334.751 269.452 334.591 269.514 334.467 269.638C334.347 269.758 334.287 269.916 334.287 270.112V270.856H335.811V271.708H334.287V277H333.327V271.708ZM341.077 268.6C341.569 268.6 342.007 268.694 342.391 268.882C342.779 269.07 343.081 269.33 343.297 269.662C343.513 269.994 343.621 270.37 343.621 270.79C343.621 271.242 343.499 271.628 343.255 271.948C343.015 272.268 342.685 272.49 342.265 272.614C342.745 272.742 343.127 272.992 343.411 273.364C343.695 273.732 343.837 274.168 343.837 274.672C343.837 275.12 343.723 275.522 343.495 275.878C343.267 276.23 342.949 276.506 342.541 276.706C342.133 276.902 341.669 277 341.149 277H337.681V268.6H341.077ZM341.149 276.1C341.473 276.1 341.761 276.04 342.013 275.92C342.265 275.796 342.459 275.624 342.595 275.404C342.735 275.18 342.805 274.922 342.805 274.63C342.805 274.342 342.735 274.084 342.595 273.856C342.455 273.628 342.259 273.452 342.007 273.328C341.759 273.2 341.473 273.136 341.149 273.136H338.659V276.1H341.149ZM341.077 272.26C341.377 272.26 341.641 272.204 341.869 272.092C342.097 271.98 342.273 271.82 342.397 271.612C342.525 271.404 342.589 271.162 342.589 270.886C342.589 270.61 342.525 270.368 342.397 270.16C342.273 269.952 342.095 269.79 341.863 269.674C341.635 269.558 341.373 269.5 341.077 269.5H338.659V272.26H341.077ZM348.265 277.144C347.681 277.144 347.149 277.006 346.669 276.73C346.193 276.45 345.817 276.066 345.541 275.578C345.269 275.086 345.133 274.536 345.133 273.928C345.133 273.32 345.269 272.772 345.541 272.284C345.817 271.792 346.195 271.408 346.675 271.132C347.155 270.852 347.687 270.712 348.271 270.712C348.855 270.712 349.385 270.852 349.861 271.132C350.337 271.408 350.711 271.79 350.983 272.278C351.259 272.766 351.397 273.316 351.397 273.928C351.397 274.54 351.259 275.09 350.983 275.578C350.711 276.066 350.337 276.45 349.861 276.73C349.385 277.006 348.853 277.144 348.265 277.144ZM346.141 273.928C346.141 274.388 346.233 274.796 346.417 275.152C346.605 275.504 346.861 275.778 347.185 275.974C347.513 276.17 347.877 276.268 348.277 276.268C348.677 276.268 349.037 276.17 349.357 275.974C349.677 275.778 349.929 275.504 350.113 275.152C350.297 274.796 350.389 274.388 350.389 273.928C350.389 273.468 350.297 273.06 350.113 272.704C349.929 272.348 349.675 272.072 349.351 271.876C349.031 271.68 348.671 271.582 348.271 271.582C347.871 271.582 347.509 271.68 347.185 271.876C346.861 272.072 346.605 272.348 346.417 272.704C346.233 273.06 346.141 273.468 346.141 273.928ZM358.02 277H357.096V276.004C356.888 276.372 356.61 276.654 356.262 276.85C355.918 277.046 355.518 277.144 355.062 277.144C354.622 277.144 354.232 277.05 353.892 276.862C353.552 276.674 353.284 276.398 353.088 276.034C352.896 275.666 352.8 275.226 352.8 274.714V270.856H353.76V274.618C353.76 275.15 353.898 275.564 354.174 275.86C354.45 276.156 354.83 276.304 355.314 276.304C355.658 276.304 355.962 276.228 356.226 276.076C356.49 275.924 356.694 275.712 356.838 275.44C356.986 275.164 357.06 274.85 357.06 274.498V270.856H358.02V277ZM360.116 270.856H361.04V271.852C361.248 271.484 361.524 271.202 361.868 271.006C362.216 270.81 362.618 270.712 363.074 270.712C363.514 270.712 363.904 270.806 364.244 270.994C364.584 271.182 364.85 271.46 365.042 271.828C365.238 272.192 365.336 272.63 365.336 273.142V277H364.376V273.238C364.376 272.706 364.238 272.292 363.962 271.996C363.686 271.7 363.306 271.552 362.822 271.552C362.478 271.552 362.174 271.628 361.91 271.78C361.646 271.932 361.44 272.146 361.292 272.422C361.148 272.694 361.076 273.006 361.076 273.358V277H360.116V270.856ZM371.921 275.98C371.689 276.352 371.379 276.64 370.991 276.844C370.607 277.044 370.169 277.144 369.677 277.144C369.105 277.144 368.595 277.01 368.147 276.742C367.703 276.47 367.355 276.09 367.103 275.602C366.855 275.114 366.731 274.556 366.731 273.928C366.731 273.3 366.855 272.742 367.103 272.254C367.355 271.766 367.703 271.388 368.147 271.12C368.595 270.848 369.105 270.712 369.677 270.712C370.169 270.712 370.607 270.814 370.991 271.018C371.379 271.218 371.689 271.504 371.921 271.876V268.6H372.881V277H371.921V275.98ZM367.739 273.928C367.739 274.388 367.827 274.796 368.003 275.152C368.179 275.504 368.425 275.78 368.741 275.98C369.057 276.176 369.419 276.274 369.827 276.274C370.203 276.274 370.541 276.192 370.841 276.028C371.145 275.86 371.389 275.626 371.573 275.326C371.761 275.022 371.877 274.67 371.921 274.27V273.586C371.877 273.186 371.761 272.836 371.573 272.536C371.389 272.232 371.145 271.998 370.841 271.834C370.541 271.666 370.203 271.582 369.827 271.582C369.419 271.582 369.057 271.682 368.741 271.882C368.425 272.078 368.179 272.354 368.003 272.71C367.827 273.062 367.739 273.468 367.739 273.928ZM376.922 277.144C376.458 277.144 376.038 277.07 375.662 276.922C375.29 276.774 374.992 276.568 374.768 276.304C374.548 276.036 374.43 275.734 374.414 275.398H375.392C375.408 275.582 375.484 275.748 375.62 275.896C375.756 276.04 375.936 276.154 376.16 276.238C376.384 276.322 376.634 276.364 376.91 276.364C377.19 276.364 377.436 276.318 377.648 276.226C377.864 276.134 378.03 276.006 378.146 275.842C378.266 275.678 378.326 275.492 378.326 275.284C378.326 275.06 378.262 274.872 378.134 274.72C378.01 274.564 377.836 274.466 377.612 274.426L376.13 274.156C375.658 274.068 375.29 273.878 375.026 273.586C374.762 273.29 374.63 272.916 374.63 272.464C374.63 272.14 374.722 271.846 374.906 271.582C375.094 271.314 375.356 271.102 375.692 270.946C376.028 270.79 376.412 270.712 376.844 270.712C377.272 270.712 377.658 270.782 378.002 270.922C378.346 271.062 378.62 271.256 378.824 271.504C379.028 271.752 379.138 272.028 379.154 272.332H378.176C378.164 272.172 378.098 272.028 377.978 271.9C377.862 271.772 377.706 271.672 377.51 271.6C377.314 271.528 377.094 271.492 376.85 271.492C376.602 271.492 376.382 271.534 376.19 271.618C375.998 271.702 375.848 271.818 375.74 271.966C375.636 272.11 375.584 272.274 375.584 272.458C375.584 272.666 375.642 272.838 375.758 272.974C375.874 273.11 376.044 273.198 376.268 273.238L377.786 273.508C378.098 273.564 378.366 273.674 378.59 273.838C378.818 274.002 378.99 274.206 379.106 274.45C379.226 274.694 379.286 274.96 379.286 275.248C379.286 275.608 379.182 275.932 378.974 276.22C378.77 276.508 378.488 276.734 378.128 276.898C377.768 277.062 377.366 277.144 376.922 277.144ZM381.145 268.6H386.953V269.53H382.117V272.302H386.545V273.226H382.117V276.07H387.073V277H381.145V268.6ZM390.825 274.606L389.187 277H388.095L390.321 273.832L388.203 270.856H389.319L390.873 273.088L392.397 270.856H393.489L391.383 273.862L393.603 277H392.487L390.825 274.606ZM397.33 277.144C396.75 277.144 396.226 277.004 395.758 276.724C395.29 276.444 394.922 276.06 394.654 275.572C394.39 275.08 394.258 274.532 394.258 273.928C394.258 273.324 394.39 272.778 394.654 272.29C394.922 271.798 395.29 271.412 395.758 271.132C396.226 270.852 396.75 270.712 397.33 270.712C398.074 270.712 398.698 270.902 399.202 271.282C399.706 271.658 400.028 272.204 400.168 272.92H399.208C399.08 272.48 398.844 272.148 398.5 271.924C398.16 271.696 397.77 271.582 397.33 271.582C396.934 271.582 396.578 271.682 396.262 271.882C395.95 272.082 395.706 272.36 395.53 272.716C395.354 273.072 395.266 273.476 395.266 273.928C395.266 274.376 395.354 274.778 395.53 275.134C395.706 275.49 395.95 275.77 396.262 275.974C396.578 276.174 396.934 276.274 397.33 276.274C397.77 276.274 398.16 276.162 398.5 275.938C398.844 275.71 399.08 275.376 399.208 274.936H400.168C400.076 275.4 399.896 275.798 399.628 276.13C399.36 276.462 399.028 276.714 398.632 276.886C398.236 277.058 397.802 277.144 397.33 277.144ZM404.226 277.144C403.65 277.144 403.132 277.006 402.672 276.73C402.212 276.454 401.852 276.072 401.592 275.584C401.336 275.092 401.208 274.536 401.208 273.916C401.208 273.312 401.338 272.766 401.598 272.278C401.862 271.79 402.224 271.408 402.684 271.132C403.144 270.852 403.658 270.712 404.226 270.712C404.806 270.712 405.314 270.85 405.75 271.126C406.19 271.402 406.528 271.784 406.764 272.272C407.004 272.76 407.124 273.312 407.124 273.928V274.162H402.186C402.226 274.582 402.34 274.954 402.528 275.278C402.716 275.602 402.962 275.854 403.266 276.034C403.57 276.214 403.91 276.304 404.286 276.304C404.69 276.304 405.046 276.23 405.354 276.082C405.662 275.934 405.886 275.732 406.026 275.476H406.986C406.914 275.732 406.762 275.988 406.53 276.244C406.302 276.5 405.99 276.714 405.594 276.886C405.202 277.058 404.746 277.144 404.226 277.144ZM406.128 273.37C406.048 272.81 405.844 272.368 405.516 272.044C405.192 271.72 404.766 271.558 404.238 271.558C403.882 271.558 403.562 271.632 403.278 271.78C402.994 271.924 402.76 272.134 402.576 272.41C402.392 272.682 402.27 273.002 402.21 273.37H406.128ZM409.638 270.856V271.942C409.87 271.554 410.182 271.252 410.574 271.036C410.966 270.82 411.416 270.712 411.924 270.712C412.496 270.712 413.004 270.848 413.448 271.12C413.896 271.388 414.244 271.766 414.492 272.254C414.744 272.742 414.87 273.3 414.87 273.928C414.87 274.556 414.744 275.114 414.492 275.602C414.244 276.09 413.896 276.47 413.448 276.742C413.004 277.01 412.496 277.144 411.924 277.144C411.424 277.144 410.98 277.04 410.592 276.832C410.204 276.624 409.894 276.332 409.662 275.956V278.932H408.702V270.856H409.638ZM409.662 273.928C409.662 274.388 409.75 274.796 409.926 275.152C410.106 275.504 410.356 275.78 410.676 275.98C410.996 276.176 411.362 276.274 411.774 276.274C412.182 276.274 412.544 276.176 412.86 275.98C413.176 275.78 413.422 275.504 413.598 275.152C413.774 274.796 413.862 274.388 413.862 273.928C413.862 273.468 413.774 273.062 413.598 272.71C413.422 272.354 413.176 272.078 412.86 271.882C412.544 271.682 412.182 271.582 411.774 271.582C411.362 271.582 410.996 271.682 410.676 271.882C410.356 272.078 410.106 272.354 409.926 272.71C409.75 273.062 409.662 273.468 409.662 273.928ZM418.422 277C418.13 277 417.864 276.938 417.624 276.814C417.388 276.686 417.202 276.512 417.066 276.292C416.93 276.068 416.862 275.82 416.862 275.548L416.856 271.708H415.776L415.782 270.856H416.448C416.6 270.856 416.722 270.808 416.814 270.712C416.91 270.616 416.958 270.494 416.958 270.346V269.356H417.822V270.856H419.304L419.298 271.708H417.816L417.822 275.488C417.822 275.676 417.884 275.834 418.008 275.962C418.136 276.086 418.294 276.148 418.482 276.148H419.298V277H418.422ZM420.972 270.856H421.932V277H420.972V270.856ZM422.016 268.6V269.74H420.888V268.6H422.016ZM426.64 277.144C426.056 277.144 425.524 277.006 425.044 276.73C424.568 276.45 424.192 276.066 423.916 275.578C423.644 275.086 423.508 274.536 423.508 273.928C423.508 273.32 423.644 272.772 423.916 272.284C424.192 271.792 424.57 271.408 425.05 271.132C425.53 270.852 426.062 270.712 426.646 270.712C427.23 270.712 427.76 270.852 428.236 271.132C428.712 271.408 429.086 271.79 429.358 272.278C429.634 272.766 429.772 273.316 429.772 273.928C429.772 274.54 429.634 275.09 429.358 275.578C429.086 276.066 428.712 276.45 428.236 276.73C427.76 277.006 427.228 277.144 426.64 277.144ZM424.516 273.928C424.516 274.388 424.608 274.796 424.792 275.152C424.98 275.504 425.236 275.778 425.56 275.974C425.888 276.17 426.252 276.268 426.652 276.268C427.052 276.268 427.412 276.17 427.732 275.974C428.052 275.778 428.304 275.504 428.488 275.152C428.672 274.796 428.764 274.388 428.764 273.928C428.764 273.468 428.672 273.06 428.488 272.704C428.304 272.348 428.05 272.072 427.726 271.876C427.406 271.68 427.046 271.582 426.646 271.582C426.246 271.582 425.884 271.68 425.56 271.876C425.236 272.072 424.98 272.348 424.792 272.704C424.608 273.06 424.516 273.468 424.516 273.928ZM431.355 270.856H432.279V271.852C432.487 271.484 432.763 271.202 433.107 271.006C433.455 270.81 433.857 270.712 434.313 270.712C434.753 270.712 435.143 270.806 435.483 270.994C435.823 271.182 436.089 271.46 436.281 271.828C436.477 272.192 436.575 272.63 436.575 273.142V277H435.615V273.238C435.615 272.706 435.477 272.292 435.201 271.996C434.925 271.7 434.545 271.552 434.061 271.552C433.717 271.552 433.413 271.628 433.149 271.78C432.885 271.932 432.679 272.146 432.531 272.422C432.387 272.694 432.315 273.006 432.315 273.358V277H431.355V270.856Z" fill="black"/>
<path d="M68.3603 269.6H69.4343L72.6623 278H71.6063L70.7963 275.768H67.0823L66.3263 278H65.2463L68.3603 269.6ZM70.4723 274.904L69.0383 270.998L68.8943 270.488L68.7503 270.998L67.3883 274.904H70.4723ZM73.9719 271.856H74.9319V272.876C75.1279 272.528 75.3819 272.262 75.6939 272.078C76.0059 271.89 76.3639 271.796 76.7679 271.796H76.9839V272.798H76.7319C76.3679 272.798 76.0499 272.868 75.7779 273.008C75.5059 273.148 75.2959 273.348 75.1479 273.608C75.0039 273.864 74.9319 274.166 74.9319 274.514V278H73.9719V271.856ZM78.2609 271.856H79.2209V278H78.2609V271.856ZM79.3049 269.6V270.74H78.1769V269.6H79.3049ZM83.2935 278C83.0015 278 82.7355 277.938 82.4955 277.814C82.2595 277.686 82.0735 277.512 81.9375 277.292C81.8015 277.068 81.7335 276.82 81.7335 276.548L81.7275 272.708H80.6475L80.6535 271.856H81.3195C81.4715 271.856 81.5935 271.808 81.6855 271.712C81.7815 271.616 81.8295 271.494 81.8295 271.346V270.356H82.6935V271.856H84.1755L84.1695 272.708H82.6875L82.6935 276.488C82.6935 276.676 82.7555 276.834 82.8795 276.962C83.0075 277.086 83.1655 277.148 83.3535 277.148H84.1695V278H83.2935ZM85.843 269.6H86.767V272.852C86.975 272.484 87.251 272.202 87.595 272.006C87.943 271.81 88.345 271.712 88.801 271.712C89.241 271.712 89.631 271.806 89.971 271.994C90.311 272.182 90.577 272.46 90.769 272.828C90.965 273.192 91.063 273.63 91.063 274.142V278H90.103V274.238C90.103 273.706 89.965 273.292 89.689 272.996C89.413 272.7 89.033 272.552 88.549 272.552C88.205 272.552 87.901 272.628 87.637 272.78C87.373 272.932 87.167 273.146 87.019 273.422C86.875 273.694 86.803 274.006 86.803 274.358V278H85.843V269.6ZM92.9797 271.856H93.9037V272.894C94.0877 272.514 94.3417 272.222 94.6657 272.018C94.9937 271.814 95.3777 271.712 95.8177 271.712C96.2777 271.712 96.6777 271.822 97.0177 272.042C97.3577 272.262 97.6117 272.572 97.7797 272.972C97.9757 272.572 98.2497 272.262 98.6017 272.042C98.9537 271.822 99.3597 271.712 99.8197 271.712C100.256 271.712 100.642 271.812 100.978 272.012C101.318 272.208 101.582 272.488 101.77 272.852C101.958 273.216 102.052 273.64 102.052 274.124V278H101.092V274.166C101.092 273.658 100.964 273.258 100.708 272.966C100.456 272.674 100.1 272.528 99.6397 272.528C99.3117 272.528 99.0237 272.604 98.7757 272.756C98.5277 272.904 98.3357 273.116 98.1997 273.392C98.0637 273.664 97.9957 273.986 97.9957 274.358V278H97.0357V274.166C97.0357 273.658 96.9077 273.258 96.6517 272.966C96.3997 272.674 96.0437 272.528 95.5837 272.528C95.2517 272.528 94.9617 272.602 94.7137 272.75C94.4657 272.898 94.2737 273.11 94.1377 273.386C94.0057 273.662 93.9397 273.986 93.9397 274.358V278H92.9797V271.856ZM106.468 278.144C105.892 278.144 105.374 278.006 104.914 277.73C104.454 277.454 104.094 277.072 103.834 276.584C103.578 276.092 103.45 275.536 103.45 274.916C103.45 274.312 103.58 273.766 103.84 273.278C104.104 272.79 104.466 272.408 104.926 272.132C105.386 271.852 105.9 271.712 106.468 271.712C107.048 271.712 107.556 271.85 107.992 272.126C108.432 272.402 108.77 272.784 109.006 273.272C109.246 273.76 109.366 274.312 109.366 274.928V275.162H104.428C104.468 275.582 104.582 275.954 104.77 276.278C104.958 276.602 105.204 276.854 105.508 277.034C105.812 277.214 106.152 277.304 106.528 277.304C106.932 277.304 107.288 277.23 107.596 277.082C107.904 276.934 108.128 276.732 108.268 276.476H109.228C109.156 276.732 109.004 276.988 108.772 277.244C108.544 277.5 108.232 277.714 107.836 277.886C107.444 278.058 106.988 278.144 106.468 278.144ZM108.37 274.37C108.29 273.81 108.086 273.368 107.758 273.044C107.434 272.72 107.008 272.558 106.48 272.558C106.124 272.558 105.804 272.632 105.52 272.78C105.236 272.924 105.002 273.134 104.818 273.41C104.634 273.682 104.512 274.002 104.452 274.37H108.37ZM112.919 278C112.627 278 112.361 277.938 112.121 277.814C111.885 277.686 111.699 277.512 111.563 277.292C111.427 277.068 111.359 276.82 111.359 276.548L111.353 272.708H110.273L110.279 271.856H110.945C111.097 271.856 111.219 271.808 111.311 271.712C111.407 271.616 111.455 271.494 111.455 271.346V270.356H112.319V271.856H113.801L113.795 272.708H112.313L112.319 276.488C112.319 276.676 112.381 276.834 112.505 276.962C112.633 277.086 112.791 277.148 112.979 277.148H113.795V278H112.919ZM115.468 271.856H116.428V278H115.468V271.856ZM116.512 269.6V270.74H115.384V269.6H116.512ZM121.077 278.144C120.497 278.144 119.973 278.004 119.505 277.724C119.037 277.444 118.669 277.06 118.401 276.572C118.137 276.08 118.005 275.532 118.005 274.928C118.005 274.324 118.137 273.778 118.401 273.29C118.669 272.798 119.037 272.412 119.505 272.132C119.973 271.852 120.497 271.712 121.077 271.712C121.821 271.712 122.445 271.902 122.949 272.282C123.453 272.658 123.775 273.204 123.915 273.92H122.955C122.827 273.48 122.591 273.148 122.247 272.924C121.907 272.696 121.517 272.582 121.077 272.582C120.681 272.582 120.325 272.682 120.009 272.882C119.697 273.082 119.453 273.36 119.277 273.716C119.101 274.072 119.013 274.476 119.013 274.928C119.013 275.376 119.101 275.778 119.277 276.134C119.453 276.49 119.697 276.77 120.009 276.974C120.325 277.174 120.681 277.274 121.077 277.274C121.517 277.274 121.907 277.162 122.247 276.938C122.591 276.71 122.827 276.376 122.955 275.936H123.915C123.823 276.4 123.643 276.798 123.375 277.13C123.107 277.462 122.775 277.714 122.379 277.886C121.983 278.058 121.549 278.144 121.077 278.144ZM125.716 269.6H131.524V270.53H126.688V273.302H131.116V274.226H126.688V277.07H131.644V278H125.716V269.6ZM135.395 275.606L133.757 278H132.665L134.891 274.832L132.773 271.856H133.889L135.443 274.088L136.967 271.856H138.059L135.953 274.862L138.173 278H137.057L135.395 275.606ZM141.901 278.144C141.321 278.144 140.797 278.004 140.329 277.724C139.861 277.444 139.493 277.06 139.225 276.572C138.961 276.08 138.829 275.532 138.829 274.928C138.829 274.324 138.961 273.778 139.225 273.29C139.493 272.798 139.861 272.412 140.329 272.132C140.797 271.852 141.321 271.712 141.901 271.712C142.645 271.712 143.269 271.902 143.773 272.282C144.277 272.658 144.599 273.204 144.739 273.92H143.779C143.651 273.48 143.415 273.148 143.071 272.924C142.731 272.696 142.341 272.582 141.901 272.582C141.505 272.582 141.149 272.682 140.833 272.882C140.521 273.082 140.277 273.36 140.101 273.716C139.925 274.072 139.837 274.476 139.837 274.928C139.837 275.376 139.925 275.778 140.101 276.134C140.277 276.49 140.521 276.77 140.833 276.974C141.149 277.174 141.505 277.274 141.901 277.274C142.341 277.274 142.731 277.162 143.071 276.938C143.415 276.71 143.651 276.376 143.779 275.936H144.739C144.647 276.4 144.467 276.798 144.199 277.13C143.931 277.462 143.599 277.714 143.203 277.886C142.807 278.058 142.373 278.144 141.901 278.144ZM148.796 278.144C148.22 278.144 147.702 278.006 147.242 277.73C146.782 277.454 146.422 277.072 146.162 276.584C145.906 276.092 145.778 275.536 145.778 274.916C145.778 274.312 145.908 273.766 146.168 273.278C146.432 272.79 146.794 272.408 147.254 272.132C147.714 271.852 148.228 271.712 148.796 271.712C149.376 271.712 149.884 271.85 150.32 272.126C150.76 272.402 151.098 272.784 151.334 273.272C151.574 273.76 151.694 274.312 151.694 274.928V275.162H146.756C146.796 275.582 146.91 275.954 147.098 276.278C147.286 276.602 147.532 276.854 147.836 277.034C148.14 277.214 148.48 277.304 148.856 277.304C149.26 277.304 149.616 277.23 149.924 277.082C150.232 276.934 150.456 276.732 150.596 276.476H151.556C151.484 276.732 151.332 276.988 151.1 277.244C150.872 277.5 150.56 277.714 150.164 277.886C149.772 278.058 149.316 278.144 148.796 278.144ZM150.698 274.37C150.618 273.81 150.414 273.368 150.086 273.044C149.762 272.72 149.336 272.558 148.808 272.558C148.452 272.558 148.132 272.632 147.848 272.78C147.564 272.924 147.33 273.134 147.146 273.41C146.962 273.682 146.84 274.002 146.78 274.37H150.698ZM154.209 271.856V272.942C154.441 272.554 154.753 272.252 155.145 272.036C155.537 271.82 155.987 271.712 156.495 271.712C157.067 271.712 157.575 271.848 158.019 272.12C158.467 272.388 158.815 272.766 159.063 273.254C159.315 273.742 159.441 274.3 159.441 274.928C159.441 275.556 159.315 276.114 159.063 276.602C158.815 277.09 158.467 277.47 158.019 277.742C157.575 278.01 157.067 278.144 156.495 278.144C155.995 278.144 155.551 278.04 155.163 277.832C154.775 277.624 154.465 277.332 154.233 276.956V279.932H153.273V271.856H154.209ZM154.233 274.928C154.233 275.388 154.321 275.796 154.497 276.152C154.677 276.504 154.927 276.78 155.247 276.98C155.567 277.176 155.933 277.274 156.345 277.274C156.753 277.274 157.115 277.176 157.431 276.98C157.747 276.78 157.993 276.504 158.169 276.152C158.345 275.796 158.433 275.388 158.433 274.928C158.433 274.468 158.345 274.062 158.169 273.71C157.993 273.354 157.747 273.078 157.431 272.882C157.115 272.682 156.753 272.582 156.345 272.582C155.933 272.582 155.567 272.682 155.247 272.882C154.927 273.078 154.677 273.354 154.497 273.71C154.321 274.062 154.233 274.468 154.233 274.928ZM162.993 278C162.701 278 162.435 277.938 162.195 277.814C161.959 277.686 161.773 277.512 161.637 277.292C161.501 277.068 161.433 276.82 161.433 276.548L161.427 272.708H160.347L160.353 271.856H161.019C161.171 271.856 161.293 271.808 161.385 271.712C161.481 271.616 161.529 271.494 161.529 271.346V270.356H162.393V271.856H163.875L163.869 272.708H162.387L162.393 276.488C162.393 276.676 162.455 276.834 162.579 276.962C162.707 277.086 162.865 277.148 163.053 277.148H163.869V278H162.993ZM165.542 271.856H166.502V278H165.542V271.856ZM166.586 269.6V270.74H165.458V269.6H166.586ZM171.211 278.144C170.627 278.144 170.095 278.006 169.615 277.73C169.139 277.45 168.763 277.066 168.487 276.578C168.215 276.086 168.079 275.536 168.079 274.928C168.079 274.32 168.215 273.772 168.487 273.284C168.763 272.792 169.141 272.408 169.621 272.132C170.101 271.852 170.633 271.712 171.217 271.712C171.801 271.712 172.331 271.852 172.807 272.132C173.283 272.408 173.657 272.79 173.929 273.278C174.205 273.766 174.343 274.316 174.343 274.928C174.343 275.54 174.205 276.09 173.929 276.578C173.657 277.066 173.283 277.45 172.807 277.73C172.331 278.006 171.799 278.144 171.211 278.144ZM169.087 274.928C169.087 275.388 169.179 275.796 169.363 276.152C169.551 276.504 169.807 276.778 170.131 276.974C170.459 277.17 170.823 277.268 171.223 277.268C171.623 277.268 171.983 277.17 172.303 276.974C172.623 276.778 172.875 276.504 173.059 276.152C173.243 275.796 173.335 275.388 173.335 274.928C173.335 274.468 173.243 274.06 173.059 273.704C172.875 273.348 172.621 273.072 172.297 272.876C171.977 272.68 171.617 272.582 171.217 272.582C170.817 272.582 170.455 272.68 170.131 272.876C169.807 273.072 169.551 273.348 169.363 273.704C169.179 274.06 169.087 274.468 169.087 274.928ZM175.925 271.856H176.849V272.852C177.057 272.484 177.333 272.202 177.677 272.006C178.025 271.81 178.427 271.712 178.883 271.712C179.323 271.712 179.713 271.806 180.053 271.994C180.393 272.182 180.659 272.46 180.851 272.828C181.047 273.192 181.145 273.63 181.145 274.142V278H180.185V274.238C180.185 273.706 180.047 273.292 179.771 272.996C179.495 272.7 179.115 272.552 178.631 272.552C178.287 272.552 177.983 272.628 177.719 272.78C177.455 272.932 177.249 273.146 177.101 273.422C176.957 273.694 176.885 274.006 176.885 274.358V278H175.925V271.856Z" fill="black"/>
<defs>
<radialGradient id="paint0_radial_1_303" cx="0" cy="0" r="1" gradientUnits="userSpaceOnUse" gradientTransform="translate(254.449 132.19) scale(192.038 292.389)">
<stop stop-color="#EB4857"/>
<stop offset="0.5" stop-color="#C611E0"/>
<stop offset="1" stop-color="#7F52FF"/>
</radialGradient>
</defs>
</svg>
