<svg width="706" height="444" viewBox="0 0 706 444" fill="none" xmlns="http://www.w3.org/2000/svg">
<rect width="706" height="444" fill="white"/>
<path d="M584 197.852L583.65 197.852L584 197.852ZM570 183.852L570 184.202H570L570 183.852ZM430 183.852L430 183.502H430L430 183.852ZM416 132L418.021 135.5L413.979 135.5L416 132ZM583.65 244L583.65 197.852L584.35 197.852L584.35 244L583.65 244ZM570 184.202L430 184.202L430 183.502L570 183.502L570 184.202ZM415.65 169.852L415.65 135.15L416.35 135.15L416.35 169.852L415.65 169.852ZM430 184.202C422.075 184.202 415.65 177.777 415.65 169.852L416.35 169.852C416.35 177.391 422.461 183.502 430 183.502L430 184.202ZM583.65 197.852C583.65 190.313 577.539 184.202 570 184.202L570 183.502C577.925 183.502 584.35 189.927 584.35 197.852L583.65 197.852Z" fill="black"/>
<path d="M362 132L364.052 135.482L360.011 135.518L362 132ZM362.65 244.003L361.678 135.153L362.378 135.147L363.35 243.997L362.65 244.003Z" fill="black"/>
<path d="M132 197.852L131.65 197.852L132 197.852ZM146 183.852L146 184.202H146L146 183.852ZM281 183.852L281 183.502H281L281 183.852ZM295 132L292.979 135.5L297.021 135.5L295 132ZM132.35 244L132.35 197.852L131.65 197.852L131.65 244L132.35 244ZM146 184.202L281 184.202L281 183.502L146 183.502L146 184.202ZM295.35 169.852L295.35 135.15L294.65 135.15L294.65 169.852L295.35 169.852ZM281 184.202C288.925 184.202 295.35 177.777 295.35 169.852L294.65 169.852C294.65 177.391 288.539 183.502 281 183.502L281 184.202ZM132.35 197.852C132.35 190.313 138.461 184.202 146 184.202L146 183.502C138.075 183.502 131.65 189.927 131.65 197.852L132.35 197.852Z" fill="black"/>
<rect x="255" y="52" width="197" height="79" rx="12" fill="url(#paint0_radial_1_303)"/>
<path d="M303.893 91.484H302.087V95H301.091V86.6H304.487C305.023 86.6 305.493 86.7 305.897 86.9C306.305 87.1 306.619 87.384 306.839 87.752C307.063 88.12 307.175 88.548 307.175 89.036C307.175 89.468 307.085 89.856 306.905 90.2C306.729 90.54 306.477 90.818 306.149 91.034C305.821 91.246 305.433 91.384 304.985 91.448L307.199 95H306.035L303.893 91.484ZM304.487 90.554C304.815 90.554 305.101 90.492 305.345 90.368C305.593 90.244 305.783 90.068 305.915 89.84C306.051 89.612 306.119 89.344 306.119 89.036C306.119 88.732 306.051 88.466 305.915 88.238C305.783 88.01 305.593 87.836 305.345 87.716C305.101 87.592 304.815 87.53 304.487 87.53H302.087V90.554H304.487ZM313.883 95H312.959V94.004C312.751 94.372 312.473 94.654 312.125 94.85C311.781 95.046 311.381 95.144 310.925 95.144C310.485 95.144 310.095 95.05 309.755 94.862C309.415 94.674 309.147 94.398 308.951 94.034C308.759 93.666 308.663 93.226 308.663 92.714V88.856H309.623V92.618C309.623 93.15 309.761 93.564 310.037 93.86C310.313 94.156 310.693 94.304 311.177 94.304C311.521 94.304 311.825 94.228 312.089 94.076C312.353 93.924 312.557 93.712 312.701 93.44C312.849 93.164 312.923 92.85 312.923 92.498V88.856H313.883V95ZM315.98 88.856H316.904V89.852C317.112 89.484 317.388 89.202 317.732 89.006C318.08 88.81 318.482 88.712 318.938 88.712C319.378 88.712 319.768 88.806 320.108 88.994C320.448 89.182 320.714 89.46 320.906 89.828C321.102 90.192 321.2 90.63 321.2 91.142V95H320.24V91.238C320.24 90.706 320.102 90.292 319.826 89.996C319.55 89.7 319.17 89.552 318.686 89.552C318.342 89.552 318.038 89.628 317.774 89.78C317.51 89.932 317.304 90.146 317.156 90.422C317.012 90.694 316.94 91.006 316.94 91.358V95H315.98V88.856ZM325.09 95C324.798 95 324.532 94.938 324.292 94.814C324.056 94.686 323.87 94.512 323.734 94.292C323.598 94.068 323.53 93.82 323.53 93.548L323.524 89.708H322.444L322.45 88.856H323.116C323.268 88.856 323.39 88.808 323.482 88.712C323.578 88.616 323.626 88.494 323.626 88.346V87.356H324.49V88.856H325.972L325.966 89.708H324.484L324.49 93.488C324.49 93.676 324.552 93.834 324.676 93.962C324.804 94.086 324.962 94.148 325.15 94.148H325.966V95H325.09ZM327.64 88.856H328.6V95H327.64V88.856ZM328.684 86.6V87.74H327.556V86.6H328.684ZM330.698 88.856H331.622V89.894C331.806 89.514 332.06 89.222 332.384 89.018C332.712 88.814 333.096 88.712 333.536 88.712C333.996 88.712 334.396 88.822 334.736 89.042C335.076 89.262 335.33 89.572 335.498 89.972C335.694 89.572 335.968 89.262 336.32 89.042C336.672 88.822 337.078 88.712 337.538 88.712C337.974 88.712 338.36 88.812 338.696 89.012C339.036 89.208 339.3 89.488 339.488 89.852C339.676 90.216 339.77 90.64 339.77 91.124V95H338.81V91.166C338.81 90.658 338.682 90.258 338.426 89.966C338.174 89.674 337.818 89.528 337.358 89.528C337.03 89.528 336.742 89.604 336.494 89.756C336.246 89.904 336.054 90.116 335.918 90.392C335.782 90.664 335.714 90.986 335.714 91.358V95H334.754V91.166C334.754 90.658 334.626 90.258 334.37 89.966C334.118 89.674 333.762 89.528 333.302 89.528C332.97 89.528 332.68 89.602 332.432 89.75C332.184 89.898 331.992 90.11 331.856 90.386C331.724 90.662 331.658 90.986 331.658 91.358V95H330.698V88.856ZM344.187 95.144C343.611 95.144 343.093 95.006 342.633 94.73C342.173 94.454 341.813 94.072 341.553 93.584C341.297 93.092 341.169 92.536 341.169 91.916C341.169 91.312 341.299 90.766 341.559 90.278C341.823 89.79 342.185 89.408 342.645 89.132C343.105 88.852 343.619 88.712 344.187 88.712C344.767 88.712 345.275 88.85 345.711 89.126C346.151 89.402 346.489 89.784 346.725 90.272C346.965 90.76 347.085 91.312 347.085 91.928V92.162H342.147C342.187 92.582 342.301 92.954 342.489 93.278C342.677 93.602 342.923 93.854 343.227 94.034C343.531 94.214 343.871 94.304 344.247 94.304C344.651 94.304 345.007 94.23 345.315 94.082C345.623 93.934 345.847 93.732 345.987 93.476H346.947C346.875 93.732 346.723 93.988 346.491 94.244C346.263 94.5 345.951 94.714 345.555 94.886C345.163 95.058 344.707 95.144 344.187 95.144ZM346.089 91.37C346.009 90.81 345.805 90.368 345.477 90.044C345.153 89.72 344.727 89.558 344.199 89.558C343.843 89.558 343.523 89.632 343.239 89.78C342.955 89.924 342.721 90.134 342.537 90.41C342.353 90.682 342.231 91.002 342.171 91.37H346.089ZM348.903 86.6H354.711V87.53H349.875V90.302H354.303V91.226H349.875V94.07H354.831V95H348.903V86.6ZM358.582 92.606L356.944 95H355.852L358.078 91.832L355.96 88.856H357.076L358.63 91.088L360.154 88.856H361.246L359.14 91.862L361.36 95H360.244L358.582 92.606ZM365.088 95.144C364.508 95.144 363.984 95.004 363.516 94.724C363.048 94.444 362.68 94.06 362.412 93.572C362.148 93.08 362.016 92.532 362.016 91.928C362.016 91.324 362.148 90.778 362.412 90.29C362.68 89.798 363.048 89.412 363.516 89.132C363.984 88.852 364.508 88.712 365.088 88.712C365.832 88.712 366.456 88.902 366.96 89.282C367.464 89.658 367.786 90.204 367.926 90.92H366.966C366.838 90.48 366.602 90.148 366.258 89.924C365.918 89.696 365.528 89.582 365.088 89.582C364.692 89.582 364.336 89.682 364.02 89.882C363.708 90.082 363.464 90.36 363.288 90.716C363.112 91.072 363.024 91.476 363.024 91.928C363.024 92.376 363.112 92.778 363.288 93.134C363.464 93.49 363.708 93.77 364.02 93.974C364.336 94.174 364.692 94.274 365.088 94.274C365.528 94.274 365.918 94.162 366.258 93.938C366.602 93.71 366.838 93.376 366.966 92.936H367.926C367.834 93.4 367.654 93.798 367.386 94.13C367.118 94.462 366.786 94.714 366.39 94.886C365.994 95.058 365.56 95.144 365.088 95.144ZM371.984 95.144C371.408 95.144 370.89 95.006 370.43 94.73C369.97 94.454 369.61 94.072 369.35 93.584C369.094 93.092 368.966 92.536 368.966 91.916C368.966 91.312 369.096 90.766 369.356 90.278C369.62 89.79 369.982 89.408 370.442 89.132C370.902 88.852 371.416 88.712 371.984 88.712C372.564 88.712 373.072 88.85 373.508 89.126C373.948 89.402 374.286 89.784 374.522 90.272C374.762 90.76 374.882 91.312 374.882 91.928V92.162H369.944C369.984 92.582 370.098 92.954 370.286 93.278C370.474 93.602 370.72 93.854 371.024 94.034C371.328 94.214 371.668 94.304 372.044 94.304C372.448 94.304 372.804 94.23 373.112 94.082C373.42 93.934 373.644 93.732 373.784 93.476H374.743C374.671 93.732 374.52 93.988 374.288 94.244C374.06 94.5 373.748 94.714 373.352 94.886C372.96 95.058 372.504 95.144 371.984 95.144ZM373.886 91.37C373.806 90.81 373.602 90.368 373.274 90.044C372.95 89.72 372.524 89.558 371.996 89.558C371.64 89.558 371.32 89.632 371.036 89.78C370.752 89.924 370.518 90.134 370.334 90.41C370.15 90.682 370.028 91.002 369.968 91.37H373.886ZM377.396 88.856V89.942C377.628 89.554 377.94 89.252 378.332 89.036C378.724 88.82 379.174 88.712 379.682 88.712C380.254 88.712 380.762 88.848 381.206 89.12C381.654 89.388 382.002 89.766 382.25 90.254C382.502 90.742 382.628 91.3 382.628 91.928C382.628 92.556 382.502 93.114 382.25 93.602C382.002 94.09 381.654 94.47 381.206 94.742C380.762 95.01 380.254 95.144 379.682 95.144C379.182 95.144 378.738 95.04 378.35 94.832C377.962 94.624 377.652 94.332 377.42 93.956V96.932H376.46V88.856H377.396ZM377.42 91.928C377.42 92.388 377.508 92.796 377.684 93.152C377.864 93.504 378.114 93.78 378.434 93.98C378.754 94.176 379.12 94.274 379.532 94.274C379.94 94.274 380.302 94.176 380.618 93.98C380.934 93.78 381.18 93.504 381.356 93.152C381.532 92.796 381.62 92.388 381.62 91.928C381.62 91.468 381.532 91.062 381.356 90.71C381.18 90.354 380.934 90.078 380.618 89.882C380.302 89.682 379.94 89.582 379.532 89.582C379.12 89.582 378.754 89.682 378.434 89.882C378.114 90.078 377.864 90.354 377.684 90.71C377.508 91.062 377.42 91.468 377.42 91.928ZM386.18 95C385.888 95 385.622 94.938 385.382 94.814C385.146 94.686 384.96 94.512 384.824 94.292C384.688 94.068 384.62 93.82 384.62 93.548L384.614 89.708H383.534L383.54 88.856H384.206C384.358 88.856 384.48 88.808 384.572 88.712C384.668 88.616 384.716 88.494 384.716 88.346V87.356H385.58V88.856H387.062L387.056 89.708H385.574L385.58 93.488C385.58 93.676 385.642 93.834 385.766 93.962C385.894 94.086 386.052 94.148 386.24 94.148H387.056V95H386.18ZM388.73 88.856H389.69V95H388.73V88.856ZM389.774 86.6V87.74H388.646V86.6H389.774ZM394.398 95.144C393.814 95.144 393.282 95.006 392.802 94.73C392.326 94.45 391.95 94.066 391.674 93.578C391.402 93.086 391.266 92.536 391.266 91.928C391.266 91.32 391.402 90.772 391.674 90.284C391.95 89.792 392.328 89.408 392.808 89.132C393.288 88.852 393.82 88.712 394.404 88.712C394.988 88.712 395.518 88.852 395.994 89.132C396.47 89.408 396.844 89.79 397.116 90.278C397.392 90.766 397.53 91.316 397.53 91.928C397.53 92.54 397.392 93.09 397.116 93.578C396.844 94.066 396.47 94.45 395.994 94.73C395.518 95.006 394.986 95.144 394.398 95.144ZM392.274 91.928C392.274 92.388 392.366 92.796 392.55 93.152C392.738 93.504 392.994 93.778 393.318 93.974C393.646 94.17 394.01 94.268 394.41 94.268C394.81 94.268 395.17 94.17 395.49 93.974C395.81 93.778 396.062 93.504 396.246 93.152C396.43 92.796 396.522 92.388 396.522 91.928C396.522 91.468 396.43 91.06 396.246 90.704C396.062 90.348 395.808 90.072 395.484 89.876C395.164 89.68 394.804 89.582 394.404 89.582C394.004 89.582 393.642 89.68 393.318 89.876C392.994 90.072 392.738 90.348 392.55 90.704C392.366 91.06 392.274 91.468 392.274 91.928ZM399.113 88.856H400.037V89.852C400.245 89.484 400.521 89.202 400.865 89.006C401.213 88.81 401.615 88.712 402.071 88.712C402.511 88.712 402.901 88.806 403.241 88.994C403.581 89.182 403.847 89.46 404.039 89.828C404.235 90.192 404.333 90.63 404.333 91.142V95H403.373V91.238C403.373 90.706 403.235 90.292 402.959 89.996C402.683 89.7 402.303 89.552 401.819 89.552C401.475 89.552 401.171 89.628 400.907 89.78C400.643 89.932 400.437 90.146 400.289 90.422C400.145 90.694 400.073 91.006 400.073 91.358V95H399.113V88.856Z" fill="white"/>
<path d="M363 291L365.077 294.467L361.036 294.532L363 291ZM363.65 353.006L362.701 294.155L363.401 294.144L364.35 352.994L363.65 353.006Z" fill="black"/>
<rect x="261" y="353" width="214" height="46" rx="12" fill="#D9CBFF"/>
<path d="M268.313 381.144C267.737 381.144 267.227 381.038 266.783 380.826C266.343 380.614 265.999 380.318 265.751 379.938C265.507 379.558 265.385 379.122 265.385 378.63H266.405C266.405 378.946 266.485 379.226 266.645 379.47C266.805 379.714 267.031 379.904 267.323 380.04C267.615 380.176 267.949 380.244 268.325 380.244C268.697 380.244 269.023 380.182 269.303 380.058C269.587 379.93 269.805 379.752 269.957 379.524C270.113 379.292 270.191 379.026 270.191 378.726C270.191 378.346 270.077 378.02 269.849 377.748C269.625 377.476 269.325 377.308 268.949 377.244L267.593 377.01C267.185 376.938 266.831 376.796 266.531 376.584C266.231 376.372 266.001 376.108 265.841 375.792C265.681 375.476 265.601 375.132 265.601 374.76C265.601 374.324 265.715 373.932 265.943 373.584C266.175 373.232 266.495 372.956 266.903 372.756C267.315 372.556 267.777 372.456 268.289 372.456C268.817 372.456 269.287 372.556 269.699 372.756C270.111 372.952 270.431 373.226 270.659 373.578C270.887 373.93 271.001 374.332 271.001 374.784H269.981C269.981 374.508 269.911 374.262 269.771 374.046C269.631 373.826 269.433 373.656 269.177 373.536C268.925 373.416 268.633 373.356 268.301 373.356C267.969 373.356 267.675 373.414 267.419 373.53C267.163 373.646 266.963 373.81 266.819 374.022C266.679 374.234 266.609 374.48 266.609 374.76C266.609 375.092 266.715 375.378 266.927 375.618C267.143 375.858 267.425 376.008 267.773 376.068L269.153 376.308C269.553 376.38 269.909 376.534 270.221 376.77C270.533 377.006 270.775 377.296 270.947 377.64C271.119 377.98 271.205 378.338 271.205 378.714C271.205 379.166 271.083 379.578 270.839 379.95C270.595 380.318 270.253 380.61 269.813 380.826C269.373 381.038 268.873 381.144 268.313 381.144ZM274.956 381C274.664 381 274.398 380.938 274.158 380.814C273.922 380.686 273.736 380.512 273.6 380.292C273.464 380.068 273.396 379.82 273.396 379.548L273.39 375.708H272.31L272.316 374.856H272.982C273.134 374.856 273.256 374.808 273.348 374.712C273.444 374.616 273.492 374.494 273.492 374.346V373.356H274.356V374.856H275.838L275.832 375.708H274.35L274.356 379.488C274.356 379.676 274.418 379.834 274.542 379.962C274.67 380.086 274.828 380.148 275.016 380.148H275.832V381H274.956ZM277.505 374.856H278.465V375.876C278.661 375.528 278.915 375.262 279.227 375.078C279.539 374.89 279.897 374.796 280.301 374.796H280.517V375.798H280.265C279.901 375.798 279.583 375.868 279.311 376.008C279.039 376.148 278.829 376.348 278.681 376.608C278.537 376.864 278.465 377.166 278.465 377.514V381H277.505V374.856ZM281.794 374.856H282.754V381H281.794V374.856ZM282.838 372.6V373.74H281.71V372.6H282.838ZM284.853 374.856H285.777V375.852C285.985 375.484 286.261 375.202 286.605 375.006C286.953 374.81 287.355 374.712 287.811 374.712C288.251 374.712 288.641 374.806 288.981 374.994C289.321 375.182 289.587 375.46 289.779 375.828C289.975 376.192 290.073 376.63 290.073 377.142V381H289.113V377.238C289.113 376.706 288.975 376.292 288.699 375.996C288.423 375.7 288.043 375.552 287.559 375.552C287.215 375.552 286.911 375.628 286.647 375.78C286.383 375.932 286.177 376.146 286.029 376.422C285.885 376.694 285.813 377.006 285.813 377.358V381H284.853V374.856ZM294.455 383.064C294.007 383.064 293.593 382.994 293.213 382.854C292.833 382.714 292.517 382.516 292.265 382.26C292.013 382.004 291.851 381.708 291.779 381.372H292.739C292.867 381.648 293.085 381.858 293.393 382.002C293.705 382.15 294.049 382.224 294.425 382.224C294.817 382.224 295.159 382.144 295.451 381.984C295.747 381.828 295.975 381.608 296.135 381.324C296.295 381.04 296.375 380.712 296.375 380.34V380.088L296.393 379.47C296.153 379.81 295.847 380.074 295.475 380.262C295.107 380.45 294.701 380.544 294.257 380.544C293.737 380.544 293.267 380.42 292.847 380.172C292.427 379.92 292.097 379.574 291.857 379.134C291.617 378.69 291.497 378.19 291.497 377.634C291.497 377.078 291.617 376.578 291.857 376.134C292.097 375.69 292.427 375.342 292.847 375.09C293.267 374.838 293.737 374.712 294.257 374.712C294.709 374.712 295.123 374.812 295.499 375.012C295.875 375.208 296.183 375.484 296.423 375.84V374.856H297.353L297.335 380.34C297.335 380.872 297.215 381.344 296.975 381.756C296.735 382.172 296.397 382.494 295.961 382.722C295.525 382.95 295.023 383.064 294.455 383.064ZM292.505 377.634C292.505 378.022 292.587 378.374 292.751 378.69C292.919 379.006 293.151 379.254 293.447 379.434C293.743 379.614 294.075 379.704 294.443 379.704C294.807 379.704 295.135 379.614 295.427 379.434C295.723 379.254 295.957 379.006 296.129 378.69C296.301 378.374 296.387 378.022 296.387 377.634C296.387 377.242 296.301 376.888 296.129 376.572C295.957 376.256 295.723 376.008 295.427 375.828C295.135 375.644 294.807 375.552 294.443 375.552C294.075 375.552 293.743 375.644 293.447 375.828C293.151 376.008 292.919 376.256 292.751 376.572C292.587 376.888 292.505 377.242 292.505 377.634ZM299.683 372.6H300.679V381H299.683V372.6ZM303.017 374.856H303.941V375.852C304.149 375.484 304.425 375.202 304.769 375.006C305.117 374.81 305.519 374.712 305.975 374.712C306.415 374.712 306.805 374.806 307.145 374.994C307.485 375.182 307.751 375.46 307.943 375.828C308.139 376.192 308.237 376.63 308.237 377.142V381H307.277V377.238C307.277 376.706 307.139 376.292 306.863 375.996C306.587 375.7 306.207 375.552 305.723 375.552C305.379 375.552 305.075 375.628 304.811 375.78C304.547 375.932 304.341 376.146 304.193 376.422C304.049 376.694 303.977 377.006 303.977 377.358V381H303.017V374.856ZM314.822 379.98C314.59 380.352 314.28 380.64 313.892 380.844C313.508 381.044 313.07 381.144 312.578 381.144C312.006 381.144 311.496 381.01 311.048 380.742C310.604 380.47 310.256 380.09 310.004 379.602C309.756 379.114 309.632 378.556 309.632 377.928C309.632 377.3 309.756 376.742 310.004 376.254C310.256 375.766 310.604 375.388 311.048 375.12C311.496 374.848 312.006 374.712 312.578 374.712C313.07 374.712 313.508 374.814 313.892 375.018C314.28 375.218 314.59 375.504 314.822 375.876V372.6H315.782V381H314.822V379.98ZM310.64 377.928C310.64 378.388 310.728 378.796 310.904 379.152C311.08 379.504 311.326 379.78 311.642 379.98C311.958 380.176 312.32 380.274 312.728 380.274C313.104 380.274 313.442 380.192 313.742 380.028C314.046 379.86 314.29 379.626 314.474 379.326C314.662 379.022 314.778 378.67 314.822 378.27V377.586C314.778 377.186 314.662 376.836 314.474 376.536C314.29 376.232 314.046 375.998 313.742 375.834C313.442 375.666 313.104 375.582 312.728 375.582C312.32 375.582 311.958 375.682 311.642 375.882C311.326 376.078 311.08 376.354 310.904 376.71C310.728 377.062 310.64 377.468 310.64 377.928ZM320.29 381.144C319.714 381.144 319.196 381.006 318.736 380.73C318.276 380.454 317.916 380.072 317.656 379.584C317.4 379.092 317.272 378.536 317.272 377.916C317.272 377.312 317.402 376.766 317.662 376.278C317.926 375.79 318.288 375.408 318.748 375.132C319.208 374.852 319.722 374.712 320.29 374.712C320.87 374.712 321.378 374.85 321.814 375.126C322.254 375.402 322.592 375.784 322.828 376.272C323.068 376.76 323.188 377.312 323.188 377.928V378.162H318.25C318.29 378.582 318.404 378.954 318.592 379.278C318.78 379.602 319.026 379.854 319.33 380.034C319.634 380.214 319.974 380.304 320.35 380.304C320.754 380.304 321.11 380.23 321.418 380.082C321.726 379.934 321.95 379.732 322.09 379.476H323.05C322.978 379.732 322.826 379.988 322.594 380.244C322.366 380.5 322.054 380.714 321.658 380.886C321.266 381.058 320.81 381.144 320.29 381.144ZM322.192 377.37C322.112 376.81 321.908 376.368 321.58 376.044C321.256 375.72 320.83 375.558 320.302 375.558C319.946 375.558 319.626 375.632 319.342 375.78C319.058 375.924 318.824 376.134 318.64 376.41C318.456 376.682 318.334 377.002 318.274 377.37H322.192ZM326.576 378.606L324.938 381H323.846L326.072 377.832L323.954 374.856H325.07L326.624 377.088L328.148 374.856H329.24L327.134 377.862L329.354 381H328.238L326.576 378.606ZM334.471 380.232C335.059 380.232 335.591 380.086 336.067 379.794C336.543 379.498 336.915 379.09 337.183 378.57C337.455 378.046 337.591 377.456 337.591 376.8C337.591 376.14 337.457 375.55 337.189 375.03C336.925 374.506 336.555 374.098 336.079 373.806C335.607 373.514 335.071 373.368 334.471 373.368C333.879 373.368 333.345 373.516 332.869 373.812C332.397 374.104 332.025 374.51 331.753 375.03C331.485 375.55 331.351 376.14 331.351 376.8C331.351 377.46 331.485 378.05 331.753 378.57C332.025 379.09 332.397 379.498 332.869 379.794C333.345 380.086 333.879 380.232 334.471 380.232ZM330.319 376.8C330.319 375.984 330.501 375.246 330.865 374.586C331.229 373.922 331.727 373.402 332.359 373.026C332.991 372.646 333.695 372.456 334.471 372.456C335.243 372.456 335.945 372.646 336.577 373.026C337.213 373.402 337.713 373.922 338.077 374.586C338.441 375.246 338.623 375.984 338.623 376.8C338.623 377.616 338.441 378.356 338.077 379.02C337.713 379.68 337.213 380.2 336.577 380.58C335.945 380.956 335.243 381.144 334.471 381.144C333.695 381.144 332.991 380.956 332.359 380.58C331.727 380.2 331.229 379.68 330.865 379.02C330.501 378.356 330.319 377.616 330.319 376.8ZM345.393 381H344.469V380.004C344.261 380.372 343.983 380.654 343.635 380.85C343.291 381.046 342.891 381.144 342.435 381.144C341.995 381.144 341.605 381.05 341.265 380.862C340.925 380.674 340.657 380.398 340.461 380.034C340.269 379.666 340.173 379.226 340.173 378.714V374.856H341.133V378.618C341.133 379.15 341.271 379.564 341.547 379.86C341.823 380.156 342.203 380.304 342.687 380.304C343.031 380.304 343.335 380.228 343.599 380.076C343.863 379.924 344.067 379.712 344.211 379.44C344.359 379.164 344.433 378.85 344.433 378.498V374.856H345.393V381ZM349.463 381C349.171 381 348.905 380.938 348.665 380.814C348.429 380.686 348.243 380.512 348.107 380.292C347.971 380.068 347.903 379.82 347.903 379.548L347.897 375.708H346.817L346.823 374.856H347.489C347.641 374.856 347.763 374.808 347.855 374.712C347.951 374.616 347.999 374.494 347.999 374.346V373.356H348.863V374.856H350.345L350.339 375.708H348.857L348.863 379.488C348.863 379.676 348.925 379.834 349.049 379.962C349.177 380.086 349.335 380.148 349.523 380.148H350.339V381H349.463ZM355.799 380.232C356.387 380.232 356.919 380.086 357.395 379.794C357.871 379.498 358.243 379.09 358.511 378.57C358.783 378.046 358.919 377.456 358.919 376.8C358.919 376.14 358.785 375.55 358.517 375.03C358.253 374.506 357.883 374.098 357.407 373.806C356.935 373.514 356.399 373.368 355.799 373.368C355.207 373.368 354.673 373.516 354.197 373.812C353.725 374.104 353.353 374.51 353.081 375.03C352.813 375.55 352.679 376.14 352.679 376.8C352.679 377.46 352.813 378.05 353.081 378.57C353.353 379.09 353.725 379.498 354.197 379.794C354.673 380.086 355.207 380.232 355.799 380.232ZM351.647 376.8C351.647 375.984 351.829 375.246 352.193 374.586C352.557 373.922 353.055 373.402 353.687 373.026C354.319 372.646 355.023 372.456 355.799 372.456C356.571 372.456 357.273 372.646 357.905 373.026C358.541 373.402 359.041 373.922 359.405 374.586C359.769 375.246 359.951 375.984 359.951 376.8C359.951 377.616 359.769 378.356 359.405 379.02C359.041 379.68 358.541 380.2 357.905 380.58C357.273 380.956 356.571 381.144 355.799 381.144C355.023 381.144 354.319 380.956 353.687 380.58C353.055 380.2 352.557 379.68 352.193 379.02C351.829 378.356 351.647 377.616 351.647 376.8ZM362.161 375.708H361.081V374.856H362.161V374.052C362.161 373.768 362.227 373.516 362.359 373.296C362.491 373.076 362.675 372.906 362.911 372.786C363.147 372.662 363.417 372.6 363.721 372.6H364.705V373.452H363.781C363.585 373.452 363.425 373.514 363.301 373.638C363.181 373.758 363.121 373.916 363.121 374.112V374.856H364.645V375.708H363.121V381H362.161V375.708ZM369.911 372.6C370.403 372.6 370.841 372.694 371.225 372.882C371.613 373.07 371.915 373.33 372.131 373.662C372.347 373.994 372.455 374.37 372.455 374.79C372.455 375.242 372.333 375.628 372.089 375.948C371.849 376.268 371.519 376.49 371.099 376.614C371.579 376.742 371.961 376.992 372.245 377.364C372.529 377.732 372.671 378.168 372.671 378.672C372.671 379.12 372.557 379.522 372.329 379.878C372.101 380.23 371.783 380.506 371.375 380.706C370.967 380.902 370.503 381 369.983 381H366.515V372.6H369.911ZM369.983 380.1C370.307 380.1 370.595 380.04 370.847 379.92C371.099 379.796 371.293 379.624 371.429 379.404C371.569 379.18 371.639 378.922 371.639 378.63C371.639 378.342 371.569 378.084 371.429 377.856C371.289 377.628 371.093 377.452 370.841 377.328C370.593 377.2 370.307 377.136 369.983 377.136H367.493V380.1H369.983ZM369.911 376.26C370.211 376.26 370.475 376.204 370.703 376.092C370.931 375.98 371.107 375.82 371.231 375.612C371.359 375.404 371.423 375.162 371.423 374.886C371.423 374.61 371.359 374.368 371.231 374.16C371.107 373.952 370.929 373.79 370.697 373.674C370.469 373.558 370.207 373.5 369.911 373.5H367.493V376.26H369.911ZM377.099 381.144C376.515 381.144 375.983 381.006 375.503 380.73C375.027 380.45 374.651 380.066 374.375 379.578C374.103 379.086 373.967 378.536 373.967 377.928C373.967 377.32 374.103 376.772 374.375 376.284C374.651 375.792 375.029 375.408 375.509 375.132C375.989 374.852 376.521 374.712 377.105 374.712C377.689 374.712 378.219 374.852 378.695 375.132C379.171 375.408 379.545 375.79 379.817 376.278C380.093 376.766 380.231 377.316 380.231 377.928C380.231 378.54 380.093 379.09 379.817 379.578C379.545 380.066 379.171 380.45 378.695 380.73C378.219 381.006 377.687 381.144 377.099 381.144ZM374.975 377.928C374.975 378.388 375.067 378.796 375.251 379.152C375.439 379.504 375.695 379.778 376.019 379.974C376.347 380.17 376.711 380.268 377.111 380.268C377.511 380.268 377.871 380.17 378.191 379.974C378.511 379.778 378.763 379.504 378.947 379.152C379.131 378.796 379.223 378.388 379.223 377.928C379.223 377.468 379.131 377.06 378.947 376.704C378.763 376.348 378.509 376.072 378.185 375.876C377.865 375.68 377.505 375.582 377.105 375.582C376.705 375.582 376.343 375.68 376.019 375.876C375.695 376.072 375.439 376.348 375.251 376.704C375.067 377.06 374.975 377.468 374.975 377.928ZM386.854 381H385.93V380.004C385.722 380.372 385.444 380.654 385.096 380.85C384.752 381.046 384.352 381.144 383.896 381.144C383.456 381.144 383.066 381.05 382.726 380.862C382.386 380.674 382.118 380.398 381.922 380.034C381.73 379.666 381.634 379.226 381.634 378.714V374.856H382.594V378.618C382.594 379.15 382.732 379.564 383.008 379.86C383.284 380.156 383.664 380.304 384.148 380.304C384.492 380.304 384.796 380.228 385.06 380.076C385.324 379.924 385.528 379.712 385.672 379.44C385.82 379.164 385.894 378.85 385.894 378.498V374.856H386.854V381ZM388.95 374.856H389.874V375.852C390.082 375.484 390.358 375.202 390.702 375.006C391.05 374.81 391.452 374.712 391.908 374.712C392.348 374.712 392.738 374.806 393.078 374.994C393.418 375.182 393.684 375.46 393.876 375.828C394.072 376.192 394.17 376.63 394.17 377.142V381H393.21V377.238C393.21 376.706 393.072 376.292 392.796 375.996C392.52 375.7 392.14 375.552 391.656 375.552C391.312 375.552 391.008 375.628 390.744 375.78C390.48 375.932 390.274 376.146 390.126 376.422C389.982 376.694 389.91 377.006 389.91 377.358V381H388.95V374.856ZM400.755 379.98C400.523 380.352 400.213 380.64 399.825 380.844C399.441 381.044 399.003 381.144 398.511 381.144C397.939 381.144 397.429 381.01 396.981 380.742C396.537 380.47 396.189 380.09 395.937 379.602C395.689 379.114 395.565 378.556 395.565 377.928C395.565 377.3 395.689 376.742 395.937 376.254C396.189 375.766 396.537 375.388 396.981 375.12C397.429 374.848 397.939 374.712 398.511 374.712C399.003 374.712 399.441 374.814 399.825 375.018C400.213 375.218 400.523 375.504 400.755 375.876V372.6H401.715V381H400.755V379.98ZM396.573 377.928C396.573 378.388 396.661 378.796 396.837 379.152C397.013 379.504 397.259 379.78 397.575 379.98C397.891 380.176 398.253 380.274 398.661 380.274C399.037 380.274 399.375 380.192 399.675 380.028C399.979 379.86 400.223 379.626 400.407 379.326C400.595 379.022 400.711 378.67 400.755 378.27V377.586C400.711 377.186 400.595 376.836 400.407 376.536C400.223 376.232 399.979 375.998 399.675 375.834C399.375 375.666 399.037 375.582 398.661 375.582C398.253 375.582 397.891 375.682 397.575 375.882C397.259 376.078 397.013 376.354 396.837 376.71C396.661 377.062 396.573 377.468 396.573 377.928ZM405.756 381.144C405.292 381.144 404.872 381.07 404.496 380.922C404.124 380.774 403.826 380.568 403.602 380.304C403.382 380.036 403.264 379.734 403.248 379.398H404.226C404.242 379.582 404.318 379.748 404.454 379.896C404.59 380.04 404.77 380.154 404.994 380.238C405.218 380.322 405.468 380.364 405.744 380.364C406.024 380.364 406.27 380.318 406.482 380.226C406.698 380.134 406.864 380.006 406.98 379.842C407.1 379.678 407.16 379.492 407.16 379.284C407.16 379.06 407.096 378.872 406.968 378.72C406.844 378.564 406.67 378.466 406.446 378.426L404.964 378.156C404.492 378.068 404.124 377.878 403.86 377.586C403.596 377.29 403.464 376.916 403.464 376.464C403.464 376.14 403.556 375.846 403.74 375.582C403.928 375.314 404.19 375.102 404.526 374.946C404.862 374.79 405.246 374.712 405.678 374.712C406.106 374.712 406.492 374.782 406.836 374.922C407.18 375.062 407.454 375.256 407.658 375.504C407.862 375.752 407.972 376.028 407.988 376.332H407.01C406.998 376.172 406.932 376.028 406.812 375.9C406.696 375.772 406.54 375.672 406.344 375.6C406.148 375.528 405.928 375.492 405.684 375.492C405.436 375.492 405.216 375.534 405.024 375.618C404.832 375.702 404.682 375.818 404.574 375.966C404.47 376.11 404.418 376.274 404.418 376.458C404.418 376.666 404.476 376.838 404.592 376.974C404.708 377.11 404.878 377.198 405.102 377.238L406.62 377.508C406.932 377.564 407.2 377.674 407.424 377.838C407.652 378.002 407.824 378.206 407.94 378.45C408.06 378.694 408.12 378.96 408.12 379.248C408.12 379.608 408.016 379.932 407.808 380.22C407.604 380.508 407.322 380.734 406.962 380.898C406.602 381.062 406.2 381.144 405.756 381.144ZM409.979 372.6H415.787V373.53H410.951V376.302H415.379V377.226H410.951V380.07H415.907V381H409.979V372.6ZM419.658 378.606L418.02 381H416.928L419.154 377.832L417.036 374.856H418.152L419.706 377.088L421.23 374.856H422.322L420.216 377.862L422.436 381H421.32L419.658 378.606ZM426.164 381.144C425.584 381.144 425.06 381.004 424.592 380.724C424.124 380.444 423.756 380.06 423.488 379.572C423.224 379.08 423.092 378.532 423.092 377.928C423.092 377.324 423.224 376.778 423.488 376.29C423.756 375.798 424.124 375.412 424.592 375.132C425.06 374.852 425.584 374.712 426.164 374.712C426.908 374.712 427.532 374.902 428.036 375.282C428.54 375.658 428.862 376.204 429.002 376.92H428.042C427.914 376.48 427.678 376.148 427.334 375.924C426.994 375.696 426.604 375.582 426.164 375.582C425.768 375.582 425.412 375.682 425.096 375.882C424.784 376.082 424.54 376.36 424.364 376.716C424.188 377.072 424.1 377.476 424.1 377.928C424.1 378.376 424.188 378.778 424.364 379.134C424.54 379.49 424.784 379.77 425.096 379.974C425.412 380.174 425.768 380.274 426.164 380.274C426.604 380.274 426.994 380.162 427.334 379.938C427.678 379.71 427.914 379.376 428.042 378.936H429.002C428.91 379.4 428.73 379.798 428.462 380.13C428.194 380.462 427.862 380.714 427.466 380.886C427.07 381.058 426.636 381.144 426.164 381.144ZM433.06 381.144C432.484 381.144 431.966 381.006 431.506 380.73C431.046 380.454 430.686 380.072 430.426 379.584C430.17 379.092 430.042 378.536 430.042 377.916C430.042 377.312 430.172 376.766 430.432 376.278C430.696 375.79 431.058 375.408 431.518 375.132C431.978 374.852 432.492 374.712 433.06 374.712C433.64 374.712 434.148 374.85 434.584 375.126C435.024 375.402 435.362 375.784 435.598 376.272C435.838 376.76 435.958 377.312 435.958 377.928V378.162H431.02C431.06 378.582 431.174 378.954 431.362 379.278C431.55 379.602 431.796 379.854 432.1 380.034C432.404 380.214 432.744 380.304 433.12 380.304C433.524 380.304 433.88 380.23 434.188 380.082C434.496 379.934 434.72 379.732 434.86 379.476H435.82C435.748 379.732 435.596 379.988 435.364 380.244C435.136 380.5 434.824 380.714 434.428 380.886C434.036 381.058 433.58 381.144 433.06 381.144ZM434.962 377.37C434.882 376.81 434.678 376.368 434.35 376.044C434.026 375.72 433.6 375.558 433.072 375.558C432.716 375.558 432.396 375.632 432.112 375.78C431.828 375.924 431.594 376.134 431.41 376.41C431.226 376.682 431.104 377.002 431.044 377.37H434.962ZM438.472 374.856V375.942C438.704 375.554 439.016 375.252 439.408 375.036C439.8 374.82 440.25 374.712 440.758 374.712C441.33 374.712 441.838 374.848 442.282 375.12C442.73 375.388 443.078 375.766 443.326 376.254C443.578 376.742 443.704 377.3 443.704 377.928C443.704 378.556 443.578 379.114 443.326 379.602C443.078 380.09 442.73 380.47 442.282 380.742C441.838 381.01 441.33 381.144 440.758 381.144C440.258 381.144 439.814 381.04 439.426 380.832C439.038 380.624 438.728 380.332 438.496 379.956V382.932H437.536V374.856H438.472ZM438.496 377.928C438.496 378.388 438.584 378.796 438.76 379.152C438.94 379.504 439.19 379.78 439.51 379.98C439.83 380.176 440.196 380.274 440.608 380.274C441.016 380.274 441.378 380.176 441.694 379.98C442.01 379.78 442.256 379.504 442.432 379.152C442.608 378.796 442.696 378.388 442.696 377.928C442.696 377.468 442.608 377.062 442.432 376.71C442.256 376.354 442.01 376.078 441.694 375.882C441.378 375.682 441.016 375.582 440.608 375.582C440.196 375.582 439.83 375.682 439.51 375.882C439.19 376.078 438.94 376.354 438.76 376.71C438.584 377.062 438.496 377.468 438.496 377.928ZM447.256 381C446.964 381 446.698 380.938 446.458 380.814C446.222 380.686 446.036 380.512 445.9 380.292C445.764 380.068 445.696 379.82 445.696 379.548L445.69 375.708H444.61L444.616 374.856H445.282C445.434 374.856 445.556 374.808 445.648 374.712C445.744 374.616 445.792 374.494 445.792 374.346V373.356H446.656V374.856H448.138L448.132 375.708H446.65L446.656 379.488C446.656 379.676 446.718 379.834 446.842 379.962C446.97 380.086 447.128 380.148 447.316 380.148H448.132V381H447.256ZM449.806 374.856H450.766V381H449.806V374.856ZM450.85 372.6V373.74H449.722V372.6H450.85ZM455.474 381.144C454.89 381.144 454.358 381.006 453.878 380.73C453.402 380.45 453.026 380.066 452.75 379.578C452.478 379.086 452.342 378.536 452.342 377.928C452.342 377.32 452.478 376.772 452.75 376.284C453.026 375.792 453.404 375.408 453.884 375.132C454.364 374.852 454.896 374.712 455.48 374.712C456.064 374.712 456.594 374.852 457.07 375.132C457.546 375.408 457.92 375.79 458.192 376.278C458.468 376.766 458.606 377.316 458.606 377.928C458.606 378.54 458.468 379.09 458.192 379.578C457.92 380.066 457.546 380.45 457.07 380.73C456.594 381.006 456.062 381.144 455.474 381.144ZM453.35 377.928C453.35 378.388 453.442 378.796 453.626 379.152C453.814 379.504 454.07 379.778 454.394 379.974C454.722 380.17 455.086 380.268 455.486 380.268C455.886 380.268 456.246 380.17 456.566 379.974C456.886 379.778 457.138 379.504 457.322 379.152C457.506 378.796 457.598 378.388 457.598 377.928C457.598 377.468 457.506 377.06 457.322 376.704C457.138 376.348 456.884 376.072 456.56 375.876C456.24 375.68 455.88 375.582 455.48 375.582C455.08 375.582 454.718 375.68 454.394 375.876C454.07 376.072 453.814 376.348 453.626 376.704C453.442 377.06 453.35 377.468 453.35 377.928ZM460.189 374.856H461.113V375.852C461.321 375.484 461.597 375.202 461.941 375.006C462.289 374.81 462.691 374.712 463.147 374.712C463.587 374.712 463.977 374.806 464.317 374.994C464.657 375.182 464.923 375.46 465.115 375.828C465.311 376.192 465.409 376.63 465.409 377.142V381H464.449V377.238C464.449 376.706 464.311 376.292 464.035 375.996C463.759 375.7 463.379 375.552 462.895 375.552C462.551 375.552 462.247 375.628 461.983 375.78C461.719 375.932 461.513 376.146 461.365 376.422C461.221 376.694 461.149 377.006 461.149 377.358V381H460.189V374.856Z" fill="black"/>
<rect x="484" y="242" width="217" height="46" rx="12" fill="#D9CBFF"/>
<path d="M521.491 262.6H522.547L527.059 269.416V262.6H528.055V271H526.987L522.487 264.184V271H521.491V262.6ZM535.432 271H534.508V270.004C534.3 270.372 534.022 270.654 533.674 270.85C533.33 271.046 532.93 271.144 532.474 271.144C532.034 271.144 531.644 271.05 531.304 270.862C530.964 270.674 530.696 270.398 530.5 270.034C530.308 269.666 530.212 269.226 530.212 268.714V264.856H531.172V268.618C531.172 269.15 531.31 269.564 531.586 269.86C531.862 270.156 532.242 270.304 532.726 270.304C533.07 270.304 533.374 270.228 533.638 270.076C533.902 269.924 534.106 269.712 534.25 269.44C534.398 269.164 534.472 268.85 534.472 268.498V264.856H535.432V271ZM537.529 264.856H538.453V265.894C538.637 265.514 538.891 265.222 539.215 265.018C539.543 264.814 539.927 264.712 540.367 264.712C540.827 264.712 541.227 264.822 541.567 265.042C541.907 265.262 542.161 265.572 542.329 265.972C542.525 265.572 542.799 265.262 543.151 265.042C543.503 264.822 543.909 264.712 544.369 264.712C544.805 264.712 545.191 264.812 545.527 265.012C545.867 265.208 546.131 265.488 546.319 265.852C546.507 266.216 546.601 266.64 546.601 267.124V271H545.641V267.166C545.641 266.658 545.513 266.258 545.257 265.966C545.005 265.674 544.649 265.528 544.189 265.528C543.861 265.528 543.573 265.604 543.325 265.756C543.077 265.904 542.885 266.116 542.749 266.392C542.613 266.664 542.545 266.986 542.545 267.358V271H541.585V267.166C541.585 266.658 541.457 266.258 541.201 265.966C540.949 265.674 540.593 265.528 540.133 265.528C539.801 265.528 539.511 265.602 539.263 265.75C539.015 265.898 538.823 266.11 538.687 266.386C538.555 266.662 538.489 266.986 538.489 267.358V271H537.529V264.856ZM548.521 262.6H549.481V265.876C549.713 265.504 550.021 265.218 550.405 265.018C550.793 264.814 551.233 264.712 551.725 264.712C552.297 264.712 552.805 264.848 553.249 265.12C553.697 265.388 554.045 265.766 554.293 266.254C554.545 266.742 554.671 267.3 554.671 267.928C554.671 268.556 554.545 269.114 554.293 269.602C554.045 270.09 553.697 270.47 553.249 270.742C552.805 271.01 552.297 271.144 551.725 271.144C551.233 271.144 550.793 271.044 550.405 270.844C550.021 270.64 549.713 270.352 549.481 269.98V271H548.521V262.6ZM549.481 268.27C549.525 268.67 549.639 269.022 549.823 269.326C550.011 269.626 550.255 269.86 550.555 270.028C550.859 270.192 551.199 270.274 551.575 270.274C551.983 270.274 552.345 270.176 552.661 269.98C552.977 269.78 553.223 269.504 553.399 269.152C553.575 268.796 553.663 268.388 553.663 267.928C553.663 267.468 553.575 267.062 553.399 266.71C553.223 266.354 552.977 266.078 552.661 265.882C552.345 265.682 551.983 265.582 551.575 265.582C551.199 265.582 550.859 265.666 550.555 265.834C550.255 265.998 550.011 266.232 549.823 266.536C549.639 266.836 549.525 267.186 549.481 267.586V268.27ZM558.739 271.144C558.163 271.144 557.645 271.006 557.185 270.73C556.725 270.454 556.365 270.072 556.105 269.584C555.849 269.092 555.721 268.536 555.721 267.916C555.721 267.312 555.851 266.766 556.111 266.278C556.375 265.79 556.737 265.408 557.197 265.132C557.657 264.852 558.171 264.712 558.739 264.712C559.319 264.712 559.827 264.85 560.263 265.126C560.703 265.402 561.041 265.784 561.277 266.272C561.517 266.76 561.637 267.312 561.637 267.928V268.162H556.699C556.739 268.582 556.853 268.954 557.041 269.278C557.229 269.602 557.475 269.854 557.779 270.034C558.083 270.214 558.423 270.304 558.799 270.304C559.203 270.304 559.559 270.23 559.867 270.082C560.175 269.934 560.399 269.732 560.539 269.476H561.499C561.427 269.732 561.275 269.988 561.043 270.244C560.815 270.5 560.503 270.714 560.107 270.886C559.715 271.058 559.259 271.144 558.739 271.144ZM560.641 267.37C560.561 266.81 560.357 266.368 560.029 266.044C559.705 265.72 559.279 265.558 558.751 265.558C558.395 265.558 558.075 265.632 557.791 265.78C557.507 265.924 557.273 266.134 557.089 266.41C556.905 266.682 556.783 267.002 556.723 267.37H560.641ZM563.216 264.856H564.176V265.876C564.372 265.528 564.626 265.262 564.938 265.078C565.25 264.89 565.608 264.796 566.012 264.796H566.228V265.798H565.976C565.612 265.798 565.294 265.868 565.022 266.008C564.75 266.148 564.54 266.348 564.392 266.608C564.248 266.864 564.176 267.166 564.176 267.514V271H563.216V264.856ZM567.745 262.6H573.133V263.536H568.741V266.434H572.893V267.37H568.741V271H567.745V262.6ZM577.322 271.144C576.738 271.144 576.206 271.006 575.726 270.73C575.25 270.45 574.874 270.066 574.598 269.578C574.326 269.086 574.19 268.536 574.19 267.928C574.19 267.32 574.326 266.772 574.598 266.284C574.874 265.792 575.252 265.408 575.732 265.132C576.212 264.852 576.744 264.712 577.328 264.712C577.912 264.712 578.442 264.852 578.918 265.132C579.394 265.408 579.768 265.79 580.04 266.278C580.316 266.766 580.454 267.316 580.454 267.928C580.454 268.54 580.316 269.09 580.04 269.578C579.768 270.066 579.394 270.45 578.918 270.73C578.442 271.006 577.91 271.144 577.322 271.144ZM575.198 267.928C575.198 268.388 575.29 268.796 575.474 269.152C575.662 269.504 575.918 269.778 576.242 269.974C576.57 270.17 576.934 270.268 577.334 270.268C577.734 270.268 578.094 270.17 578.414 269.974C578.734 269.778 578.986 269.504 579.17 269.152C579.354 268.796 579.446 268.388 579.446 267.928C579.446 267.468 579.354 267.06 579.17 266.704C578.986 266.348 578.732 266.072 578.408 265.876C578.088 265.68 577.728 265.582 577.328 265.582C576.928 265.582 576.566 265.68 576.242 265.876C575.918 266.072 575.662 266.348 575.474 266.704C575.29 267.06 575.198 267.468 575.198 267.928ZM582.036 264.856H582.996V265.876C583.192 265.528 583.446 265.262 583.758 265.078C584.07 264.89 584.428 264.796 584.832 264.796H585.048V265.798H584.796C584.432 265.798 584.114 265.868 583.842 266.008C583.57 266.148 583.36 266.348 583.212 266.608C583.068 266.864 582.996 267.166 582.996 267.514V271H582.036V264.856ZM586.325 264.856H587.249V265.894C587.433 265.514 587.687 265.222 588.011 265.018C588.339 264.814 588.723 264.712 589.163 264.712C589.623 264.712 590.023 264.822 590.363 265.042C590.703 265.262 590.957 265.572 591.125 265.972C591.321 265.572 591.595 265.262 591.947 265.042C592.299 264.822 592.705 264.712 593.165 264.712C593.601 264.712 593.987 264.812 594.323 265.012C594.663 265.208 594.927 265.488 595.115 265.852C595.303 266.216 595.397 266.64 595.397 267.124V271H594.437V267.166C594.437 266.658 594.309 266.258 594.053 265.966C593.801 265.674 593.445 265.528 592.985 265.528C592.657 265.528 592.369 265.604 592.121 265.756C591.873 265.904 591.681 266.116 591.545 266.392C591.409 266.664 591.341 266.986 591.341 267.358V271H590.381V267.166C590.381 266.658 590.253 266.258 589.997 265.966C589.745 265.674 589.389 265.528 588.929 265.528C588.597 265.528 588.307 265.602 588.059 265.75C587.811 265.898 587.619 266.11 587.483 266.386C587.351 266.662 587.285 266.986 587.285 267.358V271H586.325V264.856ZM599.484 264.712C599.948 264.712 600.356 264.798 600.708 264.97C601.06 265.138 601.332 265.386 601.524 265.714C601.72 266.038 601.818 266.424 601.818 266.872V271H600.882V269.998C600.71 270.37 600.458 270.654 600.126 270.85C599.794 271.046 599.4 271.144 598.944 271.144C598.552 271.144 598.198 271.068 597.882 270.916C597.566 270.764 597.318 270.554 597.138 270.286C596.958 270.018 596.868 269.714 596.868 269.374C596.868 269.054 596.95 268.76 597.114 268.492C597.282 268.22 597.512 267.998 597.804 267.826C598.1 267.654 598.432 267.548 598.8 267.508L600.438 267.328C600.574 267.312 600.68 267.256 600.756 267.16C600.832 267.064 600.87 266.924 600.87 266.74C600.87 266.496 600.812 266.282 600.696 266.098C600.58 265.914 600.416 265.772 600.204 265.672C599.996 265.568 599.754 265.516 599.478 265.516C599.202 265.516 598.954 265.564 598.734 265.66C598.514 265.752 598.336 265.878 598.2 266.038C598.068 266.194 597.988 266.364 597.96 266.548H597C597.048 266.2 597.184 265.888 597.408 265.612C597.636 265.332 597.93 265.112 598.29 264.952C598.65 264.792 599.048 264.712 599.484 264.712ZM597.864 269.32C597.864 269.528 597.918 269.712 598.026 269.872C598.138 270.032 598.292 270.158 598.488 270.25C598.684 270.338 598.908 270.382 599.16 270.382C599.504 270.382 599.804 270.312 600.06 270.172C600.32 270.032 600.52 269.836 600.66 269.584C600.8 269.328 600.87 269.034 600.87 268.702V268L598.932 268.216C598.612 268.252 598.354 268.372 598.158 268.576C597.962 268.78 597.864 269.028 597.864 269.32ZM605.713 271C605.421 271 605.155 270.938 604.915 270.814C604.679 270.686 604.493 270.512 604.357 270.292C604.221 270.068 604.153 269.82 604.153 269.548L604.147 265.708H603.067L603.073 264.856H603.739C603.891 264.856 604.013 264.808 604.105 264.712C604.201 264.616 604.249 264.494 604.249 264.346V263.356H605.113V264.856H606.595L606.589 265.708H605.107L605.113 269.488C605.113 269.676 605.175 269.834 605.299 269.962C605.427 270.086 605.585 270.148 605.773 270.148H606.589V271H605.713ZM608.503 262.6H614.311V263.53H609.475V266.302H613.903V267.226H609.475V270.07H614.431V271H608.503V262.6ZM618.182 268.606L616.544 271H615.452L617.678 267.832L615.56 264.856H616.676L618.23 267.088L619.754 264.856H620.846L618.74 267.862L620.96 271H619.844L618.182 268.606ZM624.688 271.144C624.108 271.144 623.584 271.004 623.116 270.724C622.648 270.444 622.28 270.06 622.012 269.572C621.748 269.08 621.616 268.532 621.616 267.928C621.616 267.324 621.748 266.778 622.012 266.29C622.28 265.798 622.648 265.412 623.116 265.132C623.584 264.852 624.108 264.712 624.688 264.712C625.432 264.712 626.056 264.902 626.56 265.282C627.064 265.658 627.386 266.204 627.526 266.92H626.566C626.438 266.48 626.202 266.148 625.858 265.924C625.518 265.696 625.128 265.582 624.688 265.582C624.292 265.582 623.936 265.682 623.62 265.882C623.308 266.082 623.064 266.36 622.888 266.716C622.712 267.072 622.624 267.476 622.624 267.928C622.624 268.376 622.712 268.778 622.888 269.134C623.064 269.49 623.308 269.77 623.62 269.974C623.936 270.174 624.292 270.274 624.688 270.274C625.128 270.274 625.518 270.162 625.858 269.938C626.202 269.71 626.438 269.376 626.566 268.936H627.526C627.434 269.4 627.254 269.798 626.986 270.13C626.718 270.462 626.386 270.714 625.99 270.886C625.594 271.058 625.16 271.144 624.688 271.144ZM631.583 271.144C631.007 271.144 630.489 271.006 630.029 270.73C629.569 270.454 629.209 270.072 628.949 269.584C628.693 269.092 628.565 268.536 628.565 267.916C628.565 267.312 628.695 266.766 628.955 266.278C629.219 265.79 629.581 265.408 630.041 265.132C630.501 264.852 631.015 264.712 631.583 264.712C632.163 264.712 632.671 264.85 633.107 265.126C633.547 265.402 633.885 265.784 634.121 266.272C634.361 266.76 634.481 267.312 634.481 267.928V268.162H629.543C629.583 268.582 629.697 268.954 629.885 269.278C630.073 269.602 630.319 269.854 630.623 270.034C630.927 270.214 631.267 270.304 631.643 270.304C632.047 270.304 632.403 270.23 632.711 270.082C633.019 269.934 633.243 269.732 633.383 269.476H634.343C634.271 269.732 634.119 269.988 633.887 270.244C633.659 270.5 633.347 270.714 632.951 270.886C632.559 271.058 632.103 271.144 631.583 271.144ZM633.485 267.37C633.405 266.81 633.201 266.368 632.873 266.044C632.549 265.72 632.123 265.558 631.595 265.558C631.239 265.558 630.919 265.632 630.635 265.78C630.351 265.924 630.117 266.134 629.933 266.41C629.749 266.682 629.627 267.002 629.567 267.37H633.485ZM636.996 264.856V265.942C637.228 265.554 637.54 265.252 637.932 265.036C638.324 264.82 638.774 264.712 639.282 264.712C639.854 264.712 640.362 264.848 640.806 265.12C641.254 265.388 641.602 265.766 641.85 266.254C642.102 266.742 642.228 267.3 642.228 267.928C642.228 268.556 642.102 269.114 641.85 269.602C641.602 270.09 641.254 270.47 640.806 270.742C640.362 271.01 639.854 271.144 639.282 271.144C638.782 271.144 638.338 271.04 637.95 270.832C637.562 270.624 637.252 270.332 637.02 269.956V272.932H636.06V264.856H636.996ZM637.02 267.928C637.02 268.388 637.108 268.796 637.284 269.152C637.464 269.504 637.714 269.78 638.034 269.98C638.354 270.176 638.72 270.274 639.132 270.274C639.54 270.274 639.902 270.176 640.218 269.98C640.534 269.78 640.78 269.504 640.956 269.152C641.132 268.796 641.22 268.388 641.22 267.928C641.22 267.468 641.132 267.062 640.956 266.71C640.78 266.354 640.534 266.078 640.218 265.882C639.902 265.682 639.54 265.582 639.132 265.582C638.72 265.582 638.354 265.682 638.034 265.882C637.714 266.078 637.464 266.354 637.284 266.71C637.108 267.062 637.02 267.468 637.02 267.928ZM645.78 271C645.488 271 645.222 270.938 644.982 270.814C644.746 270.686 644.56 270.512 644.424 270.292C644.288 270.068 644.22 269.82 644.22 269.548L644.214 265.708H643.134L643.14 264.856H643.806C643.958 264.856 644.08 264.808 644.172 264.712C644.268 264.616 644.316 264.494 644.316 264.346V263.356H645.18V264.856H646.662L646.656 265.708H645.174L645.18 269.488C645.18 269.676 645.242 269.834 645.366 269.962C645.494 270.086 645.652 270.148 645.84 270.148H646.656V271H645.78ZM648.329 264.856H649.289V271H648.329V264.856ZM649.373 262.6V263.74H648.245V262.6H649.373ZM653.998 271.144C653.414 271.144 652.882 271.006 652.402 270.73C651.926 270.45 651.55 270.066 651.274 269.578C651.002 269.086 650.866 268.536 650.866 267.928C650.866 267.32 651.002 266.772 651.274 266.284C651.55 265.792 651.928 265.408 652.408 265.132C652.888 264.852 653.42 264.712 654.004 264.712C654.588 264.712 655.118 264.852 655.594 265.132C656.07 265.408 656.444 265.79 656.716 266.278C656.992 266.766 657.13 267.316 657.13 267.928C657.13 268.54 656.992 269.09 656.716 269.578C656.444 270.066 656.07 270.45 655.594 270.73C655.118 271.006 654.586 271.144 653.998 271.144ZM651.874 267.928C651.874 268.388 651.966 268.796 652.15 269.152C652.338 269.504 652.594 269.778 652.918 269.974C653.246 270.17 653.61 270.268 654.01 270.268C654.41 270.268 654.77 270.17 655.09 269.974C655.41 269.778 655.662 269.504 655.846 269.152C656.03 268.796 656.122 268.388 656.122 267.928C656.122 267.468 656.03 267.06 655.846 266.704C655.662 266.348 655.408 266.072 655.084 265.876C654.764 265.68 654.404 265.582 654.004 265.582C653.604 265.582 653.242 265.68 652.918 265.876C652.594 266.072 652.338 266.348 652.15 266.704C651.966 267.06 651.874 267.468 651.874 267.928ZM658.712 264.856H659.636V265.852C659.844 265.484 660.12 265.202 660.464 265.006C660.812 264.81 661.214 264.712 661.67 264.712C662.11 264.712 662.5 264.806 662.84 264.994C663.18 265.182 663.446 265.46 663.638 265.828C663.834 266.192 663.932 266.63 663.932 267.142V271H662.972V267.238C662.972 266.706 662.834 266.292 662.558 265.996C662.282 265.7 661.902 265.552 661.418 265.552C661.074 265.552 660.77 265.628 660.506 265.78C660.242 265.932 660.036 266.146 659.888 266.422C659.744 266.694 659.672 267.006 659.672 267.358V271H658.712V264.856Z" fill="black"/>
<rect x="25" y="243" width="222" height="46" rx="12" fill="#D9CBFF"/>
<rect x="256" y="243" width="219" height="46" rx="12" fill="#D9CBFF"/>
<path d="M282.849 263.6H283.845V272H282.849V263.6ZM286.183 265.856H287.107V266.852C287.315 266.484 287.591 266.202 287.935 266.006C288.283 265.81 288.685 265.712 289.141 265.712C289.581 265.712 289.971 265.806 290.311 265.994C290.651 266.182 290.917 266.46 291.109 266.828C291.305 267.192 291.403 267.63 291.403 268.142V272H290.443V268.238C290.443 267.706 290.305 267.292 290.029 266.996C289.753 266.7 289.373 266.552 288.889 266.552C288.545 266.552 288.241 266.628 287.977 266.78C287.713 266.932 287.507 267.146 287.359 267.422C287.215 267.694 287.143 268.006 287.143 268.358V272H286.183V265.856ZM297.988 270.98C297.756 271.352 297.446 271.64 297.058 271.844C296.674 272.044 296.236 272.144 295.744 272.144C295.172 272.144 294.662 272.01 294.214 271.742C293.77 271.47 293.422 271.09 293.17 270.602C292.922 270.114 292.798 269.556 292.798 268.928C292.798 268.3 292.922 267.742 293.17 267.254C293.422 266.766 293.77 266.388 294.214 266.12C294.662 265.848 295.172 265.712 295.744 265.712C296.236 265.712 296.674 265.814 297.058 266.018C297.446 266.218 297.756 266.504 297.988 266.876V263.6H298.948V272H297.988V270.98ZM293.806 268.928C293.806 269.388 293.894 269.796 294.07 270.152C294.246 270.504 294.492 270.78 294.808 270.98C295.124 271.176 295.486 271.274 295.894 271.274C296.27 271.274 296.608 271.192 296.908 271.028C297.212 270.86 297.456 270.626 297.64 270.326C297.828 270.022 297.944 269.67 297.988 269.27V268.586C297.944 268.186 297.828 267.836 297.64 267.536C297.456 267.232 297.212 266.998 296.908 266.834C296.608 266.666 296.27 266.582 295.894 266.582C295.486 266.582 295.124 266.682 294.808 266.882C294.492 267.078 294.246 267.354 294.07 267.71C293.894 268.062 293.806 268.468 293.806 268.928ZM303.456 272.144C302.88 272.144 302.362 272.006 301.902 271.73C301.442 271.454 301.082 271.072 300.822 270.584C300.566 270.092 300.438 269.536 300.438 268.916C300.438 268.312 300.568 267.766 300.828 267.278C301.092 266.79 301.454 266.408 301.914 266.132C302.374 265.852 302.888 265.712 303.456 265.712C304.036 265.712 304.544 265.85 304.98 266.126C305.42 266.402 305.758 266.784 305.994 267.272C306.234 267.76 306.354 268.312 306.354 268.928V269.162H301.416C301.456 269.582 301.57 269.954 301.758 270.278C301.946 270.602 302.192 270.854 302.496 271.034C302.8 271.214 303.14 271.304 303.516 271.304C303.92 271.304 304.276 271.23 304.584 271.082C304.892 270.934 305.116 270.732 305.256 270.476H306.216C306.144 270.732 305.992 270.988 305.76 271.244C305.532 271.5 305.22 271.714 304.824 271.886C304.432 272.058 303.976 272.144 303.456 272.144ZM305.358 268.37C305.278 267.81 305.074 267.368 304.746 267.044C304.422 266.72 303.996 266.558 303.468 266.558C303.112 266.558 302.792 266.632 302.508 266.78C302.224 266.924 301.99 267.134 301.806 267.41C301.622 267.682 301.5 268.002 301.44 268.37H305.358ZM309.742 269.606L308.104 272H307.012L309.238 268.832L307.12 265.856H308.236L309.79 268.088L311.314 265.856H312.406L310.3 268.862L312.52 272H311.404L309.742 269.606ZM317.637 271.232C318.225 271.232 318.757 271.086 319.233 270.794C319.709 270.498 320.081 270.09 320.349 269.57C320.621 269.046 320.757 268.456 320.757 267.8C320.757 267.14 320.623 266.55 320.355 266.03C320.091 265.506 319.721 265.098 319.245 264.806C318.773 264.514 318.237 264.368 317.637 264.368C317.045 264.368 316.511 264.516 316.035 264.812C315.563 265.104 315.191 265.51 314.919 266.03C314.651 266.55 314.517 267.14 314.517 267.8C314.517 268.46 314.651 269.05 314.919 269.57C315.191 270.09 315.563 270.498 316.035 270.794C316.511 271.086 317.045 271.232 317.637 271.232ZM313.485 267.8C313.485 266.984 313.667 266.246 314.031 265.586C314.395 264.922 314.893 264.402 315.525 264.026C316.157 263.646 316.861 263.456 317.637 263.456C318.409 263.456 319.111 263.646 319.743 264.026C320.379 264.402 320.879 264.922 321.243 265.586C321.607 266.246 321.789 266.984 321.789 267.8C321.789 268.616 321.607 269.356 321.243 270.02C320.879 270.68 320.379 271.2 319.743 271.58C319.111 271.956 318.409 272.144 317.637 272.144C316.861 272.144 316.157 271.956 315.525 271.58C314.893 271.2 314.395 270.68 314.031 270.02C313.667 269.356 313.485 268.616 313.485 267.8ZM328.559 272H327.635V271.004C327.427 271.372 327.149 271.654 326.801 271.85C326.457 272.046 326.057 272.144 325.601 272.144C325.161 272.144 324.771 272.05 324.431 271.862C324.091 271.674 323.823 271.398 323.627 271.034C323.435 270.666 323.339 270.226 323.339 269.714V265.856H324.299V269.618C324.299 270.15 324.437 270.564 324.713 270.86C324.989 271.156 325.369 271.304 325.853 271.304C326.197 271.304 326.501 271.228 326.765 271.076C327.029 270.924 327.233 270.712 327.377 270.44C327.525 270.164 327.599 269.85 327.599 269.498V265.856H328.559V272ZM332.629 272C332.337 272 332.071 271.938 331.831 271.814C331.595 271.686 331.409 271.512 331.273 271.292C331.137 271.068 331.069 270.82 331.069 270.548L331.063 266.708H329.983L329.989 265.856H330.655C330.807 265.856 330.929 265.808 331.021 265.712C331.117 265.616 331.165 265.494 331.165 265.346V264.356H332.029V265.856H333.511L333.505 266.708H332.023L332.029 270.488C332.029 270.676 332.091 270.834 332.215 270.962C332.343 271.086 332.501 271.148 332.689 271.148H333.505V272H332.629ZM338.965 271.232C339.553 271.232 340.085 271.086 340.561 270.794C341.037 270.498 341.409 270.09 341.677 269.57C341.949 269.046 342.085 268.456 342.085 267.8C342.085 267.14 341.951 266.55 341.683 266.03C341.419 265.506 341.049 265.098 340.573 264.806C340.101 264.514 339.565 264.368 338.965 264.368C338.373 264.368 337.839 264.516 337.363 264.812C336.891 265.104 336.519 265.51 336.247 266.03C335.979 266.55 335.845 267.14 335.845 267.8C335.845 268.46 335.979 269.05 336.247 269.57C336.519 270.09 336.891 270.498 337.363 270.794C337.839 271.086 338.373 271.232 338.965 271.232ZM334.813 267.8C334.813 266.984 334.995 266.246 335.359 265.586C335.723 264.922 336.221 264.402 336.853 264.026C337.485 263.646 338.189 263.456 338.965 263.456C339.737 263.456 340.439 263.646 341.071 264.026C341.707 264.402 342.207 264.922 342.571 265.586C342.935 266.246 343.117 266.984 343.117 267.8C343.117 268.616 342.935 269.356 342.571 270.02C342.207 270.68 341.707 271.2 341.071 271.58C340.439 271.956 339.737 272.144 338.965 272.144C338.189 272.144 337.485 271.956 336.853 271.58C336.221 271.2 335.723 270.68 335.359 270.02C334.995 269.356 334.813 268.616 334.813 267.8ZM345.327 266.708H344.247V265.856H345.327V265.052C345.327 264.768 345.393 264.516 345.525 264.296C345.657 264.076 345.841 263.906 346.077 263.786C346.313 263.662 346.583 263.6 346.887 263.6H347.871V264.452H346.947C346.751 264.452 346.591 264.514 346.467 264.638C346.347 264.758 346.287 264.916 346.287 265.112V265.856H347.811V266.708H346.287V272H345.327V266.708ZM353.077 263.6C353.569 263.6 354.007 263.694 354.391 263.882C354.779 264.07 355.081 264.33 355.297 264.662C355.513 264.994 355.621 265.37 355.621 265.79C355.621 266.242 355.499 266.628 355.255 266.948C355.015 267.268 354.685 267.49 354.265 267.614C354.745 267.742 355.127 267.992 355.411 268.364C355.695 268.732 355.837 269.168 355.837 269.672C355.837 270.12 355.723 270.522 355.495 270.878C355.267 271.23 354.949 271.506 354.541 271.706C354.133 271.902 353.669 272 353.149 272H349.681V263.6H353.077ZM353.149 271.1C353.473 271.1 353.761 271.04 354.013 270.92C354.265 270.796 354.459 270.624 354.595 270.404C354.735 270.18 354.805 269.922 354.805 269.63C354.805 269.342 354.735 269.084 354.595 268.856C354.455 268.628 354.259 268.452 354.007 268.328C353.759 268.2 353.473 268.136 353.149 268.136H350.659V271.1H353.149ZM353.077 267.26C353.377 267.26 353.641 267.204 353.869 267.092C354.097 266.98 354.273 266.82 354.397 266.612C354.525 266.404 354.589 266.162 354.589 265.886C354.589 265.61 354.525 265.368 354.397 265.16C354.273 264.952 354.095 264.79 353.863 264.674C353.635 264.558 353.373 264.5 353.077 264.5H350.659V267.26H353.077ZM360.265 272.144C359.681 272.144 359.149 272.006 358.669 271.73C358.193 271.45 357.817 271.066 357.541 270.578C357.269 270.086 357.133 269.536 357.133 268.928C357.133 268.32 357.269 267.772 357.541 267.284C357.817 266.792 358.195 266.408 358.675 266.132C359.155 265.852 359.687 265.712 360.271 265.712C360.855 265.712 361.385 265.852 361.861 266.132C362.337 266.408 362.711 266.79 362.983 267.278C363.259 267.766 363.397 268.316 363.397 268.928C363.397 269.54 363.259 270.09 362.983 270.578C362.711 271.066 362.337 271.45 361.861 271.73C361.385 272.006 360.853 272.144 360.265 272.144ZM358.141 268.928C358.141 269.388 358.233 269.796 358.417 270.152C358.605 270.504 358.861 270.778 359.185 270.974C359.513 271.17 359.877 271.268 360.277 271.268C360.677 271.268 361.037 271.17 361.357 270.974C361.677 270.778 361.929 270.504 362.113 270.152C362.297 269.796 362.389 269.388 362.389 268.928C362.389 268.468 362.297 268.06 362.113 267.704C361.929 267.348 361.675 267.072 361.351 266.876C361.031 266.68 360.671 266.582 360.271 266.582C359.871 266.582 359.509 266.68 359.185 266.876C358.861 267.072 358.605 267.348 358.417 267.704C358.233 268.06 358.141 268.468 358.141 268.928ZM370.02 272H369.096V271.004C368.888 271.372 368.61 271.654 368.262 271.85C367.918 272.046 367.518 272.144 367.062 272.144C366.622 272.144 366.232 272.05 365.892 271.862C365.552 271.674 365.284 271.398 365.088 271.034C364.896 270.666 364.8 270.226 364.8 269.714V265.856H365.76V269.618C365.76 270.15 365.898 270.564 366.174 270.86C366.45 271.156 366.83 271.304 367.314 271.304C367.658 271.304 367.962 271.228 368.226 271.076C368.49 270.924 368.694 270.712 368.838 270.44C368.986 270.164 369.06 269.85 369.06 269.498V265.856H370.02V272ZM372.116 265.856H373.04V266.852C373.248 266.484 373.524 266.202 373.868 266.006C374.216 265.81 374.618 265.712 375.074 265.712C375.514 265.712 375.904 265.806 376.244 265.994C376.584 266.182 376.85 266.46 377.042 266.828C377.238 267.192 377.336 267.63 377.336 268.142V272H376.376V268.238C376.376 267.706 376.238 267.292 375.962 266.996C375.686 266.7 375.306 266.552 374.822 266.552C374.478 266.552 374.174 266.628 373.91 266.78C373.646 266.932 373.44 267.146 373.292 267.422C373.148 267.694 373.076 268.006 373.076 268.358V272H372.116V265.856ZM383.921 270.98C383.689 271.352 383.379 271.64 382.991 271.844C382.607 272.044 382.169 272.144 381.677 272.144C381.105 272.144 380.595 272.01 380.147 271.742C379.703 271.47 379.355 271.09 379.103 270.602C378.855 270.114 378.731 269.556 378.731 268.928C378.731 268.3 378.855 267.742 379.103 267.254C379.355 266.766 379.703 266.388 380.147 266.12C380.595 265.848 381.105 265.712 381.677 265.712C382.169 265.712 382.607 265.814 382.991 266.018C383.379 266.218 383.689 266.504 383.921 266.876V263.6H384.881V272H383.921V270.98ZM379.739 268.928C379.739 269.388 379.827 269.796 380.003 270.152C380.179 270.504 380.425 270.78 380.741 270.98C381.057 271.176 381.419 271.274 381.827 271.274C382.203 271.274 382.541 271.192 382.841 271.028C383.145 270.86 383.389 270.626 383.573 270.326C383.761 270.022 383.877 269.67 383.921 269.27V268.586C383.877 268.186 383.761 267.836 383.573 267.536C383.389 267.232 383.145 266.998 382.841 266.834C382.541 266.666 382.203 266.582 381.827 266.582C381.419 266.582 381.057 266.682 380.741 266.882C380.425 267.078 380.179 267.354 380.003 267.71C379.827 268.062 379.739 268.468 379.739 268.928ZM388.922 272.144C388.458 272.144 388.038 272.07 387.662 271.922C387.29 271.774 386.992 271.568 386.768 271.304C386.548 271.036 386.43 270.734 386.414 270.398H387.392C387.408 270.582 387.484 270.748 387.62 270.896C387.756 271.04 387.936 271.154 388.16 271.238C388.384 271.322 388.634 271.364 388.91 271.364C389.19 271.364 389.436 271.318 389.648 271.226C389.864 271.134 390.03 271.006 390.146 270.842C390.266 270.678 390.326 270.492 390.326 270.284C390.326 270.06 390.262 269.872 390.134 269.72C390.01 269.564 389.836 269.466 389.612 269.426L388.13 269.156C387.658 269.068 387.29 268.878 387.026 268.586C386.762 268.29 386.63 267.916 386.63 267.464C386.63 267.14 386.722 266.846 386.906 266.582C387.094 266.314 387.356 266.102 387.692 265.946C388.028 265.79 388.412 265.712 388.844 265.712C389.272 265.712 389.658 265.782 390.002 265.922C390.346 266.062 390.62 266.256 390.824 266.504C391.028 266.752 391.138 267.028 391.154 267.332H390.176C390.164 267.172 390.098 267.028 389.978 266.9C389.862 266.772 389.706 266.672 389.51 266.6C389.314 266.528 389.094 266.492 388.85 266.492C388.602 266.492 388.382 266.534 388.19 266.618C387.998 266.702 387.848 266.818 387.74 266.966C387.636 267.11 387.584 267.274 387.584 267.458C387.584 267.666 387.642 267.838 387.758 267.974C387.874 268.11 388.044 268.198 388.268 268.238L389.786 268.508C390.098 268.564 390.366 268.674 390.59 268.838C390.818 269.002 390.99 269.206 391.106 269.45C391.226 269.694 391.286 269.96 391.286 270.248C391.286 270.608 391.182 270.932 390.974 271.22C390.77 271.508 390.488 271.734 390.128 271.898C389.768 272.062 389.366 272.144 388.922 272.144ZM393.145 263.6H398.953V264.53H394.117V267.302H398.545V268.226H394.117V271.07H399.073V272H393.145V263.6ZM402.825 269.606L401.187 272H400.095L402.321 268.832L400.203 265.856H401.319L402.873 268.088L404.397 265.856H405.489L403.383 268.862L405.603 272H404.487L402.825 269.606ZM409.33 272.144C408.75 272.144 408.226 272.004 407.758 271.724C407.29 271.444 406.922 271.06 406.654 270.572C406.39 270.08 406.258 269.532 406.258 268.928C406.258 268.324 406.39 267.778 406.654 267.29C406.922 266.798 407.29 266.412 407.758 266.132C408.226 265.852 408.75 265.712 409.33 265.712C410.074 265.712 410.698 265.902 411.202 266.282C411.706 266.658 412.028 267.204 412.168 267.92H411.208C411.08 267.48 410.844 267.148 410.5 266.924C410.16 266.696 409.77 266.582 409.33 266.582C408.934 266.582 408.578 266.682 408.262 266.882C407.95 267.082 407.706 267.36 407.53 267.716C407.354 268.072 407.266 268.476 407.266 268.928C407.266 269.376 407.354 269.778 407.53 270.134C407.706 270.49 407.95 270.77 408.262 270.974C408.578 271.174 408.934 271.274 409.33 271.274C409.77 271.274 410.16 271.162 410.5 270.938C410.844 270.71 411.08 270.376 411.208 269.936H412.168C412.076 270.4 411.896 270.798 411.628 271.13C411.36 271.462 411.028 271.714 410.632 271.886C410.236 272.058 409.802 272.144 409.33 272.144ZM416.226 272.144C415.65 272.144 415.132 272.006 414.672 271.73C414.212 271.454 413.852 271.072 413.592 270.584C413.336 270.092 413.208 269.536 413.208 268.916C413.208 268.312 413.338 267.766 413.598 267.278C413.862 266.79 414.224 266.408 414.684 266.132C415.144 265.852 415.658 265.712 416.226 265.712C416.806 265.712 417.314 265.85 417.75 266.126C418.19 266.402 418.528 266.784 418.764 267.272C419.004 267.76 419.124 268.312 419.124 268.928V269.162H414.186C414.226 269.582 414.34 269.954 414.528 270.278C414.716 270.602 414.962 270.854 415.266 271.034C415.57 271.214 415.91 271.304 416.286 271.304C416.69 271.304 417.046 271.23 417.354 271.082C417.662 270.934 417.886 270.732 418.026 270.476H418.986C418.914 270.732 418.762 270.988 418.53 271.244C418.302 271.5 417.99 271.714 417.594 271.886C417.202 272.058 416.746 272.144 416.226 272.144ZM418.128 268.37C418.048 267.81 417.844 267.368 417.516 267.044C417.192 266.72 416.766 266.558 416.238 266.558C415.882 266.558 415.562 266.632 415.278 266.78C414.994 266.924 414.76 267.134 414.576 267.41C414.392 267.682 414.27 268.002 414.21 268.37H418.128ZM421.638 265.856V266.942C421.87 266.554 422.182 266.252 422.574 266.036C422.966 265.82 423.416 265.712 423.924 265.712C424.496 265.712 425.004 265.848 425.448 266.12C425.896 266.388 426.244 266.766 426.492 267.254C426.744 267.742 426.87 268.3 426.87 268.928C426.87 269.556 426.744 270.114 426.492 270.602C426.244 271.09 425.896 271.47 425.448 271.742C425.004 272.01 424.496 272.144 423.924 272.144C423.424 272.144 422.98 272.04 422.592 271.832C422.204 271.624 421.894 271.332 421.662 270.956V273.932H420.702V265.856H421.638ZM421.662 268.928C421.662 269.388 421.75 269.796 421.926 270.152C422.106 270.504 422.356 270.78 422.676 270.98C422.996 271.176 423.362 271.274 423.774 271.274C424.182 271.274 424.544 271.176 424.86 270.98C425.176 270.78 425.422 270.504 425.598 270.152C425.774 269.796 425.862 269.388 425.862 268.928C425.862 268.468 425.774 268.062 425.598 267.71C425.422 267.354 425.176 267.078 424.86 266.882C424.544 266.682 424.182 266.582 423.774 266.582C423.362 266.582 422.996 266.682 422.676 266.882C422.356 267.078 422.106 267.354 421.926 267.71C421.75 268.062 421.662 268.468 421.662 268.928ZM430.422 272C430.13 272 429.864 271.938 429.624 271.814C429.388 271.686 429.202 271.512 429.066 271.292C428.93 271.068 428.862 270.82 428.862 270.548L428.856 266.708H427.776L427.782 265.856H428.448C428.6 265.856 428.722 265.808 428.814 265.712C428.91 265.616 428.958 265.494 428.958 265.346V264.356H429.822V265.856H431.304L431.298 266.708H429.816L429.822 270.488C429.822 270.676 429.884 270.834 430.008 270.962C430.136 271.086 430.294 271.148 430.482 271.148H431.298V272H430.422ZM432.972 265.856H433.932V272H432.972V265.856ZM434.016 263.6V264.74H432.888V263.6H434.016ZM438.64 272.144C438.056 272.144 437.524 272.006 437.044 271.73C436.568 271.45 436.192 271.066 435.916 270.578C435.644 270.086 435.508 269.536 435.508 268.928C435.508 268.32 435.644 267.772 435.916 267.284C436.192 266.792 436.57 266.408 437.05 266.132C437.53 265.852 438.062 265.712 438.646 265.712C439.23 265.712 439.76 265.852 440.236 266.132C440.712 266.408 441.086 266.79 441.358 267.278C441.634 267.766 441.772 268.316 441.772 268.928C441.772 269.54 441.634 270.09 441.358 270.578C441.086 271.066 440.712 271.45 440.236 271.73C439.76 272.006 439.228 272.144 438.64 272.144ZM436.516 268.928C436.516 269.388 436.608 269.796 436.792 270.152C436.98 270.504 437.236 270.778 437.56 270.974C437.888 271.17 438.252 271.268 438.652 271.268C439.052 271.268 439.412 271.17 439.732 270.974C440.052 270.778 440.304 270.504 440.488 270.152C440.672 269.796 440.764 269.388 440.764 268.928C440.764 268.468 440.672 268.06 440.488 267.704C440.304 267.348 440.05 267.072 439.726 266.876C439.406 266.68 439.046 266.582 438.646 266.582C438.246 266.582 437.884 266.68 437.56 266.876C437.236 267.072 436.98 267.348 436.792 267.704C436.608 268.06 436.516 268.468 436.516 268.928ZM443.355 265.856H444.279V266.852C444.487 266.484 444.763 266.202 445.107 266.006C445.455 265.81 445.857 265.712 446.313 265.712C446.753 265.712 447.143 265.806 447.483 265.994C447.823 266.182 448.089 266.46 448.281 266.828C448.477 267.192 448.575 267.63 448.575 268.142V272H447.615V268.238C447.615 267.706 447.477 267.292 447.201 266.996C446.925 266.7 446.545 266.552 446.061 266.552C445.717 266.552 445.413 266.628 445.149 266.78C444.885 266.932 444.679 267.146 444.531 267.422C444.387 267.694 444.315 268.006 444.315 268.358V272H443.355V265.856Z" fill="black"/>
<path d="M81.3603 263.6H82.4343L85.6623 272H84.6063L83.7963 269.768H80.0823L79.3263 272H78.2463L81.3603 263.6ZM83.4723 268.904L82.0383 264.998L81.8943 264.488L81.7503 264.998L80.3883 268.904H83.4723ZM86.9719 265.856H87.9319V266.876C88.1279 266.528 88.3819 266.262 88.6939 266.078C89.0059 265.89 89.3639 265.796 89.7679 265.796H89.9839V266.798H89.7319C89.3679 266.798 89.0499 266.868 88.7779 267.008C88.5059 267.148 88.2959 267.348 88.1479 267.608C88.0039 267.864 87.9319 268.166 87.9319 268.514V272H86.9719V265.856ZM91.2609 265.856H92.2209V272H91.2609V265.856ZM92.3049 263.6V264.74H91.1769V263.6H92.3049ZM96.2935 272C96.0015 272 95.7355 271.938 95.4955 271.814C95.2595 271.686 95.0735 271.512 94.9375 271.292C94.8015 271.068 94.7335 270.82 94.7335 270.548L94.7275 266.708H93.6475L93.6535 265.856H94.3195C94.4715 265.856 94.5935 265.808 94.6855 265.712C94.7815 265.616 94.8295 265.494 94.8295 265.346V264.356H95.6935V265.856H97.1755L97.1695 266.708H95.6875L95.6935 270.488C95.6935 270.676 95.7555 270.834 95.8795 270.962C96.0075 271.086 96.1655 271.148 96.3535 271.148H97.1695V272H96.2935ZM98.843 263.6H99.767V266.852C99.975 266.484 100.251 266.202 100.595 266.006C100.943 265.81 101.345 265.712 101.801 265.712C102.241 265.712 102.631 265.806 102.971 265.994C103.311 266.182 103.577 266.46 103.769 266.828C103.965 267.192 104.063 267.63 104.063 268.142V272H103.103V268.238C103.103 267.706 102.965 267.292 102.689 266.996C102.413 266.7 102.033 266.552 101.549 266.552C101.205 266.552 100.901 266.628 100.637 266.78C100.373 266.932 100.167 267.146 100.019 267.422C99.875 267.694 99.803 268.006 99.803 268.358V272H98.843V263.6ZM105.98 265.856H106.904V266.894C107.088 266.514 107.342 266.222 107.666 266.018C107.994 265.814 108.378 265.712 108.818 265.712C109.278 265.712 109.678 265.822 110.018 266.042C110.358 266.262 110.612 266.572 110.78 266.972C110.976 266.572 111.25 266.262 111.602 266.042C111.954 265.822 112.36 265.712 112.82 265.712C113.256 265.712 113.642 265.812 113.978 266.012C114.318 266.208 114.582 266.488 114.77 266.852C114.958 267.216 115.052 267.64 115.052 268.124V272H114.092V268.166C114.092 267.658 113.964 267.258 113.708 266.966C113.456 266.674 113.1 266.528 112.64 266.528C112.312 266.528 112.024 266.604 111.776 266.756C111.528 266.904 111.336 267.116 111.2 267.392C111.064 267.664 110.996 267.986 110.996 268.358V272H110.036V268.166C110.036 267.658 109.908 267.258 109.652 266.966C109.4 266.674 109.044 266.528 108.584 266.528C108.252 266.528 107.962 266.602 107.714 266.75C107.466 266.898 107.274 267.11 107.138 267.386C107.006 267.662 106.94 267.986 106.94 268.358V272H105.98V265.856ZM119.468 272.144C118.892 272.144 118.374 272.006 117.914 271.73C117.454 271.454 117.094 271.072 116.834 270.584C116.578 270.092 116.45 269.536 116.45 268.916C116.45 268.312 116.58 267.766 116.84 267.278C117.104 266.79 117.466 266.408 117.926 266.132C118.386 265.852 118.9 265.712 119.468 265.712C120.048 265.712 120.556 265.85 120.992 266.126C121.432 266.402 121.77 266.784 122.006 267.272C122.246 267.76 122.366 268.312 122.366 268.928V269.162H117.428C117.468 269.582 117.582 269.954 117.77 270.278C117.958 270.602 118.204 270.854 118.508 271.034C118.812 271.214 119.152 271.304 119.528 271.304C119.932 271.304 120.288 271.23 120.596 271.082C120.904 270.934 121.128 270.732 121.268 270.476H122.228C122.156 270.732 122.004 270.988 121.772 271.244C121.544 271.5 121.232 271.714 120.836 271.886C120.444 272.058 119.988 272.144 119.468 272.144ZM121.37 268.37C121.29 267.81 121.086 267.368 120.758 267.044C120.434 266.72 120.008 266.558 119.48 266.558C119.124 266.558 118.804 266.632 118.52 266.78C118.236 266.924 118.002 267.134 117.818 267.41C117.634 267.682 117.512 268.002 117.452 268.37H121.37ZM125.919 272C125.627 272 125.361 271.938 125.121 271.814C124.885 271.686 124.699 271.512 124.563 271.292C124.427 271.068 124.359 270.82 124.359 270.548L124.353 266.708H123.273L123.279 265.856H123.945C124.097 265.856 124.219 265.808 124.311 265.712C124.407 265.616 124.455 265.494 124.455 265.346V264.356H125.319V265.856H126.801L126.795 266.708H125.313L125.319 270.488C125.319 270.676 125.381 270.834 125.505 270.962C125.633 271.086 125.791 271.148 125.979 271.148H126.795V272H125.919ZM128.468 265.856H129.428V272H128.468V265.856ZM129.512 263.6V264.74H128.384V263.6H129.512ZM134.077 272.144C133.497 272.144 132.973 272.004 132.505 271.724C132.037 271.444 131.669 271.06 131.401 270.572C131.137 270.08 131.005 269.532 131.005 268.928C131.005 268.324 131.137 267.778 131.401 267.29C131.669 266.798 132.037 266.412 132.505 266.132C132.973 265.852 133.497 265.712 134.077 265.712C134.821 265.712 135.445 265.902 135.949 266.282C136.453 266.658 136.775 267.204 136.915 267.92H135.955C135.827 267.48 135.591 267.148 135.247 266.924C134.907 266.696 134.517 266.582 134.077 266.582C133.681 266.582 133.325 266.682 133.009 266.882C132.697 267.082 132.453 267.36 132.277 267.716C132.101 268.072 132.013 268.476 132.013 268.928C132.013 269.376 132.101 269.778 132.277 270.134C132.453 270.49 132.697 270.77 133.009 270.974C133.325 271.174 133.681 271.274 134.077 271.274C134.517 271.274 134.907 271.162 135.247 270.938C135.591 270.71 135.827 270.376 135.955 269.936H136.915C136.823 270.4 136.643 270.798 136.375 271.13C136.107 271.462 135.775 271.714 135.379 271.886C134.983 272.058 134.549 272.144 134.077 272.144ZM138.716 263.6H144.524V264.53H139.688V267.302H144.116V268.226H139.688V271.07H144.644V272H138.716V263.6ZM148.395 269.606L146.757 272H145.665L147.891 268.832L145.773 265.856H146.889L148.443 268.088L149.967 265.856H151.059L148.953 268.862L151.173 272H150.057L148.395 269.606ZM154.901 272.144C154.321 272.144 153.797 272.004 153.329 271.724C152.861 271.444 152.493 271.06 152.225 270.572C151.961 270.08 151.829 269.532 151.829 268.928C151.829 268.324 151.961 267.778 152.225 267.29C152.493 266.798 152.861 266.412 153.329 266.132C153.797 265.852 154.321 265.712 154.901 265.712C155.645 265.712 156.269 265.902 156.773 266.282C157.277 266.658 157.599 267.204 157.739 267.92H156.779C156.651 267.48 156.415 267.148 156.071 266.924C155.731 266.696 155.341 266.582 154.901 266.582C154.505 266.582 154.149 266.682 153.833 266.882C153.521 267.082 153.277 267.36 153.101 267.716C152.925 268.072 152.837 268.476 152.837 268.928C152.837 269.376 152.925 269.778 153.101 270.134C153.277 270.49 153.521 270.77 153.833 270.974C154.149 271.174 154.505 271.274 154.901 271.274C155.341 271.274 155.731 271.162 156.071 270.938C156.415 270.71 156.651 270.376 156.779 269.936H157.739C157.647 270.4 157.467 270.798 157.199 271.13C156.931 271.462 156.599 271.714 156.203 271.886C155.807 272.058 155.373 272.144 154.901 272.144ZM161.796 272.144C161.22 272.144 160.702 272.006 160.242 271.73C159.782 271.454 159.422 271.072 159.162 270.584C158.906 270.092 158.778 269.536 158.778 268.916C158.778 268.312 158.908 267.766 159.168 267.278C159.432 266.79 159.794 266.408 160.254 266.132C160.714 265.852 161.228 265.712 161.796 265.712C162.376 265.712 162.884 265.85 163.32 266.126C163.76 266.402 164.098 266.784 164.334 267.272C164.574 267.76 164.694 268.312 164.694 268.928V269.162H159.756C159.796 269.582 159.91 269.954 160.098 270.278C160.286 270.602 160.532 270.854 160.836 271.034C161.14 271.214 161.48 271.304 161.856 271.304C162.26 271.304 162.616 271.23 162.924 271.082C163.232 270.934 163.456 270.732 163.596 270.476H164.556C164.484 270.732 164.332 270.988 164.1 271.244C163.872 271.5 163.56 271.714 163.164 271.886C162.772 272.058 162.316 272.144 161.796 272.144ZM163.698 268.37C163.618 267.81 163.414 267.368 163.086 267.044C162.762 266.72 162.336 266.558 161.808 266.558C161.452 266.558 161.132 266.632 160.848 266.78C160.564 266.924 160.33 267.134 160.146 267.41C159.962 267.682 159.84 268.002 159.78 268.37H163.698ZM167.209 265.856V266.942C167.441 266.554 167.753 266.252 168.145 266.036C168.537 265.82 168.987 265.712 169.495 265.712C170.067 265.712 170.575 265.848 171.019 266.12C171.467 266.388 171.815 266.766 172.063 267.254C172.315 267.742 172.441 268.3 172.441 268.928C172.441 269.556 172.315 270.114 172.063 270.602C171.815 271.09 171.467 271.47 171.019 271.742C170.575 272.01 170.067 272.144 169.495 272.144C168.995 272.144 168.551 272.04 168.163 271.832C167.775 271.624 167.465 271.332 167.233 270.956V273.932H166.273V265.856H167.209ZM167.233 268.928C167.233 269.388 167.321 269.796 167.497 270.152C167.677 270.504 167.927 270.78 168.247 270.98C168.567 271.176 168.933 271.274 169.345 271.274C169.753 271.274 170.115 271.176 170.431 270.98C170.747 270.78 170.993 270.504 171.169 270.152C171.345 269.796 171.433 269.388 171.433 268.928C171.433 268.468 171.345 268.062 171.169 267.71C170.993 267.354 170.747 267.078 170.431 266.882C170.115 266.682 169.753 266.582 169.345 266.582C168.933 266.582 168.567 266.682 168.247 266.882C167.927 267.078 167.677 267.354 167.497 267.71C167.321 268.062 167.233 268.468 167.233 268.928ZM175.993 272C175.701 272 175.435 271.938 175.195 271.814C174.959 271.686 174.773 271.512 174.637 271.292C174.501 271.068 174.433 270.82 174.433 270.548L174.427 266.708H173.347L173.353 265.856H174.019C174.171 265.856 174.293 265.808 174.385 265.712C174.481 265.616 174.529 265.494 174.529 265.346V264.356H175.393V265.856H176.875L176.869 266.708H175.387L175.393 270.488C175.393 270.676 175.455 270.834 175.579 270.962C175.707 271.086 175.865 271.148 176.053 271.148H176.869V272H175.993ZM178.542 265.856H179.502V272H178.542V265.856ZM179.586 263.6V264.74H178.458V263.6H179.586ZM184.211 272.144C183.627 272.144 183.095 272.006 182.615 271.73C182.139 271.45 181.763 271.066 181.487 270.578C181.215 270.086 181.079 269.536 181.079 268.928C181.079 268.32 181.215 267.772 181.487 267.284C181.763 266.792 182.141 266.408 182.621 266.132C183.101 265.852 183.633 265.712 184.217 265.712C184.801 265.712 185.331 265.852 185.807 266.132C186.283 266.408 186.657 266.79 186.929 267.278C187.205 267.766 187.343 268.316 187.343 268.928C187.343 269.54 187.205 270.09 186.929 270.578C186.657 271.066 186.283 271.45 185.807 271.73C185.331 272.006 184.799 272.144 184.211 272.144ZM182.087 268.928C182.087 269.388 182.179 269.796 182.363 270.152C182.551 270.504 182.807 270.778 183.131 270.974C183.459 271.17 183.823 271.268 184.223 271.268C184.623 271.268 184.983 271.17 185.303 270.974C185.623 270.778 185.875 270.504 186.059 270.152C186.243 269.796 186.335 269.388 186.335 268.928C186.335 268.468 186.243 268.06 186.059 267.704C185.875 267.348 185.621 267.072 185.297 266.876C184.977 266.68 184.617 266.582 184.217 266.582C183.817 266.582 183.455 266.68 183.131 266.876C182.807 267.072 182.551 267.348 182.363 267.704C182.179 268.06 182.087 268.468 182.087 268.928ZM188.925 265.856H189.849V266.852C190.057 266.484 190.333 266.202 190.677 266.006C191.025 265.81 191.427 265.712 191.883 265.712C192.323 265.712 192.713 265.806 193.053 265.994C193.393 266.182 193.659 266.46 193.851 266.828C194.047 267.192 194.145 267.63 194.145 268.142V272H193.185V268.238C193.185 267.706 193.047 267.292 192.771 266.996C192.495 266.7 192.115 266.552 191.631 266.552C191.287 266.552 190.983 266.628 190.719 266.78C190.455 266.932 190.249 267.146 190.101 267.422C189.957 267.694 189.885 268.006 189.885 268.358V272H188.925V265.856Z" fill="black"/>
<defs>
<radialGradient id="paint0_radial_1_303" cx="0" cy="0" r="1" gradientUnits="userSpaceOnUse" gradientTransform="translate(254.449 132.19) scale(192.038 292.389)">
<stop stop-color="#EB4857"/>
<stop offset="0.5" stop-color="#C611E0"/>
<stop offset="1" stop-color="#7F52FF"/>
</radialGradient>
</defs>
</svg>
