<svg width="706" height="444" viewBox="0 0 706 444" fill="none" xmlns="http://www.w3.org/2000/svg">
<rect width="706" height="444" fill="white"/>
<rect x="255" y="52" width="197" height="79" rx="12" fill="url(#paint0_radial_1_303)"/>
<path d="M322.919 86.6H329.399V87.53H326.663V95H325.667V87.53H322.919V86.6ZM330.845 86.6H331.769V89.852C331.977 89.484 332.253 89.202 332.597 89.006C332.945 88.81 333.347 88.712 333.803 88.712C334.243 88.712 334.633 88.806 334.973 88.994C335.313 89.182 335.579 89.46 335.771 89.828C335.967 90.192 336.065 90.63 336.065 91.142V95H335.105V91.238C335.105 90.706 334.967 90.292 334.691 89.996C334.415 89.7 334.035 89.552 333.551 89.552C333.207 89.552 332.903 89.628 332.639 89.78C332.375 89.932 332.169 90.146 332.021 90.422C331.877 90.694 331.805 91.006 331.805 91.358V95H330.845V86.6ZM337.982 88.856H338.942V89.876C339.138 89.528 339.392 89.262 339.704 89.078C340.016 88.89 340.374 88.796 340.778 88.796H340.994V89.798H340.742C340.378 89.798 340.06 89.868 339.788 90.008C339.516 90.148 339.306 90.348 339.158 90.608C339.014 90.864 338.942 91.166 338.942 91.514V95H337.982V88.856ZM344.881 95.144C344.297 95.144 343.765 95.006 343.285 94.73C342.809 94.45 342.433 94.066 342.157 93.578C341.885 93.086 341.749 92.536 341.749 91.928C341.749 91.32 341.885 90.772 342.157 90.284C342.433 89.792 342.811 89.408 343.291 89.132C343.771 88.852 344.303 88.712 344.887 88.712C345.471 88.712 346.001 88.852 346.477 89.132C346.953 89.408 347.327 89.79 347.599 90.278C347.875 90.766 348.013 91.316 348.013 91.928C348.013 92.54 347.875 93.09 347.599 93.578C347.327 94.066 346.953 94.45 346.477 94.73C346.001 95.006 345.469 95.144 344.881 95.144ZM342.757 91.928C342.757 92.388 342.849 92.796 343.033 93.152C343.221 93.504 343.477 93.778 343.801 93.974C344.129 94.17 344.493 94.268 344.893 94.268C345.293 94.268 345.653 94.17 345.973 93.974C346.293 93.778 346.545 93.504 346.729 93.152C346.913 92.796 347.005 92.388 347.005 91.928C347.005 91.468 346.913 91.06 346.729 90.704C346.545 90.348 346.291 90.072 345.967 89.876C345.647 89.68 345.287 89.582 344.887 89.582C344.487 89.582 344.125 89.68 343.801 89.876C343.477 90.072 343.221 90.348 343.033 90.704C342.849 91.06 342.757 91.468 342.757 91.928ZM348.716 88.856H349.748L351.194 93.272L351.332 93.794L351.458 93.272L352.976 88.856H353.894L355.442 93.272L355.58 93.794L355.706 93.272L357.116 88.856H358.124L356.018 95H355.07L353.552 90.38L353.438 89.954L353.336 90.368L351.758 95H350.822L348.716 88.856ZM361.511 88.712C361.975 88.712 362.383 88.798 362.735 88.97C363.087 89.138 363.359 89.386 363.551 89.714C363.747 90.038 363.845 90.424 363.845 90.872V95H362.909V93.998C362.737 94.37 362.485 94.654 362.153 94.85C361.821 95.046 361.427 95.144 360.971 95.144C360.579 95.144 360.225 95.068 359.909 94.916C359.593 94.764 359.345 94.554 359.165 94.286C358.985 94.018 358.895 93.714 358.895 93.374C358.895 93.054 358.977 92.76 359.141 92.492C359.309 92.22 359.539 91.998 359.831 91.826C360.127 91.654 360.459 91.548 360.827 91.508L362.465 91.328C362.601 91.312 362.707 91.256 362.783 91.16C362.859 91.064 362.897 90.924 362.897 90.74C362.897 90.496 362.839 90.282 362.723 90.098C362.607 89.914 362.443 89.772 362.231 89.672C362.023 89.568 361.781 89.516 361.505 89.516C361.229 89.516 360.981 89.564 360.761 89.66C360.541 89.752 360.363 89.878 360.227 90.038C360.095 90.194 360.015 90.364 359.987 90.548H359.027C359.075 90.2 359.211 89.888 359.435 89.612C359.663 89.332 359.957 89.112 360.317 88.952C360.677 88.792 361.075 88.712 361.511 88.712ZM359.891 93.32C359.891 93.528 359.945 93.712 360.053 93.872C360.165 94.032 360.319 94.158 360.515 94.25C360.711 94.338 360.935 94.382 361.187 94.382C361.531 94.382 361.831 94.312 362.087 94.172C362.347 94.032 362.547 93.836 362.687 93.584C362.827 93.328 362.897 93.034 362.897 92.702V92L360.959 92.216C360.639 92.252 360.381 92.372 360.185 92.576C359.989 92.78 359.891 93.028 359.891 93.32ZM365.767 86.6H366.727V89.876C366.959 89.504 367.267 89.218 367.651 89.018C368.039 88.814 368.479 88.712 368.971 88.712C369.543 88.712 370.051 88.848 370.495 89.12C370.943 89.388 371.291 89.766 371.539 90.254C371.791 90.742 371.917 91.3 371.917 91.928C371.917 92.556 371.791 93.114 371.539 93.602C371.291 94.09 370.943 94.47 370.495 94.742C370.051 95.01 369.543 95.144 368.971 95.144C368.479 95.144 368.039 95.044 367.651 94.844C367.267 94.64 366.959 94.352 366.727 93.98V95H365.767V86.6ZM366.727 92.27C366.771 92.67 366.885 93.022 367.069 93.326C367.257 93.626 367.501 93.86 367.801 94.028C368.105 94.192 368.445 94.274 368.821 94.274C369.229 94.274 369.591 94.176 369.907 93.98C370.223 93.78 370.469 93.504 370.645 93.152C370.821 92.796 370.909 92.388 370.909 91.928C370.909 91.468 370.821 91.062 370.645 90.71C370.469 90.354 370.223 90.078 369.907 89.882C369.591 89.682 369.229 89.582 368.821 89.582C368.445 89.582 368.105 89.666 367.801 89.834C367.501 89.998 367.257 90.232 367.069 90.536C366.885 90.836 366.771 91.186 366.727 91.586V92.27ZM373.489 86.6H374.449V95H373.489V86.6ZM379.044 95.144C378.468 95.144 377.95 95.006 377.49 94.73C377.03 94.454 376.67 94.072 376.41 93.584C376.154 93.092 376.026 92.536 376.026 91.916C376.026 91.312 376.156 90.766 376.416 90.278C376.68 89.79 377.042 89.408 377.502 89.132C377.962 88.852 378.476 88.712 379.044 88.712C379.624 88.712 380.132 88.85 380.568 89.126C381.008 89.402 381.346 89.784 381.582 90.272C381.822 90.76 381.942 91.312 381.942 91.928V92.162H377.004C377.044 92.582 377.158 92.954 377.346 93.278C377.534 93.602 377.78 93.854 378.084 94.034C378.388 94.214 378.728 94.304 379.104 94.304C379.508 94.304 379.864 94.23 380.172 94.082C380.48 93.934 380.704 93.732 380.844 93.476H381.804C381.732 93.732 381.58 93.988 381.348 94.244C381.12 94.5 380.808 94.714 380.412 94.886C380.02 95.058 379.564 95.144 379.044 95.144ZM380.946 91.37C380.866 90.81 380.662 90.368 380.334 90.044C380.01 89.72 379.584 89.558 379.056 89.558C378.7 89.558 378.38 89.632 378.096 89.78C377.812 89.924 377.578 90.134 377.394 90.41C377.21 90.682 377.088 91.002 377.028 91.37H380.946Z" fill="white"/>
<path d="M542 201L541.65 201L542 201ZM528 187L528 187.35L528 187ZM374 187L374 186.65L374 187ZM360 137L362.021 140.5L357.979 140.5L360 137ZM541.65 245L541.65 201L542.35 201L542.35 245L541.65 245ZM528 187.35L374 187.35L374 186.65L528 186.65L528 187.35ZM359.65 173L359.65 140.15L360.35 140.15L360.35 173L359.65 173ZM374 187.35C366.075 187.35 359.65 180.925 359.65 173L360.35 173C360.35 180.539 366.461 186.65 374 186.65L374 187.35ZM541.65 201C541.65 193.461 535.539 187.35 528 187.35L528 186.65C535.925 186.65 542.35 193.075 542.35 201L541.65 201Z" fill="black"/>
<path d="M541.5 296L543.52 299.5L539.479 299.5L541.5 296ZM541.15 349L541.15 299.15L541.85 299.15L541.85 349L541.15 349Z" fill="black"/>
<rect x="458" y="346" width="167" height="46" rx="12" fill="#D9CBFF"/>
<path d="M492.893 370.484H491.087V374H490.091V365.6H493.487C494.023 365.6 494.493 365.7 494.897 365.9C495.305 366.1 495.619 366.384 495.839 366.752C496.063 367.12 496.175 367.548 496.175 368.036C496.175 368.468 496.085 368.856 495.905 369.2C495.729 369.54 495.477 369.818 495.149 370.034C494.821 370.246 494.433 370.384 493.985 370.448L496.199 374H495.035L492.893 370.484ZM493.487 369.554C493.815 369.554 494.101 369.492 494.345 369.368C494.593 369.244 494.783 369.068 494.915 368.84C495.051 368.612 495.119 368.344 495.119 368.036C495.119 367.732 495.051 367.466 494.915 367.238C494.783 367.01 494.593 366.836 494.345 366.716C494.101 366.592 493.815 366.53 493.487 366.53H491.087V369.554H493.487ZM502.883 374H501.959V373.004C501.751 373.372 501.473 373.654 501.125 373.85C500.781 374.046 500.381 374.144 499.925 374.144C499.485 374.144 499.095 374.05 498.755 373.862C498.415 373.674 498.147 373.398 497.951 373.034C497.759 372.666 497.663 372.226 497.663 371.714V367.856H498.623V371.618C498.623 372.15 498.761 372.564 499.037 372.86C499.313 373.156 499.693 373.304 500.177 373.304C500.521 373.304 500.825 373.228 501.089 373.076C501.353 372.924 501.557 372.712 501.701 372.44C501.849 372.164 501.923 371.85 501.923 371.498V367.856H502.883V374ZM504.98 367.856H505.904V368.852C506.112 368.484 506.388 368.202 506.732 368.006C507.08 367.81 507.482 367.712 507.938 367.712C508.378 367.712 508.768 367.806 509.108 367.994C509.448 368.182 509.714 368.46 509.906 368.828C510.102 369.192 510.2 369.63 510.2 370.142V374H509.24V370.238C509.24 369.706 509.102 369.292 508.826 368.996C508.55 368.7 508.17 368.552 507.686 368.552C507.342 368.552 507.038 368.628 506.774 368.78C506.51 368.932 506.304 369.146 506.156 369.422C506.012 369.694 505.94 370.006 505.94 370.358V374H504.98V367.856ZM514.09 374C513.798 374 513.532 373.938 513.292 373.814C513.056 373.686 512.87 373.512 512.734 373.292C512.598 373.068 512.53 372.82 512.53 372.548L512.524 368.708H511.444L511.45 367.856H512.116C512.268 367.856 512.39 367.808 512.482 367.712C512.578 367.616 512.626 367.494 512.626 367.346V366.356H513.49V367.856H514.972L514.966 368.708H513.484L513.49 372.488C513.49 372.676 513.552 372.834 513.676 372.962C513.804 373.086 513.962 373.148 514.15 373.148H514.966V374H514.09ZM516.64 367.856H517.6V374H516.64V367.856ZM517.684 365.6V366.74H516.556V365.6H517.684ZM519.698 367.856H520.622V368.894C520.806 368.514 521.06 368.222 521.384 368.018C521.712 367.814 522.096 367.712 522.536 367.712C522.996 367.712 523.396 367.822 523.736 368.042C524.076 368.262 524.33 368.572 524.498 368.972C524.694 368.572 524.968 368.262 525.32 368.042C525.672 367.822 526.078 367.712 526.538 367.712C526.974 367.712 527.36 367.812 527.696 368.012C528.036 368.208 528.3 368.488 528.488 368.852C528.676 369.216 528.77 369.64 528.77 370.124V374H527.81V370.166C527.81 369.658 527.682 369.258 527.426 368.966C527.174 368.674 526.818 368.528 526.358 368.528C526.03 368.528 525.742 368.604 525.494 368.756C525.246 368.904 525.054 369.116 524.918 369.392C524.782 369.664 524.714 369.986 524.714 370.358V374H523.754V370.166C523.754 369.658 523.626 369.258 523.37 368.966C523.118 368.674 522.762 368.528 522.302 368.528C521.97 368.528 521.68 368.602 521.432 368.75C521.184 368.898 520.992 369.11 520.856 369.386C520.724 369.662 520.658 369.986 520.658 370.358V374H519.698V367.856ZM533.187 374.144C532.611 374.144 532.093 374.006 531.633 373.73C531.173 373.454 530.813 373.072 530.553 372.584C530.297 372.092 530.169 371.536 530.169 370.916C530.169 370.312 530.299 369.766 530.559 369.278C530.823 368.79 531.185 368.408 531.645 368.132C532.105 367.852 532.619 367.712 533.187 367.712C533.767 367.712 534.275 367.85 534.711 368.126C535.151 368.402 535.489 368.784 535.725 369.272C535.965 369.76 536.085 370.312 536.085 370.928V371.162H531.147C531.187 371.582 531.301 371.954 531.489 372.278C531.677 372.602 531.923 372.854 532.227 373.034C532.531 373.214 532.871 373.304 533.247 373.304C533.651 373.304 534.007 373.23 534.315 373.082C534.623 372.934 534.847 372.732 534.987 372.476H535.947C535.875 372.732 535.723 372.988 535.491 373.244C535.263 373.5 534.951 373.714 534.555 373.886C534.163 374.058 533.707 374.144 533.187 374.144ZM535.089 370.37C535.009 369.81 534.805 369.368 534.477 369.044C534.153 368.72 533.727 368.558 533.199 368.558C532.843 368.558 532.523 368.632 532.239 368.78C531.955 368.924 531.721 369.134 531.537 369.41C531.353 369.682 531.231 370.002 531.171 370.37H535.089ZM537.903 365.6H543.711V366.53H538.875V369.302H543.303V370.226H538.875V373.07H543.831V374H537.903V365.6ZM547.582 371.606L545.944 374H544.852L547.078 370.832L544.96 367.856H546.076L547.63 370.088L549.154 367.856H550.246L548.14 370.862L550.36 374H549.244L547.582 371.606ZM554.088 374.144C553.508 374.144 552.984 374.004 552.516 373.724C552.048 373.444 551.68 373.06 551.412 372.572C551.148 372.08 551.016 371.532 551.016 370.928C551.016 370.324 551.148 369.778 551.412 369.29C551.68 368.798 552.048 368.412 552.516 368.132C552.984 367.852 553.508 367.712 554.088 367.712C554.832 367.712 555.456 367.902 555.96 368.282C556.464 368.658 556.786 369.204 556.926 369.92H555.966C555.838 369.48 555.602 369.148 555.258 368.924C554.918 368.696 554.528 368.582 554.088 368.582C553.692 368.582 553.336 368.682 553.02 368.882C552.708 369.082 552.464 369.36 552.288 369.716C552.112 370.072 552.024 370.476 552.024 370.928C552.024 371.376 552.112 371.778 552.288 372.134C552.464 372.49 552.708 372.77 553.02 372.974C553.336 373.174 553.692 373.274 554.088 373.274C554.528 373.274 554.918 373.162 555.258 372.938C555.602 372.71 555.838 372.376 555.966 371.936H556.926C556.834 372.4 556.654 372.798 556.386 373.13C556.118 373.462 555.786 373.714 555.39 373.886C554.994 374.058 554.56 374.144 554.088 374.144ZM560.984 374.144C560.408 374.144 559.89 374.006 559.43 373.73C558.97 373.454 558.61 373.072 558.35 372.584C558.094 372.092 557.966 371.536 557.966 370.916C557.966 370.312 558.096 369.766 558.356 369.278C558.62 368.79 558.982 368.408 559.442 368.132C559.902 367.852 560.416 367.712 560.984 367.712C561.564 367.712 562.072 367.85 562.508 368.126C562.948 368.402 563.286 368.784 563.522 369.272C563.762 369.76 563.882 370.312 563.882 370.928V371.162H558.944C558.984 371.582 559.098 371.954 559.286 372.278C559.474 372.602 559.72 372.854 560.024 373.034C560.328 373.214 560.668 373.304 561.044 373.304C561.448 373.304 561.804 373.23 562.112 373.082C562.42 372.934 562.644 372.732 562.784 372.476H563.743C563.671 372.732 563.52 372.988 563.288 373.244C563.06 373.5 562.748 373.714 562.352 373.886C561.96 374.058 561.504 374.144 560.984 374.144ZM562.886 370.37C562.806 369.81 562.602 369.368 562.274 369.044C561.95 368.72 561.524 368.558 560.996 368.558C560.64 368.558 560.32 368.632 560.036 368.78C559.752 368.924 559.518 369.134 559.334 369.41C559.15 369.682 559.028 370.002 558.968 370.37H562.886ZM566.396 367.856V368.942C566.628 368.554 566.94 368.252 567.332 368.036C567.724 367.82 568.174 367.712 568.682 367.712C569.254 367.712 569.762 367.848 570.206 368.12C570.654 368.388 571.002 368.766 571.25 369.254C571.502 369.742 571.628 370.3 571.628 370.928C571.628 371.556 571.502 372.114 571.25 372.602C571.002 373.09 570.654 373.47 570.206 373.742C569.762 374.01 569.254 374.144 568.682 374.144C568.182 374.144 567.738 374.04 567.35 373.832C566.962 373.624 566.652 373.332 566.42 372.956V375.932H565.46V367.856H566.396ZM566.42 370.928C566.42 371.388 566.508 371.796 566.684 372.152C566.864 372.504 567.114 372.78 567.434 372.98C567.754 373.176 568.12 373.274 568.532 373.274C568.94 373.274 569.302 373.176 569.618 372.98C569.934 372.78 570.18 372.504 570.356 372.152C570.532 371.796 570.62 371.388 570.62 370.928C570.62 370.468 570.532 370.062 570.356 369.71C570.18 369.354 569.934 369.078 569.618 368.882C569.302 368.682 568.94 368.582 568.532 368.582C568.12 368.582 567.754 368.682 567.434 368.882C567.114 369.078 566.864 369.354 566.684 369.71C566.508 370.062 566.42 370.468 566.42 370.928ZM575.18 374C574.888 374 574.622 373.938 574.382 373.814C574.146 373.686 573.96 373.512 573.824 373.292C573.688 373.068 573.62 372.82 573.62 372.548L573.614 368.708H572.534L572.54 367.856H573.206C573.358 367.856 573.48 367.808 573.572 367.712C573.668 367.616 573.716 367.494 573.716 367.346V366.356H574.58V367.856H576.062L576.056 368.708H574.574L574.58 372.488C574.58 372.676 574.642 372.834 574.766 372.962C574.894 373.086 575.052 373.148 575.24 373.148H576.056V374H575.18ZM577.73 367.856H578.69V374H577.73V367.856ZM578.774 365.6V366.74H577.646V365.6H578.774ZM583.398 374.144C582.814 374.144 582.282 374.006 581.802 373.73C581.326 373.45 580.95 373.066 580.674 372.578C580.402 372.086 580.266 371.536 580.266 370.928C580.266 370.32 580.402 369.772 580.674 369.284C580.95 368.792 581.328 368.408 581.808 368.132C582.288 367.852 582.82 367.712 583.404 367.712C583.988 367.712 584.518 367.852 584.994 368.132C585.47 368.408 585.844 368.79 586.116 369.278C586.392 369.766 586.53 370.316 586.53 370.928C586.53 371.54 586.392 372.09 586.116 372.578C585.844 373.066 585.47 373.45 584.994 373.73C584.518 374.006 583.986 374.144 583.398 374.144ZM581.274 370.928C581.274 371.388 581.366 371.796 581.55 372.152C581.738 372.504 581.994 372.778 582.318 372.974C582.646 373.17 583.01 373.268 583.41 373.268C583.81 373.268 584.17 373.17 584.49 372.974C584.81 372.778 585.062 372.504 585.246 372.152C585.43 371.796 585.522 371.388 585.522 370.928C585.522 370.468 585.43 370.06 585.246 369.704C585.062 369.348 584.808 369.072 584.484 368.876C584.164 368.68 583.804 368.582 583.404 368.582C583.004 368.582 582.642 368.68 582.318 368.876C581.994 369.072 581.738 369.348 581.55 369.704C581.366 370.06 581.274 370.468 581.274 370.928ZM588.113 367.856H589.037V368.852C589.245 368.484 589.521 368.202 589.865 368.006C590.213 367.81 590.615 367.712 591.071 367.712C591.511 367.712 591.901 367.806 592.241 367.994C592.581 368.182 592.847 368.46 593.039 368.828C593.235 369.192 593.333 369.63 593.333 370.142V374H592.373V370.238C592.373 369.706 592.235 369.292 591.959 368.996C591.683 368.7 591.303 368.552 590.819 368.552C590.475 368.552 590.171 368.628 589.907 368.78C589.643 368.932 589.437 369.146 589.289 369.422C589.145 369.694 589.073 370.006 589.073 370.358V374H588.113V367.856Z" fill="black"/>
<rect x="458" y="244" width="167" height="46" rx="12" fill="#D9CBFF"/>
<path d="M513.997 263.6H519.805V264.53H514.969V267.302H519.397V268.226H514.969V271.07H519.925V272H513.997V263.6ZM523.676 269.606L522.038 272H520.946L523.172 268.832L521.054 265.856H522.17L523.724 268.088L525.248 265.856H526.34L524.234 268.862L526.454 272H525.338L523.676 269.606ZM530.182 272.144C529.602 272.144 529.078 272.004 528.61 271.724C528.142 271.444 527.774 271.06 527.506 270.572C527.242 270.08 527.11 269.532 527.11 268.928C527.11 268.324 527.242 267.778 527.506 267.29C527.774 266.798 528.142 266.412 528.61 266.132C529.078 265.852 529.602 265.712 530.182 265.712C530.926 265.712 531.55 265.902 532.054 266.282C532.558 266.658 532.88 267.204 533.02 267.92H532.06C531.932 267.48 531.696 267.148 531.352 266.924C531.012 266.696 530.622 266.582 530.182 266.582C529.786 266.582 529.43 266.682 529.114 266.882C528.802 267.082 528.558 267.36 528.382 267.716C528.206 268.072 528.118 268.476 528.118 268.928C528.118 269.376 528.206 269.778 528.382 270.134C528.558 270.49 528.802 270.77 529.114 270.974C529.43 271.174 529.786 271.274 530.182 271.274C530.622 271.274 531.012 271.162 531.352 270.938C531.696 270.71 531.932 270.376 532.06 269.936H533.02C532.928 270.4 532.748 270.798 532.48 271.13C532.212 271.462 531.88 271.714 531.484 271.886C531.088 272.058 530.654 272.144 530.182 272.144ZM537.077 272.144C536.501 272.144 535.983 272.006 535.523 271.73C535.063 271.454 534.703 271.072 534.443 270.584C534.187 270.092 534.059 269.536 534.059 268.916C534.059 268.312 534.189 267.766 534.449 267.278C534.713 266.79 535.075 266.408 535.535 266.132C535.995 265.852 536.509 265.712 537.077 265.712C537.657 265.712 538.165 265.85 538.601 266.126C539.041 266.402 539.379 266.784 539.615 267.272C539.855 267.76 539.975 268.312 539.975 268.928V269.162H535.037C535.077 269.582 535.191 269.954 535.379 270.278C535.567 270.602 535.813 270.854 536.117 271.034C536.421 271.214 536.761 271.304 537.137 271.304C537.541 271.304 537.897 271.23 538.205 271.082C538.513 270.934 538.737 270.732 538.877 270.476H539.837C539.765 270.732 539.613 270.988 539.381 271.244C539.153 271.5 538.841 271.714 538.445 271.886C538.053 272.058 537.597 272.144 537.077 272.144ZM538.979 268.37C538.899 267.81 538.695 267.368 538.367 267.044C538.043 266.72 537.617 266.558 537.089 266.558C536.733 266.558 536.413 266.632 536.129 266.78C535.845 266.924 535.611 267.134 535.427 267.41C535.243 267.682 535.121 268.002 535.061 268.37H538.979ZM542.49 265.856V266.942C542.722 266.554 543.034 266.252 543.426 266.036C543.818 265.82 544.268 265.712 544.776 265.712C545.348 265.712 545.856 265.848 546.3 266.12C546.748 266.388 547.096 266.766 547.344 267.254C547.596 267.742 547.722 268.3 547.722 268.928C547.722 269.556 547.596 270.114 547.344 270.602C547.096 271.09 546.748 271.47 546.3 271.742C545.856 272.01 545.348 272.144 544.776 272.144C544.276 272.144 543.832 272.04 543.444 271.832C543.056 271.624 542.746 271.332 542.514 270.956V273.932H541.554V265.856H542.49ZM542.514 268.928C542.514 269.388 542.602 269.796 542.778 270.152C542.958 270.504 543.208 270.78 543.528 270.98C543.848 271.176 544.214 271.274 544.626 271.274C545.034 271.274 545.396 271.176 545.712 270.98C546.028 270.78 546.274 270.504 546.45 270.152C546.626 269.796 546.714 269.388 546.714 268.928C546.714 268.468 546.626 268.062 546.45 267.71C546.274 267.354 546.028 267.078 545.712 266.882C545.396 266.682 545.034 266.582 544.626 266.582C544.214 266.582 543.848 266.682 543.528 266.882C543.208 267.078 542.958 267.354 542.778 267.71C542.602 268.062 542.514 268.468 542.514 268.928ZM551.274 272C550.982 272 550.716 271.938 550.476 271.814C550.24 271.686 550.054 271.512 549.918 271.292C549.782 271.068 549.714 270.82 549.714 270.548L549.708 266.708H548.628L548.634 265.856H549.3C549.452 265.856 549.574 265.808 549.666 265.712C549.762 265.616 549.81 265.494 549.81 265.346V264.356H550.674V265.856H552.156L552.15 266.708H550.668L550.674 270.488C550.674 270.676 550.736 270.834 550.86 270.962C550.988 271.086 551.146 271.148 551.334 271.148H552.15V272H551.274ZM553.823 265.856H554.783V272H553.823V265.856ZM554.867 263.6V264.74H553.739V263.6H554.867ZM559.492 272.144C558.908 272.144 558.376 272.006 557.896 271.73C557.42 271.45 557.044 271.066 556.768 270.578C556.496 270.086 556.36 269.536 556.36 268.928C556.36 268.32 556.496 267.772 556.768 267.284C557.044 266.792 557.422 266.408 557.902 266.132C558.382 265.852 558.914 265.712 559.498 265.712C560.082 265.712 560.612 265.852 561.088 266.132C561.564 266.408 561.938 266.79 562.21 267.278C562.486 267.766 562.624 268.316 562.624 268.928C562.624 269.54 562.486 270.09 562.21 270.578C561.938 271.066 561.564 271.45 561.088 271.73C560.612 272.006 560.08 272.144 559.492 272.144ZM557.368 268.928C557.368 269.388 557.46 269.796 557.644 270.152C557.832 270.504 558.088 270.778 558.412 270.974C558.74 271.17 559.104 271.268 559.504 271.268C559.904 271.268 560.264 271.17 560.584 270.974C560.904 270.778 561.156 270.504 561.34 270.152C561.524 269.796 561.616 269.388 561.616 268.928C561.616 268.468 561.524 268.06 561.34 267.704C561.156 267.348 560.902 267.072 560.578 266.876C560.258 266.68 559.898 266.582 559.498 266.582C559.098 266.582 558.736 266.68 558.412 266.876C558.088 267.072 557.832 267.348 557.644 267.704C557.46 268.06 557.368 268.468 557.368 268.928ZM564.206 265.856H565.13V266.852C565.338 266.484 565.614 266.202 565.958 266.006C566.306 265.81 566.708 265.712 567.164 265.712C567.604 265.712 567.994 265.806 568.334 265.994C568.674 266.182 568.94 266.46 569.132 266.828C569.328 267.192 569.426 267.63 569.426 268.142V272H568.466V268.238C568.466 267.706 568.328 267.292 568.052 266.996C567.776 266.7 567.396 266.552 566.912 266.552C566.568 266.552 566.264 266.628 566 266.78C565.736 266.932 565.53 267.146 565.382 267.422C565.238 267.694 565.166 268.006 565.166 268.358V272H564.206V265.856Z" fill="black"/>
<path d="M164 201L164.35 201L164 201ZM178 187L178 187.35L178 187ZM332 187L332 186.65L332 187ZM346 137L343.979 140.5L348.021 140.5L346 137ZM164.35 245L164.35 201L163.65 201L163.65 245L164.35 245ZM178 187.35L332 187.35L332 186.65L178 186.65L178 187.35ZM346.35 173L346.35 140.15L345.65 140.15L345.65 173L346.35 173ZM332 187.35C339.925 187.35 346.35 180.925 346.35 173L345.65 173C345.65 180.539 339.539 186.65 332 186.65L332 187.35ZM164.35 201C164.35 193.461 170.461 187.35 178 187.35L178 186.65C170.075 186.65 163.65 193.075 163.65 201L164.35 201Z" fill="black"/>
<rect x="82" y="244" width="167" height="46" rx="12" fill="#E53F70" fill-opacity="0.56"/>
<path d="M152.716 263.6H158.524V264.53H153.688V267.302H158.116V268.226H153.688V271.07H158.644V272H152.716V263.6ZM160.433 265.856H161.393V266.876C161.589 266.528 161.843 266.262 162.155 266.078C162.467 265.89 162.825 265.796 163.229 265.796H163.445V266.798H163.193C162.829 266.798 162.511 266.868 162.239 267.008C161.967 267.148 161.757 267.348 161.609 267.608C161.465 267.864 161.393 268.166 161.393 268.514V272H160.433V265.856ZM164.722 265.856H165.682V266.876C165.878 266.528 166.132 266.262 166.444 266.078C166.756 265.89 167.114 265.796 167.518 265.796H167.734V266.798H167.482C167.118 266.798 166.8 266.868 166.528 267.008C166.256 267.148 166.046 267.348 165.898 267.608C165.754 267.864 165.682 268.166 165.682 268.514V272H164.722V265.856ZM171.621 272.144C171.037 272.144 170.505 272.006 170.025 271.73C169.549 271.45 169.173 271.066 168.897 270.578C168.625 270.086 168.489 269.536 168.489 268.928C168.489 268.32 168.625 267.772 168.897 267.284C169.173 266.792 169.551 266.408 170.031 266.132C170.511 265.852 171.043 265.712 171.627 265.712C172.211 265.712 172.741 265.852 173.217 266.132C173.693 266.408 174.067 266.79 174.339 267.278C174.615 267.766 174.753 268.316 174.753 268.928C174.753 269.54 174.615 270.09 174.339 270.578C174.067 271.066 173.693 271.45 173.217 271.73C172.741 272.006 172.209 272.144 171.621 272.144ZM169.497 268.928C169.497 269.388 169.589 269.796 169.773 270.152C169.961 270.504 170.217 270.778 170.541 270.974C170.869 271.17 171.233 271.268 171.633 271.268C172.033 271.268 172.393 271.17 172.713 270.974C173.033 270.778 173.285 270.504 173.469 270.152C173.653 269.796 173.745 269.388 173.745 268.928C173.745 268.468 173.653 268.06 173.469 267.704C173.285 267.348 173.031 267.072 172.707 266.876C172.387 266.68 172.027 266.582 171.627 266.582C171.227 266.582 170.865 266.68 170.541 266.876C170.217 267.072 169.961 267.348 169.773 267.704C169.589 268.06 169.497 268.468 169.497 268.928ZM176.335 265.856H177.295V266.876C177.491 266.528 177.745 266.262 178.057 266.078C178.369 265.89 178.727 265.796 179.131 265.796H179.347V266.798H179.095C178.731 266.798 178.413 266.868 178.141 267.008C177.869 267.148 177.659 267.348 177.511 267.608C177.367 267.864 177.295 268.166 177.295 268.514V272H176.335V265.856Z" fill="black"/>
<defs>
<radialGradient id="paint0_radial_1_303" cx="0" cy="0" r="1" gradientUnits="userSpaceOnUse" gradientTransform="translate(254.449 132.19) scale(192.038 292.389)">
<stop stop-color="#EB4857"/>
<stop offset="0.5" stop-color="#C611E0"/>
<stop offset="1" stop-color="#7F52FF"/>
</radialGradient>
</defs>
</svg>
