<?xml version="1.0" encoding="utf-8"?>
<svg version="1.1" id="Layer_1" xmlns="http://www.w3.org/2000/svg" x="0px" y="0px"
	 width="978px" height="1061px" viewBox="183 -134 978 1061" style="enable-background:new 183 -134 978 1061;"
	 xml:space="preserve">
<g style="opacity:0.49;">
	<path style="fill-opacity:0;stroke:#D9D9D9;stroke-dasharray:10,3;" d="M1117.5,424.5l-535-476l87,449L1117.5,424.5z"/>
	<path style="fill-opacity:0;stroke:#E1E1E1;stroke-dasharray:10,3;" d="M1118.3,465.9c-23.3,0-42.2-18.9-42.2-42.2
		s18.9-42.2,42.2-42.2c23.3,0,42.2,18.9,42.2,42.2S1141.6,465.9,1118.3,465.9z M583.6,34.4c-46.3,0-83.9-37.6-83.9-83.9
		s37.6-83.9,83.9-83.9s83.9,37.6,83.9,83.9S630,34.4,583.6,34.4z M536.2,841.7c0,46.8-37.9,84.8-84.7,84.8s-84.7-37.9-84.7-84.8
		s37.9-84.8,84.7-84.8S536.2,794.9,536.2,841.7z M273.9,263.1c-49.9,0-90.4-40.5-90.4-90.4s40.5-90.4,90.4-90.4s90.4,40.5,90.4,90.4
		S323.8,263.1,273.9,263.1z"/>
	<path style="fill:#FFFFFF;fill-opacity:0;stroke:#CCCCCC;stroke-linejoin:round;" d="M1138.3,460.8L494,916l-0.4-0.7
		c-12.4,7.1-26.8,11.2-42.2,11.2c-46.8,0-84.8-37.9-84.8-84.8c0-34.5,20.6-64.1,50.2-77.4l638.2-348l-470.3-382L417,173.1
		l222.9,172.2c13.4,5.4,22.8,18.5,22.8,33.8c0,20.2-16.3,36.5-36.5,36.5c-9.8,0-18.6-3.8-25.2-10.1L242.9,257.6
		c-2.2-0.8-4.3-1.7-6.3-2.6l-2-0.8l0-0.1c-30.2-14.6-51.1-45.6-51.1-81.4c0-28.6,13.3-54.1,34.1-70.7l0-0.3l321.1-222.2l0.2,0
		c13-8.2,28.3-13,44.8-13c25.1,0,47.7,11.1,63,28.6l497.7,495.4c9.8,7.7,16.2,19.7,16.2,33.2
		C1160.5,439.7,1151.5,453.7,1138.3,460.8z"/>
	<path style="fill-opacity:0;stroke:#D9D9D9;stroke-dasharray:10,3;" d="M451.5,849.5l219-452l-398-223L451.5,849.5z"/>
	<g>
		<path style="fill:#CDCDCD;" d="M608.5,58.4l-5.7-5.1l-3.1,6.9l-0.7-0.6l3.1-6.9l-0.1-0.1l0.4-0.8l6.5,5.8L608.5,58.4z"/>
		<path style="fill:#CDCDCD;" d="M353.8,220.4l3.1,6.9l-0.9,0.1l-3.1-6.9l-0.2,0l-0.4-0.8l8.6-1l0.4,0.8L353.8,220.4z"/>
		<path style="fill:#CDCDCD;" d="M1041.4,418.5l-7.2,4.9l-0.7-0.5l6.3-4.3l-6-4.7l0.8-0.5l6,4.7l0.1-0.1L1041.4,418.5z"/>
		<path style="fill:#CDCDCD;" d="M528.6,699.3l-6.9,3.1l0,0.2l-0.8,0.4l-1-8.6l0.8-0.4l0.8,7.6l6.9-3.1L528.6,699.3z"/>
	</g>
</g>
</svg>
