<?xml version="1.0" encoding="utf-8"?>
<svg version="1.1" id="Layer_1" xmlns="http://www.w3.org/2000/svg" x="0px" y="0px"
	 viewBox="0 0 64 64" style="enable-background:new 0 0 64 64;" xml:space="preserve">
<g>
	<rect y="0" width="64" height="64"/>
	<rect x="5.9" y="52" fill="#fff" width="24" height="4"/>
	<g>
		<g>
			<path fill="#fff" d="M13.3,19.6h-7l-0.6-2.8L13.1,8h4v8.7h1.8v3h-1.8v2.8h-3.8V19.6z M13.3,16.7v-4.1l-3.4,4.1H13.3z"/>
			<path fill="#fff" d="M19.5,15.3L19.5,15.3c0-4.1,2.6-7.5,6.7-7.5s6.6,3.4,6.6,7.4v0c0,4.1-2.6,7.5-6.7,7.5
				C22.1,22.7,19.5,19.3,19.5,15.3z M28.8,15.3L28.8,15.3c0-2.3-1.1-4-2.7-4c-1.6,0-2.6,1.6-2.6,3.9v0c0,2.3,1.1,3.9,2.7,3.9
				C27.8,19.2,28.8,17.5,28.8,15.3z"/>
			<path fill="#fff" d="M40.7,19.6h-7l-0.6-2.8L40.5,8h4v8.7h1.8v3h-1.8v2.8h-3.8V19.6z M40.7,16.7v-4.1l-3.4,4.1H40.7z"/>
		</g>
	</g>
</g>
</svg>
