<?xml version="1.0" encoding="utf-8"?>
<!-- Generator: Adobe Illustrator 23.0.0, SVG Export Plug-In . SVG Version: 6.00 Build 0)  -->
<svg version="1.1" id="Layer_1" xmlns="http://www.w3.org/2000/svg" xmlns:xlink="http://www.w3.org/1999/xlink" x="0px" y="0px"
	 viewBox="0 0 164.8 38.8" style="enable-background:new 0 0 164.8 38.8;" xml:space="preserve">
<style type="text/css">
	.st0{fill:#FF3F00;}
	.st1{fill:#FFFFFF;}
</style>
<rect class="st0" width="164.8" height="38.8"/>
<g>
	<g>
		<path class="st1" d="M51.1,12.8h5.1c1.4,0,2.5,0.4,3.3,1.1c0.6,0.6,1,1.5,1,2.6v0c0,1.8-1,2.9-2.4,3.5l2.7,4h-2.9l-2.4-3.6h-1.9
			V24h-2.5V12.8z M56,18.3c1.2,0,1.9-0.6,1.9-1.6v0c0-1.1-0.7-1.6-1.9-1.6h-2.5v3.2H56z"/>
		<path class="st1" d="M61.4,19.8L61.4,19.8c0-2.5,1.7-4.5,4.2-4.5c2.9,0,4.2,2.2,4.2,4.7c0,0.2,0,0.4,0,0.6h-6
			c0.2,1.1,1,1.7,2.1,1.7c0.8,0,1.4-0.3,2.1-0.9l1.4,1.2c-0.8,1-2,1.6-3.5,1.6C63.3,24.2,61.4,22.4,61.4,19.8z M67.5,19.1
			c-0.1-1.1-0.8-1.8-1.8-1.8c-1,0-1.7,0.7-1.9,1.8H67.5z"/>
		<path class="st1" d="M71.3,25.7l0.8-1.8c0.9,0.5,1.8,0.8,2.9,0.8c1.7,0,2.5-0.8,2.5-2.3V22c-0.7,0.9-1.5,1.4-2.8,1.4
			c-2,0-3.8-1.5-3.8-4v0c0-2.6,1.8-4,3.8-4c1.3,0,2.1,0.6,2.8,1.3v-1.1h2.4v6.6c0,1.5-0.4,2.7-1.1,3.4c-0.8,0.8-2,1.2-3.7,1.2
			C73.7,26.6,72.4,26.3,71.3,25.7z M77.5,19.3L77.5,19.3c0-1.2-0.9-2-2.1-2c-1.2,0-2.1,0.8-2.1,2v0c0,1.2,0.9,2,2.1,2
			C76.6,21.3,77.5,20.5,77.5,19.3z"/>
		<path class="st1" d="M81.7,12.4h2.6v2.2h-2.6V12.4z M81.8,15.5h2.4V24h-2.4V15.5z"/>
		<path class="st1" d="M85.5,22.9l1-1.6c0.9,0.7,1.9,1,2.7,1c0.7,0,1-0.3,1-0.6v0c0-0.5-0.8-0.7-1.8-1c-1.2-0.4-2.6-0.9-2.6-2.6v0
			c0-1.7,1.4-2.7,3.1-2.7c1.1,0,2.3,0.4,3.2,1L91.3,18c-0.8-0.5-1.7-0.8-2.3-0.8c-0.6,0-0.9,0.3-0.9,0.6v0c0,0.5,0.8,0.7,1.7,1
			c1.2,0.4,2.6,1,2.6,2.5v0c0,1.9-1.4,2.8-3.3,2.8C88,24.2,86.6,23.8,85.5,22.9z"/>
		<path class="st1" d="M94,21.6v-4.1h-1v-2.1h1v-2.2h2.4v2.2h2v2.1h-2v3.7c0,0.6,0.2,0.8,0.8,0.8c0.4,0,0.9-0.1,1.2-0.3v2
			c-0.5,0.3-1.1,0.5-1.9,0.5C95,24.2,94,23.6,94,21.6z"/>
		<path class="st1" d="M99.2,19.8L99.2,19.8c0-2.5,1.7-4.5,4.2-4.5c2.9,0,4.2,2.2,4.2,4.7c0,0.2,0,0.4,0,0.6h-6
			c0.2,1.1,1,1.7,2.1,1.7c0.8,0,1.4-0.3,2.1-0.9l1.4,1.2c-0.8,1-2,1.6-3.5,1.6C101.1,24.2,99.2,22.4,99.2,19.8z M105.3,19.1
			c-0.1-1.1-0.8-1.8-1.8-1.8c-1,0-1.7,0.7-1.9,1.8H105.3z"/>
		<path class="st1" d="M109.1,15.5h2.4v1.7c0.5-1.2,1.3-2,2.7-1.9v2.5h-0.1c-1.6,0-2.6,1-2.6,3V24h-2.4V15.5z"/>
	</g>
</g>
</svg>
