<?xml version="1.0" encoding="utf-8"?>
<!-- Generator: Adobe Illustrator 23.0.0, SVG Export Plug-In . SVG Version: 6.00 Build 0)  -->
<svg version="1.1" id="Layer_1" xmlns="http://www.w3.org/2000/svg" xmlns:xlink="http://www.w3.org/1999/xlink" x="0px" y="0px"
	 viewBox="0 0 121.3 36.9" style="enable-background:new 0 0 121.3 36.9;" xml:space="preserve">
<style type="text/css">
	.st0{opacity:0.8;fill:#FF3F00;enable-background:new    ;}
	.st1{fill:#FFFFFF;}
</style>
<rect x="0" y="-0.2" class="st0" width="121.5" height="37.1"/>
<g>
	<g>
		<path class="st1" d="M29.1,11.6h5.1c1.4,0,2.5,0.4,3.3,1.1c0.6,0.6,1,1.5,1,2.6l0,0c0,1.8-1,2.9-2.4,3.5l2.7,4h-2.9l-2.4-3.6h-1.9
			v3.6h-2.5C29.1,22.8,29.1,11.6,29.1,11.6z M34,17.1c1.2,0,1.9-0.6,1.9-1.6l0,0c0-1.1-0.7-1.6-1.9-1.6h-2.5v3.2H34z"/>
		<path class="st1" d="M39.4,18.6L39.4,18.6c0-2.5,1.7-4.5,4.2-4.5c2.9,0,4.2,2.2,4.2,4.7c0,0.2,0,0.4,0,0.6h-6
			c0.2,1.1,1,1.7,2.1,1.7c0.8,0,1.4-0.3,2.1-0.9l1.4,1.2c-0.8,1-2,1.6-3.5,1.6C41.3,23,39.4,21.2,39.4,18.6z M45.5,17.9
			c-0.1-1.1-0.8-1.8-1.8-1.8s-1.7,0.7-1.9,1.8H45.5z"/>
		<path class="st1" d="M49.3,24.5l0.8-1.8c0.9,0.5,1.8,0.8,2.9,0.8c1.7,0,2.5-0.8,2.5-2.3v-0.4c-0.7,0.9-1.5,1.4-2.8,1.4
			c-2,0-3.8-1.5-3.8-4l0,0c0-2.6,1.8-4,3.8-4c1.3,0,2.1,0.6,2.8,1.3v-1.1h2.4V21c0,1.5-0.4,2.7-1.1,3.4c-0.8,0.8-2,1.2-3.7,1.2
			C51.7,25.4,50.4,25.1,49.3,24.5z M55.5,18.1L55.5,18.1c0-1.2-0.9-2-2.1-2s-2.1,0.8-2.1,2l0,0c0,1.2,0.9,2,2.1,2
			S55.5,19.3,55.5,18.1z"/>
		<path class="st1" d="M59.7,11.2h2.6v2.2h-2.6V11.2z M59.8,14.3h2.4v8.5h-2.4V14.3z"/>
		<path class="st1" d="M63.5,21.7l1-1.6c0.9,0.7,1.9,1,2.7,1c0.7,0,1-0.3,1-0.6l0,0c0-0.5-0.8-0.7-1.8-1c-1.2-0.4-2.6-0.9-2.6-2.6
			l0,0c0-1.7,1.4-2.7,3.1-2.7c1.1,0,2.3,0.4,3.2,1l-0.8,1.6C68.5,16.3,67.6,16,67,16c-0.6,0-0.9,0.3-0.9,0.6l0,0
			c0,0.5,0.8,0.7,1.7,1c1.2,0.4,2.6,1,2.6,2.5l0,0c0,1.9-1.4,2.8-3.3,2.8C66,23,64.6,22.6,63.5,21.7z"/>
		<path class="st1" d="M72,20.4v-4.1h-1v-2.1h1V12h2.4v2.2h2v2.1h-2V20c0,0.6,0.2,0.8,0.8,0.8c0.4,0,0.9-0.1,1.2-0.3v2
			c-0.5,0.3-1.1,0.5-1.9,0.5C73,23,72,22.4,72,20.4z"/>
		<path class="st1" d="M77.2,18.6L77.2,18.6c0-2.5,1.7-4.5,4.2-4.5c2.9,0,4.2,2.2,4.2,4.7c0,0.2,0,0.4,0,0.6h-6
			c0.2,1.1,1,1.7,2.1,1.7c0.8,0,1.4-0.3,2.1-0.9l1.4,1.2c-0.8,1-2,1.6-3.5,1.6C79.1,23,77.2,21.2,77.2,18.6z M83.3,17.9
			c-0.1-1.1-0.8-1.8-1.8-1.8s-1.7,0.7-1.9,1.8H83.3z"/>
		<path class="st1" d="M87.1,14.3h2.4V16c0.5-1.2,1.3-2,2.7-1.9v2.5h-0.1c-1.6,0-2.6,1-2.6,3v3.2h-2.4V14.3z"/>
	</g>
</g>
</svg>
