<svg xmlns="http://www.w3.org/2000/svg" width="216" height="42" viewBox="0 0 216 42">
    <title>main_button</title>
    <path d="M213.01834,41.5H3.1A3.1156,3.1156,0,0,1,0,38.4V3.1A3.1156,3.1156,0,0,1,3.1,0H213.01834a3.11561,3.11561,0,0,1,3.1,3.1V38.5A3.0967,3.0967,0,0,1,213.01834,41.5ZM3.1,1A2.05061,2.05061,0,0,0,1,3.1V38.5a2.05061,2.05061,0,0,0,2.1,2.1H213.01834a2.05062,2.05062,0,0,0,2.1-2.1V3.1a2.05061,2.05061,0,0,0-2.1-2.1Z"
          fill="#ff5b00"/>
    <rect x="171.6066" y="21" width="23.00001" height="1" fill="#313435"/>
    <polygon points="189.707 27.1 189.007 26.4 193.907 21.5 189.007 16.6 189.707 15.9 195.307 21.5 189.707 27.1"
             fill="#313435"/>
    <text transform="translate(17.82224 26.2543)" font-size="12.72085" fill="#313435"
          font-family="Menlo-Regular, Menlo">Complete the Survey
    </text>
</svg>