<?xml version="1.0" encoding="utf-8"?>
<!-- Generator: Adobe Illustrator 23.0.0, SVG Export Plug-In . SVG Version: 6.00 Build 0)  -->
<svg version="1.1" id="Layer_1" xmlns="http://www.w3.org/2000/svg" xmlns:xlink="http://www.w3.org/1999/xlink" x="0px" y="0px"
	 viewBox="0 0 150.4 41.5" style="enable-background:new 0 0 150.4 41.5;" xml:space="preserve">
<style type="text/css">
	.st0{fill:#FF5B00;}
	.st1{enable-background:new    ;}
	.st2{fill:#313435;}
</style>
<title>main</title>
<path class="st0" d="M147.3,41.5H3.1c-1.7,0-3.1-1.4-3.1-3.1V3.1C0,1.4,1.4,0,3.1,0h144.2c1.7,0,3.1,1.4,3.1,3.1v35.4
	C150.4,40.1,149,41.5,147.3,41.5z M3.1,1C1.9,1,1,1.9,1,3.1v35.4c0,1.2,0.9,2.1,2.1,2.1h144.2c1.2,0,2.1-0.9,2.1-2.1V3.1
	c0-1.2-0.9-2.1-2.1-2.1H3.1z"/>
<g class="st1">
	<path class="st2" d="M19.7,16.8H21v8.4h4.6v1.1h-5.9V16.8z"/>
	<path class="st2" d="M33.3,22.1v0.6h-5.1v0c0,1,0.2,1.7,0.6,2.1c0.4,0.4,1,0.6,1.7,0.6c0.4,0,0.8-0.1,1.2-0.2s0.8-0.3,1.3-0.5v1.2
		c-0.4,0.2-0.9,0.3-1.3,0.4c-0.4,0.1-0.8,0.1-1.2,0.1c-1.1,0-2-0.3-2.6-1S27,23.9,27,22.7c0-1.1,0.3-2,0.9-2.7s1.4-1,2.4-1
		c0.9,0,1.6,0.3,2.2,0.9C33,20.5,33.3,21.3,33.3,22.1z M32.1,21.8c-0.1-0.5-0.2-0.9-0.5-1.3c-0.3-0.4-0.8-0.5-1.3-0.5
		c-0.6,0-1,0.2-1.4,0.6c-0.4,0.4-0.6,0.8-0.6,1.3L32.1,21.8z"/>
	<path class="st2" d="M40.8,22.2v4.1h-1.2v-1.1c-0.3,0.4-0.6,0.7-0.9,0.9c-0.4,0.2-0.8,0.3-1.4,0.3c-0.7,0-1.3-0.2-1.7-0.6
		c-0.4-0.4-0.6-1-0.6-1.6c0-0.8,0.3-1.4,0.8-1.8s1.3-0.6,2.3-0.6h1.6v-0.2c0-0.6-0.1-1-0.4-1.2c-0.3-0.3-0.7-0.4-1.4-0.4
		c-0.4,0-0.8,0.1-1.2,0.2c-0.4,0.1-0.8,0.3-1.2,0.5v-1.2c0.4-0.2,0.8-0.3,1.2-0.4C37,19,37.4,19,37.8,19c0.6,0,1.1,0.1,1.5,0.3
		s0.8,0.4,1,0.8c0.2,0.2,0.3,0.5,0.3,0.8S40.8,21.6,40.8,22.2z M38.5,22.7h-0.4c-0.7,0-1.2,0.1-1.5,0.4c-0.3,0.2-0.5,0.6-0.5,1.1
		c0,0.4,0.1,0.8,0.4,1c0.3,0.2,0.6,0.4,1.1,0.4c0.6,0,1.2-0.2,1.5-0.7c0.4-0.4,0.6-1.1,0.6-1.9v-0.3H38.5z"/>
	<path class="st2" d="M49.2,20.6c-0.3-0.2-0.5-0.3-0.8-0.4c-0.3-0.1-0.5-0.1-0.9-0.1c-0.7,0-1.3,0.2-1.7,0.7c-0.4,0.5-0.6,1.1-0.6,2
		v3.5h-1.2v-7.1h1.2v1.4c0.2-0.5,0.5-0.9,0.9-1.2s0.9-0.4,1.4-0.4c0.3,0,0.6,0,0.8,0.1s0.5,0.2,0.7,0.3V20.6z"/>
	<path class="st2" d="M56.4,21.9v4.4h-1.2v-4.4c0-0.6-0.1-1.1-0.3-1.4c-0.2-0.3-0.6-0.5-1.1-0.5c-0.5,0-1,0.2-1.3,0.6
		c-0.3,0.4-0.4,0.9-0.4,1.7v4H51v-7.1h1.2v1.1c0.2-0.4,0.5-0.7,0.8-0.9c0.4-0.2,0.8-0.3,1.3-0.3c0.7,0,1.3,0.2,1.6,0.7
		C56.3,20.2,56.4,20.9,56.4,21.9z"/>
	<path class="st2" d="M65.7,16.8h1.7l1.6,4.8l1.7-4.8h1.7v9.5h-1.2v-8.4l-1.7,5h-1l-1.7-5v8.4h-1.2V16.8z"/>
	<path class="st2" d="M77.2,19c1,0,1.7,0.3,2.3,1c0.5,0.6,0.8,1.6,0.8,2.8c0,1.2-0.3,2.1-0.8,2.8c-0.5,0.6-1.3,1-2.3,1
		c-1,0-1.7-0.3-2.3-1c-0.5-0.6-0.8-1.6-0.8-2.8c0-1.2,0.3-2.1,0.8-2.8C75.5,19.3,76.2,19,77.2,19z M77.2,20c-0.6,0-1,0.2-1.4,0.7
		c-0.3,0.5-0.5,1.1-0.5,2.1c0,0.9,0.2,1.6,0.5,2.1c0.3,0.5,0.8,0.7,1.4,0.7c0.6,0,1.1-0.2,1.4-0.7s0.5-1.2,0.5-2.1
		c0-0.9-0.2-1.6-0.5-2.1C78.3,20.2,77.8,20,77.2,20z"/>
	<path class="st2" d="M88.5,20.6c-0.3-0.2-0.5-0.3-0.8-0.4c-0.3-0.1-0.5-0.1-0.9-0.1c-0.7,0-1.3,0.2-1.7,0.7c-0.4,0.5-0.6,1.1-0.6,2
		v3.5h-1.2v-7.1h1.2v1.4c0.2-0.5,0.5-0.9,0.9-1.2C86,19.1,86.4,19,87,19c0.3,0,0.6,0,0.8,0.1c0.3,0.1,0.5,0.2,0.7,0.3V20.6z"/>
	<path class="st2" d="M96.2,22.1v0.6h-5.1v0c0,1,0.2,1.7,0.6,2.1s1,0.6,1.7,0.6c0.4,0,0.8-0.1,1.2-0.2c0.4-0.1,0.8-0.3,1.3-0.5v1.2
		c-0.4,0.2-0.9,0.3-1.3,0.4c-0.4,0.1-0.8,0.1-1.2,0.1c-1.1,0-2-0.3-2.6-1c-0.6-0.7-0.9-1.6-0.9-2.7c0-1.1,0.3-2,0.9-2.7
		c0.6-0.7,1.4-1,2.4-1c0.9,0,1.6,0.3,2.2,0.9C95.8,20.5,96.1,21.3,96.2,22.1z M95,21.8c-0.1-0.5-0.2-0.9-0.5-1.3
		c-0.3-0.4-0.8-0.5-1.3-0.5c-0.6,0-1,0.2-1.4,0.6c-0.4,0.4-0.6,0.8-0.6,1.3L95,21.8z"/>
</g>
<rect x="105.6" y="21" class="st2" width="23" height="1"/>
<polygon class="st2" points="123.7,27.1 123,26.4 127.9,21.5 123,16.6 123.7,15.9 129.3,21.5 "/>
</svg>
