<?xml version="1.0" encoding="utf-8"?>
<!-- Generator: Adobe Illustrator 17.0.2, SVG Export Plug-In . SVG Version: 6.00 Build 0)  -->
<!DOCTYPE svg PUBLIC "-//W3C//DTD SVG 1.1//EN" "http://www.w3.org/Graphics/SVG/1.1/DTD/svg11.dtd">
<svg version="1.1" id="Слой_1" xmlns="http://www.w3.org/2000/svg" xmlns:xlink="http://www.w3.org/1999/xlink" x="0px" y="0px"
	 width="168px" height="48px" viewBox="0 0 168 48" enable-background="new 0 0 168 48" xml:space="preserve">
<path fill="#F4633B" d="M168,43c0,2.761425-2.238571,5-5,5H5c-2.761424,0-5-2.238575-5-5V5c0-2.761424,2.238576-5,5-5h158
	c2.761429,0,5,2.238576,5,5V43z"/>
<g>
	<path fill="#FFFFFF" d="M25.512695,17.396484h5.761719c1.602539,0,2.844727,0.450195,3.672852,1.27832
		c0.702148,0.702148,1.080078,1.692383,1.080078,2.880859v0.036133c0,2.03418-1.097656,3.3125-2.700195,3.907227L36.405273,30
		h-3.240234l-2.701172-4.033203h-2.178711V30h-2.772461V17.396484z M31.09375,23.517578c1.350586,0,2.125-0.719727,2.125-1.782227
		v-0.036133c0-1.188477-0.828125-1.799805-2.178711-1.799805h-2.754883v3.618164H31.09375z"/>
	<path fill="#FFFFFF" d="M37.589844,25.228516v-0.036133c0-2.754883,1.962891-5.023438,4.771484-5.023438
		c3.223633,0,4.699219,2.50293,4.699219,5.239258c0,0.216797-0.017578,0.46875-0.035156,0.720703h-6.716797
		c0.270508,1.242188,1.134766,1.890625,2.359375,1.890625c0.917969,0,1.583984-0.288086,2.34082-0.990234l1.566406,1.386719
		c-0.900391,1.116211-2.197266,1.799805-3.943359,1.799805C39.732422,30.21582,37.589844,28.181641,37.589844,25.228516z
		 M44.396484,24.417969c-0.162109-1.223633-0.882812-2.052734-2.035156-2.052734c-1.133789,0-1.87207,0.810547-2.087891,2.052734
		H44.396484z"/>
	<path fill="#FFFFFF" d="M49.146484,31.908203l0.936523-2.052734c0.990234,0.558594,1.980469,0.882812,3.258789,0.882812
		c1.873047,0,2.754883-0.900391,2.754883-2.628906v-0.467773c-0.810547,0.97168-1.692383,1.566406-3.151367,1.566406
		c-2.25,0-4.285156-1.638672-4.285156-4.501953v-0.036133c0-2.880859,2.071289-4.500977,4.285156-4.500977
		c1.495117,0,2.376953,0.629883,3.115234,1.44043v-1.259766h2.737305v7.47168c0,1.728516-0.415039,2.989258-1.224609,3.798828
		c-0.900391,0.900391-2.287109,1.296875-4.15918,1.296875C51.847656,32.916992,50.371094,32.556641,49.146484,31.908203z
		 M56.09668,24.706055v-0.036133c0-1.313477-1.026367-2.232422-2.358398-2.232422c-1.333008,0-2.34082,0.918945-2.34082,2.232422
		v0.036133c0,1.333008,1.007812,2.233398,2.34082,2.233398C55.070312,26.939453,56.09668,26.020508,56.09668,24.706055z"/>
	<path fill="#FFFFFF" d="M61.295898,16.856445h2.880859v2.430664h-2.880859V16.856445z M61.368164,20.349609h2.736328V30h-2.736328
		V20.349609z"/>
	<path fill="#FFFFFF" d="M65.920898,28.72168l1.170898-1.800781c1.043945,0.756836,2.142578,1.152344,3.042969,1.152344
		c0.791992,0,1.152344-0.288086,1.152344-0.719727v-0.036133c0-0.594727-0.936523-0.791992-1.999023-1.116211
		c-1.350586-0.396484-2.880859-1.026367-2.880859-2.899414v-0.036133c0-1.961914,1.584961-3.060547,3.529297-3.060547
		c1.224609,0,2.556641,0.414062,3.600586,1.116211l-1.043945,1.890625c-0.954102-0.557617-1.908203-0.900391-2.610352-0.900391
		c-0.666992,0-1.008789,0.288086-1.008789,0.666016v0.036133c0,0.540039,0.917969,0.792969,1.962891,1.152344
		c1.350586,0.450195,2.916992,1.098633,2.916992,2.863281v0.036133c0,2.142578-1.602539,3.114258-3.691406,3.114258
		C68.711914,30.179688,67.199219,29.729492,65.920898,28.72168z"/>
	<path fill="#FFFFFF" d="M75.984375,27.263672v-4.574219h-1.152344v-2.339844h1.152344v-2.466797h2.736328v2.466797h2.268555
		v2.339844h-2.268555v4.124023c0,0.629883,0.270508,0.935547,0.882812,0.935547c0.503906,0,0.954102-0.125977,1.349609-0.341797
		v2.196289c-0.576172,0.342773-1.242188,0.558594-2.160156,0.558594C77.118164,30.162109,75.984375,29.496094,75.984375,27.263672z"
		/>
	<path fill="#FFFFFF" d="M82.265625,25.228516v-0.036133c0-2.754883,1.962891-5.023438,4.771484-5.023438
		c3.223633,0,4.699219,2.50293,4.699219,5.239258c0,0.216797-0.017578,0.46875-0.035156,0.720703h-6.716797
		c0.270508,1.242188,1.134766,1.890625,2.359375,1.890625c0.917969,0,1.583984-0.288086,2.34082-0.990234l1.566406,1.386719
		c-0.900391,1.116211-2.197266,1.799805-3.943359,1.799805C84.408203,30.21582,82.265625,28.181641,82.265625,25.228516z
		 M89.072266,24.417969c-0.162109-1.223633-0.882812-2.052734-2.035156-2.052734c-1.133789,0-1.87207,0.810547-2.087891,2.052734
		H89.072266z"/>
	<path fill="#FFFFFF" d="M93.767578,20.349609h2.736328v1.944336c0.558594-1.333008,1.458984-2.197266,3.079102-2.125v2.863281
		h-0.143555c-1.819336,0-2.935547,1.097656-2.935547,3.402344V30h-2.736328V20.349609z"/>
	<path fill="#FFFFFF" d="M106.691406,20.349609h2.736328v1.368164c0.630859-0.810547,1.44043-1.548828,2.827148-1.548828
		c2.070312,0,3.277344,1.368164,3.277344,3.583008V30h-2.737305v-5.383789c0-1.295898-0.612305-1.961914-1.65625-1.961914
		c-1.044922,0-1.710938,0.666016-1.710938,1.961914V30h-2.736328V20.349609z"/>
	<path fill="#FFFFFF" d="M117.436523,25.228516v-0.036133c0-2.772461,2.233398-5.023438,5.240234-5.023438
		c2.988281,0,5.203125,2.214844,5.203125,4.987305v0.036133c0,2.773438-2.232422,5.023438-5.239258,5.023438
		C119.651367,30.21582,117.436523,28.000977,117.436523,25.228516z M125.179688,25.228516v-0.036133
		c0-1.421875-1.026367-2.665039-2.539062-2.665039c-1.566406,0-2.50293,1.207031-2.50293,2.628906v0.036133
		c0,1.422852,1.026367,2.665039,2.539062,2.665039C124.243164,27.857422,125.179688,26.651367,125.179688,25.228516z"/>
	<path fill="#FFFFFF" d="M128.615234,20.349609h2.772461l1.547852,5.851562l1.819336-5.887695h2.358398l1.836914,5.905273
		l1.583984-5.869141h2.71875l-3.006836,9.722656h-2.466797l-1.854492-5.923828l-1.890625,5.923828h-2.448242L128.615234,20.349609z"
		/>
</g>
</svg>