<svg width="20" height="19" viewBox="0 0 20 19" fill="none" xmlns="http://www.w3.org/2000/svg">
    <path fill-rule="evenodd" clip-rule="evenodd"
          d="M13.8469 3.86107C12.6607 1.49126 10.2362 -0.00388117 7.58608 7.56737e-06C4.54273 -0.0011461 1.84765 1.96503 0.919654 4.86345C-0.00834191 7.76186 1.0436 10.9277 3.52168 12.6944C5.99977 14.4611 9.33562 14.4233 11.7731 12.601L17.8791 18.707L19.2931 17.293L13.1861 11.187C14.7773 9.06775 15.0332 6.23088 13.8469 3.86107ZM12.5861 7.00001C12.5861 9.76143 10.3475 12 7.58608 12C6.26 12 4.98823 11.4732 4.05055 10.5355C3.11287 9.59786 2.58608 8.32609 2.58608 7.00001C2.58608 4.23858 4.82466 2.00001 7.58608 2.00001C10.3475 2.00001 12.5861 4.23858 12.5861 7.00001Z"
          fill="white" fill-opacity="0.75"/>
</svg>
