<svg width="48" height="48" viewBox="0 0 48 48" fill="none" xmlns="http://www.w3.org/2000/svg">
<path fill-rule="evenodd" clip-rule="evenodd" d="M23.9995 3.17627L25.4058 6.97878C28.087 14.2238 33.7758 19.9125 41.0208 22.5938L44.8233 24L41.0208 25.4063C33.7758 28.0875 28.087 33.78 25.4058 41.0213L23.9995 44.8238L22.5933 41.0213C19.912 33.7763 14.2195 28.0875 6.97829 25.4063L3.17578 24L6.97829 22.5938C14.2233 19.9125 19.912 14.22 22.5933 6.97878L23.9995 3.17627ZM11.2233 24C16.7208 26.8125 21.187 31.2788 23.9995 36.7763C26.812 31.2788 31.2783 26.8125 36.7758 24C31.2783 21.1875 26.812 16.7213 23.9995 11.2238C21.187 16.7213 16.7208 21.1875 11.2233 24Z" fill="white" />
<path d="M38.7972 11.6738C38.6135 11.7301 38.4297 11.7638 38.2497 11.7751C37.3047 11.8238 36.4048 11.2388 36.101 10.2938C35.741 9.16878 36.3522 7.96881 37.4772 7.60131C38.6022 7.24131 39.806 7.85628 40.1697 8.98128C40.5335 10.1063 39.9222 11.3101 38.7972 11.6738Z" fill="white" />
</svg>
