<svg width="48" height="48" viewBox="0 0 48 48" fill="none" xmlns="http://www.w3.org/2000/svg">
<path d="M16.7025 27.1049C15.5775 27.4724 14.9662 28.6724 15.3262 29.7974C15.6262 30.7424 16.5262 31.3273 17.4712 31.2786C17.6512 31.2673 17.835 31.2336 18.0187 31.1774C19.1437 30.8136 19.755 29.6099 19.3912 28.4849C19.0312 27.3599 17.8275 26.7411 16.7025 27.1049Z" fill="white" />
<path d="M29.9775 27.1049C28.8525 27.4724 28.2413 28.6724 28.6013 29.7974C28.9013 30.7424 29.8013 31.3273 30.7463 31.2786C30.9263 31.2673 31.11 31.2336 31.2938 31.1774C32.4188 30.8136 33.03 29.6099 32.6663 28.4849C32.3063 27.3599 31.1025 26.7411 29.9775 27.1049Z" fill="white" />
<path fill-rule="evenodd" clip-rule="evenodd" d="M40.3425 15.6711L37.4738 21.4086C42.0713 25.2636 45 31.0461 45 37.4999V38.9999H3V37.4999C3 31.0461 5.92873 25.2636 10.5262 21.4086L7.65752 15.6711L10.3425 14.3286L12.99 19.6274C16.1925 17.6474 19.965 16.4999 24 16.4999C28.035 16.4999 31.8075 17.6474 35.01 19.6274L37.6575 14.3286L40.3425 15.6711ZM24 19.4999C14.58 19.4999 6.82877 26.7749 6.06377 35.9999H41.9362C41.1712 26.7749 33.42 19.4999 24 19.4999Z" fill="white" />
</svg>
