<svg width="548" height="224" viewBox="0 0 548 224" fill="none" xmlns="http://www.w3.org/2000/svg">
<g clip-path="url(#clip0_1570_3234)">
<path d="M24.7549 0.5H139.245C152.641 0.5 163.5 11.3594 163.5 24.7549V317.17C163.5 330.565 152.641 341.425 139.245 341.425H24.7549C11.3594 341.425 0.500082 330.565 0.5 317.17V24.7549C0.5 11.3594 11.3594 0.5 24.7549 0.5Z" fill="#4285F4" fill-opacity="0.01" stroke="#1E6EFF"/>
<rect x="41.5" y="60" width="81" height="32" rx="8" fill="#1E6EFF"/>
<path d="M54.5205 71.9H56.139V75.618H60.2405V71.9H61.8525V81H60.2405V77.0805H56.139V81H54.5205V71.9ZM66.7623 81.156C66.1123 81.156 65.5252 81.0065 65.0008 80.7075C64.4765 80.4085 64.0648 79.9947 63.7658 79.466C63.4668 78.933 63.3173 78.3307 63.3173 77.659C63.3173 77.0047 63.4668 76.4132 63.7658 75.8845C64.0692 75.3558 64.483 74.942 65.0073 74.643C65.536 74.3397 66.121 74.188 66.7623 74.188C67.421 74.188 68.006 74.3353 68.5173 74.63C69.0287 74.9247 69.4252 75.3363 69.7068 75.865C69.9928 76.3937 70.1358 76.9938 70.1358 77.6655V78.036H64.8903C64.9293 78.413 65.0312 78.7423 65.1958 79.024C65.3648 79.3013 65.5837 79.5158 65.8523 79.6675C66.121 79.8192 66.4265 79.895 66.7688 79.895C67.0982 79.895 67.3907 79.8322 67.6463 79.7065C67.9063 79.5808 68.1208 79.4032 68.2898 79.1735H69.9408C69.6982 79.7888 69.2973 80.2742 68.7383 80.6295C68.1793 80.9805 67.5207 81.156 66.7623 81.156ZM68.5563 77.0155C68.4567 76.5258 68.2487 76.1423 67.9323 75.865C67.616 75.5833 67.226 75.4425 66.7623 75.4425C66.2813 75.4425 65.8783 75.5833 65.5533 75.865C65.2283 76.1467 65.0182 76.5302 64.9228 77.0155H68.5563ZM71.5567 71.9H73.0907V81H71.5567V71.9ZM75.0479 71.9H76.5819V81H75.0479V71.9ZM81.4901 81.156C80.8315 81.156 80.2356 81.0043 79.7026 80.701C79.1696 80.3977 78.7515 79.9817 78.4481 79.453C78.1448 78.92 77.9931 78.3263 77.9931 77.672C77.9931 77.0177 78.1448 76.4262 78.4481 75.8975C78.7515 75.3645 79.1696 74.9463 79.7026 74.643C80.2356 74.3397 80.8315 74.188 81.4901 74.188C82.1445 74.188 82.7381 74.3397 83.2711 74.643C83.8041 74.9463 84.2223 75.3645 84.5256 75.8975C84.8333 76.4262 84.9871 77.0177 84.9871 77.672C84.9871 78.3263 84.8333 78.92 84.5256 79.453C84.2223 79.9817 83.8041 80.3977 83.2711 80.701C82.7381 81.0043 82.1445 81.156 81.4901 81.156ZM81.4901 79.7845C81.8628 79.7845 82.1921 79.6957 82.4781 79.518C82.7685 79.3403 82.9938 79.0912 83.1541 78.7705C83.3145 78.4498 83.3946 78.0837 83.3946 77.672C83.3946 77.2603 83.3145 76.8942 83.1541 76.5735C82.9938 76.2485 82.7685 75.9972 82.4781 75.8195C82.1921 75.6418 81.8628 75.553 81.4901 75.553C81.1175 75.553 80.786 75.6418 80.4956 75.8195C80.2096 75.9972 79.9865 76.2485 79.8261 76.5735C79.6658 76.8942 79.5856 77.2603 79.5856 77.672C79.5856 78.0837 79.6658 78.4498 79.8261 78.7705C79.9865 79.0912 80.2096 79.3403 80.4956 79.518C80.786 79.6957 81.1175 79.7845 81.4901 79.7845ZM89.7343 74.344H91.2683V81H89.7343V74.344ZM89.6823 71.9H91.3203V73.3885H89.6823V71.9ZM97.2857 79.726C97.8447 79.726 98.3474 79.5852 98.7937 79.3035C99.2444 79.0175 99.5976 78.6253 99.8532 78.127C100.109 77.6287 100.237 77.0697 100.237 76.45C100.237 75.8303 100.109 75.2713 99.8532 74.773C99.5976 74.2747 99.2444 73.8847 98.7937 73.603C98.3474 73.317 97.8447 73.174 97.2857 73.174C96.7224 73.174 96.2154 73.317 95.7647 73.603C95.3184 73.8847 94.9674 74.2747 94.7117 74.773C94.4561 75.2713 94.3282 75.8303 94.3282 76.45C94.3282 77.0697 94.4561 77.6287 94.7117 78.127C94.9674 78.6253 95.3184 79.0175 95.7647 79.3035C96.2154 79.5852 96.7224 79.726 97.2857 79.726ZM97.2857 81.156C96.4191 81.156 95.6326 80.9523 94.9262 80.545C94.2242 80.1333 93.6717 79.57 93.2687 78.855C92.8657 78.1357 92.6642 77.334 92.6642 76.45C92.6642 75.566 92.8657 74.7665 93.2687 74.0515C93.6717 73.3322 94.2242 72.7688 94.9262 72.3615C95.6326 71.9498 96.4191 71.744 97.2857 71.744C98.1524 71.744 98.9367 71.9498 99.6387 72.3615C100.341 72.7688 100.891 73.3322 101.29 74.0515C101.693 74.7665 101.894 75.566 101.894 76.45C101.894 77.334 101.693 78.1357 101.29 78.855C100.891 79.57 100.341 80.1333 99.6387 80.545C98.9367 80.9523 98.1524 81.156 97.2857 81.156ZM106.315 81.156C105.665 81.156 105.089 81.039 104.586 80.805C104.084 80.5667 103.689 80.2352 103.403 79.8105C103.122 79.3815 102.979 78.8918 102.974 78.3415H104.599C104.599 78.6188 104.673 78.8658 104.82 79.0825C104.968 79.2992 105.171 79.4682 105.431 79.5895C105.696 79.7108 105.999 79.7715 106.341 79.7715C106.671 79.7715 106.959 79.7173 107.206 79.609C107.457 79.4963 107.65 79.3425 107.784 79.1475C107.923 78.9482 107.992 78.7207 107.992 78.465C107.992 78.1487 107.897 77.8887 107.706 77.685C107.516 77.477 107.254 77.3318 106.92 77.2495L105.334 76.892C104.68 76.7403 104.16 76.4457 103.774 76.008C103.388 75.5703 103.195 75.0373 103.195 74.409C103.195 73.8977 103.328 73.4405 103.592 73.0375C103.861 72.6302 104.231 72.3138 104.703 72.0885C105.176 71.8588 105.711 71.744 106.309 71.744C106.92 71.744 107.462 71.8545 107.934 72.0755C108.411 72.2965 108.781 72.6063 109.045 73.005C109.31 73.4037 109.444 73.8587 109.448 74.37H107.823C107.823 74.1273 107.761 73.9128 107.635 73.7265C107.509 73.5402 107.332 73.395 107.102 73.291C106.877 73.1827 106.617 73.1285 106.322 73.1285C106.027 73.1285 105.767 73.1783 105.542 73.278C105.317 73.3777 105.141 73.5207 105.015 73.707C104.89 73.889 104.827 74.0992 104.827 74.3375C104.827 74.6105 104.916 74.8358 105.093 75.0135C105.271 75.1912 105.514 75.319 105.821 75.397L107.355 75.7415C107.802 75.8412 108.196 76.0167 108.538 76.268C108.885 76.5193 109.154 76.8292 109.344 77.1975C109.539 77.5615 109.637 77.958 109.637 78.387C109.637 78.9113 109.496 79.3837 109.214 79.804C108.937 80.2243 108.545 80.5558 108.038 80.7985C107.535 81.0368 106.961 81.156 106.315 81.156Z" fill="white"/>
<rect x="58.5" y="11.5" width="47" height="13" rx="6.5" stroke="#1E6EFF"/>
<mask id="path-5-inside-1_1570_3234" fill="white">
<path d="M176 8C176 3.58172 179.582 0 184 0H540C544.418 0 548 3.58172 548 8V244C548 248.418 544.418 252 540 252H184C179.582 252 176 248.418 176 244V8Z"/>
</mask>
<path d="M176 8C176 3.58172 179.582 0 184 0H540C544.418 0 548 3.58172 548 8V244C548 248.418 544.418 252 540 252H184C179.582 252 176 248.418 176 244V8Z" fill="black"/>
<path d="M184 0V1H540V0V-1H184V0ZM548 8H547V244H548H549V8H548ZM540 252V251H184V252V253H540V252ZM176 244H177V8H176H175V244H176ZM184 252V251C180.134 251 177 247.866 177 244H176H175C175 248.971 179.029 253 184 253V252ZM548 244H547C547 247.866 543.866 251 540 251V252V253C544.971 253 549 248.971 549 244H548ZM540 0V1C543.866 1 547 4.13401 547 8H548H549C549 3.02944 544.971 -1 540 -1V0ZM184 0V-1C179.029 -1 175 3.02944 175 8H176H177C177 4.13401 180.134 1 184 1V0Z" fill="#1E6EFF" mask="url(#path-5-inside-1_1570_3234)"/>
<rect x="184.5" y="8.5" width="11" height="11" rx="5.5" stroke="#1E6EFF"/>
<rect x="204.5" y="8.5" width="11" height="11" rx="5.5" stroke="#1E6EFF"/>
<rect x="224.5" y="8.5" width="11" height="11" rx="5.5" stroke="#1E6EFF"/>
<mask id="path-10-inside-2_1570_3234" fill="white">
<path d="M176 34H548V66H176V34Z"/>
</mask>
<path d="M176 34H548V66H176V34Z" fill="black"/>
<path d="M176 34V33H175V34H176ZM548 34H549V33H548V34ZM176 34V35H548V34V33H176V34ZM548 34H547V66H548H549V34H548ZM176 66H177V34H176H175V66H176Z" fill="#1E6EFF" mask="url(#path-10-inside-2_1570_3234)"/>
<mask id="path-12-inside-3_1570_3234" fill="white">
<path d="M248 10C248 7.79086 249.791 6 252 6H364C366.209 6 368 7.79086 368 10V35H248V10Z"/>
</mask>
<path d="M248 10C248 7.79086 249.791 6 252 6H364C366.209 6 368 7.79086 368 10V35H248V10Z" fill="black"/>
<path d="M247 10C247 7.23858 249.239 5 252 5H364C366.761 5 369 7.23858 369 10H367C367 8.34315 365.657 7 364 7H252C250.343 7 249 8.34315 249 10H247ZM368 35H248H368ZM247 35V10C247 7.23858 249.239 5 252 5V7C250.343 7 249 8.34315 249 10V35H247ZM364 5C366.761 5 369 7.23858 369 10V35H367V10C367 8.34315 365.657 7 364 7V5Z" fill="#1E6EFF" mask="url(#path-12-inside-3_1570_3234)"/>
<rect x="200" y="60" width="88" height="32" rx="8" fill="#1E6EFF"/>
<path d="M213.021 71.9H214.639V75.618H218.741V71.9H220.353V81H218.741V77.0805H214.639V81H213.021V71.9ZM225.262 81.156C224.612 81.156 224.025 81.0065 223.501 80.7075C222.977 80.4085 222.565 79.9947 222.266 79.466C221.967 78.933 221.817 78.3307 221.817 77.659C221.817 77.0047 221.967 76.4132 222.266 75.8845C222.569 75.3558 222.983 74.942 223.507 74.643C224.036 74.3397 224.621 74.188 225.262 74.188C225.921 74.188 226.506 74.3353 227.017 74.63C227.529 74.9247 227.925 75.3363 228.207 75.865C228.493 76.3937 228.636 76.9938 228.636 77.6655V78.036H223.39C223.429 78.413 223.531 78.7423 223.696 79.024C223.865 79.3013 224.084 79.5158 224.352 79.6675C224.621 79.8192 224.927 79.895 225.269 79.895C225.598 79.895 225.891 79.8322 226.146 79.7065C226.406 79.5808 226.621 79.4032 226.79 79.1735H228.441C228.198 79.7888 227.797 80.2742 227.238 80.6295C226.679 80.9805 226.021 81.156 225.262 81.156ZM227.056 77.0155C226.957 76.5258 226.749 76.1423 226.432 75.865C226.116 75.5833 225.726 75.4425 225.262 75.4425C224.781 75.4425 224.378 75.5833 224.053 75.865C223.728 76.1467 223.518 76.5302 223.423 77.0155H227.056ZM230.057 71.9H231.591V81H230.057V71.9ZM233.548 71.9H235.082V81H233.548V71.9ZM239.99 81.156C239.331 81.156 238.736 81.0043 238.203 80.701C237.67 80.3977 237.251 79.9817 236.948 79.453C236.645 78.92 236.493 78.3263 236.493 77.672C236.493 77.0177 236.645 76.4262 236.948 75.8975C237.251 75.3645 237.67 74.9463 238.203 74.643C238.736 74.3397 239.331 74.188 239.99 74.188C240.644 74.188 241.238 74.3397 241.771 74.643C242.304 74.9463 242.722 75.3645 243.026 75.8975C243.333 76.4262 243.487 77.0177 243.487 77.672C243.487 78.3263 243.333 78.92 243.026 79.453C242.722 79.9817 242.304 80.3977 241.771 80.701C241.238 81.0043 240.644 81.156 239.99 81.156ZM239.99 79.7845C240.363 79.7845 240.692 79.6957 240.978 79.518C241.268 79.3403 241.494 79.0912 241.654 78.7705C241.814 78.4498 241.895 78.0837 241.895 77.672C241.895 77.2603 241.814 76.8942 241.654 76.5735C241.494 76.2485 241.268 75.9972 240.978 75.8195C240.692 75.6418 240.363 75.553 239.99 75.553C239.617 75.553 239.286 75.6418 238.996 75.8195C238.71 75.9972 238.486 76.2485 238.326 76.5735C238.166 76.8942 238.086 77.2603 238.086 77.672C238.086 78.0837 238.166 78.4498 238.326 78.7705C238.486 79.0912 238.71 79.3403 238.996 79.518C239.286 79.6957 239.617 79.7845 239.99 79.7845ZM248.974 71.9L251.093 78.9395L253.128 71.9H254.844L256.924 78.9395L258.978 71.9H260.622L257.814 81H256.02L253.966 73.993L251.893 81H250.105L247.291 71.9H248.974ZM263.97 81.156C263.32 81.156 262.733 81.0065 262.209 80.7075C261.685 80.4085 261.273 79.9947 260.974 79.466C260.675 78.933 260.525 78.3307 260.525 77.659C260.525 77.0047 260.675 76.4132 260.974 75.8845C261.277 75.3558 261.691 74.942 262.215 74.643C262.744 74.3397 263.329 74.188 263.97 74.188C264.629 74.188 265.214 74.3353 265.725 74.63C266.237 74.9247 266.633 75.3363 266.915 75.865C267.201 76.3937 267.344 76.9938 267.344 77.6655V78.036H262.098C262.137 78.413 262.239 78.7423 262.404 79.024C262.573 79.3013 262.792 79.5158 263.06 79.6675C263.329 79.8192 263.635 79.895 263.977 79.895C264.306 79.895 264.599 79.8322 264.854 79.7065C265.114 79.5808 265.329 79.4032 265.498 79.1735H267.149C266.906 79.7888 266.505 80.2742 265.946 80.6295C265.387 80.9805 264.729 81.156 263.97 81.156ZM265.764 77.0155C265.665 76.5258 265.457 76.1423 265.14 75.865C264.824 75.5833 264.434 75.4425 263.97 75.4425C263.489 75.4425 263.086 75.5833 262.761 75.865C262.436 76.1467 262.226 76.5302 262.131 77.0155H265.764ZM268.674 71.9H270.208V75.319C270.446 74.9593 270.76 74.682 271.15 74.487C271.54 74.2877 271.982 74.188 272.476 74.188C273.066 74.188 273.592 74.3375 274.056 74.6365C274.524 74.9312 274.89 75.345 275.154 75.878C275.419 76.4067 275.551 77.0047 275.551 77.672C275.551 78.3437 275.419 78.9438 275.154 79.4725C274.89 80.0012 274.524 80.415 274.056 80.714C273.588 81.0087 273.059 81.156 272.47 81.156C271.976 81.156 271.534 81.0585 271.144 80.8635C270.758 80.6642 270.446 80.3847 270.208 80.025V81H268.674V71.9ZM272.099 79.791C272.468 79.791 272.793 79.7022 273.074 79.5245C273.36 79.3468 273.581 79.0977 273.737 78.777C273.898 78.452 273.978 78.0837 273.978 77.672C273.978 77.2603 273.898 76.8942 273.737 76.5735C273.581 76.2485 273.36 75.9972 273.074 75.8195C272.793 75.6418 272.468 75.553 272.099 75.553C271.748 75.553 271.434 75.6332 271.157 75.7935C270.879 75.9538 270.658 76.1792 270.494 76.4695C270.329 76.7598 270.234 77.0957 270.208 77.477V77.867C270.234 78.2483 270.329 78.5842 270.494 78.8745C270.658 79.1648 270.879 79.3902 271.157 79.5505C271.434 79.7108 271.748 79.791 272.099 79.791Z" fill="white"/>
</g>
<g clip-path="url(#clip1_1570_3234)">
<rect width="164" height="348.082" transform="translate(0 116)" fill="black"/>
<path d="M13.3877 116.5H150.612C157.73 116.5 163.5 122.271 163.5 129.39V450.733C163.5 457.852 157.73 463.622 150.612 463.622H13.3877C6.27016 463.622 0.500148 457.852 0.5 450.733V129.39L0.503906 129.057C0.680336 122.092 6.38128 116.5 13.3877 116.5Z" fill="#4285F4" fill-opacity="0.01" stroke="#1E6EFF"/>
<circle cx="82" cy="129" r="3.5" stroke="#1E6EFF"/>
<rect x="28" y="176" width="108" height="32" rx="8" fill="#1E6EFF"/>
<path d="M41.0205 187.9H42.639V191.618H46.7405V187.9H48.3525V197H46.7405V193.08H42.639V197H41.0205V187.9ZM53.2623 197.156C52.6123 197.156 52.0252 197.006 51.5008 196.707C50.9765 196.408 50.5648 195.995 50.2658 195.466C49.9668 194.933 49.8173 194.331 49.8173 193.659C49.8173 193.005 49.9668 192.413 50.2658 191.884C50.5692 191.356 50.983 190.942 51.5073 190.643C52.036 190.34 52.621 190.188 53.2623 190.188C53.921 190.188 54.506 190.335 55.0173 190.63C55.5287 190.925 55.9252 191.336 56.2068 191.865C56.4928 192.394 56.6358 192.994 56.6358 193.665V194.036H51.3903C51.4293 194.413 51.5312 194.742 51.6958 195.024C51.8648 195.301 52.0837 195.516 52.3523 195.667C52.621 195.819 52.9265 195.895 53.2688 195.895C53.5982 195.895 53.8907 195.832 54.1463 195.706C54.4063 195.581 54.6208 195.403 54.7898 195.173H56.4408C56.1982 195.789 55.7973 196.274 55.2383 196.629C54.6793 196.98 54.0207 197.156 53.2623 197.156ZM55.0563 193.015C54.9567 192.526 54.7487 192.142 54.4323 191.865C54.116 191.583 53.726 191.442 53.2623 191.442C52.7813 191.442 52.3783 191.583 52.0533 191.865C51.7283 192.147 51.5182 192.53 51.4228 193.015H55.0563ZM58.0567 187.9H59.5907V197H58.0567V187.9ZM61.5479 187.9H63.0819V197H61.5479V187.9ZM67.9901 197.156C67.3315 197.156 66.7356 197.004 66.2026 196.701C65.6696 196.398 65.2515 195.982 64.9481 195.453C64.6448 194.92 64.4931 194.326 64.4931 193.672C64.4931 193.018 64.6448 192.426 64.9481 191.897C65.2515 191.364 65.6696 190.946 66.2026 190.643C66.7356 190.34 67.3315 190.188 67.9901 190.188C68.6445 190.188 69.2381 190.34 69.7711 190.643C70.3041 190.946 70.7223 191.364 71.0256 191.897C71.3333 192.426 71.4871 193.018 71.4871 193.672C71.4871 194.326 71.3333 194.92 71.0256 195.453C70.7223 195.982 70.3041 196.398 69.7711 196.701C69.2381 197.004 68.6445 197.156 67.9901 197.156ZM67.9901 195.784C68.3628 195.784 68.6921 195.696 68.9781 195.518C69.2685 195.34 69.4938 195.091 69.6541 194.77C69.8145 194.45 69.8946 194.084 69.8946 193.672C69.8946 193.26 69.8145 192.894 69.6541 192.573C69.4938 192.248 69.2685 191.997 68.9781 191.819C68.6921 191.642 68.3628 191.553 67.9901 191.553C67.6175 191.553 67.286 191.642 66.9956 191.819C66.7096 191.997 66.4865 192.248 66.3261 192.573C66.1658 192.894 66.0856 193.26 66.0856 193.672C66.0856 194.084 66.1658 194.45 66.3261 194.77C66.4865 195.091 66.7096 195.34 66.9956 195.518C67.286 195.696 67.6175 195.784 67.9901 195.784ZM78.611 187.9H80.3595L83.7655 197H82.1275L81.354 194.816H77.701L76.986 197H75.309L78.611 187.9ZM80.9185 193.542L79.612 189.895L79.469 189.33L79.3325 189.895L78.104 193.542H80.9185ZM84.8036 190.344H86.2921V191.306C86.5088 190.946 86.7948 190.671 87.1501 190.48C87.5054 190.285 87.9128 190.188 88.3721 190.188C88.8488 190.188 89.2669 190.292 89.6266 190.5C89.9863 190.708 90.2658 191.009 90.4651 191.403C90.6644 191.798 90.7641 192.268 90.7641 192.814V197H89.2366V193.048C89.2366 192.571 89.1153 192.201 88.8726 191.936C88.6343 191.668 88.3028 191.533 87.8781 191.533C87.5748 191.533 87.3061 191.603 87.0721 191.741C86.8381 191.876 86.6561 192.066 86.5261 192.313C86.4004 192.556 86.3376 192.833 86.3376 193.145V197H84.8036V190.344ZM97.3026 196.012C97.0642 196.376 96.7501 196.658 96.3601 196.857C95.9701 197.056 95.5281 197.156 95.0341 197.156C94.4447 197.156 93.9161 197.009 93.4481 196.714C92.9801 196.415 92.6139 196.001 92.3496 195.472C92.0852 194.944 91.9531 194.344 91.9531 193.672C91.9531 193.005 92.0852 192.407 92.3496 191.878C92.6139 191.345 92.9779 190.931 93.4416 190.636C93.9096 190.337 94.4382 190.188 95.0276 190.188C95.5259 190.188 95.9701 190.288 96.3601 190.487C96.7501 190.686 97.0642 190.968 97.3026 191.332V187.9H98.8366V197H97.3026V196.012ZM95.4046 195.791C95.7772 195.791 96.1066 195.702 96.3926 195.524C96.6829 195.347 96.9061 195.098 97.0621 194.777C97.2224 194.456 97.3026 194.088 97.3026 193.672C97.3026 193.256 97.2224 192.888 97.0621 192.567C96.9061 192.246 96.6829 191.997 96.3926 191.819C96.1066 191.642 95.7772 191.553 95.4046 191.553C95.0362 191.553 94.7091 191.642 94.4231 191.819C94.1414 191.997 93.9204 192.248 93.7601 192.573C93.6041 192.894 93.5261 193.26 93.5261 193.672C93.5261 194.084 93.6041 194.452 93.7601 194.777C93.9204 195.098 94.1414 195.347 94.4231 195.524C94.7091 195.702 95.0362 195.791 95.4046 195.791ZM100.622 190.344H102.143V191.351C102.351 191.009 102.613 190.749 102.929 190.571C103.25 190.389 103.614 190.298 104.021 190.298H104.268V191.845H103.839C103.319 191.845 102.908 191.986 102.604 192.268C102.305 192.545 102.156 192.924 102.156 193.405V197H100.622V190.344ZM108.399 197.156C107.741 197.156 107.145 197.004 106.612 196.701C106.079 196.398 105.661 195.982 105.357 195.453C105.054 194.92 104.902 194.326 104.902 193.672C104.902 193.018 105.054 192.426 105.357 191.897C105.661 191.364 106.079 190.946 106.612 190.643C107.145 190.34 107.741 190.188 108.399 190.188C109.054 190.188 109.647 190.34 110.18 190.643C110.713 190.946 111.131 191.364 111.435 191.897C111.742 192.426 111.896 193.018 111.896 193.672C111.896 194.326 111.742 194.92 111.435 195.453C111.131 195.982 110.713 196.398 110.18 196.701C109.647 197.004 109.054 197.156 108.399 197.156ZM108.399 195.784C108.772 195.784 109.101 195.696 109.387 195.518C109.678 195.34 109.903 195.091 110.063 194.77C110.224 194.45 110.304 194.084 110.304 193.672C110.304 193.26 110.224 192.894 110.063 192.573C109.903 192.248 109.678 191.997 109.387 191.819C109.101 191.642 108.772 191.553 108.399 191.553C108.027 191.553 107.695 191.642 107.405 191.819C107.119 191.997 106.896 192.248 106.735 192.573C106.575 192.894 106.495 193.26 106.495 193.672C106.495 194.084 106.575 194.45 106.735 194.77C106.896 195.091 107.119 195.34 107.405 195.518C107.695 195.696 108.027 195.784 108.399 195.784ZM113.228 190.344H114.762V197H113.228V190.344ZM113.176 187.9H114.814V189.388H113.176V187.9ZM121.436 196.012C121.198 196.376 120.884 196.658 120.494 196.857C120.104 197.056 119.662 197.156 119.168 197.156C118.579 197.156 118.05 197.009 117.582 196.714C117.114 196.415 116.748 196.001 116.483 195.472C116.219 194.944 116.087 194.344 116.087 193.672C116.087 193.005 116.219 192.407 116.483 191.878C116.748 191.345 117.112 190.931 117.575 190.636C118.043 190.337 118.572 190.188 119.161 190.188C119.66 190.188 120.104 190.288 120.494 190.487C120.884 190.686 121.198 190.968 121.436 191.332V187.9H122.97V197H121.436V196.012ZM119.538 195.791C119.911 195.791 120.24 195.702 120.526 195.524C120.817 195.347 121.04 195.098 121.196 194.777C121.356 194.456 121.436 194.088 121.436 193.672C121.436 193.256 121.356 192.888 121.196 192.567C121.04 192.246 120.817 191.997 120.526 191.819C120.24 191.642 119.911 191.553 119.538 191.553C119.17 191.553 118.843 191.642 118.557 191.819C118.275 191.997 118.054 192.248 117.894 192.573C117.738 192.894 117.66 193.26 117.66 193.672C117.66 194.084 117.738 194.452 117.894 194.777C118.054 195.098 118.275 195.347 118.557 195.524C118.843 195.702 119.17 195.791 119.538 195.791Z" fill="white"/>
<rect x="176.5" y="116.5" width="371" height="347" rx="7.5" fill="black"/>
<rect x="176.5" y="116.5" width="371" height="347" rx="7.5" stroke="#1E6EFF"/>
<circle cx="190" cy="130" r="5.5" stroke="#1E6EFF"/>
<circle cx="210" cy="130" r="5.5" stroke="#1E6EFF"/>
<circle cx="230" cy="130" r="5.5" stroke="#1E6EFF"/>
<rect x="200" y="176" width="112" height="32" rx="8" fill="#1E6EFF"/>
<path d="M213.021 187.9H214.639V191.618H218.741V187.9H220.353V197H218.741V193.08H214.639V197H213.021V187.9ZM225.262 197.156C224.612 197.156 224.025 197.006 223.501 196.707C222.977 196.408 222.565 195.995 222.266 195.466C221.967 194.933 221.817 194.331 221.817 193.659C221.817 193.005 221.967 192.413 222.266 191.884C222.569 191.356 222.983 190.942 223.507 190.643C224.036 190.34 224.621 190.188 225.262 190.188C225.921 190.188 226.506 190.335 227.017 190.63C227.529 190.925 227.925 191.336 228.207 191.865C228.493 192.394 228.636 192.994 228.636 193.665V194.036H223.39C223.429 194.413 223.531 194.742 223.696 195.024C223.865 195.301 224.084 195.516 224.352 195.667C224.621 195.819 224.927 195.895 225.269 195.895C225.598 195.895 225.891 195.832 226.146 195.706C226.406 195.581 226.621 195.403 226.79 195.173H228.441C228.198 195.789 227.797 196.274 227.238 196.629C226.679 196.98 226.021 197.156 225.262 197.156ZM227.056 193.015C226.957 192.526 226.749 192.142 226.432 191.865C226.116 191.583 225.726 191.442 225.262 191.442C224.781 191.442 224.378 191.583 224.053 191.865C223.728 192.147 223.518 192.53 223.423 193.015H227.056ZM230.057 187.9H231.591V197H230.057V187.9ZM233.548 187.9H235.082V197H233.548V187.9ZM239.99 197.156C239.331 197.156 238.736 197.004 238.203 196.701C237.67 196.398 237.251 195.982 236.948 195.453C236.645 194.92 236.493 194.326 236.493 193.672C236.493 193.018 236.645 192.426 236.948 191.897C237.251 191.364 237.67 190.946 238.203 190.643C238.736 190.34 239.331 190.188 239.99 190.188C240.644 190.188 241.238 190.34 241.771 190.643C242.304 190.946 242.722 191.364 243.026 191.897C243.333 192.426 243.487 193.018 243.487 193.672C243.487 194.326 243.333 194.92 243.026 195.453C242.722 195.982 242.304 196.398 241.771 196.701C241.238 197.004 240.644 197.156 239.99 197.156ZM239.99 195.784C240.363 195.784 240.692 195.696 240.978 195.518C241.268 195.34 241.494 195.091 241.654 194.77C241.814 194.45 241.895 194.084 241.895 193.672C241.895 193.26 241.814 192.894 241.654 192.573C241.494 192.248 241.268 191.997 240.978 191.819C240.692 191.642 240.363 191.553 239.99 191.553C239.617 191.553 239.286 191.642 238.996 191.819C238.71 191.997 238.486 192.248 238.326 192.573C238.166 192.894 238.086 193.26 238.086 193.672C238.086 194.084 238.166 194.45 238.326 194.77C238.486 195.091 238.71 195.34 238.996 195.518C239.286 195.696 239.617 195.784 239.99 195.784ZM248.364 187.9H251.777C252.635 187.9 253.404 188.095 254.084 188.485C254.765 188.871 255.295 189.41 255.677 190.103C256.058 190.792 256.249 191.575 256.249 192.45C256.249 193.325 256.058 194.11 255.677 194.803C255.295 195.492 254.765 196.031 254.084 196.421C253.404 196.807 252.635 197 251.777 197H248.364V187.9ZM251.764 195.589C252.327 195.589 252.821 195.462 253.246 195.206C253.675 194.95 254.004 194.586 254.234 194.114C254.468 193.637 254.585 193.083 254.585 192.45C254.585 191.817 254.468 191.265 254.234 190.792C254.004 190.316 253.675 189.95 253.246 189.694C252.821 189.438 252.327 189.31 251.764 189.31H249.983V195.589H251.764ZM260.631 197.156C259.981 197.156 259.394 197.006 258.87 196.707C258.346 196.408 257.934 195.995 257.635 195.466C257.336 194.933 257.186 194.331 257.186 193.659C257.186 193.005 257.336 192.413 257.635 191.884C257.938 191.356 258.352 190.942 258.876 190.643C259.405 190.34 259.99 190.188 260.631 190.188C261.29 190.188 261.875 190.335 262.386 190.63C262.898 190.925 263.294 191.336 263.576 191.865C263.862 192.394 264.005 192.994 264.005 193.665V194.036H258.759C258.798 194.413 258.9 194.742 259.065 195.024C259.234 195.301 259.453 195.516 259.721 195.667C259.99 195.819 260.296 195.895 260.638 195.895C260.967 195.895 261.26 195.832 261.515 195.706C261.775 195.581 261.99 195.403 262.159 195.173H263.81C263.567 195.789 263.166 196.274 262.607 196.629C262.048 196.98 261.39 197.156 260.631 197.156ZM262.425 193.015C262.326 192.526 262.118 192.142 261.801 191.865C261.485 191.583 261.095 191.442 260.631 191.442C260.15 191.442 259.747 191.583 259.422 191.865C259.097 192.147 258.887 192.53 258.792 193.015H262.425ZM267.785 197.156C267.239 197.156 266.754 197.071 266.329 196.902C265.905 196.729 265.567 196.486 265.315 196.174C265.064 195.862 264.923 195.501 264.893 195.089H266.427C266.466 195.353 266.605 195.561 266.843 195.713C267.086 195.86 267.398 195.934 267.779 195.934C268.143 195.934 268.442 195.86 268.676 195.713C268.91 195.561 269.027 195.36 269.027 195.108C269.027 194.926 268.962 194.77 268.832 194.64C268.706 194.51 268.537 194.428 268.325 194.393L266.849 194.146C266.494 194.09 266.184 193.973 265.92 193.795C265.656 193.613 265.45 193.388 265.302 193.119C265.159 192.851 265.088 192.556 265.088 192.235C265.088 191.841 265.194 191.49 265.406 191.182C265.619 190.87 265.92 190.628 266.31 190.454C266.704 190.277 267.157 190.188 267.668 190.188C268.171 190.188 268.622 190.27 269.02 190.435C269.419 190.6 269.738 190.834 269.976 191.137C270.214 191.44 270.349 191.796 270.379 192.203H268.851C268.808 191.952 268.678 191.75 268.461 191.598C268.249 191.447 267.985 191.371 267.668 191.371C267.339 191.371 267.073 191.445 266.869 191.592C266.67 191.739 266.57 191.932 266.57 192.17C266.57 192.513 266.821 192.729 267.324 192.82L268.786 193.074C269.137 193.135 269.445 193.26 269.709 193.451C269.974 193.637 270.175 193.869 270.314 194.146C270.457 194.424 270.528 194.725 270.528 195.05C270.528 195.457 270.407 195.821 270.164 196.142C269.926 196.458 269.599 196.707 269.183 196.889C268.767 197.067 268.301 197.156 267.785 197.156ZM271.873 187.9H273.407V193.308L276.007 190.344H277.788L275.09 193.451L277.905 197H276.039L273.407 193.698V197H271.873V187.9ZM281.192 197C280.836 197 280.516 196.924 280.23 196.772C279.948 196.621 279.727 196.411 279.567 196.142C279.411 195.873 279.333 195.57 279.333 195.232L279.326 191.676H278.156L278.163 190.344H278.891C279.055 190.344 279.187 190.294 279.287 190.194C279.387 190.09 279.437 189.958 279.437 189.798V188.719H280.867V190.344H282.635L282.628 191.676H280.86L280.867 195.037C280.867 195.219 280.925 195.371 281.042 195.492C281.163 195.609 281.315 195.667 281.497 195.667H282.628V197H281.192ZM286.937 197.156C286.279 197.156 285.683 197.004 285.15 196.701C284.617 196.398 284.199 195.982 283.895 195.453C283.592 194.92 283.44 194.326 283.44 193.672C283.44 193.018 283.592 192.426 283.895 191.897C284.199 191.364 284.617 190.946 285.15 190.643C285.683 190.34 286.279 190.188 286.937 190.188C287.592 190.188 288.185 190.34 288.718 190.643C289.251 190.946 289.67 191.364 289.973 191.897C290.281 192.426 290.434 193.018 290.434 193.672C290.434 194.326 290.281 194.92 289.973 195.453C289.67 195.982 289.251 196.398 288.718 196.701C288.185 197.004 287.592 197.156 286.937 197.156ZM286.937 195.784C287.31 195.784 287.639 195.696 287.925 195.518C288.216 195.34 288.441 195.091 288.601 194.77C288.762 194.45 288.842 194.084 288.842 193.672C288.842 193.26 288.762 192.894 288.601 192.573C288.441 192.248 288.216 191.997 287.925 191.819C287.639 191.642 287.31 191.553 286.937 191.553C286.565 191.553 286.233 191.642 285.943 191.819C285.657 191.997 285.434 192.248 285.273 192.573C285.113 192.894 285.033 193.26 285.033 193.672C285.033 194.084 285.113 194.45 285.273 194.77C285.434 195.091 285.657 195.34 285.943 195.518C286.233 195.696 286.565 195.784 286.937 195.784ZM293.268 190.344V191.384C293.506 191.003 293.823 190.708 294.217 190.5C294.616 190.292 295.068 190.188 295.575 190.188C296.165 190.188 296.691 190.337 297.155 190.636C297.623 190.931 297.989 191.345 298.253 191.878C298.518 192.407 298.65 193.005 298.65 193.672C298.65 194.344 298.518 194.944 298.253 195.472C297.989 196.001 297.623 196.415 297.155 196.714C296.687 197.009 296.158 197.156 295.569 197.156C295.075 197.156 294.633 197.056 294.243 196.857C293.853 196.658 293.539 196.376 293.3 196.012V199.08H291.766V190.344H293.268ZM295.198 195.791C295.567 195.791 295.892 195.702 296.173 195.524C296.459 195.347 296.68 195.098 296.836 194.777C296.997 194.452 297.077 194.084 297.077 193.672C297.077 193.26 296.997 192.894 296.836 192.573C296.68 192.248 296.459 191.997 296.173 191.819C295.892 191.642 295.567 191.553 295.198 191.553C294.826 191.553 294.494 191.642 294.204 191.819C293.918 191.997 293.695 192.246 293.534 192.567C293.378 192.888 293.3 193.256 293.3 193.672C293.3 194.088 293.378 194.456 293.534 194.777C293.695 195.098 293.918 195.347 294.204 195.524C294.494 195.702 294.826 195.791 295.198 195.791Z" fill="white"/>
</g>
<defs>
<clipPath id="clip0_1570_3234">
<rect width="548" height="108" fill="white"/>
</clipPath>
<clipPath id="clip1_1570_3234">
<rect width="548" height="108" fill="white" transform="translate(0 116)"/>
</clipPath>
</defs>
</svg>
