<svg id="Layer_1" data-name="Layer 1" xmlns="http://www.w3.org/2000/svg" width="99.35881" height="121.40375" viewBox="0 0 99.35881 121.40375">
  <title>icons</title>
  <g>
    <path d="M21.30867,82.27862A19.59942,19.59942,0,1,0,39.12558,103.5115,19.62184,19.62184,0,0,0,21.30867,82.27862Zm7.63372,20.342a9.37754,9.37754,0,1,1-8.52463-10.15878A9.38793,9.38793,0,0,1,28.94239,102.62059Z" fill="#497bbc"/>
    <path d="M98.9562,97.83776A19.55673,19.55673,0,0,0,69.81907,84.93768L8.0707.18637a36.92989,36.92989,0,0,0,.41163,40.67714,37.16008,37.16008,0,0,0,2.31094,3.03635L64.86783,114.587A19.62117,19.62117,0,0,0,98.9562,97.83776Zm-18.38056,13.307a9.37734,9.37734,0,1,1,8.52463-10.15928A9.38813,9.38813,0,0,1,80.57564,111.14481Z" fill="#497bbc"/>
    <path d="M90.89444,40.67714A36.92989,36.92989,0,0,0,91.30607,0L58.58274,49.34931,72.06593,67.60347Z" fill="#497bbc"/>
  </g>
</svg>
