<?xml version="1.0" encoding="utf-8"?>
<!-- Generator: Adobe Illustrator 21.0.2, SVG Export Plug-In . SVG Version: 6.00 Build 0)  -->
<svg version="1.1" id="Layer_1" xmlns="http://www.w3.org/2000/svg" xmlns:xlink="http://www.w3.org/1999/xlink" x="0px" y="0px"
	 viewBox="0 0 62.6 72.4" style="enable-background:new 0 0 62.6 72.4;" xml:space="preserve">
<style type="text/css">
	.st0{fill:#497BBC;}
	.st1{fill:#5C5C5C;}
</style>
<g>
	<path class="st0" d="M14.8,23.3h-2.3v15.4h0v16.2c0,1.2,1,2.2,2.2,2.2h3.6V68c0,2.4,2,4.4,4.4,4.4s4.4-2,4.4-4.4V57.2h8.2V68
		c0,2.4,2,4.4,4.4,4.4c2.4,0,4.4-2,4.4-4.4V57.2h3.6c1.2,0,2.2-1,2.2-2.2V38.7h0V23.3h-2.3H14.8z"/>
	<path class="st0" d="M58.3,23.5c-2.4,0-4.4,2-4.4,4.4v16.7c0,2.4,2,4.4,4.4,4.4c2.4,0,4.4-2,4.4-4.4V27.8
		C62.6,25.4,60.7,23.5,58.3,23.5z"/>
	<path class="st0" d="M4.4,23.5c-2.4,0-4.4,2-4.4,4.4v16.7c0,2.4,2,4.4,4.4,4.4c2.4,0,4.4-2,4.4-4.4V27.8
		C8.8,25.4,6.8,23.5,4.4,23.5z"/>
	<path class="st0" d="M41.3,6.1L44,1.5c0.3-0.5,0.1-1.1-0.4-1.3c-0.5-0.3-1.1-0.1-1.3,0.4l-2.8,4.8c-2.2-0.9-4.9-1.4-8.2-1.4
		c-3.1,0-5.7,0.5-7.9,1.3l-2.7-4.6c-0.3-0.5-0.9-0.6-1.3-0.4C19,0.4,18.8,1,19.1,1.5l2.5,4.4c-8.6,4.3-8.9,13.8-8.9,13.8h37.2
		C49.9,19.7,49.6,10.5,41.3,6.1z M23.2,13.8c-1.2,0-2.2-1-2.2-2.2c0-1.2,1-2.2,2.2-2.2c1.2,0,2.2,1,2.2,2.2
		C25.4,12.8,24.4,13.8,23.2,13.8z M38.4,13.8c-1.2,0-2.2-1-2.2-2.2c0-1.2,1-2.2,2.2-2.2c1.2,0,2.2,1,2.2,2.2
		C40.7,12.8,39.7,13.8,38.4,13.8z"/>
</g>
</svg>
