<?xml version="1.0" encoding="utf-8"?>
<!-- Generator: Adobe Illustrator 18.1.1, SVG Export Plug-In . SVG Version: 6.00 Build 0)  -->
<svg version="1.1" id="Layer_1" xmlns="http://www.w3.org/2000/svg" xmlns:xlink="http://www.w3.org/1999/xlink" x="0px" y="0px"
	 viewBox="0 0 51 51" enable-background="new 0 0 51 51" xml:space="preserve">
<rect x="0" y="0" fill="#456DA1" width="51" height="51"/>
<g>
	<path fill="#393939" d="M8.6,8.2L8.6,8.2L6.7,9L6.4,7.4l2.5-1.2h1.8v9.5H8.6V8.2z"/>
	<path fill="#393939" d="M20.8,10.9c0,2.9-1.2,4.9-3.6,4.9c-2.4,0-3.5-2.2-3.5-4.9c0-2.7,1.2-4.9,3.6-4.9C19.8,6,20.8,8.3,20.8,10.9
		z M15.9,10.9c0,2.2,0.5,3.2,1.4,3.2c0.9,0,1.3-1.1,1.3-3.2c0-2.1-0.5-3.2-1.3-3.2C16.4,7.7,15.9,8.7,15.9,10.9z"/>
	<path fill="#393939" d="M24.7,8.2L24.7,8.2L22.9,9l-0.4-1.7L25,6.2h1.8v9.5h-2.1V8.2z"/>
	<path fill="#393939" d="M32.8,8.2L32.8,8.2L31,9l-0.4-1.7l2.5-1.2h1.8v9.5h-2.1V8.2z"/>
	<path fill="#393939" d="M45,10.9c0,2.9-1.2,4.9-3.6,4.9c-2.4,0-3.5-2.2-3.5-4.9c0-2.7,1.2-4.9,3.6-4.9C44,6,45,8.3,45,10.9z
		 M40.1,10.9c0,2.2,0.5,3.2,1.4,3.2c0.9,0,1.3-1.1,1.3-3.2c0-2.1-0.5-3.2-1.3-3.2C40.7,7.7,40.1,8.7,40.1,10.9z"/>
</g>
<g>
	<path fill="#393939" d="M8.6,36.4L8.6,36.4l-1.8,0.9l-0.4-1.7l2.5-1.2h1.8v9.5H8.6V36.4z"/>
	<path fill="#393939" d="M20.8,39.1c0,2.9-1.2,4.9-3.6,4.9c-2.4,0-3.5-2.2-3.5-4.9c0-2.7,1.2-4.9,3.6-4.9
		C19.8,34.3,20.8,36.5,20.8,39.1z M15.9,39.2c0,2.2,0.5,3.2,1.4,3.2c0.9,0,1.3-1.1,1.3-3.2c0-2.1-0.5-3.2-1.3-3.2
		C16.4,35.9,15.9,37,15.9,39.2z"/>
	<path fill="#393939" d="M24.7,36.4L24.7,36.4l-1.8,0.9l-0.4-1.7l2.5-1.2h1.8v9.5h-2.1V36.4z"/>
	<path fill="#393939" d="M37,39.1c0,2.9-1.2,4.9-3.6,4.9c-2.4,0-3.5-2.2-3.5-4.9c0-2.7,1.2-4.9,3.6-4.9C36,34.3,37,36.5,37,39.1z
		 M32.1,39.2c0,2.2,0.5,3.2,1.4,3.2c0.9,0,1.3-1.1,1.3-3.2c0-2.1-0.5-3.2-1.3-3.2C32.6,35.9,32,37,32.1,39.2z"/>
	<path fill="#393939" d="M40.9,36.4L40.9,36.4L39,37.2l-0.4-1.7l2.5-1.2H43v9.5h-2.1V36.4z"/>
</g>
<g>
	<path fill="#393939" d="M12.7,25.1c0,2.9-1.2,4.9-3.6,4.9c-2.4,0-3.5-2.2-3.5-4.9c0-2.7,1.2-4.9,3.6-4.9
		C11.7,20.3,12.7,22.5,12.7,25.1z M7.8,25.2c0,2.2,0.5,3.2,1.4,3.2c0.9,0,1.3-1.1,1.3-3.2c0-2.1-0.5-3.2-1.3-3.2
		C8.4,21.9,7.8,23,7.8,25.2z"/>
	<path fill="#393939" d="M16.6,22.4L16.6,22.4l-1.8,0.9l-0.4-1.7l2.5-1.2h1.8v9.5h-2.1V22.4z"/>
	<path fill="#393939" d="M28.9,25.1c0,2.9-1.2,4.9-3.6,4.9c-2.4,0-3.5-2.2-3.5-4.9c0-2.7,1.2-4.9,3.6-4.9
		C27.9,20.3,28.9,22.5,28.9,25.1z M24,25.2c0,2.2,0.5,3.2,1.4,3.2c0.9,0,1.3-1.1,1.3-3.2c0-2.1-0.5-3.2-1.3-3.2
		C24.5,21.9,24,23,24,25.2z"/>
	<path fill="#393939" d="M32.8,22.4L32.8,22.4L31,23.3l-0.4-1.7l2.5-1.2h1.8v9.5h-2.1V22.4z"/>
	<path fill="#393939" d="M45,25.1c0,2.9-1.2,4.9-3.6,4.9c-2.4,0-3.5-2.2-3.5-4.9c0-2.7,1.2-4.9,3.6-4.9C44,20.3,45,22.5,45,25.1z
		 M40.1,25.2c0,2.2,0.5,3.2,1.4,3.2c0.9,0,1.3-1.1,1.3-3.2c0-2.1-0.5-3.2-1.3-3.2C40.7,21.9,40.1,23,40.1,25.2z"/>
</g>
</svg>
