<svg width="257" height="234" viewBox="0 0 257 234" fill="none" xmlns="http://www.w3.org/2000/svg">
<path d="M145.861 233.194C151.702 233.194 156.462 228.486 156.515 222.633C156.567 216.748 151.839 211.935 145.954 211.883L140.536 211.834C140.844 210.602 141.154 209.377 141.462 208.16C148.664 179.647 156.829 147.33 129.505 116.728C125.585 112.339 118.849 111.958 114.459 115.877C110.069 119.796 109.688 126.533 113.608 130.923C133.394 153.082 127.557 176.187 120.799 202.94C119.384 208.54 117.921 214.332 116.691 220.176C116.033 223.303 116.812 226.559 118.814 229.048C120.816 231.538 123.829 232.998 127.024 233.027L145.764 233.194C145.796 233.194 145.829 233.194 145.861 233.194Z" fill="url(#paint0_linear_661_8285)"/>
<path d="M96.7877 233.194C102.63 233.194 107.391 228.483 107.442 222.63C107.492 216.745 102.763 211.933 96.8781 211.882L95.0528 211.866C110.578 180.692 123.746 142.396 106.221 116.029C102.963 111.127 96.3495 109.794 91.448 113.053C86.547 116.31 85.2142 122.924 88.472 127.826C98.9737 143.626 92.1369 173.705 68.1514 217.227C66.3404 220.514 66.3911 224.511 68.2859 227.75C70.1807 230.99 73.6394 232.994 77.392 233.026L96.6937 233.193C96.7249 233.193 96.7565 233.194 96.7877 233.194Z" fill="url(#paint1_linear_661_8285)"/>
<path d="M45.2783 113.919C43.9506 113.316 42.7262 112.432 41.6995 111.275C41.0054 110.492 24.6937 91.7291 24.7725 60.0617C24.793 51.7622 21.9129 45.124 16.2109 40.331C12.0485 36.8308 7.85601 35.5263 7.81693 35.5154C2.14613 33.9469 -1.17963 28.0816 0.387722 22.4122C1.95426 16.7425 7.8208 13.4163 13.4903 14.9832C24.7947 18.1097 46.1462 31.5575 46.0742 60.115C46.0497 69.8156 47.9774 78.9772 51.8037 87.3451C54.7006 93.6814 57.6652 97.1725 57.6954 97.2072C61.5973 101.609 61.1647 108.308 56.7629 112.21C53.5195 115.086 48.9953 115.605 45.2783 113.919Z" fill="url(#paint2_linear_661_8285)"/>
<path d="M191.225 138.389C186.362 139.527 181.218 137.106 179.093 132.38C176.681 127.015 179.077 120.71 184.441 118.299C185.027 118.023 200.714 110.466 210.187 89.2819C218.128 71.524 232.257 64.2385 244.121 61.9644C251.286 60.591 257.638 66.7748 256.561 73.9897C255.892 78.4707 252.461 82.0389 248.006 82.8627C242.198 83.9366 234.347 87.4373 229.633 97.978C216.705 126.887 194.129 137.3 193.175 137.728C192.535 138.016 191.882 138.235 191.225 138.389Z" fill="url(#paint3_linear_661_8285)"/>
<path d="M175.528 153.768L54.2404 131.694C44.7938 129.975 38.5296 120.923 40.2488 111.476L57.7004 15.5873C60.4956 0.228718 79.6124 -5.36487 90.2458 6.06448L128.08 46.7313C130.227 49.0389 133.637 49.6583 136.458 48.2533L186.077 23.5433C200.056 16.5819 215.988 28.5527 213.191 43.9167L195.745 139.776C194.026 149.223 184.974 155.487 175.528 153.768Z" fill="#8864F7"/>
<path d="M63.8639 120.58L168.353 140.401C175.636 141.724 182.612 136.892 183.934 129.609L192.826 80.6436C194.148 73.3606 189.316 66.3845 182.033 65.0621L77.5443 45.2414C70.2613 43.9189 63.2852 48.7509 61.9628 56.0338L53.0715 104.999C51.749 112.282 56.5809 119.258 63.8639 120.58Z" fill="black"/>
<path d="M152.524 80.2011C153.555 80.1804 154.599 80.2644 155.628 80.4507C164.055 81.9765 169.67 90.074 168.144 98.5013C166.832 105.751 160.546 111.119 153.198 111.267C152.167 111.288 151.123 111.204 150.094 111.017C146.011 110.278 142.461 107.993 140.097 104.584C137.733 101.175 136.838 97.049 137.578 92.9667C138.89 85.7173 145.176 80.3486 152.524 80.2011ZM152.351 71.5869C141.096 71.8129 131.183 79.9273 129.1 91.4316C126.723 104.555 135.436 117.119 148.559 119.495C150.177 119.789 151.788 119.913 153.371 119.881C164.626 119.655 174.539 111.541 176.622 100.036C178.999 86.9133 170.286 74.3487 157.163 71.9726C155.545 71.6795 153.934 71.5551 152.351 71.5869Z" fill="white"/>
<path d="M96.5 70.0624C97.5313 70.0417 98.5758 70.1257 99.6047 70.312C108.032 71.8379 113.647 79.9354 112.121 88.3626C110.808 95.612 104.523 100.981 97.1749 101.128C96.1437 101.149 95.0992 101.065 94.0703 100.879C89.9879 100.139 86.4378 97.8548 84.0738 94.4455C81.7098 91.0362 80.815 86.9104 81.5542 82.828C82.8668 75.5787 89.1524 70.21 96.5 70.0624ZM96.3271 61.4482C85.0721 61.6742 75.1591 69.7886 73.0761 81.293C70.7 94.416 79.4121 106.981 92.5351 109.357C94.1539 109.65 95.7642 109.774 97.3479 109.742C108.603 109.516 118.516 101.402 120.599 89.8977C122.975 76.7746 114.263 64.21 101.14 61.8339C99.5211 61.5408 97.9108 61.4164 96.3271 61.4482Z" fill="white"/>
<path d="M118.541 112.678L123.433 113.662" stroke="white" stroke-width="3.85899" stroke-miterlimit="10" stroke-linecap="round"/>
<defs>
<linearGradient id="paint0_linear_661_8285" x1="133.708" y1="113.17" x2="133.708" y2="233.194" gradientUnits="userSpaceOnUse">
<stop stop-color="#503B91"/>
<stop offset="1" stop-color="#8864F7"/>
</linearGradient>
<linearGradient id="paint1_linear_661_8285" x1="90.697" y1="111.27" x2="90.697" y2="233.194" gradientUnits="userSpaceOnUse">
<stop stop-color="#503B91"/>
<stop offset="1" stop-color="#8864F7"/>
</linearGradient>
<linearGradient id="paint2_linear_661_8285" x1="30.182" y1="14.5957" x2="30.182" y2="114.877" gradientUnits="userSpaceOnUse">
<stop stop-color="#8864F7"/>
<stop offset="1" stop-color="#503B91"/>
</linearGradient>
<linearGradient id="paint3_linear_661_8285" x1="218.364" y1="61.0972" x2="216.471" y2="139.339" gradientUnits="userSpaceOnUse">
<stop stop-color="#8864F7"/>
<stop offset="1" stop-color="#503B91"/>
</linearGradient>
</defs>
</svg>
