<svg width="578" height="61" viewBox="0 0 578 61" fill="none" xmlns="http://www.w3.org/2000/svg">
<rect width="578" height="61" fill="white"/>
<rect x="15" y="8" width="549" height="46" rx="23" fill="black"/>
<path d="M36.3437 40.36C34.4537 40.36 32.7387 39.89 31.1987 38.95C29.6687 38 28.4637 36.7 27.5837 35.05C26.7037 33.39 26.2637 31.54 26.2637 29.5C26.2637 27.46 26.7037 25.615 27.5837 23.965C28.4637 22.305 29.6687 21.005 31.1987 20.065C32.7387 19.115 34.4537 18.64 36.3437 18.64C37.9237 18.64 39.3987 18.97 40.7687 19.63C42.1487 20.29 43.2787 21.185 44.1587 22.315C45.0487 23.445 45.5837 24.68 45.7637 26.02H43.3037C43.1237 25.07 42.6987 24.205 42.0287 23.425C41.3687 22.635 40.5387 22.01 39.5387 21.55C38.5487 21.09 37.4837 20.86 36.3437 20.86C34.9037 20.86 33.6087 21.23 32.4587 21.97C31.3087 22.71 30.4087 23.735 29.7587 25.045C29.1087 26.355 28.7837 27.84 28.7837 29.5C28.7837 31.16 29.1087 32.645 29.7587 33.955C30.4087 35.265 31.3087 36.29 32.4587 37.03C33.6087 37.77 34.9037 38.14 36.3437 38.14C37.6637 38.14 38.8537 37.87 39.9137 37.33C40.9837 36.79 41.8287 36.04 42.4487 35.08C43.0687 34.11 43.3887 33.02 43.4087 31.81V31.63H37.8587V29.38H45.9287V30.91C45.9287 32.68 45.5087 34.285 44.6687 35.725C43.8387 37.165 42.6937 38.3 41.2337 39.13C39.7737 39.95 38.1437 40.36 36.3437 40.36ZM57.4421 40.36C56.0021 40.36 54.7071 40.015 53.5571 39.325C52.4071 38.635 51.5071 37.68 50.8571 36.46C50.2171 35.23 49.8971 33.84 49.8971 32.29C49.8971 30.78 50.2221 29.415 50.8721 28.195C51.5321 26.975 52.4371 26.02 53.5871 25.33C54.7371 24.63 56.0221 24.28 57.4421 24.28C58.8921 24.28 60.1621 24.625 61.2521 25.315C62.3521 26.005 63.1971 26.96 63.7871 28.18C64.3871 29.4 64.6871 30.78 64.6871 32.32V32.905H52.3421C52.4421 33.955 52.7271 34.885 53.1971 35.695C53.6671 36.505 54.2821 37.135 55.0421 37.585C55.8021 38.035 56.6521 38.26 57.5921 38.26C58.6021 38.26 59.4921 38.075 60.2621 37.705C61.0321 37.335 61.5921 36.83 61.9421 36.19H64.3421C64.1621 36.83 63.7821 37.47 63.2021 38.11C62.6321 38.75 61.8521 39.285 60.8621 39.715C59.8821 40.145 58.7421 40.36 57.4421 40.36ZM62.1971 30.925C61.9971 29.525 61.4871 28.42 60.6671 27.61C59.8571 26.8 58.7921 26.395 57.4721 26.395C56.5821 26.395 55.7821 26.58 55.0721 26.95C54.3621 27.31 53.7771 27.835 53.3171 28.525C52.8571 29.205 52.5521 30.005 52.4021 30.925H62.1971ZM73.5688 40C72.8388 40 72.1738 39.845 71.5738 39.535C70.9838 39.215 70.5188 38.78 70.1788 38.23C69.8388 37.67 69.6688 37.05 69.6688 36.37L69.6538 26.77H66.9538L66.9688 24.64H68.6338C69.0138 24.64 69.3188 24.52 69.5488 24.28C69.7888 24.04 69.9088 23.735 69.9088 23.365V20.89H72.0688V24.64H75.7738L75.7588 26.77H72.0538L72.0688 36.22C72.0688 36.69 72.2238 37.085 72.5338 37.405C72.8538 37.715 73.2488 37.87 73.7188 37.87H75.7588V40H73.5688ZM92.4245 40.36C91.2645 40.36 90.2145 40.175 89.2745 39.805C88.3445 39.435 87.5995 38.92 87.0395 38.26C86.4895 37.59 86.1945 36.835 86.1545 35.995H88.5995C88.6395 36.455 88.8295 36.87 89.1695 37.24C89.5095 37.6 89.9595 37.885 90.5195 38.095C91.0795 38.305 91.7045 38.41 92.3945 38.41C93.0945 38.41 93.7095 38.295 94.2395 38.065C94.7795 37.835 95.1945 37.515 95.4845 37.105C95.7845 36.695 95.9345 36.23 95.9345 35.71C95.9345 35.15 95.7745 34.68 95.4545 34.3C95.1445 33.91 94.7095 33.665 94.1495 33.565L90.4445 32.89C89.2645 32.67 88.3445 32.195 87.6845 31.465C87.0245 30.725 86.6945 29.79 86.6945 28.66C86.6945 27.85 86.9245 27.115 87.3845 26.455C87.8545 25.785 88.5095 25.255 89.3495 24.865C90.1895 24.475 91.1495 24.28 92.2295 24.28C93.2995 24.28 94.2645 24.455 95.1245 24.805C95.9845 25.155 96.6695 25.64 97.1795 26.26C97.6895 26.88 97.9645 27.57 98.0045 28.33H95.5595C95.5295 27.93 95.3645 27.57 95.0645 27.25C94.7745 26.93 94.3845 26.68 93.8945 26.5C93.4045 26.32 92.8545 26.23 92.2445 26.23C91.6245 26.23 91.0745 26.335 90.5945 26.545C90.1145 26.755 89.7395 27.045 89.4695 27.415C89.2095 27.775 89.0795 28.185 89.0795 28.645C89.0795 29.165 89.2245 29.595 89.5145 29.935C89.8045 30.275 90.2295 30.495 90.7895 30.595L94.5845 31.27C95.3645 31.41 96.0345 31.685 96.5945 32.095C97.1645 32.505 97.5945 33.015 97.8845 33.625C98.1845 34.235 98.3345 34.9 98.3345 35.62C98.3345 36.52 98.0745 37.33 97.5545 38.05C97.0445 38.77 96.3395 39.335 95.4395 39.745C94.5395 40.155 93.5345 40.36 92.4245 40.36ZM107.319 40C106.589 40 105.924 39.845 105.324 39.535C104.734 39.215 104.269 38.78 103.929 38.23C103.589 37.67 103.419 37.05 103.419 36.37L103.404 26.77H100.704L100.719 24.64H102.384C102.764 24.64 103.069 24.52 103.299 24.28C103.539 24.04 103.659 23.735 103.659 23.365V20.89H105.819V24.64H109.524L109.509 26.77H105.804L105.819 36.22C105.819 36.69 105.974 37.085 106.284 37.405C106.604 37.715 106.999 37.87 107.469 37.87H109.509V40H107.319ZM119.107 24.28C120.267 24.28 121.287 24.495 122.167 24.925C123.047 25.345 123.727 25.965 124.207 26.785C124.697 27.595 124.942 28.56 124.942 29.68V40H122.602V37.495C122.172 38.425 121.542 39.135 120.712 39.625C119.882 40.115 118.897 40.36 117.757 40.36C116.777 40.36 115.892 40.17 115.102 39.79C114.312 39.41 113.692 38.885 113.242 38.215C112.792 37.545 112.567 36.785 112.567 35.935C112.567 35.135 112.772 34.4 113.182 33.73C113.602 33.05 114.177 32.495 114.907 32.065C115.647 31.635 116.477 31.37 117.397 31.27L121.492 30.82C121.832 30.78 122.097 30.64 122.287 30.4C122.477 30.16 122.572 29.81 122.572 29.35C122.572 28.74 122.427 28.205 122.137 27.745C121.847 27.285 121.437 26.93 120.907 26.68C120.387 26.42 119.782 26.29 119.092 26.29C118.402 26.29 117.782 26.41 117.232 26.65C116.682 26.88 116.237 27.195 115.897 27.595C115.567 27.985 115.367 28.41 115.297 28.87H112.897C113.017 28 113.357 27.22 113.917 26.53C114.487 25.83 115.222 25.28 116.122 24.88C117.022 24.48 118.017 24.28 119.107 24.28ZM115.057 35.8C115.057 36.32 115.192 36.78 115.462 37.18C115.742 37.58 116.127 37.895 116.617 38.125C117.107 38.345 117.667 38.455 118.297 38.455C119.157 38.455 119.907 38.28 120.547 37.93C121.197 37.58 121.697 37.09 122.047 36.46C122.397 35.82 122.572 35.085 122.572 34.255V32.5L117.727 33.04C116.927 33.13 116.282 33.43 115.792 33.94C115.302 34.45 115.057 35.07 115.057 35.8ZM129.747 24.64H132.147V27.19C132.637 26.32 133.272 25.655 134.052 25.195C134.832 24.725 135.727 24.49 136.737 24.49H137.277V26.995H136.647C135.737 26.995 134.942 27.17 134.262 27.52C133.582 27.87 133.057 28.37 132.687 29.02C132.327 29.66 132.147 30.415 132.147 31.285V40H129.747V24.64ZM143.935 40C142.805 40 141.92 39.705 141.28 39.115C140.65 38.525 140.335 37.71 140.335 36.67V20.8H142.735V24.64H146.35L146.335 26.77H142.72L142.735 36.52C142.735 36.94 142.855 37.27 143.095 37.51C143.335 37.75 143.665 37.87 144.085 37.87H146.335V40H143.935ZM156.524 40.36C155.084 40.36 153.789 40.015 152.639 39.325C151.489 38.635 150.589 37.68 149.939 36.46C149.299 35.23 148.979 33.84 148.979 32.29C148.979 30.78 149.304 29.415 149.954 28.195C150.614 26.975 151.519 26.02 152.669 25.33C153.819 24.63 155.104 24.28 156.524 24.28C157.974 24.28 159.244 24.625 160.334 25.315C161.434 26.005 162.279 26.96 162.869 28.18C163.469 29.4 163.769 30.78 163.769 32.32V32.905H151.424C151.524 33.955 151.809 34.885 152.279 35.695C152.749 36.505 153.364 37.135 154.124 37.585C154.884 38.035 155.734 38.26 156.674 38.26C157.684 38.26 158.574 38.075 159.344 37.705C160.114 37.335 160.674 36.83 161.024 36.19H163.424C163.244 36.83 162.864 37.47 162.284 38.11C161.714 38.75 160.934 39.285 159.944 39.715C158.964 40.145 157.824 40.36 156.524 40.36ZM161.279 30.925C161.079 29.525 160.569 28.42 159.749 27.61C158.939 26.8 157.874 26.395 156.554 26.395C155.664 26.395 154.864 26.58 154.154 26.95C153.444 27.31 152.859 27.835 152.399 28.525C151.939 29.205 151.634 30.005 151.484 30.925H161.279ZM179.386 37.45C178.806 38.38 178.031 39.1 177.061 39.61C176.101 40.11 175.006 40.36 173.776 40.36C172.346 40.36 171.071 40.025 169.951 39.355C168.841 38.675 167.971 37.725 167.341 36.505C166.721 35.285 166.411 33.89 166.411 32.32C166.411 30.75 166.721 29.355 167.341 28.135C167.971 26.915 168.841 25.97 169.951 25.3C171.071 24.62 172.346 24.28 173.776 24.28C175.006 24.28 176.101 24.535 177.061 25.045C178.031 25.545 178.806 26.26 179.386 27.19V19H181.786V40H179.386V37.45ZM168.931 32.32C168.931 33.47 169.151 34.49 169.591 35.38C170.031 36.26 170.646 36.95 171.436 37.45C172.226 37.94 173.131 38.185 174.151 38.185C175.091 38.185 175.936 37.98 176.686 37.57C177.446 37.15 178.056 36.565 178.516 35.815C178.986 35.055 179.276 34.175 179.386 33.175V31.465C179.276 30.465 178.986 29.59 178.516 28.84C178.056 28.08 177.446 27.495 176.686 27.085C175.936 26.665 175.091 26.455 174.151 26.455C173.131 26.455 172.226 26.705 171.436 27.205C170.646 27.695 170.031 28.385 169.591 29.275C169.151 30.155 168.931 31.17 168.931 32.32ZM191.944 24.64H194.524L198.139 35.68L198.484 36.985L198.799 35.68L202.594 24.64H204.889L208.759 35.68L209.104 36.985L209.419 35.68L212.944 24.64H215.464L210.199 40H207.829L204.034 28.45L203.749 27.385L203.494 28.42L199.549 40H197.209L191.944 24.64ZM218.81 24.64H221.21V40H218.81V24.64ZM221.42 19V21.85H218.6V19H221.42ZM231.391 40C230.661 40 229.996 39.845 229.396 39.535C228.806 39.215 228.341 38.78 228.001 38.23C227.661 37.67 227.491 37.05 227.491 36.37L227.476 26.77H224.776L224.791 24.64H226.456C226.836 24.64 227.141 24.52 227.371 24.28C227.611 24.04 227.731 23.735 227.731 23.365V20.89H229.891V24.64H233.596L233.581 26.77H229.876L229.891 36.22C229.891 36.69 230.046 37.085 230.356 37.405C230.676 37.715 231.071 37.87 231.541 37.87H233.581V40H231.391ZM237.765 19H240.075V27.13C240.595 26.21 241.285 25.505 242.145 25.015C243.015 24.525 244.02 24.28 245.16 24.28C246.26 24.28 247.235 24.515 248.085 24.985C248.935 25.455 249.6 26.15 250.08 27.07C250.57 27.98 250.815 29.075 250.815 30.355V40H248.415V30.595C248.415 29.265 248.07 28.23 247.38 27.49C246.69 26.75 245.74 26.38 244.53 26.38C243.67 26.38 242.91 26.57 242.25 26.95C241.59 27.33 241.075 27.865 240.705 28.555C240.345 29.235 240.165 30.015 240.165 30.895V40H237.765V19ZM273.684 29.35L284.409 40H263.394V19H284.409L273.684 29.35ZM292.447 19H294.847V28.84L304.687 19H307.957L297.772 29.14L308.137 40H304.777L294.847 29.62V40H292.447V19ZM316.565 40.36C315.105 40.36 313.775 40.015 312.575 39.325C311.385 38.625 310.445 37.665 309.755 36.445C309.075 35.215 308.735 33.84 308.735 32.32C308.735 30.8 309.075 29.43 309.755 28.21C310.445 26.98 311.39 26.02 312.59 25.33C313.79 24.63 315.12 24.28 316.58 24.28C318.04 24.28 319.365 24.63 320.555 25.33C321.745 26.02 322.68 26.975 323.36 28.195C324.05 29.415 324.395 30.79 324.395 32.32C324.395 33.85 324.05 35.225 323.36 36.445C322.68 37.665 321.745 38.625 320.555 39.325C319.365 40.015 318.035 40.36 316.565 40.36ZM311.255 32.32C311.255 33.47 311.485 34.49 311.945 35.38C312.415 36.26 313.055 36.945 313.865 37.435C314.685 37.925 315.595 38.17 316.595 38.17C317.595 38.17 318.495 37.925 319.295 37.435C320.095 36.945 320.725 36.26 321.185 35.38C321.645 34.49 321.875 33.47 321.875 32.32C321.875 31.17 321.645 30.15 321.185 29.26C320.725 28.37 320.09 27.68 319.28 27.19C318.48 26.7 317.58 26.455 316.58 26.455C315.58 26.455 314.675 26.7 313.865 27.19C313.055 27.68 312.415 28.37 311.945 29.26C311.485 30.15 311.255 31.17 311.255 32.32ZM333.286 40C332.556 40 331.891 39.845 331.291 39.535C330.701 39.215 330.236 38.78 329.896 38.23C329.556 37.67 329.386 37.05 329.386 36.37L329.371 26.77H326.671L326.686 24.64H328.351C328.731 24.64 329.036 24.52 329.266 24.28C329.506 24.04 329.626 23.735 329.626 23.365V20.89H331.786V24.64H335.491L335.476 26.77H331.771L331.786 36.22C331.786 36.69 331.941 37.085 332.251 37.405C332.571 37.715 332.966 37.87 333.436 37.87H335.476V40H333.286ZM339.659 19H342.059V40H339.659V19ZM347.306 24.64H349.706V40H347.306V24.64ZM349.916 19V21.85H347.096V19H349.916ZM354.952 24.64H357.262V27.13C357.782 26.21 358.472 25.505 359.332 25.015C360.202 24.525 361.207 24.28 362.347 24.28C363.447 24.28 364.422 24.515 365.272 24.985C366.122 25.455 366.787 26.15 367.267 27.07C367.757 27.98 368.002 29.075 368.002 30.355V40H365.602V30.595C365.602 29.265 365.257 28.23 364.567 27.49C363.877 26.75 362.927 26.38 361.717 26.38C360.857 26.38 360.097 26.57 359.437 26.95C358.777 27.33 358.262 27.865 357.892 28.555C357.532 29.235 357.352 30.015 357.352 30.895V40H354.952V24.64ZM386.142 40.36C384.692 40.36 383.382 40.01 382.212 39.31C381.042 38.61 380.122 37.65 379.452 36.43C378.792 35.2 378.462 33.83 378.462 32.32C378.462 30.81 378.792 29.445 379.452 28.225C380.122 26.995 381.042 26.03 382.212 25.33C383.382 24.63 384.692 24.28 386.142 24.28C388.002 24.28 389.562 24.755 390.822 25.705C392.082 26.645 392.887 28.01 393.237 29.8H390.837C390.517 28.7 389.927 27.87 389.067 27.31C388.217 26.74 387.242 26.455 386.142 26.455C385.152 26.455 384.262 26.705 383.472 27.205C382.692 27.705 382.082 28.4 381.642 29.29C381.202 30.18 380.982 31.19 380.982 32.32C380.982 33.44 381.202 34.445 381.642 35.335C382.082 36.225 382.692 36.925 383.472 37.435C384.262 37.935 385.152 38.185 386.142 38.185C387.242 38.185 388.217 37.905 389.067 37.345C389.927 36.775 390.517 35.94 390.837 34.84H393.237C393.007 36 392.557 36.995 391.887 37.825C391.217 38.655 390.387 39.285 389.397 39.715C388.407 40.145 387.322 40.36 386.142 40.36ZM403.665 40.36C402.205 40.36 400.875 40.015 399.675 39.325C398.485 38.625 397.545 37.665 396.855 36.445C396.175 35.215 395.835 33.84 395.835 32.32C395.835 30.8 396.175 29.43 396.855 28.21C397.545 26.98 398.49 26.02 399.69 25.33C400.89 24.63 402.22 24.28 403.68 24.28C405.14 24.28 406.465 24.63 407.655 25.33C408.845 26.02 409.78 26.975 410.46 28.195C411.15 29.415 411.495 30.79 411.495 32.32C411.495 33.85 411.15 35.225 410.46 36.445C409.78 37.665 408.845 38.625 407.655 39.325C406.465 40.015 405.135 40.36 403.665 40.36ZM398.355 32.32C398.355 33.47 398.585 34.49 399.045 35.38C399.515 36.26 400.155 36.945 400.965 37.435C401.785 37.925 402.695 38.17 403.695 38.17C404.695 38.17 405.595 37.925 406.395 37.435C407.195 36.945 407.825 36.26 408.285 35.38C408.745 34.49 408.975 33.47 408.975 32.32C408.975 31.17 408.745 30.15 408.285 29.26C407.825 28.37 407.19 27.68 406.38 27.19C405.58 26.7 404.68 26.455 403.68 26.455C402.68 26.455 401.775 26.7 400.965 27.19C400.155 27.68 399.515 28.37 399.045 29.26C398.585 30.15 398.355 31.17 398.355 32.32ZM415.45 24.64H417.85V27.19C418.34 26.32 418.975 25.655 419.755 25.195C420.535 24.725 421.43 24.49 422.44 24.49H422.98V26.995H422.35C421.44 26.995 420.645 27.17 419.965 27.52C419.285 27.87 418.76 28.37 418.39 29.02C418.03 29.66 417.85 30.415 417.85 31.285V40H415.45V24.64ZM432.698 40.36C431.238 40.36 429.908 40.015 428.708 39.325C427.518 38.625 426.578 37.665 425.888 36.445C425.208 35.215 424.868 33.84 424.868 32.32C424.868 30.8 425.208 29.43 425.888 28.21C426.578 26.98 427.523 26.02 428.723 25.33C429.923 24.63 431.253 24.28 432.713 24.28C434.173 24.28 435.498 24.63 436.688 25.33C437.878 26.02 438.813 26.975 439.493 28.195C440.183 29.415 440.528 30.79 440.528 32.32C440.528 33.85 440.183 35.225 439.493 36.445C438.813 37.665 437.878 38.625 436.688 39.325C435.498 40.015 434.168 40.36 432.698 40.36ZM427.388 32.32C427.388 33.47 427.618 34.49 428.078 35.38C428.548 36.26 429.188 36.945 429.998 37.435C430.818 37.925 431.728 38.17 432.728 38.17C433.728 38.17 434.628 37.925 435.428 37.435C436.228 36.945 436.858 36.26 437.318 35.38C437.778 34.49 438.008 33.47 438.008 32.32C438.008 31.17 437.778 30.15 437.318 29.26C436.858 28.37 436.223 27.68 435.413 27.19C434.613 26.7 433.713 26.455 432.713 26.455C431.713 26.455 430.808 26.7 429.998 27.19C429.188 27.68 428.548 28.37 428.078 29.26C427.618 30.15 427.388 31.17 427.388 32.32ZM457.083 40H454.773V37.51C454.253 38.43 453.558 39.135 452.688 39.625C451.828 40.115 450.828 40.36 449.688 40.36C448.588 40.36 447.613 40.125 446.763 39.655C445.913 39.185 445.243 38.495 444.753 37.585C444.273 36.665 444.033 35.565 444.033 34.285V24.64H446.433V34.045C446.433 35.375 446.778 36.41 447.468 37.15C448.158 37.89 449.108 38.26 450.318 38.26C451.178 38.26 451.938 38.07 452.598 37.69C453.258 37.31 453.768 36.78 454.128 36.1C454.498 35.41 454.683 34.625 454.683 33.745V24.64H457.083V40ZM467.26 40C466.53 40 465.865 39.845 465.265 39.535C464.675 39.215 464.21 38.78 463.87 38.23C463.53 37.67 463.36 37.05 463.36 36.37L463.345 26.77H460.645L460.66 24.64H462.325C462.705 24.64 463.01 24.52 463.24 24.28C463.48 24.04 463.6 23.735 463.6 23.365V20.89H465.76V24.64H469.465L469.45 26.77H465.745L465.76 36.22C465.76 36.69 465.915 37.085 466.225 37.405C466.545 37.715 466.94 37.87 467.41 37.87H469.45V40H467.26ZM473.634 24.64H476.034V40H473.634V24.64ZM476.244 19V21.85H473.424V19H476.244ZM481.28 24.64H483.59V27.13C484.11 26.21 484.8 25.505 485.66 25.015C486.53 24.525 487.535 24.28 488.675 24.28C489.775 24.28 490.75 24.515 491.6 24.985C492.45 25.455 493.115 26.15 493.595 27.07C494.085 27.98 494.33 29.075 494.33 30.355V40H491.93V30.595C491.93 29.265 491.585 28.23 490.895 27.49C490.205 26.75 489.255 26.38 488.045 26.38C487.185 26.38 486.425 26.57 485.765 26.95C485.105 27.33 484.59 27.865 484.22 28.555C483.86 29.235 483.68 30.015 483.68 30.895V40H481.28V24.64ZM505.362 40.36C503.922 40.36 502.627 40.015 501.477 39.325C500.327 38.635 499.427 37.68 498.777 36.46C498.137 35.23 497.817 33.84 497.817 32.29C497.817 30.78 498.142 29.415 498.792 28.195C499.452 26.975 500.357 26.02 501.507 25.33C502.657 24.63 503.942 24.28 505.362 24.28C506.812 24.28 508.082 24.625 509.172 25.315C510.272 26.005 511.117 26.96 511.707 28.18C512.307 29.4 512.607 30.78 512.607 32.32V32.905H500.262C500.362 33.955 500.647 34.885 501.117 35.695C501.587 36.505 502.202 37.135 502.962 37.585C503.722 38.035 504.572 38.26 505.512 38.26C506.522 38.26 507.412 38.075 508.182 37.705C508.952 37.335 509.512 36.83 509.862 36.19H512.262C512.082 36.83 511.702 37.47 511.122 38.11C510.552 38.75 509.772 39.285 508.782 39.715C507.802 40.145 506.662 40.36 505.362 40.36ZM510.117 30.925C509.917 29.525 509.407 28.42 508.587 27.61C507.777 26.8 506.712 26.395 505.392 26.395C504.502 26.395 503.702 26.58 502.992 26.95C502.282 27.31 501.697 27.835 501.237 28.525C500.777 29.205 500.472 30.005 500.322 30.925H510.117ZM521.624 40.36C520.464 40.36 519.414 40.175 518.474 39.805C517.544 39.435 516.799 38.92 516.239 38.26C515.689 37.59 515.394 36.835 515.354 35.995H517.799C517.839 36.455 518.029 36.87 518.369 37.24C518.709 37.6 519.159 37.885 519.719 38.095C520.279 38.305 520.904 38.41 521.594 38.41C522.294 38.41 522.909 38.295 523.439 38.065C523.979 37.835 524.394 37.515 524.684 37.105C524.984 36.695 525.134 36.23 525.134 35.71C525.134 35.15 524.974 34.68 524.654 34.3C524.344 33.91 523.909 33.665 523.349 33.565L519.644 32.89C518.464 32.67 517.544 32.195 516.884 31.465C516.224 30.725 515.894 29.79 515.894 28.66C515.894 27.85 516.124 27.115 516.584 26.455C517.054 25.785 517.709 25.255 518.549 24.865C519.389 24.475 520.349 24.28 521.429 24.28C522.499 24.28 523.464 24.455 524.324 24.805C525.184 25.155 525.869 25.64 526.379 26.26C526.889 26.88 527.164 27.57 527.204 28.33H524.759C524.729 27.93 524.564 27.57 524.264 27.25C523.974 26.93 523.584 26.68 523.094 26.5C522.604 26.32 522.054 26.23 521.444 26.23C520.824 26.23 520.274 26.335 519.794 26.545C519.314 26.755 518.939 27.045 518.669 27.415C518.409 27.775 518.279 28.185 518.279 28.645C518.279 29.165 518.424 29.595 518.714 29.935C519.004 30.275 519.429 30.495 519.989 30.595L523.784 31.27C524.564 31.41 525.234 31.685 525.794 32.095C526.364 32.505 526.794 33.015 527.084 33.625C527.384 34.235 527.534 34.9 527.534 35.62C527.534 36.52 527.274 37.33 526.754 38.05C526.244 38.77 525.539 39.335 524.639 39.745C523.739 40.155 522.734 40.36 521.624 40.36ZM545.608 30.835H531.583V28.6H545.608V22.93L552.943 29.695L545.608 36.58V30.835Z" fill="white"/>
</svg>
