<svg width="18" height="18" viewBox="0 0 18 18" fill="none" xmlns="http://www.w3.org/2000/svg">
<path fill-rule="evenodd" clip-rule="evenodd" d="M17.9001 9.19988C17.9127 13.1695 15.3062 16.6721 11.5001 17.7999C11.3934 17.8022 11.2903 17.7607 11.2148 17.6852C11.1393 17.6097 11.0979 17.5067 11.1001 17.3999V14.3999C11.1133 13.9467 10.9312 13.5097 10.6001 13.1999C12.6019 13.2967 14.3231 11.7961 14.5001 9.79988C14.7366 8.5574 14.4066 7.27419 13.6001 6.29988C13.8906 5.50953 13.8174 4.63126 13.4001 3.89988C12.553 4.05474 11.7402 4.35952 11.0001 4.79988C9.56073 4.39988 8.03952 4.39988 6.60013 4.79988C5.92936 4.29669 5.13427 3.98556 4.30013 3.89988H4.20013C3.768 4.62658 3.69424 5.51169 4.00013 6.29988C3.17088 7.26244 2.83807 8.55671 3.10013 9.79988C3.31361 11.7773 5.01203 13.258 7.00013 13.1999C6.8021 13.3483 6.66092 13.56 6.60013 13.7999C6.53554 14.0277 6.5019 14.2631 6.50013 14.4999C5.73523 14.8197 4.85165 14.6189 4.30013 13.9999C3.80013 13.1999 3.40013 12.7999 2.90013 12.6999C2.40013 12.5999 2.30013 12.8999 2.30013 12.8999C2.379 13.1592 2.55933 13.3755 2.80013 13.4999C3.18728 13.7158 3.47446 14.0748 3.60013 14.4999C3.77875 15.0727 4.22731 15.5213 4.80013 15.6999C5.42386 15.8559 6.0764 15.8559 6.70013 15.6999V17.3999C6.70739 17.5007 6.66289 17.5984 6.582 17.659C6.5011 17.7197 6.39491 17.7351 6.30013 17.6999C2.54536 16.5802 -0.0207932 13.118 0.000126969 9.19988C0.0276651 4.27647 4.02664 0.299805 8.95013 0.299805C13.8736 0.299805 17.8726 4.27647 17.9001 9.19988Z" fill="#27282C" fill-opacity="0.75"/>
</svg>
