<svg width="60" height="60" viewBox="0 0 60 60" fill="none" xmlns="http://www.w3.org/2000/svg">
<path d="M60 0H0V60H60V0Z" fill="black"/>
<path d="M27.6477 48.7061H5.17725V52.4708H27.6477V48.7061Z" fill="white"/>
<path d="M4.94141 15.765L6.70611 14.118C7.1767 14.7062 7.64729 15.0592 8.23552 15.0592C8.94141 15.0592 9.29435 14.5886 9.29435 13.6474V7.41211H12.0002V13.6474C12.0002 14.8239 11.6473 15.765 11.0591 16.3533C10.4708 16.9415 9.52964 17.2945 8.35317 17.2945C6.58847 17.4121 5.64729 16.7062 4.94141 15.765Z" fill="white"/>
<path d="M12.5864 7.5293H20.4688V9.76459H15.2923V11.294H19.9982V13.4116H15.2923V14.9411H20.5864V17.294H12.7041L12.5864 7.5293Z" fill="white"/>
<path d="M23.9998 9.88224H21.0586V7.5293H29.6468V9.88224H26.7057V17.294H23.9998V9.88224Z" fill="white"/>
<path d="M5.17725 19.5295H10.2361C11.4125 19.5295 12.3537 19.8825 12.942 20.3531C13.2949 20.706 13.5302 21.2942 13.5302 22.0001C13.5302 23.1766 12.942 23.7648 12.0008 24.2354C13.1772 24.5884 13.8831 25.2942 13.8831 26.5884C13.8831 28.2354 12.4714 29.2942 10.2361 29.2942H5.17725V19.5295ZM10.8243 22.5884C10.8243 22.0001 10.3537 21.7648 9.64783 21.7648H7.88313V23.5295H9.53019C10.3537 23.4119 10.8243 23.1766 10.8243 22.5884ZM9.88313 25.4119H7.76548V27.1766H9.88313C10.7067 27.1766 11.1772 26.8237 11.1772 26.2354C11.1772 25.6472 10.7067 25.4119 9.88313 25.4119Z" fill="white"/>
<path d="M14.3521 19.5295H18.9403C20.4698 19.5295 21.411 19.8825 22.1169 20.5884C22.7051 21.1766 22.9404 21.8825 22.9404 22.8237C22.9404 24.3531 22.1169 25.2942 20.9404 25.8825L23.2933 29.2942H20.2345L18.2344 26.3531H17.058V29.2942H14.3521V19.5295ZM18.8227 24.2354C19.7639 24.2354 20.2345 23.7648 20.2345 23.059C20.2345 22.2354 19.6462 21.8825 18.8227 21.8825H17.058V24.2354H18.8227Z" fill="white"/>
<path d="M26.1186 19.5295H28.7068L32.8245 29.4119H29.8833L29.1774 27.6472H25.4127L24.7068 29.4119H21.8833L26.1186 19.5295ZM28.4715 25.4119L27.4127 22.706L26.3539 25.4119H28.4715Z" fill="white"/>
<path d="M33.1772 19.5295H35.8831V29.2942H33.1772V19.5295Z" fill="white"/>
<path d="M36.5884 19.5295H39.059L43.059 24.706V19.5295H45.7649V29.2942H43.4119L39.2943 24.0001V29.4119H36.5884V19.5295Z" fill="white"/>
<path d="M45.9995 27.8829L47.5289 26.1182C48.4701 26.9418 49.5289 27.2947 50.7054 27.2947C51.4113 27.2947 51.8819 27.0594 51.8819 26.5888C51.8819 26.1182 51.5289 26.0006 50.2348 25.6476C48.1172 25.1771 46.5877 24.5888 46.5877 22.5888C46.5877 20.8241 47.9995 19.4124 50.3525 19.4124C51.9995 19.4124 53.2936 19.8829 54.3525 20.7065L52.9407 22.5888C51.9995 22.0006 51.0583 21.6476 50.2348 21.6476C49.5289 21.6476 49.2936 21.8829 49.2936 22.2359C49.2936 22.7065 49.6466 22.8241 50.9407 23.1771C53.176 23.6476 54.5878 24.3535 54.5878 26.2359C54.5878 28.2359 53.0583 29.4124 50.5877 29.4124C48.823 29.53 47.176 28.9418 45.9995 27.8829Z" fill="white"/>
</svg>
