<svg xmlns="http://www.w3.org/2000/svg" width="54" height="54" viewBox="0 0 54 54" fill="none">
  <rect x="0.5" y="0.5" width="53" height="53" stroke="white" stroke-opacity="0.2"/>
  <path d="M53 1L1 1L1 53H53V1Z" fill="black"/>
  <path d="M24.9623 43.2119H5.48779V46.4747H24.9623V43.2119Z" fill="white"/>
  <path d="M5.28174 14.6626L6.81114 13.2351C7.21898 13.7449 7.62681 14.0508 8.13661 14.0508C8.74837 14.0508 9.05425 13.643 9.05425 12.8273V7.42334H11.3993V12.8273C11.3993 13.8469 11.0935 14.6626 10.5837 15.1724C10.0739 15.6822 9.25817 15.9881 8.23858 15.9881C6.70918 16.09 5.8935 15.4783 5.28174 14.6626Z" fill="white"/>
  <path d="M11.9092 7.52539H18.7405V9.46265H14.2543V10.7881H18.3327V12.6234H14.2543V13.9489H18.8425V15.9882H12.0111L11.9092 7.52539Z" fill="white"/>
  <path d="M21.799 9.56461H19.25V7.52539H26.6931V9.56461H24.1441V15.9882H21.799V9.56461Z" fill="white"/>
  <path d="M5.48535 17.925H9.86972C10.8893 17.925 11.705 18.2309 12.2148 18.6388C12.5207 18.9447 12.7246 19.4545 12.7246 20.0662C12.7246 21.0858 12.2148 21.5956 11.3991 22.0035C12.4188 22.3094 13.0305 22.9211 13.0305 24.0427C13.0305 25.4702 11.807 26.3878 9.86972 26.3878H5.48535L5.48535 17.925ZM10.3795 20.576C10.3795 20.0662 9.97168 19.8623 9.35991 19.8623H7.83048V21.3917H9.25795C9.97168 21.2898 10.3795 21.0858 10.3795 20.576ZM9.56383 23.0231H7.72852V24.5525H9.56383C10.2776 24.5525 10.6854 24.2466 10.6854 23.7368C10.6854 23.227 10.2776 23.0231 9.56383 23.0231Z" fill="white"/>
  <path d="M13.439 17.925H17.4154C18.7409 17.925 19.5566 18.2309 20.1684 18.8427C20.6782 19.3525 20.8821 19.9643 20.8821 20.78C20.8821 22.1055 20.1684 22.9211 19.1488 23.4309L21.188 26.3878H18.537L16.8037 23.8388H15.7841V26.3878H13.439V17.925ZM17.3135 22.0035C18.1292 22.0035 18.537 21.5956 18.537 20.9839C18.537 20.2702 18.0272 19.9643 17.3135 19.9643H15.7841V22.0035H17.3135Z" fill="white"/>
  <path d="M23.635 17.925H25.8781L29.4467 26.4898H26.8977L26.2859 24.9604H23.0232L22.4114 26.4898H19.9644L23.635 17.925ZM25.6742 23.0231L24.7565 20.678L23.8389 23.0231H25.6742Z" fill="white"/>
  <path d="M29.7524 17.925H32.0975V26.3878H29.7524V17.925Z" fill="white"/>
  <path d="M32.7104 17.925H34.8516L38.3183 22.4113V17.925H40.6634V26.3878H38.6242L35.0556 21.7996V26.4898H32.7104V17.925Z" fill="white"/>
  <path d="M40.8672 25.1642L42.1927 23.6348C43.0084 24.3485 43.926 24.6544 44.9456 24.6544C45.5574 24.6544 45.9652 24.4505 45.9652 24.0426C45.9652 23.6348 45.6593 23.5328 44.5378 23.2269C42.7025 22.8191 41.377 22.3093 41.377 20.576C41.377 19.0465 42.6005 17.823 44.6397 17.823C46.0672 17.823 47.1887 18.2308 48.1064 18.9446L46.8828 20.576C46.0672 20.0661 45.2515 19.7603 44.5378 19.7603C43.926 19.7603 43.7221 19.9642 43.7221 20.2701C43.7221 20.6779 44.028 20.7799 45.1495 21.0858C47.0868 21.4936 48.3103 22.1054 48.3103 23.7368C48.3103 25.4701 46.9848 26.4897 44.8436 26.4897C43.3142 26.5917 41.8868 26.0819 40.8672 25.1642Z" fill="white"/>
</svg>
