<svg width="24" height="24" viewBox="0 0 24 24" fill="none" xmlns="http://www.w3.org/2000/svg">
    <path fill-rule="evenodd" clip-rule="evenodd" d="M21.0054 5.61666C21.435 6.24972 21.7074 6.97612 21.7999 7.73556C21.9245 8.88243 21.9913 10.0349 22 11.1884V12.8064C21.9913 13.96 21.9245 15.1125 21.7999 16.2595C21.7071 17.0182 21.4347 17.7439 21.0054 18.3763C20.4906 18.941 19.7656 19.2681 19.0016 19.2804C16.2026 19.4948 12 19.5023 12 19.5023C12 19.5023 6.79956 19.4516 5.19971 19.2878C4.37604 19.2723 3.58854 18.9466 2.99463 18.3756C2.56498 17.7433 2.29257 17.0176 2.20007 16.2587C2.07545 15.1118 2.00867 13.9594 2 12.8058V11.1878C2.00871 10.0344 2.07548 8.88223 2.20007 7.73556C2.29295 6.97619 2.56531 6.24986 2.99463 5.61666C3.50888 5.05154 4.23441 4.72491 4.99841 4.71456C7.79688 4.49756 11.995 4.49756 11.995 4.49756H12.0044C12.0044 4.49756 16.2026 4.49756 19.0016 4.71456C19.7656 4.72483 20.4912 5.05148 21.0054 5.61666ZM15.7544 11.9998L9.50244 8.24854V15.751L15.7544 11.9998Z" fill="#27282C" fill-opacity="0.75"/>
</svg>
