<svg width="26" height="24" viewBox="0 0 26 24" fill="none" xmlns="http://www.w3.org/2000/svg">
    <path d="M18.3151 3.76923H7.68493C3.9589 3.76923 1 6.69275 1 10.3742C1 14.0557 3.9589 16.9792 7.68493 16.9792V22.2308L13 16.9792H18.3151C21.9863 16.9792 25 14.0557 25 10.3742C25 6.69275 21.9863 3.76923 18.3151 3.76923ZM6.42466 12.0526C5.43836 12.0526 4.61644 11.2405 4.61644 10.266C4.61644 9.29145 5.38356 8.53349 6.42466 8.53349C7.46575 8.53349 8.23288 9.34559 8.23288 10.3201C8.23288 11.2946 7.41096 12.0526 6.42466 12.0526ZM13 12.0526C12.0137 12.0526 11.1918 11.2405 11.1918 10.266C11.1918 9.29145 12.0137 8.47935 13 8.47935C13.9863 8.47935 14.8082 9.29145 14.8082 10.266C14.8082 11.2405 13.9863 12.0526 13 12.0526ZM19.5753 12.0526C18.589 12.0526 17.7671 11.2405 17.7671 10.266C17.7671 9.29145 18.589 8.47935 19.5753 8.47935C20.5616 8.47935 21.3836 9.29145 21.3836 10.266C21.3836 11.2405 20.5616 12.0526 19.5753 12.0526Z" fill="white"/>
</svg>
