<svg width="24" height="24" viewBox="0 0 24 24" fill="none" xmlns="http://www.w3.org/2000/svg">
    <path fill-rule="evenodd" clip-rule="evenodd" d="M11.9991 2C6.47773 2 2 6.59042 2 12.2534C2 16.7834 4.86504 20.626 8.83876 21.9818C9.33908 22.0762 9.52141 21.7596 9.52141 21.4877C9.52141 21.2448 9.51281 20.5996 9.5079 19.7442C6.72636 20.3636 6.13947 18.3695 6.13947 18.3695C5.68458 17.185 5.02894 16.8696 5.02894 16.8696C4.12099 16.2339 5.0977 16.2465 5.0977 16.2465C6.10141 16.3189 6.62935 17.3033 6.62935 17.3033C7.52134 18.8699 8.97013 18.4174 9.53983 18.1549C9.63068 17.4928 9.88913 17.0408 10.1746 16.7846C7.95414 16.5259 5.61951 15.646 5.61951 11.7171C5.61951 10.598 6.00933 9.68217 6.64901 8.96588C6.54587 8.70656 6.2027 7.66359 6.74722 6.25242C6.74722 6.25242 7.58642 5.97673 9.49685 7.30356C10.2943 7.07571 11.1501 6.96241 12.0003 6.95801C12.8499 6.96241 13.7051 7.07571 14.5038 7.30356C16.413 5.97673 17.2509 6.25242 17.2509 6.25242C17.7967 7.66359 17.4535 8.70656 17.351 8.96588C17.9919 9.68217 18.3786 10.598 18.3786 11.7171C18.3786 15.6561 16.0403 16.5228 13.8131 16.7765C14.1716 17.0931 14.4915 17.7187 14.4915 18.6754C14.4915 20.0457 14.4792 21.1516 14.4792 21.4877C14.4792 21.7622 14.6597 22.0813 15.1668 21.9812C19.1374 20.6223 22 16.7821 22 12.2534C22 6.59042 17.5223 2 11.9991 2Z" fill="white"/>
</svg>
