<svg width="20" height="18" viewBox="0 0 20 18" fill="none" xmlns="http://www.w3.org/2000/svg">
<path d="M20 9.06812C20 7.84956 19.0146 6.88174 17.8136 6.88174C17.2463 6.88096 16.7006 7.09928 16.2904 7.49113C14.7851 6.41574 12.724 5.71697 10.4302 5.62736L11.4336 0.932003L14.6952 1.63077C14.7313 2.4552 15.4121 3.11838 16.2546 3.11838C17.1147 3.11838 17.8136 2.41961 17.8136 1.55901C17.8136 0.698884 17.1149 0 16.2546 0C15.6453 0 15.1075 0.358426 14.8566 0.878215L11.2188 0.107575C11.1112 0.0894892 11.0036 0.107575 10.9319 0.161362C10.8423 0.21515 10.7886 0.304639 10.7709 0.412214L9.65943 5.6451C7.32977 5.71697 5.23288 6.41574 3.70969 7.5091C3.29943 7.11726 2.7537 6.89899 2.18638 6.89983C0.967704 6.89983 0 7.88526 0 9.0862C0 9.98215 0.537522 10.7347 1.29043 11.0755C1.25387 11.2946 1.23587 11.5164 1.23664 11.7386C1.23664 15.1075 5.16148 17.8497 10.0001 17.8497C14.8389 17.8497 18.7637 15.1255 18.7637 11.7386C18.7636 11.5165 18.7456 11.2947 18.7099 11.0755C19.4625 10.7347 20 9.96406 20 9.06812ZM4.98203 10.6271C4.98203 9.767 5.6808 9.06812 6.5414 9.06812C7.40153 9.06812 8.10041 9.76688 8.10041 10.6271C8.10041 11.4874 7.40165 12.1865 6.5414 12.1865C5.68092 12.2041 4.98203 11.4874 4.98203 10.6271ZM13.7098 14.767C12.6345 15.8424 10.5914 15.9142 10.0001 15.9142C9.39084 15.9142 7.34786 15.8243 6.29019 14.767C6.12918 14.6058 6.12918 14.3548 6.29019 14.1935C6.45156 14.0325 6.70241 14.0325 6.86377 14.1935C7.54492 14.8747 8.97863 15.1075 10.0001 15.1075C11.0217 15.1075 12.4732 14.8746 13.1362 14.1935C13.2976 14.0325 13.5484 14.0325 13.7098 14.1935C13.8531 14.3548 13.8531 14.6058 13.7098 14.767ZM13.4229 12.2042C12.5627 12.2042 11.8639 11.5055 11.8639 10.6452C11.8639 9.78497 12.5627 9.0862 13.4229 9.0862C14.2834 9.0862 14.9822 9.78497 14.9822 10.6452C14.9822 11.4873 14.2834 12.2042 13.4229 12.2042Z" fill="#27282C" fill-opacity="0.75"/>
</svg>
