<svg width="18" height="18" viewBox="0 0 18 18" fill="none" xmlns="http://www.w3.org/2000/svg">
<path d="M6.63 9.49C6.12914 9.4913 5.64916 9.69084 5.295 10.045C4.94084 10.3992 4.7413 10.8791 4.74 11.38V16.11C4.74 16.6113 4.93913 17.092 5.29357 17.4464C5.64801 17.8009 6.12874 18 6.63 18C7.13126 18 7.61199 17.8009 7.96643 17.4464C8.32088 17.092 8.52 16.6113 8.52 16.11V11.38C8.5187 10.8791 8.31916 10.3992 7.965 10.045C7.61084 9.69084 7.13086 9.4913 6.63 9.49ZM0.00999999 11.38C0.01 11.8813 0.209124 12.362 0.563568 12.7164C0.918012 13.0709 1.39874 13.27 1.9 13.27C2.40126 13.27 2.88199 13.0709 3.23643 12.7164C3.59088 12.362 3.79 11.8813 3.79 11.38V9.49H1.91C1.40758 9.48921 0.925354 9.68776 0.569149 10.0421C0.212945 10.3964 0.0118533 10.8776 0.00999999 11.38ZM6.63 3.49912e-06C6.12874 3.49912e-06 5.64801 0.199128 5.29357 0.553572C4.93913 0.908015 4.74 1.38874 4.74 1.89C4.74 2.39126 4.93913 2.87199 5.29357 3.22644C5.64801 3.58088 6.12874 3.78 6.63 3.78H8.52V1.88C8.51831 1.38018 8.31832 0.901464 7.96396 0.548974C7.60959 0.196485 7.12982 -0.000958527 6.63 3.49912e-06ZM1.89 8.53H6.63C7.13126 8.53 7.61199 8.33088 7.96643 7.97644C8.32088 7.62199 8.52 7.14126 8.52 6.64C8.52 6.13874 8.32088 5.65801 7.96643 5.30357C7.61199 4.94913 7.13126 4.75 6.63 4.75H1.89C1.38874 4.75 0.908012 4.94913 0.553568 5.30357C0.199124 5.65801 0 6.13874 0 6.64C0 7.14126 0.199124 7.62199 0.553568 7.97644C0.908012 8.33088 1.38874 8.53 1.89 8.53ZM16.09 4.74C15.5891 4.7413 15.1092 4.94084 14.755 5.295C14.4008 5.64917 14.2013 6.12914 14.2 6.63V8.52H16.09C16.5913 8.52 17.072 8.32088 17.4264 7.96643C17.7809 7.61199 17.98 7.13126 17.98 6.63C17.98 6.12874 17.7809 5.64802 17.4264 5.29357C17.072 4.93913 16.5913 4.74 16.09 4.74ZM9.48 1.89V6.63C9.48 7.13126 9.67912 7.61199 10.0336 7.96643C10.388 8.32088 10.8687 8.52 11.37 8.52C11.8713 8.52 12.352 8.32088 12.7064 7.96643C13.0609 7.61199 13.26 7.13126 13.26 6.63V1.89C13.26 1.38874 13.0609 0.908015 12.7064 0.553572C12.352 0.199128 11.8713 3.49912e-06 11.37 3.49912e-06C10.8687 3.49912e-06 10.388 0.199128 10.0336 0.553572C9.67912 0.908015 9.48 1.38874 9.48 1.89ZM13.26 16.11C13.2587 15.6091 13.0592 15.1292 12.705 14.775C12.3508 14.4208 11.8709 14.2213 11.37 14.22H9.48V16.11C9.48 16.6113 9.67912 17.092 10.0336 17.4464C10.388 17.8009 10.8687 18 11.37 18C11.8713 18 12.352 17.8009 12.7064 17.4464C13.0609 17.092 13.26 16.6113 13.26 16.11ZM16.11 9.49H11.37C10.8687 9.49 10.388 9.68913 10.0336 10.0436C9.67912 10.398 9.48 10.8787 9.48 11.38C9.48 11.8813 9.67912 12.362 10.0336 12.7164C10.388 13.0709 10.8687 13.27 11.37 13.27H16.11C16.6113 13.27 17.092 13.0709 17.4464 12.7164C17.8009 12.362 18 11.8813 18 11.38C18 10.8787 17.8009 10.398 17.4464 10.0436C17.092 9.68913 16.6113 9.49 16.11 9.49Z" fill="#27282C" fill-opacity="0.7"/>
</svg>
