<svg width="24" height="24" viewBox="0 0 24 24" fill="none" xmlns="http://www.w3.org/2000/svg">
    <path d="M9 20C16.2 20 20.1 14.2532 20.1 9.18831C20.1 8.99351 20.1 8.8961 20.1 8.7013C20.9 8.11688 21.5 7.53247 22 6.75325C21.3 7.04545 20.5 7.24026 19.8 7.33766C20.6 6.85065 21.2 6.16883 21.5 5.19481C20.7 5.58442 19.9 5.97403 19 6.07143C18.3 5.48701 17.3 5 16.2 5C14 5 12.3 6.65584 12.3 8.7987C12.3 9.09091 12.3 9.38312 12.4 9.67532C9.2 9.48052 6.3 8.01948 4.4 5.68182C4 6.26623 3.8 6.94805 3.8 7.62987C3.8 8.99351 4.5 10.0649 5.5 10.7468C4.9 10.7468 4.3 10.5519 3.7 10.2597C3.7 12.1104 5 13.6688 6.8 13.961C6.5 14.0584 6.1 14.0584 5.8 14.0584C5.5 14.0584 5.3 14.0584 5.1 13.961C5.6 15.4221 7 16.5909 8.7 16.5909C7.4 17.5649 5.7 18.2468 3.9 18.2468C3.6 18.2468 3.3 18.2468 3 18.1494C4.7 19.4156 6.8 20 9 20Z" fill="white"/>
</svg>
