<svg width="20" height="17" viewBox="0 0 20 17" fill="none" xmlns="http://www.w3.org/2000/svg">
<path d="M6.29 16.2501C9.39852 16.2823 12.3897 15.0645 14.5916 12.8701C16.7935 10.6757 18.0216 7.68868 18 4.58007C18 4.40007 18 4.22007 18 4.05007C18.7874 3.46392 19.4645 2.74275 20 1.92007C19.2495 2.25136 18.4543 2.47037 17.64 2.57007C18.4964 2.05532 19.1389 1.24955 19.45 0.300067C18.6437 0.780488 17.7609 1.11875 16.84 1.30007C15.5673 -0.0578806 13.5409 -0.391117 11.9004 0.487748C10.2598 1.36661 9.4146 3.23821 9.84 5.05007C6.54275 4.87333 3.4737 3.31157 1.39 0.750067C0.301185 2.62571 0.857128 5.02458 2.66 6.23007C2.0072 6.20887 1.36915 6.03049 0.8 5.71007C0.812951 7.65358 2.18551 9.32234 4.09 9.71007C3.48658 9.87309 2.85402 9.89703 2.24 9.78007C2.7801 11.4483 4.31693 12.5919 6.07 12.6301C4.63388 13.7941 2.84842 14.4421 1 14.4701C0.665735 14.4712 0.331736 14.4511 0 14.4101C1.87834 15.6106 4.06078 16.249 6.29 16.2501Z" fill="#27282C" fill-opacity="0.75"/>
</svg>
