<svg width="24" height="24" viewBox="0 0 24 24" fill="none" xmlns="http://www.w3.org/2000/svg">
    <path fill-rule="evenodd" clip-rule="evenodd" d="M12.8337 5.20335H18.7934V11.0293C19.7691 9.99775 21.2753 8.41066 21.8105 7.87536C22.062 7.62388 22.2821 7.3724 22.4392 7.05804C23.5709 5.14049 22.9108 2.68853 20.9932 1.55686C19.5787 0.739546 17.8183 0.865287 16.561 1.80835C16.3409 1.96552 16.1523 2.1227 15.9637 2.31131C15.9121 2.38008 14.61 3.57724 12.8337 5.20335ZM18.7934 12.8087V18.7834H5.21369V12.1653C4.97054 12.3857 4.73822 12.5961 4.51904 12.7947L4.51844 12.7952L4.51836 12.7953L4.51819 12.7955C3.57553 13.6494 2.87608 14.283 2.60435 14.5397C2.25857 14.854 1.91279 15.2627 1.66131 15.7028C0.309621 18.029 1.09549 20.9839 3.42165 22.3356C4.2178 22.7868 5.86533 23.3276 7.39958 22.7474C10.6961 22.2089 20.3109 20.5915 20.8361 20.4809C21.5591 20.3552 22.2192 19.9151 22.6278 19.2549C23.3194 18.1233 23.0051 16.7087 22.0306 15.9228C21.9866 15.8788 19.99 13.959 18.7934 12.8087ZM5.21369 10.0616C4.01119 9.22473 2.99277 8.51018 2.6987 8.28397C1.8814 7.6867 1.25271 6.74364 1.09554 5.64341C0.749755 3.44293 2.29005 1.3682 4.49047 1.05385C5.77929 0.833804 7.03668 1.30533 7.91685 2.15409C8.18832 2.44065 9.50179 3.80541 10.8678 5.20335H5.21369V10.0616Z" fill="white"/>
    <path d="M11.5646 16.2372H6.47217V17.0866H11.5646V16.2372Z" fill="white"/>
    <path d="M8.4835 10.3903L6.34595 6.99527H7.79194L9.11219 9.22718L10.4953 6.99527H11.9099L9.74089 10.3588V12.6222H8.4835V10.3903Z" fill="white"/>
    <path d="M14.0783 8.12694H12.3494V6.99527H17.0331V8.12694H15.3042V12.6222H14.0783V8.12694Z" fill="white"/>
</svg>
