<svg width="32" height="27" viewBox="0 0 32 27" fill="none" xmlns="http://www.w3.org/2000/svg">
    <path d="M0 27H14.4716V12.528H6.23284C6.44776 9.936 6.94925 8.784 8.23881 7.704C9.67164 6.48 11.1045 5.904 13.8985 5.472L10.7463 0C7.30746 0.791998 5.6597 1.584 3.79701 3.384C1.28955 5.616 0 8.784 0 12.528V27ZM17.6 27H32V12.528H23.8328C24.0478 9.936 24.4776 8.784 25.8388 7.704C27.2 6.48 28.6328 5.904 31.4269 5.472L28.2746 0C24.9075 0.791998 23.2597 1.584 21.3254 3.384C18.8896 5.616 17.6 8.784 17.6 12.528V27Z" fill="#F8873C"/>
</svg>
