<svg width="233" height="245" viewBox="0 0 233 245" fill="none" xmlns="http://www.w3.org/2000/svg">
<path d="M17.965 22H18.765V25.28L22.045 22H23.135L19.74 25.38L23.195 29H22.075L18.765 25.54V29H17.965V22ZM25.9825 29.12C25.4925 29.12 25.0475 29.0033 24.6475 28.77C24.2508 28.5367 23.9392 28.2167 23.7125 27.81C23.4858 27.4 23.3725 26.9433 23.3725 26.44C23.3725 25.9367 23.4858 25.4817 23.7125 25.075C23.9392 24.665 24.2508 24.3433 24.6475 24.11C25.0475 23.8767 25.4925 23.76 25.9825 23.76C26.4725 23.76 26.9158 23.8767 27.3125 24.11C27.7125 24.3433 28.0258 24.665 28.2525 25.075C28.4792 25.4817 28.5925 25.9367 28.5925 26.44C28.5925 26.9433 28.4792 27.4 28.2525 27.81C28.0258 28.2167 27.7125 28.5367 27.3125 28.77C26.9158 29.0033 26.4725 29.12 25.9825 29.12ZM25.9825 28.39C26.3292 28.39 26.6358 28.3083 26.9025 28.145C27.1725 27.9783 27.3808 27.7483 27.5275 27.455C27.6775 27.1583 27.7525 26.82 27.7525 26.44C27.7525 26.0567 27.6775 25.7183 27.5275 25.425C27.3808 25.1283 27.1725 24.8983 26.9025 24.735C26.6358 24.5683 26.3292 24.485 25.9825 24.485C25.6358 24.485 25.3275 24.5683 25.0575 24.735C24.7908 24.8983 24.5825 25.1283 24.4325 25.425C24.2858 25.7183 24.2125 26.0567 24.2125 26.44C24.2125 26.82 24.2858 27.1583 24.4325 27.455C24.5825 27.7483 24.7908 27.9783 25.0575 28.145C25.3275 28.3083 25.6358 28.39 25.9825 28.39ZM31.542 29C31.2986 29 31.077 28.9483 30.877 28.845C30.6803 28.7383 30.5253 28.5933 30.412 28.41C30.2986 28.2233 30.242 28.0167 30.242 27.79L30.237 24.59H29.337L29.342 23.88H29.897C30.0236 23.88 30.1253 23.84 30.202 23.76C30.282 23.68 30.322 23.5783 30.322 23.455V22.63H31.042V23.88H32.427L32.422 24.59H31.037L31.042 27.74C31.042 27.8967 31.0936 28.0283 31.197 28.135C31.3036 28.2383 31.4353 28.29 31.592 28.29H32.422V29H31.542ZM33.7551 22H34.5551V29H33.7551V22ZM36.3166 23.88H37.1166V29H36.3166V23.88ZM36.2766 22H37.1566V22.91H36.2766V22ZM38.797 23.88H39.567V24.71C39.7404 24.4033 39.9704 24.1683 40.257 24.005C40.547 23.8417 40.882 23.76 41.262 23.76C41.6287 23.76 41.9537 23.8383 42.237 23.995C42.5204 24.1517 42.742 24.3833 42.902 24.69C43.0654 24.9933 43.147 25.3583 43.147 25.785V29H42.347V25.865C42.347 25.4217 42.232 25.0767 42.002 24.83C41.772 24.5833 41.4554 24.46 41.052 24.46C40.7654 24.46 40.512 24.5233 40.292 24.65C40.072 24.7767 39.9004 24.955 39.777 25.185C39.657 25.4117 39.597 25.6717 39.597 25.965V29H38.797V23.88ZM49.5458 29.12C49.0624 29.12 48.6258 29.0033 48.2358 28.77C47.8458 28.5367 47.5391 28.2167 47.3158 27.81C47.0958 27.4 46.9858 26.9433 46.9858 26.44C46.9858 25.9367 47.0958 25.4817 47.3158 25.075C47.5391 24.665 47.8458 24.3433 48.2358 24.11C48.6258 23.8767 49.0624 23.76 49.5458 23.76C49.9291 23.76 50.2808 23.8333 50.6008 23.98C50.9241 24.1233 51.1958 24.3283 51.4158 24.595C51.6391 24.8617 51.7991 25.1717 51.8958 25.525H51.0208C50.9008 25.205 50.7091 24.9517 50.4458 24.765C50.1858 24.5783 49.8858 24.485 49.5458 24.485C49.2158 24.485 48.9191 24.5683 48.6558 24.735C48.3958 24.9017 48.1924 25.1333 48.0458 25.43C47.8991 25.7267 47.8258 26.0633 47.8258 26.44C47.8258 26.8133 47.8991 27.1483 48.0458 27.445C48.1924 27.7417 48.3958 27.975 48.6558 28.145C48.9191 28.3117 49.2158 28.395 49.5458 28.395C49.8858 28.395 50.1858 28.3017 50.4458 28.115C50.7091 27.9283 50.9008 27.675 51.0208 27.355H51.8958C51.7991 27.7083 51.6391 28.0183 51.4158 28.285C51.1958 28.5517 50.9241 28.7583 50.6008 28.905C50.2808 29.0483 49.9291 29.12 49.5458 29.12ZM55.3087 29.12C54.8187 29.12 54.3737 29.0033 53.9737 28.77C53.577 28.5367 53.2653 28.2167 53.0387 27.81C52.812 27.4 52.6987 26.9433 52.6987 26.44C52.6987 25.9367 52.812 25.4817 53.0387 25.075C53.2653 24.665 53.577 24.3433 53.9737 24.11C54.3737 23.8767 54.8187 23.76 55.3087 23.76C55.7987 23.76 56.242 23.8767 56.6387 24.11C57.0387 24.3433 57.352 24.665 57.5787 25.075C57.8053 25.4817 57.9187 25.9367 57.9187 26.44C57.9187 26.9433 57.8053 27.4 57.5787 27.81C57.352 28.2167 57.0387 28.5367 56.6387 28.77C56.242 29.0033 55.7987 29.12 55.3087 29.12ZM55.3087 28.39C55.6553 28.39 55.962 28.3083 56.2287 28.145C56.4987 27.9783 56.707 27.7483 56.8537 27.455C57.0037 27.1583 57.0787 26.82 57.0787 26.44C57.0787 26.0567 57.0037 25.7183 56.8537 25.425C56.707 25.1283 56.4987 24.8983 56.2287 24.735C55.962 24.5683 55.6553 24.485 55.3087 24.485C54.962 24.485 54.6537 24.5683 54.3837 24.735C54.117 24.8983 53.9087 25.1283 53.7587 25.425C53.612 25.7183 53.5387 26.0567 53.5387 26.44C53.5387 26.82 53.612 27.1583 53.7587 27.455C53.9087 27.7483 54.117 27.9783 54.3837 28.145C54.6537 28.3083 54.962 28.39 55.3087 28.39ZM59.1974 23.88H59.9674V24.745C60.1208 24.4283 60.3324 24.185 60.6024 24.015C60.8758 23.845 61.1958 23.76 61.5624 23.76C61.9458 23.76 62.2791 23.8517 62.5624 24.035C62.8458 24.2183 63.0574 24.4767 63.1974 24.81C63.3608 24.4767 63.5891 24.2183 63.8824 24.035C64.1758 23.8517 64.5141 23.76 64.8974 23.76C65.2608 23.76 65.5824 23.8433 65.8624 24.01C66.1458 24.1733 66.3658 24.4067 66.5224 24.71C66.6791 25.0133 66.7574 25.3667 66.7574 25.77V29H65.9574V25.805C65.9574 25.3817 65.8508 25.0483 65.6374 24.805C65.4274 24.5617 65.1308 24.44 64.7474 24.44C64.4741 24.44 64.2341 24.5033 64.0274 24.63C63.8208 24.7533 63.6608 24.93 63.5474 25.16C63.4341 25.3867 63.3774 25.655 63.3774 25.965V29H62.5774V25.805C62.5774 25.3817 62.4708 25.0483 62.2574 24.805C62.0474 24.5617 61.7508 24.44 61.3674 24.44C61.0908 24.44 60.8491 24.5017 60.6424 24.625C60.4358 24.7483 60.2758 24.925 60.1624 25.155C60.0524 25.385 59.9974 25.655 59.9974 25.965V29H59.1974V23.88ZM69.0692 23.88V24.785C69.2626 24.4617 69.5226 24.21 69.8492 24.03C70.1759 23.85 70.5509 23.76 70.9742 23.76C71.4509 23.76 71.8742 23.8733 72.2442 24.1C72.6176 24.3233 72.9076 24.6383 73.1142 25.045C73.3242 25.4517 73.4292 25.9167 73.4292 26.44C73.4292 26.9633 73.3242 27.4283 73.1142 27.835C72.9076 28.2417 72.6176 28.5583 72.2442 28.785C71.8742 29.0083 71.4509 29.12 70.9742 29.12C70.5576 29.12 70.1876 29.0333 69.8642 28.86C69.5409 28.6867 69.2826 28.4433 69.0892 28.13V30.6H68.2892V23.88H69.0692ZM70.8492 28.395C71.1892 28.395 71.4909 28.3133 71.7542 28.15C72.0176 27.9833 72.2226 27.7533 72.3692 27.46C72.5159 27.1633 72.5892 26.8233 72.5892 26.44C72.5892 26.0567 72.5159 25.7183 72.3692 25.425C72.2226 25.1283 72.0176 24.8983 71.7542 24.735C71.4909 24.5683 71.1892 24.485 70.8492 24.485C70.5059 24.485 70.2009 24.5683 69.9342 24.735C69.6676 24.8983 69.4592 25.1283 69.3092 25.425C69.1626 25.7183 69.0892 26.0567 69.0892 26.44C69.0892 26.8233 69.1626 27.1633 69.3092 27.46C69.4592 27.7533 69.6676 27.9833 69.9342 28.15C70.2009 28.3133 70.5059 28.395 70.8492 28.395ZM74.7052 23.88H75.5052V29H74.7052V23.88ZM74.6652 22H75.5452V22.91H74.6652V22ZM77.2707 22H78.0707V29H77.2707V22ZM81.9922 29.12C81.5089 29.12 81.0722 29.005 80.6822 28.775C80.2922 28.545 79.9855 28.225 79.7622 27.815C79.5389 27.405 79.4272 26.9433 79.4272 26.43C79.4272 25.93 79.5405 25.4767 79.7672 25.07C79.9939 24.66 80.3022 24.34 80.6922 24.11C81.0855 23.8767 81.5189 23.76 81.9922 23.76C82.4789 23.76 82.9105 23.8733 83.2872 24.1C83.6639 24.3233 83.9572 24.6383 84.1672 25.045C84.3772 25.4517 84.4822 25.9167 84.4822 26.44V26.62H80.2422C80.2689 26.98 80.3589 27.2933 80.5122 27.56C80.6655 27.8267 80.8689 28.0333 81.1222 28.18C81.3755 28.3233 81.6655 28.395 81.9922 28.395C82.3022 28.395 82.5772 28.335 82.8172 28.215C83.0572 28.095 83.2539 27.9233 83.4072 27.7H84.2972C84.1072 28.1433 83.8105 28.4917 83.4072 28.745C83.0039 28.995 82.5322 29.12 81.9922 29.12ZM83.6472 25.985C83.5972 25.6817 83.4955 25.4167 83.3422 25.19C83.1922 24.9633 83.0005 24.7883 82.7672 24.665C82.5372 24.5417 82.2789 24.48 81.9922 24.48C81.6889 24.48 81.4155 24.5417 81.1722 24.665C80.9322 24.7883 80.7339 24.9633 80.5772 25.19C80.4205 25.4167 80.3172 25.6817 80.2672 25.985H83.6472ZM85.7599 23.88H86.5599V24.73C86.7233 24.44 86.9349 24.2183 87.1949 24.065C87.4549 23.9083 87.7533 23.83 88.0899 23.83H88.2699V24.665H88.0599C87.7566 24.665 87.4916 24.7233 87.2649 24.84C87.0383 24.9567 86.8633 25.1233 86.7399 25.34C86.6199 25.5533 86.5599 25.805 86.5599 26.095V29H85.7599V23.88ZM93.8459 29.12C93.4526 29.12 93.1026 29.0583 92.7959 28.935C92.4893 28.8083 92.2459 28.63 92.0659 28.4C91.8859 28.17 91.7859 27.9017 91.7659 27.595H92.5659C92.5993 27.8517 92.7309 28.0567 92.9609 28.21C93.1909 28.3633 93.4826 28.44 93.8359 28.44C94.0693 28.44 94.2759 28.4033 94.4559 28.33C94.6393 28.2567 94.7809 28.155 94.8809 28.025C94.9809 27.8917 95.0309 27.74 95.0309 27.57C95.0309 27.3867 94.9743 27.2317 94.8609 27.105C94.7476 26.975 94.5909 26.8917 94.3909 26.855L93.2859 26.65C92.8726 26.5733 92.5459 26.41 92.3059 26.16C92.0659 25.9067 91.9459 25.6017 91.9459 25.245C91.9459 24.965 92.0226 24.7133 92.1759 24.49C92.3293 24.2633 92.5443 24.085 92.8209 23.955C93.1009 23.825 93.4209 23.76 93.7809 23.76C94.1509 23.76 94.4759 23.82 94.7559 23.94C95.0359 24.0567 95.2559 24.2267 95.4159 24.45C95.5793 24.67 95.6726 24.9317 95.6959 25.235H94.8959C94.8626 24.9883 94.7443 24.7917 94.5409 24.645C94.3376 24.4983 94.0843 24.425 93.7809 24.425C93.5743 24.425 93.3909 24.46 93.2309 24.53C93.0709 24.5967 92.9476 24.6933 92.8609 24.82C92.7743 24.9433 92.7309 25.085 92.7309 25.245C92.7309 25.425 92.7893 25.57 92.9059 25.68C93.0259 25.79 93.2143 25.87 93.4709 25.92L94.5659 26.125C94.9559 26.1983 95.2609 26.3667 95.4809 26.63C95.7043 26.89 95.8159 27.2033 95.8159 27.57C95.8159 27.8667 95.7293 28.1333 95.5559 28.37C95.3859 28.6067 95.1509 28.7917 94.8509 28.925C94.5509 29.055 94.2159 29.12 93.8459 29.12ZM98.7002 29C98.4568 29 98.2352 28.9483 98.0352 28.845C97.8385 28.7383 97.6835 28.5933 97.5702 28.41C97.4568 28.2233 97.4002 28.0167 97.4002 27.79L97.3952 24.59H96.4952L96.5002 23.88H97.0552C97.1818 23.88 97.2835 23.84 97.3602 23.76C97.4402 23.68 97.4802 23.5783 97.4802 23.455V22.63H98.2002V23.88H99.5852L99.5802 24.59H98.1952L98.2002 27.74C98.2002 27.8967 98.2518 28.0283 98.3552 28.135C98.4618 28.2383 98.5935 28.29 98.7502 28.29H99.5802V29H98.7002ZM102.584 23.76C102.981 23.76 103.323 23.8333 103.609 23.98C103.899 24.1233 104.121 24.33 104.274 24.6C104.431 24.87 104.509 25.19 104.509 25.56V29H103.719V28.265C103.556 28.5383 103.334 28.75 103.054 28.9C102.778 29.0467 102.459 29.12 102.099 29.12C101.773 29.12 101.478 29.0567 101.214 28.93C100.954 28.8033 100.751 28.6283 100.604 28.405C100.458 28.1817 100.384 27.93 100.384 27.65C100.384 27.38 100.454 27.13 100.594 26.9C100.734 26.67 100.928 26.4817 101.174 26.335C101.421 26.1883 101.699 26.0983 102.009 26.065L103.349 25.915C103.533 25.895 103.653 25.7883 103.709 25.595V25.46C103.709 25.1533 103.608 24.91 103.404 24.73C103.201 24.55 102.928 24.46 102.584 24.46C102.354 24.46 102.151 24.4967 101.974 24.57C101.801 24.64 101.663 24.735 101.559 24.855C101.456 24.975 101.391 25.1033 101.364 25.24H100.564C100.608 24.9633 100.718 24.7133 100.894 24.49C101.074 24.2633 101.309 24.085 101.599 23.955C101.889 23.825 102.218 23.76 102.584 23.76ZM101.214 27.61C101.214 27.7767 101.259 27.925 101.349 28.055C101.439 28.1817 101.564 28.28 101.724 28.35C101.888 28.42 102.074 28.455 102.284 28.455C102.561 28.455 102.808 28.3983 103.024 28.285C103.241 28.1683 103.409 28.0067 103.529 27.8C103.649 27.5933 103.709 27.355 103.709 27.085V26.48L102.124 26.655C101.948 26.675 101.789 26.73 101.649 26.82C101.513 26.9067 101.406 27.02 101.329 27.16C101.253 27.2967 101.214 27.4467 101.214 27.61ZM108.213 30.72C107.836 30.72 107.485 30.6567 107.158 30.53C106.835 30.4033 106.561 30.225 106.338 29.995C106.118 29.7683 105.97 29.5067 105.893 29.21H106.713C106.756 29.36 106.85 29.4933 106.993 29.61C107.136 29.73 107.313 29.8233 107.523 29.89C107.736 29.9567 107.966 29.99 108.213 29.99C108.53 29.99 108.813 29.93 109.063 29.81C109.316 29.69 109.513 29.5217 109.653 29.305C109.796 29.0883 109.868 28.8367 109.868 28.55V28.24L109.878 27.83C109.681 28.1133 109.426 28.3333 109.113 28.49C108.803 28.6433 108.451 28.72 108.058 28.72C107.595 28.72 107.185 28.615 106.828 28.405C106.471 28.195 106.195 27.9017 105.998 27.525C105.805 27.1483 105.708 26.72 105.708 26.24C105.708 25.76 105.805 25.3317 105.998 24.955C106.195 24.5783 106.471 24.285 106.828 24.075C107.185 23.865 107.595 23.76 108.058 23.76C108.461 23.76 108.821 23.8417 109.138 24.005C109.455 24.165 109.711 24.3933 109.908 24.69V23.88H110.683L110.668 28.55C110.668 28.9733 110.563 29.3483 110.353 29.675C110.143 30.005 109.851 30.2617 109.478 30.445C109.108 30.6283 108.686 30.72 108.213 30.72ZM108.213 28.015C108.536 28.015 108.823 27.9417 109.073 27.795C109.326 27.645 109.523 27.435 109.663 27.165C109.803 26.895 109.875 26.5867 109.878 26.24C109.875 25.8933 109.803 25.585 109.663 25.315C109.523 25.045 109.326 24.8367 109.073 24.69C108.823 24.54 108.536 24.465 108.213 24.465C107.886 24.465 107.596 24.54 107.343 24.69C107.09 24.8367 106.893 25.045 106.753 25.315C106.616 25.585 106.548 25.8933 106.548 26.24C106.548 26.5867 106.616 26.895 106.753 27.165C106.893 27.435 107.09 27.645 107.343 27.795C107.596 27.9417 107.886 28.015 108.213 28.015ZM114.609 29.12C114.126 29.12 113.689 29.005 113.299 28.775C112.909 28.545 112.603 28.225 112.379 27.815C112.156 27.405 112.044 26.9433 112.044 26.43C112.044 25.93 112.158 25.4767 112.384 25.07C112.611 24.66 112.919 24.34 113.309 24.11C113.703 23.8767 114.136 23.76 114.609 23.76C115.096 23.76 115.528 23.8733 115.904 24.1C116.281 24.3233 116.574 24.6383 116.784 25.045C116.994 25.4517 117.099 25.9167 117.099 26.44V26.62H112.859C112.886 26.98 112.976 27.2933 113.129 27.56C113.283 27.8267 113.486 28.0333 113.739 28.18C113.993 28.3233 114.283 28.395 114.609 28.395C114.919 28.395 115.194 28.335 115.434 28.215C115.674 28.095 115.871 27.9233 116.024 27.7H116.914C116.724 28.1433 116.428 28.4917 116.024 28.745C115.621 28.995 115.149 29.12 114.609 29.12ZM116.264 25.985C116.214 25.6817 116.113 25.4167 115.959 25.19C115.809 24.9633 115.618 24.7883 115.384 24.665C115.154 24.5417 114.896 24.48 114.609 24.48C114.306 24.48 114.033 24.5417 113.789 24.665C113.549 24.7883 113.351 24.9633 113.194 25.19C113.038 25.4167 112.934 25.6817 112.884 25.985H116.264ZM120.047 29.12C119.654 29.12 119.304 29.0583 118.997 28.935C118.69 28.8083 118.447 28.63 118.267 28.4C118.087 28.17 117.987 27.9017 117.967 27.595H118.767C118.8 27.8517 118.932 28.0567 119.162 28.21C119.392 28.3633 119.684 28.44 120.037 28.44C120.27 28.44 120.477 28.4033 120.657 28.33C120.84 28.2567 120.982 28.155 121.082 28.025C121.182 27.8917 121.232 27.74 121.232 27.57C121.232 27.3867 121.175 27.2317 121.062 27.105C120.949 26.975 120.792 26.8917 120.592 26.855L119.487 26.65C119.074 26.5733 118.747 26.41 118.507 26.16C118.267 25.9067 118.147 25.6017 118.147 25.245C118.147 24.965 118.224 24.7133 118.377 24.49C118.53 24.2633 118.745 24.085 119.022 23.955C119.302 23.825 119.622 23.76 119.982 23.76C120.352 23.76 120.677 23.82 120.957 23.94C121.237 24.0567 121.457 24.2267 121.617 24.45C121.78 24.67 121.874 24.9317 121.897 25.235H121.097C121.064 24.9883 120.945 24.7917 120.742 24.645C120.539 24.4983 120.285 24.425 119.982 24.425C119.775 24.425 119.592 24.46 119.432 24.53C119.272 24.5967 119.149 24.6933 119.062 24.82C118.975 24.9433 118.932 25.085 118.932 25.245C118.932 25.425 118.99 25.57 119.107 25.68C119.227 25.79 119.415 25.87 119.672 25.92L120.767 26.125C121.157 26.1983 121.462 26.3667 121.682 26.63C121.905 26.89 122.017 27.2033 122.017 27.57C122.017 27.8667 121.93 28.1333 121.757 28.37C121.587 28.6067 121.352 28.7917 121.052 28.925C120.752 29.055 120.417 29.12 120.047 29.12Z" fill="#595959"/>
<rect x="16" y="81" width="196" height="25" rx="12" fill="url(#paint0_radial_3520_30)"/>
<path d="M52.3675 89.6H53.4415L56.6695 98H55.6135L54.8035 95.768H51.0895L50.3335 98H49.2535L52.3675 89.6ZM54.4795 94.904L53.0455 90.998L52.9015 90.488L52.7575 90.998L51.3955 94.904H54.4795ZM57.9143 91.856H58.8383V92.852C59.0463 92.484 59.3223 92.202 59.6663 92.006C60.0143 91.81 60.4163 91.712 60.8723 91.712C61.3123 91.712 61.7023 91.806 62.0423 91.994C62.3823 92.182 62.6483 92.46 62.8403 92.828C63.0363 93.192 63.1343 93.63 63.1343 94.142V98H62.1743V94.238C62.1743 93.706 62.0363 93.292 61.7603 92.996C61.4843 92.7 61.1043 92.552 60.6203 92.552C60.2763 92.552 59.9723 92.628 59.7083 92.78C59.4443 92.932 59.2383 93.146 59.0903 93.422C58.9463 93.694 58.8743 94.006 58.8743 94.358V98H57.9143V91.856ZM67.1467 91.712C67.6227 91.712 68.0327 91.8 68.3767 91.976C68.7247 92.148 68.9907 92.396 69.1747 92.72C69.3627 93.044 69.4567 93.428 69.4567 93.872V98H68.5087V97.118C68.3127 97.446 68.0467 97.7 67.7107 97.88C67.3787 98.056 66.9967 98.144 66.5647 98.144C66.1727 98.144 65.8187 98.068 65.5027 97.916C65.1907 97.764 64.9467 97.554 64.7707 97.286C64.5947 97.018 64.5067 96.716 64.5067 96.38C64.5067 96.056 64.5907 95.756 64.7587 95.48C64.9267 95.204 65.1587 94.978 65.4547 94.802C65.7507 94.626 66.0847 94.518 66.4567 94.478L68.0647 94.298C68.2847 94.274 68.4287 94.146 68.4967 93.914V93.752C68.4967 93.384 68.3747 93.092 68.1307 92.876C67.8867 92.66 67.5587 92.552 67.1467 92.552C66.8707 92.552 66.6267 92.596 66.4147 92.684C66.2067 92.768 66.0407 92.882 65.9167 93.026C65.7927 93.17 65.7147 93.324 65.6827 93.488H64.7227C64.7747 93.156 64.9067 92.856 65.1187 92.588C65.3347 92.316 65.6167 92.102 65.9647 91.946C66.3127 91.79 66.7067 91.712 67.1467 91.712ZM65.5027 96.332C65.5027 96.532 65.5567 96.71 65.6647 96.866C65.7727 97.018 65.9227 97.136 66.1147 97.22C66.3107 97.304 66.5347 97.346 66.7867 97.346C67.1187 97.346 67.4147 97.278 67.6747 97.142C67.9347 97.002 68.1367 96.808 68.2807 96.56C68.4247 96.312 68.4967 96.026 68.4967 95.702V94.976L66.5947 95.186C66.3827 95.21 66.1927 95.276 66.0247 95.384C65.8607 95.488 65.7327 95.624 65.6407 95.792C65.5487 95.956 65.5027 96.136 65.5027 96.332ZM71.3991 89.6H72.3591V98H71.3991V89.6ZM74.1428 99.068H75.0548C75.1828 99.068 75.3048 99.026 75.4208 98.942C75.5368 98.862 75.6268 98.754 75.6908 98.618L76.0388 97.862L73.6688 91.856H74.6888L76.5428 96.644L78.3188 91.856H79.3328L76.5428 98.918C76.4228 99.226 76.2308 99.47 75.9668 99.65C75.7068 99.83 75.4128 99.92 75.0848 99.92H74.1428V99.068ZM82.3362 98.144C81.8642 98.144 81.4442 98.07 81.0762 97.922C80.7082 97.77 80.4162 97.556 80.2002 97.28C79.9842 97.004 79.8642 96.682 79.8402 96.314H80.8002C80.8402 96.622 80.9982 96.868 81.2742 97.052C81.5502 97.236 81.9002 97.328 82.3242 97.328C82.6042 97.328 82.8522 97.284 83.0682 97.196C83.2882 97.108 83.4582 96.986 83.5782 96.83C83.6982 96.67 83.7582 96.488 83.7582 96.284C83.7582 96.064 83.6902 95.878 83.5542 95.726C83.4182 95.57 83.2302 95.47 82.9902 95.426L81.6642 95.18C81.1682 95.088 80.7762 94.892 80.4882 94.592C80.2002 94.288 80.0562 93.922 80.0562 93.494C80.0562 93.158 80.1482 92.856 80.3322 92.588C80.5162 92.316 80.7742 92.102 81.1062 91.946C81.4422 91.79 81.8262 91.712 82.2582 91.712C82.7022 91.712 83.0922 91.784 83.4282 91.928C83.7642 92.068 84.0282 92.272 84.2202 92.54C84.4162 92.804 84.5282 93.118 84.5562 93.482H83.5962C83.5562 93.186 83.4142 92.95 83.1702 92.774C82.9262 92.598 82.6222 92.51 82.2582 92.51C82.0102 92.51 81.7902 92.552 81.5982 92.636C81.4062 92.716 81.2582 92.832 81.1542 92.984C81.0502 93.132 80.9982 93.302 80.9982 93.494C80.9982 93.71 81.0682 93.884 81.2082 94.016C81.3522 94.148 81.5782 94.244 81.8862 94.304L83.2002 94.55C83.6682 94.638 84.0342 94.84 84.2982 95.156C84.5662 95.468 84.7002 95.844 84.7002 96.284C84.7002 96.64 84.5962 96.96 84.3882 97.244C84.1842 97.528 83.9022 97.75 83.5422 97.91C83.1822 98.066 82.7802 98.144 82.3362 98.144ZM86.2268 91.856H87.1868V98H86.2268V91.856ZM86.1788 89.6H87.2348V90.692H86.1788V89.6ZM91.2073 98.144C90.7353 98.144 90.3153 98.07 89.9473 97.922C89.5793 97.77 89.2873 97.556 89.0713 97.28C88.8553 97.004 88.7353 96.682 88.7113 96.314H89.6713C89.7113 96.622 89.8693 96.868 90.1453 97.052C90.4213 97.236 90.7713 97.328 91.1953 97.328C91.4753 97.328 91.7233 97.284 91.9393 97.196C92.1593 97.108 92.3293 96.986 92.4493 96.83C92.5693 96.67 92.6293 96.488 92.6293 96.284C92.6293 96.064 92.5613 95.878 92.4253 95.726C92.2893 95.57 92.1013 95.47 91.8613 95.426L90.5353 95.18C90.0393 95.088 89.6473 94.892 89.3593 94.592C89.0713 94.288 88.9273 93.922 88.9273 93.494C88.9273 93.158 89.0193 92.856 89.2033 92.588C89.3873 92.316 89.6453 92.102 89.9773 91.946C90.3133 91.79 90.6973 91.712 91.1293 91.712C91.5733 91.712 91.9633 91.784 92.2993 91.928C92.6353 92.068 92.8993 92.272 93.0913 92.54C93.2873 92.804 93.3993 93.118 93.4273 93.482H92.4673C92.4273 93.186 92.2853 92.95 92.0413 92.774C91.7973 92.598 91.4933 92.51 91.1293 92.51C90.8813 92.51 90.6613 92.552 90.4693 92.636C90.2773 92.716 90.1293 92.832 90.0253 92.984C89.9213 93.132 89.8693 93.302 89.8693 93.494C89.8693 93.71 89.9393 93.884 90.0793 94.016C90.2233 94.148 90.4493 94.244 90.7573 94.304L92.0713 94.55C92.5393 94.638 92.9053 94.84 93.1693 95.156C93.4373 95.468 93.5713 95.844 93.5713 96.284C93.5713 96.64 93.4673 96.96 93.2593 97.244C93.0553 97.528 92.7733 97.75 92.4133 97.91C92.0533 98.066 91.6513 98.144 91.2073 98.144ZM100.779 91.712C101.255 91.712 101.665 91.8 102.009 91.976C102.357 92.148 102.623 92.396 102.807 92.72C102.995 93.044 103.089 93.428 103.089 93.872V98H102.141V97.118C101.945 97.446 101.679 97.7 101.343 97.88C101.011 98.056 100.629 98.144 100.197 98.144C99.8055 98.144 99.4515 98.068 99.1355 97.916C98.8235 97.764 98.5795 97.554 98.4035 97.286C98.2275 97.018 98.1395 96.716 98.1395 96.38C98.1395 96.056 98.2235 95.756 98.3915 95.48C98.5595 95.204 98.7915 94.978 99.0875 94.802C99.3835 94.626 99.7175 94.518 100.089 94.478L101.697 94.298C101.917 94.274 102.061 94.146 102.129 93.914V93.752C102.129 93.384 102.007 93.092 101.763 92.876C101.519 92.66 101.191 92.552 100.779 92.552C100.503 92.552 100.259 92.596 100.047 92.684C99.8395 92.768 99.6735 92.882 99.5495 93.026C99.4255 93.17 99.3475 93.324 99.3155 93.488H98.3555C98.4075 93.156 98.5395 92.856 98.7515 92.588C98.9675 92.316 99.2495 92.102 99.5975 91.946C99.9455 91.79 100.339 91.712 100.779 91.712ZM99.1355 96.332C99.1355 96.532 99.1895 96.71 99.2975 96.866C99.4055 97.018 99.5555 97.136 99.7475 97.22C99.9435 97.304 100.167 97.346 100.419 97.346C100.751 97.346 101.047 97.278 101.307 97.142C101.567 97.002 101.769 96.808 101.913 96.56C102.057 96.312 102.129 96.026 102.129 95.702V94.976L100.227 95.186C100.015 95.21 99.8255 95.276 99.6575 95.384C99.4935 95.488 99.3655 95.624 99.2735 95.792C99.1815 95.956 99.1355 96.136 99.1355 96.332ZM104.93 91.856H105.854V92.852C106.062 92.484 106.338 92.202 106.682 92.006C107.03 91.81 107.432 91.712 107.888 91.712C108.328 91.712 108.718 91.806 109.058 91.994C109.398 92.182 109.664 92.46 109.856 92.828C110.052 93.192 110.15 93.63 110.15 94.142V98H109.19V94.238C109.19 93.706 109.052 93.292 108.776 92.996C108.5 92.7 108.12 92.552 107.636 92.552C107.292 92.552 106.988 92.628 106.724 92.78C106.46 92.932 106.254 93.146 106.106 93.422C105.962 93.694 105.89 94.006 105.89 94.358V98H104.93V91.856ZM116.718 96.956C116.486 97.332 116.176 97.624 115.788 97.832C115.4 98.04 114.956 98.144 114.456 98.144C113.884 98.144 113.374 98.01 112.926 97.742C112.482 97.47 112.134 97.09 111.882 96.602C111.634 96.114 111.51 95.556 111.51 94.928C111.51 94.3 111.634 93.742 111.882 93.254C112.134 92.766 112.482 92.388 112.926 92.12C113.374 91.848 113.884 91.712 114.456 91.712C114.956 91.712 115.4 91.816 115.788 92.024C116.176 92.232 116.486 92.524 116.718 92.9V89.6H117.678V98H116.718V96.956ZM114.606 97.274C115.018 97.274 115.384 97.176 115.704 96.98C116.024 96.78 116.272 96.504 116.448 96.152C116.628 95.796 116.718 95.388 116.718 94.928C116.718 94.468 116.628 94.062 116.448 93.71C116.272 93.354 116.024 93.078 115.704 92.882C115.384 92.682 115.018 92.582 114.606 92.582C114.198 92.582 113.836 92.682 113.52 92.882C113.204 93.078 112.958 93.354 112.782 93.71C112.606 94.062 112.518 94.468 112.518 94.928C112.518 95.388 112.606 95.796 112.782 96.152C112.958 96.504 113.204 96.78 113.52 96.98C113.836 97.176 114.198 97.274 114.606 97.274ZM123.211 91.856H124.171V92.876C124.367 92.528 124.621 92.262 124.933 92.078C125.245 91.89 125.603 91.796 126.007 91.796H126.223V92.798H125.971C125.607 92.798 125.289 92.868 125.017 93.008C124.745 93.148 124.535 93.348 124.387 93.608C124.243 93.864 124.171 94.166 124.171 94.514V98H123.211V91.856ZM130.045 98.144C129.465 98.144 128.941 98.006 128.473 97.73C128.005 97.454 127.637 97.07 127.369 96.578C127.101 96.086 126.967 95.532 126.967 94.916C126.967 94.316 127.103 93.772 127.375 93.284C127.647 92.792 128.017 92.408 128.485 92.132C128.957 91.852 129.477 91.712 130.045 91.712C130.629 91.712 131.147 91.848 131.599 92.12C132.051 92.388 132.403 92.766 132.655 93.254C132.907 93.742 133.033 94.3 133.033 94.928V95.144H127.945C127.977 95.576 128.085 95.952 128.269 96.272C128.453 96.592 128.697 96.84 129.001 97.016C129.305 97.188 129.653 97.274 130.045 97.274C130.417 97.274 130.747 97.202 131.035 97.058C131.323 96.914 131.559 96.708 131.743 96.44H132.811C132.583 96.972 132.227 97.39 131.743 97.694C131.259 97.994 130.693 98.144 130.045 98.144ZM132.031 94.382C131.971 94.018 131.849 93.7 131.665 93.428C131.485 93.156 131.255 92.946 130.975 92.798C130.699 92.65 130.389 92.576 130.045 92.576C129.681 92.576 129.353 92.65 129.061 92.798C128.773 92.946 128.535 93.156 128.347 93.428C128.159 93.7 128.035 94.018 127.975 94.382H132.031ZM136.571 98.144C136.099 98.144 135.679 98.07 135.311 97.922C134.943 97.77 134.651 97.556 134.435 97.28C134.219 97.004 134.099 96.682 134.075 96.314H135.035C135.075 96.622 135.233 96.868 135.509 97.052C135.785 97.236 136.135 97.328 136.559 97.328C136.839 97.328 137.087 97.284 137.303 97.196C137.523 97.108 137.693 96.986 137.813 96.83C137.933 96.67 137.993 96.488 137.993 96.284C137.993 96.064 137.925 95.878 137.789 95.726C137.653 95.57 137.465 95.47 137.225 95.426L135.899 95.18C135.403 95.088 135.011 94.892 134.723 94.592C134.435 94.288 134.291 93.922 134.291 93.494C134.291 93.158 134.383 92.856 134.567 92.588C134.751 92.316 135.009 92.102 135.341 91.946C135.677 91.79 136.061 91.712 136.493 91.712C136.937 91.712 137.327 91.784 137.663 91.928C137.999 92.068 138.263 92.272 138.455 92.54C138.651 92.804 138.763 93.118 138.791 93.482H137.831C137.791 93.186 137.649 92.95 137.405 92.774C137.161 92.598 136.857 92.51 136.493 92.51C136.245 92.51 136.025 92.552 135.833 92.636C135.641 92.716 135.493 92.832 135.389 92.984C135.285 93.132 135.233 93.302 135.233 93.494C135.233 93.71 135.303 93.884 135.443 94.016C135.587 94.148 135.813 94.244 136.121 94.304L137.435 94.55C137.903 94.638 138.269 94.84 138.533 95.156C138.801 95.468 138.935 95.844 138.935 96.284C138.935 96.64 138.831 96.96 138.623 97.244C138.419 97.528 138.137 97.75 137.777 97.91C137.417 98.066 137.015 98.144 136.571 98.144ZM143.107 98.144C142.519 98.144 141.985 98.004 141.505 97.724C141.029 97.444 140.655 97.06 140.383 96.572C140.111 96.08 139.975 95.532 139.975 94.928C139.975 94.324 140.111 93.778 140.383 93.29C140.655 92.798 141.029 92.412 141.505 92.132C141.985 91.852 142.519 91.712 143.107 91.712C143.695 91.712 144.227 91.852 144.703 92.132C145.183 92.412 145.559 92.798 145.831 93.29C146.103 93.778 146.239 94.324 146.239 94.928C146.239 95.532 146.103 96.08 145.831 96.572C145.559 97.06 145.183 97.444 144.703 97.724C144.227 98.004 143.695 98.144 143.107 98.144ZM143.107 97.268C143.523 97.268 143.891 97.17 144.211 96.974C144.535 96.774 144.785 96.498 144.961 96.146C145.141 95.79 145.231 95.384 145.231 94.928C145.231 94.468 145.141 94.062 144.961 93.71C144.785 93.354 144.535 93.078 144.211 92.882C143.891 92.682 143.523 92.582 143.107 92.582C142.691 92.582 142.321 92.682 141.997 92.882C141.677 93.078 141.427 93.354 141.247 93.71C141.071 94.062 140.983 94.468 140.983 94.928C140.983 95.384 141.071 95.79 141.247 96.146C141.427 96.498 141.677 96.774 141.997 96.974C142.321 97.17 142.691 97.268 143.107 97.268ZM147.876 89.6H148.836V98H147.876V89.6ZM155.995 98H155.071V97.004C154.863 97.372 154.585 97.654 154.237 97.85C153.893 98.046 153.493 98.144 153.037 98.144C152.597 98.144 152.207 98.05 151.867 97.862C151.527 97.674 151.259 97.398 151.063 97.034C150.871 96.666 150.775 96.226 150.775 95.714V91.856H151.735V95.618C151.735 96.15 151.873 96.564 152.149 96.86C152.425 97.156 152.805 97.304 153.289 97.304C153.633 97.304 153.937 97.228 154.201 97.076C154.465 96.924 154.669 96.712 154.813 96.44C154.961 96.164 155.035 95.85 155.035 95.498V91.856H155.995V98ZM160.079 98C159.787 98 159.521 97.938 159.281 97.814C159.045 97.686 158.859 97.512 158.723 97.292C158.587 97.068 158.519 96.82 158.519 96.548L158.513 92.708H157.433L157.439 91.856H158.105C158.257 91.856 158.379 91.808 158.471 91.712C158.567 91.616 158.615 91.494 158.615 91.346V90.356H159.479V91.856H161.141L161.135 92.708H159.473L159.479 96.488C159.479 96.676 159.541 96.834 159.665 96.962C159.793 97.086 159.951 97.148 160.139 97.148H161.135V98H160.079ZM162.633 91.856H163.593V98H162.633V91.856ZM162.585 89.6H163.641V90.692H162.585V89.6ZM168.256 98.144C167.668 98.144 167.134 98.004 166.654 97.724C166.178 97.444 165.804 97.06 165.532 96.572C165.26 96.08 165.124 95.532 165.124 94.928C165.124 94.324 165.26 93.778 165.532 93.29C165.804 92.798 166.178 92.412 166.654 92.132C167.134 91.852 167.668 91.712 168.256 91.712C168.844 91.712 169.376 91.852 169.852 92.132C170.332 92.412 170.708 92.798 170.98 93.29C171.252 93.778 171.388 94.324 171.388 94.928C171.388 95.532 171.252 96.08 170.98 96.572C170.708 97.06 170.332 97.444 169.852 97.724C169.376 98.004 168.844 98.144 168.256 98.144ZM168.256 97.268C168.672 97.268 169.04 97.17 169.36 96.974C169.684 96.774 169.934 96.498 170.11 96.146C170.29 95.79 170.38 95.384 170.38 94.928C170.38 94.468 170.29 94.062 170.11 93.71C169.934 93.354 169.684 93.078 169.36 92.882C169.04 92.682 168.672 92.582 168.256 92.582C167.84 92.582 167.47 92.682 167.146 92.882C166.826 93.078 166.576 93.354 166.396 93.71C166.22 94.062 166.132 94.468 166.132 94.928C166.132 95.384 166.22 95.79 166.396 96.146C166.576 96.498 166.826 96.774 167.146 96.974C167.47 97.17 167.84 97.268 168.256 97.268ZM172.922 91.856H173.846V92.852C174.054 92.484 174.33 92.202 174.674 92.006C175.022 91.81 175.424 91.712 175.88 91.712C176.32 91.712 176.71 91.806 177.05 91.994C177.39 92.182 177.656 92.46 177.848 92.828C178.044 93.192 178.142 93.63 178.142 94.142V98H177.182V94.238C177.182 93.706 177.044 93.292 176.768 92.996C176.492 92.7 176.112 92.552 175.628 92.552C175.284 92.552 174.98 92.628 174.716 92.78C174.452 92.932 174.246 93.146 174.098 93.422C173.954 93.694 173.882 94.006 173.882 94.358V98H172.922V91.856Z" fill="white"/>
<rect x="16" y="120" width="196" height="25" rx="12" fill="url(#paint1_radial_3520_30)"/>
<path d="M77.0193 128.6H78.0153V137H77.0193V128.6ZM83.2997 133.484H81.3317V137H80.3357V128.6H83.7317C84.2677 128.6 84.7377 128.7 85.1417 128.9C85.5497 129.1 85.8637 129.384 86.0837 129.752C86.3077 130.12 86.4197 130.548 86.4197 131.036C86.4197 131.452 86.3357 131.826 86.1677 132.158C86.0037 132.49 85.7677 132.766 85.4597 132.986C85.1557 133.202 84.7957 133.348 84.3797 133.424L86.6057 137H85.4417L83.2997 133.484ZM83.7317 132.554C84.0597 132.554 84.3457 132.492 84.5897 132.368C84.8377 132.244 85.0277 132.068 85.1597 131.84C85.2957 131.612 85.3637 131.344 85.3637 131.036C85.3637 130.732 85.2957 130.466 85.1597 130.238C85.0277 130.01 84.8377 129.836 84.5897 129.716C84.3457 129.592 84.0597 129.53 83.7317 129.53H81.3317V132.554H83.7317ZM94.321 139.064C93.869 139.064 93.447 138.988 93.055 138.836C92.667 138.684 92.339 138.47 92.071 138.194C91.807 137.922 91.629 137.608 91.537 137.252H92.521C92.573 137.432 92.685 137.592 92.857 137.732C93.029 137.876 93.241 137.988 93.493 138.068C93.749 138.148 94.025 138.188 94.321 138.188C94.701 138.188 95.041 138.116 95.341 137.972C95.645 137.828 95.881 137.626 96.049 137.366C96.221 137.106 96.307 136.804 96.307 136.46V136.088L96.319 135.596C96.083 135.936 95.777 136.2 95.401 136.388C95.029 136.572 94.607 136.664 94.135 136.664C93.579 136.664 93.087 136.538 92.659 136.286C92.231 136.034 91.899 135.682 91.663 135.23C91.431 134.778 91.315 134.264 91.315 133.688C91.315 133.112 91.431 132.598 91.663 132.146C91.899 131.694 92.231 131.342 92.659 131.09C93.087 130.838 93.579 130.712 94.135 130.712C94.619 130.712 95.051 130.81 95.431 131.006C95.811 131.198 96.119 131.472 96.355 131.828V130.856H97.285L97.267 136.46C97.267 136.968 97.141 137.418 96.889 137.81C96.637 138.206 96.287 138.514 95.839 138.734C95.395 138.954 94.889 139.064 94.321 139.064ZM94.321 135.818C94.709 135.818 95.053 135.73 95.353 135.554C95.657 135.374 95.893 135.122 96.061 134.798C96.229 134.474 96.315 134.104 96.319 133.688C96.315 133.272 96.229 132.902 96.061 132.578C95.893 132.254 95.657 132.004 95.353 131.828C95.053 131.648 94.709 131.558 94.321 131.558C93.929 131.558 93.581 131.648 93.277 131.828C92.973 132.004 92.737 132.254 92.569 132.578C92.405 132.902 92.323 133.272 92.323 133.688C92.323 134.104 92.405 134.474 92.569 134.798C92.737 135.122 92.973 135.374 93.277 135.554C93.581 135.73 93.929 135.818 94.321 135.818ZM101.996 137.144C101.416 137.144 100.892 137.006 100.424 136.73C99.9565 136.454 99.5885 136.07 99.3205 135.578C99.0525 135.086 98.9185 134.532 98.9185 133.916C98.9185 133.316 99.0545 132.772 99.3265 132.284C99.5985 131.792 99.9685 131.408 100.436 131.132C100.908 130.852 101.428 130.712 101.996 130.712C102.58 130.712 103.098 130.848 103.55 131.12C104.002 131.388 104.354 131.766 104.606 132.254C104.858 132.742 104.984 133.3 104.984 133.928V134.144H99.8965C99.9285 134.576 100.036 134.952 100.22 135.272C100.404 135.592 100.648 135.84 100.952 136.016C101.256 136.188 101.604 136.274 101.996 136.274C102.368 136.274 102.698 136.202 102.986 136.058C103.274 135.914 103.51 135.708 103.694 135.44H104.762C104.534 135.972 104.178 136.39 103.694 136.694C103.21 136.994 102.644 137.144 101.996 137.144ZM103.982 133.382C103.922 133.018 103.8 132.7 103.616 132.428C103.436 132.156 103.206 131.946 102.926 131.798C102.65 131.65 102.34 131.576 101.996 131.576C101.632 131.576 101.304 131.65 101.012 131.798C100.724 131.946 100.486 132.156 100.298 132.428C100.11 132.7 99.9865 133.018 99.9265 133.382H103.982ZM106.518 130.856H107.442V131.852C107.65 131.484 107.926 131.202 108.27 131.006C108.618 130.81 109.02 130.712 109.476 130.712C109.916 130.712 110.306 130.806 110.646 130.994C110.986 131.182 111.252 131.46 111.444 131.828C111.64 132.192 111.738 132.63 111.738 133.142V137H110.778V133.238C110.778 132.706 110.64 132.292 110.364 131.996C110.088 131.7 109.708 131.552 109.224 131.552C108.88 131.552 108.576 131.628 108.312 131.78C108.048 131.932 107.842 132.146 107.694 132.422C107.55 132.694 107.478 133.006 107.478 133.358V137H106.518V130.856ZM116.176 137.144C115.596 137.144 115.072 137.006 114.604 136.73C114.136 136.454 113.768 136.07 113.5 135.578C113.232 135.086 113.098 134.532 113.098 133.916C113.098 133.316 113.234 132.772 113.506 132.284C113.778 131.792 114.148 131.408 114.616 131.132C115.088 130.852 115.608 130.712 116.176 130.712C116.76 130.712 117.278 130.848 117.73 131.12C118.182 131.388 118.534 131.766 118.786 132.254C119.038 132.742 119.164 133.3 119.164 133.928V134.144H114.076C114.108 134.576 114.216 134.952 114.4 135.272C114.584 135.592 114.828 135.84 115.132 136.016C115.436 136.188 115.784 136.274 116.176 136.274C116.548 136.274 116.878 136.202 117.166 136.058C117.454 135.914 117.69 135.708 117.874 135.44H118.942C118.714 135.972 118.358 136.39 117.874 136.694C117.39 136.994 116.824 137.144 116.176 137.144ZM118.162 133.382C118.102 133.018 117.98 132.7 117.796 132.428C117.616 132.156 117.386 131.946 117.106 131.798C116.83 131.65 116.52 131.576 116.176 131.576C115.812 131.576 115.484 131.65 115.192 131.798C114.904 131.946 114.666 132.156 114.478 132.428C114.29 132.7 114.166 133.018 114.106 133.382H118.162ZM120.697 130.856H121.657V131.876C121.853 131.528 122.107 131.262 122.419 131.078C122.731 130.89 123.089 130.796 123.493 130.796H123.709V131.798H123.457C123.093 131.798 122.775 131.868 122.503 132.008C122.231 132.148 122.021 132.348 121.873 132.608C121.729 132.864 121.657 133.166 121.657 133.514V137H120.697V130.856ZM127.047 130.712C127.523 130.712 127.933 130.8 128.277 130.976C128.625 131.148 128.891 131.396 129.075 131.72C129.263 132.044 129.357 132.428 129.357 132.872V137H128.409V136.118C128.213 136.446 127.947 136.7 127.611 136.88C127.279 137.056 126.897 137.144 126.465 137.144C126.073 137.144 125.719 137.068 125.403 136.916C125.091 136.764 124.847 136.554 124.671 136.286C124.495 136.018 124.407 135.716 124.407 135.38C124.407 135.056 124.491 134.756 124.659 134.48C124.827 134.204 125.059 133.978 125.355 133.802C125.651 133.626 125.985 133.518 126.357 133.478L127.965 133.298C128.185 133.274 128.329 133.146 128.397 132.914V132.752C128.397 132.384 128.275 132.092 128.031 131.876C127.787 131.66 127.459 131.552 127.047 131.552C126.771 131.552 126.527 131.596 126.315 131.684C126.107 131.768 125.941 131.882 125.817 132.026C125.693 132.17 125.615 132.324 125.583 132.488H124.623C124.675 132.156 124.807 131.856 125.019 131.588C125.235 131.316 125.517 131.102 125.865 130.946C126.213 130.79 126.607 130.712 127.047 130.712ZM125.403 135.332C125.403 135.532 125.457 135.71 125.565 135.866C125.673 136.018 125.823 136.136 126.015 136.22C126.211 136.304 126.435 136.346 126.687 136.346C127.019 136.346 127.315 136.278 127.575 136.142C127.835 136.002 128.037 135.808 128.181 135.56C128.325 135.312 128.397 135.026 128.397 134.702V133.976L126.495 134.186C126.283 134.21 126.093 134.276 125.925 134.384C125.761 134.488 125.633 134.624 125.541 134.792C125.449 134.956 125.403 135.136 125.403 135.332ZM133.237 137C132.945 137 132.679 136.938 132.439 136.814C132.203 136.686 132.017 136.512 131.881 136.292C131.745 136.068 131.677 135.82 131.677 135.548L131.671 131.708H130.591L130.597 130.856H131.263C131.415 130.856 131.537 130.808 131.629 130.712C131.725 130.616 131.773 130.494 131.773 130.346V129.356H132.637V130.856H134.299L134.293 131.708H132.631L132.637 135.488C132.637 135.676 132.699 135.834 132.823 135.962C132.951 136.086 133.109 136.148 133.297 136.148H134.293V137H133.237ZM135.791 130.856H136.751V137H135.791V130.856ZM135.743 128.6H136.799V129.692H135.743V128.6ZM141.414 137.144C140.826 137.144 140.292 137.004 139.812 136.724C139.336 136.444 138.962 136.06 138.69 135.572C138.418 135.08 138.282 134.532 138.282 133.928C138.282 133.324 138.418 132.778 138.69 132.29C138.962 131.798 139.336 131.412 139.812 131.132C140.292 130.852 140.826 130.712 141.414 130.712C142.002 130.712 142.534 130.852 143.01 131.132C143.49 131.412 143.866 131.798 144.138 132.29C144.41 132.778 144.546 133.324 144.546 133.928C144.546 134.532 144.41 135.08 144.138 135.572C143.866 136.06 143.49 136.444 143.01 136.724C142.534 137.004 142.002 137.144 141.414 137.144ZM141.414 136.268C141.83 136.268 142.198 136.17 142.518 135.974C142.842 135.774 143.092 135.498 143.268 135.146C143.448 134.79 143.538 134.384 143.538 133.928C143.538 133.468 143.448 133.062 143.268 132.71C143.092 132.354 142.842 132.078 142.518 131.882C142.198 131.682 141.83 131.582 141.414 131.582C140.998 131.582 140.628 131.682 140.304 131.882C139.984 132.078 139.734 132.354 139.554 132.71C139.378 133.062 139.29 133.468 139.29 133.928C139.29 134.384 139.378 134.79 139.554 135.146C139.734 135.498 139.984 135.774 140.304 135.974C140.628 136.17 140.998 136.268 141.414 136.268ZM146.08 130.856H147.004V131.852C147.212 131.484 147.488 131.202 147.832 131.006C148.18 130.81 148.582 130.712 149.038 130.712C149.478 130.712 149.868 130.806 150.208 130.994C150.548 131.182 150.814 131.46 151.006 131.828C151.202 132.192 151.3 132.63 151.3 133.142V137H150.34V133.238C150.34 132.706 150.202 132.292 149.926 131.996C149.65 131.7 149.27 131.552 148.786 131.552C148.442 131.552 148.138 131.628 147.874 131.78C147.61 131.932 147.404 132.146 147.256 132.422C147.112 132.694 147.04 133.006 147.04 133.358V137H146.08V130.856Z" fill="white"/>
<path d="M77.0193 128.6H78.0153V137H77.0193V128.6ZM83.2997 133.484H81.3317V137H80.3357V128.6H83.7317C84.2677 128.6 84.7377 128.7 85.1417 128.9C85.5497 129.1 85.8637 129.384 86.0837 129.752C86.3077 130.12 86.4197 130.548 86.4197 131.036C86.4197 131.452 86.3357 131.826 86.1677 132.158C86.0037 132.49 85.7677 132.766 85.4597 132.986C85.1557 133.202 84.7957 133.348 84.3797 133.424L86.6057 137H85.4417L83.2997 133.484ZM83.7317 132.554C84.0597 132.554 84.3457 132.492 84.5897 132.368C84.8377 132.244 85.0277 132.068 85.1597 131.84C85.2957 131.612 85.3637 131.344 85.3637 131.036C85.3637 130.732 85.2957 130.466 85.1597 130.238C85.0277 130.01 84.8377 129.836 84.5897 129.716C84.3457 129.592 84.0597 129.53 83.7317 129.53H81.3317V132.554H83.7317ZM94.321 139.064C93.869 139.064 93.447 138.988 93.055 138.836C92.667 138.684 92.339 138.47 92.071 138.194C91.807 137.922 91.629 137.608 91.537 137.252H92.521C92.573 137.432 92.685 137.592 92.857 137.732C93.029 137.876 93.241 137.988 93.493 138.068C93.749 138.148 94.025 138.188 94.321 138.188C94.701 138.188 95.041 138.116 95.341 137.972C95.645 137.828 95.881 137.626 96.049 137.366C96.221 137.106 96.307 136.804 96.307 136.46V136.088L96.319 135.596C96.083 135.936 95.777 136.2 95.401 136.388C95.029 136.572 94.607 136.664 94.135 136.664C93.579 136.664 93.087 136.538 92.659 136.286C92.231 136.034 91.899 135.682 91.663 135.23C91.431 134.778 91.315 134.264 91.315 133.688C91.315 133.112 91.431 132.598 91.663 132.146C91.899 131.694 92.231 131.342 92.659 131.09C93.087 130.838 93.579 130.712 94.135 130.712C94.619 130.712 95.051 130.81 95.431 131.006C95.811 131.198 96.119 131.472 96.355 131.828V130.856H97.285L97.267 136.46C97.267 136.968 97.141 137.418 96.889 137.81C96.637 138.206 96.287 138.514 95.839 138.734C95.395 138.954 94.889 139.064 94.321 139.064ZM94.321 135.818C94.709 135.818 95.053 135.73 95.353 135.554C95.657 135.374 95.893 135.122 96.061 134.798C96.229 134.474 96.315 134.104 96.319 133.688C96.315 133.272 96.229 132.902 96.061 132.578C95.893 132.254 95.657 132.004 95.353 131.828C95.053 131.648 94.709 131.558 94.321 131.558C93.929 131.558 93.581 131.648 93.277 131.828C92.973 132.004 92.737 132.254 92.569 132.578C92.405 132.902 92.323 133.272 92.323 133.688C92.323 134.104 92.405 134.474 92.569 134.798C92.737 135.122 92.973 135.374 93.277 135.554C93.581 135.73 93.929 135.818 94.321 135.818ZM101.996 137.144C101.416 137.144 100.892 137.006 100.424 136.73C99.9565 136.454 99.5885 136.07 99.3205 135.578C99.0525 135.086 98.9185 134.532 98.9185 133.916C98.9185 133.316 99.0545 132.772 99.3265 132.284C99.5985 131.792 99.9685 131.408 100.436 131.132C100.908 130.852 101.428 130.712 101.996 130.712C102.58 130.712 103.098 130.848 103.55 131.12C104.002 131.388 104.354 131.766 104.606 132.254C104.858 132.742 104.984 133.3 104.984 133.928V134.144H99.8965C99.9285 134.576 100.036 134.952 100.22 135.272C100.404 135.592 100.648 135.84 100.952 136.016C101.256 136.188 101.604 136.274 101.996 136.274C102.368 136.274 102.698 136.202 102.986 136.058C103.274 135.914 103.51 135.708 103.694 135.44H104.762C104.534 135.972 104.178 136.39 103.694 136.694C103.21 136.994 102.644 137.144 101.996 137.144ZM103.982 133.382C103.922 133.018 103.8 132.7 103.616 132.428C103.436 132.156 103.206 131.946 102.926 131.798C102.65 131.65 102.34 131.576 101.996 131.576C101.632 131.576 101.304 131.65 101.012 131.798C100.724 131.946 100.486 132.156 100.298 132.428C100.11 132.7 99.9865 133.018 99.9265 133.382H103.982ZM106.518 130.856H107.442V131.852C107.65 131.484 107.926 131.202 108.27 131.006C108.618 130.81 109.02 130.712 109.476 130.712C109.916 130.712 110.306 130.806 110.646 130.994C110.986 131.182 111.252 131.46 111.444 131.828C111.64 132.192 111.738 132.63 111.738 133.142V137H110.778V133.238C110.778 132.706 110.64 132.292 110.364 131.996C110.088 131.7 109.708 131.552 109.224 131.552C108.88 131.552 108.576 131.628 108.312 131.78C108.048 131.932 107.842 132.146 107.694 132.422C107.55 132.694 107.478 133.006 107.478 133.358V137H106.518V130.856ZM116.176 137.144C115.596 137.144 115.072 137.006 114.604 136.73C114.136 136.454 113.768 136.07 113.5 135.578C113.232 135.086 113.098 134.532 113.098 133.916C113.098 133.316 113.234 132.772 113.506 132.284C113.778 131.792 114.148 131.408 114.616 131.132C115.088 130.852 115.608 130.712 116.176 130.712C116.76 130.712 117.278 130.848 117.73 131.12C118.182 131.388 118.534 131.766 118.786 132.254C119.038 132.742 119.164 133.3 119.164 133.928V134.144H114.076C114.108 134.576 114.216 134.952 114.4 135.272C114.584 135.592 114.828 135.84 115.132 136.016C115.436 136.188 115.784 136.274 116.176 136.274C116.548 136.274 116.878 136.202 117.166 136.058C117.454 135.914 117.69 135.708 117.874 135.44H118.942C118.714 135.972 118.358 136.39 117.874 136.694C117.39 136.994 116.824 137.144 116.176 137.144ZM118.162 133.382C118.102 133.018 117.98 132.7 117.796 132.428C117.616 132.156 117.386 131.946 117.106 131.798C116.83 131.65 116.52 131.576 116.176 131.576C115.812 131.576 115.484 131.65 115.192 131.798C114.904 131.946 114.666 132.156 114.478 132.428C114.29 132.7 114.166 133.018 114.106 133.382H118.162ZM120.697 130.856H121.657V131.876C121.853 131.528 122.107 131.262 122.419 131.078C122.731 130.89 123.089 130.796 123.493 130.796H123.709V131.798H123.457C123.093 131.798 122.775 131.868 122.503 132.008C122.231 132.148 122.021 132.348 121.873 132.608C121.729 132.864 121.657 133.166 121.657 133.514V137H120.697V130.856ZM127.047 130.712C127.523 130.712 127.933 130.8 128.277 130.976C128.625 131.148 128.891 131.396 129.075 131.72C129.263 132.044 129.357 132.428 129.357 132.872V137H128.409V136.118C128.213 136.446 127.947 136.7 127.611 136.88C127.279 137.056 126.897 137.144 126.465 137.144C126.073 137.144 125.719 137.068 125.403 136.916C125.091 136.764 124.847 136.554 124.671 136.286C124.495 136.018 124.407 135.716 124.407 135.38C124.407 135.056 124.491 134.756 124.659 134.48C124.827 134.204 125.059 133.978 125.355 133.802C125.651 133.626 125.985 133.518 126.357 133.478L127.965 133.298C128.185 133.274 128.329 133.146 128.397 132.914V132.752C128.397 132.384 128.275 132.092 128.031 131.876C127.787 131.66 127.459 131.552 127.047 131.552C126.771 131.552 126.527 131.596 126.315 131.684C126.107 131.768 125.941 131.882 125.817 132.026C125.693 132.17 125.615 132.324 125.583 132.488H124.623C124.675 132.156 124.807 131.856 125.019 131.588C125.235 131.316 125.517 131.102 125.865 130.946C126.213 130.79 126.607 130.712 127.047 130.712ZM125.403 135.332C125.403 135.532 125.457 135.71 125.565 135.866C125.673 136.018 125.823 136.136 126.015 136.22C126.211 136.304 126.435 136.346 126.687 136.346C127.019 136.346 127.315 136.278 127.575 136.142C127.835 136.002 128.037 135.808 128.181 135.56C128.325 135.312 128.397 135.026 128.397 134.702V133.976L126.495 134.186C126.283 134.21 126.093 134.276 125.925 134.384C125.761 134.488 125.633 134.624 125.541 134.792C125.449 134.956 125.403 135.136 125.403 135.332ZM133.237 137C132.945 137 132.679 136.938 132.439 136.814C132.203 136.686 132.017 136.512 131.881 136.292C131.745 136.068 131.677 135.82 131.677 135.548L131.671 131.708H130.591L130.597 130.856H131.263C131.415 130.856 131.537 130.808 131.629 130.712C131.725 130.616 131.773 130.494 131.773 130.346V129.356H132.637V130.856H134.299L134.293 131.708H132.631L132.637 135.488C132.637 135.676 132.699 135.834 132.823 135.962C132.951 136.086 133.109 136.148 133.297 136.148H134.293V137H133.237ZM135.791 130.856H136.751V137H135.791V130.856ZM135.743 128.6H136.799V129.692H135.743V128.6ZM141.414 137.144C140.826 137.144 140.292 137.004 139.812 136.724C139.336 136.444 138.962 136.06 138.69 135.572C138.418 135.08 138.282 134.532 138.282 133.928C138.282 133.324 138.418 132.778 138.69 132.29C138.962 131.798 139.336 131.412 139.812 131.132C140.292 130.852 140.826 130.712 141.414 130.712C142.002 130.712 142.534 130.852 143.01 131.132C143.49 131.412 143.866 131.798 144.138 132.29C144.41 132.778 144.546 133.324 144.546 133.928C144.546 134.532 144.41 135.08 144.138 135.572C143.866 136.06 143.49 136.444 143.01 136.724C142.534 137.004 142.002 137.144 141.414 137.144ZM141.414 136.268C141.83 136.268 142.198 136.17 142.518 135.974C142.842 135.774 143.092 135.498 143.268 135.146C143.448 134.79 143.538 134.384 143.538 133.928C143.538 133.468 143.448 133.062 143.268 132.71C143.092 132.354 142.842 132.078 142.518 131.882C142.198 131.682 141.83 131.582 141.414 131.582C140.998 131.582 140.628 131.682 140.304 131.882C139.984 132.078 139.734 132.354 139.554 132.71C139.378 133.062 139.29 133.468 139.29 133.928C139.29 134.384 139.378 134.79 139.554 135.146C139.734 135.498 139.984 135.774 140.304 135.974C140.628 136.17 140.998 136.268 141.414 136.268ZM146.08 130.856H147.004V131.852C147.212 131.484 147.488 131.202 147.832 131.006C148.18 130.81 148.582 130.712 149.038 130.712C149.478 130.712 149.868 130.806 150.208 130.994C150.548 131.182 150.814 131.46 151.006 131.828C151.202 132.192 151.3 132.63 151.3 133.142V137H150.34V133.238C150.34 132.706 150.202 132.292 149.926 131.996C149.65 131.7 149.27 131.552 148.786 131.552C148.442 131.552 148.138 131.628 147.874 131.78C147.61 131.932 147.404 132.146 147.256 132.422C147.112 132.694 147.04 133.006 147.04 133.358V137H146.08V130.856Z" fill="white"/>
<rect x="16" y="159" width="196" height="25" rx="12" fill="url(#paint2_radial_3520_30)"/>
<path d="M83.0252 167.6H84.0212V176H83.0252V167.6ZM89.3056 172.484H87.3376V176H86.3416V167.6H89.7376C90.2736 167.6 90.7436 167.7 91.1476 167.9C91.5556 168.1 91.8696 168.384 92.0896 168.752C92.3136 169.12 92.4256 169.548 92.4256 170.036C92.4256 170.452 92.3416 170.826 92.1736 171.158C92.0096 171.49 91.7736 171.766 91.4656 171.986C91.1616 172.202 90.8016 172.348 90.3856 172.424L92.6116 176H91.4476L89.3056 172.484ZM89.7376 171.554C90.0656 171.554 90.3516 171.492 90.5956 171.368C90.8436 171.244 91.0336 171.068 91.1656 170.84C91.3016 170.612 91.3696 170.344 91.3696 170.036C91.3696 169.732 91.3016 169.466 91.1656 169.238C91.0336 169.01 90.8436 168.836 90.5956 168.716C90.3516 168.592 90.0656 168.53 89.7376 168.53H87.3376V171.554H89.7376ZM97.8248 167.6H98.7848V176H97.8248V167.6ZM103.545 176.144C102.957 176.144 102.423 176.004 101.943 175.724C101.467 175.444 101.093 175.06 100.821 174.572C100.549 174.08 100.413 173.532 100.413 172.928C100.413 172.324 100.549 171.778 100.821 171.29C101.093 170.798 101.467 170.412 101.943 170.132C102.423 169.852 102.957 169.712 103.545 169.712C104.133 169.712 104.665 169.852 105.141 170.132C105.621 170.412 105.997 170.798 106.269 171.29C106.541 171.778 106.677 172.324 106.677 172.928C106.677 173.532 106.541 174.08 106.269 174.572C105.997 175.06 105.621 175.444 105.141 175.724C104.665 176.004 104.133 176.144 103.545 176.144ZM103.545 175.268C103.961 175.268 104.329 175.17 104.649 174.974C104.973 174.774 105.223 174.498 105.399 174.146C105.579 173.79 105.669 173.384 105.669 172.928C105.669 172.468 105.579 172.062 105.399 171.71C105.223 171.354 104.973 171.078 104.649 170.882C104.329 170.682 103.961 170.582 103.545 170.582C103.129 170.582 102.759 170.682 102.435 170.882C102.115 171.078 101.865 171.354 101.685 171.71C101.509 172.062 101.421 172.468 101.421 172.928C101.421 173.384 101.509 173.79 101.685 174.146C101.865 174.498 102.115 174.774 102.435 174.974C102.759 175.17 103.129 175.268 103.545 175.268ZM107.39 169.856H108.422L109.88 174.272L110.018 174.794L110.144 174.272L111.65 169.856H112.568L114.098 174.272L114.236 174.794L114.362 174.272L115.79 169.856H116.798L114.674 176H113.726L112.226 171.38L112.112 170.954L112.01 171.368L110.444 176H109.508L107.39 169.856ZM120.588 176.144C120.008 176.144 119.484 176.006 119.016 175.73C118.548 175.454 118.18 175.07 117.912 174.578C117.644 174.086 117.51 173.532 117.51 172.916C117.51 172.316 117.646 171.772 117.918 171.284C118.19 170.792 118.56 170.408 119.028 170.132C119.5 169.852 120.02 169.712 120.588 169.712C121.172 169.712 121.69 169.848 122.142 170.12C122.594 170.388 122.946 170.766 123.198 171.254C123.45 171.742 123.576 172.3 123.576 172.928V173.144H118.488C118.52 173.576 118.628 173.952 118.812 174.272C118.996 174.592 119.24 174.84 119.544 175.016C119.848 175.188 120.196 175.274 120.588 175.274C120.96 175.274 121.29 175.202 121.578 175.058C121.866 174.914 122.102 174.708 122.286 174.44H123.354C123.126 174.972 122.77 175.39 122.286 175.694C121.802 175.994 121.236 176.144 120.588 176.144ZM122.574 172.382C122.514 172.018 122.392 171.7 122.208 171.428C122.028 171.156 121.798 170.946 121.518 170.798C121.242 170.65 120.932 170.576 120.588 170.576C120.224 170.576 119.896 170.65 119.604 170.798C119.316 170.946 119.078 171.156 118.89 171.428C118.702 171.7 118.578 172.018 118.518 172.382H122.574ZM125.11 169.856H126.07V170.876C126.266 170.528 126.52 170.262 126.832 170.078C127.144 169.89 127.502 169.796 127.906 169.796H128.122V170.798H127.87C127.506 170.798 127.188 170.868 126.916 171.008C126.644 171.148 126.434 171.348 126.286 171.608C126.142 171.864 126.07 172.166 126.07 172.514V176H125.11V169.856ZM129.41 169.856H130.37V176H129.41V169.856ZM129.362 167.6H130.418V168.692H129.362V167.6ZM132.387 169.856H133.311V170.852C133.519 170.484 133.795 170.202 134.139 170.006C134.487 169.81 134.889 169.712 135.345 169.712C135.785 169.712 136.175 169.806 136.515 169.994C136.855 170.182 137.121 170.46 137.313 170.828C137.509 171.192 137.607 171.63 137.607 172.142V176H136.647V172.238C136.647 171.706 136.509 171.292 136.233 170.996C135.957 170.7 135.577 170.552 135.093 170.552C134.749 170.552 134.445 170.628 134.181 170.78C133.917 170.932 133.711 171.146 133.563 171.422C133.419 171.694 133.347 172.006 133.347 172.358V176H132.387V169.856ZM142.057 178.064C141.605 178.064 141.183 177.988 140.791 177.836C140.403 177.684 140.075 177.47 139.807 177.194C139.543 176.922 139.365 176.608 139.273 176.252H140.257C140.309 176.432 140.421 176.592 140.593 176.732C140.765 176.876 140.977 176.988 141.229 177.068C141.485 177.148 141.761 177.188 142.057 177.188C142.437 177.188 142.777 177.116 143.077 176.972C143.381 176.828 143.617 176.626 143.785 176.366C143.957 176.106 144.043 175.804 144.043 175.46V175.088L144.055 174.596C143.819 174.936 143.513 175.2 143.137 175.388C142.765 175.572 142.343 175.664 141.871 175.664C141.315 175.664 140.823 175.538 140.395 175.286C139.967 175.034 139.635 174.682 139.399 174.23C139.167 173.778 139.051 173.264 139.051 172.688C139.051 172.112 139.167 171.598 139.399 171.146C139.635 170.694 139.967 170.342 140.395 170.09C140.823 169.838 141.315 169.712 141.871 169.712C142.355 169.712 142.787 169.81 143.167 170.006C143.547 170.198 143.855 170.472 144.091 170.828V169.856H145.021L145.003 175.46C145.003 175.968 144.877 176.418 144.625 176.81C144.373 177.206 144.023 177.514 143.575 177.734C143.131 177.954 142.625 178.064 142.057 178.064ZM142.057 174.818C142.445 174.818 142.789 174.73 143.089 174.554C143.393 174.374 143.629 174.122 143.797 173.798C143.965 173.474 144.051 173.104 144.055 172.688C144.051 172.272 143.965 171.902 143.797 171.578C143.629 171.254 143.393 171.004 143.089 170.828C142.789 170.648 142.445 170.558 142.057 170.558C141.665 170.558 141.317 170.648 141.013 170.828C140.709 171.004 140.473 171.254 140.305 171.578C140.141 171.902 140.059 172.272 140.059 172.688C140.059 173.104 140.141 173.474 140.305 173.798C140.473 174.122 140.709 174.374 141.013 174.554C141.317 174.73 141.665 174.818 142.057 174.818Z" fill="white"/>
<rect x="16" y="198" width="196" height="25" rx="12" fill="url(#paint3_radial_3520_30)"/>
<path d="M70.7396 215.144C69.9636 215.144 69.2616 214.956 68.6336 214.58C68.0056 214.2 67.5116 213.68 67.1516 213.02C66.7956 212.356 66.6176 211.616 66.6176 210.8C66.6176 209.984 66.7956 209.246 67.1516 208.586C67.5116 207.922 68.0056 207.402 68.6336 207.026C69.2616 206.646 69.9636 206.456 70.7396 206.456C71.3716 206.456 71.9516 206.57 72.4796 206.798C73.0116 207.026 73.4596 207.348 73.8236 207.764C74.1916 208.176 74.4536 208.654 74.6096 209.198H73.5296C73.3936 208.83 73.1916 208.508 72.9236 208.232C72.6556 207.956 72.3356 207.744 71.9636 207.596C71.5956 207.444 71.1976 207.368 70.7696 207.368C70.1856 207.368 69.6556 207.518 69.1796 207.818C68.7036 208.114 68.3296 208.524 68.0576 209.048C67.7856 209.572 67.6496 210.156 67.6496 210.8C67.6496 211.444 67.7856 212.028 68.0576 212.552C68.3296 213.076 68.7036 213.488 69.1796 213.788C69.6556 214.084 70.1856 214.232 70.7696 214.232C71.1976 214.232 71.5956 214.158 71.9636 214.01C72.3356 213.858 72.6556 213.644 72.9236 213.368C73.1916 213.092 73.3936 212.77 73.5296 212.402H74.6096C74.4536 212.946 74.1916 213.426 73.8236 213.842C73.4596 214.254 73.0116 214.574 72.4796 214.802C71.9516 215.03 71.3716 215.144 70.7396 215.144ZM78.8356 215.144C78.2476 215.144 77.7136 215.004 77.2336 214.724C76.7576 214.444 76.3836 214.06 76.1116 213.572C75.8396 213.08 75.7036 212.532 75.7036 211.928C75.7036 211.324 75.8396 210.778 76.1116 210.29C76.3836 209.798 76.7576 209.412 77.2336 209.132C77.7136 208.852 78.2476 208.712 78.8356 208.712C79.4236 208.712 79.9556 208.852 80.4316 209.132C80.9116 209.412 81.2876 209.798 81.5596 210.29C81.8316 210.778 81.9676 211.324 81.9676 211.928C81.9676 212.532 81.8316 213.08 81.5596 213.572C81.2876 214.06 80.9116 214.444 80.4316 214.724C79.9556 215.004 79.4236 215.144 78.8356 215.144ZM78.8356 214.268C79.2516 214.268 79.6196 214.17 79.9396 213.974C80.2636 213.774 80.5136 213.498 80.6896 213.146C80.8696 212.79 80.9596 212.384 80.9596 211.928C80.9596 211.468 80.8696 211.062 80.6896 210.71C80.5136 210.354 80.2636 210.078 79.9396 209.882C79.6196 209.682 79.2516 209.582 78.8356 209.582C78.4196 209.582 78.0496 209.682 77.7256 209.882C77.4056 210.078 77.1556 210.354 76.9756 210.71C76.7996 211.062 76.7116 211.468 76.7116 211.928C76.7116 212.384 76.7996 212.79 76.9756 213.146C77.1556 213.498 77.4056 213.774 77.7256 213.974C78.0496 214.17 78.4196 214.268 78.8356 214.268ZM88.2241 213.956C87.9921 214.332 87.6821 214.624 87.2941 214.832C86.9061 215.04 86.4621 215.144 85.9621 215.144C85.3901 215.144 84.8801 215.01 84.4321 214.742C83.9881 214.47 83.6401 214.09 83.3881 213.602C83.1401 213.114 83.0161 212.556 83.0161 211.928C83.0161 211.3 83.1401 210.742 83.3881 210.254C83.6401 209.766 83.9881 209.388 84.4321 209.12C84.8801 208.848 85.3901 208.712 85.9621 208.712C86.4621 208.712 86.9061 208.816 87.2941 209.024C87.6821 209.232 87.9921 209.524 88.2241 209.9V206.6H89.1841V215H88.2241V213.956ZM86.1121 214.274C86.5241 214.274 86.8901 214.176 87.2101 213.98C87.5301 213.78 87.7781 213.504 87.9541 213.152C88.1341 212.796 88.2241 212.388 88.2241 211.928C88.2241 211.468 88.1341 211.062 87.9541 210.71C87.7781 210.354 87.5301 210.078 87.2101 209.882C86.8901 209.682 86.5241 209.582 86.1121 209.582C85.7041 209.582 85.3421 209.682 85.0261 209.882C84.7101 210.078 84.4641 210.354 84.2881 210.71C84.1121 211.062 84.0241 211.468 84.0241 211.928C84.0241 212.388 84.1121 212.796 84.2881 213.152C84.4641 213.504 84.7101 213.78 85.0261 213.98C85.3421 214.176 85.7041 214.274 86.1121 214.274ZM93.7934 215.144C93.2134 215.144 92.6894 215.006 92.2214 214.73C91.7534 214.454 91.3854 214.07 91.1174 213.578C90.8494 213.086 90.7154 212.532 90.7154 211.916C90.7154 211.316 90.8514 210.772 91.1234 210.284C91.3954 209.792 91.7654 209.408 92.2334 209.132C92.7054 208.852 93.2254 208.712 93.7934 208.712C94.3774 208.712 94.8954 208.848 95.3474 209.12C95.7994 209.388 96.1514 209.766 96.4034 210.254C96.6554 210.742 96.7814 211.3 96.7814 211.928V212.144H91.6934C91.7254 212.576 91.8334 212.952 92.0174 213.272C92.2014 213.592 92.4454 213.84 92.7494 214.016C93.0534 214.188 93.4014 214.274 93.7934 214.274C94.1654 214.274 94.4954 214.202 94.7834 214.058C95.0714 213.914 95.3074 213.708 95.4914 213.44H96.5594C96.3314 213.972 95.9754 214.39 95.4914 214.694C95.0074 214.994 94.4414 215.144 93.7934 215.144ZM95.7794 211.382C95.7194 211.018 95.5974 210.7 95.4134 210.428C95.2334 210.156 95.0034 209.946 94.7234 209.798C94.4474 209.65 94.1374 209.576 93.7934 209.576C93.4294 209.576 93.1014 209.65 92.8094 209.798C92.5214 209.946 92.2834 210.156 92.0954 210.428C91.9074 210.7 91.7834 211.018 91.7234 211.382H95.7794ZM104.165 217.064C103.713 217.064 103.291 216.988 102.899 216.836C102.511 216.684 102.183 216.47 101.915 216.194C101.651 215.922 101.473 215.608 101.381 215.252H102.365C102.417 215.432 102.529 215.592 102.701 215.732C102.873 215.876 103.085 215.988 103.337 216.068C103.593 216.148 103.869 216.188 104.165 216.188C104.545 216.188 104.885 216.116 105.185 215.972C105.489 215.828 105.725 215.626 105.893 215.366C106.065 215.106 106.151 214.804 106.151 214.46V214.088L106.163 213.596C105.927 213.936 105.621 214.2 105.245 214.388C104.873 214.572 104.451 214.664 103.979 214.664C103.423 214.664 102.931 214.538 102.503 214.286C102.075 214.034 101.743 213.682 101.507 213.23C101.275 212.778 101.159 212.264 101.159 211.688C101.159 211.112 101.275 210.598 101.507 210.146C101.743 209.694 102.075 209.342 102.503 209.09C102.931 208.838 103.423 208.712 103.979 208.712C104.463 208.712 104.895 208.81 105.275 209.006C105.655 209.198 105.963 209.472 106.199 209.828V208.856H107.129L107.111 214.46C107.111 214.968 106.985 215.418 106.733 215.81C106.481 216.206 106.131 216.514 105.683 216.734C105.239 216.954 104.733 217.064 104.165 217.064ZM104.165 213.818C104.553 213.818 104.897 213.73 105.197 213.554C105.501 213.374 105.737 213.122 105.905 212.798C106.073 212.474 106.159 212.104 106.163 211.688C106.159 211.272 106.073 210.902 105.905 210.578C105.737 210.254 105.501 210.004 105.197 209.828C104.897 209.648 104.553 209.558 104.165 209.558C103.773 209.558 103.425 209.648 103.121 209.828C102.817 210.004 102.581 210.254 102.413 210.578C102.249 210.902 102.167 211.272 102.167 211.688C102.167 212.104 102.249 212.474 102.413 212.798C102.581 213.122 102.817 213.374 103.121 213.554C103.425 213.73 103.773 213.818 104.165 213.818ZM111.84 215.144C111.26 215.144 110.736 215.006 110.268 214.73C109.8 214.454 109.432 214.07 109.164 213.578C108.896 213.086 108.762 212.532 108.762 211.916C108.762 211.316 108.898 210.772 109.17 210.284C109.442 209.792 109.812 209.408 110.28 209.132C110.752 208.852 111.272 208.712 111.84 208.712C112.424 208.712 112.942 208.848 113.394 209.12C113.846 209.388 114.198 209.766 114.45 210.254C114.702 210.742 114.828 211.3 114.828 211.928V212.144H109.74C109.772 212.576 109.88 212.952 110.064 213.272C110.248 213.592 110.492 213.84 110.796 214.016C111.1 214.188 111.448 214.274 111.84 214.274C112.212 214.274 112.542 214.202 112.83 214.058C113.118 213.914 113.354 213.708 113.538 213.44H114.606C114.378 213.972 114.022 214.39 113.538 214.694C113.054 214.994 112.488 215.144 111.84 215.144ZM113.826 211.382C113.766 211.018 113.644 210.7 113.46 210.428C113.28 210.156 113.05 209.946 112.77 209.798C112.494 209.65 112.184 209.576 111.84 209.576C111.476 209.576 111.148 209.65 110.856 209.798C110.568 209.946 110.33 210.156 110.142 210.428C109.954 210.7 109.83 211.018 109.77 211.382H113.826ZM116.362 208.856H117.286V209.852C117.494 209.484 117.77 209.202 118.114 209.006C118.462 208.81 118.864 208.712 119.32 208.712C119.76 208.712 120.15 208.806 120.49 208.994C120.83 209.182 121.096 209.46 121.288 209.828C121.484 210.192 121.582 210.63 121.582 211.142V215H120.622V211.238C120.622 210.706 120.484 210.292 120.208 209.996C119.932 209.7 119.552 209.552 119.068 209.552C118.724 209.552 118.42 209.628 118.156 209.78C117.892 209.932 117.686 210.146 117.538 210.422C117.394 210.694 117.322 211.006 117.322 211.358V215H116.362V208.856ZM126.02 215.144C125.44 215.144 124.916 215.006 124.448 214.73C123.98 214.454 123.612 214.07 123.344 213.578C123.076 213.086 122.942 212.532 122.942 211.916C122.942 211.316 123.078 210.772 123.35 210.284C123.622 209.792 123.992 209.408 124.46 209.132C124.932 208.852 125.452 208.712 126.02 208.712C126.604 208.712 127.122 208.848 127.574 209.12C128.026 209.388 128.378 209.766 128.63 210.254C128.882 210.742 129.008 211.3 129.008 211.928V212.144H123.92C123.952 212.576 124.06 212.952 124.244 213.272C124.428 213.592 124.672 213.84 124.976 214.016C125.28 214.188 125.628 214.274 126.02 214.274C126.392 214.274 126.722 214.202 127.01 214.058C127.298 213.914 127.534 213.708 127.718 213.44H128.786C128.558 213.972 128.202 214.39 127.718 214.694C127.234 214.994 126.668 215.144 126.02 215.144ZM128.006 211.382C127.946 211.018 127.824 210.7 127.64 210.428C127.46 210.156 127.23 209.946 126.95 209.798C126.674 209.65 126.364 209.576 126.02 209.576C125.656 209.576 125.328 209.65 125.036 209.798C124.748 209.946 124.51 210.156 124.322 210.428C124.134 210.7 124.01 211.018 123.95 211.382H128.006ZM130.541 208.856H131.501V209.876C131.697 209.528 131.951 209.262 132.263 209.078C132.575 208.89 132.933 208.796 133.337 208.796H133.553V209.798H133.301C132.937 209.798 132.619 209.868 132.347 210.008C132.075 210.148 131.865 210.348 131.717 210.608C131.573 210.864 131.501 211.166 131.501 211.514V215H130.541V208.856ZM136.891 208.712C137.367 208.712 137.777 208.8 138.121 208.976C138.469 209.148 138.735 209.396 138.919 209.72C139.107 210.044 139.201 210.428 139.201 210.872V215H138.253V214.118C138.057 214.446 137.791 214.7 137.455 214.88C137.123 215.056 136.741 215.144 136.309 215.144C135.917 215.144 135.563 215.068 135.247 214.916C134.935 214.764 134.691 214.554 134.515 214.286C134.339 214.018 134.251 213.716 134.251 213.38C134.251 213.056 134.335 212.756 134.503 212.48C134.671 212.204 134.903 211.978 135.199 211.802C135.495 211.626 135.829 211.518 136.201 211.478L137.809 211.298C138.029 211.274 138.173 211.146 138.241 210.914V210.752C138.241 210.384 138.119 210.092 137.875 209.876C137.631 209.66 137.303 209.552 136.891 209.552C136.615 209.552 136.371 209.596 136.159 209.684C135.951 209.768 135.785 209.882 135.661 210.026C135.537 210.17 135.459 210.324 135.427 210.488H134.467C134.519 210.156 134.651 209.856 134.863 209.588C135.079 209.316 135.361 209.102 135.709 208.946C136.057 208.79 136.451 208.712 136.891 208.712ZM135.247 213.332C135.247 213.532 135.301 213.71 135.409 213.866C135.517 214.018 135.667 214.136 135.859 214.22C136.055 214.304 136.279 214.346 136.531 214.346C136.863 214.346 137.159 214.278 137.419 214.142C137.679 214.002 137.881 213.808 138.025 213.56C138.169 213.312 138.241 213.026 138.241 212.702V211.976L136.339 212.186C136.127 212.21 135.937 212.276 135.769 212.384C135.605 212.488 135.477 212.624 135.385 212.792C135.293 212.956 135.247 213.136 135.247 213.332ZM143.081 215C142.789 215 142.523 214.938 142.283 214.814C142.047 214.686 141.861 214.512 141.725 214.292C141.589 214.068 141.521 213.82 141.521 213.548L141.515 209.708H140.435L140.441 208.856H141.107C141.259 208.856 141.381 208.808 141.473 208.712C141.569 208.616 141.617 208.494 141.617 208.346V207.356H142.481V208.856H144.143L144.137 209.708H142.475L142.481 213.488C142.481 213.676 142.543 213.834 142.667 213.962C142.795 214.086 142.953 214.148 143.141 214.148H144.137V215H143.081ZM145.635 208.856H146.595V215H145.635V208.856ZM145.587 206.6H146.643V207.692H145.587V206.6ZM151.258 215.144C150.67 215.144 150.136 215.004 149.656 214.724C149.18 214.444 148.806 214.06 148.534 213.572C148.262 213.08 148.126 212.532 148.126 211.928C148.126 211.324 148.262 210.778 148.534 210.29C148.806 209.798 149.18 209.412 149.656 209.132C150.136 208.852 150.67 208.712 151.258 208.712C151.846 208.712 152.378 208.852 152.854 209.132C153.334 209.412 153.71 209.798 153.982 210.29C154.254 210.778 154.39 211.324 154.39 211.928C154.39 212.532 154.254 213.08 153.982 213.572C153.71 214.06 153.334 214.444 152.854 214.724C152.378 215.004 151.846 215.144 151.258 215.144ZM151.258 214.268C151.674 214.268 152.042 214.17 152.362 213.974C152.686 213.774 152.936 213.498 153.112 213.146C153.292 212.79 153.382 212.384 153.382 211.928C153.382 211.468 153.292 211.062 153.112 210.71C152.936 210.354 152.686 210.078 152.362 209.882C152.042 209.682 151.674 209.582 151.258 209.582C150.842 209.582 150.472 209.682 150.148 209.882C149.828 210.078 149.578 210.354 149.398 210.71C149.222 211.062 149.134 211.468 149.134 211.928C149.134 212.384 149.222 212.79 149.398 213.146C149.578 213.498 149.828 213.774 150.148 213.974C150.472 214.17 150.842 214.268 151.258 214.268ZM155.924 208.856H156.848V209.852C157.056 209.484 157.332 209.202 157.676 209.006C158.024 208.81 158.426 208.712 158.882 208.712C159.322 208.712 159.712 208.806 160.052 208.994C160.392 209.182 160.658 209.46 160.85 209.828C161.046 210.192 161.144 210.63 161.144 211.142V215H160.184V211.238C160.184 210.706 160.046 210.292 159.77 209.996C159.494 209.7 159.114 209.552 158.63 209.552C158.286 209.552 157.982 209.628 157.718 209.78C157.454 209.932 157.248 210.146 157.1 210.422C156.956 210.694 156.884 211.006 156.884 211.358V215H155.924V208.856Z" fill="white"/>
<rect x="16" y="42" width="196" height="25" rx="12" fill="url(#paint4_radial_3520_30)"/>
<path d="M94.3982 50.6H97.7942C98.3302 50.6 98.8002 50.7 99.2042 50.9C99.6122 51.1 99.9262 51.384 100.146 51.752C100.37 52.12 100.482 52.548 100.482 53.036C100.482 53.524 100.368 53.954 100.14 54.326C99.9162 54.694 99.5982 54.98 99.1862 55.184C98.7742 55.384 98.2942 55.484 97.7462 55.484H95.3942V59H94.3982V50.6ZM97.7942 54.554C98.1222 54.554 98.4082 54.492 98.6522 54.368C98.9002 54.244 99.0902 54.068 99.2222 53.84C99.3582 53.612 99.4262 53.344 99.4262 53.036C99.4262 52.732 99.3582 52.466 99.2222 52.238C99.0902 52.01 98.9002 51.836 98.6522 51.716C98.4082 51.592 98.1222 51.53 97.7942 51.53H95.3942V54.554H97.7942ZM103.692 52.712C104.168 52.712 104.578 52.8 104.922 52.976C105.27 53.148 105.536 53.396 105.72 53.72C105.908 54.044 106.002 54.428 106.002 54.872V59H105.054V58.118C104.858 58.446 104.592 58.7 104.256 58.88C103.924 59.056 103.542 59.144 103.11 59.144C102.718 59.144 102.364 59.068 102.048 58.916C101.736 58.764 101.492 58.554 101.316 58.286C101.14 58.018 101.052 57.716 101.052 57.38C101.052 57.056 101.136 56.756 101.304 56.48C101.472 56.204 101.704 55.978 102 55.802C102.296 55.626 102.63 55.518 103.002 55.478L104.61 55.298C104.83 55.274 104.974 55.146 105.042 54.914V54.752C105.042 54.384 104.92 54.092 104.676 53.876C104.432 53.66 104.104 53.552 103.692 53.552C103.416 53.552 103.172 53.596 102.96 53.684C102.752 53.768 102.586 53.882 102.462 54.026C102.338 54.17 102.26 54.324 102.228 54.488H101.268C101.32 54.156 101.452 53.856 101.664 53.588C101.88 53.316 102.162 53.102 102.51 52.946C102.858 52.79 103.252 52.712 103.692 52.712ZM102.048 57.332C102.048 57.532 102.102 57.71 102.21 57.866C102.318 58.018 102.468 58.136 102.66 58.22C102.856 58.304 103.08 58.346 103.332 58.346C103.664 58.346 103.96 58.278 104.22 58.142C104.48 58.002 104.682 57.808 104.826 57.56C104.97 57.312 105.042 57.026 105.042 56.702V55.976L103.14 56.186C102.928 56.21 102.738 56.276 102.57 56.384C102.406 56.488 102.278 56.624 102.186 56.792C102.094 56.956 102.048 57.136 102.048 57.332ZM107.842 52.856H108.802V53.876C108.998 53.528 109.252 53.262 109.564 53.078C109.876 52.89 110.234 52.796 110.638 52.796H110.854V53.798H110.602C110.238 53.798 109.92 53.868 109.648 54.008C109.376 54.148 109.166 54.348 109.018 54.608C108.874 54.864 108.802 55.166 108.802 55.514V59H107.842V52.856ZM114.147 59.144C113.675 59.144 113.255 59.07 112.887 58.922C112.519 58.77 112.227 58.556 112.011 58.28C111.795 58.004 111.675 57.682 111.651 57.314H112.611C112.651 57.622 112.809 57.868 113.085 58.052C113.361 58.236 113.711 58.328 114.135 58.328C114.415 58.328 114.663 58.284 114.879 58.196C115.099 58.108 115.269 57.986 115.389 57.83C115.509 57.67 115.569 57.488 115.569 57.284C115.569 57.064 115.501 56.878 115.365 56.726C115.229 56.57 115.041 56.47 114.801 56.426L113.475 56.18C112.979 56.088 112.587 55.892 112.299 55.592C112.011 55.288 111.867 54.922 111.867 54.494C111.867 54.158 111.959 53.856 112.143 53.588C112.327 53.316 112.585 53.102 112.917 52.946C113.253 52.79 113.637 52.712 114.069 52.712C114.513 52.712 114.903 52.784 115.239 52.928C115.575 53.068 115.839 53.272 116.031 53.54C116.227 53.804 116.339 54.118 116.367 54.482H115.407C115.367 54.186 115.225 53.95 114.981 53.774C114.737 53.598 114.433 53.51 114.069 53.51C113.821 53.51 113.601 53.552 113.409 53.636C113.217 53.716 113.069 53.832 112.965 53.984C112.861 54.132 112.809 54.302 112.809 54.494C112.809 54.71 112.879 54.884 113.019 55.016C113.163 55.148 113.389 55.244 113.697 55.304L115.011 55.55C115.479 55.638 115.845 55.84 116.109 56.156C116.377 56.468 116.511 56.844 116.511 57.284C116.511 57.64 116.407 57.96 116.199 58.244C115.995 58.528 115.713 58.75 115.353 58.91C114.993 59.066 114.591 59.144 114.147 59.144ZM118.037 52.856H118.997V59H118.037V52.856ZM117.989 50.6H119.045V51.692H117.989V50.6ZM121.014 52.856H121.938V53.852C122.146 53.484 122.422 53.202 122.766 53.006C123.114 52.81 123.516 52.712 123.972 52.712C124.412 52.712 124.802 52.806 125.142 52.994C125.482 53.182 125.748 53.46 125.94 53.828C126.136 54.192 126.234 54.63 126.234 55.142V59H125.274V55.238C125.274 54.706 125.136 54.292 124.86 53.996C124.584 53.7 124.204 53.552 123.72 53.552C123.376 53.552 123.072 53.628 122.808 53.78C122.544 53.932 122.338 54.146 122.19 54.422C122.046 54.694 121.974 55.006 121.974 55.358V59H121.014V52.856ZM130.684 61.064C130.232 61.064 129.81 60.988 129.418 60.836C129.03 60.684 128.702 60.47 128.434 60.194C128.17 59.922 127.992 59.608 127.9 59.252H128.884C128.936 59.432 129.048 59.592 129.22 59.732C129.392 59.876 129.604 59.988 129.856 60.068C130.112 60.148 130.388 60.188 130.684 60.188C131.064 60.188 131.404 60.116 131.704 59.972C132.008 59.828 132.244 59.626 132.412 59.366C132.584 59.106 132.67 58.804 132.67 58.46V58.088L132.682 57.596C132.446 57.936 132.14 58.2 131.764 58.388C131.392 58.572 130.97 58.664 130.498 58.664C129.942 58.664 129.45 58.538 129.022 58.286C128.594 58.034 128.262 57.682 128.026 57.23C127.794 56.778 127.678 56.264 127.678 55.688C127.678 55.112 127.794 54.598 128.026 54.146C128.262 53.694 128.594 53.342 129.022 53.09C129.45 52.838 129.942 52.712 130.498 52.712C130.982 52.712 131.414 52.81 131.794 53.006C132.174 53.198 132.482 53.472 132.718 53.828V52.856H133.648L133.63 58.46C133.63 58.968 133.504 59.418 133.252 59.81C133 60.206 132.65 60.514 132.202 60.734C131.758 60.954 131.252 61.064 130.684 61.064ZM130.684 57.818C131.072 57.818 131.416 57.73 131.716 57.554C132.02 57.374 132.256 57.122 132.424 56.798C132.592 56.474 132.678 56.104 132.682 55.688C132.678 55.272 132.592 54.902 132.424 54.578C132.256 54.254 132.02 54.004 131.716 53.828C131.416 53.648 131.072 53.558 130.684 53.558C130.292 53.558 129.944 53.648 129.64 53.828C129.336 54.004 129.1 54.254 128.932 54.578C128.768 54.902 128.686 55.272 128.686 55.688C128.686 56.104 128.768 56.474 128.932 56.798C129.1 57.122 129.336 57.374 129.64 57.554C129.944 57.73 130.292 57.818 130.684 57.818Z" fill="white"/>
<rect x="0.35" y="0.35" width="232.3" height="244.3" rx="14.65" stroke="#595959" stroke-width="0.7"/>
<defs>
<radialGradient id="paint0_radial_3520_30" cx="0" cy="0" r="1" gradientUnits="userSpaceOnUse" gradientTransform="translate(15.4515 106.377) scale(191.063 92.528)">
<stop stop-color="#EB4857"/>
<stop offset="0.5" stop-color="#C611E0"/>
<stop offset="1" stop-color="#7F52FF"/>
</radialGradient>
<radialGradient id="paint1_radial_3520_30" cx="0" cy="0" r="1" gradientUnits="userSpaceOnUse" gradientTransform="translate(15.4515 145.377) scale(191.063 92.528)">
<stop stop-color="#EB4857"/>
<stop offset="0.5" stop-color="#C611E0"/>
<stop offset="1" stop-color="#7F52FF"/>
</radialGradient>
<radialGradient id="paint2_radial_3520_30" cx="0" cy="0" r="1" gradientUnits="userSpaceOnUse" gradientTransform="translate(15.4515 184.377) scale(191.063 92.528)">
<stop stop-color="#EB4857"/>
<stop offset="0.5" stop-color="#C611E0"/>
<stop offset="1" stop-color="#7F52FF"/>
</radialGradient>
<radialGradient id="paint3_radial_3520_30" cx="0" cy="0" r="1" gradientUnits="userSpaceOnUse" gradientTransform="translate(15.4515 223.377) scale(191.063 92.528)">
<stop stop-color="#EB4857"/>
<stop offset="0.5" stop-color="#C611E0"/>
<stop offset="1" stop-color="#7F52FF"/>
</radialGradient>
<radialGradient id="paint4_radial_3520_30" cx="0" cy="0" r="1" gradientUnits="userSpaceOnUse" gradientTransform="translate(15.4515 67.3767) scale(191.063 92.528)">
<stop stop-color="#EB4857"/>
<stop offset="0.5" stop-color="#C611E0"/>
<stop offset="1" stop-color="#7F52FF"/>
</radialGradient>
</defs>
</svg>
