<svg width="469" height="265" viewBox="0 0 469 265" fill="none" xmlns="http://www.w3.org/2000/svg">
<path d="M12.965 12H13.765V15.28L17.045 12H18.135L14.74 15.38L18.195 19H17.075L13.765 15.54V19H12.965V12ZM20.9825 19.12C20.4925 19.12 20.0475 19.0033 19.6475 18.77C19.2508 18.5367 18.9392 18.2167 18.7125 17.81C18.4858 17.4 18.3725 16.9433 18.3725 16.44C18.3725 15.9367 18.4858 15.4817 18.7125 15.075C18.9392 14.665 19.2508 14.3433 19.6475 14.11C20.0475 13.8767 20.4925 13.76 20.9825 13.76C21.4725 13.76 21.9158 13.8767 22.3125 14.11C22.7125 14.3433 23.0258 14.665 23.2525 15.075C23.4792 15.4817 23.5925 15.9367 23.5925 16.44C23.5925 16.9433 23.4792 17.4 23.2525 17.81C23.0258 18.2167 22.7125 18.5367 22.3125 18.77C21.9158 19.0033 21.4725 19.12 20.9825 19.12ZM20.9825 18.39C21.3292 18.39 21.6358 18.3083 21.9025 18.145C22.1725 17.9783 22.3808 17.7483 22.5275 17.455C22.6775 17.1583 22.7525 16.82 22.7525 16.44C22.7525 16.0567 22.6775 15.7183 22.5275 15.425C22.3808 15.1283 22.1725 14.8983 21.9025 14.735C21.6358 14.5683 21.3292 14.485 20.9825 14.485C20.6358 14.485 20.3275 14.5683 20.0575 14.735C19.7908 14.8983 19.5825 15.1283 19.4325 15.425C19.2858 15.7183 19.2125 16.0567 19.2125 16.44C19.2125 16.82 19.2858 17.1583 19.4325 17.455C19.5825 17.7483 19.7908 17.9783 20.0575 18.145C20.3275 18.3083 20.6358 18.39 20.9825 18.39ZM26.542 19C26.2986 19 26.077 18.9483 25.877 18.845C25.6803 18.7383 25.5253 18.5933 25.412 18.41C25.2986 18.2233 25.242 18.0167 25.242 17.79L25.237 14.59H24.337L24.342 13.88H24.897C25.0236 13.88 25.1253 13.84 25.202 13.76C25.282 13.68 25.322 13.5783 25.322 13.455V12.63H26.042V13.88H27.427L27.422 14.59H26.037L26.042 17.74C26.042 17.8967 26.0936 18.0283 26.197 18.135C26.3036 18.2383 26.4353 18.29 26.592 18.29H27.422V19H26.542ZM28.7551 12H29.5551V19H28.7551V12ZM31.3166 13.88H32.1166V19H31.3166V13.88ZM31.2766 12H32.1566V12.91H31.2766V12ZM33.797 13.88H34.567V14.71C34.7404 14.4033 34.9704 14.1683 35.257 14.005C35.547 13.8417 35.882 13.76 36.262 13.76C36.6287 13.76 36.9537 13.8383 37.237 13.995C37.5204 14.1517 37.742 14.3833 37.902 14.69C38.0654 14.9933 38.147 15.3583 38.147 15.785V19H37.347V15.865C37.347 15.4217 37.232 15.0767 37.002 14.83C36.772 14.5833 36.4554 14.46 36.052 14.46C35.7654 14.46 35.512 14.5233 35.292 14.65C35.072 14.7767 34.9004 14.955 34.777 15.185C34.657 15.4117 34.597 15.6717 34.597 15.965V19H33.797V13.88ZM44.5458 19.12C44.0624 19.12 43.6258 19.0033 43.2358 18.77C42.8458 18.5367 42.5391 18.2167 42.3158 17.81C42.0958 17.4 41.9858 16.9433 41.9858 16.44C41.9858 15.9367 42.0958 15.4817 42.3158 15.075C42.5391 14.665 42.8458 14.3433 43.2358 14.11C43.6258 13.8767 44.0624 13.76 44.5458 13.76C44.9291 13.76 45.2808 13.8333 45.6008 13.98C45.9241 14.1233 46.1958 14.3283 46.4158 14.595C46.6391 14.8617 46.7991 15.1717 46.8958 15.525H46.0208C45.9008 15.205 45.7091 14.9517 45.4458 14.765C45.1858 14.5783 44.8858 14.485 44.5458 14.485C44.2158 14.485 43.9191 14.5683 43.6558 14.735C43.3958 14.9017 43.1924 15.1333 43.0458 15.43C42.8991 15.7267 42.8258 16.0633 42.8258 16.44C42.8258 16.8133 42.8991 17.1483 43.0458 17.445C43.1924 17.7417 43.3958 17.975 43.6558 18.145C43.9191 18.3117 44.2158 18.395 44.5458 18.395C44.8858 18.395 45.1858 18.3017 45.4458 18.115C45.7091 17.9283 45.9008 17.675 46.0208 17.355H46.8958C46.7991 17.7083 46.6391 18.0183 46.4158 18.285C46.1958 18.5517 45.9241 18.7583 45.6008 18.905C45.2808 19.0483 44.9291 19.12 44.5458 19.12ZM50.3087 19.12C49.8187 19.12 49.3737 19.0033 48.9737 18.77C48.577 18.5367 48.2653 18.2167 48.0387 17.81C47.812 17.4 47.6987 16.9433 47.6987 16.44C47.6987 15.9367 47.812 15.4817 48.0387 15.075C48.2653 14.665 48.577 14.3433 48.9737 14.11C49.3737 13.8767 49.8187 13.76 50.3087 13.76C50.7987 13.76 51.242 13.8767 51.6387 14.11C52.0387 14.3433 52.352 14.665 52.5787 15.075C52.8053 15.4817 52.9187 15.9367 52.9187 16.44C52.9187 16.9433 52.8053 17.4 52.5787 17.81C52.352 18.2167 52.0387 18.5367 51.6387 18.77C51.242 19.0033 50.7987 19.12 50.3087 19.12ZM50.3087 18.39C50.6553 18.39 50.962 18.3083 51.2287 18.145C51.4987 17.9783 51.707 17.7483 51.8537 17.455C52.0037 17.1583 52.0787 16.82 52.0787 16.44C52.0787 16.0567 52.0037 15.7183 51.8537 15.425C51.707 15.1283 51.4987 14.8983 51.2287 14.735C50.962 14.5683 50.6553 14.485 50.3087 14.485C49.962 14.485 49.6537 14.5683 49.3837 14.735C49.117 14.8983 48.9087 15.1283 48.7587 15.425C48.612 15.7183 48.5387 16.0567 48.5387 16.44C48.5387 16.82 48.612 17.1583 48.7587 17.455C48.9087 17.7483 49.117 17.9783 49.3837 18.145C49.6537 18.3083 49.962 18.39 50.3087 18.39ZM54.1974 13.88H54.9674V14.745C55.1208 14.4283 55.3324 14.185 55.6024 14.015C55.8758 13.845 56.1958 13.76 56.5624 13.76C56.9458 13.76 57.2791 13.8517 57.5624 14.035C57.8458 14.2183 58.0574 14.4767 58.1974 14.81C58.3608 14.4767 58.5891 14.2183 58.8824 14.035C59.1758 13.8517 59.5141 13.76 59.8974 13.76C60.2608 13.76 60.5824 13.8433 60.8624 14.01C61.1458 14.1733 61.3658 14.4067 61.5224 14.71C61.6791 15.0133 61.7574 15.3667 61.7574 15.77V19H60.9574V15.805C60.9574 15.3817 60.8508 15.0483 60.6374 14.805C60.4274 14.5617 60.1308 14.44 59.7474 14.44C59.4741 14.44 59.2341 14.5033 59.0274 14.63C58.8208 14.7533 58.6608 14.93 58.5474 15.16C58.4341 15.3867 58.3774 15.655 58.3774 15.965V19H57.5774V15.805C57.5774 15.3817 57.4708 15.0483 57.2574 14.805C57.0474 14.5617 56.7508 14.44 56.3674 14.44C56.0908 14.44 55.8491 14.5017 55.6424 14.625C55.4358 14.7483 55.2758 14.925 55.1624 15.155C55.0524 15.385 54.9974 15.655 54.9974 15.965V19H54.1974V13.88ZM64.0692 13.88V14.785C64.2626 14.4617 64.5226 14.21 64.8492 14.03C65.1759 13.85 65.5509 13.76 65.9742 13.76C66.4509 13.76 66.8742 13.8733 67.2442 14.1C67.6176 14.3233 67.9076 14.6383 68.1142 15.045C68.3242 15.4517 68.4292 15.9167 68.4292 16.44C68.4292 16.9633 68.3242 17.4283 68.1142 17.835C67.9076 18.2417 67.6176 18.5583 67.2442 18.785C66.8742 19.0083 66.4509 19.12 65.9742 19.12C65.5576 19.12 65.1876 19.0333 64.8642 18.86C64.5409 18.6867 64.2826 18.4433 64.0892 18.13V20.6H63.2892V13.88H64.0692ZM65.8492 18.395C66.1892 18.395 66.4909 18.3133 66.7542 18.15C67.0176 17.9833 67.2226 17.7533 67.3692 17.46C67.5159 17.1633 67.5892 16.8233 67.5892 16.44C67.5892 16.0567 67.5159 15.7183 67.3692 15.425C67.2226 15.1283 67.0176 14.8983 66.7542 14.735C66.4909 14.5683 66.1892 14.485 65.8492 14.485C65.5059 14.485 65.2009 14.5683 64.9342 14.735C64.6676 14.8983 64.4592 15.1283 64.3092 15.425C64.1626 15.7183 64.0892 16.0567 64.0892 16.44C64.0892 16.8233 64.1626 17.1633 64.3092 17.46C64.4592 17.7533 64.6676 17.9833 64.9342 18.15C65.2009 18.3133 65.5059 18.395 65.8492 18.395ZM69.7052 13.88H70.5052V19H69.7052V13.88ZM69.6652 12H70.5452V12.91H69.6652V12ZM72.2707 12H73.0707V19H72.2707V12ZM76.9922 19.12C76.5089 19.12 76.0722 19.005 75.6822 18.775C75.2922 18.545 74.9855 18.225 74.7622 17.815C74.5389 17.405 74.4272 16.9433 74.4272 16.43C74.4272 15.93 74.5405 15.4767 74.7672 15.07C74.9939 14.66 75.3022 14.34 75.6922 14.11C76.0855 13.8767 76.5189 13.76 76.9922 13.76C77.4789 13.76 77.9105 13.8733 78.2872 14.1C78.6639 14.3233 78.9572 14.6383 79.1672 15.045C79.3772 15.4517 79.4822 15.9167 79.4822 16.44V16.62H75.2422C75.2689 16.98 75.3589 17.2933 75.5122 17.56C75.6655 17.8267 75.8689 18.0333 76.1222 18.18C76.3755 18.3233 76.6655 18.395 76.9922 18.395C77.3022 18.395 77.5772 18.335 77.8172 18.215C78.0572 18.095 78.2539 17.9233 78.4072 17.7H79.2972C79.1072 18.1433 78.8105 18.4917 78.4072 18.745C78.0039 18.995 77.5322 19.12 76.9922 19.12ZM78.6472 15.985C78.5972 15.6817 78.4955 15.4167 78.3422 15.19C78.1922 14.9633 78.0005 14.7883 77.7672 14.665C77.5372 14.5417 77.2789 14.48 76.9922 14.48C76.6889 14.48 76.4155 14.5417 76.1722 14.665C75.9322 14.7883 75.7339 14.9633 75.5772 15.19C75.4205 15.4167 75.3172 15.6817 75.2672 15.985H78.6472ZM80.7599 13.88H81.5599V14.73C81.7233 14.44 81.9349 14.2183 82.1949 14.065C82.4549 13.9083 82.7533 13.83 83.0899 13.83H83.2699V14.665H83.0599C82.7566 14.665 82.4916 14.7233 82.2649 14.84C82.0383 14.9567 81.8633 15.1233 81.7399 15.34C81.6199 15.5533 81.5599 15.805 81.5599 16.095V19H80.7599V13.88ZM88.8459 19.12C88.4526 19.12 88.1026 19.0583 87.7959 18.935C87.4893 18.8083 87.2459 18.63 87.0659 18.4C86.8859 18.17 86.7859 17.9017 86.7659 17.595H87.5659C87.5993 17.8517 87.7309 18.0567 87.9609 18.21C88.1909 18.3633 88.4826 18.44 88.8359 18.44C89.0693 18.44 89.2759 18.4033 89.4559 18.33C89.6393 18.2567 89.7809 18.155 89.8809 18.025C89.9809 17.8917 90.0309 17.74 90.0309 17.57C90.0309 17.3867 89.9743 17.2317 89.8609 17.105C89.7476 16.975 89.5909 16.8917 89.3909 16.855L88.2859 16.65C87.8726 16.5733 87.5459 16.41 87.3059 16.16C87.0659 15.9067 86.9459 15.6017 86.9459 15.245C86.9459 14.965 87.0226 14.7133 87.1759 14.49C87.3293 14.2633 87.5443 14.085 87.8209 13.955C88.1009 13.825 88.4209 13.76 88.7809 13.76C89.1509 13.76 89.4759 13.82 89.7559 13.94C90.0359 14.0567 90.2559 14.2267 90.4159 14.45C90.5793 14.67 90.6726 14.9317 90.6959 15.235H89.8959C89.8626 14.9883 89.7443 14.7917 89.5409 14.645C89.3376 14.4983 89.0843 14.425 88.7809 14.425C88.5743 14.425 88.3909 14.46 88.2309 14.53C88.0709 14.5967 87.9476 14.6933 87.8609 14.82C87.7743 14.9433 87.7309 15.085 87.7309 15.245C87.7309 15.425 87.7893 15.57 87.9059 15.68C88.0259 15.79 88.2143 15.87 88.4709 15.92L89.5659 16.125C89.9559 16.1983 90.2609 16.3667 90.4809 16.63C90.7043 16.89 90.8159 17.2033 90.8159 17.57C90.8159 17.8667 90.7293 18.1333 90.5559 18.37C90.3859 18.6067 90.1509 18.7917 89.8509 18.925C89.5509 19.055 89.2159 19.12 88.8459 19.12ZM93.7002 19C93.4568 19 93.2352 18.9483 93.0352 18.845C92.8385 18.7383 92.6835 18.5933 92.5702 18.41C92.4568 18.2233 92.4002 18.0167 92.4002 17.79L92.3952 14.59H91.4952L91.5002 13.88H92.0552C92.1818 13.88 92.2835 13.84 92.3602 13.76C92.4402 13.68 92.4802 13.5783 92.4802 13.455V12.63H93.2002V13.88H94.5852L94.5802 14.59H93.1952L93.2002 17.74C93.2002 17.8967 93.2518 18.0283 93.3552 18.135C93.4618 18.2383 93.5935 18.29 93.7502 18.29H94.5802V19H93.7002ZM97.5845 13.76C97.9811 13.76 98.3228 13.8333 98.6095 13.98C98.8995 14.1233 99.1211 14.33 99.2745 14.6C99.4311 14.87 99.5095 15.19 99.5095 15.56V19H98.7195V18.265C98.5561 18.5383 98.3345 18.75 98.0545 18.9C97.7778 19.0467 97.4595 19.12 97.0995 19.12C96.7728 19.12 96.4778 19.0567 96.2145 18.93C95.9545 18.8033 95.7511 18.6283 95.6045 18.405C95.4578 18.1817 95.3845 17.93 95.3845 17.65C95.3845 17.38 95.4545 17.13 95.5945 16.9C95.7345 16.67 95.9278 16.4817 96.1745 16.335C96.4211 16.1883 96.6995 16.0983 97.0095 16.065L98.3495 15.915C98.5328 15.895 98.6528 15.7883 98.7095 15.595V15.46C98.7095 15.1533 98.6078 14.91 98.4045 14.73C98.2011 14.55 97.9278 14.46 97.5845 14.46C97.3545 14.46 97.1511 14.4967 96.9745 14.57C96.8011 14.64 96.6628 14.735 96.5595 14.855C96.4561 14.975 96.3911 15.1033 96.3645 15.24H95.5645C95.6078 14.9633 95.7178 14.7133 95.8945 14.49C96.0745 14.2633 96.3095 14.085 96.5995 13.955C96.8895 13.825 97.2178 13.76 97.5845 13.76ZM96.2145 17.61C96.2145 17.7767 96.2595 17.925 96.3495 18.055C96.4395 18.1817 96.5645 18.28 96.7245 18.35C96.8878 18.42 97.0745 18.455 97.2845 18.455C97.5611 18.455 97.8078 18.3983 98.0245 18.285C98.2411 18.1683 98.4095 18.0067 98.5295 17.8C98.6495 17.5933 98.7095 17.355 98.7095 17.085V16.48L97.1245 16.655C96.9478 16.675 96.7895 16.73 96.6495 16.82C96.5128 16.9067 96.4061 17.02 96.3295 17.16C96.2528 17.2967 96.2145 17.4467 96.2145 17.61ZM103.213 20.72C102.836 20.72 102.485 20.6567 102.158 20.53C101.835 20.4033 101.561 20.225 101.338 19.995C101.118 19.7683 100.97 19.5067 100.893 19.21H101.713C101.756 19.36 101.85 19.4933 101.993 19.61C102.136 19.73 102.313 19.8233 102.523 19.89C102.736 19.9567 102.966 19.99 103.213 19.99C103.53 19.99 103.813 19.93 104.063 19.81C104.316 19.69 104.513 19.5217 104.653 19.305C104.796 19.0883 104.868 18.8367 104.868 18.55V18.24L104.878 17.83C104.681 18.1133 104.426 18.3333 104.113 18.49C103.803 18.6433 103.451 18.72 103.058 18.72C102.595 18.72 102.185 18.615 101.828 18.405C101.471 18.195 101.195 17.9017 100.998 17.525C100.805 17.1483 100.708 16.72 100.708 16.24C100.708 15.76 100.805 15.3317 100.998 14.955C101.195 14.5783 101.471 14.285 101.828 14.075C102.185 13.865 102.595 13.76 103.058 13.76C103.461 13.76 103.821 13.8417 104.138 14.005C104.455 14.165 104.711 14.3933 104.908 14.69V13.88H105.683L105.668 18.55C105.668 18.9733 105.563 19.3483 105.353 19.675C105.143 20.005 104.851 20.2617 104.478 20.445C104.108 20.6283 103.686 20.72 103.213 20.72ZM103.213 18.015C103.536 18.015 103.823 17.9417 104.073 17.795C104.326 17.645 104.523 17.435 104.663 17.165C104.803 16.895 104.875 16.5867 104.878 16.24C104.875 15.8933 104.803 15.585 104.663 15.315C104.523 15.045 104.326 14.8367 104.073 14.69C103.823 14.54 103.536 14.465 103.213 14.465C102.886 14.465 102.596 14.54 102.343 14.69C102.09 14.8367 101.893 15.045 101.753 15.315C101.616 15.585 101.548 15.8933 101.548 16.24C101.548 16.5867 101.616 16.895 101.753 17.165C101.893 17.435 102.09 17.645 102.343 17.795C102.596 17.9417 102.886 18.015 103.213 18.015ZM109.609 19.12C109.126 19.12 108.689 19.005 108.299 18.775C107.909 18.545 107.603 18.225 107.379 17.815C107.156 17.405 107.044 16.9433 107.044 16.43C107.044 15.93 107.158 15.4767 107.384 15.07C107.611 14.66 107.919 14.34 108.309 14.11C108.703 13.8767 109.136 13.76 109.609 13.76C110.096 13.76 110.528 13.8733 110.904 14.1C111.281 14.3233 111.574 14.6383 111.784 15.045C111.994 15.4517 112.099 15.9167 112.099 16.44V16.62H107.859C107.886 16.98 107.976 17.2933 108.129 17.56C108.283 17.8267 108.486 18.0333 108.739 18.18C108.993 18.3233 109.283 18.395 109.609 18.395C109.919 18.395 110.194 18.335 110.434 18.215C110.674 18.095 110.871 17.9233 111.024 17.7H111.914C111.724 18.1433 111.428 18.4917 111.024 18.745C110.621 18.995 110.149 19.12 109.609 19.12ZM111.264 15.985C111.214 15.6817 111.113 15.4167 110.959 15.19C110.809 14.9633 110.618 14.7883 110.384 14.665C110.154 14.5417 109.896 14.48 109.609 14.48C109.306 14.48 109.033 14.5417 108.789 14.665C108.549 14.7883 108.351 14.9633 108.194 15.19C108.038 15.4167 107.934 15.6817 107.884 15.985H111.264ZM115.047 19.12C114.654 19.12 114.304 19.0583 113.997 18.935C113.69 18.8083 113.447 18.63 113.267 18.4C113.087 18.17 112.987 17.9017 112.967 17.595H113.767C113.8 17.8517 113.932 18.0567 114.162 18.21C114.392 18.3633 114.684 18.44 115.037 18.44C115.27 18.44 115.477 18.4033 115.657 18.33C115.84 18.2567 115.982 18.155 116.082 18.025C116.182 17.8917 116.232 17.74 116.232 17.57C116.232 17.3867 116.175 17.2317 116.062 17.105C115.949 16.975 115.792 16.8917 115.592 16.855L114.487 16.65C114.074 16.5733 113.747 16.41 113.507 16.16C113.267 15.9067 113.147 15.6017 113.147 15.245C113.147 14.965 113.224 14.7133 113.377 14.49C113.53 14.2633 113.745 14.085 114.022 13.955C114.302 13.825 114.622 13.76 114.982 13.76C115.352 13.76 115.677 13.82 115.957 13.94C116.237 14.0567 116.457 14.2267 116.617 14.45C116.78 14.67 116.874 14.9317 116.897 15.235H116.097C116.064 14.9883 115.945 14.7917 115.742 14.645C115.539 14.4983 115.285 14.425 114.982 14.425C114.775 14.425 114.592 14.46 114.432 14.53C114.272 14.5967 114.149 14.6933 114.062 14.82C113.975 14.9433 113.932 15.085 113.932 15.245C113.932 15.425 113.99 15.57 114.107 15.68C114.227 15.79 114.415 15.87 114.672 15.92L115.767 16.125C116.157 16.1983 116.462 16.3667 116.682 16.63C116.905 16.89 117.017 17.2033 117.017 17.57C117.017 17.8667 116.93 18.1333 116.757 18.37C116.587 18.6067 116.352 18.7917 116.052 18.925C115.752 19.055 115.417 19.12 115.047 19.12Z" fill="#595959"/>
<rect x="11" y="71" width="196" height="25" rx="12" fill="url(#paint0_radial_3509_23)"/>
<path d="M47.3675 79.6H48.4415L51.6695 88H50.6135L49.8035 85.768H46.0895L45.3335 88H44.2535L47.3675 79.6ZM49.4795 84.904L48.0455 80.998L47.9015 80.488L47.7575 80.998L46.3955 84.904H49.4795ZM52.9143 81.856H53.8383V82.852C54.0463 82.484 54.3223 82.202 54.6663 82.006C55.0143 81.81 55.4163 81.712 55.8723 81.712C56.3123 81.712 56.7023 81.806 57.0423 81.994C57.3823 82.182 57.6483 82.46 57.8403 82.828C58.0363 83.192 58.1343 83.63 58.1343 84.142V88H57.1743V84.238C57.1743 83.706 57.0363 83.292 56.7603 82.996C56.4843 82.7 56.1043 82.552 55.6203 82.552C55.2763 82.552 54.9723 82.628 54.7083 82.78C54.4443 82.932 54.2383 83.146 54.0903 83.422C53.9463 83.694 53.8743 84.006 53.8743 84.358V88H52.9143V81.856ZM62.1467 81.712C62.6227 81.712 63.0327 81.8 63.3767 81.976C63.7247 82.148 63.9907 82.396 64.1747 82.72C64.3627 83.044 64.4567 83.428 64.4567 83.872V88H63.5087V87.118C63.3127 87.446 63.0467 87.7 62.7107 87.88C62.3787 88.056 61.9967 88.144 61.5647 88.144C61.1727 88.144 60.8187 88.068 60.5027 87.916C60.1907 87.764 59.9467 87.554 59.7707 87.286C59.5947 87.018 59.5067 86.716 59.5067 86.38C59.5067 86.056 59.5907 85.756 59.7587 85.48C59.9267 85.204 60.1587 84.978 60.4547 84.802C60.7507 84.626 61.0847 84.518 61.4567 84.478L63.0647 84.298C63.2847 84.274 63.4287 84.146 63.4967 83.914V83.752C63.4967 83.384 63.3747 83.092 63.1307 82.876C62.8867 82.66 62.5587 82.552 62.1467 82.552C61.8707 82.552 61.6267 82.596 61.4147 82.684C61.2067 82.768 61.0407 82.882 60.9167 83.026C60.7927 83.17 60.7147 83.324 60.6827 83.488H59.7227C59.7747 83.156 59.9067 82.856 60.1187 82.588C60.3347 82.316 60.6167 82.102 60.9647 81.946C61.3127 81.79 61.7067 81.712 62.1467 81.712ZM60.5027 86.332C60.5027 86.532 60.5567 86.71 60.6647 86.866C60.7727 87.018 60.9227 87.136 61.1147 87.22C61.3107 87.304 61.5347 87.346 61.7867 87.346C62.1187 87.346 62.4147 87.278 62.6747 87.142C62.9347 87.002 63.1367 86.808 63.2807 86.56C63.4247 86.312 63.4967 86.026 63.4967 85.702V84.976L61.5947 85.186C61.3827 85.21 61.1927 85.276 61.0247 85.384C60.8607 85.488 60.7327 85.624 60.6407 85.792C60.5487 85.956 60.5027 86.136 60.5027 86.332ZM66.3991 79.6H67.3591V88H66.3991V79.6ZM69.1428 89.068H70.0548C70.1828 89.068 70.3048 89.026 70.4208 88.942C70.5368 88.862 70.6268 88.754 70.6908 88.618L71.0388 87.862L68.6688 81.856H69.6888L71.5428 86.644L73.3188 81.856H74.3328L71.5428 88.918C71.4228 89.226 71.2308 89.47 70.9668 89.65C70.7068 89.83 70.4128 89.92 70.0848 89.92H69.1428V89.068ZM77.3362 88.144C76.8642 88.144 76.4442 88.07 76.0762 87.922C75.7082 87.77 75.4162 87.556 75.2002 87.28C74.9842 87.004 74.8642 86.682 74.8402 86.314H75.8002C75.8402 86.622 75.9982 86.868 76.2742 87.052C76.5502 87.236 76.9002 87.328 77.3242 87.328C77.6042 87.328 77.8522 87.284 78.0682 87.196C78.2882 87.108 78.4582 86.986 78.5782 86.83C78.6982 86.67 78.7582 86.488 78.7582 86.284C78.7582 86.064 78.6902 85.878 78.5542 85.726C78.4182 85.57 78.2302 85.47 77.9902 85.426L76.6642 85.18C76.1682 85.088 75.7762 84.892 75.4882 84.592C75.2002 84.288 75.0562 83.922 75.0562 83.494C75.0562 83.158 75.1482 82.856 75.3322 82.588C75.5162 82.316 75.7742 82.102 76.1062 81.946C76.4422 81.79 76.8262 81.712 77.2582 81.712C77.7022 81.712 78.0922 81.784 78.4282 81.928C78.7642 82.068 79.0282 82.272 79.2202 82.54C79.4162 82.804 79.5282 83.118 79.5562 83.482H78.5962C78.5562 83.186 78.4142 82.95 78.1702 82.774C77.9262 82.598 77.6222 82.51 77.2582 82.51C77.0102 82.51 76.7902 82.552 76.5982 82.636C76.4062 82.716 76.2582 82.832 76.1542 82.984C76.0502 83.132 75.9982 83.302 75.9982 83.494C75.9982 83.71 76.0682 83.884 76.2082 84.016C76.3522 84.148 76.5782 84.244 76.8862 84.304L78.2002 84.55C78.6682 84.638 79.0342 84.84 79.2982 85.156C79.5662 85.468 79.7002 85.844 79.7002 86.284C79.7002 86.64 79.5962 86.96 79.3882 87.244C79.1842 87.528 78.9022 87.75 78.5422 87.91C78.1822 88.066 77.7802 88.144 77.3362 88.144ZM81.2268 81.856H82.1868V88H81.2268V81.856ZM81.1788 79.6H82.2348V80.692H81.1788V79.6ZM86.2073 88.144C85.7353 88.144 85.3153 88.07 84.9473 87.922C84.5793 87.77 84.2873 87.556 84.0713 87.28C83.8553 87.004 83.7353 86.682 83.7113 86.314H84.6713C84.7113 86.622 84.8693 86.868 85.1453 87.052C85.4213 87.236 85.7713 87.328 86.1953 87.328C86.4753 87.328 86.7233 87.284 86.9393 87.196C87.1593 87.108 87.3293 86.986 87.4493 86.83C87.5693 86.67 87.6293 86.488 87.6293 86.284C87.6293 86.064 87.5613 85.878 87.4253 85.726C87.2893 85.57 87.1013 85.47 86.8613 85.426L85.5353 85.18C85.0393 85.088 84.6473 84.892 84.3593 84.592C84.0713 84.288 83.9273 83.922 83.9273 83.494C83.9273 83.158 84.0193 82.856 84.2033 82.588C84.3873 82.316 84.6453 82.102 84.9773 81.946C85.3133 81.79 85.6973 81.712 86.1293 81.712C86.5733 81.712 86.9633 81.784 87.2993 81.928C87.6353 82.068 87.8993 82.272 88.0913 82.54C88.2873 82.804 88.3993 83.118 88.4273 83.482H87.4673C87.4273 83.186 87.2853 82.95 87.0413 82.774C86.7973 82.598 86.4933 82.51 86.1293 82.51C85.8813 82.51 85.6613 82.552 85.4693 82.636C85.2773 82.716 85.1293 82.832 85.0253 82.984C84.9213 83.132 84.8693 83.302 84.8693 83.494C84.8693 83.71 84.9393 83.884 85.0793 84.016C85.2233 84.148 85.4493 84.244 85.7573 84.304L87.0713 84.55C87.5393 84.638 87.9053 84.84 88.1693 85.156C88.4373 85.468 88.5713 85.844 88.5713 86.284C88.5713 86.64 88.4673 86.96 88.2593 87.244C88.0553 87.528 87.7733 87.75 87.4133 87.91C87.0533 88.066 86.6513 88.144 86.2073 88.144ZM95.7795 81.712C96.2555 81.712 96.6655 81.8 97.0095 81.976C97.3575 82.148 97.6235 82.396 97.8075 82.72C97.9955 83.044 98.0895 83.428 98.0895 83.872V88H97.1415V87.118C96.9455 87.446 96.6795 87.7 96.3435 87.88C96.0115 88.056 95.6295 88.144 95.1975 88.144C94.8055 88.144 94.4515 88.068 94.1355 87.916C93.8235 87.764 93.5795 87.554 93.4035 87.286C93.2275 87.018 93.1395 86.716 93.1395 86.38C93.1395 86.056 93.2235 85.756 93.3915 85.48C93.5595 85.204 93.7915 84.978 94.0875 84.802C94.3835 84.626 94.7175 84.518 95.0895 84.478L96.6975 84.298C96.9175 84.274 97.0615 84.146 97.1295 83.914V83.752C97.1295 83.384 97.0075 83.092 96.7635 82.876C96.5195 82.66 96.1915 82.552 95.7795 82.552C95.5035 82.552 95.2595 82.596 95.0475 82.684C94.8395 82.768 94.6735 82.882 94.5495 83.026C94.4255 83.17 94.3475 83.324 94.3155 83.488H93.3555C93.4075 83.156 93.5395 82.856 93.7515 82.588C93.9675 82.316 94.2495 82.102 94.5975 81.946C94.9455 81.79 95.3395 81.712 95.7795 81.712ZM94.1355 86.332C94.1355 86.532 94.1895 86.71 94.2975 86.866C94.4055 87.018 94.5555 87.136 94.7475 87.22C94.9435 87.304 95.1675 87.346 95.4195 87.346C95.7515 87.346 96.0475 87.278 96.3075 87.142C96.5675 87.002 96.7695 86.808 96.9135 86.56C97.0575 86.312 97.1295 86.026 97.1295 85.702V84.976L95.2275 85.186C95.0155 85.21 94.8255 85.276 94.6575 85.384C94.4935 85.488 94.3655 85.624 94.2735 85.792C94.1815 85.956 94.1355 86.136 94.1355 86.332ZM99.9299 81.856H100.854V82.852C101.062 82.484 101.338 82.202 101.682 82.006C102.03 81.81 102.432 81.712 102.888 81.712C103.328 81.712 103.718 81.806 104.058 81.994C104.398 82.182 104.664 82.46 104.856 82.828C105.052 83.192 105.15 83.63 105.15 84.142V88H104.19V84.238C104.19 83.706 104.052 83.292 103.776 82.996C103.5 82.7 103.12 82.552 102.636 82.552C102.292 82.552 101.988 82.628 101.724 82.78C101.46 82.932 101.254 83.146 101.106 83.422C100.962 83.694 100.89 84.006 100.89 84.358V88H99.9299V81.856ZM111.718 86.956C111.486 87.332 111.176 87.624 110.788 87.832C110.4 88.04 109.956 88.144 109.456 88.144C108.884 88.144 108.374 88.01 107.926 87.742C107.482 87.47 107.134 87.09 106.882 86.602C106.634 86.114 106.51 85.556 106.51 84.928C106.51 84.3 106.634 83.742 106.882 83.254C107.134 82.766 107.482 82.388 107.926 82.12C108.374 81.848 108.884 81.712 109.456 81.712C109.956 81.712 110.4 81.816 110.788 82.024C111.176 82.232 111.486 82.524 111.718 82.9V79.6H112.678V88H111.718V86.956ZM109.606 87.274C110.018 87.274 110.384 87.176 110.704 86.98C111.024 86.78 111.272 86.504 111.448 86.152C111.628 85.796 111.718 85.388 111.718 84.928C111.718 84.468 111.628 84.062 111.448 83.71C111.272 83.354 111.024 83.078 110.704 82.882C110.384 82.682 110.018 82.582 109.606 82.582C109.198 82.582 108.836 82.682 108.52 82.882C108.204 83.078 107.958 83.354 107.782 83.71C107.606 84.062 107.518 84.468 107.518 84.928C107.518 85.388 107.606 85.796 107.782 86.152C107.958 86.504 108.204 86.78 108.52 86.98C108.836 87.176 109.198 87.274 109.606 87.274ZM118.211 81.856H119.171V82.876C119.367 82.528 119.621 82.262 119.933 82.078C120.245 81.89 120.603 81.796 121.007 81.796H121.223V82.798H120.971C120.607 82.798 120.289 82.868 120.017 83.008C119.745 83.148 119.535 83.348 119.387 83.608C119.243 83.864 119.171 84.166 119.171 84.514V88H118.211V81.856ZM125.045 88.144C124.465 88.144 123.941 88.006 123.473 87.73C123.005 87.454 122.637 87.07 122.369 86.578C122.101 86.086 121.967 85.532 121.967 84.916C121.967 84.316 122.103 83.772 122.375 83.284C122.647 82.792 123.017 82.408 123.485 82.132C123.957 81.852 124.477 81.712 125.045 81.712C125.629 81.712 126.147 81.848 126.599 82.12C127.051 82.388 127.403 82.766 127.655 83.254C127.907 83.742 128.033 84.3 128.033 84.928V85.144H122.945C122.977 85.576 123.085 85.952 123.269 86.272C123.453 86.592 123.697 86.84 124.001 87.016C124.305 87.188 124.653 87.274 125.045 87.274C125.417 87.274 125.747 87.202 126.035 87.058C126.323 86.914 126.559 86.708 126.743 86.44H127.811C127.583 86.972 127.227 87.39 126.743 87.694C126.259 87.994 125.693 88.144 125.045 88.144ZM127.031 84.382C126.971 84.018 126.849 83.7 126.665 83.428C126.485 83.156 126.255 82.946 125.975 82.798C125.699 82.65 125.389 82.576 125.045 82.576C124.681 82.576 124.353 82.65 124.061 82.798C123.773 82.946 123.535 83.156 123.347 83.428C123.159 83.7 123.035 84.018 122.975 84.382H127.031ZM131.571 88.144C131.099 88.144 130.679 88.07 130.311 87.922C129.943 87.77 129.651 87.556 129.435 87.28C129.219 87.004 129.099 86.682 129.075 86.314H130.035C130.075 86.622 130.233 86.868 130.509 87.052C130.785 87.236 131.135 87.328 131.559 87.328C131.839 87.328 132.087 87.284 132.303 87.196C132.523 87.108 132.693 86.986 132.813 86.83C132.933 86.67 132.993 86.488 132.993 86.284C132.993 86.064 132.925 85.878 132.789 85.726C132.653 85.57 132.465 85.47 132.225 85.426L130.899 85.18C130.403 85.088 130.011 84.892 129.723 84.592C129.435 84.288 129.291 83.922 129.291 83.494C129.291 83.158 129.383 82.856 129.567 82.588C129.751 82.316 130.009 82.102 130.341 81.946C130.677 81.79 131.061 81.712 131.493 81.712C131.937 81.712 132.327 81.784 132.663 81.928C132.999 82.068 133.263 82.272 133.455 82.54C133.651 82.804 133.763 83.118 133.791 83.482H132.831C132.791 83.186 132.649 82.95 132.405 82.774C132.161 82.598 131.857 82.51 131.493 82.51C131.245 82.51 131.025 82.552 130.833 82.636C130.641 82.716 130.493 82.832 130.389 82.984C130.285 83.132 130.233 83.302 130.233 83.494C130.233 83.71 130.303 83.884 130.443 84.016C130.587 84.148 130.813 84.244 131.121 84.304L132.435 84.55C132.903 84.638 133.269 84.84 133.533 85.156C133.801 85.468 133.935 85.844 133.935 86.284C133.935 86.64 133.831 86.96 133.623 87.244C133.419 87.528 133.137 87.75 132.777 87.91C132.417 88.066 132.015 88.144 131.571 88.144ZM138.107 88.144C137.519 88.144 136.985 88.004 136.505 87.724C136.029 87.444 135.655 87.06 135.383 86.572C135.111 86.08 134.975 85.532 134.975 84.928C134.975 84.324 135.111 83.778 135.383 83.29C135.655 82.798 136.029 82.412 136.505 82.132C136.985 81.852 137.519 81.712 138.107 81.712C138.695 81.712 139.227 81.852 139.703 82.132C140.183 82.412 140.559 82.798 140.831 83.29C141.103 83.778 141.239 84.324 141.239 84.928C141.239 85.532 141.103 86.08 140.831 86.572C140.559 87.06 140.183 87.444 139.703 87.724C139.227 88.004 138.695 88.144 138.107 88.144ZM138.107 87.268C138.523 87.268 138.891 87.17 139.211 86.974C139.535 86.774 139.785 86.498 139.961 86.146C140.141 85.79 140.231 85.384 140.231 84.928C140.231 84.468 140.141 84.062 139.961 83.71C139.785 83.354 139.535 83.078 139.211 82.882C138.891 82.682 138.523 82.582 138.107 82.582C137.691 82.582 137.321 82.682 136.997 82.882C136.677 83.078 136.427 83.354 136.247 83.71C136.071 84.062 135.983 84.468 135.983 84.928C135.983 85.384 136.071 85.79 136.247 86.146C136.427 86.498 136.677 86.774 136.997 86.974C137.321 87.17 137.691 87.268 138.107 87.268ZM142.876 79.6H143.836V88H142.876V79.6ZM150.995 88H150.071V87.004C149.863 87.372 149.585 87.654 149.237 87.85C148.893 88.046 148.493 88.144 148.037 88.144C147.597 88.144 147.207 88.05 146.867 87.862C146.527 87.674 146.259 87.398 146.063 87.034C145.871 86.666 145.775 86.226 145.775 85.714V81.856H146.735V85.618C146.735 86.15 146.873 86.564 147.149 86.86C147.425 87.156 147.805 87.304 148.289 87.304C148.633 87.304 148.937 87.228 149.201 87.076C149.465 86.924 149.669 86.712 149.813 86.44C149.961 86.164 150.035 85.85 150.035 85.498V81.856H150.995V88ZM155.079 88C154.787 88 154.521 87.938 154.281 87.814C154.045 87.686 153.859 87.512 153.723 87.292C153.587 87.068 153.519 86.82 153.519 86.548L153.513 82.708H152.433L152.439 81.856H153.105C153.257 81.856 153.379 81.808 153.471 81.712C153.567 81.616 153.615 81.494 153.615 81.346V80.356H154.479V81.856H156.141L156.135 82.708H154.473L154.479 86.488C154.479 86.676 154.541 86.834 154.665 86.962C154.793 87.086 154.951 87.148 155.139 87.148H156.135V88H155.079ZM157.633 81.856H158.593V88H157.633V81.856ZM157.585 79.6H158.641V80.692H157.585V79.6ZM163.256 88.144C162.668 88.144 162.134 88.004 161.654 87.724C161.178 87.444 160.804 87.06 160.532 86.572C160.26 86.08 160.124 85.532 160.124 84.928C160.124 84.324 160.26 83.778 160.532 83.29C160.804 82.798 161.178 82.412 161.654 82.132C162.134 81.852 162.668 81.712 163.256 81.712C163.844 81.712 164.376 81.852 164.852 82.132C165.332 82.412 165.708 82.798 165.98 83.29C166.252 83.778 166.388 84.324 166.388 84.928C166.388 85.532 166.252 86.08 165.98 86.572C165.708 87.06 165.332 87.444 164.852 87.724C164.376 88.004 163.844 88.144 163.256 88.144ZM163.256 87.268C163.672 87.268 164.04 87.17 164.36 86.974C164.684 86.774 164.934 86.498 165.11 86.146C165.29 85.79 165.38 85.384 165.38 84.928C165.38 84.468 165.29 84.062 165.11 83.71C164.934 83.354 164.684 83.078 164.36 82.882C164.04 82.682 163.672 82.582 163.256 82.582C162.84 82.582 162.47 82.682 162.146 82.882C161.826 83.078 161.576 83.354 161.396 83.71C161.22 84.062 161.132 84.468 161.132 84.928C161.132 85.384 161.22 85.79 161.396 86.146C161.576 86.498 161.826 86.774 162.146 86.974C162.47 87.17 162.84 87.268 163.256 87.268ZM167.922 81.856H168.846V82.852C169.054 82.484 169.33 82.202 169.674 82.006C170.022 81.81 170.424 81.712 170.88 81.712C171.32 81.712 171.71 81.806 172.05 81.994C172.39 82.182 172.656 82.46 172.848 82.828C173.044 83.192 173.142 83.63 173.142 84.142V88H172.182V84.238C172.182 83.706 172.044 83.292 171.768 82.996C171.492 82.7 171.112 82.552 170.628 82.552C170.284 82.552 169.98 82.628 169.716 82.78C169.452 82.932 169.246 83.146 169.098 83.422C168.954 83.694 168.882 84.006 168.882 84.358V88H167.922V81.856Z" fill="white"/>
<rect x="11" y="110" width="196" height="25" rx="12" fill="url(#paint1_radial_3509_23)"/>
<path d="M72.0193 118.6H73.0153V127H72.0193V118.6ZM78.2997 123.484H76.3317V127H75.3357V118.6H78.7317C79.2677 118.6 79.7377 118.7 80.1417 118.9C80.5497 119.1 80.8637 119.384 81.0837 119.752C81.3077 120.12 81.4197 120.548 81.4197 121.036C81.4197 121.452 81.3357 121.826 81.1677 122.158C81.0037 122.49 80.7677 122.766 80.4597 122.986C80.1557 123.202 79.7957 123.348 79.3797 123.424L81.6057 127H80.4417L78.2997 123.484ZM78.7317 122.554C79.0597 122.554 79.3457 122.492 79.5897 122.368C79.8377 122.244 80.0277 122.068 80.1597 121.84C80.2957 121.612 80.3637 121.344 80.3637 121.036C80.3637 120.732 80.2957 120.466 80.1597 120.238C80.0277 120.01 79.8377 119.836 79.5897 119.716C79.3457 119.592 79.0597 119.53 78.7317 119.53H76.3317V122.554H78.7317ZM89.321 129.064C88.869 129.064 88.447 128.988 88.055 128.836C87.667 128.684 87.339 128.47 87.071 128.194C86.807 127.922 86.629 127.608 86.537 127.252H87.521C87.573 127.432 87.685 127.592 87.857 127.732C88.029 127.876 88.241 127.988 88.493 128.068C88.749 128.148 89.025 128.188 89.321 128.188C89.701 128.188 90.041 128.116 90.341 127.972C90.645 127.828 90.881 127.626 91.049 127.366C91.221 127.106 91.307 126.804 91.307 126.46V126.088L91.319 125.596C91.083 125.936 90.777 126.2 90.401 126.388C90.029 126.572 89.607 126.664 89.135 126.664C88.579 126.664 88.087 126.538 87.659 126.286C87.231 126.034 86.899 125.682 86.663 125.23C86.431 124.778 86.315 124.264 86.315 123.688C86.315 123.112 86.431 122.598 86.663 122.146C86.899 121.694 87.231 121.342 87.659 121.09C88.087 120.838 88.579 120.712 89.135 120.712C89.619 120.712 90.051 120.81 90.431 121.006C90.811 121.198 91.119 121.472 91.355 121.828V120.856H92.285L92.267 126.46C92.267 126.968 92.141 127.418 91.889 127.81C91.637 128.206 91.287 128.514 90.839 128.734C90.395 128.954 89.889 129.064 89.321 129.064ZM89.321 125.818C89.709 125.818 90.053 125.73 90.353 125.554C90.657 125.374 90.893 125.122 91.061 124.798C91.229 124.474 91.315 124.104 91.319 123.688C91.315 123.272 91.229 122.902 91.061 122.578C90.893 122.254 90.657 122.004 90.353 121.828C90.053 121.648 89.709 121.558 89.321 121.558C88.929 121.558 88.581 121.648 88.277 121.828C87.973 122.004 87.737 122.254 87.569 122.578C87.405 122.902 87.323 123.272 87.323 123.688C87.323 124.104 87.405 124.474 87.569 124.798C87.737 125.122 87.973 125.374 88.277 125.554C88.581 125.73 88.929 125.818 89.321 125.818ZM96.9965 127.144C96.4165 127.144 95.8925 127.006 95.4245 126.73C94.9565 126.454 94.5885 126.07 94.3205 125.578C94.0525 125.086 93.9185 124.532 93.9185 123.916C93.9185 123.316 94.0545 122.772 94.3265 122.284C94.5985 121.792 94.9685 121.408 95.4365 121.132C95.9085 120.852 96.4285 120.712 96.9965 120.712C97.5805 120.712 98.0985 120.848 98.5505 121.12C99.0025 121.388 99.3545 121.766 99.6065 122.254C99.8585 122.742 99.9845 123.3 99.9845 123.928V124.144H94.8965C94.9285 124.576 95.0365 124.952 95.2205 125.272C95.4045 125.592 95.6485 125.84 95.9525 126.016C96.2565 126.188 96.6045 126.274 96.9965 126.274C97.3685 126.274 97.6985 126.202 97.9865 126.058C98.2745 125.914 98.5105 125.708 98.6945 125.44H99.7625C99.5345 125.972 99.1785 126.39 98.6945 126.694C98.2105 126.994 97.6445 127.144 96.9965 127.144ZM98.9825 123.382C98.9225 123.018 98.8005 122.7 98.6165 122.428C98.4365 122.156 98.2065 121.946 97.9265 121.798C97.6505 121.65 97.3405 121.576 96.9965 121.576C96.6325 121.576 96.3045 121.65 96.0125 121.798C95.7245 121.946 95.4865 122.156 95.2985 122.428C95.1105 122.7 94.9865 123.018 94.9265 123.382H98.9825ZM101.518 120.856H102.442V121.852C102.65 121.484 102.926 121.202 103.27 121.006C103.618 120.81 104.02 120.712 104.476 120.712C104.916 120.712 105.306 120.806 105.646 120.994C105.986 121.182 106.252 121.46 106.444 121.828C106.64 122.192 106.738 122.63 106.738 123.142V127H105.778V123.238C105.778 122.706 105.64 122.292 105.364 121.996C105.088 121.7 104.708 121.552 104.224 121.552C103.88 121.552 103.576 121.628 103.312 121.78C103.048 121.932 102.842 122.146 102.694 122.422C102.55 122.694 102.478 123.006 102.478 123.358V127H101.518V120.856ZM111.176 127.144C110.596 127.144 110.072 127.006 109.604 126.73C109.136 126.454 108.768 126.07 108.5 125.578C108.232 125.086 108.098 124.532 108.098 123.916C108.098 123.316 108.234 122.772 108.506 122.284C108.778 121.792 109.148 121.408 109.616 121.132C110.088 120.852 110.608 120.712 111.176 120.712C111.76 120.712 112.278 120.848 112.73 121.12C113.182 121.388 113.534 121.766 113.786 122.254C114.038 122.742 114.164 123.3 114.164 123.928V124.144H109.076C109.108 124.576 109.216 124.952 109.4 125.272C109.584 125.592 109.828 125.84 110.132 126.016C110.436 126.188 110.784 126.274 111.176 126.274C111.548 126.274 111.878 126.202 112.166 126.058C112.454 125.914 112.69 125.708 112.874 125.44H113.942C113.714 125.972 113.358 126.39 112.874 126.694C112.39 126.994 111.824 127.144 111.176 127.144ZM113.162 123.382C113.102 123.018 112.98 122.7 112.796 122.428C112.616 122.156 112.386 121.946 112.106 121.798C111.83 121.65 111.52 121.576 111.176 121.576C110.812 121.576 110.484 121.65 110.192 121.798C109.904 121.946 109.666 122.156 109.478 122.428C109.29 122.7 109.166 123.018 109.106 123.382H113.162ZM115.697 120.856H116.657V121.876C116.853 121.528 117.107 121.262 117.419 121.078C117.731 120.89 118.089 120.796 118.493 120.796H118.709V121.798H118.457C118.093 121.798 117.775 121.868 117.503 122.008C117.231 122.148 117.021 122.348 116.873 122.608C116.729 122.864 116.657 123.166 116.657 123.514V127H115.697V120.856ZM122.047 120.712C122.523 120.712 122.933 120.8 123.277 120.976C123.625 121.148 123.891 121.396 124.075 121.72C124.263 122.044 124.357 122.428 124.357 122.872V127H123.409V126.118C123.213 126.446 122.947 126.7 122.611 126.88C122.279 127.056 121.897 127.144 121.465 127.144C121.073 127.144 120.719 127.068 120.403 126.916C120.091 126.764 119.847 126.554 119.671 126.286C119.495 126.018 119.407 125.716 119.407 125.38C119.407 125.056 119.491 124.756 119.659 124.48C119.827 124.204 120.059 123.978 120.355 123.802C120.651 123.626 120.985 123.518 121.357 123.478L122.965 123.298C123.185 123.274 123.329 123.146 123.397 122.914V122.752C123.397 122.384 123.275 122.092 123.031 121.876C122.787 121.66 122.459 121.552 122.047 121.552C121.771 121.552 121.527 121.596 121.315 121.684C121.107 121.768 120.941 121.882 120.817 122.026C120.693 122.17 120.615 122.324 120.583 122.488H119.623C119.675 122.156 119.807 121.856 120.019 121.588C120.235 121.316 120.517 121.102 120.865 120.946C121.213 120.79 121.607 120.712 122.047 120.712ZM120.403 125.332C120.403 125.532 120.457 125.71 120.565 125.866C120.673 126.018 120.823 126.136 121.015 126.22C121.211 126.304 121.435 126.346 121.687 126.346C122.019 126.346 122.315 126.278 122.575 126.142C122.835 126.002 123.037 125.808 123.181 125.56C123.325 125.312 123.397 125.026 123.397 124.702V123.976L121.495 124.186C121.283 124.21 121.093 124.276 120.925 124.384C120.761 124.488 120.633 124.624 120.541 124.792C120.449 124.956 120.403 125.136 120.403 125.332ZM128.237 127C127.945 127 127.679 126.938 127.439 126.814C127.203 126.686 127.017 126.512 126.881 126.292C126.745 126.068 126.677 125.82 126.677 125.548L126.671 121.708H125.591L125.597 120.856H126.263C126.415 120.856 126.537 120.808 126.629 120.712C126.725 120.616 126.773 120.494 126.773 120.346V119.356H127.637V120.856H129.299L129.293 121.708H127.631L127.637 125.488C127.637 125.676 127.699 125.834 127.823 125.962C127.951 126.086 128.109 126.148 128.297 126.148H129.293V127H128.237ZM130.791 120.856H131.751V127H130.791V120.856ZM130.743 118.6H131.799V119.692H130.743V118.6ZM136.414 127.144C135.826 127.144 135.292 127.004 134.812 126.724C134.336 126.444 133.962 126.06 133.69 125.572C133.418 125.08 133.282 124.532 133.282 123.928C133.282 123.324 133.418 122.778 133.69 122.29C133.962 121.798 134.336 121.412 134.812 121.132C135.292 120.852 135.826 120.712 136.414 120.712C137.002 120.712 137.534 120.852 138.01 121.132C138.49 121.412 138.866 121.798 139.138 122.29C139.41 122.778 139.546 123.324 139.546 123.928C139.546 124.532 139.41 125.08 139.138 125.572C138.866 126.06 138.49 126.444 138.01 126.724C137.534 127.004 137.002 127.144 136.414 127.144ZM136.414 126.268C136.83 126.268 137.198 126.17 137.518 125.974C137.842 125.774 138.092 125.498 138.268 125.146C138.448 124.79 138.538 124.384 138.538 123.928C138.538 123.468 138.448 123.062 138.268 122.71C138.092 122.354 137.842 122.078 137.518 121.882C137.198 121.682 136.83 121.582 136.414 121.582C135.998 121.582 135.628 121.682 135.304 121.882C134.984 122.078 134.734 122.354 134.554 122.71C134.378 123.062 134.29 123.468 134.29 123.928C134.29 124.384 134.378 124.79 134.554 125.146C134.734 125.498 134.984 125.774 135.304 125.974C135.628 126.17 135.998 126.268 136.414 126.268ZM141.08 120.856H142.004V121.852C142.212 121.484 142.488 121.202 142.832 121.006C143.18 120.81 143.582 120.712 144.038 120.712C144.478 120.712 144.868 120.806 145.208 120.994C145.548 121.182 145.814 121.46 146.006 121.828C146.202 122.192 146.3 122.63 146.3 123.142V127H145.34V123.238C145.34 122.706 145.202 122.292 144.926 121.996C144.65 121.7 144.27 121.552 143.786 121.552C143.442 121.552 143.138 121.628 142.874 121.78C142.61 121.932 142.404 122.146 142.256 122.422C142.112 122.694 142.04 123.006 142.04 123.358V127H141.08V120.856Z" fill="white"/>
<path d="M72.0193 118.6H73.0153V127H72.0193V118.6ZM78.2997 123.484H76.3317V127H75.3357V118.6H78.7317C79.2677 118.6 79.7377 118.7 80.1417 118.9C80.5497 119.1 80.8637 119.384 81.0837 119.752C81.3077 120.12 81.4197 120.548 81.4197 121.036C81.4197 121.452 81.3357 121.826 81.1677 122.158C81.0037 122.49 80.7677 122.766 80.4597 122.986C80.1557 123.202 79.7957 123.348 79.3797 123.424L81.6057 127H80.4417L78.2997 123.484ZM78.7317 122.554C79.0597 122.554 79.3457 122.492 79.5897 122.368C79.8377 122.244 80.0277 122.068 80.1597 121.84C80.2957 121.612 80.3637 121.344 80.3637 121.036C80.3637 120.732 80.2957 120.466 80.1597 120.238C80.0277 120.01 79.8377 119.836 79.5897 119.716C79.3457 119.592 79.0597 119.53 78.7317 119.53H76.3317V122.554H78.7317ZM89.321 129.064C88.869 129.064 88.447 128.988 88.055 128.836C87.667 128.684 87.339 128.47 87.071 128.194C86.807 127.922 86.629 127.608 86.537 127.252H87.521C87.573 127.432 87.685 127.592 87.857 127.732C88.029 127.876 88.241 127.988 88.493 128.068C88.749 128.148 89.025 128.188 89.321 128.188C89.701 128.188 90.041 128.116 90.341 127.972C90.645 127.828 90.881 127.626 91.049 127.366C91.221 127.106 91.307 126.804 91.307 126.46V126.088L91.319 125.596C91.083 125.936 90.777 126.2 90.401 126.388C90.029 126.572 89.607 126.664 89.135 126.664C88.579 126.664 88.087 126.538 87.659 126.286C87.231 126.034 86.899 125.682 86.663 125.23C86.431 124.778 86.315 124.264 86.315 123.688C86.315 123.112 86.431 122.598 86.663 122.146C86.899 121.694 87.231 121.342 87.659 121.09C88.087 120.838 88.579 120.712 89.135 120.712C89.619 120.712 90.051 120.81 90.431 121.006C90.811 121.198 91.119 121.472 91.355 121.828V120.856H92.285L92.267 126.46C92.267 126.968 92.141 127.418 91.889 127.81C91.637 128.206 91.287 128.514 90.839 128.734C90.395 128.954 89.889 129.064 89.321 129.064ZM89.321 125.818C89.709 125.818 90.053 125.73 90.353 125.554C90.657 125.374 90.893 125.122 91.061 124.798C91.229 124.474 91.315 124.104 91.319 123.688C91.315 123.272 91.229 122.902 91.061 122.578C90.893 122.254 90.657 122.004 90.353 121.828C90.053 121.648 89.709 121.558 89.321 121.558C88.929 121.558 88.581 121.648 88.277 121.828C87.973 122.004 87.737 122.254 87.569 122.578C87.405 122.902 87.323 123.272 87.323 123.688C87.323 124.104 87.405 124.474 87.569 124.798C87.737 125.122 87.973 125.374 88.277 125.554C88.581 125.73 88.929 125.818 89.321 125.818ZM96.9965 127.144C96.4165 127.144 95.8925 127.006 95.4245 126.73C94.9565 126.454 94.5885 126.07 94.3205 125.578C94.0525 125.086 93.9185 124.532 93.9185 123.916C93.9185 123.316 94.0545 122.772 94.3265 122.284C94.5985 121.792 94.9685 121.408 95.4365 121.132C95.9085 120.852 96.4285 120.712 96.9965 120.712C97.5805 120.712 98.0985 120.848 98.5505 121.12C99.0025 121.388 99.3545 121.766 99.6065 122.254C99.8585 122.742 99.9845 123.3 99.9845 123.928V124.144H94.8965C94.9285 124.576 95.0365 124.952 95.2205 125.272C95.4045 125.592 95.6485 125.84 95.9525 126.016C96.2565 126.188 96.6045 126.274 96.9965 126.274C97.3685 126.274 97.6985 126.202 97.9865 126.058C98.2745 125.914 98.5105 125.708 98.6945 125.44H99.7625C99.5345 125.972 99.1785 126.39 98.6945 126.694C98.2105 126.994 97.6445 127.144 96.9965 127.144ZM98.9825 123.382C98.9225 123.018 98.8005 122.7 98.6165 122.428C98.4365 122.156 98.2065 121.946 97.9265 121.798C97.6505 121.65 97.3405 121.576 96.9965 121.576C96.6325 121.576 96.3045 121.65 96.0125 121.798C95.7245 121.946 95.4865 122.156 95.2985 122.428C95.1105 122.7 94.9865 123.018 94.9265 123.382H98.9825ZM101.518 120.856H102.442V121.852C102.65 121.484 102.926 121.202 103.27 121.006C103.618 120.81 104.02 120.712 104.476 120.712C104.916 120.712 105.306 120.806 105.646 120.994C105.986 121.182 106.252 121.46 106.444 121.828C106.64 122.192 106.738 122.63 106.738 123.142V127H105.778V123.238C105.778 122.706 105.64 122.292 105.364 121.996C105.088 121.7 104.708 121.552 104.224 121.552C103.88 121.552 103.576 121.628 103.312 121.78C103.048 121.932 102.842 122.146 102.694 122.422C102.55 122.694 102.478 123.006 102.478 123.358V127H101.518V120.856ZM111.176 127.144C110.596 127.144 110.072 127.006 109.604 126.73C109.136 126.454 108.768 126.07 108.5 125.578C108.232 125.086 108.098 124.532 108.098 123.916C108.098 123.316 108.234 122.772 108.506 122.284C108.778 121.792 109.148 121.408 109.616 121.132C110.088 120.852 110.608 120.712 111.176 120.712C111.76 120.712 112.278 120.848 112.73 121.12C113.182 121.388 113.534 121.766 113.786 122.254C114.038 122.742 114.164 123.3 114.164 123.928V124.144H109.076C109.108 124.576 109.216 124.952 109.4 125.272C109.584 125.592 109.828 125.84 110.132 126.016C110.436 126.188 110.784 126.274 111.176 126.274C111.548 126.274 111.878 126.202 112.166 126.058C112.454 125.914 112.69 125.708 112.874 125.44H113.942C113.714 125.972 113.358 126.39 112.874 126.694C112.39 126.994 111.824 127.144 111.176 127.144ZM113.162 123.382C113.102 123.018 112.98 122.7 112.796 122.428C112.616 122.156 112.386 121.946 112.106 121.798C111.83 121.65 111.52 121.576 111.176 121.576C110.812 121.576 110.484 121.65 110.192 121.798C109.904 121.946 109.666 122.156 109.478 122.428C109.29 122.7 109.166 123.018 109.106 123.382H113.162ZM115.697 120.856H116.657V121.876C116.853 121.528 117.107 121.262 117.419 121.078C117.731 120.89 118.089 120.796 118.493 120.796H118.709V121.798H118.457C118.093 121.798 117.775 121.868 117.503 122.008C117.231 122.148 117.021 122.348 116.873 122.608C116.729 122.864 116.657 123.166 116.657 123.514V127H115.697V120.856ZM122.047 120.712C122.523 120.712 122.933 120.8 123.277 120.976C123.625 121.148 123.891 121.396 124.075 121.72C124.263 122.044 124.357 122.428 124.357 122.872V127H123.409V126.118C123.213 126.446 122.947 126.7 122.611 126.88C122.279 127.056 121.897 127.144 121.465 127.144C121.073 127.144 120.719 127.068 120.403 126.916C120.091 126.764 119.847 126.554 119.671 126.286C119.495 126.018 119.407 125.716 119.407 125.38C119.407 125.056 119.491 124.756 119.659 124.48C119.827 124.204 120.059 123.978 120.355 123.802C120.651 123.626 120.985 123.518 121.357 123.478L122.965 123.298C123.185 123.274 123.329 123.146 123.397 122.914V122.752C123.397 122.384 123.275 122.092 123.031 121.876C122.787 121.66 122.459 121.552 122.047 121.552C121.771 121.552 121.527 121.596 121.315 121.684C121.107 121.768 120.941 121.882 120.817 122.026C120.693 122.17 120.615 122.324 120.583 122.488H119.623C119.675 122.156 119.807 121.856 120.019 121.588C120.235 121.316 120.517 121.102 120.865 120.946C121.213 120.79 121.607 120.712 122.047 120.712ZM120.403 125.332C120.403 125.532 120.457 125.71 120.565 125.866C120.673 126.018 120.823 126.136 121.015 126.22C121.211 126.304 121.435 126.346 121.687 126.346C122.019 126.346 122.315 126.278 122.575 126.142C122.835 126.002 123.037 125.808 123.181 125.56C123.325 125.312 123.397 125.026 123.397 124.702V123.976L121.495 124.186C121.283 124.21 121.093 124.276 120.925 124.384C120.761 124.488 120.633 124.624 120.541 124.792C120.449 124.956 120.403 125.136 120.403 125.332ZM128.237 127C127.945 127 127.679 126.938 127.439 126.814C127.203 126.686 127.017 126.512 126.881 126.292C126.745 126.068 126.677 125.82 126.677 125.548L126.671 121.708H125.591L125.597 120.856H126.263C126.415 120.856 126.537 120.808 126.629 120.712C126.725 120.616 126.773 120.494 126.773 120.346V119.356H127.637V120.856H129.299L129.293 121.708H127.631L127.637 125.488C127.637 125.676 127.699 125.834 127.823 125.962C127.951 126.086 128.109 126.148 128.297 126.148H129.293V127H128.237ZM130.791 120.856H131.751V127H130.791V120.856ZM130.743 118.6H131.799V119.692H130.743V118.6ZM136.414 127.144C135.826 127.144 135.292 127.004 134.812 126.724C134.336 126.444 133.962 126.06 133.69 125.572C133.418 125.08 133.282 124.532 133.282 123.928C133.282 123.324 133.418 122.778 133.69 122.29C133.962 121.798 134.336 121.412 134.812 121.132C135.292 120.852 135.826 120.712 136.414 120.712C137.002 120.712 137.534 120.852 138.01 121.132C138.49 121.412 138.866 121.798 139.138 122.29C139.41 122.778 139.546 123.324 139.546 123.928C139.546 124.532 139.41 125.08 139.138 125.572C138.866 126.06 138.49 126.444 138.01 126.724C137.534 127.004 137.002 127.144 136.414 127.144ZM136.414 126.268C136.83 126.268 137.198 126.17 137.518 125.974C137.842 125.774 138.092 125.498 138.268 125.146C138.448 124.79 138.538 124.384 138.538 123.928C138.538 123.468 138.448 123.062 138.268 122.71C138.092 122.354 137.842 122.078 137.518 121.882C137.198 121.682 136.83 121.582 136.414 121.582C135.998 121.582 135.628 121.682 135.304 121.882C134.984 122.078 134.734 122.354 134.554 122.71C134.378 123.062 134.29 123.468 134.29 123.928C134.29 124.384 134.378 124.79 134.554 125.146C134.734 125.498 134.984 125.774 135.304 125.974C135.628 126.17 135.998 126.268 136.414 126.268ZM141.08 120.856H142.004V121.852C142.212 121.484 142.488 121.202 142.832 121.006C143.18 120.81 143.582 120.712 144.038 120.712C144.478 120.712 144.868 120.806 145.208 120.994C145.548 121.182 145.814 121.46 146.006 121.828C146.202 122.192 146.3 122.63 146.3 123.142V127H145.34V123.238C145.34 122.706 145.202 122.292 144.926 121.996C144.65 121.7 144.27 121.552 143.786 121.552C143.442 121.552 143.138 121.628 142.874 121.78C142.61 121.932 142.404 122.146 142.256 122.422C142.112 122.694 142.04 123.006 142.04 123.358V127H141.08V120.856Z" fill="white"/>
<rect x="12" y="188" width="196" height="25" rx="12" fill="url(#paint2_radial_3509_23)"/>
<path d="M79.0252 196.6H80.0212V205H79.0252V196.6ZM85.3056 201.484H83.3376V205H82.3416V196.6H85.7376C86.2736 196.6 86.7436 196.7 87.1476 196.9C87.5556 197.1 87.8696 197.384 88.0896 197.752C88.3136 198.12 88.4256 198.548 88.4256 199.036C88.4256 199.452 88.3416 199.826 88.1736 200.158C88.0096 200.49 87.7736 200.766 87.4656 200.986C87.1616 201.202 86.8016 201.348 86.3856 201.424L88.6116 205H87.4476L85.3056 201.484ZM85.7376 200.554C86.0656 200.554 86.3516 200.492 86.5956 200.368C86.8436 200.244 87.0336 200.068 87.1656 199.84C87.3016 199.612 87.3696 199.344 87.3696 199.036C87.3696 198.732 87.3016 198.466 87.1656 198.238C87.0336 198.01 86.8436 197.836 86.5956 197.716C86.3516 197.592 86.0656 197.53 85.7376 197.53H83.3376V200.554H85.7376ZM93.8248 196.6H94.7848V205H93.8248V196.6ZM99.5446 205.144C98.9566 205.144 98.4226 205.004 97.9426 204.724C97.4666 204.444 97.0926 204.06 96.8206 203.572C96.5486 203.08 96.4126 202.532 96.4126 201.928C96.4126 201.324 96.5486 200.778 96.8206 200.29C97.0926 199.798 97.4666 199.412 97.9426 199.132C98.4226 198.852 98.9566 198.712 99.5446 198.712C100.133 198.712 100.665 198.852 101.141 199.132C101.621 199.412 101.997 199.798 102.269 200.29C102.541 200.778 102.677 201.324 102.677 201.928C102.677 202.532 102.541 203.08 102.269 203.572C101.997 204.06 101.621 204.444 101.141 204.724C100.665 205.004 100.133 205.144 99.5446 205.144ZM99.5446 204.268C99.9606 204.268 100.329 204.17 100.649 203.974C100.973 203.774 101.223 203.498 101.399 203.146C101.579 202.79 101.669 202.384 101.669 201.928C101.669 201.468 101.579 201.062 101.399 200.71C101.223 200.354 100.973 200.078 100.649 199.882C100.329 199.682 99.9606 199.582 99.5446 199.582C99.1286 199.582 98.7586 199.682 98.4346 199.882C98.1146 200.078 97.8646 200.354 97.6846 200.71C97.5086 201.062 97.4206 201.468 97.4206 201.928C97.4206 202.384 97.5086 202.79 97.6846 203.146C97.8646 203.498 98.1146 203.774 98.4346 203.974C98.7586 204.17 99.1286 204.268 99.5446 204.268ZM103.39 198.856H104.422L105.88 203.272L106.018 203.794L106.144 203.272L107.65 198.856H108.568L110.098 203.272L110.236 203.794L110.362 203.272L111.79 198.856H112.798L110.674 205H109.726L108.226 200.38L108.112 199.954L108.01 200.368L106.444 205H105.508L103.39 198.856ZM116.588 205.144C116.008 205.144 115.484 205.006 115.016 204.73C114.548 204.454 114.18 204.07 113.912 203.578C113.644 203.086 113.51 202.532 113.51 201.916C113.51 201.316 113.646 200.772 113.918 200.284C114.19 199.792 114.56 199.408 115.028 199.132C115.5 198.852 116.02 198.712 116.588 198.712C117.172 198.712 117.69 198.848 118.142 199.12C118.594 199.388 118.946 199.766 119.198 200.254C119.45 200.742 119.576 201.3 119.576 201.928V202.144H114.488C114.52 202.576 114.628 202.952 114.812 203.272C114.996 203.592 115.24 203.84 115.544 204.016C115.848 204.188 116.196 204.274 116.588 204.274C116.96 204.274 117.29 204.202 117.578 204.058C117.866 203.914 118.102 203.708 118.286 203.44H119.354C119.126 203.972 118.77 204.39 118.286 204.694C117.802 204.994 117.236 205.144 116.588 205.144ZM118.574 201.382C118.514 201.018 118.392 200.7 118.208 200.428C118.028 200.156 117.798 199.946 117.518 199.798C117.242 199.65 116.932 199.576 116.588 199.576C116.224 199.576 115.896 199.65 115.604 199.798C115.316 199.946 115.078 200.156 114.89 200.428C114.702 200.7 114.578 201.018 114.518 201.382H118.574ZM121.11 198.856H122.07V199.876C122.266 199.528 122.52 199.262 122.832 199.078C123.144 198.89 123.502 198.796 123.906 198.796H124.122V199.798H123.87C123.506 199.798 123.188 199.868 122.916 200.008C122.644 200.148 122.434 200.348 122.286 200.608C122.142 200.864 122.07 201.166 122.07 201.514V205H121.11V198.856ZM125.41 198.856H126.37V205H125.41V198.856ZM125.362 196.6H126.418V197.692H125.362V196.6ZM128.387 198.856H129.311V199.852C129.519 199.484 129.795 199.202 130.139 199.006C130.487 198.81 130.889 198.712 131.345 198.712C131.785 198.712 132.175 198.806 132.515 198.994C132.855 199.182 133.121 199.46 133.313 199.828C133.509 200.192 133.607 200.63 133.607 201.142V205H132.647V201.238C132.647 200.706 132.509 200.292 132.233 199.996C131.957 199.7 131.577 199.552 131.093 199.552C130.749 199.552 130.445 199.628 130.181 199.78C129.917 199.932 129.711 200.146 129.563 200.422C129.419 200.694 129.347 201.006 129.347 201.358V205H128.387V198.856ZM138.057 207.064C137.605 207.064 137.183 206.988 136.791 206.836C136.403 206.684 136.075 206.47 135.807 206.194C135.543 205.922 135.365 205.608 135.273 205.252H136.257C136.309 205.432 136.421 205.592 136.593 205.732C136.765 205.876 136.977 205.988 137.229 206.068C137.485 206.148 137.761 206.188 138.057 206.188C138.437 206.188 138.777 206.116 139.077 205.972C139.381 205.828 139.617 205.626 139.785 205.366C139.957 205.106 140.043 204.804 140.043 204.46V204.088L140.055 203.596C139.819 203.936 139.513 204.2 139.137 204.388C138.765 204.572 138.343 204.664 137.871 204.664C137.315 204.664 136.823 204.538 136.395 204.286C135.967 204.034 135.635 203.682 135.399 203.23C135.167 202.778 135.051 202.264 135.051 201.688C135.051 201.112 135.167 200.598 135.399 200.146C135.635 199.694 135.967 199.342 136.395 199.09C136.823 198.838 137.315 198.712 137.871 198.712C138.355 198.712 138.787 198.81 139.167 199.006C139.547 199.198 139.855 199.472 140.091 199.828V198.856H141.021L141.003 204.46C141.003 204.968 140.877 205.418 140.625 205.81C140.373 206.206 140.023 206.514 139.575 206.734C139.131 206.954 138.625 207.064 138.057 207.064ZM138.057 203.818C138.445 203.818 138.789 203.73 139.089 203.554C139.393 203.374 139.629 203.122 139.797 202.798C139.965 202.474 140.051 202.104 140.055 201.688C140.051 201.272 139.965 200.902 139.797 200.578C139.629 200.254 139.393 200.004 139.089 199.828C138.789 199.648 138.445 199.558 138.057 199.558C137.665 199.558 137.317 199.648 137.013 199.828C136.709 200.004 136.473 200.254 136.305 200.578C136.141 200.902 136.059 201.272 136.059 201.688C136.059 202.104 136.141 202.474 136.305 202.798C136.473 203.122 136.709 203.374 137.013 203.554C137.317 203.73 137.665 203.818 138.057 203.818Z" fill="white"/>
<rect x="11" y="149" width="196" height="25" rx="12" fill="#F2F2F2"/>
<path d="M77.97 157.6C78.462 157.6 78.9 157.694 79.284 157.882C79.672 158.07 79.974 158.33 80.19 158.662C80.406 158.994 80.514 159.37 80.514 159.79C80.514 160.242 80.392 160.628 80.148 160.948C79.908 161.268 79.578 161.49 79.158 161.614C79.638 161.742 80.02 161.992 80.304 162.364C80.588 162.732 80.73 163.168 80.73 163.672C80.73 164.12 80.616 164.522 80.388 164.878C80.16 165.23 79.842 165.506 79.434 165.706C79.026 165.902 78.562 166 78.042 166H74.574V157.6H77.97ZM75.552 165.1H78.042C78.366 165.1 78.654 165.04 78.906 164.92C79.158 164.796 79.352 164.624 79.488 164.404C79.628 164.18 79.698 163.922 79.698 163.63C79.698 163.342 79.628 163.084 79.488 162.856C79.348 162.628 79.152 162.452 78.9 162.328C78.652 162.2 78.366 162.136 78.042 162.136H75.552V165.1ZM77.97 161.26C78.27 161.26 78.534 161.204 78.762 161.092C78.99 160.98 79.166 160.82 79.29 160.612C79.418 160.404 79.482 160.162 79.482 159.886C79.482 159.61 79.418 159.368 79.29 159.16C79.166 158.952 78.988 158.79 78.756 158.674C78.528 158.558 78.266 158.5 77.97 158.5H75.552V161.26H77.97ZM84.6056 159.712C85.0816 159.712 85.4916 159.8 85.8356 159.976C86.1836 160.148 86.4496 160.396 86.6336 160.72C86.8216 161.044 86.9156 161.428 86.9156 161.872V166H85.9676V165.118C85.7716 165.446 85.5056 165.7 85.1696 165.88C84.8376 166.056 84.4556 166.144 84.0236 166.144C83.6316 166.144 83.2776 166.068 82.9616 165.916C82.6496 165.764 82.4056 165.554 82.2296 165.286C82.0536 165.018 81.9656 164.716 81.9656 164.38C81.9656 164.056 82.0496 163.756 82.2176 163.48C82.3856 163.204 82.6176 162.978 82.9136 162.802C83.2096 162.626 83.5436 162.518 83.9156 162.478L85.5236 162.298C85.7436 162.274 85.8876 162.146 85.9556 161.914V161.752C85.9556 161.384 85.8336 161.092 85.5896 160.876C85.3456 160.66 85.0176 160.552 84.6056 160.552C84.3296 160.552 84.0856 160.596 83.8736 160.684C83.6656 160.768 83.4996 160.882 83.3756 161.026C83.2516 161.17 83.1736 161.324 83.1416 161.488H82.1816C82.2336 161.156 82.3656 160.856 82.5776 160.588C82.7936 160.316 83.0756 160.102 83.4236 159.946C83.7716 159.79 84.1656 159.712 84.6056 159.712ZM82.9616 164.332C82.9616 164.532 83.0156 164.71 83.1236 164.866C83.2316 165.018 83.3816 165.136 83.5736 165.22C83.7696 165.304 83.9936 165.346 84.2456 165.346C84.5776 165.346 84.8736 165.278 85.1336 165.142C85.3936 165.002 85.5956 164.808 85.7396 164.56C85.8836 164.312 85.9556 164.026 85.9556 163.702V162.976L84.0536 163.186C83.8416 163.21 83.6516 163.276 83.4836 163.384C83.3196 163.488 83.1916 163.624 83.0996 163.792C83.0076 163.956 82.9616 164.136 82.9616 164.332ZM91.342 166.144C90.762 166.144 90.238 166.004 89.77 165.724C89.302 165.444 88.934 165.06 88.666 164.572C88.402 164.08 88.27 163.532 88.27 162.928C88.27 162.324 88.402 161.778 88.666 161.29C88.934 160.798 89.302 160.412 89.77 160.132C90.238 159.852 90.762 159.712 91.342 159.712C91.802 159.712 92.224 159.8 92.608 159.976C92.996 160.148 93.322 160.394 93.586 160.714C93.854 161.034 94.046 161.406 94.162 161.83H93.112C92.968 161.446 92.738 161.142 92.422 160.918C92.11 160.694 91.75 160.582 91.342 160.582C90.946 160.582 90.59 160.682 90.274 160.882C89.962 161.082 89.718 161.36 89.542 161.716C89.366 162.072 89.278 162.476 89.278 162.928C89.278 163.376 89.366 163.778 89.542 164.134C89.718 164.49 89.962 164.77 90.274 164.974C90.59 165.174 90.946 165.274 91.342 165.274C91.75 165.274 92.11 165.162 92.422 164.938C92.738 164.714 92.968 164.41 93.112 164.026H94.162C94.046 164.45 93.854 164.822 93.586 165.142C93.322 165.462 92.996 165.71 92.608 165.886C92.224 166.058 91.802 166.144 91.342 166.144ZM95.6115 157.6H96.5715V162.73L99.3555 159.856H100.55L97.7655 162.73L100.658 166H99.4095L96.5715 162.79V166H95.6115V157.6ZM104.227 166.144C103.647 166.144 103.123 166.006 102.655 165.73C102.187 165.454 101.819 165.07 101.551 164.578C101.283 164.086 101.149 163.532 101.149 162.916C101.149 162.316 101.285 161.772 101.557 161.284C101.829 160.792 102.199 160.408 102.667 160.132C103.139 159.852 103.659 159.712 104.227 159.712C104.811 159.712 105.329 159.848 105.781 160.12C106.233 160.388 106.585 160.766 106.837 161.254C107.089 161.742 107.215 162.3 107.215 162.928V163.144H102.127C102.159 163.576 102.267 163.952 102.451 164.272C102.635 164.592 102.879 164.84 103.183 165.016C103.487 165.188 103.835 165.274 104.227 165.274C104.599 165.274 104.929 165.202 105.217 165.058C105.505 164.914 105.741 164.708 105.925 164.44H106.993C106.765 164.972 106.409 165.39 105.925 165.694C105.441 165.994 104.875 166.144 104.227 166.144ZM106.213 162.382C106.153 162.018 106.031 161.7 105.847 161.428C105.667 161.156 105.437 160.946 105.157 160.798C104.881 160.65 104.571 160.576 104.227 160.576C103.863 160.576 103.535 160.65 103.243 160.798C102.955 160.946 102.717 161.156 102.529 161.428C102.341 161.7 102.217 162.018 102.157 162.382H106.213ZM108.748 159.856H109.672V160.852C109.88 160.484 110.156 160.202 110.5 160.006C110.848 159.81 111.25 159.712 111.706 159.712C112.146 159.712 112.536 159.806 112.876 159.994C113.216 160.182 113.482 160.46 113.674 160.828C113.87 161.192 113.968 161.63 113.968 162.142V166H113.008V162.238C113.008 161.706 112.87 161.292 112.594 160.996C112.318 160.7 111.938 160.552 111.454 160.552C111.11 160.552 110.806 160.628 110.542 160.78C110.278 160.932 110.072 161.146 109.924 161.422C109.78 161.694 109.708 162.006 109.708 162.358V166H108.748V159.856ZM120.537 164.956C120.305 165.332 119.995 165.624 119.607 165.832C119.219 166.04 118.775 166.144 118.275 166.144C117.703 166.144 117.193 166.01 116.745 165.742C116.301 165.47 115.953 165.09 115.701 164.602C115.453 164.114 115.329 163.556 115.329 162.928C115.329 162.3 115.453 161.742 115.701 161.254C115.953 160.766 116.301 160.388 116.745 160.12C117.193 159.848 117.703 159.712 118.275 159.712C118.775 159.712 119.219 159.816 119.607 160.024C119.995 160.232 120.305 160.524 120.537 160.9V157.6H121.497V166H120.537V164.956ZM118.425 165.274C118.837 165.274 119.203 165.176 119.523 164.98C119.843 164.78 120.091 164.504 120.267 164.152C120.447 163.796 120.537 163.388 120.537 162.928C120.537 162.468 120.447 162.062 120.267 161.71C120.091 161.354 119.843 161.078 119.523 160.882C119.203 160.682 118.837 160.582 118.425 160.582C118.017 160.582 117.655 160.682 117.339 160.882C117.023 161.078 116.777 161.354 116.601 161.71C116.425 162.062 116.337 162.468 116.337 162.928C116.337 163.388 116.425 163.796 116.601 164.152C116.777 164.504 117.023 164.78 117.339 164.98C117.655 165.176 118.017 165.274 118.425 165.274ZM129.217 157.6H130.291L133.519 166H132.463L131.653 163.768H127.939L127.183 166H126.103L129.217 157.6ZM131.329 162.904L129.895 158.998L129.751 158.488L129.607 158.998L128.245 162.904H131.329ZM134.914 157.6H138.31C138.846 157.6 139.316 157.7 139.72 157.9C140.128 158.1 140.442 158.384 140.662 158.752C140.886 159.12 140.998 159.548 140.998 160.036C140.998 160.524 140.884 160.954 140.656 161.326C140.432 161.694 140.114 161.98 139.702 162.184C139.29 162.384 138.81 162.484 138.262 162.484H135.91V166H134.914V157.6ZM138.31 161.554C138.638 161.554 138.924 161.492 139.168 161.368C139.416 161.244 139.606 161.068 139.738 160.84C139.874 160.612 139.942 160.344 139.942 160.036C139.942 159.732 139.874 159.466 139.738 159.238C139.606 159.01 139.416 158.836 139.168 158.716C138.924 158.592 138.638 158.53 138.31 158.53H135.91V161.554H138.31ZM142.426 157.6H143.422V166H142.426V157.6Z" fill="black"/>
<rect x="12" y="227" width="196" height="25" rx="12" fill="url(#paint3_radial_3509_23)"/>
<path d="M66.7396 244.144C65.9636 244.144 65.2616 243.956 64.6336 243.58C64.0056 243.2 63.5116 242.68 63.1516 242.02C62.7956 241.356 62.6176 240.616 62.6176 239.8C62.6176 238.984 62.7956 238.246 63.1516 237.586C63.5116 236.922 64.0056 236.402 64.6336 236.026C65.2616 235.646 65.9636 235.456 66.7396 235.456C67.3716 235.456 67.9516 235.57 68.4796 235.798C69.0116 236.026 69.4596 236.348 69.8236 236.764C70.1916 237.176 70.4536 237.654 70.6096 238.198H69.5296C69.3936 237.83 69.1916 237.508 68.9236 237.232C68.6556 236.956 68.3356 236.744 67.9636 236.596C67.5956 236.444 67.1976 236.368 66.7696 236.368C66.1856 236.368 65.6556 236.518 65.1796 236.818C64.7036 237.114 64.3296 237.524 64.0576 238.048C63.7856 238.572 63.6496 239.156 63.6496 239.8C63.6496 240.444 63.7856 241.028 64.0576 241.552C64.3296 242.076 64.7036 242.488 65.1796 242.788C65.6556 243.084 66.1856 243.232 66.7696 243.232C67.1976 243.232 67.5956 243.158 67.9636 243.01C68.3356 242.858 68.6556 242.644 68.9236 242.368C69.1916 242.092 69.3936 241.77 69.5296 241.402H70.6096C70.4536 241.946 70.1916 242.426 69.8236 242.842C69.4596 243.254 69.0116 243.574 68.4796 243.802C67.9516 244.03 67.3716 244.144 66.7396 244.144ZM74.8356 244.144C74.2476 244.144 73.7136 244.004 73.2336 243.724C72.7576 243.444 72.3836 243.06 72.1116 242.572C71.8396 242.08 71.7036 241.532 71.7036 240.928C71.7036 240.324 71.8396 239.778 72.1116 239.29C72.3836 238.798 72.7576 238.412 73.2336 238.132C73.7136 237.852 74.2476 237.712 74.8356 237.712C75.4236 237.712 75.9556 237.852 76.4316 238.132C76.9116 238.412 77.2876 238.798 77.5596 239.29C77.8316 239.778 77.9676 240.324 77.9676 240.928C77.9676 241.532 77.8316 242.08 77.5596 242.572C77.2876 243.06 76.9116 243.444 76.4316 243.724C75.9556 244.004 75.4236 244.144 74.8356 244.144ZM74.8356 243.268C75.2516 243.268 75.6196 243.17 75.9396 242.974C76.2636 242.774 76.5136 242.498 76.6896 242.146C76.8696 241.79 76.9596 241.384 76.9596 240.928C76.9596 240.468 76.8696 240.062 76.6896 239.71C76.5136 239.354 76.2636 239.078 75.9396 238.882C75.6196 238.682 75.2516 238.582 74.8356 238.582C74.4196 238.582 74.0496 238.682 73.7256 238.882C73.4056 239.078 73.1556 239.354 72.9756 239.71C72.7996 240.062 72.7116 240.468 72.7116 240.928C72.7116 241.384 72.7996 241.79 72.9756 242.146C73.1556 242.498 73.4056 242.774 73.7256 242.974C74.0496 243.17 74.4196 243.268 74.8356 243.268ZM84.2241 242.956C83.9921 243.332 83.6821 243.624 83.2941 243.832C82.9061 244.04 82.4621 244.144 81.9621 244.144C81.3901 244.144 80.8801 244.01 80.4321 243.742C79.9881 243.47 79.6401 243.09 79.3881 242.602C79.1401 242.114 79.0161 241.556 79.0161 240.928C79.0161 240.3 79.1401 239.742 79.3881 239.254C79.6401 238.766 79.9881 238.388 80.4321 238.12C80.8801 237.848 81.3901 237.712 81.9621 237.712C82.4621 237.712 82.9061 237.816 83.2941 238.024C83.6821 238.232 83.9921 238.524 84.2241 238.9V235.6H85.1841V244H84.2241V242.956ZM82.1121 243.274C82.5241 243.274 82.8901 243.176 83.2101 242.98C83.5301 242.78 83.7781 242.504 83.9541 242.152C84.1341 241.796 84.2241 241.388 84.2241 240.928C84.2241 240.468 84.1341 240.062 83.9541 239.71C83.7781 239.354 83.5301 239.078 83.2101 238.882C82.8901 238.682 82.5241 238.582 82.1121 238.582C81.7041 238.582 81.3421 238.682 81.0261 238.882C80.7101 239.078 80.4641 239.354 80.2881 239.71C80.1121 240.062 80.0241 240.468 80.0241 240.928C80.0241 241.388 80.1121 241.796 80.2881 242.152C80.4641 242.504 80.7101 242.78 81.0261 242.98C81.3421 243.176 81.7041 243.274 82.1121 243.274ZM89.7934 244.144C89.2134 244.144 88.6894 244.006 88.2214 243.73C87.7534 243.454 87.3854 243.07 87.1174 242.578C86.8494 242.086 86.7154 241.532 86.7154 240.916C86.7154 240.316 86.8514 239.772 87.1234 239.284C87.3954 238.792 87.7654 238.408 88.2334 238.132C88.7054 237.852 89.2254 237.712 89.7934 237.712C90.3774 237.712 90.8954 237.848 91.3474 238.12C91.7994 238.388 92.1514 238.766 92.4034 239.254C92.6554 239.742 92.7814 240.3 92.7814 240.928V241.144H87.6934C87.7254 241.576 87.8334 241.952 88.0174 242.272C88.2014 242.592 88.4454 242.84 88.7494 243.016C89.0534 243.188 89.4014 243.274 89.7934 243.274C90.1654 243.274 90.4954 243.202 90.7834 243.058C91.0714 242.914 91.3074 242.708 91.4914 242.44H92.5594C92.3314 242.972 91.9754 243.39 91.4914 243.694C91.0074 243.994 90.4414 244.144 89.7934 244.144ZM91.7794 240.382C91.7194 240.018 91.5974 239.7 91.4134 239.428C91.2334 239.156 91.0034 238.946 90.7234 238.798C90.4474 238.65 90.1374 238.576 89.7934 238.576C89.4294 238.576 89.1014 238.65 88.8094 238.798C88.5214 238.946 88.2834 239.156 88.0954 239.428C87.9074 239.7 87.7834 240.018 87.7234 240.382H91.7794ZM100.165 246.064C99.7127 246.064 99.2907 245.988 98.8987 245.836C98.5107 245.684 98.1827 245.47 97.9147 245.194C97.6507 244.922 97.4727 244.608 97.3807 244.252H98.3647C98.4167 244.432 98.5287 244.592 98.7007 244.732C98.8727 244.876 99.0847 244.988 99.3367 245.068C99.5927 245.148 99.8687 245.188 100.165 245.188C100.545 245.188 100.885 245.116 101.185 244.972C101.489 244.828 101.725 244.626 101.893 244.366C102.065 244.106 102.151 243.804 102.151 243.46V243.088L102.163 242.596C101.927 242.936 101.621 243.2 101.245 243.388C100.873 243.572 100.451 243.664 99.9787 243.664C99.4227 243.664 98.9307 243.538 98.5027 243.286C98.0747 243.034 97.7427 242.682 97.5067 242.23C97.2747 241.778 97.1587 241.264 97.1587 240.688C97.1587 240.112 97.2747 239.598 97.5067 239.146C97.7427 238.694 98.0747 238.342 98.5027 238.09C98.9307 237.838 99.4227 237.712 99.9787 237.712C100.463 237.712 100.895 237.81 101.275 238.006C101.655 238.198 101.963 238.472 102.199 238.828V237.856H103.129L103.111 243.46C103.111 243.968 102.985 244.418 102.733 244.81C102.481 245.206 102.131 245.514 101.683 245.734C101.239 245.954 100.733 246.064 100.165 246.064ZM100.165 242.818C100.553 242.818 100.897 242.73 101.197 242.554C101.501 242.374 101.737 242.122 101.905 241.798C102.073 241.474 102.159 241.104 102.163 240.688C102.159 240.272 102.073 239.902 101.905 239.578C101.737 239.254 101.501 239.004 101.197 238.828C100.897 238.648 100.553 238.558 100.165 238.558C99.7727 238.558 99.4247 238.648 99.1207 238.828C98.8167 239.004 98.5807 239.254 98.4127 239.578C98.2487 239.902 98.1667 240.272 98.1667 240.688C98.1667 241.104 98.2487 241.474 98.4127 241.798C98.5807 242.122 98.8167 242.374 99.1207 242.554C99.4247 242.73 99.7727 242.818 100.165 242.818ZM107.84 244.144C107.26 244.144 106.736 244.006 106.268 243.73C105.8 243.454 105.432 243.07 105.164 242.578C104.896 242.086 104.762 241.532 104.762 240.916C104.762 240.316 104.898 239.772 105.17 239.284C105.442 238.792 105.812 238.408 106.28 238.132C106.752 237.852 107.272 237.712 107.84 237.712C108.424 237.712 108.942 237.848 109.394 238.12C109.846 238.388 110.198 238.766 110.45 239.254C110.702 239.742 110.828 240.3 110.828 240.928V241.144H105.74C105.772 241.576 105.88 241.952 106.064 242.272C106.248 242.592 106.492 242.84 106.796 243.016C107.1 243.188 107.448 243.274 107.84 243.274C108.212 243.274 108.542 243.202 108.83 243.058C109.118 242.914 109.354 242.708 109.538 242.44H110.606C110.378 242.972 110.022 243.39 109.538 243.694C109.054 243.994 108.488 244.144 107.84 244.144ZM109.826 240.382C109.766 240.018 109.644 239.7 109.46 239.428C109.28 239.156 109.05 238.946 108.77 238.798C108.494 238.65 108.184 238.576 107.84 238.576C107.476 238.576 107.148 238.65 106.856 238.798C106.568 238.946 106.33 239.156 106.142 239.428C105.954 239.7 105.83 240.018 105.77 240.382H109.826ZM112.362 237.856H113.286V238.852C113.494 238.484 113.77 238.202 114.114 238.006C114.462 237.81 114.864 237.712 115.32 237.712C115.76 237.712 116.15 237.806 116.49 237.994C116.83 238.182 117.096 238.46 117.288 238.828C117.484 239.192 117.582 239.63 117.582 240.142V244H116.622V240.238C116.622 239.706 116.484 239.292 116.208 238.996C115.932 238.7 115.552 238.552 115.068 238.552C114.724 238.552 114.42 238.628 114.156 238.78C113.892 238.932 113.686 239.146 113.538 239.422C113.394 239.694 113.322 240.006 113.322 240.358V244H112.362V237.856ZM122.02 244.144C121.44 244.144 120.916 244.006 120.448 243.73C119.98 243.454 119.612 243.07 119.344 242.578C119.076 242.086 118.942 241.532 118.942 240.916C118.942 240.316 119.078 239.772 119.35 239.284C119.622 238.792 119.992 238.408 120.46 238.132C120.932 237.852 121.452 237.712 122.02 237.712C122.604 237.712 123.122 237.848 123.574 238.12C124.026 238.388 124.378 238.766 124.63 239.254C124.882 239.742 125.008 240.3 125.008 240.928V241.144H119.92C119.952 241.576 120.06 241.952 120.244 242.272C120.428 242.592 120.672 242.84 120.976 243.016C121.28 243.188 121.628 243.274 122.02 243.274C122.392 243.274 122.722 243.202 123.01 243.058C123.298 242.914 123.534 242.708 123.718 242.44H124.786C124.558 242.972 124.202 243.39 123.718 243.694C123.234 243.994 122.668 244.144 122.02 244.144ZM124.006 240.382C123.946 240.018 123.824 239.7 123.64 239.428C123.46 239.156 123.23 238.946 122.95 238.798C122.674 238.65 122.364 238.576 122.02 238.576C121.656 238.576 121.328 238.65 121.036 238.798C120.748 238.946 120.51 239.156 120.322 239.428C120.134 239.7 120.01 240.018 119.95 240.382H124.006ZM126.541 237.856H127.501V238.876C127.697 238.528 127.951 238.262 128.263 238.078C128.575 237.89 128.933 237.796 129.337 237.796H129.553V238.798H129.301C128.937 238.798 128.619 238.868 128.347 239.008C128.075 239.148 127.865 239.348 127.717 239.608C127.573 239.864 127.501 240.166 127.501 240.514V244H126.541V237.856ZM132.891 237.712C133.367 237.712 133.777 237.8 134.121 237.976C134.469 238.148 134.735 238.396 134.919 238.72C135.107 239.044 135.201 239.428 135.201 239.872V244H134.253V243.118C134.057 243.446 133.791 243.7 133.455 243.88C133.123 244.056 132.741 244.144 132.309 244.144C131.917 244.144 131.563 244.068 131.247 243.916C130.935 243.764 130.691 243.554 130.515 243.286C130.339 243.018 130.251 242.716 130.251 242.38C130.251 242.056 130.335 241.756 130.503 241.48C130.671 241.204 130.903 240.978 131.199 240.802C131.495 240.626 131.829 240.518 132.201 240.478L133.809 240.298C134.029 240.274 134.173 240.146 134.241 239.914V239.752C134.241 239.384 134.119 239.092 133.875 238.876C133.631 238.66 133.303 238.552 132.891 238.552C132.615 238.552 132.371 238.596 132.159 238.684C131.951 238.768 131.785 238.882 131.661 239.026C131.537 239.17 131.459 239.324 131.427 239.488H130.467C130.519 239.156 130.651 238.856 130.863 238.588C131.079 238.316 131.361 238.102 131.709 237.946C132.057 237.79 132.451 237.712 132.891 237.712ZM131.247 242.332C131.247 242.532 131.301 242.71 131.409 242.866C131.517 243.018 131.667 243.136 131.859 243.22C132.055 243.304 132.279 243.346 132.531 243.346C132.863 243.346 133.159 243.278 133.419 243.142C133.679 243.002 133.881 242.808 134.025 242.56C134.169 242.312 134.241 242.026 134.241 241.702V240.976L132.339 241.186C132.127 241.21 131.937 241.276 131.769 241.384C131.605 241.488 131.477 241.624 131.385 241.792C131.293 241.956 131.247 242.136 131.247 242.332ZM139.081 244C138.789 244 138.523 243.938 138.283 243.814C138.047 243.686 137.861 243.512 137.725 243.292C137.589 243.068 137.521 242.82 137.521 242.548L137.515 238.708H136.435L136.441 237.856H137.107C137.259 237.856 137.381 237.808 137.473 237.712C137.569 237.616 137.617 237.494 137.617 237.346V236.356H138.481V237.856H140.143L140.137 238.708H138.475L138.481 242.488C138.481 242.676 138.543 242.834 138.667 242.962C138.795 243.086 138.953 243.148 139.141 243.148H140.137V244H139.081ZM141.635 237.856H142.595V244H141.635V237.856ZM141.587 235.6H142.643V236.692H141.587V235.6ZM147.258 244.144C146.67 244.144 146.136 244.004 145.656 243.724C145.18 243.444 144.806 243.06 144.534 242.572C144.262 242.08 144.126 241.532 144.126 240.928C144.126 240.324 144.262 239.778 144.534 239.29C144.806 238.798 145.18 238.412 145.656 238.132C146.136 237.852 146.67 237.712 147.258 237.712C147.846 237.712 148.378 237.852 148.854 238.132C149.334 238.412 149.71 238.798 149.982 239.29C150.254 239.778 150.39 240.324 150.39 240.928C150.39 241.532 150.254 242.08 149.982 242.572C149.71 243.06 149.334 243.444 148.854 243.724C148.378 244.004 147.846 244.144 147.258 244.144ZM147.258 243.268C147.674 243.268 148.042 243.17 148.362 242.974C148.686 242.774 148.936 242.498 149.112 242.146C149.292 241.79 149.382 241.384 149.382 240.928C149.382 240.468 149.292 240.062 149.112 239.71C148.936 239.354 148.686 239.078 148.362 238.882C148.042 238.682 147.674 238.582 147.258 238.582C146.842 238.582 146.472 238.682 146.148 238.882C145.828 239.078 145.578 239.354 145.398 239.71C145.222 240.062 145.134 240.468 145.134 240.928C145.134 241.384 145.222 241.79 145.398 242.146C145.578 242.498 145.828 242.774 146.148 242.974C146.472 243.17 146.842 243.268 147.258 243.268ZM151.924 237.856H152.848V238.852C153.056 238.484 153.332 238.202 153.676 238.006C154.024 237.81 154.426 237.712 154.882 237.712C155.322 237.712 155.712 237.806 156.052 237.994C156.392 238.182 156.658 238.46 156.85 238.828C157.046 239.192 157.144 239.63 157.144 240.142V244H156.184V240.238C156.184 239.706 156.046 239.292 155.77 238.996C155.494 238.7 155.114 238.552 154.63 238.552C154.286 238.552 153.982 238.628 153.718 238.78C153.454 238.932 153.248 239.146 153.1 239.422C152.956 239.694 152.884 240.006 152.884 240.358V244H151.924V237.856Z" fill="white"/>
<rect x="11" y="32" width="196" height="25" rx="12" fill="url(#paint4_radial_3509_23)"/>
<path d="M89.3982 40.6H92.7942C93.3302 40.6 93.8002 40.7 94.2042 40.9C94.6122 41.1 94.9262 41.384 95.1462 41.752C95.3702 42.12 95.4822 42.548 95.4822 43.036C95.4822 43.524 95.3682 43.954 95.1402 44.326C94.9162 44.694 94.5982 44.98 94.1862 45.184C93.7742 45.384 93.2942 45.484 92.7462 45.484H90.3942V49H89.3982V40.6ZM92.7942 44.554C93.1222 44.554 93.4082 44.492 93.6522 44.368C93.9002 44.244 94.0902 44.068 94.2222 43.84C94.3582 43.612 94.4262 43.344 94.4262 43.036C94.4262 42.732 94.3582 42.466 94.2222 42.238C94.0902 42.01 93.9002 41.836 93.6522 41.716C93.4082 41.592 93.1222 41.53 92.7942 41.53H90.3942V44.554H92.7942ZM98.6916 42.712C99.1676 42.712 99.5776 42.8 99.9216 42.976C100.27 43.148 100.536 43.396 100.72 43.72C100.908 44.044 101.002 44.428 101.002 44.872V49H100.054V48.118C99.8576 48.446 99.5916 48.7 99.2556 48.88C98.9236 49.056 98.5416 49.144 98.1096 49.144C97.7176 49.144 97.3636 49.068 97.0476 48.916C96.7356 48.764 96.4916 48.554 96.3156 48.286C96.1396 48.018 96.0516 47.716 96.0516 47.38C96.0516 47.056 96.1356 46.756 96.3036 46.48C96.4716 46.204 96.7036 45.978 96.9996 45.802C97.2956 45.626 97.6296 45.518 98.0016 45.478L99.6096 45.298C99.8296 45.274 99.9736 45.146 100.042 44.914V44.752C100.042 44.384 99.9196 44.092 99.6756 43.876C99.4316 43.66 99.1036 43.552 98.6916 43.552C98.4156 43.552 98.1716 43.596 97.9596 43.684C97.7516 43.768 97.5856 43.882 97.4616 44.026C97.3376 44.17 97.2596 44.324 97.2276 44.488H96.2676C96.3196 44.156 96.4516 43.856 96.6636 43.588C96.8796 43.316 97.1616 43.102 97.5096 42.946C97.8576 42.79 98.2516 42.712 98.6916 42.712ZM97.0476 47.332C97.0476 47.532 97.1016 47.71 97.2096 47.866C97.3176 48.018 97.4676 48.136 97.6596 48.22C97.8556 48.304 98.0796 48.346 98.3316 48.346C98.6636 48.346 98.9596 48.278 99.2196 48.142C99.4796 48.002 99.6816 47.808 99.8256 47.56C99.9696 47.312 100.042 47.026 100.042 46.702V45.976L98.1396 46.186C97.9276 46.21 97.7376 46.276 97.5696 46.384C97.4056 46.488 97.2776 46.624 97.1856 46.792C97.0936 46.956 97.0476 47.136 97.0476 47.332ZM102.842 42.856H103.802V43.876C103.998 43.528 104.252 43.262 104.564 43.078C104.876 42.89 105.234 42.796 105.638 42.796H105.854V43.798H105.602C105.238 43.798 104.92 43.868 104.648 44.008C104.376 44.148 104.166 44.348 104.018 44.608C103.874 44.864 103.802 45.166 103.802 45.514V49H102.842V42.856ZM109.147 49.144C108.675 49.144 108.255 49.07 107.887 48.922C107.519 48.77 107.227 48.556 107.011 48.28C106.795 48.004 106.675 47.682 106.651 47.314H107.611C107.651 47.622 107.809 47.868 108.085 48.052C108.361 48.236 108.711 48.328 109.135 48.328C109.415 48.328 109.663 48.284 109.879 48.196C110.099 48.108 110.269 47.986 110.389 47.83C110.509 47.67 110.569 47.488 110.569 47.284C110.569 47.064 110.501 46.878 110.365 46.726C110.229 46.57 110.041 46.47 109.801 46.426L108.475 46.18C107.979 46.088 107.587 45.892 107.299 45.592C107.011 45.288 106.867 44.922 106.867 44.494C106.867 44.158 106.959 43.856 107.143 43.588C107.327 43.316 107.585 43.102 107.917 42.946C108.253 42.79 108.637 42.712 109.069 42.712C109.513 42.712 109.903 42.784 110.239 42.928C110.575 43.068 110.839 43.272 111.031 43.54C111.227 43.804 111.339 44.118 111.367 44.482H110.407C110.367 44.186 110.225 43.95 109.981 43.774C109.737 43.598 109.433 43.51 109.069 43.51C108.821 43.51 108.601 43.552 108.409 43.636C108.217 43.716 108.069 43.832 107.965 43.984C107.861 44.132 107.809 44.302 107.809 44.494C107.809 44.71 107.879 44.884 108.019 45.016C108.163 45.148 108.389 45.244 108.697 45.304L110.011 45.55C110.479 45.638 110.845 45.84 111.109 46.156C111.377 46.468 111.511 46.844 111.511 47.284C111.511 47.64 111.407 47.96 111.199 48.244C110.995 48.528 110.713 48.75 110.353 48.91C109.993 49.066 109.591 49.144 109.147 49.144ZM113.037 42.856H113.997V49H113.037V42.856ZM112.989 40.6H114.045V41.692H112.989V40.6ZM116.014 42.856H116.938V43.852C117.146 43.484 117.422 43.202 117.766 43.006C118.114 42.81 118.516 42.712 118.972 42.712C119.412 42.712 119.802 42.806 120.142 42.994C120.482 43.182 120.748 43.46 120.94 43.828C121.136 44.192 121.234 44.63 121.234 45.142V49H120.274V45.238C120.274 44.706 120.136 44.292 119.86 43.996C119.584 43.7 119.204 43.552 118.72 43.552C118.376 43.552 118.072 43.628 117.808 43.78C117.544 43.932 117.338 44.146 117.19 44.422C117.046 44.694 116.974 45.006 116.974 45.358V49H116.014V42.856ZM125.684 51.064C125.232 51.064 124.81 50.988 124.418 50.836C124.03 50.684 123.702 50.47 123.434 50.194C123.17 49.922 122.992 49.608 122.9 49.252H123.884C123.936 49.432 124.048 49.592 124.22 49.732C124.392 49.876 124.604 49.988 124.856 50.068C125.112 50.148 125.388 50.188 125.684 50.188C126.064 50.188 126.404 50.116 126.704 49.972C127.008 49.828 127.244 49.626 127.412 49.366C127.584 49.106 127.67 48.804 127.67 48.46V48.088L127.682 47.596C127.446 47.936 127.14 48.2 126.764 48.388C126.392 48.572 125.97 48.664 125.498 48.664C124.942 48.664 124.45 48.538 124.022 48.286C123.594 48.034 123.262 47.682 123.026 47.23C122.794 46.778 122.678 46.264 122.678 45.688C122.678 45.112 122.794 44.598 123.026 44.146C123.262 43.694 123.594 43.342 124.022 43.09C124.45 42.838 124.942 42.712 125.498 42.712C125.982 42.712 126.414 42.81 126.794 43.006C127.174 43.198 127.482 43.472 127.718 43.828V42.856H128.648L128.63 48.46C128.63 48.968 128.504 49.418 128.252 49.81C128 50.206 127.65 50.514 127.202 50.734C126.758 50.954 126.252 51.064 125.684 51.064ZM125.684 47.818C126.072 47.818 126.416 47.73 126.716 47.554C127.02 47.374 127.256 47.122 127.424 46.798C127.592 46.474 127.678 46.104 127.682 45.688C127.678 45.272 127.592 44.902 127.424 44.578C127.256 44.254 127.02 44.004 126.716 43.828C126.416 43.648 126.072 43.558 125.684 43.558C125.292 43.558 124.944 43.648 124.64 43.828C124.336 44.004 124.1 44.254 123.932 44.578C123.768 44.902 123.686 45.272 123.686 45.688C123.686 46.104 123.768 46.474 123.932 46.798C124.1 47.122 124.336 47.374 124.64 47.554C124.944 47.73 125.292 47.818 125.684 47.818Z" fill="white"/>
<rect x="0.35" y="0.35" width="468.3" height="264.3" rx="14.65" stroke="#595959" stroke-width="0.7"/>
<rect x="242" y="57" width="197" height="54" rx="12" fill="#F2F2F2"/>
<path d="M304.568 81.6H309.956V82.536H305.564V85.434H309.716V86.37H305.564V90H304.568V81.6ZM311.485 83.856H312.445V84.876C312.641 84.528 312.895 84.262 313.207 84.078C313.519 83.89 313.877 83.796 314.281 83.796H314.497V84.798H314.245C313.881 84.798 313.563 84.868 313.291 85.008C313.019 85.148 312.809 85.348 312.661 85.608C312.517 85.864 312.445 86.166 312.445 86.514V90H311.485V83.856ZM318.373 90.144C317.785 90.144 317.251 90.004 316.771 89.724C316.295 89.444 315.921 89.06 315.649 88.572C315.377 88.08 315.241 87.532 315.241 86.928C315.241 86.324 315.377 85.778 315.649 85.29C315.921 84.798 316.295 84.412 316.771 84.132C317.251 83.852 317.785 83.712 318.373 83.712C318.961 83.712 319.493 83.852 319.969 84.132C320.449 84.412 320.825 84.798 321.097 85.29C321.369 85.778 321.505 86.324 321.505 86.928C321.505 87.532 321.369 88.08 321.097 88.572C320.825 89.06 320.449 89.444 319.969 89.724C319.493 90.004 318.961 90.144 318.373 90.144ZM318.373 89.268C318.789 89.268 319.157 89.17 319.477 88.974C319.801 88.774 320.051 88.498 320.227 88.146C320.407 87.79 320.497 87.384 320.497 86.928C320.497 86.468 320.407 86.062 320.227 85.71C320.051 85.354 319.801 85.078 319.477 84.882C319.157 84.682 318.789 84.582 318.373 84.582C317.957 84.582 317.587 84.682 317.263 84.882C316.943 85.078 316.693 85.354 316.513 85.71C316.337 86.062 316.249 86.468 316.249 86.928C316.249 87.384 316.337 87.79 316.513 88.146C316.693 88.498 316.943 88.774 317.263 88.974C317.587 89.17 317.957 89.268 318.373 89.268ZM323.039 83.856H323.963V84.852C324.171 84.484 324.447 84.202 324.791 84.006C325.139 83.81 325.541 83.712 325.997 83.712C326.437 83.712 326.827 83.806 327.167 83.994C327.507 84.182 327.773 84.46 327.965 84.828C328.161 85.192 328.259 85.63 328.259 86.142V90H327.299V86.238C327.299 85.706 327.161 85.292 326.885 84.996C326.609 84.7 326.229 84.552 325.745 84.552C325.401 84.552 325.097 84.628 324.833 84.78C324.569 84.932 324.363 85.146 324.215 85.422C324.071 85.694 323.999 86.006 323.999 86.358V90H323.039V83.856ZM332.146 90C331.854 90 331.588 89.938 331.348 89.814C331.112 89.686 330.926 89.512 330.79 89.292C330.654 89.068 330.586 88.82 330.586 88.548L330.58 84.708H329.5L329.506 83.856H330.172C330.324 83.856 330.446 83.808 330.538 83.712C330.634 83.616 330.682 83.494 330.682 83.346V82.356H331.546V83.856H333.208L333.202 84.708H331.54L331.546 88.488C331.546 88.676 331.608 88.834 331.732 88.962C331.86 89.086 332.018 89.148 332.206 89.148H333.202V90H332.146ZM337.233 90.144C336.653 90.144 336.129 90.006 335.661 89.73C335.193 89.454 334.825 89.07 334.557 88.578C334.289 88.086 334.155 87.532 334.155 86.916C334.155 86.316 334.291 85.772 334.563 85.284C334.835 84.792 335.205 84.408 335.673 84.132C336.145 83.852 336.665 83.712 337.233 83.712C337.817 83.712 338.335 83.848 338.787 84.12C339.239 84.388 339.591 84.766 339.843 85.254C340.095 85.742 340.221 86.3 340.221 86.928V87.144H335.133C335.165 87.576 335.273 87.952 335.457 88.272C335.641 88.592 335.885 88.84 336.189 89.016C336.493 89.188 336.841 89.274 337.233 89.274C337.605 89.274 337.935 89.202 338.223 89.058C338.511 88.914 338.747 88.708 338.931 88.44H339.999C339.771 88.972 339.415 89.39 338.931 89.694C338.447 89.994 337.881 90.144 337.233 90.144ZM339.219 86.382C339.159 86.018 339.037 85.7 338.853 85.428C338.673 85.156 338.443 84.946 338.163 84.798C337.887 84.65 337.577 84.576 337.233 84.576C336.869 84.576 336.541 84.65 336.249 84.798C335.961 84.946 335.723 85.156 335.535 85.428C335.347 85.7 335.223 86.018 335.163 86.382H339.219ZM341.754 83.856H342.678V84.852C342.886 84.484 343.162 84.202 343.506 84.006C343.854 83.81 344.256 83.712 344.712 83.712C345.152 83.712 345.542 83.806 345.882 83.994C346.222 84.182 346.488 84.46 346.68 84.828C346.876 85.192 346.974 85.63 346.974 86.142V90H346.014V86.238C346.014 85.706 345.876 85.292 345.6 84.996C345.324 84.7 344.944 84.552 344.46 84.552C344.116 84.552 343.812 84.628 343.548 84.78C343.284 84.932 343.078 85.146 342.93 85.422C342.786 85.694 342.714 86.006 342.714 86.358V90H341.754V83.856ZM353.543 88.956C353.311 89.332 353.001 89.624 352.613 89.832C352.225 90.04 351.781 90.144 351.281 90.144C350.709 90.144 350.199 90.01 349.751 89.742C349.307 89.47 348.959 89.09 348.707 88.602C348.459 88.114 348.335 87.556 348.335 86.928C348.335 86.3 348.459 85.742 348.707 85.254C348.959 84.766 349.307 84.388 349.751 84.12C350.199 83.848 350.709 83.712 351.281 83.712C351.781 83.712 352.225 83.816 352.613 84.024C353.001 84.232 353.311 84.524 353.543 84.9V81.6H354.503V90H353.543V88.956ZM351.431 89.274C351.843 89.274 352.209 89.176 352.529 88.98C352.849 88.78 353.097 88.504 353.273 88.152C353.453 87.796 353.543 87.388 353.543 86.928C353.543 86.468 353.453 86.062 353.273 85.71C353.097 85.354 352.849 85.078 352.529 84.882C352.209 84.682 351.843 84.582 351.431 84.582C351.023 84.582 350.661 84.682 350.345 84.882C350.029 85.078 349.783 85.354 349.607 85.71C349.431 86.062 349.343 86.468 349.343 86.928C349.343 87.388 349.431 87.796 349.607 88.152C349.783 88.504 350.029 88.78 350.345 88.98C350.661 89.176 351.023 89.274 351.431 89.274ZM362.223 81.6H363.297L366.525 90H365.469L364.659 87.768H360.945L360.189 90H359.109L362.223 81.6ZM364.335 86.904L362.901 82.998L362.757 82.488L362.613 82.998L361.251 86.904H364.335ZM367.92 81.6H371.316C371.852 81.6 372.322 81.7 372.726 81.9C373.134 82.1 373.448 82.384 373.668 82.752C373.892 83.12 374.004 83.548 374.004 84.036C374.004 84.524 373.89 84.954 373.662 85.326C373.438 85.694 373.12 85.98 372.708 86.184C372.296 86.384 371.816 86.484 371.268 86.484H368.916V90H367.92V81.6ZM371.316 85.554C371.644 85.554 371.93 85.492 372.174 85.368C372.422 85.244 372.612 85.068 372.744 84.84C372.88 84.612 372.948 84.344 372.948 84.036C372.948 83.732 372.88 83.466 372.744 83.238C372.612 83.01 372.422 82.836 372.174 82.716C371.93 82.592 371.644 82.53 371.316 82.53H368.916V85.554H371.316ZM375.431 81.6H376.427V90H375.431V81.6Z" fill="black"/>
<path d="M207 84L210.5 86.0207V81.9793L207 84ZM242 84V83.65H210.15V84V84.35H242V84Z" fill="black"/>
<defs>
<radialGradient id="paint0_radial_3509_23" cx="0" cy="0" r="1" gradientUnits="userSpaceOnUse" gradientTransform="translate(10.4515 96.3767) scale(191.063 92.528)">
<stop stop-color="#EB4857"/>
<stop offset="0.5" stop-color="#C611E0"/>
<stop offset="1" stop-color="#7F52FF"/>
</radialGradient>
<radialGradient id="paint1_radial_3509_23" cx="0" cy="0" r="1" gradientUnits="userSpaceOnUse" gradientTransform="translate(10.4515 135.377) scale(191.063 92.528)">
<stop stop-color="#EB4857"/>
<stop offset="0.5" stop-color="#C611E0"/>
<stop offset="1" stop-color="#7F52FF"/>
</radialGradient>
<radialGradient id="paint2_radial_3509_23" cx="0" cy="0" r="1" gradientUnits="userSpaceOnUse" gradientTransform="translate(11.4515 213.377) scale(191.063 92.528)">
<stop stop-color="#EB4857"/>
<stop offset="0.5" stop-color="#C611E0"/>
<stop offset="1" stop-color="#7F52FF"/>
</radialGradient>
<radialGradient id="paint3_radial_3509_23" cx="0" cy="0" r="1" gradientUnits="userSpaceOnUse" gradientTransform="translate(11.4515 252.377) scale(191.063 92.528)">
<stop stop-color="#EB4857"/>
<stop offset="0.5" stop-color="#C611E0"/>
<stop offset="1" stop-color="#7F52FF"/>
</radialGradient>
<radialGradient id="paint4_radial_3509_23" cx="0" cy="0" r="1" gradientUnits="userSpaceOnUse" gradientTransform="translate(10.4515 57.3767) scale(191.063 92.528)">
<stop stop-color="#EB4857"/>
<stop offset="0.5" stop-color="#C611E0"/>
<stop offset="1" stop-color="#7F52FF"/>
</radialGradient>
</defs>
</svg>
