<svg width="146" height="64" viewBox="0 0 146 64" fill="none" xmlns="http://www.w3.org/2000/svg">
<path d="M14.1772 15.0371H24.1035L38.1223 49.4699H27.6308L18.7672 26.6069L12.9109 41.6108H19.8752L22.6563 49.4699H0L14.1772 15.0371ZM49.8123 22.1818C50.8298 22.1818 51.9377 22.274 53.0457 22.5506V14.023H61.8188V47.9488C59.8064 48.8707 55.4651 50 51.1237 50C43.2551 50 36.4943 45.4366 36.4943 36.3329C36.4943 27.2292 43.0064 22.2049 49.8123 22.2049V22.1818ZM50.9202 42.6248C51.7342 42.6248 52.39 42.4635 53.0457 42.2561V29.7644C52.39 29.5109 51.7342 29.3956 50.875 29.3956C48.0034 29.3956 45.3353 31.5621 45.3353 36.1255C45.3353 40.6889 48.0486 42.6018 50.9202 42.6018V42.6248ZM77.4431 22.1818C84.7465 22.1818 90.9645 27.2061 90.9645 36.0563C90.9645 44.9065 84.7691 49.9309 77.4431 49.9309C70.1171 49.9309 63.8764 44.9065 63.8764 36.0563C63.8764 27.2061 70.0266 22.1818 77.4431 22.1818ZM77.4431 42.4866C79.9529 42.4866 82.2819 40.4353 82.2819 36.0563C82.2819 31.6773 79.9529 29.6261 77.4431 29.6261C74.9333 29.6261 72.6495 31.6773 72.6495 36.0563C72.6495 40.4353 74.8202 42.4866 77.4431 42.4866ZM93.0674 14.023H101.886V22.5506C102.948 22.3431 104.056 22.1818 105.164 22.1818C112.015 22.1818 118.369 26.7452 118.369 35.6876C118.369 45.137 111.608 49.9309 103.604 49.9309C100.167 49.9309 95.7807 49.2164 93.0674 47.9257V14V14.023ZM103.808 42.5787C106.838 42.5787 109.596 40.3662 109.596 35.8028C109.596 31.5391 106.883 29.5339 103.943 29.5339C103.129 29.5339 102.474 29.6261 101.886 29.9027V42.233C102.383 42.4405 103.039 42.6018 103.808 42.6018V42.5787ZM133.338 22.1818C139.94 22.1818 146 26.4917 146 35.1805C146 36.356 145.955 37.4853 145.797 38.6146H129.358C130.263 41.6569 132.886 43.0858 136.164 43.0858C138.832 43.0858 141.297 42.4174 144.078 41.1959V48.041C141.5 49.3777 138.425 49.9309 135.26 49.9309C126.894 49.9309 120.382 44.7913 120.382 36.0563C120.382 27.3214 126.283 22.1818 133.338 22.1818ZM137.77 33.0141C137.317 30.0871 135.395 28.9117 133.428 28.9117C131.461 28.9117 129.856 30.1562 129.2 33.0141H137.77Z" fill="#EB1000"/>
</svg>
