<svg width="260" height="64" viewBox="0 0 260 64" fill="none" xmlns="http://www.w3.org/2000/svg">
<path d="M30.0278 42.9963L16.1352 15.211C15.8617 14.6094 15.5882 14.5 15.26 14.5C14.9866 14.5 14.6583 14.6094 14.3302 15.1563C12.3611 18.274 11.486 21.8839 11.486 25.6578C11.486 30.9086 14.1661 35.8312 18.1042 43.762C18.5418 44.6372 18.8699 44.8013 19.6356 44.8013H29.262C29.973 44.8013 30.3559 44.5278 30.3559 43.9809C30.3559 43.7073 30.3013 43.5433 30.0278 42.9963ZM9.84515 29.8694C8.75123 28.2286 8.42309 28.1191 8.14961 28.1191C7.87614 28.1191 7.71205 28.2286 7.21979 29.213L0.273477 43.1057C0.0546954 43.5433 0 43.7073 0 43.9262C0 44.3637 0.382868 44.8013 1.2033 44.8013H10.9938C11.6501 44.8013 12.1424 44.2543 12.4158 43.215C12.744 41.9024 12.8534 40.7538 12.8534 39.3864C12.8534 35.5578 11.1578 31.8385 9.84515 29.8694Z" fill="white"/>
<path d="M141.025 25.2105C141.025 29.1121 142.79 32.1776 149.942 33.571C154.123 34.5 155.052 35.1502 155.052 36.5436C155.052 37.937 154.123 38.773 151.151 38.773C147.713 38.773 143.626 37.5654 140.932 35.9862V42.303C143.068 43.3249 145.855 44.5324 151.151 44.5324C158.582 44.5324 161.462 41.1883 161.462 36.3578M161.462 36.4507C161.462 31.806 159.047 29.6694 152.079 28.1832C148.27 27.3471 147.342 26.511 147.342 25.3034C147.342 23.8172 148.735 23.1669 151.244 23.1669C154.309 23.1669 157.281 24.0959 160.161 25.3964V19.3582C158.118 18.3364 155.052 17.5933 151.429 17.5933C144.555 17.5933 141.025 20.5658 141.025 25.3964" fill="white"/>
<path d="M236.148 17.7795V44.2543H241.815V24.0963L244.137 29.3913L252.126 44.2543H259.186V17.7795H253.613V34.872L251.476 29.8557L245.066 17.7795H236.148Z" fill="white"/>
<path d="M200.291 17.7795H194.16V44.2543H200.291V17.7795Z" fill="white"/>
<path d="M187.1 36.3585C187.1 31.7137 184.685 29.5772 177.718 28.0908C173.909 27.2548 172.981 26.4188 172.981 25.2111C172.981 23.7249 174.374 23.0746 176.881 23.0746C179.947 23.0746 182.92 24.0035 185.799 25.3041V19.266C183.756 18.2441 180.69 17.501 177.068 17.501C170.194 17.501 166.663 20.4735 166.663 25.3041C166.663 29.2056 168.428 32.2711 175.581 33.6645C179.762 34.5934 180.69 35.2437 180.69 36.6371C180.69 38.0305 179.762 38.8666 176.789 38.8666C173.352 38.8666 169.264 37.659 166.57 36.0798V42.3965C168.707 43.4183 171.494 44.626 176.789 44.626C184.127 44.626 187.1 41.2818 187.1 36.3585Z" fill="white"/>
<path d="M93.2773 17.7795V44.2543H105.911L107.861 38.4949H99.4076V17.7795H93.2773Z" fill="white"/>
<path d="M68.2891 17.7795V23.4461H75.0703V44.2543H81.2942V23.4461H88.6329V17.7795H68.2891Z" fill="white"/>
<path d="M59.2783 17.7795H51.1965L42 44.2543H49.0599L50.3604 39.7954C51.9396 40.2598 53.6117 40.5385 55.2838 40.5385C56.9559 40.5385 58.628 40.2598 60.2072 39.7954L61.5077 44.2543H68.5676C68.4747 44.2543 59.2783 17.7795 59.2783 17.7795ZM55.1909 34.9649C53.9833 34.9649 52.8685 34.7791 51.8467 34.5004L55.1909 22.9816L58.5351 34.5004C57.5132 34.7791 56.3986 34.9649 55.1909 34.9649Z" fill="white"/>
<path d="M127.74 17.7795H119.658L110.369 44.2543H117.429L118.73 39.7954C120.308 40.2598 121.98 40.5385 123.653 40.5385C125.325 40.5385 126.997 40.2598 128.576 39.7954L129.876 44.2543H136.937L127.74 17.7795ZM123.653 34.9649C122.445 34.9649 121.33 34.7791 120.308 34.5004L123.653 22.9816L126.997 34.5004C125.975 34.7791 124.86 34.9649 123.653 34.9649Z" fill="white"/>
<path d="M222.493 17.7795H214.412L205.215 44.2543H212.275L213.575 39.7954C215.155 40.2598 216.827 40.5385 218.499 40.5385C220.171 40.5385 221.843 40.2598 223.422 39.7954L224.723 44.2543H231.782L222.493 17.7795ZM218.499 34.9649C217.292 34.9649 216.177 34.7791 215.155 34.5004L218.499 22.9816L221.843 34.5004C220.821 34.7791 219.614 34.9649 218.499 34.9649Z" fill="white"/>
</svg>
