<svg width="108" height="64" viewBox="0 0 108 64" fill="none" xmlns="http://www.w3.org/2000/svg">
<path d="M30.3617 23.2443C30.3342 24.3139 30.4661 25.3815 30.7533 26.4122C31.0695 27.2932 31.4502 28.1499 31.8922 28.975C32.0506 29.219 32.1369 29.5028 32.1415 29.7936C32.1196 30.012 32.0472 30.2222 31.9297 30.4077C31.8123 30.593 31.6532 30.7485 31.4651 30.8615L29.2227 32.3564C28.9522 32.5513 28.6303 32.6627 28.2972 32.6768C27.8918 32.6489 27.5112 32.4713 27.2294 32.1785C26.7498 31.6631 26.3207 31.1029 25.948 30.5055C25.5921 29.9004 25.2361 29.2242 24.8446 28.4054C22.0682 31.6801 18.5799 33.3174 14.3799 33.3174C11.3899 33.3174 9.00514 32.4632 7.26095 30.7546C5.51688 29.0461 4.62695 26.7681 4.62695 23.9206C4.62695 20.8951 5.69481 18.439 7.86608 16.5881C10.0374 14.7373 12.9205 13.8118 16.5867 13.8118C17.8493 13.8221 19.1098 13.9172 20.3597 14.0965C21.6767 14.2745 23.0293 14.5592 24.453 14.8797V12.2812C24.453 9.57605 23.8836 7.68955 22.7801 6.58612C21.6411 5.4827 19.719 4.94878 16.9782 4.94878C15.6829 4.94874 14.3923 5.10409 13.1341 5.41151C11.8255 5.72325 10.5409 6.12767 9.28982 6.62172C8.88503 6.80285 8.46893 6.95742 8.04402 7.08444C7.8598 7.14518 7.66826 7.18109 7.47455 7.19123C6.97616 7.19123 6.72702 6.83528 6.72702 6.0878V4.34368C6.68885 3.9131 6.77536 3.48063 6.97616 3.09787C7.24473 2.77348 7.58621 2.51733 7.97283 2.35039C9.40045 1.644 10.9056 1.10645 12.4578 0.748649C14.2714 0.283271 16.138 0.0559304 18.0104 0.0723563C22.2462 0.0723563 25.3429 1.0334 27.3362 2.9555C29.2939 4.8776 30.2905 7.79633 30.2905 11.7117V23.2443H30.3617ZM15.9104 28.6546C17.1591 28.6409 18.3973 28.4245 19.5766 28.0139C20.8831 27.5623 22.0486 26.7769 22.9581 25.7359C23.5317 25.08 23.946 24.3004 24.1683 23.4579C24.4128 22.444 24.5324 21.404 24.5242 20.3611V18.8662C23.4448 18.6035 22.3516 18.4014 21.2496 18.2611C20.1398 18.1202 19.0223 18.0489 17.9037 18.0475C15.5188 18.0475 13.7748 18.5102 12.6002 19.4713C11.4256 20.4323 10.856 21.7849 10.856 23.5646C10.856 25.2376 11.2832 26.4834 12.173 27.3377C13.0272 28.2275 14.273 28.6546 15.9104 28.6546ZM44.4926 32.4988C44.0135 32.548 43.5329 32.4215 43.1401 32.1428C42.7675 31.758 42.5088 31.2776 42.3926 30.7546L34.0279 3.24026C33.8658 2.77983 33.7582 2.30197 33.7076 1.81648C33.6903 1.69871 33.7002 1.57857 33.7364 1.4652C33.7727 1.35184 33.8345 1.24828 33.9169 1.16242C33.9993 1.07655 34.1003 1.01067 34.212 0.969804C34.3238 0.928937 34.4435 0.914167 34.5619 0.926621H38.0501C38.7263 0.926621 39.1891 1.0334 39.4382 1.28256C39.723 1.49614 39.9366 1.99446 40.1502 2.67074L46.13 26.2342L51.6828 2.67074C51.8607 1.95886 52.0743 1.49614 52.359 1.28256C52.7861 1.02113 53.283 0.896897 53.7828 0.926621H56.6303C57.3066 0.926621 57.7694 1.0334 58.0541 1.28256C58.4264 1.65809 58.6642 2.14612 58.7304 2.67074L64.3543 26.519L70.5126 2.67074C70.6246 2.15417 70.8704 1.67581 71.2235 1.28256C71.6372 1.02054 72.124 0.895957 72.612 0.926621H75.9228C76.0428 0.910347 76.1663 0.922154 76.2817 0.961119C76.3971 1.00008 76.5011 1.06516 76.588 1.15127C76.6737 1.23739 76.7388 1.34221 76.7777 1.45759C76.8165 1.57297 76.8291 1.69579 76.8119 1.81648C76.8039 2.00793 76.78 2.19838 76.7411 2.38599C76.6851 2.68959 76.6017 2.98744 76.492 3.27585L67.9139 30.7903C67.7001 31.5022 67.451 31.9649 67.1664 32.1785C66.7642 32.4361 66.291 32.5605 65.8137 32.5344H62.7526C62.0763 32.5344 61.6135 32.4276 61.3287 32.1785C60.9571 31.7882 60.7202 31.2894 60.6525 30.7546L55.1354 7.79634L49.6539 30.7191C49.5706 31.249 49.3357 31.7435 48.9776 32.1428C48.5575 32.4205 48.0551 32.5461 47.5538 32.4988H44.4926ZM90.2311 33.4598C88.3854 33.4618 86.5454 33.2468 84.7501 32.8192C82.9707 32.392 81.5821 31.9294 80.6564 31.3954C80.1982 31.1794 79.8142 30.8326 79.5536 30.3988C79.4142 30.0846 79.3422 29.7454 79.3399 29.4021V27.5868C79.3399 26.8393 79.6245 26.4834 80.1582 26.4834C80.3764 26.4841 80.5924 26.5201 80.7993 26.5902C81.013 26.6614 81.333 26.8038 81.6884 26.9461C82.9455 27.4991 84.2587 27.9166 85.6038 28.192C86.998 28.4749 88.4174 28.618 89.8402 28.619C92.0825 28.619 93.8264 28.2275 95.0367 27.4444C95.6161 27.0945 96.0927 26.5972 96.4184 26.0033C96.743 25.4094 96.9052 24.7398 96.8881 24.0629C96.8995 23.6047 96.8218 23.1485 96.6561 22.7209C96.4915 22.2932 96.2435 21.9025 95.927 21.5713C95.2859 20.8951 94.0756 20.2899 92.3316 19.7205L87.1706 18.1187C84.5718 17.3001 82.6495 16.0898 81.4747 14.4881C80.3296 13.0109 79.7033 11.1964 79.6953 9.32689C79.6667 7.94871 79.9982 6.58685 80.6564 5.37592C81.2918 4.23084 82.1661 3.23552 83.2198 2.45718C84.3284 1.61752 85.5832 0.99002 86.9215 0.606271C88.3786 0.186432 89.8894 -0.0174384 91.4059 0.0011675C92.2036 -0.0046283 93.0002 0.0429371 93.791 0.143545C94.6093 0.250328 95.3567 0.392706 96.1041 0.535083C96.8161 0.713054 97.4927 0.891026 98.1338 1.10459C98.6526 1.26526 99.1543 1.48 99.6286 1.7453C100.048 1.95661 100.413 2.26099 100.696 2.63515C100.928 2.98151 101.04 3.39382 101.016 3.80977V5.48269C101.016 6.23017 100.731 6.62172 100.198 6.62172C99.7235 6.56783 99.2641 6.4228 98.8458 6.19459C96.6938 5.24377 94.3624 4.77018 92.0116 4.80641C89.982 4.80641 88.3809 5.12676 87.2769 5.80305C86.174 6.47935 85.6038 7.51158 85.6038 8.97095C85.5946 9.44359 85.6849 9.91299 85.8689 10.3485C86.0529 10.7839 86.326 11.1757 86.6723 11.4981C87.3843 12.1745 88.7008 12.8507 90.5877 13.4558L95.6413 15.0576C98.2047 15.8762 100.056 17.0153 101.159 18.4747C102.246 19.9065 102.822 21.6607 102.797 23.4579C102.815 24.8876 102.497 26.3017 101.871 27.5868C101.239 28.8051 100.353 29.8733 99.2721 30.7191C98.0972 31.6336 96.7555 32.3106 95.3213 32.7124C93.6733 33.2194 91.9568 33.4715 90.2311 33.4598Z" fill="white"/>
<path d="M96.9583 50.759C85.2477 59.4084 68.2332 64.0001 53.6041 64.0001C33.1018 64.0001 14.6282 56.4184 0.675276 43.8181C-0.428129 42.8214 0.568538 41.4688 1.88554 42.2519C16.9776 51.0081 35.5934 56.3117 54.8499 56.3117C68.728 56.2382 82.4557 53.4321 95.2498 48.0538C97.2074 47.164 98.8805 49.3351 96.9583 50.759ZM101.835 45.2062C100.34 43.2842 91.939 44.2807 88.131 44.7435C86.9916 44.8859 86.8134 43.8892 87.8453 43.1418C94.5378 38.4432 105.536 39.7959 106.818 41.362C108.099 42.9638 106.462 53.9625 100.197 59.2304C99.236 60.0491 98.3103 59.622 98.7377 58.5541C100.162 55.0303 103.33 47.0928 101.835 45.2062Z" fill="white"/>
</svg>
