<svg width="160" height="64" viewBox="0 0 160 64" fill="none" xmlns="http://www.w3.org/2000/svg">
<g clip-path="url(#clip0_202_2456)">
<path d="M0 65.7326H160V-1.72968H0V65.7326Z" fill="#000099"/>
<path d="M44.7638 30.4584C44.7638 26.2763 40.9307 20.2626 33.524 20.2626C26.8152 20.2626 22.2841 26.0138 22.2841 31.938C22.2841 38.9957 27.1642 44.0489 35.5285 44.0489H51.386C47.6365 49.8866 41.1037 53.6332 33.6105 53.6332C21.762 53.6332 12.1777 43.9624 12.1777 32.1111C12.1777 20.2626 21.762 10.5918 33.6105 10.5918C45.4618 10.5918 55.1326 20.2626 55.1326 32.1111C55.1326 34.4646 54.6971 36.7287 54.0857 38.8198H30.1263V36.4663L38.5771 36.2067C42.8458 36.0336 44.7638 33.8589 44.7638 30.4584Z" fill="white"/>
<path d="M48.8062 53.662V52.1911H48.2812V51.894H49.6888V52.1911H49.1638V53.662H48.8062ZM49.9137 53.662V51.894H50.4473L50.7703 53.0996L51.0876 51.894H51.6241V53.662H51.2924V52.2689L50.9405 53.662H50.5944L50.2483 52.2689V53.662H49.9137Z" fill="white"/>
<path d="M73.3035 21.2721C73.3035 20.0463 72.1787 18.2811 70.0068 18.2811C68.0398 18.2811 66.713 19.9684 66.713 21.7076C66.713 23.7756 68.1436 25.2581 70.5952 25.2581H75.2475C74.6861 26.128 73.914 26.842 73.0028 27.3336C72.0916 27.8252 71.071 28.0786 70.0357 28.0702C68.3648 28.0664 66.7638 27.3992 65.5847 26.2152C64.4056 25.0313 63.745 23.4275 63.7481 21.7566C63.7481 18.2811 66.5573 15.4459 70.0357 15.4459C71.0325 15.4481 72.0147 15.6859 72.9021 16.1399C73.7896 16.5938 74.5571 17.2511 75.1423 18.0581C75.7274 18.8651 76.1135 19.799 76.2692 20.7835C76.4248 21.7681 76.3455 22.7756 76.0378 23.7237H69.0118V23.0343L71.4922 22.9594C72.744 22.9074 73.3035 22.2671 73.3035 21.2721Z" fill="white"/>
<path d="M81.5843 19.3541L83.9869 15.8296H87.3066L83.2197 21.5288L87.6383 27.6867H84.1138L81.4805 23.8506L78.8241 27.6867H75.5015L79.8451 21.6817L75.6284 15.8267H79.1558L81.5843 19.3541ZM91.2927 18.1543C92.1608 16.3141 93.7212 15.4979 95.3046 15.4979C98.1658 15.4979 100.773 17.9235 100.773 21.7567C100.773 25.5927 98.1658 28.0155 95.3046 28.0155C93.7183 28.0155 92.1608 27.1992 91.2927 25.362C91.2407 25.2581 91.1657 25.2841 91.1657 25.385V32.5668H88.0998V15.8296H91.1657V18.1283C91.1657 18.2321 91.2407 18.2552 91.2927 18.1543ZM94.4624 25.4889C96.2506 25.4889 97.8081 23.9314 97.8081 21.7596C97.8081 19.5848 96.2506 18.0274 94.4624 18.0274C92.6973 18.0274 91.1138 19.5848 91.1138 21.7596C91.1138 23.9314 92.703 25.4889 94.4624 25.4889ZM111.324 21.2721C111.324 20.0463 110.199 18.2812 108.027 18.2812C106.063 18.2812 104.733 19.9684 104.733 21.7076C104.733 23.7756 106.164 25.2581 108.615 25.2581H113.268C112.706 26.1281 111.934 26.842 111.023 27.3336C110.112 27.8253 109.091 28.0787 108.056 28.0703C106.385 28.0664 104.784 27.3992 103.605 26.2153C102.426 25.0313 101.765 23.4276 101.768 21.7567C101.768 18.2812 104.58 15.446 108.056 15.446C109.053 15.4482 110.035 15.686 110.922 16.1399C111.81 16.5939 112.577 17.2511 113.162 18.0581C113.748 18.8651 114.134 19.799 114.289 20.7836C114.445 21.7682 114.366 22.7756 114.058 23.7237H107.035V23.0344L109.515 22.9594C110.767 22.9075 111.324 22.2672 111.324 21.2721ZM124.842 25.3591C123.971 27.1992 122.414 28.0183 120.83 28.0183C117.969 28.0183 115.362 25.5898 115.362 21.7596C115.362 17.9235 117.969 15.4979 120.83 15.4979C122.414 15.4979 123.974 16.3141 124.839 18.1543C124.891 18.2552 124.969 18.2321 124.969 18.1283V10.6927H128.035V27.6838H124.969V25.385C124.969 25.2841 124.891 25.2581 124.842 25.3591ZM121.672 18.0274C119.884 18.0274 118.327 19.5848 118.327 21.7596C118.327 23.9314 119.884 25.4917 121.672 25.4917C123.437 25.4917 125.018 23.9343 125.018 21.7596C125.018 19.5877 123.437 18.0274 121.672 18.0274ZM129.976 12.38C129.976 11.408 130.795 10.5918 131.764 10.5918C132.736 10.5918 133.552 11.408 133.552 12.38C133.552 13.3491 132.736 14.1682 131.764 14.1682C131.292 14.1623 130.84 13.9719 130.506 13.6379C130.172 13.3038 129.982 12.8524 129.976 12.38ZM133.299 27.6867H130.233V15.8296H133.299V27.6867ZM144.311 25.3591C143.442 27.1992 141.882 28.0183 140.302 28.0183C137.438 28.0183 134.83 25.5898 134.83 21.7596C134.83 17.9235 137.438 15.4979 140.299 15.4979C141.885 15.4979 143.442 16.3141 144.311 18.1543C144.363 18.2552 144.44 18.2321 144.44 18.1283V15.8296H147.506V27.6838H144.44V25.385C144.44 25.2841 144.363 25.2581 144.311 25.3591ZM141.144 18.0274C139.356 18.0274 137.795 19.5848 137.795 21.7596C137.795 23.9314 139.353 25.4917 141.141 25.4917C142.906 25.4917 144.489 23.9343 144.489 21.7596C144.489 19.5877 142.906 18.0274 141.144 18.0274ZM74.3161 46.365C74.3161 46.2611 74.2411 46.2352 74.1891 46.3361C73.321 48.1763 71.7866 48.9954 70.2291 48.9954C67.391 48.9954 64.8125 46.5928 64.8125 42.7856C64.8125 38.9784 67.391 36.5759 70.2291 36.5759C71.7866 36.5759 73.321 37.395 74.1891 39.2351C74.2411 39.3361 74.3161 39.3101 74.3161 39.2063V36.9075H77.3849V48.0753C77.3849 51.372 75.1063 53.9274 71.1751 53.9274C68.9773 53.9274 67.0593 53.1602 65.6547 51.8565L67.4948 49.8635C68.7206 50.8355 69.6926 51.346 71.1232 51.346C73.3729 51.346 74.3161 49.7597 74.3161 47.7926V46.365ZM71.0713 39.1082C69.309 39.1082 67.7746 40.6397 67.7746 42.7856C67.7746 44.9344 69.309 46.4659 71.0713 46.4659C72.8105 46.4659 74.368 44.9344 74.368 42.7856C74.368 40.6397 72.8105 39.1082 71.0713 39.1082ZM82.6457 36.9104V39.4889C82.6457 39.5409 82.6976 39.5668 82.7236 39.4889C83.1332 37.369 84.0503 36.5759 85.6367 36.5759H85.9193V39.7975H84.5378C83.286 39.7975 82.6457 40.7667 82.6457 42.1482V48.7675H79.5798V36.9104H82.6457ZM92.4319 36.5268C95.8815 36.5268 98.7196 39.362 98.7196 42.8375C98.7173 44.5065 98.0549 46.1069 96.8768 47.2892C95.6988 48.4716 94.1009 49.1399 92.4319 49.1482C90.7554 49.1498 89.1466 48.4862 87.9587 47.3031C86.7708 46.1201 86.1006 44.5141 86.0953 42.8375C86.0953 39.362 88.9334 36.5268 92.4319 36.5268ZM92.406 39.3101C90.5687 39.3101 89.0603 40.8445 89.0603 42.8375C89.0603 44.8305 90.5687 46.365 92.406 46.365C94.2461 46.365 95.7546 44.8305 95.7546 42.8375C95.7546 40.8445 94.2461 39.3101 92.4089 39.3101M105.082 49.1482C102.091 49.1482 100.176 47.3341 100.176 44.6777V36.9104H103.242V44.4469C103.242 45.6237 104.006 46.3909 105.157 46.3909C106.204 46.3909 106.997 45.5977 106.997 44.4729V36.9104H110.063V44.6777C110.063 47.3341 107.995 49.1482 105.082 49.1482ZM115.379 39.2351C116.247 37.395 117.805 36.5759 119.388 36.5759C122.252 36.5759 124.859 39.0044 124.859 42.8375C124.859 46.6707 122.252 49.0963 119.391 49.0963C117.805 49.0963 116.247 48.2801 115.379 46.4428C115.327 46.339 115.249 46.3649 115.249 46.4659V53.6476H112.183V36.9104H115.249V39.2092C115.249 39.313 115.327 39.3361 115.379 39.238M118.546 46.5697C120.334 46.5697 121.891 45.0122 121.891 42.8375C121.891 40.6657 120.334 39.1082 118.546 39.1082C116.784 39.1082 115.2 40.6657 115.2 42.8375C115.2 45.0122 116.784 46.5697 118.546 46.5697Z" fill="white"/>
<path d="M127.117 38.6785V37.2075H126.592V36.9075H127.999V37.2046H127.474V38.6756L127.117 38.6785ZM128.224 38.6785V36.9075H128.761L129.081 38.1131L129.398 36.9075H129.935V38.6756H129.603V37.2825L129.251 38.6756H128.905L128.559 37.2825V38.6756L128.224 38.6785Z" fill="white"/>
</g>
<defs>
<clipPath id="clip0_202_2456">
<rect width="160" height="64" fill="white"/>
</clipPath>
</defs>
</svg>
