<svg fill="none" height="103" viewBox="0 0 320 103" width="320" xmlns="http://www.w3.org/2000/svg" xmlns:xlink="http://www.w3.org/1999/xlink"><clipPath id="a"><path d="m0 .706543h320v101.587h-320z"/></clipPath><g clip-path="url(#a)"><path d="m41.3388 47.2696v-10.7078h36.7464c.3751 1.8861.5933 4.1345.5933 6.5659 0 8.0298-2.2545 17.9757-9.5043 25.0494-7.0545 7.1709-16.0727 10.9954-28.0268 10.9954-22.1474.0037-40.765564-17.5911-40.765564-39.2008s18.618164-39.200704 40.765564-39.200704c12.2488 0 20.9723 4.683474 27.5368 10.804804l-7.7397 7.5519c-4.7043-4.3026-11.0737-7.649-19.7933-7.649-16.1684 0-28.8115 12.7171-28.8115 28.493s12.6431 28.493 28.8115 28.493c10.4842 0 16.4632-4.112 20.2833-7.8394 3.1158-3.0364 5.1636-7.3949 5.9598-13.3557z" fill="#4285f4"/><path d="m134.678 53.9312c0 14.5322-11.659 25.2437-25.967 25.2437-14.3085 0-25.9678-10.7078-25.9678-25.2437 0-14.6293 11.6593-25.2437 25.9678-25.2437 14.308 0 25.967 10.6144 25.967 25.2437zm-11.365 0c0-9.0831-6.759-15.2979-14.599-15.2979-7.839 0-14.6024 6.2148-14.6024 15.2979 0 8.986 6.7594 15.2978 14.6024 15.2978 7.836 0 14.599-6.3118 14.599-15.2978z" fill="#ea4335"/><path d="m191.33 53.9312c0 14.5322-11.659 25.2437-25.968 25.2437-14.308 0-25.967-10.7078-25.967-25.2437 0-14.6293 11.659-25.2437 25.967-25.2437 14.309 0 25.968 10.6144 25.968 25.2437zm-11.365 0c0-9.0831-6.759-15.2979-14.599-15.2979-7.839 0-14.603 6.2148-14.603 15.2979 0 8.986 6.76 15.2978 14.603 15.2978 7.836 0 14.599-6.3118 14.599-15.2978z" fill="#fbbc05"/><path d="m245.627 30.2204v45.3221c0 18.6443-11.269 26.2935-24.597 26.2935-12.544 0-20.088-8.2244-22.932-14.9172l9.898-4.0149c1.765 4.112 6.075 8.9897 13.034 8.9897 8.524 0 13.818-5.1653 13.818-14.8198v-3.634h-.391c-2.549 3.0588-7.448 5.7367-13.623 5.7367-12.934 0-24.792-10.9953-24.792-25.1466 0-14.2483 11.858-25.337 24.792-25.337 6.175 0 11.074 2.6778 13.623 5.6433h.391v-4.1158zm-9.995 23.8095c0-8.8926-6.074-15.3949-13.818-15.3949-7.839 0-14.404 6.5023-14.404 15.3949 0 8.7956 6.565 15.2045 14.404 15.2045 7.74-.0037 13.818-6.4089 13.818-15.2045z" fill="#4285f4"/><path d="m264.88 3.69531v73.94959h-11.368v-73.94959z" fill="#34a853"/><path d="m308.779 62.2475 8.819 5.7367c-2.844 4.112-9.704 11.1858-21.558 11.1858-14.699 0-25.673-11.0925-25.673-25.2437 0-15.014 11.074-25.2437 24.402-25.2437 13.424 0 19.992 10.4239 22.147 16.0635l1.176 2.8683-34.592 13.9608c2.645 5.0682 6.764 7.6489 12.544 7.6489 5.776.0038 9.795-2.7675 12.735-6.9766zm-27.147-9.0831 23.128-9.3707c-1.275-3.1559-5.095-5.3557-9.604-5.3557-5.78.0037-13.815 4.9748-13.524 14.7264z" fill="#ea4335"/></g></svg>