<svg width="159" height="64" viewBox="0 0 159 64" fill="none" xmlns="http://www.w3.org/2000/svg">
<path d="M81.6251 34.5171C81.6251 42.304 88.0761 48 96.2718 48C104.467 48 110.925 42.304 110.925 34.5171V16.6267H102.99V33.5948C102.99 37.7982 100.077 40.6285 96.2504 40.6285C92.4235 40.6285 89.5112 37.8123 89.5112 33.5948V16.6267H81.576L81.6251 34.5171ZM132.127 23.7869H141.596V47.4093H149.531V23.7869H159V16.6126H132.127L132.127 23.7869ZM126.999 16.6126H119.064V47.4085H126.999V16.6126ZM49.5669 23.7869H59.0357V47.4093H66.9711V23.7869H76.4328V16.6126H49.5669V23.7869ZM7.93532 16.6126H0V47.4085H7.93532V16.6126ZM45.3881 29.476C45.3881 21.6888 38.9371 16 30.7347 16C22.532 16 16.0812 21.6888 16.0812 29.476V47.4085H24.0165V30.4404C24.0165 26.237 26.929 23.4067 30.7559 23.4067C34.5828 23.4067 37.4953 26.2229 37.4953 30.4404V47.4085H45.4306L45.3814 29.476H45.3881Z" fill="white"/>
</svg>
