<svg width="107" height="64" viewBox="0 0 107 64" fill="none" xmlns="http://www.w3.org/2000/svg">
<path d="M4.59872 21.4716L25.0198 51.5251H28.7648V12.3614H24.223V42.1426L4.45075 13.0989L3.94989 12.3614H1.80989L1.77574 12.316V12.3614H0.0569149V51.5251H4.59872V21.4716ZM58.6793 35.8574C65.5887 31.6823 68.2979 28.0972 68.2979 23.0486C68.2979 16.1167 63.5967 11.6353 56.3457 11.6353C53.6599 11.6354 51.0324 12.4156 48.7844 13.8804C46.5364 15.3452 44.7653 17.4313 43.6879 19.8833L43.0049 21.4036L47.1142 23.2869L47.8085 21.8233C48.5124 20.1492 49.6951 18.7186 51.2092 17.7099C52.7233 16.7012 54.5018 16.1589 56.323 16.1507C60.8762 16.1507 63.665 18.7374 63.665 23.0827C63.665 25.8736 62.447 28.3468 56.414 32.0454C45.6457 38.6256 43.2667 41.564 42.9821 48.6094V51.5592H68.1727V47.0211H47.6833C48.0931 43.4133 49.6867 41.3144 58.6793 35.8574ZM93.9096 26.0551C90.5069 26.1688 87.229 27.3611 84.5528 29.4587C85.2585 21.0178 88.9921 16.0713 94.7974 16.0713C96.0739 16.0442 97.343 16.2721 98.5297 16.7417C99.7164 17.2113 100.797 17.9131 101.707 18.8055L103.005 19.94L105.953 16.4797L104.655 15.3452C101.961 12.8968 98.432 11.5623 94.7861 11.6126C85.6 11.6126 79.8971 19.6337 79.8971 32.5446C79.8971 47.0551 87.1139 52.2285 93.864 52.2285C102.447 52.2512 107 45.4668 107 38.7617C107 29.3793 99.9539 26.0551 93.9096 26.0551ZM102.447 38.7617C102.447 43.2431 99.51 47.7699 93.8982 47.7699C90.0849 47.7699 85.3951 44.5365 84.5642 35.4603C86.2147 33.4862 89.7776 30.5251 93.9437 30.5251C101.582 30.5365 102.447 36.2885 102.447 38.7617ZM0 56.6305H28.8217V60H0V56.6305ZM0.102447 4H28.8217V7.36953H0.102447V4Z" fill="white"/>
</svg>
