<svg width="204" height="64" viewBox="0 0 204 64" fill="none" xmlns="http://www.w3.org/2000/svg">
<g clip-path="url(#clip0_202_2656)">
<path d="M68.4473 38.5295C68.4473 36.939 70.4985 35.1813 70.7549 35.3486C72.2079 36.6043 75.0283 37.8598 77.4213 37.8598C79.558 37.8598 80.5837 37.2739 80.5837 36.102C80.5837 34.7627 78.7888 34.7627 76.5667 34.2605C72.8062 33.5072 69.0457 32.0004 69.0457 27.4803C69.0457 22.9602 72.4643 20.1979 78.6179 20.1979C84.5152 20.1979 87.0792 22.2068 87.0792 24.3832C87.0792 26.3085 84.7716 27.8989 84.6006 27.7315C83.1477 26.3922 80.7546 25.3877 78.6179 25.3877C76.5667 25.3877 75.6266 25.9736 75.6266 27.0618C75.6266 28.3174 77.4213 28.2337 79.8145 28.7359C84.2587 29.6567 87.592 31.4982 87.592 35.5998C87.592 40.3709 84.2587 43.0496 77.4213 43.0496C70.8405 43.0496 68.4473 40.8733 68.4473 38.5295Z" fill="white"/>
<path d="M89.9004 39.6175V23.7133C89.9004 21.6207 90.926 20.5326 92.8062 20.5326H93.8319C95.883 20.5326 96.9086 21.6207 96.9086 23.7133V28.7356H104.088V23.7133C104.088 21.6207 105.113 20.5326 106.994 20.5326H108.019C109.985 20.5326 111.011 21.6207 111.011 23.7133V39.6175C111.011 41.7101 109.985 42.7982 108.019 42.7982H106.994C105.113 42.7982 104.088 41.7101 104.088 39.6175V34.4277H96.9086V39.6175C96.9086 41.7101 95.883 42.7982 93.8319 42.7982H92.8062C90.926 42.7145 89.9004 41.6264 89.9004 39.6175Z" fill="white"/>
<path d="M127.08 34.428C127.08 36.7716 125.285 38.2783 122.892 38.2783C121.182 38.2783 120.071 37.4413 120.071 36.102C120.071 33.8419 123.148 32.9213 125.456 32.9213H126.994V34.428H127.08ZM123.148 20.1143C118.618 20.1143 114.345 22.2069 114.345 24.9693C114.345 28.4012 118.704 28.3174 118.704 28.3174C119.217 26.4758 120.755 25.4715 122.806 25.4715C125.968 25.4715 127.08 26.9782 127.08 29.1545H125.541C116.567 29.1545 113.148 32.6701 113.148 36.6043C113.148 40.4547 116.482 43.0496 120.84 43.0496C123.917 43.0496 126.823 41.9614 127.336 39.8688C127.592 41.4592 129.131 42.8822 131.182 42.8822C132.977 42.8822 133.831 42.2963 133.917 42.0451V28.6523C133.917 23.2114 130.071 20.1143 123.148 20.1143Z" fill="white"/>
<path d="M135.967 39.8687V39.5338C135.967 37.6086 136.651 36.8553 137.848 35.6833L146.394 26.2246H139.3C137.25 26.2246 136.224 25.5549 136.224 23.6298V23.2949C136.224 21.4534 137.25 20.7001 139.3 20.7001H151.865C154.428 20.7001 155.368 22.0393 155.368 23.2949V23.6298C155.368 25.5549 154.6 26.3083 153.488 27.4803L144.77 36.939H152.463C154.514 36.939 155.54 37.6923 155.54 39.6175V39.8687C155.54 41.7101 154.514 42.5472 152.463 42.5472H139.472C136.993 42.5472 135.967 41.2079 135.967 39.8687Z" fill="white"/>
<path d="M171.095 34.428C171.095 36.7716 169.299 38.2783 166.907 38.2783C165.198 38.2783 164.086 37.4413 164.086 36.102C164.086 33.8419 167.164 32.9213 169.471 32.9213H171.009V34.428H171.095ZM167.078 20.1143C162.549 20.1143 158.274 22.2069 158.274 24.9693C158.274 28.4012 162.633 28.3174 162.633 28.3174C163.147 26.4758 164.684 25.4715 166.736 25.4715C169.899 25.4715 171.009 26.9782 171.009 29.1545H169.471C160.497 29.1545 157.078 32.6701 157.078 36.6043C157.078 40.4547 160.411 43.0496 164.77 43.0496C167.847 43.0496 170.753 41.9614 171.265 39.8688C171.523 41.4592 173.06 42.8822 175.112 42.8822C176.907 42.8822 177.761 42.2963 177.847 42.0451V28.6523C177.847 23.2114 174.086 20.1143 167.078 20.1143Z" fill="white"/>
<path d="M180.412 39.6175V23.7972C180.412 21.6208 181.522 20.5326 183.488 20.5326H185.454C187.335 20.5326 187.933 20.9512 188.531 22.3742L192.206 31.1633L195.881 22.3742C196.565 20.8675 197.248 20.5326 198.872 20.5326H200.838C202.889 20.5326 204.001 21.6208 204.001 23.7972V39.6175C204.001 41.7101 203.231 42.7983 201.266 42.7983H200.154C198.274 42.7983 197.42 41.7101 197.42 39.6175V30.2425L195.027 36.6878C194.685 37.5249 194.685 38.3619 192.035 38.3619C189.386 38.3619 189.471 37.6086 189.129 36.6878L186.821 30.5774V39.7012C186.821 41.7938 186.137 42.8821 184.087 42.8821H182.976C181.266 42.7146 180.412 41.6264 180.412 39.6175Z" fill="white"/>
<path d="M0.332031 32.0002C0.332031 47.5694 13.2376 60.1252 29.0491 60.1252C44.9459 60.1252 57.766 47.4857 57.766 32.0002C57.766 16.431 44.8605 3.87511 29.0491 3.87511C13.2376 3.7914 0.332031 16.431 0.332031 32.0002Z" fill="url(#paint0_linear_202_2656)"/>
<path d="M44.4339 42.4635C41.6989 45.3932 36.8273 49.997 36.5709 50.1644C35.8872 50.7504 35.118 51.0851 34.2633 51.0851C33.4086 51.0851 32.554 50.7504 31.8702 50.0807C30.5881 48.7415 30.6737 46.7324 31.9556 45.4769C32.0412 45.3932 36.9128 40.873 39.4768 38.1108C40.6733 36.7715 41.2716 35.0974 41.1862 33.3396C41.1007 31.498 40.1605 29.7403 38.6222 28.4846C36.5709 26.8106 32.6394 26.392 30.1608 28.5683C28.7079 29.9076 26.9132 31.7492 26.8276 31.8329C25.5457 33.1722 23.4944 33.2559 22.1269 32.0003C20.7594 30.7447 20.674 28.7358 21.956 27.3965C22.0415 27.3128 24.0073 25.2202 25.7165 23.7135C30.4173 19.5282 38.1947 19.4445 42.981 23.546C45.8869 25.9735 47.5961 29.3217 47.8526 32.921C48.109 36.4366 46.9125 39.8686 44.4339 42.4635ZM24.3492 42.7146C21.2723 42.7146 18.1954 41.7101 15.8024 39.7012C12.8965 37.2737 11.1871 33.9255 10.9307 30.3262C10.6743 26.8106 11.9563 23.4623 14.3494 20.7838C17.0843 17.8541 21.956 13.2502 22.2125 13.0828C23.5799 11.8272 25.6311 11.9109 26.9132 13.1665C28.1951 14.5058 28.1097 16.5148 26.8276 17.7703C26.7422 17.8541 21.8706 22.3742 19.3066 25.1364C18.11 26.4757 17.5118 28.1499 17.5972 29.9076C17.6826 31.7492 18.6228 33.5069 20.1612 34.7626C22.2125 36.4366 26.1439 36.8552 28.6224 34.6789C30.0754 33.3396 31.8702 31.498 31.9556 31.4143C33.2377 30.075 35.2888 29.9913 36.6563 31.2469C38.0238 32.5025 38.1093 34.5114 36.8273 35.8507C36.7419 35.9344 34.7761 38.0271 33.0667 39.5338C30.6737 41.6264 27.5114 42.7146 24.3492 42.7146Z" fill="white"/>
</g>
<defs>
<linearGradient id="paint0_linear_202_2656" x1="29.0889" y1="60.1073" x2="29.0889" y2="-10.2929" gradientUnits="userSpaceOnUse">
<stop stop-color="#2255FF"/>
<stop offset="1" stop-color="#00AAFF"/>
</linearGradient>
<clipPath id="clip0_202_2656">
<rect width="204" height="64" fill="white"/>
</clipPath>
</defs>
</svg>
