<svg width="28" height="19" viewBox="0 0 28 19" fill="none" xmlns="http://www.w3.org/2000/svg">
<path fill-rule="evenodd" clip-rule="evenodd" d="M25.3807 11.3807C26.6309 10.1305 27.3333 8.43478 27.3333 6.66667C27.3333 4.89855 26.6309 3.20285 25.3807 1.9526C24.1304 0.702351 22.4347 -2.12173e-05 20.6666 4.80213e-10H7.33329C3.65139 4.80213e-10 0.666626 2.98477 0.666626 6.66667C0.666626 10.3486 3.65139 13.3333 7.33329 13.3333V18.6667L12.6666 13.3333H20.6666C22.4347 13.3334 24.1304 12.631 25.3807 11.3807ZM18.6666 6.66667C18.6666 5.5621 19.5621 4.66667 20.6666 4.66667C21.7712 4.66667 22.6666 5.5621 22.6666 6.66667C22.6666 7.77124 21.7712 8.66667 20.6666 8.66667C19.5621 8.66667 18.6666 7.77124 18.6666 6.66667ZM14 4.66667C12.8954 4.66667 12 5.5621 12 6.66667C12 7.77124 12.8954 8.66667 14 8.66667C15.1045 8.66667 16 7.77124 16 6.66667C16 5.5621 15.1045 4.66667 14 4.66667ZM5.33329 6.66667C5.33329 5.5621 6.22872 4.66667 7.33329 4.66667C8.43786 4.66667 9.33329 5.5621 9.33329 6.66667C9.33329 7.77124 8.43786 8.66667 7.33329 8.66667C6.22872 8.66667 5.33329 7.77124 5.33329 6.66667Z" fill="#27282C" fill-opacity="0.4"/>
</svg>
