<svg id="Capa_1" data-name="Capa 1" xmlns="http://www.w3.org/2000/svg" viewBox="0 0 36 36"><defs><style>.cls-1{fill:#a7a9ac;fill-rule:evenodd;}</style></defs><path class="cls-1" d="M17.84,2.8A15.18,15.18,0,0,0,13,32.37c.76.14,1-.33,1-.73s0-1.31,0-2.58C9.84,30,9,27,9,27a4,4,0,0,0-1.69-2.22c-1.38-.94.11-.92.11-.92a3.16,3.16,0,0,1,2.32,1.56,3.23,3.23,0,0,0,4.42,1.26,3.23,3.23,0,0,1,1-2C11.7,24.3,8.16,23,8.16,17.18a5.87,5.87,0,0,1,1.56-4.07,5.42,5.42,0,0,1,.15-4s1.27-.4,4.17,1.56a14.41,14.41,0,0,1,7.6,0c2.89-2,4.17-1.56,4.17-1.56a5.53,5.53,0,0,1,.15,4,5.87,5.87,0,0,1,1.56,4.07c0,5.83-3.55,7.11-6.93,7.49a3.63,3.63,0,0,1,1,2.81c0,2,0,3.66,0,4.16s.27.88,1,.73A15.18,15.18,0,0,0,17.84,2.8Z"/></svg>