<svg id="Capa_1" data-name="Capa 1" xmlns="http://www.w3.org/2000/svg" viewBox="0 0 36 36"><defs><style>.cls-1{fill:#a7a9ac;}</style></defs><circle class="cls-1" cx="13.3" cy="20.06" r="2.13"/><path class="cls-1" d="M33.78,18.34a4.69,4.69,0,0,0-4.61-4.76,4.5,4.5,0,0,0-2.43.72,17.18,17.18,0,0,0-8-2.17l1.74-5,3.6.86a2.09,2.09,0,0,0,0,.35,3.63,3.63,0,1,0,.55-1.88L19.49,5.25l-2.4,6.89a17,17,0,0,0-7.88,2.29l.13-.09a4.54,4.54,0,0,0-2.51-.77,4.7,4.7,0,0,0-4.61,4.77,4.76,4.76,0,0,0,2.32,4.1c.56,4.91,6.42,8.79,13.55,8.79s13.06-3.93,13.55-8.88A4.81,4.81,0,0,0,33.78,18.34Zm-6.1-12a2,2,0,1,1-2,2A2,2,0,0,1,27.68,6.37ZM6.83,15.18a2.9,2.9,0,0,1,1,.2A8.54,8.54,0,0,0,4.6,20.46a3.29,3.29,0,0,1-.78-2.12A3.09,3.09,0,0,1,6.83,15.18ZM18.08,29.63c-6.62,0-12-3.57-12-8s5.38-8,12-8,12,3.57,12,8S24.7,29.63,18.08,29.63Zm13.45-9.35a8.68,8.68,0,0,0-3.27-4.94,2.76,2.76,0,0,1,.91-.16,3.09,3.09,0,0,1,3,3.16A3.32,3.32,0,0,1,31.53,20.28Z"/><circle class="cls-1" cx="22.44" cy="20.06" r="2.13"/><path class="cls-1" d="M22.1,24.79a7.07,7.07,0,0,1-8.3,0,.8.8,0,0,0-1.12.12.81.81,0,0,0,.12,1.13,8.76,8.76,0,0,0,10.18,0,.8.8,0,1,0-.88-1.33Z"/></svg>