<svg width="32" height="32" viewBox="0 0 32 32" fill="none" xmlns="http://www.w3.org/2000/svg">
    <path fill-rule="evenodd" clip-rule="evenodd"
          d="M16 29.3332C23.3638 29.3332 29.3333 23.3636 29.3333 15.9998C29.3333 8.63604 23.3638 2.6665 16 2.6665C8.63619 2.6665 2.66666 8.63604 2.66666 15.9998C2.66666 23.3636 8.63619 29.3332 16 29.3332ZM22.9454 14.8752C24.0129 14.8752 24.8889 15.7588 24.8889 16.8714C24.8889 17.6893 24.4111 18.3929 23.7421 18.7041C23.7738 18.9042 23.7898 19.1066 23.79 19.3094C23.79 22.4016 20.3012 24.8887 16.0001 24.8887C11.6991 24.8887 8.21034 22.3851 8.21034 19.3094C8.20965 19.1066 8.22565 18.9041 8.25815 18.7041C7.5889 18.3929 7.1111 17.7058 7.1111 16.8879C7.1111 15.7914 7.97128 14.8918 9.05455 14.8918C9.55883 14.891 10.0439 15.0903 10.4086 15.448C11.7626 14.4498 13.6265 13.8118 15.6973 13.7462L16.6852 8.96873C16.701 8.87052 16.7487 8.78882 16.8283 8.73971C16.8921 8.69061 16.9877 8.6741 17.0834 8.69061L20.317 9.39418C20.54 8.91963 21.0181 8.59239 21.5596 8.59239C22.3243 8.59239 22.9454 9.23046 22.9454 10.0157C22.9454 10.8014 22.3242 11.4394 21.5596 11.4394C20.8107 11.4394 20.2056 10.8339 20.1735 10.0812L17.2743 9.44329L16.3824 13.73C18.4213 13.8118 20.2534 14.4498 21.5915 15.4316C21.9561 15.0739 22.4412 14.8745 22.9454 14.8752ZM12.9257 16.8714C12.1607 16.8714 11.5396 17.5094 11.5396 18.2947C11.5396 19.0801 12.1608 19.7344 12.9257 19.7184C13.6903 19.7184 14.3115 19.0801 14.3115 18.2947C14.3115 17.5093 13.6902 16.8714 12.9257 16.8714ZM16.0001 23.1216C16.5257 23.1216 18.3418 23.0561 19.2976 22.0743C19.425 21.9271 19.425 21.6979 19.2976 21.5507C19.1542 21.4037 18.9312 21.4037 18.7878 21.5507C18.1984 22.1725 16.9082 22.3851 16.0001 22.3851C15.0921 22.3851 13.8177 22.1726 13.2122 21.5507C13.0688 21.4037 12.8458 21.4037 12.7024 21.5507C12.5593 21.6979 12.5593 21.9271 12.7024 22.0743C13.6425 23.0396 15.4585 23.1216 16.0001 23.1216ZM17.6568 18.3112C17.6568 19.0966 18.2779 19.7345 19.0426 19.7345C19.8074 19.7345 20.4286 19.08 20.4286 18.3112C20.4286 17.5258 19.8074 16.8879 19.0426 16.8879C18.2779 16.8879 17.6568 17.5258 17.6568 18.3112Z"
          fill="#FF4500" fill-opacity="1"/>
</svg>
