<svg id="Capa_1" data-name="Capa 1" xmlns="http://www.w3.org/2000/svg" viewBox="0 0 36 36"><defs><style>.cls-1{fill:#e01e5a;}.cls-2{fill:#36c5f0;}.cls-3{fill:#2eb67d;}.cls-4{fill:#ecb22e;}</style></defs><path class="cls-1" d="M9.9,21.65a3,3,0,1,1-3-3h3Z"/><path class="cls-1" d="M11.42,21.65a3,3,0,0,1,6,0v7.56a3,3,0,1,1-6,0Z"/><path class="cls-2" d="M14.44,9.52a3,3,0,1,1,3-3v3Z"/><path class="cls-2" d="M14.44,11a3,3,0,1,1,0,6H6.88a3,3,0,0,1,0-6Z"/><path class="cls-3" d="M26.57,14.06a3,3,0,1,1,3,3h-3Z"/><path class="cls-3" d="M25.05,14.06a3,3,0,1,1-6,0V6.5a3,3,0,1,1,6,0Z"/><path class="cls-4" d="M22,26.19a3,3,0,1,1-3,3v-3Z"/><path class="cls-4" d="M22,24.67a3,3,0,1,1,0-6h7.56a3,3,0,0,1,0,6Z"/></svg>