<svg id="Capa_1" data-name="Capa 1" xmlns="http://www.w3.org/2000/svg" viewBox="0 0 36 36"><defs><style>.cls-1{fill:#41abe1;fill-rule:evenodd;}</style></defs><g id="Livello_1"><path class="cls-1" d="M34.05,8.61a12.18,12.18,0,0,1-3.57,1,6.24,6.24,0,0,0,2.73-3.44,12.5,12.5,0,0,1-3.95,1.51,6.23,6.23,0,0,0-10.77,4.26,6.64,6.64,0,0,0,.16,1.42A17.63,17.63,0,0,1,5.83,6.83a6.21,6.21,0,0,0,1.92,8.31,6.29,6.29,0,0,1-2.82-.78v.08a6.23,6.23,0,0,0,5,6.1,6.41,6.41,0,0,1-2.81.1A6.23,6.23,0,0,0,12.93,25,12.42,12.42,0,0,1,5.2,27.63a14.56,14.56,0,0,1-1.49-.08,17.66,17.66,0,0,0,9.54,2.79C24.7,30.34,31,20.86,31,12.63c0-.27,0-.54,0-.8A12.57,12.57,0,0,0,34.05,8.6Z"/></g></svg>