<svg width="453" height="46" viewBox="0 0 453 46" fill="none" xmlns="http://www.w3.org/2000/svg">
<rect width="453" height="46" rx="23" fill="black"/>
<path d="M28.2639 33.384C26.1945 33.384 24.3225 32.8827 22.6479 31.88C20.9732 30.8667 19.6559 29.48 18.6959 27.72C17.7465 25.9493 17.2719 23.976 17.2719 21.8C17.2719 19.624 17.7465 17.656 18.6959 15.896C19.6559 14.1253 20.9732 12.7387 22.6479 11.736C24.3225 10.7227 26.1945 10.216 28.2639 10.216C29.8532 10.216 31.3199 10.488 32.6639 11.032C34.0185 11.576 35.1812 12.344 36.1519 13.336C37.1332 14.328 37.8639 15.4853 38.3439 16.808H35.3839C34.9572 15.9547 34.3972 15.2187 33.7039 14.6C33.0105 13.9707 32.2052 13.4907 31.2879 13.16C30.3705 12.8187 29.3892 12.648 28.3439 12.648C26.7865 12.648 25.3732 13.048 24.1039 13.848C22.8345 14.6373 21.8372 15.7307 21.1119 17.128C20.3865 18.5253 20.0239 20.0827 20.0239 21.8C20.0239 23.5173 20.3865 25.0747 21.1119 26.472C21.8372 27.8693 22.8345 28.968 24.1039 29.768C25.3732 30.5573 26.7865 30.952 28.3439 30.952C29.7625 30.952 31.0479 30.664 32.1999 30.088C33.3625 29.5013 34.2799 28.7013 34.9519 27.688C35.6345 26.664 35.9865 25.5227 36.0079 24.264V24.072H30.0879V21.672H38.6959V23.304C38.6959 25.2027 38.2425 26.92 37.3359 28.456C36.4292 29.9813 35.1812 31.1867 33.5919 32.072C32.0025 32.9467 30.2265 33.384 28.2639 33.384ZM49.8969 33.384C48.3502 33.384 46.9529 33.016 45.7049 32.28C44.4569 31.544 43.4755 30.52 42.7609 29.208C42.0462 27.896 41.6889 26.4187 41.6889 24.776C41.6889 23.176 42.0515 21.7253 42.7769 20.424C43.5022 19.112 44.4889 18.088 45.7369 17.352C46.9955 16.6053 48.3822 16.232 49.8969 16.232C51.4542 16.232 52.8355 16.5947 54.0409 17.32C55.2462 18.0347 56.1849 19.0427 56.8569 20.344C57.5289 21.6453 57.8649 23.1333 57.8649 24.808V25.384H44.2329L44.2649 24.728C44.2755 25.9973 44.5155 27.112 44.9849 28.072C45.4649 29.0213 46.1262 29.7573 46.9689 30.28C47.8115 30.8027 48.7875 31.064 49.8969 31.064C50.8889 31.064 51.7689 30.872 52.5369 30.488C53.3049 30.104 53.9342 29.5547 54.4249 28.84H57.2729C56.8675 29.7787 56.3075 30.5893 55.5929 31.272C54.8889 31.944 54.0515 32.4667 53.0809 32.84C52.1102 33.2027 51.0489 33.384 49.8969 33.384ZM44.2329 23.352H55.3049V24.776C55.3049 23.5493 55.0755 22.4667 54.6169 21.528C54.1689 20.5787 53.5342 19.8427 52.7129 19.32C51.8915 18.7973 50.9529 18.536 49.8969 18.536C48.7982 18.536 47.8222 18.792 46.9689 19.304C46.1155 19.816 45.4489 20.536 44.9689 21.464C44.4995 22.392 44.2649 23.4587 44.2649 24.664L44.2329 23.352ZM67.2999 33C66.5212 33 65.8119 32.8347 65.1719 32.504C64.5425 32.1627 64.0465 31.6987 63.6839 31.112C63.3212 30.5147 63.1399 29.8533 63.1399 29.128L63.1239 18.888H60.2439L60.2599 16.616H62.0359C62.4412 16.616 62.7665 16.488 63.0119 16.232C63.2679 15.976 63.3959 15.6507 63.3959 15.256V12.616H65.6999V16.616H70.1319L70.1159 18.888H65.6839L65.6999 28.968C65.6999 29.4693 65.8652 29.8907 66.1959 30.232C66.5372 30.5627 66.9585 30.728 67.4599 30.728H70.1159V33H67.2999ZM88.7526 33.384C87.494 33.384 86.374 33.1867 85.3926 32.792C84.4113 32.3867 83.6326 31.816 83.0566 31.08C82.4806 30.344 82.1606 29.4853 82.0966 28.504H84.6566C84.7206 29.048 84.934 29.5227 85.2966 29.928C85.6593 30.3333 86.134 30.648 86.7206 30.872C87.3073 31.096 87.974 31.208 88.7206 31.208C89.4673 31.208 90.1286 31.0907 90.7046 30.856C91.2913 30.6213 91.7446 30.296 92.0646 29.88C92.3846 29.4533 92.5446 28.968 92.5446 28.424C92.5446 28.04 92.4593 27.6827 92.2886 27.352C92.1286 27.0213 91.894 26.744 91.5846 26.52C91.2753 26.296 90.9126 26.1467 90.4966 26.072L86.9606 25.416C86.0753 25.256 85.3126 24.9733 84.6726 24.568C84.0326 24.152 83.5366 23.64 83.1846 23.032C82.8433 22.424 82.6726 21.7413 82.6726 20.984C82.6726 20.088 82.918 19.2827 83.4086 18.568C83.8993 17.8427 84.5873 17.272 85.4726 16.856C86.3686 16.44 87.3926 16.232 88.5446 16.232C89.7286 16.232 90.7686 16.424 91.6646 16.808C92.5606 17.1813 93.2646 17.7253 93.7766 18.44C94.2993 19.144 94.598 19.9813 94.6726 20.952H92.1126C92.0486 20.4293 91.8566 19.976 91.5366 19.592C91.2166 19.1973 90.7953 18.8933 90.2726 18.68C89.7606 18.4667 89.1846 18.36 88.5446 18.36C87.8833 18.36 87.2966 18.472 86.7846 18.696C86.2726 18.9093 85.878 19.2187 85.6006 19.624C85.3233 20.0187 85.1846 20.472 85.1846 20.984C85.1846 21.5493 85.3713 22.0027 85.7446 22.344C86.118 22.6747 86.7206 22.92 87.5526 23.08L91.0566 23.736C91.8886 23.896 92.6033 24.2 93.2006 24.648C93.8086 25.0853 94.2673 25.6347 94.5766 26.296C94.8966 26.9467 95.0566 27.656 95.0566 28.424C95.0566 29.3733 94.7793 30.2267 94.2246 30.984C93.6806 31.7413 92.9286 32.3333 91.9686 32.76C91.0086 33.176 89.9366 33.384 88.7526 33.384ZM104.362 33C103.584 33 102.874 32.8347 102.234 32.504C101.605 32.1627 101.109 31.6987 100.746 31.112C100.384 30.5147 100.202 29.8533 100.202 29.128L100.186 18.888H97.3064L97.3224 16.616H99.0984C99.5037 16.616 99.829 16.488 100.074 16.232C100.33 15.976 100.458 15.6507 100.458 15.256V12.616H102.762V16.616H107.194L107.178 18.888H102.746L102.762 28.968C102.762 29.4693 102.928 29.8907 103.258 30.232C103.6 30.5627 104.021 30.728 104.522 30.728H107.178V33H104.362ZM116.792 16.232C118.061 16.232 119.155 16.4667 120.072 16.936C121 17.3947 121.709 18.056 122.2 18.92C122.701 19.784 122.952 20.808 122.952 21.992V33H120.424V26.872H121.384C121.384 28.1733 121.128 29.32 120.616 30.312C120.115 31.2933 119.4 32.0507 118.472 32.584C117.544 33.1173 116.467 33.384 115.24 33.384C114.195 33.384 113.251 33.1813 112.408 32.776C111.576 32.36 110.925 31.7947 110.456 31.08C109.987 30.3547 109.752 29.544 109.752 28.648C109.752 27.784 109.976 26.984 110.424 26.248C110.872 25.5013 111.491 24.8933 112.28 24.424C113.069 23.944 113.96 23.6507 114.952 23.544L119.24 23.064C119.603 23.0213 119.891 22.888 120.104 22.664C120.317 22.4293 120.445 22.0613 120.488 21.56L120.584 24.856L115.32 25.432C114.755 25.496 114.248 25.672 113.8 25.96C113.363 26.248 113.021 26.616 112.776 27.064C112.531 27.512 112.408 27.9973 112.408 28.52C112.408 29.0533 112.552 29.528 112.84 29.944C113.128 30.36 113.528 30.6853 114.04 30.92C114.563 31.144 115.16 31.256 115.832 31.256C116.717 31.256 117.507 31.0747 118.2 30.712C118.893 30.3387 119.432 29.8213 119.816 29.16C120.2 28.4987 120.392 27.736 120.392 26.872V21.672C120.392 21.0213 120.243 20.456 119.944 19.976C119.656 19.496 119.24 19.128 118.696 18.872C118.152 18.6053 117.517 18.472 116.792 18.472C116.056 18.472 115.405 18.5893 114.84 18.824C114.285 19.048 113.843 19.352 113.512 19.736C113.181 20.12 112.973 20.5307 112.888 20.968H110.328C110.467 20.0827 110.819 19.2827 111.384 18.568C111.96 17.8427 112.712 17.272 113.64 16.856C114.568 16.44 115.619 16.232 116.792 16.232ZM127.86 16.616H130.42V22.104L129.348 23.704C129.391 22.232 129.657 20.952 130.148 19.864C130.649 18.7653 131.343 17.9227 132.228 17.336C133.113 16.7493 134.143 16.456 135.316 16.456H135.892V19.128H135.22C134.249 19.128 133.401 19.3147 132.676 19.688C131.951 20.0613 131.391 20.5947 130.996 21.288C130.612 21.9707 130.42 22.776 130.42 23.704V33H127.86V16.616ZM143.041 33C142.241 33 141.553 32.8613 140.977 32.584C140.401 32.296 139.958 31.8853 139.649 31.352C139.35 30.8187 139.201 30.184 139.201 29.448V12.52H141.761V16.616H146.193L146.177 18.888H141.745L141.761 29.288C141.761 29.736 141.889 30.088 142.145 30.344C142.401 30.6 142.753 30.728 143.201 30.728H146.177V33H143.041ZM156.928 33.384C155.381 33.384 153.984 33.016 152.736 32.28C151.488 31.544 150.507 30.52 149.792 29.208C149.077 27.896 148.72 26.4187 148.72 24.776C148.72 23.176 149.083 21.7253 149.808 20.424C150.533 19.112 151.52 18.088 152.768 17.352C154.027 16.6053 155.413 16.232 156.928 16.232C158.485 16.232 159.867 16.5947 161.072 17.32C162.277 18.0347 163.216 19.0427 163.888 20.344C164.56 21.6453 164.896 23.1333 164.896 24.808V25.384H151.264L151.296 24.728C151.307 25.9973 151.547 27.112 152.016 28.072C152.496 29.0213 153.157 29.7573 154 30.28C154.843 30.8027 155.819 31.064 156.928 31.064C157.92 31.064 158.8 30.872 159.568 30.488C160.336 30.104 160.965 29.5547 161.456 28.84H164.304C163.899 29.7787 163.339 30.5893 162.624 31.272C161.92 31.944 161.083 32.4667 160.112 32.84C159.141 33.2027 158.08 33.384 156.928 33.384ZM151.264 23.352H162.336V24.776C162.336 23.5493 162.107 22.4667 161.648 21.528C161.2 20.5787 160.565 19.8427 159.744 19.32C158.923 18.7973 157.984 18.536 156.928 18.536C155.829 18.536 154.853 18.792 154 19.304C153.147 19.816 152.48 20.536 152 21.464C151.531 22.392 151.296 23.4587 151.296 24.664L151.264 23.352ZM181.577 10.6H184.137V33H181.577V10.6ZM175.545 33.384C174.02 33.384 172.66 33.0267 171.465 32.312C170.281 31.5867 169.353 30.5733 168.681 29.272C168.02 27.9707 167.689 26.4827 167.689 24.808C167.689 23.1333 168.02 21.6453 168.681 20.344C169.353 19.0427 170.281 18.0347 171.465 17.32C172.66 16.5947 174.02 16.232 175.545 16.232C176.953 16.232 178.196 16.5467 179.273 17.176C180.35 17.7947 181.188 18.6693 181.785 19.8C182.393 20.92 182.708 22.2213 182.729 23.704H181.673V25.912H182.729C182.708 27.3947 182.393 28.7013 181.785 29.832C181.188 30.952 180.35 31.8267 179.273 32.456C178.196 33.0747 176.953 33.384 175.545 33.384ZM175.945 31.064C177.044 31.064 178.02 30.8027 178.873 30.28C179.726 29.7467 180.388 29.0107 180.857 28.072C181.337 27.1227 181.577 26.0347 181.577 24.808C181.577 23.5813 181.337 22.4987 180.857 21.56C180.388 20.6107 179.726 19.8747 178.873 19.352C178.02 18.8187 177.044 18.552 175.945 18.552C174.857 18.552 173.892 18.8187 173.049 19.352C172.206 19.8747 171.55 20.6107 171.081 21.56C170.612 22.4987 170.377 23.5813 170.377 24.808C170.377 26.0347 170.612 27.1227 171.081 28.072C171.55 29.0107 172.206 29.7467 173.049 30.28C173.892 30.8027 174.857 31.064 175.945 31.064ZM196.577 16.616H199.329L203.217 28.392L203.585 29.784L203.921 28.392L207.937 16.616H210.385L214.465 28.392L214.833 29.784L215.169 28.392L218.977 16.616H221.665L216.001 33H213.473L209.473 20.68L209.169 19.544L208.897 20.648L204.721 33H202.225L196.577 16.616ZM224.985 16.616H227.545V33H224.985V16.616ZM224.857 10.6H227.673V13.512H224.857V10.6ZM238.362 33C237.584 33 236.874 32.8347 236.234 32.504C235.605 32.1627 235.109 31.6987 234.746 31.112C234.384 30.5147 234.202 29.8533 234.202 29.128L234.186 18.888H231.306L231.322 16.616H233.098C233.504 16.616 233.829 16.488 234.074 16.232C234.33 15.976 234.458 15.6507 234.458 15.256V12.616H236.762V16.616H241.194L241.178 18.888H236.746L236.762 28.968C236.762 29.4693 236.928 29.8907 237.258 30.232C237.6 30.5627 238.021 30.728 238.522 30.728H241.178V33H238.362ZM245.172 10.6H247.636V15.768V18.68V23.704H246.612C246.612 22.1893 246.874 20.872 247.396 19.752C247.919 18.6213 248.666 17.752 249.636 17.144C250.607 16.536 251.748 16.232 253.06 16.232C254.234 16.232 255.274 16.4827 256.18 16.984C257.087 17.4853 257.796 18.2267 258.308 19.208C258.831 20.1787 259.092 21.3467 259.092 22.712V33H256.532V22.968C256.532 22.0187 256.362 21.208 256.02 20.536C255.69 19.864 255.215 19.352 254.596 19C253.978 18.648 253.242 18.472 252.388 18.472C251.471 18.472 250.66 18.6747 249.956 19.08C249.252 19.4853 248.703 20.056 248.308 20.792C247.924 21.5173 247.732 22.3493 247.732 23.288V33H245.172V10.6ZM273.791 10.6H276.351V21.096L286.847 10.6H290.335L279.471 21.416L290.527 33H286.943L276.351 21.928V33H273.791V10.6ZM299.447 33.384C297.879 33.384 296.455 33.0107 295.175 32.264C293.906 31.5173 292.908 30.4933 292.183 29.192C291.458 27.88 291.095 26.4187 291.095 24.808C291.095 23.1973 291.458 21.7413 292.183 20.44C292.908 19.128 293.906 18.0987 295.175 17.352C296.455 16.6053 297.879 16.232 299.447 16.232C301.015 16.232 302.434 16.6053 303.703 17.352C304.983 18.0987 305.986 19.128 306.711 20.44C307.436 21.7413 307.799 23.1973 307.799 24.808C307.799 26.4187 307.436 27.88 306.711 29.192C305.986 30.4933 304.983 31.5173 303.703 32.264C302.434 33.0107 301.015 33.384 299.447 33.384ZM299.447 31.048C300.556 31.048 301.538 30.7867 302.391 30.264C303.255 29.7307 303.922 28.9947 304.391 28.056C304.871 27.1067 305.111 26.024 305.111 24.808C305.111 23.5813 304.871 22.4987 304.391 21.56C303.922 20.6107 303.255 19.8747 302.391 19.352C301.538 18.8187 300.556 18.552 299.447 18.552C298.338 18.552 297.351 18.8187 296.487 19.352C295.634 19.8747 294.967 20.6107 294.487 21.56C294.018 22.4987 293.783 23.5813 293.783 24.808C293.783 26.024 294.018 27.1067 294.487 28.056C294.967 28.9947 295.634 29.7307 296.487 30.264C297.351 30.7867 298.338 31.048 299.447 31.048ZM317.237 33C316.459 33 315.749 32.8347 315.109 32.504C314.48 32.1627 313.984 31.6987 313.621 31.112C313.259 30.5147 313.077 29.8533 313.077 29.128L313.061 18.888H310.181L310.197 16.616H311.973C312.379 16.616 312.704 16.488 312.949 16.232C313.205 15.976 313.333 15.6507 313.333 15.256V12.616H315.637V16.616H320.069L320.053 18.888H315.621L315.637 28.968C315.637 29.4693 315.803 29.8907 316.133 30.232C316.475 30.5627 316.896 30.728 317.397 30.728H320.053V33H317.237ZM324.319 10.6H326.879V33H324.319V10.6ZM332.516 16.616H335.076V33H332.516V16.616ZM332.388 10.6H335.204V13.512H332.388V10.6ZM340.454 16.616H342.918V23.704H341.894C341.894 22.1893 342.155 20.872 342.678 19.752C343.2 18.6213 343.947 17.752 344.918 17.144C345.888 16.536 347.03 16.232 348.342 16.232C349.515 16.232 350.555 16.4827 351.462 16.984C352.368 17.4853 353.078 18.2267 353.59 19.208C354.112 20.1787 354.374 21.3467 354.374 22.712V33H351.814V22.968C351.814 22.0187 351.643 21.208 351.302 20.536C350.971 19.864 350.496 19.352 349.878 19C349.259 18.648 348.523 18.472 347.67 18.472C346.752 18.472 345.942 18.6747 345.238 19.08C344.534 19.4853 343.984 20.056 343.59 20.792C343.206 21.5173 343.014 22.3493 343.014 23.288V33H340.454V16.616ZM366.785 10.6H369.409L359.233 33H356.609L366.785 10.6ZM369.342 30.52H372.83C373.534 30.52 374.163 30.3653 374.718 30.056C375.283 29.736 375.721 29.2987 376.03 28.744C376.35 28.1787 376.51 27.544 376.51 26.84V10.6H379.166V27C379.166 28.1413 378.899 29.1707 378.366 30.088C377.833 30.9947 377.097 31.7093 376.158 32.232C375.219 32.744 374.163 33 372.99 33H369.342V30.52ZM391.645 33.384C390.109 33.384 388.749 33.1013 387.565 32.536C386.392 31.9707 385.475 31.1813 384.813 30.168C384.163 29.1547 383.837 27.992 383.837 26.68H386.557C386.557 27.5227 386.771 28.2693 387.197 28.92C387.624 29.5707 388.227 30.0773 389.005 30.44C389.784 30.8027 390.675 30.984 391.677 30.984C392.669 30.984 393.539 30.8187 394.285 30.488C395.043 30.1467 395.624 29.672 396.029 29.064C396.445 28.4453 396.653 27.736 396.653 26.936C396.653 25.9547 396.36 25.1493 395.773 24.52C395.187 23.8907 394.376 23.4427 393.341 23.176L389.645 22.216C388.579 21.9387 387.651 21.5333 386.861 21C386.083 20.456 385.48 19.7947 385.053 19.016C384.627 18.2267 384.413 17.3413 384.413 16.36C384.413 15.1973 384.717 14.152 385.325 13.224C385.944 12.2853 386.797 11.5493 387.885 11.016C388.984 10.4827 390.216 10.216 391.581 10.216C392.989 10.216 394.243 10.4827 395.341 11.016C396.44 11.5387 397.293 12.2693 397.901 13.208C398.509 14.1467 398.813 15.2187 398.813 16.424H396.093C396.093 15.688 395.907 15.032 395.533 14.456C395.16 13.8693 394.632 13.416 393.949 13.096C393.277 12.776 392.499 12.616 391.613 12.616C390.728 12.616 389.944 12.7707 389.261 13.08C388.579 13.3893 388.045 13.8267 387.661 14.392C387.288 14.9573 387.101 15.6133 387.101 16.36C387.101 17.2133 387.379 17.912 387.933 18.456C388.488 19 389.245 19.4 390.205 19.656L393.965 20.632C395.011 20.8987 395.939 21.336 396.749 21.944C397.571 22.552 398.211 23.2827 398.669 24.136C399.128 24.9893 399.357 25.912 399.357 26.904C399.357 28.1093 399.032 29.208 398.381 30.2C397.731 31.1813 396.819 31.96 395.645 32.536C394.472 33.1013 393.139 33.384 391.645 33.384ZM427.557 23.224H412.597V20.84H427.557V14.792L435.381 22.008L427.557 29.352V23.224Z" fill="white"/>
</svg>
