<svg width="48" height="48" viewBox="0 0 48 48" fill="none" xmlns="http://www.w3.org/2000/svg">
<rect x="11.1992" y="11.8027" width="25.6" height="25.5919" fill="white"/>
<path fill-rule="evenodd" clip-rule="evenodd" d="M42.0107 11.2375C42.8699 12.5032 43.4147 13.9556 43.5999 15.474C43.8491 17.767 43.9826 20.0711 44 22.3776V25.6124C43.9826 27.919 43.8491 30.2233 43.5999 32.5164C43.4143 34.0334 42.8695 35.4843 42.0107 36.7488C40.9812 37.8778 39.5312 38.5318 38.0032 38.5563C32.4053 38.9851 24 39 24 39C24 39 13.5991 38.8987 10.3994 38.5711C8.75208 38.5402 7.17708 37.8889 5.98926 36.7474C5.12996 35.4832 4.58514 34.0321 4.40014 32.5149C4.15089 30.2219 4.01734 27.9178 4 25.6113V22.3763C4.01741 20.0703 4.15096 17.7666 4.40014 15.474C4.58589 13.9557 5.13062 12.5035 5.98926 11.2375C7.01777 10.1076 8.46881 9.45457 9.99682 9.43386C15.5938 9 23.99 9 23.99 9H24.0088C24.0088 9 32.4052 9 38.0032 9.43386C39.5312 9.4544 40.9823 10.1075 42.0107 11.2375ZM31.5088 23.9997L19.0049 16.4996V31.4998L31.5088 23.9997Z" fill="#FF0000"/>
</svg>
