<svg width="48" height="48" viewBox="0 0 48 48" fill="none" xmlns="http://www.w3.org/2000/svg">
<path d="M23.4223 15.5766L23.509 17.1337L22.0639 16.943C16.8037 16.2121 12.2082 13.7335 8.30643 9.5706L6.39888 7.50506L5.90755 9.03038C4.86707 12.4306 5.53182 16.0214 7.69948 18.4365C8.85557 19.7712 8.59545 19.9619 6.6012 19.1674C5.90755 18.9132 5.3006 18.7225 5.24279 18.8179C5.04048 19.0403 5.73413 21.9321 6.28327 23.0761C7.03473 24.665 8.56655 26.2221 10.2429 27.1436L11.6591 27.8745L9.98276 27.9063C8.36423 27.9063 8.30643 27.938 8.47984 28.6054C9.05789 30.6709 11.3412 32.8636 13.8846 33.8169L15.6765 34.4842L14.1158 35.5011C11.8036 36.9629 9.08679 37.7891 6.36998 37.8526C5.06938 37.8844 4 38.0115 4 38.1069C4 38.4246 7.52607 40.2042 9.57813 40.9033C15.7343 42.9688 23.0466 42.0791 28.538 38.5518C32.4398 36.0413 36.3416 31.0522 38.1624 26.2221C39.1451 23.6481 40.1278 18.945 40.1278 16.6888C40.1278 15.227 40.2145 15.0363 41.833 13.2886C42.7868 12.2717 43.6827 11.1595 43.8561 10.8417C44.1452 10.2379 44.1163 10.2379 42.6423 10.7781C40.1856 11.7315 39.8387 11.6044 41.0526 10.1744C41.9486 9.15749 43.018 7.31439 43.018 6.77417C43.018 6.67884 42.5844 6.83773 42.0931 7.12373C41.5729 7.4415 40.4168 7.91817 39.5497 8.20416L37.989 8.74438L36.5728 7.69572C35.7924 7.12373 34.6941 6.48818 34.1161 6.29751C32.6421 5.85262 30.3877 5.91618 29.0582 6.42462C25.4454 7.85461 23.1622 11.5408 23.4223 15.5766Z" fill="#55ACEE"/>
</svg>
