<svg width="48" height="48" viewBox="0 0 48 48" fill="none" xmlns="http://www.w3.org/2000/svg">
<path fill-rule="evenodd" clip-rule="evenodd" d="M6.09789 3.00022H41.893C43.5866 2.97999 44.9768 4.33495 45 6.02854V41.9696C44.977 43.6636 43.5871 45.0194 41.893 45.0002H6.09789C4.40607 45.0175 3.01989 43.6614 3 41.9696V6.02854C3.02008 4.33721 4.40654 2.98189 6.09789 3.00022ZM9.22314 38.7887H15.4588V18.7457H9.22314V38.7887ZM12.3427 16.0073C10.8814 16.008 9.56359 15.1284 9.00382 13.7786C8.44405 12.4288 8.75261 10.8747 9.78558 9.84109C10.8185 8.8075 12.3725 8.49802 13.7226 9.05698C15.0728 9.61594 15.9532 10.9332 15.9533 12.3945C15.9538 13.3524 15.5736 14.2713 14.8964 14.9489C14.2193 15.6265 13.3006 16.0072 12.3427 16.0073ZM32.5617 38.7887H38.7907L38.7905 27.7965C38.7905 22.3984 37.625 18.2483 31.3175 18.2483C28.9063 18.1582 26.6412 19.4024 25.4236 21.4856H25.3382V18.7455H19.3668V38.7885H25.5887V28.8753C25.5887 26.2605 26.0833 23.7273 29.3247 23.7273C32.5218 23.7273 32.5617 26.7174 32.5617 29.0417V38.7887Z" fill="#0073B1"/>
</svg>
