<svg width="64" height="64" viewBox="0 0 64 64" fill="none" xmlns="http://www.w3.org/2000/svg">
<path fill-rule="evenodd" clip-rule="evenodd" d="M31.9994 4.23486L33.8744 9.30487C37.4494 18.9649 45.0344 26.5499 54.6944 30.1249L59.7644 31.9999L54.6944 33.8749C45.0344 37.4499 37.4494 45.0399 33.8744 54.6949L31.9994 59.7649L30.1244 54.6949C26.5494 45.0349 18.9594 37.4499 9.30438 33.8749L4.23438 31.9999L9.30438 30.1249C18.9644 26.5499 26.5494 18.9599 30.1244 9.30487L31.9994 4.23486ZM14.9644 31.9999C22.2944 35.7499 28.2494 41.7048 31.9994 49.0349C35.7494 41.7048 41.7044 35.7499 49.0344 31.9999C41.7044 28.2499 35.7494 22.2949 31.9994 14.9649C28.2494 22.2949 22.2944 28.2499 14.9644 31.9999Z" fill="white"/>
<path d="M51.7296 15.5649C51.4846 15.6399 51.2397 15.6849 50.9997 15.6999C49.7397 15.7649 48.5397 14.9849 48.1347 13.7249C47.6547 12.2249 48.4696 10.6249 49.9696 10.1349C51.4696 9.65491 53.0747 10.4749 53.5597 11.9749C54.0447 13.4749 53.2296 15.0799 51.7296 15.5649Z" fill="white"/>
</svg>
