<svg width="64" height="64" viewBox="0 0 64 64" fill="none" xmlns="http://www.w3.org/2000/svg">
<path d="M22.27 36.14C20.77 36.63 19.955 38.23 20.435 39.73C20.835 40.99 22.0349 41.7699 23.2949 41.7049C23.5349 41.6899 23.78 41.645 24.025 41.57C25.525 41.085 26.3399 39.48 25.8549 37.98C25.3749 36.48 23.77 35.655 22.27 36.14Z" fill="white"/>
<path d="M39.97 36.14C38.47 36.63 37.655 38.23 38.135 39.73C38.535 40.99 39.735 41.7699 40.995 41.7049C41.235 41.6899 41.48 41.645 41.725 41.57C43.225 41.085 44.04 39.48 43.555 37.98C43.075 36.48 41.47 35.655 39.97 36.14Z" fill="white"/>
<path fill-rule="evenodd" clip-rule="evenodd" d="M53.79 20.895L49.965 28.545C56.095 33.685 60 41.395 60 50V52H4V50C4 41.395 7.90497 33.685 14.035 28.545L10.21 20.895L13.79 19.105L17.32 26.17C21.59 23.53 26.62 22 32 22C37.38 22 42.41 23.53 46.68 26.17L50.21 19.105L53.79 20.895ZM32 26C19.44 26 9.10502 35.7 8.08502 48H55.915C54.895 35.7 44.56 26 32 26Z" fill="white"/>
</svg>
