<svg width="64" height="64" viewBox="0 0 64 64" fill="none" xmlns="http://www.w3.org/2000/svg">
<path d="M18 40H46C49.31 40 52 37.31 52 34V16C52 12.69 49.31 10 46 10H18C14.69 10 12 12.69 12 16V34C12 37.31 14.69 40 18 40ZM16 16C16 14.895 16.895 14 18 14H46C47.105 14 48 14.895 48 16V34C48 35.105 47.105 36 46 36H18C16.895 36 16 35.105 16 34V16Z" fill="white"/>
<path d="M38.32 48C37.64 45.14 35.07 43 32 43C28.93 43 26.36 45.14 25.68 48H8V52H26C26.98 54.345 29.3 56 32 56C34.7 56 37.015 54.345 38 52H56V48H38.32ZM34.5 49.5C34.5 50.88 33.38 52 32 52C30.62 52 29.5 50.88 29.5 49.5C29.5 48.935 29.695 48.42 30.015 48C30.47 47.395 31.19 47 32 47C32.81 47 33.53 47.395 33.985 48C34.305 48.42 34.5 48.935 34.5 49.5Z" fill="white"/>
</svg>
