<svg width="64" height="64" viewBox="0 0 64 64" fill="none" xmlns="http://www.w3.org/2000/svg">
<path fill-rule="evenodd" clip-rule="evenodd" d="M6 14.0698C6 9.65982 9.59 6.06982 14 6.06982C18.41 6.06982 22 9.65982 22 14.0698C22 18.4798 18.41 22.0698 14 22.0698C9.59 22.0698 6 18.4798 6 14.0698ZM10 14.0698C10 16.2748 11.795 18.0698 14 18.0698C16.205 18.0698 18 16.2748 18 14.0698C18 11.8648 16.205 10.0698 14 10.0698C11.795 10.0698 10 11.8648 10 14.0698Z" fill="white"/>
<path fill-rule="evenodd" clip-rule="evenodd" d="M57.9102 14.0698C57.9102 18.4798 54.3202 22.0698 49.9102 22.0698C45.5002 22.0698 41.9102 18.4798 41.9102 14.0698C41.9102 9.65982 45.5002 6.06982 49.9102 6.06982C54.3202 6.06982 57.9102 9.65982 57.9102 14.0698ZM53.9102 14.0698C53.9102 11.8648 52.1152 10.0698 49.9102 10.0698C47.7052 10.0698 45.9102 11.8648 45.9102 14.0698C45.9102 16.2748 47.7052 18.0698 49.9102 18.0698C52.1152 18.0698 53.9102 16.2748 53.9102 14.0698Z" fill="white"/>
<path fill-rule="evenodd" clip-rule="evenodd" d="M14 41.9999C9.59 41.9999 6 45.5899 6 49.9999C6 54.4099 9.59 57.9999 14 57.9999C18.41 57.9999 22 54.4099 22 49.9999C22 45.5899 18.41 41.9999 14 41.9999ZM14 53.9999C11.795 53.9999 10 52.2049 10 49.9999C10 47.7949 11.795 45.9999 14 45.9999C16.205 45.9999 18 47.7949 18 49.9999C18 52.2049 16.205 53.9999 14 53.9999Z" fill="white"/>
<path fill-rule="evenodd" clip-rule="evenodd" d="M41.9102 49.9999C41.9102 45.5899 45.5002 41.9999 49.9102 41.9999C54.3252 41.9999 57.9102 45.5899 57.9102 49.9999C57.9102 54.4099 54.3202 57.9999 49.9102 57.9999C45.5002 57.9999 41.9102 54.4099 41.9102 49.9999ZM45.9102 49.9999C45.9102 52.2049 47.7052 53.9999 49.9102 53.9999C52.1202 53.9999 53.9102 52.2049 53.9102 49.9999C53.9102 47.7949 52.1152 45.9999 49.9102 45.9999C47.7052 45.9999 45.9102 47.7949 45.9102 49.9999Z" fill="white"/>
<path d="M29.2802 12.2599C28.2802 11.6299 26.9601 11.935 26.3301 12.935C25.7001 13.935 26.0052 15.2549 27.0052 15.8849C28.0052 16.5149 29.3251 16.2099 29.9551 15.2099C30.5801 14.2099 30.2802 12.8849 29.2802 12.2599Z" fill="white"/>
<path d="M34.3301 12.935C34.9601 11.935 36.2802 11.6299 37.2802 12.2599C38.2802 12.8849 38.5801 14.2099 37.9551 15.2099C37.3251 16.2099 36.0052 16.5149 35.0052 15.8849C34.0052 15.2549 33.7001 13.935 34.3301 12.935Z" fill="white"/>
<path d="M28.9999 48.1899C27.9999 47.5599 26.6799 47.8649 26.0499 48.8649C25.4199 49.8649 25.7248 51.1849 26.7248 51.8149C27.7248 52.4449 29.0449 52.14 29.6749 51.14C30.2999 50.135 29.9999 48.8149 28.9999 48.1899Z" fill="white"/>
<path d="M34.3301 48.8649C34.9601 47.8649 36.2802 47.5599 37.2802 48.1899C38.2802 48.8149 38.5801 50.135 37.9551 51.14C37.3251 52.14 36.0052 52.4449 35.0052 51.8149C34.0052 51.1849 33.7001 49.8649 34.3301 48.8649Z" fill="white"/>
<path d="M12.84 29.66C13.835 30.3 15.1601 30.0099 15.8001 29.0199C16.4401 28.0299 16.15 26.7 15.16 26.06C14.165 25.42 12.84 25.7099 12.2 26.6999C11.56 27.6899 11.85 29.02 12.84 29.66Z" fill="white"/>
<path d="M15.8001 37.2999C15.1601 38.2899 13.835 38.5798 12.84 37.9398C11.85 37.2998 11.56 35.9699 12.2 34.9799C12.84 33.9899 14.165 33.6999 15.16 34.3399C16.15 34.9799 16.4401 36.3099 15.8001 37.2999Z" fill="white"/>
<path d="M51.0698 26.06C50.0748 25.42 48.7499 25.7099 48.1099 26.6999C47.4699 27.6949 47.7599 29.02 48.7499 29.66C49.7449 30.3 51.0699 30.0099 51.7099 29.0199C52.3498 28.0249 52.0648 26.7 51.0698 26.06Z" fill="white"/>
<path d="M48.1099 34.9799C48.7499 33.9899 50.0748 33.6999 51.0698 34.3399C52.0648 34.9799 52.3498 36.3049 51.7099 37.2999C51.0699 38.2899 49.7449 38.5798 48.7499 37.9398C47.7599 37.2998 47.4699 35.9749 48.1099 34.9799Z" fill="white"/>
</svg>
