<svg width="96" height="96" viewBox="0 0 96 96" fill="none" xmlns="http://www.w3.org/2000/svg">
<path d="M20.2128 72.7122C22.0278 73.2147 23.8428 73.4547 25.6203 73.4547C32.2728 73.4547 38.3553 70.0347 41.9778 63.9672L59.1903 35.0997C63.0378 28.6497 69.6828 27.8247 74.2053 29.0697C78.7278 30.3147 84.0078 34.4322 84.0078 41.9397V54.0597C84.0078 61.5672 78.7278 65.6847 74.2053 66.9297C69.6828 68.1747 63.0378 67.3422 59.1903 60.8997L55.9728 55.4997L50.8203 58.5747L54.0378 63.9747C58.6203 71.6622 67.1629 75.0972 75.7954 72.7197C84.4279 70.3422 90.0078 63.0148 90.0078 54.0673V41.9472C90.0078 32.9922 84.4279 25.6722 75.7954 23.2947C67.1629 20.9172 58.6203 24.3447 54.0378 32.0397L36.8253 60.9072C32.9778 67.3573 26.3328 68.1897 21.8103 66.9372C17.2878 65.6922 12.0078 61.5748 12.0078 54.0673V41.9472C12.0078 34.4397 17.2878 30.3222 21.8103 29.0772C26.3328 27.8322 32.9778 28.6647 36.8253 35.1072L40.1403 40.6647L45.2928 37.5897L41.9778 32.0322C37.3953 24.3447 28.8528 20.9097 20.2203 23.2872C11.5878 25.6647 6.00782 32.9847 6.00782 41.9397V54.0597C6.00032 63.0147 11.5803 70.3347 20.2128 72.7122Z" fill="white"/>
</svg>
