<svg width="20" height="20" viewBox="0 0 20 20" fill="none" xmlns="http://www.w3.org/2000/svg">
<path d="M8.5 17.685C4.47505 16.8252 2 14.2843 2 11.04C2 7.82 4.74 5.5 8.5 5.5C11.4387 5.5 13.6353 6.68072 13.9744 8.5H12.5656C12.1802 7.50188 10.6472 6.76 8.58 6.76C5.68 6.76 3.5 8.54 3.5 11.04C3.5 13.4555 5.37 15.3857 8.5 16.1479V17.685Z" fill="#6C707E"/>
<path d="M17.9832 8.5C17.704 4.71769 13.9749 2 8.36 2C6.88 2 5.24 2.26 3.78 2.88C3.26 3.1 3 3.36 3 3.74C3 4.2 3.46 4.58 4.18 4.28C5.46 3.74 7 3.5 8.36 3.5C13.0935 3.5 16.1828 5.59604 16.4769 8.5H17.9832Z" fill="#6C707E"/>
<path d="M8.5 14.0061V12.5962C7.76778 12.1903 7.34 11.6257 7.34 11C7.34 10.0919 8.11767 9.57974 9.28067 9.79635C9.55773 9.45489 9.89779 9.16663 10.2832 8.94929C7.91789 8.02403 5.98 9.1401 5.98 11C5.98 12.3577 6.94971 13.4228 8.5 14.0061Z" fill="#6C707E"/>
<path d="M19.25 12V18.7865L16.3354 17.3292L16.1771 17.25H16H12C11.3096 17.25 10.75 16.6904 10.75 16V12C10.75 11.3096 11.3096 10.75 12 10.75H18C18.6904 10.75 19.25 11.3096 19.25 12Z" stroke="#6C707E" stroke-width="1.5"/>
</svg>
