<svg width="96" height="96" viewBox="0 0 96 96" fill="none" xmlns="http://www.w3.org/2000/svg">
<path d="M40.7624 3.59229C44.4093 -1.19743 51.5907 -1.19743 55.2376 3.59229L56.9985 5.90498L59.5437 4.51164C64.8149 1.62596 71.3754 4.55988 72.7675 10.4255L73.4397 13.2576L76.329 13.0245C82.313 12.5419 87.1183 17.9024 86.0149 23.8296L85.4821 26.6915L88.216 27.659C93.8781 29.6628 96.0972 36.5231 92.6891 41.4871L91.0435 43.8839L93.1492 45.8847C97.5104 50.0284 96.7598 57.2023 91.6362 60.3447L89.1623 61.862L90.2758 64.5501C92.582 70.1174 88.9913 76.3643 83.0382 77.1418L80.1637 77.5172L80.0925 80.4279C79.9449 86.456 74.135 90.6959 68.3817 88.9741L65.6038 88.1427L64.3601 90.7726C61.7843 96.2193 54.7598 97.719 50.2011 93.7956L48 91.9011L45.7989 93.7956C41.2402 97.719 34.2157 96.2193 31.6399 90.7726L30.3962 88.1427L27.6182 88.9741C21.865 90.6959 16.0551 86.456 15.9075 80.4279L15.8363 77.5172L12.9618 77.1418C7.00871 76.3643 3.41802 70.1174 5.7242 64.5501L6.83773 61.862L4.36383 60.3447C-0.759773 57.2023 -1.51043 50.0284 2.85075 45.8847L4.95652 43.8839L3.31091 41.4871C-0.0972485 36.5231 2.12192 29.6628 7.78401 27.659L10.5179 26.6915L9.98514 23.8296C8.88173 17.9024 13.687 12.5419 19.671 13.0245L22.5603 13.2576L23.2325 10.4254C24.6246 4.55988 31.1851 1.62596 36.4563 4.51164L39.0015 5.90498L40.7624 3.59229Z" fill="#27282C"/>
<path fill-rule="evenodd" clip-rule="evenodd" d="M44.8452 50.5227C46.6446 52.1214 49.3554 52.1214 51.1548 50.5227L72 32.0032V60C72 62.2091 70.2091 64 68 64H28C25.7909 64 24 62.2091 24 60V32.0032L44.8452 50.5227ZM26.2548 32L45.8414 49.4013C47.0726 50.4952 48.9274 50.4952 50.1586 49.4013L69.7452 32H26.2548Z" fill="#F4F4F4"/>
</svg>
