<svg width="186" height="48" viewBox="0 0 186 48" fill="none" xmlns="http://www.w3.org/2000/svg">
    <g clip-path="url(#clip0)">
        <path d="M5.81942 23.1222C5.76113 23.0454 5.68414 22.985 5.5959 22.9469C5.50767 22.9087 5.41116 22.8942 5.31572 22.9047C5.22028 22.9151 5.12913 22.9502 5.05107 23.0065C4.97302 23.0628 4.91071 23.1384 4.87016 23.2261L0.0601041 32.9146C0.0162852 33.0029 -0.00440378 33.101 1.51037e-06 33.1996C0.0044068 33.2982 0.0337601 33.3941 0.0852746 33.478C0.136789 33.562 0.208755 33.6313 0.294339 33.6794C0.379923 33.7275 0.476285 33.7527 0.574275 33.7527H7.27203C7.3793 33.7552 7.48499 33.7263 7.57626 33.6695C7.66753 33.6126 7.74046 33.5303 7.7862 33.4325C9.23099 30.4249 8.35539 25.8518 5.81942 23.1222Z" fill="url(#paint0_linear)"/>
        <path d="M9.34737 14.3103C8.14885 16.1682 7.45039 18.308 7.32056 20.5198C7.19072 22.7317 7.63396 24.9396 8.60679 26.9268L11.8358 33.4328C11.8836 33.529 11.957 33.6099 12.0478 33.6664C12.1386 33.723 12.2433 33.7529 12.35 33.753H19.0466C19.1446 33.7529 19.2409 33.7277 19.3265 33.6796C19.4121 33.6315 19.484 33.5622 19.5356 33.4783C19.5871 33.3943 19.6164 33.2984 19.6208 33.1998C19.6252 33.1012 19.6046 33.0031 19.5607 32.9148C19.5607 32.9148 10.5516 14.7608 10.3252 14.3067C10.2804 14.2143 10.2107 14.1364 10.124 14.0821C10.0374 14.0278 9.93724 13.9991 9.83516 13.9995C9.73307 13.9999 9.63316 14.0293 9.54689 14.0842C9.46061 14.1392 9.39146 14.2176 9.34737 14.3103Z" fill="#2684FF"/>
        <path d="M87.8943 22.0785C87.8943 24.4776 88.9991 26.3823 93.3202 27.2232C95.8983 27.7685 96.4383 28.1877 96.4383 29.0534C96.4383 29.8943 95.8971 30.4387 94.0812 30.4387C91.8866 30.3989 89.7358 29.8126 87.8207 28.732V32.6397C89.122 33.2827 90.8404 34 94.0322 34C98.5497 34 100.342 31.9705 100.342 28.9544L87.8943 22.0785ZM100.342 28.9544C100.342 26.11 98.8444 24.7741 94.6216 23.8593C92.2892 23.3398 91.7245 22.8206 91.7245 22.0785C91.7245 21.1395 92.5592 20.7429 94.1059 20.7429C95.9719 20.7429 97.8133 21.3118 99.5564 22.1033V18.3684C97.885 17.602 96.0646 17.2218 94.2286 17.2555C90.0548 17.2555 87.8943 19.0857 87.8943 22.0785" fill="#0052CC"/>
        <path d="M145.932 17.5029V33.7531H149.369V21.3615L150.818 24.6508L155.679 33.7531H160V17.5029H156.563V27.9902L155.261 24.9477L151.358 17.5029H145.932Z" fill="#0052CC"/>
        <path d="M124.07 17.5029H120.314V33.7531H124.07V17.5029Z" fill="#0052CC"/>
        <path d="M115.98 28.9544C115.98 26.11 114.482 24.7741 110.259 23.8593C107.927 23.3398 107.362 22.8206 107.362 22.0785C107.362 21.1395 108.197 20.7429 109.743 20.7429C111.609 20.7429 113.451 21.3118 115.194 22.1033V18.3684C113.522 17.602 111.702 17.2218 109.866 17.2555C105.692 17.2555 103.532 19.0857 103.532 22.0785C103.532 24.4776 104.637 26.3823 108.958 27.2232C111.536 27.7685 112.076 28.1877 112.076 29.0534C112.076 29.8943 111.535 30.4387 109.719 30.4387C107.524 30.3989 105.373 29.8126 103.458 28.732V32.6397C104.759 33.2827 106.478 34 109.67 34C114.187 34 115.98 31.9705 115.98 28.9544Z" fill="#0052CC"/>
        <path d="M58.7131 17.5029V33.7531H66.4341L67.6498 30.2408H62.4939V17.5029H58.7131Z" fill="#0052CC"/>
        <path d="M43.4589 17.5029V21.0149H47.6327V33.7531H51.4135V21.0149H55.882V17.5029H43.4589Z" fill="#0052CC"/>
        <path d="M37.9764 17.5029H33.0215L27.3965 33.7531H31.6921L32.4895 31.0163C34.4535 31.5972 36.5417 31.5972 38.5056 31.0163L39.3031 33.7531H43.5995L37.9764 17.5029ZM35.4988 28.0859C34.7991 28.0858 34.103 27.985 33.4316 27.7863L35.4988 20.6948L37.566 27.7887C36.8945 27.9866 36.1984 28.0866 35.4988 28.0859Z" fill="#0052CC"/>
        <path d="M79.7449 17.5029H74.7902L69.1653 33.7531H73.4618L74.2592 31.0163C76.2231 31.5972 78.3114 31.5972 80.2753 31.0163L81.0727 33.7531H85.3692L79.7449 17.5029ZM77.2675 28.0859C76.5678 28.0858 75.8717 27.985 75.2003 27.7863L77.2675 20.6948L79.3347 27.7887C78.6633 27.9866 77.9671 28.0866 77.2675 28.0859Z" fill="#0052CC"/>
        <path d="M137.607 17.5029H132.652L127.027 33.7531H131.323L132.121 31.0163C134.085 31.5972 136.173 31.5972 138.137 31.0163L138.934 33.7531H143.231L137.607 17.5029ZM135.128 28.0859C134.428 28.0858 133.732 27.985 133.061 27.7863L135.128 20.6948L137.195 27.7887C136.523 27.9866 135.827 28.0866 135.128 28.0859Z" fill="#0052CC"/>
    </g>
    <defs>
        <linearGradient id="paint0_linear" x1="8.45552" y1="24.6174" x2="3.32287" y2="33.4421" gradientUnits="userSpaceOnUse">
            <stop stop-color="#0052CC"/>
            <stop offset="0.923" stop-color="#2684FF"/>
        </linearGradient>
        <clipPath id="clip0">
            <rect y="14" width="160" height="20" fill="white"/>
        </clipPath>
    </defs>
</svg>
