<svg width="186" height="48" viewBox="0 0 186 48" fill="none" xmlns="http://www.w3.org/2000/svg">
    <g clip-path="url(#clip0)">
        <mask id="mask0" mask-type="alpha" maskUnits="userSpaceOnUse" x="0" y="11" width="82" height="28">
            <path d="M76.5276 35.0414C73.298 38.1673 65.5953 37.5028 65.5953 31.3374C65.5953 24.8417 72.2865 24.342 76.4856 24.7344C76.4855 24.7266 76.4855 24.7187 76.4853 24.7109C76.3299 21.312 70.7748 22.1491 68.5573 23.9536C67.8632 22.9391 66.6876 21.1306 66.2054 20.3129C68.7577 18.3082 74.9899 16.847 78.1822 18.6915C81.3747 20.5359 81.9992 23.7625 82 25.4043C82 25.411 82 25.4176 81.9998 25.4241L82 38.1166L81.9998 36.424H76.6753L76.5276 35.0414ZM55.5766 34.8918C49.9101 39.4663 44.1 35.1232 43.3747 29.238C42.4716 21.9082 48.1807 16.0866 55.5303 18.6234V11H61.1323V36.424H55.7402L55.5766 34.8918ZM55.5303 28.7159V23.6256C53.1028 22.4995 49.3537 22.4579 49.013 27.5682C48.6638 32.8046 55.0924 33.3362 55.5303 28.7159ZM34.0275 20.2791C35.667 18.24 37.9991 17.652 41.024 18.5156C40.569 21.065 40.2564 22.7877 40.0859 23.6835C35.7264 22.9098 34.1217 24.2442 34.1024 28.1196V28.2627C34.1024 28.2717 34.1026 28.2804 34.1026 28.2892C34.1026 28.2914 34.1024 28.2937 34.1024 28.2959V36.4484H28.5004V18.4427H33.8923L34.0275 20.2791ZM14.4602 19.8502C12.9315 20.9963 11.7633 22.6204 11.163 24.5087C10.5849 24.0756 9.87308 23.8201 9.10325 23.8201C7.16959 23.8201 5.60203 25.4324 5.60203 27.4212C5.60203 29.4101 7.16959 31.0224 9.10325 31.0224C9.87308 31.0224 10.5849 30.7669 11.163 30.3336C11.7633 32.2221 12.9315 33.846 14.4602 34.9923C12.9573 36.1192 11.1057 36.7842 9.10325 36.7842C4.0757 36.7842 0 32.5923 0 27.4212C0 22.2502 4.0757 18.0583 9.10325 18.0583C11.1057 18.0583 12.9573 18.7233 14.4602 19.8502ZM76.4682 28.5736C74.7959 28.5939 71.0253 27.9767 71.1122 30.8071C71.1991 33.6375 76.4682 33.1447 76.4682 29.8699C76.4682 28.7877 76.4688 28.7918 76.4682 28.5736ZM19.8172 31.0224C17.8835 31.0224 16.316 29.4101 16.316 27.4212C16.316 25.4324 17.8835 23.8201 19.8172 23.8201C21.7509 23.8201 23.3186 25.4324 23.3186 27.4212C23.3186 29.4101 21.7509 31.0224 19.8172 31.0224Z" fill="white"/>
        </mask>
        <g mask="url(#mask0)">
            <path fill-rule="evenodd" clip-rule="evenodd" d="M0 38.1229H82.0125V11H0V38.1229Z" fill="#E0081C"/>
        </g>
    </g>
    <defs>
        <clipPath id="clip0">
            <rect y="11" width="82" height="26" fill="white"/>
        </clipPath>
    </defs>
</svg>
