<svg width="186" height="48" viewBox="0 0 186 48" fill="none" xmlns="http://www.w3.org/2000/svg">
    <path d="M64.333 20.7489C64.4113 19.2366 64.9505 18.0008 65.7932 17.0367V15.752H64.6732C62.4095 15.752 60.493 16.6243 59.379 18.5955H59.3138V15.9689H53.5076V31.987H59.315V25.5207C59.315 22.7761 60.1138 20.6834 63.3363 20.6834C63.6871 20.6858 64.0154 20.706 64.333 20.7489Z" fill="#4A89DC"/>
    <path d="M108.302 20.6905C108.785 19.2748 109.567 18.0139 110.584 17.0021V15.7508H109.466C107.201 15.7508 105.287 16.6231 104.167 18.5931H104.104V15.9689H98.2945V31.987H104.104V25.5207C104.104 22.7761 104.905 20.6834 108.128 20.6834L108.302 20.6905Z" fill="#4A89DC"/>
    <path d="M76.1268 20.0899C75.2308 19.6216 73.984 19.3093 72.992 19.3093C72.3259 19.3093 71.1751 19.5882 71.1751 20.4021C71.1751 21.4962 72.992 21.6511 73.7956 21.8108C76.5025 22.3399 78.5505 23.59 78.5505 26.5527C78.5505 30.7667 74.624 32.5209 70.8231 32.5209C68.4919 32.5209 66.1985 31.8643 64.2169 30.6773L66.323 26.7088C67.5022 27.524 69.4815 28.3332 70.9179 28.3332C71.6527 28.3332 72.7372 27.9911 72.7372 27.1164C72.7372 25.8675 70.9179 25.8019 69.0963 25.3347C67.2794 24.8664 65.4625 23.994 65.4625 21.1208C65.4625 17.1856 69.0963 15.4398 72.6779 15.4398C74.5292 15.4398 76.3816 15.7198 78.0693 16.4694L76.1268 20.0899Z" fill="#4A89DC"/>
    <path d="M128 31.987H122.193V30.2054H122.129C121.107 31.7975 119.092 32.515 117.18 32.515C112.326 32.515 108.914 28.5489 108.914 23.9583C108.914 19.3725 112.265 15.4362 117.115 15.4362C118.997 15.4362 120.979 16.1226 122.191 17.5265V15.9689H127.998L128 31.987ZM114.914 23.9929C114.914 26.0212 116.289 27.5824 118.648 27.5824C121.009 27.5824 122.377 26.0236 122.377 23.9929C122.377 22.0253 121.009 20.3712 118.648 20.3712C116.289 20.3724 114.914 22.0253 114.914 23.9929Z" fill="#4A89DC"/>
    <path d="M97.3784 24.9319H85.1508C85.1508 27.2403 86.3988 28.4881 88.7917 28.4881C90.0361 28.4881 90.9286 28.0841 91.5686 27.0211H97.1556C96.2299 30.8001 92.5582 32.5173 88.8249 32.5173C83.4027 32.5173 79.3493 29.5177 79.3493 23.994C79.3493 18.6551 83.0791 15.4398 88.4089 15.4398C94.0895 15.4398 97.3807 18.8755 97.3807 24.3373L97.3784 24.9319ZM91.9834 21.6511C91.6954 20.1209 90.259 19.1222 88.6969 19.1222C87.0033 19.1222 85.6047 19.9934 85.248 21.6511H91.9834Z" fill="#4A89DC"/>
    <path d="M35.0353 23.714C35.0293 23.5757 35.0199 23.4411 35.0092 23.304C35.0092 23.304 35.0092 23.3028 35.0092 23.3016C35.0092 23.3016 35.0092 23.3005 35.0092 23.2993C34.8788 21.8132 34.3905 20.4224 33.5621 19.1663C33.1923 18.6062 32.7692 18.0973 32.2963 17.6409C31.6053 16.9723 30.8053 16.4194 29.9034 15.982C28.5464 15.3301 27.0471 15.0012 25.4471 15.0012C25.2907 15.0012 25.1271 15.0036 24.9624 15.0095C23.8388 15.0608 22.752 15.2753 21.7304 15.6531C20.7004 16.0273 19.8033 16.5218 19.0696 17.1153C18.9203 17.2345 18.7579 17.3811 18.5837 17.542L18.4581 17.6659L18.2862 17.8494H18.2874L18.208 17.9293L18.1689 17.9722L17.9639 18.1891C17.8121 18.3607 17.6676 18.5323 17.5324 18.7003L17.5313 18.698L17.5265 18.6932C17.2456 19.0364 16.9861 19.3916 16.7953 19.7109C16.6661 19.9159 16.5393 20.1269 16.4184 20.3378L14.7437 23.7426L14.7461 23.745L14.6584 23.9178L14.4735 24.2944C14.1061 25.0416 13.7126 25.7864 13.2729 26.4014C12.2927 27.4823 11.1846 28.0114 9.76 28.0114C9.66045 28.0114 9.55852 28.0066 9.45422 28.0007C8.59615 27.9661 7.86015 27.7623 7.20711 27.3738C7.13719 27.3321 7.06963 27.2892 7.00445 27.2451C6.47111 26.8888 6.06222 26.4311 5.75645 25.8603C5.41156 25.2132 5.25867 24.5518 5.28 23.851C5.28119 23.832 5.28237 23.8153 5.28237 23.7998C5.32859 22.6843 5.7517 21.8167 6.60385 21.0671C6.81126 20.8872 7.02815 20.7346 7.25452 20.5988C7.28652 20.5797 7.31852 20.5618 7.35052 20.5452C7.98341 20.1984 8.704 20.0256 9.53008 20.0256L9.78726 20.0327C11.0993 20.0828 12.1114 20.4951 12.9185 21.2995L15.4501 16.7292C14.8444 16.3216 14.1606 15.9713 13.4068 15.6864C13.3784 15.6757 13.3487 15.6638 13.3191 15.6543C13.229 15.6221 13.1401 15.5887 13.0477 15.5589C12.2465 15.2896 11.4062 15.1239 10.541 15.0489C10.5197 15.0453 10.496 15.0429 10.4747 15.0405C10.3419 15.0322 10.2068 15.0155 10.0741 15.0095C9.92948 15.0036 9.7837 15.0012 9.64148 15H9.5597C7.968 15.006 6.48889 15.3337 5.13659 15.9832C3.62193 16.7173 2.39408 17.7863 1.48385 19.1639C0.576001 20.5416 0.0805939 22.0706 0.00948275 23.7116C0.00355682 23.8522 1.26443e-06 23.9917 1.26443e-06 24.1287C-0.00118392 26.424 0.830816 28.4428 2.48533 30.1374C4.21215 31.9155 6.45808 32.8737 9.15437 32.9869C9.32741 32.994 9.49808 32.9988 9.66874 32.9988C11.1941 32.9988 12.6056 32.7259 13.8714 32.1801C14.1879 32.0442 14.4948 31.8845 14.8089 31.707C14.9796 31.6081 15.1407 31.5032 15.3007 31.3912L15.4193 31.3113L15.6184 31.1743C15.8578 31.0015 16.0818 30.8144 16.2999 30.6153L16.3757 30.5426C16.5037 30.4199 16.6317 30.2959 16.7526 30.1684L17.2065 29.6524L17.3796 29.4343L17.4601 29.3152L17.5407 29.1984C18.2151 28.0591 20.4101 23.913 20.4101 23.913V23.9047L20.5404 23.652L20.6495 23.4542C20.973 22.8619 21.2065 22.4412 21.5159 21.9991L21.5241 21.986C22.2459 20.9337 23.4868 20.1841 24.9493 20.0577C27.4027 19.8456 29.5526 21.4664 29.7505 23.6782C29.9473 25.8901 28.1173 27.8553 25.664 28.0686C25.1532 28.1127 24.6566 28.0781 24.1884 27.9744L24.1766 27.9792C22.3763 27.6026 21.2302 26.2822 20.6649 25.6923L18.304 30.0576C18.304 30.0576 19.0376 30.8012 19.5401 31.1731C20.0439 31.5437 20.6945 31.9084 21.2136 32.1348C22.4735 32.6758 23.8436 33 25.357 33C25.5324 33 25.4969 33 25.6794 32.9929C28.3733 32.8796 30.7745 31.8416 32.5061 30.0636C34.1464 28.3749 35.0364 26.4466 35.0447 24.1645V24.0965C35.0436 23.9702 35.04 23.8427 35.0353 23.714Z" fill="#4A89DC"/>
    <path d="M44.0664 32.5281C42.8421 32.5281 41.7316 32.3851 40.7348 32.099C39.7381 31.813 38.8871 31.3614 38.1819 30.7417C37.4744 30.122 36.9292 29.333 36.5452 28.3761C36.1612 27.4191 35.9692 26.2655 35.9692 24.9212V15.9653H41.5716V24.8497C41.5716 25.8567 41.811 26.5861 42.2886 27.0413C42.7674 27.4978 43.3754 27.7254 44.1126 27.7254C44.8664 27.7254 45.4779 27.5132 45.9496 27.0878C46.419 26.6623 46.656 25.9568 46.656 24.9653V15.9653H52.2584V24.8032C52.2584 26.1952 52.0616 27.3786 51.6693 28.3522C51.277 29.3271 50.7236 30.1231 50.0113 30.7429C49.2954 31.3626 48.4338 31.813 47.4204 32.1002C46.4071 32.3851 45.2895 32.5281 44.0664 32.5281Z" fill="#4A89DC"/>
</svg>
