<svg width="186" height="48" viewBox="0 0 186 48" fill="none" xmlns="http://www.w3.org/2000/svg">
    <path d="M31.705 29.734L32.5168 29.5647C33.233 29.3711 33.424 29.2744 33.424 27.8227V16.4276C33.424 14.976 33.2091 14.855 32.5168 14.6856L31.705 14.5163V13.8389H44.6451L44.8838 18.6534H44.1437C43.5468 17.3227 43.1648 16.6211 42.8067 16.0889C42.0427 14.976 41.5414 14.8792 39.894 14.8792C38.6764 14.8792 38.0795 15.0244 37.7214 15.1211V21.2905H38.366C40.0373 21.2905 40.4193 21.0969 40.7057 20.5647C41.04 19.9598 41.231 19.5002 41.4459 18.726H42.1621V24.9679H41.4459C41.231 24.2179 41.04 23.734 40.7057 23.0324C40.4193 22.4276 40.1089 22.3066 38.366 22.3066H37.7214V26.9518C37.7214 29.105 37.793 29.3469 40.1089 29.3469C42.0189 29.3469 42.4008 29.105 43.1887 27.9195C43.6184 27.2663 44.0721 26.2502 44.6928 24.726H45.4568L45.1226 30.4114H31.7289L31.705 29.734ZM47.4623 20.6614C46.9131 19.3066 46.6505 18.9679 46.0537 18.7744L45.6 18.6292V18.0002H52.6908V18.6292L52.0462 18.7985C51.5448 18.9437 51.3061 19.1856 51.3061 19.7663C51.3061 20.105 51.4254 20.5163 51.6164 21.0485L53.598 26.5647H53.7174L55.6274 21.0485C55.8423 20.4679 55.9377 20.0566 55.9377 19.7179C55.9377 19.1856 55.699 18.9195 55.1976 18.7985L54.553 18.6292V18.0002H58.9221V18.6292L58.4685 18.7744C57.8477 18.9921 57.5851 19.355 57.0121 20.9276L53.3593 30.4114H51.3538L47.4623 20.6614ZM58.373 24.1453C58.373 19.984 61.405 17.6856 64.5326 17.6856C67.7796 17.6856 69.8089 19.3308 69.8805 23.6614H62.0735C62.1451 27.5808 63.6015 28.6453 66.0367 28.6453C67.4931 28.6453 68.6152 28.2098 69.4985 27.7502V28.5485C68.6629 29.4679 66.8723 30.726 64.5087 30.726C60.4023 30.6776 58.373 28.2098 58.373 24.1453ZM62.0735 22.7421L66.1083 22.5244C66.1083 19.6453 65.7263 18.5808 64.3177 18.5808C63.124 18.5808 62.169 19.7421 62.0735 22.7421ZM76.0879 19.5244C76.7564 18.7985 78.1173 17.6131 79.693 17.6131C80.6957 17.6131 81.5313 18.4356 81.5313 19.476C81.5313 20.5163 80.7196 21.3389 79.693 21.3389C78.9529 21.3389 78.2844 20.8792 78.0218 20.226C77.8785 19.9598 77.5681 19.8873 77.3533 19.8873C76.9235 19.8873 76.4222 20.2018 76.1118 20.4921V28.234C76.1118 29.3469 76.2073 29.4679 76.9235 29.5889L77.7114 29.7582V30.4114H70.9071V29.7582L71.5279 29.5889C72.3157 29.3711 72.4112 29.2502 72.4112 28.234V20.8066C72.4112 19.7905 72.2919 19.7179 71.6234 19.2582L70.8355 18.726V18.2421L75.8014 17.6614L76.064 17.855L76.0163 19.5002L76.0879 19.5244ZM82.2476 29.7582L82.8683 29.5889C83.6562 29.3711 83.7517 29.2502 83.7517 28.234V20.8066C83.7517 19.7905 83.6323 19.7179 82.9638 19.2582L82.176 18.726V18.2421L87.1419 17.6614L87.4045 17.8308L87.3567 19.355H87.4522C88.6937 18.4598 90.2456 17.6614 91.9645 17.6614C93.97 17.6614 95.0444 18.7018 95.0444 20.855V28.2098C95.0444 29.2502 95.1399 29.3711 95.9039 29.5647L96.5246 29.734V30.3873H89.9591V29.734L90.5321 29.5889C91.2483 29.3953 91.3199 29.3227 91.3199 28.2098V21.7985C91.3199 20.3469 90.7947 19.8873 89.6964 19.8873C88.8608 19.8873 88.0252 20.0808 87.5 20.2018V28.234C87.5 29.3711 87.5716 29.4195 88.2879 29.6131L88.8608 29.7582V30.4114H82.2953V29.7582H82.2476ZM96.9782 24.2179C96.9782 19.6453 100.177 17.6856 103.353 17.6856C106.767 17.6856 109.751 19.7663 109.751 24.0969C109.751 28.6695 106.6 30.6776 103.353 30.6776C99.9387 30.6776 96.9782 28.5969 96.9782 24.2179ZM105.788 24.3389C105.788 19.5244 104.881 18.605 103.257 18.605C101.777 18.605 100.894 19.6937 100.894 23.8066C100.894 28.6937 101.682 29.7582 103.4 29.7582C104.809 29.7582 105.788 28.9114 105.788 24.3389ZM111.78 27.3873V19.4034H110.3V18.8227C112.139 18.0969 113.547 16.7179 114.216 14.8066H115.553V18.0002H118.68L118.37 19.4034H115.553V27.1453C115.553 28.3308 115.911 28.8147 117.081 28.8147C117.654 28.8147 118.346 28.6937 118.776 28.5969V29.2744C118.203 29.8066 117.033 30.6776 115.051 30.6776C112.926 30.6776 111.78 29.734 111.78 27.3873ZM119.253 24.1453C119.253 19.984 122.285 17.6856 125.413 17.6856C128.66 17.6856 130.689 19.3308 130.761 23.6614H122.978C123.049 27.5808 124.506 28.6453 126.941 28.6453C128.397 28.6453 129.519 28.2098 130.403 27.7502V28.5485C129.567 29.4679 127.776 30.726 125.413 30.726C121.283 30.6776 119.253 28.2098 119.253 24.1453ZM122.954 22.7421L126.989 22.5244C126.989 19.6453 126.607 18.5808 125.198 18.5808C124.004 18.5808 123.049 19.7421 122.954 22.7421Z" fill="black"/>
    <path d="M7.78358 15.7015C7.78358 15.9918 7.75971 16.4757 7.47321 16.7902C7.16284 17.0805 6.68535 17.1047 6.39886 17.1047H3.3429C2.45954 17.1047 1.9343 17.1047 1.57618 17.1531C1.38519 17.1773 1.14644 17.2741 1.02707 17.3224C0.979318 17.3466 0.979318 17.3224 1.00319 17.2982L7.97458 10.1128C7.99845 10.0886 8.02233 10.0886 7.99845 10.137C7.95071 10.2579 7.85521 10.4999 7.83133 10.6934C7.78358 11.0563 7.78358 11.5886 7.78358 12.4837V15.7015ZM14.2775 37.4273C13.4657 36.895 13.036 36.1934 12.8689 35.7579C12.7018 35.3466 12.6063 34.887 12.6063 34.4273C12.6063 32.4192 14.2297 30.7741 16.2352 30.7741C16.8321 30.7741 17.3096 31.2579 17.3096 31.8628C17.3096 32.2741 17.0947 32.6128 16.7604 32.8063C16.6411 32.8789 16.4739 32.9273 16.3546 32.9515C16.2352 32.9757 15.7816 33.024 15.5667 33.2176C15.328 33.4111 15.137 33.7257 15.137 34.0644C15.137 34.4273 15.2802 34.766 15.519 35.0079C15.9487 35.4434 16.5217 35.6853 17.1424 35.6853C18.7659 35.6853 20.079 34.3547 20.079 32.7095C20.079 31.2337 19.1001 29.9273 17.8109 29.3466C17.6199 29.2499 17.3096 29.1773 17.0231 29.1047C16.6649 29.0321 16.3307 28.9837 16.3068 28.9837C15.3041 28.8628 12.7973 28.0644 12.6301 25.8144C12.6301 25.8144 11.89 29.2015 10.4098 30.1208C10.2665 30.1934 10.0755 30.266 9.86067 30.3144C9.6458 30.3628 9.40706 30.387 9.33543 30.387C6.9241 30.5321 4.36951 29.7579 2.60279 27.9192C2.60279 27.9192 1.40906 26.9273 0.788321 24.145C0.645073 23.4676 0.358578 22.2579 0.191456 21.1208C0.119832 20.7095 0.0959571 20.395 0.0720825 20.1047C0.0720825 18.9192 0.788321 18.1208 1.69556 17.9999C1.71943 17.9999 1.79105 17.9999 1.8388 17.9999C2.38792 17.9999 6.56598 17.9999 6.56598 17.9999C7.40159 17.9999 7.87908 17.7821 8.18945 17.4918C8.59532 17.1047 8.69082 16.5482 8.69082 15.895C8.69082 15.895 8.69082 11.4918 8.69082 10.9353C8.69082 10.9111 8.69082 10.8144 8.69082 10.7902C8.81019 9.89502 9.59805 9.14502 10.7679 9.14502C10.7679 9.14502 11.126 9.14502 11.3409 9.14502C11.5796 9.14502 11.8661 9.16921 12.1288 9.19341C12.3198 9.2176 12.4869 9.26599 12.7734 9.33857C14.2297 9.70147 14.5401 11.2015 14.5401 11.2015C14.5401 11.2015 17.2857 11.6853 18.6704 11.9273C19.9835 12.1692 23.2305 12.387 23.8512 15.7015C25.3075 23.5886 24.4242 31.2337 24.3526 31.2337C23.326 38.6853 17.2141 38.3224 17.2141 38.3224C15.901 38.3224 14.9221 37.887 14.2775 37.4273ZM19.7686 21.5805C18.9808 21.5079 18.3123 21.8224 18.0735 22.4273C18.0258 22.5482 17.978 22.6934 18.0019 22.766C18.0258 22.8386 18.0735 22.8628 18.1213 22.887C18.4078 23.0321 18.8853 23.1047 19.5776 23.1773C20.27 23.2499 20.7475 23.2982 21.0579 23.2499C21.1056 23.2499 21.1534 23.2257 21.2011 23.1531C21.2489 23.0805 21.225 22.9353 21.225 22.8144C21.1295 22.137 20.5565 21.6773 19.7686 21.5805Z" fill="#00A82D"/>
</svg>
