<svg width="186" height="48" viewBox="0 0 186 48" fill="none" xmlns="http://www.w3.org/2000/svg">
    <path d="M21.8947 16.2146H18.4211V13H21.8947V16.2146ZM21.8947 34.6986H18.4211V18.6256H21.8947V34.6986Z" fill="#00B5A3"/>
    <path d="M42.1053 18.6255L37.2632 32.4885C36.421 34.799 34.9474 34.9999 33.6842 34.9999C31.8947 34.9999 30.8421 34.1963 30.2105 32.4885L26.1053 20.936H24.5263V18.6255H28.7368L32.9474 31.4839C33.1579 31.9862 33.2631 32.388 33.7895 32.388C34.3158 32.388 34.421 32.0867 34.6316 31.4839L38.9474 18.6255H42.1053Z" fill="#00B5A3"/>
    <path d="M50.7368 18.6255C55.2631 18.6255 58.421 21.4383 58.421 25.557V28.0684C58.421 32.1871 55.2631 34.9999 50.7368 34.9999C46.2105 34.9999 43.0526 32.0867 43.0526 28.0684V25.557C43.0526 21.4383 46.2105 18.6255 50.7368 18.6255ZM50.7368 32.388C53.4737 32.388 55.1579 30.3789 55.1579 28.0684V25.557C55.1579 23.2465 53.4737 21.2374 50.7368 21.2374C47.8947 21.2374 46.3158 23.2465 46.3158 25.557V28.0684C46.421 30.4794 48 32.388 50.7368 32.388Z" fill="#00B5A3"/>
    <path d="M86.5264 19.128C84.7369 18.7262 82 18.4248 80 18.4248C75.3685 18.4248 72.5264 21.2376 72.5264 25.6577V27.4659C72.5264 31.886 75.3685 34.7992 80 34.7992C80.1053 34.7992 80.9474 34.7992 81.2632 34.7992V32.0869C81.1579 32.0869 80.1053 32.0869 80 32.0869C77.4737 32.0869 75.7895 30.2787 75.7895 27.4659V25.6577C75.7895 22.8449 77.4737 21.0367 80 21.0367C81.1579 21.0367 82.8422 21.1371 83.4737 21.2376H83.6843V34.5983H87.1579V19.6303C87.1579 19.4294 87.1579 19.3289 86.5264 19.128Z" fill="#00B5A3"/>
    <path d="M94 13H90.5263V34.6986H94V13Z" fill="#00B5A3"/>
    <path d="M6.21053 13H0V34.6986H3.68421V16.0137H5.78947C6.21053 16.0137 6.63158 16.0137 7.05263 16.0137C10.2105 16.1142 11.7895 17.2192 11.7895 19.6301C11.7895 19.7306 11.7895 19.8311 11.7895 19.9315C11.7895 22.1416 10.5263 23.5479 7.05263 23.5479C6.73684 23.5479 6.42105 23.5479 6 23.5479C6 24.3516 6 25.9589 6 26.4612C6.31579 26.4612 6.73684 26.4612 7.05263 26.4612C12 26.4612 15.4737 24.653 15.4737 19.9315C15.4737 19.8311 15.4737 19.7306 15.4737 19.6301C15.4737 14.8082 11.6842 13 6.21053 13Z" fill="#00B5A3"/>
    <path d="M64.7368 15.1094V18.5249H70.4211V21.1368H64.7368V30.4792C64.7368 31.9861 65.6842 31.9861 67.1579 31.9861H70.4211V34.598H65.8947C62.6316 34.598 61.1579 33.292 61.1579 30.4792V15.6117L64.7368 15.1094Z" fill="#00B5A3"/>
</svg>
