<svg width="360" height="98" viewBox="0 0 360 98" fill="none" xmlns="http://www.w3.org/2000/svg">
<path d="M88.5001 6.69999C87.2001 9.89999 85.4001 13 83.3001 15.8C64.7001 -3.5 34.0001 -4.00001 14.8001 14.6C-4.39988 33.2 -4.99988 63.9 13.6001 83.1C14.2001 83.8 14.9001 84.4 15.6001 85L17.4001 86.6C37.8001 103.8 68.4001 101.2 85.6001 80.8C92.2001 73 96.2001 63.2 96.9001 53C98.3001 40.9 94.6001 25.3 88.5001 6.69999ZM22.6001 85.5C21.2001 87.3 18.6001 87.5 16.8001 86.1C15.0001 84.7 14.8001 82.1 16.2001 80.3C17.6001 78.5 20.2001 78.3 22.0001 79.7C23.7001 81.1 24.0001 83.7 22.6001 85.5ZM88.2001 71C76.3001 86.9 50.7001 81.5 34.4001 82.3C34.4001 82.3 31.5001 82.5 28.6001 82.9C28.6001 82.9 29.7001 82.4 31.1001 81.9C42.6001 77.9 48.0001 77.1 55.0001 73.5C68.1001 66.8 81.2001 52.1 83.8001 36.9C78.8001 51.5 63.6001 64.1 49.8001 69.2C40.3001 72.7 23.2001 76.1 23.2001 76.1L22.5001 75.7C10.9001 70 10.5001 44.8 31.7001 36.7C41.0001 33.1 49.8001 35.1 59.9001 32.7C70.6001 30.2 83.0001 22.2 88.0001 11.7C93.6001 28.6 100.4 54.8 88.2001 71Z" fill="#6DB33F"/>
<path d="M124.4 68.6C123.1 67.8 122.3 66.4 122.4 64.9C122.4 62.5 124.3 60.5 126.7 60.5C126.7 60.5 126.7 60.5 126.8 60.5C127.6 60.5 128.4 60.7 129.1 61.1C133.1 63.9 137.8 65.4 142.6 65.6C147.2 65.6 149.9 63.6 149.9 60.5V60.3C149.9 56.6 144.9 55.4 139.4 53.7C132.5 51.7 124.7 48.9 124.7 39.9V39.7C124.7 30.8 132.1 25.4 141.4 25.4C146.6 25.5 151.6 26.8 156.2 29.2C157.8 30 158.8 31.5 158.8 33.3C158.8 35.7 156.8 37.7 154.4 37.7H154.3C153.6 37.7 152.9 37.5 152.2 37.2C148.8 35.3 145.1 34.2 141.2 34C137 34 134.6 36 134.6 38.6V38.8C134.6 42.3 139.7 43.7 145.2 45.5C152.1 47.6 159.8 50.8 159.8 59.2V59.4C159.8 69.3 152.1 74.2 142.4 74.2C136 74.1 129.7 72.2 124.4 68.6Z" fill="#6DB33F"/>
<path d="M163.8 30.9C163.7 28 166.1 25.6 169 25.5H169.1C172.1 25.5 174.5 27.9 174.5 30.9V34.1C178 29.2 182.9 25.3 190.5 25.3C201.5 25.3 212.3 34 212.3 49.7V49.9C212.3 65.5 201.6 74.3 190.5 74.3C182.7 74.3 177.8 70.4 174.5 66V82.6C174.5 85.6 172.1 88 169.1 88C166.2 88 163.8 85.6 163.8 82.7V82.6V30.9V30.9ZM201.5 49.9V49.7C201.5 40.6 195.4 34.7 188.1 34.7C180.8 34.7 174.4 40.8 174.4 49.7V49.9C174.4 58.9 180.8 64.9 188.1 64.9C195.4 64.9 201.5 59.2 201.5 49.9Z" fill="#6DB33F"/>
<path d="M216.5 30.9C216.4 28 218.8 25.6 221.7 25.5H221.8C224.8 25.5 227.2 27.9 227.2 30.9V33.5C227.7 29.5 234.3 25.5 239 25.5C241.7 25.3 244.1 27.3 244.3 30C244.3 30.3 244.3 30.5 244.3 30.8C244.3 33.4 242.5 35.6 240 36C232.3 37.3 227.1 44 227.1 53.3V68.8C227.1 71.8 224.7 74.1 221.7 74.1C218.8 74.1 216.4 71.8 216.4 68.9C216.4 68.9 216.4 68.9 216.4 68.8L216.5 30.9Z" fill="#6DB33F"/>
<path d="M248.6 31C248.5 28.1 250.9 25.7 253.8 25.6H253.9C256.9 25.6 259.3 28 259.3 31V68.9C259.3 71.9 256.9 74.2 253.9 74.2C250.9 74.2 248.6 71.8 248.6 68.9V31Z" fill="#6DB33F"/>
<path d="M264.8 31C264.7 28.1 267.1 25.7 270 25.6H270.1C273.1 25.6 275.5 28 275.5 31V33.2C278.7 28.2 284.3 25.3 290.2 25.5C300.8 25.5 306.9 32.6 306.9 43.5V68.8C307 71.7 304.7 74 301.8 74.1C301.7 74.1 301.7 74.1 301.6 74.1C298.7 74.2 296.3 71.8 296.2 68.9V68.8V46.8C296.2 39.5 292.6 35.3 286.1 35.3C279.9 35.3 275.5 39.7 275.5 47V68.9C275.5 71.9 273.1 74.3 270.1 74.3C267.1 74.3 264.7 71.9 264.7 68.9L264.8 31Z" fill="#6DB33F"/>
<path d="M354.3 25.4C351.3 25.4 348.9 27.8 348.9 30.8V34C345.4 29.1 340.5 25.2 332.9 25.2C321.9 25.2 311.1 33.9 311.1 49.6V49.8C311.1 65.4 321.8 74.2 332.9 74.2C340.7 74.2 345.6 70.3 348.9 66C348.4 74.5 343.2 78.9 334.1 78.9C329.1 78.9 324.1 77.7 319.7 75.2C319.1 74.9 318.5 74.8 317.8 74.8C315.3 74.8 313.3 76.7 313.2 79.2C313.2 81.1 314.4 82.9 316.2 83.5C321.9 86.3 328.1 87.7 334.4 87.7C342.9 87.7 349.5 85.7 353.7 81.4C357.6 77.5 359.7 71.6 359.7 63.7V30.9C359.8 27.9 357.4 25.5 354.4 25.4C354.4 25.4 354.3 25.4 354.3 25.4ZM335.4 64.9C328 64.9 322 59.1 322 49.8V49.6C322 40.5 328.1 34.6 335.4 34.6C342.7 34.6 349.1 40.7 349.1 49.6V49.8C349.2 58.8 342.8 64.9 335.4 64.9Z" fill="#6DB33F"/>
<path d="M259.4 12.6C259.4 15.6 257 18 254 18C251 18 248.6 15.6 248.6 12.6C248.6 9.60001 251 7.20001 254 7.20001C256.9 7.10001 259.3 9.50001 259.4 12.4C259.4 12.5 259.4 12.5 259.4 12.6Z" fill="#6DB33F"/>
<path d="M85.6001 80.8C92.2001 73 96.2001 63.2 96.9001 53Z" fill="#6DB33F"/>
</svg>
