<svg width="530" height="48" viewBox="0 0 530 48" fill="none" xmlns="http://www.w3.org/2000/svg">
<rect width="530" height="48" rx="24" fill="black"/>
<path d="M22 32.52H25.808C26.4373 32.52 26.992 32.3867 27.472 32.12C27.9627 31.8533 28.3413 31.48 28.608 31C28.8747 30.5093 29.008 29.9493 29.008 29.32V12.6H31.664V29.48C31.664 30.5573 31.424 31.5173 30.944 32.36C30.464 33.192 29.792 33.8427 28.928 34.312C28.064 34.7707 27.0773 35 25.968 35H22V32.52ZM44.0575 35.384C42.5002 35.384 41.0815 35.016 39.8015 34.28C38.5322 33.5333 37.5295 32.5093 36.7935 31.208C36.0682 29.896 35.7055 28.4293 35.7055 26.808C35.7055 25.1867 36.0682 23.7253 36.7935 22.424C37.5295 21.112 38.5375 20.088 39.8175 19.352C41.0975 18.6053 42.5162 18.232 44.0735 18.232C45.6308 18.232 47.0442 18.6053 48.3135 19.352C49.5828 20.088 50.5802 21.1067 51.3055 22.408C52.0415 23.7093 52.4095 25.176 52.4095 26.808C52.4095 28.44 52.0415 29.9067 51.3055 31.208C50.5802 32.5093 49.5828 33.5333 48.3135 34.28C47.0442 35.016 45.6255 35.384 44.0575 35.384ZM38.3935 26.808C38.3935 28.0347 38.6388 29.1227 39.1295 30.072C39.6308 31.0107 40.3135 31.7413 41.1775 32.264C42.0522 32.7867 43.0228 33.048 44.0895 33.048C45.1562 33.048 46.1162 32.7867 46.9695 32.264C47.8228 31.7413 48.4948 31.0107 48.9855 30.072C49.4762 29.1227 49.7215 28.0347 49.7215 26.808C49.7215 25.5813 49.4762 24.4933 48.9855 23.544C48.4948 22.5947 47.8175 21.8587 46.9535 21.336C46.1002 20.8133 45.1402 20.552 44.0735 20.552C43.0068 20.552 42.0415 20.8133 41.1775 21.336C40.3135 21.8587 39.6308 22.5947 39.1295 23.544C38.6388 24.4933 38.3935 25.5813 38.3935 26.808ZM55.9887 18.616H58.5487V35H55.9887V18.616ZM58.7727 12.6V15.64H55.7647V12.6H58.7727ZM63.505 18.616H65.969V21.272C66.5237 20.2907 67.2597 19.5387 68.177 19.016C69.105 18.4933 70.177 18.232 71.393 18.232C72.5663 18.232 73.6063 18.4827 74.513 18.984C75.4197 19.4853 76.129 20.2267 76.641 21.208C77.1637 22.1787 77.425 23.3467 77.425 24.712V35H74.865V24.968C74.865 23.5493 74.497 22.4453 73.761 21.656C73.025 20.8667 72.0117 20.472 70.721 20.472C69.8037 20.472 68.993 20.6747 68.289 21.08C67.585 21.4853 67.0357 22.056 66.641 22.792C66.257 23.5173 66.065 24.3493 66.065 25.288V35H63.505V18.616ZM94.4265 35C93.6478 35 92.9385 34.8347 92.2985 34.504C91.6692 34.1627 91.1732 33.6987 90.8105 33.112C90.4478 32.5147 90.2665 31.8533 90.2665 31.128L90.2505 20.888H87.3705L87.3865 18.616H89.1625C89.5678 18.616 89.8932 18.488 90.1385 18.232C90.3945 17.976 90.5225 17.6507 90.5225 17.256V14.616H92.8265V18.616H96.7785L96.7625 20.888H92.8105L92.8265 30.968C92.8265 31.4693 92.9918 31.8907 93.3225 32.232C93.6638 32.5627 94.0852 32.728 94.5865 32.728H96.7625V35H94.4265ZM100.585 12.6H103.049V21.272C103.604 20.2907 104.34 19.5387 105.257 19.016C106.185 18.4933 107.257 18.232 108.473 18.232C109.646 18.232 110.686 18.4827 111.593 18.984C112.5 19.4853 113.209 20.2267 113.721 21.208C114.244 22.1787 114.505 23.3467 114.505 24.712V35H111.945V24.968C111.945 23.5493 111.577 22.4453 110.841 21.656C110.105 20.8667 109.092 20.472 107.801 20.472C106.884 20.472 106.073 20.6747 105.369 21.08C104.665 21.4853 104.116 22.056 103.721 22.792C103.337 23.5173 103.145 24.3493 103.145 25.288V35H100.585V12.6ZM125.632 35.384C124.096 35.384 122.715 35.016 121.488 34.28C120.262 33.544 119.302 32.5253 118.608 31.224C117.926 29.912 117.584 28.4293 117.584 26.776C117.584 25.1653 117.931 23.7093 118.624 22.408C119.328 21.1067 120.294 20.088 121.52 19.352C122.747 18.6053 124.118 18.232 125.632 18.232C127.179 18.232 128.534 18.6 129.696 19.336C130.87 20.072 131.771 21.0907 132.4 22.392C133.04 23.6933 133.36 25.1653 133.36 26.808V27.432H120.192C120.299 28.552 120.603 29.544 121.104 30.408C121.606 31.272 122.262 31.944 123.072 32.424C123.883 32.904 124.79 33.144 125.792 33.144C126.87 33.144 127.819 32.9467 128.64 32.552C129.462 32.1573 130.059 31.6187 130.432 30.936H132.992C132.8 31.6187 132.395 32.3013 131.776 32.984C131.168 33.6667 130.336 34.2373 129.28 34.696C128.235 35.1547 127.019 35.384 125.632 35.384ZM130.704 25.32C130.491 23.8267 129.947 22.648 129.072 21.784C128.208 20.92 127.072 20.488 125.664 20.488C124.715 20.488 123.862 20.6853 123.104 21.08C122.347 21.464 121.723 22.024 121.232 22.76C120.742 23.4853 120.416 24.3387 120.256 25.32H130.704Z" fill="white"/>
<path d="M169 36H145V12H169L156.752 23.8263L169 36Z" fill="white"/>
<path d="M176.44 12.6H179V23.096L189.496 12.6H192.984L182.12 23.416L193.176 35H189.592L179 23.928V35H176.44V12.6ZM201.526 35.384C199.969 35.384 198.55 35.016 197.27 34.28C196.001 33.5333 194.998 32.5093 194.262 31.208C193.537 29.896 193.174 28.4293 193.174 26.808C193.174 25.1867 193.537 23.7253 194.262 22.424C194.998 21.112 196.006 20.088 197.286 19.352C198.566 18.6053 199.985 18.232 201.542 18.232C203.1 18.232 204.513 18.6053 205.782 19.352C207.052 20.088 208.049 21.1067 208.774 22.408C209.51 23.7093 209.878 25.176 209.878 26.808C209.878 28.44 209.51 29.9067 208.774 31.208C208.049 32.5093 207.052 33.5333 205.782 34.28C204.513 35.016 203.094 35.384 201.526 35.384ZM195.862 26.808C195.862 28.0347 196.108 29.1227 196.598 30.072C197.1 31.0107 197.782 31.7413 198.646 32.264C199.521 32.7867 200.492 33.048 201.558 33.048C202.625 33.048 203.585 32.7867 204.438 32.264C205.292 31.7413 205.964 31.0107 206.454 30.072C206.945 29.1227 207.19 28.0347 207.19 26.808C207.19 25.5813 206.945 24.4933 206.454 23.544C205.964 22.5947 205.286 21.8587 204.422 21.336C203.569 20.8133 202.609 20.552 201.542 20.552C200.476 20.552 199.51 20.8133 198.646 21.336C197.782 21.8587 197.1 22.5947 196.598 23.544C196.108 24.4933 195.862 25.5813 195.862 26.808ZM218.722 35C217.943 35 217.234 34.8347 216.594 34.504C215.964 34.1627 215.468 33.6987 215.106 33.112C214.743 32.5147 214.562 31.8533 214.562 31.128L214.546 20.888H211.666L211.682 18.616H213.458C213.863 18.616 214.188 18.488 214.434 18.232C214.69 17.976 214.818 17.6507 214.818 17.256V14.616H217.122V18.616H221.074L221.058 20.888H217.106L217.122 30.968C217.122 31.4693 217.287 31.8907 217.618 32.232C217.959 32.5627 218.38 32.728 218.882 32.728H221.058V35H218.722ZM224.88 12.6H227.44V35H224.88V12.6ZM232.396 18.616H234.956V35H232.396V18.616ZM235.18 12.6V15.64H232.172V12.6H235.18ZM239.913 18.616H242.377V21.272C242.931 20.2907 243.667 19.5387 244.585 19.016C245.513 18.4933 246.585 18.232 247.801 18.232C248.974 18.232 250.014 18.4827 250.921 18.984C251.827 19.4853 252.537 20.2267 253.049 21.208C253.571 22.1787 253.833 23.3467 253.833 24.712V35H251.273V24.968C251.273 23.5493 250.905 22.4453 250.169 21.656C249.433 20.8667 248.419 20.472 247.129 20.472C246.211 20.472 245.401 20.6747 244.697 21.08C243.993 21.4853 243.443 22.056 243.049 22.792C242.665 23.5173 242.473 24.3493 242.473 25.288V35H239.913V18.616ZM272.338 35.384C270.802 35.384 269.442 35.1013 268.258 34.536C267.085 33.9707 266.167 33.1813 265.506 32.168C264.855 31.1547 264.53 29.992 264.53 28.68H267.25C267.25 29.5227 267.463 30.2693 267.89 30.92C268.317 31.5707 268.919 32.0773 269.698 32.44C270.477 32.8027 271.367 32.984 272.37 32.984C273.362 32.984 274.231 32.8187 274.978 32.488C275.735 32.1467 276.317 31.672 276.722 31.064C277.138 30.4453 277.346 29.736 277.346 28.936C277.346 27.9227 277.042 27.0533 276.434 26.328C275.837 25.6027 275.037 25.1547 274.034 24.984L270.418 24.36C269.33 24.168 268.386 23.7893 267.586 23.224C266.786 22.6587 266.173 21.9547 265.746 21.112C265.319 20.2693 265.106 19.352 265.106 18.36C265.106 17.1973 265.41 16.152 266.018 15.224C266.637 14.2853 267.49 13.5493 268.578 13.016C269.677 12.4827 270.909 12.216 272.274 12.216C273.682 12.216 274.935 12.4827 276.034 13.016C277.133 13.5387 277.986 14.2693 278.594 15.208C279.202 16.1467 279.506 17.2187 279.506 18.424H276.786C276.786 17.688 276.599 17.032 276.226 16.456C275.853 15.8693 275.325 15.416 274.642 15.096C273.97 14.776 273.191 14.616 272.306 14.616C271.421 14.616 270.637 14.7707 269.954 15.08C269.271 15.3893 268.738 15.8267 268.354 16.392C267.981 16.9573 267.794 17.6133 267.794 18.36C267.794 19.2453 268.077 20.008 268.642 20.648C269.218 21.288 269.97 21.688 270.898 21.848L274.578 22.488C275.645 22.68 276.594 23.0907 277.426 23.72C278.258 24.3493 278.903 25.1227 279.362 26.04C279.821 26.9467 280.05 27.9013 280.05 28.904C280.05 30.1093 279.725 31.208 279.074 32.2C278.423 33.1813 277.511 33.96 276.338 34.536C275.165 35.1013 273.831 35.384 272.338 35.384ZM284.149 12.6H286.709V35H284.149V12.6ZM297.441 18.232C298.678 18.232 299.766 18.4613 300.705 18.92C301.644 19.368 302.369 20.0293 302.881 20.904C303.404 21.768 303.665 22.7973 303.665 23.992V35H301.169V32.328C300.71 33.32 300.038 34.0773 299.153 34.6C298.268 35.1227 297.217 35.384 296.001 35.384C294.956 35.384 294.012 35.1813 293.169 34.776C292.326 34.3707 291.665 33.8107 291.185 33.096C290.705 32.3813 290.465 31.5707 290.465 30.664C290.465 29.8107 290.684 29.0267 291.121 28.312C291.569 27.5867 292.182 26.9947 292.961 26.536C293.75 26.0773 294.636 25.7947 295.617 25.688L299.985 25.208C300.348 25.1653 300.63 25.016 300.833 24.76C301.036 24.504 301.137 24.1307 301.137 23.64C301.137 22.9893 300.982 22.4187 300.673 21.928C300.364 21.4373 299.926 21.0587 299.361 20.792C298.806 20.5147 298.161 20.376 297.425 20.376C296.689 20.376 296.028 20.504 295.441 20.76C294.854 21.0053 294.38 21.3413 294.017 21.768C293.665 22.184 293.452 22.6373 293.377 23.128H290.817C290.945 22.2 291.308 21.368 291.905 20.632C292.513 19.8853 293.297 19.2987 294.257 18.872C295.217 18.4453 296.278 18.232 297.441 18.232ZM293.121 30.52C293.121 31.0747 293.265 31.5653 293.553 31.992C293.852 32.4187 294.262 32.7547 294.785 33C295.308 33.2347 295.905 33.352 296.577 33.352C297.494 33.352 298.294 33.1653 298.977 32.792C299.67 32.4187 300.204 31.896 300.577 31.224C300.95 30.5413 301.137 29.7573 301.137 28.872V27L295.969 27.576C295.116 27.672 294.428 27.992 293.905 28.536C293.382 29.08 293.121 29.7413 293.121 30.52ZM314.95 35.384C313.403 35.384 312.006 35.0107 310.758 34.264C309.51 33.5173 308.529 32.4933 307.814 31.192C307.11 29.88 306.758 28.4187 306.758 26.808C306.758 25.1973 307.11 23.7413 307.814 22.44C308.529 21.128 309.51 20.0987 310.758 19.352C312.006 18.6053 313.403 18.232 314.95 18.232C316.934 18.232 318.598 18.7387 319.942 19.752C321.286 20.7547 322.145 22.2107 322.518 24.12H319.958C319.617 22.9467 318.987 22.0613 318.07 21.464C317.163 20.856 316.123 20.552 314.95 20.552C313.894 20.552 312.945 20.8187 312.102 21.352C311.27 21.8853 310.619 22.6267 310.15 23.576C309.681 24.5253 309.446 25.6027 309.446 26.808C309.446 28.0027 309.681 29.0747 310.15 30.024C310.619 30.9733 311.27 31.72 312.102 32.264C312.945 32.7973 313.894 33.064 314.95 33.064C316.123 33.064 317.163 32.7653 318.07 32.168C318.987 31.56 319.617 30.6693 319.958 29.496H322.518C322.273 30.7333 321.793 31.7947 321.078 32.68C320.363 33.5653 319.478 34.2373 318.422 34.696C317.366 35.1547 316.209 35.384 314.95 35.384ZM326.041 12.6H328.601V26.296L336.025 18.616H339.209L331.737 26.424L339.497 35H336.201L328.601 26.744V35H326.041V12.6ZM355.186 35.384C353.64 35.384 352.242 35.0107 350.994 34.264C349.746 33.5173 348.765 32.4933 348.05 31.192C347.346 29.88 346.994 28.4187 346.994 26.808C346.994 25.1973 347.346 23.7413 348.05 22.44C348.765 21.128 349.746 20.0987 350.994 19.352C352.242 18.6053 353.64 18.232 355.186 18.232C357.17 18.232 358.834 18.7387 360.178 19.752C361.522 20.7547 362.381 22.2107 362.754 24.12H360.194C359.853 22.9467 359.224 22.0613 358.306 21.464C357.4 20.856 356.36 20.552 355.186 20.552C354.13 20.552 353.181 20.8187 352.338 21.352C351.506 21.8853 350.856 22.6267 350.386 23.576C349.917 24.5253 349.682 25.6027 349.682 26.808C349.682 28.0027 349.917 29.0747 350.386 30.024C350.856 30.9733 351.506 31.72 352.338 32.264C353.181 32.7973 354.13 33.064 355.186 33.064C356.36 33.064 357.4 32.7653 358.306 32.168C359.224 31.56 359.853 30.6693 360.194 29.496H362.754C362.509 30.7333 362.029 31.7947 361.314 32.68C360.6 33.5653 359.714 34.2373 358.658 34.696C357.602 35.1547 356.445 35.384 355.186 35.384ZM366.277 12.6H368.741V21.272C369.296 20.2907 370.032 19.5387 370.949 19.016C371.877 18.4933 372.949 18.232 374.165 18.232C375.339 18.232 376.379 18.4827 377.285 18.984C378.192 19.4853 378.901 20.2267 379.413 21.208C379.936 22.1787 380.197 23.3467 380.197 24.712V35H377.637V24.968C377.637 23.5493 377.269 22.4453 376.533 21.656C375.797 20.8667 374.784 20.472 373.493 20.472C372.576 20.472 371.765 20.6747 371.061 21.08C370.357 21.4853 369.808 22.056 369.413 22.792C369.029 23.5173 368.837 24.3493 368.837 25.288V35H366.277V12.6ZM390.445 18.232C391.682 18.232 392.77 18.4613 393.709 18.92C394.647 19.368 395.373 20.0293 395.885 20.904C396.407 21.768 396.669 22.7973 396.669 23.992V35H394.173V32.328C393.714 33.32 393.042 34.0773 392.157 34.6C391.271 35.1227 390.221 35.384 389.005 35.384C387.959 35.384 387.015 35.1813 386.173 34.776C385.33 34.3707 384.669 33.8107 384.189 33.096C383.709 32.3813 383.469 31.5707 383.469 30.664C383.469 29.8107 383.687 29.0267 384.125 28.312C384.573 27.5867 385.186 26.9947 385.965 26.536C386.754 26.0773 387.639 25.7947 388.621 25.688L392.989 25.208C393.351 25.1653 393.634 25.016 393.837 24.76C394.039 24.504 394.141 24.1307 394.141 23.64C394.141 22.9893 393.986 22.4187 393.677 21.928C393.367 21.4373 392.93 21.0587 392.365 20.792C391.81 20.5147 391.165 20.376 390.429 20.376C389.693 20.376 389.031 20.504 388.445 20.76C387.858 21.0053 387.383 21.3413 387.021 21.768C386.669 22.184 386.455 22.6373 386.381 23.128H383.821C383.949 22.2 384.311 21.368 384.909 20.632C385.517 19.8853 386.301 19.2987 387.261 18.872C388.221 18.4453 389.282 18.232 390.445 18.232ZM386.125 30.52C386.125 31.0747 386.269 31.5653 386.557 31.992C386.855 32.4187 387.266 32.7547 387.789 33C388.311 33.2347 388.909 33.352 389.581 33.352C390.498 33.352 391.298 33.1653 391.981 32.792C392.674 32.4187 393.207 31.896 393.581 31.224C393.954 30.5413 394.141 29.7573 394.141 28.872V27L388.973 27.576C388.119 27.672 387.431 27.992 386.909 28.536C386.386 29.08 386.125 29.7413 386.125 30.52ZM401.154 18.616H403.618V21.272C404.172 20.2907 404.908 19.5387 405.826 19.016C406.754 18.4933 407.826 18.232 409.042 18.232C410.215 18.232 411.255 18.4827 412.162 18.984C413.068 19.4853 413.778 20.2267 414.29 21.208C414.812 22.1787 415.074 23.3467 415.074 24.712V35H412.514V24.968C412.514 23.5493 412.146 22.4453 411.41 21.656C410.674 20.8667 409.66 20.472 408.37 20.472C407.452 20.472 406.642 20.6747 405.938 21.08C405.234 21.4853 404.684 22.056 404.29 22.792C403.906 23.5173 403.714 24.3493 403.714 25.288V35H401.154V18.616ZM419.545 18.616H422.009V21.272C422.564 20.2907 423.3 19.5387 424.217 19.016C425.145 18.4933 426.217 18.232 427.433 18.232C428.606 18.232 429.646 18.4827 430.553 18.984C431.46 19.4853 432.169 20.2267 432.681 21.208C433.204 22.1787 433.465 23.3467 433.465 24.712V35H430.905V24.968C430.905 23.5493 430.537 22.4453 429.801 21.656C429.065 20.8667 428.052 20.472 426.761 20.472C425.844 20.472 425.033 20.6747 424.329 21.08C423.625 21.4853 423.076 22.056 422.681 22.792C422.297 23.5173 422.105 24.3493 422.105 25.288V35H419.545V18.616ZM444.592 35.384C443.056 35.384 441.675 35.016 440.448 34.28C439.222 33.544 438.262 32.5253 437.568 31.224C436.886 29.912 436.544 28.4293 436.544 26.776C436.544 25.1653 436.891 23.7093 437.584 22.408C438.288 21.1067 439.254 20.088 440.48 19.352C441.707 18.6053 443.078 18.232 444.592 18.232C446.139 18.232 447.494 18.6 448.656 19.336C449.83 20.072 450.731 21.0907 451.36 22.392C452 23.6933 452.32 25.1653 452.32 26.808V27.432H439.152C439.259 28.552 439.563 29.544 440.064 30.408C440.566 31.272 441.222 31.944 442.032 32.424C442.843 32.904 443.75 33.144 444.752 33.144C445.83 33.144 446.779 32.9467 447.6 32.552C448.422 32.1573 449.019 31.6187 449.392 30.936H451.952C451.76 31.6187 451.355 32.3013 450.736 32.984C450.128 33.6667 449.296 34.2373 448.24 34.696C447.195 35.1547 445.979 35.384 444.592 35.384ZM449.664 25.32C449.451 23.8267 448.907 22.648 448.032 21.784C447.168 20.92 446.032 20.488 444.624 20.488C443.675 20.488 442.822 20.6853 442.064 21.08C441.307 21.464 440.683 22.024 440.192 22.76C439.702 23.4853 439.376 24.3387 439.216 25.32H449.664ZM455.89 12.6H458.45V35H455.89V12.6Z" fill="white"/>
<path d="M472 24H508M508 24L498 14M508 24L498 34" stroke="white" stroke-width="2"/>
</svg>
