<svg width="518" height="48" viewBox="0 0 518 48" fill="none" xmlns="http://www.w3.org/2000/svg">
<rect width="518" height="48" rx="24" fill="black"/>
<path d="M34.576 35.384C32.56 35.384 30.7307 34.8827 29.088 33.88C27.456 32.8667 26.1707 31.48 25.232 29.72C24.2933 27.9493 23.824 25.976 23.824 23.8C23.824 21.624 24.2933 19.656 25.232 17.896C26.1707 16.1253 27.456 14.7387 29.088 13.736C30.7307 12.7227 32.56 12.216 34.576 12.216C36.2613 12.216 37.8347 12.568 39.296 13.272C40.768 13.976 41.9733 14.9307 42.912 16.136C43.8613 17.3413 44.432 18.6587 44.624 20.088H42C41.808 19.0747 41.3547 18.152 40.64 17.32C39.936 16.4773 39.0507 15.8107 37.984 15.32C36.928 14.8293 35.792 14.584 34.576 14.584C33.04 14.584 31.6587 14.9787 30.432 15.768C29.2053 16.5573 28.2453 17.6507 27.552 19.048C26.8587 20.4453 26.512 22.0293 26.512 23.8C26.512 25.5707 26.8587 27.1547 27.552 28.552C28.2453 29.9493 29.2053 31.0427 30.432 31.832C31.6587 32.6213 33.04 33.016 34.576 33.016C35.984 33.016 37.2533 32.728 38.384 32.152C39.5253 31.576 40.4267 30.776 41.088 29.752C41.7493 28.7173 42.0907 27.5547 42.112 26.264V26.072H36.192V23.672H44.8V25.304C44.8 27.192 44.352 28.904 43.456 30.44C42.5707 31.976 41.3493 33.1867 39.792 34.072C38.2347 34.9467 36.496 35.384 34.576 35.384ZM56.441 35.384C54.905 35.384 53.5237 35.016 52.297 34.28C51.0703 33.544 50.1103 32.5253 49.417 31.224C48.7343 29.912 48.393 28.4293 48.393 26.776C48.393 25.1653 48.7397 23.7093 49.433 22.408C50.137 21.1067 51.1023 20.088 52.329 19.352C53.5557 18.6053 54.9263 18.232 56.441 18.232C57.9877 18.232 59.3423 18.6 60.505 19.336C61.6783 20.072 62.5797 21.0907 63.209 22.392C63.849 23.6933 64.169 25.1653 64.169 26.808V27.432H51.001C51.1077 28.552 51.4117 29.544 51.913 30.408C52.4143 31.272 53.0703 31.944 53.881 32.424C54.6917 32.904 55.5983 33.144 56.601 33.144C57.6783 33.144 58.6277 32.9467 59.449 32.552C60.2703 32.1573 60.8677 31.6187 61.241 30.936H63.801C63.609 31.6187 63.2037 32.3013 62.585 32.984C61.977 33.6667 61.145 34.2373 60.089 34.696C59.0437 35.1547 57.8277 35.384 56.441 35.384ZM61.513 25.32C61.2997 23.8267 60.7557 22.648 59.881 21.784C59.017 20.92 57.881 20.488 56.473 20.488C55.5237 20.488 54.6703 20.6853 53.913 21.08C53.1557 21.464 52.5317 22.024 52.041 22.76C51.5503 23.4853 51.225 24.3387 51.065 25.32H61.513ZM73.0028 35C72.2241 35 71.5148 34.8347 70.8748 34.504C70.2454 34.1627 69.7494 33.6987 69.3868 33.112C69.0241 32.5147 68.8428 31.8533 68.8428 31.128L68.8268 20.888H65.9468L65.9628 18.616H67.7388C68.1441 18.616 68.4694 18.488 68.7148 18.232C68.9708 17.976 69.0988 17.6507 69.0988 17.256V14.616H71.4028V18.616H75.3548L75.3388 20.888H71.3868L71.4028 30.968C71.4028 31.4693 71.5681 31.8907 71.8988 32.232C72.2401 32.5627 72.6614 32.728 73.1628 32.728H75.3388V35H73.0028ZM91.8355 35.384C90.5982 35.384 89.4782 35.1867 88.4755 34.792C87.4835 34.3973 86.6888 33.848 86.0915 33.144C85.5048 32.4293 85.1902 31.624 85.1475 30.728H87.7555C87.7982 31.2187 88.0008 31.6613 88.3635 32.056C88.7262 32.44 89.2062 32.744 89.8035 32.968C90.4008 33.192 91.0675 33.304 91.8035 33.304C92.5502 33.304 93.2062 33.1813 93.7715 32.936C94.3475 32.6907 94.7902 32.3493 95.0995 31.912C95.4195 31.4747 95.5795 30.9787 95.5795 30.424C95.5795 29.8267 95.4088 29.3253 95.0675 28.92C94.7368 28.504 94.2728 28.2427 93.6755 28.136L89.7235 27.416C88.4648 27.1813 87.4835 26.6747 86.7795 25.896C86.0755 25.1067 85.7235 24.1093 85.7235 22.904C85.7235 22.04 85.9688 21.256 86.4595 20.552C86.9608 19.8373 87.6595 19.272 88.5555 18.856C89.4515 18.44 90.4755 18.232 91.6275 18.232C92.7688 18.232 93.7982 18.4187 94.7155 18.792C95.6328 19.1653 96.3635 19.6827 96.9075 20.344C97.4515 21.0053 97.7448 21.7413 97.7875 22.552H95.1795C95.1475 22.1253 94.9715 21.7413 94.6515 21.4C94.3422 21.0587 93.9262 20.792 93.4035 20.6C92.8808 20.408 92.2942 20.312 91.6435 20.312C90.9822 20.312 90.3955 20.424 89.8835 20.648C89.3715 20.872 88.9715 21.1813 88.6835 21.576C88.4062 21.96 88.2675 22.3973 88.2675 22.888C88.2675 23.4427 88.4222 23.9013 88.7315 24.264C89.0408 24.6267 89.4942 24.8613 90.0915 24.968L94.1395 25.688C94.9715 25.8373 95.6862 26.1307 96.2835 26.568C96.8915 27.0053 97.3502 27.5493 97.6595 28.2C97.9795 28.8507 98.1395 29.56 98.1395 30.328C98.1395 31.288 97.8622 32.152 97.3075 32.92C96.7635 33.688 96.0115 34.2907 95.0515 34.728C94.0915 35.1653 93.0195 35.384 91.8355 35.384ZM107.083 35C106.304 35 105.595 34.8347 104.955 34.504C104.325 34.1627 103.829 33.6987 103.467 33.112C103.104 32.5147 102.923 31.8533 102.923 31.128L102.907 20.888H100.027L100.043 18.616H101.819C102.224 18.616 102.549 18.488 102.795 18.232C103.051 17.976 103.179 17.6507 103.179 17.256V14.616H105.483V18.616H109.435L109.419 20.888H105.467L105.483 30.968C105.483 31.4693 105.648 31.8907 105.979 32.232C106.32 32.5627 106.741 32.728 107.243 32.728H109.419V35H107.083ZM119.017 18.232C120.255 18.232 121.343 18.4613 122.281 18.92C123.22 19.368 123.945 20.0293 124.457 20.904C124.98 21.768 125.241 22.7973 125.241 23.992V35H122.745V32.328C122.287 33.32 121.615 34.0773 120.729 34.6C119.844 35.1227 118.793 35.384 117.577 35.384C116.532 35.384 115.588 35.1813 114.745 34.776C113.903 34.3707 113.241 33.8107 112.761 33.096C112.281 32.3813 112.041 31.5707 112.041 30.664C112.041 29.8107 112.26 29.0267 112.697 28.312C113.145 27.5867 113.759 26.9947 114.537 26.536C115.327 26.0773 116.212 25.7947 117.193 25.688L121.561 25.208C121.924 25.1653 122.207 25.016 122.409 24.76C122.612 24.504 122.713 24.1307 122.713 23.64C122.713 22.9893 122.559 22.4187 122.249 21.928C121.94 21.4373 121.503 21.0587 120.937 20.792C120.383 20.5147 119.737 20.376 119.001 20.376C118.265 20.376 117.604 20.504 117.017 20.76C116.431 21.0053 115.956 21.3413 115.593 21.768C115.241 22.184 115.028 22.6373 114.953 23.128H112.393C112.521 22.2 112.884 21.368 113.481 20.632C114.089 19.8853 114.873 19.2987 115.833 18.872C116.793 18.4453 117.855 18.232 119.017 18.232ZM114.697 30.52C114.697 31.0747 114.841 31.5653 115.129 31.992C115.428 32.4187 115.839 32.7547 116.361 33C116.884 33.2347 117.481 33.352 118.153 33.352C119.071 33.352 119.871 33.1653 120.553 32.792C121.247 32.4187 121.78 31.896 122.153 31.224C122.527 30.5413 122.713 29.7573 122.713 28.872V27L117.545 27.576C116.692 27.672 116.004 27.992 115.481 28.536C114.959 29.08 114.697 29.7413 114.697 30.52ZM129.726 18.616H132.286V21.336C132.809 20.408 133.486 19.6987 134.318 19.208C135.15 18.7067 136.105 18.456 137.182 18.456H137.758V21.128H137.086C136.116 21.128 135.268 21.3147 134.542 21.688C133.817 22.0613 133.257 22.5947 132.862 23.288C132.478 23.9707 132.286 24.776 132.286 25.704V35H129.726V18.616ZM144.22 35C143.014 35 142.07 34.6853 141.388 34.056C140.716 33.4267 140.38 32.5573 140.38 31.448V14.52H142.94V18.616H146.796L146.78 20.888H142.924L142.94 31.288C142.94 31.736 143.068 32.088 143.324 32.344C143.58 32.6 143.932 32.728 144.38 32.728H146.78V35H144.22ZM157.008 35.384C155.472 35.384 154.091 35.016 152.864 34.28C151.638 33.544 150.678 32.5253 149.984 31.224C149.302 29.912 148.96 28.4293 148.96 26.776C148.96 25.1653 149.307 23.7093 150 22.408C150.704 21.1067 151.67 20.088 152.896 19.352C154.123 18.6053 155.494 18.232 157.008 18.232C158.555 18.232 159.91 18.6 161.072 19.336C162.246 20.072 163.147 21.0907 163.776 22.392C164.416 23.6933 164.736 25.1653 164.736 26.808V27.432H151.568C151.675 28.552 151.979 29.544 152.48 30.408C152.982 31.272 153.638 31.944 154.448 32.424C155.259 32.904 156.166 33.144 157.168 33.144C158.246 33.144 159.195 32.9467 160.016 32.552C160.838 32.1573 161.435 31.6187 161.808 30.936H164.368C164.176 31.6187 163.771 32.3013 163.152 32.984C162.544 33.6667 161.712 34.2373 160.656 34.696C159.611 35.1547 158.395 35.384 157.008 35.384ZM162.08 25.32C161.867 23.8267 161.323 22.648 160.448 21.784C159.584 20.92 158.448 20.488 157.04 20.488C156.091 20.488 155.238 20.6853 154.48 21.08C153.723 21.464 153.099 22.024 152.608 22.76C152.118 23.4853 151.792 24.3387 151.632 25.32H162.08ZM180.754 32.28C180.136 33.272 179.309 34.04 178.274 34.584C177.25 35.1173 176.082 35.384 174.77 35.384C173.245 35.384 171.885 35.0267 170.69 34.312C169.506 33.5867 168.578 32.5733 167.906 31.272C167.245 29.9707 166.914 28.4827 166.914 26.808C166.914 25.1333 167.245 23.6453 167.906 22.344C168.578 21.0427 169.506 20.0347 170.69 19.32C171.885 18.5947 173.245 18.232 174.77 18.232C176.082 18.232 177.25 18.504 178.274 19.048C179.309 19.5813 180.136 20.344 180.754 21.336V12.6H183.314V35H180.754V32.28ZM169.602 26.808C169.602 28.0347 169.837 29.1227 170.306 30.072C170.776 31.0107 171.432 31.7467 172.274 32.28C173.117 32.8027 174.082 33.064 175.17 33.064C176.173 33.064 177.074 32.8453 177.874 32.408C178.685 31.96 179.336 31.336 179.826 30.536C180.328 29.7253 180.637 28.7867 180.754 27.72V25.896C180.637 24.8293 180.328 23.896 179.826 23.096C179.336 22.2853 178.685 21.6613 177.874 21.224C177.074 20.776 176.173 20.552 175.17 20.552C174.082 20.552 173.117 20.8187 172.274 21.352C171.432 21.8747 170.776 22.6107 170.306 23.56C169.837 24.4987 169.602 25.5813 169.602 26.808ZM192.869 18.616H195.621L199.477 30.392L199.845 31.784L200.181 30.392L204.229 18.616H206.677L210.805 30.392L211.173 31.784L211.509 30.392L215.269 18.616H217.957L212.341 35H209.813L205.765 22.68L205.461 21.544L205.189 22.648L200.981 35H198.485L192.869 18.616ZM220.886 18.616H223.446V35H220.886V18.616ZM223.67 12.6V15.64H220.662V12.6H223.67ZM233.666 35C232.888 35 232.178 34.8347 231.538 34.504C230.909 34.1627 230.413 33.6987 230.05 33.112C229.688 32.5147 229.506 31.8533 229.506 31.128L229.49 20.888H226.61L226.626 18.616H228.402C228.808 18.616 229.133 18.488 229.378 18.232C229.634 17.976 229.762 17.6507 229.762 17.256V14.616H232.066V18.616H236.018L236.002 20.888H232.05L232.066 30.968C232.066 31.4693 232.232 31.8907 232.562 32.232C232.904 32.5627 233.325 32.728 233.826 32.728H236.002V35H233.666ZM239.825 12.6H242.289V21.272C242.844 20.2907 243.58 19.5387 244.497 19.016C245.425 18.4933 246.497 18.232 247.713 18.232C248.886 18.232 249.926 18.4827 250.833 18.984C251.74 19.4853 252.449 20.2267 252.961 21.208C253.484 22.1787 253.745 23.3467 253.745 24.712V35H251.185V24.968C251.185 23.5493 250.817 22.4453 250.081 21.656C249.345 20.8667 248.332 20.472 247.041 20.472C246.124 20.472 245.313 20.6747 244.609 21.08C243.905 21.4853 243.356 22.056 242.961 22.792C242.577 23.5173 242.385 24.3493 242.385 25.288V35H239.825V12.6ZM266.122 12.6H268.682V23.096L279.178 12.6H282.666L271.802 23.416L282.858 35H279.274L268.682 23.928V35H266.122V12.6ZM291.209 35.384C289.651 35.384 288.233 35.016 286.953 34.28C285.683 33.5333 284.681 32.5093 283.945 31.208C283.219 29.896 282.857 28.4293 282.857 26.808C282.857 25.1867 283.219 23.7253 283.945 22.424C284.681 21.112 285.689 20.088 286.969 19.352C288.249 18.6053 289.667 18.232 291.225 18.232C292.782 18.232 294.195 18.6053 295.465 19.352C296.734 20.088 297.731 21.1067 298.457 22.408C299.193 23.7093 299.561 25.176 299.561 26.808C299.561 28.44 299.193 29.9067 298.457 31.208C297.731 32.5093 296.734 33.5333 295.465 34.28C294.195 35.016 292.777 35.384 291.209 35.384ZM285.545 26.808C285.545 28.0347 285.79 29.1227 286.281 30.072C286.782 31.0107 287.465 31.7413 288.329 32.264C289.203 32.7867 290.174 33.048 291.241 33.048C292.307 33.048 293.267 32.7867 294.121 32.264C294.974 31.7413 295.646 31.0107 296.137 30.072C296.627 29.1227 296.873 28.0347 296.873 26.808C296.873 25.5813 296.627 24.4933 296.137 23.544C295.646 22.5947 294.969 21.8587 294.105 21.336C293.251 20.8133 292.291 20.552 291.225 20.552C290.158 20.552 289.193 20.8133 288.329 21.336C287.465 21.8587 286.782 22.5947 286.281 23.544C285.79 24.4933 285.545 25.5813 285.545 26.808ZM308.404 35C307.625 35 306.916 34.8347 306.276 34.504C305.647 34.1627 305.151 33.6987 304.788 33.112C304.425 32.5147 304.244 31.8533 304.244 31.128L304.228 20.888H301.348L301.364 18.616H303.14C303.545 18.616 303.871 18.488 304.116 18.232C304.372 17.976 304.5 17.6507 304.5 17.256V14.616H306.804V18.616H310.756L310.74 20.888H306.788L306.804 30.968C306.804 31.4693 306.969 31.8907 307.3 32.232C307.641 32.5627 308.063 32.728 308.564 32.728H310.74V35H308.404ZM314.563 12.6H317.123V35H314.563V12.6ZM322.079 18.616H324.639V35H322.079V18.616ZM324.863 12.6V15.64H321.855V12.6H324.863ZM329.595 18.616H332.059V21.272C332.614 20.2907 333.35 19.5387 334.267 19.016C335.195 18.4933 336.267 18.232 337.483 18.232C338.656 18.232 339.696 18.4827 340.603 18.984C341.51 19.4853 342.219 20.2267 342.731 21.208C343.254 22.1787 343.515 23.3467 343.515 24.712V35H340.955V24.968C340.955 23.5493 340.587 22.4453 339.851 21.656C339.115 20.8667 338.102 20.472 336.811 20.472C335.894 20.472 335.083 20.6747 334.379 21.08C333.675 21.4853 333.126 22.056 332.731 22.792C332.347 23.5173 332.155 24.3493 332.155 25.288V35H329.595V18.616ZM355.362 12.6H357.986L347.81 35H345.186L355.362 12.6ZM361.071 12.6L367.199 31.128L373.007 12.6H375.535L381.407 31.128L387.407 12.6H390.191L382.623 35H380.031L374.223 16.792L368.319 35H365.727L358.191 12.6H361.071ZM397.201 18.232C398.438 18.232 399.526 18.4613 400.465 18.92C401.404 19.368 402.129 20.0293 402.641 20.904C403.164 21.768 403.425 22.7973 403.425 23.992V35H400.929V32.328C400.47 33.32 399.798 34.0773 398.913 34.6C398.028 35.1227 396.977 35.384 395.761 35.384C394.716 35.384 393.772 35.1813 392.929 34.776C392.086 34.3707 391.425 33.8107 390.945 33.096C390.465 32.3813 390.225 31.5707 390.225 30.664C390.225 29.8107 390.444 29.0267 390.881 28.312C391.329 27.5867 391.942 26.9947 392.721 26.536C393.51 26.0773 394.396 25.7947 395.377 25.688L399.745 25.208C400.108 25.1653 400.39 25.016 400.593 24.76C400.796 24.504 400.897 24.1307 400.897 23.64C400.897 22.9893 400.742 22.4187 400.433 21.928C400.124 21.4373 399.686 21.0587 399.121 20.792C398.566 20.5147 397.921 20.376 397.185 20.376C396.449 20.376 395.788 20.504 395.201 20.76C394.614 21.0053 394.14 21.3413 393.777 21.768C393.425 22.184 393.212 22.6373 393.137 23.128H390.577C390.705 22.2 391.068 21.368 391.665 20.632C392.273 19.8853 393.057 19.2987 394.017 18.872C394.977 18.4453 396.038 18.232 397.201 18.232ZM392.881 30.52C392.881 31.0747 393.025 31.5653 393.313 31.992C393.612 32.4187 394.022 32.7547 394.545 33C395.068 33.2347 395.665 33.352 396.337 33.352C397.254 33.352 398.054 33.1653 398.737 32.792C399.43 32.4187 399.964 31.896 400.337 31.224C400.71 30.5413 400.897 29.7573 400.897 28.872V27L395.729 27.576C394.876 27.672 394.188 27.992 393.665 28.536C393.142 29.08 392.881 29.7413 392.881 30.52ZM413.318 35.384C412.081 35.384 410.961 35.1867 409.958 34.792C408.966 34.3973 408.171 33.848 407.574 33.144C406.987 32.4293 406.673 31.624 406.63 30.728H409.238C409.281 31.2187 409.483 31.6613 409.846 32.056C410.209 32.44 410.689 32.744 411.286 32.968C411.883 33.192 412.55 33.304 413.286 33.304C414.033 33.304 414.689 33.1813 415.254 32.936C415.83 32.6907 416.273 32.3493 416.582 31.912C416.902 31.4747 417.062 30.9787 417.062 30.424C417.062 29.8267 416.891 29.3253 416.55 28.92C416.219 28.504 415.755 28.2427 415.158 28.136L411.206 27.416C409.947 27.1813 408.966 26.6747 408.262 25.896C407.558 25.1067 407.206 24.1093 407.206 22.904C407.206 22.04 407.451 21.256 407.942 20.552C408.443 19.8373 409.142 19.272 410.038 18.856C410.934 18.44 411.958 18.232 413.11 18.232C414.251 18.232 415.281 18.4187 416.198 18.792C417.115 19.1653 417.846 19.6827 418.39 20.344C418.934 21.0053 419.227 21.7413 419.27 22.552H416.662C416.63 22.1253 416.454 21.7413 416.134 21.4C415.825 21.0587 415.409 20.792 414.886 20.6C414.363 20.408 413.777 20.312 413.126 20.312C412.465 20.312 411.878 20.424 411.366 20.648C410.854 20.872 410.454 21.1813 410.166 21.576C409.889 21.96 409.75 22.3973 409.75 22.888C409.75 23.4427 409.905 23.9013 410.214 24.264C410.523 24.6267 410.977 24.8613 411.574 24.968L415.622 25.688C416.454 25.8373 417.169 26.1307 417.766 26.568C418.374 27.0053 418.833 27.5493 419.142 28.2C419.462 28.8507 419.622 29.56 419.622 30.328C419.622 31.288 419.345 32.152 418.79 32.92C418.246 33.688 417.494 34.2907 416.534 34.728C415.574 35.1653 414.502 35.384 413.318 35.384ZM423.301 18.616H425.765V21.384C426.256 20.3707 426.933 19.592 427.797 19.048C428.672 18.504 429.696 18.232 430.869 18.232C432.096 18.232 433.163 18.5253 434.069 19.112C434.976 19.6987 435.653 20.5253 436.101 21.592C436.624 20.5253 437.355 19.6987 438.293 19.112C439.232 18.5253 440.315 18.232 441.541 18.232C442.704 18.232 443.733 18.4987 444.629 19.032C445.536 19.5547 446.24 20.3013 446.741 21.272C447.243 22.2427 447.493 23.3733 447.493 24.664V35H444.933V24.776C444.933 23.4213 444.592 22.3547 443.909 21.576C443.237 20.7973 442.288 20.408 441.061 20.408C440.187 20.408 439.419 20.6107 438.757 21.016C438.096 21.4107 437.584 21.976 437.221 22.712C436.859 23.4373 436.677 24.296 436.677 25.288V35H434.117V24.776C434.117 23.4213 433.776 22.3547 433.093 21.576C432.421 20.7973 431.472 20.408 430.245 20.408C429.36 20.408 428.587 20.6053 427.925 21C427.264 21.3947 426.752 21.96 426.389 22.696C426.037 23.432 425.861 24.296 425.861 25.288V35H423.301V18.616Z" fill="white"/>
<path d="M460 24H496M496 24L486 14M496 24L486 34" stroke="white" stroke-width="2"/>
</svg>
