<svg width="365" height="322" viewBox="0 0 365 322" fill="none" xmlns="http://www.w3.org/2000/svg">
    <path d="M129.13 71.0701H83.8299C83.3786 71.0701 82.9318 71.1591 82.515 71.3321C82.0982 71.5051 81.7196 71.7587 81.401 72.0782C81.0824 72.3978 80.8299 72.7771 80.6581 73.1944C80.4863 73.6117 80.3986 74.0588 80.3999 74.5101V102.11C80.3999 103.02 80.7613 103.892 81.4045 104.535C82.0478 105.179 82.9202 105.54 83.8299 105.54H88.7199V114.54C88.7217 114.753 88.783 114.961 88.8967 115.14C89.0104 115.32 89.1721 115.464 89.3635 115.557C89.5549 115.649 89.7683 115.686 89.9797 115.664C90.1912 115.642 90.3921 115.561 90.5599 115.43L103 105.54H129.12C130.029 105.537 130.9 105.175 131.542 104.533C132.185 103.89 132.547 103.019 132.55 102.11V74.5101C132.55 73.6012 132.19 72.7292 131.549 72.0847C130.909 71.4401 130.039 71.0754 129.13 71.0701Z" fill="#4448BA"/>
    <path d="M95.2802 90.37C96.4179 90.37 97.3402 89.4477 97.3402 88.31C97.3402 87.1723 96.4179 86.25 95.2802 86.25C94.1425 86.25 93.2202 87.1723 93.2202 88.31C93.2202 89.4477 94.1425 90.37 95.2802 90.37Z" fill="#BDBEFF"/>
    <path d="M106.48 90.37C107.618 90.37 108.54 89.4477 108.54 88.31C108.54 87.1723 107.618 86.25 106.48 86.25C105.342 86.25 104.42 87.1723 104.42 88.31C104.42 89.4477 105.342 90.37 106.48 90.37Z" fill="#BDBEFF"/>
    <path d="M117.68 90.37C118.818 90.37 119.74 89.4477 119.74 88.31C119.74 87.1723 118.818 86.25 117.68 86.25C116.542 86.25 115.62 87.1723 115.62 88.31C115.62 89.4477 116.542 90.37 117.68 90.37Z" fill="#BDBEFF"/>
    <path d="M303.27 37.13L243.79 37C242.953 36.9974 242.124 37.1596 241.351 37.4773C240.577 37.795 239.873 38.262 239.28 38.8516C238.686 39.4413 238.215 40.142 237.892 40.9139C237.57 41.6857 237.402 42.5135 237.4 43.35L237.24 99.28C237.237 100.117 237.399 100.945 237.717 101.719C238.035 102.493 238.502 103.197 239.091 103.79C239.681 104.384 240.382 104.855 241.154 105.177C241.925 105.5 242.753 105.667 243.59 105.67L260 105.72L271.5 117.27C271.736 117.507 272.016 117.695 272.325 117.824C272.634 117.952 272.965 118.018 273.3 118.018C273.634 118.018 273.965 117.952 274.274 117.824C274.583 117.695 274.864 117.507 275.1 117.27L286.66 105.77H303.07C303.906 105.773 304.735 105.611 305.509 105.293C306.283 104.975 306.987 104.508 307.58 103.918C308.173 103.329 308.645 102.628 308.967 101.856C309.29 101.084 309.457 100.257 309.46 99.42L309.62 43.49C309.617 41.8058 308.948 40.1911 307.758 38.9993C306.568 37.8074 304.954 37.1353 303.27 37.13Z" fill="#4448BA"/>
    <path d="M268.22 93.91H267C266.08 93.91 265.4 93.91 265 93.85C263.729 93.6695 262.576 93.0071 261.78 92C261.287 91.2801 260.946 90.4666 260.78 89.61C260.547 88.5224 260.436 87.4122 260.45 86.3C260.45 83.39 260.4 78.74 260.29 77.45C260.24 76.3102 259.862 75.2093 259.2 74.28C258.809 73.8206 258.316 73.4592 257.76 73.2247C257.205 72.9903 256.602 72.8893 256 72.93V69.48C256.59 69.5128 257.18 69.41 257.724 69.1795C258.269 68.9489 258.753 68.5967 259.14 68.15C259.796 67.2065 260.174 66.0977 260.23 64.95C260.33 63.66 260.38 59.01 260.38 56.09C260.368 54.985 260.475 53.8819 260.7 52.8C260.869 51.9502 261.209 51.1437 261.7 50.43C262.181 49.8036 262.814 49.3112 263.54 49C263.904 48.8239 264.286 48.6897 264.68 48.6C265.042 48.5208 265.41 48.4739 265.78 48.46C266.13 48.46 266.55 48.46 267.02 48.46H268.2V51.78H267.55C266.782 51.7412 266.015 51.8533 265.29 52.11C265.036 52.2263 264.811 52.3966 264.629 52.609C264.448 52.8215 264.315 53.0709 264.24 53.34C264.003 54.25 263.902 55.1902 263.94 56.13V61.73C263.967 63.2352 263.843 64.7394 263.57 66.22C263.369 67.3072 262.921 68.3336 262.26 69.22C261.538 70.1195 260.588 70.81 259.51 71.22C260.522 71.661 261.429 72.312 262.17 73.13C262.855 73.9715 263.325 74.9666 263.54 76.03C263.843 77.5573 263.981 79.113 263.95 80.67V86.33C263.908 87.2671 264.012 88.2051 264.26 89.11C264.336 89.3778 264.47 89.6254 264.653 89.8348C264.837 90.0441 265.064 90.2099 265.32 90.32C266.044 90.5625 266.807 90.6677 267.57 90.63H268.22V93.91Z" fill="#F8873C"/>
    <path d="M278.69 48.4199H279.85C280.518 48.4109 281.186 48.4443 281.85 48.5199C282.379 48.5878 282.892 48.7432 283.37 48.9799C284.089 49.2844 284.711 49.7787 285.17 50.4099C285.667 51.1201 286.008 51.928 286.17 52.7799C286.403 53.864 286.514 54.971 286.5 56.0799C286.5 58.9699 286.56 63.6099 286.66 64.9199C286.715 66.0741 287.092 67.1898 287.75 68.1399C288.135 68.5923 288.62 68.9482 289.167 69.1792C289.714 69.4102 290.307 69.5097 290.9 69.4699V72.9099C290.308 72.8664 289.714 72.9633 289.167 73.1927C288.62 73.4221 288.134 73.7775 287.75 74.2299C287.094 75.1803 286.72 76.2964 286.67 77.4499C286.56 78.7499 286.51 83.3899 286.52 86.2599C286.533 87.372 286.422 88.4822 286.19 89.5699C286.026 90.4271 285.685 91.241 285.19 91.9599C284.732 92.5869 284.119 93.0834 283.41 93.3999C282.922 93.633 282.398 93.7785 281.86 93.8299C281.34 93.8299 280.69 93.9099 279.92 93.9099H278.77V90.6099H279.42C280.183 90.6461 280.947 90.5375 281.67 90.2899C281.925 90.1782 282.152 90.0105 282.334 89.7994C282.515 89.5882 282.647 89.3389 282.72 89.0699C282.956 88.1667 283.051 87.2322 283 86.2999V80.6399C282.905 78.5284 283.21 76.4179 283.9 74.4199C284.234 73.6743 284.716 73.0039 285.315 72.4489C285.915 71.8939 286.621 71.4657 287.39 71.1899C286.635 70.8366 285.932 70.3825 285.3 69.8399C284.726 69.3213 284.257 68.6965 283.92 67.9999C283.547 67.1749 283.301 66.2983 283.19 65.3999C283.029 64.1632 282.952 62.917 282.96 61.6699V56.0699C282.997 55.1368 282.896 54.2033 282.66 53.2999C282.581 53.0312 282.447 52.7821 282.267 52.5685C282.086 52.3549 281.862 52.1816 281.61 52.0599C280.885 51.8032 280.118 51.6911 279.35 51.7299H278.7L278.69 48.4199Z" fill="#F8873C"/>
    <path d="M184.87 250.91C232.764 250.91 271.59 212.084 271.59 164.19C271.59 116.296 232.764 77.47 184.87 77.47C136.976 77.47 98.1499 116.296 98.1499 164.19C98.1499 212.084 136.976 250.91 184.87 250.91Z" fill="white"/>
    <path fill-rule="evenodd" clip-rule="evenodd" d="M171.93 115.57C169.405 115.651 167.01 116.711 165.253 118.526C163.495 120.341 162.512 122.769 162.512 125.295C162.512 127.822 163.495 130.249 165.253 132.064C167.01 133.879 169.405 134.939 171.93 135.02H181.63V125.3C181.63 122.723 180.608 120.251 178.787 118.427C176.967 116.603 174.497 115.575 171.92 115.57H171.93ZM171.92 141.5H146.06C143.535 141.581 141.14 142.641 139.383 144.456C137.625 146.271 136.642 148.699 136.642 151.225C136.642 153.752 137.625 156.179 139.383 157.994C141.14 159.809 143.535 160.869 146.06 160.95H171.93C174.455 160.869 176.85 159.809 178.608 157.994C180.366 156.179 181.348 153.752 181.348 151.225C181.348 148.699 180.366 146.271 178.608 144.456C176.85 142.641 174.455 141.581 171.93 141.5H171.92Z" fill="#36C5F0"/>
    <path fill-rule="evenodd" clip-rule="evenodd" d="M233.39 151.22C233.432 149.919 233.211 148.624 232.743 147.41C232.274 146.196 231.565 145.088 230.66 144.154C229.755 143.219 228.671 142.475 227.473 141.968C226.274 141.46 224.986 141.199 223.685 141.199C222.383 141.199 221.095 141.46 219.897 141.968C218.699 142.475 217.615 143.219 216.71 144.154C215.804 145.088 215.096 146.196 214.627 147.41C214.158 148.624 213.938 149.919 213.98 151.22V161H223.68C224.961 160.999 226.228 160.744 227.41 160.252C228.592 159.759 229.665 159.037 230.568 158.128C231.47 157.22 232.184 156.141 232.668 154.956C233.153 153.77 233.398 152.501 233.39 151.22ZM207.51 151.22V125.3C207.51 122.728 206.488 120.26 204.669 118.441C202.85 116.622 200.382 115.6 197.81 115.6C195.237 115.6 192.77 116.622 190.951 118.441C189.132 120.26 188.11 122.728 188.11 125.3V151.22C188.11 153.793 189.132 156.26 190.951 158.079C192.77 159.898 195.237 160.92 197.81 160.92C200.382 160.92 202.85 159.898 204.669 158.079C206.488 156.26 207.51 153.793 207.51 151.22Z" fill="#2EB67D"/>
    <path fill-rule="evenodd" clip-rule="evenodd" d="M197.81 212.8C200.388 212.8 202.86 211.776 204.683 209.953C206.506 208.13 207.53 205.658 207.53 203.08C207.53 200.502 206.506 198.03 204.683 196.207C202.86 194.384 200.388 193.36 197.81 193.36H188.1V203.08C188.1 205.656 189.123 208.127 190.943 209.949C192.764 211.772 195.234 212.797 197.81 212.8ZM197.81 186.87H223.68C226.205 186.789 228.6 185.729 230.358 183.914C232.115 182.099 233.098 179.671 233.098 177.145C233.098 174.618 232.115 172.191 230.358 170.376C228.6 168.561 226.205 167.501 223.68 167.42H197.81C195.285 167.501 192.89 168.561 191.132 170.376C189.375 172.191 188.392 174.618 188.392 177.145C188.392 179.671 189.375 182.099 191.132 183.914C192.89 185.729 195.285 186.789 197.81 186.87Z" fill="#ECB22E"/>
    <path fill-rule="evenodd" clip-rule="evenodd" d="M136.36 177.15C136.318 178.451 136.538 179.747 137.007 180.96C137.476 182.174 138.184 183.282 139.09 184.217C139.995 185.151 141.079 185.895 142.277 186.402C143.476 186.91 144.764 187.172 146.065 187.172C147.366 187.172 148.654 186.91 149.853 186.402C151.051 185.895 152.135 185.151 153.04 184.217C153.946 183.282 154.654 182.174 155.123 180.96C155.592 179.747 155.812 178.451 155.77 177.15V167.43H146.06C144.784 167.43 143.521 167.682 142.343 168.17C141.165 168.659 140.095 169.375 139.194 170.278C138.293 171.181 137.579 172.253 137.093 173.432C136.606 174.611 136.357 175.874 136.36 177.15ZM162.23 177.15V203.08C162.188 204.381 162.408 205.677 162.877 206.89C163.346 208.104 164.054 209.212 164.96 210.147C165.865 211.081 166.949 211.825 168.147 212.332C169.346 212.84 170.634 213.102 171.935 213.102C173.236 213.102 174.524 212.84 175.723 212.332C176.921 211.825 178.005 211.081 178.91 210.147C179.816 209.212 180.524 208.104 180.993 206.89C181.462 205.677 181.682 204.381 181.64 203.08V177.16C181.682 175.859 181.462 174.564 180.993 173.35C180.524 172.136 179.816 171.028 178.91 170.093C178.005 169.159 176.921 168.415 175.723 167.908C174.524 167.4 173.236 167.138 171.935 167.138C170.634 167.138 169.346 167.4 168.147 167.908C166.949 168.415 165.865 169.159 164.96 170.093C164.054 171.028 163.346 172.136 162.877 173.35C162.408 174.564 162.188 175.859 162.23 177.16" fill="#E01E5A"/>
    <path d="M68.2499 272.29V289.29C68.2484 289.696 68.361 290.093 68.5749 290.438C68.7888 290.782 69.0954 291.059 69.4595 291.238C69.8236 291.416 70.2306 291.489 70.6338 291.446C71.0371 291.404 71.4204 291.25 71.7399 291L95.2999 272.29H144.71C145.563 272.291 146.408 272.124 147.197 271.799C147.985 271.473 148.702 270.996 149.305 270.393C149.909 269.79 150.388 269.074 150.715 268.286C151.042 267.498 151.21 266.653 151.21 265.8V213.57C151.21 211.846 150.525 210.193 149.306 208.974C148.087 207.755 146.434 207.07 144.71 207.07H61.8699C61.0168 207.07 60.172 207.238 59.384 207.565C58.5959 207.892 57.88 208.371 57.2772 208.974C56.6744 209.578 56.1966 210.295 55.871 211.083C55.5455 211.872 55.3786 212.717 55.3799 213.57V265.8C55.3786 266.653 55.5455 267.497 55.8712 268.285C56.1969 269.073 56.6749 269.789 57.2778 270.392C57.8807 270.995 58.5967 271.473 59.3847 271.799C60.1727 272.124 61.0172 272.291 61.8699 272.29H68.2499Z" fill="#4448BA"/>
    <path d="M130.92 225.56H75.6699V227.71H130.92V225.56Z" fill="#F8873C"/>
    <path d="M109.1 251.7H75.6699V253.85H109.1V251.7Z" fill="#F8873C"/>
    <path d="M130.92 238.63H75.6699V240.78H130.92V238.63Z" fill="#F8873C"/>
    <path d="M295.33 184.1L253.33 183.98C252.738 183.977 252.152 184.092 251.604 184.316C251.056 184.54 250.558 184.87 250.139 185.287C249.719 185.704 249.385 186.2 249.157 186.746C248.929 187.293 248.811 187.878 248.81 188.47L248.65 228C248.647 228.592 248.761 229.178 248.986 229.726C249.21 230.274 249.54 230.772 249.957 231.191C250.374 231.611 250.87 231.945 251.416 232.173C251.962 232.401 252.548 232.519 253.14 232.52H264.74L272.86 240.69C273.027 240.858 273.226 240.991 273.445 241.082C273.663 241.173 273.898 241.219 274.135 241.219C274.372 241.219 274.606 241.173 274.825 241.082C275.044 240.991 275.243 240.858 275.41 240.69L283.58 232.57H295.19C295.782 232.573 296.368 232.459 296.916 232.234C297.463 232.01 297.961 231.68 298.381 231.263C298.801 230.846 299.135 230.35 299.363 229.804C299.591 229.258 299.709 228.672 299.71 228.08L299.82 188.54C299.804 187.359 299.325 186.231 298.484 185.4C297.644 184.57 296.511 184.103 295.33 184.1Z" fill="#4448BA"/>
    <path d="M276.697 190.578L268.115 225.18L270.639 225.806L279.221 191.204L276.697 190.578Z" fill="#BDBEFF"/>
    <path d="M292.5 207.71L290.78 205.99H290.77L281.6 196.78L279.87 198.5L289.05 207.71L279.77 216.96L281.49 218.68L290.77 209.44L292.5 207.72V207.71Z" fill="#BDBEFF"/>
    <path d="M267.71 198.5L265.98 196.78L256.8 205.99L255.08 207.71V207.72L256.81 209.44L266.08 218.68L267.81 216.96L258.53 207.71L267.71 198.5Z" fill="#BDBEFF"/>
</svg>
