<svg width="72" height="72" viewBox="0 0 72 72" fill="none" xmlns="http://www.w3.org/2000/svg">
<circle cx="36" cy="36" r="36" fill="#B74AF7"/>
<path d="M31.0854 53L41.0214 37.064L40.8294 36.92C40.2214 37.816 39.3894 38.504 38.3334 38.984C37.2774 39.464 36.0934 39.704 34.7814 39.704C32.8934 39.704 31.2294 39.256 29.7894 38.36C28.3814 37.464 27.2934 36.2 26.5254 34.568C25.7574 32.904 25.3734 30.968 25.3734 28.76C25.3734 26.488 25.8374 24.52 26.7654 22.856C27.6934 21.16 28.9894 19.848 30.6534 18.92C32.3174 17.96 34.2534 17.48 36.4614 17.48C38.7014 17.48 40.6534 17.96 42.3174 18.92C44.0134 19.848 45.3254 21.16 46.2534 22.856C47.1814 24.52 47.6454 26.488 47.6454 28.76C47.6454 30.52 47.3894 32.248 46.8774 33.944C46.3974 35.64 45.6614 37.272 44.6694 38.84L35.8854 53H31.0854ZM36.5094 36.2C38.5574 36.2 40.2054 35.528 41.4534 34.184C42.7014 32.808 43.3254 31 43.3254 28.76C43.3254 26.52 42.7014 24.728 41.4534 23.384C40.2054 22.008 38.5574 21.32 36.5094 21.32C34.4614 21.32 32.8134 22.008 31.5654 23.384C30.3174 24.728 29.6934 26.52 29.6934 28.76C29.6934 31 30.3174 32.808 31.5654 34.184C32.8134 35.528 34.4614 36.2 36.5094 36.2Z" fill="white"/>
</svg>
