<svg width="72" height="72" viewBox="0 0 72 72" fill="none" xmlns="http://www.w3.org/2000/svg">
<circle cx="36" cy="36" r="33.5" fill="white" stroke="#B74AF7" stroke-width="5"/>
<path d="M31.0854 54L41.0214 38.064L40.8294 37.92C40.2214 38.816 39.3894 39.504 38.3334 39.984C37.2774 40.464 36.0934 40.704 34.7814 40.704C32.8934 40.704 31.2294 40.256 29.7894 39.36C28.3814 38.464 27.2934 37.2 26.5254 35.568C25.7574 33.904 25.3734 31.968 25.3734 29.76C25.3734 27.488 25.8374 25.52 26.7654 23.856C27.6934 22.16 28.9894 20.848 30.6534 19.92C32.3174 18.96 34.2534 18.48 36.4614 18.48C38.7014 18.48 40.6534 18.96 42.3174 19.92C44.0134 20.848 45.3254 22.16 46.2534 23.856C47.1814 25.52 47.6454 27.488 47.6454 29.76C47.6454 31.52 47.3894 33.248 46.8774 34.944C46.3974 36.64 45.6614 38.272 44.6694 39.84L35.8854 54H31.0854ZM36.5094 37.2C38.5574 37.2 40.2054 36.528 41.4534 35.184C42.7014 33.808 43.3254 32 43.3254 29.76C43.3254 27.52 42.7014 25.728 41.4534 24.384C40.2054 23.008 38.5574 22.32 36.5094 22.32C34.4614 22.32 32.8134 23.008 31.5654 24.384C30.3174 25.728 29.6934 27.52 29.6934 29.76C29.6934 32 30.3174 33.808 31.5654 35.184C32.8134 36.528 34.4614 37.2 36.5094 37.2Z" fill="#B74AF7"/>
</svg>
