<svg width="72" height="72" viewBox="0 0 72 72" fill="none" xmlns="http://www.w3.org/2000/svg">
<circle cx="36" cy="36" r="36" fill="#979797"/>
<path d="M36.5094 53.48C34.3654 53.48 32.4934 53.112 30.8934 52.376C29.3254 51.608 28.1094 50.52 27.2454 49.112C26.3814 47.704 25.9494 46.056 25.9494 44.168C25.9494 42.088 26.5094 40.296 27.6294 38.792C28.7814 37.288 30.5894 35.944 33.0534 34.76L37.7094 32.504C39.1174 31.832 40.2054 30.952 40.9734 29.864C41.7414 28.776 42.1254 27.576 42.1254 26.264C42.1254 24.728 41.6134 23.512 40.5894 22.616C39.5974 21.72 38.2374 21.272 36.5094 21.272C34.7814 21.272 33.4054 21.736 32.3814 22.664C31.3894 23.56 30.8934 24.776 30.8934 26.312C30.8934 27.592 31.2614 28.776 31.9974 29.864C32.7654 30.952 33.8054 31.816 35.1174 32.456L39.7734 34.664C42.3334 35.848 44.1894 37.208 45.3414 38.744C46.4934 40.248 47.0694 42.056 47.0694 44.168C47.0694 47.016 46.1094 49.288 44.1894 50.984C42.3014 52.648 39.7414 53.48 36.5094 53.48ZM36.5094 49.64C38.4614 49.64 39.9974 49.144 41.1174 48.152C42.2694 47.128 42.8454 45.768 42.8454 44.072C42.8454 42.696 42.4774 41.448 41.7414 40.328C41.0054 39.208 39.9494 38.312 38.5734 37.64L33.9654 35.384C31.4054 34.136 29.5494 32.792 28.3974 31.352C27.2454 29.912 26.6694 28.184 26.6694 26.168C26.6694 24.376 27.0694 22.824 27.8694 21.512C28.6694 20.2 29.8054 19.192 31.2774 18.488C32.7494 17.784 34.4934 17.432 36.5094 17.432C38.5254 17.432 40.2694 17.784 41.7414 18.488C43.2134 19.192 44.3494 20.2 45.1494 21.512C45.9494 22.824 46.3494 24.376 46.3494 26.168C46.3494 28.184 45.7734 29.912 44.6214 31.352C43.4694 32.76 41.5654 34.12 38.9094 35.432L34.3014 37.688C32.9894 38.328 31.9654 39.208 31.2294 40.328C30.5254 41.416 30.1734 42.632 30.1734 43.976C30.1734 45.704 30.7334 47.08 31.8534 48.104C33.0054 49.128 34.5574 49.64 36.5094 49.64Z" fill="white"/>
</svg>
