<svg width="72" height="72" viewBox="0 0 72 72" fill="none" xmlns="http://www.w3.org/2000/svg">
<circle cx="36" cy="36" r="33.5" fill="white" stroke="#B74AF7" stroke-width="5"/>
<path d="M36.5094 54.48C34.3654 54.48 32.4934 54.112 30.8934 53.376C29.3254 52.608 28.1094 51.52 27.2454 50.112C26.3814 48.704 25.9494 47.056 25.9494 45.168C25.9494 43.088 26.5094 41.296 27.6294 39.792C28.7814 38.288 30.5894 36.944 33.0534 35.76L37.7094 33.504C39.1174 32.832 40.2054 31.952 40.9734 30.864C41.7414 29.776 42.1254 28.576 42.1254 27.264C42.1254 25.728 41.6134 24.512 40.5894 23.616C39.5974 22.72 38.2374 22.272 36.5094 22.272C34.7814 22.272 33.4054 22.736 32.3814 23.664C31.3894 24.56 30.8934 25.776 30.8934 27.312C30.8934 28.592 31.2614 29.776 31.9974 30.864C32.7654 31.952 33.8054 32.816 35.1174 33.456L39.7734 35.664C42.3334 36.848 44.1894 38.208 45.3414 39.744C46.4934 41.248 47.0694 43.056 47.0694 45.168C47.0694 48.016 46.1094 50.288 44.1894 51.984C42.3014 53.648 39.7414 54.48 36.5094 54.48ZM36.5094 50.64C38.4614 50.64 39.9974 50.144 41.1174 49.152C42.2694 48.128 42.8454 46.768 42.8454 45.072C42.8454 43.696 42.4774 42.448 41.7414 41.328C41.0054 40.208 39.9494 39.312 38.5734 38.64L33.9654 36.384C31.4054 35.136 29.5494 33.792 28.3974 32.352C27.2454 30.912 26.6694 29.184 26.6694 27.168C26.6694 25.376 27.0694 23.824 27.8694 22.512C28.6694 21.2 29.8054 20.192 31.2774 19.488C32.7494 18.784 34.4934 18.432 36.5094 18.432C38.5254 18.432 40.2694 18.784 41.7414 19.488C43.2134 20.192 44.3494 21.2 45.1494 22.512C45.9494 23.824 46.3494 25.376 46.3494 27.168C46.3494 29.184 45.7734 30.912 44.6214 32.352C43.4694 33.76 41.5654 35.12 38.9094 36.432L34.3014 38.688C32.9894 39.328 31.9654 40.208 31.2294 41.328C30.5254 42.416 30.1734 43.632 30.1734 44.976C30.1734 46.704 30.7334 48.08 31.8534 49.104C33.0054 50.128 34.5574 50.64 36.5094 50.64Z" fill="#B74AF7"/>
</svg>
