<svg width="239" height="64" viewBox="0 0 239 64" fill="none" xmlns="http://www.w3.org/2000/svg">
<path d="M97.4743 20.0753C96.1237 19.6921 92.9528 19.0787 89.4595 19.0553C82.0894 18.9974 76.0282 24.0216 76.0282 32.6723C76.0282 40.4353 80.9555 46.3982 89.6762 46.3982C93.6851 46.3982 97.7189 45.1094 99.0181 44.2217C98.7193 41.323 98.6957 35.9074 99.0181 34.9301C99.3099 34.0438 99.6726 33.6758 99.9713 33.4883L100.358 33.3008C100.465 33.254 100.54 33.2112 100.563 33.1299C100.59 33.0362 100.488 32.9921 100.287 32.9811L99.428 33.0197L98.1524 33.1299L96.635 33.1837L94.6786 33.0982L92.4442 32.9301L90.6322 32.8405L90.1056 32.8722C89.9875 32.8915 89.9277 32.9218 89.9472 32.9687C89.9945 33.1175 90.3015 33.2071 90.7392 33.3008L91.4757 33.458L92.3108 33.6565C93.4419 33.9845 94.5716 34.5827 94.6577 35.9501C94.8509 38.9591 94.7925 41.7255 94.6855 42.8544C94.0366 43.7379 92.2483 44.5112 89.7026 44.4368C85.0199 44.3044 80.9833 41.323 80.9833 32.6723C80.9833 24.1856 85.1533 20.6928 89.9472 20.6928C93.8671 20.6928 96.2932 22.4585 97.0616 24.6667C97.1089 24.8031 97.1756 24.8927 97.2339 24.9079C97.2937 24.9203 97.3451 24.8541 97.3645 24.6777L97.4312 23.5102L97.4868 22.2518L97.6327 20.5481C97.6522 20.2311 97.6202 20.118 97.4743 20.0753ZM48.8378 45.6484C49.6688 45.6484 50.3774 45.6787 50.9805 45.7187L52.4853 45.8275C53.2927 45.8868 53.7262 45.891 53.9027 45.6759L53.8721 45.5422L53.5761 45.4333L52.477 45.1825C51.6141 44.9647 50.6136 44.5856 50.2482 43.7379C49.8772 42.8861 49.6257 40.6228 49.6257 33.6923V24.2091C49.7869 24.8817 50.7637 26.4407 57.4251 34.5276L62.0759 40.1858L65.2232 43.953C66.8656 45.8744 67.6452 46.6518 67.8508 46.5071C68.1107 46.3238 68.1496 45.8593 68.1218 43.9295L68.0509 39.7834L68.0078 32.5317C68.0078 25.0609 68.1496 22.759 68.2288 21.7666C68.308 20.8183 68.8277 20.3882 69.3043 20.1497L69.9226 19.8989C70.0796 19.8368 70.1672 19.7817 70.1227 19.6962C70.0282 19.524 69.7531 19.5681 69.2251 19.6535L68.2371 19.79C67.8383 19.8286 67.37 19.8603 66.8226 19.8603C66.2834 19.8603 65.7276 19.8258 65.1954 19.779L63.7072 19.626C62.8096 19.5322 62.1551 19.4895 62.0565 19.6962C62.0009 19.8093 62.1551 19.8796 62.4233 19.9499L63.4752 20.1883C64.2825 20.3992 65.1718 20.7714 65.4122 21.6301C65.5664 22.1925 65.7359 24.5027 65.7596 30.0355C65.779 33.9928 65.9555 37.4553 66.1181 38.4477C65.9249 37.8729 65.3496 37.068 64.2116 35.6606L58.9411 29.2608L52.9897 21.9816C51.8309 20.5757 51.3584 20.0367 51.1417 19.8878C50.8943 19.7197 50.6845 19.6811 50.2718 19.6811L48.1875 19.7238L46.766 19.6687L45.6947 19.5708C45.1 19.5171 44.7498 19.5088 44.6706 19.6962C44.6275 19.7941 44.7651 19.8685 45.0013 19.9692L45.4154 20.1415L45.9114 20.3841C46.5965 20.7714 47.3218 21.4427 47.4038 22.759C47.4552 23.6467 47.4636 24.8652 47.4552 26.5344L47.4316 32.9962L47.4274 37.2044L47.3969 40.4243C47.3566 42.2451 47.2746 43.4126 47.1051 43.9295C46.8494 44.7069 46.1518 45.0419 45.5446 45.2335L44.7651 45.4526C44.5761 45.5119 44.4775 45.5739 44.533 45.6759C44.6386 45.8785 45.1583 45.8703 45.9309 45.8165L47.2551 45.7104L48.8378 45.6484ZM33.7961 19.9499C33.1333 19.9499 32.4913 19.9154 31.9008 19.8644L30.3181 19.7004L29.2537 19.6177L28.9786 19.6535L28.923 19.7624C28.9591 19.8796 29.1009 19.9388 29.2968 19.9967L29.6317 20.0946L30.0138 20.2311C30.5376 20.4737 31.0809 20.9657 31.2394 22.1925C31.4603 23.9513 31.609 26.8666 31.609 32.5827L31.5784 39.6C31.5464 41.4278 31.4797 42.7483 31.345 43.5615C31.2116 44.3789 30.546 44.82 29.9513 45.1011L29.1912 45.4292L28.9939 45.5505L29.0022 45.6718C29.1634 45.8468 29.8012 45.8275 30.6794 45.7655L32.1453 45.6553L33.7961 45.5891L35.4649 45.6594L36.9823 45.7697C37.8883 45.8317 38.5344 45.8441 38.6164 45.6442C38.6553 45.5464 38.5302 45.4802 38.3093 45.4058L37.4589 45.1094C36.8044 44.8393 36.0722 44.3623 35.8443 43.3465C35.6747 42.6118 35.6039 41.3506 35.5719 39.5573L35.5566 32.5551L35.5761 25.83C35.6039 24.147 35.6539 22.9547 35.7609 22.0602C35.8943 20.9382 36.5363 20.4971 37.0962 20.2821L37.8007 20.067C37.9661 20.0133 38.037 19.9581 37.9425 19.8451C37.7938 19.6728 37.3214 19.7004 36.6043 19.7707L35.351 19.8878L33.7961 19.9499ZM19.0726 19.8878L17.7206 19.8134L16.3658 19.6618C15.5265 19.5681 14.8845 19.5129 14.8456 19.6728C14.8109 19.8093 14.9318 19.8961 15.1249 19.9692L15.8503 20.1842C16.3699 20.3482 16.8507 20.6032 16.634 21.2318C16.5117 21.5915 16.0156 22.2559 14.6678 23.8493L7.59086 32.0314C15.7127 41.8068 16.9369 43.3037 17.3662 43.9598C17.8234 44.6628 17.4371 45.035 16.9563 45.2693L16.256 45.5422C16.0629 45.6167 15.9406 45.6787 15.9837 45.7572C16.0712 45.9295 16.6381 45.9171 17.5205 45.8634L19.0559 45.7655L20.9387 45.7021L22.7938 45.7572L24.2792 45.851C25.1226 45.9061 25.6493 45.9171 25.7326 45.7572C25.7715 45.6787 25.7285 45.6401 25.6145 45.5932L25.0629 45.3713C24.5626 45.1397 23.8109 44.6835 22.8883 43.6084C21.935 42.4946 15.6613 35.0128 12.0846 30.4448C14.6289 27.0072 18.6029 22.5757 20.155 21.5254C21.0888 20.8954 22.0031 20.5605 22.652 20.3455L23.3968 20.0946C23.558 20.0243 23.6247 19.9623 23.5663 19.8878C23.4441 19.7431 22.7118 19.7431 21.8141 19.7817L20.3996 19.852L19.0726 19.8878ZM5.12444 19.8878L3.60845 19.8093L2.05217 19.6577L0.858563 19.5874L0.523686 19.626L0.441703 19.728C0.472273 19.8286 0.63068 19.9071 0.847447 19.9926L1.63114 20.3138C2.19808 20.595 2.76917 21.0595 2.85255 21.9857C3.01373 23.8383 3.09571 25.9596 3.09571 32.7274C3.09571 38.5566 3.01373 41.5146 2.85255 43.4209C2.76917 44.3747 2.02855 44.8475 1.33517 45.1246L0.413912 45.4375C0.177691 45.5147 0.0401274 45.5822 0.0873716 45.6759C0.18186 45.8634 0.834941 45.8593 1.7298 45.8041L3.20688 45.7063L4.80206 45.6484L6.48757 45.7187L8.18836 45.8358C9.24857 45.9061 10.0684 45.9337 10.1629 45.7572C10.2101 45.6718 10.0948 45.6084 9.89054 45.5381L9.07488 45.2569C8.44959 45.0115 7.74371 44.6008 7.53528 43.7683C7.29072 42.8034 7.23931 38.9591 7.23931 32.7274C7.23931 26.6047 7.26293 23.9982 7.40188 22.1194C7.4797 21.0016 8.04385 20.5054 8.5677 20.2435L9.25691 19.9733C9.43755 19.9071 9.54455 19.852 9.51259 19.7555C9.42921 19.5281 8.89424 19.5639 8.09804 19.6535L6.73213 19.8051C6.22773 19.852 5.68442 19.8878 5.12444 19.8878Z" fill="white"/>
<path d="M235.945 44.0026C235.386 43.1866 232.975 38.7316 230.021 33.0086C232.928 31.9734 234.843 29.5696 235.032 26.4282C235.291 22.1497 232.136 19.5515 227.204 19.5515L225.727 19.6066L224.04 19.7155C222.844 19.7941 221.504 19.8727 220.026 19.8727C218.738 19.8727 217.451 19.7472 216.474 19.6494L215.285 19.5405C214.995 19.5212 214.821 19.5281 214.8 19.5791C214.74 19.7348 214.875 19.8286 215.117 19.9154L216.073 20.2049C216.805 20.4543 217.617 20.8954 217.807 21.9706C218.031 23.229 218.161 25.3807 218.161 32.8473C218.161 39.9667 218.018 42.19 217.671 43.7806C217.483 44.6476 216.718 45.035 216.006 45.2652L215.047 45.527C214.793 45.6015 214.628 45.6718 214.628 45.7848C214.628 45.964 215.16 45.9764 216.056 45.9406L217.665 45.8744L219.704 45.8234L221.535 45.8827L223.044 45.9805C223.907 46.0343 224.442 46.0384 224.442 45.851C224.442 45.7531 224.36 45.6952 224.222 45.6401L223.699 45.4443C223.289 45.2734 222.797 44.9798 222.466 44.292C222.205 43.7572 222.13 43.2141 222.119 41.7558L222.167 33.735H226.339L232.162 45.7696C232.225 45.9061 232.446 45.9213 232.792 45.902L233.402 45.8551L234.19 45.8234L235.473 45.8827L236.785 45.9723C237.601 46.0233 238.239 46.0274 238.305 45.851C238.348 45.7379 238.297 45.6759 238.179 45.6208L237.648 45.425C237.19 45.2459 236.556 44.8985 235.945 44.0026ZM225.355 31.9142C224.242 31.9969 223.533 31.9969 223.057 31.9762L222.163 31.9142V21.6191C223.25 21.4316 223.74 21.404 225.444 21.404C228.044 21.404 230.874 22.4943 230.725 26.4834C230.6 29.8507 229.154 31.6289 225.355 31.9142ZM208.573 23.983C208.639 23.9899 208.671 23.8769 208.685 23.6701L208.687 22.7673L208.671 21.4151L208.733 19.739C208.742 19.6576 208.704 19.5474 208.411 19.5791C206.991 19.7238 204.462 19.8727 198.958 19.8727C195.737 19.8727 193.598 19.7321 192.255 19.6218L190.797 19.5046C190.489 19.4853 190.344 19.4936 190.325 19.5515C190.273 19.7086 190.415 19.7858 190.654 19.8603L191.6 20.1304C192.309 20.3923 193.05 20.9189 193.082 22.2793C193.125 24.0684 193.164 29.0623 193.164 32.6874C193.164 38.7868 193.109 43.0336 193.058 43.5656C192.944 44.7097 192.281 45.1673 191.671 45.3975L190.871 45.6359C190.672 45.6952 190.558 45.7572 190.605 45.8785C190.66 46.0233 191.535 46.0109 193.182 45.9612L196.219 45.8744L200.371 45.8234L209.075 45.8358C209.197 45.8358 209.249 45.7807 209.268 45.7145L209.282 45.5146C209.282 44.0191 209.407 42.8971 209.518 42.1045L209.652 41.159C209.684 40.9205 209.689 40.7565 209.66 40.6669L209.557 40.5525L209.443 40.682L209.025 41.4277C208.629 42.0646 207.932 42.8737 206.599 43.2183C205.244 43.5697 202.555 43.8082 197.434 43.8082L197.418 32.9576C197.418 32.9576 198.611 32.8749 200.939 32.8749C203.767 32.8749 204.437 32.9893 205.244 33.5751C205.743 33.9376 205.974 34.4228 206.122 34.817L206.309 35.3133C206.368 35.4346 206.431 35.509 206.521 35.509C206.693 35.509 206.693 35.243 206.65 34.6723L206.568 33.5861L206.521 32.0162L206.554 30.613L206.617 29.5544C206.655 28.9755 206.655 28.6598 206.521 28.6598C206.45 28.6598 206.399 28.7646 206.335 28.9286L206.088 29.5392C205.857 29.9913 205.469 30.4807 204.676 30.6171C203.388 30.8473 201.777 31.0072 197.417 30.941L197.432 21.6466H201.97C204.95 21.6466 206.074 21.7831 206.992 22.2793C207.702 22.6625 208.016 23.0843 208.193 23.4123L208.386 23.819C208.44 23.9154 208.491 23.9789 208.573 23.983ZM164.211 19.9154L162.569 19.8492L160.976 19.7279C160 19.6576 159.267 19.6383 159.199 19.8368C159.157 19.9581 159.302 20.0091 159.544 20.056L159.969 20.1304L160.484 20.2434C161.189 20.4461 161.934 20.8996 162.017 22.1456C162.139 23.9871 162.166 26.3497 162.166 32.8211L162.198 40.1073C162.198 41.8109 162.163 42.8737 162.016 43.5532C161.818 44.4836 160.942 44.9013 160.144 45.1631L159.113 45.476C158.856 45.5698 158.718 45.6676 158.795 45.8124C158.874 45.9681 159.535 45.9378 160.526 45.8634L162.23 45.7462L164.236 45.6759C164.935 45.6759 165.62 45.7104 166.255 45.7531L167.987 45.8868C169 45.9681 169.669 45.9998 169.708 45.8124C169.739 45.6318 169.598 45.5381 169.354 45.4567L168.408 45.1756C167.675 44.9219 166.84 44.4285 166.509 43.1245C166.241 42.0687 166.187 39.3381 166.187 33.0513L168.719 32.9659L171.767 32.8914C173.823 32.8914 175.801 32.9452 177.181 33.0238L177.201 38.2478C177.201 40.3926 177.181 42.4946 177.102 43.2059C176.949 44.558 176.204 45.086 175.53 45.3396L174.647 45.5849C174.427 45.6442 174.305 45.7021 174.365 45.8358C174.455 46.0467 174.94 46.0467 175.839 45.9957L177.491 45.8978L179.78 45.8358L182.083 45.8909L183.667 45.9681C184.496 46.0109 184.881 46.004 184.928 45.8124C184.957 45.6828 184.801 45.6056 184.55 45.5229L183.565 45.2059C182.81 44.9178 181.962 44.4023 181.651 43.2334C181.343 42.0921 181.273 37.2402 181.273 32.704L181.297 26.0919C181.326 24.3028 181.382 22.923 181.49 21.9581C181.61 20.9037 182.353 20.486 183.039 20.2779L183.94 20.067C184.173 20.0091 184.304 19.9499 184.252 19.8368C184.141 19.6066 183.598 19.6218 182.746 19.6921L181.259 19.8175L179.403 19.8878L177.592 19.8327L176.206 19.7348C175.429 19.6811 174.961 19.6728 174.854 19.8603C174.791 19.9691 174.886 20.0243 175.062 20.0794L175.792 20.2751C176.349 20.4667 176.967 20.8417 177.076 21.7941C177.153 22.5329 177.184 23.6425 177.195 25.116L177.209 30.6047L171.737 30.6323L168.817 30.6047L166.186 30.5551L166.165 24.5026C166.173 23.1353 166.209 22.3262 166.318 21.7941C166.532 20.7865 167.146 20.4226 167.688 20.2545L168.385 20.0877C168.565 20.0408 168.662 19.9816 168.622 19.8603C168.551 19.6618 168.123 19.6769 167.371 19.739L166.011 19.852L164.211 19.9154ZM152.189 23.1656L152.24 21.6701L152.333 20.6804C152.381 20.1731 152.377 19.943 152.16 19.8603C150.251 19.1531 148.611 18.719 145.93 18.8403C141.441 19.0443 137.903 21.9857 137.725 25.932C137.564 29.6123 140.168 32.1168 144.741 33.7502C149.859 35.5751 151.782 37.4897 150.811 40.9949C150.295 42.8351 148.204 44.7221 144.335 44.4409C141.849 44.2576 139.512 43.3657 137.941 40.5993L137.713 40.3071L137.56 40.303C137.482 40.3857 137.446 40.631 137.454 40.9784L137.513 42.1197L137.553 43.4484L137.521 44.5456L137.535 45.2417C137.561 45.5932 137.631 45.7421 137.782 45.8C138.159 45.9447 141.194 46.6173 143.875 46.6173C150.245 46.6173 153.667 43.1824 154.341 38.8929C154.88 35.4663 153.652 31.9224 147.313 29.91C143.122 28.5771 140.802 27.1822 141.071 24.3882C141.291 22.1263 143.753 20.6928 145.947 20.5991C149.087 20.4667 150.863 21.4316 151.703 23.138C151.773 23.2869 151.896 23.4165 151.999 23.4468C152.103 23.4744 152.189 23.4082 152.189 23.1656Z" fill="white"/>
<path d="M148.206 11.6631C124.239 5.31012 114.028 2.81388 109.209 25.3779C106.774 36.7675 105.426 45.0074 104.911 50.3293C104.655 52.9896 104.604 54.9235 104.73 56.1544C104.86 57.3853 105.162 57.9173 105.613 57.7767C107.401 57.2171 111.485 45.9171 115.817 25.7294C119.257 9.70991 123.806 7.78293 148.206 11.6631Z" fill="white"/>
<path d="M130.104 10.9243C131.684 10.9243 132.968 12.151 132.968 13.6631C132.968 15.1793 131.684 16.4061 130.104 16.4061C128.521 16.4061 127.24 15.1793 127.24 13.6631C127.24 12.151 128.521 10.9243 130.104 10.9243Z" fill="white"/>
<path d="M110.828 19.3447L110.772 19.5046L111.859 19.189C113.765 18.6955 115.566 18.3992 117.252 18.2779L117.96 18.2393L117.992 18.1497L118.016 18.0987L117.236 18.1414C115.543 18.2669 113.733 18.5632 111.82 19.0553M117.063 20.8375L117.102 20.7038L116.671 20.6377C115.092 20.4695 113.3 20.5053 111.284 20.7783L110.326 20.9382L110.283 21.087L111.303 20.9147C113.308 20.6418 115.092 20.6073 116.656 20.7741L117.063 20.8375Z" fill="white"/>
<path d="M104.364 21.9003C118.485 15.3792 128.63 18.231 131.487 24.7177C134.346 31.203 129.912 41.323 114.869 49.341C114.625 49.4734 114.455 49.4541 114.401 49.3645C114.35 49.2707 114.412 49.1026 114.629 48.9385C122.779 42.7055 126.855 33.9776 125.597 27.8466C124.335 21.7128 117.74 18.18 104.553 22.3414C104.203 22.4544 104.002 22.4158 103.963 22.3138C103.927 22.209 104.057 22.0409 104.364 21.9003Z" fill="white"/>
</svg>
