<svg width="317" height="64" viewBox="0 0 317 64" fill="none" xmlns="http://www.w3.org/2000/svg">
<g clip-path="url(#clip0_202_2330)">
<path d="M173.199 33.8163H163.703V36.0193H173.199V33.8163Z" fill="white"/>
<path d="M5.77333 20.5224L4.93772 42.5522V42.932C4.93772 44.8312 5.46947 45.211 8.4321 45.3629V46.3505C6.22912 46.1985 5.3935 46.1226 4.25403 46.1226C3.03859 46.1226 2.20298 46.1985 0 46.3505V45.3629C2.96263 45.135 3.41842 44.8312 3.49438 42.4763L4.40596 21.5859V21.358C4.40596 19.3829 3.79824 19.0031 0.911579 18.7752V17.7117C2.58281 17.8636 3.19052 17.8636 4.40596 17.8636C6.00122 17.8636 6.83684 17.7877 8.4321 17.6357L16.3324 39.1338L24.3088 17.7877C26.2079 17.9396 27.1195 18.0156 28.4109 18.0156C29.4744 18.0156 30.1581 17.9396 31.7533 17.8636V18.9271C28.8667 19.0791 28.2589 19.5349 28.2589 21.434V21.7378L28.7147 42.5522C28.7907 44.8312 29.1705 45.211 32.2091 45.4389V46.4264C29.5503 46.1985 28.4868 46.1226 26.8916 46.1226C25.2963 46.1226 24.2328 46.1985 21.574 46.4264V45.4389C24.4607 45.287 25.0684 44.8312 25.0684 42.7801V42.5522L24.6886 20.5224L17.6998 39.5136L17.1681 40.881L16.5603 42.4763L16.0286 44.0715L15.5728 45.4389H14.9651L14.4333 44.1475L13.8256 42.4763L13.2179 40.805L12.6861 39.2857L5.77333 20.5224Z" fill="white"/>
<path d="M43.2236 45.3629C39.3494 45.3629 37.6782 42.4003 37.6022 35.7913H50.2884C50.2124 29.2584 47.5536 25.764 42.5399 25.764C37.4503 25.764 34.2598 29.8661 34.2598 36.3991C34.2598 42.932 37.4503 46.8062 42.9198 46.8062C47.0978 46.8062 49.8326 44.2234 50.3643 39.8175H48.6171C48.0854 43.4638 46.2622 45.3629 43.2236 45.3629ZM37.6782 34.272C38.134 29.4103 39.7292 26.9035 42.464 26.9035C45.1987 26.9035 46.642 29.2584 46.8699 34.272H37.6782Z" fill="white"/>
<path d="M52.7965 27.3593V26.5996C55.2273 26.3717 56.6707 26.1438 58.4179 25.6121C58.6458 27.2073 58.7217 27.891 58.7977 29.1064V29.5622C59.7093 27.1314 61.5324 25.764 63.7354 25.764C65.8624 25.764 67.4577 27.1314 67.4577 29.1824C67.4577 30.3978 66.698 31.2335 65.6345 31.2335C64.647 31.2335 63.8873 30.6257 63.8873 29.7901C63.8873 29.7142 63.9633 29.5622 63.9633 29.3343L64.0393 28.8785V28.4987C64.0393 27.891 63.5075 27.5112 62.7479 27.5112C60.5449 27.5112 59.1015 30.17 59.1015 34.424V43.3119C59.1015 45.135 59.5573 45.5149 62.1401 45.5908V46.4264C59.7852 46.1985 58.8736 46.1985 57.4303 46.1985C55.911 46.1985 54.9994 46.2745 52.6445 46.4264V45.5908C55.2273 45.4389 55.6831 45.135 55.6831 43.3119V30.094V29.4103C55.6072 27.5871 55.4552 27.3593 53.2522 27.3593H52.7965Z" fill="white"/>
<path d="M83.714 25.3842V32.373H82.8024C82.0427 28.6507 80.4475 26.9035 77.8647 26.9035C74.6741 26.9035 72.775 30.3219 72.775 36.3991C72.775 42.3244 74.4462 45.363 77.7127 45.363C80.3715 45.363 81.8908 43.4638 82.4226 39.7416H84.1697C83.638 44.2994 81.2071 46.7303 77.3329 46.7303C72.3952 46.7303 69.0527 42.5523 69.0527 36.3231C69.0527 30.018 72.4712 25.6881 77.4848 25.6881C79.308 25.6881 80.4475 26.1438 81.8148 27.5112L82.9543 25.3082H83.714V25.3842Z" fill="white"/>
<path d="M96.2471 45.3629C92.3729 45.3629 90.7016 42.4003 90.6257 35.7913H103.312C103.236 29.2584 100.577 25.764 95.5634 25.764C90.4737 25.764 87.2832 29.8661 87.2832 36.3991C87.2832 42.932 90.4737 46.8062 95.9432 46.8062C100.121 46.8062 102.856 44.2234 103.388 39.8175H101.717C101.109 43.4638 99.2097 45.3629 96.2471 45.3629ZM90.7016 34.272C91.1574 29.4103 92.7527 26.9035 95.4874 26.9035C98.2221 26.9035 99.6655 29.2584 99.8934 34.272H90.7016Z" fill="white"/>
<path d="M123.063 42.0204V17.4838C120.936 18.0155 119.037 18.3953 116.682 18.6232V19.3829C119.341 19.3829 119.721 19.6867 119.721 21.8897V29.3343C118.126 26.7515 116.91 25.9918 114.631 25.9918C110.073 25.9918 106.883 30.2459 106.883 36.399C106.883 42.5522 110.149 46.8062 114.783 46.8062C117.214 46.8062 118.885 45.6667 120.025 43.3118C120.177 44.9071 120.177 45.059 120.632 46.7302C122.38 46.1985 123.063 46.0466 125.57 45.7427L126.178 45.6667V44.9071C123.291 44.8311 123.063 44.6032 123.063 42.0204ZM115.087 45.6667C112.048 45.6667 110.377 42.4762 110.377 36.399C110.377 30.2459 111.896 27.2073 114.935 27.2073C118.05 27.2073 119.721 30.4738 119.721 36.7029C119.721 42.5522 118.126 45.6667 115.087 45.6667Z" fill="white"/>
<path d="M136.735 45.3629C132.861 45.3629 131.19 42.4003 131.114 35.7913H143.8C143.724 29.2584 141.065 25.764 136.052 25.764C130.962 25.764 127.771 29.8661 127.771 36.3991C127.771 42.932 130.962 46.8062 136.431 46.8062C140.61 46.8062 143.344 44.2234 143.876 39.8175H142.205C141.673 43.4638 139.774 45.3629 136.735 45.3629ZM131.266 34.272C131.722 29.4103 133.317 26.9035 136.052 26.9035C138.786 26.9035 140.23 29.2584 140.458 34.272H131.266Z" fill="white"/>
<path d="M147.447 46.8063V39.7415L148.359 39.6656C149.118 43.5398 150.942 45.4389 153.904 45.4389C156.411 45.4389 158.31 43.7677 158.31 41.6406C158.31 40.1973 157.475 39.2098 155.424 38.2982L153.828 37.6145L151.853 36.7029C148.739 35.2596 147.751 34.0442 147.751 31.6133C147.751 28.2708 150.41 25.9919 154.132 25.9919C155.803 25.9919 157.019 26.3717 158.462 27.3593L159.222 25.6121H159.981V32.221H158.994C158.614 28.8026 157.247 27.2073 154.512 27.2073C152.233 27.2073 150.486 28.7266 150.486 30.7017C150.486 32.3729 151.094 32.9807 154.968 34.6519L156.715 35.4115C159.981 36.7789 161.121 38.1463 161.121 40.6531C161.121 44.2235 158.31 46.8063 154.284 46.8063C152.309 46.8063 150.79 46.2745 149.194 44.9831L148.207 46.8822H147.447V46.8063Z" fill="white"/>
<path d="M193.329 24.9284C193.329 22.7254 192.418 20.7503 190.747 19.5349C189.303 18.4714 187.632 18.0156 184.897 18.0156H173.73V19.0031C176.769 19.155 177.225 19.5349 177.225 21.8138V42.4003C177.225 44.6792 176.921 44.9831 173.73 45.211V46.3505H184.517C187.632 46.3505 189.379 45.9706 191.126 44.8312C193.253 43.4638 194.621 40.881 194.621 38.2222C194.621 35.9433 193.633 33.8163 191.962 32.6008C191.05 31.9171 190.139 31.5373 188.62 31.2334C191.658 30.018 193.329 27.891 193.329 24.9284ZM180.719 19.307H184.366C187.936 19.307 189.531 21.0542 189.531 25.0043C189.531 26.9794 189.075 28.3468 188.164 29.4863C187.252 30.5498 186.113 30.8536 183.682 30.8536H180.795V19.307H180.719ZM184.821 32.145C187.1 32.145 188.316 32.5249 189.303 33.5124C190.291 34.4999 190.823 36.3231 190.823 38.3741C190.823 42.6282 188.696 44.9831 184.897 44.9831H183.378C181.099 44.9831 180.719 44.6792 180.719 42.7801V32.145H184.821Z" fill="white"/>
<path d="M207.081 45.3629C203.207 45.3629 201.536 42.4003 201.46 35.7913H214.146C214.07 29.2584 211.411 25.764 206.397 25.764C201.308 25.764 198.117 29.8661 198.117 36.3991C198.117 42.932 201.308 46.8062 206.777 46.8062C210.955 46.8062 213.69 44.2234 214.222 39.8175H212.551C211.943 43.4638 210.12 45.3629 207.081 45.3629ZM201.536 34.272C201.991 29.4103 203.587 26.9035 206.321 26.9035C209.056 26.9035 210.499 29.2584 210.727 34.272H201.536Z" fill="white"/>
<path d="M216.348 27.5112V26.7515C218.779 26.4477 220.222 26.0679 221.969 25.4601C222.197 26.4477 222.273 27.5112 222.425 29.1824C223.944 26.9035 225.691 25.84 228.198 25.84C230.781 25.84 232.984 27.1314 233.82 29.2584C234.275 30.2459 234.427 31.4614 234.427 33.0566V43.3119C234.427 45.135 234.883 45.5149 237.466 45.5908V46.4264C235.187 46.1986 234.351 46.1986 232.832 46.1986C231.237 46.1986 230.401 46.2745 228.198 46.4264V45.5908C230.477 45.5149 231.085 45.0591 231.085 43.3879V32.9807C231.085 29.2584 229.945 27.8151 227.287 27.8151C224.4 27.8151 222.881 29.6382 222.881 33.1326V43.3879C222.881 45.0591 223.412 45.5149 225.615 45.5908V46.4264C223.412 46.1986 222.577 46.1986 221.057 46.1986C219.538 46.1986 218.703 46.2745 216.5 46.4264V45.5908C219.082 45.4389 219.538 45.135 219.538 43.3119V30.17V29.5622C219.462 27.8151 219.234 27.5872 217.107 27.5872C216.803 27.5112 216.576 27.5112 216.348 27.5112Z" fill="white"/>
<path d="M239.062 46.3504L250.609 27.3592H245.368C242.633 27.3592 241.949 27.9669 240.43 31.7652H239.594L240.582 26.2197H255.167L243.62 45.2109H248.558C251.445 45.2109 252.66 44.0715 253.876 40.1973H254.787L253.724 46.3504H239.062Z" fill="white"/>
<path d="M270.815 40.6531L266.865 44.7552V46.3505H270.815V40.6531Z" fill="#00ADEF"/>
<path d="M279.172 23.7129L283.122 19.6108V18.0156H279.172V23.7129Z" fill="#00ADEF"/>
<path d="M279.172 46.2745V46.3505H283.122V46.2745V24.9284L279.172 29.0305V46.2745Z" fill="#00ADEF"/>
<path d="M314.189 23.637L311.303 26.5996C312.29 28.1949 312.898 30.17 312.898 32.221C312.898 38.0703 308.112 42.8561 302.263 42.8561C296.414 42.8561 291.628 38.0703 291.628 32.221C291.628 26.3717 296.414 21.586 302.263 21.586C304.238 21.586 306.061 22.1177 307.656 23.1053L310.543 20.1426C309.1 19.1551 307.429 18.3954 305.605 17.9396C304.542 17.7117 303.402 17.5598 302.263 17.5598C301.124 17.5598 300.06 17.7117 298.996 17.9396C292.539 19.4589 287.678 25.2323 287.678 32.221C287.678 38.9819 292.312 44.6793 298.541 46.3505C299.756 46.6544 300.972 46.8823 302.339 46.8823C303.63 46.8823 304.922 46.7303 306.137 46.3505C312.366 44.6793 317 38.9819 317 32.221C316.924 28.9545 315.937 26.0679 314.189 23.637Z" fill="#00ADEF"/>
</g>
<defs>
<clipPath id="clip0_202_2330">
<rect width="317" height="64" fill="white"/>
</clipPath>
</defs>
</svg>
