<svg width="95" height="64" viewBox="0 0 95 64" fill="none" xmlns="http://www.w3.org/2000/svg">
<g clip-path="url(#clip0_202_2651)">
<path fill-rule="evenodd" clip-rule="evenodd" d="M22.3267 54.8343C34.6575 54.8343 44.6534 44.7938 44.6534 32.4083C44.6534 20.0227 34.6575 9.98224 22.3267 9.98224C9.99591 9.98224 0 20.0227 0 32.4083C0 44.7938 9.99591 54.8343 22.3267 54.8343ZM22.2833 39.1581C26.1552 39.1581 29.294 36.1522 29.294 32.4441C29.294 28.736 26.1552 25.73 22.2833 25.73C18.4114 25.73 15.2727 28.736 15.2727 32.4441C15.2727 36.1522 18.4114 39.1581 22.2833 39.1581Z" fill="#22E5DB"/>
<path d="M49.291 5.09576H62.3205V59.4568H49.291V5.09576Z" fill="#22E5DB"/>
<path d="M67.6953 37.3045V45.8757H76.5469L81.2199 41.2028L85.8928 45.8757H95.0008V37.5609L89.9313 32.4914L95.0008 27.4219V18.8536H86.1463L81.2199 23.7799L76.2934 18.8536H67.6953V27.6782L72.5085 32.4914L67.6953 37.3045Z" fill="#22E5DB"/>
</g>
<defs>
<clipPath id="clip0_202_2651">
<rect width="95" height="64" fill="white"/>
</clipPath>
</defs>
</svg>
