<?xml version="1.0" encoding="utf-8"?>
<!-- Generator: Adobe Illustrator 27.5.0, SVG Export Plug-In . SVG Version: 6.00 Build 0)  -->
<svg version="1.1" id="Layer_1" xmlns="http://www.w3.org/2000/svg" xmlns:xlink="http://www.w3.org/1999/xlink" x="0px" y="0px"
	width="1920" height="1080" viewBox="0 0 1920 1080" style="enable-background:new 0 0 1920 1080;" xml:space="preserve">
<defs>
	<linearGradient id="SVGID_2_" x1="0%" y1="100%" x2="0%" y2="0%">
		<stop offset="0%"  stop-color="#000"/>
		<stop offset="100%" stop-color="#000" stop-opacity="0"/>
    </linearGradient>
</defs>
<style type="text/css">
	.st0{fill:#FFFFFF;}
	.st1{fill:#595959;}
	.st2{fill:#F2F2F2;}
	.st3{fill:url(#SVGID_1_);}
	.st4{fill:url(#SVGID_2_);}
</style>
<rect class="st0" width="1920" height="1080"/>
<g>
	<path class="st4" d="m 959 75 v 111 h 2 v -111 h -2"/>
	<path class="st1" d="M754.89,549.18h2.16v6.2h-0.9c0-1.33,0.23-2.48,0.69-3.47c0.46-0.98,1.11-1.74,1.96-2.27
		c0.85-0.53,1.85-0.8,3-0.8c1.03,0,1.94,0.22,2.73,0.66c0.79,0.44,1.42,1.08,1.87,1.94c0.45,0.85,0.68,1.88,0.68,3.07v9h-2.24v-8.78
		c0-0.83-0.15-1.54-0.44-2.13c-0.29-0.59-0.71-1.04-1.25-1.34c-0.54-0.31-1.19-0.46-1.93-0.46c-0.8,0-1.51,0.18-2.13,0.53
		c-0.62,0.35-1.09,0.85-1.44,1.49c-0.34,0.64-0.51,1.37-0.51,2.19v8.5h-2.24V549.18z"/>
	<path class="st1" d="M772.91,562.88c-1.07-0.64-1.91-1.54-2.51-2.68c-0.6-1.14-0.9-2.44-0.9-3.88c0-1.41,0.31-2.68,0.92-3.82
		s1.45-2.03,2.53-2.68c1.07-0.65,2.27-0.97,3.6-0.97c1.35,0,2.54,0.32,3.56,0.97s1.81,1.54,2.37,2.67c0.56,1.14,0.83,2.43,0.83,3.86
		v0.55h-11.58l0.03-0.62c0.01,1.08,0.23,2.05,0.65,2.9c0.42,0.85,1.01,1.52,1.76,2c0.75,0.48,1.59,0.71,2.52,0.71
		c0.62,0,1.21-0.08,1.74-0.23c0.54-0.15,1-0.38,1.4-0.67c0.4-0.29,0.7-0.64,0.92-1.03h2.24c-0.17,0.6-0.52,1.19-1.06,1.79
		c-0.54,0.6-1.27,1.1-2.18,1.5c-0.92,0.4-1.99,0.6-3.2,0.6C775.19,563.85,773.98,563.53,772.91,562.88z M771.72,555.04h9.34v1.27
		c0-1.1-0.17-2.07-0.52-2.89c-0.35-0.83-0.86-1.47-1.53-1.93c-0.68-0.46-1.49-0.69-2.44-0.69c-0.95,0-1.79,0.22-2.52,0.66
		c-0.73,0.44-1.29,1.07-1.69,1.89c-0.4,0.82-0.6,1.77-0.6,2.85L771.72,555.04z"/>
	<path class="st1" d="M784.08,549.18h2.41l3.37,10.3l0.32,1.22l0.29-1.22l3.54-10.3h2.14l3.61,10.3l0.32,1.22l0.29-1.22l3.29-10.3
		h2.35l-4.91,14.34h-2.21l-3.54-10.78l-0.27-0.99l-0.24,0.97l-3.68,10.81h-2.18L784.08,549.18z"/>
	<path class="st1" d="M815.72,562.9c-1.04-0.63-1.85-1.51-2.44-2.65c-0.58-1.14-0.88-2.44-0.88-3.91s0.29-2.77,0.88-3.91
		c0.58-1.14,1.4-2.02,2.44-2.65c1.04-0.63,2.23-0.94,3.56-0.94c1.23,0,2.32,0.27,3.26,0.82c0.94,0.55,1.68,1.31,2.2,2.3
		c0.53,0.98,0.8,2.13,0.82,3.42h-0.92v1.93h0.92c-0.02,1.3-0.29,2.44-0.82,3.42s-1.26,1.75-2.2,2.3c-0.94,0.55-2.03,0.82-3.26,0.82
		C817.95,563.85,816.77,563.53,815.72,562.9z M822.2,561.13c0.75-0.46,1.33-1.11,1.74-1.93c0.42-0.83,0.62-1.78,0.62-2.85
		s-0.21-2.02-0.62-2.85c-0.42-0.83-1-1.47-1.74-1.93c-0.75-0.46-1.6-0.69-2.56-0.69c-0.95,0-1.8,0.23-2.53,0.69
		c-0.74,0.46-1.31,1.11-1.72,1.93c-0.41,0.83-0.62,1.78-0.62,2.85s0.21,2.02,0.62,2.85c0.41,0.83,0.98,1.47,1.72,1.93
		c0.74,0.46,1.58,0.69,2.53,0.69C820.6,561.82,821.45,561.59,822.2,561.13z M824.52,543.91h2.24v19.6h-2.24V543.91z"/>
	<path class="st1" d="M838.52,549.44c0.82,0.4,1.46,0.98,1.91,1.74s0.68,1.66,0.68,2.71v9.63h-2.18v-5.36h0.59
		c0,1.19-0.21,2.22-0.62,3.07s-1,1.5-1.76,1.95c-0.77,0.45-1.68,0.67-2.73,0.67c-0.92,0-1.74-0.18-2.48-0.53
		c-0.74-0.35-1.32-0.84-1.74-1.47c-0.42-0.62-0.63-1.33-0.63-2.13c0-0.75,0.19-1.44,0.58-2.06s0.92-1.15,1.61-1.55
		s1.46-0.65,2.32-0.74l3.82-0.42c0.32-0.04,0.56-0.17,0.74-0.39c0.18-0.22,0.27-0.56,0.27-0.99l0.17,2.94l-4.69,0.52
		c-0.49,0.06-0.92,0.2-1.29,0.43s-0.67,0.54-0.88,0.91c-0.21,0.37-0.31,0.78-0.31,1.23c0,0.49,0.13,0.91,0.38,1.29
		c0.26,0.37,0.61,0.67,1.07,0.88c0.46,0.21,0.98,0.31,1.57,0.31c0.8,0,1.5-0.16,2.11-0.49c0.6-0.33,1.07-0.79,1.39-1.38
		s0.49-1.28,0.49-2.05v-4.56c0-0.57-0.14-1.07-0.41-1.51c-0.27-0.43-0.65-0.77-1.14-1.01c-0.49-0.24-1.06-0.36-1.7-0.36
		c-0.64,0-1.22,0.11-1.74,0.33s-0.93,0.51-1.24,0.88c-0.31,0.37-0.5,0.77-0.57,1.2h-2.24c0.11-0.81,0.43-1.54,0.96-2.19
		c0.53-0.65,1.21-1.16,2.05-1.53c0.84-0.37,1.77-0.56,2.79-0.56C836.75,548.84,837.7,549.04,838.52,549.44z"/>
	<path class="st1" d="M847.5,563.07c-0.56-0.29-0.99-0.7-1.31-1.22c-0.32-0.52-0.48-1.09-0.48-1.73l-0.01-8.96h-2.52l0.01-1.99h1.55
		c0.35,0,0.64-0.11,0.86-0.34s0.33-0.51,0.33-0.85v-2.31h2.02v3.5h3.46l-0.01,1.99h-3.46l0.01,8.82c0,0.44,0.15,0.8,0.44,1.1
		c0.29,0.29,0.66,0.44,1.1,0.44h1.9v1.99h-2.04C848.68,563.51,848.06,563.37,847.5,563.07z"/>
	<path class="st1" d="M862.36,549.44c0.82,0.4,1.46,0.98,1.91,1.74s0.68,1.66,0.68,2.71v9.63h-2.18v-5.36h0.59
		c0,1.19-0.21,2.22-0.62,3.07s-1,1.5-1.76,1.95c-0.77,0.45-1.68,0.67-2.73,0.67c-0.92,0-1.74-0.18-2.48-0.53
		c-0.74-0.35-1.32-0.84-1.74-1.47c-0.42-0.62-0.63-1.33-0.63-2.13c0-0.75,0.19-1.44,0.58-2.06s0.92-1.15,1.61-1.55
		s1.46-0.65,2.32-0.74l3.82-0.42c0.32-0.04,0.56-0.17,0.74-0.39c0.18-0.22,0.27-0.56,0.27-0.99l0.17,2.94l-4.69,0.52
		c-0.49,0.06-0.92,0.2-1.29,0.43s-0.67,0.54-0.88,0.91c-0.21,0.37-0.31,0.78-0.31,1.23c0,0.49,0.13,0.91,0.38,1.29
		c0.26,0.37,0.61,0.67,1.07,0.88c0.46,0.21,0.98,0.31,1.57,0.31c0.8,0,1.5-0.16,2.11-0.49c0.6-0.33,1.07-0.79,1.39-1.38
		s0.49-1.28,0.49-2.05v-4.56c0-0.57-0.14-1.07-0.41-1.51c-0.27-0.43-0.65-0.77-1.14-1.01c-0.49-0.24-1.06-0.36-1.7-0.36
		c-0.64,0-1.22,0.11-1.74,0.33s-0.93,0.51-1.24,0.88c-0.31,0.37-0.5,0.77-0.57,1.2h-2.24c0.11-0.81,0.43-1.54,0.96-2.19
		c0.53-0.65,1.21-1.16,2.05-1.53c0.84-0.37,1.77-0.56,2.79-0.56C860.59,548.84,861.54,549.04,862.36,549.44z"/>
	<path class="st1" d="M876.48,563.33c-0.87-0.35-1.57-0.83-2.09-1.45s-0.8-1.32-0.83-2.11h2.28c0.04,0.43,0.21,0.81,0.53,1.15
		s0.74,0.61,1.26,0.81c0.52,0.2,1.11,0.29,1.75,0.29c0.65,0,1.23-0.11,1.73-0.32c0.5-0.21,0.89-0.51,1.16-0.9
		c0.28-0.38,0.41-0.82,0.41-1.3c0-0.35-0.07-0.66-0.2-0.94c-0.13-0.28-0.32-0.51-0.57-0.69c-0.25-0.18-0.55-0.31-0.9-0.37
		l-3.46-0.63c-0.73-0.13-1.36-0.37-1.88-0.73c-0.53-0.35-0.93-0.81-1.2-1.35c-0.28-0.55-0.41-1.17-0.41-1.87
		c0-0.76,0.22-1.44,0.65-2.06s1.04-1.11,1.83-1.48c0.78-0.36,1.68-0.55,2.69-0.55c1,0,1.9,0.16,2.7,0.49
		c0.8,0.33,1.44,0.78,1.92,1.36c0.48,0.58,0.73,1.22,0.77,1.93h-2.28c-0.03-0.37-0.18-0.71-0.46-1.01s-0.64-0.53-1.1-0.7
		c-0.46-0.17-0.97-0.25-1.54-0.25c-0.58,0-1.09,0.1-1.54,0.29c-0.45,0.2-0.8,0.46-1.04,0.81c-0.25,0.34-0.37,0.73-0.37,1.15
		c0,0.33,0.06,0.61,0.17,0.86c0.12,0.25,0.29,0.45,0.53,0.62c0.24,0.16,0.53,0.28,0.89,0.34l3.54,0.63
		c0.73,0.13,1.36,0.39,1.88,0.77s0.93,0.86,1.2,1.43c0.27,0.57,0.41,1.19,0.41,1.86c0,0.84-0.24,1.6-0.72,2.27
		c-0.48,0.67-1.14,1.2-1.98,1.58c-0.84,0.38-1.78,0.57-2.81,0.57C878.33,563.85,877.36,563.68,876.48,563.33z"/>
	<path class="st1" d="M890.62,563.07c-0.56-0.29-0.99-0.7-1.31-1.22c-0.32-0.52-0.48-1.09-0.48-1.73l-0.01-8.96h-2.52l0.01-1.99
		h1.55c0.35,0,0.64-0.11,0.86-0.34s0.33-0.51,0.33-0.85v-2.31h2.02v3.5h3.46l-0.01,1.99h-3.46l0.01,8.82c0,0.44,0.15,0.8,0.44,1.1
		c0.29,0.29,0.66,0.44,1.1,0.44h1.9v1.99h-2.04C891.8,563.51,891.18,563.37,890.62,563.07z"/>
	<path class="st1" d="M897.57,549.18h2.24v4.8l-0.94,1.4c0.04-1.29,0.27-2.41,0.71-3.37c0.43-0.96,1.04-1.69,1.81-2.21
		c0.77-0.51,1.68-0.77,2.7-0.77h0.5v2.34h-0.59c-0.85,0-1.59,0.16-2.23,0.49s-1.12,0.79-1.46,1.39c-0.34,0.6-0.51,1.31-0.51,2.12
		v8.13h-2.24V549.18z"/>
	<path class="st1" d="M918.5,563.51h-2.16v-6.2h0.9c0,1.33-0.23,2.48-0.69,3.47c-0.46,0.98-1.11,1.74-1.96,2.27
		c-0.85,0.53-1.85,0.8-3,0.8c-1.03,0-1.94-0.22-2.73-0.66c-0.79-0.44-1.42-1.09-1.87-1.94s-0.68-1.88-0.68-3.07v-9h2.24v8.78
		c0,0.83,0.15,1.54,0.44,2.13c0.29,0.59,0.71,1.04,1.25,1.34s1.19,0.46,1.93,0.46c0.8,0,1.51-0.18,2.13-0.53
		c0.62-0.35,1.09-0.85,1.44-1.49s0.51-1.37,0.51-2.19v-8.5h2.24V563.51z"/>
	<path class="st1" d="M924.85,562.87c-1.09-0.65-1.95-1.55-2.57-2.69c-0.62-1.14-0.93-2.42-0.93-3.83s0.31-2.69,0.93-3.83
		c0.62-1.14,1.48-2.04,2.57-2.69c1.09-0.65,2.31-0.98,3.67-0.98c1.15,0,2.18,0.19,3.09,0.58c0.91,0.39,1.67,0.97,2.28,1.74
		s1.02,1.71,1.25,2.83h-2.24c-0.21-0.69-0.53-1.27-0.97-1.74c-0.44-0.47-0.95-0.81-1.54-1.04c-0.59-0.23-1.21-0.34-1.88-0.34
		c-0.92,0-1.75,0.23-2.48,0.7c-0.73,0.47-1.3,1.12-1.71,1.95c-0.41,0.83-0.62,1.77-0.62,2.83c0,1.05,0.21,1.98,0.62,2.81
		c0.41,0.83,0.98,1.48,1.71,1.95c0.73,0.47,1.56,0.71,2.48,0.71c0.66,0,1.29-0.11,1.88-0.34c0.59-0.23,1.1-0.58,1.54-1.04
		c0.44-0.47,0.76-1.04,0.97-1.74h2.24c-0.21,1.08-0.63,2.01-1.26,2.79c-0.63,0.77-1.4,1.36-2.32,1.76c-0.92,0.4-1.94,0.6-3.04,0.6
		C927.16,563.85,925.94,563.52,924.85,562.87z"/>
	<path class="st1" d="M940.69,563.07c-0.56-0.29-0.99-0.7-1.31-1.22c-0.32-0.52-0.48-1.09-0.48-1.73l-0.01-8.96h-2.52l0.01-1.99
		h1.55c0.35,0,0.64-0.11,0.86-0.34s0.33-0.51,0.33-0.85v-2.31h2.02v3.5h3.46l-0.01,1.99h-3.46l0.01,8.82c0,0.44,0.15,0.8,0.44,1.1
		c0.29,0.29,0.66,0.44,1.1,0.44h1.9v1.99h-2.04C941.86,563.51,941.24,563.37,940.69,563.07z"/>
	<path class="st1" d="M959.4,563.51h-2.16v-6.2h0.9c0,1.33-0.23,2.48-0.69,3.47c-0.46,0.98-1.11,1.74-1.96,2.27
		c-0.85,0.53-1.85,0.8-3,0.8c-1.03,0-1.94-0.22-2.73-0.66c-0.79-0.44-1.42-1.09-1.87-1.94s-0.68-1.88-0.68-3.07v-9h2.24v8.78
		c0,0.83,0.15,1.54,0.44,2.13c0.29,0.59,0.71,1.04,1.25,1.34s1.19,0.46,1.93,0.46c0.8,0,1.51-0.18,2.13-0.53
		c0.62-0.35,1.09-0.85,1.43-1.49c0.34-0.64,0.51-1.37,0.51-2.19v-8.5h2.24V563.51z"/>
	<path class="st1" d="M963.46,549.18h2.24v4.8l-0.94,1.4c0.04-1.29,0.27-2.41,0.71-3.37c0.43-0.96,1.04-1.69,1.81-2.21
		c0.78-0.51,1.68-0.77,2.7-0.77h0.5v2.34h-0.59c-0.85,0-1.59,0.16-2.23,0.49s-1.12,0.79-1.46,1.39c-0.34,0.6-0.51,1.31-0.51,2.12
		v8.13h-2.24V549.18z"/>
	<path class="st1" d="M974.83,562.88c-1.07-0.64-1.91-1.54-2.51-2.68c-0.6-1.14-0.9-2.44-0.9-3.88c0-1.41,0.3-2.68,0.92-3.82
		s1.45-2.03,2.53-2.68c1.07-0.65,2.27-0.97,3.6-0.97c1.35,0,2.54,0.32,3.56,0.97s1.81,1.54,2.37,2.67c0.55,1.14,0.83,2.43,0.83,3.86
		v0.55h-11.58l0.03-0.62c0.01,1.08,0.23,2.05,0.65,2.9c0.42,0.85,1.01,1.52,1.76,2c0.75,0.48,1.59,0.71,2.52,0.71
		c0.62,0,1.21-0.08,1.74-0.23c0.54-0.15,1-0.38,1.4-0.67s0.7-0.64,0.92-1.03h2.24c-0.17,0.6-0.52,1.19-1.06,1.79
		c-0.54,0.6-1.26,1.1-2.18,1.5c-0.92,0.4-1.99,0.6-3.2,0.6C977.11,563.85,975.9,563.53,974.83,562.88z M973.63,555.04h9.34v1.27
		c0-1.1-0.17-2.07-0.52-2.89c-0.34-0.83-0.86-1.47-1.53-1.93c-0.68-0.46-1.49-0.69-2.44-0.69s-1.79,0.22-2.52,0.66
		c-0.73,0.44-1.29,1.07-1.69,1.89c-0.4,0.82-0.6,1.77-0.6,2.85L973.63,555.04z"/>
	<path class="st1" d="M762.8,580.84c0.82,0.4,1.46,0.98,1.91,1.74s0.68,1.66,0.68,2.71v9.63h-2.18v-5.36h0.59
		c0,1.19-0.21,2.22-0.62,3.07s-1,1.5-1.76,1.95c-0.77,0.45-1.68,0.67-2.73,0.67c-0.92,0-1.74-0.18-2.48-0.53
		c-0.74-0.35-1.32-0.84-1.74-1.47c-0.42-0.62-0.63-1.33-0.63-2.13c0-0.75,0.19-1.44,0.58-2.06s0.92-1.15,1.61-1.55
		s1.46-0.65,2.32-0.74l3.82-0.42c0.32-0.04,0.56-0.17,0.74-0.39c0.18-0.22,0.27-0.56,0.27-0.99l0.17,2.94l-4.69,0.52
		c-0.49,0.06-0.92,0.2-1.29,0.43s-0.67,0.54-0.88,0.91c-0.21,0.37-0.31,0.78-0.31,1.23c0,0.49,0.13,0.91,0.38,1.29
		c0.26,0.37,0.61,0.67,1.07,0.88c0.46,0.21,0.98,0.31,1.57,0.31c0.8,0,1.5-0.16,2.11-0.49c0.6-0.33,1.07-0.79,1.39-1.38
		s0.49-1.28,0.49-2.05v-4.56c0-0.57-0.14-1.07-0.41-1.51c-0.27-0.43-0.65-0.77-1.14-1.01c-0.49-0.24-1.06-0.36-1.7-0.36
		c-0.64,0-1.22,0.11-1.74,0.33s-0.93,0.51-1.24,0.88c-0.31,0.37-0.5,0.77-0.57,1.2h-2.24c0.11-0.81,0.43-1.54,0.96-2.19
		c0.53-0.65,1.21-1.16,2.05-1.53c0.84-0.37,1.77-0.56,2.79-0.56C761.03,580.24,761.98,580.44,762.8,580.84z"/>
	<path class="st1" d="M771.12,594.3c-1.04-0.63-1.85-1.51-2.44-2.65c-0.58-1.14-0.88-2.44-0.88-3.91s0.29-2.77,0.88-3.91
		c0.58-1.14,1.4-2.02,2.44-2.65c1.04-0.63,2.23-0.94,3.56-0.94c1.23,0,2.32,0.27,3.26,0.82c0.94,0.55,1.68,1.31,2.2,2.3
		c0.53,0.98,0.8,2.13,0.82,3.42h-0.92v1.93h0.92c-0.02,1.3-0.29,2.44-0.82,3.42s-1.26,1.75-2.2,2.3c-0.94,0.55-2.03,0.82-3.26,0.82
		C773.35,595.25,772.16,594.93,771.12,594.3z M777.6,592.53c0.75-0.46,1.33-1.11,1.74-1.93c0.42-0.83,0.62-1.78,0.62-2.85
		s-0.21-2.02-0.62-2.85c-0.42-0.83-1-1.47-1.74-1.93c-0.75-0.46-1.6-0.69-2.56-0.69c-0.95,0-1.8,0.23-2.53,0.69
		c-0.74,0.46-1.31,1.11-1.72,1.93c-0.41,0.83-0.62,1.78-0.62,2.85s0.21,2.02,0.62,2.85c0.41,0.83,0.98,1.47,1.72,1.93
		c0.74,0.46,1.58,0.69,2.53,0.69C776,593.22,776.85,592.99,777.6,592.53z M779.92,575.31h2.24v19.6h-2.24V575.31z"/>
	<path class="st1" d="M788.1,594.3c-1.04-0.63-1.85-1.51-2.44-2.65c-0.58-1.14-0.88-2.44-0.88-3.91s0.29-2.77,0.88-3.91
		c0.58-1.14,1.4-2.02,2.44-2.65c1.04-0.63,2.23-0.94,3.56-0.94c1.23,0,2.32,0.27,3.26,0.82c0.94,0.55,1.68,1.31,2.2,2.3
		c0.53,0.98,0.8,2.13,0.82,3.42h-0.92v1.93h0.92c-0.02,1.3-0.29,2.44-0.82,3.42s-1.26,1.75-2.2,2.3c-0.94,0.55-2.03,0.82-3.26,0.82
		C790.33,595.25,789.14,594.93,788.1,594.3z M794.58,592.53c0.75-0.46,1.33-1.11,1.74-1.93c0.42-0.83,0.62-1.78,0.62-2.85
		s-0.21-2.02-0.62-2.85c-0.42-0.83-1-1.47-1.74-1.93c-0.75-0.46-1.6-0.69-2.56-0.69c-0.95,0-1.8,0.23-2.53,0.69
		c-0.74,0.46-1.31,1.11-1.72,1.93c-0.41,0.83-0.62,1.78-0.62,2.85s0.21,2.02,0.62,2.85c0.41,0.83,0.98,1.47,1.72,1.93
		c0.74,0.46,1.58,0.69,2.53,0.69C792.98,593.22,793.83,592.99,794.58,592.53z M796.9,575.31h2.24v19.6h-2.24V575.31z"/>
	<path class="st1" d="M805.43,575.31v2.66h-2.63v-2.66H805.43z M802.99,580.58h2.24v14.34h-2.24V580.58z"/>
	<path class="st1" d="M812.04,594.47c-0.56-0.29-0.99-0.7-1.31-1.22c-0.32-0.52-0.48-1.09-0.48-1.73l-0.01-8.96h-2.52l0.01-1.99
		h1.55c0.35,0,0.64-0.11,0.86-0.34s0.33-0.51,0.33-0.85v-2.31h2.02v3.5h3.46l-0.01,1.99h-3.46l0.01,8.82c0,0.44,0.15,0.8,0.44,1.1
		c0.29,0.29,0.66,0.44,1.1,0.44h1.9v1.99h-2.04C813.22,594.91,812.6,594.77,812.04,594.47z"/>
	<path class="st1" d="M821.43,575.31v2.66h-2.63v-2.66H821.43z M818.99,580.58h2.24v14.34h-2.24V580.58z"/>
	<path class="st1" d="M827.67,594.28c-1.12-0.65-1.99-1.54-2.63-2.69c-0.64-1.14-0.96-2.42-0.96-3.84c0-1.42,0.32-2.7,0.96-3.84
		c0.64-1.14,1.52-2.04,2.64-2.69c1.12-0.65,2.36-0.97,3.72-0.97c1.36,0,2.6,0.32,3.71,0.97c1.11,0.65,1.99,1.54,2.62,2.68
		c0.64,1.14,0.96,2.42,0.96,3.85c0,1.43-0.32,2.71-0.96,3.85c-0.64,1.14-1.51,2.03-2.62,2.68c-1.11,0.65-2.35,0.97-3.72,0.97
		C830.02,595.25,828.78,594.92,827.67,594.28z M833.93,592.52c0.75-0.46,1.33-1.1,1.76-1.92c0.43-0.83,0.64-1.78,0.64-2.85
		s-0.21-2.03-0.64-2.86c-0.43-0.83-1.02-1.47-1.77-1.93c-0.75-0.46-1.59-0.69-2.53-0.69c-0.93,0-1.78,0.23-2.53,0.69
		c-0.76,0.46-1.35,1.1-1.79,1.93s-0.65,1.78-0.65,2.86s0.22,2.02,0.65,2.85c0.43,0.83,1.03,1.47,1.79,1.92
		c0.76,0.46,1.61,0.69,2.54,0.69S833.18,592.98,833.93,592.52z"/>
	<path class="st1" d="M841.53,580.58h2.16v6.2h-0.9c0-1.33,0.23-2.48,0.69-3.47c0.46-0.98,1.11-1.74,1.96-2.27
		c0.85-0.53,1.85-0.8,3-0.8c1.03,0,1.94,0.22,2.73,0.66c0.79,0.44,1.42,1.08,1.87,1.94c0.45,0.85,0.68,1.88,0.68,3.07v9h-2.24v-8.78
		c0-0.83-0.15-1.54-0.44-2.13c-0.29-0.59-0.71-1.04-1.25-1.34c-0.54-0.31-1.19-0.46-1.93-0.46c-0.8,0-1.51,0.18-2.13,0.53
		c-0.62,0.35-1.09,0.85-1.44,1.49c-0.34,0.64-0.51,1.37-0.51,2.19v8.5h-2.24V580.58z"/>
	<path class="st1" d="M865.26,580.84c0.82,0.4,1.46,0.98,1.91,1.74s0.68,1.66,0.68,2.71v9.63h-2.18v-5.36h0.59
		c0,1.19-0.21,2.22-0.62,3.07s-1,1.5-1.76,1.95c-0.77,0.45-1.68,0.67-2.73,0.67c-0.92,0-1.74-0.18-2.48-0.53
		c-0.74-0.35-1.32-0.84-1.74-1.47c-0.42-0.62-0.63-1.33-0.63-2.13c0-0.75,0.19-1.44,0.58-2.06s0.92-1.15,1.61-1.55
		s1.46-0.65,2.32-0.74l3.82-0.42c0.32-0.04,0.56-0.17,0.74-0.39c0.18-0.22,0.27-0.56,0.27-0.99l0.17,2.94l-4.69,0.52
		c-0.49,0.06-0.92,0.2-1.29,0.43s-0.67,0.54-0.88,0.91c-0.21,0.37-0.31,0.78-0.31,1.23c0,0.49,0.13,0.91,0.38,1.29
		c0.26,0.37,0.61,0.67,1.07,0.88c0.46,0.21,0.98,0.31,1.57,0.31c0.8,0,1.5-0.16,2.11-0.49c0.6-0.33,1.07-0.79,1.39-1.38
		s0.49-1.28,0.49-2.05v-4.56c0-0.57-0.14-1.07-0.41-1.51c-0.27-0.43-0.65-0.77-1.14-1.01c-0.49-0.24-1.06-0.36-1.7-0.36
		c-0.64,0-1.22,0.11-1.74,0.33s-0.93,0.51-1.24,0.88c-0.31,0.37-0.5,0.77-0.57,1.2h-2.24c0.11-0.81,0.43-1.54,0.96-2.19
		c0.53-0.65,1.21-1.16,2.05-1.53c0.84-0.37,1.77-0.56,2.79-0.56C863.49,580.24,864.44,580.44,865.26,580.84z"/>
	<path class="st1" d="M871.49,575.31h2.24v19.6h-2.24V575.31z"/>
	<path class="st1" d="M885.68,594.73c-0.87-0.35-1.57-0.83-2.09-1.45s-0.8-1.32-0.83-2.11h2.28c0.04,0.43,0.21,0.81,0.53,1.15
		s0.74,0.61,1.26,0.81c0.52,0.2,1.11,0.29,1.75,0.29c0.65,0,1.23-0.11,1.73-0.32c0.5-0.21,0.89-0.51,1.16-0.9
		c0.28-0.38,0.41-0.82,0.41-1.3c0-0.35-0.07-0.66-0.2-0.94c-0.13-0.28-0.32-0.51-0.57-0.69c-0.25-0.18-0.55-0.31-0.9-0.37
		l-3.46-0.63c-0.73-0.13-1.36-0.37-1.88-0.73c-0.53-0.35-0.93-0.81-1.2-1.35c-0.28-0.55-0.41-1.17-0.41-1.87
		c0-0.76,0.22-1.44,0.65-2.06s1.04-1.11,1.83-1.48c0.78-0.36,1.68-0.55,2.69-0.55c1,0,1.9,0.16,2.7,0.49
		c0.8,0.33,1.44,0.78,1.92,1.36c0.48,0.58,0.73,1.22,0.77,1.93h-2.28c-0.03-0.37-0.18-0.71-0.46-1.01s-0.64-0.53-1.1-0.7
		c-0.46-0.17-0.97-0.25-1.54-0.25c-0.58,0-1.09,0.1-1.54,0.29c-0.45,0.2-0.8,0.46-1.04,0.81c-0.25,0.34-0.37,0.73-0.37,1.15
		c0,0.33,0.06,0.61,0.17,0.86c0.12,0.25,0.29,0.45,0.53,0.62c0.24,0.16,0.53,0.28,0.89,0.34l3.54,0.63
		c0.73,0.13,1.36,0.39,1.88,0.77s0.93,0.86,1.2,1.43c0.27,0.57,0.41,1.19,0.41,1.86c0,0.84-0.24,1.6-0.72,2.27
		c-0.48,0.67-1.14,1.2-1.98,1.58c-0.84,0.38-1.78,0.57-2.81,0.57C887.53,595.25,886.55,595.08,885.68,594.73z"/>
	<path class="st1" d="M899.27,594.28c-1.07-0.64-1.91-1.54-2.51-2.68c-0.6-1.14-0.9-2.44-0.9-3.88c0-1.41,0.31-2.68,0.92-3.82
		s1.45-2.03,2.53-2.68c1.07-0.65,2.27-0.97,3.6-0.97c1.35,0,2.54,0.32,3.56,0.97s1.81,1.54,2.37,2.67c0.56,1.14,0.83,2.43,0.83,3.86
		v0.55h-11.58l0.03-0.62c0.01,1.08,0.23,2.05,0.65,2.9c0.42,0.85,1.01,1.52,1.76,2c0.75,0.48,1.59,0.71,2.52,0.71
		c0.62,0,1.21-0.08,1.74-0.23c0.54-0.15,1-0.38,1.4-0.67c0.4-0.29,0.7-0.64,0.92-1.03h2.24c-0.17,0.6-0.52,1.19-1.06,1.79
		c-0.54,0.6-1.27,1.1-2.18,1.5c-0.92,0.4-1.99,0.6-3.2,0.6C901.55,595.25,900.34,594.93,899.27,594.28z M898.08,586.44h9.34v1.27
		c0-1.1-0.17-2.07-0.52-2.89c-0.35-0.83-0.86-1.47-1.53-1.93c-0.68-0.46-1.49-0.69-2.44-0.69c-0.95,0-1.79,0.22-2.52,0.66
		c-0.73,0.44-1.29,1.07-1.69,1.89c-0.4,0.82-0.6,1.77-0.6,2.85L898.08,586.44z"/>
	<path class="st1" d="M912.5,580.58h2.16v6.2h-0.76c0-1.34,0.21-2.51,0.62-3.49c0.42-0.98,1.01-1.73,1.8-2.26s1.72-0.79,2.8-0.79
		c1.02,0,1.91,0.23,2.67,0.69c0.77,0.46,1.36,1.12,1.78,1.97c0.42,0.85,0.63,1.84,0.63,2.97v9.04h-2.24v-8.95
		c0-0.78-0.13-1.46-0.4-2.04c-0.27-0.57-0.65-1.02-1.16-1.32c-0.51-0.31-1.12-0.46-1.83-0.46c-0.77,0-1.45,0.17-2.03,0.52
		c-0.58,0.35-1.02,0.84-1.34,1.48c-0.31,0.64-0.47,1.4-0.47,2.27v8.5h-2.24V580.58z M931.03,583.93c-0.27-0.57-0.65-1.02-1.15-1.32
		c-0.5-0.31-1.12-0.46-1.83-0.46c-0.77,0-1.44,0.18-2.02,0.52c-0.58,0.35-1.03,0.85-1.34,1.48s-0.48,1.39-0.48,2.26l-1.26,0.36
		c0-1.29,0.22-2.43,0.67-3.42c0.45-0.99,1.09-1.76,1.93-2.3c0.83-0.55,1.81-0.82,2.92-0.82c1.02,0,1.92,0.23,2.71,0.69
		c0.79,0.46,1.4,1.12,1.84,1.97c0.44,0.85,0.66,1.84,0.66,2.97v9.04h-2.24v-8.95C931.42,585.18,931.29,584.5,931.03,583.93z"/>
	<path class="st1" d="M945.21,580.84c0.82,0.4,1.46,0.98,1.91,1.74s0.68,1.66,0.68,2.71v9.63h-2.18v-5.36h0.59
		c0,1.19-0.21,2.22-0.62,3.07s-1,1.5-1.76,1.95c-0.77,0.45-1.68,0.67-2.73,0.67c-0.92,0-1.74-0.18-2.48-0.53
		c-0.74-0.35-1.32-0.84-1.74-1.47c-0.42-0.62-0.63-1.33-0.63-2.13c0-0.75,0.19-1.44,0.58-2.06s0.92-1.15,1.61-1.55
		s1.46-0.65,2.32-0.74l3.82-0.42c0.32-0.04,0.56-0.17,0.74-0.39c0.18-0.22,0.27-0.56,0.27-0.99l0.17,2.94l-4.69,0.52
		c-0.49,0.06-0.92,0.2-1.29,0.43s-0.67,0.54-0.88,0.91c-0.21,0.37-0.31,0.78-0.31,1.23c0,0.49,0.13,0.91,0.38,1.29
		c0.26,0.37,0.61,0.67,1.07,0.88c0.46,0.21,0.98,0.31,1.57,0.31c0.8,0,1.5-0.16,2.11-0.49c0.6-0.33,1.07-0.79,1.39-1.38
		s0.49-1.28,0.49-2.05v-4.56c0-0.57-0.14-1.07-0.41-1.51c-0.27-0.43-0.65-0.77-1.14-1.01c-0.49-0.24-1.06-0.36-1.7-0.36
		c-0.64,0-1.22,0.11-1.74,0.33s-0.93,0.51-1.24,0.88c-0.31,0.37-0.5,0.77-0.57,1.2h-2.24c0.11-0.81,0.43-1.54,0.96-2.19
		c0.53-0.65,1.21-1.16,2.05-1.53c0.84-0.37,1.77-0.56,2.79-0.56C943.44,580.24,944.39,580.44,945.21,580.84z"/>
	<path class="st1" d="M951.44,580.58h2.16v6.2h-0.9c0-1.33,0.23-2.48,0.69-3.47c0.46-0.98,1.11-1.74,1.96-2.27
		c0.85-0.53,1.85-0.8,3-0.8c1.03,0,1.94,0.22,2.73,0.66c0.79,0.44,1.42,1.08,1.87,1.94s0.68,1.88,0.68,3.07v9h-2.24v-8.78
		c0-0.83-0.15-1.54-0.44-2.13c-0.29-0.59-0.71-1.04-1.25-1.34c-0.54-0.31-1.18-0.46-1.93-0.46c-0.8,0-1.51,0.18-2.13,0.53
		c-0.62,0.35-1.09,0.85-1.44,1.49c-0.34,0.64-0.51,1.37-0.51,2.19v8.5h-2.24V580.58z"/>
	<path class="st1" d="M970.01,594.47c-0.56-0.29-0.99-0.7-1.31-1.22c-0.32-0.52-0.48-1.09-0.48-1.73l-0.01-8.96h-2.52l0.01-1.99
		h1.55c0.35,0,0.64-0.11,0.86-0.34c0.22-0.22,0.33-0.51,0.33-0.85v-2.31h2.02v3.5h3.46l-0.01,1.99h-3.46l0.01,8.82
		c0,0.44,0.15,0.8,0.44,1.1c0.29,0.29,0.66,0.44,1.1,0.44h1.9v1.99h-2.04C971.19,594.91,970.57,594.77,970.01,594.47z"/>
	<path class="st1" d="M979.4,575.31v2.66h-2.63v-2.66H979.4z M976.97,580.58h2.24v14.34h-2.24V580.58z"/>
	<path class="st1" d="M985.55,594.27c-1.09-0.65-1.95-1.55-2.57-2.69c-0.62-1.14-0.93-2.42-0.93-3.83s0.31-2.69,0.93-3.83
		c0.62-1.14,1.48-2.04,2.57-2.69c1.09-0.65,2.31-0.98,3.67-0.98c1.15,0,2.18,0.19,3.09,0.58c0.91,0.39,1.67,0.97,2.28,1.74
		s1.02,1.71,1.25,2.83h-2.24c-0.21-0.69-0.53-1.27-0.97-1.74s-0.95-0.81-1.54-1.04c-0.59-0.23-1.21-0.34-1.88-0.34
		c-0.92,0-1.75,0.23-2.49,0.7s-1.3,1.12-1.71,1.95c-0.41,0.83-0.62,1.77-0.62,2.83c0,1.05,0.21,1.98,0.62,2.81
		c0.41,0.83,0.98,1.48,1.71,1.95s1.56,0.71,2.49,0.71c0.66,0,1.29-0.11,1.88-0.34c0.59-0.23,1.1-0.58,1.54-1.04
		c0.44-0.47,0.76-1.04,0.97-1.74h2.24c-0.21,1.08-0.63,2.01-1.26,2.79c-0.62,0.77-1.4,1.36-2.32,1.76c-0.92,0.4-1.94,0.6-3.04,0.6
		C987.86,595.25,986.64,594.92,985.55,594.27z"/>
	<path class="st1" d="M1006.74,575.31v2.66h-2.63v-2.66H1006.74z M1004.31,580.58h2.24v14.34h-2.24V580.58z"/>
	<path class="st1" d="M1010.61,580.58h2.16v6.2h-0.9c0-1.33,0.23-2.48,0.69-3.47c0.46-0.98,1.11-1.74,1.96-2.27
		c0.85-0.53,1.85-0.8,3-0.8c1.03,0,1.94,0.22,2.73,0.66c0.79,0.44,1.42,1.08,1.87,1.94c0.45,0.85,0.68,1.88,0.68,3.07v9h-2.24v-8.78
		c0-0.83-0.15-1.54-0.44-2.13c-0.29-0.59-0.71-1.04-1.25-1.34s-1.19-0.46-1.93-0.46c-0.8,0-1.51,0.18-2.13,0.53
		c-0.62,0.35-1.09,0.85-1.43,1.49s-0.51,1.37-0.51,2.19v8.5h-2.24V580.58z"/>
	<path class="st1" d="M1027.55,582.56h-2.52v-1.99h2.52v-1.88c0-0.66,0.15-1.25,0.46-1.76c0.31-0.51,0.74-0.91,1.29-1.2
		s1.18-0.43,1.89-0.43h2.29v1.99h-2.16c-0.46,0-0.83,0.14-1.11,0.43s-0.43,0.66-0.43,1.11v1.74h3.56v1.99h-3.56v12.35h-2.24V582.56z
		"/>
	<path class="st1" d="M1037.98,594.28c-1.12-0.65-1.99-1.54-2.63-2.69c-0.64-1.14-0.96-2.42-0.96-3.84c0-1.42,0.32-2.7,0.96-3.84
		c0.64-1.14,1.52-2.04,2.64-2.69c1.12-0.65,2.36-0.97,3.72-0.97c1.36,0,2.6,0.32,3.71,0.97c1.11,0.65,1.98,1.54,2.62,2.68
		c0.64,1.14,0.96,2.42,0.96,3.85c0,1.43-0.32,2.71-0.96,3.85c-0.64,1.14-1.52,2.03-2.62,2.68c-1.11,0.65-2.35,0.97-3.72,0.97
		C1040.34,595.25,1039.1,594.92,1037.98,594.28z M1044.25,592.52c0.75-0.46,1.33-1.1,1.76-1.92c0.43-0.83,0.64-1.78,0.64-2.85
		s-0.21-2.03-0.64-2.86c-0.43-0.83-1.02-1.47-1.77-1.93c-0.75-0.46-1.59-0.69-2.53-0.69s-1.78,0.23-2.53,0.69
		c-0.76,0.46-1.35,1.1-1.79,1.93c-0.43,0.83-0.65,1.78-0.65,2.86s0.22,2.02,0.65,2.85c0.43,0.83,1.03,1.47,1.79,1.92
		c0.76,0.46,1.61,0.69,2.54,0.69C1042.66,593.2,1043.5,592.98,1044.25,592.52z"/>
	<path class="st1" d="M1051.85,580.58h2.24v4.8l-0.94,1.4c0.04-1.29,0.27-2.41,0.71-3.37c0.43-0.96,1.04-1.69,1.81-2.21
		c0.78-0.51,1.68-0.77,2.7-0.77h0.5v2.34h-0.59c-0.85,0-1.59,0.16-2.23,0.49s-1.12,0.79-1.46,1.39c-0.34,0.6-0.51,1.31-0.51,2.12
		v8.13h-2.24V580.58z"/>
	<path class="st1" d="M1061.02,580.58h2.16v6.2h-0.76c0-1.34,0.21-2.51,0.62-3.49c0.42-0.98,1.02-1.73,1.8-2.26
		c0.79-0.53,1.72-0.79,2.8-0.79c1.02,0,1.91,0.23,2.67,0.69s1.36,1.12,1.78,1.97c0.42,0.85,0.63,1.84,0.63,2.97v9.04h-2.24v-8.95
		c0-0.78-0.13-1.46-0.4-2.04c-0.27-0.57-0.65-1.02-1.16-1.32c-0.51-0.31-1.12-0.46-1.83-0.46c-0.77,0-1.45,0.17-2.03,0.52
		c-0.58,0.35-1.02,0.84-1.34,1.48c-0.31,0.64-0.47,1.4-0.47,2.27v8.5h-2.24V580.58z M1079.55,583.93c-0.27-0.57-0.65-1.02-1.15-1.32
		c-0.5-0.31-1.12-0.46-1.83-0.46c-0.77,0-1.44,0.18-2.02,0.52c-0.58,0.35-1.03,0.85-1.34,1.48s-0.48,1.39-0.48,2.26l-1.26,0.36
		c0-1.29,0.22-2.43,0.67-3.42c0.45-0.99,1.09-1.76,1.92-2.3s1.81-0.82,2.92-0.82c1.02,0,1.92,0.23,2.71,0.69s1.4,1.12,1.84,1.97
		c0.44,0.85,0.66,1.84,0.66,2.97v9.04h-2.24v-8.95C1079.95,585.18,1079.81,584.5,1079.55,583.93z"/>
	<path class="st1" d="M1093.74,580.84c0.82,0.4,1.46,0.98,1.91,1.74c0.45,0.76,0.68,1.66,0.68,2.71v9.63h-2.18v-5.36h0.59
		c0,1.19-0.21,2.22-0.62,3.07c-0.41,0.85-1,1.5-1.76,1.95c-0.77,0.45-1.67,0.67-2.73,0.67c-0.92,0-1.74-0.18-2.48-0.53
		c-0.74-0.35-1.32-0.84-1.74-1.47c-0.42-0.62-0.63-1.33-0.63-2.13c0-0.75,0.19-1.44,0.58-2.06c0.39-0.63,0.92-1.15,1.61-1.55
		s1.46-0.65,2.32-0.74l3.82-0.42c0.32-0.04,0.56-0.17,0.74-0.39s0.27-0.56,0.27-0.99l0.17,2.94l-4.69,0.52
		c-0.49,0.06-0.92,0.2-1.29,0.43s-0.67,0.54-0.88,0.91c-0.21,0.37-0.32,0.78-0.32,1.23c0,0.49,0.13,0.91,0.38,1.29
		c0.26,0.37,0.61,0.67,1.07,0.88c0.46,0.21,0.98,0.31,1.57,0.31c0.8,0,1.5-0.16,2.11-0.49c0.6-0.33,1.07-0.79,1.39-1.38
		s0.49-1.28,0.49-2.05v-4.56c0-0.57-0.13-1.07-0.41-1.51s-0.65-0.77-1.14-1.01c-0.49-0.24-1.06-0.36-1.7-0.36s-1.22,0.11-1.74,0.33
		s-0.93,0.51-1.24,0.88s-0.5,0.77-0.57,1.2h-2.24c0.11-0.81,0.43-1.54,0.96-2.19c0.53-0.65,1.21-1.16,2.05-1.53
		c0.84-0.37,1.77-0.56,2.79-0.56C1091.96,580.24,1092.91,580.44,1093.74,580.84z"/>
	<path class="st1" d="M1102.72,594.47c-0.56-0.29-0.99-0.7-1.31-1.22c-0.32-0.52-0.48-1.09-0.48-1.73l-0.01-8.96h-2.52l0.01-1.99
		h1.55c0.36,0,0.64-0.11,0.86-0.34s0.33-0.51,0.33-0.85v-2.31h2.02v3.5h3.46l-0.01,1.99h-3.46l0.01,8.82c0,0.44,0.15,0.8,0.44,1.1
		c0.29,0.29,0.66,0.44,1.1,0.44h1.9v1.99h-2.04C1103.89,594.91,1103.27,594.77,1102.72,594.47z"/>
	<path class="st1" d="M1112.1,575.31v2.66h-2.63v-2.66H1112.1z M1109.67,580.58h2.24v14.34h-2.24V580.58z"/>
	<path class="st1" d="M1118.34,594.28c-1.12-0.65-1.99-1.54-2.63-2.69c-0.64-1.14-0.96-2.42-0.96-3.84c0-1.42,0.32-2.7,0.96-3.84
		c0.64-1.14,1.52-2.04,2.64-2.69c1.12-0.65,2.36-0.97,3.72-0.97s2.6,0.32,3.71,0.97c1.11,0.65,1.99,1.54,2.62,2.68
		c0.64,1.14,0.96,2.42,0.96,3.85c0,1.43-0.32,2.71-0.96,3.85c-0.64,1.14-1.51,2.03-2.62,2.68c-1.11,0.65-2.35,0.97-3.72,0.97
		C1120.7,595.25,1119.46,594.92,1118.34,594.28z M1124.61,592.52c0.75-0.46,1.33-1.1,1.76-1.92c0.43-0.83,0.64-1.78,0.64-2.85
		s-0.21-2.03-0.64-2.86s-1.02-1.47-1.77-1.93c-0.75-0.46-1.59-0.69-2.53-0.69c-0.93,0-1.78,0.23-2.53,0.69
		c-0.76,0.46-1.35,1.1-1.79,1.93s-0.65,1.78-0.65,2.86s0.22,2.02,0.65,2.85c0.43,0.83,1.03,1.47,1.79,1.92
		c0.76,0.46,1.61,0.69,2.54,0.69S1123.86,592.98,1124.61,592.52z"/>
	<path class="st1" d="M1132.21,580.58h2.16v6.2h-0.9c0-1.33,0.23-2.48,0.69-3.47c0.46-0.98,1.11-1.74,1.96-2.27
		c0.85-0.53,1.85-0.8,3-0.8c1.03,0,1.94,0.22,2.73,0.66c0.79,0.44,1.42,1.08,1.87,1.94s0.68,1.88,0.68,3.07v9h-2.24v-8.78
		c0-0.83-0.15-1.54-0.44-2.13c-0.29-0.59-0.71-1.04-1.25-1.34c-0.54-0.31-1.18-0.46-1.93-0.46c-0.8,0-1.51,0.18-2.13,0.53
		c-0.62,0.35-1.09,0.85-1.44,1.49c-0.34,0.64-0.51,1.37-0.51,2.19v8.5h-2.24V580.58z"/>
</g>
<g>
	<rect x="278.16" y="737.04" width="1.5" height="113.14"/>
</g>
<polygon points="271.43,847.99 278.91,860.94 286.39,847.99 "/>
<path class="st2" d="M328.22,878.28l-98.61,0c-16.57,0-30,13.43-30,30v66.54c0,16.57,13.43,30,30,30l98.61,0c16.57,0,30-13.43,30-30
	v-66.54C358.22,891.71,344.78,878.28,328.22,878.28z"/>
<g>
	<path d="M226.96,934.67l0.58-2.12l6.04,1.8l-0.47,1.77L226.96,934.67z M228.54,939.92l4.18-4.69l1.4,1.15l-3.92,4.95L228.54,939.92
		z M232.49,929h2.19l-0.17,6.3h-1.84L232.49,929z M232.94,935.96c-0.18-0.18-0.27-0.4-0.27-0.66c0-0.26,0.09-0.47,0.27-0.65
		c0.18-0.17,0.4-0.26,0.66-0.26c0.26,0,0.47,0.09,0.65,0.26c0.18,0.18,0.26,0.39,0.26,0.65c0,0.26-0.09,0.48-0.26,0.66
		c-0.17,0.18-0.39,0.27-0.65,0.27C233.34,936.23,233.12,936.14,232.94,935.96z M233.05,936.38l1.4-1.15l4.18,4.69l-1.66,1.42
		L233.05,936.38z M233.6,934.36l6.04-1.8l0.58,2.12l-6.14,1.45L233.6,934.36z"/>
	<path d="M249.92,949.65v3.85h-3.85v-3.85H249.92z"/>
	<path d="M257.57,952.7c-1.37-0.82-2.44-1.94-3.21-3.37c-0.78-1.43-1.16-3.02-1.16-4.79s0.39-3.36,1.16-4.79s1.85-2.55,3.21-3.37
		c1.36-0.82,2.89-1.22,4.58-1.22c1.44,0,2.72,0.24,3.87,0.73c1.14,0.48,2.09,1.21,2.85,2.17c0.76,0.96,1.28,2.14,1.56,3.54h-2.8
		c-0.26-0.86-0.66-1.59-1.21-2.17s-1.19-1.02-1.92-1.3c-0.74-0.29-1.52-0.43-2.35-0.43c-1.15,0-2.19,0.29-3.11,0.88
		c-0.92,0.58-1.63,1.39-2.14,2.43c-0.51,1.04-0.77,2.22-0.77,3.54c0,1.31,0.26,2.48,0.77,3.52c0.51,1.04,1.23,1.85,2.14,2.44
		c0.92,0.59,1.95,0.88,3.11,0.88c0.83,0,1.61-0.14,2.35-0.43c0.73-0.29,1.38-0.72,1.92-1.3c0.55-0.58,0.95-1.31,1.21-2.17h2.8
		c-0.27,1.35-0.79,2.51-1.57,3.48c-0.78,0.97-1.75,1.7-2.91,2.21c-1.15,0.5-2.42,0.75-3.8,0.75
		C260.46,953.92,258.94,953.51,257.57,952.7z"/>
	<path d="M274.98,929h2.8v24.5h-2.8V929z"/>
	<path d="M293.8,935.9c1.03,0.5,1.82,1.22,2.39,2.17c0.57,0.95,0.85,2.08,0.85,3.39v12.04h-2.73v-6.7h0.73
		c0,1.49-0.26,2.77-0.77,3.84s-1.25,1.88-2.21,2.44s-2.09,0.84-3.41,0.84c-1.14,0-2.18-0.22-3.1-0.67
		c-0.92-0.44-1.65-1.06-2.17-1.84c-0.52-0.78-0.79-1.67-0.79-2.66c0-0.93,0.24-1.79,0.73-2.58c0.48-0.79,1.16-1.43,2.01-1.93
		s1.82-0.81,2.9-0.93l4.78-0.52c0.4-0.05,0.71-0.21,0.93-0.49c0.22-0.28,0.33-0.69,0.33-1.24l0.21,3.67l-5.86,0.65
		c-0.61,0.07-1.15,0.25-1.62,0.54c-0.47,0.29-0.84,0.67-1.1,1.14c-0.26,0.47-0.39,0.98-0.39,1.54c0,0.61,0.16,1.14,0.48,1.61
		c0.32,0.47,0.77,0.83,1.34,1.09c0.57,0.26,1.23,0.39,1.96,0.39c1,0,1.88-0.2,2.63-0.61c0.75-0.41,1.33-0.98,1.74-1.72
		c0.41-0.74,0.61-1.6,0.61-2.56v-5.71c0-0.71-0.17-1.34-0.51-1.88s-0.81-0.96-1.43-1.26s-1.32-0.45-2.13-0.45
		c-0.8,0-1.53,0.14-2.17,0.41c-0.64,0.27-1.16,0.64-1.55,1.1c-0.39,0.46-0.63,0.96-0.71,1.5h-2.8c0.14-1.02,0.54-1.93,1.2-2.74
		c0.66-0.81,1.51-1.45,2.56-1.92c1.05-0.47,2.21-0.7,3.48-0.7C291.58,935.16,292.77,935.41,293.8,935.9z"/>
	<path d="M304.88,953.27c-1.09-0.43-1.96-1.04-2.61-1.81s-0.99-1.65-1.04-2.63h2.85c0.05,0.54,0.27,1.02,0.67,1.44
		c0.4,0.43,0.92,0.76,1.57,1.01c0.65,0.25,1.38,0.37,2.19,0.37c0.82,0,1.54-0.13,2.16-0.4s1.11-0.64,1.45-1.12s0.52-1.02,0.52-1.63
		c0-0.43-0.08-0.82-0.24-1.17c-0.16-0.35-0.4-0.64-0.71-0.87s-0.69-0.38-1.13-0.46l-4.32-0.79c-0.91-0.16-1.69-0.47-2.35-0.91
		c-0.66-0.44-1.16-1.01-1.51-1.69c-0.34-0.68-0.52-1.46-0.52-2.34c0-0.94,0.27-1.81,0.81-2.58s1.3-1.39,2.28-1.85
		c0.98-0.45,2.1-0.68,3.36-0.68c1.25,0,2.37,0.2,3.38,0.61c1,0.41,1.8,0.97,2.4,1.7c0.6,0.72,0.92,1.53,0.96,2.41h-2.85
		c-0.03-0.47-0.22-0.89-0.57-1.26c-0.34-0.37-0.8-0.67-1.37-0.88s-1.21-0.31-1.92-0.31c-0.72,0-1.37,0.12-1.93,0.37
		c-0.56,0.24-0.99,0.58-1.3,1.01c-0.31,0.43-0.46,0.91-0.46,1.44c0,0.41,0.07,0.77,0.22,1.08c0.15,0.31,0.37,0.57,0.67,0.77
		c0.3,0.2,0.67,0.35,1.11,0.43l4.43,0.79c0.91,0.16,1.69,0.48,2.35,0.96c0.66,0.48,1.16,1.07,1.51,1.79
		c0.34,0.71,0.52,1.49,0.52,2.33c0,1.05-0.3,1.99-0.9,2.83c-0.6,0.84-1.43,1.5-2.48,1.98c-1.05,0.48-2.22,0.72-3.52,0.72
		C307.19,953.92,305.97,953.7,304.88,953.27z"/>
	<path d="M322.24,953.27c-1.09-0.43-1.96-1.04-2.61-1.81s-0.99-1.65-1.04-2.63h2.85c0.05,0.54,0.27,1.02,0.67,1.44
		c0.4,0.43,0.92,0.76,1.57,1.01c0.65,0.25,1.38,0.37,2.19,0.37c0.82,0,1.54-0.13,2.16-0.4s1.11-0.64,1.45-1.12s0.52-1.02,0.52-1.63
		c0-0.43-0.08-0.82-0.24-1.17c-0.16-0.35-0.4-0.64-0.71-0.87s-0.69-0.38-1.13-0.46l-4.32-0.79c-0.91-0.16-1.69-0.47-2.35-0.91
		c-0.66-0.44-1.16-1.01-1.51-1.69c-0.34-0.68-0.52-1.46-0.52-2.34c0-0.94,0.27-1.81,0.81-2.58s1.3-1.39,2.28-1.85
		c0.98-0.45,2.1-0.68,3.36-0.68c1.25,0,2.37,0.2,3.38,0.61c1,0.41,1.8,0.97,2.4,1.7c0.6,0.72,0.92,1.53,0.96,2.41h-2.85
		c-0.03-0.47-0.22-0.89-0.57-1.26c-0.34-0.37-0.8-0.67-1.37-0.88s-1.21-0.31-1.92-0.31c-0.72,0-1.37,0.12-1.93,0.37
		c-0.56,0.24-0.99,0.58-1.3,1.01c-0.31,0.43-0.46,0.91-0.46,1.44c0,0.41,0.07,0.77,0.22,1.08c0.15,0.31,0.37,0.57,0.67,0.77
		c0.3,0.2,0.67,0.35,1.11,0.43l4.43,0.79c0.91,0.16,1.69,0.48,2.35,0.96c0.66,0.48,1.16,1.07,1.51,1.79
		c0.34,0.71,0.52,1.49,0.52,2.33c0,1.05-0.3,1.99-0.9,2.83c-0.6,0.84-1.43,1.5-2.48,1.98c-1.05,0.48-2.22,0.72-3.52,0.72
		C324.55,953.92,323.33,953.7,322.24,953.27z"/>
</g>
<path class="st2" d="M447.42,649.82l-337.02,0c-16.57,0-30,13.43-30,30v66.54c0,16.57,13.43,30,30,30l337.02,0
	c16.57,0,30-13.43,30-30v-66.54C477.42,663.26,463.99,649.82,447.42,649.82z"/>
<g>
	<path d="M146.89,722.34h4.17c0.69,0,1.3-0.15,1.83-0.44s0.94-0.7,1.23-1.23c0.29-0.53,0.44-1.14,0.44-1.83v-18.29h2.9v18.46
		c0,1.18-0.26,2.23-0.79,3.14c-0.53,0.92-1.26,1.63-2.21,2.14c-0.95,0.51-2.02,0.76-3.24,0.76h-4.34V722.34z"/>
	<path d="M161.79,700.55h3.19l7.75,20.74l7.47-20.74h3.22l-9.29,24.5h-2.97L161.79,700.55z"/>
	<path d="M187.93,700.55h3.62l8.79,19.63l0.46,1.24l0.44-1.24l8.63-19.63h3.69v24.5h-2.9v-19.35v-0.46l-8.66,19.81h-2.43
		l-8.73-19.71v0.35v19.35h-2.89V700.55z"/>
	<path d="M229.74,700.55h2.9v24.5h-2.9V700.55z"/>
	<path d="M240.17,700.55h9.9c1.56,0,2.94,0.29,4.12,0.88c1.18,0.58,2.1,1.41,2.75,2.48c0.65,1.07,0.97,2.32,0.97,3.75
		s-0.33,2.67-0.99,3.75s-1.59,1.91-2.79,2.5c-1.2,0.59-2.6,0.88-4.2,0.88h-6.86v10.25h-2.9V700.55z M252.58,711.54
		c0.72-0.36,1.27-0.88,1.66-1.54c0.39-0.67,0.59-1.45,0.59-2.35c0-0.89-0.2-1.66-0.59-2.33c-0.39-0.67-0.94-1.18-1.66-1.53
		c-0.72-0.36-1.55-0.53-2.51-0.53h-7v8.82h7C251.03,712.08,251.87,711.9,252.58,711.54z M247.97,714.2h3.25l6.76,10.85h-3.4
		L247.97,714.2z"/>
	<path d="M271.6,700.55h2.8v24.5h-2.8V700.55z M276.86,724.45c-1.18-0.68-2.1-1.64-2.76-2.87s-1-2.66-1.02-4.28h1.16v-2.42h-1.16
		c0.02-1.62,0.36-3.05,1.02-4.28c0.66-1.23,1.58-2.19,2.76-2.87c1.18-0.68,2.54-1.02,4.08-1.02c1.67,0,3.15,0.39,4.45,1.18
		c1.3,0.79,2.32,1.89,3.04,3.32c0.73,1.42,1.09,3.05,1.09,4.88s-0.36,3.46-1.09,4.88c-0.73,1.42-1.74,2.53-3.04,3.32
		c-1.3,0.79-2.79,1.18-4.45,1.18C279.4,725.47,278.04,725.13,276.86,724.45z M283.67,722.07c0.92-0.58,1.64-1.38,2.15-2.42
		c0.51-1.03,0.77-2.22,0.77-3.56c0-1.34-0.26-2.53-0.77-3.56c-0.51-1.03-1.23-1.84-2.15-2.41c-0.92-0.58-1.98-0.87-3.17-0.87
		c-1.2,0-2.27,0.29-3.2,0.87c-0.93,0.58-1.66,1.38-2.18,2.41c-0.52,1.03-0.78,2.22-0.78,3.56c0,1.34,0.26,2.53,0.78,3.56
		c0.52,1.03,1.25,1.84,2.18,2.42c0.93,0.58,2,0.87,3.2,0.87C281.69,722.93,282.75,722.64,283.67,722.07z"/>
	<path d="M304.02,707.45c1.03,0.5,1.82,1.22,2.39,2.17c0.57,0.95,0.85,2.08,0.85,3.39v12.04h-2.73v-6.7h0.73
		c0,1.49-0.26,2.77-0.77,3.84s-1.25,1.88-2.21,2.44s-2.09,0.84-3.41,0.84c-1.14,0-2.18-0.22-3.1-0.67
		c-0.92-0.44-1.65-1.06-2.17-1.84c-0.52-0.78-0.79-1.67-0.79-2.66c0-0.93,0.24-1.79,0.73-2.58c0.48-0.79,1.16-1.43,2.01-1.93
		s1.82-0.81,2.9-0.93l4.78-0.52c0.4-0.05,0.71-0.21,0.93-0.49c0.22-0.28,0.33-0.69,0.33-1.24l0.21,3.67l-5.86,0.65
		c-0.61,0.07-1.15,0.25-1.62,0.54c-0.47,0.29-0.84,0.67-1.1,1.14c-0.26,0.47-0.39,0.98-0.39,1.54c0,0.61,0.16,1.14,0.48,1.61
		c0.32,0.47,0.77,0.83,1.34,1.09c0.57,0.26,1.23,0.39,1.96,0.39c1,0,1.88-0.2,2.63-0.61c0.75-0.41,1.33-0.98,1.74-1.72
		c0.41-0.74,0.61-1.6,0.61-2.56v-5.71c0-0.71-0.17-1.34-0.51-1.88s-0.81-0.96-1.43-1.26s-1.32-0.45-2.13-0.45
		c-0.8,0-1.53,0.14-2.17,0.41c-0.64,0.27-1.16,0.64-1.55,1.1c-0.39,0.46-0.63,0.96-0.71,1.5h-2.8c0.14-1.02,0.54-1.93,1.2-2.74
		c0.66-0.81,1.51-1.45,2.56-1.92c1.05-0.47,2.21-0.7,3.48-0.7C301.81,706.71,303,706.96,304.02,707.45z"/>
	<path d="M315.71,724.24c-1.37-0.82-2.44-1.94-3.21-3.37c-0.78-1.43-1.16-3.02-1.16-4.79s0.39-3.36,1.16-4.79s1.85-2.55,3.21-3.37
		c1.36-0.82,2.89-1.22,4.58-1.22c1.44,0,2.72,0.24,3.87,0.73c1.14,0.48,2.09,1.21,2.85,2.17c0.76,0.96,1.28,2.14,1.56,3.54h-2.8
		c-0.26-0.86-0.66-1.59-1.21-2.17s-1.19-1.02-1.92-1.3c-0.74-0.29-1.52-0.43-2.35-0.43c-1.15,0-2.19,0.29-3.11,0.88
		c-0.92,0.58-1.63,1.39-2.14,2.43c-0.51,1.04-0.77,2.22-0.77,3.54c0,1.31,0.26,2.48,0.77,3.52c0.51,1.04,1.23,1.85,2.14,2.44
		c0.92,0.59,1.95,0.88,3.11,0.88c0.83,0,1.61-0.14,2.35-0.43c0.73-0.29,1.38-0.72,1.92-1.3c0.55-0.58,0.95-1.31,1.21-2.17h2.8
		c-0.27,1.35-0.79,2.51-1.57,3.48c-0.78,0.97-1.75,1.7-2.91,2.21c-1.15,0.5-2.42,0.75-3.8,0.75
		C318.61,725.47,317.08,725.06,315.71,724.24z"/>
	<path d="M333.13,700.55h2.8v14.98l8.12-8.4h3.48l-8.17,8.54l8.49,9.38h-3.6l-8.31-9.03v9.03h-2.8V700.55z"/>
	<path d="M353.3,724.26c-1.34-0.8-2.39-1.92-3.14-3.35c-0.75-1.43-1.13-3.05-1.13-4.86c0-1.76,0.38-3.35,1.15-4.78
		s1.82-2.54,3.16-3.35c1.34-0.81,2.84-1.22,4.5-1.22c1.69,0,3.18,0.4,4.45,1.21c1.28,0.8,2.26,1.92,2.96,3.34
		c0.69,1.42,1.04,3.03,1.04,4.83v0.68h-14.47l0.04-0.77c0.01,1.35,0.28,2.56,0.81,3.63c0.53,1.07,1.26,1.9,2.2,2.49
		c0.93,0.59,1.98,0.89,3.15,0.89c0.78,0,1.51-0.1,2.18-0.29s1.25-0.47,1.75-0.84c0.5-0.37,0.88-0.8,1.15-1.29h2.8
		c-0.21,0.75-0.65,1.49-1.32,2.24c-0.67,0.75-1.58,1.37-2.73,1.87c-1.15,0.5-2.48,0.75-4,0.75
		C356.16,725.47,354.64,725.07,353.3,724.26z M351.82,714.46h11.67v1.59c0-1.38-0.22-2.58-0.65-3.61c-0.43-1.03-1.07-1.83-1.92-2.41
		c-0.85-0.57-1.86-0.86-3.05-0.86s-2.24,0.28-3.15,0.83s-1.62,1.34-2.12,2.36s-0.75,2.21-0.75,3.56L351.82,714.46z"/>
	<path d="M370.89,707.13h2.69v7.75h-1.12c0-1.66,0.29-3.1,0.86-4.33c0.57-1.23,1.39-2.18,2.45-2.84c1.06-0.67,2.31-1,3.75-1
		c1.28,0,2.42,0.27,3.41,0.82c0.99,0.55,1.77,1.36,2.34,2.42c0.57,1.07,0.85,2.35,0.85,3.84v11.25h-2.8v-10.97
		c0-1.04-0.18-1.92-0.55-2.66c-0.37-0.74-0.89-1.3-1.57-1.68c-0.68-0.38-1.48-0.58-2.42-0.58c-1,0-1.89,0.22-2.66,0.67
		c-0.77,0.44-1.37,1.06-1.79,1.86c-0.43,0.8-0.64,1.71-0.64,2.74v10.62h-2.8V707.13z"/>
	<path d="M394.33,724.29c-1.3-0.79-2.32-1.89-3.04-3.32c-0.73-1.42-1.09-3.05-1.09-4.88s0.36-3.46,1.09-4.88
		c0.73-1.42,1.74-2.53,3.04-3.32s2.79-1.18,4.45-1.18c1.54,0,2.9,0.34,4.08,1.02c1.18,0.68,2.1,1.64,2.76,2.87
		c0.66,1.23,1,2.66,1.02,4.28h-1.16v2.42h1.16c-0.02,1.62-0.37,3.05-1.02,4.28c-0.66,1.23-1.58,2.19-2.76,2.87
		c-1.18,0.68-2.54,1.02-4.08,1.02C397.12,725.47,395.63,725.08,394.33,724.29z M402.43,722.07c0.93-0.58,1.66-1.38,2.18-2.42
		c0.52-1.03,0.78-2.22,0.78-3.56c0-1.34-0.26-2.53-0.78-3.56c-0.52-1.03-1.25-1.84-2.18-2.41c-0.93-0.58-2-0.87-3.2-0.87
		c-1.19,0-2.25,0.29-3.17,0.87c-0.92,0.58-1.64,1.38-2.15,2.41c-0.51,1.03-0.77,2.22-0.77,3.56c0,1.34,0.26,2.53,0.77,3.56
		c0.51,1.03,1.23,1.84,2.15,2.42c0.92,0.58,1.98,0.87,3.17,0.87C400.42,722.93,401.49,722.64,402.43,722.07z M405.33,700.55h2.8
		v24.5h-2.8V700.55z"/>
</g>
<g>
	<rect x="1186.22" y="737.04" width="1.5" height="113.14"/>
</g>
<g>
	<polygon points="1179.49,847.99 1186.97,860.94 1194.45,847.99 	"/>
</g>
<g>
	<g>
		<g>
			<path class="st2" d="M1236.32,878.28l-98.61,0c-16.57,0-30,13.43-30,30v66.54c0,16.57,13.43,30,30,30l98.61,0
				c16.57,0,30-13.43,30-30v-66.54C1266.32,891.71,1252.89,878.28,1236.32,878.28z"/>
		</g>
	</g>
	<g>
		<g>
			<path d="M1155.74,934.67l0.58-2.12l6.04,1.8l-0.47,1.77L1155.74,934.67z M1157.32,939.92l4.18-4.69l1.4,1.15l-3.92,4.95
				L1157.32,939.92z M1161.27,929h2.19l-0.17,6.3h-1.84L1161.27,929z M1161.72,935.96c-0.18-0.18-0.27-0.4-0.27-0.66
				c0-0.26,0.09-0.47,0.27-0.65c0.18-0.17,0.4-0.26,0.66-0.26c0.26,0,0.47,0.09,0.65,0.26c0.18,0.18,0.26,0.39,0.26,0.65
				c0,0.26-0.09,0.48-0.26,0.66c-0.17,0.18-0.39,0.27-0.65,0.27C1162.12,936.23,1161.9,936.14,1161.72,935.96z M1161.83,936.38
				l1.4-1.15l4.18,4.69l-1.66,1.42L1161.83,936.38z M1162.37,934.36l6.04-1.8l0.58,2.12l-6.14,1.45L1162.37,934.36z"/>
			<path d="M1178.7,949.65v3.85h-3.85v-3.85H1178.7z"/>
			<path d="M1186.27,953.27c-1.09-0.43-1.96-1.04-2.61-1.81s-0.99-1.65-1.04-2.63h2.85c0.05,0.54,0.27,1.02,0.67,1.44
				s0.92,0.76,1.58,1.01c0.65,0.25,1.38,0.37,2.19,0.37c0.82,0,1.54-0.13,2.16-0.4s1.11-0.64,1.45-1.12
				c0.34-0.48,0.52-1.02,0.52-1.63c0-0.43-0.08-0.82-0.25-1.17c-0.16-0.35-0.4-0.64-0.71-0.87c-0.31-0.23-0.69-0.38-1.13-0.46
				l-4.32-0.79c-0.91-0.16-1.69-0.47-2.35-0.91s-1.16-1.01-1.5-1.69c-0.34-0.68-0.52-1.46-0.52-2.34c0-0.94,0.27-1.81,0.81-2.58
				c0.54-0.78,1.3-1.39,2.28-1.85c0.98-0.45,2.1-0.68,3.36-0.68c1.25,0,2.37,0.2,3.38,0.61c1,0.41,1.8,0.97,2.4,1.7
				c0.6,0.72,0.92,1.53,0.96,2.41h-2.85c-0.04-0.47-0.22-0.89-0.57-1.26c-0.34-0.37-0.8-0.67-1.37-0.88
				c-0.57-0.21-1.21-0.31-1.92-0.31c-0.72,0-1.37,0.12-1.93,0.37c-0.56,0.24-0.99,0.58-1.3,1.01c-0.31,0.43-0.46,0.91-0.46,1.44
				c0,0.41,0.07,0.77,0.22,1.08c0.15,0.31,0.37,0.57,0.67,0.77c0.3,0.2,0.67,0.35,1.11,0.43l4.43,0.79
				c0.91,0.16,1.69,0.48,2.35,0.96c0.66,0.48,1.16,1.07,1.51,1.79c0.34,0.71,0.52,1.49,0.52,2.33c0,1.05-0.3,1.99-0.9,2.83
				c-0.6,0.84-1.43,1.5-2.48,1.98c-1.05,0.48-2.22,0.72-3.52,0.72C1188.58,953.92,1187.36,953.7,1186.27,953.27z"/>
			<path d="M1204.52,952.7c-1.39-0.81-2.49-1.93-3.29-3.36c-0.8-1.43-1.2-3.03-1.2-4.8s0.4-3.37,1.2-4.8c0.8-1.43,1.9-2.55,3.3-3.36
				c1.4-0.81,2.95-1.22,4.65-1.22s3.25,0.41,4.64,1.22s2.48,1.93,3.28,3.35s1.2,3.03,1.2,4.81s-0.4,3.39-1.2,4.81
				s-1.89,2.54-3.28,3.35c-1.39,0.81-2.94,1.22-4.66,1.22C1207.46,953.92,1205.92,953.51,1204.52,952.7z M1212.35,950.51
				c0.93-0.57,1.67-1.37,2.21-2.41c0.54-1.03,0.8-2.22,0.8-3.56c0-1.34-0.27-2.53-0.8-3.57c-0.54-1.04-1.28-1.84-2.21-2.42
				c-0.94-0.57-1.99-0.86-3.16-0.86c-1.17,0-2.22,0.29-3.17,0.86s-1.69,1.38-2.23,2.42c-0.54,1.04-0.81,2.23-0.81,3.57
				c0,1.34,0.27,2.53,0.81,3.56c0.54,1.03,1.29,1.83,2.24,2.41c0.95,0.57,2.01,0.86,3.18,0.86
				C1210.37,951.37,1211.42,951.08,1212.35,950.51z"/>
		</g>
	</g>
</g>
<g>
	<rect x="1640.38" y="737.04" width="1.5" height="113.14"/>
</g>
<g>
	<polygon points="1633.65,847.99 1641.13,860.94 1648.61,847.99 	"/>
</g>
<path class="st2" d="M1809.64,649.82l-337.02,0c-16.57,0-30,13.43-30,30v66.54c0,16.57,13.43,30,30,30l337.02,0
	c16.57,0,30-13.43,30-30v-66.54C1839.64,663.26,1826.21,649.82,1809.64,649.82z"/>
<g>
	<g>
		<g>
			<g>
				<path d="M1518.05,700.55l6.7,20.27l6.35-20.27h2.76l6.42,20.27l6.56-20.27h3.04l-8.28,24.5h-2.83l-6.35-19.92l-6.46,19.92h-2.83
					l-8.24-24.5H1518.05z"/>
				<path d="M1561.84,707.45c1.03,0.5,1.82,1.22,2.39,2.17c0.57,0.95,0.85,2.08,0.85,3.39v12.04h-2.73v-6.7h0.74
					c0,1.49-0.26,2.77-0.77,3.84c-0.51,1.07-1.25,1.88-2.21,2.44c-0.96,0.56-2.09,0.84-3.41,0.84c-1.14,0-2.18-0.22-3.1-0.67
					s-1.64-1.06-2.17-1.84c-0.52-0.78-0.79-1.67-0.79-2.66c0-0.93,0.24-1.79,0.73-2.58c0.48-0.79,1.16-1.43,2.01-1.93
					s1.82-0.81,2.9-0.93l4.78-0.52c0.4-0.05,0.71-0.21,0.93-0.49c0.22-0.28,0.33-0.69,0.33-1.24l0.21,3.67l-5.86,0.65
					c-0.61,0.07-1.15,0.25-1.62,0.54c-0.47,0.29-0.84,0.67-1.1,1.14c-0.26,0.47-0.39,0.98-0.39,1.54c0,0.61,0.16,1.14,0.48,1.61
					c0.32,0.47,0.77,0.83,1.34,1.09s1.23,0.39,1.96,0.39c1,0,1.88-0.2,2.63-0.61c0.75-0.41,1.33-0.98,1.74-1.72s0.61-1.6,0.61-2.56
					v-5.71c0-0.71-0.17-1.34-0.51-1.88c-0.34-0.54-0.81-0.96-1.43-1.26s-1.32-0.45-2.13-0.45s-1.53,0.14-2.17,0.41
					c-0.64,0.27-1.16,0.64-1.55,1.1c-0.39,0.46-0.63,0.96-0.71,1.5h-2.8c0.14-1.02,0.54-1.93,1.2-2.74
					c0.66-0.81,1.51-1.45,2.56-1.92c1.05-0.47,2.21-0.7,3.48-0.7C1559.62,706.71,1560.81,706.96,1561.84,707.45z"/>
				<path d="M1572.92,724.82c-1.09-0.43-1.96-1.04-2.61-1.81s-0.99-1.65-1.04-2.63h2.85c0.05,0.54,0.27,1.02,0.67,1.44
					s0.92,0.76,1.58,1.01c0.65,0.25,1.38,0.37,2.19,0.37c0.82,0,1.54-0.13,2.16-0.4s1.11-0.64,1.45-1.12
					c0.34-0.48,0.52-1.02,0.52-1.63c0-0.43-0.08-0.82-0.25-1.17c-0.16-0.35-0.4-0.64-0.71-0.87c-0.31-0.23-0.69-0.38-1.13-0.46
					l-4.32-0.79c-0.91-0.16-1.69-0.47-2.35-0.91s-1.16-1.01-1.5-1.69c-0.34-0.68-0.52-1.46-0.52-2.34c0-0.94,0.27-1.81,0.81-2.58
					c0.54-0.78,1.3-1.39,2.28-1.85c0.98-0.45,2.1-0.68,3.36-0.68c1.25,0,2.37,0.2,3.38,0.61c1,0.41,1.8,0.97,2.4,1.7
					c0.6,0.72,0.92,1.53,0.96,2.41h-2.85c-0.04-0.47-0.22-0.89-0.57-1.26c-0.34-0.37-0.8-0.67-1.37-0.88
					c-0.57-0.21-1.21-0.31-1.92-0.31c-0.72,0-1.37,0.12-1.93,0.37c-0.56,0.24-0.99,0.58-1.3,1.01c-0.31,0.43-0.46,0.91-0.46,1.44
					c0,0.41,0.07,0.77,0.22,1.08c0.15,0.31,0.37,0.57,0.67,0.77c0.3,0.2,0.67,0.35,1.11,0.43l4.43,0.79
					c0.91,0.16,1.69,0.48,2.35,0.96c0.66,0.48,1.16,1.07,1.51,1.79c0.34,0.71,0.52,1.49,0.52,2.33c0,1.05-0.3,1.99-0.9,2.83
					c-0.6,0.84-1.43,1.5-2.48,1.98c-1.05,0.48-2.22,0.72-3.52,0.72C1575.24,725.47,1574.01,725.25,1572.92,724.82z"/>
				<path d="M1588.21,707.13h2.7v7.75h-0.95c0-1.68,0.26-3.13,0.78-4.36c0.52-1.23,1.27-2.17,2.25-2.83
					c0.98-0.66,2.15-0.99,3.5-0.99c1.27,0,2.39,0.29,3.34,0.87c0.96,0.58,1.7,1.4,2.22,2.46c0.53,1.06,0.79,2.3,0.79,3.71v11.31
					h-2.8v-11.18c0-0.98-0.17-1.83-0.5-2.55c-0.33-0.72-0.82-1.27-1.45-1.65c-0.64-0.39-1.4-0.58-2.28-0.58
					c-0.97,0-1.81,0.22-2.54,0.65s-1.28,1.05-1.67,1.85c-0.39,0.81-0.59,1.75-0.59,2.83v10.62h-2.8V707.13z M1611.37,711.32
					c-0.33-0.72-0.81-1.27-1.44-1.65c-0.63-0.39-1.39-0.58-2.29-0.58c-0.96,0-1.8,0.22-2.52,0.66s-1.28,1.06-1.68,1.85
					c-0.4,0.8-0.6,1.74-0.6,2.83l-1.57,0.46c0-1.61,0.28-3.03,0.84-4.27c0.56-1.24,1.36-2.2,2.41-2.88
					c1.04-0.68,2.26-1.02,3.65-1.02c1.27,0,2.4,0.29,3.39,0.87c0.99,0.58,1.75,1.4,2.3,2.46c0.55,1.06,0.82,2.3,0.82,3.71v11.31
					h-2.8v-11.18C1611.87,712.89,1611.7,712.04,1611.37,711.32z"/>
				<path d="M1628.93,700.55h2.8v24.5h-2.8V700.55z M1634.2,724.45c-1.18-0.68-2.1-1.64-2.76-2.87s-1-2.66-1.02-4.28h1.16v-2.42
					h-1.16c0.02-1.62,0.36-3.05,1.02-4.28c0.66-1.23,1.58-2.19,2.76-2.87c1.18-0.68,2.54-1.02,4.08-1.02c1.67,0,3.15,0.39,4.45,1.18
					c1.3,0.79,2.32,1.89,3.04,3.32c0.73,1.42,1.09,3.05,1.09,4.88s-0.37,3.46-1.09,4.88c-0.73,1.42-1.74,2.53-3.04,3.32
					c-1.3,0.79-2.79,1.18-4.45,1.18C1636.74,725.47,1635.38,725.13,1634.2,724.45z M1641.01,722.07c0.92-0.58,1.64-1.38,2.15-2.42
					c0.51-1.03,0.77-2.22,0.77-3.56c0-1.34-0.26-2.53-0.77-3.56c-0.51-1.03-1.23-1.84-2.15-2.41c-0.92-0.58-1.98-0.87-3.17-0.87
					c-1.2,0-2.27,0.29-3.2,0.87c-0.93,0.58-1.66,1.38-2.18,2.41c-0.52,1.03-0.78,2.22-0.78,3.56c0,1.34,0.26,2.53,0.78,3.56
					c0.52,1.03,1.25,1.84,2.18,2.42c0.93,0.58,2,0.87,3.2,0.87C1639.03,722.93,1640.08,722.64,1641.01,722.07z"/>
				<path d="M1661.36,707.45c1.03,0.5,1.82,1.22,2.39,2.17c0.57,0.95,0.85,2.08,0.85,3.39v12.04h-2.73v-6.7h0.74
					c0,1.49-0.26,2.77-0.77,3.84c-0.51,1.07-1.25,1.88-2.21,2.44c-0.96,0.56-2.09,0.84-3.41,0.84c-1.14,0-2.18-0.22-3.1-0.67
					s-1.64-1.06-2.17-1.84c-0.52-0.78-0.79-1.67-0.79-2.66c0-0.93,0.24-1.79,0.73-2.58c0.48-0.79,1.16-1.43,2.01-1.93
					s1.82-0.81,2.9-0.93l4.78-0.52c0.4-0.05,0.71-0.21,0.93-0.49c0.22-0.28,0.33-0.69,0.33-1.24l0.21,3.67l-5.86,0.65
					c-0.61,0.07-1.15,0.25-1.62,0.54c-0.47,0.29-0.84,0.67-1.1,1.14c-0.26,0.47-0.39,0.98-0.39,1.54c0,0.61,0.16,1.14,0.48,1.61
					c0.32,0.47,0.77,0.83,1.34,1.09s1.23,0.39,1.96,0.39c1,0,1.88-0.2,2.63-0.61c0.75-0.41,1.33-0.98,1.74-1.72s0.61-1.6,0.61-2.56
					v-5.71c0-0.71-0.17-1.34-0.51-1.88c-0.34-0.54-0.81-0.96-1.43-1.26s-1.32-0.45-2.13-0.45s-1.53,0.14-2.17,0.41
					c-0.64,0.27-1.16,0.64-1.55,1.1c-0.39,0.46-0.63,0.96-0.71,1.5h-2.8c0.14-1.02,0.54-1.93,1.2-2.74
					c0.66-0.81,1.51-1.45,2.56-1.92c1.05-0.47,2.21-0.7,3.48-0.7C1659.14,706.71,1660.33,706.96,1661.36,707.45z"/>
				<path d="M1673.05,724.24c-1.37-0.82-2.44-1.94-3.21-3.37c-0.78-1.43-1.16-3.02-1.16-4.79s0.39-3.36,1.16-4.79
					c0.78-1.43,1.85-2.55,3.21-3.37c1.36-0.82,2.89-1.22,4.58-1.22c1.43,0,2.72,0.24,3.87,0.73c1.14,0.48,2.09,1.21,2.85,2.17
					c0.76,0.96,1.28,2.14,1.56,3.54h-2.8c-0.26-0.86-0.66-1.59-1.21-2.17c-0.55-0.58-1.19-1.02-1.92-1.3
					c-0.74-0.29-1.52-0.43-2.34-0.43c-1.16,0-2.19,0.29-3.11,0.88c-0.92,0.58-1.63,1.39-2.14,2.43c-0.51,1.04-0.77,2.22-0.77,3.54
					c0,1.31,0.26,2.48,0.77,3.52c0.51,1.04,1.23,1.85,2.14,2.44c0.92,0.59,1.95,0.88,3.11,0.88c0.83,0,1.61-0.14,2.34-0.43
					c0.74-0.29,1.38-0.72,1.92-1.3c0.55-0.58,0.95-1.31,1.21-2.17h2.8c-0.27,1.35-0.79,2.51-1.58,3.48
					c-0.78,0.97-1.75,1.7-2.91,2.21c-1.15,0.5-2.42,0.75-3.8,0.75C1675.94,725.47,1674.41,725.06,1673.05,724.24z"/>
				<path d="M1690.46,700.55h2.8v14.98l8.12-8.4h3.48l-8.17,8.54l8.49,9.38h-3.6l-8.31-9.03v9.03h-2.8V700.55z"/>
				<path d="M1710.64,724.26c-1.34-0.8-2.39-1.92-3.14-3.35c-0.75-1.43-1.13-3.05-1.13-4.86c0-1.76,0.38-3.35,1.15-4.78
					c0.76-1.42,1.82-2.54,3.16-3.35s2.84-1.22,4.5-1.22c1.69,0,3.18,0.4,4.45,1.21c1.28,0.8,2.26,1.92,2.96,3.34
					c0.69,1.42,1.04,3.03,1.04,4.83v0.68h-14.47l0.04-0.77c0.01,1.35,0.28,2.56,0.81,3.63c0.53,1.07,1.26,1.9,2.2,2.49
					c0.93,0.59,1.98,0.89,3.15,0.89c0.78,0,1.51-0.1,2.18-0.29s1.25-0.47,1.75-0.84c0.5-0.37,0.88-0.8,1.15-1.29h2.8
					c-0.21,0.75-0.65,1.49-1.32,2.24c-0.67,0.75-1.58,1.37-2.73,1.87s-2.48,0.75-4,0.75
					C1713.49,725.47,1711.98,725.07,1710.64,724.26z M1709.15,714.46h11.67v1.59c0-1.38-0.22-2.58-0.65-3.61
					c-0.43-1.03-1.07-1.83-1.92-2.41c-0.85-0.57-1.86-0.86-3.05-0.86c-1.19,0-2.24,0.28-3.15,0.83s-1.62,1.34-2.12,2.36
					c-0.5,1.02-0.75,2.21-0.75,3.56L1709.15,714.46z"/>
				<path d="M1728.23,707.13h2.69v7.75h-1.12c0-1.66,0.29-3.1,0.86-4.33c0.57-1.23,1.39-2.18,2.45-2.84c1.06-0.67,2.31-1,3.75-1
					c1.28,0,2.42,0.27,3.41,0.82c0.99,0.55,1.77,1.36,2.34,2.42c0.57,1.07,0.85,2.35,0.85,3.84v11.25h-2.8v-10.97
					c0-1.04-0.18-1.92-0.55-2.66c-0.37-0.74-0.89-1.3-1.57-1.68c-0.68-0.38-1.48-0.58-2.42-0.58c-1,0-1.89,0.22-2.66,0.67
					c-0.77,0.44-1.37,1.06-1.79,1.86c-0.43,0.8-0.64,1.71-0.64,2.74v10.62h-2.8V707.13z"/>
				<path d="M1751.67,724.29c-1.3-0.79-2.32-1.89-3.04-3.32c-0.73-1.42-1.09-3.05-1.09-4.88s0.36-3.46,1.09-4.88
					s1.74-2.53,3.04-3.32s2.79-1.18,4.45-1.18c1.54,0,2.9,0.34,4.08,1.02c1.18,0.68,2.1,1.64,2.76,2.87c0.66,1.23,1,2.66,1.02,4.28
					h-1.16v2.42h1.16c-0.02,1.62-0.37,3.05-1.02,4.28c-0.66,1.23-1.58,2.19-2.76,2.87c-1.18,0.68-2.54,1.02-4.08,1.02
					C1754.45,725.47,1752.97,725.08,1751.67,724.29z M1759.76,722.07c0.93-0.58,1.66-1.38,2.18-2.42c0.52-1.03,0.78-2.22,0.78-3.56
					c0-1.34-0.26-2.53-0.78-3.56c-0.52-1.03-1.25-1.84-2.18-2.41c-0.93-0.58-2-0.87-3.2-0.87c-1.19,0-2.25,0.29-3.17,0.87
					c-0.92,0.58-1.64,1.38-2.15,2.41c-0.51,1.03-0.77,2.22-0.77,3.56c0,1.34,0.26,2.53,0.77,3.56c0.51,1.03,1.23,1.84,2.15,2.42
					c0.92,0.58,1.98,0.87,3.17,0.87C1757.76,722.93,1758.83,722.64,1759.76,722.07z M1762.66,700.55h2.8v24.5h-2.8V700.55z"/>
			</g>
		</g>
	</g>
</g>
<g>
	<g>
		<g>
			<path class="st2" d="M1690.43,878.28l-98.61,0c-16.57,0-30,13.43-30,30v66.54c0,16.57,13.43,30,30,30l98.61,0
				c16.57,0,30-13.43,30-30v-66.54C1720.43,891.71,1707,878.28,1690.43,878.28z"/>
		</g>
	</g>
	<g>
		<g>
			<path d="M1580.93,934.67l0.58-2.12l6.04,1.8l-0.47,1.77L1580.93,934.67z M1582.5,939.92l4.18-4.69l1.4,1.15l-3.92,4.95
				L1582.5,939.92z M1586.46,929h2.19l-0.17,6.3h-1.84L1586.46,929z M1586.9,935.96c-0.18-0.18-0.27-0.4-0.27-0.66
				c0-0.26,0.09-0.47,0.27-0.65c0.18-0.17,0.4-0.26,0.66-0.26c0.26,0,0.47,0.09,0.65,0.26c0.18,0.18,0.26,0.39,0.26,0.65
				c0,0.26-0.09,0.48-0.26,0.66c-0.17,0.18-0.39,0.27-0.65,0.27C1587.3,936.23,1587.09,936.14,1586.9,935.96z M1587.02,936.38
				l1.4-1.15l4.18,4.69l-1.66,1.42L1587.02,936.38z M1587.56,934.36l6.04-1.8l0.58,2.12l-6.14,1.45L1587.56,934.36z"/>
			<path d="M1603.89,949.65v3.85h-3.85v-3.85H1603.89z"/>
			<path d="M1606.11,935.58h3.01l4.22,12.88l0.4,1.52l0.37-1.52l4.43-12.88h2.68l4.51,12.88l0.4,1.52l0.37-1.52l4.11-12.88h2.94
				l-6.14,17.92h-2.77l-4.43-13.48l-0.33-1.24l-0.3,1.21l-4.6,13.51h-2.73L1606.11,935.58z"/>
			<path d="M1646.99,935.9c1.03,0.5,1.82,1.22,2.39,2.17c0.57,0.95,0.85,2.08,0.85,3.39v12.04h-2.73v-6.7h0.73
				c0,1.49-0.26,2.77-0.77,3.84c-0.51,1.07-1.25,1.88-2.21,2.44c-0.96,0.56-2.09,0.84-3.41,0.84c-1.14,0-2.18-0.22-3.1-0.67
				c-0.92-0.44-1.65-1.06-2.17-1.84c-0.53-0.78-0.79-1.67-0.79-2.66c0-0.93,0.24-1.79,0.73-2.58s1.16-1.43,2.01-1.93
				s1.82-0.81,2.9-0.93l4.78-0.52c0.4-0.05,0.71-0.21,0.93-0.49c0.22-0.28,0.33-0.69,0.33-1.24l0.21,3.67l-5.86,0.65
				c-0.61,0.07-1.15,0.25-1.62,0.54c-0.47,0.29-0.84,0.67-1.1,1.14c-0.26,0.47-0.39,0.98-0.39,1.54c0,0.61,0.16,1.14,0.48,1.61
				c0.32,0.47,0.77,0.83,1.34,1.09c0.57,0.26,1.22,0.39,1.96,0.39c1,0,1.88-0.2,2.63-0.61c0.75-0.41,1.33-0.98,1.74-1.72
				c0.41-0.74,0.61-1.6,0.61-2.56v-5.71c0-0.71-0.17-1.34-0.51-1.88c-0.34-0.54-0.81-0.96-1.43-1.26s-1.32-0.45-2.13-0.45
				c-0.8,0-1.53,0.14-2.17,0.41c-0.64,0.27-1.16,0.64-1.55,1.1c-0.39,0.46-0.63,0.96-0.71,1.5h-2.8c0.14-1.02,0.54-1.93,1.2-2.74
				s1.51-1.45,2.56-1.92c1.05-0.47,2.21-0.7,3.48-0.7C1644.77,935.16,1645.96,935.41,1646.99,935.9z"/>
			<path d="M1658.08,953.27c-1.09-0.43-1.96-1.04-2.61-1.81s-1-1.65-1.04-2.63h2.85c0.05,0.54,0.27,1.02,0.67,1.44
				c0.4,0.43,0.92,0.76,1.57,1.01c0.65,0.25,1.38,0.37,2.19,0.37c0.82,0,1.54-0.13,2.16-0.4s1.11-0.64,1.45-1.12
				c0.34-0.48,0.52-1.02,0.52-1.63c0-0.43-0.08-0.82-0.24-1.17c-0.16-0.35-0.4-0.64-0.71-0.87c-0.31-0.23-0.69-0.38-1.13-0.46
				l-4.32-0.79c-0.91-0.16-1.7-0.47-2.35-0.91c-0.66-0.44-1.16-1.01-1.51-1.69c-0.34-0.68-0.52-1.46-0.52-2.34
				c0-0.94,0.27-1.81,0.81-2.58c0.54-0.78,1.3-1.39,2.28-1.85c0.98-0.45,2.1-0.68,3.36-0.68c1.25,0,2.37,0.2,3.38,0.61
				c1,0.41,1.8,0.97,2.4,1.7c0.59,0.72,0.92,1.53,0.96,2.41h-2.85c-0.03-0.47-0.22-0.89-0.57-1.26c-0.34-0.37-0.8-0.67-1.37-0.88
				c-0.57-0.21-1.21-0.31-1.92-0.31c-0.72,0-1.37,0.12-1.92,0.37c-0.56,0.24-1,0.58-1.3,1.01c-0.31,0.43-0.46,0.91-0.46,1.44
				c0,0.41,0.07,0.77,0.22,1.08c0.15,0.31,0.37,0.57,0.67,0.77c0.3,0.2,0.67,0.35,1.11,0.43l4.43,0.79
				c0.91,0.16,1.69,0.48,2.35,0.96c0.66,0.48,1.16,1.07,1.5,1.79c0.34,0.71,0.52,1.49,0.52,2.33c0,1.05-0.3,1.99-0.9,2.83
				c-0.6,0.84-1.43,1.5-2.48,1.98c-1.05,0.48-2.22,0.72-3.52,0.72C1660.39,953.92,1659.17,953.7,1658.08,953.27z"/>
			<path d="M1673.36,935.58h2.69v7.75h-0.94c0-1.68,0.26-3.13,0.78-4.36s1.27-2.17,2.25-2.83c0.98-0.66,2.15-0.99,3.5-0.99
				c1.27,0,2.39,0.29,3.34,0.87c0.96,0.58,1.7,1.4,2.22,2.46c0.53,1.06,0.79,2.3,0.79,3.71v11.31h-2.8v-11.18
				c0-0.98-0.17-1.83-0.5-2.55c-0.33-0.72-0.82-1.27-1.45-1.65c-0.64-0.39-1.4-0.58-2.28-0.58c-0.97,0-1.81,0.22-2.54,0.65
				c-0.72,0.43-1.28,1.05-1.67,1.85s-0.59,1.75-0.59,2.83v10.62h-2.8V935.58z M1696.52,939.77c-0.33-0.72-0.81-1.27-1.44-1.65
				c-0.63-0.39-1.39-0.58-2.29-0.58c-0.96,0-1.8,0.22-2.52,0.66c-0.72,0.44-1.28,1.06-1.68,1.85c-0.4,0.8-0.59,1.74-0.59,2.83
				l-1.58,0.46c0-1.61,0.28-3.03,0.84-4.27c0.56-1.24,1.36-2.2,2.41-2.88c1.04-0.68,2.26-1.02,3.65-1.02c1.27,0,2.4,0.29,3.39,0.87
				c0.99,0.58,1.75,1.4,2.3,2.46c0.55,1.06,0.82,2.3,0.82,3.71v11.31h-2.8v-11.18C1697.02,941.34,1696.86,940.49,1696.52,939.77z"/>
		</g>
	</g>
</g>
<g>
	<rect x="732.22" y="737.04" width="1.5" height="113.14"/>
</g>
<g>
	<polygon points="725.49,847.99 732.97,860.94 740.45,847.99 	"/>
</g>
<path class="st2" d="M782.27,878.28l-98.61,0c-16.57,0-30,13.43-30,30v66.54c0,16.57,13.43,30,30,30l98.61,0c16.57,0,30-13.43,30-30
	v-66.54C812.27,891.71,798.84,878.28,782.27,878.28z"/>
<g>
	<path d="M709.56,934.67l0.58-2.12l6.04,1.8l-0.47,1.77L709.56,934.67z M711.13,939.92l4.18-4.69l1.4,1.15l-3.92,4.95L711.13,939.92
		z M715.09,929h2.19l-0.17,6.3h-1.84L715.09,929z M715.53,935.96c-0.18-0.18-0.27-0.4-0.27-0.66c0-0.26,0.09-0.47,0.27-0.65
		c0.18-0.17,0.4-0.26,0.66-0.26s0.47,0.09,0.65,0.26c0.17,0.18,0.26,0.39,0.26,0.65c0,0.26-0.09,0.48-0.26,0.66
		c-0.17,0.18-0.39,0.27-0.65,0.27S715.71,936.14,715.53,935.96z M715.65,936.38l1.4-1.15l4.18,4.69l-1.66,1.42L715.65,936.38z
		 M716.19,934.36l6.04-1.8l0.58,2.12l-6.14,1.45L716.19,934.36z"/>
	<path d="M732.52,949.65v3.85h-3.85v-3.85H732.52z"/>
	<path d="M733.37,956.44h1.54c0.57,0,1.04-0.18,1.39-0.53c0.36-0.36,0.53-0.82,0.53-1.39v-18.94h2.8v19.15
		c0,0.85-0.19,1.61-0.58,2.27s-0.92,1.18-1.61,1.55c-0.69,0.37-1.48,0.55-2.36,0.55h-1.71V956.44z M739.88,929v3.33h-3.29V929
		H739.88z"/>
	<path d="M747.77,953.27c-1.09-0.43-1.96-1.04-2.61-1.81s-0.99-1.65-1.04-2.63h2.85c0.05,0.54,0.27,1.02,0.67,1.44
		s0.92,0.76,1.58,1.01c0.65,0.25,1.38,0.37,2.19,0.37c0.82,0,1.54-0.13,2.16-0.4s1.11-0.64,1.45-1.12c0.34-0.48,0.52-1.02,0.52-1.63
		c0-0.43-0.08-0.82-0.25-1.17c-0.16-0.35-0.4-0.64-0.71-0.87c-0.31-0.23-0.69-0.38-1.13-0.46l-4.32-0.79
		c-0.91-0.16-1.69-0.47-2.35-0.91s-1.16-1.01-1.5-1.69c-0.34-0.68-0.52-1.46-0.52-2.34c0-0.94,0.27-1.81,0.81-2.58
		c0.54-0.78,1.3-1.39,2.28-1.85c0.98-0.45,2.1-0.68,3.36-0.68c1.25,0,2.37,0.2,3.38,0.61c1,0.41,1.8,0.97,2.4,1.7
		c0.6,0.72,0.92,1.53,0.96,2.41h-2.85c-0.04-0.47-0.22-0.89-0.57-1.26c-0.34-0.37-0.8-0.67-1.37-0.88
		c-0.57-0.21-1.21-0.31-1.92-0.31c-0.72,0-1.37,0.12-1.93,0.37c-0.56,0.24-0.99,0.58-1.3,1.01c-0.31,0.43-0.46,0.91-0.46,1.44
		c0,0.41,0.07,0.77,0.22,1.08c0.15,0.31,0.37,0.57,0.67,0.77c0.3,0.2,0.67,0.35,1.11,0.43l4.43,0.79c0.91,0.16,1.69,0.48,2.35,0.96
		c0.66,0.48,1.16,1.07,1.51,1.79c0.34,0.71,0.52,1.49,0.52,2.33c0,1.05-0.3,1.99-0.9,2.83c-0.6,0.84-1.43,1.5-2.48,1.98
		c-1.05,0.48-2.22,0.72-3.52,0.72C750.08,953.92,748.86,953.7,747.77,953.27z"/>
</g>
<path class="st2" d="M901.48,649.82l-337.02,0c-16.57,0-30,13.43-30,30v66.54c0,16.57,13.43,30,30,30l337.02,0
	c16.57,0,30-13.43,30-30v-66.54C931.48,663.26,918.05,649.82,901.48,649.82z"/>
<g>
	<path d="M618.58,722.34h4.17c0.69,0,1.3-0.15,1.83-0.44c0.53-0.29,0.94-0.7,1.23-1.23c0.29-0.53,0.44-1.14,0.44-1.83v-18.29h2.9
		v18.46c0,1.18-0.26,2.23-0.79,3.14c-0.53,0.92-1.26,1.63-2.21,2.14s-2.02,0.76-3.24,0.76h-4.34V722.34z"/>
	<path d="M638.73,724.54c-1.29-0.62-2.29-1.48-3.01-2.59c-0.72-1.11-1.08-2.38-1.08-3.81h2.97c0,0.92,0.23,1.74,0.7,2.45
		s1.13,1.27,1.98,1.66s1.83,0.59,2.92,0.59c1.08,0,2.04-0.18,2.86-0.55c0.82-0.37,1.46-0.89,1.91-1.56
		c0.45-0.67,0.67-1.44,0.67-2.32c0-1.11-0.33-2.06-0.99-2.85s-1.54-1.28-2.63-1.47l-3.95-0.68c-1.19-0.21-2.22-0.62-3.1-1.24
		s-1.55-1.39-2.01-2.31c-0.47-0.92-0.7-1.93-0.7-3.01c0-1.27,0.33-2.42,1.01-3.44s1.6-1.82,2.8-2.41c1.2-0.58,2.54-0.88,4.03-0.88
		c1.54,0,2.91,0.29,4.11,0.87c1.2,0.58,2.14,1.38,2.8,2.41c0.67,1.03,1,2.2,1,3.52h-2.97c0-0.81-0.2-1.53-0.61-2.16
		c-0.41-0.64-0.98-1.13-1.72-1.48c-0.74-0.35-1.59-0.52-2.56-0.52s-1.83,0.17-2.57,0.51c-0.75,0.34-1.33,0.82-1.74,1.44
		c-0.41,0.62-0.62,1.34-0.62,2.15c0,0.97,0.31,1.8,0.94,2.5c0.62,0.7,1.44,1.14,2.46,1.31l4.03,0.7c1.17,0.21,2.21,0.66,3.11,1.35
		c0.91,0.69,1.62,1.53,2.12,2.53c0.5,1,0.75,2.04,0.75,3.14c0,1.32-0.36,2.52-1.07,3.6s-1.71,1.93-2.99,2.56s-2.74,0.94-4.38,0.94
		C641.51,725.47,640.02,725.16,638.73,724.54z"/>
	<path d="M666.16,700.55h2.9v24.5h-2.9V700.55z"/>
	<path d="M676.59,700.55h9.9c1.56,0,2.94,0.29,4.12,0.88c1.18,0.58,2.1,1.41,2.75,2.48c0.65,1.07,0.97,2.32,0.97,3.75
		s-0.33,2.67-0.99,3.75s-1.59,1.91-2.79,2.5c-1.2,0.59-2.6,0.88-4.2,0.88h-6.86v10.25h-2.9V700.55z M689.01,711.54
		c0.72-0.36,1.27-0.88,1.66-1.54s0.59-1.45,0.59-2.35c0-0.89-0.2-1.66-0.59-2.33s-0.94-1.18-1.66-1.53
		c-0.72-0.36-1.55-0.53-2.51-0.53h-7v8.82h7C687.46,712.08,688.29,711.9,689.01,711.54z M684.4,714.2h3.25l6.75,10.85h-3.39
		L684.4,714.2z"/>
	<path d="M708.02,700.55h2.8v24.5h-2.8V700.55z M713.29,724.45c-1.18-0.68-2.1-1.64-2.76-2.87s-1-2.66-1.02-4.28h1.16v-2.42h-1.16
		c0.02-1.62,0.37-3.05,1.02-4.28c0.66-1.23,1.58-2.19,2.76-2.87c1.18-0.68,2.54-1.02,4.08-1.02c1.67,0,3.15,0.39,4.45,1.18
		s2.32,1.89,3.04,3.32s1.09,3.05,1.09,4.88s-0.36,3.46-1.09,4.88c-0.73,1.42-1.74,2.53-3.04,3.32s-2.79,1.18-4.45,1.18
		C715.83,725.47,714.47,725.13,713.29,724.45z M720.1,722.07c0.92-0.58,1.64-1.38,2.15-2.42c0.51-1.03,0.77-2.22,0.77-3.56
		c0-1.34-0.26-2.53-0.77-3.56c-0.51-1.03-1.23-1.84-2.15-2.41c-0.92-0.58-1.98-0.87-3.17-0.87c-1.2,0-2.27,0.29-3.2,0.87
		c-0.93,0.58-1.66,1.38-2.18,2.41c-0.52,1.03-0.78,2.22-0.78,3.56c0,1.34,0.26,2.53,0.78,3.56c0.52,1.03,1.25,1.84,2.18,2.42
		c0.93,0.58,2,0.87,3.2,0.87C718.12,722.93,719.18,722.64,720.1,722.07z"/>
	<path d="M740.45,707.45c1.03,0.5,1.82,1.22,2.39,2.17c0.57,0.95,0.85,2.08,0.85,3.39v12.04h-2.73v-6.7h0.73
		c0,1.49-0.26,2.77-0.77,3.84c-0.51,1.07-1.25,1.88-2.21,2.44c-0.96,0.56-2.09,0.84-3.41,0.84c-1.14,0-2.18-0.22-3.1-0.67
		c-0.92-0.44-1.65-1.06-2.17-1.84c-0.53-0.78-0.79-1.67-0.79-2.66c0-0.93,0.24-1.79,0.73-2.58s1.16-1.43,2.01-1.93
		s1.82-0.81,2.9-0.93l4.78-0.52c0.4-0.05,0.71-0.21,0.93-0.49c0.22-0.28,0.33-0.69,0.33-1.24l0.21,3.67l-5.86,0.65
		c-0.61,0.07-1.15,0.25-1.62,0.54c-0.47,0.29-0.84,0.67-1.1,1.14c-0.26,0.47-0.39,0.98-0.39,1.54c0,0.61,0.16,1.14,0.48,1.61
		c0.32,0.47,0.77,0.83,1.34,1.09c0.57,0.26,1.22,0.39,1.96,0.39c1,0,1.88-0.2,2.63-0.61c0.75-0.41,1.33-0.98,1.74-1.72
		c0.41-0.74,0.61-1.6,0.61-2.56v-5.71c0-0.71-0.17-1.34-0.51-1.88c-0.34-0.54-0.81-0.96-1.43-1.26s-1.32-0.45-2.13-0.45
		c-0.8,0-1.53,0.14-2.17,0.41c-0.64,0.27-1.16,0.64-1.55,1.1c-0.39,0.46-0.63,0.96-0.71,1.5h-2.8c0.14-1.02,0.54-1.93,1.2-2.74
		s1.51-1.45,2.56-1.92c1.05-0.47,2.21-0.7,3.48-0.7C738.23,706.71,739.42,706.96,740.45,707.45z"/>
	<path d="M752.14,724.24c-1.37-0.82-2.44-1.94-3.21-3.37c-0.78-1.43-1.16-3.02-1.16-4.79s0.39-3.36,1.16-4.79
		c0.78-1.43,1.85-2.55,3.21-3.37c1.37-0.82,2.89-1.22,4.58-1.22c1.44,0,2.72,0.24,3.87,0.73c1.14,0.48,2.09,1.21,2.85,2.17
		c0.76,0.96,1.28,2.14,1.56,3.54h-2.8c-0.26-0.86-0.66-1.59-1.21-2.17c-0.55-0.58-1.19-1.02-1.92-1.3
		c-0.74-0.29-1.52-0.43-2.35-0.43c-1.15,0-2.19,0.29-3.11,0.88c-0.92,0.58-1.63,1.39-2.14,2.43c-0.51,1.04-0.77,2.22-0.77,3.54
		c0,1.31,0.26,2.48,0.77,3.52s1.23,1.85,2.14,2.44c0.92,0.59,1.95,0.88,3.11,0.88c0.83,0,1.61-0.14,2.35-0.43
		c0.73-0.29,1.38-0.72,1.92-1.3c0.55-0.58,0.95-1.31,1.21-2.17h2.8c-0.27,1.35-0.79,2.51-1.57,3.48c-0.78,0.97-1.75,1.7-2.91,2.21
		s-2.42,0.75-3.8,0.75C755.03,725.47,753.51,725.06,752.14,724.24z"/>
	<path d="M769.55,700.55h2.8v14.98l8.12-8.4h3.48l-8.17,8.54l8.49,9.38h-3.61l-8.31-9.03v9.03h-2.8V700.55z"/>
	<path d="M789.73,724.26c-1.34-0.8-2.39-1.92-3.14-3.35s-1.13-3.05-1.13-4.86c0-1.76,0.38-3.35,1.15-4.78
		c0.76-1.42,1.82-2.54,3.16-3.35c1.34-0.81,2.84-1.22,4.5-1.22c1.69,0,3.18,0.4,4.45,1.21c1.28,0.8,2.26,1.92,2.96,3.34
		s1.04,3.03,1.04,4.83v0.68h-14.47l0.04-0.77c0.01,1.35,0.28,2.56,0.81,3.63c0.53,1.07,1.26,1.9,2.2,2.49
		c0.93,0.59,1.98,0.89,3.15,0.89c0.78,0,1.51-0.1,2.18-0.29s1.25-0.47,1.75-0.84s0.88-0.8,1.15-1.29h2.8
		c-0.21,0.75-0.65,1.49-1.32,2.24c-0.67,0.75-1.58,1.37-2.73,1.87c-1.15,0.5-2.48,0.75-4,0.75
		C792.58,725.47,791.07,725.07,789.73,724.26z M788.24,714.46h11.67v1.59c0-1.38-0.22-2.58-0.65-3.61
		c-0.43-1.03-1.07-1.83-1.92-2.41c-0.85-0.57-1.86-0.86-3.05-0.86c-1.19,0-2.24,0.28-3.15,0.83s-1.62,1.34-2.12,2.36
		c-0.5,1.02-0.75,2.21-0.75,3.56L788.24,714.46z"/>
	<path d="M807.32,707.13h2.7v7.75h-1.12c0-1.66,0.29-3.1,0.86-4.33s1.39-2.18,2.45-2.84c1.06-0.67,2.31-1,3.75-1
		c1.28,0,2.42,0.27,3.41,0.82c0.99,0.55,1.77,1.36,2.34,2.42c0.57,1.07,0.85,2.35,0.85,3.84v11.25h-2.8v-10.97
		c0-1.04-0.18-1.92-0.55-2.66c-0.37-0.74-0.89-1.3-1.57-1.68s-1.48-0.58-2.42-0.58c-1,0-1.89,0.22-2.66,0.67
		c-0.77,0.44-1.37,1.06-1.79,1.86c-0.43,0.8-0.64,1.71-0.64,2.74v10.62h-2.8V707.13z"/>
	<path d="M830.76,724.29c-1.3-0.79-2.32-1.89-3.04-3.32c-0.73-1.42-1.09-3.05-1.09-4.88s0.36-3.46,1.09-4.88
		c0.73-1.42,1.74-2.53,3.04-3.32s2.79-1.18,4.45-1.18c1.54,0,2.9,0.34,4.08,1.02c1.18,0.68,2.1,1.64,2.76,2.87
		c0.66,1.23,1,2.66,1.02,4.28h-1.16v2.42h1.16c-0.02,1.62-0.37,3.05-1.02,4.28s-1.58,2.19-2.76,2.87c-1.18,0.68-2.54,1.02-4.08,1.02
		C833.54,725.47,832.06,725.08,830.76,724.29z M838.85,722.07c0.93-0.58,1.66-1.38,2.18-2.42c0.52-1.03,0.78-2.22,0.78-3.56
		c0-1.34-0.26-2.53-0.78-3.56c-0.52-1.03-1.25-1.84-2.18-2.41c-0.93-0.58-2-0.87-3.2-0.87c-1.19,0-2.25,0.29-3.17,0.87
		c-0.92,0.58-1.64,1.38-2.15,2.41c-0.51,1.03-0.77,2.22-0.77,3.56c0,1.34,0.26,2.53,0.77,3.56c0.51,1.03,1.23,1.84,2.15,2.42
		c0.92,0.58,1.98,0.87,3.17,0.87C836.85,722.93,837.92,722.64,838.85,722.07z M841.76,700.55h2.8v24.5h-2.8V700.55z"/>
</g>
<g>
	<path d="M279.62,621.57h-1.5l0-96.57c0-22.47,18.28-40.75,40.75-40.75h569.27c21.64,0,39.25-17.61,39.25-39.25V329.39h1.5V445
		c0,22.47-18.28,40.75-40.75,40.75H318.87c-21.64,0-39.25,17.61-39.25,39.25L279.62,621.57z"/>
</g>
<g>
	<polygon points="271.39,619.38 278.87,632.33 286.35,619.38 	"/>
</g>
<g>
	<path d="M733.73,621.57h-1.5v-75.78c0-22.47,18.28-40.75,40.75-40.75l116.33,0c32.67,0,59.25-26.58,59.25-59.25v-116.4h1.5v116.4
		c0,33.5-27.25,60.75-60.75,60.75l-116.33,0c-21.64,0-39.25,17.61-39.25,39.25V621.57z"/>
</g>
<g>
	<polygon points="725.5,619.38 732.98,632.33 740.46,619.38 	"/>
</g>
<g>
	<path d="M81.16,79.53h3.76v15.42l15.42-15.42h5.12L89.5,95.42l16.24,17.01h-5.26L84.92,96.17v16.26h-3.76V79.53z"/>
	<path d="M109.31,108.98l13.28-12.48c1.32-1.22,2.29-2.42,2.91-3.58c0.63-1.17,0.94-2.39,0.94-3.65c0-1.35-0.29-2.54-0.87-3.57
		c-0.58-1.03-1.39-1.84-2.42-2.42c-1.03-0.58-2.22-0.87-3.57-0.87c-1.36,0-2.58,0.28-3.64,0.85s-1.89,1.35-2.48,2.36
		c-0.59,1.01-0.88,2.17-0.88,3.47h-3.95c0-1.97,0.47-3.73,1.4-5.26c0.93-1.54,2.24-2.73,3.92-3.57c1.68-0.85,3.61-1.27,5.77-1.27
		c2.13,0,4.01,0.42,5.64,1.25c1.63,0.83,2.89,2,3.78,3.5c0.89,1.5,1.34,3.23,1.34,5.17c0,1.88-0.45,3.67-1.34,5.36
		c-0.89,1.69-2.31,3.42-4.25,5.19l-10.36,9.42h16.76v3.57h-21.97V108.98z"/>
	<path d="M149.5,79.53h3.76v15.42l15.42-15.42h5.12l-15.96,15.89l16.24,17.01h-5.26l-15.56-16.26v16.26h-3.76V79.53z"/>
	<path d="M180.11,111.36c-1.87-1.09-3.35-2.59-4.42-4.51c-1.07-1.92-1.61-4.07-1.61-6.45c0-2.38,0.54-4.53,1.61-6.45
		c1.07-1.92,2.55-3.42,4.43-4.51s3.96-1.63,6.25-1.63c2.29,0,4.36,0.54,6.23,1.63c1.86,1.09,3.33,2.59,4.41,4.5
		c1.07,1.91,1.61,4.07,1.61,6.46c0,2.4-0.54,4.55-1.61,6.46c-1.07,1.91-2.54,3.41-4.41,4.5c-1.86,1.09-3.95,1.63-6.25,1.63
		C184.06,112.99,181.98,112.45,180.11,111.36z M190.62,108.41c1.25-0.77,2.24-1.84,2.96-3.23c0.72-1.39,1.08-2.98,1.08-4.78
		c0-1.8-0.36-3.4-1.08-4.79c-0.72-1.39-1.71-2.48-2.97-3.24c-1.26-0.77-2.68-1.15-4.24-1.15c-1.57,0-2.98,0.38-4.25,1.15
		c-1.27,0.77-2.27,1.85-3,3.24c-0.73,1.39-1.09,2.99-1.09,4.79c0,1.8,0.36,3.4,1.09,4.78c0.73,1.39,1.73,2.46,3.01,3.23
		c1.28,0.77,2.7,1.15,4.27,1.15C187.96,109.56,189.37,109.18,190.62,108.41z"/>
	<path d="M208.47,111.69c-0.93-0.49-1.66-1.17-2.2-2.04c-0.53-0.87-0.8-1.84-0.8-2.9l-0.02-15.04h-4.23l0.02-3.34h2.61
		c0.59,0,1.08-0.19,1.45-0.56c0.37-0.38,0.55-0.85,0.55-1.43v-3.88h3.38v5.88h5.8l-0.02,3.34h-5.8l0.02,14.81
		c0,0.74,0.25,1.35,0.74,1.84c0.49,0.49,1.11,0.74,1.85,0.74h3.2v3.34h-3.43C210.44,112.43,209.4,112.18,208.47,111.69z"/>
	<path d="M220.61,79.53h3.76v32.9h-3.76V79.53z"/>
	<path d="M235.74,79.53v4.46h-4.42v-4.46H235.74z M231.65,88.37h3.76v24.06h-3.76V88.37z"/>
	<path d="M242.7,88.37h3.62v10.41h-1.5c0-2.22,0.38-4.16,1.15-5.82s1.86-2.93,3.29-3.82s3.1-1.34,5.03-1.34
		c1.72,0,3.25,0.37,4.58,1.1s2.38,1.82,3.14,3.25c0.76,1.43,1.14,3.15,1.14,5.16v15.11h-3.76V97.7c0-1.39-0.25-2.58-0.74-3.57
		c-0.49-0.99-1.2-1.74-2.1-2.26c-0.91-0.52-1.99-0.78-3.24-0.78c-1.35,0-2.54,0.3-3.57,0.89c-1.03,0.6-1.84,1.43-2.41,2.5
		c-0.57,1.07-0.86,2.3-0.86,3.68v14.26h-3.76V88.37z"/>
	<path d="M283.54,111.35c-1.83-1.1-3.27-2.6-4.31-4.52c-1.04-1.92-1.56-4.06-1.56-6.43c0-2.37,0.52-4.51,1.56-6.43
		c1.04-1.92,2.48-3.43,4.31-4.52s3.88-1.65,6.16-1.65c1.93,0,3.66,0.33,5.19,0.98c1.54,0.65,2.81,1.62,3.83,2.91
		s1.72,2.88,2.09,4.76h-3.76c-0.35-1.16-0.89-2.13-1.62-2.91c-0.74-0.78-1.6-1.37-2.58-1.75c-0.99-0.38-2.04-0.58-3.15-0.58
		c-1.55,0-2.94,0.39-4.17,1.18c-1.23,0.78-2.19,1.87-2.88,3.27c-0.69,1.39-1.03,2.98-1.03,4.75c0,1.75,0.34,3.33,1.03,4.72
		c0.69,1.39,1.65,2.49,2.88,3.28c1.23,0.79,2.62,1.19,4.17,1.19c1.11,0,2.16-0.19,3.15-0.58c0.99-0.38,1.85-0.97,2.58-1.75
		c0.74-0.78,1.28-1.75,1.62-2.91h3.76c-0.36,1.82-1.07,3.38-2.12,4.68c-1.05,1.3-2.35,2.29-3.9,2.96c-1.55,0.67-3.25,1.01-5.1,1.01
		C287.42,112.99,285.37,112.45,283.54,111.35z"/>
	<path d="M309.96,111.36c-1.87-1.09-3.34-2.59-4.42-4.51s-1.61-4.07-1.61-6.45c0-2.38,0.54-4.53,1.61-6.45
		c1.07-1.92,2.55-3.42,4.43-4.51c1.88-1.09,3.96-1.63,6.25-1.63c2.29,0,4.36,0.54,6.23,1.63s3.33,2.59,4.41,4.5
		c1.07,1.91,1.61,4.07,1.61,6.46c0,2.4-0.54,4.55-1.61,6.46c-1.07,1.91-2.54,3.41-4.41,4.5s-3.95,1.63-6.25,1.63
		C313.92,112.99,311.84,112.45,309.96,111.36z M320.48,108.41c1.25-0.77,2.24-1.84,2.96-3.23c0.72-1.39,1.08-2.98,1.08-4.78
		c0-1.8-0.36-3.4-1.08-4.79c-0.72-1.39-1.71-2.48-2.97-3.24c-1.26-0.77-2.68-1.15-4.24-1.15s-2.98,0.38-4.25,1.15
		c-1.27,0.77-2.27,1.85-3,3.24c-0.73,1.39-1.09,2.99-1.09,4.79c0,1.8,0.36,3.4,1.09,4.78c0.73,1.39,1.73,2.46,3.01,3.23
		c1.28,0.77,2.7,1.15,4.27,1.15C317.82,109.56,319.23,109.18,320.48,108.41z"/>
	<path d="M333.71,88.37h3.62v10.41h-1.27c0-2.26,0.35-4.21,1.05-5.85c0.7-1.65,1.7-2.91,3.02-3.8c1.32-0.88,2.88-1.33,4.7-1.33
		c1.71,0,3.2,0.39,4.49,1.16c1.28,0.78,2.28,1.88,2.98,3.3c0.71,1.43,1.06,3.09,1.06,4.98v15.18h-3.76V97.41
		c0-1.32-0.22-2.46-0.67-3.42c-0.45-0.96-1.1-1.7-1.95-2.22c-0.85-0.52-1.88-0.78-3.07-0.78c-1.3,0-2.44,0.29-3.41,0.87
		c-0.97,0.58-1.72,1.41-2.24,2.49c-0.52,1.08-0.79,2.35-0.79,3.81v14.26h-3.76V88.37z M364.81,93.99c-0.45-0.96-1.09-1.7-1.94-2.22
		C362.03,91.26,361,91,359.8,91c-1.28,0-2.41,0.29-3.38,0.88c-0.97,0.59-1.72,1.42-2.26,2.49c-0.53,1.07-0.8,2.34-0.8,3.79
		l-2.12,0.61c0-2.16,0.38-4.07,1.13-5.73c0.75-1.66,1.83-2.95,3.23-3.87c1.4-0.92,3.04-1.37,4.9-1.37c1.71,0,3.22,0.39,4.55,1.16
		s2.35,1.88,3.09,3.3c0.74,1.43,1.1,3.09,1.1,4.98v15.18h-3.76V97.41C365.48,96.1,365.26,94.96,364.81,93.99z"/>
	<path d="M379.49,88.37v4.7h0.09V120h-3.76V88.37H379.49z M382.97,111.62c-1.58-0.92-2.82-2.2-3.7-3.85s-1.34-3.57-1.37-5.75h1.55
		v-3.24h-1.55c0.03-2.18,0.49-4.09,1.37-5.75c0.89-1.65,2.12-2.94,3.7-3.85c1.58-0.92,3.41-1.37,5.48-1.37
		c2.24,0,4.23,0.53,5.98,1.59c1.75,1.06,3.11,2.54,4.09,4.45c0.98,1.91,1.47,4.1,1.47,6.56c0,2.46-0.49,4.65-1.47,6.56
		c-0.98,1.91-2.34,3.4-4.09,4.45c-1.75,1.06-3.74,1.59-5.98,1.59C386.37,112.99,384.55,112.54,382.97,111.62z M392.11,108.42
		c1.24-0.78,2.2-1.86,2.89-3.24c0.69-1.39,1.03-2.98,1.03-4.78c0-1.8-0.34-3.4-1.03-4.78c-0.69-1.39-1.65-2.47-2.89-3.24
		s-2.66-1.16-4.25-1.16c-1.61,0-3.05,0.39-4.3,1.16s-2.23,1.86-2.93,3.24c-0.7,1.39-1.05,2.98-1.05,4.78c0,1.8,0.35,3.4,1.05,4.78
		c0.7,1.39,1.67,2.47,2.93,3.24s2.69,1.16,4.3,1.16C389.45,109.59,390.87,109.2,392.11,108.42z"/>
	<path d="M409.31,79.53v4.46h-4.42v-4.46H409.31z M405.22,88.37h3.76v24.06h-3.76V88.37z"/>
	<path d="M416.27,79.53h3.76v32.9h-3.76V79.53z"/>
	<path d="M431,111.37c-1.8-1.08-3.21-2.58-4.22-4.5c-1.01-1.92-1.52-4.09-1.52-6.52c0-2.37,0.51-4.5,1.54-6.42
		c1.03-1.91,2.44-3.41,4.24-4.5c1.8-1.09,3.81-1.63,6.04-1.63c2.27,0,4.27,0.54,5.98,1.62c1.72,1.08,3.04,2.58,3.97,4.49
		c0.93,1.91,1.4,4.07,1.4,6.49v0.92H429l0.05-1.03c0.02,1.82,0.38,3.44,1.09,4.88c0.71,1.43,1.7,2.55,2.95,3.35
		c1.25,0.8,2.66,1.2,4.23,1.2c1.05,0,2.02-0.13,2.93-0.39s1.68-0.63,2.35-1.13c0.67-0.49,1.18-1.07,1.54-1.73h3.76
		c-0.28,1-0.87,2.01-1.77,3.01c-0.9,1-2.12,1.84-3.67,2.51c-1.54,0.67-3.33,1.01-5.37,1.01C434.83,112.99,432.8,112.45,431,111.37z
		 M429,98.21h15.67v2.14c0-1.85-0.29-3.47-0.87-4.85c-0.58-1.39-1.44-2.46-2.57-3.23c-1.14-0.77-2.5-1.15-4.1-1.15
		c-1.6,0-3.01,0.37-4.23,1.12s-2.17,1.8-2.84,3.17c-0.67,1.37-1.01,2.97-1.01,4.78L429,98.21z"/>
	<path d="M453.68,88.37h3.76v8.06l-1.57,2.35c0.06-2.16,0.46-4.05,1.19-5.65s1.74-2.84,3.04-3.7s2.81-1.29,4.54-1.29h0.85v3.92
		h-0.99c-1.43,0-2.67,0.27-3.74,0.82s-1.88,1.33-2.46,2.34c-0.57,1.01-0.86,2.2-0.86,3.56v13.65h-3.76V88.37z"/>
</g>
<g>
	<path d="M1641.76,621.57h-1.5V525c0-21.64-17.61-39.25-39.25-39.25h-569.27c-22.47,0-40.75-18.28-40.75-40.75V329.39h1.5V445
		c0,21.64,17.61,39.25,39.25,39.25h569.27c22.47,0,40.75,18.28,40.75,40.75V621.57z"/>
</g>
<g>
	<polygon points="1648.49,619.38 1641.01,632.33 1633.53,619.38 	"/>
</g>
<g>
	<path d="M1187.65,621.57h-1.5v-75.78c0-21.64-17.61-39.25-39.25-39.25l-116.33,0c-33.5,0-60.75-27.25-60.75-60.75v-116.4h1.5v116.4
		c0,32.67,26.58,59.25,59.25,59.25l116.33,0c22.47,0,40.75,18.28,40.75,40.75V621.57z"/>
</g>
<g>
	<polygon points="1194.38,619.38 1186.9,632.33 1179.42,619.38 	"/>
</g>
<g>
	<polygon points="952.48,186.13 959.96,199.09 967.44,186.13 	"/>
</g>
<g>
	<path class="st1" d="M977.64,125.32l0.46-1.69l4.83,1.44l-0.38,1.41L977.64,125.32z M978.9,129.52l3.35-3.75l1.12,0.92l-3.14,3.96
		L978.9,129.52z M982.06,120.78h1.75l-0.14,5.04h-1.47L982.06,120.78z M982.42,126.34c-0.14-0.14-0.22-0.32-0.22-0.52
		c0-0.21,0.07-0.38,0.22-0.52c0.14-0.14,0.32-0.21,0.53-0.21c0.21,0,0.38,0.07,0.52,0.21c0.14,0.14,0.21,0.31,0.21,0.52
		c0,0.21-0.07,0.38-0.21,0.52c-0.14,0.15-0.31,0.22-0.52,0.22C982.74,126.56,982.56,126.49,982.42,126.34z M982.51,126.69l1.12-0.92
		l3.35,3.75l-1.33,1.13L982.51,126.69z M982.94,125.06l4.83-1.44l0.46,1.69l-4.91,1.16L982.94,125.06z"/>
</g>
<g>
	<path class="st1" d="M995.45,137.3v3.08h-3.08v-3.08H995.45z"/>
</g>
<g>
	<path class="st1" d="M999.14,120.78h2.24v11.98l6.5-6.72h2.79l-6.54,6.83l6.79,7.5h-2.88l-6.65-7.22v7.22h-2.24V120.78z"/>
</g>
<g>
	<path class="st1" d="M1015.63,139.94c-0.56-0.29-0.99-0.7-1.31-1.22c-0.32-0.52-0.48-1.09-0.48-1.73l-0.01-8.96h-2.52l0.01-1.99
		h1.55c0.35,0,0.64-0.11,0.86-0.34c0.22-0.22,0.33-0.51,0.33-0.85v-2.31h2.02v3.5h3.46l-0.01,1.99h-3.46l0.01,8.82
		c0,0.44,0.15,0.8,0.44,1.1c0.29,0.29,0.66,0.44,1.1,0.44h1.9v1.99h-2.04C1016.8,140.38,1016.18,140.23,1015.63,139.94z"/>
</g>
<radialGradient id="SVGID_1_" cx="739.328" cy="342.2105" r="439.7826" gradientUnits="userSpaceOnUse">
	<stop  offset="0" style="stop-color:#EB4857"/>
	<stop  offset="0.5" style="stop-color:#C611E0"/>
	<stop  offset="1" style="stop-color:#7F52FF"/>
</radialGradient>
<path class="st3" d="M1159.75,214.29l-399.58,0c-16.57,0-30,13.43-30,30v66.54c0,16.57,13.43,30,30,30l399.58,0
	c16.57,0,30-13.43,30-30v-66.54C1189.75,227.72,1176.32,214.29,1159.75,214.29z"/>
<g>
	<path class="st0" d="M849.37,265.29h3.08l13.16,19.88v-19.88h2.91v24.5h-3.12l-13.12-19.88v19.88h-2.9V265.29z"/>
</g>
<g>
	<path class="st0" d="M878.09,289c-1.34-0.8-2.39-1.92-3.14-3.35c-0.75-1.43-1.13-3.05-1.13-4.86c0-1.76,0.38-3.35,1.15-4.78
		c0.76-1.42,1.82-2.54,3.16-3.35s2.84-1.22,4.5-1.22c1.69,0,3.18,0.4,4.45,1.21c1.28,0.8,2.26,1.92,2.96,3.34
		c0.69,1.42,1.04,3.03,1.04,4.83v0.68H876.6l0.04-0.77c0.01,1.35,0.28,2.56,0.81,3.63c0.53,1.07,1.26,1.9,2.2,2.49
		c0.93,0.59,1.98,0.89,3.15,0.89c0.78,0,1.51-0.1,2.18-0.29s1.25-0.47,1.75-0.84c0.5-0.37,0.88-0.8,1.15-1.29h2.8
		c-0.21,0.75-0.65,1.49-1.32,2.24c-0.67,0.75-1.58,1.37-2.73,1.87s-2.48,0.75-4,0.75C880.94,290.21,879.43,289.81,878.09,289z
		 M876.6,279.2h11.67v1.59c0-1.38-0.22-2.58-0.65-3.61c-0.43-1.03-1.07-1.83-1.92-2.41c-0.85-0.57-1.86-0.86-3.05-0.86
		c-1.19,0-2.24,0.28-3.15,0.83s-1.62,1.34-2.12,2.36c-0.5,1.02-0.75,2.21-0.75,3.56L876.6,279.2z"/>
</g>
<g>
	<path class="st0" d="M893.1,271.87h3.01l4.22,12.88l0.4,1.52l0.37-1.52l4.43-12.88h2.68l4.51,12.88l0.4,1.52l0.37-1.52l4.11-12.88
		h2.94l-6.14,17.92h-2.77l-4.43-13.48l-0.33-1.24l-0.3,1.21l-4.6,13.51h-2.73L893.1,271.87z"/>
</g>
<g>
	<path class="st0" d="M934.07,274.36h-3.15v-2.48h3.15v-2.35c0-0.83,0.19-1.56,0.58-2.21c0.38-0.64,0.92-1.14,1.61-1.5
		c0.69-0.36,1.48-0.53,2.36-0.53h2.87v2.48h-2.69c-0.57,0-1.04,0.18-1.39,0.53c-0.36,0.36-0.53,0.82-0.53,1.39v2.17h4.44v2.48h-4.44
		v15.44h-2.8V274.36z"/>
</g>
<g>
	<path class="st0" d="M946.08,271.87h2.8v6l-1.17,1.75c0.05-1.61,0.34-3.01,0.88-4.21c0.54-1.2,1.3-2.11,2.27-2.76
		c0.97-0.64,2.09-0.96,3.38-0.96h0.63v2.92h-0.74c-1.06,0-1.99,0.2-2.78,0.61c-0.79,0.41-1.4,0.99-1.83,1.74
		c-0.43,0.75-0.64,1.64-0.64,2.65v10.17h-2.8V271.87z"/>
</g>
<g>
	<path class="st0" d="M961.55,288.99c-1.39-0.81-2.49-1.93-3.29-3.36s-1.2-3.03-1.2-4.8s0.4-3.37,1.2-4.8s1.9-2.55,3.3-3.36
		c1.4-0.81,2.95-1.22,4.66-1.22c1.7,0,3.25,0.41,4.64,1.22c1.39,0.81,2.48,1.93,3.28,3.35c0.8,1.42,1.2,3.03,1.2,4.81
		s-0.4,3.39-1.2,4.81c-0.8,1.42-1.89,2.54-3.28,3.35c-1.39,0.81-2.94,1.22-4.66,1.22C964.5,290.21,962.95,289.81,961.55,288.99z
		 M969.38,286.8c0.93-0.57,1.67-1.37,2.21-2.41c0.54-1.03,0.81-2.22,0.81-3.56c0-1.34-0.27-2.53-0.81-3.57
		c-0.54-1.04-1.27-1.84-2.21-2.42c-0.94-0.57-1.99-0.86-3.16-0.86c-1.17,0-2.22,0.29-3.17,0.86c-0.94,0.57-1.69,1.38-2.23,2.42
		c-0.54,1.04-0.81,2.23-0.81,3.57c0,1.34,0.27,2.53,0.81,3.56c0.54,1.03,1.29,1.83,2.24,2.41c0.95,0.57,2.01,0.86,3.18,0.86
		C967.4,287.66,968.45,287.37,969.38,286.8z"/>
</g>
<g>
	<path class="st0" d="M979.94,271.87h2.69v7.75h-1.12c0-1.66,0.29-3.1,0.86-4.33c0.57-1.23,1.39-2.18,2.45-2.84
		c1.06-0.67,2.31-1,3.75-1c1.28,0,2.42,0.27,3.41,0.82c0.99,0.55,1.77,1.36,2.34,2.42c0.57,1.07,0.85,2.35,0.85,3.84v11.25h-2.8
		v-10.97c0-1.04-0.18-1.92-0.55-2.66c-0.37-0.74-0.89-1.3-1.57-1.68c-0.68-0.38-1.48-0.58-2.42-0.58c-1,0-1.89,0.22-2.66,0.67
		c-0.77,0.44-1.37,1.06-1.79,1.86c-0.43,0.8-0.64,1.71-0.64,2.74v10.62h-2.8V271.87z"/>
</g>
<g>
	<path class="st0" d="M1004.2,289.24c-0.69-0.37-1.24-0.88-1.64-1.52s-0.59-1.37-0.59-2.16l-0.02-11.2h-3.15l0.02-2.48h1.94
		c0.44,0,0.8-0.14,1.08-0.42c0.27-0.28,0.41-0.64,0.41-1.07v-2.89h2.52v4.38h4.32l-0.02,2.48h-4.32l0.02,11.02
		c0,0.55,0.18,1.01,0.55,1.37c0.37,0.37,0.83,0.55,1.37,0.55h2.38v2.48h-2.55C1005.67,289.79,1004.89,289.61,1004.2,289.24z"/>
</g>
<g>
	<path class="st0" d="M1016.69,289c-1.34-0.8-2.39-1.92-3.14-3.35c-0.75-1.43-1.13-3.05-1.13-4.86c0-1.76,0.38-3.35,1.15-4.78
		c0.76-1.42,1.82-2.54,3.16-3.35s2.84-1.22,4.5-1.22c1.69,0,3.18,0.4,4.45,1.21c1.28,0.8,2.26,1.92,2.96,3.34
		c0.69,1.42,1.04,3.03,1.04,4.83v0.68h-14.47l0.04-0.77c0.01,1.35,0.28,2.56,0.81,3.63c0.53,1.07,1.26,1.9,2.2,2.49
		c0.93,0.59,1.98,0.89,3.15,0.89c0.78,0,1.51-0.1,2.18-0.29s1.25-0.47,1.75-0.84c0.5-0.37,0.88-0.8,1.15-1.29h2.8
		c-0.21,0.75-0.65,1.49-1.32,2.24c-0.67,0.75-1.58,1.37-2.73,1.87s-2.48,0.75-4,0.75C1019.54,290.21,1018.03,289.81,1016.69,289z
		 M1015.2,279.2h11.67v1.59c0-1.38-0.22-2.58-0.65-3.61c-0.43-1.03-1.07-1.83-1.92-2.41c-0.85-0.57-1.86-0.86-3.05-0.86
		c-1.19,0-2.24,0.28-3.15,0.83s-1.62,1.34-2.12,2.36c-0.5,1.02-0.75,2.21-0.75,3.56L1015.2,279.2z"/>
</g>
<g>
	<path class="st0" d="M1034.27,271.87h2.69v7.75h-1.12c0-1.66,0.29-3.1,0.86-4.33c0.57-1.23,1.39-2.18,2.45-2.84
		c1.06-0.67,2.31-1,3.75-1c1.28,0,2.42,0.27,3.41,0.82c0.99,0.55,1.77,1.36,2.34,2.42c0.57,1.07,0.85,2.35,0.85,3.84v11.25h-2.8
		v-10.97c0-1.04-0.18-1.92-0.55-2.66c-0.37-0.74-0.89-1.3-1.57-1.68c-0.68-0.38-1.48-0.58-2.42-0.58c-1,0-1.89,0.22-2.66,0.67
		c-0.77,0.44-1.37,1.06-1.79,1.86c-0.43,0.8-0.64,1.71-0.64,2.74v10.62h-2.8V271.87z"/>
</g>
<g>
	<path class="st0" d="M1057.71,289.03c-1.3-0.79-2.32-1.89-3.04-3.32c-0.73-1.42-1.09-3.05-1.09-4.88s0.36-3.46,1.09-4.88
		s1.74-2.53,3.04-3.32s2.79-1.18,4.45-1.18c1.54,0,2.9,0.34,4.08,1.02c1.18,0.68,2.1,1.64,2.76,2.87c0.66,1.23,1,2.66,1.02,4.28
		h-1.16v2.42h1.16c-0.02,1.62-0.37,3.05-1.02,4.28c-0.66,1.23-1.58,2.19-2.76,2.87c-1.18,0.68-2.54,1.02-4.08,1.02
		C1060.5,290.21,1059.02,289.82,1057.71,289.03z M1065.81,286.81c0.93-0.58,1.66-1.38,2.18-2.42c0.52-1.03,0.78-2.22,0.78-3.56
		c0-1.34-0.26-2.53-0.78-3.56c-0.52-1.03-1.25-1.84-2.18-2.41c-0.93-0.58-2-0.87-3.2-0.87c-1.19,0-2.25,0.29-3.17,0.87
		c-0.92,0.58-1.64,1.38-2.15,2.41c-0.51,1.03-0.77,2.22-0.77,3.56c0,1.34,0.26,2.53,0.77,3.56c0.51,1.03,1.23,1.84,2.15,2.42
		c0.92,0.58,1.98,0.87,3.17,0.87C1063.81,287.67,1064.87,287.38,1065.81,286.81z M1068.71,265.29h2.8v24.5h-2.8V265.29z"/>
</g>
<g>
	<path class="st2" d="M1355.53,649.82l-337.02,0c-16.57,0-30,13.43-30,30v66.54c0,16.57,13.43,30,30,30l337.02,0
		c16.57,0,30-13.43,30-30v-66.54C1385.53,663.26,1372.09,649.82,1355.53,649.82z"/>
	<g>
		<g>
			<path d="M1062.65,700.55h3.08l13.16,19.88v-19.88h2.9v24.5h-3.12l-13.12-19.88v19.88h-2.9V700.55z"/>
			<path d="M1098.51,707.45c1.03,0.5,1.82,1.22,2.39,2.17c0.57,0.95,0.85,2.08,0.85,3.39v12.04h-2.73v-6.7h0.73
				c0,1.49-0.26,2.77-0.77,3.84c-0.51,1.07-1.25,1.88-2.21,2.44c-0.96,0.56-2.09,0.84-3.41,0.84c-1.14,0-2.18-0.22-3.1-0.67
				c-0.92-0.44-1.65-1.06-2.17-1.84c-0.53-0.78-0.79-1.67-0.79-2.66c0-0.93,0.24-1.79,0.73-2.58c0.48-0.79,1.16-1.43,2.01-1.93
				s1.82-0.81,2.9-0.93l4.78-0.52c0.4-0.05,0.71-0.21,0.93-0.49c0.22-0.28,0.33-0.69,0.33-1.24l0.21,3.67l-5.86,0.65
				c-0.61,0.07-1.15,0.25-1.62,0.54c-0.47,0.29-0.84,0.67-1.1,1.14c-0.26,0.47-0.39,0.98-0.39,1.54c0,0.61,0.16,1.14,0.48,1.61
				c0.32,0.47,0.77,0.83,1.34,1.09c0.57,0.26,1.22,0.39,1.96,0.39c1,0,1.88-0.2,2.63-0.61c0.75-0.41,1.33-0.98,1.74-1.72
				s0.61-1.6,0.61-2.56v-5.71c0-0.71-0.17-1.34-0.51-1.88s-0.81-0.96-1.43-1.26c-0.61-0.3-1.32-0.45-2.13-0.45s-1.53,0.14-2.17,0.41
				c-0.64,0.27-1.16,0.64-1.55,1.1c-0.39,0.46-0.63,0.96-0.71,1.5h-2.8c0.14-1.02,0.54-1.93,1.2-2.74s1.51-1.45,2.56-1.92
				c1.05-0.47,2.21-0.7,3.48-0.7C1096.29,706.71,1097.48,706.96,1098.51,707.45z"/>
			<path d="M1110.79,724.5c-0.69-0.37-1.24-0.88-1.64-1.52c-0.4-0.65-0.59-1.37-0.59-2.16l-0.02-11.2h-3.15l0.02-2.48h1.94
				c0.44,0,0.8-0.14,1.08-0.42c0.27-0.28,0.41-0.64,0.41-1.07v-2.89h2.52v4.38h4.32l-0.02,2.48h-4.32l0.02,11.02
				c0,0.55,0.18,1.01,0.55,1.37c0.37,0.37,0.83,0.55,1.37,0.55h2.38v2.48h-2.56C1112.25,725.05,1111.48,724.87,1110.79,724.5z"/>
			<path d="M1123.57,700.55v3.33h-3.29v-3.33H1123.57z M1120.52,707.13h2.8v17.92h-2.8V707.13z"/>
			<path d="M1127.12,707.13h3.04l5.46,14.17l5.28-14.17h2.98l-7.05,17.92h-2.62L1127.12,707.13z"/>
			<path d="M1150.08,724.26c-1.34-0.8-2.39-1.92-3.14-3.35s-1.13-3.05-1.13-4.86c0-1.76,0.38-3.35,1.15-4.78
				c0.76-1.42,1.82-2.54,3.16-3.35c1.34-0.81,2.84-1.22,4.5-1.22c1.69,0,3.18,0.4,4.46,1.21c1.28,0.8,2.26,1.92,2.96,3.34
				c0.69,1.42,1.04,3.03,1.04,4.83v0.68h-14.47l0.04-0.77c0.01,1.35,0.28,2.56,0.81,3.63c0.53,1.07,1.26,1.9,2.2,2.49
				c0.93,0.59,1.98,0.89,3.15,0.89c0.78,0,1.51-0.1,2.18-0.29s1.25-0.47,1.75-0.84c0.5-0.37,0.88-0.8,1.15-1.29h2.8
				c-0.21,0.75-0.65,1.49-1.32,2.24c-0.67,0.75-1.58,1.37-2.73,1.87c-1.15,0.5-2.48,0.75-4,0.75
				C1152.93,725.47,1151.42,725.07,1150.08,724.26z M1148.59,714.46h11.67v1.59c0-1.38-0.22-2.58-0.65-3.61
				c-0.43-1.03-1.07-1.83-1.92-2.41c-0.85-0.57-1.86-0.86-3.05-0.86c-1.19,0-2.24,0.28-3.15,0.83s-1.62,1.34-2.12,2.36
				c-0.5,1.02-0.75,2.21-0.75,3.56L1148.59,714.46z"/>
			<path d="M1175.81,700.55h2.8v24.5h-2.8V700.55z M1181.08,724.45c-1.18-0.68-2.1-1.64-2.76-2.87s-1-2.66-1.02-4.28h1.16v-2.42
				h-1.16c0.02-1.62,0.37-3.05,1.02-4.28c0.66-1.23,1.58-2.19,2.76-2.87c1.18-0.68,2.54-1.02,4.08-1.02c1.67,0,3.15,0.39,4.45,1.18
				c1.3,0.79,2.31,1.89,3.04,3.32c0.73,1.42,1.09,3.05,1.09,4.88s-0.37,3.46-1.09,4.88c-0.73,1.42-1.74,2.53-3.04,3.32
				c-1.3,0.79-2.79,1.18-4.45,1.18C1183.61,725.47,1182.25,725.13,1181.08,724.45z M1187.88,722.07c0.92-0.58,1.64-1.38,2.15-2.42
				c0.51-1.03,0.77-2.22,0.77-3.56c0-1.34-0.26-2.53-0.77-3.56c-0.51-1.03-1.23-1.84-2.15-2.41c-0.92-0.58-1.98-0.87-3.17-0.87
				c-1.2,0-2.27,0.29-3.2,0.87c-0.93,0.58-1.66,1.38-2.18,2.41c-0.52,1.03-0.78,2.22-0.78,3.56c0,1.34,0.26,2.53,0.78,3.56
				c0.52,1.03,1.25,1.84,2.18,2.42c0.93,0.58,2,0.87,3.2,0.87C1185.91,722.93,1186.96,722.64,1187.88,722.07z"/>
			<path d="M1208.24,707.45c1.03,0.5,1.82,1.22,2.39,2.17c0.56,0.95,0.85,2.08,0.85,3.39v12.04h-2.73v-6.7h0.74
				c0,1.49-0.26,2.77-0.77,3.84s-1.25,1.88-2.21,2.44s-2.09,0.84-3.41,0.84c-1.14,0-2.18-0.22-3.1-0.67
				c-0.92-0.44-1.65-1.06-2.17-1.84c-0.52-0.78-0.79-1.67-0.79-2.66c0-0.93,0.24-1.79,0.73-2.58s1.16-1.43,2.01-1.93
				s1.82-0.81,2.9-0.93l4.78-0.52c0.4-0.05,0.71-0.21,0.93-0.49c0.22-0.28,0.33-0.69,0.33-1.24l0.21,3.67l-5.86,0.65
				c-0.61,0.07-1.15,0.25-1.62,0.54c-0.47,0.29-0.84,0.67-1.1,1.14c-0.26,0.47-0.39,0.98-0.39,1.54c0,0.61,0.16,1.14,0.48,1.61
				c0.32,0.47,0.77,0.83,1.34,1.09s1.23,0.39,1.96,0.39c1,0,1.88-0.2,2.63-0.61c0.75-0.41,1.33-0.98,1.74-1.72s0.61-1.6,0.61-2.56
				v-5.71c0-0.71-0.17-1.34-0.51-1.88c-0.34-0.54-0.81-0.96-1.43-1.26s-1.32-0.45-2.13-0.45s-1.53,0.14-2.17,0.41
				c-0.64,0.27-1.16,0.64-1.55,1.1c-0.39,0.46-0.63,0.96-0.71,1.5h-2.8c0.14-1.02,0.54-1.93,1.2-2.74s1.51-1.45,2.56-1.92
				c1.05-0.47,2.21-0.7,3.48-0.7C1206.02,706.71,1207.21,706.96,1208.24,707.45z"/>
			<path d="M1219.92,724.24c-1.37-0.82-2.44-1.94-3.21-3.37c-0.78-1.43-1.16-3.02-1.16-4.79s0.39-3.36,1.16-4.79
				s1.85-2.55,3.21-3.37c1.36-0.82,2.89-1.22,4.58-1.22c1.44,0,2.72,0.24,3.87,0.73c1.14,0.48,2.09,1.21,2.85,2.17
				c0.76,0.96,1.28,2.14,1.56,3.54h-2.8c-0.26-0.86-0.66-1.59-1.21-2.17s-1.19-1.02-1.92-1.3c-0.74-0.29-1.52-0.43-2.35-0.43
				c-1.15,0-2.19,0.29-3.11,0.88c-0.92,0.58-1.63,1.39-2.14,2.43c-0.51,1.04-0.77,2.22-0.77,3.54c0,1.31,0.26,2.48,0.77,3.52
				s1.23,1.85,2.14,2.44c0.92,0.59,1.95,0.88,3.11,0.88c0.83,0,1.61-0.14,2.35-0.43c0.73-0.29,1.38-0.72,1.92-1.3
				c0.55-0.58,0.95-1.31,1.21-2.17h2.8c-0.27,1.35-0.79,2.51-1.57,3.48c-0.78,0.97-1.75,1.7-2.91,2.21s-2.42,0.75-3.8,0.75
				C1222.82,725.47,1221.29,725.06,1219.92,724.24z"/>
			<path d="M1237.34,700.55h2.8v14.98l8.12-8.4h3.48l-8.17,8.54l8.49,9.38h-3.61l-8.31-9.03v9.03h-2.8V700.55z"/>
			<path d="M1257.51,724.26c-1.34-0.8-2.39-1.92-3.14-3.35s-1.13-3.05-1.13-4.86c0-1.76,0.38-3.35,1.15-4.78
				c0.76-1.42,1.82-2.54,3.16-3.35c1.34-0.81,2.84-1.22,4.5-1.22c1.69,0,3.18,0.4,4.46,1.21c1.28,0.8,2.26,1.92,2.96,3.34
				c0.69,1.42,1.04,3.03,1.04,4.83v0.68h-14.47l0.04-0.77c0.01,1.35,0.28,2.56,0.81,3.63c0.53,1.07,1.26,1.9,2.2,2.49
				c0.93,0.59,1.98,0.89,3.15,0.89c0.78,0,1.51-0.1,2.18-0.29s1.25-0.47,1.75-0.84c0.5-0.37,0.88-0.8,1.15-1.29h2.8
				c-0.21,0.75-0.65,1.49-1.32,2.24c-0.67,0.75-1.58,1.37-2.73,1.87c-1.15,0.5-2.48,0.75-4,0.75
				C1260.37,725.47,1258.86,725.07,1257.51,724.26z M1256.03,714.46h11.67v1.59c0-1.38-0.22-2.58-0.65-3.61
				c-0.43-1.03-1.07-1.83-1.92-2.41c-0.85-0.57-1.86-0.86-3.05-0.86c-1.19,0-2.24,0.28-3.15,0.83s-1.62,1.34-2.12,2.36
				c-0.5,1.02-0.75,2.21-0.75,3.56L1256.03,714.46z"/>
			<path d="M1275.1,707.13h2.69v7.75h-1.12c0-1.66,0.29-3.1,0.86-4.33c0.57-1.23,1.39-2.18,2.45-2.84c1.06-0.67,2.31-1,3.75-1
				c1.28,0,2.42,0.27,3.41,0.82c0.99,0.55,1.77,1.36,2.34,2.42s0.85,2.35,0.85,3.84v11.25h-2.8v-10.97c0-1.04-0.18-1.92-0.55-2.66
				c-0.37-0.74-0.89-1.3-1.57-1.68c-0.68-0.38-1.48-0.58-2.42-0.58c-1,0-1.89,0.22-2.66,0.67c-0.77,0.44-1.37,1.06-1.79,1.86
				c-0.43,0.8-0.64,1.71-0.64,2.74v10.62h-2.8V707.13z"/>
			<path d="M1298.54,724.29c-1.3-0.79-2.32-1.89-3.04-3.32c-0.73-1.42-1.09-3.05-1.09-4.88s0.37-3.46,1.09-4.88
				c0.73-1.42,1.74-2.53,3.04-3.32s2.79-1.18,4.45-1.18c1.54,0,2.9,0.34,4.08,1.02c1.18,0.68,2.1,1.64,2.76,2.87
				c0.66,1.23,1,2.66,1.02,4.28h-1.16v2.42h1.16c-0.02,1.62-0.37,3.05-1.02,4.28s-1.58,2.19-2.76,2.87
				c-1.18,0.68-2.54,1.02-4.08,1.02C1301.33,725.47,1299.84,725.08,1298.54,724.29z M1306.64,722.07c0.93-0.58,1.66-1.38,2.18-2.42
				c0.52-1.03,0.78-2.22,0.78-3.56c0-1.34-0.26-2.53-0.78-3.56c-0.52-1.03-1.25-1.84-2.18-2.41c-0.93-0.58-2-0.87-3.2-0.87
				c-1.19,0-2.25,0.29-3.17,0.87c-0.92,0.58-1.64,1.38-2.15,2.41c-0.51,1.03-0.77,2.22-0.77,3.56c0,1.34,0.26,2.53,0.77,3.56
				c0.51,1.03,1.23,1.84,2.15,2.42c0.92,0.58,1.98,0.87,3.17,0.87C1304.64,722.93,1305.7,722.64,1306.64,722.07z M1309.54,700.55
				h2.8v24.5h-2.8V700.55z"/>
		</g>
	</g>
</g>
</svg>
