<svg width="370" height="36" viewBox="0 0 370 36" fill="none" xmlns="http://www.w3.org/2000/svg">
<g clip-path="url(#clip0_1717_2)">
<rect width="370" height="36" rx="18" fill="black"/>
<path d="M21.1055 7.1H34.0385V9.1925H23.2925V15.4295H33.1205V17.5085H23.2925V23.9075H34.3085V26H21.1055V7.1ZM41.2239 20.654L37.5654 26H35.0544L40.0629 18.872L35.2974 12.176H37.8084L41.2779 17.1575L44.6799 12.176H47.1909L42.4524 18.9395L47.4474 26H44.9364L41.2239 20.654ZM51.0763 12.176V14.6195C51.5983 13.7375 52.3003 13.058 53.1823 12.581C54.0643 12.095 55.0768 11.852 56.2198 11.852C57.5068 11.852 58.6498 12.158 59.6488 12.77C60.6568 13.373 61.4398 14.2235 61.9978 15.3215C62.5648 16.4195 62.8483 17.675 62.8483 19.088C62.8483 20.501 62.5648 21.7565 61.9978 22.8545C61.4398 23.9525 60.6568 24.8075 59.6488 25.4195C58.6498 26.0225 57.5068 26.324 56.2198 26.324C55.0948 26.324 54.0958 26.09 53.2228 25.622C52.3498 25.154 51.6523 24.497 51.1303 23.651V30.32H48.9703V12.176H51.0763ZM55.8823 24.3665C56.8003 24.3665 57.6148 24.146 58.3258 23.705C59.0368 23.255 59.5903 22.634 59.9863 21.842C60.3823 21.041 60.5803 20.123 60.5803 19.088C60.5803 18.053 60.3823 17.1395 59.9863 16.3475C59.5903 15.5465 59.0368 14.9255 58.3258 14.4845C57.6148 14.0345 56.8003 13.8095 55.8823 13.8095C54.9553 13.8095 54.1318 14.0345 53.4118 14.4845C52.6918 14.9255 52.1293 15.5465 51.7243 16.3475C51.3283 17.1395 51.1303 18.053 51.1303 19.088C51.1303 20.123 51.3283 21.041 51.7243 21.842C52.1293 22.634 52.6918 23.255 53.4118 23.705C54.1318 24.146 54.9553 24.3665 55.8823 24.3665ZM65.1731 7.1H67.3331V26H65.1731V7.1ZM76.6926 26.324C75.3696 26.324 74.1681 26.009 73.0881 25.379C72.0171 24.749 71.1756 23.885 70.5636 22.787C69.9516 21.68 69.6456 20.447 69.6456 19.088C69.6456 17.729 69.9516 16.5005 70.5636 15.4025C71.1756 14.2955 72.0171 13.427 73.0881 12.797C74.1681 12.167 75.3696 11.852 76.6926 11.852C78.0156 11.852 79.2126 12.167 80.2836 12.797C81.3636 13.427 82.2096 14.2955 82.8216 15.4025C83.4336 16.5005 83.7396 17.729 83.7396 19.088C83.7396 20.447 83.4336 21.68 82.8216 22.787C82.2096 23.885 81.3636 24.749 80.2836 25.379C79.2126 26.009 78.0156 26.324 76.6926 26.324ZM76.6926 24.353C77.6286 24.353 78.4566 24.1325 79.1766 23.6915C79.9056 23.2415 80.4681 22.6205 80.8641 21.8285C81.2691 21.0275 81.4716 20.114 81.4716 19.088C81.4716 18.053 81.2691 17.1395 80.8641 16.3475C80.4681 15.5465 79.9056 14.9255 79.1766 14.4845C78.4566 14.0345 77.6286 13.8095 76.6926 13.8095C75.7566 13.8095 74.9241 14.0345 74.1951 14.4845C73.4751 14.9255 72.9126 15.5465 72.5076 16.3475C72.1116 17.1395 71.9136 18.053 71.9136 19.088C71.9136 20.114 72.1116 21.0275 72.5076 21.8285C72.9126 22.6205 73.4751 23.2415 74.1951 23.6915C74.9241 24.1325 75.7566 24.353 76.6926 24.353ZM85.8422 12.176H88.0022V14.471C88.4342 13.688 89.0012 13.0895 89.7032 12.6755C90.4142 12.2525 91.2242 12.041 92.1332 12.041H92.6192V14.2955H92.0522C91.2332 14.2955 90.5177 14.453 89.9057 14.768C89.2937 15.083 88.8212 15.533 88.4882 16.118C88.1642 16.694 88.0022 17.3735 88.0022 18.1565V26H85.8422V12.176ZM99.8691 26.324C98.5641 26.324 97.3851 26.0135 96.3321 25.3925C95.2791 24.7715 94.4511 23.9075 93.8481 22.8005C93.2451 21.6935 92.9436 20.447 92.9436 19.061C92.9436 17.711 93.2496 16.487 93.8616 15.389C94.4736 14.282 95.3061 13.418 96.3591 12.797C97.4211 12.167 98.5911 11.852 99.8691 11.852C101.183 11.852 102.349 12.158 103.366 12.77C104.383 13.373 105.175 14.2235 105.742 15.3215C106.309 16.4195 106.592 17.675 106.592 19.088V19.574H95.1441C95.2161 20.537 95.4591 21.383 95.8731 22.112C96.2871 22.832 96.8361 23.39 97.5201 23.786C98.2041 24.173 98.9871 24.3665 99.8691 24.3665C100.706 24.3665 101.449 24.2045 102.097 23.8805C102.745 23.5565 103.276 23.093 103.69 22.49H106.093C105.58 23.687 104.779 24.6275 103.69 25.3115C102.601 25.9865 101.327 26.324 99.8691 26.324ZM104.338 17.8595C104.203 17.0405 103.928 16.325 103.514 15.713C103.109 15.101 102.592 14.6285 101.962 14.2955C101.341 13.9625 100.643 13.796 99.8691 13.796C99.0591 13.796 98.3256 13.9625 97.6686 14.2955C97.0116 14.6285 96.4716 15.101 96.0486 15.713C95.6256 16.325 95.3466 17.0405 95.2116 17.8595H104.338Z" fill="white"/>
<path d="M139.4 27.3461H120.5V8.65384H139.4L129.9 17.9505L139.4 27.3461Z" fill="white"/>
<path d="M150.006 7.1H152.166V15.956L161.022 7.1H163.965L154.798 16.226L164.127 26H161.103L152.166 16.658V26H150.006V7.1ZM170.303 26.324C168.98 26.324 167.778 26.009 166.698 25.379C165.627 24.749 164.786 23.885 164.174 22.787C163.562 21.68 163.256 20.447 163.256 19.088C163.256 17.729 163.562 16.5005 164.174 15.4025C164.786 14.2955 165.627 13.427 166.698 12.797C167.778 12.167 168.98 11.852 170.303 11.852C171.626 11.852 172.823 12.167 173.894 12.797C174.974 13.427 175.82 14.2955 176.432 15.4025C177.044 16.5005 177.35 17.729 177.35 19.088C177.35 20.447 177.044 21.68 176.432 22.787C175.82 23.885 174.974 24.749 173.894 25.379C172.823 26.009 171.626 26.324 170.303 26.324ZM170.303 24.353C171.239 24.353 172.067 24.1325 172.787 23.6915C173.516 23.2415 174.078 22.6205 174.474 21.8285C174.879 21.0275 175.082 20.114 175.082 19.088C175.082 18.053 174.879 17.1395 174.474 16.3475C174.078 15.5465 173.516 14.9255 172.787 14.4845C172.067 14.0345 171.239 13.8095 170.303 13.8095C169.367 13.8095 168.534 14.0345 167.805 14.4845C167.085 14.9255 166.523 15.5465 166.118 16.3475C165.722 17.1395 165.524 18.053 165.524 19.088C165.524 20.114 165.722 21.0275 166.118 21.8285C166.523 22.6205 167.085 23.2415 167.805 23.6915C168.534 24.1325 169.367 24.353 170.303 24.353ZM183.963 26C183.306 26 182.708 25.8605 182.168 25.5815C181.637 25.2935 181.218 24.902 180.912 24.407C180.606 23.903 180.453 23.345 180.453 22.733L180.44 14.093H178.01L178.023 12.176H179.522C179.864 12.176 180.138 12.068 180.345 11.852C180.561 11.636 180.669 11.3615 180.669 11.0285V8.801H182.613V12.176H186.353L186.339 14.093H182.6L182.613 22.598C182.613 23.021 182.753 23.3765 183.032 23.6645C183.32 23.9435 183.675 24.083 184.098 24.083H186.339V26H183.963ZM188.589 7.1H190.749V26H188.589V7.1ZM194.155 12.176H196.315V26H194.155V12.176ZM194.047 7.1H196.423V9.557H194.047V7.1ZM199.502 12.176H201.581V14.417C202.04 13.598 202.661 12.968 203.444 12.527C204.227 12.077 205.132 11.852 206.158 11.852C207.148 11.852 208.025 12.0635 208.79 12.4865C209.555 12.9095 210.154 13.535 210.586 14.363C211.027 15.182 211.247 16.1675 211.247 17.3195V26H209.087V17.5355C209.087 16.3385 208.777 15.407 208.156 14.741C207.535 14.075 206.68 13.742 205.591 13.742C204.817 13.742 204.133 13.913 203.539 14.255C202.945 14.597 202.481 15.0785 202.148 15.6995C201.824 16.3115 201.662 17.0135 201.662 17.8055V26H199.502V12.176ZM225.534 7.1H227.95L235.213 26H232.837L231.015 20.978H222.658L220.957 26H218.527L225.534 7.1ZM230.286 19.034L227.059 10.2455L226.735 9.098L226.411 10.2455L223.347 19.034H230.286ZM237.001 7.1H239.242V26H237.001V7.1ZM253.912 26.324C252.85 26.324 251.905 26.1575 251.077 25.8245C250.249 25.4825 249.592 25.001 249.106 24.38C248.62 23.759 248.35 23.0345 248.296 22.2065H250.456C250.546 22.8995 250.902 23.453 251.523 23.867C252.144 24.281 252.931 24.488 253.885 24.488C254.515 24.488 255.073 24.389 255.559 24.191C256.054 23.993 256.437 23.7185 256.707 23.3675C256.977 23.0075 257.112 22.598 257.112 22.139C257.112 21.644 256.954 21.2165 256.639 20.8565C256.333 20.4875 255.915 20.2535 255.384 20.1545L252.4 19.601C251.275 19.394 250.389 18.962 249.741 18.305C249.102 17.639 248.782 16.8245 248.782 15.8615C248.782 15.1055 248.989 14.426 249.403 13.823C249.817 13.211 250.398 12.7295 251.145 12.3785C251.901 12.0275 252.765 11.852 253.737 11.852C254.736 11.852 255.613 12.014 256.369 12.338C257.125 12.653 257.719 13.112 258.151 13.715C258.592 14.309 258.844 15.0155 258.907 15.8345H256.747C256.657 15.1685 256.338 14.6375 255.789 14.2415C255.24 13.8455 254.556 13.6475 253.737 13.6475C253.179 13.6475 252.684 13.742 252.252 13.931C251.82 14.111 251.487 14.372 251.253 14.714C251.019 15.047 250.902 15.4295 250.902 15.8615C250.902 16.3385 251.059 16.721 251.374 17.009C251.689 17.288 252.198 17.495 252.9 17.63L255.856 18.1835C256.558 18.3185 257.161 18.575 257.665 18.953C258.178 19.322 258.565 19.7855 258.826 20.3435C259.096 20.8925 259.231 21.491 259.231 22.139C259.231 22.94 258.997 23.66 258.529 24.299C258.07 24.938 257.436 25.4375 256.626 25.7975C255.816 26.1485 254.911 26.324 253.912 26.324ZM261.381 7.1H263.541V18.6425L269.805 12.176H272.491L266.227 18.6425L272.734 26H269.926L263.541 18.7775V26H261.381V7.1ZM273.715 12.176H275.875V26H273.715V12.176ZM273.607 7.1H275.983V9.557H273.607V7.1ZM279.292 7.1H281.452V26H279.292V7.1ZM285.087 7.1H287.247V26H285.087V7.1ZM295.23 26.324C294.168 26.324 293.223 26.1575 292.395 25.8245C291.567 25.4825 290.91 25.001 290.424 24.38C289.938 23.759 289.668 23.0345 289.614 22.2065H291.774C291.864 22.8995 292.219 23.453 292.84 23.867C293.461 24.281 294.249 24.488 295.203 24.488C295.833 24.488 296.391 24.389 296.877 24.191C297.372 23.993 297.754 23.7185 298.024 23.3675C298.294 23.0075 298.429 22.598 298.429 22.139C298.429 21.644 298.272 21.2165 297.957 20.8565C297.651 20.4875 297.232 20.2535 296.701 20.1545L293.718 19.601C292.593 19.394 291.706 18.962 291.058 18.305C290.419 17.639 290.1 16.8245 290.1 15.8615C290.1 15.1055 290.307 14.426 290.721 13.823C291.135 13.211 291.715 12.7295 292.462 12.3785C293.218 12.0275 294.082 11.852 295.054 11.852C296.053 11.852 296.931 12.014 297.687 12.338C298.443 12.653 299.037 13.112 299.469 13.715C299.91 14.309 300.162 15.0155 300.225 15.8345H298.065C297.975 15.1685 297.655 14.6375 297.106 14.2415C296.557 13.8455 295.873 13.6475 295.054 13.6475C294.496 13.6475 294.001 13.742 293.569 13.931C293.137 14.111 292.804 14.372 292.57 14.714C292.336 15.047 292.219 15.4295 292.219 15.8615C292.219 16.3385 292.377 16.721 292.692 17.009C293.007 17.288 293.515 17.495 294.217 17.63L297.174 18.1835C297.876 18.3185 298.479 18.575 298.983 18.953C299.496 19.322 299.883 19.7855 300.144 20.3435C300.414 20.8925 300.549 21.491 300.549 22.139C300.549 22.94 300.315 23.66 299.847 24.299C299.388 24.938 298.753 25.4375 297.943 25.7975C297.133 26.1485 296.229 26.324 295.23 26.324Z" fill="white"/>
<path d="M342.9 26.5055L341.4 25.022L347.5 19.0879H321.4V17.011H347.5L341.4 10.978L342.9 9.49451L351.5 18L342.9 26.5055Z" fill="white"/>
</g>
<defs>
<clipPath id="clip0_1717_2">
<rect width="370" height="36" fill="white"/>
</clipPath>
</defs>
</svg>
