<svg width="96" height="97" viewBox="0 0 96 97" fill="none" xmlns="http://www.w3.org/2000/svg">
<path fill-rule="evenodd" clip-rule="evenodd" d="M48 87.8955C69.5391 87.8955 87 70.4346 87 48.8955C87 27.3564 69.5391 9.89551 48 9.89551C26.4609 9.89551 9 27.3564 9 48.8955C9 58.1868 12.2491 66.7192 17.6731 73.4186L25.4708 66.3757C26.4341 67.6908 27.5213 68.9095 28.7155 70.0143L20.9704 77.0096C27.9806 83.751 37.5063 87.8955 48 87.8955Z" fill="#6DB344"/>
<path fill-rule="evenodd" clip-rule="evenodd" d="M45.878 26.1758C31.9171 26.1758 20.5996 37.4933 20.5996 51.4542C20.5996 57.0336 22.4072 62.1908 25.4688 66.3722L54.074 40.5175C55.0726 39.6148 56.614 39.6927 57.5167 40.6915C58.4194 41.6901 58.3415 43.2315 57.3428 44.1342L28.7129 70.0112C33.2208 74.183 39.2517 76.7326 45.878 76.7326C59.8389 76.7326 71.1565 65.415 71.1565 51.4542V26.1758H45.878Z" fill="white"/>
</svg>
