<svg width="47" height="52" viewBox="0 0 47 52" fill="none" xmlns="http://www.w3.org/2000/svg">
<path d="M42.6353 2.52114H42.9476C43.3335 2.52114 43.6492 2.39143 43.6492 2.04972C43.6492 1.79257 43.4625 1.55429 42.9731 1.55429C42.8198 1.55429 42.7157 1.55429 42.6347 1.56571L42.6353 2.52114ZM42.6353 4.18229H42.1103V1.23657C42.3536 1.20114 42.5991 1.15314 42.9844 1.15314C43.4501 1.15314 43.7408 1.24914 43.9269 1.39143C44.0899 1.52057 44.1833 1.71886 44.1833 2.00286C44.1833 2.38 43.9383 2.62629 43.6254 2.70914V2.732C43.88 2.78 44.0423 3.01486 44.1006 3.452C44.1708 3.912 44.2291 4.08628 44.2761 4.18229H43.7408C43.6713 4.08628 43.6113 3.81657 43.553 3.42972C43.4964 3.07371 43.2984 2.93314 42.9363 2.93314H42.6347L42.6353 4.18229ZM43.1123 0.447428C41.9587 0.447428 41.0269 1.42457 41.0269 2.65029C41.0269 3.87543 41.9587 4.85315 43.123 4.85315C44.2761 4.86628 45.1971 3.876 45.1971 2.65029C45.1971 1.42514 44.2761 0.447428 43.123 0.447428H43.1123ZM43.1236 0C44.5652 0 45.7188 1.17885 45.7188 2.63943C45.7188 4.12343 44.5657 5.30057 43.1123 5.30057C41.6571 5.30057 40.4803 4.12343 40.4803 2.63943C40.4803 1.17885 41.6571 0 43.1123 0H43.1236ZM5.72719 47.2423L5.28929 44.6211C5.16483 43.8657 5.00528 42.6846 4.88364 41.8669H4.83668C4.70882 42.6908 4.53004 43.9051 4.39878 44.6268L3.92806 47.2423H5.72719ZM3.69271 48.9508L3.12355 51.8595H1.02344L3.64405 39.7566H6.21884L8.59958 51.8595H6.48758L5.93144 48.9508H3.69384H3.69271ZM13.3808 46.4537C13.3808 46.292 13.3808 46.1034 13.3491 45.9309C13.266 45.3332 12.9514 44.7948 12.4456 44.7948C11.5783 44.7948 11.2592 46.0589 11.2592 47.5366C11.2592 49.2348 11.7141 50.2012 12.4157 50.2012C12.7365 50.2012 13.1059 50.0354 13.3067 49.3223C13.3559 49.18 13.3808 48.9903 13.3808 48.768V46.4537ZM15.5375 39.4354V49.3497C15.5375 50.1354 15.5771 51.1023 15.6088 51.8583H13.7464L13.6247 50.8497H13.5805C13.2682 51.4714 12.587 52 11.773 52C9.98964 52 9.10477 50.0091 9.10477 47.496C9.10477 44.4343 10.4241 42.9451 11.8618 42.9451C12.6137 42.9451 13.1003 43.3172 13.3452 43.856H13.3814V39.4354H15.5375ZM20.0285 50.3268C20.8517 50.3268 21.0554 48.7589 21.0554 47.46C21.0554 46.2251 20.8517 44.616 19.9918 44.616C19.0821 44.616 18.8908 46.2251 18.8908 47.46C18.8908 48.9503 19.1312 50.3274 20.0093 50.3274L20.0285 50.3268ZM19.9878 52C18.0009 52 16.7545 50.3863 16.7545 47.4983C16.7545 44.3463 18.3545 42.9451 20.0387 42.9451C21.9991 42.9451 23.228 44.6372 23.228 47.4474C23.228 51.0577 21.3027 52 20.0053 52H19.9878ZM26.5903 48.7263C26.5903 48.9451 26.6294 49.1503 26.6751 49.2874C26.8918 50.0206 27.2579 50.2012 27.5521 50.2012C28.386 50.2012 28.7226 49.1326 28.7226 47.4228C28.7226 45.8669 28.3668 44.7948 27.5425 44.7948C27.1334 44.7948 26.7889 45.244 26.6706 45.7263C26.6294 45.8783 26.5897 46.1148 26.5897 46.2777L26.5903 48.7263ZM24.433 39.4348H26.5897V44.004H26.6242C27.0491 43.3297 27.6143 42.9451 28.4364 42.9451C30.0618 42.9451 30.8788 44.8137 30.8788 47.2583C30.8788 50.3468 29.6607 52 28.0822 52C27.3298 52 26.8296 51.6629 26.3776 50.808H26.3323L26.2123 51.8577H24.3606C24.3923 51.1309 24.433 50.1354 24.433 49.3497V39.4348ZM36.0459 46.6371C36.0572 45.4057 35.7002 44.5423 35.0162 44.5423C34.2354 44.5423 33.9039 45.6977 33.8802 46.6371H36.0459ZM33.8722 48.1789C33.8977 49.7652 34.7226 50.2817 35.746 50.2817C36.395 50.2817 36.9511 50.1354 37.3619 49.9794L37.6526 51.548C37.0806 51.7971 36.1975 51.9537 35.3505 51.9537C33.0366 51.9537 31.7727 50.3543 31.7727 47.6228C31.7727 44.6914 33.2386 42.9308 35.1531 42.9308C37.0031 42.9308 38.0283 44.4869 38.0283 47.0268C38.0283 47.6086 38.0046 47.9354 37.9661 48.1914L33.8722 48.1789Z" fill="black"/>
<path d="M24.3508 0H38.3637V33.1428L24.3508 0ZM14.4782 0H0.45752V33.1428L14.4782 0ZM19.4162 12.212L28.344 33.1411H22.494L19.8236 26.4743H13.2873L19.4162 12.212Z" fill="#ED1C24"/>
</svg>
