<svg width="192" height="24" viewBox="0 0 192 24" fill="none" xmlns="http://www.w3.org/2000/svg">
<mask id="mask0_10155_60352" style="mask-type:luminance" maskUnits="userSpaceOnUse" x="0" y="0" width="192" height="24">
<path d="M0 0H192V24H0V0Z" fill="white"/>
</mask>
<g mask="url(#mask0_10155_60352)">
<path d="M6.98351 10.9466C6.91356 10.8545 6.82118 10.782 6.71529 10.7363C6.60941 10.6904 6.4936 10.673 6.37907 10.6856C6.26454 10.6981 6.15516 10.7402 6.06149 10.8078C5.96783 10.8753 5.89306 10.9661 5.8444 11.0713L0.0723324 22.6975C0.0197498 22.8035 -0.00507702 22.9212 0.000209334 23.0395C0.00549568 23.1578 0.0407196 23.2729 0.102537 23.3736C0.164354 23.4744 0.250714 23.5575 0.353414 23.6153C0.456115 23.673 0.57175 23.7032 0.689338 23.7032H8.72664C8.85537 23.7062 8.9822 23.6715 9.09172 23.6034C9.20124 23.5351 9.28876 23.4363 9.34365 23.319C11.0774 19.7099 10.0267 14.2221 6.98351 10.9466Z" fill="url(#paint0_linear_10155_60352)"/>
<path d="M11.2165 0.372354C9.77831 2.60183 8.94016 5.16959 8.78436 7.82375C8.62856 10.478 9.16044 13.1275 10.3278 15.5122L14.2027 23.3194C14.26 23.4348 14.3481 23.5319 14.4571 23.5997C14.566 23.6676 14.6917 23.7035 14.8197 23.7036H22.8556C22.9732 23.7035 23.0888 23.6732 23.1915 23.6155C23.2942 23.5578 23.3805 23.4746 23.4424 23.374C23.5042 23.2732 23.5394 23.1581 23.5447 23.0398C23.5499 22.9214 23.5252 22.8037 23.4725 22.6978C23.4725 22.6978 12.6616 0.912954 12.3899 0.368034C12.3362 0.257154 12.2525 0.163674 12.1485 0.0985142C12.0446 0.0333542 11.9244 -0.0010854 11.8019 -0.000605402C11.6794 -0.000125402 11.5595 0.0351542 11.456 0.101034C11.3524 0.167034 11.2694 0.261114 11.2165 0.372354Z" fill="#2684FF"/>
<path d="M105.473 9.69425C105.473 12.5732 106.799 14.8588 111.984 15.8679C115.078 16.5222 115.726 17.0253 115.726 18.0641C115.726 19.0732 115.077 19.7265 112.898 19.7265C110.264 19.6787 107.683 18.9752 105.385 17.6784V22.3677C106.947 23.1393 109.009 24 112.839 24C118.26 24 120.411 21.5646 120.411 17.9453L105.473 9.69425ZM120.411 17.9453C120.411 14.532 118.613 12.929 113.546 11.8312C110.747 11.2078 110.07 10.5848 110.07 9.69425C110.07 8.56745 111.071 8.09153 112.927 8.09153C115.166 8.09153 117.376 8.77421 119.468 9.72401V5.24213C117.462 4.32245 115.278 3.86621 113.075 3.90665C108.066 3.90665 105.473 6.10289 105.473 9.69425M175.119 4.20352V23.7038H179.243V8.83385L180.982 12.781L186.815 23.7038H192V4.20352H187.876V16.7883L186.313 13.1373L181.63 4.20352H175.119ZM148.884 4.20352H144.377V23.7038H148.884V4.20352ZM139.176 17.9453C139.176 14.532 137.379 12.929 132.311 11.8312C129.513 11.2078 128.835 10.5848 128.835 9.69425C128.835 8.56745 129.837 8.09153 131.692 8.09153C133.931 8.09153 136.141 8.77421 138.233 9.72401V5.24213C136.227 4.32245 134.043 3.86621 131.839 3.90665C126.831 3.90665 124.239 6.10289 124.239 9.69425C124.239 12.5732 125.565 14.8588 130.75 15.8679C133.843 16.5222 134.491 17.0253 134.491 18.0641C134.491 19.0732 133.842 19.7265 131.663 19.7265C129.029 19.6787 126.448 18.9752 124.15 17.6784V22.3677C125.711 23.1393 127.774 24 131.604 24C137.025 24 139.176 21.5646 139.176 17.9453ZM70.4559 4.20352V23.7038H79.7211L81.1799 19.489H74.9929V4.20352H70.4559ZM52.1509 4.20352V8.41793H57.1594V23.7038H61.6964V8.41793H67.0586V4.20352H52.1509ZM45.5719 4.20352H39.626L32.876 23.7038H38.0307L38.9876 20.4196C41.3444 21.1167 43.8502 21.1167 46.2069 20.4196L47.1639 23.7038H52.3196L45.5719 4.20352ZM42.5987 16.9031C41.7591 16.903 40.9238 16.782 40.1181 16.5436L42.5987 8.0338L45.0794 16.5465C44.2736 16.784 43.4383 16.904 42.5987 16.9031ZM95.6941 4.20352H89.7484L82.9985 23.7038H88.1543L89.1112 20.4196C91.4679 21.1167 93.9739 21.1167 96.3305 20.4196L97.2874 23.7038H102.443L95.6941 4.20352ZM92.7212 16.9031C91.8815 16.903 91.0462 16.782 90.2405 16.5436L92.7212 8.0338L95.2018 16.5465C94.3961 16.784 93.5607 16.904 92.7212 16.9031ZM165.129 4.20352H159.183L152.433 23.7038H157.588L158.545 20.4196C160.902 21.1167 163.408 21.1167 165.765 20.4196L166.721 23.7038H171.877L165.129 4.20352ZM162.154 16.9031C161.314 16.903 160.479 16.782 159.673 16.5436L162.154 8.0338L164.634 16.5465C163.828 16.784 162.993 16.904 162.154 16.9031Z" fill="#0052CC"/>
</g>
<defs>
<linearGradient id="paint0_linear_10155_60352" x1="10.1474" y1="12.7404" x2="3.98781" y2="23.3304" gradientUnits="userSpaceOnUse">
<stop stop-color="#0052CC"/>
<stop offset="0.923" stop-color="#2684FF"/>
</linearGradient>
</defs>
</svg>
