<svg width="76" height="44" viewBox="0 0 76 44" fill="none" xmlns="http://www.w3.org/2000/svg">
<g clip-path="url(#clip0_10155_60520)">
<path d="M21.1334 15.999C21.1141 16.7319 21.2066 17.4637 21.4077 18.1699C21.6293 18.7738 21.896 19.3608 22.2058 19.9263C22.3168 20.0936 22.3773 20.288 22.3805 20.4874C22.3652 20.637 22.3144 20.781 22.2321 20.9081C22.1499 21.0352 22.0384 21.1417 21.9066 21.2191L20.3353 22.2437C20.1457 22.3772 19.9202 22.4536 19.6868 22.4632C19.4026 22.4441 19.1359 22.3224 18.9385 22.1217C18.6024 21.7685 18.3017 21.3846 18.0406 20.9752C17.7912 20.5605 17.5418 20.0971 17.2674 19.536C15.322 21.7801 12.8777 22.9023 9.93457 22.9023C7.8395 22.9023 6.1684 22.3169 4.94626 21.146C3.72413 19.9751 3.10059 18.4139 3.10059 16.4624C3.10059 14.389 3.84884 12.7058 5.37028 11.4374C6.89172 10.1689 8.91198 9.53471 11.481 9.53471C12.3657 9.54171 13.249 9.6069 14.1248 9.72985C15.0476 9.85175 15.9954 10.0469 16.9931 10.2665V8.48579C16.9931 6.63185 16.594 5.339 15.8208 4.58281C15.0227 3.82661 13.6759 3.4607 11.7554 3.4607C10.8477 3.46068 9.94337 3.56714 9.06166 3.77782C8.14476 3.99145 7.2446 4.26861 6.36794 4.60719C6.0843 4.73132 5.7927 4.83726 5.49498 4.92431C5.36588 4.96594 5.23167 4.99055 5.09592 4.99749C4.74673 4.99749 4.57214 4.75356 4.57214 4.24129V3.04602C4.54537 2.75093 4.60597 2.45455 4.74673 2.19225C4.93488 1.96993 5.1742 1.79438 5.4451 1.67998C6.44547 1.19587 7.50014 0.82748 8.58776 0.582277C9.85863 0.263344 11.1666 0.107544 12.4787 0.118801C15.4467 0.118801 17.6166 0.777424 19.0133 2.09467C20.3851 3.41192 21.0835 5.41218 21.0835 8.09546V15.999H21.1334ZM11.0071 19.7068C11.8821 19.6973 12.7497 19.549 13.5761 19.2677C14.4915 18.9581 15.3083 18.4199 15.9455 17.7065C16.3475 17.257 16.6377 16.7227 16.7935 16.1453C16.965 15.4505 17.0487 14.7378 17.0429 14.023V12.9986C16.2866 12.8185 15.5205 12.6801 14.7483 12.5838C13.9707 12.4873 13.1876 12.4384 12.4038 12.4375C10.7328 12.4375 9.51062 12.7546 8.68749 13.4132C7.86444 14.0718 7.46537 14.9988 7.46537 16.2185C7.46537 17.365 7.76467 18.2188 8.38821 18.8042C8.98678 19.414 9.85977 19.7068 11.0071 19.7068ZM31.0352 22.3412C30.6995 22.375 30.3627 22.2883 30.0874 22.0973C29.8264 21.8335 29.6451 21.5043 29.5636 21.146L23.7023 2.28982C23.5887 1.97429 23.5134 1.6468 23.4779 1.31408C23.4658 1.23337 23.4727 1.15103 23.4981 1.07334C23.5236 0.995658 23.5667 0.924679 23.6245 0.865833C23.6823 0.806995 23.753 0.761845 23.8314 0.733838C23.9097 0.705831 23.9935 0.695709 24.0765 0.704244H26.5208C26.9947 0.704244 27.3189 0.777424 27.4935 0.948178C27.693 1.09454 27.8426 1.43605 27.9923 1.89952L32.1825 18.048L36.0734 1.89952C36.1981 1.41165 36.3478 1.09454 36.5473 0.948178C36.8465 0.769011 37.1948 0.683874 37.545 0.704244H39.5403C40.0142 0.704244 40.3384 0.777424 40.538 0.948178C40.7989 1.20553 40.9654 1.53999 41.0118 1.89952L44.9526 18.2431L49.2676 1.89952C49.3468 1.5455 49.5186 1.21768 49.7664 0.948178C50.0562 0.768607 50.3966 0.683229 50.7391 0.704244H53.0586C53.1432 0.693092 53.2293 0.701182 53.3101 0.727886C53.391 0.75459 53.4644 0.799185 53.5248 0.858198C53.5851 0.917215 53.6307 0.989058 53.658 1.06813C53.6853 1.1472 53.6936 1.23137 53.6822 1.31408C53.6764 1.44528 53.6596 1.57581 53.6323 1.70438C53.5932 1.91243 53.5348 2.11656 53.4577 2.31422L47.4468 21.1703C47.2972 21.6583 47.1226 21.9753 46.923 22.1217C46.6411 22.2982 46.3095 22.3836 45.9752 22.3656H43.8302C43.3564 22.3656 43.0321 22.2924 42.8326 22.1217C42.5721 21.8543 42.4061 21.5123 42.3587 21.146L38.4928 5.41218L34.6517 21.1215C34.5934 21.4847 34.4288 21.8237 34.1778 22.0973C33.8835 22.2876 33.5314 22.3737 33.1802 22.3412H31.0352ZM63.0852 22.9998C61.7917 23.0012 60.5025 22.8538 59.2441 22.5607C57.9971 22.2681 57.0243 21.9509 56.3759 21.585C56.0549 21.437 55.7858 21.1993 55.6027 20.902C55.5056 20.6867 55.4547 20.4543 55.4531 20.219V18.9749C55.4531 18.4627 55.6526 18.2188 56.0267 18.2188C56.1794 18.2192 56.331 18.2439 56.4757 18.2919C56.6253 18.3407 56.8498 18.4383 57.0992 18.5359C57.9802 18.9149 58.8999 19.201 59.8428 19.3896C60.8197 19.5836 61.814 19.6816 62.8108 19.6823C64.3821 19.6823 65.6043 19.414 66.4523 18.8774C66.8585 18.6376 67.1925 18.2968 67.4203 17.8897C67.6481 17.4827 67.7617 17.0239 67.7493 16.56C67.7581 16.2459 67.7031 15.9334 67.5874 15.6403C67.4718 15.3471 67.2979 15.0794 67.0758 14.8524C66.6269 14.389 65.7789 13.9743 64.5567 13.584L60.9402 12.4863C59.1195 11.9252 57.7726 11.0959 56.9495 9.99817C56.1465 8.98585 55.7082 7.74232 55.7025 6.4611C55.6823 5.51661 55.9143 4.5833 56.3759 3.75342C56.8213 2.96869 57.4336 2.28658 58.1717 1.75316C58.9491 1.17773 59.8284 0.747692 60.7656 0.484703C61.7868 0.196978 62.8456 0.057263 63.9082 0.070014C64.4669 0.066042 65.0252 0.0986393 65.5793 0.167588C66.153 0.240768 66.6768 0.338342 67.2006 0.435916C67.6994 0.557883 68.1733 0.67985 68.6223 0.826209C68.9862 0.936323 69.3372 1.08349 69.6698 1.2653C69.9635 1.41011 70.2195 1.61871 70.418 1.87513C70.5803 2.1125 70.659 2.39506 70.6425 2.68012V3.82661C70.6425 4.33887 70.443 4.60719 70.0689 4.60719C69.7366 4.57027 69.4147 4.47088 69.1211 4.31447C67.6138 3.66286 65.9801 3.33831 64.3323 3.36313C62.9106 3.36313 61.7882 3.58267 61.0151 4.04614C60.2419 4.50962 59.8428 5.21703 59.8428 6.21716C59.8359 6.54108 59.8991 6.86276 60.028 7.1612C60.157 7.45963 60.3488 7.72811 60.591 7.9491C61.0899 8.41254 62.0127 8.87609 63.3346 9.29075L66.8764 10.3885C68.6721 10.9495 69.9691 11.7301 70.7423 12.7302C71.5036 13.7115 71.9075 14.9136 71.8896 16.1453C71.9025 17.1251 71.6803 18.0943 71.2411 18.9749C70.7985 19.8098 70.1776 20.542 69.4204 21.1215C68.5969 21.7483 67.6566 22.2122 66.6519 22.4876C65.4966 22.8351 64.2938 23.0078 63.0852 22.9998Z" fill="#252F3E"/>
<path d="M67.7993 34.8552C59.5935 40.7828 47.6714 43.9295 37.4204 43.9295C23.054 43.9295 10.1093 38.7337 0.332227 30.0984C-0.440964 29.4154 0.257402 28.4885 1.18024 29.0251C11.7555 35.026 24.7999 38.6605 38.2934 38.6605C48.018 38.6102 57.6373 36.6871 66.6021 33.0012C67.9739 32.3914 69.1462 33.8794 67.7993 34.8552ZM71.2163 31.0498C70.1688 29.7325 64.2825 30.4156 61.6138 30.7327C60.8157 30.8302 60.6909 30.1473 61.4142 29.635C66.1032 26.415 73.8102 27.342 74.7082 28.4153C75.606 29.513 74.4588 37.0506 70.069 40.6608C69.3956 41.2219 68.7471 40.9291 69.0463 40.1973C70.0441 37.7824 72.2639 32.3426 71.2163 31.0498Z" fill="#FF9900"/>
</g>
<defs>
<clipPath id="clip0_10155_60520">
<rect width="75.7778" height="44" fill="white"/>
</clipPath>
</defs>
</svg>
