<svg width="115" height="48" viewBox="0 0 115 48" fill="none" xmlns="http://www.w3.org/2000/svg">
<path d="M115 32.8355H108.854L100.796 25.5191L97.1175 27.9867V32.8369H92.6478V16.2746H97.1175V23.4154L108.434 16.2746H114.58L104.331 23.1491L115 32.8369V32.8355ZM28.0229 16.2719H23.5533V32.8341H40.1836V28.7507H28.0229V16.2719ZM20.1339 28.5207C20.1339 30.8893 18.2518 32.8341 15.019 32.8341H0V16.2719H14.5526C17.7867 16.2719 19.6676 17.8375 19.6676 20.2061C19.6676 22.1383 18.7092 23.6022 16.9868 24.2839C19.0018 24.8736 20.1327 26.4211 20.1327 28.5207H20.1339ZM4.3125 22.6193H13.6224C14.8299 22.6193 15.5327 22.0171 15.5327 21.1067C15.5327 20.1963 14.8299 19.5941 13.6224 19.5941H4.3125V22.6179V22.6193ZM16.1038 27.5378C16.1038 26.5773 15.3627 25.9429 14.0888 25.9429H4.31378V29.1341H14.0888C15.3627 29.1341 16.1038 28.4998 16.1038 27.5392V27.5378ZM84.6464 27.5713C83.6727 29.0923 81.3817 29.2972 78.706 29.2972C76.0303 29.2972 73.5732 29.0923 72.5676 27.5713C71.9632 26.587 72.0002 24.5 72.0002 24.5C72.0002 24.5 71.9632 22.4116 72.5676 21.4287C73.5732 19.9077 75.9409 19.7028 78.706 19.7028C81.4711 19.7028 83.6727 19.9077 84.6464 21.4287C84.7282 21.5668 84.7972 21.7257 84.856 21.8972H89.2311C88.9947 20.5867 88.4682 19.2149 87.2952 18.0954C85.537 16.6957 82.9125 16 78.7047 16C74.3565 16 71.645 16.6957 69.828 18.0954C67.7491 20.0151 67.6315 22.6779 67.6315 24.5C67.6315 26.3221 67.7491 28.9849 69.828 30.9046C71.645 32.3043 74.3577 33 78.7047 33C83.0517 33 85.5357 32.3043 87.2952 30.9046C88.4861 29.7684 89.0113 28.3715 89.2426 27.0429H84.8764C84.8125 27.2381 84.7371 27.4179 84.6464 27.5713ZM64.7642 24.5C64.7642 26.3221 64.6466 28.9849 62.5677 30.9046C60.7507 32.3043 58.0379 33 53.6909 33C49.3439 33 46.6312 32.3043 44.8142 30.9046C42.7353 28.9849 42.6177 26.3221 42.6177 24.5C42.6177 22.6779 42.7353 20.0151 44.8142 18.0954C46.6312 16.6957 49.3439 16 53.6909 16C58.0392 16 60.7507 16.6957 62.5677 18.0954C64.6466 20.0151 64.7642 22.6779 64.7642 24.5ZM60.3967 24.5C60.3967 24.5 60.4338 22.4116 59.8294 21.4287C58.8238 19.9077 56.4561 19.7028 53.6909 19.7028C50.9258 19.7028 48.5581 19.9077 47.5525 21.4287C46.9481 22.413 46.9852 24.5 46.9852 24.5C46.9852 24.5 46.9481 26.5884 47.5525 27.5713C48.5581 29.0923 50.9258 29.2972 53.6909 29.2972C56.4561 29.2972 58.8238 29.0923 59.8294 27.5713C60.4338 26.587 60.3967 24.5 60.3967 24.5Z" fill="black"/>
</svg>
