<svg width="110" height="28" viewBox="0 0 110 28" fill="none" xmlns="http://www.w3.org/2000/svg">
<path fill-rule="evenodd" clip-rule="evenodd" d="M66.5234 7.92982C68.6767 7.92982 70.4749 8.79532 71.9181 10.5263C73.3613 12.2573 74.0828 14.4561 74.0828 17.1228C74.0828 20.4912 73.1322 23.1462 71.2308 25.0877C69.3295 27.0292 66.7295 28 63.4308 28C61.6899 28 59.3075 27.6725 56.2837 27.0175C56.3753 25.614 56.4326 22 56.4555 16.1754C56.4784 10.3508 56.4211 6.61989 56.2837 4.98246C56.1921 4.14035 56.0317 3.53217 55.8026 3.1579C55.5736 2.78363 55.1612 2.5731 54.5656 2.52631L53.741 2.38596V1.61404L62.1251 0C61.9877 2.80703 61.9189 5.84794 61.9189 9.12281C63.5683 8.32748 65.1031 7.92982 66.5234 7.92982ZM63.5683 26.5965C64.9427 26.5965 66.0652 25.7193 66.9357 23.9649C67.8062 22.2105 68.2414 20.0234 68.2414 17.4035C68.2414 15.2982 67.852 13.5556 67.0731 12.1754C66.2943 10.7953 65.2405 10.1053 63.9119 10.1053C63.0872 10.1053 62.4229 10.1988 61.9189 10.386C61.9189 19.2749 61.9877 24.6316 62.1251 26.4561C62.5833 26.5497 63.0643 26.5965 63.5683 26.5965ZM22.1974 8.14035L20.8916 8.56141C19.7004 4.49121 17.5701 2.45614 14.5004 2.45614H10.1709C9.98766 4.65498 9.89604 8.28068 9.89604 13.3333L12.8511 13.2632C14.4546 13.2164 15.5313 11.9766 16.0811 9.54386H17.1806V18.6667H16.0811C15.5313 16.1871 14.4546 14.924 12.8511 14.8772L9.89604 14.807C9.89604 17.7076 9.98766 20.2807 10.1709 22.5263C10.2626 23.7895 10.4916 24.6901 10.8582 25.2281C11.2247 25.7661 11.8432 26.1053 12.7137 26.2456L14.2256 26.386V27.5088H0V26.386L1.16828 26.2456C2.03877 26.1053 2.65727 25.7661 3.02379 25.2281C3.39031 24.6901 3.61938 23.7895 3.71101 22.5263C4.16917 17.2865 4.16917 11.6258 3.71101 5.54386C3.61938 4.2807 3.39031 3.38012 3.02379 2.84211C2.65727 2.30409 2.03877 1.96491 1.16828 1.82456L0 1.68421V0.561401H22.0599L22.1974 8.14035ZM22.0599 10.6667C23.8009 8.70175 26.1832 7.7193 29.2071 7.7193C32.2309 7.7193 34.5559 8.66666 36.1824 10.5614C37.8088 12.4561 38.622 14.8772 38.622 17.8246C38.622 20.7252 37.7516 23.1462 36.0106 25.0877C34.2696 27.0292 31.8872 28 28.8634 28C25.8396 28 23.5145 27.0526 21.8881 25.1579C20.2617 23.2631 19.4485 20.8421 19.4485 17.8947C19.4485 14.9941 20.3189 12.5848 22.0599 10.6667ZM28.9322 8.98246C26.5498 8.98246 25.3586 11.9298 25.3586 17.8246C25.3586 20.3977 25.6793 22.5263 26.3207 24.2105C26.9621 25.8947 27.9013 26.7368 29.1383 26.7368C31.5207 26.7368 32.7119 23.7661 32.7119 17.8246C32.7119 15.2515 32.3912 13.1345 31.7498 11.4737C31.1084 9.81286 30.1692 8.98246 28.9322 8.98246ZM75.6634 18.0351C75.6634 15.1813 76.511 12.7602 78.2062 10.7719C79.9013 8.78361 82.2837 7.78947 85.3533 7.78947C87.8731 7.78947 89.8088 8.64327 91.1604 10.3509C92.5119 12.0585 93.1877 14.269 93.1877 16.9825H81.4361C81.3445 19.4152 81.8943 21.3801 83.0855 22.8772C84.2767 24.3743 85.9718 25.1228 88.1709 25.1228C89.7745 25.1228 91.1718 24.655 92.363 23.7193L92.9128 24.4211C92.1797 25.4035 91.1489 26.2456 89.8203 26.9474C88.4916 27.6491 86.9798 28 85.2846 28C82.4899 28 80.1877 27.0643 78.378 25.193C76.5683 23.3216 75.6634 20.9357 75.6634 18.0351ZM81.5049 15.5789L87.3463 15.4386C87.3463 11.1345 86.5216 8.98246 84.8723 8.98246C83.8643 8.98246 83.0626 9.66081 82.467 11.0175C81.8714 12.3743 81.5507 13.8947 81.5049 15.5789ZM108.238 13.6842L107.276 13.9649C106.268 10.7368 104.664 9.12281 102.465 9.12281C101.686 9.12281 101.056 9.39181 100.575 9.92983C100.094 10.4678 99.8538 11.1579 99.8538 12C99.8538 12.8421 100.186 13.5322 100.85 14.0702C101.515 14.6082 102.763 15.2281 104.596 15.9298C106.245 16.5848 107.425 17.3333 108.135 18.1754C108.845 19.0175 109.2 20.117 109.2 21.4737C109.2 23.5322 108.49 25.1345 107.07 26.2807C105.649 27.4269 103.679 28 101.159 28C98.7313 28 96.5322 27.6023 94.5621 26.807L94.356 21.193L95.3181 20.9123C96.5551 24.5146 98.3877 26.3158 100.816 26.3158C101.778 26.3158 102.545 26.0117 103.118 25.4035C103.691 24.7953 103.977 24.0936 103.977 23.2982C103.977 22.5029 103.691 21.8363 103.118 21.2982C102.545 20.7602 101.48 20.2105 99.9225 19.6491C98.1815 18.9942 96.8872 18.2573 96.0397 17.4386C95.1921 16.6199 94.7683 15.4386 94.7683 13.8947C94.7683 12.1637 95.467 10.7018 96.8643 9.50877C98.2617 8.31579 100.106 7.7193 102.396 7.7193C104.641 7.7193 106.52 8.07017 108.032 8.77193L108.238 13.6842ZM52.9163 13.5439C51.5877 12.7485 50.3621 12.4094 49.2397 12.5263C48.1172 12.6433 47.3956 12.9825 47.0749 13.5439C46.8458 17.1462 46.8687 20.5848 47.1436 23.8597C47.2811 25.3567 47.8766 26.1754 48.9304 26.3158L50.4423 26.4561V27.5088H38.7595V26.4561L39.5841 26.3158C40.6379 26.1754 41.2335 25.3567 41.3709 23.8597C41.6916 19.9298 41.6916 16.2105 41.3709 12.7018C41.2335 11.2047 40.6379 10.386 39.5841 10.2456L38.7595 10.1754V9.40351L47.1436 7.7193L47.0749 12.2105C47.6705 10.7602 48.4837 9.64913 49.5145 8.87719C50.5454 8.10526 51.5189 7.7193 52.4352 7.7193C53.3516 7.7193 54.1991 7.90643 54.978 8.2807L52.9163 13.5439Z" fill="#181716"/>
</svg>
