<svg width="125" height="52" viewBox="0 0 125 52" fill="none" xmlns="http://www.w3.org/2000/svg">
<g clip-path="url(#clip0_7632_31673)">
<path d="M53.8143 29.7502C53.8143 35.1636 49.5794 39.1526 44.3823 39.1526C39.1851 39.1526 34.9502 35.1636 34.9502 29.7502C34.9502 24.2987 39.1851 20.3478 44.3823 20.3478C49.5794 20.3478 53.8143 24.2987 53.8143 29.7502ZM49.6854 29.7502C49.6854 26.3674 47.231 24.0528 44.3823 24.0528C41.5336 24.0528 39.0791 26.3674 39.0791 29.7502C39.0791 33.0991 41.5336 35.4476 44.3823 35.4476C47.231 35.4476 49.6854 33.0949 49.6854 29.7502Z" fill="#EA4335"/>
<path d="M74.1625 29.7502C74.1625 35.1636 69.9276 39.1526 64.7304 39.1526C59.5332 39.1526 55.2983 35.1636 55.2983 29.7502C55.2983 24.3029 59.5332 20.3478 64.7304 20.3478C69.9276 20.3478 74.1625 24.2987 74.1625 29.7502ZM70.0336 29.7502C70.0336 26.3674 67.5791 24.0528 64.7304 24.0528C61.8817 24.0528 59.4273 26.3674 59.4273 29.7502C59.4273 33.0991 61.8817 35.4476 64.7304 35.4476C67.5791 35.4476 70.0336 33.0949 70.0336 29.7502Z" fill="#FBBC05"/>
<path d="M93.6625 20.9159V37.7961C93.6625 44.7398 89.5675 47.5758 84.7264 47.5758C80.1693 47.5758 77.4266 44.5278 76.3923 42.0352L79.987 40.5388C80.6272 42.0691 82.1956 43.875 84.7222 43.875C87.821 43.875 89.7413 41.9632 89.7413 38.3641V37.0119H89.5972C88.673 38.1522 86.8926 39.1484 84.6459 39.1484C79.9447 39.1484 75.6377 35.0534 75.6377 29.7841C75.6377 24.4768 79.9447 20.3478 84.6459 20.3478C86.8884 20.3478 88.6688 21.344 89.5972 22.4504H89.7413V20.9201H93.6625V20.9159ZM90.0338 29.7841C90.0338 26.4734 87.8252 24.0528 85.0147 24.0528C82.166 24.0528 79.7793 26.4734 79.7793 29.7841C79.7793 33.061 82.166 35.4476 85.0147 35.4476C87.8252 35.4476 90.0338 33.061 90.0338 29.7841Z" fill="#4285F4"/>
<path d="M100.127 11.0217V38.5761H96.0996V11.0217H100.127Z" fill="#34A853"/>
<path d="M115.82 32.8447L119.025 34.9813C117.991 36.5116 115.498 39.1483 111.191 39.1483C105.85 39.1483 101.861 35.0194 101.861 29.7459C101.861 24.1545 105.884 20.3435 110.729 20.3435C115.608 20.3435 117.995 24.2266 118.775 26.3249L119.203 27.3932L106.634 32.5989C107.596 34.4853 109.093 35.4476 111.191 35.4476C113.294 35.4476 114.752 34.4132 115.82 32.8447ZM105.956 29.4619L114.358 25.9731C113.896 24.7989 112.505 23.9807 110.869 23.9807C108.771 23.9807 105.85 25.8332 105.956 29.4619Z" fill="#EA4335"/>
<path d="M19.7062 27.3043V23.3153H33.1485C33.2799 24.0105 33.3477 24.8329 33.3477 25.7231C33.3477 28.7159 32.5296 32.4167 29.8928 35.0534C27.3282 37.7241 24.0513 39.1484 19.7104 39.1484C11.6646 39.1484 4.89893 32.5947 4.89893 24.5489C4.89893 16.503 11.6646 9.94931 19.7104 9.94931C24.1615 9.94931 27.3324 11.6958 29.7148 13.9722L26.9 16.787C25.1916 15.1846 22.8771 13.9383 19.7062 13.9383C13.8308 13.9383 9.23556 18.6734 9.23556 24.5489C9.23556 30.4243 13.8308 35.1594 19.7062 35.1594C23.5172 35.1594 25.6876 33.6291 27.0781 32.2387C28.2057 31.111 28.9475 29.5002 29.24 27.3001L19.7062 27.3043Z" fill="#4285F4"/>
</g>
<defs>
<clipPath id="clip0_7632_31673">
<rect width="123.964" height="39" fill="white" transform="translate(0.416504 9.75)"/>
</clipPath>
</defs>
</svg>
