<svg width="186" height="48" viewBox="0 0 186 48" fill="none" xmlns="http://www.w3.org/2000/svg">
    <path d="M57.1386 30.6981V37.2564C56.3652 37.844 55.4985 38.2909 54.5765 38.5774C53.6304 38.8642 52.6481 39.0063 51.6614 38.9991C50.4667 39.016 49.2794 38.8063 48.1596 38.3807C47.1602 37.995 46.2491 37.4035 45.4828 36.6427C44.7352 35.9066 44.1507 35.0153 43.7686 34.0288C43.361 32.9732 43.1571 31.847 43.1681 30.7122C43.1544 29.5713 43.3519 28.438 43.7502 27.3721C44.1126 26.3933 44.6716 25.5029 45.3911 24.7582C46.1283 24.0123 47.0106 23.4329 47.9808 23.0577C49.0707 22.6408 50.2273 22.4359 51.3909 22.4534C51.9934 22.4489 52.595 22.5022 53.1877 22.6127C53.7166 22.709 54.2365 22.8516 54.7415 23.039C55.1986 23.2132 55.6364 23.4362 56.0478 23.7042C56.432 23.959 56.794 24.2474 57.1295 24.5661L56.2861 25.9293C56.2317 26.028 56.1581 26.1142 56.0698 26.1827C55.9815 26.2512 55.8804 26.3005 55.7728 26.3275C55.6533 26.348 55.531 26.344 55.4129 26.3159C55.2949 26.2877 55.1836 26.2359 55.0852 26.1635L54.3656 25.7372C54.115 25.6006 53.8526 25.4877 53.5819 25.4C53.2576 25.2871 52.925 25.2009 52.5872 25.1423C52.1662 25.0707 51.7399 25.0362 51.313 25.0393C50.5895 25.0291 49.8713 25.166 49.2 25.4421C48.5853 25.6993 48.0342 26.093 47.5866 26.5945C47.129 27.1171 46.7797 27.729 46.5599 28.3934C46.3096 29.1473 46.1871 29.9395 46.1978 30.7356C46.1839 31.5771 46.3158 32.4145 46.5874 33.209C46.8221 33.8948 47.1936 34.5233 47.6783 35.0547C48.1513 35.548 48.7237 35.9301 49.3559 36.1743C50.5692 36.62 51.8837 36.6933 53.1373 36.3851C53.6012 36.2566 54.0523 36.0841 54.4848 35.8698V32.9561H52.4956C52.4122 32.9628 52.3284 32.9518 52.2494 32.9235C52.1705 32.8953 52.0982 32.8505 52.0372 32.7921C51.9863 32.7409 51.9462 32.6795 51.9194 32.6119C51.8926 32.5442 51.8796 32.4716 51.8814 32.3986V30.6981H57.1386ZM61.9422 29.3256C62.2467 28.7011 62.6779 28.1501 63.2072 27.7094C63.6935 27.3177 64.2978 27.1107 64.9169 27.1239C65.3563 27.1026 65.7911 27.2239 66.159 27.4705L65.9573 29.5364C65.9359 29.6459 65.8814 29.7459 65.8015 29.8221C65.7197 29.8806 65.6216 29.9102 65.5219 29.9064C65.3603 29.9003 65.1994 29.8815 65.0406 29.8502C64.8332 29.8135 64.6232 29.7947 64.4127 29.794C64.1395 29.7901 63.8679 29.8361 63.6106 29.9299C63.3803 30.0183 63.1676 30.1484 62.9826 30.314C62.7908 30.4913 62.6256 30.6965 62.4922 30.923C62.3393 31.184 62.206 31.4564 62.0934 31.7381V38.7976H59.3937V27.3347H60.9796C61.1833 27.3149 61.3874 27.3678 61.5571 27.4846C61.6886 27.635 61.7662 27.8266 61.7772 28.028L61.9422 29.3256ZM67.1444 28.9321C68.4094 27.7363 70.0786 27.0882 71.8013 27.1239C72.4034 27.1129 73.0017 27.2244 73.5613 27.4518C74.06 27.6625 74.5075 27.9823 74.8722 28.3887C75.2376 28.7934 75.5156 29.2723 75.6881 29.794C75.8802 30.3699 75.9747 30.9751 75.9677 31.5835V38.7976H74.7439C74.5403 38.8097 74.337 38.7695 74.1526 38.6805C73.9901 38.571 73.8726 38.4043 73.8226 38.2121L73.5843 37.3829C73.3194 37.6195 73.0425 37.8415 72.7547 38.0481C72.4926 38.2481 72.2116 38.4207 71.9159 38.5634C71.6221 38.7 71.3148 38.8037 70.9992 38.8726C70.6371 38.9468 70.2684 38.9829 69.8991 38.9803C69.4548 38.9848 69.0125 38.9184 68.5882 38.7836C68.2065 38.6617 67.8526 38.4626 67.5478 38.198C67.2527 37.9296 67.0208 37.5965 66.8694 37.2236C66.7024 36.7948 66.6214 36.336 66.6311 35.8745C66.6284 35.255 66.8431 34.655 67.2361 34.1834C67.4802 33.8988 67.7626 33.6512 68.0749 33.4479C68.4687 33.1934 68.8921 32.9904 69.3354 32.8436C69.9056 32.6571 70.4896 32.5177 71.0817 32.4267C71.8406 32.3103 72.6061 32.2446 73.3734 32.23V31.5601C73.4045 30.943 73.212 30.3359 72.8326 29.8549C72.6565 29.6662 72.4422 29.5189 72.2047 29.4235C71.9672 29.328 71.7122 29.2866 71.4575 29.3021C71.0896 29.2921 70.7225 29.3443 70.3712 29.4567C70.1078 29.5521 69.8532 29.6713 69.6104 29.8128L69.0145 30.1641C68.8326 30.2682 68.6271 30.3215 68.4187 30.3187C68.2544 30.3181 68.0943 30.2658 67.9603 30.1688C67.8341 30.0732 67.7268 29.9539 67.644 29.8174L67.1444 28.9321ZM73.3322 33.907C72.6729 33.93 72.0159 33.9988 71.3659 34.1131C70.9252 34.1843 70.4953 34.3134 70.087 34.4972C69.8133 34.6147 69.5746 34.8037 69.3949 35.0453C69.2284 35.3124 69.1588 35.6307 69.1982 35.9448C69.2375 36.2589 69.3834 36.549 69.6104 36.7645C69.9328 36.9874 70.3171 37.0975 70.7058 37.0784C71.202 37.0906 71.6944 36.9864 72.145 36.7739C72.5912 36.5348 72.993 36.2177 73.3322 35.837V33.907ZM88.2423 22.1958V38.7976H86.5831C86.4297 38.8129 86.2761 38.7704 86.1512 38.6781C86.0263 38.5858 85.9386 38.4501 85.9047 38.2964L85.6756 37.1908C85.2355 37.7106 84.7076 38.1454 84.1172 38.4744C83.484 38.8052 82.779 38.9663 82.0683 38.9428C81.4856 38.9493 80.9095 38.8161 80.3862 38.554C79.8673 38.2841 79.4157 37.8963 79.0661 37.4204C78.6725 36.8662 78.3833 36.2419 78.2136 35.5794C78.0027 34.7634 77.9024 33.9217 77.9157 33.0778C77.9076 32.2745 78.022 31.4748 78.2549 30.7075C78.4695 30.0251 78.8068 29.3896 79.2495 28.8337C79.6592 28.3068 80.1771 27.8783 80.7666 27.5782C81.3856 27.263 82.0689 27.1024 82.7604 27.1098C83.3098 27.0945 83.8562 27.1966 84.3647 27.4096C84.8054 27.6081 85.2087 27.884 85.5564 28.2247V22.1958H88.2423ZM85.5426 30.2625C85.2774 29.9161 84.9348 29.6398 84.5434 29.4567C84.1746 29.2997 83.7787 29.22 83.3792 29.2225C82.9987 29.2176 82.6218 29.2975 82.2746 29.4567C81.94 29.6189 81.6502 29.8636 81.4312 30.1688C81.1774 30.5322 80.9952 30.9427 80.895 31.3774C80.7632 31.9418 80.7016 32.521 80.7116 33.1013C80.7016 33.6738 80.7539 34.2457 80.8675 34.8064C80.9544 35.2102 81.1095 35.5954 81.3258 35.9448C81.5042 36.2221 81.7551 36.4429 82.05 36.5819C82.3489 36.7157 82.6724 36.7828 82.9988 36.7786C83.5002 36.7944 83.9963 36.6696 84.4334 36.4179C84.8621 36.1511 85.2395 35.8066 85.5472 35.4014L85.5426 30.2625ZM93.6463 22.1958V38.7976H90.942V22.1958H93.6463ZM98.4223 33.4386C98.4535 33.9584 98.5569 34.471 98.7294 34.961C98.8685 35.3551 99.0836 35.7167 99.3619 36.0244C99.6175 36.3013 99.9308 36.5159 100.279 36.6521C100.662 36.7926 101.067 36.8624 101.475 36.8582C101.858 36.8672 102.24 36.8134 102.607 36.699C102.893 36.6085 103.171 36.4925 103.437 36.3523C103.675 36.2258 103.895 36.1134 104.06 36.0057C104.218 35.9085 104.398 35.8552 104.583 35.8511C104.681 35.8444 104.779 35.8648 104.867 35.9101C104.955 35.9554 105.029 36.024 105.082 36.1087L105.88 37.1112C105.588 37.4586 105.249 37.7601 104.871 38.0059C104.507 38.2474 104.116 38.4439 103.707 38.5915C103.307 38.7342 102.894 38.8362 102.474 38.896C102.069 38.9552 101.66 38.9849 101.25 38.985C100.507 38.9918 99.769 38.8584 99.0731 38.5915C98.4138 38.3322 97.8167 37.9313 97.3222 37.4157C96.8062 36.8655 96.4081 36.2114 96.1534 35.495C95.8547 34.6435 95.7103 33.7434 95.7272 32.8389C95.722 32.0868 95.8477 31.3397 96.0984 30.6325C96.3335 29.9661 96.6966 29.3545 97.1664 28.8337C97.6435 28.3137 98.221 27.9006 98.8623 27.6204C99.5742 27.3066 100.342 27.147 101.117 27.152C101.785 27.1452 102.448 27.2626 103.075 27.4986C103.654 27.7161 104.18 28.0616 104.615 28.5105C105.059 28.9761 105.404 29.5313 105.628 30.1407C105.881 30.8468 106.006 31.5948 105.994 32.3471C106.017 32.635 105.972 32.9243 105.861 33.1903C105.805 33.2692 105.729 33.3312 105.641 33.3699C105.553 33.4086 105.457 33.4226 105.362 33.4104L98.4223 33.4386ZM103.57 31.7709C103.573 31.4278 103.523 31.0864 103.423 30.759C103.327 30.4538 103.171 30.1717 102.965 29.9299C102.759 29.6857 102.502 29.492 102.213 29.363C101.879 29.2202 101.52 29.15 101.159 29.1569C100.824 29.1399 100.489 29.1916 100.174 29.3091C99.8592 29.4265 99.5706 29.6074 99.3252 29.8409C98.8574 30.3696 98.5682 31.038 98.5002 31.7474L103.57 31.7709ZM37.5396 10.878C36.3834 9.70006 34.8248 9.02701 33.1924 9.0008C31.5601 8.97458 29.9815 9.59724 28.7897 10.7375C28.7307 10.793 28.6835 10.8603 28.6512 10.9353C28.6189 11.0102 28.602 11.0912 28.6018 11.1731C28.5996 11.2555 28.6139 11.3375 28.6438 11.4141C28.6738 11.4906 28.7187 11.5601 28.7759 11.6182L29.5689 12.4286C29.6711 12.5326 29.8066 12.5956 29.9505 12.6059C30.0944 12.6162 30.2372 12.5732 30.3527 12.4848C31.0829 11.9234 31.9943 11.6662 32.9029 11.7651C33.8116 11.864 34.6496 12.3116 35.2478 13.0175C35.846 13.7235 36.1597 14.6351 36.1257 15.5683C36.0917 16.5016 35.7124 17.3868 35.0645 18.0453C30.0685 23.1514 23.3949 8.84026 8.26474 16.1996C8.0068 16.3221 7.77655 16.498 7.5886 16.7161C7.40066 16.9343 7.25911 17.19 7.17292 17.467C7.08674 17.744 7.0578 18.0363 7.08795 18.3254C7.11809 18.6144 7.20666 18.8939 7.34804 19.1462L9.94689 23.737C10.2167 24.214 10.6595 24.5631 11.1795 24.7087C11.6994 24.8543 12.2545 24.7845 12.7245 24.5146L12.7887 24.4631L12.7382 24.5005L13.8887 23.8447C15.1715 23.0299 16.3844 22.1053 17.5143 21.0809C17.6257 20.976 17.7703 20.9154 17.9217 20.9103C18.0731 20.9051 18.2213 20.9557 18.3393 21.0527C18.4083 21.1078 18.4646 21.1777 18.5042 21.2576C18.5438 21.3374 18.5657 21.4251 18.5683 21.5146C18.5709 21.604 18.5542 21.693 18.5194 21.7751C18.4846 21.8572 18.4325 21.9305 18.3668 21.9896C17.1818 23.0839 15.9041 24.0684 14.5487 24.9315H14.5075L13.357 25.592C12.6029 26.018 11.7156 26.1257 10.8848 25.892C10.054 25.6583 9.34563 25.1017 8.91102 24.3413L6.45426 20.0128C1.74242 23.4372 -1.11311 29.9908 0.4132 38.2776C0.437932 38.4182 0.510247 38.5455 0.617497 38.6371C0.724746 38.7288 0.860103 38.7789 0.999889 38.7789H3.79124C3.9375 38.7779 4.07844 38.7227 4.18799 38.6237C4.29753 38.5246 4.36827 38.3884 4.3871 38.2402C4.51168 37.2292 4.993 36.2995 5.74072 35.6255C6.48843 34.9516 7.45112 34.5797 8.44808 34.5797C9.44505 34.5797 10.4077 34.9516 11.1554 35.6255C11.9032 36.2995 12.3845 37.2292 12.5091 38.2402C12.5269 38.388 12.5967 38.5242 12.7055 38.6233C12.8142 38.7224 12.9546 38.7777 13.1003 38.7789H15.8229C15.9692 38.7779 16.1101 38.7227 16.2197 38.6237C16.3292 38.5246 16.4 38.3884 16.4188 38.2402C16.5434 37.2292 17.0247 36.2995 17.7724 35.6255C18.5201 34.9516 19.4828 34.5797 20.4798 34.5797C21.4767 34.5797 22.4394 34.9516 23.1871 35.6255C23.9349 36.2995 24.4162 37.2292 24.5408 38.2402C24.5591 38.3937 24.6335 38.5346 24.7491 38.6344C24.8647 38.7343 25.0129 38.7859 25.1641 38.7789H27.8546C28.012 38.7777 28.1626 38.7139 28.2747 38.6011C28.3868 38.4883 28.4515 38.3353 28.4551 38.1746C28.5147 34.2958 29.5368 29.8455 32.4565 27.611C42.531 19.891 39.8726 13.2765 37.5396 10.878ZM27.2359 22.5471L25.3108 21.5587C25.31 21.3471 25.3624 21.1388 25.4629 20.9538C25.5634 20.7688 25.7086 20.6133 25.8847 20.5021C26.0608 20.3908 26.2619 20.3276 26.4688 20.3185C26.6756 20.3094 26.8813 20.3547 27.0661 20.4501C27.2509 20.5454 27.4087 20.6876 27.5244 20.8631C27.6401 21.0386 27.7097 21.2415 27.7268 21.4523C27.7438 21.6632 27.7076 21.875 27.6217 22.0675C27.5357 22.26 27.4029 22.4268 27.2359 22.5518V22.5471Z" fill="#02303A"/>
</svg>
