<svg width="124" height="48" viewBox="0 0 124 48" fill="none" xmlns="http://www.w3.org/2000/svg">
<path d="M66.5109 25.2441V32.241C65.6648 32.8716 64.7163 33.3518 63.7071 33.6604C62.6716 33.9658 61.5967 34.1162 60.5171 34.1068C59.2102 34.1266 57.9109 33.9038 56.6851 33.4498C55.5971 33.0386 54.604 32.4106 53.766 31.604C52.9531 30.8125 52.3157 29.8589 51.8951 28.8052C51.4491 27.675 51.226 26.4691 51.238 25.2541C51.2239 24.0314 51.4382 22.8168 51.87 21.6729C52.2635 20.6187 52.8786 19.6613 53.6738 18.8653C54.469 18.0692 55.4258 17.453 56.4795 17.0584C57.6738 16.6116 58.9412 16.3922 60.2162 16.4114C60.8752 16.4077 61.5332 16.4631 62.1824 16.5769C62.7613 16.6816 63.3302 16.836 63.8827 17.0383C64.3829 17.2249 64.862 17.4636 65.3122 17.7506C65.7385 18.0275 66.1396 18.3413 66.5109 18.6885L65.588 20.1481C65.5292 20.2538 65.4487 20.3459 65.352 20.4185C65.2552 20.4911 65.1442 20.5425 65.0263 20.5694C64.8958 20.592 64.7622 20.5886 64.633 20.5593C64.5039 20.5301 64.3819 20.4755 64.2739 20.3989L63.5015 19.9424C63.2216 19.7838 62.9278 19.6512 62.6237 19.5462C62.2685 19.4277 61.9046 19.3371 61.5353 19.2753C61.0749 19.1962 60.6081 19.1592 60.141 19.165C59.3492 19.1541 58.5633 19.3007 57.8287 19.5963C57.1551 19.87 56.5516 20.2917 56.0632 20.8302C55.5603 21.3882 55.1779 22.0439 54.9396 22.7563C54.6653 23.5634 54.5313 24.4117 54.5434 25.2641C54.5282 26.1651 54.6725 27.0617 54.9697 27.9124C55.2247 28.6476 55.6314 29.3209 56.1635 29.8886C56.6825 30.4234 57.3126 30.8378 58.0093 31.1024C59.3367 31.5821 60.7763 31.6589 62.1472 31.3231C62.6545 31.1864 63.1481 31.0034 63.6219 30.7764V27.6616H61.44C61.3488 27.6692 61.257 27.6575 61.1705 27.6273C61.0841 27.597 61.005 27.5489 60.9385 27.4861C60.8814 27.4309 60.8364 27.3646 60.8062 27.2912C60.776 27.2179 60.7613 27.1391 60.7629 27.0597V25.2441H66.5109ZM71.7624 23.7744C72.0904 23.1081 72.5553 22.5185 73.1267 22.044C73.6563 21.6234 74.3164 21.4016 74.9925 21.4171C75.4753 21.3915 75.9535 21.5216 76.3568 21.7882L76.1662 24.0002C76.1415 24.117 76.0821 24.2237 75.9957 24.3061C75.9062 24.3687 75.7988 24.4004 75.6897 24.3964C75.5112 24.3904 75.3334 24.3702 75.1581 24.3362C74.9294 24.2967 74.6979 24.2766 74.4659 24.276C74.169 24.2708 73.8734 24.3183 73.5931 24.4165C73.3404 24.5117 73.1074 24.6528 72.906 24.8328C72.695 25.0216 72.514 25.2414 72.3693 25.4848C72.201 25.7637 72.055 26.0555 71.9329 26.3575V33.9163H69.0188V21.6428H70.7492C70.9737 21.6208 71.1989 21.6775 71.3862 21.8033C71.5301 21.9643 71.615 22.1695 71.627 22.3851L71.7624 23.7744ZM77.4603 23.3531C78.8447 22.0698 80.674 21.3755 82.5613 21.4171C83.2202 21.4054 83.8749 21.5247 84.4873 21.7682C85.033 21.9938 85.5226 22.3362 85.9218 22.7713C86.3217 23.2047 86.6259 23.7174 86.8146 24.276C87.0228 24.8932 87.1262 25.5408 87.1206 26.192V33.9163H85.7764C85.5552 33.9288 85.3345 33.8857 85.1343 33.7909C84.9562 33.674 84.8275 33.4953 84.7732 33.2893L84.5124 32.4015C84.2226 32.6647 83.9178 32.9108 83.5995 33.1388C83.3116 33.3455 83.0042 33.5235 82.6817 33.6705C82.3594 33.8146 82.0233 33.9255 81.6785 34.0015C81.282 34.0786 80.8787 34.1156 80.4747 34.1119C79.9889 34.1158 79.5053 34.0464 79.0402 33.9062C78.6208 33.7772 78.233 33.5619 77.9017 33.2742C77.5778 32.9897 77.3238 32.6344 77.1593 32.236C76.9762 31.7751 76.8875 31.2822 76.8985 30.7864C76.8988 30.4707 76.9513 30.1571 77.054 29.8585C77.1635 29.5365 77.3338 29.2386 77.5556 28.9808C77.8213 28.6747 78.1306 28.4094 78.4735 28.1933C78.9016 27.9158 79.3657 27.6981 79.8528 27.5463C80.476 27.3424 81.1152 27.1914 81.7638 27.0949C82.5941 26.9693 83.432 26.9006 84.2716 26.8892V26.1669C84.3246 25.5145 84.1373 24.8652 83.745 24.3412C83.5523 24.1391 83.3178 23.9815 83.0579 23.8793C82.7981 23.7771 82.519 23.7327 82.2403 23.7494C81.8359 23.7382 81.4326 23.7942 81.0465 23.9149C80.7592 24.0133 80.482 24.1393 80.2189 24.2911L79.5669 24.6672C79.369 24.7821 79.1436 24.841 78.9148 24.8378C78.7264 24.844 78.5412 24.7875 78.3882 24.6773C78.2487 24.5744 78.1311 24.4448 78.0421 24.2961L77.4603 23.3531ZM84.2315 28.6748C83.5083 28.7008 82.7877 28.7762 82.0747 28.9005C81.5921 28.9751 81.1216 29.1134 80.6754 29.3118C80.3761 29.4358 80.1161 29.6386 79.923 29.8986C79.7408 30.1846 79.6646 30.5254 79.7077 30.8617C79.7507 31.198 79.9104 31.5086 80.1587 31.7394C80.5115 31.978 80.9321 32.0959 81.3575 32.0755C81.901 32.0886 82.4402 31.9752 82.9324 31.7444C83.4201 31.4875 83.8596 31.1481 84.2315 30.7413V28.6748ZM100.548 16.1355V33.9163H98.742C98.5743 33.9315 98.4068 33.8856 98.2703 33.7869C98.1339 33.6883 98.0378 33.5436 97.9997 33.3796L97.7489 32.1959C97.2662 32.7512 96.6888 33.2165 96.0436 33.5702C95.3507 33.9243 94.5793 34.0969 93.8015 34.0717C93.163 34.0822 92.5313 33.9391 91.9596 33.6546C91.3879 33.37 90.8929 32.9523 90.5162 32.4366C90.0873 31.8532 89.7709 31.1949 89.5833 30.4955C89.351 29.6221 89.2396 28.7209 89.2523 27.8171C89.2455 26.9571 89.3707 26.1012 89.6234 25.2792C89.8512 24.5496 90.2136 23.8691 90.6918 23.2729C91.1403 22.7076 91.7069 22.2471 92.352 21.9236C93.0285 21.5888 93.774 21.4171 94.5288 21.4221C95.1316 21.4053 95.7313 21.5146 96.2893 21.7431C96.7716 21.9556 97.213 22.251 97.5934 22.6158V16.1405L100.548 16.1355ZM97.6085 24.7776C97.3173 24.4077 96.9426 24.112 96.515 23.9149C96.1113 23.7472 95.6782 23.662 95.241 23.6641C94.8246 23.6583 94.412 23.7439 94.0322 23.9149C93.6607 24.0864 93.3382 24.3486 93.0943 24.6773C92.8154 25.0639 92.616 25.5021 92.5075 25.9663C92.3633 26.5724 92.2959 27.1942 92.3068 27.8171C92.2956 28.4285 92.3528 29.0392 92.4774 29.6378C92.5671 30.0734 92.7372 30.4884 92.979 30.8617C93.1742 31.1587 93.4487 31.395 93.7714 31.5438C94.099 31.6854 94.4529 31.7556 94.8097 31.7495C95.358 31.7679 95.9008 31.636 96.3796 31.3683C96.8511 31.0819 97.2673 30.7133 97.6085 30.2798V24.7776ZM106.471 16.1405V33.9163H103.517V16.1405H106.471ZM111.703 28.1482C111.734 28.7067 111.847 29.2577 112.039 29.7833C112.189 30.2062 112.425 30.5937 112.731 30.9219C113.011 31.2168 113.354 31.4449 113.734 31.589C114.153 31.7421 114.597 31.8169 115.043 31.8096C115.462 31.8178 115.88 31.762 116.282 31.6441C116.595 31.5464 116.898 31.4222 117.19 31.273C117.451 31.1375 117.691 31.0121 117.872 30.9018C118.043 30.7986 118.239 30.7416 118.439 30.7363C118.547 30.7287 118.655 30.7504 118.752 30.7989C118.849 30.8474 118.932 30.921 118.991 31.0121L119.858 32.1056C119.544 32.4814 119.174 32.8063 118.76 33.0686C118.361 33.3246 117.933 33.5334 117.486 33.6905C117.047 33.8455 116.593 33.9564 116.132 34.0216C115.691 34.0847 115.247 34.1165 114.802 34.1169C113.989 34.1255 113.18 33.9809 112.42 33.6905C111.698 33.416 111.044 32.9882 110.504 32.4366C109.94 31.8466 109.505 31.1465 109.225 30.3802C108.898 29.4684 108.74 28.5047 108.758 27.5362C108.753 26.7309 108.89 25.931 109.165 25.1738C109.422 24.4603 109.819 23.8055 110.333 23.2478C110.854 22.6916 111.484 22.2493 112.184 21.9487C112.965 21.6131 113.807 21.4423 114.657 21.4471C115.388 21.4383 116.114 21.5641 116.799 21.8183C117.433 22.0524 118.008 22.4221 118.484 22.9017C118.973 23.3987 119.35 23.9936 119.592 24.6472C119.871 25.4031 120.007 26.2041 119.994 27.0096C120.019 27.3179 119.969 27.6276 119.848 27.9124C119.785 27.996 119.7 28.0614 119.603 28.1019C119.506 28.1424 119.401 28.1566 119.296 28.1431L111.703 28.1482ZM117.335 26.3676C117.335 26.0002 117.279 25.6349 117.17 25.2842C117.063 24.9579 116.893 24.6561 116.668 24.3964C116.446 24.1337 116.166 23.9259 115.851 23.7895C115.486 23.6366 115.093 23.5614 114.697 23.5688C114.331 23.5496 113.965 23.604 113.62 23.729C113.276 23.8539 112.959 24.0467 112.691 24.2961C112.161 24.8661 111.832 25.5934 111.753 26.3676H117.335ZM45.0737 4.01749C43.8112 2.75403 42.107 2.03092 40.3212 2.00097C38.5353 1.97102 36.8078 2.63658 35.5037 3.85698C35.4391 3.91639 35.3875 3.98848 35.3522 4.06875C35.3168 4.14901 35.2983 4.23573 35.298 4.32345C35.2962 4.4116 35.3121 4.49921 35.3449 4.58107C35.3776 4.66293 35.4265 4.73737 35.4886 4.79994L36.3564 5.66766C36.4682 5.77907 36.6165 5.84647 36.774 5.85752C36.9315 5.86857 37.0877 5.82254 37.214 5.72785C37.8944 5.2144 38.7241 4.93782 39.5765 4.94038C40.3569 4.94037 41.1198 5.17169 41.7688 5.60512C42.4178 6.03855 42.9238 6.65463 43.2228 7.37552C43.5217 8.0964 43.6003 8.88973 43.4486 9.65527C43.2968 10.4208 42.9216 11.1242 42.3702 11.6765C36.9181 17.1587 29.6002 1.84066 13.0432 9.72037C12.761 9.85149 12.509 10.0398 12.3033 10.2734C12.0977 10.507 11.9428 10.7808 11.8485 11.0774C11.7541 11.374 11.7225 11.687 11.7555 11.9965C11.7885 12.3059 11.8854 12.6052 12.0401 12.8753L14.879 17.7857C15.1753 18.2966 15.6604 18.6708 16.2299 18.8274C16.7994 18.9841 17.4076 18.9108 17.9235 18.6233L17.9938 18.5832L17.9386 18.6233L19.1975 17.9161C20.6019 17.0463 21.9292 16.0579 23.165 14.9618C23.2864 14.8485 23.4448 14.7831 23.6108 14.7776C23.7767 14.772 23.9391 14.8268 24.0678 14.9317C24.1423 14.9924 24.2023 15.0689 24.2435 15.1556C24.2847 15.2424 24.3061 15.3372 24.3061 15.4333C24.3061 15.5293 24.2847 15.6242 24.2435 15.7109C24.2023 15.7977 24.1423 15.8742 24.0678 15.9349C22.7783 17.0962 21.3904 18.1434 19.9198 19.0647L19.8747 19.0898L18.6157 19.792C18.0851 20.0927 17.4852 20.25 16.8753 20.2484C16.2432 20.25 15.6218 20.0853 15.0733 19.7711C14.5249 19.4568 14.0687 19.0039 13.7505 18.4578L11.062 13.8232C5.90585 17.4647 2.77603 24.4817 4.4563 33.3595C4.48547 33.5096 4.56604 33.6447 4.68414 33.7418C4.80224 33.8388 4.95048 33.8916 5.10333 33.8912H8.15791C8.32121 33.8974 8.48091 33.8421 8.60539 33.7362C8.72986 33.6303 8.81003 33.4816 8.83002 33.3194C8.97077 32.2397 9.49958 31.248 10.3178 30.5296C11.136 29.8111 12.1876 29.4149 13.2765 29.4149C14.3653 29.4149 15.417 29.8111 16.2352 30.5296C17.0534 31.248 17.5822 32.2397 17.7229 33.3194C17.7423 33.4755 17.8174 33.6194 17.9344 33.7244C18.0515 33.8295 18.2026 33.8887 18.3599 33.8912H21.3393C21.4988 33.8913 21.653 33.8333 21.773 33.7281C21.893 33.6229 21.9706 33.4776 21.9913 33.3194C22.1276 32.2369 22.6543 31.2415 23.4726 30.5199C24.2908 29.7982 25.3443 29.4001 26.4352 29.4001C27.5262 29.4001 28.5797 29.7982 29.3979 30.5199C30.2161 31.2415 30.7428 32.2369 30.8792 33.3194C30.8987 33.4772 30.9753 33.6224 31.0945 33.7277C31.2136 33.833 31.3672 33.8912 31.5262 33.8912H34.4704C34.6416 33.8912 34.806 33.8239 34.928 33.7038C35.05 33.5836 35.1198 33.4203 35.1225 33.2492C35.1927 29.0961 36.3112 24.3262 39.5062 21.9387C50.5358 13.6728 47.6317 6.58554 45.0737 4.01749ZM33.8033 16.5167L31.6967 15.4584C31.6959 15.2318 31.7532 15.0088 31.8632 14.8108C31.9731 14.6127 32.1321 14.4461 32.3248 14.327C32.5175 14.2079 32.7376 14.1403 32.9639 14.1305C33.1903 14.1208 33.4153 14.1693 33.6176 14.2714C33.8198 14.3735 33.9925 14.5257 34.1191 14.7136C34.2456 14.9015 34.3219 15.1187 34.3405 15.3445C34.3592 15.5703 34.3196 15.7971 34.2255 16.0032C34.1315 16.2093 33.9861 16.3878 33.8033 16.5217V16.5167Z" fill="#02303A"/>
</svg>
