<svg width="52" height="52" viewBox="0 0 52 52" fill="none" xmlns="http://www.w3.org/2000/svg">
<path d="M17.9888 0H47.9375C50.18 0 52 1.82 52 4.0625V34.0112C52 36.1644 51.1428 38.2322 49.6194 39.7556L39.7556 49.6194C38.2322 51.1428 36.1644 52 34.0112 52H4.0625C1.82 52 0 50.18 0 47.9375V17.9888C0 15.8356 0.857188 13.7678 2.38063 12.2444L12.2444 2.38063C13.7678 0.857188 15.8356 0 17.9888 0Z" fill="url(#paint0_linear_10660_13215)"/>
<path d="M42.25 9.75H4.875V47.125H42.25V9.75Z" fill="black"/>
<path d="M9.685 17.4606C9.73781 17.3631 9.76625 17.2494 9.76625 17.1194V13H11.0947V17.2169C11.0947 17.5663 11.0216 17.8791 10.8712 18.1472C10.7209 18.4153 10.5056 18.6225 10.2334 18.7728C9.95719 18.9231 9.64438 18.9962 9.29094 18.9962H8.125V17.7734H9.11625C9.24625 17.7734 9.36 17.745 9.4575 17.6922C9.555 17.6394 9.63219 17.5622 9.685 17.4606Z" fill="white"/>
<path d="M8.125 41.4375H21.125V43.875H8.125V41.4375Z" fill="white"/>
<path d="M13.4834 16.5506H16.3069V15.4294H13.4834V14.1578H16.5994V13H12.1916V18.9962H16.6847V17.8425H13.4834V16.5506Z" fill="white"/>
<path d="M18.9475 14.1903H17.1681V13H22.0431V14.1903H20.2719V18.9962H18.9475V14.1903Z" fill="white"/>
<path fill-rule="evenodd" clip-rule="evenodd" d="M12.1347 23.8022C12.0331 23.7494 11.9234 23.7047 11.8097 23.6722C11.895 23.6478 11.9803 23.6153 12.0575 23.5747C12.2769 23.4609 12.4475 23.3025 12.5734 23.0953C12.6994 22.8881 12.7603 22.6525 12.7603 22.3884C12.7603 22.0837 12.6791 21.8116 12.5125 21.5719C12.3459 21.3322 12.1144 21.1453 11.8137 21.0113C11.5131 20.8772 11.1719 20.8081 10.79 20.8081H8.125V26.8044H10.8428C11.245 26.8044 11.6066 26.7353 11.9194 26.5931C12.2362 26.4509 12.48 26.2559 12.6547 26.0041C12.8294 25.7522 12.9147 25.4678 12.9147 25.1428C12.9147 24.8462 12.8456 24.5822 12.7075 24.3466C12.5694 24.1109 12.3784 23.9322 12.1347 23.8022ZM9.41281 21.8156H10.5909C10.7534 21.8156 10.8997 21.8441 11.0216 21.905C11.1475 21.9619 11.245 22.0472 11.3141 22.1569C11.3831 22.2666 11.4197 22.3925 11.4197 22.5387C11.4197 22.685 11.3831 22.8231 11.3141 22.9369C11.245 23.0506 11.1475 23.1359 11.0216 23.1969C10.8956 23.2578 10.7534 23.2903 10.5909 23.2903H9.41281V21.8156ZM11.4441 25.4475C11.3669 25.5612 11.2612 25.6506 11.1231 25.7116C10.985 25.7725 10.8266 25.805 10.6438 25.805H9.41281V24.2653H10.6438C10.8225 24.2653 10.9769 24.2978 11.1191 24.3628C11.2572 24.4278 11.3669 24.5212 11.4441 24.6391C11.5213 24.7569 11.5578 24.895 11.5578 25.0494C11.5578 25.2038 11.5213 25.3337 11.4441 25.4475Z" fill="white"/>
<path fill-rule="evenodd" clip-rule="evenodd" d="M18.2487 23.7087C18.0659 23.9972 17.81 24.2247 17.4769 24.3831L17.4728 24.3791C17.4078 24.4075 17.3428 24.4359 17.2737 24.4603L18.6428 26.8044H17.1275L15.9128 24.6187H15.0475V26.8044H13.7191V20.8081H16.3434C16.7781 20.8081 17.16 20.8853 17.4891 21.0437C17.8181 21.2022 18.0741 21.4216 18.2528 21.71C18.4316 21.9984 18.5209 22.3194 18.5209 22.7013C18.5209 23.0831 18.4316 23.4203 18.2487 23.7087ZM16.2459 21.8888H15.0516V23.5503H16.2459C16.4328 23.5503 16.5912 23.5178 16.7294 23.4488C16.8675 23.3838 16.9731 23.2863 17.0462 23.1603C17.1194 23.0344 17.1559 22.8841 17.1559 22.7175C17.1559 22.5509 17.1194 22.4047 17.0462 22.2788C16.9731 22.1528 16.8675 22.0594 16.7294 21.9903C16.5912 21.9213 16.4328 21.8888 16.2459 21.8888Z" fill="white"/>
<path fill-rule="evenodd" clip-rule="evenodd" d="M20.9137 20.8122L18.7728 26.8084H20.1216L20.5441 25.4841H22.7662L23.2212 26.8084H24.5456L22.3519 20.8122H20.9137ZM20.8447 24.4806L21.5353 22.3641L21.6166 21.9781L21.6978 22.3641L22.4331 24.4806H20.8447Z" fill="white"/>
<path d="M25.1469 20.8122H26.5159V26.8084H25.1469V20.8122Z" fill="white"/>
<path d="M31.5128 24.8666L28.9331 20.8122H27.6412V26.8084H28.8519V22.75L31.4194 26.8084H32.7275V20.8122H31.5128V24.8666Z" fill="white"/>
<path d="M37.4278 23.5706C37.6594 23.7372 37.8422 23.9444 37.9722 24.1963H37.9681C38.0981 24.4481 38.1631 24.7203 38.1631 25.0169C38.1631 25.3784 38.0656 25.7034 37.8747 25.9919C37.6837 26.2803 37.4156 26.5037 37.0703 26.6663C36.725 26.8288 36.3269 26.91 35.8841 26.91C35.4412 26.91 35.0472 26.8288 34.7059 26.6703C34.3606 26.5119 34.0925 26.2884 33.8975 26.0041C33.7025 25.7156 33.6009 25.3866 33.5969 25.0128H34.9253C34.9253 25.1672 34.97 25.3053 35.0512 25.4231C35.1325 25.5409 35.2462 25.6303 35.3966 25.6953C35.5428 25.7603 35.7175 25.7928 35.9003 25.7928C36.0831 25.7928 36.2456 25.7644 36.3797 25.7075C36.5138 25.6506 36.6194 25.5694 36.6966 25.4637C36.7738 25.3581 36.8103 25.2363 36.8103 25.1022C36.8103 24.9397 36.7575 24.7975 36.6559 24.6878C36.5544 24.5781 36.4162 24.5009 36.2375 24.4563L35.1569 24.2328C34.8766 24.1719 34.6287 24.0663 34.4134 23.9119C34.2022 23.7575 34.0356 23.5625 33.9178 23.3309C33.8 23.0994 33.7431 22.8394 33.7431 22.5509C33.7431 22.1934 33.8325 21.8766 34.0153 21.5962C34.1941 21.3159 34.45 21.1006 34.775 20.9422C35.1 20.7838 35.4656 20.7066 35.8881 20.7066C36.3106 20.7066 36.6844 20.7838 37.0094 20.9341C37.3384 21.0844 37.5944 21.2956 37.7772 21.5638C37.96 21.8319 38.0575 22.1406 38.0656 22.49H36.7372C36.7372 22.36 36.7006 22.2462 36.6316 22.1447C36.5625 22.0431 36.465 21.9659 36.3391 21.9091C36.2131 21.8522 36.0628 21.8238 35.9003 21.8238C35.7378 21.8238 35.5956 21.8522 35.4697 21.905C35.3478 21.9578 35.2503 22.0309 35.1812 22.1284C35.1122 22.2259 35.0797 22.3356 35.0797 22.4656C35.0797 22.6078 35.1284 22.7256 35.2219 22.8231C35.3153 22.9206 35.4453 22.9856 35.6037 23.0222L36.6234 23.2334C36.9241 23.2903 37.1922 23.4041 37.4278 23.5706Z" fill="white"/>
<defs>
<linearGradient id="paint0_linear_10660_13215" x1="0.8125" y1="51.1875" x2="50.9844" y2="1.01563" gradientUnits="userSpaceOnUse">
<stop stop-color="#FF9419"/>
<stop offset="0.43" stop-color="#FF021D"/>
<stop offset="0.99" stop-color="#E600FF"/>
</linearGradient>
</defs>
</svg>
