<svg width="52" height="52" viewBox="0 0 52 52" fill="none" xmlns="http://www.w3.org/2000/svg">
<path d="M52 6.10352e-05H0V52.0001H52V6.10352e-05Z" fill="black"/>
<path d="M25.3501 42.2501H5.8501V45.5H25.3501V42.2501Z" fill="white"/>
<path d="M4.84131 13.4038L6.29097 12.0354C6.42974 12.2522 6.61748 12.4333 6.83906 12.5642C7.06065 12.6952 7.30989 12.7722 7.5667 12.7892C8.12337 12.7892 8.48295 12.4065 8.48295 11.6527L8.483 6.51526H10.7213L10.7213 11.6643C10.7529 12.0797 10.6982 12.4972 10.5604 12.8904C10.4227 13.2836 10.205 13.644 9.921 13.9489C9.62344 14.2276 9.27317 14.444 8.89077 14.5854C8.50838 14.7268 8.10158 14.7904 7.69427 14.7723C7.14236 14.8 6.59226 14.6894 6.094 14.4504C5.59574 14.2114 5.16513 13.8516 4.84131 13.4038Z" fill="white"/>
<path d="M11.7236 6.51517L18.253 6.51521V8.41711H13.9504V9.65799H17.8471V11.4323H13.9504V12.7196H18.311V14.633H11.7236L11.7236 6.51517Z" fill="white"/>
<path d="M21.4342 8.48667H19.0103V6.51517L26.1195 6.51521V8.4867H23.684L23.684 14.633H21.4341L21.4342 8.48667Z" fill="white"/>
<path d="M5.74665 17.8354H9.57409C9.97246 17.8038 10.3731 17.851 10.7532 17.9744C11.1333 18.0978 11.4854 18.2949 11.7892 18.5544C11.9601 18.7288 12.0944 18.9356 12.184 19.1626C12.2737 19.3897 12.3169 19.6324 12.3111 19.8765V19.8997C12.319 20.2946 12.2022 20.682 11.9774 21.0068C11.7525 21.3315 11.431 21.5772 11.0585 21.7088C12.0444 22.0335 12.6706 22.5902 12.6706 23.6919V23.7151C12.6706 25.1067 11.534 25.9532 9.59727 25.9532H5.74658L5.74665 17.8354ZM10.096 20.3404C10.096 19.8881 9.73649 19.6445 9.07541 19.6445H7.93853V21.0709H9.01741C9.70166 21.0709 10.096 20.839 10.096 20.3635L10.096 20.3404ZM9.31897 22.6481H7.9385V24.1441H9.34213C10.038 24.1441 10.4207 23.8774 10.4207 23.4019V23.3788C10.4207 22.9381 10.0728 22.6481 9.31897 22.6481Z" fill="white"/>
<path d="M13.3917 17.8356H16.9874C17.4638 17.7975 17.9431 17.8548 18.3971 18.0041C18.8511 18.1535 19.2708 18.3919 19.6316 18.7054C19.8748 18.9543 20.0641 19.2505 20.1878 19.5757C20.3115 19.901 20.3669 20.2482 20.3506 20.5957V20.6189C20.3707 21.159 20.2202 21.6916 19.9204 22.1413C19.6206 22.5909 19.1868 22.9347 18.6806 23.1238L20.6173 25.9535H18.0311L16.3958 23.495H15.6415V25.9535H13.3916L13.3917 17.8356ZM16.8945 21.7322C17.6483 21.7322 18.1007 21.3611 18.1007 20.7697V20.7465C18.1007 20.097 17.6252 19.7723 16.8829 19.7723H15.6415V21.7322L16.8945 21.7322Z" fill="white"/>
<path d="M23.4787 17.7776H25.6474L29.1035 25.9535H26.6912L26.1113 24.4922H22.9684L22.3885 25.9535H20.0342L23.4787 17.7776ZM25.4502 22.7411L24.5457 20.4449L23.6294 22.7411L25.4502 22.7411Z" fill="white"/>
<path d="M29.4332 17.8123H31.6831L31.683 25.9302H29.4331L29.4332 17.8123Z" fill="white"/>
<path d="M32.5557 17.8123H34.6549L37.5749 22.1032L37.5749 17.8123H39.8017L39.8016 25.9302H37.8416L34.7824 21.477L34.7824 25.9302H32.5557L32.5557 17.8123Z" fill="white"/>
<path d="M40.1846 24.7239L41.4371 23.2279C42.1772 23.8446 43.1065 24.1885 44.0697 24.2021C44.6844 24.2021 45.0091 23.9934 45.0091 23.6454V23.6223C45.0091 23.2743 44.7424 23.1004 43.6291 22.8337C41.901 22.4394 40.5673 21.9523 40.5673 20.2939V20.2707C40.5673 18.7631 41.7619 17.673 43.7103 17.673C44.9161 17.6269 46.0993 18.0089 47.0503 18.7516L45.9254 20.3403C45.2684 19.8454 44.4744 19.5659 43.6523 19.5402C43.1072 19.5402 42.8404 19.7605 42.8404 20.062V20.0852C42.8404 20.4563 43.1188 20.6187 44.2553 20.8738C46.1109 21.2797 47.2707 21.8828 47.2707 23.4019V23.4252C47.2707 25.0835 45.9601 26.0692 43.9885 26.0692C42.5988 26.1003 41.2458 25.6218 40.1846 24.7239Z" fill="white"/>
</svg>
