<svg width="137" height="32" viewBox="0 0 137 32" fill="none" xmlns="http://www.w3.org/2000/svg">
<path fill-rule="evenodd" clip-rule="evenodd" d="M14.5503 0.0637727C13.2656 0.188311 11.6982 0.554497 10.4353 1.02468C10.1749 1.12169 9.89653 1.22482 9.81613 1.25453C8.85041 1.61023 7.37212 2.44224 6.61178 3.0575C6.53182 3.12261 6.18748 3.39572 5.84707 3.66446C5.05134 4.29239 3.73953 5.61469 3.41661 6.11415C3.27896 6.32739 3.02945 6.68222 2.86296 6.90246C2.44871 7.44999 1.84131 8.4629 1.84131 8.60579C1.84131 8.71329 2.64316 8.72334 11.2 8.72334H20.5588V9.738V10.7527L20.1764 11.305C19.9658 11.6091 19.5546 12.1768 19.2618 12.5665C18.3699 13.7551 16.9965 15.597 16.8877 15.7512C16.8309 15.8316 16.2974 16.5526 15.7018 17.3536C15.1057 18.1546 14.539 18.925 14.4415 19.0653C14.3441 19.2051 14.2383 19.3309 14.2069 19.3445C14.1754 19.3576 14.1496 19.4148 14.1496 19.4716C14.1496 19.5604 15.3968 19.5748 22.883 19.5748H31.6165L31.6903 19.2291C31.9302 18.1057 31.9564 17.7902 31.9564 16.0064C31.9564 11.0358 30.1604 7.16027 26.2639 3.72345C23.3344 1.13917 18.6265 -0.331691 14.5503 0.0637727Z" fill="#FCB434"/>
<path fill-rule="evenodd" clip-rule="evenodd" d="M51.7006 6.69449C51.1845 6.92915 50.7323 7.12098 50.696 7.12098C50.6597 7.12098 50.2874 7.28266 49.8688 7.48018L49.1076 7.83937V16.4745V25.11H50.8918H52.6764L52.6786 21.7051C52.6807 18.755 52.6947 18.3185 52.7839 18.4365C52.8407 18.5112 52.9796 18.6751 53.0928 18.8005C53.4695 19.2174 55.9139 22.0586 56.0983 22.2932C56.7228 23.0907 58.2491 24.9431 58.344 25.0191C58.4812 25.1288 62.7994 25.1528 62.7994 25.0436C62.7994 24.9094 61.4714 23.318 60.2413 21.9782C59.8917 21.5976 59.4124 21.0409 59.1764 20.7402C58.94 20.44 58.486 19.9152 58.1674 19.5748C56.9356 18.2591 56.1634 17.379 56.1857 17.317C56.198 17.2811 56.8198 16.6191 57.567 15.8461C58.3142 15.0731 59.016 14.3259 59.127 14.1856C59.2376 14.0453 59.6789 13.5703 60.1072 13.1294C61.2066 11.999 62.2934 10.7549 62.2475 10.6802C62.2261 10.6452 61.2682 10.6177 60.1185 10.619L58.0293 10.6207L57.2397 11.5476C56.8054 12.0571 55.6094 13.4126 54.5816 14.5601L52.7126 16.6458L52.6764 11.4567L52.6397 6.26801L51.7006 6.69449ZM83.5925 6.49523C82.4183 7.04408 82.2737 7.10919 82.1129 7.15682C82.0202 7.18435 81.6352 7.3504 81.2573 7.52562L80.5699 7.84462V9.23071V10.6168H79.3682H78.1665V12.0007V13.3846H79.3682H80.5699V19.2471V25.11H82.427H84.2842V19.2471V13.3846H89.9334H95.5827L95.4393 13.5847C95.3603 13.6949 94.8468 14.3748 94.2984 15.0958C93.7495 15.8168 93.1076 16.6689 92.8717 16.9897C91.7425 18.5217 91.1561 19.3096 90.165 20.6249C89.5742 21.4092 89.0909 22.0708 89.0909 22.0953C89.0909 22.1193 89.0092 22.2369 88.9087 22.3557C88.73 22.5685 88.7269 22.5939 88.7269 23.8415V25.1104L98.2858 25.0921L107.845 25.0737L107.863 17.9182L107.882 10.7627H106.024H104.167V16.5527V22.3426H98.5816H92.9966L93.1841 22.1421C93.2872 22.0319 93.8667 21.2698 94.471 20.4488C95.0758 19.6277 96.2753 18.0056 97.1374 16.8437C97.9991 15.6822 98.967 14.3717 99.2887 13.9313L99.8729 13.1312L99.8532 11.8923L99.8331 10.6535L92.0589 10.6347L84.2842 10.6164V8.43191C84.2842 6.72989 84.2641 6.24834 84.1933 6.25184C84.1431 6.25446 83.8726 6.36414 83.5925 6.49523ZM113.379 6.67439C112.859 6.90774 112.064 7.25907 111.614 7.45527L110.794 7.81141V16.4609V25.11H112.615H114.436V15.6787C114.436 10.4914 114.411 6.24791 114.381 6.24878C114.351 6.24922 113.9 6.44105 113.379 6.67439ZM120.007 6.6792C119.486 6.91386 118.693 7.26475 118.243 7.4592L117.426 7.81315L117.424 16.4627L117.421 25.1126L119.261 25.093L121.099 25.0737L121.118 15.6604C121.133 8.15225 121.118 6.2479 121.045 6.25009C120.995 6.25184 120.528 6.44498 120.007 6.6792ZM128.947 10.3306C127.699 10.4516 126.362 10.8056 125.479 11.25L124.979 11.5017L125.021 11.8421C125.044 12.0295 125.1 12.6745 125.145 13.2754C125.19 13.8762 125.239 14.4067 125.253 14.4548C125.27 14.5081 125.471 14.4128 125.775 14.2074C128.689 12.2389 132.082 12.8371 132.487 15.3908C132.571 15.923 132.729 15.8413 131.287 16.0095C128.92 16.2853 128.61 16.3495 127.511 16.786C124.893 17.8273 123.662 19.8942 124.226 22.3015C124.716 24.392 126.087 25.3661 128.528 25.3586C130.477 25.353 131.576 24.9007 132.467 23.7379C132.743 23.3791 132.706 23.3302 132.867 24.2723C133.027 25.2013 132.816 25.11 134.798 25.11H136.519L136.467 24.8369C136.438 24.6866 136.383 24.3833 136.343 24.1631C136.305 23.9428 136.248 21.747 136.218 19.2838C136.154 13.8688 136.155 13.8736 135.062 12.3262C133.984 10.7981 131.728 10.0618 128.947 10.3306ZM0.60494 11.5366C-0.278627 14.5138 -0.188173 18.3251 0.8361 21.2476C1.22457 22.3557 2.38212 24.621 2.74612 24.985C2.79856 25.0375 2.99739 25.3079 3.18791 25.5867C4.80122 27.9442 7.90419 30.213 10.7992 31.1508C18.7329 33.7219 26.8528 30.3083 30.4351 22.8967C30.6501 22.4519 30.8262 22.0302 30.8267 21.9603C30.8275 21.8392 30.2953 21.8327 20.6678 21.8327H10.5081V20.7429V19.6535L10.8341 19.2532C11.4122 18.5431 13.057 16.3145 13.057 16.2411C13.057 16.2018 13.1116 16.1249 13.1781 16.0698C13.324 15.9492 15.4573 13.1272 16.6254 11.5091C16.7482 11.3391 16.8675 11.1503 16.8906 11.0905C16.9278 10.9935 16.0066 10.9812 8.85112 10.9812H0.770116L0.60494 11.5366ZM68.2131 11.0892C64.9816 11.6752 63.0419 14.148 62.8955 17.8662C62.6836 23.2633 65.5689 26.4096 70.4465 26.0989C73.9882 25.8734 76.1394 23.8751 76.7363 20.2561C77.7532 14.0921 73.9864 10.0413 68.2131 11.0892ZM70.8485 13.9339C71.3466 14.0707 71.8688 14.4316 72.2145 14.8782C72.8481 15.6975 73.2156 17.3205 73.1146 18.8577C72.9377 21.5587 72.0611 22.9408 70.3521 23.214C68.3429 23.5351 66.9751 22.1005 66.6535 19.3354C66.217 15.5787 68.0837 13.1749 70.8485 13.9339ZM132.57 19.5669V21.0885L132.253 21.515C130.812 23.4582 127.894 23.1353 127.775 21.0195C127.679 19.3087 129.369 18.2342 132.443 18.0533C132.56 18.0463 132.57 18.1638 132.57 19.5669Z" fill="#040404"/>
</svg>
