<svg width="64" height="48" viewBox="0 0 64 48" fill="none" xmlns="http://www.w3.org/2000/svg">
<path fill-rule="evenodd" clip-rule="evenodd" d="M3.19968 0C1.43244 0 0 1.43273 0 3.19958V44.8C0 46.5673 1.43244 48 3.19968 48H60.1457C61.9129 48 63.3457 46.5673 63.3457 44.8V3.19958C63.3457 1.43273 61.9129 0 60.1457 0H3.19968Z" fill="#D52B1E"/>
<path fill-rule="evenodd" clip-rule="evenodd" d="M26.7856 21.6585C27.6475 15.285 30.4889 3.78961 35.9079 3.78961C42.2342 3.78961 49.6674 25.0405 49.6656 42.634H43.8317C43.8317 24.181 39.3118 7.55435 36.0596 7.55363C32.6671 7.55328 29.6939 18.8633 29.6939 40.4114H23.8678C23.8678 18.8633 20.9127 7.55363 17.5021 7.55363C14.2558 7.55363 9.73923 24.1841 9.73923 42.634H3.90527C3.91075 25.0253 11.3251 3.78745 17.6629 3.78961C23.0743 3.7914 25.9167 15.2835 26.7856 21.6585Z" fill="#FDC82F"/>
<path fill-rule="evenodd" clip-rule="evenodd" d="M22.9727 35.5636H49.8454V28.7727H22.9727V35.5636Z" fill="#D52B1E"/>
<path fill-rule="evenodd" clip-rule="evenodd" d="M47.1348 34.8821H48.8257V29.3191H47.1348V34.8821Z" fill="white"/>
<path fill-rule="evenodd" clip-rule="evenodd" d="M55.0441 29.3191H56.1956L55.8046 30.8351H54.9673L55.0441 29.3191Z" fill="white"/>
<path fill-rule="evenodd" clip-rule="evenodd" d="M58.1797 30.1432C59.3046 30.1432 60.3614 30.427 60.3665 31.5313H58.7607C58.7607 31.1508 58.5387 30.9779 58.1638 30.9779C57.9415 30.9779 57.6409 31.0703 57.6409 31.4189C57.6412 31.9974 58.556 31.8817 59.3327 32.1123C60.0305 32.3193 60.5142 32.7356 60.5142 33.4079C60.5142 34.4378 59.7061 35.0076 58.1797 35.0137C56.579 35.02 55.9767 34.443 55.9717 33.4079H57.5987C57.5987 33.7986 57.8416 34.0312 58.1848 34.0312C58.5956 34.0312 58.782 33.8752 58.782 33.5848C58.782 32.98 57.6603 32.9957 56.9989 32.7793C56.5491 32.6319 56.1404 32.2985 56.1404 31.5905C56.1404 30.9991 56.5841 30.1432 58.1797 30.1432Z" fill="white"/>
<path fill-rule="evenodd" clip-rule="evenodd" d="M23.5491 33.1963C23.2685 34.3022 22.3511 35.0191 21.2068 35.0194C19.8254 35.0194 18.7745 33.974 18.7759 32.4612C18.7769 30.9503 19.711 29.9048 21.2068 29.9034C22.4471 29.9023 23.301 30.6228 23.5574 31.7303L21.975 31.7304C21.8537 31.3976 21.6205 31.138 21.2068 31.1377C20.5086 31.1376 20.3245 31.8776 20.3248 32.4612C20.3249 33.0452 20.5086 33.7848 21.2068 33.7848C21.6188 33.7848 21.8515 33.5274 21.9733 33.1964L23.5491 33.1963Z" fill="white"/>
<path fill-rule="evenodd" clip-rule="evenodd" d="M11.8831 29.3196H13.9034L14.7828 32.606L15.6622 29.3196H17.6839L18.5672 35.0194H16.9003L16.4601 31.6883L15.5491 35.0194H14.0164L13.1056 31.6883L12.6651 35.0194H10.9971L11.8831 29.3196Z" fill="white"/>
<path fill-rule="evenodd" clip-rule="evenodd" d="M37.7962 32.1569C37.7962 32.3514 37.7962 34.8831 37.7962 34.8831H36.1245V30.0229H37.7962V30.4026C38.2194 30.0729 38.6018 29.9034 39.4693 29.9034C40.4115 29.9034 41.1706 30.533 41.171 31.194V34.8831H39.4874V32.2079C39.4881 31.7635 39.0902 31.4012 38.6569 31.4012C38.0997 31.4012 37.8225 31.8943 37.7962 32.1569Z" fill="white"/>
<path fill-rule="evenodd" clip-rule="evenodd" d="M52.7105 30.505V29.3191H54.4013V34.8822H52.7105V34.6122C52.4884 34.8127 52.1972 35.0176 51.4684 35.0176C50.6484 35.0176 49.3458 34.562 49.3447 32.6048C49.3437 30.6504 50.647 30.1431 51.574 30.1431C52.2473 30.1431 52.5652 30.3756 52.7105 30.505ZM50.9559 32.6048C50.9559 33.3655 51.3098 33.8515 51.8912 33.8515C52.2397 33.8515 52.5313 33.6996 52.7112 33.3827V31.9234C52.6211 31.6012 52.3082 31.3637 51.8912 31.3636C51.3087 31.3632 50.9559 31.8442 50.9559 32.6048Z" fill="white"/>
<path fill-rule="evenodd" clip-rule="evenodd" d="M30.5122 32.4619C30.5136 30.951 31.4934 29.9052 33.0625 29.9038C34.6322 29.9024 35.6119 30.951 35.6129 32.4619C35.6143 33.9745 34.6318 35.0197 33.0625 35.0197C31.495 35.0199 30.5109 33.9745 30.5122 32.4619ZM34.0313 32.4619C34.0317 31.878 33.8295 31.1383 33.0625 31.1383C32.2957 31.138 32.0935 31.878 32.0936 32.4619C32.094 33.0457 32.2957 33.7854 33.0625 33.7854C33.8295 33.7854 34.0313 33.0457 34.0313 32.4619Z" fill="white"/>
<path fill-rule="evenodd" clip-rule="evenodd" d="M24.1382 29.3196H27.0432C28.8607 29.3196 30.0994 30.4485 30.0994 32.1695C30.0994 33.8902 28.861 35.0194 27.0432 35.0194H24.1382V29.3196ZM26.0599 33.672H26.9382C27.5073 33.672 28.2 33.325 28.2 32.1695C28.2 31.0153 27.5073 30.667 26.9382 30.667H26.0599V33.672Z" fill="white"/>
<path fill-rule="evenodd" clip-rule="evenodd" d="M44.1868 29.904C45.3867 29.903 46.3757 30.3443 46.4529 31.3131V34.8824H44.7606V34.4012C44.3497 34.7533 43.9403 35.0175 43.2007 35.0175C42.3392 35.0175 41.645 34.3364 41.645 33.5381C41.645 32.7397 42.1366 31.8527 44.105 31.8531C44.6125 31.8532 44.7603 31.6536 44.7606 31.4158C44.7613 31.1238 44.4247 30.9609 44.1428 30.9609C43.861 30.9609 43.5413 31.0783 43.5413 31.3835H41.9561C41.9561 30.6673 42.4376 29.9057 44.1868 29.904ZM44.0931 32.6428C43.7027 32.6428 43.3416 32.8512 43.3416 33.2503C43.3416 33.5088 43.4944 33.732 43.8934 33.7319C44.2751 33.7319 44.6824 33.5054 44.7606 33.036V32.5914C44.6316 32.6619 44.3396 32.6428 44.0931 32.6428Z" fill="white"/>
<path fill-rule="evenodd" clip-rule="evenodd" d="M52.2525 38.8409H53.2912C53.8056 38.8409 54.148 39.1172 54.148 39.4821C54.148 39.8191 53.8885 40.0403 53.5677 40.0679V40.079C54.0597 40.2448 54.1314 40.5875 54.1372 41.0518H53.6729C53.6564 40.4935 53.5345 40.2504 53.0429 40.2504H52.6612V41.0518H52.2525V38.8409ZM52.6612 39.8966H53.1478C53.5291 39.8966 53.6837 39.764 53.6837 39.5152C53.6837 39.3272 53.5677 39.1946 53.2141 39.1946H52.6612V39.8966ZM53.1034 38.0726C54.1537 38.0726 55.0047 38.9182 55.0047 39.974C55.0047 41.0297 54.1537 41.8753 53.1034 41.8753C52.0531 41.8753 51.2021 41.0297 51.2021 39.974C51.2021 38.9182 52.0531 38.0726 53.1034 38.0726ZM53.1034 41.6709C54.0377 41.6709 54.8004 40.9137 54.8004 39.974C54.8004 39.0344 54.0377 38.2772 53.1034 38.2772C52.1696 38.2772 51.4065 39.0344 51.4065 39.974C51.4065 40.9137 52.1696 41.6709 53.1034 41.6709Z" fill="#FDC82F"/>
</svg>
