<svg width="129" height="48" viewBox="0 0 129 48" fill="none" xmlns="http://www.w3.org/2000/svg">
<g clip-path="url(#clip0_1_16)">
<path d="M4.22521 29.1464C4.22521 30.641 4.55305 31.7886 4.98156 32.4828C5.54338 33.3921 6.38134 33.7774 7.23564 33.7774C8.33751 33.7774 9.34552 33.5038 11.2881 30.8153C12.8443 28.6604 14.678 25.6357 15.9119 23.7395L18.0013 20.5269C19.4528 18.2958 21.1328 15.8156 23.0591 14.1345C24.6316 12.7623 26.328 12 28.0352 12C30.9014 12 33.6316 13.6621 35.7211 16.7794C38.0078 20.1934 39.1179 24.4936 39.1179 28.9313C39.1179 31.5694 38.5982 33.5079 37.714 35.0393C36.8597 36.5203 35.1947 38 32.3937 38V33.7774C34.792 33.7774 35.3905 31.5721 35.3905 29.0484C35.3905 25.4519 34.5526 21.4607 32.7066 18.6089C31.3966 16.5861 29.6989 15.3501 27.8311 15.3501C25.811 15.3501 24.1854 16.8747 22.3585 19.5931C21.3872 21.0374 20.3901 22.7975 19.2705 24.7836L18.0381 26.9684C15.5623 31.3612 14.9351 32.3617 13.6972 34.0129C11.5275 36.9042 9.67472 38 7.23564 38C4.3422 38 2.51254 36.7463 1.37938 34.8569C0.454353 33.3173 0 31.2972 0 28.9953L4.22521 29.1464Z" fill="#0081FB"/>
<path d="M3.33148 17.0775C5.2686 14.0895 8.0641 12 11.2704 12C13.1273 12 14.9733 12.5499 16.9008 14.1249C19.0094 15.8469 21.2566 18.6824 24.0603 23.3556L25.0656 25.0327C27.4924 29.0783 28.8732 31.1597 29.6812 32.1412C30.7205 33.4017 31.4483 33.7774 32.3937 33.7774C34.792 33.7774 35.3906 31.5721 35.3906 29.0484L39.1179 28.9313C39.1179 31.5694 38.5982 33.5079 37.714 35.0393C36.8597 36.5203 35.1947 38 32.3937 38C30.6525 38 29.1099 37.6216 27.404 36.0112C26.0926 34.7752 24.5595 32.5795 23.3801 30.6057L19.8718 24.7414C18.1116 21.7983 16.4968 19.604 15.5623 18.6103C14.557 17.5417 13.2647 16.2512 11.2024 16.2512C9.53326 16.2512 8.11579 17.4232 6.92957 19.216L3.33148 17.0775Z" fill="url(#paint0_linear_1_16)"/>
<path d="M11.2024 16.2512C9.53325 16.2512 8.11577 17.4232 6.92956 19.216C5.25226 21.7493 4.22521 25.5227 4.22521 29.1464C4.22521 30.641 4.55305 31.7886 4.98156 32.4828L1.37938 34.8569C0.454353 33.3173 0 31.2972 0 28.9953C0 24.8094 1.14813 20.4466 3.33147 17.0775C5.26859 14.0895 8.06408 12 11.2704 12L11.2024 16.2512Z" fill="url(#paint1_linear_1_16)"/>
<path d="M47.3316 12.8221H52.2193L60.5296 27.8668L68.8412 12.8221H73.6228V37.5426H69.6357V18.5966L62.347 31.7164H58.6061L51.3187 18.5966V37.5426H47.3316V12.8221ZM86.1162 22.0392C83.2567 22.0392 81.5345 24.1927 81.1224 26.8594H90.827C90.627 24.1124 89.0436 22.0392 86.1162 22.0392ZM77.1692 28.3786C77.1692 22.7675 80.7932 18.6837 86.1855 18.6837C91.4895 18.6837 94.6564 22.7158 94.6564 28.6781V29.7739H81.1224C81.6026 32.6747 83.5261 34.6295 86.6276 34.6295C89.1021 34.6295 90.6488 33.874 92.1152 32.4923L94.2333 35.0882C92.2377 36.9246 89.6993 37.9836 86.4862 37.9836C80.649 37.9836 77.1692 33.7242 77.1692 28.3786ZM99.491 22.3931H95.8208V19.1261H99.491V13.7233H103.338V19.1261H108.914V22.3931H103.338V30.6737C103.338 33.501 104.241 34.5056 106.461 34.5056C107.475 34.5056 108.056 34.4185 108.914 34.2755V37.5072C107.845 37.8094 106.825 37.9482 105.72 37.9482C101.567 37.9482 99.491 35.6776 99.491 31.1324V22.3931ZM125.113 25.5703C124.34 23.6183 122.617 22.1808 120.084 22.1808C116.792 22.1808 114.685 24.5181 114.685 28.3255C114.685 32.0376 116.624 34.4879 119.926 34.4879C122.522 34.4879 124.374 32.9769 125.113 31.097V25.5703ZM128.96 37.5426H125.184V34.9643C124.128 36.4821 122.207 37.9836 119.096 37.9836C114.093 37.9836 110.749 33.7923 110.749 28.3255C110.749 22.807 114.173 18.6837 119.308 18.6837C121.847 18.6837 123.838 19.6992 125.184 21.492V19.1261H128.96V37.5426Z" fill="#192830"/>
</g>
<defs>
<linearGradient id="paint0_linear_1_16" x1="8.29807" y1="27.9267" x2="35.2329" y2="29.2861" gradientUnits="userSpaceOnUse">
<stop stop-color="#0064E1"/>
<stop offset="0.4" stop-color="#0064E1"/>
<stop offset="0.83" stop-color="#0073EE"/>
<stop offset="1" stop-color="#0082FB"/>
</linearGradient>
<linearGradient id="paint1_linear_1_16" x1="6.12152" y1="30.9215" x2="6.12152" y2="20.9843" gradientUnits="userSpaceOnUse">
<stop stop-color="#0082FB"/>
<stop offset="1" stop-color="#0064E0"/>
</linearGradient>
<clipPath id="clip0_1_16">
<rect width="128.96" height="26" fill="white" transform="translate(0 12)"/>
</clipPath>
</defs>
</svg>
