<svg width="121" height="24" viewBox="0 0 121 24" fill="none" xmlns="http://www.w3.org/2000/svg">
<path d="M83.7964 5.50322V0.417934C90.4223 0.318084 90.6904 0.230246 92.8811 0.286703C96.2482 0.371688 98.2788 1.33355 99.739 2.81208C101.146 4.23716 102.263 6.41043 102.211 9.56479C102.18 11.381 101.059 18.0624 92.9358 18.4794C91.9832 18.5643 89.7963 18.4894 88.4073 18.5219L89.7805 13.3044C92.9987 13.5726 95.5519 12.5571 95.6878 9.51103C95.8366 6.09136 92.8054 5.00563 89.7815 5.54106L83.7964 5.50322Z" fill="#0081C4"/>
<path d="M89.7777 23.4397L83.7964 23.4388V4.41943L89.7777 4.45817V23.4397Z" fill="#0081C4"/>
<path d="M111.277 8.52618L116.186 10.2748C119.455 11.5649 120.149 14.1828 120.118 16.4374C120.046 21.6669 115.873 23.6274 112.547 23.9104C108.765 24.2314 105.837 23.598 104.853 23.4381V17.7471C107.846 18.6562 111.33 18.62 112.506 18.1615C113.396 17.8146 114.072 17.2847 114.018 16.5892C113.988 16.2119 113.951 15.732 112.826 15.2513L108.299 13.6089C105.391 12.5621 104.269 9.8017 104.391 7.34284C104.637 2.37497 108.606 -0.139445 112.568 0.0059001C113.791 0.0501944 115.438 0.0215157 117.833 0.352747V5.99089C115.149 5.36672 113.891 5.37693 112.506 5.549C110.957 5.74029 110.262 6.54119 110.294 7.39675C110.31 7.83038 110.743 8.30576 111.277 8.51852" fill="#0081C4"/>
<path d="M27.3161 8.99693H33.757L33.7552 0.43927H39.7374V23.4435H33.757V14.2081H27.3161L27.3152 23.4435H21.3267V0.43927H27.3152L27.3161 8.99693Z" fill="#0081C4"/>
<path d="M45.3716 0.43927H51.3574V23.4435H45.3716V0.43927Z" fill="#0081C4"/>
<path d="M72.1182 0.43927H78.105V23.4435H72.1182V0.43927Z" fill="#0081C4"/>
<path d="M62.9775 18.2205H69.1494V23.4417L56.9897 23.4435V0.43927H62.9775V18.2205Z" fill="#0081C4"/>
<path d="M0 5.50322V0.417934C6.62664 0.318084 6.89406 0.230246 9.08562 0.286703C12.4516 0.371688 14.4824 1.33355 15.9435 2.81208C17.3499 4.23716 18.4672 6.41043 18.4154 9.56479C18.3839 11.381 17.2621 18.0624 9.13923 18.4794C8.18774 18.5643 6.06899 18.4894 4.68012 18.5219L5.98761 13.3044C9.20664 13.5726 11.7581 12.5571 11.8911 9.51103C12.0399 6.09136 9.00784 5.00563 5.98491 5.54106L0 5.50322Z" fill="#0081C4"/>
<path d="M5.99047 23.4397L0 23.4388V4.81415L5.98491 4.85214L5.99047 23.4397Z" fill="#0081C4"/>
</svg>
