<svg width="124" height="48" viewBox="0 0 124 48" fill="none" xmlns="http://www.w3.org/2000/svg">
<path d="M30.0576 13.9821C30.0352 13.8253 29.9008 13.7357 29.7888 13.7357C29.6768 13.7357 27.4592 13.6909 27.4592 13.6909C27.4592 13.6909 25.6 11.8989 25.4208 11.6973C25.2416 11.5181 24.8832 11.5629 24.7488 11.6077C24.7488 11.6077 24.3904 11.7197 23.808 11.8989C23.7184 11.5853 23.5616 11.2045 23.36 10.8013C22.7104 9.54689 21.7248 8.87489 20.56 8.87489C20.4704 8.87489 20.4032 8.87489 20.3136 8.89729C20.2688 8.85249 20.2464 8.80769 20.2016 8.78529C19.6864 8.24769 19.0368 7.97889 18.2528 8.00129C16.752 8.04609 15.2512 9.14369 14.0192 11.0701C13.168 12.4365 12.5184 14.1389 12.3168 15.4605C10.592 15.9981 9.3824 16.3789 9.3376 16.3789C8.464 16.6477 8.4416 16.6701 8.3296 17.4989C8.2848 18.1261 6 35.7997 6 35.7997L25.1744 39.1149L33.4848 37.0541C33.4624 37.0541 30.08 14.1389 30.0576 13.9821ZM22.8448 12.2125C22.3968 12.3469 21.904 12.5037 21.3664 12.6829C21.3664 11.9213 21.2544 10.8461 20.9184 9.95009C22.0608 10.1293 22.6208 11.4285 22.8448 12.2125ZM20.3584 12.9741C19.3504 13.2877 18.2528 13.6237 17.1552 13.9597C17.4688 12.7725 18.0512 11.6077 18.768 10.8237C19.0368 10.5325 19.4176 10.2189 19.8432 10.0397C20.2912 10.9133 20.3808 12.1453 20.3584 12.9741ZM18.2976 9.00929C18.656 9.00929 18.9472 9.07649 19.1936 9.25569C18.7904 9.45729 18.3872 9.77089 18.0288 10.1741C17.0656 11.2045 16.3264 12.7949 16.0352 14.3405C15.1168 14.6317 14.2208 14.9005 13.4144 15.1469C13.952 12.7053 15.9904 9.07649 18.2976 9.00929Z" fill="#95BF47"/>
<path d="M29.7887 13.7357C29.6767 13.7357 27.4591 13.6909 27.4591 13.6909C27.4591 13.6909 25.5999 11.8989 25.4207 11.6973C25.3535 11.6301 25.2639 11.5853 25.1743 11.5853V39.1149L33.4847 37.0541C33.4847 37.0541 30.1023 14.1389 30.0799 13.9821C30.0351 13.8253 29.9007 13.7357 29.7887 13.7357Z" fill="#5E8E3E"/>
<path d="M20.5597 18.0141L19.5965 21.6205C19.5965 21.6205 18.5213 21.1277 17.2445 21.2173C15.3629 21.3293 15.3629 22.5165 15.3629 22.8077C15.4749 24.4205 19.7085 24.7789 19.9549 28.5645C20.1341 31.5437 18.3869 33.5821 15.8333 33.7389C12.7869 33.8957 11.1069 32.1037 11.1069 32.1037L11.7565 29.3485C11.7565 29.3485 13.4589 30.6253 14.8029 30.5357C15.6765 30.4909 16.0125 29.7517 15.9677 29.2589C15.8333 27.1533 12.3837 27.2877 12.1597 23.8157C11.9805 20.9037 13.8845 17.9693 18.0957 17.7005C19.7309 17.5885 20.5597 18.0141 20.5597 18.0141Z" fill="white"/>
<path fill-rule="evenodd" clip-rule="evenodd" d="M104.896 20.3212H102.253L102.387 19.694C102.611 18.3948 103.373 17.2524 104.65 17.2524C105.322 17.2524 105.859 17.454 105.859 17.454L106.598 14.4748C106.598 14.4748 105.949 14.1388 104.538 14.1388C103.194 14.1388 101.85 14.5196 100.819 15.3932C99.52 16.4908 98.9152 18.0812 98.624 19.694L98.512 20.3212H96.7424L96.1824 23.1884H97.952L95.936 33.806H99.7216L101.738 23.1884H104.358L104.896 20.3212ZM54.2945 22.0459C55.3025 20.8363 56.6241 20.0299 58.3041 20.0299C60.2977 20.0299 61.4177 21.3291 61.3953 23.4795C61.3953 24.1515 61.2833 25.1371 61.1265 25.9659L59.6481 33.806H55.8625L57.2961 26.2123C57.4081 25.6971 57.4529 25.0475 57.4529 24.5323C57.4529 23.7035 57.1168 23.1211 56.2656 23.1211C55.056 23.1211 53.7568 24.6667 53.264 27.1755L52.0096 33.806H48.224L51.92 14.4075H55.7056L54.2496 22.0235L54.2945 22.0459ZM43.2733 24.1291C43.2733 24.7339 43.7661 25.1819 44.7293 25.6971C46.2077 26.5483 47.4397 27.7131 47.4621 29.3483C47.4621 32.3723 44.9981 34.0523 41.5933 34.0523C39.2413 34.0523 37.8525 33.1115 37.8525 33.1115L38.7933 30.4235C38.7933 30.4235 40.3165 31.2523 41.9069 31.2523C42.9821 31.2523 43.5645 30.6699 43.5645 29.9531C43.5645 29.2587 43.1613 28.7883 41.9965 28.1387C40.5629 27.3099 39.4877 26.1675 39.4877 24.6443C39.4877 21.9787 41.7949 20.0747 45.1101 20.0747C47.4845 20.0747 48.2909 20.7019 48.2909 20.7019L47.4173 23.3899C47.4173 23.3899 46.2973 22.8747 45.0429 22.8747C43.9677 22.8747 43.2733 23.3675 43.2733 24.1291ZM69.9967 20.03C65.4271 20.03 62.403 24.1516 62.403 28.7436C62.403 31.678 64.2175 34.0524 67.6223 34.0524C72.1023 34.0524 75.1263 30.0428 75.1263 25.3388C75.1487 22.6284 73.5583 20.03 69.9967 20.03ZM68.1374 31.1628C66.8382 31.1628 66.3007 30.0652 66.3007 28.6764C66.3007 26.5036 67.4206 22.9644 69.4814 22.9644C70.8254 22.9644 71.2734 24.1292 71.2734 25.2492C71.2734 27.5788 70.131 31.1628 68.1374 31.1628ZM80.8384 22.2924C80.8384 22.2924 82.2944 20.03 84.848 20.03C87.6256 20.03 88.768 22.3148 88.768 24.8684C88.768 29.4828 85.856 34.0524 81.3984 34.0524C79.9648 34.0524 79.1808 33.5596 79.1808 33.5596H79.0912L78.0384 39.182H74.2528L76.896 25.294C77.1872 23.726 77.5008 21.6204 77.6576 20.254H81.0176L80.7936 22.2924H80.8384ZM79.6512 30.6476C79.6512 30.6476 80.2336 31.2076 81.2192 31.2076C83.3472 31.2076 84.8032 27.7132 84.8032 25.2492C84.8032 24.2412 84.4448 23.166 83.28 23.166C81.9584 23.166 80.7264 24.734 80.2784 27.1084L79.6512 30.6476ZM94.1888 14.5868C92.9792 14.5868 92.0159 15.55 92.0159 16.782C92.0159 17.902 92.7327 18.686 93.8079 18.686H93.8528C95.04 18.686 96.048 17.8796 96.0704 16.4908C96.0704 15.3932 95.3312 14.5868 94.1888 14.5868ZM92.6654 33.7837H88.8798L91.4334 20.3437H95.2414L92.6654 33.7837ZM110.608 29.5949C111.661 26.3245 114.035 20.3437 114.035 20.3437H118L113.363 30.3117C111.728 33.7165 110.115 36.2253 108.39 37.8381C107.046 39.0925 105.434 39.7421 104.672 39.8989L103.619 36.6733C104.246 36.4493 105.053 36.1133 105.77 35.5981C106.643 34.9933 107.382 34.1645 107.83 33.3133C107.942 33.1341 107.965 32.9549 107.92 32.6861L105.635 20.3437H109.622C109.622 20.3437 110.496 28.5421 110.563 29.5949H110.608Z" fill="black"/>
</svg>
