<svg width="118" height="48" viewBox="0 0 118 48" fill="none" xmlns="http://www.w3.org/2000/svg">
<path d="M28.8924 10.0317C28.4679 11.0766 27.8802 12.0888 27.1945 13.0031C21.121 6.70109 11.0965 6.53782 4.82711 12.6113C-1.44227 18.6848 -1.63819 28.7093 4.43527 34.9786C4.63119 35.2072 4.85976 35.4031 5.08833 35.5991L5.67609 36.1215C12.3373 41.7378 22.3291 40.8888 27.9455 34.2276C30.1006 31.6807 31.4067 28.4807 31.6353 25.1501C32.0924 21.1991 30.8843 16.1052 28.8924 10.0317ZM7.37405 35.7623C6.9169 36.3501 6.06792 36.4154 5.48017 35.9582C4.89241 35.5011 4.82711 34.6521 5.28425 34.0644C5.74139 33.4766 6.59037 33.4113 7.17813 33.8684C7.73323 34.3256 7.83119 35.1746 7.37405 35.7623ZM28.7945 31.0276C24.9087 36.2195 16.5496 34.4562 11.2271 34.7174C11.2271 34.7174 10.2802 34.7827 9.33323 34.9133C9.33323 34.9133 9.69241 34.7501 10.1496 34.5868C13.9047 33.2807 15.6679 33.0195 17.9536 31.8439C22.2312 29.6562 26.5087 24.8562 27.3577 19.8929C25.7251 24.6603 20.7618 28.7746 16.2557 30.4399C13.1536 31.5827 7.56997 32.6929 7.56997 32.6929L7.34139 32.5623C3.55364 30.7011 3.42303 22.4725 10.3455 19.8276C13.3822 18.6521 16.2557 19.3052 19.5536 18.5215C23.0475 17.7052 27.0965 15.0929 28.7291 11.6644C30.5577 17.1827 32.7781 25.7378 28.7945 31.0276ZM40.6148 30.2439C40.1903 29.9827 39.9291 29.5256 39.9618 29.0358C39.9618 28.2521 40.5822 27.5991 41.3658 27.5991C41.3658 27.5991 41.3659 27.5991 41.3985 27.5991C41.6597 27.5991 41.921 27.6644 42.1495 27.795C43.4557 28.7093 44.9903 29.1991 46.5577 29.2644C48.0597 29.2644 48.9414 28.6113 48.9414 27.5991V27.5337C48.9414 26.3256 47.3087 25.9337 45.5128 25.3786C43.2597 24.7256 40.7128 23.8113 40.7128 20.8725V20.8072C40.7128 17.9011 43.1291 16.1378 46.1659 16.1378C47.8638 16.1705 49.4965 16.595 50.9985 17.3786C51.521 17.6399 51.8475 18.1297 51.8475 18.7174C51.8475 19.5011 51.1944 20.1542 50.4107 20.1542H50.3781C50.1495 20.1542 49.921 20.0888 49.6924 19.9909C48.5822 19.3705 47.374 19.0113 46.1005 18.946C44.7291 18.946 43.9454 19.5991 43.9454 20.448V20.5133C43.9454 21.6562 45.6107 22.1133 47.4067 22.7011C49.6597 23.3868 52.174 24.4317 52.174 27.1746V27.2399C52.174 30.4725 49.6597 32.0725 46.4924 32.0725C44.4026 32.0399 42.3454 31.4195 40.6148 30.2439ZM53.4801 17.9337C53.4475 16.9868 54.2312 16.2031 55.1781 16.1705H55.2108C56.1903 16.1705 56.974 16.9542 56.974 17.9337V18.9786C58.1169 17.3786 59.7169 16.1052 62.1985 16.1052C65.7903 16.1052 69.3169 18.946 69.3169 24.0725V24.1378C69.3169 29.2317 65.823 32.1052 62.1985 32.1052C59.6516 32.1052 58.0516 30.8317 56.974 29.395V34.8154C56.974 35.795 56.1903 36.5786 55.2108 36.5786C54.2638 36.5786 53.4801 35.795 53.4801 34.848V34.8154V17.9337ZM65.7903 24.1378V24.0725C65.7903 21.1011 63.7985 19.1746 61.4148 19.1746C59.0312 19.1746 56.9414 21.1664 56.9414 24.0725V24.1378C56.9414 27.0766 59.0312 29.0358 61.4148 29.0358C63.7985 29.0358 65.7903 27.1746 65.7903 24.1378ZM70.6883 17.9337C70.6556 16.9868 71.4393 16.2031 72.3863 16.1705H72.4189C73.3985 16.1705 74.1822 16.9542 74.1822 17.9337V18.7827C74.3454 17.4766 76.5005 16.1705 78.0352 16.1705C78.9169 16.1052 79.7005 16.7582 79.7659 17.6399C79.7659 17.7378 79.7659 17.8031 79.7659 17.9011C79.7659 18.7501 79.1781 19.4684 78.3618 19.5991C75.8475 20.0235 74.1495 22.2113 74.1495 25.248V30.3093C74.1495 31.2888 73.3659 32.0399 72.3863 32.0399C71.4393 32.0399 70.6556 31.2888 70.6556 30.3419C70.6556 30.3419 70.6556 30.3419 70.6556 30.3093L70.6883 17.9337ZM81.1699 17.9664C81.1373 17.0195 81.921 16.2358 82.8679 16.2031H82.9005C83.8801 16.2031 84.6638 16.9868 84.6638 17.9664V30.3419C84.6638 31.3215 83.8801 32.0725 82.9005 32.0725C81.921 32.0725 81.1699 31.2888 81.1699 30.3419V17.9664ZM86.4597 17.9664C86.4271 17.0195 87.2107 16.2358 88.1577 16.2031H88.1903C89.1699 16.2031 89.9536 16.9868 89.9536 17.9664V18.6848C90.9985 17.0521 92.8271 16.1052 94.7536 16.1705C98.2148 16.1705 100.207 18.4888 100.207 22.048V30.3093C100.239 31.2562 99.4883 32.0072 98.5414 32.0399C98.5087 32.0399 98.5087 32.0399 98.4761 32.0399C97.5291 32.0725 96.7454 31.2888 96.7128 30.3419V30.3093V23.1256C96.7128 20.7419 95.5373 19.3705 93.4148 19.3705C91.3903 19.3705 89.9536 20.8072 89.9536 23.1909V30.3419C89.9536 31.3215 89.1699 32.1052 88.1903 32.1052C87.2107 32.1052 86.4271 31.3215 86.4271 30.3419L86.4597 17.9664ZM115.684 16.1378C114.705 16.1378 113.921 16.9215 113.921 17.9011V18.946C112.778 17.346 111.178 16.0725 108.696 16.0725C105.105 16.0725 101.578 18.9133 101.578 24.0399V24.1052C101.578 29.1991 105.072 32.0725 108.696 32.0725C111.243 32.0725 112.843 30.7991 113.921 29.395C113.758 32.1705 112.06 33.6072 109.088 33.6072C107.456 33.6072 105.823 33.2154 104.386 32.399C104.19 32.3011 103.994 32.2684 103.766 32.2684C102.95 32.2684 102.296 32.8888 102.264 33.7052C102.264 34.3256 102.656 34.9133 103.243 35.1093C105.105 36.0235 107.129 36.4807 109.186 36.4807C111.962 36.4807 114.117 35.8276 115.488 34.4235C116.762 33.1501 117.447 31.2235 117.447 28.6439V17.9337C117.48 16.9542 116.696 16.1705 115.717 16.1378H115.684ZM109.513 29.0358C107.096 29.0358 105.137 27.1419 105.137 24.1052V24.0399C105.137 21.0684 107.129 19.1419 109.513 19.1419C111.896 19.1419 113.986 21.1337 113.986 24.0399V24.1052C114.019 27.0439 111.929 29.0358 109.513 29.0358ZM84.6965 11.9582C84.6965 12.9378 83.9128 13.7215 82.9332 13.7215C81.9536 13.7215 81.1699 12.9378 81.1699 11.9582C81.1699 10.9786 81.9536 10.195 82.9332 10.195C83.8801 10.1623 84.6638 10.946 84.6965 11.8929C84.6965 11.9256 84.6965 11.9256 84.6965 11.9582Z" fill="#6DB33F"/>
</svg>
