<svg width="126" height="48" viewBox="0 0 126 48" fill="none" xmlns="http://www.w3.org/2000/svg">
<path d="M22.2125 20.0874H18.1343V32.781H15.1095V20.0874H11V17.2712H22.2125V20.0874ZM35.5528 20.8905C36.2099 22.1108 36.5332 23.4772 36.5332 25C36.5332 26.5228 36.2099 27.8996 35.5528 29.1095C34.8957 30.3299 33.9883 31.279 32.8409 31.9674C31.6936 32.6558 30.4003 33 28.9609 33C27.5215 33 26.2177 32.6558 25.0704 31.9674C23.9126 31.279 23.0052 30.3299 22.3585 29.1095C21.7014 27.8892 21.3781 26.5228 21.3781 25C21.3781 23.4772 21.7014 22.1004 22.3585 20.8905C23.0156 19.6701 23.9231 18.721 25.0704 18.0326C26.2282 17.3442 27.5215 17 28.9609 17C30.3898 17 31.6832 17.3442 32.8409 18.0326C33.9883 18.721 34.8957 19.6701 35.5528 20.8905ZM33.5398 25C33.5398 23.9883 33.3416 23.0808 32.9557 22.2777C32.5698 21.485 32.0274 20.8592 31.3286 20.4211C30.6297 19.9726 29.8475 19.7536 28.9609 19.7536C28.0743 19.7536 27.2816 19.9726 26.5828 20.4211C25.884 20.8696 25.3416 21.485 24.9452 22.2777C24.5489 23.0704 24.3611 23.9778 24.3611 25C24.3611 26.0222 24.5593 26.9192 24.9452 27.7223C25.3416 28.515 25.884 29.1408 26.5828 29.5789C27.2816 30.0274 28.0743 30.2464 28.9609 30.2464C29.8266 30.2464 30.6089 30.0274 31.3077 29.5789C32.0065 29.1304 32.5489 28.515 32.9452 27.7223C33.3416 26.9192 33.5398 26.0117 33.5398 25ZM46.3064 26.794C46.3064 27.4824 46.1812 28.0978 45.9205 28.6297C45.6597 29.1617 45.2947 29.5789 44.8253 29.8814C44.3559 30.1838 43.8136 30.3299 43.1877 30.3299C42.5515 30.3299 41.9883 30.1838 41.5085 29.8918C41.0287 29.5997 40.6532 29.1825 40.3924 28.6402C40.1317 28.0978 39.9961 27.4824 39.9961 26.794V17.2608H37.1799V26.8253C37.1799 28.0352 37.4303 29.0991 37.9309 30.0378C38.4316 30.9661 39.1408 31.6962 40.0482 32.2177C40.9557 32.7392 41.9987 33 43.1877 33C44.3455 33 45.3781 32.7392 46.2751 32.2177C47.1721 31.6962 47.8709 30.9765 48.3716 30.0378C48.8722 29.1095 49.1226 28.0352 49.1226 26.8253V17.2608H46.296V26.794H46.3064ZM74.5932 23.4563H68.0222V17.2608H65.0078V32.7288H68.0222V26.2621H74.5932V32.7288H77.6076V17.2608H74.5932V23.4563ZM115.302 28.4524C115.302 29.2868 115.083 30.0274 114.635 30.6741C114.197 31.3207 113.571 31.8318 112.778 32.1969C111.975 32.5619 111.057 32.7392 110.025 32.7392H103.318H103.266H100.272L99.0209 29.6415H93.0026L91.8553 32.7392H89.3624H88.7366H79.0052V17.2608H81.9987V29.9126H89.7275L94.2021 17.2608H97.6962L103.266 32.5724V17.2608H109.9C110.89 17.2608 111.756 17.4381 112.518 17.7823C113.279 18.1265 113.863 18.6063 114.28 19.2216C114.698 19.837 114.906 20.5359 114.906 21.3286C114.906 22.1734 114.677 22.8827 114.207 23.4772C113.748 24.0717 113.091 24.4785 112.267 24.708C113.216 24.9374 113.957 25.3859 114.499 26.043C115.031 26.7106 115.302 27.5137 115.302 28.4524ZM98.2177 26.8983L96.1213 20.8279L95.9022 19.8787L95.6728 20.8279L93.7119 26.8983H98.2177ZM106.218 23.8005H109.503C109.962 23.8005 110.359 23.7171 110.703 23.5398C111.047 23.3625 111.318 23.1121 111.506 22.7888C111.694 22.4655 111.798 22.09 111.798 21.6728C111.798 21.0469 111.589 20.5463 111.172 20.1708C110.755 19.7953 110.192 19.6076 109.503 19.6076H106.218V23.8005ZM112.163 28.2334C112.163 27.7953 112.059 27.4198 111.84 27.0861C111.631 26.7523 111.329 26.502 110.943 26.3142C110.557 26.1369 110.119 26.043 109.628 26.043H106.218V30.3924H109.628C110.119 30.3924 110.557 30.2986 110.943 30.1213C111.329 29.9439 111.621 29.6832 111.84 29.3598C112.059 29.0469 112.163 28.661 112.163 28.2334ZM60.7419 28.6923C60.3351 29.1721 59.824 29.5476 59.219 29.8292C58.6141 30.1108 57.957 30.2464 57.2686 30.2464C56.3611 30.2464 55.558 30.0274 54.8383 29.5789C54.1291 29.1304 53.5763 28.515 53.1695 27.7119C52.7627 26.9087 52.5645 26.0117 52.5645 25C52.5645 23.9883 52.7627 23.0913 53.1695 22.2881C53.5658 21.485 54.1291 20.8696 54.8383 20.4211C55.5476 19.9726 56.3611 19.7536 57.2686 19.7536C57.957 19.7536 58.6141 19.8996 59.219 20.1812C59.824 20.4628 60.3351 20.8488 60.7419 21.3286C60.94 21.558 61.0965 21.7979 61.2321 22.0482H64.382C64.2047 21.3077 63.8709 20.6089 63.3911 19.9518C62.7236 19.0443 61.8579 18.3351 60.794 17.8031C59.7197 17.2712 58.5515 17.0104 57.2894 17.0104C55.8083 17.0104 54.4733 17.3546 53.2947 18.0535C52.0952 18.7314 51.1669 19.6806 50.4889 20.9009C49.811 22.1213 49.4772 23.4876 49.4772 25C49.4772 26.5124 49.811 27.8787 50.4889 29.0991C51.1669 30.3194 52.0952 31.2686 53.2738 31.957C54.4628 32.6454 55.7979 33 57.2686 33C58.5306 33 59.7093 32.7392 60.7731 32.2073C61.8475 31.6858 62.7132 30.9661 63.3703 30.0795C63.8814 29.3807 64.2256 28.6402 64.3924 27.8475H61.2842C61.1591 28.1395 60.9817 28.4211 60.7419 28.6923Z" fill="#19191C"/>
</svg>
