<svg width="77" height="48" viewBox="0 0 77 48" fill="none" xmlns="http://www.w3.org/2000/svg"><g clip-path="url(#clip0_10660_16627)"><path d="M13.4051 32.2325C16.6547 32.2325 19.1674 29.7326 19.1674 26.0333V11.6357H22.6846V34.9653H19.2009V32.7989C17.6264 34.4317 15.449 35.3649 13.0029 35.3649C7.97705 35.3649 4.12402 31.7323 4.12402 26.2356V11.6396H7.64126V26.0333C7.64126 29.7993 10.1204 32.2325 13.404 32.2325" fill="black"/><path d="M25.2989 11.6357H28.6826V20.1342C29.4717 19.3301 30.415 18.6917 31.4566 18.2565C32.4981 17.8214 33.6168 17.5985 34.7465 17.601C39.7723 17.601 43.7254 21.567 43.7254 26.4996C43.7254 31.3988 39.7723 35.3644 34.7465 35.3644C33.6114 35.3674 32.4871 35.145 31.4396 34.71C30.3921 34.2751 29.4424 33.6365 28.6463 32.8316V34.9636H25.2939L25.2989 11.6357ZM34.5124 32.3987C37.729 32.3987 40.3758 29.7654 40.3758 26.4996C40.3758 23.1999 37.729 20.6005 34.5124 20.6005C31.2623 20.6005 28.6155 23.1999 28.6155 26.4996C28.6155 29.7654 31.2287 32.3987 34.5124 32.3987Z" fill="black"/><path d="M53.8446 17.6348C58.7693 17.6348 62.3882 21.4008 62.3882 26.4667V27.5666H48.4858C48.9551 30.3327 51.2666 32.3991 54.1463 32.3991C56.1248 32.3991 57.7987 31.5988 59.0715 29.8992L61.5177 31.6989C59.8085 33.9653 57.2624 35.3315 54.1463 35.3315C49.0205 35.3315 45.0669 31.5321 45.0669 26.4667C45.0669 21.6675 48.8529 17.6348 53.8451 17.6348M48.5512 24.9005H58.971C58.4016 22.3006 56.2907 20.5676 53.7781 20.5676C51.2655 20.5676 49.1546 22.3006 48.5512 24.9005Z" fill="black"/><path d="M71.4674 20.9672C69.2559 20.9672 67.6479 22.6668 67.6479 25.2996V34.9646H64.2637V17.9677H67.616V20.0691C68.4536 18.7024 69.8275 17.8359 71.7037 17.8359H72.876V20.9689L71.4674 20.9672Z" fill="black"/></g><defs><clipPath id="clip0_10660_16627"><rect width="69" height="24" fill="white" transform="translate(4 11.5)"/></clipPath></defs></svg>
