<svg width="52" height="33" viewBox="0 0 52 33" fill="none" xmlns="http://www.w3.org/2000/svg">
<g clip-path="url(#clip0_427_2760)">
<path d="M0.0117188 27.5344H44.2999L32.6755 0.470215H32.4899L0.0117188 27.5344Z" fill="white"/>
<path fill-rule="evenodd" clip-rule="evenodd" d="M0.0117188 27.5344H44.2999L32.6755 0.470215H32.4899L0.0117188 27.5344ZM20.3112 11.491C20.1589 11.4909 20.0356 11.5125 20.0356 11.5125C20.0356 11.5125 19.3681 11.8876 18.5266 12.3779C17.6848 12.8681 16.1755 13.9067 15.9431 14.2528C15.7114 14.599 14.7537 15.6085 14.7537 15.6085L14.6867 15.6933C13.9439 15.5938 13.1541 15.5665 12.6927 15.7243C11.764 16.0414 9.76174 17.2238 9.44239 17.9454C9.17977 18.5384 8.89792 19.0539 8.87111 19.6996C8.50675 20.4724 8.30876 21.7987 9.18115 23.6573C9.18115 23.6573 9.70362 23.9737 10.5162 23.8877C10.6949 23.8691 10.9541 23.8609 11.2412 23.8316C10.5299 24.7527 9.65863 25.8945 9.32621 26.2238C8.83298 26.7144 5.66958 29.4839 5.1471 29.628C4.62462 29.7729 4.45069 29.7148 4.88586 29.9451C5.32102 30.176 6.0951 30.0032 6.37559 29.5986C6.65608 29.1955 7.03351 28.532 7.35319 28.215C7.67216 27.8972 9.35509 26.8586 9.50013 26.6571C9.6435 26.4583 12.0671 24.0475 12.3325 23.563C12.5082 23.4783 12.6669 23.3682 12.7952 23.2241C12.9361 23.2131 13.0681 23.1859 13.1863 23.1373C13.9701 22.8203 15.2179 21.8397 15.8269 20.9746C16.1782 20.4759 16.491 19.9387 16.6594 19.4954C16.9846 19.2411 17.2437 19.0601 17.3366 19.0416C17.6267 18.9836 18.0911 18.8394 18.0911 19.3293C18.0911 19.8199 18.5843 20.8872 19.0195 21.522C19.4554 22.1568 20.0356 22.6761 20.0356 22.6761C20.0356 22.6761 20.0063 22.9357 20.2968 22.9645C20.5869 22.9932 20.8478 22.907 20.9059 23.0513C21.0461 23.399 21.6608 23.1374 21.9505 22.8783C22.241 22.618 22.3575 23.0513 22.7634 22.7915C23.1704 22.5325 23.344 22.1855 23.344 21.7236C23.344 21.5267 23.2481 21.3573 23.101 21.2418C23.1264 21.2186 23.1409 21.205 23.1409 21.205C23.1409 21.205 23.487 21.2296 23.8317 21.1188C23.806 21.2712 23.806 21.4646 23.8372 21.7236C23.924 22.4451 24.4183 22.907 24.7078 22.907C24.9985 22.907 25.2014 23.2241 25.2014 23.2241C25.2014 23.2241 25.1725 23.7721 25.5794 23.8877C25.9851 24.0031 27.0878 23.4838 27.3491 23.2535C27.6102 23.0226 28.1327 23.5993 28.3644 24.0899C28.5967 24.5798 29.8156 26.6284 30.2515 27.119C30.6867 27.6089 31.2669 28.4166 31.8182 29.1087C32.3702 29.801 32.054 29.8713 32.2286 29.8713C32.4026 29.8713 32.2864 29.9867 32.4315 30.131C32.5765 30.2758 33.3602 30.7363 33.5637 30.8805C33.7665 31.0247 34.6087 31.3137 34.7242 31.2269C34.8403 31.1409 34.898 30.8525 34.898 30.8525C34.898 30.8525 34.753 30.9099 34.1728 30.7077C33.5918 30.506 32.8378 30.0161 32.7505 29.8713C32.6631 29.7271 32.4026 29.6117 32.4026 29.6117C32.4026 29.6117 31.6251 28.7049 31.1603 27.8111C31.1603 27.8111 30.7733 26.888 30.367 25.9935C29.9614 25.0991 28.6263 22.4745 28.0454 22.3303C27.4645 22.1855 26.7392 22.3583 26.3329 22.7048C25.9273 23.0513 25.7527 22.9357 25.55 22.7915C25.3464 22.6474 25.5794 22.3009 25.4625 21.8111C25.4214 21.6368 25.3368 21.3649 25.213 21.1087C25.3485 21.0908 25.4647 21.0122 25.521 20.8592C25.6373 20.5414 25.6077 20.3973 26.014 20.4547C26.0744 20.4635 26.1638 20.4711 26.2759 20.4724C26.2174 20.5756 26.1816 20.6631 26.1797 20.7185C26.1686 21.0409 26.4271 21.628 26.8113 21.77C27.1957 21.9121 28.8236 22.6174 29.1653 22.2784C29.507 21.9389 31.0235 21.1154 31.293 20.9665C31.5631 20.8188 32.0595 20.7185 32.23 20.756C32.4005 20.7923 32.7498 22.0489 33.3465 23.1223C33.9438 24.1951 33.8449 24.646 34.2347 24.4944C34.6244 24.3427 34.6169 24.7841 34.9757 24.7724C35.3346 24.7609 35.3993 25.0116 35.6089 25.4107C35.8186 25.8104 36.0379 26.301 36.5542 26.383C37.0712 26.465 39.1232 26.996 39.3577 26.8702C39.5942 26.7438 39.6051 26.4213 39.0091 26.2929C38.4138 26.1644 37.0196 26.1582 36.7096 25.9436C36.3995 25.7297 36.3218 24.5907 35.9939 24.461C35.6666 24.331 35.1682 24.1644 35.1077 24.0332C35.0562 23.9211 33.8882 21.8636 33.4379 20.7656C34.0312 21.017 34.9456 21.373 35.5037 21.5514C36.3163 21.8111 37.7098 22.2436 38.29 22.2436C38.6578 22.2436 38.8035 22.1158 38.8614 22.0221C38.9005 22.1226 38.9342 22.2019 38.9583 22.2436C39.0737 22.4451 39.2477 22.5901 39.2477 22.5901C39.2477 22.5901 39.1899 22.7048 39.3639 22.7915C39.5378 22.8783 40.7285 23.0513 41.1637 23.4551C41.5989 23.8588 42.2086 24.6378 42.2663 25.3588C42.3248 26.0796 42.7881 26.8586 43.0205 26.888C43.2528 26.9167 43.5141 26.888 43.2817 25.9075C43.0501 24.9262 42.7015 24.148 42.1502 23.7147C41.5989 23.2815 40.1765 22.5901 40.0025 22.5026C39.8279 22.4164 39.5969 22.1855 39.5089 22.1855C39.4216 22.1855 39.4512 22.0995 39.3062 21.6088C39.2807 21.522 39.2552 21.4256 39.2291 21.3231C39.267 21.2268 39.401 20.8612 39.4512 20.3679C39.5089 19.7918 39.2477 18.5228 39.016 18.2048C39.016 18.2048 38.9927 18.0019 38.9879 17.8358C39.06 17.8716 39.1329 17.8771 39.1899 17.8303C39.3639 17.6857 39.8279 17.0797 40.5538 16.7629C41.2798 16.4449 41.9756 16.1569 42.7881 16.0988C43.6007 16.0414 43.7169 15.984 43.7169 15.984C43.7169 15.984 44.0943 15.9263 44.5302 16.1569C44.9653 16.3875 47.5482 17.6857 47.9255 17.8303C48.3029 17.9746 48.8833 18.2342 49.2902 18.5512C49.6958 18.8687 50.0148 18.8394 50.0148 18.8394C50.0148 18.8394 50.3049 19.1571 50.7408 19.4455C51.176 19.7337 51.321 19.878 51.5822 19.9361C51.8434 19.9935 52.3659 20.2627 51.6991 19.3102C51.6991 19.3102 51.0308 18.6378 50.4506 18.3783C49.8698 18.1182 49.8986 17.8585 49.5507 17.8303C49.2022 17.8012 48.5643 17.6857 48.0418 17.4552C47.5193 17.2238 46.0398 16.6188 45.4012 16.2727C44.7625 15.9263 44.3556 15.6666 44.1816 15.5221C44.0077 15.3779 43.7169 15.397 43.1662 15.4839C43.1662 15.4839 41.5989 15.8398 41.0474 16.0988C40.4961 16.3591 39.2477 17.0513 39.0442 17.2238C39.0442 17.2238 38.8146 17.2238 38.7287 17.3329C38.7176 17.3256 38.7073 17.3174 38.6963 17.311C38.5513 17.2238 37.6225 16.33 37.6225 16.33C37.1578 15.9263 36.374 15.0899 35.8811 14.6854C35.3875 14.2819 33.3994 13.6553 32.5731 13.7342C31.7989 13.807 31.4347 14.3102 31.2346 14.8005C31.0723 14.5149 30.8908 14.2265 30.7155 14.0229C30.2226 13.4455 30.0769 13.2723 30.0769 13.2723C30.0769 13.2723 29.5543 13.2723 29.0319 13.6185C28.7157 13.8281 28.2716 14.3028 27.9704 14.6443C27.7189 14.6491 27.5167 14.7093 27.4068 14.8012C27.03 15.1183 24.8824 16.6188 24.7958 16.9932C24.7408 17.2272 24.6527 17.382 24.538 17.4661C24.3661 17.2946 24.0202 17.143 23.6345 17.311C23.6104 17.3213 23.5832 17.3322 23.5561 17.344C23.5025 16.3055 23.3568 13.5804 23.2859 13.3014C23.1986 12.9552 23.0247 12.6955 22.7339 12.8398C22.4437 12.9836 22.1832 13.3881 22.1832 13.8207C22.1832 14.2529 22.3575 14.4834 22.4152 14.657C22.4637 14.8019 22.5125 16.9413 22.6129 17.7765C22.2299 17.9863 21.879 18.2471 21.7769 18.5512C21.5737 19.1571 21.6024 19.3874 21.4284 19.5609C21.4057 19.5834 21.3713 19.608 21.3321 19.6333C21.2077 19.5151 21.0623 19.3976 20.9485 19.2821C20.8874 19.0197 20.8708 18.7226 21.109 18.5804C21.3995 18.407 21.3995 17.2819 21.109 17.1664L20.8186 17.0513C20.8186 17.0513 21.3414 15.1183 21.2256 14.0229C21.109 12.9255 20.9932 11.7721 20.7609 11.5989C20.6448 11.5126 20.4635 11.491 20.3112 11.491ZM20.0894 11.9322C20.2391 11.9314 20.3365 12.0517 20.2968 12.3488C20.239 12.7821 19.9486 14.5416 19.9194 15.205C19.8905 15.8682 19.9486 17.2238 19.9486 17.2238C19.9486 17.2238 19.586 17.4743 19.6273 17.7559C19.5206 17.7347 19.4368 17.724 19.3969 17.7142C19.2807 17.6857 19.6293 16.532 19.1934 16.2433C18.7582 15.9546 17.9457 16.2727 17.6556 16.4166C17.4208 16.5334 16.9764 16.6122 16.8162 16.6386C16.7571 16.4318 16.6395 16.2142 16.4078 16.0988C16.1947 15.9936 15.6908 15.8583 15.1067 15.7578L16.0304 14.7721C16.0304 14.7721 16.7268 14.7148 17.2204 14.3686C17.7136 14.0229 19.6004 12.1472 19.861 12.0031C19.9426 11.9579 20.0214 11.9325 20.0894 11.9322ZM29.9286 13.8518C30.0378 13.8522 30.1233 13.9313 30.1642 14.0803C30.2171 14.2702 30.3739 14.9724 30.4907 15.5019C30.2137 15.5556 30.0109 15.6004 29.8851 15.6629C29.6459 15.3396 29.3694 15.1066 29.0883 14.946C29.1935 14.7148 29.3083 14.4285 29.4966 14.1664C29.6508 13.9519 29.8049 13.8513 29.9286 13.8518ZM30.204 17.6212C30.2941 17.6454 30.3883 17.6623 30.4797 17.6673C30.5031 18.2096 30.7561 18.6378 30.9479 18.9835C31.0805 19.2247 31.4003 19.505 31.7446 19.7612C31.5405 19.7912 31.3522 19.835 31.205 19.8752C31.205 19.8752 28.8443 20.3495 28.4077 20.5797C27.9711 20.8107 27.6075 21.1154 27.3297 21.0266C27.0527 20.9364 27.7917 20.6822 28.4318 20.2011C28.6827 20.0119 28.8724 19.7222 28.9068 19.4687C28.9501 19.4147 28.9927 19.36 29.0319 19.3012C29.4603 18.6624 29.9531 18.1604 30.204 17.6212ZM34.7848 18.1569C34.8032 18.157 34.8213 18.1581 34.8389 18.1603C35.1291 18.1966 35.1291 18.2676 35.4199 18.7006C35.71 19.1332 35.7821 19.7098 35.5649 19.9265C35.3469 20.1431 35.0927 20.2148 34.476 19.386C33.8889 18.5949 34.4097 18.1556 34.7848 18.1569ZM16.7054 18.187C16.8492 18.2752 17.1403 18.4538 17.4026 18.5886C17.1978 18.689 17.0024 18.8455 16.7872 19.0053C16.7976 18.8947 16.7886 18.7998 16.7557 18.7245C16.702 18.5995 16.6931 18.4016 16.7054 18.187ZM19.3694 19.6073C19.599 19.6532 19.8115 19.6558 19.9771 19.8199C20.1717 20.0133 20.3346 20.4957 20.501 20.7287C20.38 21.11 20.3446 21.2876 20.703 21.4072C21.1382 21.5514 21.5156 21.3492 21.5156 21.3492C21.5156 21.3492 21.5682 21.412 21.6553 21.4865C21.2937 21.6956 20.9533 21.9306 20.8482 22.0708C20.6736 22.301 20.4707 22.1855 20.4707 22.1855C20.4707 22.1855 19.7743 21.0321 19.4839 19.9641C19.4481 19.8329 19.4096 19.7146 19.3694 19.6073Z" fill="#A81C7D"/>
<path d="M2.15635 31.9568L0.1875 31.1433V30.6295L2.15635 29.8176V30.4294L0.959798 30.8872L2.15635 31.3484V31.9568ZM5.40382 31.7308H4.51675L4.38966 32.1463H3.58822L4.54012 29.6209H5.4L6.35275 32.1463H5.53076L5.40382 31.7308ZM5.23768 31.1842L4.96132 30.2759L4.68381 31.1842H5.23768ZM7.84273 29.6209H9.14763C9.43182 29.6209 9.64477 29.688 9.78628 29.8224C9.92782 29.9568 9.99863 30.1481 9.99863 30.3964C9.99863 30.6514 9.92144 30.8507 9.76722 30.9943C9.61296 31.138 9.37747 31.2098 9.06087 31.2098H8.63102V32.1463H7.84273V29.6209ZM8.63102 30.6996H8.82397C8.97576 30.6996 9.08241 30.6733 9.14377 30.621C9.20524 30.5686 9.23599 30.5014 9.23599 30.4197C9.23599 30.3403 9.20927 30.2729 9.15601 30.2176C9.10266 30.1623 9.00239 30.1347 8.85523 30.1347H8.63102V30.6996ZM12.9079 31.7308H12.0208L11.8939 32.1463H11.0923L12.0442 29.6209H12.9042L13.8569 32.1463H13.0349L12.9079 31.7308ZM12.7418 31.1842L12.4654 30.2759L12.1879 31.1842H12.7418ZM16.9766 31.1149L17.6659 31.3207C17.6197 31.5122 17.547 31.6723 17.4476 31.801C17.3482 31.9294 17.2249 32.0266 17.0776 32.0918C16.9303 32.1573 16.7428 32.1901 16.5153 32.1901C16.2391 32.1901 16.0135 32.1502 15.8386 32.0703C15.6635 31.9905 15.5124 31.8502 15.3853 31.6493C15.2582 31.4484 15.1948 31.191 15.1948 30.8777C15.1948 30.4597 15.3065 30.1383 15.5299 29.9138C15.7532 29.6893 16.0693 29.5771 16.4781 29.5771C16.7979 29.5771 17.0494 29.6414 17.2324 29.7701C17.4154 29.8988 17.5514 30.0964 17.6403 30.363L16.9473 30.5173C16.9231 30.4399 16.8978 30.3833 16.8714 30.3474C16.8275 30.2872 16.7739 30.241 16.7105 30.2088C16.6472 30.1763 16.5763 30.1602 16.498 30.1602C16.3206 30.1602 16.1847 30.2313 16.0902 30.3737C16.0188 30.4794 15.9831 30.6453 15.9831 30.8715C15.9831 31.1517 16.0257 31.3437 16.111 31.4475C16.1962 31.5514 16.316 31.6034 16.4704 31.6034C16.6201 31.6034 16.7333 31.5616 16.8099 31.4782C16.8865 31.3948 16.9421 31.2737 16.9766 31.1149ZM19.2916 29.6209H20.0762V30.5063H20.9342V29.6209H21.7225V32.1463H20.9342V31.1259H20.0762V32.1463H19.2916V29.6209ZM23.4815 29.6209H25.5898V30.1602H24.2698V30.561H25.4945V31.0749H24.2698V31.5742H25.6265V32.1463H23.4815V29.6209ZM31.2734 31.7308H30.3862L30.2592 32.1463H29.4577L30.4096 29.6209H31.2695L32.2222 32.1463H31.4003L31.2734 31.7308ZM31.1072 31.1842L30.8308 30.2759L30.5533 31.1842H31.1072ZM33.7195 29.6209H34.4512L35.4097 31.0197V29.6209H36.1504V32.1463H35.4097L34.4565 30.7551V32.1463H33.7195L33.7195 29.6209ZM37.7372 29.6209H40.1205V30.244H39.3211V32.1463H38.5365V30.244H37.7372V29.6209ZM41.6438 31.3484L42.8405 30.8872L41.6438 30.4294V29.8176L43.6127 30.6295V31.1433L41.6438 31.9568L41.6438 31.3484Z" fill="white"/>
</g>
<defs>
<clipPath id="clip0_427_2760">
<rect width="52" height="32" fill="white" transform="translate(0 0.19043)"/>
</clipPath>
</defs>
</svg>
