<svg width="78" height="33" viewBox="0 0 78 33" fill="none" xmlns="http://www.w3.org/2000/svg">
<path d="M10.9606 21.8454V27.1904L5.48047 21.7454V16.4004L10.9606 21.8454Z" fill="#00701A"/>
<path d="M10.9609 21.8454L16.4461 16.4004V21.7454L10.9609 27.1904V21.8454Z" fill="#004300"/>
<path d="M5.48013 16.4002V21.7452L0 16.2952V10.9502L5.48013 16.4002Z" fill="#43A047"/>
<path d="M21.9254 10.9502V16.2952L16.4453 21.7452V16.4002L21.9254 10.9502Z" fill="#43A047"/>
<path d="M10.9606 21.8452L5.48047 16.4002L10.9606 10.9502L16.4458 16.4002L10.9606 21.8452Z" fill="#43A047"/>
<path d="M5.48013 16.4004L0 10.9504L5.48013 5.50537L10.9603 10.9504L5.48013 16.4004Z" fill="#76D275"/>
<path d="M16.4461 16.4004L10.9609 10.9504L16.4461 5.50537L21.9262 10.9504L16.4461 16.4004Z" fill="#76D275"/>
<path d="M28.9707 24.1554V8.19044H34.793C36.0028 8.17292 37.1734 8.61667 38.064 9.43044C38.5095 9.81645 38.864 10.2952 39.1023 10.8327C39.3407 11.3702 39.4569 11.9533 39.4428 12.5404C39.454 13.2516 39.2469 13.9492 38.849 14.5404C38.4554 15.1179 37.906 15.5737 37.2639 15.8554V15.9454C38.0399 16.2018 38.7203 16.6844 39.2164 17.3304C39.7245 17.9802 39.9943 18.7827 39.9813 19.6054C39.9953 20.2205 39.8728 20.831 39.6223 21.3937C39.3718 21.9563 38.9995 22.4571 38.532 22.8604C37.6006 23.712 36.3756 24.1756 35.1101 24.1554H28.9707ZM31.0339 15.0304H34.793C35.1434 15.0452 35.4928 14.9839 35.8169 14.851C36.1411 14.718 36.4322 14.5165 36.6701 14.2604C36.8921 14.0403 37.0682 13.7788 37.1883 13.491C37.3085 13.2031 37.3704 12.8946 37.3704 12.5829C37.3704 12.2713 37.3085 11.9627 37.1883 11.6749C37.0682 11.3871 36.8921 11.1256 36.6701 10.9054C36.4437 10.6545 36.1645 10.4563 35.8522 10.3249C35.5399 10.1935 35.2023 10.1323 34.8635 10.1454H31.0339V15.0304ZM31.0339 22.1904H35.1906C35.5532 22.2026 35.914 22.1349 36.2472 21.9923C36.5804 21.8497 36.8777 21.6356 37.1179 21.3654C37.589 20.8803 37.8555 20.2345 37.8627 19.5604C37.8416 18.8513 37.5395 18.1792 37.0221 17.6904C36.5046 17.2016 35.8138 16.9356 35.1 16.9504H31.0339V22.1904ZM45.4262 24.5154C44.3593 24.5515 43.3166 24.1955 42.4974 23.5154C42.1143 23.1879 41.8108 22.7784 41.6095 22.3178C41.4082 21.8571 41.3143 21.3572 41.335 20.8554C41.3141 20.3108 41.4302 19.7696 41.6727 19.2807C41.9152 18.7919 42.2765 18.3708 42.7239 18.0554C43.7296 17.3597 44.9363 17.0086 46.1609 17.0554C47.1911 17.0048 48.2166 17.2238 49.135 17.6904V17.3754C49.1481 17.0124 49.08 16.6509 48.9356 16.3172C48.7911 15.9834 48.5739 15.6857 48.2996 15.4454C47.7325 14.9606 47.0044 14.7023 46.2565 14.7204C45.6862 14.715 45.1248 14.8617 44.6311 15.1454C44.1666 15.3999 43.8095 15.8115 43.6246 16.3054L41.7426 15.5004C42.0635 14.7661 42.5868 14.1369 43.2522 13.6854C44.121 13.0904 45.1623 12.7953 46.2162 12.8454C47.5049 12.797 48.764 13.2367 49.7388 14.0754C50.2114 14.5147 50.5808 15.052 50.8208 15.6491C51.0609 16.2463 51.1657 16.8886 51.1277 17.5304V24.1554H49.135V22.6554H49.0444C48.6604 23.2554 48.1233 23.7435 47.4877 24.0702C46.8522 24.3969 46.1409 24.5505 45.4262 24.5154ZM45.7633 22.6404C46.633 22.6355 47.4667 22.2948 48.0883 21.6904C48.4155 21.4146 48.6786 21.0715 48.8593 20.6847C49.0401 20.298 49.1341 19.8768 49.135 19.4504C48.3664 18.9188 47.437 18.6663 46.5031 18.7354C45.6952 18.6769 44.8926 18.9055 44.2386 19.3804C44.0071 19.5584 43.8183 19.7854 43.686 20.0448C43.5537 20.3042 43.4812 20.5897 43.4737 20.8804C43.4608 21.1406 43.5185 21.3993 43.6407 21.6298C43.7628 21.8602 43.945 22.0538 44.1681 22.1904C44.6421 22.4966 45.1981 22.6534 45.7633 22.6404ZM53.1306 24.1404V22.3704L59.3957 15.1004H53.3067V13.2254H61.932V15.0104L55.6668 22.2804H62.0226V24.1554L53.1306 24.1404ZM68.7557 24.5004C68.0008 24.5271 67.2489 24.3932 66.5503 24.1078C65.8517 23.8224 65.2225 23.392 64.7048 22.8454C63.6519 21.7141 63.0912 20.2154 63.1448 18.6754C63.1107 17.1672 63.6497 15.7015 64.6544 14.5704C65.1295 14.0201 65.7219 13.5816 66.3886 13.2867C67.0553 12.9918 67.7796 12.8479 68.5092 12.8654C69.2389 12.8339 69.9668 12.9592 70.6433 13.2328C71.3199 13.5063 71.929 13.9216 72.4293 14.4504C73.4595 15.6189 73.9934 17.1388 73.9188 18.6904V19.0704H65.208C65.2154 20.0555 65.6153 20.9976 66.3201 21.6904C66.6355 21.9987 67.009 22.2421 67.4191 22.4068C67.8293 22.5715 68.2681 22.6543 68.7104 22.6504C70.1933 22.6504 71.1997 22.0254 71.7298 20.7754L73.5414 21.5254C73.1672 22.3901 72.5506 23.1295 71.765 23.6554C70.8757 24.2447 69.8242 24.5452 68.7557 24.5154V24.5004ZM71.7197 17.3604C71.6507 16.683 71.3443 16.0513 70.8542 15.5754C70.5423 15.2764 70.1705 15.0461 69.7629 14.8996C69.3554 14.7531 68.9213 14.6938 68.489 14.7254C67.7519 14.7067 67.0342 14.9616 66.4761 15.4404C65.8951 15.9422 65.4897 16.6146 65.3187 17.3604H71.7197ZM77.8742 24.1404H75.8059V8.19044H77.8742V24.1404Z" fill="#F5F9FF"/>
</svg>
