<svg width="94" height="27" viewBox="0 0 94 27" fill="none" xmlns="http://www.w3.org/2000/svg">
<path d="M50.6047 19.0075V24.6717C49.9197 25.1823 49.1519 25.571 48.3349 25.8208C47.4967 26.068 46.6264 26.1898 45.7525 26.1822C44.6945 26.1982 43.6426 26.0178 42.6504 25.6503C41.7696 25.3174 40.9656 24.8091 40.2872 24.1561C39.6292 23.5153 39.1132 22.7434 38.7727 21.8904C38.4116 20.9754 38.231 19.9992 38.2408 19.0156C38.2293 18.0258 38.4028 17.0426 38.7524 16.1165C39.3969 14.3899 40.758 13.0273 42.4839 12.3809C43.4507 12.0192 44.4767 11.8416 45.5089 11.8571C46.0424 11.8542 46.5751 11.899 47.1006 11.9911C47.5693 12.0759 48.0298 12.2009 48.477 12.3647C48.8819 12.5157 49.2698 12.709 49.6342 12.9412C49.9793 13.1654 50.3041 13.4195 50.6047 13.7005L49.8576 14.8821C49.7612 15.0551 49.5959 15.1791 49.4028 15.2232C49.1895 15.2602 48.9703 15.2105 48.7937 15.0851L48.1684 14.7156C47.9419 14.5872 47.704 14.4798 47.4579 14.3949C47.1703 14.2989 46.8757 14.2256 46.5768 14.1756C46.204 14.1115 45.8262 14.0816 45.448 14.0863C44.8071 14.0775 44.1708 14.1962 43.5761 14.4355C43.0308 14.657 42.5423 14.9984 42.1469 15.4343C41.7398 15.8861 41.4302 16.4168 41.2373 16.9935C41.0153 17.647 40.9068 18.3336 40.9166 19.0237C40.9043 19.7531 41.0211 20.4789 41.2617 21.1676C41.4681 21.7627 41.7973 22.3078 42.2281 22.7674C42.6482 23.2004 43.1583 23.5358 43.7223 23.75C44.7969 24.1383 45.9623 24.2005 47.0721 23.9287C47.4828 23.818 47.8824 23.6699 48.2659 23.4861V20.9646H46.4996C46.3502 20.977 46.2026 20.9254 46.0936 20.8225C46.0003 20.7322 45.9488 20.6071 45.9515 20.4773V19.0075H50.6047ZM54.8559 17.8178C55.1215 17.2784 55.4978 16.801 55.9604 16.4169C56.3891 16.0765 56.9235 15.8969 57.4708 15.9094C57.8616 15.8887 58.2488 15.994 58.5752 16.2099L58.4209 18.0005C58.401 18.0951 58.3529 18.1814 58.2829 18.2482C58.2105 18.2989 58.1235 18.3245 58.0352 18.3213C57.8907 18.3164 57.7468 18.3001 57.6048 18.2725C57.4197 18.2406 57.2323 18.2243 57.0445 18.2238C56.8041 18.2196 56.5649 18.2581 56.338 18.3375C56.1334 18.4146 55.9448 18.5289 55.7817 18.6745C55.6109 18.8274 55.4644 19.0054 55.3472 19.2024C55.2109 19.4282 55.0928 19.6644 54.994 19.9089V26.0279H52.6349V16.0921H54.0357C54.2175 16.0743 54.3998 16.1203 54.5514 16.222C54.6678 16.3524 54.7366 16.5185 54.7463 16.6931L54.8559 17.8178ZM67.0412 18.2238C66.8884 17.7716 66.6421 17.3565 66.3184 17.0057C65.9953 16.6535 65.5989 16.3762 65.1572 16.1936C64.6614 15.9965 64.1314 15.8999 63.598 15.9094C62.0702 15.8757 60.5892 16.4378 59.4685 17.4767L59.9395 18.2401C60.0116 18.3605 60.1068 18.4654 60.2197 18.5487C60.3435 18.6379 60.4935 18.6836 60.646 18.6786C60.8313 18.6812 61.0137 18.6335 61.1739 18.5405L61.7018 18.236C61.9147 18.1131 62.1391 18.0111 62.3717 17.9315C62.6842 17.8337 63.0108 17.7885 63.3381 17.7975C63.7948 17.7702 64.2404 17.9455 64.5562 18.2766C64.8738 18.7008 65.0255 19.2264 64.9826 19.7546V20.3393C64.3028 20.3485 63.6245 20.4041 62.9524 20.5058C62.4273 20.5839 61.9098 20.7062 61.4053 20.8712C61.011 20.9942 60.6353 21.1704 60.2887 21.395C60.0112 21.57 59.7608 21.7847 59.5457 22.0325C59.3661 22.2412 59.2283 22.4824 59.1396 22.7431C59.0565 22.9848 59.014 23.2386 59.0138 23.4942C59.0048 23.8956 59.0766 24.2946 59.2249 24.6677C59.3581 24.9903 59.5637 25.2778 59.8258 25.5082C60.0941 25.7411 60.408 25.9153 60.7476 26.0198C61.1241 26.1333 61.5156 26.1894 61.9088 26.1863C62.2358 26.1893 62.5623 26.1593 62.8833 26.0969C63.1624 26.0354 63.4345 25.9456 63.6954 25.829C63.9565 25.71 64.2054 25.5659 64.4385 25.3985C64.6961 25.214 64.9428 25.0147 65.1775 24.8017L65.3886 25.5204C65.4326 25.6872 65.5367 25.8318 65.681 25.9264C65.843 26.0032 66.0217 26.0381 66.2007 26.0279H67.2889V19.7749C67.2934 19.2477 67.2097 18.7234 67.0412 18.2238ZM64.9501 23.4577C64.649 23.787 64.2932 24.0618 63.8984 24.2698C63.4999 24.4566 63.0635 24.5483 62.6235 24.5377C62.2791 24.5543 61.9386 24.4588 61.653 24.2657C61.2381 23.8801 61.1578 23.2532 61.4622 22.7755C61.6185 22.565 61.829 22.4008 62.0713 22.3005C62.4325 22.1398 62.8134 22.0279 63.2041 21.9675C63.7812 21.8669 64.3646 21.8058 64.9501 21.7848V23.4577ZM75.767 11.6379V16.8798C75.459 16.5845 75.1017 16.3454 74.7113 16.1733C74.2595 15.9884 73.7741 15.8999 73.2861 15.9135C72.675 15.9094 72.0715 16.0485 71.5239 16.3195C71.0017 16.5814 70.543 16.9542 70.1799 17.4117C69.7928 17.8944 69.4994 18.4453 69.315 19.0359C69.1104 19.7014 69.0091 20.3943 69.0145 21.0905C69.0043 21.8221 69.0945 22.5516 69.2825 23.2587C69.4344 23.8249 69.6905 24.3578 70.0378 24.8301C70.6565 25.6773 71.6484 26.1709 72.6973 26.1538C73.3269 26.1742 73.9514 26.0344 74.5123 25.7477C75.0347 25.4615 75.5021 25.0848 75.8929 24.6352L76.0959 25.5935C76.1596 25.868 76.4161 26.0535 76.6968 26.0279H78.1586V11.6338L75.767 11.6379ZM75.7792 23.0841C75.5029 23.435 75.166 23.7334 74.7844 23.9652C74.3968 24.182 73.9573 24.2887 73.5135 24.2738C73.2247 24.2788 72.9381 24.222 72.673 24.1073C72.4117 23.9869 72.1894 23.7955 72.0314 23.5551C71.8357 23.2529 71.698 22.917 71.6254 22.5644C71.5245 22.0798 71.4782 21.5854 71.4873 21.0905C71.4785 20.5862 71.5331 20.0828 71.6497 19.5922C71.7376 19.2163 71.899 18.8617 72.1248 18.5487C72.3222 18.2826 72.5833 18.0703 72.8841 17.9315C73.1915 17.7931 73.5256 17.7238 73.8627 17.7285C74.2165 17.7267 74.5672 17.7958 74.894 17.9315C75.2401 18.0911 75.5434 18.3304 75.7792 18.6299V23.0841ZM82.9539 11.6379V26.0279H80.5623V11.6379H82.9539ZM92.642 23.4536C92.4801 23.4579 92.322 23.5041 92.1832 23.5876C92.037 23.6769 91.8421 23.7785 91.631 23.8881C91.395 24.0089 91.1491 24.1094 90.896 24.1885C90.5705 24.284 90.2323 24.3292 89.8931 24.3225C89.5319 24.3284 89.1727 24.2679 88.8333 24.1439C88.5255 24.0273 88.2479 23.8427 88.0213 23.6038C87.7734 23.3382 87.5827 23.0245 87.4609 22.6821C87.3058 22.2567 87.2142 21.8106 87.1889 21.3585L93.3363 21.3544C93.5079 21.3766 93.6782 21.3053 93.7829 21.1676C93.8806 20.9371 93.921 20.6863 93.9007 20.4367C93.9115 19.7847 93.8014 19.1362 93.5759 18.5243C93.3799 17.9952 93.0741 17.5136 92.6785 17.1113C92.2931 16.7231 91.8275 16.4237 91.3142 16.2342C90.7597 16.0284 90.1719 15.9266 89.5805 15.9338C88.8924 15.9299 88.2109 16.0681 87.5787 16.3398C87.012 16.5831 86.5019 16.9412 86.0804 17.3914C85.6642 17.8429 85.3426 18.373 85.1343 18.9506C84.9122 19.5636 84.8009 20.2112 84.8054 20.8631C84.7904 21.6471 84.9184 22.4272 85.183 23.1653C85.4097 23.7857 85.7623 24.3525 86.2184 24.8301C86.656 25.2766 87.1852 25.6229 87.7695 25.8452C88.3851 26.0802 89.0393 26.1973 89.6982 26.1903C90.0582 26.1901 90.4178 26.1643 90.7742 26.1132C91.1476 26.0604 91.5149 25.9707 91.8705 25.8452C92.2327 25.7179 92.5788 25.549 92.9019 25.3417C93.2368 25.1293 93.5367 24.8664 93.7911 24.5621L93.0886 23.6769C92.9915 23.5268 92.8204 23.4412 92.642 23.4536ZM87.9888 18.2401C88.4283 17.8323 89.0142 17.6199 89.6129 17.6513C89.9333 17.6454 90.2513 17.7062 90.5468 17.83C90.8024 17.9404 91.029 18.1086 91.2087 18.3213C91.3903 18.5315 91.5284 18.7759 91.6147 19.04C91.7032 19.3239 91.7484 19.6196 91.7487 19.917H87.2295C87.2934 19.2903 87.56 18.7016 87.9888 18.2401Z" fill="white"/>
<path d="M33.2505 1.82365C31.126 -0.302527 27.6979 -0.360021 25.5033 1.69373C25.3976 1.79094 25.3373 1.92778 25.3368 2.07134C25.3338 2.21552 25.3895 2.35473 25.4911 2.45708L26.1935 3.15953C26.3808 3.34596 26.6764 3.36672 26.8878 3.20825C27.4386 2.7926 28.1103 2.56871 28.8003 2.57077C30.5652 2.57074 31.9959 4.0014 31.9959 5.76626C31.9959 6.6128 31.66 7.42476 31.062 8.0239C26.6483 12.4619 20.7242 0.0614479 7.3208 6.44033C6.40966 6.86356 6.01412 7.94528 6.43735 8.85642C6.45917 8.90338 6.48298 8.9494 6.50872 8.99432L8.8069 12.9695C9.30587 13.83 10.4026 14.1318 11.2716 13.6476L11.3284 13.6151L11.2838 13.6476L12.3029 13.075C13.4398 12.3709 14.5143 11.5708 15.5147 10.6835C15.718 10.4938 16.0301 10.4834 16.2456 10.6591C16.4698 10.8418 16.5034 11.1718 16.3207 11.396C16.2983 11.4236 16.2731 11.4487 16.2456 11.4712C15.2016 12.4113 14.0781 13.259 12.8876 14.0049L12.8511 14.0252L11.8319 14.5936C11.4023 14.8371 10.9167 14.9644 10.4229 14.9631C9.38155 14.9657 8.41763 14.4133 7.89331 13.5136L5.71694 9.76174C1.54285 12.7096 -0.990845 18.3901 0.369394 25.577C0.418096 25.8276 0.637931 26.0082 0.893186 26.0074H3.36596C3.64005 26.0179 3.8765 25.8167 3.91007 25.5445C4.16919 23.5565 5.99084 22.155 7.97882 22.4142C9.61142 22.627 10.8963 23.9119 11.1091 25.5445C11.1415 25.8058 11.3615 26.0033 11.6248 26.0074H14.0367C14.3039 26.0076 14.5299 25.8095 14.5646 25.5445C14.8148 23.5577 16.6283 22.1499 18.6152 22.4001C20.2584 22.6071 21.5526 23.9012 21.7596 25.5445C21.7924 25.8089 22.017 26.0074 22.2834 26.0074H24.6668C24.9552 26.0074 25.1902 25.776 25.1947 25.4877C25.2515 22.1257 26.157 18.2642 28.7435 16.3315C37.6723 9.63993 35.3213 3.90259 33.2505 1.82365ZM24.1268 11.9462V11.9422L22.4214 11.0854C22.4192 10.4934 22.8974 10.0117 23.4894 10.0095C24.0814 10.0073 24.5631 10.4855 24.5653 11.0775C24.5666 11.4206 24.4036 11.7435 24.1268 11.9462Z" fill="url(#paint0_linear_431_1374)"/>
<defs>
<linearGradient id="paint0_linear_431_1374" x1="6.94354" y1="2.41206" x2="26.1835" y2="24.512" gradientUnits="userSpaceOnUse">
<stop stop-color="#34A8D5"/>
<stop offset="1" stop-color="#7BCBB6"/>
</linearGradient>
</defs>
</svg>
