<svg width="155" height="33" viewBox="0 0 155 33" fill="none" xmlns="http://www.w3.org/2000/svg">
<path d="M72.29 12.625C73.3733 12.625 74.3361 12.8697 75.1787 13.3545L75.1689 13.3496C76.0167 13.8396 76.6741 14.5149 77.1406 15.3799C77.607 16.2448 77.8428 17.2347 77.8428 18.3496V18.96H69.1699C69.2201 19.4648 69.3449 19.9298 69.5605 20.3447C69.8314 20.8697 70.2031 21.2743 70.6797 21.5693C71.1562 21.8643 71.693 22.0098 72.2949 22.0098C72.8266 22.0097 73.3033 21.9042 73.7246 21.6992C74.1457 21.4943 74.4966 21.2047 74.7773 20.835H77.5371C77.2763 21.5149 76.8998 22.0951 76.4082 22.5801C75.9166 23.065 75.3194 23.4401 74.6172 23.7051C73.9201 23.97 73.1426 24.0996 72.29 24.0996C71.2115 24.0996 70.2378 23.8494 69.375 23.3594C68.5124 22.8644 67.8305 22.1845 67.334 21.3047C66.8374 20.4248 66.586 19.4148 66.5859 18.3398C66.5859 17.2649 66.8373 16.2899 67.3389 15.4199C67.8405 14.5499 68.5277 13.8641 69.3955 13.3691C70.2682 12.8743 71.2067 12.625 72.29 12.625ZM53.4785 12.625C54.2661 12.625 54.9589 12.7946 55.5508 13.1396L55.5557 13.1543C56.1475 13.4943 56.6134 13.9947 56.9395 14.6396C57.2655 15.2846 57.4316 16.06 57.4316 16.96V23.8496H54.9082V17.3447C54.9082 16.8147 54.8183 16.3641 54.6377 15.9941C54.4572 15.6243 54.2011 15.3395 53.8652 15.1445C53.5292 14.9496 53.1276 14.8496 52.6611 14.8496C52.1596 14.8496 51.7182 14.9597 51.332 15.1846C50.9458 15.4096 50.6443 15.72 50.4336 16.125C50.223 16.5299 50.1182 16.9852 50.1182 17.5V23.8447H47.585V12.8848H50.042V14.4893C50.358 13.9593 50.7649 13.5298 51.2715 13.2148C51.8985 12.8199 52.6358 12.625 53.4785 12.625ZM62.9941 10.21V12.8848H65.9141L65.9043 15.0801H62.9844L62.9941 20.6094C62.9941 20.9092 63.0946 21.1595 63.29 21.3545C63.4857 21.5495 63.7371 21.6494 64.0381 21.6494H65.9043V23.8447H63.5312C62.9444 23.8447 62.4128 23.7197 61.9463 23.4697C61.4798 23.2197 61.1134 22.8697 60.8525 22.4297C60.5917 21.9847 60.4609 21.4847 60.4609 20.9297L60.4512 15.0742H58.5195L58.5303 12.8799H59.7344C60.0099 12.8798 60.2252 12.7995 60.3906 12.6299C60.5562 12.4649 60.6367 12.2494 60.6367 11.9844V10.21H62.9941ZM139.092 8.86426V11.2295H131.04V15.1543H138.364V17.4648H131.04V21.4795H139.308V23.8447H128.432V8.86426H139.092ZM44.876 8.85938V23.8398H42.1367V8.85938H44.876ZM82.2217 8.85938V23.8398H79.6885V8.85938H82.2217ZM87.2031 8.85938V23.8398H84.6699V8.85938H87.2031ZM110.228 8.85938V23.8398H107.489V8.85938H110.228ZM118.836 8.85938C120.256 8.85939 121.525 9.18423 122.644 9.82422V9.81445C123.762 10.4594 124.635 11.3446 125.267 12.4795C125.894 13.6145 126.21 14.8997 126.21 16.3447C126.21 17.7897 125.899 19.075 125.267 20.21C124.64 21.3448 123.767 22.2301 122.644 22.875C121.52 23.52 120.256 23.8398 118.836 23.8398H113.197V8.85938H118.836ZM148.913 8.85938L154.537 23.8398H151.833L150.554 20.2441H144.52L143.341 23.8398H140.571L146.024 8.85938H148.913ZM98.124 8.85449V18.9551C98.124 19.9299 97.8976 20.7798 97.4512 21.5146C96.9997 22.2496 96.3729 22.8196 95.5703 23.2246C94.7628 23.6296 93.8298 23.8349 92.7715 23.835H89.5957V21.4043H92.7207C93.2574 21.4043 93.7342 21.2943 94.1455 21.0693C94.5567 20.8444 94.8777 20.5298 95.1084 20.125C95.3391 19.72 95.4551 19.2546 95.4551 18.7246L95.4502 18.7197V8.85449H98.124ZM115.876 11.1846V21.5195H118.815C119.743 21.5195 120.566 21.3146 121.269 20.8896C121.971 20.4647 122.518 19.8698 122.899 19.0898V19.0947C123.286 18.3147 123.476 17.4045 123.476 16.3545C123.476 15.3045 123.281 14.3942 122.899 13.6143C122.518 12.8343 121.976 12.2344 121.269 11.8145C120.561 11.3945 119.743 11.1846 118.815 11.1846H115.876ZM92.1797 12.5742V19.5498H89.6006V12.5742H92.1797ZM147.213 12.1445L145.187 18.1494H149.831L147.675 12.1445L147.438 11.2148L147.213 12.1445ZM72.29 14.625C71.6882 14.625 71.1513 14.7697 70.6748 15.0596C70.1983 15.3496 69.8265 15.7498 69.5557 16.2598C69.3909 16.5683 69.286 16.9066 69.2207 17.2646H75.249C75.1888 16.9297 75.0936 16.6143 74.9531 16.3193C74.7023 15.7895 74.3462 15.3742 73.8848 15.0742C73.4234 14.7744 72.8917 14.6251 72.29 14.625ZM92.3945 9.29004V11.7949H89.5059V9.29004H92.3945Z" fill="white"/>
<path d="M8.00098 3.27441H2.04163C0.912964 3.27441 0 4.18927 0 5.30909V11.0632C0 11.6581 0.260846 12.223 0.712312 12.6079L19.8545 28.9604C20.2257 29.2753 20.6972 29.4503 21.1838 29.4503H27.1431C28.2718 29.4503 29.1848 28.5404 29.1848 27.4156V21.6615C29.1848 21.0666 28.9239 20.5017 28.4724 20.1168L9.33029 3.76434C8.95909 3.44939 8.48756 3.27441 8.00098 3.27441Z" fill="#FF8100"/>
<path d="M7.28365 3.27441H2.04163C0.912964 3.27441 0 4.18427 0 5.30909V11.8531C0 11.948 0.00501675 12.048 0.0200656 12.143L2.66866 30.6101C2.81414 31.615 3.67192 32.3598 4.69023 32.3598H12.5507C13.6794 32.3598 14.5924 31.45 14.5924 30.3252V21.0566C14.5924 20.8366 14.5522 20.6217 14.487 20.4117L9.21993 4.66419C8.94404 3.83433 8.1615 3.27441 7.28365 3.27441Z" fill="url(#paint0_linear_418_2680)"/>
<path d="M30.063 0.364862H13.0227C12.2051 0.364862 11.4677 0.849786 11.1466 1.59967L3.08546 20.3417C2.9751 20.5967 2.91992 20.8666 2.91992 21.1416V30.3201C2.91992 31.445 3.83289 32.3548 4.96155 32.3548H13.9758C14.3771 32.3548 14.7734 32.2348 15.1095 32.0099L31.1967 21.3116C31.7636 20.9316 32.1047 20.2967 32.1047 19.6168V2.39454C32.1047 1.26972 31.1917 0.359863 30.063 0.359863V0.364862Z" fill="url(#paint1_linear_418_2680)"/>
<path d="M26.0847 6.35986H6.01953V26.3599H26.0847V6.35986Z" fill="black"/>
<path d="M12.9617 15.0549H11.4669V10.1699H12.9617V8.86486H8.52734V10.1699H10.0222V15.0549H8.52734V16.3599H12.9617V15.0549ZM15.9113 8.85986V13.8949C15.9113 14.1149 15.8662 14.3049 15.7709 14.4749C15.6756 14.6449 15.5451 14.7749 15.3746 14.8699C15.204 14.9649 15.0084 15.0099 14.7927 15.0099H13.7142V16.3599H14.9783C15.4348 16.3599 15.8411 16.2599 16.2073 16.0549C16.5735 15.8499 16.8594 15.5699 17.0651 15.2099C17.2707 14.8499 17.3761 14.4449 17.3761 13.9949V8.85986H15.9113ZM8.52734 23.8599H16.5534V22.3599H8.52734V23.8599Z" fill="white"/>
<defs>
<linearGradient id="paint0_linear_418_2680" x1="-0.361172" y1="4.17427" x2="12.0445" y2="31.0173" gradientUnits="userSpaceOnUse">
<stop offset="0.1" stop-color="#FC801D"/>
<stop offset="0.59" stop-color="#FE2857"/>
</linearGradient>
<linearGradient id="paint1_linear_418_2680" x1="2.11732" y1="30.3701" x2="31.4675" y2="0.919691" gradientUnits="userSpaceOnUse">
<stop offset="0.21" stop-color="#FE2857"/>
<stop offset="0.7" stop-color="#007EFF"/>
</linearGradient>
</defs>
</svg>
