<svg width="82" height="17" viewBox="0 0 82 17" fill="none" xmlns="http://www.w3.org/2000/svg">
<path d="M14.6914 4.39223C15.0402 4.25063 15.3969 4.17943 15.7624 4.17943C16.3058 4.17943 16.7275 4.25503 17.0281 4.40634C17.3278 4.55674 17.5469 4.79771 17.6854 5.12663C17.8309 5.45646 17.9186 5.88217 17.9466 6.40371C17.9755 6.92526 17.9896 7.5656 17.9896 8.32548V16.0266H22.3833V5.9912C22.3833 4.1152 22.0003 2.67891 21.2343 1.68154C20.4691 0.683256 19.3489 0.18457 17.8739 0.18457C17.0798 0.18457 16.2699 0.42297 15.4434 0.898742C14.6169 1.37457 13.7667 2.02897 12.892 2.86189C12.5029 1.9832 11.9638 1.31743 11.2749 0.864456C10.5868 0.411485 9.79276 0.18457 8.89263 0.18457C8.05823 0.18457 7.2966 0.372799 6.60768 0.747485C5.91877 1.12303 5.19833 1.64463 4.44456 2.31303V0.610285H0.0507812V16.0266H4.44456V5.09937C4.76885 4.87949 5.13347 4.67194 5.53926 4.47491C5.94508 4.27788 6.36316 4.17943 6.79264 4.17943C7.32814 4.17943 7.74446 4.25503 8.04069 4.40634C8.33606 4.55674 8.5578 4.79771 8.70421 5.12663C8.8497 5.45646 8.9391 5.88394 8.9715 6.40988C9.00396 6.93674 9.01974 7.57526 9.01974 8.32548V16.0266H13.4135V5.09937C13.9166 4.76954 14.3426 4.53474 14.6914 4.39223Z" fill="white"/>
<path d="M32.4284 13.3261C32.0296 13.4845 31.6378 13.5627 31.2504 13.5627C30.7631 13.5627 30.4038 13.5284 30.175 13.4607C29.9454 13.393 29.7482 13.2866 29.5834 13.1432C29.4116 12.9998 29.3038 12.8494 29.2609 12.692C29.2179 12.5337 29.196 12.3296 29.196 12.0781C29.196 11.6981 29.2985 11.3911 29.5028 11.159C29.707 10.9259 30.0023 10.7482 30.3897 10.626C30.7052 10.5257 31.168 10.4378 31.7772 10.3621C32.3864 10.2874 32.9534 10.2285 33.4767 10.1845V12.7025C33.1752 12.9602 32.8255 13.1687 32.4284 13.3261ZM33.4767 15.8723H37.3165V7.6268C37.3165 6.17383 36.8265 5.10697 35.8476 4.42709C34.8694 3.7472 33.2795 3.40771 31.0778 3.40771C30.1531 3.40771 29.2302 3.4816 28.309 3.62846C27.3878 3.77623 26.7226 3.90377 26.3141 4.01194V6.93634H26.6691C26.9838 6.81411 27.5035 6.63994 28.2283 6.41303C28.9523 6.18611 29.6333 6.07269 30.2714 6.07269C31.3328 6.07269 32.1357 6.20109 32.6808 6.45617C33.2252 6.71206 33.4977 7.17383 33.4977 7.84314V7.90737C32.3583 7.97246 31.2574 8.0736 30.1961 8.20994C29.1347 8.34714 28.2459 8.57669 27.5289 8.90034C26.805 9.224 26.2458 9.6664 25.8514 10.2285C25.457 10.7895 25.2598 11.5125 25.2598 12.3974C25.2598 13.5055 25.6472 14.4159 26.4211 15.1274C27.1959 15.8398 28.1565 16.196 29.3038 16.196C29.7911 16.196 30.2398 16.1547 30.6483 16.072C31.0568 15.9893 31.4512 15.8618 31.8316 15.6885C32.1032 15.5593 32.3942 15.3833 32.7019 15.1599C33.0104 14.9374 33.2689 14.7466 33.4767 14.5882V15.8723Z" fill="#F26921"/>
<path d="M49.0271 3.75231L46.2599 12.0946L43.4579 3.75231H39.3691L43.9934 15.8721H48.3819L53.0388 3.75231H49.0271ZM67.0842 9.1702C67.0842 7.2994 66.5899 5.8658 65.6002 4.86929C64.6105 3.87277 63.1339 3.375 61.1688 3.375C59.0396 3.375 57.3632 3.95986 56.1412 5.12877C54.9186 6.29763 54.3075 7.88254 54.3075 9.8826C54.3075 11.9046 54.9527 13.4623 56.2431 14.5555C57.534 15.6496 59.3915 16.1959 61.8145 16.1959C62.7535 16.1959 63.6106 16.1167 64.3844 15.9584C65.1594 15.8 65.9834 15.545 66.8587 15.1923V12.0735H66.4287C65.9834 12.4121 65.3775 12.7279 64.6105 13.0234C63.8429 13.318 63.0514 13.4658 62.2336 13.4658C60.9433 13.4658 59.9661 13.2143 59.3027 12.7103C58.6399 12.2063 58.28 11.4798 58.2219 10.5299H67.0842V9.1702ZM58.2117 8.25283C58.2686 7.39706 58.5374 6.77437 59.018 6.38557C59.498 5.99774 60.1119 5.80334 60.8579 5.80334C61.6602 5.80334 62.2513 6.00826 62.6317 6.41814C63.0121 6.82797 63.2125 7.44014 63.2336 8.25283H58.2117ZM81.9472 7.98283C81.9472 6.46477 81.5799 5.32489 80.8465 4.56231C80.1119 3.7998 79.0938 3.41809 77.7903 3.41809C77.017 3.41809 76.3132 3.56231 75.6794 3.84991C75.0461 4.13751 74.3862 4.55089 73.6977 5.09094V3.75231H69.8158V15.8721H73.6977V7.28186C74.1214 7.0294 74.5137 6.84649 74.8759 6.73123C75.238 6.61603 75.5945 6.55889 75.9459 6.55889C76.4413 6.55889 76.8262 6.61957 77.1024 6.7418C77.378 6.86403 77.5876 7.05843 77.7316 7.32494C77.8535 7.55534 77.9389 7.91334 77.989 8.39883C78.0397 8.88431 78.0648 9.37157 78.0648 9.8606V15.8721H81.9472V7.98283Z" fill="white"/>
</svg>
