<?xml version="1.0" encoding="utf-8"?>
<!-- Generator: Adobe Illustrator 21.0.0, SVG Export Plug-In . SVG Version: 6.00 Build 0)  -->
<svg version="1.1" id="Layer_1" xmlns="http://www.w3.org/2000/svg" xmlns:xlink="http://www.w3.org/1999/xlink" x="0px" y="0px"
	 viewBox="0 0 31 19" enable-background="new 0 0 31 19" xml:space="preserve">
<g>
	<path d="M21.5,1C26.187,1,30,4.813,30,9.5c0,4.687-3.813,8.5-8.5,8.5h-12C4.813,18,1,14.187,1,9.5
		C1,4.813,4.813,1,9.5,1H21.5 M21.5,0h-12C4.253,0,0,4.253,0,9.5v0C0,14.747,4.253,19,9.5,19h12c5.247,0,9.5-4.253,9.5-9.5v0
		C31,4.253,26.747,0,21.5,0L21.5,0z"/>
</g>
<g>
	<g>
		<polygon points="21,9 10,9 10,10 21,10 21,9"/>
	</g>
	<g>
		<polygon points="16,4 15,4 15,15 16,15 16,4"/>
	</g>
</g>
</svg>
