<svg id="Layer_1" data-name="Layer 1" xmlns="http://www.w3.org/2000/svg" xmlns:xlink="http://www.w3.org/1999/xlink" width="108.93001" height="102.20599" viewBox="0 0 108.93001 102.20599">
  <defs>
    <linearGradient id="linear-gradient" x1="60.31551" y1="-364.30222" x2="60.31551" y2="-437.9371" gradientTransform="translate(0 471)" gradientUnits="userSpaceOnUse">
      <stop offset="0.3033" stop-color="#473788"/>
      <stop offset="0.872" stop-color="#2c2255"/>
    </linearGradient>
    <linearGradient id="linear-gradient-2" x1="60.31601" y1="-364.30121" x2="60.31601" y2="-437.93613" xlink:href="#linear-gradient"/>
    <linearGradient id="linear-gradient-3" x1="60.31601" y1="-364.3031" x2="60.31601" y2="-437.93442" gradientTransform="translate(0 471)" gradientUnits="userSpaceOnUse">
      <stop offset="0.3033" stop-color="#473788"/>
      <stop offset="0.8631" stop-color="#2c2255"/>
    </linearGradient>
  </defs>
  <title>icons</title>
  <path d="M30.054,65.21H13.31A47.42225,47.42225,0,0,0,25.664,85.655a47.22406,47.22406,0,0,0,34.65,14.398,52.57337,52.57337,0,0,0,7.854-.584A46.7027,46.7027,0,0,0,94.871,85.655,47.39126,47.39126,0,0,0,107.31,65.21H30.054Z" fill="#2c2255"/>
  <g>
    <path d="M20.821,42.468H12.074a51.14415,51.14415,0,0,0-.637,5.896h97.757a50.70175,50.70175,0,0,0-.641-5.896" fill="#2c2255"/>
    <path d="M11.437,53.839a50.876,50.876,0,0,0,.637,5.896h96.481a50.86947,50.86947,0,0,0,.642-5.896" fill="#2c2255"/>
  </g>
  <path d="M107.312,36.992a47.78386,47.78386,0,0,0-12.441-20.54A46.81734,46.81734,0,0,0,68.246,2.742a52.7801,52.7801,0,0,0-7.932-.593,47.402,47.402,0,0,0-34.65,14.303,47.82639,47.82639,0,0,0-12.357,20.54" fill="#2c2255"/>
  <path d="M8.53,51.103C8.53,25.279,27.925,3.822,53.156.048,52.53.025,51.901,0,51.269,0a51.10327,51.10327,0,1,0,0,102.206c.634,0,1.263-.024,1.891-.047C27.925,98.385,8.53,76.928,8.53,51.103Z" fill="#f7941e"/>
  <g>
    <path d="M93.583,48.363a33.30968,33.30968,0,0,0-1.012-5.896H28.061a33.27887,33.27887,0,0,0-1.013,5.896Z" fill="url(#linear-gradient)"/>
    <path d="M93.583,53.839H27.049a33.21819,33.21819,0,0,0,1.012,5.896H92.572A33.30868,33.30868,0,0,0,93.583,53.839Z" fill="url(#linear-gradient-2)"/>
    <path d="M60.316,84.491A33.38661,33.38661,0,0,0,90.579,65.21H30.053A33.3866,33.3866,0,0,0,60.316,84.491Z" fill="url(#linear-gradient-3)"/>
  </g>
  <g>
    <path d="M22.118,53.839h87.01c.046-.871.072-1.748.072-2.631,0-.955-.035-1.902-.089-2.845H11.437c-.054.942-.089,1.89-.089,2.845,0,.883.026,1.76.072,2.631Z" fill="#fff"/>
    <path d="M29.858,36.992H13.306a47.83312,47.83312,0,0,0-1.232,5.476h96.17a48.58807,48.58807,0,0,0-1.316-5.476" fill="#fff"/>
    <path d="M101.956,59.734H12.073a47.98658,47.98658,0,0,0,1.236,5.476h93.939a48.47518,48.47518,0,0,0,1.294-5.476Z" fill="#fff"/>
  </g>
</svg>
